<svg xmlns="http://www.w3.org/2000/svg" width="300" height="300" viewBox="0 0 300 300">
<path d="M 155.0 127.0 L 155.5 126.5 L 156.0 125.5 L 156.5 124.5 L 156.5 123.5 L 157.0 122.0 L 157.0 120.5 L 157.0 120.5 L 157.0 122.0 L 157.0 129.5 L 157.0 140.0 L 157.5 148.5 L 158.0 150.5 L 158.0 148.0 " stroke="black" fill="none" stroke-width="6.0" stroke-linecap="round" stroke-linejoin="round" />
<path d="M 157.5 119.0 L 157.5 118.5 L 157.5 118.0 L 157.0 117.5 L 157.0 117.5 L 158.0 117.5 L 161.5 117.5 L 167.5 117.5 L 174.0 117.0 L 178.5 116.5 L 181.0 116.5 L 181.5 116.5 L 182.0 116.5 L 182.5 116.5 L 183.0 117.0 L 184.0 117.5 L 184.0 118.0 L 184.5 118.0 L 184.5 118.0 L 184.5 118.0 L 184.5 118.0 L 184.5 118.5 L 184.5 119.0 L 184.0 120.5 L 183.5 124.0 L 183.0 129.5 L 182.5 136.5 L 182.5 142.5 L 182.5 145.0 L 183.0 145.0 L 183.0 143.5 " stroke="black" fill="none" stroke-width="6.0" stroke-linecap="round" stroke-linejoin="round" />
<path d="M 169.0 132.5 L 168.5 132.5 L 168.0 132.0 L 168.0 132.0 L 168.0 133.0 L 169.0 136.5 L 170.0 141.0 L 170.5 144.5 L 170.5 146.5 L 170.5 146.5 " stroke="black" fill="none" stroke-width="6.0" stroke-linecap="round" stroke-linejoin="round" />
<path d="M 170.5 132.5 L 171.0 132.5 L 171.0 132.5 L 171.5 132.5 L 172.0 132.5 L 173.5 132.5 L 175.5 132.5 L 177.5 132.5 L 179.5 132.0 " stroke="black" fill="none" stroke-width="6.0" stroke-linecap="round" stroke-linejoin="round" />
<path d="M 150.5 156.5 L 150.5 156.0 L 151.5 155.5 L 151.5 155.5 L 152.0 156.0 L 152.5 160.0 L 153.0 166.5 L 153.0 174.0 L 153.0 181.0 L 153.5 185.0 L 153.5 185.5 L 153.5 184.5 " stroke="black" fill="none" stroke-width="6.0" stroke-linecap="round" stroke-linejoin="round" />
<path d="M 153.0 154.0 L 153.0 154.0 L 153.0 154.5 L 153.0 154.5 L 154.0 154.5 L 156.5 153.0 L 161.0 151.5 L 168.5 150.5 L 176.5 149.5 L 183.0 149.5 L 188.0 149.5 L 191.0 150.0 L 193.0 150.0 L 193.5 150.0 L 193.5 150.5 L 193.5 150.5 L 193.5 150.5 L 193.5 151.0 L 193.5 152.0 L 193.5 153.5 L 193.5 156.0 L 193.5 160.0 L 193.5 165.5 L 193.5 172.0 L 193.5 178.0 L 194.0 183.5 L 194.0 188.0 L 194.0 190.0 L 194.0 191.0 L 193.0 191.0 L 191.0 189.5 L 189.5 187.5 " stroke="black" fill="none" stroke-width="6.0" stroke-linecap="round" stroke-linejoin="round" />
<path d="M 168.0 163.0 L 167.5 162.5 L 167.0 161.5 L 166.5 161.0 L 166.5 161.5 L 167.5 163.0 L 168.5 166.5 L 169.5 170.0 L 170.0 172.5 L 170.0 173.0 " stroke="black" fill="none" stroke-width="6.0" stroke-linecap="round" stroke-linejoin="round" />
<path d="M 169.0 163.5 L 169.0 162.0 L 169.0 161.5 L 171.0 161.0 L 173.5 160.5 L 176.5 160.5 L 178.5 161.0 L 180.0 162.0 L 180.5 164.0 L 180.5 167.0 L 180.0 170.0 L 179.0 173.0 L 178.0 174.5 L 177.5 174.5 " stroke="black" fill="none" stroke-width="6.0" stroke-linecap="round" stroke-linejoin="round" />
<path d="M 171.5 175.0 L 171.0 175.5 L 170.0 176.0 L 170.0 176.5 L 171.0 176.5 L 173.0 176.0 L 175.5 175.5 L 178.0 174.5 " stroke="black" fill="none" stroke-width="6.0" stroke-linecap="round" stroke-linejoin="round" />
<path d="M 129.0 123.0 L 129.0 123.0 L 130.0 123.0 L 130.5 122.5 L 131.5 122.5 L 132.5 123.0 L 134.0 124.5 L 135.5 126.5 L 136.5 127.5 " stroke="black" fill="none" stroke-width="6.0" stroke-linecap="round" stroke-linejoin="round" />
<path d="M 133.0 141.0 L 133.0 141.0 L 132.5 140.5 L 132.5 140.0 L 132.5 140.0 L 133.5 140.0 L 135.5 141.0 L 137.0 143.0 L 138.0 146.0 L 138.5 150.0 L 136.5 154.5 L 134.0 158.0 L 133.0 160.0 L 133.0 161.5 L 135.5 164.0 L 137.5 167.0 L 139.5 170.0 L 140.0 174.0 L 139.5 179.5 L 137.0 185.0 L 134.0 190.0 L 131.0 192.5 L 129.0 193.0 L 127.5 193.0 L 126.5 192.5 L 125.5 192.5 L 125.5 192.5 L 125.5 192.5 L 125.5 192.5 L 125.5 192.5 L 127.0 192.5 L 129.5 192.5 L 133.0 193.5 L 138.5 194.0 L 146.0 194.5 L 155.0 195.5 L 164.5 197.0 L 173.0 198.5 L 182.0 199.0 L 190.5 198.5 L 198.0 197.0 L 203.0 197.0 L 206.0 197.0 " stroke="black" fill="none" stroke-width="6.0" stroke-linecap="round" stroke-linejoin="round" />
</svg>