<svg xmlns="http://www.w3.org/2000/svg" width="300" height="300" viewBox="0 0 300 300">
<path d="M 130.0 106.5 L 130.0 106.5 L 130.5 106.5 L 130.5 106.5 L 130.5 106.5 L 130.0 109.0 L 128.0 114.0 L 126.0 119.0 L 125.5 121.5 " stroke="black" fill="none" stroke-width="6.0" stroke-linecap="round" stroke-linejoin="round" />
<path d="M 123.0 121.5 L 122.5 121.5 L 121.5 121.5 L 121.5 121.5 L 123.5 121.0 L 128.0 119.5 L 132.5 118.5 L 135.5 118.0 L 137.5 118.0 L 138.0 119.0 L 138.0 121.0 L 138.0 124.5 L 137.5 128.0 L 137.0 130.5 L 136.0 132.0 L 135.5 132.0 " stroke="black" fill="none" stroke-width="6.0" stroke-linecap="round" stroke-linejoin="round" />
<path d="M 123.5 135.5 L 123.0 136.0 L 122.5 136.5 L 124.0 136.5 L 127.5 136.5 L 131.0 136.0 L 133.5 134.5 L 133.5 134.0 " stroke="black" fill="none" stroke-width="6.0" stroke-linecap="round" stroke-linejoin="round" />
<path d="M 121.5 121.0 L 121.5 121.0 L 122.0 121.5 L 122.0 122.0 L 122.0 124.5 L 122.5 132.0 L 122.5 144.5 L 122.5 155.0 L 122.5 158.5 L 123.5 157.5 " stroke="black" fill="none" stroke-width="6.0" stroke-linecap="round" stroke-linejoin="round" />
<path d="M 125.0 149.5 L 124.5 149.5 L 124.0 149.0 L 125.0 148.0 L 128.0 146.0 L 131.5 144.5 L 135.0 143.5 L 137.5 143.0 L 139.0 143.5 L 139.5 145.0 L 140.0 146.5 L 139.5 148.5 L 138.5 151.0 L 137.0 153.0 " stroke="black" fill="none" stroke-width="6.0" stroke-linecap="round" stroke-linejoin="round" />
<path d="M 126.5 160.5 L 126.0 160.5 L 125.5 160.5 L 125.5 160.5 L 128.0 160.5 L 131.5 159.5 L 135.0 158.0 L 136.0 158.0 " stroke="black" fill="none" stroke-width="6.0" stroke-linecap="round" stroke-linejoin="round" />
<path d="M 134.0 168.5 L 135.0 168.0 L 135.0 168.5 L 134.5 172.5 L 134.5 178.0 L 134.5 183.0 L 134.5 185.5 " stroke="black" fill="none" stroke-width="6.0" stroke-linecap="round" stroke-linejoin="round" />
<path d="M 132.5 180.5 L 133.0 181.0 L 134.0 181.0 L 136.5 181.0 L 139.5 179.5 L 142.0 178.0 L 143.0 176.5 " stroke="black" fill="none" stroke-width="6.0" stroke-linecap="round" stroke-linejoin="round" />
<path d="M 124.0 172.0 L 124.0 172.0 L 124.0 171.5 L 124.0 171.5 L 124.0 172.5 L 124.0 177.5 L 124.0 186.5 L 124.0 194.5 L 124.0 198.0 L 124.0 198.0 " stroke="black" fill="none" stroke-width="6.0" stroke-linecap="round" stroke-linejoin="round" />
<path d="M 118.0 200.5 L 118.0 200.5 L 118.5 201.0 L 120.0 201.5 L 125.5 199.5 L 132.0 196.0 L 138.0 192.0 L 141.5 188.5 L 142.0 187.5 " stroke="black" fill="none" stroke-width="6.0" stroke-linecap="round" stroke-linejoin="round" />
<path d="M 150.5 114.0 L 150.5 114.0 L 150.5 114.0 L 150.0 114.0 L 150.0 114.0 L 150.5 114.0 L 153.5 113.5 L 159.0 112.5 L 166.0 111.0 L 172.0 110.0 L 175.0 110.0 L 175.0 110.5 L 174.5 113.0 L 173.5 117.5 L 172.5 124.0 L 171.5 130.5 L 171.0 134.0 L 170.5 134.5 L 170.5 134.0 " stroke="black" fill="none" stroke-width="6.0" stroke-linecap="round" stroke-linejoin="round" />
<path d="M 149.5 125.5 L 149.5 125.5 L 148.5 125.5 L 148.5 125.0 L 151.0 125.0 L 157.0 124.0 L 166.5 122.5 L 175.0 121.5 L 180.0 121.0 L 181.5 121.5 L 181.5 122.5 " stroke="black" fill="none" stroke-width="6.0" stroke-linecap="round" stroke-linejoin="round" />
<path d="M 150.0 136.5 L 151.0 136.5 L 151.5 136.5 L 154.0 136.5 L 159.5 135.5 L 167.5 133.5 L 175.0 133.0 L 176.0 133.0 " stroke="black" fill="none" stroke-width="6.0" stroke-linecap="round" stroke-linejoin="round" />
<path d="M 153.0 149.5 L 153.5 149.5 L 153.5 149.0 L 154.0 148.5 L 153.5 149.0 L 153.0 151.0 L 152.5 154.0 L 152.0 157.0 L 151.0 158.5 " stroke="black" fill="none" stroke-width="6.0" stroke-linecap="round" stroke-linejoin="round" />
<path d="M 152.5 151.5 L 152.5 151.5 L 152.5 151.0 L 153.0 150.5 L 154.5 150.0 L 158.5 149.5 L 164.5 148.0 L 171.0 146.0 L 176.5 144.5 L 180.0 144.5 L 181.0 145.0 L 181.5 146.5 L 181.5 147.5 L 181.5 148.5 L 181.5 149.5 L 181.5 150.5 L 180.5 152.5 L 179.5 154.5 L 178.0 156.0 " stroke="black" fill="none" stroke-width="6.0" stroke-linecap="round" stroke-linejoin="round" />
<path d="M 156.0 167.5 L 156.0 166.5 L 156.0 166.0 L 156.0 166.0 L 156.0 170.0 L 156.0 177.0 L 156.5 183.5 L 158.0 186.5 L 159.0 185.0 " stroke="black" fill="none" stroke-width="6.0" stroke-linecap="round" stroke-linejoin="round" />
<path d="M 161.0 168.0 L 161.0 168.0 L 160.5 167.5 L 160.5 167.5 L 162.0 167.0 L 165.5 166.5 L 170.0 165.0 L 174.5 164.0 L 177.5 163.5 L 179.5 164.5 L 180.5 167.0 L 181.0 171.0 L 181.5 176.5 L 181.5 182.0 L 180.5 187.0 L 179.0 189.5 L 177.5 189.5 L 175.0 186.5 L 173.5 183.5 " stroke="black" fill="none" stroke-width="6.0" stroke-linecap="round" stroke-linejoin="round" />
<path d="M 165.0 146.0 L 165.0 146.5 L 164.5 148.5 L 164.5 155.0 L 166.0 168.5 L 166.5 183.0 L 167.0 190.5 L 167.0 193.0 " stroke="black" fill="none" stroke-width="6.0" stroke-linecap="round" stroke-linejoin="round" />
</svg>