<svg xmlns="http://www.w3.org/2000/svg" width="300" height="300" viewBox="0 0 300 300">
<path d="M 144.0 100.5 L 144.0 100.0 L 143.5 99.5 L 143.5 99.5 L 144.0 100.5 L 145.5 102.5 L 147.0 104.5 L 148.0 106.0 L 148.5 106.5 " stroke="black" fill="none" stroke-width="6.0" stroke-linecap="round" stroke-linejoin="round" />
<path d="M 124.5 112.5 L 124.5 112.5 L 124.0 112.5 L 123.5 113.0 L 123.0 113.5 L 123.0 115.5 L 122.5 119.0 L 122.0 123.0 L 122.0 125.5 L 122.0 126.0 " stroke="black" fill="none" stroke-width="6.0" stroke-linecap="round" stroke-linejoin="round" />
<path d="M 125.0 113.0 L 125.0 113.5 L 124.5 114.0 L 124.5 114.0 L 126.0 114.0 L 129.0 114.0 L 135.0 114.0 L 145.0 112.0 L 156.0 110.0 L 164.5 109.0 L 169.5 108.5 L 173.0 108.5 L 175.5 109.0 L 176.0 109.5 L 176.0 109.5 L 175.5 109.5 L 175.5 109.5 L 175.5 109.5 L 175.5 109.5 L 175.5 110.0 L 175.5 110.5 L 175.0 112.0 L 174.5 114.0 L 174.0 116.5 L 174.0 119.0 L 173.5 120.5 L 173.5 121.5 " stroke="black" fill="none" stroke-width="6.0" stroke-linecap="round" stroke-linejoin="round" />
<path d="M 134.0 124.0 L 134.5 124.0 L 134.5 123.5 L 135.0 123.5 L 135.0 123.5 L 135.5 124.5 L 136.0 125.5 L 136.5 126.5 L 136.5 126.5 " stroke="black" fill="none" stroke-width="6.0" stroke-linecap="round" stroke-linejoin="round" />
<path d="M 127.0 133.0 L 127.0 133.0 L 127.0 133.5 L 128.5 133.5 L 132.5 133.5 L 138.0 132.0 L 142.0 131.5 L 144.0 130.5 L 144.5 130.5 " stroke="black" fill="none" stroke-width="6.0" stroke-linecap="round" stroke-linejoin="round" />
<path d="M 130.0 138.5 L 130.0 138.5 L 130.0 138.0 L 129.5 138.0 L 129.5 139.5 L 130.0 142.5 L 130.5 145.0 L 131.0 146.5 " stroke="black" fill="none" stroke-width="6.0" stroke-linecap="round" stroke-linejoin="round" />
<path d="M 140.5 137.5 L 141.5 137.5 L 142.0 137.5 L 142.0 137.5 L 142.5 137.5 L 142.5 139.0 L 141.5 141.0 L 140.5 144.0 " stroke="black" fill="none" stroke-width="6.0" stroke-linecap="round" stroke-linejoin="round" />
<path d="M 126.5 152.0 L 126.5 153.0 L 126.5 153.0 L 127.5 153.5 L 131.5 153.5 L 137.0 153.5 L 141.5 152.5 L 145.0 151.5 L 145.5 151.5 " stroke="black" fill="none" stroke-width="6.0" stroke-linecap="round" stroke-linejoin="round" />
<path d="M 128.5 161.0 L 128.5 160.0 L 129.0 160.0 L 129.0 160.0 L 129.0 161.0 L 129.5 166.5 L 129.5 176.0 L 129.5 185.0 L 129.0 188.5 L 128.5 188.5 " stroke="black" fill="none" stroke-width="6.0" stroke-linecap="round" stroke-linejoin="round" />
<path d="M 131.0 162.0 L 131.0 162.0 L 131.0 162.0 L 131.0 162.0 L 131.5 162.0 L 133.0 161.5 L 135.5 161.0 L 138.5 160.5 L 141.5 160.5 L 143.5 160.0 L 145.0 160.0 L 145.5 160.0 L 146.5 160.5 L 146.5 161.0 L 147.0 161.5 L 147.0 163.5 L 147.5 167.0 L 147.5 172.0 L 147.5 178.5 L 148.0 185.0 L 148.0 190.0 L 148.5 192.5 L 148.5 193.5 L 147.5 193.5 L 146.0 192.5 L 145.5 191.5 " stroke="black" fill="none" stroke-width="6.0" stroke-linecap="round" stroke-linejoin="round" />
<path d="M 137.0 169.5 L 137.0 169.5 L 136.5 169.5 L 136.5 169.5 L 136.5 170.0 L 136.5 170.0 L 137.5 171.0 L 138.5 172.0 L 139.0 172.5 " stroke="black" fill="none" stroke-width="6.0" stroke-linecap="round" stroke-linejoin="round" />
<path d="M 135.0 184.5 L 135.5 183.5 L 136.5 183.0 L 137.5 182.5 L 139.5 181.0 L 142.0 179.5 L 142.5 179.0 " stroke="black" fill="none" stroke-width="6.0" stroke-linecap="round" stroke-linejoin="round" />
<path d="M 156.0 128.0 L 156.0 128.5 L 156.0 129.0 L 156.0 129.5 L 156.5 129.5 L 158.5 129.5 L 162.0 129.0 L 164.5 128.5 L 166.5 128.0 L 167.0 128.0 " stroke="black" fill="none" stroke-width="6.0" stroke-linecap="round" stroke-linejoin="round" />
<path d="M 154.0 119.0 L 154.0 118.5 L 154.5 118.5 L 154.5 118.0 L 154.5 118.5 L 154.5 120.5 L 154.0 124.5 L 153.5 131.0 L 153.5 137.0 L 153.5 140.0 L 154.5 140.5 L 155.0 140.0 L 157.0 139.0 L 159.0 138.0 L 161.5 137.0 L 164.5 136.5 L 167.0 136.5 L 168.5 136.5 L 170.0 136.5 L 170.5 136.5 L 171.0 136.5 L 171.0 136.5 L 171.0 136.5 L 171.0 137.0 L 171.0 138.0 L 171.0 139.5 L 171.0 141.0 L 170.5 143.5 L 170.5 145.5 L 170.5 147.0 L 170.5 148.0 L 170.5 148.0 " stroke="black" fill="none" stroke-width="6.0" stroke-linecap="round" stroke-linejoin="round" />
<path d="M 156.0 149.0 L 156.0 149.5 L 156.5 149.5 L 158.0 150.0 L 160.0 150.0 L 163.5 149.5 L 166.0 148.5 L 168.5 148.0 L 168.5 148.0 " stroke="black" fill="none" stroke-width="6.0" stroke-linecap="round" stroke-linejoin="round" />
<path d="M 155.0 149.5 L 155.5 149.5 L 155.5 150.0 L 156.0 150.0 L 156.0 150.0 L 156.0 151.0 L 156.0 152.5 L 156.5 156.5 L 156.5 163.0 L 156.5 170.0 L 157.0 175.5 L 157.0 179.0 L 158.0 182.0 L 158.5 184.0 L 160.0 185.0 L 161.5 186.0 L 162.5 186.5 L 164.0 186.5 L 165.5 187.0 L 166.5 187.0 L 168.0 187.0 L 169.5 187.0 L 171.0 187.0 L 173.0 186.0 L 174.5 185.0 L 175.5 184.0 L 176.5 183.5 L 176.5 183.0 L 176.5 183.0 L 176.5 183.0 L 176.0 183.0 L 176.0 183.0 " stroke="black" fill="none" stroke-width="6.0" stroke-linecap="round" stroke-linejoin="round" />
<path d="M 160.0 160.0 L 160.0 160.0 L 160.0 160.0 L 160.0 160.0 L 160.0 160.0 L 162.0 160.0 L 164.5 160.0 L 167.0 160.0 L 168.5 160.0 L 170.0 159.5 " stroke="black" fill="none" stroke-width="6.0" stroke-linecap="round" stroke-linejoin="round" />
<path d="M 160.0 168.5 L 159.5 168.5 L 159.0 169.0 L 158.5 169.0 L 159.0 169.0 L 160.5 169.0 L 162.5 169.0 L 165.5 169.0 L 168.0 169.0 L 170.0 168.5 " stroke="black" fill="none" stroke-width="6.0" stroke-linecap="round" stroke-linejoin="round" />
<path d="M 159.0 176.0 L 159.0 176.0 L 159.0 176.5 L 159.0 176.5 L 159.5 176.5 L 161.5 176.5 L 164.5 176.5 L 168.0 176.5 L 170.5 176.5 " stroke="black" fill="none" stroke-width="6.0" stroke-linecap="round" stroke-linejoin="round" />
</svg>