<svg xmlns="http://www.w3.org/2000/svg" width="300" height="300" viewBox="0 0 300 300">
<path d="M 127.5 121.0 L 127.5 120.5 L 127.5 119.5 L 127.5 119.0 L 127.5 118.5 L 128.0 118.5 L 128.5 119.0 L 129.5 122.0 L 130.5 127.5 L 130.5 138.5 L 130.0 154.5 L 129.0 166.0 L 129.0 171.0 L 129.0 173.0 L 129.0 173.0 L 129.0 171.0 L 129.0 168.5 " stroke="black" fill="none" stroke-width="6.0" stroke-linecap="round" stroke-linejoin="round" />
<path d="M 146.0 116.5 L 145.5 116.5 L 145.0 117.0 L 145.0 117.5 L 145.0 119.0 L 145.0 123.0 L 145.5 131.0 L 145.5 143.5 L 145.5 156.5 L 145.0 165.0 L 144.5 170.0 L 144.5 171.0 L 144.5 170.0 L 144.0 167.5 " stroke="black" fill="none" stroke-width="6.0" stroke-linecap="round" stroke-linejoin="round" />
<path d="M 127.0 136.0 L 126.0 136.0 L 125.0 136.0 L 124.5 136.0 L 124.5 136.0 L 126.0 136.0 L 128.5 136.0 L 132.5 136.0 L 137.5 135.5 L 142.0 135.0 L 145.5 134.5 L 147.0 134.0 L 148.0 134.0 " stroke="black" fill="none" stroke-width="6.0" stroke-linecap="round" stroke-linejoin="round" />
<path d="M 130.0 152.5 L 130.0 152.5 L 131.0 152.5 L 132.0 152.0 L 133.5 152.0 L 135.5 151.0 L 137.5 150.5 L 140.0 150.0 L 142.5 150.0 L 143.5 150.0 " stroke="black" fill="none" stroke-width="6.0" stroke-linecap="round" stroke-linejoin="round" />
<path d="M 133.0 162.0 L 133.0 162.0 L 133.0 162.5 L 133.0 162.5 L 134.0 162.5 L 137.5 162.5 L 141.0 161.5 L 145.0 160.5 L 146.5 160.0 " stroke="black" fill="none" stroke-width="6.0" stroke-linecap="round" stroke-linejoin="round" />
<path d="M 124.0 177.0 L 123.5 177.0 L 123.0 177.5 L 123.0 177.5 L 126.0 177.0 L 131.0 176.0 L 138.0 175.5 L 145.5 175.0 L 151.0 174.0 L 153.0 173.5 L 152.5 173.5 L 152.0 173.5 " stroke="black" fill="none" stroke-width="6.0" stroke-linecap="round" stroke-linejoin="round" />
<path d="M 133.5 185.5 L 134.0 186.0 L 134.0 186.5 L 132.5 187.5 L 130.5 189.5 L 128.5 192.0 L 126.5 194.0 L 126.5 194.5 L 126.5 194.5 " stroke="black" fill="none" stroke-width="6.0" stroke-linecap="round" stroke-linejoin="round" />
<path d="M 143.0 188.5 L 143.5 189.0 L 144.5 189.5 L 146.0 190.0 L 147.5 190.5 L 149.0 191.0 " stroke="black" fill="none" stroke-width="6.0" stroke-linecap="round" stroke-linejoin="round" />
<path d="M 171.5 124.5 L 171.5 124.0 L 171.5 123.5 L 171.5 123.5 L 171.5 123.0 L 170.5 123.0 L 168.0 123.5 L 164.5 124.5 L 159.5 126.0 L 156.0 127.0 L 154.0 128.0 L 152.5 128.0 L 152.5 128.0 L 152.5 128.0 L 152.5 128.0 L 153.0 128.0 L 153.0 128.0 L 153.0 128.0 L 153.5 128.0 L 153.5 128.0 L 154.0 128.0 L 154.0 128.5 L 154.5 128.5 L 154.5 129.5 L 154.5 132.0 L 155.0 137.0 L 155.0 144.5 L 155.0 152.5 L 155.0 160.5 L 154.0 169.0 L 153.0 175.5 L 152.5 180.0 L 152.0 182.5 L 152.0 182.5 L 152.0 181.5 L 151.5 178.0 " stroke="black" fill="none" stroke-width="6.0" stroke-linecap="round" stroke-linejoin="round" />
<path d="M 156.5 142.0 L 156.5 142.0 L 157.0 142.5 L 157.0 142.5 L 158.5 142.5 L 161.5 142.5 L 166.0 142.5 L 170.5 142.5 L 174.5 142.0 L 177.0 141.0 L 177.5 141.0 " stroke="black" fill="none" stroke-width="6.0" stroke-linecap="round" stroke-linejoin="round" />
<path d="M 168.0 142.5 L 167.0 142.5 L 166.5 142.5 L 166.5 142.5 L 166.5 144.0 L 167.5 149.0 L 168.5 158.0 L 169.0 167.5 L 169.0 173.5 L 169.0 177.0 L 169.0 178.5 L 169.0 179.5 L 169.5 180.5 " stroke="black" fill="none" stroke-width="6.0" stroke-linecap="round" stroke-linejoin="round" />
</svg>