<svg xmlns="http://www.w3.org/2000/svg" width="300" height="300" viewBox="0 0 300 300">
<path d="M 141.5 122.0 L 141.0 121.5 L 140.0 120.5 L 139.0 120.0 L 139.0 119.5 L 139.0 119.5 L 141.0 121.0 L 144.0 122.5 L 146.5 124.0 L 149.0 125.0 L 150.5 125.5 L 151.0 126.0 " stroke="black" fill="none" stroke-width="6.0" stroke-linecap="round" stroke-linejoin="round" />
<path d="M 124.0 136.0 L 124.0 136.0 L 123.5 136.5 L 123.0 136.5 L 123.0 137.0 L 123.0 137.0 L 123.5 137.5 L 125.5 137.5 L 129.0 138.0 L 133.5 138.0 L 139.5 138.0 L 146.0 138.0 L 152.0 137.5 L 157.5 137.0 L 163.0 136.0 L 167.0 135.5 L 170.0 135.5 L 171.5 135.5 L 172.5 135.5 L 172.5 135.5 L 172.5 135.5 L 172.5 135.5 L 172.5 135.5 L 172.5 135.5 L 172.5 135.5 L 172.5 135.5 L 172.5 135.5 L 172.5 135.5 L 172.5 135.5 L 172.5 135.5 L 172.0 135.5 L 171.5 135.5 L 171.5 135.5 " stroke="black" fill="none" stroke-width="6.0" stroke-linecap="round" stroke-linejoin="round" />
<path d="M 170.5 136.0 L 170.5 136.0 L 170.5 136.5 L 170.5 137.0 L 170.0 137.0 L 170.0 137.0 L 170.0 137.5 L 169.0 138.5 L 168.0 140.5 L 165.0 144.0 L 161.0 148.5 L 156.0 154.0 L 152.0 159.5 L 148.5 164.0 L 145.5 168.5 L 141.5 172.5 L 138.0 176.0 L 134.0 179.5 L 130.5 182.0 L 127.5 183.5 L 124.5 184.0 L 123.0 184.5 L 122.5 184.5 L 122.0 184.5 L 121.5 184.0 L 121.5 183.5 L 121.0 182.5 L 121.0 182.0 L 121.0 182.0 L 121.0 181.5 L 121.0 181.5 L 122.0 181.0 L 122.5 180.5 L 124.0 180.5 L 125.5 180.5 L 127.5 180.5 L 130.0 180.5 L 134.0 181.0 L 138.5 181.5 L 143.0 182.5 L 147.5 183.5 L 151.5 185.0 L 154.5 186.0 L 158.0 187.0 L 161.5 188.0 L 165.0 188.5 L 167.5 188.5 L 170.0 189.0 L 171.5 189.0 L 172.5 189.0 L 173.0 189.0 L 173.0 188.5 L 173.0 188.5 L 173.0 188.5 L 173.0 188.5 " stroke="black" fill="none" stroke-width="6.0" stroke-linecap="round" stroke-linejoin="round" />
</svg>