<svg xmlns="http://www.w3.org/2000/svg" width="300" height="300" viewBox="0 0 300 300">
<path d="M 149.5 117.0 L 149.5 117.0 L 149.5 117.0 L 149.5 117.0 L 149.5 117.5 L 149.0 117.5 L 149.0 117.5 L 149.0 117.5 L 148.5 117.0 L 148.5 116.5 L 148.5 116.0 L 148.5 115.5 L 148.5 115.5 L 148.5 115.5 L 148.5 115.5 L 149.5 117.0 L 150.5 118.0 L 151.5 119.5 L 152.0 120.0 " stroke="black" fill="none" stroke-width="6.0" stroke-linecap="round" stroke-linejoin="round" />
<path d="M 125.0 132.5 L 124.5 132.5 L 124.5 132.5 L 124.0 132.0 L 124.0 132.0 L 124.5 132.0 L 126.0 132.0 L 128.0 131.5 L 130.5 131.5 L 135.0 131.0 L 142.0 130.5 L 147.0 130.0 L 151.5 130.0 L 154.5 129.5 L 156.5 129.5 L 158.0 129.5 L 160.0 129.5 L 162.5 129.5 L 164.0 129.5 L 166.0 129.0 L 167.0 128.5 L 168.0 128.0 L 169.0 128.0 L 169.5 128.0 L 170.0 128.0 L 171.0 128.0 L 171.5 128.0 L 172.5 128.0 L 173.0 128.0 L 174.0 128.0 L 174.5 128.5 L 175.0 128.5 L 175.5 128.5 L 175.5 128.5 L 176.0 128.5 L 176.5 128.5 L 176.5 128.5 L 176.5 128.5 L 176.5 128.5 L 176.5 128.5 L 176.0 128.5 L 175.5 129.0 " stroke="black" fill="none" stroke-width="6.0" stroke-linecap="round" stroke-linejoin="round" />
<path d="M 173.0 131.5 L 173.0 131.5 L 173.0 131.0 L 173.0 130.5 L 173.0 130.5 L 173.0 130.5 L 172.5 130.5 L 172.5 130.5 L 172.0 130.5 L 171.5 131.5 L 170.0 133.5 L 168.0 136.0 L 165.5 139.0 L 163.5 141.5 L 161.0 145.0 L 157.5 149.5 L 155.0 153.0 L 152.5 156.0 L 150.5 158.5 L 148.0 160.5 L 145.5 162.5 L 142.0 165.0 L 139.0 167.0 L 136.5 168.5 L 134.5 169.5 L 132.5 170.5 L 130.0 171.5 L 127.0 172.5 L 125.5 173.0 L 123.5 173.5 L 122.5 173.5 L 121.5 173.5 L 121.0 173.5 L 120.5 173.5 L 120.5 173.0 L 120.5 173.0 L 120.5 173.0 L 120.5 172.5 L 121.0 172.0 L 121.5 172.0 L 122.5 171.5 L 123.5 171.5 L 124.5 171.0 L 125.5 171.0 L 127.0 171.0 L 128.5 170.5 L 130.0 170.5 L 132.0 170.5 L 133.0 170.5 L 134.5 170.5 L 135.5 170.5 L 137.0 170.5 L 138.5 170.5 L 140.0 170.5 L 141.5 171.5 L 143.5 171.5 L 145.0 172.5 L 147.0 172.5 L 148.5 173.0 L 151.0 173.5 L 153.0 174.0 L 155.5 174.5 L 157.5 174.5 L 159.5 174.5 L 161.0 174.5 L 162.5 174.5 L 164.5 174.5 L 165.5 174.5 L 166.5 174.5 L 167.5 174.5 L 168.5 174.5 L 169.0 174.5 L 170.0 174.5 L 171.0 174.5 L 171.5 174.5 L 172.5 174.5 L 173.5 174.5 L 174.5 174.5 L 176.0 174.5 L 177.0 174.5 L 177.5 174.0 L 178.5 174.0 L 179.5 174.0 L 180.0 173.5 L 181.0 173.5 L 181.5 173.5 L 181.5 173.0 L 182.0 173.0 L 182.0 173.0 L 182.5 173.0 L 182.5 173.0 L 182.5 173.0 L 182.5 173.0 L 182.5 173.0 L 182.5 173.0 " stroke="black" fill="none" stroke-width="6.0" stroke-linecap="round" stroke-linejoin="round" />
</svg>