<svg xmlns="http://www.w3.org/2000/svg" width="300" height="300" viewBox="0 0 300 300">
<path d="M 139.0 108.0 L 139.0 108.0 L 138.0 108.0 L 138.0 108.0 L 139.5 110.0 L 143.0 114.5 L 146.5 118.5 L 149.0 120.5 L 150.0 121.0 L 150.0 121.0 " stroke="black" fill="none" stroke-width="6.0" stroke-linecap="round" stroke-linejoin="round" />
<path d="M 129.5 129.0 L 129.5 129.0 L 129.5 129.0 L 129.0 129.0 L 129.0 129.0 L 128.5 129.0 L 128.5 129.0 L 130.0 129.5 L 134.5 130.0 L 143.5 130.0 L 153.0 130.0 L 160.5 129.0 L 164.5 128.5 L 165.5 129.0 L 166.0 129.5 L 165.5 129.5 L 165.0 129.5 L 165.0 129.5 L 165.0 129.5 L 165.0 129.5 L 165.0 129.5 L 165.0 129.5 L 164.5 129.5 L 164.0 130.0 L 163.5 131.0 L 163.0 132.0 L 162.0 133.5 L 160.5 135.0 L 159.0 137.0 L 157.5 140.0 L 155.5 143.5 L 153.5 148.0 L 150.5 152.5 L 147.5 157.0 L 144.0 160.5 L 140.0 164.0 L 137.0 166.0 L 134.0 167.0 L 131.5 167.5 L 129.5 168.0 L 127.5 169.0 L 125.5 170.0 L 124.0 170.5 L 124.0 170.5 L 124.0 170.5 L 124.0 170.5 L 124.0 170.5 L 124.0 170.5 L 124.5 170.5 L 124.5 170.5 L 125.0 170.0 L 125.0 170.0 L 125.5 169.5 L 126.0 169.5 L 126.5 169.0 L 127.5 169.0 L 128.0 168.5 L 129.0 168.5 L 130.5 168.0 L 132.5 168.0 L 135.0 168.0 L 137.5 168.5 L 140.0 169.0 L 143.0 169.5 L 146.0 170.5 L 149.0 171.0 L 152.0 172.0 L 154.5 172.5 L 157.5 173.5 L 160.5 173.5 L 163.0 173.5 L 166.0 173.5 L 168.5 173.0 L 170.5 172.5 L 173.0 172.0 L 174.0 171.5 L 174.0 171.0 L 174.0 171.0 L 174.0 171.0 L 173.5 171.0 " stroke="black" fill="none" stroke-width="6.0" stroke-linecap="round" stroke-linejoin="round" />
</svg>