<svg xmlns="http://www.w3.org/2000/svg" width="300" height="300" viewBox="0 0 300 300">
<path d="M 144.5 119.0 L 144.0 118.5 L 142.0 118.0 L 142.0 117.5 L 143.0 118.0 L 146.5 119.5 L 150.0 122.0 L 153.5 124.0 L 155.5 125.5 " stroke="black" fill="none" stroke-width="6.0" stroke-linecap="round" stroke-linejoin="round" />
<path d="M 127.0 139.0 L 126.0 139.0 L 125.0 139.0 L 124.5 139.0 L 125.5 139.0 L 129.5 138.5 L 135.5 137.0 L 144.0 136.0 L 152.5 135.5 L 159.5 135.5 L 163.5 136.5 L 165.0 137.5 L 165.0 138.5 L 165.5 139.0 L 165.5 140.5 L 165.0 142.5 L 163.5 144.5 L 162.0 147.0 L 159.0 149.5 L 155.0 153.0 L 150.0 157.5 L 143.5 162.0 L 136.5 166.5 L 131.0 170.5 L 125.5 173.0 L 121.0 175.0 L 118.0 176.5 L 117.0 176.5 L 116.5 176.5 L 116.5 176.5 L 117.0 176.0 L 117.5 175.5 L 118.0 175.0 L 119.0 174.5 L 120.0 174.0 L 122.0 173.5 L 123.5 173.5 L 126.0 173.5 L 128.5 173.5 L 132.0 175.0 L 137.0 176.5 L 143.0 177.5 L 150.5 178.0 L 158.0 178.0 L 166.0 178.0 L 173.0 178.0 L 179.5 177.5 L 184.5 177.0 " stroke="black" fill="none" stroke-width="6.0" stroke-linecap="round" stroke-linejoin="round" />
</svg>