<svg xmlns="http://www.w3.org/2000/svg" width="300" height="300" viewBox="0 0 300 300">
<path d="M 139.5 109.5 L 139.5 109.5 L 139.0 109.5 L 138.5 109.5 L 138.5 109.5 L 140.5 110.0 L 143.5 112.0 L 146.5 114.0 L 149.0 116.0 L 151.0 118.0 " stroke="black" fill="none" stroke-width="6.0" stroke-linecap="round" stroke-linejoin="round" />
<path d="M 126.5 127.0 L 126.5 127.0 L 126.0 127.0 L 126.0 127.0 L 126.0 127.0 L 126.0 127.0 L 126.5 127.5 L 128.5 127.5 L 131.0 128.0 L 135.5 128.5 L 142.0 128.5 L 149.0 128.5 L 155.5 128.0 L 160.0 128.0 L 164.0 127.5 L 167.0 127.5 L 169.0 127.5 L 170.5 127.0 L 172.0 127.0 L 173.0 127.0 L 174.0 127.0 L 175.0 127.0 L 175.5 127.0 L 176.0 127.0 L 176.0 127.0 L 176.0 127.0 L 176.0 127.0 L 176.0 127.0 L 176.0 127.0 L 176.0 127.0 L 175.5 127.0 L 175.5 127.0 L 175.5 127.0 L 175.5 127.0 L 175.5 127.0 L 175.5 127.0 L 175.5 127.0 L 175.5 127.0 L 175.5 127.0 L 175.5 127.0 L 175.0 127.0 L 175.0 127.0 " stroke="black" fill="none" stroke-width="6.0" stroke-linecap="round" stroke-linejoin="round" />
<path d="M 168.5 128.5 L 168.0 128.5 L 167.0 128.5 L 166.5 128.5 L 166.5 128.5 L 166.5 129.0 L 166.0 130.0 L 165.0 131.5 L 164.0 134.0 L 161.5 137.0 L 158.5 141.0 L 154.5 145.5 L 150.5 150.0 L 147.0 154.0 L 143.5 157.0 L 140.5 159.5 L 138.0 161.5 L 135.0 164.0 L 131.5 166.5 L 128.5 168.5 L 126.0 170.5 L 123.5 172.0 L 121.5 173.0 L 120.5 173.5 L 120.5 173.5 L 120.0 173.5 L 120.0 173.5 L 120.0 173.0 L 120.0 173.0 L 120.0 172.5 L 120.0 172.5 L 120.5 172.0 L 121.0 172.0 L 122.0 171.5 L 123.0 171.5 L 124.0 171.0 L 125.0 170.5 L 126.0 170.5 L 127.5 170.5 L 129.0 171.5 L 131.5 172.5 L 134.5 173.5 L 138.0 174.5 L 142.5 175.5 L 146.0 176.5 L 150.0 177.0 L 154.0 177.5 L 157.5 177.5 L 161.0 178.0 L 164.0 178.5 L 167.0 179.0 L 170.0 179.0 L 171.5 179.0 L 172.5 179.0 L 173.0 179.0 L 173.5 178.5 L 173.5 178.0 L 173.5 178.0 L 174.0 177.5 L 174.0 177.5 L 174.0 177.5 L 174.0 177.5 " stroke="black" fill="none" stroke-width="6.0" stroke-linecap="round" stroke-linejoin="round" />
</svg>