<svg xmlns="http://www.w3.org/2000/svg" width="300" height="300" viewBox="0 0 300 300">
<path d="M 152.0 113.5 L 152.0 113.5 L 152.0 113.0 L 151.5 112.5 L 151.5 112.0 L 151.5 111.0 L 151.5 110.5 L 151.5 110.0 L 151.5 110.0 L 152.0 112.0 L 152.0 117.0 L 152.0 123.5 L 152.0 131.0 L 152.5 138.0 L 152.5 145.5 L 152.5 152.0 L 152.5 157.0 L 152.5 162.5 L 152.5 168.0 L 152.5 172.0 L 153.0 175.0 L 153.0 176.5 L 153.0 178.0 L 153.0 179.0 L 153.0 180.0 L 153.0 180.5 L 153.0 180.5 L 152.5 181.0 L 151.5 181.0 L 150.5 181.5 L 149.5 182.0 L 148.0 182.0 L 145.5 181.0 L 143.0 179.5 L 141.5 178.0 L 141.0 177.5 " stroke="black" fill="none" stroke-width="6.0" stroke-linecap="round" stroke-linejoin="round" />
<path d="M 133.0 140.0 L 132.0 140.5 L 131.0 140.5 L 131.0 140.5 L 131.0 140.5 L 133.5 140.0 L 136.0 140.0 L 137.5 140.0 L 142.0 140.0 L 144.0 140.5 L 144.5 141.0 L 145.0 141.5 L 143.5 143.0 L 140.5 146.0 L 137.0 150.5 L 133.5 155.0 L 131.0 158.5 L 130.5 160.5 L 130.5 161.5 L 130.5 161.5 " stroke="black" fill="none" stroke-width="6.0" stroke-linecap="round" stroke-linejoin="round" />
<path d="M 177.0 127.5 L 177.0 127.5 L 177.5 127.5 L 178.0 127.5 L 178.0 127.5 L 178.0 127.5 L 177.5 128.5 L 175.0 131.5 L 170.5 136.5 L 166.0 141.0 L 164.5 143.5 L 164.5 144.0 " stroke="black" fill="none" stroke-width="6.0" stroke-linecap="round" stroke-linejoin="round" />
<path d="M 159.5 147.0 L 159.5 146.0 L 159.5 145.5 L 160.0 145.5 L 161.5 149.5 L 166.0 157.5 L 172.5 167.5 L 179.0 172.5 L 184.5 173.5 L 188.5 172.0 " stroke="black" fill="none" stroke-width="6.0" stroke-linecap="round" stroke-linejoin="round" />
</svg>