<svg xmlns="http://www.w3.org/2000/svg" width="300" height="300" viewBox="0 0 300 300">
<path d="M 132.5 130.0 L 132.5 130.0 L 132.5 130.5 L 132.5 130.5 L 132.5 130.5 L 132.5 130.5 L 135.5 130.5 L 143.0 128.5 L 152.5 127.0 L 159.5 125.5 L 162.5 125.0 L 162.5 125.0 L 161.5 125.0 L 160.0 125.0 L 159.5 124.5 " stroke="black" fill="none" stroke-width="6.0" stroke-linecap="round" stroke-linejoin="round" />
<path d="M 146.5 110.0 L 146.5 109.5 L 145.5 109.5 L 145.0 109.0 L 145.0 110.0 L 145.5 114.5 L 146.0 122.5 L 146.5 132.5 L 147.0 139.5 L 147.0 143.0 L 147.0 144.0 L 147.0 144.0 " stroke="black" fill="none" stroke-width="6.0" stroke-linecap="round" stroke-linejoin="round" />
<path d="M 129.5 147.0 L 129.5 147.0 L 129.0 147.0 L 129.0 147.0 L 129.0 147.0 L 132.5 146.5 L 141.5 145.0 L 154.0 143.0 L 164.0 141.5 L 169.5 141.0 L 170.5 141.0 L 170.0 141.0 " stroke="black" fill="none" stroke-width="6.0" stroke-linecap="round" stroke-linejoin="round" />
<path d="M 143.5 149.0 L 144.0 149.0 L 145.0 148.0 L 145.0 148.0 L 145.5 147.5 L 146.0 149.0 L 145.5 152.0 L 143.5 158.0 L 140.0 165.5 L 135.5 173.0 L 131.5 178.5 L 129.5 180.0 L 129.5 180.0 L 129.5 179.0 L 130.5 178.0 L 132.5 176.5 L 136.5 175.0 L 143.0 173.5 L 150.5 172.5 L 157.5 172.0 L 161.5 171.5 L 163.0 171.5 L 163.5 171.5 " stroke="black" fill="none" stroke-width="6.0" stroke-linecap="round" stroke-linejoin="round" />
<path d="M 163.0 159.0 L 163.0 159.0 L 162.5 159.5 L 163.0 162.0 L 166.5 168.0 L 172.0 174.5 L 176.0 179.0 L 178.0 181.0 L 178.0 180.5 " stroke="black" fill="none" stroke-width="6.0" stroke-linecap="round" stroke-linejoin="round" />
</svg>