<svg xmlns="http://www.w3.org/2000/svg" width="300" height="300" viewBox="0 0 300 300">
<path d="M 142.0 108.0 L 141.5 107.0 L 141.0 106.5 L 141.0 106.0 L 143.0 106.5 L 145.5 108.5 L 148.5 110.5 L 151.0 112.5 L 152.0 113.0 " stroke="black" fill="none" stroke-width="6.0" stroke-linecap="round" stroke-linejoin="round" />
<path d="M 129.0 123.0 L 128.5 123.0 L 127.0 123.0 L 126.0 123.5 L 126.5 123.5 L 132.0 123.5 L 141.5 123.5 L 153.5 123.5 L 164.5 124.0 L 171.0 124.0 L 174.0 124.0 L 174.0 124.0 L 173.5 124.0 L 173.0 124.0 L 173.0 124.0 L 173.0 124.0 L 173.0 124.0 L 173.0 124.5 " stroke="black" fill="none" stroke-width="6.0" stroke-linecap="round" stroke-linejoin="round" />
<path d="M 151.0 125.0 L 151.5 124.5 L 151.5 124.5 L 152.0 124.0 L 152.0 124.0 L 152.0 124.0 L 151.5 126.0 L 149.5 129.5 L 145.0 135.0 L 137.5 142.5 L 130.5 149.0 L 127.5 151.0 L 127.5 151.0 L 128.0 149.5 L 128.5 149.0 " stroke="black" fill="none" stroke-width="6.0" stroke-linecap="round" stroke-linejoin="round" />
<path d="M 150.5 129.5 L 150.5 129.5 L 150.5 129.5 L 150.5 129.5 L 151.0 131.0 L 154.5 135.5 L 162.0 144.0 L 171.5 152.0 L 179.0 154.5 L 184.0 154.5 L 187.0 155.0 L 187.5 155.5 L 187.5 155.5 " stroke="black" fill="none" stroke-width="6.0" stroke-linecap="round" stroke-linejoin="round" />
<path d="M 174.5 136.0 L 174.5 136.5 L 174.5 136.5 L 174.0 137.0 L 172.5 138.0 L 170.5 139.0 L 169.0 140.0 L 168.5 141.0 " stroke="black" fill="none" stroke-width="6.0" stroke-linecap="round" stroke-linejoin="round" />
<path d="M 143.0 141.0 L 143.0 140.0 L 143.0 139.5 L 143.0 139.5 L 143.5 141.0 L 144.5 145.5 L 146.0 152.0 L 146.5 161.5 L 146.5 174.5 L 147.5 175.0 L 149.5 173.5 L 152.0 170.5 L 155.0 167.0 L 157.0 164.0 L 158.5 162.0 L 159.0 162.0 " stroke="black" fill="none" stroke-width="6.0" stroke-linecap="round" stroke-linejoin="round" />
</svg>