<svg xmlns="http://www.w3.org/2000/svg" width="300" height="300" viewBox="0 0 300 300">
<path d="M 142.5 112.0 L 143.0 112.0 L 143.0 112.0 L 143.5 112.0 L 143.5 113.0 L 141.0 117.0 L 132.5 128.5 L 125.0 139.0 L 123.0 142.0 L 123.0 142.5 " stroke="black" fill="none" stroke-width="6.0" stroke-linecap="round" stroke-linejoin="round" />
<path d="M 162.5 111.0 L 162.0 111.0 L 161.0 111.0 L 160.5 111.0 L 160.5 111.0 L 162.5 114.5 L 166.5 120.5 L 172.0 127.0 L 177.5 131.5 L 181.0 133.5 L 181.5 134.0 " stroke="black" fill="none" stroke-width="6.0" stroke-linecap="round" stroke-linejoin="round" />
<path d="M 138.0 140.0 L 139.5 140.0 L 140.5 140.0 L 145.0 139.5 L 152.5 138.5 L 160.0 137.0 L 164.5 136.0 L 165.5 135.5 " stroke="black" fill="none" stroke-width="6.0" stroke-linecap="round" stroke-linejoin="round" />
<path d="M 149.0 141.0 L 149.0 140.5 L 149.0 140.0 L 149.0 140.0 L 148.5 141.0 L 147.0 145.5 L 144.0 151.0 L 139.5 157.0 L 137.0 161.0 L 137.0 162.0 L 137.5 162.0 L 140.5 161.0 L 144.0 159.5 L 148.0 158.0 L 152.0 156.5 L 156.0 155.5 L 160.0 154.0 L 163.0 153.0 L 164.0 152.5 L 164.5 152.5 L 164.5 153.5 L 164.5 154.5 L 164.5 155.5 L 165.0 156.5 L 165.0 157.5 L 165.5 159.5 L 165.5 162.0 L 165.5 166.0 L 165.5 171.5 L 165.5 177.0 L 166.0 181.0 L 166.0 184.5 L 161.0 187.0 L 157.5 186.5 L 154.5 184.0 L 153.0 182.5 " stroke="black" fill="none" stroke-width="6.0" stroke-linecap="round" stroke-linejoin="round" />
</svg>