<svg xmlns="http://www.w3.org/2000/svg" width="300" height="300" viewBox="0 0 300 300">
<path d="M 142.5 110.0 L 142.5 110.0 L 142.5 109.5 L 142.5 109.0 L 142.5 109.0 L 142.0 109.0 L 141.0 112.5 L 138.0 120.5 L 131.5 133.5 L 126.5 142.0 L 125.5 143.5 L 125.5 142.0 " stroke="black" fill="none" stroke-width="6.0" stroke-linecap="round" stroke-linejoin="round" />
<path d="M 160.0 111.0 L 159.5 111.0 L 158.5 110.5 L 158.5 110.5 L 158.5 110.5 L 159.5 111.5 L 162.5 115.5 L 167.5 122.5 L 172.5 129.0 L 176.0 133.0 L 177.5 133.5 L 178.0 133.5 L 178.0 133.5 " stroke="black" fill="none" stroke-width="6.0" stroke-linecap="round" stroke-linejoin="round" />
<path d="M 142.0 131.0 L 142.0 131.0 L 141.5 132.0 L 141.0 132.0 L 142.5 132.0 L 147.0 131.0 L 153.5 130.0 L 159.0 129.0 L 162.5 128.0 L 163.5 128.0 L 163.5 127.5 " stroke="black" fill="none" stroke-width="6.0" stroke-linecap="round" stroke-linejoin="round" />
<path d="M 149.0 133.0 L 149.0 133.0 L 150.0 133.0 L 150.0 133.0 L 150.5 133.0 L 149.5 136.0 L 147.5 140.5 L 145.5 145.5 L 144.0 149.5 L 143.5 151.0 L 143.5 151.5 L 144.0 151.5 L 145.5 150.5 L 148.0 149.5 L 152.0 148.0 L 156.0 147.0 L 160.0 146.0 L 163.5 145.5 L 165.5 145.5 L 165.5 145.5 L 166.0 146.0 L 166.0 147.0 L 165.5 148.0 L 165.5 149.5 L 165.5 153.0 L 165.5 157.5 L 165.5 163.5 L 165.5 169.5 L 166.0 173.5 L 166.0 176.5 L 165.0 178.5 L 163.0 179.0 L 160.0 179.5 L 156.5 178.0 L 154.0 176.0 L 152.0 174.5 " stroke="black" fill="none" stroke-width="6.0" stroke-linecap="round" stroke-linejoin="round" />
</svg>