<svg xmlns="http://www.w3.org/2000/svg" width="300" height="300" viewBox="0 0 300 300">
<path d="M 134.0 124.0 L 134.0 124.0 L 132.5 123.5 L 132.0 123.5 L 133.0 123.5 L 138.5 124.5 L 147.5 125.0 L 158.0 124.0 L 167.0 122.0 L 170.0 121.5 L 170.5 122.5 L 170.5 123.5 " stroke="black" fill="none" stroke-width="6.0" stroke-linecap="round" stroke-linejoin="round" />
<path d="M 154.0 103.5 L 154.5 103.0 L 154.5 102.5 L 154.5 102.5 L 155.0 107.5 L 155.0 121.0 L 154.0 144.0 L 153.5 162.5 L 154.0 172.0 L 155.5 176.5 L 156.0 177.0 L 155.5 174.0 " stroke="black" fill="none" stroke-width="6.0" stroke-linecap="round" stroke-linejoin="round" />
<path d="M 141.0 133.5 L 142.5 133.0 L 143.0 133.0 L 143.5 133.0 L 143.5 133.5 L 142.5 136.0 L 139.5 141.5 L 136.5 148.0 L 134.0 152.0 L 132.0 154.0 L 131.5 154.0 L 131.5 153.5 L 132.0 153.0 L 133.0 152.0 L 135.0 150.5 L 137.5 149.0 L 140.5 148.5 L 143.5 148.0 L 146.0 148.5 L 148.5 149.0 L 149.5 149.5 L 150.0 149.5 L 150.0 149.5 " stroke="black" fill="none" stroke-width="6.0" stroke-linecap="round" stroke-linejoin="round" />
<path d="M 167.5 132.0 L 167.5 132.0 L 167.0 132.0 L 167.0 132.0 L 166.5 132.5 L 166.0 133.5 L 165.0 138.0 L 162.0 145.0 L 160.0 150.0 L 159.0 151.0 L 159.0 150.0 L 159.0 148.0 L 160.5 146.5 L 162.5 146.0 L 165.0 145.5 L 168.5 146.0 L 172.0 148.0 L 174.5 150.0 L 176.0 151.0 L 176.0 151.0 " stroke="black" fill="none" stroke-width="6.0" stroke-linecap="round" stroke-linejoin="round" />
<path d="M 149.5 159.5 L 150.5 158.5 L 151.5 158.0 L 152.0 158.0 L 152.0 158.5 L 150.0 162.0 L 145.0 167.5 L 138.5 173.5 L 132.5 176.0 L 131.0 175.0 L 131.0 173.0 " stroke="black" fill="none" stroke-width="6.0" stroke-linecap="round" stroke-linejoin="round" />
<path d="M 154.5 161.5 L 154.5 161.5 L 155.5 161.5 L 157.0 161.5 L 160.5 162.0 L 168.0 163.0 L 177.5 166.5 L 186.0 171.0 L 192.0 173.0 " stroke="black" fill="none" stroke-width="6.0" stroke-linecap="round" stroke-linejoin="round" />
</svg>