<svg xmlns="http://www.w3.org/2000/svg" width="300" height="300" viewBox="0 0 300 300">
<path d="M 132.0 110.0 L 132.5 110.0 L 133.0 110.0 L 135.0 110.0 L 141.0 110.0 L 149.0 109.5 L 157.0 109.0 L 161.0 108.5 L 161.5 108.5 " stroke="black" fill="none" stroke-width="6.0" stroke-linecap="round" stroke-linejoin="round" />
<path d="M 129.0 113.5 L 129.5 113.5 L 130.0 113.5 L 130.5 113.5 L 130.5 114.0 L 130.5 117.0 L 130.5 123.0 L 130.5 133.0 L 130.0 143.0 L 129.5 151.0 L 130.0 155.5 L 130.5 156.0 L 131.0 156.0 L 131.5 156.0 L 131.5 156.0 L 132.0 156.0 L 132.0 156.0 L 133.0 156.0 L 134.5 156.0 L 137.5 156.0 L 141.0 155.5 L 146.0 155.5 L 152.5 155.5 L 158.0 155.5 L 163.5 155.0 L 167.5 154.5 L 169.5 154.5 L 170.0 154.5 L 170.5 155.0 L 170.5 155.5 L 171.0 156.0 L 171.0 157.5 L 171.5 159.5 L 172.0 162.5 L 172.0 167.0 L 172.5 172.5 L 172.5 179.0 L 172.5 185.0 L 172.5 191.0 L 172.5 194.0 L 171.5 201.0 L 170.0 203.0 L 168.0 203.5 L 164.0 202.5 L 159.5 198.0 L 154.5 193.0 " stroke="black" fill="none" stroke-width="6.0" stroke-linecap="round" stroke-linejoin="round" />
<path d="M 141.0 128.0 L 140.5 128.0 L 139.5 127.5 L 139.0 127.0 L 140.5 126.5 L 144.5 126.0 L 148.5 126.0 L 152.5 125.5 L 156.0 125.5 L 157.5 126.0 " stroke="black" fill="none" stroke-width="6.0" stroke-linecap="round" stroke-linejoin="round" />
<path d="M 137.5 139.0 L 136.5 140.5 L 136.0 141.0 L 138.0 141.0 L 144.0 141.0 L 150.0 139.5 L 155.5 137.5 L 156.5 136.5 " stroke="black" fill="none" stroke-width="6.0" stroke-linecap="round" stroke-linejoin="round" />
<path d="M 148.5 112.5 L 148.0 114.0 L 147.5 116.0 L 147.5 119.5 L 147.5 128.0 L 146.5 139.0 L 146.5 146.5 L 146.5 148.5 " stroke="black" fill="none" stroke-width="6.0" stroke-linecap="round" stroke-linejoin="round" />
<path d="M 128.5 175.0 L 128.5 174.5 L 128.5 174.0 L 128.5 174.5 L 127.5 176.5 L 126.5 179.5 L 126.0 181.5 L 126.0 182.5 " stroke="black" fill="none" stroke-width="6.0" stroke-linecap="round" stroke-linejoin="round" />
<path d="M 139.5 171.5 L 139.5 171.0 L 139.5 171.0 L 139.5 171.0 L 140.0 171.0 L 140.5 173.0 L 141.5 176.0 L 142.5 179.0 L 143.0 179.0 " stroke="black" fill="none" stroke-width="6.0" stroke-linecap="round" stroke-linejoin="round" />
<path d="M 150.0 172.0 L 149.5 172.0 L 149.5 172.0 L 149.0 172.0 L 149.5 172.5 L 151.0 174.5 L 152.5 176.0 L 154.0 177.5 L 154.0 178.0 " stroke="black" fill="none" stroke-width="6.0" stroke-linecap="round" stroke-linejoin="round" />
<path d="M 161.0 172.0 L 161.0 173.0 L 161.0 174.0 L 162.5 175.5 L 164.5 177.0 L 167.0 178.5 L 168.0 179.0 " stroke="black" fill="none" stroke-width="6.0" stroke-linecap="round" stroke-linejoin="round" />
</svg>