<svg xmlns="http://www.w3.org/2000/svg" width="300" height="300" viewBox="0 0 300 300">
<path d="M 124.0 104.0 L 123.5 103.5 L 123.0 103.5 L 124.0 103.5 L 127.5 103.5 L 134.0 104.0 L 144.0 104.0 L 152.5 104.0 L 158.5 104.0 L 161.0 105.0 L 161.5 105.5 L 161.5 105.5 L 162.0 105.0 L 163.0 104.5 L 164.0 104.5 L 165.0 104.5 L 165.5 104.5 L 166.0 104.5 L 166.5 104.5 L 167.0 104.5 L 167.0 104.5 L 167.0 104.5 L 167.0 104.5 L 167.0 104.5 L 167.0 105.0 L 167.0 105.0 L 167.0 105.5 L 166.5 105.5 L 166.5 106.0 L 166.5 107.0 L 166.5 108.5 L 166.0 111.0 L 166.0 114.5 L 166.0 119.0 L 167.0 124.5 L 168.5 129.5 L 171.0 133.0 L 174.0 136.0 L 177.5 138.0 L 180.5 139.5 L 184.0 141.0 L 187.0 141.0 L 188.5 141.0 " stroke="black" fill="none" stroke-width="6.0" stroke-linecap="round" stroke-linejoin="round" />
<path d="M 180.0 109.0 L 180.5 109.0 L 181.0 109.0 L 181.0 109.0 L 181.5 109.0 L 181.5 109.0 L 180.0 110.5 L 178.0 113.0 L 176.0 115.0 " stroke="black" fill="none" stroke-width="6.0" stroke-linecap="round" stroke-linejoin="round" />
<path d="M 175.0 123.5 L 175.0 124.0 L 175.0 124.5 L 176.0 125.5 L 179.0 126.0 L 183.0 127.0 L 187.0 127.5 " stroke="black" fill="none" stroke-width="6.0" stroke-linecap="round" stroke-linejoin="round" />
<path d="M 123.5 121.5 L 123.5 121.5 L 123.5 121.5 L 124.0 121.0 L 127.0 120.0 L 131.5 118.0 L 135.5 116.5 L 138.5 115.5 L 139.5 115.0 L 139.5 115.0 " stroke="black" fill="none" stroke-width="6.0" stroke-linecap="round" stroke-linejoin="round" />
<path d="M 125.0 134.5 L 125.0 135.0 L 124.5 135.5 L 124.0 136.0 L 124.0 136.0 L 124.5 136.0 L 126.0 136.0 L 128.5 135.5 L 132.5 135.0 L 137.5 134.5 L 142.0 134.0 L 145.0 133.5 L 148.5 133.5 L 150.5 133.5 L 152.0 133.5 L 153.0 133.5 L 153.5 133.5 L 154.0 133.5 L 154.5 133.5 L 155.0 133.5 L 155.5 133.5 L 155.5 133.5 L 155.5 133.5 L 155.5 133.5 L 156.0 133.5 L 156.0 133.5 L 156.0 133.5 L 156.0 133.5 L 156.0 133.5 L 156.0 133.5 L 156.0 133.5 L 156.0 134.0 L 156.0 134.0 L 156.0 135.0 L 156.0 136.5 L 156.0 138.5 L 156.0 142.0 L 156.0 146.0 L 156.0 150.0 L 156.5 154.0 L 157.5 158.5 L 159.0 162.5 L 160.5 166.5 L 163.0 170.0 L 165.5 173.0 L 168.5 175.5 L 172.0 178.0 L 175.0 179.0 L 178.0 179.5 L 181.0 179.5 L 182.5 179.5 L 184.0 178.5 L 184.5 177.5 L 185.0 176.0 " stroke="black" fill="none" stroke-width="6.0" stroke-linecap="round" stroke-linejoin="round" />
<path d="M 174.5 152.5 L 175.5 152.5 L 176.0 152.5 L 176.0 152.0 L 176.0 152.0 L 175.5 152.0 L 174.5 153.0 L 173.0 154.0 L 172.0 155.0 L 171.5 155.5 " stroke="black" fill="none" stroke-width="6.0" stroke-linecap="round" stroke-linejoin="round" />
<path d="M 172.0 162.0 L 172.0 162.0 L 172.0 163.0 L 173.0 164.0 L 174.0 164.5 L 176.5 165.0 L 179.0 166.0 L 180.5 166.0 L 180.5 166.0 " stroke="black" fill="none" stroke-width="6.0" stroke-linecap="round" stroke-linejoin="round" />
<path d="M 132.0 121.0 L 132.0 120.5 L 132.0 120.0 L 132.5 119.5 L 132.5 119.5 L 132.5 120.0 L 133.0 124.0 L 133.5 132.0 L 134.0 145.5 L 133.5 159.0 L 131.5 168.5 L 129.5 173.0 L 128.5 174.0 L 127.5 173.5 " stroke="black" fill="none" stroke-width="6.0" stroke-linecap="round" stroke-linejoin="round" />
<path d="M 149.5 115.0 L 149.5 115.0 L 149.5 115.0 L 149.5 115.5 L 149.5 115.5 L 149.0 117.0 L 149.0 121.5 L 148.5 134.0 L 149.0 150.5 L 150.0 161.0 L 150.0 167.0 L 150.0 170.5 L 149.5 171.0 " stroke="black" fill="none" stroke-width="6.0" stroke-linecap="round" stroke-linejoin="round" />
</svg>