<svg xmlns="http://www.w3.org/2000/svg" width="300" height="300" viewBox="0 0 300 300">
<path d="M 148.5 105.5 L 148.5 106.0 L 148.5 107.0 L 149.0 107.5 L 149.0 108.0 L 148.5 109.5 L 146.0 113.5 L 141.5 120.0 L 134.5 128.0 L 128.0 134.0 L 125.0 136.0 L 124.5 136.0 L 125.0 134.5 " stroke="black" fill="none" stroke-width="6.0" stroke-linecap="round" stroke-linejoin="round" />
<path d="M 144.0 118.5 L 144.0 118.0 L 144.0 117.5 L 144.5 117.5 L 147.0 117.5 L 151.0 117.5 L 156.0 118.5 L 160.0 119.5 L 163.0 121.0 L 163.5 122.5 L 163.5 124.0 L 163.5 127.0 L 162.0 130.0 L 160.5 134.5 L 157.0 140.0 L 152.0 145.5 L 145.5 151.0 L 139.0 154.5 L 134.5 156.5 L 131.0 157.0 L 130.0 157.5 L 130.0 157.0 L 131.0 155.5 " stroke="black" fill="none" stroke-width="6.0" stroke-linecap="round" stroke-linejoin="round" />
<path d="M 145.5 133.5 L 145.0 133.5 L 143.0 133.5 L 142.0 133.5 L 142.0 133.5 L 144.0 134.0 L 147.0 134.5 L 150.5 136.0 L 151.0 136.0 " stroke="black" fill="none" stroke-width="6.0" stroke-linecap="round" stroke-linejoin="round" />
<path d="M 167.5 139.5 L 167.5 139.0 L 167.5 139.0 L 167.5 139.0 L 167.5 139.0 L 166.5 141.5 L 163.0 147.5 L 154.5 157.0 L 146.0 165.0 L 141.0 167.5 L 140.0 167.5 L 140.0 167.0 L 141.0 166.0 L 142.0 165.5 " stroke="black" fill="none" stroke-width="6.0" stroke-linecap="round" stroke-linejoin="round" />
<path d="M 160.5 150.0 L 160.5 150.0 L 160.5 149.5 L 161.5 149.5 L 164.0 149.5 L 168.0 150.0 L 172.0 151.5 L 175.5 152.5 L 177.0 154.0 L 178.0 155.5 L 177.5 158.5 L 176.0 162.5 L 173.0 167.5 L 168.5 174.0 L 162.5 180.5 L 155.5 186.5 L 149.5 190.0 L 146.0 191.5 L 144.5 192.0 L 144.5 191.5 L 144.5 191.0 " stroke="black" fill="none" stroke-width="6.0" stroke-linecap="round" stroke-linejoin="round" />
<path d="M 159.5 166.0 L 159.0 166.0 L 158.5 165.5 L 158.0 165.5 L 160.5 166.0 L 163.0 167.5 L 166.0 169.5 L 167.0 170.0 " stroke="black" fill="none" stroke-width="6.0" stroke-linecap="round" stroke-linejoin="round" />
</svg>