<svg xmlns="http://www.w3.org/2000/svg" width="300" height="300" viewBox="0 0 300 300">
<path d="M 137.5 108.0 L 137.5 108.5 L 138.5 109.0 L 139.5 109.5 L 139.5 110.0 L 140.0 110.5 L 139.5 113.0 L 137.5 117.5 L 133.5 125.5 L 129.0 132.5 L 127.0 136.0 L 126.5 135.5 L 127.0 134.0 " stroke="black" fill="none" stroke-width="8.0" stroke-linecap="round" stroke-linejoin="round" />
<path d="M 139.5 116.0 L 139.5 116.0 L 138.5 116.0 L 138.0 116.5 L 138.0 116.5 L 140.0 117.0 L 143.5 117.5 L 148.0 117.5 L 153.0 117.5 L 158.0 117.5 L 161.0 118.5 L 161.5 119.0 L 161.5 120.0 L 161.5 120.5 L 161.5 120.5 L 161.5 120.5 L 161.0 121.5 L 160.5 122.5 L 159.5 124.0 L 158.0 127.0 L 155.5 131.0 L 152.0 137.0 L 147.5 145.0 L 143.5 151.5 L 140.0 156.0 L 137.5 159.0 L 135.5 160.5 L 135.0 160.5 L 134.0 159.5 L 133.5 158.5 " stroke="black" fill="none" stroke-width="8.0" stroke-linecap="round" stroke-linejoin="round" />
<path d="M 138.5 129.0 L 138.5 129.0 L 138.0 129.5 L 137.5 129.5 L 138.0 130.5 L 140.0 131.5 L 143.5 133.0 L 147.0 134.0 L 147.5 134.5 " stroke="black" fill="none" stroke-width="8.0" stroke-linecap="round" stroke-linejoin="round" />
<path d="M 163.0 139.0 L 163.5 138.0 L 164.0 137.0 L 164.5 137.0 L 164.5 136.5 L 164.5 137.5 L 163.0 140.0 L 160.0 145.5 L 154.5 153.5 L 146.5 164.5 L 141.5 170.0 L 140.5 171.0 L 140.5 169.0 L 141.0 168.5 " stroke="black" fill="none" stroke-width="8.0" stroke-linecap="round" stroke-linejoin="round" />
<path d="M 162.0 147.5 L 162.0 147.0 L 162.5 146.5 L 162.5 146.0 L 163.0 145.5 L 164.5 145.5 L 166.5 145.5 L 168.5 147.0 L 170.5 148.5 L 172.0 150.5 L 173.0 152.0 L 173.5 154.0 L 174.0 156.0 L 173.5 159.5 L 172.5 163.5 L 170.0 169.0 L 167.5 175.0 L 164.5 180.0 L 160.5 184.5 L 155.5 189.0 L 152.0 192.0 L 150.0 192.5 L 148.5 192.5 L 148.0 191.5 L 147.5 191.0 " stroke="black" fill="none" stroke-width="8.0" stroke-linecap="round" stroke-linejoin="round" />
<path d="M 154.0 165.5 L 154.0 165.5 L 154.5 165.0 L 155.0 165.0 L 157.0 165.5 L 159.5 167.5 L 162.0 169.0 L 163.0 169.5 " stroke="black" fill="none" stroke-width="8.0" stroke-linecap="round" stroke-linejoin="round" />
</svg>