<svg xmlns="http://www.w3.org/2000/svg" width="300" height="300" viewBox="0 0 300 300">
<path d="M 143.5 114.5 L 143.5 114.5 L 143.0 115.0 L 143.0 115.0 L 143.0 115.0 L 145.0 116.5 L 147.5 119.5 L 149.0 121.5 L 150.0 122.5 " stroke="black" fill="none" stroke-width="6.0" stroke-linecap="round" stroke-linejoin="round" />
<path d="M 127.5 128.5 L 126.5 129.5 L 125.5 131.0 L 124.5 134.0 L 124.0 138.0 L 124.5 140.5 L 125.5 141.0 " stroke="black" fill="none" stroke-width="6.0" stroke-linecap="round" stroke-linejoin="round" />
<path d="M 127.5 130.5 L 127.5 130.5 L 127.5 131.0 L 128.0 131.0 L 131.5 131.0 L 138.0 131.0 L 145.5 131.0 L 155.5 131.0 L 166.0 131.0 L 173.5 131.0 L 176.5 131.0 L 176.5 131.0 L 176.0 131.5 L 175.0 132.5 L 175.0 134.0 L 174.5 135.0 L 174.5 137.0 L 174.0 138.5 L 173.5 140.0 L 173.5 140.5 " stroke="black" fill="none" stroke-width="6.0" stroke-linecap="round" stroke-linejoin="round" />
<path d="M 147.0 141.0 L 147.0 141.0 L 147.0 141.0 L 146.5 140.5 L 146.5 141.0 L 145.5 143.0 L 143.5 149.0 L 139.5 163.5 L 140.5 169.0 L 144.5 174.0 L 150.0 179.0 L 155.0 183.0 L 158.0 186.0 L 160.0 188.0 L 161.0 188.5 L 161.0 186.5 " stroke="black" fill="none" stroke-width="6.0" stroke-linecap="round" stroke-linejoin="round" />
<path d="M 156.0 157.5 L 156.5 157.5 L 157.5 157.0 L 158.0 156.5 L 159.0 156.5 L 159.5 156.5 L 159.0 158.5 L 156.0 165.0 L 150.0 175.5 L 144.5 184.0 L 141.5 188.5 L 140.5 189.5 " stroke="black" fill="none" stroke-width="6.0" stroke-linecap="round" stroke-linejoin="round" />
<path d="M 134.0 160.5 L 134.5 161.5 L 135.5 161.5 L 139.5 161.5 L 147.0 160.5 L 155.5 160.0 L 162.0 160.5 L 167.0 161.0 L 170.5 162.0 L 171.0 162.0 " stroke="black" fill="none" stroke-width="6.0" stroke-linecap="round" stroke-linejoin="round" />
</svg>