<svg xmlns="http://www.w3.org/2000/svg" width="300" height="300" viewBox="0 0 300 300">
<path d="M 135.0 117.5 L 135.0 117.5 L 135.5 117.5 L 136.0 117.5 L 136.0 117.5 L 136.5 117.5 L 138.5 117.5 L 141.5 117.5 L 147.0 117.0 L 153.0 117.0 L 158.0 117.0 L 162.5 117.0 L 165.5 116.5 L 167.0 116.5 L 168.0 116.5 L 168.5 116.5 L 169.0 116.5 L 169.0 116.5 L 169.5 116.5 L 170.0 117.0 L 170.5 117.0 L 171.0 117.5 L 171.5 118.0 L 171.5 119.0 L 171.5 121.0 L 170.5 124.0 L 169.0 128.0 L 167.5 131.5 L 167.0 134.5 L 166.5 135.0 L 166.5 134.5 L 167.0 132.5 " stroke="black" fill="none" stroke-width="6.0" stroke-linecap="round" stroke-linejoin="round" />
<path d="M 149.0 121.5 L 149.0 121.5 L 148.0 121.0 L 147.5 121.0 L 147.0 121.0 L 147.0 121.0 L 148.0 123.0 L 148.0 126.5 L 148.0 131.0 L 147.0 136.0 L 147.0 138.5 L 147.0 138.5 " stroke="black" fill="none" stroke-width="6.0" stroke-linecap="round" stroke-linejoin="round" />
<path d="M 137.5 139.0 L 137.0 139.5 L 136.5 139.5 L 136.5 140.0 L 137.0 140.0 L 140.5 140.0 L 146.5 139.5 L 153.5 138.0 L 159.5 137.0 L 163.5 136.0 " stroke="black" fill="none" stroke-width="6.0" stroke-linecap="round" stroke-linejoin="round" />
<path d="M 132.0 121.5 L 132.5 120.5 L 133.5 119.0 L 133.5 119.0 L 133.5 119.5 L 134.0 123.0 L 134.0 129.5 L 133.5 140.5 L 130.5 154.5 L 126.0 168.0 L 121.5 178.5 L 117.5 187.0 L 116.0 191.0 L 115.0 192.5 L 115.0 192.5 L 115.0 191.5 L 115.0 190.0 " stroke="black" fill="none" stroke-width="6.0" stroke-linecap="round" stroke-linejoin="round" />
<path d="M 141.0 149.0 L 141.0 149.0 L 141.0 149.0 L 141.5 149.0 L 141.5 149.0 L 141.5 150.0 L 141.5 155.0 L 141.5 167.5 L 140.5 180.0 L 140.5 187.5 L 140.5 189.5 L 140.5 188.0 L 140.5 184.0 L 140.5 183.0 " stroke="black" fill="none" stroke-width="6.0" stroke-linecap="round" stroke-linejoin="round" />
<path d="M 142.0 152.0 L 141.5 152.0 L 140.5 152.0 L 140.0 152.0 L 140.0 152.0 L 140.5 151.5 L 143.0 151.0 L 146.5 150.5 L 150.5 150.0 L 154.5 149.5 L 158.0 149.0 L 161.0 149.0 L 162.5 149.0 L 163.5 149.0 L 164.0 149.0 L 164.5 149.5 L 165.0 151.0 L 165.0 153.0 L 165.5 156.5 L 165.5 162.5 L 165.0 169.5 L 164.5 176.5 L 164.5 183.5 L 164.5 189.0 L 164.5 192.0 L 165.0 193.0 L 165.0 193.0 L 165.0 192.0 L 165.0 190.5 " stroke="black" fill="none" stroke-width="6.0" stroke-linecap="round" stroke-linejoin="round" />
<path d="M 147.5 164.5 L 147.0 164.5 L 145.5 165.0 L 144.5 165.5 L 144.5 166.0 L 145.5 166.0 L 148.0 165.0 L 151.5 163.5 L 155.0 162.5 L 158.5 162.0 L 161.0 162.0 L 161.5 162.0 " stroke="black" fill="none" stroke-width="6.0" stroke-linecap="round" stroke-linejoin="round" />
<path d="M 150.5 173.0 L 150.0 174.0 L 149.0 175.0 L 148.0 176.0 L 147.5 176.5 L 148.0 176.5 L 149.5 176.5 L 152.5 176.0 L 155.0 175.0 L 157.0 174.5 L 158.5 174.0 " stroke="black" fill="none" stroke-width="6.0" stroke-linecap="round" stroke-linejoin="round" />
<path d="M 142.0 193.5 L 142.0 194.0 L 141.5 194.0 L 141.5 194.5 L 141.5 194.5 L 143.5 194.5 L 147.5 194.5 L 152.5 194.5 L 158.0 194.5 L 162.0 194.5 " stroke="black" fill="none" stroke-width="6.0" stroke-linecap="round" stroke-linejoin="round" />
</svg>