<svg xmlns="http://www.w3.org/2000/svg" width="300" height="300" viewBox="0 0 300 300">
<path d="M 125.5 146.0 L 125.5 145.5 L 125.5 145.0 L 125.5 145.0 L 126.0 145.0 L 129.5 145.0 L 134.5 144.5 L 138.5 143.5 L 141.0 142.5 L 141.5 141.5 L 141.5 141.0 " stroke="black" fill="none" stroke-width="6.0" stroke-linecap="round" stroke-linejoin="round" />
<path d="M 134.0 126.5 L 134.0 126.0 L 133.5 126.0 L 133.5 126.5 L 133.5 130.0 L 133.5 137.5 L 133.0 148.0 L 132.0 158.0 L 131.0 164.5 L 130.5 166.5 L 131.0 167.0 L 131.5 167.0 " stroke="black" fill="none" stroke-width="6.0" stroke-linecap="round" stroke-linejoin="round" />
<path d="M 122.5 173.0 L 122.0 173.5 L 121.5 174.0 L 121.0 174.0 L 121.5 174.0 L 124.5 172.0 L 128.5 169.5 L 133.0 166.5 L 137.5 163.5 L 141.0 160.0 " stroke="black" fill="none" stroke-width="6.0" stroke-linecap="round" stroke-linejoin="round" />
<path d="M 155.5 116.0 L 154.5 116.0 L 154.0 116.0 L 153.5 116.0 L 154.0 116.0 L 155.5 117.0 L 157.5 118.5 L 160.5 120.0 L 161.5 120.5 " stroke="black" fill="none" stroke-width="6.0" stroke-linecap="round" stroke-linejoin="round" />
<path d="M 175.5 112.5 L 176.0 113.0 L 176.5 113.0 L 177.0 113.0 L 177.0 113.5 L 176.5 114.5 L 175.5 116.0 L 174.0 118.0 L 173.0 119.0 " stroke="black" fill="none" stroke-width="6.0" stroke-linecap="round" stroke-linejoin="round" />
<path d="M 150.5 128.5 L 151.0 128.5 L 151.0 128.5 L 151.5 128.5 L 151.5 129.5 L 151.5 133.5 L 152.5 138.0 L 153.0 141.5 L 154.0 142.5 L 154.0 142.5 " stroke="black" fill="none" stroke-width="6.0" stroke-linecap="round" stroke-linejoin="round" />
<path d="M 154.0 127.5 L 153.5 127.0 L 153.0 127.0 L 153.0 126.5 L 154.5 126.5 L 158.0 126.5 L 164.0 126.0 L 171.5 125.0 L 180.0 125.0 L 187.0 125.0 L 190.0 125.5 L 190.5 126.0 L 190.0 126.0 L 190.0 126.0 L 189.5 126.5 L 189.0 127.5 L 189.0 129.5 L 188.0 132.5 L 187.0 136.0 L 186.5 138.5 L 186.5 140.5 L 186.5 141.0 L 186.5 140.5 " stroke="black" fill="none" stroke-width="6.0" stroke-linecap="round" stroke-linejoin="round" />
<path d="M 170.5 128.5 L 170.5 128.0 L 170.5 127.5 L 170.5 127.0 L 170.5 127.0 L 170.5 129.0 L 170.5 132.5 L 170.5 137.5 L 170.5 141.0 L 171.0 143.0 " stroke="black" fill="none" stroke-width="6.0" stroke-linecap="round" stroke-linejoin="round" />
<path d="M 160.0 132.5 L 159.0 133.5 L 158.5 134.0 L 158.5 134.0 L 160.0 135.0 L 162.0 136.0 L 164.0 137.0 L 165.0 137.0 " stroke="black" fill="none" stroke-width="6.0" stroke-linecap="round" stroke-linejoin="round" />
<path d="M 181.0 129.5 L 181.0 130.0 L 180.5 130.5 L 180.5 130.5 L 180.5 131.5 L 180.0 133.0 L 179.5 136.0 L 178.5 138.5 " stroke="black" fill="none" stroke-width="6.0" stroke-linecap="round" stroke-linejoin="round" />
<path d="M 155.0 150.0 L 155.0 150.0 L 155.0 150.0 L 155.0 150.0 L 156.0 150.0 L 160.0 150.0 L 167.5 149.0 L 176.5 147.5 L 183.5 146.5 L 186.5 147.0 " stroke="black" fill="none" stroke-width="6.0" stroke-linecap="round" stroke-linejoin="round" />
<path d="M 154.5 161.5 L 155.0 161.0 L 155.5 160.5 L 155.5 160.0 L 156.0 160.0 L 157.0 163.5 L 157.5 169.5 L 158.0 176.5 L 158.0 181.5 L 158.0 182.5 L 159.0 181.0 " stroke="black" fill="none" stroke-width="6.0" stroke-linecap="round" stroke-linejoin="round" />
<path d="M 161.5 158.5 L 160.5 158.5 L 159.5 158.5 L 159.0 158.5 L 159.5 158.5 L 162.5 158.5 L 167.5 158.0 L 172.5 157.5 L 178.0 157.5 L 181.5 158.5 L 182.5 160.0 L 183.0 161.5 L 182.5 163.0 L 181.5 164.5 L 180.5 167.5 L 179.5 171.0 L 178.5 175.5 L 177.5 180.0 L 177.5 183.5 L 177.5 185.0 L 178.0 185.0 " stroke="black" fill="none" stroke-width="6.0" stroke-linecap="round" stroke-linejoin="round" />
<path d="M 164.0 170.0 L 162.5 170.0 L 162.0 170.0 L 162.0 170.0 L 164.5 170.0 L 168.5 170.0 L 172.5 170.0 L 175.5 170.0 L 177.0 170.0 " stroke="black" fill="none" stroke-width="6.0" stroke-linecap="round" stroke-linejoin="round" />
<path d="M 165.0 188.5 L 165.0 188.5 L 165.0 188.5 L 165.0 188.0 L 166.0 187.5 L 168.5 187.5 L 172.0 188.0 L 175.0 189.0 L 175.5 189.5 " stroke="black" fill="none" stroke-width="6.0" stroke-linecap="round" stroke-linejoin="round" />
</svg>