<svg xmlns="http://www.w3.org/2000/svg" width="300" height="300" viewBox="0 0 300 300">
<path d="M 131.5 128.0 L 130.5 128.0 L 129.5 128.0 L 128.5 128.0 L 128.0 128.0 L 128.5 128.0 L 131.0 128.0 L 134.5 127.5 L 139.5 127.5 L 146.5 127.5 L 154.5 127.0 L 161.0 126.0 L 164.0 125.5 L 164.5 125.5 L 164.5 125.5 L 164.5 125.5 L 165.0 125.5 L 165.0 125.5 L 165.5 125.5 L 166.0 125.5 L 166.0 125.5 L 166.0 125.5 L 166.0 125.5 L 166.0 125.5 L 166.0 125.5 L 166.0 125.5 L 166.0 125.5 L 166.0 125.5 L 166.0 125.5 " stroke="black" fill="none" stroke-width="6.0" stroke-linecap="round" stroke-linejoin="round" />
<path d="M 137.0 148.5 L 137.0 148.5 L 136.5 148.5 L 136.0 148.5 L 135.5 148.5 L 135.5 148.5 L 136.5 148.5 L 139.5 148.5 L 144.0 148.5 L 149.5 148.0 L 154.5 148.0 L 157.5 147.5 L 158.5 147.5 L 159.0 148.0 L 159.0 148.5 " stroke="black" fill="none" stroke-width="6.0" stroke-linecap="round" stroke-linejoin="round" />
<path d="M 122.5 166.5 L 122.0 166.5 L 121.5 166.5 L 121.0 166.5 L 121.0 166.5 L 123.0 166.5 L 127.0 166.0 L 133.5 165.0 L 143.5 163.5 L 152.5 162.5 L 159.0 162.5 L 164.5 162.5 L 168.5 162.5 L 171.0 162.5 L 172.5 162.5 L 173.5 162.5 L 173.5 162.5 L 173.5 162.5 L 173.5 162.5 L 173.5 162.5 L 173.5 162.5 L 173.5 162.5 L 173.5 162.5 L 173.5 162.5 L 173.5 162.5 L 173.5 162.5 L 173.5 162.5 L 173.5 162.5 L 173.5 162.5 L 173.5 162.5 L 173.5 162.5 L 174.0 162.5 L 174.0 162.5 L 174.5 162.5 L 174.5 162.5 L 174.5 162.5 L 174.5 162.5 " stroke="black" fill="none" stroke-width="6.0" stroke-linecap="round" stroke-linejoin="round" />
</svg>