<svg xmlns="http://www.w3.org/2000/svg" width="300" height="300" viewBox="0 0 300 300">
<path d="M 130.0 123.0 L 130.5 123.0 L 131.0 123.0 L 131.5 123.0 L 133.0 123.0 L 138.0 123.0 L 146.0 123.5 L 156.5 123.5 L 165.5 123.0 L 170.5 123.0 L 170.5 123.5 L 169.0 124.0 L 168.0 124.5 " stroke="black" fill="none" stroke-width="6.0" stroke-linecap="round" stroke-linejoin="round" />
<path d="M 133.5 146.5 L 133.5 146.5 L 133.5 146.5 L 133.5 146.0 L 134.0 146.0 L 135.5 145.5 L 139.5 145.5 L 146.0 145.5 L 153.0 145.5 L 158.5 145.5 L 161.0 145.5 L 160.5 145.5 " stroke="black" fill="none" stroke-width="6.0" stroke-linecap="round" stroke-linejoin="round" />
<path d="M 121.5 165.5 L 121.5 165.5 L 121.0 165.5 L 120.5 165.0 L 121.0 165.0 L 123.5 165.0 L 130.0 165.0 L 141.5 164.5 L 154.5 164.5 L 164.5 164.5 L 170.5 164.5 L 173.0 163.5 L 173.0 162.5 " stroke="black" fill="none" stroke-width="6.0" stroke-linecap="round" stroke-linejoin="round" />
</svg>