<svg xmlns="http://www.w3.org/2000/svg" width="300" height="300" viewBox="0 0 300 300">
<path d="M 124.5 127.0 L 124.0 127.0 L 122.5 126.5 L 122.5 126.5 L 123.5 126.0 L 127.5 125.5 L 132.5 125.0 L 137.0 124.5 L 140.0 124.5 L 141.5 124.5 L 141.5 124.5 " stroke="black" fill="none" stroke-width="6.0" stroke-linecap="round" stroke-linejoin="round" />
<path d="M 134.5 112.5 L 134.5 113.0 L 134.5 113.5 L 134.5 114.0 L 134.5 115.5 L 134.5 121.0 L 134.5 129.5 L 134.5 136.0 L 134.5 139.5 L 134.0 140.5 " stroke="black" fill="none" stroke-width="6.0" stroke-linecap="round" stroke-linejoin="round" />
<path d="M 121.5 144.5 L 121.0 144.5 L 119.5 144.5 L 119.0 144.5 L 120.0 144.5 L 124.5 144.5 L 130.0 144.0 L 136.5 143.5 L 142.0 143.0 L 146.5 143.0 L 148.0 143.0 " stroke="black" fill="none" stroke-width="6.0" stroke-linecap="round" stroke-linejoin="round" />
<path d="M 140.0 146.0 L 139.5 145.5 L 139.0 145.0 L 139.0 146.0 L 138.5 151.0 L 138.0 157.5 L 138.0 163.5 L 138.0 166.0 L 137.5 166.0 " stroke="black" fill="none" stroke-width="6.0" stroke-linecap="round" stroke-linejoin="round" />
<path d="M 136.5 157.0 L 137.0 157.5 L 138.0 158.5 L 139.5 158.5 L 143.0 158.5 L 146.5 157.5 L 149.0 157.0 L 150.0 156.5 " stroke="black" fill="none" stroke-width="6.0" stroke-linecap="round" stroke-linejoin="round" />
<path d="M 127.0 153.0 L 127.0 153.0 L 127.0 152.5 L 127.0 152.5 L 127.0 152.5 L 127.0 154.0 L 124.5 160.5 L 120.5 170.5 L 116.5 179.0 L 115.0 181.5 L 114.5 181.5 L 114.5 181.0 " stroke="black" fill="none" stroke-width="6.0" stroke-linecap="round" stroke-linejoin="round" />
<path d="M 123.0 174.0 L 123.0 174.0 L 123.0 174.5 L 125.5 175.0 L 132.0 175.0 L 143.0 175.0 L 153.0 175.5 L 161.5 177.0 L 169.5 178.0 L 177.0 178.0 L 185.5 177.0 L 193.5 175.0 L 195.5 174.5 " stroke="black" fill="none" stroke-width="6.0" stroke-linecap="round" stroke-linejoin="round" />
<path d="M 181.0 118.5 L 181.0 118.5 L 181.5 118.5 L 181.5 119.0 L 181.0 119.0 L 179.5 119.0 L 177.0 118.5 L 174.0 118.0 L 171.0 117.5 L 168.5 117.5 L 166.0 117.0 L 164.5 117.0 L 163.5 117.5 L 162.5 117.5 L 162.0 117.5 L 162.0 117.5 L 161.5 117.5 L 161.0 117.5 L 161.0 117.5 L 161.0 117.5 L 161.0 117.5 L 161.0 117.5 L 161.0 117.5 L 161.0 117.5 L 161.0 117.5 L 161.0 117.5 L 161.0 117.5 L 161.0 117.5 L 161.0 117.5 L 161.0 117.5 L 161.0 118.5 L 161.0 120.0 L 161.0 122.5 L 161.0 125.5 L 161.0 129.5 L 161.0 133.5 L 161.0 138.0 L 161.0 141.5 L 160.5 144.5 L 159.5 147.0 L 159.0 148.0 L 158.5 149.5 L 158.5 150.0 L 158.5 150.0 L 158.5 150.0 L 158.5 150.0 L 159.0 150.0 L 159.5 150.0 L 161.0 150.0 L 162.0 149.0 L 164.0 148.5 L 166.0 147.5 L 167.5 146.0 L 168.5 145.0 " stroke="black" fill="none" stroke-width="6.0" stroke-linecap="round" stroke-linejoin="round" />
<path d="M 174.0 107.0 L 174.5 107.0 L 175.0 107.0 L 175.0 107.0 L 175.0 107.5 L 175.5 110.5 L 175.5 117.5 L 177.0 127.5 L 179.0 139.0 L 181.5 148.0 L 184.0 153.0 L 186.0 155.0 L 187.5 155.0 L 189.5 154.5 L 191.0 152.0 L 191.5 149.0 L 192.0 147.0 " stroke="black" fill="none" stroke-width="6.0" stroke-linecap="round" stroke-linejoin="round" />
<path d="M 187.0 130.0 L 186.5 129.5 L 186.0 129.5 L 185.5 129.5 L 184.0 131.0 L 181.5 136.0 L 178.5 143.0 L 175.5 148.5 L 174.5 150.5 L 174.5 150.5 " stroke="black" fill="none" stroke-width="6.0" stroke-linecap="round" stroke-linejoin="round" />
<path d="M 186.0 107.5 L 186.0 107.5 L 185.0 107.5 L 185.0 107.5 L 185.0 107.5 L 186.0 109.0 L 187.5 111.0 L 188.5 112.0 " stroke="black" fill="none" stroke-width="6.0" stroke-linecap="round" stroke-linejoin="round" />
</svg>