<svg xmlns="http://www.w3.org/2000/svg" width="300" height="300" viewBox="0 0 300 300">
<path d="M 143.0 113.5 L 143.0 113.5 L 143.0 113.5 L 142.5 113.5 L 142.5 113.5 L 143.5 114.0 L 145.5 116.0 L 147.0 118.0 L 148.5 119.5 L 149.0 121.0 " stroke="black" fill="none" stroke-width="6.0" stroke-linecap="round" stroke-linejoin="round" />
<path d="M 125.5 130.0 L 125.0 131.0 L 124.5 131.0 L 124.5 131.5 L 124.5 131.5 L 126.5 131.5 L 131.0 131.0 L 138.0 130.5 L 148.0 130.0 L 158.0 129.0 L 164.0 128.0 L 166.0 127.5 L 165.5 127.5 L 164.5 127.5 L 163.5 127.5 L 163.5 127.5 " stroke="black" fill="none" stroke-width="6.0" stroke-linecap="round" stroke-linejoin="round" />
<path d="M 135.0 141.0 L 134.5 140.5 L 134.0 139.0 L 133.5 139.0 L 133.5 139.0 L 134.5 142.0 L 135.5 146.5 L 137.0 150.5 L 137.5 153.5 L 138.0 154.5 L 138.0 154.0 " stroke="black" fill="none" stroke-width="6.0" stroke-linecap="round" stroke-linejoin="round" />
<path d="M 137.0 142.0 L 136.0 141.5 L 135.0 141.5 L 135.0 141.0 L 136.5 141.0 L 140.0 140.0 L 144.0 138.5 L 148.5 137.5 L 153.0 137.5 L 156.5 137.5 L 159.0 137.5 L 159.5 138.0 L 159.0 138.0 L 158.5 139.0 L 158.0 141.0 L 157.5 143.5 L 157.0 146.5 L 156.5 149.5 L 156.0 151.5 L 156.0 152.0 " stroke="black" fill="none" stroke-width="6.0" stroke-linecap="round" stroke-linejoin="round" />
<path d="M 143.5 154.5 L 143.5 154.5 L 143.0 155.0 L 143.0 155.0 L 143.0 155.0 L 145.5 154.5 L 148.5 153.5 L 152.5 152.5 L 155.5 152.0 L 156.5 152.0 " stroke="black" fill="none" stroke-width="6.0" stroke-linecap="round" stroke-linejoin="round" />
<path d="M 129.5 171.5 L 130.0 171.5 L 130.5 171.5 L 131.0 171.5 L 131.5 172.5 L 132.0 175.5 L 132.5 180.5 L 133.0 187.0 L 133.0 193.0 L 133.0 196.0 L 133.0 195.5 L 132.5 194.5 " stroke="black" fill="none" stroke-width="6.0" stroke-linecap="round" stroke-linejoin="round" />
<path d="M 134.0 167.5 L 133.5 167.5 L 132.5 167.5 L 132.5 167.5 L 132.5 167.5 L 134.5 167.5 L 137.5 167.5 L 141.5 167.5 L 148.0 167.0 L 156.0 165.5 L 162.0 164.5 L 165.5 163.5 L 166.5 163.0 L 166.5 163.0 L 166.5 163.5 L 167.0 164.0 L 168.5 164.5 L 169.5 165.0 L 170.5 165.0 L 170.5 165.5 L 170.5 165.5 L 170.5 166.0 L 170.5 167.0 L 170.5 168.0 L 170.0 169.5 L 169.5 171.5 L 169.5 175.0 L 169.0 179.5 L 169.0 184.0 L 169.0 189.0 L 169.0 193.0 L 169.0 196.0 L 169.0 199.0 L 168.5 201.0 L 168.0 201.0 L 167.0 201.0 L 166.0 200.5 L 164.0 198.5 L 163.5 198.0 " stroke="black" fill="none" stroke-width="6.0" stroke-linecap="round" stroke-linejoin="round" />
<path d="M 144.0 179.0 L 144.0 179.0 L 144.0 178.5 L 144.0 178.0 L 144.0 178.0 L 144.0 179.0 L 144.5 182.0 L 145.0 185.5 L 145.5 188.0 L 145.5 188.0 " stroke="black" fill="none" stroke-width="6.0" stroke-linecap="round" stroke-linejoin="round" />
<path d="M 145.5 179.0 L 145.5 179.0 L 145.5 179.5 L 145.5 179.5 L 147.0 179.5 L 150.0 179.0 L 152.5 178.5 L 155.0 178.5 L 156.5 178.5 L 157.5 178.5 L 157.5 179.5 L 157.5 181.5 L 157.0 185.0 L 156.0 187.5 L 155.0 189.5 L 154.0 190.5 " stroke="black" fill="none" stroke-width="6.0" stroke-linecap="round" stroke-linejoin="round" />
<path d="M 149.0 190.5 L 149.0 190.5 L 149.0 190.5 L 149.0 191.0 L 149.5 191.0 L 150.5 190.5 L 153.0 190.5 L 156.0 190.0 L 156.5 190.0 " stroke="black" fill="none" stroke-width="6.0" stroke-linecap="round" stroke-linejoin="round" />
</svg>