<svg xmlns="http://www.w3.org/2000/svg" width="300" height="300" viewBox="0 0 300 300">
<path d="M 117.5 124.0 L 117.5 123.5 L 118.0 123.0 L 118.0 122.5 L 119.5 122.5 L 121.5 122.0 L 125.5 121.0 L 131.5 119.5 L 137.5 118.5 L 142.0 117.0 L 143.5 116.5 L 143.5 116.5 L 142.5 116.5 " stroke="black" fill="none" stroke-width="6.0" stroke-linecap="round" stroke-linejoin="round" />
<path d="M 118.5 136.0 L 118.5 136.0 L 118.5 136.0 L 118.5 136.0 L 118.5 136.0 L 119.5 136.0 L 123.0 136.0 L 129.0 135.5 L 135.0 135.5 L 139.5 134.5 L 143.0 134.0 L 144.0 133.5 " stroke="black" fill="none" stroke-width="6.0" stroke-linecap="round" stroke-linejoin="round" />
<path d="M 129.5 124.5 L 130.5 123.5 L 130.5 123.5 L 130.5 123.5 L 131.0 125.0 L 131.0 130.5 L 131.0 141.5 L 131.5 156.0 L 132.5 166.0 L 133.0 170.5 L 133.5 172.5 L 133.5 172.5 L 132.5 172.5 " stroke="black" fill="none" stroke-width="6.0" stroke-linecap="round" stroke-linejoin="round" />
<path d="M 129.5 141.5 L 130.5 141.0 L 131.0 140.5 L 131.0 140.5 L 130.5 142.0 L 128.0 146.0 L 124.0 153.0 L 120.0 161.5 L 118.0 165.5 L 118.0 165.0 L 118.0 164.5 " stroke="black" fill="none" stroke-width="6.0" stroke-linecap="round" stroke-linejoin="round" />
<path d="M 134.0 146.0 L 134.0 146.0 L 134.5 145.5 L 135.0 145.5 L 136.5 146.0 L 141.0 151.0 L 143.5 152.0 L 144.0 152.0 " stroke="black" fill="none" stroke-width="6.0" stroke-linecap="round" stroke-linejoin="round" />
<path d="M 155.5 128.0 L 156.5 127.0 L 157.0 127.0 L 157.0 127.0 L 157.0 130.0 L 157.5 136.0 L 158.5 143.0 L 159.5 147.5 L 159.5 148.0 L 159.5 146.5 " stroke="black" fill="none" stroke-width="6.0" stroke-linecap="round" stroke-linejoin="round" />
<path d="M 157.5 126.0 L 157.5 126.0 L 158.0 126.0 L 158.0 126.0 L 158.0 126.0 L 159.0 126.0 L 160.5 126.0 L 164.0 126.0 L 169.5 126.0 L 174.5 126.0 L 177.5 126.0 L 178.5 127.0 L 178.5 128.0 L 178.0 129.0 L 177.5 131.0 L 177.5 133.0 L 177.0 135.5 L 177.0 139.5 L 177.0 143.0 L 176.5 145.5 L 176.5 147.5 L 175.5 148.5 L 175.5 148.5 " stroke="black" fill="none" stroke-width="6.0" stroke-linecap="round" stroke-linejoin="round" />
<path d="M 160.5 151.5 L 160.5 151.5 L 159.5 151.5 L 159.5 151.5 L 161.5 151.5 L 165.5 151.5 L 170.0 151.0 L 173.5 150.5 L 176.0 150.5 " stroke="black" fill="none" stroke-width="6.0" stroke-linecap="round" stroke-linejoin="round" />
</svg>