<svg xmlns="http://www.w3.org/2000/svg" width="300" height="300" viewBox="0 0 300 300">
<path d="M 132.0 119.0 L 132.0 119.0 L 133.0 118.5 L 133.5 118.0 L 134.0 118.0 L 134.0 118.5 L 133.5 121.5 L 131.0 127.5 L 127.5 136.5 L 123.5 146.0 L 121.5 152.0 L 121.0 154.0 L 121.0 155.0 L 121.5 155.0 L 122.5 155.5 L 124.0 158.0 L 126.0 162.0 L 129.0 168.5 L 131.5 175.5 L 134.0 180.0 L 135.0 181.5 L 136.0 182.5 L 136.0 182.5 L 136.5 181.5 L 136.5 180.0 " stroke="black" fill="none" stroke-width="6.0" stroke-linecap="round" stroke-linejoin="round" />
<path d="M 139.0 141.5 L 139.0 140.0 L 139.0 139.5 L 139.0 139.5 L 139.0 141.0 L 138.0 145.5 L 135.0 154.0 L 129.0 166.5 L 122.5 177.0 L 119.0 181.0 L 118.0 182.0 L 118.0 181.0 L 118.0 180.0 " stroke="black" fill="none" stroke-width="6.0" stroke-linecap="round" stroke-linejoin="round" />
<path d="M 113.5 154.0 L 113.0 154.0 L 113.0 154.0 L 113.0 154.0 L 115.5 154.0 L 122.0 153.0 L 130.5 151.5 L 137.0 150.0 L 143.0 148.5 " stroke="black" fill="none" stroke-width="6.0" stroke-linecap="round" stroke-linejoin="round" />
<path d="M 156.0 135.0 L 156.0 135.0 L 156.0 135.0 L 156.0 135.5 L 156.0 139.0 L 155.0 147.0 L 155.0 155.0 L 155.0 160.0 L 155.0 161.0 " stroke="black" fill="none" stroke-width="6.0" stroke-linecap="round" stroke-linejoin="round" />
<path d="M 156.0 137.0 L 155.0 137.0 L 154.0 136.5 L 154.0 136.5 L 154.0 136.5 L 156.0 136.0 L 160.5 135.5 L 166.0 134.5 L 172.5 133.0 L 176.5 132.5 L 178.0 133.0 L 178.0 136.0 L 177.0 141.0 L 175.5 147.0 L 174.5 152.0 L 174.0 154.5 L 174.0 155.5 L 173.5 156.0 L 173.5 155.5 " stroke="black" fill="none" stroke-width="6.0" stroke-linecap="round" stroke-linejoin="round" />
<path d="M 155.0 162.0 L 154.0 162.0 L 153.0 162.5 L 153.5 162.5 L 157.5 161.5 L 163.5 160.5 L 169.5 159.5 L 175.0 159.5 " stroke="black" fill="none" stroke-width="6.0" stroke-linecap="round" stroke-linejoin="round" />
</svg>