<svg xmlns="http://www.w3.org/2000/svg" width="300" height="300" viewBox="0 0 300 300">
<path d="M 122.0 123.5 L 122.0 123.5 L 122.0 123.5 L 122.0 123.0 L 122.0 123.0 L 122.0 123.0 L 122.0 125.0 L 122.5 129.0 L 122.5 138.0 L 122.5 150.5 L 122.0 159.5 L 122.0 163.0 L 122.0 162.0 L 122.0 158.5 " stroke="black" fill="none" stroke-width="6.0" stroke-linecap="round" stroke-linejoin="round" />
<path d="M 124.5 124.0 L 124.0 124.0 L 122.5 124.0 L 122.5 124.0 L 122.5 124.0 L 124.5 123.5 L 126.5 123.0 L 128.5 122.5 L 131.0 122.0 L 133.0 121.5 L 134.5 121.0 L 135.5 121.5 L 135.5 122.5 L 135.5 124.5 L 135.5 128.5 L 135.5 134.5 L 135.5 143.0 L 136.0 153.0 L 136.5 160.5 L 136.5 164.0 L 137.0 166.5 L 137.0 167.0 L 137.0 168.0 L 137.0 168.5 L 136.5 168.5 " stroke="black" fill="none" stroke-width="6.0" stroke-linecap="round" stroke-linejoin="round" />
<path d="M 125.5 139.5 L 123.5 139.5 L 122.5 139.5 L 123.0 139.5 L 125.0 139.5 L 128.0 139.0 L 130.5 138.5 L 132.5 138.0 L 134.0 138.0 L 134.5 138.0 " stroke="black" fill="none" stroke-width="6.0" stroke-linecap="round" stroke-linejoin="round" />
<path d="M 126.0 155.0 L 126.0 155.0 L 125.5 156.0 L 125.5 156.5 L 126.5 156.0 L 128.5 155.0 L 130.5 154.0 L 132.0 153.0 L 132.5 153.0 " stroke="black" fill="none" stroke-width="6.0" stroke-linecap="round" stroke-linejoin="round" />
<path d="M 124.0 170.5 L 123.0 170.5 L 122.5 170.5 L 122.5 170.5 L 124.5 170.5 L 128.0 170.5 L 131.5 170.5 L 134.5 170.0 L 137.0 170.0 L 138.0 169.5 " stroke="black" fill="none" stroke-width="6.0" stroke-linecap="round" stroke-linejoin="round" />
<path d="M 128.0 181.0 L 128.0 181.0 L 128.0 181.0 L 128.0 181.0 L 128.0 181.5 L 127.0 183.5 L 125.0 187.0 L 123.0 190.5 L 122.5 191.5 " stroke="black" fill="none" stroke-width="6.0" stroke-linecap="round" stroke-linejoin="round" />
<path d="M 134.5 181.0 L 135.0 181.5 L 136.0 182.5 L 138.0 183.0 L 140.5 184.0 L 143.0 185.0 L 144.5 185.5 L 144.5 185.5 " stroke="black" fill="none" stroke-width="6.0" stroke-linecap="round" stroke-linejoin="round" />
<path d="M 147.5 123.0 L 147.0 123.0 L 146.0 123.0 L 145.5 123.0 L 147.0 123.0 L 151.0 123.0 L 155.5 123.0 L 159.0 123.0 L 162.0 123.0 L 163.0 123.5 L 163.5 123.5 " stroke="black" fill="none" stroke-width="6.0" stroke-linecap="round" stroke-linejoin="round" />
<path d="M 146.5 134.5 L 146.0 134.5 L 145.0 135.5 L 144.5 135.5 L 144.5 135.5 L 146.5 135.5 L 150.0 135.5 L 154.5 135.5 L 162.5 135.5 L 172.5 135.0 L 181.0 134.0 L 185.0 133.5 L 185.0 133.5 L 184.0 133.5 L 183.5 133.5 L 183.5 133.5 L 183.5 133.5 L 183.0 133.5 L 183.0 133.5 " stroke="black" fill="none" stroke-width="6.0" stroke-linecap="round" stroke-linejoin="round" />
<path d="M 175.0 117.5 L 174.0 116.5 L 173.5 116.0 L 173.0 115.5 L 173.0 116.0 L 173.5 119.0 L 174.5 124.0 L 175.5 132.0 L 176.0 142.0 L 177.0 153.0 L 179.0 163.0 L 181.5 170.5 L 184.5 176.0 L 187.0 179.5 L 189.0 181.5 L 190.0 182.5 L 191.0 183.5 L 192.0 183.5 L 192.5 183.0 L 193.0 181.0 L 193.5 178.5 L 193.5 175.5 L 193.0 172.5 L 193.0 170.0 L 192.5 168.5 " stroke="black" fill="none" stroke-width="6.0" stroke-linecap="round" stroke-linejoin="round" />
<path d="M 160.0 151.0 L 160.5 150.5 L 160.5 150.0 L 161.0 149.5 L 161.0 149.5 L 161.0 150.0 L 161.0 153.5 L 161.0 157.5 L 161.0 161.5 L 161.0 164.5 L 160.5 165.0 " stroke="black" fill="none" stroke-width="6.0" stroke-linecap="round" stroke-linejoin="round" />
<path d="M 161.0 158.0 L 161.5 158.0 L 162.5 158.5 L 164.0 158.5 L 165.5 158.0 L 167.0 157.0 L 168.5 156.5 L 169.5 156.0 " stroke="black" fill="none" stroke-width="6.0" stroke-linecap="round" stroke-linejoin="round" />
<path d="M 150.0 154.0 L 150.0 154.0 L 149.5 154.0 L 149.5 153.5 L 149.5 154.5 L 150.0 157.5 L 150.5 162.5 L 151.0 168.0 L 151.0 171.0 L 151.0 172.5 L 151.0 173.0 " stroke="black" fill="none" stroke-width="6.0" stroke-linecap="round" stroke-linejoin="round" />
<path d="M 149.0 173.0 L 149.0 173.0 L 148.5 173.0 L 148.0 173.0 L 148.0 173.5 L 149.0 173.5 L 152.0 172.0 L 156.0 170.0 L 160.0 168.0 L 164.0 166.5 L 165.5 165.5 L 166.0 165.5 L 166.0 165.0 " stroke="black" fill="none" stroke-width="6.0" stroke-linecap="round" stroke-linejoin="round" />
<path d="M 184.5 117.5 L 183.5 117.5 L 183.0 117.5 L 183.0 117.5 L 183.0 118.0 L 185.0 120.0 L 186.5 122.0 L 188.5 124.0 L 189.5 125.0 " stroke="black" fill="none" stroke-width="6.0" stroke-linecap="round" stroke-linejoin="round" />
</svg>