<svg xmlns="http://www.w3.org/2000/svg" width="300" height="300" viewBox="0 0 300 300">
<path d="M 147.5 115.5 L 147.0 115.5 L 146.5 116.5 L 146.5 117.0 L 146.5 118.5 L 146.5 123.0 L 146.5 133.0 L 146.5 145.0 L 146.5 156.0 L 146.5 163.0 L 146.5 165.5 L 146.5 165.5 L 146.5 163.0 " stroke="black" fill="none" stroke-width="6.0" stroke-linecap="round" stroke-linejoin="round" />
<path d="M 129.5 138.5 L 129.5 138.5 L 129.5 137.5 L 130.0 137.5 L 130.0 137.5 L 130.0 139.0 L 129.5 144.5 L 129.0 153.5 L 128.5 163.0 L 128.5 168.0 L 130.0 169.0 L 132.5 169.0 L 135.5 168.5 L 139.0 168.5 L 143.5 168.5 L 149.5 168.5 L 155.5 168.5 L 160.5 167.5 L 162.0 166.0 L 161.5 165.5 " stroke="black" fill="none" stroke-width="6.0" stroke-linecap="round" stroke-linejoin="round" />
<path d="M 165.5 137.5 L 165.0 138.0 L 165.0 138.5 L 165.0 139.0 L 165.0 140.5 L 165.0 144.0 L 165.0 151.0 L 165.0 160.5 L 164.0 170.5 L 164.0 177.5 L 164.0 180.0 L 165.0 180.5 L 165.5 180.0 " stroke="black" fill="none" stroke-width="6.0" stroke-linecap="round" stroke-linejoin="round" />
</svg>