<svg xmlns="http://www.w3.org/2000/svg" width="300" height="300" viewBox="0 0 300 300">
<path d="M 150.0 121.5 L 149.5 120.5 L 149.5 120.0 L 149.5 120.0 L 149.5 121.0 L 150.0 127.0 L 150.0 138.5 L 149.0 152.5 L 147.0 162.0 L 146.5 164.0 L 146.5 163.5 L 146.5 161.5 " stroke="black" fill="none" stroke-width="6.0" stroke-linecap="round" stroke-linejoin="round" />
<path d="M 132.0 140.5 L 132.0 140.5 L 131.5 139.5 L 131.0 139.0 L 131.0 139.0 L 131.0 140.0 L 131.0 146.0 L 131.0 154.0 L 131.0 163.0 L 131.0 169.0 L 132.5 171.0 L 135.0 171.5 L 139.0 171.0 L 144.5 170.0 L 151.0 168.5 L 157.0 167.0 L 160.5 166.0 L 161.5 166.0 L 161.5 166.5 " stroke="black" fill="none" stroke-width="6.0" stroke-linecap="round" stroke-linejoin="round" />
<path d="M 167.0 140.5 L 167.0 140.5 L 166.5 140.5 L 166.0 140.5 L 166.0 141.5 L 166.5 146.0 L 167.0 155.5 L 167.0 168.5 L 167.0 176.5 L 167.0 179.5 L 167.0 179.0 L 167.5 178.0 " stroke="black" fill="none" stroke-width="6.0" stroke-linecap="round" stroke-linejoin="round" />
</svg>