<svg xmlns="http://www.w3.org/2000/svg" width="300" height="300" viewBox="0 0 300 300">
<path d="M 151.5 120.0 L 151.5 118.5 L 151.5 117.5 L 151.5 117.5 L 151.5 118.0 L 151.5 122.5 L 152.0 130.5 L 152.0 143.5 L 151.5 156.5 L 151.0 165.0 L 151.5 166.5 L 152.0 165.5 L 152.0 164.5 " stroke="black" fill="none" stroke-width="6.0" stroke-linecap="round" stroke-linejoin="round" />
<path d="M 134.5 137.5 L 134.5 137.5 L 134.5 137.5 L 134.5 137.0 L 134.5 137.5 L 134.5 141.5 L 134.5 150.0 L 134.5 159.5 L 135.5 166.5 L 137.0 168.5 L 140.5 169.0 L 146.5 168.5 L 152.0 168.0 L 158.0 168.0 L 163.0 168.0 L 167.5 168.5 L 168.5 168.5 " stroke="black" fill="none" stroke-width="6.0" stroke-linecap="round" stroke-linejoin="round" />
<path d="M 172.0 141.0 L 172.0 140.0 L 172.0 139.0 L 171.5 139.0 L 171.5 141.0 L 171.5 148.0 L 171.5 159.0 L 171.5 170.5 L 172.0 176.5 L 172.5 177.0 " stroke="black" fill="none" stroke-width="6.0" stroke-linecap="round" stroke-linejoin="round" />
</svg>