<svg xmlns="http://www.w3.org/2000/svg" width="300" height="300" viewBox="0 0 300 300">
<path d="M 132.5 118.0 L 132.5 117.5 L 133.5 116.5 L 133.5 116.0 L 133.5 116.0 L 133.5 116.0 L 133.5 119.0 L 133.0 125.0 L 130.5 134.0 L 127.0 143.0 L 125.0 147.0 L 124.5 147.0 L 124.5 144.5 " stroke="black" fill="none" stroke-width="7.0" stroke-linecap="round" stroke-linejoin="round" />
<path d="M 135.5 130.5 L 135.5 131.5 L 135.0 132.0 L 135.0 132.0 L 137.5 132.0 L 144.0 131.0 L 153.0 129.5 L 160.5 128.5 L 165.0 128.0 L 165.0 129.0 L 164.0 129.5 " stroke="black" fill="none" stroke-width="7.0" stroke-linecap="round" stroke-linejoin="round" />
<path d="M 135.0 154.5 L 135.5 154.5 L 135.5 155.0 L 136.5 155.0 L 140.5 155.0 L 147.5 154.0 L 154.0 153.0 L 158.0 152.0 L 158.5 151.5 " stroke="black" fill="none" stroke-width="7.0" stroke-linecap="round" stroke-linejoin="round" />
<path d="M 149.5 111.0 L 149.5 111.5 L 149.5 112.0 L 149.0 113.0 L 149.0 116.0 L 148.5 124.5 L 147.5 141.0 L 147.0 158.5 L 146.5 168.5 L 146.5 173.5 L 146.5 176.0 L 146.5 175.5 " stroke="black" fill="none" stroke-width="7.0" stroke-linecap="round" stroke-linejoin="round" />
<path d="M 121.0 179.0 L 121.0 179.0 L 121.0 180.0 L 121.0 180.0 L 123.0 180.5 L 129.5 180.0 L 143.0 179.5 L 158.5 178.5 L 172.5 176.5 L 178.0 175.5 L 178.5 175.5 L 177.0 175.5 " stroke="black" fill="none" stroke-width="7.0" stroke-linecap="round" stroke-linejoin="round" />
</svg>