<svg xmlns="http://www.w3.org/2000/svg" width="300" height="300" viewBox="0 0 300 300">
<path d="M 131.5 120.0 L 132.0 118.5 L 133.0 117.5 L 133.0 117.0 L 133.0 117.0 L 133.0 119.5 L 132.5 124.0 L 129.5 131.0 L 124.5 139.0 L 120.0 146.0 L 118.5 148.0 L 119.5 146.5 L 120.0 145.5 " stroke="black" fill="none" stroke-width="6.0" stroke-linecap="round" stroke-linejoin="round" />
<path d="M 131.5 134.0 L 131.5 134.5 L 131.0 134.5 L 131.0 134.5 L 131.5 134.5 L 136.5 134.5 L 146.0 133.0 L 156.0 131.5 L 164.0 130.5 L 167.0 130.5 L 166.5 131.5 L 165.5 131.5 " stroke="black" fill="none" stroke-width="6.0" stroke-linecap="round" stroke-linejoin="round" />
<path d="M 140.5 155.0 L 140.0 155.5 L 139.0 156.5 L 139.0 156.5 L 140.5 156.5 L 145.5 156.0 L 151.5 155.0 L 157.0 154.0 L 159.0 153.0 " stroke="black" fill="none" stroke-width="6.0" stroke-linecap="round" stroke-linejoin="round" />
<path d="M 150.0 118.0 L 150.0 118.0 L 149.5 117.5 L 149.5 118.0 L 149.5 121.5 L 149.5 129.0 L 149.0 141.5 L 148.5 154.5 L 148.5 164.0 L 149.0 168.5 L 149.0 171.5 L 149.0 172.5 " stroke="black" fill="none" stroke-width="6.0" stroke-linecap="round" stroke-linejoin="round" />
<path d="M 129.0 178.0 L 129.0 178.0 L 128.5 178.0 L 128.5 178.0 L 129.5 177.5 L 135.5 176.5 L 145.5 176.5 L 157.0 176.0 L 167.5 175.5 L 174.0 175.5 L 176.5 175.5 " stroke="black" fill="none" stroke-width="6.0" stroke-linecap="round" stroke-linejoin="round" />
</svg>