<svg xmlns="http://www.w3.org/2000/svg" width="300" height="300" viewBox="0 0 300 300">
<path d="M 130.5 111.0 L 131.0 111.5 L 131.0 112.0 L 131.0 112.0 L 131.0 113.0 L 131.0 116.0 L 130.5 121.0 L 128.5 126.5 L 126.0 131.5 L 123.5 135.0 L 122.5 135.5 L 122.5 134.5 " stroke="black" fill="none" stroke-width="6.0" stroke-linecap="round" stroke-linejoin="round" />
<path d="M 131.5 125.0 L 131.0 125.0 L 130.5 125.0 L 130.0 125.0 L 131.5 125.0 L 137.0 124.5 L 145.5 123.0 L 154.0 122.5 L 159.0 122.5 L 161.0 122.5 L 160.0 123.5 " stroke="black" fill="none" stroke-width="6.0" stroke-linecap="round" stroke-linejoin="round" />
<path d="M 131.5 145.0 L 131.5 144.5 L 131.5 144.5 L 131.5 144.0 L 134.0 144.0 L 140.0 143.5 L 147.5 143.0 L 152.5 142.5 L 154.0 142.5 L 154.5 142.5 " stroke="black" fill="none" stroke-width="6.0" stroke-linecap="round" stroke-linejoin="round" />
<path d="M 148.5 113.5 L 147.5 114.0 L 146.5 114.0 L 146.5 114.0 L 146.5 116.0 L 146.5 121.5 L 146.0 132.5 L 144.0 145.0 L 143.0 154.5 L 142.5 160.0 L 142.5 162.0 L 142.5 162.0 " stroke="black" fill="none" stroke-width="6.0" stroke-linecap="round" stroke-linejoin="round" />
<path d="M 126.5 165.5 L 125.5 165.0 L 124.5 164.0 L 124.0 164.0 L 124.5 164.0 L 128.0 164.0 L 134.5 164.0 L 145.5 163.5 L 154.5 163.0 L 163.0 162.5 L 171.5 162.5 L 173.0 163.0 L 173.0 163.5 L 171.5 163.5 L 171.0 163.5 " stroke="black" fill="none" stroke-width="6.0" stroke-linecap="round" stroke-linejoin="round" />
</svg>