<svg xmlns="http://www.w3.org/2000/svg" width="300" height="300" viewBox="0 0 300 300">
<path d="M 135.0 119.0 L 135.0 118.5 L 136.0 118.0 L 136.0 118.0 L 136.0 118.0 L 136.0 119.0 L 135.0 123.0 L 132.5 129.0 L 128.5 136.5 L 124.0 142.0 L 121.5 144.0 L 121.5 144.0 L 121.5 144.0 " stroke="black" fill="none" stroke-width="6.0" stroke-linecap="round" stroke-linejoin="round" />
<path d="M 131.0 132.5 L 131.0 133.0 L 131.5 134.0 L 131.5 134.0 L 133.0 134.5 L 136.5 134.5 L 142.5 133.5 L 150.0 132.5 L 156.0 132.5 L 160.0 132.5 L 162.5 132.5 L 163.5 132.5 L 163.5 132.0 " stroke="black" fill="none" stroke-width="6.0" stroke-linecap="round" stroke-linejoin="round" />
<path d="M 139.0 150.0 L 137.5 150.5 L 136.5 151.0 L 136.0 151.0 L 136.5 151.0 L 139.5 151.0 L 144.5 150.5 L 151.0 150.5 L 156.5 150.0 L 159.5 150.0 L 161.0 149.0 L 161.0 149.0 " stroke="black" fill="none" stroke-width="6.0" stroke-linecap="round" stroke-linejoin="round" />
<path d="M 149.0 123.0 L 148.5 123.0 L 148.0 123.0 L 147.5 123.0 L 147.5 126.0 L 147.5 132.0 L 147.5 143.5 L 146.5 155.5 L 146.5 164.0 L 147.0 167.5 L 147.5 168.0 L 148.5 168.0 " stroke="black" fill="none" stroke-width="6.0" stroke-linecap="round" stroke-linejoin="round" />
<path d="M 126.0 172.5 L 125.0 173.0 L 124.5 173.5 L 124.0 173.5 L 124.5 173.5 L 127.0 173.0 L 131.0 173.0 L 138.5 172.5 L 149.5 171.5 L 160.0 170.0 L 168.5 169.0 L 172.5 169.0 L 173.0 169.5 L 173.0 170.0 L 172.5 170.0 L 172.0 170.0 L 172.0 170.0 " stroke="black" fill="none" stroke-width="6.0" stroke-linecap="round" stroke-linejoin="round" />
</svg>