<svg xmlns="http://www.w3.org/2000/svg" width="300" height="300" viewBox="0 0 300 300">
<path d="M 123.5 114.5 L 122.5 115.0 L 120.5 115.5 L 120.0 115.5 L 120.0 115.5 L 120.5 115.5 L 122.5 115.0 L 126.5 114.5 L 130.5 114.0 L 134.5 113.5 L 138.5 113.0 L 142.0 113.0 L 144.5 113.0 L 145.0 113.5 L 145.5 114.0 L 145.5 114.0 L 145.5 113.5 L 145.0 113.0 " stroke="black" fill="none" stroke-width="6.0" stroke-linecap="round" stroke-linejoin="round" />
<path d="M 116.0 126.5 L 116.0 126.5 L 115.5 126.5 L 115.5 126.5 L 117.0 126.5 L 122.5 126.5 L 133.5 126.5 L 146.0 126.5 L 155.5 126.5 L 161.5 126.5 L 165.0 126.0 L 166.5 125.5 L 166.5 125.0 L 166.0 125.0 L 166.0 125.0 " stroke="black" fill="none" stroke-width="6.0" stroke-linecap="round" stroke-linejoin="round" />
<path d="M 151.0 101.5 L 151.0 101.5 L 151.0 101.0 L 151.0 101.0 L 151.0 101.0 L 151.0 102.5 L 151.0 109.5 L 151.0 122.5 L 152.0 138.5 L 154.0 152.0 L 157.5 161.5 L 161.0 169.0 L 165.0 175.0 L 168.5 179.0 L 171.5 181.5 L 176.0 180.5 L 178.0 178.0 L 180.0 174.0 L 181.0 170.0 L 182.0 166.5 L 182.0 164.0 L 181.5 164.0 " stroke="black" fill="none" stroke-width="6.0" stroke-linecap="round" stroke-linejoin="round" />
<path d="M 135.0 140.5 L 135.0 139.0 L 135.0 138.0 L 135.0 138.0 L 135.5 140.5 L 136.5 146.0 L 137.0 152.5 L 137.0 157.5 L 137.0 159.5 L 137.0 159.5 L 137.0 158.5 " stroke="black" fill="none" stroke-width="6.0" stroke-linecap="round" stroke-linejoin="round" />
<path d="M 138.0 151.0 L 138.0 151.5 L 137.5 152.5 L 137.5 152.5 L 139.0 152.0 L 141.5 151.0 L 144.0 150.0 L 145.5 149.0 " stroke="black" fill="none" stroke-width="6.0" stroke-linecap="round" stroke-linejoin="round" />
<path d="M 124.0 145.5 L 124.0 144.5 L 123.5 144.0 L 123.5 143.5 L 123.5 143.5 L 123.5 145.0 L 123.5 149.5 L 124.0 158.0 L 124.0 167.0 L 124.0 171.5 L 124.0 172.0 L 124.0 171.0 " stroke="black" fill="none" stroke-width="6.0" stroke-linecap="round" stroke-linejoin="round" />
<path d="M 117.0 174.5 L 116.5 176.0 L 116.0 177.0 L 116.0 177.0 L 119.5 176.0 L 124.5 173.0 L 130.0 170.0 L 134.5 167.5 L 138.0 165.5 L 141.0 163.5 L 144.5 162.5 L 145.0 162.5 " stroke="black" fill="none" stroke-width="6.0" stroke-linecap="round" stroke-linejoin="round" />
<path d="M 164.0 106.0 L 164.0 106.0 L 164.0 106.5 L 164.0 107.0 L 164.0 107.5 L 164.5 108.0 L 166.0 109.5 L 167.5 111.0 L 168.5 111.5 " stroke="black" fill="none" stroke-width="6.0" stroke-linecap="round" stroke-linejoin="round" />
</svg>