<svg xmlns="http://www.w3.org/2000/svg" width="300" height="300" viewBox="0 0 300 300">
<path d="M 124.5 121.5 L 124.0 121.0 L 123.5 120.0 L 123.5 120.0 L 123.5 119.5 L 126.0 119.5 L 130.0 119.5 L 135.5 120.0 L 142.0 120.5 L 147.0 120.5 L 149.0 119.5 L 149.5 119.5 L 148.0 120.0 " stroke="black" fill="none" stroke-width="6.0" stroke-linecap="round" stroke-linejoin="round" />
<path d="M 120.5 134.5 L 120.5 134.5 L 120.0 134.5 L 119.5 134.5 L 120.0 134.5 L 123.5 134.0 L 129.5 134.0 L 139.0 135.0 L 151.0 136.0 L 162.5 136.0 L 171.0 135.5 L 175.5 135.0 L 176.5 135.0 L 176.0 135.0 L 175.5 135.0 L 174.0 134.5 L 173.5 134.0 " stroke="black" fill="none" stroke-width="6.0" stroke-linecap="round" stroke-linejoin="round" />
<path d="M 159.0 114.5 L 159.0 114.0 L 159.0 113.5 L 158.5 113.0 L 158.5 113.0 L 158.5 113.0 L 158.5 115.5 L 158.5 121.5 L 159.0 132.0 L 160.0 146.0 L 161.5 160.0 L 164.5 170.5 L 168.0 178.0 L 172.0 186.0 L 175.5 191.0 L 177.5 192.0 L 179.5 192.5 L 181.0 192.0 L 182.0 191.0 L 182.5 189.5 L 183.0 187.0 L 183.0 184.0 L 183.0 180.5 L 182.5 178.0 " stroke="black" fill="none" stroke-width="6.0" stroke-linecap="round" stroke-linejoin="round" />
<path d="M 143.0 151.5 L 143.0 151.0 L 142.5 150.5 L 142.5 150.0 L 142.5 149.5 L 142.5 149.5 L 142.5 150.5 L 142.5 155.5 L 143.0 162.0 L 143.0 169.0 L 143.0 171.5 L 143.0 172.0 L 143.0 171.5 " stroke="black" fill="none" stroke-width="6.0" stroke-linecap="round" stroke-linejoin="round" />
<path d="M 145.0 163.0 L 145.0 163.0 L 144.0 163.0 L 144.0 163.0 L 145.5 163.0 L 147.5 163.0 L 149.5 162.5 L 149.5 162.5 " stroke="black" fill="none" stroke-width="6.0" stroke-linecap="round" stroke-linejoin="round" />
<path d="M 129.0 159.5 L 129.0 159.0 L 129.0 159.0 L 129.0 158.5 L 129.0 158.5 L 129.0 160.0 L 129.5 165.5 L 129.5 174.5 L 130.0 182.5 L 130.0 185.5 L 130.0 185.0 L 130.0 185.0 " stroke="black" fill="none" stroke-width="6.0" stroke-linecap="round" stroke-linejoin="round" />
<path d="M 118.5 189.0 L 117.5 189.0 L 117.5 189.0 L 119.0 189.0 L 124.0 188.0 L 132.0 186.0 L 141.0 183.0 L 148.5 179.5 L 153.0 178.5 L 154.0 178.5 " stroke="black" fill="none" stroke-width="6.0" stroke-linecap="round" stroke-linejoin="round" />
<path d="M 173.5 118.0 L 173.5 118.0 L 173.0 117.5 L 173.0 117.5 L 173.0 117.5 L 174.0 119.0 L 175.5 120.5 L 176.5 122.5 L 177.0 123.0 " stroke="black" fill="none" stroke-width="6.0" stroke-linecap="round" stroke-linejoin="round" />
</svg>