<svg xmlns="http://www.w3.org/2000/svg" width="300" height="300" viewBox="0 0 300 300">
<path d="M 130.0 95.0 L 130.0 95.0 L 130.5 95.0 L 130.5 95.0 L 130.5 95.0 L 130.5 95.0 L 133.0 94.5 L 139.5 94.0 L 151.0 93.0 L 164.0 92.0 L 173.5 91.5 L 181.0 91.5 L 185.0 91.0 L 186.0 91.0 L 186.0 91.0 L 184.5 91.0 L 182.5 91.0 L 180.5 91.5 " stroke="black" fill="none" stroke-width="6.0" stroke-linecap="round" stroke-linejoin="round" />
<path d="M 128.5 107.0 L 129.0 106.5 L 130.0 106.5 L 130.0 106.0 L 130.5 106.0 L 130.5 106.0 L 130.0 108.0 L 128.5 112.0 L 126.5 117.0 L 125.0 120.5 L 124.5 122.0 L 125.0 119.0 " stroke="black" fill="none" stroke-width="6.0" stroke-linecap="round" stroke-linejoin="round" />
<path d="M 130.0 107.5 L 131.0 107.5 L 131.5 107.5 L 132.0 107.5 L 134.0 107.5 L 137.5 107.0 L 144.5 106.5 L 154.0 105.5 L 163.5 104.5 L 169.5 104.0 L 175.0 103.5 L 179.0 103.0 L 182.0 103.0 L 183.5 104.0 L 183.5 104.0 L 184.0 104.5 L 184.0 104.5 L 184.0 104.5 L 184.0 104.5 L 184.0 104.5 L 184.0 104.5 L 184.0 104.5 L 184.5 105.0 L 184.5 105.0 L 184.5 106.0 L 183.0 108.5 L 181.0 112.5 L 179.0 116.0 L 178.5 119.0 L 178.5 120.0 " stroke="black" fill="none" stroke-width="6.0" stroke-linecap="round" stroke-linejoin="round" />
<path d="M 152.5 97.5 L 153.0 97.0 L 153.0 96.5 L 153.5 96.0 L 153.5 97.0 L 153.0 101.5 L 151.0 109.0 L 148.0 119.0 L 146.0 126.0 L 146.0 127.5 L 146.5 126.5 " stroke="black" fill="none" stroke-width="6.0" stroke-linecap="round" stroke-linejoin="round" />
<path d="M 137.5 117.0 L 137.0 117.0 L 136.5 116.5 L 136.5 116.5 L 136.5 116.5 L 136.5 116.5 L 136.5 116.5 L 137.5 117.5 L 138.0 119.0 " stroke="black" fill="none" stroke-width="6.0" stroke-linecap="round" stroke-linejoin="round" />
<path d="M 131.5 125.5 L 131.5 125.5 L 131.5 125.5 L 131.5 126.0 L 132.0 126.0 L 133.5 126.0 L 135.5 125.0 L 138.0 124.0 " stroke="black" fill="none" stroke-width="6.0" stroke-linecap="round" stroke-linejoin="round" />
<path d="M 159.5 113.5 L 159.5 114.0 L 159.0 114.5 L 158.5 114.5 L 158.5 114.5 L 158.5 114.5 L 158.5 115.0 L 158.5 116.0 L 158.5 117.5 " stroke="black" fill="none" stroke-width="6.0" stroke-linecap="round" stroke-linejoin="round" />
<path d="M 153.0 122.5 L 152.5 123.0 L 152.0 123.0 L 152.0 123.0 L 153.5 123.5 L 156.5 124.0 L 159.0 125.0 L 161.5 125.5 L 163.0 126.5 " stroke="black" fill="none" stroke-width="6.0" stroke-linecap="round" stroke-linejoin="round" />
<path d="M 122.0 143.0 L 122.0 143.0 L 121.5 142.5 L 121.5 142.5 L 121.5 142.0 L 123.5 142.0 L 128.5 142.0 L 135.0 142.0 L 140.5 141.5 L 143.5 141.5 L 144.0 140.5 L 144.0 140.5 " stroke="black" fill="none" stroke-width="6.0" stroke-linecap="round" stroke-linejoin="round" />
<path d="M 133.0 134.5 L 133.0 134.5 L 133.0 134.0 L 133.0 133.5 L 133.0 133.5 L 133.0 133.5 L 133.5 136.0 L 133.5 143.5 L 132.5 155.0 L 131.0 166.0 L 131.0 172.5 L 131.0 173.5 L 131.0 172.0 L 131.0 170.5 " stroke="black" fill="none" stroke-width="6.0" stroke-linecap="round" stroke-linejoin="round" />
<path d="M 129.0 145.0 L 130.0 144.5 L 130.5 144.0 L 130.5 144.0 L 130.5 144.0 L 129.5 146.0 L 126.5 151.0 L 122.5 158.5 L 118.5 164.5 L 117.5 166.5 L 119.0 163.5 " stroke="black" fill="none" stroke-width="6.0" stroke-linecap="round" stroke-linejoin="round" />
<path d="M 132.0 148.0 L 133.0 149.0 L 134.0 150.5 L 136.0 152.0 L 139.0 154.0 L 142.0 155.5 L 144.0 156.0 " stroke="black" fill="none" stroke-width="6.0" stroke-linecap="round" stroke-linejoin="round" />
<path d="M 154.5 137.0 L 154.0 137.0 L 154.0 137.0 L 153.5 137.5 L 153.5 139.5 L 153.5 146.0 L 153.0 157.5 L 152.0 170.0 L 152.0 176.5 L 152.0 176.5 L 152.0 171.5 " stroke="black" fill="none" stroke-width="6.0" stroke-linecap="round" stroke-linejoin="round" />
<path d="M 155.0 136.5 L 155.0 137.0 L 154.5 137.5 L 154.5 138.0 L 154.5 138.0 L 157.0 138.0 L 160.5 137.0 L 164.5 136.0 L 169.5 135.5 L 173.5 135.0 L 175.5 135.5 L 176.0 136.5 L 175.5 139.0 L 174.5 143.5 L 173.5 150.5 L 172.5 159.5 L 172.5 167.0 L 172.5 172.0 L 172.5 174.5 L 172.5 174.5 L 172.5 173.5 " stroke="black" fill="none" stroke-width="6.0" stroke-linecap="round" stroke-linejoin="round" />
<path d="M 157.0 148.5 L 156.0 149.0 L 154.5 150.0 L 154.0 150.0 L 155.0 150.0 L 158.0 150.0 L 161.0 149.5 L 164.0 149.5 L 166.5 149.0 L 169.0 148.5 L 170.5 148.5 L 170.5 148.5 " stroke="black" fill="none" stroke-width="6.0" stroke-linecap="round" stroke-linejoin="round" />
<path d="M 159.5 162.5 L 158.5 162.5 L 158.0 162.5 L 158.0 162.5 L 159.0 162.5 L 161.5 162.0 L 164.0 161.5 L 166.5 161.5 L 168.5 161.5 L 168.5 162.0 " stroke="black" fill="none" stroke-width="6.0" stroke-linecap="round" stroke-linejoin="round" />
<path d="M 155.0 177.5 L 155.0 178.0 L 154.5 178.5 L 154.5 178.5 L 154.5 178.5 L 156.5 178.5 L 159.5 177.5 L 163.5 177.0 L 167.5 176.0 L 171.0 175.5 L 174.5 174.5 " stroke="black" fill="none" stroke-width="6.0" stroke-linecap="round" stroke-linejoin="round" />
</svg>