<svg xmlns="http://www.w3.org/2000/svg" width="300" height="300" viewBox="0 0 300 300">
<path d="M 131.0 116.5 L 132.0 116.5 L 132.5 116.0 L 133.0 116.0 L 134.0 117.5 L 135.0 126.5 L 135.5 142.0 L 134.0 157.5 L 133.5 166.0 L 134.0 168.0 L 133.5 166.5 " stroke="black" fill="none" stroke-width="6.0" stroke-linecap="round" stroke-linejoin="round" />
<path d="M 128.5 130.5 L 128.5 131.0 L 128.5 131.0 L 129.0 131.0 L 133.5 131.0 L 140.0 130.5 L 145.5 130.5 L 149.0 130.5 L 149.5 130.5 " stroke="black" fill="none" stroke-width="6.0" stroke-linecap="round" stroke-linejoin="round" />
<path d="M 150.5 114.5 L 150.0 115.0 L 150.0 115.5 L 149.5 115.5 L 149.5 116.5 L 150.0 120.5 L 150.0 129.5 L 150.5 141.5 L 151.0 153.0 L 151.0 161.0 L 151.0 164.0 L 150.5 164.5 L 150.0 163.5 " stroke="black" fill="none" stroke-width="6.0" stroke-linecap="round" stroke-linejoin="round" />
<path d="M 138.0 145.5 L 138.0 145.5 L 137.0 146.0 L 136.5 146.0 L 136.5 146.0 L 139.0 146.0 L 142.5 145.5 L 146.5 145.5 L 149.0 145.0 " stroke="black" fill="none" stroke-width="6.0" stroke-linecap="round" stroke-linejoin="round" />
<path d="M 138.5 154.0 L 137.0 156.0 L 137.0 156.5 L 137.0 156.5 L 139.0 156.5 L 142.0 156.0 L 145.0 156.0 L 147.5 156.0 L 148.5 156.0 " stroke="black" fill="none" stroke-width="6.0" stroke-linecap="round" stroke-linejoin="round" />
<path d="M 129.0 174.0 L 128.5 174.0 L 127.5 174.0 L 127.0 174.0 L 127.0 174.0 L 128.0 173.5 L 132.5 173.0 L 140.0 172.0 L 149.0 170.5 L 154.0 169.5 L 156.0 169.0 " stroke="black" fill="none" stroke-width="6.0" stroke-linecap="round" stroke-linejoin="round" />
<path d="M 141.0 183.5 L 141.0 183.5 L 141.0 183.5 L 140.5 183.5 L 140.0 183.5 L 138.0 185.5 L 134.5 190.0 L 131.0 195.0 L 130.0 196.5 L 130.0 196.5 " stroke="black" fill="none" stroke-width="6.0" stroke-linecap="round" stroke-linejoin="round" />
<path d="M 148.5 184.5 L 149.0 185.0 L 149.5 185.5 L 150.5 186.5 L 152.0 187.5 L 153.5 188.5 " stroke="black" fill="none" stroke-width="6.0" stroke-linecap="round" stroke-linejoin="round" />
<path d="M 162.0 122.0 L 162.0 121.0 L 162.0 120.5 L 162.0 119.5 L 162.0 119.5 L 163.0 124.0 L 163.5 134.5 L 164.0 153.0 L 164.0 169.0 L 164.0 175.0 L 164.0 174.0 L 164.0 172.5 " stroke="black" fill="none" stroke-width="6.0" stroke-linecap="round" stroke-linejoin="round" />
<path d="M 166.5 122.0 L 166.0 121.5 L 165.5 121.0 L 166.5 120.0 L 169.0 119.5 L 171.5 118.5 L 173.5 118.5 L 175.0 118.0 L 176.0 118.0 L 177.0 118.0 L 177.5 118.0 L 177.5 118.5 L 177.5 119.0 L 177.5 120.5 L 178.0 122.5 L 178.5 125.5 L 179.5 129.0 L 180.0 134.0 L 181.5 141.5 L 183.0 151.0 L 184.5 161.5 L 185.5 170.0 L 185.5 175.5 L 184.5 179.0 L 183.5 179.0 L 181.5 178.5 L 179.0 175.5 L 178.5 174.5 " stroke="black" fill="none" stroke-width="6.0" stroke-linecap="round" stroke-linejoin="round" />
<path d="M 168.0 137.0 L 167.0 137.5 L 166.0 138.0 L 166.0 138.0 L 168.0 138.0 L 171.5 138.0 L 175.0 137.5 L 178.0 137.5 L 179.5 137.5 " stroke="black" fill="none" stroke-width="6.0" stroke-linecap="round" stroke-linejoin="round" />
<path d="M 171.5 155.0 L 171.0 155.5 L 169.5 157.0 L 169.5 157.0 L 171.5 157.0 L 174.5 156.5 L 178.0 156.5 L 181.0 156.0 L 182.5 156.0 " stroke="black" fill="none" stroke-width="6.0" stroke-linecap="round" stroke-linejoin="round" />
</svg>