<svg xmlns="http://www.w3.org/2000/svg" width="300" height="300" viewBox="0 0 300 300">
<path d="M 126.5 112.5 L 126.5 112.5 L 127.0 112.5 L 127.0 112.5 L 127.5 112.5 L 127.5 112.5 L 128.0 113.0 L 128.0 115.5 L 128.0 123.0 L 128.0 136.5 L 128.5 148.0 L 128.5 154.5 L 129.0 157.5 L 129.0 158.0 L 129.0 155.5 " stroke="black" fill="none" stroke-width="6.0" stroke-linecap="round" stroke-linejoin="round" />
<path d="M 119.5 126.5 L 119.5 127.0 L 119.5 127.5 L 119.5 128.0 L 122.0 128.0 L 127.0 127.0 L 133.5 125.5 L 138.5 125.0 L 143.0 124.5 L 144.5 124.5 L 145.0 124.5 L 145.0 124.5 L 145.0 124.5 " stroke="black" fill="none" stroke-width="6.0" stroke-linecap="round" stroke-linejoin="round" />
<path d="M 141.0 112.0 L 141.0 112.0 L 141.0 112.0 L 141.0 112.0 L 141.0 112.5 L 141.0 113.0 L 141.5 114.0 L 142.0 117.0 L 142.0 124.0 L 143.0 135.0 L 143.5 145.5 L 144.0 152.0 L 144.5 157.5 L 144.5 160.5 L 145.0 161.0 L 145.0 161.0 L 145.0 160.5 L 145.0 159.5 " stroke="black" fill="none" stroke-width="6.0" stroke-linecap="round" stroke-linejoin="round" />
<path d="M 130.5 141.5 L 130.0 141.5 L 129.5 141.5 L 129.5 141.5 L 129.5 141.0 L 131.0 140.0 L 134.0 139.0 L 137.5 138.0 L 141.5 137.5 L 144.0 137.0 L 145.5 137.0 L 146.0 137.5 L 146.0 137.5 " stroke="black" fill="none" stroke-width="6.0" stroke-linecap="round" stroke-linejoin="round" />
<path d="M 128.5 152.5 L 129.0 152.5 L 129.5 153.0 L 130.0 153.0 L 131.5 153.0 L 134.5 153.0 L 138.0 152.0 L 141.5 151.0 L 143.5 150.5 L 145.0 150.5 L 145.0 150.0 " stroke="black" fill="none" stroke-width="6.0" stroke-linecap="round" stroke-linejoin="round" />
<path d="M 114.5 168.0 L 115.5 168.0 L 117.0 168.0 L 118.5 168.0 L 122.5 167.5 L 128.0 166.5 L 135.5 165.0 L 143.0 164.5 L 149.5 164.0 L 153.0 164.0 L 154.0 164.0 L 154.0 164.0 L 153.5 164.0 " stroke="black" fill="none" stroke-width="6.0" stroke-linecap="round" stroke-linejoin="round" />
<path d="M 132.5 176.0 L 132.5 176.0 L 132.5 176.0 L 133.0 176.5 L 133.0 176.5 L 133.0 176.5 L 132.5 177.5 L 130.5 179.5 L 127.0 183.5 L 124.0 187.0 L 123.0 188.5 L 123.5 188.5 " stroke="black" fill="none" stroke-width="6.0" stroke-linecap="round" stroke-linejoin="round" />
<path d="M 138.5 173.0 L 140.0 174.0 L 141.0 175.0 L 143.0 176.0 L 145.0 178.5 L 147.5 181.0 L 150.0 183.0 L 152.5 184.0 L 153.5 184.0 " stroke="black" fill="none" stroke-width="6.0" stroke-linecap="round" stroke-linejoin="round" />
<path d="M 156.0 116.0 L 156.0 116.0 L 156.5 116.0 L 156.5 116.5 L 157.0 117.0 L 157.5 121.0 L 158.0 132.0 L 159.5 150.0 L 161.0 165.5 L 161.5 172.5 L 162.0 176.0 L 162.5 177.0 L 162.5 176.0 L 162.0 172.0 " stroke="black" fill="none" stroke-width="6.0" stroke-linecap="round" stroke-linejoin="round" />
<path d="M 157.5 116.5 L 157.5 116.5 L 157.5 116.0 L 157.5 116.0 L 158.0 116.0 L 159.5 115.5 L 162.0 115.0 L 165.0 114.0 L 168.5 113.0 L 171.5 112.0 L 174.5 111.5 L 175.5 111.5 L 175.5 111.5 L 175.5 112.0 L 175.5 113.5 L 175.5 115.5 L 175.5 119.0 L 175.5 124.0 L 175.5 131.0 L 176.5 140.0 L 177.5 149.0 L 178.5 157.0 L 179.0 164.0 L 179.5 169.0 L 180.0 173.0 L 180.0 176.0 L 180.0 178.0 L 180.0 180.5 L 180.0 182.0 L 179.5 183.0 L 179.0 183.0 L 177.5 182.5 L 176.0 179.0 L 175.5 178.0 " stroke="black" fill="none" stroke-width="6.0" stroke-linecap="round" stroke-linejoin="round" />
<path d="M 159.5 134.0 L 159.5 134.5 L 159.5 136.0 L 159.5 136.0 L 162.0 136.0 L 165.5 135.5 L 168.5 134.5 L 171.5 134.0 L 173.0 134.0 L 173.5 133.5 " stroke="black" fill="none" stroke-width="6.0" stroke-linecap="round" stroke-linejoin="round" />
<path d="M 163.5 156.5 L 163.5 157.5 L 164.0 158.0 L 166.0 158.5 L 169.0 157.5 L 172.5 156.5 L 175.0 156.0 L 176.5 155.5 " stroke="black" fill="none" stroke-width="6.0" stroke-linecap="round" stroke-linejoin="round" />
</svg>