<svg xmlns="http://www.w3.org/2000/svg" width="300" height="300" viewBox="0 0 300 300">
<path d="M 149.5 114.5 L 149.5 114.0 L 149.5 112.5 L 149.5 111.0 L 149.5 110.0 L 150.0 109.5 L 150.0 110.5 L 150.5 115.5 L 151.0 123.5 L 151.5 133.5 L 151.5 144.5 L 151.5 153.0 L 151.5 160.0 L 151.0 167.0 L 151.0 172.5 L 150.5 177.5 L 150.5 180.5 L 150.5 182.0 L 150.5 182.5 L 150.5 182.5 L 150.0 182.5 L 150.0 182.5 L 149.0 182.5 L 148.0 182.5 L 147.0 182.5 L 144.5 182.0 L 142.0 181.0 L 139.5 180.0 L 137.5 179.5 L 137.0 179.0 " stroke="black" fill="none" stroke-width="6.0" stroke-linecap="round" stroke-linejoin="round" />
<path d="M 127.0 138.0 L 126.0 139.0 L 125.5 139.5 L 125.0 139.5 L 125.5 139.5 L 127.0 139.5 L 130.0 139.5 L 133.0 139.5 L 136.0 139.5 L 138.5 139.5 L 140.5 140.0 L 141.5 140.0 L 142.0 140.5 L 142.0 141.0 L 141.5 142.0 L 141.0 143.0 L 140.5 144.5 L 140.0 146.5 L 139.0 149.0 L 137.5 152.5 L 135.0 157.0 L 131.5 163.0 L 128.5 167.5 L 127.0 169.5 L 127.0 169.5 L 127.5 167.5 " stroke="black" fill="none" stroke-width="6.0" stroke-linecap="round" stroke-linejoin="round" />
<path d="M 172.5 128.0 L 172.5 127.5 L 172.0 127.0 L 172.0 126.5 L 171.5 127.0 L 171.0 129.5 L 170.5 133.5 L 170.0 137.0 L 170.0 138.0 " stroke="black" fill="none" stroke-width="6.0" stroke-linecap="round" stroke-linejoin="round" />
<path d="M 159.5 133.0 L 158.5 133.0 L 158.0 133.0 L 157.5 132.5 L 157.5 133.0 L 159.5 137.5 L 163.0 145.0 L 167.5 153.0 L 172.5 159.0 L 177.0 161.0 L 180.0 162.0 L 182.0 162.0 " stroke="black" fill="none" stroke-width="6.0" stroke-linecap="round" stroke-linejoin="round" />
</svg>