<svg xmlns="http://www.w3.org/2000/svg" width="300" height="300" viewBox="0 0 300 300">
<path d="M 147.0 113.5 L 147.0 113.5 L 146.5 114.0 L 146.5 114.0 L 146.5 114.0 L 146.0 115.0 L 143.5 118.0 L 137.5 125.5 L 129.0 135.0 L 125.0 140.5 L 125.0 141.0 L 125.5 140.0 " stroke="black" fill="none" stroke-width="6.0" stroke-linecap="round" stroke-linejoin="round" />
<path d="M 149.0 117.0 L 149.0 117.5 L 149.0 118.5 L 150.0 120.0 L 152.5 121.5 L 158.5 125.5 L 166.5 130.5 L 172.0 134.5 L 176.0 135.5 L 178.0 135.5 L 178.0 135.0 " stroke="black" fill="none" stroke-width="6.0" stroke-linecap="round" stroke-linejoin="round" />
<path d="M 136.5 142.5 L 137.0 142.0 L 137.5 142.0 L 139.5 142.0 L 146.0 142.0 L 153.5 142.0 L 158.5 141.5 L 161.5 141.5 L 162.5 141.5 L 162.5 142.0 " stroke="black" fill="none" stroke-width="6.0" stroke-linecap="round" stroke-linejoin="round" />
<path d="M 136.0 156.5 L 136.5 156.5 L 137.0 157.5 L 137.0 159.5 L 137.5 163.0 L 138.5 168.0 L 139.0 171.5 L 139.5 172.5 " stroke="black" fill="none" stroke-width="6.0" stroke-linecap="round" stroke-linejoin="round" />
<path d="M 137.0 159.5 L 137.0 159.0 L 137.0 158.0 L 137.0 157.5 L 138.5 157.0 L 142.0 157.0 L 147.5 156.5 L 154.5 156.5 L 162.0 156.0 L 169.5 155.5 L 174.0 155.0 L 174.5 155.5 L 174.5 157.0 L 173.5 159.5 L 172.0 164.0 L 170.0 168.5 L 168.5 172.0 L 168.0 173.5 L 167.5 173.5 " stroke="black" fill="none" stroke-width="6.0" stroke-linecap="round" stroke-linejoin="round" />
<path d="M 143.0 180.0 L 142.0 180.0 L 141.5 180.0 L 145.0 180.0 L 153.0 178.5 L 161.5 177.0 L 168.0 176.5 L 171.0 176.0 " stroke="black" fill="none" stroke-width="6.0" stroke-linecap="round" stroke-linejoin="round" />
</svg>