<svg xmlns="http://www.w3.org/2000/svg" width="300" height="300" viewBox="0 0 300 300">
<path d="M 147.0 119.5 L 147.0 119.0 L 146.5 118.5 L 146.5 118.0 L 146.5 119.5 L 146.5 123.5 L 144.5 130.0 L 139.0 140.0 L 132.5 149.0 L 128.5 153.0 L 127.0 153.5 L 126.5 151.0 " stroke="black" fill="none" stroke-width="6.0" stroke-linecap="round" stroke-linejoin="round" />
<path d="M 150.5 118.0 L 150.5 117.0 L 150.0 116.5 L 149.5 116.0 L 149.5 116.0 L 149.5 116.0 L 152.0 118.5 L 155.5 122.5 L 160.5 127.5 L 167.5 133.5 L 174.0 138.5 L 179.0 141.5 L 182.5 144.0 L 185.5 145.0 L 186.0 145.5 " stroke="black" fill="none" stroke-width="6.0" stroke-linecap="round" stroke-linejoin="round" />
<path d="M 145.5 148.5 L 145.0 148.5 L 144.5 148.0 L 144.5 148.0 L 147.5 148.0 L 152.5 147.5 L 158.5 147.0 L 163.0 146.5 L 165.5 146.5 L 166.0 146.5 " stroke="black" fill="none" stroke-width="6.0" stroke-linecap="round" stroke-linejoin="round" />
<path d="M 143.0 166.5 L 143.0 166.0 L 143.0 165.0 L 143.0 164.5 L 143.0 164.5 L 143.0 165.0 L 143.0 168.5 L 144.0 173.0 L 145.0 177.0 L 145.5 179.5 L 146.0 179.0 " stroke="black" fill="none" stroke-width="6.0" stroke-linecap="round" stroke-linejoin="round" />
<path d="M 143.5 162.5 L 142.5 162.5 L 141.5 162.5 L 141.5 162.5 L 143.5 162.5 L 146.5 162.0 L 150.5 162.0 L 154.5 162.0 L 159.0 161.5 L 164.5 161.0 L 168.0 160.0 L 170.5 159.5 L 171.0 159.5 L 171.5 160.0 L 172.0 160.0 L 172.5 160.5 L 173.0 160.5 L 173.5 160.5 L 173.5 160.5 L 173.5 160.5 L 173.5 160.5 L 173.5 160.5 L 173.5 160.5 L 173.5 160.5 L 173.0 161.0 L 172.5 162.5 L 172.0 165.0 L 171.5 169.5 L 171.5 174.0 L 171.5 177.5 L 171.5 179.0 L 171.5 179.0 L 171.5 177.5 " stroke="black" fill="none" stroke-width="6.0" stroke-linecap="round" stroke-linejoin="round" />
<path d="M 150.5 181.0 L 150.0 181.0 L 149.5 181.5 L 149.5 181.5 L 152.0 181.5 L 157.0 181.0 L 163.0 180.0 L 168.5 178.0 L 169.5 177.5 " stroke="black" fill="none" stroke-width="6.0" stroke-linecap="round" stroke-linejoin="round" />
</svg>