<svg xmlns="http://www.w3.org/2000/svg" width="300" height="300" viewBox="0 0 300 300">
<path d="M 122.0 131.5 L 122.0 131.5 L 122.0 132.0 L 122.5 132.0 L 127.0 132.0 L 135.0 131.5 L 142.5 130.5 L 147.5 130.0 L 149.5 130.0 L 150.0 130.0 " stroke="black" fill="none" stroke-width="6.0" stroke-linecap="round" stroke-linejoin="round" />
<path d="M 136.0 113.0 L 136.0 112.5 L 136.0 112.0 L 136.0 114.5 L 136.0 123.0 L 136.0 137.5 L 136.0 153.0 L 136.0 163.5 L 136.0 171.0 L 135.5 176.0 L 135.5 177.5 L 135.0 177.5 " stroke="black" fill="none" stroke-width="6.0" stroke-linecap="round" stroke-linejoin="round" />
<path d="M 133.5 134.5 L 133.5 134.5 L 134.0 134.0 L 134.5 134.0 L 134.5 135.5 L 132.0 142.5 L 126.5 153.0 L 121.5 160.5 L 121.0 161.0 L 121.0 158.5 " stroke="black" fill="none" stroke-width="6.0" stroke-linecap="round" stroke-linejoin="round" />
<path d="M 133.5 144.0 L 133.5 144.0 L 135.5 144.0 L 137.5 145.0 L 140.5 147.5 L 144.5 150.5 L 146.5 152.5 " stroke="black" fill="none" stroke-width="6.0" stroke-linecap="round" stroke-linejoin="round" />
<path d="M 159.5 124.0 L 159.5 124.0 L 158.5 125.0 L 158.0 125.0 L 161.0 125.5 L 166.0 126.0 L 170.0 126.0 L 173.5 126.0 L 175.0 126.0 " stroke="black" fill="none" stroke-width="6.0" stroke-linecap="round" stroke-linejoin="round" />
<path d="M 169.5 111.0 L 169.0 111.5 L 169.0 112.0 L 168.5 113.0 L 168.5 118.0 L 168.5 126.0 L 168.5 132.0 L 168.5 134.0 " stroke="black" fill="none" stroke-width="6.0" stroke-linecap="round" stroke-linejoin="round" />
<path d="M 156.5 140.5 L 156.5 140.5 L 156.5 140.5 L 156.5 140.5 L 160.0 140.5 L 165.0 140.5 L 171.0 140.5 L 175.5 140.5 L 178.0 140.5 L 178.5 140.5 L 179.0 140.5 L 179.0 140.5 L 178.0 142.0 L 177.0 145.0 L 174.5 149.5 L 171.0 156.0 L 166.5 164.0 L 163.5 170.0 L 162.0 173.0 L 161.5 174.0 L 161.0 174.0 L 160.5 174.0 " stroke="black" fill="none" stroke-width="6.0" stroke-linecap="round" stroke-linejoin="round" />
<path d="M 160.0 150.5 L 159.5 150.5 L 158.5 150.5 L 158.5 150.5 L 161.0 152.5 L 168.0 157.5 L 175.5 163.0 L 183.0 168.5 L 188.5 172.0 L 191.5 173.5 L 192.0 174.0 " stroke="black" fill="none" stroke-width="6.0" stroke-linecap="round" stroke-linejoin="round" />
</svg>