<svg xmlns="http://www.w3.org/2000/svg" width="300" height="300" viewBox="0 0 300 300">
<path d="M 132.0 119.0 L 132.0 119.0 L 132.0 119.0 L 132.0 118.5 L 132.0 118.5 L 132.5 118.0 L 134.0 117.5 L 136.5 117.0 L 139.0 116.5 L 140.5 116.0 L 142.0 116.0 L 142.0 115.5 " stroke="black" fill="none" stroke-width="6.0" stroke-linecap="round" stroke-linejoin="round" />
<path d="M 130.0 107.5 L 130.0 107.5 L 130.0 107.0 L 130.0 107.0 L 129.5 107.0 L 129.5 107.5 L 129.0 110.5 L 128.5 116.0 L 127.5 122.5 L 127.5 128.5 L 127.5 131.5 L 127.5 133.5 L 128.5 134.0 L 129.5 134.0 L 132.0 133.5 L 134.5 132.5 L 137.0 131.5 L 140.0 130.5 L 142.0 130.0 L 143.5 129.5 L 144.5 129.0 L 145.0 129.0 " stroke="black" fill="none" stroke-width="6.0" stroke-linecap="round" stroke-linejoin="round" />
<path d="M 129.0 143.5 L 129.0 143.5 L 129.0 143.0 L 129.5 143.0 L 129.5 143.0 L 129.5 144.0 L 128.5 145.5 L 127.5 148.0 L 126.5 151.0 L 125.0 153.5 L 124.5 155.0 L 124.5 155.0 " stroke="black" fill="none" stroke-width="6.0" stroke-linecap="round" stroke-linejoin="round" />
<path d="M 127.0 150.5 L 127.0 150.5 L 127.0 150.5 L 127.0 150.0 L 129.5 149.0 L 133.0 147.5 L 137.0 146.5 L 140.0 146.0 L 142.5 145.0 L 143.5 144.5 " stroke="black" fill="none" stroke-width="6.0" stroke-linecap="round" stroke-linejoin="round" />
<path d="M 126.0 167.0 L 125.5 167.0 L 124.5 167.0 L 124.5 167.0 L 125.5 166.0 L 129.0 165.0 L 133.0 163.5 L 137.0 162.5 L 141.0 161.5 L 143.5 160.0 L 144.0 159.5 " stroke="black" fill="none" stroke-width="6.0" stroke-linecap="round" stroke-linejoin="round" />
<path d="M 137.0 150.5 L 137.0 150.5 L 137.0 150.5 L 137.0 151.0 L 137.0 151.0 L 137.0 152.0 L 136.5 154.0 L 135.0 160.5 L 132.5 171.0 L 129.5 180.5 L 127.5 186.5 L 127.0 188.5 L 127.0 188.5 L 127.0 187.5 " stroke="black" fill="none" stroke-width="6.0" stroke-linecap="round" stroke-linejoin="round" />
<path d="M 136.0 171.0 L 136.0 171.0 L 137.0 171.5 L 138.0 172.5 L 140.5 175.5 L 143.5 180.0 L 146.5 183.0 L 148.0 185.0 L 149.0 185.0 " stroke="black" fill="none" stroke-width="6.0" stroke-linecap="round" stroke-linejoin="round" />
<path d="M 154.0 110.0 L 154.0 110.5 L 153.5 111.0 L 153.5 111.0 L 153.5 111.0 L 153.5 111.0 L 155.0 111.0 L 157.5 111.0 L 160.5 111.0 L 163.5 110.5 L 166.0 110.5 L 167.5 110.5 L 168.0 110.5 L 168.5 110.5 L 168.5 110.5 L 168.5 110.5 L 168.5 110.5 L 168.5 110.5 L 168.5 110.5 L 168.5 111.0 L 168.5 111.5 L 168.0 112.5 L 167.0 114.0 L 166.0 117.0 L 165.0 120.0 L 164.0 123.0 L 164.0 125.0 L 164.0 125.0 " stroke="black" fill="none" stroke-width="6.0" stroke-linecap="round" stroke-linejoin="round" />
<path d="M 156.5 124.0 L 156.5 124.0 L 157.0 124.0 L 157.0 124.0 L 157.5 124.0 L 158.5 124.0 L 161.0 125.0 L 164.0 126.5 L 167.5 128.0 L 170.0 129.0 L 170.5 130.0 " stroke="black" fill="none" stroke-width="6.0" stroke-linecap="round" stroke-linejoin="round" />
<path d="M 156.5 141.5 L 156.5 141.5 L 157.0 141.0 L 157.0 141.0 L 157.5 140.5 L 158.5 140.5 L 161.0 140.5 L 164.5 140.5 L 169.0 140.5 L 173.5 140.5 L 177.0 140.5 L 179.0 140.0 L 180.5 140.0 L 181.0 139.5 L 181.0 139.0 L 181.0 139.0 L 181.0 139.0 L 181.0 139.0 L 181.0 139.0 L 181.0 139.0 L 181.0 139.5 L 181.0 140.0 L 181.0 141.0 L 180.5 143.0 L 179.5 145.5 L 178.5 148.5 L 178.0 150.5 L 178.0 152.0 L 178.0 152.5 L 178.0 152.5 " stroke="black" fill="none" stroke-width="6.0" stroke-linecap="round" stroke-linejoin="round" />
<path d="M 167.5 146.0 L 167.5 146.0 L 167.5 146.0 L 167.0 146.0 L 167.0 146.0 L 167.0 147.5 L 167.0 150.0 L 166.5 154.0 L 166.0 159.5 L 165.0 164.0 L 165.0 167.0 L 165.0 168.0 L 166.0 168.5 L 166.5 168.5 " stroke="black" fill="none" stroke-width="6.0" stroke-linecap="round" stroke-linejoin="round" />
<path d="M 166.5 161.0 L 166.5 161.0 L 165.5 161.0 L 165.0 161.0 L 166.0 161.0 L 167.5 161.5 L 169.5 161.5 L 171.5 161.5 L 173.0 161.5 L 173.5 161.5 " stroke="black" fill="none" stroke-width="6.0" stroke-linecap="round" stroke-linejoin="round" />
<path d="M 156.5 152.0 L 157.0 152.0 L 157.5 152.0 L 157.5 152.0 L 157.5 153.0 L 157.0 156.5 L 155.5 162.5 L 153.0 168.5 L 151.0 172.0 L 150.5 173.5 L 150.5 173.0 L 150.5 172.0 " stroke="black" fill="none" stroke-width="6.0" stroke-linecap="round" stroke-linejoin="round" />
<path d="M 154.5 166.5 L 155.5 167.0 L 156.0 167.5 L 157.5 168.5 L 159.0 170.0 L 161.5 172.0 L 165.0 173.5 L 169.5 174.5 L 174.0 175.5 L 178.5 176.5 L 182.5 176.5 L 186.0 176.5 L 188.0 176.0 L 188.5 175.5 " stroke="black" fill="none" stroke-width="6.0" stroke-linecap="round" stroke-linejoin="round" />
</svg>