<svg xmlns="http://www.w3.org/2000/svg" width="300" height="300" viewBox="0 0 300 300">
<path d="M 147.5 100.5 L 147.5 100.0 L 147.5 99.5 L 147.5 99.0 L 147.5 99.0 L 147.5 101.5 L 144.0 106.5 L 136.0 115.5 L 126.0 125.0 L 119.5 129.0 L 118.0 129.5 L 118.0 128.5 L 119.0 126.0 " stroke="black" fill="none" stroke-width="6.0" stroke-linecap="round" stroke-linejoin="round" />
<path d="M 148.0 104.5 L 146.5 104.5 L 146.5 104.0 L 147.0 104.5 L 150.0 105.5 L 154.5 109.0 L 160.5 113.5 L 168.0 119.5 L 175.0 124.0 L 179.5 125.5 L 181.5 125.5 L 181.5 126.0 " stroke="black" fill="none" stroke-width="6.0" stroke-linecap="round" stroke-linejoin="round" />
<path d="M 136.0 127.5 L 135.5 127.5 L 135.5 127.5 L 135.5 127.5 L 138.5 127.5 L 145.0 126.5 L 152.5 125.5 L 158.0 125.0 L 160.5 125.0 L 161.0 126.5 L 161.0 127.0 " stroke="black" fill="none" stroke-width="6.0" stroke-linecap="round" stroke-linejoin="round" />
<path d="M 129.0 140.5 L 127.5 139.0 L 127.0 139.0 L 127.5 139.5 L 129.0 142.5 L 130.0 147.0 L 131.5 151.0 L 133.0 153.5 L 133.0 154.0 " stroke="black" fill="none" stroke-width="6.0" stroke-linecap="round" stroke-linejoin="round" />
<path d="M 129.5 140.0 L 128.5 140.0 L 128.0 140.0 L 129.0 140.0 L 133.5 140.0 L 140.5 140.0 L 150.5 139.5 L 160.0 138.0 L 167.0 137.5 L 171.0 137.5 L 172.0 137.5 L 172.0 138.0 L 172.0 138.0 L 172.0 139.0 L 171.5 141.0 L 171.0 144.5 L 170.0 148.5 L 169.0 152.5 L 168.5 155.5 L 168.0 157.0 " stroke="black" fill="none" stroke-width="6.0" stroke-linecap="round" stroke-linejoin="round" />
<path d="M 150.0 140.5 L 150.0 140.5 L 149.5 140.5 L 149.5 141.0 L 149.5 144.5 L 150.5 148.5 L 151.0 152.0 L 151.5 154.0 " stroke="black" fill="none" stroke-width="6.0" stroke-linecap="round" stroke-linejoin="round" />
<path d="M 137.5 146.0 L 137.5 146.0 L 137.5 146.5 L 138.0 147.0 L 139.5 148.0 L 141.5 149.0 " stroke="black" fill="none" stroke-width="6.0" stroke-linecap="round" stroke-linejoin="round" />
<path d="M 161.0 140.5 L 161.0 139.5 L 160.5 139.5 L 160.5 140.5 L 159.5 143.5 L 158.5 147.5 L 157.5 149.5 " stroke="black" fill="none" stroke-width="6.0" stroke-linecap="round" stroke-linejoin="round" />
<path d="M 132.0 158.5 L 131.5 158.0 L 131.0 158.0 L 131.5 158.0 L 135.5 159.0 L 143.0 160.0 L 153.0 160.0 L 161.5 158.5 L 166.5 158.0 L 167.5 158.0 " stroke="black" fill="none" stroke-width="6.0" stroke-linecap="round" stroke-linejoin="round" />
<path d="M 133.5 169.5 L 133.5 169.0 L 133.5 168.0 L 133.0 169.0 L 133.5 175.5 L 134.5 183.5 L 135.5 190.5 L 136.5 194.5 L 137.0 194.5 " stroke="black" fill="none" stroke-width="6.0" stroke-linecap="round" stroke-linejoin="round" />
<path d="M 136.0 171.5 L 134.5 171.5 L 133.0 171.5 L 133.0 171.5 L 136.5 172.0 L 142.5 172.0 L 149.0 171.5 L 157.0 170.0 L 163.0 168.5 L 165.5 168.5 L 166.5 168.5 L 167.0 168.5 L 167.5 169.0 L 168.0 169.5 L 168.5 170.5 L 168.5 172.5 L 168.5 175.5 L 167.5 180.5 L 167.0 185.5 L 167.0 190.5 L 167.0 194.0 L 167.0 195.5 L 167.0 195.5 " stroke="black" fill="none" stroke-width="6.0" stroke-linecap="round" stroke-linejoin="round" />
<path d="M 143.5 184.5 L 143.5 184.5 L 142.5 184.5 L 142.0 184.0 L 144.0 183.0 L 147.5 182.5 L 152.0 182.5 L 155.5 182.0 L 159.0 182.0 L 159.5 181.5 " stroke="black" fill="none" stroke-width="6.0" stroke-linecap="round" stroke-linejoin="round" />
<path d="M 134.0 199.0 L 134.0 199.5 L 133.5 199.5 L 133.5 200.0 L 136.5 199.5 L 143.5 198.0 L 151.5 196.5 L 158.0 196.0 L 162.0 196.5 L 163.0 196.5 " stroke="black" fill="none" stroke-width="6.0" stroke-linecap="round" stroke-linejoin="round" />
</svg>