<svg xmlns="http://www.w3.org/2000/svg" width="300" height="300" viewBox="0 0 300 300">
<path d="M 130.0 127.5 L 130.0 128.0 L 129.5 128.0 L 129.5 128.5 L 129.5 129.5 L 129.5 133.5 L 129.5 142.5 L 129.5 152.5 L 128.5 160.5 L 128.5 163.0 L 129.0 162.5 L 129.0 159.5 " stroke="black" fill="none" stroke-width="6.0" stroke-linecap="round" stroke-linejoin="round" />
<path d="M 129.0 128.5 L 128.0 128.5 L 126.5 129.0 L 126.5 129.0 L 127.0 129.0 L 129.0 129.0 L 132.5 128.5 L 135.5 128.0 L 139.0 127.0 L 142.0 126.5 L 144.0 126.5 L 145.0 126.5 L 145.5 128.0 L 145.5 132.0 L 145.5 139.0 L 145.0 148.0 L 145.0 155.5 L 145.0 159.5 L 145.0 160.5 L 145.0 160.0 L 145.0 157.5 " stroke="black" fill="none" stroke-width="6.0" stroke-linecap="round" stroke-linejoin="round" />
<path d="M 136.0 148.5 L 135.0 149.0 L 134.0 149.0 L 133.5 149.0 L 134.0 148.5 L 136.0 148.0 L 138.5 147.5 L 141.5 147.5 L 143.5 147.0 L 144.0 147.0 " stroke="black" fill="none" stroke-width="6.0" stroke-linecap="round" stroke-linejoin="round" />
<path d="M 133.0 164.0 L 133.0 164.0 L 133.5 164.0 L 133.5 163.5 L 135.0 163.0 L 137.5 162.5 L 140.5 162.5 L 143.0 162.0 " stroke="black" fill="none" stroke-width="6.0" stroke-linecap="round" stroke-linejoin="round" />
<path d="M 161.5 109.5 L 161.5 109.5 L 162.5 109.5 L 163.0 109.0 L 163.5 109.0 L 163.5 109.5 L 163.5 112.5 L 161.5 118.0 L 159.5 123.0 L 158.5 125.5 L 158.5 125.5 " stroke="black" fill="none" stroke-width="6.0" stroke-linecap="round" stroke-linejoin="round" />
<path d="M 164.0 118.5 L 162.5 118.5 L 162.0 118.5 L 161.5 118.5 L 162.5 118.5 L 164.5 118.0 L 167.0 117.5 L 170.0 116.5 L 173.0 116.0 L 175.0 116.0 L 176.5 116.0 L 177.0 116.0 L 177.5 116.5 L 177.5 118.0 L 177.0 120.5 L 175.5 124.0 L 175.0 127.0 L 174.5 128.0 " stroke="black" fill="none" stroke-width="6.0" stroke-linecap="round" stroke-linejoin="round" />
<path d="M 158.5 133.5 L 158.5 133.5 L 159.0 133.5 L 159.0 133.5 L 159.5 133.5 L 159.5 135.5 L 160.0 139.0 L 160.5 142.5 L 161.0 144.5 " stroke="black" fill="none" stroke-width="6.0" stroke-linecap="round" stroke-linejoin="round" />
<path d="M 160.5 133.5 L 160.5 134.0 L 160.0 134.0 L 160.0 134.0 L 161.5 133.5 L 165.5 132.5 L 170.5 131.5 L 176.0 131.0 L 181.0 130.0 L 184.0 130.0 L 185.5 130.0 L 186.5 130.0 L 186.5 130.0 L 187.0 130.0 L 187.5 130.5 L 187.5 131.0 L 187.5 132.0 L 187.5 133.5 L 187.5 136.0 L 187.0 138.5 L 186.5 141.0 L 186.5 142.0 L 186.5 142.5 " stroke="black" fill="none" stroke-width="6.0" stroke-linecap="round" stroke-linejoin="round" />
<path d="M 172.0 134.5 L 172.0 134.5 L 172.0 135.0 L 172.0 135.5 L 172.0 137.0 L 172.0 139.5 L 172.0 142.0 L 172.5 144.5 " stroke="black" fill="none" stroke-width="6.0" stroke-linecap="round" stroke-linejoin="round" />
<path d="M 161.5 148.0 L 161.5 148.0 L 161.0 148.5 L 161.0 148.5 L 162.0 149.0 L 165.5 149.0 L 171.5 147.5 L 177.5 146.5 L 182.0 146.5 " stroke="black" fill="none" stroke-width="6.0" stroke-linecap="round" stroke-linejoin="round" />
<path d="M 172.5 134.5 L 172.5 134.5 L 172.5 135.0 L 172.5 135.5 L 172.5 136.5 L 172.5 139.0 L 172.5 144.0 L 172.0 151.0 L 170.0 160.0 L 167.5 168.5 L 164.0 174.0 L 161.5 175.5 L 160.5 176.0 L 160.0 176.0 L 160.0 176.5 L 160.0 177.0 " stroke="black" fill="none" stroke-width="6.0" stroke-linecap="round" stroke-linejoin="round" />
<path d="M 176.0 150.0 L 176.0 150.0 L 176.5 150.0 L 176.5 149.5 L 177.0 149.0 L 177.0 149.0 L 177.0 149.0 L 177.0 151.5 L 176.5 156.5 L 176.0 164.5 L 176.0 171.0 L 177.0 174.5 L 179.0 176.5 L 182.0 177.0 L 185.5 177.0 L 189.5 176.5 L 193.0 175.0 L 195.0 174.0 L 196.0 173.0 L 196.0 172.5 L 196.0 172.5 L 196.0 172.0 L 195.5 171.5 L 195.5 171.0 L 195.5 170.5 L 195.5 170.0 L 195.5 169.5 " stroke="black" fill="none" stroke-width="6.0" stroke-linecap="round" stroke-linejoin="round" />
</svg>