<svg xmlns="http://www.w3.org/2000/svg" width="300" height="300" viewBox="0 0 300 300">
<path d="M 121.5 122.5 L 121.5 122.5 L 121.0 122.5 L 120.5 122.5 L 120.5 122.5 L 123.0 121.5 L 128.0 119.5 L 133.5 117.0 L 138.5 114.5 L 141.5 112.5 L 142.5 112.0 L 142.5 112.0 L 142.5 112.0 L 142.5 112.0 L 142.5 112.0 " stroke="black" fill="none" stroke-width="6.0" stroke-linecap="round" stroke-linejoin="round" />
<path d="M 122.5 135.0 L 122.5 135.0 L 122.0 135.5 L 122.0 135.5 L 124.5 135.5 L 129.5 134.5 L 136.0 133.0 L 140.5 131.5 L 143.0 131.0 L 143.5 131.0 L 143.5 130.5 " stroke="black" fill="none" stroke-width="6.0" stroke-linecap="round" stroke-linejoin="round" />
<path d="M 134.0 120.5 L 134.0 119.5 L 134.0 119.0 L 134.0 118.5 L 134.0 120.0 L 134.0 125.0 L 134.0 136.5 L 134.0 153.5 L 134.0 166.0 L 134.0 174.0 L 134.5 178.0 L 135.0 180.5 L 135.0 181.5 L 135.5 182.0 L 135.0 181.0 L 134.0 178.0 " stroke="black" fill="none" stroke-width="6.0" stroke-linecap="round" stroke-linejoin="round" />
<path d="M 131.0 141.5 L 131.0 141.0 L 131.5 141.0 L 132.0 140.5 L 132.0 140.5 L 132.0 141.0 L 130.0 145.0 L 126.0 153.0 L 121.0 162.5 L 118.0 168.5 L 117.0 169.0 L 117.5 167.5 " stroke="black" fill="none" stroke-width="6.0" stroke-linecap="round" stroke-linejoin="round" />
<path d="M 135.0 142.5 L 135.5 142.5 L 136.0 143.0 L 138.0 145.0 L 141.0 148.0 L 144.0 150.0 L 144.5 150.5 " stroke="black" fill="none" stroke-width="6.0" stroke-linecap="round" stroke-linejoin="round" />
<path d="M 157.0 116.5 L 158.0 116.0 L 158.5 115.5 L 158.5 115.5 L 158.5 116.0 L 156.5 119.5 L 154.5 124.5 L 152.0 128.5 L 150.5 130.5 L 150.5 130.5 " stroke="black" fill="none" stroke-width="6.0" stroke-linecap="round" stroke-linejoin="round" />
<path d="M 158.0 121.5 L 158.0 121.5 L 158.0 121.5 L 158.0 121.5 L 158.5 121.5 L 161.0 121.0 L 164.0 120.5 L 166.5 120.5 L 169.0 120.5 L 170.5 120.5 L 171.5 121.0 L 172.0 122.0 L 172.0 123.5 L 171.5 126.0 L 170.0 130.0 L 167.0 136.5 L 163.5 144.0 L 159.5 151.0 L 156.5 155.0 L 155.0 156.0 L 154.0 156.0 L 153.5 155.5 " stroke="black" fill="none" stroke-width="6.0" stroke-linecap="round" stroke-linejoin="round" />
<path d="M 158.0 131.5 L 158.0 132.5 L 158.0 133.5 L 158.0 133.5 L 158.0 133.5 L 159.5 134.0 L 161.5 134.5 L 163.0 135.0 L 163.5 135.5 " stroke="black" fill="none" stroke-width="6.0" stroke-linecap="round" stroke-linejoin="round" />
<path d="M 153.0 144.0 L 153.0 143.5 L 153.0 143.5 L 153.0 143.0 L 154.5 143.0 L 157.5 142.5 L 160.5 142.0 L 163.5 142.0 " stroke="black" fill="none" stroke-width="6.0" stroke-linecap="round" stroke-linejoin="round" />
<path d="M 171.0 147.0 L 172.0 145.5 L 173.0 144.5 L 173.0 144.0 L 173.0 144.0 L 173.0 144.5 L 171.0 147.0 L 167.5 152.0 L 163.0 158.0 L 159.0 163.0 L 157.0 165.0 L 156.5 165.5 " stroke="black" fill="none" stroke-width="6.0" stroke-linecap="round" stroke-linejoin="round" />
<path d="M 171.5 150.5 L 172.5 150.5 L 174.0 150.5 L 175.5 150.0 L 177.0 150.0 L 178.5 150.0 L 180.0 151.0 L 181.0 152.5 L 181.0 155.0 L 180.5 159.0 L 178.5 165.0 L 174.5 172.0 L 170.0 178.5 L 165.5 183.5 L 162.0 186.0 L 160.0 187.0 L 159.0 187.0 L 158.5 186.0 " stroke="black" fill="none" stroke-width="6.0" stroke-linecap="round" stroke-linejoin="round" />
<path d="M 168.5 163.0 L 168.0 163.0 L 167.5 163.0 L 167.5 163.0 L 168.0 163.0 L 170.5 164.0 L 172.5 164.5 L 173.5 165.5 " stroke="black" fill="none" stroke-width="6.0" stroke-linecap="round" stroke-linejoin="round" />
<path d="M 163.5 173.0 L 163.0 173.5 L 162.5 174.0 L 162.5 174.5 L 163.5 174.5 L 166.0 174.0 L 169.0 173.0 L 170.5 172.0 " stroke="black" fill="none" stroke-width="6.0" stroke-linecap="round" stroke-linejoin="round" />
</svg>