<svg xmlns="http://www.w3.org/2000/svg" width="300" height="300" viewBox="0 0 300 300">
<path d="M 134.5 118.0 L 134.5 117.0 L 134.0 115.5 L 133.5 115.0 L 133.5 115.0 L 133.5 115.5 L 134.0 118.0 L 134.5 123.5 L 135.5 130.5 L 136.0 137.0 L 137.0 139.5 L 137.0 137.0 " stroke="black" fill="none" stroke-width="7.0" stroke-linecap="round" stroke-linejoin="round" />
<path d="M 136.0 117.0 L 134.5 117.0 L 133.0 117.0 L 132.5 117.0 L 135.0 117.0 L 140.0 116.5 L 147.5 115.5 L 155.5 115.0 L 163.0 115.0 L 167.5 115.0 L 168.0 115.0 L 168.0 115.5 L 168.0 115.5 L 168.0 116.0 L 168.5 116.5 L 168.5 117.5 L 169.0 119.5 L 168.5 123.0 L 167.5 129.0 L 166.0 136.0 L 164.5 142.0 L 164.0 145.5 L 164.0 145.5 L 164.0 145.5 " stroke="black" fill="none" stroke-width="7.0" stroke-linecap="round" stroke-linejoin="round" />
<path d="M 141.5 131.5 L 140.5 131.5 L 139.5 132.0 L 139.5 132.0 L 142.5 132.0 L 147.0 131.5 L 152.0 131.0 L 156.5 130.5 L 159.5 129.5 L 160.5 129.5 " stroke="black" fill="none" stroke-width="7.0" stroke-linecap="round" stroke-linejoin="round" />
<path d="M 140.5 144.0 L 140.0 144.0 L 139.5 144.0 L 139.0 144.5 L 141.0 144.5 L 146.5 144.5 L 154.0 143.5 L 161.5 142.0 L 165.0 141.0 " stroke="black" fill="none" stroke-width="7.0" stroke-linecap="round" stroke-linejoin="round" />
<path d="M 128.0 157.0 L 127.0 158.0 L 126.5 158.0 L 127.5 158.0 L 131.0 157.0 L 137.0 155.5 L 148.0 154.5 L 159.5 154.0 L 170.0 154.0 L 176.0 154.0 L 177.5 154.0 L 177.5 154.0 L 176.5 154.0 L 175.5 153.5 " stroke="black" fill="none" stroke-width="7.0" stroke-linecap="round" stroke-linejoin="round" />
<path d="M 157.0 161.5 L 158.0 160.5 L 158.0 160.5 L 158.0 161.0 L 158.0 164.5 L 158.0 170.5 L 158.0 176.0 L 157.5 179.0 L 157.5 179.0 " stroke="black" fill="none" stroke-width="7.0" stroke-linecap="round" stroke-linejoin="round" />
<path d="M 156.5 172.0 L 157.0 172.0 L 157.5 172.5 L 158.5 172.5 L 162.0 171.5 L 166.0 170.0 L 170.0 169.0 L 172.0 168.5 L 172.0 168.5 " stroke="black" fill="none" stroke-width="7.0" stroke-linecap="round" stroke-linejoin="round" />
<path d="M 142.0 168.5 L 141.5 168.5 L 140.5 168.0 L 139.5 168.5 L 138.5 171.0 L 135.5 177.5 L 131.0 186.0 L 127.0 190.5 L 125.5 191.5 L 125.5 190.5 " stroke="black" fill="none" stroke-width="7.0" stroke-linecap="round" stroke-linejoin="round" />
<path d="M 137.5 184.5 L 137.5 184.5 L 137.0 184.5 L 137.0 184.5 L 140.0 184.5 L 148.0 184.5 L 161.0 185.0 L 175.0 186.0 L 185.0 187.0 L 191.0 187.5 L 192.5 187.5 " stroke="black" fill="none" stroke-width="7.0" stroke-linecap="round" stroke-linejoin="round" />
</svg>