<svg xmlns="http://www.w3.org/2000/svg" width="300" height="300" viewBox="0 0 300 300">
<path d="M 148.0 121.5 L 149.0 121.5 L 149.5 121.5 L 149.5 121.5 L 150.0 124.5 L 150.5 133.5 L 150.5 147.5 L 149.5 158.5 L 148.5 162.5 L 148.5 163.0 L 148.5 163.0 L 148.0 162.5 " stroke="black" fill="none" stroke-width="6.0" stroke-linecap="round" stroke-linejoin="round" />
<path d="M 138.0 133.5 L 138.5 134.0 L 138.5 134.5 L 138.5 134.5 L 138.5 135.5 L 137.0 138.5 L 134.5 143.5 L 132.0 148.0 L 130.0 150.5 L 129.5 151.0 " stroke="black" fill="none" stroke-width="6.0" stroke-linecap="round" stroke-linejoin="round" />
<path d="M 164.0 133.0 L 164.0 134.5 L 164.0 135.0 L 166.0 136.5 L 168.5 139.5 L 171.0 141.5 L 173.0 143.0 L 174.0 143.5 L 174.0 143.5 " stroke="black" fill="none" stroke-width="6.0" stroke-linecap="round" stroke-linejoin="round" />
<path d="M 164.0 154.5 L 164.0 154.5 L 164.0 155.0 L 164.0 155.5 L 164.0 156.0 L 164.0 157.0 L 162.5 160.0 L 156.0 168.5 L 144.5 179.5 L 134.5 186.0 L 128.5 189.0 L 127.0 189.5 L 128.0 187.5 " stroke="black" fill="none" stroke-width="6.0" stroke-linecap="round" stroke-linejoin="round" />
</svg>