<svg xmlns="http://www.w3.org/2000/svg" width="300" height="300" viewBox="0 0 300 300">
<path d="M 138.5 118.5 L 138.5 118.5 L 138.5 118.0 L 139.0 117.5 L 139.0 117.0 L 139.0 116.5 L 139.0 116.5 L 139.0 116.5 L 138.5 118.0 L 136.0 122.0 L 131.0 128.5 L 126.5 134.5 L 124.0 138.0 L 123.5 139.0 L 123.5 139.0 " stroke="black" fill="none" stroke-width="6.0" stroke-linecap="round" stroke-linejoin="round" />
<path d="M 138.5 131.0 L 138.5 131.5 L 139.0 132.0 L 139.0 132.0 L 139.0 132.0 L 138.5 133.5 L 137.0 136.5 L 134.0 141.5 L 130.5 147.5 L 128.0 151.0 L 128.0 151.5 L 128.5 151.0 L 129.0 150.0 " stroke="black" fill="none" stroke-width="6.0" stroke-linecap="round" stroke-linejoin="round" />
<path d="M 132.5 144.0 L 132.5 144.0 L 133.0 144.0 L 133.5 144.0 L 133.5 145.0 L 134.0 148.0 L 134.0 156.0 L 134.0 169.5 L 133.0 181.5 L 132.5 188.5 L 132.5 190.0 L 133.0 188.0 L 133.0 187.0 " stroke="black" fill="none" stroke-width="6.0" stroke-linecap="round" stroke-linejoin="round" />
<path d="M 150.0 124.0 L 148.5 124.0 L 148.0 124.0 L 148.0 124.0 L 148.5 124.0 L 150.5 124.0 L 153.0 123.5 L 156.5 123.0 L 160.5 122.0 L 165.5 121.5 L 169.5 121.0 L 171.5 121.0 L 172.5 121.0 L 172.5 121.5 L 172.5 122.0 L 172.5 122.5 L 172.5 124.0 L 172.5 126.5 L 172.5 130.0 L 172.5 134.0 L 172.5 137.0 L 173.0 138.5 L 173.0 138.5 " stroke="black" fill="none" stroke-width="6.0" stroke-linecap="round" stroke-linejoin="round" />
<path d="M 149.0 128.0 L 149.0 128.0 L 149.0 128.0 L 149.0 128.0 L 149.0 128.0 L 149.5 129.5 L 150.0 135.5 L 150.5 147.5 L 149.5 162.0 L 148.5 173.0 L 148.0 180.5 L 147.5 185.0 L 147.5 186.5 L 147.5 186.0 L 147.5 184.0 " stroke="black" fill="none" stroke-width="6.0" stroke-linecap="round" stroke-linejoin="round" />
<path d="M 160.5 116.0 L 160.5 116.0 L 160.5 116.5 L 160.5 117.0 L 160.5 117.5 L 160.5 120.0 L 160.5 125.5 L 160.5 133.5 L 160.5 140.5 L 160.0 144.5 L 160.0 145.5 L 160.5 145.0 " stroke="black" fill="none" stroke-width="6.0" stroke-linecap="round" stroke-linejoin="round" />
<path d="M 157.0 148.5 L 157.0 148.5 L 156.5 148.5 L 156.5 149.0 L 156.5 149.0 L 158.0 148.5 L 161.0 147.5 L 164.5 146.5 L 168.0 146.0 L 170.5 145.5 L 171.5 145.5 L 171.5 146.0 L 171.5 147.5 L 170.0 150.5 L 168.5 156.0 L 165.5 164.0 L 162.0 173.5 L 158.0 181.5 L 155.5 186.0 L 155.0 188.0 L 155.0 189.0 L 155.0 189.0 L 155.0 188.5 " stroke="black" fill="none" stroke-width="6.0" stroke-linecap="round" stroke-linejoin="round" />
<path d="M 156.0 154.5 L 156.5 154.5 L 157.0 154.5 L 157.0 154.0 L 157.5 153.5 L 157.5 153.5 L 158.0 153.0 L 158.0 153.0 L 158.0 153.0 L 159.0 155.5 L 160.5 160.0 L 163.0 166.5 L 166.0 173.0 L 169.0 178.0 L 171.5 181.0 L 173.5 182.5 L 176.0 184.5 L 178.0 185.5 L 179.5 186.5 L 180.0 186.5 L 180.0 186.0 " stroke="black" fill="none" stroke-width="6.0" stroke-linecap="round" stroke-linejoin="round" />
</svg>