<svg xmlns="http://www.w3.org/2000/svg" width="300" height="300" viewBox="0 0 300 300">
<path d="M 138.5 124.0 L 138.5 123.5 L 138.5 123.0 L 138.5 123.0 L 140.0 123.5 L 143.5 125.0 L 147.5 126.5 L 150.0 128.0 L 153.0 128.5 " stroke="black" fill="none" stroke-width="6.0" stroke-linecap="round" stroke-linejoin="round" />
<path d="M 173.0 118.5 L 173.0 118.5 L 173.0 118.0 L 172.5 118.0 L 172.0 118.5 L 171.5 120.5 L 170.0 122.5 L 169.0 124.5 L 169.0 125.0 " stroke="black" fill="none" stroke-width="6.0" stroke-linecap="round" stroke-linejoin="round" />
<path d="M 146.5 134.5 L 146.0 134.5 L 144.5 134.5 L 144.0 135.0 L 144.0 135.0 L 147.0 135.0 L 153.0 134.5 L 161.5 133.0 L 169.5 130.5 L 173.5 129.5 L 174.5 129.5 " stroke="black" fill="none" stroke-width="6.0" stroke-linecap="round" stroke-linejoin="round" />
<path d="M 159.5 137.5 L 160.0 137.0 L 160.5 136.5 L 160.5 136.0 L 160.5 136.5 L 159.5 138.5 L 158.5 141.0 L 157.5 143.5 L 157.5 144.5 " stroke="black" fill="none" stroke-width="6.0" stroke-linecap="round" stroke-linejoin="round" />
<path d="M 148.5 148.0 L 148.0 148.5 L 147.5 149.0 L 147.0 149.5 L 146.5 153.0 L 147.0 159.0 L 148.5 165.5 L 149.5 170.0 L 150.0 170.5 " stroke="black" fill="none" stroke-width="6.0" stroke-linecap="round" stroke-linejoin="round" />
<path d="M 149.5 149.5 L 149.5 149.5 L 149.0 149.5 L 149.0 149.0 L 152.5 148.5 L 159.0 147.5 L 167.0 146.5 L 173.0 146.0 L 175.5 146.0 L 176.0 146.0 L 176.5 146.0 L 176.5 147.0 L 177.0 148.0 L 177.5 150.5 L 177.5 154.5 L 177.0 160.0 L 176.0 166.0 L 176.0 169.5 L 176.0 171.0 L 176.0 171.0 " stroke="black" fill="none" stroke-width="6.0" stroke-linecap="round" stroke-linejoin="round" />
<path d="M 156.0 160.5 L 155.5 160.0 L 155.0 159.5 L 155.5 159.0 L 158.0 158.0 L 162.5 157.0 L 167.0 157.0 L 170.5 157.0 L 172.5 157.0 " stroke="black" fill="none" stroke-width="6.0" stroke-linecap="round" stroke-linejoin="round" />
<path d="M 157.0 167.0 L 157.0 167.0 L 157.0 167.0 L 157.0 166.5 L 158.0 166.5 L 161.0 166.5 L 166.5 166.0 L 169.0 166.0 " stroke="black" fill="none" stroke-width="6.0" stroke-linecap="round" stroke-linejoin="round" />
<path d="M 155.0 178.5 L 155.0 179.0 L 155.0 179.0 L 156.0 179.0 L 160.0 177.5 L 167.0 175.5 L 173.0 173.5 " stroke="black" fill="none" stroke-width="6.0" stroke-linecap="round" stroke-linejoin="round" />
<path d="M 124.0 135.0 L 124.0 136.5 L 124.0 137.5 L 125.5 139.0 L 128.5 140.0 L 131.5 142.5 L 134.0 145.0 L 134.5 146.0 " stroke="black" fill="none" stroke-width="6.0" stroke-linecap="round" stroke-linejoin="round" />
<path d="M 127.0 149.0 L 127.0 149.0 L 126.0 150.0 L 126.0 150.5 L 129.5 151.0 L 133.0 152.5 L 135.0 154.5 L 135.0 158.5 L 131.5 163.5 L 128.5 166.5 L 128.0 168.0 L 129.5 168.5 L 132.5 169.0 L 134.0 170.5 L 134.0 174.0 L 130.0 179.5 L 124.0 184.5 L 119.0 186.0 L 117.5 186.0 L 118.0 185.5 L 119.5 184.5 L 122.0 184.5 L 126.0 184.0 L 134.0 183.0 L 148.0 181.5 L 164.0 181.5 L 176.5 182.5 L 185.0 184.0 L 189.5 185.0 L 191.5 185.5 " stroke="black" fill="none" stroke-width="6.0" stroke-linecap="round" stroke-linejoin="round" />
</svg>