<svg xmlns="http://www.w3.org/2000/svg" width="300" height="300" viewBox="0 0 300 300">
<path d="M 134.5 116.5 L 135.5 115.5 L 136.0 115.0 L 136.5 114.5 L 136.5 114.5 L 137.0 116.0 L 137.5 119.0 L 138.0 123.0 L 138.0 127.0 L 138.0 129.5 L 137.5 130.0 " stroke="black" fill="none" stroke-width="6.0" stroke-linecap="round" stroke-linejoin="round" />
<path d="M 124.0 125.5 L 123.5 125.5 L 122.5 125.5 L 122.0 125.5 L 123.0 125.5 L 127.0 125.0 L 132.5 125.0 L 137.0 124.5 L 139.5 124.5 L 140.5 124.5 " stroke="black" fill="none" stroke-width="6.0" stroke-linecap="round" stroke-linejoin="round" />
<path d="M 154.5 121.5 L 155.0 121.5 L 155.0 121.0 L 155.5 121.0 L 157.5 121.0 L 160.5 121.0 L 165.0 121.0 L 168.5 120.5 L 171.0 119.5 L 171.5 119.0 " stroke="black" fill="none" stroke-width="6.0" stroke-linecap="round" stroke-linejoin="round" />
<path d="M 163.0 111.5 L 163.0 112.0 L 162.5 112.5 L 162.5 113.5 L 162.5 115.5 L 163.5 120.0 L 164.0 126.0 L 164.5 130.0 L 165.0 132.0 " stroke="black" fill="none" stroke-width="6.0" stroke-linecap="round" stroke-linejoin="round" />
<path d="M 125.0 149.5 L 124.5 149.5 L 124.0 149.5 L 123.5 149.5 L 126.0 149.5 L 132.0 148.5 L 141.0 147.5 L 152.0 146.0 L 161.0 146.0 L 166.0 145.5 L 167.5 145.5 L 167.5 146.0 L 167.0 146.0 L 167.0 146.0 L 166.5 146.0 L 166.5 146.0 L 166.0 145.5 L 166.0 145.5 " stroke="black" fill="none" stroke-width="6.0" stroke-linecap="round" stroke-linejoin="round" />
<path d="M 141.0 137.5 L 141.0 137.5 L 141.5 137.5 L 141.5 137.0 L 141.5 137.0 L 142.0 137.0 L 141.0 140.0 L 138.0 147.5 L 132.0 157.5 L 126.0 164.0 L 124.0 166.0 L 124.0 165.5 L 126.0 164.0 " stroke="black" fill="none" stroke-width="6.0" stroke-linecap="round" stroke-linejoin="round" />
<path d="M 137.0 160.0 L 137.5 159.5 L 138.0 159.0 L 138.0 158.5 L 138.5 160.5 L 139.0 165.0 L 139.5 171.5 L 140.0 176.5 L 140.5 178.0 L 140.5 177.5 " stroke="black" fill="none" stroke-width="6.0" stroke-linecap="round" stroke-linejoin="round" />
<path d="M 138.5 159.5 L 138.5 160.5 L 138.0 161.0 L 138.5 161.0 L 140.5 161.0 L 144.0 161.0 L 150.0 159.5 L 158.0 157.5 L 165.0 156.5 L 169.0 156.0 L 169.0 156.0 L 168.0 157.5 L 166.0 160.5 L 166.0 162.5 L 165.5 165.0 L 165.5 169.0 L 165.5 173.5 L 165.5 176.5 L 165.0 177.5 L 165.0 177.5 L 164.5 177.0 " stroke="black" fill="none" stroke-width="6.0" stroke-linecap="round" stroke-linejoin="round" />
<path d="M 137.0 182.5 L 137.5 182.5 L 138.0 183.0 L 138.5 183.0 L 140.5 183.0 L 143.5 182.5 L 149.0 180.5 L 156.0 178.5 L 161.5 177.5 L 164.5 177.5 L 164.5 178.0 L 164.0 178.0 L 162.5 178.0 L 162.0 178.0 " stroke="black" fill="none" stroke-width="6.0" stroke-linecap="round" stroke-linejoin="round" />
</svg>