<svg xmlns="http://www.w3.org/2000/svg" width="300" height="300" viewBox="0 0 300 300">
<path d="M 124.5 123.5 L 123.0 123.5 L 122.5 123.5 L 123.0 123.5 L 127.0 124.0 L 132.5 124.5 L 138.0 124.5 L 142.5 124.5 L 145.0 124.0 L 145.5 124.0 L 145.5 124.0 " stroke="black" fill="none" stroke-width="6.0" stroke-linecap="round" stroke-linejoin="round" />
<path d="M 134.0 114.0 L 134.0 114.0 L 134.0 114.5 L 134.0 115.0 L 134.0 117.0 L 133.5 123.5 L 133.5 132.5 L 133.5 138.5 L 134.5 140.5 " stroke="black" fill="none" stroke-width="6.0" stroke-linecap="round" stroke-linejoin="round" />
<path d="M 157.0 125.5 L 157.0 125.5 L 156.5 125.5 L 156.5 125.5 L 157.0 125.5 L 159.5 125.5 L 164.5 125.5 L 169.5 125.5 L 173.5 125.5 L 174.5 125.5 " stroke="black" fill="none" stroke-width="6.0" stroke-linecap="round" stroke-linejoin="round" />
<path d="M 169.5 112.5 L 168.5 113.0 L 167.5 113.5 L 167.0 114.0 L 167.0 117.0 L 167.0 124.0 L 167.5 133.0 L 168.5 138.5 L 169.0 140.0 L 169.5 139.5 " stroke="black" fill="none" stroke-width="6.0" stroke-linecap="round" stroke-linejoin="round" />
<path d="M 125.5 155.0 L 125.5 155.5 L 124.5 156.5 L 125.0 156.5 L 127.5 156.5 L 133.0 156.0 L 141.5 156.0 L 151.0 156.0 L 159.5 156.0 L 166.5 155.0 L 171.0 154.5 L 172.0 154.5 L 171.5 154.5 L 170.0 154.5 L 169.5 154.5 " stroke="black" fill="none" stroke-width="6.0" stroke-linecap="round" stroke-linejoin="round" />
<path d="M 148.0 141.5 L 148.0 141.5 L 148.0 141.5 L 147.5 141.5 L 146.5 144.5 L 143.0 153.0 L 137.0 167.0 L 132.0 176.0 L 129.0 179.0 L 126.5 180.5 L 125.0 182.5 L 124.0 184.0 " stroke="black" fill="none" stroke-width="6.0" stroke-linecap="round" stroke-linejoin="round" />
<path d="M 139.0 170.0 L 139.0 169.0 L 139.0 168.5 L 138.5 168.0 L 138.5 171.0 L 138.5 178.5 L 139.0 189.0 L 139.0 196.5 L 139.5 198.5 L 140.0 196.5 " stroke="black" fill="none" stroke-width="6.0" stroke-linecap="round" stroke-linejoin="round" />
<path d="M 140.5 172.5 L 140.5 172.5 L 140.0 173.0 L 139.5 173.0 L 140.5 173.0 L 144.0 173.0 L 149.0 172.5 L 155.0 172.0 L 160.5 170.5 L 164.5 170.0 L 167.0 170.0 L 168.5 170.5 L 169.0 171.0 L 169.5 172.0 L 169.5 173.5 L 169.0 176.5 L 168.0 181.0 L 166.5 186.5 L 165.5 190.5 L 164.5 193.5 L 164.5 195.0 L 164.5 195.0 " stroke="black" fill="none" stroke-width="6.0" stroke-linecap="round" stroke-linejoin="round" />
<path d="M 141.0 199.0 L 141.0 199.0 L 140.5 199.5 L 140.5 199.5 L 144.5 199.5 L 150.5 199.5 L 158.5 199.5 L 166.0 198.5 L 167.5 198.0 " stroke="black" fill="none" stroke-width="6.0" stroke-linecap="round" stroke-linejoin="round" />
</svg>