<svg xmlns="http://www.w3.org/2000/svg" width="300" height="300" viewBox="0 0 300 300">
<path d="M 134.0 111.5 L 135.0 110.5 L 135.5 110.0 L 136.0 110.0 L 136.5 114.0 L 136.5 121.0 L 136.0 128.0 L 136.0 133.0 L 135.0 134.0 L 134.5 134.0 " stroke="black" fill="none" stroke-width="6.0" stroke-linecap="round" stroke-linejoin="round" />
<path d="M 125.0 122.0 L 123.5 121.5 L 123.0 121.5 L 124.0 121.0 L 127.5 121.0 L 131.5 121.0 L 135.5 121.0 L 140.0 121.0 L 143.5 120.5 " stroke="black" fill="none" stroke-width="6.0" stroke-linecap="round" stroke-linejoin="round" />
<path d="M 164.5 110.0 L 164.5 109.5 L 164.0 109.5 L 164.0 109.0 L 164.0 111.0 L 164.0 118.0 L 164.0 126.0 L 164.0 131.0 L 164.0 132.0 L 164.0 132.0 " stroke="black" fill="none" stroke-width="6.0" stroke-linecap="round" stroke-linejoin="round" />
<path d="M 150.5 122.5 L 150.5 122.5 L 150.0 122.5 L 151.0 122.5 L 155.0 122.0 L 160.5 121.5 L 167.5 121.0 L 173.0 120.5 L 174.0 120.5 " stroke="black" fill="none" stroke-width="6.0" stroke-linecap="round" stroke-linejoin="round" />
<path d="M 124.0 147.0 L 124.0 147.0 L 123.0 147.0 L 123.5 147.0 L 128.0 147.0 L 137.5 147.5 L 149.5 147.5 L 160.5 147.5 L 169.5 146.5 L 175.0 144.5 L 176.5 143.5 L 175.5 143.5 " stroke="black" fill="none" stroke-width="6.0" stroke-linecap="round" stroke-linejoin="round" />
<path d="M 146.0 141.0 L 146.0 140.5 L 146.0 140.0 L 145.5 140.0 L 144.5 142.5 L 142.0 148.5 L 136.5 158.5 L 129.5 168.0 L 125.0 171.5 L 124.0 172.0 L 125.0 171.0 " stroke="black" fill="none" stroke-width="6.0" stroke-linecap="round" stroke-linejoin="round" />
<path d="M 139.5 164.5 L 139.5 164.0 L 139.0 163.5 L 138.5 163.0 L 138.5 164.5 L 138.5 168.5 L 139.0 174.0 L 140.0 179.0 L 140.5 181.5 L 140.5 181.5 " stroke="black" fill="none" stroke-width="6.0" stroke-linecap="round" stroke-linejoin="round" />
<path d="M 140.0 164.0 L 139.5 164.0 L 138.0 163.5 L 137.5 163.5 L 138.5 163.5 L 141.5 163.5 L 146.5 163.5 L 152.5 163.5 L 159.0 162.5 L 164.5 161.5 L 167.0 161.5 L 167.0 162.0 L 166.0 163.0 L 165.5 164.5 L 165.0 167.0 L 164.0 170.5 L 163.0 174.5 L 162.5 178.5 L 162.5 181.5 L 163.0 182.0 " stroke="black" fill="none" stroke-width="6.0" stroke-linecap="round" stroke-linejoin="round" />
<path d="M 144.5 184.0 L 143.0 184.0 L 142.5 184.0 L 145.0 184.0 L 150.5 184.0 L 157.0 184.0 L 163.5 183.0 L 166.0 182.0 " stroke="black" fill="none" stroke-width="6.0" stroke-linecap="round" stroke-linejoin="round" />
</svg>