<svg xmlns="http://www.w3.org/2000/svg" width="300" height="300" viewBox="0 0 300 300">
<path d="M 125.0 109.5 L 125.0 109.5 L 124.5 110.5 L 124.5 110.5 L 124.5 111.5 L 125.0 113.5 L 125.5 117.0 L 125.5 121.0 L 126.0 124.0 L 126.0 126.0 L 126.0 126.0 " stroke="black" fill="none" stroke-width="6.0" stroke-linecap="round" stroke-linejoin="round" />
<path d="M 115.5 119.0 L 115.5 119.0 L 115.5 119.0 L 115.5 119.0 L 117.0 119.0 L 119.5 119.0 L 122.5 119.5 L 124.0 120.0 " stroke="black" fill="none" stroke-width="6.0" stroke-linecap="round" stroke-linejoin="round" />
<path d="M 139.0 108.0 L 139.0 108.5 L 139.0 109.0 L 139.0 109.5 L 139.0 110.5 L 139.5 114.0 L 139.5 118.5 L 139.5 123.0 L 139.5 125.5 L 139.5 125.5 " stroke="black" fill="none" stroke-width="6.0" stroke-linecap="round" stroke-linejoin="round" />
<path d="M 139.0 119.0 L 139.0 119.0 L 139.0 118.5 L 139.0 118.5 L 139.0 118.0 L 141.5 118.0 L 144.5 117.5 L 147.0 117.5 L 149.5 117.5 " stroke="black" fill="none" stroke-width="6.0" stroke-linecap="round" stroke-linejoin="round" />
<path d="M 118.0 133.5 L 118.0 133.5 L 118.0 133.5 L 118.0 133.5 L 118.0 134.0 L 118.0 136.0 L 119.5 139.5 L 120.0 142.5 L 120.5 143.0 " stroke="black" fill="none" stroke-width="6.0" stroke-linecap="round" stroke-linejoin="round" />
<path d="M 119.5 136.0 L 119.0 136.0 L 118.5 136.5 L 118.0 136.5 L 119.0 135.5 L 121.5 135.0 L 124.5 134.0 L 127.0 134.0 L 128.5 134.0 L 129.5 138.0 L 128.0 141.5 L 126.5 144.5 L 125.5 146.0 L 125.0 146.5 " stroke="black" fill="none" stroke-width="6.0" stroke-linecap="round" stroke-linejoin="round" />
<path d="M 123.5 144.5 L 123.0 144.5 L 122.5 143.5 L 122.5 143.5 L 124.0 143.0 L 126.0 143.0 L 128.0 143.0 L 129.5 143.0 " stroke="black" fill="none" stroke-width="6.0" stroke-linecap="round" stroke-linejoin="round" />
<path d="M 137.5 134.5 L 137.5 134.5 L 137.0 134.5 L 136.5 134.5 L 136.5 135.0 L 137.0 137.5 L 137.5 141.5 L 138.5 144.5 L 138.5 145.0 " stroke="black" fill="none" stroke-width="6.0" stroke-linecap="round" stroke-linejoin="round" />
<path d="M 138.5 136.0 L 138.5 136.0 L 138.5 136.0 L 139.0 135.0 L 140.0 134.5 L 142.0 134.0 L 144.0 134.0 L 146.5 133.5 L 148.5 133.5 L 150.0 133.5 L 150.5 133.5 L 151.0 135.0 L 151.0 137.5 L 150.0 140.5 L 149.5 143.0 L 149.0 144.0 " stroke="black" fill="none" stroke-width="6.0" stroke-linecap="round" stroke-linejoin="round" />
<path d="M 143.0 144.5 L 142.5 144.5 L 142.0 144.5 L 142.0 144.5 L 143.5 144.5 L 145.5 144.5 L 147.5 144.0 L 148.5 144.0 " stroke="black" fill="none" stroke-width="6.0" stroke-linecap="round" stroke-linejoin="round" />
<path d="M 129.0 156.0 L 130.0 156.0 L 131.0 156.0 L 131.5 156.0 L 132.0 156.0 L 132.0 156.0 L 131.0 157.5 L 128.5 161.0 L 125.0 164.5 L 122.5 166.5 L 121.0 167.0 L 121.0 166.0 L 122.0 164.5 " stroke="black" fill="none" stroke-width="6.0" stroke-linecap="round" stroke-linejoin="round" />
<path d="M 127.0 163.0 L 127.5 163.0 L 127.5 163.0 L 128.0 163.0 L 128.5 166.0 L 129.5 173.0 L 130.0 184.5 L 130.0 193.5 L 130.0 197.0 L 130.5 198.0 " stroke="black" fill="none" stroke-width="6.0" stroke-linecap="round" stroke-linejoin="round" />
<path d="M 142.0 157.5 L 142.0 157.0 L 142.0 156.5 L 142.0 156.0 L 142.0 155.5 L 142.0 155.5 L 142.5 156.5 L 144.0 158.5 L 145.0 160.5 L 145.5 162.0 " stroke="black" fill="none" stroke-width="6.0" stroke-linecap="round" stroke-linejoin="round" />
<path d="M 139.0 168.0 L 139.0 168.0 L 138.5 168.0 L 138.5 168.5 L 138.5 168.5 L 139.5 168.5 L 142.0 168.0 L 144.5 167.5 L 146.5 167.0 L 148.0 167.0 " stroke="black" fill="none" stroke-width="6.0" stroke-linecap="round" stroke-linejoin="round" />
<path d="M 141.5 178.5 L 141.5 178.5 L 141.5 179.0 L 141.5 179.5 L 142.0 179.5 L 143.5 179.5 L 145.5 178.5 L 147.5 178.0 L 149.5 178.0 L 150.0 178.0 " stroke="black" fill="none" stroke-width="6.0" stroke-linecap="round" stroke-linejoin="round" />
<path d="M 145.0 188.0 L 144.0 188.0 L 143.5 188.0 L 144.0 188.0 L 145.0 188.0 L 147.0 188.0 L 148.5 187.0 " stroke="black" fill="none" stroke-width="6.0" stroke-linecap="round" stroke-linejoin="round" />
<path d="M 145.5 167.0 L 144.5 167.0 L 144.0 167.0 L 144.0 167.5 L 144.0 170.0 L 144.5 175.5 L 145.0 183.0 L 145.5 189.5 L 145.5 192.5 L 145.5 193.5 " stroke="black" fill="none" stroke-width="6.0" stroke-linecap="round" stroke-linejoin="round" />
<path d="M 141.5 196.5 L 141.5 197.0 L 141.5 197.5 L 141.5 198.0 L 142.5 198.0 L 145.0 197.5 L 148.0 196.5 L 151.0 195.0 L 151.5 194.5 " stroke="black" fill="none" stroke-width="6.0" stroke-linecap="round" stroke-linejoin="round" />
<path d="M 162.5 116.5 L 162.5 116.0 L 163.0 115.5 L 163.0 115.0 L 163.5 115.0 L 163.5 117.5 L 163.5 123.5 L 163.5 130.5 L 162.0 137.5 L 161.0 140.5 L 160.5 141.0 " stroke="black" fill="none" stroke-width="6.0" stroke-linecap="round" stroke-linejoin="round" />
<path d="M 165.0 128.0 L 165.0 129.0 L 165.0 129.5 L 165.0 129.5 L 166.5 129.0 L 169.0 128.0 L 173.0 126.5 L 177.0 125.0 L 180.5 124.0 L 182.5 123.5 L 183.5 123.5 L 183.5 123.5 L 183.5 123.5 L 183.5 123.5 L 183.5 123.5 L 183.5 124.0 L 183.5 125.5 L 183.5 128.0 L 183.5 132.0 L 183.5 136.0 L 183.5 139.0 L 183.0 140.0 " stroke="black" fill="none" stroke-width="6.0" stroke-linecap="round" stroke-linejoin="round" />
<path d="M 170.5 141.5 L 171.0 141.0 L 171.5 140.0 L 172.0 140.0 L 172.5 140.5 L 173.0 144.5 L 173.0 151.5 L 171.5 161.5 L 168.5 172.5 L 165.5 180.5 L 164.0 183.5 L 164.0 183.5 L 163.5 181.0 " stroke="black" fill="none" stroke-width="6.0" stroke-linecap="round" stroke-linejoin="round" />
<path d="M 171.5 168.0 L 172.0 168.5 L 172.5 168.5 L 173.0 169.0 L 175.0 171.0 L 179.0 174.5 L 185.0 179.0 L 191.5 182.0 L 195.0 183.0 " stroke="black" fill="none" stroke-width="6.0" stroke-linecap="round" stroke-linejoin="round" />
</svg>