<svg xmlns="http://www.w3.org/2000/svg" width="300" height="300" viewBox="0 0 300 300">
<path d="M 128.5 112.0 L 128.5 112.5 L 128.5 113.0 L 129.0 113.0 L 130.5 114.0 L 132.0 115.0 L 133.5 115.5 L 133.5 115.5 " stroke="black" fill="none" stroke-width="6.0" stroke-linecap="round" stroke-linejoin="round" />
<path d="M 117.5 124.0 L 117.0 124.5 L 116.0 125.0 L 116.5 125.0 L 120.5 125.0 L 126.5 125.0 L 133.0 124.5 L 137.5 124.0 L 140.5 123.5 L 142.0 123.5 L 142.0 123.0 " stroke="black" fill="none" stroke-width="6.0" stroke-linecap="round" stroke-linejoin="round" />
<path d="M 122.5 134.5 L 121.0 134.5 L 120.5 135.0 L 120.0 135.0 L 121.0 135.0 L 123.5 136.5 L 126.5 138.5 L 128.5 140.0 L 130.0 140.5 " stroke="black" fill="none" stroke-width="6.0" stroke-linecap="round" stroke-linejoin="round" />
<path d="M 136.5 132.5 L 137.5 132.5 L 138.5 132.5 L 138.5 132.5 L 139.0 133.0 L 139.0 134.0 L 138.5 136.0 L 137.0 138.5 " stroke="black" fill="none" stroke-width="6.0" stroke-linecap="round" stroke-linejoin="round" />
<path d="M 114.5 149.5 L 114.5 149.5 L 114.5 149.5 L 115.5 149.5 L 122.0 149.5 L 130.5 148.0 L 137.5 146.5 L 141.0 146.0 L 143.0 145.5 L 143.5 145.5 " stroke="black" fill="none" stroke-width="6.0" stroke-linecap="round" stroke-linejoin="round" />
<path d="M 123.5 157.0 L 123.0 157.0 L 122.5 157.0 L 122.5 159.0 L 123.0 164.0 L 124.5 170.5 L 125.0 177.5 L 125.0 182.5 L 125.5 184.0 L 125.5 184.5 " stroke="black" fill="none" stroke-width="6.0" stroke-linecap="round" stroke-linejoin="round" />
<path d="M 126.5 159.0 L 126.0 159.0 L 126.0 159.0 L 126.0 159.0 L 128.0 158.5 L 130.5 158.0 L 133.5 157.0 L 136.0 157.0 L 138.0 157.0 L 139.5 157.5 L 140.5 158.5 L 141.5 160.0 L 142.5 162.5 L 144.0 166.5 L 145.5 171.5 L 146.5 176.5 L 147.0 181.5 L 147.0 186.5 L 146.5 189.0 L 145.0 190.0 L 143.0 190.5 L 140.5 189.0 L 138.5 187.5 " stroke="black" fill="none" stroke-width="6.0" stroke-linecap="round" stroke-linejoin="round" />
<path d="M 131.5 168.0 L 131.5 167.5 L 132.0 167.5 L 132.5 167.5 L 133.5 167.5 L 134.5 167.5 L 135.5 168.0 " stroke="black" fill="none" stroke-width="6.0" stroke-linecap="round" stroke-linejoin="round" />
<path d="M 131.0 178.0 L 131.5 178.5 L 132.0 178.5 L 133.5 178.0 L 135.5 175.5 L 137.0 172.5 " stroke="black" fill="none" stroke-width="6.0" stroke-linecap="round" stroke-linejoin="round" />
<path d="M 154.5 120.5 L 155.0 120.5 L 155.5 120.5 L 156.0 120.5 L 157.5 120.5 L 159.5 120.5 L 162.5 120.5 L 164.5 120.5 L 166.5 120.5 L 167.0 120.5 " stroke="black" fill="none" stroke-width="6.0" stroke-linecap="round" stroke-linejoin="round" />
<path d="M 154.5 114.0 L 154.5 114.0 L 154.5 114.5 L 154.5 114.5 L 154.5 115.5 L 154.5 117.5 L 154.0 122.0 L 153.5 128.0 L 152.5 133.5 L 152.5 136.5 L 153.0 137.0 L 154.5 137.0 L 155.5 135.5 L 157.0 134.5 L 158.5 133.5 L 160.5 133.5 L 162.0 133.0 L 164.5 133.0 L 166.5 133.0 L 168.0 133.0 L 169.5 133.0 L 170.0 133.0 L 170.5 133.0 L 170.5 133.0 L 170.5 133.0 L 170.5 133.0 L 170.5 133.5 L 170.5 134.0 L 170.5 135.5 L 170.5 137.5 L 170.5 140.0 L 170.5 142.5 L 170.5 144.5 L 170.5 145.5 L 170.0 146.0 L 170.0 146.0 " stroke="black" fill="none" stroke-width="6.0" stroke-linecap="round" stroke-linejoin="round" />
<path d="M 154.5 147.5 L 154.0 147.5 L 154.0 147.5 L 154.0 147.5 L 157.0 147.5 L 162.0 147.5 L 166.5 147.0 L 169.5 146.5 L 171.0 146.5 " stroke="black" fill="none" stroke-width="6.0" stroke-linecap="round" stroke-linejoin="round" />
<path d="M 154.0 149.0 L 154.5 148.5 L 155.0 148.5 L 155.0 148.5 L 155.5 148.5 L 156.0 150.0 L 156.5 153.0 L 157.0 157.0 L 157.0 162.0 L 157.0 166.5 L 157.0 170.5 L 157.5 174.0 L 158.5 177.0 L 160.0 179.0 L 161.0 181.0 L 162.0 182.0 L 163.0 182.5 L 164.0 182.5 L 165.5 182.5 L 167.5 182.0 L 170.0 181.5 L 171.5 181.0 L 173.0 180.0 L 174.5 179.0 L 175.5 178.0 L 176.0 177.5 L 176.5 176.5 L 176.5 176.0 L 176.5 175.5 L 176.5 175.5 L 176.0 175.0 " stroke="black" fill="none" stroke-width="6.0" stroke-linecap="round" stroke-linejoin="round" />
<path d="M 160.5 158.0 L 160.5 158.0 L 160.5 159.0 L 160.0 159.0 L 160.0 159.0 L 160.5 159.0 L 162.5 158.5 L 165.0 158.0 L 167.0 157.5 L 169.0 157.0 L 169.0 157.0 " stroke="black" fill="none" stroke-width="6.0" stroke-linecap="round" stroke-linejoin="round" />
<path d="M 161.5 165.0 L 161.0 165.5 L 160.5 165.5 L 160.0 166.0 L 160.0 166.0 L 161.5 166.0 L 164.0 166.0 L 166.5 165.5 L 168.5 165.0 L 170.0 165.0 " stroke="black" fill="none" stroke-width="6.0" stroke-linecap="round" stroke-linejoin="round" />
<path d="M 159.5 171.5 L 159.5 172.0 L 159.5 172.5 L 159.5 172.5 L 161.0 172.5 L 163.5 172.5 L 167.0 172.5 L 167.5 172.0 " stroke="black" fill="none" stroke-width="6.0" stroke-linecap="round" stroke-linejoin="round" />
</svg>