<svg xmlns="http://www.w3.org/2000/svg" width="300" height="300" viewBox="0 0 300 300">
<path d="M 148.5 106.0 L 148.5 106.0 L 148.5 106.0 L 149.0 106.5 L 149.5 106.5 L 149.5 106.5 L 150.0 106.5 L 150.0 107.0 L 150.0 107.5 L 149.0 109.5 L 146.0 113.0 L 141.0 118.5 L 133.0 126.0 L 126.0 132.0 L 121.0 135.0 L 119.5 136.0 L 121.0 135.0 L 124.0 132.5 " stroke="black" fill="none" stroke-width="6.0" stroke-linecap="round" stroke-linejoin="round" />
<path d="M 151.0 108.5 L 150.5 108.5 L 150.0 108.5 L 150.0 108.5 L 150.0 109.5 L 153.0 112.0 L 158.5 115.5 L 165.0 119.5 L 171.0 123.5 L 174.0 126.0 L 175.0 127.0 L 175.5 128.0 " stroke="black" fill="none" stroke-width="6.0" stroke-linecap="round" stroke-linejoin="round" />
<path d="M 138.0 136.0 L 138.0 136.5 L 139.0 137.0 L 139.5 137.0 L 140.5 137.0 L 144.0 137.0 L 149.5 136.0 L 154.5 135.0 L 158.5 134.0 L 160.5 134.0 L 161.0 134.0 L 160.0 134.0 L 159.5 134.5 " stroke="black" fill="none" stroke-width="6.0" stroke-linecap="round" stroke-linejoin="round" />
<path d="M 131.0 151.0 L 131.0 151.0 L 130.5 151.5 L 130.5 151.5 L 130.5 152.0 L 134.0 152.0 L 140.5 152.0 L 151.0 151.0 L 160.5 150.0 L 167.5 150.0 L 169.5 150.5 L 169.5 151.0 L 168.0 151.0 L 167.5 151.0 " stroke="black" fill="none" stroke-width="6.0" stroke-linecap="round" stroke-linejoin="round" />
<path d="M 151.5 138.5 L 151.5 138.5 L 151.5 138.5 L 151.5 138.5 L 151.5 138.5 L 152.0 142.0 L 152.5 149.5 L 152.5 160.0 L 153.0 168.5 L 153.5 176.0 L 154.0 180.5 L 154.5 182.5 L 154.5 182.5 L 154.5 182.5 L 153.0 181.5 L 151.5 180.5 L 150.0 179.5 L 149.5 178.5 L 149.0 177.5 " stroke="black" fill="none" stroke-width="6.0" stroke-linecap="round" stroke-linejoin="round" />
<path d="M 140.5 162.5 L 140.5 162.5 L 140.5 162.0 L 140.5 162.0 L 141.0 161.5 L 140.5 161.5 L 138.5 165.0 L 134.0 171.0 L 130.5 176.0 L 129.0 178.0 L 129.5 178.0 " stroke="black" fill="none" stroke-width="6.0" stroke-linecap="round" stroke-linejoin="round" />
<path d="M 165.5 167.0 L 165.0 167.0 L 164.5 167.0 L 164.5 167.0 L 167.5 168.5 L 172.0 170.5 L 176.5 172.5 L 181.0 174.0 L 183.0 175.5 " stroke="black" fill="none" stroke-width="6.0" stroke-linecap="round" stroke-linejoin="round" />
</svg>