<svg xmlns="http://www.w3.org/2000/svg" width="300" height="300" viewBox="0 0 300 300">
<path d="M 129.5 117.0 L 129.5 117.0 L 129.0 117.0 L 129.0 117.0 L 129.0 117.0 L 132.0 116.5 L 140.0 115.0 L 152.0 111.0 L 162.0 108.0 L 166.5 106.5 L 167.5 106.5 L 167.0 106.5 L 166.5 106.5 L 166.0 106.5 L 166.0 106.5 " stroke="black" fill="none" stroke-width="6.0" stroke-linecap="round" stroke-linejoin="round" />
<path d="M 129.0 126.5 L 129.0 126.5 L 129.0 127.0 L 128.5 127.0 L 128.5 127.0 L 130.5 127.0 L 135.5 126.5 L 144.0 125.5 L 154.5 124.0 L 165.5 122.0 L 174.0 120.0 L 177.0 119.5 L 177.0 120.0 L 175.5 120.5 L 174.5 121.0 L 174.0 121.0 " stroke="black" fill="none" stroke-width="6.0" stroke-linecap="round" stroke-linejoin="round" />
<path d="M 131.5 141.5 L 131.5 141.5 L 131.5 141.0 L 131.5 140.5 L 131.5 140.5 L 132.0 141.0 L 133.5 144.0 L 134.5 148.0 L 135.5 152.0 L 136.5 153.5 L 136.5 153.5 " stroke="black" fill="none" stroke-width="6.0" stroke-linecap="round" stroke-linejoin="round" />
<path d="M 136.0 140.5 L 135.5 139.0 L 135.0 138.5 L 135.0 138.5 L 137.0 138.0 L 146.5 136.5 L 155.0 135.5 L 164.0 134.5 L 171.0 134.0 L 173.5 134.5 L 173.5 135.5 L 172.0 137.5 L 171.5 140.0 L 170.5 142.5 L 170.0 145.0 L 169.0 148.5 L 167.5 152.5 L 167.0 155.0 L 166.5 156.0 " stroke="black" fill="none" stroke-width="6.0" stroke-linecap="round" stroke-linejoin="round" />
<path d="M 136.0 149.0 L 136.0 149.0 L 136.0 149.5 L 136.0 150.0 L 137.5 150.0 L 141.5 149.0 L 149.0 147.5 L 157.5 146.0 L 165.0 145.5 L 170.5 145.5 L 172.0 146.5 " stroke="black" fill="none" stroke-width="6.0" stroke-linecap="round" stroke-linejoin="round" />
<path d="M 135.5 160.0 L 137.0 160.0 L 138.0 160.0 L 140.5 160.0 L 144.5 160.0 L 149.5 160.0 L 154.0 160.0 L 158.0 159.5 L 160.0 159.0 L 161.0 159.0 " stroke="black" fill="none" stroke-width="6.0" stroke-linecap="round" stroke-linejoin="round" />
<path d="M 142.0 172.5 L 142.0 173.0 L 142.0 174.0 L 142.5 174.0 L 144.5 174.5 L 149.5 173.0 L 156.5 171.0 L 161.0 170.0 L 163.0 169.5 " stroke="black" fill="none" stroke-width="6.0" stroke-linecap="round" stroke-linejoin="round" />
<path d="M 152.5 111.5 L 152.5 112.0 L 152.5 112.5 L 153.0 113.0 L 153.0 114.5 L 153.5 118.0 L 154.0 124.0 L 154.5 131.0 L 154.5 139.5 L 153.5 148.5 L 153.0 155.5 L 153.0 162.0 L 153.5 167.5 L 153.5 171.5 L 153.5 175.0 L 153.5 179.0 L 153.5 181.5 L 154.0 183.5 L 154.5 184.5 L 154.5 185.5 L 155.0 187.0 L 155.0 188.5 L 155.5 189.5 L 155.5 190.0 L 155.5 190.0 L 155.5 190.0 L 155.5 189.5 L 155.5 189.0 " stroke="black" fill="none" stroke-width="6.0" stroke-linecap="round" stroke-linejoin="round" />
<path d="M 131.0 190.5 L 131.0 190.5 L 131.0 190.5 L 131.0 190.5 L 131.0 190.5 L 131.0 190.5 L 132.5 190.5 L 137.0 190.5 L 147.0 190.0 L 160.0 188.5 L 171.5 187.5 L 177.5 187.0 L 178.5 187.5 L 178.5 188.0 L 178.5 188.0 L 178.5 188.0 L 178.0 188.0 " stroke="black" fill="none" stroke-width="6.0" stroke-linecap="round" stroke-linejoin="round" />
</svg>