<svg xmlns="http://www.w3.org/2000/svg" width="300" height="300" viewBox="0 0 300 300">
<path d="M 121.0 117.0 L 121.0 117.5 L 121.5 117.5 L 122.5 117.5 L 125.0 117.5 L 129.0 117.0 L 133.0 116.5 L 137.0 116.5 L 140.0 116.5 L 142.5 116.5 L 143.0 116.5 L 143.0 116.5 L 142.0 117.0 L 141.0 119.5 L 140.0 123.0 L 138.5 128.0 L 137.5 133.0 L 136.5 137.5 L 136.5 139.5 L 136.5 140.0 L 136.0 140.0 " stroke="black" fill="none" stroke-width="6.0" stroke-linecap="round" stroke-linejoin="round" />
<path d="M 124.0 130.0 L 122.5 130.5 L 121.5 130.5 L 123.0 130.5 L 126.5 130.5 L 131.0 130.0 L 134.0 129.5 L 136.5 129.5 L 137.0 129.5 " stroke="black" fill="none" stroke-width="6.0" stroke-linecap="round" stroke-linejoin="round" />
<path d="M 122.5 138.5 L 121.5 139.5 L 121.0 140.5 L 122.5 141.0 L 126.5 141.5 L 130.0 141.5 L 132.5 140.0 L 133.0 139.0 " stroke="black" fill="none" stroke-width="6.0" stroke-linecap="round" stroke-linejoin="round" />
<path d="M 122.5 121.0 L 122.5 121.0 L 122.0 121.0 L 121.5 121.5 L 121.5 122.5 L 121.5 126.5 L 121.0 135.0 L 120.5 149.0 L 119.0 164.0 L 117.5 176.0 L 116.5 183.5 L 115.5 189.5 L 115.5 193.5 L 115.5 194.5 L 116.0 194.5 L 116.0 193.0 " stroke="black" fill="none" stroke-width="6.0" stroke-linecap="round" stroke-linejoin="round" />
<path d="M 152.5 116.5 L 152.5 116.5 L 153.0 116.5 L 153.5 117.5 L 153.5 120.0 L 153.0 127.5 L 152.0 135.0 L 151.5 139.5 L 151.0 141.0 L 151.0 140.0 " stroke="black" fill="none" stroke-width="6.0" stroke-linecap="round" stroke-linejoin="round" />
<path d="M 152.0 117.0 L 152.0 117.0 L 152.0 118.0 L 152.0 118.0 L 152.0 118.0 L 152.5 118.5 L 154.5 118.5 L 157.5 118.5 L 162.0 119.0 L 167.0 119.0 L 171.5 119.0 L 174.0 118.5 L 174.0 118.5 L 173.5 118.5 L 173.0 118.5 L 173.0 118.5 L 172.5 118.5 L 172.5 119.5 L 172.5 121.5 L 172.0 124.5 L 172.0 129.5 L 171.5 136.5 L 171.0 145.0 L 171.0 153.0 L 171.0 160.0 L 171.0 168.0 L 171.0 175.5 L 171.0 181.0 L 171.0 186.0 L 171.0 190.5 L 171.0 193.5 L 170.5 195.5 L 170.0 197.0 L 169.5 198.0 L 169.0 199.0 L 168.0 199.0 L 166.5 196.5 L 164.5 192.5 " stroke="black" fill="none" stroke-width="6.0" stroke-linecap="round" stroke-linejoin="round" />
<path d="M 154.0 132.0 L 154.0 132.5 L 154.0 132.5 L 154.0 132.5 L 154.0 132.5 L 155.5 132.5 L 157.5 132.5 L 160.0 132.5 L 162.0 132.0 L 164.0 131.5 L 164.5 131.5 " stroke="black" fill="none" stroke-width="6.0" stroke-linecap="round" stroke-linejoin="round" />
<path d="M 154.5 145.5 L 154.0 145.5 L 154.0 145.5 L 154.0 145.5 L 155.0 145.5 L 157.5 144.5 L 159.5 144.5 L 162.0 144.5 L 162.5 144.5 " stroke="black" fill="none" stroke-width="6.0" stroke-linecap="round" stroke-linejoin="round" />
<path d="M 128.5 155.0 L 128.5 155.5 L 128.5 156.0 L 128.5 156.5 L 129.0 157.5 L 130.0 158.5 L 131.5 159.5 L 132.0 159.5 " stroke="black" fill="none" stroke-width="6.0" stroke-linecap="round" stroke-linejoin="round" />
<path d="M 139.5 152.5 L 140.0 152.5 L 140.5 152.5 L 141.0 152.5 L 141.0 152.5 L 141.0 154.5 L 140.0 157.5 L 139.0 160.5 L 138.5 161.5 " stroke="black" fill="none" stroke-width="6.0" stroke-linecap="round" stroke-linejoin="round" />
<path d="M 128.0 167.0 L 128.0 167.0 L 127.5 167.5 L 127.5 167.5 L 128.5 167.5 L 131.0 167.0 L 134.0 166.5 L 137.5 166.0 L 140.0 165.5 L 140.5 165.5 " stroke="black" fill="none" stroke-width="6.0" stroke-linecap="round" stroke-linejoin="round" />
<path d="M 127.5 175.5 L 127.5 175.5 L 128.0 175.0 L 128.0 175.0 L 128.5 175.0 L 128.5 175.0 L 128.5 176.0 L 128.5 178.0 L 128.0 180.0 L 128.0 182.5 L 128.0 184.0 L 129.5 184.0 L 131.5 184.0 L 134.0 183.0 L 136.0 182.0 L 138.0 181.5 L 139.5 181.0 L 140.5 180.5 " stroke="black" fill="none" stroke-width="6.0" stroke-linecap="round" stroke-linejoin="round" />
<path d="M 142.5 175.0 L 142.5 175.0 L 142.5 175.0 L 142.5 175.0 L 142.0 175.0 L 142.0 175.0 L 141.5 176.0 L 141.5 177.5 L 141.5 179.5 L 141.5 181.0 L 141.5 181.0 " stroke="black" fill="none" stroke-width="6.0" stroke-linecap="round" stroke-linejoin="round" />
<path d="M 134.0 168.5 L 134.0 168.5 L 134.5 168.5 L 135.0 168.5 L 135.5 168.5 L 135.5 169.5 L 135.5 173.0 L 134.0 179.5 L 131.5 188.0 L 128.5 195.5 L 126.0 199.0 L 126.0 199.5 L 126.0 199.5 " stroke="black" fill="none" stroke-width="6.0" stroke-linecap="round" stroke-linejoin="round" />
<path d="M 151.5 155.0 L 152.0 155.0 L 152.0 155.0 L 152.5 155.0 L 152.5 155.5 L 152.0 158.0 L 151.5 161.5 L 150.0 165.5 L 149.5 168.0 L 149.5 168.5 " stroke="black" fill="none" stroke-width="6.0" stroke-linecap="round" stroke-linejoin="round" />
<path d="M 151.0 161.0 L 152.0 161.0 L 152.5 161.5 L 153.5 161.5 L 155.0 161.5 L 157.5 161.0 L 159.5 160.0 L 161.5 159.5 L 163.0 159.5 L 163.5 159.0 L 164.0 159.0 L 164.0 159.0 L 164.0 160.0 L 163.5 161.0 L 163.5 163.0 L 163.0 165.0 L 162.5 167.0 L 162.0 168.5 L 161.5 169.0 " stroke="black" fill="none" stroke-width="6.0" stroke-linecap="round" stroke-linejoin="round" />
<path d="M 155.5 170.5 L 156.0 170.5 L 157.0 170.0 L 157.5 170.0 L 157.5 170.5 L 156.5 172.5 L 154.5 176.5 L 152.5 181.5 L 150.0 186.5 L 148.5 189.5 L 148.5 190.0 L 148.5 190.0 " stroke="black" fill="none" stroke-width="6.0" stroke-linecap="round" stroke-linejoin="round" />
<path d="M 154.0 184.5 L 155.5 184.5 L 156.5 184.5 L 158.0 184.5 L 160.0 184.5 L 162.0 185.5 L 163.5 186.0 " stroke="black" fill="none" stroke-width="6.0" stroke-linecap="round" stroke-linejoin="round" />
</svg>