<svg xmlns="http://www.w3.org/2000/svg" width="300" height="300" viewBox="0 0 300 300">
<path d="M 127.5 123.5 L 126.0 123.5 L 125.0 124.0 L 124.0 124.0 L 124.0 124.5 L 124.5 125.0 L 128.0 125.0 L 135.0 125.0 L 147.5 123.0 L 161.5 120.5 L 170.5 119.5 L 173.0 119.5 L 172.5 119.5 L 171.5 119.5 L 169.5 119.0 L 167.5 119.0 L 166.5 119.0 L 166.0 119.0 " stroke="black" fill="none" stroke-width="6.0" stroke-linecap="round" stroke-linejoin="round" />
<path d="M 151.0 106.5 L 151.5 106.0 L 152.0 105.5 L 152.0 105.5 L 152.5 106.5 L 152.5 111.5 L 152.5 122.5 L 151.5 141.0 L 150.5 159.5 L 149.5 175.0 L 149.5 185.0 L 150.5 190.0 L 150.5 192.0 L 150.5 192.0 L 150.0 190.0 L 149.0 187.0 " stroke="black" fill="none" stroke-width="6.0" stroke-linecap="round" stroke-linejoin="round" />
<path d="M 132.5 134.5 L 133.0 134.5 L 133.5 134.5 L 134.0 135.5 L 134.0 137.5 L 133.0 142.0 L 130.5 148.0 L 127.5 154.0 L 125.0 158.0 L 124.0 158.5 L 124.0 158.0 L 124.0 156.0 L 125.0 154.5 L 126.0 153.0 L 127.5 152.5 L 129.5 152.5 L 132.5 154.0 L 135.5 156.0 L 138.5 158.0 L 140.5 159.0 L 141.5 159.0 " stroke="black" fill="none" stroke-width="6.0" stroke-linecap="round" stroke-linejoin="round" />
<path d="M 164.0 134.5 L 164.0 134.5 L 164.0 134.5 L 164.0 134.0 L 164.0 134.0 L 164.0 134.5 L 163.0 138.0 L 161.5 143.5 L 159.0 150.0 L 157.0 153.5 L 156.5 154.5 L 156.5 154.0 L 157.0 152.0 L 158.5 151.0 L 160.5 150.5 L 162.5 150.5 L 166.0 151.5 L 170.0 154.0 L 173.5 156.5 L 175.0 158.0 L 175.0 158.0 " stroke="black" fill="none" stroke-width="6.0" stroke-linecap="round" stroke-linejoin="round" />
<path d="M 146.0 165.0 L 146.0 165.0 L 146.5 165.0 L 146.5 165.0 L 146.5 166.0 L 146.5 168.5 L 144.0 173.0 L 138.5 179.0 L 130.5 185.5 L 123.0 189.5 L 118.0 191.0 L 117.0 191.0 L 118.0 189.5 " stroke="black" fill="none" stroke-width="6.0" stroke-linecap="round" stroke-linejoin="round" />
<path d="M 147.5 172.0 L 148.5 172.0 L 149.0 172.5 L 150.5 173.0 L 152.5 174.0 L 157.0 175.0 L 165.5 177.5 L 174.0 179.5 L 181.5 181.0 L 185.0 182.0 L 185.5 182.0 " stroke="black" fill="none" stroke-width="6.0" stroke-linecap="round" stroke-linejoin="round" />
</svg>