<svg xmlns="http://www.w3.org/2000/svg" width="300" height="300" viewBox="0 0 300 300">
<path d="M 135.5 109.0 L 136.0 109.0 L 137.0 108.5 L 137.5 108.5 L 137.5 108.5 L 137.5 111.0 L 137.5 116.5 L 137.5 125.5 L 137.5 135.5 L 138.0 142.0 L 138.5 144.0 L 138.5 144.0 L 137.0 142.0 L 136.0 141.0 " stroke="black" fill="none" stroke-width="6.0" stroke-linecap="round" stroke-linejoin="round" />
<path d="M 135.5 108.0 L 135.5 109.0 L 135.5 109.5 L 135.5 110.0 L 136.5 110.0 L 139.5 110.0 L 143.5 110.0 L 148.0 110.0 L 152.5 110.0 L 155.5 110.0 L 158.0 110.0 L 160.0 109.5 L 161.0 109.5 L 162.0 109.5 L 162.5 110.5 L 162.5 110.5 " stroke="black" fill="none" stroke-width="6.0" stroke-linecap="round" stroke-linejoin="round" />
<path d="M 141.0 124.0 L 141.0 124.0 L 141.0 124.0 L 141.5 124.0 L 143.5 124.0 L 146.5 124.0 L 150.0 124.0 L 153.0 124.0 L 155.5 124.0 L 156.5 124.0 " stroke="black" fill="none" stroke-width="6.0" stroke-linecap="round" stroke-linejoin="round" />
<path d="M 143.0 133.0 L 143.0 133.0 L 141.5 134.0 L 141.0 134.5 L 141.0 134.5 L 143.0 134.5 L 146.0 135.0 L 149.5 135.5 L 152.5 135.5 L 155.5 135.5 L 156.0 135.5 " stroke="black" fill="none" stroke-width="6.0" stroke-linecap="round" stroke-linejoin="round" />
<path d="M 126.0 146.0 L 125.0 146.0 L 124.0 146.0 L 124.0 146.0 L 125.5 146.0 L 129.0 146.5 L 134.5 147.0 L 140.5 147.5 L 148.0 148.0 L 155.0 147.5 L 160.5 147.0 L 164.5 146.5 L 165.5 146.0 L 165.0 146.0 L 162.0 146.5 " stroke="black" fill="none" stroke-width="6.0" stroke-linecap="round" stroke-linejoin="round" />
<path d="M 134.5 154.5 L 136.5 153.5 L 137.5 152.5 L 138.5 152.5 L 139.0 152.5 L 139.5 154.0 L 139.5 158.0 L 139.5 165.5 L 139.5 174.0 L 139.5 181.5 L 139.5 186.0 L 139.0 188.0 L 139.0 189.0 L 139.0 189.0 L 139.0 189.0 L 140.5 187.5 L 143.0 186.0 L 145.5 184.5 L 148.5 182.5 L 151.0 181.5 L 152.5 180.5 " stroke="black" fill="none" stroke-width="6.0" stroke-linecap="round" stroke-linejoin="round" />
<path d="M 166.5 159.5 L 166.5 159.5 L 166.5 160.0 L 165.5 160.5 L 164.5 161.5 L 163.5 163.0 L 162.5 165.0 L 161.0 167.0 L 159.5 168.0 " stroke="black" fill="none" stroke-width="6.0" stroke-linecap="round" stroke-linejoin="round" />
<path d="M 149.5 160.0 L 149.5 160.0 L 148.5 160.0 L 148.5 161.0 L 149.0 163.0 L 153.0 168.0 L 159.5 176.0 L 167.0 184.0 L 172.5 188.0 L 176.5 189.5 L 176.5 189.5 " stroke="black" fill="none" stroke-width="6.0" stroke-linecap="round" stroke-linejoin="round" />
</svg>