<svg xmlns="http://www.w3.org/2000/svg" width="300" height="300" viewBox="0 0 300 300">
<path d="M 145.0 102.0 L 144.5 102.0 L 144.0 101.5 L 143.5 101.5 L 143.5 101.5 L 145.0 102.5 L 147.5 104.5 L 150.0 106.5 L 152.0 108.5 L 152.5 109.0 " stroke="black" fill="none" stroke-width="7.0" stroke-linecap="round" stroke-linejoin="round" />
<path d="M 127.0 118.5 L 126.5 118.5 L 126.5 118.5 L 126.5 118.5 L 129.5 119.0 L 139.0 119.5 L 151.0 119.5 L 162.5 119.0 L 171.0 117.5 L 174.0 117.0 L 174.0 117.0 L 172.5 118.5 L 171.5 119.0 " stroke="black" fill="none" stroke-width="7.0" stroke-linecap="round" stroke-linejoin="round" />
<path d="M 142.5 128.5 L 143.0 128.0 L 143.5 127.5 L 144.0 127.0 L 144.5 127.0 L 144.5 127.0 L 143.0 129.0 L 140.0 133.0 L 134.5 139.0 L 128.5 145.0 L 124.5 148.0 L 124.0 148.5 L 124.5 147.5 " stroke="black" fill="none" stroke-width="7.0" stroke-linecap="round" stroke-linejoin="round" />
<path d="M 135.5 139.5 L 137.0 139.5 L 138.0 140.5 L 139.0 142.5 L 140.0 147.5 L 140.5 155.5 L 140.5 166.0 L 139.0 176.5 L 136.5 184.5 L 136.0 187.5 L 136.0 187.0 " stroke="black" fill="none" stroke-width="7.0" stroke-linecap="round" stroke-linejoin="round" />
<path d="M 153.5 130.5 L 154.5 130.0 L 155.0 130.0 L 155.0 130.0 L 155.0 131.5 L 153.0 136.0 L 150.5 141.5 L 148.5 145.5 L 147.5 147.0 L 147.5 147.0 " stroke="black" fill="none" stroke-width="7.0" stroke-linecap="round" stroke-linejoin="round" />
<path d="M 151.0 138.0 L 151.5 138.0 L 152.0 137.5 L 153.0 137.5 L 155.5 137.0 L 159.5 136.0 L 164.5 135.5 L 170.0 134.5 L 173.5 134.0 L 175.5 134.0 L 176.5 134.0 L 176.5 135.0 L 176.5 136.5 L 175.5 139.0 L 174.5 143.0 L 173.0 149.0 L 169.5 158.0 L 164.5 168.5 L 158.5 177.5 L 152.5 185.5 L 150.0 190.5 L 150.0 191.0 L 150.0 190.5 L 150.5 190.0 " stroke="black" fill="none" stroke-width="7.0" stroke-linecap="round" stroke-linejoin="round" />
<path d="M 161.5 146.5 L 161.5 146.5 L 161.5 146.0 L 161.5 146.0 L 162.0 145.5 L 163.0 146.0 L 164.0 147.5 L 165.5 148.0 " stroke="black" fill="none" stroke-width="7.0" stroke-linecap="round" stroke-linejoin="round" />
<path d="M 152.0 154.0 L 152.0 154.0 L 152.0 154.0 L 152.0 154.0 L 152.0 154.5 L 152.5 155.5 L 155.0 159.0 L 161.0 165.5 L 169.5 172.0 L 178.0 177.5 L 185.0 180.0 L 190.0 181.5 L 193.0 183.0 L 193.0 183.5 " stroke="black" fill="none" stroke-width="7.0" stroke-linecap="round" stroke-linejoin="round" />
</svg>