<svg xmlns="http://www.w3.org/2000/svg" width="300" height="300" viewBox="0 0 300 300">
<path d="M 122.5 125.5 L 122.0 125.5 L 121.5 125.5 L 122.0 125.0 L 126.0 125.0 L 132.0 125.0 L 139.0 124.5 L 144.0 123.5 L 146.0 123.0 L 146.0 123.0 L 145.5 123.5 " stroke="black" fill="none" stroke-width="7.0" stroke-linecap="round" stroke-linejoin="round" />
<path d="M 134.5 111.5 L 135.0 112.0 L 135.0 112.5 L 135.5 113.5 L 136.0 116.5 L 136.0 123.5 L 136.0 136.0 L 136.0 151.5 L 136.0 164.0 L 136.0 174.0 L 136.0 180.0 L 135.0 183.5 L 134.0 184.5 L 132.5 184.5 L 130.5 184.0 L 128.0 181.5 L 126.0 177.0 " stroke="black" fill="none" stroke-width="7.0" stroke-linecap="round" stroke-linejoin="round" />
<path d="M 123.5 160.5 L 123.0 160.5 L 122.5 160.0 L 123.5 159.5 L 128.5 157.5 L 134.5 154.0 L 140.5 149.0 " stroke="black" fill="none" stroke-width="7.0" stroke-linecap="round" stroke-linejoin="round" />
<path d="M 162.0 109.0 L 162.0 109.5 L 162.5 110.0 L 162.5 110.5 L 162.0 111.0 L 160.0 114.0 L 156.5 118.5 L 153.0 122.5 L 151.0 125.0 L 150.5 125.0 " stroke="black" fill="none" stroke-width="7.0" stroke-linecap="round" stroke-linejoin="round" />
<path d="M 158.5 114.5 L 158.5 115.0 L 158.5 116.0 L 158.5 116.0 L 160.0 116.0 L 163.0 116.0 L 167.5 116.0 L 171.0 116.0 L 173.5 117.0 L 174.5 118.5 L 174.5 121.0 L 173.0 124.5 L 169.5 130.5 L 163.5 137.5 L 156.5 144.5 L 151.5 149.0 L 150.0 150.0 L 149.0 150.0 L 149.0 149.5 " stroke="black" fill="none" stroke-width="7.0" stroke-linecap="round" stroke-linejoin="round" />
<path d="M 158.0 126.5 L 158.0 127.0 L 158.0 127.0 L 158.5 127.5 L 160.0 128.0 L 162.0 128.0 L 164.0 128.5 " stroke="black" fill="none" stroke-width="7.0" stroke-linecap="round" stroke-linejoin="round" />
<path d="M 148.0 134.5 L 148.0 135.0 L 147.5 135.5 L 148.5 136.0 L 151.5 136.0 L 155.5 136.0 L 158.5 136.0 " stroke="black" fill="none" stroke-width="7.0" stroke-linecap="round" stroke-linejoin="round" />
<path d="M 160.0 150.5 L 161.5 150.0 L 163.0 149.0 L 163.5 148.5 L 163.5 148.5 L 163.5 148.5 L 161.5 150.5 L 158.0 155.0 L 154.0 161.0 L 151.5 165.5 L 151.0 166.5 " stroke="black" fill="none" stroke-width="7.0" stroke-linecap="round" stroke-linejoin="round" />
<path d="M 159.5 158.0 L 159.5 158.5 L 159.5 159.0 L 159.5 159.0 L 161.0 158.5 L 165.5 157.0 L 170.5 155.5 L 174.0 155.0 L 176.5 154.5 L 176.5 154.5 " stroke="black" fill="none" stroke-width="7.0" stroke-linecap="round" stroke-linejoin="round" />
<path d="M 153.5 173.0 L 154.0 173.0 L 154.5 173.0 L 155.5 173.5 L 158.0 173.5 L 164.0 173.0 L 171.0 172.5 L 177.5 171.0 L 180.0 169.5 L 180.0 169.0 " stroke="black" fill="none" stroke-width="7.0" stroke-linecap="round" stroke-linejoin="round" />
<path d="M 167.5 160.0 L 167.0 159.5 L 166.5 159.5 L 166.5 159.5 L 166.5 160.5 L 166.5 165.0 L 166.5 174.0 L 166.5 182.0 L 166.5 184.0 L 166.5 184.0 " stroke="black" fill="none" stroke-width="7.0" stroke-linecap="round" stroke-linejoin="round" />
<path d="M 150.5 184.0 L 150.5 183.5 L 150.5 182.5 L 151.0 182.0 L 151.5 181.5 L 152.0 181.5 L 152.5 182.5 L 152.5 186.0 L 153.0 190.0 L 154.0 193.0 L 155.0 194.0 L 157.0 194.5 L 160.5 193.5 L 166.5 192.0 L 173.0 190.0 L 178.5 188.0 L 182.0 187.0 L 182.5 187.5 L 181.5 188.5 " stroke="black" fill="none" stroke-width="7.0" stroke-linecap="round" stroke-linejoin="round" />
<path d="M 185.5 178.5 L 185.5 178.5 L 185.5 178.5 L 185.5 178.5 L 185.5 178.5 L 185.5 179.5 L 185.5 184.0 L 185.5 190.5 L 186.0 196.5 L 186.0 198.5 " stroke="black" fill="none" stroke-width="7.0" stroke-linecap="round" stroke-linejoin="round" />
</svg>