<svg xmlns="http://www.w3.org/2000/svg" width="300" height="300" viewBox="0 0 300 300">
<path d="M 127.0 116.0 L 126.5 115.5 L 126.0 115.0 L 126.0 115.0 L 126.0 116.0 L 127.5 123.0 L 129.0 133.5 L 130.0 157.5 L 130.5 171.0 L 131.0 174.5 L 131.0 174.5 L 131.5 172.0 L 130.0 163.5 " stroke="black" fill="none" stroke-width="6.0" stroke-linecap="round" stroke-linejoin="round" />
<path d="M 131.0 113.0 L 131.0 113.5 L 130.0 113.5 L 129.5 113.5 L 129.5 113.5 L 130.5 113.5 L 136.5 113.5 L 146.5 114.0 L 158.0 113.5 L 174.0 112.5 L 181.5 113.0 L 182.5 113.5 L 182.5 114.0 L 182.5 114.0 L 182.5 114.0 L 182.5 114.0 L 182.5 115.5 L 182.5 118.0 L 182.5 121.5 L 182.0 131.5 L 181.5 146.0 L 181.5 152.0 L 181.5 164.5 L 182.5 172.0 L 183.0 173.5 L 183.5 174.5 L 183.5 173.0 " stroke="black" fill="none" stroke-width="6.0" stroke-linecap="round" stroke-linejoin="round" />
<path d="M 145.5 129.0 L 145.0 129.5 L 144.0 130.0 L 144.0 130.0 L 145.5 129.5 L 149.5 128.0 L 155.0 127.5 L 158.5 127.0 L 160.5 127.0 L 161.5 127.0 " stroke="black" fill="none" stroke-width="6.0" stroke-linecap="round" stroke-linejoin="round" />
<path d="M 156.0 121.0 L 156.0 121.0 L 155.5 120.5 L 155.5 120.5 L 155.5 120.5 L 155.5 124.5 L 155.5 129.0 L 156.0 133.0 L 156.0 135.0 " stroke="black" fill="none" stroke-width="6.0" stroke-linecap="round" stroke-linejoin="round" />
<path d="M 143.5 139.5 L 142.5 139.0 L 142.0 138.5 L 142.5 138.5 L 145.5 138.5 L 152.5 138.0 L 159.0 138.0 L 164.5 137.5 L 167.0 137.0 " stroke="black" fill="none" stroke-width="6.0" stroke-linecap="round" stroke-linejoin="round" />
<path d="M 146.0 148.5 L 146.0 148.5 L 145.5 148.5 L 145.5 149.0 L 145.5 149.5 L 146.0 151.0 L 147.0 153.0 L 148.5 155.0 L 149.0 155.5 " stroke="black" fill="none" stroke-width="6.0" stroke-linecap="round" stroke-linejoin="round" />
<path d="M 149.0 148.5 L 147.5 149.0 L 147.0 149.0 L 147.0 149.0 L 149.0 148.5 L 152.5 147.5 L 157.5 147.0 L 161.5 146.5 L 165.0 146.0 L 167.0 146.0 L 167.5 146.0 L 167.5 146.0 L 167.0 148.0 L 165.5 150.0 L 164.5 152.5 L 164.0 154.0 L 163.5 154.5 " stroke="black" fill="none" stroke-width="6.0" stroke-linecap="round" stroke-linejoin="round" />
<path d="M 153.0 156.0 L 151.5 157.0 L 150.0 157.5 L 150.0 157.5 L 152.0 157.5 L 156.0 157.0 L 160.0 156.0 L 162.5 155.5 " stroke="black" fill="none" stroke-width="6.0" stroke-linecap="round" stroke-linejoin="round" />
<path d="M 153.5 158.5 L 154.5 156.5 L 155.0 155.5 L 155.5 155.0 L 156.0 155.0 L 156.0 156.0 L 154.0 160.0 L 151.5 165.0 L 148.5 169.5 L 146.5 172.0 L 146.0 171.5 " stroke="black" fill="none" stroke-width="6.0" stroke-linecap="round" stroke-linejoin="round" />
<path d="M 157.0 161.0 L 157.5 161.0 L 158.0 161.5 L 159.0 162.0 L 161.5 164.5 L 165.5 167.5 L 169.0 170.0 L 171.5 171.0 L 172.0 171.0 " stroke="black" fill="none" stroke-width="6.0" stroke-linecap="round" stroke-linejoin="round" />
<path d="M 171.5 159.5 L 171.5 159.5 L 172.0 159.5 L 172.0 159.5 L 172.0 159.5 L 171.0 160.0 L 169.5 162.5 L 169.0 163.5 " stroke="black" fill="none" stroke-width="6.0" stroke-linecap="round" stroke-linejoin="round" />
<path d="M 152.0 168.0 L 152.0 167.0 L 152.0 166.5 L 152.5 166.0 L 153.0 166.0 L 153.5 167.5 L 154.5 172.0 L 155.5 177.0 L 156.0 180.0 L 157.0 181.0 L 159.0 179.5 L 160.5 176.5 L 162.0 174.0 " stroke="black" fill="none" stroke-width="6.0" stroke-linecap="round" stroke-linejoin="round" />
<path d="M 132.0 185.0 L 132.0 185.5 L 132.0 186.0 L 132.5 186.0 L 133.0 186.5 L 135.0 186.5 L 139.0 186.0 L 147.0 185.0 L 159.5 183.5 L 172.5 181.5 L 180.5 181.0 L 182.0 181.5 L 182.0 182.5 L 181.0 183.0 " stroke="black" fill="none" stroke-width="6.0" stroke-linecap="round" stroke-linejoin="round" />
</svg>