<svg xmlns="http://www.w3.org/2000/svg" width="300" height="300" viewBox="0 0 300 300">
<path d="M 128.5 120.5 L 129.0 120.5 L 129.5 120.0 L 130.0 119.5 L 131.5 119.0 L 136.5 118.0 L 146.0 115.0 L 157.0 111.5 L 165.5 108.5 L 169.0 107.5 L 170.5 106.5 L 170.5 106.0 L 170.5 106.0 L 170.5 106.0 L 170.5 106.0 L 170.5 106.0 " stroke="black" fill="none" stroke-width="7.0" stroke-linecap="round" stroke-linejoin="round" />
<path d="M 123.0 149.0 L 122.5 149.0 L 122.0 149.0 L 121.5 149.5 L 121.5 149.5 L 122.5 149.5 L 126.5 148.5 L 132.5 148.0 L 141.5 146.5 L 152.0 146.0 L 161.0 145.5 L 167.5 145.5 L 172.0 145.5 L 173.5 145.5 L 173.5 145.5 L 172.5 145.5 " stroke="black" fill="none" stroke-width="7.0" stroke-linecap="round" stroke-linejoin="round" />
<path d="M 150.0 118.5 L 150.0 118.5 L 150.0 119.0 L 150.0 119.5 L 150.0 120.5 L 150.0 124.0 L 150.0 131.5 L 150.0 141.0 L 150.0 150.0 L 149.5 158.5 L 149.5 165.5 L 149.5 171.0 L 150.0 175.5 L 150.0 179.0 L 150.5 181.5 L 151.0 183.0 L 151.0 184.5 L 151.5 185.0 L 151.5 185.5 L 151.5 186.0 L 152.0 187.0 L 152.0 188.0 L 152.0 188.5 L 152.0 189.0 L 152.0 189.5 L 152.5 189.5 L 152.5 189.5 L 152.5 190.0 L 152.5 190.0 L 152.5 190.0 L 152.5 190.0 L 152.5 190.0 L 152.5 190.0 L 152.5 190.0 L 152.5 190.0 L 152.5 190.0 " stroke="black" fill="none" stroke-width="7.0" stroke-linecap="round" stroke-linejoin="round" />
</svg>