<svg xmlns="http://www.w3.org/2000/svg" width="300" height="300" viewBox="0 0 300 300">
<path d="M 131.0 124.0 L 131.0 124.0 L 131.0 124.0 L 131.0 124.5 L 131.0 124.5 L 132.0 124.5 L 136.5 124.0 L 145.0 124.0 L 155.5 124.0 L 165.0 123.0 L 170.5 121.5 L 172.5 121.0 L 172.0 121.0 L 171.5 121.0 L 171.0 121.0 L 171.0 121.0 L 171.0 121.0 L 171.0 121.0 " stroke="black" fill="none" stroke-width="6.0" stroke-linecap="round" stroke-linejoin="round" />
<path d="M 149.0 106.0 L 149.0 106.0 L 149.5 106.0 L 149.5 106.0 L 149.5 107.0 L 149.5 112.0 L 146.5 125.5 L 141.0 141.5 L 134.5 153.5 L 129.0 159.5 L 126.5 163.0 L 126.0 163.5 L 126.5 162.5 L 127.5 161.0 " stroke="black" fill="none" stroke-width="6.0" stroke-linecap="round" stroke-linejoin="round" />
<path d="M 147.0 142.0 L 146.5 140.5 L 146.5 139.5 L 146.5 139.5 L 146.5 140.0 L 146.5 144.0 L 146.5 152.0 L 146.5 163.5 L 146.0 173.5 L 146.0 179.5 L 146.5 180.0 L 146.5 177.5 L 146.5 175.0 " stroke="black" fill="none" stroke-width="6.0" stroke-linecap="round" stroke-linejoin="round" />
<path d="M 145.5 142.5 L 145.0 142.0 L 144.0 141.5 L 144.0 141.0 L 144.5 141.0 L 147.0 140.0 L 151.0 138.5 L 155.5 137.0 L 160.0 135.0 L 163.5 134.5 L 165.0 135.5 L 165.5 138.0 L 165.5 142.0 L 165.5 148.5 L 166.0 157.5 L 166.5 166.5 L 167.0 173.0 L 167.5 178.5 L 168.0 182.0 L 167.5 184.0 L 166.5 184.5 L 165.0 184.5 L 163.0 183.5 L 160.5 179.5 L 159.5 176.5 " stroke="black" fill="none" stroke-width="6.0" stroke-linecap="round" stroke-linejoin="round" />
<path d="M 149.0 152.5 L 149.0 153.0 L 148.5 154.5 L 148.5 154.5 L 151.0 154.0 L 155.0 152.5 L 158.5 151.0 L 160.5 150.0 L 161.5 150.0 " stroke="black" fill="none" stroke-width="6.0" stroke-linecap="round" stroke-linejoin="round" />
<path d="M 152.0 164.0 L 151.5 164.0 L 151.5 164.0 L 152.0 164.0 L 156.0 164.0 L 160.5 162.0 L 163.0 160.5 " stroke="black" fill="none" stroke-width="6.0" stroke-linecap="round" stroke-linejoin="round" />
</svg>