<svg xmlns="http://www.w3.org/2000/svg" width="300" height="300" viewBox="0 0 300 300">
<path d="M 135.0 125.5 L 135.5 125.5 L 136.5 124.5 L 137.0 124.0 L 137.5 123.5 L 137.5 123.0 L 137.5 123.0 L 137.0 124.5 L 134.5 128.0 L 130.5 133.0 L 126.5 139.0 L 123.5 142.5 L 123.0 143.5 L 123.0 143.5 " stroke="black" fill="none" stroke-width="6.0" stroke-linecap="round" stroke-linejoin="round" />
<path d="M 143.5 132.5 L 143.5 132.5 L 143.0 133.5 L 143.0 134.0 L 143.0 134.0 L 142.5 135.5 L 140.5 139.0 L 137.0 145.0 L 132.5 151.5 L 129.0 155.5 L 128.0 156.5 L 128.0 156.0 L 128.0 155.5 " stroke="black" fill="none" stroke-width="6.0" stroke-linecap="round" stroke-linejoin="round" />
<path d="M 136.0 147.0 L 137.0 147.0 L 137.5 147.0 L 138.0 147.5 L 138.0 150.0 L 138.0 156.0 L 138.0 166.0 L 138.0 176.0 L 138.0 182.0 L 138.5 184.0 L 139.0 183.5 L 139.0 182.5 " stroke="black" fill="none" stroke-width="6.0" stroke-linecap="round" stroke-linejoin="round" />
<path d="M 152.5 117.0 L 153.0 117.0 L 153.5 116.5 L 154.0 116.0 L 154.0 117.0 L 154.5 120.5 L 155.0 125.5 L 155.0 130.5 L 155.5 132.5 L 155.5 132.5 " stroke="black" fill="none" stroke-width="6.0" stroke-linecap="round" stroke-linejoin="round" />
<path d="M 158.0 117.0 L 158.0 117.0 L 158.0 117.0 L 158.0 117.5 L 158.0 117.5 L 159.0 117.5 L 161.0 116.5 L 165.0 115.5 L 170.0 114.0 L 175.0 114.0 L 177.5 114.5 L 178.5 116.0 L 179.0 118.0 L 178.5 120.5 L 178.0 123.5 L 177.0 127.0 L 176.5 130.5 L 176.0 132.5 L 176.0 133.5 L 175.5 133.5 L 175.5 133.5 " stroke="black" fill="none" stroke-width="6.0" stroke-linecap="round" stroke-linejoin="round" />
<path d="M 163.0 127.0 L 163.0 127.0 L 162.5 127.0 L 162.0 127.5 L 162.5 127.5 L 164.5 127.5 L 168.0 127.0 L 171.0 126.5 L 173.5 126.0 L 174.0 126.0 " stroke="black" fill="none" stroke-width="6.0" stroke-linecap="round" stroke-linejoin="round" />
<path d="M 159.5 136.5 L 159.5 137.0 L 159.5 137.5 L 159.5 138.0 L 161.5 138.0 L 165.5 137.0 L 169.0 136.0 L 172.5 135.0 L 173.5 135.0 " stroke="black" fill="none" stroke-width="6.0" stroke-linecap="round" stroke-linejoin="round" />
<path d="M 151.5 150.0 L 151.5 150.0 L 152.0 150.0 L 152.5 150.0 L 153.5 149.5 L 156.5 148.5 L 163.0 147.5 L 170.0 146.5 L 174.5 146.0 L 176.0 146.0 " stroke="black" fill="none" stroke-width="6.0" stroke-linecap="round" stroke-linejoin="round" />
<path d="M 149.0 159.5 L 149.0 159.5 L 148.5 159.5 L 148.5 159.5 L 151.0 159.5 L 157.5 158.5 L 166.0 157.0 L 173.5 156.0 L 177.5 155.5 L 178.5 155.0 L 178.0 155.0 " stroke="black" fill="none" stroke-width="6.0" stroke-linecap="round" stroke-linejoin="round" />
<path d="M 170.0 151.0 L 169.5 151.0 L 169.0 151.5 L 169.0 152.0 L 169.5 154.5 L 170.0 159.5 L 170.5 167.5 L 171.0 174.5 L 171.0 179.5 L 171.0 182.5 L 171.0 184.5 L 170.5 185.5 L 169.5 186.5 L 167.5 186.5 L 165.5 186.0 L 164.5 184.5 " stroke="black" fill="none" stroke-width="6.0" stroke-linecap="round" stroke-linejoin="round" />
<path d="M 152.5 170.0 L 152.5 170.0 L 152.5 170.0 L 152.5 170.0 L 152.5 170.0 L 153.5 170.5 L 155.5 171.5 L 158.0 172.5 L 158.0 172.5 " stroke="black" fill="none" stroke-width="6.0" stroke-linecap="round" stroke-linejoin="round" />
</svg>