<svg xmlns="http://www.w3.org/2000/svg" width="300" height="300" viewBox="0 0 300 300">
<path d="M 142.5 110.5 L 141.5 110.5 L 141.5 110.5 L 141.5 111.0 L 144.5 112.0 L 147.5 114.5 L 150.5 118.0 L 152.0 120.5 L 152.5 121.0 " stroke="black" fill="none" stroke-width="6.0" stroke-linecap="round" stroke-linejoin="round" />
<path d="M 128.0 129.5 L 128.0 130.0 L 127.5 131.0 L 127.0 132.5 L 126.0 134.5 L 125.5 137.5 L 125.5 139.0 L 125.5 139.5 " stroke="black" fill="none" stroke-width="6.0" stroke-linecap="round" stroke-linejoin="round" />
<path d="M 128.5 129.5 L 128.5 129.5 L 129.5 129.5 L 131.5 128.5 L 135.0 127.5 L 140.5 126.5 L 147.0 125.5 L 155.0 125.0 L 163.0 125.0 L 168.5 125.0 L 172.0 124.5 L 172.5 124.0 L 172.5 124.0 L 172.5 124.0 L 172.5 124.0 L 172.5 124.0 L 172.5 124.0 L 172.5 124.0 L 172.5 124.0 L 172.5 124.0 L 172.5 124.0 L 172.5 124.0 L 172.5 125.0 L 172.5 126.5 L 172.0 130.0 L 171.0 134.5 L 171.0 138.5 L 170.5 140.5 L 171.0 142.0 L 171.0 142.0 " stroke="black" fill="none" stroke-width="6.0" stroke-linecap="round" stroke-linejoin="round" />
<path d="M 147.0 137.0 L 147.5 137.0 L 148.0 137.0 L 149.0 136.5 L 149.5 136.5 L 149.5 136.5 L 149.5 137.0 L 148.0 140.5 L 145.0 147.5 L 141.0 155.5 L 139.5 162.0 L 140.5 166.5 L 143.5 170.0 L 147.5 172.5 L 152.0 174.0 L 155.5 175.0 L 158.5 175.0 L 160.0 174.5 L 160.5 173.0 " stroke="black" fill="none" stroke-width="6.0" stroke-linecap="round" stroke-linejoin="round" />
<path d="M 159.5 151.0 L 159.0 151.0 L 158.5 151.0 L 158.5 151.0 L 158.0 151.5 L 156.5 152.5 L 153.5 157.5 L 147.5 166.5 L 142.0 174.0 L 139.5 176.5 L 138.5 175.5 L 138.0 174.0 " stroke="black" fill="none" stroke-width="6.0" stroke-linecap="round" stroke-linejoin="round" />
<path d="M 129.5 150.5 L 130.0 150.5 L 131.0 150.5 L 134.0 150.5 L 141.0 151.0 L 151.0 151.0 L 160.5 150.0 L 167.5 150.0 L 171.0 150.0 " stroke="black" fill="none" stroke-width="6.0" stroke-linecap="round" stroke-linejoin="round" />
</svg>