<svg xmlns="http://www.w3.org/2000/svg" width="300" height="300" viewBox="0 0 300 300">
<path d="M 132.5 121.5 L 133.0 121.0 L 133.0 120.5 L 133.0 120.0 L 132.5 119.5 L 131.0 119.5 L 128.5 122.0 L 125.0 128.5 L 122.0 138.5 L 122.0 147.5 L 125.0 152.0 L 129.0 153.0 L 133.5 151.0 L 137.0 145.5 L 139.0 138.0 L 139.0 130.5 L 138.0 125.5 L 136.0 123.0 L 135.0 122.5 L 135.0 123.0 L 135.0 124.0 " stroke="black" fill="none" stroke-width="6.0" stroke-linecap="round" stroke-linejoin="round" />
<path d="M 161.5 120.5 L 161.0 119.5 L 160.0 119.0 L 159.5 119.0 L 159.0 119.0 L 158.0 120.5 L 156.5 125.5 L 152.5 135.0 L 145.0 149.5 L 136.0 163.0 L 131.0 172.0 L 129.0 175.0 L 129.0 175.5 L 129.5 175.0 L 130.0 174.5 " stroke="black" fill="none" stroke-width="6.0" stroke-linecap="round" stroke-linejoin="round" />
<path d="M 159.0 155.5 L 159.0 155.5 L 159.5 155.0 L 160.0 154.5 L 160.0 154.5 L 160.0 154.0 L 159.0 154.0 L 156.5 155.5 L 153.0 158.5 L 150.5 164.0 L 150.0 170.0 L 152.0 174.0 L 156.5 174.5 L 161.0 172.5 L 164.0 168.0 L 164.5 163.0 L 164.5 158.0 L 163.0 154.0 L 160.5 151.5 L 158.5 150.5 L 156.5 150.5 L 154.5 152.0 L 154.0 153.0 " stroke="black" fill="none" stroke-width="6.0" stroke-linecap="round" stroke-linejoin="round" />
</svg>