<svg xmlns="http://www.w3.org/2000/svg" width="300" height="300" viewBox="0 0 300 300">
<path d="M 126.0 108.0 L 125.5 109.0 L 124.5 110.0 L 124.5 110.5 L 124.5 110.5 L 126.5 110.5 L 131.0 110.5 L 138.5 110.0 L 149.5 108.5 L 157.5 107.0 L 161.5 107.0 L 161.5 107.0 L 161.5 107.0 L 162.5 107.0 L 164.0 107.0 L 165.5 107.5 L 166.5 108.0 L 167.0 108.0 " stroke="black" fill="none" stroke-width="6.0" stroke-linecap="round" stroke-linejoin="round" />
<path d="M 148.5 110.5 L 149.5 109.0 L 150.5 108.0 L 151.0 107.5 L 151.0 107.5 L 151.0 109.0 L 150.5 113.0 L 148.0 120.0 L 143.5 129.0 L 136.0 138.5 L 131.0 143.5 L 130.0 143.5 L 130.0 142.5 L 131.0 141.0 L 131.0 141.0 " stroke="black" fill="none" stroke-width="6.0" stroke-linecap="round" stroke-linejoin="round" />
<path d="M 142.0 132.0 L 142.0 132.0 L 142.5 131.5 L 142.5 131.5 L 143.0 131.5 L 143.5 133.0 L 144.0 139.5 L 144.0 150.5 L 144.0 162.0 L 144.0 167.0 L 144.5 167.5 L 144.5 167.0 " stroke="black" fill="none" stroke-width="6.0" stroke-linecap="round" stroke-linejoin="round" />
<path d="M 152.5 129.5 L 152.5 131.0 L 152.5 131.5 L 153.5 132.0 L 157.5 133.5 L 163.0 135.0 L 166.5 136.0 L 169.0 137.0 " stroke="black" fill="none" stroke-width="6.0" stroke-linecap="round" stroke-linejoin="round" />
</svg>