<svg xmlns="http://www.w3.org/2000/svg" width="300" height="300" viewBox="0 0 300 300">
<path d="M 129.0 112.0 L 129.0 112.0 L 127.5 113.5 L 127.0 113.5 L 127.0 113.5 L 128.0 113.5 L 132.5 113.0 L 140.5 113.0 L 150.5 113.0 L 159.5 113.0 L 166.5 113.5 L 170.0 113.5 L 170.5 113.5 L 170.0 113.5 L 169.5 113.5 L 169.5 113.5 L 169.5 113.5 L 169.5 113.5 L 169.5 114.0 L 169.5 114.0 " stroke="black" fill="none" stroke-width="6.0" stroke-linecap="round" stroke-linejoin="round" />
<path d="M 152.0 115.0 L 152.5 115.0 L 153.0 115.5 L 153.0 115.5 L 153.5 116.0 L 153.5 118.5 L 150.5 124.5 L 143.5 134.5 L 134.5 143.0 L 128.5 147.5 L 126.5 148.0 L 127.0 145.5 L 128.0 144.0 " stroke="black" fill="none" stroke-width="6.0" stroke-linecap="round" stroke-linejoin="round" />
<path d="M 147.5 133.5 L 147.5 134.0 L 147.0 135.0 L 147.0 135.5 L 147.0 138.0 L 148.0 144.5 L 148.0 155.0 L 147.5 164.5 L 147.5 168.5 L 148.0 169.0 L 148.0 168.5 " stroke="black" fill="none" stroke-width="6.0" stroke-linecap="round" stroke-linejoin="round" />
<path d="M 161.0 136.0 L 161.0 136.5 L 161.0 137.0 L 162.0 138.0 L 166.0 141.0 L 170.5 144.5 L 175.5 146.5 L 177.0 147.0 " stroke="black" fill="none" stroke-width="6.0" stroke-linecap="round" stroke-linejoin="round" />
</svg>