<svg xmlns="http://www.w3.org/2000/svg" width="300" height="300" viewBox="0 0 300 300">
<path d="M 122.5 124.0 L 121.5 124.0 L 120.5 124.0 L 120.5 124.0 L 122.0 124.0 L 126.0 124.0 L 130.5 124.0 L 134.0 124.0 L 137.0 124.5 L 138.5 124.5 L 139.0 124.5 " stroke="black" fill="none" stroke-width="6.0" stroke-linecap="round" stroke-linejoin="round" />
<path d="M 129.5 111.5 L 129.5 112.5 L 129.5 113.0 L 130.0 114.0 L 130.0 116.5 L 130.5 123.0 L 131.0 134.0 L 131.5 145.5 L 132.0 156.5 L 132.5 165.5 L 132.5 172.5 L 132.5 178.0 L 132.5 181.5 L 132.5 182.5 L 132.0 182.5 L 130.5 182.5 L 129.5 181.5 L 127.5 180.0 L 126.5 178.0 L 126.5 177.5 " stroke="black" fill="none" stroke-width="6.0" stroke-linecap="round" stroke-linejoin="round" />
<path d="M 118.5 165.5 L 118.0 165.5 L 118.0 165.5 L 119.5 165.0 L 124.5 163.0 L 131.5 160.0 L 137.5 156.5 L 140.0 153.5 " stroke="black" fill="none" stroke-width="6.0" stroke-linecap="round" stroke-linejoin="round" />
<path d="M 156.0 108.5 L 156.0 108.5 L 156.0 107.5 L 156.0 107.0 L 156.0 106.5 L 156.0 106.0 L 156.5 106.0 L 157.5 107.0 L 158.5 109.0 L 160.0 111.0 L 161.5 113.0 L 162.5 113.5 " stroke="black" fill="none" stroke-width="6.0" stroke-linecap="round" stroke-linejoin="round" />
<path d="M 147.5 121.0 L 146.5 121.0 L 146.0 121.0 L 150.0 121.5 L 155.5 121.5 L 162.5 121.0 L 168.0 120.5 L 171.5 119.5 L 172.5 119.0 L 172.5 119.0 " stroke="black" fill="none" stroke-width="6.0" stroke-linecap="round" stroke-linejoin="round" />
<path d="M 151.0 130.5 L 151.0 131.0 L 151.0 131.5 L 151.0 132.0 L 151.5 132.5 L 152.5 134.0 L 154.0 136.0 L 156.0 137.0 L 156.5 137.0 " stroke="black" fill="none" stroke-width="6.0" stroke-linecap="round" stroke-linejoin="round" />
<path d="M 170.0 128.0 L 170.0 127.5 L 169.5 127.5 L 169.5 127.5 L 169.5 127.5 L 168.5 129.0 L 167.0 132.0 L 166.5 133.5 " stroke="black" fill="none" stroke-width="6.0" stroke-linecap="round" stroke-linejoin="round" />
<path d="M 151.0 143.0 L 151.0 143.0 L 151.0 143.0 L 151.0 143.0 L 154.5 143.0 L 161.5 142.5 L 168.5 141.5 L 173.0 140.5 L 174.0 140.0 L 174.0 140.0 L 174.0 140.0 " stroke="black" fill="none" stroke-width="6.0" stroke-linecap="round" stroke-linejoin="round" />
<path d="M 160.0 147.0 L 160.5 146.5 L 161.0 145.5 L 161.5 145.0 L 161.5 145.0 L 161.5 145.5 L 160.5 147.5 L 158.5 151.5 L 156.5 155.5 L 154.0 160.0 L 152.5 163.0 L 152.5 164.5 L 153.5 165.5 L 156.0 166.5 L 159.0 168.5 L 162.5 170.5 L 166.0 172.0 L 168.5 173.5 L 170.0 174.0 L 171.0 174.5 L 171.0 174.5 " stroke="black" fill="none" stroke-width="6.0" stroke-linecap="round" stroke-linejoin="round" />
<path d="M 171.5 153.5 L 171.0 153.5 L 170.5 153.5 L 170.0 153.5 L 168.5 156.0 L 166.0 162.0 L 161.5 170.0 L 157.5 175.0 L 155.0 176.5 L 154.5 176.5 " stroke="black" fill="none" stroke-width="6.0" stroke-linecap="round" stroke-linejoin="round" />
<path d="M 149.0 160.5 L 149.5 160.5 L 151.0 160.5 L 156.5 160.0 L 166.0 158.5 L 173.0 157.0 L 176.0 156.5 L 177.0 156.0 " stroke="black" fill="none" stroke-width="6.0" stroke-linecap="round" stroke-linejoin="round" />
</svg>