<svg xmlns="http://www.w3.org/2000/svg" width="300" height="300" viewBox="0 0 300 300">
<path d="M 109.0 124.0 L 109.5 124.0 L 110.5 124.0 L 112.5 124.0 L 117.0 123.5 L 123.0 122.5 L 128.0 121.5 L 130.0 121.5 L 130.5 121.5 L 130.5 121.5 L 130.0 121.5 " stroke="black" fill="none" stroke-width="7.0" stroke-linecap="round" stroke-linejoin="round" />
<path d="M 121.0 107.0 L 121.0 107.5 L 120.0 108.0 L 120.0 109.0 L 120.0 110.0 L 120.5 113.0 L 121.5 119.5 L 122.5 130.0 L 123.5 144.0 L 124.0 158.0 L 125.0 170.0 L 125.5 178.5 L 125.0 185.0 L 124.0 188.5 L 122.5 189.5 L 120.5 189.5 L 118.5 188.0 L 116.0 185.0 L 113.5 180.5 L 112.5 178.0 " stroke="black" fill="none" stroke-width="7.0" stroke-linecap="round" stroke-linejoin="round" />
<path d="M 109.5 162.0 L 110.0 162.0 L 110.5 161.5 L 112.0 160.5 L 117.5 157.5 L 124.5 153.0 L 129.5 148.0 L 131.0 146.0 " stroke="black" fill="none" stroke-width="7.0" stroke-linecap="round" stroke-linejoin="round" />
<path d="M 152.0 101.5 L 152.0 101.5 L 151.5 101.0 L 151.0 101.0 L 151.5 102.0 L 153.0 105.0 L 154.5 108.0 L 156.0 110.5 L 157.0 112.0 L 157.0 112.0 " stroke="black" fill="none" stroke-width="7.0" stroke-linecap="round" stroke-linejoin="round" />
<path d="M 144.0 121.0 L 142.0 121.0 L 141.5 120.5 L 143.0 120.5 L 147.5 120.5 L 153.5 120.0 L 161.5 119.5 L 168.5 118.5 L 173.5 118.5 L 174.0 118.5 " stroke="black" fill="none" stroke-width="7.0" stroke-linecap="round" stroke-linejoin="round" />
<path d="M 147.0 131.0 L 146.5 131.5 L 146.0 132.0 L 146.0 132.5 L 147.0 133.0 L 148.5 134.0 L 151.0 135.0 L 153.0 136.5 L 154.0 137.0 " stroke="black" fill="none" stroke-width="7.0" stroke-linecap="round" stroke-linejoin="round" />
<path d="M 167.0 129.0 L 167.0 129.5 L 166.5 130.0 L 166.0 130.0 L 166.0 130.5 L 165.5 131.5 L 165.5 133.0 L 165.0 134.5 L 164.5 135.0 " stroke="black" fill="none" stroke-width="7.0" stroke-linecap="round" stroke-linejoin="round" />
<path d="M 145.0 144.0 L 143.5 143.5 L 142.0 143.5 L 142.0 143.5 L 143.0 144.0 L 147.5 144.5 L 153.5 144.0 L 161.0 143.0 L 166.0 142.0 L 168.5 142.0 L 169.0 143.0 L 169.0 144.0 " stroke="black" fill="none" stroke-width="7.0" stroke-linecap="round" stroke-linejoin="round" />
<path d="M 156.0 152.5 L 156.0 153.0 L 156.0 154.0 L 156.0 154.0 L 156.0 154.0 L 155.5 155.0 L 154.0 157.0 L 152.5 160.0 L 150.0 164.5 L 148.5 169.5 L 148.0 174.0 L 150.0 178.5 L 154.0 183.5 L 158.0 187.0 L 161.0 188.5 L 162.5 188.5 L 162.5 187.5 L 162.5 186.5 " stroke="black" fill="none" stroke-width="7.0" stroke-linecap="round" stroke-linejoin="round" />
<path d="M 167.0 163.5 L 166.5 163.0 L 166.0 163.0 L 165.5 163.0 L 164.5 163.0 L 164.0 164.0 L 162.0 166.5 L 159.0 171.5 L 154.0 178.0 L 148.5 184.0 L 145.0 186.0 L 144.5 185.5 " stroke="black" fill="none" stroke-width="7.0" stroke-linecap="round" stroke-linejoin="round" />
<path d="M 144.0 166.0 L 143.5 166.0 L 143.5 165.0 L 145.5 165.0 L 151.5 165.0 L 159.5 165.5 L 167.5 165.5 L 173.0 165.5 L 174.5 165.5 " stroke="black" fill="none" stroke-width="7.0" stroke-linecap="round" stroke-linejoin="round" />
</svg>