<svg xmlns="http://www.w3.org/2000/svg" width="300" height="300" viewBox="0 0 300 300">
<path d="M 132.5 115.0 L 132.5 115.0 L 133.0 115.0 L 133.0 115.0 L 133.0 115.5 L 134.0 118.0 L 134.5 124.0 L 135.5 129.5 L 135.5 132.5 L 136.0 133.0 L 135.5 133.0 " stroke="black" fill="none" stroke-width="6.0" stroke-linecap="round" stroke-linejoin="round" />
<path d="M 123.5 126.5 L 122.0 126.5 L 121.5 126.5 L 123.0 126.5 L 127.5 126.5 L 133.0 126.5 L 137.5 126.5 L 142.0 126.5 " stroke="black" fill="none" stroke-width="6.0" stroke-linecap="round" stroke-linejoin="round" />
<path d="M 165.5 113.0 L 165.5 113.0 L 165.0 113.0 L 165.0 113.0 L 165.0 113.5 L 165.0 116.5 L 165.0 121.5 L 165.0 127.0 L 165.0 131.0 L 166.0 132.5 " stroke="black" fill="none" stroke-width="6.0" stroke-linecap="round" stroke-linejoin="round" />
<path d="M 155.5 126.0 L 155.0 126.0 L 154.0 126.0 L 153.5 126.5 L 153.5 126.5 L 156.0 126.5 L 161.5 126.5 L 168.5 125.0 L 175.5 123.5 L 180.5 122.0 L 182.0 122.0 L 181.0 122.5 L 180.5 123.0 " stroke="black" fill="none" stroke-width="6.0" stroke-linecap="round" stroke-linejoin="round" />
<path d="M 143.0 146.0 L 143.5 146.0 L 144.0 145.5 L 145.0 145.0 L 145.5 144.5 L 146.0 143.5 L 146.5 143.5 L 146.5 143.5 L 144.0 145.0 L 140.0 149.0 L 134.0 153.5 L 128.0 157.5 L 124.5 160.0 L 124.0 160.0 L 125.0 159.0 L 127.0 157.0 " stroke="black" fill="none" stroke-width="6.0" stroke-linecap="round" stroke-linejoin="round" />
<path d="M 136.0 153.5 L 136.0 153.5 L 136.0 153.5 L 136.0 154.0 L 136.0 154.0 L 136.0 155.0 L 136.5 160.5 L 137.0 171.5 L 137.5 183.0 L 137.5 190.0 L 138.0 192.0 L 138.0 191.5 " stroke="black" fill="none" stroke-width="6.0" stroke-linecap="round" stroke-linejoin="round" />
<path d="M 168.5 152.0 L 169.0 152.0 L 170.0 152.0 L 171.0 151.5 L 171.0 151.5 L 171.5 152.0 L 170.0 155.0 L 166.5 160.5 L 163.5 166.0 L 161.0 168.5 L 160.5 168.5 " stroke="black" fill="none" stroke-width="6.0" stroke-linecap="round" stroke-linejoin="round" />
<path d="M 153.5 146.0 L 153.5 146.0 L 153.5 145.5 L 154.0 145.5 L 154.0 146.5 L 154.5 151.5 L 154.5 159.0 L 154.0 169.0 L 154.0 176.0 L 154.5 180.5 L 157.0 182.5 L 160.5 183.5 L 165.5 184.0 L 171.5 184.5 L 177.5 184.0 L 182.5 182.0 L 185.0 180.5 L 185.5 179.0 L 185.5 177.5 L 185.5 175.5 L 185.5 173.5 L 185.5 172.0 L 185.5 171.5 L 185.0 171.5 L 185.0 171.0 L 185.0 171.0 " stroke="black" fill="none" stroke-width="6.0" stroke-linecap="round" stroke-linejoin="round" />
</svg>