<svg xmlns="http://www.w3.org/2000/svg" width="300" height="300" viewBox="0 0 300 300">
<path d="M 132.5 107.0 L 132.5 107.0 L 133.5 107.5 L 134.0 108.0 L 134.5 110.5 L 135.5 116.0 L 135.5 121.5 L 136.0 125.0 L 136.5 126.0 L 136.5 126.0 " stroke="black" fill="none" stroke-width="6.0" stroke-linecap="round" stroke-linejoin="round" />
<path d="M 123.5 119.0 L 121.5 119.0 L 121.5 119.0 L 123.5 118.0 L 129.0 117.0 L 135.0 115.5 L 140.5 115.0 L 145.0 114.5 L 148.0 114.0 " stroke="black" fill="none" stroke-width="6.0" stroke-linecap="round" stroke-linejoin="round" />
<path d="M 166.0 104.0 L 165.5 104.0 L 165.0 103.5 L 165.0 103.0 L 165.0 102.5 L 165.5 102.5 L 166.0 104.0 L 166.5 108.0 L 167.0 114.0 L 167.0 119.0 L 167.5 122.0 L 168.0 122.5 " stroke="black" fill="none" stroke-width="6.0" stroke-linecap="round" stroke-linejoin="round" />
<path d="M 158.0 115.0 L 157.5 115.0 L 156.5 115.0 L 156.5 115.0 L 158.5 114.5 L 163.5 113.5 L 170.0 113.0 L 174.5 112.5 L 177.0 112.5 L 177.0 112.5 " stroke="black" fill="none" stroke-width="6.0" stroke-linecap="round" stroke-linejoin="round" />
<path d="M 143.0 134.5 L 143.5 134.0 L 144.5 133.5 L 145.0 133.0 L 145.0 132.5 L 145.0 132.5 L 145.0 132.5 L 143.5 135.0 L 140.0 140.0 L 135.5 145.0 L 130.0 150.0 L 126.0 152.5 L 124.5 153.0 L 124.5 152.5 L 125.0 152.0 " stroke="black" fill="none" stroke-width="6.0" stroke-linecap="round" stroke-linejoin="round" />
<path d="M 136.5 147.0 L 136.0 147.0 L 136.0 147.0 L 136.0 147.5 L 137.0 150.0 L 139.0 157.0 L 140.5 168.0 L 141.0 178.0 L 141.0 185.0 L 141.0 188.0 L 140.5 188.0 " stroke="black" fill="none" stroke-width="6.0" stroke-linecap="round" stroke-linejoin="round" />
<path d="M 173.5 142.5 L 174.0 142.0 L 174.5 141.5 L 174.5 141.0 L 175.0 141.0 L 173.5 144.5 L 170.5 150.5 L 167.5 156.5 L 165.0 159.5 L 164.0 158.5 " stroke="black" fill="none" stroke-width="6.0" stroke-linecap="round" stroke-linejoin="round" />
<path d="M 155.5 137.0 L 156.0 137.0 L 156.0 138.0 L 156.5 140.0 L 156.5 144.5 L 156.5 152.0 L 156.0 162.0 L 156.0 169.5 L 156.5 174.0 L 159.0 176.5 L 162.5 178.5 L 167.0 180.0 L 171.5 180.5 L 175.5 180.0 L 179.0 177.0 L 181.5 174.0 L 182.5 172.0 L 183.0 170.5 L 183.0 170.0 L 183.0 169.5 L 183.0 169.5 L 182.5 169.0 L 182.0 169.0 L 181.0 169.5 " stroke="black" fill="none" stroke-width="6.0" stroke-linecap="round" stroke-linejoin="round" />
</svg>