<svg xmlns="http://www.w3.org/2000/svg" width="300" height="300" viewBox="0 0 300 300">
<path d="M 131.0 109.5 L 131.5 109.5 L 132.0 109.5 L 132.5 109.5 L 132.5 110.0 L 133.0 112.0 L 133.0 118.0 L 133.0 124.5 L 133.0 128.5 L 133.0 130.5 L 133.0 130.5 " stroke="black" fill="none" stroke-width="6.0" stroke-linecap="round" stroke-linejoin="round" />
<path d="M 121.5 124.0 L 119.0 123.5 L 118.5 123.5 L 119.5 123.5 L 122.0 123.0 L 126.0 123.0 L 129.5 123.0 L 133.5 122.5 L 137.0 122.0 L 140.0 120.0 " stroke="black" fill="none" stroke-width="6.0" stroke-linecap="round" stroke-linejoin="round" />
<path d="M 159.5 107.0 L 159.5 107.0 L 159.5 107.0 L 159.5 107.0 L 159.5 107.5 L 159.5 110.0 L 160.5 115.5 L 160.5 122.5 L 160.5 127.5 L 160.5 129.0 L 160.5 129.0 " stroke="black" fill="none" stroke-width="6.0" stroke-linecap="round" stroke-linejoin="round" />
<path d="M 151.0 121.0 L 150.5 121.0 L 149.5 121.0 L 149.0 121.0 L 149.0 121.0 L 151.0 120.5 L 155.5 120.0 L 160.0 119.5 L 164.5 119.0 L 168.5 118.5 L 170.5 118.5 L 171.0 119.0 " stroke="black" fill="none" stroke-width="6.0" stroke-linecap="round" stroke-linejoin="round" />
<path d="M 135.5 140.5 L 135.0 140.0 L 135.0 139.0 L 135.0 138.5 L 135.0 138.0 L 135.0 137.0 L 135.5 137.0 L 136.5 136.5 L 137.0 136.0 L 138.0 136.0 L 139.0 136.0 L 139.5 136.0 L 140.0 136.0 L 139.5 138.0 L 136.5 142.5 L 132.0 149.0 L 126.5 154.0 L 122.5 156.5 L 121.0 157.0 L 120.5 157.0 L 120.5 156.5 " stroke="black" fill="none" stroke-width="6.0" stroke-linecap="round" stroke-linejoin="round" />
<path d="M 132.0 147.0 L 132.0 147.0 L 132.0 147.0 L 132.5 146.5 L 132.5 147.0 L 133.5 151.0 L 135.0 160.5 L 135.5 172.5 L 135.5 180.5 L 135.0 184.5 L 135.0 185.0 L 135.0 184.5 L 134.5 183.0 " stroke="black" fill="none" stroke-width="6.0" stroke-linecap="round" stroke-linejoin="round" />
<path d="M 166.5 144.0 L 166.5 143.5 L 166.5 143.0 L 166.5 143.0 L 166.5 143.0 L 166.0 145.0 L 163.5 149.0 L 160.5 154.0 L 158.0 158.0 L 156.0 159.5 " stroke="black" fill="none" stroke-width="6.0" stroke-linecap="round" stroke-linejoin="round" />
<path d="M 151.5 139.0 L 151.5 138.5 L 151.0 138.0 L 151.0 138.0 L 150.5 140.5 L 150.5 146.0 L 149.5 155.0 L 148.5 164.5 L 148.5 171.5 L 150.0 175.0 L 153.5 176.0 L 158.0 176.5 L 163.5 175.5 L 169.0 174.5 L 174.5 173.0 L 177.5 171.5 L 178.5 169.5 L 178.5 167.5 L 178.0 164.5 L 177.5 163.0 L 177.0 162.0 L 177.0 162.0 L 177.0 162.0 L 177.0 162.0 " stroke="black" fill="none" stroke-width="6.0" stroke-linecap="round" stroke-linejoin="round" />
</svg>