<svg xmlns="http://www.w3.org/2000/svg" width="300" height="300" viewBox="0 0 300 300">
<path d="M 131.0 109.5 L 131.0 109.5 L 131.0 109.5 L 131.0 109.0 L 131.0 109.0 L 131.0 109.0 L 131.0 110.0 L 131.0 113.5 L 131.0 118.0 L 131.0 122.5 L 131.0 123.5 " stroke="black" fill="none" stroke-width="6.0" stroke-linecap="round" stroke-linejoin="round" />
<path d="M 120.5 114.5 L 119.5 115.0 L 119.0 115.0 L 119.5 115.0 L 122.5 115.5 L 127.0 116.0 L 131.0 116.5 L 133.0 116.5 " stroke="black" fill="none" stroke-width="6.0" stroke-linecap="round" stroke-linejoin="round" />
<path d="M 147.0 106.0 L 146.5 106.5 L 146.0 106.5 L 145.5 107.0 L 145.5 107.5 L 145.5 109.5 L 145.5 113.5 L 145.5 118.0 L 146.0 121.5 L 146.5 122.5 " stroke="black" fill="none" stroke-width="6.0" stroke-linecap="round" stroke-linejoin="round" />
<path d="M 147.0 115.5 L 146.5 116.0 L 146.5 116.5 L 147.5 116.5 L 151.0 116.5 L 155.0 115.5 L 158.5 115.0 L 160.5 113.5 " stroke="black" fill="none" stroke-width="6.0" stroke-linecap="round" stroke-linejoin="round" />
<path d="M 122.5 131.0 L 122.5 131.0 L 122.5 131.0 L 122.5 131.0 L 122.0 131.0 L 122.0 133.0 L 122.5 135.5 L 123.5 137.5 L 124.0 138.5 " stroke="black" fill="none" stroke-width="6.0" stroke-linecap="round" stroke-linejoin="round" />
<path d="M 124.5 131.5 L 124.5 132.0 L 123.5 132.5 L 123.0 132.5 L 124.0 132.0 L 127.0 131.0 L 129.5 130.5 L 132.0 130.0 L 134.0 130.0 L 135.5 131.0 L 136.0 132.5 L 136.0 135.0 L 135.5 137.5 L 134.5 139.0 L 133.5 140.0 L 133.0 140.5 " stroke="black" fill="none" stroke-width="6.0" stroke-linecap="round" stroke-linejoin="round" />
<path d="M 126.5 142.0 L 126.5 142.0 L 125.5 141.5 L 125.5 141.0 L 127.5 140.5 L 130.0 140.5 L 132.5 140.5 L 133.5 140.5 " stroke="black" fill="none" stroke-width="6.0" stroke-linecap="round" stroke-linejoin="round" />
<path d="M 146.5 130.5 L 146.5 130.5 L 146.0 130.5 L 146.0 130.5 L 146.0 131.0 L 146.0 132.0 L 146.0 134.5 L 146.0 138.5 L 147.0 141.5 L 147.0 142.5 " stroke="black" fill="none" stroke-width="6.0" stroke-linecap="round" stroke-linejoin="round" />
<path d="M 147.0 131.5 L 146.5 132.0 L 146.5 132.0 L 147.0 132.0 L 148.5 131.0 L 150.5 130.5 L 153.0 130.5 L 155.0 130.0 L 157.0 130.0 L 158.5 130.5 L 159.5 131.5 L 159.5 133.0 L 159.5 135.5 L 159.5 137.5 L 158.5 139.5 L 157.0 141.0 " stroke="black" fill="none" stroke-width="6.0" stroke-linecap="round" stroke-linejoin="round" />
<path d="M 150.0 143.5 L 150.0 143.5 L 150.0 142.5 L 150.0 142.0 L 151.0 141.5 L 153.0 141.5 L 155.0 141.5 L 155.5 142.0 " stroke="black" fill="none" stroke-width="6.0" stroke-linecap="round" stroke-linejoin="round" />
<path d="M 132.0 150.5 L 133.0 151.0 L 133.5 151.0 L 134.0 151.0 L 134.5 150.5 L 134.5 150.5 L 134.0 151.0 L 132.0 154.0 L 129.0 157.5 L 126.0 160.5 L 123.0 162.0 L 122.5 162.5 L 122.5 162.5 " stroke="black" fill="none" stroke-width="6.0" stroke-linecap="round" stroke-linejoin="round" />
<path d="M 128.5 157.0 L 129.0 157.0 L 129.5 158.0 L 129.5 158.0 L 130.0 159.0 L 131.0 162.0 L 131.5 168.5 L 132.0 178.0 L 131.5 186.0 L 131.0 190.0 L 131.0 190.0 L 131.0 188.5 " stroke="black" fill="none" stroke-width="6.0" stroke-linecap="round" stroke-linejoin="round" />
<path d="M 143.0 150.0 L 143.0 150.5 L 142.5 151.0 L 142.5 151.0 L 142.5 151.5 L 142.5 152.0 L 143.5 153.5 L 144.5 155.0 L 145.0 156.0 L 145.0 156.0 " stroke="black" fill="none" stroke-width="6.0" stroke-linecap="round" stroke-linejoin="round" />
<path d="M 137.0 163.5 L 137.0 163.5 L 136.5 163.0 L 136.5 162.5 L 136.5 162.5 L 138.0 162.0 L 141.0 162.0 L 144.0 162.0 L 146.5 162.0 L 147.5 162.0 " stroke="black" fill="none" stroke-width="6.0" stroke-linecap="round" stroke-linejoin="round" />
<path d="M 139.5 173.0 L 138.5 173.5 L 138.0 174.0 L 138.0 174.0 L 138.5 173.5 L 141.0 173.0 L 143.5 173.0 L 146.0 172.5 L 148.0 172.5 L 148.5 172.5 " stroke="black" fill="none" stroke-width="6.0" stroke-linecap="round" stroke-linejoin="round" />
<path d="M 138.5 183.5 L 138.5 183.5 L 139.0 183.5 L 139.0 183.5 L 140.0 183.5 L 142.0 183.0 L 144.5 183.0 L 147.0 182.5 L 149.0 182.0 " stroke="black" fill="none" stroke-width="6.0" stroke-linecap="round" stroke-linejoin="round" />
<path d="M 142.5 163.5 L 142.5 163.5 L 141.5 163.0 L 141.5 163.0 L 141.5 164.5 L 142.0 168.5 L 143.0 174.5 L 143.5 180.5 L 143.5 185.5 L 143.5 188.5 L 144.0 189.5 " stroke="black" fill="none" stroke-width="6.0" stroke-linecap="round" stroke-linejoin="round" />
<path d="M 139.0 192.5 L 139.0 193.5 L 138.5 194.5 L 138.5 194.5 L 140.0 194.0 L 142.5 193.5 L 145.0 192.5 L 147.5 192.5 L 150.0 192.0 " stroke="black" fill="none" stroke-width="6.0" stroke-linecap="round" stroke-linejoin="round" />
<path d="M 173.5 117.5 L 173.5 117.0 L 173.5 116.5 L 174.0 116.5 L 174.0 116.0 L 174.0 119.5 L 172.5 126.5 L 170.0 136.0 L 168.0 142.5 L 167.5 143.5 L 168.0 142.0 " stroke="black" fill="none" stroke-width="6.0" stroke-linecap="round" stroke-linejoin="round" />
<path d="M 171.5 130.0 L 171.5 132.0 L 171.0 132.5 L 172.5 132.0 L 175.5 130.5 L 179.5 128.5 L 184.0 127.0 L 188.0 126.5 L 190.5 126.0 L 192.0 126.0 L 192.0 126.5 L 191.5 128.0 L 191.0 130.5 L 190.5 133.5 L 190.5 137.0 L 190.0 140.0 L 189.5 142.0 L 189.5 143.5 " stroke="black" fill="none" stroke-width="6.0" stroke-linecap="round" stroke-linejoin="round" />
<path d="M 179.0 141.5 L 179.0 141.5 L 179.5 140.0 L 180.0 139.0 L 180.0 139.0 L 180.0 139.0 L 179.5 141.5 L 178.0 146.5 L 176.0 153.5 L 172.0 163.0 L 167.5 172.0 L 165.0 175.5 L 165.0 176.0 L 165.0 176.0 L 165.0 174.0 " stroke="black" fill="none" stroke-width="6.0" stroke-linecap="round" stroke-linejoin="round" />
<path d="M 171.5 162.5 L 171.5 162.5 L 171.5 162.5 L 171.5 162.5 L 174.0 164.5 L 178.5 167.5 L 184.5 171.5 L 190.5 174.0 L 195.5 174.0 L 196.5 173.5 " stroke="black" fill="none" stroke-width="6.0" stroke-linecap="round" stroke-linejoin="round" />
</svg>