<svg xmlns="http://www.w3.org/2000/svg" width="300" height="300" viewBox="0 0 300 300">
<path d="M 117.0 126.0 L 117.0 126.0 L 117.0 126.0 L 116.5 126.0 L 116.0 126.0 L 116.0 126.0 L 116.5 126.0 L 121.5 126.0 L 127.5 126.5 L 133.0 127.0 L 137.5 127.5 L 140.0 128.0 L 141.5 128.0 L 142.5 128.0 L 143.0 128.0 L 144.0 128.0 L 145.0 128.0 L 145.0 128.0 " stroke="black" fill="none" stroke-width="6.0" stroke-linecap="round" stroke-linejoin="round" />
<path d="M 126.5 117.5 L 126.5 117.5 L 126.0 117.5 L 126.0 118.0 L 125.5 120.5 L 125.5 127.0 L 126.0 134.0 L 127.0 136.5 L 127.5 136.5 " stroke="black" fill="none" stroke-width="6.0" stroke-linecap="round" stroke-linejoin="round" />
<path d="M 138.0 116.0 L 139.0 116.0 L 139.5 116.0 L 139.5 117.0 L 139.0 119.5 L 138.5 124.5 L 137.5 130.0 L 137.0 133.5 L 136.5 135.0 " stroke="black" fill="none" stroke-width="6.0" stroke-linecap="round" stroke-linejoin="round" />
<path d="M 117.5 141.5 L 117.0 141.5 L 117.0 141.0 L 117.0 140.5 L 117.0 140.5 L 117.5 140.0 L 120.0 140.0 L 124.5 139.5 L 131.0 139.5 L 137.0 139.5 L 142.0 139.5 L 143.5 139.0 L 143.5 139.0 L 142.0 139.0 L 141.5 139.0 " stroke="black" fill="none" stroke-width="6.0" stroke-linecap="round" stroke-linejoin="round" />
<path d="M 120.0 151.0 L 120.0 150.5 L 120.0 150.5 L 120.5 150.5 L 120.5 151.5 L 121.5 154.5 L 122.5 161.0 L 123.0 171.0 L 123.0 179.0 L 123.0 183.5 L 123.0 184.0 L 123.0 181.5 " stroke="black" fill="none" stroke-width="6.0" stroke-linecap="round" stroke-linejoin="round" />
<path d="M 127.0 150.0 L 127.0 150.0 L 126.5 150.5 L 126.5 150.5 L 126.5 150.5 L 128.5 151.0 L 131.0 151.0 L 134.0 151.5 L 137.0 151.5 L 139.5 151.5 L 140.5 152.0 L 141.5 152.0 L 141.5 153.0 L 142.0 153.5 L 142.5 155.0 L 142.5 156.5 L 143.0 158.5 L 143.0 161.0 L 143.5 164.0 L 144.0 168.0 L 144.0 172.0 L 144.5 176.5 L 145.0 181.0 L 145.0 185.5 L 145.0 188.5 L 145.0 191.0 L 145.0 192.0 L 144.5 192.5 L 143.0 191.5 L 141.0 189.0 " stroke="black" fill="none" stroke-width="6.0" stroke-linecap="round" stroke-linejoin="round" />
<path d="M 131.0 164.5 L 131.0 163.5 L 131.0 162.5 L 131.0 162.0 L 131.5 162.0 L 132.5 162.5 L 133.5 163.5 L 134.5 165.0 L 135.0 165.5 " stroke="black" fill="none" stroke-width="6.0" stroke-linecap="round" stroke-linejoin="round" />
<path d="M 129.5 182.5 L 129.5 182.5 L 130.5 181.0 L 132.0 180.0 L 134.0 178.5 L 136.5 176.5 L 138.5 174.0 " stroke="black" fill="none" stroke-width="6.0" stroke-linecap="round" stroke-linejoin="round" />
<path d="M 157.5 120.0 L 158.5 119.0 L 159.0 119.0 L 159.0 119.0 L 159.0 119.0 L 159.0 120.5 L 159.0 124.5 L 157.5 131.5 L 155.0 139.5 L 153.0 144.0 L 152.5 145.0 L 152.0 144.0 " stroke="black" fill="none" stroke-width="6.0" stroke-linecap="round" stroke-linejoin="round" />
<path d="M 156.0 133.0 L 156.5 134.0 L 156.5 134.0 L 157.5 134.0 L 161.0 133.5 L 166.5 131.5 L 172.5 129.5 L 177.5 128.5 L 179.5 128.5 L 180.0 128.5 L 179.5 128.5 " stroke="black" fill="none" stroke-width="6.0" stroke-linecap="round" stroke-linejoin="round" />
<path d="M 175.5 134.5 L 175.5 135.0 L 176.0 135.0 L 176.5 135.5 L 176.5 135.5 L 176.5 135.5 L 176.5 136.5 L 176.5 138.5 L 176.0 143.0 L 174.5 151.0 L 171.5 160.5 L 167.5 170.5 L 163.0 178.5 L 160.5 182.5 L 158.5 185.0 L 157.5 187.0 L 157.0 187.5 L 155.5 187.5 L 155.0 187.5 " stroke="black" fill="none" stroke-width="6.0" stroke-linecap="round" stroke-linejoin="round" />
<path d="M 154.5 153.5 L 154.5 153.5 L 154.5 153.5 L 155.0 153.5 L 155.0 153.5 L 156.0 153.5 L 159.0 155.0 L 164.0 159.5 L 171.5 166.0 L 179.0 172.0 L 184.5 175.5 L 188.5 177.0 L 190.0 177.5 L 190.5 177.5 " stroke="black" fill="none" stroke-width="6.0" stroke-linecap="round" stroke-linejoin="round" />
</svg>