<svg xmlns="http://www.w3.org/2000/svg" width="300" height="300" viewBox="0 0 300 300">
<path d="M 118.0 119.5 L 118.5 119.5 L 119.0 119.5 L 119.5 119.5 L 121.5 119.0 L 125.5 118.0 L 132.0 117.0 L 140.5 116.0 L 146.0 115.5 L 148.5 115.0 L 148.5 115.0 L 147.5 115.0 L 146.5 114.5 L 146.0 114.5 " stroke="black" fill="none" stroke-width="6.0" stroke-linecap="round" stroke-linejoin="round" />
<path d="M 128.0 109.0 L 128.0 109.0 L 127.5 108.5 L 127.0 108.5 L 127.0 108.5 L 127.0 109.5 L 128.0 114.0 L 129.0 119.5 L 129.5 124.5 L 130.0 126.5 L 130.0 126.5 " stroke="black" fill="none" stroke-width="6.0" stroke-linecap="round" stroke-linejoin="round" />
<path d="M 138.0 107.0 L 138.5 107.0 L 138.5 107.0 L 138.5 108.0 L 139.5 110.5 L 140.0 116.5 L 140.5 123.0 L 140.5 128.0 L 140.0 129.0 L 139.5 129.0 " stroke="black" fill="none" stroke-width="6.0" stroke-linecap="round" stroke-linejoin="round" />
<path d="M 122.5 135.0 L 121.0 135.0 L 120.5 135.5 L 121.0 135.5 L 124.0 135.0 L 128.5 134.5 L 134.5 134.5 L 141.0 134.0 L 147.0 134.0 L 149.5 134.5 L 149.5 135.5 L 149.0 135.5 " stroke="black" fill="none" stroke-width="6.0" stroke-linecap="round" stroke-linejoin="round" />
<path d="M 126.5 148.0 L 126.0 147.0 L 126.0 146.5 L 126.0 146.5 L 126.0 146.5 L 127.0 149.5 L 128.0 156.0 L 128.5 165.5 L 128.5 176.5 L 128.5 183.0 L 128.5 185.0 L 128.5 184.0 L 128.5 182.5 " stroke="black" fill="none" stroke-width="6.0" stroke-linecap="round" stroke-linejoin="round" />
<path d="M 130.5 149.0 L 130.5 149.0 L 130.0 149.0 L 129.5 149.0 L 129.5 148.5 L 130.5 148.5 L 132.5 148.0 L 136.0 148.0 L 139.5 147.5 L 143.0 147.5 L 145.5 147.0 L 147.5 147.0 L 148.5 147.0 L 149.0 148.0 L 149.0 149.0 L 148.5 151.0 L 148.5 154.0 L 148.0 158.0 L 148.0 163.5 L 148.0 169.5 L 148.0 175.0 L 148.5 180.0 L 149.0 184.0 L 149.5 187.0 L 149.5 189.0 L 149.0 190.0 L 148.5 190.0 L 147.5 188.0 L 146.5 183.5 " stroke="black" fill="none" stroke-width="6.0" stroke-linecap="round" stroke-linejoin="round" />
<path d="M 137.5 159.0 L 137.0 159.0 L 136.5 159.0 L 136.0 159.0 L 136.5 159.0 L 138.0 159.5 L 139.5 160.5 L 141.0 162.0 L 141.5 163.0 " stroke="black" fill="none" stroke-width="6.0" stroke-linecap="round" stroke-linejoin="round" />
<path d="M 136.0 171.5 L 135.5 172.5 L 134.5 173.0 L 135.0 173.0 L 137.0 171.5 L 139.5 168.0 L 142.0 164.0 L 142.5 162.5 " stroke="black" fill="none" stroke-width="6.0" stroke-linecap="round" stroke-linejoin="round" />
<path d="M 164.5 119.5 L 164.0 119.5 L 163.0 119.0 L 163.0 119.0 L 162.5 119.5 L 162.5 124.0 L 161.5 131.0 L 160.5 137.5 L 160.0 140.5 L 160.0 140.5 " stroke="black" fill="none" stroke-width="6.0" stroke-linecap="round" stroke-linejoin="round" />
<path d="M 161.0 131.5 L 161.0 131.5 L 160.5 132.0 L 160.5 132.0 L 161.5 132.0 L 165.5 132.0 L 170.0 131.0 L 174.0 130.5 L 177.0 130.0 L 178.5 129.5 L 179.0 129.5 L 178.5 129.5 L 178.0 129.5 " stroke="black" fill="none" stroke-width="6.0" stroke-linecap="round" stroke-linejoin="round" />
<path d="M 172.5 133.0 L 173.0 133.0 L 173.5 133.0 L 173.5 133.0 L 174.0 134.0 L 174.0 136.5 L 172.5 144.0 L 168.5 156.5 L 164.5 168.5 L 163.0 174.0 L 162.0 177.0 L 161.0 178.5 L 160.5 178.5 L 159.0 177.0 L 159.0 176.5 " stroke="black" fill="none" stroke-width="6.0" stroke-linecap="round" stroke-linejoin="round" />
<path d="M 160.0 151.0 L 160.0 151.0 L 159.5 151.0 L 159.5 151.5 L 163.0 153.5 L 169.5 159.0 L 177.0 168.0 L 183.5 176.5 L 187.0 180.0 L 188.0 180.0 L 188.5 178.5 " stroke="black" fill="none" stroke-width="6.0" stroke-linecap="round" stroke-linejoin="round" />
</svg>