<svg xmlns="http://www.w3.org/2000/svg" width="300" height="300" viewBox="0 0 300 300">
<path d="M 135.0 100.0 L 135.0 100.0 L 135.5 99.5 L 135.5 99.5 L 135.5 100.5 L 135.5 104.5 L 135.5 110.0 L 135.5 115.0 L 135.0 117.0 " stroke="black" fill="none" stroke-width="6.0" stroke-linecap="round" stroke-linejoin="round" />
<path d="M 125.0 110.5 L 124.0 111.5 L 123.5 112.0 L 124.5 112.0 L 127.5 112.0 L 131.5 112.0 L 135.5 111.5 L 141.5 111.0 L 146.5 110.0 " stroke="black" fill="none" stroke-width="6.0" stroke-linecap="round" stroke-linejoin="round" />
<path d="M 162.5 103.0 L 162.5 102.0 L 162.0 101.5 L 162.0 101.0 L 162.0 101.0 L 162.0 102.0 L 162.5 105.5 L 162.5 110.5 L 163.0 115.5 L 163.5 118.5 L 163.5 118.5 " stroke="black" fill="none" stroke-width="6.0" stroke-linecap="round" stroke-linejoin="round" />
<path d="M 156.5 109.5 L 156.5 110.5 L 156.5 111.0 L 156.5 111.0 L 158.0 111.0 L 161.5 111.0 L 166.5 110.5 L 172.5 110.0 L 177.5 109.5 L 179.0 109.5 " stroke="black" fill="none" stroke-width="6.0" stroke-linecap="round" stroke-linejoin="round" />
<path d="M 121.5 129.5 L 121.5 129.5 L 121.0 129.5 L 121.0 129.5 L 121.0 129.5 L 121.0 129.5 L 123.0 131.5 L 125.0 134.5 L 127.0 137.5 L 127.5 139.0 " stroke="black" fill="none" stroke-width="6.0" stroke-linecap="round" stroke-linejoin="round" />
<path d="M 121.5 145.5 L 121.0 145.5 L 120.0 145.5 L 120.0 146.5 L 121.0 147.5 L 123.0 149.5 L 124.5 151.5 L 126.0 154.0 L 126.5 155.0 " stroke="black" fill="none" stroke-width="6.0" stroke-linecap="round" stroke-linejoin="round" />
<path d="M 120.5 188.0 L 120.5 188.0 L 120.5 187.5 L 120.5 187.0 L 121.0 187.0 L 122.5 185.5 L 126.0 182.0 L 131.0 175.5 L 132.0 174.0 " stroke="black" fill="none" stroke-width="6.0" stroke-linecap="round" stroke-linejoin="round" />
<path d="M 140.0 133.0 L 140.0 133.0 L 140.0 133.5 L 140.5 133.5 L 141.5 134.0 L 145.5 134.0 L 151.5 133.5 L 158.5 133.0 L 164.5 132.5 L 168.5 132.5 L 169.0 132.5 " stroke="black" fill="none" stroke-width="6.0" stroke-linecap="round" stroke-linejoin="round" />
<path d="M 142.0 145.5 L 142.0 145.0 L 142.0 144.0 L 142.0 144.0 L 142.0 145.5 L 142.0 149.5 L 143.0 153.5 L 143.0 156.5 L 143.5 157.5 " stroke="black" fill="none" stroke-width="6.0" stroke-linecap="round" stroke-linejoin="round" />
<path d="M 141.5 145.5 L 142.0 144.0 L 142.0 143.5 L 143.5 143.0 L 147.5 143.0 L 153.5 143.0 L 160.0 142.0 L 166.5 141.0 L 170.0 140.5 L 171.5 140.5 L 171.5 141.5 L 171.0 143.0 L 171.0 144.0 L 171.0 146.0 L 170.5 148.5 L 170.0 152.0 L 169.0 155.5 L 168.5 157.5 L 168.0 158.0 " stroke="black" fill="none" stroke-width="6.0" stroke-linecap="round" stroke-linejoin="round" />
<path d="M 148.0 153.0 L 147.5 153.0 L 146.5 153.0 L 146.5 153.0 L 148.0 152.5 L 151.5 152.0 L 155.5 151.5 L 159.0 151.5 L 162.0 151.5 " stroke="black" fill="none" stroke-width="6.0" stroke-linecap="round" stroke-linejoin="round" />
<path d="M 143.5 162.0 L 143.0 161.5 L 142.5 161.0 L 143.0 161.0 L 147.5 160.5 L 154.0 160.0 L 162.0 160.0 L 168.0 160.0 L 170.5 160.0 " stroke="black" fill="none" stroke-width="6.0" stroke-linecap="round" stroke-linejoin="round" />
<path d="M 154.5 128.0 L 155.0 127.5 L 155.5 127.0 L 155.5 127.0 L 155.5 127.0 L 156.0 127.0 L 156.5 127.5 L 156.5 129.5 L 157.0 132.5 L 157.0 137.0 L 157.0 142.0 L 156.5 147.0 L 156.5 152.0 L 156.0 156.0 L 156.0 159.5 L 156.0 162.5 L 156.0 164.5 L 156.0 166.0 L 156.0 167.5 L 156.0 169.0 L 156.0 170.5 L 156.0 171.5 L 156.0 171.5 L 156.5 171.5 L 156.5 171.0 " stroke="black" fill="none" stroke-width="6.0" stroke-linecap="round" stroke-linejoin="round" />
<path d="M 143.5 173.0 L 143.0 172.5 L 142.5 172.0 L 143.0 172.0 L 146.0 171.5 L 150.5 170.5 L 156.5 170.5 L 163.0 170.0 L 168.5 170.0 L 171.0 169.5 " stroke="black" fill="none" stroke-width="6.0" stroke-linecap="round" stroke-linejoin="round" />
<path d="M 170.5 166.5 L 169.5 166.5 L 169.0 166.5 L 169.5 166.5 L 171.0 167.0 L 173.0 169.5 L 174.5 173.0 L 176.0 175.5 L 176.5 176.5 " stroke="black" fill="none" stroke-width="6.0" stroke-linecap="round" stroke-linejoin="round" />
<path d="M 143.0 185.0 L 141.0 184.5 L 140.0 184.0 L 140.0 184.0 L 142.0 183.5 L 146.0 183.0 L 150.5 183.0 L 155.0 183.0 L 160.5 183.5 L 165.0 184.0 L 168.0 184.0 L 169.0 183.5 L 169.0 183.5 " stroke="black" fill="none" stroke-width="6.0" stroke-linecap="round" stroke-linejoin="round" />
<path d="M 163.0 177.5 L 163.0 177.5 L 162.0 178.0 L 162.0 178.0 L 162.0 178.5 L 162.0 180.5 L 163.5 185.0 L 164.5 191.5 L 164.5 197.0 L 164.5 200.5 L 164.5 202.5 L 163.0 203.0 L 161.0 203.0 L 159.5 201.5 L 158.5 200.0 " stroke="black" fill="none" stroke-width="6.0" stroke-linecap="round" stroke-linejoin="round" />
<path d="M 147.5 191.5 L 146.5 191.0 L 145.5 190.5 L 145.5 190.5 L 147.0 192.0 L 150.0 193.0 L 151.0 193.0 " stroke="black" fill="none" stroke-width="6.0" stroke-linecap="round" stroke-linejoin="round" />
</svg>