<svg xmlns="http://www.w3.org/2000/svg" width="300" height="300" viewBox="0 0 300 300">
<path d="M 134.5 125.5 L 134.5 125.5 L 134.5 125.5 L 135.0 126.5 L 136.5 133.0 L 138.5 144.0 L 138.5 153.5 L 138.5 156.5 L 138.5 155.5 L 138.5 153.0 " stroke="black" fill="none" stroke-width="6.0" stroke-linecap="round" stroke-linejoin="round" />
<path d="M 134.5 125.5 L 133.5 125.5 L 132.5 125.5 L 132.5 125.5 L 134.0 125.5 L 138.5 126.0 L 145.0 126.0 L 154.0 126.0 L 164.5 125.0 L 174.5 124.5 L 178.5 124.0 L 179.5 124.0 L 179.0 124.5 L 178.5 124.5 L 178.0 125.0 L 178.0 126.0 L 177.5 128.0 L 176.5 131.0 L 175.5 136.0 L 174.0 143.5 L 172.5 150.5 L 171.5 155.0 L 171.5 155.5 L 171.5 154.0 L 171.5 153.0 " stroke="black" fill="none" stroke-width="6.0" stroke-linecap="round" stroke-linejoin="round" />
<path d="M 140.5 157.5 L 140.0 158.0 L 138.5 158.5 L 138.5 159.0 L 142.5 159.0 L 150.5 159.0 L 160.5 157.5 L 168.5 156.5 L 170.0 156.0 " stroke="black" fill="none" stroke-width="6.0" stroke-linecap="round" stroke-linejoin="round" />
<path d="M 160.5 105.5 L 160.0 106.0 L 159.5 106.5 L 159.0 107.0 L 158.5 108.0 L 158.0 111.5 L 157.5 119.5 L 156.5 131.5 L 156.0 145.5 L 155.5 158.0 L 156.0 167.0 L 156.5 175.0 L 156.5 181.0 L 156.0 185.5 L 155.5 188.0 L 155.0 189.5 L 155.0 190.0 L 155.0 190.0 L 155.0 190.5 L 155.0 191.0 L 155.0 191.5 L 155.0 192.5 L 155.0 193.0 L 155.0 193.5 L 155.0 193.5 L 155.0 193.5 L 155.0 194.0 L 155.0 194.0 L 155.0 194.0 L 155.0 194.0 L 155.0 194.0 L 155.0 194.0 L 155.0 194.0 " stroke="black" fill="none" stroke-width="6.0" stroke-linecap="round" stroke-linejoin="round" />
</svg>