<svg xmlns="http://www.w3.org/2000/svg" width="300" height="300" viewBox="0 0 300 300">
<path d="M 131.5 105.0 L 132.5 104.0 L 133.0 103.0 L 133.0 102.5 L 133.5 102.5 L 133.5 103.5 L 133.0 108.0 L 130.5 115.0 L 126.0 123.5 L 123.0 128.0 L 122.0 128.0 L 122.0 126.0 " stroke="black" fill="none" stroke-width="6.0" stroke-linecap="round" stroke-linejoin="round" />
<path d="M 130.5 119.0 L 130.5 120.0 L 130.5 120.5 L 132.5 121.0 L 138.5 121.0 L 147.0 120.5 L 154.5 119.5 L 159.5 118.5 L 162.0 118.5 L 162.5 119.0 " stroke="black" fill="none" stroke-width="6.0" stroke-linecap="round" stroke-linejoin="round" />
<path d="M 147.0 107.5 L 146.0 107.5 L 145.5 107.5 L 145.5 108.0 L 145.5 111.0 L 146.0 118.5 L 146.0 127.5 L 146.0 134.0 L 146.0 136.5 " stroke="black" fill="none" stroke-width="6.0" stroke-linecap="round" stroke-linejoin="round" />
<path d="M 123.5 142.5 L 122.5 142.0 L 122.0 141.5 L 123.5 141.0 L 127.5 140.0 L 133.5 140.0 L 142.5 139.5 L 152.0 139.0 L 158.5 138.5 L 161.5 138.0 " stroke="black" fill="none" stroke-width="6.0" stroke-linecap="round" stroke-linejoin="round" />
<path d="M 129.0 154.5 L 129.0 153.5 L 129.0 153.0 L 129.5 153.0 L 130.0 155.5 L 130.5 162.0 L 131.0 169.0 L 131.0 173.5 L 131.5 174.0 " stroke="black" fill="none" stroke-width="6.0" stroke-linecap="round" stroke-linejoin="round" />
<path d="M 131.0 154.0 L 131.0 154.0 L 131.0 154.5 L 131.0 154.5 L 133.5 154.5 L 139.5 154.0 L 148.0 152.5 L 155.0 151.5 L 161.0 151.0 L 164.5 150.5 L 165.5 151.5 L 165.0 152.5 L 164.0 153.5 L 163.5 155.0 L 162.5 157.0 L 161.0 160.0 L 160.0 164.5 L 159.0 168.5 L 158.5 171.5 L 158.5 172.0 " stroke="black" fill="none" stroke-width="6.0" stroke-linecap="round" stroke-linejoin="round" />
<path d="M 135.0 175.5 L 134.0 175.5 L 133.5 175.0 L 134.5 175.0 L 138.5 175.0 L 143.5 176.0 L 150.0 177.0 L 155.5 177.5 L 158.0 177.5 " stroke="black" fill="none" stroke-width="6.0" stroke-linecap="round" stroke-linejoin="round" />
</svg>