<svg xmlns="http://www.w3.org/2000/svg" width="300" height="300" viewBox="0 0 300 300">
<path d="M 148.0 112.0 L 148.0 112.0 L 148.0 112.0 L 148.0 112.0 L 148.0 112.5 L 148.0 114.5 L 148.0 123.0 L 147.0 136.0 L 145.0 145.5 L 144.5 148.0 L 144.5 147.5 L 144.5 145.0 L 144.5 144.0 " stroke="black" fill="none" stroke-width="6.0" stroke-linecap="round" stroke-linejoin="round" />
<path d="M 132.0 123.0 L 132.5 122.5 L 132.5 121.5 L 132.5 121.5 L 132.5 121.5 L 132.0 123.0 L 131.5 127.0 L 131.5 133.5 L 131.0 141.0 L 131.0 147.0 L 133.0 149.5 L 136.0 149.5 L 141.0 149.0 L 146.0 148.0 L 151.5 147.0 L 156.0 146.0 L 161.0 145.0 L 164.5 144.5 L 165.0 144.5 " stroke="black" fill="none" stroke-width="6.0" stroke-linecap="round" stroke-linejoin="round" />
<path d="M 167.5 123.0 L 167.0 123.0 L 166.5 123.0 L 166.5 123.0 L 166.0 123.0 L 166.0 124.5 L 166.0 129.5 L 165.5 138.5 L 165.0 147.0 L 165.0 151.0 L 165.5 151.0 L 165.5 151.0 " stroke="black" fill="none" stroke-width="6.0" stroke-linecap="round" stroke-linejoin="round" />
<path d="M 146.5 153.0 L 146.0 153.0 L 145.0 153.0 L 145.0 152.5 L 145.0 151.5 L 145.0 151.5 L 145.0 151.5 L 145.5 153.0 L 146.0 158.0 L 146.5 166.5 L 147.0 175.0 L 147.0 179.0 L 147.0 180.0 L 147.0 178.5 " stroke="black" fill="none" stroke-width="6.0" stroke-linecap="round" stroke-linejoin="round" />
<path d="M 131.0 167.0 L 131.0 166.5 L 131.5 165.5 L 132.0 165.0 L 132.0 165.0 L 132.0 165.0 L 132.0 172.5 L 132.0 181.0 L 132.0 188.5 L 133.0 191.5 L 135.5 192.0 L 140.0 191.0 L 145.5 189.5 L 152.0 188.5 L 158.5 187.5 L 163.0 186.0 L 165.0 185.5 " stroke="black" fill="none" stroke-width="6.0" stroke-linecap="round" stroke-linejoin="round" />
<path d="M 171.0 162.5 L 170.5 162.0 L 170.0 161.0 L 170.0 160.5 L 170.0 162.0 L 170.0 167.0 L 170.5 174.5 L 170.5 183.0 L 170.5 189.5 L 170.5 193.0 L 171.0 194.5 L 171.0 194.5 " stroke="black" fill="none" stroke-width="6.0" stroke-linecap="round" stroke-linejoin="round" />
</svg>