<svg xmlns="http://www.w3.org/2000/svg" width="300" height="300" viewBox="0 0 300 300">
<path d="M 145.5 106.5 L 145.0 106.5 L 144.0 106.5 L 144.0 106.5 L 144.5 107.0 L 146.5 109.0 L 148.5 110.5 L 150.0 112.0 L 150.5 112.0 " stroke="black" fill="none" stroke-width="7.0" stroke-linecap="round" stroke-linejoin="round" />
<path d="M 123.5 120.5 L 123.0 120.5 L 122.0 120.5 L 121.0 120.5 L 121.0 121.5 L 121.0 124.0 L 121.0 126.0 L 121.0 127.5 L 121.5 128.5 " stroke="black" fill="none" stroke-width="7.0" stroke-linecap="round" stroke-linejoin="round" />
<path d="M 124.0 123.5 L 123.5 123.5 L 123.0 123.5 L 123.0 123.5 L 124.5 123.5 L 127.0 123.5 L 132.0 123.0 L 139.0 122.0 L 147.5 121.5 L 155.5 120.0 L 163.0 119.0 L 170.0 118.0 L 175.5 118.0 L 179.0 117.5 L 181.0 117.5 L 181.5 118.0 L 181.5 118.0 L 181.0 118.0 L 181.0 118.0 L 181.0 118.0 L 181.0 118.0 L 180.5 118.5 L 180.5 119.0 L 180.0 120.5 L 179.5 123.0 L 178.5 126.0 L 178.0 128.0 L 177.5 129.5 L 177.5 130.0 L 177.5 130.0 " stroke="black" fill="none" stroke-width="7.0" stroke-linecap="round" stroke-linejoin="round" />
<path d="M 135.0 130.5 L 135.5 131.0 L 135.5 131.0 L 136.0 131.5 L 136.0 132.5 L 137.0 133.5 L 137.5 135.0 L 138.5 136.0 L 138.5 136.0 " stroke="black" fill="none" stroke-width="7.0" stroke-linecap="round" stroke-linejoin="round" />
<path d="M 128.0 139.5 L 127.5 139.5 L 127.5 139.5 L 127.5 140.0 L 128.5 140.0 L 132.5 140.0 L 137.0 139.5 L 141.0 139.5 L 143.0 140.0 " stroke="black" fill="none" stroke-width="7.0" stroke-linecap="round" stroke-linejoin="round" />
<path d="M 128.5 149.0 L 128.5 149.0 L 128.5 148.5 L 128.5 148.0 L 128.5 148.0 L 129.5 148.0 L 130.5 149.5 L 131.5 151.5 L 132.5 153.0 L 132.5 153.0 " stroke="black" fill="none" stroke-width="7.0" stroke-linecap="round" stroke-linejoin="round" />
<path d="M 142.0 148.0 L 142.0 148.0 L 142.0 148.0 L 142.0 148.0 L 142.0 148.5 L 142.0 149.5 L 141.5 151.5 L 140.5 153.5 L 140.0 154.0 " stroke="black" fill="none" stroke-width="7.0" stroke-linecap="round" stroke-linejoin="round" />
<path d="M 124.5 164.5 L 124.5 164.5 L 124.0 164.0 L 124.0 163.5 L 126.5 163.0 L 131.5 163.0 L 137.5 162.5 L 142.5 162.0 L 145.0 162.0 " stroke="black" fill="none" stroke-width="7.0" stroke-linecap="round" stroke-linejoin="round" />
<path d="M 126.5 174.0 L 126.0 174.5 L 125.5 174.5 L 125.5 175.5 L 125.5 178.5 L 126.5 183.5 L 126.5 189.0 L 126.5 193.5 L 126.5 195.0 L 126.5 195.5 " stroke="black" fill="none" stroke-width="7.0" stroke-linecap="round" stroke-linejoin="round" />
<path d="M 129.0 173.0 L 129.0 173.0 L 128.5 174.0 L 128.5 174.0 L 128.0 174.0 L 128.0 174.0 L 129.0 174.0 L 131.0 173.5 L 133.5 173.0 L 137.5 173.0 L 142.0 172.5 L 144.5 172.5 L 146.0 172.5 L 146.0 172.5 L 145.5 172.5 L 145.0 172.5 L 145.0 172.5 L 145.0 172.5 L 144.5 172.5 L 144.5 173.0 L 144.5 173.5 L 144.5 175.0 L 144.5 177.0 L 144.5 181.5 L 144.5 188.0 L 145.0 194.5 L 145.0 199.5 L 145.0 203.0 L 145.0 205.0 L 144.5 205.5 L 144.0 205.5 L 143.0 205.5 L 141.5 204.5 L 141.0 203.0 " stroke="black" fill="none" stroke-width="7.0" stroke-linecap="round" stroke-linejoin="round" />
<path d="M 133.5 179.5 L 133.5 180.5 L 134.0 181.0 L 134.0 181.5 L 135.0 182.5 L 136.0 183.5 L 136.0 184.0 " stroke="black" fill="none" stroke-width="7.0" stroke-linecap="round" stroke-linejoin="round" />
<path d="M 131.0 194.0 L 131.0 194.0 L 131.5 194.0 L 132.5 194.5 L 133.5 194.0 L 136.0 193.0 L 139.0 191.0 " stroke="black" fill="none" stroke-width="7.0" stroke-linecap="round" stroke-linejoin="round" />
<path d="M 156.5 139.5 L 157.0 139.0 L 157.5 139.0 L 158.5 138.5 L 160.0 138.5 L 162.5 138.0 L 164.5 137.5 L 166.5 137.5 L 167.5 137.5 L 168.0 137.5 " stroke="black" fill="none" stroke-width="7.0" stroke-linecap="round" stroke-linejoin="round" />
<path d="M 155.0 130.0 L 155.0 130.0 L 155.0 130.0 L 155.5 130.0 L 155.5 130.5 L 155.5 131.0 L 155.5 132.5 L 155.5 136.0 L 154.5 141.5 L 154.0 146.5 L 154.0 150.5 L 154.0 151.5 L 155.5 151.5 L 158.0 151.0 L 161.0 150.5 L 163.5 150.0 L 166.0 149.5 L 168.0 149.5 L 169.5 149.0 L 171.0 148.5 L 171.5 148.5 L 171.5 148.5 L 171.5 148.5 L 171.5 148.5 L 171.5 148.5 L 171.5 148.5 L 171.5 148.5 L 171.5 149.0 L 171.5 149.0 L 171.5 149.5 L 171.5 150.5 L 171.5 152.0 L 171.5 154.5 L 171.5 157.0 L 171.5 159.5 L 171.5 160.5 L 171.5 161.0 L 171.5 161.0 " stroke="black" fill="none" stroke-width="7.0" stroke-linecap="round" stroke-linejoin="round" />
<path d="M 154.0 162.0 L 154.5 162.0 L 155.0 162.0 L 155.5 161.5 L 157.0 161.5 L 159.0 161.5 L 162.0 161.0 L 164.5 161.0 L 167.0 160.5 L 169.0 160.5 L 169.5 160.5 L 170.0 160.5 " stroke="black" fill="none" stroke-width="7.0" stroke-linecap="round" stroke-linejoin="round" />
<path d="M 156.5 164.0 L 157.0 163.5 L 157.5 163.5 L 157.5 163.0 L 157.5 163.0 L 158.0 164.0 L 158.0 165.5 L 158.0 168.5 L 158.0 172.0 L 158.0 175.5 L 158.0 179.0 L 158.0 182.5 L 158.0 186.0 L 158.0 189.0 L 158.0 192.0 L 158.0 195.0 L 158.5 198.0 L 159.5 200.5 L 161.0 202.0 L 162.5 203.5 L 165.0 204.0 L 168.0 204.5 L 171.5 204.5 L 175.0 204.0 L 178.0 203.0 L 180.5 201.0 L 182.0 198.5 L 182.5 196.0 L 182.5 194.0 L 182.0 193.0 L 181.5 192.5 L 180.5 192.0 L 179.5 192.0 " stroke="black" fill="none" stroke-width="7.0" stroke-linecap="round" stroke-linejoin="round" />
<path d="M 162.5 174.0 L 162.5 174.0 L 162.5 174.0 L 162.0 174.0 L 162.0 174.0 L 163.5 173.5 L 166.5 172.5 L 169.5 172.0 L 172.0 171.5 L 173.5 171.5 " stroke="black" fill="none" stroke-width="7.0" stroke-linecap="round" stroke-linejoin="round" />
<path d="M 163.5 183.0 L 163.5 183.0 L 163.0 183.0 L 163.0 183.0 L 162.5 183.0 L 163.0 183.0 L 164.0 182.5 L 166.5 182.0 L 169.0 181.5 L 171.0 181.5 " stroke="black" fill="none" stroke-width="7.0" stroke-linecap="round" stroke-linejoin="round" />
<path d="M 160.5 192.0 L 160.5 192.0 L 160.5 192.0 L 161.0 192.0 L 162.0 192.0 L 164.0 192.0 L 167.5 191.5 L 170.5 191.0 " stroke="black" fill="none" stroke-width="7.0" stroke-linecap="round" stroke-linejoin="round" />
</svg>