<svg xmlns="http://www.w3.org/2000/svg" width="300" height="300" viewBox="0 0 300 300">
<path d="M 149.5 113.5 L 150.0 113.5 L 150.5 113.0 L 151.0 112.5 L 152.0 112.0 L 152.5 111.5 L 153.0 111.5 L 153.0 111.0 L 152.5 111.5 L 150.0 114.5 L 146.5 118.0 L 142.0 122.0 L 138.0 125.0 L 135.0 126.0 L 133.5 126.0 L 133.5 126.0 L 133.5 125.5 L 133.5 125.5 " stroke="black" fill="none" stroke-width="6.0" stroke-linecap="round" stroke-linejoin="round" />
<path d="M 135.5 129.0 L 135.5 129.0 L 135.5 129.0 L 135.5 128.5 L 135.5 128.0 L 135.5 127.5 L 136.0 127.5 L 136.0 127.5 L 136.5 128.0 L 137.0 131.5 L 138.0 138.5 L 138.0 147.5 L 138.0 155.5 L 138.5 161.5 L 139.0 165.0 L 139.0 167.5 L 139.5 169.0 L 139.5 169.5 L 139.5 169.5 L 139.5 169.5 L 139.5 169.5 L 140.5 169.5 L 142.5 168.0 L 144.5 166.5 L 147.5 164.0 L 150.0 161.0 L 152.0 158.5 L 153.0 156.5 L 153.5 155.5 " stroke="black" fill="none" stroke-width="6.0" stroke-linecap="round" stroke-linejoin="round" />
<path d="M 162.5 119.5 L 162.5 119.5 L 162.0 119.5 L 161.5 119.5 L 161.0 120.0 L 160.5 120.0 L 160.0 120.0 L 160.0 120.0 L 160.0 120.0 L 161.5 120.0 L 164.0 120.0 L 167.0 120.0 L 170.5 120.0 L 172.5 120.0 L 174.0 120.0 L 174.5 120.0 L 175.0 120.5 L 175.0 121.5 L 175.0 122.5 L 175.0 125.0 L 175.0 128.5 L 175.0 132.5 L 175.0 138.5 L 175.0 145.5 L 175.0 151.0 L 175.5 154.5 L 175.5 155.5 L 175.5 155.5 L 174.5 155.5 L 172.5 154.5 L 171.0 152.5 L 170.0 151.5 " stroke="black" fill="none" stroke-width="6.0" stroke-linecap="round" stroke-linejoin="round" />
<path d="M 160.0 123.5 L 160.0 123.0 L 160.0 122.5 L 160.5 122.5 L 160.5 125.0 L 160.5 133.0 L 160.5 147.5 L 160.0 163.0 L 160.0 172.0 L 161.0 175.5 L 161.0 176.0 L 161.0 174.5 " stroke="black" fill="none" stroke-width="6.0" stroke-linecap="round" stroke-linejoin="round" />
<path d="M 116.5 117.0 L 116.5 117.0 L 116.0 117.0 L 116.0 116.5 L 116.0 116.5 L 117.5 117.5 L 119.5 119.0 L 122.0 121.0 L 123.0 122.0 " stroke="black" fill="none" stroke-width="6.0" stroke-linecap="round" stroke-linejoin="round" />
<path d="M 117.5 136.5 L 117.5 136.5 L 117.5 136.0 L 117.0 135.5 L 117.0 135.0 L 117.5 135.0 L 119.0 135.0 L 121.0 137.0 L 122.5 139.5 L 122.5 144.0 L 121.5 149.0 L 119.5 153.0 L 118.5 154.0 L 118.5 154.0 L 120.0 154.5 L 122.5 156.5 L 125.5 159.5 L 127.0 164.0 L 128.0 169.5 L 127.5 175.5 L 126.0 181.5 L 123.0 186.5 L 121.0 189.0 L 119.0 189.5 L 118.0 189.5 L 117.5 189.5 L 117.0 189.5 L 117.0 189.5 L 117.0 189.5 L 117.5 189.0 L 119.5 188.5 L 122.5 187.5 L 127.0 187.0 L 134.0 186.5 L 144.0 186.0 L 154.0 186.0 L 163.5 186.0 L 171.5 186.0 L 176.5 186.0 L 179.5 186.5 L 181.0 186.0 L 181.0 185.5 " stroke="black" fill="none" stroke-width="6.0" stroke-linecap="round" stroke-linejoin="round" />
</svg>