<svg xmlns="http://www.w3.org/2000/svg" width="300" height="300" viewBox="0 0 300 300">
<path d="M 128.5 123.0 L 128.0 123.0 L 128.0 123.0 L 128.0 123.0 L 127.5 123.0 L 127.5 123.0 L 127.5 123.0 L 129.0 123.0 L 132.0 123.0 L 136.5 122.0 L 144.0 121.5 L 153.5 120.0 L 162.0 119.0 L 168.5 118.0 L 173.0 118.0 L 175.5 117.5 L 177.0 117.5 L 177.5 117.5 L 177.5 117.5 L 178.0 117.5 L 178.0 118.0 L 178.0 118.0 L 178.0 118.0 L 178.0 118.0 L 178.0 118.0 L 177.5 118.0 " stroke="black" fill="none" stroke-width="6.0" stroke-linecap="round" stroke-linejoin="round" />
<path d="M 129.5 126.0 L 129.0 126.0 L 129.0 125.5 L 128.5 125.5 L 128.5 125.0 L 128.5 125.0 L 128.5 125.0 L 128.5 126.5 L 129.0 129.0 L 129.5 134.5 L 129.5 142.5 L 128.5 151.0 L 127.0 159.0 L 125.5 166.5 L 124.0 172.0 L 122.5 176.5 L 121.0 180.0 L 120.0 182.5 L 118.5 184.0 L 118.0 185.5 L 118.0 185.5 L 118.0 185.5 " stroke="black" fill="none" stroke-width="6.0" stroke-linecap="round" stroke-linejoin="round" />
<path d="M 165.5 109.0 L 165.5 109.0 L 165.0 109.0 L 164.5 108.5 L 164.5 107.5 L 164.5 107.0 L 164.5 107.0 L 164.5 107.0 L 164.5 109.5 L 165.5 117.5 L 166.5 130.5 L 168.5 145.5 L 170.5 156.5 L 172.5 165.0 L 174.5 172.0 L 176.5 176.5 L 178.0 178.5 L 179.0 179.0 L 180.0 179.0 L 180.5 178.0 L 181.5 177.0 L 182.5 176.0 L 183.5 175.5 L 184.0 174.5 L 184.5 174.0 " stroke="black" fill="none" stroke-width="6.0" stroke-linecap="round" stroke-linejoin="round" />
<path d="M 180.5 143.5 L 181.0 143.0 L 181.0 141.5 L 181.5 141.0 L 181.5 140.0 L 181.5 139.5 L 181.5 139.5 L 181.5 139.5 L 181.5 140.0 L 181.0 142.0 L 179.5 146.5 L 177.5 153.0 L 174.5 161.5 L 171.5 168.0 L 169.5 172.0 L 168.0 173.5 L 168.0 173.5 L 168.0 173.0 " stroke="black" fill="none" stroke-width="6.0" stroke-linecap="round" stroke-linejoin="round" />
<path d="M 143.0 134.5 L 141.5 136.0 L 141.0 136.0 L 141.0 136.0 L 141.5 136.0 L 144.0 136.0 L 147.5 135.5 L 151.0 134.5 L 154.5 134.0 L 157.0 134.0 L 158.5 134.0 L 159.0 133.5 " stroke="black" fill="none" stroke-width="6.0" stroke-linecap="round" stroke-linejoin="round" />
<path d="M 140.0 144.5 L 139.5 143.5 L 139.5 143.0 L 139.5 143.0 L 139.5 144.0 L 139.5 147.5 L 140.0 151.0 L 141.0 154.0 L 141.5 155.5 L 141.5 155.5 " stroke="black" fill="none" stroke-width="6.0" stroke-linecap="round" stroke-linejoin="round" />
<path d="M 142.0 147.0 L 141.5 146.0 L 141.0 145.5 L 141.5 144.5 L 143.5 144.5 L 146.0 144.0 L 149.5 143.5 L 152.5 143.5 L 155.0 142.5 L 157.0 142.0 L 158.0 142.0 L 159.0 141.5 L 159.0 141.5 L 159.5 141.5 L 159.5 141.5 L 160.0 142.5 L 160.0 143.5 L 160.0 145.0 L 160.0 146.5 L 159.5 148.0 L 159.0 150.0 L 158.0 151.5 L 157.5 152.0 " stroke="black" fill="none" stroke-width="6.0" stroke-linecap="round" stroke-linejoin="round" />
<path d="M 146.0 155.5 L 145.0 156.0 L 144.0 156.5 L 144.0 156.5 L 146.0 156.0 L 149.5 155.5 L 152.5 155.5 L 156.0 155.5 L 158.0 155.5 " stroke="black" fill="none" stroke-width="6.0" stroke-linecap="round" stroke-linejoin="round" />
<path d="M 136.0 170.5 L 136.0 170.5 L 136.5 170.5 L 136.5 170.5 L 136.5 170.5 L 136.5 171.0 L 135.5 172.5 L 134.0 175.0 L 132.5 178.0 L 132.0 179.5 " stroke="black" fill="none" stroke-width="6.0" stroke-linecap="round" stroke-linejoin="round" />
<path d="M 145.5 166.5 L 144.5 166.0 L 144.0 166.0 L 144.0 165.5 L 144.0 165.5 L 144.0 165.5 L 143.5 167.0 L 143.5 169.5 L 143.0 173.5 L 143.5 178.0 L 145.0 182.0 L 148.0 185.0 L 151.5 186.0 L 155.0 186.0 L 157.5 185.5 L 159.0 184.5 L 160.0 183.5 L 160.5 183.0 L 161.0 182.0 L 161.5 181.5 L 161.5 181.0 L 161.5 181.0 L 161.0 180.5 L 160.5 180.5 L 160.0 179.5 L 159.5 178.5 " stroke="black" fill="none" stroke-width="6.0" stroke-linecap="round" stroke-linejoin="round" />
<path d="M 153.0 168.0 L 153.0 168.5 L 153.0 168.5 L 153.0 169.0 L 153.0 170.0 L 154.5 171.0 L 155.5 172.0 L 156.5 172.5 " stroke="black" fill="none" stroke-width="6.0" stroke-linecap="round" stroke-linejoin="round" />
<path d="M 162.0 165.0 L 162.0 165.0 L 162.5 165.0 L 162.5 165.0 L 163.0 165.0 L 163.5 166.0 L 164.0 167.0 " stroke="black" fill="none" stroke-width="6.0" stroke-linecap="round" stroke-linejoin="round" />
<path d="M 173.0 104.0 L 172.5 104.5 L 172.0 104.5 L 172.0 104.5 L 172.5 105.5 L 173.5 106.5 L 175.0 107.0 L 175.0 107.0 " stroke="black" fill="none" stroke-width="6.0" stroke-linecap="round" stroke-linejoin="round" />
</svg>