<svg xmlns="http://www.w3.org/2000/svg" width="300" height="300" viewBox="0 0 300 300">
<path d="M 125.0 145.5 L 124.0 145.5 L 123.0 145.5 L 123.0 145.5 L 126.5 146.0 L 133.5 146.0 L 145.5 144.5 L 158.5 142.0 L 169.5 140.5 L 174.0 140.5 L 174.5 140.5 L 173.5 140.5 L 172.5 140.5 L 172.0 140.5 " stroke="black" fill="none" stroke-width="6.0" stroke-linecap="round" stroke-linejoin="round" />
<path d="M 150.0 117.0 L 150.0 117.0 L 150.0 117.0 L 150.0 117.0 L 150.5 118.0 L 150.5 121.5 L 150.0 131.0 L 146.0 147.5 L 140.5 165.0 L 135.5 178.0 L 131.0 185.5 L 127.5 189.0 L 125.5 189.0 L 125.5 187.0 " stroke="black" fill="none" stroke-width="6.0" stroke-linecap="round" stroke-linejoin="round" />
<path d="M 153.0 159.0 L 152.5 158.5 L 152.0 158.0 L 152.0 158.0 L 155.0 161.5 L 162.0 168.5 L 170.5 178.5 L 179.0 186.5 L 185.0 190.5 " stroke="black" fill="none" stroke-width="6.0" stroke-linecap="round" stroke-linejoin="round" />
</svg>