<svg xmlns="http://www.w3.org/2000/svg" width="300" height="300" viewBox="0 0 300 300">
<path d="M 142.5 111.5 L 142.5 112.0 L 142.0 113.0 L 142.0 113.0 L 144.5 114.0 L 149.0 116.5 L 154.0 119.0 L 157.0 120.5 L 158.0 121.5 " stroke="black" fill="none" stroke-width="6.0" stroke-linecap="round" stroke-linejoin="round" />
<path d="M 128.5 133.0 L 128.5 133.0 L 128.5 133.0 L 130.5 133.0 L 137.5 131.5 L 150.0 129.0 L 159.0 127.5 L 164.0 127.5 L 166.0 128.0 L 166.5 128.5 L 166.5 129.0 " stroke="black" fill="none" stroke-width="6.0" stroke-linecap="round" stroke-linejoin="round" />
<path d="M 141.0 144.0 L 140.5 144.5 L 140.0 145.0 L 139.5 145.5 L 139.5 145.5 L 143.5 145.0 L 149.5 143.5 L 155.5 141.5 L 160.0 141.0 L 161.0 141.0 " stroke="black" fill="none" stroke-width="6.0" stroke-linecap="round" stroke-linejoin="round" />
<path d="M 143.5 157.5 L 143.5 158.0 L 142.5 158.5 L 142.0 158.5 L 143.5 158.5 L 147.0 157.5 L 152.5 156.5 L 157.5 155.5 L 161.5 155.0 " stroke="black" fill="none" stroke-width="6.0" stroke-linecap="round" stroke-linejoin="round" />
<path d="M 142.5 170.5 L 142.5 170.5 L 142.5 170.5 L 142.5 171.0 L 142.5 173.5 L 142.5 178.0 L 144.0 182.0 L 145.5 183.0 " stroke="black" fill="none" stroke-width="6.0" stroke-linecap="round" stroke-linejoin="round" />
<path d="M 141.0 171.5 L 140.5 171.5 L 140.0 171.5 L 140.0 171.5 L 142.5 171.5 L 147.5 170.5 L 152.5 168.5 L 157.5 167.0 L 161.0 166.5 L 162.5 166.5 L 163.0 168.0 L 163.0 170.5 L 162.5 173.5 L 162.0 177.0 L 161.0 179.5 L 160.0 181.0 L 159.5 182.0 " stroke="black" fill="none" stroke-width="6.0" stroke-linecap="round" stroke-linejoin="round" />
<path d="M 147.0 187.5 L 147.0 187.5 L 146.5 187.0 L 147.0 186.5 L 151.0 186.5 L 155.5 186.5 L 161.0 186.0 L 163.0 186.0 " stroke="black" fill="none" stroke-width="6.0" stroke-linecap="round" stroke-linejoin="round" />
</svg>