<svg xmlns="http://www.w3.org/2000/svg" width="300" height="300" viewBox="0 0 300 300">
<path d="M 134.5 111.5 L 134.5 111.5 L 134.5 111.5 L 134.5 111.5 L 135.0 111.5 L 138.0 111.5 L 146.0 111.5 L 155.5 112.0 L 162.0 112.5 L 164.5 112.5 L 165.0 112.0 L 165.0 111.0 L 165.0 111.0 L 165.0 111.0 L 165.0 111.0 " stroke="black" fill="none" stroke-width="6.0" stroke-linecap="round" stroke-linejoin="round" />
<path d="M 151.0 103.5 L 151.0 103.0 L 151.0 102.5 L 151.5 102.5 L 151.5 102.5 L 151.5 106.0 L 151.5 111.0 L 151.5 115.0 L 151.5 118.0 L 151.5 118.0 " stroke="black" fill="none" stroke-width="6.0" stroke-linecap="round" stroke-linejoin="round" />
<path d="M 132.0 123.0 L 132.5 123.0 L 133.0 122.5 L 134.0 122.5 L 136.5 122.5 L 141.5 122.0 L 148.5 122.0 L 156.5 122.5 L 162.5 123.0 L 165.5 123.5 L 165.5 124.0 L 164.0 124.0 L 163.0 124.5 " stroke="black" fill="none" stroke-width="6.0" stroke-linecap="round" stroke-linejoin="round" />
<path d="M 124.5 132.5 L 124.0 132.5 L 123.5 132.5 L 123.5 132.0 L 123.5 132.0 L 123.5 132.5 L 122.0 137.5 L 121.5 140.0 L 121.5 141.0 " stroke="black" fill="none" stroke-width="6.0" stroke-linecap="round" stroke-linejoin="round" />
<path d="M 127.0 132.0 L 127.0 132.0 L 127.0 132.5 L 127.5 132.5 L 129.5 132.5 L 133.5 133.0 L 140.0 133.0 L 147.5 132.5 L 155.5 132.5 L 163.0 132.5 L 170.0 133.0 L 175.5 133.0 L 177.5 133.5 L 178.5 134.0 L 178.5 134.0 L 178.0 134.0 L 178.0 134.0 L 178.0 134.0 L 178.0 134.0 L 178.0 134.0 L 178.0 134.0 L 178.0 134.0 L 178.0 134.0 L 178.0 134.0 L 178.0 134.0 L 178.0 134.5 L 177.5 136.0 L 177.0 137.5 L 176.0 139.5 L 176.0 141.5 L 175.5 142.5 " stroke="black" fill="none" stroke-width="6.0" stroke-linecap="round" stroke-linejoin="round" />
<path d="M 134.0 142.0 L 134.5 142.0 L 134.5 142.0 L 135.0 142.0 L 137.0 142.0 L 142.0 142.0 L 149.0 141.5 L 155.5 141.0 L 160.0 141.0 L 161.5 141.0 L 161.0 141.0 " stroke="black" fill="none" stroke-width="6.0" stroke-linecap="round" stroke-linejoin="round" />
<path d="M 135.0 152.5 L 135.0 152.5 L 135.5 152.5 L 135.5 152.5 L 136.0 154.0 L 136.5 157.0 L 137.5 159.0 L 138.0 160.5 L 138.0 160.5 " stroke="black" fill="none" stroke-width="6.0" stroke-linecap="round" stroke-linejoin="round" />
<path d="M 137.5 153.0 L 137.0 153.0 L 137.0 153.0 L 136.5 153.0 L 138.5 153.0 L 142.0 153.0 L 146.5 153.0 L 150.5 152.0 L 154.0 151.5 L 157.0 151.0 L 158.5 151.0 L 159.0 151.0 L 159.0 151.5 L 158.5 151.5 L 158.5 152.5 L 158.0 154.0 L 157.5 156.0 L 156.5 157.5 L 155.5 158.5 L 154.5 159.0 " stroke="black" fill="none" stroke-width="6.0" stroke-linecap="round" stroke-linejoin="round" />
<path d="M 140.5 162.0 L 139.5 162.0 L 139.0 162.5 L 138.5 162.5 L 141.0 162.5 L 145.5 162.0 L 149.5 161.0 L 153.0 160.5 L 155.0 160.0 " stroke="black" fill="none" stroke-width="6.0" stroke-linecap="round" stroke-linejoin="round" />
<path d="M 136.0 169.5 L 136.5 169.0 L 136.5 168.5 L 136.5 168.5 L 137.5 169.5 L 138.5 172.0 L 140.0 174.0 L 141.5 175.0 L 142.0 175.0 " stroke="black" fill="none" stroke-width="6.0" stroke-linecap="round" stroke-linejoin="round" />
<path d="M 158.0 166.5 L 158.5 166.0 L 158.5 165.5 L 158.5 165.5 L 158.5 165.5 L 158.0 167.5 L 156.5 170.0 L 155.5 172.5 L 155.0 174.0 " stroke="black" fill="none" stroke-width="6.0" stroke-linecap="round" stroke-linejoin="round" />
<path d="M 127.5 180.0 L 127.5 180.0 L 127.5 180.5 L 127.5 180.5 L 128.0 181.0 L 131.0 181.0 L 138.0 180.5 L 148.5 180.0 L 158.5 180.0 L 166.0 180.0 L 169.0 180.0 L 169.5 180.0 L 169.0 180.0 L 168.5 180.0 L 168.5 180.0 " stroke="black" fill="none" stroke-width="6.0" stroke-linecap="round" stroke-linejoin="round" />
</svg>