<svg xmlns="http://www.w3.org/2000/svg" width="300" height="300" viewBox="0 0 300 300">
<path d="M 141.0 115.0 L 140.5 114.0 L 140.5 113.0 L 140.5 113.0 L 140.5 113.0 L 140.5 114.0 L 140.5 116.0 L 140.0 120.0 L 137.5 125.5 L 133.5 132.0 L 130.0 137.0 L 129.0 138.0 L 129.0 137.0 L 129.5 135.5 " stroke="black" fill="none" stroke-width="6.0" stroke-linecap="round" stroke-linejoin="round" />
<path d="M 140.5 125.5 L 139.5 125.5 L 139.0 125.5 L 139.0 125.5 L 140.0 125.5 L 142.5 126.0 L 147.0 126.0 L 153.5 125.5 L 161.5 124.5 L 168.0 124.0 L 172.5 124.0 L 174.5 124.5 L 175.0 125.0 L 175.5 126.0 L 176.0 127.5 L 176.5 128.5 L 176.5 130.5 L 176.5 133.0 L 176.5 136.0 L 176.5 140.5 L 176.0 145.5 L 175.5 151.0 L 175.0 157.0 L 174.0 162.0 L 173.5 164.5 L 170.5 170.0 L 167.5 172.0 L 165.0 172.0 L 163.0 170.5 L 160.5 167.5 L 159.0 166.0 " stroke="black" fill="none" stroke-width="6.0" stroke-linecap="round" stroke-linejoin="round" />
<path d="M 151.5 130.5 L 152.5 130.5 L 152.5 130.0 L 153.0 130.0 L 153.0 130.0 L 152.0 132.5 L 149.0 137.5 L 143.0 145.0 L 137.5 150.5 L 135.5 152.5 L 135.5 152.0 " stroke="black" fill="none" stroke-width="6.0" stroke-linecap="round" stroke-linejoin="round" />
<path d="M 161.0 131.5 L 161.0 131.5 L 161.5 131.5 L 162.0 132.0 L 162.5 132.5 L 162.5 133.0 L 162.5 135.0 L 161.0 139.0 L 158.0 146.0 L 154.0 154.0 L 149.0 159.5 L 145.0 162.0 L 142.5 163.5 L 141.5 164.5 L 141.5 164.5 " stroke="black" fill="none" stroke-width="6.0" stroke-linecap="round" stroke-linejoin="round" />
<path d="M 129.0 182.0 L 129.5 182.0 L 129.5 181.5 L 130.0 181.0 L 130.0 181.0 L 129.5 181.5 L 128.0 184.5 L 126.5 188.0 L 125.0 191.5 L 124.5 193.5 L 124.5 194.0 " stroke="black" fill="none" stroke-width="6.0" stroke-linecap="round" stroke-linejoin="round" />
<path d="M 142.0 184.0 L 142.0 183.5 L 142.0 183.0 L 142.0 182.5 L 142.0 182.0 L 142.0 182.0 L 141.5 183.5 L 141.5 186.5 L 141.5 190.0 L 143.0 194.0 L 145.5 196.5 L 150.0 197.5 L 155.5 197.5 L 160.5 196.0 L 164.0 195.0 L 165.0 194.5 L 165.0 194.0 L 164.5 193.0 L 163.0 193.0 L 162.0 192.5 " stroke="black" fill="none" stroke-width="6.0" stroke-linecap="round" stroke-linejoin="round" />
<path d="M 155.0 181.5 L 154.5 182.0 L 154.0 182.0 L 154.0 182.0 L 154.5 182.5 L 156.0 182.5 L 158.5 183.5 L 159.0 183.5 " stroke="black" fill="none" stroke-width="6.0" stroke-linecap="round" stroke-linejoin="round" />
<path d="M 171.0 184.5 L 170.0 184.5 L 169.5 184.5 L 170.0 184.5 L 171.5 185.0 L 173.0 185.5 L 174.0 186.5 L 175.0 187.5 L 175.5 188.0 " stroke="black" fill="none" stroke-width="6.0" stroke-linecap="round" stroke-linejoin="round" />
</svg>