<svg xmlns="http://www.w3.org/2000/svg" width="300" height="300" viewBox="0 0 300 300">
<path d="M 132.5 107.5 L 132.5 107.5 L 132.5 107.0 L 132.5 107.0 L 132.5 107.0 L 132.5 111.0 L 130.5 118.0 L 128.0 125.0 L 126.5 128.0 L 126.0 128.0 L 126.0 127.5 " stroke="black" fill="none" stroke-width="6.0" stroke-linecap="round" stroke-linejoin="round" />
<path d="M 135.0 116.0 L 135.0 117.0 L 135.0 118.0 L 135.0 118.0 L 136.5 118.0 L 140.5 117.5 L 146.5 117.0 L 154.5 116.0 L 162.0 116.0 L 167.5 116.5 L 171.5 118.0 L 174.0 119.5 L 175.5 120.0 L 176.0 120.0 L 176.0 120.0 L 176.0 120.0 L 176.0 120.0 L 176.0 120.0 L 176.0 120.5 L 175.5 121.0 L 175.5 122.0 L 174.5 123.0 L 174.0 125.5 L 173.0 129.5 L 171.5 134.5 L 169.5 141.5 L 168.0 148.5 L 166.0 155.0 L 164.5 160.0 L 164.5 163.0 L 164.0 164.0 L 163.5 164.5 L 162.0 164.5 L 159.5 162.0 L 156.5 159.0 L 155.0 157.5 " stroke="black" fill="none" stroke-width="6.0" stroke-linecap="round" stroke-linejoin="round" />
<path d="M 146.0 121.5 L 146.0 121.0 L 146.0 121.0 L 146.0 120.5 L 146.0 120.5 L 144.5 124.0 L 141.5 131.5 L 136.5 141.0 L 133.0 146.0 L 131.5 146.0 " stroke="black" fill="none" stroke-width="6.0" stroke-linecap="round" stroke-linejoin="round" />
<path d="M 158.0 123.0 L 158.5 123.0 L 159.0 123.5 L 159.0 124.0 L 158.5 126.0 L 157.0 130.5 L 153.5 137.5 L 149.5 145.5 L 145.0 151.0 L 141.5 153.0 " stroke="black" fill="none" stroke-width="6.0" stroke-linecap="round" stroke-linejoin="round" />
<path d="M 125.5 168.0 L 125.5 167.5 L 125.5 167.0 L 125.5 166.5 L 125.5 166.0 L 125.5 167.0 L 124.0 170.0 L 122.5 173.5 L 120.5 176.5 L 120.0 177.0 " stroke="black" fill="none" stroke-width="6.0" stroke-linecap="round" stroke-linejoin="round" />
<path d="M 132.5 173.0 L 133.0 173.0 L 133.5 173.0 L 133.5 173.5 L 134.0 175.0 L 134.5 178.0 L 136.0 182.5 L 139.0 185.5 L 142.5 187.0 L 146.0 187.0 L 148.5 185.5 L 149.5 183.5 L 149.5 181.0 L 149.0 179.0 L 148.5 178.5 " stroke="black" fill="none" stroke-width="6.0" stroke-linecap="round" stroke-linejoin="round" />
<path d="M 145.0 170.5 L 144.0 170.5 L 143.0 170.5 L 143.0 170.5 L 145.0 170.5 L 148.0 170.5 L 150.5 171.5 L 151.0 171.5 " stroke="black" fill="none" stroke-width="6.0" stroke-linecap="round" stroke-linejoin="round" />
<path d="M 163.5 175.0 L 163.5 175.0 L 163.5 175.0 L 163.5 175.0 L 163.5 175.5 L 164.5 176.5 L 166.0 178.5 L 168.5 181.0 L 169.0 181.5 " stroke="black" fill="none" stroke-width="6.0" stroke-linecap="round" stroke-linejoin="round" />
</svg>