<svg xmlns="http://www.w3.org/2000/svg" width="300" height="300" viewBox="0 0 300 300">
<path d="M 125.0 116.5 L 123.5 117.5 L 123.0 117.5 L 123.5 117.5 L 125.5 118.5 L 127.5 119.5 L 129.0 120.5 L 130.5 121.0 L 131.0 122.0 " stroke="black" fill="none" stroke-width="6.0" stroke-linecap="round" stroke-linejoin="round" />
<path d="M 121.5 136.0 L 121.0 136.5 L 120.5 137.0 L 120.5 137.0 L 122.5 137.0 L 126.0 136.5 L 129.5 135.5 L 132.0 135.0 L 134.0 134.5 L 134.0 134.5 " stroke="black" fill="none" stroke-width="6.0" stroke-linecap="round" stroke-linejoin="round" />
<path d="M 126.0 151.5 L 124.0 152.0 L 123.5 152.5 L 123.5 152.5 L 124.5 152.5 L 127.0 151.5 L 129.5 151.0 L 132.0 151.0 L 134.0 151.0 L 135.0 151.0 " stroke="black" fill="none" stroke-width="6.0" stroke-linecap="round" stroke-linejoin="round" />
<path d="M 124.5 167.0 L 124.0 167.0 L 123.5 167.0 L 123.5 167.0 L 124.5 167.0 L 126.5 166.5 L 129.0 166.5 L 131.0 166.0 L 132.0 166.0 " stroke="black" fill="none" stroke-width="6.0" stroke-linecap="round" stroke-linejoin="round" />
<path d="M 123.0 178.0 L 123.0 177.5 L 123.0 177.0 L 123.0 177.0 L 123.0 177.0 L 123.5 179.0 L 123.5 183.0 L 124.0 187.0 L 124.5 189.5 L 124.5 189.5 " stroke="black" fill="none" stroke-width="6.0" stroke-linecap="round" stroke-linejoin="round" />
<path d="M 123.0 179.5 L 123.0 179.5 L 122.5 179.5 L 122.5 179.0 L 124.0 178.5 L 127.0 177.5 L 130.5 177.0 L 133.0 177.0 L 135.0 177.5 L 136.0 179.0 L 136.0 181.5 L 135.5 184.0 L 134.0 186.5 L 132.5 188.5 L 131.0 189.5 " stroke="black" fill="none" stroke-width="6.0" stroke-linecap="round" stroke-linejoin="round" />
<path d="M 126.0 191.5 L 125.0 191.0 L 124.5 191.0 L 124.5 191.0 L 126.5 190.5 L 129.5 190.0 L 131.5 189.5 " stroke="black" fill="none" stroke-width="6.0" stroke-linecap="round" stroke-linejoin="round" />
<path d="M 151.5 115.5 L 152.0 116.0 L 152.5 116.5 L 153.0 116.5 L 154.5 118.0 L 155.5 120.0 L 156.5 122.5 L 156.5 123.0 " stroke="black" fill="none" stroke-width="6.0" stroke-linecap="round" stroke-linejoin="round" />
<path d="M 146.5 136.0 L 145.5 136.5 L 144.5 137.0 L 144.5 137.0 L 146.0 137.0 L 149.5 137.0 L 153.0 136.5 L 156.0 135.5 L 158.5 135.0 L 159.5 134.5 L 159.5 134.5 L 159.5 135.0 L 159.0 136.5 L 159.0 139.5 L 158.5 144.5 L 158.5 152.5 L 158.0 162.5 L 159.0 172.5 L 160.5 180.0 L 161.5 184.5 L 161.5 188.5 L 161.0 191.0 L 160.5 192.5 L 159.5 193.0 L 158.0 193.0 L 156.0 193.0 L 153.5 191.0 L 152.0 189.5 " stroke="black" fill="none" stroke-width="6.0" stroke-linecap="round" stroke-linejoin="round" />
<path d="M 142.5 156.0 L 141.5 156.5 L 141.0 156.5 L 141.0 156.5 L 143.0 156.0 L 145.0 155.5 L 147.0 155.0 L 148.5 155.0 L 149.5 155.5 L 149.5 158.0 L 149.5 162.0 L 147.5 166.5 L 145.5 170.0 L 144.0 172.0 L 143.5 172.5 L 143.5 172.5 " stroke="black" fill="none" stroke-width="6.0" stroke-linecap="round" stroke-linejoin="round" />
<path d="M 174.0 145.5 L 174.5 145.5 L 175.0 144.5 L 175.0 144.5 L 175.0 144.5 L 175.0 144.5 L 174.5 145.5 L 174.0 147.5 L 173.0 149.5 L 172.5 152.0 L 171.5 154.0 L 171.0 155.5 L 170.5 156.5 L 170.5 157.0 " stroke="black" fill="none" stroke-width="6.0" stroke-linecap="round" stroke-linejoin="round" />
<path d="M 160.5 150.5 L 160.5 150.5 L 160.5 150.0 L 161.0 150.0 L 162.5 152.0 L 167.0 160.0 L 173.5 171.5 L 178.5 178.5 L 182.0 180.0 L 183.5 179.5 " stroke="black" fill="none" stroke-width="6.0" stroke-linecap="round" stroke-linejoin="round" />
</svg>