<svg xmlns="http://www.w3.org/2000/svg" width="300" height="300" viewBox="0 0 300 300">
<path d="M 144.0 105.5 L 143.0 105.5 L 142.0 105.5 L 142.0 105.5 L 144.5 107.0 L 148.5 110.5 L 153.0 115.0 L 156.5 118.0 L 158.5 119.5 L 158.5 119.5 " stroke="black" fill="none" stroke-width="6.0" stroke-linecap="round" stroke-linejoin="round" />
<path d="M 130.5 131.5 L 130.0 132.0 L 129.5 132.5 L 129.5 133.0 L 131.0 133.0 L 137.5 133.0 L 149.5 132.0 L 163.5 130.5 L 173.0 130.5 L 176.5 130.5 L 176.0 131.0 L 175.0 131.5 " stroke="black" fill="none" stroke-width="6.0" stroke-linecap="round" stroke-linejoin="round" />
<path d="M 146.5 141.5 L 146.5 141.0 L 146.5 140.5 L 146.5 140.5 L 146.5 140.5 L 146.0 144.0 L 142.5 151.5 L 136.0 161.0 L 130.0 167.0 L 128.5 167.0 L 129.5 165.0 " stroke="black" fill="none" stroke-width="6.0" stroke-linecap="round" stroke-linejoin="round" />
<path d="M 165.0 150.0 L 164.0 150.0 L 163.5 150.0 L 164.5 151.0 L 168.5 154.5 L 175.0 160.0 L 184.0 166.5 L 192.5 172.0 L 196.5 173.5 " stroke="black" fill="none" stroke-width="6.0" stroke-linecap="round" stroke-linejoin="round" />
</svg>