<svg xmlns="http://www.w3.org/2000/svg" width="300" height="300" viewBox="0 0 300 300">
<path d="M 129.0 111.5 L 129.0 111.5 L 129.0 111.5 L 129.0 111.5 L 129.0 111.5 L 128.5 112.5 L 127.5 115.5 L 125.5 120.0 L 124.0 123.0 " stroke="black" fill="none" stroke-width="6.0" stroke-linecap="round" stroke-linejoin="round" />
<path d="M 116.0 127.5 L 116.0 127.0 L 117.0 127.0 L 117.0 127.0 L 118.0 129.0 L 119.0 136.0 L 119.5 148.0 L 119.5 158.0 L 119.5 164.5 L 120.5 166.0 L 121.5 164.0 L 121.5 161.0 " stroke="black" fill="none" stroke-width="6.0" stroke-linecap="round" stroke-linejoin="round" />
<path d="M 121.0 130.5 L 120.5 130.5 L 119.0 131.5 L 118.5 132.0 L 118.5 132.0 L 121.0 132.0 L 125.0 131.0 L 129.0 129.5 L 132.0 128.5 L 134.5 128.5 L 136.5 129.0 L 137.0 132.5 L 137.0 139.0 L 137.0 148.0 L 136.0 155.5 L 135.5 161.0 L 135.0 163.0 L 135.0 163.0 L 134.0 161.0 " stroke="black" fill="none" stroke-width="6.0" stroke-linecap="round" stroke-linejoin="round" />
<path d="M 124.5 147.0 L 123.5 147.0 L 122.0 147.5 L 122.0 147.5 L 124.5 147.5 L 128.0 147.0 L 131.0 147.0 L 133.5 146.5 L 134.0 147.0 " stroke="black" fill="none" stroke-width="6.0" stroke-linecap="round" stroke-linejoin="round" />
<path d="M 125.0 161.0 L 123.5 162.5 L 122.5 164.5 L 123.0 165.0 L 126.0 165.0 L 129.0 163.5 L 132.0 161.5 L 132.5 161.0 " stroke="black" fill="none" stroke-width="6.0" stroke-linecap="round" stroke-linejoin="round" />
<path d="M 152.0 110.0 L 152.0 110.0 L 153.0 110.0 L 153.5 110.0 L 154.0 110.0 L 154.0 110.5 L 153.0 114.0 L 150.5 120.0 L 148.0 125.0 L 147.0 127.0 L 147.0 127.5 L 147.0 126.0 " stroke="black" fill="none" stroke-width="6.0" stroke-linecap="round" stroke-linejoin="round" />
<path d="M 150.0 119.0 L 150.0 119.5 L 150.0 120.0 L 150.5 120.5 L 152.5 121.0 L 156.5 121.0 L 161.5 120.5 L 165.5 120.0 L 168.5 120.0 L 170.0 119.5 L 170.5 119.5 " stroke="black" fill="none" stroke-width="6.0" stroke-linecap="round" stroke-linejoin="round" />
<path d="M 163.5 106.5 L 163.0 107.0 L 162.5 107.0 L 162.5 107.5 L 162.0 110.0 L 162.0 116.0 L 161.5 125.5 L 161.0 132.5 L 160.5 135.5 L 160.5 135.0 " stroke="black" fill="none" stroke-width="6.0" stroke-linecap="round" stroke-linejoin="round" />
<path d="M 147.5 136.5 L 147.0 137.0 L 147.0 137.5 L 147.5 138.0 L 151.5 138.0 L 157.5 138.0 L 165.0 137.0 L 169.5 137.0 L 172.0 137.5 L 172.5 139.5 " stroke="black" fill="none" stroke-width="6.0" stroke-linecap="round" stroke-linejoin="round" />
<path d="M 149.5 151.0 L 149.5 151.0 L 149.5 151.0 L 149.5 151.0 L 149.5 155.0 L 150.0 162.5 L 150.5 169.0 L 151.0 171.0 L 151.5 170.0 " stroke="black" fill="none" stroke-width="6.0" stroke-linecap="round" stroke-linejoin="round" />
<path d="M 151.5 153.0 L 151.5 153.0 L 150.5 153.0 L 150.0 153.0 L 152.0 153.0 L 156.5 152.5 L 162.0 152.0 L 166.5 151.0 L 170.0 150.5 L 172.0 150.5 L 173.0 152.0 L 173.5 155.0 L 173.5 160.0 L 172.5 165.0 L 171.5 169.0 L 170.5 171.5 L 169.0 172.0 L 168.5 172.0 " stroke="black" fill="none" stroke-width="6.0" stroke-linecap="round" stroke-linejoin="round" />
<path d="M 155.5 173.0 L 155.0 173.5 L 154.5 174.0 L 155.5 174.0 L 159.5 174.0 L 164.0 174.0 L 168.5 173.5 L 171.0 173.5 " stroke="black" fill="none" stroke-width="6.0" stroke-linecap="round" stroke-linejoin="round" />
</svg>