<svg xmlns="http://www.w3.org/2000/svg" width="300" height="300" viewBox="0 0 300 300">
<path d="M 131.5 110.5 L 131.5 110.5 L 132.0 111.5 L 132.0 111.5 L 132.0 112.0 L 131.5 113.0 L 129.0 116.5 L 125.5 121.0 L 120.5 126.5 L 116.5 131.0 L 115.0 132.5 L 115.5 131.0 L 116.0 130.0 " stroke="black" fill="none" stroke-width="6.0" stroke-linecap="round" stroke-linejoin="round" />
<path d="M 138.0 108.0 L 138.0 108.0 L 138.0 108.5 L 138.0 109.0 L 138.0 110.0 L 139.0 112.5 L 142.0 116.5 L 146.5 121.5 L 150.0 125.0 L 151.5 127.0 L 151.5 127.5 L 151.0 127.5 " stroke="black" fill="none" stroke-width="6.0" stroke-linecap="round" stroke-linejoin="round" />
<path d="M 125.0 135.5 L 125.0 135.5 L 123.5 136.0 L 123.5 136.0 L 124.5 136.0 L 128.0 136.0 L 133.0 135.5 L 137.5 135.0 L 141.5 135.0 L 144.0 135.5 " stroke="black" fill="none" stroke-width="6.0" stroke-linecap="round" stroke-linejoin="round" />
<path d="M 119.5 150.0 L 119.5 149.5 L 119.5 149.0 L 119.0 149.0 L 119.0 149.0 L 119.0 150.5 L 119.5 153.5 L 120.0 156.5 L 120.5 157.5 L 120.5 157.5 " stroke="black" fill="none" stroke-width="6.0" stroke-linecap="round" stroke-linejoin="round" />
<path d="M 118.5 149.5 L 118.5 149.5 L 118.0 149.5 L 118.0 149.5 L 118.5 149.5 L 120.0 149.0 L 123.0 148.0 L 125.5 147.5 L 127.5 147.5 L 129.0 149.0 L 129.5 151.0 L 129.0 154.0 L 128.0 157.0 L 127.0 159.5 L 126.0 160.0 " stroke="black" fill="none" stroke-width="6.0" stroke-linecap="round" stroke-linejoin="round" />
<path d="M 121.5 160.5 L 121.5 160.5 L 120.5 160.5 L 120.0 160.5 L 120.0 160.5 L 124.0 160.5 L 126.5 160.0 " stroke="black" fill="none" stroke-width="6.0" stroke-linecap="round" stroke-linejoin="round" />
<path d="M 141.0 148.0 L 140.5 146.5 L 140.5 146.0 L 140.0 146.0 L 140.0 146.0 L 140.5 148.0 L 141.5 151.5 L 142.5 154.5 L 143.0 156.5 L 143.5 157.5 " stroke="black" fill="none" stroke-width="6.0" stroke-linecap="round" stroke-linejoin="round" />
<path d="M 142.5 148.0 L 142.0 148.0 L 141.0 148.0 L 141.0 148.0 L 142.0 147.5 L 144.5 147.0 L 147.5 146.0 L 150.0 146.0 L 152.0 145.5 L 153.5 146.5 L 154.0 148.0 L 154.5 150.5 L 154.0 153.0 L 153.0 155.0 L 152.0 156.5 L 151.0 157.5 L 150.0 157.5 " stroke="black" fill="none" stroke-width="6.0" stroke-linecap="round" stroke-linejoin="round" />
<path d="M 145.5 158.5 L 144.0 158.5 L 143.5 158.5 L 144.0 158.5 L 146.0 158.5 L 148.5 158.5 L 150.5 158.5 L 151.5 158.0 " stroke="black" fill="none" stroke-width="6.0" stroke-linecap="round" stroke-linejoin="round" />
<path d="M 121.5 169.5 L 121.5 169.0 L 121.5 168.5 L 121.5 168.5 L 121.5 168.5 L 121.5 171.0 L 120.5 174.5 L 119.0 177.5 L 118.5 179.0 L 118.0 179.5 " stroke="black" fill="none" stroke-width="6.0" stroke-linecap="round" stroke-linejoin="round" />
<path d="M 121.0 176.5 L 121.0 177.0 L 121.5 177.5 L 123.0 177.5 L 127.0 177.5 L 131.0 177.5 L 135.0 177.0 L 138.5 175.5 " stroke="black" fill="none" stroke-width="6.0" stroke-linecap="round" stroke-linejoin="round" />
<path d="M 150.0 166.0 L 150.0 166.0 L 150.0 165.5 L 150.5 165.0 L 150.5 165.0 L 150.5 165.0 L 150.5 167.5 L 149.0 172.0 L 147.5 177.0 L 146.5 180.5 L 146.5 181.5 " stroke="black" fill="none" stroke-width="6.0" stroke-linecap="round" stroke-linejoin="round" />
<path d="M 149.5 176.0 L 150.5 176.5 L 151.5 177.0 L 154.0 177.0 L 157.0 177.0 L 159.5 177.5 L 160.0 177.5 " stroke="black" fill="none" stroke-width="6.0" stroke-linecap="round" stroke-linejoin="round" />
<path d="M 168.5 126.5 L 167.5 126.0 L 167.0 125.0 L 167.0 125.0 L 167.5 126.0 L 168.5 130.5 L 169.0 138.5 L 169.5 148.5 L 170.0 153.5 L 170.5 154.5 " stroke="black" fill="none" stroke-width="6.0" stroke-linecap="round" stroke-linejoin="round" />
<path d="M 175.0 111.0 L 175.5 111.0 L 176.5 111.0 L 177.0 111.0 L 177.0 111.5 L 177.0 115.0 L 177.5 122.5 L 178.5 133.0 L 180.0 142.5 L 181.5 150.5 L 181.5 156.0 L 181.5 160.5 L 180.0 165.0 L 178.5 169.0 L 177.5 171.0 L 176.0 171.5 L 174.5 170.0 L 174.0 169.5 " stroke="black" fill="none" stroke-width="6.0" stroke-linecap="round" stroke-linejoin="round" />
</svg>