<svg xmlns="http://www.w3.org/2000/svg" width="300" height="300" viewBox="0 0 300 300">
<path d="M 125.5 123.5 L 125.5 122.0 L 126.0 121.0 L 126.0 120.0 L 126.5 120.0 L 126.5 123.0 L 127.0 129.5 L 127.5 136.5 L 127.5 142.0 L 128.0 145.0 L 128.0 144.5 " stroke="black" fill="none" stroke-width="6.0" stroke-linecap="round" stroke-linejoin="round" />
<path d="M 128.5 123.0 L 127.5 122.5 L 127.0 122.5 L 127.0 122.5 L 129.0 122.5 L 132.5 122.5 L 135.5 122.5 L 139.0 122.5 L 141.5 122.5 L 142.5 122.5 L 143.5 123.0 L 143.5 125.0 L 143.0 128.0 L 142.0 132.0 L 141.5 137.0 L 141.0 140.5 L 141.0 142.5 L 141.0 143.0 " stroke="black" fill="none" stroke-width="6.0" stroke-linecap="round" stroke-linejoin="round" />
<path d="M 131.0 147.0 L 130.0 147.0 L 129.5 147.0 L 130.0 147.0 L 132.5 146.5 L 135.5 146.5 L 138.0 146.5 L 138.5 146.5 " stroke="black" fill="none" stroke-width="6.0" stroke-linecap="round" stroke-linejoin="round" />
<path d="M 132.5 153.0 L 132.5 153.0 L 133.0 153.0 L 133.0 153.0 L 133.0 154.0 L 133.0 157.5 L 131.5 166.0 L 130.0 175.5 L 129.0 181.0 L 129.0 182.0 L 129.0 179.5 " stroke="black" fill="none" stroke-width="6.0" stroke-linecap="round" stroke-linejoin="round" />
<path d="M 125.0 169.0 L 124.5 169.0 L 124.0 169.0 L 124.0 169.0 L 125.5 168.5 L 129.0 167.5 L 133.5 166.0 L 138.5 165.0 L 143.5 163.5 L 145.5 163.5 L 145.5 163.0 L 145.0 163.5 L 144.0 164.0 L 144.0 165.5 L 143.5 168.0 L 143.5 171.5 L 144.5 176.0 L 145.0 180.5 L 145.5 183.5 L 145.0 186.0 L 144.0 186.5 L 142.5 186.5 L 141.0 184.5 L 140.0 182.5 " stroke="black" fill="none" stroke-width="6.0" stroke-linecap="round" stroke-linejoin="round" />
<path d="M 156.5 136.0 L 156.5 136.5 L 157.0 137.0 L 157.0 138.0 L 157.0 141.0 L 157.0 149.0 L 157.0 159.0 L 157.0 165.0 L 157.5 166.0 " stroke="black" fill="none" stroke-width="6.0" stroke-linecap="round" stroke-linejoin="round" />
<path d="M 167.0 127.5 L 167.0 127.0 L 167.0 126.0 L 167.5 125.5 L 168.0 125.5 L 169.0 127.0 L 169.5 132.0 L 170.0 140.5 L 170.5 152.5 L 171.5 163.5 L 172.0 172.0 L 172.0 177.5 L 171.5 181.0 L 170.0 184.0 L 168.5 185.0 L 167.0 185.0 L 164.5 184.0 L 163.0 182.5 " stroke="black" fill="none" stroke-width="6.0" stroke-linecap="round" stroke-linejoin="round" />
</svg>