<svg xmlns="http://www.w3.org/2000/svg" width="300" height="300" viewBox="0 0 300 300">
<path d="M 127.5 120.5 L 127.5 120.0 L 127.5 118.5 L 127.5 118.5 L 127.5 119.0 L 127.5 122.5 L 127.5 128.0 L 127.5 133.0 L 127.5 137.0 L 128.0 138.5 L 128.0 138.0 " stroke="black" fill="none" stroke-width="6.0" stroke-linecap="round" stroke-linejoin="round" />
<path d="M 128.0 117.5 L 126.5 117.5 L 125.5 117.5 L 125.5 117.5 L 126.5 118.0 L 129.0 118.0 L 133.0 118.5 L 137.5 118.5 L 142.0 118.0 L 146.0 117.5 L 148.5 117.0 L 149.0 116.5 L 149.5 116.5 L 149.5 116.5 L 149.5 117.0 L 149.0 118.5 L 148.5 121.5 L 148.0 125.5 L 147.0 131.0 L 146.0 136.0 L 145.5 140.0 L 145.5 141.0 L 145.5 141.5 L 145.5 141.0 " stroke="black" fill="none" stroke-width="6.0" stroke-linecap="round" stroke-linejoin="round" />
<path d="M 132.5 140.5 L 132.0 140.5 L 131.5 140.0 L 131.0 140.0 L 131.0 140.0 L 132.0 140.0 L 135.0 140.0 L 139.0 140.0 L 142.5 140.0 L 144.0 140.0 " stroke="black" fill="none" stroke-width="6.0" stroke-linecap="round" stroke-linejoin="round" />
<path d="M 132.5 147.0 L 132.5 147.0 L 133.0 146.5 L 133.5 146.5 L 133.5 146.0 L 133.5 146.0 L 133.5 148.0 L 132.5 154.5 L 130.0 165.5 L 127.5 175.0 L 126.5 179.0 L 126.5 179.5 L 126.5 178.5 " stroke="black" fill="none" stroke-width="6.0" stroke-linecap="round" stroke-linejoin="round" />
<path d="M 134.5 156.5 L 134.5 157.0 L 134.5 157.5 L 134.5 157.5 L 134.5 158.0 L 136.5 157.0 L 140.0 156.0 L 143.0 155.0 L 145.5 154.5 L 146.5 154.5 L 147.5 154.5 L 147.5 154.5 L 147.0 154.5 L 146.5 156.0 L 146.0 158.5 L 145.5 162.0 L 145.0 167.5 L 145.0 173.5 L 145.0 178.0 L 145.0 181.5 L 144.5 183.0 L 143.5 183.5 L 142.0 183.5 L 140.0 182.0 L 138.0 180.5 L 136.5 179.0 " stroke="black" fill="none" stroke-width="6.0" stroke-linecap="round" stroke-linejoin="round" />
<path d="M 161.5 131.5 L 161.5 132.0 L 161.5 133.5 L 161.5 135.5 L 161.5 139.5 L 161.5 145.5 L 162.0 151.5 L 162.0 154.0 L 162.0 154.5 " stroke="black" fill="none" stroke-width="6.0" stroke-linecap="round" stroke-linejoin="round" />
<path d="M 169.5 123.5 L 170.0 123.5 L 170.0 123.0 L 170.5 123.0 L 171.0 123.0 L 171.5 125.0 L 172.0 130.0 L 172.5 139.5 L 172.5 151.5 L 172.5 161.5 L 171.5 169.5 L 170.5 175.5 L 169.0 179.5 L 168.0 182.0 L 167.5 182.5 L 166.5 182.0 L 165.0 179.5 L 164.5 176.5 " stroke="black" fill="none" stroke-width="6.0" stroke-linecap="round" stroke-linejoin="round" />
</svg>