<svg xmlns="http://www.w3.org/2000/svg" width="300" height="300" viewBox="0 0 300 300">
<path d="M 135.0 113.0 L 136.0 113.0 L 136.5 113.0 L 136.5 113.0 L 135.5 115.0 L 132.5 121.0 L 129.5 127.5 L 128.5 131.0 L 128.5 131.0 " stroke="black" fill="none" stroke-width="6.0" stroke-linecap="round" stroke-linejoin="round" />
<path d="M 133.5 121.5 L 134.0 121.5 L 135.0 121.5 L 136.5 121.5 L 141.0 121.5 L 148.5 121.5 L 156.0 121.0 L 161.5 120.5 L 167.5 119.0 L 172.0 118.0 L 175.5 117.5 L 177.0 117.5 L 177.5 117.5 L 177.5 117.5 L 177.0 117.5 L 176.5 117.5 " stroke="black" fill="none" stroke-width="6.0" stroke-linecap="round" stroke-linejoin="round" />
<path d="M 131.0 140.0 L 131.0 140.0 L 132.0 140.0 L 132.5 140.0 L 134.5 140.0 L 138.5 139.0 L 146.0 138.5 L 155.0 138.0 L 166.5 138.0 L 169.5 137.5 L 171.0 137.0 L 171.5 136.0 L 171.5 136.0 L 171.5 136.0 L 171.0 136.5 L 170.5 137.0 " stroke="black" fill="none" stroke-width="6.0" stroke-linecap="round" stroke-linejoin="round" />
<path d="M 147.0 131.5 L 147.0 131.5 L 146.5 131.5 L 146.0 131.5 L 146.0 131.5 L 146.0 135.0 L 146.0 142.0 L 147.0 147.5 L 148.0 149.0 " stroke="black" fill="none" stroke-width="6.0" stroke-linecap="round" stroke-linejoin="round" />
<path d="M 158.5 132.0 L 158.5 132.0 L 159.0 132.5 L 159.5 132.5 L 159.5 133.5 L 159.5 136.0 L 159.0 140.5 L 158.0 145.0 L 157.5 146.0 " stroke="black" fill="none" stroke-width="6.0" stroke-linecap="round" stroke-linejoin="round" />
<path d="M 137.5 132.0 L 137.5 132.0 L 138.0 131.5 L 138.5 131.0 L 138.5 131.0 L 138.0 133.5 L 137.0 140.0 L 137.0 148.0 L 137.5 152.5 " stroke="black" fill="none" stroke-width="6.0" stroke-linecap="round" stroke-linejoin="round" />
<path d="M 168.5 132.5 L 168.5 132.5 L 167.5 132.5 L 167.5 133.0 L 167.5 134.5 L 167.5 137.5 L 167.0 142.5 L 166.5 147.5 L 166.5 148.0 " stroke="black" fill="none" stroke-width="6.0" stroke-linecap="round" stroke-linejoin="round" />
<path d="M 128.0 153.5 L 128.0 153.5 L 128.5 154.0 L 134.5 154.0 L 152.0 153.5 L 169.0 152.5 L 177.0 152.5 L 178.5 152.5 " stroke="black" fill="none" stroke-width="6.0" stroke-linecap="round" stroke-linejoin="round" />
<path d="M 131.0 165.5 L 131.5 165.0 L 131.5 164.5 L 131.0 165.0 L 129.0 167.5 L 126.0 170.5 L 124.0 173.5 L 123.0 174.5 " stroke="black" fill="none" stroke-width="6.0" stroke-linecap="round" stroke-linejoin="round" />
<path d="M 144.0 166.0 L 143.5 166.0 L 143.0 166.0 L 143.0 166.5 L 143.0 167.5 L 144.0 169.5 L 145.5 172.0 L 147.0 173.5 " stroke="black" fill="none" stroke-width="6.0" stroke-linecap="round" stroke-linejoin="round" />
<path d="M 155.5 166.0 L 156.0 166.0 L 156.5 166.5 L 157.5 167.0 L 158.5 168.0 L 159.5 169.0 L 160.5 170.0 " stroke="black" fill="none" stroke-width="6.0" stroke-linecap="round" stroke-linejoin="round" />
<path d="M 170.0 167.0 L 169.5 167.0 L 169.5 167.0 L 169.5 167.0 L 171.0 168.0 L 172.5 169.5 L 173.0 171.0 " stroke="black" fill="none" stroke-width="6.0" stroke-linecap="round" stroke-linejoin="round" />
</svg>