<svg xmlns="http://www.w3.org/2000/svg" width="300" height="300" viewBox="0 0 300 300">
<path d="M 135.0 117.0 L 135.5 116.0 L 136.5 115.0 L 137.0 114.5 L 137.0 114.0 L 137.5 114.5 L 137.0 117.0 L 135.0 122.0 L 131.5 128.5 L 127.5 135.0 L 125.5 138.0 L 125.0 138.0 L 126.0 134.5 L 126.5 133.5 " stroke="black" fill="none" stroke-width="6.0" stroke-linecap="round" stroke-linejoin="round" />
<path d="M 134.0 127.5 L 134.0 127.5 L 134.0 128.0 L 134.0 128.5 L 134.0 128.5 L 135.0 128.5 L 139.0 128.5 L 146.0 127.5 L 154.0 126.0 L 163.0 124.5 L 171.0 123.0 L 176.0 121.5 L 177.5 120.5 L 177.5 121.0 L 176.5 123.5 L 176.0 124.0 " stroke="black" fill="none" stroke-width="6.0" stroke-linecap="round" stroke-linejoin="round" />
<path d="M 133.5 146.0 L 133.5 146.0 L 133.5 146.0 L 133.5 146.0 L 133.5 146.0 L 133.5 146.0 L 136.0 146.0 L 143.0 145.0 L 155.5 143.0 L 168.5 140.5 L 175.0 140.0 L 177.5 140.0 L 176.5 140.5 L 174.5 140.5 " stroke="black" fill="none" stroke-width="6.0" stroke-linecap="round" stroke-linejoin="round" />
<path d="M 152.5 136.0 L 152.5 135.5 L 152.5 135.0 L 152.5 135.0 L 152.5 134.5 L 152.5 137.5 L 152.0 143.5 L 152.0 150.0 L 152.0 154.0 L 153.0 155.0 L 153.5 154.0 " stroke="black" fill="none" stroke-width="6.0" stroke-linecap="round" stroke-linejoin="round" />
<path d="M 161.5 136.0 L 161.5 136.5 L 162.0 136.5 L 162.0 137.5 L 162.0 139.0 L 162.5 143.0 L 162.5 148.0 L 162.5 151.0 L 162.5 153.5 " stroke="black" fill="none" stroke-width="6.0" stroke-linecap="round" stroke-linejoin="round" />
<path d="M 142.5 139.5 L 142.5 139.0 L 142.0 138.5 L 142.0 138.0 L 142.0 139.0 L 142.0 143.0 L 142.5 149.0 L 143.0 155.5 L 144.0 159.5 L 145.0 159.5 " stroke="black" fill="none" stroke-width="6.0" stroke-linecap="round" stroke-linejoin="round" />
<path d="M 173.5 135.0 L 173.5 135.0 L 174.0 135.5 L 174.5 135.5 L 174.5 136.5 L 174.5 139.5 L 174.0 144.0 L 174.0 149.0 L 174.0 152.0 L 174.0 153.5 L 174.0 153.5 " stroke="black" fill="none" stroke-width="6.0" stroke-linecap="round" stroke-linejoin="round" />
<path d="M 129.5 168.5 L 129.5 168.5 L 129.5 168.0 L 129.5 168.0 L 129.5 167.5 L 129.5 167.0 L 132.0 167.0 L 139.0 166.5 L 151.0 165.5 L 165.0 163.5 L 176.0 161.5 L 181.5 161.0 L 182.0 163.0 " stroke="black" fill="none" stroke-width="6.0" stroke-linecap="round" stroke-linejoin="round" />
<path d="M 149.5 176.5 L 149.5 176.5 L 149.5 177.0 L 149.0 177.0 L 149.0 177.5 L 148.0 178.0 L 146.0 180.0 L 143.0 184.0 L 141.0 187.0 L 140.5 188.5 L 141.5 188.5 " stroke="black" fill="none" stroke-width="6.0" stroke-linecap="round" stroke-linejoin="round" />
<path d="M 156.5 177.5 L 156.5 177.5 L 156.5 177.5 L 157.0 177.5 L 157.0 177.5 L 157.5 177.5 L 158.5 179.0 L 159.5 181.0 L 161.0 183.5 L 161.5 184.5 " stroke="black" fill="none" stroke-width="6.0" stroke-linecap="round" stroke-linejoin="round" />
<path d="M 170.5 176.0 L 169.5 176.5 L 168.5 176.5 L 168.5 176.5 L 168.5 176.5 L 170.0 177.0 L 172.0 178.5 L 173.5 180.5 L 175.0 182.0 L 175.0 182.0 " stroke="black" fill="none" stroke-width="6.0" stroke-linecap="round" stroke-linejoin="round" />
<path d="M 182.5 174.5 L 182.5 174.5 L 182.0 175.0 L 182.0 175.0 L 183.0 176.0 L 185.0 177.0 L 188.0 179.0 L 190.5 181.0 L 191.5 181.0 " stroke="black" fill="none" stroke-width="6.0" stroke-linecap="round" stroke-linejoin="round" />
</svg>