<svg xmlns="http://www.w3.org/2000/svg" width="300" height="300" viewBox="0 0 300 300">
<path d="M 129.0 112.5 L 128.5 112.0 L 128.5 111.5 L 128.5 111.0 L 128.5 111.5 L 128.5 114.5 L 127.0 120.0 L 124.0 126.5 L 119.5 132.0 L 118.0 134.0 L 118.0 133.5 " stroke="black" fill="none" stroke-width="6.0" stroke-linecap="round" stroke-linejoin="round" />
<path d="M 128.5 123.0 L 128.0 123.0 L 128.0 123.5 L 128.0 123.5 L 131.0 123.5 L 138.5 122.5 L 150.5 120.5 L 161.5 119.0 L 169.0 118.5 L 172.0 118.5 L 172.5 119.0 L 172.5 119.0 L 172.0 119.0 L 172.0 119.0 " stroke="black" fill="none" stroke-width="6.0" stroke-linecap="round" stroke-linejoin="round" />
<path d="M 128.5 145.5 L 128.0 145.5 L 127.0 145.5 L 126.5 145.5 L 126.0 145.5 L 126.0 145.5 L 126.5 145.5 L 129.5 145.5 L 137.0 145.0 L 148.5 144.0 L 161.0 142.5 L 167.5 141.5 L 172.0 141.0 L 173.5 141.0 L 175.0 140.5 L 175.0 140.5 L 174.0 140.5 L 173.5 140.5 " stroke="black" fill="none" stroke-width="6.0" stroke-linecap="round" stroke-linejoin="round" />
<path d="M 145.5 132.0 L 145.5 132.0 L 145.0 132.5 L 145.0 133.0 L 145.0 135.0 L 145.0 140.5 L 145.0 147.0 L 145.0 152.5 L 145.0 155.0 L 146.5 155.0 L 147.0 154.5 " stroke="black" fill="none" stroke-width="6.0" stroke-linecap="round" stroke-linejoin="round" />
<path d="M 160.5 133.0 L 160.0 133.5 L 160.0 134.0 L 159.5 134.5 L 159.5 135.0 L 159.5 138.5 L 159.0 144.0 L 158.5 149.5 L 158.5 153.5 L 158.5 155.5 L 158.5 155.5 " stroke="black" fill="none" stroke-width="6.0" stroke-linecap="round" stroke-linejoin="round" />
<path d="M 134.0 136.0 L 134.0 135.5 L 133.5 135.0 L 133.5 134.5 L 133.0 135.0 L 133.0 139.0 L 133.0 146.0 L 133.0 149.5 L 133.0 153.0 L 134.0 157.0 L 134.5 157.0 " stroke="black" fill="none" stroke-width="6.0" stroke-linecap="round" stroke-linejoin="round" />
<path d="M 170.0 132.5 L 170.0 133.0 L 170.0 133.5 L 170.0 133.5 L 170.0 134.5 L 170.0 137.0 L 170.0 140.0 L 170.0 144.5 L 170.0 148.5 L 170.0 150.0 " stroke="black" fill="none" stroke-width="6.0" stroke-linecap="round" stroke-linejoin="round" />
<path d="M 121.0 164.5 L 121.0 164.5 L 120.5 164.5 L 120.5 164.0 L 123.5 163.5 L 131.0 162.5 L 136.5 161.5 L 143.0 161.0 L 150.0 160.5 L 155.0 160.0 L 165.0 159.5 L 170.5 159.5 L 173.0 160.5 L 174.0 160.5 L 174.5 160.5 L 174.5 160.5 L 174.5 160.5 " stroke="black" fill="none" stroke-width="6.0" stroke-linecap="round" stroke-linejoin="round" />
<path d="M 128.0 177.0 L 128.0 177.0 L 128.0 176.5 L 128.5 176.0 L 128.5 176.0 L 128.5 175.5 L 128.5 175.5 L 128.0 177.5 L 127.0 180.5 L 126.0 183.5 L 126.0 184.5 " stroke="black" fill="none" stroke-width="6.0" stroke-linecap="round" stroke-linejoin="round" />
<path d="M 141.0 176.5 L 141.0 176.5 L 141.0 177.0 L 141.0 177.0 L 141.5 178.0 L 142.0 180.0 L 143.0 182.5 L 144.0 185.0 L 145.0 186.5 " stroke="black" fill="none" stroke-width="6.0" stroke-linecap="round" stroke-linejoin="round" />
<path d="M 155.5 175.5 L 155.5 176.0 L 155.5 176.0 L 155.0 176.5 L 155.5 177.5 L 156.5 179.0 L 158.0 181.0 L 159.5 183.5 L 161.0 185.0 " stroke="black" fill="none" stroke-width="6.0" stroke-linecap="round" stroke-linejoin="round" />
<path d="M 174.0 174.0 L 174.0 174.5 L 173.5 175.5 L 173.5 176.5 L 175.0 178.5 L 178.0 180.0 L 182.0 182.0 L 183.5 182.0 " stroke="black" fill="none" stroke-width="6.0" stroke-linecap="round" stroke-linejoin="round" />
</svg>