<svg xmlns="http://www.w3.org/2000/svg" width="300" height="300" viewBox="0 0 300 300">
<path d="M 132.0 118.0 L 133.5 115.5 L 134.5 114.0 L 135.0 112.5 L 135.5 112.0 L 135.5 112.0 L 135.5 112.5 L 135.5 114.5 L 135.0 118.5 L 132.5 123.5 L 129.5 130.0 L 125.5 136.0 L 123.5 139.0 L 123.0 139.5 L 123.0 138.5 L 123.5 137.5 " stroke="black" fill="none" stroke-width="7.0" stroke-linecap="round" stroke-linejoin="round" />
<path d="M 134.0 126.5 L 133.5 126.5 L 132.5 126.5 L 132.5 127.0 L 132.0 127.0 L 132.5 127.0 L 136.0 127.0 L 142.0 126.0 L 153.0 124.5 L 165.5 123.0 L 174.0 122.5 L 179.0 122.5 L 180.5 122.5 L 180.5 122.5 L 180.5 122.5 L 180.0 122.5 L 179.0 123.0 " stroke="black" fill="none" stroke-width="7.0" stroke-linecap="round" stroke-linejoin="round" />
<path d="M 130.5 149.5 L 130.5 149.5 L 130.5 149.5 L 131.0 150.0 L 131.0 150.0 L 131.5 150.0 L 133.0 150.0 L 135.5 149.5 L 141.0 148.5 L 150.0 146.5 L 160.5 144.5 L 169.5 143.5 L 176.0 143.0 L 179.5 142.5 L 181.0 142.5 L 181.0 142.5 L 180.5 142.5 L 180.5 142.5 L 180.0 142.5 L 180.0 142.5 L 180.0 142.5 L 180.0 142.5 L 180.0 142.5 L 180.0 142.5 L 180.0 142.5 " stroke="black" fill="none" stroke-width="7.0" stroke-linecap="round" stroke-linejoin="round" />
<path d="M 148.5 138.5 L 148.5 138.5 L 148.5 138.5 L 148.0 138.5 L 148.0 138.5 L 148.0 140.0 L 148.5 144.0 L 150.0 151.0 L 151.0 156.0 L 151.5 158.5 L 152.0 157.0 " stroke="black" fill="none" stroke-width="7.0" stroke-linecap="round" stroke-linejoin="round" />
<path d="M 162.5 133.5 L 162.5 133.5 L 162.5 134.5 L 162.5 135.0 L 162.5 136.0 L 162.5 139.0 L 163.0 144.5 L 163.0 151.0 L 163.0 155.5 L 163.0 157.0 L 163.0 157.0 " stroke="black" fill="none" stroke-width="7.0" stroke-linecap="round" stroke-linejoin="round" />
<path d="M 138.0 139.0 L 138.0 139.0 L 138.0 138.5 L 138.5 138.5 L 138.5 139.0 L 138.5 143.0 L 138.5 149.5 L 139.0 155.0 L 139.0 156.0 " stroke="black" fill="none" stroke-width="7.0" stroke-linecap="round" stroke-linejoin="round" />
<path d="M 174.0 136.0 L 174.5 136.0 L 175.0 136.5 L 175.0 137.0 L 175.0 138.0 L 175.0 141.5 L 175.0 146.5 L 175.0 151.0 L 174.5 153.5 L 174.5 154.0 " stroke="black" fill="none" stroke-width="7.0" stroke-linecap="round" stroke-linejoin="round" />
<path d="M 130.5 170.0 L 130.5 170.0 L 130.5 169.5 L 130.5 169.5 L 130.5 169.0 L 130.5 168.5 L 130.5 168.5 L 130.5 168.5 L 131.0 168.5 L 131.5 168.0 L 133.0 168.0 L 137.0 167.5 L 145.0 167.0 L 157.0 165.5 L 168.5 164.5 L 176.0 164.0 L 179.0 163.5 L 180.5 163.5 L 180.5 163.5 L 180.5 163.5 L 180.5 163.5 L 181.0 163.5 L 181.0 163.5 L 181.5 163.5 L 182.0 163.5 L 182.0 163.5 L 182.0 163.5 L 182.0 163.5 L 182.0 163.5 L 182.0 163.5 L 182.0 163.5 " stroke="black" fill="none" stroke-width="7.0" stroke-linecap="round" stroke-linejoin="round" />
<path d="M 137.0 182.5 L 137.5 182.0 L 138.0 181.5 L 138.5 181.0 L 138.5 180.5 L 138.5 180.5 L 138.5 180.5 L 138.5 181.0 L 137.5 183.5 L 135.5 186.5 L 134.0 189.0 L 133.0 190.5 L 133.0 190.5 " stroke="black" fill="none" stroke-width="7.0" stroke-linecap="round" stroke-linejoin="round" />
<path d="M 151.5 180.0 L 151.5 180.0 L 151.5 181.0 L 151.5 181.5 L 152.5 182.5 L 154.0 184.0 L 156.5 186.0 L 158.0 187.5 L 158.5 189.0 " stroke="black" fill="none" stroke-width="7.0" stroke-linecap="round" stroke-linejoin="round" />
<path d="M 163.5 179.5 L 163.5 179.5 L 163.5 180.0 L 163.5 180.0 L 164.0 180.5 L 165.0 181.0 L 167.5 182.5 L 170.0 184.0 L 171.0 184.5 " stroke="black" fill="none" stroke-width="7.0" stroke-linecap="round" stroke-linejoin="round" />
<path d="M 177.0 177.5 L 177.5 178.0 L 178.5 178.5 L 179.0 178.5 L 181.0 179.0 L 184.0 180.0 L 187.0 181.5 L 189.5 183.0 L 191.5 185.0 L 192.0 185.0 " stroke="black" fill="none" stroke-width="7.0" stroke-linecap="round" stroke-linejoin="round" />
</svg>