<svg xmlns="http://www.w3.org/2000/svg" width="300" height="300" viewBox="0 0 300 300">
<path d="M 147.0 114.0 L 146.0 114.0 L 145.0 114.5 L 144.5 114.5 L 146.5 114.5 L 152.5 113.0 L 160.0 111.5 L 168.0 110.0 L 173.5 110.0 L 175.5 111.5 L 175.5 113.0 L 174.5 114.5 L 173.0 117.5 L 171.5 120.5 L 170.0 123.5 L 168.5 126.0 L 168.0 127.5 L 167.5 127.5 " stroke="black" fill="none" stroke-width="6.0" stroke-linecap="round" stroke-linejoin="round" />
<path d="M 155.0 126.0 L 155.0 126.0 L 155.0 125.5 L 155.0 125.5 L 157.5 125.5 L 164.5 125.5 L 171.0 127.0 L 174.5 129.0 L 175.5 130.5 " stroke="black" fill="none" stroke-width="6.0" stroke-linecap="round" stroke-linejoin="round" />
<path d="M 146.0 137.0 L 146.0 137.0 L 146.0 136.5 L 146.5 136.5 L 147.0 137.0 L 147.5 143.0 L 149.0 157.0 L 149.5 170.0 L 150.0 176.0 L 150.5 177.5 L 150.5 175.5 L 150.5 174.0 " stroke="black" fill="none" stroke-width="6.0" stroke-linecap="round" stroke-linejoin="round" />
<path d="M 151.0 136.0 L 150.5 136.0 L 149.0 136.0 L 148.5 135.5 L 150.0 135.0 L 154.0 134.5 L 158.5 134.5 L 164.0 134.0 L 170.5 134.0 L 177.0 134.0 L 182.5 134.0 L 185.0 134.5 L 185.0 135.5 L 185.0 137.5 L 184.5 140.5 L 184.5 144.5 L 185.0 151.0 L 185.0 159.5 L 185.0 169.0 L 184.0 176.5 L 183.0 181.5 L 181.0 183.5 L 179.5 184.0 L 177.0 182.0 L 175.5 178.5 " stroke="black" fill="none" stroke-width="6.0" stroke-linecap="round" stroke-linejoin="round" />
<path d="M 152.0 151.5 L 151.5 152.0 L 151.0 152.5 L 152.0 152.5 L 157.0 152.5 L 164.0 151.0 L 170.5 149.5 L 174.0 149.0 L 174.5 149.0 L 175.0 150.0 L 174.5 150.0 " stroke="black" fill="none" stroke-width="6.0" stroke-linecap="round" stroke-linejoin="round" />
<path d="M 154.0 165.5 L 153.0 165.0 L 152.5 165.0 L 154.5 164.5 L 160.5 164.0 L 168.0 162.5 L 174.5 161.0 L 177.0 159.0 L 177.0 158.5 " stroke="black" fill="none" stroke-width="6.0" stroke-linecap="round" stroke-linejoin="round" />
<path d="M 166.0 139.0 L 165.5 140.0 L 164.5 141.5 L 164.5 148.0 L 164.0 161.0 L 163.5 173.0 L 163.5 177.0 L 164.0 177.0 L 164.5 175.5 " stroke="black" fill="none" stroke-width="6.0" stroke-linecap="round" stroke-linejoin="round" />
<path d="M 119.0 112.0 L 119.0 112.0 L 119.5 112.5 L 120.0 113.0 L 121.5 113.5 L 123.5 115.0 L 125.0 117.5 L 126.0 118.5 " stroke="black" fill="none" stroke-width="6.0" stroke-linecap="round" stroke-linejoin="round" />
<path d="M 125.0 126.0 L 124.5 126.0 L 124.0 127.0 L 124.5 127.5 L 127.5 129.0 L 130.5 131.0 L 132.5 133.5 L 132.5 137.5 L 130.0 142.5 L 127.5 145.5 L 126.5 146.0 L 128.0 146.5 L 131.0 148.5 L 134.5 151.0 L 137.0 156.5 L 137.0 164.5 L 134.0 172.5 L 130.5 177.5 L 127.5 179.0 L 125.5 179.0 L 123.5 179.5 L 121.5 181.0 L 120.0 183.0 L 120.0 183.5 L 120.0 183.5 L 120.5 183.0 L 121.0 182.5 L 121.5 182.0 L 122.5 182.0 L 124.5 182.0 L 128.5 182.5 L 136.5 183.5 L 147.5 185.5 L 159.5 187.5 L 171.5 189.5 L 181.5 190.0 L 191.5 190.0 L 197.5 189.5 L 199.5 189.5 L 200.0 189.5 " stroke="black" fill="none" stroke-width="6.0" stroke-linecap="round" stroke-linejoin="round" />
</svg>