<svg xmlns="http://www.w3.org/2000/svg" width="300" height="300" viewBox="0 0 300 300">
<path d="M 125.5 119.0 L 125.0 118.0 L 124.5 117.0 L 124.0 117.0 L 124.5 117.0 L 127.0 118.0 L 132.0 118.5 L 138.0 118.5 L 144.5 118.0 L 147.5 117.0 L 148.0 117.0 L 147.0 117.0 L 146.5 117.0 " stroke="black" fill="none" stroke-width="6.0" stroke-linecap="round" stroke-linejoin="round" />
<path d="M 137.0 107.5 L 137.0 107.5 L 137.0 107.5 L 137.5 107.5 L 137.5 107.5 L 137.5 109.0 L 138.0 114.5 L 138.5 123.0 L 139.0 129.0 L 139.5 130.0 L 140.0 129.5 " stroke="black" fill="none" stroke-width="6.0" stroke-linecap="round" stroke-linejoin="round" />
<path d="M 158.5 115.0 L 158.5 115.0 L 157.5 115.5 L 157.0 115.5 L 157.5 115.5 L 160.0 116.0 L 163.5 116.0 L 167.5 116.0 L 171.0 116.0 L 172.5 116.0 L 173.5 115.5 " stroke="black" fill="none" stroke-width="6.0" stroke-linecap="round" stroke-linejoin="round" />
<path d="M 166.5 103.5 L 166.0 103.5 L 165.5 103.0 L 165.5 103.0 L 165.5 104.0 L 165.5 107.5 L 166.0 114.0 L 166.5 121.5 L 167.0 125.5 L 167.5 126.5 " stroke="black" fill="none" stroke-width="6.0" stroke-linecap="round" stroke-linejoin="round" />
<path d="M 131.0 145.0 L 131.0 145.0 L 131.5 144.5 L 131.5 144.5 L 133.0 144.0 L 136.5 143.5 L 143.0 142.5 L 149.0 142.0 L 153.5 141.5 L 155.0 141.5 L 155.5 141.0 L 154.5 140.5 " stroke="black" fill="none" stroke-width="6.0" stroke-linecap="round" stroke-linejoin="round" />
<path d="M 147.5 131.5 L 147.5 132.0 L 147.0 133.0 L 146.5 134.0 L 146.0 136.0 L 146.0 141.5 L 145.5 149.0 L 145.5 154.5 L 145.0 156.5 L 145.0 156.5 L 145.0 155.0 " stroke="black" fill="none" stroke-width="6.0" stroke-linecap="round" stroke-linejoin="round" />
<path d="M 128.0 159.5 L 128.0 159.5 L 128.0 159.0 L 128.0 159.0 L 128.5 159.0 L 132.0 158.5 L 141.5 158.5 L 155.0 158.5 L 168.5 158.5 L 176.5 158.0 L 179.5 158.0 L 180.0 158.0 L 179.5 157.5 L 178.0 156.0 " stroke="black" fill="none" stroke-width="6.0" stroke-linecap="round" stroke-linejoin="round" />
<path d="M 164.0 139.0 L 164.0 139.0 L 164.0 138.0 L 164.0 137.5 L 164.0 137.5 L 164.0 137.5 L 164.0 140.0 L 162.5 145.0 L 157.5 154.0 L 149.0 166.5 L 140.5 175.5 L 134.5 180.0 L 132.0 182.0 L 132.0 182.0 L 132.5 180.0 " stroke="black" fill="none" stroke-width="6.0" stroke-linecap="round" stroke-linejoin="round" />
<path d="M 150.5 168.0 L 150.5 167.0 L 150.5 166.5 L 151.0 166.5 L 151.0 167.0 L 151.5 171.0 L 152.0 177.5 L 152.0 184.0 L 152.5 188.5 L 152.5 189.5 L 152.5 187.5 " stroke="black" fill="none" stroke-width="6.0" stroke-linecap="round" stroke-linejoin="round" />
<path d="M 151.5 170.5 L 151.0 170.5 L 150.5 171.0 L 150.5 171.0 L 151.5 171.0 L 155.0 170.5 L 160.0 170.0 L 166.5 169.5 L 172.0 169.5 L 176.5 170.0 L 179.0 170.0 L 179.0 170.0 L 178.5 170.0 L 177.5 170.0 L 176.5 170.0 L 176.0 171.0 L 175.5 172.5 L 174.5 176.0 L 173.5 181.0 L 172.5 186.5 L 172.0 190.5 L 172.0 192.0 L 172.0 191.5 L 172.0 191.0 " stroke="black" fill="none" stroke-width="6.0" stroke-linecap="round" stroke-linejoin="round" />
<path d="M 155.5 184.0 L 155.5 183.5 L 155.0 182.5 L 154.5 182.0 L 155.0 181.5 L 157.5 181.5 L 161.0 181.0 L 165.0 181.0 L 168.0 181.5 L 169.5 182.5 L 170.0 183.0 " stroke="black" fill="none" stroke-width="6.0" stroke-linecap="round" stroke-linejoin="round" />
<path d="M 154.0 193.5 L 154.0 193.5 L 154.0 193.5 L 154.0 193.5 L 154.5 194.0 L 157.5 194.0 L 163.5 194.0 L 169.0 194.5 L 172.0 194.5 L 172.5 194.5 " stroke="black" fill="none" stroke-width="6.0" stroke-linecap="round" stroke-linejoin="round" />
</svg>