<svg xmlns="http://www.w3.org/2000/svg" width="300" height="300" viewBox="0 0 300 300">
<path d="M 136.5 115.0 L 137.0 115.0 L 138.0 114.5 L 138.5 114.0 L 139.0 114.0 L 139.5 114.0 L 140.0 115.5 L 140.5 121.5 L 140.0 132.0 L 138.5 147.5 L 137.5 159.5 L 137.5 166.5 L 137.5 171.0 L 137.5 173.5 L 137.5 174.0 L 136.5 172.5 L 136.0 171.5 " stroke="black" fill="none" stroke-width="6.0" stroke-linecap="round" stroke-linejoin="round" />
<path d="M 139.0 116.5 L 138.5 116.5 L 137.0 117.0 L 135.5 117.0 L 135.5 117.0 L 138.0 117.0 L 143.0 116.5 L 149.5 115.0 L 156.5 113.5 L 161.5 113.0 L 165.0 113.0 L 166.0 114.0 L 166.5 114.0 L 167.0 114.5 L 167.5 114.5 L 167.5 114.5 L 168.0 114.5 L 168.5 114.5 L 168.5 114.5 L 168.5 114.5 L 169.0 115.5 L 169.0 116.5 L 169.0 118.0 L 169.0 121.5 L 168.5 126.0 L 168.0 134.0 L 167.5 144.5 L 167.5 154.0 L 167.5 163.0 L 167.5 170.5 L 167.0 176.5 L 166.5 182.5 L 165.5 188.5 L 165.0 192.0 L 165.0 193.0 L 164.0 193.0 L 162.5 192.0 L 160.0 190.0 L 157.5 187.5 " stroke="black" fill="none" stroke-width="6.0" stroke-linecap="round" stroke-linejoin="round" />
<path d="M 145.0 137.0 L 142.5 137.0 L 142.0 137.0 L 142.5 137.0 L 145.5 136.5 L 150.5 135.5 L 155.0 134.0 L 159.0 133.0 L 162.5 132.5 L 163.0 132.5 " stroke="black" fill="none" stroke-width="6.0" stroke-linecap="round" stroke-linejoin="round" />
<path d="M 143.0 153.5 L 142.0 154.5 L 141.0 155.0 L 141.0 155.0 L 144.0 154.5 L 148.5 154.0 L 154.5 153.0 L 161.5 152.0 L 168.0 152.0 L 171.0 152.0 " stroke="black" fill="none" stroke-width="6.0" stroke-linecap="round" stroke-linejoin="round" />
</svg>