<svg xmlns="http://www.w3.org/2000/svg" width="300" height="300" viewBox="0 0 300 300">
<path d="M 131.5 120.5 L 131.5 120.0 L 131.5 118.5 L 132.0 118.0 L 132.0 117.5 L 132.0 118.0 L 132.0 120.5 L 132.5 130.5 L 132.0 150.5 L 131.0 166.0 L 131.0 171.0 L 131.5 173.5 L 132.0 173.5 L 132.0 173.0 " stroke="black" fill="none" stroke-width="7.0" stroke-linecap="round" stroke-linejoin="round" />
<path d="M 136.0 119.0 L 135.0 119.5 L 133.5 120.0 L 133.5 120.0 L 133.5 120.0 L 135.0 120.0 L 140.5 120.0 L 147.0 120.0 L 156.0 120.0 L 163.0 120.0 L 173.0 120.0 L 179.5 120.0 L 183.0 120.0 L 184.5 120.0 L 184.5 120.5 L 184.5 120.5 L 184.0 120.5 L 184.0 120.5 L 184.0 120.5 L 184.0 120.5 L 183.5 121.5 L 183.0 123.5 L 182.0 129.0 L 181.0 138.5 L 180.0 149.5 L 179.5 158.0 L 178.5 169.5 L 178.5 174.5 L 178.5 177.5 L 178.5 178.0 L 178.5 177.5 " stroke="black" fill="none" stroke-width="7.0" stroke-linecap="round" stroke-linejoin="round" />
<path d="M 147.0 140.5 L 146.5 139.5 L 145.5 139.0 L 145.0 138.0 L 145.0 138.0 L 145.0 141.0 L 146.0 147.0 L 146.5 151.5 L 147.0 156.5 L 148.0 158.5 L 148.5 158.5 " stroke="black" fill="none" stroke-width="7.0" stroke-linecap="round" stroke-linejoin="round" />
<path d="M 148.5 141.0 L 147.0 141.0 L 146.0 141.0 L 146.0 141.0 L 148.0 140.5 L 151.0 140.0 L 153.5 139.5 L 158.0 139.5 L 162.5 139.5 L 164.5 140.5 L 165.5 141.0 L 166.0 141.5 L 166.0 143.5 L 166.0 146.0 L 164.5 149.5 L 163.5 152.0 L 162.5 156.0 L 162.5 157.0 " stroke="black" fill="none" stroke-width="7.0" stroke-linecap="round" stroke-linejoin="round" />
<path d="M 150.5 158.0 L 148.5 159.0 L 148.5 159.5 L 150.0 159.5 L 154.0 159.5 L 158.0 159.0 L 163.0 159.0 L 165.5 159.0 " stroke="black" fill="none" stroke-width="7.0" stroke-linecap="round" stroke-linejoin="round" />
<path d="M 133.0 176.5 L 133.0 176.5 L 133.0 177.0 L 133.5 177.0 L 134.0 177.0 L 135.0 177.0 L 136.5 177.0 L 140.0 177.0 L 145.5 177.0 L 153.5 177.5 L 159.0 178.0 L 164.5 178.0 L 173.0 178.0 L 177.5 177.0 L 179.5 176.5 L 180.0 176.5 L 180.0 176.5 L 179.5 176.5 L 179.0 176.5 " stroke="black" fill="none" stroke-width="7.0" stroke-linecap="round" stroke-linejoin="round" />
</svg>