<svg xmlns="http://www.w3.org/2000/svg" width="300" height="300" viewBox="0 0 300 300">
<path d="M 146.0 106.0 L 145.5 106.5 L 145.0 106.5 L 145.0 107.0 L 147.0 108.5 L 149.5 110.5 L 151.5 112.0 L 153.0 113.0 L 153.5 113.5 " stroke="black" fill="none" stroke-width="6.0" stroke-linecap="round" stroke-linejoin="round" />
<path d="M 127.5 120.0 L 127.5 120.0 L 126.5 120.0 L 126.0 120.0 L 126.0 120.0 L 128.0 120.0 L 131.5 120.0 L 136.0 119.5 L 142.0 119.0 L 149.0 119.0 L 157.0 119.0 L 164.5 119.0 L 171.0 118.5 L 174.0 118.5 L 174.5 118.5 L 174.5 118.5 L 174.0 118.5 " stroke="black" fill="none" stroke-width="6.0" stroke-linecap="round" stroke-linejoin="round" />
<path d="M 130.5 133.5 L 130.5 133.0 L 130.5 132.5 L 130.5 132.0 L 131.0 132.0 L 131.5 136.0 L 131.5 143.5 L 131.5 152.5 L 131.0 160.0 L 131.0 162.0 L 131.5 160.0 L 131.5 158.5 " stroke="black" fill="none" stroke-width="6.0" stroke-linecap="round" stroke-linejoin="round" />
<path d="M 138.5 131.0 L 136.5 131.5 L 135.5 131.5 L 135.5 131.5 L 136.5 131.5 L 139.0 132.0 L 143.0 132.5 L 148.5 132.0 L 155.0 131.5 L 161.5 131.0 L 166.0 131.0 L 168.5 131.5 L 170.0 131.5 L 170.5 132.0 L 170.5 132.0 L 170.5 132.5 L 170.5 132.5 L 170.5 133.5 L 170.0 135.0 L 170.0 137.5 L 169.5 141.5 L 169.0 146.0 L 169.0 151.0 L 169.0 156.5 L 169.0 161.0 L 169.0 165.0 L 169.0 168.5 L 168.5 170.0 L 167.5 170.5 L 166.0 170.0 L 164.0 168.0 L 162.5 165.5 " stroke="black" fill="none" stroke-width="6.0" stroke-linecap="round" stroke-linejoin="round" />
<path d="M 150.5 121.5 L 150.5 121.0 L 150.5 120.0 L 150.5 119.5 L 150.5 119.5 L 150.5 120.5 L 150.5 124.0 L 151.0 129.0 L 151.0 135.0 L 151.0 142.5 L 151.0 149.0 L 151.0 152.5 L 151.0 155.5 L 151.0 159.0 L 151.5 162.0 L 151.5 165.0 L 151.5 167.0 L 151.5 169.0 L 151.5 170.5 L 151.5 172.5 L 151.5 174.5 L 151.5 176.0 L 151.5 177.0 L 151.5 178.5 L 152.0 179.5 L 152.0 180.5 L 152.0 181.0 L 152.0 181.5 L 152.0 181.5 L 152.0 181.5 L 152.0 181.5 L 152.0 181.5 " stroke="black" fill="none" stroke-width="6.0" stroke-linecap="round" stroke-linejoin="round" />
</svg>