<svg xmlns="http://www.w3.org/2000/svg" width="300" height="300" viewBox="0 0 300 300">
<path d="M 133.0 115.5 L 133.0 116.5 L 133.0 117.0 L 133.0 117.5 L 133.5 117.5 L 137.5 116.5 L 144.0 115.0 L 151.5 113.5 L 157.0 113.0 L 161.0 112.5 L 163.0 112.5 L 164.0 112.5 L 164.0 112.5 L 164.0 112.5 L 164.0 112.5 L 164.0 112.5 L 164.0 112.5 L 164.0 113.0 L 164.0 114.0 L 164.0 115.5 L 163.0 118.0 L 161.0 121.0 L 159.5 124.0 L 158.0 127.0 L 157.0 129.0 L 156.0 130.5 L 155.5 131.5 L 155.5 131.5 L 156.5 131.5 L 158.0 131.0 L 159.5 131.0 L 161.5 131.0 L 164.0 131.5 L 166.0 132.5 L 168.5 135.0 L 170.5 138.5 L 172.5 143.0 L 174.0 147.5 L 175.5 152.5 L 177.5 157.5 L 179.0 162.5 L 180.0 167.5 L 181.0 172.5 L 181.0 177.0 L 180.5 181.0 L 179.0 184.0 L 176.0 185.5 L 172.0 186.5 L 167.0 186.5 L 162.5 185.0 L 160.0 182.5 " stroke="black" fill="none" stroke-width="6.0" stroke-linecap="round" stroke-linejoin="round" />
<path d="M 137.5 118.5 L 139.0 118.0 L 139.5 117.5 L 139.5 118.0 L 139.5 120.0 L 139.5 125.0 L 139.0 135.0 L 137.0 150.0 L 133.0 165.0 L 130.5 174.0 L 128.5 176.5 L 127.0 177.0 " stroke="black" fill="none" stroke-width="6.0" stroke-linecap="round" stroke-linejoin="round" />
</svg>