<svg xmlns="http://www.w3.org/2000/svg" width="300" height="300" viewBox="0 0 300 300">
<path d="M 138.0 103.0 L 138.0 103.0 L 138.0 102.0 L 138.0 101.5 L 138.0 101.0 L 138.0 101.0 L 138.0 101.0 L 137.5 101.5 L 136.5 103.5 L 133.5 106.5 L 130.0 109.5 L 126.0 112.5 L 122.5 114.5 L 120.5 115.0 L 119.5 115.5 L 118.5 115.5 L 118.0 115.5 L 117.5 115.0 L 117.5 115.0 L 117.5 115.0 L 117.5 115.0 L 117.5 115.0 L 117.5 115.0 L 117.5 115.0 L 117.5 115.0 L 117.5 115.0 L 117.5 115.0 L 117.5 115.0 L 117.5 115.0 L 117.5 115.0 L 118.0 115.0 L 118.0 115.0 L 118.0 115.0 L 118.0 115.0 L 118.0 115.0 L 118.0 115.0 L 118.0 115.0 L 118.0 115.0 L 118.0 115.5 L 118.5 117.0 L 119.0 120.0 L 119.5 125.0 L 119.5 131.0 L 119.0 137.0 L 118.5 143.0 L 118.0 148.0 L 118.0 152.5 L 117.5 156.5 L 117.0 161.0 L 116.5 165.0 L 116.0 169.5 L 116.0 173.0 L 115.5 176.0 L 115.5 177.5 L 115.0 177.5 L 115.0 177.5 L 115.0 177.5 L 114.5 177.5 L 114.5 176.5 " stroke="black" fill="none" stroke-width="6.0" stroke-linecap="round" stroke-linejoin="round" />
<path d="M 122.5 124.5 L 122.5 124.5 L 123.0 124.0 L 123.0 123.5 L 123.5 123.5 L 124.0 123.5 L 125.5 123.5 L 128.0 123.5 L 131.5 123.0 L 135.5 122.0 L 138.5 121.0 L 140.5 119.5 L 141.5 119.0 L 142.0 119.0 L 142.0 119.0 L 142.0 119.0 L 142.0 119.5 L 142.0 120.5 L 142.0 122.0 L 141.5 124.5 L 141.0 127.0 L 140.5 130.0 L 140.5 131.5 L 140.0 133.0 L 140.0 133.0 " stroke="black" fill="none" stroke-width="6.0" stroke-linecap="round" stroke-linejoin="round" />
<path d="M 123.5 135.5 L 123.5 136.5 L 123.5 137.0 L 123.5 137.0 L 124.0 137.0 L 127.0 136.0 L 130.5 135.0 L 135.5 133.5 L 139.5 133.5 L 141.5 133.5 " stroke="black" fill="none" stroke-width="6.0" stroke-linecap="round" stroke-linejoin="round" />
<path d="M 130.0 144.5 L 130.0 144.0 L 130.5 143.5 L 131.0 143.5 L 131.0 143.0 L 131.0 143.0 L 130.0 144.5 L 128.5 147.0 L 126.0 149.5 L 124.0 151.5 L 122.5 153.0 L 122.5 153.0 " stroke="black" fill="none" stroke-width="6.0" stroke-linecap="round" stroke-linejoin="round" />
<path d="M 128.0 148.5 L 128.0 149.0 L 128.5 149.0 L 128.5 149.5 L 129.0 150.5 L 129.0 153.0 L 129.0 159.0 L 128.5 168.0 L 128.0 176.5 L 128.5 181.5 L 129.0 182.0 " stroke="black" fill="none" stroke-width="6.0" stroke-linecap="round" stroke-linejoin="round" />
<path d="M 141.5 144.5 L 141.5 144.5 L 141.0 143.5 L 140.5 143.5 L 140.5 143.0 L 140.5 143.0 L 140.5 144.0 L 140.5 146.0 L 141.0 148.0 L 141.5 150.0 L 142.0 151.0 " stroke="black" fill="none" stroke-width="6.0" stroke-linecap="round" stroke-linejoin="round" />
<path d="M 135.5 156.5 L 134.5 157.0 L 133.5 157.5 L 133.5 157.5 L 134.5 157.0 L 137.0 156.0 L 139.0 155.5 L 141.5 155.0 L 143.5 154.5 L 144.0 154.5 " stroke="black" fill="none" stroke-width="6.0" stroke-linecap="round" stroke-linejoin="round" />
<path d="M 136.5 166.5 L 136.0 166.5 L 135.0 166.5 L 135.0 166.5 L 136.5 166.5 L 138.5 166.0 L 141.0 165.5 L 143.5 165.0 L 145.0 165.0 " stroke="black" fill="none" stroke-width="6.0" stroke-linecap="round" stroke-linejoin="round" />
<path d="M 139.0 174.0 L 138.5 174.5 L 137.0 175.5 L 137.0 175.5 L 138.0 175.5 L 139.5 175.5 L 141.5 175.0 L 143.5 174.0 L 144.5 173.5 " stroke="black" fill="none" stroke-width="6.0" stroke-linecap="round" stroke-linejoin="round" />
<path d="M 141.0 157.0 L 140.0 157.5 L 139.5 158.5 L 139.5 159.5 L 139.5 162.0 L 139.5 166.0 L 140.0 171.5 L 140.5 177.0 L 141.0 181.0 L 141.0 181.5 " stroke="black" fill="none" stroke-width="6.0" stroke-linecap="round" stroke-linejoin="round" />
<path d="M 137.5 187.0 L 137.0 187.0 L 137.0 187.0 L 138.5 186.5 L 141.5 185.5 L 145.0 184.5 L 148.0 183.5 " stroke="black" fill="none" stroke-width="6.0" stroke-linecap="round" stroke-linejoin="round" />
<path d="M 153.5 107.5 L 153.5 108.0 L 152.5 108.0 L 152.0 108.5 L 152.0 108.5 L 154.5 108.5 L 159.0 108.5 L 164.0 108.5 L 168.0 108.5 L 170.5 108.5 L 171.5 109.0 L 171.5 109.0 L 171.0 108.5 " stroke="black" fill="none" stroke-width="6.0" stroke-linecap="round" stroke-linejoin="round" />
<path d="M 164.5 110.5 L 164.0 110.5 L 163.5 110.5 L 163.5 110.5 L 163.0 110.5 L 163.0 112.0 L 162.0 115.0 L 161.5 118.5 L 161.5 121.0 " stroke="black" fill="none" stroke-width="6.0" stroke-linecap="round" stroke-linejoin="round" />
<path d="M 157.0 126.5 L 157.0 126.0 L 156.5 125.0 L 156.0 125.0 L 156.0 125.0 L 156.0 128.5 L 156.0 136.5 L 156.0 148.0 L 156.5 157.5 L 157.5 161.5 L 158.5 160.0 L 158.5 159.0 " stroke="black" fill="none" stroke-width="6.0" stroke-linecap="round" stroke-linejoin="round" />
<path d="M 159.0 127.0 L 158.0 127.0 L 157.5 127.0 L 157.5 127.0 L 159.5 127.0 L 163.0 126.0 L 166.5 125.5 L 169.5 124.5 L 172.5 124.5 L 174.5 125.0 L 176.0 127.5 L 176.5 131.5 L 176.5 138.5 L 176.5 147.5 L 176.5 155.5 L 176.5 159.5 L 176.5 160.0 L 175.5 158.0 L 175.0 157.5 " stroke="black" fill="none" stroke-width="6.0" stroke-linecap="round" stroke-linejoin="round" />
<path d="M 161.0 136.5 L 159.0 137.0 L 158.5 137.0 L 159.0 137.0 L 161.0 137.0 L 164.5 136.5 L 167.5 135.5 L 170.5 135.5 L 173.0 135.5 L 174.5 135.5 " stroke="black" fill="none" stroke-width="6.0" stroke-linecap="round" stroke-linejoin="round" />
<path d="M 164.0 146.5 L 163.5 146.5 L 163.0 146.5 L 163.0 146.5 L 164.0 146.5 L 166.0 146.0 L 169.5 146.0 L 173.0 146.0 L 175.5 146.0 L 176.0 146.0 " stroke="black" fill="none" stroke-width="6.0" stroke-linecap="round" stroke-linejoin="round" />
<path d="M 160.5 161.0 L 159.5 161.0 L 158.5 161.0 L 158.5 161.0 L 161.5 160.5 L 166.0 160.0 L 170.0 159.5 L 173.5 159.5 L 176.0 160.0 " stroke="black" fill="none" stroke-width="6.0" stroke-linecap="round" stroke-linejoin="round" />
<path d="M 165.5 169.5 L 165.5 169.5 L 165.5 169.5 L 165.5 169.0 L 165.5 169.0 L 164.5 171.0 L 163.0 174.5 L 161.0 177.5 L 160.5 178.5 L 160.5 178.5 " stroke="black" fill="none" stroke-width="6.0" stroke-linecap="round" stroke-linejoin="round" />
<path d="M 172.0 169.5 L 173.0 169.5 L 174.0 169.5 L 175.5 170.0 L 178.0 171.5 L 181.0 174.0 L 184.0 177.0 L 186.5 180.0 L 188.0 181.0 " stroke="black" fill="none" stroke-width="6.0" stroke-linecap="round" stroke-linejoin="round" />
</svg>