<svg xmlns="http://www.w3.org/2000/svg" width="300" height="300" viewBox="0 0 300 300">
<path d="M 123.0 112.5 L 123.0 112.5 L 123.0 113.0 L 123.0 113.0 L 123.5 113.5 L 124.0 115.5 L 124.5 122.0 L 125.5 134.5 L 125.5 149.0 L 124.5 162.5 L 124.5 174.0 L 124.5 180.0 L 124.5 181.5 L 125.0 181.5 L 125.0 180.5 L 124.5 178.5 " stroke="black" fill="none" stroke-width="6.0" stroke-linecap="round" stroke-linejoin="round" />
<path d="M 125.5 106.5 L 124.0 107.5 L 123.5 108.0 L 123.5 108.0 L 124.5 107.5 L 126.0 107.5 L 128.5 107.5 L 131.5 107.5 L 137.0 107.0 L 145.0 106.5 L 154.5 105.0 L 162.5 103.5 L 167.0 103.0 L 170.0 103.0 L 171.0 103.5 L 171.0 103.5 L 171.0 103.5 L 171.5 103.5 L 171.5 103.5 L 172.0 103.5 L 172.5 103.5 L 172.5 103.5 L 173.0 103.5 L 173.0 103.5 L 173.5 103.5 L 173.5 103.5 L 174.0 104.0 L 174.5 104.0 L 174.5 104.0 L 175.0 104.0 L 175.0 104.0 L 175.0 104.0 L 175.5 104.5 L 175.5 104.5 L 175.5 105.5 L 175.0 107.5 L 174.5 111.0 L 174.0 117.0 L 173.5 125.0 L 173.0 132.5 L 172.5 140.5 L 172.0 148.0 L 172.0 155.0 L 171.5 162.0 L 171.5 168.5 L 171.5 173.5 L 171.5 178.0 L 172.5 182.0 L 172.5 184.0 L 173.0 185.0 L 172.5 183.5 " stroke="black" fill="none" stroke-width="6.0" stroke-linecap="round" stroke-linejoin="round" />
<path d="M 139.0 120.0 L 138.5 120.5 L 138.0 120.5 L 137.5 120.5 L 137.5 121.0 L 139.5 121.0 L 143.0 121.0 L 146.0 120.5 L 149.0 120.0 L 152.0 120.0 L 154.0 119.5 L 155.0 119.5 " stroke="black" fill="none" stroke-width="6.0" stroke-linecap="round" stroke-linejoin="round" />
<path d="M 150.5 108.5 L 150.5 108.5 L 150.0 109.5 L 149.5 109.5 L 149.0 110.0 L 148.5 111.5 L 148.5 115.5 L 148.5 121.0 L 148.5 126.0 L 148.5 129.0 L 148.5 129.5 " stroke="black" fill="none" stroke-width="6.0" stroke-linecap="round" stroke-linejoin="round" />
<path d="M 136.5 131.0 L 136.5 132.0 L 136.5 133.0 L 136.5 133.0 L 137.5 133.0 L 140.0 133.0 L 145.0 132.5 L 150.0 131.5 L 154.5 130.5 L 157.5 129.5 L 158.0 129.5 L 158.0 129.5 " stroke="black" fill="none" stroke-width="6.0" stroke-linecap="round" stroke-linejoin="round" />
<path d="M 138.0 145.0 L 138.5 144.0 L 139.0 143.5 L 139.0 143.0 L 139.0 143.0 L 139.0 144.0 L 139.5 146.5 L 140.5 149.0 L 141.0 150.5 L 141.0 151.0 " stroke="black" fill="none" stroke-width="6.0" stroke-linecap="round" stroke-linejoin="round" />
<path d="M 140.0 142.0 L 139.0 142.0 L 138.5 141.5 L 138.5 141.5 L 141.0 140.5 L 144.5 139.0 L 148.5 138.5 L 152.0 138.0 L 155.0 138.0 L 157.0 138.0 L 158.5 138.0 L 159.0 138.0 L 159.5 138.0 L 160.0 138.0 L 160.0 138.0 L 160.0 138.5 L 160.0 139.0 L 160.0 140.5 L 159.5 142.5 L 158.5 144.5 L 158.0 146.5 L 157.0 148.0 L 157.0 148.0 " stroke="black" fill="none" stroke-width="6.0" stroke-linecap="round" stroke-linejoin="round" />
<path d="M 146.5 150.5 L 145.0 151.0 L 144.5 151.5 L 144.5 152.0 L 146.5 151.5 L 149.5 151.0 L 152.0 151.0 L 154.0 151.0 " stroke="black" fill="none" stroke-width="6.0" stroke-linecap="round" stroke-linejoin="round" />
<path d="M 146.5 152.0 L 146.5 152.0 L 147.0 152.5 L 147.0 153.0 L 147.0 154.0 L 146.0 155.5 L 143.5 159.0 L 140.5 162.5 L 137.0 165.0 L 135.5 166.0 L 134.5 166.0 " stroke="black" fill="none" stroke-width="6.0" stroke-linecap="round" stroke-linejoin="round" />
<path d="M 147.5 156.0 L 147.5 156.5 L 147.5 156.5 L 148.0 156.5 L 149.5 157.5 L 152.5 159.0 L 156.5 161.0 L 160.0 163.0 L 162.5 164.0 L 163.0 164.5 " stroke="black" fill="none" stroke-width="6.0" stroke-linecap="round" stroke-linejoin="round" />
<path d="M 163.5 151.5 L 163.5 152.0 L 163.5 152.0 L 163.0 152.5 L 163.0 152.5 L 162.5 153.0 L 162.0 154.0 L 161.0 155.0 " stroke="black" fill="none" stroke-width="6.0" stroke-linecap="round" stroke-linejoin="round" />
<path d="M 144.5 163.0 L 144.0 162.0 L 143.5 161.0 L 143.5 161.0 L 143.5 161.0 L 143.5 163.5 L 143.5 167.5 L 144.0 172.0 L 145.0 175.5 L 146.0 177.5 L 148.0 177.0 L 150.5 175.0 L 152.5 173.0 L 154.0 171.5 " stroke="black" fill="none" stroke-width="6.0" stroke-linecap="round" stroke-linejoin="round" />
<path d="M 128.5 186.0 L 128.5 185.5 L 127.5 185.0 L 127.0 185.0 L 127.0 185.0 L 130.0 185.0 L 135.5 185.5 L 145.0 186.5 L 155.5 187.0 L 162.5 187.0 L 166.0 187.0 " stroke="black" fill="none" stroke-width="6.0" stroke-linecap="round" stroke-linejoin="round" />
</svg>