<svg xmlns="http://www.w3.org/2000/svg" width="300" height="300" viewBox="0 0 300 300">
<path d="M 131.0 114.0 L 131.5 114.0 L 132.5 114.0 L 133.0 113.5 L 133.0 113.5 L 133.0 113.5 L 133.0 113.5 L 132.5 115.5 L 129.5 119.5 L 125.5 126.0 L 121.0 132.0 L 118.0 136.5 L 116.5 138.0 L 116.5 138.0 L 117.0 136.5 L 118.0 134.5 " stroke="black" fill="none" stroke-width="7.0" stroke-linecap="round" stroke-linejoin="round" />
<path d="M 125.0 129.5 L 125.0 130.0 L 125.0 131.0 L 124.5 131.5 L 124.5 133.0 L 125.0 136.5 L 125.0 143.0 L 125.0 153.0 L 125.0 163.0 L 124.5 171.5 L 124.5 175.0 L 124.5 175.5 L 125.0 173.5 " stroke="black" fill="none" stroke-width="7.0" stroke-linecap="round" stroke-linejoin="round" />
<path d="M 143.5 126.5 L 142.5 126.5 L 141.5 126.5 L 141.0 126.5 L 141.0 126.5 L 144.0 126.5 L 148.5 126.5 L 153.5 126.0 L 157.5 125.5 L 160.0 125.5 L 161.0 125.0 L 161.0 125.0 " stroke="black" fill="none" stroke-width="7.0" stroke-linecap="round" stroke-linejoin="round" />
<path d="M 152.5 112.5 L 152.5 112.5 L 152.5 112.5 L 153.0 112.5 L 153.0 112.5 L 153.0 115.5 L 153.0 121.0 L 152.0 127.0 L 151.5 132.0 L 151.0 135.5 L 151.0 136.0 " stroke="black" fill="none" stroke-width="7.0" stroke-linecap="round" stroke-linejoin="round" />
<path d="M 138.5 139.0 L 138.5 139.0 L 138.5 139.5 L 138.5 139.5 L 139.5 139.5 L 142.5 139.5 L 148.0 139.0 L 154.5 138.5 L 160.0 138.5 L 162.5 138.5 L 162.5 138.5 L 162.0 138.5 " stroke="black" fill="none" stroke-width="7.0" stroke-linecap="round" stroke-linejoin="round" />
<path d="M 144.0 157.0 L 143.0 157.0 L 142.5 157.0 L 142.5 157.0 L 144.5 157.0 L 148.0 157.0 L 151.0 157.0 L 154.0 156.5 L 156.5 156.0 L 158.0 155.5 L 158.0 155.5 " stroke="black" fill="none" stroke-width="7.0" stroke-linecap="round" stroke-linejoin="round" />
<path d="M 152.0 147.5 L 152.0 147.5 L 152.0 147.5 L 152.0 147.5 L 152.0 148.5 L 152.0 151.5 L 152.0 156.0 L 151.5 161.5 L 151.5 165.0 L 151.5 167.0 " stroke="black" fill="none" stroke-width="7.0" stroke-linecap="round" stroke-linejoin="round" />
<path d="M 138.5 173.0 L 138.0 173.5 L 137.5 174.0 L 137.0 174.0 L 137.0 174.0 L 138.0 173.0 L 140.0 172.0 L 143.0 171.0 L 147.5 170.0 L 153.5 170.0 L 159.0 170.0 L 163.0 170.5 L 166.0 171.0 L 167.5 171.5 L 168.0 171.5 L 168.0 171.5 L 167.5 171.5 L 167.5 171.5 L 167.5 171.5 L 167.5 171.5 L 167.5 171.5 " stroke="black" fill="none" stroke-width="7.0" stroke-linecap="round" stroke-linejoin="round" />
</svg>