<svg xmlns="http://www.w3.org/2000/svg" width="300" height="300" viewBox="0 0 300 300">
<path d="M 135.0 121.5 L 135.5 121.0 L 136.5 120.5 L 136.5 120.5 L 136.5 120.5 L 136.5 120.5 L 136.5 121.5 L 136.5 124.5 L 135.5 131.0 L 133.0 143.5 L 129.5 157.0 L 126.5 166.0 L 125.0 168.5 L 125.0 168.0 L 125.0 167.5 L 125.0 167.0 " stroke="black" fill="none" stroke-width="6.0" stroke-linecap="round" stroke-linejoin="round" />
<path d="M 150.5 123.5 L 150.5 122.5 L 150.5 122.0 L 150.5 121.5 L 150.5 122.5 L 150.5 126.0 L 151.0 132.5 L 151.0 143.5 L 150.5 154.5 L 149.5 162.0 L 149.0 163.5 L 149.0 162.0 " stroke="black" fill="none" stroke-width="6.0" stroke-linecap="round" stroke-linejoin="round" />
<path d="M 166.5 116.0 L 166.5 116.0 L 166.5 116.0 L 166.0 116.5 L 166.0 117.0 L 166.5 119.0 L 167.5 125.0 L 168.5 136.5 L 168.5 149.5 L 168.5 160.0 L 168.5 166.5 L 169.0 169.5 L 169.0 170.0 L 169.0 170.0 " stroke="black" fill="none" stroke-width="6.0" stroke-linecap="round" stroke-linejoin="round" />
</svg>