<svg xmlns="http://www.w3.org/2000/svg" width="300" height="300" viewBox="0 0 300 300">
<path d="M 132.5 114.0 L 132.5 114.0 L 133.0 113.5 L 133.5 113.5 L 133.5 113.5 L 134.0 117.0 L 134.0 126.5 L 132.0 141.0 L 129.5 153.0 L 127.5 160.0 L 126.5 161.5 L 125.5 161.5 L 125.0 160.0 " stroke="black" fill="none" stroke-width="6.0" stroke-linecap="round" stroke-linejoin="round" />
<path d="M 149.5 119.5 L 149.5 119.5 L 149.0 119.5 L 148.5 120.0 L 148.5 122.0 L 149.0 128.5 L 149.0 142.0 L 149.0 156.0 L 149.0 163.5 L 149.0 164.5 " stroke="black" fill="none" stroke-width="6.0" stroke-linecap="round" stroke-linejoin="round" />
<path d="M 167.0 111.5 L 167.0 111.5 L 166.5 111.5 L 166.0 112.0 L 166.0 115.5 L 166.5 128.5 L 166.5 150.0 L 166.5 169.0 L 167.0 180.0 L 168.5 183.5 " stroke="black" fill="none" stroke-width="6.0" stroke-linecap="round" stroke-linejoin="round" />
</svg>