<svg xmlns="http://www.w3.org/2000/svg" width="300" height="300" viewBox="0 0 300 300">
<path d="M 134.0 118.5 L 134.0 118.5 L 134.5 118.5 L 134.5 118.5 L 134.5 118.0 L 135.5 117.5 L 137.5 116.5 L 142.0 114.5 L 148.0 112.5 L 153.5 111.5 L 157.0 111.0 L 157.5 111.0 L 158.0 111.5 L 158.0 113.0 L 158.0 115.0 L 157.0 117.0 L 156.0 119.0 L 155.0 121.5 L 153.0 124.0 L 151.0 126.5 L 149.5 129.0 L 148.5 131.0 L 148.5 131.5 L 148.5 131.5 L 148.5 131.0 L 149.0 131.0 L 149.5 131.0 " stroke="black" fill="none" stroke-width="6.0" stroke-linecap="round" stroke-linejoin="round" />
<path d="M 150.0 129.5 L 149.5 130.0 L 148.5 130.0 L 148.0 130.0 L 148.0 130.0 L 148.5 130.0 L 149.5 130.0 L 151.0 131.5 L 152.5 135.0 L 154.5 141.5 L 156.0 149.5 L 156.0 157.5 L 156.0 165.5 L 155.0 172.5 L 154.0 177.0 L 153.0 181.0 L 152.0 183.5 L 150.5 184.0 L 148.5 184.5 L 146.5 184.0 L 144.0 182.0 L 142.5 179.0 L 142.0 178.0 " stroke="black" fill="none" stroke-width="6.0" stroke-linecap="round" stroke-linejoin="round" />
<path d="M 130.0 142.5 L 130.0 142.0 L 130.0 141.0 L 130.5 140.5 L 135.5 140.0 L 148.0 138.5 L 162.0 137.0 L 170.5 136.0 L 174.0 136.0 L 174.0 136.0 " stroke="black" fill="none" stroke-width="6.0" stroke-linecap="round" stroke-linejoin="round" />
</svg>