<svg xmlns="http://www.w3.org/2000/svg" width="300" height="300" viewBox="0 0 300 300">
<path d="M 121.0 118.5 L 121.0 118.0 L 121.0 117.5 L 121.0 117.5 L 121.0 117.5 L 121.0 118.0 L 121.0 122.0 L 121.5 133.0 L 122.0 150.0 L 122.0 166.0 L 121.0 178.0 L 121.0 185.0 L 120.5 188.0 L 120.5 188.5 L 119.0 187.0 L 116.5 183.0 " stroke="black" fill="none" stroke-width="7.0" stroke-linecap="round" stroke-linejoin="round" />
<path d="M 121.0 115.5 L 120.0 116.0 L 119.5 116.5 L 119.5 116.5 L 120.5 117.0 L 123.0 117.0 L 126.5 117.0 L 130.5 116.0 L 135.0 114.5 L 138.0 113.5 L 140.0 113.0 L 141.0 113.0 L 141.5 114.5 L 142.0 117.0 L 142.5 123.0 L 143.5 131.0 L 145.0 141.5 L 146.0 152.0 L 146.5 160.5 L 146.5 170.0 L 146.5 179.0 L 146.5 185.5 L 146.5 190.0 L 146.0 192.0 L 145.0 192.0 L 142.5 190.5 L 139.0 185.5 L 138.0 183.5 " stroke="black" fill="none" stroke-width="7.0" stroke-linecap="round" stroke-linejoin="round" />
<path d="M 130.5 130.0 L 130.5 130.5 L 130.5 131.0 L 130.5 131.0 L 130.5 131.5 L 131.5 132.5 L 133.0 133.0 L 133.5 133.5 " stroke="black" fill="none" stroke-width="7.0" stroke-linecap="round" stroke-linejoin="round" />
<path d="M 112.0 147.0 L 113.0 147.0 L 113.5 147.0 L 115.5 147.0 L 120.0 146.5 L 127.5 145.5 L 136.0 144.0 L 144.0 142.5 L 150.5 141.5 L 153.5 141.0 L 153.5 142.5 L 153.0 143.0 " stroke="black" fill="none" stroke-width="7.0" stroke-linecap="round" stroke-linejoin="round" />
<path d="M 173.0 117.0 L 173.0 117.0 L 173.5 117.0 L 174.0 117.0 L 174.0 116.5 L 174.0 116.5 L 173.5 117.0 L 170.5 120.5 L 167.0 125.0 L 163.5 129.5 L 161.5 132.0 L 161.5 132.5 " stroke="black" fill="none" stroke-width="7.0" stroke-linecap="round" stroke-linejoin="round" />
<path d="M 179.5 129.0 L 180.0 129.0 L 180.5 129.0 L 181.0 129.5 L 181.0 129.5 L 180.0 131.0 L 177.5 135.0 L 172.5 141.5 L 167.5 148.5 L 164.0 152.0 L 163.0 152.5 L 163.5 152.0 " stroke="black" fill="none" stroke-width="7.0" stroke-linecap="round" stroke-linejoin="round" />
<path d="M 181.5 152.0 L 182.5 152.0 L 183.0 152.5 L 183.0 152.5 L 183.0 152.5 L 182.5 154.5 L 178.5 160.0 L 173.0 168.5 L 168.0 174.5 L 165.5 176.0 L 165.5 176.0 L 166.0 175.0 " stroke="black" fill="none" stroke-width="7.0" stroke-linecap="round" stroke-linejoin="round" />
</svg>