<svg xmlns="http://www.w3.org/2000/svg" width="300" height="300" viewBox="0 0 300 300">
<path d="M 123.5 125.0 L 123.0 125.0 L 122.0 125.5 L 121.5 125.5 L 121.5 126.5 L 124.5 128.0 L 128.0 130.0 L 131.0 132.0 L 133.0 134.0 L 134.5 135.0 L 134.5 135.0 " stroke="black" fill="none" stroke-width="6.0" stroke-linecap="round" stroke-linejoin="round" />
<path d="M 121.0 150.0 L 121.0 150.0 L 120.0 149.5 L 119.5 149.5 L 120.0 149.5 L 123.0 151.0 L 126.0 152.5 L 128.5 154.5 L 131.0 156.0 " stroke="black" fill="none" stroke-width="6.0" stroke-linecap="round" stroke-linejoin="round" />
<path d="M 119.5 186.0 L 118.5 185.5 L 118.0 185.0 L 121.0 183.0 L 126.0 179.0 L 132.0 175.0 L 135.5 172.5 L 136.5 171.5 " stroke="black" fill="none" stroke-width="6.0" stroke-linecap="round" stroke-linejoin="round" />
<path d="M 172.5 118.0 L 172.5 118.0 L 172.5 118.0 L 172.5 118.0 L 172.5 118.0 L 172.5 118.0 L 171.5 118.0 L 169.0 118.5 L 164.0 120.5 L 157.5 122.5 L 152.5 123.5 L 149.0 123.5 L 147.5 123.5 L 146.5 123.5 L 146.5 123.5 L 146.5 123.5 L 146.5 123.5 L 146.5 123.5 L 146.5 123.5 L 147.0 123.5 L 147.0 124.0 L 147.5 124.0 L 147.5 124.5 L 148.0 125.5 L 148.0 126.5 L 148.5 128.5 L 148.5 132.5 L 149.0 139.5 L 149.0 147.5 L 148.5 155.0 L 148.0 162.5 L 147.0 169.5 L 146.0 175.5 L 145.5 179.5 L 145.5 182.0 L 145.0 183.0 L 145.0 183.0 L 144.5 182.0 L 144.5 180.0 " stroke="black" fill="none" stroke-width="6.0" stroke-linecap="round" stroke-linejoin="round" />
<path d="M 151.5 132.5 L 150.0 132.5 L 149.5 132.5 L 149.0 132.5 L 149.5 132.5 L 151.0 132.5 L 154.5 132.5 L 159.0 131.5 L 163.5 130.0 L 167.5 129.5 L 170.0 129.0 L 171.5 129.0 L 172.0 129.0 L 172.0 129.0 L 172.0 129.5 L 172.0 130.0 L 172.0 130.5 L 171.5 132.0 L 171.5 134.0 L 171.0 136.0 L 170.5 138.0 L 170.0 140.0 L 170.0 142.5 L 170.0 144.0 " stroke="black" fill="none" stroke-width="6.0" stroke-linecap="round" stroke-linejoin="round" />
<path d="M 153.0 149.0 L 152.0 149.0 L 151.0 149.0 L 150.5 149.0 L 151.5 148.5 L 155.5 148.0 L 160.5 147.0 L 164.5 146.5 L 168.0 146.0 L 170.0 146.0 " stroke="black" fill="none" stroke-width="6.0" stroke-linecap="round" stroke-linejoin="round" />
<path d="M 154.5 164.5 L 153.0 164.5 L 152.5 164.0 L 152.0 164.0 L 152.5 163.5 L 155.5 163.0 L 160.0 161.5 L 165.5 160.0 L 171.0 158.5 L 174.0 158.0 L 174.5 158.0 L 174.5 159.0 " stroke="black" fill="none" stroke-width="6.0" stroke-linecap="round" stroke-linejoin="round" />
<path d="M 165.0 153.0 L 164.5 153.5 L 164.0 154.5 L 163.5 155.0 L 163.5 156.5 L 163.5 159.5 L 162.5 165.5 L 159.5 172.0 L 156.5 178.0 L 153.5 181.0 L 152.5 182.0 L 152.5 181.5 L 153.0 179.5 L 153.0 179.0 " stroke="black" fill="none" stroke-width="6.0" stroke-linecap="round" stroke-linejoin="round" />
<path d="M 167.0 169.0 L 167.0 169.0 L 167.0 169.0 L 167.0 169.0 L 169.0 171.0 L 172.5 173.5 L 176.5 176.0 L 180.0 178.5 L 182.0 179.0 " stroke="black" fill="none" stroke-width="6.0" stroke-linecap="round" stroke-linejoin="round" />
<path d="M 173.0 150.5 L 173.0 150.5 L 173.0 151.0 L 174.0 151.5 L 175.0 152.0 L 176.0 153.0 L 177.0 153.0 " stroke="black" fill="none" stroke-width="6.0" stroke-linecap="round" stroke-linejoin="round" />
</svg>