<svg xmlns="http://www.w3.org/2000/svg" width="300" height="300" viewBox="0 0 300 300">
<path d="M 149.0 103.5 L 149.0 102.5 L 149.0 101.5 L 149.0 101.0 L 149.0 101.0 L 149.5 101.5 L 149.0 103.5 L 147.0 108.5 L 142.0 115.5 L 132.5 127.0 L 124.5 136.0 L 120.0 141.0 L 118.5 142.0 L 118.5 140.0 L 120.0 136.0 " stroke="black" fill="none" stroke-width="6.0" stroke-linecap="round" stroke-linejoin="round" />
<path d="M 153.0 108.0 L 152.0 107.5 L 151.5 107.5 L 151.5 107.5 L 152.5 109.5 L 155.5 112.5 L 160.0 118.0 L 166.5 125.0 L 172.5 130.5 L 176.5 134.0 L 178.5 135.5 L 178.5 136.0 L 178.5 136.0 " stroke="black" fill="none" stroke-width="6.0" stroke-linecap="round" stroke-linejoin="round" />
<path d="M 139.5 134.5 L 139.0 134.5 L 138.5 135.0 L 138.0 135.0 L 139.0 135.0 L 142.5 135.0 L 147.5 135.0 L 152.5 134.0 L 156.5 133.5 L 160.5 133.0 L 163.5 133.0 " stroke="black" fill="none" stroke-width="6.0" stroke-linecap="round" stroke-linejoin="round" />
<path d="M 130.0 151.0 L 130.0 151.5 L 130.0 151.5 L 130.5 152.0 L 134.5 152.0 L 143.5 152.0 L 152.5 151.0 L 160.0 150.0 L 165.5 149.0 L 167.5 148.5 L 167.5 148.5 " stroke="black" fill="none" stroke-width="6.0" stroke-linecap="round" stroke-linejoin="round" />
<path d="M 151.0 137.0 L 150.5 137.0 L 150.0 137.0 L 149.5 137.5 L 149.5 139.5 L 149.5 143.5 L 150.0 150.5 L 150.5 158.5 L 150.5 166.5 L 150.5 173.5 L 150.5 178.0 L 150.5 182.0 L 150.0 184.5 L 149.0 186.5 L 147.5 187.5 L 145.0 187.5 L 142.5 187.5 L 140.5 186.5 L 139.0 185.0 L 138.5 184.5 " stroke="black" fill="none" stroke-width="6.0" stroke-linecap="round" stroke-linejoin="round" />
<path d="M 135.5 171.5 L 135.5 171.0 L 135.0 170.5 L 135.0 170.0 L 135.0 170.0 L 134.5 171.0 L 132.5 173.5 L 130.0 176.0 L 127.5 179.0 L 127.0 181.0 " stroke="black" fill="none" stroke-width="6.0" stroke-linecap="round" stroke-linejoin="round" />
<path d="M 164.0 162.0 L 163.5 163.0 L 163.0 163.5 L 164.5 166.5 L 168.0 171.5 L 171.5 178.0 L 174.5 181.5 L 176.5 183.0 L 176.5 183.0 " stroke="black" fill="none" stroke-width="6.0" stroke-linecap="round" stroke-linejoin="round" />
</svg>