<svg xmlns="http://www.w3.org/2000/svg" width="300" height="300" viewBox="0 0 300 300">
<path d="M 132.0 131.0 L 132.0 130.5 L 132.5 130.5 L 133.0 130.0 L 133.5 131.0 L 134.0 135.5 L 135.0 144.0 L 135.5 151.0 L 136.0 153.0 L 136.5 151.5 L 136.5 150.5 " stroke="black" fill="none" stroke-width="6.0" stroke-linecap="round" stroke-linejoin="round" />
<path d="M 133.0 129.5 L 132.5 129.5 L 131.5 129.5 L 131.0 129.5 L 131.0 129.5 L 132.5 130.0 L 135.5 130.0 L 140.5 130.0 L 149.0 128.5 L 159.0 127.5 L 167.0 127.0 L 171.5 127.5 L 172.5 128.5 L 172.5 128.5 L 172.0 128.5 L 172.0 128.5 L 172.0 128.5 L 172.0 128.5 L 171.5 129.5 L 171.5 132.0 L 171.0 136.0 L 170.0 142.0 L 169.5 147.5 L 169.0 151.0 L 168.5 152.5 L 168.5 152.5 " stroke="black" fill="none" stroke-width="6.0" stroke-linecap="round" stroke-linejoin="round" />
<path d="M 135.5 158.0 L 135.5 157.5 L 135.5 157.0 L 136.0 157.0 L 139.0 157.0 L 146.0 157.0 L 154.5 157.0 L 162.5 156.0 L 167.0 155.0 " stroke="black" fill="none" stroke-width="6.0" stroke-linecap="round" stroke-linejoin="round" />
<path d="M 152.0 109.0 L 152.0 109.5 L 151.5 110.5 L 151.5 112.0 L 151.5 114.5 L 152.0 121.0 L 152.5 130.5 L 152.5 142.5 L 152.0 153.0 L 152.0 161.5 L 152.5 168.0 L 153.0 173.5 L 153.0 178.0 L 153.0 181.5 L 153.0 184.0 L 153.0 185.5 L 153.0 186.5 L 152.5 188.0 L 152.5 189.0 L 152.5 189.5 L 152.5 189.5 L 152.5 190.5 L 152.5 191.0 L 153.0 191.0 L 153.0 191.5 L 153.0 192.0 L 153.0 192.0 L 153.0 192.0 L 153.0 192.5 L 153.0 192.5 L 153.0 192.5 L 153.0 192.5 L 153.0 193.0 L 153.0 193.0 L 153.0 193.0 L 153.0 193.5 L 153.0 193.5 " stroke="black" fill="none" stroke-width="6.0" stroke-linecap="round" stroke-linejoin="round" />
</svg>