<svg xmlns="http://www.w3.org/2000/svg" width="300" height="300" viewBox="0 0 300 300">
<path d="M 133.5 128.0 L 134.5 128.0 L 135.0 128.0 L 135.5 128.0 L 135.5 129.0 L 135.5 135.5 L 136.5 146.5 L 138.0 153.0 L 139.0 154.0 L 139.0 149.5 " stroke="black" fill="none" stroke-width="6.0" stroke-linecap="round" stroke-linejoin="round" />
<path d="M 135.0 127.0 L 135.0 127.5 L 133.5 128.5 L 133.5 129.0 L 134.0 129.5 L 137.0 129.5 L 141.5 129.5 L 147.0 129.0 L 154.0 127.5 L 161.5 126.0 L 168.5 125.5 L 173.5 126.0 L 175.5 128.0 L 175.5 131.0 L 174.5 135.0 L 173.0 140.0 L 172.5 145.5 L 171.5 149.5 L 171.5 152.0 L 171.5 152.5 L 171.5 152.5 L 171.5 152.0 " stroke="black" fill="none" stroke-width="6.0" stroke-linecap="round" stroke-linejoin="round" />
<path d="M 144.0 156.0 L 143.0 156.0 L 142.0 156.5 L 142.5 156.5 L 147.5 155.5 L 153.5 154.0 L 161.0 153.0 L 167.5 152.0 L 170.0 151.5 " stroke="black" fill="none" stroke-width="6.0" stroke-linecap="round" stroke-linejoin="round" />
<path d="M 154.5 110.5 L 154.5 110.5 L 155.5 110.0 L 155.5 109.5 L 156.0 109.0 L 156.5 108.5 L 157.0 108.5 L 157.5 109.5 L 157.5 115.0 L 157.0 126.0 L 156.0 140.0 L 156.0 152.5 L 156.0 162.0 L 156.5 171.0 L 157.0 177.5 L 158.0 181.5 L 158.5 183.5 L 158.5 184.0 L 158.5 184.0 L 158.5 184.0 L 158.5 184.0 L 158.5 184.0 L 158.5 184.0 " stroke="black" fill="none" stroke-width="6.0" stroke-linecap="round" stroke-linejoin="round" />
</svg>