<svg xmlns="http://www.w3.org/2000/svg" width="300" height="300" viewBox="0 0 300 300">
<path d="M 137.5 121.0 L 137.5 120.0 L 138.0 119.5 L 138.0 119.5 L 140.0 119.0 L 145.5 117.5 L 153.5 116.5 L 160.0 116.0 L 162.0 116.0 L 162.0 116.5 L 161.0 116.5 L 161.0 115.5 L 160.5 115.5 " stroke="black" fill="none" stroke-width="6.0" stroke-linecap="round" stroke-linejoin="round" />
<path d="M 146.0 133.0 L 145.5 133.0 L 144.0 133.5 L 144.0 134.0 L 145.0 134.0 L 148.5 133.5 L 152.5 132.5 L 156.0 132.0 L 158.5 131.0 L 159.0 130.0 " stroke="black" fill="none" stroke-width="6.0" stroke-linecap="round" stroke-linejoin="round" />
<path d="M 150.0 104.0 L 150.0 104.0 L 150.0 104.0 L 149.5 105.0 L 149.5 109.5 L 150.0 121.5 L 150.0 135.5 L 150.0 142.5 L 150.5 145.0 L 150.5 145.0 " stroke="black" fill="none" stroke-width="6.0" stroke-linecap="round" stroke-linejoin="round" />
<path d="M 135.0 148.0 L 135.0 148.0 L 134.5 148.0 L 134.0 148.5 L 134.0 148.5 L 138.5 148.5 L 148.0 147.5 L 160.0 146.0 L 168.5 145.5 L 172.0 145.5 L 172.0 145.5 " stroke="black" fill="none" stroke-width="6.0" stroke-linecap="round" stroke-linejoin="round" />
<path d="M 152.0 154.0 L 152.0 154.0 L 153.0 154.0 L 153.5 153.5 L 154.0 153.5 L 154.0 153.5 L 153.5 154.0 L 151.5 157.5 L 147.0 163.0 L 142.0 169.0 L 138.0 172.0 L 137.0 172.5 L 137.0 172.0 L 139.0 171.0 L 142.0 170.0 L 145.5 169.5 L 150.0 169.0 L 154.5 168.0 L 158.0 167.0 L 160.0 166.0 L 160.0 165.5 " stroke="black" fill="none" stroke-width="6.0" stroke-linecap="round" stroke-linejoin="round" />
<path d="M 160.5 157.0 L 160.5 157.5 L 161.0 158.0 L 161.0 158.0 L 161.0 159.0 L 161.0 161.0 L 158.5 166.0 L 153.5 173.5 L 147.5 181.0 L 142.5 186.5 L 139.0 188.5 L 138.0 189.0 L 138.0 188.5 L 139.0 188.0 L 141.5 187.0 L 145.5 185.5 L 151.0 184.0 L 159.0 181.5 L 166.0 180.5 L 171.0 180.5 L 172.5 180.5 L 172.5 180.0 L 172.0 178.5 " stroke="black" fill="none" stroke-width="6.0" stroke-linecap="round" stroke-linejoin="round" />
<path d="M 171.5 172.0 L 171.0 172.0 L 171.0 172.0 L 171.0 172.0 L 172.0 173.5 L 174.0 176.5 L 176.0 180.0 L 177.0 183.5 L 177.5 185.5 " stroke="black" fill="none" stroke-width="6.0" stroke-linecap="round" stroke-linejoin="round" />
<path d="M 160.0 190.0 L 160.5 189.0 L 160.5 188.5 L 161.0 188.0 L 161.0 187.5 L 162.0 187.5 L 162.5 190.5 L 163.5 195.0 L 163.5 200.5 L 163.0 205.5 L 161.0 209.0 L 158.0 209.5 L 155.5 208.5 L 153.0 206.0 L 152.0 204.5 L 151.5 204.0 " stroke="black" fill="none" stroke-width="6.0" stroke-linecap="round" stroke-linejoin="round" />
<path d="M 149.5 196.5 L 148.5 197.5 L 146.5 199.0 L 142.5 201.5 L 138.5 205.0 L 136.0 206.0 L 135.0 206.0 " stroke="black" fill="none" stroke-width="6.0" stroke-linecap="round" stroke-linejoin="round" />
<path d="M 181.0 195.0 L 181.0 195.0 L 181.5 196.0 L 182.0 196.5 L 184.0 198.0 L 187.0 200.0 L 191.0 202.0 L 193.5 203.0 " stroke="black" fill="none" stroke-width="6.0" stroke-linecap="round" stroke-linejoin="round" />
</svg>