<svg xmlns="http://www.w3.org/2000/svg" width="300" height="300" viewBox="0 0 300 300">
<path d="M 134.5 114.0 L 134.5 114.5 L 133.5 115.0 L 133.0 115.5 L 132.5 115.5 L 132.5 115.5 L 132.5 115.0 L 135.0 114.5 L 139.0 114.0 L 144.5 114.0 L 151.5 114.0 L 158.0 114.0 L 160.5 113.5 L 163.5 113.5 L 164.0 113.5 L 163.5 114.0 L 162.5 114.0 " stroke="black" fill="none" stroke-width="6.0" stroke-linecap="round" stroke-linejoin="round" />
<path d="M 138.0 129.0 L 138.0 130.0 L 137.5 130.5 L 137.0 130.5 L 137.0 130.5 L 140.5 131.0 L 143.0 131.0 L 151.0 131.0 L 153.5 131.0 L 158.0 130.5 L 158.5 130.5 L 158.5 129.5 " stroke="black" fill="none" stroke-width="6.0" stroke-linecap="round" stroke-linejoin="round" />
<path d="M 150.0 102.0 L 149.5 102.0 L 149.0 102.5 L 149.0 103.0 L 149.0 104.0 L 149.0 106.0 L 149.5 110.5 L 149.5 118.5 L 148.5 130.0 L 147.5 140.0 L 147.0 145.5 L 147.0 147.0 L 147.0 147.0 L 148.0 146.0 " stroke="black" fill="none" stroke-width="6.0" stroke-linecap="round" stroke-linejoin="round" />
<path d="M 129.5 146.5 L 129.5 146.5 L 130.0 146.5 L 131.0 146.5 L 134.0 146.5 L 140.5 146.5 L 148.0 146.0 L 154.5 145.5 L 158.5 145.0 L 161.5 145.0 L 163.0 145.5 L 163.5 146.0 " stroke="black" fill="none" stroke-width="6.0" stroke-linecap="round" stroke-linejoin="round" />
<path d="M 143.5 151.5 L 144.0 152.0 L 144.5 152.5 L 144.5 153.0 L 145.0 153.5 L 145.0 153.5 L 145.0 153.5 L 145.0 153.5 L 144.5 154.0 L 144.0 155.5 L 141.0 159.0 L 138.5 162.0 L 132.5 168.5 L 130.0 171.0 L 129.5 171.5 L 129.5 171.0 L 129.5 171.0 L 130.5 170.5 L 132.0 170.0 L 135.5 169.5 L 139.5 169.0 L 144.5 167.5 L 148.0 166.5 L 150.0 165.5 L 151.0 165.5 L 151.0 165.5 " stroke="black" fill="none" stroke-width="6.0" stroke-linecap="round" stroke-linejoin="round" />
<path d="M 153.0 155.0 L 153.0 155.0 L 153.5 155.0 L 154.0 155.0 L 154.0 155.5 L 154.0 157.0 L 153.5 159.0 L 150.5 164.5 L 148.0 169.0 L 142.0 177.0 L 137.5 182.0 L 134.5 184.0 L 133.5 184.5 L 133.0 184.0 L 133.0 183.5 L 133.0 183.0 L 133.0 183.0 L 134.5 182.5 L 137.5 182.0 L 139.5 182.0 L 145.0 181.0 L 149.0 180.5 L 154.0 179.5 L 156.0 179.5 L 158.5 179.5 L 159.0 179.5 L 159.5 179.5 " stroke="black" fill="none" stroke-width="6.0" stroke-linecap="round" stroke-linejoin="round" />
<path d="M 162.5 169.0 L 162.0 169.0 L 161.5 169.5 L 161.5 169.5 L 161.5 170.0 L 162.0 171.5 L 164.5 176.5 L 166.5 180.5 L 168.0 184.5 L 169.0 186.5 L 169.0 187.5 " stroke="black" fill="none" stroke-width="6.0" stroke-linecap="round" stroke-linejoin="round" />
<path d="M 149.5 190.0 L 149.5 189.5 L 150.0 189.0 L 150.0 188.5 L 150.0 188.0 L 150.0 188.0 L 150.5 190.5 L 151.0 195.5 L 151.5 201.5 L 151.5 207.5 L 151.0 212.0 L 149.5 214.0 L 148.0 214.0 L 145.5 212.5 L 142.5 210.0 L 140.5 207.0 L 139.5 205.0 " stroke="black" fill="none" stroke-width="6.0" stroke-linecap="round" stroke-linejoin="round" />
<path d="M 137.0 194.0 L 137.5 195.0 L 138.0 195.5 L 138.0 195.5 L 137.5 197.0 L 135.0 199.0 L 132.0 202.0 L 129.5 204.0 L 128.5 205.0 L 128.5 205.0 " stroke="black" fill="none" stroke-width="6.0" stroke-linecap="round" stroke-linejoin="round" />
<path d="M 165.5 195.0 L 164.5 196.0 L 164.5 196.5 L 165.0 197.0 L 168.0 199.0 L 171.0 201.5 L 173.5 203.5 L 175.5 205.5 " stroke="black" fill="none" stroke-width="6.0" stroke-linecap="round" stroke-linejoin="round" />
</svg>