<svg xmlns="http://www.w3.org/2000/svg" width="300" height="300" viewBox="0 0 300 300">
<path d="M 129.5 115.0 L 129.5 115.0 L 130.5 115.0 L 131.5 115.0 L 133.5 115.0 L 138.0 113.0 L 145.5 111.5 L 153.5 110.0 L 159.0 110.0 L 162.0 110.0 L 162.5 110.5 L 162.5 111.0 L 161.5 111.5 " stroke="black" fill="none" stroke-width="6.0" stroke-linecap="round" stroke-linejoin="round" />
<path d="M 140.5 126.5 L 138.5 126.5 L 138.0 127.0 L 139.0 127.0 L 142.5 126.5 L 147.0 125.0 L 151.5 123.5 L 154.5 122.0 L 156.5 121.0 " stroke="black" fill="none" stroke-width="6.0" stroke-linecap="round" stroke-linejoin="round" />
<path d="M 148.0 99.5 L 147.5 99.5 L 146.5 100.0 L 146.5 101.0 L 146.5 104.5 L 147.0 112.5 L 147.5 123.0 L 148.0 129.5 L 148.5 132.5 L 148.5 134.0 L 148.5 134.0 " stroke="black" fill="none" stroke-width="6.0" stroke-linecap="round" stroke-linejoin="round" />
<path d="M 131.0 139.0 L 131.0 139.0 L 130.5 139.0 L 130.5 139.0 L 133.0 138.5 L 141.0 137.0 L 151.5 135.0 L 161.5 132.5 L 168.0 131.0 L 170.0 131.5 " stroke="black" fill="none" stroke-width="6.0" stroke-linecap="round" stroke-linejoin="round" />
<path d="M 147.0 136.0 L 147.0 136.0 L 147.5 135.0 L 148.0 134.5 L 149.0 134.0 L 149.5 133.5 L 149.5 133.0 L 149.5 133.5 L 148.0 137.0 L 145.0 142.5 L 141.5 148.5 L 137.5 153.0 L 135.0 155.0 L 134.5 155.0 L 134.5 155.0 L 135.0 154.5 L 137.0 154.0 L 140.0 153.0 L 144.0 151.5 L 148.0 150.0 L 151.5 148.5 L 153.0 147.5 L 153.5 147.5 " stroke="black" fill="none" stroke-width="6.0" stroke-linecap="round" stroke-linejoin="round" />
<path d="M 158.5 138.5 L 159.5 138.5 L 160.0 139.0 L 160.0 139.0 L 159.5 140.0 L 158.0 142.5 L 155.0 147.0 L 151.5 152.5 L 146.5 158.5 L 142.0 162.5 L 138.5 164.5 L 136.5 166.0 L 135.0 167.0 L 134.5 167.5 L 134.5 167.5 L 134.5 167.5 L 136.0 167.0 L 139.0 166.0 L 144.0 163.5 L 150.0 161.0 L 155.5 158.5 L 159.5 157.0 L 162.5 156.5 L 164.5 156.5 L 165.0 157.0 L 166.0 157.0 L 166.0 157.0 " stroke="black" fill="none" stroke-width="6.0" stroke-linecap="round" stroke-linejoin="round" />
<path d="M 166.5 149.0 L 166.5 149.0 L 165.0 149.0 L 164.5 149.0 L 165.0 150.0 L 166.5 152.5 L 169.0 156.0 L 171.0 159.0 L 172.0 161.5 L 172.5 162.0 " stroke="black" fill="none" stroke-width="6.0" stroke-linecap="round" stroke-linejoin="round" />
<path d="M 155.0 164.0 L 155.0 164.0 L 156.0 163.5 L 156.0 163.5 L 156.5 164.0 L 157.0 167.0 L 157.0 173.5 L 157.5 181.0 L 157.5 188.0 L 156.5 192.0 L 155.0 193.5 L 153.5 193.5 L 151.5 192.5 L 149.0 190.5 L 147.0 188.5 L 145.0 186.5 L 144.0 185.5 " stroke="black" fill="none" stroke-width="6.0" stroke-linecap="round" stroke-linejoin="round" />
<path d="M 146.0 176.5 L 145.5 176.5 L 144.5 176.5 L 143.0 177.0 L 141.0 178.0 L 138.0 181.0 L 135.5 183.5 L 133.5 185.5 L 133.0 185.5 L 133.0 185.0 " stroke="black" fill="none" stroke-width="6.0" stroke-linecap="round" stroke-linejoin="round" />
<path d="M 165.0 173.0 L 165.5 173.5 L 166.5 173.5 L 168.0 174.0 L 170.0 175.0 L 172.5 177.0 L 174.5 179.0 L 176.0 180.0 L 176.0 180.0 " stroke="black" fill="none" stroke-width="6.0" stroke-linecap="round" stroke-linejoin="round" />
</svg>