<svg xmlns="http://www.w3.org/2000/svg" width="300" height="300" viewBox="0 0 300 300">
<path d="M 140.0 117.0 L 140.0 117.0 L 140.0 117.0 L 140.0 117.0 L 140.0 117.0 L 140.5 117.0 L 140.5 118.5 L 138.0 123.5 L 132.0 132.0 L 125.0 140.5 L 121.0 143.5 L 120.5 143.5 L 120.5 141.5 L 122.0 139.5 " stroke="black" fill="none" stroke-width="6.0" stroke-linecap="round" stroke-linejoin="round" />
<path d="M 133.0 133.0 L 133.0 133.0 L 133.5 134.5 L 134.0 135.5 L 134.5 138.5 L 135.0 149.0 L 136.0 165.5 L 136.0 177.0 L 136.0 181.5 L 136.0 182.0 L 136.0 181.0 " stroke="black" fill="none" stroke-width="6.0" stroke-linecap="round" stroke-linejoin="round" />
<path d="M 152.0 117.5 L 153.0 116.5 L 154.0 115.5 L 154.5 114.5 L 155.0 115.0 L 154.5 119.0 L 152.0 126.0 L 149.0 133.5 L 146.0 139.0 L 144.5 140.5 L 144.0 140.0 " stroke="black" fill="none" stroke-width="6.0" stroke-linecap="round" stroke-linejoin="round" />
<path d="M 151.5 129.5 L 151.0 129.5 L 149.5 130.0 L 149.0 130.0 L 150.5 130.5 L 155.0 130.5 L 161.0 129.5 L 167.0 129.0 L 172.0 128.5 L 175.5 127.5 L 176.5 127.5 L 176.5 127.5 L 176.5 127.5 " stroke="black" fill="none" stroke-width="6.0" stroke-linecap="round" stroke-linejoin="round" />
<path d="M 153.5 134.0 L 153.5 134.0 L 154.0 134.0 L 154.5 134.5 L 154.5 135.0 L 155.0 138.5 L 155.0 147.5 L 155.0 159.0 L 154.5 168.5 L 154.0 174.0 L 154.0 175.0 L 154.0 175.0 L 154.0 174.0 " stroke="black" fill="none" stroke-width="6.0" stroke-linecap="round" stroke-linejoin="round" />
<path d="M 159.5 143.5 L 158.5 143.5 L 157.0 143.5 L 156.5 143.5 L 157.0 143.5 L 160.0 143.5 L 164.0 143.5 L 167.5 143.0 L 170.5 143.0 L 172.5 143.0 L 173.0 143.0 " stroke="black" fill="none" stroke-width="6.0" stroke-linecap="round" stroke-linejoin="round" />
<path d="M 160.0 156.0 L 158.5 156.5 L 158.0 157.0 L 158.5 157.0 L 160.5 157.0 L 164.0 157.0 L 168.0 157.0 L 171.5 156.0 L 174.5 154.5 L 175.0 154.5 " stroke="black" fill="none" stroke-width="6.0" stroke-linecap="round" stroke-linejoin="round" />
</svg>