<svg xmlns="http://www.w3.org/2000/svg" width="300" height="300" viewBox="0 0 300 300">
<path d="M 145.5 102.0 L 145.5 102.0 L 145.5 102.0 L 145.5 101.5 L 145.5 101.0 L 145.5 101.0 L 145.5 101.0 L 147.0 102.0 L 148.5 104.5 L 150.5 106.5 L 151.5 107.5 L 152.0 108.0 " stroke="black" fill="none" stroke-width="6.0" stroke-linecap="round" stroke-linejoin="round" />
<path d="M 134.5 117.5 L 134.0 117.5 L 133.5 117.5 L 133.0 117.5 L 133.0 117.5 L 134.5 117.5 L 139.0 117.5 L 146.5 118.0 L 155.5 118.0 L 163.5 117.5 L 167.5 117.0 L 168.0 117.0 L 168.0 117.0 L 168.0 117.0 L 168.0 117.5 " stroke="black" fill="none" stroke-width="6.0" stroke-linecap="round" stroke-linejoin="round" />
<path d="M 142.5 131.5 L 142.5 132.5 L 142.5 132.5 L 144.5 132.5 L 148.0 132.0 L 152.0 131.0 L 155.0 130.5 L 158.0 130.5 L 158.5 130.5 " stroke="black" fill="none" stroke-width="6.0" stroke-linecap="round" stroke-linejoin="round" />
<path d="M 143.5 146.5 L 143.5 146.5 L 143.0 146.5 L 142.5 146.5 L 143.5 146.5 L 146.5 146.0 L 150.0 145.5 L 154.0 145.0 L 157.5 144.5 L 159.5 144.5 " stroke="black" fill="none" stroke-width="6.0" stroke-linecap="round" stroke-linejoin="round" />
<path d="M 141.0 161.0 L 141.0 161.0 L 141.0 160.0 L 140.5 159.5 L 140.5 159.5 L 140.5 161.5 L 141.0 166.5 L 141.5 171.0 L 142.0 175.0 L 142.0 177.0 L 142.5 176.5 L 143.0 176.0 " stroke="black" fill="none" stroke-width="6.0" stroke-linecap="round" stroke-linejoin="round" />
<path d="M 143.5 161.0 L 142.5 160.5 L 141.5 160.0 L 142.5 159.5 L 144.5 158.5 L 147.5 157.5 L 150.5 157.5 L 155.0 157.5 L 160.0 157.5 L 165.0 158.0 L 168.0 158.5 L 168.5 158.5 L 168.5 158.5 L 168.0 158.5 L 167.5 158.5 L 167.0 159.0 L 166.5 160.0 L 165.5 161.5 L 165.0 164.0 L 164.0 167.5 L 163.5 172.0 L 163.0 175.5 L 163.0 177.5 L 163.0 178.5 L 163.0 178.5 " stroke="black" fill="none" stroke-width="6.0" stroke-linecap="round" stroke-linejoin="round" />
<path d="M 146.0 179.0 L 145.0 179.0 L 144.0 179.5 L 143.5 179.5 L 144.0 179.5 L 147.0 179.0 L 152.0 178.5 L 157.0 178.0 L 162.5 178.0 L 166.5 178.0 L 167.0 178.0 " stroke="black" fill="none" stroke-width="6.0" stroke-linecap="round" stroke-linejoin="round" />
</svg>