<svg xmlns="http://www.w3.org/2000/svg" width="300" height="300" viewBox="0 0 300 300">
<path d="M 115.0 122.5 L 115.0 121.0 L 115.0 120.5 L 115.0 120.5 L 115.5 120.5 L 117.0 122.5 L 119.0 125.5 L 121.5 129.0 L 124.0 131.5 L 125.0 133.0 L 125.5 133.5 L 125.5 133.5 " stroke="black" fill="none" stroke-width="6.0" stroke-linecap="round" stroke-linejoin="round" />
<path d="M 118.0 143.0 L 117.5 143.0 L 116.5 143.0 L 116.5 143.5 L 117.0 145.0 L 118.5 147.0 L 120.5 149.0 L 122.0 150.5 L 123.5 151.5 L 124.0 152.0 L 124.5 152.5 " stroke="black" fill="none" stroke-width="6.0" stroke-linecap="round" stroke-linejoin="round" />
<path d="M 113.5 180.5 L 113.5 180.0 L 114.0 180.0 L 114.5 179.5 L 115.5 178.0 L 118.0 175.5 L 121.5 172.0 L 125.0 166.5 L 126.5 164.0 " stroke="black" fill="none" stroke-width="6.0" stroke-linecap="round" stroke-linejoin="round" />
<path d="M 138.0 126.0 L 138.0 126.0 L 138.0 126.5 L 138.0 127.0 L 138.0 127.0 L 139.5 127.0 L 144.5 127.0 L 152.5 126.0 L 159.0 124.5 L 162.0 124.0 L 163.0 124.0 L 163.0 124.0 L 162.5 124.0 " stroke="black" fill="none" stroke-width="6.0" stroke-linecap="round" stroke-linejoin="round" />
<path d="M 152.0 114.5 L 152.5 114.5 L 153.0 114.0 L 154.0 114.0 L 154.5 114.0 L 154.5 114.0 L 155.0 114.5 L 155.0 116.5 L 153.5 120.5 L 151.5 126.5 L 148.5 133.0 L 144.5 138.5 L 141.0 143.0 L 139.5 145.5 L 138.5 146.5 L 137.5 147.0 L 137.0 147.5 L 137.0 147.5 L 137.0 147.5 L 138.0 147.5 L 140.5 147.0 L 144.0 146.5 L 147.5 145.5 L 151.5 145.0 L 155.5 144.5 L 158.0 144.5 L 159.0 144.0 L 159.0 144.0 L 159.0 144.0 " stroke="black" fill="none" stroke-width="6.0" stroke-linecap="round" stroke-linejoin="round" />
<path d="M 159.0 137.0 L 160.0 137.0 L 160.5 137.0 L 161.5 137.5 L 162.5 139.0 L 164.5 142.0 L 166.5 145.0 L 167.5 147.0 L 168.5 148.0 L 168.5 148.0 " stroke="black" fill="none" stroke-width="6.0" stroke-linecap="round" stroke-linejoin="round" />
<path d="M 141.0 161.0 L 141.0 161.0 L 141.5 159.5 L 142.0 159.0 L 142.5 159.0 L 143.0 159.5 L 143.5 161.5 L 144.0 165.5 L 142.0 172.0 L 138.5 179.0 L 135.5 183.0 L 133.5 183.5 L 133.0 182.5 " stroke="black" fill="none" stroke-width="6.0" stroke-linecap="round" stroke-linejoin="round" />
<path d="M 150.5 160.5 L 151.0 160.5 L 151.0 160.0 L 151.5 159.5 L 152.0 159.5 L 152.5 161.0 L 153.0 165.0 L 153.5 171.0 L 153.5 176.0 L 153.0 178.5 " stroke="black" fill="none" stroke-width="6.0" stroke-linecap="round" stroke-linejoin="round" />
<path d="M 161.5 158.5 L 161.5 158.5 L 161.5 158.0 L 162.0 158.0 L 162.0 159.0 L 162.0 162.5 L 161.5 169.5 L 162.0 177.0 L 164.0 181.5 L 167.0 182.5 L 172.0 180.5 L 176.0 177.5 L 179.0 174.5 L 179.5 173.0 L 179.5 172.5 L 179.5 172.5 L 179.5 172.5 L 179.0 172.5 L 178.0 172.5 L 178.0 173.0 " stroke="black" fill="none" stroke-width="6.0" stroke-linecap="round" stroke-linejoin="round" />
</svg>