<svg xmlns="http://www.w3.org/2000/svg" width="300" height="300" viewBox="0 0 300 300">
<path d="M 126.0 114.5 L 126.5 115.0 L 127.0 115.0 L 127.0 115.0 L 127.0 116.5 L 126.5 120.5 L 124.5 126.5 L 122.0 133.5 L 119.5 139.0 L 117.5 142.0 L 116.5 142.5 L 116.5 142.5 L 117.0 141.5 L 119.0 141.0 L 121.5 140.5 L 124.5 139.5 L 127.5 139.0 L 130.0 138.0 L 131.0 137.0 L 131.5 136.5 " stroke="black" fill="none" stroke-width="6.0" stroke-linecap="round" stroke-linejoin="round" />
<path d="M 135.5 127.0 L 134.5 127.0 L 134.0 127.0 L 134.0 127.0 L 133.5 127.5 L 132.0 132.0 L 129.0 140.0 L 125.5 149.5 L 122.0 156.5 L 119.5 160.5 L 118.0 162.5 L 117.5 163.5 L 117.5 163.0 L 117.5 163.0 L 118.0 162.5 L 119.5 161.5 L 121.5 160.5 L 124.5 159.5 L 127.5 158.0 L 130.5 156.5 L 133.5 155.5 L 135.5 155.5 L 136.5 155.0 " stroke="black" fill="none" stroke-width="6.0" stroke-linecap="round" stroke-linejoin="round" />
<path d="M 138.0 150.0 L 137.0 150.5 L 136.5 150.5 L 136.5 151.0 L 137.5 153.0 L 138.5 157.5 L 140.0 162.0 L 141.0 164.5 " stroke="black" fill="none" stroke-width="6.0" stroke-linecap="round" stroke-linejoin="round" />
<path d="M 118.0 178.0 L 118.0 178.0 L 118.0 178.0 L 117.5 177.5 L 117.5 177.5 L 117.5 177.5 L 117.0 179.5 L 117.0 182.5 L 116.5 185.5 L 116.5 187.0 " stroke="black" fill="none" stroke-width="6.0" stroke-linecap="round" stroke-linejoin="round" />
<path d="M 125.5 175.0 L 126.0 176.5 L 126.5 177.0 L 127.0 177.5 L 127.5 178.5 L 128.5 180.0 L 129.5 181.5 L 130.0 182.0 " stroke="black" fill="none" stroke-width="6.0" stroke-linecap="round" stroke-linejoin="round" />
<path d="M 138.0 174.0 L 137.5 174.0 L 136.5 174.5 L 136.5 174.5 L 137.0 175.5 L 138.0 177.5 L 139.5 179.0 L 140.5 180.0 L 141.0 180.0 " stroke="black" fill="none" stroke-width="6.0" stroke-linecap="round" stroke-linejoin="round" />
<path d="M 147.5 118.5 L 147.0 118.5 L 146.5 119.0 L 146.5 119.0 L 146.5 119.0 L 147.5 118.5 L 151.0 117.5 L 155.5 116.0 L 161.5 114.5 L 166.5 113.5 L 169.0 113.5 L 170.0 113.5 L 170.0 114.5 L 170.0 115.0 L 170.0 116.0 L 170.0 117.5 L 170.0 119.0 L 170.0 121.0 L 169.5 123.0 L 169.5 126.0 L 169.0 128.5 L 168.5 130.5 L 168.0 132.0 L 167.5 132.0 L 167.0 132.0 L 166.5 132.0 L 165.5 131.0 L 165.5 130.5 " stroke="black" fill="none" stroke-width="6.0" stroke-linecap="round" stroke-linejoin="round" />
<path d="M 155.5 119.0 L 155.5 119.0 L 155.5 118.5 L 155.5 118.0 L 155.5 118.0 L 154.5 120.0 L 153.0 125.0 L 150.5 130.5 L 148.5 134.5 L 147.5 135.0 L 147.5 134.5 " stroke="black" fill="none" stroke-width="6.0" stroke-linecap="round" stroke-linejoin="round" />
<path d="M 150.5 145.0 L 150.5 145.0 L 151.0 145.0 L 151.5 145.0 L 152.0 145.0 L 153.5 145.0 L 157.5 145.0 L 163.5 144.5 L 169.0 143.5 L 172.0 142.5 L 173.0 142.0 L 173.0 142.0 L 173.0 142.0 L 173.0 142.0 L 173.0 143.0 L 173.0 144.0 L 173.0 145.5 L 172.5 148.0 L 172.5 151.0 L 172.0 153.5 L 171.5 155.0 L 171.5 156.0 L 171.5 156.0 " stroke="black" fill="none" stroke-width="6.0" stroke-linecap="round" stroke-linejoin="round" />
<path d="M 162.0 146.5 L 161.0 146.5 L 160.5 146.0 L 160.5 145.5 L 160.5 146.5 L 161.0 149.0 L 161.5 152.0 L 161.5 155.5 L 161.5 157.5 " stroke="black" fill="none" stroke-width="6.0" stroke-linecap="round" stroke-linejoin="round" />
<path d="M 158.0 157.5 L 157.5 158.0 L 156.5 158.5 L 156.5 158.5 L 156.5 158.5 L 159.0 158.0 L 162.0 157.0 L 165.0 156.5 L 168.0 155.5 L 169.0 155.0 " stroke="black" fill="none" stroke-width="6.0" stroke-linecap="round" stroke-linejoin="round" />
<path d="M 148.5 148.5 L 149.0 148.5 L 149.5 148.0 L 149.5 148.0 L 149.5 148.5 L 149.5 151.0 L 149.5 155.5 L 149.5 161.0 L 150.5 167.0 L 151.5 172.0 L 152.5 175.0 L 153.5 176.5 L 155.0 178.0 L 157.0 178.5 L 159.5 179.5 L 162.5 180.0 L 166.0 180.0 L 169.0 180.0 L 172.0 178.5 L 173.5 177.5 L 174.5 176.0 L 175.0 174.0 L 175.5 172.5 L 175.5 171.5 L 175.5 170.5 L 175.0 169.5 L 174.5 169.0 L 174.5 169.0 L 174.5 169.0 " stroke="black" fill="none" stroke-width="6.0" stroke-linecap="round" stroke-linejoin="round" />
</svg>