<svg xmlns="http://www.w3.org/2000/svg" width="300" height="300" viewBox="0 0 300 300">
<path d="M 134.0 122.5 L 134.0 122.5 L 134.5 121.0 L 134.5 120.0 L 134.5 119.5 L 135.0 122.0 L 136.0 130.0 L 137.5 144.0 L 138.0 159.0 L 138.5 166.0 L 139.0 166.5 L 139.0 163.0 L 139.0 161.5 " stroke="black" fill="none" stroke-width="6.0" stroke-linecap="round" stroke-linejoin="round" />
<path d="M 132.0 118.5 L 131.0 119.0 L 130.0 119.0 L 129.5 119.5 L 130.5 119.5 L 135.0 120.0 L 142.0 120.0 L 152.0 118.5 L 162.5 117.5 L 172.0 116.5 L 177.5 116.0 L 179.5 115.5 L 180.5 115.5 L 180.5 115.5 L 180.5 116.5 L 181.0 117.5 L 181.5 119.5 L 181.5 123.0 L 181.5 129.0 L 180.5 138.5 L 179.0 150.0 L 178.5 160.5 L 178.0 169.0 L 178.0 172.5 L 178.0 171.0 " stroke="black" fill="none" stroke-width="6.0" stroke-linecap="round" stroke-linejoin="round" />
<path d="M 147.5 139.0 L 148.0 139.0 L 148.5 139.0 L 149.0 139.0 L 149.5 139.0 L 150.0 141.5 L 150.5 145.5 L 151.5 149.0 L 151.5 150.5 " stroke="black" fill="none" stroke-width="6.0" stroke-linecap="round" stroke-linejoin="round" />
<path d="M 151.0 139.0 L 150.5 139.0 L 150.0 139.0 L 150.5 138.5 L 153.0 137.5 L 157.0 136.5 L 160.0 135.5 L 163.0 135.5 L 166.0 135.5 L 168.0 135.5 L 169.0 136.0 L 169.5 137.0 L 169.5 139.5 L 168.5 143.5 L 167.5 148.0 L 167.0 150.5 L 166.0 151.5 L 166.0 151.5 " stroke="black" fill="none" stroke-width="6.0" stroke-linecap="round" stroke-linejoin="round" />
<path d="M 154.5 152.5 L 154.0 154.5 L 154.0 155.0 L 155.0 155.0 L 158.0 154.0 L 162.5 153.0 L 165.5 153.0 L 166.0 153.0 " stroke="black" fill="none" stroke-width="6.0" stroke-linecap="round" stroke-linejoin="round" />
<path d="M 141.5 172.0 L 141.5 172.0 L 140.5 172.5 L 140.0 172.5 L 140.5 172.5 L 142.0 172.5 L 146.0 172.5 L 152.0 172.5 L 160.5 172.5 L 169.5 171.5 L 175.5 170.5 L 178.0 170.5 L 178.0 171.5 " stroke="black" fill="none" stroke-width="6.0" stroke-linecap="round" stroke-linejoin="round" />
</svg>