<svg xmlns="http://www.w3.org/2000/svg" width="300" height="300" viewBox="0 0 300 300">
<path d="M 125.5 118.5 L 125.5 118.5 L 125.0 118.0 L 124.5 118.0 L 124.5 118.0 L 124.5 118.0 L 125.0 119.5 L 126.5 125.0 L 128.0 135.5 L 129.5 149.5 L 130.5 159.0 L 131.0 160.0 L 131.5 157.5 L 130.5 154.5 " stroke="black" fill="none" stroke-width="7.0" stroke-linecap="round" stroke-linejoin="round" />
<path d="M 127.5 118.0 L 126.5 118.5 L 126.0 118.5 L 125.5 118.5 L 126.0 118.5 L 128.5 118.0 L 133.0 117.0 L 140.0 116.0 L 149.0 115.0 L 158.5 114.5 L 166.5 114.0 L 171.5 114.0 L 175.0 114.0 L 176.5 114.0 L 176.5 114.0 L 176.5 114.0 L 176.5 114.0 L 176.5 114.5 L 176.5 115.5 L 176.5 117.0 L 176.5 120.5 L 176.5 126.0 L 176.5 134.5 L 176.0 143.5 L 176.0 151.0 L 176.0 155.5 L 176.0 158.0 L 176.0 159.5 L 176.0 160.5 L 176.5 160.5 " stroke="black" fill="none" stroke-width="7.0" stroke-linecap="round" stroke-linejoin="round" />
<path d="M 144.0 133.0 L 144.0 133.0 L 142.5 133.0 L 142.5 133.0 L 142.5 134.5 L 143.5 139.0 L 145.5 145.0 L 147.5 149.0 L 148.0 150.5 L 148.5 150.0 " stroke="black" fill="none" stroke-width="7.0" stroke-linecap="round" stroke-linejoin="round" />
<path d="M 144.5 132.5 L 143.0 133.5 L 142.0 134.0 L 142.5 134.0 L 145.0 133.0 L 149.0 131.5 L 152.5 130.5 L 156.0 129.5 L 158.5 129.0 L 160.0 129.0 L 160.5 129.5 L 161.0 131.0 L 161.0 132.5 L 161.0 135.5 L 161.0 139.0 L 160.5 143.0 L 160.0 145.5 L 159.5 147.0 L 159.0 147.5 " stroke="black" fill="none" stroke-width="7.0" stroke-linecap="round" stroke-linejoin="round" />
<path d="M 151.0 150.0 L 151.0 150.5 L 151.0 150.5 L 151.5 151.0 L 153.5 150.5 L 157.0 149.5 L 160.5 148.5 L 162.5 148.0 " stroke="black" fill="none" stroke-width="7.0" stroke-linecap="round" stroke-linejoin="round" />
<path d="M 135.5 165.5 L 135.5 165.0 L 135.5 164.5 L 135.5 164.0 L 136.0 164.0 L 137.5 163.5 L 140.5 163.5 L 146.5 163.0 L 154.5 163.0 L 163.5 162.5 L 170.5 161.5 L 174.0 161.5 L 175.0 161.0 L 175.0 161.0 " stroke="black" fill="none" stroke-width="7.0" stroke-linecap="round" stroke-linejoin="round" />
</svg>