<svg xmlns="http://www.w3.org/2000/svg" width="300" height="300" viewBox="0 0 300 300">
<path d="M 120.5 113.0 L 120.5 112.5 L 121.0 112.0 L 121.5 111.5 L 122.5 111.0 L 123.0 110.5 L 123.5 110.0 L 123.5 111.5 L 121.5 117.0 L 117.5 126.5 L 114.0 134.0 L 112.5 136.0 L 113.0 133.5 " stroke="black" fill="none" stroke-width="6.0" stroke-linecap="round" stroke-linejoin="round" />
<path d="M 121.0 123.5 L 120.5 123.5 L 119.5 123.0 L 120.0 123.0 L 123.0 122.5 L 128.0 121.0 L 134.0 119.5 L 138.5 117.5 L 140.0 116.5 L 139.5 116.5 " stroke="black" fill="none" stroke-width="6.0" stroke-linecap="round" stroke-linejoin="round" />
<path d="M 130.0 130.0 L 129.0 130.5 L 128.5 131.0 L 128.0 131.0 L 128.5 131.5 L 130.5 132.0 L 133.5 133.5 L 136.0 134.5 L 137.5 135.0 " stroke="black" fill="none" stroke-width="6.0" stroke-linecap="round" stroke-linejoin="round" />
<path d="M 158.0 112.0 L 158.0 111.5 L 158.5 111.0 L 158.5 110.5 L 159.0 110.5 L 159.0 110.5 L 158.0 114.5 L 155.0 123.0 L 151.5 131.0 L 150.0 134.0 L 150.0 133.0 " stroke="black" fill="none" stroke-width="6.0" stroke-linecap="round" stroke-linejoin="round" />
<path d="M 155.0 122.5 L 155.0 121.5 L 155.0 121.0 L 155.5 120.5 L 158.0 119.0 L 162.5 117.0 L 168.5 115.5 L 173.0 114.5 L 174.5 114.5 L 175.0 114.5 L 174.0 115.5 L 173.0 116.0 " stroke="black" fill="none" stroke-width="6.0" stroke-linecap="round" stroke-linejoin="round" />
<path d="M 163.5 125.5 L 162.5 126.0 L 161.5 126.5 L 161.5 126.5 L 163.5 127.5 L 167.0 129.0 L 170.0 131.0 L 172.5 132.5 L 174.0 133.5 L 174.5 133.5 " stroke="black" fill="none" stroke-width="6.0" stroke-linecap="round" stroke-linejoin="round" />
<path d="M 138.0 147.5 L 138.0 147.5 L 138.0 148.0 L 138.0 148.0 L 139.0 148.5 L 143.0 148.5 L 150.0 147.0 L 157.5 144.0 L 162.5 141.5 L 164.0 140.5 L 164.0 140.5 L 164.0 141.0 L 164.0 141.5 L 164.0 142.0 " stroke="black" fill="none" stroke-width="6.0" stroke-linecap="round" stroke-linejoin="round" />
<path d="M 154.5 151.0 L 154.5 151.0 L 154.5 150.5 L 154.5 150.5 L 155.0 150.0 L 155.0 150.5 L 155.0 154.0 L 154.5 163.0 L 154.5 170.0 L 154.5 172.5 L 154.5 172.0 " stroke="black" fill="none" stroke-width="6.0" stroke-linecap="round" stroke-linejoin="round" />
<path d="M 157.5 162.0 L 157.5 162.0 L 158.0 161.0 L 158.0 160.5 L 159.5 160.0 L 161.5 159.5 L 164.0 159.0 L 165.5 159.0 L 166.0 159.0 " stroke="black" fill="none" stroke-width="6.0" stroke-linecap="round" stroke-linejoin="round" />
<path d="M 143.5 159.5 L 143.5 159.5 L 143.5 158.5 L 143.0 158.5 L 143.0 158.5 L 143.5 161.5 L 144.0 167.5 L 145.0 173.5 L 145.5 178.0 L 145.5 179.0 L 145.5 179.0 " stroke="black" fill="none" stroke-width="6.0" stroke-linecap="round" stroke-linejoin="round" />
<path d="M 134.0 183.0 L 134.0 183.0 L 134.5 182.5 L 135.5 182.0 L 138.0 182.0 L 143.5 182.0 L 151.0 182.0 L 158.5 182.0 L 162.0 181.5 L 162.5 181.0 " stroke="black" fill="none" stroke-width="6.0" stroke-linecap="round" stroke-linejoin="round" />
<path d="M 114.0 151.0 L 114.0 151.0 L 113.0 152.0 L 113.0 152.5 L 112.5 152.5 L 114.0 152.5 L 116.0 151.5 L 119.0 151.0 L 121.5 150.0 L 124.0 150.0 L 125.5 150.0 L 126.0 151.5 L 126.5 153.5 L 125.5 156.5 L 123.5 160.0 L 121.5 164.5 L 119.0 168.5 L 117.5 170.5 L 117.0 171.5 L 117.0 171.5 L 117.0 171.0 L 118.0 170.0 L 120.5 169.5 L 122.5 168.5 L 124.5 168.5 L 126.0 168.5 L 126.5 169.0 L 127.0 170.5 L 127.0 173.5 L 125.5 178.0 L 123.5 183.0 L 122.0 187.5 L 119.5 191.5 L 117.0 196.0 L 113.5 200.5 L 110.5 204.0 L 109.5 205.0 L 109.5 205.0 L 110.0 204.0 L 110.5 201.5 L 110.5 200.0 " stroke="black" fill="none" stroke-width="6.0" stroke-linecap="round" stroke-linejoin="round" />
<path d="M 112.0 184.0 L 112.0 183.0 L 112.0 182.5 L 112.0 182.5 L 113.0 182.5 L 115.0 185.0 L 119.5 188.5 L 127.0 192.0 L 138.5 195.0 L 150.0 196.5 L 160.5 197.0 L 168.5 196.5 L 174.5 196.0 L 178.0 196.0 L 179.5 195.5 L 179.5 195.0 " stroke="black" fill="none" stroke-width="6.0" stroke-linecap="round" stroke-linejoin="round" />
</svg>