<svg xmlns="http://www.w3.org/2000/svg" width="300" height="300" viewBox="0 0 300 300">
<path d="M 139.5 117.0 L 140.0 117.0 L 140.0 116.5 L 140.5 116.0 L 142.0 116.0 L 144.5 117.5 L 148.0 121.0 L 150.5 124.0 L 151.5 125.5 L 152.0 125.5 L 152.0 125.5 " stroke="black" fill="none" stroke-width="6.0" stroke-linecap="round" stroke-linejoin="round" />
<path d="M 116.5 139.0 L 116.5 139.0 L 116.5 139.0 L 117.0 138.5 L 117.5 138.5 L 118.5 138.5 L 120.0 138.0 L 122.5 138.0 L 127.0 138.0 L 133.0 137.5 L 141.0 136.5 L 150.0 135.0 L 157.0 134.0 L 162.0 134.0 L 165.0 134.0 L 167.0 134.0 L 169.0 134.0 L 170.5 134.0 L 171.5 134.0 L 172.5 134.0 L 173.0 134.0 L 173.0 134.0 L 173.5 134.0 L 173.5 134.0 L 173.5 134.0 L 174.0 134.0 L 174.0 134.0 L 174.0 134.0 L 174.0 134.0 L 174.0 134.0 L 174.0 134.0 L 174.0 134.0 L 174.0 134.0 L 174.0 134.0 " stroke="black" fill="none" stroke-width="6.0" stroke-linecap="round" stroke-linejoin="round" />
<path d="M 170.0 135.0 L 170.5 135.0 L 170.5 134.5 L 171.0 134.5 L 171.0 134.5 L 171.0 134.5 L 171.0 135.5 L 170.0 139.0 L 167.5 143.0 L 163.0 149.0 L 157.0 154.5 L 151.5 159.0 L 146.5 163.5 L 141.0 168.0 L 136.0 172.0 L 131.0 175.0 L 127.5 177.5 L 125.0 179.0 L 122.5 180.5 L 121.0 182.0 L 119.5 183.5 L 117.5 185.0 L 117.0 185.0 L 117.0 185.0 L 117.0 185.0 L 117.0 185.0 L 117.0 185.0 L 117.0 184.5 L 117.0 183.5 L 117.5 182.5 L 118.0 182.0 L 118.5 181.0 L 119.0 180.0 L 120.5 179.0 L 122.5 177.5 L 125.0 176.0 L 127.0 175.5 L 129.0 176.0 L 130.5 177.5 L 132.5 179.0 L 135.0 181.0 L 139.0 182.5 L 143.5 184.5 L 147.5 185.5 L 151.5 186.0 L 155.5 186.0 L 160.5 186.0 L 165.5 185.5 L 171.0 185.5 L 175.0 185.0 L 179.0 184.5 L 182.5 183.0 L 185.0 181.0 L 187.0 179.5 L 187.0 179.0 L 187.0 179.0 " stroke="black" fill="none" stroke-width="6.0" stroke-linecap="round" stroke-linejoin="round" />
</svg>