<svg xmlns="http://www.w3.org/2000/svg" width="300" height="300" viewBox="0 0 300 300">
<path d="M 141.0 113.5 L 140.5 113.5 L 139.5 114.0 L 139.0 114.0 L 140.5 115.5 L 144.0 118.5 L 146.5 121.0 L 149.0 123.5 L 150.5 125.0 " stroke="black" fill="none" stroke-width="6.0" stroke-linecap="round" stroke-linejoin="round" />
<path d="M 125.5 134.0 L 125.5 134.0 L 125.5 134.5 L 125.5 135.0 L 125.5 135.0 L 125.5 135.0 L 127.0 135.0 L 132.0 134.5 L 140.5 133.5 L 150.5 133.0 L 159.0 132.5 L 165.5 132.5 L 168.0 132.5 L 168.5 132.5 L 168.5 132.5 L 168.0 132.5 L 168.0 132.5 L 167.5 132.5 L 167.5 132.5 L 167.5 132.5 " stroke="black" fill="none" stroke-width="6.0" stroke-linecap="round" stroke-linejoin="round" />
<path d="M 164.5 134.0 L 164.5 134.0 L 164.5 134.0 L 165.0 134.0 L 165.0 134.5 L 165.0 135.0 L 163.5 137.0 L 159.5 142.5 L 152.0 150.5 L 143.5 159.5 L 137.0 165.5 L 132.0 169.5 L 127.0 172.0 L 124.0 174.0 L 122.0 175.0 L 121.5 175.0 L 121.5 174.5 L 121.5 173.5 L 122.0 172.0 L 122.5 171.0 L 123.0 170.0 L 124.0 169.0 L 124.5 168.5 L 125.5 168.0 L 127.5 168.0 L 130.0 168.0 L 133.5 168.0 L 138.5 169.0 L 143.5 170.5 L 149.0 172.0 L 154.5 173.5 L 160.0 174.5 L 165.5 175.5 L 177.5 176.0 L 183.0 175.5 L 186.5 174.5 L 187.5 173.5 " stroke="black" fill="none" stroke-width="6.0" stroke-linecap="round" stroke-linejoin="round" />
</svg>