<svg xmlns="http://www.w3.org/2000/svg" width="300" height="300" viewBox="0 0 300 300">
<path d="M 138.0 113.5 L 138.0 113.5 L 137.5 114.5 L 137.5 115.0 L 139.0 116.0 L 140.0 116.5 L 141.5 116.5 L 141.5 117.0 " stroke="black" fill="none" stroke-width="6.0" stroke-linecap="round" stroke-linejoin="round" />
<path d="M 126.0 126.5 L 126.0 126.5 L 126.0 127.0 L 126.0 127.0 L 126.0 127.5 L 126.0 127.5 L 126.0 127.5 L 126.5 128.0 L 127.5 128.0 L 129.0 128.0 L 131.0 128.5 L 134.0 128.5 L 137.5 128.5 L 141.0 128.5 L 145.0 128.5 L 148.5 128.0 L 151.5 127.5 L 155.0 127.5 L 157.0 127.5 L 159.5 127.5 L 161.0 127.5 L 162.5 127.5 L 163.0 127.5 L 163.5 127.5 L 163.5 127.5 L 163.5 127.5 L 164.0 127.5 L 164.0 127.5 L 164.5 127.5 L 164.5 127.5 L 165.0 127.5 L 165.0 127.5 L 165.0 127.5 L 165.5 127.5 L 165.5 127.5 L 165.5 127.5 L 165.5 127.5 L 166.0 127.5 L 166.0 127.5 L 166.0 127.5 L 166.0 127.5 L 166.0 127.5 L 166.0 127.5 L 166.0 127.5 L 166.0 127.5 L 166.0 127.5 L 166.0 127.5 L 166.0 127.5 L 166.0 127.5 L 166.0 127.5 L 166.0 127.5 L 165.5 128.0 L 165.0 128.0 L 164.5 129.0 L 163.0 130.0 L 161.5 132.5 L 159.5 135.5 L 157.5 139.0 L 155.5 143.0 L 153.0 147.0 L 151.0 150.0 L 148.5 153.5 L 146.0 157.0 L 143.0 160.5 L 139.5 164.5 L 136.0 167.5 L 133.0 170.0 L 130.5 171.5 L 128.0 173.0 L 126.0 174.0 L 124.0 175.0 L 122.5 175.5 L 122.0 175.5 L 121.0 175.5 L 120.5 175.5 L 120.0 174.5 L 119.5 174.0 L 119.0 173.5 L 119.0 172.5 L 118.5 172.0 L 118.5 171.5 L 118.5 171.5 L 118.5 171.0 L 118.5 171.0 L 118.5 171.0 L 119.5 171.0 L 120.5 171.0 L 122.5 171.0 L 124.0 171.0 L 126.5 171.0 L 129.0 171.0 L 131.5 171.0 L 134.5 171.0 L 137.0 171.5 L 140.0 172.0 L 142.5 172.5 L 145.0 173.5 L 147.5 174.0 L 150.0 175.0 L 152.0 175.0 L 154.0 175.5 L 156.5 175.5 L 158.5 175.5 L 161.5 175.5 L 164.5 175.0 L 167.0 174.5 L 169.5 174.0 L 171.5 173.5 L 173.0 173.0 L 173.5 172.5 L 173.5 172.5 L 173.5 172.5 L 173.5 172.5 L 173.5 172.5 L 173.5 172.5 " stroke="black" fill="none" stroke-width="6.0" stroke-linecap="round" stroke-linejoin="round" />
</svg>