<svg xmlns="http://www.w3.org/2000/svg" width="300" height="300" viewBox="0 0 300 300">
<path d="M 145.0 110.5 L 145.0 111.0 L 145.0 112.0 L 145.5 113.0 L 147.0 116.0 L 149.5 118.5 L 151.0 120.0 " stroke="black" fill="none" stroke-width="6.0" stroke-linecap="round" stroke-linejoin="round" />
<path d="M 131.0 127.5 L 131.0 127.5 L 130.5 128.0 L 130.0 128.0 L 130.0 128.5 L 131.0 128.5 L 134.0 128.5 L 140.0 128.5 L 147.5 128.5 L 155.5 128.0 L 162.0 127.5 L 166.0 127.0 L 166.5 127.0 L 166.5 127.0 L 166.0 127.0 L 166.0 127.0 L 166.0 127.0 L 166.0 127.0 L 166.5 127.0 L 167.0 127.0 L 167.5 127.0 L 168.0 127.0 " stroke="black" fill="none" stroke-width="6.0" stroke-linecap="round" stroke-linejoin="round" />
<path d="M 166.0 129.0 L 166.5 129.0 L 166.5 128.5 L 167.0 128.5 L 167.0 128.0 L 167.0 128.0 L 167.0 129.0 L 165.5 131.5 L 163.0 135.5 L 156.0 145.5 L 149.0 153.0 L 143.5 159.0 L 139.5 164.0 L 136.0 167.0 L 133.0 168.5 L 130.0 169.0 L 127.0 169.5 L 124.0 169.5 L 122.5 169.5 L 122.0 169.5 L 122.0 169.0 L 122.5 169.0 L 123.0 168.0 L 123.5 167.5 L 125.0 167.0 L 126.5 167.0 L 128.5 167.0 L 130.5 166.5 L 133.5 166.5 L 137.5 167.5 L 143.0 169.0 L 149.5 170.5 L 155.5 172.0 L 161.0 172.5 L 165.5 173.0 L 169.5 173.0 L 173.5 172.5 L 176.0 172.0 L 177.0 171.5 L 177.0 171.5 L 177.0 171.5 " stroke="black" fill="none" stroke-width="6.0" stroke-linecap="round" stroke-linejoin="round" />
</svg>