<svg xmlns="http://www.w3.org/2000/svg" width="300" height="300" viewBox="0 0 300 300">
<path d="M 144.0 113.5 L 143.0 113.5 L 142.5 113.5 L 143.0 114.0 L 145.5 115.5 L 148.5 118.0 L 151.0 120.5 L 152.5 122.5 L 153.0 123.0 " stroke="black" fill="none" stroke-width="6.0" stroke-linecap="round" stroke-linejoin="round" />
<path d="M 126.0 132.5 L 126.0 132.0 L 126.0 131.5 L 126.0 131.5 L 125.5 133.0 L 125.0 137.0 L 123.5 141.5 L 122.0 145.0 L 121.5 146.5 L 121.5 146.5 " stroke="black" fill="none" stroke-width="6.0" stroke-linecap="round" stroke-linejoin="round" />
<path d="M 129.5 134.5 L 129.0 134.5 L 128.5 134.5 L 128.5 134.5 L 131.0 134.0 L 137.0 133.5 L 144.5 132.5 L 153.0 131.0 L 160.5 130.0 L 166.5 129.5 L 171.0 129.5 L 174.5 129.5 L 176.5 130.0 L 177.5 130.0 L 178.0 130.5 L 178.0 131.5 L 178.0 133.0 L 177.5 134.5 L 176.0 137.0 L 174.5 140.5 L 172.5 144.5 L 171.0 147.0 L 171.0 148.0 " stroke="black" fill="none" stroke-width="6.0" stroke-linecap="round" stroke-linejoin="round" />
<path d="M 136.5 147.5 L 136.5 147.5 L 137.0 148.0 L 137.0 151.5 L 136.0 156.0 L 135.5 160.5 L 134.5 162.5 " stroke="black" fill="none" stroke-width="6.0" stroke-linecap="round" stroke-linejoin="round" />
<path d="M 137.0 149.0 L 137.0 149.0 L 137.0 149.5 L 137.0 149.5 L 137.5 149.5 L 139.5 149.5 L 143.5 149.0 L 148.0 148.5 L 152.0 148.5 L 154.5 148.0 L 156.5 148.0 L 157.0 148.0 L 157.5 148.0 L 157.5 148.0 L 157.5 148.5 L 157.5 149.5 L 156.5 150.5 L 155.5 153.0 L 154.5 155.5 L 154.0 158.5 L 153.5 160.0 L 153.5 160.0 " stroke="black" fill="none" stroke-width="6.0" stroke-linecap="round" stroke-linejoin="round" />
<path d="M 138.5 163.5 L 137.5 163.5 L 136.5 163.5 L 136.0 163.5 L 138.0 163.0 L 142.0 162.5 L 146.5 162.0 L 150.5 162.0 L 154.0 162.5 L 155.0 162.5 " stroke="black" fill="none" stroke-width="6.0" stroke-linecap="round" stroke-linejoin="round" />
<path d="M 145.0 168.0 L 145.5 167.0 L 145.5 166.0 L 146.0 165.0 L 146.5 165.0 L 146.5 165.0 L 146.5 166.5 L 145.5 169.0 L 145.0 172.0 L 145.0 172.5 " stroke="black" fill="none" stroke-width="6.0" stroke-linecap="round" stroke-linejoin="round" />
<path d="M 130.0 180.5 L 130.0 179.0 L 130.5 177.0 L 130.5 175.5 L 130.5 175.5 L 130.5 176.0 L 130.5 179.5 L 130.5 184.0 L 131.0 188.0 L 132.0 190.5 L 132.5 191.0 " stroke="black" fill="none" stroke-width="6.0" stroke-linecap="round" stroke-linejoin="round" />
<path d="M 133.0 178.0 L 133.0 178.0 L 132.5 178.5 L 132.5 178.5 L 133.0 178.5 L 135.5 177.5 L 139.5 177.0 L 145.0 176.0 L 150.5 175.0 L 155.0 174.5 L 158.0 174.5 L 160.0 175.0 L 160.5 176.0 L 160.5 176.5 L 161.0 177.5 L 161.0 179.0 L 160.5 181.0 L 159.5 183.5 L 158.0 186.0 L 157.0 189.0 L 156.0 190.5 L 155.0 192.0 L 155.0 193.0 " stroke="black" fill="none" stroke-width="6.0" stroke-linecap="round" stroke-linejoin="round" />
<path d="M 135.5 195.5 L 135.0 196.0 L 133.5 196.5 L 133.0 196.5 L 135.0 196.5 L 141.0 195.0 L 147.5 194.0 L 154.0 193.5 L 157.0 193.5 " stroke="black" fill="none" stroke-width="6.0" stroke-linecap="round" stroke-linejoin="round" />
</svg>