<svg xmlns="http://www.w3.org/2000/svg" width="300" height="300" viewBox="0 0 300 300">
<path d="M 144.5 95.0 L 143.5 95.5 L 142.5 95.5 L 142.0 96.0 L 142.5 97.0 L 145.0 99.0 L 147.0 101.0 L 148.5 102.5 L 150.0 104.0 L 150.0 105.5 " stroke="black" fill="none" stroke-width="8.0" stroke-linecap="round" stroke-linejoin="round" />
<path d="M 129.0 115.5 L 129.0 115.0 L 129.5 114.5 L 129.5 114.5 L 129.5 114.0 L 129.5 115.0 L 128.0 118.5 L 126.0 123.5 L 125.0 128.0 L 124.5 129.5 " stroke="black" fill="none" stroke-width="8.0" stroke-linecap="round" stroke-linejoin="round" />
<path d="M 130.5 119.0 L 130.5 119.0 L 130.0 119.0 L 129.5 119.0 L 129.5 119.5 L 131.0 119.5 L 134.5 118.5 L 142.0 117.0 L 151.5 115.5 L 168.5 114.0 L 172.0 114.0 L 173.5 114.0 L 173.5 114.0 L 173.5 114.0 L 174.0 114.5 L 174.5 115.0 L 175.5 115.5 L 176.0 117.0 L 176.0 119.0 L 176.0 121.5 L 176.0 123.5 L 175.5 125.5 L 175.0 127.0 L 175.0 127.5 " stroke="black" fill="none" stroke-width="8.0" stroke-linecap="round" stroke-linejoin="round" />
<path d="M 139.0 129.5 L 138.5 129.5 L 138.5 130.0 L 138.0 130.0 L 139.0 130.0 L 146.5 129.5 L 151.0 128.5 L 154.0 127.5 L 156.0 127.0 L 156.5 127.0 " stroke="black" fill="none" stroke-width="8.0" stroke-linecap="round" stroke-linejoin="round" />
<path d="M 130.0 147.5 L 131.0 147.0 L 131.5 147.0 L 133.0 146.5 L 135.0 146.5 L 140.0 146.0 L 147.5 146.0 L 154.5 146.0 L 162.0 146.0 L 168.0 145.5 L 170.5 145.5 L 171.0 145.5 L 170.0 146.5 L 170.0 146.5 " stroke="black" fill="none" stroke-width="8.0" stroke-linecap="round" stroke-linejoin="round" />
<path d="M 148.0 133.5 L 147.5 133.5 L 147.0 133.0 L 146.0 132.5 L 146.0 132.5 L 146.0 132.5 L 146.0 134.5 L 147.0 139.0 L 148.0 147.0 L 148.5 156.5 L 149.0 164.0 L 149.5 170.5 L 150.0 175.5 L 150.0 179.0 L 150.5 181.5 L 150.5 183.0 L 150.0 184.5 L 149.5 185.5 L 148.0 186.0 L 146.5 186.0 L 144.0 185.0 L 141.5 183.0 L 139.5 181.0 L 138.0 179.5 L 137.0 178.5 L 137.0 178.5 " stroke="black" fill="none" stroke-width="8.0" stroke-linecap="round" stroke-linejoin="round" />
</svg>