<svg xmlns="http://www.w3.org/2000/svg" width="300" height="300" viewBox="0 0 300 300">
<path d="M 128.0 117.0 L 128.0 117.0 L 128.0 118.0 L 128.0 118.0 L 128.0 118.0 L 130.0 118.0 L 135.5 115.5 L 145.0 111.5 L 155.5 107.0 L 164.5 103.5 L 171.0 100.5 L 174.0 99.5 L 175.0 99.5 L 175.0 99.5 L 175.0 99.5 L 174.5 99.5 L 174.0 100.5 " stroke="black" fill="none" stroke-width="6.0" stroke-linecap="round" stroke-linejoin="round" />
<path d="M 129.5 126.5 L 129.5 126.5 L 129.5 126.5 L 130.0 126.5 L 130.5 126.5 L 131.0 126.5 L 132.5 127.0 L 134.5 128.0 L 136.5 128.5 L 138.5 128.5 L 140.5 128.5 " stroke="black" fill="none" stroke-width="6.0" stroke-linecap="round" stroke-linejoin="round" />
<path d="M 152.5 122.0 L 152.5 122.0 L 153.0 121.5 L 153.0 121.0 L 153.5 121.0 L 153.5 121.0 L 153.5 121.0 L 154.0 122.0 L 154.5 123.5 L 154.5 124.0 " stroke="black" fill="none" stroke-width="6.0" stroke-linecap="round" stroke-linejoin="round" />
<path d="M 169.5 114.5 L 169.0 114.5 L 168.5 114.5 L 168.0 114.0 L 168.0 114.0 L 168.0 114.5 L 167.5 116.0 L 166.5 119.0 L 165.5 122.0 L 165.5 124.5 L 165.5 125.0 " stroke="black" fill="none" stroke-width="6.0" stroke-linecap="round" stroke-linejoin="round" />
<path d="M 132.0 140.5 L 132.5 140.0 L 133.0 139.5 L 133.0 139.5 L 133.0 140.5 L 132.0 143.5 L 131.5 147.0 L 131.0 150.0 L 131.0 151.0 L 130.5 150.5 " stroke="black" fill="none" stroke-width="6.0" stroke-linecap="round" stroke-linejoin="round" />
<path d="M 131.0 141.5 L 131.5 141.0 L 131.5 140.5 L 132.0 140.0 L 132.5 140.0 L 134.0 139.5 L 135.5 139.0 L 138.0 138.5 L 142.0 138.0 L 148.0 136.5 L 155.5 135.0 L 163.0 133.5 L 170.0 133.0 L 175.0 132.5 L 178.5 132.0 L 182.0 131.5 L 184.5 131.0 L 186.5 130.5 L 187.5 130.5 L 188.0 130.5 L 188.0 130.5 L 188.0 130.5 L 187.5 130.5 L 187.0 131.0 L 186.0 132.0 L 185.0 134.0 L 182.5 137.0 L 180.5 140.5 L 178.5 143.0 L 178.0 144.5 L 178.0 145.5 L 178.0 145.5 " stroke="black" fill="none" stroke-width="6.0" stroke-linecap="round" stroke-linejoin="round" />
<path d="M 143.0 150.5 L 143.0 150.5 L 143.0 150.0 L 143.0 150.0 L 143.0 149.5 L 143.0 149.5 L 143.0 149.5 L 143.0 150.0 L 141.0 153.0 L 138.0 157.5 L 136.0 161.5 L 135.0 163.0 L 135.0 162.5 " stroke="black" fill="none" stroke-width="6.0" stroke-linecap="round" stroke-linejoin="round" />
<path d="M 151.5 149.5 L 151.5 149.5 L 151.5 149.5 L 151.5 149.5 L 151.5 149.5 L 151.5 149.5 L 151.5 150.5 L 151.5 152.5 L 152.0 156.0 L 153.5 160.0 L 156.5 163.0 L 159.5 164.5 L 162.5 164.5 L 164.5 164.0 L 165.5 163.0 L 166.0 161.5 L 166.0 160.0 L 165.5 158.5 L 165.0 157.5 L 164.5 157.5 L 164.0 157.5 L 164.0 158.5 " stroke="black" fill="none" stroke-width="6.0" stroke-linecap="round" stroke-linejoin="round" />
<path d="M 162.0 146.5 L 162.0 146.5 L 161.0 146.5 L 160.5 146.5 L 160.5 147.0 L 161.0 147.5 L 163.0 148.5 L 164.5 149.0 L 166.0 149.5 L 166.5 149.5 " stroke="black" fill="none" stroke-width="6.0" stroke-linecap="round" stroke-linejoin="round" />
<path d="M 173.0 154.0 L 173.0 154.0 L 173.0 155.0 L 173.0 155.5 L 173.5 156.0 L 174.5 156.5 L 175.5 157.0 L 176.5 157.5 L 177.0 158.0 " stroke="black" fill="none" stroke-width="6.0" stroke-linecap="round" stroke-linejoin="round" />
<path d="M 142.5 171.0 L 143.0 170.5 L 143.0 169.5 L 143.5 168.5 L 143.5 168.0 L 143.5 168.5 L 143.0 171.0 L 142.0 174.5 L 141.0 177.5 L 141.0 179.5 L 141.0 180.0 L 141.0 179.5 " stroke="black" fill="none" stroke-width="6.0" stroke-linecap="round" stroke-linejoin="round" />
<path d="M 146.0 175.5 L 144.5 176.5 L 144.0 176.5 L 144.0 176.5 L 145.0 176.5 L 148.0 175.5 L 152.5 174.0 L 158.5 172.0 L 166.0 170.0 L 172.0 169.0 L 175.5 169.0 L 177.0 169.0 L 177.0 169.0 L 176.5 169.5 L 176.5 169.5 L 176.5 169.5 L 176.5 169.5 L 176.5 169.0 L 176.5 169.0 L 177.0 169.0 L 177.0 169.0 L 177.0 169.0 L 177.0 169.0 L 177.0 169.0 L 176.0 170.0 L 175.0 171.5 L 172.5 174.5 L 168.0 180.0 L 160.5 188.0 L 153.5 195.5 L 149.0 199.0 L 147.0 201.0 L 145.0 203.0 L 143.0 205.0 L 141.5 206.5 L 139.5 208.0 L 139.0 208.5 L 139.0 208.5 L 139.5 208.5 L 142.0 208.5 L 142.5 208.5 " stroke="black" fill="none" stroke-width="6.0" stroke-linecap="round" stroke-linejoin="round" />
<path d="M 149.5 184.5 L 149.5 184.5 L 149.5 184.5 L 149.0 184.5 L 149.0 184.5 L 149.0 184.5 L 149.0 184.5 L 150.5 185.5 L 153.0 187.5 L 158.0 192.0 L 165.0 197.5 L 173.5 202.0 L 180.5 204.5 L 185.0 205.5 L 189.0 207.5 L 191.5 208.5 L 192.0 208.5 " stroke="black" fill="none" stroke-width="6.0" stroke-linecap="round" stroke-linejoin="round" />
</svg>