<svg xmlns="http://www.w3.org/2000/svg" width="300" height="300" viewBox="0 0 300 300">
<path d="M 128.0 111.5 L 126.5 113.0 L 125.5 113.0 L 125.5 113.5 L 126.0 113.5 L 128.5 113.0 L 134.0 111.5 L 142.0 110.0 L 152.0 107.5 L 160.0 105.0 L 164.0 104.0 L 165.0 103.5 L 165.0 103.5 L 166.0 103.5 L 167.0 103.5 L 167.5 104.0 L 167.5 104.0 " stroke="black" fill="none" stroke-width="6.0" stroke-linecap="round" stroke-linejoin="round" />
<path d="M 131.0 125.0 L 130.5 125.5 L 130.0 126.0 L 130.0 126.0 L 130.0 126.0 L 131.5 126.0 L 134.0 126.5 L 136.5 127.0 L 139.0 127.0 L 140.0 127.0 " stroke="black" fill="none" stroke-width="6.0" stroke-linecap="round" stroke-linejoin="round" />
<path d="M 146.0 118.0 L 145.5 118.0 L 145.0 117.5 L 145.0 117.5 L 145.5 118.0 L 147.0 119.0 L 148.0 120.5 L 148.5 121.0 " stroke="black" fill="none" stroke-width="6.0" stroke-linecap="round" stroke-linejoin="round" />
<path d="M 163.0 113.0 L 163.5 114.5 L 164.0 114.5 L 164.0 114.5 L 164.5 114.5 L 164.5 115.5 L 164.0 117.5 L 163.0 120.0 L 162.0 122.0 " stroke="black" fill="none" stroke-width="6.0" stroke-linecap="round" stroke-linejoin="round" />
<path d="M 127.5 134.0 L 128.5 134.0 L 128.5 134.0 L 129.0 134.0 L 129.0 135.0 L 128.5 138.5 L 127.0 143.0 L 126.0 147.0 L 125.5 149.0 L 125.5 149.5 " stroke="black" fill="none" stroke-width="6.0" stroke-linecap="round" stroke-linejoin="round" />
<path d="M 129.5 135.0 L 129.5 135.0 L 129.0 135.5 L 128.5 136.0 L 130.0 135.5 L 134.5 134.5 L 142.5 133.0 L 153.5 131.0 L 162.0 130.0 L 166.0 130.5 L 167.5 130.5 L 168.5 131.0 L 169.0 131.0 L 170.0 131.0 L 170.0 131.0 L 170.5 131.0 L 171.0 131.0 L 171.0 131.0 L 171.5 131.0 L 171.5 131.0 L 171.5 131.0 L 171.5 131.0 L 171.5 131.0 L 171.5 131.0 L 172.0 131.0 L 172.0 131.0 L 172.5 131.0 L 173.0 131.0 L 173.0 131.0 L 173.5 131.0 L 174.0 131.0 L 174.5 131.0 L 174.5 131.0 L 175.0 131.0 L 175.0 131.0 L 175.5 131.0 L 175.5 131.0 L 175.5 131.0 L 176.0 131.0 L 176.0 131.0 L 176.0 131.0 L 176.0 131.0 L 176.0 131.0 L 176.0 131.0 L 176.5 131.0 L 176.5 131.0 L 176.5 131.0 L 176.5 131.0 L 176.5 131.0 L 176.5 131.5 L 176.5 132.0 L 176.5 133.0 L 176.5 134.5 L 176.0 137.0 L 176.0 140.0 L 176.0 142.0 L 176.0 144.0 L 175.5 145.0 " stroke="black" fill="none" stroke-width="6.0" stroke-linecap="round" stroke-linejoin="round" />
<path d="M 136.5 148.0 L 136.5 148.0 L 137.5 147.0 L 137.5 146.0 L 138.0 146.0 L 138.0 146.0 L 137.5 147.0 L 136.0 149.0 L 135.0 151.0 L 134.5 152.0 " stroke="black" fill="none" stroke-width="6.0" stroke-linecap="round" stroke-linejoin="round" />
<path d="M 148.0 147.0 L 147.5 147.0 L 147.0 147.0 L 146.0 147.0 L 146.0 148.0 L 145.5 149.0 L 146.5 151.5 L 149.5 153.0 L 153.0 154.5 L 156.0 154.5 L 158.0 154.5 L 159.0 153.5 L 159.5 152.5 " stroke="black" fill="none" stroke-width="6.0" stroke-linecap="round" stroke-linejoin="round" />
<path d="M 154.5 141.0 L 154.5 141.0 L 154.5 141.0 L 154.5 141.5 L 154.5 141.5 L 155.5 141.5 L 156.5 142.5 L 157.0 143.0 " stroke="black" fill="none" stroke-width="6.0" stroke-linecap="round" stroke-linejoin="round" />
<path d="M 163.5 138.5 L 163.5 138.5 L 163.5 138.5 L 163.5 138.5 L 164.5 138.5 L 165.0 139.0 L 166.0 140.5 L 167.0 141.5 L 167.5 142.0 " stroke="black" fill="none" stroke-width="6.0" stroke-linecap="round" stroke-linejoin="round" />
<path d="M 142.0 162.0 L 142.5 162.0 L 142.5 162.0 L 143.0 162.0 L 143.0 162.0 L 143.0 163.0 L 142.5 166.5 L 141.5 169.5 L 141.0 171.0 " stroke="black" fill="none" stroke-width="6.0" stroke-linecap="round" stroke-linejoin="round" />
<path d="M 145.0 165.0 L 145.0 165.0 L 145.0 164.5 L 148.0 164.5 L 154.0 164.0 L 161.0 162.0 L 166.5 160.0 L 169.0 159.5 L 170.0 159.5 L 170.0 159.5 L 170.0 159.5 L 170.0 159.5 L 170.5 159.5 L 170.5 159.5 L 171.0 159.5 L 171.0 160.0 L 171.0 161.5 L 169.5 164.0 L 166.0 169.5 L 160.5 176.5 L 153.0 185.5 L 146.0 192.5 L 143.5 195.0 L 142.5 195.0 L 142.5 194.5 L 142.5 194.0 " stroke="black" fill="none" stroke-width="6.0" stroke-linecap="round" stroke-linejoin="round" />
<path d="M 148.5 172.5 L 148.0 172.5 L 147.5 173.0 L 147.5 174.5 L 151.0 177.5 L 158.5 184.0 L 167.0 190.0 L 173.5 193.0 L 176.0 193.0 " stroke="black" fill="none" stroke-width="6.0" stroke-linecap="round" stroke-linejoin="round" />
</svg>