<svg xmlns="http://www.w3.org/2000/svg" width="300" height="300" viewBox="0 0 300 300">
<path d="M 119.5 147.0 L 119.0 147.5 L 119.0 147.5 L 121.0 146.5 L 125.0 144.5 L 129.0 143.0 L 132.5 141.5 L 134.0 141.0 L 134.0 140.0 " stroke="black" fill="none" stroke-width="6.0" stroke-linecap="round" stroke-linejoin="round" />
<path d="M 127.5 125.5 L 127.5 125.5 L 127.0 125.0 L 127.0 124.5 L 127.0 124.5 L 127.0 126.5 L 127.0 134.5 L 127.0 147.0 L 127.0 158.0 L 127.0 163.0 L 127.0 164.0 L 127.5 163.5 L 127.5 163.5 " stroke="black" fill="none" stroke-width="6.0" stroke-linecap="round" stroke-linejoin="round" />
<path d="M 119.5 172.0 L 119.5 173.0 L 119.5 173.5 L 120.0 173.5 L 122.5 172.0 L 126.0 170.0 L 129.5 167.5 L 132.5 165.5 L 135.5 163.0 L 136.5 161.5 " stroke="black" fill="none" stroke-width="6.0" stroke-linecap="round" stroke-linejoin="round" />
<path d="M 151.0 118.0 L 151.0 117.0 L 150.5 115.5 L 150.5 114.5 L 150.5 114.0 L 151.0 114.5 L 151.0 116.5 L 150.0 121.5 L 147.0 128.5 L 144.5 134.5 L 143.5 136.0 L 143.5 135.5 " stroke="black" fill="none" stroke-width="6.0" stroke-linecap="round" stroke-linejoin="round" />
<path d="M 148.0 126.0 L 148.0 126.0 L 148.0 126.5 L 148.0 126.5 L 148.5 127.0 L 152.0 126.5 L 158.0 124.5 L 165.5 123.0 L 172.5 121.5 L 177.0 121.0 L 177.5 121.0 L 176.5 121.0 L 176.0 122.0 L 175.0 125.5 L 174.5 128.5 L 174.5 133.0 L 174.0 140.0 L 173.5 149.5 L 173.5 159.5 L 173.5 168.0 L 173.5 174.0 L 173.5 178.0 L 173.0 180.0 L 172.0 180.0 L 170.0 179.0 L 167.5 176.0 L 165.0 173.5 L 163.5 172.0 L 163.0 171.0 " stroke="black" fill="none" stroke-width="6.0" stroke-linecap="round" stroke-linejoin="round" />
<path d="M 150.0 145.0 L 150.0 145.0 L 149.5 145.0 L 149.5 145.0 L 149.5 145.0 L 151.5 145.0 L 154.5 144.5 L 158.0 144.5 L 160.0 144.0 L 161.5 143.5 L 162.0 143.5 " stroke="black" fill="none" stroke-width="6.0" stroke-linecap="round" stroke-linejoin="round" />
<path d="M 150.0 155.0 L 149.5 155.5 L 149.0 156.0 L 148.5 156.5 L 149.5 156.5 L 152.0 155.5 L 155.5 155.5 L 159.0 155.5 L 162.0 155.5 L 164.0 155.5 L 165.0 155.0 " stroke="black" fill="none" stroke-width="6.0" stroke-linecap="round" stroke-linejoin="round" />
</svg>