<svg xmlns="http://www.w3.org/2000/svg" width="300" height="300" viewBox="0 0 300 300">
<path d="M 142.0 108.5 L 141.5 109.5 L 141.0 109.5 L 141.0 109.5 L 143.5 110.5 L 146.5 111.5 L 149.0 113.0 L 150.0 113.5 " stroke="black" fill="none" stroke-width="6.0" stroke-linecap="round" stroke-linejoin="round" />
<path d="M 126.5 124.5 L 125.5 124.5 L 124.5 124.5 L 124.0 124.5 L 123.5 126.5 L 123.0 131.0 L 122.0 136.0 L 122.0 138.5 L 122.0 139.0 " stroke="black" fill="none" stroke-width="6.0" stroke-linecap="round" stroke-linejoin="round" />
<path d="M 125.5 127.5 L 124.5 127.5 L 123.5 127.0 L 123.5 127.0 L 125.5 126.5 L 129.5 126.0 L 136.0 125.0 L 145.5 124.5 L 157.5 122.5 L 168.0 121.0 L 175.5 120.5 L 180.0 120.5 L 182.0 121.5 L 183.0 122.5 L 183.5 122.5 L 183.5 123.0 L 183.5 124.5 L 182.5 127.5 L 180.5 131.0 L 178.5 134.5 L 176.5 137.5 L 174.5 140.0 L 174.0 141.0 " stroke="black" fill="none" stroke-width="6.0" stroke-linecap="round" stroke-linejoin="round" />
<path d="M 138.5 135.5 L 139.0 135.5 L 139.5 135.5 L 140.0 135.5 L 140.0 136.0 L 139.0 138.0 L 136.0 142.5 L 131.0 148.0 L 126.5 153.0 L 125.5 154.5 L 126.0 154.0 " stroke="black" fill="none" stroke-width="6.0" stroke-linecap="round" stroke-linejoin="round" />
<path d="M 133.5 146.5 L 134.0 146.5 L 134.5 146.5 L 135.0 147.0 L 135.5 148.0 L 135.5 152.0 L 135.5 161.0 L 134.5 171.5 L 134.0 178.0 L 134.0 178.5 L 134.0 176.5 " stroke="black" fill="none" stroke-width="6.0" stroke-linecap="round" stroke-linejoin="round" />
<path d="M 152.0 134.5 L 152.0 134.5 L 152.0 135.0 L 152.0 135.5 L 151.5 136.5 L 150.0 140.0 L 149.0 144.0 L 148.0 147.0 L 148.0 147.5 " stroke="black" fill="none" stroke-width="6.0" stroke-linecap="round" stroke-linejoin="round" />
<path d="M 152.0 138.5 L 152.0 138.5 L 151.5 138.5 L 151.0 138.5 L 151.0 138.5 L 152.0 138.5 L 155.0 138.0 L 158.5 137.0 L 162.5 136.5 L 165.5 136.5 L 167.5 136.5 L 168.0 138.0 L 168.0 140.0 L 167.5 143.5 L 166.0 148.0 L 164.0 154.0 L 160.0 161.0 L 155.0 168.5 L 150.5 174.5 L 146.5 178.5 L 145.0 179.0 L 144.5 178.5 L 144.5 177.5 " stroke="black" fill="none" stroke-width="6.0" stroke-linecap="round" stroke-linejoin="round" />
<path d="M 157.0 148.0 L 157.0 147.5 L 157.0 147.0 L 157.0 147.0 L 157.5 146.5 L 158.5 147.0 L 160.0 148.0 L 160.5 148.5 " stroke="black" fill="none" stroke-width="6.0" stroke-linecap="round" stroke-linejoin="round" />
<path d="M 148.5 154.0 L 148.0 154.0 L 147.5 154.5 L 147.5 154.5 L 148.0 155.5 L 150.5 158.0 L 154.5 161.5 L 160.0 165.0 L 166.5 167.0 L 173.0 168.0 L 177.0 168.0 L 177.5 168.0 " stroke="black" fill="none" stroke-width="6.0" stroke-linecap="round" stroke-linejoin="round" />
</svg>