<svg xmlns="http://www.w3.org/2000/svg" width="300" height="300" viewBox="0 0 300 300">
<path d="M 128.5 109.0 L 128.5 109.5 L 128.0 110.5 L 127.5 111.0 L 127.0 111.5 L 127.0 111.5 L 127.0 111.5 L 129.5 111.0 L 134.5 110.5 L 142.5 108.5 L 152.5 106.0 L 161.5 103.5 L 166.5 102.5 L 168.5 102.5 L 169.0 102.5 L 169.0 102.0 L 169.0 101.5 L 169.5 101.5 L 170.0 101.0 L 170.0 101.0 L 170.5 101.0 L 171.0 101.0 L 171.0 101.5 " stroke="black" fill="none" stroke-width="8.0" stroke-linecap="round" stroke-linejoin="round" />
<path d="M 125.0 125.0 L 124.5 125.0 L 124.0 125.0 L 123.5 125.0 L 123.5 125.0 L 124.5 124.5 L 127.5 124.5 L 132.5 124.5 L 140.5 124.0 L 151.5 122.5 L 160.5 121.0 L 168.0 119.5 L 171.0 119.0 L 171.0 119.0 L 170.5 119.0 L 170.0 119.0 L 170.0 119.0 L 170.0 119.0 L 170.5 119.0 " stroke="black" fill="none" stroke-width="8.0" stroke-linecap="round" stroke-linejoin="round" />
<path d="M 128.0 138.5 L 128.0 138.0 L 128.0 137.5 L 128.0 137.0 L 128.0 136.5 L 128.0 137.0 L 128.0 140.0 L 128.0 145.0 L 128.5 150.5 L 129.5 155.0 L 130.0 156.5 " stroke="black" fill="none" stroke-width="8.0" stroke-linecap="round" stroke-linejoin="round" />
<path d="M 128.5 139.5 L 128.5 139.5 L 128.5 139.5 L 128.5 139.5 L 128.5 139.5 L 130.0 139.5 L 134.5 139.0 L 143.0 137.5 L 152.5 136.5 L 159.0 136.0 L 164.0 136.0 L 166.0 137.0 L 166.0 138.0 L 166.0 138.5 L 166.0 138.5 L 165.5 139.5 L 165.5 140.5 L 165.0 143.0 L 164.0 145.5 L 162.5 149.0 L 161.5 152.5 L 161.0 154.5 " stroke="black" fill="none" stroke-width="8.0" stroke-linecap="round" stroke-linejoin="round" />
<path d="M 131.5 148.5 L 132.0 149.0 L 132.5 149.0 L 133.0 149.5 L 136.5 149.5 L 143.5 148.5 L 152.5 147.0 L 159.5 146.5 L 164.5 146.5 L 165.5 146.5 " stroke="black" fill="none" stroke-width="8.0" stroke-linecap="round" stroke-linejoin="round" />
<path d="M 131.5 161.5 L 131.5 161.5 L 131.0 161.0 L 130.5 161.0 L 130.5 161.0 L 130.5 160.5 L 131.0 160.5 L 133.5 160.5 L 138.5 160.0 L 146.0 159.5 L 153.5 159.5 L 159.5 160.5 L 162.0 160.5 " stroke="black" fill="none" stroke-width="8.0" stroke-linecap="round" stroke-linejoin="round" />
<path d="M 129.5 173.0 L 130.0 173.0 L 130.0 173.0 L 130.5 173.5 L 131.0 173.5 L 133.5 173.5 L 139.0 173.0 L 148.5 172.0 L 157.5 170.5 L 163.0 170.0 L 165.0 170.0 " stroke="black" fill="none" stroke-width="8.0" stroke-linecap="round" stroke-linejoin="round" />
<path d="M 148.5 108.5 L 148.5 108.5 L 148.0 108.5 L 148.0 109.0 L 148.0 109.5 L 148.0 111.5 L 148.0 115.5 L 149.0 121.0 L 149.0 126.5 L 149.0 132.0 L 149.0 136.5 L 149.0 141.0 L 149.0 145.0 L 148.5 148.0 L 148.5 151.5 L 148.0 155.0 L 147.5 158.0 L 147.0 161.5 L 147.0 164.5 L 147.0 167.0 L 147.0 169.5 L 147.0 171.5 L 147.0 173.5 L 147.0 175.5 L 146.5 177.0 L 146.5 178.0 L 146.5 179.0 L 146.5 180.0 L 146.5 180.5 L 146.5 181.5 L 146.5 182.0 L 146.5 182.0 L 146.5 182.0 " stroke="black" fill="none" stroke-width="8.0" stroke-linecap="round" stroke-linejoin="round" />
<path d="M 118.5 186.0 L 118.5 185.5 L 118.5 185.5 L 119.0 185.0 L 119.0 185.0 L 119.5 185.0 L 121.0 185.5 L 124.0 185.5 L 128.0 186.0 L 133.0 186.0 L 139.0 185.5 L 144.5 185.0 L 150.0 185.0 L 154.5 184.5 L 159.0 184.5 L 163.0 184.5 L 167.0 185.0 L 170.5 185.0 L 173.5 185.0 L 175.5 185.0 L 176.5 185.0 L 177.5 185.0 L 178.0 185.0 L 178.0 185.0 L 178.0 185.0 L 178.0 185.0 L 178.0 185.0 L 178.0 185.0 L 178.0 185.0 L 178.0 185.0 L 178.0 185.0 L 178.0 185.0 L 178.0 185.0 " stroke="black" fill="none" stroke-width="8.0" stroke-linecap="round" stroke-linejoin="round" />
</svg>