<svg xmlns="http://www.w3.org/2000/svg" width="300" height="300" viewBox="0 0 300 300">
<path d="M 136.0 110.0 L 136.0 110.5 L 136.0 110.5 L 136.0 111.0 L 138.5 111.0 L 144.5 111.0 L 152.0 111.0 L 158.5 110.5 L 163.0 110.5 L 164.5 110.0 L 164.5 110.0 L 163.5 109.5 L 162.5 109.5 " stroke="black" fill="none" stroke-width="6.0" stroke-linecap="round" stroke-linejoin="round" />
<path d="M 141.0 125.5 L 139.5 125.5 L 139.0 125.5 L 139.0 125.5 L 140.0 125.0 L 142.5 125.0 L 147.0 124.5 L 152.0 124.5 L 157.0 124.0 L 160.5 124.0 L 161.0 123.0 L 161.0 123.0 " stroke="black" fill="none" stroke-width="6.0" stroke-linecap="round" stroke-linejoin="round" />
<path d="M 148.0 101.0 L 148.5 101.0 L 149.0 101.0 L 149.0 101.5 L 149.5 103.5 L 149.5 109.5 L 149.5 120.0 L 149.5 131.0 L 149.0 137.5 L 149.0 139.0 L 149.5 139.0 L 149.0 138.0 " stroke="black" fill="none" stroke-width="6.0" stroke-linecap="round" stroke-linejoin="round" />
<path d="M 131.0 143.5 L 131.0 143.0 L 131.5 142.0 L 132.0 142.0 L 134.0 141.5 L 138.0 141.0 L 144.5 141.0 L 153.0 141.5 L 162.0 141.5 L 167.5 141.5 L 168.5 141.5 L 167.5 142.0 " stroke="black" fill="none" stroke-width="6.0" stroke-linecap="round" stroke-linejoin="round" />
<path d="M 140.5 156.5 L 140.5 156.5 L 140.5 156.5 L 140.5 156.5 L 140.5 156.5 L 140.5 159.5 L 141.0 167.0 L 141.5 176.5 L 141.5 182.5 L 141.5 183.5 L 141.5 182.0 " stroke="black" fill="none" stroke-width="6.0" stroke-linecap="round" stroke-linejoin="round" />
<path d="M 144.0 151.5 L 143.5 152.0 L 143.5 152.5 L 143.0 152.5 L 143.5 152.5 L 146.0 152.5 L 150.5 152.0 L 156.0 151.5 L 161.0 151.0 L 164.0 151.0 L 165.5 151.0 L 165.5 151.5 L 165.0 151.5 L 164.5 152.5 L 164.5 154.0 L 164.5 156.0 L 164.5 159.0 L 164.5 164.5 L 164.5 171.0 L 165.0 177.0 L 165.5 181.5 L 165.5 184.5 L 165.5 186.0 L 165.5 187.0 L 165.0 187.0 L 164.0 187.0 L 161.5 185.5 L 159.0 181.5 " stroke="black" fill="none" stroke-width="6.0" stroke-linecap="round" stroke-linejoin="round" />
<path d="M 147.0 165.5 L 146.5 165.5 L 146.0 165.5 L 146.0 165.5 L 146.0 165.0 L 148.0 164.0 L 152.0 163.0 L 156.0 162.0 L 159.5 161.5 L 162.0 162.0 " stroke="black" fill="none" stroke-width="6.0" stroke-linecap="round" stroke-linejoin="round" />
<path d="M 146.0 173.5 L 146.5 173.5 L 147.0 173.5 L 147.5 173.5 L 148.5 173.5 L 151.0 173.0 L 154.0 172.5 L 158.0 172.0 " stroke="black" fill="none" stroke-width="6.0" stroke-linecap="round" stroke-linejoin="round" />
</svg>