<svg xmlns="http://www.w3.org/2000/svg" width="300" height="300" viewBox="0 0 300 300">
<path d="M 131.5 117.5 L 131.5 117.0 L 132.5 116.5 L 133.0 116.5 L 133.0 116.0 L 133.0 116.0 L 133.0 116.0 L 133.0 117.5 L 131.5 121.5 L 128.0 128.5 L 123.0 137.0 L 119.0 142.5 L 117.0 144.5 L 116.5 143.5 L 117.0 141.0 " stroke="black" fill="none" stroke-width="6.0" stroke-linecap="round" stroke-linejoin="round" />
<path d="M 127.0 131.0 L 127.0 132.0 L 127.0 132.5 L 127.0 134.5 L 128.0 139.5 L 128.0 149.0 L 128.0 161.5 L 127.0 171.0 L 126.5 174.5 L 126.5 175.0 L 126.5 174.5 " stroke="black" fill="none" stroke-width="6.0" stroke-linecap="round" stroke-linejoin="round" />
<path d="M 148.0 133.0 L 148.0 133.0 L 148.0 132.5 L 148.0 132.0 L 148.0 132.0 L 148.0 132.5 L 147.0 135.0 L 145.5 140.0 L 144.0 144.0 L 143.0 145.5 " stroke="black" fill="none" stroke-width="6.0" stroke-linecap="round" stroke-linejoin="round" />
<path d="M 138.0 128.5 L 138.0 128.5 L 138.0 128.5 L 139.0 128.5 L 139.0 129.5 L 139.5 133.0 L 139.5 140.0 L 138.5 149.0 L 137.5 156.5 L 137.5 160.5 L 138.5 162.0 L 140.0 162.0 L 142.0 161.0 L 144.0 158.5 L 145.5 155.5 L 146.5 152.5 L 147.0 151.5 " stroke="black" fill="none" stroke-width="6.0" stroke-linecap="round" stroke-linejoin="round" />
<path d="M 160.0 114.5 L 160.0 115.0 L 159.5 116.0 L 159.0 116.5 L 160.0 117.0 L 162.5 117.0 L 166.5 117.0 L 169.5 116.0 L 171.0 115.5 L 171.5 115.0 " stroke="black" fill="none" stroke-width="6.0" stroke-linecap="round" stroke-linejoin="round" />
<path d="M 166.5 117.5 L 166.0 117.5 L 165.5 117.5 L 165.0 117.5 L 165.0 117.5 L 165.0 119.0 L 164.5 122.5 L 164.0 126.0 L 163.0 128.5 L 163.0 129.0 " stroke="black" fill="none" stroke-width="6.0" stroke-linecap="round" stroke-linejoin="round" />
<path d="M 155.0 135.0 L 155.5 134.5 L 156.5 134.0 L 157.0 134.0 L 157.5 134.0 L 159.0 136.5 L 160.0 142.0 L 160.0 149.5 L 159.5 157.0 L 159.0 161.5 L 158.5 162.0 L 157.5 158.5 " stroke="black" fill="none" stroke-width="6.0" stroke-linecap="round" stroke-linejoin="round" />
<path d="M 161.5 132.5 L 161.5 132.5 L 161.0 132.5 L 160.5 132.5 L 160.5 132.5 L 162.5 132.0 L 165.5 131.5 L 169.0 131.0 L 171.5 131.0 L 174.0 131.0 L 175.0 131.0 L 175.5 131.5 L 175.5 133.5 L 175.0 136.5 L 174.5 142.5 L 174.0 150.0 L 174.0 156.0 L 174.0 158.5 L 174.0 159.0 L 173.5 157.5 L 173.5 157.0 " stroke="black" fill="none" stroke-width="6.0" stroke-linecap="round" stroke-linejoin="round" />
<path d="M 163.5 143.0 L 163.5 143.0 L 163.5 142.5 L 164.0 142.5 L 166.0 142.5 L 169.0 142.0 L 171.5 141.5 L 173.0 141.5 " stroke="black" fill="none" stroke-width="6.0" stroke-linecap="round" stroke-linejoin="round" />
<path d="M 165.5 154.0 L 165.5 154.5 L 165.5 155.0 L 165.5 155.0 L 166.5 155.0 L 168.5 155.0 L 170.5 154.5 L 172.0 154.0 " stroke="black" fill="none" stroke-width="6.0" stroke-linecap="round" stroke-linejoin="round" />
<path d="M 159.0 168.5 L 159.0 168.5 L 159.5 168.0 L 160.5 167.5 L 162.0 167.5 L 165.0 167.0 L 168.5 166.5 L 171.5 166.0 L 173.0 166.0 " stroke="black" fill="none" stroke-width="6.0" stroke-linecap="round" stroke-linejoin="round" />
<path d="M 164.5 172.5 L 163.5 172.5 L 161.5 174.0 L 158.5 176.0 L 155.0 179.5 L 152.5 181.5 L 152.0 182.5 " stroke="black" fill="none" stroke-width="6.0" stroke-linecap="round" stroke-linejoin="round" />
<path d="M 171.5 177.0 L 172.5 178.0 L 174.0 179.0 L 178.0 180.5 L 183.5 182.5 L 187.0 184.0 L 187.5 184.0 " stroke="black" fill="none" stroke-width="6.0" stroke-linecap="round" stroke-linejoin="round" />
</svg>