<svg xmlns="http://www.w3.org/2000/svg" width="300" height="300" viewBox="0 0 300 300">
<path d="M 121.0 124.0 L 120.5 124.0 L 120.0 123.5 L 119.5 123.0 L 119.5 123.0 L 119.5 123.0 L 121.0 122.5 L 124.5 122.0 L 128.5 121.0 L 132.5 120.5 L 136.0 120.5 L 138.0 120.5 L 138.5 121.0 L 138.5 121.5 " stroke="black" fill="none" stroke-width="6.0" stroke-linecap="round" stroke-linejoin="round" />
<path d="M 116.5 126.5 L 116.5 126.5 L 116.5 127.0 L 117.0 127.0 L 117.0 127.5 L 117.0 128.5 L 117.5 131.5 L 118.0 139.0 L 118.0 149.0 L 118.0 158.5 L 118.0 165.0 L 119.0 169.5 L 120.0 171.0 L 120.5 171.5 L 120.5 171.0 L 121.5 169.0 L 122.0 167.5 " stroke="black" fill="none" stroke-width="6.0" stroke-linecap="round" stroke-linejoin="round" />
<path d="M 131.5 127.0 L 131.5 127.0 L 131.5 127.5 L 131.5 128.0 L 131.0 128.0 L 131.0 128.0 L 131.0 129.0 L 131.0 131.0 L 131.0 134.0 L 131.0 137.0 L 131.0 139.5 L 131.0 140.5 " stroke="black" fill="none" stroke-width="6.0" stroke-linecap="round" stroke-linejoin="round" />
<path d="M 123.5 142.5 L 122.5 142.5 L 121.0 142.5 L 121.0 142.5 L 121.5 142.5 L 124.5 142.5 L 128.5 142.0 L 132.0 141.0 L 135.0 140.5 L 138.0 140.0 L 140.5 139.0 L 141.5 138.5 L 141.5 138.0 L 141.5 138.5 L 141.0 141.0 L 140.0 144.0 L 139.0 147.0 L 138.0 149.5 L 137.5 150.5 L 137.5 150.5 " stroke="black" fill="none" stroke-width="6.0" stroke-linecap="round" stroke-linejoin="round" />
<path d="M 125.0 153.0 L 123.5 154.0 L 123.0 154.5 L 123.5 154.0 L 125.5 153.5 L 128.0 152.5 L 131.5 152.0 L 135.0 151.5 L 138.0 151.0 L 139.0 150.5 " stroke="black" fill="none" stroke-width="6.0" stroke-linecap="round" stroke-linejoin="round" />
<path d="M 132.5 153.5 L 132.5 153.5 L 133.0 153.5 L 133.0 154.0 L 133.0 154.0 L 133.0 154.5 L 133.0 156.5 L 133.0 160.5 L 133.0 165.0 L 133.0 167.5 L 133.0 168.0 " stroke="black" fill="none" stroke-width="6.0" stroke-linecap="round" stroke-linejoin="round" />
<path d="M 122.0 171.5 L 121.5 171.5 L 120.5 172.5 L 120.0 172.5 L 120.0 173.0 L 122.0 173.0 L 126.0 172.5 L 131.0 171.0 L 136.5 169.5 L 141.5 167.0 " stroke="black" fill="none" stroke-width="6.0" stroke-linecap="round" stroke-linejoin="round" />
<path d="M 154.5 115.5 L 154.5 115.5 L 156.0 115.0 L 156.5 115.0 L 156.5 114.5 L 156.5 114.5 L 156.0 116.5 L 154.0 120.0 L 151.5 124.5 L 150.0 127.5 L 149.0 129.0 " stroke="black" fill="none" stroke-width="6.0" stroke-linecap="round" stroke-linejoin="round" />
<path d="M 153.0 125.5 L 153.5 125.5 L 153.5 125.5 L 154.0 125.5 L 155.5 125.0 L 158.5 123.5 L 163.5 122.0 L 169.0 120.5 L 173.5 119.5 L 176.5 119.0 L 177.0 118.5 L 177.0 118.5 L 176.5 118.5 " stroke="black" fill="none" stroke-width="6.0" stroke-linecap="round" stroke-linejoin="round" />
<path d="M 157.0 134.5 L 157.0 134.5 L 157.5 134.5 L 157.5 134.5 L 158.0 136.0 L 158.0 139.0 L 158.0 142.5 L 158.0 145.0 L 158.0 145.5 " stroke="black" fill="none" stroke-width="6.0" stroke-linecap="round" stroke-linejoin="round" />
<path d="M 157.5 135.0 L 157.5 135.0 L 157.0 135.0 L 157.0 134.5 L 158.0 133.5 L 161.0 132.5 L 164.5 131.5 L 168.0 130.5 L 170.5 130.5 L 172.0 130.5 L 173.0 131.0 L 173.0 132.0 L 173.0 134.0 L 172.5 136.5 L 171.5 139.5 L 170.5 142.0 L 170.0 144.5 " stroke="black" fill="none" stroke-width="6.0" stroke-linecap="round" stroke-linejoin="round" />
<path d="M 161.0 146.0 L 160.0 146.0 L 159.5 146.0 L 159.0 146.0 L 160.0 146.0 L 162.5 146.0 L 165.5 146.0 L 168.0 145.5 " stroke="black" fill="none" stroke-width="6.0" stroke-linecap="round" stroke-linejoin="round" />
<path d="M 148.5 161.0 L 148.5 160.5 L 148.5 160.0 L 148.5 159.5 L 149.0 160.5 L 149.5 164.0 L 150.5 168.5 L 151.0 172.0 L 151.5 174.0 L 151.5 174.5 " stroke="black" fill="none" stroke-width="6.0" stroke-linecap="round" stroke-linejoin="round" />
<path d="M 152.0 159.0 L 152.0 158.0 L 152.0 157.5 L 152.5 156.5 L 154.0 156.0 L 156.5 155.0 L 159.0 154.5 L 161.5 154.0 L 163.5 154.0 L 164.5 155.5 L 165.0 157.5 L 165.0 160.5 L 164.5 164.0 L 163.5 167.5 L 162.5 170.5 L 162.0 171.5 L 161.5 172.0 " stroke="black" fill="none" stroke-width="6.0" stroke-linecap="round" stroke-linejoin="round" />
<path d="M 154.0 176.0 L 153.5 177.0 L 153.0 177.5 L 153.5 177.5 L 155.5 176.5 L 158.0 175.0 L 160.5 173.5 " stroke="black" fill="none" stroke-width="6.0" stroke-linecap="round" stroke-linejoin="round" />
<path d="M 173.5 152.5 L 173.5 153.0 L 173.5 154.0 L 173.0 155.5 L 173.0 158.5 L 173.5 162.5 L 174.0 167.0 L 174.5 169.5 L 174.5 170.0 " stroke="black" fill="none" stroke-width="6.0" stroke-linecap="round" stroke-linejoin="round" />
<path d="M 173.5 157.5 L 173.5 157.5 L 173.0 157.0 L 173.0 156.5 L 174.0 155.5 L 176.5 154.0 L 179.0 153.0 L 181.5 152.0 L 184.0 152.0 L 185.5 152.5 L 187.0 154.0 L 187.5 155.5 L 188.0 157.5 L 188.0 160.5 L 187.5 164.5 L 186.5 168.0 L 186.0 171.0 L 185.5 172.5 L 185.5 172.5 " stroke="black" fill="none" stroke-width="6.0" stroke-linecap="round" stroke-linejoin="round" />
<path d="M 177.5 173.5 L 177.5 174.0 L 178.0 174.5 L 178.5 174.5 L 180.0 174.5 L 182.5 174.0 L 185.0 173.5 L 186.0 173.5 " stroke="black" fill="none" stroke-width="6.0" stroke-linecap="round" stroke-linejoin="round" />
</svg>