<svg xmlns="http://www.w3.org/2000/svg" width="300" height="300" viewBox="0 0 300 300">
<path d="M 129.0 114.5 L 129.0 114.0 L 129.0 112.0 L 129.5 110.5 L 129.5 110.0 L 130.0 110.5 L 130.5 114.0 L 131.0 119.5 L 131.0 126.0 L 131.0 131.5 L 130.5 134.5 L 130.0 135.0 " stroke="black" fill="none" stroke-width="6.0" stroke-linecap="round" stroke-linejoin="round" />
<path d="M 119.5 124.0 L 119.5 124.0 L 118.5 124.0 L 118.0 124.0 L 119.5 124.0 L 123.5 124.0 L 129.0 123.5 L 135.0 121.5 L 141.0 120.0 L 146.0 120.0 " stroke="black" fill="none" stroke-width="6.0" stroke-linecap="round" stroke-linejoin="round" />
<path d="M 165.0 109.0 L 164.5 108.5 L 164.0 108.0 L 163.5 107.5 L 163.5 107.5 L 163.5 109.0 L 163.5 114.0 L 163.5 120.0 L 164.5 125.5 L 165.0 128.0 L 165.5 128.5 " stroke="black" fill="none" stroke-width="6.0" stroke-linecap="round" stroke-linejoin="round" />
<path d="M 154.0 123.0 L 153.0 123.0 L 152.0 122.5 L 152.0 122.5 L 154.0 122.0 L 158.5 121.0 L 165.5 119.5 L 171.5 118.5 L 175.0 118.5 L 175.5 118.5 " stroke="black" fill="none" stroke-width="6.0" stroke-linecap="round" stroke-linejoin="round" />
<path d="M 121.5 146.0 L 121.0 146.0 L 120.5 145.0 L 120.5 145.0 L 122.0 144.5 L 126.5 144.5 L 133.5 144.0 L 145.0 143.0 L 156.5 140.5 L 166.0 138.5 L 171.5 138.0 L 173.5 139.0 L 174.0 140.0 L 174.0 140.0 L 173.5 140.0 L 173.5 140.0 L 173.0 139.5 L 173.0 139.0 L 172.5 139.0 L 172.5 139.0 L 172.0 139.5 L 172.0 140.0 " stroke="black" fill="none" stroke-width="6.0" stroke-linecap="round" stroke-linejoin="round" />
<path d="M 146.0 135.5 L 146.0 135.0 L 145.5 133.5 L 145.5 132.5 L 145.5 132.5 L 145.5 133.5 L 145.0 137.5 L 143.5 144.5 L 139.0 154.0 L 132.5 163.5 L 127.5 169.5 L 124.5 172.0 L 124.0 172.0 L 124.5 172.0 L 125.5 172.0 " stroke="black" fill="none" stroke-width="6.0" stroke-linecap="round" stroke-linejoin="round" />
<path d="M 140.5 160.5 L 140.5 159.5 L 140.5 158.5 L 140.5 158.5 L 140.5 160.0 L 140.5 164.5 L 141.5 170.5 L 142.5 175.0 L 143.5 177.0 L 144.0 177.0 " stroke="black" fill="none" stroke-width="6.0" stroke-linecap="round" stroke-linejoin="round" />
<path d="M 141.5 159.0 L 140.5 159.0 L 139.5 159.0 L 139.5 158.5 L 140.0 158.0 L 144.0 157.0 L 149.5 156.0 L 156.0 155.0 L 162.0 155.0 L 167.5 155.0 L 170.0 154.5 L 171.0 154.5 L 171.0 154.5 L 171.0 154.5 L 170.5 154.5 L 170.0 155.0 L 169.5 156.5 L 168.5 159.0 L 167.5 163.0 L 167.0 167.5 L 166.5 171.0 L 166.5 173.5 L 166.5 174.5 L 166.5 174.5 " stroke="black" fill="none" stroke-width="6.0" stroke-linecap="round" stroke-linejoin="round" />
<path d="M 146.0 179.0 L 145.0 179.0 L 143.5 179.5 L 143.5 179.5 L 146.5 179.0 L 151.5 178.5 L 158.0 178.5 L 165.5 177.5 L 167.5 177.5 " stroke="black" fill="none" stroke-width="6.0" stroke-linecap="round" stroke-linejoin="round" />
</svg>