<svg xmlns="http://www.w3.org/2000/svg" width="300" height="300" viewBox="0 0 300 300">
<path d="M 132.0 108.5 L 132.0 108.0 L 132.0 107.5 L 132.5 107.5 L 133.0 108.0 L 134.0 111.5 L 135.0 118.0 L 135.0 124.5 L 135.5 129.5 L 135.0 131.0 " stroke="black" fill="none" stroke-width="6.0" stroke-linecap="round" stroke-linejoin="round" />
<path d="M 126.5 124.5 L 126.0 124.5 L 125.5 124.5 L 125.5 124.5 L 126.5 124.0 L 130.5 123.5 L 135.0 122.5 L 140.5 122.0 L 142.0 121.5 " stroke="black" fill="none" stroke-width="6.0" stroke-linecap="round" stroke-linejoin="round" />
<path d="M 161.5 107.0 L 161.5 107.0 L 161.5 106.5 L 161.0 106.5 L 161.0 107.5 L 161.5 111.5 L 162.0 117.5 L 162.0 123.5 L 162.0 127.0 " stroke="black" fill="none" stroke-width="6.0" stroke-linecap="round" stroke-linejoin="round" />
<path d="M 153.0 122.0 L 153.0 122.0 L 152.5 122.0 L 152.5 122.0 L 154.0 121.0 L 158.0 120.5 L 163.0 120.5 L 167.0 121.0 L 169.0 121.5 " stroke="black" fill="none" stroke-width="6.0" stroke-linecap="round" stroke-linejoin="round" />
<path d="M 127.0 147.0 L 127.0 147.0 L 126.5 146.5 L 126.5 146.5 L 129.5 146.0 L 136.5 145.5 L 147.5 145.0 L 159.0 144.0 L 168.5 142.0 L 172.5 141.0 L 173.0 141.0 L 171.0 141.5 L 170.5 141.5 " stroke="black" fill="none" stroke-width="6.0" stroke-linecap="round" stroke-linejoin="round" />
<path d="M 149.5 135.5 L 149.5 135.5 L 149.5 135.5 L 149.5 135.0 L 149.5 134.5 L 149.5 134.5 L 149.5 135.5 L 147.0 141.5 L 141.0 153.0 L 132.5 165.0 L 126.5 171.5 L 123.5 173.5 L 123.0 173.5 L 124.0 172.5 " stroke="black" fill="none" stroke-width="6.0" stroke-linecap="round" stroke-linejoin="round" />
<path d="M 142.5 160.0 L 142.5 160.0 L 142.5 160.0 L 142.0 160.0 L 141.5 160.5 L 141.5 164.0 L 142.0 171.0 L 143.5 177.5 L 144.5 180.5 L 144.5 180.0 " stroke="black" fill="none" stroke-width="6.0" stroke-linecap="round" stroke-linejoin="round" />
<path d="M 140.5 164.0 L 139.5 164.5 L 139.0 164.5 L 139.0 165.0 L 141.0 164.0 L 145.5 163.0 L 151.5 161.5 L 158.0 159.5 L 165.0 158.0 L 169.0 157.0 L 170.0 157.5 L 170.0 159.5 L 169.0 162.0 L 168.5 164.5 L 168.5 168.0 L 168.0 171.5 L 167.5 174.5 L 166.5 177.0 L 166.5 178.0 " stroke="black" fill="none" stroke-width="6.0" stroke-linecap="round" stroke-linejoin="round" />
<path d="M 148.5 183.5 L 147.0 184.0 L 146.5 184.0 L 148.5 184.0 L 152.5 183.5 L 158.5 182.0 L 164.5 181.0 L 170.0 180.0 L 171.5 179.5 " stroke="black" fill="none" stroke-width="6.0" stroke-linecap="round" stroke-linejoin="round" />
</svg>