<svg xmlns="http://www.w3.org/2000/svg" width="300" height="300" viewBox="0 0 300 300">
<path d="M 129.0 119.0 L 127.5 119.0 L 127.5 118.5 L 128.0 118.5 L 132.0 118.5 L 138.0 118.0 L 145.5 118.0 L 154.0 118.5 L 162.0 118.5 L 169.0 118.0 L 172.5 117.5 L 172.5 117.5 L 172.0 117.5 L 171.5 117.5 " stroke="black" fill="none" stroke-width="6.0" stroke-linecap="round" stroke-linejoin="round" />
<path d="M 135.0 137.0 L 135.0 137.0 L 135.0 136.5 L 135.5 136.0 L 135.5 135.5 L 135.5 137.5 L 135.5 143.0 L 135.5 150.5 L 135.0 156.5 L 135.0 158.5 L 135.5 156.0 " stroke="black" fill="none" stroke-width="6.0" stroke-linecap="round" stroke-linejoin="round" />
<path d="M 135.5 138.5 L 135.5 138.5 L 135.0 138.0 L 135.0 138.0 L 137.0 138.0 L 141.0 137.5 L 145.0 137.0 L 149.0 137.0 L 151.5 136.5 L 153.0 137.0 L 153.5 138.5 L 154.0 141.0 L 154.0 144.0 L 153.0 146.5 L 152.5 149.0 L 151.5 150.0 L 151.0 150.5 " stroke="black" fill="none" stroke-width="6.0" stroke-linecap="round" stroke-linejoin="round" />
<path d="M 140.5 158.0 L 139.5 158.0 L 138.5 158.0 L 138.5 158.0 L 141.0 158.0 L 145.0 158.0 L 149.0 158.0 L 153.0 157.5 L 153.5 157.0 " stroke="black" fill="none" stroke-width="6.0" stroke-linecap="round" stroke-linejoin="round" />
<path d="M 163.5 124.5 L 163.5 124.5 L 163.0 125.0 L 162.5 125.0 L 162.5 126.0 L 163.0 135.0 L 163.5 145.5 L 162.5 158.0 L 162.5 169.0 L 162.5 176.0 L 162.5 181.5 L 162.5 186.0 L 161.5 188.5 L 160.5 189.5 L 159.0 189.5 L 157.5 188.5 L 155.0 186.5 L 152.5 184.5 L 151.0 183.0 " stroke="black" fill="none" stroke-width="6.0" stroke-linecap="round" stroke-linejoin="round" />
</svg>