<svg xmlns="http://www.w3.org/2000/svg" width="300" height="300" viewBox="0 0 300 300">
<path d="M 125.0 110.0 L 124.5 110.0 L 123.0 110.5 L 123.0 110.5 L 123.5 110.0 L 126.5 109.0 L 130.5 108.5 L 133.5 108.0 L 136.5 108.0 L 137.0 109.0 L 137.0 111.5 L 134.5 115.0 L 131.5 119.0 L 130.0 121.5 L 129.5 122.5 L 129.5 122.5 L 130.5 123.0 L 132.5 123.5 L 134.5 125.0 L 136.0 127.5 L 137.0 131.5 L 137.0 136.0 L 135.5 140.0 L 133.5 142.5 L 131.5 143.0 L 129.5 141.5 L 128.5 138.5 L 127.5 136.0 L 127.0 134.0 " stroke="black" fill="none" stroke-width="7.0" stroke-linecap="round" stroke-linejoin="round" />
<path d="M 121.5 112.0 L 121.5 111.5 L 121.0 111.0 L 121.0 110.5 L 121.0 111.0 L 121.5 116.0 L 122.0 127.0 L 122.5 143.5 L 122.5 158.0 L 123.0 166.0 L 124.0 169.0 L 124.5 169.0 " stroke="black" fill="none" stroke-width="7.0" stroke-linecap="round" stroke-linejoin="round" />
<path d="M 154.5 106.0 L 155.0 106.0 L 155.5 106.0 L 156.0 106.0 L 156.0 106.0 L 156.0 106.5 L 155.5 111.0 L 155.0 122.5 L 155.0 123.5 L 155.0 123.5 " stroke="black" fill="none" stroke-width="7.0" stroke-linecap="round" stroke-linejoin="round" />
<path d="M 156.5 107.0 L 156.5 107.0 L 156.5 107.5 L 156.5 107.5 L 156.5 107.5 L 156.5 107.5 L 158.5 107.5 L 162.0 106.5 L 166.0 106.0 L 170.0 106.0 L 173.0 106.0 L 175.0 107.5 L 176.0 109.5 L 176.0 112.5 L 176.0 116.0 L 175.0 119.5 L 174.5 122.0 L 174.0 123.5 L 173.5 124.5 L 173.5 124.5 " stroke="black" fill="none" stroke-width="7.0" stroke-linecap="round" stroke-linejoin="round" />
<path d="M 158.5 119.5 L 158.5 119.5 L 158.5 119.5 L 158.5 119.5 L 159.5 119.0 L 162.0 118.5 L 166.0 118.0 L 170.0 117.5 L 172.0 117.0 L 172.5 117.0 " stroke="black" fill="none" stroke-width="7.0" stroke-linecap="round" stroke-linejoin="round" />
<path d="M 156.5 128.5 L 156.5 128.5 L 156.0 128.5 L 156.0 128.5 L 158.0 128.5 L 162.0 128.5 L 166.5 128.0 L 168.5 128.0 " stroke="black" fill="none" stroke-width="7.0" stroke-linecap="round" stroke-linejoin="round" />
<path d="M 150.5 137.5 L 150.0 137.5 L 150.0 137.5 L 150.0 137.5 L 151.0 137.5 L 155.5 137.0 L 163.0 136.5 L 171.0 136.5 L 176.5 137.5 L 177.5 138.5 " stroke="black" fill="none" stroke-width="7.0" stroke-linecap="round" stroke-linejoin="round" />
<path d="M 152.5 148.0 L 153.0 146.5 L 153.5 146.0 L 153.5 146.0 L 153.5 146.0 L 153.0 148.0 L 152.0 151.5 L 151.0 154.5 L 150.0 157.0 L 149.0 158.0 " stroke="black" fill="none" stroke-width="7.0" stroke-linecap="round" stroke-linejoin="round" />
<path d="M 153.0 151.5 L 154.5 151.5 L 156.0 151.5 L 157.5 151.0 L 160.5 150.0 L 165.0 149.5 L 171.0 148.5 L 176.0 148.5 L 179.0 148.5 L 180.0 150.5 L 180.0 154.0 L 179.5 159.5 L 179.5 165.5 L 179.5 171.5 L 179.5 177.0 L 178.5 182.5 L 176.0 186.0 L 174.0 187.5 L 171.5 187.0 L 169.0 183.5 L 167.0 180.0 L 166.5 179.5 " stroke="black" fill="none" stroke-width="7.0" stroke-linecap="round" stroke-linejoin="round" />
<path d="M 163.0 152.0 L 163.0 152.0 L 163.5 152.0 L 164.0 152.0 L 164.0 152.0 L 164.5 152.0 L 164.5 155.0 L 162.0 161.0 L 159.0 167.0 L 156.0 171.0 L 154.5 170.5 L 154.5 169.0 " stroke="black" fill="none" stroke-width="7.0" stroke-linecap="round" stroke-linejoin="round" />
<path d="M 172.5 152.0 L 172.5 153.5 L 172.5 155.0 L 172.5 158.0 L 170.5 164.0 L 166.5 173.5 L 161.5 181.0 L 157.5 184.5 L 154.5 184.5 " stroke="black" fill="none" stroke-width="7.0" stroke-linecap="round" stroke-linejoin="round" />
</svg>