<svg xmlns="http://www.w3.org/2000/svg" width="300" height="300" viewBox="0 0 300 300">
<path d="M 120.5 123.5 L 120.5 123.5 L 120.0 123.0 L 120.0 123.0 L 122.0 122.5 L 125.5 122.5 L 129.0 122.5 L 132.5 123.5 L 134.0 124.5 L 134.0 126.0 L 132.0 128.0 L 129.5 129.5 L 127.5 130.5 L 126.5 131.0 L 127.0 132.0 L 128.5 133.5 L 130.5 136.0 L 133.0 139.0 L 134.5 143.0 L 135.0 146.5 L 134.5 148.5 L 133.0 149.5 L 131.0 149.5 L 128.5 149.0 L 126.0 147.5 L 124.0 145.5 " stroke="black" fill="none" stroke-width="6.0" stroke-linecap="round" stroke-linejoin="round" />
<path d="M 119.5 126.5 L 119.5 126.5 L 119.0 126.0 L 119.0 125.5 L 119.0 125.5 L 119.0 128.0 L 120.0 135.5 L 120.5 150.0 L 121.0 166.0 L 121.5 177.5 L 122.0 184.5 L 122.0 187.5 L 122.5 188.0 L 122.5 187.5 L 122.5 186.5 " stroke="black" fill="none" stroke-width="6.0" stroke-linecap="round" stroke-linejoin="round" />
<path d="M 150.0 121.0 L 150.0 120.0 L 150.5 119.0 L 150.5 119.0 L 151.0 120.5 L 151.5 125.5 L 151.5 133.5 L 151.0 141.0 L 151.0 146.5 L 151.0 147.5 L 151.0 144.5 " stroke="black" fill="none" stroke-width="6.0" stroke-linecap="round" stroke-linejoin="round" />
<path d="M 152.0 122.0 L 152.0 122.0 L 152.0 121.5 L 152.0 121.0 L 152.0 121.0 L 153.0 121.0 L 156.0 121.0 L 160.0 120.0 L 165.5 119.0 L 169.5 118.5 L 171.0 118.5 L 171.0 118.5 L 171.0 119.0 L 171.0 119.0 L 171.5 120.0 L 171.5 122.0 L 171.5 125.0 L 171.5 130.0 L 171.0 136.5 L 171.0 141.5 L 171.0 143.5 L 171.0 144.0 L 171.0 143.5 " stroke="black" fill="none" stroke-width="6.0" stroke-linecap="round" stroke-linejoin="round" />
<path d="M 157.5 132.0 L 157.5 132.0 L 157.0 133.0 L 157.0 133.5 L 158.5 133.5 L 161.5 133.5 L 165.5 132.5 L 168.0 132.0 L 169.5 132.0 " stroke="black" fill="none" stroke-width="6.0" stroke-linecap="round" stroke-linejoin="round" />
<path d="M 155.0 145.5 L 155.0 145.5 L 155.5 145.5 L 156.0 145.0 L 158.0 145.0 L 162.0 144.5 L 166.0 143.5 L 167.0 143.5 " stroke="black" fill="none" stroke-width="6.0" stroke-linecap="round" stroke-linejoin="round" />
<path d="M 148.5 155.5 L 149.0 155.5 L 150.0 155.5 L 153.0 155.5 L 158.0 154.5 L 166.0 154.0 L 173.0 154.0 L 177.0 154.0 L 178.5 154.0 L 177.5 153.5 L 177.0 153.0 " stroke="black" fill="none" stroke-width="6.0" stroke-linecap="round" stroke-linejoin="round" />
<path d="M 148.5 165.5 L 149.5 164.0 L 150.0 163.0 L 150.5 163.0 L 151.0 163.0 L 150.5 165.0 L 149.5 168.0 L 148.0 171.5 L 147.0 174.0 L 146.5 175.0 " stroke="black" fill="none" stroke-width="6.0" stroke-linecap="round" stroke-linejoin="round" />
<path d="M 152.5 166.5 L 153.0 166.0 L 153.0 166.0 L 153.5 165.5 L 155.5 165.5 L 159.0 165.5 L 164.5 166.0 L 170.5 166.5 L 175.0 166.5 L 178.0 166.0 L 178.5 166.0 L 178.0 166.0 L 177.5 166.5 L 177.5 167.5 L 177.5 169.0 L 177.0 171.0 L 177.0 175.0 L 177.0 179.5 L 177.0 184.0 L 177.5 188.5 L 177.0 192.0 L 175.5 195.5 L 174.0 198.5 L 172.0 199.5 L 170.0 200.0 L 166.5 198.5 L 164.0 196.5 " stroke="black" fill="none" stroke-width="6.0" stroke-linecap="round" stroke-linejoin="round" />
<path d="M 162.0 167.5 L 163.0 167.0 L 163.5 166.5 L 163.5 167.5 L 162.0 171.0 L 160.0 175.5 L 157.5 180.0 L 155.5 182.0 L 154.5 182.0 " stroke="black" fill="none" stroke-width="6.0" stroke-linecap="round" stroke-linejoin="round" />
<path d="M 169.5 167.0 L 169.5 167.0 L 170.0 167.0 L 170.5 168.0 L 170.5 170.0 L 169.5 175.5 L 166.0 183.0 L 161.5 189.5 L 158.5 192.0 L 157.0 192.0 " stroke="black" fill="none" stroke-width="6.0" stroke-linecap="round" stroke-linejoin="round" />
</svg>