<svg xmlns="http://www.w3.org/2000/svg" width="300" height="300" viewBox="0 0 300 300">
<path d="M 130.5 110.5 L 131.0 111.0 L 131.5 111.5 L 131.5 112.0 L 131.5 112.5 L 131.0 116.0 L 128.0 122.5 L 123.0 130.0 L 118.0 136.0 L 114.5 138.5 L 113.5 139.0 L 113.5 138.5 L 113.5 138.0 " stroke="black" fill="none" stroke-width="6.0" stroke-linecap="round" stroke-linejoin="round" />
<path d="M 124.0 129.0 L 124.0 129.0 L 124.0 129.5 L 124.0 130.0 L 124.5 131.5 L 126.0 137.0 L 126.5 148.0 L 127.0 160.0 L 127.0 168.5 L 127.0 170.5 L 127.5 169.5 " stroke="black" fill="none" stroke-width="6.0" stroke-linecap="round" stroke-linejoin="round" />
<path d="M 139.5 129.0 L 139.5 129.5 L 139.5 130.0 L 139.5 130.5 L 139.5 133.5 L 140.0 141.5 L 140.0 150.5 L 140.5 156.0 L 140.5 157.0 " stroke="black" fill="none" stroke-width="6.0" stroke-linecap="round" stroke-linejoin="round" />
<path d="M 153.5 111.5 L 154.0 111.5 L 154.5 112.0 L 154.5 112.0 L 154.5 112.5 L 154.5 115.5 L 153.0 122.5 L 151.0 129.5 L 150.0 133.0 L 150.0 133.5 " stroke="black" fill="none" stroke-width="6.0" stroke-linecap="round" stroke-linejoin="round" />
<path d="M 155.0 123.0 L 155.0 123.0 L 154.5 122.5 L 154.5 122.5 L 154.5 122.5 L 156.0 122.5 L 160.0 122.0 L 165.5 121.5 L 172.0 120.5 L 176.5 120.0 L 178.0 119.5 L 177.5 119.5 L 176.5 119.5 " stroke="black" fill="none" stroke-width="6.0" stroke-linecap="round" stroke-linejoin="round" />
<path d="M 170.0 125.0 L 170.5 125.0 L 171.5 124.5 L 172.0 124.5 L 172.5 124.5 L 172.5 124.5 L 172.5 126.5 L 170.5 132.0 L 166.5 142.0 L 161.5 152.0 L 157.5 158.5 L 155.5 161.0 L 155.0 161.5 L 154.0 160.5 L 153.5 160.0 " stroke="black" fill="none" stroke-width="6.0" stroke-linecap="round" stroke-linejoin="round" />
<path d="M 157.0 138.5 L 157.0 137.5 L 157.0 137.0 L 157.0 137.5 L 159.5 140.0 L 164.5 145.0 L 170.5 149.5 L 176.0 151.5 L 179.5 152.0 L 181.5 151.0 " stroke="black" fill="none" stroke-width="6.0" stroke-linecap="round" stroke-linejoin="round" />
<path d="M 133.0 179.0 L 134.0 179.0 L 134.5 179.0 L 134.5 179.0 L 133.5 180.0 L 130.5 183.0 L 127.0 186.5 L 124.0 189.5 L 123.5 191.0 " stroke="black" fill="none" stroke-width="6.0" stroke-linecap="round" stroke-linejoin="round" />
<path d="M 144.5 177.0 L 143.5 177.0 L 143.0 177.0 L 142.5 177.0 L 142.5 178.0 L 143.0 180.5 L 144.5 185.0 L 147.0 189.5 L 152.5 193.5 L 160.0 194.5 L 168.5 193.5 L 174.0 191.0 L 176.0 189.0 L 176.5 188.5 L 175.5 187.5 L 174.5 187.0 L 173.5 186.5 L 173.0 186.0 L 173.0 186.0 L 173.0 186.0 " stroke="black" fill="none" stroke-width="6.0" stroke-linecap="round" stroke-linejoin="round" />
<path d="M 153.5 175.0 L 153.5 175.0 L 153.5 176.0 L 153.5 176.5 L 154.5 176.5 L 156.0 177.5 L 158.0 178.5 L 159.5 179.5 L 160.5 179.5 " stroke="black" fill="none" stroke-width="6.0" stroke-linecap="round" stroke-linejoin="round" />
<path d="M 172.5 170.5 L 173.0 171.5 L 173.5 172.0 L 174.0 172.5 L 176.0 173.0 L 178.5 174.5 L 180.5 176.0 L 182.5 178.0 L 183.0 178.5 " stroke="black" fill="none" stroke-width="6.0" stroke-linecap="round" stroke-linejoin="round" />
</svg>