<svg xmlns="http://www.w3.org/2000/svg" width="300" height="300" viewBox="0 0 300 300">
<path d="M 139.5 113.5 L 139.0 114.0 L 139.0 114.0 L 138.5 114.5 L 138.5 114.5 L 138.0 115.0 L 136.5 118.0 L 133.0 124.0 L 128.0 130.5 L 124.5 134.5 L 124.0 135.5 L 124.0 134.5 " stroke="black" fill="none" stroke-width="6.0" stroke-linecap="round" stroke-linejoin="round" />
<path d="M 131.0 128.0 L 131.5 127.5 L 132.0 127.5 L 132.5 127.0 L 132.5 127.0 L 133.5 129.0 L 134.0 133.5 L 134.0 143.5 L 134.0 155.0 L 134.0 161.5 L 134.0 162.5 L 134.0 161.5 " stroke="black" fill="none" stroke-width="6.0" stroke-linecap="round" stroke-linejoin="round" />
<path d="M 145.0 124.5 L 145.5 124.5 L 145.5 124.5 L 145.5 124.5 L 146.0 125.5 L 146.0 131.5 L 146.5 142.5 L 146.5 151.5 L 146.5 155.0 L 146.5 155.0 " stroke="black" fill="none" stroke-width="6.0" stroke-linecap="round" stroke-linejoin="round" />
<path d="M 159.5 105.5 L 159.5 105.0 L 159.5 104.5 L 159.0 104.5 L 159.0 104.5 L 157.5 107.5 L 155.0 114.5 L 152.0 122.0 L 150.5 125.5 " stroke="black" fill="none" stroke-width="6.0" stroke-linecap="round" stroke-linejoin="round" />
<path d="M 158.0 116.0 L 158.0 116.0 L 158.0 116.5 L 158.5 116.5 L 161.0 116.5 L 166.0 115.0 L 172.0 113.5 L 177.0 113.0 L 179.5 112.5 L 179.5 112.5 L 179.5 112.5 " stroke="black" fill="none" stroke-width="6.0" stroke-linecap="round" stroke-linejoin="round" />
<path d="M 172.0 118.0 L 173.5 118.0 L 174.0 118.0 L 174.0 118.0 L 173.5 119.0 L 172.0 124.0 L 168.0 134.5 L 162.0 145.5 L 157.5 153.5 L 155.5 155.5 L 155.0 153.5 " stroke="black" fill="none" stroke-width="6.0" stroke-linecap="round" stroke-linejoin="round" />
<path d="M 158.0 129.5 L 158.0 129.5 L 158.0 130.0 L 158.5 130.5 L 162.5 132.5 L 168.5 138.0 L 175.5 145.0 L 180.5 149.5 L 184.0 151.0 L 186.0 152.0 L 186.0 152.0 " stroke="black" fill="none" stroke-width="6.0" stroke-linecap="round" stroke-linejoin="round" />
<path d="M 134.0 173.5 L 134.0 173.5 L 134.5 173.0 L 134.5 172.5 L 134.5 172.5 L 133.5 174.5 L 131.5 178.0 L 129.5 181.5 L 128.5 184.0 L 128.0 184.5 " stroke="black" fill="none" stroke-width="6.0" stroke-linecap="round" stroke-linejoin="round" />
<path d="M 145.5 172.5 L 145.5 172.5 L 145.5 172.5 L 146.0 172.5 L 146.0 173.0 L 146.5 173.5 L 146.5 175.0 L 147.5 178.0 L 149.5 181.0 L 152.5 184.0 L 157.0 186.0 L 163.0 186.0 L 167.5 184.0 L 169.5 182.5 L 169.5 181.5 L 169.0 180.5 L 168.0 179.5 L 167.5 179.0 " stroke="black" fill="none" stroke-width="6.0" stroke-linecap="round" stroke-linejoin="round" />
<path d="M 158.5 169.5 L 158.5 169.5 L 157.5 169.5 L 157.0 169.5 L 157.0 169.5 L 158.0 170.0 L 161.0 171.0 L 163.5 172.0 L 164.5 172.0 " stroke="black" fill="none" stroke-width="6.0" stroke-linecap="round" stroke-linejoin="round" />
<path d="M 178.5 169.0 L 178.5 169.5 L 179.0 170.0 L 180.0 170.5 L 182.0 172.0 L 184.5 175.5 L 187.0 179.0 L 188.5 182.0 L 188.5 182.5 " stroke="black" fill="none" stroke-width="6.0" stroke-linecap="round" stroke-linejoin="round" />
</svg>