<svg xmlns="http://www.w3.org/2000/svg" width="300" height="300" viewBox="0 0 300 300">
<path d="M 128.5 125.5 L 128.0 125.0 L 128.0 124.5 L 127.5 124.0 L 127.5 124.5 L 128.5 128.0 L 129.5 134.5 L 130.0 145.5 L 130.0 157.0 L 130.0 164.0 L 130.0 165.0 L 130.0 162.0 L 130.0 157.5 " stroke="black" fill="none" stroke-width="6.0" stroke-linecap="round" stroke-linejoin="round" />
<path d="M 131.0 127.5 L 130.0 127.5 L 129.0 127.5 L 129.0 127.5 L 129.5 127.5 L 132.0 127.0 L 136.0 125.5 L 139.0 124.5 L 142.0 124.5 L 143.5 124.5 L 144.5 125.0 L 144.5 127.0 L 144.5 131.0 L 144.5 137.5 L 144.5 147.0 L 144.5 156.0 L 144.5 161.5 L 145.0 163.5 L 145.0 163.5 L 144.5 162.5 L 144.5 161.0 " stroke="black" fill="none" stroke-width="6.0" stroke-linecap="round" stroke-linejoin="round" />
<path d="M 134.0 141.5 L 133.5 142.0 L 133.5 142.5 L 133.5 143.0 L 135.0 143.0 L 137.5 142.5 L 140.0 142.0 L 142.5 141.5 L 143.0 141.5 " stroke="black" fill="none" stroke-width="6.0" stroke-linecap="round" stroke-linejoin="round" />
<path d="M 135.0 152.0 L 135.0 152.5 L 134.0 153.5 L 134.5 153.5 L 136.0 153.5 L 138.5 153.5 L 141.0 153.5 L 143.0 153.5 " stroke="black" fill="none" stroke-width="6.0" stroke-linecap="round" stroke-linejoin="round" />
<path d="M 130.5 170.0 L 130.5 170.0 L 129.0 170.5 L 129.0 171.0 L 131.0 171.0 L 134.0 170.0 L 138.0 169.0 L 140.5 168.0 L 143.0 168.0 " stroke="black" fill="none" stroke-width="6.0" stroke-linecap="round" stroke-linejoin="round" />
<path d="M 134.5 178.0 L 134.5 178.0 L 134.5 178.0 L 134.5 179.0 L 134.0 181.0 L 132.0 185.0 L 129.5 190.0 L 128.5 193.0 L 127.5 194.0 " stroke="black" fill="none" stroke-width="6.0" stroke-linecap="round" stroke-linejoin="round" />
<path d="M 145.0 179.0 L 145.5 179.5 L 146.0 180.0 L 147.5 181.0 L 149.5 182.5 L 151.0 183.5 " stroke="black" fill="none" stroke-width="6.0" stroke-linecap="round" stroke-linejoin="round" />
<path d="M 158.5 132.0 L 158.5 132.0 L 158.5 132.5 L 158.5 132.5 L 159.0 135.0 L 161.0 142.0 L 162.5 152.0 L 163.0 158.0 L 163.0 159.0 " stroke="black" fill="none" stroke-width="6.0" stroke-linecap="round" stroke-linejoin="round" />
<path d="M 164.5 125.5 L 164.5 125.0 L 164.0 125.0 L 164.0 124.5 L 165.0 125.0 L 166.5 127.5 L 167.5 133.0 L 168.5 143.5 L 169.5 158.0 L 171.0 170.5 L 172.0 178.0 L 172.5 183.0 L 172.5 186.0 L 171.5 188.0 L 170.0 188.5 L 168.5 188.5 L 167.0 187.0 L 166.5 186.5 " stroke="black" fill="none" stroke-width="6.0" stroke-linecap="round" stroke-linejoin="round" />
</svg>