<svg xmlns="http://www.w3.org/2000/svg" width="300" height="300" viewBox="0 0 300 300">
<path d="M 128.5 120.5 L 128.5 120.5 L 128.5 119.5 L 129.0 119.5 L 129.0 119.0 L 129.5 121.0 L 130.5 128.0 L 130.5 139.5 L 130.5 152.0 L 130.5 158.5 L 130.5 159.5 L 130.5 157.5 L 130.5 156.5 " stroke="black" fill="none" stroke-width="6.0" stroke-linecap="round" stroke-linejoin="round" />
<path d="M 131.5 119.0 L 131.5 119.0 L 131.5 119.0 L 131.0 119.0 L 130.5 119.0 L 131.0 119.0 L 133.0 119.5 L 136.5 119.5 L 141.0 120.0 L 145.0 120.5 L 147.5 121.5 L 148.5 122.0 L 148.5 123.0 L 148.5 125.0 L 148.0 128.5 L 147.0 134.5 L 146.0 142.0 L 146.0 150.0 L 146.0 157.0 L 146.0 159.5 L 146.0 160.0 L 146.0 159.5 L 146.0 158.0 " stroke="black" fill="none" stroke-width="6.0" stroke-linecap="round" stroke-linejoin="round" />
<path d="M 130.5 134.0 L 130.5 134.5 L 130.5 135.0 L 130.5 135.5 L 131.5 135.5 L 133.5 135.5 L 137.0 135.5 L 140.0 134.5 L 142.0 133.5 L 143.0 133.5 " stroke="black" fill="none" stroke-width="6.0" stroke-linecap="round" stroke-linejoin="round" />
<path d="M 134.5 143.0 L 134.0 144.5 L 133.0 145.5 L 132.5 146.0 L 133.0 146.5 L 135.0 146.5 L 137.5 146.0 L 139.5 145.5 L 141.5 145.0 L 143.0 145.0 " stroke="black" fill="none" stroke-width="6.0" stroke-linecap="round" stroke-linejoin="round" />
<path d="M 131.5 159.5 L 132.5 160.0 L 133.0 160.5 L 133.5 160.5 L 135.0 160.5 L 137.5 160.0 L 141.0 159.5 L 143.5 158.5 L 145.5 158.5 " stroke="black" fill="none" stroke-width="6.0" stroke-linecap="round" stroke-linejoin="round" />
<path d="M 131.0 173.0 L 131.5 173.0 L 132.0 173.0 L 131.0 174.0 L 127.5 177.0 L 124.0 181.0 L 121.5 183.0 L 121.5 183.5 " stroke="black" fill="none" stroke-width="6.0" stroke-linecap="round" stroke-linejoin="round" />
<path d="M 142.5 169.5 L 143.0 169.0 L 143.5 168.5 L 144.5 168.5 L 146.5 169.0 L 149.0 170.5 L 151.5 171.5 L 152.0 171.5 " stroke="black" fill="none" stroke-width="6.0" stroke-linecap="round" stroke-linejoin="round" />
<path d="M 162.0 130.0 L 162.0 130.0 L 162.0 130.0 L 162.0 130.0 L 162.0 131.5 L 162.0 138.0 L 162.0 147.5 L 162.0 153.5 L 162.5 155.0 " stroke="black" fill="none" stroke-width="6.0" stroke-linecap="round" stroke-linejoin="round" />
<path d="M 172.0 118.0 L 172.0 118.0 L 172.0 118.5 L 171.5 118.5 L 171.5 119.5 L 172.0 122.0 L 172.5 128.5 L 173.5 139.0 L 173.5 152.0 L 173.5 162.5 L 173.5 170.0 L 173.5 174.5 L 172.5 177.0 L 170.5 178.5 L 168.5 178.5 L 166.5 177.5 L 165.5 176.0 L 165.5 175.5 " stroke="black" fill="none" stroke-width="6.0" stroke-linecap="round" stroke-linejoin="round" />
</svg>