<svg xmlns="http://www.w3.org/2000/svg" width="300" height="300" viewBox="0 0 300 300">
<path d="M 130.5 111.0 L 130.5 111.0 L 130.5 111.0 L 131.0 111.0 L 131.0 111.0 L 131.0 111.5 L 131.0 114.0 L 130.0 119.5 L 127.5 128.5 L 123.5 138.5 L 121.0 146.5 L 119.5 150.0 L 119.0 151.0 L 119.0 151.0 L 119.0 150.5 L 121.0 150.0 L 124.0 149.5 L 128.0 148.5 L 131.5 148.0 L 134.5 147.0 L 136.5 146.0 L 137.0 145.5 " stroke="black" fill="none" stroke-width="6.0" stroke-linecap="round" stroke-linejoin="round" />
<path d="M 139.0 128.0 L 139.0 128.0 L 139.0 128.0 L 139.0 128.0 L 139.0 129.0 L 138.5 132.5 L 136.0 139.5 L 132.5 149.0 L 128.5 158.0 L 125.0 164.0 L 123.0 167.5 L 121.5 169.5 L 121.0 169.5 L 121.0 169.5 L 121.0 169.0 L 122.5 168.5 L 125.0 167.5 L 129.0 165.5 L 133.5 163.5 L 137.0 162.0 L 140.0 161.0 L 142.5 160.5 L 142.5 160.5 " stroke="black" fill="none" stroke-width="6.0" stroke-linecap="round" stroke-linejoin="round" />
<path d="M 144.0 152.5 L 143.5 152.5 L 142.5 152.5 L 142.5 152.5 L 143.0 154.0 L 144.5 156.5 L 146.0 160.0 L 147.0 163.5 " stroke="black" fill="none" stroke-width="6.0" stroke-linecap="round" stroke-linejoin="round" />
<path d="M 125.5 180.5 L 125.5 180.5 L 125.5 180.5 L 125.5 180.5 L 125.5 180.5 L 125.0 182.0 L 125.0 185.0 L 124.5 188.5 L 124.5 190.0 " stroke="black" fill="none" stroke-width="6.0" stroke-linecap="round" stroke-linejoin="round" />
<path d="M 132.5 178.5 L 134.0 178.5 L 134.5 178.5 L 135.0 178.5 L 136.0 181.0 L 137.0 183.5 L 138.0 185.5 L 138.5 185.5 " stroke="black" fill="none" stroke-width="6.0" stroke-linecap="round" stroke-linejoin="round" />
<path d="M 143.5 174.0 L 143.5 174.0 L 143.0 174.5 L 143.0 174.5 L 143.5 175.5 L 144.5 176.5 L 145.5 178.5 L 146.5 179.0 " stroke="black" fill="none" stroke-width="6.0" stroke-linecap="round" stroke-linejoin="round" />
<path d="M 151.0 114.5 L 151.0 115.0 L 151.5 115.0 L 153.5 115.0 L 158.0 113.5 L 164.0 113.0 L 168.0 112.5 L 171.0 112.5 L 171.5 112.5 " stroke="black" fill="none" stroke-width="6.0" stroke-linecap="round" stroke-linejoin="round" />
<path d="M 151.0 135.0 L 151.0 136.0 L 151.0 136.5 L 151.5 136.5 L 153.5 136.0 L 157.5 135.0 L 163.0 134.0 L 168.0 133.0 L 171.5 133.0 L 173.0 133.0 " stroke="black" fill="none" stroke-width="6.0" stroke-linecap="round" stroke-linejoin="round" />
<path d="M 161.5 118.0 L 161.5 118.0 L 161.5 118.0 L 161.5 118.0 L 161.0 118.5 L 161.0 121.5 L 162.5 129.5 L 164.0 140.5 L 164.5 151.0 L 165.0 159.5 L 166.0 165.5 L 166.5 169.5 L 166.5 173.0 L 166.5 174.5 L 166.0 175.0 L 164.5 175.0 L 163.0 174.5 L 162.0 174.0 L 161.5 173.5 " stroke="black" fill="none" stroke-width="6.0" stroke-linecap="round" stroke-linejoin="round" />
</svg>