<svg xmlns="http://www.w3.org/2000/svg" width="300" height="300" viewBox="0 0 300 300">
<path d="M 129.0 122.5 L 128.5 122.5 L 128.0 122.5 L 128.0 122.5 L 129.0 122.5 L 132.5 122.5 L 137.5 122.0 L 145.0 120.5 L 154.5 118.5 L 164.0 116.0 L 169.0 114.5 L 171.0 114.0 L 170.5 114.0 L 170.0 114.0 L 170.0 114.0 L 170.0 114.0 L 169.5 114.0 " stroke="black" fill="none" stroke-width="6.0" stroke-linecap="round" stroke-linejoin="round" />
<path d="M 151.0 103.0 L 151.0 103.0 L 151.0 102.5 L 151.5 102.5 L 151.5 102.5 L 151.5 104.5 L 152.0 112.0 L 152.0 125.0 L 151.5 136.0 L 151.5 140.0 L 151.5 140.5 L 151.5 139.0 " stroke="black" fill="none" stroke-width="6.0" stroke-linecap="round" stroke-linejoin="round" />
<path d="M 148.0 126.0 L 148.5 126.0 L 149.0 126.0 L 149.0 126.0 L 149.0 127.0 L 147.5 129.0 L 143.5 134.0 L 138.5 139.0 L 134.0 142.5 L 132.5 143.5 L 132.5 143.5 " stroke="black" fill="none" stroke-width="6.0" stroke-linecap="round" stroke-linejoin="round" />
<path d="M 151.5 127.5 L 151.5 127.5 L 151.0 127.5 L 151.5 128.0 L 154.5 128.5 L 160.0 130.0 L 167.0 132.0 L 173.0 134.5 L 175.5 135.0 L 176.5 135.5 L 176.5 135.5 " stroke="black" fill="none" stroke-width="6.0" stroke-linecap="round" stroke-linejoin="round" />
<path d="M 138.5 152.0 L 138.5 152.0 L 138.5 152.0 L 138.0 152.0 L 139.0 152.0 L 143.5 151.0 L 149.5 149.5 L 154.5 148.5 L 158.0 148.0 L 159.5 147.5 L 159.5 147.5 L 159.5 147.5 L 159.5 147.5 L 159.0 147.5 L 159.0 147.5 L 159.0 147.5 L 159.0 148.0 L 159.0 148.5 L 159.0 149.0 L 158.5 150.0 L 157.5 152.0 L 155.5 155.0 L 153.5 157.5 L 152.5 159.5 L 152.0 160.5 L 152.0 160.5 L 152.5 160.5 L 154.0 160.5 L 155.5 160.5 L 157.5 161.0 L 159.0 163.0 L 160.0 166.5 L 160.5 172.0 L 160.0 178.5 L 158.5 185.0 L 157.0 191.5 L 155.5 195.5 L 154.5 197.0 L 153.5 197.0 L 151.5 196.5 L 149.0 194.0 L 147.0 191.5 L 145.0 190.0 L 145.0 189.5 " stroke="black" fill="none" stroke-width="6.0" stroke-linecap="round" stroke-linejoin="round" />
<path d="M 137.0 170.0 L 136.0 170.5 L 133.5 171.0 L 132.5 171.0 L 133.0 171.0 L 139.0 170.0 L 149.5 169.0 L 162.0 168.5 L 173.0 167.5 L 178.0 167.5 L 178.5 167.5 " stroke="black" fill="none" stroke-width="6.0" stroke-linecap="round" stroke-linejoin="round" />
</svg>