<svg xmlns="http://www.w3.org/2000/svg" width="300" height="300" viewBox="0 0 300 300">
<path d="M 117.0 121.5 L 114.5 121.0 L 113.5 120.5 L 113.5 120.5 L 114.5 120.5 L 118.0 120.5 L 122.0 120.5 L 126.5 120.5 L 132.0 120.5 L 136.0 120.5 L 139.5 120.5 L 140.0 120.0 L 140.0 120.0 L 139.5 120.0 " stroke="black" fill="none" stroke-width="6.0" stroke-linecap="round" stroke-linejoin="round" />
<path d="M 123.5 124.5 L 123.5 124.0 L 123.5 123.5 L 123.5 123.0 L 123.5 122.5 L 124.0 122.5 L 124.0 122.5 L 124.0 125.0 L 123.0 130.0 L 119.5 139.0 L 115.5 149.5 L 113.0 155.5 L 112.0 157.0 L 112.0 157.0 L 112.0 155.5 " stroke="black" fill="none" stroke-width="6.0" stroke-linecap="round" stroke-linejoin="round" />
<path d="M 123.0 135.5 L 123.5 136.0 L 124.0 136.0 L 125.0 136.0 L 127.0 135.5 L 129.0 135.5 L 132.5 136.5 L 134.0 138.5 L 135.0 141.5 L 135.5 145.5 L 135.5 151.0 L 135.0 157.0 L 133.0 164.0 L 130.5 169.0 L 126.5 173.5 L 122.0 178.0 L 118.5 182.0 L 117.5 183.5 L 117.5 183.0 L 118.5 181.5 " stroke="black" fill="none" stroke-width="6.0" stroke-linecap="round" stroke-linejoin="round" />
<path d="M 122.5 154.5 L 122.5 154.5 L 122.5 154.5 L 122.5 155.0 L 123.0 156.0 L 125.5 157.5 L 128.0 159.0 L 128.5 159.0 " stroke="black" fill="none" stroke-width="6.0" stroke-linecap="round" stroke-linejoin="round" />
<path d="M 151.5 125.5 L 151.5 125.0 L 151.5 124.0 L 152.0 123.5 L 152.0 123.5 L 152.0 125.0 L 151.5 129.0 L 149.5 133.5 L 148.0 137.5 L 147.0 140.0 L 146.5 140.5 " stroke="black" fill="none" stroke-width="6.0" stroke-linecap="round" stroke-linejoin="round" />
<path d="M 152.5 132.0 L 152.0 132.5 L 151.5 133.5 L 151.5 133.5 L 151.5 133.5 L 154.0 133.5 L 157.5 133.5 L 162.0 133.5 L 168.5 133.5 L 175.0 133.5 L 179.0 133.5 L 180.0 133.5 L 179.5 133.5 L 178.0 133.5 L 177.5 133.5 " stroke="black" fill="none" stroke-width="6.0" stroke-linecap="round" stroke-linejoin="round" />
<path d="M 150.5 152.0 L 149.5 152.0 L 149.0 152.5 L 148.5 153.0 L 148.5 153.0 L 149.5 152.5 L 152.0 152.5 L 156.5 152.5 L 162.5 152.5 L 171.0 152.0 L 179.5 151.0 L 185.5 151.0 L 188.0 151.0 L 187.5 151.5 L 187.0 151.5 L 186.0 151.5 " stroke="black" fill="none" stroke-width="6.0" stroke-linecap="round" stroke-linejoin="round" />
<path d="M 167.5 121.5 L 167.5 121.5 L 167.5 120.5 L 167.5 120.0 L 167.5 120.0 L 167.5 120.0 L 167.5 122.5 L 167.5 128.5 L 167.5 139.0 L 167.0 152.0 L 166.0 164.5 L 165.5 174.5 L 165.0 181.5 L 165.0 186.0 L 165.0 188.5 L 165.5 189.0 L 165.5 189.0 L 165.5 188.0 L 165.5 185.5 " stroke="black" fill="none" stroke-width="6.0" stroke-linecap="round" stroke-linejoin="round" />
<path d="M 163.0 160.5 L 163.0 160.5 L 163.0 160.0 L 163.0 160.0 L 163.0 160.0 L 163.0 160.0 L 163.0 160.0 L 161.0 162.5 L 156.5 168.0 L 150.5 175.0 L 145.5 180.0 L 143.0 182.5 L 143.0 182.5 L 144.0 180.5 " stroke="black" fill="none" stroke-width="6.0" stroke-linecap="round" stroke-linejoin="round" />
<path d="M 167.0 162.5 L 167.5 163.0 L 168.0 164.0 L 169.0 164.5 L 171.5 167.0 L 177.5 171.0 L 186.0 175.5 L 193.0 178.0 L 196.5 179.5 L 196.5 180.0 " stroke="black" fill="none" stroke-width="6.0" stroke-linecap="round" stroke-linejoin="round" />
</svg>