<svg xmlns="http://www.w3.org/2000/svg" width="300" height="300" viewBox="0 0 300 300">
<path d="M 131.5 111.5 L 131.5 112.0 L 131.0 112.5 L 131.0 113.0 L 131.0 113.0 L 131.0 113.0 L 131.5 113.0 L 133.5 113.5 L 137.0 115.0 L 139.0 115.0 L 143.0 116.0 L 145.0 115.5 " stroke="black" fill="none" stroke-width="6.0" stroke-linecap="round" stroke-linejoin="round" />
<path d="M 171.0 106.5 L 170.5 107.0 L 170.0 107.5 L 170.0 108.0 L 169.5 108.0 L 168.5 109.5 L 166.5 111.5 L 163.5 114.5 L 162.0 116.5 L 161.0 118.5 L 161.0 119.5 L 161.0 119.5 " stroke="black" fill="none" stroke-width="6.0" stroke-linecap="round" stroke-linejoin="round" />
<path d="M 132.0 128.0 L 132.0 128.5 L 131.0 129.0 L 131.0 129.0 L 131.5 129.0 L 135.0 129.0 L 140.0 128.5 L 148.0 128.0 L 157.0 128.0 L 164.0 128.0 L 166.5 128.0 L 167.0 128.5 L 165.5 129.0 L 164.5 129.0 " stroke="black" fill="none" stroke-width="6.0" stroke-linecap="round" stroke-linejoin="round" />
<path d="M 126.5 145.0 L 126.0 145.0 L 125.5 145.0 L 125.0 145.0 L 125.0 144.5 L 125.5 144.5 L 132.0 144.5 L 139.0 144.5 L 153.5 144.0 L 162.5 143.5 L 167.0 143.5 L 167.5 143.5 L 166.5 143.0 L 166.0 142.5 " stroke="black" fill="none" stroke-width="6.0" stroke-linecap="round" stroke-linejoin="round" />
<path d="M 153.5 106.5 L 153.5 107.0 L 153.5 107.5 L 153.5 108.0 L 153.5 108.5 L 153.0 109.5 L 153.0 111.0 L 153.0 112.0 L 153.0 114.0 L 152.0 118.0 L 151.5 122.0 L 150.5 126.5 L 149.5 129.0 L 148.5 131.5 L 147.5 135.0 L 146.5 139.0 L 145.0 142.5 L 143.0 146.0 L 142.0 148.0 L 140.5 149.5 L 138.5 152.5 L 137.5 154.5 L 135.5 157.0 L 133.5 159.5 L 131.5 162.0 L 130.0 163.5 L 129.0 164.0 L 128.0 164.5 L 127.0 165.0 L 125.5 166.0 L 124.5 166.5 L 123.5 168.0 L 123.0 168.5 L 123.0 169.0 L 123.0 169.0 L 123.0 169.0 L 123.5 169.0 " stroke="black" fill="none" stroke-width="6.0" stroke-linecap="round" stroke-linejoin="round" />
<path d="M 146.0 148.5 L 145.0 149.5 L 144.5 149.5 L 144.5 150.0 L 144.5 150.0 L 144.5 150.0 L 145.0 151.0 L 146.5 153.0 L 149.0 155.0 L 152.0 158.0 L 156.5 161.5 L 159.5 163.0 L 162.0 164.0 L 166.0 166.0 L 168.5 167.5 L 171.0 168.5 L 173.0 168.5 L 174.5 169.0 L 175.5 169.0 L 175.5 169.0 L 176.0 169.5 L 176.0 169.5 L 176.0 169.5 " stroke="black" fill="none" stroke-width="6.0" stroke-linecap="round" stroke-linejoin="round" />
<path d="M 134.5 165.5 L 134.5 165.5 L 134.5 165.0 L 134.5 164.5 L 134.5 164.5 L 134.5 164.5 L 134.5 166.5 L 134.5 170.5 L 134.5 176.5 L 134.5 183.0 L 134.5 187.5 L 135.0 189.0 L 135.5 188.0 L 135.5 186.5 " stroke="black" fill="none" stroke-width="6.0" stroke-linecap="round" stroke-linejoin="round" />
<path d="M 137.0 166.0 L 136.5 166.0 L 136.0 166.5 L 135.5 166.5 L 135.5 166.5 L 136.0 166.5 L 137.5 166.5 L 140.5 165.5 L 144.0 165.0 L 148.0 164.5 L 152.0 164.0 L 156.0 164.0 L 158.5 163.5 L 159.0 163.5 L 159.0 163.5 L 159.0 163.5 L 159.0 163.5 L 159.5 163.5 L 159.5 163.5 L 160.0 164.5 L 160.0 165.5 L 160.0 167.0 L 160.0 170.5 L 159.5 175.5 L 158.5 182.0 L 157.5 187.5 L 157.0 192.0 L 157.0 194.0 L 157.0 194.5 L 157.0 192.5 L 157.0 190.5 " stroke="black" fill="none" stroke-width="6.0" stroke-linecap="round" stroke-linejoin="round" />
<path d="M 140.5 175.0 L 140.5 175.0 L 140.0 175.5 L 140.0 175.5 L 141.0 175.5 L 143.0 175.5 L 146.0 175.5 L 149.0 175.0 L 152.0 175.0 L 154.0 175.0 L 154.5 175.5 " stroke="black" fill="none" stroke-width="6.0" stroke-linecap="round" stroke-linejoin="round" />
<path d="M 142.0 185.5 L 141.5 185.5 L 141.0 185.5 L 141.0 185.5 L 141.5 185.5 L 143.5 185.5 L 146.0 185.5 L 149.0 185.5 L 151.5 185.5 L 153.0 186.0 " stroke="black" fill="none" stroke-width="6.0" stroke-linecap="round" stroke-linejoin="round" />
<path d="M 136.0 195.5 L 136.0 196.0 L 136.5 196.5 L 137.5 197.0 L 139.5 196.5 L 143.0 196.0 L 146.5 195.5 L 150.0 195.5 L 153.0 195.5 L 155.5 196.0 L 156.5 196.0 " stroke="black" fill="none" stroke-width="6.0" stroke-linecap="round" stroke-linejoin="round" />
</svg>