<svg xmlns="http://www.w3.org/2000/svg" width="300" height="300" viewBox="0 0 300 300">
<path d="M 127.0 114.5 L 127.0 114.5 L 127.0 114.5 L 127.0 114.5 L 130.0 113.5 L 139.0 110.5 L 151.5 106.5 L 162.0 102.0 L 169.5 99.0 L 172.5 98.5 L 172.5 98.5 L 172.5 98.5 L 171.5 99.0 " stroke="black" fill="none" stroke-width="6.0" stroke-linecap="round" stroke-linejoin="round" />
<path d="M 128.5 126.5 L 128.5 126.5 L 128.0 126.5 L 128.0 126.5 L 128.0 126.5 L 129.0 126.5 L 132.0 126.5 L 135.5 126.5 L 138.5 127.0 L 139.5 127.0 " stroke="black" fill="none" stroke-width="6.0" stroke-linecap="round" stroke-linejoin="round" />
<path d="M 152.5 119.5 L 151.5 119.5 L 150.5 119.5 L 150.5 119.5 L 150.5 119.5 L 151.5 120.5 L 152.5 122.0 L 153.5 123.0 " stroke="black" fill="none" stroke-width="6.0" stroke-linecap="round" stroke-linejoin="round" />
<path d="M 169.5 113.0 L 169.5 113.0 L 169.5 113.5 L 169.5 113.5 L 170.0 113.5 L 170.0 114.0 L 170.0 115.0 L 169.5 117.0 L 169.0 119.0 " stroke="black" fill="none" stroke-width="6.0" stroke-linecap="round" stroke-linejoin="round" />
<path d="M 133.0 139.5 L 133.5 139.0 L 133.5 138.5 L 133.5 138.5 L 133.0 140.0 L 132.5 143.5 L 132.0 146.5 L 132.0 149.0 " stroke="black" fill="none" stroke-width="6.0" stroke-linecap="round" stroke-linejoin="round" />
<path d="M 134.5 140.0 L 134.5 139.0 L 134.5 138.5 L 135.0 138.0 L 137.5 136.5 L 143.0 135.0 L 150.5 133.5 L 158.5 132.5 L 166.5 130.5 L 174.0 128.0 L 180.0 126.0 L 183.0 125.0 L 183.5 125.0 L 183.5 125.0 L 183.0 125.0 L 183.0 125.5 L 182.5 126.5 L 181.5 129.0 L 180.5 131.5 L 179.0 135.0 L 178.0 137.5 L 177.5 139.0 " stroke="black" fill="none" stroke-width="6.0" stroke-linecap="round" stroke-linejoin="round" />
<path d="M 141.0 149.0 L 140.5 149.0 L 140.0 149.5 L 140.0 149.5 L 140.0 150.0 L 139.5 152.0 L 138.5 154.5 L 138.0 156.5 L 138.0 156.5 " stroke="black" fill="none" stroke-width="6.0" stroke-linecap="round" stroke-linejoin="round" />
<path d="M 152.0 147.5 L 152.0 147.5 L 151.5 147.5 L 151.0 147.5 L 150.5 148.0 L 150.5 149.0 L 150.5 150.5 L 151.0 153.0 L 153.5 155.0 L 156.5 156.0 L 160.0 155.5 L 162.0 154.5 L 163.5 153.5 L 164.0 153.0 " stroke="black" fill="none" stroke-width="6.0" stroke-linecap="round" stroke-linejoin="round" />
<path d="M 162.0 143.0 L 161.5 143.0 L 160.5 143.0 L 160.5 143.0 L 161.0 143.0 L 163.0 143.5 L 165.0 144.5 L 167.0 145.0 " stroke="black" fill="none" stroke-width="6.0" stroke-linecap="round" stroke-linejoin="round" />
<path d="M 171.0 140.5 L 171.0 140.5 L 171.0 140.5 L 171.0 140.5 L 172.0 141.0 L 173.5 142.5 L 174.0 144.0 L 174.5 144.5 " stroke="black" fill="none" stroke-width="6.0" stroke-linecap="round" stroke-linejoin="round" />
<path d="M 146.5 167.0 L 146.5 166.5 L 146.0 165.0 L 145.5 165.0 L 145.5 165.0 L 145.0 166.0 L 144.5 168.5 L 143.5 170.5 L 143.5 172.0 L 143.5 172.0 " stroke="black" fill="none" stroke-width="6.0" stroke-linecap="round" stroke-linejoin="round" />
<path d="M 151.0 168.0 L 149.5 168.0 L 148.5 168.5 L 148.5 168.5 L 148.5 168.5 L 151.5 168.5 L 156.5 167.5 L 162.5 167.0 L 169.0 166.0 L 173.5 164.5 L 176.0 164.0 L 176.0 164.0 L 175.0 164.5 L 174.0 165.0 L 172.5 167.0 L 170.5 170.0 L 167.0 175.0 L 161.5 181.0 L 155.5 187.5 L 150.5 192.0 L 148.5 193.5 L 148.5 193.5 L 149.0 193.0 L 149.5 192.5 " stroke="black" fill="none" stroke-width="6.0" stroke-linecap="round" stroke-linejoin="round" />
<path d="M 151.0 177.0 L 150.5 178.0 L 150.0 178.5 L 149.5 179.0 L 150.5 179.5 L 154.0 181.5 L 161.0 184.0 L 170.5 186.5 L 178.0 188.0 L 182.0 189.5 L 184.5 190.0 " stroke="black" fill="none" stroke-width="6.0" stroke-linecap="round" stroke-linejoin="round" />
</svg>