<svg xmlns="http://www.w3.org/2000/svg" width="300" height="300" viewBox="0 0 300 300">
<path d="M 145.0 112.5 L 144.0 112.5 L 143.5 112.5 L 143.5 112.5 L 145.0 113.0 L 147.5 114.5 L 149.5 116.0 L 151.5 118.0 " stroke="black" fill="none" stroke-width="6.0" stroke-linecap="round" stroke-linejoin="round" />
<path d="M 128.0 127.0 L 127.5 127.0 L 126.0 126.5 L 125.5 126.5 L 126.0 126.5 L 129.0 126.5 L 135.0 126.5 L 142.5 126.5 L 153.5 126.0 L 165.0 124.0 L 173.0 123.5 L 176.5 123.5 L 176.0 125.0 " stroke="black" fill="none" stroke-width="6.0" stroke-linecap="round" stroke-linejoin="round" />
<path d="M 148.5 130.0 L 148.5 130.0 L 149.0 129.5 L 149.5 129.0 L 149.5 129.0 L 149.0 131.0 L 145.5 137.0 L 138.5 147.5 L 132.0 157.5 L 130.0 161.0 L 130.5 161.0 L 132.0 158.5 " stroke="black" fill="none" stroke-width="6.0" stroke-linecap="round" stroke-linejoin="round" />
<path d="M 150.5 140.5 L 149.5 140.5 L 148.5 140.5 L 147.5 140.5 L 147.5 140.5 L 149.0 140.5 L 152.0 140.5 L 156.0 140.5 L 161.5 139.5 L 167.5 139.0 L 171.5 138.5 L 172.5 138.5 L 172.5 139.5 L 172.0 141.0 L 171.0 144.0 L 170.0 148.5 L 168.5 154.5 L 166.0 162.0 L 163.0 169.0 L 160.0 174.5 L 157.0 178.0 L 154.0 179.0 L 151.5 179.0 L 150.5 177.5 L 150.0 175.0 L 150.0 174.5 " stroke="black" fill="none" stroke-width="6.0" stroke-linecap="round" stroke-linejoin="round" />
</svg>