<svg xmlns="http://www.w3.org/2000/svg" width="300" height="300" viewBox="0 0 300 300">
<path d="M 132.5 113.0 L 132.5 112.0 L 132.5 111.0 L 132.5 110.0 L 132.0 110.0 L 133.0 110.0 L 134.5 111.0 L 136.5 113.0 L 138.0 114.5 L 138.5 115.0 " stroke="black" fill="none" stroke-width="6.0" stroke-linecap="round" stroke-linejoin="round" />
<path d="M 128.0 125.0 L 127.0 125.0 L 126.5 124.5 L 126.5 124.5 L 127.5 124.5 L 131.0 125.0 L 135.0 125.0 L 138.5 125.0 L 141.0 125.0 L 142.5 125.0 L 142.5 125.5 " stroke="black" fill="none" stroke-width="6.0" stroke-linecap="round" stroke-linejoin="round" />
<path d="M 130.5 137.5 L 130.5 138.0 L 129.5 139.0 L 129.0 139.0 L 129.5 139.0 L 131.5 138.0 L 134.0 137.5 L 136.5 137.0 L 138.5 137.0 L 140.5 137.0 L 142.0 137.0 " stroke="black" fill="none" stroke-width="6.0" stroke-linecap="round" stroke-linejoin="round" />
<path d="M 130.0 151.5 L 129.5 152.5 L 129.0 153.0 L 130.5 152.5 L 132.5 152.5 L 135.5 152.0 L 138.0 151.5 L 140.5 151.5 L 141.5 151.0 " stroke="black" fill="none" stroke-width="6.0" stroke-linecap="round" stroke-linejoin="round" />
<path d="M 127.5 169.0 L 126.5 168.5 L 126.0 168.5 L 126.0 169.0 L 126.0 172.0 L 126.5 176.0 L 127.5 179.5 L 128.0 181.0 L 128.5 181.0 " stroke="black" fill="none" stroke-width="6.0" stroke-linecap="round" stroke-linejoin="round" />
<path d="M 129.5 170.5 L 129.0 170.0 L 128.5 169.5 L 128.5 169.0 L 130.5 168.5 L 133.5 167.5 L 137.5 166.5 L 141.0 166.5 L 144.0 167.0 L 146.0 168.5 L 147.0 171.0 L 146.5 174.0 L 144.5 178.0 L 142.0 180.5 L 141.0 181.0 " stroke="black" fill="none" stroke-width="6.0" stroke-linecap="round" stroke-linejoin="round" />
<path d="M 131.5 184.0 L 131.0 184.0 L 130.5 184.0 L 131.0 184.0 L 134.0 183.5 L 138.0 183.0 L 140.5 181.0 " stroke="black" fill="none" stroke-width="6.0" stroke-linecap="round" stroke-linejoin="round" />
<path d="M 158.0 108.5 L 155.5 109.0 L 153.5 109.5 L 153.0 109.5 L 157.0 109.5 L 164.0 109.0 L 168.0 109.0 L 174.5 108.5 L 181.0 108.0 L 183.0 108.0 L 183.0 107.5 L 182.5 107.5 L 182.0 107.5 L 181.5 107.5 L 181.5 108.0 L 181.0 109.5 L 180.5 112.0 L 180.5 115.5 L 180.0 122.0 L 180.0 131.0 L 179.5 141.5 L 179.5 152.5 L 180.0 161.5 L 180.0 168.0 L 179.5 173.5 L 178.5 177.5 L 177.0 180.5 L 175.0 182.0 L 173.0 182.5 L 170.0 181.5 L 167.0 178.0 L 166.0 175.5 " stroke="black" fill="none" stroke-width="6.0" stroke-linecap="round" stroke-linejoin="round" />
<path d="M 159.5 124.5 L 159.5 124.5 L 159.5 124.5 L 159.5 124.5 L 160.0 124.5 L 161.5 124.5 L 164.0 124.5 L 166.5 124.5 L 168.5 124.5 L 169.0 124.5 " stroke="black" fill="none" stroke-width="6.0" stroke-linecap="round" stroke-linejoin="round" />
<path d="M 153.0 140.0 L 153.5 140.0 L 154.0 140.0 L 154.0 140.0 L 154.5 141.0 L 155.0 144.0 L 155.0 147.5 L 155.5 150.0 L 155.5 151.0 " stroke="black" fill="none" stroke-width="6.0" stroke-linecap="round" stroke-linejoin="round" />
<path d="M 154.5 140.5 L 154.5 140.5 L 155.0 140.5 L 155.5 140.0 L 157.0 139.0 L 160.0 138.5 L 163.5 138.0 L 166.5 137.5 L 168.5 137.5 L 170.0 138.0 L 170.0 140.0 L 170.0 142.5 L 168.0 146.0 L 166.5 149.5 L 165.0 151.0 L 164.0 152.0 L 163.5 152.0 " stroke="black" fill="none" stroke-width="6.0" stroke-linecap="round" stroke-linejoin="round" />
<path d="M 158.0 151.0 L 157.0 152.0 L 156.0 152.0 L 157.0 152.0 L 160.0 152.0 L 164.0 151.5 L 167.0 151.5 L 169.0 151.0 L 170.0 151.0 " stroke="black" fill="none" stroke-width="6.0" stroke-linecap="round" stroke-linejoin="round" />
</svg>