<svg xmlns="http://www.w3.org/2000/svg" width="300" height="300" viewBox="0 0 300 300">
<path d="M 128.0 108.0 L 128.0 108.0 L 127.5 108.0 L 127.0 108.5 L 127.0 108.5 L 128.0 108.5 L 130.5 108.5 L 134.5 108.5 L 141.5 108.0 L 151.5 107.0 L 159.5 106.5 L 164.5 106.5 L 167.5 106.5 L 169.0 106.5 L 170.0 106.5 L 170.0 106.5 L 170.5 106.5 L 171.0 106.5 L 171.5 106.5 L 172.0 106.5 L 172.5 106.5 L 173.0 106.5 " stroke="black" fill="none" stroke-width="6.0" stroke-linecap="round" stroke-linejoin="round" />
<path d="M 147.5 111.5 L 147.5 111.5 L 148.0 112.5 L 148.5 112.5 L 148.5 112.5 L 148.5 113.0 L 148.5 114.0 L 147.0 116.5 L 145.0 119.5 L 143.5 122.0 L 142.5 123.5 " stroke="black" fill="none" stroke-width="6.0" stroke-linecap="round" stroke-linejoin="round" />
<path d="M 131.5 130.0 L 131.5 129.5 L 131.5 129.0 L 131.5 129.0 L 131.5 130.5 L 131.5 137.5 L 132.0 148.5 L 133.0 157.5 L 134.0 162.0 L 135.0 161.0 L 135.0 160.0 " stroke="black" fill="none" stroke-width="6.0" stroke-linecap="round" stroke-linejoin="round" />
<path d="M 134.0 128.0 L 134.0 128.0 L 134.0 128.0 L 134.0 127.5 L 134.0 127.5 L 134.5 127.0 L 138.0 126.5 L 147.0 124.5 L 159.0 122.5 L 168.5 122.0 L 173.5 122.5 L 175.0 124.5 L 175.5 126.0 L 175.5 127.5 L 176.0 129.0 L 176.0 132.0 L 176.5 136.0 L 176.0 141.5 L 175.0 147.5 L 173.5 153.5 L 172.5 157.5 L 172.5 159.5 L 172.5 159.0 L 172.5 158.0 " stroke="black" fill="none" stroke-width="6.0" stroke-linecap="round" stroke-linejoin="round" />
<path d="M 147.5 133.5 L 147.0 132.5 L 146.5 131.5 L 146.0 131.0 L 146.0 131.0 L 146.0 133.0 L 146.5 139.5 L 147.0 148.0 L 147.5 155.5 L 148.5 159.0 L 149.0 158.0 " stroke="black" fill="none" stroke-width="6.0" stroke-linecap="round" stroke-linejoin="round" />
<path d="M 159.0 125.5 L 159.0 125.5 L 159.0 125.5 L 158.5 126.0 L 158.5 128.0 L 159.5 134.0 L 160.0 143.5 L 160.5 152.5 L 160.5 158.0 L 160.5 159.0 L 160.5 158.5 L 160.5 158.0 " stroke="black" fill="none" stroke-width="6.0" stroke-linecap="round" stroke-linejoin="round" />
<path d="M 150.0 140.5 L 149.5 140.5 L 148.5 140.5 L 148.0 140.5 L 149.0 140.5 L 151.5 140.5 L 155.0 140.0 L 158.0 139.5 L 160.0 139.5 L 160.5 139.5 " stroke="black" fill="none" stroke-width="6.0" stroke-linecap="round" stroke-linejoin="round" />
<path d="M 151.5 149.0 L 151.0 149.0 L 150.5 149.0 L 150.5 149.0 L 151.0 149.5 L 153.5 149.5 L 156.0 149.5 L 158.5 149.0 " stroke="black" fill="none" stroke-width="6.0" stroke-linecap="round" stroke-linejoin="round" />
<path d="M 135.0 167.5 L 135.0 167.5 L 134.5 167.5 L 135.0 167.0 L 140.0 165.0 L 150.0 162.5 L 161.0 161.5 L 171.0 161.0 L 176.5 162.0 L 178.0 162.5 " stroke="black" fill="none" stroke-width="6.0" stroke-linecap="round" stroke-linejoin="round" />
</svg>