<svg xmlns="http://www.w3.org/2000/svg" width="300" height="300" viewBox="0 0 300 300">
<path d="M 134.0 117.0 L 134.0 117.0 L 134.5 116.0 L 135.5 115.0 L 136.0 113.5 L 137.0 112.0 L 138.0 111.5 L 138.5 111.0 L 138.5 112.5 L 137.0 116.5 L 133.5 123.0 L 130.0 128.5 L 127.5 132.5 L 127.0 133.5 L 127.0 133.0 L 127.5 132.0 " stroke="black" fill="none" stroke-width="6.0" stroke-linecap="round" stroke-linejoin="round" />
<path d="M 134.0 123.5 L 134.5 123.5 L 134.5 123.0 L 135.0 123.0 L 137.0 122.5 L 142.5 121.5 L 153.0 119.5 L 164.0 118.0 L 172.5 117.5 L 176.5 117.5 L 177.0 117.5 L 177.0 117.0 L 176.5 117.0 L 176.5 117.0 L 176.5 117.5 " stroke="black" fill="none" stroke-width="6.0" stroke-linecap="round" stroke-linejoin="round" />
<path d="M 129.0 145.0 L 129.0 145.0 L 128.5 145.0 L 128.5 144.5 L 128.5 144.5 L 130.5 144.0 L 136.5 142.5 L 147.5 141.0 L 160.0 139.0 L 170.5 137.5 L 177.0 136.5 L 179.5 136.0 L 179.5 136.0 L 178.5 136.0 L 176.0 136.5 " stroke="black" fill="none" stroke-width="6.0" stroke-linecap="round" stroke-linejoin="round" />
<path d="M 149.0 134.5 L 149.0 134.5 L 148.5 134.5 L 148.5 134.5 L 148.5 134.5 L 148.5 136.5 L 149.0 141.5 L 149.5 146.5 L 150.5 150.5 L 151.0 151.0 L 151.5 151.0 " stroke="black" fill="none" stroke-width="6.0" stroke-linecap="round" stroke-linejoin="round" />
<path d="M 162.0 130.5 L 162.0 130.5 L 162.0 131.5 L 162.0 132.0 L 162.5 133.0 L 162.5 135.5 L 162.5 140.5 L 162.5 145.5 L 162.5 149.0 L 162.5 150.0 " stroke="black" fill="none" stroke-width="6.0" stroke-linecap="round" stroke-linejoin="round" />
<path d="M 135.0 136.5 L 135.0 136.5 L 135.5 137.0 L 135.5 137.5 L 135.5 138.0 L 135.5 139.5 L 136.0 144.0 L 136.5 150.5 L 138.5 156.0 L 139.5 157.0 " stroke="black" fill="none" stroke-width="6.0" stroke-linecap="round" stroke-linejoin="round" />
<path d="M 173.5 129.5 L 174.0 129.5 L 174.0 130.0 L 174.5 130.5 L 174.5 132.0 L 174.5 135.0 L 174.5 139.5 L 174.5 143.5 L 174.5 146.5 L 174.5 149.0 L 174.5 149.0 " stroke="black" fill="none" stroke-width="6.0" stroke-linecap="round" stroke-linejoin="round" />
<path d="M 123.0 166.0 L 123.0 166.0 L 123.0 165.5 L 123.0 165.5 L 124.0 165.0 L 129.5 163.5 L 139.5 161.5 L 152.5 158.5 L 166.5 155.0 L 178.0 152.5 L 185.0 152.0 L 189.0 151.5 L 190.0 152.0 L 189.5 152.5 L 188.0 153.0 L 186.0 153.0 " stroke="black" fill="none" stroke-width="6.0" stroke-linecap="round" stroke-linejoin="round" />
<path d="M 147.5 169.5 L 147.5 169.5 L 147.0 169.0 L 147.0 168.5 L 146.5 168.5 L 146.5 169.0 L 145.0 171.0 L 143.5 174.0 L 142.0 177.0 L 141.0 179.0 L 141.5 179.5 " stroke="black" fill="none" stroke-width="6.0" stroke-linecap="round" stroke-linejoin="round" />
<path d="M 158.5 170.0 L 158.5 170.0 L 158.5 169.0 L 158.5 169.0 L 158.5 168.5 L 158.5 169.0 L 159.0 170.5 L 160.0 173.0 L 161.5 175.0 L 163.0 176.0 " stroke="black" fill="none" stroke-width="6.0" stroke-linecap="round" stroke-linejoin="round" />
<path d="M 169.5 167.0 L 169.0 167.0 L 168.5 167.0 L 168.0 167.0 L 168.0 167.0 L 168.5 168.0 L 170.0 170.5 L 171.5 173.0 L 173.5 174.5 " stroke="black" fill="none" stroke-width="6.0" stroke-linecap="round" stroke-linejoin="round" />
<path d="M 180.0 166.5 L 180.0 166.5 L 180.5 166.0 L 181.0 166.0 L 182.0 166.0 L 183.0 167.5 L 185.0 169.5 L 187.0 171.5 L 188.0 172.5 " stroke="black" fill="none" stroke-width="6.0" stroke-linecap="round" stroke-linejoin="round" />
</svg>