<svg xmlns="http://www.w3.org/2000/svg" width="300" height="300" viewBox="0 0 300 300">
<path d="M 119.5 111.0 L 119.0 111.0 L 118.5 111.0 L 119.5 110.5 L 123.5 110.0 L 127.5 109.0 L 132.0 108.5 L 135.5 108.0 L 137.5 107.5 L 139.0 107.5 L 139.5 107.5 L 139.5 109.0 L 139.5 111.0 L 139.0 114.0 L 138.5 116.5 L 138.0 119.5 L 138.0 122.0 L 137.5 123.0 " stroke="black" fill="none" stroke-width="6.0" stroke-linecap="round" stroke-linejoin="round" />
<path d="M 122.5 127.5 L 122.0 128.0 L 120.5 128.0 L 120.5 128.0 L 122.0 128.0 L 126.5 127.0 L 130.5 126.0 L 134.0 125.0 L 136.5 125.0 " stroke="black" fill="none" stroke-width="6.0" stroke-linecap="round" stroke-linejoin="round" />
<path d="M 118.0 110.0 L 117.5 109.5 L 117.0 109.5 L 116.5 109.0 L 116.5 109.0 L 116.5 111.5 L 117.0 119.5 L 117.0 135.5 L 115.0 152.0 L 113.0 164.5 L 111.5 173.0 L 110.5 181.0 L 109.0 187.5 L 108.0 190.5 L 107.5 191.0 L 107.0 190.5 L 106.5 188.5 " stroke="black" fill="none" stroke-width="6.0" stroke-linecap="round" stroke-linejoin="round" />
<path d="M 121.5 148.0 L 121.5 148.0 L 121.0 148.0 L 121.5 148.0 L 124.5 148.0 L 129.0 147.0 L 134.0 145.5 L 137.5 144.5 L 139.5 144.0 L 140.5 144.0 L 140.5 144.0 " stroke="black" fill="none" stroke-width="6.0" stroke-linecap="round" stroke-linejoin="round" />
<path d="M 129.0 135.0 L 129.0 135.0 L 128.0 135.0 L 127.5 135.0 L 127.5 136.0 L 127.5 139.5 L 128.0 146.5 L 129.0 153.0 L 129.0 157.0 L 129.5 157.0 " stroke="black" fill="none" stroke-width="6.0" stroke-linecap="round" stroke-linejoin="round" />
<path d="M 135.0 133.5 L 135.5 134.0 L 136.0 134.5 L 136.0 134.5 L 136.5 134.5 L 137.0 136.5 L 137.5 141.5 L 137.5 147.5 L 138.0 152.0 L 138.0 152.5 " stroke="black" fill="none" stroke-width="6.0" stroke-linecap="round" stroke-linejoin="round" />
<path d="M 124.5 162.5 L 124.5 162.5 L 123.5 162.5 L 123.0 162.0 L 124.0 162.0 L 127.5 161.5 L 133.0 160.5 L 138.0 160.0 L 141.5 160.0 L 142.5 160.0 " stroke="black" fill="none" stroke-width="6.0" stroke-linecap="round" stroke-linejoin="round" />
<path d="M 132.0 171.0 L 132.0 171.0 L 132.0 171.0 L 132.0 171.0 L 131.5 171.0 L 130.0 173.5 L 128.0 177.5 L 126.0 181.0 L 125.5 182.5 " stroke="black" fill="none" stroke-width="6.0" stroke-linecap="round" stroke-linejoin="round" />
<path d="M 136.5 172.0 L 136.5 172.0 L 137.5 172.0 L 139.0 172.0 L 142.0 172.5 L 145.5 174.5 L 148.5 176.5 L 150.5 178.0 " stroke="black" fill="none" stroke-width="6.0" stroke-linecap="round" stroke-linejoin="round" />
<path d="M 154.0 114.5 L 154.0 114.0 L 154.0 113.5 L 154.0 113.5 L 154.0 113.5 L 154.5 116.0 L 154.5 122.5 L 153.5 130.5 L 153.0 137.0 L 152.5 140.0 L 152.5 140.0 " stroke="black" fill="none" stroke-width="6.0" stroke-linecap="round" stroke-linejoin="round" />
<path d="M 153.5 116.5 L 153.0 116.5 L 152.0 116.0 L 152.0 116.0 L 152.0 115.5 L 154.5 115.0 L 157.0 114.0 L 160.0 113.0 L 162.5 112.0 L 165.0 111.5 L 167.0 111.5 L 168.0 111.5 L 168.5 112.5 L 169.0 115.0 L 169.0 119.0 L 168.5 124.5 L 168.0 131.5 L 168.0 137.5 L 168.0 141.5 L 169.0 143.0 L 171.0 143.5 L 172.5 142.5 L 174.5 141.0 L 175.5 139.5 L 176.0 139.0 " stroke="black" fill="none" stroke-width="6.0" stroke-linecap="round" stroke-linejoin="round" />
<path d="M 156.0 155.5 L 156.0 155.5 L 155.5 156.0 L 155.5 156.0 L 156.5 156.0 L 160.0 154.5 L 164.0 153.0 L 167.5 152.0 L 171.0 152.0 L 172.5 153.0 L 173.5 156.0 L 173.5 160.0 L 171.5 166.0 L 169.0 173.0 L 165.5 180.5 L 162.5 186.5 L 161.0 190.0 L 161.0 191.5 L 161.0 191.0 L 160.5 190.0 " stroke="black" fill="none" stroke-width="6.0" stroke-linecap="round" stroke-linejoin="round" />
<path d="M 157.0 164.0 L 157.0 164.0 L 156.0 164.0 L 156.0 164.0 L 158.0 166.0 L 163.5 170.5 L 169.5 176.0 L 174.5 179.5 L 177.5 181.0 L 178.0 181.0 " stroke="black" fill="none" stroke-width="6.0" stroke-linecap="round" stroke-linejoin="round" />
</svg>