<svg xmlns="http://www.w3.org/2000/svg" width="300" height="300" viewBox="0 0 300 300">
<path d="M 126.0 109.0 L 125.5 109.5 L 124.5 110.5 L 124.0 111.0 L 123.5 111.0 L 123.5 111.0 L 124.0 111.0 L 126.0 111.0 L 129.0 111.0 L 135.5 110.0 L 146.0 108.0 L 159.0 106.0 L 171.0 105.5 L 178.5 105.0 L 184.0 105.0 L 187.0 105.5 L 188.5 106.0 L 188.5 106.0 L 188.5 106.0 L 188.0 106.0 L 187.0 105.5 L 186.5 105.5 L 186.0 105.5 " stroke="black" fill="none" stroke-width="6.0" stroke-linecap="round" stroke-linejoin="round" />
<path d="M 124.5 122.0 L 124.5 122.0 L 124.5 121.5 L 125.0 121.0 L 125.0 121.0 L 125.0 122.5 L 123.5 126.5 L 122.0 131.5 L 120.5 135.0 L 120.0 136.0 " stroke="black" fill="none" stroke-width="6.0" stroke-linecap="round" stroke-linejoin="round" />
<path d="M 128.5 122.5 L 128.0 121.5 L 127.5 121.0 L 128.5 120.5 L 131.0 120.5 L 137.0 120.0 L 146.0 119.5 L 156.5 118.0 L 167.0 116.0 L 175.0 115.5 L 180.0 115.0 L 185.0 114.0 L 189.0 113.5 L 190.5 113.0 L 191.0 113.0 L 191.0 113.0 L 191.0 113.5 L 191.0 113.5 L 191.0 114.0 L 191.0 114.0 L 191.0 114.5 L 191.0 115.0 L 191.0 116.0 L 191.0 116.5 L 190.0 118.5 L 188.5 121.0 L 186.0 125.0 L 183.0 128.5 L 180.5 132.0 L 179.5 133.5 L 179.5 134.0 L 179.5 134.0 " stroke="black" fill="none" stroke-width="6.0" stroke-linecap="round" stroke-linejoin="round" />
<path d="M 153.5 110.5 L 154.0 110.0 L 154.0 110.0 L 154.5 109.5 L 154.5 109.5 L 155.0 109.5 L 155.0 110.5 L 155.0 114.0 L 154.0 119.5 L 152.0 125.5 L 150.5 130.5 L 150.0 133.5 L 150.0 134.5 L 150.0 134.5 " stroke="black" fill="none" stroke-width="6.0" stroke-linecap="round" stroke-linejoin="round" />
<path d="M 134.0 128.5 L 134.0 128.5 L 134.5 128.5 L 134.5 128.5 L 134.5 129.0 L 135.0 129.0 L 135.5 129.5 L 136.5 130.0 L 137.5 131.0 L 138.0 132.0 " stroke="black" fill="none" stroke-width="6.0" stroke-linecap="round" stroke-linejoin="round" />
<path d="M 130.5 142.0 L 130.5 142.0 L 130.0 141.5 L 130.0 141.0 L 131.5 140.0 L 134.0 139.5 L 136.0 139.5 L 139.0 139.0 " stroke="black" fill="none" stroke-width="6.0" stroke-linecap="round" stroke-linejoin="round" />
<path d="M 169.0 124.0 L 168.5 124.5 L 168.0 124.5 L 167.5 125.0 L 167.0 125.5 L 166.0 126.5 L 164.5 128.0 L 163.5 130.0 L 163.0 130.0 " stroke="black" fill="none" stroke-width="6.0" stroke-linecap="round" stroke-linejoin="round" />
<path d="M 159.0 135.0 L 159.0 135.0 L 158.5 136.0 L 158.0 136.0 L 158.5 136.0 L 161.0 136.0 L 163.5 137.0 L 166.5 139.0 L 168.5 140.5 L 169.5 142.5 " stroke="black" fill="none" stroke-width="6.0" stroke-linecap="round" stroke-linejoin="round" />
<path d="M 125.5 154.0 L 125.5 154.0 L 125.0 154.0 L 125.0 154.0 L 125.0 154.0 L 125.0 154.5 L 125.5 157.0 L 126.0 160.0 L 126.5 163.0 L 127.0 165.0 L 127.0 165.0 " stroke="black" fill="none" stroke-width="6.0" stroke-linecap="round" stroke-linejoin="round" />
<path d="M 128.0 155.0 L 127.0 155.5 L 126.5 156.0 L 126.5 155.0 L 128.0 153.5 L 131.0 152.5 L 134.0 151.5 L 137.5 151.0 L 141.0 151.0 L 144.5 151.0 L 146.5 152.0 L 147.0 152.5 L 147.0 153.0 L 146.0 154.5 L 145.0 156.5 L 144.0 159.0 L 143.0 162.0 L 142.5 164.5 L 142.0 166.5 L 141.5 167.0 L 141.5 167.0 " stroke="black" fill="none" stroke-width="6.0" stroke-linecap="round" stroke-linejoin="round" />
<path d="M 130.5 167.5 L 130.0 167.5 L 129.5 167.5 L 129.5 167.5 L 129.5 167.5 L 131.5 167.5 L 135.0 167.0 L 138.5 166.5 L 141.0 166.5 L 143.5 166.5 " stroke="black" fill="none" stroke-width="6.0" stroke-linecap="round" stroke-linejoin="round" />
<path d="M 139.0 175.0 L 139.0 175.0 L 139.0 175.0 L 139.0 175.0 L 139.0 175.0 L 139.5 175.5 L 139.5 177.0 L 139.5 181.0 L 139.5 185.5 L 139.5 188.5 L 140.0 189.5 " stroke="black" fill="none" stroke-width="6.0" stroke-linecap="round" stroke-linejoin="round" />
<path d="M 140.5 184.0 L 140.0 184.0 L 140.0 183.5 L 141.0 183.5 L 143.5 182.5 L 146.0 182.0 L 147.5 182.0 L 148.5 182.0 " stroke="black" fill="none" stroke-width="6.0" stroke-linecap="round" stroke-linejoin="round" />
<path d="M 128.0 182.5 L 128.0 182.5 L 128.0 180.5 L 128.5 179.5 L 129.0 178.0 L 130.0 178.0 L 131.0 178.5 L 132.0 181.5 L 132.0 187.0 L 131.5 193.0 L 130.5 197.5 L 130.0 199.5 L 130.0 199.5 " stroke="black" fill="none" stroke-width="6.0" stroke-linecap="round" stroke-linejoin="round" />
<path d="M 126.0 201.5 L 125.0 203.5 L 124.5 204.5 L 124.0 204.5 L 125.0 204.5 L 127.0 203.0 L 130.5 201.5 L 135.0 199.0 L 140.5 196.0 L 147.5 192.5 L 153.0 190.0 L 155.0 189.5 L 155.0 189.5 L 154.5 190.0 " stroke="black" fill="none" stroke-width="6.0" stroke-linecap="round" stroke-linejoin="round" />
<path d="M 163.0 151.0 L 163.5 151.0 L 164.5 150.0 L 165.0 149.5 L 166.0 149.0 L 166.5 148.5 L 166.5 148.0 L 166.5 148.5 L 165.0 151.5 L 162.5 155.0 L 161.0 158.5 L 160.0 159.5 " stroke="black" fill="none" stroke-width="6.0" stroke-linecap="round" stroke-linejoin="round" />
<path d="M 164.0 153.5 L 164.0 154.0 L 163.5 155.0 L 164.0 155.0 L 167.0 154.0 L 171.0 153.0 L 175.5 151.5 L 179.5 150.5 L 183.0 150.0 L 185.0 150.0 L 185.5 150.0 L 185.0 150.5 L 183.5 152.5 L 181.5 155.5 L 178.0 160.0 L 173.5 164.5 L 169.0 169.5 L 164.5 174.0 L 162.5 177.0 L 162.0 178.0 L 163.0 176.5 L 163.5 175.5 " stroke="black" fill="none" stroke-width="6.0" stroke-linecap="round" stroke-linejoin="round" />
<path d="M 170.0 163.5 L 168.5 163.5 L 168.0 163.0 L 168.0 163.0 L 171.0 163.5 L 175.0 165.0 L 180.0 167.0 L 185.0 168.5 L 188.5 169.0 L 190.0 169.5 " stroke="black" fill="none" stroke-width="6.0" stroke-linecap="round" stroke-linejoin="round" />
<path d="M 168.5 180.0 L 168.5 179.0 L 169.0 178.5 L 169.0 178.0 L 169.5 178.5 L 170.0 181.5 L 170.0 186.0 L 170.5 189.5 L 171.0 191.0 L 171.0 191.5 " stroke="black" fill="none" stroke-width="6.0" stroke-linecap="round" stroke-linejoin="round" />
<path d="M 173.5 176.0 L 173.5 176.0 L 173.5 176.5 L 173.5 176.5 L 175.0 176.5 L 178.0 176.0 L 181.0 175.5 L 184.0 175.5 L 186.0 175.5 L 186.5 176.0 L 187.0 177.5 L 187.0 180.5 L 186.5 184.5 L 185.5 188.5 L 184.5 192.0 L 183.5 193.5 L 183.0 193.5 L 183.0 193.5 " stroke="black" fill="none" stroke-width="6.0" stroke-linecap="round" stroke-linejoin="round" />
<path d="M 174.0 194.5 L 173.5 195.0 L 172.5 195.5 L 172.0 195.5 L 173.5 195.0 L 177.0 194.0 L 180.5 193.5 L 184.5 193.5 L 187.0 194.0 " stroke="black" fill="none" stroke-width="6.0" stroke-linecap="round" stroke-linejoin="round" />
</svg>