<svg xmlns="http://www.w3.org/2000/svg" width="300" height="300" viewBox="0 0 300 300">
<path d="M 125.0 111.5 L 124.5 111.5 L 123.0 112.0 L 123.0 112.0 L 124.5 114.0 L 128.0 117.0 L 131.0 119.0 L 133.0 121.0 L 134.5 121.5 L 134.5 121.5 " stroke="black" fill="none" stroke-width="6.0" stroke-linecap="round" stroke-linejoin="round" />
<path d="M 116.5 130.0 L 115.5 130.5 L 114.5 131.0 L 115.0 131.0 L 118.5 130.5 L 125.0 130.0 L 131.0 130.0 L 136.0 129.5 L 139.0 129.5 L 139.5 129.5 " stroke="black" fill="none" stroke-width="6.0" stroke-linecap="round" stroke-linejoin="round" />
<path d="M 125.5 135.5 L 125.5 135.0 L 125.5 134.0 L 126.0 133.0 L 126.5 132.5 L 127.0 133.0 L 126.5 138.0 L 123.5 147.0 L 118.0 158.5 L 113.0 168.0 L 112.0 170.5 L 113.0 170.5 L 113.0 169.5 " stroke="black" fill="none" stroke-width="6.0" stroke-linecap="round" stroke-linejoin="round" />
<path d="M 126.0 147.5 L 125.5 147.5 L 125.0 147.5 L 124.5 147.0 L 125.0 146.5 L 127.0 146.0 L 129.0 145.5 L 131.0 145.5 L 133.0 145.5 L 135.5 147.0 L 137.5 149.5 L 138.5 154.0 L 138.5 160.0 L 137.5 168.0 L 135.5 174.5 L 133.0 179.0 L 130.5 181.0 L 128.5 181.5 L 127.0 178.5 L 127.0 177.5 " stroke="black" fill="none" stroke-width="6.0" stroke-linecap="round" stroke-linejoin="round" />
<path d="M 158.0 114.5 L 158.0 114.5 L 158.5 114.5 L 159.0 114.0 L 159.0 113.5 L 159.5 113.5 L 159.5 115.5 L 158.0 121.0 L 154.5 129.0 L 150.5 136.5 L 148.0 140.5 L 147.5 141.0 L 147.5 139.0 " stroke="black" fill="none" stroke-width="6.0" stroke-linecap="round" stroke-linejoin="round" />
<path d="M 159.0 121.0 L 159.0 121.0 L 159.0 121.0 L 159.5 121.5 L 164.0 125.0 L 170.5 129.5 L 176.5 133.0 L 180.5 135.0 L 182.0 136.0 L 182.0 137.0 L 181.5 137.0 " stroke="black" fill="none" stroke-width="6.0" stroke-linecap="round" stroke-linejoin="round" />
<path d="M 160.5 145.0 L 160.5 144.5 L 160.5 144.0 L 160.5 143.5 L 162.0 144.0 L 165.0 147.0 L 168.5 150.5 L 171.5 153.0 L 173.5 154.5 L 174.5 154.5 " stroke="black" fill="none" stroke-width="6.0" stroke-linecap="round" stroke-linejoin="round" />
<path d="M 154.5 161.5 L 154.5 161.5 L 154.0 161.5 L 153.5 161.0 L 153.5 161.0 L 155.5 162.0 L 161.0 165.5 L 166.5 170.0 L 172.0 174.5 L 176.0 177.0 L 176.5 177.0 " stroke="black" fill="none" stroke-width="6.0" stroke-linecap="round" stroke-linejoin="round" />
</svg>