<svg xmlns="http://www.w3.org/2000/svg" width="300" height="300" viewBox="0 0 300 300">
<path d="M 130.0 120.5 L 131.0 120.5 L 131.5 120.0 L 132.0 120.0 L 132.5 120.5 L 133.5 122.0 L 134.5 123.5 L 135.5 125.0 L 136.0 126.5 " stroke="black" fill="none" stroke-width="6.0" stroke-linecap="round" stroke-linejoin="round" />
<path d="M 124.0 132.5 L 124.0 133.5 L 124.0 134.0 L 124.0 134.0 L 126.5 134.0 L 131.5 134.0 L 139.0 134.0 L 146.0 133.5 L 150.5 133.5 L 151.5 133.0 L 150.5 133.0 " stroke="black" fill="none" stroke-width="6.0" stroke-linecap="round" stroke-linejoin="round" />
<path d="M 134.5 136.0 L 134.5 136.0 L 134.5 136.0 L 134.0 136.0 L 134.0 136.0 L 134.0 136.0 L 134.0 137.5 L 134.0 142.5 L 132.5 151.5 L 130.5 163.0 L 128.0 171.5 L 127.0 175.5 L 127.0 175.5 " stroke="black" fill="none" stroke-width="6.0" stroke-linecap="round" stroke-linejoin="round" />
<path d="M 135.5 150.5 L 134.0 151.5 L 133.0 152.0 L 133.0 152.0 L 133.0 152.0 L 134.5 151.5 L 137.5 150.5 L 140.0 150.0 L 142.5 149.0 L 145.0 148.0 L 146.0 147.5 L 146.0 147.5 L 146.0 148.0 L 145.5 149.5 L 144.5 152.5 L 144.0 157.0 L 143.5 163.5 L 143.5 170.0 L 143.5 175.5 L 143.0 179.5 L 142.0 181.5 L 140.5 182.0 L 138.5 182.0 L 137.0 181.5 L 136.0 180.0 L 136.0 179.5 " stroke="black" fill="none" stroke-width="6.0" stroke-linecap="round" stroke-linejoin="round" />
<path d="M 165.5 123.5 L 165.5 122.5 L 165.5 121.5 L 165.5 121.0 L 165.5 121.0 L 165.5 121.5 L 164.5 125.0 L 162.0 131.0 L 159.5 137.0 L 158.0 141.0 L 158.0 141.5 " stroke="black" fill="none" stroke-width="6.0" stroke-linecap="round" stroke-linejoin="round" />
<path d="M 168.0 122.0 L 168.0 122.0 L 168.0 122.0 L 168.5 122.0 L 170.5 125.5 L 174.0 132.5 L 178.0 138.5 L 181.0 143.0 L 182.0 145.0 " stroke="black" fill="none" stroke-width="6.0" stroke-linecap="round" stroke-linejoin="round" />
<path d="M 167.0 149.0 L 166.5 149.5 L 166.0 149.5 L 166.0 149.5 L 166.0 150.0 L 167.5 151.0 L 170.0 153.0 L 172.5 155.0 L 173.0 155.5 " stroke="black" fill="none" stroke-width="6.0" stroke-linecap="round" stroke-linejoin="round" />
<path d="M 162.5 166.0 L 162.5 166.0 L 162.5 166.0 L 162.5 165.5 L 162.5 165.5 L 162.5 165.5 L 163.0 165.5 L 165.5 168.0 L 169.0 171.5 L 172.5 175.5 L 175.5 179.0 " stroke="black" fill="none" stroke-width="6.0" stroke-linecap="round" stroke-linejoin="round" />
</svg>