<svg xmlns="http://www.w3.org/2000/svg" width="300" height="300" viewBox="0 0 300 300">
<path d="M 127.5 117.0 L 128.0 117.0 L 129.0 116.5 L 129.0 116.0 L 129.5 116.0 L 129.5 116.0 L 129.5 116.0 L 129.0 119.0 L 127.0 124.5 L 124.0 132.5 L 120.5 141.5 L 118.0 148.0 L 117.0 149.5 L 117.0 149.5 L 117.0 149.0 L 117.5 148.5 L 119.5 147.5 L 122.0 146.5 L 124.0 145.5 L 126.0 144.0 L 127.5 143.0 L 128.0 142.0 " stroke="black" fill="none" stroke-width="6.0" stroke-linecap="round" stroke-linejoin="round" />
<path d="M 132.0 128.0 L 132.5 128.0 L 133.5 128.0 L 133.5 128.5 L 133.5 129.0 L 133.0 131.5 L 131.5 136.0 L 128.5 143.5 L 125.5 152.0 L 122.0 160.0 L 117.0 168.5 L 116.5 169.0 L 116.5 169.0 L 116.5 169.0 L 116.5 168.5 L 117.5 168.0 L 119.0 167.0 L 121.5 166.0 L 124.5 164.5 L 127.0 163.0 L 129.5 162.0 L 131.5 161.0 L 132.5 161.0 L 132.5 161.0 " stroke="black" fill="none" stroke-width="6.0" stroke-linecap="round" stroke-linejoin="round" />
<path d="M 134.0 154.0 L 134.0 154.0 L 133.5 155.0 L 133.5 155.5 L 133.5 156.5 L 134.5 159.5 L 136.5 163.0 L 138.0 166.0 L 138.5 167.5 " stroke="black" fill="none" stroke-width="6.0" stroke-linecap="round" stroke-linejoin="round" />
<path d="M 117.0 180.0 L 117.0 179.0 L 116.5 179.0 L 116.5 179.0 L 115.5 181.5 L 115.0 185.5 L 114.5 189.5 L 114.5 191.5 L 114.5 192.0 " stroke="black" fill="none" stroke-width="6.0" stroke-linecap="round" stroke-linejoin="round" />
<path d="M 125.5 178.5 L 125.5 178.5 L 125.5 178.5 L 125.5 178.5 L 126.0 178.5 L 126.5 180.0 L 127.5 182.0 L 128.5 185.0 L 129.5 186.5 " stroke="black" fill="none" stroke-width="6.0" stroke-linecap="round" stroke-linejoin="round" />
<path d="M 135.5 175.0 L 135.5 175.0 L 136.0 175.5 L 136.0 175.5 L 137.0 176.5 L 137.5 177.5 L 138.5 179.0 L 139.5 180.5 " stroke="black" fill="none" stroke-width="6.0" stroke-linecap="round" stroke-linejoin="round" />
<path d="M 153.0 115.5 L 153.0 115.5 L 153.5 116.0 L 154.0 116.5 L 154.0 117.0 L 152.5 119.0 L 150.0 123.5 L 146.5 129.0 L 143.5 133.5 L 142.5 135.0 L 142.5 135.0 " stroke="black" fill="none" stroke-width="6.0" stroke-linecap="round" stroke-linejoin="round" />
<path d="M 158.0 126.0 L 158.5 126.0 L 159.0 126.0 L 159.0 126.0 L 159.0 126.5 L 157.0 128.5 L 154.5 132.0 L 150.5 137.0 L 147.5 141.5 L 146.0 144.0 L 145.5 144.5 L 145.5 144.5 " stroke="black" fill="none" stroke-width="6.0" stroke-linecap="round" stroke-linejoin="round" />
<path d="M 151.5 136.5 L 152.0 136.5 L 153.0 137.0 L 153.5 137.0 L 154.0 138.0 L 154.5 141.0 L 154.5 147.5 L 154.5 159.5 L 154.5 172.5 L 154.5 181.0 L 154.5 186.5 L 154.5 189.0 L 154.0 190.0 L 153.5 190.0 " stroke="black" fill="none" stroke-width="6.0" stroke-linecap="round" stroke-linejoin="round" />
<path d="M 172.5 115.5 L 172.5 115.5 L 173.0 115.5 L 173.0 115.5 L 173.5 115.5 L 173.0 118.0 L 171.0 124.0 L 168.5 131.0 L 166.5 135.5 L 165.5 137.5 L 165.0 137.5 " stroke="black" fill="none" stroke-width="6.0" stroke-linecap="round" stroke-linejoin="round" />
<path d="M 168.5 131.5 L 169.0 132.5 L 169.0 133.0 L 170.0 133.5 L 172.0 134.5 L 174.5 135.5 L 177.0 137.5 L 178.5 139.0 " stroke="black" fill="none" stroke-width="6.0" stroke-linecap="round" stroke-linejoin="round" />
<path d="M 189.0 119.0 L 189.5 119.0 L 190.0 118.5 L 190.0 118.5 L 190.0 118.5 L 190.0 120.0 L 188.5 125.0 L 186.0 132.0 L 184.0 137.0 L 184.0 140.0 " stroke="black" fill="none" stroke-width="6.0" stroke-linecap="round" stroke-linejoin="round" />
<path d="M 188.0 132.0 L 188.0 132.5 L 188.0 133.5 L 188.5 134.5 L 190.0 135.5 L 192.5 136.0 L 194.0 136.5 L 195.0 137.0 L 195.5 137.0 " stroke="black" fill="none" stroke-width="6.0" stroke-linecap="round" stroke-linejoin="round" />
<path d="M 185.0 153.0 L 185.0 153.0 L 185.0 153.0 L 185.0 153.5 L 185.0 156.0 L 185.0 162.0 L 185.0 169.0 L 185.0 173.0 L 185.0 173.5 " stroke="black" fill="none" stroke-width="6.0" stroke-linecap="round" stroke-linejoin="round" />
<path d="M 186.0 163.0 L 186.0 162.5 L 187.0 161.5 L 189.0 161.0 L 191.5 161.0 L 194.0 160.5 L 195.0 160.5 L 195.0 160.5 " stroke="black" fill="none" stroke-width="6.0" stroke-linecap="round" stroke-linejoin="round" />
<path d="M 169.5 158.0 L 169.5 158.0 L 170.0 157.5 L 170.0 157.0 L 170.0 157.0 L 170.0 157.0 L 170.0 159.0 L 169.0 165.5 L 167.0 174.0 L 166.0 179.5 L 165.5 180.5 L 165.5 179.0 " stroke="black" fill="none" stroke-width="6.0" stroke-linecap="round" stroke-linejoin="round" />
<path d="M 169.0 171.5 L 169.5 171.5 L 170.0 171.5 L 171.0 172.0 L 172.5 172.5 L 175.5 174.0 L 182.0 175.0 L 190.5 176.5 L 200.0 177.0 L 207.0 177.0 L 209.0 177.0 L 209.0 177.0 " stroke="black" fill="none" stroke-width="6.0" stroke-linecap="round" stroke-linejoin="round" />
</svg>