<svg xmlns="http://www.w3.org/2000/svg" width="300" height="300" viewBox="0 0 300 300">
<path d="M 130.0 106.5 L 130.0 106.5 L 131.0 106.0 L 132.0 105.5 L 132.5 104.5 L 133.0 104.5 L 133.5 105.0 L 133.0 108.0 L 130.5 114.5 L 126.5 123.5 L 122.5 130.0 L 121.0 131.0 L 121.0 128.5 L 121.0 126.5 " stroke="black" fill="none" stroke-width="6.0" stroke-linecap="round" stroke-linejoin="round" />
<path d="M 130.0 115.5 L 130.0 116.0 L 129.0 117.0 L 129.0 117.5 L 129.5 117.5 L 131.5 118.0 L 134.5 118.0 L 139.5 118.0 L 147.5 116.5 L 155.5 115.5 L 162.0 114.5 L 165.5 114.0 L 166.5 114.0 L 166.5 114.0 L 166.0 114.0 L 166.0 114.0 L 166.0 114.5 L 166.0 114.5 L 166.5 114.5 L 166.5 115.0 L 166.5 115.5 L 167.0 116.5 L 167.0 118.0 L 167.0 122.0 L 167.5 128.5 L 168.0 138.0 L 168.5 149.0 L 169.0 159.5 L 169.0 167.5 L 168.5 172.5 L 167.5 175.0 L 166.5 175.0 L 165.0 174.5 L 162.0 172.5 L 158.5 169.5 L 157.0 168.5 " stroke="black" fill="none" stroke-width="6.0" stroke-linecap="round" stroke-linejoin="round" />
<path d="M 141.5 123.0 L 142.0 122.0 L 142.5 121.0 L 143.0 121.0 L 143.5 121.0 L 143.5 122.5 L 142.0 127.5 L 139.0 134.5 L 134.5 140.5 L 131.5 143.0 L 131.0 141.0 " stroke="black" fill="none" stroke-width="6.0" stroke-linecap="round" stroke-linejoin="round" />
<path d="M 154.0 123.5 L 154.0 123.5 L 155.0 123.0 L 155.5 123.0 L 156.0 123.0 L 156.5 123.5 L 156.5 126.5 L 156.0 132.5 L 152.5 142.0 L 147.5 151.0 L 142.5 155.5 L 140.5 156.5 L 140.5 155.5 " stroke="black" fill="none" stroke-width="6.0" stroke-linecap="round" stroke-linejoin="round" />
<path d="M 127.5 176.5 L 128.0 176.5 L 128.5 176.5 L 129.5 176.5 L 130.0 176.5 L 130.0 177.0 L 129.5 180.5 L 127.5 185.5 L 125.0 189.5 L 123.5 191.5 L 123.5 191.5 " stroke="black" fill="none" stroke-width="6.0" stroke-linecap="round" stroke-linejoin="round" />
<path d="M 140.0 180.5 L 140.0 181.0 L 140.0 182.0 L 140.0 182.5 L 140.0 183.5 L 140.0 186.5 L 140.5 190.5 L 143.0 195.0 L 147.5 198.0 L 153.5 198.0 L 160.0 197.0 L 165.0 195.0 L 167.0 194.0 L 167.5 193.5 L 167.0 192.5 L 166.0 191.5 L 165.5 191.0 L 164.5 191.0 " stroke="black" fill="none" stroke-width="6.0" stroke-linecap="round" stroke-linejoin="round" />
<path d="M 153.5 183.0 L 153.0 184.0 L 153.0 184.5 L 153.0 184.5 L 155.5 185.0 L 158.5 185.0 L 161.0 185.0 " stroke="black" fill="none" stroke-width="6.0" stroke-linecap="round" stroke-linejoin="round" />
<path d="M 181.0 187.0 L 181.0 187.0 L 181.0 187.0 L 181.0 187.0 L 182.5 188.0 L 184.5 189.5 L 186.5 191.0 L 187.0 191.5 " stroke="black" fill="none" stroke-width="6.0" stroke-linecap="round" stroke-linejoin="round" />
</svg>