<svg xmlns="http://www.w3.org/2000/svg" width="300" height="300" viewBox="0 0 300 300">
<path d="M 146.5 115.5 L 146.5 115.5 L 146.0 115.5 L 145.5 115.5 L 146.5 115.5 L 152.0 114.5 L 161.0 113.5 L 169.0 112.5 L 173.0 111.5 L 173.5 111.0 L 173.5 111.0 " stroke="black" fill="none" stroke-width="6.0" stroke-linecap="round" stroke-linejoin="round" />
<path d="M 159.0 104.0 L 159.0 104.0 L 159.0 103.5 L 158.5 103.5 L 158.5 105.0 L 159.5 110.5 L 161.0 117.0 L 162.0 122.0 L 162.5 125.0 L 162.5 125.0 " stroke="black" fill="none" stroke-width="6.0" stroke-linecap="round" stroke-linejoin="round" />
<path d="M 144.0 128.5 L 143.5 128.5 L 142.5 128.5 L 143.0 128.5 L 148.5 127.5 L 158.0 125.5 L 168.5 125.5 L 176.0 126.5 L 179.5 127.5 " stroke="black" fill="none" stroke-width="6.0" stroke-linecap="round" stroke-linejoin="round" />
<path d="M 151.5 135.0 L 151.5 135.0 L 151.5 135.5 L 151.5 136.0 L 152.0 136.0 L 153.5 137.0 L 155.5 139.0 L 158.0 141.0 L 160.0 143.0 L 162.0 143.5 " stroke="black" fill="none" stroke-width="6.0" stroke-linecap="round" stroke-linejoin="round" />
<path d="M 170.0 133.0 L 170.0 133.5 L 170.0 133.5 L 170.0 133.5 L 170.0 134.0 L 169.0 136.0 L 168.0 139.5 L 166.0 142.5 L 165.5 143.0 " stroke="black" fill="none" stroke-width="6.0" stroke-linecap="round" stroke-linejoin="round" />
<path d="M 147.0 149.0 L 145.5 149.0 L 145.0 149.5 L 148.5 149.5 L 155.5 148.5 L 164.0 148.0 L 171.5 148.0 L 175.0 148.0 " stroke="black" fill="none" stroke-width="6.0" stroke-linecap="round" stroke-linejoin="round" />
<path d="M 156.5 161.0 L 156.5 161.0 L 156.5 161.0 L 156.5 161.0 L 157.0 160.5 L 160.5 160.5 L 165.0 160.0 L 169.0 160.0 L 170.5 160.0 " stroke="black" fill="none" stroke-width="6.0" stroke-linecap="round" stroke-linejoin="round" />
<path d="M 152.0 172.0 L 152.0 172.5 L 151.5 173.0 L 151.5 173.0 L 154.0 173.0 L 161.0 172.0 L 169.0 170.5 L 173.0 170.0 " stroke="black" fill="none" stroke-width="6.0" stroke-linecap="round" stroke-linejoin="round" />
<path d="M 165.0 150.5 L 164.5 150.5 L 163.5 150.5 L 163.0 151.0 L 162.5 153.5 L 163.5 161.0 L 165.5 172.0 L 166.5 181.5 L 167.0 185.5 L 167.0 186.0 L 167.0 185.5 " stroke="black" fill="none" stroke-width="6.0" stroke-linecap="round" stroke-linejoin="round" />
<path d="M 125.5 109.0 L 125.0 110.0 L 124.5 110.5 L 124.5 111.0 L 126.5 112.0 L 129.5 114.0 L 132.0 116.5 L 132.5 117.5 " stroke="black" fill="none" stroke-width="6.0" stroke-linecap="round" stroke-linejoin="round" />
<path d="M 131.0 126.5 L 130.0 128.0 L 129.5 129.5 L 131.0 131.0 L 132.5 134.0 L 133.0 138.0 L 131.0 143.5 L 128.0 148.0 L 127.5 150.0 L 129.5 150.5 L 133.5 152.0 L 137.0 156.0 L 138.0 162.0 L 136.5 170.0 L 132.5 176.5 L 128.5 179.5 L 125.0 180.5 L 122.5 179.5 L 120.5 179.0 L 120.0 179.0 L 120.0 180.5 L 120.5 181.5 L 123.0 182.0 L 128.5 182.0 L 135.5 182.0 L 146.0 183.5 L 158.5 185.5 L 170.0 186.5 L 178.5 188.0 L 184.5 189.5 L 187.5 190.0 L 189.5 190.5 L 190.5 190.0 " stroke="black" fill="none" stroke-width="6.0" stroke-linecap="round" stroke-linejoin="round" />
</svg>