<svg xmlns="http://www.w3.org/2000/svg" width="300" height="300" viewBox="0 0 300 300">
<path d="M 127.0 115.0 L 127.0 115.0 L 127.0 115.0 L 127.0 115.5 L 127.0 115.5 L 127.0 115.5 L 127.0 115.5 L 128.0 115.5 L 130.5 115.5 L 136.0 115.5 L 144.5 115.0 L 152.5 114.5 L 159.5 114.0 L 164.0 114.0 L 165.5 114.5 L 166.0 115.0 L 166.0 115.0 L 166.0 115.0 L 166.5 115.0 L 166.5 115.0 L 167.0 115.0 L 167.0 115.0 L 167.0 115.0 L 167.0 115.0 " stroke="black" fill="none" stroke-width="6.0" stroke-linecap="round" stroke-linejoin="round" />
<path d="M 126.0 115.5 L 126.5 114.5 L 127.0 114.0 L 127.5 113.5 L 127.5 113.5 L 128.0 114.5 L 128.5 117.5 L 128.5 122.5 L 128.5 129.0 L 127.0 137.5 L 124.5 145.5 L 121.5 151.0 L 119.0 154.5 L 118.0 155.0 L 118.0 155.0 L 117.5 154.0 L 117.5 154.0 " stroke="black" fill="none" stroke-width="6.0" stroke-linecap="round" stroke-linejoin="round" />
<path d="M 149.5 106.0 L 149.5 106.0 L 149.5 106.0 L 150.0 106.0 L 150.5 106.0 L 151.0 106.5 L 152.0 108.0 L 153.0 112.0 L 154.5 120.5 L 156.5 131.5 L 159.0 142.0 L 161.5 150.0 L 164.0 153.0 L 166.5 154.5 L 168.5 154.5 L 171.5 154.0 L 174.5 151.0 L 176.5 147.5 L 178.0 144.5 L 179.0 142.0 L 179.0 141.5 L 178.0 141.5 " stroke="black" fill="none" stroke-width="6.0" stroke-linecap="round" stroke-linejoin="round" />
<path d="M 165.5 131.0 L 165.5 131.0 L 166.0 131.0 L 166.0 131.0 L 166.0 131.0 L 166.0 131.0 L 166.0 131.5 L 163.5 135.5 L 157.0 143.0 L 149.5 151.0 L 145.5 154.0 L 145.0 154.5 L 145.5 153.5 " stroke="black" fill="none" stroke-width="6.0" stroke-linecap="round" stroke-linejoin="round" />
<path d="M 138.5 131.5 L 138.0 131.5 L 136.5 132.0 L 135.5 132.5 L 135.5 132.5 L 135.5 132.5 L 138.0 131.5 L 140.5 131.0 L 143.0 131.0 L 145.0 131.0 L 146.5 131.0 L 147.0 132.0 L 147.0 133.0 L 146.0 135.0 L 144.5 137.5 L 143.0 140.0 L 142.0 142.5 L 141.0 144.5 L 140.0 146.0 L 139.0 146.5 L 138.0 146.5 L 137.0 145.5 L 136.5 144.0 " stroke="black" fill="none" stroke-width="6.0" stroke-linecap="round" stroke-linejoin="round" />
<path d="M 166.0 100.5 L 166.0 100.0 L 165.5 99.5 L 165.0 99.0 L 165.0 99.0 L 166.5 101.0 L 168.0 104.0 L 169.0 106.0 L 169.0 106.5 " stroke="black" fill="none" stroke-width="6.0" stroke-linecap="round" stroke-linejoin="round" />
<path d="M 124.5 168.5 L 124.5 167.5 L 124.5 166.5 L 124.0 165.5 L 124.0 165.5 L 124.0 166.0 L 126.0 171.0 L 128.0 177.5 L 130.0 182.0 L 131.0 183.0 L 131.0 181.5 L 130.0 176.0 L 130.0 174.5 " stroke="black" fill="none" stroke-width="6.0" stroke-linecap="round" stroke-linejoin="round" />
<path d="M 127.0 167.5 L 126.5 167.5 L 126.0 168.0 L 125.5 168.0 L 125.0 168.0 L 125.0 168.0 L 126.0 168.0 L 129.0 168.5 L 136.0 168.5 L 147.0 167.5 L 159.0 167.0 L 166.5 167.5 L 170.5 168.5 L 172.0 169.0 L 172.0 169.0 L 172.0 169.0 L 172.0 169.0 L 172.0 169.0 L 172.0 169.0 L 172.0 169.0 L 172.0 169.0 L 172.0 169.0 L 171.5 169.0 L 171.5 170.0 L 171.0 172.0 L 170.5 175.0 L 170.0 179.5 L 169.5 182.5 L 169.5 184.0 L 169.5 183.5 " stroke="black" fill="none" stroke-width="6.0" stroke-linecap="round" stroke-linejoin="round" />
<path d="M 143.5 169.0 L 143.5 169.0 L 143.5 168.5 L 143.5 168.0 L 144.0 167.5 L 144.0 167.5 L 144.5 170.0 L 145.0 173.5 L 145.5 177.0 L 146.0 179.0 " stroke="black" fill="none" stroke-width="6.0" stroke-linecap="round" stroke-linejoin="round" />
<path d="M 154.0 168.5 L 154.5 168.5 L 155.0 168.5 L 155.0 169.0 L 155.5 170.5 L 155.5 174.0 L 155.5 178.5 L 155.0 181.5 L 154.5 183.0 " stroke="black" fill="none" stroke-width="6.0" stroke-linecap="round" stroke-linejoin="round" />
<path d="M 121.0 187.0 L 121.0 187.5 L 120.0 188.0 L 120.0 188.0 L 119.5 188.5 L 119.5 188.5 L 119.5 188.5 L 119.5 188.5 L 120.0 188.0 L 121.5 188.0 L 125.0 187.5 L 131.5 186.5 L 142.0 185.5 L 152.0 185.0 L 160.5 185.0 L 167.0 185.0 L 172.5 185.0 L 176.5 185.5 L 180.0 186.0 L 183.0 186.0 L 185.0 186.5 L 186.0 186.5 L 186.5 186.5 L 186.5 186.5 L 186.5 186.5 L 186.5 186.5 L 186.5 186.5 L 186.5 186.5 L 186.5 186.5 L 186.0 186.5 L 186.0 186.5 L 186.0 186.5 L 186.0 186.5 " stroke="black" fill="none" stroke-width="6.0" stroke-linecap="round" stroke-linejoin="round" />
</svg>