<svg xmlns="http://www.w3.org/2000/svg" width="300" height="300" viewBox="0 0 300 300">
<path d="M 147.0 104.0 L 145.5 104.0 L 144.5 103.5 L 144.5 103.0 L 144.5 103.0 L 145.5 104.0 L 147.5 106.0 L 149.5 107.0 L 150.5 108.5 L 151.5 109.0 L 152.0 109.0 " stroke="black" fill="none" stroke-width="6.0" stroke-linecap="round" stroke-linejoin="round" />
<path d="M 130.5 115.0 L 130.5 115.0 L 130.5 115.0 L 131.5 114.5 L 136.0 114.5 L 146.5 114.5 L 157.0 114.5 L 164.5 114.0 L 167.5 114.5 L 167.5 116.0 L 167.0 117.0 " stroke="black" fill="none" stroke-width="6.0" stroke-linecap="round" stroke-linejoin="round" />
<path d="M 140.0 123.0 L 139.5 122.0 L 139.5 122.0 L 139.0 121.5 L 139.5 121.5 L 141.5 123.5 L 143.5 125.5 L 145.5 127.0 L 147.5 127.5 " stroke="black" fill="none" stroke-width="6.0" stroke-linecap="round" stroke-linejoin="round" />
<path d="M 156.5 123.0 L 156.5 123.0 L 157.0 122.5 L 157.0 122.5 L 157.0 122.5 L 157.0 122.5 L 156.0 124.5 L 155.0 127.0 L 154.0 128.0 " stroke="black" fill="none" stroke-width="6.0" stroke-linecap="round" stroke-linejoin="round" />
<path d="M 131.5 136.5 L 131.5 136.0 L 131.5 136.0 L 131.5 135.5 L 134.5 135.5 L 142.0 135.5 L 152.5 135.0 L 161.0 134.5 L 163.5 134.5 L 164.5 134.5 " stroke="black" fill="none" stroke-width="6.0" stroke-linecap="round" stroke-linejoin="round" />
<path d="M 136.5 146.5 L 136.5 146.5 L 137.0 146.5 L 137.0 146.5 L 138.0 149.0 L 139.0 155.0 L 140.0 162.0 L 140.5 166.5 L 140.5 167.5 L 140.5 167.5 " stroke="black" fill="none" stroke-width="6.0" stroke-linecap="round" stroke-linejoin="round" />
<path d="M 140.0 148.5 L 139.0 148.5 L 138.5 148.5 L 138.0 148.5 L 138.0 148.5 L 139.0 148.5 L 142.0 148.0 L 147.0 147.5 L 152.0 147.5 L 157.0 147.5 L 161.5 147.0 L 165.0 147.0 L 166.5 147.0 L 167.0 147.0 L 167.0 147.0 L 166.5 147.0 L 166.5 147.0 L 166.0 147.0 L 166.0 147.5 L 166.0 149.0 L 165.0 152.5 L 164.5 157.5 L 163.5 162.5 L 163.0 166.5 L 163.0 167.5 " stroke="black" fill="none" stroke-width="6.0" stroke-linecap="round" stroke-linejoin="round" />
<path d="M 144.5 158.5 L 143.5 159.0 L 143.0 159.0 L 143.0 159.0 L 145.0 159.0 L 148.5 158.5 L 153.0 158.5 L 156.5 158.0 L 159.5 158.0 L 160.0 158.0 " stroke="black" fill="none" stroke-width="6.0" stroke-linecap="round" stroke-linejoin="round" />
<path d="M 147.5 168.0 L 146.5 168.0 L 145.5 168.0 L 145.5 168.0 L 147.0 168.0 L 150.5 168.0 L 154.5 168.0 L 158.0 168.0 L 161.5 168.0 L 162.0 168.0 " stroke="black" fill="none" stroke-width="6.0" stroke-linecap="round" stroke-linejoin="round" />
<path d="M 129.5 183.0 L 130.0 182.5 L 130.0 182.0 L 130.5 182.0 L 130.5 182.0 L 130.5 182.5 L 129.5 184.5 L 128.0 186.5 L 127.0 188.0 L 127.0 188.5 " stroke="black" fill="none" stroke-width="6.0" stroke-linecap="round" stroke-linejoin="round" />
<path d="M 143.0 181.5 L 143.0 181.0 L 142.5 180.5 L 142.5 180.5 L 142.5 180.5 L 142.0 182.5 L 142.0 186.0 L 142.0 190.0 L 143.0 193.5 L 145.5 196.0 L 149.5 197.0 L 155.0 197.0 L 160.0 196.0 L 163.0 195.0 L 164.5 193.5 L 165.0 192.5 L 165.0 192.0 L 164.5 191.5 L 164.5 191.0 L 164.0 191.0 L 164.0 191.0 L 164.0 191.0 " stroke="black" fill="none" stroke-width="6.0" stroke-linecap="round" stroke-linejoin="round" />
<path d="M 157.5 178.5 L 157.5 178.5 L 157.0 179.0 L 156.5 179.5 L 156.5 179.5 L 156.5 179.5 L 157.5 180.5 L 159.0 181.5 L 161.0 182.5 L 161.0 183.0 " stroke="black" fill="none" stroke-width="6.0" stroke-linecap="round" stroke-linejoin="round" />
<path d="M 175.0 181.5 L 175.0 181.5 L 176.0 181.5 L 176.5 182.0 L 178.5 183.0 L 181.0 185.0 L 184.5 189.0 L 186.5 192.5 " stroke="black" fill="none" stroke-width="6.0" stroke-linecap="round" stroke-linejoin="round" />
</svg>