<svg xmlns="http://www.w3.org/2000/svg" width="300" height="300" viewBox="0 0 300 300">
<path d="M 124.5 122.5 L 124.5 122.5 L 124.5 121.5 L 124.5 121.5 L 126.5 121.5 L 131.0 121.5 L 136.5 121.5 L 141.0 121.5 L 143.0 121.0 L 143.0 119.5 " stroke="black" fill="none" stroke-width="6.0" stroke-linecap="round" stroke-linejoin="round" />
<path d="M 135.5 111.5 L 134.5 111.5 L 133.5 111.5 L 133.5 112.0 L 134.0 114.5 L 135.0 120.0 L 136.0 125.5 L 137.0 129.0 L 137.5 130.5 " stroke="black" fill="none" stroke-width="6.0" stroke-linecap="round" stroke-linejoin="round" />
<path d="M 125.0 136.5 L 125.5 136.5 L 126.0 135.5 L 126.0 135.0 L 126.0 135.0 L 126.5 137.5 L 126.5 142.0 L 126.5 147.5 L 126.5 152.0 L 126.5 153.5 L 126.5 153.5 " stroke="black" fill="none" stroke-width="6.0" stroke-linecap="round" stroke-linejoin="round" />
<path d="M 127.5 134.5 L 127.0 135.0 L 126.5 135.5 L 126.0 136.0 L 126.5 136.0 L 129.0 135.5 L 133.5 134.5 L 138.5 134.0 L 143.5 134.0 L 147.0 134.0 L 149.0 134.5 L 150.0 134.5 L 150.0 134.5 L 149.5 135.0 L 148.5 138.0 L 147.5 143.0 L 147.0 148.5 L 146.5 153.0 L 146.5 156.0 L 146.5 156.5 L 146.5 156.0 " stroke="black" fill="none" stroke-width="6.0" stroke-linecap="round" stroke-linejoin="round" />
<path d="M 131.0 147.0 L 130.5 147.0 L 129.0 147.0 L 128.5 147.0 L 129.5 146.5 L 132.0 146.0 L 135.5 146.0 L 138.5 146.0 L 141.5 146.0 L 144.0 146.5 " stroke="black" fill="none" stroke-width="6.0" stroke-linecap="round" stroke-linejoin="round" />
<path d="M 128.5 157.0 L 128.5 157.0 L 128.0 157.5 L 127.5 157.5 L 129.0 157.5 L 133.0 157.5 L 138.0 157.5 L 143.0 158.0 L 146.0 158.5 " stroke="black" fill="none" stroke-width="6.0" stroke-linecap="round" stroke-linejoin="round" />
<path d="M 125.5 172.0 L 125.0 173.0 L 125.0 173.0 L 125.0 173.5 L 126.5 173.5 L 130.5 173.5 L 136.0 173.5 L 141.0 173.5 L 144.0 173.5 L 145.0 172.5 " stroke="black" fill="none" stroke-width="6.0" stroke-linecap="round" stroke-linejoin="round" />
<path d="M 136.0 163.0 L 135.0 162.5 L 134.5 162.5 L 134.5 162.5 L 134.5 164.5 L 135.5 171.5 L 136.0 184.5 L 136.5 197.0 L 136.0 202.5 L 135.5 201.5 " stroke="black" fill="none" stroke-width="6.0" stroke-linecap="round" stroke-linejoin="round" />
<path d="M 158.0 123.0 L 158.0 123.0 L 157.5 122.5 L 157.5 123.0 L 158.0 127.5 L 158.5 140.0 L 159.0 158.5 L 158.5 172.0 L 158.0 177.0 L 157.5 176.0 L 156.5 174.0 " stroke="black" fill="none" stroke-width="6.0" stroke-linecap="round" stroke-linejoin="round" />
<path d="M 161.0 123.5 L 160.0 123.5 L 159.0 123.5 L 158.5 123.5 L 159.5 123.5 L 163.0 123.5 L 167.5 122.0 L 171.5 120.5 L 175.0 120.0 L 177.0 120.0 L 178.0 120.5 L 178.5 123.5 L 178.5 129.0 L 177.5 139.5 L 176.0 154.0 L 176.0 169.0 L 176.0 179.0 L 176.0 185.5 L 176.0 190.0 L 176.0 192.0 L 174.5 192.5 L 172.0 190.5 L 169.0 186.5 " stroke="black" fill="none" stroke-width="6.0" stroke-linecap="round" stroke-linejoin="round" />
<path d="M 160.0 145.0 L 160.0 145.0 L 158.5 144.5 L 158.5 144.5 L 160.0 144.0 L 163.5 143.0 L 167.0 142.5 L 169.5 142.5 L 171.0 144.0 " stroke="black" fill="none" stroke-width="6.0" stroke-linecap="round" stroke-linejoin="round" />
<path d="M 163.0 158.5 L 161.5 159.5 L 161.0 160.5 L 161.5 160.5 L 164.5 160.5 L 168.5 160.5 L 171.5 160.5 L 174.5 160.0 L 175.5 160.0 " stroke="black" fill="none" stroke-width="6.0" stroke-linecap="round" stroke-linejoin="round" />
</svg>