<svg xmlns="http://www.w3.org/2000/svg" width="300" height="300" viewBox="0 0 300 300">
<path d="M 125.0 115.5 L 125.0 115.5 L 125.0 115.5 L 125.0 115.5 L 128.0 116.0 L 133.5 116.0 L 140.0 116.0 L 144.0 116.0 L 145.5 116.0 L 145.5 116.0 " stroke="black" fill="none" stroke-width="6.0" stroke-linecap="round" stroke-linejoin="round" />
<path d="M 136.5 104.5 L 136.5 104.5 L 136.5 104.5 L 136.5 104.5 L 136.5 104.5 L 136.5 104.5 L 136.5 107.5 L 137.0 114.0 L 137.5 120.5 L 137.5 122.5 " stroke="black" fill="none" stroke-width="6.0" stroke-linecap="round" stroke-linejoin="round" />
<path d="M 126.5 128.5 L 126.5 128.5 L 126.5 128.5 L 126.5 128.5 L 126.5 128.0 L 126.5 128.0 L 126.5 131.5 L 127.5 140.0 L 127.5 148.0 L 128.0 152.0 L 128.0 151.5 L 128.0 150.5 " stroke="black" fill="none" stroke-width="6.0" stroke-linecap="round" stroke-linejoin="round" />
<path d="M 128.0 129.5 L 127.5 130.5 L 127.0 131.5 L 127.0 131.5 L 127.5 131.5 L 130.5 131.0 L 135.0 130.0 L 140.0 129.0 L 145.0 128.5 L 148.5 128.5 L 150.0 128.5 L 150.5 129.0 L 150.5 129.5 L 150.5 130.0 L 150.5 131.5 L 150.5 134.5 L 150.0 139.0 L 149.0 145.5 L 148.5 150.5 L 148.5 153.0 L 148.5 153.0 " stroke="black" fill="none" stroke-width="6.0" stroke-linecap="round" stroke-linejoin="round" />
<path d="M 132.5 143.0 L 132.0 143.0 L 131.5 143.5 L 131.5 143.5 L 133.5 143.5 L 137.5 143.0 L 141.0 142.5 L 144.0 142.5 L 145.5 142.5 " stroke="black" fill="none" stroke-width="6.0" stroke-linecap="round" stroke-linejoin="round" />
<path d="M 129.5 156.5 L 129.5 156.5 L 129.5 156.5 L 131.0 156.5 L 134.5 156.5 L 139.5 155.5 L 143.5 155.5 L 144.5 155.5 " stroke="black" fill="none" stroke-width="6.0" stroke-linecap="round" stroke-linejoin="round" />
<path d="M 127.0 172.5 L 126.0 173.5 L 126.0 174.0 L 126.5 174.0 L 130.0 173.5 L 135.0 172.5 L 140.5 172.0 L 145.0 171.5 L 146.0 171.5 " stroke="black" fill="none" stroke-width="6.0" stroke-linecap="round" stroke-linejoin="round" />
<path d="M 139.5 163.0 L 139.5 163.0 L 139.5 162.5 L 139.5 162.0 L 139.5 162.0 L 139.5 163.0 L 139.5 167.5 L 139.0 177.0 L 137.5 190.0 L 137.0 198.5 L 137.0 200.0 L 137.5 199.0 " stroke="black" fill="none" stroke-width="6.0" stroke-linecap="round" stroke-linejoin="round" />
<path d="M 159.5 114.0 L 159.5 114.0 L 159.0 114.0 L 159.0 114.0 L 159.0 114.0 L 159.0 118.0 L 159.5 133.0 L 158.5 154.0 L 157.0 169.0 L 156.5 175.5 L 156.5 177.0 L 157.0 176.5 " stroke="black" fill="none" stroke-width="6.0" stroke-linecap="round" stroke-linejoin="round" />
<path d="M 158.0 118.0 L 158.0 118.0 L 158.0 118.0 L 158.0 118.0 L 158.0 118.0 L 159.0 117.0 L 161.5 115.5 L 164.5 113.5 L 167.0 112.0 L 170.0 111.0 L 172.0 110.5 L 173.0 111.0 L 174.0 113.0 L 174.5 115.0 L 175.0 118.0 L 175.5 123.5 L 176.5 131.0 L 177.5 140.5 L 178.5 149.0 L 179.0 157.5 L 179.5 166.0 L 179.5 173.0 L 179.5 178.5 L 179.0 182.5 L 178.5 184.0 L 177.5 183.5 L 176.0 181.5 " stroke="black" fill="none" stroke-width="6.0" stroke-linecap="round" stroke-linejoin="round" />
<path d="M 164.0 134.5 L 163.5 134.5 L 163.5 135.0 L 164.0 135.5 L 166.5 135.5 L 170.5 135.0 L 173.5 134.0 L 175.5 134.0 L 176.0 134.0 " stroke="black" fill="none" stroke-width="6.0" stroke-linecap="round" stroke-linejoin="round" />
<path d="M 163.0 155.5 L 163.0 156.0 L 162.5 156.5 L 162.5 156.5 L 163.5 156.5 L 167.5 156.5 L 172.0 155.5 L 176.0 154.5 L 179.0 153.5 L 181.5 151.5 " stroke="black" fill="none" stroke-width="6.0" stroke-linecap="round" stroke-linejoin="round" />
</svg>