<svg xmlns="http://www.w3.org/2000/svg" width="300" height="300" viewBox="0 0 300 300">
<path d="M 125.0 113.5 L 124.0 113.5 L 122.0 113.5 L 121.5 113.5 L 121.5 114.0 L 124.0 114.0 L 128.5 114.0 L 134.0 114.0 L 137.5 114.0 L 140.0 114.0 L 140.0 114.0 " stroke="black" fill="none" stroke-width="6.0" stroke-linecap="round" stroke-linejoin="round" />
<path d="M 133.5 103.5 L 134.0 103.5 L 134.5 103.5 L 134.5 104.5 L 134.5 108.0 L 134.5 114.5 L 134.5 121.0 L 134.5 125.0 L 134.5 126.0 " stroke="black" fill="none" stroke-width="6.0" stroke-linecap="round" stroke-linejoin="round" />
<path d="M 124.0 132.5 L 124.0 132.0 L 123.0 131.5 L 123.0 131.0 L 123.0 131.0 L 123.5 133.0 L 124.5 138.0 L 125.5 144.5 L 126.5 148.5 L 127.0 149.5 L 127.0 149.5 " stroke="black" fill="none" stroke-width="6.0" stroke-linecap="round" stroke-linejoin="round" />
<path d="M 125.5 131.0 L 125.0 131.5 L 124.5 131.5 L 124.5 131.5 L 126.0 131.5 L 129.5 131.0 L 134.5 129.5 L 140.0 128.5 L 144.5 128.5 L 146.5 129.0 L 147.5 131.0 L 147.5 133.5 L 147.0 136.5 L 146.0 140.5 L 144.5 145.0 L 144.0 149.0 L 143.5 151.0 L 143.5 151.5 L 143.5 151.5 " stroke="black" fill="none" stroke-width="6.0" stroke-linecap="round" stroke-linejoin="round" />
<path d="M 129.5 143.5 L 129.5 143.5 L 129.0 144.0 L 128.5 144.0 L 131.0 143.5 L 135.0 142.0 L 139.0 141.0 L 142.0 140.5 L 143.0 141.0 " stroke="black" fill="none" stroke-width="6.0" stroke-linecap="round" stroke-linejoin="round" />
<path d="M 130.5 152.0 L 130.0 153.0 L 129.5 153.5 L 130.0 153.5 L 133.0 153.0 L 136.5 152.0 L 140.5 151.5 L 143.5 151.0 " stroke="black" fill="none" stroke-width="6.0" stroke-linecap="round" stroke-linejoin="round" />
<path d="M 125.0 168.0 L 124.0 168.0 L 123.5 168.0 L 124.5 168.0 L 130.0 168.0 L 137.0 167.5 L 143.5 167.5 L 147.5 167.0 L 148.5 167.0 " stroke="black" fill="none" stroke-width="6.0" stroke-linecap="round" stroke-linejoin="round" />
<path d="M 137.0 158.0 L 137.0 158.0 L 137.5 157.5 L 138.0 157.5 L 138.0 159.0 L 138.0 165.5 L 138.0 177.5 L 138.0 188.0 L 138.5 191.5 L 139.5 191.5 " stroke="black" fill="none" stroke-width="6.0" stroke-linecap="round" stroke-linejoin="round" />
<path d="M 161.5 110.5 L 161.5 110.0 L 161.5 109.0 L 161.5 108.5 L 161.5 107.5 L 161.5 107.5 L 162.0 112.5 L 162.5 127.0 L 161.5 150.0 L 160.0 164.0 L 160.5 167.0 L 160.5 166.0 L 160.5 165.0 " stroke="black" fill="none" stroke-width="6.0" stroke-linecap="round" stroke-linejoin="round" />
<path d="M 162.0 108.0 L 162.0 108.0 L 161.0 108.0 L 160.5 108.0 L 161.0 108.0 L 162.5 108.0 L 165.0 107.5 L 168.0 107.0 L 171.0 106.5 L 174.0 106.5 L 176.0 107.0 L 177.0 108.5 L 177.5 111.0 L 177.5 114.5 L 178.0 120.5 L 179.0 127.5 L 180.0 135.0 L 180.5 143.5 L 181.0 153.0 L 181.0 162.0 L 180.0 170.5 L 178.5 177.0 L 177.0 181.0 L 175.5 182.0 L 174.0 180.5 L 172.5 176.0 L 171.5 173.0 " stroke="black" fill="none" stroke-width="6.0" stroke-linecap="round" stroke-linejoin="round" />
<path d="M 165.5 131.0 L 165.0 131.5 L 164.0 132.0 L 164.0 132.0 L 165.0 132.0 L 168.5 131.5 L 172.0 131.0 L 175.5 130.0 L 177.5 130.0 L 177.5 130.0 " stroke="black" fill="none" stroke-width="6.0" stroke-linecap="round" stroke-linejoin="round" />
<path d="M 168.0 145.5 L 166.5 147.0 L 166.5 147.0 L 169.5 147.0 L 173.0 146.5 L 176.5 145.5 L 177.0 145.0 " stroke="black" fill="none" stroke-width="6.0" stroke-linecap="round" stroke-linejoin="round" />
</svg>