<svg xmlns="http://www.w3.org/2000/svg" width="300" height="300" viewBox="0 0 300 300">
<path d="M 141.0 103.0 L 141.0 102.5 L 140.0 102.0 L 139.5 102.0 L 140.5 102.0 L 143.5 103.5 L 147.0 106.0 L 150.0 107.5 L 152.0 108.5 L 153.0 108.5 " stroke="black" fill="none" stroke-width="6.0" stroke-linecap="round" stroke-linejoin="round" />
<path d="M 128.5 116.5 L 128.0 117.5 L 127.0 117.5 L 127.0 117.5 L 129.0 117.5 L 133.5 117.5 L 141.0 117.5 L 149.5 117.5 L 158.0 118.0 L 167.0 118.5 L 168.0 119.0 L 168.0 119.0 L 168.0 119.0 L 168.0 119.0 L 168.0 119.0 L 168.0 119.0 L 168.0 119.0 L 168.5 119.0 L 168.5 120.0 " stroke="black" fill="none" stroke-width="6.0" stroke-linecap="round" stroke-linejoin="round" />
<path d="M 127.0 121.5 L 127.0 121.0 L 127.0 119.5 L 127.0 119.0 L 127.5 119.0 L 128.0 119.5 L 128.5 121.5 L 129.0 126.0 L 129.0 133.5 L 129.0 146.5 L 128.0 158.5 L 125.5 168.5 L 123.5 175.0 L 121.0 178.5 L 119.5 180.5 L 118.5 181.0 L 118.0 181.0 L 118.0 179.0 " stroke="black" fill="none" stroke-width="6.0" stroke-linecap="round" stroke-linejoin="round" />
<path d="M 138.5 133.5 L 138.0 133.5 L 137.0 134.0 L 136.5 134.0 L 136.5 134.0 L 138.0 133.5 L 140.5 133.0 L 144.5 132.5 L 150.0 132.0 L 156.0 131.5 L 161.0 130.5 L 163.0 130.5 L 163.5 130.5 L 163.0 130.5 L 163.0 130.5 L 163.0 131.0 L 163.0 132.0 L 163.0 133.5 L 162.5 136.0 L 162.5 139.0 L 162.0 142.0 L 162.0 143.5 L 162.0 144.0 L 161.5 144.0 " stroke="black" fill="none" stroke-width="6.0" stroke-linecap="round" stroke-linejoin="round" />
<path d="M 144.0 125.5 L 144.0 125.0 L 144.0 124.0 L 144.0 123.5 L 144.0 123.5 L 144.0 126.5 L 143.5 132.5 L 143.5 139.0 L 143.5 142.5 L 143.5 143.5 " stroke="black" fill="none" stroke-width="6.0" stroke-linecap="round" stroke-linejoin="round" />
<path d="M 153.5 123.5 L 154.0 123.5 L 154.0 123.0 L 154.5 123.0 L 154.5 124.0 L 154.5 127.0 L 154.5 131.5 L 154.0 136.5 L 154.0 140.0 L 153.5 141.0 " stroke="black" fill="none" stroke-width="6.0" stroke-linecap="round" stroke-linejoin="round" />
<path d="M 136.0 147.0 L 135.0 146.5 L 134.5 146.0 L 134.5 146.0 L 138.5 145.5 L 144.0 145.5 L 151.0 145.5 L 157.5 145.5 L 162.5 145.5 L 164.5 145.5 " stroke="black" fill="none" stroke-width="6.0" stroke-linecap="round" stroke-linejoin="round" />
<path d="M 145.5 155.5 L 145.5 155.5 L 146.0 156.0 L 146.0 156.0 L 146.0 156.0 L 146.0 156.0 L 144.5 157.0 L 142.0 159.0 L 140.0 160.5 " stroke="black" fill="none" stroke-width="6.0" stroke-linecap="round" stroke-linejoin="round" />
<path d="M 135.0 151.5 L 135.0 151.5 L 135.0 151.5 L 135.0 151.5 L 135.0 151.5 L 135.0 153.5 L 135.0 158.5 L 135.0 164.5 L 135.5 168.5 L 137.0 169.5 L 139.5 169.0 L 142.5 167.0 L 145.0 166.0 L 146.5 165.5 " stroke="black" fill="none" stroke-width="6.0" stroke-linecap="round" stroke-linejoin="round" />
<path d="M 164.5 153.0 L 164.5 153.0 L 164.5 154.5 L 164.5 154.5 L 164.0 155.0 L 163.5 156.0 L 162.0 158.0 L 160.5 160.5 L 159.0 162.0 L 158.5 162.0 " stroke="black" fill="none" stroke-width="6.0" stroke-linecap="round" stroke-linejoin="round" />
<path d="M 154.5 154.0 L 154.5 155.0 L 154.5 156.0 L 154.5 156.5 L 154.5 158.0 L 154.5 161.5 L 154.5 166.0 L 154.5 169.5 L 155.5 170.5 L 157.5 170.5 L 160.0 169.0 L 162.0 168.0 L 162.0 168.0 " stroke="black" fill="none" stroke-width="6.0" stroke-linecap="round" stroke-linejoin="round" />
<path d="M 135.5 179.0 L 135.0 180.0 L 135.0 180.5 L 135.0 180.5 L 136.5 180.5 L 140.5 180.5 L 146.5 180.5 L 151.5 179.5 L 155.0 178.5 L 156.0 177.5 L 156.0 177.0 " stroke="black" fill="none" stroke-width="6.0" stroke-linecap="round" stroke-linejoin="round" />
<path d="M 148.5 172.5 L 148.0 172.5 L 147.5 172.5 L 147.5 172.5 L 147.0 174.5 L 146.5 178.5 L 146.0 183.5 L 146.0 187.5 L 146.0 189.0 " stroke="black" fill="none" stroke-width="6.0" stroke-linecap="round" stroke-linejoin="round" />
<path d="M 126.0 192.5 L 126.0 192.5 L 126.0 192.5 L 126.0 192.0 L 126.0 192.0 L 126.0 191.5 L 126.0 191.5 L 128.0 191.5 L 132.5 191.0 L 140.5 190.0 L 149.0 189.5 L 156.0 189.0 L 160.5 189.0 L 162.0 189.0 L 162.0 189.0 L 162.0 188.5 L 162.0 188.5 L 162.5 188.5 L 163.0 188.5 L 164.0 188.5 L 164.5 188.5 L 165.0 188.5 L 165.0 189.0 L 165.5 189.0 L 165.5 189.0 " stroke="black" fill="none" stroke-width="6.0" stroke-linecap="round" stroke-linejoin="round" />
</svg>