<svg xmlns="http://www.w3.org/2000/svg" width="300" height="300" viewBox="0 0 300 300">
<path d="M 143.5 106.5 L 143.5 106.5 L 142.0 106.5 L 142.0 106.5 L 142.0 106.5 L 144.0 108.0 L 147.0 110.5 L 149.5 112.5 L 151.5 114.0 L 152.5 114.5 L 152.5 114.5 " stroke="black" fill="none" stroke-width="6.0" stroke-linecap="round" stroke-linejoin="round" />
<path d="M 123.0 123.0 L 122.5 123.0 L 121.5 122.5 L 121.5 122.5 L 122.0 122.5 L 125.5 122.5 L 132.0 123.0 L 142.5 123.0 L 154.5 122.5 L 164.0 122.0 L 169.5 122.0 L 171.5 122.0 L 171.5 122.0 L 171.5 122.0 L 171.0 121.5 L 171.0 121.5 L 171.0 121.5 L 170.5 121.5 " stroke="black" fill="none" stroke-width="6.0" stroke-linecap="round" stroke-linejoin="round" />
<path d="M 122.0 126.0 L 122.0 126.0 L 122.0 125.5 L 122.0 125.5 L 122.0 125.0 L 122.0 125.0 L 123.0 127.5 L 123.5 133.0 L 123.5 143.0 L 122.0 156.5 L 119.5 169.0 L 117.0 178.5 L 114.0 187.0 L 111.0 193.5 L 109.0 197.5 L 108.5 198.0 L 108.5 197.5 L 108.5 194.0 L 108.5 193.0 " stroke="black" fill="none" stroke-width="6.0" stroke-linecap="round" stroke-linejoin="round" />
<path d="M 129.5 137.5 L 129.5 137.5 L 129.5 137.5 L 129.5 138.0 L 129.5 138.0 L 130.0 138.0 L 132.0 138.0 L 136.0 137.5 L 141.5 136.5 L 148.0 135.5 L 154.0 134.5 L 159.0 134.0 L 161.5 134.0 L 162.5 134.0 L 162.5 134.5 L 162.5 134.5 L 162.5 134.5 L 163.5 134.5 L 164.5 134.5 L 165.0 134.5 L 166.0 134.5 L 166.5 134.5 L 167.0 134.5 L 167.0 134.5 L 167.0 134.5 L 167.0 134.5 L 167.0 134.5 L 167.0 134.5 L 167.0 134.5 L 167.0 134.5 L 167.0 134.5 L 167.0 135.5 L 166.5 137.0 L 166.0 140.5 L 165.0 144.0 L 164.5 147.5 L 164.5 149.5 L 164.5 150.0 L 164.5 149.5 L 165.5 148.5 " stroke="black" fill="none" stroke-width="6.0" stroke-linecap="round" stroke-linejoin="round" />
<path d="M 142.5 127.5 L 142.5 127.5 L 142.5 127.5 L 142.5 127.5 L 142.0 127.5 L 142.0 128.0 L 142.0 132.0 L 142.0 139.5 L 142.0 145.0 L 142.5 147.5 L 143.0 147.5 " stroke="black" fill="none" stroke-width="6.0" stroke-linecap="round" stroke-linejoin="round" />
<path d="M 155.5 127.5 L 155.5 128.0 L 155.5 128.0 L 155.5 128.5 L 155.5 129.5 L 155.0 132.0 L 154.0 137.0 L 153.5 143.5 L 153.0 147.0 L 153.0 148.5 L 153.0 148.5 " stroke="black" fill="none" stroke-width="6.0" stroke-linecap="round" stroke-linejoin="round" />
<path d="M 130.5 152.5 L 130.5 153.0 L 130.5 153.5 L 130.5 154.0 L 130.5 154.0 L 130.5 154.0 L 131.0 153.5 L 133.0 153.5 L 136.5 153.0 L 143.5 152.5 L 152.0 152.0 L 159.0 151.5 L 162.5 151.5 L 163.5 151.5 L 163.0 151.5 L 162.5 151.5 L 162.0 151.5 L 161.5 151.0 " stroke="black" fill="none" stroke-width="6.0" stroke-linecap="round" stroke-linejoin="round" />
<path d="M 141.5 163.0 L 141.5 162.0 L 141.5 161.5 L 141.5 161.5 L 141.5 161.5 L 141.0 163.0 L 139.0 165.5 L 137.0 167.5 L 135.0 169.0 L 135.0 169.5 " stroke="black" fill="none" stroke-width="6.0" stroke-linecap="round" stroke-linejoin="round" />
<path d="M 132.0 161.5 L 132.0 161.5 L 132.0 160.5 L 132.0 160.0 L 132.0 159.5 L 132.0 160.0 L 132.0 162.0 L 131.5 165.5 L 131.0 170.0 L 130.5 175.0 L 130.5 179.0 L 132.5 180.0 L 135.5 178.0 L 138.0 175.0 L 140.0 173.0 L 141.5 172.5 " stroke="black" fill="none" stroke-width="6.0" stroke-linecap="round" stroke-linejoin="round" />
<path d="M 162.5 162.5 L 162.5 162.5 L 162.5 162.0 L 162.5 161.5 L 162.5 161.5 L 162.5 161.5 L 161.5 162.5 L 160.0 164.5 L 158.5 166.5 L 157.5 167.5 " stroke="black" fill="none" stroke-width="6.0" stroke-linecap="round" stroke-linejoin="round" />
<path d="M 152.0 160.0 L 152.0 160.0 L 152.0 159.5 L 151.5 159.5 L 151.5 159.5 L 151.5 161.5 L 151.0 166.5 L 150.5 172.0 L 150.5 176.5 L 151.5 178.0 L 154.0 177.5 L 157.0 175.5 L 159.0 174.0 L 160.5 173.0 L 160.5 172.5 " stroke="black" fill="none" stroke-width="6.0" stroke-linecap="round" stroke-linejoin="round" />
<path d="M 133.5 190.5 L 133.5 190.5 L 133.5 190.5 L 133.5 190.0 L 133.5 190.0 L 133.5 190.0 L 136.0 189.5 L 141.5 189.5 L 147.0 189.5 L 151.0 189.0 L 152.5 188.5 L 152.5 188.5 " stroke="black" fill="none" stroke-width="6.0" stroke-linecap="round" stroke-linejoin="round" />
<path d="M 144.0 182.0 L 144.0 182.0 L 143.0 182.0 L 143.0 182.0 L 142.5 182.0 L 142.5 183.0 L 142.5 186.5 L 143.0 192.0 L 143.0 196.5 L 143.5 199.5 L 143.5 200.0 " stroke="black" fill="none" stroke-width="6.0" stroke-linecap="round" stroke-linejoin="round" />
<path d="M 124.5 201.0 L 124.5 201.0 L 123.5 202.0 L 123.0 202.0 L 123.0 202.5 L 123.0 202.5 L 124.0 202.5 L 126.5 202.5 L 131.5 202.0 L 140.0 201.5 L 151.0 200.0 L 160.5 199.0 L 165.5 199.0 L 167.0 199.0 L 167.0 199.0 L 166.5 199.0 L 166.0 199.0 " stroke="black" fill="none" stroke-width="6.0" stroke-linecap="round" stroke-linejoin="round" />
</svg>