<svg xmlns="http://www.w3.org/2000/svg" width="300" height="300" viewBox="0 0 300 300">
<path d="M 128.0 105.0 L 128.0 105.0 L 128.0 105.0 L 128.0 105.0 L 130.0 107.5 L 133.0 110.5 L 135.0 113.0 L 135.5 113.5 " stroke="black" fill="none" stroke-width="6.0" stroke-linecap="round" stroke-linejoin="round" />
<path d="M 120.5 124.0 L 120.5 124.0 L 120.0 124.0 L 120.5 124.0 L 125.0 124.0 L 131.5 123.5 L 137.5 122.5 L 141.0 121.5 L 142.0 121.5 " stroke="black" fill="none" stroke-width="6.0" stroke-linecap="round" stroke-linejoin="round" />
<path d="M 125.5 132.5 L 125.5 132.5 L 125.5 132.5 L 125.5 133.0 L 125.5 133.5 L 126.0 134.5 L 127.5 136.5 L 129.5 138.5 " stroke="black" fill="none" stroke-width="6.0" stroke-linecap="round" stroke-linejoin="round" />
<path d="M 139.0 129.5 L 139.0 129.5 L 139.5 130.0 L 139.5 130.5 L 139.5 131.5 L 139.0 134.0 L 138.0 137.5 L 137.0 139.5 " stroke="black" fill="none" stroke-width="6.0" stroke-linecap="round" stroke-linejoin="round" />
<path d="M 124.5 146.0 L 124.5 146.0 L 123.5 146.0 L 123.5 146.5 L 126.0 146.5 L 130.5 146.0 L 136.5 145.0 L 140.5 144.5 L 143.0 144.5 L 143.5 144.5 " stroke="black" fill="none" stroke-width="6.0" stroke-linecap="round" stroke-linejoin="round" />
<path d="M 124.0 160.5 L 124.0 160.5 L 123.5 160.5 L 123.5 160.5 L 124.0 160.0 L 127.5 159.5 L 133.0 159.0 L 138.0 159.0 L 141.5 158.5 L 142.5 158.0 " stroke="black" fill="none" stroke-width="6.0" stroke-linecap="round" stroke-linejoin="round" />
<path d="M 135.0 149.5 L 135.5 149.5 L 135.5 149.0 L 136.0 149.0 L 136.0 149.0 L 136.0 151.5 L 136.0 158.5 L 136.0 168.5 L 136.0 183.0 L 136.5 183.5 L 137.0 182.0 " stroke="black" fill="none" stroke-width="6.0" stroke-linecap="round" stroke-linejoin="round" />
<path d="M 128.0 172.5 L 128.0 172.5 L 128.0 173.0 L 128.0 173.0 L 127.0 174.5 L 124.5 178.0 L 122.0 182.5 L 120.5 185.5 " stroke="black" fill="none" stroke-width="6.0" stroke-linecap="round" stroke-linejoin="round" />
<path d="M 143.0 168.5 L 142.5 168.5 L 142.5 169.5 L 144.0 171.5 L 147.0 174.0 L 149.5 175.0 " stroke="black" fill="none" stroke-width="6.0" stroke-linecap="round" stroke-linejoin="round" />
<path d="M 175.0 109.5 L 175.0 110.5 L 175.0 111.0 L 175.0 111.0 L 174.0 111.0 L 172.5 111.0 L 169.5 111.0 L 166.0 112.5 L 161.0 114.0 L 157.0 115.5 L 155.0 116.5 L 154.0 116.5 L 153.5 117.0 L 153.0 117.0 L 152.5 117.5 L 152.5 117.5 L 152.5 117.5 L 152.5 117.5 L 152.5 117.5 L 152.5 117.5 L 152.5 117.5 L 152.5 117.5 L 152.5 117.5 L 152.5 117.5 L 152.5 117.5 L 152.5 118.0 L 153.0 119.0 L 153.0 121.5 L 154.0 127.0 L 154.5 135.5 L 155.5 144.5 L 156.5 153.0 L 156.5 161.0 L 157.0 168.0 L 157.0 174.0 L 157.0 177.5 L 157.0 178.5 L 157.0 178.5 L 157.0 175.0 L 156.5 174.0 " stroke="black" fill="none" stroke-width="6.0" stroke-linecap="round" stroke-linejoin="round" />
<path d="M 157.0 129.5 L 156.5 130.0 L 155.0 130.5 L 154.5 130.5 L 154.5 130.5 L 158.0 130.0 L 163.5 129.0 L 168.5 127.5 L 172.5 127.5 L 175.0 127.5 L 176.0 127.5 L 176.0 127.5 " stroke="black" fill="none" stroke-width="6.0" stroke-linecap="round" stroke-linejoin="round" />
<path d="M 167.5 130.0 L 167.0 131.0 L 167.0 131.5 L 167.0 132.5 L 167.0 135.0 L 167.5 140.5 L 168.0 149.0 L 168.5 158.5 L 169.0 167.5 L 170.0 173.5 L 170.5 176.0 L 170.5 176.5 L 170.5 175.5 " stroke="black" fill="none" stroke-width="6.0" stroke-linecap="round" stroke-linejoin="round" />
</svg>