<svg xmlns="http://www.w3.org/2000/svg" width="300" height="300" viewBox="0 0 300 300">
<path d="M 125.5 121.5 L 124.5 121.5 L 124.0 121.5 L 124.5 121.5 L 128.0 121.0 L 135.0 120.0 L 145.5 119.0 L 156.0 118.5 L 164.5 118.5 L 169.5 118.5 L 171.0 119.0 L 171.0 119.5 L 170.5 119.5 L 169.5 119.5 L 169.0 119.5 " stroke="black" fill="none" stroke-width="6.0" stroke-linecap="round" stroke-linejoin="round" />
<path d="M 137.0 144.5 L 137.0 144.5 L 137.0 144.0 L 137.0 144.0 L 138.0 144.0 L 142.0 144.0 L 149.0 144.0 L 156.5 143.0 L 161.5 141.5 L 162.5 141.5 L 162.5 141.5 " stroke="black" fill="none" stroke-width="6.0" stroke-linecap="round" stroke-linejoin="round" />
<path d="M 149.0 121.5 L 148.0 122.0 L 147.5 122.5 L 147.5 123.5 L 148.0 127.0 L 149.5 133.0 L 150.5 141.5 L 151.0 150.5 L 151.0 158.0 L 151.0 162.0 L 151.5 163.0 L 151.5 162.0 " stroke="black" fill="none" stroke-width="6.0" stroke-linecap="round" stroke-linejoin="round" />
<path d="M 123.5 171.0 L 124.0 171.0 L 125.0 170.5 L 127.0 170.5 L 130.5 170.5 L 137.0 170.0 L 146.5 169.5 L 159.0 168.5 L 171.5 167.0 L 180.5 165.5 L 185.5 164.5 L 186.0 164.5 L 185.5 165.0 L 183.0 165.5 L 182.0 165.5 " stroke="black" fill="none" stroke-width="6.0" stroke-linecap="round" stroke-linejoin="round" />
</svg>