<svg xmlns="http://www.w3.org/2000/svg" width="300" height="300" viewBox="0 0 300 300">
<path d="M 132.0 108.0 L 132.0 108.0 L 132.0 108.0 L 132.5 108.5 L 133.0 108.5 L 135.0 108.5 L 139.5 108.5 L 148.0 108.5 L 157.5 108.5 L 164.5 109.0 L 167.5 109.5 L 167.5 110.0 L 167.0 110.0 L 166.5 110.0 " stroke="black" fill="none" stroke-width="6.0" stroke-linecap="round" stroke-linejoin="round" />
<path d="M 133.5 114.0 L 134.5 114.0 L 135.5 114.0 L 136.0 113.5 L 136.0 114.0 L 136.5 115.5 L 137.0 120.0 L 136.5 127.5 L 135.5 136.0 L 135.0 143.5 L 135.0 147.5 L 136.0 149.0 L 137.0 149.0 L 137.5 149.5 L 139.0 150.0 L 141.0 150.0 L 145.0 150.0 L 151.5 148.5 L 158.0 147.0 L 164.0 146.0 L 168.5 145.5 L 170.0 146.0 L 170.0 146.0 L 170.0 146.0 L 170.0 146.0 L 170.0 146.0 L 170.0 146.5 L 170.0 149.0 L 169.5 152.0 L 169.5 157.5 L 169.0 165.0 L 169.0 173.0 L 169.5 180.5 L 170.0 187.0 L 170.0 192.5 L 170.0 197.5 L 170.0 201.0 L 169.5 202.5 L 168.0 202.5 L 164.5 201.5 L 160.0 198.5 L 156.0 195.5 " stroke="black" fill="none" stroke-width="6.0" stroke-linecap="round" stroke-linejoin="round" />
<path d="M 142.5 124.5 L 142.0 124.5 L 141.5 125.0 L 141.0 125.0 L 140.5 125.5 L 141.0 125.5 L 144.0 125.0 L 149.0 124.5 L 154.5 124.0 L 159.0 123.5 L 161.5 123.5 L 162.0 124.0 " stroke="black" fill="none" stroke-width="6.0" stroke-linecap="round" stroke-linejoin="round" />
<path d="M 144.5 135.5 L 144.0 135.5 L 143.5 135.5 L 143.5 135.5 L 145.5 135.5 L 150.0 135.0 L 155.5 135.0 L 161.5 134.5 L 165.5 133.5 " stroke="black" fill="none" stroke-width="6.0" stroke-linecap="round" stroke-linejoin="round" />
<path d="M 154.0 112.0 L 154.0 112.0 L 154.5 112.5 L 154.5 113.5 L 154.5 115.5 L 154.0 121.0 L 153.5 130.5 L 153.5 139.0 L 153.5 143.0 L 153.5 143.5 L 153.5 143.5 " stroke="black" fill="none" stroke-width="6.0" stroke-linecap="round" stroke-linejoin="round" />
<path d="M 128.5 168.0 L 128.5 167.5 L 129.0 167.0 L 129.0 166.5 L 129.0 166.5 L 129.5 166.5 L 129.5 168.5 L 129.0 172.0 L 127.0 177.5 L 124.5 183.0 L 123.0 186.5 L 122.5 187.0 L 122.5 186.5 " stroke="black" fill="none" stroke-width="6.0" stroke-linecap="round" stroke-linejoin="round" />
<path d="M 139.0 170.0 L 139.0 170.0 L 138.5 169.5 L 138.0 169.5 L 138.0 170.0 L 139.0 172.0 L 140.0 173.5 L 141.0 174.5 " stroke="black" fill="none" stroke-width="6.0" stroke-linecap="round" stroke-linejoin="round" />
<path d="M 149.0 168.5 L 149.0 168.5 L 148.0 168.5 L 147.5 168.5 L 148.0 169.0 L 149.0 170.5 L 150.5 172.0 L 151.5 173.0 " stroke="black" fill="none" stroke-width="6.0" stroke-linecap="round" stroke-linejoin="round" />
<path d="M 159.5 166.0 L 159.5 166.0 L 160.0 166.0 L 160.5 166.5 L 161.5 167.0 L 162.5 168.5 L 163.0 170.0 L 163.5 170.5 " stroke="black" fill="none" stroke-width="6.0" stroke-linecap="round" stroke-linejoin="round" />
</svg>