<svg xmlns="http://www.w3.org/2000/svg" width="300" height="300" viewBox="0 0 300 300">
<path d="M 146.5 98.0 L 145.5 98.0 L 145.0 98.0 L 145.0 98.0 L 147.0 100.0 L 150.5 102.0 L 153.5 103.5 L 155.5 104.0 L 157.0 104.5 " stroke="black" fill="none" stroke-width="6.0" stroke-linecap="round" stroke-linejoin="round" />
<path d="M 128.0 113.0 L 127.5 113.0 L 126.0 113.5 L 126.0 113.5 L 126.5 113.5 L 130.0 113.0 L 136.5 112.5 L 145.5 112.5 L 158.0 112.5 L 169.0 112.5 L 175.0 113.0 L 176.5 113.5 L 176.5 113.5 L 175.5 113.5 L 173.5 113.5 L 172.5 113.5 " stroke="black" fill="none" stroke-width="6.0" stroke-linecap="round" stroke-linejoin="round" />
<path d="M 129.0 119.5 L 129.0 118.5 L 128.5 117.5 L 128.5 116.5 L 128.0 116.0 L 128.0 116.0 L 128.0 116.5 L 128.5 120.5 L 129.5 127.0 L 130.0 136.0 L 129.0 147.0 L 126.5 159.5 L 123.5 171.0 L 120.5 179.0 L 117.0 186.0 L 115.0 190.0 L 114.5 190.0 L 114.5 189.5 L 114.5 188.0 L 115.0 185.0 " stroke="black" fill="none" stroke-width="6.0" stroke-linecap="round" stroke-linejoin="round" />
<path d="M 140.0 131.0 L 140.0 131.5 L 140.0 132.0 L 140.0 132.0 L 140.0 132.0 L 143.0 131.5 L 147.0 131.0 L 150.5 130.0 L 152.5 129.5 L 153.5 129.0 L 153.5 128.0 " stroke="black" fill="none" stroke-width="6.0" stroke-linecap="round" stroke-linejoin="round" />
<path d="M 146.0 122.5 L 145.5 122.0 L 145.0 122.0 L 145.0 121.5 L 144.5 121.5 L 144.5 123.5 L 145.0 127.0 L 145.5 132.0 L 145.5 136.5 L 146.0 139.0 L 146.0 139.5 " stroke="black" fill="none" stroke-width="6.0" stroke-linecap="round" stroke-linejoin="round" />
<path d="M 137.0 146.0 L 137.0 145.5 L 137.0 145.0 L 137.0 145.0 L 137.0 144.5 L 137.0 145.0 L 137.5 147.5 L 138.5 151.5 L 139.0 155.5 L 139.5 157.0 L 140.0 156.5 " stroke="black" fill="none" stroke-width="6.0" stroke-linecap="round" stroke-linejoin="round" />
<path d="M 140.5 146.5 L 140.5 146.0 L 140.0 145.5 L 140.0 145.0 L 141.0 144.0 L 144.5 142.5 L 148.0 142.0 L 151.5 142.0 L 154.0 142.0 L 155.5 142.5 L 156.0 143.5 L 156.5 144.5 L 156.5 147.0 L 156.0 149.5 L 155.0 152.5 L 154.0 155.5 L 153.0 157.5 L 153.0 157.5 " stroke="black" fill="none" stroke-width="6.0" stroke-linecap="round" stroke-linejoin="round" />
<path d="M 143.0 151.0 L 141.5 152.0 L 141.0 152.0 L 141.5 152.0 L 143.5 152.0 L 146.5 152.0 L 149.5 151.5 L 151.5 151.5 L 153.0 151.5 " stroke="black" fill="none" stroke-width="6.0" stroke-linecap="round" stroke-linejoin="round" />
<path d="M 144.0 158.0 L 143.0 159.0 L 142.5 159.0 L 143.0 159.0 L 144.5 159.0 L 147.0 159.0 L 149.5 159.0 L 152.0 159.0 L 153.5 159.0 " stroke="black" fill="none" stroke-width="6.0" stroke-linecap="round" stroke-linejoin="round" />
<path d="M 138.5 171.0 L 138.5 171.5 L 138.0 172.0 L 137.5 172.5 L 138.0 172.5 L 140.5 172.5 L 144.5 172.5 L 148.0 172.0 L 150.5 171.5 L 150.5 171.5 " stroke="black" fill="none" stroke-width="6.0" stroke-linecap="round" stroke-linejoin="round" />
<path d="M 147.5 163.5 L 147.0 163.5 L 146.5 163.5 L 145.5 164.0 L 145.5 166.5 L 145.5 172.0 L 145.5 178.5 L 145.5 182.5 L 145.5 184.0 " stroke="black" fill="none" stroke-width="6.0" stroke-linecap="round" stroke-linejoin="round" />
<path d="M 163.5 125.0 L 163.5 124.5 L 163.0 124.0 L 163.0 124.0 L 163.0 125.5 L 164.0 133.0 L 164.0 148.5 L 163.0 164.5 L 162.5 171.5 L 162.5 172.0 L 162.5 170.0 L 163.0 168.5 " stroke="black" fill="none" stroke-width="6.0" stroke-linecap="round" stroke-linejoin="round" />
<path d="M 166.0 127.5 L 165.5 127.5 L 164.0 127.0 L 163.5 126.5 L 163.5 126.5 L 165.0 126.0 L 168.0 126.0 L 171.0 126.0 L 174.0 126.0 L 176.5 126.0 L 178.0 125.5 L 178.5 125.5 L 178.5 125.5 L 179.0 126.0 L 179.0 127.5 L 179.0 130.5 L 179.0 136.0 L 179.0 143.5 L 179.0 151.5 L 179.0 159.0 L 179.0 166.5 L 178.0 173.0 L 177.5 179.0 L 177.0 183.0 L 176.0 184.0 L 175.5 184.0 L 174.0 182.0 L 172.5 177.5 " stroke="black" fill="none" stroke-width="6.0" stroke-linecap="round" stroke-linejoin="round" />
<path d="M 167.5 143.0 L 166.5 142.0 L 166.0 142.0 L 167.0 142.0 L 169.5 142.0 L 172.5 142.0 L 175.0 142.5 L 176.5 144.0 L 177.0 144.0 " stroke="black" fill="none" stroke-width="6.0" stroke-linecap="round" stroke-linejoin="round" />
<path d="M 168.0 161.5 L 167.0 161.5 L 166.5 161.5 L 166.5 161.5 L 169.0 161.5 L 172.0 161.0 L 176.0 159.5 L 180.0 157.0 L 181.0 156.5 " stroke="black" fill="none" stroke-width="6.0" stroke-linecap="round" stroke-linejoin="round" />
</svg>