<svg xmlns="http://www.w3.org/2000/svg" width="300" height="300" viewBox="0 0 300 300">
<path d="M 131.5 118.5 L 132.5 118.5 L 133.0 118.5 L 133.5 118.5 L 133.5 118.5 L 133.5 118.5 L 133.5 120.0 L 132.5 122.5 L 131.0 127.5 L 129.5 133.5 L 127.5 139.5 L 125.5 144.5 L 125.0 147.0 L 124.5 147.5 L 124.5 147.0 L 124.5 146.5 L 124.5 146.5 L 125.0 146.5 L 126.0 146.5 L 128.0 146.0 L 130.5 144.5 L 133.5 143.0 L 136.5 141.0 L 138.0 140.0 L 138.5 139.0 L 138.5 138.5 " stroke="black" fill="none" stroke-width="6.0" stroke-linecap="round" stroke-linejoin="round" />
<path d="M 141.5 130.0 L 141.5 130.0 L 141.5 129.5 L 141.5 129.5 L 141.5 129.5 L 141.0 129.5 L 139.5 132.5 L 136.5 140.0 L 131.5 151.5 L 127.0 161.0 L 122.5 168.0 L 121.0 170.5 L 120.5 170.5 L 120.5 170.0 L 121.0 170.0 L 121.0 169.5 L 122.5 168.5 L 124.5 167.5 L 127.0 166.0 L 130.0 164.5 L 132.5 163.0 L 135.5 162.0 L 137.0 162.0 L 138.5 162.0 L 139.5 161.5 L 140.5 161.0 " stroke="black" fill="none" stroke-width="6.0" stroke-linecap="round" stroke-linejoin="round" />
<path d="M 143.0 154.5 L 143.0 154.5 L 142.5 154.5 L 142.0 155.0 L 142.0 155.5 L 142.0 156.5 L 143.0 158.5 L 144.5 160.5 L 145.0 162.0 L 146.0 162.5 " stroke="black" fill="none" stroke-width="6.0" stroke-linecap="round" stroke-linejoin="round" />
<path d="M 124.0 179.0 L 124.0 179.0 L 123.5 179.5 L 123.0 179.5 L 123.0 180.5 L 122.5 183.0 L 121.5 186.5 L 121.0 188.5 L 121.0 189.5 " stroke="black" fill="none" stroke-width="6.0" stroke-linecap="round" stroke-linejoin="round" />
<path d="M 131.5 179.0 L 132.5 179.5 L 133.5 180.0 L 134.0 180.5 L 134.0 181.0 L 134.5 182.5 L 134.5 184.5 L 134.5 185.0 " stroke="black" fill="none" stroke-width="6.0" stroke-linecap="round" stroke-linejoin="round" />
<path d="M 142.5 177.5 L 142.5 178.0 L 142.5 179.0 L 143.0 180.0 L 144.5 181.5 L 145.5 182.5 L 146.0 182.5 " stroke="black" fill="none" stroke-width="6.0" stroke-linecap="round" stroke-linejoin="round" />
<path d="M 151.5 118.5 L 151.5 118.5 L 151.5 118.5 L 151.5 118.0 L 151.5 118.0 L 154.0 117.0 L 159.0 115.5 L 166.5 114.5 L 173.0 114.0 L 178.0 113.5 L 181.0 113.5 L 181.0 114.0 L 180.0 114.0 L 178.5 113.5 " stroke="black" fill="none" stroke-width="6.0" stroke-linecap="round" stroke-linejoin="round" />
<path d="M 160.5 128.5 L 160.5 128.5 L 161.0 128.5 L 161.5 128.5 L 162.0 128.5 L 162.0 128.5 L 162.5 128.5 L 162.5 128.0 L 162.5 128.0 L 162.0 129.5 L 159.5 132.5 L 156.0 138.0 L 154.0 142.5 L 153.5 145.0 L 153.5 145.0 L 155.0 145.0 L 157.0 145.0 L 158.0 146.0 L 159.5 147.0 L 160.5 148.5 L 161.5 148.5 " stroke="black" fill="none" stroke-width="6.0" stroke-linecap="round" stroke-linejoin="round" />
<path d="M 170.5 129.0 L 170.5 129.0 L 170.5 128.5 L 170.5 128.0 L 170.5 128.0 L 170.5 127.5 L 171.0 127.0 L 171.0 127.0 L 171.0 128.0 L 170.0 130.5 L 168.5 133.5 L 167.5 136.5 L 167.0 138.5 L 166.5 139.0 L 166.5 139.0 L 167.5 139.0 L 168.0 139.0 L 168.5 139.0 L 169.5 139.0 L 170.0 140.0 L 170.5 142.0 L 171.0 144.0 L 172.0 146.0 L 172.5 147.0 L 173.0 148.0 L 173.0 148.0 " stroke="black" fill="none" stroke-width="6.0" stroke-linecap="round" stroke-linejoin="round" />
<path d="M 183.5 128.5 L 183.5 128.5 L 183.5 128.0 L 183.5 128.0 L 183.5 127.5 L 183.5 127.5 L 183.5 127.5 L 183.0 127.5 L 181.5 129.5 L 180.0 132.0 L 179.0 135.0 L 178.5 137.5 L 178.5 138.5 L 178.5 139.5 L 180.0 140.0 L 181.5 141.0 L 183.0 141.5 L 184.5 142.5 L 185.5 143.0 L 186.5 144.0 L 187.0 145.0 L 187.5 146.0 L 187.5 147.5 L 187.5 147.5 " stroke="black" fill="none" stroke-width="6.0" stroke-linecap="round" stroke-linejoin="round" />
<path d="M 155.0 158.5 L 155.0 159.0 L 155.5 159.5 L 156.0 160.0 L 157.0 160.0 L 159.0 159.0 L 163.0 158.5 L 169.0 157.5 L 175.5 157.0 L 181.5 156.0 L 185.0 155.5 L 185.5 155.0 L 185.0 155.0 L 184.0 155.5 L 183.5 155.5 " stroke="black" fill="none" stroke-width="6.0" stroke-linecap="round" stroke-linejoin="round" />
<path d="M 169.5 164.5 L 169.5 164.0 L 169.5 162.5 L 169.5 161.5 L 169.5 161.0 L 169.5 161.0 L 169.5 162.5 L 170.0 166.0 L 170.0 171.5 L 170.0 176.0 L 170.0 179.5 L 170.0 181.0 L 170.5 181.0 " stroke="black" fill="none" stroke-width="6.0" stroke-linecap="round" stroke-linejoin="round" />
<path d="M 158.0 181.0 L 158.0 181.5 L 158.0 182.5 L 158.0 182.5 L 158.5 182.5 L 160.5 182.5 L 164.0 182.5 L 168.5 182.0 L 174.0 181.0 L 180.0 179.5 L 185.0 179.0 L 187.0 178.5 " stroke="black" fill="none" stroke-width="6.0" stroke-linecap="round" stroke-linejoin="round" />
</svg>