<svg xmlns="http://www.w3.org/2000/svg" width="300" height="300" viewBox="0 0 300 300">
<path d="M 130.0 115.0 L 130.0 115.0 L 130.5 115.5 L 130.5 115.5 L 131.0 116.0 L 131.0 116.0 L 131.0 116.5 L 131.0 118.5 L 130.0 123.0 L 127.5 130.5 L 124.0 138.5 L 121.5 144.5 L 121.0 145.5 L 121.0 145.5 L 122.0 145.0 L 124.0 144.5 L 127.0 144.0 L 129.5 143.0 L 131.5 142.0 L 133.5 141.0 L 134.5 140.5 L 134.5 140.5 " stroke="black" fill="none" stroke-width="6.0" stroke-linecap="round" stroke-linejoin="round" />
<path d="M 138.0 129.5 L 138.5 129.5 L 139.0 129.5 L 139.0 129.5 L 139.0 129.5 L 139.0 132.0 L 137.0 137.5 L 133.0 147.0 L 129.5 156.0 L 126.5 164.0 L 123.5 169.0 L 122.0 171.0 L 122.0 171.5 L 122.0 171.0 L 123.5 170.0 L 125.5 169.0 L 128.0 167.5 L 130.5 166.5 L 133.5 165.0 L 136.0 164.5 L 138.0 163.5 L 138.5 163.0 " stroke="black" fill="none" stroke-width="6.0" stroke-linecap="round" stroke-linejoin="round" />
<path d="M 141.5 156.0 L 141.5 157.5 L 141.5 158.5 L 141.5 159.5 L 143.0 162.0 L 144.5 165.0 L 145.5 168.0 L 146.0 170.0 " stroke="black" fill="none" stroke-width="6.0" stroke-linecap="round" stroke-linejoin="round" />
<path d="M 124.5 185.0 L 124.5 185.0 L 124.5 184.0 L 124.5 183.0 L 124.5 183.0 L 124.5 183.5 L 124.5 186.0 L 124.5 189.5 L 124.5 193.0 L 124.5 194.5 " stroke="black" fill="none" stroke-width="6.0" stroke-linecap="round" stroke-linejoin="round" />
<path d="M 133.5 183.5 L 134.5 183.5 L 135.5 183.5 L 136.0 183.5 L 136.5 184.5 L 137.5 186.5 L 138.5 188.5 L 139.5 191.0 L 139.5 191.5 " stroke="black" fill="none" stroke-width="6.0" stroke-linecap="round" stroke-linejoin="round" />
<path d="M 145.0 182.5 L 144.5 183.0 L 144.5 184.0 L 144.5 184.5 L 144.5 186.0 L 145.5 187.0 L 146.5 187.5 " stroke="black" fill="none" stroke-width="6.0" stroke-linecap="round" stroke-linejoin="round" />
<path d="M 150.5 110.5 L 149.5 111.5 L 149.0 112.0 L 148.5 112.5 L 150.0 112.5 L 154.5 112.5 L 162.0 112.5 L 170.0 112.0 L 181.0 111.5 L 182.0 111.5 L 182.0 111.5 L 180.5 111.5 L 178.5 111.5 " stroke="black" fill="none" stroke-width="6.0" stroke-linecap="round" stroke-linejoin="round" />
<path d="M 157.0 124.5 L 157.5 124.5 L 158.5 124.0 L 159.5 124.0 L 159.5 124.0 L 159.5 124.0 L 159.0 124.5 L 157.0 127.0 L 154.0 131.0 L 151.0 135.0 L 149.5 138.5 L 149.0 140.0 L 149.5 141.5 L 151.0 143.5 L 153.5 146.5 L 155.5 149.0 L 157.5 151.0 L 159.0 151.5 L 159.5 151.0 " stroke="black" fill="none" stroke-width="6.0" stroke-linecap="round" stroke-linejoin="round" />
<path d="M 172.5 128.0 L 172.5 128.0 L 172.5 127.5 L 172.5 127.5 L 172.5 127.0 L 172.0 127.0 L 172.0 127.0 L 171.5 127.0 L 170.5 128.0 L 169.0 131.0 L 166.5 135.0 L 164.5 138.5 L 163.5 141.0 L 163.5 141.0 L 163.5 141.5 L 164.5 141.5 L 166.5 142.0 L 168.5 142.5 L 171.0 143.5 L 172.5 144.0 L 174.0 145.0 L 174.0 145.5 " stroke="black" fill="none" stroke-width="6.0" stroke-linecap="round" stroke-linejoin="round" />
<path d="M 184.0 126.5 L 184.0 126.5 L 184.0 126.5 L 184.0 126.5 L 184.5 126.5 L 184.5 126.5 L 184.0 127.0 L 182.5 129.0 L 181.0 131.5 L 179.5 134.5 L 179.5 137.5 L 179.5 139.5 L 181.0 141.0 L 183.0 142.0 L 184.5 142.5 L 185.5 143.0 L 186.5 143.5 L 186.5 144.0 " stroke="black" fill="none" stroke-width="6.0" stroke-linecap="round" stroke-linejoin="round" />
<path d="M 154.0 161.0 L 154.5 161.5 L 155.0 161.5 L 156.0 161.5 L 159.5 161.0 L 165.5 160.0 L 173.0 159.0 L 179.0 158.5 L 182.0 158.0 L 182.5 157.5 " stroke="black" fill="none" stroke-width="6.0" stroke-linecap="round" stroke-linejoin="round" />
<path d="M 171.0 161.5 L 171.0 161.5 L 170.5 161.5 L 170.0 161.5 L 169.5 162.0 L 169.5 165.5 L 170.0 171.5 L 171.0 177.5 L 171.0 182.0 L 171.5 184.0 L 171.5 184.0 " stroke="black" fill="none" stroke-width="6.0" stroke-linecap="round" stroke-linejoin="round" />
<path d="M 160.0 181.5 L 160.0 181.5 L 159.5 182.0 L 159.5 182.0 L 159.0 182.0 L 160.0 182.0 L 163.0 182.0 L 168.0 182.0 L 175.0 182.0 L 181.5 182.0 L 187.0 181.5 L 188.0 181.5 " stroke="black" fill="none" stroke-width="6.0" stroke-linecap="round" stroke-linejoin="round" />
</svg>