<svg xmlns="http://www.w3.org/2000/svg" width="300" height="300" viewBox="0 0 300 300">
<path d="M 124.0 121.5 L 124.0 121.5 L 123.0 121.5 L 123.0 121.0 L 123.0 121.0 L 125.5 121.5 L 130.0 122.0 L 138.0 122.5 L 149.0 122.0 L 159.5 121.5 L 166.5 120.5 L 169.5 120.5 L 169.5 120.5 L 169.5 120.5 L 169.0 120.5 L 168.5 120.5 L 168.5 120.5 L 168.5 120.0 " stroke="black" fill="none" stroke-width="7.0" stroke-linecap="round" stroke-linejoin="round" />
<path d="M 126.0 122.5 L 126.0 122.5 L 125.5 122.0 L 125.5 122.0 L 125.5 122.5 L 125.5 125.5 L 126.0 130.5 L 126.0 139.0 L 125.5 149.5 L 124.0 159.5 L 122.0 167.5 L 120.5 173.5 L 118.5 177.0 L 117.0 178.0 L 116.5 178.0 L 116.5 177.5 " stroke="black" fill="none" stroke-width="7.0" stroke-linecap="round" stroke-linejoin="round" />
<path d="M 155.5 107.0 L 157.0 108.5 L 157.0 110.0 L 157.5 114.0 L 158.0 121.5 L 160.0 132.0 L 162.5 142.5 L 166.0 152.5 L 170.5 160.5 L 175.0 165.0 L 179.5 168.0 L 183.0 169.0 L 185.0 169.0 L 185.5 168.5 L 186.5 165.5 L 188.5 162.0 L 190.0 158.0 L 191.0 155.0 " stroke="black" fill="none" stroke-width="7.0" stroke-linecap="round" stroke-linejoin="round" />
<path d="M 176.0 147.0 L 176.5 146.5 L 177.0 146.0 L 177.0 146.0 L 176.5 147.0 L 175.0 150.0 L 172.0 155.0 L 167.5 161.0 L 162.0 165.5 L 158.5 167.5 L 158.0 167.5 L 158.0 167.5 " stroke="black" fill="none" stroke-width="7.0" stroke-linecap="round" stroke-linejoin="round" />
<path d="M 138.0 144.0 L 138.0 143.5 L 138.0 143.0 L 138.0 143.0 L 139.5 142.5 L 142.5 142.5 L 146.0 142.5 L 148.5 142.0 L 150.0 142.0 L 150.5 142.0 L 150.5 142.0 L 149.5 142.0 L 149.0 143.5 L 147.5 146.5 L 147.0 150.0 L 146.5 155.0 L 146.5 160.0 L 146.5 165.0 L 146.0 168.0 L 144.5 169.0 L 142.5 169.0 L 140.0 167.0 L 138.0 163.5 L 137.5 160.0 " stroke="black" fill="none" stroke-width="7.0" stroke-linecap="round" stroke-linejoin="round" />
<path d="M 171.5 105.0 L 171.0 105.0 L 170.5 105.0 L 170.5 105.0 L 171.5 106.5 L 173.0 108.5 L 175.0 110.5 L 175.5 111.0 " stroke="black" fill="none" stroke-width="7.0" stroke-linecap="round" stroke-linejoin="round" />
</svg>