<svg xmlns="http://www.w3.org/2000/svg" width="300" height="300" viewBox="0 0 300 300">
<path d="M 120.0 115.0 L 119.5 116.5 L 118.0 117.0 L 117.5 117.0 L 117.5 117.0 L 119.0 116.5 L 122.0 116.5 L 126.5 116.0 L 132.0 115.5 L 136.5 115.0 L 139.0 115.0 L 140.5 114.5 L 141.5 114.5 L 142.0 114.0 L 142.5 114.0 L 143.0 114.0 L 143.0 114.0 L 143.0 115.0 L 143.0 116.5 L 143.0 118.5 L 142.5 122.5 L 142.5 126.0 L 142.5 129.5 L 142.5 131.0 L 142.5 131.5 L 142.5 131.5 " stroke="black" fill="none" stroke-width="6.0" stroke-linecap="round" stroke-linejoin="round" />
<path d="M 122.0 134.0 L 121.0 134.0 L 120.5 134.0 L 120.5 134.0 L 123.0 134.0 L 127.5 134.0 L 132.5 134.0 L 136.5 134.0 L 139.5 134.0 L 141.5 133.0 L 142.0 132.0 " stroke="black" fill="none" stroke-width="6.0" stroke-linecap="round" stroke-linejoin="round" />
<path d="M 118.5 121.0 L 118.5 121.0 L 118.5 121.0 L 118.0 121.0 L 118.0 122.0 L 117.5 125.0 L 117.5 133.0 L 117.5 146.5 L 117.5 161.0 L 117.5 173.0 L 116.5 182.0 L 114.0 188.5 L 111.0 192.5 L 109.5 194.0 L 109.5 194.0 L 109.5 193.0 " stroke="black" fill="none" stroke-width="6.0" stroke-linecap="round" stroke-linejoin="round" />
<path d="M 123.5 152.0 L 123.0 152.5 L 122.0 153.0 L 121.5 153.0 L 122.5 153.0 L 127.0 153.0 L 132.0 153.0 L 136.5 152.0 L 140.5 151.0 L 143.0 150.5 L 143.5 150.0 " stroke="black" fill="none" stroke-width="6.0" stroke-linecap="round" stroke-linejoin="round" />
<path d="M 128.5 144.0 L 128.5 144.0 L 128.0 145.0 L 128.0 145.5 L 128.0 146.0 L 128.0 149.0 L 128.0 154.5 L 128.5 160.0 L 129.0 163.5 L 129.5 164.0 " stroke="black" fill="none" stroke-width="6.0" stroke-linecap="round" stroke-linejoin="round" />
<path d="M 136.5 144.0 L 136.5 144.5 L 136.5 145.5 L 136.5 148.0 L 136.5 152.5 L 137.0 157.5 L 137.0 161.5 L 137.0 163.0 " stroke="black" fill="none" stroke-width="6.0" stroke-linecap="round" stroke-linejoin="round" />
<path d="M 125.5 169.0 L 125.0 169.0 L 124.0 168.5 L 124.0 168.5 L 126.0 168.5 L 130.5 168.0 L 136.0 167.5 L 141.5 166.5 L 144.5 166.0 L 145.5 166.0 " stroke="black" fill="none" stroke-width="6.0" stroke-linecap="round" stroke-linejoin="round" />
<path d="M 128.5 178.5 L 128.5 178.0 L 129.0 177.5 L 129.5 177.5 L 129.5 177.5 L 129.0 180.0 L 128.0 184.5 L 127.0 188.5 L 127.0 190.0 L 127.0 190.0 " stroke="black" fill="none" stroke-width="6.0" stroke-linecap="round" stroke-linejoin="round" />
<path d="M 141.5 175.5 L 141.5 177.0 L 141.5 178.5 L 143.0 180.0 L 145.5 182.5 L 148.0 184.5 L 148.5 185.0 " stroke="black" fill="none" stroke-width="6.0" stroke-linecap="round" stroke-linejoin="round" />
<path d="M 152.5 121.0 L 152.5 120.5 L 152.5 119.5 L 153.0 119.0 L 153.5 119.5 L 153.5 124.0 L 154.0 132.0 L 154.0 139.5 L 153.5 143.5 L 153.5 144.0 L 153.5 143.0 " stroke="black" fill="none" stroke-width="6.0" stroke-linecap="round" stroke-linejoin="round" />
<path d="M 156.5 122.0 L 156.5 122.0 L 155.5 122.0 L 155.0 121.5 L 156.0 121.0 L 158.0 120.0 L 161.0 119.0 L 163.5 118.5 L 165.0 118.5 L 166.5 118.5 L 167.5 118.5 L 168.5 119.5 L 168.5 121.0 L 168.5 123.5 L 167.5 128.0 L 166.5 133.0 L 166.5 138.0 L 166.5 141.5 L 168.0 143.0 L 170.0 143.5 L 172.5 143.5 L 174.0 142.5 L 175.0 141.5 L 175.5 140.5 L 175.5 140.0 " stroke="black" fill="none" stroke-width="6.0" stroke-linecap="round" stroke-linejoin="round" />
<path d="M 155.5 157.5 L 156.0 159.0 L 156.5 159.5 L 158.5 158.5 L 162.0 157.0 L 165.5 155.5 L 168.5 154.5 L 171.0 154.5 L 172.0 155.0 L 172.5 156.0 L 172.5 158.5 L 172.0 161.5 L 170.5 166.5 L 168.5 172.0 L 166.0 178.0 L 164.5 184.0 L 163.0 189.0 L 162.5 192.0 L 162.5 192.5 L 162.5 192.5 " stroke="black" fill="none" stroke-width="6.0" stroke-linecap="round" stroke-linejoin="round" />
<path d="M 157.0 169.0 L 157.0 168.5 L 157.0 168.5 L 158.0 168.5 L 162.0 172.0 L 169.0 178.0 L 177.0 183.0 L 182.0 185.0 L 185.5 185.0 L 186.0 185.0 " stroke="black" fill="none" stroke-width="6.0" stroke-linecap="round" stroke-linejoin="round" />
</svg>