<svg xmlns="http://www.w3.org/2000/svg" width="300" height="300" viewBox="0 0 300 300">
<path d="M 124.0 105.5 L 124.0 105.0 L 123.5 104.5 L 123.5 104.0 L 123.0 104.0 L 123.5 104.5 L 126.0 107.5 L 128.5 111.0 L 131.0 114.0 L 132.0 115.5 L 132.5 116.0 " stroke="black" fill="none" stroke-width="6.0" stroke-linecap="round" stroke-linejoin="round" />
<path d="M 119.5 116.5 L 118.0 117.0 L 117.0 117.5 L 116.5 117.5 L 118.5 117.5 L 122.5 117.5 L 127.5 117.5 L 131.5 117.5 L 135.5 117.0 L 138.0 116.5 L 139.0 116.0 L 139.0 116.0 " stroke="black" fill="none" stroke-width="6.0" stroke-linecap="round" stroke-linejoin="round" />
<path d="M 119.0 129.0 L 118.5 129.0 L 118.0 129.0 L 118.0 128.5 L 117.5 128.0 L 117.5 128.0 L 119.0 129.0 L 121.0 131.5 L 123.5 133.5 L 126.0 134.5 L 126.5 134.5 " stroke="black" fill="none" stroke-width="6.0" stroke-linecap="round" stroke-linejoin="round" />
<path d="M 135.0 126.0 L 135.0 126.0 L 135.0 126.0 L 135.0 126.0 L 135.0 126.5 L 135.0 128.0 L 134.5 130.0 L 134.0 132.5 " stroke="black" fill="none" stroke-width="6.0" stroke-linecap="round" stroke-linejoin="round" />
<path d="M 117.0 143.5 L 117.0 143.5 L 117.0 143.0 L 119.0 143.0 L 124.5 143.0 L 131.5 142.0 L 137.5 141.0 L 140.5 140.5 " stroke="black" fill="none" stroke-width="6.0" stroke-linecap="round" stroke-linejoin="round" />
<path d="M 118.0 160.0 L 118.0 160.0 L 117.5 160.0 L 117.0 160.0 L 117.0 160.0 L 118.5 160.0 L 122.5 160.0 L 128.0 160.0 L 134.0 159.0 L 138.5 158.5 L 141.0 158.0 L 142.0 158.0 L 142.0 158.0 " stroke="black" fill="none" stroke-width="6.0" stroke-linecap="round" stroke-linejoin="round" />
<path d="M 130.0 144.5 L 130.0 144.5 L 130.0 144.0 L 130.0 144.0 L 130.0 145.0 L 130.0 150.0 L 130.0 161.5 L 130.0 174.5 L 129.5 184.5 L 129.5 188.0 L 130.0 188.5 L 130.0 188.5 " stroke="black" fill="none" stroke-width="6.0" stroke-linecap="round" stroke-linejoin="round" />
<path d="M 124.0 171.0 L 123.5 171.0 L 123.0 171.0 L 122.0 171.5 L 121.0 173.0 L 119.0 177.0 L 115.5 182.0 L 113.5 185.0 L 113.0 185.5 " stroke="black" fill="none" stroke-width="6.0" stroke-linecap="round" stroke-linejoin="round" />
<path d="M 135.5 173.0 L 135.5 173.0 L 135.5 173.0 L 136.5 173.0 L 139.0 174.5 L 142.5 176.0 L 144.5 176.0 " stroke="black" fill="none" stroke-width="6.0" stroke-linecap="round" stroke-linejoin="round" />
<path d="M 169.0 107.5 L 169.5 108.0 L 170.0 108.5 L 170.0 108.5 L 170.0 108.5 L 170.0 108.5 L 168.5 109.0 L 166.0 110.0 L 162.0 111.5 L 157.5 114.0 L 153.0 116.5 L 150.5 118.0 L 149.0 118.5 L 148.0 118.5 L 148.0 118.5 L 148.0 118.5 L 148.5 118.5 L 148.5 118.5 L 148.5 118.5 L 148.5 118.5 L 148.5 118.5 L 149.0 118.5 L 149.0 118.5 L 149.5 119.0 L 150.0 120.5 L 150.5 122.5 L 151.5 126.5 L 152.5 133.0 L 153.5 142.0 L 154.0 151.0 L 154.0 159.5 L 154.0 165.5 L 154.0 170.5 L 153.5 174.5 L 153.0 178.5 L 153.0 181.0 L 153.0 181.5 L 153.0 180.0 L 153.0 178.5 " stroke="black" fill="none" stroke-width="6.0" stroke-linecap="round" stroke-linejoin="round" />
<path d="M 159.5 126.5 L 159.0 127.0 L 157.5 128.0 L 156.5 128.5 L 156.5 128.5 L 157.5 128.5 L 161.5 128.5 L 166.0 128.5 L 170.0 127.5 L 173.5 126.0 L 176.0 124.0 L 177.5 122.5 " stroke="black" fill="none" stroke-width="6.0" stroke-linecap="round" stroke-linejoin="round" />
<path d="M 171.0 127.5 L 170.0 128.0 L 169.5 128.0 L 169.5 128.0 L 169.5 128.5 L 169.5 131.0 L 170.0 137.5 L 170.5 148.0 L 170.5 160.0 L 170.5 169.5 L 171.5 176.0 L 172.0 181.5 L 172.5 185.0 L 173.0 188.5 L 173.5 189.0 L 173.5 189.0 " stroke="black" fill="none" stroke-width="6.0" stroke-linecap="round" stroke-linejoin="round" />
</svg>