<svg xmlns="http://www.w3.org/2000/svg" width="300" height="300" viewBox="0 0 300 300">
<path d="M 127.5 124.5 L 127.5 124.5 L 127.5 124.0 L 127.0 124.0 L 127.0 125.5 L 128.5 130.5 L 130.0 137.5 L 131.0 142.5 L 132.0 145.0 L 132.5 144.0 " stroke="black" fill="none" stroke-width="7.0" stroke-linecap="round" stroke-linejoin="round" />
<path d="M 129.5 121.0 L 129.0 121.0 L 128.0 121.0 L 127.5 121.0 L 127.0 121.0 L 133.0 120.0 L 139.5 119.0 L 148.0 118.5 L 156.5 118.0 L 164.0 118.0 L 168.0 119.0 L 168.5 119.5 L 168.5 120.0 L 167.5 120.5 L 167.0 121.0 L 166.5 123.0 L 166.0 126.0 L 164.5 130.5 L 163.0 136.5 L 161.5 142.5 L 161.0 145.5 L 161.5 146.5 L 162.0 146.5 " stroke="black" fill="none" stroke-width="7.0" stroke-linecap="round" stroke-linejoin="round" />
<path d="M 135.5 148.5 L 135.0 148.5 L 134.5 148.5 L 134.5 148.5 L 135.0 148.5 L 139.0 147.5 L 145.5 147.0 L 152.5 146.0 L 159.0 145.5 L 163.5 145.5 L 163.5 145.5 " stroke="black" fill="none" stroke-width="7.0" stroke-linecap="round" stroke-linejoin="round" />
<path d="M 143.5 149.0 L 143.5 149.0 L 143.5 148.5 L 143.5 148.5 L 143.5 148.5 L 143.5 149.0 L 142.5 154.5 L 138.5 166.0 L 132.0 178.5 L 128.0 185.0 L 127.0 186.0 L 127.5 185.0 L 128.0 184.0 " stroke="black" fill="none" stroke-width="7.0" stroke-linecap="round" stroke-linejoin="round" />
<path d="M 151.0 152.0 L 151.5 152.0 L 152.0 152.0 L 152.5 151.5 L 153.0 151.5 L 153.0 153.0 L 152.5 158.5 L 151.5 168.0 L 151.0 176.5 L 152.5 182.0 L 157.0 184.0 L 163.5 184.0 L 171.0 182.5 L 177.0 180.5 L 181.0 178.5 L 182.5 177.0 L 182.5 176.0 L 181.5 174.5 L 180.0 173.0 L 179.0 171.5 L 178.5 170.0 L 178.0 169.5 L 177.0 168.5 L 177.0 168.0 " stroke="black" fill="none" stroke-width="7.0" stroke-linecap="round" stroke-linejoin="round" />
</svg>