<svg xmlns="http://www.w3.org/2000/svg" width="300" height="300" viewBox="0 0 300 300">
<path d="M 69.0 83.0 L 68.0 83.0 L 68.0 82.0 L 69.0 81.0 L 79.0 80.0 L 99.0 78.0 L 134.0 77.0 L 173.0 76.0 L 202.0 76.0 L 224.0 76.0 L 234.0 77.0 L 233.0 78.0 L 229.0 78.0 L 226.0 78.0 " stroke="black" fill="none" stroke-width="13.0" stroke-linecap="round" stroke-linejoin="round" />
<path d="M 76.0 107.0 L 78.0 106.0 L 80.0 104.0 L 80.0 103.0 L 79.0 105.0 L 74.0 113.0 L 68.0 123.0 L 65.0 130.0 L 65.0 132.0 L 67.0 129.0 " stroke="black" fill="none" stroke-width="13.0" stroke-linecap="round" stroke-linejoin="round" />
<path d="M 81.0 106.0 L 78.0 105.0 L 76.0 105.0 L 75.0 105.0 L 78.0 105.0 L 87.0 106.0 L 105.0 105.0 L 137.0 102.0 L 170.0 101.0 L 192.0 103.0 L 208.0 105.0 L 220.0 105.0 L 222.0 104.0 L 222.0 104.0 L 221.0 104.0 L 221.0 104.0 L 221.0 105.0 L 220.0 108.0 L 218.0 112.0 L 215.0 117.0 L 211.0 123.0 L 208.0 128.0 L 207.0 131.0 " stroke="black" fill="none" stroke-width="13.0" stroke-linecap="round" stroke-linejoin="round" />
<path d="M 145.0 87.0 L 143.0 84.0 L 142.0 82.0 L 142.0 81.0 L 142.0 82.0 L 143.0 88.0 L 144.0 99.0 L 144.0 116.0 L 143.0 137.0 L 142.0 152.0 L 142.0 156.0 L 143.0 156.0 " stroke="black" fill="none" stroke-width="13.0" stroke-linecap="round" stroke-linejoin="round" />
<path d="M 103.0 120.0 L 103.0 120.0 L 101.0 119.0 L 100.0 119.0 L 100.0 120.0 L 103.0 122.0 L 108.0 125.0 L 114.0 129.0 L 118.0 132.0 " stroke="black" fill="none" stroke-width="13.0" stroke-linecap="round" stroke-linejoin="round" />
<path d="M 99.0 157.0 L 95.0 158.0 L 94.0 158.0 L 94.0 158.0 L 100.0 155.0 L 107.0 151.0 L 118.0 147.0 L 126.0 144.0 " stroke="black" fill="none" stroke-width="13.0" stroke-linecap="round" stroke-linejoin="round" />
<path d="M 185.0 118.0 L 184.0 117.0 L 183.0 117.0 L 183.0 116.0 L 182.0 116.0 L 180.0 119.0 L 177.0 123.0 L 173.0 127.0 L 170.0 132.0 " stroke="black" fill="none" stroke-width="13.0" stroke-linecap="round" stroke-linejoin="round" />
<path d="M 164.0 145.0 L 165.0 145.0 L 166.0 143.0 L 169.0 143.0 L 175.0 144.0 L 181.0 148.0 L 187.0 154.0 L 188.0 155.0 " stroke="black" fill="none" stroke-width="13.0" stroke-linecap="round" stroke-linejoin="round" />
<path d="M 94.0 188.0 L 92.0 187.0 L 94.0 186.0 L 106.0 184.0 L 133.0 184.0 L 163.0 184.0 L 190.0 186.0 L 210.0 186.0 L 213.0 186.0 " stroke="black" fill="none" stroke-width="13.0" stroke-linecap="round" stroke-linejoin="round" />
<path d="M 87.0 214.0 L 87.0 214.0 L 86.0 213.0 L 90.0 212.0 L 101.0 211.0 L 122.0 210.0 L 152.0 210.0 L 181.0 210.0 L 201.0 210.0 L 209.0 210.0 L 209.0 211.0 " stroke="black" fill="none" stroke-width="13.0" stroke-linecap="round" stroke-linejoin="round" />
<path d="M 137.0 216.0 L 137.0 216.0 L 136.0 214.0 L 136.0 214.0 L 135.0 215.0 L 129.0 220.0 L 119.0 229.0 L 107.0 238.0 L 98.0 244.0 L 96.0 245.0 L 99.0 244.0 L 109.0 242.0 L 124.0 240.0 L 141.0 239.0 L 158.0 240.0 L 172.0 241.0 L 181.0 242.0 L 187.0 242.0 L 189.0 242.0 " stroke="black" fill="none" stroke-width="13.0" stroke-linecap="round" stroke-linejoin="round" />
<path d="M 192.0 235.0 L 191.0 233.0 L 190.0 231.0 L 190.0 231.0 L 191.0 231.0 L 194.0 236.0 L 200.0 243.0 L 208.0 252.0 L 219.0 260.0 " stroke="black" fill="none" stroke-width="13.0" stroke-linecap="round" stroke-linejoin="round" />
</svg>