<svg xmlns="http://www.w3.org/2000/svg" width="300" height="300" viewBox="0 0 300 300">
<path d="M 130.0 119.0 L 130.0 118.5 L 130.5 118.0 L 131.0 117.5 L 133.5 117.5 L 139.0 117.5 L 149.0 117.0 L 160.0 115.0 L 168.0 113.5 L 171.5 113.5 L 172.0 114.5 L 172.0 115.0 L 172.0 115.0 L 172.0 115.0 L 172.0 115.0 L 172.0 115.0 " stroke="black" fill="none" stroke-width="6.0" stroke-linecap="round" stroke-linejoin="round" />
<path d="M 129.0 140.0 L 129.5 139.0 L 130.0 138.0 L 130.5 137.5 L 131.0 139.5 L 131.5 146.0 L 131.5 155.0 L 131.5 164.5 L 131.5 169.5 L 132.0 170.5 L 132.0 168.5 " stroke="black" fill="none" stroke-width="6.0" stroke-linecap="round" stroke-linejoin="round" />
<path d="M 135.5 136.0 L 134.5 136.0 L 132.5 136.0 L 131.0 136.0 L 131.0 136.0 L 133.5 136.0 L 139.0 136.0 L 145.5 135.0 L 153.5 134.5 L 161.5 134.5 L 167.0 135.0 L 170.0 136.0 L 172.0 136.0 L 173.0 136.0 L 173.5 136.5 L 173.5 137.5 L 174.0 139.0 L 174.0 142.0 L 174.0 146.5 L 174.0 152.5 L 174.0 159.5 L 174.0 166.5 L 174.0 172.5 L 173.5 177.0 L 172.5 181.0 L 171.5 184.0 L 170.0 184.5 L 168.5 184.0 L 167.0 180.5 L 167.0 179.0 " stroke="black" fill="none" stroke-width="6.0" stroke-linecap="round" stroke-linejoin="round" />
<path d="M 149.0 116.0 L 149.5 116.0 L 150.5 116.0 L 151.0 117.0 L 151.0 121.0 L 151.5 129.0 L 151.5 141.5 L 151.5 161.5 L 151.0 166.5 L 151.0 168.0 L 151.0 168.0 " stroke="black" fill="none" stroke-width="6.0" stroke-linecap="round" stroke-linejoin="round" />
<path d="M 141.5 146.0 L 142.0 146.0 L 142.5 145.5 L 142.5 145.5 L 142.5 146.5 L 141.0 150.0 L 138.5 154.5 L 136.5 158.5 L 135.5 160.0 L 135.0 160.0 L 135.5 159.5 L 137.0 159.0 L 139.5 159.0 L 142.0 160.0 L 145.0 161.0 L 147.5 161.0 L 149.5 161.0 " stroke="black" fill="none" stroke-width="6.0" stroke-linecap="round" stroke-linejoin="round" />
<path d="M 164.5 147.5 L 164.0 147.5 L 163.5 146.5 L 163.5 146.0 L 163.5 146.0 L 163.5 146.0 L 163.5 148.0 L 163.0 151.5 L 161.5 156.5 L 160.0 160.5 L 159.0 162.0 L 159.0 161.0 L 159.0 159.0 L 159.0 158.5 L 160.0 158.0 L 162.0 158.5 L 165.0 159.5 L 168.0 161.0 L 170.5 162.5 L 171.5 163.0 " stroke="black" fill="none" stroke-width="6.0" stroke-linecap="round" stroke-linejoin="round" />
</svg>