<svg xmlns="http://www.w3.org/2000/svg" width="300" height="300" viewBox="0 0 300 300">
<path d="M 121.5 120.0 L 120.5 120.0 L 120.5 119.5 L 121.5 119.5 L 124.5 120.5 L 127.0 121.5 L 129.0 123.0 L 130.0 124.5 " stroke="black" fill="none" stroke-width="6.0" stroke-linecap="round" stroke-linejoin="round" />
<path d="M 122.0 141.0 L 121.0 141.5 L 121.0 141.5 L 121.0 141.5 L 123.5 142.5 L 126.0 144.5 L 128.5 146.5 L 129.5 147.5 " stroke="black" fill="none" stroke-width="6.0" stroke-linecap="round" stroke-linejoin="round" />
<path d="M 120.0 180.5 L 119.5 180.5 L 119.0 180.5 L 121.0 178.0 L 125.0 173.5 L 129.0 169.0 L 132.0 165.5 " stroke="black" fill="none" stroke-width="6.0" stroke-linecap="round" stroke-linejoin="round" />
<path d="M 142.5 127.0 L 142.0 127.0 L 141.5 127.0 L 142.5 126.5 L 147.0 126.0 L 152.5 125.0 L 159.0 124.0 L 165.0 123.5 L 168.5 123.0 L 171.5 122.5 L 173.0 122.5 L 173.5 122.5 L 174.0 123.0 L 174.5 123.5 L 174.5 123.5 L 174.5 124.0 L 175.0 124.5 L 175.0 126.0 L 175.0 127.5 L 175.0 129.5 L 174.5 131.5 L 174.0 133.0 L 173.5 134.5 " stroke="black" fill="none" stroke-width="6.0" stroke-linecap="round" stroke-linejoin="round" />
<path d="M 145.5 129.0 L 145.5 128.5 L 145.0 128.0 L 144.5 128.0 L 144.5 128.0 L 144.5 131.0 L 145.0 137.5 L 145.5 148.5 L 145.5 163.5 L 143.5 176.0 L 142.5 182.5 L 141.5 185.5 L 141.0 185.0 L 140.5 183.5 " stroke="black" fill="none" stroke-width="6.0" stroke-linecap="round" stroke-linejoin="round" />
<path d="M 159.0 116.0 L 159.0 116.0 L 159.5 116.0 L 159.5 116.0 L 159.5 116.5 L 160.0 120.0 L 160.0 129.5 L 159.5 141.0 L 159.0 147.0 L 159.0 148.5 L 159.0 148.5 " stroke="black" fill="none" stroke-width="6.0" stroke-linecap="round" stroke-linejoin="round" />
<path d="M 152.5 153.0 L 152.5 153.5 L 152.5 154.0 L 153.5 154.0 L 156.5 153.0 L 161.5 151.0 L 166.5 149.0 L 169.5 148.0 L 170.5 148.0 L 171.0 149.0 L 170.5 151.5 L 169.5 155.5 L 168.0 161.5 L 165.0 169.0 L 162.0 176.0 L 159.5 182.5 L 158.0 185.0 L 158.0 185.5 L 157.0 184.0 " stroke="black" fill="none" stroke-width="6.0" stroke-linecap="round" stroke-linejoin="round" />
<path d="M 158.0 164.0 L 158.0 164.0 L 158.0 164.0 L 158.0 164.0 L 160.5 165.0 L 166.5 169.0 L 174.5 175.0 L 181.0 181.5 L 184.0 184.0 " stroke="black" fill="none" stroke-width="6.0" stroke-linecap="round" stroke-linejoin="round" />
</svg>