<svg xmlns="http://www.w3.org/2000/svg" width="300" height="300" viewBox="0 0 300 300">
<path d="M 119.0 144.0 L 119.0 144.0 L 118.5 144.0 L 118.5 144.0 L 122.0 144.0 L 129.5 143.5 L 137.0 142.5 L 141.5 141.5 L 143.0 141.5 L 143.5 141.0 L 143.5 141.0 " stroke="black" fill="none" stroke-width="6.0" stroke-linecap="round" stroke-linejoin="round" />
<path d="M 132.0 124.0 L 132.5 124.0 L 133.0 123.5 L 133.0 123.0 L 133.0 123.5 L 133.0 127.0 L 133.0 136.5 L 133.5 151.5 L 134.0 165.5 L 134.5 173.5 L 134.5 176.0 L 134.0 176.5 L 133.5 176.0 " stroke="black" fill="none" stroke-width="6.0" stroke-linecap="round" stroke-linejoin="round" />
<path d="M 119.0 129.0 L 119.0 129.5 L 119.0 130.0 L 119.5 130.5 L 122.0 131.5 L 125.5 133.0 L 126.5 133.5 " stroke="black" fill="none" stroke-width="6.0" stroke-linecap="round" stroke-linejoin="round" />
<path d="M 143.0 128.5 L 142.5 128.5 L 142.5 129.0 L 142.0 129.0 L 142.0 130.5 L 141.5 133.0 L 140.5 137.0 L 139.5 139.0 " stroke="black" fill="none" stroke-width="6.0" stroke-linecap="round" stroke-linejoin="round" />
<path d="M 122.0 157.0 L 122.0 157.0 L 122.0 157.5 L 121.5 158.0 L 121.5 159.5 L 121.0 162.0 L 120.5 165.0 L 119.0 168.5 " stroke="black" fill="none" stroke-width="6.0" stroke-linecap="round" stroke-linejoin="round" />
<path d="M 135.0 154.0 L 136.5 154.5 L 138.0 155.5 L 140.5 157.0 L 144.0 160.5 L 147.0 163.5 L 148.5 165.5 L 148.5 165.5 " stroke="black" fill="none" stroke-width="6.0" stroke-linecap="round" stroke-linejoin="round" />
<path d="M 153.5 122.0 L 153.5 122.0 L 154.0 122.0 L 154.0 122.0 L 156.0 122.0 L 161.0 121.5 L 166.5 120.5 L 170.0 120.5 L 171.0 120.5 " stroke="black" fill="none" stroke-width="6.0" stroke-linecap="round" stroke-linejoin="round" />
<path d="M 157.0 130.0 L 157.0 130.5 L 157.0 131.5 L 158.0 131.5 L 161.0 131.5 L 164.5 131.0 L 168.0 130.0 " stroke="black" fill="none" stroke-width="6.0" stroke-linecap="round" stroke-linejoin="round" />
<path d="M 163.0 113.0 L 163.0 113.0 L 163.0 113.5 L 162.5 114.0 L 162.5 115.5 L 162.5 120.0 L 162.5 128.5 L 163.0 135.5 L 163.0 138.0 " stroke="black" fill="none" stroke-width="6.0" stroke-linecap="round" stroke-linejoin="round" />
<path d="M 153.5 143.5 L 155.5 143.0 L 158.0 142.5 L 162.5 141.5 L 167.5 140.5 L 170.5 140.5 L 172.0 141.5 " stroke="black" fill="none" stroke-width="6.0" stroke-linecap="round" stroke-linejoin="round" />
<path d="M 156.0 152.0 L 157.0 152.0 L 157.5 152.0 L 158.0 152.5 L 158.5 156.0 L 159.0 164.0 L 159.0 172.0 L 158.5 177.0 L 158.0 177.5 L 158.0 176.5 " stroke="black" fill="none" stroke-width="6.0" stroke-linecap="round" stroke-linejoin="round" />
<path d="M 160.5 151.5 L 161.0 151.0 L 161.5 150.5 L 162.5 150.0 L 164.5 149.5 L 168.0 149.0 L 171.0 149.0 L 173.5 149.0 L 175.0 149.5 L 176.0 150.5 L 176.5 153.0 L 177.5 157.5 L 178.5 164.5 L 179.0 172.5 L 179.5 178.5 L 179.0 181.5 L 177.0 182.0 L 174.5 181.5 L 173.0 180.0 " stroke="black" fill="none" stroke-width="6.0" stroke-linecap="round" stroke-linejoin="round" />
<path d="M 164.0 161.0 L 163.0 161.5 L 162.5 162.0 L 162.5 162.0 L 164.5 162.0 L 169.0 161.0 L 172.5 160.5 L 175.0 160.0 L 175.5 160.5 " stroke="black" fill="none" stroke-width="6.0" stroke-linecap="round" stroke-linejoin="round" />
<path d="M 166.5 170.0 L 164.5 170.5 L 164.5 171.0 L 168.0 171.0 L 173.0 170.0 L 175.5 168.5 " stroke="black" fill="none" stroke-width="6.0" stroke-linecap="round" stroke-linejoin="round" />
</svg>