<svg xmlns="http://www.w3.org/2000/svg" width="300" height="300" viewBox="0 0 300 300">
<path d="M 133.5 124.5 L 133.5 124.5 L 132.5 125.0 L 132.0 125.5 L 131.5 125.5 L 131.5 125.5 L 133.5 125.0 L 137.5 124.5 L 143.0 124.0 L 149.0 123.0 L 153.0 123.0 L 155.0 123.0 L 155.0 123.0 L 154.5 123.5 L 154.0 125.0 L 154.0 127.5 L 154.0 130.5 L 153.5 135.5 L 153.5 142.5 L 153.5 150.5 L 156.0 159.0 L 160.5 165.0 L 165.0 168.5 L 169.0 170.5 L 172.5 172.5 L 174.5 174.0 L 177.5 175.0 L 179.5 175.0 " stroke="black" fill="none" stroke-width="6.0" stroke-linecap="round" stroke-linejoin="round" />
<path d="M 150.0 142.0 L 150.0 142.0 L 150.0 142.0 L 150.5 142.0 L 150.5 142.0 L 150.5 143.0 L 150.0 146.0 L 146.5 153.0 L 140.5 162.5 L 135.0 169.0 L 131.5 171.5 L 129.0 173.0 L 127.0 173.5 " stroke="black" fill="none" stroke-width="6.0" stroke-linecap="round" stroke-linejoin="round" />
</svg>