<svg xmlns="http://www.w3.org/2000/svg" width="300" height="300" viewBox="0 0 300 300">
<path d="M 133.5 118.0 L 133.5 117.5 L 133.5 117.0 L 133.5 117.0 L 133.5 117.0 L 134.0 118.0 L 134.0 121.0 L 133.0 126.5 L 131.0 135.0 L 128.0 145.0 L 126.5 152.0 L 126.0 155.5 L 126.0 157.5 L 126.0 159.5 L 126.5 160.0 L 127.5 160.5 L 129.0 162.0 L 131.0 165.0 L 133.5 171.0 L 137.0 179.0 L 140.0 186.0 L 142.0 190.0 L 143.0 190.5 L 143.0 188.0 L 143.0 187.0 " stroke="black" fill="none" stroke-width="6.0" stroke-linecap="round" stroke-linejoin="round" />
<path d="M 142.0 140.5 L 142.0 140.5 L 141.5 140.5 L 141.0 140.5 L 141.0 140.5 L 141.0 142.5 L 141.0 147.0 L 138.5 156.5 L 134.0 170.5 L 129.5 182.5 L 127.5 186.0 L 127.5 185.5 L 127.5 185.0 " stroke="black" fill="none" stroke-width="6.0" stroke-linecap="round" stroke-linejoin="round" />
<path d="M 117.5 151.0 L 117.0 151.0 L 116.0 151.5 L 116.5 151.0 L 120.0 149.5 L 127.0 147.5 L 136.0 145.0 L 145.5 142.5 L 151.5 141.0 L 153.5 140.5 " stroke="black" fill="none" stroke-width="6.0" stroke-linecap="round" stroke-linejoin="round" />
<path d="M 152.5 119.5 L 153.0 119.5 L 153.5 119.0 L 154.0 119.0 L 155.5 119.0 L 159.0 118.5 L 165.0 117.5 L 171.0 116.5 L 176.0 116.5 L 180.5 116.5 L 181.0 116.5 L 181.5 117.0 L 181.5 117.0 L 181.5 117.0 L 181.5 118.0 L 181.0 120.5 L 180.5 124.0 L 179.0 128.5 L 178.5 132.0 L 178.0 134.5 L 178.0 134.5 " stroke="black" fill="none" stroke-width="6.0" stroke-linecap="round" stroke-linejoin="round" />
<path d="M 166.5 119.0 L 166.5 118.5 L 166.5 118.0 L 166.5 118.5 L 166.5 120.5 L 167.0 123.5 L 167.5 126.5 L 167.5 130.0 L 167.0 133.0 L 167.0 135.0 " stroke="black" fill="none" stroke-width="6.0" stroke-linecap="round" stroke-linejoin="round" />
<path d="M 162.0 137.0 L 162.0 137.0 L 162.0 137.0 L 162.5 137.0 L 165.0 136.5 L 169.5 135.5 L 174.0 134.5 L 175.5 133.5 " stroke="black" fill="none" stroke-width="6.0" stroke-linecap="round" stroke-linejoin="round" />
<path d="M 158.5 122.5 L 158.5 122.5 L 159.0 122.0 L 159.0 122.0 L 159.5 123.0 L 159.5 125.5 L 159.5 131.0 L 159.5 142.0 L 158.5 157.5 L 157.5 171.5 L 156.0 179.0 L 154.5 183.0 L 153.0 185.0 L 152.5 185.5 L 152.5 185.0 L 152.5 184.0 " stroke="black" fill="none" stroke-width="6.0" stroke-linecap="round" stroke-linejoin="round" />
<path d="M 166.5 151.5 L 166.5 151.5 L 166.5 151.5 L 167.0 151.5 L 167.0 151.5 L 167.5 152.0 L 168.0 154.0 L 168.5 160.5 L 168.5 171.5 L 168.0 182.0 L 168.0 186.0 L 168.0 184.0 L 168.5 181.5 " stroke="black" fill="none" stroke-width="6.0" stroke-linecap="round" stroke-linejoin="round" />
<path d="M 169.0 151.0 L 168.5 151.5 L 166.5 152.5 L 166.5 153.0 L 167.0 153.0 L 170.0 152.5 L 173.5 151.5 L 178.5 150.5 L 183.0 150.0 L 186.0 150.0 L 187.5 150.0 L 188.0 150.5 L 188.0 152.5 L 187.5 158.0 L 186.5 166.0 L 186.5 175.0 L 186.0 182.0 L 186.0 186.0 L 186.0 187.0 L 186.5 185.0 L 186.5 184.5 " stroke="black" fill="none" stroke-width="6.0" stroke-linecap="round" stroke-linejoin="round" />
<path d="M 171.5 163.0 L 171.5 162.5 L 171.0 162.0 L 171.0 162.0 L 172.0 161.5 L 174.5 161.5 L 177.5 161.5 L 181.0 161.0 L 183.0 160.0 " stroke="black" fill="none" stroke-width="6.0" stroke-linecap="round" stroke-linejoin="round" />
<path d="M 172.5 170.5 L 172.5 170.5 L 171.5 170.5 L 171.5 170.5 L 172.5 170.5 L 174.5 170.5 L 177.5 170.5 L 180.0 170.5 L 182.0 170.5 " stroke="black" fill="none" stroke-width="6.0" stroke-linecap="round" stroke-linejoin="round" />
<path d="M 170.0 187.5 L 170.0 186.5 L 170.0 185.5 L 171.5 185.0 L 175.5 185.0 L 180.5 185.0 L 184.5 184.5 L 186.0 184.0 " stroke="black" fill="none" stroke-width="6.0" stroke-linecap="round" stroke-linejoin="round" />
</svg>