<svg xmlns="http://www.w3.org/2000/svg" width="300" height="300" viewBox="0 0 300 300">
<path d="M 141.0 106.5 L 141.5 106.5 L 141.5 105.5 L 142.0 104.5 L 143.0 103.5 L 143.5 103.0 L 143.5 103.0 L 142.5 106.5 L 138.0 114.0 L 131.0 124.5 L 125.5 132.5 L 123.5 134.5 L 123.5 134.0 L 124.5 132.5 " stroke="black" fill="none" stroke-width="6.0" stroke-linecap="round" stroke-linejoin="round" />
<path d="M 163.0 107.0 L 161.5 107.0 L 161.0 107.0 L 162.0 108.5 L 167.0 112.5 L 173.0 117.0 L 179.0 121.0 L 183.0 124.0 L 183.5 125.5 " stroke="black" fill="none" stroke-width="6.0" stroke-linecap="round" stroke-linejoin="round" />
<path d="M 140.0 131.5 L 139.5 131.5 L 139.0 131.5 L 140.0 131.5 L 145.0 131.0 L 153.0 131.0 L 161.5 131.0 L 166.5 131.0 L 168.5 131.5 L 168.5 131.5 " stroke="black" fill="none" stroke-width="6.0" stroke-linecap="round" stroke-linejoin="round" />
<path d="M 148.0 133.0 L 148.0 133.0 L 148.5 133.5 L 149.0 133.5 L 149.5 133.5 L 150.0 133.0 L 150.0 134.0 L 149.0 138.5 L 145.5 145.5 L 141.0 152.5 L 137.5 157.5 L 135.5 159.0 L 135.5 159.0 L 135.5 159.0 L 136.5 158.5 L 138.5 158.0 L 142.0 157.5 L 146.5 157.5 L 153.5 157.5 L 161.0 157.5 L 167.0 157.5 L 170.5 157.5 L 171.5 158.0 L 171.5 158.0 L 171.5 158.0 L 171.0 158.0 L 171.0 158.0 L 171.0 158.0 L 171.0 158.0 L 171.0 158.0 L 171.0 158.0 L 171.0 158.0 L 171.0 158.5 L 171.0 158.5 L 170.5 158.5 L 170.5 158.5 L 170.5 159.0 L 170.0 161.0 L 169.5 165.0 L 169.0 171.0 L 167.5 178.5 L 167.0 185.5 L 166.5 190.5 L 165.5 193.5 L 163.0 195.0 L 160.0 196.0 L 156.0 195.0 L 151.5 192.0 L 148.0 188.5 L 146.5 186.0 L 146.5 186.0 " stroke="black" fill="none" stroke-width="6.0" stroke-linecap="round" stroke-linejoin="round" />
</svg>