<svg xmlns="http://www.w3.org/2000/svg" width="300" height="300" viewBox="0 0 300 300">
<path d="M 139.5 116.5 L 139.5 116.5 L 140.5 116.5 L 141.0 115.5 L 141.0 115.5 L 141.0 115.5 L 140.0 117.5 L 136.5 123.5 L 131.5 131.0 L 127.5 137.0 L 126.0 139.5 L 126.0 139.5 " stroke="black" fill="none" stroke-width="6.0" stroke-linecap="round" stroke-linejoin="round" />
<path d="M 163.0 112.0 L 162.5 112.0 L 160.5 113.0 L 160.0 113.5 L 160.5 115.0 L 164.0 119.0 L 169.5 123.5 L 174.5 127.5 L 178.0 130.0 L 179.5 131.0 L 179.5 131.5 " stroke="black" fill="none" stroke-width="6.0" stroke-linecap="round" stroke-linejoin="round" />
<path d="M 139.5 136.0 L 139.5 136.5 L 140.0 137.5 L 140.0 138.0 L 141.5 138.0 L 145.5 138.0 L 153.0 137.5 L 161.0 137.0 L 166.5 137.0 L 170.0 137.0 L 170.5 137.0 " stroke="black" fill="none" stroke-width="6.0" stroke-linecap="round" stroke-linejoin="round" />
<path d="M 148.5 143.5 L 149.0 143.0 L 149.5 141.5 L 150.0 140.0 L 150.5 139.0 L 151.0 138.0 L 151.0 137.5 L 151.0 138.0 L 149.5 141.0 L 147.5 146.0 L 145.0 151.0 L 142.0 156.0 L 139.5 159.0 L 139.0 159.5 L 139.0 159.5 L 140.5 158.5 L 143.5 157.5 L 147.5 156.5 L 152.5 155.5 L 157.5 154.5 L 162.5 153.5 L 166.0 153.5 L 167.5 153.5 L 168.5 153.5 L 169.0 154.0 L 169.5 154.5 L 169.5 155.0 L 169.5 156.0 L 169.5 157.5 L 169.5 160.5 L 169.5 164.0 L 169.5 168.5 L 169.0 174.5 L 168.5 181.0 L 168.0 185.5 L 166.5 189.5 L 160.5 191.5 L 156.5 190.0 L 153.0 187.5 L 151.5 185.5 L 151.0 185.0 " stroke="black" fill="none" stroke-width="6.0" stroke-linecap="round" stroke-linejoin="round" />
</svg>