<svg xmlns="http://www.w3.org/2000/svg" width="300" height="300" viewBox="0 0 300 300">
<path d="M 123.0 118.0 L 123.0 118.0 L 123.0 118.0 L 123.5 118.0 L 128.0 117.5 L 134.5 117.0 L 140.0 117.0 L 143.0 117.0 L 144.0 116.5 L 144.0 115.0 L 144.0 114.5 " stroke="black" fill="none" stroke-width="6.0" stroke-linecap="round" stroke-linejoin="round" />
<path d="M 133.5 107.5 L 134.0 107.5 L 134.5 107.5 L 135.0 107.5 L 135.0 108.5 L 135.0 111.5 L 134.5 118.5 L 134.0 125.5 L 134.0 128.0 L 134.0 128.0 " stroke="black" fill="none" stroke-width="6.0" stroke-linecap="round" stroke-linejoin="round" />
<path d="M 157.0 113.0 L 156.5 113.5 L 156.5 114.0 L 156.5 114.0 L 160.0 114.0 L 164.5 113.5 L 168.5 113.5 L 171.5 113.5 L 173.0 113.5 L 174.0 113.0 " stroke="black" fill="none" stroke-width="6.0" stroke-linecap="round" stroke-linejoin="round" />
<path d="M 165.5 103.5 L 165.5 103.5 L 165.5 103.5 L 165.5 104.0 L 165.5 106.0 L 166.0 110.5 L 166.5 117.0 L 167.0 121.0 L 167.5 123.5 " stroke="black" fill="none" stroke-width="6.0" stroke-linecap="round" stroke-linejoin="round" />
<path d="M 127.0 146.0 L 127.0 146.0 L 127.0 145.5 L 127.0 145.5 L 127.5 145.5 L 131.0 145.0 L 139.5 145.0 L 150.5 144.5 L 158.5 144.0 L 164.0 143.5 L 167.0 143.5 L 168.0 143.5 L 168.5 143.5 L 169.0 143.5 L 169.0 143.5 L 169.5 143.5 L 170.0 143.5 L 170.5 143.5 L 171.0 143.5 L 171.0 143.5 " stroke="black" fill="none" stroke-width="6.0" stroke-linecap="round" stroke-linejoin="round" />
<path d="M 129.0 148.5 L 129.5 148.5 L 130.0 148.0 L 130.5 148.0 L 130.5 148.0 L 131.0 148.0 L 131.0 148.5 L 131.0 150.0 L 130.5 154.5 L 129.0 162.5 L 125.0 173.5 L 120.5 184.0 L 116.0 190.5 L 113.0 193.5 L 112.0 194.5 L 112.5 194.0 L 113.5 191.5 " stroke="black" fill="none" stroke-width="6.0" stroke-linecap="round" stroke-linejoin="round" />
<path d="M 151.5 134.0 L 151.0 134.0 L 150.5 134.0 L 150.0 134.5 L 150.0 136.5 L 151.5 142.0 L 154.0 151.5 L 156.0 163.0 L 158.0 173.5 L 161.5 180.0 L 166.0 184.5 L 170.5 186.5 L 174.0 187.0 L 176.5 187.0 L 178.5 187.0 L 180.0 186.5 L 181.0 185.0 L 182.0 182.5 L 182.0 179.5 L 181.0 177.5 L 180.5 177.0 " stroke="black" fill="none" stroke-width="6.0" stroke-linecap="round" stroke-linejoin="round" />
<path d="M 162.5 153.5 L 162.5 153.5 L 163.0 153.5 L 163.5 153.5 L 164.0 153.5 L 164.0 154.0 L 164.0 155.0 L 163.0 157.5 L 161.0 161.5 L 158.0 167.0 L 152.5 173.0 L 145.5 179.0 L 139.0 183.0 L 136.0 184.5 L 135.5 184.5 L 135.5 183.5 " stroke="black" fill="none" stroke-width="6.0" stroke-linecap="round" stroke-linejoin="round" />
<path d="M 164.5 132.5 L 164.0 132.5 L 162.5 132.5 L 162.0 132.5 L 162.0 132.5 L 163.5 133.0 L 166.0 134.5 L 168.5 135.5 L 170.0 136.5 L 171.0 137.0 " stroke="black" fill="none" stroke-width="6.0" stroke-linecap="round" stroke-linejoin="round" />
</svg>