<svg xmlns="http://www.w3.org/2000/svg" width="300" height="300" viewBox="0 0 300 300">
<path d="M 136.0 107.0 L 136.0 107.0 L 137.0 107.0 L 137.5 106.5 L 138.0 106.5 L 138.5 106.0 L 139.0 106.0 L 139.5 105.5 L 139.5 106.5 L 139.5 110.5 L 137.0 119.0 L 133.0 132.0 L 129.0 144.0 L 126.5 153.0 L 124.0 160.0 L 121.5 165.5 L 120.5 168.5 L 120.5 169.0 L 121.0 169.0 L 122.0 168.5 L 123.5 168.0 L 126.0 168.0 L 130.0 168.0 L 137.0 168.0 L 146.5 167.5 L 156.5 167.0 L 164.0 166.5 L 168.5 166.5 L 169.5 166.5 L 169.5 166.0 " stroke="black" fill="none" stroke-width="7.0" stroke-linecap="round" stroke-linejoin="round" />
<path d="M 140.5 107.0 L 140.5 107.0 L 140.5 107.0 L 140.5 107.5 L 140.5 107.5 L 141.5 107.5 L 144.0 107.5 L 148.0 107.5 L 153.5 107.0 L 160.0 107.0 L 166.0 107.0 L 170.0 106.5 L 171.5 106.5 L 172.0 106.5 L 172.0 107.0 L 171.5 107.5 L 171.5 107.5 L 171.5 108.5 L 171.0 110.0 L 171.0 112.5 L 170.0 116.5 L 169.0 122.5 L 168.0 129.0 L 166.5 137.0 L 165.5 145.5 L 164.0 153.0 L 162.0 161.5 L 160.0 169.5 L 158.0 176.0 L 155.5 182.5 L 152.5 188.0 L 149.5 192.5 L 147.0 196.0 L 144.0 198.0 L 142.5 198.0 L 142.0 197.5 L 142.0 196.0 " stroke="black" fill="none" stroke-width="7.0" stroke-linecap="round" stroke-linejoin="round" />
<path d="M 149.5 120.5 L 149.5 120.5 L 149.0 120.0 L 149.0 119.5 L 149.0 119.5 L 149.5 120.0 L 151.5 121.5 L 153.5 124.5 L 155.5 126.5 L 156.5 127.5 " stroke="black" fill="none" stroke-width="7.0" stroke-linecap="round" stroke-linejoin="round" />
<path d="M 121.0 135.0 L 121.0 135.0 L 121.0 135.5 L 121.0 136.0 L 122.0 136.0 L 125.5 136.0 L 134.0 135.0 L 146.0 134.5 L 158.0 133.5 L 168.0 133.0 L 174.5 133.0 L 178.0 133.0 L 179.5 133.0 L 178.5 133.5 " stroke="black" fill="none" stroke-width="7.0" stroke-linecap="round" stroke-linejoin="round" />
<path d="M 144.0 148.5 L 144.0 148.5 L 143.5 148.0 L 143.5 148.0 L 144.0 148.0 L 146.0 149.5 L 149.0 151.5 L 152.5 153.5 " stroke="black" fill="none" stroke-width="7.0" stroke-linecap="round" stroke-linejoin="round" />
</svg>