<svg xmlns="http://www.w3.org/2000/svg" width="300" height="300" viewBox="0 0 300 300">
<path d="M 121.5 115.0 L 120.0 115.0 L 119.5 115.0 L 119.5 115.0 L 120.0 116.5 L 122.0 118.5 L 123.5 121.0 L 124.5 122.5 L 125.5 123.5 " stroke="black" fill="none" stroke-width="6.0" stroke-linecap="round" stroke-linejoin="round" />
<path d="M 116.5 133.5 L 116.0 134.5 L 116.0 135.0 L 116.0 135.0 L 117.5 135.0 L 120.5 134.0 L 123.5 133.5 L 126.0 132.5 L 127.5 132.5 " stroke="black" fill="none" stroke-width="6.0" stroke-linecap="round" stroke-linejoin="round" />
<path d="M 118.0 149.0 L 117.5 149.5 L 117.0 150.0 L 116.5 150.5 L 118.0 150.5 L 121.0 150.0 L 123.5 149.5 L 126.0 149.0 L 128.0 149.0 L 128.5 148.5 " stroke="black" fill="none" stroke-width="6.0" stroke-linecap="round" stroke-linejoin="round" />
<path d="M 120.5 165.5 L 120.5 165.0 L 120.5 164.0 L 120.5 163.5 L 121.5 163.5 L 124.0 163.5 L 126.0 163.5 L 127.0 163.5 " stroke="black" fill="none" stroke-width="6.0" stroke-linecap="round" stroke-linejoin="round" />
<path d="M 118.0 177.0 L 118.0 177.0 L 118.0 177.5 L 118.0 177.5 L 118.0 178.0 L 118.0 179.0 L 119.0 181.5 L 119.5 185.0 L 120.5 187.5 " stroke="black" fill="none" stroke-width="6.0" stroke-linecap="round" stroke-linejoin="round" />
<path d="M 120.5 181.5 L 120.0 181.0 L 119.0 180.5 L 119.5 179.5 L 122.5 177.5 L 126.0 176.0 L 129.5 175.5 L 132.0 175.5 L 134.0 176.5 L 135.0 179.0 L 135.5 182.5 L 135.5 186.0 L 134.5 189.0 L 132.5 190.5 L 132.0 191.0 " stroke="black" fill="none" stroke-width="6.0" stroke-linecap="round" stroke-linejoin="round" />
<path d="M 126.0 191.5 L 125.5 191.5 L 125.0 192.0 L 124.5 192.0 L 126.0 192.0 L 128.0 191.0 L 130.0 190.0 L 131.0 189.5 " stroke="black" fill="none" stroke-width="6.0" stroke-linecap="round" stroke-linejoin="round" />
<path d="M 141.0 124.0 L 141.0 123.5 L 141.0 123.5 L 141.5 123.0 L 143.5 123.0 L 148.5 123.5 L 156.5 124.0 L 164.5 124.0 L 171.5 123.5 L 175.5 122.5 L 176.5 122.0 L 176.5 122.0 L 176.5 122.0 L 176.0 122.0 L 175.5 122.0 " stroke="black" fill="none" stroke-width="6.0" stroke-linecap="round" stroke-linejoin="round" />
<path d="M 145.0 123.0 L 145.0 123.0 L 145.0 122.5 L 145.0 122.5 L 145.0 123.0 L 145.5 125.5 L 145.5 130.5 L 145.5 139.0 L 144.5 150.0 L 144.0 161.0 L 144.0 169.5 L 142.5 175.5 L 140.0 180.5 L 138.5 183.0 L 138.5 183.0 L 138.0 181.5 " stroke="black" fill="none" stroke-width="6.0" stroke-linecap="round" stroke-linejoin="round" />
<path d="M 165.0 112.0 L 165.0 112.0 L 165.0 112.5 L 164.5 113.0 L 164.5 114.5 L 165.5 120.0 L 167.5 131.0 L 169.0 146.0 L 171.5 158.5 L 174.5 167.0 L 178.5 173.5 L 182.5 177.0 L 185.5 177.5 L 187.0 177.0 L 188.5 174.5 L 189.0 172.0 L 189.5 169.5 L 189.5 167.5 L 189.5 167.0 " stroke="black" fill="none" stroke-width="6.0" stroke-linecap="round" stroke-linejoin="round" />
<path d="M 179.0 140.0 L 179.0 140.0 L 179.0 139.5 L 179.0 139.5 L 179.0 139.5 L 179.0 140.5 L 179.0 145.0 L 177.0 152.5 L 173.0 161.0 L 168.5 167.0 L 165.5 169.0 L 165.0 169.0 L 165.0 169.0 " stroke="black" fill="none" stroke-width="6.0" stroke-linecap="round" stroke-linejoin="round" />
<path d="M 153.0 145.5 L 153.0 145.5 L 153.0 145.5 L 153.0 145.5 L 154.5 145.5 L 156.5 145.5 L 158.5 145.5 L 160.0 145.5 L 160.5 146.0 L 160.5 146.5 L 160.0 147.5 L 159.0 149.0 L 158.5 151.5 L 158.0 155.0 L 158.0 159.5 L 158.0 164.0 L 158.0 167.5 L 158.0 169.0 L 157.0 169.5 L 155.0 169.0 L 153.0 167.0 L 151.5 165.5 " stroke="black" fill="none" stroke-width="6.0" stroke-linecap="round" stroke-linejoin="round" />
<path d="M 176.5 107.0 L 176.5 107.0 L 176.5 107.0 L 176.5 107.5 L 176.5 107.5 L 177.5 108.5 L 179.0 109.5 L 179.0 110.0 " stroke="black" fill="none" stroke-width="6.0" stroke-linecap="round" stroke-linejoin="round" />
</svg>