<svg xmlns="http://www.w3.org/2000/svg" width="300" height="300" viewBox="0 0 300 300">
<path d="M 127.0 118.0 L 126.5 118.0 L 126.0 118.0 L 125.5 118.5 L 125.5 118.5 L 125.5 118.5 L 127.0 118.5 L 129.0 118.5 L 132.5 118.5 L 139.0 117.5 L 148.0 116.5 L 156.5 116.0 L 163.0 116.0 L 166.0 116.0 L 167.5 116.0 L 168.0 116.0 L 168.0 116.0 L 168.0 116.0 L 168.0 116.0 L 168.5 116.0 L 169.5 116.0 L 170.0 116.0 L 171.0 116.0 L 171.5 116.0 L 172.0 116.0 L 172.5 116.0 L 173.0 116.0 L 174.0 116.0 L 174.0 116.0 L 174.5 116.0 L 174.5 116.0 L 174.5 116.0 L 174.5 116.0 L 174.5 116.0 L 174.5 116.0 L 174.5 116.0 L 174.5 116.0 " stroke="black" fill="none" stroke-width="7.0" stroke-linecap="round" stroke-linejoin="round" />
<path d="M 139.5 106.5 L 139.5 106.5 L 140.0 106.0 L 140.0 105.5 L 140.0 105.5 L 140.5 106.0 L 140.5 108.0 L 140.5 112.5 L 138.0 122.0 L 134.0 135.0 L 129.5 146.0 L 125.5 152.5 L 123.0 155.5 L 122.0 156.0 L 121.0 156.0 L 120.5 155.0 L 120.5 154.5 " stroke="black" fill="none" stroke-width="7.0" stroke-linecap="round" stroke-linejoin="round" />
<path d="M 149.0 139.0 L 148.5 139.0 L 147.5 139.5 L 147.0 139.5 L 146.5 139.5 L 147.0 139.5 L 150.0 139.0 L 154.0 139.0 L 157.5 139.0 L 160.5 138.5 L 162.0 137.0 " stroke="black" fill="none" stroke-width="7.0" stroke-linecap="round" stroke-linejoin="round" />
<path d="M 154.5 125.5 L 155.5 125.5 L 156.0 125.0 L 156.0 125.5 L 156.5 129.0 L 156.5 136.5 L 156.5 146.5 L 156.0 153.5 L 155.5 156.5 L 155.0 155.0 " stroke="black" fill="none" stroke-width="7.0" stroke-linecap="round" stroke-linejoin="round" />
<path d="M 133.5 142.0 L 134.0 141.0 L 134.5 140.5 L 135.0 140.5 L 135.0 141.5 L 135.5 145.5 L 135.5 152.0 L 135.5 159.5 L 135.5 164.5 L 135.0 166.5 " stroke="black" fill="none" stroke-width="7.0" stroke-linecap="round" stroke-linejoin="round" />
<path d="M 148.0 161.0 L 147.5 161.0 L 146.5 160.0 L 146.5 159.5 L 146.5 159.5 L 149.0 159.0 L 152.0 159.0 L 157.0 159.5 L 163.0 160.5 L 169.0 160.5 L 172.5 160.5 L 173.0 160.5 L 173.0 161.5 " stroke="black" fill="none" stroke-width="7.0" stroke-linecap="round" stroke-linejoin="round" />
</svg>