<svg xmlns="http://www.w3.org/2000/svg" width="300" height="300" viewBox="0 0 300 300">
<path d="M 124.5 118.5 L 125.0 118.0 L 125.5 117.0 L 126.0 116.0 L 126.5 115.5 L 127.0 115.0 L 127.0 115.5 L 127.0 118.0 L 125.5 121.5 L 123.5 124.5 L 122.5 127.5 L 122.0 128.0 " stroke="black" fill="none" stroke-width="6.0" stroke-linecap="round" stroke-linejoin="round" />
<path d="M 113.0 135.5 L 113.5 135.5 L 113.5 135.0 L 114.0 134.5 L 114.0 134.5 L 114.5 137.0 L 115.0 143.5 L 115.0 156.5 L 113.5 170.5 L 113.0 178.5 L 113.5 180.0 L 114.0 178.0 L 114.5 175.0 " stroke="black" fill="none" stroke-width="6.0" stroke-linecap="round" stroke-linejoin="round" />
<path d="M 117.0 134.5 L 116.5 136.0 L 116.0 136.5 L 116.0 137.0 L 118.0 137.0 L 121.5 137.0 L 125.0 136.5 L 128.0 136.0 L 130.0 135.5 L 131.5 135.0 L 132.5 137.0 L 132.5 139.5 L 132.5 144.0 L 132.5 150.5 L 132.5 158.0 L 132.5 166.5 L 133.0 171.5 L 133.5 173.5 L 133.5 174.0 L 133.5 172.5 " stroke="black" fill="none" stroke-width="6.0" stroke-linecap="round" stroke-linejoin="round" />
<path d="M 119.5 156.0 L 117.0 157.0 L 116.0 157.0 L 116.0 156.0 L 119.0 155.0 L 123.0 154.5 L 126.5 154.5 L 129.5 154.5 L 130.0 155.0 " stroke="black" fill="none" stroke-width="6.0" stroke-linecap="round" stroke-linejoin="round" />
<path d="M 114.5 175.5 L 114.5 176.0 L 115.0 177.0 L 116.5 176.5 L 120.5 175.5 L 125.5 174.5 L 129.0 174.5 L 130.5 174.0 " stroke="black" fill="none" stroke-width="6.0" stroke-linecap="round" stroke-linejoin="round" />
<path d="M 149.0 113.5 L 149.0 113.5 L 149.5 113.5 L 149.5 113.5 L 149.5 113.5 L 149.5 115.0 L 148.5 119.0 L 146.5 124.5 L 144.0 129.0 L 142.5 131.5 L 142.0 132.0 L 142.0 130.5 " stroke="black" fill="none" stroke-width="6.0" stroke-linecap="round" stroke-linejoin="round" />
<path d="M 147.0 123.5 L 146.5 124.5 L 146.0 125.0 L 147.0 125.5 L 151.0 125.0 L 157.0 124.0 L 163.0 124.0 L 166.5 124.0 L 168.5 124.5 " stroke="black" fill="none" stroke-width="6.0" stroke-linecap="round" stroke-linejoin="round" />
<path d="M 158.5 113.0 L 159.0 112.0 L 159.0 111.5 L 159.0 111.0 L 159.0 111.0 L 159.0 114.5 L 158.5 122.0 L 157.5 131.5 L 157.5 138.5 L 157.5 141.0 L 157.5 141.5 " stroke="black" fill="none" stroke-width="6.0" stroke-linecap="round" stroke-linejoin="round" />
<path d="M 142.0 145.0 L 142.0 145.0 L 141.5 145.0 L 141.5 145.0 L 143.0 144.5 L 147.5 144.0 L 154.5 143.5 L 162.5 143.5 L 168.5 143.0 L 171.0 143.5 " stroke="black" fill="none" stroke-width="6.0" stroke-linecap="round" stroke-linejoin="round" />
<path d="M 145.0 159.5 L 145.0 158.5 L 145.0 157.5 L 145.0 157.0 L 145.0 158.0 L 145.0 163.0 L 145.0 169.5 L 145.0 175.0 L 146.0 178.0 L 146.0 178.0 " stroke="black" fill="none" stroke-width="6.0" stroke-linecap="round" stroke-linejoin="round" />
<path d="M 147.5 159.5 L 146.0 160.5 L 145.5 160.5 L 146.0 160.0 L 149.0 158.0 L 153.0 156.5 L 157.0 156.0 L 162.0 156.0 L 166.5 156.0 L 170.0 156.0 L 171.5 156.5 L 171.5 157.5 L 171.5 158.0 L 171.5 159.0 L 171.0 160.5 L 170.0 164.0 L 170.0 168.5 L 169.5 174.0 L 169.5 180.0 L 169.5 183.5 L 169.5 184.5 L 169.5 184.5 L 169.5 183.5 " stroke="black" fill="none" stroke-width="6.0" stroke-linecap="round" stroke-linejoin="round" />
<path d="M 150.5 182.5 L 150.0 182.5 L 149.5 182.5 L 149.5 182.5 L 151.5 182.0 L 156.5 181.5 L 163.5 181.5 L 169.0 181.0 " stroke="black" fill="none" stroke-width="6.0" stroke-linecap="round" stroke-linejoin="round" />
</svg>