<svg xmlns="http://www.w3.org/2000/svg" width="300" height="300" viewBox="0 0 300 300">
<path d="M 128.0 117.0 L 128.0 117.0 L 128.5 115.5 L 129.0 114.0 L 129.5 113.5 L 129.5 113.0 L 130.0 113.5 L 129.0 116.5 L 127.5 121.5 L 126.0 125.0 L 125.5 127.5 L 125.5 127.5 " stroke="black" fill="none" stroke-width="6.0" stroke-linecap="round" stroke-linejoin="round" />
<path d="M 116.0 129.5 L 117.0 129.5 L 117.5 129.5 L 118.0 130.5 L 118.0 134.0 L 118.0 142.5 L 118.0 152.5 L 118.0 160.5 L 119.0 163.5 L 120.0 163.0 L 120.5 160.5 " stroke="black" fill="none" stroke-width="6.0" stroke-linecap="round" stroke-linejoin="round" />
<path d="M 123.0 132.5 L 121.5 133.0 L 120.5 133.0 L 120.5 133.0 L 121.5 133.0 L 125.0 133.0 L 128.5 131.5 L 132.0 130.5 L 135.0 130.0 L 137.5 130.0 L 138.5 130.0 L 139.0 131.0 L 139.0 133.0 L 139.0 137.0 L 138.5 144.0 L 137.5 152.0 L 137.5 159.5 L 137.5 163.0 L 137.5 164.0 L 137.5 164.0 " stroke="black" fill="none" stroke-width="6.0" stroke-linecap="round" stroke-linejoin="round" />
<path d="M 125.0 147.0 L 125.0 147.0 L 123.5 147.5 L 123.0 147.5 L 124.0 147.5 L 127.0 147.5 L 130.5 146.5 L 133.5 146.0 L 135.5 145.5 L 136.0 145.5 " stroke="black" fill="none" stroke-width="6.0" stroke-linecap="round" stroke-linejoin="round" />
<path d="M 124.5 161.5 L 124.0 162.0 L 123.0 163.0 L 122.5 163.5 L 123.0 164.0 L 124.5 163.5 L 127.5 162.5 L 130.5 161.0 L 132.5 159.5 " stroke="black" fill="none" stroke-width="6.0" stroke-linecap="round" stroke-linejoin="round" />
<path d="M 157.5 105.5 L 157.5 106.0 L 157.5 106.5 L 157.0 107.0 L 156.0 108.0 L 155.5 110.0 L 155.0 112.0 L 154.5 113.0 " stroke="black" fill="none" stroke-width="6.0" stroke-linecap="round" stroke-linejoin="round" />
<path d="M 146.5 123.0 L 146.5 122.5 L 146.5 121.0 L 147.0 120.5 L 147.5 120.5 L 147.5 121.5 L 148.0 125.5 L 148.5 132.0 L 148.5 140.0 L 149.0 144.5 L 149.5 145.5 L 150.0 145.0 " stroke="black" fill="none" stroke-width="6.0" stroke-linecap="round" stroke-linejoin="round" />
<path d="M 151.5 121.5 L 151.5 120.5 L 151.5 120.0 L 151.5 120.0 L 153.5 119.0 L 157.0 118.0 L 162.5 117.5 L 168.5 117.0 L 173.0 117.5 L 175.5 119.0 L 176.5 119.5 L 176.5 120.0 L 176.5 120.0 L 176.0 121.0 L 175.0 123.0 L 174.5 127.0 L 173.5 132.0 L 172.5 137.5 L 172.5 141.0 L 172.5 143.0 L 172.5 143.0 " stroke="black" fill="none" stroke-width="6.0" stroke-linecap="round" stroke-linejoin="round" />
<path d="M 152.5 135.0 L 152.5 135.0 L 152.5 135.0 L 152.5 135.0 L 153.5 135.0 L 157.5 134.5 L 162.5 133.5 L 167.5 133.0 L 170.0 132.5 " stroke="black" fill="none" stroke-width="6.0" stroke-linecap="round" stroke-linejoin="round" />
<path d="M 153.0 149.0 L 153.0 149.0 L 153.0 149.0 L 153.0 149.5 L 156.0 149.5 L 161.0 148.5 L 166.5 147.0 L 168.5 146.5 " stroke="black" fill="none" stroke-width="6.0" stroke-linecap="round" stroke-linejoin="round" />
<path d="M 163.0 124.5 L 162.5 123.5 L 162.0 123.0 L 161.5 122.5 L 161.5 122.5 L 161.5 124.0 L 161.5 129.5 L 161.5 137.5 L 161.5 143.5 L 162.0 146.5 " stroke="black" fill="none" stroke-width="6.0" stroke-linecap="round" stroke-linejoin="round" />
<path d="M 157.0 151.5 L 158.0 151.5 L 158.5 151.5 L 159.0 151.5 L 159.0 151.5 L 159.5 152.0 L 159.5 153.0 L 159.0 156.5 L 156.0 163.5 L 152.0 171.0 L 147.5 177.5 L 145.0 181.5 L 144.0 183.5 L 143.5 184.5 L 143.5 184.5 L 143.5 184.5 L 143.5 184.5 " stroke="black" fill="none" stroke-width="6.0" stroke-linecap="round" stroke-linejoin="round" />
<path d="M 164.0 155.0 L 164.5 154.5 L 165.0 154.0 L 165.0 153.5 L 165.5 153.5 L 165.5 153.5 L 165.5 156.0 L 165.0 160.5 L 163.5 167.5 L 161.0 176.0 L 160.0 182.5 L 159.5 186.5 L 161.5 187.5 L 165.0 188.0 L 169.5 188.0 L 175.5 187.5 L 181.5 187.0 L 187.0 185.5 L 190.5 184.5 L 191.5 183.5 L 191.5 183.0 L 191.5 182.5 L 191.5 181.5 L 191.0 180.5 L 190.5 179.5 L 189.5 178.5 L 188.5 177.5 L 188.0 176.5 L 188.0 176.0 L 188.0 176.0 " stroke="black" fill="none" stroke-width="6.0" stroke-linecap="round" stroke-linejoin="round" />
<path d="M 178.0 155.0 L 179.0 155.0 L 179.0 154.5 L 179.0 154.5 L 179.0 154.5 L 178.5 155.5 L 177.0 158.5 L 174.5 163.0 L 172.5 167.5 L 171.5 170.0 L 171.5 171.0 L 172.0 171.0 L 174.0 170.0 L 176.0 169.0 L 178.5 168.0 L 181.0 167.5 L 183.5 167.0 L 185.0 166.5 L 185.0 166.5 " stroke="black" fill="none" stroke-width="6.0" stroke-linecap="round" stroke-linejoin="round" />
<path d="M 186.0 161.5 L 185.5 161.5 L 185.0 161.0 L 185.0 161.0 L 186.5 162.5 L 188.0 164.5 L 190.0 166.5 L 191.0 168.0 " stroke="black" fill="none" stroke-width="6.0" stroke-linecap="round" stroke-linejoin="round" />
</svg>