<svg xmlns="http://www.w3.org/2000/svg" width="300" height="300" viewBox="0 0 300 300">
<path d="M 128.0 115.5 L 128.0 115.5 L 128.5 115.5 L 129.0 115.5 L 129.5 115.0 L 130.0 115.0 L 130.0 115.0 L 130.0 116.0 L 129.5 120.5 L 127.0 129.5 L 124.5 140.5 L 122.5 149.5 L 122.0 154.5 L 122.0 157.5 L 122.0 160.0 L 123.0 161.5 L 125.0 163.5 L 127.0 166.0 L 129.5 169.0 L 132.5 173.0 L 135.0 176.5 L 136.5 178.5 L 137.5 180.0 L 138.5 179.5 L 138.5 176.5 " stroke="black" fill="none" stroke-width="6.0" stroke-linecap="round" stroke-linejoin="round" />
<path d="M 142.5 141.5 L 142.0 139.5 L 142.0 139.0 L 142.0 139.0 L 142.0 140.0 L 141.5 144.0 L 139.0 151.5 L 135.0 163.5 L 130.5 175.0 L 128.5 180.0 L 128.0 180.0 L 127.5 176.5 " stroke="black" fill="none" stroke-width="6.0" stroke-linecap="round" stroke-linejoin="round" />
<path d="M 115.0 148.5 L 114.0 149.0 L 113.5 149.5 L 113.5 150.0 L 116.0 150.0 L 121.5 150.0 L 129.5 148.5 L 138.0 145.5 L 145.5 142.0 L 151.0 139.5 L 152.0 139.0 " stroke="black" fill="none" stroke-width="6.0" stroke-linecap="round" stroke-linejoin="round" />
<path d="M 158.0 128.0 L 158.0 127.5 L 157.5 127.0 L 157.5 126.5 L 157.5 126.5 L 157.5 137.5 L 158.0 145.0 L 159.0 149.0 L 159.5 149.0 " stroke="black" fill="none" stroke-width="6.0" stroke-linecap="round" stroke-linejoin="round" />
<path d="M 157.0 127.0 L 156.5 128.0 L 155.5 128.5 L 155.0 128.5 L 155.0 128.5 L 156.0 128.0 L 159.5 127.0 L 163.0 126.0 L 167.0 126.0 L 170.5 126.0 L 173.0 126.0 L 174.5 127.5 L 175.0 129.5 L 175.0 133.5 L 174.0 138.5 L 173.0 143.5 L 172.5 147.5 L 172.0 150.0 L 172.0 150.0 " stroke="black" fill="none" stroke-width="6.0" stroke-linecap="round" stroke-linejoin="round" />
<path d="M 157.0 152.5 L 157.0 153.5 L 157.0 154.0 L 157.0 154.0 L 159.5 153.0 L 163.5 151.5 L 168.0 151.0 L 171.5 151.0 " stroke="black" fill="none" stroke-width="6.0" stroke-linecap="round" stroke-linejoin="round" />
</svg>