<svg xmlns="http://www.w3.org/2000/svg" width="300" height="300" viewBox="0 0 300 300">
<path d="M 130.5 123.5 L 131.0 123.5 L 131.5 123.0 L 132.0 122.5 L 132.5 122.0 L 133.0 121.5 L 133.0 121.0 L 133.5 121.0 L 133.5 121.5 L 132.5 125.5 L 130.5 133.5 L 128.0 143.5 L 125.5 151.5 L 124.5 156.5 L 124.0 158.0 L 124.5 159.0 L 126.0 160.0 L 128.5 161.5 L 132.0 164.5 L 135.5 167.0 L 137.5 169.0 L 139.5 170.0 L 140.5 170.5 L 141.0 170.0 " stroke="black" fill="none" stroke-width="6.0" stroke-linecap="round" stroke-linejoin="round" />
<path d="M 142.5 138.5 L 141.5 138.5 L 141.0 138.0 L 140.5 138.0 L 140.5 138.0 L 140.0 141.0 L 139.0 148.0 L 135.5 159.0 L 131.5 169.5 L 128.5 175.5 L 128.0 176.5 L 128.0 176.5 L 128.0 175.0 " stroke="black" fill="none" stroke-width="6.0" stroke-linecap="round" stroke-linejoin="round" />
<path d="M 120.5 146.5 L 119.5 146.5 L 118.0 146.5 L 117.5 146.5 L 118.5 146.5 L 122.5 145.5 L 128.5 144.5 L 135.0 143.5 L 142.5 143.0 L 149.5 142.5 " stroke="black" fill="none" stroke-width="6.0" stroke-linecap="round" stroke-linejoin="round" />
<path d="M 156.5 129.0 L 156.5 129.0 L 156.5 129.0 L 156.5 129.0 L 156.5 129.0 L 156.5 129.5 L 156.5 133.0 L 157.5 142.0 L 158.5 151.5 L 159.5 157.5 L 160.5 158.5 L 160.5 155.5 " stroke="black" fill="none" stroke-width="6.0" stroke-linecap="round" stroke-linejoin="round" />
<path d="M 157.0 131.0 L 156.0 132.0 L 155.5 132.5 L 155.5 132.5 L 155.5 132.5 L 157.5 132.0 L 161.0 131.0 L 166.0 129.5 L 171.0 128.5 L 175.5 128.0 L 177.0 128.0 L 177.5 129.5 L 177.5 132.0 L 177.5 136.5 L 177.0 142.0 L 176.5 147.0 L 175.5 151.0 L 175.0 152.5 L 175.0 153.5 L 175.0 153.0 " stroke="black" fill="none" stroke-width="6.0" stroke-linecap="round" stroke-linejoin="round" />
<path d="M 162.5 153.0 L 162.0 153.5 L 161.0 155.0 L 161.0 155.0 L 161.5 155.0 L 164.5 154.0 L 168.0 154.0 L 172.0 154.0 L 173.0 154.0 " stroke="black" fill="none" stroke-width="6.0" stroke-linecap="round" stroke-linejoin="round" />
</svg>