<svg xmlns="http://www.w3.org/2000/svg" width="300" height="300" viewBox="0 0 300 300">
<path d="M 148.0 126.0 L 148.5 125.5 L 149.0 124.5 L 149.0 124.0 L 149.0 124.0 L 149.5 126.0 L 150.0 132.0 L 150.0 142.5 L 149.5 155.5 L 148.0 166.0 L 148.0 172.0 L 148.0 174.0 L 148.5 173.5 L 149.0 171.0 L 149.5 166.5 " stroke="black" fill="none" stroke-width="6.0" stroke-linecap="round" stroke-linejoin="round" />
<path d="M 151.0 149.5 L 151.0 150.0 L 151.0 150.0 L 151.0 150.5 L 151.0 150.5 L 152.0 150.5 L 155.5 149.5 L 161.0 148.5 L 166.0 147.5 L 169.5 147.5 L 170.0 147.5 " stroke="black" fill="none" stroke-width="6.0" stroke-linecap="round" stroke-linejoin="round" />
<path d="M 127.5 177.0 L 127.5 177.0 L 127.5 177.5 L 127.5 177.5 L 127.5 178.0 L 128.5 178.0 L 131.5 177.5 L 137.5 177.5 L 146.5 176.5 L 157.5 176.0 L 166.0 175.5 L 171.0 175.5 L 171.5 175.5 L 172.0 175.5 L 171.5 175.5 L 171.5 175.5 L 171.0 175.5 " stroke="black" fill="none" stroke-width="6.0" stroke-linecap="round" stroke-linejoin="round" />
</svg>