<svg xmlns="http://www.w3.org/2000/svg" width="300" height="300" viewBox="0 0 300 300">
<path d="M 127.0 117.5 L 126.0 117.0 L 125.0 116.5 L 125.0 116.5 L 125.0 116.5 L 126.5 119.5 L 128.5 122.5 L 130.5 125.5 L 131.5 127.5 L 132.0 128.5 " stroke="black" fill="none" stroke-width="6.0" stroke-linecap="round" stroke-linejoin="round" />
<path d="M 122.0 134.5 L 121.0 135.0 L 119.0 136.0 L 118.5 136.5 L 119.5 136.5 L 123.0 136.5 L 127.0 136.5 L 130.5 136.0 L 134.0 135.5 L 136.5 135.5 L 138.0 135.0 L 138.5 135.0 L 138.5 135.5 L 137.5 137.5 L 135.0 140.5 L 131.0 145.5 L 126.0 152.0 L 120.5 158.0 L 117.5 161.5 L 117.0 162.0 L 117.0 162.0 L 118.5 161.0 L 118.5 161.0 " stroke="black" fill="none" stroke-width="6.0" stroke-linecap="round" stroke-linejoin="round" />
<path d="M 128.5 154.0 L 128.5 154.0 L 128.5 154.0 L 128.5 154.0 L 128.5 154.5 L 128.5 158.5 L 129.0 167.0 L 129.0 176.5 L 129.0 183.5 L 129.0 184.5 L 129.0 183.0 " stroke="black" fill="none" stroke-width="6.0" stroke-linecap="round" stroke-linejoin="round" />
<path d="M 136.0 152.0 L 136.0 152.0 L 136.0 152.0 L 136.0 152.0 L 137.0 153.0 L 138.5 154.5 L 140.5 156.5 L 142.5 157.0 " stroke="black" fill="none" stroke-width="6.0" stroke-linecap="round" stroke-linejoin="round" />
<path d="M 149.0 131.0 L 149.0 131.0 L 148.5 131.0 L 148.0 131.0 L 148.0 132.5 L 149.0 137.0 L 150.5 142.5 L 151.0 146.5 L 151.5 149.5 L 151.5 150.0 " stroke="black" fill="none" stroke-width="6.0" stroke-linecap="round" stroke-linejoin="round" />
<path d="M 151.0 128.0 L 150.5 128.0 L 149.5 128.0 L 148.5 128.0 L 148.5 128.0 L 148.5 128.0 L 150.5 128.0 L 153.0 128.0 L 157.5 127.5 L 163.5 127.0 L 171.5 125.5 L 177.5 124.5 L 180.5 124.5 L 181.0 125.5 L 180.5 126.0 L 180.0 126.0 L 179.5 126.5 L 179.5 127.0 L 179.0 128.5 L 178.5 131.5 L 177.5 135.0 L 177.0 140.5 L 176.5 145.5 L 176.5 149.5 L 176.5 151.0 L 177.0 150.5 L 177.0 148.5 L 176.5 147.0 " stroke="black" fill="none" stroke-width="6.0" stroke-linecap="round" stroke-linejoin="round" />
<path d="M 160.5 139.0 L 160.0 139.5 L 158.0 140.0 L 157.5 140.0 L 157.5 140.0 L 160.0 139.5 L 164.0 139.0 L 167.5 138.5 L 170.5 138.0 L 173.0 138.0 L 174.0 138.0 L 174.0 138.0 " stroke="black" fill="none" stroke-width="6.0" stroke-linecap="round" stroke-linejoin="round" />
<path d="M 153.5 153.5 L 153.5 153.5 L 154.0 153.5 L 155.0 153.5 L 158.0 153.5 L 163.0 153.0 L 168.0 152.0 L 172.0 151.0 L 173.5 149.5 " stroke="black" fill="none" stroke-width="6.0" stroke-linecap="round" stroke-linejoin="round" />
<path d="M 164.5 114.5 L 164.5 114.5 L 164.5 115.0 L 164.0 115.0 L 164.0 115.5 L 164.0 117.0 L 164.0 121.5 L 164.0 130.0 L 164.0 140.0 L 163.5 149.5 L 163.5 157.0 L 164.0 163.0 L 164.0 168.0 L 164.5 171.5 L 164.5 174.5 L 164.5 176.5 L 164.5 178.5 L 164.5 179.5 L 165.0 180.0 L 165.0 180.0 L 165.0 180.5 L 165.5 181.0 L 165.5 181.5 L 165.5 181.5 L 165.5 182.0 L 165.5 182.5 L 165.5 182.5 L 165.5 183.0 L 165.5 183.5 L 165.5 184.0 L 165.5 185.0 L 165.5 186.5 L 166.0 187.5 L 166.0 189.0 L 166.0 189.5 L 166.0 190.0 L 166.0 190.0 L 166.5 190.0 L 166.5 190.0 " stroke="black" fill="none" stroke-width="6.0" stroke-linecap="round" stroke-linejoin="round" />
</svg>