<svg xmlns="http://www.w3.org/2000/svg" width="300" height="300" viewBox="0 0 300 300">
<path d="M 130.5 131.0 L 130.5 131.0 L 130.5 130.0 L 130.0 129.5 L 133.0 129.0 L 140.5 128.0 L 153.0 126.5 L 165.0 125.5 L 172.5 124.5 L 177.0 124.0 L 177.5 124.0 L 177.0 124.0 L 176.5 124.0 L 176.5 124.0 L 176.0 124.0 " stroke="black" fill="none" stroke-width="6.0" stroke-linecap="round" stroke-linejoin="round" />
<path d="M 154.0 107.0 L 154.5 106.5 L 154.5 106.5 L 154.5 106.0 L 154.5 107.0 L 153.5 114.0 L 150.0 127.5 L 144.5 144.0 L 139.0 155.0 L 135.0 161.5 L 132.5 165.0 L 132.0 165.5 L 131.5 166.0 " stroke="black" fill="none" stroke-width="6.0" stroke-linecap="round" stroke-linejoin="round" />
<path d="M 149.5 144.0 L 149.0 142.0 L 148.5 141.5 L 148.5 142.0 L 149.5 145.0 L 150.5 151.5 L 150.0 161.0 L 148.5 173.0 L 147.0 181.5 L 147.0 185.5 L 148.0 184.0 L 148.5 179.5 " stroke="black" fill="none" stroke-width="6.0" stroke-linecap="round" stroke-linejoin="round" />
<path d="M 150.5 146.5 L 150.5 146.0 L 150.0 145.0 L 151.0 144.5 L 154.0 143.0 L 158.0 141.5 L 163.5 140.0 L 167.5 139.5 L 169.0 139.5 L 169.5 140.0 L 169.5 141.0 L 169.5 143.0 L 169.0 146.5 L 168.0 151.5 L 167.5 160.5 L 167.5 170.0 L 167.5 176.5 L 167.5 183.0 L 167.5 188.5 L 166.5 193.0 L 165.0 195.5 L 163.5 196.0 L 162.5 195.5 L 161.0 193.0 L 159.5 188.5 " stroke="black" fill="none" stroke-width="6.0" stroke-linecap="round" stroke-linejoin="round" />
<path d="M 155.0 159.5 L 153.0 159.0 L 152.5 158.0 L 154.0 157.5 L 158.0 156.5 L 162.5 155.5 L 166.5 155.0 L 169.0 155.0 L 169.5 155.5 " stroke="black" fill="none" stroke-width="6.0" stroke-linecap="round" stroke-linejoin="round" />
<path d="M 155.0 167.0 L 153.5 167.0 L 152.5 167.0 L 152.5 167.0 L 154.0 167.0 L 158.0 167.0 L 162.0 167.0 L 166.0 167.0 L 168.0 167.0 " stroke="black" fill="none" stroke-width="6.0" stroke-linecap="round" stroke-linejoin="round" />
</svg>