<svg xmlns="http://www.w3.org/2000/svg" width="300" height="300" viewBox="0 0 300 300">
<path d="M 130.0 121.5 L 130.0 121.5 L 129.5 121.5 L 129.5 121.5 L 130.0 121.5 L 133.5 121.5 L 140.5 121.5 L 150.5 121.5 L 160.0 121.5 L 166.5 120.5 L 169.5 120.0 L 170.0 119.0 L 170.5 118.5 L 170.5 118.5 L 170.5 118.5 L 170.5 118.5 L 170.5 118.5 " stroke="black" fill="none" stroke-width="6.0" stroke-linecap="round" stroke-linejoin="round" />
<path d="M 142.0 109.0 L 142.0 110.0 L 142.0 110.5 L 142.0 111.0 L 142.0 112.5 L 142.0 115.5 L 142.0 122.0 L 142.0 130.5 L 141.0 139.5 L 138.0 148.5 L 134.5 154.0 L 131.0 157.5 L 129.0 159.0 L 127.5 159.5 L 127.5 159.5 L 127.5 159.5 " stroke="black" fill="none" stroke-width="6.0" stroke-linecap="round" stroke-linejoin="round" />
<path d="M 144.5 132.0 L 144.5 132.0 L 144.0 132.0 L 143.5 132.0 L 143.5 133.5 L 145.0 139.0 L 146.0 148.0 L 146.5 160.0 L 145.5 171.0 L 145.0 176.5 L 145.0 178.0 L 145.5 176.5 L 146.0 174.5 " stroke="black" fill="none" stroke-width="6.0" stroke-linecap="round" stroke-linejoin="round" />
<path d="M 146.5 134.0 L 144.5 134.5 L 144.0 135.0 L 144.0 135.0 L 146.0 135.0 L 149.5 134.0 L 153.5 133.0 L 157.5 132.0 L 161.5 131.5 L 164.5 131.5 L 166.0 132.5 L 166.5 133.5 L 167.0 135.0 L 167.0 137.0 L 167.0 140.0 L 167.5 143.5 L 167.5 148.0 L 167.5 153.5 L 168.0 160.0 L 168.5 167.0 L 168.5 173.5 L 168.0 178.0 L 167.0 180.0 L 165.5 181.0 L 163.5 180.5 L 161.5 178.0 L 160.0 175.0 " stroke="black" fill="none" stroke-width="6.0" stroke-linecap="round" stroke-linejoin="round" />
<path d="M 149.0 148.0 L 148.0 148.0 L 147.5 148.0 L 148.5 148.0 L 151.0 148.0 L 155.5 147.0 L 160.5 146.0 L 164.5 145.5 L 166.0 146.0 " stroke="black" fill="none" stroke-width="6.0" stroke-linecap="round" stroke-linejoin="round" />
<path d="M 152.0 163.0 L 152.0 163.0 L 152.0 163.0 L 152.0 163.0 L 153.5 162.0 L 158.0 161.0 L 163.0 160.5 L 167.0 160.0 L 170.0 161.0 " stroke="black" fill="none" stroke-width="6.0" stroke-linecap="round" stroke-linejoin="round" />
</svg>