<svg xmlns="http://www.w3.org/2000/svg" width="300" height="300" viewBox="0 0 300 300">
<path d="M 123.5 111.5 L 123.5 111.5 L 123.0 111.5 L 123.0 112.0 L 125.0 114.5 L 127.5 118.0 L 130.0 120.5 L 131.5 123.0 " stroke="black" fill="none" stroke-width="6.0" stroke-linecap="round" stroke-linejoin="round" />
<path d="M 120.0 130.5 L 119.0 131.0 L 118.0 131.0 L 118.0 131.0 L 121.0 131.0 L 126.5 131.0 L 133.0 131.0 L 140.0 130.5 L 144.5 130.0 L 146.0 130.0 L 146.0 129.5 " stroke="black" fill="none" stroke-width="6.0" stroke-linecap="round" stroke-linejoin="round" />
<path d="M 128.0 134.5 L 128.0 134.5 L 128.0 134.0 L 128.5 134.0 L 128.5 134.0 L 129.0 135.5 L 128.5 142.0 L 126.0 153.5 L 123.5 165.0 L 123.0 170.0 L 123.0 169.5 L 123.0 168.0 " stroke="black" fill="none" stroke-width="6.0" stroke-linecap="round" stroke-linejoin="round" />
<path d="M 131.0 146.5 L 131.0 146.5 L 131.0 146.0 L 131.0 146.0 L 131.0 145.5 L 133.0 144.5 L 135.5 144.0 L 138.0 143.0 L 140.0 143.0 L 141.5 143.5 L 142.0 147.0 L 142.5 153.5 L 142.5 163.0 L 142.0 172.0 L 141.5 178.0 L 138.5 181.0 L 137.0 180.5 L 135.5 177.5 " stroke="black" fill="none" stroke-width="6.0" stroke-linecap="round" stroke-linejoin="round" />
<path d="M 162.0 114.0 L 162.0 113.5 L 162.5 113.0 L 163.0 112.0 L 163.5 111.5 L 163.5 112.0 L 162.5 115.0 L 159.5 122.0 L 155.0 130.5 L 151.0 137.0 L 150.0 138.5 L 150.0 138.5 " stroke="black" fill="none" stroke-width="6.0" stroke-linecap="round" stroke-linejoin="round" />
<path d="M 164.5 114.5 L 164.0 115.5 L 163.5 115.5 L 164.5 116.5 L 167.0 119.0 L 170.5 123.0 L 174.0 127.0 L 176.5 129.0 L 177.5 129.0 L 178.0 128.5 L 178.0 128.0 " stroke="black" fill="none" stroke-width="6.0" stroke-linecap="round" stroke-linejoin="round" />
<path d="M 161.5 138.0 L 161.5 138.5 L 161.0 138.5 L 161.0 139.0 L 163.0 141.5 L 166.5 145.0 L 169.5 149.0 L 171.0 151.5 L 171.5 152.0 " stroke="black" fill="none" stroke-width="6.0" stroke-linecap="round" stroke-linejoin="round" />
<path d="M 157.0 159.0 L 157.0 159.0 L 157.5 159.0 L 158.5 159.5 L 161.5 161.5 L 167.0 166.0 L 172.0 171.5 L 174.5 174.0 L 175.0 174.0 " stroke="black" fill="none" stroke-width="6.0" stroke-linecap="round" stroke-linejoin="round" />
</svg>