<svg xmlns="http://www.w3.org/2000/svg" width="300" height="300" viewBox="0 0 300 300">
<path d="M 132.0 113.0 L 132.0 112.5 L 132.0 112.0 L 132.0 112.0 L 132.0 112.0 L 133.5 113.5 L 135.5 116.5 L 137.5 119.5 L 139.5 121.5 L 140.0 122.0 " stroke="black" fill="none" stroke-width="6.0" stroke-linecap="round" stroke-linejoin="round" />
<path d="M 123.0 130.0 L 122.5 130.0 L 122.5 130.0 L 125.5 129.5 L 132.0 129.5 L 140.5 129.0 L 146.0 128.5 L 148.0 128.5 L 148.0 128.5 " stroke="black" fill="none" stroke-width="6.0" stroke-linecap="round" stroke-linejoin="round" />
<path d="M 133.5 133.0 L 134.0 133.0 L 134.0 133.0 L 134.5 132.5 L 135.0 132.5 L 135.0 133.5 L 134.5 138.5 L 130.5 148.5 L 125.5 160.5 L 123.0 166.5 L 123.0 167.0 L 124.0 165.5 " stroke="black" fill="none" stroke-width="6.0" stroke-linecap="round" stroke-linejoin="round" />
<path d="M 133.5 144.0 L 133.5 143.5 L 133.0 143.5 L 133.0 143.0 L 135.0 143.0 L 138.0 142.5 L 141.5 142.5 L 144.0 142.5 L 145.5 142.5 L 146.0 143.0 L 146.0 145.0 L 145.5 148.0 L 144.5 154.0 L 143.5 162.0 L 142.5 170.0 L 141.0 176.5 L 139.5 180.5 L 137.5 182.5 L 135.5 182.0 L 134.0 179.5 L 133.5 178.0 " stroke="black" fill="none" stroke-width="6.0" stroke-linecap="round" stroke-linejoin="round" />
<path d="M 162.5 117.5 L 162.5 116.0 L 162.5 115.0 L 162.5 115.0 L 162.5 115.0 L 162.5 117.0 L 160.5 122.0 L 157.5 129.0 L 154.5 134.5 L 153.0 137.5 L 152.5 137.5 " stroke="black" fill="none" stroke-width="6.0" stroke-linecap="round" stroke-linejoin="round" />
<path d="M 165.0 116.5 L 165.0 116.5 L 164.0 116.0 L 164.0 116.0 L 165.5 117.5 L 168.5 121.0 L 172.5 126.0 L 176.5 131.0 L 180.0 134.5 L 181.0 136.0 L 180.5 136.0 " stroke="black" fill="none" stroke-width="6.0" stroke-linecap="round" stroke-linejoin="round" />
<path d="M 163.0 142.5 L 163.0 141.5 L 162.5 141.5 L 163.0 142.0 L 166.0 145.0 L 169.5 149.0 L 172.5 152.5 L 174.5 154.0 L 175.0 154.5 " stroke="black" fill="none" stroke-width="6.0" stroke-linecap="round" stroke-linejoin="round" />
<path d="M 159.0 162.0 L 160.0 161.5 L 160.5 161.0 L 162.5 163.0 L 167.0 168.0 L 173.0 175.5 L 177.5 179.5 L 178.5 179.5 " stroke="black" fill="none" stroke-width="6.0" stroke-linecap="round" stroke-linejoin="round" />
</svg>