<svg xmlns="http://www.w3.org/2000/svg" width="300" height="300" viewBox="0 0 300 300">
<path d="M 118.0 109.5 L 117.5 110.0 L 117.0 110.5 L 117.0 110.5 L 117.0 110.5 L 117.0 111.0 L 119.0 112.0 L 120.5 113.5 L 122.5 114.5 L 123.5 115.0 L 124.0 115.5 " stroke="black" fill="none" stroke-width="6.0" stroke-linecap="round" stroke-linejoin="round" />
<path d="M 116.0 128.0 L 115.0 129.0 L 114.5 129.5 L 114.5 129.5 L 116.5 129.5 L 119.5 129.5 L 123.0 129.0 L 126.0 128.5 L 128.0 128.5 L 128.5 128.5 " stroke="black" fill="none" stroke-width="6.0" stroke-linecap="round" stroke-linejoin="round" />
<path d="M 119.5 143.0 L 119.0 143.0 L 117.0 143.0 L 117.0 143.0 L 118.0 143.0 L 120.5 143.0 L 123.5 143.0 L 126.0 143.0 L 128.0 143.0 L 130.0 143.5 " stroke="black" fill="none" stroke-width="6.0" stroke-linecap="round" stroke-linejoin="round" />
<path d="M 119.0 160.0 L 119.0 160.0 L 118.0 160.0 L 117.5 160.0 L 117.5 160.0 L 119.5 159.5 L 122.5 159.0 L 125.5 158.0 L 128.0 158.0 " stroke="black" fill="none" stroke-width="6.0" stroke-linecap="round" stroke-linejoin="round" />
<path d="M 119.0 172.0 L 118.5 172.0 L 118.0 172.0 L 117.5 172.5 L 117.5 172.5 L 117.5 173.0 L 118.5 175.5 L 119.5 179.0 L 120.0 182.0 L 120.5 183.5 " stroke="black" fill="none" stroke-width="6.0" stroke-linecap="round" stroke-linejoin="round" />
<path d="M 119.5 175.0 L 119.0 175.0 L 118.0 175.5 L 118.0 175.0 L 120.5 173.5 L 124.0 172.0 L 127.5 170.5 L 130.0 169.5 L 132.5 169.5 L 134.0 170.5 L 135.0 172.0 L 135.5 174.5 L 135.5 177.5 L 135.0 180.5 L 134.0 183.0 L 133.5 184.0 " stroke="black" fill="none" stroke-width="6.0" stroke-linecap="round" stroke-linejoin="round" />
<path d="M 125.5 187.0 L 124.5 187.0 L 123.5 187.0 L 123.5 187.0 L 125.0 186.5 L 127.0 185.0 L 129.0 183.5 " stroke="black" fill="none" stroke-width="6.0" stroke-linecap="round" stroke-linejoin="round" />
<path d="M 153.0 115.0 L 153.5 115.0 L 154.0 115.0 L 155.0 115.0 L 155.5 115.0 L 156.0 115.0 L 156.0 114.5 L 156.0 114.5 L 154.0 116.0 L 151.5 119.5 L 148.0 123.5 L 144.0 127.0 L 141.0 129.5 L 139.0 130.5 L 138.5 130.5 L 139.0 130.5 " stroke="black" fill="none" stroke-width="6.0" stroke-linecap="round" stroke-linejoin="round" />
<path d="M 146.5 127.0 L 146.0 127.0 L 145.5 127.5 L 145.5 127.5 L 145.5 128.0 L 146.0 128.5 L 146.5 130.5 L 148.0 137.0 L 148.5 148.0 L 149.0 160.5 L 149.0 169.5 L 149.0 174.0 L 148.5 176.5 L 148.5 177.5 " stroke="black" fill="none" stroke-width="6.0" stroke-linecap="round" stroke-linejoin="round" />
<path d="M 162.5 122.0 L 162.5 121.5 L 162.0 121.0 L 162.0 121.0 L 162.0 121.0 L 163.5 122.5 L 165.0 124.5 L 166.0 126.0 L 167.0 127.5 " stroke="black" fill="none" stroke-width="6.0" stroke-linecap="round" stroke-linejoin="round" />
<path d="M 158.0 134.0 L 158.0 134.5 L 157.5 135.0 L 157.5 135.5 L 158.0 135.5 L 160.5 135.5 L 164.0 134.5 L 167.0 134.0 L 170.0 133.5 L 170.5 133.5 " stroke="black" fill="none" stroke-width="6.0" stroke-linecap="round" stroke-linejoin="round" />
<path d="M 158.0 148.0 L 158.0 148.0 L 158.5 148.5 L 159.0 148.5 L 160.5 149.0 L 163.0 149.0 L 165.5 148.0 L 168.0 148.0 " stroke="black" fill="none" stroke-width="6.0" stroke-linecap="round" stroke-linejoin="round" />
<path d="M 158.5 162.5 L 158.5 162.5 L 159.0 162.5 L 159.5 162.5 L 161.5 162.5 L 163.5 162.5 L 166.5 162.0 L 169.0 161.5 " stroke="black" fill="none" stroke-width="6.0" stroke-linecap="round" stroke-linejoin="round" />
<path d="M 166.5 139.5 L 166.0 139.5 L 165.5 139.5 L 165.0 139.5 L 165.0 141.5 L 165.0 146.0 L 166.0 154.0 L 166.0 162.0 L 166.5 166.5 L 166.5 169.0 L 166.5 169.5 " stroke="black" fill="none" stroke-width="6.0" stroke-linecap="round" stroke-linejoin="round" />
<path d="M 161.0 174.0 L 161.0 174.0 L 161.0 175.0 L 161.0 175.5 L 161.0 175.5 L 163.0 175.5 L 166.0 175.5 L 169.5 175.5 L 172.5 175.5 L 174.5 175.5 L 176.0 174.5 " stroke="black" fill="none" stroke-width="6.0" stroke-linecap="round" stroke-linejoin="round" />
</svg>