<svg xmlns="http://www.w3.org/2000/svg" width="300" height="300" viewBox="0 0 300 300">
<path d="M 116.5 113.5 L 116.5 114.0 L 116.5 114.5 L 116.5 114.5 L 116.5 115.0 L 117.5 115.0 L 120.0 114.5 L 124.0 114.0 L 128.5 113.5 L 133.0 113.5 L 136.0 113.5 L 137.5 113.5 L 137.5 114.0 L 137.0 114.0 L 137.0 114.0 " stroke="black" fill="none" stroke-width="6.0" stroke-linecap="round" stroke-linejoin="round" />
<path d="M 119.5 125.5 L 119.5 125.0 L 119.0 125.0 L 119.0 125.0 L 119.0 127.0 L 119.5 131.0 L 120.0 135.5 L 120.5 139.5 L 120.5 140.0 " stroke="black" fill="none" stroke-width="6.0" stroke-linecap="round" stroke-linejoin="round" />
<path d="M 120.0 129.0 L 119.5 128.5 L 119.0 128.5 L 118.5 128.0 L 120.0 127.5 L 123.0 126.5 L 126.5 125.5 L 129.5 125.0 L 132.5 125.0 L 135.5 125.0 L 137.5 125.5 L 138.5 126.5 L 139.0 128.0 L 139.0 130.5 L 139.0 133.0 L 138.5 136.0 L 138.0 139.0 L 137.0 140.5 L 136.5 141.0 " stroke="black" fill="none" stroke-width="6.0" stroke-linecap="round" stroke-linejoin="round" />
<path d="M 125.5 136.0 L 124.0 136.0 L 123.0 136.0 L 123.0 136.0 L 124.0 135.5 L 126.5 134.5 L 129.5 134.0 L 132.0 134.0 L 134.0 133.5 L 135.0 133.5 " stroke="black" fill="none" stroke-width="6.0" stroke-linecap="round" stroke-linejoin="round" />
<path d="M 120.5 146.0 L 120.5 146.0 L 120.0 146.0 L 120.0 145.5 L 123.0 145.0 L 128.5 144.0 L 134.0 143.0 L 137.0 142.5 L 137.5 142.5 " stroke="black" fill="none" stroke-width="6.0" stroke-linecap="round" stroke-linejoin="round" />
<path d="M 118.0 157.0 L 120.5 156.0 L 122.5 155.5 L 126.0 155.0 L 131.0 154.0 L 136.0 153.0 L 140.5 153.0 L 143.5 153.0 L 144.5 153.0 " stroke="black" fill="none" stroke-width="6.0" stroke-linecap="round" stroke-linejoin="round" />
<path d="M 125.5 106.0 L 125.0 106.0 L 124.5 106.0 L 124.5 106.0 L 124.5 106.5 L 125.0 107.5 L 126.0 111.0 L 127.0 116.5 L 128.5 123.0 L 129.5 129.5 L 130.0 134.5 L 130.5 138.5 L 131.0 142.0 L 131.0 145.5 L 131.5 149.0 L 132.5 152.0 L 133.0 155.0 L 133.0 157.0 L 133.5 159.0 L 134.0 161.0 L 134.5 162.5 L 135.0 164.0 L 135.0 165.0 L 135.5 166.0 L 135.5 167.5 L 135.5 168.5 L 136.0 169.5 L 136.0 170.0 L 136.0 171.0 L 136.5 171.5 L 136.5 172.5 L 136.5 173.5 L 137.0 174.0 L 137.0 175.0 L 137.0 175.5 L 137.0 176.0 L 137.5 176.5 L 137.5 177.0 L 137.5 177.0 L 138.0 177.5 L 138.0 177.5 L 138.0 177.5 L 138.0 178.0 L 138.0 178.5 L 138.0 178.5 L 138.0 179.5 L 138.0 180.0 L 138.0 180.0 L 138.0 180.5 L 138.5 180.5 L 138.5 181.0 L 138.5 181.0 L 138.5 181.0 L 138.5 181.0 L 138.5 181.0 L 139.0 181.0 L 139.0 181.0 L 139.0 181.0 L 139.0 181.5 L 139.5 181.5 L 139.5 181.5 L 139.5 182.0 L 139.5 182.0 L 139.5 182.0 L 139.5 182.5 L 140.0 182.5 L 140.0 182.5 L 140.0 183.0 L 140.0 183.5 L 140.0 183.5 L 140.0 184.0 L 140.5 184.0 L 140.5 184.5 L 140.5 184.5 L 140.5 185.0 L 140.5 185.0 L 140.5 185.0 L 140.5 185.5 L 140.5 185.5 L 140.5 185.5 L 140.5 185.5 L 140.5 185.5 " stroke="black" fill="none" stroke-width="6.0" stroke-linecap="round" stroke-linejoin="round" />
<path d="M 148.5 108.0 L 148.5 108.0 L 148.5 108.0 L 149.0 108.0 L 152.0 106.5 L 157.0 104.5 L 163.5 103.5 L 169.0 103.0 L 172.0 103.0 L 172.5 104.0 L 172.5 104.5 " stroke="black" fill="none" stroke-width="6.0" stroke-linecap="round" stroke-linejoin="round" />
<path d="M 150.5 119.5 L 150.5 119.0 L 150.5 118.0 L 150.5 118.0 L 151.0 118.0 L 151.5 120.0 L 153.0 123.5 L 154.0 127.0 L 155.0 130.5 L 155.0 131.5 " stroke="black" fill="none" stroke-width="6.0" stroke-linecap="round" stroke-linejoin="round" />
<path d="M 152.0 120.5 L 152.0 120.0 L 152.0 119.5 L 151.5 119.0 L 151.5 119.0 L 152.5 118.5 L 154.5 118.0 L 158.5 117.5 L 164.5 116.5 L 170.5 116.0 L 174.5 116.0 L 176.0 116.0 L 176.0 117.0 L 175.5 118.5 L 175.0 120.0 L 175.0 123.0 L 174.5 126.0 L 174.0 130.0 L 174.0 133.0 L 174.0 134.5 L 173.5 134.5 L 173.5 134.0 " stroke="black" fill="none" stroke-width="6.0" stroke-linecap="round" stroke-linejoin="round" />
<path d="M 156.0 128.0 L 156.5 128.0 L 156.5 128.0 L 157.0 128.0 L 158.0 128.0 L 160.5 127.5 L 164.0 126.5 L 167.5 125.5 L 171.0 125.5 " stroke="black" fill="none" stroke-width="6.0" stroke-linecap="round" stroke-linejoin="round" />
<path d="M 156.0 138.5 L 156.5 138.5 L 157.5 138.5 L 158.0 138.5 L 159.0 138.0 L 161.0 137.5 L 164.5 136.5 L 170.0 135.0 L 175.0 133.5 L 177.0 133.0 " stroke="black" fill="none" stroke-width="6.0" stroke-linecap="round" stroke-linejoin="round" />
<path d="M 159.0 98.0 L 159.5 97.0 L 160.0 96.5 L 160.0 96.5 L 160.0 96.5 L 160.0 98.0 L 160.0 101.0 L 160.5 105.5 L 161.5 111.0 L 162.5 118.5 L 163.5 126.5 L 164.5 132.5 L 165.5 136.5 L 166.5 139.0 L 167.0 141.5 L 167.5 143.5 L 168.0 144.5 L 168.0 144.5 L 168.0 145.0 L 168.0 145.0 " stroke="black" fill="none" stroke-width="6.0" stroke-linecap="round" stroke-linejoin="round" />
<path d="M 151.0 148.0 L 152.5 146.5 L 154.0 146.0 L 156.0 145.5 L 159.5 145.0 L 164.5 145.0 L 170.0 144.5 L 174.5 144.5 L 176.5 144.5 " stroke="black" fill="none" stroke-width="6.0" stroke-linecap="round" stroke-linejoin="round" />
<path d="M 179.0 139.0 L 179.5 139.0 L 180.0 139.0 L 180.5 138.5 L 180.5 138.5 L 181.0 139.0 L 182.0 142.0 L 183.5 146.0 L 185.0 149.5 L 186.0 152.0 L 186.5 152.5 L 186.5 152.5 " stroke="black" fill="none" stroke-width="6.0" stroke-linecap="round" stroke-linejoin="round" />
<path d="M 155.0 162.0 L 155.5 162.0 L 156.5 162.0 L 157.0 161.5 L 159.0 161.5 L 163.0 160.5 L 169.0 159.5 L 175.5 159.0 L 180.5 158.5 L 184.0 158.0 L 184.0 158.0 L 182.5 158.0 " stroke="black" fill="none" stroke-width="6.0" stroke-linecap="round" stroke-linejoin="round" />
<path d="M 172.0 154.0 L 172.0 154.5 L 172.0 155.0 L 172.0 155.0 L 172.5 156.0 L 173.0 159.0 L 174.0 165.0 L 175.5 172.5 L 177.0 179.0 L 177.5 183.0 L 177.5 185.5 L 177.0 187.0 L 175.5 187.5 L 174.0 187.5 L 172.0 187.5 L 170.0 186.5 L 168.5 185.5 " stroke="black" fill="none" stroke-width="6.0" stroke-linecap="round" stroke-linejoin="round" />
<path d="M 158.0 173.0 L 158.0 173.0 L 157.5 173.0 L 157.5 173.0 L 158.0 173.0 L 161.0 173.5 L 164.0 175.0 L 166.0 176.0 " stroke="black" fill="none" stroke-width="6.0" stroke-linecap="round" stroke-linejoin="round" />
</svg>