<svg xmlns="http://www.w3.org/2000/svg" width="300" height="300" viewBox="0 0 300 300">
<path d="M 128.5 117.0 L 128.5 117.0 L 128.5 117.5 L 128.5 117.5 L 129.0 117.5 L 131.5 117.5 L 138.0 117.5 L 147.5 116.5 L 155.5 115.5 L 160.0 115.5 L 161.0 115.0 L 160.5 115.0 L 160.0 115.0 L 159.0 115.0 L 159.0 115.0 " stroke="black" fill="none" stroke-width="6.0" stroke-linecap="round" stroke-linejoin="round" />
<path d="M 129.0 121.5 L 129.0 121.5 L 129.0 121.5 L 129.5 121.5 L 129.5 122.0 L 130.5 125.0 L 131.5 131.5 L 132.0 141.0 L 132.0 152.5 L 131.5 163.0 L 132.0 169.5 L 132.5 171.0 L 132.5 171.0 " stroke="black" fill="none" stroke-width="6.0" stroke-linecap="round" stroke-linejoin="round" />
<path d="M 149.5 116.5 L 149.0 117.0 L 149.0 117.5 L 149.0 117.5 L 149.0 119.5 L 149.5 123.5 L 150.5 128.5 L 151.0 132.0 L 151.0 133.0 L 151.0 132.5 " stroke="black" fill="none" stroke-width="6.0" stroke-linecap="round" stroke-linejoin="round" />
<path d="M 139.5 138.5 L 139.5 139.0 L 138.5 139.5 L 138.5 139.5 L 139.0 139.5 L 142.0 138.5 L 147.0 137.0 L 152.0 135.5 L 156.5 135.0 L 159.0 134.5 L 160.0 134.5 L 160.0 135.0 L 160.0 136.0 L 160.0 137.5 L 160.0 139.0 L 160.0 141.5 L 160.0 144.5 L 160.0 146.5 L 159.5 147.5 L 159.5 148.0 " stroke="black" fill="none" stroke-width="6.0" stroke-linecap="round" stroke-linejoin="round" />
<path d="M 138.5 154.0 L 138.5 154.0 L 137.5 154.0 L 137.0 154.0 L 137.0 154.0 L 139.0 154.0 L 144.0 154.0 L 150.0 153.0 L 156.0 152.0 L 158.0 151.5 " stroke="black" fill="none" stroke-width="6.0" stroke-linecap="round" stroke-linejoin="round" />
<path d="M 149.0 157.5 L 149.0 157.5 L 149.0 158.0 L 149.0 158.0 L 149.0 159.0 L 149.0 160.5 L 149.5 163.0 L 150.0 166.0 L 150.0 168.5 " stroke="black" fill="none" stroke-width="6.0" stroke-linecap="round" stroke-linejoin="round" />
<path d="M 131.5 178.5 L 132.5 179.0 L 133.0 179.5 L 135.5 179.0 L 141.0 177.0 L 149.0 175.0 L 157.5 174.0 L 164.0 174.0 L 168.5 174.5 L 170.5 175.5 L 171.0 175.5 L 171.0 175.5 L 170.5 175.5 L 170.5 175.5 " stroke="black" fill="none" stroke-width="6.0" stroke-linecap="round" stroke-linejoin="round" />
</svg>