<svg xmlns="http://www.w3.org/2000/svg" width="300" height="300" viewBox="0 0 300 300">
<path d="M 124.5 127.5 L 123.5 128.0 L 122.0 128.5 L 122.0 129.0 L 123.5 129.0 L 127.5 129.0 L 132.0 129.0 L 136.5 128.5 L 140.0 128.0 L 142.0 128.0 L 142.0 127.5 " stroke="black" fill="none" stroke-width="6.0" stroke-linecap="round" stroke-linejoin="round" />
<path d="M 131.5 113.0 L 131.5 113.5 L 131.5 114.0 L 131.5 115.0 L 132.0 118.5 L 133.0 127.5 L 133.0 140.0 L 133.0 153.5 L 133.0 166.5 L 133.0 175.0 L 133.0 180.0 L 133.5 181.5 L 133.5 180.5 L 133.0 178.0 " stroke="black" fill="none" stroke-width="6.0" stroke-linecap="round" stroke-linejoin="round" />
<path d="M 132.5 130.5 L 132.5 130.5 L 132.5 130.5 L 132.5 131.0 L 132.5 131.0 L 132.5 131.5 L 132.5 133.0 L 131.0 137.0 L 127.5 145.0 L 124.0 152.5 L 121.5 156.0 L 120.5 156.5 L 120.5 154.0 L 120.5 152.0 " stroke="black" fill="none" stroke-width="6.0" stroke-linecap="round" stroke-linejoin="round" />
<path d="M 128.5 135.0 L 129.0 135.0 L 129.5 134.5 L 131.5 135.0 L 135.0 138.0 L 139.5 143.5 L 142.5 148.0 L 144.0 149.5 L 144.5 149.5 " stroke="black" fill="none" stroke-width="6.0" stroke-linecap="round" stroke-linejoin="round" />
<path d="M 161.5 114.0 L 162.0 114.0 L 162.0 113.5 L 162.5 113.0 L 163.0 113.0 L 163.0 113.0 L 162.0 113.0 L 160.0 114.5 L 157.0 116.5 L 154.0 119.0 L 151.5 121.0 L 149.5 122.5 L 149.0 122.5 L 148.5 123.0 L 148.5 123.0 L 148.5 123.0 L 148.5 123.0 L 148.5 123.0 L 148.5 123.0 L 148.5 122.5 L 148.5 122.5 L 149.0 122.5 L 149.0 122.5 L 149.0 122.5 L 149.0 123.0 L 149.5 123.5 L 149.5 124.5 L 150.0 127.5 L 150.0 132.5 L 150.5 138.5 L 150.5 145.0 L 150.5 150.0 L 150.5 152.5 L 150.5 153.5 L 150.5 153.5 L 151.0 153.5 L 151.5 153.0 L 153.0 152.0 L 154.5 150.5 L 156.0 149.0 L 158.0 148.0 L 159.5 147.0 L 160.5 146.5 " stroke="black" fill="none" stroke-width="6.0" stroke-linecap="round" stroke-linejoin="round" />
<path d="M 164.0 125.0 L 164.0 125.0 L 163.5 124.5 L 163.0 124.5 L 163.0 124.0 L 163.0 124.5 L 163.0 126.5 L 163.0 131.5 L 163.0 140.5 L 161.5 150.5 L 159.0 160.5 L 156.0 168.0 L 153.5 171.5 L 152.5 172.0 L 152.5 170.5 L 152.5 169.0 " stroke="black" fill="none" stroke-width="6.0" stroke-linecap="round" stroke-linejoin="round" />
<path d="M 173.0 118.5 L 173.0 118.5 L 172.5 118.5 L 172.0 118.5 L 171.5 118.5 L 171.5 118.5 L 172.5 118.5 L 174.0 118.0 L 176.0 118.0 L 178.0 117.5 L 179.5 117.5 L 180.5 117.5 L 181.0 117.5 L 181.5 117.5 L 181.5 118.0 L 181.5 120.0 L 181.5 122.5 L 181.0 126.5 L 181.0 131.5 L 181.0 136.5 L 181.0 141.0 L 181.0 144.5 L 181.0 146.0 L 180.0 147.0 L 179.0 147.5 L 178.0 147.5 L 177.0 147.0 L 176.5 145.0 L 176.0 144.0 " stroke="black" fill="none" stroke-width="6.0" stroke-linecap="round" stroke-linejoin="round" />
<path d="M 171.0 119.5 L 170.5 118.5 L 170.0 118.0 L 170.0 118.0 L 169.5 120.0 L 169.5 125.0 L 170.0 133.5 L 170.0 146.0 L 170.0 157.5 L 170.0 166.0 L 170.0 171.5 L 170.0 175.0 L 170.0 176.5 " stroke="black" fill="none" stroke-width="6.0" stroke-linecap="round" stroke-linejoin="round" />
</svg>