<svg xmlns="http://www.w3.org/2000/svg" width="300" height="300" viewBox="0 0 300 300">
<path d="M 164.0 125.5 L 164.0 125.0 L 163.0 123.5 L 162.0 121.5 L 161.0 120.0 L 159.5 119.0 L 158.0 119.0 L 156.5 119.5 L 155.0 121.5 L 153.0 125.5 L 151.5 130.5 L 151.0 136.5 L 150.5 144.5 L 150.0 153.5 L 149.5 161.5 L 149.0 169.0 L 149.0 173.5 L 149.0 176.0 L 148.5 178.5 L 147.0 181.0 L 146.0 182.5 L 144.5 183.5 L 143.0 183.5 L 141.0 181.0 L 140.0 179.0 " stroke="black" fill="none" stroke-width="6.0" stroke-linecap="round" stroke-linejoin="round" />
<path d="M 141.5 151.5 L 140.0 152.0 L 139.5 152.5 L 140.0 152.5 L 143.0 152.0 L 148.5 151.5 L 155.0 151.5 L 160.0 151.5 L 163.0 152.5 L 164.0 152.5 " stroke="black" fill="none" stroke-width="6.0" stroke-linecap="round" stroke-linejoin="round" />
</svg>