<svg xmlns="http://www.w3.org/2000/svg" width="300" height="300" viewBox="0 0 300 300">
<path d="M 139.0 132.0 L 139.0 132.0 L 139.0 132.0 L 138.5 131.5 L 138.5 131.0 L 139.5 129.5 L 141.5 128.5 L 144.0 127.5 L 147.0 126.5 L 150.0 126.0 L 152.5 126.0 L 154.5 127.5 L 155.5 129.5 L 156.0 131.5 L 156.5 134.5 L 156.5 136.5 L 156.5 139.0 L 156.0 141.5 L 156.0 143.5 L 155.5 145.5 L 155.0 147.0 L 154.5 148.5 L 153.5 150.0 L 153.0 151.0 L 152.5 151.5 L 152.0 152.5 L 151.0 153.5 L 151.0 154.5 L 150.5 155.5 L 150.5 157.0 L 150.5 158.0 L 150.5 159.5 L 150.5 160.5 L 150.5 161.0 " stroke="black" fill="none" stroke-width="6.0" stroke-linecap="round" stroke-linejoin="round" />
<path d="M 152.0 175.0 L 152.0 175.5 L 151.5 176.0 L 151.0 176.5 L 151.0 176.5 L 151.0 176.0 L 151.5 175.5 " stroke="black" fill="none" stroke-width="6.0" stroke-linecap="round" stroke-linejoin="round" />
</svg>