<svg xmlns="http://www.w3.org/2000/svg" width="300" height="300" viewBox="0 0 300 300">
<path d="M 150.0 121.0 L 150.0 121.0 L 150.0 121.0 L 149.5 121.0 L 149.5 121.0 L 149.5 121.0 L 149.5 121.5 L 149.5 123.5 L 149.5 127.0 L 149.5 133.0 L 149.5 139.5 L 149.5 146.0 L 149.5 151.5 L 150.0 155.5 L 150.0 158.5 L 150.0 161.5 L 150.0 164.5 L 150.0 166.5 L 150.0 168.5 L 150.0 169.5 L 150.0 171.0 L 150.0 173.0 L 150.0 174.0 L 150.0 175.5 L 150.0 176.5 L 150.0 177.0 L 150.0 177.5 L 150.0 178.0 L 150.0 178.5 L 150.0 179.0 L 150.0 179.0 L 150.0 179.5 L 150.0 179.5 L 150.0 179.5 L 150.0 179.5 L 150.0 179.5 " stroke="black" fill="none" stroke-width="6.0" stroke-linecap="round" stroke-linejoin="round" />
</svg>