<svg xmlns="http://www.w3.org/2000/svg" width="300" height="300" viewBox="0 0 300 300">
<path d="M 158.0 135.0 L 158.0 135.0 L 157.5 135.0 L 156.5 134.5 L 155.5 133.5 L 153.5 133.0 L 151.0 132.5 L 147.5 132.5 L 144.0 134.0 L 139.5 138.5 L 136.0 145.5 L 135.5 152.5 L 136.0 157.0 L 138.5 160.0 L 142.0 162.5 L 147.0 164.0 L 152.5 164.0 L 157.0 163.5 L 160.5 161.0 L 163.0 156.5 L 164.5 151.0 L 165.0 144.5 L 164.0 139.0 L 162.0 135.5 L 159.5 132.5 L 157.5 131.0 L 156.0 130.5 L 155.0 130.5 L 154.5 130.5 " stroke="black" fill="none" stroke-width="6.0" stroke-linecap="round" stroke-linejoin="round" />
</svg>