<svg xmlns="http://www.w3.org/2000/svg" width="300" height="300" viewBox="0 0 300 300">
<path d="M 145.5 92.0 L 145.5 92.0 L 145.5 92.0 L 145.5 92.0 L 145.0 92.0 L 145.0 92.0 L 145.0 92.0 L 144.5 92.0 L 144.5 92.0 L 144.5 92.0 L 144.0 92.0 L 144.0 92.0 L 143.5 92.0 L 143.5 92.0 L 143.0 92.5 L 143.0 92.5 L 142.5 93.0 L 142.0 93.0 L 141.5 93.0 L 141.0 93.0 L 141.0 93.0 L 141.0 92.5 L 141.5 91.5 L 142.5 91.0 L 145.0 90.0 L 147.5 90.0 L 149.5 90.0 L 151.5 90.5 L 153.0 92.0 L 153.5 93.5 L 154.0 95.0 L 154.0 97.5 L 153.5 100.0 L 153.0 103.0 L 151.5 106.0 L 149.5 108.5 L 147.0 111.0 L 144.5 112.0 L 142.0 112.5 L 140.5 112.5 L 139.0 112.5 L 138.0 112.5 L 138.0 112.5 L 137.5 112.0 L 137.5 112.0 L 138.0 112.0 L 139.0 111.5 L 140.5 111.0 L 142.5 111.0 L 144.5 111.0 L 146.5 111.0 L 149.5 111.0 L 152.0 112.0 L 154.5 112.5 L 155.5 113.0 L 156.5 113.0 L 157.0 113.5 L 157.0 113.5 L 157.5 113.5 " stroke="black" fill="none" stroke-width="6.0" stroke-linecap="round" stroke-linejoin="round" />
</svg>