<svg xmlns="http://www.w3.org/2000/svg" width="300" height="300" viewBox="0 0 300 300">
<path d="M 133.5 219.5 L 133.5 219.5 L 133.5 219.5 L 133.5 219.5 L 133.5 219.5 L 133.5 219.5 L 134.0 219.5 L 134.0 219.5 L 135.0 219.5 L 137.0 219.5 L 140.5 219.5 L 145.0 219.5 L 150.0 219.5 L 154.5 219.5 L 158.5 219.0 L 161.0 219.0 L 162.5 218.5 L 163.0 218.5 L 163.0 218.5 L 163.0 218.5 L 164.0 218.0 L 165.5 218.0 L 167.0 218.0 L 169.0 218.0 L 170.0 218.0 L 170.5 218.0 L 170.5 218.0 L 170.5 218.0 L 170.5 218.0 L 170.5 218.0 L 170.0 218.0 L 170.0 218.0 L 170.0 218.0 L 170.0 218.0 L 170.0 218.0 L 170.0 218.0 L 170.0 218.0 L 170.0 218.0 L 170.0 218.0 L 170.0 218.0 L 169.5 218.0 L 169.5 218.0 L 169.5 218.0 L 169.5 218.0 L 169.5 218.0 L 169.5 218.0 L 169.5 218.0 L 169.5 218.0 L 169.5 218.0 L 169.5 218.0 L 169.5 218.0 L 169.5 218.0 L 169.5 218.0 L 169.5 218.0 L 169.5 218.0 L 169.5 218.0 L 169.5 218.0 L 169.5 218.0 L 169.5 218.0 L 169.5 218.0 L 169.5 218.0 L 169.5 218.0 " stroke="black" fill="none" stroke-width="6.0" stroke-linecap="round" stroke-linejoin="round" />
</svg>