<svg xmlns="http://www.w3.org/2000/svg" width="300" height="300" viewBox="0 0 300 300">
<path d="M 134.5 127.5 L 134.0 127.0 L 133.5 126.5 L 133.5 126.5 L 135.5 127.5 L 139.0 131.5 L 145.0 140.0 L 154.0 154.5 L 162.5 164.0 L 168.5 168.5 L 172.5 171.5 L 176.0 174.0 L 178.0 175.5 L 178.5 176.0 L 178.5 175.5 L 176.5 172.5 " stroke="black" fill="none" stroke-width="6.0" stroke-linecap="round" stroke-linejoin="round" />
<path d="M 165.5 128.5 L 165.5 128.5 L 165.5 128.5 L 165.5 128.5 L 165.5 128.5 L 165.5 128.5 L 165.0 128.5 L 163.5 129.5 L 158.5 135.0 L 150.5 146.5 L 143.0 157.5 L 139.0 163.0 L 136.0 166.5 L 134.0 169.0 L 133.5 169.5 L 133.5 169.5 " stroke="black" fill="none" stroke-width="6.0" stroke-linecap="round" stroke-linejoin="round" />
</svg>