<svg xmlns="http://www.w3.org/2000/svg" width="300" height="300" viewBox="0 0 300 300">
<path d="M 139.5 139.5 L 139.0 140.0 L 138.0 140.5 L 137.0 140.5 L 136.5 140.5 L 136.5 140.5 L 136.5 140.5 L 139.0 139.5 L 142.5 138.0 L 147.5 137.5 L 152.5 137.0 L 157.5 137.0 L 160.5 137.0 L 161.0 137.5 L 161.0 138.0 L 161.0 139.0 L 160.5 140.5 L 159.5 143.0 L 157.5 147.0 L 154.5 151.5 L 151.5 155.0 L 147.0 159.0 L 143.0 162.5 L 139.0 167.0 L 135.5 170.0 L 134.0 171.5 L 133.5 172.0 L 133.0 172.0 L 132.5 171.5 L 132.5 171.5 L 133.0 171.0 L 135.5 170.0 L 140.0 169.0 L 145.5 168.5 L 152.0 169.0 L 158.0 171.0 L 163.0 173.0 L 166.0 174.5 L 167.0 175.0 L 167.5 174.5 L 168.0 174.0 " stroke="black" fill="none" stroke-width="6.0" stroke-linecap="round" stroke-linejoin="round" />
</svg>