<svg xmlns="http://www.w3.org/2000/svg" width="300" height="300" viewBox="0 0 300 300">
<path d="M 146.5 121.0 L 146.5 120.0 L 146.5 119.0 L 146.0 118.5 L 145.5 118.0 L 145.5 118.0 L 145.5 119.5 L 146.0 124.5 L 146.5 133.0 L 145.5 146.5 L 145.0 158.0 L 145.0 163.5 L 145.0 165.0 L 145.0 165.0 L 145.0 164.5 L 145.0 164.0 L 145.0 164.0 L 145.0 163.5 L 146.5 161.5 L 149.0 158.5 L 153.0 154.5 L 158.0 149.0 L 163.0 144.5 L 165.5 142.5 L 166.5 142.0 L 167.0 141.5 L 167.5 141.5 L 167.5 141.5 L 167.5 141.5 L 167.5 141.5 L 167.0 142.0 L 165.5 143.5 L 163.0 146.0 L 159.5 149.5 L 155.0 154.0 L 151.5 157.5 L 149.5 159.0 L 149.5 159.0 L 149.5 159.0 L 150.0 158.5 L 152.0 158.5 L 155.0 159.5 L 159.0 161.0 L 163.0 163.5 L 167.0 166.5 L 170.0 169.5 L 171.5 171.0 L 171.5 171.5 L 171.5 169.5 " stroke="black" fill="none" stroke-width="6.0" stroke-linecap="round" stroke-linejoin="round" />
</svg>