<svg xmlns="http://www.w3.org/2000/svg" width="300" height="300" viewBox="0 0 300 300">
<path d="M 144.0 120.0 L 144.0 119.5 L 143.5 118.5 L 143.0 118.0 L 143.0 117.5 L 143.0 117.5 L 142.0 117.0 L 140.5 118.0 L 138.0 122.0 L 136.5 128.5 L 136.0 134.5 L 139.0 137.0 L 142.5 137.5 L 146.0 135.0 L 147.5 130.5 L 148.0 127.0 L 148.0 125.0 L 148.0 124.0 L 147.5 123.5 L 147.5 123.5 " stroke="black" fill="none" stroke-width="6.0" stroke-linecap="round" stroke-linejoin="round" />
<path d="M 166.0 119.0 L 165.5 119.0 L 165.5 118.5 L 165.0 118.0 L 165.0 118.0 L 164.0 119.0 L 160.5 125.0 L 152.0 138.5 L 143.5 152.5 L 140.0 158.0 L 140.0 158.5 L 141.0 158.5 L 141.5 157.5 " stroke="black" fill="none" stroke-width="6.0" stroke-linecap="round" stroke-linejoin="round" />
<path d="M 169.5 145.5 L 169.0 144.5 L 168.5 143.5 L 168.0 143.0 L 167.0 143.0 L 165.0 143.5 L 161.5 146.0 L 158.5 151.0 L 157.5 155.5 L 160.0 159.0 L 165.0 159.5 L 169.5 158.0 L 173.0 153.0 L 173.5 149.0 L 172.5 146.0 L 170.0 144.5 L 168.5 144.5 L 167.5 145.0 " stroke="black" fill="none" stroke-width="6.0" stroke-linecap="round" stroke-linejoin="round" />
</svg>