<svg xmlns="http://www.w3.org/2000/svg" width="300" height="300" viewBox="0 0 300 300">
<path d="M 146.5 111.5 L 146.5 111.5 L 145.0 112.0 L 144.5 112.0 L 144.0 112.0 L 144.0 112.0 L 144.5 112.0 L 145.5 111.5 L 147.0 111.5 L 148.5 111.5 L 149.5 111.5 L 151.0 112.5 L 152.0 114.0 L 153.0 115.5 L 153.5 117.5 L 153.5 120.0 L 153.5 122.5 L 154.0 125.5 L 154.0 128.5 L 154.0 131.5 L 154.0 134.0 L 154.0 136.0 L 154.0 138.5 L 154.0 141.5 L 154.0 143.5 L 154.0 146.0 L 154.5 148.5 L 154.5 150.5 L 155.5 152.5 L 156.0 153.5 L 157.0 154.5 L 158.5 155.0 L 160.5 155.5 L 162.0 155.5 L 163.5 155.5 L 164.5 155.5 L 165.0 155.5 L 165.0 155.5 L 165.0 155.5 L 165.0 155.5 L 165.0 155.5 L 164.5 155.5 L 164.0 155.5 L 163.5 155.5 L 163.0 155.5 L 162.0 156.0 L 161.0 156.0 L 160.5 156.5 L 159.5 157.0 L 158.5 157.5 L 157.5 158.5 L 157.0 160.0 L 156.5 161.5 L 155.5 163.5 L 155.5 165.5 L 155.0 167.5 L 155.0 169.5 L 154.5 171.5 L 154.5 174.0 L 154.5 176.0 L 154.5 178.0 L 154.0 179.5 L 154.0 182.0 L 154.0 184.0 L 153.5 185.5 L 153.5 187.0 L 153.0 188.5 L 152.5 189.0 L 152.0 189.5 L 151.5 190.0 L 150.0 190.0 L 148.5 190.0 L 147.0 189.5 L 145.5 188.5 L 144.0 188.0 L 143.5 187.0 L 143.5 187.0 " stroke="black" fill="none" stroke-width="6.0" stroke-linecap="round" stroke-linejoin="round" />
</svg>