<svg xmlns="http://www.w3.org/2000/svg" width="300" height="300" viewBox="0 0 300 300">
<path d="M 144.5 94.0 L 144.5 94.0 L 144.0 94.0 L 143.5 94.0 L 143.5 94.0 L 143.0 94.0 L 143.0 94.0 L 143.0 94.5 L 143.5 97.5 L 143.5 102.5 L 144.0 109.0 L 144.0 113.0 L 144.5 113.5 L 144.5 113.0 L 145.0 111.0 L 145.0 110.5 " stroke="black" fill="none" stroke-width="6.0" stroke-linecap="round" stroke-linejoin="round" />
<path d="M 145.5 94.0 L 145.0 94.0 L 144.0 94.0 L 144.0 94.0 L 143.5 94.0 L 144.0 94.0 L 145.5 93.5 L 147.5 93.0 L 149.0 92.5 L 151.0 92.5 L 153.0 92.5 L 154.5 93.0 L 155.5 93.5 L 156.5 94.0 L 156.5 95.0 L 156.5 96.0 L 156.5 97.0 L 155.5 98.5 L 154.0 100.5 L 152.5 102.5 L 151.0 104.0 L 149.5 105.0 L 148.5 105.0 L 148.0 105.0 L 148.0 105.0 L 148.0 105.0 L 148.5 105.0 L 150.0 105.5 L 152.0 106.5 L 154.5 108.0 L 156.5 110.0 L 158.5 112.0 L 160.0 113.5 L 160.5 114.0 L 160.5 114.0 L 160.0 114.0 " stroke="black" fill="none" stroke-width="6.0" stroke-linecap="round" stroke-linejoin="round" />
<path d="M 147.5 82.5 L 147.5 82.5 L 147.5 82.5 L 147.5 82.5 L 147.5 82.0 L 147.5 82.0 L 147.5 82.0 L 147.0 81.5 L 147.0 81.5 L 146.5 81.5 L 146.5 81.5 L 145.5 81.5 L 145.0 81.5 L 144.0 81.5 L 142.5 81.5 L 141.5 82.0 L 140.5 82.0 L 139.0 82.5 L 138.0 83.0 L 137.0 83.5 L 136.0 84.5 L 135.0 85.0 L 134.5 86.0 L 133.5 86.5 L 133.0 87.5 L 132.5 88.5 L 132.0 89.5 L 131.5 90.0 L 131.0 91.0 L 130.5 92.0 L 130.5 92.5 L 130.0 93.5 L 130.0 94.5 L 129.5 95.5 L 129.5 96.5 L 129.0 97.5 L 129.0 98.5 L 129.0 99.5 L 128.5 100.5 L 128.5 101.5 L 128.5 102.5 L 128.5 103.0 L 128.5 104.0 L 128.5 104.5 L 128.5 105.5 L 129.0 106.0 L 129.0 106.5 L 129.0 107.5 L 129.0 108.0 L 129.5 109.0 L 129.5 109.5 L 129.5 110.5 L 130.0 111.0 L 130.0 112.0 L 130.0 112.5 L 130.5 113.0 L 131.0 114.0 L 131.0 115.0 L 131.5 115.5 L 132.0 116.5 L 132.5 117.0 L 133.0 117.5 L 133.5 118.5 L 134.0 119.0 L 134.5 119.5 L 134.5 120.0 L 135.0 120.5 L 135.5 120.5 L 135.5 121.0 L 136.0 121.5 L 136.0 122.0 L 136.5 122.0 L 137.0 122.5 L 137.5 122.5 L 137.5 123.0 L 138.0 123.0 L 138.5 123.5 L 139.0 124.0 L 140.0 124.0 L 140.5 124.0 L 141.0 124.0 L 142.0 124.5 L 143.0 124.5 L 144.0 124.5 L 145.0 124.5 L 146.0 124.5 L 147.0 124.5 L 148.0 124.5 L 149.0 124.5 L 149.5 124.5 L 149.5 124.5 L 150.0 124.5 " stroke="black" fill="none" stroke-width="6.0" stroke-linecap="round" stroke-linejoin="round" />
<path d="M 148.5 84.0 L 148.5 84.0 L 148.0 84.0 L 148.0 84.0 L 147.5 84.0 L 147.5 84.0 L 147.5 83.5 L 147.5 83.5 L 148.0 83.5 L 148.5 83.5 L 149.0 83.5 L 150.0 83.5 L 150.5 83.5 L 151.5 83.5 L 152.5 83.5 L 153.5 83.5 L 154.5 84.0 L 155.5 84.0 L 157.0 84.0 L 158.0 84.5 L 159.0 84.5 L 159.5 85.0 L 160.5 85.0 L 161.5 85.5 L 162.0 86.0 L 162.5 86.0 L 163.5 86.5 L 164.0 87.0 L 164.5 87.5 L 165.5 88.5 L 166.0 89.0 L 166.5 89.5 L 167.0 90.0 L 167.5 90.5 L 168.0 91.5 L 168.5 92.0 L 169.0 92.5 L 169.0 93.5 L 169.5 94.5 L 170.0 95.5 L 170.5 96.5 L 170.5 97.5 L 171.0 98.5 L 171.0 99.5 L 171.5 101.0 L 171.5 102.0 L 171.5 103.0 L 171.5 104.5 L 171.5 105.5 L 171.5 106.5 L 171.5 107.5 L 171.5 109.0 L 171.5 110.0 L 171.5 110.5 L 171.5 111.5 L 171.5 112.5 L 171.0 113.0 L 171.0 114.0 L 170.5 115.0 L 170.5 115.5 L 170.0 116.5 L 170.0 117.0 L 169.5 117.5 L 169.0 118.0 L 169.0 118.5 L 168.5 119.0 L 168.0 119.0 L 167.0 119.5 L 166.5 120.0 L 165.5 120.5 L 164.5 121.0 L 164.0 121.0 L 163.0 121.5 L 162.0 122.0 L 161.0 122.0 L 159.5 122.5 L 158.5 123.0 L 157.5 123.0 L 156.5 123.5 L 155.5 124.0 L 154.5 124.0 L 153.5 124.0 L 152.5 124.5 L 151.5 124.5 L 151.0 124.5 L 150.5 124.5 L 150.5 124.5 L 150.5 124.5 L 150.5 124.5 L 151.0 124.5 " stroke="black" fill="none" stroke-width="6.0" stroke-linecap="round" stroke-linejoin="round" />
</svg>