<svg xmlns="http://www.w3.org/2000/svg" width="300" height="300" viewBox="0 0 300 300">
<path d="M 132.0 133.0 L 132.0 133.0 L 132.0 133.5 L 132.5 134.0 L 132.5 134.0 L 132.5 134.0 L 132.5 133.5 L 132.5 132.0 L 132.5 130.0 L 132.5 128.0 L 132.5 125.5 L 132.5 123.5 L 132.5 122.0 L 132.5 121.5 L 132.5 121.0 L 132.5 121.0 L 132.5 121.5 L 132.5 121.5 L 132.5 122.0 L 132.5 122.0 L 132.5 122.0 L 132.5 122.0 L 133.0 122.0 L 134.0 122.0 L 137.0 122.0 L 141.0 122.0 L 146.0 122.0 L 151.0 122.0 L 155.0 122.5 L 158.0 122.5 L 160.0 122.5 L 161.5 122.5 L 162.5 122.0 L 163.0 122.0 L 163.5 122.0 L 163.5 122.0 L 164.0 122.0 L 165.0 121.5 L 166.0 121.5 L 167.0 121.5 L 167.5 121.5 L 168.0 121.0 L 168.5 121.0 L 168.5 121.0 L 168.5 121.0 L 168.5 121.0 L 168.5 121.0 L 168.5 121.0 L 168.0 121.0 L 168.0 121.0 L 168.0 121.0 L 168.0 121.0 L 168.0 121.0 L 168.0 121.0 L 168.0 121.0 L 168.0 121.0 L 168.0 121.0 L 168.0 121.0 L 168.0 121.0 L 168.0 121.0 L 168.0 121.0 L 168.0 121.0 L 168.0 121.0 L 168.0 121.0 L 168.0 121.0 L 168.0 121.0 L 168.0 121.0 L 168.0 121.0 L 168.0 121.0 L 168.0 121.0 L 168.0 121.0 L 168.0 121.0 L 168.0 121.0 " stroke="black" fill="none" stroke-width="6.0" stroke-linecap="round" stroke-linejoin="round" />
<path d="M 154.5 109.5 L 154.5 109.5 L 155.0 109.5 L 155.0 109.5 L 155.0 109.5 L 155.0 109.5 L 155.0 109.5 L 154.5 109.5 L 153.5 109.0 L 152.0 109.0 L 151.0 108.0 L 150.0 107.5 L 149.0 107.0 L 148.5 107.0 L 148.0 106.5 L 148.0 106.5 L 147.5 106.5 L 147.5 106.5 L 147.5 106.5 L 147.5 106.5 L 148.0 106.5 L 148.0 106.5 L 148.0 106.5 L 148.0 106.5 L 148.0 106.5 L 148.0 107.0 L 148.0 108.0 L 148.5 109.0 L 148.5 110.5 L 148.5 112.0 L 149.0 114.0 L 149.0 116.0 L 149.0 118.5 L 149.0 120.5 L 149.0 123.0 L 149.0 125.0 L 149.0 126.5 L 149.0 128.5 L 149.0 130.5 L 149.0 132.0 L 149.5 133.5 L 149.5 135.0 L 149.5 136.0 L 150.0 137.0 L 150.0 138.5 L 150.0 139.5 L 150.0 141.0 L 150.0 142.0 L 150.0 143.0 L 150.5 144.0 L 150.5 145.0 L 150.5 146.0 L 150.5 147.0 L 150.5 147.5 L 150.5 148.0 L 151.0 149.0 L 151.0 149.5 L 151.0 150.0 L 151.0 151.0 L 151.0 151.5 L 151.0 152.0 L 151.0 153.0 L 151.0 153.5 L 151.0 154.0 L 151.0 155.0 L 151.0 155.5 L 151.0 156.0 L 151.0 157.0 L 151.0 157.5 L 151.0 158.0 L 151.0 158.0 L 151.0 158.5 L 151.5 159.0 L 151.5 159.0 L 151.5 159.5 L 151.5 159.5 L 151.5 160.0 L 151.5 160.0 L 151.5 160.5 L 151.5 160.5 L 151.5 160.5 L 151.5 160.5 L 151.5 160.5 L 151.5 160.5 L 151.5 160.5 L 151.5 160.5 L 151.5 160.5 L 151.5 160.5 L 151.5 160.5 L 151.5 160.5 L 151.0 160.5 L 150.5 160.0 L 149.5 160.0 L 148.5 159.5 L 147.5 159.0 L 146.5 159.0 L 146.0 158.5 L 145.0 158.0 L 144.5 158.0 L 144.5 157.5 L 144.5 157.5 L 144.0 157.5 L 144.0 157.5 L 143.5 157.5 " stroke="black" fill="none" stroke-width="6.0" stroke-linecap="round" stroke-linejoin="round" />
</svg>