<svg xmlns="http://www.w3.org/2000/svg" width="300" height="300" viewBox="0 0 300 300">
<path d="M 125.5 111.0 L 125.0 111.0 L 124.5 111.5 L 124.0 111.5 L 124.0 111.5 L 125.0 111.5 L 126.5 111.0 L 128.0 110.5 L 129.5 110.5 L 130.5 110.5 L 132.0 110.5 L 133.5 111.0 L 134.5 112.0 L 136.0 113.5 L 137.0 115.0 L 137.5 116.5 L 138.0 117.5 L 138.5 119.5 L 138.5 121.0 L 139.0 122.5 L 139.0 124.5 L 139.0 126.0 L 139.0 127.5 L 139.0 129.5 L 139.0 131.0 L 138.5 132.5 L 138.0 134.5 L 138.0 136.0 L 137.0 138.0 L 136.5 139.5 L 136.0 141.0 L 136.0 142.5 L 135.5 143.5 L 135.0 144.0 L 134.5 145.0 L 134.0 145.5 L 133.5 146.0 L 133.5 146.0 L 133.5 146.0 L 133.5 146.0 L 133.5 146.0 L 133.5 146.0 L 134.0 146.0 L 135.0 146.0 L 136.0 145.5 L 137.5 145.0 L 139.5 144.5 L 142.0 143.5 L 143.5 143.5 L 147.5 142.5 L 150.5 142.5 L 152.5 142.5 L 154.0 142.5 L 155.0 142.5 L 155.0 142.5 L 155.5 142.5 L 156.0 142.5 L 156.5 142.5 L 157.0 142.5 L 157.5 142.5 L 158.0 142.5 L 158.0 142.5 L 158.0 142.5 L 158.5 142.5 L 158.5 142.5 L 158.5 142.5 L 158.5 142.5 L 158.5 142.5 L 158.5 142.5 L 158.5 142.5 L 158.5 142.5 L 158.5 142.5 L 158.5 142.5 L 158.5 142.5 L 158.5 142.5 L 158.5 142.5 L 158.5 142.5 L 158.5 142.5 L 158.5 142.5 L 158.5 142.5 L 158.0 143.0 L 158.0 144.0 L 157.5 145.0 L 157.0 146.5 L 156.5 148.0 L 156.5 149.5 L 156.0 151.0 L 155.5 152.0 L 155.5 153.0 L 155.0 154.5 L 155.0 155.5 L 154.5 157.0 L 154.5 158.0 L 154.0 159.0 L 154.0 160.5 L 154.0 162.0 L 154.0 164.0 L 154.0 165.0 L 154.0 166.5 L 154.0 167.5 L 154.5 168.5 L 154.5 169.0 L 155.0 169.5 L 156.0 170.0 L 156.5 170.5 L 157.5 170.5 L 158.5 170.5 L 159.5 171.0 L 160.0 171.0 L 161.0 171.0 L 162.0 171.0 L 162.5 170.5 L 163.5 170.5 L 164.0 170.0 L 164.0 170.0 L 164.5 170.0 L 164.5 169.5 L 165.0 169.5 L 165.0 169.5 " stroke="black" fill="none" stroke-width="6.0" stroke-linecap="round" stroke-linejoin="round" />
</svg>