<svg xmlns="http://www.w3.org/2000/svg" width="300" height="300" viewBox="0 0 300 300">
<path d="M 150.5 130.5 L 150.5 130.5 L 150.5 130.5 L 150.5 130.5 L 150.5 130.5 L 150.5 130.5 L 150.5 130.5 L 150.5 130.5 L 150.5 130.5 " stroke="black" fill="none" stroke-width="6.0" stroke-linecap="round" stroke-linejoin="round" />
<path d="M 150.5 148.0 L 150.5 147.5 L 150.5 147.5 L 151.0 147.0 L 151.0 147.0 L 151.0 147.0 L 151.5 146.5 L 151.5 146.5 L 151.5 146.5 L 151.5 147.0 L 151.5 148.0 L 151.5 150.5 L 151.5 153.5 L 151.5 157.0 L 151.5 161.0 L 151.5 164.5 L 151.5 167.5 L 152.0 170.0 L 152.0 172.0 L 152.5 173.5 L 152.5 174.5 L 152.5 175.5 L 152.5 176.0 L 152.5 176.5 L 152.5 177.0 L 152.5 177.5 L 152.0 178.0 L 152.0 178.5 L 152.0 179.0 L 152.0 179.0 L 152.0 179.5 L 151.5 180.0 L 151.5 180.5 L 151.5 180.5 L 151.5 181.0 L 151.0 181.0 L 151.0 181.5 L 150.5 181.5 L 150.0 181.5 L 149.5 181.5 L 148.5 182.0 L 147.5 182.0 L 147.0 182.0 L 145.5 182.0 L 145.0 182.0 L 144.0 182.0 L 143.0 182.0 L 142.5 181.5 L 142.5 181.5 L 142.5 181.0 " stroke="black" fill="none" stroke-width="6.0" stroke-linecap="round" stroke-linejoin="round" />
</svg>