<svg xmlns="http://www.w3.org/2000/svg" width="300" height="300" viewBox="0 0 300 300">
<path d="M 149.0 132.0 L 149.0 132.0 L 149.0 132.0 L 149.0 132.5 L 149.0 133.0 L 149.0 133.0 L 149.0 133.0 L 149.0 133.5 L 149.0 135.0 L 149.0 137.5 L 149.0 141.5 L 148.5 146.5 L 148.0 151.0 L 148.0 154.5 L 148.0 157.5 L 147.5 160.0 L 147.5 163.0 L 147.5 165.5 L 147.5 168.0 L 147.5 170.0 L 147.5 171.5 L 147.5 173.0 L 147.5 174.0 L 148.0 175.0 L 148.5 176.0 L 149.0 177.0 L 149.5 178.0 L 150.0 179.0 L 151.0 179.5 L 151.5 179.5 L 152.5 180.0 L 153.5 180.5 L 154.5 180.5 L 155.5 181.0 L 156.0 181.0 L 157.0 181.0 L 157.5 181.0 L 158.0 181.0 L 158.0 181.0 L 158.5 180.5 " stroke="black" fill="none" stroke-width="6.0" stroke-linecap="round" stroke-linejoin="round" />
</svg>