<svg xmlns="http://www.w3.org/2000/svg" width="300" height="300" viewBox="0 0 300 300">
<path d="M 155.5 111.0 L 155.5 111.0 L 155.5 111.0 L 155.5 111.0 L 155.5 111.0 L 155.5 111.0 L 155.5 111.0 L 155.5 111.0 L 155.5 111.0 L 155.5 111.0 L 155.5 111.0 L 155.5 111.0 L 155.5 111.5 L 155.5 112.5 L 154.5 115.5 L 153.5 118.5 L 153.0 121.5 L 152.5 123.0 L 152.5 123.5 L 152.5 123.5 L 152.5 123.5 L 152.5 123.0 L 152.5 123.0 L 152.5 121.5 L 153.0 119.5 L 154.0 117.5 L 155.0 115.5 L 155.5 113.5 L 156.0 113.0 L 156.0 113.0 L 156.0 113.5 L 154.5 117.0 L 153.0 120.5 L 152.0 124.0 L 151.5 125.5 L 151.0 126.0 L 151.5 125.0 L 152.5 122.0 L 154.0 118.5 L 155.5 116.0 L 156.0 114.5 L 156.5 114.5 L 156.5 114.5 L 155.5 116.5 L 153.5 120.0 L 151.5 125.0 L 151.0 126.0 L 151.5 124.5 L 152.5 121.0 L 153.5 118.5 L 154.0 117.5 L 154.0 117.5 L 154.0 120.0 " stroke="black" fill="none" stroke-width="6.0" stroke-linecap="round" stroke-linejoin="round" />
</svg>