<svg xmlns="http://www.w3.org/2000/svg" width="300" height="300" viewBox="0 0 300 300">
<path d="M 129.0 143.0 L 129.5 143.0 L 129.5 142.5 L 129.5 142.5 L 129.5 142.5 L 129.5 142.5 L 129.5 143.5 L 129.5 145.5 L 129.5 147.5 L 129.0 150.5 L 129.0 154.0 L 129.0 158.0 L 129.5 162.0 L 130.5 165.0 L 131.5 167.5 L 133.0 168.5 L 135.0 169.5 L 137.0 169.5 L 139.0 169.5 L 141.0 169.0 L 143.0 168.0 L 144.5 167.0 L 146.5 165.5 L 148.0 163.5 L 150.0 161.0 L 151.0 159.0 L 151.0 157.5 L 151.0 156.0 L 151.0 154.5 L 151.0 153.0 L 151.0 151.5 L 151.5 150.0 L 151.5 148.5 L 151.5 148.0 L 151.5 147.5 L 151.5 147.5 L 151.5 147.5 L 151.5 147.5 L 151.5 148.0 L 151.5 148.0 L 151.5 148.0 L 151.5 148.0 L 151.5 148.5 L 151.5 149.0 L 151.5 149.5 L 151.5 150.5 L 151.5 152.0 L 151.5 153.5 L 151.5 155.5 L 152.0 158.0 L 152.5 160.0 L 153.0 162.0 L 153.5 164.0 L 154.5 166.0 L 155.5 167.0 L 156.5 168.0 L 157.5 169.0 L 158.5 169.5 L 160.0 169.5 L 161.0 170.0 L 162.5 170.0 L 164.0 170.0 L 165.0 170.0 L 166.5 170.0 L 167.5 169.5 L 169.0 168.5 L 170.5 167.0 L 172.0 165.5 L 173.0 164.0 L 173.5 162.5 L 174.0 161.0 L 174.0 159.0 L 174.0 157.5 L 174.0 156.0 L 174.0 154.5 L 173.5 153.0 L 173.5 151.5 L 173.5 150.5 L 173.0 149.5 L 173.0 148.5 L 173.0 148.0 L 173.0 147.5 L 173.0 147.0 L 173.0 147.0 L 173.0 147.0 L 173.0 147.0 L 173.0 147.0 L 173.0 147.5 L 173.0 147.5 L 173.0 147.5 L 173.0 147.5 L 173.0 147.5 L 173.0 147.5 L 173.0 147.5 L 173.0 148.0 L 173.0 148.0 L 173.0 148.0 L 173.0 148.0 L 173.0 148.0 L 173.0 148.5 L 173.0 149.5 L 173.0 151.0 L 173.0 153.0 L 173.0 155.0 L 173.0 157.5 L 172.5 160.5 L 172.5 163.5 L 172.5 166.5 L 172.0 169.0 L 171.5 172.0 L 171.5 174.5 L 171.0 176.0 L 171.0 176.5 L 171.0 176.5 L 171.0 176.5 L 170.5 176.5 L 170.0 176.5 L 169.5 177.0 L 168.5 178.0 L 167.5 178.5 L 166.5 179.0 L 165.5 179.5 L 164.5 180.0 L 163.0 180.5 L 161.5 181.0 L 159.5 181.5 L 157.5 181.5 L 156.5 182.0 L 155.5 182.0 L 154.5 182.0 L 153.5 181.5 L 152.0 181.5 L 150.5 181.5 L 148.5 181.5 L 147.0 181.0 L 145.5 181.0 L 144.5 180.5 L 143.5 180.5 L 142.5 180.5 L 141.5 180.5 L 140.5 180.0 L 139.5 180.0 L 138.0 180.0 L 137.0 180.0 L 136.0 180.0 L 135.5 180.0 L 134.5 179.5 L 133.5 179.5 L 133.0 179.5 L 132.5 179.5 L 132.5 179.5 L 132.5 179.5 L 132.5 179.5 L 132.5 179.5 L 132.5 179.5 L 133.0 179.5 " stroke="black" fill="none" stroke-width="6.0" stroke-linecap="round" stroke-linejoin="round" />
</svg>