<svg xmlns="http://www.w3.org/2000/svg" width="300" height="300" viewBox="0 0 300 300">
<path d="M 149.0 117.5 L 149.0 117.5 L 149.0 117.5 L 149.0 117.0 L 149.0 117.0 L 149.0 117.0 L 149.0 117.5 L 148.5 119.5 L 147.5 123.5 L 146.0 128.5 L 144.5 134.0 L 143.0 140.5 L 141.0 147.5 L 138.5 153.5 L 136.5 158.5 L 135.0 163.0 L 134.0 166.5 L 133.5 168.5 L 133.5 169.5 L 133.0 170.0 L 132.5 171.0 L 132.0 171.5 L 132.0 171.5 L 132.0 171.0 L 132.0 170.5 " stroke="black" fill="none" stroke-width="6.0" stroke-linecap="round" stroke-linejoin="round" />
<path d="M 151.5 123.0 L 151.5 122.0 L 151.5 121.5 L 151.5 121.0 L 151.5 121.0 L 152.0 122.0 L 153.0 124.0 L 154.0 128.0 L 155.0 134.0 L 157.0 142.0 L 159.0 150.5 L 161.5 157.0 L 163.0 162.0 L 164.5 166.5 L 165.5 170.0 L 166.5 173.5 L 167.5 175.5 L 168.5 177.5 L 169.0 178.5 L 169.0 179.0 L 169.0 179.0 L 169.0 178.5 L 169.0 177.5 " stroke="black" fill="none" stroke-width="6.0" stroke-linecap="round" stroke-linejoin="round" />
</svg>