<svg xmlns="http://www.w3.org/2000/svg" width="300" height="300" viewBox="0 0 300 300">
<path d="M 155.0 133.5 L 155.0 133.5 L 155.0 133.5 L 155.0 133.0 L 155.0 133.0 L 155.5 132.5 L 155.5 132.5 L 155.5 132.0 L 155.0 132.0 L 154.0 132.0 L 152.5 132.0 L 150.5 132.5 L 148.5 133.0 L 146.5 134.0 L 143.5 135.0 L 141.0 136.5 L 138.5 138.0 L 136.5 139.0 L 135.5 140.0 L 134.5 141.0 L 134.5 142.0 L 134.0 143.5 L 133.5 144.5 L 133.5 145.5 L 133.5 147.0 L 133.5 148.5 L 133.5 149.5 L 133.0 151.0 L 133.0 152.5 L 133.0 153.5 L 133.0 155.0 L 133.0 156.5 L 133.0 158.0 L 133.5 159.0 L 133.5 160.5 L 134.0 161.5 L 134.0 163.0 L 134.5 164.0 L 135.0 165.5 L 135.5 166.5 L 136.5 167.5 L 137.0 168.5 L 138.0 169.5 L 139.0 170.5 L 140.5 171.5 L 141.5 172.0 L 142.5 173.0 L 144.0 173.5 L 145.5 174.0 L 146.5 174.5 L 148.0 175.0 L 149.0 175.5 L 150.5 175.5 L 152.0 175.5 L 153.0 175.0 L 154.5 174.5 L 155.5 174.0 L 156.0 173.5 L 157.0 173.0 L 157.0 172.5 L 157.5 172.5 L 157.5 172.5 " stroke="black" fill="none" stroke-width="6.0" stroke-linecap="round" stroke-linejoin="round" />
<path d="M 135.0 153.5 L 135.0 153.5 L 135.5 153.5 L 135.5 154.0 L 136.0 154.0 L 136.0 154.0 L 137.5 154.0 L 139.0 153.5 L 142.0 153.0 L 145.0 153.0 L 147.5 153.0 L 150.0 153.0 L 152.0 153.0 L 152.5 153.0 L 152.5 152.5 L 152.5 152.5 L 152.5 152.5 " stroke="black" fill="none" stroke-width="6.0" stroke-linecap="round" stroke-linejoin="round" />
</svg>