<svg xmlns="http://www.w3.org/2000/svg" width="300" height="300" viewBox="0 0 300 300">
<path d="M 133.0 129.5 L 133.0 129.5 L 134.0 129.5 L 134.5 129.5 L 135.0 129.5 L 135.0 129.5 L 135.0 129.5 L 135.0 131.0 L 133.5 134.0 L 132.0 138.0 L 131.0 140.5 L 130.5 142.0 " stroke="black" fill="none" stroke-width="6.0" stroke-linecap="round" stroke-linejoin="round" />
<path d="M 145.0 134.5 L 144.5 134.5 L 144.0 135.0 L 143.0 135.0 L 143.0 135.0 L 142.5 135.0 L 142.5 135.0 L 143.0 135.0 L 144.0 135.5 L 145.0 136.5 L 146.5 138.5 L 148.0 140.5 L 149.5 143.0 L 150.5 145.5 L 151.0 148.5 L 151.5 151.0 L 152.0 153.0 L 152.0 155.0 L 152.5 156.5 L 152.5 158.0 L 153.0 159.5 L 153.0 160.5 L 153.0 161.0 L 153.0 161.5 L 153.0 161.5 L 153.0 161.5 L 153.0 161.5 L 153.0 161.5 L 153.0 162.0 L 153.0 162.0 L 153.0 162.5 L 153.5 163.0 L 153.5 163.5 L 153.5 164.0 L 153.5 164.5 L 153.5 164.5 L 153.5 165.0 L 153.5 165.0 L 153.5 165.5 L 154.0 166.0 L 154.0 166.5 L 154.0 167.0 L 154.0 167.5 L 154.0 168.5 L 154.0 169.0 L 154.0 170.0 L 154.0 171.0 L 154.0 172.0 L 154.0 172.5 L 154.0 173.0 L 154.5 173.5 L 154.5 173.5 L 154.5 173.5 L 154.5 173.5 L 154.5 173.5 L 154.5 173.5 L 154.5 173.0 L 154.5 172.0 L 155.0 170.5 L 155.0 168.5 L 155.5 166.0 L 155.5 163.5 L 155.5 161.5 L 156.0 159.5 L 156.0 157.5 L 156.0 156.0 L 156.0 154.5 L 156.0 153.5 L 156.0 153.0 L 156.5 152.5 L 156.5 151.5 L 157.0 150.5 L 157.5 149.5 L 157.5 149.0 L 158.0 148.0 L 159.0 147.0 L 160.0 146.0 L 161.0 145.0 L 161.5 144.0 L 162.5 143.0 L 163.5 142.0 L 164.5 141.0 L 165.5 139.5 L 166.5 139.0 L 167.5 138.5 L 168.0 138.0 L 168.5 137.5 L 169.0 137.5 L 169.0 137.5 L 169.5 137.5 L 169.5 137.5 L 169.5 137.5 L 169.5 137.5 L 169.5 137.5 L 169.5 137.5 L 169.5 137.5 L 169.5 137.5 L 169.5 137.5 L 169.5 137.5 L 169.5 137.5 L 169.5 137.5 L 169.5 137.5 L 169.5 137.5 L 169.5 137.5 L 170.0 137.5 " stroke="black" fill="none" stroke-width="6.0" stroke-linecap="round" stroke-linejoin="round" />
</svg>