<svg xmlns="http://www.w3.org/2000/svg" width="300" height="300" viewBox="0 0 300 300">
<path d="M 139.5 120.5 L 139.5 120.5 L 139.5 121.0 L 139.5 121.0 L 139.5 121.0 L 139.5 121.5 L 139.5 121.5 L 139.5 123.0 L 140.0 125.5 L 140.5 129.0 L 140.5 134.0 L 141.0 138.0 L 141.0 142.0 L 141.0 145.5 L 141.0 148.5 L 141.5 151.5 L 141.5 154.0 L 141.5 156.0 L 141.5 158.0 L 141.5 160.5 L 141.5 163.0 L 141.5 165.0 L 141.5 166.5 L 141.5 167.0 L 141.5 167.0 L 141.5 167.0 L 142.0 165.5 L 142.0 165.0 " stroke="black" fill="none" stroke-width="6.0" stroke-linecap="round" stroke-linejoin="round" />
<path d="M 146.0 133.5 L 145.5 134.0 L 144.5 134.0 L 144.0 134.5 L 144.0 134.5 L 144.0 134.5 L 144.5 134.5 L 145.5 134.0 L 146.5 134.0 L 148.0 133.5 L 149.5 133.0 L 151.0 133.0 L 152.5 133.0 L 154.0 133.0 L 155.5 133.0 L 157.0 133.5 L 158.0 134.5 L 159.0 135.5 L 159.5 136.0 L 160.5 137.0 L 160.5 138.0 L 161.0 139.0 L 161.5 139.5 L 162.0 140.5 L 162.0 141.0 L 162.0 142.0 L 162.5 143.0 L 162.5 144.0 L 162.5 145.0 L 162.5 146.0 L 162.5 147.0 L 162.5 148.0 L 162.0 149.0 L 162.0 149.5 L 161.5 150.5 L 161.0 151.5 L 160.0 152.0 L 159.5 152.5 L 159.0 153.5 L 158.0 154.0 L 157.0 154.5 L 156.0 155.0 L 155.0 155.0 L 153.5 155.0 L 152.0 155.0 L 150.0 155.0 L 148.5 155.0 L 146.5 155.0 L 145.0 154.5 L 144.0 154.5 L 143.0 154.5 L 143.0 154.5 L 143.0 154.5 " stroke="black" fill="none" stroke-width="6.0" stroke-linecap="round" stroke-linejoin="round" />
</svg>