<svg xmlns="http://www.w3.org/2000/svg" width="300" height="300" viewBox="0 0 300 300">
<path d="M 154.5 131.0 L 154.5 131.0 L 155.0 130.5 L 155.0 130.5 L 155.0 130.0 L 155.0 129.5 L 155.0 129.5 L 155.0 129.5 L 155.0 130.0 L 154.0 133.5 L 152.0 138.5 L 150.5 142.5 L 149.5 144.0 L 149.5 144.0 " stroke="black" fill="none" stroke-width="6.0" stroke-linecap="round" stroke-linejoin="round" />
<path d="M 136.0 137.0 L 136.0 137.0 L 136.5 137.0 L 136.5 137.0 L 136.5 137.0 L 136.5 137.0 L 136.0 138.5 L 135.5 140.5 L 135.5 142.0 L 136.5 143.0 L 137.5 143.0 L 138.5 142.0 L 139.0 140.0 L 139.0 138.0 L 139.0 137.0 L 138.0 136.5 L 137.5 136.5 L 137.0 136.5 L 137.0 137.0 L 137.5 137.0 " stroke="black" fill="none" stroke-width="6.0" stroke-linecap="round" stroke-linejoin="round" />
<path d="M 164.5 140.5 L 164.5 140.0 L 165.0 139.5 L 165.0 138.5 L 165.0 138.0 L 165.0 137.0 L 165.0 137.0 L 165.0 136.5 L 163.5 137.0 L 162.5 138.5 L 161.5 141.0 L 161.5 142.5 L 161.5 143.5 L 163.5 144.0 L 165.0 143.5 L 166.0 141.5 L 166.5 139.5 L 167.0 138.5 L 166.0 137.5 L 165.5 137.5 L 165.0 137.5 L 165.0 137.5 " stroke="black" fill="none" stroke-width="6.0" stroke-linecap="round" stroke-linejoin="round" />
<path d="M 146.5 155.5 L 146.5 155.5 L 146.5 156.0 L 146.5 156.0 L 146.5 156.0 L 146.5 156.5 L 146.5 157.0 L 146.5 157.5 L 146.5 159.0 L 146.5 161.5 L 146.5 165.5 L 146.5 170.0 L 146.5 174.0 L 146.5 176.5 L 146.5 178.5 L 147.5 181.0 L 148.0 183.0 L 149.0 185.0 L 149.5 186.5 L 150.5 187.0 L 151.0 188.0 L 152.5 188.5 L 154.5 189.5 L 156.5 190.0 L 158.5 190.5 L 161.0 190.5 L 163.5 190.5 L 165.0 190.5 L 166.0 190.5 L 166.0 190.0 L 166.5 190.0 L 166.5 190.0 L 166.5 189.5 L 166.5 189.5 L 166.5 189.5 L 166.5 189.5 L 166.5 189.5 L 166.5 189.5 " stroke="black" fill="none" stroke-width="6.0" stroke-linecap="round" stroke-linejoin="round" />
</svg>