<svg xmlns="http://www.w3.org/2000/svg" width="300" height="300" viewBox="0 0 300 300">
<path d="M 162.0 118.5 L 161.5 118.5 L 161.5 118.5 L 161.0 118.5 L 160.5 119.0 L 159.5 121.0 L 158.5 124.5 L 158.0 126.0 " stroke="black" fill="none" stroke-width="6.0" stroke-linecap="round" stroke-linejoin="round" />
<path d="M 137.5 136.0 L 137.5 136.0 L 138.0 135.5 L 138.0 135.5 L 138.5 135.5 L 138.5 135.5 L 138.5 135.5 L 138.0 136.0 L 137.0 138.0 L 136.0 141.0 L 134.5 145.0 L 133.5 149.5 L 133.5 153.5 L 133.5 156.5 L 134.0 159.0 L 135.0 161.0 L 136.5 162.5 L 138.5 163.0 L 141.0 163.0 L 144.0 163.0 L 147.0 163.0 L 149.5 162.0 L 152.0 161.0 L 154.5 159.0 L 156.5 157.5 L 158.5 155.5 L 159.0 154.0 L 159.0 153.0 L 159.0 152.0 L 159.0 151.0 L 158.5 150.5 L 158.5 150.0 L 158.5 150.0 L 158.5 150.0 L 158.5 150.0 L 158.5 150.0 L 158.0 151.0 L 158.0 151.5 L 158.0 152.0 L 158.0 153.0 L 158.5 154.0 L 159.0 155.5 L 160.5 157.0 L 162.0 158.5 L 164.0 159.5 L 166.5 160.0 L 169.0 160.5 L 171.5 160.5 L 173.5 160.0 L 175.0 159.0 L 176.5 157.5 L 177.5 156.0 L 178.0 154.0 L 178.5 152.5 L 178.5 150.5 L 178.0 149.0 L 177.5 147.0 L 176.5 145.5 L 176.0 143.5 L 175.0 141.5 L 174.5 140.0 L 173.5 138.0 L 173.0 137.0 L 172.5 136.5 L 172.5 136.5 L 172.5 136.5 L 172.5 136.5 L 172.5 137.5 " stroke="black" fill="none" stroke-width="6.0" stroke-linecap="round" stroke-linejoin="round" />
</svg>