<svg xmlns="http://www.w3.org/2000/svg" width="300" height="300" viewBox="0 0 300 300">
<path d="M 152.0 125.0 L 152.0 125.0 L 152.5 124.5 L 152.5 124.0 L 152.5 123.5 L 152.5 123.5 L 152.5 123.0 L 151.5 123.0 L 150.0 123.0 L 148.5 123.0 L 146.5 124.0 L 144.5 125.0 L 143.0 126.5 L 141.0 128.0 L 139.5 129.5 L 138.5 131.0 L 137.0 133.0 L 136.0 135.0 L 134.5 137.5 L 133.5 140.0 L 133.0 142.5 L 132.5 147.5 L 132.5 150.0 L 132.0 152.0 L 132.0 154.0 L 132.0 156.5 L 132.0 159.0 L 132.0 162.5 L 133.0 166.0 L 134.0 169.0 L 135.0 172.0 L 136.0 174.0 L 137.0 175.5 L 138.0 177.5 L 139.5 179.0 L 141.5 180.5 L 143.5 181.5 L 146.0 182.0 L 149.0 182.5 L 152.5 182.5 L 156.5 182.0 L 160.0 181.0 L 163.0 179.5 L 166.0 178.0 L 168.0 176.0 L 170.0 173.5 L 171.5 171.0 L 172.5 167.5 L 173.5 163.5 L 174.0 159.5 L 174.5 155.5 L 174.5 152.5 L 174.5 150.0 L 174.5 147.0 L 174.5 144.0 L 173.5 141.5 L 173.0 139.5 L 172.5 137.5 L 171.5 136.0 L 170.5 135.0 L 169.0 134.0 L 168.0 133.0 L 166.5 132.0 L 165.5 131.0 L 164.0 130.0 L 163.0 129.0 L 162.0 128.5 L 160.5 127.5 L 159.0 127.0 L 155.5 126.5 L 155.0 126.5 L 154.5 127.0 L 154.5 128.0 " stroke="black" fill="none" stroke-width="6.0" stroke-linecap="round" stroke-linejoin="round" />
<path d="M 144.5 150.5 L 144.0 151.0 L 143.5 151.5 L 143.0 151.5 L 143.5 151.5 L 145.5 151.5 L 148.5 151.5 L 151.5 151.5 L 154.5 151.5 L 156.5 151.0 L 157.5 151.0 L 158.0 151.0 " stroke="black" fill="none" stroke-width="6.0" stroke-linecap="round" stroke-linejoin="round" />
</svg>