<svg xmlns="http://www.w3.org/2000/svg" width="300" height="300" viewBox="0 0 300 300">
<path d="M 138.5 121.5 L 138.5 121.0 L 138.5 121.0 L 138.5 120.5 L 138.5 120.5 L 140.0 120.0 L 142.5 120.0 L 146.0 120.5 L 149.5 122.0 L 153.0 124.0 L 155.5 126.0 L 158.0 128.5 L 160.0 130.5 L 162.0 133.0 L 163.0 134.5 L 164.5 136.5 L 165.5 139.0 L 166.0 141.0 L 167.0 143.5 L 167.5 145.5 L 167.5 147.5 L 168.0 149.5 L 168.0 151.5 L 168.0 153.5 L 168.0 156.0 L 168.0 158.5 L 168.0 160.5 L 168.0 162.5 L 168.0 165.0 L 167.5 166.5 L 167.5 167.5 L 167.5 168.0 L 167.0 168.0 L 167.0 167.5 " stroke="black" fill="none" stroke-width="6.0" stroke-linecap="round" stroke-linejoin="round" />
<path d="M 154.5 129.5 L 154.5 129.5 L 155.0 129.5 L 155.0 130.0 L 155.0 130.0 L 155.0 130.5 L 155.0 131.0 L 153.5 132.5 L 151.0 135.0 L 148.0 138.0 L 146.0 140.5 L 145.0 142.0 L 145.0 142.5 " stroke="black" fill="none" stroke-width="6.0" stroke-linecap="round" stroke-linejoin="round" />
<path d="M 161.0 138.0 L 161.0 138.0 L 161.5 138.0 L 161.5 138.5 L 162.0 138.5 L 162.0 138.5 L 162.0 138.5 L 162.0 139.0 L 160.5 141.5 L 157.5 145.5 L 154.5 149.5 L 152.5 152.5 L 152.0 153.5 L 152.0 153.5 " stroke="black" fill="none" stroke-width="6.0" stroke-linecap="round" stroke-linejoin="round" />
</svg>