<svg xmlns="http://www.w3.org/2000/svg" width="300" height="300" viewBox="0 0 300 300">
<path d="M 153.5 148.0 L 153.5 148.0 L 153.5 147.5 L 153.5 146.5 L 153.5 145.5 L 153.0 144.5 L 151.5 144.0 L 150.0 143.5 L 147.5 143.5 L 145.0 144.5 L 142.0 146.5 L 139.0 149.0 L 137.0 152.5 L 136.0 157.0 L 135.5 161.0 L 135.5 164.5 L 137.0 167.5 L 139.0 170.0 L 141.0 172.0 L 143.5 173.5 L 146.0 174.0 L 149.0 174.0 L 151.5 174.0 L 154.0 172.5 L 156.5 170.5 L 158.5 167.0 L 160.5 163.5 L 161.0 160.0 L 161.5 156.0 L 161.5 152.5 L 160.5 148.5 L 158.5 145.0 L 156.5 143.0 L 155.0 142.5 L 153.5 143.5 L 153.0 144.0 " stroke="black" fill="none" stroke-width="6.0" stroke-linecap="round" stroke-linejoin="round" />
<path d="M 148.0 132.0 L 148.0 132.0 L 148.0 132.0 L 148.5 132.0 L 148.5 132.5 L 148.5 133.5 L 148.5 137.0 L 148.5 144.0 L 148.0 154.0 L 148.0 163.5 L 148.0 172.5 L 148.0 180.0 L 148.0 185.0 L 148.0 189.0 L 148.5 191.0 L 148.5 191.0 L 148.5 190.5 L 148.5 189.5 " stroke="black" fill="none" stroke-width="6.0" stroke-linecap="round" stroke-linejoin="round" />
</svg>