<svg xmlns="http://www.w3.org/2000/svg" width="300" height="300" viewBox="0 0 300 300">
<path d="M 140.0 134.0 L 140.0 134.0 L 140.0 134.5 L 139.0 134.5 L 139.0 134.5 L 138.5 134.5 L 138.5 134.0 L 138.5 133.5 L 138.5 132.5 L 139.0 131.5 L 140.0 130.0 L 141.5 128.5 L 142.5 127.5 L 143.5 127.0 L 145.5 126.5 L 147.5 126.0 L 150.0 126.0 L 152.5 126.0 L 154.5 126.0 L 155.5 126.5 L 156.5 127.0 L 157.0 127.5 L 157.5 128.0 L 158.0 128.5 L 158.5 129.5 L 159.5 131.0 L 160.0 132.0 L 161.0 133.5 L 161.0 135.0 L 161.5 136.0 L 162.0 137.5 L 162.0 138.5 L 162.0 140.0 L 162.0 141.5 L 162.0 142.5 L 161.5 143.5 L 161.0 144.0 L 160.0 145.0 L 159.0 145.5 L 157.5 146.0 L 156.0 146.5 L 154.0 147.0 L 152.0 147.0 L 150.5 147.0 L 148.5 147.5 L 146.5 148.0 L 145.0 149.0 L 144.0 150.0 L 143.0 151.0 L 142.0 151.5 L 141.5 153.0 L 141.0 154.0 L 140.5 155.5 L 140.0 156.5 L 139.5 158.0 L 139.5 159.0 L 139.0 161.0 L 139.0 162.5 L 139.0 164.0 L 139.5 166.0 L 140.0 167.5 L 140.5 168.5 L 141.5 170.0 L 142.5 171.0 L 143.5 172.5 L 144.5 173.5 L 146.0 175.0 L 147.5 175.5 L 149.0 176.0 L 151.0 176.5 L 153.0 176.5 L 155.0 176.0 L 156.5 175.0 L 158.0 174.5 L 159.0 173.5 L 159.5 172.5 L 160.0 171.5 L 160.5 169.5 L 161.0 167.5 L 161.5 166.0 L 161.5 164.5 L 161.5 163.0 L 161.5 161.5 L 161.5 160.0 L 161.0 159.0 L 161.0 158.5 L 161.0 158.5 L 161.0 158.5 L 161.0 158.5 L 161.0 158.5 L 161.0 158.5 L 161.0 158.5 L 161.0 158.5 L 161.0 158.5 " stroke="black" fill="none" stroke-width="6.0" stroke-linecap="round" stroke-linejoin="round" />
</svg>