<svg xmlns="http://www.w3.org/2000/svg" width="300" height="300" viewBox="0 0 300 300">
<path d="M 153.5 119.0 L 154.0 118.5 L 154.0 118.0 L 154.0 117.5 L 154.0 117.5 L 153.5 117.0 L 152.0 117.0 L 150.5 117.5 L 148.5 118.5 L 146.0 120.0 L 143.0 122.0 L 140.5 124.5 L 139.0 127.0 L 137.0 130.5 L 136.0 134.0 L 135.0 138.5 L 134.5 142.5 L 134.0 146.5 L 133.5 149.5 L 133.5 152.5 L 134.0 156.0 L 134.5 158.5 L 135.5 161.5 L 136.5 164.0 L 138.0 166.5 L 140.0 169.0 L 142.5 170.5 L 145.5 171.5 L 149.0 172.5 L 153.0 173.0 L 156.5 173.0 L 160.0 172.5 L 162.0 171.5 L 162.5 171.0 L 163.0 169.5 " stroke="black" fill="none" stroke-width="6.0" stroke-linecap="round" stroke-linejoin="round" />
<path d="M 127.5 140.0 L 126.5 140.0 L 125.5 140.0 L 125.0 140.0 L 125.5 140.0 L 127.5 140.0 L 131.5 140.0 L 137.0 140.0 L 144.0 139.5 L 150.5 139.5 L 155.0 140.0 L 157.0 140.5 L 157.0 140.5 L 157.0 140.5 L 156.0 140.5 " stroke="black" fill="none" stroke-width="6.0" stroke-linecap="round" stroke-linejoin="round" />
<path d="M 128.0 154.0 L 128.0 154.0 L 128.0 154.0 L 128.0 154.0 L 128.0 154.0 L 129.0 154.0 L 132.0 154.0 L 138.0 154.0 L 146.0 154.0 L 153.0 154.0 L 156.5 154.0 L 158.0 154.0 L 158.0 154.5 L 158.0 154.5 L 157.5 154.5 " stroke="black" fill="none" stroke-width="6.0" stroke-linecap="round" stroke-linejoin="round" />
</svg>