<svg xmlns="http://www.w3.org/2000/svg" width="300" height="300" viewBox="0 0 300 300">
<path d="M 133.5 132.0 L 133.5 132.0 L 133.0 132.5 L 132.5 132.5 L 132.5 132.5 L 134.0 132.5 L 138.0 132.5 L 144.5 132.5 L 153.0 132.5 L 162.0 131.5 L 169.5 130.0 L 172.5 130.0 L 173.0 130.0 L 172.5 130.0 L 171.5 130.0 L 170.5 130.5 L 170.5 131.0 " stroke="black" fill="none" stroke-width="6.0" stroke-linecap="round" stroke-linejoin="round" />
<path d="M 135.5 157.5 L 135.5 158.5 L 135.0 159.0 L 134.5 159.0 L 134.5 159.0 L 136.0 159.0 L 139.5 159.0 L 146.0 158.5 L 155.5 157.0 L 164.0 155.5 L 170.0 155.0 L 172.0 155.0 L 171.5 155.5 L 170.0 155.5 L 169.5 155.0 " stroke="black" fill="none" stroke-width="6.0" stroke-linecap="round" stroke-linejoin="round" />
<path d="M 151.5 110.5 L 151.5 111.0 L 151.5 111.5 L 151.5 112.0 L 151.5 112.5 L 151.5 114.0 L 151.5 117.5 L 151.5 122.0 L 151.5 127.5 L 151.5 133.5 L 152.0 138.5 L 152.0 149.0 L 152.0 153.0 L 151.5 157.0 L 151.5 160.0 L 151.5 162.5 L 151.5 165.5 L 151.5 169.0 L 151.0 171.5 L 151.0 174.5 L 151.0 176.5 L 151.0 178.0 L 151.0 179.0 L 151.0 180.0 L 151.5 181.0 L 151.5 181.5 L 151.5 182.5 L 151.5 183.0 L 151.5 183.5 L 151.5 184.0 L 151.5 184.5 L 151.5 185.0 L 151.5 185.0 L 151.5 185.5 L 151.5 185.5 L 151.5 186.0 L 151.5 186.0 L 151.5 186.0 L 151.5 186.0 L 152.0 186.0 " stroke="black" fill="none" stroke-width="6.0" stroke-linecap="round" stroke-linejoin="round" />
</svg>