<svg xmlns="http://www.w3.org/2000/svg" width="300" height="300" viewBox="0 0 300 300">
<path d="M 162.0 107.0 L 162.5 106.5 L 162.5 106.5 L 162.5 106.0 L 162.5 106.0 L 162.5 106.0 L 161.0 106.0 L 159.5 106.5 L 157.5 108.0 L 155.5 110.0 L 153.5 112.5 L 152.5 115.5 L 152.0 118.5 L 151.5 121.0 L 151.5 124.0 L 151.5 126.0 L 151.5 128.0 L 152.5 130.0 L 153.5 131.5 L 154.5 133.0 L 156.0 134.5 L 158.0 134.5 L 159.5 134.5 L 161.5 134.5 L 163.0 133.5 L 164.5 132.0 L 166.0 130.0 L 167.0 128.0 L 167.0 126.0 L 167.0 125.0 L 167.0 123.5 L 166.0 122.5 L 165.0 121.5 L 164.0 120.5 L 163.0 120.0 L 162.0 119.5 L 160.0 119.5 L 158.0 119.5 L 156.0 120.0 L 154.5 121.0 L 154.0 122.5 L 153.5 123.5 L 153.5 124.5 " stroke="black" fill="none" stroke-width="6.0" stroke-linecap="round" stroke-linejoin="round" />
</svg>