<svg xmlns="http://www.w3.org/2000/svg" width="300" height="300" viewBox="0 0 300 300">
<path d="M 125.5 127.5 L 125.5 127.0 L 125.0 126.0 L 124.5 125.5 L 124.0 125.0 L 123.5 125.0 L 122.5 125.5 L 122.0 127.5 L 121.5 131.5 L 121.0 137.0 L 121.5 143.0 L 123.0 147.0 L 125.5 148.5 L 128.0 149.0 L 129.5 148.0 L 131.0 145.5 L 131.5 141.5 L 132.0 137.0 L 132.0 133.0 L 131.0 129.5 L 129.0 127.5 L 127.5 126.5 L 126.5 126.5 L 126.0 126.5 L 126.0 127.5 L 126.5 127.5 " stroke="black" fill="none" stroke-width="6.0" stroke-linecap="round" stroke-linejoin="round" />
<path d="M 148.0 128.0 L 148.0 128.0 L 148.0 128.0 L 148.0 127.5 L 148.0 127.5 L 148.0 127.5 L 147.0 129.5 L 143.5 136.0 L 137.0 150.0 L 130.0 164.5 L 127.0 173.0 L 126.0 175.5 L 126.0 176.0 L 127.0 174.5 " stroke="black" fill="none" stroke-width="6.0" stroke-linecap="round" stroke-linejoin="round" />
<path d="M 151.0 158.0 L 151.0 158.0 L 151.0 158.0 L 151.0 158.0 L 151.0 158.0 L 150.5 157.5 L 149.5 157.5 L 147.5 157.5 L 145.0 160.0 L 143.0 164.5 L 143.0 170.0 L 146.0 173.5 L 149.5 174.0 L 152.5 171.5 L 154.0 167.0 L 154.0 162.0 L 153.0 158.5 L 151.5 156.0 L 150.0 156.0 L 149.5 156.0 L 149.0 157.0 L 149.0 157.5 " stroke="black" fill="none" stroke-width="6.0" stroke-linecap="round" stroke-linejoin="round" />
<path d="M 172.0 158.0 L 172.0 158.0 L 171.5 158.0 L 171.5 158.0 L 171.5 158.0 L 170.5 158.0 L 169.0 158.0 L 164.5 159.0 L 162.5 162.0 L 162.0 167.0 L 164.0 171.5 L 167.5 174.0 L 171.0 174.0 L 173.5 172.0 L 174.5 167.5 L 174.5 163.0 L 174.0 160.0 L 172.0 157.5 L 170.0 157.5 L 169.0 158.0 L 169.0 158.5 " stroke="black" fill="none" stroke-width="6.0" stroke-linecap="round" stroke-linejoin="round" />
</svg>