<svg xmlns="http://www.w3.org/2000/svg" width="300" height="300" viewBox="0 0 300 300">
<path d="M 89.0 93.0 L 89.0 93.0 L 90.0 93.0 L 90.5 92.5 L 90.5 91.5 L 90.0 90.5 L 89.0 90.5 L 88.0 90.5 L 86.5 91.5 L 86.0 94.0 L 85.5 96.0 L 85.5 98.5 L 87.5 99.5 L 90.0 99.0 L 92.0 97.0 L 93.0 94.0 L 93.0 92.0 L 91.5 91.0 L 90.0 91.0 L 88.5 92.0 L 87.5 94.0 L 87.5 96.5 L 87.5 98.0 L 89.5 98.5 L 91.5 98.0 L 93.5 96.0 L 94.5 94.0 L 94.5 92.0 L 93.5 91.5 L 93.0 91.0 L 92.0 91.0 L 91.5 91.5 L 91.5 92.0 L 91.0 92.5 L 91.0 93.5 L 91.5 94.5 L 92.0 96.0 L 93.0 98.0 L 93.5 100.5 L 94.0 103.5 L 94.0 106.5 L 93.0 109.5 L 91.5 112.5 L 89.0 114.0 L 87.0 114.5 L 86.5 115.0 L 86.0 114.0 " stroke="black" fill="none" stroke-width="6.0" stroke-linecap="round" stroke-linejoin="round" />
<path d="M 105.0 91.5 L 105.0 92.0 L 105.0 92.0 L 104.5 92.0 L 104.5 92.0 L 104.0 91.5 L 103.0 91.5 L 102.0 91.5 L 100.5 93.5 L 100.0 95.5 L 100.0 97.5 L 101.0 99.0 L 103.0 99.0 L 105.0 97.5 L 106.0 95.0 L 106.5 93.5 L 106.5 92.0 L 106.0 91.5 L 105.0 91.5 L 104.5 92.0 L 104.0 93.0 L 104.0 94.0 L 104.0 95.0 L 104.5 95.5 L 105.5 95.5 L 106.0 95.5 L 106.5 94.0 L 106.5 93.0 L 106.0 92.0 L 105.0 91.5 L 104.0 91.5 L 102.5 92.5 L 101.0 96.5 L 101.0 98.0 L 102.0 99.0 L 104.0 99.5 L 105.5 98.5 L 107.0 97.0 L 107.5 95.5 L 107.5 94.5 L 107.5 93.5 L 107.5 93.0 L 107.0 93.0 L 107.0 93.0 L 106.5 93.0 L 106.5 93.0 L 106.5 93.0 L 106.5 93.0 L 106.5 94.0 L 106.5 95.0 L 106.5 96.5 L 107.0 99.0 L 107.0 102.0 L 107.0 105.0 L 107.0 108.0 L 106.5 110.0 L 105.5 112.0 L 104.5 113.0 L 103.0 114.0 L 102.0 114.5 L 101.0 114.5 L 100.5 114.5 L 100.5 114.0 " stroke="black" fill="none" stroke-width="6.0" stroke-linecap="round" stroke-linejoin="round" />
</svg>