<svg xmlns="http://www.w3.org/2000/svg" width="300" height="300" viewBox="0 0 300 300">
<path d="M 119.5 132.0 L 119.0 131.5 L 118.5 131.0 L 118.5 130.5 L 118.5 130.5 L 119.0 130.5 L 119.5 131.0 L 120.5 133.5 L 122.0 138.5 L 123.5 146.5 L 126.0 156.0 L 128.0 162.5 L 129.0 164.0 L 129.5 163.5 L 130.5 161.0 L 131.0 157.0 L 132.0 152.5 L 133.5 148.0 L 136.0 142.0 L 138.0 137.0 L 139.0 133.5 L 139.0 132.5 L 139.0 132.0 L 139.5 132.0 L 140.0 132.0 L 141.0 132.0 " stroke="black" fill="none" stroke-width="6.0" stroke-linecap="round" stroke-linejoin="round" />
<path d="M 151.5 131.5 L 151.5 131.5 L 151.5 131.0 L 152.0 130.0 L 152.0 129.5 L 152.0 129.5 L 152.0 129.5 L 152.5 132.0 L 152.5 136.5 L 153.0 142.5 L 153.5 150.0 L 154.0 155.5 L 154.0 158.0 L 154.0 158.5 L 154.0 157.5 " stroke="black" fill="none" stroke-width="6.0" stroke-linecap="round" stroke-linejoin="round" />
<path d="M 154.5 120.0 L 154.5 120.0 L 154.5 119.5 L 154.5 119.0 L 154.5 119.0 L 154.5 118.5 L 154.5 118.5 L 154.5 118.5 L 154.5 118.5 " stroke="black" fill="none" stroke-width="6.0" stroke-linecap="round" stroke-linejoin="round" />
<path d="M 165.0 131.0 L 165.0 131.0 L 164.5 131.0 L 164.5 131.0 L 164.5 131.0 L 164.5 131.0 L 164.5 132.5 L 165.0 136.0 L 166.0 142.5 L 167.0 150.5 L 167.5 156.0 L 168.0 157.5 L 168.0 155.0 " stroke="black" fill="none" stroke-width="6.0" stroke-linecap="round" stroke-linejoin="round" />
<path d="M 169.5 117.5 L 168.5 117.5 L 167.5 117.5 L 167.0 117.0 L 167.0 117.0 L 167.5 117.0 L 168.0 118.0 " stroke="black" fill="none" stroke-width="6.0" stroke-linecap="round" stroke-linejoin="round" />
<path d="M 180.0 132.0 L 180.0 131.5 L 180.5 131.0 L 180.5 130.5 L 180.5 130.5 L 180.5 130.5 L 180.5 132.0 L 180.5 135.5 L 180.5 141.0 L 180.5 148.5 L 181.0 154.5 L 181.5 156.0 L 181.5 154.5 L 181.0 153.5 " stroke="black" fill="none" stroke-width="6.0" stroke-linecap="round" stroke-linejoin="round" />
<path d="M 185.0 115.5 L 184.5 115.5 L 184.0 115.5 L 183.5 115.5 L 183.5 115.5 L 183.5 115.5 L 183.5 116.0 L 184.0 116.5 " stroke="black" fill="none" stroke-width="6.0" stroke-linecap="round" stroke-linejoin="round" />
</svg>