<svg xmlns="http://www.w3.org/2000/svg" width="300" height="300" viewBox="0 0 300 300">
<path d="M 138.0 135.0 L 138.0 135.0 L 138.0 135.0 L 138.0 135.0 L 138.0 135.0 L 138.0 135.0 L 138.5 135.0 L 139.0 136.5 L 141.0 140.5 L 143.5 147.5 L 146.5 155.5 L 149.0 163.0 L 151.5 167.5 L 152.5 170.0 L 153.0 170.5 L 153.0 171.0 L 153.0 171.0 L 153.0 171.0 L 153.0 170.5 L 153.0 169.5 L 153.0 168.0 L 153.0 165.5 L 153.0 163.0 L 154.0 159.5 L 156.0 153.5 L 159.5 147.0 L 163.0 140.5 L 164.5 137.0 L 165.0 135.5 L 165.0 135.0 L 164.5 135.0 L 164.0 135.0 L 164.0 135.0 L 164.0 135.0 L 164.0 135.0 L 164.0 135.0 L 164.0 135.0 L 164.5 135.0 L 164.5 135.0 " stroke="black" fill="none" stroke-width="6.0" stroke-linecap="round" stroke-linejoin="round" />
</svg>