<svg xmlns="http://www.w3.org/2000/svg" width="300" height="300" viewBox="0 0 300 300">
<path d="M 119.0 139.0 L 119.5 139.0 L 119.5 139.5 L 120.0 139.5 L 120.5 139.5 L 120.5 139.5 L 120.5 139.5 L 120.5 139.5 L 119.0 142.5 L 114.0 149.0 L 108.5 155.5 L 105.5 160.0 L 104.5 161.0 L 104.0 161.0 L 104.0 161.0 L 104.0 161.0 L 104.0 161.0 L 104.0 161.0 L 104.0 161.0 L 104.0 161.0 L 104.5 161.0 L 105.0 161.0 L 106.0 161.0 L 107.0 161.0 L 108.5 161.0 L 109.5 161.0 L 111.0 161.0 L 113.0 161.5 L 116.0 163.0 L 119.0 164.5 L 122.0 166.5 L 123.5 168.0 L 124.0 168.5 L 124.0 168.5 L 124.0 168.5 " stroke="black" fill="none" stroke-width="6.0" stroke-linecap="round" stroke-linejoin="round" />
<path d="M 170.0 141.5 L 168.0 141.5 L 167.5 141.5 L 167.0 141.5 L 167.5 141.5 L 169.5 142.0 L 172.0 143.5 L 174.5 145.5 L 177.0 147.0 L 179.5 148.5 L 180.5 149.0 L 181.5 150.0 L 181.5 150.0 L 181.5 150.5 L 181.5 150.5 L 181.5 150.5 L 181.0 150.5 L 181.0 150.5 L 180.5 151.0 L 179.5 152.0 L 178.5 153.5 L 177.0 156.0 L 174.0 159.5 L 170.5 164.0 L 167.5 167.5 L 167.0 168.5 L 167.0 168.5 L 168.0 168.0 " stroke="black" fill="none" stroke-width="6.0" stroke-linecap="round" stroke-linejoin="round" />
<path d="M 111.0 156.0 L 111.0 156.5 L 111.5 157.0 L 111.5 157.5 L 112.5 157.5 L 114.0 157.5 L 117.5 157.5 L 123.5 156.5 L 133.0 155.0 L 144.0 153.5 L 153.0 153.0 L 159.5 153.0 L 165.0 153.0 L 167.5 153.5 L 169.0 154.0 L 170.0 154.0 L 170.0 154.0 L 170.0 154.0 L 170.0 154.0 L 170.0 154.0 L 170.5 153.5 L 171.0 153.5 L 171.5 153.5 " stroke="black" fill="none" stroke-width="6.0" stroke-linecap="round" stroke-linejoin="round" />
</svg>