<svg xmlns="http://www.w3.org/2000/svg" width="300" height="300" viewBox="0 0 300 300">
<path d="M 157.5 127.5 L 158.5 127.5 L 159.5 127.5 L 160.0 127.0 L 160.0 127.0 L 160.5 127.0 L 160.5 127.0 L 160.0 127.0 L 159.0 128.0 L 157.0 130.5 L 153.5 133.5 L 149.0 137.5 L 144.5 141.5 L 140.5 145.0 L 137.5 147.0 L 136.5 148.0 L 136.0 148.5 L 136.0 148.5 L 136.0 149.0 L 136.0 149.0 L 136.0 149.5 L 136.0 149.5 L 136.0 149.5 L 136.0 149.5 L 137.5 150.0 L 140.0 151.0 L 143.5 153.0 L 148.5 156.0 L 153.5 159.0 L 158.0 162.0 L 162.0 163.5 L 164.0 165.0 L 165.0 165.5 L 165.5 165.5 L 165.5 165.5 L 165.5 165.5 L 165.5 165.5 L 164.5 165.5 " stroke="black" fill="none" stroke-width="6.0" stroke-linecap="round" stroke-linejoin="round" />
<path d="M 139.0 174.5 L 139.0 174.5 L 139.5 174.5 L 139.5 174.5 L 140.5 174.5 L 142.5 174.5 L 146.5 174.0 L 152.0 174.0 L 158.5 174.0 L 164.5 174.5 L 168.0 174.5 L 169.5 174.5 L 170.0 174.5 L 169.5 174.5 L 168.5 174.5 " stroke="black" fill="none" stroke-width="6.0" stroke-linecap="round" stroke-linejoin="round" />
<path d="M 139.0 190.0 L 139.0 189.5 L 139.5 189.0 L 140.0 189.0 L 140.5 189.0 L 142.0 189.0 L 145.0 189.0 L 150.0 189.0 L 156.5 189.5 L 163.0 190.0 L 169.5 190.5 L 174.5 190.5 L 176.0 190.5 L 176.0 190.5 L 175.5 190.5 " stroke="black" fill="none" stroke-width="6.0" stroke-linecap="round" stroke-linejoin="round" />
</svg>