<svg xmlns="http://www.w3.org/2000/svg" width="300" height="300" viewBox="0 0 300 300">
<path d="M 127.5 127.5 L 127.0 127.5 L 127.0 127.5 L 127.5 127.5 L 131.0 127.0 L 139.0 127.0 L 150.5 127.0 L 160.5 126.5 L 167.0 126.5 L 171.5 126.5 L 173.0 126.5 L 173.0 126.5 L 172.5 126.5 L 172.5 126.5 L 172.5 126.5 L 172.5 126.5 L 172.0 126.5 " stroke="black" fill="none" stroke-width="6.0" stroke-linecap="round" stroke-linejoin="round" />
<path d="M 130.5 141.5 L 130.5 142.0 L 130.5 142.0 L 130.5 142.5 L 130.5 142.5 L 130.5 142.5 L 131.5 142.5 L 133.5 142.5 L 137.5 142.0 L 144.5 141.0 L 152.5 140.5 L 159.5 140.0 L 165.5 139.5 L 169.0 139.5 L 170.5 139.5 L 171.5 140.0 L 172.0 140.0 L 172.5 140.0 L 173.0 140.0 L 173.0 140.0 L 173.0 139.5 L 173.0 139.5 L 173.0 139.5 L 173.0 139.5 L 173.0 139.5 " stroke="black" fill="none" stroke-width="6.0" stroke-linecap="round" stroke-linejoin="round" />
<path d="M 129.0 160.5 L 129.0 160.5 L 129.5 161.0 L 129.5 161.5 L 130.0 161.5 L 131.0 161.5 L 133.5 161.5 L 139.0 161.5 L 147.5 161.5 L 156.5 161.5 L 165.0 161.5 L 170.5 161.5 L 175.0 162.5 L 178.0 163.0 L 180.0 163.5 L 181.0 163.5 L 181.5 163.5 L 181.5 163.5 L 181.5 163.5 L 181.5 163.5 L 181.5 163.5 " stroke="black" fill="none" stroke-width="6.0" stroke-linecap="round" stroke-linejoin="round" />
</svg>