<svg xmlns="http://www.w3.org/2000/svg" width="300" height="300" viewBox="0 0 300 300">
<path d="M 130.5 178.5 L 130.0 178.5 L 129.5 178.5 L 129.0 178.5 L 128.5 177.0 L 128.5 173.5 L 129.0 169.0 L 129.5 164.0 L 130.0 158.5 L 131.5 154.0 L 132.5 151.0 L 134.0 148.0 L 135.5 145.5 L 137.0 144.0 L 138.0 142.0 L 140.0 141.0 L 141.5 140.0 L 143.5 139.5 L 145.5 139.0 L 147.0 139.0 L 149.0 139.0 L 151.0 139.0 L 153.5 139.0 L 156.0 139.5 L 158.0 139.5 L 160.0 140.0 L 161.5 140.5 L 162.5 141.0 L 163.0 142.0 L 164.0 143.0 L 165.0 144.5 L 165.5 146.0 L 166.5 148.0 L 167.5 150.0 L 168.5 152.5 L 169.0 155.0 L 170.0 157.5 L 170.5 160.0 L 171.0 163.0 L 171.0 166.0 L 171.5 168.5 L 171.5 171.0 L 172.0 174.0 L 172.0 177.0 L 172.5 179.0 L 172.5 180.5 L 172.5 181.0 L 172.5 181.0 L 172.5 180.5 " stroke="black" fill="none" stroke-width="6.0" stroke-linecap="round" stroke-linejoin="round" />
</svg>