<svg xmlns="http://www.w3.org/2000/svg" width="300" height="300" viewBox="0 0 300 300">
<path d="M 127.0 110.0 L 127.0 110.0 L 127.0 110.0 L 127.5 110.0 L 127.5 110.0 L 128.0 110.0 L 130.0 110.0 L 134.0 110.0 L 142.0 109.0 L 150.5 108.5 L 157.5 108.5 L 162.0 109.0 L 165.5 109.5 L 167.0 109.5 L 167.0 109.5 L 167.0 109.5 L 167.0 109.0 L 166.5 109.0 L 166.5 109.0 L 166.5 109.5 " stroke="black" fill="none" stroke-width="6.0" stroke-linecap="round" stroke-linejoin="round" />
<path d="M 130.5 144.0 L 130.5 144.0 L 130.0 144.5 L 130.0 144.5 L 130.0 144.5 L 132.5 144.5 L 137.0 144.5 L 143.5 144.0 L 150.0 143.5 L 154.5 143.5 L 156.5 143.5 L 156.5 143.5 L 156.5 143.5 L 156.5 143.5 L 156.0 143.5 " stroke="black" fill="none" stroke-width="6.0" stroke-linecap="round" stroke-linejoin="round" />
<path d="M 142.0 129.0 L 142.0 129.0 L 142.0 129.0 L 142.0 129.0 L 142.0 129.0 L 142.0 130.5 L 143.0 134.0 L 143.5 141.5 L 144.0 151.0 L 144.5 159.0 L 144.5 163.0 L 144.5 165.5 L 145.0 166.0 L 145.0 166.0 L 145.0 165.0 " stroke="black" fill="none" stroke-width="6.0" stroke-linecap="round" stroke-linejoin="round" />
</svg>