<svg xmlns="http://www.w3.org/2000/svg" width="300" height="300" viewBox="0 0 300 300">
<path d="M 113.0 122.0 L 113.5 121.5 L 113.5 121.0 L 113.5 120.0 L 113.0 120.0 L 112.5 119.5 L 111.5 119.5 L 111.0 120.5 L 111.0 122.0 L 111.0 124.0 L 112.0 125.0 L 113.5 126.0 L 115.5 126.0 L 116.5 125.5 L 117.0 124.0 L 117.0 123.0 L 116.5 122.0 L 115.5 122.0 L 114.5 122.0 L 113.5 123.0 L 113.5 124.0 L 114.0 125.0 L 116.0 125.5 L 117.5 125.5 L 118.5 124.5 L 119.0 123.0 L 119.0 122.0 L 118.5 121.0 L 117.5 121.0 " stroke="black" fill="none" stroke-width="6.0" stroke-linecap="round" stroke-linejoin="round" />
<path d="M 113.0 139.5 L 113.0 139.5 L 113.0 140.0 L 113.0 140.0 L 114.0 140.0 L 116.0 139.5 L 120.5 138.5 L 128.0 137.5 L 137.0 136.5 L 147.0 136.5 L 154.0 136.0 L 159.0 136.5 L 162.0 137.0 L 163.5 137.0 L 164.0 137.5 L 164.0 137.5 L 163.5 137.5 L 163.5 137.5 L 163.5 137.5 " stroke="black" fill="none" stroke-width="6.0" stroke-linecap="round" stroke-linejoin="round" />
<path d="M 119.5 154.5 L 119.0 155.0 L 118.5 155.5 L 118.0 155.5 L 117.5 155.5 L 117.5 155.5 L 117.5 155.5 L 119.0 155.5 L 121.5 155.5 L 126.5 155.5 L 133.5 155.0 L 142.5 154.0 L 151.0 153.5 L 156.0 154.0 L 158.5 155.0 L 159.5 156.0 L 160.0 156.5 L 160.0 156.5 L 160.0 156.5 L 160.0 156.5 L 159.5 156.0 " stroke="black" fill="none" stroke-width="6.0" stroke-linecap="round" stroke-linejoin="round" />
<path d="M 158.0 174.5 L 158.5 174.5 L 159.0 174.5 L 159.0 174.0 L 159.5 173.5 L 159.5 173.5 L 159.0 173.0 L 158.0 173.0 L 156.5 174.0 L 155.5 175.0 L 155.0 176.5 L 155.0 178.0 L 156.0 178.5 L 157.5 179.0 L 159.0 178.0 L 160.0 176.0 L 160.5 174.5 L 160.0 173.5 L 159.0 172.5 L 157.5 172.5 L 155.5 173.0 L 154.0 174.5 L 153.5 176.5 L 154.0 178.0 L 156.0 179.0 L 159.0 179.5 L 161.0 178.0 L 162.5 175.5 L 163.0 173.5 L 162.5 171.5 L 161.5 171.0 L 159.5 170.5 L 158.0 171.0 L 157.0 172.0 L 157.0 173.5 L 157.0 174.5 L 158.5 175.0 L 160.0 175.0 L 161.0 174.5 L 161.5 173.5 " stroke="black" fill="none" stroke-width="6.0" stroke-linecap="round" stroke-linejoin="round" />
</svg>