<svg xmlns="http://www.w3.org/2000/svg" width="300" height="300" viewBox="0 0 300 300">
<path d="M 138.5 151.0 L 138.5 151.0 L 138.5 150.5 L 138.5 150.0 L 138.5 149.5 L 139.0 149.0 L 139.0 149.0 L 139.5 150.5 L 140.5 154.0 L 142.0 159.5 L 144.0 166.0 L 145.5 170.0 L 146.0 171.0 L 146.5 171.0 L 146.5 170.5 L 146.5 169.5 L 147.0 167.5 L 147.5 164.0 L 149.5 158.0 L 153.0 150.0 L 158.5 140.5 L 164.0 132.5 L 167.5 126.5 L 170.0 122.0 L 171.0 119.0 L 171.0 118.0 L 171.0 118.0 L 171.0 118.0 L 171.0 118.5 L 171.0 118.5 L 171.5 119.0 " stroke="black" fill="none" stroke-width="6.0" stroke-linecap="round" stroke-linejoin="round" />
</svg>