<svg xmlns="http://www.w3.org/2000/svg" width="300" height="300" viewBox="0 0 300 300">
<path d="M 147.5 82.5 L 147.5 82.5 L 147.0 82.0 L 146.5 82.0 L 146.5 82.0 L 146.5 82.0 L 146.5 82.0 L 146.5 82.0 L 146.5 82.0 L 146.0 82.5 L 145.5 84.0 L 145.0 85.0 L 144.5 87.0 L 143.5 89.0 L 142.0 91.5 L 141.0 94.0 L 139.5 96.5 L 138.5 99.5 L 136.5 102.5 L 135.0 105.5 L 133.0 109.0 L 131.5 112.0 L 129.0 116.0 L 127.0 120.0 L 125.0 124.5 L 123.0 128.5 L 121.0 132.0 L 118.5 136.5 L 116.0 141.0 L 113.5 145.5 L 111.5 149.5 L 109.5 153.0 L 107.5 156.5 L 105.5 160.5 L 103.0 165.0 L 100.0 169.5 L 97.5 174.0 L 95.0 178.0 L 93.0 181.5 L 91.0 185.5 L 89.0 189.0 L 87.0 193.0 L 85.5 196.5 L 84.0 199.0 L 82.5 202.0 L 81.0 204.5 L 80.0 207.0 L 78.5 209.5 L 77.5 211.5 L 76.5 213.0 L 76.0 214.5 L 75.5 215.0 L 75.5 215.5 L 75.5 216.0 L 75.0 216.0 L 75.0 216.5 L 74.5 216.5 L 74.5 217.0 L 73.5 217.5 L 73.0 218.0 L 72.5 219.0 L 72.0 220.0 L 71.5 220.5 L 71.0 221.0 L 71.0 221.5 L 71.0 221.5 L 71.0 221.5 L 71.0 221.5 L 71.0 221.5 L 71.0 221.5 L 71.0 221.5 L 71.0 221.5 L 71.0 221.5 L 71.0 221.5 L 71.5 221.5 L 71.5 221.5 L 72.0 221.5 L 72.5 221.0 L 72.5 221.0 L 73.0 221.0 L 73.5 221.0 L 74.0 221.0 L 74.5 220.5 L 75.0 220.5 L 75.5 220.5 L 76.0 220.5 L 76.0 220.0 L 76.5 220.0 L 77.0 220.0 L 77.5 220.0 L 78.0 220.0 L 79.0 220.0 L 80.5 220.0 L 82.5 220.0 L 84.5 220.0 L 87.0 220.0 L 90.0 220.5 L 93.5 221.0 L 96.5 221.0 L 100.5 221.5 L 104.0 221.5 L 108.0 221.5 L 112.0 221.5 L 115.5 221.5 L 119.5 221.5 L 124.0 221.5 L 128.0 221.5 L 132.0 221.5 L 136.5 221.5 L 140.5 221.5 L 145.0 221.5 L 149.0 221.5 L 152.5 221.5 L 156.0 221.5 L 160.0 221.5 L 163.0 222.0 L 166.5 222.0 L 169.0 222.0 L 172.0 222.0 L 174.5 222.0 L 177.0 222.0 L 179.5 222.0 L 182.5 222.0 L 185.5 222.0 L 188.5 222.0 L 191.5 222.0 L 194.5 222.0 L 197.5 222.0 L 201.0 222.0 L 204.0 222.0 L 207.5 222.5 L 210.5 223.0 L 213.5 223.5 L 216.0 224.0 L 218.5 224.5 L 221.0 225.0 L 223.5 225.5 L 226.0 226.0 L 228.0 226.5 L 229.0 227.0 L 230.0 227.5 L 230.5 227.5 L 230.5 227.5 L 230.5 227.5 L 230.0 227.5 L 230.0 227.5 L 230.0 227.5 L 230.0 227.5 L 230.0 227.5 L 230.0 227.5 L 229.5 227.5 L 229.5 227.5 L 229.5 227.5 L 229.5 227.5 L 229.5 227.5 L 229.5 227.5 L 229.5 227.5 L 229.5 227.5 L 229.5 227.0 L 229.0 226.0 L 229.0 225.0 L 228.0 223.5 L 227.5 221.0 L 226.5 218.5 L 225.0 216.0 L 224.0 212.5 L 222.5 209.5 L 221.5 206.0 L 220.0 202.5 L 218.5 199.5 L 216.5 196.0 L 215.0 192.5 L 213.0 189.0 L 211.0 185.5 L 209.0 181.5 L 207.0 177.5 L 204.5 173.5 L 202.0 169.0 L 199.0 165.0 L 196.5 160.5 L 193.5 156.0 L 191.0 152.0 L 188.0 147.5 L 185.5 142.5 L 182.5 138.0 L 179.5 134.0 L 177.0 130.0 L 174.5 126.0 L 172.5 122.0 L 170.5 118.0 L 168.5 114.5 L 166.5 111.0 L 165.0 107.5 L 163.0 104.5 L 161.5 101.5 L 159.5 98.5 L 158.5 96.0 L 157.0 93.5 L 156.0 91.5 L 155.0 89.5 L 154.0 88.0 L 153.0 86.5 L 152.5 85.0 L 152.5 84.0 L 152.0 83.5 L 152.0 83.5 L 152.0 83.0 L 152.0 83.0 L 152.0 83.0 L 152.0 83.0 L 152.0 83.0 L 152.0 83.0 L 152.0 83.0 L 152.0 83.0 L 152.0 83.0 L 152.0 83.0 " stroke="black" fill="none" stroke-width="9.0" stroke-linecap="round" stroke-linejoin="round" />
</svg>