<svg xmlns="http://www.w3.org/2000/svg" width="300" height="300" viewBox="0 0 300 300">
<path d="M 75.5 77.0 L 75.5 77.0 L 75.5 77.0 L 75.5 77.0 L 75.0 77.0 L 75.0 77.0 L 75.0 77.0 L 76.0 77.5 L 77.0 79.0 L 78.0 81.5 L 79.5 84.0 L 80.5 87.0 L 82.0 90.0 L 83.5 93.5 L 85.0 97.0 L 87.0 100.5 L 88.5 104.5 L 90.5 108.0 L 92.5 112.5 L 94.5 116.5 L 96.5 120.0 L 98.5 124.0 L 100.5 127.5 L 102.0 130.5 L 104.0 134.0 L 105.5 137.0 L 107.0 140.0 L 108.5 143.5 L 110.0 146.5 L 111.5 149.0 L 113.0 152.0 L 114.5 155.0 L 116.0 158.0 L 117.5 161.0 L 119.0 164.0 L 120.5 166.5 L 122.0 169.5 L 123.5 172.5 L 125.0 175.0 L 127.0 178.5 L 128.5 181.5 L 130.0 185.0 L 132.0 188.5 L 133.5 191.5 L 135.0 194.5 L 137.0 198.0 L 138.5 201.0 L 140.0 204.0 L 141.5 207.0 L 142.5 210.0 L 143.5 213.0 L 145.0 216.0 L 146.0 218.5 L 147.0 220.5 L 148.0 222.5 L 148.5 224.5 L 149.0 225.5 L 149.5 226.5 L 149.5 226.5 L 149.5 226.5 L 149.5 226.5 L 149.5 226.5 L 149.5 226.5 L 149.5 226.5 L 149.5 226.5 L 149.5 226.5 L 149.5 226.5 L 149.5 226.5 L 149.5 226.5 L 149.5 226.0 L 149.5 226.0 L 149.5 226.0 L 149.5 226.0 L 149.5 226.0 L 149.5 226.0 L 149.5 226.0 L 149.5 226.0 L 149.5 226.0 L 149.5 225.0 L 150.0 224.0 L 150.0 222.5 L 150.5 220.5 L 151.5 218.0 L 153.0 214.5 L 155.5 210.0 L 159.0 205.5 L 161.5 202.0 L 163.5 198.5 L 165.5 195.5 L 167.5 192.0 L 169.5 188.5 L 171.5 184.5 L 173.5 181.5 L 175.5 178.5 L 177.0 175.0 L 179.0 171.5 L 181.0 167.5 L 183.0 164.0 L 185.0 161.0 L 186.5 158.0 L 188.0 155.5 L 189.5 152.5 L 191.5 149.5 L 193.0 146.5 L 195.0 143.0 L 197.0 139.5 L 199.0 136.5 L 200.5 134.5 L 201.5 132.5 L 202.0 131.0 L 203.0 129.0 L 204.0 127.0 L 205.5 125.0 L 206.5 123.0 L 207.0 121.5 L 208.0 120.0 L 209.0 118.0 L 210.0 115.5 L 211.0 113.5 L 212.0 112.5 L 212.5 111.0 L 213.0 109.5 L 214.0 107.5 L 215.0 105.5 L 216.0 103.5 L 216.5 102.0 L 217.0 100.5 L 217.5 99.5 L 218.0 98.0 L 218.5 96.5 L 218.5 95.5 L 219.0 95.0 L 219.0 94.5 L 219.0 93.5 L 219.0 92.5 L 219.5 91.0 L 219.5 90.0 L 220.0 89.0 L 220.0 88.0 L 220.5 87.0 L 221.0 86.0 L 221.0 85.0 L 221.5 84.0 L 222.0 83.0 L 222.0 82.5 L 222.5 82.0 L 222.5 81.5 L 223.0 81.0 L 223.0 80.5 L 223.0 80.0 L 223.0 80.0 L 223.0 80.0 L 223.0 80.0 L 223.0 80.0 L 223.0 80.0 L 223.0 80.0 L 223.0 80.0 L 223.0 80.0 L 223.0 80.0 L 223.0 80.0 L 223.0 80.0 L 223.0 80.0 L 223.0 80.5 L 222.5 80.5 L 222.0 80.5 L 221.5 80.5 L 220.5 80.5 L 219.5 80.5 L 219.0 80.5 L 218.0 80.5 L 216.5 80.5 L 214.5 81.0 L 212.0 81.0 L 209.0 81.0 L 205.0 81.0 L 200.5 81.0 L 196.0 81.0 L 191.5 81.0 L 187.0 81.0 L 182.5 80.5 L 178.0 80.5 L 174.5 80.5 L 171.0 80.0 L 168.0 80.0 L 165.5 80.0 L 163.5 79.5 L 161.5 79.5 L 160.0 79.5 L 158.5 79.5 L 156.5 79.5 L 154.5 79.5 L 152.0 79.5 L 149.0 79.5 L 145.5 79.5 L 142.0 80.0 L 138.0 80.5 L 134.0 80.5 L 130.0 80.5 L 126.5 80.5 L 123.5 80.5 L 120.0 80.5 L 117.0 80.5 L 114.5 80.5 L 111.5 80.5 L 108.5 80.5 L 105.5 80.5 L 102.5 80.5 L 99.5 80.5 L 97.0 80.5 L 94.5 80.5 L 92.5 80.5 L 91.0 80.5 L 90.0 80.5 L 89.0 80.5 L 88.5 80.5 L 88.0 80.5 L 87.0 80.5 L 86.0 80.5 L 85.0 80.5 L 84.5 80.0 L 84.0 80.0 L 83.5 80.0 L 83.5 80.0 " stroke="black" fill="none" stroke-width="9.0" stroke-linecap="round" stroke-linejoin="round" />
</svg>