<svg xmlns="http://www.w3.org/2000/svg" width="300" height="300" viewBox="0 0 300 300">
<path d="M 218.0 80.0 L 218.0 80.0 L 218.0 80.0 L 218.5 80.0 L 218.5 80.0 L 218.5 80.0 L 218.5 80.0 L 218.5 80.0 L 218.5 80.0 L 218.5 80.0 L 218.0 80.0 L 216.5 80.5 L 214.5 82.0 L 210.5 84.0 L 205.0 87.5 L 198.0 91.5 L 191.5 95.5 L 185.5 99.0 L 180.5 102.0 L 175.0 104.5 L 170.5 107.5 L 166.0 110.0 L 161.0 112.5 L 156.5 114.5 L 152.0 117.0 L 148.0 118.5 L 144.0 120.5 L 140.0 122.5 L 135.5 124.5 L 131.5 126.5 L 127.0 128.5 L 122.5 130.5 L 117.5 133.0 L 112.5 135.0 L 108.5 137.0 L 104.5 138.5 L 101.0 140.0 L 97.5 141.5 L 94.0 143.0 L 91.5 144.5 L 89.0 145.5 L 87.0 146.5 L 85.0 147.5 L 83.0 148.5 L 82.0 149.0 L 81.0 149.5 L 80.0 150.0 L 80.0 150.0 L 80.0 150.0 L 80.0 150.0 L 79.5 150.5 L 79.5 150.5 L 79.0 151.0 L 78.5 151.0 L 78.0 151.0 L 77.5 151.5 L 77.5 151.5 L 77.0 151.5 L 77.0 151.5 L 77.0 151.5 L 77.0 151.5 L 77.0 151.5 L 77.0 151.5 L 77.0 151.5 L 77.0 151.5 L 77.0 151.5 L 77.5 151.5 L 78.0 151.5 L 78.0 152.0 L 79.0 152.0 L 80.0 152.5 L 81.5 152.5 L 83.0 153.5 L 86.0 154.0 L 89.5 155.0 L 93.5 156.5 L 98.5 158.0 L 103.0 159.5 L 108.0 161.5 L 112.5 163.5 L 117.5 165.5 L 122.5 167.5 L 123.5 168.5 L 132.0 172.5 L 136.5 174.5 L 141.0 177.0 L 145.5 179.0 L 150.0 181.5 L 154.0 184.0 L 157.5 186.5 L 161.0 188.5 L 165.0 190.0 L 168.0 192.0 L 171.0 193.5 L 173.5 195.5 L 176.0 197.0 L 178.5 198.0 L 180.5 199.5 L 183.0 201.0 L 185.0 202.0 L 186.5 203.5 L 188.5 204.5 L 190.5 206.0 L 192.0 207.0 L 194.0 208.0 L 195.5 209.0 L 197.0 210.5 L 199.0 211.5 L 201.0 212.5 L 203.5 214.0 L 206.0 215.0 L 208.5 216.0 L 211.5 217.5 L 214.0 218.5 L 216.5 220.0 L 219.0 221.5 L 221.0 223.0 L 223.5 224.0 L 225.5 225.5 L 227.0 226.0 L 228.0 227.0 L 228.5 227.0 L 229.0 227.5 L 229.0 227.5 L 229.0 227.5 L 228.5 227.5 L 228.5 227.5 L 228.5 227.5 L 228.0 227.5 L 227.5 227.5 " stroke="black" fill="none" stroke-width="9.0" stroke-linecap="round" stroke-linejoin="round" />
<path d="M 222.5 81.5 L 222.5 81.5 L 222.5 81.5 L 223.0 81.5 L 223.0 81.5 L 223.0 81.5 L 223.0 81.5 L 223.0 81.5 L 223.0 82.5 L 222.5 84.0 L 222.0 86.0 L 221.5 89.0 L 221.0 92.5 L 220.5 96.5 L 220.5 100.5 L 220.5 105.5 L 221.0 110.0 L 221.0 115.5 L 221.5 121.5 L 222.0 127.5 L 222.5 134.0 L 223.0 140.0 L 224.0 146.5 L 224.5 152.5 L 225.0 158.5 L 225.5 164.0 L 226.0 170.0 L 226.5 175.5 L 226.5 180.5 L 227.0 185.0 L 227.5 190.0 L 228.0 194.0 L 228.0 198.0 L 228.5 202.0 L 229.0 205.0 L 229.0 208.0 L 229.5 210.5 L 229.5 213.0 L 229.5 214.5 L 229.5 216.0 L 229.5 216.0 L 229.5 216.0 L 229.5 216.0 L 229.5 216.0 L 229.5 216.0 L 229.5 216.0 L 229.5 216.0 L 229.5 216.5 L 229.5 217.0 L 229.5 217.0 L 229.5 217.5 L 229.5 218.0 L 229.5 218.0 L 229.5 218.5 L 229.5 218.5 L 229.5 219.0 L 229.5 219.0 L 229.5 219.5 L 229.5 219.5 L 229.5 219.5 L 229.5 219.5 L 229.5 220.0 L 229.5 220.0 L 229.5 220.0 L 229.5 220.0 L 229.5 220.0 L 229.5 220.5 L 229.5 220.5 L 229.5 220.5 L 229.5 220.5 L 229.5 220.5 L 229.5 220.5 L 229.5 220.5 L 229.5 220.5 L 229.0 220.5 " stroke="black" fill="none" stroke-width="9.0" stroke-linecap="round" stroke-linejoin="round" />
<path d="M 107.5 151.5 L 108.0 151.5 L 108.5 152.0 L 108.5 152.0 L 109.0 152.0 L 109.5 152.0 L 110.5 152.0 L 111.0 152.0 L 111.5 152.0 L 112.0 151.5 L 112.5 151.5 L 113.0 151.5 L 114.0 151.0 L 115.0 151.0 L 115.5 151.0 L 116.5 151.0 L 117.0 150.5 L 117.0 150.5 L 117.5 150.5 L 117.5 150.5 L 117.5 150.5 L 117.0 150.5 L 116.0 150.5 L 114.0 150.5 L 112.0 150.5 L 110.5 150.5 L 108.5 150.5 L 107.5 150.5 L 106.5 150.5 L 105.5 150.5 L 105.0 150.5 L 104.5 151.0 L 104.0 151.0 L 103.5 151.0 L 103.0 151.0 L 103.0 151.0 L 102.5 151.0 L 102.0 151.0 L 101.5 151.0 L 101.0 151.0 L 100.5 151.0 L 100.0 151.0 L 99.5 151.0 L 99.5 151.0 L 99.0 150.5 L 98.5 150.5 L 98.5 150.5 L 98.0 150.5 L 98.0 150.5 L 98.0 150.5 L 97.5 150.5 L 97.5 150.5 L 97.5 150.5 L 97.5 150.5 L 97.5 150.5 L 97.5 150.5 L 98.0 150.5 L 98.5 150.5 L 100.5 150.0 L 103.0 149.5 L 106.0 149.0 L 109.5 148.0 L 113.0 147.0 L 117.0 145.5 L 120.5 144.5 L 123.5 142.5 L 126.0 141.0 L 128.5 139.0 L 130.0 137.5 L 132.0 136.0 L 133.5 135.0 L 136.0 133.5 L 139.5 132.0 L 143.5 130.0 L 147.5 128.0 L 151.0 126.5 L 154.0 125.5 L 156.5 125.0 L 158.5 124.0 L 161.0 123.0 L 163.0 122.0 L 165.0 120.5 L 167.0 119.5 L 168.5 118.5 L 170.5 117.5 L 172.5 116.5 L 174.0 115.5 L 176.5 114.0 L 179.0 112.5 L 181.5 111.5 L 184.0 110.0 L 186.5 109.0 L 188.5 107.5 L 190.5 106.5 L 192.0 105.5 L 193.5 104.5 L 194.0 104.0 L 194.5 104.0 L 195.0 103.5 L 195.5 103.5 L 196.5 103.0 L 198.0 102.0 L 200.0 101.0 L 202.0 99.5 L 204.0 98.5 L 206.0 97.5 L 207.5 96.5 L 208.0 96.0 L 208.5 96.0 L 208.5 96.0 L 209.0 95.5 L 209.0 95.0 L 209.5 95.0 L 209.5 95.0 L 210.0 94.5 L 210.5 94.0 L 210.5 93.5 L 211.0 93.0 L 211.0 93.0 L 211.5 93.0 L 211.5 93.0 L 211.5 93.0 L 211.5 93.0 L 211.5 93.0 L 211.5 93.0 L 211.5 93.0 L 211.5 93.0 L 211.0 94.0 L 211.0 95.0 L 210.5 96.5 L 210.0 99.0 L 209.5 102.5 L 208.5 106.5 L 208.0 110.5 L 207.0 114.0 L 206.5 118.0 L 206.0 121.0 L 205.5 124.5 L 205.0 128.0 L 204.5 132.0 L 204.5 136.0 L 204.5 140.5 L 204.5 144.5 L 204.5 149.0 L 205.0 153.5 L 205.5 158.5 L 205.5 163.0 L 206.0 167.0 L 206.0 170.0 L 206.0 171.0 L 206.0 171.5 L 206.0 170.0 L 206.0 166.5 L 206.5 160.0 L 207.5 152.0 L 208.5 143.0 L 209.5 133.0 L 211.0 125.0 L 212.0 118.0 L 213.0 112.5 L 213.5 110.5 L 213.5 110.0 L 213.5 110.5 L 213.5 111.0 L 214.0 112.0 L 214.0 115.5 L 214.0 121.5 L 214.0 129.5 L 214.0 141.5 L 213.5 155.5 L 213.5 167.5 L 213.5 176.0 L 213.5 181.5 L 213.5 186.5 L 213.5 189.0 L 213.5 189.0 L 213.5 186.5 L 214.0 180.0 L 214.0 171.0 L 214.0 161.0 L 214.0 150.5 L 214.0 142.0 L 214.5 137.0 L 214.5 136.5 L 214.5 137.5 L 214.5 141.0 L 214.5 148.0 L 214.0 159.0 L 213.5 175.0 L 213.5 192.0 L 214.5 202.0 L 215.5 207.0 L 216.0 209.5 L 216.0 209.5 L 216.0 207.0 L 216.0 201.5 L 216.0 194.5 L 215.0 186.5 L 214.5 177.5 L 214.0 169.5 L 213.5 164.5 L 213.0 163.5 L 213.0 164.5 L 213.0 167.5 L 213.0 173.5 L 214.0 182.5 L 215.0 192.0 L 216.5 200.5 L 217.0 204.0 L 217.5 205.0 L 217.5 204.5 L 217.5 203.5 L 217.5 201.5 L 216.5 197.0 L 215.5 191.0 L 214.0 184.5 L 213.0 181.0 L 213.0 180.5 L 213.0 184.5 L 213.5 192.0 L 215.0 200.0 L 216.5 208.5 L 218.0 214.0 L 218.5 216.0 L 218.5 216.0 L 218.5 213.5 L 217.0 209.5 L 215.5 204.0 L 214.0 199.0 L 212.5 195.0 L 211.0 190.5 L 209.0 185.5 L 206.5 180.0 L 204.0 174.5 L 201.0 169.5 L 199.0 167.0 L 198.0 166.5 L 198.0 170.0 L 198.5 177.0 L 200.5 185.5 L 203.0 193.0 L 204.5 197.0 L 205.5 197.5 L 205.5 195.0 L 204.0 189.5 L 201.0 181.0 L 195.5 168.0 L 189.0 153.0 L 184.0 143.5 L 182.0 142.0 L 182.0 144.0 L 184.5 152.0 L 190.0 166.0 L 195.5 180.0 L 199.0 189.0 L 200.0 190.5 L 199.5 189.0 L 198.5 184.5 L 195.5 175.5 L 192.5 164.0 L 190.0 148.0 L 189.0 135.5 L 190.0 129.5 L 190.5 127.5 L 191.0 127.5 L 191.0 129.5 L 191.5 135.5 L 192.0 145.5 L 192.5 156.5 L 193.0 167.5 L 193.5 169.5 L 193.5 165.5 L 194.0 156.0 L 194.0 144.0 L 194.5 130.5 L 196.0 119.5 L 197.5 116.0 L 197.5 116.0 L 197.5 117.5 L 196.5 122.0 L 195.0 129.5 L 193.0 139.5 L 191.0 151.5 L 190.0 157.0 L 190.0 157.0 L 190.0 152.0 L 191.0 144.5 L 192.5 135.5 L 194.0 126.5 L 195.5 121.0 L 196.0 119.0 L 196.0 119.5 L 193.5 123.0 L 188.0 129.0 L 182.0 136.0 L 176.5 142.5 L 173.0 146.5 L 172.0 147.0 L 172.0 147.0 L 172.5 146.0 L 175.0 142.0 L 178.5 136.0 L 182.5 128.5 L 185.5 123.5 L 185.5 122.5 L 182.5 123.5 L 177.0 127.0 L 171.0 133.0 L 164.5 141.0 L 159.5 150.0 L 157.0 155.5 L 157.0 156.0 L 158.0 154.5 L 160.5 151.0 L 164.0 146.0 L 167.5 140.5 L 169.5 137.0 L 170.0 136.0 L 168.0 136.0 L 163.5 138.0 L 157.5 141.0 L 151.5 145.5 L 147.0 149.5 L 144.5 152.5 L 143.5 153.0 L 144.0 153.0 L 146.0 151.5 L 149.0 149.0 L 152.0 145.0 L 154.0 141.5 L 155.0 139.0 L 153.0 138.5 L 148.5 138.5 L 142.5 140.5 L 137.0 143.5 L 133.5 146.5 L 131.5 150.0 L 131.0 152.0 L 132.0 153.0 L 134.0 153.5 L 136.5 153.0 L 139.5 152.0 L 141.5 150.5 L 142.0 149.5 L 142.0 148.5 L 139.0 147.5 L 134.5 147.0 L 130.5 147.5 L 127.5 149.0 L 125.5 151.0 L 125.0 153.5 L 126.0 156.5 L 129.0 158.0 L 131.5 159.0 L 133.5 159.0 L 134.0 159.0 L 134.0 158.0 L 132.0 156.5 L 129.5 154.5 L 126.5 153.0 L 124.0 152.0 L 122.0 152.0 L 120.5 152.5 L 120.5 153.5 L 121.5 155.5 L 125.0 157.5 L 130.0 159.0 L 136.0 160.0 L 141.0 160.0 L 143.5 159.5 L 143.5 159.0 L 143.0 159.0 L 141.5 159.0 L 139.5 158.0 L 137.0 157.5 L 135.5 157.5 L 134.5 157.5 L 135.0 160.5 L 139.5 165.0 L 147.5 169.5 L 157.0 172.5 L 165.5 172.5 L 169.0 172.0 L 170.0 171.0 L 169.0 170.0 L 165.5 168.0 L 161.0 165.5 L 156.0 162.0 L 152.0 160.0 L 149.5 159.5 L 149.5 160.5 L 151.0 164.0 L 154.5 170.5 L 160.5 178.0 L 167.5 183.5 L 174.0 183.5 L 178.0 180.5 L 180.0 176.5 L 180.5 171.0 L 180.0 164.5 L 176.0 157.5 L 171.5 152.5 L 167.5 151.0 L 165.0 152.5 L 163.5 156.5 L 163.5 162.5 L 166.5 171.5 L 172.5 183.5 L 179.5 192.5 L 184.5 194.0 L 187.5 191.5 L 188.5 188.0 L 188.5 183.0 L 187.0 175.5 L 183.5 166.5 L 180.0 157.5 L 177.5 152.0 L 177.0 151.5 L 177.0 153.0 L 176.5 157.0 L 178.0 165.0 L 181.5 176.0 L 186.5 189.0 L 191.0 197.0 L 193.5 198.5 L 194.0 197.5 L 194.0 195.5 L 193.0 191.0 L 189.0 184.5 L 185.0 178.0 L 181.0 172.5 L 179.0 171.0 L 178.5 172.0 L 178.5 174.0 L 180.0 178.5 L 183.5 185.0 L 188.5 192.5 L 194.0 198.0 L 198.0 200.0 L 200.5 200.0 L 201.0 199.5 L 201.0 198.0 L 200.5 195.5 L 198.0 192.0 L 195.0 188.0 L 192.5 186.0 L 191.0 185.5 L 191.0 187.0 L 193.5 192.0 L 197.0 197.5 L 201.5 202.5 L 206.0 206.0 L 210.0 208.0 L 211.5 208.5 L 211.5 209.0 L 211.5 208.0 L 210.5 205.5 L 208.5 202.0 L 207.0 199.0 L 206.0 197.0 L 205.5 196.5 L 205.5 196.5 L 205.5 197.5 L 206.0 197.5 " stroke="black" fill="none" stroke-width="20.0" stroke-linecap="round" stroke-linejoin="round" />
</svg>