<svg xmlns="http://www.w3.org/2000/svg" width="300" height="300" viewBox="0 0 300 300">
<path d="M 147.5 75.5 L 146.5 75.5 L 144.5 75.5 L 142.5 75.5 L 141.0 75.5 L 139.0 75.5 L 137.0 75.5 L 135.0 75.5 L 133.5 76.0 L 131.5 76.5 L 129.5 77.0 L 127.5 78.0 L 126.0 78.5 L 124.0 79.5 L 122.0 81.0 L 120.0 82.0 L 117.5 84.0 L 115.0 86.0 L 112.5 87.5 L 110.0 89.5 L 108.0 91.5 L 106.0 93.0 L 103.5 95.5 L 101.0 97.5 L 98.5 100.0 L 96.0 102.5 L 94.0 105.0 L 92.0 107.5 L 90.0 110.0 L 88.5 113.0 L 87.0 115.5 L 86.0 119.0 L 84.5 122.5 L 83.5 125.5 L 82.5 129.5 L 81.5 132.5 L 80.5 136.5 L 79.5 140.5 L 79.0 144.5 L 78.0 149.0 L 77.5 153.5 L 77.5 158.0 L 77.5 162.0 L 77.5 166.5 L 78.5 170.5 L 80.0 175.0 L 81.5 179.0 L 83.0 182.5 L 85.0 186.5 L 87.0 190.0 L 89.0 193.5 L 91.0 197.0 L 93.5 200.5 L 95.5 203.5 L 98.0 206.5 L 100.5 209.5 L 103.5 212.5 L 106.0 214.5 L 109.0 216.5 L 112.0 218.5 L 115.5 220.0 L 119.0 221.5 L 123.5 222.0 L 127.5 223.0 L 131.5 223.5 L 136.0 223.5 L 140.5 223.5 L 145.0 223.0 L 149.5 222.5 L 153.5 222.0 L 157.0 221.5 L 161.0 221.0 L 165.0 220.0 L 168.5 219.0 L 172.5 217.5 L 176.5 216.0 L 180.5 214.5 L 185.0 212.0 L 189.5 209.5 L 193.5 206.0 L 197.5 202.5 L 201.0 199.0 L 204.0 195.0 L 206.5 191.5 L 208.5 187.0 L 210.0 183.0 L 211.0 178.0 L 212.5 173.5 L 213.5 168.5 L 214.0 164.0 L 214.0 159.5 L 214.0 155.0 L 214.0 151.0 L 214.0 146.0 L 213.0 142.0 L 212.5 137.5 L 211.0 133.0 L 209.5 129.0 L 207.5 124.5 L 205.0 120.0 L 202.0 116.0 L 199.5 111.5 L 196.0 107.5 L 192.5 103.5 L 189.0 99.5 L 185.5 96.0 L 181.5 92.5 L 178.0 89.0 L 174.5 86.0 L 171.0 83.5 L 167.0 81.0 L 163.0 79.0 L 158.5 77.5 L 154.0 76.0 L 149.5 75.5 L 144.5 75.5 L 140.0 75.5 L 135.0 76.0 L 131.0 76.5 L 127.5 77.5 " stroke="black" fill="none" stroke-width="7.0" stroke-linecap="round" stroke-linejoin="round" />
</svg>