<svg xmlns="http://www.w3.org/2000/svg" width="300" height="300" viewBox="0 0 300 300">
<path d="M 68.5 78.5 L 68.5 78.0 L 68.5 77.5 L 68.0 76.5 L 68.0 76.5 L 68.0 76.5 L 68.0 76.5 L 68.5 76.5 L 68.5 77.5 L 69.0 79.5 L 69.5 82.0 L 70.0 85.0 L 70.0 88.5 L 70.5 92.5 L 70.5 96.0 L 70.5 99.5 L 70.5 103.0 L 71.0 106.0 L 71.0 109.0 L 71.0 112.0 L 71.0 115.0 L 71.5 117.5 L 71.5 120.5 L 72.0 123.0 L 72.0 126.0 L 72.0 129.0 L 72.0 132.0 L 72.0 135.0 L 72.0 138.5 L 72.5 141.5 L 72.5 144.5 L 72.5 147.5 L 72.5 150.0 L 72.5 152.5 L 72.5 155.5 L 72.5 158.5 L 72.5 161.5 L 72.5 164.5 L 72.5 167.5 L 72.5 170.0 L 72.5 173.0 L 72.5 175.5 L 72.5 178.5 L 72.5 181.0 L 73.0 183.0 L 73.0 184.5 L 73.0 186.0 L 73.0 188.0 L 73.0 189.5 L 73.0 191.0 L 73.0 192.5 L 73.0 194.5 L 73.0 196.0 L 73.5 198.0 L 73.5 199.5 L 73.5 201.5 L 74.0 203.5 L 74.0 205.0 L 74.0 207.0 L 74.5 208.5 L 74.5 210.0 L 74.5 211.0 L 74.5 212.5 L 74.5 214.0 L 75.0 215.0 L 75.0 215.5 L 75.0 216.0 L 75.0 216.0 L 75.0 217.0 L 75.0 217.5 L 75.0 218.5 L 75.0 219.0 L 75.0 219.5 L 75.0 220.0 L 75.0 221.0 L 75.0 221.0 L 75.5 221.5 L 75.5 221.5 L 75.5 221.5 L 75.5 221.5 L 75.5 221.5 L 75.5 221.5 L 75.5 221.5 L 75.5 221.5 L 75.5 221.5 L 75.5 221.5 L 75.5 221.5 L 75.5 221.5 L 75.5 221.5 L 75.5 221.5 L 75.5 221.5 L 76.0 221.5 L 76.0 221.5 L 76.0 221.5 L 76.0 221.5 L 76.0 221.5 L 76.0 221.5 L 76.0 221.5 L 76.0 221.5 L 76.0 221.5 L 76.5 221.5 L 76.5 221.5 L 76.5 221.5 L 76.5 221.5 L 76.5 221.5 L 76.5 221.5 L 76.5 221.5 L 77.0 221.5 L 77.0 221.5 L 77.0 221.5 L 77.5 221.5 L 78.0 221.5 L 79.5 221.5 L 81.0 221.5 L 83.5 221.5 L 85.5 221.5 L 87.5 221.5 L 89.0 221.5 L 91.0 221.0 L 93.0 221.0 L 95.0 221.0 L 97.0 221.0 L 98.5 221.0 L 100.5 221.0 L 102.0 221.0 L 103.5 221.0 L 105.0 221.5 L 107.0 221.5 L 108.5 221.5 L 110.5 221.5 L 112.5 221.5 L 115.0 221.0 L 117.5 221.0 L 121.0 221.0 L 124.0 221.0 L 127.0 221.0 L 130.5 221.0 L 133.5 221.0 L 136.5 221.0 L 139.5 221.0 L 142.0 221.5 L 144.5 221.5 L 146.5 221.5 L 148.5 221.5 L 150.0 221.5 L 151.5 221.5 L 152.5 221.5 L 153.5 221.5 L 154.0 221.5 L 154.5 221.5 L 154.5 221.5 L 154.5 221.5 L 154.5 221.5 L 154.5 221.5 L 154.5 221.5 L 155.0 221.5 L 155.0 221.5 L 155.5 221.5 L 155.5 221.5 L 156.0 221.5 L 156.5 221.5 L 157.0 221.5 L 157.5 221.5 L 158.5 221.5 L 159.0 221.5 L 160.0 221.5 L 161.0 221.5 L 162.0 221.5 L 162.5 221.5 L 163.5 221.5 L 164.5 221.5 L 165.0 221.5 L 166.0 221.5 L 166.5 221.5 L 167.5 221.5 L 168.0 222.0 L 168.5 222.0 L 169.5 222.0 L 170.0 222.0 L 170.5 222.0 L 171.0 222.0 L 171.5 222.5 L 172.5 222.5 L 172.5 222.5 L 173.0 222.5 L 173.5 222.5 L 174.0 222.5 L 174.5 222.5 L 174.5 222.5 L 174.5 222.5 L 174.5 222.5 L 174.5 222.5 L 174.5 222.5 L 174.5 222.5 L 174.5 222.5 L 174.5 222.5 L 174.5 222.5 L 174.5 222.5 L 174.5 222.5 L 174.5 222.5 L 174.5 222.5 L 174.5 222.5 L 174.5 222.5 L 174.5 222.5 L 174.5 222.5 L 174.5 222.5 L 174.5 222.5 L 174.5 221.5 L 174.5 220.5 L 174.5 219.0 L 174.5 217.5 L 174.5 215.5 L 174.5 213.5 L 174.5 211.5 L 174.5 209.5 L 174.5 207.0 L 174.5 205.0 L 174.5 203.0 L 174.5 201.0 L 174.5 199.0 L 174.5 196.5 L 175.0 193.5 L 175.0 191.0 L 175.0 188.5 L 175.0 185.5 L 175.5 182.5 L 175.5 179.0 L 176.0 176.0 L 176.0 173.5 L 176.0 170.5 L 176.5 167.5 L 176.5 164.0 L 177.0 160.5 L 177.0 157.5 L 177.5 155.0 L 177.5 152.5 L 177.5 150.5 L 177.5 147.5 L 177.5 144.5 L 177.5 141.5 L 177.5 139.0 L 177.5 137.0 L 177.5 134.5 L 177.0 131.5 L 177.0 128.5 L 177.0 126.0 L 177.0 123.5 L 177.0 121.5 L 177.0 119.0 L 177.0 116.5 L 177.0 114.0 L 177.5 111.0 L 178.0 108.5 L 178.0 106.0 L 178.0 103.5 L 178.5 101.5 L 178.5 99.5 L 178.5 97.5 L 179.0 95.5 L 179.0 93.5 L 179.0 92.0 L 179.0 90.0 L 179.5 88.5 L 179.5 86.5 L 179.5 85.0 L 180.0 83.5 L 180.0 82.0 L 180.0 80.5 L 180.5 79.5 L 180.5 78.5 L 180.5 77.5 L 180.5 76.5 L 180.5 76.0 L 180.5 75.5 L 180.5 75.5 L 180.5 75.0 L 180.5 75.0 L 180.5 75.0 L 180.5 75.0 L 180.5 75.0 L 180.5 75.0 L 180.5 75.0 L 180.5 75.5 L 180.5 75.5 L 180.5 75.5 L 180.5 75.5 L 180.5 75.5 L 180.5 75.5 L 180.5 75.5 L 180.5 75.5 L 180.5 75.5 L 180.5 75.5 L 180.5 75.5 L 180.5 75.5 L 180.0 75.5 L 179.5 75.5 L 179.0 75.5 L 178.5 75.5 L 178.0 75.5 L 177.0 76.0 L 175.5 76.0 L 173.5 76.0 L 170.0 76.5 L 165.5 76.5 L 160.5 76.5 L 155.0 76.0 L 150.5 75.5 L 145.5 75.0 L 140.0 74.5 L 134.5 74.0 L 129.5 74.0 L 125.0 74.0 L 120.5 73.5 L 116.0 73.5 L 112.0 73.5 L 108.5 73.5 L 105.5 73.5 L 103.0 73.5 L 101.0 74.0 L 99.0 74.0 L 98.0 74.5 L 97.5 74.5 L 97.0 75.0 L 96.5 75.0 L 95.5 75.5 L 94.5 75.5 L 93.5 75.5 L 92.0 75.5 L 90.5 75.5 L 89.0 76.0 L 88.0 76.0 L 86.5 76.0 L 85.5 76.0 L 84.0 76.0 L 83.0 76.0 L 82.0 76.0 L 81.0 76.0 L 80.0 76.0 L 79.0 76.0 L 78.0 76.0 L 76.5 76.0 L 75.5 76.0 L 74.0 76.0 L 72.5 75.5 L 71.5 75.5 L 71.0 75.5 L 70.5 75.5 L 70.5 75.5 L 70.5 75.5 L 70.5 75.5 L 70.5 75.5 L 71.0 75.5 L 71.0 75.5 L 71.0 75.5 L 71.0 75.5 L 71.0 75.5 L 71.0 77.0 L 71.0 79.5 L 71.0 85.5 L 71.5 95.0 L 72.5 107.0 L 73.0 118.5 L 73.5 126.0 L 74.0 130.5 L 74.0 131.5 L 74.0 131.5 L 74.0 131.5 L 74.0 129.5 L 74.0 124.0 L 74.0 116.5 L 74.5 107.0 L 75.0 97.0 L 76.0 88.5 L 76.5 83.5 L 77.0 82.5 L 77.5 82.0 L 78.0 82.0 L 78.0 82.0 L 78.5 83.0 L 78.5 87.0 L 78.5 95.5 L 77.5 109.5 L 77.0 127.5 L 77.0 139.0 L 77.0 144.5 L 77.0 145.0 L 77.0 144.0 L 77.0 139.5 L 77.0 131.0 L 77.0 120.0 L 78.0 107.0 L 79.0 94.0 L 79.5 87.5 L 79.5 86.5 L 79.5 87.5 L 79.5 88.5 L 79.5 94.0 L 78.5 104.5 L 77.0 119.5 L 76.0 140.0 L 75.0 159.5 L 75.0 172.0 L 75.5 179.0 L 76.0 180.5 L 76.5 177.0 L 76.5 168.5 L 76.0 155.0 L 75.5 139.5 L 76.0 121.0 L 78.0 107.0 L 80.0 103.0 L 80.5 103.5 L 80.5 107.5 L 80.5 118.0 L 80.0 135.5 L 79.0 159.0 L 78.5 179.5 L 78.5 191.0 L 78.5 194.0 L 79.0 191.0 L 79.0 182.5 L 78.5 174.0 " stroke="black" fill="none" stroke-width="6.0" stroke-linecap="round" stroke-linejoin="round" />
<path d="M 101.5 102.5 L 101.5 103.5 L 102.0 108.0 L 103.5 119.5 L 106.0 138.5 L 108.5 158.5 L 111.0 173.5 L 113.0 178.5 L 113.5 179.5 L 113.5 179.0 L 113.0 174.5 L 112.0 163.5 L 110.5 149.0 L 109.0 134.5 L 109.0 121.0 L 108.5 112.5 L 108.5 109.5 L 108.0 108.5 L 108.0 108.5 L 108.0 108.5 L 108.0 109.5 L 107.0 116.5 L 105.0 131.0 L 103.5 156.0 L 104.0 181.0 L 105.5 192.0 L 105.5 193.0 L 105.5 189.5 L 105.0 179.5 L 103.0 163.0 L 100.5 140.5 L 99.5 115.0 L 98.0 98.0 L 96.5 93.0 L 96.0 93.5 L 94.5 97.5 L 92.5 112.0 L 91.0 133.5 L 91.5 159.5 L 94.0 176.5 L 94.0 178.0 L 94.0 176.0 L 94.0 169.5 L 93.0 155.5 L 92.5 135.0 L 92.0 111.0 L 92.0 98.5 L 92.0 96.0 L 91.0 97.5 L 89.5 100.5 L 87.0 108.0 L 84.5 122.5 L 83.0 142.0 L 83.0 166.0 L 85.5 179.5 L 86.5 179.5 L 87.0 173.0 L 87.0 159.5 L 86.5 142.5 L 85.5 119.5 L 84.5 99.5 L 83.5 94.0 L 83.0 95.5 L 82.0 98.5 L 81.0 104.5 L 80.0 114.5 L 79.5 127.5 L 80.0 139.0 L 81.5 145.5 L 82.5 145.0 L 82.5 140.0 L 82.5 131.0 L 82.5 119.0 L 81.5 106.0 L 80.5 96.5 L 80.0 93.5 L 79.0 94.0 L 79.0 94.5 L 78.5 95.0 L 78.5 95.0 L 78.0 95.0 L 77.0 95.0 L 76.0 95.5 L 76.0 95.5 L 75.5 94.5 L 75.0 91.5 L 74.5 89.0 L 74.5 87.5 L 74.5 87.0 L 74.5 86.5 L 75.0 86.0 L 75.5 85.5 L 75.5 85.0 L 75.5 85.0 L 75.5 85.0 L 76.0 85.0 L 76.0 85.0 L 76.0 85.0 L 76.0 85.0 L 76.5 85.0 L 77.0 85.0 L 78.5 85.0 L 80.5 84.5 L 82.5 84.0 L 84.5 84.0 L 86.0 84.0 L 88.0 84.0 L 90.0 84.0 L 92.0 84.0 L 94.5 84.5 L 96.5 85.0 L 99.0 85.0 L 101.5 85.5 L 104.0 85.5 L 106.0 85.5 L 108.0 85.5 L 110.0 85.0 L 112.0 85.0 L 113.5 84.5 L 116.0 84.5 L 118.0 84.0 L 120.5 84.0 L 122.5 84.0 L 125.0 84.0 L 127.0 84.0 L 129.5 84.0 L 131.5 83.5 L 134.0 83.5 L 136.5 83.5 L 139.0 83.5 L 142.5 83.5 L 145.0 83.5 L 147.5 84.0 L 149.5 84.5 L 151.0 85.0 L 153.0 85.0 L 154.5 85.5 L 156.5 85.5 L 158.0 85.5 L 160.0 85.5 L 161.5 85.5 L 163.5 85.0 L 165.5 85.0 L 167.0 84.5 L 168.0 84.5 L 168.5 84.5 L 169.0 84.5 L 169.5 84.5 L 170.0 84.0 L 171.0 83.5 L 172.0 83.5 L 172.5 83.5 L 173.0 83.5 L 173.0 83.0 L 173.0 83.0 L 173.0 83.0 L 173.0 83.0 L 173.0 83.0 L 173.0 83.0 L 172.0 83.0 L 171.0 83.0 L 169.0 83.0 L 165.5 83.0 L 161.5 83.0 L 157.0 83.0 L 153.5 83.0 L 149.5 82.5 L 146.5 82.0 L 143.5 81.0 L 140.5 81.0 L 137.5 81.0 L 134.5 81.0 L 131.5 81.0 L 128.5 81.0 L 126.0 81.0 L 123.5 81.5 L 121.0 81.5 L 119.0 81.5 L 117.0 81.5 L 114.5 81.0 L 112.5 81.0 L 110.5 81.0 L 108.0 81.0 L 106.5 81.0 L 105.0 81.0 L 104.0 81.0 L 103.5 81.0 L 102.5 81.0 L 102.0 81.0 L 101.5 82.0 L 101.0 84.0 L 101.0 87.5 L 100.5 93.0 L 99.5 102.0 L 97.0 115.0 L 93.5 131.5 L 91.0 148.0 L 90.0 160.5 L 90.0 167.5 L 90.5 170.5 L 90.5 171.0 L 90.5 170.5 L 90.5 166.0 L 90.5 155.5 L 90.5 142.5 L 90.5 129.5 L 90.5 123.0 L 90.5 124.0 L 90.0 127.0 L 88.0 134.5 L 86.0 148.0 L 84.0 167.0 L 83.0 186.5 L 82.5 198.5 L 83.0 202.5 L 83.5 202.5 L 84.0 200.0 L 84.0 193.5 L 84.0 183.0 L 84.5 172.0 L 85.5 160.0 L 86.0 152.5 L 86.0 151.0 L 85.5 152.5 L 84.0 158.0 L 82.5 168.5 L 81.0 181.0 L 80.0 194.5 L 80.0 203.5 L 80.5 207.5 L 80.5 207.5 L 80.5 206.5 L 80.5 203.0 L 80.5 197.0 L 81.5 190.0 L 83.0 181.5 L 85.5 174.0 L 86.5 172.5 L 86.0 174.0 L 84.5 180.5 L 83.5 191.0 L 82.5 202.0 L 82.5 210.0 L 83.5 212.0 L 84.5 210.5 L 85.5 204.5 L 86.0 194.5 L 88.0 184.0 L 90.0 174.5 L 92.0 169.5 L 92.5 168.5 L 92.0 171.0 L 90.5 179.0 L 89.0 191.5 L 88.5 206.5 L 89.0 216.0 L 90.0 217.5 L 91.0 213.5 L 91.5 205.0 L 93.0 193.0 L 95.0 178.5 L 97.0 168.5 L 98.5 165.5 L 98.5 166.0 L 98.5 168.0 L 98.0 175.0 L 97.5 187.0 L 97.5 200.0 L 98.5 210.5 L 100.0 214.0 L 100.5 212.5 L 101.5 208.5 L 102.5 200.0 L 104.0 188.5 L 105.5 175.0 L 106.5 167.5 L 107.0 167.5 L 106.5 170.5 L 105.5 177.5 L 104.5 188.0 L 104.5 200.5 L 106.0 211.5 L 107.5 214.0 L 109.0 212.5 L 110.0 207.0 L 110.5 197.5 L 112.0 184.5 L 114.5 170.5 L 116.0 164.5 L 116.5 165.0 L 115.5 168.5 L 114.0 177.0 L 113.5 190.0 L 114.0 204.5 L 116.0 213.0 L 118.0 213.5 L 118.5 209.5 L 119.0 201.5 L 119.5 190.5 L 120.0 177.5 L 120.5 168.0 L 121.0 165.5 L 121.0 167.0 L 121.0 170.5 L 121.0 180.0 L 121.5 193.5 L 123.5 206.5 L 125.5 214.0 L 126.5 214.0 L 127.0 210.0 L 127.0 202.0 L 127.0 191.5 L 127.5 179.5 L 129.0 168.0 L 129.5 164.5 L 129.5 166.0 L 129.0 171.5 L 128.5 182.5 L 128.5 196.5 L 130.5 212.0 L 133.0 218.0 L 134.5 216.0 L 135.0 209.5 L 135.0 198.5 L 135.0 186.0 L 135.0 173.0 L 137.5 166.5 L 138.5 166.0 L 138.5 168.0 L 138.5 172.5 L 138.0 182.5 L 139.0 197.0 L 142.0 213.5 L 144.0 220.0 L 145.0 219.0 L 145.5 213.5 L 145.5 204.0 L 145.5 191.5 L 145.5 177.0 L 147.5 167.0 L 149.0 164.0 L 149.0 165.5 L 149.0 169.0 L 149.0 178.0 L 149.5 191.0 L 151.0 204.5 L 153.0 213.0 L 154.0 213.0 L 154.5 210.5 L 155.0 203.5 L 155.0 193.5 L 155.5 182.0 L 157.5 171.5 L 159.5 168.5 L 160.0 169.0 L 160.0 171.5 L 159.0 178.5 L 158.5 189.5 L 159.0 203.0 L 161.0 214.0 L 161.5 215.0 L 162.0 211.5 L 162.5 204.0 L 162.5 195.0 L 163.0 184.0 L 163.5 175.5 L 164.5 173.5 L 164.5 173.5 L 164.5 174.5 L 164.5 177.5 L 164.5 185.5 L 164.5 197.5 L 165.0 209.5 L 166.0 215.5 L 166.5 215.0 L 167.0 212.0 L 167.0 204.5 L 167.0 195.0 L 167.0 184.5 L 167.0 175.5 L 168.0 171.0 L 168.0 169.0 L 168.0 169.0 L 168.0 170.0 L 168.0 173.5 L 168.0 180.0 L 168.0 187.5 L 167.5 195.5 L 167.5 201.5 L 167.5 203.5 L 168.0 202.5 L 168.5 198.0 L 168.5 189.5 L 169.0 179.0 L 169.5 164.0 L 170.0 150.0 L 171.0 142.5 L 172.0 140.5 L 172.0 141.0 L 172.0 146.5 L 171.5 158.0 L 170.5 170.5 L 170.0 179.0 L 170.0 181.5 L 170.0 178.5 L 170.0 172.5 L 170.0 162.0 L 169.5 147.0 L 169.5 130.0 L 170.5 119.0 L 171.5 114.0 L 171.5 113.5 L 171.5 114.0 L 171.5 118.0 L 170.5 129.0 L 169.5 142.5 L 169.0 154.0 L 169.0 157.0 L 169.0 155.5 L 169.0 150.0 L 169.0 140.5 L 169.0 127.0 L 169.5 110.5 L 170.5 99.0 L 171.0 95.0 L 171.0 95.5 L 171.0 98.5 L 170.5 107.0 L 169.5 122.0 L 168.5 138.0 L 167.5 150.0 L 167.5 152.0 L 167.5 150.0 L 167.5 144.0 L 168.0 133.0 L 168.5 119.5 L 169.5 103.5 L 170.5 93.5 L 170.5 92.0 L 170.5 93.0 L 170.5 96.0 L 169.0 104.5 L 166.5 121.0 L 164.5 143.5 L 162.5 163.0 L 161.5 169.5 L 161.5 169.0 L 161.5 165.5 L 161.5 156.0 L 162.0 142.5 L 162.5 124.0 L 164.5 102.0 L 166.0 91.5 L 166.0 91.5 L 165.0 94.5 L 162.5 102.5 L 159.5 118.0 L 156.5 140.0 L 155.0 160.5 L 154.5 168.5 L 154.5 167.5 L 154.5 163.5 L 155.0 153.0 L 155.5 137.0 L 155.5 117.5 L 155.5 102.0 L 155.5 97.5 L 155.0 99.5 L 153.0 104.5 L 150.5 117.5 L 148.0 137.0 L 145.5 157.5 L 144.0 164.0 L 144.0 161.5 L 145.0 155.5 L 145.5 142.5 L 146.0 126.0 L 144.5 108.5 L 143.0 99.5 L 141.0 100.5 L 138.0 107.0 L 134.0 120.5 L 131.0 137.0 L 129.0 150.5 L 129.0 153.5 L 129.5 150.5 L 130.5 142.5 L 131.0 128.5 L 131.0 111.0 L 130.5 94.5 L 130.0 88.5 L 129.5 89.0 L 128.0 91.5 L 125.5 101.0 L 122.5 117.0 L 119.0 136.5 L 117.5 147.0 L 117.5 146.0 L 117.5 142.5 L 117.5 134.0 L 117.5 121.0 L 117.0 107.5 L 116.5 96.5 L 116.0 92.0 L 114.5 92.5 L 112.5 97.5 L 110.0 108.5 L 108.0 123.5 L 107.0 138.0 L 107.5 142.0 L 108.0 139.5 L 109.0 133.5 L 109.5 122.5 L 109.5 109.0 L 110.0 96.5 L 111.0 92.0 L 111.0 93.0 L 111.0 96.5 L 110.0 106.0 L 109.0 121.5 L 109.0 140.0 L 110.5 149.5 L 113.0 150.0 L 115.5 145.5 L 119.0 137.0 L 123.0 125.0 L 127.0 112.0 L 131.0 102.5 L 133.5 99.5 L 133.5 100.5 L 133.0 106.5 L 131.0 120.0 L 130.0 138.0 L 130.0 153.5 L 130.0 162.5 L 131.0 163.5 L 132.0 158.5 L 133.5 147.5 L 135.0 131.5 L 137.5 114.5 L 142.0 101.5 L 144.0 98.0 L 144.0 99.5 L 141.5 106.5 L 138.0 119.0 L 135.0 134.0 L 133.0 154.5 L 132.5 170.5 L 133.0 176.0 L 133.0 175.0 L 134.0 170.0 L 135.5 157.0 L 138.0 139.0 L 142.5 115.5 L 146.0 99.0 L 147.0 95.0 L 147.0 96.0 L 145.5 98.0 L 142.5 104.0 L 138.5 114.5 L 134.5 128.5 L 131.0 144.0 L 129.0 155.0 L 129.0 156.5 L 129.0 154.0 L 129.5 146.0 L 130.0 131.5 L 131.0 114.0 L 133.0 99.0 L 133.0 96.0 L 132.5 99.0 L 129.0 107.0 L 124.5 121.5 L 119.0 141.0 L 114.5 160.5 L 113.0 173.0 L 112.5 178.0 L 114.0 177.5 L 116.0 173.5 L 117.5 165.0 L 118.5 152.5 L 119.5 140.5 L 119.5 132.5 L 119.5 132.5 L 118.5 136.0 L 115.5 142.5 L 112.5 153.5 L 109.5 167.0 L 107.5 180.0 L 107.5 185.5 L 107.5 184.5 L 109.0 180.5 L 110.0 174.5 L 110.0 168.5 L 110.0 165.0 L 108.5 165.0 L 105.5 169.0 L 102.0 175.5 L 98.5 183.5 L 95.5 189.0 L 94.5 192.5 L 94.0 193.0 L 93.5 193.5 L 93.0 193.5 L 92.5 194.0 L 92.0 194.5 L 91.0 195.5 L 90.0 197.0 L 89.5 198.5 L 88.5 201.0 L 87.5 203.0 L 86.5 205.0 L 86.0 206.5 L 85.5 207.5 L 84.5 208.5 L 84.5 209.5 L 84.0 210.0 L 83.5 210.0 L 83.5 210.0 L 83.5 210.5 L 83.0 210.5 L 83.0 211.0 L 82.5 211.5 L 82.5 212.0 L 82.5 213.0 L 82.0 213.0 L 82.0 213.5 L 82.0 214.0 L 82.0 214.5 L 81.5 215.0 L 81.5 215.5 L 81.5 215.5 L 81.0 216.0 L 81.0 216.5 L 81.0 217.0 L 81.0 217.0 L 80.5 217.5 L 80.5 217.5 L 80.5 218.0 L 80.0 218.0 L 80.0 218.5 L 80.0 218.5 L 80.0 218.5 L 80.0 218.5 L 80.0 219.0 L 79.5 219.0 L 79.5 219.0 L 79.5 219.0 L 79.5 219.0 L 79.5 219.5 L 79.5 219.5 L 79.5 219.5 L 79.0 220.0 L 79.0 220.0 L 79.0 220.0 L 79.0 220.0 L 79.0 220.0 L 79.0 220.0 L 79.0 220.5 L 79.0 220.5 L 79.0 220.5 L 79.0 220.5 L 79.0 220.5 L 79.0 220.5 L 79.5 220.5 L 80.0 220.5 L 80.5 220.0 L 81.5 220.0 L 82.5 220.0 L 83.0 220.0 L 84.0 220.0 L 85.0 220.0 L 86.0 220.0 L 86.5 220.0 L 87.5 220.0 L 88.0 220.0 L 89.0 220.0 L 89.5 220.5 L 90.5 220.5 L 91.0 220.5 L 92.0 220.5 L 92.5 221.0 L 93.0 221.0 L 94.0 221.0 L 95.0 221.0 L 95.5 221.0 L 96.5 221.5 L 97.5 221.5 L 98.5 221.5 L 99.5 221.5 L 100.5 221.5 L 102.0 222.0 L 103.0 222.0 L 104.0 222.0 L 105.0 222.5 L 106.0 222.5 L 106.5 222.5 L 107.5 222.5 L 108.5 222.5 L 109.5 222.5 L 111.0 222.5 L 112.0 222.5 L 113.0 223.0 L 114.5 223.0 L 115.5 223.0 L 117.0 223.0 L 118.5 223.0 L 120.0 223.0 L 121.0 223.0 L 122.5 223.0 L 124.0 223.0 L 125.5 223.0 L 127.0 223.0 L 128.5 223.0 L 130.0 223.0 L 131.5 223.0 L 132.5 223.0 L 134.0 222.5 L 135.5 222.5 L 137.0 222.5 L 139.0 222.0 L 140.5 222.0 L 142.5 221.5 L 144.0 221.5 L 145.5 221.5 L 147.0 221.5 L 148.5 221.5 L 150.0 221.5 L 151.5 221.5 L 153.0 221.0 L 154.0 221.0 L 155.5 220.5 L 156.5 220.5 L 157.5 220.5 L 159.0 220.5 L 160.0 220.5 L 161.0 220.5 L 162.5 220.5 L 163.5 220.5 L 164.5 220.5 L 165.5 220.5 L 166.5 220.5 L 167.5 220.0 L 168.0 220.0 L 169.0 220.0 L 169.5 220.0 L 169.5 220.0 L 170.0 220.0 L 170.0 219.5 L 170.5 219.5 L 171.0 219.5 L 171.0 219.5 L 171.5 219.5 L 171.5 219.5 L 171.5 219.5 L 172.0 219.5 L 172.0 219.0 L 172.0 219.0 L 172.5 219.0 L 172.5 219.0 L 172.5 219.0 L 172.5 219.0 L 172.5 219.0 L 172.5 219.0 L 172.5 219.0 L 172.0 218.5 L 171.5 217.5 L 170.5 216.5 L 169.5 215.5 L 168.5 213.5 L 167.5 211.0 L 166.5 208.0 L 165.0 204.0 L 163.5 198.5 L 162.0 192.0 L 160.5 185.0 L 159.0 178.0 L 157.0 170.5 L 155.0 162.5 L 154.0 154.5 L 153.0 145.0 L 153.0 135.0 L 152.5 126.0 L 152.5 119.0 L 152.5 113.5 L 152.0 108.5 L 152.0 104.0 L 152.0 101.0 L 152.0 99.5 L 151.0 98.0 L 150.5 97.5 L 149.0 97.5 L 147.5 97.0 L 145.5 96.5 L 142.5 96.0 L 139.0 96.0 L 137.0 96.0 L 136.5 95.0 L 136.5 93.5 L 137.5 91.0 L 138.5 89.5 L 139.0 88.5 L 139.0 88.5 L 138.0 89.5 L 136.0 93.0 L 133.5 96.5 L 132.0 99.5 L 131.5 100.0 L 131.5 100.0 L 133.0 98.5 L 134.5 96.0 L 135.5 95.0 L 136.0 94.0 L 136.5 94.0 L 135.0 95.5 L 131.5 100.0 L 127.0 108.0 L 120.5 118.5 L 115.0 128.5 L 112.5 132.5 L 111.5 134.0 L 110.0 135.5 L 108.5 138.0 L 106.5 141.5 L 103.5 145.5 L 100.0 150.0 L 97.5 154.0 L 95.5 158.5 L 94.5 162.5 L 93.5 166.5 L 92.5 170.0 L 91.0 174.0 L 90.0 178.0 L 89.0 182.0 L 87.5 185.5 L 86.5 189.0 L 86.0 192.5 L 85.5 195.0 L 85.0 197.5 L 84.5 199.5 L 84.5 201.5 L 84.5 202.5 L 84.5 204.0 L 84.5 205.5 L 84.5 207.0 L 84.0 208.5 L 84.0 210.0 L 83.5 210.5 L 83.5 211.0 L 83.5 211.5 L 83.5 212.0 L 83.5 212.5 L 83.5 212.5 L 83.5 213.0 L 83.5 213.0 L 83.5 213.0 L 83.5 213.0 L 83.5 213.0 L 83.5 213.0 L 83.5 213.0 " stroke="black" fill="none" stroke-width="14.0" stroke-linecap="round" stroke-linejoin="round" />
</svg>