<svg xmlns="http://www.w3.org/2000/svg" width="300" height="300" viewBox="0 0 300 300">
<path d="M 89.0 147.0 L 90.0 147.0 L 90.5 147.0 L 91.0 147.0 L 92.0 147.0 L 93.5 146.5 L 100.0 146.0 L 105.5 145.0 L 112.5 144.5 L 119.5 144.0 L 126.5 143.5 L 133.5 143.0 L 140.0 142.5 L 147.0 142.5 L 153.5 142.5 L 160.0 142.5 L 165.5 142.0 L 171.0 142.0 L 175.5 142.0 L 179.0 142.0 L 181.5 142.0 L 183.0 142.0 L 183.5 142.0 L 183.5 142.0 L 183.5 142.0 L 183.0 142.0 L 183.0 142.0 L 183.0 142.0 L 183.0 142.0 L 183.0 142.0 L 183.0 142.0 L 183.0 142.0 L 182.5 142.0 " stroke="black" fill="none" stroke-width="10.0" stroke-linecap="round" stroke-linejoin="round" />
<path d="M 184.0 118.5 L 184.0 118.0 L 184.0 117.5 L 184.0 117.5 L 184.0 117.0 L 184.0 117.0 L 184.0 117.0 L 184.0 117.5 L 184.0 119.0 L 184.5 123.5 L 185.5 131.0 L 187.0 141.0 L 188.5 150.0 L 189.5 156.0 L 190.5 160.0 L 190.5 162.0 L 190.5 162.0 L 190.5 162.0 L 190.0 161.5 L 189.5 159.0 L 188.5 155.5 L 188.5 150.5 L 188.5 144.5 L 189.0 137.5 L 189.5 129.5 L 190.0 123.0 L 189.5 119.0 L 189.0 118.0 L 188.5 118.0 L 188.5 118.0 L 188.5 118.5 L 188.5 118.5 L 188.5 119.0 L 188.5 119.5 L 188.5 120.5 L 189.5 122.0 L 191.0 124.5 L 193.5 127.5 L 197.0 131.0 L 202.0 135.0 L 207.0 138.0 L 211.0 141.0 L 213.5 143.0 L 214.5 144.0 L 215.0 144.5 L 215.0 144.5 L 215.0 144.5 L 214.5 144.5 L 214.5 144.5 L 214.5 144.5 L 214.5 144.5 L 214.5 144.5 L 214.5 144.5 L 214.5 144.5 L 214.0 144.5 L 212.5 145.0 L 210.5 146.5 L 206.5 149.0 L 200.5 153.5 L 194.5 158.0 L 190.5 162.0 L 189.0 164.0 L 188.5 164.5 L 189.0 164.5 L 189.5 164.0 L 191.5 162.0 L 194.0 159.0 L 197.0 156.5 L 200.5 153.0 L 204.5 149.5 L 207.5 147.0 L 208.0 146.0 L 208.0 146.0 L 207.0 147.0 L 205.0 149.0 L 202.0 151.5 L 198.0 155.0 L 194.0 159.0 L 190.5 163.0 L 189.0 164.5 L 189.0 164.5 L 190.5 162.0 L 192.5 158.0 L 195.0 152.5 L 197.5 146.0 L 200.0 140.0 L 200.5 136.0 L 200.5 135.5 L 199.0 136.5 L 196.5 139.5 L 194.0 144.5 L 192.0 150.0 L 191.0 153.5 L 190.5 155.0 L 191.0 154.5 L 192.5 151.5 L 194.5 147.5 L 196.0 143.0 L 197.5 138.0 L 198.5 135.5 L 198.5 135.0 L 198.0 136.5 L 196.5 141.0 L 195.5 145.5 L 194.0 150.0 L 193.5 153.0 L 193.0 153.0 L 193.0 151.5 L 194.0 147.0 L 194.5 141.0 L 194.5 135.5 L 194.0 131.5 L 193.0 130.5 L 192.5 130.5 L 192.0 131.0 L 191.5 132.0 L 191.0 134.5 L 191.0 138.5 L 191.0 142.0 L 191.0 145.0 L 191.5 147.0 L 192.0 147.0 L 192.0 146.5 L 192.0 146.5 " stroke="black" fill="none" stroke-width="10.0" stroke-linecap="round" stroke-linejoin="round" />
</svg>