<svg xmlns="http://www.w3.org/2000/svg" width="300" height="300" viewBox="0 0 300 300">
<path d="M 154.0 97.0 L 154.0 97.0 L 154.5 96.5 L 155.0 96.0 L 155.0 95.5 L 155.0 95.0 L 155.0 95.0 L 155.0 95.0 L 155.0 95.5 L 154.0 98.0 L 152.0 101.5 L 149.5 107.0 L 145.5 114.5 L 141.5 121.5 L 137.0 127.5 L 134.5 132.0 L 133.0 134.5 L 132.5 136.0 L 132.0 136.5 L 132.0 136.5 L 132.0 136.5 L 132.0 136.5 L 131.5 137.0 L 131.5 137.0 L 131.5 137.5 L 131.0 137.5 L 131.0 137.5 L 131.0 137.5 L 131.0 137.5 L 131.0 137.5 L 131.0 138.0 L 131.0 138.5 L 131.0 139.0 L 131.5 140.5 L 132.5 143.0 L 133.5 147.0 L 135.5 152.5 L 138.5 159.5 L 141.5 166.5 L 144.5 173.0 L 147.0 178.0 L 149.0 182.0 L 150.5 186.0 L 152.0 190.0 L 153.0 192.0 L 153.5 192.5 L 154.0 193.0 L 154.0 193.0 L 154.5 193.5 L 154.5 194.0 L 154.5 194.0 " stroke="black" fill="none" stroke-width="7.0" stroke-linecap="round" stroke-linejoin="round" />
</svg>