<svg xmlns="http://www.w3.org/2000/svg" width="300" height="300" viewBox="0 0 300 300">
<path d="M 114.0 178.5 L 114.0 178.5 L 114.0 178.5 L 114.5 178.5 L 114.5 178.5 L 115.5 178.5 L 117.5 179.5 L 121.5 185.0 L 127.0 194.0 L 132.0 204.0 L 136.0 211.0 L 138.0 214.5 L 139.0 215.5 L 139.0 215.5 L 139.0 215.0 L 138.5 213.0 L 138.0 209.0 L 138.0 202.5 L 139.5 193.5 L 144.0 180.5 L 151.0 165.5 L 159.0 151.5 L 168.0 138.0 L 177.0 125.5 L 187.0 115.5 L 196.0 108.5 L 202.0 104.0 L 206.5 102.5 L 208.5 101.5 L 209.0 101.5 L 209.5 101.5 L 210.0 102.0 L 210.0 102.5 " stroke="black" fill="none" stroke-width="9.0" stroke-linecap="round" stroke-linejoin="round" />
</svg>