<svg xmlns="http://www.w3.org/2000/svg" width="300" height="300" viewBox="0 0 300 300">
<path d="M 95.5 140.5 L 95.5 140.5 L 95.5 139.5 L 95.5 138.5 L 95.5 138.0 L 95.5 138.0 L 95.5 138.0 L 95.5 138.0 L 96.0 140.0 L 96.5 143.0 L 96.5 145.5 L 97.0 147.5 L 97.0 148.5 L 97.0 149.0 L 97.0 149.0 L 97.0 149.0 L 96.5 147.5 L 96.5 146.0 L 96.5 144.0 L 96.5 142.0 L 96.5 140.5 L 96.5 139.5 L 96.5 139.0 L 96.5 138.5 L 96.5 138.0 L 96.5 138.0 L 97.0 138.0 L 97.5 138.0 L 98.5 138.0 L 100.0 138.0 L 103.5 138.0 L 108.5 138.0 L 114.5 138.0 L 120.5 138.0 L 127.0 138.0 L 132.5 138.0 L 137.0 138.0 L 141.5 137.5 L 145.5 137.5 L 149.5 137.5 L 153.5 137.5 L 158.0 136.5 L 162.5 136.0 L 166.0 136.0 L 168.5 136.5 L 169.5 137.0 L 170.0 137.0 L 170.0 137.0 L 169.5 137.0 L 169.5 137.0 L 169.5 137.0 L 169.0 137.0 L 169.0 137.0 L 169.0 137.0 L 169.0 137.0 L 169.0 137.0 L 169.0 137.0 L 169.0 137.0 L 169.0 137.0 L 169.0 137.0 L 169.0 137.0 L 169.0 137.0 L 169.0 137.0 L 169.0 137.0 L 169.0 137.0 L 169.0 137.0 L 169.0 138.0 L 169.0 139.5 L 168.5 142.5 L 168.5 145.0 L 168.5 147.5 L 168.5 148.5 L 168.5 149.5 L 168.5 150.0 L 168.5 150.5 L 168.5 150.5 L 168.5 150.5 L 168.5 150.5 L 168.5 150.5 L 168.5 150.5 L 168.5 150.5 L 168.5 150.0 L 168.0 150.0 L 167.0 150.0 L 165.5 150.0 L 163.0 150.0 L 160.5 150.5 L 157.5 150.5 L 155.0 150.5 L 152.0 151.0 L 149.0 151.0 L 146.5 151.0 L 143.5 151.0 L 140.5 151.0 L 137.0 151.0 L 134.0 151.0 L 131.0 151.0 L 128.0 151.0 L 125.0 151.0 L 121.5 150.5 L 117.0 150.5 L 113.0 150.5 L 108.5 150.5 L 105.0 150.5 L 102.0 150.0 L 99.5 149.5 L 98.0 149.0 L 97.5 149.0 L 97.5 149.0 L 97.5 149.0 L 98.0 149.0 L 99.5 149.0 L 103.0 149.0 L 107.5 148.5 L 114.0 147.5 L 123.0 146.0 L 131.5 144.5 L 138.0 143.0 L 141.5 142.5 L 142.0 142.5 L 142.0 142.5 L 141.5 142.5 L 139.5 142.5 L 136.5 142.5 L 132.5 142.5 L 128.0 142.0 L 121.5 142.0 L 115.0 142.5 L 110.5 142.5 L 109.5 143.0 L 113.5 144.0 L 121.0 146.0 L 130.0 148.0 L 141.0 148.5 L 152.5 148.5 L 160.5 148.0 L 164.5 148.0 L 165.5 148.0 L 165.0 148.0 L 162.5 147.5 L 158.0 147.0 L 152.5 146.5 L 147.0 146.0 L 142.5 145.5 L 139.5 145.5 L 139.0 145.5 L 141.0 145.0 L 145.5 144.5 L 152.5 144.0 L 160.0 143.0 L 167.0 142.0 L 170.5 141.0 L 171.0 141.0 L 170.0 141.0 L 168.5 141.0 L 165.5 141.5 L 161.5 142.0 L 158.0 142.5 L 154.5 143.0 L 151.5 143.5 L 150.5 144.0 L 150.5 144.5 L 152.5 144.5 L 155.5 144.5 L 157.0 144.0 L 158.0 144.0 L 158.5 143.5 L 155.5 143.0 L 149.5 142.5 L 140.5 141.5 L 131.0 140.5 L 124.0 140.5 L 118.5 141.0 L 115.0 142.5 L 113.0 143.0 L 112.0 143.5 L 111.0 143.5 L 110.0 143.5 L 109.5 144.0 L 108.0 144.5 L 106.5 145.5 L 105.0 145.5 L 103.5 146.0 L 102.0 146.0 L 101.0 146.0 L 100.5 145.5 L 100.5 145.5 L 101.0 144.5 L 105.0 142.5 " stroke="black" fill="none" stroke-width="10.0" stroke-linecap="round" stroke-linejoin="round" />
<path d="M 169.0 124.5 L 169.0 124.0 L 168.5 124.0 L 168.5 124.0 L 168.5 124.0 L 168.5 124.5 L 168.5 126.5 L 169.5 129.5 L 169.5 133.5 L 170.0 137.5 L 170.5 142.0 L 170.5 146.0 L 171.0 149.0 L 171.0 150.5 L 171.0 152.0 L 171.0 153.5 L 171.0 155.0 L 171.0 156.5 L 171.0 157.5 L 171.0 158.0 L 171.0 158.5 L 171.0 159.0 L 171.0 159.5 L 171.0 159.5 L 171.0 159.5 L 171.0 159.5 L 171.0 159.0 L 171.5 156.5 L 171.5 152.5 L 171.5 146.5 L 171.5 139.0 L 171.5 132.5 L 171.5 128.0 L 171.5 124.5 L 171.5 122.0 L 171.5 121.0 L 171.5 120.5 L 171.5 120.5 L 171.5 120.5 L 171.5 120.5 L 171.5 120.5 L 171.5 120.5 L 171.5 121.0 L 171.5 121.0 L 172.0 121.0 L 172.5 122.0 L 173.5 123.0 L 175.0 124.5 L 177.0 126.5 L 180.0 129.0 L 182.5 131.0 L 185.0 133.0 L 187.0 134.5 L 188.5 135.5 L 190.0 136.5 L 190.5 137.0 L 191.5 137.5 L 192.0 138.0 L 193.0 138.5 L 194.0 139.0 L 195.0 139.5 L 195.5 139.5 L 195.5 139.5 L 195.5 139.5 L 195.5 139.5 L 195.5 139.5 L 195.5 139.5 L 195.5 139.5 L 195.5 139.5 L 195.5 139.5 L 195.5 139.5 L 195.5 139.5 L 195.5 140.0 L 195.0 140.5 L 194.5 141.0 L 193.5 142.0 L 191.0 144.0 L 188.5 146.5 L 185.0 149.0 L 181.5 151.0 L 179.0 153.0 L 176.5 155.0 L 175.0 156.5 L 173.5 157.5 L 172.5 159.0 L 172.0 159.5 L 171.5 159.5 L 171.5 160.0 L 171.5 160.0 L 171.5 160.0 L 171.5 160.0 L 171.5 160.0 L 171.5 160.0 L 171.5 160.0 L 172.0 159.0 L 172.5 157.5 L 174.0 154.0 L 176.0 148.5 L 177.5 142.5 L 178.5 137.5 L 178.5 135.0 L 178.0 134.0 L 177.5 134.0 L 177.5 134.0 L 177.5 134.5 L 177.5 136.0 L 177.5 138.5 L 177.5 143.0 L 177.5 148.0 L 178.0 151.5 L 178.0 153.0 L 178.0 153.0 L 178.5 150.5 L 178.5 146.5 L 178.5 142.0 L 179.0 138.0 L 179.5 135.5 L 180.0 135.0 L 180.0 135.5 L 180.5 138.0 L 181.0 141.0 L 182.0 143.5 L 183.0 145.5 L 184.5 146.0 L 186.0 146.0 L 187.0 145.0 L 187.5 144.5 L 188.0 144.0 L 188.0 144.0 L 188.0 144.0 L 188.0 143.5 L 187.5 142.5 L 186.0 141.5 L 184.0 140.5 L 182.5 139.5 L 181.5 139.0 L 181.0 139.0 L 181.5 139.5 L 183.0 141.0 L 185.5 141.5 L 187.5 142.0 L 189.0 142.0 L 190.0 141.5 L 190.0 140.5 L 188.5 139.5 L 187.0 138.5 L 185.5 138.5 L 184.5 138.0 " stroke="black" fill="none" stroke-width="10.0" stroke-linecap="round" stroke-linejoin="round" />
</svg>