<svg xmlns="http://www.w3.org/2000/svg" width="300" height="300" viewBox="0 0 300 300">
<path d="M 102.5 88.0 L 102.0 88.0 L 101.5 88.0 L 101.0 88.0 L 101.0 88.5 L 101.5 88.5 L 103.5 89.5 L 106.0 91.5 L 109.5 94.0 L 113.5 98.0 L 118.5 103.5 L 124.5 109.0 L 129.5 114.5 L 135.0 119.5 L 141.0 125.5 L 147.0 131.5 L 153.5 137.5 L 160.0 143.5 L 166.5 149.5 L 173.0 155.5 L 178.0 161.0 L 182.5 165.5 L 186.5 169.5 L 190.0 172.5 L 192.5 175.0 L 194.0 176.0 L 194.5 176.5 L 194.5 176.5 L 194.5 176.5 L 194.5 176.5 L 194.5 176.5 L 195.0 176.5 L 195.0 176.0 L 195.0 175.5 " stroke="black" fill="none" stroke-width="10.0" stroke-linecap="round" stroke-linejoin="round" />
<path d="M 108.0 174.5 L 108.0 174.5 L 108.0 174.5 L 108.5 174.5 L 109.5 173.5 L 114.0 169.5 L 122.5 161.0 L 132.5 150.5 L 143.5 139.5 L 154.5 128.0 L 164.5 118.0 L 175.0 108.0 L 184.5 100.0 L 190.5 96.0 L 193.0 94.5 L 193.0 94.5 L 193.0 94.5 L 193.0 94.5 L 193.0 94.5 L 193.0 94.5 L 193.0 94.5 L 193.0 94.5 L 193.0 94.5 L 193.0 94.5 " stroke="black" fill="none" stroke-width="10.0" stroke-linecap="round" stroke-linejoin="round" />
</svg>