<svg xmlns="http://www.w3.org/2000/svg" width="300" height="300" viewBox="0 0 300 300">
<path d="M 150.0 127.0 L 150.0 127.0 L 149.5 126.5 L 149.5 126.5 L 149.0 126.5 L 149.0 126.0 L 148.0 126.0 L 147.0 125.5 L 145.5 125.5 L 143.5 125.5 L 141.5 125.5 L 139.5 126.5 L 138.0 127.5 L 136.5 128.5 L 135.5 130.0 L 135.0 131.5 L 134.0 133.0 L 133.5 134.0 L 133.0 135.5 L 132.5 137.0 L 132.0 138.5 L 131.5 140.5 L 131.0 142.0 L 131.0 144.5 L 131.0 146.5 L 131.0 148.5 L 131.0 150.5 L 131.0 152.5 L 132.0 154.5 L 132.5 156.5 L 133.5 158.5 L 135.0 160.0 L 136.5 161.0 L 138.0 162.5 L 140.5 163.5 L 143.0 164.5 L 146.0 165.0 L 149.0 165.0 L 152.0 165.0 L 155.0 165.0 L 157.0 164.5 L 159.0 163.5 L 161.0 162.0 L 163.0 160.0 L 164.0 158.0 L 164.5 156.5 L 165.0 155.0 L 165.5 153.5 L 166.0 151.0 L 167.0 149.0 L 167.5 146.5 L 167.5 144.5 L 167.5 142.5 L 167.5 140.5 L 167.0 138.5 L 167.0 137.0 L 166.5 135.0 L 165.5 134.0 L 165.0 132.5 L 163.5 131.0 L 162.5 129.5 L 161.5 128.0 L 160.0 126.5 L 158.5 125.5 L 157.0 125.0 L 155.5 124.5 L 154.0 124.0 L 153.0 124.0 " stroke="black" fill="none" stroke-width="7.0" stroke-linecap="round" stroke-linejoin="round" />
<path d="M 155.5 116.5 L 155.5 116.5 L 156.0 116.5 L 156.0 116.5 L 156.0 116.5 L 156.0 116.5 L 155.5 116.5 L 154.5 116.5 L 153.0 117.0 L 151.5 117.5 L 150.0 119.0 L 148.0 120.0 L 147.0 121.5 L 146.0 123.0 L 145.0 124.0 L 144.5 125.0 L 144.0 125.5 L 144.0 126.0 L 144.0 126.5 L 144.0 126.5 L 144.0 126.5 L 144.0 126.5 L 144.5 126.5 L 145.0 127.0 L 145.5 128.0 L 146.5 129.0 L 147.5 131.0 L 149.0 133.5 L 150.5 136.5 L 152.0 139.0 L 153.0 140.5 L 153.5 141.5 L 154.0 142.0 L 154.0 142.5 L 154.0 142.5 " stroke="black" fill="none" stroke-width="7.0" stroke-linecap="round" stroke-linejoin="round" />
</svg>