<svg xmlns="http://www.w3.org/2000/svg" width="300" height="300" viewBox="0 0 300 300">
<path d="M 133.5 107.0 L 133.5 106.0 L 133.5 105.0 L 133.5 104.5 L 133.5 104.0 L 133.5 105.0 L 133.0 108.5 L 131.5 114.0 L 130.0 119.5 L 128.0 123.5 L 128.0 124.5 L 128.0 123.5 " stroke="black" fill="none" stroke-width="6.0" stroke-linecap="round" stroke-linejoin="round" />
<path d="M 136.5 114.0 L 136.0 115.0 L 135.0 115.5 L 135.0 115.5 L 135.0 115.5 L 137.0 115.0 L 140.0 114.5 L 144.0 113.5 L 149.5 112.0 L 154.5 110.5 L 158.5 109.5 L 160.5 109.5 L 160.5 110.0 L 160.0 111.0 L 159.5 112.5 L 159.0 115.0 L 158.0 118.5 L 157.0 122.5 L 156.5 125.0 L 156.5 126.5 L 156.5 126.5 " stroke="black" fill="none" stroke-width="6.0" stroke-linecap="round" stroke-linejoin="round" />
<path d="M 132.5 133.0 L 132.0 133.5 L 130.5 134.0 L 130.0 134.0 L 129.5 134.0 L 129.5 134.0 L 131.0 134.0 L 134.0 134.0 L 138.5 133.5 L 144.5 132.5 L 153.5 131.0 L 162.0 129.5 L 168.5 129.0 L 171.5 129.0 L 173.0 130.0 L 173.5 130.5 L 173.0 130.5 L 173.0 130.5 L 173.0 130.5 L 172.5 130.5 L 172.5 130.5 L 172.5 130.5 L 172.5 130.5 L 172.5 130.5 L 172.5 130.5 L 172.5 130.5 L 172.5 131.5 L 172.5 134.5 L 172.5 140.5 L 172.5 147.0 L 172.5 152.0 L 172.5 153.5 L 172.5 153.5 L 172.5 152.5 L 172.0 151.5 " stroke="black" fill="none" stroke-width="6.0" stroke-linecap="round" stroke-linejoin="round" />
<path d="M 149.5 134.0 L 149.5 134.0 L 149.5 134.0 L 149.5 134.0 L 149.5 134.0 L 149.5 134.0 L 149.5 136.0 L 150.0 141.0 L 150.0 146.5 L 150.0 149.5 L 150.5 150.0 L 151.0 150.0 " stroke="black" fill="none" stroke-width="6.0" stroke-linecap="round" stroke-linejoin="round" />
<path d="M 132.0 154.0 L 132.0 154.0 L 131.5 154.5 L 131.0 154.5 L 132.0 154.5 L 137.0 154.5 L 145.0 154.5 L 155.5 154.0 L 163.5 154.0 L 168.5 154.0 L 170.5 154.0 L 170.5 154.5 L 169.0 154.0 L 168.5 154.0 " stroke="black" fill="none" stroke-width="6.0" stroke-linecap="round" stroke-linejoin="round" />
<path d="M 129.5 140.5 L 129.5 140.0 L 129.5 139.0 L 129.0 139.0 L 129.0 138.5 L 129.0 138.5 L 129.0 139.0 L 129.0 141.5 L 129.0 146.0 L 129.0 152.0 L 128.5 159.0 L 128.0 167.0 L 128.0 173.0 L 128.0 177.5 L 129.0 181.0 L 131.0 183.0 L 133.0 184.5 L 136.5 186.0 L 141.0 186.0 L 147.0 186.0 L 155.0 185.0 L 163.0 183.5 L 170.5 182.0 L 176.0 181.0 L 178.0 180.0 L 178.0 179.5 L 177.5 179.0 L 176.5 177.5 L 176.5 176.5 L 176.5 175.5 L 176.5 174.5 L 176.5 173.5 L 176.5 172.5 L 176.5 172.5 " stroke="black" fill="none" stroke-width="6.0" stroke-linecap="round" stroke-linejoin="round" />
</svg>