<svg xmlns="http://www.w3.org/2000/svg" width="300" height="300" viewBox="0 0 300 300">
<path d="M 158.0 112.0 L 158.0 112.0 L 158.0 112.0 L 158.5 112.0 L 158.5 112.0 L 159.0 112.0 L 159.0 112.0 L 159.5 112.0 L 159.5 112.0 L 159.0 112.5 L 156.0 115.5 L 150.5 120.0 L 144.5 124.5 L 139.0 127.0 L 135.0 128.0 L 132.0 128.5 L 129.5 129.0 L 128.0 129.5 L 127.5 129.5 L 127.5 129.5 L 127.5 129.5 L 127.5 129.5 L 127.5 129.5 L 127.5 129.5 L 127.5 129.5 L 128.0 129.5 L 128.0 129.5 L 128.0 129.5 L 128.0 129.5 L 128.0 129.5 L 128.0 129.5 L 128.0 129.5 L 128.0 130.0 L 128.5 131.5 L 129.0 135.5 L 130.0 142.5 L 130.5 150.0 L 131.0 158.0 L 131.0 165.0 L 130.0 170.5 L 128.5 176.0 L 126.5 180.5 L 125.5 183.0 L 124.5 184.0 L 124.5 184.0 L 124.0 184.0 L 123.5 183.5 L 123.0 180.5 " stroke="black" fill="none" stroke-width="6.0" stroke-linecap="round" stroke-linejoin="round" />
<path d="M 143.0 134.0 L 143.0 133.0 L 143.5 132.0 L 144.0 131.5 L 144.5 131.5 L 145.0 131.5 L 146.0 133.5 L 146.5 138.0 L 146.5 145.5 L 146.0 156.0 L 144.0 166.5 L 143.5 173.0 L 143.0 175.5 L 143.0 176.5 L 143.0 176.5 L 143.0 176.0 L 143.0 175.5 L 144.0 175.0 L 145.5 173.5 L 147.5 173.0 L 149.5 172.0 L 152.0 171.5 L 153.0 171.0 L 154.5 170.5 L 155.0 170.5 " stroke="black" fill="none" stroke-width="6.0" stroke-linecap="round" stroke-linejoin="round" />
<path d="M 156.5 163.5 L 156.0 162.5 L 155.5 162.0 L 155.5 162.0 L 156.5 164.0 L 158.5 167.5 L 159.5 170.5 L 160.5 172.5 L 161.0 172.5 " stroke="black" fill="none" stroke-width="6.0" stroke-linecap="round" stroke-linejoin="round" />
<path d="M 153.0 126.5 L 153.0 126.5 L 152.5 126.5 L 152.5 126.5 L 152.5 126.5 L 154.5 130.0 L 159.5 139.5 L 167.5 153.0 L 176.0 161.0 L 182.5 164.5 L 185.5 165.5 L 186.0 165.5 " stroke="black" fill="none" stroke-width="6.0" stroke-linecap="round" stroke-linejoin="round" />
</svg>