<svg xmlns="http://www.w3.org/2000/svg" width="300" height="300" viewBox="0 0 300 300">
<path d="M 146.5 112.0 L 145.5 112.0 L 144.5 112.5 L 144.0 112.5 L 143.5 112.5 L 144.5 113.5 L 147.0 115.5 L 149.0 117.0 L 150.5 118.5 L 151.0 119.0 " stroke="black" fill="none" stroke-width="6.0" stroke-linecap="round" stroke-linejoin="round" />
<path d="M 131.5 125.0 L 131.5 125.0 L 130.5 125.0 L 129.5 125.0 L 129.0 124.5 L 129.0 124.5 L 131.5 124.5 L 137.5 124.5 L 147.0 124.5 L 158.0 123.5 L 166.0 122.5 L 169.5 122.0 L 169.5 122.5 L 167.0 123.5 " stroke="black" fill="none" stroke-width="6.0" stroke-linecap="round" stroke-linejoin="round" />
<path d="M 137.5 132.5 L 137.5 132.5 L 137.5 132.5 L 138.0 132.5 L 138.0 132.5 L 138.5 133.5 L 139.5 136.0 L 141.0 138.5 L 143.0 140.5 L 145.0 141.5 " stroke="black" fill="none" stroke-width="6.0" stroke-linecap="round" stroke-linejoin="round" />
<path d="M 163.5 131.5 L 163.0 132.0 L 162.5 132.5 L 162.0 132.5 L 162.0 132.5 L 162.0 132.5 L 162.0 132.5 L 162.0 134.0 L 161.5 136.5 L 160.5 139.0 L 160.0 141.0 L 160.0 141.5 " stroke="black" fill="none" stroke-width="6.0" stroke-linecap="round" stroke-linejoin="round" />
<path d="M 129.5 147.5 L 129.0 147.5 L 128.5 148.0 L 128.5 148.5 L 129.0 148.5 L 132.5 148.5 L 140.5 148.5 L 151.0 148.0 L 161.5 147.0 L 169.5 146.0 L 173.5 146.0 L 173.5 147.0 L 172.5 147.5 L 171.5 147.5 " stroke="black" fill="none" stroke-width="6.0" stroke-linecap="round" stroke-linejoin="round" />
<path d="M 141.5 161.0 L 141.0 160.5 L 140.5 160.0 L 140.0 159.5 L 140.0 159.0 L 140.0 159.0 L 140.0 160.5 L 140.5 165.0 L 141.5 171.5 L 142.0 177.0 L 142.5 180.5 L 143.0 181.0 L 143.5 179.5 L 143.5 178.5 " stroke="black" fill="none" stroke-width="6.0" stroke-linecap="round" stroke-linejoin="round" />
<path d="M 143.5 156.5 L 142.0 157.0 L 141.0 157.5 L 141.0 158.0 L 143.0 158.0 L 146.5 158.0 L 151.5 158.0 L 157.0 157.0 L 164.0 156.5 L 171.0 156.0 L 175.0 156.0 L 176.5 156.0 L 176.5 157.0 L 176.0 158.0 L 175.5 159.0 L 174.5 161.0 L 174.0 164.0 L 173.0 168.5 L 172.0 173.5 L 171.0 177.5 L 171.0 180.0 L 170.5 180.5 L 170.5 179.5 L 170.5 178.5 " stroke="black" fill="none" stroke-width="6.0" stroke-linecap="round" stroke-linejoin="round" />
<path d="M 151.0 170.0 L 149.5 170.0 L 148.5 170.0 L 148.0 170.0 L 147.5 170.0 L 149.5 170.0 L 153.0 169.5 L 158.0 169.5 L 163.5 169.5 L 169.0 169.5 L 173.0 169.5 L 174.0 169.5 " stroke="black" fill="none" stroke-width="6.0" stroke-linecap="round" stroke-linejoin="round" />
<path d="M 149.0 180.5 L 148.0 181.5 L 147.5 182.0 L 147.5 182.0 L 148.0 182.0 L 151.0 182.0 L 157.0 182.0 L 164.0 181.5 L 171.0 181.5 L 176.0 181.0 L 176.5 181.0 " stroke="black" fill="none" stroke-width="6.0" stroke-linecap="round" stroke-linejoin="round" />
</svg>