<svg xmlns="http://www.w3.org/2000/svg" width="300" height="300" viewBox="0 0 300 300">
<path d="M 128.0 121.5 L 128.0 121.5 L 129.0 120.0 L 129.0 119.5 L 129.0 119.5 L 129.0 120.0 L 129.0 122.5 L 129.5 129.5 L 130.0 142.5 L 130.0 156.0 L 130.0 163.0 L 130.5 162.5 L 131.5 158.5 L 132.0 151.5 " stroke="black" fill="none" stroke-width="6.0" stroke-linecap="round" stroke-linejoin="round" />
<path d="M 130.0 120.0 L 129.5 120.0 L 129.0 119.5 L 128.5 119.5 L 128.5 119.5 L 130.0 119.5 L 133.5 119.0 L 140.0 119.0 L 150.0 118.0 L 161.0 117.0 L 170.0 116.0 L 175.0 115.5 L 175.5 115.5 L 175.0 115.5 L 174.0 116.0 L 174.0 116.5 L 173.5 117.5 L 173.5 119.5 L 173.0 123.0 L 172.0 128.5 L 171.0 137.5 L 170.5 147.5 L 170.0 155.0 L 170.5 157.5 L 171.0 157.5 L 171.0 156.5 L 171.0 155.5 L 170.0 152.0 " stroke="black" fill="none" stroke-width="6.0" stroke-linecap="round" stroke-linejoin="round" />
<path d="M 136.5 142.5 L 136.0 142.0 L 135.0 141.0 L 135.0 141.0 L 135.0 141.0 L 138.0 141.0 L 143.0 141.0 L 150.5 141.0 L 158.0 141.0 L 163.0 140.5 L 164.0 139.5 " stroke="black" fill="none" stroke-width="6.0" stroke-linecap="round" stroke-linejoin="round" />
<path d="M 154.0 125.0 L 154.0 124.5 L 153.0 124.0 L 152.5 123.5 L 152.5 123.5 L 152.0 125.0 L 151.5 130.0 L 150.5 140.5 L 149.0 155.5 L 149.0 163.0 L 149.5 163.0 L 150.5 161.5 L 150.5 160.5 " stroke="black" fill="none" stroke-width="6.0" stroke-linecap="round" stroke-linejoin="round" />
<path d="M 133.5 166.5 L 133.0 166.5 L 132.0 166.0 L 132.0 166.0 L 132.5 166.0 L 136.5 166.0 L 144.5 165.5 L 154.5 165.0 L 163.5 165.0 L 169.5 165.0 L 171.0 164.5 L 171.0 164.5 " stroke="black" fill="none" stroke-width="6.0" stroke-linecap="round" stroke-linejoin="round" />
</svg>