<svg xmlns="http://www.w3.org/2000/svg" width="300" height="300" viewBox="0 0 300 300">
<path d="M 127.0 118.0 L 126.5 119.0 L 126.0 119.0 L 125.5 119.0 L 125.5 119.0 L 127.5 119.0 L 131.0 118.5 L 137.5 118.5 L 146.0 118.5 L 156.0 119.0 L 165.5 119.0 L 171.5 118.5 L 175.0 118.0 L 176.0 118.0 L 176.0 118.0 L 176.0 118.0 L 175.5 118.0 L 175.5 118.0 L 175.5 118.0 L 175.5 118.0 L 175.5 118.5 L 175.0 119.5 L 174.5 121.5 L 173.5 125.0 L 172.0 130.5 L 170.5 136.5 L 170.0 140.5 L 170.0 141.5 L 170.0 141.0 L 170.0 140.5 " stroke="black" fill="none" stroke-width="6.0" stroke-linecap="round" stroke-linejoin="round" />
<path d="M 149.0 127.5 L 149.0 127.0 L 149.5 126.0 L 150.0 125.5 L 150.0 125.0 L 150.0 125.5 L 150.0 129.0 L 149.5 135.5 L 149.0 142.5 L 149.0 147.5 L 149.0 149.0 L 149.0 149.0 L 149.0 147.5 L 149.5 146.0 L 149.5 145.0 L 149.0 144.5 L 149.0 144.0 " stroke="black" fill="none" stroke-width="6.0" stroke-linecap="round" stroke-linejoin="round" />
<path d="M 151.0 139.5 L 150.5 139.0 L 150.0 139.0 L 150.0 138.5 L 151.0 138.5 L 153.0 138.5 L 155.0 138.5 L 157.0 138.5 L 158.5 138.5 L 159.0 138.0 " stroke="black" fill="none" stroke-width="6.0" stroke-linecap="round" stroke-linejoin="round" />
<path d="M 133.0 135.0 L 132.0 135.0 L 131.5 135.0 L 131.0 135.0 L 131.0 135.5 L 131.0 137.5 L 130.5 143.0 L 128.5 152.0 L 124.5 162.0 L 120.5 169.0 L 119.0 171.0 L 119.0 170.0 L 119.5 166.5 L 119.5 165.5 " stroke="black" fill="none" stroke-width="6.0" stroke-linecap="round" stroke-linejoin="round" />
<path d="M 130.5 152.5 L 129.5 153.0 L 128.5 153.5 L 128.5 153.5 L 128.5 154.0 L 130.5 154.5 L 134.5 155.5 L 140.0 157.0 L 147.5 159.5 L 156.5 161.5 L 163.5 163.5 L 169.5 163.5 L 174.5 163.0 L 179.0 160.5 L 181.0 158.5 " stroke="black" fill="none" stroke-width="6.0" stroke-linecap="round" stroke-linejoin="round" />
</svg>