<svg xmlns="http://www.w3.org/2000/svg" width="300" height="300" viewBox="0 0 300 300">
<path d="M 135.5 123.5 L 136.0 123.0 L 136.0 123.0 L 136.0 122.5 L 136.5 122.5 L 138.0 122.5 L 140.0 122.5 L 143.5 122.5 L 147.0 122.5 L 149.5 122.5 L 151.5 122.5 L 153.0 122.5 L 153.5 122.5 L 154.0 122.0 L 154.0 122.0 L 154.0 122.0 L 154.0 122.0 L 154.5 122.0 L 155.5 122.0 L 156.5 122.0 L 157.5 122.0 L 158.0 122.0 L 158.5 122.0 L 158.5 122.0 L 158.5 122.0 L 158.5 122.5 L 157.5 123.5 L 157.0 124.5 L 156.0 126.0 L 154.5 128.0 L 153.0 130.5 L 151.5 133.0 L 150.0 134.5 L 149.5 135.5 L 148.5 136.5 L 148.0 137.0 L 148.0 137.5 L 148.0 138.0 L 148.0 138.0 " stroke="black" fill="none" stroke-width="6.0" stroke-linecap="round" stroke-linejoin="round" />
<path d="M 149.5 137.0 L 149.5 137.0 L 149.5 137.0 L 149.5 137.0 L 149.0 137.0 L 149.0 137.0 L 149.5 137.5 L 150.5 138.5 L 151.5 142.0 L 153.0 146.5 L 154.0 153.0 L 154.5 159.5 L 155.0 164.5 L 155.0 169.0 L 155.0 174.0 L 154.5 178.5 L 154.0 182.5 L 153.5 185.5 L 152.5 187.0 L 151.5 187.5 L 151.0 187.5 L 149.5 187.0 L 147.0 185.0 L 144.0 182.5 L 142.0 180.0 L 141.0 178.5 " stroke="black" fill="none" stroke-width="6.0" stroke-linecap="round" stroke-linejoin="round" />
<path d="M 136.0 146.5 L 137.0 146.5 L 137.5 146.5 L 139.0 146.5 L 141.5 146.5 L 147.5 146.5 L 156.5 146.5 L 165.0 146.0 L 170.5 145.5 L 172.5 145.5 L 172.0 145.5 " stroke="black" fill="none" stroke-width="6.0" stroke-linecap="round" stroke-linejoin="round" />
</svg>