<svg xmlns="http://www.w3.org/2000/svg" width="300" height="300" viewBox="0 0 300 300">
<path d="M 135.0 122.5 L 134.0 122.5 L 133.0 122.5 L 132.5 122.0 L 132.0 121.0 L 132.0 119.5 L 132.0 117.5 L 132.0 115.5 L 132.5 114.0 L 132.5 113.5 L 133.0 113.5 L 133.5 114.5 L 134.0 118.5 L 134.0 127.0 L 133.0 141.0 L 131.5 155.5 L 131.0 165.0 L 131.0 169.5 L 131.0 172.0 L 131.0 172.5 L 131.0 171.5 L 130.5 167.5 L 130.5 166.0 " stroke="black" fill="none" stroke-width="6.0" stroke-linecap="round" stroke-linejoin="round" />
<path d="M 136.0 110.5 L 135.5 111.5 L 135.0 112.0 L 135.0 112.0 L 135.0 112.0 L 136.5 112.0 L 140.5 111.5 L 148.0 110.0 L 157.5 109.0 L 165.5 108.5 L 171.0 108.5 L 173.0 108.5 L 173.0 108.5 L 172.5 108.5 L 172.0 108.5 L 172.0 108.5 L 172.0 108.5 L 172.0 108.5 L 172.0 109.5 L 171.5 111.0 L 171.5 113.5 L 171.0 118.0 L 170.5 124.5 L 170.5 131.0 L 170.0 138.0 L 170.0 146.0 L 170.0 153.5 L 170.0 159.5 L 170.5 165.0 L 172.0 170.0 L 173.5 173.0 L 176.0 175.0 L 179.0 175.0 L 182.0 174.5 L 185.0 172.5 L 189.0 169.5 L 191.5 166.0 L 193.0 164.0 " stroke="black" fill="none" stroke-width="6.0" stroke-linecap="round" stroke-linejoin="round" />
<path d="M 145.5 125.5 L 145.5 125.5 L 145.5 125.5 L 145.0 125.5 L 146.0 125.5 L 148.5 124.5 L 152.0 123.0 L 155.5 122.0 L 158.0 121.5 L 159.5 121.5 " stroke="black" fill="none" stroke-width="6.0" stroke-linecap="round" stroke-linejoin="round" />
<path d="M 143.5 137.5 L 143.5 137.5 L 143.0 137.0 L 142.5 136.5 L 142.5 136.5 L 142.5 138.0 L 142.5 141.5 L 143.0 146.5 L 144.0 150.0 L 144.5 151.5 L 145.0 151.5 " stroke="black" fill="none" stroke-width="6.0" stroke-linecap="round" stroke-linejoin="round" />
<path d="M 145.0 141.0 L 144.5 139.5 L 144.0 139.0 L 144.0 138.0 L 145.5 137.5 L 148.0 136.5 L 151.0 136.0 L 154.5 135.5 L 157.0 135.5 L 158.5 135.0 L 159.0 135.0 L 159.5 135.5 L 159.5 137.0 L 159.5 139.5 L 159.0 142.0 L 158.5 145.5 L 157.5 148.0 L 157.0 148.0 " stroke="black" fill="none" stroke-width="6.0" stroke-linecap="round" stroke-linejoin="round" />
<path d="M 148.0 150.5 L 146.5 151.0 L 146.0 151.5 L 146.0 151.5 L 147.5 151.0 L 150.5 149.5 L 153.0 148.5 L 154.5 147.5 " stroke="black" fill="none" stroke-width="6.0" stroke-linecap="round" stroke-linejoin="round" />
<path d="M 153.5 125.5 L 153.5 125.5 L 153.5 125.5 L 154.0 125.5 L 154.0 125.5 L 154.0 125.5 L 154.0 127.5 L 153.5 133.5 L 152.0 143.5 L 150.5 154.5 L 150.0 161.5 L 150.0 163.5 L 150.0 163.5 " stroke="black" fill="none" stroke-width="6.0" stroke-linecap="round" stroke-linejoin="round" />
<path d="M 139.5 166.0 L 139.5 166.0 L 139.5 165.5 L 139.0 165.5 L 139.0 165.5 L 140.5 165.5 L 144.0 165.0 L 149.0 165.0 L 153.5 164.5 L 156.5 164.0 L 157.0 164.0 " stroke="black" fill="none" stroke-width="6.0" stroke-linecap="round" stroke-linejoin="round" />
<path d="M 157.0 157.0 L 157.5 157.5 L 157.5 158.0 L 158.0 158.0 L 158.5 158.5 L 159.0 160.5 L 160.0 162.5 L 161.0 165.5 L 161.5 167.5 " stroke="black" fill="none" stroke-width="6.0" stroke-linecap="round" stroke-linejoin="round" />
</svg>