<svg xmlns="http://www.w3.org/2000/svg" width="300" height="300" viewBox="0 0 300 300">
<path d="M 130.0 124.0 L 130.0 124.0 L 130.0 124.0 L 129.5 123.5 L 129.5 123.5 L 129.5 123.5 L 132.0 123.5 L 137.5 123.5 L 147.0 123.5 L 156.0 123.0 L 163.0 122.0 L 167.5 121.5 L 169.0 121.5 L 169.5 121.5 L 169.5 121.5 L 169.0 121.5 L 169.0 121.5 L 168.5 121.5 L 168.5 121.5 " stroke="black" fill="none" stroke-width="6.0" stroke-linecap="round" stroke-linejoin="round" />
<path d="M 126.0 126.0 L 126.0 126.0 L 126.0 126.0 L 126.0 125.5 L 126.0 125.0 L 126.0 125.0 L 126.5 125.0 L 127.5 126.5 L 128.0 130.0 L 128.5 136.5 L 128.5 145.0 L 128.5 153.0 L 128.5 158.0 L 128.5 161.5 L 129.0 165.5 L 129.5 168.5 L 129.5 171.0 L 129.5 172.5 L 129.5 173.0 L 129.5 173.0 L 129.5 173.0 L 129.5 172.5 L 129.5 172.5 L 129.5 172.5 L 130.0 172.0 L 130.5 172.0 L 132.5 171.5 L 135.5 171.0 L 141.5 170.5 L 148.5 169.5 L 155.5 169.0 L 161.0 168.5 L 165.5 168.5 L 169.0 168.5 L 171.0 168.5 L 172.5 168.5 L 173.0 168.0 L 173.0 168.0 L 173.0 168.0 L 173.0 168.0 L 173.0 168.0 L 173.0 168.0 L 173.0 168.0 L 173.0 168.0 " stroke="black" fill="none" stroke-width="6.0" stroke-linecap="round" stroke-linejoin="round" />
</svg>