<svg xmlns="http://www.w3.org/2000/svg" width="300" height="300" viewBox="0 0 300 300">
<path d="M 133.0 117.5 L 132.5 117.0 L 132.5 116.5 L 132.0 116.5 L 132.0 117.0 L 132.5 122.0 L 133.0 133.0 L 132.5 149.5 L 131.0 161.5 L 129.5 168.0 L 129.0 170.5 L 129.0 170.5 L 128.5 170.0 L 128.0 166.5 " stroke="black" fill="none" stroke-width="6.0" stroke-linecap="round" stroke-linejoin="round" />
<path d="M 136.0 112.0 L 135.0 112.0 L 134.0 112.5 L 134.0 112.5 L 134.0 112.5 L 135.5 112.5 L 138.5 112.5 L 143.5 112.5 L 151.5 112.0 L 161.0 110.5 L 168.5 109.5 L 173.5 109.5 L 176.5 109.5 L 178.0 110.0 L 179.5 110.0 L 180.0 110.0 L 180.0 110.0 L 180.0 110.0 L 180.0 110.0 L 180.0 110.0 L 179.5 110.0 L 179.5 110.0 L 179.5 110.0 L 179.5 110.5 L 179.5 111.5 L 179.5 112.5 L 179.5 114.5 L 179.5 117.0 L 179.5 121.0 L 179.5 126.5 L 179.5 133.5 L 179.5 141.0 L 180.0 150.0 L 181.0 159.0 L 182.0 167.0 L 182.5 174.0 L 183.0 180.0 L 183.5 184.5 L 183.5 188.0 L 183.5 190.0 L 183.5 190.0 L 183.0 189.5 L 181.5 187.0 L 178.5 183.0 L 176.0 180.0 L 174.5 177.5 L 174.0 176.5 " stroke="black" fill="none" stroke-width="6.0" stroke-linecap="round" stroke-linejoin="round" />
<path d="M 142.5 129.5 L 143.0 129.5 L 144.0 130.0 L 144.5 130.0 L 145.0 131.0 L 147.0 134.5 L 149.5 140.5 L 152.0 145.5 L 153.0 148.0 L 153.0 148.5 L 153.5 148.0 " stroke="black" fill="none" stroke-width="6.0" stroke-linecap="round" stroke-linejoin="round" />
<path d="M 154.0 128.5 L 153.0 128.5 L 152.5 128.5 L 152.5 128.5 L 152.5 128.5 L 152.5 129.0 L 152.0 131.5 L 149.0 138.0 L 144.0 148.0 L 140.0 154.5 L 139.0 156.0 L 139.0 154.5 L 139.5 154.0 " stroke="black" fill="none" stroke-width="6.0" stroke-linecap="round" stroke-linejoin="round" />
<path d="M 164.5 130.0 L 164.5 130.0 L 164.5 130.5 L 164.5 130.5 L 164.5 131.0 L 165.0 131.5 L 166.5 134.5 L 168.5 139.5 L 171.5 144.5 L 173.0 147.0 L 174.0 148.0 L 174.5 148.0 " stroke="black" fill="none" stroke-width="6.0" stroke-linecap="round" stroke-linejoin="round" />
<path d="M 171.5 127.5 L 171.5 127.5 L 171.5 127.5 L 171.0 128.0 L 171.0 128.0 L 170.0 130.5 L 168.0 137.0 L 164.5 146.0 L 162.0 152.0 L 161.5 153.5 L 161.5 153.0 " stroke="black" fill="none" stroke-width="6.0" stroke-linecap="round" stroke-linejoin="round" />
</svg>