<svg xmlns="http://www.w3.org/2000/svg" width="300" height="300" viewBox="0 0 300 300">
<path d="M 131.0 114.0 L 131.0 114.0 L 130.5 114.0 L 130.5 114.5 L 130.5 114.5 L 133.0 114.0 L 138.5 113.0 L 149.0 111.0 L 161.5 108.0 L 169.5 105.5 L 174.5 104.0 L 175.5 103.5 L 175.0 103.5 L 174.5 103.5 L 174.0 104.0 L 174.0 104.5 " stroke="black" fill="none" stroke-width="6.0" stroke-linecap="round" stroke-linejoin="round" />
<path d="M 135.5 126.0 L 135.0 126.0 L 135.0 126.0 L 134.5 126.0 L 134.5 126.0 L 135.5 126.0 L 138.0 125.5 L 143.5 124.5 L 152.5 124.0 L 162.5 123.0 L 170.0 123.0 L 174.0 123.0 L 174.5 123.5 L 174.0 123.5 L 173.5 123.5 L 173.5 123.5 L 173.0 123.5 L 173.0 123.5 " stroke="black" fill="none" stroke-width="6.0" stroke-linecap="round" stroke-linejoin="round" />
<path d="M 133.5 140.0 L 133.0 140.0 L 132.5 139.5 L 132.0 139.0 L 132.0 139.0 L 132.0 139.0 L 132.0 139.0 L 133.5 139.0 L 136.5 139.0 L 143.0 139.0 L 153.0 139.0 L 164.0 139.0 L 173.0 138.0 L 178.5 137.0 L 180.5 136.5 L 180.5 136.5 L 180.0 136.5 L 179.0 136.5 L 178.5 136.5 L 178.5 136.5 L 178.5 136.5 " stroke="black" fill="none" stroke-width="6.0" stroke-linecap="round" stroke-linejoin="round" />
<path d="M 156.5 105.0 L 156.5 104.5 L 156.0 104.0 L 155.5 103.5 L 155.5 103.5 L 155.5 103.5 L 155.5 104.0 L 155.5 106.0 L 156.0 109.0 L 156.0 114.0 L 156.0 122.0 L 156.0 132.5 L 156.0 142.5 L 156.0 152.0 L 156.0 160.5 L 155.5 167.0 L 155.5 171.5 L 155.5 173.5 L 155.5 174.5 L 155.5 174.5 L 155.5 174.5 L 155.5 174.5 L 155.5 174.5 L 155.5 174.5 L 155.5 174.5 L 155.5 174.5 L 155.5 174.5 L 155.5 174.5 L 155.5 174.5 L 155.5 174.5 L 155.5 174.5 L 155.5 174.5 L 155.5 174.5 L 155.5 174.5 L 155.5 174.5 L 155.5 174.5 L 155.5 174.5 L 155.5 174.0 L 155.5 174.0 " stroke="black" fill="none" stroke-width="6.0" stroke-linecap="round" stroke-linejoin="round" />
<path d="M 152.5 144.0 L 153.0 143.0 L 153.0 141.5 L 153.0 140.5 L 153.5 140.5 L 153.5 140.5 L 153.5 140.5 L 152.5 142.5 L 150.0 146.5 L 145.0 152.0 L 138.0 158.5 L 131.0 163.5 L 126.5 165.0 L 126.5 165.0 L 129.0 164.0 L 131.0 162.5 " stroke="black" fill="none" stroke-width="6.0" stroke-linecap="round" stroke-linejoin="round" />
<path d="M 157.0 143.5 L 156.5 143.5 L 156.0 143.5 L 155.5 143.5 L 156.0 144.5 L 158.0 146.0 L 161.5 149.0 L 166.0 152.5 L 172.5 156.5 L 179.5 159.5 L 184.5 161.5 L 188.0 162.0 L 189.5 162.5 L 190.0 162.5 L 189.0 163.0 L 189.0 163.0 " stroke="black" fill="none" stroke-width="6.0" stroke-linecap="round" stroke-linejoin="round" />
</svg>