<svg xmlns="http://www.w3.org/2000/svg" width="300" height="300" viewBox="0 0 300 300">
<path d="M 146.0 106.5 L 146.0 106.5 L 146.0 106.5 L 146.0 106.5 L 146.0 107.5 L 148.0 110.0 L 151.0 113.0 L 153.5 115.0 L 154.5 116.0 L 155.0 116.0 " stroke="black" fill="none" stroke-width="6.0" stroke-linecap="round" stroke-linejoin="round" />
<path d="M 130.5 119.5 L 130.5 119.5 L 130.5 119.5 L 131.0 119.5 L 133.0 119.5 L 139.0 119.5 L 149.0 119.5 L 159.5 119.5 L 168.5 119.0 L 173.5 119.0 L 174.5 119.0 L 174.0 119.0 L 172.0 119.0 L 171.0 119.0 " stroke="black" fill="none" stroke-width="6.0" stroke-linecap="round" stroke-linejoin="round" />
<path d="M 139.5 131.0 L 139.5 131.0 L 140.0 131.0 L 140.5 131.0 L 141.0 131.0 L 142.5 132.5 L 144.5 135.5 L 146.5 138.5 L 147.5 140.0 L 148.5 140.5 " stroke="black" fill="none" stroke-width="6.0" stroke-linecap="round" stroke-linejoin="round" />
<path d="M 164.5 129.5 L 164.5 129.5 L 164.0 129.5 L 163.5 129.5 L 163.5 129.5 L 163.5 129.5 L 163.5 130.0 L 162.5 132.5 L 161.0 135.5 L 160.0 138.0 L 160.0 139.0 " stroke="black" fill="none" stroke-width="6.0" stroke-linecap="round" stroke-linejoin="round" />
<path d="M 133.0 147.0 L 133.0 147.0 L 133.0 147.0 L 133.0 147.0 L 133.5 147.0 L 136.0 146.5 L 144.5 146.0 L 155.0 145.5 L 163.5 145.5 L 169.0 145.5 L 170.5 145.5 L 170.5 145.5 L 169.5 145.5 " stroke="black" fill="none" stroke-width="6.0" stroke-linecap="round" stroke-linejoin="round" />
<path d="M 135.0 163.0 L 135.0 163.0 L 135.0 163.0 L 135.0 162.5 L 136.0 162.5 L 139.0 162.0 L 146.0 162.0 L 155.5 161.5 L 163.5 161.0 L 168.5 160.5 L 169.5 160.5 L 168.5 160.5 L 167.0 160.0 L 167.0 160.0 " stroke="black" fill="none" stroke-width="6.0" stroke-linecap="round" stroke-linejoin="round" />
<path d="M 152.0 148.5 L 152.0 148.5 L 152.5 148.5 L 152.5 148.0 L 152.5 148.0 L 153.0 148.0 L 153.0 148.0 L 153.0 150.0 L 153.5 153.5 L 153.5 159.5 L 153.5 166.5 L 153.5 172.5 L 153.5 176.0 L 153.5 179.0 L 153.5 181.5 L 153.5 183.5 L 153.5 185.0 L 153.5 186.0 L 154.0 186.5 L 154.0 187.0 L 154.0 187.5 L 154.0 188.0 L 154.0 188.5 L 154.0 189.0 L 154.0 189.5 L 154.0 189.5 L 154.0 189.5 L 154.0 189.5 L 154.0 189.5 L 154.0 189.5 L 154.0 189.5 L 154.0 189.5 L 154.0 189.5 L 154.0 189.5 L 154.0 189.5 " stroke="black" fill="none" stroke-width="6.0" stroke-linecap="round" stroke-linejoin="round" />
</svg>