<svg xmlns="http://www.w3.org/2000/svg" width="300" height="300" viewBox="0 0 300 300">
<path d="M 148.0 111.5 L 148.0 111.5 L 148.5 111.5 L 148.5 111.5 L 148.5 112.0 L 148.5 113.5 L 148.5 118.0 L 147.0 128.0 L 143.0 141.5 L 139.0 154.0 L 135.5 163.5 L 133.5 168.5 L 133.0 169.0 L 132.0 169.0 L 131.5 168.0 L 131.5 166.0 " stroke="black" fill="none" stroke-width="6.0" stroke-linecap="round" stroke-linejoin="round" />
<path d="M 147.0 145.5 L 147.0 145.5 L 146.5 145.0 L 146.5 145.0 L 146.5 145.0 L 148.0 147.0 L 153.0 152.5 L 161.5 160.0 L 169.0 164.0 L 173.5 165.0 L 174.5 165.0 L 172.5 164.0 " stroke="black" fill="none" stroke-width="6.0" stroke-linecap="round" stroke-linejoin="round" />
<path d="M 121.5 129.0 L 122.0 129.0 L 122.5 129.0 L 123.5 129.0 L 125.0 130.0 L 128.0 132.5 L 131.0 134.5 L 133.0 135.5 L 134.5 135.0 " stroke="black" fill="none" stroke-width="6.0" stroke-linecap="round" stroke-linejoin="round" />
<path d="M 170.0 127.5 L 170.0 127.5 L 170.5 127.5 L 170.5 127.5 L 170.5 127.5 L 170.5 127.5 L 169.5 129.5 L 168.0 132.5 L 166.0 135.5 L 164.5 138.0 L 164.5 138.5 " stroke="black" fill="none" stroke-width="6.0" stroke-linecap="round" stroke-linejoin="round" />
</svg>