<svg xmlns="http://www.w3.org/2000/svg" width="300" height="300" viewBox="0 0 300 300">
<path d="M 147.0 108.0 L 147.5 107.5 L 148.0 107.0 L 148.0 107.0 L 148.5 107.0 L 148.5 108.0 L 149.5 110.5 L 149.5 115.5 L 149.5 120.5 L 150.0 123.5 L 150.0 124.5 L 150.0 123.5 L 150.0 122.5 " stroke="black" fill="none" stroke-width="6.0" stroke-linecap="round" stroke-linejoin="round" />
<path d="M 149.0 115.0 L 149.0 115.5 L 149.0 116.0 L 149.0 116.0 L 152.0 116.0 L 157.0 116.0 L 162.0 115.0 L 165.0 114.0 L 166.5 113.5 L 166.5 113.0 " stroke="black" fill="none" stroke-width="6.0" stroke-linecap="round" stroke-linejoin="round" />
<path d="M 134.5 127.5 L 134.5 127.5 L 133.5 127.5 L 133.0 127.5 L 133.5 127.0 L 136.0 126.5 L 139.5 126.0 L 144.0 126.0 L 150.0 126.0 L 156.5 125.5 L 163.0 124.5 L 168.0 123.0 L 171.5 122.5 L 172.5 122.5 L 172.5 122.5 L 172.5 122.5 L 172.0 123.0 L 172.0 123.0 L 172.0 123.0 L 172.0 123.0 L 172.0 123.5 L 172.0 124.5 L 172.0 125.5 L 171.5 127.0 L 171.5 129.5 L 171.0 131.5 L 170.5 133.0 L 170.5 133.5 " stroke="black" fill="none" stroke-width="6.0" stroke-linecap="round" stroke-linejoin="round" />
<path d="M 132.0 128.0 L 132.0 127.5 L 132.0 127.0 L 132.0 127.0 L 132.0 126.5 L 132.0 126.5 L 132.0 126.5 L 132.0 127.5 L 132.5 129.0 L 133.0 132.5 L 133.5 138.5 L 133.5 148.0 L 133.0 157.5 L 131.0 166.0 L 128.0 175.0 L 124.5 182.5 L 122.0 187.0 L 121.5 188.0 L 121.5 187.0 L 121.5 184.5 " stroke="black" fill="none" stroke-width="6.0" stroke-linecap="round" stroke-linejoin="round" />
<path d="M 141.0 154.0 L 141.0 154.5 L 140.5 155.0 L 140.5 155.0 L 140.5 155.0 L 143.5 153.5 L 149.5 150.5 L 156.0 147.5 L 160.5 145.5 L 162.0 145.0 L 161.5 145.0 L 161.0 145.0 L 160.5 145.0 L 160.5 145.0 " stroke="black" fill="none" stroke-width="6.0" stroke-linecap="round" stroke-linejoin="round" />
<path d="M 148.5 136.0 L 148.5 136.0 L 148.5 136.0 L 148.5 135.5 L 148.5 135.5 L 148.5 136.5 L 148.5 140.5 L 148.0 149.5 L 147.0 161.5 L 146.5 170.0 L 147.5 175.0 L 150.0 178.0 L 152.5 179.5 L 156.0 180.0 L 160.0 180.5 L 164.5 180.0 L 169.0 178.5 L 172.5 176.5 L 173.5 174.5 L 174.0 173.0 L 173.5 171.5 L 172.5 170.0 L 172.0 168.5 L 171.5 167.5 L 171.5 167.0 L 171.5 166.5 L 171.5 166.0 " stroke="black" fill="none" stroke-width="6.0" stroke-linecap="round" stroke-linejoin="round" />
</svg>