<svg xmlns="http://www.w3.org/2000/svg" width="300" height="300" viewBox="0 0 300 300">
<path d="M 134.0 122.5 L 134.5 122.5 L 135.0 122.5 L 135.0 122.5 L 135.5 123.0 L 136.5 125.0 L 137.0 130.5 L 137.5 141.0 L 137.5 153.0 L 137.0 163.5 L 136.0 170.5 L 135.5 173.5 L 135.5 174.0 L 135.0 174.0 L 135.0 173.5 L 134.5 173.0 " stroke="black" fill="none" stroke-width="6.0" stroke-linecap="round" stroke-linejoin="round" />
<path d="M 140.0 123.0 L 139.5 123.0 L 138.5 123.5 L 138.0 123.5 L 138.0 124.0 L 138.0 124.0 L 139.0 124.0 L 141.0 124.0 L 144.0 123.5 L 148.0 123.5 L 152.5 123.5 L 158.0 123.5 L 162.5 123.5 L 165.5 124.0 L 166.5 124.0 L 166.5 124.0 L 165.5 124.0 L 165.5 124.0 L 165.0 124.0 L 165.0 124.0 L 165.0 124.0 L 165.0 124.5 L 164.5 125.5 L 164.5 127.0 L 164.5 130.0 L 164.0 134.5 L 164.0 140.5 L 164.0 147.5 L 164.5 154.0 L 165.0 160.5 L 166.0 165.5 L 168.0 169.0 L 169.5 172.0 L 172.0 173.5 L 174.0 174.5 L 176.0 174.5 L 178.5 174.0 L 180.5 172.5 L 182.5 169.5 L 183.5 165.5 L 184.0 162.5 L 184.5 160.0 L 183.0 158.0 L 182.0 157.0 L 181.5 156.5 L 181.0 156.5 " stroke="black" fill="none" stroke-width="6.0" stroke-linecap="round" stroke-linejoin="round" />
</svg>