<svg xmlns="http://www.w3.org/2000/svg" width="300" height="300" viewBox="0 0 300 300">
<path d="M 136.0 110.0 L 136.0 110.0 L 136.5 110.5 L 137.0 110.5 L 137.0 111.0 L 137.5 112.0 L 138.5 116.5 L 139.5 127.5 L 140.0 142.5 L 140.0 156.0 L 139.5 167.5 L 138.5 176.5 L 137.0 184.5 L 135.5 190.5 L 133.5 194.5 L 132.5 195.0 L 131.5 193.5 L 130.0 189.5 " stroke="black" fill="none" stroke-width="6.0" stroke-linecap="round" stroke-linejoin="round" />
<path d="M 123.5 136.0 L 122.0 136.5 L 122.0 137.0 L 122.0 137.0 L 125.0 136.5 L 128.5 135.5 L 131.5 135.0 L 134.5 134.5 L 136.5 134.0 L 138.0 134.0 " stroke="black" fill="none" stroke-width="6.0" stroke-linecap="round" stroke-linejoin="round" />
<path d="M 126.5 154.0 L 126.0 154.5 L 125.0 155.5 L 125.0 155.5 L 126.5 155.5 L 129.5 154.5 L 132.5 153.5 L 134.5 153.0 L 135.5 153.0 " stroke="black" fill="none" stroke-width="6.0" stroke-linecap="round" stroke-linejoin="round" />
<path d="M 120.0 172.0 L 119.5 172.5 L 119.0 172.5 L 120.0 172.5 L 123.5 172.5 L 128.5 171.5 L 133.0 169.5 L 136.5 167.5 " stroke="black" fill="none" stroke-width="6.0" stroke-linecap="round" stroke-linejoin="round" />
<path d="M 155.0 116.5 L 156.0 116.5 L 156.5 116.5 L 156.5 116.5 L 156.5 116.5 L 156.5 120.0 L 157.0 129.0 L 157.0 145.5 L 157.5 163.5 L 159.0 176.5 L 160.0 183.5 L 160.5 187.5 L 160.5 187.5 L 159.5 184.5 L 158.0 179.5 " stroke="black" fill="none" stroke-width="6.0" stroke-linecap="round" stroke-linejoin="round" />
<path d="M 161.0 137.5 L 161.0 137.5 L 160.0 138.0 L 159.5 138.0 L 159.5 138.0 L 160.0 138.0 L 162.5 138.0 L 165.5 137.0 L 169.5 136.5 L 173.5 135.5 L 177.0 135.0 L 178.0 134.5 " stroke="black" fill="none" stroke-width="6.0" stroke-linecap="round" stroke-linejoin="round" />
<path d="M 159.0 155.0 L 159.0 155.5 L 159.0 157.0 L 159.0 157.5 L 159.5 157.5 L 163.0 156.5 L 168.0 155.0 L 171.5 153.5 L 174.0 153.0 L 175.0 153.0 " stroke="black" fill="none" stroke-width="6.0" stroke-linecap="round" stroke-linejoin="round" />
<path d="M 161.5 172.0 L 161.5 172.5 L 161.5 173.5 L 161.5 174.0 L 163.0 174.0 L 168.0 172.0 L 174.0 169.0 L 180.0 167.5 L 183.5 167.0 L 184.0 167.0 " stroke="black" fill="none" stroke-width="6.0" stroke-linecap="round" stroke-linejoin="round" />
</svg>