<svg xmlns="http://www.w3.org/2000/svg" width="300" height="300" viewBox="0 0 300 300">
<path d="M 139.0 113.5 L 139.5 113.5 L 139.5 113.5 L 140.0 113.5 L 140.0 113.5 L 140.0 114.0 L 140.0 117.0 L 137.5 125.0 L 132.0 137.5 L 127.5 147.0 L 126.5 149.5 L 126.5 148.5 L 127.0 146.5 " stroke="black" fill="none" stroke-width="6.0" stroke-linecap="round" stroke-linejoin="round" />
<path d="M 138.0 129.0 L 138.0 129.0 L 138.0 129.5 L 138.0 129.5 L 138.0 129.5 L 138.0 129.5 L 138.0 129.5 L 138.5 129.5 L 140.5 129.5 L 144.5 129.5 L 150.0 129.0 L 156.0 129.0 L 160.5 129.0 L 163.5 129.0 L 165.5 129.0 L 166.0 129.0 L 166.0 129.0 L 165.5 129.0 L 165.0 129.0 L 165.0 129.0 L 165.0 129.0 L 165.0 129.0 L 165.0 129.0 L 165.0 129.0 L 165.0 129.0 L 165.0 129.0 L 165.0 129.0 L 165.0 129.0 L 165.0 129.0 L 165.0 129.0 L 165.0 129.0 L 165.0 129.0 L 165.0 129.0 L 165.0 129.5 L 165.0 130.5 L 164.5 132.5 L 163.0 137.5 L 160.0 145.0 L 155.5 153.0 L 151.0 160.0 L 146.5 166.5 L 141.5 173.0 L 136.5 178.5 L 133.0 181.5 L 131.5 182.5 L 131.5 182.5 L 131.5 182.0 L 131.5 180.5 " stroke="black" fill="none" stroke-width="6.0" stroke-linecap="round" stroke-linejoin="round" />
<path d="M 126.5 132.5 L 126.5 132.5 L 126.0 132.5 L 125.5 132.5 L 126.5 134.0 L 129.0 137.0 L 133.0 142.0 L 139.5 149.5 L 148.0 158.0 L 157.5 166.0 L 167.0 172.5 L 174.5 176.5 L 180.0 179.0 L 183.5 180.5 L 185.5 180.5 L 186.0 178.5 " stroke="black" fill="none" stroke-width="6.0" stroke-linecap="round" stroke-linejoin="round" />
</svg>