<svg xmlns="http://www.w3.org/2000/svg" width="300" height="300" viewBox="0 0 300 300">
<path d="M 130.5 119.0 L 130.5 119.0 L 130.5 118.5 L 130.5 118.5 L 130.5 118.0 L 132.5 117.5 L 137.5 117.5 L 147.5 117.5 L 157.5 118.5 L 165.0 119.5 L 168.5 120.0 L 170.0 120.0 L 170.0 120.0 L 170.0 120.0 L 170.0 120.0 L 170.0 120.0 L 170.0 119.5 L 170.5 119.5 L 170.5 119.5 " stroke="black" fill="none" stroke-width="6.0" stroke-linecap="round" stroke-linejoin="round" />
<path d="M 129.5 121.0 L 129.5 120.5 L 129.5 120.0 L 129.5 119.5 L 129.5 119.0 L 129.5 119.0 L 129.5 119.5 L 130.5 122.0 L 130.5 128.0 L 131.0 138.5 L 130.5 151.0 L 130.0 161.0 L 129.5 167.5 L 129.0 171.0 L 128.0 172.5 L 127.5 173.0 L 127.5 173.0 L 127.0 173.0 L 127.0 172.5 " stroke="black" fill="none" stroke-width="6.0" stroke-linecap="round" stroke-linejoin="round" />
</svg>