<svg xmlns="http://www.w3.org/2000/svg" width="300" height="300" viewBox="0 0 300 300">
<path d="M 140.0 117.5 L 140.5 117.0 L 141.0 117.0 L 141.0 117.0 L 141.0 117.0 L 140.5 117.5 L 139.0 120.5 L 136.0 126.0 L 130.5 134.5 L 124.5 141.5 L 122.5 144.0 L 122.5 144.0 L 122.5 143.0 " stroke="black" fill="none" stroke-width="6.0" stroke-linecap="round" stroke-linejoin="round" />
<path d="M 160.5 120.0 L 160.5 119.5 L 160.5 119.0 L 160.5 119.0 L 160.5 119.0 L 160.5 120.0 L 163.0 123.5 L 166.5 129.0 L 171.0 135.0 L 174.5 139.0 L 175.5 140.0 L 175.5 140.0 L 175.5 140.0 " stroke="black" fill="none" stroke-width="6.0" stroke-linecap="round" stroke-linejoin="round" />
<path d="M 164.5 131.0 L 164.5 131.0 L 165.5 131.0 L 166.0 131.0 L 166.0 131.0 L 166.0 131.0 L 165.0 133.0 L 162.0 137.5 L 156.0 145.0 L 146.5 154.0 L 137.5 162.5 L 130.0 168.0 L 125.5 171.0 L 124.5 171.5 L 125.0 171.5 L 126.5 169.0 " stroke="black" fill="none" stroke-width="6.0" stroke-linecap="round" stroke-linejoin="round" />
<path d="M 133.0 136.5 L 131.5 136.5 L 131.0 136.5 L 131.0 136.5 L 133.5 138.5 L 138.5 143.5 L 145.5 150.5 L 153.0 157.5 L 160.5 164.0 L 167.5 168.0 L 173.5 169.5 L 178.0 170.0 L 180.0 170.0 L 180.5 170.0 " stroke="black" fill="none" stroke-width="6.0" stroke-linecap="round" stroke-linejoin="round" />
</svg>