<svg xmlns="http://www.w3.org/2000/svg" width="300" height="300" viewBox="0 0 300 300">
<path d="M 134.0 114.0 L 134.0 114.0 L 133.5 114.5 L 133.5 115.0 L 133.5 115.0 L 133.5 115.0 L 135.0 115.0 L 137.0 115.0 L 139.5 116.0 L 142.5 117.5 L 145.5 120.0 L 149.5 123.0 L 152.5 126.0 L 154.5 129.5 L 156.5 132.5 L 159.0 136.0 L 161.0 140.5 L 163.0 146.0 L 165.5 151.5 L 167.5 156.0 L 169.0 161.0 L 170.5 165.0 L 171.5 168.0 L 173.0 170.0 L 174.0 171.0 L 175.0 171.0 L 176.0 171.0 L 176.5 169.0 " stroke="black" fill="none" stroke-width="6.0" stroke-linecap="round" stroke-linejoin="round" />
<path d="M 155.0 132.5 L 155.5 132.5 L 155.5 132.5 L 156.0 132.5 L 156.0 132.5 L 156.0 132.5 L 156.0 133.5 L 155.5 136.5 L 153.5 142.0 L 150.0 150.0 L 144.0 158.0 L 137.5 163.5 L 132.5 166.0 L 130.5 167.5 L 130.5 167.5 L 131.5 167.5 " stroke="black" fill="none" stroke-width="6.0" stroke-linecap="round" stroke-linejoin="round" />
</svg>