<svg xmlns="http://www.w3.org/2000/svg" width="300" height="300" viewBox="0 0 300 300">
<path d="M 133.5 122.5 L 133.5 122.0 L 132.5 120.5 L 132.5 119.5 L 132.5 119.5 L 132.5 119.5 L 133.5 119.5 L 133.5 121.0 L 134.0 123.5 L 132.5 128.5 L 129.5 134.0 L 127.0 137.5 L 126.0 138.5 L 125.5 137.5 L 125.5 134.5 " stroke="black" fill="none" stroke-width="6.0" stroke-linecap="round" stroke-linejoin="round" />
<path d="M 136.0 128.5 L 135.5 128.5 L 135.0 128.5 L 135.5 129.0 L 138.0 128.5 L 142.0 128.0 L 147.5 127.5 L 153.5 127.0 L 157.5 127.0 L 159.5 127.5 L 160.0 128.0 " stroke="black" fill="none" stroke-width="6.0" stroke-linecap="round" stroke-linejoin="round" />
<path d="M 122.5 151.0 L 123.0 151.0 L 123.5 151.0 L 125.0 151.0 L 127.5 151.0 L 130.0 151.0 L 143.0 151.0 L 154.0 150.5 L 162.5 149.5 L 165.5 149.0 L 165.0 149.0 L 164.5 149.0 " stroke="black" fill="none" stroke-width="6.0" stroke-linecap="round" stroke-linejoin="round" />
<path d="M 146.5 133.0 L 147.0 131.5 L 147.0 130.5 L 147.0 130.5 L 147.0 130.5 L 146.5 132.0 L 146.5 137.0 L 147.0 144.5 L 147.0 154.0 L 147.0 162.0 L 147.0 166.5 L 147.0 167.5 L 147.0 167.0 " stroke="black" fill="none" stroke-width="6.0" stroke-linecap="round" stroke-linejoin="round" />
<path d="M 126.5 162.5 L 126.5 162.0 L 127.0 161.5 L 127.5 161.0 L 127.5 161.0 L 128.0 161.0 L 128.0 161.5 L 129.0 163.0 L 129.0 166.0 L 129.0 170.0 L 129.0 174.5 L 129.0 177.5 L 129.0 178.5 L 130.5 178.5 L 134.5 177.5 L 140.0 176.5 L 146.5 175.5 L 152.5 175.0 L 159.0 174.5 L 163.5 174.0 L 164.5 174.0 L 163.5 174.0 " stroke="black" fill="none" stroke-width="6.0" stroke-linecap="round" stroke-linejoin="round" />
<path d="M 164.0 163.5 L 165.0 162.5 L 165.0 162.0 L 165.0 162.0 L 165.0 162.0 L 165.0 164.5 L 165.0 169.0 L 165.5 175.5 L 165.5 181.0 L 166.0 184.5 L 166.5 184.5 " stroke="black" fill="none" stroke-width="6.0" stroke-linecap="round" stroke-linejoin="round" />
</svg>