<svg xmlns="http://www.w3.org/2000/svg" width="300" height="300" viewBox="0 0 300 300">
<path d="M 149.0 102.5 L 148.0 101.5 L 147.5 101.0 L 147.5 101.0 L 148.0 101.0 L 149.5 102.0 L 152.0 104.0 L 153.5 105.5 L 154.5 106.5 L 155.0 107.0 " stroke="black" fill="none" stroke-width="6.0" stroke-linecap="round" stroke-linejoin="round" />
<path d="M 132.0 115.0 L 132.0 115.0 L 132.0 115.5 L 131.5 115.5 L 131.5 115.5 L 133.0 115.5 L 139.0 114.5 L 149.5 113.5 L 160.0 112.5 L 169.0 112.0 L 174.5 112.0 L 176.5 112.0 L 176.5 112.0 L 175.0 112.0 L 173.5 112.5 L 173.0 112.5 " stroke="black" fill="none" stroke-width="6.0" stroke-linecap="round" stroke-linejoin="round" />
<path d="M 138.0 126.0 L 138.5 125.5 L 138.5 125.0 L 139.0 125.0 L 139.5 126.0 L 141.0 129.5 L 142.0 134.0 L 143.0 138.5 L 144.0 140.0 L 144.5 139.0 " stroke="black" fill="none" stroke-width="6.0" stroke-linecap="round" stroke-linejoin="round" />
<path d="M 143.0 126.5 L 142.5 126.5 L 141.5 126.0 L 141.0 125.5 L 141.0 125.5 L 142.0 125.0 L 149.0 124.5 L 154.5 124.5 L 160.5 124.5 L 166.5 124.5 L 170.0 124.5 L 171.0 124.5 L 171.0 124.5 L 170.0 124.5 L 169.0 125.5 L 168.5 126.5 L 168.0 128.0 L 167.5 130.5 L 166.5 133.5 L 166.0 136.0 L 166.0 137.5 L 166.0 138.0 L 166.0 138.0 " stroke="black" fill="none" stroke-width="6.0" stroke-linecap="round" stroke-linejoin="round" />
<path d="M 147.5 139.0 L 146.5 139.0 L 146.0 139.0 L 146.0 139.0 L 147.5 139.0 L 151.5 139.0 L 156.5 138.5 L 162.5 137.5 L 167.0 137.0 L 167.5 137.0 " stroke="black" fill="none" stroke-width="6.0" stroke-linecap="round" stroke-linejoin="round" />
<path d="M 135.5 152.0 L 135.5 152.0 L 135.5 151.5 L 135.5 151.5 L 135.5 151.0 L 135.5 151.5 L 136.0 154.5 L 136.0 160.5 L 136.5 168.5 L 136.5 175.0 L 136.5 178.0 L 136.5 178.0 L 137.0 177.0 L 137.0 174.0 " stroke="black" fill="none" stroke-width="6.0" stroke-linecap="round" stroke-linejoin="round" />
<path d="M 139.0 150.5 L 139.0 150.5 L 139.0 150.5 L 139.0 150.0 L 139.0 150.0 L 139.0 150.0 L 140.0 150.0 L 143.0 150.0 L 148.5 150.0 L 155.5 150.0 L 163.5 149.5 L 170.5 149.0 L 175.0 148.5 L 177.0 148.5 L 178.0 148.5 L 178.5 148.5 L 179.0 149.0 L 179.5 149.0 L 179.5 149.5 L 179.5 149.5 L 179.5 150.0 L 180.0 150.5 L 180.0 152.0 L 180.5 154.0 L 181.0 157.0 L 181.5 161.5 L 182.5 168.0 L 183.0 175.0 L 183.5 181.5 L 183.5 187.0 L 183.5 190.5 L 183.5 192.5 L 183.0 193.0 L 182.0 193.0 L 180.0 192.0 L 177.5 190.0 L 175.5 188.0 L 175.0 188.0 " stroke="black" fill="none" stroke-width="6.0" stroke-linecap="round" stroke-linejoin="round" />
<path d="M 149.5 163.5 L 149.0 163.0 L 149.0 162.5 L 149.0 162.5 L 149.0 162.5 L 149.0 163.5 L 149.0 166.5 L 149.5 170.5 L 150.0 174.0 L 150.5 176.5 L 151.0 176.5 " stroke="black" fill="none" stroke-width="6.0" stroke-linecap="round" stroke-linejoin="round" />
<path d="M 150.5 164.5 L 150.5 163.5 L 150.5 163.0 L 150.5 162.5 L 151.5 162.5 L 153.0 162.5 L 155.5 162.5 L 158.0 162.5 L 161.0 162.5 L 163.5 162.5 L 165.0 163.0 L 166.0 163.5 L 166.0 163.5 L 166.0 164.5 L 166.0 166.0 L 165.5 168.5 L 165.0 171.5 L 164.5 173.0 L 164.0 173.5 " stroke="black" fill="none" stroke-width="6.0" stroke-linecap="round" stroke-linejoin="round" />
<path d="M 153.5 175.5 L 153.5 176.0 L 153.0 176.5 L 153.0 177.0 L 153.0 177.0 L 155.0 177.0 L 157.5 176.5 L 160.5 175.5 L 162.5 175.0 " stroke="black" fill="none" stroke-width="6.0" stroke-linecap="round" stroke-linejoin="round" />
</svg>