<svg xmlns="http://www.w3.org/2000/svg" width="300" height="300" viewBox="0 0 300 300">
<path d="M 127.0 123.5 L 126.5 123.5 L 125.5 123.5 L 125.5 123.5 L 125.5 123.5 L 127.5 123.5 L 130.5 123.5 L 134.5 123.0 L 138.5 123.0 L 142.0 122.5 L 144.5 122.5 L 145.0 122.0 L 145.0 121.5 L 145.0 121.5 " stroke="black" fill="none" stroke-width="6.0" stroke-linecap="round" stroke-linejoin="round" />
<path d="M 135.0 109.5 L 135.0 109.5 L 135.5 109.5 L 135.5 109.5 L 135.5 109.5 L 135.5 110.5 L 135.5 114.5 L 135.5 121.5 L 135.5 127.5 L 136.0 131.5 L 136.0 132.5 L 136.0 132.5 L 136.0 132.5 " stroke="black" fill="none" stroke-width="6.0" stroke-linecap="round" stroke-linejoin="round" />
<path d="M 126.0 137.5 L 125.5 137.5 L 124.0 138.0 L 123.5 138.0 L 123.5 138.0 L 124.0 138.0 L 126.5 137.0 L 129.5 136.5 L 133.0 136.5 L 137.0 136.5 L 140.0 136.5 L 142.5 136.5 L 144.0 136.5 L 144.5 136.5 L 144.5 136.5 " stroke="black" fill="none" stroke-width="6.0" stroke-linecap="round" stroke-linejoin="round" />
<path d="M 125.5 146.5 L 125.5 146.0 L 125.0 145.5 L 124.5 145.0 L 124.0 145.0 L 124.0 145.0 L 124.0 147.0 L 125.0 150.5 L 126.0 154.5 L 126.5 157.0 L 126.5 158.0 L 127.0 157.0 L 127.0 154.5 " stroke="black" fill="none" stroke-width="6.0" stroke-linecap="round" stroke-linejoin="round" />
<path d="M 127.0 147.5 L 126.5 147.5 L 126.0 147.0 L 126.0 146.5 L 126.0 146.5 L 127.0 146.5 L 129.5 146.5 L 132.5 146.5 L 135.5 146.5 L 138.5 146.5 L 141.0 146.5 L 143.5 147.0 L 145.5 147.5 L 146.5 147.5 L 146.5 148.0 L 147.0 148.0 L 147.0 148.5 L 147.0 149.0 L 147.0 150.0 L 147.0 151.0 L 147.0 152.0 L 147.0 154.0 L 146.5 155.5 L 146.5 157.5 L 146.0 159.5 L 146.0 161.0 L 146.0 161.5 L 146.0 162.0 L 146.0 162.0 L 146.0 162.0 " stroke="black" fill="none" stroke-width="6.0" stroke-linecap="round" stroke-linejoin="round" />
<path d="M 129.0 163.0 L 129.0 163.0 L 128.5 163.5 L 128.5 164.0 L 128.5 164.0 L 130.0 163.5 L 133.0 162.5 L 137.0 162.0 L 140.5 161.5 L 143.0 161.5 L 144.0 161.5 " stroke="black" fill="none" stroke-width="6.0" stroke-linecap="round" stroke-linejoin="round" />
<path d="M 129.0 170.0 L 128.5 170.0 L 128.0 170.0 L 128.0 170.0 L 128.0 171.5 L 129.0 174.5 L 130.5 176.5 L 132.5 178.5 L 133.0 179.0 " stroke="black" fill="none" stroke-width="6.0" stroke-linecap="round" stroke-linejoin="round" />
<path d="M 143.5 172.0 L 143.5 172.0 L 142.5 171.5 L 142.5 171.5 L 142.0 171.0 L 142.0 171.5 L 141.5 173.5 L 141.0 176.5 L 140.0 179.5 L 139.5 182.0 L 139.5 182.5 " stroke="black" fill="none" stroke-width="6.0" stroke-linecap="round" stroke-linejoin="round" />
<path d="M 125.0 192.0 L 124.0 192.0 L 123.0 192.5 L 123.0 192.5 L 125.5 192.5 L 129.0 192.0 L 133.0 191.5 L 137.0 190.5 L 140.0 190.0 L 141.5 189.0 " stroke="black" fill="none" stroke-width="6.0" stroke-linecap="round" stroke-linejoin="round" />
<path d="M 154.0 128.5 L 154.5 128.5 L 154.5 128.5 L 155.0 128.5 L 156.5 128.5 L 159.0 129.0 L 163.5 129.0 L 167.0 129.0 L 169.5 129.0 L 170.5 128.0 L 171.0 127.5 " stroke="black" fill="none" stroke-width="6.0" stroke-linecap="round" stroke-linejoin="round" />
<path d="M 164.5 114.0 L 163.5 114.5 L 163.0 114.5 L 162.5 114.5 L 162.5 115.0 L 162.5 117.0 L 163.0 121.5 L 163.5 127.5 L 163.5 133.5 L 163.5 138.5 L 163.5 142.0 L 163.5 143.5 L 164.0 144.5 L 164.5 144.5 " stroke="black" fill="none" stroke-width="6.0" stroke-linecap="round" stroke-linejoin="round" />
<path d="M 157.5 147.5 L 157.5 147.5 L 157.5 147.5 L 157.5 147.5 L 158.0 147.5 L 160.0 147.5 L 163.5 147.5 L 167.5 147.5 L 170.5 147.0 L 172.5 146.5 L 173.5 146.5 L 174.0 146.5 L 174.0 147.0 L 174.0 148.5 L 173.5 150.5 L 173.0 153.5 L 172.0 158.5 L 170.0 164.5 L 167.5 170.5 L 164.5 177.0 L 161.5 183.0 L 160.0 187.0 L 159.0 189.0 L 159.0 189.5 L 159.0 189.5 L 159.0 189.0 L 159.0 187.5 " stroke="black" fill="none" stroke-width="6.0" stroke-linecap="round" stroke-linejoin="round" />
<path d="M 157.0 156.0 L 157.0 156.0 L 157.0 156.5 L 157.0 157.0 L 157.0 157.0 L 157.5 158.0 L 159.0 160.0 L 162.5 164.5 L 167.0 170.5 L 172.0 176.5 L 175.0 180.5 L 177.5 182.5 L 179.5 184.0 L 181.0 185.0 L 183.0 187.0 L 183.0 187.0 " stroke="black" fill="none" stroke-width="6.0" stroke-linecap="round" stroke-linejoin="round" />
</svg>