<svg xmlns="http://www.w3.org/2000/svg" width="300" height="300" viewBox="0 0 300 300">
<path d="M 131.5 124.0 L 131.5 124.0 L 131.5 122.5 L 132.0 121.5 L 132.0 120.5 L 132.5 120.0 L 133.0 119.5 L 134.0 119.5 L 134.0 121.5 L 133.5 126.5 L 131.5 134.0 L 128.0 143.0 L 126.0 148.0 L 125.5 148.5 L 125.5 146.0 L 125.5 145.5 " stroke="black" fill="none" stroke-width="6.0" stroke-linecap="round" stroke-linejoin="round" />
<path d="M 134.5 133.0 L 133.5 133.5 L 132.5 134.0 L 132.5 134.0 L 133.5 134.0 L 136.5 134.0 L 141.5 133.5 L 148.5 133.5 L 155.5 133.0 L 160.5 132.0 L 162.5 131.5 L 162.5 131.0 L 161.5 131.0 L 160.0 132.0 " stroke="black" fill="none" stroke-width="6.0" stroke-linecap="round" stroke-linejoin="round" />
<path d="M 135.5 153.5 L 135.5 153.5 L 135.0 154.0 L 134.5 154.0 L 134.5 154.0 L 136.0 154.0 L 140.5 154.0 L 146.0 154.0 L 153.0 153.5 L 158.0 153.0 L 160.5 153.0 L 160.5 152.5 " stroke="black" fill="none" stroke-width="6.0" stroke-linecap="round" stroke-linejoin="round" />
<path d="M 146.5 125.5 L 146.5 124.5 L 146.5 124.0 L 146.5 123.5 L 146.5 123.5 L 146.5 123.5 L 146.5 125.5 L 146.5 132.5 L 146.0 145.0 L 146.0 160.0 L 146.5 170.0 L 147.5 173.5 L 148.0 173.5 L 148.0 172.5 " stroke="black" fill="none" stroke-width="6.0" stroke-linecap="round" stroke-linejoin="round" />
<path d="M 126.5 175.0 L 126.5 175.0 L 126.5 175.0 L 126.5 175.0 L 128.5 175.0 L 134.5 175.0 L 145.0 175.0 L 157.5 175.0 L 165.5 175.0 L 170.0 175.0 L 171.0 174.5 L 170.0 174.5 " stroke="black" fill="none" stroke-width="6.0" stroke-linecap="round" stroke-linejoin="round" />
</svg>