<svg xmlns="http://www.w3.org/2000/svg" width="300" height="300" viewBox="0 0 300 300">
<path d="M 145.0 115.5 L 145.0 115.0 L 144.5 114.0 L 144.5 114.0 L 144.5 113.5 L 144.5 113.5 L 145.5 114.5 L 147.5 117.0 L 149.5 120.0 L 151.0 122.0 L 152.0 123.5 L 152.0 124.0 L 152.0 124.0 " stroke="black" fill="none" stroke-width="6.0" stroke-linecap="round" stroke-linejoin="round" />
<path d="M 122.0 130.5 L 122.0 130.5 L 122.0 130.0 L 122.0 129.5 L 122.0 129.0 L 122.5 129.0 L 122.5 129.0 L 123.0 130.5 L 123.0 133.0 L 123.0 135.5 L 123.0 138.0 L 123.0 138.0 " stroke="black" fill="none" stroke-width="6.0" stroke-linecap="round" stroke-linejoin="round" />
<path d="M 127.0 129.0 L 127.0 129.0 L 127.0 129.0 L 127.5 129.0 L 128.0 129.0 L 130.5 129.0 L 135.0 129.0 L 145.5 128.0 L 154.5 127.0 L 162.0 127.0 L 168.0 126.5 L 172.0 126.5 L 175.5 127.0 L 178.0 127.0 L 180.0 127.0 L 181.0 127.0 L 181.0 127.5 L 181.0 127.5 L 181.0 127.5 L 181.0 127.5 L 181.0 127.5 L 181.0 127.5 L 180.5 127.5 L 180.5 127.5 L 180.0 128.5 L 179.5 129.5 L 179.5 132.0 L 178.5 134.5 L 178.0 137.5 L 177.5 139.5 L 177.5 141.0 " stroke="black" fill="none" stroke-width="6.0" stroke-linecap="round" stroke-linejoin="round" />
</svg>