<svg xmlns="http://www.w3.org/2000/svg" width="300" height="300" viewBox="0 0 300 300">
<path d="M 150.0 121.5 L 150.0 121.5 L 150.0 121.5 L 150.0 121.5 L 150.0 121.5 L 150.0 121.5 L 150.0 121.5 L 150.0 123.5 L 148.5 128.5 L 144.5 138.0 L 139.5 148.5 L 135.0 155.5 L 133.0 159.5 L 132.5 161.5 L 132.5 162.5 L 132.5 162.5 L 132.5 162.5 L 133.0 162.5 L 135.0 163.5 L 138.5 165.5 L 143.5 169.0 L 149.5 173.5 L 155.0 178.5 L 160.5 183.5 L 165.0 187.5 L 167.5 189.5 L 168.5 190.0 L 168.5 190.0 L 167.5 188.0 L 167.5 187.5 " stroke="black" fill="none" stroke-width="6.0" stroke-linecap="round" stroke-linejoin="round" />
<path d="M 162.0 152.0 L 162.0 152.0 L 162.5 152.0 L 162.5 152.0 L 162.5 152.5 L 163.0 152.5 L 163.0 152.5 L 161.5 154.5 L 156.5 160.0 L 147.5 170.0 L 137.5 179.0 L 131.5 184.5 L 130.0 186.0 L 130.0 185.5 L 130.5 184.5 " stroke="black" fill="none" stroke-width="6.0" stroke-linecap="round" stroke-linejoin="round" />
<path d="M 119.0 150.5 L 119.0 150.5 L 119.0 151.0 L 119.0 151.0 L 119.5 151.5 L 121.5 152.0 L 126.5 153.0 L 136.0 153.5 L 148.0 153.5 L 158.0 152.5 L 166.0 152.0 L 171.5 152.0 L 174.0 153.0 L 174.0 153.5 L 174.0 154.0 L 173.0 154.0 " stroke="black" fill="none" stroke-width="6.0" stroke-linecap="round" stroke-linejoin="round" />
</svg>