<svg xmlns="http://www.w3.org/2000/svg" width="300" height="300" viewBox="0 0 300 300">
<path d="M 131.5 116.0 L 131.5 116.0 L 131.5 116.0 L 131.5 116.0 L 131.5 116.0 L 131.5 116.0 L 133.0 116.0 L 136.0 116.0 L 142.0 116.0 L 149.5 116.0 L 156.5 116.0 L 161.5 116.0 L 165.0 116.0 L 165.5 116.0 L 165.5 116.0 L 165.5 116.0 L 166.0 116.0 L 166.5 116.0 L 166.5 116.0 L 167.0 116.0 L 167.0 116.0 L 167.0 116.0 L 167.0 116.0 L 166.5 116.0 " stroke="black" fill="none" stroke-width="6.0" stroke-linecap="round" stroke-linejoin="round" />
<path d="M 121.5 145.5 L 121.0 145.5 L 121.0 145.5 L 120.5 145.5 L 120.5 145.5 L 120.5 145.5 L 121.0 145.5 L 124.0 145.5 L 128.5 145.5 L 136.0 145.5 L 146.0 144.5 L 156.0 143.5 L 165.5 142.5 L 172.5 142.0 L 175.5 142.0 L 177.0 142.0 L 177.0 142.5 L 176.5 142.5 L 176.5 142.5 L 176.5 142.5 L 176.5 142.5 L 176.5 142.5 L 176.5 142.5 L 176.5 142.5 L 176.0 142.5 " stroke="black" fill="none" stroke-width="6.0" stroke-linecap="round" stroke-linejoin="round" />
<path d="M 149.0 117.5 L 148.5 117.0 L 148.0 117.0 L 147.5 117.0 L 147.5 117.0 L 147.5 118.0 L 148.5 122.0 L 149.0 128.5 L 149.5 137.0 L 150.5 146.0 L 151.0 153.5 L 151.5 160.5 L 152.0 165.5 L 152.0 170.0 L 152.0 174.0 L 152.0 177.5 L 152.0 180.5 L 151.5 182.5 L 151.5 183.0 L 151.5 183.0 L 151.5 183.0 L 151.5 183.0 L 151.5 183.0 L 151.5 182.5 L 151.5 182.0 L 151.0 181.0 " stroke="black" fill="none" stroke-width="6.0" stroke-linecap="round" stroke-linejoin="round" />
</svg>