<svg xmlns="http://www.w3.org/2000/svg" width="300" height="300" viewBox="0 0 300 300">
<path d="M 131.5 120.0 L 131.0 119.5 L 130.5 118.5 L 130.0 118.5 L 130.0 118.5 L 130.5 119.5 L 131.0 123.5 L 132.0 131.0 L 132.0 143.0 L 130.5 159.0 L 130.0 171.0 L 130.0 173.5 L 130.0 173.5 L 130.0 171.5 " stroke="black" fill="none" stroke-width="6.0" stroke-linecap="round" stroke-linejoin="round" />
<path d="M 131.5 118.0 L 130.5 118.0 L 129.5 118.0 L 129.5 118.0 L 130.5 118.0 L 134.0 118.0 L 141.0 117.5 L 150.5 115.5 L 160.0 113.5 L 165.5 113.0 L 168.5 113.0 L 169.5 113.5 L 169.5 113.5 L 169.0 113.5 L 169.0 113.5 L 169.0 113.5 L 169.0 114.0 L 169.0 115.0 L 168.5 117.0 L 168.5 120.5 L 168.5 127.0 L 168.5 137.5 L 168.5 148.5 L 169.0 159.0 L 169.0 169.0 L 169.0 176.0 L 169.0 180.0 L 168.0 184.0 L 167.5 185.5 L 167.0 186.0 L 166.5 186.0 L 164.5 184.5 L 162.0 181.5 L 159.5 177.5 " stroke="black" fill="none" stroke-width="6.0" stroke-linecap="round" stroke-linejoin="round" />
<path d="M 139.0 140.0 L 139.0 140.0 L 139.0 140.0 L 139.0 140.0 L 139.5 140.0 L 143.5 138.5 L 151.0 137.0 L 159.0 136.5 L 164.0 137.0 L 166.5 137.0 L 166.5 137.0 L 165.0 136.5 " stroke="black" fill="none" stroke-width="6.0" stroke-linecap="round" stroke-linejoin="round" />
<path d="M 139.0 153.0 L 139.0 153.0 L 139.0 153.0 L 139.0 153.0 L 139.0 153.0 L 141.0 153.0 L 147.5 153.0 L 155.5 152.5 L 162.5 151.5 L 166.0 149.5 L 166.0 148.5 " stroke="black" fill="none" stroke-width="6.0" stroke-linecap="round" stroke-linejoin="round" />
<path d="M 150.0 116.0 L 150.0 117.0 L 150.0 118.0 L 150.0 119.5 L 150.0 123.5 L 150.0 135.5 L 150.0 155.0 L 150.0 170.5 L 150.5 174.5 L 151.5 174.5 L 151.5 174.0 " stroke="black" fill="none" stroke-width="6.0" stroke-linecap="round" stroke-linejoin="round" />
</svg>