<svg xmlns="http://www.w3.org/2000/svg" width="300" height="300" viewBox="0 0 300 300">
<path d="M 172.5 166.0 L 172.5 165.5 L 172.0 165.0 L 171.5 165.0 L 171.5 164.5 L 171.0 164.5 L 171.0 164.5 L 171.5 165.0 L 173.0 166.5 L 175.0 168.5 L 177.0 171.0 L 179.0 173.5 L 181.0 175.5 L 182.0 177.0 L 183.0 178.0 L 183.5 179.0 L 183.5 180.0 L 184.0 181.0 L 184.0 181.5 L 184.0 181.5 L 183.5 182.0 L 183.0 182.5 L 181.5 182.5 L 180.0 183.5 L 177.5 184.5 L 175.0 185.5 L 172.0 187.0 L 170.0 188.0 L 168.5 189.5 L 168.5 190.5 L 168.5 191.0 " stroke="black" fill="none" stroke-width="6.0" stroke-linecap="round" stroke-linejoin="round" />
</svg>