<svg xmlns="http://www.w3.org/2000/svg" width="300" height="300" viewBox="0 0 300 300">
<path d="M 140.5 135.5 L 140.5 136.0 L 140.0 137.0 L 140.0 137.0 L 140.0 137.0 L 141.5 137.0 L 145.0 137.0 L 149.0 137.0 L 154.5 137.0 L 160.5 137.0 L 164.5 136.5 L 166.5 136.5 L 167.0 136.5 L 167.0 136.5 L 167.0 136.5 " stroke="black" fill="none" stroke-width="6.0" stroke-linecap="round" stroke-linejoin="round" />
<path d="M 134.5 153.0 L 135.0 153.0 L 135.5 153.5 L 136.0 153.5 L 136.5 153.5 L 137.5 153.0 L 139.0 153.0 L 141.0 153.0 L 144.0 153.0 L 148.5 154.0 L 154.5 154.5 L 162.0 154.5 L 169.0 154.0 L 173.5 153.5 L 175.0 153.5 L 175.5 153.5 L 175.5 153.5 L 176.0 154.0 L 176.5 154.5 L 176.5 154.5 " stroke="black" fill="none" stroke-width="6.0" stroke-linecap="round" stroke-linejoin="round" />
<path d="M 153.5 157.5 L 154.0 157.5 L 154.5 157.0 L 155.0 156.5 L 155.5 155.5 L 155.5 155.5 L 155.5 155.0 L 155.5 155.0 L 155.5 156.5 L 155.5 160.5 L 153.5 166.0 L 151.0 172.0 L 147.0 178.0 L 142.5 182.5 L 139.0 184.5 L 137.5 184.5 L 137.5 184.5 L 137.5 184.0 " stroke="black" fill="none" stroke-width="6.0" stroke-linecap="round" stroke-linejoin="round" />
<path d="M 175.5 129.0 L 175.5 129.0 L 176.0 129.0 L 176.5 129.0 L 177.0 129.5 L 178.0 132.0 L 179.0 135.0 L 180.0 137.0 L 181.0 137.5 " stroke="black" fill="none" stroke-width="6.0" stroke-linecap="round" stroke-linejoin="round" />
<path d="M 187.0 129.5 L 187.0 129.5 L 187.0 129.5 L 187.0 129.5 L 187.0 130.0 L 187.5 131.0 L 188.5 133.0 L 190.0 135.0 L 191.5 137.0 L 192.0 137.5 " stroke="black" fill="none" stroke-width="6.0" stroke-linecap="round" stroke-linejoin="round" />
</svg>