<svg xmlns="http://www.w3.org/2000/svg" width="300" height="300" viewBox="0 0 300 300">
<path d="M 124.0 130.5 L 123.0 130.5 L 122.5 130.5 L 122.5 130.5 L 122.5 130.5 L 123.0 130.5 L 124.0 130.5 L 126.0 131.0 L 128.0 132.0 L 130.0 133.0 L 133.0 134.5 L 135.5 136.0 L 138.0 137.5 L 140.5 139.5 L 142.5 141.0 L 144.5 143.0 L 146.5 144.5 L 148.0 146.5 L 150.0 148.0 L 151.5 150.0 L 153.0 151.5 L 154.5 153.5 L 156.0 155.0 L 157.5 157.0 L 158.5 158.0 L 159.5 159.5 L 160.5 160.5 L 161.0 161.5 L 161.5 162.0 L 162.0 162.5 L 162.0 162.5 L 162.0 162.5 L 162.0 162.5 L 161.5 162.5 L 160.5 161.5 " stroke="black" fill="none" stroke-width="6.0" stroke-linecap="round" stroke-linejoin="round" />
<path d="M 147.5 122.5 L 147.5 122.5 L 147.0 122.5 L 146.5 122.0 L 146.5 122.0 L 147.0 123.0 L 149.0 125.0 L 150.5 126.5 L 151.5 128.0 L 152.0 128.5 " stroke="black" fill="none" stroke-width="6.0" stroke-linecap="round" stroke-linejoin="round" />
<path d="M 156.5 119.0 L 156.5 119.0 L 157.0 118.5 L 157.5 118.5 L 157.5 118.5 L 158.0 118.5 L 158.5 120.0 L 159.5 122.0 L 160.5 124.5 L 162.0 127.0 L 162.5 128.0 " stroke="black" fill="none" stroke-width="6.0" stroke-linecap="round" stroke-linejoin="round" />
</svg>