<svg xmlns="http://www.w3.org/2000/svg" width="300" height="300" viewBox="0 0 300 300">
<path d="M 130.0 118.5 L 130.5 119.0 L 130.5 119.5 L 130.5 119.5 L 130.5 120.0 L 130.5 121.5 L 130.5 125.0 L 130.5 132.0 L 130.5 141.0 L 130.5 152.0 L 130.5 162.5 L 132.5 171.0 L 134.5 178.0 L 136.5 182.5 L 138.5 185.0 L 139.0 185.5 L 139.0 185.5 L 139.0 184.5 L 139.0 183.0 L 139.0 181.0 L 139.0 179.0 L 139.0 177.0 L 139.0 175.0 L 139.5 172.5 L 140.0 170.5 L 140.5 168.0 L 142.0 166.5 L 143.5 164.0 L 145.0 162.0 L 145.5 161.0 L 146.0 160.5 L 146.0 160.5 " stroke="black" fill="none" stroke-width="6.0" stroke-linecap="round" stroke-linejoin="round" />
<path d="M 159.5 130.5 L 159.5 130.5 L 159.0 130.5 L 158.5 131.0 L 158.0 131.0 L 158.5 131.0 L 161.5 130.0 L 166.0 129.5 L 171.5 128.5 L 176.0 127.5 L 179.0 127.0 L 179.5 126.5 L 179.5 126.5 " stroke="black" fill="none" stroke-width="6.0" stroke-linecap="round" stroke-linejoin="round" />
<path d="M 171.0 116.5 L 171.0 116.5 L 171.0 116.0 L 171.0 115.5 L 171.0 115.0 L 171.0 115.0 L 171.5 117.5 L 172.5 124.5 L 173.5 137.0 L 174.0 151.0 L 174.0 162.0 L 172.5 170.0 L 170.0 175.0 L 167.0 179.0 L 164.0 182.0 L 162.5 183.5 L 162.0 184.0 " stroke="black" fill="none" stroke-width="6.0" stroke-linecap="round" stroke-linejoin="round" />
<path d="M 182.0 109.5 L 182.0 109.5 L 182.0 110.0 L 182.0 110.5 L 182.0 111.0 L 182.0 111.5 L 182.0 113.0 L 183.0 114.5 L 184.0 115.5 " stroke="black" fill="none" stroke-width="6.0" stroke-linecap="round" stroke-linejoin="round" />
<path d="M 191.5 105.5 L 191.0 105.5 L 190.5 105.0 L 190.0 105.0 L 190.0 105.5 L 191.5 107.0 L 192.5 109.5 L 194.0 112.0 L 195.0 113.5 L 195.0 113.5 " stroke="black" fill="none" stroke-width="6.0" stroke-linecap="round" stroke-linejoin="round" />
</svg>