<svg xmlns="http://www.w3.org/2000/svg" width="300" height="300" viewBox="0 0 300 300">
<path d="M 129.0 150.0 L 129.0 150.5 L 129.0 150.5 L 128.5 151.0 L 128.0 151.0 L 128.0 151.0 L 128.0 151.0 L 128.0 151.0 L 129.0 151.0 L 131.5 149.5 L 135.0 148.0 L 139.5 146.0 L 145.5 144.0 L 150.5 142.5 L 154.0 141.0 L 157.0 140.0 L 159.0 139.0 L 160.5 139.0 L 161.5 138.5 L 162.5 138.5 L 163.5 138.0 L 164.5 137.0 L 165.5 136.5 L 166.0 136.5 L 166.5 136.5 L 166.5 136.5 L 167.0 136.5 L 167.0 136.5 L 167.5 136.5 L 167.5 136.5 L 167.5 136.5 L 167.5 136.5 L 168.0 136.5 L 168.0 136.5 L 168.0 136.5 L 168.5 136.5 L 168.5 136.5 L 169.0 136.5 L 169.0 136.5 L 169.5 136.5 L 169.5 136.5 L 170.0 136.5 L 170.0 136.5 L 170.0 136.5 L 170.5 136.5 L 170.5 136.5 L 171.0 137.0 L 171.0 137.0 L 171.0 137.0 L 171.5 137.0 L 171.5 137.5 L 171.5 137.5 L 172.0 138.0 L 172.0 138.5 L 172.0 139.0 L 172.0 139.5 L 172.0 140.5 L 171.5 141.5 L 171.0 143.0 L 170.0 144.5 L 169.0 146.5 L 167.5 149.0 L 165.5 151.5 L 164.5 153.5 L 163.5 154.5 L 163.0 155.0 L 163.0 155.0 L 163.0 155.0 L 163.0 155.0 " stroke="black" fill="none" stroke-width="6.0" stroke-linecap="round" stroke-linejoin="round" />
<path d="M 141.5 132.5 L 141.5 132.5 L 141.5 132.5 L 141.5 132.5 L 141.0 132.5 L 141.0 132.5 L 141.0 132.5 L 141.5 133.5 L 141.5 135.0 L 142.5 137.0 L 143.0 140.5 L 143.5 144.0 L 143.5 147.5 L 143.5 151.0 L 143.5 153.5 L 143.5 156.0 L 143.5 158.0 L 143.0 160.0 L 143.0 161.5 L 143.0 163.5 L 143.0 165.5 L 143.0 167.0 L 143.0 169.0 L 143.0 170.5 L 143.0 171.5 L 143.0 172.0 L 143.0 173.0 L 143.5 173.5 L 143.5 174.5 L 144.0 175.0 L 144.0 176.0 L 144.5 176.5 L 145.0 177.0 L 145.0 178.0 L 146.0 178.5 L 146.5 179.0 L 147.5 179.5 L 148.5 180.0 L 149.5 180.5 L 151.0 180.5 L 152.5 180.5 L 154.5 180.5 L 156.5 180.5 L 158.5 180.5 L 161.0 180.5 L 163.0 180.0 L 165.5 180.0 L 167.5 179.5 L 168.5 179.5 L 169.5 179.5 L 170.0 179.5 L 170.5 179.5 L 171.0 179.5 L 171.0 179.5 L 171.5 179.5 L 171.5 179.5 L 172.0 180.0 L 172.0 180.0 " stroke="black" fill="none" stroke-width="6.0" stroke-linecap="round" stroke-linejoin="round" />
<path d="M 172.5 123.5 L 172.0 123.0 L 171.5 122.5 L 171.5 122.5 L 171.5 123.5 L 172.5 125.0 L 173.5 126.0 L 174.5 127.0 L 175.5 128.0 " stroke="black" fill="none" stroke-width="6.0" stroke-linecap="round" stroke-linejoin="round" />
<path d="M 184.0 119.5 L 184.0 119.5 L 183.5 119.5 L 183.5 119.5 L 183.5 120.0 L 184.0 120.5 L 185.5 122.0 L 187.5 124.0 L 189.0 126.0 L 189.5 127.0 " stroke="black" fill="none" stroke-width="6.0" stroke-linecap="round" stroke-linejoin="round" />
</svg>