<svg xmlns="http://www.w3.org/2000/svg" width="300" height="300" viewBox="0 0 300 300">
<path d="M 137.5 136.5 L 137.5 137.0 L 137.0 137.0 L 136.5 137.5 L 136.5 137.5 L 136.5 137.5 L 136.5 137.5 L 136.5 137.5 L 136.5 137.5 L 137.5 137.0 L 139.5 137.0 L 142.5 137.0 L 147.0 136.5 L 152.0 135.5 L 156.5 135.0 L 160.5 134.5 L 163.0 134.5 L 165.0 134.5 L 166.5 134.5 L 168.5 134.5 L 170.0 134.0 L 171.0 134.0 L 171.5 133.5 L 172.0 133.5 L 172.0 133.5 L 172.0 133.5 L 172.0 133.5 L 172.0 133.5 L 172.0 133.5 L 172.0 133.5 L 172.0 133.5 L 172.0 133.5 L 172.0 133.5 L 172.0 133.5 L 172.0 134.0 L 172.0 134.0 L 172.0 134.5 L 171.5 135.0 L 171.0 136.0 L 170.0 137.5 L 169.0 139.5 L 167.5 142.0 L 164.5 145.0 L 161.5 148.5 L 158.0 151.5 L 155.0 154.0 L 152.0 156.5 L 149.0 159.0 L 145.5 161.5 L 142.5 164.0 L 140.0 165.5 L 138.0 166.5 L 136.5 167.0 L 135.5 167.5 L 135.5 168.0 L 135.5 168.0 L 135.5 168.0 L 135.5 168.0 L 136.5 167.5 " stroke="black" fill="none" stroke-width="6.0" stroke-linecap="round" stroke-linejoin="round" />
<path d="M 157.5 155.0 L 157.5 156.0 L 157.5 156.5 L 157.5 157.0 L 157.5 157.5 L 158.0 157.5 L 159.5 158.0 L 162.0 159.5 L 165.5 162.0 L 169.5 165.5 L 172.0 168.5 L 173.5 170.5 L 174.0 171.0 " stroke="black" fill="none" stroke-width="6.0" stroke-linecap="round" stroke-linejoin="round" />
<path d="M 176.5 125.0 L 177.5 125.0 L 178.0 125.5 L 178.0 126.0 L 179.0 128.0 L 180.0 130.0 L 181.0 131.5 L 182.0 132.5 " stroke="black" fill="none" stroke-width="6.0" stroke-linecap="round" stroke-linejoin="round" />
<path d="M 188.5 121.5 L 188.0 122.0 L 187.0 122.0 L 187.0 122.0 L 187.0 122.5 L 188.5 124.0 L 190.5 126.5 L 192.5 129.5 L 193.5 131.5 " stroke="black" fill="none" stroke-width="6.0" stroke-linecap="round" stroke-linejoin="round" />
</svg>