<svg xmlns="http://www.w3.org/2000/svg" width="300" height="300" viewBox="0 0 300 300">
<path d="M 138.5 128.5 L 139.0 128.5 L 139.0 128.5 L 139.0 128.5 L 140.0 128.5 L 141.5 128.5 L 144.0 128.5 L 147.0 128.5 L 150.5 128.5 L 155.0 128.0 L 159.5 127.0 L 163.0 126.5 L 166.0 126.0 L 168.0 125.5 L 169.5 125.5 L 170.0 125.5 L 170.5 125.5 L 171.0 125.5 L 171.0 125.5 L 171.5 125.5 L 172.0 125.5 L 172.0 125.5 L 172.0 125.5 L 172.0 125.5 L 172.0 125.5 L 172.0 125.5 L 172.0 125.5 L 172.0 125.5 L 172.0 125.5 L 172.0 125.5 L 172.0 125.5 L 172.0 126.0 L 172.0 127.0 L 171.5 128.0 L 171.0 130.5 L 170.0 133.5 L 169.5 137.0 L 168.5 140.5 L 167.5 144.5 L 166.5 147.5 L 165.0 150.5 L 164.0 153.0 L 162.5 155.0 L 160.5 158.0 L 158.0 160.5 L 155.0 163.5 L 152.5 166.0 L 150.0 168.0 L 148.0 169.0 L 146.5 170.0 L 146.0 170.0 L 146.0 170.0 L 146.0 169.0 " stroke="black" fill="none" stroke-width="6.0" stroke-linecap="round" stroke-linejoin="round" />
<path d="M 144.5 147.5 L 144.5 147.5 L 143.5 147.5 L 143.0 147.5 L 143.0 147.5 L 143.5 147.5 L 145.5 147.0 L 148.5 146.5 L 151.5 146.5 L 156.0 145.5 L 161.5 144.5 L 165.0 143.5 L 166.5 143.0 L 167.0 142.5 L 167.0 143.5 " stroke="black" fill="none" stroke-width="6.0" stroke-linecap="round" stroke-linejoin="round" />
</svg>