<svg xmlns="http://www.w3.org/2000/svg" width="300" height="300" viewBox="0 0 300 300">
<path d="M 140.5 106.5 L 139.5 106.5 L 139.0 106.5 L 139.0 106.5 L 139.0 107.5 L 138.5 110.0 L 136.0 116.5 L 131.0 128.0 L 125.0 139.0 L 120.5 146.5 L 118.5 149.5 L 118.5 149.5 L 118.5 149.0 " stroke="black" fill="none" stroke-width="6.0" stroke-linecap="round" stroke-linejoin="round" />
<path d="M 137.0 122.0 L 136.5 122.0 L 136.0 123.0 L 136.0 123.5 L 136.0 123.5 L 136.0 123.5 L 138.5 123.5 L 141.5 123.0 L 146.5 122.5 L 153.5 122.0 L 161.5 120.0 L 168.5 118.5 L 171.5 117.5 L 172.0 117.5 L 171.5 117.5 L 171.0 117.5 L 171.0 117.5 L 171.0 117.5 L 171.0 117.5 L 171.0 117.5 L 170.5 118.5 L 170.5 119.0 L 170.0 120.0 L 169.5 121.5 L 168.5 123.0 L 167.5 126.0 L 165.5 130.0 L 162.5 135.0 L 159.0 141.5 L 155.0 148.5 L 150.0 155.0 L 144.0 162.5 L 137.0 169.5 L 132.0 174.0 L 128.5 176.0 L 126.5 177.0 L 126.5 177.0 L 126.5 176.0 " stroke="black" fill="none" stroke-width="6.0" stroke-linecap="round" stroke-linejoin="round" />
<path d="M 144.0 147.0 L 142.0 147.0 L 140.5 147.0 L 140.5 147.0 L 142.5 148.0 L 147.5 151.0 L 153.5 155.0 L 159.0 158.0 L 164.0 160.0 L 167.0 161.5 L 168.0 161.5 " stroke="black" fill="none" stroke-width="6.0" stroke-linecap="round" stroke-linejoin="round" />
<path d="M 167.5 105.0 L 166.5 105.0 L 166.0 105.0 L 166.0 106.0 L 167.0 108.0 L 168.5 110.0 L 170.5 110.5 " stroke="black" fill="none" stroke-width="6.0" stroke-linecap="round" stroke-linejoin="round" />
<path d="M 176.5 102.0 L 176.5 102.0 L 177.0 102.0 L 177.0 102.0 L 177.5 102.0 L 178.5 103.5 L 179.5 105.5 L 181.0 108.5 L 182.0 110.5 " stroke="black" fill="none" stroke-width="6.0" stroke-linecap="round" stroke-linejoin="round" />
</svg>