<svg xmlns="http://www.w3.org/2000/svg" width="300" height="300" viewBox="0 0 300 300">
<path d="M 131.0 152.5 L 131.0 152.5 L 131.0 152.5 L 131.0 153.0 L 131.0 153.0 L 131.0 153.0 L 131.0 153.0 L 132.0 153.0 L 134.5 153.0 L 139.5 153.0 L 145.5 153.0 L 151.5 152.5 L 156.5 152.5 L 160.0 152.5 L 163.5 152.0 L 166.0 151.5 L 167.0 151.5 L 167.5 151.5 L 167.5 151.5 L 168.0 151.5 L 168.0 151.5 L 168.0 151.5 L 168.5 151.5 L 168.5 151.5 L 168.5 151.5 " stroke="black" fill="none" stroke-width="6.0" stroke-linecap="round" stroke-linejoin="round" />
<path d="M 159.0 140.0 L 159.0 140.0 L 159.0 140.0 L 159.0 140.0 L 159.0 140.0 L 159.0 140.0 L 159.0 140.0 L 159.0 140.5 L 159.0 143.0 L 159.5 147.5 L 160.0 152.5 L 160.0 157.5 L 160.0 162.0 L 160.0 165.0 L 160.0 168.0 L 160.0 170.5 L 159.5 172.5 L 159.5 174.5 L 159.5 176.5 L 159.5 178.5 L 159.5 180.0 L 159.5 182.0 L 160.0 183.0 L 160.0 184.5 L 160.0 185.5 L 159.5 186.5 L 159.0 187.5 L 159.0 188.0 L 158.5 189.0 L 158.5 189.0 L 158.0 189.5 L 157.5 189.5 L 157.0 189.5 L 156.5 189.0 L 155.0 188.5 L 153.5 187.5 L 152.0 187.0 L 151.0 186.5 L 150.0 186.0 L 149.5 186.0 L 149.5 185.5 L 149.5 185.5 " stroke="black" fill="none" stroke-width="6.0" stroke-linecap="round" stroke-linejoin="round" />
<path d="M 155.5 156.5 L 155.5 157.0 L 156.0 157.0 L 156.0 157.5 L 156.0 157.5 L 156.0 157.5 L 156.0 157.5 L 155.5 158.0 L 154.0 159.5 L 152.5 162.5 L 150.0 166.5 L 147.0 171.0 L 143.0 175.0 L 139.5 178.5 L 136.5 181.0 L 135.0 182.0 L 134.0 182.0 L 133.5 182.0 L 133.0 182.5 " stroke="black" fill="none" stroke-width="6.0" stroke-linecap="round" stroke-linejoin="round" />
</svg>