<svg xmlns="http://www.w3.org/2000/svg" width="300" height="300" viewBox="0 0 300 300">
<path d="M 140.5 125.0 L 140.5 124.5 L 140.5 124.5 L 140.5 124.0 L 140.5 123.5 L 140.5 123.5 L 140.5 123.5 L 140.5 123.5 L 140.5 126.5 L 140.0 132.5 L 139.0 144.5 L 136.5 160.0 L 133.0 174.5 L 131.0 182.5 L 130.5 184.5 L 130.5 183.5 L 130.0 178.0 " stroke="black" fill="none" stroke-width="6.0" stroke-linecap="round" stroke-linejoin="round" />
<path d="M 131.5 142.0 L 131.5 143.5 L 131.0 144.0 L 131.0 144.0 L 131.0 144.0 L 132.0 144.0 L 134.0 143.5 L 137.5 142.5 L 144.5 140.0 L 152.5 138.0 L 158.5 137.5 L 162.0 138.0 L 164.0 139.5 L 165.0 141.5 L 165.5 143.5 L 166.0 147.0 L 166.5 151.5 L 167.0 156.0 L 167.0 161.0 L 166.0 167.0 L 164.5 173.0 L 162.5 179.0 L 161.0 183.5 L 160.5 186.5 L 160.0 187.5 L 160.0 187.5 L 158.5 185.5 L 156.0 182.5 L 153.0 179.0 L 151.5 176.5 L 151.0 176.0 " stroke="black" fill="none" stroke-width="6.0" stroke-linecap="round" stroke-linejoin="round" />
<path d="M 173.5 131.5 L 173.5 131.5 L 174.0 131.0 L 174.0 131.0 L 174.5 131.0 L 177.0 135.0 L 180.5 143.5 L 184.0 150.5 L 186.0 154.0 L 186.5 154.0 " stroke="black" fill="none" stroke-width="6.0" stroke-linecap="round" stroke-linejoin="round" />
</svg>