<svg xmlns="http://www.w3.org/2000/svg" width="300" height="300" viewBox="0 0 300 300">
<path d="M 129.0 117.5 L 129.0 117.5 L 129.5 117.5 L 129.5 117.5 L 129.5 117.5 L 129.5 117.5 L 129.5 119.0 L 129.5 122.5 L 129.5 129.5 L 129.5 140.0 L 129.5 151.0 L 131.0 159.0 L 132.0 161.5 L 133.0 163.0 L 133.5 165.0 L 133.5 167.0 L 133.5 168.0 L 133.5 168.5 L 133.5 168.5 L 133.5 168.5 L 133.5 168.0 L 133.5 167.0 L 134.0 165.0 L 134.0 163.0 L 135.0 161.0 L 136.0 158.5 L 137.5 156.0 L 139.0 154.5 L 140.0 153.5 L 141.0 153.0 L 142.0 152.5 " stroke="black" fill="none" stroke-width="6.0" stroke-linecap="round" stroke-linejoin="round" />
<path d="M 150.0 125.0 L 149.0 125.5 L 148.5 126.0 L 148.5 126.0 L 149.5 126.5 L 152.0 126.5 L 157.0 126.5 L 163.0 126.5 L 170.0 125.0 L 176.0 123.0 L 178.5 122.0 L 178.5 122.0 L 177.5 122.5 L 176.5 123.0 " stroke="black" fill="none" stroke-width="6.0" stroke-linecap="round" stroke-linejoin="round" />
<path d="M 167.5 109.5 L 167.5 109.5 L 166.5 109.0 L 166.5 108.5 L 166.5 108.5 L 166.5 109.5 L 167.5 112.5 L 169.0 118.5 L 170.0 137.0 L 170.0 144.5 L 168.5 151.0 L 165.0 158.5 L 161.5 164.0 L 159.0 166.0 L 158.0 166.0 L 157.5 165.0 L 157.5 164.0 " stroke="black" fill="none" stroke-width="6.0" stroke-linecap="round" stroke-linejoin="round" />
</svg>