<svg xmlns="http://www.w3.org/2000/svg" width="300" height="300" viewBox="0 0 300 300">
<path d="M 150.5 104.5 L 150.5 104.0 L 150.5 103.5 L 150.0 103.5 L 150.0 103.5 L 150.5 105.5 L 150.5 110.0 L 150.5 114.5 L 150.5 118.0 L 150.5 120.0 L 151.0 120.0 " stroke="black" fill="none" stroke-width="6.0" stroke-linecap="round" stroke-linejoin="round" />
<path d="M 137.5 124.5 L 137.5 124.5 L 137.0 124.0 L 137.0 124.0 L 136.5 124.0 L 136.5 124.0 L 137.5 123.5 L 139.5 123.5 L 144.0 123.5 L 150.5 123.5 L 157.5 123.5 L 163.5 123.5 L 166.0 124.0 L 167.0 124.5 L 167.0 124.5 L 167.0 124.5 L 167.0 124.5 L 167.0 124.5 L 167.0 124.5 L 167.0 124.5 L 167.0 124.5 L 167.0 124.5 L 167.0 124.5 L 167.0 124.5 L 167.0 124.5 L 167.0 124.5 L 167.0 124.5 L 167.0 124.5 L 167.0 124.5 L 167.0 124.5 L 167.0 125.0 L 166.5 126.0 L 165.5 128.0 L 163.5 131.0 L 161.5 135.5 L 159.0 140.5 L 157.0 145.0 L 155.0 149.0 L 152.5 152.5 L 150.0 155.5 L 147.5 158.5 L 144.5 161.5 L 142.0 163.5 L 140.0 165.5 L 138.0 167.5 L 137.0 168.0 L 136.5 168.5 L 136.5 168.5 L 136.5 168.5 L 136.5 168.5 L 136.5 168.5 L 136.5 168.5 " stroke="black" fill="none" stroke-width="6.0" stroke-linecap="round" stroke-linejoin="round" />
<path d="M 140.0 135.5 L 140.0 135.5 L 140.0 135.5 L 140.0 135.5 L 140.0 136.0 L 140.5 136.0 L 141.0 137.0 L 143.5 141.5 L 146.5 145.5 L 150.5 150.0 L 155.5 154.5 L 160.0 158.5 L 164.0 161.0 L 168.0 163.5 L 171.5 166.0 L 174.0 167.0 L 175.5 167.5 L 176.5 168.0 L 177.0 168.0 L 177.5 168.0 L 177.5 168.0 L 177.5 168.0 L 177.5 168.0 " stroke="black" fill="none" stroke-width="6.0" stroke-linecap="round" stroke-linejoin="round" />
</svg>