<svg xmlns="http://www.w3.org/2000/svg" width="300" height="300" viewBox="0 0 300 300">
<path d="M 130.5 131.5 L 130.5 131.5 L 130.5 132.0 L 130.0 132.0 L 129.5 132.0 L 129.5 132.0 L 129.5 132.0 L 131.0 132.0 L 134.5 132.0 L 140.5 132.0 L 150.0 131.5 L 160.0 130.0 L 167.5 128.5 L 171.5 127.0 L 172.5 126.0 L 172.0 125.5 L 172.0 124.5 " stroke="black" fill="none" stroke-width="6.0" stroke-linecap="round" stroke-linejoin="round" />
<path d="M 157.0 116.0 L 157.5 116.0 L 157.5 116.0 L 158.0 116.0 L 158.5 116.5 L 158.5 117.5 L 159.5 119.5 L 160.5 122.5 L 162.0 127.0 L 164.0 131.0 L 166.5 135.0 L 169.5 139.0 L 171.5 142.0 L 173.0 144.5 L 174.5 146.0 L 175.0 146.5 L 175.0 146.5 L 175.0 146.5 L 175.0 146.0 L 175.0 146.0 L 175.0 146.0 L 175.0 146.0 L 175.0 146.0 L 175.0 146.0 L 175.0 146.0 L 175.0 146.0 L 175.0 146.0 L 174.5 146.0 L 174.5 146.5 L 173.5 147.5 L 172.5 149.0 L 170.5 151.0 L 167.5 153.0 L 164.0 154.5 L 161.5 155.5 L 160.0 155.5 L 159.5 155.5 L 159.5 156.0 L 159.5 156.0 L 159.5 156.0 " stroke="black" fill="none" stroke-width="6.0" stroke-linecap="round" stroke-linejoin="round" />
<path d="M 133.5 162.5 L 134.0 162.5 L 134.5 162.0 L 135.0 162.0 L 135.0 161.5 L 135.0 161.5 L 135.0 161.5 L 135.0 162.0 L 134.5 164.0 L 134.0 167.5 L 133.0 172.5 L 133.0 177.0 L 134.0 181.0 L 137.0 184.0 L 141.0 185.0 L 146.0 186.0 L 151.5 186.5 L 156.5 187.0 L 161.5 187.5 L 166.0 187.5 " stroke="black" fill="none" stroke-width="6.0" stroke-linecap="round" stroke-linejoin="round" />
</svg>