<svg xmlns="http://www.w3.org/2000/svg" width="300" height="300" viewBox="0 0 300 300">
<path d="M 122.5 127.5 L 121.5 127.5 L 120.5 127.5 L 120.0 127.0 L 120.0 127.0 L 120.5 126.5 L 122.0 126.5 L 125.0 126.0 L 130.0 125.5 L 138.5 123.5 L 148.5 121.0 L 155.5 118.5 L 157.5 118.0 L 158.0 117.5 L 157.5 117.5 L 157.0 117.5 L 156.0 117.5 " stroke="black" fill="none" stroke-width="6.0" stroke-linecap="round" stroke-linejoin="round" />
<path d="M 142.0 104.0 L 142.0 104.0 L 141.5 104.0 L 141.5 104.0 L 141.5 104.0 L 141.5 105.0 L 142.0 108.0 L 143.0 113.0 L 144.0 120.5 L 144.5 129.5 L 144.5 139.0 L 144.0 147.5 L 143.5 154.5 L 143.5 162.0 L 143.5 168.5 L 143.5 174.5 L 143.5 179.0 L 143.0 182.5 L 142.5 185.0 L 141.0 186.5 L 139.5 187.0 L 137.0 187.0 L 133.5 187.0 L 130.0 186.0 L 127.0 184.5 L 125.5 182.5 L 125.5 180.0 L 125.5 176.5 L 125.5 173.5 L 126.5 169.5 L 128.5 165.0 L 131.0 160.0 L 133.5 155.5 L 136.5 152.0 L 139.5 149.5 L 143.0 147.5 L 147.0 145.0 L 151.0 143.0 L 154.5 141.0 L 158.0 140.0 L 161.5 139.5 L 165.0 139.0 L 168.5 139.0 L 171.0 139.5 L 172.5 141.5 L 174.5 144.0 L 176.0 147.0 L 177.0 150.0 L 178.0 154.0 L 178.5 157.5 L 178.5 161.0 L 179.0 164.5 L 179.0 167.5 L 178.5 170.5 L 177.5 173.5 L 176.0 176.5 L 174.0 179.0 L 172.0 181.0 L 170.0 181.5 L 168.0 182.0 L 165.5 182.5 L 163.0 183.5 L 162.0 183.5 " stroke="black" fill="none" stroke-width="6.0" stroke-linecap="round" stroke-linejoin="round" />
<path d="M 178.5 116.0 L 178.5 116.0 L 178.0 116.0 L 178.0 116.0 L 177.5 116.0 L 177.5 116.0 L 178.0 117.0 L 180.5 119.5 L 184.0 122.5 L 187.5 125.5 L 190.0 127.5 " stroke="black" fill="none" stroke-width="6.0" stroke-linecap="round" stroke-linejoin="round" />
</svg>