<svg xmlns="http://www.w3.org/2000/svg" width="300" height="300" viewBox="0 0 300 300">
<path d="M 134.5 135.0 L 134.5 135.0 L 135.0 135.0 L 135.0 135.0 L 135.0 135.0 L 135.0 135.0 L 136.0 135.5 L 138.0 136.0 L 142.0 136.5 L 148.0 137.0 L 155.0 137.0 L 162.5 136.0 L 169.0 133.5 L 173.5 131.0 L 175.5 130.0 L 175.5 129.5 L 175.0 129.5 " stroke="black" fill="none" stroke-width="6.0" stroke-linecap="round" stroke-linejoin="round" />
<path d="M 136.5 153.5 L 136.5 153.5 L 136.0 154.0 L 136.0 154.0 L 136.0 154.0 L 136.0 154.0 L 137.0 154.0 L 140.5 154.0 L 147.0 154.5 L 156.0 154.5 L 164.5 152.5 L 170.5 150.5 L 172.5 149.5 L 173.0 149.0 " stroke="black" fill="none" stroke-width="6.0" stroke-linecap="round" stroke-linejoin="round" />
<path d="M 156.5 124.5 L 156.5 124.5 L 156.5 124.0 L 156.5 124.0 L 157.0 124.0 L 157.0 125.0 L 157.0 127.5 L 157.5 131.5 L 157.5 137.5 L 157.5 145.0 L 156.5 152.0 L 156.0 158.0 L 155.0 163.5 L 154.0 168.0 L 153.0 172.0 L 151.5 175.0 L 150.0 177.5 L 149.0 179.5 L 148.0 180.5 L 146.5 180.5 L 145.0 180.5 L 143.5 180.5 L 142.0 180.0 L 140.5 179.0 L 139.0 178.0 L 138.0 177.0 L 137.0 175.5 L 137.0 174.0 L 137.0 172.5 L 137.5 171.5 L 139.0 170.5 L 140.0 169.5 L 142.0 169.0 L 144.5 168.5 L 147.5 168.0 L 150.5 167.5 L 153.5 167.5 L 157.0 167.5 L 160.0 168.0 L 163.0 169.0 L 165.5 170.0 L 167.5 171.5 L 170.0 173.5 L 172.5 175.5 L 175.0 176.5 L 177.0 177.0 L 179.0 177.0 L 180.0 177.0 L 180.5 177.0 " stroke="black" fill="none" stroke-width="6.0" stroke-linecap="round" stroke-linejoin="round" />
</svg>