<svg xmlns="http://www.w3.org/2000/svg" width="300" height="300" viewBox="0 0 300 300">
<path d="M 176.0 101.5 L 176.0 101.5 L 176.5 101.0 L 177.0 100.0 L 177.0 99.5 L 177.0 99.5 L 177.0 99.5 L 177.0 99.5 L 177.0 99.5 L 177.0 100.0 L 177.0 101.0 L 177.0 103.0 L 177.0 105.5 L 177.0 108.0 L 177.0 111.0 L 176.5 113.5 L 176.5 116.5 L 176.0 119.0 L 176.0 122.0 L 176.0 124.5 L 176.0 127.0 L 176.0 129.5 L 176.0 131.5 L 176.0 133.0 L 176.0 135.0 L 176.0 138.0 L 176.0 141.0 L 176.0 144.0 L 176.0 146.5 L 176.0 149.0 L 176.0 151.5 L 176.0 154.0 L 176.0 155.5 L 176.0 157.5 L 176.0 159.5 L 176.0 161.0 L 176.0 163.0 L 176.0 165.0 L 176.0 167.0 L 175.5 168.5 L 175.5 170.5 L 175.0 172.5 L 175.0 174.5 L 175.0 175.5 L 175.0 176.5 L 175.0 177.5 L 175.0 178.5 L 175.0 180.0 L 175.0 181.0 L 175.0 182.0 L 174.5 182.5 L 174.5 183.5 L 174.5 185.0 L 174.5 186.0 L 174.5 187.5 L 174.5 188.5 L 174.5 189.5 L 174.5 190.0 L 174.5 190.5 L 174.5 191.5 L 174.5 192.0 L 174.5 192.5 L 174.5 192.5 L 174.5 193.0 L 174.5 193.5 L 174.5 194.5 L 174.5 195.0 L 174.5 195.0 L 174.5 195.5 L 174.5 196.0 L 174.5 196.5 L 174.5 197.0 L 174.5 197.0 L 174.5 197.5 L 174.5 197.5 L 174.5 197.5 L 174.5 198.0 L 174.5 198.0 L 174.5 198.0 L 174.5 198.0 L 174.5 198.0 L 174.5 198.0 L 174.5 198.0 L 175.0 198.0 L 175.0 198.0 L 175.5 198.0 L 176.0 197.5 L 176.5 197.5 L 177.0 197.0 L 178.0 196.5 L 179.5 196.5 L 180.5 196.0 L 181.5 196.0 L 182.5 195.5 L 184.0 195.5 L 185.0 195.5 L 186.5 195.5 L 187.5 195.5 L 188.5 195.0 L 189.5 195.0 L 190.5 195.0 L 191.5 195.0 L 192.0 195.0 L 192.5 195.0 L 193.0 195.0 L 193.5 195.0 L 194.0 195.0 L 194.0 195.0 L 194.5 195.0 L 194.5 195.0 L 195.0 195.0 L 195.5 195.0 L 196.0 195.0 L 196.0 195.0 L 196.0 195.0 L 196.5 195.5 L 196.5 195.5 L 197.0 195.5 L 197.0 195.5 L 197.5 195.5 L 197.5 195.5 L 197.5 195.5 L 197.5 195.5 L 197.5 195.5 L 197.5 195.5 L 197.5 195.5 L 197.5 195.5 L 197.5 195.5 L 197.0 195.5 L 196.5 195.0 L 196.0 194.5 L 195.5 193.5 L 195.0 193.0 L 194.5 192.5 L 194.0 191.5 L 193.0 191.0 L 192.5 190.0 L 192.0 189.0 L 191.5 188.5 L 191.0 187.5 L 190.5 186.5 L 190.0 186.0 L 189.5 185.0 L 189.0 184.0 L 188.5 183.0 L 188.0 181.5 L 188.0 180.5 L 187.5 179.5 L 187.0 178.0 L 187.0 176.5 L 186.5 175.5 L 186.0 173.5 L 186.0 171.5 L 186.0 170.0 L 185.5 168.5 L 185.5 167.0 L 185.5 165.0 L 185.5 163.0 L 185.5 161.0 L 185.5 159.5 L 185.5 157.5 L 185.5 156.0 L 185.5 154.5 L 185.5 152.5 L 185.5 151.0 L 185.5 149.5 L 185.5 147.5 L 185.5 146.0 L 185.5 144.5 L 185.5 143.0 L 186.0 141.5 L 186.0 140.0 L 186.5 138.5 L 186.5 137.0 L 187.0 135.0 L 187.0 133.5 L 187.5 132.0 L 187.5 130.5 L 188.0 128.5 L 188.5 126.5 L 189.0 124.5 L 189.5 122.5 L 189.5 121.0 L 190.0 119.0 L 190.5 117.5 L 191.0 116.0 L 191.0 115.0 L 191.5 114.0 L 191.5 113.5 L 192.0 113.0 L 192.0 112.0 L 192.0 111.5 L 192.5 111.0 L 192.5 110.5 L 193.0 109.5 L 193.0 109.0 L 193.5 108.5 L 193.5 108.0 L 194.0 107.5 L 194.0 107.0 L 194.5 106.5 L 194.5 106.5 L 194.5 106.0 L 194.5 105.5 L 195.0 105.5 L 195.0 105.0 L 195.5 104.5 L 195.5 104.5 L 196.0 104.0 L 196.0 104.0 L 196.5 103.5 L 196.5 103.5 L 197.0 103.5 L 197.0 103.0 L 197.5 102.5 L 198.0 102.5 L 198.0 102.0 L 198.5 102.0 L 198.5 102.0 L 199.0 101.5 L 199.0 101.5 L 199.5 101.0 L 199.5 101.0 L 200.0 101.0 L 200.0 101.0 L 200.0 100.5 L 200.5 100.5 L 200.5 100.5 L 200.5 100.5 L 200.5 100.5 L 200.5 100.5 L 200.5 100.5 L 200.5 100.5 L 200.5 100.5 L 200.0 100.5 L 199.5 100.5 L 198.5 100.5 L 197.5 100.5 L 196.5 101.0 L 195.5 101.0 L 194.5 101.0 L 193.5 101.5 L 192.5 101.5 L 191.5 101.5 L 190.5 101.5 L 189.5 101.5 L 188.0 102.0 L 187.0 102.0 L 185.5 102.0 L 184.5 102.5 L 183.0 102.5 L 181.5 102.5 L 180.5 102.5 L 179.5 102.5 L 178.5 102.5 L 178.5 102.5 L 178.0 102.5 L 178.0 102.5 L 178.5 102.5 " stroke="black" fill="none" stroke-width="7.0" stroke-linecap="round" stroke-linejoin="round" />
</svg>