<svg xmlns="http://www.w3.org/2000/svg" width="300" height="300" viewBox="0 0 300 300">
<path d="M 136.0 133.5 L 135.5 134.0 L 135.0 134.5 L 134.5 134.5 L 134.5 134.5 L 134.5 134.5 L 135.5 134.5 L 138.5 135.0 L 143.5 135.5 L 150.0 135.5 L 157.5 134.5 L 163.5 133.0 L 167.0 132.5 L 167.5 133.0 L 167.5 133.0 " stroke="black" fill="none" stroke-width="6.0" stroke-linecap="round" stroke-linejoin="round" />
<path d="M 135.5 159.0 L 135.5 159.0 L 136.0 158.5 L 136.0 158.0 L 136.0 157.5 L 136.5 157.0 L 136.5 156.5 L 136.5 156.5 L 136.5 156.5 L 136.5 156.5 L 136.5 158.0 L 136.5 160.5 L 136.0 164.5 L 136.0 168.5 L 136.0 171.5 L 136.5 174.0 L 137.5 176.0 L 139.5 177.0 L 142.0 178.0 L 145.0 178.5 L 148.5 178.5 L 152.5 177.0 L 156.0 175.5 L 159.0 174.5 L 162.0 173.5 L 163.5 173.0 L 164.0 173.0 L 164.0 172.5 L 164.0 172.5 L 164.5 172.5 L 165.0 173.0 L 165.5 173.0 " stroke="black" fill="none" stroke-width="6.0" stroke-linecap="round" stroke-linejoin="round" />
</svg>