<svg xmlns="http://www.w3.org/2000/svg" width="300" height="300" viewBox="0 0 300 300">
<path d="M 135.5 143.5 L 135.5 143.5 L 136.0 144.0 L 136.0 144.0 L 136.0 144.0 L 136.5 144.0 L 138.0 144.0 L 140.0 144.0 L 143.5 144.0 L 148.5 144.0 L 153.5 144.0 L 158.5 143.5 L 163.0 143.0 L 166.5 143.0 L 169.0 142.5 L 170.5 142.5 L 171.0 142.5 L 171.5 142.5 L 171.5 142.5 L 171.5 142.5 L 171.5 142.5 L 171.5 142.5 L 171.5 142.5 L 171.5 142.5 L 171.5 142.5 L 171.5 142.5 L 171.5 142.5 L 171.5 142.5 L 171.5 142.5 L 171.5 142.5 L 171.5 142.5 L 171.5 142.5 L 171.5 142.5 L 171.5 142.5 L 171.5 142.5 L 171.5 142.5 L 171.5 142.5 L 172.0 142.5 L 172.0 142.5 L 172.0 142.5 L 172.0 143.0 L 172.0 143.5 L 172.0 145.0 L 171.5 146.5 L 171.0 148.5 L 169.5 151.0 L 168.0 154.0 L 166.0 157.5 L 163.5 161.0 L 161.5 164.5 L 159.0 168.0 L 156.0 171.5 L 153.5 174.5 L 150.5 177.5 L 147.5 180.5 L 144.0 183.0 L 141.5 185.0 L 139.5 186.0 L 139.0 186.0 L 139.0 186.0 L 139.5 185.5 " stroke="black" fill="none" stroke-width="6.0" stroke-linecap="round" stroke-linejoin="round" />
<path d="M 180.0 134.5 L 180.5 134.0 L 180.5 133.5 L 180.5 133.0 L 180.0 132.5 L 179.5 132.5 L 178.0 132.5 L 177.0 133.0 L 175.5 135.0 L 174.5 137.0 L 174.0 139.5 L 174.5 141.5 L 176.0 143.0 L 178.0 143.0 L 180.5 142.5 L 182.5 140.5 L 183.0 137.5 L 183.5 135.0 L 183.5 133.5 L 182.5 132.5 L 181.5 132.0 L 180.0 132.0 L 179.5 132.0 " stroke="black" fill="none" stroke-width="6.0" stroke-linecap="round" stroke-linejoin="round" />
</svg>