<svg xmlns="http://www.w3.org/2000/svg" width="300" height="300" viewBox="0 0 300 300">
<path d="M 154.0 126.5 L 153.5 125.5 L 152.5 125.0 L 152.5 125.0 L 152.5 125.0 L 153.5 125.5 L 154.5 126.0 L 156.5 126.5 L 158.0 127.5 L 160.0 128.0 L 162.5 129.0 L 164.5 130.0 L 166.5 131.0 L 167.5 132.0 L 168.5 132.5 L 169.0 132.5 L 169.0 132.5 L 169.0 132.5 L 168.5 132.5 L 168.5 132.5 L 167.5 132.5 L 166.5 133.0 L 165.5 134.0 L 163.5 135.5 L 162.0 137.5 L 160.0 140.0 L 159.0 141.5 L 158.0 143.0 L 158.0 144.0 L 158.0 144.0 " stroke="black" fill="none" stroke-width="6.0" stroke-linecap="round" stroke-linejoin="round" />
<path d="M 147.0 151.5 L 147.0 151.5 L 146.5 151.5 L 146.0 151.5 L 146.0 151.5 L 146.0 151.5 L 146.0 151.5 L 146.5 151.5 L 147.5 151.5 L 149.0 152.5 L 150.5 154.0 L 152.5 156.5 L 154.5 159.5 L 156.5 162.0 L 157.5 165.0 L 158.5 168.0 L 158.5 170.5 L 159.0 172.0 L 159.0 173.5 L 159.0 174.5 L 158.5 176.5 L 157.5 178.5 L 156.5 180.5 L 155.5 182.0 L 154.5 183.0 L 153.5 183.5 L 152.5 183.5 L 151.5 183.5 L 150.0 182.5 L 148.5 181.5 L 147.0 180.5 L 146.5 180.0 L 146.5 179.5 " stroke="black" fill="none" stroke-width="6.0" stroke-linecap="round" stroke-linejoin="round" />
<path d="M 137.0 159.0 L 137.0 159.5 L 137.0 160.0 L 137.0 161.0 L 136.0 162.5 L 133.0 166.0 L 129.0 170.5 L 125.5 173.5 L 123.5 174.5 L 123.5 175.0 " stroke="black" fill="none" stroke-width="6.0" stroke-linecap="round" stroke-linejoin="round" />
<path d="M 169.0 155.0 L 169.0 155.0 L 168.0 155.5 L 168.0 155.5 L 168.0 155.5 L 170.0 156.5 L 173.5 159.5 L 178.0 165.0 L 181.5 169.0 L 184.0 171.5 L 184.5 172.0 " stroke="black" fill="none" stroke-width="6.0" stroke-linecap="round" stroke-linejoin="round" />
</svg>