<svg xmlns="http://www.w3.org/2000/svg" width="300" height="300" viewBox="0 0 300 300">
<path d="M 114.5 119.0 L 114.5 119.0 L 113.0 119.0 L 112.5 118.5 L 112.5 118.5 L 112.5 118.5 L 112.5 118.5 L 113.0 118.5 L 113.0 119.5 L 114.0 122.0 L 115.5 128.5 L 117.5 139.5 L 120.0 151.0 L 123.0 161.5 L 126.0 170.0 L 128.5 174.5 L 130.5 177.0 L 133.0 178.5 L 135.5 179.0 L 138.0 179.0 L 141.0 176.0 L 143.5 171.0 L 145.0 165.5 L 145.5 160.0 L 146.0 157.0 L 146.0 156.5 " stroke="black" fill="none" stroke-width="6.0" stroke-linecap="round" stroke-linejoin="round" />
<path d="M 156.0 111.5 L 156.0 111.5 L 155.5 111.5 L 155.5 111.5 L 155.5 111.5 L 157.0 112.0 L 159.5 114.5 L 164.0 119.5 L 169.0 128.0 L 171.5 134.0 L 172.5 138.5 L 172.5 141.5 L 172.5 144.0 " stroke="black" fill="none" stroke-width="6.0" stroke-linecap="round" stroke-linejoin="round" />
</svg>