<svg xmlns="http://www.w3.org/2000/svg" width="300" height="300" viewBox="0 0 300 300">
<path d="M 141.5 128.0 L 141.0 128.0 L 140.5 127.0 L 140.5 126.5 L 140.0 126.5 L 140.0 126.0 L 140.5 127.5 L 141.0 132.5 L 141.5 141.0 L 141.5 155.0 L 139.5 168.5 L 137.0 178.0 L 136.0 181.0 L 135.5 181.0 L 135.0 179.5 L 134.5 177.5 " stroke="black" fill="none" stroke-width="6.0" stroke-linecap="round" stroke-linejoin="round" />
<path d="M 133.0 145.5 L 133.0 145.5 L 133.0 145.5 L 133.0 146.0 L 133.0 146.0 L 133.5 146.0 L 135.5 145.0 L 139.5 143.0 L 146.0 141.0 L 152.5 139.5 L 157.5 139.0 L 160.0 139.0 L 161.0 140.5 L 161.5 142.5 L 161.5 145.0 L 161.5 148.0 L 162.0 152.0 L 162.5 157.5 L 162.5 162.5 L 162.5 168.0 L 161.5 173.0 L 160.0 176.5 L 157.5 179.5 L 156.0 180.0 L 155.0 180.0 L 154.0 178.0 L 153.0 175.0 L 152.5 174.0 " stroke="black" fill="none" stroke-width="6.0" stroke-linecap="round" stroke-linejoin="round" />
<path d="M 173.0 133.5 L 173.0 134.0 L 173.0 134.5 L 173.0 134.5 L 173.5 135.0 L 175.0 137.0 L 177.5 142.0 L 181.0 148.0 L 183.0 151.5 L 184.0 152.5 " stroke="black" fill="none" stroke-width="6.0" stroke-linecap="round" stroke-linejoin="round" />
<path d="M 171.0 111.0 L 171.0 110.5 L 171.0 110.0 L 171.0 109.5 L 171.0 109.0 L 171.5 109.0 L 173.0 111.5 L 175.0 115.0 L 176.5 118.0 L 177.5 119.0 " stroke="black" fill="none" stroke-width="6.0" stroke-linecap="round" stroke-linejoin="round" />
<path d="M 183.0 107.5 L 183.0 107.5 L 183.0 107.0 L 183.5 107.0 L 183.5 107.0 L 184.5 107.5 L 185.5 109.5 L 187.0 113.0 L 188.5 116.5 L 190.0 119.5 " stroke="black" fill="none" stroke-width="6.0" stroke-linecap="round" stroke-linejoin="round" />
</svg>