<svg xmlns="http://www.w3.org/2000/svg" width="300" height="300" viewBox="0 0 300 300">
<path d="M 123.0 145.5 L 123.0 145.5 L 122.0 145.5 L 121.5 145.5 L 121.5 145.5 L 122.0 145.5 L 124.0 144.5 L 127.5 143.0 L 131.0 141.5 L 136.0 139.5 L 142.0 137.5 L 146.0 136.0 L 148.0 135.5 L 149.0 135.0 L 149.0 135.0 L 149.5 135.0 L 149.5 135.0 L 150.0 135.0 L 150.0 135.5 " stroke="black" fill="none" stroke-width="6.0" stroke-linecap="round" stroke-linejoin="round" />
<path d="M 126.0 159.0 L 125.5 159.5 L 125.0 160.0 L 125.0 160.5 L 125.0 160.5 L 127.0 159.5 L 130.5 158.0 L 136.0 156.5 L 143.5 154.5 L 150.5 152.5 L 156.0 151.0 L 158.0 150.5 L 158.5 150.5 L 158.0 150.5 " stroke="black" fill="none" stroke-width="6.0" stroke-linecap="round" stroke-linejoin="round" />
<path d="M 134.0 129.5 L 134.0 129.5 L 134.0 129.0 L 134.0 129.0 L 134.0 129.0 L 135.5 131.0 L 137.5 135.0 L 140.5 141.5 L 145.0 151.5 L 149.0 161.0 L 152.5 168.5 L 155.0 174.0 L 157.0 177.0 L 158.0 179.5 L 158.0 180.5 " stroke="black" fill="none" stroke-width="6.0" stroke-linecap="round" stroke-linejoin="round" />
</svg>