<svg xmlns="http://www.w3.org/2000/svg" width="300" height="300" viewBox="0 0 300 300">
<path d="M 119.5 128.5 L 119.5 128.5 L 119.0 128.5 L 118.5 128.5 L 118.0 128.5 L 117.5 128.5 L 117.5 128.5 L 117.5 128.5 L 117.5 128.5 L 118.5 128.5 L 121.5 128.5 L 127.5 128.5 L 135.5 128.0 L 144.5 127.0 L 151.0 126.0 L 154.5 125.0 L 156.5 124.5 L 156.5 124.5 L 156.5 124.5 L 155.5 124.0 " stroke="black" fill="none" stroke-width="6.0" stroke-linecap="round" stroke-linejoin="round" />
<path d="M 142.5 114.0 L 142.5 114.0 L 142.5 114.0 L 142.5 114.0 L 142.5 114.0 L 142.5 114.0 L 142.5 114.0 L 142.5 114.0 L 142.0 114.0 L 142.0 114.0 L 142.0 114.0 L 142.0 114.0 L 142.0 114.0 L 142.0 114.0 L 142.0 114.0 L 142.0 114.5 L 142.0 115.0 L 142.0 115.5 L 142.0 116.5 L 142.0 117.5 L 142.0 118.5 L 142.0 120.0 L 142.0 121.5 L 142.0 123.0 L 142.0 125.0 L 142.0 127.0 L 142.0 129.0 L 142.0 131.0 L 142.0 133.0 L 142.0 135.0 L 142.0 137.0 L 142.0 139.0 L 142.0 140.5 L 142.0 141.5 L 141.5 143.0 L 141.5 144.5 L 141.5 146.0 L 141.0 148.0 L 140.5 149.5 L 140.0 150.5 L 140.0 151.0 L 140.0 151.5 L 140.0 152.0 L 139.5 153.0 L 139.0 154.5 L 138.5 155.5 L 138.0 157.0 L 138.0 157.5 L 137.5 158.5 L 137.0 159.0 L 136.5 159.5 L 136.0 160.5 L 135.0 161.5 L 134.5 162.0 L 133.5 162.5 L 133.0 163.0 L 132.5 163.0 L 131.5 163.5 L 131.0 163.5 L 130.0 163.5 L 129.5 163.5 L 129.0 163.0 L 128.5 162.5 L 128.0 162.0 L 127.5 161.0 L 127.0 160.5 L 126.5 159.5 L 126.0 159.0 L 126.0 158.5 L 125.5 157.5 L 125.5 156.5 L 125.5 156.0 L 125.0 155.0 L 125.0 154.0 L 125.0 153.0 L 125.0 152.0 L 125.5 151.0 L 126.0 150.0 L 126.5 149.0 L 127.0 148.0 L 127.5 147.5 L 128.5 146.5 L 129.5 146.0 L 130.5 145.0 L 131.5 144.5 L 132.5 144.5 L 133.0 144.5 L 134.0 144.5 L 135.0 144.5 L 135.5 144.5 L 136.5 144.5 L 137.0 145.0 L 138.0 145.0 L 138.5 145.0 L 139.0 145.5 L 140.0 146.0 L 140.5 146.5 L 141.0 147.0 L 141.5 147.5 L 141.5 148.0 L 142.0 149.5 L 142.0 150.5 L 142.0 151.5 L 142.0 153.0 L 142.0 154.5 L 141.5 156.5 L 141.5 158.0 L 141.5 159.5 L 141.0 161.0 L 141.0 162.5 L 141.0 164.0 L 141.0 165.5 L 141.0 167.0 L 141.0 169.0 L 141.0 170.5 L 141.5 172.0 L 142.0 173.5 L 142.5 174.5 L 143.5 175.5 L 144.0 176.5 L 145.0 177.0 L 146.0 178.0 L 147.0 178.5 L 148.5 179.0 L 150.0 179.5 L 151.5 179.5 L 153.0 179.5 L 155.0 179.5 L 157.5 179.5 L 159.5 179.0 L 162.0 178.0 L 164.5 176.5 L 167.5 175.0 L 169.5 173.5 L 171.5 172.0 L 173.0 170.0 L 173.5 168.0 L 173.5 167.0 L 173.5 166.0 L 173.5 166.0 L 173.0 165.5 L 173.0 165.5 " stroke="black" fill="none" stroke-width="6.0" stroke-linecap="round" stroke-linejoin="round" />
<path d="M 168.5 119.0 L 166.0 119.0 L 165.0 119.0 L 165.0 118.5 L 165.0 118.5 L 166.5 119.5 L 169.0 121.5 L 171.5 123.5 L 174.0 126.0 L 176.0 128.0 L 177.5 130.5 L 178.0 132.0 " stroke="black" fill="none" stroke-width="6.0" stroke-linecap="round" stroke-linejoin="round" />
</svg>