<svg xmlns="http://www.w3.org/2000/svg" width="300" height="300" viewBox="0 0 300 300">
<path d="M 153.0 112.5 L 153.0 112.0 L 153.0 112.0 L 153.5 111.5 L 153.5 111.0 L 153.5 111.0 L 153.5 111.0 L 153.5 111.5 L 154.0 113.5 L 154.0 117.0 L 154.5 122.0 L 155.0 127.5 L 155.5 133.0 L 155.5 137.5 L 156.0 142.0 L 156.5 146.0 L 156.5 149.0 L 156.5 152.5 L 156.5 155.5 L 155.5 158.5 L 155.0 161.5 L 154.0 163.0 L 153.5 164.5 L 152.5 166.0 L 151.5 168.0 L 150.5 169.5 L 149.5 170.0 L 148.5 170.5 L 147.5 170.5 L 146.0 170.5 L 144.5 170.0 L 143.0 169.5 L 142.0 169.0 L 141.0 168.5 L 140.5 167.0 L 139.5 165.5 L 139.5 164.0 L 139.5 162.0 L 139.5 160.0 L 140.5 158.0 L 141.5 156.0 L 142.5 155.0 L 143.5 154.0 L 145.0 153.5 L 146.5 153.5 L 148.0 153.5 L 150.0 153.5 L 151.5 153.5 L 153.5 154.0 L 155.5 155.0 L 157.5 155.5 L 159.5 156.0 L 161.5 157.0 L 163.5 158.0 L 165.0 159.0 L 167.0 161.0 L 168.5 163.0 L 170.0 165.0 L 171.0 167.0 L 171.5 168.0 L 171.5 168.5 L 171.5 169.0 L 171.5 169.0 " stroke="black" fill="none" stroke-width="6.0" stroke-linecap="round" stroke-linejoin="round" />
<path d="M 159.5 127.5 L 159.5 128.0 L 159.5 128.0 L 159.5 128.5 L 159.5 128.5 L 159.5 128.5 L 160.5 129.0 L 163.0 129.0 L 167.0 129.5 L 171.0 129.5 L 174.0 129.5 L 175.5 129.5 L 176.5 129.5 L 176.5 129.5 " stroke="black" fill="none" stroke-width="6.0" stroke-linecap="round" stroke-linejoin="round" />
</svg>