<svg xmlns="http://www.w3.org/2000/svg" width="300" height="300" viewBox="0 0 300 300">
<path d="M 187.5 122.5 L 187.5 122.5 L 187.0 122.5 L 186.5 122.5 L 186.0 122.5 L 185.5 122.5 L 185.0 124.0 L 184.5 127.0 L 183.5 130.5 L 181.5 135.0 L 179.5 139.5 L 177.0 143.0 L 175.0 146.0 L 173.5 148.0 L 172.5 149.0 L 172.0 150.5 L 171.0 152.0 L 170.5 152.5 L 169.5 153.5 L 169.0 154.0 L 168.0 155.0 L 167.5 155.5 L 167.5 156.0 L 167.0 156.0 L 167.0 156.5 L 167.0 156.5 L 167.0 156.5 L 167.0 156.5 L 167.0 156.5 L 167.0 156.5 L 167.0 156.5 L 167.5 156.5 L 167.5 156.5 L 168.5 157.0 L 169.0 157.5 L 170.0 159.0 L 171.0 161.0 L 172.0 164.5 L 173.5 168.0 L 174.5 171.5 L 175.5 174.0 L 176.5 176.0 L 177.0 178.0 L 178.0 180.0 L 179.0 181.5 L 179.5 182.5 L 180.5 183.5 L 181.0 184.5 L 181.5 185.5 L 182.0 186.5 L 182.5 187.0 L 183.0 187.5 L 183.0 188.0 L 183.0 188.0 L 183.5 188.5 L 183.5 188.5 L 183.5 188.5 " stroke="black" fill="none" stroke-width="7.0" stroke-linecap="round" stroke-linejoin="round" />
</svg>