<svg xmlns="http://www.w3.org/2000/svg" width="300" height="300" viewBox="0 0 300 300">
<path d="M 133.5 149.5 L 133.5 149.5 L 133.5 150.0 L 133.5 150.5 L 133.5 150.0 L 133.5 148.5 L 133.5 146.0 L 133.5 142.5 L 133.5 138.5 L 133.5 135.0 L 133.5 132.0 L 134.0 130.5 L 134.0 129.5 L 134.0 129.5 L 134.0 130.0 L 134.0 130.5 L 134.0 130.5 L 134.0 130.5 L 134.0 130.5 L 134.0 130.5 L 134.0 131.0 L 134.0 131.0 L 134.0 131.0 L 134.0 131.0 L 134.0 131.0 L 134.5 131.0 L 134.5 131.0 L 135.0 131.0 L 136.0 131.5 L 138.5 131.5 L 142.0 132.0 L 146.0 132.0 L 150.0 132.0 L 152.5 132.0 L 155.0 132.5 L 157.0 132.5 L 160.0 132.5 L 163.0 132.5 L 165.5 132.5 L 168.5 132.5 L 170.5 132.5 L 172.5 132.5 L 174.0 132.5 L 175.0 132.5 L 176.0 132.5 L 176.5 132.5 L 177.0 132.5 L 177.0 132.5 L 177.5 132.5 L 177.5 132.5 L 177.5 132.5 L 177.5 132.5 L 177.5 132.5 L 177.5 132.5 L 177.5 132.5 L 177.5 132.5 L 177.5 132.5 L 177.5 132.5 L 177.5 132.5 L 177.5 132.5 L 177.5 132.5 L 177.5 133.0 L 177.5 133.0 L 177.0 133.5 L 176.5 135.5 L 175.5 138.5 L 174.5 142.0 L 173.0 146.0 L 172.0 149.0 L 171.5 152.0 L 170.0 154.5 L 169.5 156.5 L 168.0 158.5 L 167.5 160.5 L 166.5 161.5 L 166.0 163.0 L 165.0 164.5 L 164.5 166.0 L 163.5 167.5 L 162.0 169.0 L 160.5 170.5 L 159.0 171.5 L 157.0 172.0 L 154.5 173.0 L 152.5 173.5 L 150.5 173.5 L 149.0 173.5 L 147.0 173.5 L 146.0 173.5 L 144.5 174.0 L 143.5 174.0 L 143.0 174.5 L 143.0 174.5 " stroke="black" fill="none" stroke-width="6.0" stroke-linecap="round" stroke-linejoin="round" />
</svg>