<svg xmlns="http://www.w3.org/2000/svg" width="300" height="300" viewBox="0 0 300 300">
<path d="M 142.5 130.5 L 142.0 130.0 L 141.5 129.5 L 141.0 129.0 L 141.0 129.0 L 142.0 129.5 L 144.5 132.0 L 147.5 135.0 L 150.5 138.0 L 152.5 140.5 L 153.5 141.5 L 154.0 142.0 " stroke="black" fill="none" stroke-width="6.0" stroke-linecap="round" stroke-linejoin="round" />
<path d="M 170.5 138.5 L 170.5 139.0 L 170.0 139.0 L 170.0 139.5 L 170.0 139.5 L 170.0 139.5 L 170.0 139.5 L 169.5 141.0 L 168.5 143.5 L 166.5 147.5 L 162.5 153.0 L 156.5 159.0 L 150.5 164.0 L 146.5 166.0 L 144.0 167.0 L 143.5 167.0 L 144.0 167.0 L 144.5 167.0 " stroke="black" fill="none" stroke-width="6.0" stroke-linecap="round" stroke-linejoin="round" />
</svg>