<svg xmlns="http://www.w3.org/2000/svg" width="300" height="300" viewBox="0 0 300 300">
<path d="M 153.0 139.0 L 153.0 138.5 L 153.0 137.5 L 153.0 136.5 L 153.0 135.5 L 152.0 135.0 L 150.5 135.0 L 149.0 135.5 L 147.0 138.0 L 144.5 141.5 L 142.5 146.0 L 141.5 151.0 L 141.5 155.0 L 143.5 157.5 L 145.5 158.0 L 148.0 158.5 L 150.5 158.5 L 152.5 157.5 L 154.5 156.0 L 156.0 152.5 L 157.0 149.0 L 157.5 145.5 L 157.5 142.0 L 157.5 140.0 L 157.0 138.0 L 156.0 136.5 L 155.0 136.0 L 153.5 135.5 L 152.5 135.0 L 151.5 135.0 L 151.0 136.5 L 151.0 136.5 " stroke="black" fill="none" stroke-width="8.0" stroke-linecap="round" stroke-linejoin="round" />
</svg>