<svg xmlns="http://www.w3.org/2000/svg" width="300" height="300" viewBox="0 0 300 300">
<path d="M 137.5 115.0 L 138.0 115.0 L 138.0 115.0 L 138.5 115.0 L 139.0 115.0 L 139.0 115.5 L 139.0 116.0 L 139.5 117.5 L 139.5 121.0 L 139.5 126.5 L 139.5 134.0 L 139.5 143.5 L 139.5 152.0 L 139.5 159.5 L 139.5 166.5 L 139.5 171.0 L 139.5 172.5 L 139.5 172.0 " stroke="black" fill="none" stroke-width="6.0" stroke-linecap="round" stroke-linejoin="round" />
<path d="M 148.0 141.0 L 147.5 141.0 L 146.5 141.0 L 146.0 141.0 L 146.0 141.0 L 147.0 141.0 L 149.0 142.5 L 152.0 145.5 L 155.0 149.5 L 158.0 153.5 L 160.0 156.0 L 161.0 156.0 " stroke="black" fill="none" stroke-width="6.0" stroke-linecap="round" stroke-linejoin="round" />
<path d="M 158.0 123.5 L 158.0 123.5 L 158.5 123.5 L 159.0 123.0 L 159.0 123.0 L 159.5 123.0 L 160.0 123.5 L 161.0 125.0 L 162.0 127.0 L 163.0 129.0 " stroke="black" fill="none" stroke-width="6.0" stroke-linecap="round" stroke-linejoin="round" />
<path d="M 170.5 118.5 L 170.5 118.5 L 170.0 119.0 L 169.5 119.0 L 169.5 119.0 L 170.0 119.0 L 171.0 119.5 L 172.5 121.5 L 174.0 124.5 L 175.5 128.0 L 176.5 131.5 L 176.5 132.0 " stroke="black" fill="none" stroke-width="6.0" stroke-linecap="round" stroke-linejoin="round" />
</svg>