<svg xmlns="http://www.w3.org/2000/svg" width="300" height="300" viewBox="0 0 300 300">
<path d="M 137.5 129.0 L 137.5 128.5 L 138.0 128.5 L 138.0 128.0 L 138.5 127.5 L 138.5 127.0 L 139.0 127.0 L 139.0 127.0 L 139.5 127.0 L 139.5 128.0 L 139.5 129.5 L 139.5 131.5 L 140.0 133.5 L 140.0 136.5 L 140.0 139.5 L 140.5 142.0 L 141.0 145.0 L 141.5 147.5 L 142.5 149.5 L 143.0 152.0 L 144.0 154.5 L 145.0 156.5 L 145.5 158.5 L 146.0 159.5 L 147.0 160.5 L 147.5 161.5 L 148.0 162.5 L 148.5 163.0 L 149.0 163.0 L 149.5 163.5 L 150.0 164.0 L 150.5 164.5 L 151.0 165.0 L 151.5 165.0 L 152.0 165.5 L 152.0 165.5 L 152.5 165.5 L 152.5 165.5 L 153.0 165.5 L 153.5 165.0 L 154.0 164.0 L 155.0 163.0 L 156.0 161.5 L 156.5 160.0 L 157.5 158.5 L 158.0 157.0 L 158.5 155.5 L 159.0 154.5 L 159.0 154.5 L 159.0 154.5 " stroke="black" fill="none" stroke-width="6.0" stroke-linecap="round" stroke-linejoin="round" />
<path d="M 168.5 127.0 L 168.5 126.5 L 168.0 126.5 L 167.5 126.0 L 167.0 125.5 L 167.0 125.5 L 166.5 125.0 L 166.0 124.5 L 166.0 124.0 L 166.0 124.0 L 166.0 123.5 L 166.0 123.5 L 167.0 123.5 L 168.5 125.5 L 170.0 127.5 L 172.0 131.0 L 173.5 136.0 L 174.5 141.5 L 175.0 145.0 L 175.0 147.0 L 175.0 147.5 L 174.5 148.0 L 174.0 148.0 L 173.5 148.0 " stroke="black" fill="none" stroke-width="6.0" stroke-linecap="round" stroke-linejoin="round" />
</svg>