<svg xmlns="http://www.w3.org/2000/svg" width="300" height="300" viewBox="0 0 300 300">
<path d="M 136.0 127.0 L 136.0 127.0 L 136.5 127.0 L 136.5 127.0 L 136.5 126.5 L 136.5 126.5 L 136.5 126.0 L 137.0 126.0 L 139.0 125.5 L 142.5 125.0 L 147.5 124.5 L 152.5 124.0 L 156.5 124.0 L 159.0 124.0 L 161.5 123.5 L 164.0 123.0 L 165.0 122.5 L 165.5 122.5 L 166.0 122.5 L 166.0 122.5 L 166.0 122.5 L 166.5 122.5 L 166.5 122.5 L 166.5 122.5 L 166.5 122.5 L 166.5 122.5 L 166.5 122.5 L 166.5 122.5 L 166.5 122.5 L 166.5 122.5 L 166.5 122.5 L 166.0 122.5 L 166.0 123.0 L 165.0 123.5 L 164.0 124.5 L 162.5 125.5 L 160.5 127.5 L 157.5 129.5 L 155.0 131.5 L 152.0 133.5 L 149.5 135.0 L 148.0 137.0 L 145.5 138.5 L 143.5 140.0 L 142.0 141.0 L 141.0 142.5 L 140.5 143.0 L 140.5 143.5 L 140.5 143.5 L 140.5 143.5 L 140.5 143.5 L 140.5 143.5 L 140.5 143.5 L 140.5 143.5 L 140.5 143.5 L 140.5 143.0 L 140.5 143.0 L 141.0 143.0 L 141.0 143.0 L 142.0 142.5 L 143.5 141.5 L 145.5 140.5 L 149.0 139.0 L 153.0 138.0 L 156.5 136.5 L 159.5 136.0 L 162.0 136.0 L 163.5 136.0 L 165.0 136.5 L 166.5 137.0 L 167.5 137.0 L 168.5 137.5 L 169.5 138.0 L 170.0 139.0 L 170.5 139.5 L 171.0 140.0 L 171.0 140.5 L 171.5 141.0 L 172.0 141.5 L 172.0 142.5 L 172.5 143.0 L 172.5 144.0 L 172.5 145.0 L 173.0 145.5 L 173.0 146.5 L 173.0 147.5 L 173.0 148.0 L 173.0 149.0 L 173.0 149.5 L 172.5 150.5 L 172.5 151.0 L 172.0 151.5 L 171.5 152.5 L 171.5 153.0 L 171.0 153.5 L 170.5 154.0 L 170.0 155.0 L 169.0 155.5 L 168.5 156.5 L 167.5 157.0 L 166.5 158.0 L 165.0 159.0 L 163.5 160.0 L 162.0 161.0 L 160.0 162.0 L 158.5 162.5 L 157.0 163.0 L 155.5 163.0 L 154.0 163.5 L 152.5 163.5 L 150.5 163.5 L 149.0 163.5 L 147.0 163.5 L 145.5 163.5 L 144.0 163.5 L 142.5 163.0 L 141.5 162.0 L 141.5 161.5 L 141.0 160.5 L 141.0 160.0 L 141.5 159.0 L 142.0 158.5 L 142.5 157.5 L 143.5 156.5 L 144.0 156.0 L 145.0 155.0 L 145.5 154.5 L 146.0 154.0 L 147.0 153.5 L 148.0 153.5 L 149.0 153.0 L 150.0 153.0 L 150.5 152.5 L 151.5 152.5 L 152.5 152.5 L 153.5 152.5 L 154.5 153.0 L 155.0 153.5 L 155.5 154.0 L 156.0 154.5 L 156.0 155.0 L 156.5 155.5 L 156.5 156.5 L 156.5 157.0 L 156.5 158.0 L 156.5 159.0 L 156.5 160.0 L 156.0 161.0 L 155.5 162.0 L 155.0 163.0 L 154.5 164.5 L 153.5 165.5 L 153.0 166.5 L 152.0 167.5 L 151.0 168.5 L 150.5 169.5 L 149.5 170.5 L 148.5 171.0 L 147.5 172.0 L 146.5 172.5 L 145.5 173.5 L 144.5 174.0 L 143.5 175.0 L 142.5 175.5 L 142.0 176.5 L 141.0 177.0 L 140.5 177.5 L 140.0 178.0 L 139.0 178.5 L 138.5 179.5 L 138.0 180.0 L 137.0 180.5 L 136.5 181.0 L 136.5 181.5 L 136.0 182.0 L 136.0 182.5 L 135.5 182.5 L 135.5 183.0 L 135.0 183.5 L 135.0 183.5 L 135.0 183.5 L 135.0 184.0 L 135.0 184.0 L 135.0 184.0 L 135.0 184.0 L 135.0 184.0 L 135.0 184.0 L 135.0 184.0 L 135.0 184.0 L 135.0 184.0 L 135.0 184.0 L 135.0 184.0 L 135.0 183.5 L 136.0 183.0 L 136.5 182.0 L 137.5 181.0 L 138.5 180.0 L 139.5 179.0 L 141.0 178.5 L 142.0 177.5 L 143.5 177.0 L 144.5 176.5 L 145.5 176.0 L 146.0 176.0 L 147.0 176.0 L 147.5 176.0 L 148.0 176.0 L 148.5 176.0 L 149.0 176.0 L 149.5 176.0 L 150.0 176.0 L 150.5 176.0 L 151.0 176.5 L 151.5 177.0 L 151.5 177.5 L 152.0 178.0 L 152.0 179.0 L 152.5 180.0 L 152.5 181.0 L 152.5 182.0 L 152.5 183.0 L 152.5 184.0 L 152.5 184.5 L 152.5 185.0 L 152.5 185.0 L 152.5 185.0 L 152.5 185.0 L 153.0 185.0 L 153.0 184.0 L 153.0 183.0 L 153.5 182.0 L 153.5 181.0 L 154.0 180.0 L 154.5 179.5 L 154.5 178.5 L 155.5 178.0 L 156.0 177.5 L 156.5 177.0 L 157.5 176.5 L 158.5 176.0 L 159.5 176.0 L 161.0 175.5 L 161.5 175.5 L 162.5 175.0 L 163.5 175.0 L 164.5 175.0 L 165.5 175.0 L 166.0 175.0 L 166.5 175.0 L 167.5 175.5 L 168.0 175.5 L 169.0 176.0 L 169.5 176.0 L 169.5 176.5 L 170.0 176.5 L 170.0 177.0 L 170.0 177.5 L 170.5 177.5 L 170.5 178.0 L 170.5 178.5 L 170.5 179.0 L 170.5 179.5 L 170.5 180.0 L 170.5 180.5 L 171.0 181.5 L 171.0 183.0 L 171.0 184.5 L 171.0 186.0 L 171.0 187.5 L 171.0 188.5 L 171.0 190.0 L 171.0 190.0 " stroke="black" fill="none" stroke-width="6.0" stroke-linecap="round" stroke-linejoin="round" />
</svg>