<svg xmlns="http://www.w3.org/2000/svg" width="300" height="300" viewBox="0 0 300 300">
<path d="M 205.93 69.04 L 205.65 69.97 C 205.39 70.84 205.89 71.75 206.76 72.01 C 207.63 72.27 208.54 71.77 208.79 70.90 L 209.07 69.96 C 209.33 69.10 208.83 68.18 207.96 67.93 C 207.10 67.67 206.18 68.17 205.93 69.04 Z M 205.65 69.96 L 205.36 70.91 C 205.10 71.78 205.59 72.70 206.45 72.96 C 207.32 73.22 208.24 72.73 208.50 71.87 L 208.79 70.92 C 209.05 70.05 208.57 69.13 207.70 68.87 C 206.83 68.61 205.92 69.10 205.65 69.96 Z M 205.37 70.89 L 205.06 71.86 C 204.78 72.73 205.25 73.65 206.12 73.93 C 206.98 74.20 207.90 73.73 208.18 72.87 L 208.49 71.89 C 208.77 71.03 208.30 70.11 207.43 69.83 C 206.57 69.55 205.65 70.03 205.37 70.89 Z M 205.07 71.83 L 204.77 72.70 C 204.47 73.56 204.92 74.49 205.78 74.79 C 206.64 75.08 207.57 74.63 207.87 73.77 L 208.17 72.90 C 208.46 72.05 208.01 71.11 207.16 70.82 C 206.30 70.52 205.37 70.97 205.07 71.83 Z M 204.79 72.65 L 204.44 73.55 C 204.11 74.40 204.53 75.35 205.38 75.67 C 206.22 76.00 207.17 75.58 207.50 74.73 L 207.85 73.83 C 208.17 72.98 207.75 72.03 206.91 71.71 C 206.06 71.38 205.11 71.80 204.79 72.65 Z M 204.47 73.48 L 204.04 74.44 C 203.68 75.26 204.05 76.23 204.88 76.60 C 205.71 76.96 206.68 76.59 207.04 75.76 L 207.47 74.81 C 207.83 73.98 207.46 73.01 206.63 72.64 C 205.80 72.28 204.83 72.65 204.47 73.48 Z M 204.08 74.36 L 203.62 75.27 C 203.21 76.08 203.54 77.07 204.34 77.47 C 205.15 77.88 206.14 77.56 206.55 76.75 L 207.01 75.84 C 207.42 75.03 207.09 74.04 206.28 73.64 C 205.48 73.23 204.49 73.55 204.08 74.36 Z M 203.65 75.21 L 203.19 76.05 C 202.74 76.84 203.03 77.84 203.82 78.28 C 204.61 78.72 205.61 78.43 206.05 77.64 L 206.51 76.81 C 206.96 76.02 206.67 75.02 205.88 74.58 C 205.09 74.14 204.09 74.42 203.65 75.21 Z M 203.21 76.01 L 202.70 76.87 C 202.24 77.65 202.49 78.66 203.27 79.12 C 204.05 79.58 205.06 79.32 205.52 78.54 L 206.03 77.68 C 206.49 76.90 206.23 75.89 205.45 75.43 C 204.67 74.97 203.67 75.23 203.21 76.01 Z M 202.71 76.85 L 202.17 77.73 C 201.70 78.50 201.94 79.51 202.71 79.99 C 203.48 80.46 204.49 80.22 204.97 79.44 L 205.51 78.56 C 205.98 77.79 205.74 76.78 204.96 76.31 C 204.19 75.84 203.18 76.08 202.71 76.85 Z M 202.18 77.72 L 201.62 78.61 C 201.14 79.38 201.38 80.39 202.15 80.87 C 202.91 81.35 203.93 81.11 204.40 80.35 L 204.96 79.46 C 205.44 78.69 205.20 77.68 204.44 77.20 C 203.67 76.72 202.66 76.95 202.18 77.72 Z M 201.62 78.61 L 201.10 79.45 C 200.62 80.22 200.85 81.23 201.62 81.71 C 202.39 82.19 203.40 81.96 203.88 81.19 L 204.40 80.35 C 204.88 79.58 204.65 78.57 203.88 78.09 C 203.11 77.61 202.10 77.84 201.62 78.61 Z M 201.10 79.45 L 200.57 80.29 C 200.09 81.06 200.32 82.07 201.09 82.55 C 201.86 83.03 202.87 82.80 203.35 82.03 L 203.88 81.19 C 204.36 80.42 204.12 79.41 203.36 78.93 C 202.59 78.45 201.58 78.68 201.10 79.45 Z M 200.57 80.29 L 200.04 81.14 C 199.56 81.91 199.79 82.92 200.56 83.40 C 201.32 83.88 202.34 83.65 202.82 82.88 L 203.35 82.03 C 203.83 81.27 203.60 80.26 202.83 79.78 C 202.06 79.29 201.05 79.53 200.57 80.29 Z M 200.04 81.14 L 199.51 81.99 C 199.02 82.75 199.25 83.77 200.02 84.25 C 200.79 84.73 201.80 84.50 202.28 83.73 L 202.82 82.88 C 203.30 82.12 203.07 81.10 202.30 80.62 C 201.54 80.14 200.52 80.37 200.04 81.14 Z M 199.51 81.98 L 198.97 82.83 C 198.49 83.60 198.72 84.61 199.48 85.10 C 200.25 85.58 201.26 85.35 201.74 84.59 L 202.28 83.74 C 202.76 82.97 202.53 81.96 201.77 81.47 C 201.00 80.99 199.99 81.22 199.51 81.98 Z M 198.97 82.83 L 198.45 83.66 C 197.96 84.43 198.19 85.44 198.95 85.92 C 199.72 86.41 200.73 86.18 201.21 85.42 L 201.74 84.59 C 202.23 83.82 202.00 82.81 201.24 82.33 C 200.47 81.84 199.46 82.07 198.97 82.83 Z M 198.45 83.66 L 197.91 84.50 C 197.43 85.26 197.65 86.27 198.41 86.76 C 199.18 87.25 200.19 87.02 200.68 86.26 L 201.21 85.42 C 201.70 84.66 201.47 83.64 200.71 83.16 C 199.95 82.67 198.93 82.90 198.45 83.66 Z M 197.92 84.49 L 197.37 85.34 C 196.89 86.10 197.11 87.11 197.87 87.60 C 198.63 88.09 199.65 87.87 200.14 87.11 L 200.68 86.26 C 201.16 85.50 200.94 84.49 200.18 84.00 C 199.42 83.51 198.40 83.73 197.92 84.49 Z M 197.38 85.33 L 196.83 86.18 C 196.34 86.95 196.56 87.96 197.32 88.45 C 198.08 88.94 199.10 88.72 199.59 87.96 L 200.13 87.11 C 200.62 86.35 200.40 85.33 199.64 84.84 C 198.88 84.35 197.87 84.57 197.38 85.33 Z M 196.83 86.18 L 196.28 87.04 C 195.79 87.80 196.00 88.81 196.76 89.30 C 197.53 89.80 198.54 89.58 199.03 88.82 L 199.58 87.96 C 200.08 87.20 199.86 86.19 199.10 85.70 C 198.34 85.20 197.32 85.42 196.83 86.18 Z M 196.28 87.03 L 195.73 87.89 C 195.23 88.65 195.45 89.66 196.21 90.16 C 196.97 90.65 197.98 90.43 198.47 89.67 L 199.03 88.82 C 199.52 88.06 199.31 87.05 198.55 86.55 C 197.79 86.06 196.77 86.28 196.28 87.03 Z M 195.73 87.88 L 195.17 88.73 C 194.68 89.49 194.89 90.51 195.65 91.00 C 196.40 91.50 197.42 91.29 197.92 90.53 L 198.47 89.68 C 198.97 88.92 198.76 87.91 198.00 87.41 C 197.24 86.91 196.22 87.13 195.73 87.88 Z M 195.18 88.73 L 194.62 89.57 C 194.12 90.32 194.33 91.34 195.09 91.84 C 195.84 92.34 196.86 92.13 197.36 91.37 L 197.91 90.53 C 198.41 89.78 198.20 88.76 197.45 88.26 C 196.69 87.76 195.67 87.97 195.18 88.73 Z M 194.63 89.56 L 194.08 90.38 C 193.58 91.13 193.78 92.15 194.53 92.65 C 195.28 93.16 196.30 92.95 196.81 92.20 L 197.35 91.38 C 197.86 90.63 197.65 89.61 196.90 89.11 C 196.15 88.60 195.13 88.81 194.63 89.56 Z M 194.09 90.37 L 193.53 91.19 C 193.02 91.94 193.22 92.96 193.97 93.46 C 194.72 93.97 195.74 93.78 196.24 93.03 L 196.80 92.21 C 197.31 91.46 197.11 90.44 196.36 89.93 C 195.61 89.42 194.59 89.62 194.09 90.37 Z M 193.54 91.18 L 192.95 92.03 C 192.44 92.77 192.62 93.79 193.37 94.31 C 194.11 94.82 195.13 94.63 195.65 93.89 L 196.24 93.04 C 196.75 92.29 196.56 91.27 195.82 90.76 C 195.07 90.24 194.05 90.43 193.54 91.18 Z M 192.96 92.02 L 192.38 92.84 C 191.86 93.58 192.04 94.60 192.78 95.12 C 193.52 95.64 194.55 95.46 195.07 94.72 L 195.64 93.90 C 196.16 93.16 195.98 92.14 195.24 91.62 C 194.50 91.10 193.48 91.28 192.96 92.02 Z M 192.39 92.83 L 191.82 93.63 C 191.30 94.37 191.47 95.39 192.21 95.92 C 192.95 96.44 193.97 96.27 194.49 95.53 L 195.06 94.73 C 195.58 93.99 195.41 92.97 194.67 92.44 C 193.93 91.92 192.91 92.09 192.39 92.83 Z M 191.82 93.63 L 191.26 94.42 C 190.73 95.15 190.90 96.18 191.64 96.70 C 192.38 97.23 193.40 97.06 193.93 96.32 L 194.49 95.53 C 195.02 94.79 194.85 93.77 194.11 93.25 C 193.37 92.72 192.35 92.89 191.82 93.63 Z M 191.26 94.42 L 190.68 95.23 C 190.15 95.96 190.33 96.99 191.06 97.51 C 191.80 98.04 192.82 97.87 193.35 97.13 L 193.93 96.32 C 194.45 95.59 194.28 94.56 193.55 94.04 C 192.81 93.51 191.79 93.68 191.26 94.42 Z M 190.68 95.23 L 190.10 96.04 C 189.57 96.78 189.74 97.80 190.48 98.33 C 191.22 98.85 192.24 98.68 192.77 97.95 L 193.35 97.13 C 193.88 96.40 193.70 95.37 192.97 94.84 C 192.23 94.32 191.21 94.49 190.68 95.23 Z M 190.10 96.04 L 189.52 96.85 C 188.99 97.59 189.16 98.61 189.90 99.14 C 190.64 99.67 191.66 99.50 192.19 98.76 L 192.77 97.95 C 193.29 97.21 193.12 96.18 192.39 95.66 C 191.65 95.13 190.63 95.30 190.10 96.04 Z M 189.52 96.85 L 188.94 97.67 C 188.41 98.40 188.58 99.43 189.32 99.95 C 190.06 100.48 191.08 100.31 191.61 99.57 L 192.19 98.76 C 192.71 98.02 192.54 97.00 191.81 96.47 C 191.07 95.95 190.04 96.12 189.52 96.85 Z M 188.94 97.67 L 188.36 98.48 C 187.83 99.22 188.00 100.24 188.74 100.77 C 189.48 101.29 190.50 101.12 191.03 100.39 L 191.61 99.57 C 192.13 98.84 191.96 97.81 191.22 97.29 C 190.49 96.76 189.46 96.93 188.94 97.67 Z M 188.36 98.48 L 187.78 99.29 C 187.25 100.02 187.42 101.05 188.16 101.58 C 188.89 102.10 189.92 101.93 190.44 101.20 L 191.02 100.39 C 191.55 99.65 191.38 98.63 190.65 98.10 C 189.91 97.57 188.89 97.74 188.36 98.48 Z M 187.78 99.29 L 187.20 100.10 C 186.67 100.83 186.84 101.86 187.57 102.38 C 188.30 102.91 189.33 102.75 189.86 102.01 L 190.44 101.20 C 190.97 100.47 190.80 99.44 190.07 98.91 C 189.33 98.38 188.31 98.55 187.78 99.29 Z M 187.20 100.09 L 186.61 100.90 C 186.08 101.63 186.24 102.66 186.98 103.19 C 187.71 103.72 188.73 103.56 189.27 102.83 L 189.85 102.02 C 190.39 101.28 190.22 100.26 189.49 99.73 C 188.76 99.20 187.73 99.36 187.20 100.09 Z M 186.62 100.89 L 186.03 101.70 C 185.49 102.43 185.65 103.45 186.38 103.99 C 187.10 104.53 188.13 104.37 188.67 103.64 L 189.26 102.84 C 189.80 102.11 189.64 101.08 188.91 100.54 C 188.18 100.01 187.15 100.16 186.62 100.89 Z M 186.03 101.69 L 185.44 102.48 C 184.90 103.21 185.05 104.24 185.78 104.78 C 186.51 105.32 187.53 105.17 188.07 104.44 L 188.66 103.65 C 189.20 102.92 189.05 101.90 188.33 101.36 C 187.60 100.81 186.57 100.97 186.03 101.69 Z M 185.45 102.48 L 184.85 103.27 C 184.31 104.00 184.46 105.03 185.18 105.57 C 185.90 106.11 186.93 105.96 187.48 105.24 L 188.07 104.44 C 188.61 103.72 188.47 102.69 187.74 102.15 C 187.02 101.61 185.99 101.75 185.45 102.48 Z M 184.85 103.27 L 184.25 104.08 C 183.71 104.80 183.85 105.83 184.58 106.37 C 185.31 106.92 186.33 106.77 186.87 106.04 L 187.48 105.24 C 188.02 104.51 187.87 103.49 187.14 102.94 C 186.42 102.40 185.39 102.55 184.85 103.27 Z M 184.24 104.08 L 183.64 104.90 C 183.10 105.63 183.25 106.65 183.98 107.19 C 184.71 107.73 185.73 107.58 186.27 106.85 L 186.88 106.04 C 187.42 105.31 187.27 104.28 186.54 103.74 C 185.81 103.20 184.78 103.36 184.24 104.08 Z M 183.63 104.91 L 183.05 105.70 C 182.52 106.44 182.67 107.46 183.41 108.00 C 184.14 108.53 185.16 108.37 185.70 107.64 L 186.28 106.84 C 186.81 106.11 186.66 105.09 185.92 104.55 C 185.19 104.02 184.17 104.18 183.63 104.91 Z M 183.04 105.72 L 182.47 106.52 C 181.94 107.25 182.10 108.28 182.84 108.81 C 183.57 109.33 184.60 109.17 185.13 108.43 L 185.70 107.63 C 186.23 106.89 186.07 105.87 185.33 105.34 C 184.60 104.81 183.57 104.98 183.04 105.72 Z M 182.46 106.53 L 181.88 107.35 C 181.36 108.09 181.54 109.11 182.28 109.63 C 183.02 110.15 184.04 109.98 184.56 109.24 L 185.14 108.42 C 185.66 107.68 185.48 106.66 184.74 106.13 C 184.00 105.61 182.98 105.79 182.46 106.53 Z M 181.87 107.36 L 181.30 108.19 C 180.78 108.94 180.97 109.96 181.71 110.47 C 182.46 110.99 183.48 110.80 183.99 110.06 L 184.57 109.22 C 185.08 108.48 184.90 107.46 184.15 106.94 C 183.41 106.43 182.39 106.61 181.87 107.36 Z M 181.29 108.21 L 180.72 109.05 C 180.21 109.80 180.41 110.82 181.16 111.33 C 181.91 111.84 182.93 111.64 183.44 110.89 L 184.01 110.04 C 184.51 109.29 184.31 108.27 183.56 107.76 C 182.81 107.26 181.79 107.46 181.29 108.21 Z M 180.71 109.07 L 180.15 109.91 C 179.65 110.67 179.86 111.69 180.62 112.18 C 181.38 112.68 182.39 112.47 182.89 111.71 L 183.45 110.87 C 183.94 110.11 183.73 109.10 182.98 108.60 C 182.22 108.10 181.20 108.31 180.71 109.07 Z M 180.15 109.92 L 179.59 110.77 C 179.10 111.53 179.32 112.54 180.08 113.04 C 180.84 113.53 181.85 113.31 182.35 112.55 L 182.90 111.71 C 183.39 110.95 183.17 109.93 182.41 109.44 C 181.65 108.95 180.64 109.16 180.15 109.92 Z M 179.59 110.77 L 179.05 111.62 C 178.56 112.38 178.77 113.39 179.53 113.88 C 180.29 114.37 181.31 114.16 181.80 113.40 L 182.35 112.55 C 182.84 111.79 182.62 110.78 181.86 110.29 C 181.10 109.79 180.08 110.01 179.59 110.77 Z M 179.05 111.61 L 178.51 112.44 C 178.02 113.20 178.23 114.22 178.99 114.71 C 179.75 115.20 180.76 114.99 181.26 114.23 L 181.80 113.40 C 182.29 112.64 182.08 111.63 181.32 111.13 C 180.56 110.64 179.54 110.85 179.05 111.61 Z M 178.52 112.43 L 177.97 113.26 C 177.47 114.01 177.67 115.03 178.43 115.53 C 179.18 116.03 180.20 115.83 180.70 115.07 L 181.25 114.24 C 181.75 113.49 181.54 112.47 180.79 111.97 C 180.04 111.47 179.02 111.68 178.52 112.43 Z M 177.98 113.24 L 177.40 114.09 C 176.89 114.84 177.09 115.86 177.83 116.37 C 178.58 116.88 179.60 116.68 180.11 115.93 L 180.69 115.09 C 181.20 114.34 181.00 113.32 180.26 112.81 C 179.51 112.30 178.49 112.49 177.98 113.24 Z M 177.41 114.07 L 176.84 114.89 C 176.32 115.64 176.51 116.66 177.25 117.18 C 177.99 117.69 179.01 117.51 179.53 116.77 L 180.10 115.95 C 180.62 115.20 180.44 114.18 179.69 113.67 C 178.95 113.15 177.93 113.33 177.41 114.07 Z M 176.85 114.89 L 176.28 115.69 C 175.75 116.43 175.93 117.45 176.67 117.98 C 177.41 118.50 178.43 118.32 178.95 117.58 L 179.52 116.78 C 180.05 116.04 179.87 115.02 179.13 114.49 C 178.39 113.97 177.37 114.15 176.85 114.89 Z M 176.28 115.69 L 175.71 116.48 C 175.19 117.22 175.36 118.24 176.10 118.77 C 176.83 119.29 177.86 119.12 178.38 118.39 L 178.95 117.59 C 179.48 116.85 179.30 115.83 178.57 115.30 C 177.83 114.78 176.81 114.95 176.28 115.69 Z M 175.71 116.48 L 175.14 117.29 C 174.61 118.03 174.78 119.05 175.52 119.58 C 176.25 120.10 177.28 119.93 177.80 119.20 L 178.38 118.39 C 178.91 117.65 178.74 116.63 178.00 116.10 C 177.26 115.57 176.24 115.74 175.71 116.48 Z M 175.14 117.29 L 174.56 118.10 C 174.03 118.83 174.20 119.86 174.93 120.39 C 175.67 120.91 176.69 120.74 177.22 120.01 L 177.80 119.20 C 178.33 118.46 178.16 117.44 177.42 116.91 C 176.69 116.38 175.66 116.55 175.14 117.29 Z M 174.56 118.09 L 173.97 118.90 C 173.44 119.64 173.61 120.66 174.34 121.19 C 175.08 121.72 176.10 121.56 176.63 120.82 L 177.22 120.01 C 177.75 119.28 177.58 118.25 176.85 117.72 C 176.11 117.19 175.09 117.36 174.56 118.09 Z M 173.98 118.90 L 173.39 119.71 C 172.85 120.44 173.01 121.47 173.75 122.00 C 174.48 122.53 175.50 122.37 176.04 121.64 L 176.63 120.83 C 177.16 120.10 177.00 119.07 176.27 118.54 C 175.54 118.01 174.51 118.17 173.98 118.90 Z M 173.39 119.70 L 172.80 120.51 C 172.26 121.24 172.41 122.26 173.14 122.80 C 173.87 123.34 174.90 123.18 175.43 122.46 L 176.03 121.65 C 176.57 120.92 176.41 119.89 175.69 119.36 C 174.96 118.82 173.93 118.97 173.39 119.70 Z M 172.80 120.50 L 172.20 121.31 C 171.66 122.03 171.81 123.06 172.54 123.60 C 173.26 124.14 174.29 123.99 174.83 123.27 L 175.43 122.46 C 175.97 121.74 175.82 120.71 175.09 120.17 C 174.37 119.63 173.34 119.78 172.80 120.50 Z M 172.20 121.31 L 171.60 122.11 C 171.06 122.84 171.21 123.87 171.94 124.41 C 172.66 124.95 173.69 124.80 174.23 124.07 L 174.83 123.27 C 175.37 122.54 175.22 121.51 174.49 120.97 C 173.77 120.43 172.74 120.58 172.20 121.31 Z M 171.60 122.12 L 171.00 122.92 C 170.47 123.65 170.62 124.68 171.35 125.22 C 172.08 125.75 173.11 125.60 173.65 124.87 L 174.24 124.06 C 174.77 123.33 174.62 122.31 173.89 121.77 C 173.16 121.23 172.13 121.39 171.60 122.12 Z M 170.99 122.94 L 170.41 123.75 C 169.88 124.49 170.05 125.51 170.78 126.04 C 171.52 126.57 172.54 126.40 173.07 125.67 L 173.66 124.85 C 174.18 124.12 174.02 123.09 173.28 122.56 C 172.55 122.04 171.52 122.20 170.99 122.94 Z M 170.40 123.77 L 169.81 124.61 C 169.29 125.36 169.47 126.38 170.21 126.90 C 170.95 127.42 171.97 127.24 172.49 126.49 L 173.08 125.65 C 173.60 124.91 173.42 123.89 172.68 123.37 C 171.94 122.85 170.91 123.03 170.40 123.77 Z M 169.80 124.63 L 169.23 125.46 C 168.72 126.21 168.91 127.23 169.65 127.74 C 170.40 128.25 171.42 128.06 171.93 127.31 L 172.50 126.48 C 173.01 125.73 172.82 124.71 172.07 124.20 C 171.33 123.69 170.31 123.88 169.80 124.63 Z M 169.22 125.47 L 168.67 126.29 C 168.16 127.04 168.36 128.06 169.11 128.57 C 169.87 129.07 170.88 128.87 171.39 128.12 L 171.94 127.30 C 172.45 126.55 172.25 125.53 171.49 125.03 C 170.74 124.52 169.72 124.72 169.22 125.47 Z M 168.67 126.30 L 168.13 127.11 C 167.62 127.86 167.83 128.88 168.58 129.38 C 169.33 129.88 170.35 129.68 170.85 128.93 L 171.39 128.12 C 171.89 127.36 171.69 126.35 170.94 125.84 C 170.19 125.34 169.17 125.54 168.67 126.30 Z M 168.13 127.10 L 167.55 127.97 C 167.04 128.72 167.25 129.74 168.00 130.24 C 168.75 130.75 169.77 130.55 170.27 129.79 L 170.85 128.93 C 171.36 128.17 171.15 127.16 170.40 126.65 C 169.65 126.15 168.63 126.35 168.13 127.10 Z M 167.56 127.96 L 166.99 128.79 C 166.48 129.53 166.67 130.55 167.42 131.06 C 168.17 131.58 169.19 131.38 169.70 130.64 L 170.26 129.81 C 170.77 129.06 170.58 128.04 169.83 127.53 C 169.09 127.02 168.07 127.21 167.56 127.96 Z M 167.01 128.76 L 166.44 129.55 C 165.92 130.29 166.09 131.31 166.83 131.84 C 167.57 132.36 168.59 132.19 169.12 131.45 L 169.68 130.66 C 170.20 129.92 170.03 128.90 169.29 128.38 C 168.56 127.85 167.53 128.02 167.01 128.76 Z M 166.47 129.51 L 165.87 130.31 C 165.33 131.03 165.47 132.06 166.19 132.60 C 166.91 133.15 167.94 133.01 168.49 132.28 L 169.09 131.49 C 169.63 130.77 169.49 129.74 168.77 129.20 C 168.05 128.65 167.02 128.79 166.47 129.51 Z M 165.91 130.26 L 165.26 131.06 C 164.69 131.76 164.80 132.80 165.51 133.37 C 166.21 133.94 167.24 133.83 167.81 133.12 L 168.46 132.33 C 169.02 131.62 168.91 130.59 168.21 130.02 C 167.51 129.45 166.47 129.56 165.91 130.26 Z M 165.29 131.03 L 164.65 131.79 C 164.06 132.48 164.15 133.51 164.84 134.10 C 165.53 134.68 166.56 134.60 167.15 133.91 L 167.79 133.15 C 168.37 132.46 168.29 131.43 167.60 130.84 C 166.91 130.26 165.87 130.34 165.29 131.03 Z M 164.66 131.77 L 164.02 132.51 C 163.43 133.20 163.50 134.23 164.18 134.82 C 164.87 135.42 165.90 135.34 166.50 134.66 L 167.14 133.92 C 167.73 133.24 167.65 132.20 166.97 131.61 C 166.29 131.02 165.25 131.09 164.66 131.77 Z M 164.02 132.51 L 163.35 133.28 C 162.75 133.96 162.82 135.00 163.50 135.59 C 164.18 136.19 165.22 136.12 165.81 135.44 L 166.49 134.66 C 167.09 133.98 167.02 132.95 166.34 132.35 C 165.66 131.75 164.62 131.82 164.02 132.51 Z M 163.36 133.26 L 162.70 134.00 C 162.09 134.67 162.15 135.71 162.82 136.31 C 163.50 136.92 164.53 136.86 165.14 136.19 L 165.80 135.46 C 166.40 134.78 166.35 133.75 165.68 133.14 C 165.00 132.53 163.97 132.59 163.36 133.26 Z M 162.73 133.97 L 162.05 134.69 C 161.42 135.35 161.45 136.39 162.11 137.01 C 162.77 137.63 163.81 137.60 164.43 136.94 L 165.11 136.22 C 165.73 135.56 165.70 134.53 165.05 133.90 C 164.39 133.28 163.35 133.31 162.73 133.97 Z M 162.07 134.66 L 161.34 135.41 C 160.70 136.05 160.70 137.09 161.35 137.72 C 161.99 138.36 163.03 138.36 163.67 137.71 L 164.40 136.97 C 165.04 136.33 165.03 135.29 164.39 134.65 C 163.75 134.01 162.71 134.02 162.07 134.66 Z M 161.32 135.42 L 160.65 136.11 C 160.02 136.76 160.04 137.80 160.69 138.43 C 161.34 139.06 162.38 139.04 163.01 138.39 L 163.68 137.70 C 164.31 137.05 164.29 136.01 163.64 135.38 C 162.99 134.75 161.95 134.77 161.32 135.42 Z M 160.58 136.19 L 159.93 136.96 C 159.34 137.65 159.43 138.68 160.12 139.27 C 160.81 139.85 161.84 139.77 162.43 139.08 L 163.08 138.31 C 163.67 137.62 163.58 136.59 162.89 136.00 C 162.20 135.42 161.17 135.50 160.58 136.19 Z M 159.91 136.99 L 159.30 137.74 C 158.73 138.44 158.83 139.48 159.54 140.05 C 160.24 140.62 161.27 140.51 161.84 139.80 L 162.45 139.05 C 163.02 138.35 162.92 137.32 162.21 136.75 C 161.51 136.18 160.48 136.28 159.91 136.99 Z M 159.41 137.62 L 158.72 138.31 C 158.08 138.95 158.09 139.99 158.73 140.63 C 159.37 141.26 160.41 141.26 161.05 140.62 L 161.73 139.93 C 162.37 139.28 162.37 138.25 161.72 137.61 C 161.08 136.97 160.04 136.97 159.41 137.62 Z M 158.80 138.23 L 158.04 138.90 C 157.36 139.50 157.30 140.54 157.90 141.22 C 158.49 141.90 159.53 141.96 160.21 141.36 L 160.97 140.69 C 161.65 140.09 161.71 139.06 161.11 138.38 C 160.52 137.70 159.48 137.63 158.80 138.23 Z M 158.01 138.93 L 157.28 139.61 C 156.61 140.23 156.58 141.27 157.19 141.93 C 157.81 142.59 158.85 142.63 159.51 142.01 L 160.24 141.33 C 160.90 140.72 160.94 139.68 160.33 139.02 C 159.71 138.35 158.67 138.32 158.01 138.93 Z M 157.21 139.68 L 156.52 140.39 C 155.89 141.04 155.91 142.08 156.56 142.71 C 157.22 143.34 158.25 143.32 158.88 142.67 L 159.57 141.95 C 160.20 141.30 160.18 140.26 159.53 139.63 C 158.88 139.00 157.84 139.02 157.21 139.68 Z M 156.48 140.44 L 155.83 141.17 C 155.23 141.85 155.29 142.88 155.96 143.48 C 156.64 144.09 157.68 144.03 158.28 143.35 L 158.93 142.62 C 159.53 141.94 159.47 140.91 158.79 140.31 C 158.11 139.70 157.08 139.76 156.48 140.44 Z M 155.79 141.21 L 155.16 141.97 C 154.58 142.67 154.67 143.70 155.37 144.28 C 156.06 144.86 157.09 144.77 157.67 144.07 L 158.31 143.31 C 158.89 142.61 158.80 141.58 158.10 141.00 C 157.41 140.42 156.37 140.51 155.79 141.21 Z M 155.12 142.02 L 154.50 142.82 C 153.94 143.53 154.07 144.56 154.78 145.12 C 155.49 145.68 156.52 145.55 157.08 144.84 L 157.71 144.03 C 158.26 143.32 158.14 142.29 157.42 141.73 C 156.71 141.18 155.68 141.30 155.12 142.02 Z M 154.47 142.86 L 153.88 143.65 C 153.35 144.38 153.50 145.41 154.23 145.94 C 154.96 146.48 155.99 146.32 156.52 145.59 L 157.11 144.80 C 157.64 144.07 157.49 143.04 156.76 142.51 C 156.03 141.97 155.00 142.13 154.47 142.86 Z M 153.86 143.69 L 153.27 144.52 C 152.76 145.27 152.94 146.29 153.68 146.81 C 154.43 147.32 155.45 147.14 155.97 146.40 L 156.55 145.56 C 157.07 144.82 156.88 143.79 156.14 143.28 C 155.40 142.76 154.38 142.94 153.86 143.69 Z M 153.25 144.56 L 152.68 145.43 C 152.18 146.19 152.40 147.20 153.15 147.70 C 153.91 148.19 154.93 147.98 155.42 147.23 L 155.99 146.36 C 156.49 145.60 156.28 144.59 155.52 144.09 C 154.76 143.59 153.75 143.80 153.25 144.56 Z M 152.64 145.49 L 152.12 146.36 C 151.66 147.14 151.92 148.15 152.70 148.61 C 153.47 149.07 154.48 148.81 154.94 148.04 L 155.46 147.17 C 155.92 146.39 155.67 145.38 154.89 144.92 C 154.11 144.46 153.11 144.71 152.64 145.49 Z M 152.06 146.47 L 151.63 147.34 C 151.23 148.16 151.56 149.14 152.38 149.54 C 153.19 149.94 154.17 149.61 154.57 148.80 L 155.00 147.93 C 155.40 147.11 155.07 146.13 154.26 145.73 C 153.45 145.33 152.46 145.66 152.06 146.47 Z M 151.55 147.54 L 151.21 148.53 C 150.92 149.39 151.38 150.32 152.24 150.61 C 153.09 150.90 154.02 150.45 154.32 149.59 L 154.65 148.60 C 154.95 147.74 154.49 146.81 153.63 146.52 C 152.77 146.23 151.84 146.68 151.55 147.54 Z M 151.15 148.79 L 150.99 149.71 C 150.84 150.60 151.44 151.45 152.34 151.60 C 153.23 151.75 154.07 151.15 154.23 150.26 L 154.38 149.33 C 154.53 148.44 153.93 147.60 153.04 147.44 C 152.15 147.29 151.30 147.89 151.15 148.79 Z M 150.97 149.99 L 150.97 150.92 C 150.97 151.83 151.71 152.56 152.61 152.56 C 153.52 152.55 154.25 151.82 154.25 150.91 L 154.25 149.98 C 154.25 149.07 153.51 148.34 152.60 148.34 C 151.70 148.35 150.97 149.08 150.97 149.99 Z M 150.99 151.15 L 151.14 152.20 C 151.26 153.09 152.09 153.72 152.99 153.59 C 153.89 153.46 154.51 152.63 154.38 151.74 L 154.23 150.69 C 154.11 149.79 153.28 149.17 152.38 149.29 C 151.48 149.42 150.86 150.25 150.99 151.15 Z M 151.15 152.29 L 151.35 153.25 C 151.53 154.14 152.39 154.72 153.28 154.54 C 154.17 154.36 154.74 153.49 154.56 152.61 L 154.37 151.64 C 154.19 150.76 153.32 150.18 152.44 150.36 C 151.55 150.54 150.97 151.40 151.15 152.29 Z M 151.35 153.29 L 151.58 154.30 C 151.78 155.18 152.65 155.74 153.54 155.54 C 154.42 155.34 154.98 154.47 154.78 153.58 L 154.55 152.57 C 154.36 151.69 153.48 151.13 152.60 151.33 C 151.71 151.53 151.16 152.40 151.35 153.29 Z M 151.58 154.31 L 151.81 155.31 C 152.02 156.19 152.90 156.74 153.78 156.54 C 154.66 156.33 155.21 155.45 155.01 154.57 L 154.78 153.57 C 154.57 152.69 153.69 152.14 152.81 152.34 C 151.93 152.54 151.38 153.42 151.58 154.31 Z M 151.82 155.33 L 152.05 156.29 C 152.26 157.17 153.15 157.71 154.03 157.49 C 154.91 157.28 155.45 156.39 155.24 155.51 L 155.00 154.55 C 154.79 153.67 153.90 153.13 153.02 153.35 C 152.14 153.56 151.60 154.45 151.82 155.33 Z M 152.07 156.35 L 152.33 157.27 C 152.57 158.14 153.48 158.64 154.35 158.40 C 155.22 158.15 155.73 157.24 155.48 156.37 L 155.22 155.45 C 154.97 154.58 154.07 154.08 153.20 154.32 C 152.33 154.57 151.82 155.48 152.07 156.35 Z M 152.34 157.33 L 152.64 158.24 C 152.92 159.10 153.85 159.57 154.71 159.29 C 155.57 159.01 156.04 158.09 155.76 157.23 L 155.46 156.31 C 155.18 155.45 154.26 154.98 153.39 155.26 C 152.53 155.54 152.06 156.47 152.34 157.33 Z M 152.65 158.27 L 152.99 159.25 C 153.29 160.11 154.22 160.56 155.08 160.27 C 155.93 159.97 156.39 159.04 156.09 158.18 L 155.75 157.20 C 155.46 156.34 154.52 155.89 153.67 156.19 C 152.81 156.48 152.36 157.41 152.65 158.27 Z M 152.99 159.26 L 153.32 160.18 C 153.61 161.04 154.55 161.49 155.40 161.19 C 156.26 160.89 156.71 159.96 156.41 159.10 L 156.09 158.18 C 155.79 157.32 154.86 156.87 154.00 157.17 C 153.15 157.47 152.70 158.40 152.99 159.26 Z M 153.32 160.20 L 153.66 161.14 C 153.97 161.99 154.90 162.43 155.76 162.12 C 156.61 161.82 157.05 160.88 156.74 160.03 L 156.41 159.09 C 156.10 158.24 155.16 157.79 154.31 158.10 C 153.46 158.41 153.02 159.35 153.32 160.20 Z M 153.67 161.17 L 154.05 162.14 C 154.38 162.99 155.33 163.40 156.17 163.08 C 157.02 162.75 157.43 161.80 157.11 160.95 L 156.73 159.99 C 156.40 159.14 155.45 158.72 154.61 159.05 C 153.76 159.38 153.35 160.33 153.67 161.17 Z M 154.07 162.19 L 154.45 163.09 C 154.81 163.92 155.77 164.30 156.61 163.95 C 157.44 163.59 157.82 162.63 157.47 161.80 L 157.09 160.90 C 156.73 160.07 155.77 159.68 154.93 160.04 C 154.10 160.40 153.71 161.36 154.07 162.19 Z M 154.47 163.12 L 154.89 164.03 C 155.26 164.86 156.23 165.22 157.06 164.84 C 157.88 164.47 158.24 163.49 157.87 162.67 L 157.45 161.76 C 157.08 160.94 156.10 160.57 155.28 160.95 C 154.46 161.33 154.09 162.30 154.47 163.12 Z M 154.90 164.06 L 155.34 164.98 C 155.72 165.80 156.70 166.15 157.52 165.76 C 158.34 165.37 158.69 164.39 158.30 163.57 L 157.86 162.65 C 157.47 161.83 156.49 161.48 155.67 161.87 C 154.86 162.26 154.51 163.24 154.90 164.06 Z M 155.34 164.99 L 155.78 165.89 C 156.17 166.71 157.15 167.05 157.96 166.66 C 158.78 166.26 159.12 165.28 158.73 164.47 L 158.29 163.56 C 157.90 162.75 156.92 162.41 156.10 162.80 C 155.29 163.19 154.95 164.18 155.34 164.99 Z M 155.78 165.90 L 156.21 166.80 C 156.61 167.61 157.59 167.95 158.41 167.56 C 159.22 167.16 159.56 166.18 159.16 165.37 L 158.73 164.46 C 158.33 163.65 157.35 163.31 156.54 163.70 C 155.72 164.10 155.38 165.08 155.78 165.90 Z M 156.21 166.80 L 156.65 167.70 C 157.04 168.51 158.02 168.85 158.84 168.46 C 159.65 168.06 159.99 167.08 159.60 166.27 L 159.17 165.37 C 158.77 164.55 157.79 164.21 156.98 164.61 C 156.16 165.00 155.82 165.98 156.21 166.80 Z M 156.65 167.69 L 157.08 168.59 C 157.47 169.41 158.45 169.76 159.26 169.37 C 160.08 168.98 160.43 168.00 160.04 167.18 L 159.60 166.28 C 159.21 165.46 158.24 165.11 157.42 165.50 C 156.60 165.89 156.26 166.87 156.65 167.69 Z M 157.08 168.59 L 157.50 169.49 C 157.89 170.31 158.87 170.66 159.69 170.27 C 160.50 169.88 160.85 168.91 160.47 168.09 L 160.04 167.19 C 159.65 166.37 158.67 166.02 157.86 166.41 C 157.04 166.79 156.69 167.77 157.08 168.59 Z M 157.50 169.49 L 157.93 170.39 C 158.31 171.21 159.29 171.56 160.11 171.17 C 160.93 170.79 161.28 169.81 160.89 168.99 L 160.47 168.09 C 160.08 167.27 159.10 166.92 158.28 167.31 C 157.46 167.69 157.11 168.67 157.50 169.49 Z M 157.93 170.39 L 158.35 171.28 C 158.74 172.10 159.72 172.45 160.54 172.06 C 161.35 171.67 161.70 170.69 161.31 169.87 L 160.89 168.99 C 160.50 168.17 159.52 167.82 158.71 168.21 C 157.89 168.60 157.54 169.58 157.93 170.39 Z M 158.35 171.29 L 158.78 172.17 C 159.17 172.99 160.15 173.33 160.97 172.94 C 161.78 172.55 162.13 171.57 161.73 170.75 L 161.31 169.87 C 160.92 169.05 159.94 168.71 159.12 169.10 C 158.31 169.49 157.96 170.47 158.35 171.29 Z M 158.78 172.18 L 159.22 173.08 C 159.62 173.90 160.60 174.24 161.41 173.84 C 162.23 173.45 162.57 172.46 162.17 171.65 L 161.73 170.74 C 161.34 169.93 160.35 169.59 159.54 169.99 C 158.73 170.38 158.39 171.36 158.78 172.18 Z M 159.23 173.09 L 159.68 174.01 C 160.08 174.82 161.06 175.16 161.87 174.76 C 162.68 174.36 163.02 173.38 162.62 172.56 L 162.17 171.64 C 161.77 170.83 160.79 170.50 159.97 170.90 C 159.16 171.29 158.83 172.28 159.23 173.09 Z M 159.68 174.01 L 160.12 174.90 C 160.52 175.71 161.50 176.04 162.31 175.64 C 163.12 175.24 163.46 174.26 163.06 173.45 L 162.62 172.56 C 162.22 171.75 161.24 171.41 160.42 171.82 C 159.61 172.22 159.28 173.20 159.68 174.01 Z M 160.11 174.89 L 160.56 175.80 C 160.95 176.61 161.94 176.95 162.75 176.55 C 163.56 176.15 163.90 175.17 163.50 174.36 L 163.06 173.45 C 162.66 172.64 161.68 172.30 160.87 172.70 C 160.05 173.10 159.72 174.08 160.11 174.89 Z M 160.55 175.79 L 160.98 176.70 C 161.37 177.51 162.35 177.86 163.17 177.47 C 163.99 177.08 164.33 176.10 163.94 175.28 L 163.51 174.37 C 163.12 173.56 162.14 173.21 161.32 173.60 C 160.51 173.99 160.16 174.97 160.55 175.79 Z M 160.97 176.67 L 161.40 177.60 C 161.78 178.43 162.75 178.79 163.58 178.41 C 164.40 178.03 164.76 177.06 164.38 176.23 L 163.95 175.31 C 163.58 174.48 162.60 174.12 161.78 174.50 C 160.96 174.88 160.60 175.85 160.97 176.67 Z M 161.40 177.60 L 161.82 178.52 C 162.20 179.35 163.17 179.71 164.00 179.33 C 164.82 178.95 165.18 177.98 164.80 177.16 L 164.38 176.24 C 164.00 175.41 163.03 175.05 162.21 175.43 C 161.39 175.80 161.02 176.78 161.40 177.60 Z M 161.84 178.56 L 162.28 179.45 C 162.67 180.26 163.66 180.60 164.47 180.20 C 165.28 179.80 165.62 178.82 165.22 178.01 L 164.79 177.12 C 164.39 176.31 163.41 175.97 162.59 176.37 C 161.78 176.77 161.44 177.75 161.84 178.56 Z M 162.32 179.53 L 162.80 180.38 C 163.24 181.17 164.24 181.45 165.03 181.01 C 165.82 180.57 166.10 179.57 165.66 178.78 L 165.18 177.93 C 164.73 177.14 163.73 176.86 162.94 177.30 C 162.16 177.74 161.87 178.74 162.32 179.53 Z M 162.85 180.48 L 163.40 181.32 C 163.90 182.08 164.91 182.29 165.67 181.79 C 166.43 181.30 166.64 180.28 166.15 179.52 L 165.60 178.68 C 165.10 177.93 164.09 177.71 163.33 178.21 C 162.57 178.70 162.36 179.72 162.85 180.48 Z M 163.43 181.35 L 163.99 182.17 C 164.51 182.92 165.53 183.10 166.27 182.59 C 167.02 182.08 167.20 181.06 166.69 180.31 L 166.13 179.49 C 165.61 178.75 164.59 178.56 163.84 179.07 C 163.10 179.59 162.91 180.61 163.43 181.35 Z M 163.97 182.13 L 164.51 182.97 C 165.00 183.73 166.02 183.94 166.78 183.45 C 167.54 182.95 167.75 181.94 167.26 181.18 L 166.72 180.35 C 166.22 179.59 165.21 179.37 164.45 179.87 C 163.69 180.36 163.47 181.38 163.97 182.13 Z M 164.45 182.87 L 164.94 183.75 C 165.38 184.54 166.38 184.82 167.17 184.38 C 167.96 183.93 168.24 182.94 167.80 182.14 L 167.31 181.27 C 166.87 180.48 165.87 180.20 165.08 180.64 C 164.29 181.08 164.01 182.08 164.45 182.87 Z M 164.90 183.67 L 165.34 184.57 C 165.74 185.38 166.72 185.72 167.53 185.32 C 168.35 184.92 168.68 183.94 168.28 183.12 L 167.84 182.22 C 167.44 181.41 166.46 181.07 165.65 181.47 C 164.84 181.87 164.50 182.85 164.90 183.67 Z M 165.32 184.53 L 165.73 185.43 C 166.11 186.26 167.08 186.62 167.91 186.25 C 168.73 185.87 169.09 184.90 168.72 184.08 L 168.30 183.17 C 167.93 182.34 166.96 181.98 166.13 182.35 C 165.31 182.73 164.95 183.70 165.32 184.53 Z M 165.73 185.43 L 166.15 186.35 C 166.52 187.17 167.49 187.54 168.31 187.17 C 169.14 186.80 169.51 185.83 169.14 185.01 L 168.72 184.08 C 168.35 183.26 167.38 182.89 166.56 183.26 C 165.73 183.63 165.36 184.60 165.73 185.43 Z M 166.15 186.36 L 166.56 187.27 C 166.94 188.09 167.91 188.46 168.74 188.08 C 169.56 187.71 169.92 186.74 169.55 185.91 L 169.13 185.00 C 168.76 184.17 167.79 183.81 166.96 184.19 C 166.14 184.56 165.77 185.53 166.15 186.36 Z M 166.57 187.29 L 166.99 188.18 C 167.38 189.00 168.35 189.36 169.17 188.97 C 169.99 188.59 170.35 187.61 169.96 186.79 L 169.54 185.90 C 169.16 185.08 168.18 184.72 167.36 185.11 C 166.54 185.49 166.19 186.47 166.57 187.29 Z M 167.00 188.21 L 167.43 189.09 C 167.83 189.90 168.81 190.24 169.63 189.84 C 170.44 189.45 170.78 188.47 170.38 187.65 L 169.95 186.77 C 169.55 185.95 168.57 185.62 167.76 186.01 C 166.94 186.41 166.61 187.39 167.00 188.21 Z M 167.44 189.11 L 167.88 189.99 C 168.29 190.80 169.28 191.12 170.08 190.72 C 170.89 190.31 171.22 189.32 170.81 188.52 L 170.37 187.63 C 169.97 186.82 168.98 186.50 168.17 186.90 C 167.36 187.31 167.04 188.30 167.44 189.11 Z M 167.89 189.99 L 168.34 190.89 C 168.75 191.70 169.73 192.02 170.54 191.61 C 171.35 191.21 171.67 190.22 171.27 189.41 L 170.81 188.51 C 170.41 187.70 169.42 187.38 168.61 187.79 C 167.80 188.19 167.48 189.18 167.89 189.99 Z M 168.33 190.88 L 168.78 191.78 C 169.18 192.59 170.16 192.92 170.98 192.52 C 171.79 192.12 172.12 191.14 171.72 190.32 L 171.27 189.42 C 170.87 188.61 169.89 188.28 169.08 188.68 C 168.26 189.08 167.93 190.07 168.33 190.88 Z M 168.77 191.77 L 169.21 192.67 C 169.61 193.48 170.59 193.82 171.40 193.42 C 172.22 193.03 172.56 192.05 172.16 191.23 L 171.72 190.33 C 171.33 189.52 170.35 189.18 169.53 189.58 C 168.72 189.97 168.38 190.95 168.77 191.77 Z M 169.21 192.67 L 169.65 193.58 C 170.05 194.39 171.03 194.73 171.85 194.33 C 172.66 193.94 173.00 192.96 172.60 192.14 L 172.16 191.23 C 171.76 190.42 170.78 190.08 169.97 190.48 C 169.15 190.87 168.82 191.85 169.21 192.67 Z M 169.66 193.59 L 170.11 194.49 C 170.51 195.30 171.49 195.63 172.30 195.23 C 173.11 194.83 173.45 193.85 173.04 193.03 L 172.60 192.13 C 172.20 191.32 171.21 190.99 170.40 191.39 C 169.59 191.79 169.26 192.77 169.66 193.59 Z M 170.12 194.51 L 170.58 195.42 C 171.00 196.22 171.99 196.54 172.79 196.13 C 173.60 195.71 173.91 194.72 173.50 193.92 L 173.03 193.01 C 172.62 192.21 171.63 191.89 170.83 192.30 C 170.02 192.72 169.70 193.71 170.12 194.51 Z M 170.60 195.45 L 171.08 196.33 C 171.52 197.12 172.51 197.42 173.31 196.98 C 174.10 196.55 174.39 195.55 173.96 194.76 L 173.48 193.88 C 173.05 193.09 172.05 192.80 171.26 193.23 C 170.46 193.66 170.17 194.66 170.60 195.45 Z M 171.11 196.38 L 171.61 197.22 C 172.07 198.00 173.08 198.26 173.85 197.80 C 174.63 197.34 174.89 196.33 174.43 195.55 L 173.93 194.71 C 173.47 193.93 172.46 193.67 171.68 194.13 C 170.91 194.59 170.65 195.60 171.11 196.38 Z M 171.64 197.28 L 172.19 198.12 C 172.69 198.88 173.70 199.10 174.46 198.61 C 175.22 198.11 175.44 197.10 174.94 196.34 L 174.39 195.49 C 173.90 194.73 172.89 194.52 172.13 195.01 C 171.37 195.51 171.15 196.52 171.64 197.28 Z M 172.22 198.16 L 172.79 198.99 C 173.31 199.73 174.33 199.92 175.07 199.40 C 175.82 198.89 176.00 197.87 175.49 197.12 L 174.92 196.30 C 174.40 195.55 173.38 195.37 172.64 195.88 C 171.89 196.40 171.71 197.42 172.22 198.16 Z M 172.80 199.00 L 173.37 199.81 C 173.89 200.55 174.92 200.73 175.66 200.20 C 176.40 199.68 176.57 198.66 176.05 197.92 L 175.48 197.11 C 174.96 196.37 173.93 196.19 173.19 196.72 C 172.45 197.24 172.28 198.26 172.80 199.00 Z M 173.36 199.80 L 173.93 200.62 C 174.45 201.36 175.47 201.55 176.21 201.04 C 176.96 200.52 177.14 199.50 176.63 198.75 L 176.06 197.93 C 175.54 197.19 174.52 197.00 173.78 197.52 C 173.03 198.03 172.85 199.05 173.36 199.80 Z M 173.92 200.60 L 174.47 201.43 C 174.97 202.18 175.99 202.38 176.74 201.88 C 177.50 201.38 177.70 200.36 177.20 199.61 L 176.64 198.78 C 176.14 198.02 175.12 197.82 174.37 198.32 C 173.62 198.82 173.41 199.84 173.92 200.60 Z M 174.45 201.40 L 174.99 202.24 C 175.47 203.00 176.48 203.23 177.25 202.74 C 178.01 202.26 178.24 201.24 177.75 200.48 L 177.22 199.64 C 176.73 198.87 175.72 198.65 174.95 199.13 C 174.19 199.62 173.96 200.63 174.45 201.40 Z M 174.97 202.21 L 175.48 203.06 C 175.94 203.83 176.95 204.08 177.73 203.61 C 178.50 203.14 178.75 202.14 178.28 201.36 L 177.77 200.51 C 177.31 199.74 176.30 199.49 175.52 199.96 C 174.75 200.42 174.50 201.43 174.97 202.21 Z M 175.46 203.03 L 175.96 203.89 C 176.41 204.67 177.41 204.94 178.20 204.49 C 178.98 204.04 179.25 203.04 178.80 202.25 L 178.30 201.39 C 177.85 200.61 176.85 200.34 176.06 200.79 C 175.28 201.24 175.01 202.24 175.46 203.03 Z M 175.95 203.87 L 176.44 204.75 C 176.88 205.54 177.87 205.83 178.66 205.39 C 179.46 204.95 179.74 203.95 179.30 203.16 L 178.81 202.28 C 178.37 201.48 177.37 201.20 176.58 201.64 C 175.79 202.08 175.51 203.08 175.95 203.87 Z M 176.43 204.74 L 176.90 205.61 C 177.33 206.40 178.33 206.70 179.13 206.26 C 179.92 205.83 180.21 204.84 179.78 204.04 L 179.31 203.17 C 178.88 202.37 177.88 202.08 177.08 202.51 C 176.29 202.95 176.00 203.94 176.43 204.74 Z M 176.90 205.61 L 177.38 206.48 C 177.81 207.28 178.81 207.57 179.60 207.14 C 180.40 206.70 180.69 205.71 180.26 204.91 L 179.78 204.04 C 179.35 203.24 178.35 202.95 177.56 203.38 C 176.76 203.82 176.47 204.81 176.90 205.61 Z M 177.39 206.50 L 177.88 207.38 C 178.32 208.17 179.32 208.45 180.11 208.01 C 180.90 207.57 181.18 206.57 180.74 205.78 L 180.25 204.90 C 179.81 204.11 178.81 203.82 178.02 204.27 C 177.23 204.71 176.94 205.71 177.39 206.50 Z M 177.90 207.41 L 178.41 208.28 C 178.87 209.06 179.87 209.32 180.65 208.86 C 181.43 208.40 181.69 207.40 181.23 206.62 L 180.72 205.75 C 180.26 204.97 179.26 204.71 178.48 205.16 C 177.70 205.62 177.44 206.63 177.90 207.41 Z M 178.43 208.31 L 178.95 209.16 C 179.43 209.93 180.44 210.17 181.21 209.70 C 181.98 209.22 182.22 208.21 181.74 207.44 L 181.22 206.59 C 180.74 205.82 179.73 205.58 178.96 206.05 C 178.19 206.53 177.95 207.54 178.43 208.31 Z M 178.96 209.18 L 179.50 210.03 C 179.99 210.79 181.00 211.02 181.76 210.53 C 182.53 210.05 182.76 209.04 182.27 208.27 L 181.73 207.42 C 181.25 206.66 180.24 206.43 179.47 206.92 C 178.71 207.40 178.48 208.41 178.96 209.18 Z M 179.50 210.03 L 180.04 210.87 C 180.52 211.63 181.54 211.85 182.30 211.37 C 183.06 210.88 183.29 209.87 182.80 209.10 L 182.27 208.27 C 181.78 207.50 180.77 207.28 180.01 207.77 C 179.24 208.25 179.02 209.27 179.50 210.03 Z M 180.03 210.86 L 180.56 211.69 C 181.04 212.46 182.05 212.69 182.82 212.21 C 183.58 211.73 183.81 210.72 183.33 209.95 L 182.81 209.11 C 182.33 208.35 181.31 208.12 180.55 208.60 C 179.78 209.08 179.55 210.09 180.03 210.86 Z M 180.54 211.67 L 181.06 212.52 C 181.53 213.29 182.53 213.54 183.31 213.07 C 184.08 212.60 184.33 211.59 183.86 210.82 L 183.35 209.97 C 182.88 209.20 181.87 208.95 181.09 209.42 C 180.32 209.89 180.07 210.90 180.54 211.67 Z M 181.04 212.49 L 181.55 213.37 C 182.00 214.16 183.00 214.43 183.79 213.97 C 184.57 213.52 184.84 212.52 184.39 211.74 L 183.88 210.85 C 183.43 210.07 182.43 209.80 181.64 210.25 C 180.86 210.70 180.59 211.70 181.04 212.49 Z M 181.53 213.34 L 181.99 214.19 C 182.42 214.99 183.42 215.28 184.21 214.85 C 185.01 214.42 185.30 213.42 184.87 212.63 L 184.41 211.77 C 183.98 210.97 182.98 210.68 182.19 211.11 C 181.39 211.54 181.09 212.54 181.53 213.34 Z M 181.98 214.17 L 182.45 215.05 C 182.87 215.86 183.86 216.16 184.66 215.74 C 185.46 215.32 185.77 214.33 185.35 213.53 L 184.88 212.65 C 184.46 211.84 183.47 211.54 182.67 211.96 C 181.87 212.38 181.56 213.37 181.98 214.17 Z M 182.44 215.05 L 182.92 215.95 C 183.34 216.75 184.33 217.06 185.13 216.65 C 185.93 216.23 186.24 215.23 185.82 214.43 L 185.35 213.53 C 184.93 212.73 183.94 212.42 183.14 212.84 C 182.33 213.26 182.02 214.25 182.44 215.05 Z M 182.92 215.97 L 183.40 216.87 C 183.83 217.66 184.83 217.97 185.62 217.54 C 186.42 217.11 186.72 216.12 186.30 215.32 L 185.81 214.42 C 185.39 213.62 184.39 213.32 183.59 213.75 C 182.80 214.17 182.50 215.17 182.92 215.97 Z M 183.41 216.88 L 183.90 217.77 C 184.34 218.57 185.34 218.85 186.13 218.42 C 186.92 217.98 187.21 216.98 186.78 216.19 L 186.29 215.30 C 185.85 214.51 184.85 214.22 184.06 214.66 C 183.26 215.09 182.98 216.09 183.41 216.88 Z M 183.91 217.78 L 184.40 218.65 C 184.84 219.45 185.84 219.73 186.63 219.29 C 187.42 218.84 187.70 217.85 187.26 217.06 L 186.77 216.18 C 186.33 215.39 185.33 215.11 184.54 215.55 C 183.75 215.99 183.47 216.99 183.91 217.78 Z M 184.39 218.65 L 184.87 219.51 C 185.31 220.30 186.31 220.59 187.10 220.15 C 187.89 219.71 188.18 218.72 187.74 217.92 L 187.26 217.06 C 186.83 216.27 185.83 215.98 185.04 216.42 C 184.24 216.86 183.96 217.86 184.39 218.65 Z M 184.86 219.49 L 185.33 220.38 C 185.76 221.17 186.76 221.47 187.55 221.04 C 188.35 220.62 188.65 219.62 188.22 218.82 L 187.75 217.94 C 187.32 217.14 186.33 216.85 185.53 217.27 C 184.73 217.70 184.43 218.69 184.86 219.49 Z M 185.33 220.36 L 185.79 221.25 C 186.21 222.05 187.20 222.36 188.01 221.94 C 188.81 221.52 189.12 220.52 188.70 219.72 L 188.23 218.84 C 187.81 218.04 186.82 217.73 186.02 218.15 C 185.22 218.57 184.91 219.56 185.33 220.36 Z M 185.79 221.25 L 186.26 222.13 C 186.68 222.93 187.67 223.24 188.47 222.81 C 189.27 222.39 189.58 221.40 189.16 220.60 L 188.69 219.72 C 188.27 218.92 187.28 218.61 186.48 219.04 C 185.68 219.46 185.37 220.45 185.79 221.25 Z M 186.27 222.15 L 186.75 223.03 C 187.19 223.82 188.18 224.11 188.98 223.67 C 189.77 223.24 190.06 222.24 189.63 221.45 L 189.15 220.57 C 188.71 219.78 187.71 219.49 186.92 219.93 C 186.13 220.36 185.84 221.36 186.27 222.15 Z M 186.77 223.05 L 187.27 223.93 C 187.72 224.71 188.72 224.98 189.51 224.53 C 190.29 224.08 190.56 223.08 190.11 222.29 L 189.61 221.42 C 189.16 220.64 188.16 220.37 187.37 220.82 C 186.59 221.27 186.32 222.27 186.77 223.05 Z M 187.27 223.94 L 187.78 224.81 C 188.24 225.59 189.24 225.85 190.02 225.39 C 190.81 224.94 191.07 223.93 190.61 223.15 L 190.11 222.28 C 189.65 221.50 188.64 221.24 187.86 221.70 C 187.08 222.15 186.82 223.16 187.27 223.94 Z M 187.78 224.80 L 188.27 225.66 C 188.72 226.44 189.73 226.71 190.51 226.26 C 191.30 225.81 191.56 224.80 191.11 224.02 L 190.62 223.16 C 190.17 222.38 189.16 222.11 188.38 222.56 C 187.59 223.01 187.32 224.01 187.78 224.80 Z M 188.26 225.63 L 188.75 226.53 C 189.19 227.32 190.19 227.61 190.98 227.17 C 191.77 226.73 192.06 225.74 191.62 224.94 L 191.13 224.05 C 190.69 223.25 189.69 222.96 188.90 223.40 C 188.11 223.84 187.82 224.84 188.26 225.63 Z M 188.73 226.50 L 189.20 227.39 C 189.62 228.19 190.61 228.50 191.41 228.08 C 192.22 227.66 192.53 226.67 192.11 225.87 L 191.64 224.97 C 191.22 224.17 190.23 223.86 189.43 224.28 C 188.62 224.70 188.31 225.69 188.73 226.50 Z M 189.19 227.36 L 189.63 228.24 C 190.03 229.04 191.02 229.37 191.83 228.97 C 192.64 228.56 192.96 227.58 192.56 226.77 L 192.12 225.89 C 191.71 225.08 190.73 224.75 189.92 225.16 C 189.11 225.57 188.78 226.55 189.19 227.36 Z M 189.62 228.21 L 190.05 229.10 C 190.44 229.92 191.42 230.26 192.23 229.87 C 193.05 229.47 193.39 228.49 193.00 227.68 L 192.57 226.79 C 192.17 225.97 191.19 225.63 190.38 226.03 C 189.56 226.42 189.22 227.40 189.62 228.21 Z M 190.04 229.10 L 190.47 229.99 C 190.86 230.81 191.84 231.15 192.66 230.76 C 193.48 230.37 193.82 229.39 193.43 228.58 L 193.00 227.68 C 192.61 226.86 191.63 226.52 190.81 226.91 C 190.00 227.30 189.65 228.28 190.04 229.10 Z M 190.48 230.01 L 190.93 230.91 C 191.33 231.72 192.31 232.05 193.12 231.65 C 193.93 231.25 194.27 230.26 193.86 229.45 L 193.42 228.56 C 193.02 227.75 192.03 227.41 191.22 227.82 C 190.41 228.22 190.08 229.20 190.48 230.01 Z M 190.95 230.95 L 191.41 231.83 C 191.84 232.63 192.83 232.94 193.63 232.51 C 194.43 232.09 194.73 231.10 194.31 230.30 L 193.84 229.41 C 193.42 228.61 192.43 228.31 191.63 228.73 C 190.83 229.15 190.52 230.15 190.95 230.95 Z M 191.43 231.86 L 191.92 232.74 C 192.36 233.53 193.36 233.81 194.15 233.37 C 194.94 232.93 195.22 231.94 194.78 231.15 L 194.29 230.27 C 193.85 229.48 192.86 229.19 192.07 229.63 C 191.27 230.07 190.99 231.07 191.43 231.86 Z M 191.92 232.74 L 192.41 233.62 C 192.86 234.41 193.86 234.69 194.65 234.25 C 195.43 233.81 195.72 232.81 195.27 232.02 L 194.78 231.14 C 194.34 230.35 193.34 230.07 192.55 230.51 C 191.76 230.96 191.48 231.96 191.92 232.74 Z M 192.40 233.61 L 192.90 234.51 C 193.33 235.30 194.33 235.59 195.12 235.16 C 195.92 234.72 196.21 233.73 195.77 232.93 L 195.28 232.03 C 194.85 231.24 193.85 230.95 193.06 231.38 C 192.26 231.81 191.97 232.81 192.40 233.61 Z M 192.89 234.49 L 193.37 235.40 C 193.80 236.20 194.79 236.51 195.59 236.08 C 196.39 235.66 196.69 234.66 196.27 233.87 L 195.78 232.95 C 195.36 232.15 194.37 231.85 193.57 232.27 C 192.77 232.70 192.46 233.69 192.89 234.49 Z M 193.38 235.42 L 193.85 236.27 C 194.28 237.07 195.27 237.36 196.07 236.93 C 196.86 236.50 197.16 235.50 196.73 234.71 L 196.26 233.85 C 195.83 233.05 194.83 232.76 194.04 233.19 C 193.24 233.63 192.95 234.62 193.38 235.42 Z M 193.88 236.33 L 194.40 237.19 C 194.86 237.97 195.87 238.22 196.64 237.76 C 197.42 237.29 197.67 236.29 197.21 235.51 L 196.69 234.65 C 196.23 233.87 195.22 233.62 194.44 234.08 C 193.67 234.55 193.41 235.55 193.88 236.33 Z M 194.44 237.27 L 195.00 238.10 C 195.51 238.85 196.53 239.05 197.28 238.54 C 198.03 238.04 198.23 237.02 197.72 236.27 L 197.16 235.44 C 196.66 234.68 195.64 234.49 194.89 234.99 C 194.14 235.50 193.94 236.52 194.44 237.27 Z M 195.03 238.14 L 195.59 238.92 C 196.11 239.66 197.14 239.83 197.87 239.30 C 198.61 238.78 198.78 237.75 198.26 237.02 L 197.70 236.23 C 197.17 235.50 196.15 235.32 195.41 235.85 C 194.68 236.38 194.50 237.40 195.03 238.14 Z M 195.63 238.97 L 196.25 239.78 C 196.81 240.49 197.84 240.62 198.55 240.07 C 199.27 239.51 199.40 238.48 198.84 237.77 L 198.22 236.96 C 197.66 236.25 196.63 236.12 195.92 236.67 C 195.20 237.23 195.07 238.26 195.63 238.97 Z M 196.48 240.02 L 197.21 240.64 C 197.90 241.23 198.94 241.14 199.52 240.46 C 200.11 239.77 200.03 238.73 199.34 238.14 L 198.61 237.52 C 197.92 236.94 196.88 237.02 196.30 237.71 C 195.71 238.40 195.79 239.43 196.48 240.02 Z M 197.63 240.90 L 198.53 241.29 C 199.37 241.64 200.33 241.25 200.69 240.42 C 201.04 239.59 200.65 238.63 199.82 238.27 L 198.92 237.88 C 198.09 237.53 197.12 237.92 196.77 238.75 C 196.41 239.58 196.80 240.54 197.63 240.90 Z M 198.75 241.36 L 199.57 241.58 C 200.45 241.82 201.35 241.30 201.58 240.43 C 201.82 239.55 201.30 238.65 200.43 238.42 L 199.61 238.20 C 198.73 237.96 197.83 238.48 197.60 239.35 C 197.36 240.22 197.88 241.12 198.75 241.36 Z"
      fill="black"
      fill-rule="nonzero" /><path d="M 241.86 69.94 L 241.83 70.90 C 241.80 71.80 242.50 72.56 243.41 72.59 C 244.31 72.63 245.07 71.92 245.10 71.01 L 245.14 70.06 C 245.17 69.15 244.46 68.39 243.56 68.36 C 242.65 68.33 241.89 69.04 241.86 69.94 Z M 241.83 70.89 L 241.79 71.87 C 241.75 72.77 242.46 73.53 243.36 73.57 C 244.27 73.61 245.03 72.90 245.06 72.00 L 245.10 71.02 C 245.14 70.12 244.44 69.35 243.53 69.32 C 242.63 69.28 241.86 69.99 241.83 70.89 Z M 241.79 71.85 L 241.74 72.87 C 241.70 73.78 242.39 74.54 243.30 74.59 C 244.20 74.63 244.97 73.93 245.01 73.03 L 245.06 72.01 C 245.11 71.11 244.41 70.34 243.51 70.29 C 242.60 70.25 241.83 70.95 241.79 71.85 Z M 241.74 72.85 L 241.68 73.87 C 241.63 74.77 242.31 75.55 243.22 75.60 C 244.12 75.65 244.90 74.97 244.95 74.06 L 245.01 73.05 C 245.07 72.15 244.38 71.37 243.48 71.31 C 242.57 71.26 241.79 71.95 241.74 72.85 Z M 241.68 73.84 L 241.61 74.78 C 241.54 75.68 242.22 76.47 243.12 76.54 C 244.02 76.60 244.81 75.93 244.88 75.03 L 244.95 74.09 C 245.02 73.19 244.34 72.40 243.44 72.33 C 242.54 72.26 241.75 72.94 241.68 73.84 Z M 241.61 74.73 L 241.51 75.72 C 241.42 76.62 242.08 77.42 242.98 77.51 C 243.88 77.60 244.68 76.95 244.78 76.05 L 244.88 75.07 C 244.97 74.17 244.31 73.36 243.41 73.27 C 242.51 73.18 241.71 73.83 241.61 74.73 Z M 241.52 75.66 L 241.38 76.68 C 241.26 77.57 241.88 78.40 242.78 78.52 C 243.68 78.65 244.51 78.02 244.63 77.12 L 244.77 76.10 C 244.89 75.21 244.26 74.38 243.37 74.26 C 242.47 74.13 241.64 74.76 241.52 75.66 Z M 241.39 76.61 L 241.20 77.65 C 241.04 78.55 241.63 79.40 242.52 79.56 C 243.41 79.72 244.26 79.13 244.43 78.24 L 244.62 77.19 C 244.78 76.30 244.19 75.45 243.30 75.29 C 242.41 75.12 241.55 75.71 241.39 76.61 Z M 241.22 77.58 L 241.00 78.53 C 240.79 79.41 241.34 80.29 242.22 80.50 C 243.11 80.70 243.99 80.15 244.19 79.27 L 244.41 78.32 C 244.61 77.44 244.07 76.56 243.18 76.35 C 242.30 76.15 241.42 76.70 241.22 77.58 Z M 241.01 78.47 L 240.75 79.41 C 240.52 80.29 241.03 81.19 241.90 81.43 C 242.78 81.67 243.68 81.15 243.92 80.28 L 244.18 79.33 C 244.41 78.46 243.90 77.55 243.02 77.32 C 242.15 77.08 241.25 77.59 241.01 78.47 Z M 240.77 79.37 L 240.48 80.33 C 240.21 81.19 240.70 82.11 241.57 82.37 C 242.43 82.64 243.35 82.15 243.61 81.28 L 243.90 80.32 C 244.17 79.46 243.68 78.54 242.81 78.28 C 241.95 78.01 241.03 78.50 240.77 79.37 Z M 240.49 80.29 L 240.17 81.26 C 239.89 82.12 240.36 83.05 241.22 83.33 C 242.08 83.61 243.01 83.14 243.29 82.28 L 243.60 81.31 C 243.88 80.45 243.41 79.53 242.55 79.25 C 241.69 78.96 240.77 79.43 240.49 80.29 Z M 240.18 81.24 L 239.84 82.21 C 239.55 83.07 240.01 84.00 240.86 84.29 C 241.72 84.59 242.65 84.13 242.95 83.27 L 243.28 82.30 C 243.57 81.45 243.12 80.51 242.26 80.22 C 241.40 79.93 240.47 80.38 240.18 81.24 Z M 239.85 82.20 L 239.52 83.14 C 239.22 83.99 239.67 84.93 240.52 85.23 C 241.38 85.53 242.31 85.08 242.61 84.22 L 242.94 83.29 C 243.24 82.43 242.79 81.50 241.94 81.20 C 241.08 80.90 240.15 81.35 239.85 82.20 Z M 239.52 83.13 L 239.19 84.06 C 238.89 84.91 239.33 85.85 240.18 86.15 C 241.04 86.46 241.97 86.01 242.28 85.16 L 242.61 84.23 C 242.91 83.38 242.47 82.44 241.62 82.14 C 240.76 81.83 239.83 82.28 239.52 83.13 Z M 239.19 84.05 L 238.86 84.99 C 238.55 85.84 238.99 86.78 239.84 87.08 C 240.69 87.39 241.63 86.95 241.94 86.10 L 242.28 85.16 C 242.58 84.31 242.14 83.37 241.29 83.07 C 240.44 82.76 239.50 83.20 239.19 84.05 Z M 238.86 84.98 L 238.52 85.92 C 238.21 86.77 238.65 87.72 239.50 88.02 C 240.35 88.33 241.29 87.89 241.60 87.04 L 241.94 86.10 C 242.25 85.25 241.81 84.31 240.96 84.00 C 240.11 83.69 239.17 84.13 238.86 84.98 Z M 238.52 85.92 L 238.17 86.88 C 237.86 87.73 238.30 88.67 239.15 88.98 C 240.00 89.29 240.94 88.85 241.25 88.00 L 241.60 87.05 C 241.91 86.20 241.47 85.25 240.62 84.94 C 239.77 84.63 238.83 85.07 238.52 85.92 Z M 238.17 86.88 L 237.82 87.83 C 237.51 88.68 237.95 89.63 238.80 89.94 C 239.65 90.25 240.59 89.81 240.90 88.96 L 241.25 88.00 C 241.56 87.15 241.12 86.21 240.27 85.90 C 239.42 85.59 238.48 86.02 238.17 86.88 Z M 237.82 87.83 L 237.47 88.78 C 237.16 89.63 237.60 90.57 238.45 90.89 C 239.30 91.20 240.24 90.76 240.55 89.91 L 240.90 88.96 C 241.21 88.11 240.77 87.17 239.92 86.86 C 239.07 86.55 238.13 86.98 237.82 87.83 Z M 237.47 88.78 L 237.12 89.73 C 236.81 90.58 237.24 91.52 238.09 91.84 C 238.94 92.15 239.88 91.72 240.20 90.87 L 240.55 89.91 C 240.86 89.06 240.43 88.12 239.58 87.81 C 238.73 87.49 237.79 87.93 237.47 88.78 Z M 237.12 89.72 L 236.77 90.67 C 236.45 91.52 236.88 92.46 237.73 92.78 C 238.58 93.10 239.52 92.67 239.84 91.82 L 240.19 90.87 C 240.51 90.03 240.08 89.08 239.23 88.76 C 238.39 88.45 237.44 88.88 237.12 89.72 Z M 236.77 90.66 L 236.42 91.59 C 236.09 92.44 236.52 93.38 237.36 93.71 C 238.21 94.03 239.15 93.61 239.48 92.76 L 239.84 91.83 C 240.16 90.99 239.74 90.04 238.89 89.72 C 238.05 89.39 237.10 89.81 236.77 90.66 Z M 236.42 91.57 L 236.07 92.48 C 235.73 93.32 236.15 94.28 236.99 94.61 C 237.83 94.94 238.78 94.53 239.11 93.69 L 239.47 92.78 C 239.81 91.94 239.39 90.99 238.55 90.65 C 237.71 90.32 236.76 90.73 236.42 91.57 Z M 236.07 92.46 L 235.68 93.42 C 235.34 94.25 235.73 95.21 236.57 95.56 C 237.41 95.90 238.37 95.50 238.71 94.66 L 239.11 93.71 C 239.45 92.87 239.05 91.91 238.21 91.57 C 237.38 91.22 236.42 91.62 236.07 92.46 Z M 235.69 93.39 L 235.28 94.33 C 234.93 95.17 235.31 96.13 236.14 96.49 C 236.97 96.85 237.94 96.46 238.29 95.63 L 238.70 94.69 C 239.06 93.86 238.68 92.89 237.84 92.53 C 237.01 92.18 236.05 92.56 235.69 93.39 Z M 235.29 94.31 L 234.88 95.22 C 234.51 96.05 234.88 97.02 235.71 97.39 C 236.53 97.76 237.50 97.39 237.87 96.57 L 238.28 95.66 C 238.66 94.83 238.29 93.86 237.46 93.49 C 236.64 93.12 235.67 93.49 235.29 94.31 Z M 234.89 95.20 L 234.48 96.08 C 234.10 96.90 234.45 97.88 235.27 98.26 C 236.09 98.65 237.07 98.29 237.45 97.47 L 237.86 96.59 C 238.25 95.77 237.89 94.79 237.07 94.41 C 236.25 94.03 235.28 94.38 234.89 95.20 Z M 234.49 96.06 L 234.07 96.93 C 233.68 97.74 234.02 98.72 234.83 99.12 C 235.65 99.51 236.63 99.17 237.02 98.36 L 237.44 97.49 C 237.84 96.68 237.50 95.70 236.68 95.30 C 235.87 94.91 234.88 95.25 234.49 96.06 Z M 234.08 96.91 L 233.64 97.80 C 233.23 98.61 233.56 99.60 234.37 100.00 C 235.18 100.41 236.17 100.08 236.57 99.27 L 237.02 98.37 C 237.42 97.56 237.09 96.58 236.28 96.17 C 235.47 95.77 234.48 96.10 234.08 96.91 Z M 233.64 97.79 L 233.19 98.68 C 232.78 99.49 233.10 100.47 233.90 100.89 C 234.71 101.30 235.70 100.98 236.11 100.17 L 236.56 99.28 C 236.98 98.47 236.66 97.49 235.85 97.07 C 235.04 96.66 234.06 96.98 233.64 97.79 Z M 233.20 98.67 L 232.73 99.55 C 232.31 100.35 232.62 101.34 233.42 101.76 C 234.23 102.18 235.22 101.87 235.64 101.07 L 236.10 100.19 C 236.52 99.39 236.21 98.39 235.41 97.97 C 234.61 97.55 233.62 97.86 233.20 98.67 Z M 232.74 99.54 L 232.27 100.42 C 231.84 101.21 232.14 102.21 232.94 102.63 C 233.74 103.06 234.73 102.76 235.16 101.96 L 235.63 101.09 C 236.06 100.29 235.76 99.29 234.96 98.87 C 234.16 98.44 233.17 98.74 232.74 99.54 Z M 232.27 100.40 L 231.80 101.28 C 231.36 102.07 231.65 103.07 232.45 103.50 C 233.24 103.94 234.24 103.65 234.67 102.85 L 235.15 101.98 C 235.59 101.18 235.29 100.19 234.50 99.75 C 233.71 99.32 232.71 99.61 232.27 100.40 Z M 231.80 101.27 L 231.31 102.15 C 230.87 102.94 231.15 103.94 231.94 104.38 C 232.73 104.82 233.73 104.53 234.17 103.74 L 234.66 102.87 C 235.11 102.07 234.82 101.08 234.03 100.63 C 233.24 100.19 232.24 100.48 231.80 101.27 Z M 231.32 102.13 L 230.82 103.00 C 230.37 103.79 230.64 104.79 231.43 105.24 C 232.22 105.69 233.22 105.42 233.67 104.63 L 234.17 103.76 C 234.62 102.97 234.34 101.97 233.56 101.52 C 232.77 101.07 231.77 101.35 231.32 102.13 Z M 230.83 102.99 L 230.32 103.85 C 229.87 104.63 230.13 105.64 230.91 106.09 C 231.69 106.55 232.69 106.29 233.15 105.51 L 233.66 104.65 C 234.12 103.87 233.85 102.86 233.07 102.40 C 232.29 101.95 231.29 102.21 230.83 102.99 Z M 230.33 103.83 L 229.82 104.68 C 229.35 105.46 229.60 106.46 230.37 106.93 C 231.15 107.40 232.16 107.15 232.63 106.38 L 233.14 105.53 C 233.61 104.75 233.36 103.75 232.59 103.28 C 231.81 102.81 230.80 103.06 230.33 103.83 Z M 229.83 104.66 L 229.30 105.51 C 228.82 106.27 229.06 107.29 229.82 107.77 C 230.59 108.25 231.60 108.01 232.08 107.25 L 232.61 106.40 C 233.09 105.63 232.86 104.62 232.09 104.14 C 231.33 103.66 230.31 103.89 229.83 104.66 Z M 229.32 105.49 L 228.77 106.33 C 228.28 107.09 228.50 108.10 229.26 108.59 C 230.02 109.09 231.03 108.87 231.53 108.11 L 232.07 107.27 C 232.56 106.51 232.34 105.49 231.58 105.00 C 230.82 104.51 229.81 104.73 229.32 105.49 Z M 228.78 106.31 L 228.23 107.15 C 227.73 107.90 227.94 108.92 228.70 109.42 C 229.45 109.92 230.47 109.71 230.97 108.95 L 231.52 108.12 C 232.02 107.37 231.81 106.35 231.05 105.85 C 230.30 105.35 229.28 105.56 228.78 106.31 Z M 228.24 107.14 L 227.68 107.97 C 227.18 108.72 227.38 109.74 228.13 110.24 C 228.89 110.74 229.91 110.54 230.41 109.79 L 230.96 108.96 C 231.47 108.21 231.26 107.19 230.51 106.69 C 229.76 106.18 228.74 106.39 228.24 107.14 Z M 227.68 107.97 L 227.13 108.80 C 226.62 109.55 226.83 110.57 227.58 111.07 C 228.33 111.57 229.35 111.37 229.85 110.62 L 230.41 109.79 C 230.91 109.04 230.71 108.02 229.96 107.52 C 229.20 107.01 228.19 107.21 227.68 107.97 Z M 227.13 108.80 L 226.58 109.62 C 226.08 110.38 226.28 111.40 227.03 111.90 C 227.79 112.40 228.81 112.19 229.31 111.44 L 229.86 110.62 C 230.36 109.86 230.15 108.85 229.40 108.34 C 228.65 107.84 227.63 108.05 227.13 108.80 Z M 226.58 109.62 L 226.03 110.44 C 225.52 111.20 225.72 112.21 226.47 112.72 C 227.22 113.22 228.24 113.02 228.75 112.27 L 229.30 111.45 C 229.81 110.70 229.61 109.68 228.86 109.17 C 228.11 108.67 227.09 108.87 226.58 109.62 Z M 226.04 110.43 L 225.47 111.25 C 224.95 111.99 225.14 113.02 225.89 113.53 C 226.63 114.05 227.65 113.86 228.17 113.11 L 228.74 112.29 C 229.25 111.55 229.06 110.52 228.32 110.01 C 227.57 109.50 226.55 109.68 226.04 110.43 Z M 225.49 111.22 L 224.90 112.04 C 224.37 112.77 224.53 113.80 225.27 114.33 C 226.00 114.86 227.02 114.69 227.56 113.96 L 228.15 113.14 C 228.68 112.41 228.51 111.38 227.78 110.85 C 227.05 110.32 226.02 110.49 225.49 111.22 Z M 224.93 112.00 L 224.32 112.79 C 223.76 113.51 223.90 114.54 224.61 115.09 C 225.33 115.65 226.36 115.51 226.91 114.79 L 227.53 114.00 C 228.08 113.28 227.94 112.25 227.23 111.70 C 226.51 111.15 225.48 111.28 224.93 112.00 Z M 224.34 112.76 L 223.71 113.53 C 223.14 114.23 223.24 115.27 223.94 115.84 C 224.65 116.41 225.68 116.31 226.25 115.61 L 226.88 114.83 C 227.46 114.13 227.35 113.10 226.65 112.53 C 225.95 111.95 224.92 112.06 224.34 112.76 Z M 223.73 113.51 L 223.08 114.27 C 222.50 114.96 222.58 116.00 223.27 116.58 C 223.96 117.17 224.99 117.09 225.58 116.40 L 226.23 115.63 C 226.82 114.94 226.73 113.91 226.04 113.32 C 225.35 112.73 224.32 112.82 223.73 113.51 Z M 223.09 114.26 L 222.44 115.02 C 221.84 115.70 221.92 116.74 222.60 117.33 C 223.29 117.92 224.32 117.85 224.91 117.16 L 225.57 116.41 C 226.16 115.72 226.09 114.69 225.41 114.10 C 224.72 113.50 223.69 113.58 223.09 114.26 Z M 222.44 115.02 L 221.78 115.77 C 221.19 116.45 221.26 117.49 221.95 118.08 C 222.63 118.68 223.67 118.60 224.26 117.92 L 224.91 117.16 C 225.51 116.48 225.43 115.45 224.75 114.85 C 224.06 114.26 223.03 114.33 222.44 115.02 Z M 221.77 115.78 L 221.12 116.55 C 220.53 117.24 220.62 118.27 221.31 118.86 C 222.00 119.45 223.03 119.36 223.62 118.67 L 224.27 117.91 C 224.86 117.22 224.77 116.18 224.09 115.60 C 223.40 115.01 222.36 115.09 221.77 115.78 Z M 221.11 116.56 L 220.47 117.34 C 219.89 118.03 219.99 119.07 220.68 119.64 C 221.38 120.22 222.41 120.13 222.99 119.43 L 223.63 118.66 C 224.21 117.96 224.11 116.93 223.42 116.35 C 222.72 115.77 221.69 115.87 221.11 116.56 Z M 220.46 117.35 L 219.83 118.13 C 219.26 118.83 219.37 119.86 220.07 120.43 C 220.77 121.00 221.80 120.89 222.37 120.19 L 223.00 119.42 C 223.57 118.71 223.46 117.68 222.76 117.11 C 222.06 116.54 221.03 116.65 220.46 117.35 Z M 219.82 118.14 L 219.20 118.92 C 218.64 119.63 218.76 120.66 219.47 121.22 C 220.18 121.79 221.21 121.67 221.77 120.96 L 222.39 120.18 C 222.95 119.46 222.83 118.43 222.12 117.87 C 221.41 117.31 220.38 117.43 219.82 118.14 Z M 219.19 118.94 L 218.58 119.72 C 218.03 120.44 218.16 121.47 218.88 122.02 C 219.59 122.58 220.62 122.44 221.17 121.73 L 221.78 120.94 C 222.33 120.22 222.20 119.19 221.49 118.64 C 220.77 118.09 219.74 118.22 219.19 118.94 Z M 218.57 119.74 L 217.97 120.53 C 217.43 121.25 217.57 122.28 218.29 122.82 C 219.01 123.37 220.04 123.23 220.59 122.50 L 221.19 121.71 C 221.73 120.99 221.59 119.96 220.87 119.42 C 220.14 118.87 219.12 119.01 218.57 119.74 Z M 217.96 120.54 L 217.37 121.34 C 216.83 122.06 216.98 123.09 217.71 123.63 C 218.43 124.17 219.46 124.02 220.00 123.29 L 220.60 122.49 C 221.14 121.77 220.98 120.74 220.26 120.20 C 219.53 119.66 218.50 119.81 217.96 120.54 Z M 217.37 121.34 L 216.77 122.15 C 216.24 122.88 216.39 123.90 217.12 124.44 C 217.85 124.98 218.88 124.82 219.41 124.09 L 220.01 123.29 C 220.54 122.56 220.39 121.53 219.66 120.99 C 218.93 120.46 217.90 120.61 217.37 121.34 Z M 216.77 122.15 L 216.17 122.97 C 215.64 123.70 215.80 124.72 216.53 125.26 C 217.26 125.79 218.28 125.63 218.82 124.90 L 219.42 124.09 C 219.95 123.36 219.79 122.33 219.06 121.80 C 218.33 121.26 217.31 121.42 216.77 122.15 Z M 216.17 122.97 L 215.57 123.79 C 215.04 124.52 215.19 125.54 215.92 126.08 C 216.65 126.61 217.68 126.46 218.21 125.73 L 218.82 124.90 C 219.35 124.17 219.20 123.15 218.47 122.61 C 217.74 122.08 216.71 122.24 216.17 122.97 Z M 215.57 123.79 L 214.97 124.62 C 214.43 125.35 214.59 126.37 215.32 126.91 C 216.05 127.44 217.08 127.28 217.61 126.55 L 218.22 125.72 C 218.75 124.99 218.59 123.97 217.86 123.43 C 217.13 122.90 216.10 123.06 215.57 123.79 Z M 214.96 124.63 L 214.37 125.45 C 213.84 126.19 214.01 127.21 214.74 127.74 C 215.48 128.27 216.50 128.10 217.03 127.36 L 217.62 126.54 C 218.15 125.80 217.98 124.78 217.25 124.25 C 216.51 123.72 215.49 123.89 214.96 124.63 Z M 214.35 125.47 L 213.79 126.28 C 213.27 127.02 213.45 128.04 214.20 128.56 C 214.94 129.08 215.96 128.90 216.48 128.15 L 217.04 127.34 C 217.56 126.60 217.38 125.58 216.64 125.06 C 215.89 124.54 214.87 124.73 214.35 125.47 Z M 213.77 126.31 L 213.23 127.12 C 212.73 127.87 212.93 128.89 213.69 129.39 C 214.44 129.89 215.46 129.69 215.96 128.93 L 216.50 128.13 C 217.00 127.37 216.80 126.35 216.04 125.85 C 215.29 125.35 214.27 125.56 213.77 126.31 Z M 213.20 127.16 L 212.65 128.05 C 212.17 128.82 212.40 129.83 213.17 130.31 C 213.94 130.79 214.95 130.56 215.43 129.79 L 215.99 128.89 C 216.47 128.12 216.23 127.11 215.46 126.63 C 214.69 126.16 213.68 126.39 213.20 127.16 Z M 212.62 128.09 L 212.11 128.96 C 211.66 129.74 211.92 130.75 212.70 131.20 C 213.48 131.66 214.49 131.40 214.94 130.62 L 215.45 129.75 C 215.91 128.97 215.65 127.96 214.87 127.51 C 214.08 127.05 213.08 127.31 212.62 128.09 Z M 212.10 128.99 L 211.63 129.84 C 211.18 130.63 211.47 131.63 212.26 132.07 C 213.05 132.51 214.05 132.23 214.49 131.43 L 214.96 130.59 C 215.40 129.80 215.12 128.80 214.33 128.36 C 213.54 127.92 212.54 128.20 212.10 128.99 Z M 211.62 129.86 L 211.16 130.70 C 210.73 131.50 211.02 132.49 211.82 132.92 C 212.62 133.35 213.61 133.06 214.04 132.26 L 214.50 131.42 C 214.93 130.62 214.63 129.63 213.84 129.19 C 213.04 128.76 212.05 129.06 211.62 129.86 Z M 211.15 130.71 L 210.68 131.60 C 210.25 132.39 210.55 133.39 211.35 133.81 C 212.15 134.24 213.14 133.94 213.57 133.14 L 214.04 132.26 C 214.47 131.46 214.17 130.46 213.37 130.04 C 212.58 129.61 211.58 129.91 211.15 130.71 Z M 210.68 131.60 L 210.21 132.47 C 209.78 133.27 210.08 134.27 210.88 134.69 C 211.68 135.12 212.67 134.82 213.10 134.02 L 213.57 133.14 C 214.00 132.35 213.70 131.35 212.90 130.92 C 212.10 130.50 211.11 130.80 210.68 131.60 Z M 210.21 132.47 L 209.74 133.34 C 209.31 134.14 209.60 135.13 210.40 135.56 C 211.19 136.00 212.19 135.70 212.62 134.90 L 213.09 134.03 C 213.53 133.23 213.23 132.24 212.43 131.81 C 211.64 131.38 210.64 131.67 210.21 132.47 Z M 209.75 133.33 L 209.26 134.21 C 208.82 135.00 209.11 136.00 209.90 136.44 C 210.69 136.87 211.69 136.59 212.13 135.80 L 212.61 134.92 C 213.05 134.13 212.77 133.13 211.97 132.69 C 211.18 132.25 210.18 132.54 209.75 133.33 Z M 209.27 134.19 L 208.77 135.07 C 208.32 135.86 208.60 136.86 209.39 137.31 C 210.18 137.75 211.18 137.48 211.62 136.69 L 212.12 135.81 C 212.57 135.02 212.29 134.02 211.50 133.58 C 210.71 133.13 209.71 133.41 209.27 134.19 Z M 208.77 135.06 L 208.27 135.93 C 207.82 136.72 208.09 137.72 208.88 138.17 C 209.66 138.62 210.66 138.35 211.12 137.57 L 211.62 136.70 C 212.07 135.91 211.80 134.91 211.01 134.46 C 210.23 134.01 209.23 134.28 208.77 135.06 Z M 208.28 135.93 L 207.78 136.77 C 207.33 137.56 207.60 138.56 208.38 139.02 C 209.16 139.47 210.16 139.21 210.62 138.42 L 211.11 137.57 C 211.57 136.79 211.30 135.79 210.52 135.33 C 209.74 134.88 208.73 135.14 208.28 135.93 Z M 207.79 136.77 L 207.25 137.68 C 206.80 138.46 207.06 139.47 207.84 139.93 C 208.62 140.38 209.63 140.12 210.08 139.34 L 210.62 138.43 C 211.07 137.64 210.81 136.64 210.03 136.18 C 209.25 135.73 208.24 135.99 207.79 136.77 Z M 207.26 137.68 L 206.74 138.55 C 206.28 139.33 206.54 140.33 207.32 140.79 C 208.10 141.25 209.11 140.99 209.57 140.21 L 210.08 139.34 C 210.54 138.56 210.28 137.56 209.50 137.10 C 208.72 136.64 207.72 136.90 207.26 137.68 Z M 206.75 138.54 L 206.26 139.36 C 205.80 140.14 206.05 141.15 206.83 141.61 C 207.61 142.07 208.61 141.82 209.08 141.04 L 209.56 140.22 C 210.03 139.44 209.77 138.43 208.99 137.97 C 208.22 137.51 207.21 137.77 206.75 138.54 Z M 206.26 139.35 L 205.74 140.22 C 205.28 140.99 205.53 142.00 206.30 142.47 C 207.08 142.94 208.08 142.69 208.55 141.91 L 209.07 141.05 C 209.54 140.27 209.29 139.27 208.52 138.80 C 207.74 138.33 206.73 138.58 206.26 139.35 Z M 205.76 140.20 L 205.23 141.04 C 204.75 141.81 204.99 142.82 205.76 143.30 C 206.53 143.77 207.54 143.54 208.02 142.77 L 208.54 141.93 C 209.02 141.16 208.78 140.15 208.01 139.67 C 207.24 139.19 206.23 139.43 205.76 140.20 Z M 205.25 141.01 L 204.71 141.83 C 204.22 142.59 204.44 143.61 205.19 144.10 C 205.95 144.60 206.97 144.38 207.46 143.62 L 208.00 142.80 C 208.49 142.04 208.28 141.02 207.52 140.53 C 206.76 140.04 205.75 140.25 205.25 141.01 Z M 204.73 141.81 L 204.15 142.67 C 203.64 143.42 203.84 144.44 204.59 144.95 C 205.34 145.45 206.36 145.26 206.86 144.51 L 207.45 143.65 C 207.95 142.90 207.76 141.88 207.01 141.37 C 206.26 140.86 205.24 141.06 204.73 141.81 Z M 204.14 142.68 L 203.58 143.52 C 203.08 144.27 203.29 145.29 204.04 145.79 C 204.80 146.29 205.82 146.09 206.32 145.33 L 206.87 144.49 C 207.37 143.74 207.17 142.72 206.41 142.22 C 205.66 141.72 204.64 141.93 204.14 142.68 Z M 203.54 143.60 L 203.03 144.46 C 202.57 145.24 202.84 146.24 203.62 146.70 C 204.40 147.16 205.40 146.90 205.86 146.11 L 206.37 145.25 C 206.82 144.47 206.56 143.47 205.78 143.01 C 205.00 142.55 203.99 142.82 203.54 143.60 Z M 202.96 144.59 L 202.54 145.48 C 202.16 146.30 202.51 147.28 203.33 147.66 C 204.14 148.05 205.12 147.70 205.51 146.88 L 205.93 145.99 C 206.32 145.17 205.96 144.19 205.15 143.80 C 204.33 143.42 203.35 143.77 202.96 144.59 Z M 202.52 145.53 L 202.14 146.42 C 201.78 147.25 202.17 148.21 203.00 148.57 C 203.83 148.93 204.79 148.54 205.15 147.71 L 205.53 146.83 C 205.89 146.00 205.50 145.03 204.67 144.67 C 203.84 144.32 202.88 144.70 202.52 145.53 Z M 202.14 146.40 L 201.74 147.33 C 201.37 148.15 201.75 149.12 202.58 149.49 C 203.41 149.85 204.37 149.48 204.74 148.65 L 205.14 147.73 C 205.51 146.90 205.13 145.93 204.31 145.57 C 203.48 145.20 202.51 145.58 202.14 146.40 Z M 201.73 147.34 L 201.35 148.23 C 200.99 149.06 201.38 150.03 202.21 150.38 C 203.04 150.74 204.01 150.35 204.37 149.52 L 204.75 148.63 C 205.10 147.80 204.72 146.84 203.88 146.48 C 203.05 146.12 202.09 146.51 201.73 147.34 Z M 201.33 148.28 L 200.98 149.19 C 200.65 150.03 201.07 150.98 201.91 151.31 C 202.76 151.64 203.71 151.22 204.03 150.38 L 204.39 149.47 C 204.71 148.62 204.29 147.67 203.45 147.35 C 202.61 147.02 201.66 147.44 201.33 148.28 Z M 200.95 149.26 L 200.63 150.23 C 200.34 151.08 200.80 152.02 201.65 152.30 C 202.51 152.59 203.44 152.13 203.73 151.28 L 204.06 150.31 C 204.35 149.45 203.89 148.52 203.03 148.23 C 202.17 147.94 201.24 148.40 200.95 149.26 Z M 200.60 150.30 L 200.33 151.26 C 200.07 152.13 200.58 153.04 201.44 153.29 C 202.31 153.54 203.22 153.04 203.48 152.17 L 203.75 151.21 C 204.01 150.34 203.50 149.43 202.63 149.18 C 201.76 148.93 200.86 149.43 200.60 150.30 Z M 200.30 151.35 L 200.08 152.36 C 199.88 153.24 200.43 154.12 201.32 154.32 C 202.20 154.52 203.08 153.96 203.28 153.08 L 203.50 152.07 C 203.70 151.19 203.14 150.31 202.26 150.11 C 201.38 149.91 200.50 150.47 200.30 151.35 Z M 200.05 152.51 L 199.92 153.52 C 199.81 154.42 200.44 155.24 201.34 155.36 C 202.24 155.47 203.06 154.84 203.17 153.94 L 203.30 152.93 C 203.42 152.03 202.78 151.21 201.88 151.09 C 200.99 150.98 200.16 151.61 200.05 152.51 Z M 199.91 153.66 L 199.87 154.65 C 199.83 155.55 200.53 156.32 201.43 156.36 C 202.34 156.40 203.10 155.70 203.14 154.79 L 203.18 153.80 C 203.22 152.90 202.52 152.13 201.62 152.09 C 200.71 152.05 199.95 152.76 199.91 153.66 Z M 199.86 154.71 L 199.86 155.72 C 199.86 156.62 200.59 157.36 201.49 157.36 C 202.40 157.36 203.14 156.63 203.14 155.73 L 203.14 154.73 C 203.15 153.82 202.42 153.08 201.51 153.08 C 200.60 153.08 199.87 153.81 199.86 154.71 Z M 199.86 155.73 L 199.86 156.77 C 199.87 157.67 200.60 158.40 201.51 158.40 C 202.41 158.40 203.15 157.66 203.14 156.76 L 203.14 155.72 C 203.14 154.81 202.40 154.08 201.49 154.08 C 200.59 154.09 199.86 154.82 199.86 155.73 Z M 199.86 156.79 L 199.88 157.76 C 199.90 158.67 200.65 159.39 201.55 159.37 C 202.46 159.35 203.18 158.60 203.16 157.70 L 203.14 156.73 C 203.13 155.82 202.38 155.10 201.47 155.12 C 200.57 155.14 199.85 155.89 199.86 156.79 Z M 199.89 157.82 L 199.94 158.85 C 199.99 159.75 200.77 160.44 201.67 160.39 C 202.58 160.34 203.27 159.57 203.22 158.66 L 203.16 157.64 C 203.11 156.73 202.33 156.04 201.43 156.09 C 200.53 156.14 199.83 156.92 199.89 157.82 Z M 199.95 158.92 L 200.04 159.87 C 200.13 160.77 200.93 161.42 201.84 161.34 C 202.74 161.25 203.39 160.44 203.31 159.54 L 203.21 158.59 C 203.12 157.69 202.32 157.03 201.42 157.12 C 200.52 157.21 199.86 158.01 199.95 158.92 Z M 200.04 159.89 L 200.15 160.86 C 200.25 161.76 201.06 162.41 201.96 162.31 C 202.86 162.21 203.51 161.40 203.41 160.50 L 203.30 159.52 C 203.20 158.62 202.39 157.98 201.49 158.08 C 200.59 158.18 199.94 158.99 200.04 159.89 Z M 200.15 160.84 L 200.25 161.84 C 200.34 162.74 201.14 163.40 202.04 163.32 C 202.94 163.23 203.60 162.43 203.51 161.52 L 203.41 160.52 C 203.33 159.62 202.52 158.96 201.62 159.05 C 200.72 159.14 200.06 159.94 200.15 160.84 Z M 200.25 161.83 L 200.33 162.78 C 200.42 163.68 201.21 164.35 202.12 164.27 C 203.02 164.18 203.68 163.39 203.60 162.48 L 203.51 161.53 C 203.43 160.63 202.63 159.97 201.73 160.05 C 200.83 160.13 200.17 160.93 200.25 161.83 Z M 200.35 162.89 L 200.51 163.92 C 200.65 164.82 201.49 165.43 202.39 165.29 C 203.28 165.15 203.89 164.31 203.75 163.41 L 203.59 162.38 C 203.44 161.48 202.61 160.87 201.71 161.01 C 200.82 161.16 200.21 162.00 200.35 162.89 Z M 200.54 164.06 L 200.76 164.96 C 200.98 165.84 201.86 166.38 202.74 166.16 C 203.62 165.95 204.16 165.06 203.94 164.18 L 203.72 163.28 C 203.51 162.40 202.62 161.86 201.74 162.08 C 200.86 162.29 200.32 163.18 200.54 164.06 Z M 200.77 165.02 L 201.05 166.00 C 201.30 166.87 202.21 167.38 203.08 167.13 C 203.95 166.89 204.45 165.98 204.21 165.11 L 203.93 164.12 C 203.68 163.25 202.78 162.75 201.90 162.99 C 201.03 163.24 200.53 164.15 200.77 165.02 Z M 201.05 166.00 L 201.34 167.00 C 201.58 167.87 202.49 168.38 203.36 168.13 C 204.23 167.88 204.74 166.98 204.49 166.10 L 204.21 165.11 C 203.96 164.24 203.05 163.73 202.18 163.98 C 201.31 164.23 200.81 165.13 201.05 166.00 Z M 201.33 166.98 L 201.58 167.92 C 201.82 168.79 202.72 169.31 203.59 169.08 C 204.47 168.84 204.99 167.94 204.75 167.07 L 204.50 166.13 C 204.26 165.25 203.36 164.73 202.49 164.97 C 201.61 165.20 201.09 166.10 201.33 166.98 Z M 201.58 167.91 L 201.84 168.89 C 202.07 169.76 202.97 170.29 203.84 170.06 C 204.72 169.83 205.24 168.93 205.01 168.05 L 204.75 167.08 C 204.52 166.20 203.63 165.68 202.75 165.91 C 201.87 166.14 201.35 167.04 201.58 167.91 Z M 201.84 168.89 L 202.10 169.88 C 202.33 170.76 203.23 171.28 204.11 171.05 C 204.98 170.82 205.50 169.92 205.27 169.04 L 205.01 168.05 C 204.78 167.18 203.88 166.65 203.01 166.89 C 202.13 167.12 201.61 168.01 201.84 168.89 Z M 202.10 169.89 L 202.36 170.84 C 202.60 171.71 203.50 172.23 204.37 171.99 C 205.24 171.76 205.76 170.86 205.53 169.98 L 205.27 169.03 C 205.03 168.16 204.13 167.64 203.26 167.88 C 202.39 168.11 201.87 169.01 202.10 169.89 Z M 202.36 170.84 L 202.63 171.81 C 202.87 172.68 203.77 173.20 204.64 172.96 C 205.51 172.72 206.03 171.82 205.79 170.94 L 205.52 169.98 C 205.28 169.10 204.38 168.59 203.51 168.83 C 202.64 169.07 202.12 169.97 202.36 170.84 Z M 202.63 171.81 L 202.90 172.79 C 203.14 173.67 204.04 174.18 204.92 173.94 C 205.79 173.69 206.30 172.79 206.06 171.92 L 205.79 170.94 C 205.55 170.07 204.64 169.55 203.77 169.80 C 202.90 170.04 202.39 170.94 202.63 171.81 Z M 202.90 172.80 L 203.16 173.74 C 203.41 174.61 204.31 175.12 205.18 174.88 C 206.05 174.64 206.56 173.73 206.32 172.86 L 206.06 171.92 C 205.82 171.04 204.91 170.53 204.04 170.78 C 203.17 171.02 202.66 171.92 202.90 172.80 Z M 203.16 173.73 L 203.42 174.68 C 203.66 175.55 204.56 176.06 205.43 175.82 C 206.31 175.59 206.82 174.68 206.58 173.81 L 206.32 172.87 C 206.08 171.99 205.18 171.48 204.31 171.72 C 203.44 171.96 202.92 172.86 203.16 173.73 Z M 203.41 174.66 L 203.67 175.63 C 203.90 176.51 204.80 177.03 205.67 176.80 C 206.55 176.57 207.07 175.68 206.84 174.80 L 206.59 173.83 C 206.36 172.95 205.46 172.43 204.58 172.66 C 203.71 172.89 203.18 173.78 203.41 174.66 Z M 203.66 175.61 L 203.91 176.61 C 204.12 177.49 205.01 178.03 205.89 177.81 C 206.77 177.60 207.31 176.71 207.09 175.83 L 206.85 174.83 C 206.63 173.95 205.75 173.41 204.87 173.63 C 203.99 173.84 203.45 174.73 203.66 175.61 Z M 203.90 176.58 L 204.11 177.52 C 204.31 178.40 205.19 178.96 206.07 178.76 C 206.96 178.56 207.51 177.68 207.31 176.80 L 207.10 175.86 C 206.90 174.98 206.02 174.42 205.14 174.62 C 204.26 174.82 203.70 175.70 203.90 176.58 Z M 204.11 177.50 L 204.31 178.47 C 204.50 179.35 205.37 179.92 206.25 179.74 C 207.14 179.55 207.71 178.68 207.52 177.80 L 207.32 176.82 C 207.13 175.94 206.26 175.37 205.38 175.56 C 204.49 175.74 203.92 176.61 204.11 177.50 Z M 204.31 178.45 L 204.50 179.44 C 204.68 180.33 205.54 180.91 206.43 180.74 C 207.31 180.57 207.89 179.70 207.72 178.82 L 207.53 177.82 C 207.35 176.93 206.49 176.35 205.60 176.52 C 204.71 176.70 204.13 177.56 204.31 178.45 Z M 204.50 179.42 L 204.68 180.44 C 204.85 181.33 205.70 181.92 206.59 181.76 C 207.48 181.60 208.07 180.74 207.91 179.85 L 207.72 178.84 C 207.56 177.94 206.71 177.35 205.82 177.52 C 204.93 177.68 204.34 178.53 204.50 179.42 Z M 204.68 180.43 L 204.85 181.40 C 205.01 182.29 205.86 182.89 206.75 182.73 C 207.64 182.58 208.24 181.73 208.08 180.84 L 207.91 179.87 C 207.76 178.97 206.91 178.38 206.02 178.53 C 205.12 178.69 204.53 179.53 204.68 180.43 Z M 204.85 181.41 L 205.03 182.38 C 205.18 183.28 206.03 183.87 206.93 183.71 C 207.82 183.55 208.41 182.70 208.25 181.81 L 208.08 180.83 C 207.92 179.94 207.07 179.35 206.18 179.51 C 205.29 179.66 204.69 180.51 204.85 181.41 Z M 205.03 182.41 L 205.22 183.39 C 205.40 184.28 206.26 184.86 207.14 184.69 C 208.03 184.52 208.61 183.66 208.44 182.77 L 208.25 181.78 C 208.08 180.90 207.21 180.32 206.33 180.49 C 205.44 180.66 204.86 181.52 205.03 182.41 Z M 205.23 183.44 L 205.46 184.43 C 205.66 185.31 206.53 185.86 207.42 185.66 C 208.30 185.46 208.85 184.59 208.65 183.70 L 208.43 182.72 C 208.23 181.83 207.35 181.28 206.47 181.48 C 205.59 181.68 205.03 182.56 205.23 183.44 Z M 205.47 184.50 L 205.74 185.46 C 205.97 186.34 206.87 186.85 207.75 186.62 C 208.62 186.38 209.14 185.48 208.90 184.60 L 208.64 183.64 C 208.40 182.76 207.50 182.25 206.62 182.48 C 205.75 182.72 205.24 183.62 205.47 184.50 Z M 205.75 185.53 L 206.05 186.48 C 206.32 187.34 207.24 187.82 208.11 187.55 C 208.97 187.28 209.45 186.36 209.18 185.49 L 208.88 184.54 C 208.61 183.68 207.69 183.20 206.83 183.47 C 205.96 183.74 205.48 184.66 205.75 185.53 Z M 206.07 186.52 L 206.39 187.47 C 206.69 188.32 207.62 188.78 208.47 188.49 C 209.33 188.19 209.79 187.26 209.49 186.40 L 209.17 185.45 C 208.87 184.60 207.94 184.14 207.09 184.44 C 206.23 184.73 205.77 185.66 206.07 186.52 Z M 206.40 187.49 L 206.74 188.43 C 207.04 189.29 207.98 189.73 208.83 189.43 C 209.68 189.12 210.13 188.18 209.82 187.33 L 209.49 186.38 C 209.18 185.53 208.24 185.09 207.39 185.39 C 206.54 185.70 206.09 186.64 206.40 187.49 Z M 206.74 188.43 L 207.07 189.37 C 207.38 190.22 208.32 190.67 209.17 190.36 C 210.02 190.06 210.46 189.12 210.16 188.27 L 209.82 187.33 C 209.52 186.48 208.58 186.03 207.73 186.34 C 206.88 186.64 206.43 187.58 206.74 188.43 Z M 207.07 189.36 L 207.39 190.30 C 207.69 191.15 208.62 191.61 209.48 191.31 C 210.34 191.01 210.79 190.08 210.49 189.22 L 210.17 188.28 C 209.87 187.43 208.93 186.97 208.08 187.27 C 207.22 187.57 206.77 188.50 207.07 189.36 Z M 207.39 190.29 L 207.71 191.23 C 208.01 192.08 208.94 192.54 209.79 192.25 C 210.65 191.95 211.11 191.02 210.81 190.17 L 210.49 189.23 C 210.20 188.37 209.27 187.92 208.41 188.21 C 207.55 188.50 207.10 189.43 207.39 190.29 Z M 207.71 191.24 L 208.04 192.17 C 208.34 193.03 209.27 193.48 210.13 193.19 C 210.98 192.89 211.44 191.95 211.14 191.10 L 210.81 190.16 C 210.51 189.30 209.58 188.85 208.73 189.15 C 207.87 189.45 207.42 190.38 207.71 191.24 Z M 208.05 192.19 L 208.39 193.14 C 208.70 193.99 209.64 194.43 210.49 194.13 C 211.34 193.82 211.78 192.88 211.47 192.03 L 211.13 191.08 C 210.82 190.23 209.88 189.79 209.03 190.10 C 208.18 190.40 207.74 191.34 208.05 192.19 Z M 208.40 193.17 L 208.76 194.10 C 209.08 194.95 210.03 195.37 210.88 195.04 C 211.72 194.72 212.14 193.77 211.82 192.92 L 211.46 192.00 C 211.14 191.15 210.19 190.73 209.34 191.05 C 208.50 191.38 208.08 192.33 208.40 193.17 Z M 208.77 194.13 L 209.14 195.04 C 209.48 195.88 210.44 196.28 211.27 195.94 C 212.11 195.60 212.52 194.64 212.18 193.80 L 211.81 192.90 C 211.47 192.06 210.51 191.65 209.67 191.99 C 208.83 192.33 208.43 193.29 208.77 194.13 Z M 209.15 195.05 L 209.53 195.97 C 209.88 196.81 210.84 197.20 211.68 196.85 C 212.51 196.50 212.91 195.54 212.56 194.71 L 212.17 193.79 C 211.82 192.95 210.86 192.56 210.02 192.91 C 209.19 193.26 208.80 194.22 209.15 195.05 Z M 209.54 195.98 L 209.93 196.91 C 210.29 197.75 211.25 198.13 212.08 197.78 C 212.92 197.42 213.30 196.46 212.95 195.63 L 212.55 194.70 C 212.20 193.86 211.24 193.48 210.40 193.83 C 209.57 194.19 209.18 195.15 209.54 195.98 Z M 209.93 196.91 L 210.33 197.85 C 210.68 198.68 211.65 199.07 212.48 198.72 C 213.31 198.37 213.70 197.40 213.35 196.57 L 212.95 195.63 C 212.60 194.80 211.63 194.41 210.80 194.76 C 209.97 195.12 209.58 196.08 209.93 196.91 Z M 210.33 197.84 L 210.72 198.78 C 211.06 199.61 212.02 200.01 212.86 199.66 C 213.69 199.31 214.09 198.35 213.74 197.51 L 213.35 196.58 C 213.00 195.74 212.04 195.35 211.21 195.70 C 210.37 196.04 209.98 197.00 210.33 197.84 Z M 210.71 198.76 L 211.09 199.70 C 211.43 200.54 212.39 200.94 213.23 200.60 C 214.07 200.26 214.47 199.30 214.13 198.46 L 213.75 197.53 C 213.40 196.69 212.45 196.29 211.61 196.63 C 210.77 196.97 210.37 197.93 210.71 198.76 Z M 211.09 199.69 L 211.46 200.62 C 211.80 201.46 212.75 201.87 213.59 201.53 C 214.43 201.20 214.84 200.24 214.50 199.40 L 214.13 198.47 C 213.79 197.63 212.84 197.22 212.00 197.56 C 211.16 197.89 210.75 198.85 211.09 199.69 Z M 211.46 200.61 L 211.82 201.54 C 212.16 202.39 213.11 202.80 213.95 202.47 C 214.79 202.13 215.21 201.18 214.87 200.34 L 214.51 199.41 C 214.17 198.57 213.22 198.15 212.38 198.49 C 211.54 198.82 211.12 199.77 211.46 200.61 Z M 211.82 201.54 L 212.18 202.46 C 212.51 203.30 213.46 203.72 214.31 203.39 C 215.15 203.06 215.57 202.11 215.24 201.27 L 214.88 200.34 C 214.55 199.50 213.60 199.08 212.75 199.41 C 211.91 199.74 211.49 200.69 211.82 201.54 Z M 212.18 202.46 L 212.54 203.39 C 212.87 204.24 213.82 204.65 214.67 204.33 C 215.51 204.00 215.93 203.05 215.60 202.20 L 215.24 201.27 C 214.91 200.42 213.96 200.01 213.11 200.33 C 212.27 200.66 211.85 201.61 212.18 202.46 Z M 212.54 203.39 L 212.91 204.33 C 213.23 205.17 214.18 205.59 215.03 205.26 C 215.87 204.93 216.29 203.98 215.96 203.14 L 215.60 202.20 C 215.27 201.36 214.32 200.94 213.48 201.27 C 212.64 201.60 212.22 202.55 212.54 203.39 Z M 212.91 204.33 L 213.27 205.25 C 213.60 206.10 214.54 206.52 215.39 206.19 C 216.23 205.86 216.65 204.91 216.32 204.07 L 215.96 203.14 C 215.64 202.29 214.69 201.88 213.84 202.20 C 213.00 202.53 212.58 203.48 212.91 204.33 Z M 213.27 205.26 L 213.63 206.18 C 213.96 207.03 214.91 207.44 215.75 207.11 C 216.60 206.78 217.01 205.83 216.68 204.99 L 216.32 204.06 C 215.99 203.22 215.04 202.80 214.20 203.13 C 213.36 203.46 212.94 204.41 213.27 205.26 Z M 213.63 206.19 L 214.00 207.12 C 214.33 207.96 215.28 208.37 216.12 208.04 C 216.97 207.71 217.38 206.76 217.05 205.91 L 216.68 204.99 C 216.35 204.14 215.40 203.73 214.56 204.06 C 213.71 204.39 213.30 205.35 213.63 206.19 Z M 214.00 207.12 L 214.37 208.04 C 214.70 208.88 215.66 209.29 216.50 208.96 C 217.34 208.62 217.75 207.67 217.41 206.83 L 217.05 205.91 C 216.71 205.07 215.76 204.66 214.92 204.99 C 214.07 205.33 213.66 206.28 214.00 207.12 Z M 214.37 208.05 L 214.75 208.98 C 215.09 209.82 216.04 210.22 216.88 209.88 C 217.72 209.54 218.12 208.58 217.78 207.74 L 217.41 206.82 C 217.07 205.98 216.11 205.58 215.27 205.92 C 214.43 206.26 214.03 207.21 214.37 208.05 Z M 214.75 208.99 L 215.14 209.91 C 215.48 210.75 216.44 211.15 217.28 210.80 C 218.11 210.45 218.51 209.49 218.16 208.66 L 217.78 207.73 C 217.43 206.90 216.47 206.50 215.64 206.85 C 214.80 207.19 214.40 208.15 214.75 208.99 Z M 215.14 209.93 L 215.54 210.85 C 215.89 211.69 216.86 212.07 217.69 211.72 C 218.52 211.36 218.91 210.40 218.55 209.57 L 218.16 208.64 C 217.80 207.81 216.84 207.42 216.01 207.78 C 215.17 208.13 214.79 209.10 215.14 209.93 Z M 215.54 210.87 L 215.95 211.79 C 216.32 212.62 217.28 213.00 218.11 212.63 C 218.94 212.26 219.32 211.30 218.95 210.47 L 218.54 209.55 C 218.18 208.72 217.21 208.34 216.38 208.71 C 215.55 209.08 215.18 210.04 215.54 210.87 Z M 215.96 211.81 L 216.38 212.73 C 216.75 213.55 217.73 213.91 218.55 213.54 C 219.37 213.16 219.74 212.19 219.36 211.36 L 218.94 210.45 C 218.57 209.63 217.59 209.26 216.77 209.64 C 215.95 210.02 215.58 210.99 215.96 211.81 Z M 216.39 212.74 L 216.81 213.65 C 217.20 214.47 218.17 214.82 218.99 214.44 C 219.81 214.05 220.16 213.08 219.78 212.26 L 219.35 211.35 C 218.97 210.53 217.99 210.18 217.17 210.56 C 216.35 210.95 216.00 211.92 216.39 212.74 Z M 216.82 213.66 L 217.25 214.57 C 217.64 215.38 218.62 215.73 219.44 215.33 C 220.25 214.94 220.60 213.96 220.21 213.15 L 219.77 212.25 C 219.38 211.43 218.40 211.08 217.59 211.48 C 216.77 211.87 216.43 212.85 216.82 213.66 Z M 217.25 214.57 L 217.69 215.47 C 218.09 216.28 219.07 216.62 219.88 216.22 C 220.69 215.83 221.03 214.85 220.64 214.03 L 220.20 213.14 C 219.81 212.32 218.83 211.99 218.01 212.38 C 217.20 212.78 216.86 213.76 217.25 214.57 Z M 217.69 215.47 L 218.13 216.37 C 218.53 217.18 219.51 217.52 220.32 217.12 C 221.14 216.72 221.47 215.74 221.07 214.92 L 220.64 214.03 C 220.24 213.22 219.26 212.88 218.44 213.28 C 217.63 213.68 217.29 214.66 217.69 215.47 Z M 218.13 216.37 L 218.57 217.27 C 218.97 218.08 219.96 218.42 220.77 218.02 C 221.58 217.62 221.92 216.64 221.52 215.82 L 221.07 214.92 C 220.67 214.11 219.69 213.77 218.88 214.17 C 218.07 214.57 217.73 215.56 218.13 216.37 Z M 218.58 217.27 L 219.02 218.17 C 219.42 218.98 220.40 219.31 221.21 218.91 C 222.03 218.51 222.36 217.53 221.96 216.72 L 221.51 215.82 C 221.11 215.01 220.13 214.68 219.32 215.08 C 218.51 215.48 218.17 216.46 218.58 217.27 Z M 219.02 218.17 L 219.46 219.07 C 219.87 219.88 220.85 220.21 221.66 219.80 C 222.47 219.40 222.80 218.42 222.40 217.60 L 221.96 216.71 C 221.55 215.90 220.57 215.57 219.76 215.98 C 218.95 216.38 218.62 217.36 219.02 218.17 Z M 219.47 219.07 L 219.91 219.96 C 220.32 220.77 221.31 221.10 222.12 220.69 C 222.92 220.28 223.25 219.30 222.84 218.49 L 222.40 217.60 C 221.99 216.79 221.01 216.46 220.20 216.87 C 219.39 217.28 219.06 218.26 219.47 219.07 Z M 219.92 219.97 L 220.37 220.85 C 220.78 221.66 221.76 221.98 222.57 221.57 C 223.38 221.16 223.70 220.18 223.29 219.37 L 222.84 218.48 C 222.43 217.68 221.44 217.35 220.64 217.76 C 219.83 218.17 219.51 219.16 219.92 219.97 Z M 220.37 220.86 L 220.82 221.74 C 221.24 222.55 222.22 222.86 223.03 222.45 C 223.84 222.04 224.15 221.05 223.74 220.24 L 223.29 219.36 C 222.87 218.56 221.89 218.24 221.08 218.65 C 220.27 219.06 219.96 220.05 220.37 220.86 Z M 220.83 221.75 L 221.29 222.63 C 221.70 223.44 222.69 223.75 223.50 223.33 C 224.30 222.92 224.61 221.93 224.20 221.12 L 223.74 220.24 C 223.32 219.43 222.33 219.12 221.53 219.54 C 220.72 219.95 220.41 220.94 220.83 221.75 Z M 221.29 222.64 L 221.75 223.53 C 222.17 224.33 223.16 224.64 223.97 224.22 C 224.77 223.80 225.08 222.81 224.66 222.01 L 224.19 221.12 C 223.77 220.32 222.78 220.01 221.98 220.43 C 221.18 220.85 220.87 221.84 221.29 222.64 Z M 221.76 223.53 L 222.23 224.43 C 222.65 225.23 223.64 225.54 224.44 225.11 C 225.24 224.69 225.55 223.70 225.13 222.90 L 224.66 222.00 C 224.23 221.20 223.24 220.90 222.44 221.32 C 221.64 221.74 221.33 222.73 221.76 223.53 Z M 222.23 224.43 L 222.71 225.33 C 223.13 226.13 224.12 226.43 224.92 226.01 C 225.72 225.58 226.03 224.59 225.60 223.79 L 225.13 222.90 C 224.70 222.10 223.71 221.79 222.91 222.22 C 222.11 222.64 221.81 223.63 222.23 224.43 Z M 222.71 225.33 L 223.19 226.23 C 223.61 227.03 224.61 227.33 225.40 226.90 C 226.20 226.47 226.50 225.48 226.08 224.68 L 225.60 223.79 C 225.17 222.99 224.18 222.69 223.38 223.11 C 222.58 223.54 222.28 224.53 222.71 225.33 Z M 223.19 226.23 L 223.66 227.12 C 224.09 227.92 225.09 228.21 225.88 227.79 C 226.68 227.36 226.98 226.36 226.55 225.57 L 226.08 224.68 C 225.65 223.88 224.65 223.58 223.86 224.01 C 223.06 224.44 222.76 225.43 223.19 226.23 Z M 223.67 227.12 L 224.14 227.99 C 224.57 228.79 225.56 229.09 226.36 228.66 C 227.15 228.23 227.45 227.23 227.02 226.44 L 226.55 225.56 C 226.12 224.77 225.13 224.47 224.33 224.90 C 223.53 225.33 223.24 226.32 223.67 227.12 Z M 224.14 227.99 L 224.61 228.86 C 225.04 229.66 226.03 229.95 226.83 229.52 C 227.62 229.09 227.92 228.09 227.49 227.30 L 227.02 226.43 C 226.59 225.64 225.59 225.34 224.80 225.77 C 224.00 226.20 223.71 227.20 224.14 227.99 Z M 224.61 228.86 L 225.10 229.76 C 225.53 230.56 226.52 230.85 227.32 230.42 C 228.11 229.99 228.41 229.00 227.98 228.20 L 227.49 227.30 C 227.06 226.50 226.06 226.21 225.27 226.64 C 224.47 227.07 224.17 228.06 224.61 228.86 Z M 225.10 229.76 L 225.57 230.64 C 226.00 231.44 227.00 231.73 227.79 231.30 C 228.59 230.87 228.89 229.88 228.45 229.08 L 227.98 228.20 C 227.55 227.40 226.55 227.11 225.76 227.54 C 224.96 227.97 224.66 228.97 225.10 229.76 Z M 225.57 230.64 L 226.04 231.51 C 226.47 232.30 227.46 232.60 228.26 232.17 C 229.06 231.74 229.35 230.75 228.92 229.95 L 228.46 229.08 C 228.03 228.29 227.03 227.99 226.23 228.42 C 225.44 228.85 225.14 229.84 225.57 230.64 Z M 226.04 231.50 L 226.50 232.37 C 226.93 233.16 227.92 233.46 228.72 233.04 C 229.52 232.61 229.82 231.61 229.39 230.82 L 228.93 229.95 C 228.50 229.15 227.50 228.85 226.71 229.28 C 225.91 229.71 225.61 230.70 226.04 231.50 Z M 226.50 232.36 L 226.97 233.25 C 227.40 234.05 228.39 234.35 229.19 233.93 C 229.99 233.50 230.29 232.51 229.86 231.71 L 229.39 230.82 C 228.97 230.02 227.97 229.72 227.17 230.14 C 226.38 230.57 226.07 231.56 226.50 232.36 Z M 226.97 233.25 L 227.45 234.14 C 227.88 234.94 228.87 235.24 229.67 234.81 C 230.47 234.38 230.77 233.39 230.34 232.59 L 229.86 231.70 C 229.43 230.90 228.44 230.61 227.64 231.03 C 226.84 231.46 226.54 232.46 226.97 233.25 Z M 227.46 234.16 L 227.95 235.04 C 228.38 235.83 229.38 236.12 230.17 235.68 C 230.97 235.24 231.25 234.24 230.81 233.45 L 230.33 232.57 C 229.89 231.78 228.89 231.49 228.10 231.93 C 227.31 232.37 227.02 233.37 227.46 234.16 Z M 227.96 235.07 L 228.46 235.92 C 228.92 236.71 229.92 236.97 230.70 236.52 C 231.49 236.06 231.75 235.06 231.29 234.27 L 230.80 233.42 C 230.34 232.64 229.34 232.37 228.55 232.83 C 227.77 233.28 227.51 234.29 227.96 235.07 Z M 228.49 235.97 L 229.02 236.82 C 229.50 237.59 230.52 237.82 231.28 237.34 C 232.05 236.86 232.28 235.85 231.80 235.08 L 231.27 234.23 C 230.79 233.46 229.77 233.23 229.01 233.71 C 228.24 234.19 228.01 235.20 228.49 235.97 Z M 229.05 236.86 L 229.61 237.70 C 230.12 238.45 231.13 238.65 231.89 238.15 C 232.64 237.65 232.84 236.63 232.34 235.88 L 231.77 235.04 C 231.27 234.29 230.25 234.09 229.50 234.59 C 228.75 235.09 228.55 236.11 229.05 236.86 Z M 229.63 237.72 L 230.20 238.54 C 230.71 239.28 231.73 239.47 232.48 238.95 C 233.22 238.43 233.40 237.41 232.89 236.67 L 232.32 235.85 C 231.80 235.11 230.78 234.92 230.04 235.44 C 229.29 235.96 229.11 236.98 229.63 237.72 Z M 230.20 238.55 L 230.77 239.35 C 231.29 240.10 232.31 240.27 233.05 239.75 C 233.79 239.23 233.97 238.21 233.45 237.47 L 232.88 236.66 C 232.36 235.92 231.34 235.74 230.60 236.26 C 229.86 236.78 229.68 237.81 230.20 238.55 Z M 230.76 239.34 L 231.33 240.17 C 231.85 240.92 232.87 241.11 233.61 240.59 C 234.36 240.08 234.55 239.06 234.03 238.31 L 233.46 237.48 C 232.95 236.74 231.93 236.55 231.18 237.06 C 230.43 237.58 230.25 238.60 230.76 239.34 Z M 231.32 240.16 L 231.89 241.00 C 232.39 241.75 233.41 241.96 234.16 241.45 C 234.91 240.95 235.12 239.93 234.61 239.18 L 234.04 238.33 C 233.54 237.58 232.52 237.38 231.77 237.88 C 231.02 238.39 230.82 239.41 231.32 240.16 Z M 231.88 240.99 L 232.43 241.83 C 232.93 242.58 233.95 242.79 234.70 242.30 C 235.46 241.80 235.67 240.78 235.17 240.03 L 234.62 239.19 C 234.12 238.43 233.10 238.22 232.35 238.72 C 231.59 239.22 231.38 240.23 231.88 240.99 Z M 232.43 241.82 L 232.96 242.64 C 233.45 243.40 234.47 243.61 235.23 243.12 C 235.99 242.62 236.20 241.61 235.71 240.85 L 235.17 240.03 C 234.68 239.27 233.67 239.06 232.91 239.55 C 232.15 240.05 231.93 241.06 232.43 241.82 Z M 232.96 242.64 L 233.51 243.49 C 234.01 244.25 235.02 244.47 235.78 243.97 C 236.54 243.48 236.76 242.47 236.26 241.71 L 235.71 240.85 C 235.21 240.09 234.20 239.88 233.44 240.37 C 232.68 240.86 232.46 241.88 232.96 242.64 Z M 233.52 243.50 L 234.07 244.34 C 234.57 245.10 235.59 245.31 236.34 244.81 C 237.10 244.31 237.31 243.29 236.81 242.54 L 236.26 241.70 C 235.76 240.94 234.74 240.73 233.99 241.23 C 233.23 241.73 233.02 242.74 233.52 243.50 Z M 234.09 244.36 L 234.64 245.17 C 235.15 245.92 236.17 246.12 236.92 245.61 C 237.67 245.10 237.86 244.08 237.35 243.33 L 236.80 242.52 C 236.29 241.77 235.27 241.57 234.52 242.08 C 233.77 242.59 233.58 243.61 234.09 244.36 Z M 234.66 245.21 L 235.24 246.01 C 235.77 246.74 236.79 246.91 237.53 246.38 C 238.26 245.85 238.43 244.83 237.90 244.09 L 237.33 243.29 C 236.80 242.56 235.77 242.39 235.04 242.92 C 234.30 243.45 234.13 244.47 234.66 245.21 Z M 235.26 246.04 L 235.87 246.84 C 236.42 247.57 237.44 247.71 238.17 247.16 C 238.89 246.62 239.03 245.59 238.49 244.87 L 237.88 244.06 C 237.33 243.34 236.30 243.20 235.58 243.74 C 234.86 244.29 234.72 245.32 235.26 246.04 Z M 235.88 246.85 L 236.49 247.65 C 237.04 248.37 238.07 248.50 238.78 247.95 C 239.50 247.40 239.64 246.37 239.09 245.66 L 238.48 244.86 C 237.93 244.14 236.90 244.00 236.18 244.55 C 235.46 245.11 235.33 246.13 235.88 246.85 Z M 236.47 247.63 L 237.06 248.42 C 237.60 249.15 238.63 249.30 239.35 248.76 C 240.08 248.22 240.23 247.19 239.69 246.47 L 239.10 245.67 C 238.56 244.95 237.54 244.80 236.81 245.34 C 236.08 245.88 235.93 246.90 236.47 247.63 Z M 237.03 248.38 L 237.62 249.23 C 238.14 249.97 239.16 250.16 239.90 249.64 C 240.65 249.12 240.83 248.10 240.31 247.36 L 239.72 246.51 C 239.21 245.76 238.18 245.58 237.44 246.10 C 236.70 246.61 236.51 247.64 237.03 248.38 Z M 237.59 249.19 L 238.14 250.03 C 238.63 250.79 239.65 251.01 240.41 250.51 C 241.17 250.02 241.38 249.01 240.89 248.25 L 240.34 247.40 C 239.85 246.64 238.83 246.43 238.08 246.92 C 237.32 247.41 237.10 248.43 237.59 249.19 Z M 238.12 250.00 L 238.63 250.82 C 239.10 251.59 240.11 251.83 240.88 251.36 C 241.65 250.88 241.89 249.87 241.42 249.10 L 240.91 248.28 C 240.44 247.51 239.43 247.27 238.66 247.74 C 237.88 248.22 237.64 249.23 238.12 250.00 Z M 238.61 250.80 L 239.11 251.64 C 239.58 252.42 240.58 252.67 241.36 252.21 C 242.14 251.75 242.39 250.74 241.93 249.96 L 241.43 249.12 C 240.97 248.35 239.96 248.09 239.18 248.55 C 238.40 249.02 238.15 250.02 238.61 250.80 Z M 239.11 251.64 L 239.61 252.48 C 240.07 253.26 241.08 253.52 241.86 253.05 C 242.64 252.59 242.89 251.59 242.43 250.81 L 241.93 249.96 C 241.47 249.19 240.46 248.93 239.69 249.39 C 238.91 249.85 238.65 250.86 239.11 251.64 Z M 239.62 252.50 L 240.15 253.37 C 240.62 254.15 241.63 254.39 242.41 253.92 C 243.18 253.45 243.43 252.44 242.95 251.67 L 242.42 250.79 C 241.95 250.02 240.94 249.77 240.17 250.24 C 239.39 250.71 239.15 251.72 239.62 252.50 Z M 240.17 253.40 L 240.68 254.21 C 241.17 254.97 242.18 255.20 242.94 254.71 C 243.71 254.23 243.94 253.21 243.45 252.45 L 242.94 251.64 C 242.45 250.88 241.44 250.65 240.68 251.14 C 239.91 251.62 239.68 252.63 240.17 253.40 Z M 240.69 254.22 L 241.24 255.06 C 241.73 255.82 242.75 256.03 243.51 255.53 C 244.27 255.04 244.48 254.02 243.98 253.27 L 243.44 252.43 C 242.94 251.67 241.93 251.46 241.17 251.95 C 240.41 252.45 240.20 253.46 240.69 254.22 Z M 241.24 255.07 L 241.81 255.93 C 242.31 256.68 243.33 256.89 244.09 256.39 C 244.84 255.89 245.05 254.87 244.55 254.11 L 243.98 253.26 C 243.48 252.50 242.46 252.29 241.70 252.79 C 240.95 253.30 240.74 254.31 241.24 255.07 Z M 241.82 255.93 L 242.14 256.41 C 242.64 257.16 243.66 257.37 244.41 256.86 C 245.16 256.36 245.37 255.34 244.86 254.59 L 244.54 254.11 C 244.04 253.36 243.02 253.15 242.27 253.66 C 241.52 254.16 241.31 255.18 241.82 255.93 Z"
      fill="black"
      fill-rule="nonzero" /></svg>