<svg xmlns="http://www.w3.org/2000/svg" width="300" height="300" viewBox="0 0 300 300">
<path d="M 129.0 138.5 L 128.5 138.5 L 127.5 139.5 L 127.0 139.5 L 127.0 139.5 L 127.5 139.5 L 129.5 139.5 L 132.5 139.0 L 137.0 139.0 L 143.5 139.0 L 151.5 139.0 L 159.0 139.0 L 164.5 139.0 L 168.0 138.5 L 169.5 138.5 L 170.0 138.5 L 170.0 138.5 L 170.0 138.5 L 170.0 138.5 L 170.0 138.5 L 170.0 138.5 L 170.0 138.5 L 170.0 138.5 L 170.0 138.5 L 170.0 138.5 " stroke="black" fill="none" stroke-width="6.0" stroke-linecap="round" stroke-linejoin="round" />
<path d="M 148.5 112.5 L 148.0 113.0 L 147.5 113.5 L 147.5 114.0 L 147.0 115.0 L 147.0 117.0 L 147.5 120.5 L 147.5 124.5 L 148.0 128.5 L 148.0 133.0 L 148.5 137.5 L 148.5 142.5 L 148.5 146.5 L 149.0 150.5 L 149.0 153.5 L 149.0 156.0 L 149.0 158.5 L 149.5 161.0 L 149.5 163.0 L 149.5 164.5 L 150.0 165.5 L 150.0 167.0 L 150.0 168.0 L 150.0 169.0 L 150.0 170.5 L 150.0 171.5 L 150.0 172.5 L 150.0 173.0 L 150.0 173.5 L 150.0 174.0 L 150.0 174.0 L 150.0 174.0 L 150.0 174.0 L 150.0 174.0 L 150.5 174.0 L 150.5 174.0 " stroke="black" fill="none" stroke-width="6.0" stroke-linecap="round" stroke-linejoin="round" />
</svg>