<svg xmlns="http://www.w3.org/2000/svg" width="300" height="300" viewBox="0 0 300 300">
<path d="M 142.0 119.5 L 141.5 119.5 L 141.0 120.0 L 141.0 120.0 L 141.0 121.0 L 140.5 123.0 L 140.0 126.5 L 138.0 131.5 L 134.5 137.0 L 131.0 142.0 L 128.5 145.0 L 127.5 145.5 L 127.5 145.5 L 127.5 145.5 L 127.5 145.5 L 128.5 145.0 L 131.0 144.5 L 134.5 143.5 L 139.0 143.0 L 144.5 142.0 L 149.5 141.5 L 152.0 141.0 L 152.0 141.0 " stroke="black" fill="none" stroke-width="6.0" stroke-linecap="round" stroke-linejoin="round" />
<path d="M 155.5 129.5 L 156.0 129.0 L 156.5 129.0 L 156.5 128.5 L 156.5 128.5 L 156.5 128.5 L 156.0 129.5 L 154.5 133.5 L 151.5 139.5 L 148.0 147.0 L 143.5 154.0 L 139.0 159.5 L 135.5 163.5 L 132.5 167.0 L 130.5 169.5 L 130.0 170.5 L 130.0 170.5 L 130.0 170.5 L 130.0 170.5 L 130.0 170.5 L 131.0 170.0 L 133.0 170.0 L 135.5 169.5 L 139.0 168.5 L 144.5 168.0 L 151.5 168.0 L 157.5 167.5 L 161.0 167.0 L 162.5 166.5 L 162.0 166.0 L 162.0 166.0 " stroke="black" fill="none" stroke-width="6.0" stroke-linecap="round" stroke-linejoin="round" />
<path d="M 161.5 157.0 L 161.5 157.0 L 161.5 157.5 L 161.5 157.5 L 161.5 158.0 L 162.5 159.5 L 165.0 164.0 L 168.5 170.5 L 171.0 175.5 L 171.0 176.5 " stroke="black" fill="none" stroke-width="6.0" stroke-linecap="round" stroke-linejoin="round" />
</svg>