<svg xmlns="http://www.w3.org/2000/svg" width="300" height="300" viewBox="0 0 300 300">
<path d="M 144.0 124.5 L 144.0 124.0 L 144.0 123.5 L 143.5 123.0 L 143.5 123.0 L 143.5 122.5 L 143.5 122.5 L 143.5 122.5 L 143.5 124.0 L 143.5 126.5 L 143.5 131.0 L 143.0 136.5 L 142.0 143.0 L 140.5 149.0 L 138.0 154.0 L 135.5 158.5 L 133.0 162.0 L 131.5 165.5 L 130.0 167.5 L 129.5 168.0 L 129.5 168.0 L 129.5 167.5 L 129.5 166.0 " stroke="black" fill="none" stroke-width="6.0" stroke-linecap="round" stroke-linejoin="round" />
<path d="M 157.5 127.0 L 157.5 127.0 L 158.0 126.5 L 158.0 126.5 L 158.0 126.0 L 158.0 126.0 L 158.0 126.5 L 158.0 128.0 L 158.0 131.5 L 157.5 137.0 L 156.0 143.5 L 155.0 149.5 L 155.0 154.0 L 156.0 157.0 L 158.0 159.0 L 161.0 160.5 L 164.0 161.5 L 167.5 162.0 L 172.0 161.5 L 176.0 160.0 L 178.5 159.0 L 180.5 158.0 L 180.5 158.0 L 180.5 158.0 " stroke="black" fill="none" stroke-width="6.0" stroke-linecap="round" stroke-linejoin="round" />
</svg>