<svg xmlns="http://www.w3.org/2000/svg" width="300" height="300" viewBox="0 0 300 300">
<path d="M 149.0 120.5 L 148.5 120.5 L 148.5 120.5 L 148.0 120.5 L 148.0 120.5 L 148.0 120.5 L 147.5 120.5 L 147.5 120.5 L 147.5 121.0 L 147.5 123.0 L 147.5 127.0 L 147.0 131.5 L 145.5 137.0 L 144.5 142.0 L 143.0 145.5 L 142.0 148.5 L 141.0 151.0 L 140.0 153.5 L 139.0 155.0 L 138.5 156.5 L 138.0 157.5 L 137.0 158.5 L 136.5 159.5 L 136.0 160.0 L 135.0 161.0 L 134.5 162.5 L 133.5 163.5 L 133.5 164.0 L 133.0 164.0 L 133.0 164.0 L 133.0 164.0 L 133.0 164.0 L 133.0 164.0 L 133.0 164.0 L 133.0 164.0 L 133.5 164.0 L 133.5 164.0 L 134.5 164.0 L 136.5 164.0 L 140.5 164.0 L 146.0 163.5 L 151.0 163.5 L 155.5 163.0 L 159.5 163.0 L 162.5 163.5 L 164.5 163.5 L 165.0 163.5 L 165.5 163.5 L 165.5 163.5 L 165.5 163.0 L 165.5 163.0 " stroke="black" fill="none" stroke-width="6.0" stroke-linecap="round" stroke-linejoin="round" />
<path d="M 167.5 149.5 L 166.5 149.5 L 165.5 149.5 L 165.0 149.5 L 165.0 150.5 L 166.0 153.5 L 168.0 159.0 L 170.5 164.0 L 172.0 168.5 L 173.5 171.0 L 174.0 172.0 " stroke="black" fill="none" stroke-width="6.0" stroke-linecap="round" stroke-linejoin="round" />
</svg>