<svg xmlns="http://www.w3.org/2000/svg" width="300" height="300" viewBox="0 0 300 300">
<path d="M 133.5 127.0 L 133.5 127.5 L 133.5 127.5 L 133.5 127.5 L 134.5 128.0 L 138.0 128.5 L 145.5 129.0 L 154.5 129.5 L 163.0 129.5 L 169.5 129.5 L 172.0 130.0 L 172.0 130.0 L 172.0 130.0 L 172.0 130.0 L 172.0 130.0 " stroke="black" fill="none" stroke-width="6.0" stroke-linecap="round" stroke-linejoin="round" />
<path d="M 132.0 132.5 L 132.5 132.0 L 133.0 131.5 L 133.0 131.0 L 133.0 131.0 L 133.0 131.0 L 133.0 131.5 L 133.5 133.5 L 134.0 137.5 L 134.0 143.5 L 134.0 151.5 L 133.0 159.0 L 131.5 166.0 L 129.5 171.5 L 127.5 176.5 L 125.5 179.5 L 124.0 182.0 L 123.5 183.5 L 123.5 184.0 L 124.5 185.0 " stroke="black" fill="none" stroke-width="6.0" stroke-linecap="round" stroke-linejoin="round" />
</svg>