<svg xmlns="http://www.w3.org/2000/svg" width="300" height="300" viewBox="0 0 300 300">
<path d="M 137.0 124.0 L 136.0 124.0 L 135.5 123.5 L 135.0 123.0 L 135.0 123.0 L 136.5 123.0 L 140.0 123.0 L 144.5 123.0 L 150.0 123.0 L 156.0 123.0 L 162.0 122.5 L 166.0 122.5 L 168.0 122.5 L 168.0 122.5 L 168.0 122.5 L 168.0 122.5 L 168.0 122.5 L 168.0 122.5 L 168.0 122.5 L 168.0 122.5 L 168.0 122.5 L 168.0 122.5 L 168.0 123.0 L 168.0 123.0 L 168.0 123.5 L 168.0 125.0 L 167.5 127.0 L 165.5 130.5 L 162.5 135.0 L 158.0 141.5 L 153.0 148.0 L 149.0 154.0 L 145.0 159.0 L 140.5 165.0 L 136.5 170.0 L 133.5 173.5 L 132.0 175.0 L 132.0 175.0 L 132.0 174.5 L 132.0 173.5 L 131.5 173.0 " stroke="black" fill="none" stroke-width="6.0" stroke-linecap="round" stroke-linejoin="round" />
<path d="M 139.0 140.0 L 139.0 140.5 L 139.0 140.5 L 139.0 140.5 L 139.5 141.0 L 142.0 141.5 L 147.0 144.5 L 155.0 150.5 L 163.5 156.5 L 171.0 160.5 L 175.5 163.0 L 178.0 165.0 L 179.0 165.5 " stroke="black" fill="none" stroke-width="6.0" stroke-linecap="round" stroke-linejoin="round" />
</svg>