<svg xmlns="http://www.w3.org/2000/svg" width="300" height="300" viewBox="0 0 300 300">
<path d="M 138.0 134.0 L 138.0 134.5 L 138.0 135.0 L 138.0 135.0 L 138.0 135.0 L 139.5 135.0 L 144.5 135.0 L 152.0 135.0 L 160.5 134.5 L 167.5 134.5 L 171.5 134.5 L 173.0 134.5 L 173.0 134.5 L 172.5 134.5 " stroke="black" fill="none" stroke-width="6.0" stroke-linecap="round" stroke-linejoin="round" />
<path d="M 156.0 122.5 L 156.5 122.0 L 157.0 121.0 L 157.5 120.5 L 158.0 120.0 L 158.0 120.0 L 158.0 120.0 L 158.0 121.5 L 157.5 125.0 L 156.5 129.5 L 154.0 135.5 L 151.0 142.5 L 148.0 149.5 L 145.0 154.0 L 142.5 156.5 L 141.5 157.5 L 141.0 158.5 L 141.0 158.5 L 141.0 159.0 L 141.0 159.0 L 141.0 159.0 L 141.0 159.0 L 141.5 158.5 L 143.5 158.0 L 145.5 157.5 L 149.0 156.5 L 154.5 156.5 L 160.5 156.0 L 166.5 155.5 L 171.0 155.5 L 173.0 155.5 L 173.0 155.5 L 172.5 155.0 " stroke="black" fill="none" stroke-width="6.0" stroke-linecap="round" stroke-linejoin="round" />
<path d="M 169.5 146.0 L 169.0 146.0 L 168.0 146.0 L 168.0 145.5 L 168.0 146.5 L 169.5 149.0 L 172.0 154.5 L 174.5 160.5 L 177.0 166.0 L 178.5 169.5 L 178.5 169.5 " stroke="black" fill="none" stroke-width="6.0" stroke-linecap="round" stroke-linejoin="round" />
</svg>