<svg xmlns="http://www.w3.org/2000/svg" width="300" height="300" viewBox="0 0 300 300">
<path d="M 136.0 125.0 L 136.0 125.0 L 136.0 124.5 L 136.0 124.5 L 136.0 124.5 L 136.0 124.0 L 136.5 124.0 L 137.5 124.0 L 139.0 124.0 L 142.0 124.0 L 145.5 124.0 L 149.0 124.0 L 152.5 124.0 L 155.5 124.0 L 158.0 124.0 L 160.0 123.5 L 161.0 123.5 L 162.0 123.0 L 162.0 123.0 L 162.5 123.0 L 163.0 123.0 L 164.0 123.0 L 164.5 123.0 L 165.0 123.0 L 165.5 123.0 L 166.0 123.0 L 166.5 123.0 L 167.0 123.0 L 167.0 123.0 L 167.5 123.0 L 167.5 123.0 L 167.5 123.0 L 167.5 123.0 L 167.5 123.5 L 167.5 123.5 L 167.5 124.5 L 167.5 125.0 L 167.0 126.5 L 166.5 128.0 L 166.5 130.0 L 166.0 132.0 L 166.0 134.0 L 166.0 136.0 L 166.0 138.0 L 166.0 140.0 L 166.0 141.5 L 166.0 143.5 L 165.5 145.5 L 165.5 147.0 L 165.0 148.5 L 164.5 150.0 L 164.5 151.0 L 164.0 152.0 L 163.0 152.5 L 162.5 152.5 L 161.0 152.5 L 160.0 152.5 L 159.0 152.5 L 158.0 152.0 L 157.5 151.5 " stroke="black" fill="none" stroke-width="6.0" stroke-linecap="round" stroke-linejoin="round" />
<path d="M 146.5 127.5 L 146.5 127.5 L 146.0 127.5 L 146.0 127.5 L 145.5 127.5 L 145.5 127.5 L 145.5 127.5 L 145.5 127.5 L 145.5 128.0 L 146.0 129.0 L 146.0 130.5 L 146.5 132.5 L 146.5 134.0 L 146.5 136.0 L 146.5 138.0 L 146.5 140.0 L 146.5 142.0 L 146.5 144.5 L 146.5 146.0 L 146.5 148.0 L 146.5 150.0 L 146.5 151.0 L 146.5 153.0 L 146.5 154.0 L 146.5 155.5 L 146.5 156.5 L 146.5 157.5 L 146.5 158.5 L 146.5 159.5 L 146.5 161.0 L 146.5 162.0 L 146.0 163.0 L 146.0 164.0 L 146.0 165.0 L 146.0 165.5 L 146.0 166.0 L 146.0 167.0 L 146.0 167.5 L 146.0 168.0 L 146.0 168.5 L 146.0 169.0 L 146.0 169.0 L 146.0 169.5 L 146.0 170.0 L 146.0 171.0 L 146.0 171.5 L 146.0 172.0 L 146.0 172.5 L 146.0 173.5 L 146.0 174.0 L 146.0 174.0 L 146.0 174.5 L 146.0 174.5 L 146.0 174.0 L 146.5 173.5 " stroke="black" fill="none" stroke-width="6.0" stroke-linecap="round" stroke-linejoin="round" />
</svg>