<svg xmlns="http://www.w3.org/2000/svg" width="300" height="300" viewBox="0 0 300 300">
<path d="M 137.5 112.0 L 137.5 112.0 L 137.5 112.5 L 137.5 113.0 L 137.5 113.0 L 137.0 113.0 L 138.0 112.5 L 140.0 112.0 L 143.5 111.0 L 148.5 110.5 L 152.5 110.0 L 156.5 109.5 L 159.5 109.5 L 161.5 109.5 L 162.5 109.5 L 163.0 109.5 L 163.5 109.5 L 164.0 109.5 L 164.5 109.5 L 165.5 109.5 L 166.0 109.5 L 166.5 109.5 L 167.5 109.5 L 168.0 109.5 L 168.0 109.5 L 168.5 109.5 L 168.5 109.5 L 168.5 109.5 L 168.5 110.0 L 168.5 110.0 L 168.5 111.0 L 168.0 112.5 L 167.5 114.5 L 167.5 118.0 L 167.0 122.0 L 166.5 125.5 L 166.5 127.5 L 166.5 128.0 L 166.5 128.0 L 166.5 128.0 L 167.0 127.5 " stroke="black" fill="none" stroke-width="6.0" stroke-linecap="round" stroke-linejoin="round" />
<path d="M 138.5 130.5 L 138.0 131.0 L 138.0 131.5 L 137.5 131.5 L 137.5 131.5 L 138.0 131.5 L 139.5 131.5 L 143.5 131.0 L 149.5 130.5 L 157.0 130.0 L 163.5 129.5 L 168.0 128.5 L 169.0 128.0 L 169.0 128.0 " stroke="black" fill="none" stroke-width="6.0" stroke-linecap="round" stroke-linejoin="round" />
<path d="M 140.5 130.0 L 140.5 130.0 L 140.5 130.0 L 140.5 130.0 L 140.5 130.5 L 140.5 130.5 L 140.5 131.0 L 140.5 132.0 L 140.5 135.0 L 141.0 140.0 L 141.5 146.0 L 141.5 152.0 L 140.5 157.5 L 139.5 163.0 L 138.0 168.0 L 137.0 171.0 L 136.0 172.5 L 136.0 173.0 L 136.0 173.0 L 136.0 173.0 L 136.0 173.0 L 136.0 173.0 L 136.0 173.0 L 136.0 173.0 " stroke="black" fill="none" stroke-width="6.0" stroke-linecap="round" stroke-linejoin="round" />
</svg>