<svg xmlns="http://www.w3.org/2000/svg" width="300" height="300" viewBox="0 0 300 300">
<path d="M 135.5 129.5 L 135.5 129.5 L 135.5 129.5 L 135.5 130.0 L 135.5 130.0 L 135.0 130.0 L 135.0 130.0 L 136.0 130.0 L 138.5 130.0 L 142.0 129.5 L 146.5 129.5 L 151.5 128.5 L 156.0 128.0 L 159.0 127.5 L 161.5 127.5 L 162.5 127.5 L 163.0 127.5 L 163.5 127.5 L 164.0 127.0 L 164.5 127.0 L 165.0 127.0 L 165.5 127.0 L 166.0 127.0 L 166.5 127.0 L 167.0 127.0 L 167.0 127.0 L 167.5 127.0 L 167.5 127.0 " stroke="black" fill="none" stroke-width="6.0" stroke-linecap="round" stroke-linejoin="round" />
<path d="M 152.5 117.0 L 152.5 116.5 L 153.0 116.5 L 153.5 116.0 L 153.5 116.0 L 153.5 116.0 L 153.5 116.0 L 153.5 117.0 L 153.0 119.0 L 152.0 121.5 L 151.0 125.0 L 150.0 128.5 L 148.5 133.0 L 146.5 136.5 L 145.0 140.0 L 143.5 142.5 L 143.0 144.5 L 142.5 146.0 L 142.5 146.5 L 142.5 147.0 L 142.5 147.0 L 142.5 147.0 L 142.5 147.0 L 142.5 147.0 L 142.5 147.0 L 142.5 147.0 L 143.0 147.0 L 143.5 147.0 L 144.5 147.0 L 145.5 146.5 L 147.5 146.5 L 149.5 145.5 L 152.5 145.0 L 155.5 144.0 L 158.0 143.0 L 160.0 142.5 L 161.5 142.5 L 162.0 142.5 L 162.5 142.5 L 163.0 142.5 L 163.0 142.5 L 163.0 142.5 L 163.0 142.5 L 163.0 142.5 L 163.0 142.5 L 163.0 142.5 L 163.0 142.5 L 163.0 142.5 L 163.0 142.5 L 163.0 142.5 L 163.5 142.5 L 163.5 142.5 L 164.0 142.5 L 164.0 142.5 L 164.5 142.5 L 164.5 142.5 L 165.0 142.5 L 165.0 142.5 L 165.5 142.5 L 165.5 142.5 L 165.5 142.5 L 166.0 142.5 L 166.0 142.5 L 166.0 142.5 L 166.0 142.5 L 166.0 142.5 L 166.0 142.5 L 166.0 142.5 L 166.0 143.0 L 166.0 144.0 L 165.5 145.5 L 165.0 147.0 L 164.5 148.5 L 164.0 150.5 L 164.0 152.0 L 163.5 154.0 L 163.0 156.0 L 162.5 158.0 L 162.0 160.0 L 161.5 162.0 L 161.0 164.0 L 160.5 166.0 L 160.0 167.0 L 160.0 167.5 L 160.0 168.0 L 160.0 168.5 L 160.0 169.0 L 160.0 169.5 L 160.0 169.5 " stroke="black" fill="none" stroke-width="6.0" stroke-linecap="round" stroke-linejoin="round" />
</svg>