<svg xmlns="http://www.w3.org/2000/svg" width="300" height="300" viewBox="0 0 300 300">
<path d="M 135.5 129.5 L 133.5 129.5 L 133.0 129.5 L 133.0 129.5 L 134.0 129.5 L 136.5 129.5 L 140.5 129.5 L 146.5 128.5 L 153.5 127.5 L 160.5 126.5 L 165.0 126.0 L 166.0 125.5 L 166.0 125.5 L 165.5 125.5 L 165.5 125.5 L 165.5 125.5 L 165.5 125.5 L 165.5 125.5 L 165.5 125.5 L 165.5 125.5 L 165.5 126.0 L 165.5 126.5 L 165.0 127.5 L 164.0 129.5 L 163.0 132.5 L 160.5 137.0 L 157.5 142.5 L 153.5 149.5 L 148.0 156.0 L 142.5 161.5 L 137.0 166.5 L 132.5 171.5 L 129.5 175.0 L 128.5 176.5 L 128.5 176.5 L 129.0 175.5 " stroke="black" fill="none" stroke-width="6.0" stroke-linecap="round" stroke-linejoin="round" />
<path d="M 134.0 141.5 L 134.0 141.5 L 134.5 142.0 L 135.0 142.5 L 135.5 142.5 L 138.0 144.5 L 142.5 149.0 L 150.0 158.0 L 158.0 167.0 L 165.5 173.5 L 170.0 176.0 L 172.0 178.5 L 172.0 178.5 " stroke="black" fill="none" stroke-width="6.0" stroke-linecap="round" stroke-linejoin="round" />
</svg>