<svg xmlns="http://www.w3.org/2000/svg" width="300" height="300" viewBox="0 0 300 300">
<path d="M 149.0 91.0 L 148.0 91.5 L 147.5 92.0 L 148.5 93.0 L 152.5 96.0 L 157.5 99.5 L 162.0 102.5 L 164.5 103.0 " stroke="black" fill="none" stroke-width="9.0" stroke-linecap="round" stroke-linejoin="round" />
<path d="M 122.5 110.0 L 122.0 110.5 L 121.5 111.0 L 122.5 111.5 L 129.0 112.0 L 142.5 112.0 L 159.5 110.5 L 175.0 109.5 L 187.5 107.5 L 194.0 106.5 L 195.0 107.0 " stroke="black" fill="none" stroke-width="9.0" stroke-linecap="round" stroke-linejoin="round" />
<path d="M 145.0 123.5 L 145.0 123.5 L 145.0 123.0 L 144.5 123.0 L 143.0 125.0 L 138.5 130.5 L 130.5 137.5 L 124.0 141.0 L 123.0 141.0 L 124.5 139.5 " stroke="black" fill="none" stroke-width="9.0" stroke-linecap="round" stroke-linejoin="round" />
<path d="M 178.0 128.0 L 177.5 129.0 L 177.5 130.0 L 181.5 132.0 L 188.0 135.0 L 195.0 137.0 L 197.5 137.0 " stroke="black" fill="none" stroke-width="9.0" stroke-linecap="round" stroke-linejoin="round" />
<path d="M 176.0 140.5 L 176.5 140.0 L 177.0 139.5 L 177.5 139.5 L 176.5 141.0 L 173.5 145.0 L 167.0 153.0 L 153.5 167.5 L 138.0 181.0 L 126.0 188.5 L 120.5 189.5 L 119.5 186.5 L 121.0 184.0 " stroke="black" fill="none" stroke-width="9.0" stroke-linecap="round" stroke-linejoin="round" />
<path d="M 142.5 146.5 L 142.0 146.5 L 141.0 146.5 L 141.0 146.0 L 142.5 147.5 L 148.0 151.5 L 159.5 160.5 L 176.5 172.5 L 193.0 180.5 L 206.5 183.0 L 216.0 184.0 L 217.0 184.0 " stroke="black" fill="none" stroke-width="9.0" stroke-linecap="round" stroke-linejoin="round" />
</svg>