<svg xmlns="http://www.w3.org/2000/svg" width="300" height="300" viewBox="0 0 300 300">
<path d="M 132.0 112.0 L 132.0 112.0 L 132.0 112.0 L 132.0 112.0 L 131.5 112.0 L 132.0 112.0 L 136.0 112.0 L 144.5 111.5 L 154.5 111.5 L 163.0 111.5 L 167.0 111.0 L 168.0 111.0 L 167.5 111.0 L 167.0 111.0 L 166.0 111.0 " stroke="black" fill="none" stroke-width="6.0" stroke-linecap="round" stroke-linejoin="round" />
<path d="M 125.0 141.5 L 124.5 141.5 L 124.0 141.5 L 124.0 141.5 L 125.5 141.5 L 130.5 142.0 L 139.0 142.5 L 151.5 143.5 L 163.0 143.5 L 170.5 143.0 L 173.5 143.0 L 173.5 143.5 L 173.0 143.5 L 172.5 143.5 " stroke="black" fill="none" stroke-width="6.0" stroke-linecap="round" stroke-linejoin="round" />
<path d="M 150.5 114.5 L 150.5 115.0 L 150.5 115.5 L 150.5 115.5 L 150.5 117.0 L 151.0 120.0 L 152.0 127.0 L 153.0 137.5 L 153.0 151.5 L 152.0 164.0 L 150.5 175.5 L 149.5 183.5 L 149.5 188.5 L 149.0 191.5 L 149.0 192.0 L 148.5 192.0 L 147.0 191.0 L 144.0 189.0 L 141.5 187.5 L 139.0 186.0 L 137.5 185.5 L 137.0 185.0 " stroke="black" fill="none" stroke-width="6.0" stroke-linecap="round" stroke-linejoin="round" />
</svg>