<svg xmlns="http://www.w3.org/2000/svg" width="300" height="300" viewBox="0 0 300 300">
<path d="M 147.5 104.0 L 147.0 104.0 L 146.0 104.0 L 145.5 104.0 L 145.5 104.0 L 147.0 104.5 L 149.0 106.0 L 151.0 107.5 L 152.5 108.0 L 153.5 108.5 " stroke="black" fill="none" stroke-width="6.0" stroke-linecap="round" stroke-linejoin="round" />
<path d="M 125.5 120.0 L 126.0 119.5 L 127.0 119.5 L 130.5 119.5 L 138.0 119.5 L 150.5 117.5 L 163.5 116.0 L 172.5 114.5 L 177.5 114.0 L 178.5 114.0 L 177.5 114.0 L 176.5 114.0 " stroke="black" fill="none" stroke-width="6.0" stroke-linecap="round" stroke-linejoin="round" />
<path d="M 142.0 127.5 L 141.5 127.5 L 141.0 127.5 L 141.0 128.0 L 141.5 129.5 L 143.0 133.5 L 144.5 137.5 L 145.5 140.5 L 146.0 141.0 " stroke="black" fill="none" stroke-width="6.0" stroke-linecap="round" stroke-linejoin="round" />
<path d="M 145.0 129.0 L 144.5 129.0 L 144.0 129.0 L 144.0 129.0 L 146.0 128.0 L 150.0 127.5 L 154.5 126.5 L 159.0 125.5 L 163.5 125.0 L 166.0 125.0 L 167.0 125.0 L 167.0 126.0 L 166.5 127.5 L 165.5 130.5 L 164.5 134.0 L 163.0 136.5 L 162.5 138.5 L 162.0 139.0 " stroke="black" fill="none" stroke-width="6.0" stroke-linecap="round" stroke-linejoin="round" />
<path d="M 148.5 142.0 L 148.5 142.0 L 147.5 142.0 L 147.5 141.5 L 149.0 141.0 L 152.0 141.0 L 156.0 141.0 L 157.5 141.0 " stroke="black" fill="none" stroke-width="6.0" stroke-linecap="round" stroke-linejoin="round" />
<path d="M 142.5 151.5 L 142.0 151.5 L 141.5 152.5 L 141.0 152.5 L 141.0 152.5 L 141.0 152.5 L 142.5 152.0 L 145.0 151.0 L 149.5 150.0 L 155.0 149.5 L 160.0 149.5 L 164.5 149.5 L 166.5 150.5 L 166.0 151.5 L 164.0 153.0 L 161.5 155.5 L 159.0 157.5 L 157.0 159.5 L 155.5 162.0 L 154.0 163.5 L 153.5 165.0 L 153.5 165.0 L 153.5 165.0 L 155.0 165.0 L 157.0 165.0 L 158.5 165.0 L 160.0 165.5 L 160.5 167.0 L 160.5 171.0 L 160.5 177.5 L 160.0 186.5 L 159.5 194.5 L 159.0 201.0 L 158.0 205.5 L 156.5 208.0 L 155.0 209.0 L 153.5 208.5 L 150.5 206.0 L 148.0 202.5 L 146.5 199.5 L 146.0 198.5 " stroke="black" fill="none" stroke-width="6.0" stroke-linecap="round" stroke-linejoin="round" />
<path d="M 138.0 173.0 L 138.0 173.5 L 138.0 174.0 L 138.0 174.0 L 140.5 174.0 L 147.0 173.0 L 158.0 173.0 L 170.0 173.0 L 179.0 171.5 L 184.5 169.0 L 185.0 169.0 " stroke="black" fill="none" stroke-width="6.0" stroke-linecap="round" stroke-linejoin="round" />
</svg>