<svg xmlns="http://www.w3.org/2000/svg" width="300" height="300" viewBox="0 0 300 300">
<path d="M 139.5 95.5 L 139.0 95.0 L 139.0 94.5 L 141.5 95.0 L 145.0 98.0 L 149.0 102.5 L 152.0 106.0 L 153.0 107.0 " stroke="black" fill="none" stroke-width="8.0" stroke-linecap="round" stroke-linejoin="round" />
<path d="M 117.5 119.0 L 117.5 119.0 L 117.5 118.5 L 117.5 118.5 L 121.0 118.5 L 129.5 117.5 L 144.5 116.0 L 162.0 115.0 L 175.5 114.5 L 185.5 114.0 L 190.5 114.0 L 191.0 116.0 L 190.5 116.5 " stroke="black" fill="none" stroke-width="8.0" stroke-linecap="round" stroke-linejoin="round" />
<path d="M 148.0 124.0 L 147.5 124.0 L 147.5 124.5 L 147.5 126.5 L 147.5 133.0 L 145.0 147.5 L 139.0 166.5 L 133.5 176.0 L 132.5 177.0 L 132.5 172.5 " stroke="black" fill="none" stroke-width="8.0" stroke-linecap="round" stroke-linejoin="round" />
<path d="M 165.5 118.5 L 165.5 118.5 L 164.5 118.5 L 164.5 119.0 L 164.5 124.0 L 166.5 137.0 L 168.0 153.0 L 168.0 163.5 L 168.0 169.5 L 168.0 172.0 L 168.0 172.5 " stroke="black" fill="none" stroke-width="8.0" stroke-linecap="round" stroke-linejoin="round" />
<path d="M 131.0 140.0 L 131.0 139.5 L 130.0 139.5 L 128.5 141.0 L 125.5 147.0 L 120.5 154.0 L 117.5 157.5 L 117.5 156.0 L 118.0 155.0 " stroke="black" fill="none" stroke-width="8.0" stroke-linecap="round" stroke-linejoin="round" />
<path d="M 185.5 141.5 L 185.0 141.5 L 184.0 141.0 L 184.0 142.0 L 187.0 145.0 L 192.0 149.5 L 198.5 154.0 L 202.0 156.0 " stroke="black" fill="none" stroke-width="8.0" stroke-linecap="round" stroke-linejoin="round" />
</svg>