<svg xmlns="http://www.w3.org/2000/svg" width="300" height="300" viewBox="0 0 300 300">
<path d="M 125.55555555555556 112.22222222222221 L 125.55555555555556 111.66666666666667 L 125.55555555555556 110.55555555555556 L 125.55555555555556 110.0 L 125.55555555555556 110.0 L 125.55555555555556 110.55555555555556 L 125.55555555555556 112.77777777777779 L 124.44444444444444 117.77777777777779 L 121.66666666666667 123.8888888888889 L 116.66666666666667 132.7777777777778 L 108.88888888888889 140.55555555555557 L 102.22222222222223 144.44444444444446 L 101.11111111111111 144.44444444444446 " stroke="black" fill="none" stroke-width="7.0" stroke-linecap="round" stroke-linejoin="round" />
<path d="M 120.00000000000001 131.11111111111111 L 119.44444444444444 131.11111111111111 L 118.8888888888889 131.11111111111111 L 118.8888888888889 131.66666666666669 L 118.8888888888889 132.22222222222223 L 119.44444444444444 136.11111111111111 L 120.55555555555556 145.00000000000003 L 120.55555555555556 159.44444444444446 L 120.55555555555556 172.7777777777778 L 119.44444444444444 179.44444444444446 L 120.00000000000001 180.55555555555557 L 120.00000000000001 180.00000000000003 " stroke="black" fill="none" stroke-width="7.0" stroke-linecap="round" stroke-linejoin="round" />
<path d="M 147.22222222222223 112.22222222222221 L 147.22222222222223 112.22222222222221 L 146.66666666666669 112.22222222222221 L 146.66666666666669 111.66666666666667 L 146.11111111111111 111.66666666666667 L 146.11111111111111 111.66666666666667 L 146.11111111111111 111.66666666666667 L 146.11111111111111 115.00000000000001 L 146.11111111111111 122.22222222222221 L 146.11111111111111 132.22222222222223 L 145.55555555555557 139.44444444444446 L 145.55555555555557 141.11111111111111 L 146.11111111111111 141.11111111111111 " stroke="black" fill="none" stroke-width="7.0" stroke-linecap="round" stroke-linejoin="round" />
<path d="M 148.33333333333334 126.66666666666667 L 147.7777777777778 126.66666666666667 L 146.66666666666669 126.66666666666667 L 146.11111111111111 126.66666666666667 L 147.22222222222223 126.66666666666667 L 149.44444444444446 126.66666666666667 L 152.7777777777778 126.1111111111111 L 156.11111111111111 126.1111111111111 L 158.8888888888889 126.1111111111111 L 159.44444444444446 125.55555555555556 " stroke="black" fill="none" stroke-width="7.0" stroke-linecap="round" stroke-linejoin="round" />
<path d="M 134.44444444444446 146.11111111111111 L 134.44444444444446 145.55555555555557 L 134.44444444444446 145.00000000000003 L 134.44444444444446 144.44444444444446 L 135.00000000000003 143.8888888888889 L 137.22222222222223 143.8888888888889 L 140.55555555555557 143.8888888888889 L 145.55555555555557 143.8888888888889 L 150.55555555555557 143.8888888888889 L 155.55555555555557 143.8888888888889 L 158.33333333333334 143.8888888888889 L 160.55555555555557 144.44444444444446 L 161.66666666666669 145.55555555555557 L 161.66666666666669 145.55555555555557 " stroke="black" fill="none" stroke-width="7.0" stroke-linecap="round" stroke-linejoin="round" />
<path d="M 148.33333333333334 142.7777777777778 L 148.33333333333334 142.22222222222223 L 147.7777777777778 141.66666666666669 L 147.7777777777778 141.11111111111111 L 147.7777777777778 140.55555555555557 L 147.7777777777778 140.55555555555557 L 147.7777777777778 140.55555555555557 L 147.7777777777778 140.55555555555557 L 147.7777777777778 142.7777777777778 L 148.33333333333334 146.11111111111111 L 148.33333333333334 150.55555555555557 L 148.8888888888889 156.66666666666669 L 149.44444444444446 162.22222222222223 L 149.44444444444446 166.66666666666669 L 149.44444444444446 170.55555555555557 L 149.44444444444446 173.8888888888889 L 150.00000000000003 176.66666666666669 L 150.00000000000003 177.7777777777778 L 150.00000000000003 177.7777777777778 L 150.00000000000003 177.7777777777778 L 148.8888888888889 177.7777777777778 L 147.7777777777778 177.22222222222223 L 146.11111111111111 177.22222222222223 L 145.00000000000003 177.22222222222223 L 143.8888888888889 176.66666666666669 " stroke="black" fill="none" stroke-width="7.0" stroke-linecap="round" stroke-linejoin="round" />
<path d="M 138.8888888888889 155.00000000000003 L 138.8888888888889 155.00000000000003 L 137.7777777777778 155.55555555555557 L 136.66666666666669 156.66666666666669 L 134.44444444444446 160.00000000000003 L 132.22222222222223 164.44444444444446 L 130.55555555555557 167.7777777777778 L 130.55555555555557 167.7777777777778 " stroke="black" fill="none" stroke-width="7.0" stroke-linecap="round" stroke-linejoin="round" />
<path d="M 158.33333333333334 162.22222222222223 L 158.33333333333334 162.22222222222223 L 158.8888888888889 162.22222222222223 L 160.55555555555557 163.33333333333334 L 163.33333333333334 166.11111111111114 L 166.66666666666669 168.33333333333334 L 167.22222222222223 168.8888888888889 " stroke="black" fill="none" stroke-width="7.0" stroke-linecap="round" stroke-linejoin="round" />
<path d="M 171.66666666666669 118.8888888888889 L 170.55555555555557 118.8888888888889 L 170.00000000000003 118.33333333333333 L 170.00000000000003 117.77777777777779 L 172.22222222222223 117.22222222222221 L 175.00000000000003 117.22222222222221 L 178.33333333333334 117.22222222222221 L 182.22222222222223 116.66666666666667 L 185.00000000000003 116.66666666666667 L 186.66666666666669 116.66666666666667 L 187.22222222222223 116.66666666666667 L 187.22222222222223 116.66666666666667 L 186.11111111111114 118.33333333333333 L 185.55555555555557 121.1111111111111 L 183.8888888888889 126.66666666666667 L 182.22222222222223 134.44444444444446 L 180.00000000000003 145.00000000000003 L 177.7777777777778 157.22222222222223 L 175.00000000000003 168.33333333333334 L 173.8888888888889 175.00000000000003 L 173.33333333333334 176.66666666666669 L 173.33333333333334 176.11111111111114 L 173.33333333333334 175.55555555555557 " stroke="black" fill="none" stroke-width="7.0" stroke-linecap="round" stroke-linejoin="round" />
<path d="M 170.55555555555557 134.44444444444446 L 170.55555555555557 134.44444444444446 L 169.44444444444446 134.44444444444446 L 169.44444444444446 134.44444444444446 L 170.55555555555557 135.00000000000003 L 173.8888888888889 140.00000000000003 L 177.7777777777778 150.00000000000003 L 183.33333333333334 163.8888888888889 L 188.33333333333334 174.44444444444446 L 191.11111111111114 178.33333333333334 L 192.7777777777778 177.7777777777778 L 193.33333333333334 176.11111111111114 " stroke="black" fill="none" stroke-width="7.0" stroke-linecap="round" stroke-linejoin="round" />
</svg>