<svg xmlns="http://www.w3.org/2000/svg" width="300" height="300" viewBox="0 0 300 300">
<path d="M 131.5 111.5 L 131.5 111.5 L 132.0 112.0 L 132.5 112.0 L 132.5 112.0 L 132.5 112.0 L 132.5 113.5 L 131.0 118.0 L 128.0 125.0 L 124.0 132.5 L 120.0 138.0 L 117.5 140.5 L 115.5 141.5 L 114.5 142.5 L 113.5 142.5 " stroke="black" fill="none" stroke-width="6.0" stroke-linecap="round" stroke-linejoin="round" />
<path d="M 125.0 131.5 L 125.0 131.5 L 125.0 131.5 L 125.0 131.5 L 125.0 132.5 L 125.0 136.5 L 126.5 145.0 L 128.0 158.5 L 128.5 172.5 L 128.5 182.5 L 128.5 187.5 L 129.0 188.5 L 129.0 188.5 L 129.0 188.0 " stroke="black" fill="none" stroke-width="6.0" stroke-linecap="round" stroke-linejoin="round" />
<path d="M 142.5 119.5 L 142.5 119.0 L 142.0 118.0 L 142.0 117.5 L 142.0 119.0 L 142.5 124.5 L 144.0 131.5 L 145.0 137.0 L 146.0 139.0 L 146.0 138.5 " stroke="black" fill="none" stroke-width="6.0" stroke-linecap="round" stroke-linejoin="round" />
<path d="M 143.5 117.5 L 142.5 117.5 L 142.0 118.0 L 142.0 118.0 L 144.5 118.5 L 148.5 119.0 L 153.0 119.0 L 158.0 119.0 L 162.5 118.0 L 166.0 117.0 L 168.0 116.5 L 169.5 116.0 L 170.5 116.0 L 171.5 116.0 L 172.0 116.0 L 172.0 116.0 L 172.5 116.5 L 172.5 118.0 L 172.5 120.5 L 172.5 124.0 L 172.0 127.0 L 171.5 130.0 L 171.5 132.0 L 171.0 132.0 " stroke="black" fill="none" stroke-width="6.0" stroke-linecap="round" stroke-linejoin="round" />
<path d="M 148.0 137.5 L 146.5 138.5 L 146.5 138.5 L 147.5 138.5 L 151.0 138.5 L 155.5 138.5 L 161.0 138.5 L 166.5 138.5 L 167.5 138.5 " stroke="black" fill="none" stroke-width="6.0" stroke-linecap="round" stroke-linejoin="round" />
<path d="M 153.5 142.5 L 154.0 142.5 L 154.5 142.0 L 155.0 141.5 L 155.0 141.5 L 154.5 143.0 L 153.0 147.5 L 152.0 151.5 L 151.5 152.5 " stroke="black" fill="none" stroke-width="6.0" stroke-linecap="round" stroke-linejoin="round" />
<path d="M 138.0 165.0 L 138.0 164.0 L 138.0 161.5 L 138.0 159.0 L 139.0 157.0 L 139.5 156.5 L 140.0 156.5 L 140.5 158.5 L 141.5 164.5 L 142.5 171.5 L 143.5 178.0 L 144.5 181.0 L 145.0 181.5 L 145.5 177.5 " stroke="black" fill="none" stroke-width="6.0" stroke-linecap="round" stroke-linejoin="round" />
<path d="M 145.5 160.5 L 144.0 160.5 L 143.0 160.0 L 143.0 159.5 L 145.0 159.0 L 148.0 158.5 L 152.0 158.5 L 157.5 158.0 L 164.0 157.5 L 170.0 157.0 L 173.5 157.0 L 174.5 157.0 L 175.0 157.0 L 175.0 157.0 L 175.5 157.0 L 176.0 157.5 L 176.0 158.5 L 176.0 160.5 L 176.0 163.0 L 176.0 167.0 L 175.5 170.5 L 174.5 174.5 L 174.0 177.5 L 174.0 179.0 L 174.0 180.0 " stroke="black" fill="none" stroke-width="6.0" stroke-linecap="round" stroke-linejoin="round" />
<path d="M 150.0 186.5 L 149.5 186.5 L 148.5 186.5 L 148.0 186.5 L 149.0 186.5 L 153.5 186.0 L 159.5 186.0 L 167.0 186.5 L 169.0 186.5 " stroke="black" fill="none" stroke-width="6.0" stroke-linecap="round" stroke-linejoin="round" />
</svg>