<svg xmlns="http://www.w3.org/2000/svg" width="300" height="300" viewBox="0 0 300 300">
<path d="M 134.0 113.5 L 134.0 113.5 L 135.5 113.5 L 136.0 113.5 L 136.5 113.0 L 136.5 113.0 L 136.5 113.0 L 135.5 115.5 L 132.5 120.0 L 127.5 127.0 L 123.0 134.0 L 119.5 138.5 L 118.0 140.5 L 118.0 140.5 L 119.0 139.0 " stroke="black" fill="none" stroke-width="6.0" stroke-linecap="round" stroke-linejoin="round" />
<path d="M 128.0 131.0 L 128.0 131.0 L 128.0 131.5 L 128.0 132.0 L 128.0 132.0 L 128.0 132.5 L 128.0 134.5 L 129.0 140.0 L 129.0 149.5 L 129.0 159.5 L 129.0 167.5 L 128.5 171.0 L 128.0 171.5 L 128.0 170.5 " stroke="black" fill="none" stroke-width="6.0" stroke-linecap="round" stroke-linejoin="round" />
<path d="M 144.5 121.0 L 143.0 121.0 L 142.0 121.0 L 142.0 121.0 L 142.0 121.0 L 144.0 121.0 L 147.0 121.0 L 151.0 121.0 L 156.5 120.5 L 162.5 119.5 L 167.5 119.0 L 169.5 118.5 L 169.5 118.5 L 168.5 118.5 " stroke="black" fill="none" stroke-width="6.0" stroke-linecap="round" stroke-linejoin="round" />
<path d="M 154.0 122.0 L 154.0 122.0 L 154.5 121.5 L 154.5 121.5 L 154.5 121.0 L 155.0 121.5 L 155.0 124.5 L 154.5 130.5 L 153.0 140.0 L 151.5 149.5 L 150.5 155.0 L 150.0 157.5 L 150.0 158.5 L 150.0 159.0 L 150.0 159.5 L 150.0 159.5 " stroke="black" fill="none" stroke-width="6.0" stroke-linecap="round" stroke-linejoin="round" />
<path d="M 143.0 144.5 L 143.0 144.5 L 141.5 144.5 L 141.0 145.0 L 141.0 145.0 L 141.0 145.0 L 142.5 145.0 L 145.5 144.5 L 149.0 143.5 L 154.5 143.0 L 160.5 141.5 L 167.0 140.5 L 171.5 140.0 L 172.5 140.0 L 172.5 140.5 L 172.5 141.0 L 172.0 141.0 L 171.5 141.0 L 171.0 141.5 L 170.5 142.5 L 170.0 144.0 L 169.0 146.0 L 168.5 150.0 L 167.5 155.5 L 167.0 161.0 L 167.0 164.5 L 167.0 165.5 L 167.0 166.0 L 167.5 165.5 " stroke="black" fill="none" stroke-width="6.0" stroke-linecap="round" stroke-linejoin="round" />
<path d="M 144.0 167.0 L 144.0 167.0 L 143.0 167.0 L 142.5 167.0 L 142.0 167.0 L 141.5 167.0 L 141.5 167.0 L 141.5 167.0 L 142.0 167.0 L 143.5 166.5 L 146.0 166.0 L 150.0 165.5 L 157.0 164.5 L 165.5 164.0 L 173.0 163.5 L 178.0 164.0 L 181.0 164.5 L 183.0 165.0 L 183.0 165.0 L 183.0 165.0 L 182.5 164.5 L 182.0 164.5 " stroke="black" fill="none" stroke-width="6.0" stroke-linecap="round" stroke-linejoin="round" />
</svg>