<svg xmlns="http://www.w3.org/2000/svg" width="300" height="300" viewBox="0 0 300 300">
<path d="M 138.0 106.5 L 138.5 107.0 L 139.0 107.5 L 139.5 108.0 L 139.0 109.5 L 136.5 115.5 L 131.5 126.0 L 126.0 135.0 L 122.5 137.5 L 121.5 137.5 L 121.5 136.0 " stroke="black" fill="none" stroke-width="6.0" stroke-linecap="round" stroke-linejoin="round" />
<path d="M 129.0 129.5 L 129.0 129.5 L 129.5 129.5 L 130.0 130.0 L 130.5 132.5 L 131.5 142.5 L 132.0 160.0 L 132.0 175.5 L 133.0 181.5 L 134.0 183.0 L 134.0 182.5 " stroke="black" fill="none" stroke-width="6.0" stroke-linecap="round" stroke-linejoin="round" />
<path d="M 154.5 110.5 L 154.5 110.5 L 155.0 110.0 L 155.5 109.5 L 157.5 110.0 L 159.5 113.0 L 162.0 116.5 L 162.5 119.5 " stroke="black" fill="none" stroke-width="6.0" stroke-linecap="round" stroke-linejoin="round" />
<path d="M 142.0 124.0 L 141.5 124.5 L 140.5 125.0 L 140.0 128.5 L 139.5 133.0 L 140.5 137.0 L 141.5 137.0 " stroke="black" fill="none" stroke-width="6.0" stroke-linecap="round" stroke-linejoin="round" />
<path d="M 145.5 125.5 L 144.0 126.0 L 143.5 126.0 L 144.5 126.0 L 148.5 126.5 L 153.5 126.5 L 159.5 126.0 L 166.0 125.0 L 172.0 123.5 L 176.0 123.5 L 178.5 123.5 L 180.0 123.5 L 180.5 123.5 L 181.0 124.0 L 181.0 125.5 L 180.5 128.0 L 179.5 131.5 L 178.5 135.5 L 177.5 138.0 L 176.5 139.5 " stroke="black" fill="none" stroke-width="6.0" stroke-linecap="round" stroke-linejoin="round" />
<path d="M 150.5 144.5 L 150.5 144.5 L 150.0 144.5 L 149.5 144.5 L 150.0 144.0 L 154.0 143.5 L 160.0 143.5 L 166.0 143.0 L 170.0 142.5 L 171.0 142.5 " stroke="black" fill="none" stroke-width="6.0" stroke-linecap="round" stroke-linejoin="round" />
<path d="M 161.5 146.5 L 161.5 146.5 L 161.5 145.5 L 161.5 145.0 L 161.5 145.5 L 162.0 150.5 L 162.5 160.0 L 163.5 170.0 L 164.0 177.5 L 164.0 181.5 L 163.0 182.0 L 160.5 181.5 L 157.0 180.5 L 154.0 179.0 L 152.0 178.5 " stroke="black" fill="none" stroke-width="6.0" stroke-linecap="round" stroke-linejoin="round" />
</svg>