<svg xmlns="http://www.w3.org/2000/svg" width="300" height="300" viewBox="0 0 300 300">
<path d="M 118.5 83.5 L 118.5 83.0 L 118.5 82.5 L 118.5 82.5 L 118.5 82.5 L 118.5 83.0 L 117.5 87.0 L 113.0 98.0 L 103.0 116.0 L 93.0 129.0 L 86.5 135.5 L 83.5 138.0 L 83.0 138.5 L 83.0 137.5 " stroke="black" fill="none" stroke-width="10.0" stroke-linecap="round" stroke-linejoin="round" />
<path d="M 106.0 115.5 L 106.0 115.5 L 106.0 115.5 L 106.0 115.5 L 106.0 118.5 L 108.0 129.5 L 109.0 147.5 L 109.0 166.5 L 109.0 184.0 L 109.5 197.0 L 110.5 207.0 L 111.0 212.5 L 111.5 213.5 L 111.0 213.0 " stroke="black" fill="none" stroke-width="10.0" stroke-linecap="round" stroke-linejoin="round" />
<path d="M 128.5 125.5 L 128.5 125.5 L 127.5 125.5 L 127.5 125.5 L 128.5 125.5 L 135.0 125.5 L 146.0 125.0 L 161.5 124.5 L 176.0 122.5 L 188.5 120.0 L 197.5 118.5 L 203.0 118.0 L 206.0 117.5 L 206.5 117.5 L 206.5 117.0 L 206.0 116.0 L 204.5 114.0 " stroke="black" fill="none" stroke-width="10.0" stroke-linecap="round" stroke-linejoin="round" />
<path d="M 166.0 84.5 L 166.0 85.0 L 166.0 86.0 L 166.0 87.0 L 166.5 90.0 L 166.5 98.0 L 166.0 111.0 L 164.5 126.0 L 162.5 140.5 L 160.0 153.0 L 155.0 167.0 L 148.5 180.5 L 143.0 191.0 L 137.0 198.5 L 131.5 203.0 L 127.5 203.5 L 127.0 201.5 L 127.0 200.5 " stroke="black" fill="none" stroke-width="10.0" stroke-linecap="round" stroke-linejoin="round" />
<path d="M 166.5 142.0 L 166.5 142.0 L 165.5 142.0 L 165.5 142.0 L 166.0 143.5 L 170.5 151.5 L 179.0 167.0 L 189.0 182.0 L 196.5 189.5 L 202.5 195.0 L 207.0 199.0 L 211.5 203.0 L 214.5 206.0 L 217.0 208.0 L 218.0 208.5 L 218.0 208.5 " stroke="black" fill="none" stroke-width="10.0" stroke-linecap="round" stroke-linejoin="round" />
<path d="M 188.5 91.5 L 188.0 91.5 L 188.0 91.5 L 188.0 92.0 L 190.5 94.5 L 193.5 98.0 L 196.5 100.5 L 197.0 101.0 " stroke="black" fill="none" stroke-width="10.0" stroke-linecap="round" stroke-linejoin="round" />
</svg>