<svg xmlns="http://www.w3.org/2000/svg" width="300" height="300" viewBox="0 0 300 300">
<path d="M 121.5 83.5 L 121.5 84.0 L 121.5 84.5 L 121.5 85.0 L 121.5 86.5 L 118.5 92.5 L 111.0 104.5 L 101.0 117.5 L 95.5 123.0 L 94.0 124.5 L 94.5 123.5 L 95.5 121.5 " stroke="black" fill="none" stroke-width="9.0" stroke-linecap="round" stroke-linejoin="round" />
<path d="M 111.0 112.0 L 111.0 112.0 L 111.5 113.0 L 112.0 114.0 L 112.5 116.5 L 113.0 123.0 L 113.5 138.0 L 115.5 160.0 L 117.0 177.5 L 118.0 188.0 L 119.0 195.5 L 119.0 198.5 L 119.0 198.5 " stroke="black" fill="none" stroke-width="9.0" stroke-linecap="round" stroke-linejoin="round" />
<path d="M 154.0 83.5 L 154.0 83.5 L 154.0 83.0 L 154.5 82.5 L 155.0 83.0 L 156.5 86.5 L 159.0 93.0 L 161.0 99.5 L 162.5 101.5 " stroke="black" fill="none" stroke-width="9.0" stroke-linecap="round" stroke-linejoin="round" />
<path d="M 140.5 111.0 L 139.5 111.0 L 139.0 111.0 L 140.5 111.0 L 148.0 110.0 L 160.0 108.0 L 170.0 107.5 L 174.5 108.5 L 175.0 110.0 " stroke="black" fill="none" stroke-width="9.0" stroke-linecap="round" stroke-linejoin="round" />
<path d="M 144.5 129.0 L 144.0 129.0 L 143.5 129.5 L 143.5 129.5 L 145.5 129.5 L 151.5 127.5 L 160.0 124.0 L 166.5 122.0 L 169.5 122.0 L 169.5 123.0 L 169.5 123.0 L 169.0 123.0 " stroke="black" fill="none" stroke-width="9.0" stroke-linecap="round" stroke-linejoin="round" />
<path d="M 144.0 146.5 L 144.0 147.0 L 144.0 147.0 L 145.5 147.0 L 153.5 144.5 L 166.5 141.0 L 176.0 139.5 L 179.0 139.0 " stroke="black" fill="none" stroke-width="9.0" stroke-linecap="round" stroke-linejoin="round" />
<path d="M 143.5 166.5 L 143.5 166.5 L 143.5 166.5 L 143.5 166.5 L 144.0 169.5 L 144.5 176.5 L 144.5 183.0 L 144.5 184.5 " stroke="black" fill="none" stroke-width="9.0" stroke-linecap="round" stroke-linejoin="round" />
<path d="M 146.5 169.0 L 146.0 168.5 L 145.5 167.5 L 145.5 166.0 L 148.0 164.0 L 153.5 161.0 L 162.5 158.0 L 173.0 157.0 L 181.0 159.5 L 187.0 162.5 L 190.5 166.0 L 190.5 170.0 L 188.0 176.0 L 185.0 183.5 L 182.5 188.0 L 181.0 190.0 L 180.5 190.0 " stroke="black" fill="none" stroke-width="9.0" stroke-linecap="round" stroke-linejoin="round" />
<path d="M 148.0 194.5 L 148.0 194.5 L 148.5 194.0 L 151.0 193.5 L 160.5 191.0 L 172.0 190.0 L 181.0 190.0 L 187.0 190.5 L 188.0 190.5 " stroke="black" fill="none" stroke-width="9.0" stroke-linecap="round" stroke-linejoin="round" />
</svg>