<svg xmlns="http://www.w3.org/2000/svg" width="300" height="300" viewBox="0 0 300 300">
<path d="M 127.0 104.5 L 127.0 104.5 L 127.0 103.5 L 127.0 103.0 L 127.5 103.0 L 127.5 102.5 L 127.0 103.0 L 125.5 106.5 L 121.5 113.0 L 115.5 121.0 L 110.0 127.0 L 109.5 127.5 L 110.0 126.5 " stroke="black" fill="none" stroke-width="7.0" stroke-linecap="round" stroke-linejoin="round" />
<path d="M 121.0 117.0 L 121.0 116.5 L 120.5 116.0 L 120.5 115.0 L 120.5 115.0 L 120.5 115.0 L 121.0 116.5 L 121.5 121.5 L 122.0 130.0 L 122.0 144.0 L 122.0 157.0 L 122.0 165.5 L 121.5 173.0 L 120.5 180.0 L 120.0 186.5 L 120.0 189.0 L 120.0 189.0 L 120.0 188.0 L 120.5 185.0 L 120.5 184.0 " stroke="black" fill="none" stroke-width="7.0" stroke-linecap="round" stroke-linejoin="round" />
<path d="M 153.5 99.0 L 153.5 98.5 L 154.5 97.5 L 154.5 97.0 L 155.0 97.0 L 155.0 97.0 L 155.0 97.0 L 154.0 99.0 L 151.5 104.0 L 146.0 115.5 L 145.0 117.5 L 145.0 117.0 " stroke="black" fill="none" stroke-width="7.0" stroke-linecap="round" stroke-linejoin="round" />
<path d="M 154.0 106.0 L 153.5 106.0 L 153.0 107.0 L 152.5 107.0 L 152.0 107.0 L 153.0 107.0 L 155.0 106.5 L 158.5 106.0 L 163.0 105.0 L 168.5 104.5 L 172.5 105.0 L 174.0 106.5 L 174.0 108.0 L 173.5 110.5 L 171.5 114.5 L 169.5 119.5 L 166.0 126.0 L 161.5 133.5 L 156.5 139.0 L 151.0 143.5 L 146.5 146.5 L 145.5 147.5 L 146.0 146.5 L 148.5 144.0 " stroke="black" fill="none" stroke-width="7.0" stroke-linecap="round" stroke-linejoin="round" />
<path d="M 153.0 120.5 L 153.0 121.0 L 152.5 121.0 L 152.5 121.0 L 153.0 121.5 L 155.5 122.0 L 158.5 123.5 L 161.5 124.5 " stroke="black" fill="none" stroke-width="7.0" stroke-linecap="round" stroke-linejoin="round" />
<path d="M 175.5 132.5 L 176.0 133.0 L 176.5 134.0 L 176.5 134.5 L 176.0 136.0 L 174.5 138.0 L 171.5 141.5 L 167.0 146.5 L 159.0 153.5 L 151.5 159.5 L 146.0 163.5 L 144.5 165.0 L 145.5 165.0 L 147.0 164.5 " stroke="black" fill="none" stroke-width="7.0" stroke-linecap="round" stroke-linejoin="round" />
<path d="M 168.5 148.0 L 168.5 148.0 L 168.0 147.5 L 168.0 147.5 L 168.0 147.0 L 169.5 147.0 L 172.0 147.5 L 175.0 149.0 L 178.0 150.5 L 180.0 152.5 L 180.5 156.0 L 180.5 160.0 L 178.5 165.0 L 175.0 170.0 L 169.5 175.5 L 162.0 182.0 L 153.5 188.0 L 148.0 190.5 L 146.0 191.5 L 146.0 191.5 L 148.0 190.0 " stroke="black" fill="none" stroke-width="7.0" stroke-linecap="round" stroke-linejoin="round" />
<path d="M 157.5 163.5 L 157.5 163.0 L 157.5 162.5 L 158.0 162.5 L 159.5 163.5 L 162.5 166.5 L 166.0 170.0 L 168.5 172.0 " stroke="black" fill="none" stroke-width="7.0" stroke-linecap="round" stroke-linejoin="round" />
</svg>