<svg xmlns="http://www.w3.org/2000/svg" width="300" height="300" viewBox="0 0 300 300">
<path d="M 134.5 116.5 L 135.5 115.5 L 136.0 114.5 L 136.5 114.0 L 136.5 113.5 L 137.0 113.5 L 137.0 114.0 L 136.0 117.5 L 133.0 123.0 L 130.0 129.5 L 125.0 136.0 L 121.0 141.0 L 118.5 143.5 L 118.0 144.5 L 118.0 145.0 " stroke="black" fill="none" stroke-width="6.0" stroke-linecap="round" stroke-linejoin="round" />
<path d="M 129.5 129.0 L 129.5 129.5 L 129.5 130.5 L 129.5 131.5 L 130.0 135.5 L 131.0 145.0 L 131.5 160.0 L 132.0 173.5 L 132.0 179.5 L 132.5 182.0 L 133.0 182.0 " stroke="black" fill="none" stroke-width="6.0" stroke-linecap="round" stroke-linejoin="round" />
<path d="M 148.5 116.0 L 148.5 115.5 L 148.5 114.0 L 148.5 113.0 L 148.5 112.5 L 148.5 115.0 L 149.0 122.0 L 149.5 130.0 L 149.5 135.5 L 149.5 137.0 L 149.5 137.0 " stroke="black" fill="none" stroke-width="6.0" stroke-linecap="round" stroke-linejoin="round" />
<path d="M 148.5 115.5 L 147.5 115.5 L 147.5 115.5 L 147.5 115.5 L 151.0 114.5 L 156.0 112.5 L 161.0 111.5 L 165.5 111.0 L 168.5 111.0 L 170.0 112.0 L 170.5 113.0 L 171.5 115.0 L 171.5 118.0 L 171.5 122.5 L 171.0 129.0 L 170.0 133.5 L 169.5 137.0 L 169.0 138.0 L 169.0 138.0 " stroke="black" fill="none" stroke-width="6.0" stroke-linecap="round" stroke-linejoin="round" />
<path d="M 157.0 125.0 L 155.5 125.0 L 154.5 125.5 L 154.5 125.5 L 154.5 125.5 L 156.5 125.5 L 160.0 125.5 L 163.5 125.5 L 166.5 125.5 L 168.5 125.5 " stroke="black" fill="none" stroke-width="6.0" stroke-linecap="round" stroke-linejoin="round" />
<path d="M 153.5 138.5 L 153.0 139.0 L 152.0 139.0 L 152.0 139.0 L 154.0 139.0 L 158.0 139.0 L 162.5 138.5 L 167.0 138.5 L 167.5 138.5 " stroke="black" fill="none" stroke-width="6.0" stroke-linecap="round" stroke-linejoin="round" />
<path d="M 148.0 153.0 L 148.0 153.0 L 147.5 152.0 L 147.0 151.0 L 147.0 151.0 L 147.0 154.0 L 147.5 162.0 L 148.5 171.5 L 149.0 178.0 L 149.5 179.5 " stroke="black" fill="none" stroke-width="6.0" stroke-linecap="round" stroke-linejoin="round" />
<path d="M 148.5 150.0 L 148.5 149.5 L 148.5 149.0 L 149.0 148.5 L 151.0 148.0 L 154.5 148.0 L 160.0 148.0 L 166.0 148.0 L 171.5 148.0 L 174.5 148.0 L 175.0 148.0 L 175.0 148.0 L 175.0 149.0 L 175.0 150.5 L 175.0 153.5 L 175.5 158.0 L 175.5 163.5 L 175.0 169.5 L 174.5 174.5 L 174.0 177.5 L 174.0 178.0 " stroke="black" fill="none" stroke-width="6.0" stroke-linecap="round" stroke-linejoin="round" />
<path d="M 153.0 164.5 L 153.0 164.5 L 152.5 164.5 L 152.0 164.5 L 152.5 164.0 L 156.5 164.0 L 161.5 163.5 L 166.0 163.0 L 170.0 163.0 L 171.5 163.0 " stroke="black" fill="none" stroke-width="6.0" stroke-linecap="round" stroke-linejoin="round" />
<path d="M 154.0 180.5 L 154.0 180.5 L 154.0 180.5 L 154.0 180.0 L 155.0 179.5 L 158.5 179.0 L 165.0 178.5 L 171.0 178.5 L 173.5 178.5 " stroke="black" fill="none" stroke-width="6.0" stroke-linecap="round" stroke-linejoin="round" />
</svg>