<svg xmlns="http://www.w3.org/2000/svg" width="300" height="300" viewBox="0 0 300 300">
<path d="M 127.22222222222221 112.77777777777779 L 127.22222222222221 112.22222222222221 L 127.77777777777779 111.66666666666667 L 127.77777777777779 110.55555555555556 L 128.33333333333334 109.44444444444444 L 128.8888888888889 108.88888888888889 L 129.44444444444446 108.88888888888889 L 128.33333333333334 112.22222222222221 L 124.44444444444444 119.44444444444444 L 118.33333333333333 128.8888888888889 L 113.8888888888889 134.44444444444446 L 112.22222222222221 135.55555555555557 L 112.22222222222221 133.8888888888889 " stroke="black" fill="none" stroke-width="7.0" stroke-linecap="round" stroke-linejoin="round" />
<path d="M 122.77777777777779 123.8888888888889 L 122.22222222222221 123.8888888888889 L 121.66666666666667 124.44444444444444 L 121.66666666666667 125.55555555555556 L 123.33333333333333 128.33333333333334 L 125.55555555555556 136.66666666666669 L 126.66666666666667 151.11111111111111 L 126.66666666666667 170.00000000000003 L 126.66666666666667 184.44444444444446 L 126.66666666666667 188.8888888888889 L 126.66666666666667 187.7777777777778 " stroke="black" fill="none" stroke-width="7.0" stroke-linecap="round" stroke-linejoin="round" />
<path d="M 146.11111111111111 111.66666666666667 L 144.44444444444446 111.66666666666667 L 143.8888888888889 111.66666666666667 L 143.8888888888889 111.66666666666667 L 146.11111111111111 111.66666666666667 L 150.55555555555557 111.11111111111111 L 154.44444444444446 109.44444444444444 L 158.33333333333334 108.33333333333333 L 160.00000000000003 108.33333333333333 L 161.11111111111111 108.88888888888889 L 161.66666666666669 112.22222222222221 L 161.66666666666669 116.1111111111111 L 161.11111111111111 120.00000000000001 L 160.00000000000003 122.22222222222221 L 158.8888888888889 123.33333333333333 L 158.33333333333334 123.8888888888889 " stroke="black" fill="none" stroke-width="7.0" stroke-linecap="round" stroke-linejoin="round" />
<path d="M 146.11111111111111 129.44444444444446 L 143.33333333333334 130.00000000000003 L 143.33333333333334 130.55555555555557 L 143.8888888888889 130.55555555555557 L 147.22222222222223 130.00000000000003 L 151.11111111111111 129.44444444444446 L 155.00000000000003 128.33333333333334 L 157.7777777777778 127.77777777777779 L 158.33333333333334 127.77777777777779 " stroke="black" fill="none" stroke-width="7.0" stroke-linecap="round" stroke-linejoin="round" />
<path d="M 141.11111111111111 113.8888888888889 L 140.00000000000003 113.33333333333333 L 139.44444444444446 113.33333333333333 L 139.44444444444446 113.8888888888889 L 141.11111111111111 118.33333333333333 L 141.66666666666669 128.8888888888889 L 141.66666666666669 147.22222222222223 L 140.00000000000003 163.8888888888889 L 138.8888888888889 175.00000000000003 L 138.33333333333334 179.44444444444446 L 138.33333333333334 180.00000000000003 L 138.33333333333334 177.7777777777778 " stroke="black" fill="none" stroke-width="7.0" stroke-linecap="round" stroke-linejoin="round" />
<path d="M 143.8888888888889 147.22222222222223 L 141.66666666666669 147.7777777777778 L 141.11111111111111 148.33333333333334 L 142.22222222222223 148.33333333333334 L 144.44444444444446 147.7777777777778 L 147.7777777777778 147.22222222222223 L 151.66666666666669 146.66666666666669 L 154.44444444444446 146.11111111111111 L 157.22222222222223 146.11111111111111 L 157.7777777777778 146.11111111111111 " stroke="black" fill="none" stroke-width="7.0" stroke-linecap="round" stroke-linejoin="round" />
<path d="M 143.8888888888889 161.11111111111111 L 142.7777777777778 161.66666666666669 L 141.11111111111111 162.22222222222223 L 141.11111111111111 162.22222222222223 L 143.8888888888889 162.7777777777778 L 147.7777777777778 162.7777777777778 L 152.22222222222223 161.11111111111111 L 152.7777777777778 160.55555555555557 " stroke="black" fill="none" stroke-width="7.0" stroke-linecap="round" stroke-linejoin="round" />
<path d="M 175.00000000000003 111.11111111111111 L 173.8888888888889 111.11111111111111 L 172.7777777777778 111.66666666666667 L 172.7777777777778 111.66666666666667 L 174.44444444444446 111.11111111111111 L 177.7777777777778 110.55555555555556 L 182.7777777777778 110.0 L 187.7777777777778 109.44444444444444 L 191.11111111111114 109.44444444444444 L 193.33333333333334 110.55555555555556 L 193.8888888888889 113.33333333333333 L 192.7777777777778 117.22222222222221 L 191.11111111111114 121.1111111111111 L 190.55555555555557 124.44444444444444 L 190.00000000000003 126.1111111111111 L 189.44444444444446 126.66666666666667 L 189.44444444444446 126.66666666666667 " stroke="black" fill="none" stroke-width="7.0" stroke-linecap="round" stroke-linejoin="round" />
<path d="M 173.8888888888889 128.33333333333334 L 172.22222222222223 129.44444444444446 L 172.22222222222223 129.44444444444446 L 175.00000000000003 130.00000000000003 L 179.44444444444446 130.00000000000003 L 183.8888888888889 129.44444444444446 L 188.33333333333334 128.8888888888889 L 189.44444444444446 128.8888888888889 " stroke="black" fill="none" stroke-width="7.0" stroke-linecap="round" stroke-linejoin="round" />
<path d="M 172.7777777777778 146.66666666666669 L 172.7777777777778 146.66666666666669 L 171.66666666666669 146.66666666666669 L 171.11111111111114 146.66666666666669 L 171.66666666666669 146.66666666666669 L 175.00000000000003 146.11111111111111 L 180.00000000000003 145.00000000000003 L 183.8888888888889 144.44444444444446 L 186.11111111111114 145.00000000000003 L 186.66666666666669 148.33333333333334 L 185.00000000000003 154.44444444444446 L 180.55555555555557 163.33333333333334 L 175.00000000000003 172.7777777777778 L 171.11111111111114 178.33333333333334 L 169.44444444444446 180.00000000000003 L 168.33333333333334 180.55555555555557 L 168.33333333333334 180.00000000000003 " stroke="black" fill="none" stroke-width="7.0" stroke-linecap="round" stroke-linejoin="round" />
<path d="M 169.44444444444446 159.44444444444446 L 169.44444444444446 159.44444444444446 L 167.7777777777778 160.00000000000003 L 167.7777777777778 160.00000000000003 L 168.33333333333334 161.66666666666669 L 171.11111111111114 165.55555555555557 L 177.7777777777778 172.7777777777778 L 186.66666666666669 180.00000000000003 L 195.00000000000003 183.8888888888889 L 198.8888888888889 185.00000000000003 L 199.44444444444446 185.00000000000003 " stroke="black" fill="none" stroke-width="7.0" stroke-linecap="round" stroke-linejoin="round" />
</svg>