<svg xmlns="http://www.w3.org/2000/svg" width="300" height="300" viewBox="0 0 300 300">
<path d="M 112.0 78.5 L 112.0 78.5 L 112.0 78.0 L 112.5 77.5 L 112.5 77.5 L 112.5 78.0 L 111.5 81.5 L 108.5 89.0 L 101.0 103.0 L 91.5 117.0 L 82.5 126.0 L 78.0 129.5 L 77.0 129.5 L 78.0 129.5 " stroke="black" fill="none" stroke-width="10.0" stroke-linecap="round" stroke-linejoin="round" />
<path d="M 101.0 107.5 L 101.0 107.5 L 100.5 107.5 L 100.0 108.0 L 100.0 108.5 L 100.5 111.0 L 101.5 117.0 L 102.5 128.0 L 102.5 146.5 L 102.5 165.0 L 102.5 176.0 L 102.0 185.5 L 101.5 195.5 L 101.0 202.5 L 101.0 209.5 L 101.0 215.0 L 101.5 217.0 L 102.0 217.5 L 102.0 217.5 L 102.0 217.5 L 102.0 217.5 L 102.0 217.5 L 102.0 217.5 L 102.0 217.5 L 102.0 217.5 L 102.0 217.5 L 102.0 217.5 L 102.0 217.5 L 102.0 217.5 L 102.0 218.0 L 102.0 218.0 L 102.0 218.0 L 102.0 218.5 L 102.0 218.5 L 102.0 219.0 L 102.0 219.0 L 102.0 219.0 L 102.0 219.5 L 102.0 219.5 L 102.5 219.5 L 102.5 219.5 " stroke="black" fill="none" stroke-width="10.0" stroke-linecap="round" stroke-linejoin="round" />
<path d="M 136.0 74.5 L 136.0 74.0 L 136.0 73.0 L 136.5 72.5 L 136.5 72.5 L 137.0 72.5 L 137.0 73.5 L 137.0 77.0 L 134.5 85.0 L 129.5 95.5 L 125.0 104.5 L 123.5 106.5 L 123.5 106.0 L 124.0 105.5 " stroke="black" fill="none" stroke-width="10.0" stroke-linecap="round" stroke-linejoin="round" />
<path d="M 129.5 93.0 L 129.0 93.0 L 128.5 93.0 L 128.5 93.0 L 128.5 93.0 L 129.0 93.0 L 130.5 92.5 L 132.5 92.5 L 136.0 92.5 L 142.0 91.5 L 151.0 90.5 L 161.5 90.0 L 169.0 90.0 L 173.0 91.0 L 176.0 92.0 L 179.0 92.0 L 182.5 91.5 L 185.5 90.5 L 187.5 90.0 L 188.0 90.0 L 188.0 91.5 L 187.5 92.5 " stroke="black" fill="none" stroke-width="10.0" stroke-linecap="round" stroke-linejoin="round" />
<path d="M 129.0 116.0 L 129.0 115.5 L 129.0 115.0 L 129.5 114.5 L 129.5 114.0 L 130.0 115.0 L 130.5 119.0 L 130.5 127.5 L 130.5 138.0 L 130.5 144.5 L 130.5 145.5 L 131.0 143.0 " stroke="black" fill="none" stroke-width="10.0" stroke-linecap="round" stroke-linejoin="round" />
<path d="M 135.0 110.0 L 135.0 110.0 L 134.5 110.5 L 134.5 110.5 L 134.5 110.5 L 135.5 110.0 L 139.0 109.0 L 146.0 107.5 L 158.0 105.5 L 170.0 104.5 L 177.0 104.5 L 180.5 107.5 L 181.0 110.5 L 181.5 113.5 L 181.5 116.0 L 181.5 118.0 L 181.0 121.0 L 180.5 125.0 L 179.5 130.0 L 179.0 134.5 L 178.5 138.0 L 178.5 140.5 L 178.0 143.0 L 178.0 143.5 L 178.0 143.5 " stroke="black" fill="none" stroke-width="10.0" stroke-linecap="round" stroke-linejoin="round" />
<path d="M 137.5 129.0 L 137.5 129.0 L 137.5 129.0 L 137.5 128.5 L 139.5 128.0 L 145.5 127.0 L 154.5 126.5 L 165.0 126.5 L 172.0 126.5 L 175.5 127.5 L 175.5 129.0 " stroke="black" fill="none" stroke-width="10.0" stroke-linecap="round" stroke-linejoin="round" />
<path d="M 132.5 147.0 L 132.5 147.0 L 132.5 147.0 L 133.0 147.0 L 137.0 147.0 L 146.5 146.0 L 157.5 145.0 L 168.5 144.0 L 175.0 144.0 L 175.5 144.0 " stroke="black" fill="none" stroke-width="10.0" stroke-linecap="round" stroke-linejoin="round" />
<path d="M 122.0 164.5 L 121.5 164.5 L 121.0 164.5 L 121.0 164.0 L 121.0 164.0 L 122.5 163.5 L 127.5 163.0 L 137.5 162.0 L 151.5 162.0 L 166.0 162.0 L 179.0 162.0 L 190.5 161.0 L 197.5 160.0 L 201.0 160.5 L 201.0 161.0 " stroke="black" fill="none" stroke-width="10.0" stroke-linecap="round" stroke-linejoin="round" />
<path d="M 143.0 170.0 L 143.0 170.0 L 142.5 170.0 L 142.0 170.0 L 141.5 170.5 L 139.5 175.0 L 135.5 182.5 L 132.5 188.0 L 131.0 190.0 L 130.5 190.0 " stroke="black" fill="none" stroke-width="10.0" stroke-linecap="round" stroke-linejoin="round" />
<path d="M 140.5 180.5 L 140.0 180.5 L 138.5 180.5 L 138.5 180.5 L 139.0 180.5 L 141.5 180.5 L 144.5 179.5 L 149.5 179.0 L 157.5 177.5 L 167.0 176.5 L 174.5 176.5 L 179.5 176.5 L 182.5 177.0 L 183.5 177.5 L 184.0 178.5 L 184.5 179.5 L 184.5 181.5 L 185.0 183.5 L 185.0 186.0 L 185.5 189.0 L 185.5 193.5 L 184.5 199.0 L 183.5 205.5 L 182.5 211.0 L 181.5 215.0 L 180.0 217.5 L 177.0 219.5 L 174.0 221.0 L 171.5 221.0 L 169.0 221.0 L 166.5 220.0 L 164.0 219.0 " stroke="black" fill="none" stroke-width="10.0" stroke-linecap="round" stroke-linejoin="round" />
<path d="M 150.0 183.5 L 150.0 183.5 L 149.5 183.5 L 149.0 184.5 L 148.5 187.5 L 147.0 193.5 L 143.0 201.0 L 137.5 206.5 L 133.0 209.0 L 131.5 209.0 " stroke="black" fill="none" stroke-width="10.0" stroke-linecap="round" stroke-linejoin="round" />
<path d="M 167.5 183.5 L 167.5 183.5 L 167.5 183.0 L 167.5 183.0 L 167.0 182.5 L 167.0 183.0 L 166.5 184.5 L 165.0 189.0 L 162.0 196.0 L 157.0 206.0 L 150.5 214.0 L 145.0 219.0 L 141.0 221.0 L 137.5 222.5 L 136.5 222.5 " stroke="black" fill="none" stroke-width="10.0" stroke-linecap="round" stroke-linejoin="round" />
</svg>