<svg xmlns="http://www.w3.org/2000/svg" width="300" height="300" viewBox="0 0 300 300">
<path d="M 113.8888888888889 103.88888888888889 L 113.8888888888889 103.88888888888889 L 115.00000000000001 103.88888888888889 L 115.55555555555556 103.33333333333333 L 115.55555555555556 103.33333333333333 L 116.1111111111111 103.33333333333333 L 116.1111111111111 104.44444444444444 L 114.44444444444444 109.44444444444444 L 110.0 118.8888888888889 L 103.88888888888889 127.77777777777779 L 99.44444444444444 131.66666666666669 L 98.33333333333333 131.66666666666669 L 98.33333333333333 130.00000000000003 " stroke="black" fill="none" stroke-width="7.0" stroke-linecap="round" stroke-linejoin="round" />
<path d="M 110.0 120.00000000000001 L 110.0 120.00000000000001 L 110.0 120.00000000000001 L 110.55555555555556 122.22222222222221 L 112.22222222222221 128.33333333333334 L 114.44444444444444 143.33333333333334 L 115.00000000000001 162.7777777777778 L 115.00000000000001 178.8888888888889 L 114.44444444444444 187.7777777777778 L 113.8888888888889 190.55555555555557 L 113.33333333333333 189.44444444444446 L 112.22222222222221 186.66666666666669 " stroke="black" fill="none" stroke-width="7.0" stroke-linecap="round" stroke-linejoin="round" />
<path d="M 128.8888888888889 117.77777777777779 L 128.8888888888889 116.66666666666667 L 128.8888888888889 115.55555555555556 L 128.8888888888889 115.00000000000001 L 128.8888888888889 114.44444444444444 L 128.8888888888889 114.44444444444444 L 129.44444444444446 115.00000000000001 L 129.44444444444446 118.33333333333333 L 129.44444444444446 125.00000000000001 L 129.44444444444446 135.55555555555557 L 129.44444444444446 148.8888888888889 L 129.44444444444446 156.66666666666669 L 129.44444444444446 158.33333333333334 L 129.44444444444446 158.33333333333334 L 129.44444444444446 157.7777777777778 L 129.44444444444446 156.66666666666669 L 129.44444444444446 155.00000000000003 " stroke="black" fill="none" stroke-width="7.0" stroke-linecap="round" stroke-linejoin="round" />
<path d="M 132.7777777777778 136.11111111111111 L 132.7777777777778 136.66666666666669 L 132.7777777777778 137.22222222222223 L 132.7777777777778 137.22222222222223 L 132.7777777777778 137.7777777777778 L 133.33333333333334 137.22222222222223 L 135.00000000000003 136.11111111111111 L 137.7777777777778 134.44444444444446 L 140.00000000000003 132.7777777777778 L 142.22222222222223 132.22222222222223 " stroke="black" fill="none" stroke-width="7.0" stroke-linecap="round" stroke-linejoin="round" />
<path d="M 129.44444444444446 164.44444444444446 L 129.44444444444446 164.44444444444446 L 129.44444444444446 163.8888888888889 L 130.00000000000003 163.33333333333334 L 132.22222222222223 161.66666666666669 L 136.11111111111111 158.33333333333334 L 140.00000000000003 154.44444444444446 L 142.7777777777778 152.22222222222223 " stroke="black" fill="none" stroke-width="7.0" stroke-linecap="round" stroke-linejoin="round" />
<path d="M 151.11111111111111 106.66666666666667 L 151.11111111111111 106.66666666666667 L 151.11111111111111 107.22222222222223 L 151.11111111111111 107.77777777777779 L 153.8888888888889 107.77777777777779 L 158.8888888888889 107.77777777777779 L 165.55555555555557 107.22222222222223 L 170.55555555555557 106.66666666666667 L 175.00000000000003 106.11111111111111 L 177.22222222222223 105.55555555555556 " stroke="black" fill="none" stroke-width="7.0" stroke-linecap="round" stroke-linejoin="round" />
<path d="M 166.66666666666669 108.88888888888889 L 166.11111111111114 109.44444444444444 L 165.55555555555557 110.0 L 165.00000000000003 111.11111111111111 L 163.8888888888889 113.33333333333333 L 163.33333333333334 116.1111111111111 L 162.7777777777778 118.33333333333333 L 162.22222222222223 119.44444444444444 " stroke="black" fill="none" stroke-width="7.0" stroke-linecap="round" stroke-linejoin="round" />
<path d="M 154.44444444444446 123.33333333333333 L 155.00000000000003 122.77777777777779 L 155.55555555555557 122.22222222222221 L 156.11111111111111 123.33333333333333 L 156.66666666666669 127.77777777777779 L 156.66666666666669 135.55555555555557 L 156.66666666666669 146.11111111111111 L 155.55555555555557 155.55555555555557 L 155.55555555555557 157.7777777777778 L 155.55555555555557 156.11111111111111 " stroke="black" fill="none" stroke-width="7.0" stroke-linecap="round" stroke-linejoin="round" />
<path d="M 157.7777777777778 123.8888888888889 L 157.22222222222223 123.8888888888889 L 156.11111111111111 123.8888888888889 L 156.11111111111111 123.8888888888889 L 156.11111111111111 123.8888888888889 L 158.8888888888889 123.8888888888889 L 163.33333333333334 123.33333333333333 L 168.8888888888889 122.77777777777779 L 176.11111111111114 122.22222222222221 L 181.66666666666669 121.66666666666667 L 183.33333333333334 121.66666666666667 L 183.8888888888889 122.77777777777779 L 183.33333333333334 123.33333333333333 L 182.7777777777778 123.33333333333333 L 182.7777777777778 123.8888888888889 L 182.22222222222223 124.44444444444444 L 181.66666666666669 125.55555555555556 L 181.66666666666669 128.33333333333334 L 181.11111111111114 133.33333333333334 L 180.00000000000003 141.11111111111111 L 178.8888888888889 148.8888888888889 L 178.8888888888889 154.44444444444446 L 178.33333333333334 156.11111111111111 L 178.33333333333334 156.11111111111111 L 178.33333333333334 154.44444444444446 L 178.33333333333334 153.33333333333334 " stroke="black" fill="none" stroke-width="7.0" stroke-linecap="round" stroke-linejoin="round" />
<path d="M 158.8888888888889 136.66666666666669 L 158.8888888888889 136.66666666666669 L 158.8888888888889 136.66666666666669 L 159.44444444444446 136.66666666666669 L 160.55555555555557 136.66666666666669 L 163.33333333333334 136.66666666666669 L 167.22222222222223 136.11111111111111 L 171.66666666666669 136.11111111111111 L 175.55555555555557 136.11111111111111 L 176.66666666666669 136.11111111111111 " stroke="black" fill="none" stroke-width="7.0" stroke-linecap="round" stroke-linejoin="round" />
<path d="M 157.22222222222223 151.11111111111111 L 157.22222222222223 151.66666666666669 L 157.22222222222223 152.22222222222223 L 157.7777777777778 152.22222222222223 L 160.55555555555557 151.66666666666669 L 164.44444444444446 151.11111111111111 L 168.8888888888889 150.55555555555557 L 172.7777777777778 150.00000000000003 " stroke="black" fill="none" stroke-width="7.0" stroke-linecap="round" stroke-linejoin="round" />
<path d="M 153.8888888888889 168.33333333333334 L 153.8888888888889 168.33333333333334 L 153.8888888888889 168.33333333333334 L 155.00000000000003 167.7777777777778 L 157.22222222222223 167.7777777777778 L 163.33333333333334 167.7777777777778 L 170.55555555555557 167.22222222222223 L 176.11111111111114 166.66666666666669 L 178.8888888888889 166.11111111111114 " stroke="black" fill="none" stroke-width="7.0" stroke-linecap="round" stroke-linejoin="round" />
<path d="M 162.22222222222223 177.22222222222223 L 162.22222222222223 177.22222222222223 L 162.22222222222223 177.7777777777778 L 161.66666666666669 177.7777777777778 L 161.11111111111111 178.8888888888889 L 158.8888888888889 182.22222222222223 L 154.44444444444446 188.33333333333334 L 150.55555555555557 193.33333333333334 L 150.00000000000003 194.44444444444446 " stroke="black" fill="none" stroke-width="7.0" stroke-linecap="round" stroke-linejoin="round" />
<path d="M 173.8888888888889 178.8888888888889 L 172.22222222222223 178.8888888888889 L 172.22222222222223 178.8888888888889 L 172.7777777777778 178.8888888888889 L 176.11111111111114 181.11111111111114 L 181.66666666666669 185.55555555555557 L 187.7777777777778 190.00000000000003 L 192.7777777777778 192.22222222222223 L 195.00000000000003 192.7777777777778 " stroke="black" fill="none" stroke-width="7.0" stroke-linecap="round" stroke-linejoin="round" />
</svg>