<svg xmlns="http://www.w3.org/2000/svg" width="300" height="300" viewBox="0 0 300 300">
<path d="M 124.5 99.5 L 123.0 99.5 L 122.0 100.0 L 121.5 100.0 L 121.5 100.0 L 122.0 100.0 L 123.0 100.5 L 124.0 100.5 L 125.5 101.0 L 126.5 102.0 L 128.5 103.0 L 130.5 104.0 L 133.0 105.0 L 135.5 106.5 L 138.5 108.0 L 142.0 110.5 L 145.0 113.5 L 148.0 117.5 L 150.0 123.5 L 151.5 130.0 L 154.0 140.0 L 157.5 152.0 L 161.5 165.0 L 166.0 177.5 L 171.5 188.5 L 177.0 196.0 L 182.5 201.5 L 188.0 205.5 L 191.5 208.0 L 192.0 208.5 L 192.0 208.5 " stroke="black" fill="none" stroke-width="8.0" stroke-linecap="round" stroke-linejoin="round" />
<path d="M 149.0 138.0 L 149.0 138.0 L 149.5 138.0 L 150.0 138.0 L 150.0 138.0 L 150.5 138.0 L 151.0 138.0 L 151.0 140.0 L 151.0 142.0 L 150.5 145.0 L 148.5 154.0 L 143.0 167.0 L 135.0 180.0 L 126.0 190.5 L 118.5 197.5 L 111.5 201.5 L 108.0 203.0 L 108.0 202.5 " stroke="black" fill="none" stroke-width="8.0" stroke-linecap="round" stroke-linejoin="round" />
</svg>