<svg xmlns="http://www.w3.org/2000/svg" width="300" height="300" viewBox="0 0 300 300">
<path d="M 120.0 117.0 L 119.5 117.0 L 118.5 116.5 L 118.5 116.5 L 120.0 119.5 L 122.5 124.0 L 125.0 128.5 L 126.5 132.0 L 127.5 133.0 " stroke="black" fill="none" stroke-width="7.0" stroke-linecap="round" stroke-linejoin="round" />
<path d="M 114.5 184.5 L 114.5 184.5 L 114.5 183.0 L 115.5 181.0 L 118.0 178.0 L 122.0 173.5 L 125.5 170.0 L 128.5 166.5 L 131.0 163.5 " stroke="black" fill="none" stroke-width="7.0" stroke-linecap="round" stroke-linejoin="round" />
<path d="M 147.5 122.0 L 146.5 120.5 L 146.5 120.0 L 148.0 119.5 L 152.0 119.0 L 165.5 118.0 L 169.5 118.0 L 170.5 118.0 " stroke="black" fill="none" stroke-width="7.0" stroke-linecap="round" stroke-linejoin="round" />
<path d="M 156.0 108.5 L 156.0 108.0 L 156.5 108.0 L 156.5 108.5 L 157.0 112.0 L 157.0 119.5 L 156.5 126.5 L 156.5 130.0 L 156.5 130.5 " stroke="black" fill="none" stroke-width="7.0" stroke-linecap="round" stroke-linejoin="round" />
<path d="M 143.0 136.5 L 141.5 136.5 L 140.5 136.5 L 141.5 136.0 L 145.5 135.5 L 152.0 135.0 L 161.0 134.0 L 169.0 133.0 L 174.5 132.5 L 176.0 132.5 " stroke="black" fill="none" stroke-width="7.0" stroke-linecap="round" stroke-linejoin="round" />
<path d="M 153.5 141.5 L 153.5 141.5 L 154.0 140.5 L 154.5 140.0 L 154.5 140.0 L 153.5 142.0 L 150.5 146.0 L 146.5 150.0 L 143.0 153.0 L 141.5 153.5 L 142.5 153.5 " stroke="black" fill="none" stroke-width="7.0" stroke-linecap="round" stroke-linejoin="round" />
<path d="M 167.0 139.5 L 166.5 139.5 L 165.5 139.0 L 165.5 139.0 L 165.5 140.0 L 166.5 142.5 L 168.0 146.5 L 171.5 150.0 L 177.0 151.5 L 183.5 151.5 L 186.0 151.0 " stroke="black" fill="none" stroke-width="7.0" stroke-linecap="round" stroke-linejoin="round" />
<path d="M 156.0 154.0 L 156.0 154.0 L 156.0 153.0 L 156.0 152.5 L 156.0 153.5 L 154.5 157.0 L 152.0 162.0 L 150.5 166.0 L 149.5 168.0 L 149.5 168.0 " stroke="black" fill="none" stroke-width="7.0" stroke-linecap="round" stroke-linejoin="round" />
<path d="M 153.0 161.0 L 152.5 161.0 L 151.5 161.0 L 151.0 161.0 L 152.0 161.0 L 156.0 161.0 L 162.0 159.5 L 167.0 158.5 L 170.5 158.0 L 172.0 158.5 L 172.0 160.0 L 170.5 161.5 L 169.0 163.5 L 166.5 165.5 L 164.5 168.0 L 161.0 171.5 L 155.5 177.0 L 149.5 182.5 L 145.0 186.5 L 142.0 188.0 L 141.0 188.0 L 141.5 187.0 L 143.0 185.5 " stroke="black" fill="none" stroke-width="7.0" stroke-linecap="round" stroke-linejoin="round" />
<path d="M 146.0 175.0 L 145.0 174.5 L 144.5 174.0 L 146.0 174.0 L 151.0 175.0 L 159.0 178.0 L 169.5 182.5 L 180.0 185.5 L 187.0 186.0 " stroke="black" fill="none" stroke-width="7.0" stroke-linecap="round" stroke-linejoin="round" />
</svg>