<svg xmlns="http://www.w3.org/2000/svg" width="300" height="300" viewBox="0 0 300 300">
<path d="M 127.0 118.5 L 126.5 118.5 L 126.0 118.5 L 126.0 118.5 L 127.5 118.0 L 133.0 117.5 L 139.0 117.5 L 143.0 117.0 L 145.0 117.0 L 145.0 116.5 " stroke="black" fill="none" stroke-width="6.0" stroke-linecap="round" stroke-linejoin="round" />
<path d="M 137.0 108.0 L 137.0 107.5 L 137.0 107.0 L 137.0 106.5 L 137.0 106.5 L 137.0 107.5 L 137.5 111.5 L 138.0 116.5 L 138.5 121.0 L 139.0 125.0 " stroke="black" fill="none" stroke-width="6.0" stroke-linecap="round" stroke-linejoin="round" />
<path d="M 129.0 130.5 L 129.0 130.0 L 129.0 129.5 L 129.0 129.5 L 129.5 131.0 L 129.5 134.0 L 130.0 137.5 L 130.0 140.0 L 130.0 140.5 " stroke="black" fill="none" stroke-width="6.0" stroke-linecap="round" stroke-linejoin="round" />
<path d="M 130.5 131.0 L 130.5 131.0 L 130.5 130.5 L 130.5 130.5 L 131.5 130.5 L 134.5 130.0 L 138.5 129.0 L 142.5 128.0 L 145.5 127.5 L 147.5 127.0 L 148.5 126.5 L 149.0 126.5 L 149.0 127.0 L 149.0 128.0 L 149.0 129.5 L 148.5 132.0 L 148.5 134.0 L 148.0 136.0 L 147.5 138.0 L 147.5 139.0 " stroke="black" fill="none" stroke-width="6.0" stroke-linecap="round" stroke-linejoin="round" />
<path d="M 132.5 144.0 L 132.5 144.0 L 132.5 144.0 L 132.5 144.0 L 132.5 144.0 L 132.5 144.0 L 134.5 144.0 L 138.0 144.0 L 142.5 143.5 L 143.5 143.5 " stroke="black" fill="none" stroke-width="6.0" stroke-linecap="round" stroke-linejoin="round" />
<path d="M 140.0 145.5 L 140.0 145.5 L 140.0 145.0 L 140.0 144.5 L 140.0 144.5 L 140.0 144.5 L 140.5 144.5 L 140.5 144.5 L 140.5 146.5 L 141.0 150.0 L 141.0 154.5 L 141.5 159.5 L 142.0 163.5 L 142.5 166.0 L 143.0 167.5 L 143.5 168.0 L 144.0 168.5 L 144.5 168.5 L 146.0 168.5 L 148.0 168.5 L 151.5 168.0 L 156.5 167.5 L 163.0 167.0 L 169.0 166.5 L 174.5 166.5 L 178.5 166.0 L 180.5 166.0 L 182.0 165.5 L 182.0 165.5 L 182.0 165.5 L 182.0 165.5 L 182.0 165.0 L 182.0 165.0 L 182.5 164.5 L 182.5 164.0 L 183.0 163.5 L 183.0 163.0 L 183.0 161.5 L 183.0 160.0 L 182.5 158.5 L 182.0 157.0 L 181.5 156.0 L 181.0 155.0 L 180.5 155.0 " stroke="black" fill="none" stroke-width="6.0" stroke-linecap="round" stroke-linejoin="round" />
<path d="M 130.5 145.0 L 131.0 144.5 L 131.5 144.5 L 131.5 144.0 L 132.0 144.0 L 132.0 144.0 L 132.0 144.0 L 132.0 144.0 L 132.0 145.0 L 132.0 147.0 L 132.0 149.0 L 132.0 152.0 L 132.0 155.0 L 132.0 157.5 L 132.0 159.5 L 132.0 161.0 L 132.0 162.5 L 131.5 163.5 L 131.5 165.0 L 131.0 165.5 L 130.5 166.0 L 130.5 166.5 L 130.0 167.0 L 129.5 167.0 L 128.5 167.5 L 127.5 167.5 L 126.0 168.0 L 124.5 168.5 L 123.5 168.5 L 122.5 168.5 L 122.0 169.0 L 122.0 169.0 " stroke="black" fill="none" stroke-width="6.0" stroke-linecap="round" stroke-linejoin="round" />
<path d="M 154.5 118.0 L 154.5 118.0 L 154.5 118.5 L 155.0 118.5 L 157.0 118.0 L 160.5 116.5 L 164.5 115.0 L 168.0 113.5 L 170.0 112.5 L 170.5 112.5 L 171.0 112.0 " stroke="black" fill="none" stroke-width="6.0" stroke-linecap="round" stroke-linejoin="round" />
<path d="M 157.5 129.5 L 157.5 129.5 L 157.5 130.0 L 157.0 130.5 L 157.0 130.5 L 157.0 130.5 L 157.0 130.5 L 158.5 130.5 L 161.0 130.5 L 164.5 130.0 L 168.0 130.0 L 171.0 129.5 L 172.5 129.0 L 173.5 128.5 L 173.5 128.5 L 173.5 128.5 " stroke="black" fill="none" stroke-width="6.0" stroke-linecap="round" stroke-linejoin="round" />
<path d="M 165.0 118.0 L 164.0 118.0 L 163.0 118.0 L 163.0 118.0 L 163.0 118.5 L 163.0 119.0 L 163.0 122.0 L 163.0 125.5 L 163.5 130.5 L 164.0 136.0 L 164.0 140.5 L 164.0 144.5 L 164.0 147.0 L 164.0 149.0 L 164.0 150.5 L 164.5 151.5 L 164.5 152.5 L 164.5 153.5 L 164.5 154.0 L 165.0 155.0 L 165.0 155.5 L 165.0 156.0 L 165.0 156.5 L 165.0 157.5 L 165.0 158.0 L 165.0 158.0 L 165.0 158.0 L 165.0 158.0 L 165.0 158.0 L 165.5 157.0 " stroke="black" fill="none" stroke-width="6.0" stroke-linecap="round" stroke-linejoin="round" />
</svg>