<svg xmlns="http://www.w3.org/2000/svg" width="300" height="300" viewBox="0 0 300 300">
<path d="M 126.5 116.5 L 126.5 116.5 L 127.0 116.5 L 127.0 116.5 L 127.5 116.5 L 128.5 117.5 L 131.0 118.5 L 133.0 120.0 L 135.0 121.0 " stroke="black" fill="none" stroke-width="6.0" stroke-linecap="round" stroke-linejoin="round" />
<path d="M 142.0 110.5 L 142.0 110.5 L 142.0 110.5 L 142.0 110.5 L 142.0 110.5 L 142.0 111.5 L 142.0 114.5 L 142.5 120.0 L 143.0 124.5 L 143.0 128.0 L 143.0 128.0 " stroke="black" fill="none" stroke-width="6.0" stroke-linecap="round" stroke-linejoin="round" />
<path d="M 124.0 134.5 L 124.0 135.0 L 123.5 135.5 L 123.5 135.5 L 124.5 135.5 L 127.0 134.5 L 131.5 133.0 L 137.5 131.5 L 142.0 130.0 L 143.5 129.5 " stroke="black" fill="none" stroke-width="6.0" stroke-linecap="round" stroke-linejoin="round" />
<path d="M 166.0 113.0 L 166.5 112.5 L 167.0 112.5 L 167.5 112.0 L 167.5 112.0 L 167.5 112.0 L 167.0 112.5 L 165.0 115.0 L 162.5 118.0 L 160.5 120.5 L 160.5 121.0 " stroke="black" fill="none" stroke-width="6.0" stroke-linecap="round" stroke-linejoin="round" />
<path d="M 152.5 107.0 L 152.5 107.0 L 153.0 107.5 L 153.0 108.0 L 153.0 108.0 L 153.0 108.5 L 153.5 109.5 L 153.5 111.5 L 153.5 115.0 L 153.5 121.0 L 154.5 126.5 L 156.0 130.0 L 157.5 131.0 L 163.5 129.0 L 166.5 127.5 L 168.5 127.0 L 170.0 126.5 L 170.5 126.5 " stroke="black" fill="none" stroke-width="6.0" stroke-linecap="round" stroke-linejoin="round" />
<path d="M 132.5 141.5 L 133.0 140.5 L 133.0 139.5 L 133.5 139.0 L 133.5 138.5 L 134.0 140.0 L 134.5 145.0 L 135.0 151.0 L 135.5 155.0 L 135.5 157.5 L 135.5 157.5 " stroke="black" fill="none" stroke-width="6.0" stroke-linecap="round" stroke-linejoin="round" />
<path d="M 134.5 139.0 L 134.5 139.0 L 134.0 139.5 L 133.5 139.5 L 133.5 139.5 L 135.5 139.5 L 139.0 139.5 L 144.0 139.5 L 150.0 138.5 L 157.0 137.5 L 162.5 137.0 L 165.5 137.0 L 166.0 137.0 L 165.5 137.5 L 165.0 137.5 L 165.0 138.0 L 165.0 138.5 L 165.0 139.5 L 165.5 140.5 L 165.5 143.5 L 165.0 147.5 L 164.0 152.5 L 163.0 156.5 L 162.5 158.0 L 162.5 158.5 L 162.5 158.0 " stroke="black" fill="none" stroke-width="6.0" stroke-linecap="round" stroke-linejoin="round" />
<path d="M 140.0 151.5 L 139.5 151.5 L 139.0 151.5 L 138.5 151.5 L 140.0 151.0 L 143.5 150.5 L 148.0 149.5 L 152.0 148.5 L 155.0 148.0 L 155.5 148.0 " stroke="black" fill="none" stroke-width="6.0" stroke-linecap="round" stroke-linejoin="round" />
<path d="M 149.0 141.0 L 149.0 140.5 L 149.5 139.5 L 149.5 139.0 L 149.5 139.0 L 149.5 139.0 L 149.5 140.5 L 149.5 144.0 L 149.5 148.5 L 149.0 153.0 L 149.0 156.5 L 148.5 157.5 " stroke="black" fill="none" stroke-width="6.0" stroke-linecap="round" stroke-linejoin="round" />
<path d="M 138.0 161.0 L 138.0 160.5 L 137.5 160.5 L 137.0 160.0 L 137.5 159.5 L 140.5 159.5 L 144.5 159.0 L 149.0 159.0 L 154.0 159.0 L 158.0 159.5 L 159.5 159.5 " stroke="black" fill="none" stroke-width="6.0" stroke-linecap="round" stroke-linejoin="round" />
<path d="M 135.0 172.5 L 134.5 173.0 L 134.0 173.0 L 134.0 173.0 L 134.0 173.0 L 136.5 173.0 L 141.5 172.5 L 148.0 171.5 L 157.0 171.0 L 165.0 170.5 L 168.0 170.5 L 168.0 171.0 L 167.5 171.0 L 166.0 170.5 L 165.0 170.0 " stroke="black" fill="none" stroke-width="6.0" stroke-linecap="round" stroke-linejoin="round" />
<path d="M 144.0 166.0 L 144.0 165.5 L 144.0 165.5 L 144.0 165.0 L 144.0 165.0 L 144.5 165.5 L 144.5 169.0 L 144.5 174.0 L 144.5 178.0 L 145.0 179.5 " stroke="black" fill="none" stroke-width="6.0" stroke-linecap="round" stroke-linejoin="round" />
<path d="M 155.5 166.5 L 155.5 166.5 L 156.0 166.5 L 156.0 166.5 L 156.0 166.5 L 156.5 166.5 L 156.5 167.0 L 156.5 168.5 L 156.5 172.0 L 156.0 177.0 L 156.0 180.5 L 156.0 181.0 " stroke="black" fill="none" stroke-width="6.0" stroke-linecap="round" stroke-linejoin="round" />
<path d="M 125.0 185.5 L 126.0 185.0 L 127.0 184.5 L 128.0 184.0 L 131.5 183.5 L 138.0 183.0 L 147.5 183.0 L 157.5 183.0 L 166.0 183.0 L 171.0 183.0 L 173.5 182.5 L 174.0 182.5 " stroke="black" fill="none" stroke-width="6.0" stroke-linecap="round" stroke-linejoin="round" />
<path d="M 143.0 192.0 L 143.0 192.0 L 143.5 192.0 L 144.0 192.0 L 144.0 192.0 L 143.0 193.5 L 140.5 196.5 L 137.5 200.0 L 135.5 203.0 L 134.5 204.0 L 135.5 204.0 " stroke="black" fill="none" stroke-width="6.0" stroke-linecap="round" stroke-linejoin="round" />
<path d="M 162.5 194.0 L 162.5 194.0 L 162.5 194.5 L 162.5 194.5 L 165.0 195.0 L 168.5 197.0 L 173.5 199.5 L 178.0 202.5 L 180.0 203.5 " stroke="black" fill="none" stroke-width="6.0" stroke-linecap="round" stroke-linejoin="round" />
</svg>