<svg xmlns="http://www.w3.org/2000/svg" width="300" height="300" viewBox="0 0 300 300">
<path d="M 131.0 119.0 L 131.0 118.5 L 131.5 118.0 L 131.5 118.0 L 132.0 118.5 L 133.0 123.0 L 133.5 135.0 L 134.0 156.0 L 134.0 172.5 L 134.0 179.5 L 134.5 181.0 L 135.0 179.5 L 135.0 175.0 " stroke="black" fill="none" stroke-width="6.0" stroke-linecap="round" stroke-linejoin="round" />
<path d="M 133.0 116.5 L 133.0 117.5 L 132.0 117.5 L 132.0 117.5 L 131.5 117.5 L 133.0 117.5 L 136.5 117.0 L 142.5 116.0 L 150.0 115.0 L 159.0 115.0 L 167.0 115.0 L 170.5 115.0 L 171.0 115.5 L 170.5 116.0 L 170.5 116.0 L 171.5 116.0 L 173.0 116.0 L 173.5 116.0 L 174.0 116.0 L 174.0 116.0 L 174.0 116.0 L 174.0 116.0 L 174.0 116.0 L 174.0 116.0 L 174.0 116.0 L 174.0 116.0 L 174.0 116.0 L 174.0 116.0 L 173.5 116.0 L 173.5 117.0 L 173.5 119.5 L 173.0 124.5 L 173.0 134.0 L 173.0 147.5 L 173.5 159.5 L 174.5 167.0 L 174.5 173.0 L 174.5 178.0 L 174.5 180.5 L 173.5 182.5 L 173.0 183.0 L 172.5 183.5 L 171.5 183.5 L 170.5 184.0 L 169.0 184.0 L 167.5 183.0 " stroke="black" fill="none" stroke-width="6.0" stroke-linecap="round" stroke-linejoin="round" />
<path d="M 125.0 145.5 L 124.0 145.5 L 123.0 145.5 L 122.5 145.5 L 122.5 145.5 L 125.0 145.5 L 131.0 145.0 L 142.0 144.5 L 156.5 144.0 L 170.5 143.0 L 179.5 142.0 L 185.0 141.0 L 187.0 141.0 L 187.0 141.0 L 186.5 141.0 L 185.5 141.0 L 184.0 141.0 L 182.5 141.5 " stroke="black" fill="none" stroke-width="6.0" stroke-linecap="round" stroke-linejoin="round" />
<path d="M 148.5 119.5 L 148.5 119.5 L 148.5 119.0 L 148.0 119.0 L 148.0 121.0 L 148.5 126.0 L 148.5 136.0 L 148.5 150.0 L 148.5 164.0 L 149.0 171.5 L 149.5 173.0 L 150.0 173.0 L 150.0 171.0 " stroke="black" fill="none" stroke-width="6.0" stroke-linecap="round" stroke-linejoin="round" />
<path d="M 160.5 120.0 L 160.5 120.0 L 160.5 119.5 L 160.5 119.0 L 160.5 118.5 L 160.5 118.5 L 160.5 119.5 L 160.5 122.5 L 160.5 129.0 L 160.5 140.0 L 160.5 153.0 L 160.5 162.5 L 161.0 167.0 L 161.0 168.5 L 161.0 168.5 L 161.0 167.5 L 161.0 166.5 " stroke="black" fill="none" stroke-width="6.0" stroke-linecap="round" stroke-linejoin="round" />
</svg>