<svg xmlns="http://www.w3.org/2000/svg" width="300" height="300" viewBox="0 0 300 300">
<path d="M 149.0 105.0 L 149.0 105.0 L 148.5 105.0 L 148.5 105.0 L 148.5 105.5 L 148.5 106.0 L 147.5 108.5 L 143.5 115.5 L 135.5 126.5 L 128.0 135.0 L 124.0 140.0 L 123.0 141.0 L 122.5 141.0 L 125.0 139.5 " stroke="black" fill="none" stroke-width="7.0" stroke-linecap="round" stroke-linejoin="round" />
<path d="M 150.0 110.5 L 149.0 110.5 L 148.5 110.5 L 148.0 110.5 L 148.0 110.5 L 150.5 112.5 L 155.0 116.0 L 162.5 121.5 L 171.0 127.0 L 178.5 130.0 L 184.0 132.0 L 186.0 133.0 L 186.0 133.5 L 185.0 133.5 L 183.0 133.5 " stroke="black" fill="none" stroke-width="7.0" stroke-linecap="round" stroke-linejoin="round" />
<path d="M 139.5 143.0 L 138.0 143.0 L 137.5 143.0 L 137.5 142.5 L 141.0 142.0 L 147.0 141.5 L 154.0 140.0 L 161.0 139.0 L 166.0 138.0 L 167.5 138.0 L 167.5 138.5 L 166.5 139.0 " stroke="black" fill="none" stroke-width="7.0" stroke-linecap="round" stroke-linejoin="round" />
<path d="M 145.5 155.0 L 144.0 155.5 L 143.0 155.5 L 142.5 155.5 L 145.0 155.5 L 150.0 155.0 L 155.0 154.5 L 160.0 154.0 L 165.0 153.5 L 166.0 153.5 " stroke="black" fill="none" stroke-width="7.0" stroke-linecap="round" stroke-linejoin="round" />
<path d="M 158.0 143.0 L 158.0 143.0 L 158.0 143.0 L 158.0 143.0 L 158.0 142.5 L 158.0 144.0 L 157.5 150.5 L 156.5 162.5 L 156.0 171.5 L 156.0 176.0 L 156.0 176.5 " stroke="black" fill="none" stroke-width="7.0" stroke-linecap="round" stroke-linejoin="round" />
<path d="M 133.5 182.5 L 133.5 182.5 L 133.0 182.5 L 132.0 182.0 L 132.0 182.0 L 134.0 182.0 L 140.0 181.5 L 149.0 181.5 L 160.0 182.0 L 171.0 182.5 L 178.5 182.5 L 182.0 182.5 L 183.0 183.5 " stroke="black" fill="none" stroke-width="7.0" stroke-linecap="round" stroke-linejoin="round" />
</svg>