<svg xmlns="http://www.w3.org/2000/svg" width="300" height="300" viewBox="0 0 300 300">
<path d="M 116.5 89.0 L 116.5 89.0 L 116.5 89.0 L 116.5 89.0 L 116.5 89.0 L 116.5 92.0 L 113.0 100.5 L 103.5 115.0 L 95.0 125.5 L 90.5 128.0 L 90.0 128.0 L 90.0 126.5 " stroke="black" fill="none" stroke-width="8.0" stroke-linecap="round" stroke-linejoin="round" />
<path d="M 107.5 114.0 L 107.5 114.0 L 107.5 114.5 L 108.0 117.0 L 110.5 125.0 L 114.0 143.5 L 117.0 166.0 L 118.5 182.5 L 120.0 196.0 L 120.5 206.0 L 121.0 211.5 L 121.5 213.0 " stroke="black" fill="none" stroke-width="8.0" stroke-linecap="round" stroke-linejoin="round" />
<path d="M 149.5 85.5 L 149.0 85.5 L 148.5 85.5 L 148.5 85.5 L 149.5 87.0 L 152.0 90.0 L 155.0 93.5 L 158.0 96.0 " stroke="black" fill="none" stroke-width="8.0" stroke-linecap="round" stroke-linejoin="round" />
<path d="M 181.5 83.5 L 181.5 83.5 L 181.5 83.5 L 181.0 83.5 L 180.5 85.0 L 179.0 89.0 L 176.5 93.5 L 175.5 95.5 " stroke="black" fill="none" stroke-width="8.0" stroke-linecap="round" stroke-linejoin="round" />
<path d="M 135.5 108.0 L 136.0 108.0 L 137.5 107.5 L 142.5 106.5 L 153.0 104.5 L 168.0 102.0 L 181.5 100.0 L 196.5 98.0 L 196.5 98.5 " stroke="black" fill="none" stroke-width="8.0" stroke-linecap="round" stroke-linejoin="round" />
<path d="M 147.5 123.0 L 147.0 123.0 L 147.0 122.5 L 147.5 122.0 L 153.0 121.0 L 164.0 118.5 L 174.0 116.0 L 181.5 113.5 L 182.5 113.0 " stroke="black" fill="none" stroke-width="8.0" stroke-linecap="round" stroke-linejoin="round" />
<path d="M 165.5 108.0 L 165.0 108.0 L 164.5 108.0 L 164.5 108.5 L 164.5 110.0 L 165.5 114.0 L 165.5 121.0 L 164.5 127.5 L 163.5 131.0 L 163.0 131.5 " stroke="black" fill="none" stroke-width="8.0" stroke-linecap="round" stroke-linejoin="round" />
<path d="M 130.5 141.5 L 130.5 141.0 L 131.5 140.0 L 139.0 137.5 L 154.5 134.5 L 173.0 131.5 L 189.5 129.0 L 201.5 126.0 L 210.0 125.0 " stroke="black" fill="none" stroke-width="8.0" stroke-linecap="round" stroke-linejoin="round" />
<path d="M 160.0 145.0 L 161.0 144.0 L 161.0 143.0 L 161.0 143.0 L 161.0 144.0 L 159.5 147.5 L 156.5 153.5 L 150.5 161.0 L 145.5 167.0 L 145.0 167.5 " stroke="black" fill="none" stroke-width="8.0" stroke-linecap="round" stroke-linejoin="round" />
<path d="M 138.0 178.5 L 138.0 178.5 L 138.5 179.0 L 142.5 178.5 L 154.5 175.5 L 172.0 171.0 L 188.5 166.5 L 201.0 162.5 L 208.5 160.0 L 209.0 159.5 " stroke="black" fill="none" stroke-width="8.0" stroke-linecap="round" stroke-linejoin="round" />
<path d="M 153.0 160.0 L 154.5 158.0 L 155.5 157.0 L 156.0 157.0 L 157.5 159.0 L 158.5 164.5 L 160.5 172.0 L 162.5 184.0 L 164.5 196.5 L 165.0 206.0 L 165.0 211.0 L 163.0 213.5 L 159.0 213.5 L 154.0 212.0 L 150.0 209.0 L 148.5 206.5 L 148.5 204.5 L 148.5 204.5 " stroke="black" fill="none" stroke-width="8.0" stroke-linecap="round" stroke-linejoin="round" />
<path d="M 148.0 201.5 L 148.0 201.5 L 147.5 201.5 L 150.5 199.0 L 158.0 195.0 L 169.0 189.0 L 175.5 185.0 " stroke="black" fill="none" stroke-width="8.0" stroke-linecap="round" stroke-linejoin="round" />
<path d="M 179.5 150.5 L 180.0 149.5 L 180.5 148.5 L 180.5 148.5 L 181.5 151.5 L 183.5 160.0 L 188.0 176.5 L 194.0 194.0 L 201.0 204.5 L 208.0 210.0 L 213.0 211.0 L 216.0 209.0 L 218.5 203.5 L 219.0 197.5 L 217.5 194.0 " stroke="black" fill="none" stroke-width="8.0" stroke-linecap="round" stroke-linejoin="round" />
<path d="M 202.5 185.0 L 202.5 185.0 L 203.0 185.0 L 202.0 186.0 L 199.5 190.0 L 194.5 196.5 L 189.5 200.5 L 186.0 201.5 L 185.0 200.0 " stroke="black" fill="none" stroke-width="8.0" stroke-linecap="round" stroke-linejoin="round" />
<path d="M 200.5 141.5 L 201.5 141.0 L 201.5 141.5 L 201.0 144.5 L 201.5 149.0 L 203.5 150.5 " stroke="black" fill="none" stroke-width="8.0" stroke-linecap="round" stroke-linejoin="round" />
</svg>