<svg xmlns="http://www.w3.org/2000/svg" width="300" height="300" viewBox="0 0 300 300">
<path d="M 110.0 98.5 L 110.0 97.5 L 110.0 96.0 L 110.5 95.5 L 110.5 96.5 L 110.5 100.0 L 109.0 106.0 L 106.5 113.5 L 104.5 120.5 L 104.0 123.5 L 104.0 123.5 " stroke="black" fill="none" stroke-width="8.0" stroke-linecap="round" stroke-linejoin="round" />
<path d="M 112.0 94.5 L 112.0 95.0 L 112.5 95.5 L 113.0 95.5 L 114.5 95.5 L 117.0 95.5 L 121.5 96.0 L 126.5 96.0 L 131.5 96.5 L 136.5 97.0 L 141.5 97.0 L 146.5 97.0 L 151.5 96.5 L 155.0 96.5 L 158.5 96.0 L 162.5 96.0 L 167.0 95.5 L 172.0 94.5 L 176.0 94.0 L 179.5 94.0 L 182.0 94.0 L 185.0 94.5 L 187.5 94.5 L 190.0 94.5 L 192.0 94.0 L 193.5 94.0 L 194.5 94.0 L 195.5 94.0 L 196.5 94.5 L 197.5 94.5 L 198.5 94.5 L 198.5 94.5 L 199.0 94.5 L 199.0 94.5 L 199.0 94.5 L 199.0 94.5 L 199.0 94.5 L 199.0 94.5 L 199.0 94.5 L 199.0 94.5 L 199.0 94.5 L 199.0 94.5 L 199.0 94.5 L 199.5 94.5 L 199.5 94.5 L 199.5 94.5 L 199.5 94.5 L 200.0 94.5 L 200.0 94.5 L 200.0 95.0 L 200.0 95.5 L 200.0 96.0 L 200.0 97.5 L 200.0 100.0 L 200.0 104.0 L 199.5 109.0 L 198.5 114.5 L 198.0 119.0 L 197.0 122.0 L 196.5 122.5 L 196.5 122.5 L 196.0 122.5 " stroke="black" fill="none" stroke-width="8.0" stroke-linecap="round" stroke-linejoin="round" />
<path d="M 116.5 119.0 L 116.0 118.5 L 115.5 118.0 L 115.5 118.0 L 115.5 118.0 L 118.5 118.0 L 123.0 117.5 L 128.5 117.5 L 133.0 117.5 L 136.0 117.5 L 137.5 118.0 L 137.5 118.0 " stroke="black" fill="none" stroke-width="8.0" stroke-linecap="round" stroke-linejoin="round" />
<path d="M 109.5 136.0 L 109.0 137.0 L 109.0 137.5 L 110.0 137.5 L 114.0 137.5 L 120.5 137.5 L 127.0 137.0 L 133.5 137.0 L 139.0 135.5 L 141.0 134.5 " stroke="black" fill="none" stroke-width="8.0" stroke-linecap="round" stroke-linejoin="round" />
<path d="M 115.0 141.5 L 116.5 141.0 L 117.0 140.5 L 117.5 140.5 L 117.5 143.0 L 116.0 148.0 L 113.5 157.0 L 108.5 169.0 L 104.5 178.0 L 103.0 179.5 L 103.0 178.0 L 103.0 177.0 " stroke="black" fill="none" stroke-width="8.0" stroke-linecap="round" stroke-linejoin="round" />
<path d="M 128.5 143.5 L 128.5 143.5 L 128.5 143.5 L 128.5 143.5 L 128.5 146.0 L 128.0 151.5 L 126.5 159.5 L 125.0 167.5 L 125.0 173.0 L 125.0 176.5 L 126.5 178.5 L 129.0 180.5 L 132.5 182.5 L 137.5 183.5 L 143.5 183.5 L 151.0 184.0 L 158.5 184.0 L 165.5 183.5 L 172.0 183.0 L 179.0 181.5 L 185.0 180.0 L 190.5 178.5 L 194.5 177.5 L 197.5 177.0 L 200.0 177.0 L 201.0 176.0 L 201.0 175.5 L 200.5 174.0 L 199.0 172.5 L 198.0 171.0 L 197.0 169.5 L 197.0 168.5 L 197.0 167.0 L 197.0 166.5 " stroke="black" fill="none" stroke-width="8.0" stroke-linecap="round" stroke-linejoin="round" />
<path d="M 158.0 122.5 L 158.0 122.5 L 158.0 122.5 L 158.0 122.5 L 159.0 122.5 L 162.5 122.5 L 168.5 123.0 L 174.0 123.0 L 178.0 122.0 L 180.0 121.0 L 180.5 120.5 " stroke="black" fill="none" stroke-width="8.0" stroke-linecap="round" stroke-linejoin="round" />
<path d="M 175.0 111.5 L 175.0 111.5 L 175.0 112.0 L 175.0 112.5 L 175.0 113.0 L 175.0 115.0 L 175.5 119.5 L 176.0 127.5 L 176.0 137.0 L 176.0 146.5 L 176.0 154.0 L 176.0 159.0 L 175.5 162.5 L 175.0 164.0 L 174.5 164.0 L 173.5 164.0 L 172.0 163.5 L 169.5 163.0 L 166.5 163.5 L 165.0 163.5 L 165.0 163.0 " stroke="black" fill="none" stroke-width="8.0" stroke-linecap="round" stroke-linejoin="round" />
<path d="M 153.0 144.0 L 153.0 144.0 L 153.0 143.5 L 152.5 143.5 L 152.5 143.5 L 154.5 145.0 L 157.5 147.5 L 160.0 150.0 L 161.5 151.0 " stroke="black" fill="none" stroke-width="8.0" stroke-linecap="round" stroke-linejoin="round" />
</svg>