<svg xmlns="http://www.w3.org/2000/svg" width="300" height="300" viewBox="0 0 300 300">
<path d="M 118.5 109.0 L 118.5 108.5 L 118.0 108.5 L 118.0 108.0 L 118.5 110.0 L 120.0 119.0 L 121.5 138.5 L 121.0 163.5 L 120.0 181.5 L 119.5 189.0 L 119.5 187.5 " stroke="black" fill="none" stroke-width="8.0" stroke-linecap="round" stroke-linejoin="round" />
<path d="M 124.5 107.5 L 124.5 107.5 L 123.5 106.5 L 123.5 106.0 L 123.5 105.5 L 125.5 105.5 L 129.5 105.5 L 136.0 105.5 L 145.5 105.5 L 157.0 105.0 L 167.5 103.5 L 176.0 102.5 L 184.5 101.0 L 189.5 100.5 L 192.0 100.5 L 192.0 101.0 L 192.0 101.5 L 192.0 102.0 L 192.0 102.0 L 192.0 102.0 L 192.0 102.0 L 192.0 102.5 L 191.5 103.0 L 191.5 103.5 L 191.5 104.5 L 191.5 106.0 L 191.5 107.5 L 191.0 109.5 L 191.0 112.5 L 191.0 117.0 L 191.0 124.5 L 191.0 133.5 L 191.0 142.5 L 191.0 153.0 L 190.5 164.5 L 190.0 174.5 L 189.0 182.5 L 187.0 190.0 L 185.0 196.0 L 181.5 199.5 L 178.0 200.5 L 174.5 198.5 L 172.5 195.0 " stroke="black" fill="none" stroke-width="8.0" stroke-linecap="round" stroke-linejoin="round" />
<path d="M 154.0 89.0 L 154.0 89.0 L 154.0 88.0 L 154.0 87.5 L 154.0 88.5 L 154.5 94.0 L 154.5 105.5 L 153.0 123.0 L 150.0 140.0 L 146.5 154.5 L 142.0 165.5 L 138.5 169.0 L 136.5 169.0 L 136.5 167.5 " stroke="black" fill="none" stroke-width="8.0" stroke-linecap="round" stroke-linejoin="round" />
<path d="M 151.5 144.0 L 151.5 142.0 L 151.5 141.0 L 152.5 141.0 L 156.0 143.0 L 162.0 149.0 L 169.0 156.0 L 175.0 162.5 L 179.5 165.0 " stroke="black" fill="none" stroke-width="8.0" stroke-linecap="round" stroke-linejoin="round" />
</svg>