<svg xmlns="http://www.w3.org/2000/svg" width="300" height="300" viewBox="0 0 300 300">
<path d="M 113.8888888888889 92.77777777777777 L 113.8888888888889 92.22222222222223 L 113.8888888888889 91.66666666666667 L 113.8888888888889 91.11111111111111 L 113.8888888888889 91.11111111111111 L 113.8888888888889 91.11111111111111 L 113.8888888888889 95.0 L 113.8888888888889 102.77777777777777 L 114.44444444444444 109.44444444444444 L 115.00000000000001 112.22222222222221 L 115.00000000000001 111.66666666666667 " stroke="black" fill="none" stroke-width="7.0" stroke-linecap="round" stroke-linejoin="round" />
<path d="M 102.22222222222223 106.11111111111111 L 102.22222222222223 106.11111111111111 L 102.22222222222223 106.11111111111111 L 103.33333333333333 106.11111111111111 L 106.66666666666667 106.11111111111111 L 111.11111111111111 105.55555555555556 L 113.8888888888889 105.0 " stroke="black" fill="none" stroke-width="7.0" stroke-linecap="round" stroke-linejoin="round" />
<path d="M 128.8888888888889 93.88888888888889 L 128.8888888888889 93.88888888888889 L 128.8888888888889 93.33333333333333 L 128.8888888888889 92.77777777777777 L 128.8888888888889 94.44444444444444 L 128.8888888888889 98.88888888888889 L 128.33333333333334 105.55555555555556 L 128.33333333333334 110.0 L 128.33333333333334 111.11111111111111 " stroke="black" fill="none" stroke-width="7.0" stroke-linecap="round" stroke-linejoin="round" />
<path d="M 129.44444444444446 102.77777777777777 L 130.00000000000003 102.77777777777777 L 130.00000000000003 103.33333333333333 L 131.11111111111111 103.33333333333333 L 133.33333333333334 103.33333333333333 L 137.7777777777778 102.77777777777777 L 141.66666666666669 101.66666666666667 L 144.44444444444446 101.11111111111111 L 145.55555555555557 101.11111111111111 " stroke="black" fill="none" stroke-width="7.0" stroke-linecap="round" stroke-linejoin="round" />
<path d="M 108.88888888888889 122.22222222222221 L 108.88888888888889 122.22222222222221 L 109.44444444444444 121.66666666666667 L 109.44444444444444 121.66666666666667 L 109.44444444444444 123.8888888888889 L 110.0 127.22222222222221 L 110.0 131.11111111111111 L 110.0 132.22222222222223 " stroke="black" fill="none" stroke-width="7.0" stroke-linecap="round" stroke-linejoin="round" />
<path d="M 109.44444444444444 123.8888888888889 L 109.44444444444444 123.8888888888889 L 108.88888888888889 123.8888888888889 L 108.88888888888889 124.44444444444444 L 108.88888888888889 124.44444444444444 L 110.55555555555556 123.8888888888889 L 113.33333333333333 122.22222222222221 L 116.1111111111111 121.1111111111111 L 118.8888888888889 120.55555555555556 L 120.00000000000001 121.1111111111111 L 120.55555555555556 123.33333333333333 L 120.55555555555556 126.66666666666667 L 119.44444444444444 128.8888888888889 L 118.8888888888889 130.55555555555557 L 118.8888888888889 131.11111111111111 " stroke="black" fill="none" stroke-width="7.0" stroke-linecap="round" stroke-linejoin="round" />
<path d="M 112.22222222222221 134.44444444444446 L 112.22222222222221 134.44444444444446 L 111.66666666666667 135.00000000000003 L 111.66666666666667 135.55555555555557 L 112.77777777777779 135.55555555555557 L 115.00000000000001 135.00000000000003 L 117.77777777777779 133.8888888888889 " stroke="black" fill="none" stroke-width="7.0" stroke-linecap="round" stroke-linejoin="round" />
<path d="M 130.55555555555557 121.66666666666667 L 131.11111111111111 121.1111111111111 L 131.11111111111111 120.55555555555556 L 131.11111111111111 120.55555555555556 L 131.11111111111111 122.22222222222221 L 131.66666666666669 126.1111111111111 L 131.66666666666669 130.00000000000003 L 131.66666666666669 131.66666666666669 " stroke="black" fill="none" stroke-width="7.0" stroke-linecap="round" stroke-linejoin="round" />
<path d="M 130.55555555555557 122.22222222222221 L 130.55555555555557 122.22222222222221 L 131.11111111111111 122.22222222222221 L 131.66666666666669 121.66666666666667 L 132.22222222222223 121.1111111111111 L 134.44444444444446 121.1111111111111 L 136.66666666666669 120.55555555555556 L 139.44444444444446 120.00000000000001 L 141.66666666666669 120.00000000000001 L 142.7777777777778 120.55555555555556 L 142.7777777777778 122.22222222222221 L 142.7777777777778 125.00000000000001 L 142.7777777777778 127.77777777777779 L 142.22222222222223 130.55555555555557 L 141.66666666666669 131.66666666666669 L 141.66666666666669 132.22222222222223 " stroke="black" fill="none" stroke-width="7.0" stroke-linecap="round" stroke-linejoin="round" />
<path d="M 133.8888888888889 133.33333333333334 L 133.33333333333334 134.44444444444446 L 132.7777777777778 135.55555555555557 L 132.7777777777778 135.55555555555557 L 133.8888888888889 135.55555555555557 L 136.66666666666669 135.55555555555557 L 139.44444444444446 135.00000000000003 L 141.66666666666669 134.44444444444446 L 141.66666666666669 133.8888888888889 " stroke="black" fill="none" stroke-width="7.0" stroke-linecap="round" stroke-linejoin="round" />
<path d="M 121.1111111111111 145.00000000000003 L 121.1111111111111 145.00000000000003 L 121.1111111111111 145.00000000000003 L 120.55555555555556 145.00000000000003 L 120.55555555555556 145.00000000000003 L 120.00000000000001 145.00000000000003 L 118.8888888888889 146.11111111111111 L 116.66666666666667 149.44444444444446 L 113.33333333333333 153.8888888888889 L 110.55555555555556 157.22222222222223 L 108.88888888888889 158.33333333333334 L 108.88888888888889 157.7777777777778 L 108.88888888888889 156.66666666666669 " stroke="black" fill="none" stroke-width="7.0" stroke-linecap="round" stroke-linejoin="round" />
<path d="M 115.00000000000001 152.7777777777778 L 115.00000000000001 153.33333333333334 L 114.44444444444444 153.33333333333334 L 114.44444444444444 153.8888888888889 L 115.00000000000001 155.00000000000003 L 116.1111111111111 158.33333333333334 L 117.77777777777779 165.00000000000003 L 118.8888888888889 173.8888888888889 L 119.44444444444444 182.7777777777778 L 119.44444444444444 187.22222222222223 L 119.44444444444444 187.7777777777778 L 119.44444444444444 185.00000000000003 " stroke="black" fill="none" stroke-width="7.0" stroke-linecap="round" stroke-linejoin="round" />
<path d="M 131.66666666666669 146.11111111111111 L 131.66666666666669 146.11111111111111 L 131.66666666666669 145.55555555555557 L 131.66666666666669 145.55555555555557 L 132.22222222222223 145.55555555555557 L 132.7777777777778 146.11111111111111 L 132.7777777777778 147.7777777777778 L 133.33333333333334 150.00000000000003 L 133.8888888888889 151.11111111111111 L 133.8888888888889 151.66666666666669 " stroke="black" fill="none" stroke-width="7.0" stroke-linecap="round" stroke-linejoin="round" />
<path d="M 125.00000000000001 159.44444444444446 L 124.44444444444444 159.44444444444446 L 123.33333333333333 159.44444444444446 L 123.33333333333333 159.44444444444446 L 123.8888888888889 158.8888888888889 L 126.66666666666667 157.7777777777778 L 130.55555555555557 157.22222222222223 L 134.44444444444446 156.11111111111111 L 137.7777777777778 154.44444444444446 L 138.33333333333334 154.44444444444446 " stroke="black" fill="none" stroke-width="7.0" stroke-linecap="round" stroke-linejoin="round" />
<path d="M 127.77777777777779 171.66666666666669 L 127.22222222222221 171.66666666666669 L 127.22222222222221 171.66666666666669 L 127.22222222222221 171.66666666666669 L 129.44444444444446 171.66666666666669 L 131.66666666666669 170.55555555555557 L 134.44444444444446 170.00000000000003 L 135.00000000000003 169.44444444444446 " stroke="black" fill="none" stroke-width="7.0" stroke-linecap="round" stroke-linejoin="round" />
<path d="M 127.77777777777779 180.00000000000003 L 127.77777777777779 180.55555555555557 L 127.22222222222221 181.11111111111114 L 127.77777777777779 181.11111111111114 L 130.00000000000003 180.55555555555557 L 132.7777777777778 179.44444444444446 L 136.11111111111111 177.7777777777778 L 136.66666666666669 177.22222222222223 " stroke="black" fill="none" stroke-width="7.0" stroke-linecap="round" stroke-linejoin="round" />
<path d="M 130.55555555555557 154.44444444444446 L 131.11111111111111 155.00000000000003 L 131.11111111111111 156.11111111111111 L 131.11111111111111 157.7777777777778 L 131.66666666666669 161.66666666666669 L 132.22222222222223 168.8888888888889 L 132.7777777777778 178.33333333333334 L 132.7777777777778 184.44444444444446 L 132.7777777777778 186.11111111111114 L 132.7777777777778 186.11111111111114 " stroke="black" fill="none" stroke-width="7.0" stroke-linecap="round" stroke-linejoin="round" />
<path d="M 128.33333333333334 191.11111111111114 L 128.33333333333334 191.11111111111114 L 128.33333333333334 191.11111111111114 L 129.44444444444446 191.11111111111114 L 133.8888888888889 190.00000000000003 L 138.8888888888889 188.33333333333334 L 142.7777777777778 187.22222222222223 L 143.8888888888889 186.66666666666669 " stroke="black" fill="none" stroke-width="7.0" stroke-linecap="round" stroke-linejoin="round" />
<path d="M 160.55555555555557 102.77777777777777 L 160.55555555555557 102.77777777777777 L 160.00000000000003 103.33333333333333 L 160.00000000000003 103.33333333333333 L 159.44444444444446 104.44444444444444 L 159.44444444444446 109.44444444444444 L 161.11111111111111 122.77777777777779 L 161.66666666666669 140.00000000000003 L 161.66666666666669 153.8888888888889 L 161.11111111111111 161.66666666666669 L 160.55555555555557 165.55555555555557 L 160.55555555555557 166.66666666666669 L 159.44444444444446 167.22222222222223 L 158.33333333333334 167.22222222222223 " stroke="black" fill="none" stroke-width="7.0" stroke-linecap="round" stroke-linejoin="round" />
<path d="M 152.7777777777778 122.22222222222221 L 152.22222222222223 122.22222222222221 L 151.66666666666669 122.22222222222221 L 151.11111111111111 122.22222222222221 L 152.22222222222223 122.22222222222221 L 156.11111111111111 121.1111111111111 L 161.11111111111111 119.44444444444444 L 166.66666666666669 117.77777777777779 L 170.55555555555557 116.1111111111111 L 172.7777777777778 115.00000000000001 L 173.33333333333334 115.00000000000001 L 173.33333333333334 115.00000000000001 L 173.33333333333334 115.00000000000001 L 173.33333333333334 115.00000000000001 L 173.33333333333334 115.55555555555556 L 173.8888888888889 116.66666666666667 L 173.8888888888889 117.77777777777779 L 173.8888888888889 118.8888888888889 L 173.8888888888889 120.00000000000001 L 173.8888888888889 122.22222222222221 L 173.8888888888889 125.55555555555556 L 173.8888888888889 130.55555555555557 L 174.44444444444446 137.22222222222223 L 176.11111111111114 146.11111111111111 L 177.22222222222223 155.00000000000003 L 178.8888888888889 162.7777777777778 L 180.00000000000003 168.8888888888889 L 180.00000000000003 172.22222222222223 L 180.00000000000003 175.00000000000003 L 178.33333333333334 176.11111111111114 L 176.11111111111114 176.66666666666669 L 173.33333333333334 176.11111111111114 L 171.66666666666669 173.33333333333334 " stroke="black" fill="none" stroke-width="7.0" stroke-linecap="round" stroke-linejoin="round" />
</svg>