<svg xmlns="http://www.w3.org/2000/svg" width="300" height="300" viewBox="0 0 300 300">
<path d="M 110.0 121.5 L 110.0 121.5 L 109.0 122.0 L 108.5 122.0 L 108.5 122.0 L 111.0 121.0 L 116.5 119.0 L 123.0 116.5 L 129.5 114.5 L 133.0 113.0 L 134.5 112.5 L 134.0 112.5 " stroke="black" fill="none" stroke-width="7.0" stroke-linecap="round" stroke-linejoin="round" />
<path d="M 123.5 121.5 L 122.5 121.5 L 122.0 121.5 L 122.0 121.0 L 122.5 123.5 L 123.5 129.0 L 123.5 137.5 L 123.5 147.0 L 123.5 154.0 L 123.5 157.5 L 124.0 157.5 " stroke="black" fill="none" stroke-width="7.0" stroke-linecap="round" stroke-linejoin="round" />
<path d="M 112.5 171.5 L 112.5 171.5 L 112.5 170.5 L 113.5 169.0 L 116.0 167.5 L 121.5 165.0 L 128.5 162.0 L 135.0 157.5 L 139.5 153.0 L 139.5 152.0 " stroke="black" fill="none" stroke-width="7.0" stroke-linecap="round" stroke-linejoin="round" />
<path d="M 160.0 111.0 L 160.0 111.0 L 160.0 111.5 L 159.5 112.0 L 159.0 114.0 L 158.5 120.5 L 155.0 136.0 L 150.0 157.0 L 147.5 169.5 L 147.0 173.5 L 147.0 172.5 L 147.5 171.5 " stroke="black" fill="none" stroke-width="7.0" stroke-linecap="round" stroke-linejoin="round" />
<path d="M 144.5 129.5 L 143.5 129.5 L 142.5 129.5 L 142.0 129.5 L 143.0 129.0 L 145.5 129.0 L 149.0 128.0 L 154.5 127.5 L 162.0 127.0 L 169.5 127.0 L 175.0 128.0 L 179.0 129.0 L 182.0 129.5 L 182.5 129.5 L 182.5 130.0 L 182.5 130.0 L 182.5 130.5 L 182.5 131.5 L 182.5 132.5 L 182.5 134.5 L 182.5 137.0 L 182.5 140.5 L 182.0 146.0 L 181.0 153.0 L 180.0 160.5 L 178.5 167.5 L 176.5 171.5 L 173.5 173.5 L 170.5 173.5 L 169.0 172.0 L 168.0 171.5 L 167.5 171.5 " stroke="black" fill="none" stroke-width="7.0" stroke-linecap="round" stroke-linejoin="round" />
</svg>