<svg xmlns="http://www.w3.org/2000/svg" width="300" height="300" viewBox="0 0 300 300">
<path d="M 123.33333333333333 107.22222222222223 L 123.33333333333333 107.22222222222223 L 122.77777777777779 107.22222222222223 L 122.77777777777779 106.66666666666667 L 122.77777777777779 106.66666666666667 L 123.33333333333333 106.11111111111111 L 123.8888888888889 106.66666666666667 L 123.8888888888889 111.11111111111111 L 121.1111111111111 122.77777777777779 L 116.66666666666667 136.66666666666669 L 114.44444444444444 142.22222222222223 L 114.44444444444444 140.55555555555557 L 115.00000000000001 139.44444444444446 " stroke="black" fill="none" stroke-width="7.0" stroke-linecap="round" stroke-linejoin="round" />
<path d="M 127.77777777777779 123.8888888888889 L 127.77777777777779 123.8888888888889 L 127.22222222222221 123.8888888888889 L 126.66666666666667 123.8888888888889 L 126.1111111111111 123.8888888888889 L 126.1111111111111 123.8888888888889 L 126.66666666666667 123.8888888888889 L 128.33333333333334 123.8888888888889 L 131.11111111111111 123.33333333333333 L 136.11111111111111 122.77777777777779 L 143.33333333333334 122.22222222222221 L 150.00000000000003 121.1111111111111 L 155.55555555555557 120.55555555555556 L 160.55555555555557 119.44444444444444 L 163.33333333333334 118.8888888888889 L 164.44444444444446 118.33333333333333 L 165.00000000000003 118.33333333333333 L 166.11111111111114 118.33333333333333 L 168.33333333333334 118.33333333333333 L 170.55555555555557 117.77777777777779 L 172.22222222222223 117.22222222222221 L 172.22222222222223 116.66666666666667 L 172.22222222222223 116.66666666666667 L 172.22222222222223 116.66666666666667 L 172.22222222222223 116.66666666666667 L 172.22222222222223 116.66666666666667 L 172.22222222222223 116.66666666666667 L 172.22222222222223 116.66666666666667 L 172.22222222222223 116.66666666666667 L 172.22222222222223 116.66666666666667 L 171.66666666666669 116.66666666666667 L 171.66666666666669 116.66666666666667 L 171.66666666666669 116.66666666666667 L 171.66666666666669 116.66666666666667 L 171.66666666666669 116.66666666666667 L 171.66666666666669 117.22222222222221 L 171.66666666666669 117.22222222222221 L 171.66666666666669 117.22222222222221 L 171.66666666666669 117.22222222222221 L 171.66666666666669 117.77777777777779 L 171.11111111111114 118.33333333333333 L 171.11111111111114 119.44444444444444 L 171.11111111111114 120.55555555555556 L 171.11111111111114 122.77777777777779 L 171.11111111111114 125.55555555555556 L 171.11111111111114 128.33333333333334 L 171.11111111111114 132.7777777777778 L 171.11111111111114 137.7777777777778 L 171.11111111111114 143.8888888888889 L 171.11111111111114 149.44444444444446 L 171.66666666666669 155.00000000000003 L 172.22222222222223 159.44444444444446 L 172.7777777777778 164.44444444444446 L 172.7777777777778 168.8888888888889 L 172.7777777777778 172.22222222222223 L 172.22222222222223 175.00000000000003 L 170.55555555555557 178.33333333333334 L 167.22222222222223 181.11111111111114 L 161.11111111111111 183.8888888888889 L 155.00000000000003 186.11111111111114 L 151.66666666666669 186.11111111111114 L 151.11111111111111 185.00000000000003 L 151.11111111111111 183.8888888888889 " stroke="black" fill="none" stroke-width="7.0" stroke-linecap="round" stroke-linejoin="round" />
<path d="M 137.22222222222223 126.1111111111111 L 137.7777777777778 126.1111111111111 L 138.33333333333334 126.1111111111111 L 138.33333333333334 126.1111111111111 L 138.33333333333334 127.22222222222221 L 138.33333333333334 130.00000000000003 L 137.7777777777778 137.22222222222223 L 134.44444444444446 148.33333333333334 L 128.33333333333334 159.44444444444446 L 122.22222222222221 166.66666666666669 L 118.33333333333333 168.8888888888889 L 118.33333333333333 168.33333333333334 " stroke="black" fill="none" stroke-width="7.0" stroke-linecap="round" stroke-linejoin="round" />
<path d="M 154.44444444444446 126.1111111111111 L 154.44444444444446 126.1111111111111 L 155.00000000000003 126.1111111111111 L 155.55555555555557 126.1111111111111 L 155.55555555555557 126.66666666666667 L 155.55555555555557 130.55555555555557 L 152.7777777777778 141.66666666666669 L 147.22222222222223 157.22222222222223 L 138.8888888888889 171.66666666666669 L 131.66666666666669 180.00000000000003 L 127.77777777777779 182.7777777777778 L 126.66666666666667 182.22222222222223 " stroke="black" fill="none" stroke-width="7.0" stroke-linecap="round" stroke-linejoin="round" />
</svg>