<svg xmlns="http://www.w3.org/2000/svg" width="300" height="300" viewBox="0 0 300 300">
<path d="M 123.0 116.5 L 123.0 116.5 L 122.5 116.5 L 122.5 116.5 L 122.0 117.5 L 122.5 121.5 L 123.5 131.0 L 123.5 146.0 L 122.5 163.0 L 121.5 174.5 L 121.0 180.5 L 121.0 181.5 L 121.0 180.0 L 120.5 174.5 " stroke="black" fill="none" stroke-width="6.0" stroke-linecap="round" stroke-linejoin="round" />
<path d="M 124.5 119.0 L 124.0 118.0 L 123.5 117.5 L 123.5 117.5 L 125.0 117.0 L 127.0 116.5 L 129.5 115.5 L 132.0 115.0 L 133.5 114.5 L 134.0 114.5 L 134.5 116.0 L 134.5 118.0 L 134.5 121.5 L 134.5 125.5 L 134.5 131.5 L 135.0 139.0 L 135.5 148.0 L 136.0 157.5 L 136.5 167.0 L 136.5 173.5 L 137.0 178.5 L 137.0 181.0 L 137.0 182.0 L 136.5 182.0 L 135.0 181.5 L 133.5 178.5 L 132.5 176.5 " stroke="black" fill="none" stroke-width="6.0" stroke-linecap="round" stroke-linejoin="round" />
<path d="M 126.5 138.0 L 126.0 138.0 L 125.5 138.5 L 125.5 138.5 L 126.5 138.5 L 129.0 137.5 L 131.5 137.0 L 133.5 136.5 L 134.0 136.5 L 134.5 137.0 " stroke="black" fill="none" stroke-width="6.0" stroke-linecap="round" stroke-linejoin="round" />
<path d="M 127.0 155.0 L 127.0 155.5 L 126.0 156.5 L 125.5 156.5 L 125.5 156.5 L 127.5 155.5 L 130.0 154.5 L 132.5 153.0 L 134.0 151.0 " stroke="black" fill="none" stroke-width="6.0" stroke-linecap="round" stroke-linejoin="round" />
<path d="M 150.5 116.0 L 150.5 115.5 L 150.5 115.0 L 150.5 114.5 L 150.5 114.5 L 150.5 114.5 L 151.0 115.0 L 152.5 117.0 L 154.0 119.0 L 155.5 120.5 L 156.5 120.5 " stroke="black" fill="none" stroke-width="6.0" stroke-linecap="round" stroke-linejoin="round" />
<path d="M 173.5 110.0 L 173.5 110.0 L 174.5 110.0 L 175.0 110.0 L 175.5 110.0 L 175.5 110.0 L 176.0 110.5 L 176.0 111.0 L 175.5 112.5 L 174.0 115.0 L 172.5 117.5 " stroke="black" fill="none" stroke-width="6.0" stroke-linecap="round" stroke-linejoin="round" />
<path d="M 150.5 129.0 L 150.5 129.5 L 150.5 130.0 L 151.5 130.0 L 153.5 129.5 L 158.0 128.5 L 164.0 128.0 L 170.5 127.5 L 175.5 127.5 L 176.5 127.5 L 176.5 127.5 " stroke="black" fill="none" stroke-width="6.0" stroke-linecap="round" stroke-linejoin="round" />
<path d="M 148.0 141.5 L 148.0 141.5 L 148.0 141.0 L 148.5 141.0 L 150.0 141.0 L 154.0 141.0 L 162.0 141.0 L 171.0 140.5 L 178.5 139.0 L 182.0 137.5 L 182.0 137.0 " stroke="black" fill="none" stroke-width="6.0" stroke-linecap="round" stroke-linejoin="round" />
<path d="M 163.0 110.0 L 163.0 111.5 L 163.0 112.0 L 163.0 114.0 L 163.0 118.0 L 163.0 126.0 L 161.5 137.0 L 159.0 147.0 L 155.5 154.0 L 152.5 158.5 L 151.5 159.5 L 151.5 159.5 L 151.5 159.5 " stroke="black" fill="none" stroke-width="6.0" stroke-linecap="round" stroke-linejoin="round" />
<path d="M 166.0 145.5 L 165.0 145.0 L 164.5 145.0 L 164.5 145.0 L 166.5 146.0 L 170.5 148.5 L 174.5 151.0 L 178.5 153.0 L 180.5 153.0 " stroke="black" fill="none" stroke-width="6.0" stroke-linecap="round" stroke-linejoin="round" />
<path d="M 164.0 157.5 L 164.0 157.0 L 164.0 156.5 L 164.0 156.0 L 164.0 155.5 L 164.0 155.5 L 164.0 156.5 L 164.0 162.0 L 163.5 169.5 L 162.0 176.5 L 161.0 180.0 L 160.5 180.0 L 160.5 177.5 " stroke="black" fill="none" stroke-width="6.0" stroke-linecap="round" stroke-linejoin="round" />
<path d="M 156.5 167.5 L 156.0 167.5 L 156.0 167.5 L 155.5 167.5 L 156.0 167.0 L 159.0 166.0 L 163.5 165.0 L 168.5 164.0 L 172.0 163.5 L 174.0 163.5 L 174.5 163.5 L 175.0 164.0 L 175.5 165.0 L 176.0 165.5 L 176.5 166.5 L 177.0 168.0 L 177.5 169.5 L 177.5 171.0 L 177.5 173.5 L 177.5 176.0 L 176.5 178.0 L 175.5 179.5 L 174.0 180.5 L 173.0 180.5 L 172.5 180.0 " stroke="black" fill="none" stroke-width="6.0" stroke-linecap="round" stroke-linejoin="round" />
</svg>