<svg xmlns="http://www.w3.org/2000/svg" width="300" height="300" viewBox="0 0 300 300">
<path d="M 124.5 114.0 L 124.0 114.0 L 122.5 114.5 L 122.0 114.5 L 122.5 114.5 L 124.5 113.5 L 128.0 113.0 L 132.0 112.5 L 137.0 111.5 L 142.0 111.0 L 145.0 110.5 L 146.0 111.0 L 146.0 111.5 L 145.5 112.0 L 145.0 112.0 L 145.0 112.5 L 144.5 112.5 L 144.5 113.0 L 144.0 113.0 L 144.0 113.5 L 143.5 113.5 L 143.5 114.0 L 143.5 115.0 L 143.5 117.0 L 143.5 121.5 L 143.0 127.5 L 142.5 133.0 L 142.5 135.5 L 142.5 135.0 L 142.5 132.5 " stroke="black" fill="none" stroke-width="7.0" stroke-linecap="round" stroke-linejoin="round" />
<path d="M 126.0 125.0 L 125.0 125.0 L 124.0 125.0 L 125.0 125.0 L 128.5 124.5 L 133.0 124.5 L 137.0 124.0 L 139.5 123.5 L 141.5 123.0 L 141.5 123.0 " stroke="black" fill="none" stroke-width="7.0" stroke-linecap="round" stroke-linejoin="round" />
<path d="M 129.0 137.5 L 128.5 138.5 L 128.5 139.5 L 129.0 139.5 L 131.5 139.5 L 135.5 138.0 L 139.0 136.0 L 141.0 134.5 L 141.5 133.5 " stroke="black" fill="none" stroke-width="7.0" stroke-linecap="round" stroke-linejoin="round" />
<path d="M 121.5 117.0 L 121.5 116.5 L 121.0 115.0 L 121.0 114.5 L 121.5 119.5 L 122.0 126.0 L 122.0 135.5 L 122.0 148.5 L 120.5 159.0 L 120.0 167.0 L 120.0 171.0 L 120.5 171.5 L 121.0 171.5 L 121.5 172.0 L 121.5 172.5 L 122.0 173.0 L 122.5 172.5 L 124.0 170.0 L 125.5 167.0 L 128.0 164.0 L 131.5 161.0 L 134.5 158.5 L 136.0 157.5 L 136.5 157.5 " stroke="black" fill="none" stroke-width="7.0" stroke-linecap="round" stroke-linejoin="round" />
<path d="M 135.5 148.5 L 135.5 148.0 L 135.5 147.5 L 136.0 147.5 L 138.5 150.0 L 143.0 157.5 L 146.5 164.5 L 148.5 166.5 L 148.5 166.5 " stroke="black" fill="none" stroke-width="7.0" stroke-linecap="round" stroke-linejoin="round" />
<path d="M 157.5 113.0 L 157.0 113.5 L 156.5 114.0 L 156.5 114.0 L 157.5 114.0 L 161.0 114.0 L 165.5 114.0 L 169.0 114.0 L 171.5 113.0 L 172.5 112.0 L 172.5 111.5 L 172.5 111.5 L 172.5 112.0 L 172.5 112.5 L 172.5 113.5 L 172.5 114.0 L 172.0 114.5 L 172.0 116.0 L 172.0 117.5 L 172.0 119.5 L 172.0 123.5 L 172.0 128.5 L 172.5 135.0 L 173.0 141.5 L 173.5 145.0 L 173.5 147.0 L 173.0 149.5 L 172.0 152.0 L 171.5 154.5 L 171.0 155.0 L 170.5 153.0 L 169.5 147.5 L 169.0 146.0 " stroke="black" fill="none" stroke-width="7.0" stroke-linecap="round" stroke-linejoin="round" />
<path d="M 154.5 114.5 L 155.5 115.5 L 156.0 116.0 L 156.5 116.5 L 157.0 119.0 L 157.5 125.5 L 157.5 136.5 L 157.5 152.0 L 157.5 168.0 L 157.5 178.0 L 157.0 183.5 L 156.5 185.5 L 156.0 185.5 " stroke="black" fill="none" stroke-width="7.0" stroke-linecap="round" stroke-linejoin="round" />
</svg>