<svg xmlns="http://www.w3.org/2000/svg" width="300" height="300" viewBox="0 0 300 300">
<path d="M 121.5 91.0 L 121.5 91.0 L 121.5 91.0 L 121.5 91.0 L 121.5 90.5 L 122.0 90.5 L 122.0 90.0 L 122.0 90.0 L 122.0 90.0 L 121.0 90.5 L 119.0 92.5 L 116.0 95.5 L 112.5 98.5 L 109.0 101.0 L 106.5 102.0 L 105.5 102.5 L 104.5 102.5 L 104.5 103.0 L 104.5 103.0 L 104.0 103.0 L 104.0 103.0 L 104.0 103.0 L 104.0 103.0 L 104.0 103.0 L 104.0 103.0 L 104.0 103.0 L 104.0 103.5 L 104.5 103.5 L 104.5 104.0 L 105.0 104.5 L 105.5 105.5 L 106.0 107.0 L 106.5 109.5 L 107.0 112.5 L 107.5 117.0 L 108.0 122.0 L 108.0 127.5 L 108.0 133.0 L 107.5 139.5 L 107.0 146.0 L 107.0 151.0 L 107.0 154.5 L 106.5 158.0 L 106.5 160.0 L 106.0 161.5 L 106.0 162.0 L 106.0 162.0 L 106.0 162.0 L 106.0 162.0 L 106.0 162.0 L 106.0 162.0 L 106.0 162.0 L 106.0 162.0 L 106.0 162.0 L 106.0 162.0 L 106.0 162.0 L 106.0 162.0 L 106.0 162.0 L 106.0 162.0 L 106.0 162.0 L 106.0 162.0 L 106.0 162.0 L 106.0 162.0 L 106.0 162.0 L 106.0 162.0 L 106.0 162.0 L 106.5 162.0 L 106.5 162.0 L 106.5 162.0 L 106.5 162.0 L 107.0 162.0 L 107.0 162.0 L 107.0 162.0 L 107.5 162.0 L 108.0 162.0 L 109.5 161.5 L 112.0 161.0 L 115.0 159.5 L 117.5 158.0 L 119.0 157.0 L 119.5 157.0 " stroke="black" fill="none" stroke-width="8.0" stroke-linecap="round" stroke-linejoin="round" />
<path d="M 124.5 114.0 L 124.0 113.5 L 124.0 113.5 L 123.5 113.0 L 123.5 113.5 L 124.0 116.5 L 124.0 123.0 L 124.0 136.0 L 122.0 152.5 L 119.0 168.0 L 115.0 177.0 L 110.5 184.0 L 106.5 191.0 L 105.0 193.5 L 104.5 193.0 L 105.0 192.5 " stroke="black" fill="none" stroke-width="8.0" stroke-linecap="round" stroke-linejoin="round" />
<path d="M 139.5 98.0 L 138.5 98.0 L 138.0 98.0 L 138.0 98.0 L 140.0 97.5 L 143.5 96.5 L 146.5 95.5 L 150.0 94.5 L 153.0 93.5 L 155.0 93.0 L 155.5 93.0 L 155.5 93.0 L 155.5 94.5 L 155.5 96.0 L 155.5 98.0 L 155.5 100.5 L 155.5 103.5 L 156.0 108.5 L 156.5 114.5 L 156.5 121.5 L 157.5 133.5 L 157.5 135.0 L 157.5 135.0 L 157.0 133.5 L 157.0 133.0 " stroke="black" fill="none" stroke-width="8.0" stroke-linecap="round" stroke-linejoin="round" />
<path d="M 141.5 119.5 L 140.0 119.5 L 139.5 119.5 L 140.5 119.0 L 143.5 118.0 L 147.5 116.5 L 151.5 115.5 L 154.0 115.0 L 155.5 115.5 L 155.5 116.0 " stroke="black" fill="none" stroke-width="8.0" stroke-linecap="round" stroke-linejoin="round" />
<path d="M 144.5 141.0 L 144.5 141.0 L 144.0 141.0 L 145.5 141.0 L 149.0 140.0 L 153.0 138.5 L 155.5 136.0 " stroke="black" fill="none" stroke-width="8.0" stroke-linecap="round" stroke-linejoin="round" />
<path d="M 140.0 97.0 L 140.0 97.0 L 140.0 97.0 L 140.0 97.0 L 140.5 97.0 L 140.5 97.0 L 140.5 97.0 L 141.0 98.0 L 141.0 99.5 L 141.5 101.5 L 141.5 105.0 L 142.0 109.5 L 142.5 116.0 L 142.5 123.5 L 143.0 130.0 L 143.5 137.0 L 143.5 144.5 L 143.0 151.5 L 142.0 159.0 L 141.5 166.0 L 141.0 170.5 L 140.5 175.0 L 140.0 178.0 L 139.5 180.5 L 139.5 182.5 L 139.0 184.0 L 139.0 184.5 L 139.0 184.5 L 139.0 184.0 L 140.0 183.5 L 141.0 182.5 L 143.5 181.0 L 146.5 179.0 L 150.5 176.5 L 154.5 174.5 L 157.5 173.0 L 159.0 172.5 L 159.0 171.5 " stroke="black" fill="none" stroke-width="8.0" stroke-linecap="round" stroke-linejoin="round" />
<path d="M 158.0 155.5 L 158.0 155.5 L 158.0 155.5 L 158.0 155.5 L 159.0 157.0 L 161.0 161.0 L 164.0 167.0 L 166.5 172.0 L 167.5 174.0 L 167.5 174.0 " stroke="black" fill="none" stroke-width="8.0" stroke-linecap="round" stroke-linejoin="round" />
<path d="M 180.5 95.5 L 180.0 95.5 L 179.0 95.5 L 179.0 95.5 L 179.5 95.5 L 181.5 95.0 L 184.0 94.5 L 186.5 94.0 L 189.0 94.0 L 191.0 94.0 L 193.0 94.0 L 194.5 94.0 L 195.5 94.0 L 195.5 94.0 L 195.5 94.0 L 195.0 94.0 L 195.0 94.5 L 194.5 96.5 L 194.5 98.5 L 194.0 101.5 L 194.0 105.0 L 194.0 109.0 L 194.0 114.5 L 195.0 121.0 L 195.5 128.0 L 196.0 135.0 L 196.5 140.5 L 197.0 146.5 L 197.0 151.5 L 197.0 155.5 L 197.0 158.0 L 197.0 159.0 L 196.5 159.5 L 195.5 160.0 L 194.5 160.0 L 192.5 159.5 L 190.0 156.5 L 187.5 153.0 L 186.0 151.0 L 186.0 150.5 " stroke="black" fill="none" stroke-width="8.0" stroke-linecap="round" stroke-linejoin="round" />
<path d="M 175.0 98.5 L 175.0 98.5 L 175.0 98.0 L 175.0 98.0 L 176.0 99.0 L 176.5 103.5 L 177.5 111.5 L 178.5 125.5 L 179.0 141.0 L 179.0 153.0 L 179.5 163.5 L 179.5 173.5 L 181.0 182.5 L 183.0 190.0 L 184.0 192.0 " stroke="black" fill="none" stroke-width="8.0" stroke-linecap="round" stroke-linejoin="round" />
</svg>