<svg xmlns="http://www.w3.org/2000/svg" width="300" height="300" viewBox="0 0 300 300">
<path d="M 130.55555555555557 109.44444444444444 L 130.55555555555557 109.44444444444444 L 130.55555555555557 110.0 L 130.55555555555557 110.55555555555556 L 130.55555555555557 110.55555555555556 L 130.00000000000003 110.55555555555556 L 130.00000000000003 110.55555555555556 L 130.00000000000003 110.55555555555556 L 130.55555555555557 110.55555555555556 L 133.8888888888889 111.11111111111111 L 142.22222222222223 111.11111111111111 L 155.55555555555557 110.55555555555556 L 167.7777777777778 110.0 L 172.7777777777778 110.0 L 174.44444444444446 110.55555555555556 L 174.44444444444446 111.11111111111111 L 175.00000000000003 111.11111111111111 L 175.55555555555557 111.11111111111111 L 176.11111111111114 110.55555555555556 L 176.66666666666669 110.55555555555556 L 177.22222222222223 110.55555555555556 L 178.8888888888889 110.55555555555556 L 180.00000000000003 110.55555555555556 L 180.55555555555557 111.11111111111111 L 181.11111111111114 111.11111111111111 L 181.11111111111114 111.11111111111111 L 181.66666666666669 111.11111111111111 L 181.66666666666669 111.11111111111111 L 181.66666666666669 111.11111111111111 L 181.66666666666669 111.11111111111111 L 181.66666666666669 111.11111111111111 L 181.66666666666669 111.11111111111111 L 181.66666666666669 111.11111111111111 L 181.66666666666669 111.11111111111111 L 181.66666666666669 111.11111111111111 L 181.66666666666669 111.11111111111111 L 181.66666666666669 111.11111111111111 L 181.11111111111114 111.11111111111111 L 181.11111111111114 111.11111111111111 " stroke="black" fill="none" stroke-width="7.0" stroke-linecap="round" stroke-linejoin="round" />
<path d="M 129.44444444444446 113.33333333333333 L 129.44444444444446 113.33333333333333 L 129.44444444444446 112.22222222222221 L 129.44444444444446 112.22222222222221 L 130.00000000000003 111.66666666666667 L 130.00000000000003 111.66666666666667 L 130.55555555555557 113.33333333333333 L 130.55555555555557 116.66666666666667 L 130.55555555555557 122.77777777777779 L 130.55555555555557 131.66666666666669 L 130.55555555555557 141.66666666666669 L 130.55555555555557 150.55555555555557 L 130.55555555555557 157.7777777777778 L 130.55555555555557 163.33333333333334 L 130.00000000000003 168.33333333333334 L 130.00000000000003 171.11111111111114 L 130.00000000000003 172.7777777777778 L 130.00000000000003 173.8888888888889 L 130.00000000000003 175.55555555555557 L 130.00000000000003 176.66666666666669 L 130.00000000000003 177.7777777777778 L 130.00000000000003 178.8888888888889 L 130.00000000000003 180.00000000000003 L 130.00000000000003 181.11111111111114 L 130.00000000000003 181.66666666666669 L 130.00000000000003 181.66666666666669 L 130.00000000000003 181.11111111111114 L 130.00000000000003 178.8888888888889 " stroke="black" fill="none" stroke-width="7.0" stroke-linecap="round" stroke-linejoin="round" />
<path d="M 148.33333333333334 126.1111111111111 L 147.22222222222223 126.1111111111111 L 145.55555555555557 126.66666666666667 L 145.00000000000003 126.66666666666667 L 145.00000000000003 126.66666666666667 L 145.00000000000003 126.66666666666667 L 145.55555555555557 126.66666666666667 L 147.7777777777778 126.66666666666667 L 151.11111111111111 126.66666666666667 L 156.66666666666669 126.66666666666667 L 163.8888888888889 127.22222222222221 L 170.00000000000003 127.22222222222221 L 172.7777777777778 127.77777777777779 L 173.33333333333334 127.77777777777779 L 173.33333333333334 127.77777777777779 L 173.33333333333334 127.77777777777779 " stroke="black" fill="none" stroke-width="7.0" stroke-linecap="round" stroke-linejoin="round" />
<path d="M 150.00000000000003 150.55555555555557 L 148.8888888888889 150.55555555555557 L 148.33333333333334 151.11111111111111 L 147.7777777777778 151.11111111111111 L 147.7777777777778 151.11111111111111 L 149.44444444444446 151.11111111111111 L 152.7777777777778 151.66666666666669 L 157.7777777777778 151.66666666666669 L 163.8888888888889 151.66666666666669 L 168.8888888888889 151.66666666666669 L 172.22222222222223 151.66666666666669 " stroke="black" fill="none" stroke-width="7.0" stroke-linecap="round" stroke-linejoin="round" />
<path d="M 157.22222222222223 128.33333333333334 L 157.22222222222223 128.33333333333334 L 156.66666666666669 128.8888888888889 L 156.66666666666669 128.8888888888889 L 156.66666666666669 130.00000000000003 L 157.7777777777778 131.66666666666669 L 158.33333333333334 136.11111111111111 L 159.44444444444446 143.8888888888889 L 160.00000000000003 152.7777777777778 L 160.55555555555557 160.55555555555557 L 160.55555555555557 166.11111111111114 L 160.55555555555557 169.44444444444446 L 160.55555555555557 170.55555555555557 L 160.55555555555557 170.55555555555557 L 160.55555555555557 170.00000000000003 " stroke="black" fill="none" stroke-width="7.0" stroke-linecap="round" stroke-linejoin="round" />
<path d="M 146.66666666666669 171.66666666666669 L 146.11111111111111 171.66666666666669 L 145.00000000000003 171.66666666666669 L 145.00000000000003 171.66666666666669 L 146.11111111111111 171.66666666666669 L 150.55555555555557 171.66666666666669 L 157.22222222222223 171.66666666666669 L 165.00000000000003 170.55555555555557 L 171.66666666666669 168.8888888888889 L 174.44444444444446 168.8888888888889 L 174.44444444444446 169.44444444444446 " stroke="black" fill="none" stroke-width="7.0" stroke-linecap="round" stroke-linejoin="round" />
<path d="M 131.66666666666669 187.7777777777778 L 131.66666666666669 187.7777777777778 L 131.11111111111111 187.22222222222223 L 131.11111111111111 187.22222222222223 L 131.11111111111111 186.66666666666669 L 131.66666666666669 186.66666666666669 L 133.33333333333334 186.66666666666669 L 136.66666666666669 186.66666666666669 L 141.11111111111111 187.22222222222223 L 147.7777777777778 187.22222222222223 L 156.11111111111111 187.22222222222223 L 164.44444444444446 186.66666666666669 L 171.66666666666669 186.11111111111114 L 175.00000000000003 186.66666666666669 L 176.11111111111114 187.22222222222223 L 176.66666666666669 187.22222222222223 L 177.22222222222223 187.22222222222223 L 177.7777777777778 187.22222222222223 L 177.7777777777778 187.22222222222223 L 178.33333333333334 186.66666666666669 L 178.33333333333334 186.66666666666669 L 178.33333333333334 186.66666666666669 L 178.8888888888889 186.66666666666669 L 178.8888888888889 186.66666666666669 L 178.8888888888889 186.66666666666669 L 179.44444444444446 186.11111111111114 L 180.00000000000003 186.11111111111114 L 180.00000000000003 186.11111111111114 L 180.55555555555557 186.11111111111114 L 180.55555555555557 186.11111111111114 " stroke="black" fill="none" stroke-width="7.0" stroke-linecap="round" stroke-linejoin="round" />
</svg>