<svg xmlns="http://www.w3.org/2000/svg" width="300" height="300" viewBox="0 0 300 300">
<path d="M 88.33333333333333 99.16666666666667 L 86.66666666666667 99.16666666666667 L 85.83333333333333 99.99999999999999 L 84.16666666666667 100.83333333333333 L 82.49999999999999 101.66666666666667 L 82.49999999999999 101.66666666666667 L 82.49999999999999 101.66666666666667 L 82.49999999999999 101.66666666666667 L 85.83333333333333 101.66666666666667 L 94.99999999999999 100.83333333333333 L 108.33333333333333 99.16666666666667 L 129.16666666666669 95.83333333333333 L 152.5 90.83333333333333 L 175.0 85.83333333333333 L 191.66666666666663 82.49999999999999 L 205.83333333333331 80.83333333333333 L 216.66666666666663 79.99999999999999 L 220.0 79.99999999999999 L 220.0 79.99999999999999 L 220.0 79.99999999999999 L 220.0 79.99999999999999 L 220.0 79.99999999999999 L 220.0 79.99999999999999 L 219.16666666666663 79.99999999999999 L 219.16666666666663 79.99999999999999 " stroke="black" fill="none" stroke-width="8.0" stroke-linecap="round" stroke-linejoin="round" />
<path d="M 81.66666666666667 156.66666666666663 L 80.83333333333333 156.66666666666663 L 79.16666666666667 156.66666666666663 L 78.33333333333333 157.5 L 78.33333333333333 157.5 L 78.33333333333333 157.5 L 80.83333333333333 157.5 L 87.49999999999999 157.5 L 98.33333333333333 157.5 L 114.99999999999999 157.5 L 136.66666666666669 157.5 L 159.16666666666663 154.16666666666669 L 180.0 151.66666666666669 L 198.33333333333331 150.83333333333331 L 214.16666666666663 150.83333333333331 L 225.83333333333331 151.66666666666669 L 234.16666666666663 152.5 L 238.33333333333331 152.5 L 239.16666666666663 152.5 L 239.16666666666663 152.5 L 239.16666666666663 152.5 L 239.16666666666663 152.5 L 239.16666666666663 152.5 L 239.16666666666663 152.5 L 239.16666666666663 152.5 " stroke="black" fill="none" stroke-width="8.0" stroke-linecap="round" stroke-linejoin="round" />
<path d="M 147.5 99.16666666666667 L 147.5 99.16666666666667 L 146.66666666666669 97.49999999999999 L 146.66666666666669 96.66666666666667 L 146.66666666666669 96.66666666666667 L 146.66666666666669 96.66666666666667 L 147.5 97.49999999999999 L 147.5 99.99999999999999 L 148.33333333333331 104.16666666666667 L 149.16666666666669 112.49999999999999 L 150.0 124.99999999999999 L 150.0 138.33333333333331 L 150.0 151.66666666666669 L 150.0 164.16666666666663 L 150.83333333333331 176.66666666666663 L 151.66666666666669 188.33333333333331 L 151.66666666666669 198.33333333333331 L 152.5 207.5 L 152.5 215.0 L 153.33333333333331 220.0 L 153.33333333333331 221.66666666666663 L 154.16666666666669 222.49999999999994 L 154.16666666666669 224.16666666666663 L 154.16666666666669 226.66666666666663 L 155.0 229.16666666666663 L 155.0 232.49999999999994 L 155.0 234.16666666666663 L 155.0 236.66666666666663 L 155.83333333333331 238.33333333333331 L 155.83333333333331 239.99999999999994 L 155.83333333333331 241.66666666666663 L 155.83333333333331 242.49999999999994 L 155.83333333333331 242.49999999999994 L 155.83333333333331 242.49999999999994 L 155.83333333333331 242.49999999999994 L 155.83333333333331 242.49999999999994 L 155.83333333333331 242.49999999999994 L 155.83333333333331 242.49999999999994 L 155.83333333333331 242.49999999999994 L 155.83333333333331 243.33333333333331 L 155.83333333333331 243.33333333333331 L 155.83333333333331 243.33333333333331 L 155.83333333333331 243.33333333333331 L 155.83333333333331 243.33333333333331 L 155.83333333333331 243.33333333333331 L 155.83333333333331 243.33333333333331 L 155.83333333333331 243.33333333333331 L 155.83333333333331 243.33333333333331 L 155.83333333333331 243.33333333333331 L 155.83333333333331 243.33333333333331 L 155.83333333333331 243.33333333333331 L 155.83333333333331 244.16666666666663 L 155.83333333333331 244.16666666666663 L 155.83333333333331 244.99999999999994 L 155.83333333333331 244.99999999999994 L 155.83333333333331 245.83333333333331 L 155.83333333333331 245.83333333333331 L 155.83333333333331 245.83333333333331 L 155.83333333333331 246.66666666666663 L 155.83333333333331 246.66666666666663 L 155.83333333333331 247.49999999999994 L 155.83333333333331 247.49999999999994 L 155.83333333333331 247.49999999999994 L 155.83333333333331 247.49999999999994 L 155.83333333333331 247.49999999999994 L 155.83333333333331 247.49999999999994 L 155.83333333333331 248.33333333333331 L 155.83333333333331 248.33333333333331 L 155.83333333333331 248.33333333333331 L 155.83333333333331 248.33333333333331 L 155.83333333333331 248.33333333333331 L 155.83333333333331 248.33333333333331 L 155.83333333333331 248.33333333333331 L 155.83333333333331 248.33333333333331 L 155.83333333333331 248.33333333333331 L 155.83333333333331 248.33333333333331 L 155.83333333333331 248.33333333333331 L 155.83333333333331 249.16666666666663 L 155.83333333333331 249.16666666666663 L 155.83333333333331 249.16666666666663 L 155.83333333333331 249.16666666666663 L 155.83333333333331 249.16666666666663 L 155.83333333333331 249.16666666666663 L 155.83333333333331 249.16666666666663 L 155.83333333333331 249.16666666666663 L 155.83333333333331 249.16666666666663 L 155.83333333333331 249.16666666666663 L 155.83333333333331 249.16666666666663 L 155.83333333333331 249.16666666666663 L 155.83333333333331 249.16666666666663 L 155.83333333333331 249.16666666666663 L 155.83333333333331 249.16666666666663 L 155.83333333333331 249.16666666666663 L 155.83333333333331 249.16666666666663 L 155.83333333333331 249.16666666666663 L 155.83333333333331 249.16666666666663 L 155.83333333333331 249.16666666666663 L 155.83333333333331 249.16666666666663 L 155.83333333333331 249.16666666666663 L 155.83333333333331 249.16666666666663 L 155.83333333333331 249.16666666666663 L 155.83333333333331 249.16666666666663 L 155.83333333333331 249.16666666666663 L 155.83333333333331 249.16666666666663 L 155.83333333333331 249.16666666666663 L 155.83333333333331 249.16666666666663 L 155.83333333333331 249.16666666666663 L 155.83333333333331 249.16666666666663 L 155.83333333333331 249.16666666666663 L 155.83333333333331 249.16666666666663 L 155.83333333333331 249.16666666666663 L 155.83333333333331 249.16666666666663 L 155.83333333333331 249.16666666666663 L 155.83333333333331 249.16666666666663 L 155.83333333333331 249.16666666666663 L 155.83333333333331 249.16666666666663 L 155.83333333333331 249.16666666666663 L 155.83333333333331 249.16666666666663 L 155.83333333333331 249.16666666666663 L 155.83333333333331 249.16666666666663 L 155.83333333333331 249.16666666666663 L 155.83333333333331 249.16666666666663 L 155.83333333333331 249.16666666666663 " stroke="black" fill="none" stroke-width="8.0" stroke-linecap="round" stroke-linejoin="round" />
</svg>