<svg xmlns="http://www.w3.org/2000/svg" width="300" height="300" viewBox="0 0 300 300">
<path d="M 124.5 145.0 L 124.5 145.0 L 123.0 145.0 L 121.5 145.5 L 121.0 145.5 L 121.0 145.5 L 121.0 145.5 L 122.5 145.5 L 125.5 145.5 L 131.0 145.5 L 139.5 145.5 L 150.0 145.0 L 159.5 145.0 L 166.0 145.0 L 170.5 145.0 L 173.5 145.0 L 175.0 145.0 L 176.0 144.5 L 176.0 144.5 L 176.5 144.5 L 176.5 144.5 L 176.5 144.5 L 176.5 144.5 L 176.5 144.5 L 176.5 144.5 L 176.0 144.5 " stroke="black" fill="none" stroke-width="6.0" stroke-linecap="round" stroke-linejoin="round" />
<path d="M 148.5 126.5 L 148.0 126.0 L 148.0 126.0 L 148.0 126.0 L 148.0 127.0 L 148.5 131.5 L 149.5 141.5 L 150.0 157.0 L 150.0 170.5 L 150.0 177.0 L 150.0 179.5 L 150.0 180.0 L 150.0 177.5 L 150.0 174.5 " stroke="black" fill="none" stroke-width="6.0" stroke-linecap="round" stroke-linejoin="round" />
<path d="M 134.5 129.5 L 134.5 129.5 L 135.0 129.5 L 135.5 129.5 L 135.5 129.5 L 135.5 131.5 L 135.5 138.0 L 135.0 150.0 L 132.5 164.0 L 128.5 176.0 L 125.0 183.5 L 123.5 186.0 L 123.0 185.5 L 124.0 182.0 L 124.5 180.5 " stroke="black" fill="none" stroke-width="6.0" stroke-linecap="round" stroke-linejoin="round" />
<path d="M 166.0 125.5 L 165.0 125.5 L 164.5 125.0 L 164.5 125.5 L 165.0 129.5 L 166.0 139.5 L 167.0 155.0 L 167.0 168.0 L 167.5 175.5 L 167.5 179.0 L 168.0 180.0 L 168.5 180.0 " stroke="black" fill="none" stroke-width="6.0" stroke-linecap="round" stroke-linejoin="round" />
</svg>