<svg xmlns="http://www.w3.org/2000/svg" width="300" height="300" viewBox="0 0 300 300">
<path d="M 106.0 99.0 L 106.0 98.5 L 106.0 97.5 L 107.0 97.0 L 111.0 96.5 L 119.0 96.5 L 130.0 96.5 L 144.0 96.5 L 157.0 96.0 L 168.5 95.0 L 175.5 94.5 L 177.0 95.0 " stroke="black" fill="none" stroke-width="8.0" stroke-linecap="round" stroke-linejoin="round" />
<path d="M 104.5 101.0 L 104.5 101.0 L 104.0 101.0 L 103.5 101.0 L 103.5 102.0 L 104.5 103.5 L 105.5 107.0 L 106.5 112.5 L 107.5 120.0 L 108.0 129.0 L 108.0 137.5 L 108.0 146.5 L 108.5 154.5 L 109.0 161.0 L 109.5 168.0 L 110.0 174.5 L 110.0 181.0 L 110.5 187.5 L 110.5 192.0 L 110.5 195.0 L 110.5 196.5 L 110.5 197.5 L 111.0 198.5 L 111.0 199.5 L 111.5 199.5 L 111.5 200.0 L 111.5 200.0 L 112.0 200.5 L 113.5 200.5 L 115.0 200.5 L 118.0 201.0 L 121.5 201.0 L 126.5 201.0 L 133.5 200.5 L 141.5 199.5 L 149.0 199.0 L 156.0 198.5 L 162.5 198.0 L 168.0 198.0 L 172.0 197.5 L 175.5 197.0 L 179.0 196.5 L 181.0 196.0 L 182.0 196.0 L 182.5 195.5 " stroke="black" fill="none" stroke-width="8.0" stroke-linecap="round" stroke-linejoin="round" />
<path d="M 136.5 115.5 L 137.0 115.5 L 137.5 116.0 L 138.0 116.5 L 139.0 118.0 L 140.0 123.0 L 141.0 132.5 L 141.5 145.0 L 140.5 157.0 L 137.5 168.0 L 135.0 173.5 L 134.0 175.0 L 133.5 175.0 L 133.0 173.5 " stroke="black" fill="none" stroke-width="8.0" stroke-linecap="round" stroke-linejoin="round" />
<path d="M 125.0 129.0 L 124.0 129.5 L 123.5 129.5 L 123.5 129.5 L 126.0 129.5 L 129.5 128.0 L 133.0 127.0 L 136.5 126.5 L 138.0 126.5 " stroke="black" fill="none" stroke-width="8.0" stroke-linecap="round" stroke-linejoin="round" />
<path d="M 126.5 148.0 L 125.0 148.0 L 124.5 148.0 L 125.5 147.5 L 128.0 147.0 L 131.0 146.5 L 134.0 146.0 L 136.0 146.0 " stroke="black" fill="none" stroke-width="8.0" stroke-linecap="round" stroke-linejoin="round" />
<path d="M 121.0 162.5 L 121.0 162.5 L 120.5 162.0 L 121.5 161.5 L 125.0 160.5 L 130.0 160.0 L 136.5 158.0 L 138.0 157.5 " stroke="black" fill="none" stroke-width="8.0" stroke-linecap="round" stroke-linejoin="round" />
<path d="M 155.0 121.0 L 156.0 119.5 L 157.0 118.0 L 158.0 117.5 L 159.0 118.0 L 160.0 122.0 L 161.0 132.5 L 161.0 149.5 L 160.5 165.5 L 160.5 172.5 L 161.0 173.0 L 162.0 172.5 L 162.0 171.5 " stroke="black" fill="none" stroke-width="8.0" stroke-linecap="round" stroke-linejoin="round" />
<path d="M 164.0 132.0 L 163.0 132.0 L 163.0 131.5 L 164.0 130.5 L 166.5 129.5 L 169.5 128.5 L 171.5 128.5 L 174.0 128.0 L 175.5 128.0 " stroke="black" fill="none" stroke-width="8.0" stroke-linecap="round" stroke-linejoin="round" />
<path d="M 165.5 147.0 L 165.5 147.0 L 165.0 147.0 L 166.0 146.5 L 168.5 145.5 L 171.0 144.5 L 173.5 144.0 L 174.5 144.0 " stroke="black" fill="none" stroke-width="8.0" stroke-linecap="round" stroke-linejoin="round" />
<path d="M 162.5 159.0 L 161.0 159.5 L 160.5 160.0 L 162.5 160.0 L 167.5 160.0 L 172.5 159.5 L 179.5 158.5 L 183.5 157.5 " stroke="black" fill="none" stroke-width="8.0" stroke-linecap="round" stroke-linejoin="round" />
</svg>