<svg xmlns="http://www.w3.org/2000/svg" width="300" height="300" viewBox="0 0 300 300">
<path d="M 119.5 112.0 L 118.5 112.0 L 118.0 112.0 L 118.5 112.0 L 126.0 112.0 L 141.0 112.0 L 160.5 112.0 L 176.0 111.5 L 187.5 110.0 L 192.0 109.0 L 192.5 108.5 " stroke="black" fill="none" stroke-width="9.0" stroke-linecap="round" stroke-linejoin="round" />
<path d="M 147.0 92.5 L 147.0 92.5 L 146.5 92.0 L 146.5 92.0 L 146.5 94.0 L 146.5 100.5 L 144.5 115.5 L 137.0 136.0 L 127.5 152.0 L 123.0 158.0 L 120.0 159.5 L 119.5 158.0 L 120.0 157.0 " stroke="black" fill="none" stroke-width="9.0" stroke-linecap="round" stroke-linejoin="round" />
<path d="M 147.5 133.0 L 146.0 133.5 L 144.5 134.0 L 144.5 134.5 L 145.0 134.5 L 150.5 134.5 L 158.0 134.0 L 167.0 134.0 L 174.0 134.0 L 176.5 135.5 L 176.0 139.0 L 172.0 145.5 L 166.0 154.5 L 158.0 165.5 L 148.0 178.0 L 139.5 188.5 L 133.0 195.0 L 128.5 197.0 L 127.5 196.0 L 128.0 193.0 " stroke="black" fill="none" stroke-width="9.0" stroke-linecap="round" stroke-linejoin="round" />
<path d="M 139.5 154.0 L 139.0 154.0 L 138.5 154.0 L 140.5 155.5 L 149.0 162.0 L 165.0 174.5 L 179.0 185.0 L 190.5 190.0 L 200.5 192.5 L 207.5 193.0 " stroke="black" fill="none" stroke-width="9.0" stroke-linecap="round" stroke-linejoin="round" />
</svg>