<svg xmlns="http://www.w3.org/2000/svg" width="300" height="300" viewBox="0 0 300 300">
<path d="M 126.5 113.5 L 126.0 113.5 L 125.5 113.5 L 125.5 113.5 L 127.0 116.5 L 130.5 120.0 L 135.5 122.5 L 140.5 124.0 L 144.0 125.0 " stroke="black" fill="none" stroke-width="6.0" stroke-linecap="round" stroke-linejoin="round" />
<path d="M 168.5 113.5 L 169.0 113.5 L 169.5 113.0 L 170.0 113.0 L 170.0 113.0 L 170.0 113.5 L 168.0 116.5 L 165.0 120.5 L 162.0 124.5 L 159.5 127.0 " stroke="black" fill="none" stroke-width="6.0" stroke-linecap="round" stroke-linejoin="round" />
<path d="M 131.5 136.5 L 131.5 136.5 L 131.5 136.0 L 132.5 135.5 L 138.5 134.5 L 149.5 133.0 L 160.5 132.5 L 167.0 132.5 L 170.0 133.5 " stroke="black" fill="none" stroke-width="6.0" stroke-linecap="round" stroke-linejoin="round" />
<path d="M 128.5 152.5 L 128.0 153.0 L 127.5 153.0 L 127.0 153.0 L 130.5 152.5 L 138.0 151.5 L 150.0 150.5 L 161.0 149.0 L 169.5 148.0 L 174.5 148.0 L 175.0 148.5 " stroke="black" fill="none" stroke-width="6.0" stroke-linecap="round" stroke-linejoin="round" />
<path d="M 148.0 112.5 L 148.0 112.5 L 148.0 113.0 L 148.0 113.5 L 148.0 116.5 L 148.0 125.0 L 148.0 136.5 L 148.5 147.0 L 148.5 155.0 L 148.5 161.0 L 148.5 166.5 L 148.5 170.5 L 148.5 173.0 L 148.5 174.5 L 148.5 175.5 L 148.5 176.5 L 149.0 177.5 L 149.0 179.0 L 149.0 180.0 L 149.0 181.0 L 149.0 181.5 L 149.5 182.5 L 149.5 183.0 L 149.5 183.5 L 149.5 184.0 L 149.5 184.0 L 149.5 184.0 L 150.0 184.0 L 150.0 184.0 L 150.5 184.0 L 150.5 184.0 " stroke="black" fill="none" stroke-width="6.0" stroke-linecap="round" stroke-linejoin="round" />
</svg>