<svg xmlns="http://www.w3.org/2000/svg" width="300" height="300" viewBox="0 0 300 300">
<path d="M 129.0 98.0 L 129.0 98.0 L 129.0 97.0 L 129.0 96.5 L 129.0 96.5 L 129.0 98.0 L 126.5 103.0 L 120.5 113.0 L 109.0 125.5 L 101.5 131.5 L 100.5 132.0 L 100.5 130.5 " stroke="black" fill="none" stroke-width="9.0" stroke-linecap="round" stroke-linejoin="round" />
<path d="M 115.0 122.0 L 115.5 122.0 L 116.0 121.5 L 116.5 122.0 L 117.5 125.0 L 118.0 132.0 L 118.5 147.5 L 117.5 168.0 L 117.0 183.0 L 116.0 193.5 L 115.0 200.0 L 114.5 202.5 L 114.0 202.0 " stroke="black" fill="none" stroke-width="9.0" stroke-linecap="round" stroke-linejoin="round" />
<path d="M 170.0 117.5 L 170.0 116.5 L 169.5 116.0 L 169.5 116.5 L 167.5 120.5 L 163.0 129.0 L 156.0 138.5 L 152.5 142.5 L 151.5 142.0 " stroke="black" fill="none" stroke-width="9.0" stroke-linecap="round" stroke-linejoin="round" />
<path d="M 146.5 105.0 L 145.0 104.5 L 144.5 104.5 L 144.5 104.5 L 144.5 106.5 L 144.0 113.5 L 142.5 126.5 L 140.5 143.0 L 139.5 159.5 L 141.0 173.0 L 144.0 181.5 L 147.5 189.0 L 152.0 193.5 L 158.5 196.0 L 167.0 196.5 L 175.5 195.0 L 183.5 191.5 L 189.5 187.5 L 191.5 184.5 L 191.0 182.0 L 189.5 179.0 L 187.5 176.5 L 186.0 174.0 L 185.0 171.5 L 185.0 170.0 L 185.0 169.5 " stroke="black" fill="none" stroke-width="9.0" stroke-linecap="round" stroke-linejoin="round" />
</svg>