<svg xmlns="http://www.w3.org/2000/svg" width="300" height="300" viewBox="0 0 300 300">
<path d="M 149.5 97.0 L 149.5 96.5 L 150.0 95.0 L 150.0 94.5 L 150.5 94.0 L 151.0 94.0 L 151.0 95.0 L 150.5 98.0 L 147.5 103.5 L 143.0 109.0 L 138.0 114.0 L 135.5 115.5 L 135.0 115.5 L 135.0 114.5 L 136.0 114.0 L 137.5 113.5 L 140.0 113.0 L 144.5 113.0 L 150.5 113.0 L 156.0 112.5 L 159.0 112.5 L 160.0 112.5 L 160.5 112.5 " stroke="black" fill="none" stroke-width="6.0" stroke-linecap="round" stroke-linejoin="round" />
<path d="M 162.0 106.0 L 161.5 106.0 L 161.0 106.5 L 160.5 106.5 L 161.0 107.0 L 163.5 108.5 L 166.5 111.5 L 169.5 114.0 L 172.0 116.0 L 172.5 117.0 " stroke="black" fill="none" stroke-width="6.0" stroke-linecap="round" stroke-linejoin="round" />
<path d="M 134.5 123.0 L 135.0 123.0 L 135.5 122.0 L 135.5 121.5 L 135.5 121.5 L 135.5 121.5 L 134.5 123.0 L 132.5 126.0 L 130.0 129.0 L 126.5 133.0 L 124.0 136.0 L 122.5 137.0 L 122.0 137.5 L 122.0 137.0 L 122.5 137.0 L 123.5 136.5 L 125.0 136.0 L 128.0 135.0 L 131.0 134.5 L 134.0 133.5 L 136.0 133.5 L 137.5 133.5 L 138.0 132.5 " stroke="black" fill="none" stroke-width="6.0" stroke-linecap="round" stroke-linejoin="round" />
<path d="M 139.5 128.0 L 139.0 129.0 L 139.0 129.5 L 139.0 130.0 L 139.0 131.0 L 140.0 133.0 L 141.5 135.5 L 142.5 137.0 " stroke="black" fill="none" stroke-width="6.0" stroke-linecap="round" stroke-linejoin="round" />
<path d="M 164.0 122.5 L 164.0 122.5 L 164.0 121.5 L 164.0 121.5 L 164.0 121.0 L 164.5 121.5 L 164.5 123.5 L 163.0 126.5 L 161.0 129.5 L 159.0 132.0 L 158.0 132.5 L 158.0 133.0 L 158.5 133.0 L 161.0 132.5 L 164.0 132.5 L 168.0 132.5 L 172.5 132.5 L 176.5 132.5 L 179.0 133.0 L 180.0 133.5 L 180.0 133.0 L 180.0 132.5 " stroke="black" fill="none" stroke-width="6.0" stroke-linecap="round" stroke-linejoin="round" />
<path d="M 177.0 127.5 L 177.0 128.0 L 177.0 128.5 L 177.5 129.0 L 178.0 130.0 L 179.0 131.5 L 180.0 133.5 L 180.0 134.5 " stroke="black" fill="none" stroke-width="6.0" stroke-linecap="round" stroke-linejoin="round" />
<path d="M 150.0 124.0 L 151.0 123.5 L 151.5 123.0 L 152.0 123.0 L 152.0 123.0 L 151.0 126.5 L 147.0 133.5 L 138.5 143.0 L 130.0 150.5 L 125.5 153.0 L 125.5 152.0 " stroke="black" fill="none" stroke-width="6.0" stroke-linecap="round" stroke-linejoin="round" />
<path d="M 150.0 129.0 L 150.0 129.0 L 150.0 130.0 L 150.0 131.0 L 151.0 133.5 L 154.5 139.0 L 162.0 147.0 L 172.5 152.0 L 181.0 154.0 L 188.0 154.5 L 190.5 154.0 " stroke="black" fill="none" stroke-width="6.0" stroke-linecap="round" stroke-linejoin="round" />
<path d="M 152.5 149.0 L 153.5 149.0 L 154.5 149.5 L 155.0 149.5 L 155.0 149.5 L 153.5 150.5 L 149.5 153.0 L 144.0 156.0 L 140.0 159.0 L 139.0 160.0 " stroke="black" fill="none" stroke-width="6.0" stroke-linecap="round" stroke-linejoin="round" />
<path d="M 161.0 156.0 L 161.0 157.0 L 161.5 157.5 L 161.5 158.0 L 161.5 158.5 L 159.5 160.5 L 155.5 163.5 L 149.0 167.0 L 143.0 169.0 L 141.0 169.0 L 141.0 169.0 " stroke="black" fill="none" stroke-width="6.0" stroke-linecap="round" stroke-linejoin="round" />
<path d="M 167.5 164.0 L 167.5 164.0 L 167.5 163.5 L 167.5 163.5 L 167.5 163.5 L 167.5 164.5 L 166.5 167.0 L 162.0 172.0 L 153.5 180.0 L 147.0 185.0 L 145.0 185.5 L 145.0 185.5 " stroke="black" fill="none" stroke-width="6.0" stroke-linecap="round" stroke-linejoin="round" />
</svg>