<svg xmlns="http://www.w3.org/2000/svg" width="300" height="300" viewBox="0 0 300 300">
<path d="M 133.5 101.5 L 133.0 101.0 L 133.0 101.0 L 133.0 100.5 L 136.0 100.0 L 142.5 99.5 L 153.0 98.5 L 165.0 98.0 L 176.0 97.5 L 183.5 96.5 L 186.5 96.0 L 186.0 96.0 L 185.5 96.0 L 185.0 96.0 L 185.0 96.0 L 185.0 96.5 L 184.5 97.0 L 184.5 99.0 L 183.5 103.5 L 182.5 111.5 L 181.0 122.0 L 180.0 129.0 L 180.0 132.0 L 180.0 131.5 L 180.0 131.0 " stroke="black" fill="none" stroke-width="9.0" stroke-linecap="round" stroke-linejoin="round" />
<path d="M 122.5 123.5 L 122.5 123.0 L 122.5 122.5 L 124.0 122.5 L 129.5 121.5 L 141.5 120.0 L 156.5 118.0 L 172.0 116.0 L 186.0 114.0 L 194.5 113.0 L 196.5 113.0 L 195.5 113.5 " stroke="black" fill="none" stroke-width="9.0" stroke-linecap="round" stroke-linejoin="round" />
<path d="M 134.5 139.5 L 134.5 139.5 L 135.0 139.5 L 137.5 139.5 L 146.5 138.0 L 159.5 135.0 L 172.0 131.5 L 180.0 129.0 L 183.5 128.0 " stroke="black" fill="none" stroke-width="9.0" stroke-linecap="round" stroke-linejoin="round" />
<path d="M 150.0 100.5 L 150.0 100.5 L 150.0 101.0 L 150.0 102.5 L 149.5 107.5 L 148.0 118.5 L 145.0 133.0 L 139.5 147.5 L 132.0 158.0 L 124.5 167.0 L 116.5 173.5 L 109.0 177.5 L 105.5 178.0 L 105.5 178.0 " stroke="black" fill="none" stroke-width="9.0" stroke-linecap="round" stroke-linejoin="round" />
<path d="M 137.5 163.5 L 137.5 162.0 L 138.0 161.0 L 138.0 160.5 L 138.5 161.0 L 139.5 166.0 L 140.5 173.5 L 141.0 180.5 L 141.5 183.5 L 142.0 183.5 " stroke="black" fill="none" stroke-width="9.0" stroke-linecap="round" stroke-linejoin="round" />
<path d="M 139.5 162.5 L 138.5 161.5 L 138.0 161.0 L 138.5 161.0 L 141.5 160.5 L 147.0 159.5 L 155.0 158.0 L 166.0 156.5 L 175.0 155.5 L 180.5 155.0 L 181.5 156.5 L 181.5 158.0 L 181.0 161.0 L 181.0 165.5 L 181.0 170.5 L 180.5 175.5 L 179.5 179.5 L 178.5 182.0 L 177.0 183.0 " stroke="black" fill="none" stroke-width="9.0" stroke-linecap="round" stroke-linejoin="round" />
<path d="M 142.5 191.5 L 142.0 191.5 L 142.0 191.0 L 143.5 190.5 L 148.5 189.5 L 157.0 188.5 L 166.5 188.5 L 174.5 188.5 L 179.0 188.5 L 179.5 188.5 " stroke="black" fill="none" stroke-width="9.0" stroke-linecap="round" stroke-linejoin="round" />
</svg>