<svg xmlns="http://www.w3.org/2000/svg" width="300" height="300" viewBox="0 0 300 300">
<path d="M 133.5 115.0 L 134.0 115.0 L 135.0 114.5 L 135.0 114.5 L 135.0 114.5 L 135.0 115.0 L 134.5 117.5 L 133.5 122.0 L 131.0 128.0 L 128.5 133.0 L 127.0 135.0 L 126.0 135.5 L 126.0 135.0 " stroke="black" fill="none" stroke-width="6.0" stroke-linecap="round" stroke-linejoin="round" />
<path d="M 135.0 129.5 L 135.0 130.0 L 134.5 130.5 L 135.0 130.5 L 138.5 130.0 L 145.0 129.5 L 153.0 128.5 L 159.5 128.0 L 164.0 127.5 L 165.0 127.5 L 164.0 127.0 L 163.0 126.0 " stroke="black" fill="none" stroke-width="6.0" stroke-linecap="round" stroke-linejoin="round" />
<path d="M 149.5 112.0 L 149.5 112.0 L 149.5 111.0 L 149.0 110.5 L 149.0 110.5 L 149.5 113.5 L 150.5 121.0 L 151.0 130.5 L 151.0 138.5 L 151.0 142.5 L 151.0 143.0 L 151.0 143.0 " stroke="black" fill="none" stroke-width="6.0" stroke-linecap="round" stroke-linejoin="round" />
<path d="M 135.0 145.5 L 135.0 145.5 L 134.5 145.5 L 134.0 145.5 L 134.5 145.5 L 138.0 145.5 L 144.0 145.5 L 152.0 145.5 L 161.5 144.0 L 168.5 142.5 L 170.5 142.5 L 170.5 142.5 L 169.5 142.5 L 169.0 143.0 " stroke="black" fill="none" stroke-width="6.0" stroke-linecap="round" stroke-linejoin="round" />
<path d="M 137.5 161.5 L 137.5 161.5 L 137.5 161.5 L 137.5 161.5 L 138.0 162.5 L 138.5 166.0 L 139.0 170.0 L 140.0 173.5 L 141.0 175.0 L 141.5 175.0 " stroke="black" fill="none" stroke-width="6.0" stroke-linecap="round" stroke-linejoin="round" />
<path d="M 139.5 156.0 L 139.5 156.5 L 139.0 157.0 L 138.5 157.5 L 138.5 157.5 L 139.0 157.5 L 140.5 157.5 L 143.5 157.5 L 146.5 157.5 L 151.0 156.5 L 155.0 155.5 L 158.5 155.0 L 161.0 155.0 L 162.0 155.5 L 162.0 156.0 L 162.0 156.5 L 161.5 156.5 L 161.5 156.5 L 161.5 157.0 L 161.5 157.0 L 161.5 157.5 L 161.5 158.0 L 161.5 159.0 L 161.5 161.0 L 161.0 164.0 L 161.0 167.5 L 161.0 170.5 L 161.0 172.5 L 161.0 173.5 L 161.0 174.0 " stroke="black" fill="none" stroke-width="6.0" stroke-linecap="round" stroke-linejoin="round" />
<path d="M 143.5 177.5 L 143.5 177.5 L 142.5 177.5 L 142.0 177.0 L 145.0 176.5 L 149.5 176.0 L 153.5 175.5 L 157.0 174.5 L 160.0 174.5 " stroke="black" fill="none" stroke-width="6.0" stroke-linecap="round" stroke-linejoin="round" />
</svg>