<svg xmlns="http://www.w3.org/2000/svg" width="300" height="300" viewBox="0 0 300 300">
<path d="M 147.0 93.0 L 147.0 93.5 L 147.0 94.0 L 147.0 94.0 L 147.5 95.0 L 146.0 98.0 L 137.5 107.0 L 124.0 120.5 L 117.5 126.5 L 118.0 125.5 L 118.5 124.5 " stroke="black" fill="none" stroke-width="9.0" stroke-linecap="round" stroke-linejoin="round" />
<path d="M 143.5 108.0 L 143.0 108.0 L 143.0 108.0 L 143.0 108.0 L 145.5 107.5 L 152.0 107.0 L 161.0 107.5 L 167.5 110.0 L 169.0 115.0 L 165.5 122.0 L 156.5 132.0 L 144.5 142.5 L 132.5 150.0 L 124.0 153.0 L 120.0 153.5 L 120.0 152.0 " stroke="black" fill="none" stroke-width="9.0" stroke-linecap="round" stroke-linejoin="round" />
<path d="M 133.5 122.5 L 133.5 121.5 L 134.0 121.0 L 137.5 121.5 L 143.5 125.0 L 150.0 129.0 L 155.5 132.0 " stroke="black" fill="none" stroke-width="9.0" stroke-linecap="round" stroke-linejoin="round" />
<path d="M 128.5 165.0 L 128.0 164.5 L 128.0 164.0 L 128.0 164.0 L 128.5 167.5 L 130.0 174.5 L 131.5 183.0 L 132.5 187.0 L 132.5 187.5 " stroke="black" fill="none" stroke-width="9.0" stroke-linecap="round" stroke-linejoin="round" />
<path d="M 130.0 166.5 L 130.0 166.5 L 129.5 165.5 L 129.5 164.0 L 132.5 162.5 L 140.5 159.5 L 152.0 157.0 L 163.5 157.0 L 172.5 158.5 L 177.0 162.0 L 177.5 167.0 L 175.0 174.0 L 171.0 182.0 L 169.0 188.0 L 169.0 190.5 L 169.0 191.0 L 169.0 191.0 " stroke="black" fill="none" stroke-width="9.0" stroke-linecap="round" stroke-linejoin="round" />
<path d="M 134.5 196.0 L 134.5 196.0 L 134.5 195.5 L 137.0 195.0 L 148.5 194.5 L 165.5 193.5 L 177.0 193.5 " stroke="black" fill="none" stroke-width="9.0" stroke-linecap="round" stroke-linejoin="round" />
</svg>