<svg xmlns="http://www.w3.org/2000/svg" width="300" height="300" viewBox="0 0 300 300">
<path d="M 99.0 83.0 L 98.0 84.0 L 96.0 85.0 L 96.0 93.0 L 97.0 108.0 L 99.0 120.0 L 101.0 123.0 L 102.0 123.0 " stroke="black" fill="none" stroke-width="14.0" stroke-linecap="round" stroke-linejoin="round" />
<path d="M 99.0 83.0 L 98.0 83.0 L 93.0 83.0 L 92.0 83.0 L 93.0 83.0 L 99.0 81.0 L 110.0 80.0 L 127.0 78.0 L 150.0 76.0 L 174.0 74.0 L 188.0 74.0 L 192.0 79.0 L 192.0 82.0 L 191.0 82.0 L 190.0 83.0 L 189.0 89.0 L 188.0 97.0 L 187.0 108.0 L 187.0 117.0 L 187.0 123.0 L 187.0 125.0 L 188.0 125.0 " stroke="black" fill="none" stroke-width="14.0" stroke-linecap="round" stroke-linejoin="round" />
<path d="M 109.0 133.0 L 110.0 133.0 L 112.0 132.0 L 120.0 131.0 L 135.0 131.0 L 152.0 132.0 L 172.0 132.0 L 189.0 128.0 L 191.0 127.0 " stroke="black" fill="none" stroke-width="14.0" stroke-linecap="round" stroke-linejoin="round" />
<path d="M 155.0 142.0 L 155.0 142.0 L 155.0 142.0 L 154.0 142.0 L 153.0 144.0 L 151.0 151.0 L 148.0 161.0 L 146.0 171.0 " stroke="black" fill="none" stroke-width="14.0" stroke-linecap="round" stroke-linejoin="round" />
<path d="M 95.0 180.0 L 93.0 180.0 L 92.0 184.0 L 93.0 197.0 L 97.0 215.0 L 99.0 229.0 L 101.0 233.0 " stroke="black" fill="none" stroke-width="14.0" stroke-linecap="round" stroke-linejoin="round" />
<path d="M 92.0 184.0 L 91.0 184.0 L 89.0 184.0 L 89.0 183.0 L 91.0 183.0 L 97.0 183.0 L 107.0 183.0 L 123.0 182.0 L 145.0 181.0 L 165.0 181.0 L 181.0 184.0 L 192.0 185.0 L 199.0 185.0 L 203.0 185.0 L 204.0 185.0 L 204.0 185.0 L 204.0 185.0 L 204.0 185.0 L 206.0 185.0 L 207.0 185.0 L 208.0 185.0 L 208.0 185.0 L 208.0 186.0 L 208.0 186.0 L 208.0 186.0 L 209.0 186.0 L 209.0 186.0 L 209.0 186.0 L 209.0 186.0 L 209.0 186.0 L 210.0 186.0 L 210.0 186.0 L 211.0 186.0 L 211.0 186.0 L 211.0 186.0 L 211.0 186.0 L 212.0 186.0 L 212.0 186.0 L 212.0 186.0 L 212.0 186.0 L 212.0 186.0 L 212.0 186.0 L 212.0 186.0 L 212.0 188.0 L 212.0 193.0 L 213.0 202.0 L 213.0 212.0 L 213.0 222.0 L 213.0 228.0 L 212.0 232.0 L 212.0 234.0 L 212.0 233.0 L 212.0 233.0 " stroke="black" fill="none" stroke-width="14.0" stroke-linecap="round" stroke-linejoin="round" />
<path d="M 102.0 236.0 L 102.0 236.0 L 100.0 236.0 L 100.0 235.0 L 104.0 234.0 L 116.0 234.0 L 137.0 234.0 L 164.0 233.0 L 191.0 230.0 L 211.0 227.0 L 216.0 227.0 " stroke="black" fill="none" stroke-width="14.0" stroke-linecap="round" stroke-linejoin="round" />
</svg>