<svg xmlns="http://www.w3.org/2000/svg" width="300" height="300" viewBox="0 0 300 300">
<path d="M 116.5 121.5 L 116.5 120.0 L 116.5 118.5 L 116.5 118.5 L 117.0 119.0 L 117.5 123.5 L 118.0 133.0 L 118.5 146.5 L 118.5 155.5 L 118.5 157.5 L 119.0 153.0 " stroke="black" fill="none" stroke-width="8.0" stroke-linecap="round" stroke-linejoin="round" />
<path d="M 121.0 125.0 L 119.5 124.5 L 119.0 124.0 L 119.0 123.5 L 120.5 123.0 L 123.5 122.5 L 126.5 121.5 L 130.5 121.0 L 134.0 120.5 L 137.5 120.5 L 139.0 122.5 L 139.5 125.5 L 139.5 130.5 L 138.0 138.5 L 136.0 146.5 L 135.0 152.0 L 135.0 153.5 L 134.5 153.5 " stroke="black" fill="none" stroke-width="8.0" stroke-linecap="round" stroke-linejoin="round" />
<path d="M 119.5 165.5 L 119.5 165.0 L 119.0 164.5 L 121.5 164.0 L 125.5 164.0 L 131.0 162.5 L 132.5 162.0 " stroke="black" fill="none" stroke-width="8.0" stroke-linecap="round" stroke-linejoin="round" />
<path d="M 159.5 100.5 L 159.5 99.5 L 159.5 98.0 L 159.5 98.0 L 160.0 99.0 L 161.5 105.0 L 162.5 114.0 L 163.0 121.5 L 163.5 125.5 L 164.0 125.5 " stroke="black" fill="none" stroke-width="8.0" stroke-linecap="round" stroke-linejoin="round" />
<path d="M 162.0 98.5 L 161.5 98.5 L 159.5 98.0 L 159.0 98.0 L 161.0 98.5 L 165.5 98.5 L 171.5 97.5 L 178.0 97.0 L 184.5 96.5 L 189.5 97.0 L 191.5 98.5 L 192.5 100.0 L 192.5 101.5 L 192.5 104.0 L 191.5 108.5 L 189.5 115.0 L 187.5 121.0 L 186.5 125.5 L 186.0 127.0 " stroke="black" fill="none" stroke-width="8.0" stroke-linecap="round" stroke-linejoin="round" />
<path d="M 167.5 115.5 L 166.5 115.5 L 166.5 115.5 L 169.0 115.0 L 175.0 114.5 L 181.0 113.5 L 185.0 113.5 L 185.5 114.0 " stroke="black" fill="none" stroke-width="8.0" stroke-linecap="round" stroke-linejoin="round" />
<path d="M 167.5 130.0 L 167.0 130.5 L 166.0 130.5 L 166.0 131.0 L 169.0 131.0 L 175.0 130.0 L 181.5 129.0 L 187.5 128.5 L 188.5 128.5 " stroke="black" fill="none" stroke-width="8.0" stroke-linecap="round" stroke-linejoin="round" />
<path d="M 155.0 149.5 L 155.0 149.5 L 155.0 149.5 L 155.0 151.0 L 154.5 158.0 L 154.5 168.0 L 155.5 173.0 L 157.0 174.0 L 157.5 173.0 " stroke="black" fill="none" stroke-width="8.0" stroke-linecap="round" stroke-linejoin="round" />
<path d="M 158.5 147.0 L 158.0 147.0 L 157.5 146.5 L 156.5 146.5 L 156.5 146.5 L 157.0 146.5 L 160.5 146.0 L 166.0 145.0 L 174.5 144.0 L 186.0 143.5 L 194.5 144.0 L 198.0 145.0 L 198.5 146.5 L 198.0 148.0 L 197.0 151.0 L 196.0 155.0 L 195.0 161.0 L 194.0 168.0 L 193.0 174.0 L 192.5 177.0 L 192.0 178.0 L 192.0 178.0 " stroke="black" fill="none" stroke-width="8.0" stroke-linecap="round" stroke-linejoin="round" />
<path d="M 160.0 165.0 L 160.0 164.5 L 160.0 164.0 L 161.5 163.5 L 166.0 162.5 L 172.5 161.0 L 180.5 160.5 L 187.5 160.0 L 190.0 162.0 " stroke="black" fill="none" stroke-width="8.0" stroke-linecap="round" stroke-linejoin="round" />
<path d="M 155.5 185.0 L 156.0 185.0 L 157.0 184.5 L 158.5 184.5 L 163.0 184.0 L 172.0 183.0 L 183.5 182.0 L 192.5 181.5 L 198.5 181.5 L 199.0 182.0 " stroke="black" fill="none" stroke-width="8.0" stroke-linecap="round" stroke-linejoin="round" />
</svg>