<svg xmlns="http://www.w3.org/2000/svg" width="300" height="300" viewBox="0 0 300 300">
<path d="M 122.0 118.0 L 122.0 118.0 L 121.0 117.0 L 120.5 117.0 L 120.5 117.0 L 121.0 118.5 L 122.0 122.5 L 122.5 126.5 L 123.5 129.5 L 124.0 130.5 " stroke="black" fill="none" stroke-width="7.0" stroke-linecap="round" stroke-linejoin="round" />
<path d="M 124.5 117.5 L 123.0 117.5 L 121.0 117.5 L 121.0 117.5 L 123.0 117.5 L 126.0 117.0 L 130.5 116.0 L 135.0 116.0 L 139.5 116.0 L 143.0 117.0 L 144.5 117.5 L 145.0 117.5 L 144.5 117.5 L 144.5 117.5 L 144.0 118.5 L 144.0 120.0 L 144.0 121.5 L 144.0 124.0 L 143.5 127.5 L 143.5 130.0 L 143.5 131.5 L 143.5 131.5 " stroke="black" fill="none" stroke-width="7.0" stroke-linecap="round" stroke-linejoin="round" />
<path d="M 127.0 134.0 L 126.5 134.0 L 124.5 134.0 L 124.0 134.0 L 125.5 133.5 L 129.5 133.0 L 135.0 132.5 L 139.5 132.5 L 143.0 132.5 L 143.5 133.0 " stroke="black" fill="none" stroke-width="7.0" stroke-linecap="round" stroke-linejoin="round" />
<path d="M 115.0 151.0 L 115.0 151.0 L 115.0 150.5 L 115.0 150.0 L 115.0 149.0 L 116.0 149.0 L 116.5 149.5 L 118.0 155.5 L 119.5 168.0 L 120.5 182.0 L 120.5 190.5 L 120.5 192.5 L 120.5 190.5 L 120.0 188.5 " stroke="black" fill="none" stroke-width="7.0" stroke-linecap="round" stroke-linejoin="round" />
<path d="M 122.0 147.5 L 121.5 147.5 L 120.0 147.5 L 119.5 147.5 L 119.5 147.5 L 121.5 146.5 L 125.0 146.0 L 130.0 145.0 L 135.5 144.5 L 141.0 144.5 L 145.0 144.5 L 147.5 144.5 L 148.0 144.5 L 148.0 145.0 L 147.5 146.0 L 147.5 147.0 L 147.0 149.0 L 147.0 152.0 L 147.0 157.5 L 147.0 167.0 L 148.0 179.5 L 148.0 189.5 L 148.0 198.0 L 148.0 204.5 L 148.0 208.5 L 147.5 209.5 L 145.0 208.5 L 142.0 205.5 L 139.0 200.5 " stroke="black" fill="none" stroke-width="7.0" stroke-linecap="round" stroke-linejoin="round" />
<path d="M 126.0 168.0 L 125.5 168.0 L 125.0 167.5 L 124.5 167.5 L 126.0 167.5 L 129.5 167.5 L 134.5 168.0 L 140.5 168.5 L 145.5 168.5 " stroke="black" fill="none" stroke-width="7.0" stroke-linecap="round" stroke-linejoin="round" />
<path d="M 130.5 149.5 L 130.5 150.5 L 130.0 151.0 L 130.0 152.5 L 130.0 158.0 L 130.0 169.0 L 130.5 182.0 L 131.5 188.5 L 131.5 189.0 L 131.5 188.5 " stroke="black" fill="none" stroke-width="7.0" stroke-linecap="round" stroke-linejoin="round" />
<path d="M 139.5 149.0 L 139.5 149.5 L 139.5 150.5 L 139.5 153.5 L 140.0 162.5 L 140.0 176.5 L 140.5 188.0 L 141.0 191.5 L 141.0 191.5 " stroke="black" fill="none" stroke-width="7.0" stroke-linecap="round" stroke-linejoin="round" />
<path d="M 159.5 119.5 L 159.0 119.0 L 158.0 118.5 L 158.0 118.5 L 159.5 119.0 L 162.5 119.0 L 166.0 119.0 L 170.0 118.0 L 172.5 117.0 L 173.5 117.0 L 174.0 117.0 L 174.0 117.5 L 174.0 118.5 L 174.0 120.0 L 174.0 121.0 L 174.5 123.0 L 175.0 126.5 L 175.5 132.0 L 176.0 140.5 L 176.5 151.0 L 177.0 162.0 L 177.0 172.5 L 177.0 181.0 L 176.5 188.0 L 175.5 192.5 L 174.0 195.5 L 173.0 197.0 L 171.0 197.0 L 168.5 195.0 L 166.0 191.5 L 165.5 190.5 " stroke="black" fill="none" stroke-width="7.0" stroke-linecap="round" stroke-linejoin="round" />
<path d="M 158.5 139.0 L 158.5 139.0 L 157.5 138.5 L 157.0 138.0 L 157.5 138.0 L 159.5 138.0 L 162.0 137.5 L 165.0 137.5 L 167.0 137.5 " stroke="black" fill="none" stroke-width="7.0" stroke-linecap="round" stroke-linejoin="round" />
<path d="M 160.0 155.5 L 159.5 155.0 L 159.5 154.5 L 159.5 154.5 L 159.5 155.0 L 159.5 158.0 L 160.5 162.0 L 161.0 165.0 L 161.0 166.0 " stroke="black" fill="none" stroke-width="7.0" stroke-linecap="round" stroke-linejoin="round" />
<path d="M 159.5 152.5 L 158.5 153.0 L 158.0 153.0 L 159.0 152.5 L 161.0 151.5 L 163.0 151.0 L 165.0 151.0 L 167.0 151.5 L 168.0 153.0 L 168.5 155.5 L 169.0 158.0 L 168.5 160.0 L 167.5 161.5 L 167.0 162.5 " stroke="black" fill="none" stroke-width="7.0" stroke-linecap="round" stroke-linejoin="round" />
<path d="M 163.0 166.5 L 162.0 166.5 L 160.5 166.5 L 160.0 166.5 L 162.0 166.5 L 164.0 166.0 L 166.5 165.5 L 168.5 165.0 " stroke="black" fill="none" stroke-width="7.0" stroke-linecap="round" stroke-linejoin="round" />
</svg>