<svg xmlns="http://www.w3.org/2000/svg" width="300" height="300" viewBox="0 0 300 300">
<path d="M 122.0 125.5 L 121.5 124.5 L 121.0 124.0 L 121.0 124.5 L 122.0 128.0 L 123.5 135.5 L 124.0 145.0 L 124.0 152.5 L 124.0 156.0 L 124.0 156.5 L 124.0 156.0 " stroke="black" fill="none" stroke-width="6.0" stroke-linecap="round" stroke-linejoin="round" />
<path d="M 123.5 125.0 L 122.5 125.0 L 121.5 125.0 L 121.0 125.0 L 121.5 124.5 L 124.5 124.0 L 128.5 123.5 L 132.0 123.0 L 135.0 122.5 L 136.5 122.5 L 137.5 124.0 L 138.0 127.5 L 138.0 133.5 L 137.0 140.5 L 136.5 146.5 L 136.0 150.5 L 136.0 152.0 L 136.0 152.0 L 136.0 151.5 " stroke="black" fill="none" stroke-width="6.0" stroke-linecap="round" stroke-linejoin="round" />
<path d="M 125.0 154.5 L 124.5 155.0 L 123.0 156.0 L 123.0 156.0 L 123.5 156.0 L 126.5 155.5 L 130.5 154.5 L 134.0 153.5 " stroke="black" fill="none" stroke-width="6.0" stroke-linecap="round" stroke-linejoin="round" />
<path d="M 159.0 100.5 L 159.0 99.5 L 158.5 99.0 L 158.5 99.0 L 159.0 101.0 L 161.0 104.5 L 163.0 107.5 L 164.5 110.0 L 165.5 111.5 L 165.5 111.5 " stroke="black" fill="none" stroke-width="6.0" stroke-linecap="round" stroke-linejoin="round" />
<path d="M 147.0 116.5 L 146.5 116.5 L 146.0 116.5 L 145.5 116.5 L 144.5 119.0 L 144.0 123.0 L 143.5 126.5 L 143.5 128.0 " stroke="black" fill="none" stroke-width="6.0" stroke-linecap="round" stroke-linejoin="round" />
<path d="M 146.5 119.5 L 146.5 119.0 L 146.5 118.0 L 146.5 117.5 L 153.0 117.0 L 159.5 117.0 L 168.5 116.5 L 177.5 115.5 L 184.5 114.5 L 189.5 114.0 L 191.5 114.0 L 191.5 114.0 L 191.5 114.0 L 191.0 114.0 L 191.0 114.5 L 190.5 116.0 L 190.5 118.0 L 189.5 120.5 L 189.0 123.5 L 188.0 125.5 L 187.5 127.0 L 187.5 127.5 " stroke="black" fill="none" stroke-width="6.0" stroke-linecap="round" stroke-linejoin="round" />
<path d="M 155.0 131.0 L 155.0 131.0 L 155.0 130.5 L 155.0 130.5 L 156.5 130.5 L 160.0 130.0 L 165.5 130.0 L 170.5 129.5 L 174.0 128.5 L 175.0 128.0 " stroke="black" fill="none" stroke-width="6.0" stroke-linecap="round" stroke-linejoin="round" />
<path d="M 155.0 142.5 L 155.0 142.0 L 155.5 141.5 L 155.5 141.5 L 155.5 144.0 L 155.5 148.5 L 155.0 153.5 L 155.0 156.5 L 155.0 157.5 " stroke="black" fill="none" stroke-width="6.0" stroke-linecap="round" stroke-linejoin="round" />
<path d="M 155.0 143.5 L 155.0 142.5 L 155.0 141.0 L 155.0 140.0 L 156.0 139.5 L 158.5 139.0 L 162.5 139.0 L 167.0 139.0 L 170.5 139.0 L 173.0 138.5 L 174.0 138.5 L 175.0 138.5 L 175.5 139.5 L 175.5 140.0 L 176.0 141.5 L 176.0 143.0 L 176.0 146.0 L 175.0 150.5 L 174.5 155.0 L 173.5 159.5 L 173.0 162.5 L 173.0 163.0 L 173.0 163.0 " stroke="black" fill="none" stroke-width="6.0" stroke-linecap="round" stroke-linejoin="round" />
<path d="M 162.0 151.5 L 161.5 152.0 L 160.0 152.0 L 159.5 152.0 L 159.5 152.0 L 161.5 152.0 L 164.5 152.0 L 168.0 152.0 L 170.5 152.0 L 172.5 152.0 " stroke="black" fill="none" stroke-width="6.0" stroke-linecap="round" stroke-linejoin="round" />
<path d="M 159.0 163.5 L 159.0 163.5 L 158.5 163.0 L 158.0 163.0 L 158.0 163.0 L 160.0 163.0 L 163.5 163.0 L 168.5 163.0 L 172.5 163.0 L 173.0 163.0 " stroke="black" fill="none" stroke-width="6.0" stroke-linecap="round" stroke-linejoin="round" />
<path d="M 150.5 177.0 L 150.5 177.5 L 150.5 177.5 L 150.5 178.0 L 150.5 178.0 L 150.5 178.0 L 150.5 178.0 L 152.0 178.0 L 155.0 177.5 L 161.5 177.5 L 170.5 176.5 L 179.0 175.5 L 186.0 175.0 L 188.5 174.5 L 189.0 174.5 L 189.0 174.5 L 188.5 174.0 " stroke="black" fill="none" stroke-width="6.0" stroke-linecap="round" stroke-linejoin="round" />
</svg>