<svg xmlns="http://www.w3.org/2000/svg" width="300" height="300" viewBox="0 0 300 300">
<path d="M 124.5 111.0 L 123.5 111.0 L 123.0 111.5 L 123.0 111.5 L 124.5 111.0 L 128.5 110.5 L 135.0 110.0 L 146.0 109.0 L 158.5 107.0 L 167.0 105.5 L 171.0 105.0 L 171.5 105.0 L 171.5 105.5 L 171.5 105.5 L 171.5 105.5 L 171.5 105.5 L 171.5 105.5 L 171.5 105.5 L 171.5 105.5 L 171.5 105.5 L 171.5 105.5 L 171.5 105.5 " stroke="black" fill="none" stroke-width="7.0" stroke-linecap="round" stroke-linejoin="round" />
<path d="M 148.5 94.5 L 148.0 94.5 L 147.0 94.5 L 146.5 95.0 L 146.5 98.5 L 146.5 106.0 L 146.5 114.5 L 146.5 118.0 L 146.5 119.0 L 147.0 119.0 " stroke="black" fill="none" stroke-width="7.0" stroke-linecap="round" stroke-linejoin="round" />
<path d="M 132.5 123.5 L 132.5 123.0 L 132.5 122.5 L 133.0 121.5 L 135.0 121.0 L 140.0 120.5 L 148.0 119.5 L 155.5 119.0 L 162.0 118.0 L 166.5 117.0 L 167.5 116.5 L 167.0 116.5 " stroke="black" fill="none" stroke-width="7.0" stroke-linecap="round" stroke-linejoin="round" />
<path d="M 135.0 133.0 L 135.0 133.0 L 134.5 132.5 L 134.5 132.0 L 134.0 131.5 L 134.0 131.0 L 134.0 131.0 L 135.0 133.5 L 135.5 136.5 L 136.5 139.5 L 137.5 141.0 " stroke="black" fill="none" stroke-width="7.0" stroke-linecap="round" stroke-linejoin="round" />
<path d="M 135.5 131.0 L 135.5 131.5 L 135.5 132.5 L 135.0 132.5 L 135.0 132.5 L 137.0 132.0 L 141.0 130.5 L 146.0 128.5 L 153.0 127.0 L 160.0 126.0 L 166.0 126.0 L 168.0 127.0 L 167.5 127.5 L 166.5 127.5 L 166.0 128.0 L 166.0 128.5 L 165.5 129.5 L 164.5 131.5 L 164.0 133.5 L 163.0 135.5 L 162.5 137.5 L 162.0 138.5 L 162.0 139.0 " stroke="black" fill="none" stroke-width="7.0" stroke-linecap="round" stroke-linejoin="round" />
<path d="M 137.5 144.0 L 137.0 144.0 L 136.5 144.0 L 136.0 144.0 L 137.0 144.0 L 140.0 143.5 L 145.0 143.0 L 152.0 142.5 L 159.5 142.5 L 162.5 142.5 " stroke="black" fill="none" stroke-width="7.0" stroke-linecap="round" stroke-linejoin="round" />
<path d="M 138.0 153.5 L 138.0 153.5 L 137.5 153.0 L 137.5 153.0 L 137.5 152.5 L 138.5 152.5 L 140.5 153.0 L 143.0 153.5 L 144.5 154.0 " stroke="black" fill="none" stroke-width="7.0" stroke-linecap="round" stroke-linejoin="round" />
<path d="M 160.0 150.0 L 160.0 150.0 L 160.0 150.0 L 160.0 150.0 L 160.0 150.5 L 159.5 151.5 L 159.0 153.0 L 158.5 154.5 " stroke="black" fill="none" stroke-width="7.0" stroke-linecap="round" stroke-linejoin="round" />
<path d="M 124.5 164.5 L 124.0 164.5 L 124.0 164.5 L 126.0 164.5 L 133.0 164.0 L 144.5 163.0 L 157.5 162.0 L 169.0 161.0 L 174.5 160.5 L 176.5 160.5 L 176.0 160.5 L 174.5 161.5 L 173.5 162.0 " stroke="black" fill="none" stroke-width="7.0" stroke-linecap="round" stroke-linejoin="round" />
<path d="M 132.0 171.0 L 132.5 171.0 L 132.5 171.0 L 133.0 171.5 L 133.0 174.5 L 132.0 180.0 L 129.0 187.5 L 126.5 193.0 L 125.5 194.0 L 125.5 193.0 " stroke="black" fill="none" stroke-width="7.0" stroke-linecap="round" stroke-linejoin="round" />
<path d="M 126.5 178.5 L 125.5 178.5 L 125.5 178.0 L 128.5 177.5 L 132.0 177.0 L 136.0 177.0 L 140.0 177.0 L 142.5 176.0 L 144.0 175.5 L 144.0 175.5 L 144.0 175.5 L 144.5 175.5 L 144.5 175.5 L 145.0 175.5 L 145.0 176.0 L 145.0 176.0 L 145.5 176.5 L 145.5 176.5 L 145.5 177.0 L 145.5 177.5 L 145.5 178.0 L 145.5 179.0 L 145.5 180.5 L 145.5 182.0 L 145.5 184.0 L 145.0 186.0 L 144.5 188.5 L 144.0 190.5 L 143.0 192.0 L 142.0 192.0 L 141.0 191.0 " stroke="black" fill="none" stroke-width="7.0" stroke-linecap="round" stroke-linejoin="round" />
<path d="M 156.5 174.5 L 157.0 174.5 L 157.0 175.0 L 157.5 176.5 L 158.0 180.5 L 158.5 186.0 L 160.0 189.5 L 160.0 190.0 L 159.5 188.5 L 159.5 187.5 " stroke="black" fill="none" stroke-width="7.0" stroke-linecap="round" stroke-linejoin="round" />
<path d="M 160.0 176.5 L 159.5 176.5 L 158.5 177.0 L 158.0 177.0 L 158.0 177.0 L 160.0 176.5 L 162.5 176.0 L 165.5 175.5 L 168.5 175.0 L 172.0 174.5 L 175.0 174.5 L 176.5 174.5 L 177.5 175.0 L 177.5 175.0 L 177.5 175.5 L 177.5 175.5 L 177.5 176.0 L 177.5 176.0 L 177.0 177.0 L 176.5 178.0 L 176.0 179.5 L 175.0 182.0 L 174.5 184.5 L 174.0 186.5 L 174.0 187.5 L 174.0 188.0 L 174.0 188.0 " stroke="black" fill="none" stroke-width="7.0" stroke-linecap="round" stroke-linejoin="round" />
<path d="M 162.0 190.5 L 161.0 190.5 L 160.5 191.0 L 160.5 191.0 L 163.5 191.0 L 167.0 190.5 L 171.0 190.0 L 175.0 189.5 L 177.0 189.5 " stroke="black" fill="none" stroke-width="7.0" stroke-linecap="round" stroke-linejoin="round" />
</svg>