<svg xmlns="http://www.w3.org/2000/svg" width="300" height="300" viewBox="0 0 300 300">
<path d="M 119.0 101.5 L 119.5 100.0 L 120.5 99.5 L 121.0 100.5 L 122.0 107.0 L 122.0 124.5 L 120.0 153.0 L 118.5 172.5 L 117.5 179.5 L 118.5 178.5 L 119.5 175.5 " stroke="black" fill="none" stroke-width="9.0" stroke-linecap="round" stroke-linejoin="round" />
<path d="M 124.5 100.5 L 123.5 98.0 L 123.5 97.0 L 124.5 96.0 L 128.0 95.0 L 134.0 94.0 L 144.0 94.0 L 156.0 94.5 L 168.5 95.5 L 181.0 95.5 L 189.5 95.5 L 192.0 96.0 L 192.5 97.0 L 192.5 97.0 L 192.0 97.0 L 192.0 98.0 L 192.0 99.0 L 192.0 100.0 L 192.5 103.0 L 192.5 106.5 L 192.5 111.5 L 192.5 120.5 L 192.5 132.5 L 192.5 146.5 L 192.5 160.0 L 193.0 171.0 L 193.0 178.0 L 192.5 184.0 L 191.5 189.0 L 191.5 190.5 L 191.5 190.5 L 191.5 190.5 L 191.5 190.5 L 191.5 190.5 L 191.5 190.5 L 191.5 190.5 L 191.5 190.5 L 191.5 190.5 L 191.5 190.5 L 191.5 190.5 L 191.5 190.5 L 191.5 190.5 L 191.5 190.5 L 191.5 190.5 L 191.5 190.5 L 191.5 190.5 L 191.5 190.5 L 191.5 190.5 L 191.5 190.5 L 191.5 190.5 L 191.5 190.5 L 191.5 190.5 L 191.5 190.5 L 191.5 190.5 L 191.5 190.5 L 191.5 190.5 " stroke="black" fill="none" stroke-width="9.0" stroke-linecap="round" stroke-linejoin="round" />
<path d="M 141.0 123.0 L 140.5 123.0 L 140.0 122.5 L 140.5 122.5 L 145.5 123.5 L 155.0 124.0 L 167.5 123.5 L 176.0 122.5 L 179.5 123.0 " stroke="black" fill="none" stroke-width="9.0" stroke-linecap="round" stroke-linejoin="round" />
<path d="M 160.0 110.0 L 160.0 110.0 L 160.0 110.0 L 160.0 110.0 L 160.0 111.5 L 160.0 118.0 L 157.0 131.5 L 150.5 148.5 L 145.5 158.5 L 143.5 161.5 L 143.5 160.5 L 144.0 158.5 " stroke="black" fill="none" stroke-width="9.0" stroke-linecap="round" stroke-linejoin="round" />
<path d="M 163.0 140.5 L 162.0 140.0 L 162.0 139.5 L 162.5 140.5 L 165.5 145.0 L 169.0 154.0 L 173.0 163.5 L 176.5 167.0 L 177.5 166.5 " stroke="black" fill="none" stroke-width="9.0" stroke-linecap="round" stroke-linejoin="round" />
<path d="M 118.0 193.5 L 118.5 193.5 L 119.5 193.5 L 123.5 193.5 L 133.5 193.5 L 150.5 193.5 L 167.5 192.0 L 181.0 191.0 L 191.5 191.0 L 193.0 191.0 " stroke="black" fill="none" stroke-width="9.0" stroke-linecap="round" stroke-linejoin="round" />
</svg>