<svg xmlns="http://www.w3.org/2000/svg" width="300" height="300" viewBox="0 0 300 300">
<path d="M 116.66666666666667 105.55555555555556 L 116.66666666666667 105.55555555555556 L 116.66666666666667 106.11111111111111 L 116.66666666666667 106.11111111111111 L 116.66666666666667 108.33333333333333 L 117.22222222222221 117.22222222222221 L 118.33333333333333 136.11111111111111 L 118.8888888888889 154.44444444444446 L 119.44444444444444 165.00000000000003 L 119.44444444444444 169.44444444444446 L 120.55555555555556 169.44444444444446 L 120.55555555555556 168.8888888888889 " stroke="black" fill="none" stroke-width="7.0" stroke-linecap="round" stroke-linejoin="round" />
<path d="M 120.55555555555556 103.88888888888889 L 119.44444444444444 104.44444444444444 L 118.33333333333333 105.0 L 118.33333333333333 105.0 L 118.33333333333333 105.0 L 121.1111111111111 105.0 L 125.00000000000001 105.55555555555556 L 130.55555555555557 105.55555555555556 L 139.44444444444446 105.55555555555556 L 151.11111111111111 104.44444444444444 L 163.33333333333334 102.77777777777777 L 170.55555555555557 101.66666666666667 L 174.44444444444446 101.66666666666667 L 176.11111111111114 101.66666666666667 L 176.11111111111114 101.66666666666667 L 176.11111111111114 101.66666666666667 L 176.11111111111114 101.66666666666667 L 176.11111111111114 101.66666666666667 L 176.11111111111114 101.66666666666667 L 176.11111111111114 102.22222222222223 L 176.11111111111114 102.22222222222223 L 176.11111111111114 103.33333333333333 L 176.11111111111114 104.44444444444444 L 176.11111111111114 105.55555555555556 L 176.11111111111114 107.77777777777779 L 176.66666666666669 110.55555555555556 L 176.66666666666669 115.55555555555556 L 176.66666666666669 123.33333333333333 L 176.66666666666669 132.22222222222223 L 176.66666666666669 143.33333333333334 L 176.11111111111114 155.00000000000003 L 175.55555555555557 165.00000000000003 L 175.55555555555557 171.11111111111114 L 175.55555555555557 172.7777777777778 L 175.55555555555557 172.7777777777778 L 175.55555555555557 171.66666666666669 L 175.55555555555557 170.55555555555557 " stroke="black" fill="none" stroke-width="7.0" stroke-linecap="round" stroke-linejoin="round" />
<path d="M 133.33333333333334 127.77777777777779 L 132.7777777777778 128.33333333333334 L 131.66666666666669 128.8888888888889 L 131.66666666666669 128.8888888888889 L 132.7777777777778 128.8888888888889 L 137.22222222222223 128.8888888888889 L 143.8888888888889 129.44444444444446 L 150.55555555555557 129.44444444444446 L 156.11111111111111 128.33333333333334 L 157.22222222222223 127.22222222222221 " stroke="black" fill="none" stroke-width="7.0" stroke-linecap="round" stroke-linejoin="round" />
<path d="M 146.66666666666669 116.1111111111111 L 146.11111111111111 116.1111111111111 L 145.55555555555557 116.1111111111111 L 145.55555555555557 116.66666666666667 L 145.55555555555557 117.77777777777779 L 145.55555555555557 120.55555555555556 L 146.11111111111111 126.66666666666667 L 146.11111111111111 137.22222222222223 L 145.55555555555557 150.55555555555557 L 145.55555555555557 158.8888888888889 L 145.55555555555557 161.66666666666669 L 145.55555555555557 162.22222222222223 L 145.55555555555557 161.66666666666669 " stroke="black" fill="none" stroke-width="7.0" stroke-linecap="round" stroke-linejoin="round" />
<path d="M 143.33333333333334 135.00000000000003 L 143.33333333333334 135.00000000000003 L 143.33333333333334 135.00000000000003 L 143.33333333333334 135.00000000000003 L 143.33333333333334 134.44444444444446 L 142.22222222222223 136.66666666666669 L 138.8888888888889 143.33333333333334 L 133.33333333333334 152.7777777777778 L 128.8888888888889 157.22222222222223 L 128.33333333333334 157.22222222222223 L 128.33333333333334 156.11111111111111 " stroke="black" fill="none" stroke-width="7.0" stroke-linecap="round" stroke-linejoin="round" />
<path d="M 146.11111111111111 142.22222222222223 L 145.00000000000003 141.11111111111111 L 145.00000000000003 140.00000000000003 L 146.11111111111111 139.44444444444446 L 147.7777777777778 138.8888888888889 L 150.55555555555557 139.44444444444446 L 153.8888888888889 142.22222222222223 L 157.7777777777778 146.11111111111111 L 161.66666666666669 150.00000000000003 L 164.44444444444446 152.22222222222223 L 165.00000000000003 152.22222222222223 " stroke="black" fill="none" stroke-width="7.0" stroke-linecap="round" stroke-linejoin="round" />
<path d="M 123.8888888888889 179.44444444444446 L 123.8888888888889 179.44444444444446 L 123.33333333333333 179.44444444444446 L 123.33333333333333 179.44444444444446 L 123.33333333333333 179.44444444444446 L 124.44444444444444 179.44444444444446 L 128.33333333333334 179.44444444444446 L 136.11111111111111 180.00000000000003 L 146.11111111111111 181.11111111111114 L 157.22222222222223 181.11111111111114 L 168.8888888888889 180.55555555555557 L 176.66666666666669 178.8888888888889 " stroke="black" fill="none" stroke-width="7.0" stroke-linecap="round" stroke-linejoin="round" />
</svg>