<svg xmlns="http://www.w3.org/2000/svg" width="300" height="300" viewBox="0 0 300 300">
<path d="M 105.5 111.0 L 105.0 111.0 L 104.0 111.5 L 104.0 111.5 L 104.5 113.5 L 105.5 122.0 L 106.5 142.5 L 107.5 166.5 L 108.0 181.0 L 108.0 186.5 L 109.0 185.5 L 109.0 185.0 " stroke="black" fill="none" stroke-width="9.0" stroke-linecap="round" stroke-linejoin="round" />
<path d="M 108.5 113.5 L 108.0 113.5 L 107.0 113.5 L 107.0 114.0 L 108.0 114.0 L 113.0 113.5 L 123.0 112.0 L 140.0 110.0 L 173.0 109.0 L 184.5 109.0 L 191.5 109.5 L 194.5 109.5 L 194.5 111.0 L 194.0 113.5 L 193.0 118.5 L 192.0 127.0 L 190.5 139.0 L 189.0 154.0 L 188.0 167.0 L 187.0 173.5 L 186.5 175.5 L 186.0 175.0 L 185.5 173.5 " stroke="black" fill="none" stroke-width="9.0" stroke-linecap="round" stroke-linejoin="round" />
<path d="M 134.5 117.0 L 134.5 116.5 L 135.5 116.0 L 136.0 116.0 L 136.0 116.0 L 136.5 117.5 L 136.5 122.0 L 136.0 130.5 L 132.5 142.5 L 128.5 150.5 L 126.5 153.0 L 126.5 150.5 " stroke="black" fill="none" stroke-width="9.0" stroke-linecap="round" stroke-linejoin="round" />
<path d="M 157.0 115.0 L 157.5 115.0 L 158.0 115.0 L 158.0 115.0 L 158.0 116.5 L 157.5 122.5 L 155.5 134.0 L 153.5 146.0 L 154.0 152.0 L 157.0 153.5 L 163.0 152.5 L 169.0 150.0 L 173.5 147.5 L 174.0 147.5 L 174.0 148.0 L 173.5 149.0 " stroke="black" fill="none" stroke-width="9.0" stroke-linecap="round" stroke-linejoin="round" />
<path d="M 116.0 190.5 L 116.0 190.5 L 116.0 190.0 L 116.0 189.5 L 116.0 189.5 L 117.5 189.0 L 125.0 188.0 L 141.0 186.5 L 160.0 185.5 L 176.0 185.0 L 186.5 185.0 L 191.0 185.0 L 191.5 185.0 " stroke="black" fill="none" stroke-width="9.0" stroke-linecap="round" stroke-linejoin="round" />
</svg>