<svg xmlns="http://www.w3.org/2000/svg" width="300" height="300" viewBox="0 0 300 300">
<path d="M 144.5 96.5 L 144.0 96.0 L 143.0 96.0 L 143.0 96.0 L 143.5 98.0 L 144.5 102.0 L 145.5 105.5 L 146.0 108.0 L 146.5 110.0 L 146.5 110.0 " stroke="black" fill="none" stroke-width="7.0" stroke-linecap="round" stroke-linejoin="round" />
<path d="M 128.0 107.5 L 127.0 107.5 L 126.5 108.0 L 127.0 109.0 L 128.5 111.0 L 131.0 112.5 L 134.0 113.0 " stroke="black" fill="none" stroke-width="7.0" stroke-linecap="round" stroke-linejoin="round" />
<path d="M 171.5 100.5 L 171.5 100.0 L 170.0 100.0 L 169.5 100.0 L 168.0 101.5 L 166.5 104.5 L 165.0 107.5 L 165.0 109.5 " stroke="black" fill="none" stroke-width="7.0" stroke-linecap="round" stroke-linejoin="round" />
<path d="M 126.5 122.5 L 125.5 122.5 L 124.5 122.5 L 123.0 123.5 L 120.5 128.5 L 119.0 133.0 L 118.5 135.0 L 119.0 135.0 " stroke="black" fill="none" stroke-width="7.0" stroke-linecap="round" stroke-linejoin="round" />
<path d="M 127.5 123.5 L 126.5 123.0 L 126.5 122.5 L 128.0 122.0 L 132.0 121.5 L 153.5 118.0 L 169.0 115.0 L 179.5 115.0 L 185.0 116.5 L 187.5 118.5 L 187.5 119.5 L 187.5 119.5 L 186.5 119.5 L 184.5 121.0 L 180.5 125.0 L 176.5 129.0 L 174.5 131.5 L 174.5 132.0 " stroke="black" fill="none" stroke-width="7.0" stroke-linecap="round" stroke-linejoin="round" />
<path d="M 137.5 131.0 L 137.5 131.0 L 137.0 131.0 L 136.5 131.5 L 136.5 133.0 L 136.5 136.0 L 137.0 138.5 L 138.0 139.5 " stroke="black" fill="none" stroke-width="7.0" stroke-linecap="round" stroke-linejoin="round" />
<path d="M 140.0 132.0 L 139.5 132.0 L 139.0 132.5 L 139.0 132.5 L 141.0 130.5 L 144.5 129.0 L 148.0 127.0 L 151.5 126.0 L 154.0 126.0 L 155.0 126.0 L 155.0 127.5 L 155.0 129.0 L 155.0 131.5 L 154.5 133.5 L 154.0 135.0 L 153.0 136.0 L 152.0 137.0 " stroke="black" fill="none" stroke-width="7.0" stroke-linecap="round" stroke-linejoin="round" />
<path d="M 142.5 142.5 L 142.0 142.0 L 142.0 141.5 L 143.0 141.0 L 146.0 140.5 L 148.5 140.0 L 151.0 140.0 L 151.0 140.0 " stroke="black" fill="none" stroke-width="7.0" stroke-linecap="round" stroke-linejoin="round" />
<path d="M 134.0 149.5 L 134.0 149.5 L 134.0 150.0 L 134.0 150.0 L 135.5 150.0 L 140.5 149.5 L 148.0 147.5 L 155.0 145.5 L 159.5 145.5 " stroke="black" fill="none" stroke-width="7.0" stroke-linecap="round" stroke-linejoin="round" />
<path d="M 127.5 144.0 L 127.5 144.0 L 128.0 143.5 L 128.0 143.0 L 128.0 143.0 L 128.0 143.5 L 128.0 146.0 L 128.0 149.5 L 128.0 154.0 L 128.0 158.5 L 128.0 161.5 L 129.0 162.0 L 131.5 161.5 L 136.5 161.0 L 144.0 160.5 L 152.0 160.0 L 162.5 159.5 L 170.5 158.0 L 174.0 157.5 L 174.5 157.5 L 173.0 158.5 L 172.0 159.0 " stroke="black" fill="none" stroke-width="7.0" stroke-linecap="round" stroke-linejoin="round" />
<path d="M 132.0 173.0 L 132.0 173.0 L 132.0 173.0 L 132.5 173.5 L 132.5 174.0 L 132.5 177.5 L 133.0 184.0 L 134.0 189.0 L 134.5 191.0 L 135.5 191.0 " stroke="black" fill="none" stroke-width="7.0" stroke-linecap="round" stroke-linejoin="round" />
<path d="M 133.0 173.0 L 132.0 173.0 L 131.5 173.0 L 133.0 173.0 L 138.0 172.5 L 145.5 171.5 L 154.5 170.0 L 162.5 169.0 L 167.5 169.0 L 169.5 169.0 L 169.5 169.5 L 169.0 169.5 L 168.5 169.5 L 168.5 169.5 L 168.5 169.5 L 168.5 169.5 L 168.5 169.5 L 168.5 169.5 L 168.5 169.5 L 168.5 170.0 L 168.5 171.5 L 168.5 175.0 L 168.5 180.5 L 168.5 186.5 L 168.5 189.5 L 168.0 190.5 L 167.5 192.0 L 167.0 194.0 L 167.0 194.5 " stroke="black" fill="none" stroke-width="7.0" stroke-linecap="round" stroke-linejoin="round" />
<path d="M 138.5 188.5 L 138.5 188.0 L 138.0 187.0 L 137.5 187.0 L 139.5 186.5 L 144.0 185.5 L 150.0 185.0 L 157.5 184.0 L 164.0 184.0 L 167.5 184.0 L 168.0 184.0 " stroke="black" fill="none" stroke-width="7.0" stroke-linecap="round" stroke-linejoin="round" />
<path d="M 141.0 198.5 L 139.5 200.0 L 138.5 200.5 L 140.0 200.5 L 144.5 199.5 L 152.0 198.0 L 161.5 196.5 L 168.0 196.5 " stroke="black" fill="none" stroke-width="7.0" stroke-linecap="round" stroke-linejoin="round" />
</svg>