<svg xmlns="http://www.w3.org/2000/svg" width="300" height="300" viewBox="0 0 300 300">
<path d="M 85.0 89.5 L 87.0 89.5 L 90.5 89.5 L 97.5 89.5 L 112.0 89.5 L 132.0 87.5 L 154.0 85.0 L 172.0 83.5 L 186.5 83.5 L 196.5 83.5 L 202.0 83.0 L 203.0 83.0 L 201.0 83.0 L 199.5 83.0 " stroke="black" fill="none" stroke-width="10.0" stroke-linecap="round" stroke-linejoin="round" />
<path d="M 78.0 119.5 L 79.0 119.0 L 82.5 118.5 L 90.0 118.0 L 103.5 117.5 L 121.0 117.5 L 139.5 117.5 L 156.5 117.5 L 172.5 118.0 L 188.0 118.5 L 200.5 119.0 L 211.0 119.0 L 218.0 119.5 L 221.0 120.0 L 221.0 120.5 L 219.0 121.0 " stroke="black" fill="none" stroke-width="10.0" stroke-linecap="round" stroke-linejoin="round" />
<path d="M 82.5 159.0 L 82.0 159.5 L 81.5 159.5 L 82.5 159.5 L 90.5 159.5 L 102.5 159.0 L 114.0 157.5 L 122.0 156.5 L 124.0 156.0 " stroke="black" fill="none" stroke-width="10.0" stroke-linecap="round" stroke-linejoin="round" />
<path d="M 104.5 143.5 L 104.5 143.5 L 104.0 143.5 L 103.5 143.5 L 103.5 144.5 L 104.0 149.5 L 106.0 161.5 L 106.5 174.0 L 107.0 180.0 L 108.5 180.5 " stroke="black" fill="none" stroke-width="10.0" stroke-linecap="round" stroke-linejoin="round" />
<path d="M 172.0 159.0 L 171.5 159.5 L 171.0 159.5 L 172.0 159.5 L 178.0 160.0 L 187.5 160.0 L 196.0 160.0 L 200.0 159.0 L 202.0 158.0 L 202.0 157.5 " stroke="black" fill="none" stroke-width="10.0" stroke-linecap="round" stroke-linejoin="round" />
<path d="M 188.5 145.0 L 186.0 145.0 L 185.0 145.5 L 185.0 148.0 L 185.0 154.0 L 185.5 163.0 L 185.5 171.5 L 186.0 175.0 L 187.0 175.5 L 187.0 175.5 " stroke="black" fill="none" stroke-width="10.0" stroke-linecap="round" stroke-linejoin="round" />
<path d="M 96.5 203.0 L 96.5 203.0 L 96.0 203.0 L 96.5 203.0 L 101.5 203.0 L 112.5 202.0 L 130.5 200.5 L 150.0 199.5 L 169.0 198.5 L 186.0 198.0 L 197.0 198.0 L 201.5 199.5 L 202.5 200.5 L 202.5 200.5 L 202.5 200.5 L 201.5 199.0 L 200.5 198.0 " stroke="black" fill="none" stroke-width="10.0" stroke-linecap="round" stroke-linejoin="round" />
<path d="M 149.0 85.5 L 148.5 85.5 L 148.0 86.0 L 147.5 87.5 L 147.5 91.0 L 148.5 98.0 L 149.5 107.0 L 150.0 117.5 L 150.0 129.5 L 150.0 140.5 L 150.0 150.5 L 150.5 159.5 L 151.0 167.5 L 151.5 174.0 L 151.5 180.0 L 151.5 186.5 L 151.5 192.0 L 151.5 197.5 L 152.0 202.5 L 152.0 207.5 L 152.0 211.5 L 152.0 214.5 L 152.0 216.0 L 151.5 217.5 L 151.5 218.5 L 151.5 220.0 L 151.5 222.0 L 151.5 223.5 L 151.5 224.5 L 152.0 226.0 L 152.0 227.5 L 152.0 229.0 L 152.5 230.0 L 152.5 231.0 L 152.5 232.0 L 152.5 233.0 L 153.0 233.5 L 153.0 233.5 L 153.0 233.5 L 153.0 233.5 L 153.0 233.5 " stroke="black" fill="none" stroke-width="10.0" stroke-linecap="round" stroke-linejoin="round" />
<path d="M 74.5 243.0 L 74.5 242.5 L 75.0 242.5 L 75.0 242.0 L 75.5 242.0 L 76.5 242.0 L 78.5 242.0 L 81.0 242.0 L 84.0 242.5 L 88.0 243.0 L 94.0 243.0 L 102.0 243.0 L 111.5 243.0 L 121.5 242.5 L 131.5 241.5 L 141.0 241.0 L 148.5 241.0 L 155.5 241.0 L 162.0 241.0 L 167.5 241.5 L 172.0 241.5 L 176.5 242.0 L 181.5 242.0 L 187.0 242.0 L 192.5 242.0 L 199.0 242.0 L 204.0 241.5 L 207.5 241.5 L 210.5 241.5 L 213.0 241.5 L 215.0 242.0 L 217.0 242.5 L 219.5 242.5 L 221.5 242.5 L 223.5 242.5 L 225.5 242.5 L 227.0 243.0 L 228.5 243.0 L 229.0 243.0 L 229.0 243.0 L 229.0 243.0 L 229.0 243.0 L 229.0 243.0 L 229.0 243.0 L 229.0 243.0 L 229.0 243.0 L 228.5 243.0 L 228.5 243.0 L 228.5 243.0 L 228.5 243.0 L 228.5 243.0 L 228.5 243.0 L 228.5 243.0 L 228.5 243.0 " stroke="black" fill="none" stroke-width="10.0" stroke-linecap="round" stroke-linejoin="round" />
</svg>