<svg xmlns="http://www.w3.org/2000/svg" width="300" height="300" viewBox="0 0 300 300">
<path d="M 127.0 116.5 L 127.0 116.5 L 126.0 116.5 L 125.0 116.5 L 125.0 116.5 L 124.5 116.5 L 124.5 116.5 L 124.5 116.5 L 124.5 116.5 L 127.0 116.5 L 130.5 116.5 L 134.0 116.5 L 137.5 116.0 L 140.0 116.0 L 141.0 116.0 " stroke="black" fill="none" stroke-width="8.0" stroke-linecap="round" stroke-linejoin="round" />
<path d="M 132.5 105.0 L 132.5 105.0 L 132.5 105.0 L 132.5 105.0 L 132.5 106.0 L 133.0 109.5 L 133.5 116.5 L 134.0 123.5 L 134.0 126.5 L 134.5 126.5 " stroke="black" fill="none" stroke-width="8.0" stroke-linecap="round" stroke-linejoin="round" />
<path d="M 121.5 132.5 L 120.0 133.5 L 119.0 134.5 L 119.0 134.5 L 120.0 134.5 L 124.0 134.5 L 129.0 134.0 L 134.0 133.5 L 138.0 132.5 L 141.0 131.5 L 144.0 130.5 L 144.5 130.5 " stroke="black" fill="none" stroke-width="8.0" stroke-linecap="round" stroke-linejoin="round" />
<path d="M 125.5 145.5 L 125.0 145.5 L 123.0 145.5 L 122.0 145.5 L 121.5 145.5 L 122.5 146.0 L 125.0 147.5 L 128.5 148.5 L 131.5 149.0 L 134.0 149.0 " stroke="black" fill="none" stroke-width="8.0" stroke-linecap="round" stroke-linejoin="round" />
<path d="M 142.5 141.5 L 142.5 141.5 L 142.0 141.0 L 141.5 141.0 L 141.0 141.0 L 141.0 142.5 L 140.5 144.5 L 139.5 147.0 L 138.5 149.5 L 137.5 151.0 " stroke="black" fill="none" stroke-width="8.0" stroke-linecap="round" stroke-linejoin="round" />
<path d="M 126.0 160.0 L 125.5 160.0 L 124.5 160.5 L 123.5 160.5 L 123.0 161.0 L 123.5 161.0 L 126.0 161.0 L 131.0 159.5 L 136.5 158.0 L 141.0 156.5 L 144.0 155.5 L 145.0 155.0 L 145.0 155.0 " stroke="black" fill="none" stroke-width="8.0" stroke-linecap="round" stroke-linejoin="round" />
<path d="M 120.5 175.5 L 120.5 176.0 L 120.5 176.5 L 121.5 177.0 L 123.5 176.5 L 128.0 175.0 L 133.5 172.5 L 139.0 170.5 L 143.0 169.5 L 145.0 168.5 L 145.5 168.5 " stroke="black" fill="none" stroke-width="8.0" stroke-linecap="round" stroke-linejoin="round" />
<path d="M 133.0 166.0 L 133.0 165.5 L 133.5 165.0 L 133.5 165.0 L 133.5 167.0 L 133.5 171.5 L 133.5 180.0 L 133.0 190.5 L 132.5 197.0 L 132.5 198.5 L 132.5 197.0 " stroke="black" fill="none" stroke-width="8.0" stroke-linecap="round" stroke-linejoin="round" />
<path d="M 161.5 111.0 L 161.5 110.5 L 161.5 109.0 L 161.5 108.5 L 161.5 108.5 L 161.5 108.5 L 161.5 109.0 L 161.5 112.0 L 161.5 118.5 L 161.5 132.5 L 159.5 154.0 L 156.5 170.0 L 155.0 179.0 L 154.0 182.5 L 154.0 182.5 L 153.5 179.5 " stroke="black" fill="none" stroke-width="8.0" stroke-linecap="round" stroke-linejoin="round" />
<path d="M 152.0 129.0 L 152.0 129.0 L 151.5 129.0 L 151.5 129.0 L 151.5 129.0 L 152.5 129.0 L 156.5 127.0 L 162.5 124.5 L 169.0 122.5 L 173.5 121.5 L 175.5 122.5 L 176.0 125.0 L 176.0 129.0 L 176.0 135.5 L 175.5 144.5 L 175.0 153.5 L 174.0 163.5 L 173.5 172.5 L 173.0 179.5 L 174.0 185.5 L 176.0 189.0 L 178.5 190.5 L 181.5 190.5 L 184.5 189.5 L 187.0 187.0 L 189.0 182.5 L 190.0 177.5 " stroke="black" fill="none" stroke-width="8.0" stroke-linecap="round" stroke-linejoin="round" />
<path d="M 156.5 147.0 L 156.5 147.5 L 156.5 148.0 L 156.5 148.0 L 157.5 148.5 L 160.0 150.5 L 164.5 155.5 L 169.0 161.5 L 172.0 164.5 L 172.5 165.0 L 172.5 165.0 " stroke="black" fill="none" stroke-width="8.0" stroke-linecap="round" stroke-linejoin="round" />
</svg>