<svg xmlns="http://www.w3.org/2000/svg" width="300" height="300" viewBox="0 0 300 300">
<path d="M 60.0 128.0 L 59.0 128.0 L 57.0 128.0 L 55.0 127.0 L 53.0 127.0 L 53.0 127.0 L 55.0 127.0 L 62.0 128.0 L 74.0 130.0 L 88.0 131.0 L 104.0 132.0 L 115.0 132.0 L 120.0 131.0 L 120.0 130.0 L 119.0 129.0 L 116.0 128.0 L 116.0 128.0 " stroke="black" fill="none" stroke-width="8.0" stroke-linecap="round" stroke-linejoin="round" />
<path d="M 92.0 88.0 L 92.0 87.0 L 91.0 86.0 L 91.0 86.0 L 90.0 85.0 L 90.0 85.0 L 90.0 85.0 L 90.0 90.0 L 90.0 102.0 L 89.0 122.0 L 88.0 143.0 L 88.0 158.0 L 88.0 171.0 L 87.0 183.0 L 87.0 192.0 L 87.0 198.0 L 87.0 199.0 L 87.0 199.0 L 87.0 198.0 L 87.0 197.0 L 86.0 196.0 L 86.0 195.0 " stroke="black" fill="none" stroke-width="8.0" stroke-linecap="round" stroke-linejoin="round" />
<path d="M 66.0 215.0 L 65.0 215.0 L 63.0 216.0 L 62.0 217.0 L 62.0 217.0 L 62.0 215.0 L 67.0 212.0 L 74.0 207.0 L 85.0 200.0 L 97.0 194.0 L 108.0 188.0 L 112.0 186.0 L 112.0 186.0 L 111.0 186.0 " stroke="black" fill="none" stroke-width="8.0" stroke-linecap="round" stroke-linejoin="round" />
<path d="M 122.0 154.0 L 122.0 154.0 L 121.0 157.0 L 120.0 158.0 L 119.0 158.0 L 120.0 158.0 L 122.0 156.0 L 125.0 154.0 L 131.0 151.0 L 143.0 146.0 L 162.0 137.0 L 184.0 128.0 L 202.0 120.0 L 214.0 116.0 L 219.0 113.0 L 220.0 112.0 L 220.0 112.0 L 220.0 112.0 L 220.0 112.0 L 220.0 112.0 L 220.0 112.0 L 220.0 112.0 L 220.0 112.0 L 220.0 112.0 L 220.0 112.0 L 220.0 112.0 L 220.0 113.0 L 220.0 115.0 L 220.0 118.0 L 220.0 122.0 L 220.0 128.0 L 220.0 138.0 L 219.0 149.0 L 218.0 163.0 L 216.0 177.0 L 213.0 187.0 L 210.0 195.0 L 208.0 199.0 L 208.0 199.0 L 208.0 198.0 L 208.0 197.0 L 207.0 195.0 L 206.0 194.0 L 205.0 192.0 L 205.0 191.0 L 204.0 191.0 " stroke="black" fill="none" stroke-width="8.0" stroke-linecap="round" stroke-linejoin="round" />
<path d="M 185.0 82.0 L 185.0 82.0 L 184.0 82.0 L 184.0 81.0 L 183.0 81.0 L 183.0 81.0 L 183.0 84.0 L 183.0 94.0 L 183.0 118.0 L 181.0 149.0 L 179.0 174.0 L 178.0 189.0 L 178.0 195.0 L 179.0 198.0 L 179.0 199.0 L 180.0 199.0 " stroke="black" fill="none" stroke-width="8.0" stroke-linecap="round" stroke-linejoin="round" />
<path d="M 150.0 98.0 L 150.0 98.0 L 149.0 97.0 L 149.0 97.0 L 149.0 97.0 L 149.0 99.0 L 149.0 106.0 L 149.0 118.0 L 148.0 134.0 L 146.0 152.0 L 144.0 166.0 L 143.0 178.0 L 143.0 189.0 L 143.0 198.0 L 143.0 208.0 L 143.0 217.0 L 145.0 225.0 L 146.0 231.0 L 148.0 236.0 L 149.0 239.0 L 151.0 241.0 L 154.0 241.0 L 157.0 242.0 L 163.0 243.0 L 171.0 243.0 L 180.0 244.0 L 191.0 244.0 L 202.0 243.0 L 212.0 242.0 L 220.0 240.0 L 224.0 238.0 L 225.0 237.0 L 225.0 235.0 L 225.0 234.0 L 225.0 232.0 L 225.0 229.0 L 225.0 225.0 L 225.0 221.0 L 224.0 218.0 L 223.0 214.0 L 223.0 211.0 L 222.0 209.0 L 222.0 209.0 L 222.0 209.0 " stroke="black" fill="none" stroke-width="8.0" stroke-linecap="round" stroke-linejoin="round" />
</svg>