<svg xmlns="http://www.w3.org/2000/svg" width="300" height="300" viewBox="0 0 300 300">
<path d="M 140.00000000000003 94.44444444444444 L 139.44444444444446 94.44444444444444 L 138.33333333333334 94.44444444444444 L 138.33333333333334 94.44444444444444 L 140.00000000000003 96.11111111111111 L 143.33333333333334 98.88888888888889 L 145.55555555555557 100.55555555555556 L 146.66666666666669 101.11111111111111 " stroke="black" fill="none" stroke-width="7.0" stroke-linecap="round" stroke-linejoin="round" />
<path d="M 123.8888888888889 109.44444444444444 L 123.8888888888889 109.44444444444444 L 122.77777777777779 109.44444444444444 L 122.22222222222221 110.0 L 121.66666666666667 112.22222222222221 L 121.1111111111111 116.66666666666667 L 121.1111111111111 120.55555555555556 L 121.1111111111111 121.66666666666667 " stroke="black" fill="none" stroke-width="7.0" stroke-linecap="round" stroke-linejoin="round" />
<path d="M 121.66666666666667 112.22222222222221 L 120.00000000000001 112.22222222222221 L 119.44444444444444 112.77777777777779 L 120.55555555555556 112.77777777777779 L 123.33333333333333 111.66666666666667 L 128.33333333333334 110.55555555555556 L 135.55555555555557 109.44444444444444 L 145.55555555555557 108.33333333333333 L 156.11111111111111 107.77777777777779 L 166.66666666666669 106.66666666666667 L 173.33333333333334 106.11111111111111 L 176.11111111111114 106.11111111111111 L 177.22222222222223 106.66666666666667 L 177.22222222222223 106.66666666666667 L 177.22222222222223 106.66666666666667 L 177.22222222222223 107.77777777777779 L 177.22222222222223 109.44444444444444 L 176.66666666666669 112.77777777777779 L 176.11111111111114 117.22222222222221 L 174.44444444444446 122.22222222222221 L 173.8888888888889 125.55555555555556 L 173.8888888888889 126.1111111111111 " stroke="black" fill="none" stroke-width="7.0" stroke-linecap="round" stroke-linejoin="round" />
<path d="M 132.22222222222223 130.55555555555557 L 132.22222222222223 130.55555555555557 L 132.22222222222223 131.11111111111111 L 132.22222222222223 131.11111111111111 L 134.44444444444446 130.55555555555557 L 138.8888888888889 129.44444444444446 L 145.55555555555557 127.77777777777779 L 151.11111111111111 126.66666666666667 L 155.00000000000003 126.1111111111111 L 157.22222222222223 126.1111111111111 L 157.7777777777778 126.1111111111111 L 157.7777777777778 126.1111111111111 " stroke="black" fill="none" stroke-width="7.0" stroke-linecap="round" stroke-linejoin="round" />
<path d="M 131.66666666666669 141.11111111111111 L 131.66666666666669 141.11111111111111 L 132.22222222222223 141.11111111111111 L 132.22222222222223 141.11111111111111 L 132.7777777777778 141.11111111111111 L 135.00000000000003 140.55555555555557 L 141.11111111111111 139.44444444444446 L 150.55555555555557 137.7777777777778 L 157.7777777777778 137.22222222222223 L 161.11111111111111 136.66666666666669 L 161.11111111111111 136.66666666666669 L 161.11111111111111 136.11111111111111 " stroke="black" fill="none" stroke-width="7.0" stroke-linecap="round" stroke-linejoin="round" />
<path d="M 140.00000000000003 117.77777777777779 L 139.44444444444446 117.77777777777779 L 138.8888888888889 117.77777777777779 L 138.8888888888889 117.77777777777779 L 138.8888888888889 120.55555555555556 L 139.44444444444446 128.8888888888889 L 140.00000000000003 143.33333333333334 L 140.55555555555557 152.7777777777778 L 141.11111111111111 153.8888888888889 L 141.66666666666669 152.22222222222223 " stroke="black" fill="none" stroke-width="7.0" stroke-linecap="round" stroke-linejoin="round" />
<path d="M 150.55555555555557 119.44444444444444 L 150.55555555555557 119.44444444444444 L 150.00000000000003 118.8888888888889 L 149.44444444444446 118.8888888888889 L 149.44444444444446 119.44444444444444 L 150.00000000000003 123.33333333333333 L 151.11111111111111 132.7777777777778 L 151.66666666666669 144.44444444444446 L 152.22222222222223 150.55555555555557 L 152.22222222222223 151.66666666666669 " stroke="black" fill="none" stroke-width="7.0" stroke-linecap="round" stroke-linejoin="round" />
<path d="M 127.22222222222221 160.00000000000003 L 126.1111111111111 160.55555555555557 L 125.55555555555556 160.55555555555557 L 126.1111111111111 160.55555555555557 L 131.66666666666669 159.44444444444446 L 142.22222222222223 157.7777777777778 L 156.66666666666669 157.22222222222223 L 170.00000000000003 157.22222222222223 L 177.22222222222223 157.22222222222223 " stroke="black" fill="none" stroke-width="7.0" stroke-linecap="round" stroke-linejoin="round" />
<path d="M 142.22222222222223 164.44444444444446 L 142.22222222222223 164.44444444444446 L 141.66666666666669 163.33333333333334 L 141.66666666666669 162.22222222222223 L 141.66666666666669 162.22222222222223 L 141.66666666666669 162.22222222222223 L 138.33333333333334 166.11111111111114 L 130.55555555555557 173.8888888888889 L 121.1111111111111 182.22222222222223 L 117.22222222222221 185.55555555555557 L 118.33333333333333 183.33333333333334 L 118.8888888888889 182.22222222222223 " stroke="black" fill="none" stroke-width="7.0" stroke-linecap="round" stroke-linejoin="round" />
<path d="M 153.33333333333334 165.55555555555557 L 153.33333333333334 165.55555555555557 L 153.8888888888889 165.00000000000003 L 155.55555555555557 165.00000000000003 L 162.22222222222223 166.11111111111114 L 173.33333333333334 170.00000000000003 L 182.7777777777778 173.8888888888889 L 187.22222222222223 175.55555555555557 L 188.33333333333334 176.11111111111114 " stroke="black" fill="none" stroke-width="7.0" stroke-linecap="round" stroke-linejoin="round" />
<path d="M 139.44444444444446 182.7777777777778 L 138.8888888888889 182.7777777777778 L 138.33333333333334 183.33333333333334 L 138.33333333333334 183.33333333333334 L 142.7777777777778 183.33333333333334 L 148.33333333333334 183.33333333333334 L 153.8888888888889 182.22222222222223 L 157.22222222222223 181.11111111111114 " stroke="black" fill="none" stroke-width="7.0" stroke-linecap="round" stroke-linejoin="round" />
<path d="M 148.33333333333334 174.44444444444446 L 147.22222222222223 174.44444444444446 L 147.22222222222223 174.44444444444446 L 146.66666666666669 175.00000000000003 L 147.22222222222223 178.33333333333334 L 148.8888888888889 186.11111111111114 L 150.00000000000003 193.8888888888889 L 150.55555555555557 197.22222222222223 L 151.11111111111111 197.7777777777778 " stroke="black" fill="none" stroke-width="7.0" stroke-linecap="round" stroke-linejoin="round" />
<path d="M 133.33333333333334 203.33333333333334 L 133.33333333333334 203.8888888888889 L 133.33333333333334 204.44444444444446 L 135.00000000000003 204.44444444444446 L 140.55555555555557 203.8888888888889 L 152.22222222222223 201.66666666666669 L 166.66666666666669 199.44444444444446 L 177.7777777777778 198.33333333333334 L 182.22222222222223 198.33333333333334 " stroke="black" fill="none" stroke-width="7.0" stroke-linecap="round" stroke-linejoin="round" />
</svg>