<svg xmlns="http://www.w3.org/2000/svg" width="300" height="300" viewBox="0 0 300 300">
<path d="M 125.5 124.0 L 124.5 124.0 L 123.5 124.0 L 123.5 124.0 L 126.5 124.0 L 131.0 124.0 L 136.0 124.0 L 140.0 123.5 L 142.5 123.0 L 143.5 123.0 " stroke="black" fill="none" stroke-width="6.0" stroke-linecap="round" stroke-linejoin="round" />
<path d="M 136.0 112.0 L 136.0 112.0 L 136.0 112.0 L 136.0 112.0 L 136.0 113.0 L 136.0 116.5 L 136.0 123.5 L 135.0 130.0 L 134.0 134.0 L 133.0 135.0 L 132.5 135.0 " stroke="black" fill="none" stroke-width="6.0" stroke-linecap="round" stroke-linejoin="round" />
<path d="M 123.5 140.0 L 122.0 140.0 L 120.5 140.0 L 120.0 140.0 L 121.5 140.5 L 125.5 140.5 L 131.0 141.0 L 137.0 141.0 L 143.0 140.0 L 147.0 139.5 L 148.5 139.5 L 148.5 139.5 L 148.0 139.5 " stroke="black" fill="none" stroke-width="6.0" stroke-linecap="round" stroke-linejoin="round" />
<path d="M 124.0 151.0 L 122.5 151.0 L 121.5 151.0 L 121.5 151.5 L 123.0 152.5 L 125.0 154.0 L 127.5 155.0 L 130.0 155.5 L 130.5 155.5 " stroke="black" fill="none" stroke-width="6.0" stroke-linecap="round" stroke-linejoin="round" />
<path d="M 145.0 147.0 L 145.0 147.0 L 144.0 147.5 L 144.0 147.5 L 144.0 148.5 L 143.5 150.0 L 143.0 152.0 L 141.5 154.5 L 141.5 155.0 " stroke="black" fill="none" stroke-width="6.0" stroke-linecap="round" stroke-linejoin="round" />
<path d="M 125.0 165.5 L 124.0 165.5 L 123.0 165.5 L 123.5 165.0 L 126.0 165.0 L 130.5 164.5 L 136.0 164.0 L 140.5 164.0 L 143.0 164.0 L 144.0 164.0 " stroke="black" fill="none" stroke-width="6.0" stroke-linecap="round" stroke-linejoin="round" />
<path d="M 126.5 176.0 L 126.0 176.0 L 125.5 176.5 L 126.5 176.5 L 130.0 177.0 L 134.5 177.5 L 138.5 178.0 L 140.0 178.0 " stroke="black" fill="none" stroke-width="6.0" stroke-linecap="round" stroke-linejoin="round" />
<path d="M 133.0 168.5 L 133.0 168.5 L 133.5 168.5 L 134.0 168.0 L 134.5 168.0 L 135.0 169.0 L 135.5 174.5 L 135.5 185.5 L 135.0 197.5 L 134.5 202.0 L 134.5 202.0 L 134.5 199.0 " stroke="black" fill="none" stroke-width="6.0" stroke-linecap="round" stroke-linejoin="round" />
<path d="M 158.5 119.5 L 158.5 119.5 L 158.5 119.0 L 158.0 118.5 L 158.0 118.5 L 158.0 118.0 L 160.0 117.5 L 163.5 117.0 L 167.5 116.5 L 170.5 116.5 L 172.5 116.5 L 173.5 116.5 L 174.0 116.5 L 174.0 117.5 L 174.0 118.0 L 174.0 119.5 L 174.0 121.5 L 173.5 125.0 L 173.0 129.5 L 173.0 133.0 L 172.5 135.5 L 172.5 136.0 L 172.5 136.5 L 172.5 137.0 L 172.0 137.5 L 172.0 138.5 L 171.5 139.0 L 171.5 139.0 L 171.0 139.5 L 171.0 140.0 L 170.5 140.0 L 170.5 140.5 L 170.0 140.5 L 169.5 141.0 L 169.0 141.0 L 168.0 141.0 L 166.5 140.0 L 165.5 140.0 L 164.5 139.0 L 164.0 138.5 " stroke="black" fill="none" stroke-width="6.0" stroke-linecap="round" stroke-linejoin="round" />
<path d="M 158.0 121.0 L 158.0 120.5 L 157.5 120.0 L 157.5 119.5 L 157.0 120.0 L 157.0 123.0 L 157.5 128.5 L 157.5 137.5 L 157.0 147.5 L 156.0 156.5 L 156.0 165.5 L 156.0 173.0 L 156.0 179.5 L 156.0 184.5 L 156.0 186.5 L 156.0 187.5 L 156.0 187.0 L 156.0 184.5 " stroke="black" fill="none" stroke-width="6.0" stroke-linecap="round" stroke-linejoin="round" />
<path d="M 164.5 153.0 L 163.0 154.0 L 162.5 154.5 L 163.0 154.5 L 166.0 153.5 L 169.0 152.5 L 172.0 152.0 L 174.5 152.0 L 175.5 152.0 L 176.5 152.0 L 176.5 153.0 L 176.5 155.5 L 176.0 159.5 L 174.5 165.0 L 173.0 171.0 L 170.5 178.0 L 168.5 184.0 L 166.5 187.0 L 166.0 189.0 L 165.5 189.0 L 165.5 187.0 " stroke="black" fill="none" stroke-width="6.0" stroke-linecap="round" stroke-linejoin="round" />
<path d="M 167.5 167.5 L 167.0 167.5 L 167.0 167.5 L 167.5 167.5 L 170.5 169.5 L 176.0 174.0 L 183.5 181.0 L 190.5 187.0 L 193.0 188.5 L 193.0 188.5 " stroke="black" fill="none" stroke-width="6.0" stroke-linecap="round" stroke-linejoin="round" />
</svg>