<svg xmlns="http://www.w3.org/2000/svg" width="300" height="300" viewBox="0 0 300 300">
<path d="M 144.0 103.5 L 142.5 103.5 L 141.5 103.5 L 141.5 103.5 L 144.5 105.0 L 149.0 108.0 L 153.5 110.0 L 157.0 112.0 L 158.0 112.5 " stroke="black" fill="none" stroke-width="6.0" stroke-linecap="round" stroke-linejoin="round" />
<path d="M 125.5 122.5 L 125.5 122.5 L 125.0 122.0 L 125.0 121.5 L 128.0 121.5 L 134.5 121.0 L 145.0 120.5 L 156.5 119.0 L 166.5 117.5 L 172.0 117.5 L 173.0 118.0 L 172.5 118.0 L 172.0 118.0 L 171.5 118.0 " stroke="black" fill="none" stroke-width="6.0" stroke-linecap="round" stroke-linejoin="round" />
<path d="M 123.5 126.0 L 123.0 125.5 L 123.0 124.5 L 122.5 124.0 L 122.5 123.5 L 122.5 124.0 L 123.5 126.5 L 124.0 131.5 L 124.0 139.5 L 123.0 150.5 L 122.0 162.0 L 120.5 172.5 L 118.0 182.0 L 114.0 192.5 L 111.0 200.5 L 110.0 202.0 L 110.0 201.5 L 110.0 198.5 L 110.0 197.5 " stroke="black" fill="none" stroke-width="6.0" stroke-linecap="round" stroke-linejoin="round" />
<path d="M 135.0 137.0 L 135.0 138.0 L 135.0 138.0 L 135.5 138.5 L 137.0 138.0 L 140.0 137.5 L 146.0 136.0 L 153.5 134.5 L 161.0 133.0 L 167.5 132.0 L 170.0 132.0 L 170.0 133.0 L 169.0 133.5 L 168.5 135.0 L 168.5 137.0 L 168.0 139.5 L 167.0 143.5 L 166.0 148.0 L 165.5 152.0 L 165.5 155.0 L 165.5 155.5 " stroke="black" fill="none" stroke-width="6.0" stroke-linecap="round" stroke-linejoin="round" />
<path d="M 144.5 129.5 L 143.0 129.5 L 142.5 129.0 L 142.5 128.5 L 142.5 128.5 L 143.0 132.5 L 143.5 139.0 L 144.0 145.0 L 145.0 148.0 L 146.0 148.5 " stroke="black" fill="none" stroke-width="6.0" stroke-linecap="round" stroke-linejoin="round" />
<path d="M 154.0 126.5 L 154.5 126.5 L 154.5 127.0 L 154.5 127.5 L 154.5 129.0 L 154.5 132.0 L 154.0 137.0 L 153.5 142.5 L 153.5 146.5 " stroke="black" fill="none" stroke-width="6.0" stroke-linecap="round" stroke-linejoin="round" />
<path d="M 135.0 157.0 L 135.0 157.5 L 135.0 158.0 L 135.0 158.0 L 137.5 158.0 L 143.5 157.0 L 152.5 155.5 L 162.0 154.0 L 169.0 153.5 L 170.5 153.5 " stroke="black" fill="none" stroke-width="6.0" stroke-linecap="round" stroke-linejoin="round" />
<path d="M 135.5 171.5 L 136.0 171.5 L 136.0 170.5 L 138.0 170.0 L 141.5 168.5 L 145.0 167.5 L 147.5 167.0 " stroke="black" fill="none" stroke-width="6.0" stroke-linecap="round" stroke-linejoin="round" />
<path d="M 134.0 165.0 L 134.0 164.5 L 133.5 164.0 L 133.0 163.5 L 132.5 163.0 L 132.0 164.0 L 131.5 169.0 L 131.5 175.5 L 131.5 182.0 L 133.0 185.5 L 135.5 186.0 L 138.5 183.0 L 142.5 179.0 L 145.5 176.5 L 146.5 175.5 " stroke="black" fill="none" stroke-width="6.0" stroke-linecap="round" stroke-linejoin="round" />
<path d="M 160.5 172.0 L 160.0 172.0 L 159.5 172.5 L 159.5 172.5 L 161.5 171.5 L 165.0 170.0 L 168.0 168.5 L 169.0 168.0 " stroke="black" fill="none" stroke-width="6.0" stroke-linecap="round" stroke-linejoin="round" />
<path d="M 158.0 165.0 L 158.0 164.5 L 158.0 164.0 L 158.0 163.5 L 158.0 163.5 L 158.0 164.5 L 157.5 168.5 L 156.5 175.5 L 156.5 181.5 L 157.0 185.5 L 160.0 186.0 L 163.5 184.5 L 166.5 181.5 L 168.0 179.0 L 169.0 178.0 " stroke="black" fill="none" stroke-width="6.0" stroke-linecap="round" stroke-linejoin="round" />
<path d="M 141.5 194.0 L 141.5 194.0 L 141.5 194.5 L 141.5 195.0 L 142.0 195.0 L 144.5 194.5 L 147.5 194.0 L 150.0 192.5 L 150.5 192.0 " stroke="black" fill="none" stroke-width="6.0" stroke-linecap="round" stroke-linejoin="round" />
<path d="M 149.0 185.0 L 147.0 185.0 L 146.5 184.5 L 146.0 185.5 L 146.0 189.0 L 147.0 194.0 L 147.5 199.0 L 148.5 202.5 L 148.5 203.5 " stroke="black" fill="none" stroke-width="6.0" stroke-linecap="round" stroke-linejoin="round" />
<path d="M 126.5 206.5 L 125.5 206.5 L 125.0 206.5 L 125.0 206.5 L 128.0 206.5 L 135.0 206.0 L 146.0 205.5 L 157.5 205.0 L 165.5 204.0 L 169.0 204.0 L 169.5 205.0 " stroke="black" fill="none" stroke-width="6.0" stroke-linecap="round" stroke-linejoin="round" />
</svg>