<svg xmlns="http://www.w3.org/2000/svg" width="300" height="300" viewBox="0 0 300 300">
<path d="M 106.5 145.0 L 104.5 145.5 L 103.5 146.0 L 104.5 146.0 L 110.0 144.0 L 118.5 139.0 L 126.5 133.0 L 130.5 129.5 " stroke="black" fill="none" stroke-width="8.0" stroke-linecap="round" stroke-linejoin="round" />
<path d="M 117.5 112.5 L 117.0 112.5 L 117.0 113.5 L 117.0 117.0 L 118.0 128.5 L 118.5 146.5 L 118.0 164.0 L 117.5 175.5 L 118.5 179.0 L 119.5 178.5 " stroke="black" fill="none" stroke-width="8.0" stroke-linecap="round" stroke-linejoin="round" />
<path d="M 104.0 188.5 L 103.0 189.0 L 102.0 190.0 L 103.5 189.5 L 109.0 186.0 L 118.5 179.5 L 131.5 171.0 L 143.5 165.0 L 146.0 164.5 " stroke="black" fill="none" stroke-width="8.0" stroke-linecap="round" stroke-linejoin="round" />
<path d="M 149.0 104.5 L 148.0 104.0 L 148.0 104.0 L 150.5 103.5 L 157.0 103.5 L 166.5 103.5 L 176.5 103.5 L 187.0 102.5 L 190.5 102.0 " stroke="black" fill="none" stroke-width="8.0" stroke-linecap="round" stroke-linejoin="round" />
<path d="M 169.5 88.5 L 168.5 88.5 L 168.0 88.5 L 168.0 89.5 L 169.0 94.5 L 170.0 102.5 L 170.5 110.5 L 171.0 114.0 L 171.5 114.5 " stroke="black" fill="none" stroke-width="8.0" stroke-linecap="round" stroke-linejoin="round" />
<path d="M 157.0 118.0 L 157.5 118.0 L 157.5 117.5 L 158.0 117.5 L 158.5 119.5 L 158.5 123.5 L 159.0 128.5 L 159.0 132.0 L 159.0 133.5 L 159.0 133.5 " stroke="black" fill="none" stroke-width="8.0" stroke-linecap="round" stroke-linejoin="round" />
<path d="M 149.0 127.0 L 148.5 127.0 L 147.5 127.0 L 147.0 126.5 L 147.0 126.5 L 149.0 126.0 L 154.5 126.0 L 163.0 126.0 L 173.0 126.0 L 184.0 127.0 L 191.0 127.0 L 195.0 127.5 L 196.0 128.0 L 195.5 128.0 " stroke="black" fill="none" stroke-width="8.0" stroke-linecap="round" stroke-linejoin="round" />
<path d="M 184.5 114.5 L 184.0 114.5 L 183.5 114.5 L 183.0 116.5 L 183.0 122.0 L 183.0 130.5 L 182.5 137.5 L 182.5 139.5 L 182.5 139.5 " stroke="black" fill="none" stroke-width="8.0" stroke-linecap="round" stroke-linejoin="round" />
<path d="M 157.0 147.5 L 157.0 147.0 L 157.5 146.5 L 158.0 146.5 L 158.5 149.5 L 159.5 158.5 L 160.0 170.0 L 161.0 178.0 L 162.0 179.5 L 162.0 178.0 " stroke="black" fill="none" stroke-width="8.0" stroke-linecap="round" stroke-linejoin="round" />
<path d="M 161.5 149.0 L 159.0 149.0 L 158.0 149.0 L 158.5 149.0 L 162.0 149.5 L 167.5 149.5 L 174.0 148.5 L 181.0 147.5 L 186.5 146.5 L 189.0 146.5 L 189.0 148.0 L 189.0 150.5 L 188.0 154.5 L 186.0 161.5 L 184.0 170.0 L 182.5 178.0 L 182.0 182.5 L 182.5 183.0 L 183.0 182.0 " stroke="black" fill="none" stroke-width="8.0" stroke-linecap="round" stroke-linejoin="round" />
<path d="M 166.5 163.0 L 165.0 163.0 L 164.0 162.5 L 165.0 162.0 L 169.5 160.5 L 175.0 159.5 L 180.5 159.0 L 185.0 159.0 L 186.0 159.0 " stroke="black" fill="none" stroke-width="8.0" stroke-linecap="round" stroke-linejoin="round" />
<path d="M 168.5 172.0 L 168.0 172.0 L 167.5 172.0 L 168.0 172.0 L 170.5 171.5 L 174.0 171.5 L 177.5 171.0 L 179.5 171.0 " stroke="black" fill="none" stroke-width="8.0" stroke-linecap="round" stroke-linejoin="round" />
<path d="M 162.0 184.5 L 161.5 185.0 L 161.0 185.5 L 162.0 186.0 L 166.5 186.5 L 173.5 186.0 L 182.5 183.5 L 188.0 180.5 " stroke="black" fill="none" stroke-width="8.0" stroke-linecap="round" stroke-linejoin="round" />
<path d="M 169.0 197.0 L 169.0 196.0 L 169.0 195.5 L 168.0 195.5 L 165.0 199.5 L 159.0 206.5 L 153.0 213.5 L 151.5 215.5 L 151.5 215.5 " stroke="black" fill="none" stroke-width="8.0" stroke-linecap="round" stroke-linejoin="round" />
<path d="M 187.5 200.5 L 187.5 201.0 L 188.5 203.0 L 191.5 206.5 L 197.0 211.5 L 204.0 214.5 " stroke="black" fill="none" stroke-width="8.0" stroke-linecap="round" stroke-linejoin="round" />
</svg>