<svg xmlns="http://www.w3.org/2000/svg" width="300" height="300" viewBox="0 0 300 300">
<path d="M 147.5 86.0 L 147.0 86.0 L 146.0 86.0 L 146.0 86.5 L 146.0 88.5 L 147.0 92.0 L 148.0 96.5 L 149.0 98.5 " stroke="black" fill="none" stroke-width="9.0" stroke-linecap="round" stroke-linejoin="round" />
<path d="M 122.5 95.5 L 121.5 94.5 L 121.0 94.5 L 121.0 94.5 L 123.5 97.0 L 126.5 99.5 L 130.0 101.0 L 130.5 101.5 " stroke="black" fill="none" stroke-width="9.0" stroke-linecap="round" stroke-linejoin="round" />
<path d="M 176.0 90.0 L 176.0 90.5 L 176.5 91.0 L 176.5 92.0 L 175.0 94.5 L 172.5 98.5 L 170.5 102.0 L 170.5 103.0 " stroke="black" fill="none" stroke-width="9.0" stroke-linecap="round" stroke-linejoin="round" />
<path d="M 120.5 112.0 L 120.5 112.0 L 120.0 112.0 L 120.0 112.5 L 119.5 115.0 L 119.0 119.5 L 118.5 123.5 L 118.5 125.0 " stroke="black" fill="none" stroke-width="9.0" stroke-linecap="round" stroke-linejoin="round" />
<path d="M 124.0 115.0 L 123.5 115.5 L 123.5 115.5 L 125.0 115.5 L 131.5 114.5 L 143.0 113.0 L 156.0 111.5 L 170.5 110.0 L 182.5 109.5 L 189.5 111.0 L 192.5 113.0 L 193.5 114.0 L 193.5 114.0 L 193.5 114.0 L 192.0 114.5 L 190.5 117.0 L 189.5 119.5 L 189.0 121.0 " stroke="black" fill="none" stroke-width="9.0" stroke-linecap="round" stroke-linejoin="round" />
<path d="M 142.5 130.0 L 142.5 129.5 L 143.0 128.5 L 143.0 128.5 L 143.5 128.5 L 144.5 132.0 L 145.5 137.0 L 146.5 142.0 L 147.0 144.0 " stroke="black" fill="none" stroke-width="9.0" stroke-linecap="round" stroke-linejoin="round" />
<path d="M 145.0 132.0 L 143.5 132.5 L 143.0 132.5 L 144.5 132.0 L 149.5 130.0 L 155.0 129.0 L 160.0 128.0 L 164.5 128.0 L 168.0 128.0 L 169.5 129.0 L 169.5 130.5 L 169.5 133.0 L 168.5 137.0 L 168.0 140.0 L 168.0 142.0 " stroke="black" fill="none" stroke-width="9.0" stroke-linecap="round" stroke-linejoin="round" />
<path d="M 147.5 148.5 L 147.5 148.5 L 147.5 148.5 L 149.5 147.5 L 154.5 146.5 L 161.0 146.0 L 164.0 146.0 " stroke="black" fill="none" stroke-width="9.0" stroke-linecap="round" stroke-linejoin="round" />
<path d="M 138.5 168.5 L 138.5 169.0 L 138.0 169.5 L 138.0 169.5 L 140.5 169.5 L 146.0 169.5 L 155.5 169.0 L 165.0 168.5 L 171.5 168.0 L 174.5 167.5 " stroke="black" fill="none" stroke-width="9.0" stroke-linecap="round" stroke-linejoin="round" />
<path d="M 158.5 153.5 L 158.0 153.5 L 157.5 153.5 L 157.5 153.5 L 157.0 154.0 L 157.0 156.5 L 157.0 165.0 L 156.0 178.5 L 155.0 188.5 L 155.0 190.5 L 155.5 190.5 L 156.0 188.0 " stroke="black" fill="none" stroke-width="9.0" stroke-linecap="round" stroke-linejoin="round" />
<path d="M 119.0 197.5 L 119.0 197.5 L 119.0 198.0 L 119.5 198.0 L 124.5 198.0 L 137.0 197.0 L 156.0 196.5 L 175.0 195.5 L 186.5 195.5 L 191.0 196.0 L 191.0 196.5 " stroke="black" fill="none" stroke-width="9.0" stroke-linecap="round" stroke-linejoin="round" />
</svg>