<svg xmlns="http://www.w3.org/2000/svg" width="300" height="300" viewBox="0 0 300 300">
<path d="M 124.5 112.0 L 124.0 112.0 L 123.5 112.5 L 123.0 112.5 L 123.0 112.5 L 124.0 113.5 L 126.0 115.5 L 128.5 117.5 L 130.0 119.0 L 131.0 120.0 " stroke="black" fill="none" stroke-width="6.0" stroke-linecap="round" stroke-linejoin="round" />
<path d="M 122.5 130.5 L 121.0 131.5 L 120.0 131.5 L 120.0 131.5 L 120.5 131.5 L 123.0 132.0 L 125.5 133.5 L 128.0 134.0 L 129.5 135.0 L 130.0 135.5 " stroke="black" fill="none" stroke-width="6.0" stroke-linecap="round" stroke-linejoin="round" />
<path d="M 120.5 158.0 L 120.0 158.0 L 119.0 158.0 L 119.0 158.0 L 120.0 156.5 L 123.0 153.5 L 126.5 150.5 L 127.5 149.0 " stroke="black" fill="none" stroke-width="6.0" stroke-linecap="round" stroke-linejoin="round" />
<path d="M 152.0 110.0 L 152.5 110.0 L 153.0 110.0 L 153.0 110.0 L 153.5 110.0 L 153.0 110.5 L 151.0 114.0 L 146.5 120.0 L 142.0 125.5 L 139.5 127.5 L 139.0 127.5 " stroke="black" fill="none" stroke-width="6.0" stroke-linecap="round" stroke-linejoin="round" />
<path d="M 155.5 112.0 L 155.5 112.5 L 155.5 113.0 L 155.5 113.5 L 155.5 114.0 L 157.0 115.0 L 159.5 116.5 L 163.5 118.5 L 168.0 120.0 L 171.0 121.0 L 173.0 122.0 L 173.0 123.0 L 173.0 123.0 " stroke="black" fill="none" stroke-width="6.0" stroke-linecap="round" stroke-linejoin="round" />
<path d="M 149.0 129.5 L 148.5 129.5 L 147.5 129.5 L 147.0 129.5 L 147.0 129.5 L 147.5 129.5 L 150.5 129.5 L 154.5 129.0 L 158.0 128.5 L 161.0 128.0 L 162.0 127.5 L 162.5 127.5 " stroke="black" fill="none" stroke-width="6.0" stroke-linecap="round" stroke-linejoin="round" />
<path d="M 143.5 139.0 L 143.0 139.5 L 142.0 140.0 L 141.5 140.0 L 141.5 140.0 L 144.5 140.0 L 149.0 140.0 L 154.5 139.5 L 160.0 139.0 L 164.0 138.0 L 165.5 137.5 L 166.0 137.5 L 165.5 137.0 L 165.5 137.0 " stroke="black" fill="none" stroke-width="6.0" stroke-linecap="round" stroke-linejoin="round" />
<path d="M 154.5 132.5 L 154.5 133.5 L 154.5 134.0 L 154.5 134.5 L 154.5 135.5 L 155.0 139.0 L 155.0 145.5 L 154.0 155.0 L 154.0 162.0 L 154.0 163.0 L 154.5 162.0 L 154.5 158.5 " stroke="black" fill="none" stroke-width="6.0" stroke-linecap="round" stroke-linejoin="round" />
<path d="M 145.5 150.5 L 145.5 150.5 L 145.5 150.5 L 145.5 150.5 L 145.5 150.5 L 144.0 151.5 L 142.0 154.0 L 140.0 156.5 L 139.5 158.0 L 139.5 158.0 " stroke="black" fill="none" stroke-width="6.0" stroke-linecap="round" stroke-linejoin="round" />
<path d="M 164.5 148.5 L 164.5 148.5 L 163.5 148.5 L 163.5 148.5 L 164.5 150.0 L 167.0 152.0 L 169.0 153.5 L 170.5 154.5 " stroke="black" fill="none" stroke-width="6.0" stroke-linecap="round" stroke-linejoin="round" />
<path d="M 126.5 175.0 L 126.0 176.0 L 125.5 176.5 L 125.5 176.5 L 125.5 176.5 L 127.0 176.5 L 129.0 176.5 L 132.5 176.5 L 137.0 176.0 L 143.5 175.5 L 149.5 175.5 L 153.5 175.0 L 155.0 175.0 L 155.0 174.5 L 155.0 174.5 L 155.0 174.0 L 155.0 174.0 L 155.5 174.0 L 156.0 174.0 L 156.0 174.0 " stroke="black" fill="none" stroke-width="6.0" stroke-linecap="round" stroke-linejoin="round" />
<path d="M 139.5 169.0 L 139.5 168.5 L 140.0 168.0 L 140.0 167.5 L 140.0 167.5 L 140.0 168.5 L 140.5 172.0 L 141.0 176.5 L 141.0 180.0 L 141.0 183.0 L 141.5 184.0 " stroke="black" fill="none" stroke-width="6.0" stroke-linecap="round" stroke-linejoin="round" />
<path d="M 117.5 190.5 L 117.5 189.5 L 117.0 189.0 L 117.0 188.5 L 117.5 188.5 L 120.5 188.5 L 125.5 188.5 L 135.0 188.5 L 147.5 188.5 L 158.5 187.5 L 166.0 187.0 L 170.0 187.0 L 171.5 187.0 L 172.0 187.0 L 171.5 187.0 L 171.5 187.0 L 171.5 186.5 L 171.5 186.5 L 171.5 186.5 L 171.5 186.5 L 171.5 186.5 L 171.5 186.5 L 171.5 186.5 L 171.5 186.5 L 171.5 186.5 L 171.5 186.5 " stroke="black" fill="none" stroke-width="6.0" stroke-linecap="round" stroke-linejoin="round" />
</svg>