<svg xmlns="http://www.w3.org/2000/svg" width="300" height="300" viewBox="0 0 300 300">
<path d="M 77.5 85.5 L 77.5 86.0 L 77.5 86.5 L 77.5 86.5 L 77.5 87.0 L 77.5 87.0 L 78.5 87.0 L 79.5 87.5 L 81.0 88.0 L 83.5 88.0 L 87.5 88.0 L 93.0 88.0 L 99.0 88.0 L 104.0 88.0 L 108.0 88.5 L 112.5 89.0 L 117.0 90.0 L 121.5 90.5 L 125.5 90.5 L 129.5 91.0 L 135.0 91.0 L 141.0 91.0 L 148.0 90.5 L 154.5 90.5 L 162.0 90.5 L 169.5 90.5 L 176.0 91.0 L 183.0 91.5 L 189.5 91.5 L 195.0 92.0 L 201.0 92.0 L 206.5 92.0 L 211.5 91.5 L 215.5 91.5 L 219.5 91.0 L 223.5 91.0 L 226.5 91.0 L 228.5 91.0 L 229.5 91.0 L 229.5 91.0 L 229.5 91.0 L 229.5 91.0 L 229.0 91.0 L 229.0 91.0 L 229.0 91.0 L 229.0 91.0 L 229.0 91.0 L 228.5 91.0 L 228.5 91.0 " stroke="black" fill="none" stroke-width="10.0" stroke-linecap="round" stroke-linejoin="round" />
<path d="M 148.0 67.0 L 147.5 67.0 L 147.0 67.5 L 147.0 68.0 L 147.0 69.5 L 148.0 72.0 L 148.5 75.5 L 149.0 81.0 L 149.5 89.0 L 149.5 97.5 L 149.5 104.5 L 149.5 108.0 L 149.5 108.5 L 149.5 108.5 L 149.5 108.5 " stroke="black" fill="none" stroke-width="10.0" stroke-linecap="round" stroke-linejoin="round" />
<path d="M 91.5 115.5 L 92.0 115.5 L 93.5 115.5 L 95.5 115.5 L 99.0 115.5 L 104.5 114.5 L 112.5 114.0 L 122.0 113.5 L 131.5 113.5 L 141.5 113.5 L 150.0 113.5 L 158.5 113.5 L 168.0 113.0 L 176.0 112.5 L 184.5 112.5 L 191.0 112.0 L 196.5 112.0 L 203.0 112.0 L 210.0 112.0 L 215.5 111.5 L 220.0 112.0 L 222.0 113.0 L 222.0 114.0 L 220.0 114.0 " stroke="black" fill="none" stroke-width="10.0" stroke-linecap="round" stroke-linejoin="round" />
<path d="M 79.5 137.5 L 79.5 137.5 L 79.5 137.5 L 79.5 137.5 L 79.5 137.5 L 79.5 139.0 L 79.0 144.5 L 77.5 152.0 L 76.5 157.0 L 76.0 158.5 L 76.0 158.0 " stroke="black" fill="none" stroke-width="10.0" stroke-linecap="round" stroke-linejoin="round" />
<path d="M 82.0 136.5 L 80.5 137.0 L 80.0 137.0 L 80.0 137.0 L 80.5 137.0 L 82.0 137.0 L 84.0 137.0 L 87.5 137.0 L 93.0 136.5 L 101.0 135.5 L 110.5 134.5 L 119.5 133.5 L 126.0 133.5 L 131.5 133.5 L 137.5 134.5 L 144.0 135.0 L 150.0 135.5 L 157.0 135.5 L 164.0 136.0 L 170.5 136.0 L 177.5 136.0 L 184.0 136.0 L 190.5 136.0 L 195.5 136.0 L 200.0 136.0 L 204.5 136.0 L 208.5 136.5 L 211.0 137.0 L 213.0 137.0 L 214.0 137.0 L 214.0 137.0 L 214.0 137.0 L 214.0 137.0 L 214.0 137.0 L 214.0 137.0 L 214.0 137.0 L 214.5 137.0 L 215.5 137.0 L 217.0 137.0 L 218.0 137.0 L 218.5 137.0 L 219.5 137.0 L 219.5 137.0 L 220.0 137.0 L 220.0 137.0 L 220.0 137.5 L 220.0 137.5 L 220.0 137.5 L 220.0 138.0 L 220.0 138.5 L 220.0 139.5 L 219.5 141.0 L 219.0 143.0 L 218.5 145.0 L 218.5 147.5 L 218.0 149.0 L 218.0 150.0 L 217.5 150.0 " stroke="black" fill="none" stroke-width="10.0" stroke-linecap="round" stroke-linejoin="round" />
<path d="M 107.5 160.5 L 106.5 160.5 L 106.0 160.0 L 105.5 160.0 L 105.5 160.0 L 105.5 159.5 L 107.5 159.5 L 112.0 159.5 L 120.0 159.0 L 134.0 158.5 L 149.0 157.0 L 160.5 156.5 L 169.0 156.0 L 175.0 155.0 L 179.5 155.0 L 182.0 155.0 L 183.0 155.0 L 183.0 155.0 L 183.0 155.0 L 183.5 155.0 L 183.5 155.0 L 183.5 155.0 L 183.5 155.0 " stroke="black" fill="none" stroke-width="10.0" stroke-linecap="round" stroke-linejoin="round" />
<path d="M 112.5 181.0 L 112.5 181.0 L 112.0 180.5 L 111.5 180.0 L 111.0 180.0 L 111.0 180.0 L 112.5 182.5 L 115.0 187.5 L 117.5 193.5 L 119.5 198.0 L 120.5 199.0 L 120.5 198.0 " stroke="black" fill="none" stroke-width="10.0" stroke-linecap="round" stroke-linejoin="round" />
<path d="M 113.0 179.0 L 112.5 178.5 L 112.0 178.5 L 111.5 178.5 L 111.5 178.5 L 113.5 178.5 L 117.5 178.5 L 124.5 177.5 L 136.0 175.0 L 148.0 173.0 L 157.5 172.5 L 166.0 172.0 L 172.0 172.0 L 175.5 171.5 L 176.5 171.5 L 177.0 172.5 L 177.5 173.0 L 177.5 173.5 L 177.5 173.5 L 177.5 174.0 L 177.5 175.0 L 177.0 177.5 L 176.0 181.0 L 174.0 185.5 L 172.5 189.5 L 172.0 192.0 L 172.0 192.5 " stroke="black" fill="none" stroke-width="10.0" stroke-linecap="round" stroke-linejoin="round" />
<path d="M 122.5 198.0 L 122.5 198.5 L 121.5 199.0 L 121.5 199.0 L 123.0 199.0 L 128.0 197.5 L 138.0 195.5 L 150.0 193.5 L 162.5 191.5 L 171.0 190.5 L 173.0 191.0 L 173.0 191.5 " stroke="black" fill="none" stroke-width="10.0" stroke-linecap="round" stroke-linejoin="round" />
<path d="M 116.5 209.5 L 116.5 209.5 L 117.0 208.5 L 117.5 208.0 L 118.5 208.5 L 121.0 210.5 L 125.0 213.5 L 128.5 217.5 L 133.0 219.5 L 135.5 220.0 " stroke="black" fill="none" stroke-width="10.0" stroke-linecap="round" stroke-linejoin="round" />
<path d="M 171.0 202.5 L 171.0 202.5 L 171.0 202.5 L 170.5 202.5 L 170.0 202.5 L 169.5 204.0 L 168.5 207.5 L 166.5 212.5 L 164.5 217.0 L 164.0 219.5 " stroke="black" fill="none" stroke-width="10.0" stroke-linecap="round" stroke-linejoin="round" />
<path d="M 86.5 232.5 L 86.5 232.5 L 86.0 232.5 L 85.5 232.5 L 85.0 232.5 L 85.0 232.5 L 85.0 232.5 L 85.0 232.5 L 85.0 232.5 L 85.0 232.5 L 85.0 232.5 L 85.0 232.5 L 85.0 232.5 L 85.5 232.5 L 86.0 232.5 L 86.5 232.5 L 88.0 232.5 L 90.5 232.5 L 95.5 232.5 L 101.0 232.5 L 106.0 233.0 L 110.0 233.0 L 114.5 233.5 L 119.0 233.5 L 123.5 233.5 L 128.0 233.5 L 133.0 234.0 L 138.5 234.0 L 144.0 234.0 L 150.0 234.0 L 156.0 233.5 L 161.5 233.0 L 166.5 233.0 L 170.5 233.0 L 174.5 233.0 L 178.5 233.0 L 183.0 233.0 L 188.0 233.0 L 192.0 233.0 L 195.0 233.0 L 197.5 233.0 L 199.5 233.0 L 201.5 233.0 L 204.0 233.0 L 206.5 233.0 L 209.0 232.5 L 210.5 232.5 L 212.0 232.5 L 213.5 232.5 L 215.0 232.5 L 216.0 232.5 L 216.5 232.5 L 216.5 232.5 L 216.5 232.5 L 216.5 232.5 L 216.5 232.5 L 216.5 232.0 L 216.5 232.0 L 216.5 232.0 L 216.5 232.0 L 216.5 232.0 L 216.5 232.0 L 216.5 232.0 L 216.5 232.0 L 216.5 232.0 " stroke="black" fill="none" stroke-width="10.0" stroke-linecap="round" stroke-linejoin="round" />
</svg>