<svg xmlns="http://www.w3.org/2000/svg" width="300" height="300" viewBox="0 0 300 300">
<path d="M 119.5 106.5 L 119.5 106.5 L 119.0 106.5 L 119.0 106.5 L 119.0 106.0 L 119.0 106.0 L 119.0 106.5 L 118.5 110.5 L 117.0 119.0 L 114.5 130.5 L 112.0 141.5 L 110.0 149.5 L 110.0 153.0 L 110.0 155.0 L 110.0 156.0 L 110.0 156.0 L 110.0 156.0 L 110.0 156.0 L 110.0 156.0 L 110.0 156.0 L 110.0 156.0 L 110.5 156.0 L 111.0 156.5 L 112.5 158.5 L 115.0 163.0 L 119.0 171.0 L 124.0 179.0 L 132.0 192.0 L 135.5 196.0 L 137.0 198.0 L 137.0 198.0 L 137.0 198.0 L 136.0 198.0 L 134.0 196.5 " stroke="black" fill="none" stroke-width="8.0" stroke-linecap="round" stroke-linejoin="round" />
<path d="M 134.5 128.0 L 134.5 127.5 L 134.5 127.0 L 134.5 126.5 L 134.5 126.5 L 134.5 126.0 L 134.5 127.0 L 133.5 132.5 L 128.5 146.0 L 121.0 166.0 L 113.0 180.5 L 107.5 188.5 L 105.5 192.0 L 105.5 192.0 " stroke="black" fill="none" stroke-width="8.0" stroke-linecap="round" stroke-linejoin="round" />
<path d="M 101.5 148.5 L 101.0 148.5 L 100.5 148.5 L 104.0 147.5 L 112.5 145.5 L 123.5 142.5 L 131.5 141.0 L 136.5 140.5 L 139.5 140.5 L 139.5 140.5 " stroke="black" fill="none" stroke-width="8.0" stroke-linecap="round" stroke-linejoin="round" />
<path d="M 152.5 124.5 L 152.5 124.5 L 152.5 124.0 L 152.5 124.0 L 152.5 125.5 L 153.0 134.0 L 153.5 152.0 L 153.5 167.5 L 154.0 170.0 L 154.5 170.0 " stroke="black" fill="none" stroke-width="8.0" stroke-linecap="round" stroke-linejoin="round" />
<path d="M 154.5 123.5 L 154.5 123.5 L 154.5 123.5 L 154.5 123.5 L 154.5 123.5 L 156.5 122.5 L 160.0 121.0 L 165.5 119.5 L 172.5 118.5 L 179.0 118.0 L 182.5 118.5 L 184.5 120.5 L 185.0 123.5 L 185.0 129.0 L 185.0 137.5 L 184.0 147.0 L 182.5 154.5 L 182.0 159.0 L 181.5 161.5 L 180.5 161.5 L 180.5 161.5 " stroke="black" fill="none" stroke-width="8.0" stroke-linecap="round" stroke-linejoin="round" />
<path d="M 153.0 173.5 L 153.0 173.5 L 154.0 173.5 L 154.5 173.0 L 157.0 172.0 L 163.5 169.5 L 171.5 167.0 L 178.5 166.5 L 182.0 166.5 L 182.5 167.0 " stroke="black" fill="none" stroke-width="8.0" stroke-linecap="round" stroke-linejoin="round" />
</svg>