<svg xmlns="http://www.w3.org/2000/svg" width="300" height="300" viewBox="0 0 300 300">
<path d="M 132.5 115.5 L 132.5 115.5 L 132.5 115.0 L 133.0 115.0 L 133.0 119.0 L 130.5 130.0 L 126.5 145.5 L 124.0 156.5 L 123.5 160.5 L 125.5 161.5 L 129.0 163.5 L 133.0 167.5 L 136.0 172.0 L 138.0 176.0 L 139.5 178.5 L 140.5 178.5 " stroke="black" fill="none" stroke-width="8.0" stroke-linecap="round" stroke-linejoin="round" />
<path d="M 144.5 141.5 L 144.0 141.0 L 143.5 140.0 L 143.5 140.5 L 142.5 144.5 L 140.5 153.5 L 137.5 168.0 L 134.0 179.0 L 132.0 183.5 L 131.5 184.0 " stroke="black" fill="none" stroke-width="8.0" stroke-linecap="round" stroke-linejoin="round" />
<path d="M 112.5 149.0 L 112.5 149.0 L 112.5 149.0 L 113.5 149.0 L 119.5 146.5 L 131.0 143.0 L 140.0 141.0 L 145.5 139.5 " stroke="black" fill="none" stroke-width="8.0" stroke-linecap="round" stroke-linejoin="round" />
<path d="M 169.0 117.5 L 169.0 117.5 L 168.5 118.0 L 168.5 121.5 L 169.0 129.0 L 170.0 135.0 L 170.5 137.5 " stroke="black" fill="none" stroke-width="8.0" stroke-linecap="round" stroke-linejoin="round" />
<path d="M 158.5 129.5 L 158.5 130.0 L 158.5 130.5 L 158.5 131.0 L 158.5 132.0 L 158.0 135.5 L 156.0 141.5 L 153.5 146.0 " stroke="black" fill="none" stroke-width="8.0" stroke-linecap="round" stroke-linejoin="round" />
<path d="M 182.0 125.0 L 182.0 125.0 L 181.5 125.0 L 182.0 126.5 L 184.0 130.0 L 187.5 133.5 L 191.0 135.5 " stroke="black" fill="none" stroke-width="8.0" stroke-linecap="round" stroke-linejoin="round" />
<path d="M 184.0 145.0 L 184.0 144.5 L 184.5 144.0 L 184.5 144.0 L 184.5 144.0 L 183.5 146.5 L 179.5 153.0 L 173.0 162.0 L 165.0 169.5 L 160.0 172.0 L 158.0 170.5 L 158.0 169.5 " stroke="black" fill="none" stroke-width="8.0" stroke-linecap="round" stroke-linejoin="round" />
</svg>