<svg xmlns="http://www.w3.org/2000/svg" width="300" height="300" viewBox="0 0 300 300">
<path d="M 130.0 114.5 L 130.5 115.0 L 131.0 115.5 L 131.0 115.5 L 131.0 116.0 L 131.0 117.5 L 130.5 121.0 L 128.5 126.5 L 126.5 133.5 L 123.5 141.0 L 121.0 148.0 L 120.5 152.0 L 120.5 153.5 L 120.5 154.5 L 120.5 155.0 L 121.0 156.5 L 122.5 158.5 L 125.0 161.5 L 128.0 166.0 L 132.0 171.5 L 135.0 176.0 L 137.5 179.0 L 139.5 181.0 L 140.0 181.5 L 140.5 179.0 L 140.0 178.0 " stroke="black" fill="none" stroke-width="6.0" stroke-linecap="round" stroke-linejoin="round" />
<path d="M 137.5 143.5 L 137.5 143.5 L 137.5 143.0 L 137.5 143.0 L 137.5 143.0 L 136.5 145.0 L 134.0 150.5 L 128.5 160.0 L 123.5 169.0 L 121.5 173.0 L 121.5 173.5 L 121.5 173.5 " stroke="black" fill="none" stroke-width="6.0" stroke-linecap="round" stroke-linejoin="round" />
<path d="M 113.0 140.0 L 113.0 140.5 L 113.0 141.0 L 113.0 141.0 L 114.0 141.0 L 117.5 141.0 L 123.5 140.5 L 131.0 139.5 L 139.0 138.0 L 145.5 136.0 L 149.5 135.5 L 150.0 135.5 L 150.0 135.5 " stroke="black" fill="none" stroke-width="6.0" stroke-linecap="round" stroke-linejoin="round" />
<path d="M 157.5 114.5 L 157.5 114.5 L 158.0 115.5 L 158.0 115.5 L 158.5 115.5 L 160.0 116.0 L 163.5 116.5 L 168.0 116.5 L 172.5 116.5 L 176.0 116.5 L 177.5 116.5 L 177.5 116.5 L 177.5 116.5 L 177.5 117.0 L 177.5 118.0 L 177.5 120.0 L 177.5 122.0 L 177.5 125.0 L 177.0 129.0 L 176.0 133.0 L 175.5 136.5 L 175.0 139.0 L 175.0 139.5 L 175.0 139.5 L 175.0 139.5 " stroke="black" fill="none" stroke-width="6.0" stroke-linecap="round" stroke-linejoin="round" />
<path d="M 157.5 137.0 L 157.5 137.5 L 157.5 137.5 L 158.0 138.0 L 158.0 138.0 L 158.0 138.0 L 158.0 137.5 L 158.0 137.5 L 158.0 137.0 L 158.0 137.0 L 158.0 137.0 L 158.0 137.0 L 158.0 137.0 L 158.0 137.0 L 158.0 137.0 L 158.5 137.0 L 159.5 137.0 L 162.0 136.5 L 166.0 136.5 L 170.0 136.5 L 172.5 136.5 L 174.0 136.5 L 174.5 136.5 L 175.0 136.5 L 175.0 136.5 L 175.0 136.5 L 175.0 136.5 L 175.0 136.5 L 174.5 136.5 " stroke="black" fill="none" stroke-width="6.0" stroke-linecap="round" stroke-linejoin="round" />
<path d="M 156.0 138.5 L 157.0 138.0 L 157.5 137.5 L 158.0 137.5 L 158.0 137.5 L 158.0 138.0 L 158.0 139.5 L 157.5 142.5 L 156.0 147.0 L 154.5 152.5 L 153.5 158.5 L 153.0 163.5 L 154.0 167.5 L 156.0 170.0 L 158.5 172.0 L 162.0 173.0 L 165.5 173.0 L 169.5 173.0 L 174.5 173.0 L 179.5 172.0 L 183.5 171.5 L 185.5 170.5 L 186.0 169.5 L 185.5 168.5 L 185.0 166.5 L 184.5 165.0 L 184.0 163.0 L 183.5 161.5 L 183.0 160.0 L 183.0 159.0 L 182.5 158.0 L 182.5 158.0 L 182.5 158.0 L 182.5 158.0 " stroke="black" fill="none" stroke-width="6.0" stroke-linecap="round" stroke-linejoin="round" />
</svg>