<svg xmlns="http://www.w3.org/2000/svg" width="300" height="300" viewBox="0 0 300 300">
<path d="M 113.5 103.0 L 113.5 103.0 L 113.5 103.0 L 113.5 103.5 L 115.0 103.5 L 120.0 103.0 L 131.5 101.5 L 147.0 99.5 L 163.5 97.0 L 174.5 96.0 L 180.0 96.0 L 181.5 97.0 L 181.0 97.0 L 180.5 96.5 L 180.0 95.5 " stroke="black" fill="none" stroke-width="8.0" stroke-linecap="round" stroke-linejoin="round" />
<path d="M 128.0 117.0 L 127.5 117.0 L 126.5 117.0 L 126.0 117.0 L 126.5 117.0 L 130.0 117.0 L 137.0 117.0 L 147.5 115.5 L 158.5 113.5 L 166.5 112.5 L 170.0 112.0 L 170.5 112.5 " stroke="black" fill="none" stroke-width="8.0" stroke-linecap="round" stroke-linejoin="round" />
<path d="M 106.5 134.5 L 106.5 134.5 L 107.0 134.5 L 110.5 134.5 L 122.5 133.5 L 139.0 132.5 L 153.5 132.0 L 165.5 130.5 L 176.5 128.0 L 183.0 126.5 L 184.5 125.5 L 184.0 125.5 " stroke="black" fill="none" stroke-width="8.0" stroke-linecap="round" stroke-linejoin="round" />
<path d="M 148.0 84.0 L 147.5 84.0 L 147.0 84.0 L 147.0 85.0 L 147.0 88.5 L 146.5 97.0 L 143.0 112.0 L 136.5 129.0 L 128.5 141.5 L 120.0 151.5 L 110.5 157.0 L 104.0 158.5 L 102.0 158.5 " stroke="black" fill="none" stroke-width="8.0" stroke-linecap="round" stroke-linejoin="round" />
<path d="M 146.0 139.5 L 145.5 139.5 L 145.5 139.5 L 146.0 139.5 L 151.5 141.5 L 162.0 146.5 L 174.0 152.5 L 182.0 156.0 L 186.5 156.5 " stroke="black" fill="none" stroke-width="8.0" stroke-linecap="round" stroke-linejoin="round" />
<path d="M 128.0 168.0 L 129.0 168.0 L 130.5 168.0 L 134.5 167.5 L 142.0 166.5 L 150.5 165.0 L 157.5 164.0 L 163.0 163.0 L 166.0 163.0 " stroke="black" fill="none" stroke-width="8.0" stroke-linecap="round" stroke-linejoin="round" />
<path d="M 126.0 186.0 L 125.5 186.0 L 125.5 186.0 L 125.5 186.0 L 128.5 186.0 L 138.0 185.5 L 153.5 184.0 L 166.5 181.5 L 174.5 180.0 L 179.0 179.5 L 179.0 179.0 " stroke="black" fill="none" stroke-width="8.0" stroke-linecap="round" stroke-linejoin="round" />
<path d="M 147.5 152.0 L 147.0 152.5 L 146.5 153.5 L 146.5 155.5 L 147.5 162.0 L 149.5 175.0 L 150.5 191.0 L 151.0 205.0 L 151.5 213.5 L 151.5 216.5 L 151.5 216.5 " stroke="black" fill="none" stroke-width="8.0" stroke-linecap="round" stroke-linejoin="round" />
</svg>