<svg xmlns="http://www.w3.org/2000/svg" width="300" height="300" viewBox="0 0 300 300">
<path d="M 129.0 124.0 L 128.5 124.0 L 127.5 124.0 L 127.0 123.5 L 127.0 123.5 L 127.5 123.5 L 131.0 123.5 L 136.0 123.5 L 143.0 123.0 L 151.0 123.0 L 158.0 122.5 L 162.0 122.0 L 164.0 122.0 L 165.0 122.0 L 166.0 122.0 L 166.5 122.0 L 167.0 122.0 L 167.5 122.0 L 167.5 122.0 L 168.0 122.0 L 168.5 122.5 L 168.5 123.0 " stroke="black" fill="none" stroke-width="6.0" stroke-linecap="round" stroke-linejoin="round" />
<path d="M 149.5 105.5 L 149.5 105.5 L 150.0 105.5 L 150.5 105.5 L 150.5 105.5 L 150.5 106.5 L 150.5 108.5 L 148.0 114.5 L 143.0 122.5 L 135.0 132.5 L 128.0 140.5 L 124.0 144.5 L 121.5 146.0 L 120.0 146.5 L 120.0 145.5 L 120.5 144.5 " stroke="black" fill="none" stroke-width="6.0" stroke-linecap="round" stroke-linejoin="round" />
<path d="M 149.5 127.5 L 149.5 127.5 L 149.0 127.5 L 148.5 127.5 L 149.0 128.0 L 152.0 129.5 L 160.0 133.5 L 170.0 138.0 L 177.5 141.0 L 180.5 142.0 L 181.0 142.0 L 180.5 142.0 " stroke="black" fill="none" stroke-width="6.0" stroke-linecap="round" stroke-linejoin="round" />
<path d="M 137.0 150.0 L 137.0 150.0 L 137.5 150.5 L 137.5 150.5 L 138.5 150.5 L 141.0 150.5 L 145.5 150.5 L 150.5 150.5 L 154.0 150.0 L 156.0 149.0 L 156.5 148.0 " stroke="black" fill="none" stroke-width="6.0" stroke-linecap="round" stroke-linejoin="round" />
<path d="M 148.0 137.0 L 147.0 137.0 L 146.0 137.0 L 145.5 137.0 L 145.5 139.0 L 146.0 144.5 L 147.0 151.0 L 147.5 155.5 L 148.0 158.0 L 148.5 158.5 " stroke="black" fill="none" stroke-width="6.0" stroke-linecap="round" stroke-linejoin="round" />
<path d="M 128.5 166.5 L 128.5 166.0 L 128.5 166.0 L 129.5 166.0 L 132.5 166.0 L 139.5 165.5 L 148.5 165.0 L 156.0 165.0 L 162.5 165.0 L 167.5 165.0 L 169.0 164.5 L 169.5 164.5 L 169.0 164.5 L 167.5 164.5 L 167.0 164.5 " stroke="black" fill="none" stroke-width="6.0" stroke-linecap="round" stroke-linejoin="round" />
<path d="M 133.0 160.5 L 133.5 160.0 L 134.0 159.5 L 134.5 159.0 L 135.0 159.0 L 135.5 159.0 L 136.0 159.0 L 136.5 162.5 L 136.5 169.0 L 135.5 177.5 L 133.5 185.5 L 132.0 189.0 L 131.0 189.5 L 131.0 189.5 " stroke="black" fill="none" stroke-width="6.0" stroke-linecap="round" stroke-linejoin="round" />
<path d="M 157.0 158.0 L 157.5 158.0 L 158.0 158.5 L 158.5 158.5 L 159.5 159.5 L 160.0 162.0 L 160.5 169.0 L 160.5 179.0 L 160.5 187.0 L 161.0 190.5 L 161.5 190.5 " stroke="black" fill="none" stroke-width="6.0" stroke-linecap="round" stroke-linejoin="round" />
</svg>