<svg xmlns="http://www.w3.org/2000/svg" width="300" height="300" viewBox="0 0 300 300">
<path d="M 129.5 110.0 L 128.5 111.0 L 128.0 111.5 L 128.0 111.5 L 130.5 111.0 L 136.0 110.5 L 143.5 110.5 L 154.0 110.5 L 165.0 110.5 L 174.5 109.0 L 178.5 108.5 L 178.0 108.5 L 177.0 108.5 L 177.0 108.5 L 176.5 108.5 L 176.5 108.5 L 176.5 108.5 " stroke="black" fill="none" stroke-width="7.0" stroke-linecap="round" stroke-linejoin="round" />
<path d="M 132.5 128.5 L 132.5 128.5 L 132.5 129.0 L 132.5 129.5 L 132.5 129.5 L 133.0 129.5 L 136.5 129.0 L 141.0 127.5 L 147.5 126.5 L 155.5 125.5 L 161.5 125.0 L 167.5 125.0 L 171.0 125.0 L 171.5 125.0 L 170.5 125.0 L 169.5 125.0 L 169.0 125.0 " stroke="black" fill="none" stroke-width="7.0" stroke-linecap="round" stroke-linejoin="round" />
<path d="M 123.5 144.0 L 122.5 143.5 L 121.0 142.5 L 121.0 142.5 L 123.5 142.5 L 129.0 142.5 L 137.0 143.0 L 149.0 143.0 L 161.0 142.5 L 170.0 142.5 L 173.5 142.0 L 174.0 142.0 L 174.0 142.0 L 174.0 142.0 L 174.5 142.0 L 175.0 142.0 L 175.5 142.5 L 176.5 142.5 L 177.0 143.0 L 177.5 143.0 L 178.0 143.0 L 178.5 143.0 L 178.5 143.0 L 178.5 143.0 L 178.5 143.5 L 178.5 143.5 L 178.5 143.5 L 178.5 143.5 L 178.5 143.5 L 178.5 143.5 L 178.5 143.5 L 179.0 143.5 " stroke="black" fill="none" stroke-width="7.0" stroke-linecap="round" stroke-linejoin="round" />
<path d="M 160.0 99.0 L 160.0 99.0 L 160.0 98.0 L 160.0 97.0 L 160.0 96.5 L 160.5 96.5 L 160.5 97.5 L 159.5 101.0 L 156.5 109.5 L 150.5 123.0 L 144.5 137.5 L 140.0 147.5 L 136.5 154.5 L 133.5 161.0 L 130.5 166.5 L 128.0 169.0 L 126.5 170.0 L 126.0 169.5 L 126.0 169.0 " stroke="black" fill="none" stroke-width="7.0" stroke-linecap="round" stroke-linejoin="round" />
<path d="M 149.5 147.5 L 149.0 147.5 L 149.0 147.5 L 148.5 147.5 L 148.5 147.5 L 149.0 148.0 L 153.0 151.5 L 159.5 156.5 L 168.0 161.5 L 175.5 164.0 L 180.0 165.5 L 182.0 166.5 L 182.0 167.5 " stroke="black" fill="none" stroke-width="7.0" stroke-linecap="round" stroke-linejoin="round" />
<path d="M 142.0 168.5 L 141.5 168.5 L 140.5 168.0 L 140.5 167.5 L 143.0 166.5 L 147.5 166.0 L 153.0 165.0 L 158.0 164.5 L 161.0 164.5 L 163.0 164.5 L 163.0 164.5 " stroke="black" fill="none" stroke-width="7.0" stroke-linecap="round" stroke-linejoin="round" />
<path d="M 137.0 181.0 L 137.0 181.5 L 137.0 181.5 L 136.5 182.0 L 138.0 182.0 L 143.5 181.5 L 151.5 180.0 L 160.0 178.0 L 165.5 176.0 L 167.0 175.0 L 167.5 175.0 L 167.5 175.0 " stroke="black" fill="none" stroke-width="7.0" stroke-linecap="round" stroke-linejoin="round" />
<path d="M 152.0 170.5 L 152.5 170.0 L 153.0 169.5 L 153.5 169.0 L 154.0 169.0 L 154.0 170.5 L 153.5 175.5 L 150.5 184.0 L 145.0 194.0 L 141.5 198.5 L 140.0 199.5 L 139.0 199.0 L 139.0 197.0 " stroke="black" fill="none" stroke-width="7.0" stroke-linecap="round" stroke-linejoin="round" />
<path d="M 155.5 186.0 L 155.5 186.0 L 155.0 186.0 L 154.5 186.0 L 154.5 186.0 L 157.5 187.5 L 162.5 190.5 L 167.5 194.0 L 171.5 197.0 L 173.0 198.0 " stroke="black" fill="none" stroke-width="7.0" stroke-linecap="round" stroke-linejoin="round" />
</svg>