<svg xmlns="http://www.w3.org/2000/svg" width="300" height="300" viewBox="0 0 300 300">
<path d="M 129.0 107.5 L 129.0 107.5 L 129.0 107.5 L 129.5 107.5 L 135.5 107.5 L 148.0 107.0 L 163.0 106.0 L 174.5 105.0 L 181.0 105.0 L 183.0 105.5 L 181.0 106.5 " stroke="black" fill="none" stroke-width="8.0" stroke-linecap="round" stroke-linejoin="round" />
<path d="M 119.5 134.5 L 119.5 134.5 L 120.0 135.0 L 124.5 135.0 L 137.0 134.5 L 153.0 133.5 L 168.0 133.0 L 179.0 133.0 L 187.0 133.0 L 190.5 133.0 " stroke="black" fill="none" stroke-width="8.0" stroke-linecap="round" stroke-linejoin="round" />
<path d="M 158.5 90.0 L 159.0 90.0 L 159.5 89.5 L 160.0 89.5 L 160.0 90.0 L 160.0 93.5 L 159.0 102.0 L 154.5 120.0 L 147.0 143.5 L 140.0 161.0 L 133.5 170.5 L 128.0 175.5 L 124.5 177.5 L 123.5 177.5 L 124.0 177.0 " stroke="black" fill="none" stroke-width="8.0" stroke-linecap="round" stroke-linejoin="round" />
<path d="M 155.0 144.0 L 155.0 143.5 L 155.0 143.5 L 155.0 143.5 L 159.0 148.5 L 167.0 158.0 L 176.0 166.5 L 183.0 171.0 L 188.0 172.5 L 190.0 172.5 " stroke="black" fill="none" stroke-width="8.0" stroke-linecap="round" stroke-linejoin="round" />
</svg>