<svg xmlns="http://www.w3.org/2000/svg" width="300" height="300" viewBox="0 0 300 300">
<path d="M 142.8571428571429 69.28571428571429 L 142.8571428571429 69.28571428571429 L 141.42857142857144 67.85714285714288 L 141.42857142857144 67.85714285714288 L 141.42857142857144 67.85714285714288 L 142.8571428571429 70.71428571428574 L 146.42857142857144 77.85714285714288 L 150.71428571428572 85.71428571428574 L 155.00000000000006 92.14285714285715 L 157.8571428571429 94.28571428571432 L 158.5714285714286 94.28571428571432 L 158.5714285714286 93.5714285714286 " stroke="black" fill="none" stroke-width="8.0" stroke-linecap="round" stroke-linejoin="round" />
<path d="M 80.00000000000001 100.00000000000001 L 80.00000000000001 98.5714285714286 L 80.00000000000001 97.14285714285715 L 80.00000000000001 97.14285714285715 L 80.00000000000001 97.14285714285715 L 80.00000000000001 102.14285714285715 L 78.5714285714286 110.00000000000001 L 76.42857142857146 117.85714285714288 L 75.00000000000001 122.85714285714288 L 75.00000000000001 123.5714285714286 " stroke="black" fill="none" stroke-width="8.0" stroke-linecap="round" stroke-linejoin="round" />
<path d="M 87.85714285714288 101.42857142857146 L 87.14285714285715 101.42857142857146 L 85.71428571428574 100.71428571428574 L 85.00000000000001 100.71428571428574 L 84.28571428571432 100.71428571428574 L 84.28571428571432 100.71428571428574 L 84.28571428571432 100.00000000000001 L 85.71428571428574 100.00000000000001 L 89.28571428571432 99.28571428571432 L 95.71428571428574 98.5714285714286 L 106.42857142857146 97.85714285714288 L 120.00000000000001 97.85714285714288 L 135.71428571428572 97.85714285714288 L 150.71428571428572 97.85714285714288 L 165.00000000000006 97.85714285714288 L 179.28571428571433 97.85714285714288 L 192.14285714285722 97.14285714285715 L 201.4285714285715 97.14285714285715 L 207.8571428571429 97.14285714285715 L 210.71428571428578 97.14285714285715 L 210.71428571428578 97.14285714285715 L 210.71428571428578 97.14285714285715 L 210.00000000000006 97.14285714285715 L 210.00000000000006 97.14285714285715 L 210.71428571428578 97.14285714285715 L 212.8571428571429 97.14285714285715 L 215.71428571428578 96.42857142857146 L 217.8571428571429 95.71428571428574 L 220.00000000000006 95.71428571428574 L 220.71428571428578 95.71428571428574 L 220.71428571428578 95.71428571428574 L 220.71428571428578 95.71428571428574 L 220.71428571428578 95.71428571428574 L 220.71428571428578 95.71428571428574 L 221.4285714285715 95.71428571428574 L 221.4285714285715 95.71428571428574 L 221.4285714285715 95.71428571428574 L 222.14285714285722 95.71428571428574 L 222.14285714285722 95.71428571428574 L 222.8571428571429 95.71428571428574 L 222.8571428571429 95.71428571428574 L 222.8571428571429 95.71428571428574 L 222.8571428571429 95.71428571428574 L 222.8571428571429 95.71428571428574 L 223.5714285714286 95.71428571428574 L 223.5714285714286 95.71428571428574 L 223.5714285714286 96.42857142857146 L 223.5714285714286 96.42857142857146 L 223.5714285714286 96.42857142857146 L 224.28571428571433 96.42857142857146 L 224.28571428571433 96.42857142857146 L 224.28571428571433 96.42857142857146 L 224.28571428571433 96.42857142857146 L 225.00000000000006 96.42857142857146 L 225.00000000000006 96.42857142857146 L 225.00000000000006 96.42857142857146 L 225.71428571428578 96.42857142857146 L 225.71428571428578 97.14285714285715 L 225.71428571428578 97.14285714285715 L 225.71428571428578 97.14285714285715 L 226.4285714285715 97.14285714285715 L 226.4285714285715 97.14285714285715 L 226.4285714285715 97.14285714285715 L 226.4285714285715 97.85714285714288 L 226.4285714285715 99.28571428571432 L 226.4285714285715 101.42857142857146 L 225.71428571428578 104.28571428571432 L 225.00000000000006 107.85714285714288 L 224.28571428571433 111.42857142857146 L 223.5714285714286 115.00000000000001 L 222.8571428571429 117.14285714285718 L 222.8571428571429 117.85714285714288 L 222.8571428571429 117.85714285714288 " stroke="black" fill="none" stroke-width="8.0" stroke-linecap="round" stroke-linejoin="round" />
<path d="M 89.28571428571432 160.00000000000006 L 89.28571428571432 160.00000000000006 L 90.00000000000001 158.5714285714286 L 90.00000000000001 157.8571428571429 L 90.00000000000001 157.14285714285717 L 90.00000000000001 157.14285714285717 L 90.71428571428574 159.28571428571433 L 90.71428571428574 163.5714285714286 L 91.42857142857146 171.42857142857144 L 91.42857142857146 186.42857142857144 L 91.42857142857146 204.28571428571433 L 92.14285714285715 219.28571428571433 L 94.28571428571432 229.28571428571433 L 95.00000000000001 235.00000000000006 L 95.00000000000001 240.00000000000006 L 95.00000000000001 240.71428571428578 L 95.00000000000001 239.28571428571433 L 95.00000000000001 232.85714285714295 " stroke="black" fill="none" stroke-width="8.0" stroke-linecap="round" stroke-linejoin="round" />
<path d="M 91.42857142857146 161.42857142857144 L 90.00000000000001 161.42857142857144 L 88.5714285714286 161.42857142857144 L 87.85714285714288 161.42857142857144 L 87.85714285714288 161.42857142857144 L 88.5714285714286 161.42857142857144 L 91.42857142857146 160.71428571428572 L 96.42857142857146 159.28571428571433 L 106.42857142857146 157.14285714285717 L 121.42857142857146 155.71428571428572 L 139.28571428571433 154.28571428571433 L 155.00000000000006 154.28571428571433 L 169.28571428571433 153.5714285714286 L 182.14285714285717 152.14285714285717 L 192.14285714285722 152.14285714285717 L 197.14285714285722 152.8571428571429 L 200.00000000000006 153.5714285714286 L 200.00000000000006 154.28571428571433 L 200.00000000000006 154.28571428571433 L 200.00000000000006 154.28571428571433 L 199.28571428571433 154.28571428571433 L 199.28571428571433 154.28571428571433 L 199.28571428571433 154.28571428571433 L 199.28571428571433 155.00000000000006 L 199.28571428571433 155.00000000000006 L 199.28571428571433 155.71428571428572 L 200.00000000000006 156.42857142857144 L 200.71428571428578 156.42857142857144 L 201.4285714285715 156.42857142857144 L 202.14285714285722 156.42857142857144 L 202.14285714285722 156.42857142857144 L 202.8571428571429 156.42857142857144 L 203.5714285714286 156.42857142857144 L 203.5714285714286 156.42857142857144 L 204.28571428571433 157.14285714285717 L 204.28571428571433 157.14285714285717 L 204.28571428571433 157.8571428571429 L 205.00000000000006 157.8571428571429 L 205.00000000000006 158.5714285714286 L 205.00000000000006 158.5714285714286 L 205.00000000000006 160.00000000000006 L 205.00000000000006 162.14285714285717 L 205.00000000000006 165.00000000000006 L 205.00000000000006 168.5714285714286 L 205.00000000000006 172.8571428571429 L 205.00000000000006 177.8571428571429 L 205.00000000000006 183.5714285714286 L 205.00000000000006 189.28571428571433 L 205.00000000000006 195.71428571428578 L 205.00000000000006 202.14285714285722 L 205.00000000000006 208.5714285714286 L 205.00000000000006 214.28571428571433 L 205.00000000000006 221.4285714285715 L 205.00000000000006 227.8571428571429 L 205.71428571428578 232.85714285714295 L 205.71428571428578 237.85714285714295 L 206.4285714285715 241.4285714285715 L 206.4285714285715 242.85714285714295 L 206.4285714285715 242.85714285714295 L 206.4285714285715 241.4285714285715 L 205.71428571428578 237.14285714285722 L 205.71428571428578 236.4285714285715 " stroke="black" fill="none" stroke-width="8.0" stroke-linecap="round" stroke-linejoin="round" />
<path d="M 100.71428571428574 200.00000000000006 L 100.71428571428574 200.00000000000006 L 100.00000000000001 200.00000000000006 L 99.28571428571432 199.28571428571433 L 98.5714285714286 198.5714285714286 L 100.00000000000001 197.8571428571429 L 106.42857142857146 197.14285714285722 L 119.28571428571432 195.71428571428578 L 140.71428571428572 194.28571428571433 L 162.8571428571429 192.8571428571429 L 180.00000000000006 192.14285714285722 L 189.28571428571433 192.8571428571429 L 195.00000000000006 194.28571428571433 L 199.28571428571433 194.28571428571433 L 201.4285714285715 194.28571428571433 L 203.5714285714286 193.5714285714286 L 204.28571428571433 192.8571428571429 L 205.00000000000006 192.8571428571429 L 205.00000000000006 192.8571428571429 L 205.00000000000006 192.14285714285722 L 205.00000000000006 192.14285714285722 " stroke="black" fill="none" stroke-width="8.0" stroke-linecap="round" stroke-linejoin="round" />
<path d="M 150.00000000000006 120.71428571428574 L 149.28571428571433 120.71428571428574 L 148.5714285714286 120.71428571428574 L 147.8571428571429 120.71428571428574 L 147.8571428571429 120.71428571428574 L 148.5714285714286 121.42857142857146 L 149.28571428571433 125.00000000000001 L 150.71428571428572 132.14285714285717 L 151.42857142857144 146.42857142857144 L 152.14285714285717 162.8571428571429 L 152.14285714285717 176.42857142857144 L 152.14285714285717 187.8571428571429 L 152.14285714285717 197.8571428571429 L 152.8571428571429 205.00000000000006 L 153.5714285714286 210.71428571428578 L 154.28571428571433 215.71428571428578 L 155.00000000000006 220.00000000000006 L 155.00000000000006 223.5714285714286 L 155.71428571428572 225.71428571428578 L 155.71428571428572 226.4285714285715 L 155.71428571428572 226.4285714285715 L 155.71428571428572 226.4285714285715 L 155.71428571428572 226.4285714285715 L 155.71428571428572 226.4285714285715 L 155.71428571428572 226.4285714285715 L 155.71428571428572 227.14285714285722 L 155.71428571428572 227.14285714285722 L 156.42857142857144 227.14285714285722 L 156.42857142857144 227.8571428571429 L 156.42857142857144 227.8571428571429 L 156.42857142857144 229.28571428571433 L 156.42857142857144 230.00000000000006 L 156.42857142857144 230.71428571428578 L 156.42857142857144 230.71428571428578 L 156.42857142857144 231.4285714285715 L 156.42857142857144 231.4285714285715 L 156.42857142857144 231.4285714285715 L 156.42857142857144 231.4285714285715 " stroke="black" fill="none" stroke-width="8.0" stroke-linecap="round" stroke-linejoin="round" />
<path d="M 97.14285714285715 247.85714285714295 L 97.14285714285715 247.85714285714295 L 96.42857142857146 247.85714285714295 L 96.42857142857146 247.14285714285722 L 96.42857142857146 247.14285714285722 L 96.42857142857146 246.4285714285715 L 96.42857142857146 245.71428571428578 L 96.42857142857146 245.00000000000006 L 97.85714285714288 245.00000000000006 L 100.00000000000001 244.28571428571433 L 102.14285714285715 243.5714285714286 L 105.71428571428574 243.5714285714286 L 110.71428571428574 243.5714285714286 L 116.42857142857146 242.85714285714295 L 122.14285714285718 242.85714285714295 L 129.28571428571433 242.14285714285722 L 137.14285714285717 241.4285714285715 L 144.28571428571433 240.00000000000006 L 150.71428571428572 239.28571428571433 L 157.14285714285717 238.5714285714286 L 163.5714285714286 237.85714285714295 L 170.00000000000006 237.85714285714295 L 176.42857142857144 237.85714285714295 L 181.42857142857144 237.85714285714295 L 187.14285714285717 238.5714285714286 L 191.42857142857144 238.5714285714286 L 194.28571428571433 238.5714285714286 L 196.4285714285715 238.5714285714286 L 197.14285714285722 238.5714285714286 L 197.8571428571429 238.5714285714286 L 197.8571428571429 238.5714285714286 L 197.8571428571429 238.5714285714286 L 197.8571428571429 238.5714285714286 L 198.5714285714286 238.5714285714286 L 199.28571428571433 238.5714285714286 L 200.00000000000006 238.5714285714286 L 201.4285714285715 238.5714285714286 L 202.14285714285722 238.5714285714286 L 202.14285714285722 238.5714285714286 L 202.8571428571429 238.5714285714286 L 203.5714285714286 238.5714285714286 L 203.5714285714286 238.5714285714286 L 204.28571428571433 238.5714285714286 L 204.28571428571433 238.5714285714286 L 204.28571428571433 238.5714285714286 L 204.28571428571433 238.5714285714286 " stroke="black" fill="none" stroke-width="8.0" stroke-linecap="round" stroke-linejoin="round" />
</svg>