<svg xmlns="http://www.w3.org/2000/svg" width="300" height="300" viewBox="0 0 300 300">
<path d="M 140.55555555555557 94.44444444444444 L 140.55555555555557 94.44444444444444 L 140.55555555555557 94.44444444444444 L 141.11111111111111 95.0 L 143.33333333333334 97.22222222222223 L 146.66666666666669 100.55555555555556 L 148.8888888888889 103.33333333333333 L 150.00000000000003 103.88888888888889 " stroke="black" fill="none" stroke-width="7.0" stroke-linecap="round" stroke-linejoin="round" />
<path d="M 119.44444444444444 110.55555555555556 L 118.8888888888889 110.55555555555556 L 117.77777777777779 110.55555555555556 L 117.22222222222221 110.55555555555556 L 117.22222222222221 111.11111111111111 L 117.22222222222221 115.00000000000001 L 116.66666666666667 121.1111111111111 L 115.55555555555556 126.66666666666667 L 115.55555555555556 128.33333333333334 L 115.55555555555556 128.33333333333334 " stroke="black" fill="none" stroke-width="7.0" stroke-linecap="round" stroke-linejoin="round" />
<path d="M 122.77777777777779 113.33333333333333 L 122.22222222222221 113.33333333333333 L 121.66666666666667 113.8888888888889 L 123.8888888888889 113.33333333333333 L 129.44444444444446 112.22222222222221 L 140.00000000000003 110.0 L 153.8888888888889 108.33333333333333 L 167.7777777777778 106.66666666666667 L 177.22222222222223 105.55555555555556 L 181.66666666666669 105.55555555555556 L 181.66666666666669 105.55555555555556 L 181.11111111111114 106.11111111111111 L 180.00000000000003 106.11111111111111 L 179.44444444444446 107.22222222222223 L 178.8888888888889 108.88888888888889 L 177.7777777777778 111.66666666666667 L 176.11111111111114 117.22222222222221 L 173.33333333333334 122.77777777777779 L 172.22222222222223 126.66666666666667 L 171.66666666666669 127.22222222222221 " stroke="black" fill="none" stroke-width="7.0" stroke-linecap="round" stroke-linejoin="round" />
<path d="M 131.11111111111111 125.00000000000001 L 131.66666666666669 125.00000000000001 L 132.7777777777778 124.44444444444444 L 133.8888888888889 123.33333333333333 L 136.66666666666669 122.77777777777779 L 142.22222222222223 121.66666666666667 L 149.44444444444446 121.1111111111111 L 158.8888888888889 120.00000000000001 " stroke="black" fill="none" stroke-width="7.0" stroke-linecap="round" stroke-linejoin="round" />
<path d="M 124.44444444444444 143.8888888888889 L 123.33333333333333 143.8888888888889 L 122.22222222222221 143.33333333333334 L 122.22222222222221 142.22222222222223 L 125.00000000000001 141.11111111111111 L 130.55555555555557 139.44444444444446 L 140.00000000000003 137.7777777777778 L 150.55555555555557 137.7777777777778 L 161.11111111111111 136.66666666666669 L 169.44444444444446 135.55555555555557 L 171.11111111111114 133.8888888888889 " stroke="black" fill="none" stroke-width="7.0" stroke-linecap="round" stroke-linejoin="round" />
<path d="M 146.11111111111111 139.44444444444446 L 146.11111111111111 139.44444444444446 L 145.00000000000003 139.44444444444446 L 145.00000000000003 139.44444444444446 L 145.00000000000003 139.44444444444446 L 145.00000000000003 140.00000000000003 L 146.11111111111111 142.22222222222223 L 146.66666666666669 147.22222222222223 L 147.22222222222223 156.66666666666669 L 147.7777777777778 169.44444444444446 L 148.33333333333334 178.33333333333334 L 148.33333333333334 181.11111111111114 L 148.8888888888889 182.22222222222223 L 148.8888888888889 182.7777777777778 " stroke="black" fill="none" stroke-width="7.0" stroke-linecap="round" stroke-linejoin="round" />
<path d="M 135.55555555555557 156.66666666666669 L 135.55555555555557 156.66666666666669 L 136.11111111111111 156.66666666666669 L 136.11111111111111 156.66666666666669 L 136.11111111111111 157.22222222222223 L 134.44444444444446 160.55555555555557 L 130.00000000000003 167.22222222222223 L 126.1111111111111 173.33333333333334 L 124.44444444444444 176.11111111111114 L 124.44444444444444 176.11111111111114 " stroke="black" fill="none" stroke-width="7.0" stroke-linecap="round" stroke-linejoin="round" />
<path d="M 163.8888888888889 157.7777777777778 L 163.8888888888889 160.00000000000003 L 165.55555555555557 162.22222222222223 L 170.00000000000003 165.00000000000003 L 176.11111111111114 170.00000000000003 L 183.33333333333334 171.66666666666669 L 184.44444444444446 172.22222222222223 " stroke="black" fill="none" stroke-width="7.0" stroke-linecap="round" stroke-linejoin="round" />
</svg>