<svg xmlns="http://www.w3.org/2000/svg" width="300" height="300" viewBox="0 0 300 300">
<path d="M 138.0 67.0 L 138.0 67.0 L 137.0 67.0 L 137.0 67.0 L 136.0 67.0 L 136.0 68.0 L 139.0 71.0 L 144.0 77.0 L 149.0 82.0 L 154.0 86.0 L 157.0 89.0 L 158.0 90.0 " stroke="black" fill="none" stroke-width="8.0" stroke-linecap="round" stroke-linejoin="round" />
<path d="M 78.0 97.0 L 78.0 97.0 L 78.0 97.0 L 78.0 97.0 L 78.0 101.0 L 78.0 108.0 L 77.0 116.0 L 76.0 120.0 L 76.0 120.0 " stroke="black" fill="none" stroke-width="8.0" stroke-linecap="round" stroke-linejoin="round" />
<path d="M 79.0 99.0 L 78.0 98.0 L 77.0 97.0 L 77.0 96.0 L 78.0 96.0 L 82.0 95.0 L 91.0 95.0 L 103.0 95.0 L 121.0 95.0 L 142.0 94.0 L 163.0 92.0 L 180.0 91.0 L 197.0 90.0 L 212.0 90.0 L 225.0 90.0 L 233.0 92.0 L 236.0 93.0 L 236.0 93.0 L 234.0 93.0 L 234.0 93.0 L 233.0 93.0 L 233.0 93.0 L 232.0 93.0 L 232.0 93.0 L 231.0 94.0 L 231.0 94.0 L 230.0 96.0 L 229.0 98.0 L 227.0 102.0 L 226.0 106.0 L 225.0 109.0 L 224.0 111.0 L 224.0 113.0 L 224.0 113.0 " stroke="black" fill="none" stroke-width="8.0" stroke-linecap="round" stroke-linejoin="round" />
<path d="M 106.0 132.0 L 105.0 132.0 L 104.0 132.0 L 102.0 132.0 L 101.0 132.0 L 101.0 132.0 L 106.0 132.0 L 118.0 133.0 L 138.0 135.0 L 164.0 135.0 L 183.0 135.0 L 189.0 135.0 L 188.0 135.0 L 185.0 135.0 L 184.0 135.0 L 184.0 135.0 " stroke="black" fill="none" stroke-width="8.0" stroke-linecap="round" stroke-linejoin="round" />
<path d="M 81.0 181.0 L 81.0 181.0 L 81.0 180.0 L 81.0 179.0 L 83.0 179.0 L 94.0 180.0 L 115.0 182.0 L 145.0 183.0 L 176.0 180.0 L 199.0 176.0 L 210.0 175.0 L 211.0 176.0 L 208.0 178.0 L 206.0 178.0 L 205.0 178.0 " stroke="black" fill="none" stroke-width="8.0" stroke-linecap="round" stroke-linejoin="round" />
<path d="M 155.0 141.0 L 154.0 140.0 L 154.0 138.0 L 154.0 138.0 L 153.0 137.0 L 153.0 138.0 L 153.0 144.0 L 154.0 155.0 L 154.0 171.0 L 155.0 191.0 L 156.0 207.0 L 158.0 219.0 L 158.0 228.0 L 159.0 235.0 L 157.0 241.0 L 154.0 244.0 L 150.0 245.0 L 144.0 245.0 L 138.0 243.0 L 132.0 242.0 L 128.0 240.0 L 127.0 236.0 " stroke="black" fill="none" stroke-width="8.0" stroke-linecap="round" stroke-linejoin="round" />
</svg>