<svg xmlns="http://www.w3.org/2000/svg" width="300" height="300" viewBox="0 0 300 300">
<path d="M 146.0 94.5 L 145.5 94.5 L 145.5 94.5 L 145.0 94.5 L 145.0 94.5 L 145.0 94.5 L 145.5 95.0 L 147.5 96.0 L 150.0 97.5 L 152.5 99.5 L 153.0 100.0 " stroke="black" fill="none" stroke-width="7.0" stroke-linecap="round" stroke-linejoin="round" />
<path d="M 126.0 111.5 L 126.0 111.5 L 125.5 111.0 L 125.0 110.5 L 125.0 110.0 L 124.5 110.0 L 124.5 109.5 L 124.5 110.0 L 124.5 112.5 L 123.5 116.5 L 122.5 121.0 L 122.0 123.5 L 122.0 124.0 " stroke="black" fill="none" stroke-width="7.0" stroke-linecap="round" stroke-linejoin="round" />
<path d="M 126.0 109.0 L 125.5 109.5 L 124.5 110.0 L 124.5 110.0 L 125.0 110.0 L 126.5 110.0 L 128.0 110.0 L 129.5 110.0 L 131.5 110.0 L 134.5 110.0 L 139.0 110.0 L 144.5 109.5 L 150.0 109.0 L 155.0 108.5 L 159.5 108.5 L 163.0 108.5 L 166.5 108.5 L 169.5 108.5 L 171.5 108.5 L 174.0 108.0 L 176.5 107.5 L 178.5 107.5 L 180.0 107.5 L 181.5 107.5 L 182.0 107.5 L 182.0 107.5 L 182.0 107.5 L 182.0 107.5 L 182.0 107.5 L 182.0 107.5 L 182.0 107.5 L 181.5 107.5 L 181.5 107.5 L 181.5 107.5 L 181.5 107.5 L 181.5 107.0 L 182.0 107.0 L 182.5 107.0 L 183.0 107.0 L 183.0 107.0 L 183.5 107.0 L 184.0 107.0 L 184.0 107.0 L 184.5 107.0 L 184.5 107.0 L 185.0 107.0 L 185.0 107.0 L 185.0 107.0 L 185.0 107.0 L 185.5 107.0 L 185.5 107.0 L 186.0 107.0 L 186.0 107.0 L 186.5 107.0 L 186.5 107.0 L 186.5 107.0 L 187.0 107.0 L 187.0 107.0 L 187.0 107.0 L 187.0 107.0 L 187.0 107.0 L 187.0 107.0 L 187.0 107.0 L 187.0 107.0 L 187.0 107.5 L 187.0 107.5 L 186.5 108.0 L 186.0 108.5 L 185.5 109.5 L 185.0 111.5 L 184.0 114.0 L 182.5 116.5 L 182.0 118.5 L 181.5 120.0 L 181.0 121.5 L 180.5 122.0 L 180.5 122.5 L 180.5 122.5 L 180.5 122.5 " stroke="black" fill="none" stroke-width="7.0" stroke-linecap="round" stroke-linejoin="round" />
<path d="M 132.5 121.5 L 132.5 121.5 L 132.5 120.5 L 132.5 120.0 L 132.5 119.5 L 134.0 120.0 L 136.0 121.0 L 137.5 122.5 L 139.0 124.0 L 139.0 125.0 " stroke="black" fill="none" stroke-width="7.0" stroke-linecap="round" stroke-linejoin="round" />
<path d="M 128.0 136.0 L 127.5 136.5 L 126.5 137.0 L 126.5 137.5 L 128.0 137.0 L 131.5 136.0 L 136.0 135.5 L 140.5 135.0 L 144.0 135.0 L 145.5 134.0 " stroke="black" fill="none" stroke-width="7.0" stroke-linecap="round" stroke-linejoin="round" />
<path d="M 128.0 146.5 L 127.0 146.5 L 126.0 146.0 L 125.5 146.0 L 125.5 146.5 L 127.0 148.5 L 129.5 150.5 L 132.0 152.0 L 133.0 152.5 " stroke="black" fill="none" stroke-width="7.0" stroke-linecap="round" stroke-linejoin="round" />
<path d="M 144.5 143.5 L 144.5 143.5 L 144.5 143.5 L 144.5 143.5 L 144.5 143.5 L 144.5 144.0 L 143.5 145.5 L 142.0 148.5 L 140.5 151.0 " stroke="black" fill="none" stroke-width="7.0" stroke-linecap="round" stroke-linejoin="round" />
<path d="M 128.0 159.0 L 127.0 159.5 L 125.5 160.5 L 125.0 160.5 L 126.5 160.5 L 130.5 160.0 L 136.0 159.0 L 141.5 157.5 L 145.5 157.0 L 147.0 156.5 " stroke="black" fill="none" stroke-width="7.0" stroke-linecap="round" stroke-linejoin="round" />
<path d="M 130.5 170.5 L 130.5 170.0 L 130.5 169.5 L 131.0 169.0 L 131.0 168.5 L 131.5 168.5 L 131.5 168.0 L 131.5 170.5 L 132.0 178.0 L 131.0 188.5 L 130.5 196.5 L 130.0 198.0 L 130.0 197.5 " stroke="black" fill="none" stroke-width="7.0" stroke-linecap="round" stroke-linejoin="round" />
<path d="M 132.0 171.0 L 132.0 171.5 L 132.0 171.5 L 132.0 171.5 L 133.5 171.0 L 136.0 169.5 L 138.5 168.5 L 141.0 168.0 L 143.5 167.5 L 145.0 167.5 L 146.0 167.5 L 146.0 167.5 L 146.5 167.5 L 146.5 167.5 L 146.5 167.5 L 146.5 167.5 L 146.5 167.5 L 146.5 167.5 L 146.5 167.5 L 146.5 167.5 L 147.0 167.5 L 147.0 167.5 L 147.0 167.5 L 147.0 167.5 L 147.5 167.5 L 147.5 168.0 L 147.5 168.0 L 147.5 168.0 L 147.5 168.0 L 147.5 168.0 L 147.5 168.0 L 147.5 168.5 L 147.5 168.5 L 147.5 168.5 L 147.5 168.5 L 147.5 169.0 L 147.5 170.0 L 148.0 172.0 L 148.0 174.5 L 148.5 178.0 L 148.5 181.5 L 149.0 185.0 L 149.0 188.5 L 149.0 191.5 L 149.5 194.0 L 149.5 195.5 L 149.5 197.0 L 149.0 197.5 L 148.5 198.0 L 147.5 198.0 L 146.0 198.0 L 145.0 198.0 L 144.5 198.0 " stroke="black" fill="none" stroke-width="7.0" stroke-linecap="round" stroke-linejoin="round" />
<path d="M 138.5 179.5 L 138.5 179.5 L 138.5 180.0 L 138.5 180.5 L 138.5 181.0 L 139.5 181.5 L 140.5 182.0 L 140.5 182.0 " stroke="black" fill="none" stroke-width="7.0" stroke-linecap="round" stroke-linejoin="round" />
<path d="M 135.0 190.5 L 135.0 190.5 L 135.5 190.5 L 136.5 190.5 L 138.5 190.0 L 141.0 188.5 L 142.5 187.5 " stroke="black" fill="none" stroke-width="7.0" stroke-linecap="round" stroke-linejoin="round" />
<path d="M 162.0 132.5 L 162.0 132.5 L 161.0 132.5 L 160.5 133.0 L 160.5 133.0 L 163.0 132.5 L 167.0 132.0 L 171.0 132.0 L 174.0 131.5 L 176.0 131.0 L 176.0 130.5 " stroke="black" fill="none" stroke-width="7.0" stroke-linecap="round" stroke-linejoin="round" />
<path d="M 159.5 122.5 L 159.5 122.5 L 159.0 122.5 L 158.5 122.0 L 158.0 122.0 L 158.0 122.0 L 158.0 122.5 L 158.0 124.5 L 158.0 127.5 L 158.5 131.0 L 159.0 135.5 L 159.0 139.5 L 159.5 143.0 L 159.5 145.0 L 160.0 145.5 L 160.0 145.5 L 160.0 145.5 L 161.0 145.5 L 162.0 145.0 L 163.0 144.5 L 164.5 144.5 L 166.5 144.0 L 168.5 144.0 L 171.0 143.5 L 174.0 143.0 L 176.0 143.0 L 178.0 142.5 L 179.5 142.0 L 180.0 142.0 L 180.5 142.0 L 180.5 142.0 L 180.5 142.0 L 180.5 142.0 L 180.0 142.0 L 180.0 142.0 L 180.0 142.0 L 180.0 142.0 L 179.5 142.0 L 179.5 142.5 L 179.5 142.5 L 179.5 143.0 L 179.5 143.5 L 179.0 144.5 L 179.0 146.0 L 179.0 148.0 L 179.0 149.0 L 179.0 150.0 L 179.0 150.5 L 179.0 151.5 L 179.0 152.5 L 179.0 153.5 L 179.0 154.0 L 178.5 154.0 L 178.5 154.0 " stroke="black" fill="none" stroke-width="7.0" stroke-linecap="round" stroke-linejoin="round" />
<path d="M 162.5 157.5 L 162.5 157.5 L 162.5 157.5 L 162.0 157.5 L 162.0 157.5 L 162.5 157.5 L 165.0 157.0 L 168.5 156.5 L 172.0 155.5 L 175.0 155.0 L 176.5 154.5 " stroke="black" fill="none" stroke-width="7.0" stroke-linecap="round" stroke-linejoin="round" />
<path d="M 158.5 158.5 L 158.5 158.5 L 158.5 158.5 L 158.5 158.5 L 158.5 158.5 L 158.5 158.5 L 158.5 158.5 L 158.5 158.5 L 158.5 160.0 L 158.5 162.0 L 158.5 165.0 L 159.0 168.5 L 159.0 171.0 L 159.0 173.5 L 159.0 175.5 L 159.0 177.5 L 159.0 179.5 L 159.0 181.0 L 159.0 182.5 L 159.0 183.5 L 159.0 185.0 L 159.0 186.5 L 159.0 187.5 L 159.0 189.0 L 159.0 189.5 L 159.0 190.5 L 159.0 191.5 L 159.5 192.5 L 159.5 193.0 L 160.0 194.0 L 160.5 195.0 L 161.0 195.5 L 161.5 196.0 L 162.0 196.5 L 163.0 197.5 L 164.0 198.0 L 164.5 198.5 L 166.0 199.0 L 167.5 199.5 L 169.5 199.5 L 171.5 200.0 L 174.0 200.0 L 176.0 199.5 L 177.5 199.0 L 179.0 198.5 L 180.0 197.5 L 181.0 196.0 L 182.5 195.0 L 183.0 193.5 L 184.0 193.0 L 184.5 192.0 L 185.0 191.5 L 185.0 190.5 L 185.0 189.5 L 185.0 189.0 L 185.0 188.5 L 185.0 188.0 L 184.5 188.0 " stroke="black" fill="none" stroke-width="7.0" stroke-linecap="round" stroke-linejoin="round" />
<path d="M 163.5 168.5 L 163.5 168.0 L 163.5 167.5 L 163.0 167.0 L 164.5 166.0 L 167.5 165.5 L 170.5 165.5 L 174.0 165.5 L 176.0 165.0 L 176.5 165.0 " stroke="black" fill="none" stroke-width="7.0" stroke-linecap="round" stroke-linejoin="round" />
<path d="M 165.0 175.5 L 164.0 176.0 L 163.5 176.5 L 163.0 177.0 L 164.0 177.0 L 166.0 176.5 L 168.5 175.5 L 171.0 175.0 L 173.5 174.5 L 175.0 174.0 " stroke="black" fill="none" stroke-width="7.0" stroke-linecap="round" stroke-linejoin="round" />
<path d="M 163.5 185.5 L 162.5 186.0 L 161.5 186.5 L 161.0 186.5 L 161.0 186.5 L 162.0 186.5 L 164.5 186.5 L 168.5 186.0 L 172.5 186.0 L 175.0 185.5 " stroke="black" fill="none" stroke-width="7.0" stroke-linecap="round" stroke-linejoin="round" />
</svg>