<svg xmlns="http://www.w3.org/2000/svg" width="300" height="300" viewBox="0 0 300 300">
<path d="M 146.0 84.5 L 145.5 84.5 L 144.5 84.5 L 144.5 84.5 L 145.5 86.0 L 147.5 90.0 L 150.0 94.5 L 151.5 96.5 L 153.0 98.0 L 153.0 99.0 " stroke="black" fill="none" stroke-width="9.0" stroke-linecap="round" stroke-linejoin="round" />
<path d="M 117.0 107.5 L 117.5 106.5 L 118.0 106.0 L 118.0 106.0 L 118.0 107.0 L 117.5 111.0 L 115.0 117.5 L 111.5 125.5 L 109.5 129.0 L 109.5 129.0 L 110.0 128.0 " stroke="black" fill="none" stroke-width="9.0" stroke-linecap="round" stroke-linejoin="round" />
<path d="M 121.5 110.5 L 121.0 110.5 L 119.5 111.0 L 119.5 111.5 L 120.0 111.5 L 123.5 111.5 L 129.0 111.5 L 137.5 111.0 L 150.0 109.5 L 163.0 107.5 L 172.0 106.5 L 177.5 106.0 L 181.0 105.0 L 183.5 104.5 L 184.5 104.5 L 185.0 104.5 L 185.0 105.0 L 185.5 105.5 L 185.5 106.5 L 185.5 108.5 L 185.5 112.0 L 185.5 116.0 L 185.0 119.0 L 185.0 121.5 L 185.0 122.5 " stroke="black" fill="none" stroke-width="9.0" stroke-linecap="round" stroke-linejoin="round" />
<path d="M 143.0 126.5 L 143.0 126.0 L 143.0 125.5 L 143.0 125.0 L 143.0 125.0 L 143.0 125.0 L 143.0 126.5 L 142.5 130.0 L 140.5 135.5 L 138.0 143.5 L 135.5 151.0 L 134.5 154.0 L 134.0 156.0 L 134.0 157.0 L 134.0 158.0 L 134.0 159.0 L 134.0 160.5 L 134.5 162.0 L 134.5 163.5 L 135.5 165.5 L 137.0 167.0 L 139.0 169.0 L 141.5 171.0 L 145.0 174.0 L 149.0 177.5 L 154.0 182.0 L 160.0 186.5 L 166.0 191.0 L 171.0 195.5 L 175.5 199.5 L 179.5 202.5 L 183.0 204.5 L 184.5 205.0 L 185.0 205.5 L 185.0 205.0 L 184.5 201.5 " stroke="black" fill="none" stroke-width="9.0" stroke-linecap="round" stroke-linejoin="round" />
<path d="M 165.5 140.0 L 164.5 140.0 L 164.0 140.0 L 164.0 140.0 L 164.0 141.0 L 164.0 143.5 L 163.0 148.0 L 162.0 154.5 L 160.0 162.5 L 158.0 170.5 L 155.5 176.5 L 153.5 182.5 L 151.0 189.0 L 148.0 195.0 L 145.0 201.0 L 141.5 205.5 L 139.0 208.0 L 137.0 210.0 L 137.0 210.0 L 137.0 208.0 " stroke="black" fill="none" stroke-width="9.0" stroke-linecap="round" stroke-linejoin="round" />
<path d="M 119.5 151.0 L 119.0 151.0 L 118.5 151.5 L 118.5 151.5 L 120.5 152.0 L 125.0 152.0 L 132.5 151.0 L 142.5 150.0 L 151.0 149.0 L 158.0 148.5 L 163.0 148.5 L 165.0 148.5 L 165.0 149.0 L 165.0 149.0 L 165.0 149.0 " stroke="black" fill="none" stroke-width="9.0" stroke-linecap="round" stroke-linejoin="round" />
</svg>