<svg xmlns="http://www.w3.org/2000/svg" width="300" height="300" viewBox="0 0 300 300">
<path d="M 143.33333333333334 88.88888888888889 L 142.22222222222223 88.33333333333333 L 141.11111111111111 87.77777777777777 L 141.66666666666669 87.22222222222223 L 143.8888888888889 87.22222222222223 L 147.22222222222223 89.44444444444444 L 150.55555555555557 91.66666666666667 L 152.22222222222223 93.33333333333333 L 152.7777777777778 93.33333333333333 " stroke="black" fill="none" stroke-width="7.0" stroke-linecap="round" stroke-linejoin="round" />
<path d="M 116.1111111111111 103.33333333333333 L 116.1111111111111 103.33333333333333 L 116.1111111111111 102.22222222222223 L 116.1111111111111 102.22222222222223 L 116.1111111111111 102.22222222222223 L 115.55555555555556 105.55555555555556 L 113.8888888888889 111.11111111111111 L 113.33333333333333 115.00000000000001 L 112.77777777777779 116.66666666666667 " stroke="black" fill="none" stroke-width="7.0" stroke-linecap="round" stroke-linejoin="round" />
<path d="M 117.22222222222221 106.66666666666667 L 117.22222222222221 106.66666666666667 L 116.66666666666667 106.66666666666667 L 116.1111111111111 107.22222222222223 L 117.77777777777779 107.22222222222223 L 121.66666666666667 106.11111111111111 L 127.77777777777779 105.55555555555556 L 138.8888888888889 103.88888888888889 L 152.7777777777778 101.66666666666667 L 167.7777777777778 98.33333333333333 L 176.11111111111114 97.77777777777777 L 180.00000000000003 98.33333333333333 L 181.11111111111114 99.44444444444444 L 181.11111111111114 100.0 L 181.11111111111114 100.0 L 181.11111111111114 100.0 L 181.66666666666669 100.0 L 181.66666666666669 100.0 L 181.66666666666669 100.0 L 181.66666666666669 100.0 L 181.66666666666669 100.55555555555556 L 181.11111111111114 101.66666666666667 L 180.55555555555557 103.88888888888889 L 179.44444444444446 106.66666666666667 L 178.33333333333334 110.55555555555556 L 177.7777777777778 113.8888888888889 L 177.22222222222223 116.66666666666667 L 177.22222222222223 117.22222222222221 " stroke="black" fill="none" stroke-width="7.0" stroke-linecap="round" stroke-linejoin="round" />
<path d="M 125.00000000000001 120.55555555555556 L 124.44444444444444 120.55555555555556 L 123.8888888888889 120.55555555555556 L 123.33333333333333 120.55555555555556 L 122.77777777777779 121.66666666666667 L 121.66666666666667 124.44444444444444 L 120.55555555555556 127.22222222222221 L 119.44444444444444 128.8888888888889 L 119.44444444444444 129.44444444444446 " stroke="black" fill="none" stroke-width="7.0" stroke-linecap="round" stroke-linejoin="round" />
<path d="M 135.55555555555557 121.1111111111111 L 135.55555555555557 120.55555555555556 L 135.55555555555557 120.00000000000001 L 135.55555555555557 119.44444444444444 L 135.55555555555557 119.44444444444444 L 135.55555555555557 119.44444444444444 L 135.55555555555557 119.44444444444444 L 135.55555555555557 121.1111111111111 L 135.55555555555557 123.8888888888889 L 135.55555555555557 126.66666666666667 L 137.22222222222223 130.00000000000003 L 140.00000000000003 132.22222222222223 L 143.33333333333334 133.33333333333334 L 147.22222222222223 133.8888888888889 L 150.55555555555557 133.8888888888889 L 154.44444444444446 133.33333333333334 L 157.7777777777778 132.22222222222223 L 159.44444444444446 131.66666666666669 L 159.44444444444446 130.55555555555557 L 159.44444444444446 130.00000000000003 L 158.8888888888889 130.00000000000003 " stroke="black" fill="none" stroke-width="7.0" stroke-linecap="round" stroke-linejoin="round" />
<path d="M 146.66666666666669 116.66666666666667 L 146.11111111111111 116.66666666666667 L 145.55555555555557 116.66666666666667 L 145.55555555555557 116.66666666666667 L 146.66666666666669 117.22222222222221 L 148.8888888888889 117.77777777777779 L 150.00000000000003 118.8888888888889 " stroke="black" fill="none" stroke-width="7.0" stroke-linecap="round" stroke-linejoin="round" />
<path d="M 159.44444444444446 113.8888888888889 L 159.44444444444446 113.8888888888889 L 159.44444444444446 113.8888888888889 L 159.44444444444446 113.8888888888889 L 160.00000000000003 113.8888888888889 L 161.66666666666669 114.44444444444444 L 163.33333333333334 116.1111111111111 L 165.55555555555557 118.33333333333333 L 165.55555555555557 118.8888888888889 " stroke="black" fill="none" stroke-width="7.0" stroke-linecap="round" stroke-linejoin="round" />
<path d="M 121.66666666666667 148.33333333333334 L 121.1111111111111 148.33333333333334 L 120.55555555555556 147.7777777777778 L 120.55555555555556 147.22222222222223 L 121.1111111111111 147.22222222222223 L 122.77777777777779 148.8888888888889 L 123.8888888888889 151.66666666666669 L 125.00000000000001 154.44444444444446 L 125.55555555555556 155.55555555555557 " stroke="black" fill="none" stroke-width="7.0" stroke-linecap="round" stroke-linejoin="round" />
<path d="M 123.8888888888889 142.7777777777778 L 123.33333333333333 142.7777777777778 L 122.77777777777779 142.7777777777778 L 122.77777777777779 142.7777777777778 L 125.55555555555556 142.7777777777778 L 130.55555555555557 141.66666666666669 L 137.7777777777778 141.11111111111111 L 146.66666666666669 140.00000000000003 L 156.66666666666669 139.44444444444446 L 165.55555555555557 138.8888888888889 L 173.33333333333334 138.8888888888889 L 178.33333333333334 139.44444444444446 L 178.8888888888889 141.11111111111111 L 178.33333333333334 142.7777777777778 L 177.7777777777778 142.7777777777778 L 177.7777777777778 142.7777777777778 L 177.7777777777778 142.7777777777778 L 177.7777777777778 142.22222222222223 L 177.22222222222223 142.22222222222223 L 177.22222222222223 142.7777777777778 L 176.66666666666669 143.33333333333334 L 176.66666666666669 143.8888888888889 L 176.11111111111114 145.00000000000003 L 176.11111111111114 146.66666666666669 L 175.55555555555557 148.8888888888889 L 175.00000000000003 151.66666666666669 L 175.00000000000003 153.33333333333334 L 175.00000000000003 153.8888888888889 " stroke="black" fill="none" stroke-width="7.0" stroke-linecap="round" stroke-linejoin="round" />
<path d="M 140.00000000000003 145.55555555555557 L 140.00000000000003 145.55555555555557 L 140.00000000000003 145.00000000000003 L 140.00000000000003 145.00000000000003 L 140.55555555555557 146.11111111111111 L 141.11111111111111 148.8888888888889 L 142.22222222222223 152.22222222222223 L 143.33333333333334 153.8888888888889 " stroke="black" fill="none" stroke-width="7.0" stroke-linecap="round" stroke-linejoin="round" />
<path d="M 155.55555555555557 143.8888888888889 L 155.55555555555557 143.8888888888889 L 155.55555555555557 143.8888888888889 L 155.55555555555557 145.00000000000003 L 155.55555555555557 147.22222222222223 L 155.55555555555557 151.11111111111111 L 155.55555555555557 153.8888888888889 " stroke="black" fill="none" stroke-width="7.0" stroke-linecap="round" stroke-linejoin="round" />
<path d="M 120.55555555555556 162.7777777777778 L 120.00000000000001 162.7777777777778 L 119.44444444444444 162.7777777777778 L 118.8888888888889 162.7777777777778 L 120.00000000000001 163.33333333333334 L 123.8888888888889 163.33333333333334 L 132.7777777777778 163.33333333333334 L 146.66666666666669 161.11111111111111 L 162.22222222222223 159.44444444444446 L 174.44444444444446 158.8888888888889 L 182.7777777777778 158.33333333333334 L 187.7777777777778 158.33333333333334 L 189.44444444444446 158.8888888888889 " stroke="black" fill="none" stroke-width="7.0" stroke-linecap="round" stroke-linejoin="round" />
<path d="M 131.66666666666669 175.55555555555557 L 131.11111111111111 175.55555555555557 L 130.55555555555557 175.55555555555557 L 130.00000000000003 176.11111111111114 L 129.44444444444446 176.11111111111114 L 128.8888888888889 176.11111111111114 L 128.8888888888889 176.11111111111114 L 128.8888888888889 176.11111111111114 L 128.8888888888889 176.11111111111114 L 129.44444444444446 176.11111111111114 L 131.66666666666669 175.55555555555557 L 135.00000000000003 175.55555555555557 L 140.00000000000003 175.00000000000003 L 147.22222222222223 173.33333333333334 L 155.55555555555557 172.7777777777778 L 162.7777777777778 172.7777777777778 L 167.7777777777778 172.7777777777778 L 171.11111111111114 172.7777777777778 L 172.7777777777778 172.22222222222223 L 172.7777777777778 171.66666666666669 L 172.7777777777778 171.66666666666669 L 172.7777777777778 171.66666666666669 " stroke="black" fill="none" stroke-width="7.0" stroke-linecap="round" stroke-linejoin="round" />
<path d="M 150.55555555555557 178.8888888888889 L 150.00000000000003 178.8888888888889 L 148.8888888888889 178.33333333333334 L 148.33333333333334 178.33333333333334 L 148.33333333333334 178.33333333333334 L 148.33333333333334 178.33333333333334 L 148.8888888888889 180.00000000000003 L 148.8888888888889 181.66666666666669 L 149.44444444444446 185.55555555555557 L 150.00000000000003 190.00000000000003 L 150.00000000000003 195.55555555555557 L 150.55555555555557 201.11111111111114 L 151.11111111111111 205.55555555555557 L 151.11111111111111 207.7777777777778 L 151.11111111111111 208.33333333333334 L 150.00000000000003 208.33333333333334 L 147.7777777777778 207.7777777777778 L 145.00000000000003 207.22222222222223 L 141.11111111111111 206.66666666666669 L 137.22222222222223 206.66666666666669 L 135.55555555555557 206.66666666666669 L 135.55555555555557 206.66666666666669 " stroke="black" fill="none" stroke-width="7.0" stroke-linecap="round" stroke-linejoin="round" />
</svg>