<svg xmlns="http://www.w3.org/2000/svg" width="300" height="300" viewBox="0 0 300 300">
<path d="M 150.5 107.5 L 150.0 107.5 L 149.5 107.5 L 149.0 108.5 L 149.0 115.0 L 149.0 129.5 L 148.5 144.0 L 148.5 150.0 L 149.0 150.5 " stroke="black" fill="none" stroke-width="7.0" stroke-linecap="round" stroke-linejoin="round" />
<path d="M 136.0 125.0 L 136.0 125.0 L 136.0 124.5 L 136.0 124.5 L 133.5 127.0 L 128.5 133.0 L 124.0 139.5 L 121.0 143.0 L 121.0 142.5 " stroke="black" fill="none" stroke-width="7.0" stroke-linecap="round" stroke-linejoin="round" />
<path d="M 168.5 124.0 L 168.0 124.0 L 166.5 123.5 L 166.0 123.0 L 167.0 124.0 L 170.0 127.5 L 174.0 132.0 L 177.5 136.0 L 180.5 139.0 " stroke="black" fill="none" stroke-width="7.0" stroke-linecap="round" stroke-linejoin="round" />
<path d="M 166.5 149.0 L 165.5 148.5 L 165.5 147.5 L 165.5 147.0 L 165.5 148.5 L 161.5 153.5 L 150.5 163.5 L 137.0 173.0 L 127.0 176.5 L 124.0 176.5 " stroke="black" fill="none" stroke-width="7.0" stroke-linecap="round" stroke-linejoin="round" />
</svg>