<svg xmlns="http://www.w3.org/2000/svg" width="300" height="300" viewBox="0 0 300 300">
<path d="M 129.5 108.5 L 129.5 108.5 L 129.5 109.0 L 129.5 109.5 L 129.5 110.0 L 129.5 110.0 L 130.5 110.0 L 134.5 110.0 L 142.0 110.5 L 152.5 110.5 L 162.5 110.0 L 169.5 109.5 L 174.0 109.5 L 175.0 109.5 L 175.5 109.5 L 175.5 109.5 L 175.5 109.5 L 175.5 109.5 L 175.5 109.5 L 175.5 109.5 L 175.5 109.5 L 176.0 110.5 L 176.0 112.0 L 176.0 115.0 L 175.0 119.5 L 174.0 123.5 L 173.0 127.0 L 173.0 128.5 L 172.5 129.0 " stroke="black" fill="none" stroke-width="7.0" stroke-linecap="round" stroke-linejoin="round" />
<path d="M 133.0 129.0 L 133.0 129.0 L 132.5 128.5 L 132.0 128.5 L 132.0 128.5 L 132.0 128.5 L 135.0 128.5 L 141.0 129.5 L 150.5 131.0 L 161.0 131.5 L 168.0 131.5 L 171.0 131.0 L 171.5 131.0 L 171.5 130.5 L 171.5 130.5 L 171.0 130.5 L 170.5 130.5 " stroke="black" fill="none" stroke-width="7.0" stroke-linecap="round" stroke-linejoin="round" />
<path d="M 132.0 112.5 L 133.0 113.0 L 133.5 113.0 L 133.5 113.0 L 133.5 113.5 L 133.5 115.0 L 133.5 120.5 L 132.5 133.0 L 129.5 149.5 L 126.0 164.5 L 121.5 176.0 L 118.0 184.0 L 115.5 188.0 L 115.0 188.5 L 114.5 188.5 L 114.0 188.0 L 113.5 186.5 " stroke="black" fill="none" stroke-width="7.0" stroke-linecap="round" stroke-linejoin="round" />
<path d="M 149.5 155.0 L 149.5 155.0 L 148.5 156.0 L 150.0 155.5 L 155.0 153.5 L 161.0 151.0 L 164.5 149.5 L 167.0 148.5 L 167.5 148.5 " stroke="black" fill="none" stroke-width="7.0" stroke-linecap="round" stroke-linejoin="round" />
<path d="M 140.5 138.5 L 140.5 138.5 L 140.5 138.5 L 140.0 138.5 L 140.0 138.5 L 140.0 139.5 L 140.0 145.0 L 140.0 154.5 L 138.5 164.5 L 137.5 172.0 L 137.5 176.5 L 139.0 179.5 L 141.5 181.5 L 145.0 182.5 L 149.5 182.5 L 155.5 182.0 L 161.0 180.5 L 167.0 178.0 L 172.0 174.5 L 174.0 172.0 L 174.5 170.5 L 173.5 170.0 L 172.5 169.0 L 171.0 168.5 L 170.0 168.0 " stroke="black" fill="none" stroke-width="7.0" stroke-linecap="round" stroke-linejoin="round" />
</svg>