<svg xmlns="http://www.w3.org/2000/svg" width="300" height="300" viewBox="0 0 300 300">
<path d="M 77.77777777777777 90.0 L 77.22222222222223 89.44444444444444 L 76.66666666666667 88.88888888888889 L 76.66666666666667 89.44444444444444 L 77.22222222222223 95.55555555555556 L 79.44444444444444 109.44444444444444 L 82.77777777777777 134.44444444444446 L 83.33333333333333 158.8888888888889 L 83.33333333333333 178.33333333333334 L 83.33333333333333 197.22222222222223 L 83.33333333333333 211.11111111111114 L 82.22222222222223 220.00000000000003 L 81.11111111111111 224.44444444444446 L 80.55555555555556 224.44444444444446 " stroke="black" fill="none" stroke-width="13.0" stroke-linecap="round" stroke-linejoin="round" />
<path d="M 78.88888888888889 86.11111111111111 L 78.88888888888889 86.11111111111111 L 78.88888888888889 86.66666666666667 L 78.88888888888889 86.66666666666667 L 80.0 86.66666666666667 L 83.33333333333333 86.11111111111111 L 91.11111111111111 84.44444444444444 L 103.33333333333333 82.22222222222223 L 118.8888888888889 80.0 L 134.44444444444446 78.33333333333333 L 149.44444444444446 77.77777777777777 L 161.66666666666669 77.77777777777777 L 173.8888888888889 78.33333333333333 L 184.44444444444446 78.88888888888889 L 193.8888888888889 80.0 L 200.00000000000003 82.77777777777777 L 205.00000000000003 85.55555555555556 L 208.33333333333334 88.33333333333333 L 211.11111111111114 90.55555555555556 L 213.8888888888889 93.33333333333333 L 215.55555555555557 97.22222222222223 L 216.66666666666669 102.77777777777777 L 216.66666666666669 110.0 L 217.22222222222223 118.8888888888889 L 217.22222222222223 128.8888888888889 L 217.7777777777778 139.44444444444446 L 217.7777777777778 151.66666666666669 L 217.7777777777778 164.44444444444446 L 217.7777777777778 177.22222222222223 L 217.22222222222223 191.11111111111114 L 216.11111111111114 205.00000000000003 L 213.8888888888889 216.66666666666669 L 211.11111111111114 225.55555555555557 L 207.7777777777778 231.11111111111114 L 203.8888888888889 234.44444444444446 L 199.44444444444446 235.00000000000003 L 195.55555555555557 235.00000000000003 L 192.7777777777778 235.00000000000003 L 192.22222222222223 233.8888888888889 L 192.22222222222223 233.33333333333334 " stroke="black" fill="none" stroke-width="13.0" stroke-linecap="round" stroke-linejoin="round" />
<path d="M 113.8888888888889 101.11111111111111 L 112.77777777777779 101.11111111111111 L 112.22222222222221 101.11111111111111 L 113.8888888888889 102.77777777777777 L 117.77777777777779 107.22222222222223 L 122.77777777777779 112.22222222222221 L 128.8888888888889 115.55555555555556 L 136.66666666666669 116.1111111111111 L 138.8888888888889 116.1111111111111 " stroke="black" fill="none" stroke-width="13.0" stroke-linecap="round" stroke-linejoin="round" />
<path d="M 172.7777777777778 104.44444444444444 L 172.22222222222223 104.44444444444444 L 172.22222222222223 104.44444444444444 L 171.66666666666669 104.44444444444444 L 171.66666666666669 104.44444444444444 L 170.55555555555557 107.77777777777779 L 166.66666666666669 113.33333333333333 L 161.11111111111111 119.44444444444444 L 158.33333333333334 121.66666666666667 " stroke="black" fill="none" stroke-width="13.0" stroke-linecap="round" stroke-linejoin="round" />
<path d="M 102.77777777777777 141.11111111111111 L 102.22222222222223 141.11111111111111 L 101.66666666666667 141.11111111111111 L 101.66666666666667 140.55555555555557 L 106.11111111111111 140.55555555555557 L 116.66666666666667 139.44444444444446 L 133.8888888888889 137.7777777777778 L 153.33333333333334 136.66666666666669 L 172.7777777777778 136.66666666666669 L 186.66666666666669 136.11111111111111 L 192.22222222222223 137.22222222222223 L 192.7777777777778 139.44444444444446 " stroke="black" fill="none" stroke-width="13.0" stroke-linecap="round" stroke-linejoin="round" />
<path d="M 147.22222222222223 152.7777777777778 L 147.22222222222223 152.7777777777778 L 146.66666666666669 152.22222222222223 L 146.66666666666669 152.22222222222223 L 146.66666666666669 152.7777777777778 L 147.22222222222223 160.00000000000003 L 147.22222222222223 173.33333333333334 L 147.22222222222223 190.00000000000003 L 145.55555555555557 201.11111111111114 L 145.00000000000003 206.66666666666669 L 145.00000000000003 206.66666666666669 L 145.00000000000003 205.55555555555557 " stroke="black" fill="none" stroke-width="13.0" stroke-linecap="round" stroke-linejoin="round" />
<path d="M 118.8888888888889 174.44444444444446 L 118.33333333333333 174.44444444444446 L 117.77777777777779 173.8888888888889 L 117.77777777777779 174.44444444444446 L 117.77777777777779 177.7777777777778 L 118.33333333333333 185.55555555555557 L 118.8888888888889 196.66666666666669 L 120.55555555555556 206.66666666666669 L 123.33333333333333 212.7777777777778 L 127.77777777777779 215.55555555555557 L 135.55555555555557 217.22222222222223 L 146.11111111111111 216.66666666666669 L 158.8888888888889 215.00000000000003 L 172.22222222222223 212.22222222222223 L 180.55555555555557 210.55555555555557 L 185.55555555555557 208.8888888888889 L 186.11111111111114 207.22222222222223 L 186.11111111111114 206.66666666666669 L 184.44444444444446 206.11111111111114 L 183.33333333333334 205.55555555555557 L 182.7777777777778 205.55555555555557 " stroke="black" fill="none" stroke-width="13.0" stroke-linecap="round" stroke-linejoin="round" />
<path d="M 181.66666666666669 176.11111111111114 L 181.66666666666669 176.11111111111114 L 182.22222222222223 176.11111111111114 L 182.22222222222223 176.66666666666669 L 182.7777777777778 178.33333333333334 L 182.7777777777778 182.7777777777778 L 182.7777777777778 191.66666666666669 L 183.33333333333334 201.66666666666669 L 183.33333333333334 207.22222222222223 L 183.8888888888889 208.8888888888889 L 183.8888888888889 208.8888888888889 " stroke="black" fill="none" stroke-width="13.0" stroke-linecap="round" stroke-linejoin="round" />
</svg>