<svg xmlns="http://www.w3.org/2000/svg" width="300" height="300" viewBox="0 0 300 300">
<path d="M 123.0 90.0 L 122.5 90.0 L 121.5 90.0 L 121.0 90.0 L 121.0 90.0 L 123.0 90.0 L 126.5 90.5 L 132.5 90.5 L 144.0 89.5 L 159.0 87.5 L 169.0 87.0 L 174.0 88.0 L 176.0 89.5 L 176.0 90.5 L 176.0 90.5 L 176.0 90.5 L 176.0 90.5 L 176.0 90.5 L 176.0 90.5 L 176.0 90.5 L 176.0 90.5 L 176.0 90.5 L 176.0 90.5 L 176.0 90.5 L 176.0 90.5 L 176.0 90.5 L 176.0 90.5 L 176.0 90.5 L 176.0 90.5 L 176.0 90.5 L 176.0 90.5 L 176.0 90.5 L 176.0 90.5 L 176.0 90.5 L 176.0 90.5 L 176.0 90.5 L 176.0 90.5 L 176.0 90.5 L 176.0 90.5 L 176.0 90.5 L 176.0 90.5 L 176.0 90.5 L 175.5 91.5 L 175.0 95.0 L 174.0 99.5 L 173.5 103.0 L 173.5 104.0 L 173.5 104.5 L 173.5 104.5 " stroke="black" fill="none" stroke-width="7.0" stroke-linecap="round" stroke-linejoin="round" />
<path d="M 126.0 108.0 L 125.5 108.0 L 125.0 107.5 L 125.0 107.5 L 125.0 107.5 L 126.0 107.5 L 129.5 107.0 L 137.5 106.5 L 149.5 105.5 L 162.0 104.5 L 170.5 103.5 L 174.0 103.0 L 174.0 103.0 L 172.5 103.0 L 172.0 103.0 " stroke="black" fill="none" stroke-width="7.0" stroke-linecap="round" stroke-linejoin="round" />
<path d="M 125.0 94.5 L 124.5 94.5 L 124.0 94.0 L 124.0 93.5 L 124.0 94.5 L 125.0 99.0 L 125.5 108.0 L 123.0 126.5 L 117.5 147.5 L 111.5 165.0 L 106.5 176.0 L 103.0 180.5 L 100.5 181.5 L 100.5 179.5 " stroke="black" fill="none" stroke-width="7.0" stroke-linecap="round" stroke-linejoin="round" />
<path d="M 150.0 112.0 L 150.0 112.0 L 150.0 111.5 L 150.0 111.5 L 150.5 112.0 L 150.5 114.5 L 151.0 118.0 L 151.0 121.0 L 151.0 123.5 L 151.0 124.0 " stroke="black" fill="none" stroke-width="7.0" stroke-linecap="round" stroke-linejoin="round" />
<path d="M 137.5 115.5 L 137.5 115.5 L 137.5 115.5 L 137.5 115.5 L 137.5 116.5 L 138.5 117.5 L 139.5 118.0 L 140.0 118.5 " stroke="black" fill="none" stroke-width="7.0" stroke-linecap="round" stroke-linejoin="round" />
<path d="M 134.0 126.0 L 134.0 126.0 L 133.5 126.0 L 133.5 126.0 L 134.0 126.0 L 136.0 126.0 L 138.5 125.0 L 141.0 124.5 " stroke="black" fill="none" stroke-width="7.0" stroke-linecap="round" stroke-linejoin="round" />
<path d="M 167.0 115.5 L 166.5 115.5 L 165.5 116.0 L 165.5 116.0 L 165.0 117.0 L 164.5 118.0 L 164.0 119.5 " stroke="black" fill="none" stroke-width="7.0" stroke-linecap="round" stroke-linejoin="round" />
<path d="M 158.0 127.5 L 158.0 127.5 L 158.0 127.5 L 158.0 127.5 L 159.5 127.5 L 162.0 127.5 L 164.5 128.5 L 167.0 129.5 " stroke="black" fill="none" stroke-width="7.0" stroke-linecap="round" stroke-linejoin="round" />
<path d="M 128.0 138.5 L 128.0 138.5 L 128.0 138.0 L 128.0 138.0 L 128.5 140.0 L 129.5 143.5 L 130.5 147.0 L 131.0 149.5 L 131.0 150.0 " stroke="black" fill="none" stroke-width="7.0" stroke-linecap="round" stroke-linejoin="round" />
<path d="M 130.0 139.5 L 130.0 139.0 L 129.5 138.5 L 129.5 138.0 L 130.5 137.5 L 133.5 137.5 L 139.0 137.5 L 147.5 137.5 L 158.0 136.0 L 167.5 135.5 L 173.0 135.5 L 174.5 136.0 L 175.0 136.5 L 175.0 136.5 L 174.5 136.5 L 174.5 136.5 L 174.5 137.0 L 174.5 137.5 L 174.0 138.5 L 174.0 140.5 L 173.5 142.5 L 172.5 145.5 L 171.5 148.0 L 171.0 149.5 " stroke="black" fill="none" stroke-width="7.0" stroke-linecap="round" stroke-linejoin="round" />
<path d="M 144.5 141.5 L 144.5 141.0 L 144.5 140.0 L 144.5 140.0 L 144.5 140.5 L 145.0 143.0 L 145.0 145.5 L 145.5 147.0 L 145.5 147.0 " stroke="black" fill="none" stroke-width="7.0" stroke-linecap="round" stroke-linejoin="round" />
<path d="M 156.0 140.0 L 156.0 140.0 L 157.0 140.5 L 157.0 142.0 L 157.0 144.0 L 156.5 146.5 L 156.0 148.5 L 156.0 148.5 " stroke="black" fill="none" stroke-width="7.0" stroke-linecap="round" stroke-linejoin="round" />
<path d="M 131.0 152.5 L 131.0 152.5 L 131.0 152.5 L 131.0 152.5 L 134.0 152.5 L 142.0 152.5 L 152.0 151.5 L 160.5 150.0 L 166.5 149.0 " stroke="black" fill="none" stroke-width="7.0" stroke-linecap="round" stroke-linejoin="round" />
<path d="M 129.0 161.0 L 128.5 160.5 L 128.5 160.5 L 128.0 161.0 L 127.5 163.0 L 127.0 165.5 L 126.0 168.0 L 126.0 169.0 " stroke="black" fill="none" stroke-width="7.0" stroke-linecap="round" stroke-linejoin="round" />
<path d="M 130.5 164.5 L 130.5 164.5 L 130.5 164.0 L 131.0 164.0 L 133.0 164.0 L 138.5 163.5 L 147.5 162.5 L 156.5 161.5 L 162.5 160.5 L 165.5 160.5 L 166.5 161.5 L 166.5 161.5 L 166.5 162.0 L 166.5 162.0 L 166.5 162.0 L 166.5 162.0 L 166.5 162.0 L 166.5 162.0 L 166.5 162.0 L 166.5 162.0 L 166.5 162.0 L 166.5 162.0 L 166.5 162.0 L 166.5 162.0 L 166.5 162.0 L 166.5 162.0 L 166.5 162.0 L 166.5 162.0 L 166.5 162.0 L 167.0 162.0 L 167.0 162.0 L 167.0 162.0 L 167.0 162.0 L 167.0 162.0 L 167.0 162.0 L 167.0 162.0 L 167.0 162.0 L 167.0 162.0 L 167.0 162.5 L 167.5 164.0 L 167.5 167.5 L 168.5 172.5 L 169.5 178.0 L 169.5 183.5 L 170.0 188.5 L 169.5 192.5 L 168.5 195.0 L 168.0 197.0 L 167.5 198.0 L 166.5 198.5 L 164.5 199.0 L 163.0 199.0 L 161.5 197.5 " stroke="black" fill="none" stroke-width="7.0" stroke-linecap="round" stroke-linejoin="round" />
<path d="M 138.0 176.0 L 138.0 176.0 L 138.0 176.0 L 138.0 175.5 L 138.0 175.5 L 138.0 176.5 L 139.0 178.5 L 139.5 180.0 L 140.0 181.5 " stroke="black" fill="none" stroke-width="7.0" stroke-linecap="round" stroke-linejoin="round" />
<path d="M 142.5 176.5 L 142.0 176.5 L 141.0 176.5 L 140.0 176.0 L 139.5 176.0 L 139.5 176.0 L 141.0 176.0 L 143.0 175.5 L 145.0 175.5 L 147.5 175.0 L 150.0 174.5 L 152.5 174.0 L 154.0 173.5 L 154.5 173.5 L 155.0 173.5 L 155.0 173.5 L 155.0 173.5 L 155.0 174.0 L 155.0 174.5 L 155.0 175.0 L 154.5 176.5 L 154.0 177.5 L 154.0 179.0 L 153.5 180.0 L 153.5 180.0 " stroke="black" fill="none" stroke-width="7.0" stroke-linecap="round" stroke-linejoin="round" />
<path d="M 144.5 183.5 L 143.5 183.5 L 142.5 183.5 L 142.0 183.5 L 142.5 183.5 L 145.0 183.5 L 147.5 183.0 L 150.5 181.5 " stroke="black" fill="none" stroke-width="7.0" stroke-linecap="round" stroke-linejoin="round" />
<path d="M 149.5 168.5 L 148.0 168.0 L 148.0 168.0 L 148.0 168.0 L 148.0 170.5 L 148.0 174.0 L 148.0 180.0 L 146.5 187.0 L 146.0 191.5 L 146.0 193.0 " stroke="black" fill="none" stroke-width="7.0" stroke-linecap="round" stroke-linejoin="round" />
<path d="M 134.0 198.0 L 133.5 198.0 L 133.0 197.5 L 133.0 197.0 L 136.0 196.5 L 140.5 196.0 L 147.0 195.0 L 153.0 193.5 L 158.0 192.0 L 159.0 191.5 " stroke="black" fill="none" stroke-width="7.0" stroke-linecap="round" stroke-linejoin="round" />
<path d="M 158.5 186.0 L 158.5 186.0 L 158.0 186.0 L 158.0 185.5 L 158.0 186.0 L 158.5 188.0 L 160.0 190.0 " stroke="black" fill="none" stroke-width="7.0" stroke-linecap="round" stroke-linejoin="round" />
</svg>