<svg xmlns="http://www.w3.org/2000/svg" width="300" height="300" viewBox="0 0 300 300">
<path d="M 147.0 101.5 L 147.0 101.5 L 146.5 100.5 L 146.5 100.5 L 146.5 100.5 L 146.5 100.5 L 147.0 103.0 L 147.5 107.5 L 148.0 114.0 L 148.0 120.5 L 148.0 124.0 L 148.0 124.0 L 148.0 123.0 " stroke="black" fill="none" stroke-width="6.0" stroke-linecap="round" stroke-linejoin="round" />
<path d="M 130.5 106.5 L 130.5 106.5 L 131.0 107.0 L 131.0 107.5 L 131.0 107.5 L 131.5 109.0 L 131.5 112.5 L 131.5 117.5 L 131.5 123.0 L 131.5 127.5 L 131.5 129.0 L 132.0 129.5 L 134.0 128.0 L 137.5 127.0 L 141.5 126.0 L 147.0 125.5 L 153.0 125.5 L 160.0 125.0 L 165.0 125.0 L 167.0 124.5 L 167.0 124.5 L 166.0 124.5 L 165.5 124.5 " stroke="black" fill="none" stroke-width="6.0" stroke-linecap="round" stroke-linejoin="round" />
<path d="M 165.5 104.0 L 165.5 104.0 L 165.0 104.0 L 164.5 104.5 L 164.5 104.5 L 164.5 106.0 L 165.0 110.0 L 166.0 116.0 L 166.5 121.0 L 167.0 124.0 L 167.0 124.5 " stroke="black" fill="none" stroke-width="6.0" stroke-linecap="round" stroke-linejoin="round" />
<path d="M 126.0 143.0 L 125.5 142.5 L 124.5 141.5 L 124.0 141.5 L 124.0 141.0 L 124.5 141.0 L 127.5 140.5 L 134.0 140.0 L 145.0 140.0 L 158.5 139.0 L 169.5 139.0 L 173.5 139.0 L 174.0 139.5 L 173.5 139.5 L 172.5 139.5 L 172.0 139.0 L 171.5 139.0 L 171.0 139.5 L 171.0 140.0 " stroke="black" fill="none" stroke-width="6.0" stroke-linecap="round" stroke-linejoin="round" />
<path d="M 143.0 144.0 L 143.0 143.5 L 143.5 142.5 L 143.5 142.0 L 143.5 142.0 L 143.5 142.5 L 143.5 145.0 L 142.0 150.5 L 138.0 158.5 L 131.5 167.5 L 126.5 172.5 L 125.5 173.0 L 126.5 170.5 L 127.0 170.0 " stroke="black" fill="none" stroke-width="6.0" stroke-linecap="round" stroke-linejoin="round" />
<path d="M 142.5 158.0 L 141.5 158.0 L 141.0 157.5 L 140.5 157.5 L 140.5 158.5 L 141.0 164.0 L 141.5 171.5 L 142.0 177.0 L 142.5 178.5 L 143.0 176.5 " stroke="black" fill="none" stroke-width="6.0" stroke-linecap="round" stroke-linejoin="round" />
<path d="M 143.5 158.0 L 143.0 158.0 L 141.0 159.0 L 140.5 159.0 L 140.5 159.0 L 142.0 159.5 L 145.0 159.5 L 150.0 159.0 L 156.0 157.5 L 161.5 156.0 L 166.0 155.5 L 167.5 155.5 L 168.0 156.5 L 167.5 157.0 L 167.0 158.0 L 166.5 159.0 L 166.5 161.0 L 166.5 164.5 L 166.0 168.5 L 165.0 172.5 L 164.0 176.0 L 163.5 177.5 L 163.5 177.5 L 163.5 176.0 " stroke="black" fill="none" stroke-width="6.0" stroke-linecap="round" stroke-linejoin="round" />
<path d="M 148.5 178.0 L 148.0 178.5 L 147.5 179.0 L 147.0 179.0 L 147.0 179.0 L 148.5 179.0 L 151.0 179.0 L 154.5 179.0 L 158.5 179.0 L 162.5 178.5 L 164.0 178.0 " stroke="black" fill="none" stroke-width="6.0" stroke-linecap="round" stroke-linejoin="round" />
</svg>