<svg xmlns="http://www.w3.org/2000/svg" width="300" height="300" viewBox="0 0 300 300">
<path d="M 121.66666666666667 105.55555555555556 L 121.66666666666667 105.55555555555556 L 120.55555555555556 105.55555555555556 L 120.55555555555556 106.66666666666667 L 121.1111111111111 113.33333333333333 L 121.66666666666667 129.44444444444446 L 121.1111111111111 147.7777777777778 L 121.1111111111111 155.55555555555557 L 122.77777777777779 156.66666666666669 L 122.77777777777779 156.66666666666669 " stroke="black" fill="none" stroke-width="7.0" stroke-linecap="round" stroke-linejoin="round" />
<path d="M 108.88888888888889 126.66666666666667 L 108.88888888888889 126.66666666666667 L 108.88888888888889 126.1111111111111 L 108.88888888888889 126.1111111111111 L 108.88888888888889 126.1111111111111 L 109.44444444444444 131.11111111111111 L 110.0 142.22222222222223 L 110.0 157.7777777777778 L 111.11111111111111 167.7777777777778 L 112.22222222222221 168.8888888888889 L 114.44444444444444 167.22222222222223 L 117.77777777777779 163.8888888888889 L 121.1111111111111 162.7777777777778 L 124.44444444444444 163.8888888888889 L 126.1111111111111 164.44444444444446 " stroke="black" fill="none" stroke-width="7.0" stroke-linecap="round" stroke-linejoin="round" />
<path d="M 139.44444444444446 123.8888888888889 L 138.8888888888889 122.77777777777779 L 138.33333333333334 121.1111111111111 L 137.7777777777778 120.55555555555556 L 137.7777777777778 120.55555555555556 L 137.7777777777778 122.77777777777779 L 137.7777777777778 130.55555555555557 L 136.66666666666669 146.11111111111111 L 135.00000000000003 165.00000000000003 L 134.44444444444446 174.44444444444446 L 135.55555555555557 174.44444444444446 " stroke="black" fill="none" stroke-width="7.0" stroke-linecap="round" stroke-linejoin="round" />
<path d="M 152.22222222222223 129.44444444444446 L 152.22222222222223 129.44444444444446 L 152.22222222222223 130.00000000000003 L 152.22222222222223 131.11111111111111 L 152.7777777777778 137.7777777777778 L 152.7777777777778 152.7777777777778 L 152.7777777777778 166.11111111111114 L 152.7777777777778 170.00000000000003 L 153.33333333333334 170.00000000000003 " stroke="black" fill="none" stroke-width="7.0" stroke-linecap="round" stroke-linejoin="round" />
<path d="M 152.22222222222223 129.44444444444446 L 150.55555555555557 130.00000000000003 L 150.00000000000003 130.55555555555557 L 151.66666666666669 130.55555555555557 L 156.11111111111111 131.11111111111111 L 162.22222222222223 130.55555555555557 L 168.8888888888889 130.00000000000003 L 175.00000000000003 129.44444444444446 L 181.11111111111114 129.44444444444446 L 185.00000000000003 128.8888888888889 L 186.66666666666669 128.8888888888889 L 186.66666666666669 128.8888888888889 L 185.00000000000003 132.22222222222223 L 183.33333333333334 137.7777777777778 L 181.66666666666669 146.11111111111111 L 180.00000000000003 156.11111111111111 L 178.8888888888889 164.44444444444446 L 178.33333333333334 168.8888888888889 L 178.33333333333334 168.8888888888889 L 178.33333333333334 168.33333333333334 " stroke="black" fill="none" stroke-width="7.0" stroke-linecap="round" stroke-linejoin="round" />
<path d="M 158.8888888888889 152.22222222222223 L 158.8888888888889 152.22222222222223 L 157.7777777777778 152.7777777777778 L 157.22222222222223 153.33333333333334 L 160.55555555555557 153.33333333333334 L 167.22222222222223 153.33333333333334 L 172.7777777777778 151.66666666666669 L 176.11111111111114 149.44444444444446 " stroke="black" fill="none" stroke-width="7.0" stroke-linecap="round" stroke-linejoin="round" />
<path d="M 173.33333333333334 96.11111111111111 L 171.66666666666669 96.11111111111111 L 171.11111111111114 96.11111111111111 L 171.11111111111114 98.88888888888889 L 171.11111111111114 107.77777777777779 L 170.55555555555557 126.66666666666667 L 168.8888888888889 146.11111111111111 L 167.7777777777778 156.66666666666669 L 167.22222222222223 160.55555555555557 L 167.7777777777778 161.66666666666669 " stroke="black" fill="none" stroke-width="7.0" stroke-linecap="round" stroke-linejoin="round" />
<path d="M 153.8888888888889 173.8888888888889 L 153.8888888888889 173.8888888888889 L 153.33333333333334 173.8888888888889 L 155.00000000000003 174.44444444444446 L 161.11111111111111 174.44444444444446 L 169.44444444444446 174.44444444444446 L 177.7777777777778 173.33333333333334 L 179.44444444444446 172.7777777777778 " stroke="black" fill="none" stroke-width="7.0" stroke-linecap="round" stroke-linejoin="round" />
</svg>