<svg xmlns="http://www.w3.org/2000/svg" width="300" height="300" viewBox="0 0 300 300">
<path d="M 148.0 113.0 L 148.0 113.0 L 147.0 113.0 L 147.0 113.5 L 147.0 114.0 L 147.5 117.0 L 148.0 127.5 L 148.0 143.5 L 147.0 156.5 L 147.0 160.0 L 147.5 159.5 " stroke="black" fill="none" stroke-width="6.0" stroke-linecap="round" stroke-linejoin="round" />
<path d="M 128.0 130.0 L 128.5 130.5 L 128.5 131.0 L 128.5 131.5 L 128.5 133.5 L 128.5 140.0 L 127.5 151.5 L 127.5 161.5 L 128.5 167.0 L 130.0 168.0 L 132.0 168.0 L 135.5 167.0 L 141.0 166.0 L 146.5 165.5 L 151.5 165.0 L 156.0 164.5 L 159.0 164.5 " stroke="black" fill="none" stroke-width="6.0" stroke-linecap="round" stroke-linejoin="round" />
<path d="M 165.0 130.0 L 164.5 130.0 L 164.0 130.0 L 164.0 130.0 L 164.0 130.5 L 164.0 133.5 L 164.5 142.5 L 164.5 156.5 L 164.5 169.0 L 164.5 175.5 L 165.5 178.0 " stroke="black" fill="none" stroke-width="6.0" stroke-linecap="round" stroke-linejoin="round" />
</svg>