<svg xmlns="http://www.w3.org/2000/svg" width="300" height="300" viewBox="0 0 300 300">
<path d="M 60.0 87.22222222222223 L 61.111111111111114 87.77777777777777 L 62.77777777777777 88.33333333333333 L 67.22222222222221 88.33333333333333 L 76.11111111111111 89.44444444444444 L 89.44444444444444 89.44444444444444 L 106.11111111111111 88.88888888888889 L 128.8888888888889 86.11111111111111 L 151.66666666666669 83.88888888888889 L 172.7777777777778 83.33333333333333 L 189.44444444444446 84.44444444444444 L 201.66666666666669 86.11111111111111 L 212.22222222222223 87.22222222222223 L 217.22222222222223 87.22222222222223 L 218.33333333333334 87.22222222222223 L 216.11111111111114 88.33333333333333 " stroke="black" fill="none" stroke-width="13.0" stroke-linecap="round" stroke-linejoin="round" />
<path d="M 91.11111111111111 100.0 L 89.44444444444444 100.0 L 88.88888888888889 100.0 L 88.88888888888889 102.22222222222223 L 91.11111111111111 111.11111111111111 L 93.88888888888889 126.66666666666667 L 95.0 143.8888888888889 L 95.0 161.66666666666669 L 95.0 178.8888888888889 L 92.77777777777777 196.11111111111114 L 91.11111111111111 210.00000000000003 L 88.33333333333333 217.7777777777778 L 86.66666666666667 219.44444444444446 L 86.11111111111111 217.22222222222223 L 86.11111111111111 216.66666666666669 " stroke="black" fill="none" stroke-width="13.0" stroke-linecap="round" stroke-linejoin="round" />
<path d="M 96.11111111111111 138.33333333333334 L 96.11111111111111 138.33333333333334 L 96.11111111111111 138.33333333333334 L 96.11111111111111 137.7777777777778 L 97.77777777777777 137.7777777777778 L 105.55555555555556 136.66666666666669 L 121.66666666666667 134.44444444444446 L 140.55555555555557 132.22222222222223 L 152.7777777777778 131.11111111111111 L 172.22222222222223 130.00000000000003 L 186.11111111111114 130.00000000000003 L 194.44444444444446 132.7777777777778 L 197.7777777777778 138.33333333333334 L 198.33333333333334 145.55555555555557 L 198.8888888888889 153.33333333333334 L 197.22222222222223 162.7777777777778 L 195.00000000000003 173.8888888888889 L 192.22222222222223 183.33333333333334 L 189.44444444444446 190.55555555555557 L 187.22222222222223 192.7777777777778 L 187.22222222222223 190.55555555555557 L 186.66666666666669 190.00000000000003 " stroke="black" fill="none" stroke-width="13.0" stroke-linecap="round" stroke-linejoin="round" />
<path d="M 101.66666666666667 193.33333333333334 L 99.44444444444444 192.7777777777778 L 98.88888888888889 191.11111111111114 L 102.22222222222223 190.00000000000003 L 112.22222222222221 188.33333333333334 L 127.77777777777779 187.22222222222223 L 145.55555555555557 187.22222222222223 L 162.22222222222223 188.33333333333334 L 177.7777777777778 188.33333333333334 L 191.66666666666669 188.8888888888889 L 201.11111111111114 190.55555555555557 L 206.66666666666669 192.22222222222223 " stroke="black" fill="none" stroke-width="13.0" stroke-linecap="round" stroke-linejoin="round" />
<path d="M 68.88888888888889 231.11111111111114 L 67.77777777777777 231.66666666666669 L 67.22222222222221 232.22222222222226 L 67.22222222222221 232.22222222222226 L 68.88888888888889 232.22222222222226 L 70.0 232.22222222222226 L 71.66666666666667 232.22222222222226 L 73.88888888888889 231.66666666666669 L 77.77777777777777 231.66666666666669 L 85.0 231.66666666666669 L 96.66666666666667 231.66666666666669 L 108.88888888888889 231.66666666666669 L 121.1111111111111 231.66666666666669 L 134.44444444444446 231.11111111111114 L 148.8888888888889 231.11111111111114 L 162.22222222222223 231.11111111111114 L 174.44444444444446 231.66666666666669 L 186.66666666666669 232.22222222222226 L 196.11111111111114 232.22222222222226 L 204.44444444444446 231.11111111111114 L 211.11111111111114 230.55555555555557 L 216.11111111111114 230.00000000000003 L 218.8888888888889 230.00000000000003 L 219.44444444444446 230.00000000000003 L 219.44444444444446 230.00000000000003 L 219.44444444444446 230.00000000000003 L 219.44444444444446 230.00000000000003 L 219.44444444444446 229.44444444444446 L 219.44444444444446 229.44444444444446 L 220.00000000000003 229.44444444444446 L 220.00000000000003 229.44444444444446 L 220.00000000000003 229.44444444444446 L 220.55555555555557 228.8888888888889 L 220.55555555555557 228.8888888888889 L 220.55555555555557 228.8888888888889 L 220.55555555555557 228.8888888888889 L 221.11111111111114 228.8888888888889 L 221.11111111111114 228.8888888888889 L 221.11111111111114 228.8888888888889 L 221.11111111111114 228.8888888888889 L 221.11111111111114 228.8888888888889 L 221.11111111111114 228.33333333333334 " stroke="black" fill="none" stroke-width="13.0" stroke-linecap="round" stroke-linejoin="round" />
</svg>