<svg xmlns="http://www.w3.org/2000/svg" width="300" height="300" viewBox="0 0 300 300">
<path d="M 127.77777777777779 115.00000000000001 L 127.77777777777779 115.00000000000001 L 127.77777777777779 114.44444444444444 L 127.77777777777779 114.44444444444444 L 127.77777777777779 114.44444444444444 L 128.33333333333334 116.1111111111111 L 129.44444444444446 121.1111111111111 L 130.00000000000003 133.33333333333334 L 127.22222222222221 152.22222222222223 L 121.1111111111111 170.00000000000003 L 117.22222222222221 178.33333333333334 L 116.1111111111111 178.8888888888889 L 115.55555555555556 175.55555555555557 " stroke="black" fill="none" stroke-width="7.0" stroke-linecap="round" stroke-linejoin="round" />
<path d="M 115.00000000000001 142.7777777777778 L 115.00000000000001 142.7777777777778 L 114.44444444444444 142.22222222222223 L 115.00000000000001 142.22222222222223 L 116.66666666666667 143.8888888888889 L 118.8888888888889 146.11111111111111 L 120.00000000000001 147.22222222222223 " stroke="black" fill="none" stroke-width="7.0" stroke-linecap="round" stroke-linejoin="round" />
<path d="M 143.33333333333334 137.7777777777778 L 142.7777777777778 137.7777777777778 L 142.22222222222223 138.33333333333334 L 142.22222222222223 140.55555555555557 L 143.8888888888889 145.00000000000003 L 145.00000000000003 149.44444444444446 L 145.55555555555557 151.11111111111111 " stroke="black" fill="none" stroke-width="7.0" stroke-linecap="round" stroke-linejoin="round" />
<path d="M 151.11111111111111 110.0 L 151.11111111111111 110.0 L 151.11111111111111 111.11111111111111 L 151.11111111111111 112.22222222222221 L 151.66666666666669 117.22222222222221 L 152.7777777777778 130.00000000000003 L 152.7777777777778 148.33333333333334 L 152.7777777777778 166.11111111111114 L 153.33333333333334 176.66666666666669 L 154.44444444444446 181.11111111111114 L 154.44444444444446 181.11111111111114 " stroke="black" fill="none" stroke-width="7.0" stroke-linecap="round" stroke-linejoin="round" />
<path d="M 162.7777777777778 138.33333333333334 L 162.7777777777778 138.33333333333334 L 161.66666666666669 138.8888888888889 L 161.66666666666669 140.00000000000003 L 162.22222222222223 143.8888888888889 L 163.8888888888889 148.33333333333334 L 165.55555555555557 150.55555555555557 " stroke="black" fill="none" stroke-width="7.0" stroke-linecap="round" stroke-linejoin="round" />
<path d="M 174.44444444444446 107.77777777777779 L 174.44444444444446 107.77777777777779 L 173.8888888888889 108.33333333333333 L 173.8888888888889 108.88888888888889 L 173.8888888888889 111.66666666666667 L 174.44444444444446 119.44444444444444 L 175.55555555555557 136.11111111111111 L 175.55555555555557 158.8888888888889 L 176.11111111111114 177.7777777777778 L 176.66666666666669 187.22222222222223 L 178.33333333333334 190.55555555555557 L 178.33333333333334 191.11111111111114 " stroke="black" fill="none" stroke-width="7.0" stroke-linecap="round" stroke-linejoin="round" />
</svg>