<svg xmlns="http://www.w3.org/2000/svg" width="300" height="300" viewBox="0 0 300 300">
<path d="M 130.5 125.5 L 130.5 125.0 L 130.5 124.0 L 130.5 124.0 L 131.0 124.0 L 132.0 129.0 L 132.5 142.0 L 132.0 159.5 L 130.5 170.0 L 130.5 171.5 L 130.5 169.5 L 130.5 164.0 L 130.5 160.5 " stroke="black" fill="none" stroke-width="7.0" stroke-linecap="round" stroke-linejoin="round" />
<path d="M 132.5 124.0 L 132.5 123.5 L 132.5 123.5 L 132.5 123.0 L 133.0 123.0 L 134.5 123.0 L 138.0 123.0 L 144.0 123.5 L 152.0 123.5 L 160.0 123.0 L 164.0 122.0 L 165.0 122.0 L 165.0 122.0 L 164.5 122.0 L 164.5 122.0 L 164.5 122.0 L 164.5 122.0 L 164.5 122.0 L 164.5 122.0 L 164.5 122.0 L 164.5 122.0 L 164.5 122.5 L 165.0 122.5 L 165.0 122.5 L 165.0 123.0 L 165.0 123.0 L 165.5 123.0 L 165.5 123.0 L 165.5 123.0 L 166.0 123.0 L 166.0 123.0 L 166.5 123.5 L 166.5 123.5 L 166.5 123.5 L 166.5 123.5 L 166.5 123.5 L 166.5 123.5 L 166.5 123.5 L 166.5 124.0 L 166.5 125.0 L 166.5 127.5 L 166.5 132.5 L 167.0 140.5 L 167.5 149.0 L 168.0 157.0 L 168.0 163.5 L 168.0 167.5 L 168.0 170.0 L 167.5 171.0 L 167.0 171.5 L 166.0 173.0 L 165.0 174.0 L 164.0 174.5 L 162.5 174.0 L 161.0 172.0 L 160.0 171.0 " stroke="black" fill="none" stroke-width="7.0" stroke-linecap="round" stroke-linejoin="round" />
<path d="M 148.5 109.0 L 148.0 109.0 L 147.5 109.0 L 147.0 109.0 L 147.0 112.5 L 148.5 123.5 L 149.0 143.0 L 148.5 161.0 L 148.0 171.0 L 148.0 176.5 L 147.5 181.0 L 147.5 183.5 L 147.5 185.0 L 148.5 186.0 L 149.5 185.5 L 149.5 185.5 " stroke="black" fill="none" stroke-width="7.0" stroke-linecap="round" stroke-linejoin="round" />
</svg>