<svg xmlns="http://www.w3.org/2000/svg" width="300" height="300" viewBox="0 0 300 300">
<path d="M 138.0 109.0 L 137.5 109.0 L 136.5 109.5 L 136.0 109.5 L 137.0 109.5 L 141.0 111.0 L 145.0 112.0 L 149.0 112.5 " stroke="black" fill="none" stroke-width="6.0" stroke-linecap="round" stroke-linejoin="round" />
<path d="M 170.0 101.5 L 170.0 101.5 L 170.0 101.5 L 169.5 101.5 L 169.0 103.0 L 168.0 105.5 L 166.5 108.5 L 164.5 111.5 " stroke="black" fill="none" stroke-width="6.0" stroke-linecap="round" stroke-linejoin="round" />
<path d="M 140.0 124.5 L 140.0 124.5 L 139.5 124.5 L 139.5 124.0 L 142.5 123.5 L 149.0 123.0 L 157.0 122.0 L 163.5 122.0 L 167.0 122.0 L 168.0 122.5 " stroke="black" fill="none" stroke-width="6.0" stroke-linecap="round" stroke-linejoin="round" />
<path d="M 149.5 134.0 L 147.5 135.5 L 147.5 135.5 L 148.0 135.5 L 151.5 135.0 L 155.0 134.5 L 159.0 134.0 L 161.5 133.0 L 162.5 132.5 " stroke="black" fill="none" stroke-width="6.0" stroke-linecap="round" stroke-linejoin="round" />
<path d="M 156.5 124.0 L 155.5 124.0 L 155.0 124.0 L 155.0 126.0 L 155.5 130.5 L 155.5 137.5 L 155.5 143.0 L 155.0 146.0 L 154.5 147.0 L 154.5 147.0 " stroke="black" fill="none" stroke-width="6.0" stroke-linecap="round" stroke-linejoin="round" />
<path d="M 136.5 151.5 L 135.5 151.5 L 135.0 151.5 L 140.5 151.0 L 149.5 149.0 L 160.5 148.0 L 169.0 147.5 L 172.5 147.5 L 173.0 147.5 L 173.0 147.5 " stroke="black" fill="none" stroke-width="6.0" stroke-linecap="round" stroke-linejoin="round" />
<path d="M 143.5 152.5 L 143.5 152.5 L 143.0 152.5 L 143.0 152.5 L 143.0 153.5 L 143.0 158.0 L 142.5 166.5 L 139.5 175.5 L 135.5 182.0 L 134.0 183.5 L 134.0 183.5 L 134.0 183.0 " stroke="black" fill="none" stroke-width="6.0" stroke-linecap="round" stroke-linejoin="round" />
<path d="M 151.0 160.0 L 150.5 160.0 L 150.0 160.0 L 150.0 160.0 L 150.5 160.0 L 155.5 160.0 L 161.5 158.5 L 167.5 157.0 L 170.5 156.5 L 171.0 156.5 L 171.0 156.5 " stroke="black" fill="none" stroke-width="6.0" stroke-linecap="round" stroke-linejoin="round" />
<path d="M 161.5 158.5 L 161.5 158.5 L 161.5 159.0 L 161.5 159.0 L 161.5 160.0 L 161.5 162.0 L 161.0 167.0 L 160.0 173.0 L 159.5 178.0 L 159.5 179.5 L 159.0 179.5 " stroke="black" fill="none" stroke-width="6.0" stroke-linecap="round" stroke-linejoin="round" />
<path d="M 146.0 185.5 L 146.0 185.0 L 146.5 184.0 L 150.5 183.5 L 158.0 183.5 L 166.0 183.5 L 172.0 183.5 L 177.0 183.5 " stroke="black" fill="none" stroke-width="6.0" stroke-linecap="round" stroke-linejoin="round" />
</svg>