<svg xmlns="http://www.w3.org/2000/svg" width="300" height="300" viewBox="0 0 300 300">
<path d="M 150.5 98.5 L 150.0 98.5 L 149.5 98.0 L 149.5 97.5 L 151.5 96.5 L 157.0 95.0 L 166.0 94.0 L 176.0 93.0 L 186.0 92.5 L 193.5 92.5 L 195.0 93.0 L 194.5 95.5 L 193.0 99.0 L 190.5 103.5 L 189.0 108.0 L 188.5 111.5 L 188.0 114.5 " stroke="black" fill="none" stroke-width="9.0" stroke-linecap="round" stroke-linejoin="round" />
<path d="M 145.0 113.5 L 144.5 113.5 L 144.5 113.0 L 146.5 112.0 L 155.5 110.0 L 169.5 107.5 L 183.5 106.0 L 193.5 105.5 L 197.0 106.0 L 197.0 108.0 L 196.5 108.0 " stroke="black" fill="none" stroke-width="9.0" stroke-linecap="round" stroke-linejoin="round" />
<path d="M 152.5 125.0 L 152.5 125.0 L 152.5 125.0 L 154.0 124.5 L 162.0 124.0 L 175.0 122.0 L 187.5 119.5 L 195.5 118.5 L 197.0 119.5 " stroke="black" fill="none" stroke-width="9.0" stroke-linecap="round" stroke-linejoin="round" />
<path d="M 153.5 143.0 L 153.5 143.0 L 154.0 142.5 L 156.5 141.5 L 165.0 140.5 L 176.0 140.0 L 186.5 139.0 L 194.5 137.5 L 197.5 135.0 " stroke="black" fill="none" stroke-width="9.0" stroke-linecap="round" stroke-linejoin="round" />
<path d="M 150.0 166.0 L 150.0 166.0 L 150.0 165.5 L 152.0 164.0 L 159.5 163.0 L 170.0 162.5 L 180.5 161.5 L 191.0 158.5 L 197.5 154.0 L 198.0 153.0 " stroke="black" fill="none" stroke-width="9.0" stroke-linecap="round" stroke-linejoin="round" />
<path d="M 172.5 76.0 L 172.5 77.0 L 172.5 79.0 L 172.5 84.5 L 172.5 96.5 L 172.5 114.0 L 172.5 132.5 L 172.5 148.0 L 172.0 162.0 L 171.5 174.0 L 172.0 182.5 L 172.5 188.0 L 173.0 189.5 L 173.0 185.5 L 173.0 183.5 " stroke="black" fill="none" stroke-width="9.0" stroke-linecap="round" stroke-linejoin="round" />
<path d="M 112.0 102.0 L 112.0 101.0 L 112.0 100.5 L 111.5 100.5 L 112.5 100.0 L 116.0 99.5 L 122.0 98.5 L 127.5 98.0 L 131.0 99.0 L 132.5 101.5 L 132.5 105.5 L 130.0 111.5 L 127.0 119.5 L 123.5 128.5 L 120.5 135.0 L 117.5 140.0 L 116.5 142.5 L 116.5 143.0 L 116.5 143.0 L 117.5 142.5 L 118.5 142.0 L 119.5 141.5 L 120.5 141.0 L 121.5 140.0 L 123.0 139.5 L 124.0 139.0 L 125.0 139.0 L 126.0 139.5 L 127.0 141.0 L 127.5 143.0 L 128.0 146.0 L 128.0 150.0 L 127.5 155.5 L 126.5 162.0 L 125.0 169.5 L 122.0 177.5 L 117.0 187.0 L 112.0 195.5 L 108.0 201.5 L 106.0 205.0 L 105.5 206.0 L 105.0 206.0 L 104.5 206.0 L 104.5 205.0 L 104.5 204.5 " stroke="black" fill="none" stroke-width="9.0" stroke-linecap="round" stroke-linejoin="round" />
<path d="M 99.0 194.5 L 98.0 194.0 L 98.0 194.0 L 98.0 193.5 L 99.0 193.5 L 103.0 194.0 L 110.0 196.0 L 120.5 199.0 L 133.5 202.5 L 150.5 205.0 L 167.0 206.0 L 183.0 208.5 L 196.0 210.0 L 206.5 210.5 L 214.0 210.5 L 218.5 210.0 L 218.5 209.5 " stroke="black" fill="none" stroke-width="9.0" stroke-linecap="round" stroke-linejoin="round" />
</svg>