<svg xmlns="http://www.w3.org/2000/svg" width="300" height="300" viewBox="0 0 300 300">
<path d="M 141.5 83.0 L 141.5 83.0 L 141.5 84.0 L 143.0 86.5 L 146.0 90.5 L 149.5 93.5 L 150.5 94.0 " stroke="black" fill="none" stroke-width="8.0" stroke-linecap="round" stroke-linejoin="round" />
<path d="M 114.0 105.0 L 116.0 105.0 L 119.5 104.5 L 127.0 104.5 L 141.0 105.0 L 154.5 106.0 L 169.0 106.0 L 180.5 104.5 L 183.0 104.0 L 182.5 104.0 " stroke="black" fill="none" stroke-width="8.0" stroke-linecap="round" stroke-linejoin="round" />
<path d="M 117.0 110.5 L 117.5 110.5 L 118.0 111.0 L 118.5 112.0 L 119.5 115.0 L 120.5 124.5 L 121.0 143.0 L 119.0 164.5 L 115.5 182.5 L 112.0 195.0 L 108.0 204.5 L 104.0 208.0 L 103.5 206.0 " stroke="black" fill="none" stroke-width="8.0" stroke-linecap="round" stroke-linejoin="round" />
<path d="M 133.0 129.5 L 133.0 129.5 L 135.0 129.5 L 136.5 129.0 L 141.5 128.5 L 150.5 127.5 L 162.0 126.5 L 172.0 125.5 L 179.0 125.0 L 181.0 125.5 " stroke="black" fill="none" stroke-width="8.0" stroke-linecap="round" stroke-linejoin="round" />
<path d="M 146.0 117.0 L 146.0 117.0 L 146.0 118.0 L 146.0 119.5 L 146.0 123.5 L 147.0 129.5 L 147.5 135.5 L 148.0 137.5 " stroke="black" fill="none" stroke-width="8.0" stroke-linecap="round" stroke-linejoin="round" />
<path d="M 168.5 116.5 L 168.0 116.5 L 167.5 116.5 L 167.5 116.5 L 167.5 117.5 L 168.0 121.5 L 168.5 128.5 L 168.5 135.5 L 168.5 139.0 L 168.5 140.0 " stroke="black" fill="none" stroke-width="8.0" stroke-linecap="round" stroke-linejoin="round" />
<path d="M 144.5 146.5 L 144.5 147.0 L 144.0 147.0 L 145.0 147.0 L 148.5 147.0 L 155.0 146.0 L 163.0 144.5 L 169.5 144.0 L 171.5 144.0 " stroke="black" fill="none" stroke-width="8.0" stroke-linecap="round" stroke-linejoin="round" />
<path d="M 138.5 164.0 L 139.5 163.5 L 140.5 163.5 L 141.0 166.5 L 142.0 173.0 L 142.0 180.0 L 142.5 184.0 L 142.5 184.5 " stroke="black" fill="none" stroke-width="8.0" stroke-linecap="round" stroke-linejoin="round" />
<path d="M 143.0 164.5 L 143.0 164.5 L 143.0 164.5 L 143.5 164.5 L 147.5 163.5 L 156.5 161.0 L 166.5 158.5 L 172.0 158.5 L 174.0 159.5 L 174.0 161.0 L 174.5 162.0 L 174.5 162.0 L 174.5 162.5 L 175.0 162.5 L 175.0 163.0 L 175.0 164.0 L 175.5 165.5 L 176.0 167.5 L 176.5 171.0 L 177.0 175.5 L 177.5 181.0 L 177.5 185.5 L 177.5 188.5 L 177.0 189.5 L 175.0 189.5 L 172.5 187.5 L 171.5 186.5 " stroke="black" fill="none" stroke-width="8.0" stroke-linecap="round" stroke-linejoin="round" />
<path d="M 156.0 150.5 L 156.0 151.5 L 156.5 152.5 L 157.0 157.0 L 157.5 170.0 L 158.0 188.0 L 158.0 200.0 L 158.0 205.0 L 158.0 205.0 " stroke="black" fill="none" stroke-width="8.0" stroke-linecap="round" stroke-linejoin="round" />
</svg>