<svg xmlns="http://www.w3.org/2000/svg" width="300" height="300" viewBox="0 0 300 300">
<path d="M 144.5 96.5 L 144.0 96.5 L 142.5 96.0 L 142.0 96.0 L 141.5 95.5 L 143.0 96.5 L 146.5 99.0 L 150.5 101.0 L 154.0 102.0 L 156.0 102.0 " stroke="black" fill="none" stroke-width="7.0" stroke-linecap="round" stroke-linejoin="round" />
<path d="M 121.0 114.0 L 121.5 114.0 L 121.5 114.0 L 122.0 114.0 L 124.0 114.5 L 130.0 115.0 L 141.5 114.5 L 155.0 112.5 L 165.0 112.0 L 171.5 112.5 L 174.5 113.0 L 174.5 113.0 L 174.5 112.0 " stroke="black" fill="none" stroke-width="7.0" stroke-linecap="round" stroke-linejoin="round" />
<circle cx="123.0" cy="123.5" r="3.5" fill="black" />
<path d="M 118.0 117.5 L 118.5 116.5 L 119.0 116.5 L 119.0 116.5 L 119.5 116.5 L 119.5 119.0 L 119.5 126.0 L 118.0 140.0 L 113.5 159.5 L 108.5 174.0 L 104.5 181.0 L 100.5 184.5 L 98.5 184.5 L 98.5 182.5 " stroke="black" fill="none" stroke-width="7.0" stroke-linecap="round" stroke-linejoin="round" />
<path d="M 128.5 144.5 L 128.5 144.5 L 128.0 144.5 L 128.0 144.5 L 129.0 144.5 L 135.5 144.0 L 147.0 143.0 L 157.0 142.0 L 165.0 141.0 L 169.5 140.0 L 170.5 140.0 " stroke="black" fill="none" stroke-width="7.0" stroke-linecap="round" stroke-linejoin="round" />
<path d="M 150.0 127.0 L 150.0 126.5 L 150.0 126.0 L 149.5 125.5 L 149.5 125.5 L 149.5 125.5 L 149.0 131.0 L 148.5 143.0 L 148.0 160.0 L 147.0 175.0 L 146.5 182.5 L 146.5 184.5 L 147.0 182.5 L 147.5 176.5 " stroke="black" fill="none" stroke-width="7.0" stroke-linecap="round" stroke-linejoin="round" />
<path d="M 143.0 150.5 L 143.0 150.5 L 142.5 150.5 L 142.0 151.0 L 142.0 151.0 L 142.0 152.0 L 141.0 155.5 L 137.5 161.5 L 132.0 169.0 L 128.0 172.5 L 126.5 173.5 L 126.5 173.0 " stroke="black" fill="none" stroke-width="7.0" stroke-linecap="round" stroke-linejoin="round" />
<path d="M 152.5 151.5 L 152.0 151.5 L 151.0 152.0 L 151.0 152.5 L 153.5 154.5 L 160.0 160.5 L 168.0 168.0 L 174.0 173.0 L 178.0 173.5 L 178.0 173.0 " stroke="black" fill="none" stroke-width="7.0" stroke-linecap="round" stroke-linejoin="round" />
</svg>