<svg xmlns="http://www.w3.org/2000/svg" width="300" height="300" viewBox="0 0 300 300">
<path d="M 110.0 123.0 L 110.0 122.5 L 110.5 122.0 L 111.0 122.0 L 111.0 123.5 L 111.0 130.5 L 111.5 145.0 L 111.5 160.5 L 111.5 166.0 L 111.5 165.5 L 111.5 164.0 " stroke="black" fill="none" stroke-width="8.0" stroke-linecap="round" stroke-linejoin="round" />
<path d="M 114.5 121.0 L 114.5 121.0 L 113.5 120.5 L 113.0 119.5 L 113.0 119.5 L 114.0 119.0 L 117.0 118.5 L 122.0 118.0 L 127.5 117.5 L 134.5 117.0 L 140.5 117.0 L 144.0 117.0 L 145.0 117.0 L 145.0 117.0 L 144.5 117.0 L 144.0 117.5 L 144.0 118.5 L 144.0 120.5 L 144.0 123.5 L 144.0 128.0 L 144.5 135.0 L 145.0 144.0 L 145.5 152.5 L 146.0 161.5 L 146.0 169.0 L 146.0 172.5 L 145.5 173.5 L 144.0 173.5 L 142.0 173.0 L 140.0 171.5 L 139.0 170.5 " stroke="black" fill="none" stroke-width="8.0" stroke-linecap="round" stroke-linejoin="round" />
<path d="M 126.5 93.5 L 126.5 93.5 L 126.5 94.0 L 126.0 94.5 L 126.0 96.0 L 126.5 102.5 L 127.0 120.0 L 127.0 144.0 L 126.5 164.5 L 125.5 178.5 L 125.0 188.5 L 126.0 195.5 L 128.0 200.5 L 128.5 201.0 " stroke="black" fill="none" stroke-width="8.0" stroke-linecap="round" stroke-linejoin="round" />
<path d="M 163.0 97.5 L 163.0 97.5 L 163.0 97.0 L 163.0 97.0 L 163.0 97.5 L 163.5 102.0 L 163.5 113.0 L 163.5 127.0 L 163.5 135.0 L 163.5 137.0 L 164.0 135.5 " stroke="black" fill="none" stroke-width="8.0" stroke-linecap="round" stroke-linejoin="round" />
<path d="M 167.5 96.5 L 166.0 96.5 L 164.5 96.0 L 164.5 96.0 L 165.0 96.0 L 168.0 96.0 L 172.5 96.0 L 177.5 96.5 L 183.0 97.5 L 188.5 97.5 L 191.5 97.5 L 192.5 97.0 L 192.5 97.5 L 192.0 97.5 " stroke="black" fill="none" stroke-width="8.0" stroke-linecap="round" stroke-linejoin="round" />
<path d="M 169.5 113.0 L 168.0 113.5 L 167.5 114.0 L 167.5 114.0 L 170.5 113.5 L 174.0 113.0 L 178.5 112.5 L 181.5 112.5 L 183.5 112.5 " stroke="black" fill="none" stroke-width="8.0" stroke-linecap="round" stroke-linejoin="round" />
<path d="M 167.5 127.0 L 167.5 127.0 L 167.0 127.0 L 168.0 127.0 L 171.5 126.5 L 176.0 126.5 L 181.0 126.5 L 182.0 126.5 " stroke="black" fill="none" stroke-width="8.0" stroke-linecap="round" stroke-linejoin="round" />
<path d="M 158.5 145.5 L 158.0 146.0 L 157.5 146.0 L 157.0 146.0 L 157.0 146.5 L 158.0 146.5 L 163.0 146.0 L 170.5 145.0 L 180.5 144.0 L 187.5 144.0 L 190.5 144.5 L 191.5 146.0 " stroke="black" fill="none" stroke-width="8.0" stroke-linecap="round" stroke-linejoin="round" />
<path d="M 165.0 151.0 L 164.0 150.5 L 163.5 150.5 L 163.5 151.0 L 164.0 153.5 L 165.0 158.5 L 165.0 167.5 L 165.0 178.0 L 164.0 187.0 L 163.5 194.0 L 163.5 197.5 L 164.0 198.5 L 164.0 198.0 L 164.5 197.5 L 165.5 196.0 L 167.0 194.5 L 168.5 192.5 L 170.0 190.5 L 171.0 189.0 L 172.5 187.5 " stroke="black" fill="none" stroke-width="8.0" stroke-linecap="round" stroke-linejoin="round" />
<path d="M 195.5 157.0 L 195.5 157.0 L 195.0 157.0 L 195.0 157.0 L 195.0 157.0 L 194.0 157.5 L 191.5 161.0 L 187.0 166.0 L 183.5 170.0 L 181.5 171.0 " stroke="black" fill="none" stroke-width="8.0" stroke-linecap="round" stroke-linejoin="round" />
<path d="M 170.5 160.0 L 170.0 161.0 L 170.5 162.5 L 174.0 166.0 L 179.5 173.5 L 186.0 184.5 L 192.0 193.0 L 197.5 197.5 L 203.5 199.5 L 206.0 199.5 " stroke="black" fill="none" stroke-width="8.0" stroke-linecap="round" stroke-linejoin="round" />
</svg>