<svg xmlns="http://www.w3.org/2000/svg" width="300" height="300" viewBox="0 0 300 300">
<path d="M 145.0 93.0 L 144.0 93.0 L 143.5 93.0 L 143.5 94.0 L 145.0 96.5 L 148.0 100.0 L 152.0 102.5 L 155.0 104.0 L 155.5 104.5 " stroke="black" fill="none" stroke-width="6.0" stroke-linecap="round" stroke-linejoin="round" />
<path d="M 127.0 112.5 L 127.0 112.5 L 126.0 112.5 L 126.0 112.5 L 128.5 112.5 L 135.5 112.5 L 146.0 112.5 L 157.0 113.0 L 166.5 113.0 L 172.5 113.0 L 173.5 113.0 L 173.0 113.0 L 172.5 112.5 L 171.5 112.5 " stroke="black" fill="none" stroke-width="6.0" stroke-linecap="round" stroke-linejoin="round" />
<path d="M 127.0 116.5 L 127.0 116.5 L 126.5 115.5 L 126.0 114.5 L 126.0 114.5 L 126.0 114.5 L 126.0 117.5 L 126.5 124.0 L 126.5 134.5 L 126.0 149.0 L 124.5 162.5 L 123.5 172.5 L 122.0 181.5 L 119.5 189.0 L 116.5 194.0 L 115.0 195.5 L 114.5 195.0 L 114.0 193.5 " stroke="black" fill="none" stroke-width="6.0" stroke-linecap="round" stroke-linejoin="round" />
<path d="M 138.5 125.5 L 138.0 125.5 L 138.0 125.5 L 137.5 125.5 L 138.0 126.0 L 139.0 127.5 L 140.5 129.0 L 141.5 129.5 " stroke="black" fill="none" stroke-width="6.0" stroke-linecap="round" stroke-linejoin="round" />
<path d="M 136.0 138.5 L 136.0 138.5 L 135.0 138.5 L 134.0 138.5 L 134.0 138.5 L 136.5 137.5 L 141.0 136.5 L 145.0 136.0 L 148.0 135.5 L 149.5 135.5 L 150.0 136.5 L 150.5 138.0 L 150.5 140.0 L 150.0 143.0 L 148.5 147.0 L 147.5 150.0 L 147.5 152.0 " stroke="black" fill="none" stroke-width="6.0" stroke-linecap="round" stroke-linejoin="round" />
<path d="M 139.5 149.0 L 139.0 149.0 L 138.5 149.0 L 138.0 148.5 L 138.5 148.0 L 141.0 147.5 L 144.0 147.0 L 145.5 147.0 " stroke="black" fill="none" stroke-width="6.0" stroke-linecap="round" stroke-linejoin="round" />
<path d="M 136.5 156.5 L 136.0 157.0 L 135.0 157.5 L 135.0 158.0 L 136.0 158.0 L 138.5 157.0 L 141.0 156.0 L 141.5 155.5 " stroke="black" fill="none" stroke-width="6.0" stroke-linecap="round" stroke-linejoin="round" />
<path d="M 137.0 139.5 L 137.0 139.5 L 136.5 139.0 L 136.5 139.0 L 136.5 141.0 L 136.0 146.0 L 135.5 153.5 L 134.0 163.5 L 132.5 173.5 L 131.5 181.0 L 131.5 185.0 L 132.0 186.5 L 132.5 186.5 L 133.5 185.5 L 135.5 184.0 L 138.0 181.5 L 140.0 179.5 L 142.0 178.5 L 142.5 178.0 " stroke="black" fill="none" stroke-width="6.0" stroke-linecap="round" stroke-linejoin="round" />
<path d="M 145.0 169.0 L 144.5 169.0 L 144.5 169.0 L 144.5 170.0 L 145.5 174.0 L 147.5 178.5 L 149.5 180.5 " stroke="black" fill="none" stroke-width="6.0" stroke-linecap="round" stroke-linejoin="round" />
<path d="M 163.0 133.0 L 161.5 133.0 L 160.5 133.0 L 161.0 132.0 L 164.0 131.0 L 167.0 130.5 L 170.0 131.0 L 171.0 133.5 L 170.5 137.0 L 168.0 140.5 L 166.5 142.5 L 166.5 144.5 L 168.0 146.0 L 170.0 148.5 L 172.0 151.5 L 172.0 155.0 L 171.5 157.5 L 169.5 158.0 L 167.5 157.5 L 165.5 155.5 L 163.5 153.5 " stroke="black" fill="none" stroke-width="6.0" stroke-linecap="round" stroke-linejoin="round" />
<path d="M 159.5 132.5 L 159.5 132.5 L 159.0 132.5 L 159.0 132.5 L 159.0 134.0 L 159.0 140.5 L 159.0 154.0 L 159.0 169.0 L 159.0 179.5 L 159.5 184.5 L 160.0 187.0 L 160.5 188.0 " stroke="black" fill="none" stroke-width="6.0" stroke-linecap="round" stroke-linejoin="round" />
</svg>