<svg xmlns="http://www.w3.org/2000/svg" width="300" height="300" viewBox="0 0 300 300">
<path d="M 143.8888888888889 101.11111111111111 L 143.33333333333334 101.66666666666667 L 143.33333333333334 102.22222222222223 L 145.55555555555557 103.88888888888889 L 148.8888888888889 106.11111111111111 L 152.22222222222223 108.88888888888889 L 154.44444444444446 110.0 L 154.44444444444446 110.0 " stroke="black" fill="none" stroke-width="7.0" stroke-linecap="round" stroke-linejoin="round" />
<path d="M 126.66666666666667 121.66666666666667 L 126.1111111111111 121.66666666666667 L 125.55555555555556 121.1111111111111 L 125.55555555555556 121.1111111111111 L 125.00000000000001 121.1111111111111 L 127.22222222222221 120.55555555555556 L 132.22222222222223 120.55555555555556 L 142.22222222222223 120.55555555555556 L 157.22222222222223 120.00000000000001 L 171.11111111111114 119.44444444444444 L 178.33333333333334 118.8888888888889 L 180.00000000000003 118.33333333333333 L 178.8888888888889 118.33333333333333 L 178.33333333333334 118.33333333333333 " stroke="black" fill="none" stroke-width="7.0" stroke-linecap="round" stroke-linejoin="round" />
<path d="M 123.33333333333333 123.8888888888889 L 123.33333333333333 123.8888888888889 L 122.22222222222221 123.33333333333333 L 122.22222222222221 122.77777777777779 L 122.22222222222221 122.22222222222221 L 122.77777777777779 122.22222222222221 L 123.33333333333333 123.8888888888889 L 124.44444444444444 127.77777777777779 L 124.44444444444444 136.66666666666669 L 123.8888888888889 151.11111111111111 L 121.66666666666667 166.66666666666669 L 118.8888888888889 175.55555555555557 L 116.1111111111111 179.44444444444446 L 113.8888888888889 182.22222222222223 L 112.22222222222221 183.8888888888889 L 112.22222222222221 183.8888888888889 L 112.22222222222221 182.7777777777778 " stroke="black" fill="none" stroke-width="7.0" stroke-linecap="round" stroke-linejoin="round" />
<path d="M 158.33333333333334 135.55555555555557 L 157.7777777777778 135.55555555555557 L 156.66666666666669 136.66666666666669 L 156.11111111111111 136.66666666666669 L 155.55555555555557 136.66666666666669 L 157.22222222222223 136.11111111111111 L 160.55555555555557 135.00000000000003 L 164.44444444444446 133.8888888888889 L 169.44444444444446 132.7777777777778 L 173.33333333333334 131.66666666666669 L 176.11111111111114 131.11111111111111 L 176.66666666666669 131.11111111111111 L 176.66666666666669 131.11111111111111 " stroke="black" fill="none" stroke-width="7.0" stroke-linecap="round" stroke-linejoin="round" />
<path d="M 159.44444444444446 150.00000000000003 L 159.44444444444446 150.00000000000003 L 159.44444444444446 150.00000000000003 L 160.00000000000003 150.00000000000003 L 163.33333333333334 149.44444444444446 L 167.22222222222223 148.33333333333334 L 171.66666666666669 147.7777777777778 L 175.00000000000003 147.22222222222223 L 177.22222222222223 147.22222222222223 " stroke="black" fill="none" stroke-width="7.0" stroke-linecap="round" stroke-linejoin="round" />
<path d="M 167.7777777777778 137.22222222222223 L 166.66666666666669 137.22222222222223 L 166.11111111111114 136.66666666666669 L 166.11111111111114 136.66666666666669 L 166.11111111111114 137.7777777777778 L 166.66666666666669 142.22222222222223 L 167.22222222222223 149.44444444444446 L 167.22222222222223 157.7777777777778 L 167.22222222222223 162.7777777777778 L 167.22222222222223 163.8888888888889 L 167.22222222222223 163.8888888888889 " stroke="black" fill="none" stroke-width="7.0" stroke-linecap="round" stroke-linejoin="round" />
<path d="M 155.55555555555557 167.22222222222223 L 155.55555555555557 167.22222222222223 L 155.55555555555557 167.22222222222223 L 155.55555555555557 166.66666666666669 L 158.8888888888889 166.11111111111114 L 164.44444444444446 166.11111111111114 L 170.55555555555557 165.55555555555557 L 174.44444444444446 165.00000000000003 L 175.00000000000003 164.44444444444446 " stroke="black" fill="none" stroke-width="7.0" stroke-linecap="round" stroke-linejoin="round" />
<path d="M 137.22222222222223 137.22222222222223 L 137.22222222222223 137.22222222222223 L 136.66666666666669 137.7777777777778 L 136.66666666666669 137.7777777777778 L 136.66666666666669 137.7777777777778 L 137.22222222222223 137.7777777777778 L 139.44444444444446 137.22222222222223 L 142.22222222222223 137.22222222222223 L 145.00000000000003 137.22222222222223 L 146.66666666666669 137.22222222222223 L 147.22222222222223 138.33333333333334 L 146.66666666666669 140.55555555555557 L 144.44444444444446 143.8888888888889 L 142.22222222222223 146.66666666666669 L 141.11111111111111 148.8888888888889 L 140.00000000000003 149.44444444444446 L 140.00000000000003 150.00000000000003 L 140.00000000000003 150.00000000000003 L 140.55555555555557 150.00000000000003 L 141.11111111111111 150.00000000000003 L 142.22222222222223 149.44444444444446 L 143.33333333333334 149.44444444444446 L 143.8888888888889 149.44444444444446 L 144.44444444444446 149.44444444444446 L 144.44444444444446 151.11111111111111 L 144.44444444444446 153.8888888888889 L 143.33333333333334 157.7777777777778 L 141.11111111111111 163.33333333333334 L 138.8888888888889 168.8888888888889 L 136.11111111111111 173.8888888888889 L 135.00000000000003 176.11111111111114 L 133.8888888888889 176.66666666666669 L 132.7777777777778 176.66666666666669 L 132.7777777777778 176.11111111111114 L 132.22222222222223 176.11111111111114 L 132.22222222222223 175.55555555555557 L 132.22222222222223 175.55555555555557 L 132.22222222222223 175.55555555555557 L 132.22222222222223 175.55555555555557 L 132.22222222222223 175.55555555555557 L 132.22222222222223 175.55555555555557 L 132.22222222222223 175.55555555555557 L 132.22222222222223 175.55555555555557 L 132.22222222222223 175.55555555555557 L 132.22222222222223 175.55555555555557 L 132.22222222222223 175.55555555555557 L 132.22222222222223 175.55555555555557 L 131.66666666666669 175.55555555555557 L 131.66666666666669 175.55555555555557 L 131.66666666666669 175.55555555555557 L 131.66666666666669 175.55555555555557 L 131.66666666666669 175.55555555555557 L 131.66666666666669 175.55555555555557 L 131.66666666666669 175.55555555555557 L 131.66666666666669 175.55555555555557 L 131.66666666666669 175.55555555555557 " stroke="black" fill="none" stroke-width="7.0" stroke-linecap="round" stroke-linejoin="round" />
<path d="M 130.55555555555557 168.33333333333334 L 130.55555555555557 168.33333333333334 L 130.55555555555557 168.33333333333334 L 130.55555555555557 168.33333333333334 L 132.7777777777778 168.8888888888889 L 136.66666666666669 170.55555555555557 L 142.7777777777778 173.8888888888889 L 152.22222222222223 177.22222222222223 L 166.11111111111114 179.44444444444446 L 177.7777777777778 180.00000000000003 L 186.66666666666669 180.00000000000003 L 191.11111111111114 179.44444444444446 L 192.22222222222223 178.33333333333334 L 192.22222222222223 177.7777777777778 " stroke="black" fill="none" stroke-width="7.0" stroke-linecap="round" stroke-linejoin="round" />
</svg>