<svg xmlns="http://www.w3.org/2000/svg" width="300" height="300" viewBox="0 0 300 300">
<path d="M 146.0 88.0 L 145.5 88.0 L 145.0 88.0 L 144.5 88.0 L 144.5 88.5 L 147.5 91.0 L 153.0 95.5 L 158.5 99.0 L 162.0 101.0 L 163.5 101.5 " stroke="black" fill="none" stroke-width="8.0" stroke-linecap="round" stroke-linejoin="round" />
<path d="M 121.5 111.5 L 121.0 111.5 L 120.5 111.5 L 121.5 112.0 L 125.5 112.0 L 135.0 112.5 L 148.5 112.5 L 161.5 112.5 L 173.0 111.0 L 182.0 110.0 L 185.5 109.5 L 186.5 110.0 L 186.0 111.0 L 185.0 111.0 L 184.0 111.0 " stroke="black" fill="none" stroke-width="8.0" stroke-linecap="round" stroke-linejoin="round" />
<path d="M 119.0 113.0 L 119.0 113.0 L 119.0 113.0 L 119.0 113.0 L 119.0 113.0 L 119.0 114.0 L 120.0 118.5 L 120.0 129.0 L 118.0 144.5 L 113.5 159.5 L 108.5 172.5 L 103.5 184.5 L 97.5 195.0 L 93.5 201.0 L 91.5 203.0 L 91.5 201.5 " stroke="black" fill="none" stroke-width="8.0" stroke-linecap="round" stroke-linejoin="round" />
<path d="M 142.0 131.0 L 143.0 130.0 L 143.5 129.0 L 144.0 128.5 L 144.5 128.0 L 144.5 128.0 L 145.0 128.5 L 144.5 131.5 L 142.5 137.5 L 138.5 146.5 L 134.0 154.0 L 131.5 156.5 L 130.5 156.5 L 130.0 155.0 L 130.0 154.5 " stroke="black" fill="none" stroke-width="8.0" stroke-linecap="round" stroke-linejoin="round" />
<path d="M 136.0 146.5 L 137.0 146.0 L 138.5 145.5 L 139.5 146.5 L 140.5 149.5 L 141.0 157.0 L 141.5 170.0 L 140.5 184.0 L 140.0 193.0 L 139.5 196.5 L 139.5 196.5 L 139.5 195.5 " stroke="black" fill="none" stroke-width="8.0" stroke-linecap="round" stroke-linejoin="round" />
<path d="M 159.5 141.0 L 159.5 141.0 L 159.5 141.0 L 159.0 141.0 L 159.0 141.0 L 160.0 141.0 L 163.5 141.5 L 170.0 141.5 L 177.0 142.0 L 184.0 142.5 L 188.0 142.5 L 188.5 142.0 " stroke="black" fill="none" stroke-width="8.0" stroke-linecap="round" stroke-linejoin="round" />
<path d="M 178.0 128.0 L 178.0 128.0 L 178.0 128.0 L 178.0 128.0 L 178.5 128.0 L 179.0 131.0 L 180.0 137.5 L 181.0 149.0 L 181.5 161.5 L 182.0 172.0 L 182.0 180.0 L 182.5 187.0 L 182.5 191.5 L 183.0 195.5 L 183.0 199.0 L 182.5 200.0 L 181.0 200.5 L 178.0 198.5 L 174.0 194.0 L 171.0 190.0 " stroke="black" fill="none" stroke-width="8.0" stroke-linecap="round" stroke-linejoin="round" />
<path d="M 159.0 158.0 L 159.0 158.0 L 159.0 158.5 L 159.0 159.0 L 159.0 159.5 L 161.0 162.0 L 164.0 165.0 L 166.5 166.5 L 168.0 167.0 " stroke="black" fill="none" stroke-width="8.0" stroke-linecap="round" stroke-linejoin="round" />
</svg>