<svg xmlns="http://www.w3.org/2000/svg" width="300" height="300" viewBox="0 0 300 300">
<path d="M 145.0 100.0 L 145.0 100.0 L 145.0 100.0 L 145.5 100.0 L 148.5 100.5 L 152.5 102.5 L 156.0 104.5 L 158.0 106.0 L 159.0 106.0 " stroke="black" fill="none" stroke-width="7.0" stroke-linecap="round" stroke-linejoin="round" />
<path d="M 171.0 112.5 L 170.0 113.0 L 169.0 113.5 L 168.0 113.5 L 166.0 113.5 L 163.5 113.5 L 159.5 113.0 L 154.5 113.0 L 148.0 114.0 L 142.5 114.5 L 138.0 115.0 L 135.0 115.0 L 133.0 115.0 L 132.0 115.5 L 131.5 115.5 L 131.0 115.5 L 130.5 115.5 L 129.0 115.5 L 128.5 115.5 L 128.0 115.5 L 127.5 115.5 L 127.5 115.5 L 127.5 115.5 L 127.5 115.5 L 127.5 115.5 L 127.5 115.5 L 127.5 115.5 L 127.5 115.5 L 127.5 115.5 L 127.5 115.5 L 128.0 115.5 L 128.0 115.5 L 128.0 115.5 L 128.0 115.5 L 128.0 115.5 L 128.0 115.5 L 128.0 115.5 L 128.0 115.5 L 128.0 115.5 L 128.0 115.5 L 128.0 115.5 L 128.5 116.0 L 129.0 118.5 L 130.0 125.0 L 131.0 137.0 L 131.5 152.0 L 132.0 167.0 L 132.0 178.0 L 130.0 184.0 L 127.5 189.0 L 124.0 193.5 L 121.5 195.5 L 120.5 196.5 L 120.5 197.0 L 121.0 197.0 " stroke="black" fill="none" stroke-width="7.0" stroke-linecap="round" stroke-linejoin="round" />
<path d="M 141.0 131.5 L 139.0 132.5 L 138.5 133.0 L 138.5 133.0 L 141.0 132.5 L 145.5 131.5 L 151.0 131.0 L 157.0 130.5 L 163.5 130.5 L 167.0 130.0 L 169.0 130.0 L 169.0 130.0 L 169.0 130.0 L 168.5 130.5 L 168.5 132.0 L 168.0 135.0 L 167.0 139.0 L 166.5 142.5 L 166.0 145.0 L 165.0 147.0 L 165.0 148.5 " stroke="black" fill="none" stroke-width="7.0" stroke-linecap="round" stroke-linejoin="round" />
<path d="M 140.5 144.0 L 138.0 144.0 L 137.5 144.0 L 138.5 144.0 L 143.0 143.5 L 149.5 142.5 L 157.0 141.5 L 166.0 141.0 L 171.5 140.0 L 174.0 139.5 " stroke="black" fill="none" stroke-width="7.0" stroke-linecap="round" stroke-linejoin="round" />
<path d="M 139.0 154.0 L 139.0 154.0 L 139.0 154.0 L 139.0 154.0 L 142.5 153.5 L 149.5 151.5 L 157.5 150.5 L 165.0 150.5 L 168.5 150.5 " stroke="black" fill="none" stroke-width="7.0" stroke-linecap="round" stroke-linejoin="round" />
<path d="M 151.0 122.0 L 150.5 121.0 L 150.0 120.5 L 150.0 120.5 L 150.5 121.5 L 151.0 124.5 L 151.5 130.0 L 152.5 139.5 L 153.5 151.0 L 154.5 162.0 L 155.0 171.5 L 155.0 180.0 L 155.0 187.0 L 155.5 191.5 L 155.5 194.0 L 155.5 195.0 L 155.0 195.5 L 154.0 196.5 L 152.5 198.0 L 151.0 199.5 L 149.5 200.0 L 149.0 200.0 L 148.0 199.0 L 148.0 197.0 " stroke="black" fill="none" stroke-width="7.0" stroke-linecap="round" stroke-linejoin="round" />
<path d="M 140.5 168.5 L 139.5 169.0 L 138.0 170.0 L 138.0 171.5 L 140.0 172.5 L 143.0 173.5 L 145.0 174.0 L 147.0 175.5 " stroke="black" fill="none" stroke-width="7.0" stroke-linecap="round" stroke-linejoin="round" />
<path d="M 141.0 187.5 L 140.5 187.5 L 139.5 187.0 L 139.5 187.0 L 140.5 187.0 L 142.5 187.0 L 145.0 185.0 L 146.0 184.5 " stroke="black" fill="none" stroke-width="7.0" stroke-linecap="round" stroke-linejoin="round" />
<path d="M 171.0 163.0 L 171.0 163.0 L 171.0 162.5 L 171.0 162.5 L 171.0 162.5 L 170.5 163.0 L 170.0 165.0 " stroke="black" fill="none" stroke-width="7.0" stroke-linecap="round" stroke-linejoin="round" />
<path d="M 166.0 178.5 L 165.5 179.5 L 165.5 180.5 L 168.5 182.5 L 173.5 184.5 L 179.0 186.5 L 183.0 188.0 " stroke="black" fill="none" stroke-width="7.0" stroke-linecap="round" stroke-linejoin="round" />
</svg>