<svg xmlns="http://www.w3.org/2000/svg" width="300" height="300" viewBox="0 0 300 300">
<path d="M 109.0 71.0 L 108.0 70.0 L 107.0 69.0 L 107.0 69.0 L 106.0 69.0 L 102.0 76.0 L 92.0 90.0 L 78.0 104.0 L 70.0 110.0 L 68.0 111.0 " stroke="black" fill="none" stroke-width="14.0" stroke-linecap="round" stroke-linejoin="round" />
<path d="M 109.0 97.0 L 109.0 97.0 L 109.0 98.0 L 109.0 98.0 L 109.0 101.0 L 104.0 111.0 L 92.0 134.0 L 76.0 156.0 L 65.0 163.0 L 63.0 160.0 L 63.0 158.0 " stroke="black" fill="none" stroke-width="14.0" stroke-linecap="round" stroke-linejoin="round" />
<path d="M 87.0 142.0 L 87.0 142.0 L 87.0 143.0 L 87.0 149.0 L 88.0 172.0 L 89.0 203.0 L 90.0 220.0 L 92.0 223.0 " stroke="black" fill="none" stroke-width="14.0" stroke-linecap="round" stroke-linejoin="round" />
<path d="M 141.0 90.0 L 139.0 90.0 L 137.0 90.0 L 136.0 90.0 L 141.0 90.0 L 152.0 88.0 L 170.0 86.0 L 190.0 85.0 L 206.0 84.0 L 217.0 86.0 L 221.0 88.0 L 221.0 89.0 L 220.0 89.0 L 219.0 90.0 L 218.0 92.0 L 218.0 95.0 L 218.0 101.0 L 217.0 109.0 L 216.0 120.0 L 215.0 133.0 L 214.0 141.0 L 215.0 143.0 L 215.0 141.0 " stroke="black" fill="none" stroke-width="14.0" stroke-linecap="round" stroke-linejoin="round" />
<path d="M 133.0 116.0 L 131.0 117.0 L 130.0 118.0 L 131.0 118.0 L 137.0 118.0 L 150.0 116.0 L 173.0 115.0 L 202.0 114.0 L 227.0 113.0 L 240.0 111.0 L 243.0 110.0 " stroke="black" fill="none" stroke-width="14.0" stroke-linecap="round" stroke-linejoin="round" />
<path d="M 133.0 152.0 L 132.0 152.0 L 132.0 152.0 L 135.0 152.0 L 148.0 152.0 L 174.0 148.0 L 201.0 143.0 L 223.0 139.0 L 234.0 137.0 " stroke="black" fill="none" stroke-width="14.0" stroke-linecap="round" stroke-linejoin="round" />
<path d="M 132.0 183.0 L 132.0 183.0 L 132.0 183.0 L 132.0 183.0 L 133.0 183.0 L 138.0 183.0 L 153.0 181.0 L 174.0 177.0 L 192.0 174.0 L 203.0 173.0 L 205.0 173.0 " stroke="black" fill="none" stroke-width="14.0" stroke-linecap="round" stroke-linejoin="round" />
<path d="M 181.0 63.0 L 180.0 63.0 L 179.0 63.0 L 178.0 63.0 L 178.0 63.0 L 178.0 63.0 L 178.0 65.0 L 178.0 70.0 L 179.0 83.0 L 179.0 102.0 L 179.0 125.0 L 179.0 148.0 L 182.0 171.0 L 184.0 191.0 L 185.0 207.0 L 185.0 220.0 L 185.0 228.0 L 184.0 233.0 L 184.0 237.0 L 184.0 241.0 L 185.0 243.0 L 185.0 243.0 L 185.0 243.0 L 185.0 243.0 L 185.0 244.0 L 185.0 245.0 L 185.0 245.0 L 185.0 245.0 L 185.0 245.0 L 185.0 244.0 " stroke="black" fill="none" stroke-width="14.0" stroke-linecap="round" stroke-linejoin="round" />
<path d="M 139.0 218.0 L 137.0 216.0 L 136.0 216.0 L 136.0 215.0 L 138.0 215.0 L 146.0 216.0 L 163.0 216.0 L 187.0 215.0 L 212.0 212.0 L 232.0 209.0 L 239.0 207.0 L 238.0 207.0 " stroke="black" fill="none" stroke-width="14.0" stroke-linecap="round" stroke-linejoin="round" />
</svg>