<svg xmlns="http://www.w3.org/2000/svg" width="300" height="300" viewBox="0 0 300 300">
<path d="M 124.0 101.0 L 123.5 101.0 L 122.0 101.0 L 120.5 101.5 L 119.5 102.5 L 119.5 103.0 L 121.0 103.0 L 125.5 103.0 L 135.0 101.5 L 148.5 99.0 L 164.0 98.0 L 174.5 98.0 L 181.0 98.5 L 183.0 98.5 L 183.0 99.0 L 181.5 99.0 L 181.0 99.5 L 180.5 100.5 L 180.5 103.0 L 180.0 106.0 L 179.0 110.0 L 178.0 115.5 L 177.0 120.0 L 176.5 123.5 L 176.5 125.0 L 176.0 125.0 " stroke="black" fill="none" stroke-width="9.0" stroke-linecap="round" stroke-linejoin="round" />
<path d="M 118.0 126.5 L 118.0 126.0 L 118.5 125.0 L 120.0 124.0 L 124.0 123.5 L 134.0 122.5 L 148.0 122.0 L 160.5 122.0 L 170.0 122.0 L 173.0 122.0 " stroke="black" fill="none" stroke-width="9.0" stroke-linecap="round" stroke-linejoin="round" />
<path d="M 119.5 130.0 L 119.5 130.0 L 119.5 129.5 L 119.5 129.5 L 120.0 129.5 L 120.5 129.5 L 120.5 131.5 L 120.0 136.5 L 118.5 142.0 L 118.0 146.0 L 118.0 147.5 L 120.0 147.5 L 123.0 147.5 L 127.5 147.0 L 134.5 146.5 L 143.5 146.0 L 153.0 145.0 L 162.0 144.5 L 168.5 144.0 L 174.0 143.5 L 180.0 143.0 L 184.0 142.0 L 187.5 142.0 L 190.0 143.0 L 191.5 145.0 L 193.5 148.0 L 195.5 151.5 L 196.5 157.0 L 197.0 164.5 L 197.0 171.0 L 196.5 176.0 L 195.5 180.5 L 193.5 185.0 L 191.0 189.5 L 187.5 193.5 L 184.0 196.5 L 181.0 197.0 L 177.0 196.0 L 173.0 192.5 L 170.0 188.0 L 169.5 186.5 " stroke="black" fill="none" stroke-width="9.0" stroke-linecap="round" stroke-linejoin="round" />
<path d="M 141.5 85.5 L 141.5 85.5 L 141.5 85.5 L 142.0 85.5 L 142.0 86.0 L 142.5 91.0 L 143.0 104.0 L 141.5 124.0 L 137.0 145.5 L 130.5 164.5 L 125.0 178.5 L 120.0 185.5 L 117.5 187.5 L 116.5 183.5 " stroke="black" fill="none" stroke-width="9.0" stroke-linecap="round" stroke-linejoin="round" />
<path d="M 162.0 88.5 L 162.0 88.5 L 162.0 88.5 L 162.0 88.5 L 162.5 89.0 L 162.5 92.5 L 162.0 104.0 L 160.0 125.0 L 158.0 148.5 L 156.5 166.5 L 154.5 180.5 L 152.5 191.5 L 151.5 198.5 L 151.5 201.0 " stroke="black" fill="none" stroke-width="9.0" stroke-linecap="round" stroke-linejoin="round" />
</svg>