<svg xmlns="http://www.w3.org/2000/svg" width="300" height="300" viewBox="0 0 300 300">
<path d="M 126.5 90.5 L 125.0 90.5 L 124.5 90.5 L 125.0 91.0 L 127.5 92.5 L 131.5 94.5 L 135.5 96.5 L 137.0 97.0 " stroke="black" fill="none" stroke-width="9.0" stroke-linecap="round" stroke-linejoin="round" />
<path d="M 172.0 86.0 L 172.0 86.0 L 171.0 86.0 L 171.0 86.0 L 170.5 86.0 L 170.0 88.0 L 168.0 92.5 L 164.5 98.0 L 162.5 101.5 L 162.5 102.5 " stroke="black" fill="none" stroke-width="9.0" stroke-linecap="round" stroke-linejoin="round" />
<path d="M 127.0 111.5 L 126.0 111.5 L 125.5 112.0 L 126.0 112.0 L 129.5 112.5 L 137.0 112.0 L 148.5 110.5 L 160.5 109.5 L 169.5 109.5 L 173.5 110.5 L 175.0 112.0 L 175.0 113.5 L 174.0 115.0 L 172.5 119.0 L 170.5 124.0 L 168.5 133.0 L 168.0 134.5 L 168.0 134.5 " stroke="black" fill="none" stroke-width="9.0" stroke-linecap="round" stroke-linejoin="round" />
<path d="M 125.5 135.5 L 125.0 135.5 L 124.0 135.5 L 124.5 135.5 L 127.5 135.5 L 135.0 135.0 L 144.5 134.5 L 152.0 134.5 L 157.5 134.5 L 161.0 134.5 L 162.0 134.5 " stroke="black" fill="none" stroke-width="9.0" stroke-linecap="round" stroke-linejoin="round" />
<path d="M 121.0 141.0 L 121.0 140.5 L 121.0 139.5 L 121.0 139.0 L 121.0 139.0 L 121.0 140.0 L 121.0 142.5 L 121.5 147.0 L 122.0 153.0 L 122.5 159.5 L 122.5 163.5 L 123.0 165.0 L 124.5 165.0 L 127.5 164.0 L 133.0 163.5 L 140.5 163.0 L 148.0 162.5 L 156.5 162.0 L 164.0 161.0 L 169.0 160.5 L 172.0 160.5 L 174.0 160.5 L 174.5 161.5 L 175.0 163.5 L 175.5 165.0 L 176.5 167.0 L 177.5 170.0 L 179.0 175.0 L 180.5 180.5 L 181.5 187.0 L 182.0 193.0 L 181.5 197.5 L 179.5 201.5 L 176.5 204.5 L 172.5 205.5 L 168.0 205.0 L 164.5 201.0 L 162.5 196.0 L 162.0 195.0 " stroke="black" fill="none" stroke-width="9.0" stroke-linecap="round" stroke-linejoin="round" />
<path d="M 146.0 115.5 L 145.5 116.0 L 145.0 116.5 L 145.0 119.5 L 145.0 129.0 L 146.0 148.5 L 147.0 172.5 L 148.0 192.0 L 148.5 201.0 L 148.5 207.0 L 148.5 209.5 L 148.5 208.5 L 148.0 207.0 " stroke="black" fill="none" stroke-width="9.0" stroke-linecap="round" stroke-linejoin="round" />
<path d="M 141.0 175.0 L 141.5 174.0 L 142.0 172.0 L 142.5 171.5 L 143.0 171.0 L 143.5 171.0 L 143.0 172.5 L 139.5 177.0 L 132.5 185.5 L 121.5 196.0 L 113.5 201.5 L 112.0 202.0 L 112.5 200.5 " stroke="black" fill="none" stroke-width="9.0" stroke-linecap="round" stroke-linejoin="round" />
</svg>