<svg xmlns="http://www.w3.org/2000/svg" width="300" height="300" viewBox="0 0 300 300">
<path d="M 132.0 108.0 L 132.0 108.0 L 132.5 107.5 L 133.0 107.0 L 133.0 106.5 L 133.5 106.0 L 133.5 105.5 L 133.5 105.5 L 133.5 105.5 L 132.0 108.0 L 129.0 113.5 L 123.5 121.5 L 118.5 130.5 L 116.5 134.5 L 116.5 134.5 L 118.0 132.5 " stroke="black" fill="none" stroke-width="6.0" stroke-linecap="round" stroke-linejoin="round" />
<path d="M 132.0 116.5 L 131.5 116.5 L 131.0 116.5 L 130.5 116.0 L 130.5 115.5 L 132.0 115.0 L 133.5 114.5 L 136.0 114.5 L 138.5 115.0 L 141.0 117.0 L 143.0 119.0 L 144.0 122.0 L 144.0 125.5 L 143.5 130.0 L 141.0 136.0 L 137.0 142.0 L 132.5 147.0 L 129.5 148.5 L 127.5 148.5 L 127.0 147.5 L 127.0 145.0 " stroke="black" fill="none" stroke-width="6.0" stroke-linecap="round" stroke-linejoin="round" />
<path d="M 130.5 125.5 L 130.0 125.5 L 129.0 126.0 L 128.5 126.5 L 128.5 126.5 L 128.5 127.0 L 130.5 127.5 L 133.0 127.5 L 134.5 128.0 " stroke="black" fill="none" stroke-width="6.0" stroke-linecap="round" stroke-linejoin="round" />
<path d="M 160.0 111.5 L 159.0 112.0 L 158.0 112.0 L 158.0 112.0 L 160.5 111.0 L 164.0 110.0 L 167.0 109.5 L 169.5 109.5 L 171.5 109.5 L 172.0 110.0 L 172.5 111.5 L 172.5 113.5 L 172.0 117.0 L 171.5 120.0 L 170.0 122.5 L 169.0 124.0 L 167.5 124.5 L 166.0 124.5 L 165.5 124.5 " stroke="black" fill="none" stroke-width="6.0" stroke-linecap="round" stroke-linejoin="round" />
<path d="M 158.5 112.5 L 158.5 112.5 L 158.0 112.5 L 158.0 112.0 L 157.5 112.0 L 157.5 112.0 L 157.0 112.5 L 156.5 114.5 L 155.0 120.0 L 153.0 127.0 L 152.5 134.0 L 153.5 138.5 L 155.5 141.5 L 157.5 144.0 L 160.0 145.5 L 163.0 146.5 L 166.0 147.0 L 169.5 147.0 L 172.5 147.0 L 175.5 146.0 L 177.5 145.0 L 179.0 143.5 L 179.5 142.0 L 180.0 140.0 L 180.0 138.0 L 180.0 136.0 L 179.5 135.0 L 179.0 134.5 L 178.5 134.0 L 178.0 134.0 L 177.5 134.0 L 177.0 134.0 " stroke="black" fill="none" stroke-width="6.0" stroke-linecap="round" stroke-linejoin="round" />
<path d="M 128.5 166.0 L 128.5 166.0 " stroke="black" fill="none" stroke-width="6.0" stroke-linecap="round" stroke-linejoin="round" />
<path d="M 128.0 163.0 L 128.5 163.0 L 129.0 162.5 L 129.5 162.0 L 130.0 162.0 L 130.0 161.5 L 129.0 163.0 L 127.0 167.0 L 125.5 170.5 L 124.0 172.5 L 124.0 173.0 " stroke="black" fill="none" stroke-width="6.0" stroke-linecap="round" stroke-linejoin="round" />
<path d="M 145.5 160.5 L 145.5 160.5 L 145.5 160.0 L 145.5 160.0 L 145.5 160.0 L 145.5 160.5 L 145.5 163.5 L 145.5 167.0 L 146.5 170.5 L 148.5 174.5 L 152.0 176.5 L 156.5 177.0 L 160.5 176.5 L 162.5 175.5 L 163.0 174.0 L 163.0 172.5 L 163.0 171.0 L 162.5 170.0 L 162.0 170.0 L 162.0 170.0 L 162.0 170.0 L 162.0 170.5 " stroke="black" fill="none" stroke-width="6.0" stroke-linecap="round" stroke-linejoin="round" />
<path d="M 160.5 158.5 L 160.5 159.0 L 159.0 159.0 L 158.5 158.5 L 158.5 158.0 L 158.5 158.0 L 160.5 158.5 L 162.0 160.5 L 163.5 161.5 " stroke="black" fill="none" stroke-width="6.0" stroke-linecap="round" stroke-linejoin="round" />
<path d="M 178.5 163.5 L 178.5 163.5 L 179.0 163.5 L 179.5 164.0 L 180.0 164.5 L 181.0 165.5 L 182.5 168.0 L 183.5 169.0 " stroke="black" fill="none" stroke-width="6.0" stroke-linecap="round" stroke-linejoin="round" />
</svg>