<svg xmlns="http://www.w3.org/2000/svg" width="300" height="300" viewBox="0 0 300 300">
<path d="M 118.5 126.0 L 118.5 126.0 L 118.0 126.5 L 117.5 127.0 L 117.5 127.0 L 119.5 126.5 L 124.0 126.0 L 129.0 125.5 L 133.5 125.5 L 136.5 125.0 L 138.0 124.5 L 138.5 124.0 L 138.5 124.0 " stroke="black" fill="none" stroke-width="8.0" stroke-linecap="round" stroke-linejoin="round" />
<path d="M 131.0 112.5 L 131.0 112.5 L 130.5 113.0 L 130.5 113.0 L 130.5 115.0 L 130.5 120.5 L 130.5 132.5 L 130.0 147.5 L 129.5 159.0 L 129.5 165.0 L 129.5 166.0 L 129.5 165.5 L 129.5 162.5 L 129.5 158.0 " stroke="black" fill="none" stroke-width="8.0" stroke-linecap="round" stroke-linejoin="round" />
<path d="M 128.5 131.5 L 128.5 131.5 L 128.5 131.0 L 128.5 130.5 L 128.5 130.5 L 128.5 130.5 L 128.0 132.0 L 125.0 137.5 L 119.5 146.0 L 113.5 152.5 L 112.5 153.5 L 113.0 152.0 L 114.5 149.0 " stroke="black" fill="none" stroke-width="8.0" stroke-linecap="round" stroke-linejoin="round" />
<path d="M 127.5 134.5 L 128.0 135.5 L 129.0 136.0 L 131.0 136.5 L 134.0 138.0 L 137.5 140.0 L 141.0 142.0 L 143.5 143.5 L 144.0 143.5 " stroke="black" fill="none" stroke-width="8.0" stroke-linecap="round" stroke-linejoin="round" />
<path d="M 153.5 122.5 L 153.5 122.5 L 153.0 121.5 L 152.5 121.5 L 152.5 122.0 L 152.5 127.5 L 152.0 138.5 L 151.0 151.0 L 151.0 156.0 L 151.0 157.0 L 151.0 155.5 L 151.5 151.5 " stroke="black" fill="none" stroke-width="8.0" stroke-linecap="round" stroke-linejoin="round" />
<path d="M 154.0 123.5 L 154.0 123.5 L 153.5 122.5 L 153.0 122.0 L 152.5 121.5 L 152.5 121.5 L 152.5 121.5 L 152.5 121.5 L 154.5 121.5 L 158.0 121.5 L 164.5 121.0 L 173.0 119.5 L 178.0 119.5 L 179.0 119.5 L 178.0 121.5 L 176.0 124.5 L 174.5 128.5 L 174.0 132.5 L 173.0 138.5 L 171.5 145.5 L 170.0 151.5 L 169.5 154.5 L 169.5 155.0 L 170.0 155.0 L 170.0 154.0 L 170.5 152.0 " stroke="black" fill="none" stroke-width="8.0" stroke-linecap="round" stroke-linejoin="round" />
<path d="M 158.5 136.0 L 157.0 136.0 L 156.0 136.0 L 155.5 136.0 L 155.5 135.5 L 158.0 135.0 L 161.5 135.0 L 165.5 134.5 L 169.5 134.5 L 172.5 134.5 L 175.0 134.5 L 175.0 134.5 " stroke="black" fill="none" stroke-width="8.0" stroke-linecap="round" stroke-linejoin="round" />
<path d="M 159.5 145.5 L 158.5 145.5 L 158.0 146.0 L 158.0 146.0 L 158.5 146.0 L 161.0 146.0 L 164.0 146.0 L 167.5 145.5 L 170.0 145.0 L 171.5 145.0 " stroke="black" fill="none" stroke-width="8.0" stroke-linecap="round" stroke-linejoin="round" />
<path d="M 151.5 159.5 L 151.0 160.0 L 149.5 161.5 L 148.5 162.0 L 148.5 162.5 L 151.0 162.5 L 154.5 161.5 L 159.0 161.0 L 163.0 161.0 L 166.5 161.0 L 168.0 161.0 " stroke="black" fill="none" stroke-width="8.0" stroke-linecap="round" stroke-linejoin="round" />
<path d="M 122.0 180.5 L 122.0 180.5 L 122.5 180.0 L 122.5 179.5 L 122.5 179.5 L 122.5 179.0 L 122.5 179.0 L 122.0 179.5 L 120.5 182.0 L 118.5 184.5 L 116.5 187.0 L 116.0 188.0 L 116.0 188.0 " stroke="black" fill="none" stroke-width="8.0" stroke-linecap="round" stroke-linejoin="round" />
<path d="M 132.5 177.5 L 132.5 178.5 L 133.0 179.0 L 133.5 179.5 L 133.5 180.5 L 133.5 182.5 L 134.0 184.5 L 135.0 187.5 L 137.0 190.0 L 140.5 191.5 L 144.5 192.0 L 148.5 192.0 L 153.0 192.0 L 156.5 191.5 L 159.5 190.5 L 161.5 189.0 L 161.5 188.0 L 161.5 188.0 L 160.0 187.5 L 159.0 187.5 L 158.0 187.0 L 157.0 187.0 L 156.5 186.5 L 156.5 186.5 L 156.5 186.5 " stroke="black" fill="none" stroke-width="8.0" stroke-linecap="round" stroke-linejoin="round" />
<path d="M 146.0 175.0 L 146.0 176.0 L 145.5 177.0 L 145.5 177.0 L 147.0 177.5 L 150.0 178.0 L 152.5 178.5 L 155.5 178.5 L 157.0 178.5 " stroke="black" fill="none" stroke-width="8.0" stroke-linecap="round" stroke-linejoin="round" />
<path d="M 166.5 176.5 L 166.5 176.5 L 166.5 177.5 L 166.5 178.0 L 167.0 178.5 L 168.5 180.0 L 171.0 182.0 L 174.0 184.0 L 174.5 184.5 " stroke="black" fill="none" stroke-width="8.0" stroke-linecap="round" stroke-linejoin="round" />
</svg>