<svg xmlns="http://www.w3.org/2000/svg" width="300" height="300" viewBox="0 0 300 300">
<path d="M 105.0 96.0 L 104.5 96.0 L 104.0 96.0 L 104.0 97.0 L 104.5 99.5 L 106.0 105.5 L 107.0 115.0 L 108.0 126.0 L 108.5 136.5 L 108.5 148.0 L 108.5 159.5 L 108.5 171.5 L 109.0 181.0 L 109.5 188.5 L 109.5 194.5 L 109.0 201.5 L 109.0 207.5 L 109.0 208.5 L 109.0 208.5 L 109.0 206.0 L 108.0 200.5 " stroke="black" fill="none" stroke-width="7.0" stroke-linecap="round" stroke-linejoin="round" />
<path d="M 96.0 121.0 L 96.0 120.5 L 96.0 118.5 L 96.0 117.5 L 96.0 117.5 L 96.0 119.0 L 95.5 124.5 L 93.0 134.5 L 89.5 146.0 L 88.5 150.5 L 89.0 148.5 " stroke="black" fill="none" stroke-width="7.0" stroke-linecap="round" stroke-linejoin="round" />
<path d="M 124.5 108.5 L 124.0 108.5 L 123.0 108.0 L 123.5 107.5 L 125.0 108.5 L 127.5 112.5 L 130.0 116.5 L 131.5 118.5 " stroke="black" fill="none" stroke-width="7.0" stroke-linecap="round" stroke-linejoin="round" />
<path d="M 156.0 92.0 L 156.0 92.5 L 156.0 93.5 L 156.0 95.0 L 156.5 97.0 L 158.0 99.0 L 159.5 100.5 L 160.0 100.5 " stroke="black" fill="none" stroke-width="7.0" stroke-linecap="round" stroke-linejoin="round" />
<path d="M 138.5 108.5 L 138.0 109.0 L 137.5 109.5 L 137.0 109.5 L 137.5 109.5 L 140.0 109.5 L 145.5 109.5 L 153.5 109.0 L 165.5 109.0 L 177.5 108.0 L 187.5 106.5 L 193.0 106.0 L 194.0 106.0 L 193.0 107.0 L 192.5 108.0 " stroke="black" fill="none" stroke-width="7.0" stroke-linecap="round" stroke-linejoin="round" />
<path d="M 140.5 126.5 L 140.0 126.0 L 140.0 125.5 L 139.5 125.0 L 139.5 125.0 L 140.0 127.0 L 141.0 131.0 L 142.5 134.5 L 143.5 136.5 L 144.0 136.5 " stroke="black" fill="none" stroke-width="7.0" stroke-linecap="round" stroke-linejoin="round" />
<path d="M 141.5 125.5 L 140.0 125.0 L 139.5 125.0 L 140.0 124.5 L 143.5 124.0 L 148.0 123.0 L 154.0 122.5 L 162.5 122.0 L 172.0 121.5 L 181.5 120.5 L 189.0 120.0 L 191.0 120.0 L 190.5 120.5 L 190.0 122.0 L 189.5 123.0 L 189.5 124.5 L 189.5 126.5 L 189.5 129.5 L 189.0 133.0 L 188.0 136.0 L 188.0 137.0 L 188.0 137.0 " stroke="black" fill="none" stroke-width="7.0" stroke-linecap="round" stroke-linejoin="round" />
<path d="M 157.5 127.0 L 157.5 127.0 L 157.5 127.5 L 157.5 128.0 L 157.5 129.0 L 157.5 132.0 L 158.5 134.0 L 159.5 135.0 " stroke="black" fill="none" stroke-width="7.0" stroke-linecap="round" stroke-linejoin="round" />
<path d="M 170.0 124.5 L 169.0 124.5 L 168.5 124.5 L 168.5 125.0 L 169.0 127.0 L 169.5 130.5 L 169.5 135.0 L 170.0 137.5 " stroke="black" fill="none" stroke-width="7.0" stroke-linecap="round" stroke-linejoin="round" />
<path d="M 141.5 145.0 L 141.5 145.0 L 141.0 144.5 L 141.0 144.0 L 144.5 144.0 L 151.0 143.5 L 162.5 142.5 L 174.0 141.5 L 184.5 140.0 L 192.5 139.5 L 194.0 139.5 " stroke="black" fill="none" stroke-width="7.0" stroke-linecap="round" stroke-linejoin="round" />
<path d="M 164.0 151.0 L 164.0 151.0 L 163.0 151.0 L 163.0 152.0 L 163.0 155.0 L 164.0 159.0 L 164.5 161.5 L 165.0 161.5 " stroke="black" fill="none" stroke-width="7.0" stroke-linecap="round" stroke-linejoin="round" />
<path d="M 145.0 155.0 L 145.0 155.0 L 144.5 155.0 L 144.5 155.0 L 144.5 155.0 L 144.5 156.0 L 145.5 157.0 L 146.5 158.5 L 147.0 160.0 L 147.5 160.5 " stroke="black" fill="none" stroke-width="7.0" stroke-linecap="round" stroke-linejoin="round" />
<path d="M 141.5 168.5 L 141.0 169.0 L 140.5 169.0 L 141.0 169.0 L 143.0 168.5 L 146.0 167.0 L 148.5 165.5 L 150.0 165.0 " stroke="black" fill="none" stroke-width="7.0" stroke-linecap="round" stroke-linejoin="round" />
<path d="M 179.0 153.0 L 179.0 153.0 L 179.0 153.0 L 179.0 152.5 L 179.0 152.5 L 179.0 152.5 L 178.5 154.0 L 177.0 157.0 L 175.5 159.0 " stroke="black" fill="none" stroke-width="7.0" stroke-linecap="round" stroke-linejoin="round" />
<path d="M 171.5 166.0 L 170.5 165.5 L 170.5 165.0 L 171.5 165.0 L 174.5 165.0 L 178.0 166.0 L 181.5 167.5 L 184.5 169.0 " stroke="black" fill="none" stroke-width="7.0" stroke-linecap="round" stroke-linejoin="round" />
<path d="M 156.0 169.5 L 157.0 169.5 L 157.5 169.5 L 158.0 169.5 L 158.0 170.0 L 157.5 170.5 L 156.5 172.0 L 153.5 175.5 L 149.5 180.0 L 144.5 186.0 L 139.5 190.0 L 137.0 191.5 L 135.5 191.5 L 135.0 191.5 L 135.0 191.5 L 135.5 192.0 " stroke="black" fill="none" stroke-width="7.0" stroke-linecap="round" stroke-linejoin="round" />
<path d="M 156.0 175.5 L 156.0 175.5 L 156.0 176.0 L 156.0 176.0 L 156.5 176.5 L 158.0 178.5 L 162.5 182.5 L 169.5 188.0 L 177.5 192.0 L 183.5 193.5 L 187.0 193.0 L 188.0 193.0 L 188.0 193.0 " stroke="black" fill="none" stroke-width="7.0" stroke-linecap="round" stroke-linejoin="round" />
<path d="M 174.5 179.0 L 174.5 179.0 L 174.5 179.0 L 174.5 179.5 L 173.5 180.0 L 172.0 182.0 L 171.0 183.0 " stroke="black" fill="none" stroke-width="7.0" stroke-linecap="round" stroke-linejoin="round" />
<path d="M 147.5 188.5 L 147.0 188.0 L 147.0 187.0 L 147.0 186.5 L 147.0 186.5 L 147.0 186.5 L 147.5 188.5 L 148.0 192.0 L 148.5 197.5 L 149.0 203.5 L 149.5 206.5 L 151.0 207.5 L 154.5 205.0 L 158.5 201.0 L 161.0 198.0 L 162.0 196.5 L 162.5 196.5 " stroke="black" fill="none" stroke-width="7.0" stroke-linecap="round" stroke-linejoin="round" />
</svg>