<svg xmlns="http://www.w3.org/2000/svg" width="300" height="300" viewBox="0 0 300 300">
<path d="M 118.8888888888889 111.11111111111111 L 117.22222222222221 111.11111111111111 L 115.55555555555556 111.66666666666667 L 115.00000000000001 111.66666666666667 L 115.00000000000001 111.66666666666667 L 116.1111111111111 111.66666666666667 L 118.8888888888889 111.66666666666667 L 124.44444444444444 111.66666666666667 L 133.8888888888889 111.66666666666667 L 148.33333333333334 109.44444444444444 L 163.8888888888889 107.77777777777779 L 173.8888888888889 107.77777777777779 L 178.33333333333334 107.77777777777779 L 178.8888888888889 108.33333333333333 " stroke="black" fill="none" stroke-width="7.0" stroke-linecap="round" stroke-linejoin="round" />
<path d="M 116.1111111111111 117.77777777777779 L 115.00000000000001 117.22222222222221 L 115.00000000000001 117.22222222222221 L 115.00000000000001 117.22222222222221 L 115.55555555555556 119.44444444444444 L 116.1111111111111 124.44444444444444 L 116.1111111111111 134.44444444444446 L 114.44444444444444 151.66666666666669 L 109.44444444444444 169.44444444444446 L 102.77777777777777 181.11111111111114 L 98.33333333333333 187.22222222222223 L 97.77777777777777 188.33333333333334 L 98.88888888888889 185.00000000000003 " stroke="black" fill="none" stroke-width="7.0" stroke-linecap="round" stroke-linejoin="round" />
<path d="M 160.55555555555557 97.77777777777777 L 160.55555555555557 97.22222222222223 L 160.55555555555557 96.66666666666667 L 160.55555555555557 96.66666666666667 L 161.66666666666669 98.88888888888889 L 163.8888888888889 105.55555555555556 L 166.66666666666669 119.44444444444444 L 170.00000000000003 140.55555555555557 L 175.00000000000003 157.22222222222223 L 181.66666666666669 167.7777777777778 L 188.33333333333334 173.8888888888889 L 193.8888888888889 177.7777777777778 L 198.33333333333334 181.11111111111114 L 201.66666666666669 182.7777777777778 L 203.8888888888889 183.33333333333334 L 205.00000000000003 180.55555555555557 L 205.00000000000003 175.55555555555557 L 203.33333333333334 170.00000000000003 L 201.66666666666669 166.66666666666669 L 200.55555555555557 165.55555555555557 " stroke="black" fill="none" stroke-width="7.0" stroke-linecap="round" stroke-linejoin="round" />
<path d="M 183.33333333333334 139.44444444444446 L 183.8888888888889 139.44444444444446 L 183.8888888888889 139.44444444444446 L 184.44444444444446 139.44444444444446 L 184.44444444444446 141.66666666666669 L 183.33333333333334 148.33333333333334 L 179.44444444444446 158.8888888888889 L 173.33333333333334 169.44444444444446 L 169.44444444444446 172.7777777777778 L 168.8888888888889 172.22222222222223 " stroke="black" fill="none" stroke-width="7.0" stroke-linecap="round" stroke-linejoin="round" />
<path d="M 132.22222222222223 130.00000000000003 L 132.22222222222223 130.00000000000003 L 131.66666666666669 130.55555555555557 L 131.11111111111111 130.55555555555557 L 131.66666666666669 130.55555555555557 L 135.55555555555557 129.44444444444446 L 141.11111111111111 128.33333333333334 L 147.22222222222223 127.22222222222221 L 151.11111111111111 126.66666666666667 " stroke="black" fill="none" stroke-width="7.0" stroke-linecap="round" stroke-linejoin="round" />
<path d="M 128.8888888888889 142.7777777777778 L 128.8888888888889 142.7777777777778 L 128.8888888888889 142.22222222222223 L 128.33333333333334 142.22222222222223 L 128.33333333333334 143.33333333333334 L 129.44444444444446 147.22222222222223 L 130.55555555555557 150.00000000000003 L 131.11111111111111 152.22222222222223 " stroke="black" fill="none" stroke-width="7.0" stroke-linecap="round" stroke-linejoin="round" />
<path d="M 129.44444444444446 146.11111111111111 L 128.8888888888889 146.11111111111111 L 127.77777777777779 146.11111111111111 L 127.77777777777779 145.00000000000003 L 131.66666666666669 143.33333333333334 L 137.7777777777778 142.22222222222223 L 144.44444444444446 141.66666666666669 L 149.44444444444446 141.11111111111111 L 153.33333333333334 141.11111111111111 L 155.55555555555557 141.66666666666669 L 156.11111111111111 143.33333333333334 L 155.00000000000003 146.66666666666669 L 152.7777777777778 151.66666666666669 L 150.55555555555557 155.00000000000003 L 150.00000000000003 156.11111111111111 " stroke="black" fill="none" stroke-width="7.0" stroke-linecap="round" stroke-linejoin="round" />
<path d="M 134.44444444444446 161.11111111111111 L 134.44444444444446 161.11111111111111 L 134.44444444444446 160.55555555555557 L 135.55555555555557 160.55555555555557 L 140.00000000000003 159.44444444444446 L 146.66666666666669 158.33333333333334 L 149.44444444444446 157.7777777777778 " stroke="black" fill="none" stroke-width="7.0" stroke-linecap="round" stroke-linejoin="round" />
<path d="M 123.33333333333333 173.8888888888889 L 122.77777777777779 174.44444444444446 L 122.22222222222221 174.44444444444446 L 121.1111111111111 175.55555555555557 L 120.00000000000001 178.33333333333334 L 118.33333333333333 181.11111111111114 L 118.33333333333333 182.22222222222223 " stroke="black" fill="none" stroke-width="7.0" stroke-linecap="round" stroke-linejoin="round" />
<path d="M 135.00000000000003 173.8888888888889 L 135.55555555555557 173.8888888888889 L 135.55555555555557 173.33333333333334 L 135.55555555555557 173.33333333333334 L 135.55555555555557 175.00000000000003 L 135.00000000000003 178.8888888888889 L 135.00000000000003 183.33333333333334 L 137.7777777777778 187.22222222222223 L 141.66666666666669 188.33333333333334 L 146.11111111111111 187.7777777777778 L 148.8888888888889 185.55555555555557 L 150.00000000000003 183.8888888888889 " stroke="black" fill="none" stroke-width="7.0" stroke-linecap="round" stroke-linejoin="round" />
<path d="M 148.33333333333334 172.22222222222223 L 147.7777777777778 172.22222222222223 L 147.22222222222223 172.7777777777778 L 147.22222222222223 173.33333333333334 L 148.33333333333334 173.8888888888889 L 150.55555555555557 175.00000000000003 L 152.22222222222223 175.55555555555557 " stroke="black" fill="none" stroke-width="7.0" stroke-linecap="round" stroke-linejoin="round" />
<path d="M 162.22222222222223 177.22222222222223 L 161.66666666666669 179.44444444444446 L 162.22222222222223 182.22222222222223 L 164.44444444444446 183.8888888888889 L 165.55555555555557 184.44444444444446 " stroke="black" fill="none" stroke-width="7.0" stroke-linecap="round" stroke-linejoin="round" />
<path d="M 176.66666666666669 92.22222222222223 L 175.55555555555557 91.11111111111111 L 175.00000000000003 90.55555555555556 L 175.55555555555557 90.55555555555556 L 178.8888888888889 92.77777777777777 L 182.22222222222223 96.11111111111111 L 183.8888888888889 97.77777777777777 " stroke="black" fill="none" stroke-width="7.0" stroke-linecap="round" stroke-linejoin="round" />
</svg>