<svg xmlns="http://www.w3.org/2000/svg" width="300" height="300" viewBox="0 0 300 300">
<path d="M 121.0 106.0 L 120.0 105.5 L 119.5 105.5 L 120.0 105.5 L 124.0 105.5 L 133.5 105.0 L 148.0 103.5 L 163.5 101.5 L 174.5 99.5 L 181.5 99.5 L 183.5 99.5 L 183.0 99.5 L 181.5 99.0 " stroke="black" fill="none" stroke-width="9.0" stroke-linecap="round" stroke-linejoin="round" />
<path d="M 164.5 84.5 L 164.0 84.0 L 163.5 84.0 L 163.5 84.5 L 164.0 89.0 L 164.5 101.0 L 165.0 121.5 L 165.5 142.0 L 166.5 157.0 L 168.0 170.5 L 170.0 186.0 L 171.5 198.5 L 172.5 207.0 L 173.0 211.5 L 173.0 213.5 L 173.0 214.0 L 171.0 214.0 L 167.5 213.5 L 163.5 212.5 L 160.0 211.0 L 158.0 209.5 " stroke="black" fill="none" stroke-width="9.0" stroke-linecap="round" stroke-linejoin="round" />
<path d="M 154.0 107.0 L 154.5 106.5 L 155.0 106.5 L 155.5 106.5 L 155.5 106.5 L 155.0 110.0 L 151.0 120.5 L 139.0 142.5 L 124.0 165.5 L 116.5 177.0 L 112.0 180.5 L 110.5 179.5 " stroke="black" fill="none" stroke-width="9.0" stroke-linecap="round" stroke-linejoin="round" />
</svg>