<svg xmlns="http://www.w3.org/2000/svg" width="300" height="300" viewBox="0 0 300 300">
<path d="M 136.0 94.0 L 136.0 94.5 L 135.5 95.0 L 135.0 96.0 L 134.0 96.0 L 134.0 96.0 L 134.0 96.0 L 136.5 95.5 L 140.5 94.0 L 145.5 93.0 L 151.0 92.5 L 155.5 92.5 L 158.0 93.0 L 158.5 93.5 L 158.5 94.0 L 158.5 94.5 L 158.5 95.5 L 158.5 96.5 L 158.0 98.0 L 157.0 100.5 L 154.5 104.0 L 151.5 108.5 L 148.5 113.0 L 147.0 116.0 L 146.5 117.5 L 146.0 118.5 L 146.5 119.0 " stroke="black" fill="none" stroke-width="8.0" stroke-linecap="round" stroke-linejoin="round" />
<path d="M 146.0 118.5 L 146.0 118.5 L 145.5 117.0 L 145.5 116.5 L 145.5 116.0 L 146.0 116.0 L 147.0 118.5 L 147.5 123.0 L 148.0 130.0 L 148.5 141.0 L 149.5 151.5 L 150.0 161.5 L 151.0 178.5 L 151.5 185.0 L 151.5 190.5 L 151.5 194.0 L 150.5 196.0 L 149.5 197.0 L 147.0 197.0 L 142.5 196.5 L 139.5 194.0 L 138.0 192.5 " stroke="black" fill="none" stroke-width="8.0" stroke-linecap="round" stroke-linejoin="round" />
<path d="M 131.0 132.5 L 131.0 132.5 L 132.0 133.0 L 133.5 133.0 L 137.0 132.0 L 143.0 129.5 L 151.0 128.0 L 158.0 127.0 L 163.5 127.0 L 164.5 128.0 L 164.0 128.5 " stroke="black" fill="none" stroke-width="8.0" stroke-linecap="round" stroke-linejoin="round" />
<path d="M 142.0 147.0 L 141.5 147.0 L 140.5 147.0 L 140.5 147.0 L 141.5 147.0 L 146.0 146.5 L 151.0 145.5 L 156.0 144.5 L 159.5 144.5 L 160.0 144.5 " stroke="black" fill="none" stroke-width="8.0" stroke-linecap="round" stroke-linejoin="round" />
<path d="M 123.5 165.0 L 123.5 165.0 L 123.0 164.5 L 124.0 164.5 L 129.0 164.0 L 139.0 162.5 L 151.5 161.5 L 162.0 160.0 L 170.5 159.0 L 175.0 158.0 L 176.0 158.0 " stroke="black" fill="none" stroke-width="8.0" stroke-linecap="round" stroke-linejoin="round" />
<path d="M 105.0 117.5 L 104.0 118.0 L 103.0 118.0 L 102.5 118.5 L 102.5 118.5 L 104.5 119.0 L 107.5 119.0 L 111.0 119.0 L 114.0 119.0 L 117.0 118.5 L 118.5 118.0 L 119.5 118.0 L 119.5 118.0 L 119.5 118.0 L 119.5 119.0 L 119.5 120.5 L 119.0 122.5 L 119.0 125.5 L 118.5 129.5 L 117.5 134.5 L 116.5 140.5 L 115.0 146.5 L 112.5 153.0 L 108.5 159.5 L 104.5 164.0 L 102.0 166.0 L 102.0 165.5 L 102.0 165.0 " stroke="black" fill="none" stroke-width="8.0" stroke-linecap="round" stroke-linejoin="round" />
<path d="M 193.5 107.5 L 193.5 107.0 L 194.0 106.5 L 194.5 106.0 L 194.5 106.0 L 194.5 106.0 L 193.0 108.0 L 190.5 112.0 L 187.0 117.0 L 183.0 122.5 L 180.0 126.5 L 179.0 128.0 L 179.0 128.0 L 179.0 128.0 L 179.5 128.0 L 179.5 128.0 L 179.5 128.0 L 179.5 128.0 L 179.5 128.0 L 179.5 128.0 L 179.5 128.5 L 179.5 128.5 L 179.5 128.5 L 179.5 129.0 L 179.5 129.0 L 179.5 129.0 L 179.5 129.0 L 179.5 129.0 L 179.5 129.0 L 179.5 129.0 L 179.5 129.0 L 180.0 129.5 L 180.5 130.0 L 181.5 133.5 L 184.0 140.5 L 188.0 150.5 L 192.0 159.0 L 195.5 166.5 L 199.0 171.5 L 202.5 176.0 L 205.5 179.5 L 208.5 183.0 L 210.5 183.5 L 211.5 183.0 " stroke="black" fill="none" stroke-width="8.0" stroke-linecap="round" stroke-linejoin="round" />
</svg>