<svg xmlns="http://www.w3.org/2000/svg" width="300" height="300" viewBox="0 0 300 300">
<path d="M 120.5 126.0 L 119.0 126.0 L 118.5 126.0 L 118.5 126.5 L 121.0 126.5 L 126.0 126.0 L 131.5 125.0 L 137.5 124.0 L 141.0 123.0 L 142.5 122.5 L 142.5 122.5 L 141.5 122.5 L 141.5 122.5 " stroke="black" fill="none" stroke-width="7.0" stroke-linecap="round" stroke-linejoin="round" />
<path d="M 131.0 109.5 L 131.0 109.5 L 130.5 109.5 L 130.5 109.5 L 130.5 111.0 L 130.5 118.0 L 131.0 131.5 L 131.5 147.0 L 131.0 161.5 L 131.0 171.5 L 132.0 180.0 L 132.5 186.0 L 132.5 188.0 L 132.5 188.0 L 130.5 186.5 L 127.5 184.5 L 124.5 183.0 L 122.0 182.0 L 120.5 181.5 L 120.0 179.5 " stroke="black" fill="none" stroke-width="7.0" stroke-linecap="round" stroke-linejoin="round" />
<path d="M 117.0 168.0 L 116.0 168.0 L 116.0 168.0 L 117.5 167.0 L 122.5 165.0 L 129.5 162.5 L 135.5 160.5 L 139.5 157.5 L 142.0 156.0 " stroke="black" fill="none" stroke-width="7.0" stroke-linecap="round" stroke-linejoin="round" />
<path d="M 148.5 136.0 L 148.0 137.5 L 148.0 136.5 L 148.0 136.0 L 148.0 137.5 L 149.5 143.5 L 151.5 153.5 L 152.5 164.5 L 153.5 171.0 L 154.0 172.0 L 154.5 170.0 L 155.0 167.0 " stroke="black" fill="none" stroke-width="7.0" stroke-linecap="round" stroke-linejoin="round" />
<path d="M 151.0 141.0 L 150.5 141.0 L 149.5 141.0 L 149.0 141.0 L 149.0 140.5 L 151.5 139.5 L 156.0 138.0 L 162.0 136.0 L 170.5 135.0 L 179.0 134.5 L 185.5 134.5 L 189.0 135.5 L 189.5 136.0 L 189.5 136.5 L 188.5 137.0 L 188.0 138.5 L 187.0 140.5 L 186.0 144.5 L 184.5 150.5 L 182.5 158.0 L 181.5 164.5 L 181.5 168.0 L 182.0 168.5 L 182.5 168.0 " stroke="black" fill="none" stroke-width="7.0" stroke-linecap="round" stroke-linejoin="round" />
<path d="M 154.5 152.0 L 155.5 152.0 L 157.0 152.0 L 159.5 151.0 L 163.0 150.5 L 168.0 149.5 L 174.0 148.5 L 177.5 148.0 " stroke="black" fill="none" stroke-width="7.0" stroke-linecap="round" stroke-linejoin="round" />
<path d="M 166.5 114.5 L 166.0 115.0 L 166.0 115.5 L 166.0 116.0 L 166.0 116.5 L 166.5 119.0 L 167.0 125.5 L 167.5 139.0 L 167.0 152.5 L 167.0 161.5 L 167.0 163.0 L 167.0 164.5 L 167.0 165.5 " stroke="black" fill="none" stroke-width="7.0" stroke-linecap="round" stroke-linejoin="round" />
<path d="M 153.5 174.5 L 153.5 174.5 L 153.5 175.5 L 153.5 175.5 L 156.0 174.0 L 162.5 171.5 L 171.0 169.5 L 177.5 169.0 L 181.0 170.5 L 181.5 170.5 " stroke="black" fill="none" stroke-width="7.0" stroke-linecap="round" stroke-linejoin="round" />
</svg>