<svg xmlns="http://www.w3.org/2000/svg" width="300" height="300" viewBox="0 0 300 300">
<path d="M 168.0 102.0 L 167.0 102.5 L 166.5 102.5 L 166.0 103.0 L 165.5 103.5 L 164.0 104.5 L 160.0 106.0 L 154.0 108.5 L 147.5 110.5 L 143.0 111.5 L 140.5 112.0 L 139.0 112.0 L 138.0 112.0 L 137.5 112.0 L 137.0 112.0 L 135.5 112.0 L 134.0 112.0 L 132.5 112.0 L 132.5 112.0 L 132.0 112.0 L 132.0 112.0 L 132.0 112.0 L 132.0 112.0 L 132.0 112.0 L 132.0 112.0 L 132.0 112.0 L 132.5 112.0 L 132.5 112.0 L 132.5 112.0 L 132.5 112.0 L 132.5 112.0 L 132.5 112.0 L 132.5 112.0 L 132.5 112.0 L 132.5 112.0 L 132.5 112.0 L 132.5 112.0 L 132.5 112.0 L 132.5 112.0 L 132.5 112.0 L 132.5 112.0 L 133.0 113.0 L 133.0 116.0 L 134.0 121.5 L 134.0 130.5 L 134.0 140.5 L 132.0 151.0 L 130.0 162.0 L 128.0 172.5 L 127.0 181.5 L 125.5 189.0 L 125.0 193.5 L 125.0 194.5 L 124.5 194.0 L 124.0 191.5 " stroke="black" fill="none" stroke-width="7.0" stroke-linecap="round" stroke-linejoin="round" />
<path d="M 140.0 127.5 L 140.0 127.5 L 139.5 127.5 L 139.5 127.5 L 139.0 127.5 L 139.0 127.0 L 141.0 126.5 L 145.0 126.0 L 151.5 125.0 L 159.0 123.5 L 164.5 123.0 L 167.5 123.0 L 168.0 123.5 L 168.0 124.0 L 168.0 124.0 L 168.0 124.5 L 168.5 125.0 L 169.0 125.0 L 169.0 125.5 L 169.0 126.0 L 169.0 126.5 L 169.0 127.0 L 169.0 128.0 L 168.5 129.0 L 168.0 130.0 L 167.5 131.5 L 167.5 133.0 " stroke="black" fill="none" stroke-width="7.0" stroke-linecap="round" stroke-linejoin="round" />
<path d="M 139.0 140.0 L 139.0 140.0 L 138.5 140.0 L 138.5 139.5 L 139.0 139.0 L 142.0 138.5 L 147.5 137.5 L 154.5 136.0 L 160.0 136.0 L 164.0 135.5 L 164.5 135.5 L 164.5 135.5 " stroke="black" fill="none" stroke-width="7.0" stroke-linecap="round" stroke-linejoin="round" />
<path d="M 150.5 147.5 L 150.5 147.5 L 150.5 148.0 L 150.5 148.5 L 150.5 149.5 L 151.5 151.5 L 152.0 154.0 L 152.5 154.0 " stroke="black" fill="none" stroke-width="7.0" stroke-linecap="round" stroke-linejoin="round" />
<path d="M 140.5 159.0 L 140.5 159.0 L 140.0 159.0 L 140.0 159.0 L 142.5 158.5 L 148.5 157.5 L 157.0 156.5 L 164.0 156.0 L 168.0 156.0 L 168.0 156.0 L 167.5 155.5 L 167.0 155.5 " stroke="black" fill="none" stroke-width="7.0" stroke-linecap="round" stroke-linejoin="round" />
<path d="M 151.5 158.5 L 151.5 158.0 L 152.0 157.5 L 152.5 157.0 L 152.5 156.5 L 153.0 156.5 L 152.5 159.5 L 150.5 165.5 L 147.5 171.5 L 143.5 177.5 L 141.0 181.0 L 140.5 181.5 L 140.5 180.5 " stroke="black" fill="none" stroke-width="7.0" stroke-linecap="round" stroke-linejoin="round" />
<path d="M 151.5 169.0 L 151.5 169.0 L 151.0 169.0 L 150.5 169.0 L 150.5 169.0 L 152.0 169.0 L 155.5 169.0 L 160.0 169.0 L 164.5 169.0 L 168.5 169.5 L 170.0 170.0 L 170.0 170.0 L 170.0 170.0 L 169.5 170.0 L 169.5 170.0 L 169.0 170.0 L 169.0 170.0 L 168.5 170.0 L 168.5 170.5 L 168.0 171.0 L 167.5 171.5 L 167.0 173.0 L 166.0 176.0 L 164.0 180.5 L 161.0 186.0 L 159.0 189.0 L 158.0 190.0 L 156.5 189.5 L 155.5 187.0 L 155.5 185.0 " stroke="black" fill="none" stroke-width="7.0" stroke-linecap="round" stroke-linejoin="round" />
</svg>