<svg xmlns="http://www.w3.org/2000/svg" width="300" height="300" viewBox="0 0 300 300">
<path d="M 95.0 111.0 L 95.0 111.5 L 95.0 112.5 L 95.0 112.5 L 96.5 112.5 L 101.5 112.0 L 110.0 110.5 L 120.0 110.0 L 128.0 109.5 L 133.5 109.5 L 135.0 109.5 " stroke="black" fill="none" stroke-width="9.0" stroke-linecap="round" stroke-linejoin="round" />
<path d="M 116.5 91.5 L 116.5 91.5 L 116.0 92.5 L 116.0 93.5 L 116.0 97.5 L 117.5 110.0 L 118.5 130.5 L 119.5 150.5 L 120.5 166.0 L 121.0 179.0 L 120.5 191.5 L 118.0 202.0 L 116.0 208.0 L 113.0 211.0 L 110.0 211.0 L 107.0 207.5 L 104.0 201.0 L 103.5 199.5 " stroke="black" fill="none" stroke-width="9.0" stroke-linecap="round" stroke-linejoin="round" />
<path d="M 98.0 177.0 L 97.5 177.0 L 97.5 177.0 L 102.0 175.0 L 112.0 170.0 L 124.5 163.0 L 133.5 157.5 L 135.0 156.0 " stroke="black" fill="none" stroke-width="9.0" stroke-linecap="round" stroke-linejoin="round" />
<path d="M 153.0 98.5 L 153.0 98.5 L 153.0 98.5 L 153.0 99.0 L 153.0 105.0 L 150.5 119.5 L 147.0 132.5 L 146.5 134.5 L 147.0 132.0 " stroke="black" fill="none" stroke-width="9.0" stroke-linecap="round" stroke-linejoin="round" />
<path d="M 155.0 104.0 L 155.0 103.5 L 155.0 103.5 L 156.0 103.0 L 160.0 101.0 L 168.5 98.0 L 176.5 97.0 L 182.0 99.0 L 183.5 104.5 L 182.5 113.0 L 178.5 123.5 L 176.5 131.5 L 176.5 136.5 L 180.0 139.0 L 185.5 138.5 L 193.5 134.0 L 201.0 128.5 L 203.5 127.0 " stroke="black" fill="none" stroke-width="9.0" stroke-linecap="round" stroke-linejoin="round" />
<path d="M 150.0 161.0 L 150.0 161.0 L 149.5 161.0 L 150.0 160.5 L 156.0 158.5 L 167.5 155.5 L 179.0 154.0 L 186.0 154.0 L 189.5 156.5 L 190.0 160.5 L 187.5 166.5 L 182.0 174.0 L 174.5 184.5 L 167.5 195.0 L 161.5 203.0 L 156.5 208.5 L 154.0 209.5 L 153.0 208.0 " stroke="black" fill="none" stroke-width="9.0" stroke-linecap="round" stroke-linejoin="round" />
<path d="M 153.5 176.5 L 153.0 176.5 L 152.5 176.0 L 156.5 176.5 L 168.5 180.5 L 186.5 189.0 L 199.0 196.5 L 209.0 201.5 L 216.0 203.5 " stroke="black" fill="none" stroke-width="9.0" stroke-linecap="round" stroke-linejoin="round" />
</svg>