<svg xmlns="http://www.w3.org/2000/svg" width="300" height="300" viewBox="0 0 300 300">
<path d="M 133.0 122.5 L 133.0 122.5 L 132.5 122.0 L 132.5 122.0 L 132.5 122.0 L 136.5 121.5 L 145.5 119.5 L 158.0 114.5 L 167.5 110.5 L 171.0 108.5 L 172.0 108.5 L 172.0 108.5 L 171.5 108.5 L 171.5 108.5 L 171.5 108.5 L 171.5 108.5 L 171.5 108.5 " stroke="black" fill="none" stroke-width="6.0" stroke-linecap="round" stroke-linejoin="round" />
<path d="M 132.0 127.0 L 132.0 126.5 L 132.5 126.5 L 132.5 126.5 L 132.5 126.5 L 133.0 126.5 L 133.5 130.0 L 133.5 135.5 L 132.0 147.5 L 129.5 160.0 L 126.0 171.5 L 121.5 181.5 L 120.0 185.0 L 116.5 189.5 L 115.0 190.5 L 115.0 190.5 L 115.0 188.0 " stroke="black" fill="none" stroke-width="6.0" stroke-linecap="round" stroke-linejoin="round" />
<path d="M 143.0 132.5 L 141.5 133.0 L 141.0 133.5 L 140.5 133.5 L 140.5 133.5 L 141.0 133.0 L 142.5 132.5 L 145.5 131.5 L 151.5 130.0 L 156.0 129.0 L 164.5 127.5 L 171.5 126.5 L 173.5 126.5 L 173.5 126.5 L 172.5 127.0 L 172.0 127.0 L 172.0 127.0 L 171.5 127.0 L 171.0 128.0 L 170.0 131.0 L 169.0 134.5 L 167.0 140.0 L 166.0 144.0 L 166.0 146.0 L 166.5 146.0 " stroke="black" fill="none" stroke-width="6.0" stroke-linecap="round" stroke-linejoin="round" />
<path d="M 140.0 148.0 L 139.5 148.0 L 138.0 148.5 L 138.0 148.5 L 139.0 148.5 L 143.0 147.5 L 145.5 147.0 L 153.0 146.0 L 159.0 146.0 L 164.5 145.5 L 166.0 145.5 " stroke="black" fill="none" stroke-width="6.0" stroke-linecap="round" stroke-linejoin="round" />
<path d="M 136.0 169.5 L 136.0 169.5 L 135.5 169.5 L 135.5 169.5 L 135.5 169.5 L 136.5 169.5 L 141.0 169.0 L 148.5 168.0 L 157.0 167.5 L 162.5 166.5 L 164.5 166.0 L 165.0 166.0 L 164.5 165.5 L 164.5 165.0 L 164.5 165.0 L 164.5 165.0 " stroke="black" fill="none" stroke-width="6.0" stroke-linecap="round" stroke-linejoin="round" />
<path d="M 151.5 155.5 L 152.0 155.5 L 152.5 155.0 L 152.5 155.0 L 152.5 155.0 L 152.5 158.0 L 151.5 164.5 L 148.5 174.5 L 144.0 184.0 L 140.5 190.0 L 138.5 190.5 L 137.5 190.5 L 136.5 190.0 L 136.5 189.0 L 136.5 188.5 " stroke="black" fill="none" stroke-width="6.0" stroke-linecap="round" stroke-linejoin="round" />
<path d="M 151.0 174.0 L 151.0 174.0 L 150.5 175.0 L 150.0 175.0 L 150.0 175.5 L 150.5 175.5 L 154.0 177.0 L 159.0 180.5 L 165.5 185.0 L 168.0 186.0 L 170.0 186.5 L 171.0 185.5 " stroke="black" fill="none" stroke-width="6.0" stroke-linecap="round" stroke-linejoin="round" />
<path d="M 163.0 155.0 L 163.0 155.0 L 162.5 155.5 L 162.0 156.0 L 162.5 156.5 L 164.0 158.0 L 165.5 159.5 L 167.0 160.0 " stroke="black" fill="none" stroke-width="6.0" stroke-linecap="round" stroke-linejoin="round" />
</svg>