<svg xmlns="http://www.w3.org/2000/svg" width="300" height="300" viewBox="0 0 300 300">
<path d="M 122.5 126.5 L 120.5 127.0 L 119.5 127.5 L 119.0 127.5 L 120.5 127.5 L 124.5 127.0 L 129.0 126.0 L 132.5 125.0 L 136.0 124.5 L 137.5 124.0 L 137.5 124.0 L 137.5 124.0 " stroke="black" fill="none" stroke-width="6.0" stroke-linecap="round" stroke-linejoin="round" />
<path d="M 131.5 114.0 L 131.0 114.0 L 131.0 113.5 L 130.5 113.5 L 130.0 113.5 L 130.0 114.0 L 130.5 119.0 L 130.5 129.0 L 131.0 143.5 L 130.5 156.5 L 130.5 165.5 L 130.5 170.5 L 130.0 174.5 L 129.5 178.0 L 129.0 179.0 L 128.0 178.5 L 126.5 177.0 L 125.0 173.5 L 123.5 170.0 L 123.0 167.0 " stroke="black" fill="none" stroke-width="6.0" stroke-linecap="round" stroke-linejoin="round" />
<path d="M 120.5 165.0 L 119.5 165.0 L 118.0 165.0 L 118.0 164.5 L 119.5 164.0 L 125.0 161.5 L 131.5 158.5 L 138.0 155.5 L 142.5 152.5 " stroke="black" fill="none" stroke-width="6.0" stroke-linecap="round" stroke-linejoin="round" />
<path d="M 153.0 123.0 L 153.0 123.0 L 152.5 123.0 L 152.0 123.0 L 151.5 123.0 L 152.0 123.0 L 155.0 122.5 L 159.5 122.0 L 163.5 121.5 L 166.0 121.0 L 166.5 121.0 " stroke="black" fill="none" stroke-width="6.0" stroke-linecap="round" stroke-linejoin="round" />
<path d="M 149.5 110.0 L 149.5 110.0 L 150.0 110.0 L 150.0 109.5 L 150.0 109.5 L 150.0 111.5 L 148.5 117.5 L 146.5 127.0 L 146.5 134.5 L 147.5 139.0 L 151.0 141.0 L 155.0 141.5 L 159.5 140.0 L 164.5 138.0 L 167.0 136.5 L 168.5 136.0 L 168.5 136.0 L 168.5 136.0 L 168.5 136.0 " stroke="black" fill="none" stroke-width="6.0" stroke-linecap="round" stroke-linejoin="round" />
<path d="M 150.0 153.5 L 150.0 153.5 L 150.5 153.0 L 150.5 153.0 L 151.0 153.0 L 151.5 156.0 L 152.0 164.5 L 152.0 175.0 L 152.0 181.0 L 152.0 180.0 L 152.5 177.0 " stroke="black" fill="none" stroke-width="6.0" stroke-linecap="round" stroke-linejoin="round" />
<path d="M 154.0 154.0 L 154.0 154.5 L 153.0 155.0 L 153.0 155.0 L 153.0 155.0 L 155.5 155.0 L 160.5 155.0 L 166.5 154.0 L 172.5 153.5 L 175.0 153.5 L 175.0 155.0 L 174.5 158.5 L 173.5 163.5 L 173.0 167.5 L 173.0 171.5 L 172.5 175.0 L 172.0 177.0 L 172.0 177.5 " stroke="black" fill="none" stroke-width="6.0" stroke-linecap="round" stroke-linejoin="round" />
<path d="M 156.5 169.5 L 156.0 169.5 L 155.5 169.5 L 155.0 169.5 L 155.0 169.0 L 157.0 169.0 L 160.5 168.5 L 164.5 168.5 L 167.5 168.0 L 169.0 168.0 " stroke="black" fill="none" stroke-width="6.0" stroke-linecap="round" stroke-linejoin="round" />
<path d="M 155.0 183.0 L 155.0 183.0 L 155.0 183.0 L 155.0 183.0 L 155.5 183.0 L 158.0 183.0 L 163.0 183.0 L 168.0 182.0 L 171.0 181.0 " stroke="black" fill="none" stroke-width="6.0" stroke-linecap="round" stroke-linejoin="round" />
</svg>