<svg xmlns="http://www.w3.org/2000/svg" width="300" height="300" viewBox="0 0 300 300">
<path d="M 143.0 93.0 L 142.0 93.0 L 141.5 93.5 L 141.5 93.5 L 143.5 94.5 L 146.5 95.5 L 149.0 97.0 L 151.5 98.0 L 152.0 98.5 " stroke="black" fill="none" stroke-width="7.0" stroke-linecap="round" stroke-linejoin="round" />
<path d="M 122.5 107.0 L 121.5 107.0 L 121.0 107.5 L 121.0 107.5 L 121.0 107.5 L 121.0 107.5 L 122.5 107.0 L 125.0 106.5 L 130.0 106.5 L 139.5 106.5 L 150.5 105.0 L 161.0 104.0 L 169.5 104.0 L 175.0 104.0 L 178.0 104.0 L 180.0 103.5 L 181.0 103.0 L 181.0 103.0 L 180.5 103.0 L 180.5 103.0 L 180.5 103.0 L 180.5 103.0 L 180.5 103.0 L 180.5 103.0 L 180.5 103.0 L 180.5 103.0 L 180.5 103.0 L 180.5 103.0 L 180.5 103.0 L 180.5 103.0 L 180.5 103.0 L 180.0 103.0 L 180.0 103.0 " stroke="black" fill="none" stroke-width="7.0" stroke-linecap="round" stroke-linejoin="round" />
<path d="M 121.0 109.0 L 120.5 109.0 L 120.5 109.0 L 120.5 109.0 L 120.5 109.0 L 121.5 109.5 L 122.5 111.5 L 123.0 117.0 L 123.0 127.0 L 121.5 142.0 L 119.0 157.0 L 116.0 171.5 L 113.0 183.0 L 110.0 189.5 L 108.0 191.0 L 108.0 189.5 L 108.0 188.0 " stroke="black" fill="none" stroke-width="7.0" stroke-linecap="round" stroke-linejoin="round" />
<path d="M 132.5 123.0 L 133.0 123.0 L 133.5 122.5 L 135.0 122.0 L 138.5 121.5 L 143.5 120.5 L 148.0 120.0 L 150.0 119.5 L 150.0 119.5 " stroke="black" fill="none" stroke-width="7.0" stroke-linecap="round" stroke-linejoin="round" />
<path d="M 142.5 114.5 L 142.0 114.5 L 141.5 114.5 L 141.0 114.5 L 141.0 114.5 L 141.0 116.5 L 141.5 121.0 L 141.5 129.5 L 141.5 139.0 L 141.0 143.5 L 141.0 144.0 L 141.0 142.5 " stroke="black" fill="none" stroke-width="7.0" stroke-linecap="round" stroke-linejoin="round" />
<path d="M 137.0 128.5 L 137.0 128.5 L 137.0 128.5 L 137.5 128.5 L 137.0 129.5 L 135.5 132.0 L 132.5 135.5 L 130.5 138.0 L 129.5 138.5 " stroke="black" fill="none" stroke-width="7.0" stroke-linecap="round" stroke-linejoin="round" />
<path d="M 151.5 130.0 L 151.0 130.5 L 151.0 130.5 L 151.5 131.0 L 154.0 131.5 L 156.0 132.0 L 157.5 132.0 " stroke="black" fill="none" stroke-width="7.0" stroke-linecap="round" stroke-linejoin="round" />
<path d="M 163.5 117.5 L 163.5 117.5 L 162.5 117.5 L 162.0 117.5 L 163.5 117.5 L 167.0 117.5 L 171.0 117.5 L 174.0 117.0 L 176.5 117.0 L 177.5 116.5 " stroke="black" fill="none" stroke-width="7.0" stroke-linecap="round" stroke-linejoin="round" />
<path d="M 171.0 110.5 L 171.0 111.0 L 170.5 112.0 L 170.5 114.5 L 170.5 120.5 L 170.5 129.0 L 170.5 137.0 L 170.5 141.0 L 170.5 141.5 L 170.5 141.0 " stroke="black" fill="none" stroke-width="7.0" stroke-linecap="round" stroke-linejoin="round" />
<path d="M 167.5 120.5 L 167.5 120.5 L 167.0 120.5 L 167.0 120.0 L 166.5 121.0 L 165.0 124.0 L 163.0 128.0 L 161.0 132.0 L 160.0 132.5 L 160.0 132.5 " stroke="black" fill="none" stroke-width="7.0" stroke-linecap="round" stroke-linejoin="round" />
<path d="M 172.0 123.5 L 173.0 123.0 L 174.0 123.0 L 175.0 123.5 L 177.5 125.5 L 180.0 127.5 L 182.0 129.5 L 183.0 130.0 " stroke="black" fill="none" stroke-width="7.0" stroke-linecap="round" stroke-linejoin="round" />
<path d="M 140.5 151.0 L 140.5 151.0 L 141.0 151.5 L 142.0 151.5 L 145.5 151.0 L 152.0 149.0 L 160.0 146.0 L 165.0 145.0 L 166.0 145.0 L 165.5 145.5 " stroke="black" fill="none" stroke-width="7.0" stroke-linecap="round" stroke-linejoin="round" />
<path d="M 137.5 163.0 L 137.5 163.0 L 137.5 163.0 L 138.0 163.0 L 138.5 163.0 L 140.5 163.0 L 145.0 163.0 L 151.0 162.5 L 157.5 161.5 L 161.5 160.5 L 163.0 160.5 L 163.0 162.0 L 162.5 162.5 " stroke="black" fill="none" stroke-width="7.0" stroke-linecap="round" stroke-linejoin="round" />
<path d="M 128.0 175.0 L 128.5 175.0 L 129.0 175.0 L 131.5 175.0 L 138.5 174.5 L 149.5 173.5 L 161.0 172.0 L 170.5 170.5 L 174.5 170.0 L 175.0 170.5 L 175.0 170.5 " stroke="black" fill="none" stroke-width="7.0" stroke-linecap="round" stroke-linejoin="round" />
<path d="M 151.5 153.5 L 151.5 153.5 L 151.5 153.5 L 151.5 153.0 L 151.5 153.0 L 151.5 153.0 L 151.5 154.5 L 151.5 160.5 L 151.5 171.5 L 151.0 182.5 L 150.5 190.0 L 149.5 194.0 L 148.0 195.5 L 145.5 195.5 L 143.5 194.0 L 141.5 192.5 L 141.5 192.0 " stroke="black" fill="none" stroke-width="7.0" stroke-linecap="round" stroke-linejoin="round" />
</svg>