<svg xmlns="http://www.w3.org/2000/svg" width="300" height="300" viewBox="0 0 300 300">
<path d="M 115.00000000000001 92.22222222222223 L 115.00000000000001 91.66666666666667 L 113.8888888888889 91.66666666666667 L 113.8888888888889 91.11111111111111 L 115.00000000000001 93.88888888888889 L 117.77777777777779 97.77777777777777 L 120.00000000000001 100.55555555555556 L 122.22222222222221 102.22222222222223 " stroke="black" fill="none" stroke-width="7.0" stroke-linecap="round" stroke-linejoin="round" />
<path d="M 105.0 108.88888888888889 L 104.44444444444444 108.88888888888889 L 102.22222222222223 109.44444444444444 L 101.11111111111111 110.0 L 103.88888888888889 110.0 L 112.22222222222221 109.44444444444444 L 122.22222222222221 107.77777777777779 L 130.55555555555557 106.11111111111111 L 135.00000000000003 105.55555555555556 L 134.44444444444446 105.55555555555556 " stroke="black" fill="none" stroke-width="7.0" stroke-linecap="round" stroke-linejoin="round" />
<path d="M 111.11111111111111 120.55555555555556 L 110.55555555555556 121.1111111111111 L 110.0 121.1111111111111 L 110.0 121.66666666666667 L 111.66666666666667 123.33333333333333 L 114.44444444444444 125.55555555555556 L 116.1111111111111 126.1111111111111 " stroke="black" fill="none" stroke-width="7.0" stroke-linecap="round" stroke-linejoin="round" />
<path d="M 131.11111111111111 115.55555555555556 L 131.11111111111111 115.55555555555556 L 130.55555555555557 115.55555555555556 L 130.00000000000003 116.66666666666667 L 129.44444444444446 119.44444444444444 L 128.8888888888889 122.77777777777779 L 128.33333333333334 123.33333333333333 " stroke="black" fill="none" stroke-width="7.0" stroke-linecap="round" stroke-linejoin="round" />
<path d="M 106.66666666666667 135.55555555555557 L 106.66666666666667 135.55555555555557 L 106.66666666666667 136.11111111111111 L 110.0 135.55555555555557 L 118.8888888888889 132.7777777777778 L 128.8888888888889 130.55555555555557 L 133.8888888888889 130.55555555555557 L 135.00000000000003 132.22222222222223 " stroke="black" fill="none" stroke-width="7.0" stroke-linecap="round" stroke-linejoin="round" />
<path d="M 107.77777777777779 151.11111111111111 L 108.88888888888889 151.66666666666669 L 109.44444444444444 151.66666666666669 L 111.66666666666667 151.66666666666669 L 116.66666666666667 150.00000000000003 L 122.77777777777779 147.7777777777778 L 128.33333333333334 146.66666666666669 L 131.11111111111111 146.66666666666669 " stroke="black" fill="none" stroke-width="7.0" stroke-linecap="round" stroke-linejoin="round" />
<path d="M 120.00000000000001 136.66666666666669 L 120.00000000000001 136.66666666666669 L 119.44444444444444 136.66666666666669 L 118.8888888888889 136.66666666666669 L 118.33333333333333 138.8888888888889 L 118.8888888888889 145.55555555555557 L 120.00000000000001 158.8888888888889 L 120.55555555555556 173.33333333333334 L 120.55555555555556 182.22222222222223 L 121.1111111111111 183.33333333333334 L 121.1111111111111 180.55555555555557 " stroke="black" fill="none" stroke-width="7.0" stroke-linecap="round" stroke-linejoin="round" />
<path d="M 112.22222222222221 164.44444444444446 L 112.77777777777779 163.8888888888889 L 113.33333333333333 163.8888888888889 L 112.77777777777779 164.44444444444446 L 110.55555555555556 167.7777777777778 L 106.66666666666667 173.33333333333334 L 101.66666666666667 178.33333333333334 L 100.0 180.00000000000003 L 100.0 180.00000000000003 " stroke="black" fill="none" stroke-width="7.0" stroke-linecap="round" stroke-linejoin="round" />
<path d="M 129.44444444444446 161.11111111111111 L 130.00000000000003 161.11111111111111 L 131.11111111111111 162.22222222222223 L 133.33333333333334 164.44444444444446 L 136.11111111111111 167.22222222222223 L 139.44444444444446 168.8888888888889 L 141.11111111111111 168.8888888888889 " stroke="black" fill="none" stroke-width="7.0" stroke-linecap="round" stroke-linejoin="round" />
<path d="M 170.55555555555557 98.88888888888889 L 170.00000000000003 98.88888888888889 L 169.44444444444446 98.33333333333333 L 168.8888888888889 98.33333333333333 L 168.33333333333334 98.33333333333333 L 167.22222222222223 98.33333333333333 L 163.8888888888889 99.44444444444444 L 158.8888888888889 101.11111111111111 L 152.7777777777778 102.77777777777777 L 148.8888888888889 104.44444444444444 L 147.7777777777778 105.55555555555556 L 147.22222222222223 106.11111111111111 L 147.22222222222223 106.11111111111111 L 147.22222222222223 106.11111111111111 L 147.22222222222223 106.11111111111111 L 147.22222222222223 106.11111111111111 L 147.22222222222223 106.11111111111111 L 147.22222222222223 106.11111111111111 L 147.22222222222223 106.11111111111111 L 147.22222222222223 106.11111111111111 L 147.22222222222223 106.11111111111111 L 147.7777777777778 106.11111111111111 L 147.7777777777778 106.11111111111111 L 147.7777777777778 106.11111111111111 L 147.7777777777778 106.11111111111111 L 147.7777777777778 106.11111111111111 L 147.7777777777778 106.11111111111111 L 148.33333333333334 106.11111111111111 L 148.33333333333334 106.11111111111111 L 148.33333333333334 106.11111111111111 L 148.33333333333334 106.11111111111111 L 148.33333333333334 106.11111111111111 L 148.33333333333334 106.11111111111111 L 148.33333333333334 106.11111111111111 L 148.33333333333334 107.22222222222223 L 148.8888888888889 110.0 L 149.44444444444446 116.1111111111111 L 150.55555555555557 124.44444444444444 L 151.11111111111111 133.8888888888889 L 152.22222222222223 143.8888888888889 L 152.7777777777778 153.33333333333334 L 152.7777777777778 162.22222222222223 L 152.7777777777778 168.8888888888889 L 152.22222222222223 173.8888888888889 L 151.11111111111111 177.22222222222223 L 149.44444444444446 178.8888888888889 L 147.7777777777778 180.00000000000003 L 147.22222222222223 179.44444444444446 " stroke="black" fill="none" stroke-width="7.0" stroke-linecap="round" stroke-linejoin="round" />
<path d="M 154.44444444444446 123.8888888888889 L 153.8888888888889 123.8888888888889 L 152.7777777777778 123.8888888888889 L 152.22222222222223 123.8888888888889 L 153.8888888888889 123.33333333333333 L 158.33333333333334 122.77777777777779 L 163.33333333333334 122.77777777777779 L 167.7777777777778 122.22222222222221 L 172.22222222222223 121.1111111111111 L 172.7777777777778 121.1111111111111 " stroke="black" fill="none" stroke-width="7.0" stroke-linecap="round" stroke-linejoin="round" />
<path d="M 165.00000000000003 127.77777777777779 L 165.00000000000003 127.77777777777779 L 163.8888888888889 127.22222222222221 L 163.33333333333334 127.22222222222221 L 163.33333333333334 127.22222222222221 L 163.33333333333334 127.77777777777779 L 164.44444444444446 131.11111111111111 L 165.00000000000003 139.44444444444446 L 165.55555555555557 152.7777777777778 L 166.11111111111114 165.55555555555557 L 166.11111111111114 173.33333333333334 L 166.11111111111114 176.66666666666669 L 166.11111111111114 178.33333333333334 L 166.66666666666669 179.44444444444446 L 167.22222222222223 180.00000000000003 L 167.22222222222223 180.00000000000003 L 167.22222222222223 180.55555555555557 L 167.22222222222223 180.55555555555557 L 167.7777777777778 181.11111111111114 L 167.7777777777778 181.11111111111114 L 167.7777777777778 181.11111111111114 L 167.7777777777778 181.11111111111114 L 167.7777777777778 181.11111111111114 L 167.7777777777778 181.11111111111114 L 167.7777777777778 181.11111111111114 L 167.7777777777778 181.66666666666669 L 167.7777777777778 181.66666666666669 L 167.7777777777778 181.66666666666669 L 167.7777777777778 181.66666666666669 L 167.7777777777778 182.22222222222223 L 167.7777777777778 182.22222222222223 L 167.7777777777778 182.22222222222223 L 167.7777777777778 182.22222222222223 L 168.33333333333334 182.22222222222223 " stroke="black" fill="none" stroke-width="7.0" stroke-linecap="round" stroke-linejoin="round" />
</svg>