<svg xmlns="http://www.w3.org/2000/svg" width="300" height="300" viewBox="0 0 300 300">
<path d="M 95.5 115.0 L 95.0 115.5 L 95.0 115.5 L 96.5 115.5 L 103.0 113.0 L 115.5 109.5 L 127.5 106.5 L 134.5 106.0 L 135.5 106.0 " stroke="black" fill="none" stroke-width="8.0" stroke-linecap="round" stroke-linejoin="round" />
<path d="M 122.0 112.0 L 121.5 111.5 L 121.0 111.0 L 121.0 111.0 L 121.0 112.0 L 120.5 118.5 L 119.5 132.5 L 118.5 148.5 L 117.5 157.0 L 117.5 158.0 L 118.5 155.0 " stroke="black" fill="none" stroke-width="8.0" stroke-linecap="round" stroke-linejoin="round" />
<path d="M 121.5 137.5 L 121.0 137.5 L 120.5 137.5 L 120.5 137.0 L 123.5 135.5 L 128.0 133.0 L 132.5 130.5 L 135.0 129.0 L 135.0 129.0 " stroke="black" fill="none" stroke-width="8.0" stroke-linecap="round" stroke-linejoin="round" />
<path d="M 108.0 128.5 L 108.0 128.5 L 108.0 128.5 L 108.0 128.5 L 107.5 129.5 L 107.5 135.5 L 107.5 148.5 L 107.5 162.5 L 107.5 170.5 L 107.5 173.0 L 107.5 172.5 L 107.5 170.5 L 107.5 170.0 " stroke="black" fill="none" stroke-width="8.0" stroke-linecap="round" stroke-linejoin="round" />
<path d="M 100.5 188.0 L 100.5 187.5 L 100.5 186.5 L 102.0 183.5 L 109.5 177.5 L 121.5 169.0 L 130.0 162.5 L 133.5 158.5 L 133.5 158.0 " stroke="black" fill="none" stroke-width="8.0" stroke-linecap="round" stroke-linejoin="round" />
<path d="M 159.0 102.0 L 159.5 101.5 L 160.0 101.0 L 160.0 102.0 L 158.5 107.0 L 155.5 115.5 L 153.0 123.0 L 152.0 125.5 L 151.5 125.5 " stroke="black" fill="none" stroke-width="8.0" stroke-linecap="round" stroke-linejoin="round" />
<path d="M 157.0 116.0 L 157.0 116.0 L 156.5 116.0 L 157.5 116.0 L 163.0 114.5 L 172.0 111.5 L 181.0 109.0 L 186.5 109.0 L 188.0 109.5 " stroke="black" fill="none" stroke-width="8.0" stroke-linecap="round" stroke-linejoin="round" />
<path d="M 182.0 112.0 L 182.5 112.0 L 183.5 111.0 L 183.5 111.0 L 184.0 111.0 L 183.5 114.0 L 182.0 120.5 L 177.5 131.5 L 170.5 147.5 L 161.5 165.0 L 155.0 176.0 L 152.0 179.5 L 151.5 179.5 L 151.5 177.0 " stroke="black" fill="none" stroke-width="8.0" stroke-linecap="round" stroke-linejoin="round" />
<path d="M 156.5 140.0 L 156.5 140.0 L 155.5 140.0 L 155.5 141.0 L 160.0 145.5 L 171.5 156.5 L 187.0 172.0 L 198.0 182.0 L 204.0 187.0 L 206.0 188.5 " stroke="black" fill="none" stroke-width="8.0" stroke-linecap="round" stroke-linejoin="round" />
</svg>