<svg xmlns="http://www.w3.org/2000/svg" width="300" height="300" viewBox="0 0 300 300">
<path d="M 122.5 122.5 L 121.5 122.0 L 121.0 121.5 L 123.0 121.5 L 128.0 121.5 L 134.5 122.0 L 140.0 122.0 L 142.5 122.0 L 143.0 121.5 L 143.0 121.0 " stroke="black" fill="none" stroke-width="6.0" stroke-linecap="round" stroke-linejoin="round" />
<path d="M 132.5 112.0 L 132.5 111.5 L 133.0 110.5 L 133.0 110.0 L 133.0 110.0 L 133.5 114.5 L 133.5 124.0 L 133.5 139.5 L 133.0 154.5 L 133.0 167.0 L 133.0 176.5 L 133.5 182.0 L 133.5 185.5 L 133.5 186.0 L 132.5 186.0 L 130.5 184.0 L 128.0 181.0 L 126.5 178.0 L 125.5 175.5 " stroke="black" fill="none" stroke-width="6.0" stroke-linecap="round" stroke-linejoin="round" />
<path d="M 123.5 167.5 L 123.0 167.5 L 121.5 167.5 L 121.0 167.5 L 122.5 167.5 L 126.5 166.0 L 131.0 163.5 L 135.5 161.0 L 139.5 157.5 " stroke="black" fill="none" stroke-width="6.0" stroke-linecap="round" stroke-linejoin="round" />
<path d="M 156.0 107.0 L 156.0 107.0 L 156.5 107.0 L 156.5 107.0 L 157.0 107.0 L 157.0 107.0 L 157.0 107.0 L 157.5 107.0 L 157.5 107.0 L 158.0 109.0 L 158.5 112.0 L 159.0 114.5 L 159.5 115.5 L 159.5 115.5 " stroke="black" fill="none" stroke-width="6.0" stroke-linecap="round" stroke-linejoin="round" />
<path d="M 151.5 121.0 L 151.5 121.0 L 151.5 121.5 L 152.0 122.0 L 155.0 122.0 L 160.5 121.0 L 167.0 119.0 L 172.0 118.5 L 175.5 119.0 L 176.0 120.0 " stroke="black" fill="none" stroke-width="6.0" stroke-linecap="round" stroke-linejoin="round" />
<path d="M 149.0 132.0 L 148.5 132.0 L 147.5 132.0 L 147.0 132.0 L 147.0 132.5 L 147.0 135.0 L 147.0 139.0 L 147.5 143.0 L 148.0 144.5 " stroke="black" fill="none" stroke-width="6.0" stroke-linecap="round" stroke-linejoin="round" />
<path d="M 146.5 134.5 L 146.5 134.5 L 145.5 135.0 L 145.5 135.0 L 148.0 133.5 L 151.0 132.0 L 154.0 131.5 L 156.5 131.5 L 157.5 133.0 L 157.5 136.0 L 156.0 139.0 L 153.5 142.0 L 151.0 144.0 L 150.5 144.0 " stroke="black" fill="none" stroke-width="6.0" stroke-linecap="round" stroke-linejoin="round" />
<path d="M 149.5 143.0 L 149.5 143.0 L 149.5 143.0 L 149.5 142.5 L 151.0 142.5 L 154.5 141.5 L 157.5 141.5 " stroke="black" fill="none" stroke-width="6.0" stroke-linecap="round" stroke-linejoin="round" />
<path d="M 168.0 130.0 L 167.0 130.0 L 166.5 130.5 L 166.0 131.0 L 166.0 133.5 L 166.5 138.0 L 167.5 142.0 L 167.5 143.5 L 167.5 143.5 " stroke="black" fill="none" stroke-width="6.0" stroke-linecap="round" stroke-linejoin="round" />
<path d="M 167.0 134.5 L 166.5 134.5 L 166.5 134.5 L 166.5 134.0 L 168.0 132.5 L 171.0 131.5 L 174.0 131.0 L 176.5 131.0 L 177.5 131.5 L 178.0 133.5 L 178.0 136.0 L 176.5 139.0 L 174.5 141.5 L 173.5 142.5 " stroke="black" fill="none" stroke-width="6.0" stroke-linecap="round" stroke-linejoin="round" />
<path d="M 169.5 142.5 L 169.0 142.5 L 169.0 142.5 L 170.5 142.5 L 173.5 141.5 L 176.0 141.5 L 177.0 141.5 " stroke="black" fill="none" stroke-width="6.0" stroke-linecap="round" stroke-linejoin="round" />
<path d="M 148.5 161.0 L 148.0 161.0 L 148.0 161.0 L 148.0 161.0 L 149.0 160.5 L 154.0 159.0 L 160.5 158.0 L 166.0 158.0 L 170.0 158.0 L 172.0 158.0 L 172.5 157.0 L 172.5 156.5 " stroke="black" fill="none" stroke-width="6.0" stroke-linecap="round" stroke-linejoin="round" />
<path d="M 150.0 168.5 L 149.5 168.5 L 148.5 168.5 L 149.5 168.5 L 155.0 168.0 L 162.0 167.0 L 168.5 166.5 L 172.5 166.5 L 173.5 167.0 " stroke="black" fill="none" stroke-width="6.0" stroke-linecap="round" stroke-linejoin="round" />
<path d="M 155.5 151.5 L 155.5 152.0 L 155.5 153.0 L 155.5 154.5 L 156.0 160.0 L 156.5 169.0 L 156.5 175.0 L 156.5 176.5 L 157.0 174.5 " stroke="black" fill="none" stroke-width="6.0" stroke-linecap="round" stroke-linejoin="round" />
<path d="M 165.0 151.5 L 165.0 151.5 L 164.5 152.0 L 164.5 152.5 L 164.5 153.0 L 164.5 155.5 L 165.5 160.0 L 166.0 165.5 L 166.5 170.0 L 166.5 170.5 " stroke="black" fill="none" stroke-width="6.0" stroke-linecap="round" stroke-linejoin="round" />
<path d="M 148.5 179.0 L 148.0 179.5 L 148.0 179.5 L 149.5 179.0 L 154.5 177.5 L 162.5 177.0 L 170.0 176.5 L 175.0 176.5 " stroke="black" fill="none" stroke-width="6.0" stroke-linecap="round" stroke-linejoin="round" />
<path d="M 155.5 179.5 L 155.5 179.5 L 156.0 179.5 L 156.5 179.5 L 157.0 179.5 L 157.0 179.5 L 157.5 179.5 L 157.5 179.5 L 155.5 182.5 L 153.0 186.0 L 150.5 189.0 L 149.5 190.5 L 149.5 190.5 " stroke="black" fill="none" stroke-width="6.0" stroke-linecap="round" stroke-linejoin="round" />
<path d="M 163.5 181.5 L 163.0 182.0 L 163.0 183.0 L 163.5 184.0 L 167.0 185.5 L 172.5 188.0 L 177.5 189.0 L 180.5 189.5 L 181.5 189.0 L 181.0 188.0 " stroke="black" fill="none" stroke-width="6.0" stroke-linecap="round" stroke-linejoin="round" />
<path d="M 181.5 179.0 L 181.5 179.0 L 181.5 179.5 L 181.0 180.5 L 180.5 181.0 L 180.0 181.5 L 179.0 182.0 L 178.0 183.5 L 176.5 184.5 " stroke="black" fill="none" stroke-width="6.0" stroke-linecap="round" stroke-linejoin="round" />
<path d="M 156.5 186.5 L 156.5 186.0 L 156.5 184.5 L 156.0 184.0 L 156.0 184.0 L 156.0 184.5 L 156.0 188.0 L 157.0 192.0 L 157.5 196.0 L 158.0 200.0 L 158.0 203.0 L 158.0 205.0 L 158.0 205.5 L 158.0 205.0 L 158.0 204.5 L 159.0 203.5 L 160.5 202.0 L 162.5 201.0 L 164.0 200.0 L 165.0 199.5 L 165.5 199.0 " stroke="black" fill="none" stroke-width="6.0" stroke-linecap="round" stroke-linejoin="round" />
</svg>