<svg xmlns="http://www.w3.org/2000/svg" width="300" height="300" viewBox="0 0 300 300">
<path d="M 116.0 121.5 L 116.0 121.5 L 115.5 121.5 L 116.0 121.0 L 119.0 120.0 L 124.5 119.5 L 131.5 118.5 L 137.5 117.5 L 139.5 116.5 L 140.0 116.5 " stroke="black" fill="none" stroke-width="7.0" stroke-linecap="round" stroke-linejoin="round" />
<path d="M 116.5 134.0 L 116.5 134.5 L 116.5 135.5 L 116.5 136.5 L 116.5 139.5 L 117.5 146.5 L 118.5 154.5 L 120.0 156.5 L 120.5 155.0 " stroke="black" fill="none" stroke-width="7.0" stroke-linecap="round" stroke-linejoin="round" />
<path d="M 118.5 136.5 L 117.5 136.5 L 117.0 136.0 L 118.5 136.0 L 122.0 135.0 L 127.5 134.0 L 134.0 133.0 L 139.0 132.0 L 142.0 132.0 L 142.5 132.5 L 142.5 133.5 L 143.0 135.0 L 143.0 137.0 L 143.5 139.5 L 143.0 143.0 L 142.0 147.5 L 141.0 151.0 L 140.0 152.0 " stroke="black" fill="none" stroke-width="7.0" stroke-linecap="round" stroke-linejoin="round" />
<path d="M 123.0 156.5 L 122.5 157.0 L 122.0 157.5 L 124.0 157.5 L 129.0 156.0 L 135.5 154.0 L 141.0 152.0 L 142.5 151.5 " stroke="black" fill="none" stroke-width="7.0" stroke-linecap="round" stroke-linejoin="round" />
<path d="M 131.0 106.0 L 131.0 106.0 L 131.0 107.5 L 131.0 109.0 L 131.0 112.0 L 131.0 118.5 L 131.0 129.0 L 130.5 141.5 L 130.5 156.0 L 130.5 171.0 L 130.5 182.0 L 130.5 190.0 L 130.0 196.0 L 130.0 198.0 L 129.5 197.0 L 129.5 196.5 " stroke="black" fill="none" stroke-width="7.0" stroke-linecap="round" stroke-linejoin="round" />
<path d="M 128.5 160.5 L 128.5 160.5 L 128.5 160.5 L 128.5 160.5 L 128.0 161.5 L 127.0 165.0 L 123.5 171.5 L 119.0 179.0 L 116.5 182.5 L 116.0 182.0 " stroke="black" fill="none" stroke-width="7.0" stroke-linecap="round" stroke-linejoin="round" />
<path d="M 132.5 163.5 L 132.5 163.5 L 134.0 165.0 L 137.0 167.0 L 142.0 170.5 L 146.0 174.5 L 148.5 175.5 " stroke="black" fill="none" stroke-width="7.0" stroke-linecap="round" stroke-linejoin="round" />
<path d="M 156.5 110.0 L 157.0 111.0 L 157.5 111.5 L 157.5 113.5 L 157.0 120.5 L 154.5 132.0 L 151.5 142.0 L 149.5 147.0 L 149.0 146.5 L 149.0 146.0 " stroke="black" fill="none" stroke-width="7.0" stroke-linecap="round" stroke-linejoin="round" />
<path d="M 155.0 125.5 L 155.0 125.5 L 154.0 125.0 L 154.0 125.0 L 155.5 125.0 L 161.5 125.0 L 168.5 124.0 L 175.5 123.0 L 180.0 122.0 L 180.0 122.0 L 179.5 122.5 " stroke="black" fill="none" stroke-width="7.0" stroke-linecap="round" stroke-linejoin="round" />
<path d="M 173.0 125.0 L 173.0 125.0 L 173.0 125.5 L 173.0 126.0 L 173.0 129.0 L 172.5 135.5 L 170.0 146.5 L 165.0 158.5 L 159.0 170.0 L 153.5 179.0 L 150.5 184.0 L 150.0 185.0 L 150.5 184.0 " stroke="black" fill="none" stroke-width="7.0" stroke-linecap="round" stroke-linejoin="round" />
<path d="M 159.0 149.0 L 158.5 149.0 L 158.0 149.0 L 157.5 149.0 L 158.0 149.5 L 161.0 153.5 L 167.0 163.0 L 175.0 175.5 L 181.5 183.5 L 184.5 184.5 " stroke="black" fill="none" stroke-width="7.0" stroke-linecap="round" stroke-linejoin="round" />
</svg>