<svg xmlns="http://www.w3.org/2000/svg" width="300" height="300" viewBox="0 0 300 300">
<path d="M 122.77777777777779 101.66666666666667 L 121.66666666666667 101.66666666666667 L 120.55555555555556 101.11111111111111 L 120.55555555555556 102.77777777777777 L 122.77777777777779 106.66666666666667 L 126.66666666666667 111.66666666666667 L 130.55555555555557 114.44444444444444 L 133.33333333333334 115.55555555555556 " stroke="black" fill="none" stroke-width="7.0" stroke-linecap="round" stroke-linejoin="round" />
<path d="M 116.66666666666667 126.1111111111111 L 116.1111111111111 126.1111111111111 L 115.00000000000001 126.1111111111111 L 115.55555555555556 125.55555555555556 L 120.55555555555556 124.44444444444444 L 130.55555555555557 122.77777777777779 L 142.7777777777778 121.1111111111111 L 151.11111111111111 120.00000000000001 L 155.00000000000003 119.44444444444444 L 155.55555555555557 119.44444444444444 " stroke="black" fill="none" stroke-width="7.0" stroke-linecap="round" stroke-linejoin="round" />
<path d="M 125.00000000000001 137.22222222222223 L 124.44444444444444 136.66666666666669 L 123.8888888888889 135.55555555555557 L 123.8888888888889 135.55555555555557 L 123.8888888888889 137.7777777777778 L 124.44444444444444 141.11111111111111 L 125.55555555555556 143.8888888888889 L 126.1111111111111 146.11111111111111 " stroke="black" fill="none" stroke-width="7.0" stroke-linecap="round" stroke-linejoin="round" />
<path d="M 125.55555555555556 138.33333333333334 L 124.44444444444444 137.22222222222223 L 123.33333333333333 135.55555555555557 L 123.33333333333333 134.44444444444446 L 124.44444444444444 133.33333333333334 L 127.77777777777779 132.7777777777778 L 131.11111111111111 132.22222222222223 L 135.55555555555557 132.22222222222223 L 139.44444444444446 133.33333333333334 L 141.66666666666669 135.00000000000003 L 142.22222222222223 136.66666666666669 L 142.22222222222223 139.44444444444446 L 140.55555555555557 142.7777777777778 L 138.33333333333334 146.11111111111111 L 136.11111111111111 149.44444444444446 L 135.00000000000003 150.55555555555557 " stroke="black" fill="none" stroke-width="7.0" stroke-linecap="round" stroke-linejoin="round" />
<path d="M 126.66666666666667 152.7777777777778 L 125.55555555555556 152.7777777777778 L 125.00000000000001 152.7777777777778 L 126.1111111111111 152.22222222222223 L 129.44444444444446 152.22222222222223 L 133.8888888888889 151.66666666666669 L 138.33333333333334 151.66666666666669 L 138.8888888888889 151.11111111111111 " stroke="black" fill="none" stroke-width="7.0" stroke-linecap="round" stroke-linejoin="round" />
<path d="M 125.00000000000001 166.66666666666669 L 124.44444444444444 166.11111111111114 L 122.77777777777779 165.55555555555557 L 122.22222222222221 165.55555555555557 L 123.8888888888889 165.00000000000003 L 128.8888888888889 163.8888888888889 L 134.44444444444446 163.33333333333334 L 138.8888888888889 163.33333333333334 L 140.00000000000003 165.00000000000003 L 139.44444444444446 167.7777777777778 L 136.11111111111111 170.55555555555557 L 133.33333333333334 172.7777777777778 L 131.66666666666669 173.8888888888889 L 131.11111111111111 174.44444444444446 L 133.33333333333334 175.00000000000003 L 136.66666666666669 177.22222222222223 L 139.44444444444446 181.11111111111114 L 141.11111111111111 187.22222222222223 L 141.66666666666669 195.55555555555557 L 139.44444444444446 203.33333333333334 L 136.66666666666669 210.55555555555557 L 134.44444444444446 213.8888888888889 L 132.7777777777778 213.8888888888889 L 130.55555555555557 210.55555555555557 L 127.77777777777779 205.00000000000003 L 127.22222222222221 203.8888888888889 " stroke="black" fill="none" stroke-width="7.0" stroke-linecap="round" stroke-linejoin="round" />
<path d="M 123.33333333333333 190.55555555555557 L 122.77777777777779 189.44444444444446 L 123.8888888888889 187.7777777777778 L 128.8888888888889 186.66666666666669 L 136.11111111111111 185.00000000000003 L 145.00000000000003 181.11111111111114 L 146.11111111111111 180.55555555555557 " stroke="black" fill="none" stroke-width="7.0" stroke-linecap="round" stroke-linejoin="round" />
<path d="M 171.11111111111114 108.88888888888889 L 169.44444444444446 108.88888888888889 L 168.8888888888889 108.88888888888889 L 168.8888888888889 108.88888888888889 L 168.8888888888889 111.66666666666667 L 168.8888888888889 118.8888888888889 L 164.44444444444446 130.55555555555557 L 157.7777777777778 143.33333333333334 L 154.44444444444446 147.7777777777778 L 153.33333333333334 147.7777777777778 L 153.33333333333334 146.11111111111111 " stroke="black" fill="none" stroke-width="7.0" stroke-linecap="round" stroke-linejoin="round" />
<path d="M 166.66666666666669 128.33333333333334 L 165.55555555555557 128.33333333333334 L 164.44444444444446 128.33333333333334 L 163.8888888888889 128.33333333333334 L 166.66666666666669 128.33333333333334 L 171.11111111111114 128.33333333333334 L 177.7777777777778 127.22222222222221 L 185.00000000000003 125.55555555555556 L 189.44444444444446 123.8888888888889 L 190.00000000000003 123.33333333333333 " stroke="black" fill="none" stroke-width="7.0" stroke-linecap="round" stroke-linejoin="round" />
<path d="M 184.44444444444446 129.44444444444446 L 184.44444444444446 130.00000000000003 L 184.44444444444446 130.55555555555557 L 185.00000000000003 131.66666666666669 L 185.00000000000003 134.44444444444446 L 184.44444444444446 141.66666666666669 L 180.55555555555557 153.33333333333334 L 174.44444444444446 168.33333333333334 L 168.33333333333334 182.22222222222223 L 163.8888888888889 192.22222222222223 L 161.66666666666669 196.66666666666669 L 161.11111111111111 196.66666666666669 " stroke="black" fill="none" stroke-width="7.0" stroke-linecap="round" stroke-linejoin="round" />
<path d="M 165.00000000000003 141.11111111111111 L 164.44444444444446 140.55555555555557 L 163.8888888888889 140.55555555555557 L 163.33333333333334 140.55555555555557 L 164.44444444444446 141.11111111111111 L 166.66666666666669 146.66666666666669 L 171.66666666666669 160.00000000000003 L 180.00000000000003 179.44444444444446 L 187.22222222222223 187.7777777777778 L 191.11111111111114 188.33333333333334 L 192.22222222222223 188.33333333333334 " stroke="black" fill="none" stroke-width="7.0" stroke-linecap="round" stroke-linejoin="round" />
</svg>