<svg xmlns="http://www.w3.org/2000/svg" width="300" height="300" viewBox="0 0 300 300">
<path d="M 128.5 113.5 L 128.5 114.5 L 128.5 115.0 L 129.5 116.5 L 131.5 118.5 L 133.5 121.0 L 134.5 123.5 L 135.0 124.0 " stroke="black" fill="none" stroke-width="6.0" stroke-linecap="round" stroke-linejoin="round" />
<path d="M 122.0 132.0 L 121.5 132.5 L 120.5 133.0 L 120.5 133.5 L 123.5 133.0 L 128.5 132.0 L 135.5 131.5 L 142.0 130.5 L 148.0 130.0 L 150.0 130.0 " stroke="black" fill="none" stroke-width="6.0" stroke-linecap="round" stroke-linejoin="round" />
<path d="M 131.0 135.5 L 131.5 136.0 L 132.0 136.0 L 132.0 136.5 L 132.0 138.0 L 131.5 142.5 L 129.5 151.0 L 127.0 160.5 L 125.5 166.5 L 125.5 167.5 L 126.0 166.5 " stroke="black" fill="none" stroke-width="6.0" stroke-linecap="round" stroke-linejoin="round" />
<path d="M 132.0 147.0 L 131.5 147.0 L 131.5 147.0 L 131.0 147.0 L 131.5 147.0 L 133.5 146.0 L 136.5 145.0 L 139.0 144.0 L 141.5 143.0 L 143.5 143.0 L 144.0 144.0 L 144.5 147.0 L 144.5 152.0 L 144.5 159.0 L 144.0 167.5 L 143.0 174.5 L 142.5 179.5 L 141.5 182.5 L 140.0 183.0 L 139.0 182.0 L 137.5 178.0 " stroke="black" fill="none" stroke-width="6.0" stroke-linecap="round" stroke-linejoin="round" />
<path d="M 160.0 117.0 L 160.0 116.5 L 160.0 116.0 L 160.5 115.5 L 160.5 115.0 L 160.5 115.0 L 160.5 116.5 L 159.5 121.0 L 157.0 127.5 L 155.0 133.0 L 154.0 136.0 L 154.0 135.0 L 154.5 134.0 " stroke="black" fill="none" stroke-width="6.0" stroke-linecap="round" stroke-linejoin="round" />
<path d="M 159.5 126.0 L 159.5 126.5 L 160.0 126.5 L 160.5 126.5 L 162.5 126.5 L 166.5 126.0 L 171.5 125.0 L 176.0 124.0 L 178.5 123.5 L 179.0 124.0 " stroke="black" fill="none" stroke-width="6.0" stroke-linecap="round" stroke-linejoin="round" />
<path d="M 154.0 145.5 L 154.0 145.0 L 153.5 144.5 L 154.5 143.5 L 159.0 141.0 L 166.0 137.5 L 171.5 135.0 L 174.5 134.0 L 174.5 134.0 L 175.0 135.0 L 174.5 135.0 " stroke="black" fill="none" stroke-width="6.0" stroke-linecap="round" stroke-linejoin="round" />
<path d="M 154.5 154.0 L 155.0 154.5 L 155.0 155.0 L 156.0 155.0 L 158.5 154.0 L 163.0 152.5 L 166.5 151.0 L 169.5 150.0 L 171.5 150.0 L 171.5 150.0 " stroke="black" fill="none" stroke-width="6.0" stroke-linecap="round" stroke-linejoin="round" />
<path d="M 152.0 164.5 L 152.0 164.5 L 153.0 164.5 L 154.0 164.5 L 158.0 163.5 L 165.5 160.0 L 172.0 157.0 L 175.5 156.0 L 176.0 155.5 " stroke="black" fill="none" stroke-width="6.0" stroke-linecap="round" stroke-linejoin="round" />
<path d="M 164.5 144.5 L 163.5 144.0 L 162.5 143.5 L 162.5 143.5 L 162.5 145.0 L 162.5 149.0 L 162.0 156.0 L 161.0 165.5 L 160.5 173.5 L 160.5 178.0 L 162.0 180.5 L 164.0 181.0 L 166.5 181.0 L 171.0 180.5 L 175.5 178.5 L 179.0 176.0 L 181.0 173.5 L 181.5 171.5 L 181.0 170.0 L 179.5 169.5 L 179.0 169.0 L 178.5 169.0 L 178.0 169.5 " stroke="black" fill="none" stroke-width="6.0" stroke-linecap="round" stroke-linejoin="round" />
</svg>