<svg xmlns="http://www.w3.org/2000/svg" width="300" height="300" viewBox="0 0 300 300">
<path d="M 100.5 111.0 L 100.0 111.0 L 99.5 111.5 L 100.0 111.5 L 104.5 112.0 L 112.0 112.5 L 120.5 112.5 L 126.5 111.5 L 129.0 110.0 L 129.5 109.5 " stroke="black" fill="none" stroke-width="8.0" stroke-linecap="round" stroke-linejoin="round" />
<path d="M 113.5 92.0 L 113.5 92.0 L 113.5 92.0 L 113.5 92.5 L 113.5 93.5 L 113.5 98.0 L 113.5 108.0 L 114.0 122.5 L 114.0 138.5 L 114.0 154.0 L 115.0 167.5 L 116.0 177.5 L 117.0 186.5 L 117.5 193.0 L 118.0 197.0 L 118.5 201.0 L 118.5 203.5 L 118.5 205.0 L 118.5 205.5 L 118.5 205.5 L 116.5 204.0 L 113.5 201.0 L 109.5 197.5 L 108.0 196.0 " stroke="black" fill="none" stroke-width="8.0" stroke-linecap="round" stroke-linejoin="round" />
<path d="M 96.0 180.0 L 96.5 180.0 L 97.0 179.5 L 100.5 178.5 L 108.5 175.5 L 118.5 171.5 L 130.5 164.0 " stroke="black" fill="none" stroke-width="8.0" stroke-linecap="round" stroke-linejoin="round" />
<path d="M 147.0 85.0 L 147.0 85.0 L 147.0 85.0 L 146.5 84.5 L 146.5 84.5 L 149.0 84.5 L 154.0 85.5 L 163.5 86.5 L 175.5 86.0 L 185.0 84.5 L 189.5 83.5 L 190.0 83.5 L 189.5 84.5 L 188.5 84.5 L 188.0 85.0 " stroke="black" fill="none" stroke-width="8.0" stroke-linecap="round" stroke-linejoin="round" />
<path d="M 156.5 89.0 L 157.5 89.0 L 158.0 89.5 L 158.5 90.0 L 159.0 93.0 L 158.5 100.0 L 156.5 110.5 L 155.0 119.5 L 155.5 122.5 L 156.5 121.0 " stroke="black" fill="none" stroke-width="8.0" stroke-linecap="round" stroke-linejoin="round" />
<path d="M 183.0 89.0 L 183.0 89.0 L 183.0 88.5 L 183.0 88.5 L 182.5 89.0 L 182.5 93.5 L 181.5 105.0 L 180.0 120.5 L 180.0 133.0 L 180.0 140.0 L 180.5 141.5 L 180.5 140.0 L 180.0 139.0 " stroke="black" fill="none" stroke-width="8.0" stroke-linecap="round" stroke-linejoin="round" />
<path d="M 154.0 101.5 L 154.5 101.5 L 156.0 101.0 L 158.0 101.0 L 163.0 101.0 L 170.0 100.5 L 176.5 100.0 L 181.5 100.0 L 182.5 100.0 " stroke="black" fill="none" stroke-width="8.0" stroke-linecap="round" stroke-linejoin="round" />
<path d="M 160.5 113.0 L 160.0 113.5 L 159.5 114.0 L 159.5 114.5 L 162.0 114.5 L 166.5 114.5 L 172.0 113.5 L 176.5 112.5 L 177.5 112.5 " stroke="black" fill="none" stroke-width="8.0" stroke-linecap="round" stroke-linejoin="round" />
<path d="M 143.0 127.0 L 143.0 126.5 L 143.5 126.0 L 143.5 125.5 L 145.5 125.5 L 151.5 125.5 L 164.0 125.5 L 179.5 124.0 L 192.0 123.5 L 196.0 124.0 " stroke="black" fill="none" stroke-width="8.0" stroke-linecap="round" stroke-linejoin="round" />
<path d="M 142.5 151.0 L 142.5 151.5 L 143.0 152.0 L 146.0 152.0 L 153.5 152.0 L 161.0 150.5 L 166.0 149.5 L 168.0 149.5 L 168.5 150.5 " stroke="black" fill="none" stroke-width="8.0" stroke-linecap="round" stroke-linejoin="round" />
<path d="M 146.5 157.5 L 146.5 157.5 L 146.0 157.5 L 146.0 157.5 L 146.0 161.0 L 146.0 170.5 L 146.0 184.5 L 146.0 195.0 L 146.5 198.0 L 148.0 196.0 " stroke="black" fill="none" stroke-width="8.0" stroke-linecap="round" stroke-linejoin="round" />
<path d="M 166.5 154.5 L 166.0 154.5 L 165.5 155.0 L 165.0 155.5 L 165.0 158.0 L 165.0 164.0 L 165.5 175.0 L 165.5 187.5 L 165.0 198.0 L 164.5 206.0 L 164.5 213.0 L 164.5 216.0 L 164.5 215.5 L 164.5 215.0 " stroke="black" fill="none" stroke-width="8.0" stroke-linecap="round" stroke-linejoin="round" />
<path d="M 148.0 170.5 L 148.0 170.5 L 148.0 170.5 L 148.0 170.5 L 149.0 170.0 L 152.5 169.5 L 157.0 169.0 L 161.0 169.0 L 161.5 169.0 " stroke="black" fill="none" stroke-width="8.0" stroke-linecap="round" stroke-linejoin="round" />
<path d="M 150.0 184.0 L 150.0 184.0 L 150.0 183.5 L 150.0 183.0 L 151.5 183.0 L 154.5 183.0 L 159.0 182.5 L 163.0 182.0 L 164.5 182.0 " stroke="black" fill="none" stroke-width="8.0" stroke-linecap="round" stroke-linejoin="round" />
<path d="M 131.5 203.0 L 132.5 202.5 L 135.0 202.5 L 140.5 202.0 L 149.5 201.0 L 159.5 200.0 L 167.5 198.5 L 170.0 198.0 " stroke="black" fill="none" stroke-width="8.0" stroke-linecap="round" stroke-linejoin="round" />
<path d="M 184.0 152.0 L 184.5 152.0 L 185.5 152.0 L 188.0 152.0 L 192.0 150.5 L 199.0 148.5 L 206.5 147.5 L 211.5 147.5 " stroke="black" fill="none" stroke-width="8.0" stroke-linecap="round" stroke-linejoin="round" />
<path d="M 187.5 153.5 L 188.0 153.5 L 188.5 152.5 L 189.0 152.0 L 189.0 152.0 L 189.5 152.0 L 189.5 153.5 L 190.0 161.0 L 190.0 174.0 L 189.5 187.0 L 189.0 193.0 L 190.0 193.0 L 190.5 192.5 " stroke="black" fill="none" stroke-width="8.0" stroke-linecap="round" stroke-linejoin="round" />
<path d="M 205.5 150.5 L 205.5 150.5 L 205.5 151.5 L 205.0 152.0 L 205.0 155.0 L 205.5 163.0 L 206.5 175.5 L 206.5 189.5 L 206.5 199.5 L 206.5 208.5 L 206.5 215.5 L 206.5 218.5 L 205.5 218.0 L 204.0 214.5 " stroke="black" fill="none" stroke-width="8.0" stroke-linecap="round" stroke-linejoin="round" />
<path d="M 192.5 169.0 L 192.0 169.0 L 192.0 168.5 L 193.5 168.0 L 197.0 167.0 L 200.5 166.5 L 203.5 166.5 L 204.0 166.5 " stroke="black" fill="none" stroke-width="8.0" stroke-linecap="round" stroke-linejoin="round" />
<path d="M 193.0 182.5 L 193.0 182.5 L 192.5 182.0 L 193.0 181.0 L 195.5 180.5 L 199.0 180.5 L 202.0 180.5 L 204.0 180.5 " stroke="black" fill="none" stroke-width="8.0" stroke-linecap="round" stroke-linejoin="round" />
<path d="M 178.0 197.5 L 179.0 198.0 L 180.5 198.0 L 183.0 198.0 L 186.5 198.0 L 192.5 197.5 L 199.5 196.5 L 207.0 195.0 L 213.0 194.0 " stroke="black" fill="none" stroke-width="8.0" stroke-linecap="round" stroke-linejoin="round" />
</svg>