<svg xmlns="http://www.w3.org/2000/svg" width="300" height="300" viewBox="0 0 300 300">
<path d="M 105.0 98.0 L 105.0 98.0 L 105.0 98.0 L 104.5 98.0 L 104.5 98.0 L 104.5 98.5 L 105.5 102.0 L 106.5 110.0 L 108.5 125.5 L 109.0 144.5 L 109.0 157.0 L 109.0 165.5 L 109.0 171.0 L 109.5 172.5 L 109.5 171.5 " stroke="black" fill="none" stroke-width="8.0" stroke-linecap="round" stroke-linejoin="round" />
<path d="M 99.5 112.0 L 99.0 112.0 L 98.5 112.5 L 98.5 112.5 L 100.0 112.5 L 103.5 112.5 L 108.5 112.5 L 116.0 112.0 L 124.5 111.5 L 131.5 110.5 L 137.0 110.0 L 140.0 110.0 L 140.0 110.0 L 140.0 110.5 L 140.0 110.5 L 139.5 110.5 " stroke="black" fill="none" stroke-width="8.0" stroke-linecap="round" stroke-linejoin="round" />
<path d="M 131.0 93.0 L 131.0 93.0 L 131.0 93.5 L 131.0 94.0 L 131.0 95.0 L 131.0 96.0 L 132.0 99.0 L 133.0 105.0 L 134.0 113.5 L 135.0 123.5 L 135.5 131.5 L 136.0 138.0 L 137.0 145.5 L 137.5 152.5 L 138.0 157.5 L 138.5 161.5 L 139.0 164.0 L 139.0 166.0 L 139.5 167.0 L 139.5 167.5 L 139.5 167.5 L 139.5 167.5 " stroke="black" fill="none" stroke-width="8.0" stroke-linecap="round" stroke-linejoin="round" />
<path d="M 109.0 127.5 L 109.0 128.0 L 108.5 128.0 L 109.0 128.5 L 112.0 129.0 L 118.0 129.0 L 124.0 128.5 L 128.0 127.5 L 131.0 127.0 L 131.5 127.0 " stroke="black" fill="none" stroke-width="8.0" stroke-linecap="round" stroke-linejoin="round" />
<path d="M 111.5 150.0 L 111.5 150.0 L 111.5 150.0 L 111.5 150.0 L 113.0 150.0 L 118.0 149.0 L 125.5 147.0 L 132.0 145.5 L 135.5 145.0 L 136.5 145.5 L 136.5 146.5 L 136.0 147.0 " stroke="black" fill="none" stroke-width="8.0" stroke-linecap="round" stroke-linejoin="round" />
<path d="M 101.5 173.5 L 100.5 174.0 L 100.0 174.5 L 100.0 174.5 L 100.0 174.5 L 101.0 174.5 L 104.0 174.0 L 110.0 172.5 L 119.0 171.0 L 130.5 169.0 L 141.5 167.5 L 148.0 167.5 L 151.0 167.5 L 151.5 167.5 L 151.0 167.5 L 151.0 167.0 L 150.5 167.0 L 150.0 167.0 L 149.5 167.0 " stroke="black" fill="none" stroke-width="8.0" stroke-linecap="round" stroke-linejoin="round" />
<path d="M 122.5 187.0 L 122.5 186.5 L 122.0 186.0 L 122.0 186.0 L 122.0 187.0 L 121.5 190.0 L 119.5 195.0 L 116.5 201.0 L 114.5 205.0 L 114.0 205.5 L 114.0 205.0 " stroke="black" fill="none" stroke-width="8.0" stroke-linecap="round" stroke-linejoin="round" />
<path d="M 137.5 184.0 L 137.5 184.0 L 138.0 183.5 L 139.0 183.5 L 141.0 185.5 L 145.0 189.5 L 149.5 194.5 L 152.0 197.0 L 153.0 197.5 " stroke="black" fill="none" stroke-width="8.0" stroke-linecap="round" stroke-linejoin="round" />
<path d="M 192.5 90.0 L 192.0 90.5 L 191.5 91.0 L 191.0 91.0 L 190.5 91.0 L 189.5 92.0 L 187.0 93.0 L 182.5 95.5 L 177.0 98.0 L 172.0 100.0 L 168.5 102.0 L 166.0 102.5 L 164.0 102.5 L 161.5 102.5 L 160.0 102.0 L 159.5 102.0 L 159.0 102.0 L 159.0 102.0 L 159.0 102.0 L 159.5 102.0 L 159.5 102.0 L 159.5 102.0 L 159.5 102.0 L 159.5 102.0 L 160.0 102.0 L 160.0 102.0 L 160.0 102.0 L 160.0 102.0 L 160.0 102.0 L 160.5 103.0 L 160.5 103.5 L 161.0 105.0 L 161.5 107.0 L 162.0 110.5 L 163.0 115.0 L 163.5 119.5 L 164.0 124.5 L 165.0 130.0 L 166.0 135.5 L 167.0 141.5 L 168.0 148.0 L 168.0 154.0 L 168.5 160.5 L 168.5 167.5 L 168.5 173.5 L 168.5 179.0 L 168.5 184.5 L 168.5 188.5 L 168.5 192.0 L 168.5 194.0 L 168.0 194.5 L 168.0 194.0 L 168.0 193.5 " stroke="black" fill="none" stroke-width="8.0" stroke-linecap="round" stroke-linejoin="round" />
<path d="M 168.5 120.0 L 166.5 120.0 L 166.5 120.5 L 167.5 120.5 L 171.0 121.0 L 177.5 121.0 L 184.5 121.0 L 192.0 119.5 L 197.5 118.0 L 200.0 117.0 L 200.0 117.0 L 199.5 117.5 " stroke="black" fill="none" stroke-width="8.0" stroke-linecap="round" stroke-linejoin="round" />
<path d="M 185.5 125.5 L 185.5 125.5 L 185.5 125.0 L 185.0 125.0 L 185.0 125.0 L 185.0 126.5 L 185.5 130.0 L 186.5 136.5 L 187.0 145.0 L 187.5 153.5 L 187.5 161.5 L 188.0 167.0 L 188.5 172.0 L 189.0 177.0 L 189.5 181.0 L 190.5 184.0 L 191.0 187.0 L 191.0 189.0 L 191.5 191.0 L 192.0 193.0 L 192.0 193.5 L 192.5 194.0 L 192.5 194.5 L 192.5 195.0 L 192.5 195.5 L 192.5 196.0 L 192.5 196.0 L 192.5 196.0 " stroke="black" fill="none" stroke-width="8.0" stroke-linecap="round" stroke-linejoin="round" />
</svg>