<svg xmlns="http://www.w3.org/2000/svg" width="300" height="300" viewBox="0 0 300 300">
<path d="M 103.5 89.5 L 103.0 89.5 L 102.5 90.5 L 102.5 93.0 L 103.0 97.5 L 103.0 102.5 L 103.5 105.5 " stroke="black" fill="none" stroke-width="9.0" stroke-linecap="round" stroke-linejoin="round" />
<path d="M 88.5 102.0 L 88.5 101.5 L 89.0 101.5 L 90.0 101.0 L 92.5 100.5 L 96.0 100.0 L 97.0 100.0 " stroke="black" fill="none" stroke-width="9.0" stroke-linecap="round" stroke-linejoin="round" />
<path d="M 120.0 87.0 L 119.5 87.0 L 119.0 87.5 L 119.0 89.5 L 119.0 93.5 L 120.0 98.5 L 120.0 102.5 L 120.5 104.0 " stroke="black" fill="none" stroke-width="9.0" stroke-linecap="round" stroke-linejoin="round" />
<path d="M 123.0 98.0 L 122.5 97.5 L 122.0 97.0 L 122.5 96.5 L 124.5 96.0 L 127.0 96.0 L 129.0 96.5 L 130.5 97.0 L 132.0 98.0 " stroke="black" fill="none" stroke-width="9.0" stroke-linecap="round" stroke-linejoin="round" />
<path d="M 102.0 119.0 L 101.5 119.0 L 101.0 119.0 L 100.0 121.0 L 99.0 127.0 L 97.5 134.5 L 96.0 139.0 L 95.0 139.5 " stroke="black" fill="none" stroke-width="9.0" stroke-linecap="round" stroke-linejoin="round" />
<path d="M 103.5 129.0 L 103.0 129.0 L 102.5 129.0 L 102.5 129.0 L 105.5 128.0 L 111.5 126.0 L 118.0 124.0 L 124.0 123.0 L 127.5 122.5 L 129.0 123.0 L 130.5 124.0 L 131.5 125.0 L 132.5 126.5 L 133.5 128.0 L 134.5 129.5 L 135.0 132.5 L 135.5 137.0 L 135.5 144.0 L 135.5 153.0 L 135.5 163.5 L 135.0 173.0 L 135.0 181.0 L 134.0 187.0 L 132.5 191.5 L 130.5 194.0 L 127.5 194.5 L 122.5 194.0 L 117.0 190.5 L 114.5 189.0 " stroke="black" fill="none" stroke-width="9.0" stroke-linecap="round" stroke-linejoin="round" />
<path d="M 106.5 155.5 L 106.0 154.0 L 105.5 153.0 L 105.5 153.0 L 105.5 155.5 L 106.5 161.5 L 107.0 168.0 L 107.5 172.5 L 107.5 174.0 " stroke="black" fill="none" stroke-width="9.0" stroke-linecap="round" stroke-linejoin="round" />
<path d="M 106.0 159.5 L 105.5 159.0 L 104.5 159.0 L 104.5 158.0 L 106.5 156.0 L 109.5 153.5 L 113.0 151.0 L 115.5 150.0 L 117.5 150.0 L 118.5 152.5 L 119.5 157.0 L 119.5 162.0 L 119.5 166.5 L 118.0 169.0 L 116.0 169.5 " stroke="black" fill="none" stroke-width="9.0" stroke-linecap="round" stroke-linejoin="round" />
<path d="M 108.5 174.5 L 108.5 174.5 L 108.5 174.5 L 109.5 174.5 L 112.5 172.5 L 116.0 171.0 L 117.0 170.0 " stroke="black" fill="none" stroke-width="9.0" stroke-linecap="round" stroke-linejoin="round" />
<path d="M 156.0 92.0 L 156.5 92.0 L 157.0 92.0 L 157.0 92.0 L 157.0 95.0 L 155.5 102.5 L 153.0 113.0 L 151.0 120.5 L 151.0 122.5 L 151.0 122.5 " stroke="black" fill="none" stroke-width="9.0" stroke-linecap="round" stroke-linejoin="round" />
<path d="M 158.0 106.5 L 158.0 106.5 L 157.5 107.0 L 157.0 107.0 L 157.0 107.0 L 158.5 107.0 L 163.0 106.5 L 169.5 105.0 L 175.5 103.5 L 179.5 102.5 L 181.5 101.5 L 182.0 101.5 L 182.0 101.5 L 182.5 102.0 L 182.5 102.0 " stroke="black" fill="none" stroke-width="9.0" stroke-linecap="round" stroke-linejoin="round" />
<path d="M 176.0 108.5 L 176.5 108.5 L 177.0 108.0 L 177.5 107.5 L 178.0 108.0 L 178.0 111.5 L 177.5 118.0 L 175.5 131.0 L 170.5 149.0 L 165.5 165.0 L 161.5 175.0 L 159.0 181.0 L 158.0 184.5 L 157.5 185.0 L 156.0 182.0 " stroke="black" fill="none" stroke-width="9.0" stroke-linecap="round" stroke-linejoin="round" />
<path d="M 154.5 136.5 L 155.5 136.5 L 155.5 137.5 L 156.5 139.0 L 159.5 143.0 L 165.0 151.0 L 171.5 162.5 L 178.0 175.5 L 185.0 187.0 L 189.5 193.0 L 192.0 196.0 L 193.0 197.5 L 193.0 197.5 " stroke="black" fill="none" stroke-width="9.0" stroke-linecap="round" stroke-linejoin="round" />
</svg>