<svg xmlns="http://www.w3.org/2000/svg" width="300" height="300" viewBox="0 0 300 300">
<path d="M 113.5 123.0 L 113.5 122.5 L 113.5 122.0 L 114.0 122.0 L 116.0 122.0 L 120.0 122.0 L 126.0 122.0 L 131.5 121.0 L 135.0 120.0 L 137.0 119.5 L 137.0 120.0 L 137.0 121.5 " stroke="black" fill="none" stroke-width="8.0" stroke-linecap="round" stroke-linejoin="round" />
<path d="M 111.0 139.5 L 111.0 139.5 L 111.5 139.0 L 112.0 138.5 L 112.0 138.5 L 112.5 141.5 L 112.5 147.5 L 113.0 153.5 L 114.0 157.5 L 115.0 159.5 L 115.5 159.5 " stroke="black" fill="none" stroke-width="8.0" stroke-linecap="round" stroke-linejoin="round" />
<path d="M 115.5 139.0 L 115.0 138.5 L 114.5 138.0 L 114.5 138.0 L 115.0 137.5 L 117.5 137.5 L 121.5 137.0 L 126.5 136.5 L 131.0 136.5 L 135.0 136.5 L 137.0 137.0 L 137.5 138.5 L 137.5 140.0 L 137.5 142.5 L 137.0 145.5 L 136.5 149.5 L 136.0 153.0 L 135.5 156.0 L 135.5 157.0 L 135.5 157.5 " stroke="black" fill="none" stroke-width="8.0" stroke-linecap="round" stroke-linejoin="round" />
<path d="M 118.0 150.0 L 117.5 150.0 L 116.5 150.0 L 116.5 150.0 L 117.0 149.5 L 119.5 149.0 L 123.0 149.0 L 126.5 149.0 L 130.5 148.5 L 133.0 148.0 " stroke="black" fill="none" stroke-width="8.0" stroke-linecap="round" stroke-linejoin="round" />
<path d="M 118.0 161.0 L 118.0 161.0 L 117.5 161.0 L 119.0 160.5 L 122.5 160.0 L 127.5 159.5 L 132.5 159.5 L 135.0 159.0 " stroke="black" fill="none" stroke-width="8.0" stroke-linecap="round" stroke-linejoin="round" />
<path d="M 114.0 178.5 L 114.0 178.5 L 114.5 178.5 L 115.0 178.5 L 116.0 178.5 L 118.0 178.0 L 122.0 177.5 L 127.5 177.0 L 133.5 176.5 L 138.5 176.0 L 142.0 174.5 L 143.0 174.0 " stroke="black" fill="none" stroke-width="8.0" stroke-linecap="round" stroke-linejoin="round" />
<path d="M 127.5 112.0 L 127.5 112.0 L 127.5 112.5 L 127.0 112.5 L 127.0 113.0 L 127.0 113.5 L 126.5 115.5 L 126.5 119.5 L 126.5 125.0 L 126.5 131.5 L 126.5 138.5 L 126.5 144.5 L 126.5 150.0 L 126.5 154.5 L 126.5 158.0 L 127.0 161.0 L 127.0 164.5 L 127.0 168.0 L 127.0 172.0 L 127.0 175.0 L 127.0 177.0 L 127.5 179.0 L 127.5 181.0 L 127.5 183.5 L 127.5 185.5 L 127.5 188.0 L 127.5 190.0 L 127.5 191.5 L 127.5 192.5 L 128.0 193.5 L 128.0 194.5 L 128.0 195.0 L 128.0 195.5 L 128.0 195.5 L 128.0 195.5 L 128.0 195.5 L 128.5 195.0 " stroke="black" fill="none" stroke-width="8.0" stroke-linecap="round" stroke-linejoin="round" />
<path d="M 168.0 114.5 L 167.5 115.0 L 166.5 115.5 L 166.0 115.5 L 165.5 115.5 L 164.5 116.0 L 163.5 116.0 L 161.5 116.5 L 159.5 117.0 L 157.0 117.5 L 155.0 117.5 L 153.5 118.5 L 152.0 119.0 L 151.0 119.0 L 150.0 119.5 L 149.5 119.5 L 149.5 119.5 L 149.5 119.5 L 149.5 119.5 L 149.5 119.5 L 149.5 119.5 L 150.0 119.5 L 150.0 119.5 L 150.0 120.0 L 150.5 120.5 L 150.5 121.0 L 151.0 122.5 L 151.0 125.0 L 151.0 128.0 L 151.5 131.5 L 151.5 136.0 L 151.5 140.5 L 151.5 145.5 L 151.0 150.0 L 151.0 155.0 L 150.5 160.5 L 150.5 165.5 L 150.0 170.0 L 149.5 174.5 L 149.0 179.5 L 148.5 184.5 L 147.5 189.0 L 147.0 191.5 L 147.0 192.0 L 147.0 192.0 L 147.0 190.5 L 147.5 188.0 " stroke="black" fill="none" stroke-width="8.0" stroke-linecap="round" stroke-linejoin="round" />
<path d="M 159.0 141.5 L 158.5 141.5 L 158.0 141.5 L 158.0 141.0 L 158.0 141.0 L 158.5 141.0 L 161.0 141.0 L 164.5 141.0 L 168.5 141.0 L 172.0 141.0 L 174.5 141.0 L 176.0 141.0 L 176.5 141.0 L 176.5 141.5 " stroke="black" fill="none" stroke-width="8.0" stroke-linecap="round" stroke-linejoin="round" />
<path d="M 165.5 144.5 L 165.5 144.5 L 165.5 144.0 L 165.5 144.0 L 165.5 144.0 L 166.0 146.5 L 166.5 149.5 L 167.0 154.5 L 167.0 160.0 L 167.0 166.0 L 167.0 170.0 L 167.0 173.5 L 167.5 176.5 L 167.5 179.5 L 167.5 182.0 L 168.0 184.5 L 168.0 186.5 L 168.5 188.0 L 169.0 189.5 L 169.0 190.5 L 169.0 191.5 L 169.0 193.0 L 169.0 194.5 L 169.5 196.0 L 169.5 197.5 L 169.5 198.0 L 169.5 198.5 L 170.0 198.5 L 170.0 198.5 L 170.0 198.5 " stroke="black" fill="none" stroke-width="8.0" stroke-linecap="round" stroke-linejoin="round" />
</svg>