<svg xmlns="http://www.w3.org/2000/svg" width="300" height="300" viewBox="0 0 300 300">
<path d="M 103.5 117.0 L 103.5 117.0 L 103.0 117.0 L 102.5 117.0 L 102.5 117.5 L 102.5 121.0 L 103.5 131.5 L 104.0 151.0 L 104.5 169.5 L 105.5 178.0 L 106.0 178.0 L 106.0 174.0 L 106.0 172.5 " stroke="black" fill="none" stroke-width="8.0" stroke-linecap="round" stroke-linejoin="round" />
<path d="M 108.0 121.0 L 107.5 121.0 L 106.5 121.0 L 106.0 120.5 L 106.5 120.5 L 108.5 119.5 L 112.0 119.0 L 116.0 118.5 L 119.5 118.5 L 122.0 118.5 L 124.0 120.0 L 125.0 122.5 L 125.5 126.0 L 126.0 131.0 L 126.0 138.5 L 125.5 149.0 L 125.0 161.5 L 125.5 172.0 L 126.0 177.0 L 126.5 178.0 L 126.5 178.0 L 126.5 177.5 L 126.5 177.0 " stroke="black" fill="none" stroke-width="8.0" stroke-linecap="round" stroke-linejoin="round" />
<path d="M 106.0 150.5 L 105.5 151.5 L 105.0 152.0 L 105.0 152.5 L 107.5 152.5 L 111.5 152.0 L 115.5 150.0 L 118.5 148.5 L 120.0 148.0 L 120.5 148.0 " stroke="black" fill="none" stroke-width="8.0" stroke-linecap="round" stroke-linejoin="round" />
<path d="M 107.0 180.5 L 107.0 181.0 L 107.0 181.0 L 110.0 180.5 L 114.5 177.5 L 119.0 174.5 L 122.5 172.0 " stroke="black" fill="none" stroke-width="8.0" stroke-linecap="round" stroke-linejoin="round" />
<path d="M 145.0 125.5 L 145.0 125.0 L 144.5 124.5 L 144.5 124.5 L 144.5 125.0 L 146.0 128.5 L 147.0 135.5 L 147.5 142.5 L 147.5 145.5 L 148.0 144.5 L 148.0 143.5 " stroke="black" fill="none" stroke-width="8.0" stroke-linecap="round" stroke-linejoin="round" />
<path d="M 148.0 125.0 L 147.5 125.0 L 146.5 125.0 L 146.0 125.0 L 147.0 125.0 L 149.5 124.5 L 154.0 124.0 L 160.0 123.5 L 166.5 123.5 L 172.5 123.5 L 177.0 123.5 L 179.0 124.0 L 180.5 124.5 L 181.0 124.5 L 181.5 124.5 L 181.5 124.5 L 181.5 124.5 L 181.0 125.5 L 180.5 128.0 L 179.5 132.0 L 178.0 137.5 L 177.0 142.0 L 176.5 144.5 L 176.5 144.5 L 176.5 144.0 " stroke="black" fill="none" stroke-width="8.0" stroke-linecap="round" stroke-linejoin="round" />
<path d="M 136.0 148.5 L 136.0 148.5 L 136.0 148.5 L 136.5 148.5 L 138.5 148.5 L 146.0 148.0 L 160.0 146.5 L 173.0 145.5 L 182.5 145.5 L 188.0 146.5 L 189.0 146.5 L 188.5 146.5 L 188.0 146.5 " stroke="black" fill="none" stroke-width="8.0" stroke-linecap="round" stroke-linejoin="round" />
<path d="M 166.5 106.5 L 166.5 106.5 L 166.0 106.5 L 165.5 106.5 L 165.5 108.0 L 165.5 113.0 L 164.5 123.5 L 162.0 139.5 L 159.0 155.5 L 155.5 169.0 L 151.5 177.5 L 149.0 182.0 L 148.5 183.0 L 148.5 181.0 L 148.5 178.5 " stroke="black" fill="none" stroke-width="8.0" stroke-linecap="round" stroke-linejoin="round" />
<path d="M 164.0 159.0 L 163.5 160.0 L 163.0 161.0 L 164.0 163.5 L 168.5 168.0 L 177.5 175.5 L 187.5 184.0 L 193.5 190.0 L 195.0 192.0 L 195.5 192.0 " stroke="black" fill="none" stroke-width="8.0" stroke-linecap="round" stroke-linejoin="round" />
</svg>