<svg xmlns="http://www.w3.org/2000/svg" width="300" height="300" viewBox="0 0 300 300">
<path d="M 95.0 92.0 L 94.0 89.0 L 93.0 86.0 L 93.0 83.0 L 94.0 82.0 L 95.0 85.0 L 97.0 95.0 L 97.0 109.0 L 98.0 123.0 L 99.0 132.0 L 99.0 132.0 " stroke="black" fill="none" stroke-width="8.0" stroke-linecap="round" stroke-linejoin="round" />
<path d="M 98.0 78.0 L 93.0 80.0 L 92.0 80.0 L 92.0 80.0 L 95.0 81.0 L 100.0 81.0 L 109.0 81.0 L 124.0 81.0 L 146.0 81.0 L 169.0 81.0 L 189.0 78.0 L 198.0 76.0 L 201.0 77.0 L 201.0 79.0 L 201.0 81.0 L 201.0 84.0 L 202.0 88.0 L 203.0 93.0 L 203.0 99.0 L 203.0 107.0 L 203.0 117.0 L 203.0 124.0 L 201.0 130.0 L 200.0 131.0 L 199.0 131.0 " stroke="black" fill="none" stroke-width="8.0" stroke-linecap="round" stroke-linejoin="round" />
<path d="M 111.0 99.0 L 110.0 99.0 L 106.0 99.0 L 101.0 100.0 L 99.0 101.0 L 99.0 102.0 L 109.0 102.0 L 127.0 102.0 L 149.0 102.0 L 174.0 102.0 L 193.0 102.0 L 203.0 101.0 L 204.0 103.0 L 203.0 104.0 L 200.0 104.0 L 197.0 104.0 " stroke="black" fill="none" stroke-width="8.0" stroke-linecap="round" stroke-linejoin="round" />
<path d="M 108.0 135.0 L 106.0 135.0 L 103.0 135.0 L 102.0 135.0 L 101.0 135.0 L 108.0 135.0 L 124.0 134.0 L 147.0 133.0 L 173.0 132.0 L 189.0 131.0 L 195.0 130.0 L 195.0 130.0 " stroke="black" fill="none" stroke-width="8.0" stroke-linecap="round" stroke-linejoin="round" />
<path d="M 224.0 154.0 L 224.0 154.0 L 222.0 155.0 L 220.0 155.0 L 216.0 155.0 L 210.0 156.0 L 200.0 157.0 L 185.0 157.0 L 167.0 157.0 L 148.0 156.0 L 130.0 156.0 L 116.0 157.0 L 105.0 158.0 L 96.0 158.0 L 90.0 158.0 L 83.0 158.0 L 79.0 158.0 L 79.0 158.0 L 79.0 158.0 L 80.0 158.0 L 80.0 159.0 L 81.0 159.0 L 81.0 160.0 L 82.0 161.0 L 82.0 163.0 L 83.0 168.0 L 83.0 177.0 L 83.0 190.0 L 80.0 204.0 L 76.0 215.0 L 70.0 227.0 L 61.0 237.0 L 55.0 242.0 L 54.0 242.0 L 54.0 239.0 " stroke="black" fill="none" stroke-width="8.0" stroke-linecap="round" stroke-linejoin="round" />
<path d="M 151.0 161.0 L 151.0 162.0 L 151.0 164.0 L 151.0 165.0 L 151.0 168.0 L 150.0 174.0 L 146.0 186.0 L 134.0 203.0 L 119.0 221.0 L 107.0 234.0 L 101.0 239.0 L 101.0 239.0 L 101.0 236.0 " stroke="black" fill="none" stroke-width="8.0" stroke-linecap="round" stroke-linejoin="round" />
<path d="M 145.0 202.0 L 144.0 202.0 L 143.0 202.0 L 144.0 202.0 L 153.0 204.0 L 170.0 212.0 L 190.0 224.0 L 207.0 233.0 L 218.0 238.0 L 224.0 240.0 L 227.0 240.0 " stroke="black" fill="none" stroke-width="8.0" stroke-linecap="round" stroke-linejoin="round" />
</svg>