<svg xmlns="http://www.w3.org/2000/svg" width="300" height="300" viewBox="0 0 300 300">
<path d="M 128.0 134.0 L 128.0 134.0 L 128.5 134.0 L 129.0 134.5 L 129.0 134.5 L 129.0 135.5 L 129.5 138.5 L 130.0 146.0 L 130.0 156.5 L 130.0 165.0 L 130.0 168.0 L 130.5 166.5 L 130.5 161.0 " stroke="black" fill="none" stroke-width="6.0" stroke-linecap="round" stroke-linejoin="round" />
<path d="M 130.5 132.0 L 130.5 133.0 L 130.0 133.5 L 130.0 133.5 L 130.0 133.5 L 131.5 133.5 L 133.5 133.0 L 137.5 132.5 L 141.5 132.0 L 144.5 131.5 L 146.0 131.5 L 146.5 131.5 L 146.5 131.5 L 146.0 132.0 L 146.0 134.0 L 145.5 137.0 L 145.5 143.0 L 145.5 152.0 L 145.5 160.0 L 145.5 165.0 L 146.0 167.0 L 146.0 167.5 L 146.0 167.0 L 145.5 165.0 " stroke="black" fill="none" stroke-width="6.0" stroke-linecap="round" stroke-linejoin="round" />
<path d="M 135.0 150.5 L 134.5 150.5 L 133.5 150.5 L 133.5 150.5 L 134.0 150.5 L 136.0 150.5 L 139.5 150.5 L 142.0 150.5 L 144.5 150.0 L 145.0 149.5 " stroke="black" fill="none" stroke-width="6.0" stroke-linecap="round" stroke-linejoin="round" />
<path d="M 136.0 166.0 L 135.0 166.0 L 134.0 166.5 L 134.0 166.5 L 135.5 166.5 L 138.5 166.0 L 142.0 165.0 L 144.0 163.0 " stroke="black" fill="none" stroke-width="6.0" stroke-linecap="round" stroke-linejoin="round" />
<path d="M 164.5 109.5 L 164.5 110.0 L 164.5 110.0 L 164.0 110.0 L 164.0 110.5 L 164.0 111.0 L 165.0 112.5 L 166.5 114.5 L 167.5 116.5 L 168.0 117.5 " stroke="black" fill="none" stroke-width="6.0" stroke-linecap="round" stroke-linejoin="round" />
<path d="M 153.0 124.0 L 153.0 124.0 L 153.5 124.0 L 153.5 124.0 L 155.0 124.0 L 159.5 123.5 L 165.5 123.5 L 170.5 123.0 L 173.5 122.5 L 175.0 122.5 L 175.0 122.5 L 175.0 122.5 " stroke="black" fill="none" stroke-width="6.0" stroke-linecap="round" stroke-linejoin="round" />
<path d="M 158.5 133.5 L 158.5 133.5 L 157.5 134.5 L 157.5 134.5 L 157.5 134.5 L 158.5 135.0 L 160.5 136.5 L 162.5 139.0 L 164.5 141.0 L 165.0 141.5 " stroke="black" fill="none" stroke-width="6.0" stroke-linecap="round" stroke-linejoin="round" />
<path d="M 175.0 128.5 L 175.5 129.0 L 176.0 129.5 L 176.0 130.0 L 176.0 131.0 L 175.5 133.0 L 175.0 136.0 L 173.5 139.0 L 173.0 139.5 " stroke="black" fill="none" stroke-width="6.0" stroke-linecap="round" stroke-linejoin="round" />
<path d="M 158.0 149.0 L 158.0 149.0 L 157.5 149.0 L 157.0 148.5 L 158.0 148.5 L 162.0 148.0 L 168.5 147.5 L 175.5 147.0 L 182.0 146.5 L 185.5 146.5 L 185.5 146.5 " stroke="black" fill="none" stroke-width="6.0" stroke-linecap="round" stroke-linejoin="round" />
<path d="M 159.0 160.0 L 159.0 159.5 L 159.0 159.0 L 159.0 159.0 L 159.0 159.0 L 159.0 163.5 L 160.0 171.5 L 161.0 178.0 L 161.5 181.5 L 162.0 180.5 " stroke="black" fill="none" stroke-width="6.0" stroke-linecap="round" stroke-linejoin="round" />
<path d="M 162.5 158.0 L 162.0 158.0 L 161.5 158.0 L 161.0 158.0 L 161.0 158.0 L 164.0 158.0 L 168.0 157.5 L 174.0 157.0 L 180.5 156.5 L 184.5 156.5 L 185.0 156.5 L 185.0 157.0 L 184.5 157.5 L 184.0 158.5 L 184.0 160.5 L 183.5 164.0 L 183.0 169.0 L 183.0 173.5 L 183.0 177.5 L 182.5 178.5 L 182.5 178.5 L 182.5 177.5 " stroke="black" fill="none" stroke-width="6.0" stroke-linecap="round" stroke-linejoin="round" />
<path d="M 166.5 169.0 L 166.5 169.0 L 166.0 169.0 L 165.0 168.5 L 165.0 168.5 L 166.5 168.0 L 170.0 167.5 L 173.5 166.5 L 177.0 165.5 L 179.5 165.0 L 180.5 165.0 L 180.5 165.0 " stroke="black" fill="none" stroke-width="6.0" stroke-linecap="round" stroke-linejoin="round" />
<path d="M 166.0 180.0 L 166.0 180.0 L 165.5 180.0 L 165.5 180.5 L 166.5 180.5 L 169.5 180.0 L 174.0 179.0 L 178.0 178.5 L 180.5 177.5 L 181.0 177.5 " stroke="black" fill="none" stroke-width="6.0" stroke-linecap="round" stroke-linejoin="round" />
</svg>