<svg xmlns="http://www.w3.org/2000/svg" width="300" height="300" viewBox="0 0 300 300">
<path d="M 122.5 126.5 L 122.0 126.5 L 121.0 125.5 L 121.0 125.5 L 120.5 125.5 L 121.5 126.0 L 122.5 129.5 L 123.5 137.5 L 124.0 150.5 L 124.5 160.5 L 125.0 162.5 L 125.0 160.0 L 125.0 154.5 " stroke="black" fill="none" stroke-width="7.0" stroke-linecap="round" stroke-linejoin="round" />
<path d="M 123.5 126.0 L 123.0 126.0 L 121.0 126.0 L 120.5 126.0 L 120.5 126.0 L 122.0 126.0 L 124.5 126.0 L 128.0 126.0 L 134.0 126.0 L 144.5 125.5 L 159.0 124.0 L 171.0 123.0 L 177.5 123.0 L 181.5 124.0 L 183.5 124.0 L 184.0 124.0 L 184.0 124.0 L 184.0 124.0 L 184.0 124.0 L 184.5 124.0 L 184.5 124.0 L 184.5 124.0 L 184.5 124.0 L 184.5 124.0 L 184.5 124.0 L 185.0 124.5 L 185.0 124.5 L 185.0 124.5 L 185.0 124.5 L 185.0 125.0 L 184.5 126.5 L 184.0 129.5 L 182.5 137.0 L 181.0 147.0 L 180.0 156.5 L 180.0 165.0 L 181.0 170.0 L 182.0 170.5 L 182.0 166.5 L 182.0 165.0 " stroke="black" fill="none" stroke-width="7.0" stroke-linecap="round" stroke-linejoin="round" />
<path d="M 126.0 149.0 L 126.0 149.5 L 125.0 149.5 L 125.0 150.0 L 128.0 150.0 L 136.0 150.0 L 147.5 150.0 L 162.0 148.5 L 174.5 146.0 L 180.5 144.5 L 180.5 145.0 " stroke="black" fill="none" stroke-width="7.0" stroke-linecap="round" stroke-linejoin="round" />
<path d="M 140.0 102.5 L 140.0 102.0 L 140.0 101.5 L 140.0 101.0 L 140.0 100.5 L 140.0 100.5 L 140.0 101.0 L 141.0 104.5 L 141.5 114.5 L 141.5 133.0 L 141.5 151.0 L 141.0 158.5 L 141.0 162.0 L 141.5 162.5 L 142.0 161.0 L 142.5 158.5 " stroke="black" fill="none" stroke-width="7.0" stroke-linecap="round" stroke-linejoin="round" />
<path d="M 167.0 102.0 L 166.5 102.0 L 166.0 102.0 L 166.0 101.5 L 166.0 101.5 L 166.0 102.0 L 166.0 104.5 L 166.0 110.5 L 165.5 123.0 L 165.5 138.0 L 164.5 150.0 L 164.0 157.5 L 163.0 163.0 L 162.5 166.5 L 162.5 167.0 L 163.0 164.0 L 163.0 162.0 " stroke="black" fill="none" stroke-width="7.0" stroke-linecap="round" stroke-linejoin="round" />
<path d="M 126.5 170.0 L 126.0 170.0 L 125.0 170.0 L 125.0 170.0 L 126.0 170.0 L 127.5 170.0 L 130.5 169.5 L 135.5 169.5 L 144.0 169.0 L 155.5 169.0 L 167.5 168.5 L 176.0 168.0 L 181.0 168.0 L 182.5 168.0 L 182.5 168.5 L 181.5 169.0 L 180.5 168.5 " stroke="black" fill="none" stroke-width="7.0" stroke-linecap="round" stroke-linejoin="round" />
</svg>