<svg xmlns="http://www.w3.org/2000/svg" width="300" height="300" viewBox="0 0 300 300">
<path d="M 119.0 122.5 L 119.0 122.0 L 119.5 121.5 L 119.5 121.5 L 120.0 121.5 L 120.5 125.0 L 121.5 133.5 L 122.0 146.0 L 122.0 156.0 L 122.0 161.5 L 122.0 163.5 L 122.5 163.0 L 122.5 162.5 " stroke="black" fill="none" stroke-width="7.0" stroke-linecap="round" stroke-linejoin="round" />
<path d="M 121.5 121.5 L 120.0 122.0 L 119.5 122.0 L 119.5 122.0 L 120.5 122.5 L 124.5 122.5 L 128.5 122.5 L 133.0 122.0 L 136.5 121.5 L 138.5 121.0 L 139.0 120.5 L 139.0 120.5 L 139.0 122.0 L 138.5 125.5 L 138.0 133.0 L 138.0 143.5 L 138.0 153.0 L 138.5 159.5 L 139.0 162.0 L 139.0 163.0 L 139.0 162.5 L 138.0 160.5 " stroke="black" fill="none" stroke-width="7.0" stroke-linecap="round" stroke-linejoin="round" />
<path d="M 128.0 146.5 L 127.5 146.5 L 126.5 146.5 L 126.5 147.0 L 127.5 147.0 L 130.5 146.0 L 133.5 145.5 L 135.5 145.0 L 137.0 144.5 L 137.5 144.5 " stroke="black" fill="none" stroke-width="7.0" stroke-linecap="round" stroke-linejoin="round" />
<path d="M 126.0 168.0 L 125.0 168.0 L 124.5 168.5 L 124.5 168.5 L 126.5 168.0 L 129.5 167.0 L 133.0 165.5 L 134.5 164.5 " stroke="black" fill="none" stroke-width="7.0" stroke-linecap="round" stroke-linejoin="round" />
<path d="M 163.5 98.0 L 163.5 97.5 L 163.5 97.0 L 163.0 97.0 L 163.0 99.5 L 163.5 105.0 L 164.0 111.0 L 164.0 115.5 L 164.0 116.0 " stroke="black" fill="none" stroke-width="7.0" stroke-linecap="round" stroke-linejoin="round" />
<path d="M 148.5 105.0 L 148.5 104.5 L 148.5 104.0 L 148.5 104.0 L 148.5 104.0 L 148.5 105.5 L 149.0 108.5 L 149.5 112.5 L 150.0 117.0 L 150.0 120.5 L 151.0 122.0 L 152.5 122.5 L 155.0 122.5 L 159.0 121.5 L 163.0 120.5 L 166.5 119.5 L 169.5 119.0 L 172.0 119.0 L 174.0 119.0 L 175.5 119.0 " stroke="black" fill="none" stroke-width="7.0" stroke-linecap="round" stroke-linejoin="round" />
<path d="M 177.0 102.5 L 178.0 102.0 L 178.5 101.5 L 178.5 101.5 L 178.5 102.0 L 178.5 105.5 L 178.5 111.5 L 178.5 116.5 L 178.5 120.0 L 178.5 120.5 " stroke="black" fill="none" stroke-width="7.0" stroke-linecap="round" stroke-linejoin="round" />
<path d="M 150.5 137.5 L 150.0 137.0 L 149.5 137.0 L 149.5 137.0 L 150.0 136.5 L 152.5 136.0 L 157.0 135.5 L 163.0 135.0 L 169.0 135.0 L 173.0 135.5 L 174.5 135.5 L 175.0 135.5 L 174.0 135.0 " stroke="black" fill="none" stroke-width="7.0" stroke-linecap="round" stroke-linejoin="round" />
<path d="M 152.5 148.0 L 152.5 147.5 L 152.5 147.5 L 152.5 148.0 L 153.0 151.5 L 153.0 155.5 L 153.5 157.5 L 153.5 157.5 " stroke="black" fill="none" stroke-width="7.0" stroke-linecap="round" stroke-linejoin="round" />
<path d="M 155.0 147.0 L 155.0 147.0 L 154.5 147.0 L 154.0 147.0 L 154.0 147.0 L 156.0 147.0 L 160.0 146.5 L 165.5 146.0 L 171.5 145.5 L 176.0 145.5 L 178.0 145.5 L 178.0 146.0 L 178.0 146.0 L 177.5 146.5 L 177.0 147.5 L 176.5 149.5 L 176.0 152.0 L 175.0 155.0 L 174.5 157.0 L 174.0 158.5 L 174.0 159.0 " stroke="black" fill="none" stroke-width="7.0" stroke-linecap="round" stroke-linejoin="round" />
<path d="M 158.5 160.5 L 158.5 160.5 L 158.0 161.0 L 158.0 161.5 L 158.0 161.5 L 159.5 161.5 L 162.5 161.0 L 166.5 160.5 L 170.0 160.0 L 172.5 160.0 L 173.0 160.0 " stroke="black" fill="none" stroke-width="7.0" stroke-linecap="round" stroke-linejoin="round" />
<path d="M 155.0 170.5 L 155.0 170.5 L 155.0 170.0 L 155.5 170.0 L 155.5 170.0 L 156.0 171.0 L 156.5 174.5 L 157.5 178.5 L 159.0 181.0 L 159.5 181.0 " stroke="black" fill="none" stroke-width="7.0" stroke-linecap="round" stroke-linejoin="round" />
<path d="M 173.5 170.0 L 173.5 170.0 L 173.5 170.5 L 173.0 171.0 L 173.0 172.0 L 172.5 173.5 L 172.0 177.0 L 171.5 180.5 L 171.0 182.0 " stroke="black" fill="none" stroke-width="7.0" stroke-linecap="round" stroke-linejoin="round" />
<path d="M 145.0 192.0 L 145.0 192.0 L 143.5 192.0 L 143.0 192.0 L 144.5 191.5 L 149.5 190.0 L 157.0 188.5 L 166.5 187.5 L 175.5 187.5 L 183.0 188.0 L 186.5 188.5 L 187.5 188.5 L 187.5 189.0 " stroke="black" fill="none" stroke-width="7.0" stroke-linecap="round" stroke-linejoin="round" />
</svg>