<svg xmlns="http://www.w3.org/2000/svg" width="300" height="300" viewBox="0 0 300 300">
<path d="M 139.0 108.0 L 139.0 107.5 L 139.0 107.0 L 139.5 107.0 L 139.5 107.0 L 139.0 107.5 L 137.0 111.0 L 134.0 116.0 L 130.5 122.0 L 128.5 125.5 L 128.0 126.5 " stroke="black" fill="none" stroke-width="6.0" stroke-linecap="round" stroke-linejoin="round" />
<path d="M 137.0 116.0 L 137.0 116.5 L 137.5 117.5 L 138.0 117.5 L 141.5 117.5 L 147.5 116.5 L 155.0 114.0 L 160.5 112.0 L 163.0 111.5 " stroke="black" fill="none" stroke-width="6.0" stroke-linecap="round" stroke-linejoin="round" />
<path d="M 122.5 148.0 L 123.5 148.0 L 125.5 147.0 L 132.5 144.5 L 144.5 141.0 L 156.5 138.0 L 165.5 136.5 L 171.0 136.0 L 172.5 136.0 " stroke="black" fill="none" stroke-width="6.0" stroke-linecap="round" stroke-linejoin="round" />
<path d="M 151.5 100.0 L 152.5 99.0 L 152.5 99.0 L 153.0 99.5 L 153.0 103.5 L 153.5 111.5 L 152.5 125.0 L 151.0 141.5 L 149.0 158.5 L 149.0 172.0 L 149.0 182.5 L 149.0 188.5 L 149.0 189.0 L 149.0 188.5 " stroke="black" fill="none" stroke-width="6.0" stroke-linecap="round" stroke-linejoin="round" />
<path d="M 148.5 146.0 L 148.5 145.5 L 148.0 145.0 L 147.0 146.0 L 143.5 150.5 L 137.0 159.0 L 131.0 167.0 L 129.0 170.0 L 129.5 169.5 L 130.0 168.5 " stroke="black" fill="none" stroke-width="6.0" stroke-linecap="round" stroke-linejoin="round" />
<path d="M 154.0 149.0 L 154.5 149.0 L 155.0 149.5 L 156.0 150.5 L 159.0 152.0 L 165.5 155.5 L 173.0 159.0 L 177.5 163.0 " stroke="black" fill="none" stroke-width="6.0" stroke-linecap="round" stroke-linejoin="round" />
</svg>