<svg xmlns="http://www.w3.org/2000/svg" width="300" height="300" viewBox="0 0 300 300">
<path d="M 125.55555555555556 113.8888888888889 L 125.55555555555556 113.8888888888889 L 125.55555555555556 113.8888888888889 L 126.1111111111111 114.44444444444444 L 131.66666666666669 114.44444444444444 L 143.8888888888889 112.77777777777779 L 157.7777777777778 110.55555555555556 L 168.8888888888889 109.44444444444444 L 175.55555555555557 109.44444444444444 L 177.22222222222223 110.0 L 177.7777777777778 110.0 L 177.7777777777778 110.0 L 178.33333333333334 109.44444444444444 " stroke="black" fill="none" stroke-width="7.0" stroke-linecap="round" stroke-linejoin="round" />
<path d="M 150.55555555555557 96.66666666666667 L 150.55555555555557 96.66666666666667 L 150.00000000000003 95.55555555555556 L 150.00000000000003 95.55555555555556 L 150.00000000000003 95.55555555555556 L 150.00000000000003 100.0 L 150.00000000000003 110.0 L 150.00000000000003 126.1111111111111 L 150.55555555555557 140.00000000000003 L 151.11111111111111 143.8888888888889 L 151.66666666666669 142.7777777777778 L 151.66666666666669 142.22222222222223 " stroke="black" fill="none" stroke-width="7.0" stroke-linecap="round" stroke-linejoin="round" />
<path d="M 147.7777777777778 118.33333333333333 L 147.22222222222223 118.33333333333333 L 146.11111111111111 117.77777777777779 L 145.00000000000003 118.33333333333333 L 142.7777777777778 123.33333333333333 L 135.00000000000003 133.33333333333334 L 125.55555555555556 143.8888888888889 L 122.22222222222221 147.22222222222223 L 122.22222222222221 146.66666666666669 " stroke="black" fill="none" stroke-width="7.0" stroke-linecap="round" stroke-linejoin="round" />
<path d="M 155.55555555555557 123.33333333333333 L 155.55555555555557 123.33333333333333 L 155.00000000000003 123.33333333333333 L 155.55555555555557 124.44444444444444 L 162.22222222222223 127.77777777777779 L 172.22222222222223 132.22222222222223 L 180.55555555555557 134.44444444444446 L 181.66666666666669 134.44444444444446 " stroke="black" fill="none" stroke-width="7.0" stroke-linecap="round" stroke-linejoin="round" />
<path d="M 130.55555555555557 154.44444444444446 L 130.55555555555557 154.44444444444446 L 130.55555555555557 156.11111111111111 L 130.55555555555557 160.00000000000003 L 131.11111111111111 170.00000000000003 L 132.7777777777778 181.66666666666669 L 133.8888888888889 187.22222222222223 L 134.44444444444446 187.22222222222223 " stroke="black" fill="none" stroke-width="7.0" stroke-linecap="round" stroke-linejoin="round" />
<path d="M 131.66666666666669 157.7777777777778 L 132.7777777777778 158.8888888888889 L 133.33333333333334 159.44444444444446 L 135.55555555555557 160.00000000000003 L 141.11111111111111 159.44444444444446 L 150.55555555555557 157.22222222222223 L 163.33333333333334 155.00000000000003 L 173.8888888888889 153.33333333333334 L 177.22222222222223 153.8888888888889 L 176.11111111111114 155.55555555555557 L 173.33333333333334 158.33333333333334 L 171.11111111111114 162.7777777777778 L 170.55555555555557 167.7777777777778 L 170.55555555555557 173.33333333333334 L 171.11111111111114 179.44444444444446 L 172.7777777777778 183.33333333333334 L 173.33333333333334 184.44444444444446 " stroke="black" fill="none" stroke-width="7.0" stroke-linecap="round" stroke-linejoin="round" />
<path d="M 133.33333333333334 177.7777777777778 L 133.33333333333334 177.7777777777778 L 134.44444444444446 178.33333333333334 L 136.11111111111111 178.33333333333334 L 141.11111111111111 176.66666666666669 L 149.44444444444446 175.55555555555557 L 159.44444444444446 175.00000000000003 L 167.7777777777778 175.00000000000003 L 170.55555555555557 174.44444444444446 " stroke="black" fill="none" stroke-width="7.0" stroke-linecap="round" stroke-linejoin="round" />
<path d="M 135.55555555555557 194.44444444444446 L 135.55555555555557 194.44444444444446 L 136.11111111111111 194.44444444444446 L 139.44444444444446 193.8888888888889 L 151.11111111111111 191.66666666666669 L 163.8888888888889 190.00000000000003 " stroke="black" fill="none" stroke-width="7.0" stroke-linecap="round" stroke-linejoin="round" />
</svg>