<svg xmlns="http://www.w3.org/2000/svg" width="300" height="300" viewBox="0 0 300 300">
<path d="M 117.5 129.5 L 117.5 129.5 L 116.5 130.5 L 116.0 131.0 L 116.5 131.0 L 118.5 130.5 L 121.5 129.5 L 126.0 129.0 L 131.0 128.0 L 136.0 128.0 L 140.5 128.0 L 142.5 129.0 L 143.0 129.0 L 143.0 129.0 L 143.0 129.0 L 143.0 128.5 " stroke="black" fill="none" stroke-width="7.0" stroke-linecap="round" stroke-linejoin="round" />
<path d="M 130.5 111.0 L 130.5 111.0 L 130.5 111.0 L 130.5 111.0 L 130.5 111.0 L 130.5 112.0 L 130.5 115.0 L 130.5 122.5 L 130.0 135.5 L 129.0 149.0 L 128.0 160.5 L 128.0 170.0 L 129.0 177.0 L 129.5 182.0 L 130.0 185.0 L 130.0 186.0 L 130.0 186.5 L 130.0 186.5 L 129.0 185.0 L 129.0 183.5 " stroke="black" fill="none" stroke-width="7.0" stroke-linecap="round" stroke-linejoin="round" />
<path d="M 122.5 140.0 L 122.5 139.5 L 122.5 137.5 L 122.5 136.5 L 122.5 136.0 L 122.5 136.0 L 123.0 136.0 L 123.0 137.0 L 123.0 140.0 L 121.5 145.5 L 119.0 152.5 L 115.5 158.5 L 114.0 160.5 L 114.0 160.0 L 114.5 158.0 " stroke="black" fill="none" stroke-width="7.0" stroke-linecap="round" stroke-linejoin="round" />
<path d="M 130.5 143.5 L 131.0 143.0 L 132.0 142.5 L 133.5 142.5 L 135.0 144.0 L 137.0 146.5 L 138.5 148.5 L 139.0 149.0 " stroke="black" fill="none" stroke-width="7.0" stroke-linecap="round" stroke-linejoin="round" />
<path d="M 153.5 148.5 L 153.0 149.0 L 152.5 149.0 L 153.0 149.0 L 155.0 148.5 L 157.5 147.5 L 160.0 146.5 L 161.5 145.5 L 162.0 145.0 " stroke="black" fill="none" stroke-width="7.0" stroke-linecap="round" stroke-linejoin="round" />
<path d="M 152.5 118.5 L 152.0 117.5 L 151.5 117.0 L 151.5 116.5 L 151.5 118.5 L 151.5 123.0 L 151.5 129.5 L 151.5 139.0 L 150.5 150.5 L 149.5 161.0 L 148.5 168.5 L 148.0 173.0 L 148.0 174.5 L 148.5 174.5 L 150.5 173.5 L 153.0 172.0 L 156.0 169.0 L 158.5 166.0 L 160.5 164.0 L 161.5 162.5 " stroke="black" fill="none" stroke-width="7.0" stroke-linecap="round" stroke-linejoin="round" />
<path d="M 175.0 146.0 L 174.5 146.0 L 173.5 146.0 L 173.5 146.0 L 173.5 145.5 L 175.5 145.0 L 178.0 144.5 L 180.0 144.0 L 182.0 143.5 L 182.0 143.5 " stroke="black" fill="none" stroke-width="7.0" stroke-linecap="round" stroke-linejoin="round" />
<path d="M 172.5 119.5 L 172.0 119.0 L 171.5 118.5 L 171.0 118.5 L 171.0 119.5 L 171.5 122.5 L 171.5 127.5 L 171.5 135.0 L 171.0 145.0 L 170.0 154.5 L 169.0 162.0 L 169.0 167.5 L 169.5 170.5 L 171.0 172.0 L 172.5 172.5 L 174.5 172.0 L 177.0 171.5 L 179.5 170.5 L 182.0 169.5 L 184.5 168.5 L 186.0 167.5 L 186.5 166.0 L 187.0 164.5 L 187.0 162.5 L 186.0 161.5 L 185.5 160.5 L 185.0 160.0 L 185.0 160.0 " stroke="black" fill="none" stroke-width="7.0" stroke-linecap="round" stroke-linejoin="round" />
</svg>