<svg xmlns="http://www.w3.org/2000/svg" width="300" height="300" viewBox="0 0 300 300">
<path d="M 104.0 128.0 L 103.5 128.0 L 103.0 128.0 L 103.5 128.0 L 109.0 127.0 L 118.5 126.5 L 128.5 126.0 L 135.5 125.5 L 139.0 124.5 L 139.0 124.5 L 138.5 124.5 " stroke="black" fill="none" stroke-width="8.0" stroke-linecap="round" stroke-linejoin="round" />
<path d="M 121.0 106.0 L 120.5 106.0 L 120.0 106.0 L 120.0 106.0 L 120.0 106.5 L 120.0 112.0 L 121.5 127.5 L 123.0 154.0 L 124.5 182.0 L 125.5 197.5 L 126.5 203.0 L 127.0 205.0 L 127.0 204.0 " stroke="black" fill="none" stroke-width="8.0" stroke-linecap="round" stroke-linejoin="round" />
<path d="M 116.5 134.5 L 117.0 133.5 L 118.0 132.5 L 118.5 132.0 L 118.5 132.0 L 118.5 133.5 L 116.0 140.0 L 110.0 152.5 L 103.5 169.0 L 101.0 176.5 L 100.5 176.5 L 100.5 173.5 " stroke="black" fill="none" stroke-width="8.0" stroke-linecap="round" stroke-linejoin="round" />
<path d="M 124.5 138.0 L 124.0 138.0 L 124.5 138.0 L 126.5 140.0 L 131.5 145.5 L 137.5 153.0 L 141.5 157.5 L 142.5 158.0 " stroke="black" fill="none" stroke-width="8.0" stroke-linecap="round" stroke-linejoin="round" />
<path d="M 172.0 104.0 L 171.5 103.0 L 171.5 103.0 L 171.0 104.5 L 169.0 111.5 L 158.0 138.5 L 156.0 144.0 L 156.0 144.5 " stroke="black" fill="none" stroke-width="8.0" stroke-linecap="round" stroke-linejoin="round" />
<path d="M 188.0 107.5 L 187.5 107.5 L 186.0 107.5 L 186.0 107.5 L 188.0 108.5 L 192.0 112.0 L 196.5 117.5 L 200.0 122.5 L 202.0 125.5 L 202.5 126.0 " stroke="black" fill="none" stroke-width="8.0" stroke-linecap="round" stroke-linejoin="round" />
<path d="M 178.5 129.0 L 178.5 129.0 L 179.0 128.5 L 179.0 128.5 L 179.5 129.0 L 179.0 133.5 L 175.5 144.0 L 170.5 158.5 L 165.5 172.0 L 162.0 179.0 L 161.5 180.0 L 161.5 179.5 L 162.5 179.0 L 163.5 178.0 L 164.5 177.0 L 166.5 176.0 L 169.0 175.0 L 173.0 174.0 L 179.0 173.0 L 185.0 172.0 L 189.5 171.5 L 192.0 171.5 L 193.0 172.0 L 194.0 172.5 " stroke="black" fill="none" stroke-width="8.0" stroke-linecap="round" stroke-linejoin="round" />
<path d="M 194.0 156.5 L 193.5 156.5 L 193.0 155.5 L 193.0 155.0 L 193.0 155.5 L 195.5 160.0 L 199.0 169.0 L 202.0 179.0 L 203.5 183.0 L 204.5 184.0 " stroke="black" fill="none" stroke-width="8.0" stroke-linecap="round" stroke-linejoin="round" />
</svg>