<svg xmlns="http://www.w3.org/2000/svg" width="300" height="300" viewBox="0 0 300 300">
<path d="M 126.5 99.5 L 126.5 99.5 L 126.0 100.0 L 126.0 100.5 L 130.0 101.0 L 140.5 100.0 L 154.5 97.0 L 168.0 95.5 L 175.0 95.5 L 177.5 96.5 L 176.5 97.0 " stroke="black" fill="none" stroke-width="8.0" stroke-linecap="round" stroke-linejoin="round" />
<path d="M 126.5 118.5 L 126.0 118.5 L 125.0 118.5 L 124.5 119.0 L 125.5 122.5 L 127.0 129.0 L 128.5 134.5 L 130.0 137.0 L 130.5 137.5 " stroke="black" fill="none" stroke-width="8.0" stroke-linecap="round" stroke-linejoin="round" />
<path d="M 128.0 118.5 L 126.0 118.0 L 125.0 117.5 L 125.0 117.0 L 129.5 116.5 L 138.5 114.5 L 151.0 112.0 L 165.5 111.0 L 175.0 112.0 L 179.5 115.0 L 180.0 118.5 L 179.0 121.5 L 177.0 125.0 L 175.0 129.0 L 174.5 130.5 L 174.0 132.5 L 173.5 134.0 L 173.5 134.5 " stroke="black" fill="none" stroke-width="8.0" stroke-linecap="round" stroke-linejoin="round" />
<path d="M 141.5 129.0 L 139.5 128.5 L 136.5 127.5 L 135.0 127.0 L 135.5 126.5 L 138.5 126.5 L 144.0 125.5 L 151.5 124.0 L 161.0 122.5 L 169.0 122.5 L 171.0 123.5 " stroke="black" fill="none" stroke-width="8.0" stroke-linecap="round" stroke-linejoin="round" />
<path d="M 132.5 145.0 L 133.0 145.0 L 133.5 145.0 L 134.5 144.5 L 137.0 144.5 L 144.5 142.5 L 155.5 139.5 L 166.5 137.0 L 172.0 135.5 " stroke="black" fill="none" stroke-width="8.0" stroke-linecap="round" stroke-linejoin="round" />
<path d="M 150.0 87.0 L 150.0 87.5 L 149.5 88.0 L 149.5 90.5 L 151.5 99.0 L 154.5 119.5 L 155.5 143.5 L 155.5 163.0 L 156.0 177.5 L 157.5 187.0 L 158.5 192.0 L 159.0 194.0 L 159.5 194.5 L 160.0 193.5 " stroke="black" fill="none" stroke-width="8.0" stroke-linecap="round" stroke-linejoin="round" />
<path d="M 151.0 146.0 L 151.0 146.0 L 151.0 145.5 L 151.0 145.0 L 149.0 148.5 L 144.5 156.5 L 136.5 168.0 L 131.0 174.0 L 129.0 175.0 L 130.0 173.0 L 131.5 171.5 " stroke="black" fill="none" stroke-width="8.0" stroke-linecap="round" stroke-linejoin="round" />
<path d="M 162.0 152.0 L 162.5 152.0 L 162.5 152.0 L 163.0 152.5 L 168.0 155.0 L 177.5 160.5 L 189.5 165.0 L 197.5 167.0 L 200.0 168.0 " stroke="black" fill="none" stroke-width="8.0" stroke-linecap="round" stroke-linejoin="round" />
</svg>