<svg xmlns="http://www.w3.org/2000/svg" width="300" height="300" viewBox="0 0 300 300">
<path d="M 141.5 107.5 L 141.5 107.5 L 140.5 107.5 L 140.0 107.5 L 139.5 107.5 L 139.5 107.5 L 141.0 107.5 L 145.5 107.5 L 152.0 107.5 L 158.5 107.5 L 164.5 107.5 L 168.5 107.5 L 170.5 107.5 L 171.5 107.5 L 172.0 107.5 L 172.0 107.0 L 172.0 107.0 L 172.0 107.0 L 171.5 107.0 L 171.5 107.0 L 171.5 107.0 L 171.0 107.5 L 170.5 108.5 L 169.5 109.5 L 168.0 111.5 L 167.0 113.5 L 166.0 115.5 L 165.0 117.0 L 165.0 117.5 " stroke="black" fill="none" stroke-width="6.0" stroke-linecap="round" stroke-linejoin="round" />
<path d="M 154.0 118.0 L 154.0 117.5 L 154.0 117.0 L 154.0 116.5 L 154.5 116.5 L 156.5 117.0 L 161.0 118.5 L 166.0 120.0 L 169.5 121.0 L 171.0 121.5 L 171.5 122.5 " stroke="black" fill="none" stroke-width="6.0" stroke-linecap="round" stroke-linejoin="round" />
<path d="M 136.0 128.0 L 136.0 128.5 L 135.5 129.0 L 135.5 129.5 L 136.5 129.5 L 139.5 129.0 L 144.5 128.5 L 152.5 127.5 L 162.0 126.5 L 171.5 126.0 L 178.0 126.0 L 181.5 127.0 L 182.5 127.5 L 182.5 127.5 L 182.5 127.5 L 182.5 127.5 L 183.0 127.5 L 183.0 127.5 L 183.5 127.5 L 183.5 127.5 L 183.5 127.5 L 183.5 127.5 L 183.5 127.5 L 183.5 127.5 L 183.5 127.5 L 183.5 127.5 L 183.5 127.0 L 183.5 127.0 L 183.5 127.0 L 183.5 127.0 L 183.5 127.0 L 183.5 127.0 L 183.5 127.0 L 183.5 127.0 L 184.0 127.0 L 184.0 127.0 L 184.0 127.0 L 184.0 127.0 L 184.0 127.0 L 184.0 127.0 L 184.5 127.0 L 184.5 127.0 L 184.5 127.0 L 184.5 127.0 L 184.5 127.0 L 184.5 127.0 L 184.5 127.0 L 184.5 127.0 L 184.5 127.0 L 184.5 127.5 L 183.5 129.0 L 182.5 131.0 L 181.0 134.0 L 180.0 136.5 L 179.0 138.0 L 178.5 138.5 " stroke="black" fill="none" stroke-width="6.0" stroke-linecap="round" stroke-linejoin="round" />
<path d="M 160.0 128.0 L 160.0 128.0 L 160.0 128.0 L 160.0 128.0 L 160.0 127.5 L 160.0 127.5 L 160.0 128.0 L 160.5 131.5 L 161.5 138.0 L 162.0 145.0 L 162.0 150.0 L 162.0 151.0 L 161.5 151.0 L 160.0 151.0 L 158.0 150.0 L 156.0 149.0 L 155.5 148.5 " stroke="black" fill="none" stroke-width="6.0" stroke-linecap="round" stroke-linejoin="round" />
<path d="M 158.0 129.0 L 158.5 129.0 L 159.0 129.5 L 159.5 129.5 L 159.5 129.5 L 158.5 130.5 L 154.5 135.0 L 148.0 142.5 L 143.0 147.5 L 142.0 148.0 L 142.0 148.0 " stroke="black" fill="none" stroke-width="6.0" stroke-linecap="round" stroke-linejoin="round" />
<path d="M 139.0 164.5 L 139.0 164.5 L 139.0 164.5 L 139.5 164.5 L 139.5 164.5 L 141.0 164.5 L 143.5 164.0 L 149.0 164.0 L 157.0 164.0 L 167.0 163.0 L 175.5 161.5 L 181.0 160.5 L 184.0 160.5 L 186.0 161.0 L 186.5 161.0 L 186.5 161.0 L 185.5 161.0 L 184.5 161.0 " stroke="black" fill="none" stroke-width="6.0" stroke-linecap="round" stroke-linejoin="round" />
<path d="M 159.5 158.0 L 159.5 158.0 L 159.5 158.0 L 159.5 158.0 L 159.5 158.0 L 160.0 158.0 L 160.0 159.5 L 161.0 164.0 L 161.5 172.5 L 162.0 182.5 L 162.5 189.0 L 162.5 189.5 L 163.0 188.5 " stroke="black" fill="none" stroke-width="6.0" stroke-linecap="round" stroke-linejoin="round" />
<path d="M 154.0 172.5 L 154.5 172.5 L 154.5 173.0 L 153.0 174.0 L 149.0 177.5 L 144.5 182.0 L 141.5 185.5 L 141.0 186.5 L 141.0 186.5 " stroke="black" fill="none" stroke-width="6.0" stroke-linecap="round" stroke-linejoin="round" />
<path d="M 173.0 172.5 L 173.0 173.5 L 173.0 173.5 L 174.5 174.0 L 178.5 175.0 L 184.0 177.5 L 189.0 180.5 L 192.0 182.5 " stroke="black" fill="none" stroke-width="6.0" stroke-linecap="round" stroke-linejoin="round" />
</svg>