<svg xmlns="http://www.w3.org/2000/svg" width="300" height="300" viewBox="0 0 300 300">
<path d="M 148.0 86.5 L 147.5 86.5 L 147.0 86.0 L 147.0 86.0 L 147.5 87.5 L 149.0 92.0 L 150.0 97.5 L 150.5 101.0 L 150.5 103.0 " stroke="black" fill="none" stroke-width="10.0" stroke-linecap="round" stroke-linejoin="round" />
<path d="M 111.0 98.5 L 110.0 98.5 L 109.5 99.0 L 110.0 100.0 L 113.5 102.0 L 119.0 103.0 L 126.5 103.0 " stroke="black" fill="none" stroke-width="10.0" stroke-linecap="round" stroke-linejoin="round" />
<path d="M 183.5 90.0 L 183.5 90.5 L 183.5 90.5 L 183.5 91.0 L 183.0 91.5 L 181.0 95.0 L 176.5 100.5 L 173.5 105.0 L 173.0 106.0 " stroke="black" fill="none" stroke-width="10.0" stroke-linecap="round" stroke-linejoin="round" />
<path d="M 112.0 120.5 L 112.0 120.0 L 113.0 119.5 L 113.5 119.5 L 113.5 121.0 L 112.5 124.5 L 111.5 129.0 L 110.0 132.5 L 109.5 134.0 L 109.5 134.0 " stroke="black" fill="none" stroke-width="10.0" stroke-linecap="round" stroke-linejoin="round" />
<path d="M 115.0 121.0 L 115.0 121.0 L 115.0 121.0 L 116.0 121.0 L 121.0 120.5 L 133.5 118.5 L 149.5 117.0 L 164.5 117.0 L 177.5 117.0 L 188.0 117.0 L 196.0 117.0 L 199.5 117.5 L 200.0 118.0 L 199.5 118.0 L 199.0 118.5 L 197.5 120.0 L 196.0 122.5 L 194.5 126.0 L 193.0 130.0 L 192.5 132.5 L 192.5 135.0 L 192.5 135.0 " stroke="black" fill="none" stroke-width="10.0" stroke-linecap="round" stroke-linejoin="round" />
<path d="M 137.0 137.0 L 137.0 137.0 L 137.5 137.0 L 137.5 137.5 L 138.0 140.5 L 138.5 147.5 L 139.5 153.0 L 140.0 155.0 L 140.5 154.5 " stroke="black" fill="none" stroke-width="10.0" stroke-linecap="round" stroke-linejoin="round" />
<path d="M 139.5 141.0 L 138.5 141.0 L 137.5 141.0 L 138.0 140.0 L 143.5 138.5 L 152.0 136.0 L 163.0 134.0 L 171.5 134.0 L 176.5 136.0 L 178.0 140.5 L 176.5 145.5 L 174.0 150.5 L 172.5 153.0 L 172.0 153.5 L 171.5 153.0 L 171.5 153.0 " stroke="black" fill="none" stroke-width="10.0" stroke-linecap="round" stroke-linejoin="round" />
<path d="M 147.0 158.5 L 146.5 158.5 L 145.0 159.0 L 145.0 159.5 L 147.0 159.5 L 153.5 158.0 L 162.0 157.0 L 170.5 156.0 L 174.0 156.0 " stroke="black" fill="none" stroke-width="10.0" stroke-linecap="round" stroke-linejoin="round" />
<path d="M 121.0 183.5 L 121.0 183.0 L 121.5 182.0 L 122.5 182.0 L 126.5 181.5 L 135.0 181.5 L 150.0 180.5 L 166.0 178.5 L 180.0 178.5 L 190.0 179.0 L 196.5 180.0 L 199.0 180.5 " stroke="black" fill="none" stroke-width="10.0" stroke-linecap="round" stroke-linejoin="round" />
<path d="M 156.0 166.0 L 156.5 166.0 L 156.5 166.5 L 156.5 168.5 L 157.0 174.5 L 157.0 186.5 L 158.0 200.5 L 159.0 211.5 L 159.0 217.0 L 159.0 220.0 L 158.0 220.5 L 157.5 219.5 " stroke="black" fill="none" stroke-width="10.0" stroke-linecap="round" stroke-linejoin="round" />
<path d="M 140.5 198.5 L 140.5 199.0 L 138.5 201.5 L 133.0 207.0 L 126.0 213.0 L 122.5 216.0 L 122.0 216.0 " stroke="black" fill="none" stroke-width="10.0" stroke-linecap="round" stroke-linejoin="round" />
<path d="M 178.5 202.0 L 179.0 201.5 L 180.0 201.5 L 183.5 203.5 L 190.5 208.5 L 195.0 212.0 " stroke="black" fill="none" stroke-width="10.0" stroke-linecap="round" stroke-linejoin="round" />
</svg>