<svg xmlns="http://www.w3.org/2000/svg" width="300" height="300" viewBox="0 0 300 300">
<path d="M 115.0 125.5 L 114.0 125.5 L 113.0 125.5 L 112.5 125.5 L 113.5 125.5 L 118.0 125.5 L 124.5 124.5 L 131.0 123.5 L 135.5 122.5 L 137.5 122.5 L 137.5 123.0 L 136.0 123.5 " stroke="black" fill="none" stroke-width="6.0" stroke-linecap="round" stroke-linejoin="round" />
<path d="M 127.5 113.0 L 126.5 113.0 L 126.0 113.0 L 126.0 113.5 L 126.0 116.5 L 126.5 125.0 L 126.5 138.0 L 125.5 151.5 L 124.5 163.0 L 123.5 173.5 L 123.5 180.0 L 123.5 182.0 L 124.0 182.0 L 124.0 178.0 L 124.0 176.5 " stroke="black" fill="none" stroke-width="6.0" stroke-linecap="round" stroke-linejoin="round" />
<path d="M 127.0 128.0 L 126.5 128.0 L 126.0 128.0 L 125.5 128.0 L 125.0 129.0 L 122.0 134.0 L 116.5 144.0 L 111.0 152.5 L 108.0 156.0 L 108.0 156.5 L 108.0 156.0 " stroke="black" fill="none" stroke-width="6.0" stroke-linecap="round" stroke-linejoin="round" />
<path d="M 129.0 134.0 L 129.0 134.5 L 129.0 135.5 L 130.0 136.0 L 133.0 138.0 L 137.0 140.0 L 141.0 142.0 L 144.0 143.0 " stroke="black" fill="none" stroke-width="6.0" stroke-linecap="round" stroke-linejoin="round" />
<path d="M 167.0 116.0 L 167.5 116.0 L 168.5 116.0 L 169.0 115.5 L 169.0 115.5 L 168.0 116.0 L 163.0 119.5 L 155.5 124.5 L 149.5 128.5 L 147.0 130.0 L 147.0 130.0 L 147.5 129.5 " stroke="black" fill="none" stroke-width="6.0" stroke-linecap="round" stroke-linejoin="round" />
<path d="M 156.0 114.5 L 156.0 114.5 L 155.5 114.5 L 155.5 114.0 L 155.5 114.5 L 155.5 118.0 L 156.0 124.0 L 158.5 131.5 L 164.0 138.0 L 171.0 140.5 L 177.5 141.0 L 182.5 140.5 L 184.0 139.5 L 184.5 138.5 L 184.5 136.5 L 184.0 134.5 L 183.0 133.0 L 182.5 132.5 " stroke="black" fill="none" stroke-width="6.0" stroke-linecap="round" stroke-linejoin="round" />
<path d="M 171.0 128.5 L 171.0 128.5 L 171.0 128.5 L 170.5 128.5 L 170.0 128.5 L 168.0 132.0 L 162.5 139.0 L 157.5 145.0 L 156.0 146.5 L 155.5 146.5 " stroke="black" fill="none" stroke-width="6.0" stroke-linecap="round" stroke-linejoin="round" />
<path d="M 179.5 111.5 L 180.0 112.0 L 180.5 112.0 L 181.5 112.5 L 183.0 113.0 L 184.5 115.0 L 186.0 117.0 " stroke="black" fill="none" stroke-width="6.0" stroke-linecap="round" stroke-linejoin="round" />
<path d="M 153.5 157.0 L 153.5 157.0 L 154.5 157.5 L 155.5 157.5 L 155.5 157.5 L 154.5 158.5 L 150.5 162.0 L 143.5 167.5 L 137.5 171.5 L 135.0 173.0 L 135.5 172.5 " stroke="black" fill="none" stroke-width="6.0" stroke-linecap="round" stroke-linejoin="round" />
<path d="M 141.5 158.0 L 140.5 158.5 L 139.5 159.0 L 139.5 160.0 L 141.5 163.5 L 144.5 168.0 L 148.5 173.5 L 155.0 177.5 L 163.0 179.5 L 170.5 179.5 L 176.5 179.0 L 179.0 178.0 L 179.5 177.5 L 179.0 176.0 L 179.0 174.0 L 178.5 171.5 L 178.0 170.0 L 177.5 169.0 L 176.5 169.0 L 176.0 169.5 " stroke="black" fill="none" stroke-width="6.0" stroke-linecap="round" stroke-linejoin="round" />
<path d="M 161.5 170.0 L 162.5 169.0 L 163.0 168.0 L 163.0 167.5 L 163.0 168.0 L 160.0 171.5 L 154.5 177.5 L 148.5 183.0 L 145.0 186.0 L 144.5 186.0 L 145.0 185.5 " stroke="black" fill="none" stroke-width="6.0" stroke-linecap="round" stroke-linejoin="round" />
<path d="M 172.0 155.5 L 172.0 155.5 L 171.5 155.5 L 171.0 155.5 L 172.0 155.5 L 174.0 156.0 L 176.0 158.5 L 177.0 160.0 " stroke="black" fill="none" stroke-width="6.0" stroke-linecap="round" stroke-linejoin="round" />
</svg>