<svg xmlns="http://www.w3.org/2000/svg" width="300" height="300" viewBox="0 0 300 300">
<path d="M 120.5 122.5 L 118.0 122.0 L 117.0 121.5 L 117.0 121.5 L 118.5 122.0 L 123.0 123.0 L 129.0 123.0 L 135.5 123.0 L 142.5 121.5 L 146.0 120.5 L 146.0 120.0 L 146.0 120.0 " stroke="black" fill="none" stroke-width="7.0" stroke-linecap="round" stroke-linejoin="round" />
<path d="M 131.5 107.5 L 132.0 107.5 L 132.0 107.5 L 132.5 108.5 L 132.5 114.0 L 132.5 127.0 L 132.5 146.0 L 132.5 166.0 L 133.0 179.0 L 133.5 185.0 L 133.5 185.5 L 132.5 186.0 L 131.5 186.0 L 131.0 186.0 " stroke="black" fill="none" stroke-width="7.0" stroke-linecap="round" stroke-linejoin="round" />
<path d="M 129.0 129.0 L 129.5 129.0 L 129.5 129.5 L 129.5 129.5 L 130.0 129.5 L 130.0 131.0 L 128.0 136.5 L 123.0 147.0 L 118.0 157.0 L 115.5 162.5 L 115.0 163.0 L 115.5 163.0 " stroke="black" fill="none" stroke-width="7.0" stroke-linecap="round" stroke-linejoin="round" />
<path d="M 132.5 132.5 L 132.5 132.0 L 132.5 131.5 L 132.5 131.5 L 133.5 132.5 L 136.5 136.0 L 139.5 139.0 L 142.0 141.0 " stroke="black" fill="none" stroke-width="7.0" stroke-linecap="round" stroke-linejoin="round" />
<path d="M 156.0 112.5 L 156.0 112.5 L 155.5 112.0 L 155.5 112.0 L 155.5 111.5 L 155.5 111.5 L 156.0 111.5 L 156.5 111.5 L 157.0 111.5 L 158.0 111.5 L 159.5 111.5 L 162.5 111.0 L 166.0 111.0 L 169.0 110.5 L 171.5 110.5 L 174.5 110.5 L 178.5 110.5 L 182.0 110.0 L 185.0 110.0 L 187.0 110.5 L 189.0 111.0 L 190.0 111.5 L 190.5 111.5 L 191.0 111.5 L 191.0 111.5 L 191.0 111.5 L 191.5 111.5 L 191.5 111.5 L 192.0 111.0 L 192.5 111.0 L 193.0 111.0 L 193.5 111.0 L 194.0 111.0 L 194.5 111.0 L 195.0 110.5 L 195.5 110.5 L 195.5 110.5 L 196.0 110.5 L 196.5 110.5 L 196.5 110.5 L 196.5 111.0 L 196.5 111.0 L 196.5 111.0 L 196.5 111.0 L 196.5 111.0 L 196.5 111.0 L 196.5 111.0 L 196.0 111.0 " stroke="black" fill="none" stroke-width="7.0" stroke-linecap="round" stroke-linejoin="round" />
<path d="M 173.5 115.0 L 173.5 115.0 L 173.5 114.0 L 173.5 113.5 L 173.5 113.0 L 173.5 113.0 L 173.5 113.0 L 173.5 113.0 L 173.5 113.5 L 173.5 115.0 L 173.0 117.5 L 172.0 120.5 L 171.0 124.0 L 169.5 128.0 L 168.0 132.0 L 167.5 134.0 L 167.5 134.5 L 167.5 134.5 L 167.5 134.0 L 168.0 133.5 L 168.0 133.0 L 168.5 132.5 L 169.5 131.5 L 170.5 131.0 L 172.0 130.5 L 173.5 130.0 L 176.0 129.5 L 178.0 129.0 L 179.5 128.5 L 180.5 128.5 L 181.0 128.0 L 181.0 128.0 L 181.0 128.0 L 181.0 128.5 L 181.0 128.5 L 181.0 128.5 L 180.5 129.0 L 180.5 129.5 L 180.0 130.0 L 179.5 130.5 L 179.0 131.5 L 178.5 133.0 L 178.5 136.0 L 178.0 139.5 L 177.5 144.0 L 177.0 148.5 L 176.5 152.5 L 176.5 158.5 L 176.5 163.0 L 176.5 167.5 L 176.5 171.0 L 176.0 173.0 L 176.0 174.5 L 176.0 175.5 L 175.5 176.0 L 175.5 176.0 L 175.0 176.0 L 174.0 176.0 L 173.0 175.5 L 171.0 174.0 L 169.5 173.0 L 168.5 172.0 L 167.5 171.5 L 167.5 171.0 L 167.5 171.0 " stroke="black" fill="none" stroke-width="7.0" stroke-linecap="round" stroke-linejoin="round" />
<path d="M 152.5 153.0 L 152.5 152.5 L 152.5 151.5 L 152.5 150.5 L 152.5 150.0 L 152.5 150.0 L 152.5 152.5 L 152.5 156.5 L 153.0 160.5 L 153.0 163.0 L 153.5 163.5 " stroke="black" fill="none" stroke-width="7.0" stroke-linecap="round" stroke-linejoin="round" />
<path d="M 153.5 149.0 L 153.5 149.0 L 153.0 149.0 L 152.5 149.0 L 152.5 149.0 L 154.5 148.0 L 158.0 147.5 L 161.5 147.0 L 164.0 147.5 L 165.5 148.5 L 165.5 149.5 L 165.5 151.0 L 165.0 153.5 L 164.0 156.0 L 163.0 159.0 L 161.5 162.0 L 161.0 164.0 L 160.0 166.0 " stroke="black" fill="none" stroke-width="7.0" stroke-linecap="round" stroke-linejoin="round" />
<path d="M 152.5 167.5 L 152.5 167.5 L 151.0 167.5 L 150.5 167.0 L 150.5 167.0 L 152.0 167.0 L 155.5 167.0 L 158.5 166.5 L 159.0 166.5 " stroke="black" fill="none" stroke-width="7.0" stroke-linecap="round" stroke-linejoin="round" />
<path d="M 188.5 140.5 L 188.0 141.0 L 187.0 141.5 L 186.5 142.0 L 187.0 142.0 L 189.0 141.5 L 192.0 140.0 L 195.0 139.0 L 197.5 138.5 L 199.5 138.5 L 200.5 138.5 L 200.5 139.5 L 199.5 141.5 L 198.0 144.5 L 196.0 149.5 L 192.5 158.5 L 189.5 168.5 L 187.5 175.0 L 187.0 176.5 L 187.0 176.0 L 187.0 174.0 L 187.5 173.5 " stroke="black" fill="none" stroke-width="7.0" stroke-linecap="round" stroke-linejoin="round" />
<path d="M 188.0 152.5 L 187.5 152.5 L 185.5 152.0 L 185.5 152.0 L 187.0 153.0 L 189.5 156.5 L 193.0 161.0 L 196.0 166.5 L 199.0 170.0 L 201.0 171.0 " stroke="black" fill="none" stroke-width="7.0" stroke-linecap="round" stroke-linejoin="round" />
<path d="M 151.0 189.5 L 151.0 189.5 L 151.0 189.5 L 150.5 189.0 L 150.5 189.0 L 150.5 189.0 L 150.5 189.0 L 151.0 189.0 L 153.0 189.0 L 155.5 189.0 L 160.0 189.0 L 166.0 189.0 L 172.0 188.5 L 177.5 188.5 L 184.0 188.5 L 189.0 188.5 L 193.0 187.5 L 195.0 187.5 L 195.5 187.5 L 195.5 187.5 L 195.5 187.5 L 196.0 187.5 L 197.0 187.5 L 197.5 187.0 L 198.0 187.0 L 199.0 187.0 L 199.5 187.0 L 200.5 187.0 L 200.5 187.0 L 201.0 187.0 L 201.0 187.0 L 201.0 187.0 L 201.0 187.0 L 201.0 187.0 L 201.0 187.0 L 201.0 187.0 L 201.0 187.0 L 200.5 187.0 L 200.5 187.0 " stroke="black" fill="none" stroke-width="7.0" stroke-linecap="round" stroke-linejoin="round" />
</svg>