<svg xmlns="http://www.w3.org/2000/svg" width="300" height="300" viewBox="0 0 300 300">
<path d="M 121.0 84.0 L 121.0 84.0 L 120.5 83.5 L 120.5 83.0 L 120.5 83.0 L 120.5 83.0 L 120.5 83.5 L 120.5 86.5 L 119.0 92.5 L 114.5 103.0 L 108.0 114.0 L 104.0 118.0 L 103.0 117.5 L 103.0 114.0 L 103.0 113.0 " stroke="black" fill="none" stroke-width="8.0" stroke-linecap="round" stroke-linejoin="round" />
<path d="M 98.5 96.5 L 98.0 95.5 L 97.5 95.0 L 98.0 95.0 L 100.5 96.5 L 104.0 97.5 L 107.5 98.5 L 108.5 98.5 " stroke="black" fill="none" stroke-width="8.0" stroke-linecap="round" stroke-linejoin="round" />
<path d="M 140.5 89.5 L 140.5 89.5 L 140.5 89.0 L 140.5 89.0 L 140.5 89.0 L 139.5 91.0 L 137.0 95.0 L 134.0 99.5 L 132.0 102.0 " stroke="black" fill="none" stroke-width="8.0" stroke-linecap="round" stroke-linejoin="round" />
<path d="M 124.5 111.5 L 124.5 111.5 L 123.0 112.0 L 123.0 112.5 L 124.5 114.5 L 129.5 118.0 L 135.0 121.0 L 139.0 123.0 L 140.0 123.0 " stroke="black" fill="none" stroke-width="8.0" stroke-linecap="round" stroke-linejoin="round" />
<path d="M 185.0 84.5 L 185.0 84.0 L 185.0 83.5 L 185.0 83.5 L 185.0 83.0 L 185.0 85.0 L 184.0 91.0 L 179.5 102.0 L 173.0 114.5 L 169.5 119.5 L 168.5 119.0 L 168.5 117.5 " stroke="black" fill="none" stroke-width="8.0" stroke-linecap="round" stroke-linejoin="round" />
<path d="M 162.5 95.0 L 162.0 94.0 L 161.5 93.5 L 161.5 93.5 L 164.0 94.5 L 167.5 96.5 L 170.5 98.0 L 172.5 98.5 " stroke="black" fill="none" stroke-width="8.0" stroke-linecap="round" stroke-linejoin="round" />
<path d="M 199.0 90.0 L 199.0 90.0 L 199.5 90.5 L 199.5 91.0 L 199.0 92.5 L 197.5 96.5 L 195.0 100.5 L 193.0 104.0 " stroke="black" fill="none" stroke-width="8.0" stroke-linecap="round" stroke-linejoin="round" />
<path d="M 185.5 113.0 L 185.5 113.0 L 185.5 113.0 L 186.5 114.0 L 190.0 116.5 L 196.5 120.5 L 203.0 124.5 L 207.5 126.0 L 210.0 126.5 L 210.5 126.5 " stroke="black" fill="none" stroke-width="8.0" stroke-linecap="round" stroke-linejoin="round" />
<path d="M 112.0 137.5 L 112.0 137.5 L 112.0 137.5 L 112.0 138.5 L 111.5 142.5 L 110.0 150.0 L 108.0 157.0 L 107.0 159.0 L 106.5 159.0 " stroke="black" fill="none" stroke-width="8.0" stroke-linecap="round" stroke-linejoin="round" />
<path d="M 115.0 137.5 L 115.0 137.5 L 115.0 137.5 L 115.0 137.5 L 115.0 137.5 L 116.0 137.5 L 119.5 137.0 L 128.0 136.5 L 140.5 135.5 L 153.0 135.0 L 163.0 134.5 L 170.5 134.5 L 176.5 134.5 L 183.5 134.5 L 190.0 134.0 L 192.5 134.5 L 192.5 136.0 L 191.5 138.0 L 191.0 139.5 L 191.0 141.0 L 190.5 141.5 L 190.5 143.0 L 189.0 145.5 L 187.0 149.0 L 185.5 151.5 L 185.0 153.0 L 185.0 154.0 " stroke="black" fill="none" stroke-width="8.0" stroke-linecap="round" stroke-linejoin="round" />
<path d="M 123.5 163.0 L 121.5 162.5 L 120.5 162.5 L 120.0 162.5 L 120.5 162.5 L 123.0 162.0 L 126.0 161.5 L 131.5 161.0 L 141.5 160.5 L 155.5 160.5 L 166.0 160.0 L 169.0 160.0 L 169.0 160.0 L 168.0 160.0 L 168.0 160.0 L 168.5 159.5 " stroke="black" fill="none" stroke-width="8.0" stroke-linecap="round" stroke-linejoin="round" />
<path d="M 148.0 146.5 L 147.5 146.5 L 146.5 146.5 L 146.0 146.5 L 146.5 149.0 L 147.0 157.0 L 147.0 172.5 L 146.5 190.5 L 146.5 204.5 L 146.5 211.0 L 147.0 212.5 L 147.0 211.0 L 147.5 208.5 " stroke="black" fill="none" stroke-width="8.0" stroke-linecap="round" stroke-linejoin="round" />
<path d="M 136.0 175.0 L 137.0 174.5 L 137.5 174.0 L 137.5 174.0 L 134.0 178.0 L 128.0 185.0 L 121.0 193.5 L 116.5 198.5 L 115.0 199.0 L 116.0 197.0 " stroke="black" fill="none" stroke-width="8.0" stroke-linecap="round" stroke-linejoin="round" />
<path d="M 161.5 178.5 L 161.5 178.5 L 161.5 178.5 L 161.0 178.5 L 161.0 179.0 L 162.5 180.5 L 168.0 184.0 L 176.5 189.5 L 184.5 194.5 L 190.5 196.5 " stroke="black" fill="none" stroke-width="8.0" stroke-linecap="round" stroke-linejoin="round" />
</svg>