<svg xmlns="http://www.w3.org/2000/svg" width="300" height="300" viewBox="0 0 300 300">
<path d="M 103.33333333333333 106.11111111111111 L 102.77777777777777 106.11111111111111 L 102.22222222222223 106.11111111111111 L 101.66666666666667 106.11111111111111 L 102.22222222222223 106.11111111111111 L 105.55555555555556 105.55555555555556 L 110.55555555555556 105.0 L 117.22222222222221 104.44444444444444 L 125.00000000000001 103.88888888888889 L 132.22222222222223 103.33333333333333 L 135.00000000000003 102.77777777777777 " stroke="black" fill="none" stroke-width="7.0" stroke-linecap="round" stroke-linejoin="round" />
<path d="M 117.77777777777779 91.66666666666667 L 117.22222222222221 91.66666666666667 L 116.66666666666667 91.66666666666667 L 116.66666666666667 91.66666666666667 L 116.66666666666667 91.66666666666667 L 117.77777777777779 95.0 L 118.33333333333333 101.66666666666667 L 118.8888888888889 111.11111111111111 L 119.44444444444444 121.1111111111111 L 119.44444444444444 127.77777777777779 L 119.44444444444444 130.00000000000003 L 119.44444444444444 130.00000000000003 L 119.44444444444444 128.8888888888889 " stroke="black" fill="none" stroke-width="7.0" stroke-linecap="round" stroke-linejoin="round" />
<path d="M 108.33333333333333 116.66666666666667 L 109.44444444444444 116.1111111111111 L 110.0 116.1111111111111 L 110.0 116.66666666666667 L 108.88888888888889 120.00000000000001 L 106.11111111111111 124.44444444444444 L 102.77777777777777 128.8888888888889 L 100.55555555555556 131.66666666666669 L 100.0 131.66666666666669 " stroke="black" fill="none" stroke-width="7.0" stroke-linecap="round" stroke-linejoin="round" />
<path d="M 131.66666666666669 116.1111111111111 L 131.66666666666669 116.1111111111111 L 130.55555555555557 116.1111111111111 L 130.55555555555557 116.1111111111111 L 133.33333333333334 117.77777777777779 L 137.7777777777778 120.55555555555556 L 141.66666666666669 123.33333333333333 L 143.33333333333334 124.44444444444444 " stroke="black" fill="none" stroke-width="7.0" stroke-linecap="round" stroke-linejoin="round" />
<path d="M 155.55555555555557 99.44444444444444 L 155.00000000000003 100.0 L 154.44444444444446 100.55555555555556 L 153.8888888888889 100.55555555555556 L 153.8888888888889 100.55555555555556 L 153.8888888888889 100.55555555555556 L 156.66666666666669 100.0 L 161.66666666666669 99.44444444444444 L 168.33333333333334 98.88888888888889 L 175.00000000000003 97.77777777777777 L 178.33333333333334 97.22222222222223 L 179.44444444444446 97.22222222222223 L 179.44444444444446 97.22222222222223 " stroke="black" fill="none" stroke-width="7.0" stroke-linecap="round" stroke-linejoin="round" />
<path d="M 167.7777777777778 88.88888888888889 L 167.7777777777778 88.88888888888889 L 167.22222222222223 88.88888888888889 L 166.66666666666669 88.88888888888889 L 166.66666666666669 89.44444444444444 L 167.7777777777778 93.33333333333333 L 168.8888888888889 101.66666666666667 L 168.8888888888889 112.22222222222221 L 168.8888888888889 122.22222222222221 L 168.8888888888889 129.44444444444446 L 168.8888888888889 131.66666666666669 L 170.00000000000003 131.66666666666669 L 170.55555555555557 130.55555555555557 " stroke="black" fill="none" stroke-width="7.0" stroke-linecap="round" stroke-linejoin="round" />
<path d="M 159.44444444444446 110.0 L 160.00000000000003 110.55555555555556 L 160.00000000000003 110.55555555555556 L 160.00000000000003 111.66666666666667 L 158.33333333333334 114.44444444444444 L 155.55555555555557 118.8888888888889 L 152.7777777777778 122.77777777777779 L 151.11111111111111 125.00000000000001 L 150.55555555555557 125.00000000000001 " stroke="black" fill="none" stroke-width="7.0" stroke-linecap="round" stroke-linejoin="round" />
<path d="M 175.00000000000003 107.77777777777779 L 175.00000000000003 108.33333333333333 L 175.00000000000003 108.88888888888889 L 176.66666666666669 110.0 L 180.55555555555557 112.77777777777779 L 183.8888888888889 115.55555555555556 L 186.66666666666669 117.77777777777779 L 187.22222222222223 118.8888888888889 " stroke="black" fill="none" stroke-width="7.0" stroke-linecap="round" stroke-linejoin="round" />
<path d="M 111.66666666666667 148.33333333333334 L 111.66666666666667 148.33333333333334 L 111.66666666666667 148.33333333333334 L 111.66666666666667 148.33333333333334 L 111.66666666666667 148.33333333333334 L 111.66666666666667 148.33333333333334 L 112.22222222222221 148.33333333333334 L 113.33333333333333 147.7777777777778 L 116.1111111111111 147.7777777777778 L 122.77777777777779 146.66666666666669 L 134.44444444444446 145.00000000000003 L 146.66666666666669 143.33333333333334 L 156.66666666666669 142.7777777777778 L 163.33333333333334 142.7777777777778 L 167.7777777777778 142.7777777777778 L 170.00000000000003 142.7777777777778 L 170.55555555555557 142.7777777777778 L 171.66666666666669 142.22222222222223 L 174.44444444444446 141.66666666666669 L 177.7777777777778 141.11111111111111 L 181.11111111111114 140.55555555555557 L 182.7777777777778 140.55555555555557 L 182.7777777777778 140.55555555555557 L 182.7777777777778 140.55555555555557 L 182.22222222222223 140.55555555555557 L 182.22222222222223 140.55555555555557 L 182.22222222222223 140.55555555555557 L 182.22222222222223 140.55555555555557 L 182.22222222222223 140.55555555555557 L 182.22222222222223 140.55555555555557 L 181.66666666666669 140.55555555555557 L 181.66666666666669 140.55555555555557 L 181.66666666666669 140.55555555555557 L 181.66666666666669 140.55555555555557 L 181.66666666666669 140.55555555555557 L 181.11111111111114 141.11111111111111 L 181.11111111111114 141.66666666666669 L 181.11111111111114 142.22222222222223 L 180.00000000000003 143.8888888888889 L 179.44444444444446 146.66666666666669 L 177.7777777777778 149.44444444444446 L 177.22222222222223 151.66666666666669 L 176.11111111111114 153.33333333333334 L 176.11111111111114 155.00000000000003 L 176.11111111111114 156.11111111111111 " stroke="black" fill="none" stroke-width="7.0" stroke-linecap="round" stroke-linejoin="round" />
<path d="M 151.11111111111111 155.00000000000003 L 151.11111111111111 155.00000000000003 L 151.11111111111111 155.55555555555557 L 151.11111111111111 156.11111111111111 L 151.11111111111111 157.22222222222223 L 151.11111111111111 160.55555555555557 L 151.11111111111111 166.66666666666669 L 151.11111111111111 173.8888888888889 L 151.11111111111111 178.33333333333334 L 151.11111111111111 178.8888888888889 L 151.66666666666669 178.33333333333334 " stroke="black" fill="none" stroke-width="7.0" stroke-linecap="round" stroke-linejoin="round" />
<path d="M 153.33333333333334 170.00000000000003 L 152.7777777777778 170.00000000000003 L 152.7777777777778 170.55555555555557 L 153.33333333333334 170.55555555555557 L 156.11111111111111 169.44444444444446 L 159.44444444444446 168.33333333333334 L 162.7777777777778 167.22222222222223 L 165.00000000000003 166.66666666666669 " stroke="black" fill="none" stroke-width="7.0" stroke-linecap="round" stroke-linejoin="round" />
<path d="M 131.66666666666669 161.11111111111111 L 132.7777777777778 161.11111111111111 L 133.33333333333334 161.11111111111111 L 133.33333333333334 161.11111111111111 L 133.33333333333334 161.11111111111111 L 133.33333333333334 162.22222222222223 L 132.22222222222223 165.00000000000003 L 130.00000000000003 170.55555555555557 L 126.66666666666667 177.22222222222223 L 122.22222222222221 183.33333333333334 L 118.8888888888889 186.11111111111114 L 117.22222222222221 187.22222222222223 L 117.22222222222221 186.66666666666669 L 117.22222222222221 185.55555555555557 " stroke="black" fill="none" stroke-width="7.0" stroke-linecap="round" stroke-linejoin="round" />
<path d="M 126.66666666666667 181.11111111111114 L 126.66666666666667 181.11111111111114 L 126.1111111111111 181.66666666666669 L 126.1111111111111 181.66666666666669 L 130.00000000000003 181.66666666666669 L 135.55555555555557 182.7777777777778 L 143.33333333333334 185.00000000000003 L 152.7777777777778 187.22222222222223 L 163.33333333333334 187.7777777777778 L 172.7777777777778 187.22222222222223 L 180.00000000000003 187.22222222222223 L 185.00000000000003 187.7777777777778 L 187.7777777777778 188.33333333333334 " stroke="black" fill="none" stroke-width="7.0" stroke-linecap="round" stroke-linejoin="round" />
</svg>