<svg xmlns="http://www.w3.org/2000/svg" width="300" height="300" viewBox="0 0 300 300">
<path d="M 105.5 121.5 L 105.5 120.5 L 105.5 119.5 L 107.5 118.0 L 112.0 117.0 L 119.5 116.5 L 126.5 116.5 L 130.5 116.5 L 132.0 116.0 L 132.0 116.0 " stroke="black" fill="none" stroke-width="7.0" stroke-linecap="round" stroke-linejoin="round" />
<path d="M 121.5 103.5 L 121.0 103.0 L 120.0 103.0 L 120.0 104.0 L 120.0 107.5 L 120.0 117.0 L 119.5 137.0 L 118.0 160.0 L 118.0 176.5 L 118.5 185.0 L 119.0 188.0 L 119.5 186.5 L 119.5 184.5 " stroke="black" fill="none" stroke-width="7.0" stroke-linecap="round" stroke-linejoin="round" />
<path d="M 119.5 122.0 L 119.5 121.5 L 119.5 120.0 L 119.5 119.5 L 119.5 119.5 L 118.5 123.0 L 115.0 130.0 L 108.0 141.5 L 102.0 152.5 L 99.0 158.0 L 99.0 158.5 L 101.5 155.0 " stroke="black" fill="none" stroke-width="7.0" stroke-linecap="round" stroke-linejoin="round" />
<path d="M 122.5 126.0 L 122.0 126.0 L 121.5 125.5 L 121.5 126.0 L 123.5 129.5 L 126.5 136.0 L 130.5 142.0 L 133.5 145.5 " stroke="black" fill="none" stroke-width="7.0" stroke-linecap="round" stroke-linejoin="round" />
<path d="M 152.0 108.0 L 152.0 108.0 L 152.0 107.5 L 152.5 107.0 L 152.5 106.5 L 152.0 107.5 L 151.0 111.5 L 148.5 117.5 L 146.0 125.0 L 145.0 130.0 L 145.0 130.5 L 146.5 129.0 L 148.0 126.0 L 150.0 123.0 L 151.5 121.0 L 153.0 120.0 L 154.0 120.0 L 155.0 120.5 L 155.5 122.0 L 155.5 123.0 L 155.5 124.5 L 154.5 126.0 L 153.5 128.0 L 152.0 131.0 L 150.5 134.5 L 148.0 139.5 L 146.0 145.0 L 144.5 147.5 L 144.5 148.0 L 144.5 148.0 L 144.5 147.5 L 145.0 147.0 L 145.5 146.0 L 147.0 144.5 L 148.5 142.5 L 150.0 140.5 L 151.5 139.5 L 153.0 138.5 L 154.5 138.5 L 156.5 140.0 L 159.0 142.5 L 160.5 144.5 L 161.5 145.0 " stroke="black" fill="none" stroke-width="7.0" stroke-linecap="round" stroke-linejoin="round" />
<path d="M 181.0 111.5 L 181.5 111.5 L 182.5 111.0 L 183.5 109.5 L 184.5 108.5 L 185.0 107.5 L 185.0 107.5 L 183.5 109.0 L 181.0 113.5 L 177.5 119.0 L 175.0 124.5 L 173.0 128.5 L 172.5 129.5 L 172.5 129.5 L 173.0 129.0 L 175.0 127.0 L 177.5 125.5 L 180.0 124.0 L 182.0 123.0 L 183.5 123.0 L 185.0 123.5 L 185.0 124.5 L 185.0 126.0 L 184.0 127.5 L 182.0 130.0 L 179.5 132.5 L 177.0 136.5 L 174.5 141.0 L 173.5 144.0 L 173.0 145.0 L 173.5 145.0 L 174.0 144.0 L 175.0 142.5 L 176.5 141.0 L 178.5 139.0 L 181.0 137.5 L 183.5 136.0 L 185.5 135.0 L 187.5 135.0 L 189.0 135.5 L 189.5 138.5 L 190.0 142.0 L 190.5 146.0 L 191.0 148.0 L 191.5 149.0 L 192.0 149.0 " stroke="black" fill="none" stroke-width="7.0" stroke-linecap="round" stroke-linejoin="round" />
<path d="M 142.5 162.5 L 141.5 162.5 L 140.0 162.5 L 140.0 162.5 L 143.0 161.5 L 149.0 161.0 L 159.0 160.5 L 174.5 160.5 L 189.5 159.5 L 195.5 159.0 L 196.5 160.0 " stroke="black" fill="none" stroke-width="7.0" stroke-linecap="round" stroke-linejoin="round" />
<path d="M 167.0 108.5 L 166.0 108.0 L 165.0 108.0 L 164.5 108.5 L 165.5 112.5 L 167.5 121.5 L 170.5 137.0 L 173.5 157.0 L 178.0 176.5 L 182.5 189.5 L 186.0 194.5 L 189.0 197.0 L 190.5 197.5 L 191.5 196.5 L 192.0 193.5 L 192.5 189.5 L 193.0 185.5 L 193.0 183.0 L 193.0 182.5 " stroke="black" fill="none" stroke-width="7.0" stroke-linecap="round" stroke-linejoin="round" />
<path d="M 192.5 174.5 L 192.0 175.0 L 191.0 175.5 L 189.5 176.5 L 188.0 179.5 L 184.0 185.5 L 177.5 192.5 L 173.5 195.5 L 173.0 194.5 " stroke="black" fill="none" stroke-width="7.0" stroke-linecap="round" stroke-linejoin="round" />
<path d="M 183.0 148.5 L 182.5 148.5 L 182.0 148.0 L 181.5 148.0 L 181.5 148.5 L 183.0 150.5 L 185.5 152.5 " stroke="black" fill="none" stroke-width="7.0" stroke-linecap="round" stroke-linejoin="round" />
<path d="M 155.5 163.5 L 156.0 163.5 L 156.0 163.0 L 156.0 163.5 L 155.5 166.0 L 152.5 171.5 L 148.0 181.0 L 143.0 190.0 L 142.0 192.5 L 143.0 190.5 " stroke="black" fill="none" stroke-width="7.0" stroke-linecap="round" stroke-linejoin="round" />
<path d="M 152.0 179.0 L 152.0 179.5 L 152.0 180.0 L 153.0 181.0 L 157.0 182.0 L 162.0 184.0 L 166.5 185.5 " stroke="black" fill="none" stroke-width="7.0" stroke-linecap="round" stroke-linejoin="round" />
</svg>