<svg xmlns="http://www.w3.org/2000/svg" width="300" height="300" viewBox="0 0 300 300">
<path d="M 98.0 111.5 L 98.0 111.5 L 98.0 111.5 L 98.0 111.0 L 102.0 110.5 L 109.5 110.0 L 118.5 109.5 L 126.5 109.5 L 131.5 109.0 L 133.0 109.0 L 133.5 110.0 " stroke="black" fill="none" stroke-width="8.0" stroke-linecap="round" stroke-linejoin="round" />
<path d="M 116.0 88.5 L 116.0 89.5 L 116.0 90.5 L 116.5 92.5 L 117.5 98.5 L 118.5 111.5 L 119.0 130.0 L 119.0 149.5 L 117.0 167.5 L 116.0 181.5 L 116.0 192.0 L 116.0 196.5 L 117.0 196.5 L 117.0 194.5 " stroke="black" fill="none" stroke-width="8.0" stroke-linecap="round" stroke-linejoin="round" />
<path d="M 115.0 114.5 L 115.5 114.5 L 116.5 114.5 L 116.5 115.0 L 116.5 117.0 L 115.0 123.0 L 110.5 135.5 L 104.0 150.5 L 98.5 162.5 L 96.5 167.5 L 96.5 166.5 L 97.0 163.5 " stroke="black" fill="none" stroke-width="8.0" stroke-linecap="round" stroke-linejoin="round" />
<path d="M 124.5 122.5 L 124.0 122.0 L 124.0 122.0 L 124.0 121.5 L 126.5 124.5 L 131.5 130.0 L 137.0 135.5 L 140.0 136.5 " stroke="black" fill="none" stroke-width="8.0" stroke-linecap="round" stroke-linejoin="round" />
<path d="M 154.0 97.5 L 154.0 97.0 L 154.0 96.0 L 154.0 95.5 L 154.5 96.5 L 156.0 100.5 L 157.0 105.5 L 158.0 110.0 L 158.5 112.5 L 158.5 113.0 " stroke="black" fill="none" stroke-width="8.0" stroke-linecap="round" stroke-linejoin="round" />
<path d="M 156.5 95.0 L 156.5 95.0 L 156.5 95.0 L 156.5 95.0 L 157.0 95.0 L 159.5 94.5 L 164.5 93.0 L 172.5 91.0 L 181.5 89.5 L 187.5 89.5 L 190.5 90.5 L 192.0 91.0 L 192.0 91.0 L 192.0 91.0 L 192.0 91.0 L 193.0 91.5 L 193.5 92.5 L 194.5 94.0 L 194.5 97.5 L 193.5 103.5 L 191.5 109.5 L 190.5 114.0 L 190.0 115.5 L 190.0 115.5 " stroke="black" fill="none" stroke-width="8.0" stroke-linecap="round" stroke-linejoin="round" />
<path d="M 149.5 111.0 L 149.5 111.0 L 149.0 111.0 L 149.5 110.5 L 153.5 108.5 L 162.0 105.5 L 172.5 104.0 L 183.0 104.0 L 193.0 104.0 L 199.0 104.0 L 202.0 105.0 L 202.5 105.0 " stroke="black" fill="none" stroke-width="8.0" stroke-linecap="round" stroke-linejoin="round" />
<path d="M 155.5 122.0 L 156.0 122.0 L 158.0 121.5 L 160.5 120.5 L 165.0 119.5 L 171.0 119.0 L 177.0 119.0 L 183.0 119.0 L 185.5 119.0 " stroke="black" fill="none" stroke-width="8.0" stroke-linecap="round" stroke-linejoin="round" />
<path d="M 152.0 138.5 L 153.0 138.5 L 153.5 138.5 L 155.0 139.5 L 156.5 142.0 L 158.5 145.0 L 160.0 147.0 L 160.0 147.0 " stroke="black" fill="none" stroke-width="8.0" stroke-linecap="round" stroke-linejoin="round" />
<path d="M 159.5 136.5 L 159.5 136.5 L 159.0 137.0 L 158.5 137.0 L 160.0 136.0 L 166.0 132.5 L 175.0 129.0 L 185.5 127.0 L 194.0 126.5 L 200.0 126.5 L 203.5 128.0 L 204.0 130.5 L 204.0 132.5 L 203.0 135.0 L 201.0 138.0 L 199.5 140.5 L 199.0 141.5 L 198.5 142.0 L 198.5 142.0 " stroke="black" fill="none" stroke-width="8.0" stroke-linecap="round" stroke-linejoin="round" />
<path d="M 176.0 80.0 L 177.5 80.0 L 177.5 80.0 L 177.5 81.0 L 177.5 85.5 L 177.5 96.0 L 177.5 112.0 L 177.5 128.5 L 177.5 137.5 L 177.5 142.0 L 177.5 145.0 L 178.0 145.0 " stroke="black" fill="none" stroke-width="8.0" stroke-linecap="round" stroke-linejoin="round" />
<path d="M 163.5 156.0 L 163.0 156.0 L 162.5 156.0 L 162.5 156.0 L 162.5 155.5 L 165.5 154.0 L 171.0 152.5 L 181.0 150.5 L 191.5 148.0 L 199.5 147.0 L 203.0 147.0 " stroke="black" fill="none" stroke-width="8.0" stroke-linecap="round" stroke-linejoin="round" />
<path d="M 179.0 159.5 L 180.0 159.5 L 181.0 159.0 L 181.0 159.0 L 180.5 159.0 L 179.5 161.0 L 177.0 165.0 L 173.5 171.0 L 170.0 177.5 L 167.5 183.5 L 167.0 188.5 L 168.5 192.5 L 173.5 196.5 L 180.5 199.0 L 188.0 200.5 L 193.0 202.0 L 195.0 203.5 L 195.0 205.0 L 194.0 204.0 " stroke="black" fill="none" stroke-width="8.0" stroke-linecap="round" stroke-linejoin="round" />
<path d="M 195.5 168.5 L 195.5 168.5 L 195.5 168.0 L 195.5 167.5 L 194.5 168.0 L 192.0 172.0 L 187.0 180.0 L 179.5 192.0 L 171.5 201.5 L 167.0 206.5 L 166.5 207.0 L 166.5 205.0 " stroke="black" fill="none" stroke-width="8.0" stroke-linecap="round" stroke-linejoin="round" />
<path d="M 149.5 181.0 L 149.5 180.5 L 149.0 180.0 L 150.5 179.0 L 157.5 177.5 L 172.5 174.5 L 188.0 173.0 L 199.5 172.5 L 208.0 172.5 L 211.5 172.5 " stroke="black" fill="none" stroke-width="8.0" stroke-linecap="round" stroke-linejoin="round" />
</svg>