<svg xmlns="http://www.w3.org/2000/svg" width="300" height="300" viewBox="0 0 300 300">
<path d="M 122.0 104.0 L 121.5 104.0 L 121.0 104.0 L 120.5 104.5 L 120.5 106.0 L 121.0 109.5 L 121.5 114.0 L 121.5 117.5 L 122.0 120.0 " stroke="black" fill="none" stroke-width="7.0" stroke-linecap="round" stroke-linejoin="round" />
<path d="M 113.0 116.0 L 112.5 116.0 L 111.5 116.0 L 111.5 116.0 L 111.5 116.0 L 113.0 115.0 L 115.5 114.5 L 119.0 114.5 L 121.0 114.0 " stroke="black" fill="none" stroke-width="7.0" stroke-linecap="round" stroke-linejoin="round" />
<path d="M 136.0 104.5 L 136.0 104.5 L 136.0 104.5 L 136.0 104.5 L 136.0 104.5 L 136.0 105.0 L 136.0 108.0 L 136.0 113.0 L 136.0 118.0 L 136.5 120.5 L 137.0 121.0 " stroke="black" fill="none" stroke-width="7.0" stroke-linecap="round" stroke-linejoin="round" />
<path d="M 137.0 114.0 L 136.5 114.0 L 135.0 114.0 L 135.0 114.0 L 137.5 113.5 L 141.0 112.5 L 144.5 111.5 L 146.5 111.0 L 148.0 111.0 " stroke="black" fill="none" stroke-width="7.0" stroke-linecap="round" stroke-linejoin="round" />
<path d="M 114.0 131.5 L 114.0 131.5 L 114.0 131.0 L 114.0 131.0 L 114.0 131.0 L 114.5 131.5 L 115.0 134.0 L 115.5 137.0 L 116.5 140.0 L 117.0 141.5 L 117.5 142.0 " stroke="black" fill="none" stroke-width="7.0" stroke-linecap="round" stroke-linejoin="round" />
<path d="M 115.0 133.5 L 114.0 133.5 L 113.5 133.5 L 113.0 133.5 L 113.0 133.0 L 114.5 132.5 L 117.0 131.0 L 119.5 130.5 L 122.5 130.5 L 125.0 130.5 L 126.0 131.0 L 126.5 132.0 L 126.0 134.5 L 125.0 137.0 L 124.0 139.5 L 123.0 141.0 " stroke="black" fill="none" stroke-width="7.0" stroke-linecap="round" stroke-linejoin="round" />
<path d="M 117.5 142.0 L 116.0 142.5 L 115.0 142.5 L 115.0 142.5 L 116.5 142.0 L 119.0 141.0 L 121.5 140.0 L 123.0 140.0 " stroke="black" fill="none" stroke-width="7.0" stroke-linecap="round" stroke-linejoin="round" />
<path d="M 136.0 129.0 L 136.0 130.5 L 135.5 131.5 L 135.5 132.5 L 135.5 135.0 L 136.0 137.5 L 136.5 139.5 L 137.0 141.0 L 137.0 141.0 " stroke="black" fill="none" stroke-width="7.0" stroke-linecap="round" stroke-linejoin="round" />
<path d="M 136.5 131.0 L 136.5 131.5 L 135.5 132.0 L 135.5 132.0 L 135.5 132.0 L 137.0 131.0 L 139.0 130.0 L 141.0 129.0 L 143.5 128.5 L 146.0 128.5 L 148.0 128.5 L 149.5 129.0 L 150.0 129.5 L 150.0 130.0 L 150.0 130.5 L 149.5 131.5 L 149.5 133.0 L 148.5 135.0 L 148.0 137.5 L 147.5 139.5 L 147.0 141.0 L 146.5 142.0 " stroke="black" fill="none" stroke-width="7.0" stroke-linecap="round" stroke-linejoin="round" />
<path d="M 139.5 143.5 L 138.5 143.5 L 137.0 143.5 L 137.0 143.5 L 137.5 143.0 L 140.0 142.0 L 142.5 142.0 L 145.0 142.0 L 146.5 142.0 " stroke="black" fill="none" stroke-width="7.0" stroke-linecap="round" stroke-linejoin="round" />
<path d="M 127.0 150.0 L 127.0 150.0 L 127.5 150.0 L 127.5 150.0 L 128.0 150.5 L 128.0 151.0 L 127.5 152.0 L 125.0 155.0 L 121.0 159.5 L 117.0 163.0 L 114.0 165.0 L 113.5 165.0 L 116.0 163.0 L 118.5 161.0 " stroke="black" fill="none" stroke-width="7.0" stroke-linecap="round" stroke-linejoin="round" />
<path d="M 122.0 161.0 L 122.0 161.0 L 121.5 160.0 L 121.5 159.5 L 121.5 159.5 L 121.5 159.5 L 122.0 160.0 L 122.5 163.5 L 123.5 170.0 L 124.5 179.0 L 124.5 185.0 L 125.0 186.5 L 125.0 184.0 L 125.0 183.0 " stroke="black" fill="none" stroke-width="7.0" stroke-linecap="round" stroke-linejoin="round" />
<path d="M 140.0 150.0 L 139.5 150.0 L 139.0 150.0 L 139.0 150.5 L 138.5 151.0 L 139.0 152.0 L 139.5 154.0 L 140.5 155.5 L 141.5 157.0 L 142.0 157.5 " stroke="black" fill="none" stroke-width="7.0" stroke-linecap="round" stroke-linejoin="round" />
<path d="M 134.0 165.0 L 133.5 164.5 L 132.5 164.5 L 132.5 164.5 L 133.0 164.0 L 135.5 164.0 L 138.5 163.0 L 142.0 162.5 L 145.5 162.5 L 147.5 162.0 " stroke="black" fill="none" stroke-width="7.0" stroke-linecap="round" stroke-linejoin="round" />
<path d="M 138.0 171.5 L 137.0 172.0 L 136.5 173.0 L 136.5 173.0 L 138.0 173.0 L 140.0 172.5 L 143.0 171.5 L 145.5 171.0 L 146.0 171.0 " stroke="black" fill="none" stroke-width="7.0" stroke-linecap="round" stroke-linejoin="round" />
<path d="M 138.0 182.0 L 138.5 181.5 L 138.5 181.5 L 140.0 181.0 L 142.5 180.5 L 144.0 180.5 " stroke="black" fill="none" stroke-width="7.0" stroke-linecap="round" stroke-linejoin="round" />
<path d="M 140.5 164.5 L 140.5 164.5 L 140.0 164.5 L 140.0 164.5 L 139.5 165.5 L 140.0 169.5 L 140.5 175.0 L 141.0 180.5 L 141.0 184.5 L 141.0 186.0 " stroke="black" fill="none" stroke-width="7.0" stroke-linecap="round" stroke-linejoin="round" />
<path d="M 134.5 192.5 L 134.5 192.5 L 134.0 192.5 L 134.0 193.0 L 135.0 192.5 L 138.0 191.5 L 143.0 190.5 L 148.0 189.5 L 152.0 188.5 L 153.0 188.5 " stroke="black" fill="none" stroke-width="7.0" stroke-linecap="round" stroke-linejoin="round" />
<path d="M 164.0 115.0 L 164.0 115.0 L 163.5 114.5 L 163.0 114.5 L 163.0 114.5 L 163.0 115.0 L 162.5 119.5 L 161.5 127.5 L 159.0 138.0 L 158.0 142.5 L 158.0 142.5 " stroke="black" fill="none" stroke-width="7.0" stroke-linecap="round" stroke-linejoin="round" />
<path d="M 164.0 127.0 L 163.5 127.0 L 162.5 127.5 L 161.5 128.0 L 161.5 128.0 L 162.0 127.5 L 164.5 126.0 L 168.5 124.0 L 172.5 122.5 L 177.5 120.5 L 180.5 120.0 L 181.5 120.0 L 181.5 120.0 L 181.0 121.0 L 181.0 122.5 L 180.5 124.0 L 180.5 126.0 L 180.0 128.0 L 179.5 130.5 L 179.5 131.5 " stroke="black" fill="none" stroke-width="7.0" stroke-linecap="round" stroke-linejoin="round" />
<path d="M 170.0 136.0 L 170.0 136.0 L 170.0 135.5 L 170.0 134.5 L 170.0 134.0 L 170.0 133.5 L 170.0 134.5 L 170.0 139.0 L 169.0 148.5 L 166.0 161.5 L 162.5 173.0 L 161.0 176.0 L 160.5 174.0 L 160.5 170.5 L 160.5 169.0 " stroke="black" fill="none" stroke-width="7.0" stroke-linecap="round" stroke-linejoin="round" />
<path d="M 169.0 155.0 L 169.0 156.0 L 168.5 157.0 L 168.5 158.5 L 171.5 163.0 L 176.5 169.5 L 182.5 175.0 L 187.0 178.0 L 189.0 178.5 " stroke="black" fill="none" stroke-width="7.0" stroke-linecap="round" stroke-linejoin="round" />
</svg>