<svg xmlns="http://www.w3.org/2000/svg" width="300" height="300" viewBox="0 0 300 300">
<path d="M 110.0 116.0 L 110.0 115.5 L 110.0 115.0 L 112.0 114.5 L 117.5 113.5 L 125.5 113.0 L 133.5 113.0 L 140.5 112.5 L 143.5 112.5 " stroke="black" fill="none" stroke-width="9.0" stroke-linecap="round" stroke-linejoin="round" />
<path d="M 111.5 143.5 L 111.5 143.5 L 111.5 143.5 L 111.5 143.0 L 114.5 143.0 L 121.0 141.5 L 129.0 139.5 L 138.0 136.0 L 140.0 134.5 " stroke="black" fill="none" stroke-width="9.0" stroke-linecap="round" stroke-linejoin="round" />
<path d="M 168.5 94.0 L 168.5 94.0 L 168.0 93.5 L 167.5 93.5 L 167.0 95.0 L 165.0 100.5 L 161.5 109.5 L 158.5 117.5 L 158.0 120.0 L 158.0 120.0 " stroke="black" fill="none" stroke-width="9.0" stroke-linecap="round" stroke-linejoin="round" />
<path d="M 167.0 104.5 L 166.5 104.5 L 164.5 105.0 L 163.0 106.5 L 163.0 107.0 L 164.0 107.5 L 166.5 108.0 L 171.5 108.0 L 178.0 108.0 L 186.5 107.0 L 195.0 105.5 L 201.5 104.5 L 205.5 104.0 L 205.5 104.0 L 205.0 104.0 L 204.5 104.5 L 204.0 105.5 L 203.0 107.5 L 201.5 110.5 L 199.5 115.0 L 197.0 120.0 L 195.0 124.5 L 194.5 126.5 L 194.5 126.5 " stroke="black" fill="none" stroke-width="9.0" stroke-linecap="round" stroke-linejoin="round" />
<path d="M 174.5 122.5 L 174.5 121.5 L 174.5 121.5 L 173.5 123.0 L 172.0 130.0 L 167.5 143.5 L 159.5 158.0 L 151.0 169.0 L 146.0 174.0 L 145.5 174.0 L 146.0 171.5 " stroke="black" fill="none" stroke-width="9.0" stroke-linecap="round" stroke-linejoin="round" />
<path d="M 165.0 158.0 L 164.5 158.0 L 164.5 158.5 L 167.5 160.5 L 176.5 165.0 L 189.0 170.5 L 198.5 174.0 L 204.5 175.5 " stroke="black" fill="none" stroke-width="9.0" stroke-linecap="round" stroke-linejoin="round" />
</svg>