<svg xmlns="http://www.w3.org/2000/svg" width="300" height="300" viewBox="0 0 300 300">
<path d="M 133.33333333333334 76.11111111111111 L 133.33333333333334 76.11111111111111 L 133.33333333333334 76.11111111111111 L 131.11111111111111 76.11111111111111 L 125.00000000000001 76.11111111111111 L 115.55555555555556 77.22222222222223 L 103.88888888888889 79.44444444444444 L 93.88888888888889 81.66666666666667 L 86.11111111111111 82.77777777777777 L 81.11111111111111 83.33333333333333 L 77.77777777777777 83.88888888888889 L 76.66666666666667 85.0 L 76.11111111111111 85.55555555555556 L 77.22222222222223 85.55555555555556 L 77.77777777777777 86.11111111111111 L 77.77777777777777 86.11111111111111 L 77.77777777777777 86.66666666666667 L 77.77777777777777 87.77777777777777 L 77.77777777777777 89.44444444444444 L 77.77777777777777 92.22222222222223 L 77.77777777777777 96.11111111111111 L 77.77777777777777 101.66666666666667 L 77.77777777777777 110.0 L 77.77777777777777 122.22222222222221 L 77.22222222222223 136.11111111111111 L 77.22222222222223 151.66666666666669 L 76.66666666666667 165.00000000000003 L 75.55555555555556 179.44444444444446 L 73.88888888888889 195.55555555555557 L 72.22222222222221 211.11111111111114 L 70.55555555555556 225.00000000000003 L 67.77777777777777 235.00000000000003 L 64.44444444444444 241.11111111111111 L 61.66666666666667 243.33333333333334 L 60.55555555555556 241.6666666666667 L 60.0 240.55555555555557 " stroke="black" fill="none" stroke-width="10.0" stroke-linecap="round" stroke-linejoin="round" />
<path d="M 86.11111111111111 118.33333333333333 L 86.11111111111111 118.33333333333333 L 86.11111111111111 117.77777777777779 L 86.66666666666667 117.22222222222221 L 86.66666666666667 117.22222222222221 L 93.88888888888889 114.44444444444444 L 104.44444444444444 111.66666666666667 L 117.77777777777779 110.0 L 127.22222222222221 110.55555555555556 L 131.66666666666669 113.33333333333333 L 132.22222222222223 117.77777777777779 L 132.22222222222223 122.77777777777779 L 130.55555555555557 131.11111111111111 L 128.8888888888889 142.22222222222223 L 127.77777777777779 151.11111111111111 L 126.1111111111111 156.66666666666669 L 126.1111111111111 157.22222222222223 L 126.1111111111111 156.11111111111111 " stroke="black" fill="none" stroke-width="10.0" stroke-linecap="round" stroke-linejoin="round" />
<path d="M 92.22222222222223 143.33333333333334 L 91.66666666666667 142.7777777777778 L 91.11111111111111 142.7777777777778 L 92.22222222222223 142.22222222222223 L 96.66666666666667 141.11111111111111 L 105.0 140.00000000000003 L 115.00000000000001 138.8888888888889 L 122.77777777777779 138.8888888888889 L 125.55555555555556 140.55555555555557 L 125.55555555555556 141.11111111111111 " stroke="black" fill="none" stroke-width="10.0" stroke-linecap="round" stroke-linejoin="round" />
<path d="M 92.77777777777777 161.11111111111111 L 92.77777777777777 161.11111111111111 L 92.22222222222223 161.11111111111111 L 92.22222222222223 161.11111111111111 L 93.88888888888889 161.11111111111111 L 100.55555555555556 161.11111111111111 L 111.66666666666667 159.44444444444446 L 122.22222222222221 157.7777777777778 L 126.66666666666667 157.7777777777778 " stroke="black" fill="none" stroke-width="10.0" stroke-linecap="round" stroke-linejoin="round" />
<path d="M 83.88888888888889 191.66666666666669 L 83.88888888888889 191.66666666666669 L 83.88888888888889 191.11111111111114 L 85.0 191.11111111111114 L 87.22222222222223 190.55555555555557 L 95.0 189.44444444444446 L 107.22222222222223 188.8888888888889 L 120.00000000000001 189.44444444444446 L 127.77777777777779 191.11111111111114 L 131.66666666666669 193.8888888888889 L 132.7777777777778 198.8888888888889 L 132.7777777777778 205.55555555555557 L 132.22222222222223 213.33333333333334 L 131.11111111111111 221.11111111111114 L 128.8888888888889 228.33333333333334 L 125.55555555555556 232.7777777777778 L 122.22222222222221 235.55555555555557 L 117.77777777777779 235.55555555555557 L 112.22222222222221 231.66666666666669 L 107.77777777777779 224.44444444444446 " stroke="black" fill="none" stroke-width="10.0" stroke-linecap="round" stroke-linejoin="round" />
<path d="M 159.44444444444446 83.88888888888889 L 159.44444444444446 83.88888888888889 L 159.44444444444446 83.33333333333333 L 160.00000000000003 83.33333333333333 L 160.55555555555557 83.33333333333333 L 161.11111111111111 87.22222222222223 L 161.11111111111111 100.0 L 158.33333333333334 121.1111111111111 L 153.33333333333334 136.11111111111111 L 150.00000000000003 143.33333333333334 L 149.44444444444446 143.8888888888889 L 149.44444444444446 142.22222222222223 L 149.44444444444446 141.66666666666669 " stroke="black" fill="none" stroke-width="10.0" stroke-linecap="round" stroke-linejoin="round" />
<path d="M 159.44444444444446 81.66666666666667 L 158.8888888888889 82.22222222222223 L 158.33333333333334 82.77777777777777 L 158.8888888888889 82.77777777777777 L 162.7777777777778 82.77777777777777 L 170.00000000000003 81.66666666666667 L 180.55555555555557 80.0 L 190.00000000000003 79.44444444444444 L 195.00000000000003 81.11111111111111 L 196.66666666666669 84.44444444444444 L 196.66666666666669 87.77777777777777 L 196.66666666666669 92.22222222222223 L 195.55555555555557 100.0 L 193.8888888888889 111.66666666666667 L 192.22222222222223 123.8888888888889 L 191.66666666666669 132.22222222222223 L 192.7777777777778 136.11111111111111 L 195.55555555555557 138.33333333333334 L 199.44444444444446 139.44444444444446 L 205.55555555555557 138.8888888888889 L 212.22222222222223 136.11111111111111 L 218.33333333333334 132.7777777777778 L 221.11111111111114 129.44444444444446 L 221.11111111111114 128.33333333333334 " stroke="black" fill="none" stroke-width="10.0" stroke-linecap="round" stroke-linejoin="round" />
<path d="M 157.22222222222223 168.8888888888889 L 157.22222222222223 168.33333333333334 L 157.7777777777778 167.7777777777778 L 158.33333333333334 167.22222222222223 L 160.00000000000003 166.66666666666669 L 166.11111111111114 166.66666666666669 L 175.00000000000003 166.66666666666669 L 186.11111111111114 167.7777777777778 L 196.11111111111114 170.00000000000003 L 201.66666666666669 172.22222222222223 L 202.22222222222223 174.44444444444446 L 202.22222222222223 176.66666666666669 L 200.00000000000003 180.55555555555557 L 197.22222222222223 187.22222222222223 L 192.7777777777778 196.66666666666669 L 186.11111111111114 208.8888888888889 L 178.33333333333334 221.11111111111114 L 170.00000000000003 232.22222222222226 L 163.33333333333334 240.55555555555557 L 158.33333333333334 244.44444444444449 L 157.22222222222223 244.44444444444449 L 157.22222222222223 242.22222222222226 " stroke="black" fill="none" stroke-width="10.0" stroke-linecap="round" stroke-linejoin="round" />
<path d="M 160.00000000000003 186.11111111111114 L 160.00000000000003 186.11111111111114 L 160.00000000000003 185.55555555555557 L 160.00000000000003 185.55555555555557 L 160.00000000000003 185.55555555555557 L 161.66666666666669 186.66666666666669 L 167.7777777777778 192.7777777777778 L 178.33333333333334 203.8888888888889 L 191.11111111111114 216.11111111111114 L 203.8888888888889 225.55555555555557 L 213.33333333333334 231.66666666666669 L 221.11111111111114 235.55555555555557 L 226.66666666666669 238.33333333333334 L 231.11111111111114 238.8888888888889 L 232.22222222222226 237.7777777777778 " stroke="black" fill="none" stroke-width="10.0" stroke-linecap="round" stroke-linejoin="round" />
</svg>