<svg xmlns="http://www.w3.org/2000/svg" width="300" height="300" viewBox="0 0 300 300">
<path d="M 151.0 69.0 L 151.0 72.0 L 150.0 75.0 L 150.0 82.0 L 152.0 94.0 L 153.0 103.0 L 153.0 107.0 L 153.0 107.0 " stroke="black" fill="none" stroke-width="11.0" stroke-linecap="round" stroke-linejoin="round" />
<path d="M 158.0 91.0 L 157.0 91.0 L 157.0 91.0 L 159.0 91.0 L 168.0 91.0 L 183.0 91.0 L 197.0 90.0 L 205.0 89.0 " stroke="black" fill="none" stroke-width="11.0" stroke-linecap="round" stroke-linejoin="round" />
<path d="M 98.0 82.0 L 96.0 83.0 L 96.0 86.0 L 97.0 91.0 L 100.0 98.0 L 100.0 104.0 L 100.0 110.0 " stroke="black" fill="none" stroke-width="11.0" stroke-linecap="round" stroke-linejoin="round" />
<path d="M 83.0 119.0 L 82.0 119.0 L 81.0 119.0 L 81.0 119.0 L 81.0 117.0 L 84.0 115.0 L 92.0 114.0 L 106.0 114.0 L 128.0 114.0 L 154.0 114.0 L 178.0 114.0 L 196.0 115.0 L 211.0 117.0 L 224.0 118.0 L 235.0 115.0 L 242.0 113.0 L 244.0 113.0 L 241.0 115.0 L 240.0 115.0 " stroke="black" fill="none" stroke-width="11.0" stroke-linecap="round" stroke-linejoin="round" />
<path d="M 226.0 157.0 L 223.0 156.0 L 219.0 154.0 L 213.0 153.0 L 203.0 152.0 L 191.0 152.0 L 177.0 152.0 L 160.0 152.0 L 143.0 152.0 L 128.0 153.0 L 112.0 153.0 L 99.0 151.0 L 90.0 149.0 L 82.0 148.0 L 76.0 148.0 L 75.0 149.0 L 75.0 149.0 L 76.0 149.0 L 76.0 149.0 L 76.0 150.0 L 76.0 152.0 L 76.0 155.0 L 76.0 160.0 L 76.0 167.0 L 76.0 180.0 L 74.0 199.0 L 70.0 221.0 L 66.0 240.0 L 62.0 251.0 L 57.0 257.0 L 50.0 261.0 L 45.0 262.0 L 44.0 257.0 " stroke="black" fill="none" stroke-width="11.0" stroke-linecap="round" stroke-linejoin="round" />
<path d="M 172.0 137.0 L 171.0 135.0 L 171.0 132.0 L 172.0 131.0 L 175.0 134.0 L 179.0 147.0 L 183.0 172.0 L 188.0 211.0 L 198.0 242.0 L 212.0 258.0 L 224.0 260.0 L 231.0 253.0 L 234.0 246.0 L 234.0 242.0 L 233.0 240.0 " stroke="black" fill="none" stroke-width="11.0" stroke-linecap="round" stroke-linejoin="round" />
<path d="M 220.0 177.0 L 220.0 173.0 L 218.0 171.0 L 217.0 171.0 L 213.0 178.0 L 207.0 192.0 L 195.0 212.0 L 180.0 234.0 L 169.0 244.0 L 168.0 244.0 L 168.0 242.0 " stroke="black" fill="none" stroke-width="11.0" stroke-linecap="round" stroke-linejoin="round" />
<path d="M 105.0 178.0 L 105.0 178.0 L 104.0 178.0 L 104.0 178.0 L 106.0 177.0 L 115.0 176.0 L 130.0 176.0 L 146.0 175.0 L 157.0 176.0 L 160.0 176.0 " stroke="black" fill="none" stroke-width="11.0" stroke-linecap="round" stroke-linejoin="round" />
<path d="M 135.0 180.0 L 135.0 180.0 L 134.0 179.0 L 134.0 179.0 L 134.0 184.0 L 134.0 195.0 L 134.0 211.0 L 135.0 220.0 L 135.0 221.0 " stroke="black" fill="none" stroke-width="11.0" stroke-linecap="round" stroke-linejoin="round" />
<path d="M 107.0 197.0 L 107.0 196.0 L 107.0 194.0 L 107.0 194.0 L 105.0 199.0 L 102.0 209.0 L 98.0 219.0 L 96.0 224.0 L 96.0 225.0 " stroke="black" fill="none" stroke-width="11.0" stroke-linecap="round" stroke-linejoin="round" />
<path d="M 159.0 198.0 L 159.0 199.0 L 157.0 200.0 L 155.0 201.0 L 152.0 205.0 L 145.0 220.0 L 129.0 239.0 L 111.0 251.0 L 101.0 249.0 L 100.0 244.0 " stroke="black" fill="none" stroke-width="11.0" stroke-linecap="round" stroke-linejoin="round" />
<path d="M 210.0 138.0 L 208.0 137.0 L 206.0 136.0 L 207.0 136.0 L 212.0 136.0 L 219.0 140.0 L 225.0 144.0 L 228.0 145.0 " stroke="black" fill="none" stroke-width="11.0" stroke-linecap="round" stroke-linejoin="round" />
</svg>