<svg xmlns="http://www.w3.org/2000/svg" width="300" height="300" viewBox="0 0 300 300">
<path d="M 162.0 106.5 L 162.0 106.0 L 162.5 105.5 L 162.5 105.5 L 162.5 105.0 L 162.5 105.0 L 163.0 107.0 L 163.0 112.0 L 163.0 124.5 L 163.0 141.5 L 163.0 156.5 L 163.0 166.0 L 163.5 169.5 L 163.5 170.0 L 163.5 170.0 L 163.5 170.0 L 163.5 170.0 " stroke="black" fill="none" stroke-width="8.0" stroke-linecap="round" stroke-linejoin="round" />
<path d="M 167.0 140.0 L 166.5 140.0 L 165.0 140.0 L 164.0 140.5 L 163.5 140.5 L 164.5 140.5 L 168.5 140.5 L 173.0 140.5 L 178.0 140.5 L 182.0 140.5 L 185.5 140.5 L 186.0 140.5 " stroke="black" fill="none" stroke-width="8.0" stroke-linecap="round" stroke-linejoin="round" />
<path d="M 133.0 124.0 L 133.0 123.5 L 133.0 123.5 L 133.0 123.5 L 133.0 126.5 L 133.5 132.0 L 134.0 142.5 L 135.0 155.0 L 135.0 167.5 L 135.5 173.5 L 136.0 175.0 L 136.0 174.5 " stroke="black" fill="none" stroke-width="8.0" stroke-linecap="round" stroke-linejoin="round" />
<path d="M 102.0 183.0 L 101.0 183.0 L 100.0 183.0 L 100.0 183.0 L 101.5 183.0 L 104.5 183.0 L 110.0 182.5 L 118.5 182.0 L 131.5 180.5 L 146.5 179.0 L 159.5 178.0 L 169.5 178.0 L 177.5 178.5 L 185.5 179.0 L 192.5 179.0 L 198.0 179.0 L 200.5 179.0 L 201.0 179.0 L 201.0 179.0 L 201.0 179.0 L 201.0 178.5 L 201.0 178.5 L 201.0 178.5 L 201.0 178.5 L 201.0 178.5 L 201.0 178.5 L 201.0 178.5 " stroke="black" fill="none" stroke-width="8.0" stroke-linecap="round" stroke-linejoin="round" />
</svg>