<svg xmlns="http://www.w3.org/2000/svg" width="300" height="300" viewBox="0 0 300 300">
<path d="M 110.0 103.0 L 110.0 103.0 L 109.5 103.0 L 109.5 102.5 L 111.5 102.0 L 121.5 102.0 L 139.0 102.0 L 158.5 102.0 L 177.0 102.0 L 190.5 101.0 L 197.5 101.0 L 197.0 102.0 L 196.0 102.5 " stroke="black" fill="none" stroke-width="9.0" stroke-linecap="round" stroke-linejoin="round" />
<path d="M 164.0 109.0 L 164.0 109.0 L 163.0 108.5 L 163.0 108.5 L 163.5 111.0 L 164.5 121.0 L 165.0 139.5 L 164.0 159.5 L 161.5 173.0 L 161.0 176.5 L 161.0 173.5 " stroke="black" fill="none" stroke-width="9.0" stroke-linecap="round" stroke-linejoin="round" />
<path d="M 166.0 152.0 L 165.5 152.0 L 165.0 152.0 L 167.0 151.5 L 173.5 150.0 L 182.0 148.5 L 189.5 148.0 L 194.0 148.0 L 195.0 148.0 " stroke="black" fill="none" stroke-width="9.0" stroke-linecap="round" stroke-linejoin="round" />
<path d="M 130.0 144.0 L 130.0 144.0 L 130.0 143.0 L 130.0 142.5 L 130.5 144.5 L 132.0 153.5 L 133.5 168.5 L 134.5 178.5 L 134.5 180.5 " stroke="black" fill="none" stroke-width="9.0" stroke-linecap="round" stroke-linejoin="round" />
<path d="M 115.5 187.5 L 116.0 186.5 L 116.5 186.0 L 122.0 186.0 L 137.5 186.0 L 157.5 186.0 L 175.5 186.5 L 192.5 186.5 L 206.0 187.0 L 213.5 187.0 L 213.5 187.0 " stroke="black" fill="none" stroke-width="9.0" stroke-linecap="round" stroke-linejoin="round" />
</svg>