<svg xmlns="http://www.w3.org/2000/svg" width="300" height="300" viewBox="0 0 300 300">
<path d="M 118.5 118.5 L 118.0 117.5 L 117.5 116.5 L 117.5 116.5 L 118.0 116.5 L 120.0 118.5 L 122.0 121.0 L 124.0 123.0 L 125.5 125.0 L 126.0 125.5 " stroke="black" fill="none" stroke-width="6.0" stroke-linecap="round" stroke-linejoin="round" />
<path d="M 121.5 145.0 L 120.5 145.0 L 120.0 145.0 L 119.5 145.5 L 120.0 145.5 L 122.0 146.5 L 124.0 148.0 L 126.0 149.5 L 128.0 151.0 " stroke="black" fill="none" stroke-width="6.0" stroke-linecap="round" stroke-linejoin="round" />
<path d="M 117.5 177.5 L 117.5 177.5 L 117.5 177.5 L 117.5 176.0 L 121.0 172.5 L 125.5 167.0 L 131.5 160.0 L 136.0 155.0 " stroke="black" fill="none" stroke-width="6.0" stroke-linecap="round" stroke-linejoin="round" />
<path d="M 153.5 109.5 L 153.5 109.5 L 154.5 109.5 L 154.5 109.5 L 155.0 110.0 L 155.0 113.5 L 153.5 121.5 L 152.5 129.0 L 152.5 133.5 L 152.0 134.5 " stroke="black" fill="none" stroke-width="6.0" stroke-linecap="round" stroke-linejoin="round" />
<path d="M 152.0 129.0 L 152.0 129.0 L 152.0 129.0 L 152.5 129.0 L 155.0 127.5 L 159.5 125.5 L 164.5 124.5 L 169.5 124.5 L 171.0 124.5 " stroke="black" fill="none" stroke-width="6.0" stroke-linecap="round" stroke-linejoin="round" />
<path d="M 147.5 143.5 L 147.0 142.5 L 146.5 141.5 L 146.5 141.5 L 146.5 143.5 L 146.5 149.5 L 146.5 158.0 L 148.0 164.0 L 149.0 166.0 " stroke="black" fill="none" stroke-width="6.0" stroke-linecap="round" stroke-linejoin="round" />
<path d="M 148.5 146.0 L 146.5 145.5 L 146.0 145.0 L 146.0 145.0 L 148.0 144.5 L 152.0 143.0 L 157.5 141.0 L 165.0 139.5 L 171.0 139.0 L 174.0 140.0 L 174.0 142.0 L 174.0 145.5 L 173.0 150.0 L 172.0 155.5 L 170.5 161.0 L 169.5 165.0 L 169.0 166.5 L 168.5 166.5 " stroke="black" fill="none" stroke-width="6.0" stroke-linecap="round" stroke-linejoin="round" />
<path d="M 148.5 173.5 L 147.5 174.0 L 147.0 174.5 L 148.0 174.5 L 153.5 173.5 L 161.5 171.5 L 169.5 170.5 L 173.0 170.5 " stroke="black" fill="none" stroke-width="6.0" stroke-linecap="round" stroke-linejoin="round" />
</svg>