<svg xmlns="http://www.w3.org/2000/svg" width="300" height="300" viewBox="0 0 300 300">
<path d="M 125.0 120.5 L 125.0 120.0 L 124.0 118.0 L 123.5 116.5 L 123.0 116.0 L 123.0 116.0 L 124.0 118.0 L 126.5 121.5 L 129.0 124.5 L 131.0 127.0 L 132.0 128.0 L 132.5 128.5 " stroke="black" fill="none" stroke-width="6.0" stroke-linecap="round" stroke-linejoin="round" />
<path d="M 125.0 144.5 L 124.5 144.5 L 123.5 144.5 L 123.0 144.5 L 123.5 144.5 L 125.5 146.5 L 128.5 149.0 L 131.5 151.5 L 133.0 154.0 L 133.0 155.0 " stroke="black" fill="none" stroke-width="6.0" stroke-linecap="round" stroke-linejoin="round" />
<path d="M 119.0 180.5 L 119.0 180.5 L 119.0 180.5 L 120.0 180.5 L 123.0 178.0 L 128.0 173.0 L 133.0 168.0 L 134.5 166.0 " stroke="black" fill="none" stroke-width="6.0" stroke-linecap="round" stroke-linejoin="round" />
<path d="M 150.5 116.0 L 150.5 116.0 L 149.5 116.0 L 148.5 116.0 L 148.0 116.0 L 148.5 116.0 L 151.0 116.0 L 155.5 114.5 L 162.0 113.5 L 169.0 112.5 L 174.5 112.0 L 176.0 112.0 L 175.5 117.0 L 174.5 121.0 L 174.0 125.0 L 174.0 128.0 L 173.5 129.5 L 173.0 131.0 L 172.0 131.0 " stroke="black" fill="none" stroke-width="6.0" stroke-linecap="round" stroke-linejoin="round" />
<path d="M 151.0 136.5 L 150.0 137.0 L 150.0 137.0 L 151.0 137.0 L 155.5 135.5 L 161.5 134.0 L 166.5 133.5 L 169.5 133.0 " stroke="black" fill="none" stroke-width="6.0" stroke-linecap="round" stroke-linejoin="round" />
<path d="M 152.0 115.0 L 152.5 115.0 L 153.5 115.0 L 153.5 115.0 L 153.5 116.0 L 152.5 121.5 L 150.5 133.5 L 148.0 149.0 L 146.0 163.0 L 144.0 173.0 L 142.0 179.5 L 140.5 183.0 L 140.5 183.0 L 139.5 181.5 " stroke="black" fill="none" stroke-width="6.0" stroke-linecap="round" stroke-linejoin="round" />
<path d="M 172.0 146.0 L 172.0 146.0 L 171.5 146.0 L 171.5 146.0 L 171.0 146.5 L 170.0 148.5 L 169.0 153.0 L 167.0 157.0 L 166.0 158.5 " stroke="black" fill="none" stroke-width="6.0" stroke-linecap="round" stroke-linejoin="round" />
<path d="M 155.0 148.0 L 155.5 148.0 L 156.0 148.0 L 156.5 148.0 L 156.5 148.0 L 156.5 151.5 L 156.0 159.0 L 155.0 168.5 L 155.0 176.0 L 156.5 179.5 L 159.5 180.5 L 164.5 180.5 L 170.0 179.5 L 176.0 178.0 L 181.0 176.0 L 183.5 174.5 L 184.0 173.5 L 183.0 171.5 L 181.0 170.0 L 180.0 168.5 L 180.0 167.5 L 180.0 167.0 L 180.0 167.0 " stroke="black" fill="none" stroke-width="6.0" stroke-linecap="round" stroke-linejoin="round" />
</svg>