<svg xmlns="http://www.w3.org/2000/svg" width="300" height="300" viewBox="0 0 300 300">
<path d="M 125.5 120.5 L 125.5 120.0 L 125.5 119.5 L 125.5 120.0 L 125.5 122.5 L 126.0 126.5 L 127.5 130.5 L 129.5 133.5 L 130.5 135.5 " stroke="black" fill="none" stroke-width="6.0" stroke-linecap="round" stroke-linejoin="round" />
<path d="M 119.5 150.0 L 119.5 150.0 L 118.5 150.0 L 118.5 150.0 L 118.5 150.0 L 120.0 150.0 L 122.5 151.0 L 124.5 152.0 L 126.5 153.5 L 127.5 155.0 L 128.0 155.5 " stroke="black" fill="none" stroke-width="6.0" stroke-linecap="round" stroke-linejoin="round" />
<path d="M 117.0 180.5 L 117.0 181.0 L 116.5 181.0 L 116.5 181.0 L 117.0 181.0 L 120.0 179.0 L 124.5 175.5 L 129.5 171.5 L 132.0 168.5 " stroke="black" fill="none" stroke-width="6.0" stroke-linecap="round" stroke-linejoin="round" />
<path d="M 139.0 130.5 L 138.5 130.5 L 138.0 130.5 L 141.5 129.5 L 149.5 128.5 L 158.5 127.0 L 165.5 127.0 L 168.5 127.5 L 169.0 127.5 L 169.0 127.5 L 169.0 127.5 L 169.0 127.5 " stroke="black" fill="none" stroke-width="6.0" stroke-linecap="round" stroke-linejoin="round" />
<path d="M 154.5 131.0 L 155.0 131.0 L 155.5 131.0 L 155.5 131.5 L 156.0 133.0 L 156.0 137.5 L 156.0 144.5 L 156.0 153.0 L 156.0 159.0 L 156.0 161.0 L 156.5 161.5 L 156.0 161.0 " stroke="black" fill="none" stroke-width="6.0" stroke-linecap="round" stroke-linejoin="round" />
<path d="M 138.0 165.5 L 139.5 164.5 L 140.5 164.0 L 144.0 163.5 L 149.0 163.5 L 155.5 163.5 L 162.0 163.0 L 169.0 162.5 L 174.0 162.5 L 178.0 162.5 L 179.5 162.5 L 180.0 163.0 " stroke="black" fill="none" stroke-width="6.0" stroke-linecap="round" stroke-linejoin="round" />
</svg>