<svg xmlns="http://www.w3.org/2000/svg" width="300" height="300" viewBox="0 0 300 300">
<path d="M 116.66666666666667 108.88888888888889 L 115.00000000000001 109.44444444444444 L 114.44444444444444 110.0 L 116.66666666666667 111.11111111111111 L 119.44444444444444 114.44444444444444 L 122.22222222222221 117.77777777777779 L 123.8888888888889 119.44444444444444 L 124.44444444444444 120.00000000000001 L 124.44444444444444 120.00000000000001 " stroke="black" fill="none" stroke-width="7.0" stroke-linecap="round" stroke-linejoin="round" />
<path d="M 117.22222222222221 133.8888888888889 L 116.1111111111111 134.44444444444446 L 115.55555555555556 135.00000000000003 L 116.66666666666667 136.11111111111111 L 118.8888888888889 137.7777777777778 L 121.1111111111111 140.00000000000003 L 122.77777777777779 142.22222222222223 L 123.8888888888889 143.8888888888889 " stroke="black" fill="none" stroke-width="7.0" stroke-linecap="round" stroke-linejoin="round" />
<path d="M 111.66666666666667 175.55555555555557 L 111.66666666666667 175.55555555555557 L 111.66666666666667 175.55555555555557 L 112.22222222222221 175.55555555555557 L 114.44444444444444 174.44444444444446 L 118.33333333333333 170.55555555555557 L 123.8888888888889 165.55555555555557 L 127.77777777777779 160.55555555555557 L 128.33333333333334 158.8888888888889 " stroke="black" fill="none" stroke-width="7.0" stroke-linecap="round" stroke-linejoin="round" />
<path d="M 151.11111111111111 107.77777777777779 L 151.11111111111111 107.77777777777779 L 151.11111111111111 107.22222222222223 L 151.66666666666669 106.66666666666667 L 151.66666666666669 106.66666666666667 L 150.55555555555557 112.77777777777779 L 147.7777777777778 120.55555555555556 L 143.8888888888889 128.33333333333334 L 141.11111111111111 133.33333333333334 L 140.00000000000003 134.44444444444446 L 140.00000000000003 134.44444444444446 L 140.55555555555557 133.8888888888889 L 142.22222222222223 132.7777777777778 L 144.44444444444446 131.66666666666669 L 147.22222222222223 131.11111111111111 L 151.11111111111111 130.55555555555557 L 156.11111111111111 130.55555555555557 L 161.66666666666669 130.00000000000003 L 165.55555555555557 129.44444444444446 L 167.7777777777778 129.44444444444446 L 168.33333333333334 129.44444444444446 " stroke="black" fill="none" stroke-width="7.0" stroke-linecap="round" stroke-linejoin="round" />
<path d="M 162.22222222222223 123.8888888888889 L 162.22222222222223 123.33333333333333 L 162.22222222222223 123.33333333333333 L 162.22222222222223 123.33333333333333 L 163.33333333333334 123.8888888888889 L 166.11111111111114 127.22222222222221 L 168.8888888888889 131.66666666666669 L 170.55555555555557 135.55555555555557 L 172.7777777777778 138.33333333333334 " stroke="black" fill="none" stroke-width="7.0" stroke-linecap="round" stroke-linejoin="round" />
<path d="M 144.44444444444446 150.55555555555557 L 144.44444444444446 150.55555555555557 L 143.8888888888889 150.00000000000003 L 143.33333333333334 150.00000000000003 L 143.33333333333334 152.7777777777778 L 143.33333333333334 158.8888888888889 L 143.8888888888889 166.66666666666669 L 145.00000000000003 171.11111111111114 L 146.11111111111111 171.11111111111114 " stroke="black" fill="none" stroke-width="7.0" stroke-linecap="round" stroke-linejoin="round" />
<path d="M 144.44444444444446 151.66666666666669 L 144.44444444444446 151.66666666666669 L 143.33333333333334 151.66666666666669 L 142.7777777777778 151.66666666666669 L 143.8888888888889 151.66666666666669 L 146.66666666666669 150.00000000000003 L 151.11111111111111 148.8888888888889 L 156.11111111111111 147.7777777777778 L 161.66666666666669 147.22222222222223 L 166.66666666666669 147.22222222222223 L 170.00000000000003 148.8888888888889 L 171.11111111111114 151.11111111111111 L 171.11111111111114 153.33333333333334 L 170.55555555555557 156.66666666666669 L 170.00000000000003 161.11111111111111 L 169.44444444444446 165.55555555555557 L 168.8888888888889 168.8888888888889 L 168.33333333333334 170.00000000000003 L 167.7777777777778 170.55555555555557 " stroke="black" fill="none" stroke-width="7.0" stroke-linecap="round" stroke-linejoin="round" />
<path d="M 149.44444444444446 176.11111111111114 L 148.8888888888889 176.66666666666669 L 148.33333333333334 176.66666666666669 L 148.8888888888889 176.66666666666669 L 153.33333333333334 176.66666666666669 L 160.00000000000003 176.66666666666669 L 166.66666666666669 176.66666666666669 L 170.55555555555557 175.00000000000003 " stroke="black" fill="none" stroke-width="7.0" stroke-linecap="round" stroke-linejoin="round" />
</svg>