<svg xmlns="http://www.w3.org/2000/svg" width="300" height="300" viewBox="0 0 300 300">
<path d="M 127.0 119.0 L 126.5 119.0 L 126.0 119.0 L 125.5 119.0 L 127.5 119.0 L 135.0 119.0 L 147.0 119.0 L 158.0 119.5 L 164.5 120.0 L 167.0 120.0 L 166.0 120.0 L 165.5 120.0 " stroke="black" fill="none" stroke-width="7.0" stroke-linecap="round" stroke-linejoin="round" />
<path d="M 150.5 99.5 L 150.5 99.0 L 150.0 98.0 L 149.5 97.5 L 149.5 97.5 L 149.5 100.0 L 149.5 106.0 L 149.5 116.0 L 149.0 132.0 L 148.5 147.0 L 148.0 159.0 L 147.5 169.5 L 147.5 177.5 L 147.5 182.0 L 147.5 184.0 L 147.5 183.5 L 147.0 183.0 L 145.0 182.0 L 142.5 180.0 L 139.5 179.0 L 137.0 178.0 L 137.0 178.0 " stroke="black" fill="none" stroke-width="7.0" stroke-linecap="round" stroke-linejoin="round" />
<path d="M 126.5 135.5 L 126.5 135.5 L 126.0 135.5 L 126.0 135.5 L 126.5 136.5 L 129.5 138.5 L 132.0 141.0 L 134.5 143.0 L 135.5 143.5 " stroke="black" fill="none" stroke-width="7.0" stroke-linecap="round" stroke-linejoin="round" />
<path d="M 121.0 165.5 L 120.5 166.0 L 120.0 166.5 L 120.0 166.5 L 122.5 165.5 L 127.5 161.5 L 133.0 156.0 L 138.0 152.0 " stroke="black" fill="none" stroke-width="7.0" stroke-linecap="round" stroke-linejoin="round" />
<path d="M 169.5 132.0 L 169.5 132.0 L 169.0 132.0 L 168.5 132.0 L 168.0 132.5 L 166.5 134.0 L 164.0 137.5 L 163.0 139.0 " stroke="black" fill="none" stroke-width="7.0" stroke-linecap="round" stroke-linejoin="round" />
<path d="M 155.0 140.5 L 155.0 140.5 L 154.5 140.0 L 154.5 140.0 L 156.0 143.5 L 159.0 150.5 L 164.5 159.5 L 171.5 165.0 L 178.5 165.5 L 183.0 164.5 " stroke="black" fill="none" stroke-width="7.0" stroke-linecap="round" stroke-linejoin="round" />
<path d="M 169.0 105.0 L 168.5 105.0 L 168.0 104.0 L 168.0 104.0 L 170.0 105.0 L 173.0 107.0 L 173.5 107.0 " stroke="black" fill="none" stroke-width="7.0" stroke-linecap="round" stroke-linejoin="round" />
</svg>