<svg xmlns="http://www.w3.org/2000/svg" width="300" height="300" viewBox="0 0 300 300">
<path d="M 88.5 95.5 L 88.5 95.0 L 89.0 94.0 L 90.5 93.0 L 93.5 92.5 L 101.5 92.5 L 115.0 93.0 L 132.0 93.0 L 150.5 91.5 L 168.0 90.0 L 179.0 90.0 L 187.0 91.0 L 192.0 92.0 L 194.0 92.0 L 194.5 92.5 L 194.5 92.5 L 194.5 92.5 L 194.5 92.5 L 195.0 92.5 L 195.5 92.5 L 196.0 93.5 L 196.0 95.5 L 196.0 99.0 L 195.0 105.0 L 194.5 112.5 L 194.0 118.5 L 194.0 122.0 L 193.5 124.0 L 192.5 125.5 L 192.0 127.0 L 192.0 127.0 " stroke="black" fill="none" stroke-width="10.0" stroke-linecap="round" stroke-linejoin="round" />
<path d="M 100.5 131.0 L 99.5 131.0 L 99.0 130.0 L 99.5 129.5 L 102.0 129.0 L 105.5 128.5 L 113.0 128.5 L 125.0 129.0 L 139.0 129.0 L 153.0 128.5 L 166.5 128.5 L 176.0 128.5 L 184.5 128.5 L 188.5 128.5 L 188.5 129.0 L 187.5 129.5 L 187.0 129.5 " stroke="black" fill="none" stroke-width="10.0" stroke-linecap="round" stroke-linejoin="round" />
<path d="M 97.5 103.0 L 97.5 102.0 L 97.0 100.5 L 97.0 100.0 L 96.5 99.5 L 97.0 100.5 L 98.0 103.5 L 98.5 108.5 L 99.0 118.0 L 99.0 131.5 L 98.0 145.5 L 98.0 159.0 L 98.0 172.5 L 97.0 185.5 L 95.5 198.0 L 94.0 209.5 L 92.5 219.0 L 91.5 225.0 L 90.0 229.0 L 89.0 230.5 L 88.0 232.0 L 87.5 234.0 L 87.0 235.5 L 87.0 236.0 L 87.0 236.0 L 87.0 236.0 L 87.0 235.5 L 88.0 234.5 L 88.5 233.5 L 90.0 233.0 L 91.0 232.0 L 93.5 230.5 L 97.0 228.5 L 103.0 224.5 L 112.0 219.5 L 122.0 215.0 L 127.5 213.0 L 129.0 212.5 " stroke="black" fill="none" stroke-width="10.0" stroke-linecap="round" stroke-linejoin="round" />
<path d="M 103.5 176.5 L 102.0 176.5 L 101.5 176.5 L 102.0 176.0 L 105.5 176.0 L 112.5 177.0 L 124.0 178.5 L 142.0 179.5 L 161.0 179.0 L 176.0 177.0 L 186.0 176.0 L 191.5 175.5 L 193.5 175.5 L 194.5 175.0 L 195.0 174.5 L 195.0 174.0 " stroke="black" fill="none" stroke-width="10.0" stroke-linecap="round" stroke-linejoin="round" />
<path d="M 148.0 146.0 L 147.5 145.5 L 146.5 145.5 L 146.5 145.5 L 146.5 147.0 L 147.5 152.0 L 149.0 162.5 L 152.5 176.5 L 157.5 192.0 L 163.5 203.0 L 169.5 212.0 L 175.0 218.0 L 180.5 222.5 L 185.0 225.0 L 188.5 227.5 L 191.0 230.0 L 193.5 231.5 L 195.0 232.0 L 196.0 232.0 L 196.0 232.0 L 197.0 231.0 L 198.0 230.5 L 199.5 229.5 L 200.5 227.0 L 201.5 223.5 L 202.0 220.0 L 202.0 217.0 L 201.5 215.0 L 201.0 214.5 L 200.5 214.5 " stroke="black" fill="none" stroke-width="10.0" stroke-linecap="round" stroke-linejoin="round" />
</svg>