<svg xmlns="http://www.w3.org/2000/svg" width="300" height="300" viewBox="0 0 300 300">
<path d="M 76.66666666666667 79.44444444444444 L 76.11111111111111 79.44444444444444 L 76.11111111111111 79.44444444444444 L 76.66666666666667 80.55555555555556 L 81.66666666666667 84.44444444444444 L 89.44444444444444 90.0 L 95.55555555555556 94.44444444444444 L 97.77777777777777 96.66666666666667 " stroke="black" fill="none" stroke-width="11.0" stroke-linecap="round" stroke-linejoin="round" />
<path d="M 70.55555555555556 145.55555555555557 L 70.0 144.44444444444446 L 69.44444444444444 142.7777777777778 L 69.44444444444444 142.22222222222223 L 70.55555555555556 142.22222222222223 L 73.33333333333333 143.8888888888889 L 78.33333333333333 148.33333333333334 L 85.0 155.00000000000003 L 91.66666666666667 161.66666666666669 L 96.11111111111111 166.11111111111114 L 96.66666666666667 166.66666666666669 " stroke="black" fill="none" stroke-width="11.0" stroke-linecap="round" stroke-linejoin="round" />
<path d="M 80.55555555555556 235.55555555555557 L 81.66666666666667 237.7777777777778 L 82.22222222222223 237.7777777777778 L 83.33333333333333 235.00000000000003 L 85.55555555555556 228.33333333333334 L 88.88888888888889 219.44444444444446 L 93.88888888888889 208.33333333333334 L 100.0 197.22222222222223 L 102.77777777777777 193.33333333333334 " stroke="black" fill="none" stroke-width="11.0" stroke-linecap="round" stroke-linejoin="round" />
<path d="M 140.00000000000003 83.33333333333333 L 139.44444444444446 83.33333333333333 L 139.44444444444446 83.33333333333333 L 138.8888888888889 83.33333333333333 L 138.8888888888889 85.0 L 136.66666666666669 92.22222222222223 L 131.11111111111111 105.55555555555556 L 123.33333333333333 118.8888888888889 L 120.00000000000001 122.77777777777779 L 121.1111111111111 120.55555555555556 " stroke="black" fill="none" stroke-width="11.0" stroke-linecap="round" stroke-linejoin="round" />
<path d="M 131.66666666666669 105.0 L 131.66666666666669 105.0 L 131.66666666666669 105.55555555555556 L 132.22222222222223 106.11111111111111 L 133.8888888888889 106.11111111111111 L 140.55555555555557 104.44444444444444 L 153.8888888888889 102.22222222222223 L 171.66666666666669 100.0 L 188.33333333333334 98.33333333333333 L 201.11111111111114 97.22222222222223 L 207.7777777777778 96.11111111111111 L 207.22222222222223 96.66666666666667 L 206.66666666666669 96.66666666666667 " stroke="black" fill="none" stroke-width="11.0" stroke-linecap="round" stroke-linejoin="round" />
<path d="M 143.33333333333334 133.8888888888889 L 143.33333333333334 133.8888888888889 L 142.7777777777778 133.8888888888889 L 142.7777777777778 133.8888888888889 L 142.7777777777778 134.44444444444446 L 142.7777777777778 137.22222222222223 L 143.8888888888889 144.44444444444446 L 144.44444444444446 158.33333333333334 L 142.7777777777778 176.11111111111114 L 140.00000000000003 195.00000000000003 L 136.66666666666669 210.00000000000003 L 134.44444444444446 218.33333333333334 L 133.8888888888889 223.33333333333334 L 133.8888888888889 226.11111111111114 L 137.22222222222223 227.22222222222223 L 143.8888888888889 227.22222222222223 L 152.7777777777778 225.55555555555557 L 164.44444444444446 222.7777777777778 L 176.66666666666669 220.00000000000003 L 187.22222222222223 218.8888888888889 L 192.7777777777778 217.7777777777778 L 194.44444444444446 216.11111111111114 L 193.8888888888889 214.44444444444446 " stroke="black" fill="none" stroke-width="11.0" stroke-linecap="round" stroke-linejoin="round" />
<path d="M 148.8888888888889 137.22222222222223 L 147.7777777777778 137.22222222222223 L 147.7777777777778 136.11111111111111 L 149.44444444444446 134.44444444444446 L 156.11111111111111 132.22222222222223 L 165.55555555555557 129.44444444444446 L 175.55555555555557 127.77777777777779 L 183.8888888888889 127.22222222222221 L 188.8888888888889 127.22222222222221 L 190.55555555555557 129.44444444444446 L 190.55555555555557 133.8888888888889 L 191.11111111111114 141.66666666666669 L 191.66666666666669 154.44444444444446 L 192.7777777777778 172.7777777777778 L 193.33333333333334 192.22222222222223 L 193.33333333333334 211.66666666666669 L 191.66666666666669 228.8888888888889 L 190.00000000000003 241.11111111111111 L 187.7777777777778 251.11111111111111 L 185.55555555555557 260.0 L 183.33333333333334 265.0 L 182.22222222222223 266.1111111111111 L 180.00000000000003 262.77777777777777 L 176.11111111111114 255.00000000000003 " stroke="black" fill="none" stroke-width="11.0" stroke-linecap="round" stroke-linejoin="round" />
<path d="M 166.66666666666669 150.55555555555557 L 165.55555555555557 151.11111111111111 L 165.55555555555557 151.66666666666669 L 166.11111111111114 154.44444444444446 L 168.8888888888889 157.7777777777778 L 171.11111111111114 160.55555555555557 L 173.33333333333334 161.11111111111111 " stroke="black" fill="none" stroke-width="11.0" stroke-linecap="round" stroke-linejoin="round" />
<path d="M 129.44444444444446 178.33333333333334 L 130.00000000000003 178.8888888888889 L 130.55555555555557 178.8888888888889 L 134.44444444444446 178.8888888888889 L 144.44444444444446 176.66666666666669 L 160.00000000000003 174.44444444444446 L 175.55555555555557 173.8888888888889 L 190.00000000000003 172.7777777777778 L 200.55555555555557 171.11111111111114 L 206.11111111111114 168.8888888888889 L 207.22222222222223 168.8888888888889 L 205.00000000000003 169.44444444444446 " stroke="black" fill="none" stroke-width="11.0" stroke-linecap="round" stroke-linejoin="round" />
<path d="M 163.8888888888889 190.00000000000003 L 163.8888888888889 190.00000000000003 L 163.33333333333334 189.44444444444446 L 163.33333333333334 189.44444444444446 L 164.44444444444446 190.00000000000003 L 167.22222222222223 192.7777777777778 L 170.55555555555557 196.11111111111114 L 173.33333333333334 199.44444444444446 L 173.8888888888889 199.44444444444446 " stroke="black" fill="none" stroke-width="11.0" stroke-linecap="round" stroke-linejoin="round" />
</svg>