<svg xmlns="http://www.w3.org/2000/svg" width="300" height="300" viewBox="0 0 300 300">
<path d="M 126.0 113.5 L 125.5 113.5 L 124.5 113.5 L 124.0 113.5 L 124.5 114.0 L 126.5 116.0 L 129.0 120.5 L 131.0 124.5 L 132.0 127.0 L 132.0 127.5 " stroke="black" fill="none" stroke-width="6.0" stroke-linecap="round" stroke-linejoin="round" />
<path d="M 123.5 140.5 L 122.0 139.5 L 121.5 139.5 L 122.0 140.0 L 123.5 142.0 L 125.5 144.5 L 127.5 146.5 L 128.5 149.0 " stroke="black" fill="none" stroke-width="6.0" stroke-linecap="round" stroke-linejoin="round" />
<path d="M 121.0 179.5 L 121.0 179.5 L 120.0 179.0 L 120.0 178.5 L 120.5 177.0 L 124.0 174.5 L 128.0 171.0 L 131.5 167.0 L 132.0 165.5 " stroke="black" fill="none" stroke-width="6.0" stroke-linecap="round" stroke-linejoin="round" />
<path d="M 150.0 110.0 L 150.0 110.0 L 150.0 110.0 L 150.5 109.5 L 151.0 109.5 L 151.0 109.5 L 151.5 109.5 L 151.5 112.0 L 150.0 119.0 L 147.5 128.5 L 145.0 135.5 L 144.5 137.0 L 144.5 136.5 L 146.0 134.5 L 149.0 132.5 L 152.5 131.0 L 156.0 130.0 L 159.0 130.0 L 161.5 130.0 L 163.5 129.5 L 163.5 129.5 " stroke="black" fill="none" stroke-width="6.0" stroke-linecap="round" stroke-linejoin="round" />
<path d="M 155.0 118.5 L 155.0 118.5 L 155.0 118.5 L 155.0 118.0 L 155.5 118.0 L 157.5 117.5 L 160.5 117.0 L 164.0 116.5 L 166.0 116.0 L 167.5 116.0 L 168.0 116.0 L 168.5 116.5 L 168.5 117.0 L 168.5 117.5 L 168.5 118.5 L 168.0 120.5 L 167.5 124.0 L 166.5 128.0 L 165.5 133.0 L 164.0 136.5 L 163.5 138.0 L 163.5 138.0 " stroke="black" fill="none" stroke-width="6.0" stroke-linecap="round" stroke-linejoin="round" />
<path d="M 139.5 146.0 L 140.0 146.0 L 140.0 146.0 L 141.5 146.0 L 145.0 145.5 L 152.5 144.5 L 162.0 143.5 L 170.0 143.0 L 175.0 142.5 L 176.5 142.5 L 176.0 142.5 L 175.0 143.0 " stroke="black" fill="none" stroke-width="6.0" stroke-linecap="round" stroke-linejoin="round" />
<path d="M 156.5 149.5 L 157.0 149.0 L 157.5 149.0 L 158.0 149.0 L 158.0 148.5 L 158.5 148.5 L 159.0 151.0 L 159.0 157.0 L 159.0 168.0 L 159.5 178.5 L 160.0 185.5 L 160.5 190.0 L 160.5 192.5 L 160.5 194.5 L 160.0 195.5 L 159.0 196.0 L 158.5 196.0 L 157.0 196.0 L 155.0 195.0 L 152.5 193.5 L 151.0 192.0 L 150.0 191.5 " stroke="black" fill="none" stroke-width="6.0" stroke-linecap="round" stroke-linejoin="round" />
<path d="M 146.5 162.0 L 146.0 161.5 L 145.5 161.5 L 146.0 161.5 L 147.0 162.5 L 149.0 164.5 L 150.0 166.0 L 150.0 166.5 " stroke="black" fill="none" stroke-width="6.0" stroke-linecap="round" stroke-linejoin="round" />
<path d="M 145.0 181.0 L 143.5 182.5 L 143.5 182.5 L 143.5 182.5 L 144.5 181.0 L 146.5 179.0 L 149.0 177.5 L 150.0 176.5 " stroke="black" fill="none" stroke-width="6.0" stroke-linecap="round" stroke-linejoin="round" />
<path d="M 172.5 156.0 L 172.5 156.5 L 173.0 157.0 L 173.0 157.5 L 173.0 158.5 L 173.0 160.0 L 172.5 162.0 L 172.0 163.0 " stroke="black" fill="none" stroke-width="6.0" stroke-linecap="round" stroke-linejoin="round" />
<path d="M 167.5 173.5 L 167.5 174.5 L 168.5 176.0 L 171.5 177.5 L 176.0 179.0 L 179.5 181.0 L 181.5 181.5 " stroke="black" fill="none" stroke-width="6.0" stroke-linecap="round" stroke-linejoin="round" />
</svg>