<svg xmlns="http://www.w3.org/2000/svg" width="300" height="300" viewBox="0 0 300 300">
<path d="M 124.5 120.5 L 124.5 119.5 L 124.5 118.5 L 124.5 117.5 L 124.5 117.0 L 124.5 117.0 L 125.0 118.0 L 126.0 121.0 L 127.5 124.5 L 129.0 128.0 L 130.5 130.0 L 131.0 131.0 " stroke="black" fill="none" stroke-width="6.0" stroke-linecap="round" stroke-linejoin="round" />
<path d="M 123.5 146.5 L 123.5 146.5 L 123.5 147.0 L 123.5 147.0 L 123.5 147.5 L 124.5 149.0 L 126.5 151.5 L 128.0 154.0 L 129.0 157.0 L 129.5 157.5 " stroke="black" fill="none" stroke-width="6.0" stroke-linecap="round" stroke-linejoin="round" />
<path d="M 122.0 181.0 L 121.5 181.0 L 121.0 181.0 L 121.0 180.5 L 121.5 178.5 L 123.5 175.5 L 126.0 172.5 L 129.0 169.0 L 129.5 168.0 " stroke="black" fill="none" stroke-width="6.0" stroke-linecap="round" stroke-linejoin="round" />
<path d="M 143.0 112.5 L 143.0 113.0 L 142.5 113.0 L 142.0 113.5 L 141.5 113.5 L 141.5 114.0 L 142.5 115.0 L 144.0 116.5 L 145.5 118.0 L 147.5 119.0 L 148.5 120.0 " stroke="black" fill="none" stroke-width="6.0" stroke-linecap="round" stroke-linejoin="round" />
<path d="M 161.5 113.0 L 161.5 113.5 L 161.5 114.0 L 161.5 114.0 L 161.5 114.5 L 161.5 114.5 L 161.0 115.0 L 161.0 115.5 L 160.5 117.0 L 160.0 119.0 L 160.0 119.5 " stroke="black" fill="none" stroke-width="6.0" stroke-linecap="round" stroke-linejoin="round" />
<path d="M 143.0 129.0 L 143.0 129.0 L 143.0 129.0 L 142.5 129.0 L 142.5 129.0 L 142.5 129.0 L 143.5 128.5 L 146.5 128.0 L 152.0 127.5 L 158.5 126.5 L 163.5 126.0 L 165.0 126.0 L 165.5 126.0 L 165.5 126.0 " stroke="black" fill="none" stroke-width="6.0" stroke-linecap="round" stroke-linejoin="round" />
<path d="M 143.0 140.0 L 143.5 139.5 L 143.5 139.0 L 144.0 139.0 L 144.0 139.0 L 144.0 139.5 L 144.0 141.5 L 144.0 145.0 L 144.0 149.0 L 144.0 152.5 L 144.0 154.5 L 144.0 155.0 L 144.5 154.5 L 145.0 154.0 L 146.5 153.0 L 148.5 152.5 L 151.0 151.5 L 154.0 151.0 L 156.5 150.5 L 158.5 150.5 L 160.5 150.5 L 160.5 150.5 " stroke="black" fill="none" stroke-width="6.0" stroke-linecap="round" stroke-linejoin="round" />
<path d="M 164.0 142.0 L 164.0 142.0 L 163.5 142.0 L 163.0 142.0 L 163.0 142.0 L 162.5 142.0 L 162.5 142.5 L 163.0 145.0 L 163.5 149.0 L 164.0 153.0 L 165.0 155.0 " stroke="black" fill="none" stroke-width="6.0" stroke-linecap="round" stroke-linejoin="round" />
<path d="M 154.0 132.0 L 154.0 131.5 L 154.5 131.0 L 155.0 130.5 L 155.0 130.0 L 155.0 130.0 L 155.5 130.5 L 155.5 132.5 L 156.0 136.5 L 156.0 143.0 L 155.0 152.5 L 153.0 162.5 L 151.0 170.0 L 149.5 174.5 L 148.0 177.0 L 147.5 178.5 L 147.5 178.5 " stroke="black" fill="none" stroke-width="6.0" stroke-linecap="round" stroke-linejoin="round" />
<path d="M 176.0 118.5 L 176.0 118.0 L 176.0 117.5 L 176.0 117.0 L 176.0 116.5 L 176.0 117.0 L 176.0 123.0 L 176.0 136.0 L 175.0 154.5 L 174.5 166.0 L 174.5 170.5 L 175.0 171.0 L 175.5 169.5 L 175.5 163.5 " stroke="black" fill="none" stroke-width="6.0" stroke-linecap="round" stroke-linejoin="round" />
<path d="M 178.5 116.0 L 177.5 116.5 L 176.0 117.0 L 176.0 117.0 L 176.5 117.0 L 179.5 116.5 L 182.5 115.5 L 185.0 114.5 L 187.0 113.5 L 188.5 113.0 L 189.5 113.0 L 190.0 114.0 L 190.0 117.5 L 190.0 124.0 L 190.0 134.5 L 190.5 147.0 L 192.0 157.5 L 192.5 166.0 L 192.5 171.5 L 192.0 175.0 L 191.0 178.5 L 190.5 179.5 L 190.0 179.0 L 188.5 176.0 L 187.5 174.0 " stroke="black" fill="none" stroke-width="6.0" stroke-linecap="round" stroke-linejoin="round" />
<path d="M 176.5 136.5 L 176.0 136.5 L 175.5 137.0 L 175.0 137.0 L 175.0 137.0 L 176.5 136.5 L 179.5 136.0 L 182.5 135.5 L 185.5 135.0 L 187.5 135.0 " stroke="black" fill="none" stroke-width="6.0" stroke-linecap="round" stroke-linejoin="round" />
<path d="M 175.5 155.0 L 175.5 156.0 L 176.0 156.0 L 176.5 156.5 L 179.0 156.0 L 182.0 155.0 L 185.0 153.5 L 187.5 152.0 " stroke="black" fill="none" stroke-width="6.0" stroke-linecap="round" stroke-linejoin="round" />
</svg>