<svg xmlns="http://www.w3.org/2000/svg" width="300" height="300" viewBox="0 0 300 300">
<path d="M 118.5 111.5 L 118.5 112.0 L 118.0 112.0 L 118.0 112.0 L 119.0 112.5 L 122.0 114.5 L 125.0 118.0 L 127.5 121.0 L 128.5 123.0 L 128.5 123.5 " stroke="black" fill="none" stroke-width="7.0" stroke-linecap="round" stroke-linejoin="round" />
<path d="M 115.0 132.0 L 115.0 132.0 L 115.0 132.5 L 115.0 133.0 L 117.5 135.0 L 122.0 138.0 L 126.5 141.0 L 128.5 144.0 L 129.0 145.0 " stroke="black" fill="none" stroke-width="7.0" stroke-linecap="round" stroke-linejoin="round" />
<path d="M 119.0 175.5 L 118.5 175.5 L 118.0 176.0 L 118.0 176.0 L 119.5 174.5 L 123.5 170.5 L 127.5 164.5 L 129.5 160.0 " stroke="black" fill="none" stroke-width="7.0" stroke-linecap="round" stroke-linejoin="round" />
<path d="M 143.0 112.0 L 143.0 113.0 L 142.5 113.0 L 144.5 113.0 L 149.5 112.0 L 156.5 110.5 L 163.0 109.0 L 166.0 108.5 L 167.0 108.5 L 167.0 108.5 " stroke="black" fill="none" stroke-width="7.0" stroke-linecap="round" stroke-linejoin="round" />
<path d="M 147.5 125.0 L 147.5 125.0 L 147.0 124.5 L 147.0 124.5 L 148.0 124.0 L 152.0 124.0 L 156.5 123.0 L 161.0 121.5 L 164.0 121.0 L 164.0 120.5 " stroke="black" fill="none" stroke-width="7.0" stroke-linecap="round" stroke-linejoin="round" />
<path d="M 154.5 100.0 L 154.5 100.0 L 155.0 100.0 L 155.0 101.0 L 155.5 104.5 L 156.0 112.5 L 156.5 121.5 L 156.5 127.5 L 156.0 129.0 " stroke="black" fill="none" stroke-width="7.0" stroke-linecap="round" stroke-linejoin="round" />
<path d="M 142.5 136.0 L 141.5 136.5 L 141.0 136.5 L 142.5 136.5 L 147.5 136.0 L 154.5 134.0 L 163.5 131.5 L 171.0 130.0 L 174.0 130.0 " stroke="black" fill="none" stroke-width="7.0" stroke-linecap="round" stroke-linejoin="round" />
<path d="M 148.0 148.0 L 148.0 147.5 L 148.0 147.0 L 148.0 146.5 L 148.0 148.5 L 149.0 156.0 L 149.5 168.5 L 150.0 179.0 L 150.5 183.0 L 150.5 182.0 " stroke="black" fill="none" stroke-width="7.0" stroke-linecap="round" stroke-linejoin="round" />
<path d="M 152.0 148.0 L 152.0 148.5 L 151.0 149.5 L 151.0 150.0 L 151.5 150.0 L 154.5 149.5 L 158.5 148.5 L 163.5 146.5 L 168.0 144.0 L 170.5 143.0 L 171.0 143.0 L 171.5 144.5 L 171.5 147.5 L 172.0 153.0 L 172.5 160.5 L 173.5 170.0 L 174.0 177.5 L 174.0 183.5 L 174.0 187.0 L 173.0 187.5 L 171.0 187.5 L 168.0 184.5 L 166.0 181.5 " stroke="black" fill="none" stroke-width="7.0" stroke-linecap="round" stroke-linejoin="round" />
<path d="M 153.5 161.0 L 153.0 161.0 L 152.5 161.0 L 153.5 160.5 L 158.0 159.5 L 163.5 158.0 L 168.0 157.0 L 170.5 157.0 L 171.0 157.5 " stroke="black" fill="none" stroke-width="7.0" stroke-linecap="round" stroke-linejoin="round" />
<path d="M 155.5 173.5 L 156.0 173.5 L 157.0 173.0 L 158.0 172.5 L 161.0 172.5 L 165.5 172.5 L 169.0 172.5 " stroke="black" fill="none" stroke-width="7.0" stroke-linecap="round" stroke-linejoin="round" />
</svg>