<svg xmlns="http://www.w3.org/2000/svg" width="300" height="300" viewBox="0 0 300 300">
<path d="M 103.0 100.5 L 102.5 100.5 L 102.5 100.5 L 102.5 100.5 L 105.0 103.5 L 109.5 111.0 L 114.0 119.0 L 116.5 124.0 " stroke="black" fill="none" stroke-width="8.0" stroke-linecap="round" stroke-linejoin="round" />
<path d="M 103.5 139.0 L 102.0 139.5 L 101.5 140.0 L 102.0 141.0 L 104.5 143.5 L 107.5 147.5 L 110.5 153.5 L 113.0 162.5 L 113.5 165.5 " stroke="black" fill="none" stroke-width="8.0" stroke-linecap="round" stroke-linejoin="round" />
<path d="M 98.0 211.5 L 98.0 211.0 L 98.0 210.5 L 99.0 207.5 L 102.5 200.5 L 108.0 189.0 L 113.5 180.0 " stroke="black" fill="none" stroke-width="8.0" stroke-linecap="round" stroke-linejoin="round" />
<path d="M 137.0 107.5 L 137.0 107.5 L 137.5 107.5 L 137.5 107.5 L 138.0 107.5 L 140.0 107.5 L 146.5 107.5 L 159.0 107.5 L 175.0 107.5 L 188.0 106.0 L 197.0 105.0 L 202.5 105.0 L 204.0 105.0 L 204.0 105.5 L 202.5 105.0 " stroke="black" fill="none" stroke-width="8.0" stroke-linecap="round" stroke-linejoin="round" />
<path d="M 154.0 91.0 L 154.0 91.0 L 154.0 91.0 L 154.0 92.0 L 154.5 99.0 L 156.0 110.0 L 157.0 116.5 L 159.0 117.0 L 159.5 116.5 " stroke="black" fill="none" stroke-width="8.0" stroke-linecap="round" stroke-linejoin="round" />
<path d="M 189.5 92.5 L 188.5 92.5 L 187.5 92.5 L 187.5 93.5 L 188.0 97.0 L 188.5 104.5 L 188.0 111.0 L 187.5 114.5 L 187.0 116.0 " stroke="black" fill="none" stroke-width="8.0" stroke-linecap="round" stroke-linejoin="round" />
<path d="M 153.0 129.5 L 153.0 129.5 L 153.0 129.5 L 154.5 129.0 L 158.5 128.0 L 167.0 127.0 L 177.0 126.5 L 186.5 127.0 L 189.5 127.0 " stroke="black" fill="none" stroke-width="8.0" stroke-linecap="round" stroke-linejoin="round" />
<path d="M 141.0 150.5 L 141.0 149.0 L 141.0 148.0 L 141.0 148.0 L 141.5 151.0 L 143.0 162.5 L 143.5 182.0 L 143.5 199.5 L 143.5 207.0 L 143.5 210.0 L 144.5 207.0 " stroke="black" fill="none" stroke-width="8.0" stroke-linecap="round" stroke-linejoin="round" />
<path d="M 148.0 150.5 L 147.5 150.5 L 146.5 150.5 L 146.0 150.5 L 145.5 150.5 L 146.0 150.5 L 147.5 150.5 L 150.0 150.0 L 154.0 150.0 L 161.5 149.5 L 172.0 149.5 L 182.5 149.0 L 191.5 149.5 L 197.0 149.5 L 201.5 149.5 L 204.0 149.5 L 204.5 150.0 L 204.5 150.0 L 204.5 150.0 L 204.5 150.0 L 204.5 150.0 L 204.5 150.0 L 204.5 150.0 L 204.5 150.0 L 204.5 150.0 L 204.5 150.0 L 204.5 150.5 L 204.5 150.5 L 205.0 150.5 L 205.0 150.5 L 205.0 150.5 L 205.0 150.5 L 205.5 150.5 L 205.5 151.0 L 205.5 152.0 L 205.5 153.5 L 205.5 157.5 L 206.0 162.0 L 206.5 168.0 L 206.5 173.5 L 206.5 178.5 L 206.5 185.0 L 206.5 191.5 L 206.0 197.0 L 205.5 201.5 L 205.0 206.5 L 205.0 210.5 L 205.0 215.0 L 205.0 218.5 L 205.0 220.5 L 204.5 222.0 L 204.0 223.0 L 202.5 223.0 L 199.5 221.0 L 196.0 218.0 L 195.0 216.0 " stroke="black" fill="none" stroke-width="8.0" stroke-linecap="round" stroke-linejoin="round" />
<path d="M 172.5 128.5 L 172.0 128.5 L 171.0 128.0 L 170.5 128.0 L 170.5 128.0 L 170.5 130.5 L 171.5 136.5 L 172.0 146.5 L 172.5 159.0 L 173.0 170.5 L 173.5 179.0 L 173.5 187.5 L 173.0 195.0 L 173.0 200.0 L 172.5 202.5 L 172.5 203.0 L 172.0 202.5 L 171.5 201.5 " stroke="black" fill="none" stroke-width="8.0" stroke-linecap="round" stroke-linejoin="round" />
<path d="M 157.5 166.5 L 158.0 166.0 L 158.5 166.0 L 158.5 166.5 L 158.5 168.5 L 158.5 173.0 L 157.0 179.0 L 154.5 184.5 L 153.0 187.0 L 152.0 187.5 L 152.0 187.0 L 152.0 186.5 L 152.0 186.5 L 153.0 186.0 L 155.0 186.0 L 157.5 186.0 L 160.0 187.0 L 162.0 188.0 L 163.0 188.5 L 164.0 188.5 " stroke="black" fill="none" stroke-width="8.0" stroke-linecap="round" stroke-linejoin="round" />
<path d="M 190.5 164.5 L 190.5 164.5 L 190.0 164.5 L 189.5 164.5 L 189.5 166.0 L 189.5 169.5 L 188.0 176.5 L 186.5 183.0 L 185.0 187.0 L 185.0 187.0 L 185.0 187.0 L 185.0 186.0 L 185.0 186.0 L 185.0 185.5 L 186.0 185.5 L 187.5 185.5 L 190.0 185.5 L 192.5 187.5 L 195.0 190.5 L 197.0 193.0 L 198.5 194.5 L 198.5 194.5 " stroke="black" fill="none" stroke-width="8.0" stroke-linecap="round" stroke-linejoin="round" />
</svg>