<svg xmlns="http://www.w3.org/2000/svg" width="300" height="300" viewBox="0 0 300 300">
<path d="M 107.22222222222223 106.66666666666667 L 107.22222222222223 106.66666666666667 L 107.77777777777779 105.55555555555556 L 108.33333333333333 104.44444444444444 L 108.88888888888889 103.88888888888889 L 109.44444444444444 103.33333333333333 L 111.11111111111111 105.0 L 113.8888888888889 109.44444444444444 L 117.22222222222221 113.8888888888889 L 119.44444444444444 117.22222222222221 L 120.55555555555556 118.33333333333333 L 121.1111111111111 118.33333333333333 " stroke="black" fill="none" stroke-width="7.0" stroke-linecap="round" stroke-linejoin="round" />
<path d="M 108.33333333333333 131.11111111111111 L 108.33333333333333 131.11111111111111 L 108.33333333333333 131.11111111111111 L 107.77777777777779 131.11111111111111 L 108.33333333333333 131.66666666666669 L 110.0 134.44444444444446 L 112.77777777777779 138.33333333333334 L 115.55555555555556 141.66666666666669 L 116.66666666666667 143.33333333333334 " stroke="black" fill="none" stroke-width="7.0" stroke-linecap="round" stroke-linejoin="round" />
<path d="M 107.22222222222223 192.7777777777778 L 107.22222222222223 191.66666666666669 L 107.77777777777779 190.55555555555557 L 110.0 186.66666666666669 L 113.8888888888889 182.22222222222223 L 117.77777777777779 177.22222222222223 L 121.1111111111111 174.44444444444446 L 121.66666666666667 173.8888888888889 " stroke="black" fill="none" stroke-width="7.0" stroke-linecap="round" stroke-linejoin="round" />
<path d="M 149.44444444444446 94.44444444444444 L 148.33333333333334 93.88888888888889 L 147.7777777777778 93.33333333333333 L 147.7777777777778 92.77777777777777 L 148.33333333333334 92.77777777777777 L 150.55555555555557 94.44444444444444 L 153.33333333333334 97.77777777777777 L 156.11111111111111 100.0 L 157.7777777777778 101.66666666666667 L 158.8888888888889 102.77777777777777 " stroke="black" fill="none" stroke-width="7.0" stroke-linecap="round" stroke-linejoin="round" />
<path d="M 132.22222222222223 108.88888888888889 L 132.22222222222223 108.88888888888889 L 131.66666666666669 108.88888888888889 L 131.11111111111111 108.88888888888889 L 131.11111111111111 108.88888888888889 L 133.8888888888889 108.88888888888889 L 140.00000000000003 108.88888888888889 L 150.00000000000003 109.44444444444444 L 163.33333333333334 109.44444444444444 L 175.55555555555557 107.77777777777779 L 180.55555555555557 106.66666666666667 L 181.11111111111114 106.66666666666667 L 180.00000000000003 107.22222222222223 L 178.33333333333334 107.22222222222223 L 177.7777777777778 107.77777777777779 " stroke="black" fill="none" stroke-width="7.0" stroke-linecap="round" stroke-linejoin="round" />
<path d="M 150.00000000000003 118.8888888888889 L 149.44444444444446 118.8888888888889 L 149.44444444444446 118.8888888888889 L 148.8888888888889 118.8888888888889 L 150.55555555555557 119.44444444444444 L 153.33333333333334 121.1111111111111 L 155.55555555555557 122.22222222222221 L 157.22222222222223 122.77777777777779 " stroke="black" fill="none" stroke-width="7.0" stroke-linecap="round" stroke-linejoin="round" />
<path d="M 166.66666666666669 118.33333333333333 L 166.66666666666669 118.33333333333333 L 166.66666666666669 118.33333333333333 L 166.66666666666669 118.33333333333333 L 166.66666666666669 118.33333333333333 L 166.11111111111114 118.8888888888889 L 165.00000000000003 120.00000000000001 L 163.33333333333334 121.66666666666667 L 161.66666666666669 123.33333333333333 L 161.66666666666669 123.8888888888889 " stroke="black" fill="none" stroke-width="7.0" stroke-linecap="round" stroke-linejoin="round" />
<path d="M 157.7777777777778 125.55555555555556 L 157.7777777777778 125.55555555555556 L 158.33333333333334 125.55555555555556 L 158.33333333333334 125.55555555555556 L 158.8888888888889 126.1111111111111 L 158.8888888888889 130.00000000000003 L 159.44444444444446 135.55555555555557 L 160.00000000000003 141.11111111111111 L 160.00000000000003 143.8888888888889 L 160.00000000000003 144.44444444444446 " stroke="black" fill="none" stroke-width="7.0" stroke-linecap="round" stroke-linejoin="round" />
<path d="M 134.44444444444446 127.77777777777779 L 134.44444444444446 127.77777777777779 L 134.44444444444446 128.33333333333334 L 134.44444444444446 128.33333333333334 L 135.00000000000003 128.33333333333334 L 136.11111111111111 128.33333333333334 L 137.22222222222223 128.33333333333334 L 139.44444444444446 128.33333333333334 L 141.11111111111111 127.77777777777779 L 143.33333333333334 127.22222222222221 L 145.00000000000003 127.22222222222221 L 146.66666666666669 127.22222222222221 L 147.22222222222223 126.66666666666667 L 147.7777777777778 126.66666666666667 L 147.7777777777778 126.66666666666667 L 147.7777777777778 126.66666666666667 L 147.7777777777778 126.66666666666667 L 147.7777777777778 126.66666666666667 L 147.7777777777778 126.66666666666667 L 147.7777777777778 127.22222222222221 L 147.7777777777778 127.22222222222221 L 147.7777777777778 127.22222222222221 L 147.7777777777778 127.77777777777779 L 147.22222222222223 127.77777777777779 L 147.22222222222223 128.8888888888889 L 147.22222222222223 129.44444444444446 L 147.22222222222223 131.66666666666669 L 147.22222222222223 134.44444444444446 L 147.22222222222223 137.7777777777778 L 147.22222222222223 140.55555555555557 L 147.22222222222223 143.33333333333334 L 147.22222222222223 144.44444444444446 L 146.66666666666669 145.00000000000003 L 145.55555555555557 145.00000000000003 L 145.00000000000003 145.00000000000003 " stroke="black" fill="none" stroke-width="7.0" stroke-linecap="round" stroke-linejoin="round" />
<path d="M 136.66666666666669 130.00000000000003 L 136.11111111111111 130.00000000000003 L 135.55555555555557 130.55555555555557 L 135.00000000000003 131.11111111111111 L 134.44444444444446 134.44444444444446 L 131.66666666666669 139.44444444444446 L 128.8888888888889 145.00000000000003 L 127.22222222222221 147.22222222222223 " stroke="black" fill="none" stroke-width="7.0" stroke-linecap="round" stroke-linejoin="round" />
<path d="M 180.00000000000003 122.77777777777779 L 181.11111111111114 122.77777777777779 L 181.66666666666669 122.77777777777779 L 182.22222222222223 122.77777777777779 L 182.22222222222223 122.77777777777779 L 182.22222222222223 123.33333333333333 L 181.11111111111114 123.8888888888889 L 179.44444444444446 125.00000000000001 L 176.66666666666669 126.1111111111111 L 173.8888888888889 127.22222222222221 L 171.66666666666669 128.33333333333334 L 170.55555555555557 128.8888888888889 L 170.00000000000003 129.44444444444446 L 170.00000000000003 129.44444444444446 L 170.00000000000003 129.44444444444446 L 170.00000000000003 129.44444444444446 L 170.00000000000003 129.44444444444446 L 170.55555555555557 129.44444444444446 L 170.55555555555557 129.44444444444446 L 171.11111111111114 130.55555555555557 L 171.11111111111114 131.66666666666669 L 171.66666666666669 134.44444444444446 L 171.66666666666669 137.7777777777778 L 171.66666666666669 141.66666666666669 L 171.66666666666669 144.44444444444446 L 171.66666666666669 145.55555555555557 L 172.22222222222223 146.11111111111111 L 172.7777777777778 146.11111111111111 L 173.33333333333334 146.11111111111111 L 174.44444444444446 146.11111111111111 L 175.00000000000003 146.11111111111111 L 176.11111111111114 144.44444444444446 L 176.11111111111114 143.8888888888889 " stroke="black" fill="none" stroke-width="7.0" stroke-linecap="round" stroke-linejoin="round" />
<path d="M 176.66666666666669 130.55555555555557 L 176.66666666666669 130.55555555555557 L 177.22222222222223 131.11111111111111 L 177.7777777777778 132.22222222222223 L 180.55555555555557 135.55555555555557 L 184.44444444444446 140.55555555555557 L 188.8888888888889 145.00000000000003 L 190.00000000000003 145.55555555555557 " stroke="black" fill="none" stroke-width="7.0" stroke-linecap="round" stroke-linejoin="round" />
<path d="M 142.7777777777778 159.44444444444446 L 142.7777777777778 159.44444444444446 L 142.22222222222223 159.44444444444446 L 142.22222222222223 159.44444444444446 L 142.22222222222223 159.44444444444446 L 142.7777777777778 161.66666666666669 L 143.33333333333334 168.33333333333334 L 143.33333333333334 179.44444444444446 L 140.00000000000003 191.11111111111114 L 136.66666666666669 197.22222222222223 L 136.11111111111111 196.66666666666669 L 136.11111111111111 195.00000000000003 " stroke="black" fill="none" stroke-width="7.0" stroke-linecap="round" stroke-linejoin="round" />
<path d="M 146.66666666666669 169.44444444444446 L 144.44444444444446 169.44444444444446 L 143.8888888888889 169.44444444444446 L 144.44444444444446 169.44444444444446 L 148.33333333333334 168.33333333333334 L 154.44444444444446 167.22222222222223 L 160.55555555555557 166.11111111111114 L 166.11111111111114 165.00000000000003 L 169.44444444444446 164.44444444444446 L 170.00000000000003 165.00000000000003 L 170.00000000000003 165.55555555555557 " stroke="black" fill="none" stroke-width="7.0" stroke-linecap="round" stroke-linejoin="round" />
<path d="M 148.33333333333334 182.22222222222223 L 147.22222222222223 182.22222222222223 L 146.66666666666669 182.22222222222223 L 146.11111111111111 182.22222222222223 L 146.11111111111111 182.22222222222223 L 148.8888888888889 182.22222222222223 L 153.8888888888889 182.22222222222223 L 161.11111111111111 182.22222222222223 L 168.8888888888889 180.55555555555557 L 171.66666666666669 180.00000000000003 " stroke="black" fill="none" stroke-width="7.0" stroke-linecap="round" stroke-linejoin="round" />
<path d="M 171.66666666666669 157.22222222222223 L 171.11111111111114 157.22222222222223 L 170.55555555555557 157.22222222222223 L 170.00000000000003 157.22222222222223 L 170.00000000000003 157.7777777777778 L 170.00000000000003 158.33333333333334 L 170.55555555555557 161.11111111111111 L 171.11111111111114 167.22222222222223 L 171.66666666666669 177.7777777777778 L 171.66666666666669 190.00000000000003 L 171.66666666666669 197.7777777777778 L 172.22222222222223 200.00000000000003 L 172.7777777777778 200.00000000000003 " stroke="black" fill="none" stroke-width="7.0" stroke-linecap="round" stroke-linejoin="round" />
</svg>