<svg xmlns="http://www.w3.org/2000/svg" width="300" height="300" viewBox="0 0 300 300">
<path d="M 103.0 103.0 L 102.5 103.0 L 102.0 103.0 L 102.0 102.5 L 103.5 104.0 L 106.0 107.0 L 109.0 111.0 L 111.0 115.0 L 112.5 118.0 " stroke="black" fill="none" stroke-width="8.0" stroke-linecap="round" stroke-linejoin="round" />
<path d="M 103.5 136.5 L 102.0 136.5 L 101.0 136.5 L 101.0 136.5 L 103.0 139.0 L 105.5 144.0 L 108.5 148.5 L 110.5 150.5 L 111.5 152.0 " stroke="black" fill="none" stroke-width="8.0" stroke-linecap="round" stroke-linejoin="round" />
<path d="M 97.5 194.5 L 96.0 196.0 L 96.0 196.5 L 96.5 196.0 L 99.5 192.0 L 103.5 186.0 L 107.0 179.5 L 110.0 174.0 L 112.0 169.0 L 112.5 167.5 " stroke="black" fill="none" stroke-width="8.0" stroke-linecap="round" stroke-linejoin="round" />
<path d="M 133.5 110.0 L 133.5 110.5 L 133.5 111.0 L 135.5 111.5 L 142.0 111.5 L 154.0 111.5 L 167.5 110.5 L 176.0 110.0 L 179.0 110.0 " stroke="black" fill="none" stroke-width="8.0" stroke-linecap="round" stroke-linejoin="round" />
<path d="M 155.0 99.0 L 155.5 98.5 L 156.0 97.5 L 156.5 97.5 L 157.0 100.0 L 157.0 107.0 L 157.0 118.5 L 156.5 131.0 L 156.5 137.5 L 156.5 139.5 L 157.0 139.0 L 157.0 139.0 " stroke="black" fill="none" stroke-width="8.0" stroke-linecap="round" stroke-linejoin="round" />
<path d="M 148.5 123.5 L 148.5 123.0 L 148.5 123.0 L 148.0 122.5 L 148.0 123.0 L 146.0 125.5 L 142.0 130.5 L 136.0 135.5 L 132.0 139.0 L 131.0 139.5 " stroke="black" fill="none" stroke-width="8.0" stroke-linecap="round" stroke-linejoin="round" />
<path d="M 167.5 123.0 L 167.5 123.0 L 167.5 123.0 L 168.5 123.0 L 170.5 124.0 L 174.0 125.5 L 177.5 127.5 L 180.0 128.5 L 180.5 129.0 " stroke="black" fill="none" stroke-width="8.0" stroke-linecap="round" stroke-linejoin="round" />
<path d="M 151.5 149.0 L 152.5 147.5 L 153.5 147.0 L 153.5 146.5 L 153.5 147.0 L 151.5 150.0 L 147.5 155.5 L 141.5 161.5 L 135.5 166.0 L 131.5 167.5 L 130.5 167.0 L 130.5 166.0 " stroke="black" fill="none" stroke-width="8.0" stroke-linecap="round" stroke-linejoin="round" />
<path d="M 155.0 151.0 L 155.5 151.0 L 156.0 151.5 L 158.0 151.5 L 162.5 153.0 L 170.5 157.0 L 178.5 161.0 L 185.5 163.0 L 190.0 163.5 L 191.5 163.5 " stroke="black" fill="none" stroke-width="8.0" stroke-linecap="round" stroke-linejoin="round" />
<path d="M 159.0 167.5 L 159.0 167.0 L 159.5 166.5 L 159.5 166.0 L 159.5 166.0 L 160.0 168.0 L 160.5 172.5 L 161.0 178.5 L 161.0 186.5 L 161.0 194.0 L 161.0 200.0 L 161.0 204.0 L 160.5 206.0 L 159.5 207.0 L 157.5 207.0 L 155.0 205.5 L 152.5 203.5 L 150.5 201.0 L 150.0 200.0 " stroke="black" fill="none" stroke-width="8.0" stroke-linecap="round" stroke-linejoin="round" />
<path d="M 145.0 180.0 L 145.0 180.0 L 145.0 179.5 L 145.0 179.5 L 145.0 179.5 L 145.0 179.5 L 146.0 180.5 L 147.0 181.0 L 147.5 181.5 " stroke="black" fill="none" stroke-width="8.0" stroke-linecap="round" stroke-linejoin="round" />
<path d="M 135.0 195.0 L 135.0 195.0 L 135.0 195.5 L 135.0 195.5 L 135.0 195.5 L 137.0 195.5 L 139.5 194.5 L 143.0 192.0 L 144.5 191.5 " stroke="black" fill="none" stroke-width="8.0" stroke-linecap="round" stroke-linejoin="round" />
<path d="M 177.5 174.5 L 177.5 174.5 L 177.5 174.5 L 178.0 174.5 L 178.0 175.0 L 178.0 176.0 L 176.5 178.0 L 175.5 180.0 " stroke="black" fill="none" stroke-width="8.0" stroke-linecap="round" stroke-linejoin="round" />
<path d="M 169.5 190.0 L 169.0 190.0 L 169.0 190.0 L 169.0 190.5 L 171.0 191.0 L 175.5 193.0 L 181.0 196.0 L 186.5 199.5 L 190.5 201.5 L 191.0 201.5 " stroke="black" fill="none" stroke-width="8.0" stroke-linecap="round" stroke-linejoin="round" />
</svg>