<svg xmlns="http://www.w3.org/2000/svg" width="300" height="300" viewBox="0 0 300 300">
<path d="M 122.0 118.5 L 121.5 118.0 L 121.0 117.5 L 121.0 117.5 L 122.5 118.5 L 125.5 122.5 L 129.0 127.0 L 131.0 130.0 L 132.0 131.0 L 132.0 131.0 " stroke="black" fill="none" stroke-width="7.0" stroke-linecap="round" stroke-linejoin="round" />
<path d="M 126.0 145.5 L 125.5 145.5 L 124.5 145.0 L 124.0 145.0 L 124.0 145.0 L 125.0 145.5 L 126.5 148.0 L 128.5 150.5 L 130.0 154.0 L 131.5 157.0 L 132.0 159.5 " stroke="black" fill="none" stroke-width="7.0" stroke-linecap="round" stroke-linejoin="round" />
<path d="M 124.0 181.5 L 124.0 181.5 L 122.5 182.5 L 122.0 183.0 L 122.0 183.0 L 123.0 182.5 L 126.0 180.0 L 129.5 175.5 L 132.5 171.0 L 134.0 167.5 L 134.5 166.5 L 134.5 166.5 " stroke="black" fill="none" stroke-width="7.0" stroke-linecap="round" stroke-linejoin="round" />
<path d="M 149.5 108.5 L 149.5 108.5 L 149.5 108.5 L 149.5 108.5 L 149.5 108.5 L 149.5 109.0 L 149.5 109.5 L 148.5 113.0 L 147.5 118.0 L 146.0 123.0 L 145.0 125.5 L 144.5 126.0 " stroke="black" fill="none" stroke-width="7.0" stroke-linecap="round" stroke-linejoin="round" />
<path d="M 150.0 114.5 L 150.0 114.5 L 149.0 115.5 L 149.0 115.5 L 149.0 115.5 L 150.0 115.5 L 152.0 115.0 L 156.0 113.5 L 161.5 112.0 L 168.0 110.5 L 173.5 110.0 L 175.0 110.5 L 175.0 112.5 L 174.0 115.5 L 173.0 118.5 L 172.5 121.0 L 172.0 122.5 L 171.5 124.5 L 171.0 126.0 L 170.5 126.5 " stroke="black" fill="none" stroke-width="7.0" stroke-linecap="round" stroke-linejoin="round" />
<path d="M 148.5 134.5 L 148.5 134.5 L 148.0 134.5 L 148.0 134.5 L 148.0 136.5 L 149.5 143.0 L 151.0 149.5 L 152.0 153.0 L 152.5 153.0 " stroke="black" fill="none" stroke-width="7.0" stroke-linecap="round" stroke-linejoin="round" />
<path d="M 152.5 135.5 L 152.5 135.5 L 153.0 135.5 L 153.0 135.0 L 154.0 134.0 L 156.5 133.0 L 160.5 131.5 L 167.0 131.0 L 173.0 131.0 L 177.5 132.5 L 180.5 134.5 L 182.0 136.0 L 182.0 137.0 L 182.0 139.0 L 181.0 142.0 L 179.5 145.5 L 178.5 149.0 L 177.0 152.0 L 176.5 153.5 L 176.0 154.0 " stroke="black" fill="none" stroke-width="7.0" stroke-linecap="round" stroke-linejoin="round" />
<path d="M 158.5 147.0 L 158.5 147.0 L 158.5 147.5 L 158.5 147.5 L 158.5 147.5 L 159.5 147.5 L 162.5 146.0 L 166.5 144.5 L 169.0 143.5 L 170.0 143.0 " stroke="black" fill="none" stroke-width="7.0" stroke-linecap="round" stroke-linejoin="round" />
<path d="M 166.5 132.0 L 165.5 132.5 L 164.5 132.5 L 164.5 133.5 L 164.5 135.5 L 164.5 140.5 L 165.0 147.5 L 165.0 153.0 L 165.0 155.5 L 165.0 155.5 " stroke="black" fill="none" stroke-width="7.0" stroke-linecap="round" stroke-linejoin="round" />
<path d="M 154.0 162.0 L 154.0 162.0 L 155.5 162.0 L 157.0 161.5 L 159.5 160.5 L 164.0 159.5 L 168.5 158.5 L 172.5 158.0 " stroke="black" fill="none" stroke-width="7.0" stroke-linecap="round" stroke-linejoin="round" />
<path d="M 149.5 173.0 L 149.5 173.0 L 149.5 173.0 L 149.5 173.0 L 149.5 173.0 L 149.0 174.5 L 148.0 177.0 L 146.5 181.0 L 145.5 183.0 L 145.5 183.5 " stroke="black" fill="none" stroke-width="7.0" stroke-linecap="round" stroke-linejoin="round" />
<path d="M 160.0 172.5 L 159.5 172.5 L 159.0 172.5 L 158.5 172.5 L 158.5 172.5 L 158.5 172.5 L 159.0 174.0 L 160.0 176.0 L 161.5 178.5 L 163.0 180.0 L 163.5 180.5 " stroke="black" fill="none" stroke-width="7.0" stroke-linecap="round" stroke-linejoin="round" />
<path d="M 170.5 170.5 L 170.0 170.5 L 169.5 170.5 L 169.5 171.0 L 170.5 172.0 L 172.5 173.5 L 174.0 175.0 L 175.0 176.0 L 175.5 176.5 " stroke="black" fill="none" stroke-width="7.0" stroke-linecap="round" stroke-linejoin="round" />
<path d="M 183.0 170.5 L 183.0 171.0 L 183.0 171.5 L 183.5 172.0 L 185.0 173.0 L 187.0 174.5 L 190.0 176.5 L 192.5 178.5 L 194.5 180.0 L 195.0 181.0 " stroke="black" fill="none" stroke-width="7.0" stroke-linecap="round" stroke-linejoin="round" />
</svg>