<svg xmlns="http://www.w3.org/2000/svg" width="300" height="300" viewBox="0 0 300 300">
<path d="M 96.0 99.0 L 96.0 98.5 L 95.5 98.0 L 95.5 97.5 L 95.5 98.0 L 97.5 102.0 L 101.0 108.5 L 104.0 114.0 L 106.5 116.0 L 107.0 116.0 " stroke="black" fill="none" stroke-width="8.0" stroke-linecap="round" stroke-linejoin="round" />
<path d="M 95.5 130.0 L 95.0 130.0 L 94.0 129.5 L 93.5 129.5 L 95.0 131.5 L 98.5 137.0 L 102.5 144.0 L 105.0 150.0 L 106.0 153.5 L 106.5 154.0 " stroke="black" fill="none" stroke-width="8.0" stroke-linecap="round" stroke-linejoin="round" />
<path d="M 97.0 197.0 L 97.0 197.5 L 97.0 198.5 L 97.0 198.5 L 98.0 196.5 L 100.5 191.5 L 103.5 185.0 L 106.5 178.0 L 109.0 173.5 L 109.5 173.0 " stroke="black" fill="none" stroke-width="8.0" stroke-linecap="round" stroke-linejoin="round" />
<path d="M 126.0 97.0 L 125.0 96.5 L 123.5 96.5 L 123.5 96.5 L 124.0 96.5 L 126.5 96.5 L 130.5 96.0 L 135.0 95.0 L 140.5 93.5 L 145.5 92.5 L 147.5 92.5 L 148.0 92.5 L 148.0 92.5 L 148.0 92.5 L 148.0 92.5 L 148.0 92.5 L 148.0 93.0 L 148.0 93.0 L 148.0 93.5 L 148.0 93.5 L 148.0 94.0 L 148.5 94.0 L 148.5 94.5 L 148.5 94.5 L 148.5 95.0 L 149.0 95.5 L 149.0 96.0 L 149.0 96.5 L 149.0 98.0 L 148.5 100.0 L 148.0 103.5 L 147.0 107.5 L 146.0 112.5 L 145.0 118.0 L 144.5 123.0 L 143.0 127.0 L 141.5 130.0 L 139.5 131.5 L 138.5 132.0 L 138.0 132.0 L 138.0 131.0 L 138.0 129.5 " stroke="black" fill="none" stroke-width="8.0" stroke-linecap="round" stroke-linejoin="round" />
<path d="M 131.0 110.5 L 130.5 110.5 L 130.0 110.0 L 130.0 109.5 L 130.0 109.5 L 131.5 110.0 L 134.0 111.0 L 136.5 111.5 L 138.5 111.5 " stroke="black" fill="none" stroke-width="8.0" stroke-linecap="round" stroke-linejoin="round" />
<path d="M 164.0 91.0 L 164.0 91.0 L 163.5 91.5 L 163.0 92.0 L 163.0 92.5 L 164.0 94.5 L 167.0 97.5 L 172.0 103.5 L 179.5 111.5 L 186.5 117.5 L 192.0 120.5 L 195.5 122.0 L 197.5 123.5 L 200.0 125.5 L 202.5 126.5 L 203.5 126.5 L 203.5 126.5 L 203.5 126.0 " stroke="black" fill="none" stroke-width="8.0" stroke-linecap="round" stroke-linejoin="round" />
<path d="M 177.5 92.5 L 178.0 92.5 L 179.0 92.5 L 179.5 92.0 L 180.0 92.0 L 180.0 92.0 L 180.5 92.5 L 180.0 94.5 L 178.5 97.5 L 176.5 100.5 L 176.0 102.0 " stroke="black" fill="none" stroke-width="8.0" stroke-linecap="round" stroke-linejoin="round" />
<path d="M 194.0 99.5 L 194.0 99.5 L 194.0 99.0 L 194.0 99.0 L 194.0 99.5 L 193.5 101.5 L 192.0 106.0 L 190.0 110.0 L 190.0 111.0 " stroke="black" fill="none" stroke-width="8.0" stroke-linecap="round" stroke-linejoin="round" />
<path d="M 147.5 136.0 L 147.5 136.5 L 147.0 137.0 L 148.5 136.5 L 153.0 135.0 L 160.5 132.5 L 168.5 130.5 L 175.0 130.0 L 178.5 129.5 L 179.5 130.0 L 180.0 130.5 L 180.5 130.5 L 180.5 130.5 " stroke="black" fill="none" stroke-width="8.0" stroke-linecap="round" stroke-linejoin="round" />
<path d="M 151.5 149.5 L 151.5 149.5 L 151.5 149.5 L 151.5 150.0 L 152.0 152.5 L 154.0 157.0 L 156.0 161.0 L 157.5 162.5 " stroke="black" fill="none" stroke-width="8.0" stroke-linecap="round" stroke-linejoin="round" />
<path d="M 155.0 153.5 L 154.5 153.5 L 153.5 154.0 L 153.5 154.0 L 154.0 153.5 L 158.5 151.5 L 164.5 149.5 L 171.5 147.5 L 177.5 146.5 L 181.5 146.5 L 183.5 147.5 L 184.5 149.0 L 185.5 150.5 L 186.0 152.5 L 186.0 155.0 L 185.0 158.5 L 183.0 162.0 L 180.5 165.0 L 178.0 166.5 " stroke="black" fill="none" stroke-width="8.0" stroke-linecap="round" stroke-linejoin="round" />
<path d="M 158.0 171.5 L 158.0 171.5 L 158.0 171.5 L 158.5 171.5 L 163.5 171.5 L 171.0 170.0 L 177.5 169.5 L 179.0 169.0 " stroke="black" fill="none" stroke-width="8.0" stroke-linecap="round" stroke-linejoin="round" />
<path d="M 154.5 184.0 L 154.5 183.5 L 154.5 183.5 L 155.0 183.5 L 157.5 186.0 L 161.0 189.5 L 165.0 193.0 L 167.5 193.5 " stroke="black" fill="none" stroke-width="8.0" stroke-linecap="round" stroke-linejoin="round" />
<path d="M 179.0 183.5 L 180.0 183.0 L 180.5 182.5 L 180.5 182.5 L 180.5 182.5 L 180.5 184.0 L 179.5 187.0 L 177.5 191.0 L 174.5 195.0 L 172.0 198.0 " stroke="black" fill="none" stroke-width="8.0" stroke-linecap="round" stroke-linejoin="round" />
<path d="M 141.5 206.5 L 141.5 206.5 L 141.5 206.0 L 141.5 205.0 L 144.0 205.0 L 152.0 204.5 L 165.0 203.5 L 179.5 202.5 L 191.0 202.0 L 196.5 202.0 L 199.5 202.0 L 200.0 201.5 L 199.5 201.5 " stroke="black" fill="none" stroke-width="8.0" stroke-linecap="round" stroke-linejoin="round" />
</svg>