<svg xmlns="http://www.w3.org/2000/svg" width="300" height="300" viewBox="0 0 300 300">
<path d="M 79.5 79.5 L 78.5 78.0 L 77.5 77.5 L 77.5 77.5 L 78.0 78.0 L 80.5 82.0 L 84.0 88.0 L 87.5 93.5 L 89.5 96.0 L 90.0 96.0 " stroke="black" fill="none" stroke-width="10.0" stroke-linecap="round" stroke-linejoin="round" />
<path d="M 77.0 130.0 L 77.0 130.0 L 76.0 130.0 L 75.0 130.5 L 75.0 131.0 L 77.0 133.5 L 81.5 139.0 L 86.5 144.0 L 89.5 147.0 L 89.5 147.0 " stroke="black" fill="none" stroke-width="10.0" stroke-linecap="round" stroke-linejoin="round" />
<path d="M 73.5 221.0 L 72.5 223.0 L 72.0 223.5 L 72.0 223.5 L 74.5 219.5 L 78.5 213.0 L 83.5 203.5 L 89.0 193.5 L 93.5 186.5 L 95.5 181.5 " stroke="black" fill="none" stroke-width="10.0" stroke-linecap="round" stroke-linejoin="round" />
<path d="M 111.0 91.5 L 111.0 91.5 L 111.0 92.0 L 111.0 92.5 L 111.0 92.5 L 114.5 92.5 L 122.0 92.0 L 132.5 91.0 L 141.5 90.0 L 147.0 89.5 L 150.0 89.5 L 151.5 90.5 L 151.5 91.0 " stroke="black" fill="none" stroke-width="10.0" stroke-linecap="round" stroke-linejoin="round" />
<path d="M 109.5 115.0 L 110.0 115.0 L 111.5 115.0 L 114.5 115.0 L 120.5 115.0 L 128.0 115.0 L 137.5 113.5 L 145.5 111.0 L 149.5 110.5 L 151.0 112.0 L 151.0 112.5 " stroke="black" fill="none" stroke-width="10.0" stroke-linecap="round" stroke-linejoin="round" />
<path d="M 106.5 136.5 L 106.5 136.5 L 106.0 137.5 L 106.0 137.5 L 110.5 137.0 L 120.5 134.0 L 132.0 130.0 L 141.0 126.5 L 147.5 125.0 L 149.0 125.0 " stroke="black" fill="none" stroke-width="10.0" stroke-linecap="round" stroke-linejoin="round" />
<path d="M 131.5 75.5 L 132.0 74.5 L 132.0 73.5 L 132.0 73.5 L 132.0 74.0 L 131.5 78.0 L 131.5 85.5 L 131.0 98.5 L 131.0 115.0 L 130.0 127.0 L 129.0 133.0 L 129.0 136.0 L 129.0 136.5 " stroke="black" fill="none" stroke-width="10.0" stroke-linecap="round" stroke-linejoin="round" />
<path d="M 182.0 95.5 L 182.0 95.5 L 182.5 95.5 L 183.0 95.5 L 183.0 96.0 L 183.0 98.0 L 182.0 105.5 L 178.5 119.0 L 175.0 130.0 L 173.5 133.0 L 173.0 133.0 " stroke="black" fill="none" stroke-width="10.0" stroke-linecap="round" stroke-linejoin="round" />
<path d="M 170.5 86.5 L 170.5 87.0 L 170.5 87.5 L 170.5 88.0 L 171.5 88.0 L 175.0 87.0 L 180.5 86.0 L 187.5 84.5 L 194.5 83.0 L 201.0 82.0 L 206.0 82.0 L 209.5 82.0 L 211.0 82.5 L 211.0 83.5 L 211.0 83.5 L 211.0 84.0 L 211.0 84.5 L 211.0 85.0 L 211.0 85.0 L 211.0 86.0 L 211.0 87.0 L 211.0 89.0 L 211.0 92.0 L 211.0 96.0 L 211.0 101.0 L 212.0 107.0 L 212.5 113.0 L 213.0 120.0 L 213.0 126.5 L 213.0 132.5 L 212.0 138.0 L 210.0 140.5 L 208.0 140.5 L 204.0 138.5 L 199.5 135.5 L 198.5 135.0 " stroke="black" fill="none" stroke-width="10.0" stroke-linecap="round" stroke-linejoin="round" />
<path d="M 152.5 149.5 L 152.5 150.0 L 153.0 150.0 L 153.5 150.5 L 153.5 151.0 L 153.0 151.5 L 151.5 153.0 L 149.0 156.0 L 144.5 161.0 L 139.5 166.0 L 134.0 170.5 L 130.5 172.0 L 127.5 172.5 L 125.5 172.5 L 123.5 173.0 L 121.5 174.0 L 120.0 174.5 L 119.5 175.0 L 119.5 175.0 L 119.5 175.0 L 119.5 175.0 L 120.0 175.0 L 121.0 175.0 L 122.0 174.5 L 123.5 174.5 L 125.5 174.5 L 129.0 174.5 L 134.5 175.5 L 140.5 175.5 L 147.0 175.5 L 151.5 174.0 L 155.0 172.5 L 159.0 172.0 L 162.0 171.5 L 164.0 171.0 L 166.5 170.0 L 168.0 169.0 L 169.0 168.5 L 169.5 168.0 L 169.5 168.0 L 169.5 168.0 L 169.5 168.0 L 169.5 168.0 L 169.5 168.0 " stroke="black" fill="none" stroke-width="10.0" stroke-linecap="round" stroke-linejoin="round" />
<path d="M 171.5 159.5 L 171.5 159.5 L 171.0 159.5 L 171.0 160.0 L 170.5 160.5 L 169.5 161.5 L 168.0 163.5 L 164.5 167.0 L 159.0 172.0 L 153.0 177.5 L 147.5 182.5 L 143.0 185.5 L 138.5 188.0 L 134.0 190.5 L 131.0 192.5 L 128.5 194.5 L 127.0 195.5 L 125.5 196.5 L 123.5 197.5 L 121.5 198.5 L 120.5 199.0 L 120.0 199.0 L 120.0 199.0 L 120.0 199.0 L 120.0 199.0 L 120.0 199.0 L 120.0 199.0 L 120.0 199.0 L 120.0 199.0 L 120.0 199.0 L 121.0 199.0 L 122.5 199.0 L 125.5 199.5 L 132.5 200.0 L 142.5 200.5 L 152.0 201.0 L 160.5 200.5 L 167.5 200.0 L 173.0 200.5 L 178.0 202.0 L 181.5 203.0 L 183.5 203.5 L 184.0 203.5 " stroke="black" fill="none" stroke-width="10.0" stroke-linecap="round" stroke-linejoin="round" />
<path d="M 185.0 187.0 L 184.5 187.0 L 183.5 187.0 L 183.0 187.0 L 183.0 187.5 L 185.5 191.0 L 191.0 197.0 L 196.0 202.5 L 200.0 206.0 L 200.5 206.5 " stroke="black" fill="none" stroke-width="10.0" stroke-linecap="round" stroke-linejoin="round" />
<path d="M 153.0 213.5 L 153.5 213.5 L 154.0 213.0 L 154.0 213.0 L 154.0 213.5 L 154.0 216.0 L 153.5 222.0 L 151.0 230.5 L 148.5 236.0 L 146.0 237.5 L 145.0 236.5 " stroke="black" fill="none" stroke-width="10.0" stroke-linecap="round" stroke-linejoin="round" />
<path d="M 132.5 222.0 L 133.0 222.0 L 133.5 222.0 L 133.5 222.0 L 131.5 223.0 L 128.0 225.5 L 123.5 229.5 L 119.5 232.0 L 118.5 232.0 " stroke="black" fill="none" stroke-width="10.0" stroke-linecap="round" stroke-linejoin="round" />
<path d="M 182.5 226.0 L 182.5 226.5 L 182.0 227.0 L 182.5 228.0 L 186.5 230.5 L 192.0 233.5 " stroke="black" fill="none" stroke-width="10.0" stroke-linecap="round" stroke-linejoin="round" />
</svg>