<svg xmlns="http://www.w3.org/2000/svg" width="300" height="300" viewBox="0 0 300 300">
<path d="M 75.0 80.0 L 73.88888888888889 80.0 L 73.33333333333333 80.0 L 74.44444444444444 81.11111111111111 L 78.88888888888889 85.55555555555556 L 85.0 93.33333333333333 L 89.44444444444444 101.11111111111111 L 91.66666666666667 106.11111111111111 L 91.66666666666667 106.11111111111111 " stroke="black" fill="none" stroke-width="12.0" stroke-linecap="round" stroke-linejoin="round" />
<path d="M 71.11111111111111 137.22222222222223 L 67.77777777777777 136.66666666666669 L 67.22222222222221 136.11111111111111 L 67.77777777777777 136.66666666666669 L 71.11111111111111 139.44444444444446 L 75.55555555555556 143.8888888888889 L 80.0 149.44444444444446 L 83.33333333333333 155.00000000000003 L 84.44444444444444 160.00000000000003 " stroke="black" fill="none" stroke-width="12.0" stroke-linecap="round" stroke-linejoin="round" />
<path d="M 66.11111111111111 231.11111111111114 L 66.11111111111111 232.7777777777778 L 66.11111111111111 233.8888888888889 L 66.66666666666667 233.8888888888889 L 70.0 229.44444444444446 L 74.44444444444444 218.8888888888889 L 80.55555555555556 206.11111111111114 L 86.66666666666667 196.11111111111114 L 91.11111111111111 190.55555555555557 " stroke="black" fill="none" stroke-width="12.0" stroke-linecap="round" stroke-linejoin="round" />
<path d="M 112.77777777777779 80.55555555555556 L 112.22222222222221 81.11111111111111 L 112.22222222222221 81.11111111111111 L 114.44444444444444 81.11111111111111 L 121.1111111111111 80.55555555555556 L 133.8888888888889 77.77777777777777 L 147.22222222222223 76.11111111111111 L 156.11111111111111 75.55555555555556 L 159.44444444444446 76.11111111111111 " stroke="black" fill="none" stroke-width="12.0" stroke-linecap="round" stroke-linejoin="round" />
<path d="M 122.22222222222221 86.66666666666667 L 122.22222222222221 86.11111111111111 L 122.77777777777779 85.55555555555556 L 122.77777777777779 85.0 L 123.33333333333333 85.0 L 123.8888888888889 85.0 L 123.8888888888889 87.22222222222223 L 122.77777777777779 92.77777777777777 L 120.00000000000001 101.11111111111111 L 116.66666666666667 111.11111111111111 L 115.00000000000001 116.1111111111111 L 116.66666666666667 117.22222222222221 L 121.1111111111111 117.22222222222221 L 130.00000000000003 115.00000000000001 L 141.11111111111111 112.22222222222221 L 149.44444444444446 111.66666666666667 L 153.33333333333334 111.66666666666667 L 154.44444444444446 112.22222222222221 L 154.44444444444446 110.0 " stroke="black" fill="none" stroke-width="12.0" stroke-linecap="round" stroke-linejoin="round" />
<path d="M 143.33333333333334 82.22222222222223 L 143.33333333333334 82.22222222222223 L 142.7777777777778 82.77777777777777 L 142.22222222222223 83.33333333333333 L 142.22222222222223 86.66666666666667 L 142.22222222222223 95.0 L 138.33333333333334 110.55555555555556 L 131.66666666666669 126.1111111111111 L 123.33333333333333 138.33333333333334 L 116.66666666666667 146.11111111111111 L 111.11111111111111 150.00000000000003 L 109.44444444444444 151.11111111111111 L 110.0 150.00000000000003 " stroke="black" fill="none" stroke-width="12.0" stroke-linecap="round" stroke-linejoin="round" />
<path d="M 148.33333333333334 125.00000000000001 L 147.7777777777778 125.00000000000001 L 147.22222222222223 124.44444444444444 L 146.66666666666669 123.8888888888889 L 146.66666666666669 124.44444444444444 L 146.66666666666669 127.22222222222221 L 147.22222222222223 133.8888888888889 L 147.22222222222223 143.8888888888889 L 146.11111111111111 152.7777777777778 L 145.55555555555557 158.33333333333334 L 145.55555555555557 159.44444444444446 L 146.11111111111111 158.33333333333334 L 148.8888888888889 155.55555555555557 L 152.22222222222223 152.22222222222223 L 156.66666666666669 149.44444444444446 L 160.00000000000003 147.22222222222223 L 161.66666666666669 146.11111111111111 " stroke="black" fill="none" stroke-width="12.0" stroke-linecap="round" stroke-linejoin="round" />
<path d="M 186.11111111111114 79.44444444444444 L 186.11111111111114 79.44444444444444 L 185.55555555555557 79.44444444444444 L 185.55555555555557 79.44444444444444 L 185.55555555555557 79.44444444444444 L 187.7777777777778 79.44444444444444 L 195.55555555555557 78.88888888888889 L 208.33333333333334 77.77777777777777 L 220.00000000000003 77.22222222222223 L 225.00000000000003 76.66666666666667 L 225.00000000000003 76.66666666666667 " stroke="black" fill="none" stroke-width="12.0" stroke-linecap="round" stroke-linejoin="round" />
<path d="M 193.33333333333334 80.55555555555556 L 193.33333333333334 80.55555555555556 L 193.33333333333334 80.55555555555556 L 193.33333333333334 80.55555555555556 L 193.33333333333334 80.0 L 193.33333333333334 80.0 L 193.33333333333334 81.11111111111111 L 193.33333333333334 85.0 L 191.11111111111114 93.88888888888889 L 187.7777777777778 105.0 L 183.33333333333334 115.00000000000001 L 181.11111111111114 119.44444444444444 L 180.55555555555557 120.55555555555556 L 180.55555555555557 120.55555555555556 L 180.55555555555557 120.55555555555556 L 183.33333333333334 120.55555555555556 L 188.8888888888889 120.55555555555556 L 196.11111111111114 120.55555555555556 L 205.55555555555557 119.44444444444444 L 215.55555555555557 117.77777777777779 L 222.22222222222223 117.22222222222221 L 225.00000000000003 116.1111111111111 L 224.44444444444446 116.1111111111111 " stroke="black" fill="none" stroke-width="12.0" stroke-linecap="round" stroke-linejoin="round" />
<path d="M 208.8888888888889 85.55555555555556 L 208.8888888888889 85.55555555555556 L 209.44444444444446 85.55555555555556 L 209.44444444444446 86.66666666666667 L 209.44444444444446 90.0 L 208.8888888888889 100.0 L 205.55555555555557 117.77777777777779 L 198.8888888888889 135.55555555555557 L 192.22222222222223 147.7777777777778 L 185.00000000000003 155.00000000000003 L 180.00000000000003 159.44444444444446 L 178.8888888888889 160.55555555555557 L 178.8888888888889 160.00000000000003 " stroke="black" fill="none" stroke-width="12.0" stroke-linecap="round" stroke-linejoin="round" />
<path d="M 210.00000000000003 137.7777777777778 L 210.00000000000003 137.22222222222223 L 210.55555555555557 136.66666666666669 L 210.55555555555557 136.66666666666669 L 210.55555555555557 137.7777777777778 L 211.11111111111114 143.33333333333334 L 212.22222222222223 151.66666666666669 L 214.44444444444446 159.44444444444446 L 218.8888888888889 162.22222222222223 L 223.8888888888889 159.44444444444446 L 228.8888888888889 153.33333333333334 L 230.00000000000003 151.11111111111111 " stroke="black" fill="none" stroke-width="12.0" stroke-linecap="round" stroke-linejoin="round" />
<path d="M 140.55555555555557 192.7777777777778 L 140.00000000000003 191.66666666666669 L 139.44444444444446 191.11111111111114 L 139.44444444444446 192.7777777777778 L 140.55555555555557 199.44444444444446 L 142.22222222222223 211.11111111111114 L 143.33333333333334 222.7777777777778 L 143.8888888888889 228.8888888888889 L 143.8888888888889 230.00000000000003 L 144.44444444444446 230.00000000000003 " stroke="black" fill="none" stroke-width="12.0" stroke-linecap="round" stroke-linejoin="round" />
<path d="M 137.22222222222223 191.66666666666669 L 137.22222222222223 190.55555555555557 L 136.66666666666669 190.00000000000003 L 136.66666666666669 189.44444444444446 L 140.55555555555557 188.33333333333334 L 148.8888888888889 185.55555555555557 L 162.22222222222223 183.33333333333334 L 178.8888888888889 182.22222222222223 L 194.44444444444446 182.22222222222223 L 202.22222222222223 185.00000000000003 L 208.33333333333334 187.7777777777778 L 210.55555555555557 190.00000000000003 L 210.55555555555557 192.22222222222223 L 209.44444444444446 196.11111111111114 L 208.33333333333334 201.11111111111114 L 207.22222222222223 208.33333333333334 L 205.55555555555557 218.33333333333334 L 203.33333333333334 228.33333333333334 L 200.55555555555557 236.11111111111114 L 199.44444444444446 240.00000000000003 L 199.44444444444446 238.8888888888889 L 199.44444444444446 233.8888888888889 " stroke="black" fill="none" stroke-width="12.0" stroke-linecap="round" stroke-linejoin="round" />
<path d="M 149.44444444444446 213.33333333333334 L 149.44444444444446 212.7777777777778 L 149.44444444444446 211.66666666666669 L 151.11111111111111 210.55555555555557 L 157.7777777777778 210.55555555555557 L 168.8888888888889 210.55555555555557 L 181.66666666666669 210.55555555555557 L 194.44444444444446 210.55555555555557 L 202.7777777777778 211.11111111111114 L 205.55555555555557 212.22222222222223 " stroke="black" fill="none" stroke-width="12.0" stroke-linecap="round" stroke-linejoin="round" />
<path d="M 146.11111111111111 243.33333333333334 L 145.00000000000003 242.7777777777778 L 144.44444444444446 242.22222222222226 L 145.55555555555557 241.6666666666667 L 148.8888888888889 241.11111111111111 L 156.11111111111111 240.55555555555557 L 166.66666666666669 240.55555555555557 L 177.7777777777778 241.6666666666667 L 187.22222222222223 242.22222222222226 L 192.7777777777778 241.6666666666667 " stroke="black" fill="none" stroke-width="12.0" stroke-linecap="round" stroke-linejoin="round" />
</svg>