<svg xmlns="http://www.w3.org/2000/svg" width="300" height="300" viewBox="0 0 300 300">
<path d="M 123.0 122.0 L 122.0 121.5 L 121.0 121.5 L 121.0 121.5 L 122.0 122.0 L 125.0 124.0 L 128.0 126.5 L 130.0 128.5 L 130.5 130.5 " stroke="black" fill="none" stroke-width="6.0" stroke-linecap="round" stroke-linejoin="round" />
<path d="M 125.0 145.5 L 124.0 146.0 L 123.5 147.0 L 124.5 148.0 L 127.0 150.0 L 129.5 152.5 L 131.0 156.5 L 132.0 160.5 " stroke="black" fill="none" stroke-width="6.0" stroke-linecap="round" stroke-linejoin="round" />
<path d="M 121.5 184.0 L 121.5 183.5 L 121.5 182.0 L 122.5 179.0 L 125.5 174.0 L 128.5 169.5 L 129.5 167.5 " stroke="black" fill="none" stroke-width="6.0" stroke-linecap="round" stroke-linejoin="round" />
<path d="M 143.0 123.5 L 142.0 123.0 L 141.5 123.0 L 143.0 122.5 L 148.0 121.0 L 155.0 119.0 L 160.0 118.5 L 163.0 118.5 L 163.5 118.5 " stroke="black" fill="none" stroke-width="6.0" stroke-linecap="round" stroke-linejoin="round" />
<path d="M 141.5 138.0 L 141.0 137.5 L 140.5 137.0 L 140.5 136.5 L 140.0 136.5 L 140.0 138.0 L 141.0 141.5 L 142.0 145.0 L 143.0 146.5 " stroke="black" fill="none" stroke-width="6.0" stroke-linecap="round" stroke-linejoin="round" />
<path d="M 142.5 137.5 L 142.0 137.0 L 141.0 136.5 L 141.0 135.5 L 143.5 134.0 L 148.0 132.5 L 152.0 132.0 L 156.0 132.0 L 158.5 132.5 L 160.5 132.5 L 161.5 133.0 L 162.0 133.5 L 162.0 134.5 L 162.0 136.0 L 162.0 138.5 L 161.0 141.0 L 159.5 143.5 L 158.0 145.0 L 157.0 145.5 " stroke="black" fill="none" stroke-width="6.0" stroke-linecap="round" stroke-linejoin="round" />
<path d="M 147.5 149.0 L 146.5 149.0 L 146.0 149.0 L 147.0 149.0 L 150.5 148.0 L 153.5 147.0 L 156.0 145.5 " stroke="black" fill="none" stroke-width="6.0" stroke-linecap="round" stroke-linejoin="round" />
<path d="M 152.5 114.5 L 152.5 115.0 L 152.5 116.0 L 152.5 116.5 L 152.5 117.5 L 152.5 120.5 L 152.0 129.5 L 151.0 147.0 L 150.0 165.5 L 149.0 177.5 L 149.0 183.0 L 149.0 185.0 L 149.5 183.0 L 149.5 182.5 " stroke="black" fill="none" stroke-width="6.0" stroke-linecap="round" stroke-linejoin="round" />
<path d="M 150.0 155.5 L 150.0 155.5 L 150.0 155.5 L 150.0 155.5 L 149.5 156.5 L 147.0 160.0 L 143.0 166.5 L 140.0 170.0 L 139.0 171.0 L 139.5 170.0 " stroke="black" fill="none" stroke-width="6.0" stroke-linecap="round" stroke-linejoin="round" />
<path d="M 151.0 156.5 L 153.0 156.5 L 155.5 157.0 L 158.5 159.5 L 160.5 161.5 L 163.0 162.0 L 163.5 161.5 " stroke="black" fill="none" stroke-width="6.0" stroke-linecap="round" stroke-linejoin="round" />
<path d="M 175.5 123.0 L 175.5 122.5 L 176.0 122.0 L 176.0 122.0 L 176.0 124.0 L 175.0 129.0 L 173.0 135.5 L 171.0 139.0 L 170.0 139.5 L 170.0 137.5 " stroke="black" fill="none" stroke-width="6.0" stroke-linecap="round" stroke-linejoin="round" />
<path d="M 172.5 119.5 L 172.0 120.0 L 171.5 120.5 L 172.0 120.5 L 174.5 120.0 L 178.0 118.5 L 181.0 118.0 L 183.5 118.0 L 185.0 118.0 L 186.0 118.5 L 186.5 120.0 L 186.5 121.5 L 187.0 123.5 L 187.0 126.5 L 187.0 130.0 L 186.5 133.5 L 185.5 136.0 L 184.5 137.0 L 183.0 136.5 L 183.0 136.0 " stroke="black" fill="none" stroke-width="6.0" stroke-linecap="round" stroke-linejoin="round" />
<path d="M 172.0 149.0 L 172.0 149.0 L 172.0 149.0 L 172.0 149.0 L 171.5 149.5 L 171.5 153.5 L 171.5 160.5 L 172.0 166.5 L 172.5 169.0 L 172.5 169.0 " stroke="black" fill="none" stroke-width="6.0" stroke-linecap="round" stroke-linejoin="round" />
<path d="M 175.0 147.5 L 174.5 147.0 L 174.0 147.0 L 174.0 147.0 L 175.5 147.0 L 178.0 147.0 L 181.5 147.0 L 184.0 146.5 L 186.5 146.0 L 188.0 145.5 L 188.5 145.5 L 189.0 147.5 L 189.0 151.0 L 188.5 156.0 L 188.0 162.0 L 187.5 166.5 L 187.0 168.0 L 186.5 168.5 L 186.0 167.5 " stroke="black" fill="none" stroke-width="6.0" stroke-linecap="round" stroke-linejoin="round" />
<path d="M 174.0 155.0 L 174.0 155.5 L 173.5 156.0 L 173.0 156.5 L 175.0 156.0 L 178.0 155.0 L 181.0 154.0 L 184.0 153.5 L 185.5 153.5 " stroke="black" fill="none" stroke-width="6.0" stroke-linecap="round" stroke-linejoin="round" />
<path d="M 175.5 162.0 L 175.5 162.0 L 175.5 162.5 L 175.5 163.0 L 175.5 163.0 L 177.5 163.0 L 180.0 162.5 L 182.5 162.5 L 183.0 162.5 " stroke="black" fill="none" stroke-width="6.0" stroke-linecap="round" stroke-linejoin="round" />
<path d="M 172.0 172.0 L 172.0 172.0 L 172.0 172.0 L 172.0 172.0 L 173.5 172.0 L 176.5 170.5 L 180.0 170.0 L 182.5 169.5 " stroke="black" fill="none" stroke-width="6.0" stroke-linecap="round" stroke-linejoin="round" />
<path d="M 173.5 179.0 L 173.5 179.0 L 173.5 180.0 L 173.5 181.0 L 172.0 182.5 L 170.0 185.0 L 167.5 187.0 L 167.0 188.5 L 167.0 188.5 " stroke="black" fill="none" stroke-width="6.0" stroke-linecap="round" stroke-linejoin="round" />
<path d="M 184.0 182.0 L 184.0 182.5 L 185.0 184.0 L 187.5 185.5 L 191.0 187.0 L 193.5 187.5 " stroke="black" fill="none" stroke-width="6.0" stroke-linecap="round" stroke-linejoin="round" />
</svg>