<svg xmlns="http://www.w3.org/2000/svg" width="300" height="300" viewBox="0 0 300 300">
<path d="M 123.0 122.5 L 122.5 122.5 L 122.0 122.0 L 121.5 121.5 L 121.5 121.5 L 122.5 121.5 L 126.5 121.5 L 133.0 121.0 L 140.5 120.5 L 147.5 120.0 L 150.5 120.0 L 151.5 120.0 L 151.5 120.0 L 150.5 120.0 L 150.5 120.0 L 150.0 120.0 L 149.5 120.0 " stroke="black" fill="none" stroke-width="6.0" stroke-linecap="round" stroke-linejoin="round" />
<path d="M 134.5 123.0 L 135.0 122.5 L 135.5 121.5 L 135.5 121.5 L 135.5 122.0 L 134.5 126.0 L 131.5 132.5 L 127.0 141.0 L 121.5 148.0 L 120.0 149.5 L 121.0 147.5 L 122.0 145.5 " stroke="black" fill="none" stroke-width="6.0" stroke-linecap="round" stroke-linejoin="round" />
<path d="M 134.5 130.5 L 135.0 130.5 L 135.5 131.0 L 135.5 131.0 L 136.5 131.0 L 137.5 131.5 L 139.5 132.0 L 142.0 133.5 L 144.5 136.0 L 145.5 138.5 L 145.5 141.5 L 145.0 146.0 L 143.5 150.5 L 141.5 155.5 L 138.5 160.0 L 135.5 164.5 L 132.5 168.0 L 130.5 169.0 L 130.0 169.0 L 129.5 168.5 " stroke="black" fill="none" stroke-width="6.0" stroke-linecap="round" stroke-linejoin="round" />
<path d="M 130.5 147.0 L 130.5 146.5 L 131.0 145.5 L 131.5 145.5 L 132.5 146.0 L 134.0 147.5 L 136.5 149.0 L 136.5 149.0 " stroke="black" fill="none" stroke-width="6.0" stroke-linecap="round" stroke-linejoin="round" />
<path d="M 155.0 131.5 L 156.0 131.5 L 156.5 131.5 L 157.0 131.5 L 157.0 131.5 L 157.0 136.0 L 157.0 146.0 L 157.0 155.5 L 157.0 160.0 L 157.0 159.5 L 157.0 155.0 " stroke="black" fill="none" stroke-width="6.0" stroke-linecap="round" stroke-linejoin="round" />
<path d="M 169.5 120.0 L 169.0 119.5 L 168.5 119.0 L 168.5 119.0 L 168.5 119.5 L 168.5 123.0 L 169.0 129.5 L 169.5 138.5 L 169.5 149.0 L 170.0 158.0 L 170.5 164.5 L 170.5 169.0 L 170.0 172.5 L 169.0 174.0 L 168.0 175.0 L 166.5 175.0 L 165.0 174.0 L 164.0 173.0 " stroke="black" fill="none" stroke-width="6.0" stroke-linecap="round" stroke-linejoin="round" />
<path d="M 120.5 183.0 L 120.5 183.0 L 120.5 183.0 L 120.5 182.5 L 120.5 182.5 L 120.5 183.0 L 120.0 185.5 L 119.0 189.5 L 117.0 193.0 L 116.0 194.5 " stroke="black" fill="none" stroke-width="6.0" stroke-linecap="round" stroke-linejoin="round" />
<path d="M 133.0 185.5 L 133.0 185.0 L 133.5 185.0 L 134.0 185.0 L 135.0 186.0 L 136.5 188.5 L 138.0 190.5 L 139.0 192.5 L 139.5 192.5 " stroke="black" fill="none" stroke-width="6.0" stroke-linecap="round" stroke-linejoin="round" />
<path d="M 150.5 187.0 L 150.0 187.0 L 150.0 186.5 L 150.0 186.5 L 150.5 188.0 L 152.5 190.0 L 154.5 191.5 L 155.0 192.5 " stroke="black" fill="none" stroke-width="6.0" stroke-linecap="round" stroke-linejoin="round" />
<path d="M 171.5 186.5 L 171.5 186.0 L 172.0 185.5 L 172.5 185.5 L 174.5 187.0 L 176.5 190.5 L 179.0 194.0 L 179.5 195.0 " stroke="black" fill="none" stroke-width="6.0" stroke-linecap="round" stroke-linejoin="round" />
</svg>