<svg xmlns="http://www.w3.org/2000/svg" width="300" height="300" viewBox="0 0 300 300">
<path d="M 142.0 98.0 L 142.0 98.0 L 142.0 98.0 L 144.0 98.5 L 147.0 100.5 L 150.0 103.0 L 151.5 104.5 L 152.0 104.5 " stroke="black" fill="none" stroke-width="7.0" stroke-linecap="round" stroke-linejoin="round" />
<path d="M 130.0 113.5 L 130.0 113.5 L 130.0 113.5 L 132.5 113.5 L 139.0 113.0 L 148.5 113.0 L 158.0 113.0 L 165.0 112.0 L 169.5 110.5 L 171.0 110.5 " stroke="black" fill="none" stroke-width="7.0" stroke-linecap="round" stroke-linejoin="round" />
<path d="M 139.5 127.5 L 139.5 127.0 L 139.5 126.5 L 139.5 126.5 L 139.5 126.5 L 140.0 129.5 L 141.0 133.5 L 142.0 137.5 L 142.5 139.0 " stroke="black" fill="none" stroke-width="7.0" stroke-linecap="round" stroke-linejoin="round" />
<path d="M 140.5 129.5 L 139.5 129.0 L 138.5 128.5 L 138.5 127.5 L 141.0 126.0 L 145.0 124.5 L 149.5 123.0 L 155.0 122.0 L 160.5 122.0 L 165.0 123.0 L 166.5 124.0 L 166.5 125.5 L 165.5 127.5 L 163.5 130.5 L 162.0 134.5 L 161.0 137.0 L 160.5 138.0 " stroke="black" fill="none" stroke-width="7.0" stroke-linecap="round" stroke-linejoin="round" />
<path d="M 147.0 139.5 L 147.0 139.5 L 147.0 139.5 L 147.0 139.5 L 149.0 139.0 L 153.0 138.5 L 159.0 138.0 L 162.5 137.5 " stroke="black" fill="none" stroke-width="7.0" stroke-linecap="round" stroke-linejoin="round" />
<path d="M 143.5 152.0 L 142.5 152.5 L 141.5 153.0 L 141.0 153.0 L 141.5 153.0 L 144.5 151.5 L 149.0 150.0 L 152.0 149.5 L 155.5 148.5 L 163.0 148.0 L 168.0 148.0 L 169.5 150.0 L 168.5 152.0 L 165.0 154.5 L 160.5 158.5 L 156.0 162.0 L 153.5 164.5 L 153.0 165.5 L 154.5 166.0 L 157.5 167.0 L 161.0 167.5 L 164.5 169.0 L 166.5 171.5 L 167.0 176.0 L 166.5 180.5 L 165.0 184.5 L 163.5 187.0 L 161.0 189.0 L 158.0 189.0 L 154.5 188.0 L 151.5 184.5 L 151.0 184.0 " stroke="black" fill="none" stroke-width="7.0" stroke-linecap="round" stroke-linejoin="round" />
<path d="M 136.0 195.0 L 136.0 195.0 L 137.0 194.5 L 137.5 194.5 L 137.5 194.5 L 136.0 197.5 L 133.5 201.5 L 131.5 205.0 L 131.0 205.5 " stroke="black" fill="none" stroke-width="7.0" stroke-linecap="round" stroke-linejoin="round" />
<path d="M 152.0 199.0 L 152.0 199.0 L 152.0 199.0 L 152.0 199.0 L 153.5 200.0 L 155.5 201.5 L 158.0 202.5 " stroke="black" fill="none" stroke-width="7.0" stroke-linecap="round" stroke-linejoin="round" />
<path d="M 170.0 195.5 L 169.5 195.5 L 169.0 195.5 L 169.5 195.5 L 172.0 196.0 L 174.5 197.0 L 176.0 198.0 " stroke="black" fill="none" stroke-width="7.0" stroke-linecap="round" stroke-linejoin="round" />
<path d="M 185.0 193.0 L 185.0 193.0 L 186.0 193.0 L 187.5 193.5 L 191.0 195.0 L 195.0 198.0 L 196.5 199.0 " stroke="black" fill="none" stroke-width="7.0" stroke-linecap="round" stroke-linejoin="round" />
</svg>