<svg xmlns="http://www.w3.org/2000/svg" width="300" height="300" viewBox="0 0 300 300">
<path d="M 123.5 105.0 L 122.0 105.0 L 122.0 105.0 L 122.0 105.0 L 122.0 105.0 L 122.0 105.0 L 122.5 106.0 L 123.0 109.0 L 123.0 116.5 L 122.0 129.5 L 118.5 145.0 L 115.0 157.5 L 111.5 168.0 L 108.5 174.0 L 106.5 176.5 L 106.5 176.0 L 106.0 172.0 " stroke="black" fill="none" stroke-width="7.0" stroke-linecap="round" stroke-linejoin="round" />
<path d="M 107.0 130.0 L 106.5 131.5 L 106.5 132.0 L 107.5 133.0 L 109.5 134.5 L 112.0 135.0 " stroke="black" fill="none" stroke-width="7.0" stroke-linecap="round" stroke-linejoin="round" />
<path d="M 137.0 121.5 L 137.0 121.5 L 136.5 121.5 L 136.0 122.0 L 136.0 123.5 L 135.5 127.0 L 134.5 131.0 L 133.5 133.5 " stroke="black" fill="none" stroke-width="7.0" stroke-linecap="round" stroke-linejoin="round" />
<path d="M 126.0 153.0 L 125.5 153.5 L 124.5 154.0 L 124.5 154.0 L 125.0 155.0 L 127.5 159.5 L 132.5 168.5 L 137.5 178.0 L 141.0 183.0 L 142.0 183.5 " stroke="black" fill="none" stroke-width="7.0" stroke-linecap="round" stroke-linejoin="round" />
<path d="M 156.5 104.5 L 156.5 104.5 L 157.0 104.5 L 157.0 104.0 L 157.0 104.0 L 157.0 104.0 L 157.0 104.0 L 156.5 106.0 L 155.0 109.0 L 153.5 112.5 L 153.0 115.0 " stroke="black" fill="none" stroke-width="7.0" stroke-linecap="round" stroke-linejoin="round" />
<path d="M 146.5 116.0 L 146.5 115.5 L 146.5 115.0 L 146.0 114.5 L 146.0 114.5 L 146.5 116.5 L 147.5 122.0 L 148.5 128.0 L 149.0 133.0 L 149.5 136.0 L 150.0 135.0 " stroke="black" fill="none" stroke-width="7.0" stroke-linecap="round" stroke-linejoin="round" />
<path d="M 151.5 116.0 L 151.0 116.5 L 149.5 117.0 L 149.5 117.0 L 150.5 117.0 L 154.0 116.5 L 159.0 116.0 L 164.0 115.0 L 169.5 115.0 L 173.5 114.5 L 174.5 114.5 L 175.0 114.5 L 174.5 114.5 L 174.0 115.0 L 173.5 116.5 L 173.0 119.5 L 172.5 123.0 L 172.5 127.0 L 172.5 130.5 L 172.5 133.0 L 172.5 134.0 " stroke="black" fill="none" stroke-width="7.0" stroke-linecap="round" stroke-linejoin="round" />
<path d="M 151.5 127.0 L 151.5 127.5 L 151.5 128.0 L 151.5 128.0 L 154.0 128.0 L 159.0 127.0 L 164.5 126.0 L 169.5 125.5 L 172.0 125.5 " stroke="black" fill="none" stroke-width="7.0" stroke-linecap="round" stroke-linejoin="round" />
<path d="M 154.0 138.0 L 154.0 138.0 L 153.5 138.5 L 153.5 139.0 L 156.5 139.0 L 161.5 138.5 L 166.0 138.0 L 167.0 138.0 " stroke="black" fill="none" stroke-width="7.0" stroke-linecap="round" stroke-linejoin="round" />
<path d="M 149.0 152.0 L 149.5 153.0 L 150.5 153.5 L 153.0 153.5 L 157.0 152.5 L 163.0 151.5 L 168.5 151.0 L 172.5 151.0 L 173.5 151.0 " stroke="black" fill="none" stroke-width="7.0" stroke-linecap="round" stroke-linejoin="round" />
<path d="M 157.5 165.0 L 157.5 165.0 L 157.0 164.0 L 157.0 164.0 L 157.0 164.0 L 159.0 164.0 L 162.5 165.0 L 166.0 165.5 L 168.5 166.0 L 169.5 166.0 " stroke="black" fill="none" stroke-width="7.0" stroke-linecap="round" stroke-linejoin="round" />
<path d="M 164.0 153.0 L 163.5 153.5 L 163.0 154.0 L 162.5 154.5 L 162.5 156.0 L 162.5 159.5 L 163.0 165.5 L 163.5 170.5 L 163.5 175.0 L 163.5 177.5 L 163.5 177.5 " stroke="black" fill="none" stroke-width="7.0" stroke-linecap="round" stroke-linejoin="round" />
<path d="M 153.5 182.0 L 153.5 182.0 L 153.5 182.0 L 153.5 182.0 L 154.0 182.0 L 157.5 182.0 L 163.5 182.0 L 170.0 181.5 L 175.5 180.5 L 179.0 180.5 L 180.5 180.5 " stroke="black" fill="none" stroke-width="7.0" stroke-linecap="round" stroke-linejoin="round" />
</svg>