<svg xmlns="http://www.w3.org/2000/svg" width="300" height="300" viewBox="0 0 300 300">
<path d="M 130.5 97.0 L 130.5 96.5 L 132.0 95.0 L 132.5 93.5 L 133.5 93.5 L 133.5 93.5 L 133.5 96.5 L 131.0 104.0 L 127.0 114.5 L 122.5 123.5 L 121.0 126.0 L 121.0 124.0 " stroke="black" fill="none" stroke-width="8.0" stroke-linecap="round" stroke-linejoin="round" />
<path d="M 128.5 111.0 L 128.5 111.0 L 128.0 110.5 L 129.5 110.5 L 137.0 110.0 L 150.5 109.5 L 165.0 109.5 L 179.0 109.5 L 192.0 109.0 L 199.0 108.5 L 201.0 109.0 L 200.0 110.5 L 198.5 110.5 " stroke="black" fill="none" stroke-width="8.0" stroke-linecap="round" stroke-linejoin="round" />
<path d="M 123.0 144.5 L 123.0 144.5 L 122.5 144.0 L 122.5 144.0 L 126.0 144.0 L 135.0 143.5 L 149.0 143.5 L 164.0 144.0 L 178.0 145.0 L 191.5 144.5 L 201.5 143.0 L 206.5 142.5 L 207.5 144.5 L 206.0 146.0 L 204.5 146.5 " stroke="black" fill="none" stroke-width="8.0" stroke-linecap="round" stroke-linejoin="round" />
<path d="M 156.5 130.5 L 157.0 130.5 L 157.5 130.5 L 157.5 131.5 L 157.5 135.0 L 157.0 142.5 L 156.5 152.0 L 156.5 157.0 L 157.5 157.5 " stroke="black" fill="none" stroke-width="8.0" stroke-linecap="round" stroke-linejoin="round" />
<path d="M 173.5 134.0 L 174.0 133.5 L 175.0 133.5 L 175.0 133.0 L 175.5 133.5 L 175.5 137.0 L 175.5 144.5 L 175.5 152.5 L 175.0 157.5 L 175.0 158.5 " stroke="black" fill="none" stroke-width="8.0" stroke-linecap="round" stroke-linejoin="round" />
<path d="M 136.5 131.0 L 136.5 130.0 L 137.0 129.5 L 137.0 129.5 L 137.0 132.5 L 137.0 140.5 L 137.0 149.0 L 137.0 153.5 L 137.0 154.0 " stroke="black" fill="none" stroke-width="8.0" stroke-linecap="round" stroke-linejoin="round" />
<path d="M 193.5 132.5 L 193.0 132.5 L 193.0 132.5 L 193.0 134.0 L 193.0 140.5 L 193.5 150.0 L 193.5 157.0 L 193.5 160.5 L 193.5 160.5 " stroke="black" fill="none" stroke-width="8.0" stroke-linecap="round" stroke-linejoin="round" />
<path d="M 121.5 169.0 L 121.5 169.0 L 121.5 168.5 L 121.5 168.5 L 123.5 168.5 L 132.5 168.0 L 148.5 167.5 L 166.0 167.0 L 179.5 167.0 L 191.0 167.5 L 198.5 168.0 L 202.0 168.5 L 202.5 168.5 L 201.0 168.5 L 200.0 168.5 " stroke="black" fill="none" stroke-width="8.0" stroke-linecap="round" stroke-linejoin="round" />
<path d="M 141.5 185.5 L 141.5 185.0 L 141.5 184.5 L 141.0 184.5 L 139.5 186.5 L 137.0 190.5 L 134.5 195.0 L 133.0 198.0 L 132.5 198.0 " stroke="black" fill="none" stroke-width="8.0" stroke-linecap="round" stroke-linejoin="round" />
<path d="M 159.0 186.0 L 159.0 186.0 L 159.0 185.5 L 159.0 185.5 L 159.5 186.5 L 161.0 190.5 L 163.0 194.0 L 164.5 195.0 " stroke="black" fill="none" stroke-width="8.0" stroke-linecap="round" stroke-linejoin="round" />
<path d="M 174.5 183.5 L 174.5 183.5 L 174.0 183.5 L 174.0 183.0 L 174.0 184.0 L 176.5 187.0 L 180.0 190.5 L 184.0 193.5 L 185.0 193.5 " stroke="black" fill="none" stroke-width="8.0" stroke-linecap="round" stroke-linejoin="round" />
<path d="M 191.5 182.5 L 190.5 182.5 L 190.5 182.5 L 191.5 183.5 L 195.0 187.5 L 199.0 192.0 L 202.5 195.5 L 205.0 197.5 " stroke="black" fill="none" stroke-width="8.0" stroke-linecap="round" stroke-linejoin="round" />
</svg>