<svg xmlns="http://www.w3.org/2000/svg" width="300" height="300" viewBox="0 0 300 300">
<path d="M 129.5 99.0 L 129.5 99.0 L 129.5 99.0 L 130.0 98.0 L 130.0 97.0 L 130.0 97.0 L 130.0 97.0 L 129.5 101.5 L 126.5 111.5 L 122.0 122.0 L 120.0 126.0 L 119.5 124.5 L 119.5 122.5 " stroke="black" fill="none" stroke-width="7.0" stroke-linecap="round" stroke-linejoin="round" />
<path d="M 115.0 109.5 L 114.0 109.5 L 113.0 109.5 L 113.0 109.5 L 113.0 109.5 L 114.5 109.5 L 117.0 110.0 L 119.5 110.5 L 120.5 110.5 " stroke="black" fill="none" stroke-width="7.0" stroke-linecap="round" stroke-linejoin="round" />
<path d="M 144.0 101.5 L 144.0 101.5 L 144.0 101.5 L 144.0 101.0 L 144.0 101.0 L 144.0 101.5 L 142.5 104.0 L 141.0 107.0 L 139.0 109.5 L 138.5 110.0 " stroke="black" fill="none" stroke-width="7.0" stroke-linecap="round" stroke-linejoin="round" />
<path d="M 134.0 118.0 L 134.5 118.5 L 135.0 119.0 L 136.0 119.5 L 138.0 121.0 L 141.0 123.0 L 143.5 124.5 L 145.0 125.0 " stroke="black" fill="none" stroke-width="7.0" stroke-linecap="round" stroke-linejoin="round" />
<path d="M 171.0 98.5 L 171.0 98.0 L 170.5 97.0 L 170.5 96.5 L 170.5 95.5 L 170.5 96.0 L 170.5 100.0 L 169.5 107.5 L 166.5 117.0 L 163.5 124.5 L 162.0 126.0 L 162.0 125.5 " stroke="black" fill="none" stroke-width="7.0" stroke-linecap="round" stroke-linejoin="round" />
<path d="M 156.0 107.0 L 155.0 107.0 L 154.5 107.0 L 155.0 107.0 L 157.5 107.0 L 160.5 107.5 L 163.0 107.5 " stroke="black" fill="none" stroke-width="7.0" stroke-linecap="round" stroke-linejoin="round" />
<path d="M 182.0 102.0 L 182.0 102.0 L 182.0 102.0 L 182.0 102.0 L 181.5 102.0 L 181.5 103.0 L 181.0 104.5 L 180.5 106.5 L 180.5 107.5 " stroke="black" fill="none" stroke-width="7.0" stroke-linecap="round" stroke-linejoin="round" />
<path d="M 175.5 119.5 L 175.5 119.0 L 175.5 118.5 L 177.0 118.5 L 179.5 119.5 L 182.5 122.0 L 184.5 124.5 L 186.0 126.0 " stroke="black" fill="none" stroke-width="7.0" stroke-linecap="round" stroke-linejoin="round" />
<path d="M 117.5 141.0 L 117.5 140.5 L 117.5 140.0 L 117.5 139.5 L 117.5 139.5 L 117.5 142.5 L 116.5 148.5 L 116.0 154.5 L 115.5 157.5 L 115.5 157.5 " stroke="black" fill="none" stroke-width="7.0" stroke-linecap="round" stroke-linejoin="round" />
<path d="M 122.0 142.0 L 122.0 142.0 L 120.5 141.5 L 120.0 141.5 L 120.0 141.5 L 121.0 141.0 L 123.0 141.0 L 125.5 141.0 L 130.0 141.0 L 136.5 141.5 L 144.5 142.0 L 153.0 141.5 L 161.0 140.5 L 168.0 140.0 L 172.5 139.5 L 176.5 139.0 L 178.5 139.0 L 179.5 139.0 L 179.5 139.0 L 179.5 139.0 L 179.5 139.0 L 179.5 139.0 L 181.0 139.0 L 182.5 138.5 L 185.0 138.5 L 188.0 138.0 L 189.5 138.0 L 190.0 138.0 L 190.0 138.0 L 190.0 138.0 L 190.0 138.0 L 189.5 138.0 L 189.5 138.0 L 189.5 138.0 L 189.5 138.0 L 189.0 138.0 L 189.0 138.0 L 189.0 138.0 L 189.0 138.0 L 189.0 138.0 L 189.0 138.0 L 189.0 138.0 L 188.5 138.5 L 188.5 139.5 L 188.0 141.5 L 187.0 145.0 L 186.0 148.5 L 186.0 150.0 L 186.0 150.5 L 185.5 151.0 L 185.5 152.0 L 185.5 154.0 L 185.5 154.5 " stroke="black" fill="none" stroke-width="7.0" stroke-linecap="round" stroke-linejoin="round" />
<path d="M 140.0 153.5 L 140.0 153.5 L 139.0 154.0 L 138.5 154.5 L 138.5 156.0 L 139.0 160.5 L 139.5 166.5 L 140.0 170.0 L 140.5 171.0 L 141.5 170.5 " stroke="black" fill="none" stroke-width="7.0" stroke-linecap="round" stroke-linejoin="round" />
<path d="M 142.0 153.5 L 141.0 153.5 L 140.0 153.5 L 139.0 153.5 L 138.5 153.5 L 138.5 153.5 L 139.0 153.5 L 140.5 153.5 L 143.0 153.5 L 147.5 153.0 L 155.5 153.0 L 166.0 152.0 L 173.0 152.0 L 175.5 152.0 L 176.0 152.0 L 175.5 152.0 L 175.0 152.0 L 175.0 152.0 L 174.5 152.0 L 174.5 152.0 L 174.0 152.0 L 174.0 152.5 L 173.5 153.0 L 173.0 154.0 L 172.5 155.0 L 172.5 156.5 L 171.5 159.5 L 171.0 163.0 L 170.5 165.5 L 170.5 166.5 L 170.5 166.5 " stroke="black" fill="none" stroke-width="7.0" stroke-linecap="round" stroke-linejoin="round" />
<path d="M 139.5 169.0 L 140.0 169.0 L 141.0 168.5 L 143.0 168.5 L 147.0 168.5 L 153.5 168.5 L 162.0 168.5 L 168.0 168.5 L 168.5 168.5 " stroke="black" fill="none" stroke-width="7.0" stroke-linecap="round" stroke-linejoin="round" />
<path d="M 153.0 172.0 L 153.0 172.0 L 153.0 171.5 L 153.0 171.5 L 153.0 172.5 L 152.5 175.0 L 151.5 178.0 L 151.0 180.5 " stroke="black" fill="none" stroke-width="7.0" stroke-linecap="round" stroke-linejoin="round" />
<path d="M 134.5 188.0 L 135.5 187.5 L 135.5 186.5 L 136.0 186.0 L 136.0 186.0 L 136.0 187.5 L 136.0 191.5 L 136.5 197.5 L 137.0 202.0 L 137.5 204.0 L 138.0 204.0 " stroke="black" fill="none" stroke-width="7.0" stroke-linecap="round" stroke-linejoin="round" />
<path d="M 140.5 184.5 L 140.0 184.5 L 139.0 184.5 L 138.5 184.5 L 138.5 184.0 L 140.0 184.0 L 142.5 184.0 L 145.5 184.0 L 151.0 183.0 L 160.0 182.0 L 168.5 181.0 L 172.5 181.0 L 173.5 181.0 L 172.5 181.5 L 172.0 181.5 L 172.0 181.5 L 171.5 181.5 L 171.5 181.5 L 171.5 181.5 L 171.5 182.0 L 171.5 182.0 L 171.0 183.0 L 171.0 184.0 L 170.5 185.5 L 170.5 188.0 L 170.0 191.0 L 170.0 194.5 L 169.5 198.0 L 169.5 199.0 L 169.5 199.5 L 169.5 198.0 " stroke="black" fill="none" stroke-width="7.0" stroke-linecap="round" stroke-linejoin="round" />
<path d="M 139.0 207.5 L 139.0 207.0 L 139.0 206.5 L 139.0 206.0 L 139.0 205.5 L 140.5 205.5 L 144.0 205.5 L 149.5 205.5 L 158.0 204.5 L 166.5 203.0 L 170.5 202.0 L 170.5 202.0 " stroke="black" fill="none" stroke-width="7.0" stroke-linecap="round" stroke-linejoin="round" />
</svg>