<svg xmlns="http://www.w3.org/2000/svg" width="300" height="300" viewBox="0 0 300 300">
<path d="M 111.5 96.0 L 111.5 96.0 L 112.0 95.5 L 113.5 95.5 L 118.0 95.5 L 126.0 95.0 L 139.5 92.0 L 153.0 87.5 L 164.0 84.0 L 170.5 81.0 L 173.0 79.5 L 172.5 79.5 L 172.0 79.5 " stroke="black" fill="none" stroke-width="8.0" stroke-linecap="round" stroke-linejoin="round" />
<path d="M 125.0 106.5 L 124.0 106.0 L 124.0 105.5 L 124.5 105.5 L 126.5 106.0 L 129.5 107.5 L 133.0 108.0 L 136.5 108.5 " stroke="black" fill="none" stroke-width="8.0" stroke-linecap="round" stroke-linejoin="round" />
<path d="M 151.5 100.5 L 151.0 100.0 L 151.0 99.5 L 151.0 99.5 L 152.5 100.5 L 154.0 101.5 L 155.5 102.5 " stroke="black" fill="none" stroke-width="8.0" stroke-linecap="round" stroke-linejoin="round" />
<path d="M 173.0 93.0 L 173.0 93.0 L 173.0 92.5 L 173.0 92.5 L 172.5 93.0 L 171.5 95.5 L 170.0 99.0 L 169.0 102.5 " stroke="black" fill="none" stroke-width="8.0" stroke-linecap="round" stroke-linejoin="round" />
<path d="M 120.0 125.5 L 119.5 125.5 L 119.0 125.0 L 119.0 125.0 L 120.5 126.0 L 122.0 128.0 L 123.5 129.5 L 124.5 130.0 " stroke="black" fill="none" stroke-width="8.0" stroke-linecap="round" stroke-linejoin="round" />
<path d="M 125.0 123.0 L 124.5 122.5 L 124.0 122.0 L 125.0 121.5 L 129.0 121.0 L 137.0 119.5 L 150.5 116.5 L 167.0 113.5 L 180.0 112.5 L 188.5 112.0 L 191.0 113.5 L 190.0 115.0 L 188.0 117.0 L 186.0 120.0 L 184.0 123.0 L 183.0 125.0 L 182.0 127.5 " stroke="black" fill="none" stroke-width="8.0" stroke-linecap="round" stroke-linejoin="round" />
<path d="M 146.5 126.0 L 146.0 125.5 L 145.5 125.0 L 145.5 124.5 L 147.0 125.5 L 148.0 127.5 L 149.5 129.5 L 150.0 130.5 " stroke="black" fill="none" stroke-width="8.0" stroke-linecap="round" stroke-linejoin="round" />
<path d="M 164.5 119.0 L 164.0 118.5 L 163.0 117.5 L 163.0 117.5 L 163.0 119.0 L 163.0 122.0 L 163.0 125.5 L 163.0 127.5 " stroke="black" fill="none" stroke-width="8.0" stroke-linecap="round" stroke-linejoin="round" />
<path d="M 127.0 142.0 L 126.5 142.0 L 126.5 141.0 L 130.0 140.5 L 139.5 138.5 L 154.5 135.5 L 168.5 133.5 L 179.0 132.0 L 184.0 131.5 " stroke="black" fill="none" stroke-width="8.0" stroke-linecap="round" stroke-linejoin="round" />
<path d="M 129.5 159.0 L 129.0 159.0 L 128.5 158.5 L 128.5 158.0 L 132.0 156.5 L 138.0 155.0 L 145.0 153.0 L 149.0 152.0 L 149.5 152.5 L 149.0 155.0 L 148.0 159.5 L 146.5 164.5 L 146.0 168.5 L 146.0 171.0 L 146.0 172.0 " stroke="black" fill="none" stroke-width="8.0" stroke-linecap="round" stroke-linejoin="round" />
<path d="M 131.5 172.0 L 131.5 172.0 L 131.0 172.0 L 131.5 171.5 L 136.0 170.5 L 142.0 169.5 L 146.0 169.0 L 148.0 169.0 " stroke="black" fill="none" stroke-width="8.0" stroke-linecap="round" stroke-linejoin="round" />
<path d="M 130.0 183.0 L 129.0 183.0 L 127.5 183.5 L 128.5 183.5 L 133.0 183.5 L 137.5 182.0 L 142.0 180.0 L 143.5 179.0 " stroke="black" fill="none" stroke-width="8.0" stroke-linecap="round" stroke-linejoin="round" />
<path d="M 129.0 161.0 L 128.0 160.0 L 127.5 159.0 L 127.5 159.0 L 127.5 161.5 L 127.5 167.5 L 127.0 177.5 L 126.0 189.5 L 125.5 198.0 L 125.5 204.0 L 125.5 206.5 L 125.5 206.5 L 126.0 206.5 L 127.5 206.0 L 130.0 205.0 L 134.5 202.5 L 140.0 198.5 L 145.5 195.0 L 147.5 193.5 " stroke="black" fill="none" stroke-width="8.0" stroke-linecap="round" stroke-linejoin="round" />
<path d="M 147.5 190.5 L 147.5 190.5 L 147.0 190.0 L 147.5 190.5 L 150.0 193.0 L 154.5 196.0 L 157.5 198.5 " stroke="black" fill="none" stroke-width="8.0" stroke-linecap="round" stroke-linejoin="round" />
<path d="M 168.0 154.5 L 167.0 154.0 L 166.5 153.5 L 168.0 153.0 L 172.5 152.5 L 179.0 151.5 L 186.5 150.5 L 191.0 150.5 " stroke="black" fill="none" stroke-width="8.0" stroke-linecap="round" stroke-linejoin="round" />
<path d="M 182.0 143.0 L 182.0 142.5 L 181.5 141.5 L 181.5 141.5 L 182.5 142.5 L 184.5 147.0 L 186.0 154.5 L 187.0 166.5 L 188.0 178.5 L 189.0 187.5 L 189.5 192.5 L 189.5 195.0 L 188.0 196.5 L 186.0 197.0 L 182.0 197.0 L 177.0 195.0 L 173.5 192.0 L 172.5 190.5 " stroke="black" fill="none" stroke-width="8.0" stroke-linecap="round" stroke-linejoin="round" />
<path d="M 169.0 171.0 L 168.5 171.0 L 168.0 170.5 L 168.5 170.0 L 170.5 170.5 L 173.5 172.0 L 174.0 172.5 " stroke="black" fill="none" stroke-width="8.0" stroke-linecap="round" stroke-linejoin="round" />
</svg>