<svg xmlns="http://www.w3.org/2000/svg" width="300" height="300" viewBox="0 0 300 300">
<path d="M 131.5 111.0 L 132.0 110.0 L 133.0 109.0 L 133.5 108.5 L 134.0 108.0 L 134.0 108.0 L 134.5 109.5 L 133.5 114.5 L 131.5 121.5 L 128.5 129.0 L 126.0 133.0 L 125.0 134.0 L 125.0 132.5 " stroke="black" fill="none" stroke-width="6.0" stroke-linecap="round" stroke-linejoin="round" />
<path d="M 133.5 124.0 L 133.5 124.5 L 133.0 124.5 L 133.0 125.0 L 133.5 125.0 L 138.5 124.5 L 147.0 123.5 L 155.5 123.0 L 161.0 122.5 L 162.5 122.0 L 162.0 122.0 L 161.0 122.0 " stroke="black" fill="none" stroke-width="6.0" stroke-linecap="round" stroke-linejoin="round" />
<path d="M 126.5 148.5 L 125.0 148.5 L 124.0 148.5 L 123.5 148.5 L 125.0 148.0 L 130.5 148.0 L 139.0 148.0 L 150.5 147.5 L 161.0 146.5 L 169.0 145.5 L 173.0 144.5 L 174.0 144.5 L 173.5 144.5 L 172.0 144.5 L 171.5 144.5 " stroke="black" fill="none" stroke-width="6.0" stroke-linecap="round" stroke-linejoin="round" />
<path d="M 148.5 108.0 L 148.0 107.0 L 147.5 106.0 L 147.5 105.5 L 147.5 105.5 L 147.5 107.5 L 148.0 113.5 L 148.5 125.0 L 148.5 140.0 L 148.0 153.0 L 147.5 162.5 L 147.5 168.5 L 148.0 174.0 L 148.5 178.5 L 149.0 181.5 L 149.0 183.5 L 149.0 184.0 L 149.0 184.0 L 149.0 184.0 L 149.0 184.0 L 148.5 184.0 L 148.5 184.0 L 148.5 183.5 " stroke="black" fill="none" stroke-width="6.0" stroke-linecap="round" stroke-linejoin="round" />
</svg>