<svg xmlns="http://www.w3.org/2000/svg" width="300" height="300" viewBox="0 0 300 300">
<path d="M 122.0 117.0 L 121.5 117.0 L 121.5 117.0 L 121.0 116.5 L 121.5 116.0 L 122.0 116.0 L 122.5 117.0 L 123.0 119.5 L 122.0 124.5 L 119.5 132.0 L 117.5 138.5 L 116.0 141.5 L 116.0 141.5 L 116.0 141.0 L 118.0 140.0 L 120.5 139.5 L 123.5 139.5 L 127.0 139.0 L 130.0 138.5 L 132.5 138.5 L 134.0 138.0 L 134.0 138.0 " stroke="black" fill="none" stroke-width="6.0" stroke-linecap="round" stroke-linejoin="round" />
<path d="M 134.5 116.0 L 135.0 116.0 L 135.0 116.5 L 135.0 116.5 L 135.0 118.5 L 135.0 123.5 L 134.5 134.0 L 134.5 149.5 L 134.0 166.0 L 134.5 177.0 L 134.5 182.5 L 135.0 184.5 L 135.0 184.5 L 134.5 183.5 L 133.5 180.5 L 133.0 179.5 " stroke="black" fill="none" stroke-width="6.0" stroke-linecap="round" stroke-linejoin="round" />
<path d="M 131.5 159.5 L 132.5 160.0 L 133.0 160.0 L 133.0 160.0 L 133.0 160.0 L 132.5 160.0 L 130.5 160.0 L 127.0 160.0 L 123.5 160.0 L 120.0 160.5 L 117.5 160.5 L 116.5 160.5 L 116.5 160.5 L 116.5 160.5 L 117.5 160.5 L 118.5 161.0 L 119.5 161.5 L 120.0 163.0 L 120.0 166.0 L 120.0 171.0 L 118.5 176.5 L 116.5 181.5 L 114.0 184.5 L 113.0 185.0 L 113.0 184.5 L 113.0 181.5 " stroke="black" fill="none" stroke-width="6.0" stroke-linecap="round" stroke-linejoin="round" />
<path d="M 143.0 138.5 L 143.0 138.5 L 143.0 139.0 L 143.0 139.0 L 144.0 139.5 L 147.5 139.5 L 153.0 139.5 L 159.0 138.5 L 162.5 138.0 L 164.5 137.5 L 164.5 137.0 L 164.5 137.0 " stroke="black" fill="none" stroke-width="6.0" stroke-linecap="round" stroke-linejoin="round" />
<path d="M 153.0 123.0 L 153.0 122.5 L 153.5 122.0 L 153.5 122.0 L 154.0 123.5 L 154.0 128.5 L 154.0 138.0 L 152.0 151.5 L 149.0 163.5 L 146.0 172.5 L 144.5 176.5 L 143.5 176.5 L 143.0 174.5 L 142.5 174.0 " stroke="black" fill="none" stroke-width="6.0" stroke-linecap="round" stroke-linejoin="round" />
<path d="M 152.5 149.5 L 152.5 150.0 L 153.0 150.5 L 153.5 151.5 L 154.0 154.0 L 156.5 160.5 L 160.0 169.5 L 165.5 176.5 L 169.5 178.5 L 172.0 178.5 L 172.5 178.5 " stroke="black" fill="none" stroke-width="6.0" stroke-linecap="round" stroke-linejoin="round" />
<path d="M 163.0 126.5 L 163.0 126.5 L 162.5 126.5 L 162.5 126.5 L 163.5 126.5 L 165.5 127.5 L 167.5 129.0 L 169.0 130.5 " stroke="black" fill="none" stroke-width="6.0" stroke-linecap="round" stroke-linejoin="round" />
</svg>