<svg xmlns="http://www.w3.org/2000/svg" width="300" height="300" viewBox="0 0 300 300">
<path d="M 137.0 69.0 L 136.0 69.0 L 136.0 70.0 L 135.0 70.0 L 135.0 71.0 L 137.0 73.0 L 141.0 78.0 L 145.0 85.0 L 149.0 89.0 L 152.0 92.0 L 153.0 93.0 L 153.0 93.0 " stroke="black" fill="none" stroke-width="8.0" stroke-linecap="round" stroke-linejoin="round" />
<path d="M 93.0 98.0 L 90.0 98.0 L 87.0 98.0 L 85.0 98.0 L 85.0 98.0 L 87.0 98.0 L 93.0 99.0 L 103.0 100.0 L 120.0 100.0 L 145.0 99.0 L 169.0 98.0 L 187.0 98.0 L 200.0 98.0 L 208.0 98.0 L 210.0 98.0 L 210.0 98.0 L 209.0 98.0 L 208.0 98.0 L 208.0 98.0 L 208.0 98.0 " stroke="black" fill="none" stroke-width="8.0" stroke-linecap="round" stroke-linejoin="round" />
<path d="M 147.0 108.0 L 147.0 108.0 L 147.0 108.0 L 147.0 107.0 L 147.0 107.0 L 148.0 106.0 L 148.0 106.0 L 145.0 111.0 L 138.0 121.0 L 126.0 136.0 L 111.0 152.0 L 99.0 164.0 L 92.0 172.0 L 86.0 177.0 L 83.0 180.0 L 83.0 182.0 L 83.0 182.0 L 85.0 182.0 L 87.0 180.0 L 90.0 178.0 L 95.0 177.0 L 104.0 176.0 L 121.0 173.0 L 144.0 168.0 L 163.0 163.0 L 172.0 162.0 L 172.0 162.0 L 170.0 162.0 L 170.0 162.0 L 170.0 161.0 " stroke="black" fill="none" stroke-width="8.0" stroke-linecap="round" stroke-linejoin="round" />
<path d="M 188.0 137.0 L 187.0 136.0 L 186.0 135.0 L 185.0 134.0 L 185.0 134.0 L 184.0 135.0 L 182.0 139.0 L 176.0 148.0 L 164.0 161.0 L 150.0 178.0 L 137.0 192.0 L 125.0 206.0 L 113.0 217.0 L 104.0 225.0 L 95.0 232.0 L 89.0 237.0 L 88.0 238.0 L 88.0 238.0 L 88.0 238.0 L 88.0 238.0 L 88.0 237.0 L 89.0 237.0 L 90.0 236.0 L 93.0 236.0 L 98.0 236.0 L 106.0 236.0 L 120.0 236.0 L 139.0 237.0 L 157.0 237.0 L 173.0 238.0 L 184.0 237.0 L 188.0 237.0 L 189.0 237.0 L 188.0 237.0 L 188.0 236.0 " stroke="black" fill="none" stroke-width="8.0" stroke-linecap="round" stroke-linejoin="round" />
<path d="M 189.0 199.0 L 188.0 198.0 L 186.0 198.0 L 185.0 197.0 L 184.0 197.0 L 184.0 197.0 L 184.0 198.0 L 186.0 203.0 L 192.0 214.0 L 201.0 228.0 L 212.0 241.0 L 221.0 248.0 L 225.0 251.0 L 226.0 251.0 L 227.0 250.0 " stroke="black" fill="none" stroke-width="8.0" stroke-linecap="round" stroke-linejoin="round" />
</svg>