<svg xmlns="http://www.w3.org/2000/svg" width="300" height="300" viewBox="0 0 300 300">
<path d="M 106.5 100.0 L 106.0 100.0 L 105.5 99.5 L 106.5 99.5 L 110.0 101.0 L 114.5 103.0 L 119.0 104.5 L 123.0 105.0 " stroke="black" fill="none" stroke-width="7.0" stroke-linecap="round" stroke-linejoin="round" />
<path d="M 141.0 94.5 L 141.0 94.5 L 141.0 94.5 L 141.0 94.5 L 141.0 94.0 L 141.0 94.0 L 141.0 95.5 L 139.5 98.5 L 137.0 103.0 L 134.5 106.5 L 134.0 107.5 " stroke="black" fill="none" stroke-width="7.0" stroke-linecap="round" stroke-linejoin="round" />
<path d="M 107.0 118.0 L 106.5 118.0 L 106.0 117.5 L 107.0 117.0 L 112.0 116.5 L 121.0 116.0 L 132.0 115.5 L 140.5 114.5 L 145.5 114.0 L 146.0 114.0 " stroke="black" fill="none" stroke-width="7.0" stroke-linecap="round" stroke-linejoin="round" />
<path d="M 109.0 131.0 L 109.5 131.0 L 109.5 130.5 L 109.5 130.5 L 110.5 131.0 L 111.5 136.5 L 112.5 147.5 L 112.5 163.0 L 111.0 175.0 L 110.5 180.0 L 112.0 180.5 L 113.0 175.5 L 113.0 173.5 " stroke="black" fill="none" stroke-width="7.0" stroke-linecap="round" stroke-linejoin="round" />
<path d="M 115.5 136.5 L 115.0 136.5 L 114.0 136.0 L 113.5 135.5 L 114.5 135.0 L 117.5 134.5 L 122.5 133.5 L 128.5 131.5 L 136.5 129.5 L 143.5 128.5 L 146.5 129.0 L 147.5 131.0 L 147.5 132.0 L 147.5 132.5 L 147.5 133.0 L 148.0 134.5 L 148.0 137.0 L 148.0 141.0 L 148.0 148.5 L 147.5 157.0 L 147.0 165.0 L 146.0 171.5 L 145.5 175.5 L 145.5 177.5 L 145.5 178.0 " stroke="black" fill="none" stroke-width="7.0" stroke-linecap="round" stroke-linejoin="round" />
<path d="M 126.5 119.0 L 126.0 118.0 L 126.0 117.5 L 126.0 119.0 L 126.0 124.0 L 126.0 133.5 L 125.0 145.5 L 123.5 153.5 L 123.0 155.5 L 123.0 154.5 L 123.0 152.0 " stroke="black" fill="none" stroke-width="7.0" stroke-linecap="round" stroke-linejoin="round" />
<path d="M 134.5 124.0 L 134.5 123.5 L 134.5 122.5 L 134.5 122.5 L 134.5 123.5 L 134.5 128.5 L 134.5 137.0 L 134.0 146.0 L 133.5 153.0 L 133.0 156.0 L 134.0 156.5 L 135.5 155.5 L 137.5 153.5 L 138.5 153.0 L 139.0 153.0 " stroke="black" fill="none" stroke-width="7.0" stroke-linecap="round" stroke-linejoin="round" />
<path d="M 126.0 167.0 L 125.0 167.5 L 124.0 168.5 L 124.5 168.5 L 127.0 168.5 L 130.5 168.0 L 133.5 167.0 L 136.0 167.0 L 136.5 167.0 " stroke="black" fill="none" stroke-width="7.0" stroke-linecap="round" stroke-linejoin="round" />
<path d="M 116.5 186.0 L 116.5 186.0 L 116.0 186.0 L 116.0 186.0 L 116.0 185.5 L 119.5 185.0 L 126.0 184.0 L 136.0 181.5 L 145.0 178.5 " stroke="black" fill="none" stroke-width="7.0" stroke-linecap="round" stroke-linejoin="round" />
<path d="M 157.0 124.0 L 157.5 124.0 L 158.0 124.0 L 159.5 123.5 L 164.0 123.5 L 170.5 122.5 L 176.5 122.0 L 180.5 121.5 L 181.0 121.0 " stroke="black" fill="none" stroke-width="7.0" stroke-linecap="round" stroke-linejoin="round" />
<path d="M 168.0 97.5 L 168.0 97.5 L 167.5 97.0 L 167.5 97.0 L 167.5 99.0 L 167.5 106.0 L 166.5 118.5 L 164.0 135.0 L 160.5 151.0 L 157.5 162.0 L 155.5 169.5 L 155.0 172.5 L 154.0 173.0 L 154.0 173.0 " stroke="black" fill="none" stroke-width="7.0" stroke-linecap="round" stroke-linejoin="round" />
<path d="M 167.0 132.0 L 166.5 132.0 L 165.5 132.5 L 165.5 133.5 L 167.0 138.0 L 171.0 147.5 L 176.0 159.0 L 180.5 165.5 L 184.0 166.5 L 185.0 166.5 " stroke="black" fill="none" stroke-width="7.0" stroke-linecap="round" stroke-linejoin="round" />
<path d="M 174.0 103.5 L 174.0 103.5 L 174.0 103.5 L 174.0 103.5 L 176.0 106.5 L 178.5 111.0 L 180.0 114.0 " stroke="black" fill="none" stroke-width="7.0" stroke-linecap="round" stroke-linejoin="round" />
</svg>