<svg xmlns="http://www.w3.org/2000/svg" width="300" height="300" viewBox="0 0 300 300">
<path d="M 114.0 129.0 L 114.0 129.0 L 114.0 129.0 L 114.0 129.0 L 115.5 128.5 L 119.0 127.0 L 123.5 126.0 L 128.0 124.0 L 132.0 122.5 L 133.5 122.5 " stroke="black" fill="none" stroke-width="6.0" stroke-linecap="round" stroke-linejoin="round" />
<path d="M 121.5 144.5 L 120.0 146.5 L 119.0 147.5 L 119.0 147.5 L 120.0 147.0 L 123.0 146.0 L 126.0 144.0 L 128.0 143.0 L 130.0 142.0 L 130.5 141.5 " stroke="black" fill="none" stroke-width="6.0" stroke-linecap="round" stroke-linejoin="round" />
<path d="M 127.5 125.5 L 127.5 125.5 L 126.5 126.0 L 126.0 127.5 L 126.0 132.5 L 125.5 142.0 L 125.0 152.0 L 124.5 158.5 L 124.5 162.5 L 124.5 166.0 L 124.5 167.0 " stroke="black" fill="none" stroke-width="6.0" stroke-linecap="round" stroke-linejoin="round" />
<path d="M 113.5 171.5 L 114.5 172.0 L 115.0 172.0 L 116.5 172.0 L 119.0 170.0 L 123.5 167.5 L 128.0 164.5 L 132.0 161.0 " stroke="black" fill="none" stroke-width="6.0" stroke-linecap="round" stroke-linejoin="round" />
<path d="M 149.0 108.5 L 148.5 109.0 L 148.5 109.5 L 148.5 110.0 L 148.5 111.0 L 149.5 112.5 L 151.5 114.0 L 154.0 115.0 L 157.0 115.5 " stroke="black" fill="none" stroke-width="6.0" stroke-linecap="round" stroke-linejoin="round" />
<path d="M 176.5 106.5 L 176.5 107.0 L 176.5 107.5 L 176.5 107.5 L 176.0 108.5 L 175.0 109.5 L 174.0 111.0 L 172.5 113.0 " stroke="black" fill="none" stroke-width="6.0" stroke-linecap="round" stroke-linejoin="round" />
<path d="M 151.0 123.0 L 150.5 123.0 L 148.5 123.5 L 147.0 124.0 L 146.5 124.0 L 146.5 124.5 L 147.0 124.5 L 149.0 124.5 L 152.0 124.5 L 156.5 124.0 L 161.5 123.5 L 166.5 123.0 L 171.5 122.0 L 175.0 122.0 L 176.5 122.0 L 176.5 123.0 L 176.5 124.5 L 175.5 126.5 L 174.0 129.5 L 172.5 132.0 L 171.5 135.0 L 170.0 137.5 L 169.5 139.0 " stroke="black" fill="none" stroke-width="6.0" stroke-linecap="round" stroke-linejoin="round" />
<path d="M 143.0 142.0 L 142.0 142.0 L 141.0 142.0 L 140.0 142.0 L 140.0 142.5 L 142.5 142.5 L 146.5 142.5 L 152.5 141.5 L 159.0 140.5 L 166.0 140.0 L 170.0 140.0 L 171.0 140.0 L 171.0 140.0 " stroke="black" fill="none" stroke-width="6.0" stroke-linecap="round" stroke-linejoin="round" />
<path d="M 143.0 145.0 L 143.0 145.0 L 143.0 144.5 L 143.0 144.0 L 143.0 144.0 L 143.0 144.0 L 143.0 146.0 L 142.5 149.0 L 142.0 152.5 L 142.0 155.5 L 142.0 157.5 L 142.5 158.0 L 144.0 157.5 L 146.5 156.5 L 150.0 155.0 L 154.5 154.0 L 159.0 153.5 L 164.0 153.5 L 167.0 153.5 L 169.5 154.0 L 171.0 155.0 L 172.0 156.0 L 172.5 157.5 L 173.0 159.5 L 173.5 162.0 L 173.5 165.5 L 173.5 169.0 L 173.5 172.5 L 173.0 176.5 L 172.0 180.0 L 170.5 182.5 L 169.0 184.5 L 168.0 184.5 L 166.5 183.5 L 165.5 181.5 " stroke="black" fill="none" stroke-width="6.0" stroke-linecap="round" stroke-linejoin="round" />
<path d="M 163.0 128.0 L 162.5 129.0 L 162.0 130.0 L 161.5 132.5 L 161.0 137.5 L 160.5 146.5 L 159.0 160.0 L 157.0 174.5 L 155.0 185.5 L 154.0 192.0 L 153.0 195.5 L 153.0 197.5 L 153.0 198.0 " stroke="black" fill="none" stroke-width="6.0" stroke-linecap="round" stroke-linejoin="round" />
<path d="M 155.0 156.0 L 155.0 157.5 L 154.0 161.0 L 151.5 165.0 L 147.5 170.5 L 143.0 175.5 L 139.5 179.5 L 137.5 181.5 L 137.5 182.5 " stroke="black" fill="none" stroke-width="6.0" stroke-linecap="round" stroke-linejoin="round" />
</svg>