<svg xmlns="http://www.w3.org/2000/svg" width="300" height="300" viewBox="0 0 300 300">
<path d="M 121.0 132.0 L 120.5 133.0 L 120.0 133.0 L 120.0 133.0 L 121.5 132.5 L 125.0 131.0 L 128.5 130.0 L 131.5 129.0 L 134.0 129.0 L 134.5 129.0 L 134.5 129.0 " stroke="black" fill="none" stroke-width="6.0" stroke-linecap="round" stroke-linejoin="round" />
<path d="M 122.5 152.0 L 122.0 152.5 L 121.5 153.0 L 121.5 153.0 L 124.0 151.5 L 127.0 150.5 L 130.0 149.5 L 132.0 149.0 L 133.0 148.5 " stroke="black" fill="none" stroke-width="6.0" stroke-linecap="round" stroke-linejoin="round" />
<path d="M 127.5 134.5 L 127.0 135.5 L 126.0 137.5 L 126.0 140.5 L 126.5 144.5 L 127.0 150.0 L 127.5 156.0 L 128.0 161.0 L 128.0 165.5 L 128.0 167.0 L 128.0 167.5 L 128.0 167.5 " stroke="black" fill="none" stroke-width="6.0" stroke-linecap="round" stroke-linejoin="round" />
<path d="M 119.5 173.0 L 119.5 173.0 L 119.5 174.0 L 120.5 174.0 L 122.5 173.0 L 126.0 171.0 L 131.0 169.5 L 134.5 168.0 L 136.5 167.5 L 136.5 167.5 " stroke="black" fill="none" stroke-width="6.0" stroke-linecap="round" stroke-linejoin="round" />
<path d="M 154.5 116.5 L 154.5 116.5 L 155.0 116.5 L 155.0 116.5 L 155.0 117.0 L 154.5 118.5 L 153.0 121.0 L 151.0 124.0 L 149.5 125.0 " stroke="black" fill="none" stroke-width="6.0" stroke-linecap="round" stroke-linejoin="round" />
<path d="M 143.5 131.5 L 143.5 131.5 L 143.0 131.0 L 142.5 131.0 L 142.5 131.0 L 142.5 131.5 L 142.5 135.5 L 143.5 142.0 L 144.5 147.5 L 145.0 149.5 L 145.0 150.0 " stroke="black" fill="none" stroke-width="6.0" stroke-linecap="round" stroke-linejoin="round" />
<path d="M 145.0 130.5 L 143.5 130.5 L 143.0 130.5 L 144.0 130.0 L 146.5 129.0 L 150.0 129.0 L 154.5 129.0 L 159.5 130.0 L 163.0 131.0 L 165.5 131.5 L 166.5 131.5 L 166.5 131.5 L 167.0 131.5 L 167.0 131.0 L 167.5 131.0 L 168.0 131.0 L 168.0 131.0 L 168.0 131.0 L 168.0 131.5 L 168.0 132.0 L 168.0 133.0 L 168.0 135.0 L 167.5 138.0 L 167.0 142.0 L 166.5 146.5 L 166.5 149.5 L 166.5 151.0 L 166.5 151.5 L 166.5 151.5 " stroke="black" fill="none" stroke-width="6.0" stroke-linecap="round" stroke-linejoin="round" />
<path d="M 147.0 145.0 L 147.0 145.0 L 147.0 144.5 L 146.5 144.0 L 149.0 144.0 L 153.5 144.0 L 159.5 143.5 L 164.0 143.0 L 165.5 143.0 " stroke="black" fill="none" stroke-width="6.0" stroke-linecap="round" stroke-linejoin="round" />
<path d="M 154.5 132.5 L 155.0 133.5 L 155.0 134.0 L 155.0 135.0 L 155.0 137.5 L 155.0 142.0 L 155.0 147.0 L 155.0 150.0 L 155.0 151.5 L 155.0 151.5 " stroke="black" fill="none" stroke-width="6.0" stroke-linecap="round" stroke-linejoin="round" />
<path d="M 148.5 157.0 L 148.5 157.5 L 148.0 157.5 L 147.5 158.0 L 148.0 158.0 L 150.5 158.0 L 154.0 158.0 L 158.0 157.5 L 161.0 157.5 L 163.5 157.0 " stroke="black" fill="none" stroke-width="6.0" stroke-linecap="round" stroke-linejoin="round" />
<path d="M 155.0 159.0 L 155.0 159.0 L 155.5 159.0 L 155.5 160.0 L 154.5 163.5 L 150.5 173.0 L 145.5 184.5 L 141.5 190.5 L 141.0 191.0 L 141.5 190.5 " stroke="black" fill="none" stroke-width="6.0" stroke-linecap="round" stroke-linejoin="round" />
<path d="M 159.5 164.0 L 159.5 163.5 L 159.5 163.0 L 159.5 163.0 L 159.5 163.0 L 159.5 165.5 L 158.5 171.0 L 158.0 178.5 L 157.5 185.0 L 160.0 189.5 L 164.5 190.5 L 170.5 190.0 L 175.5 189.0 L 179.0 188.0 L 181.0 187.5 L 182.0 187.0 L 182.0 186.5 L 182.5 185.5 L 182.5 185.0 L 182.5 185.0 L 182.5 184.5 L 182.5 184.0 L 182.5 183.5 L 182.0 183.0 L 182.0 183.0 L 181.5 183.0 L 181.5 183.0 " stroke="black" fill="none" stroke-width="6.0" stroke-linecap="round" stroke-linejoin="round" />
<path d="M 170.0 165.5 L 170.0 165.0 L 170.0 164.0 L 170.0 163.0 L 170.5 162.0 L 170.5 162.0 L 171.0 162.0 L 171.0 163.0 L 171.0 165.5 L 170.0 168.5 L 169.0 172.0 L 168.0 174.5 L 167.5 175.5 L 167.5 176.0 L 169.0 176.0 L 171.0 176.0 L 173.0 176.0 L 175.0 175.0 L 176.5 174.5 L 177.5 174.0 " stroke="black" fill="none" stroke-width="6.0" stroke-linecap="round" stroke-linejoin="round" />
<path d="M 177.5 170.0 L 177.5 170.0 L 177.5 170.5 L 177.5 170.5 L 178.5 171.0 L 179.5 172.5 L 181.0 173.5 L 182.0 174.5 L 182.0 174.5 " stroke="black" fill="none" stroke-width="6.0" stroke-linecap="round" stroke-linejoin="round" />
</svg>