<svg xmlns="http://www.w3.org/2000/svg" width="300" height="300" viewBox="0 0 300 300">
<path d="M 118.5 124.5 L 117.5 124.5 L 116.5 124.5 L 116.5 124.5 L 119.5 124.5 L 126.0 124.0 L 132.0 124.0 L 136.5 124.0 L 138.5 123.5 L 138.5 123.0 L 137.5 123.5 " stroke="black" fill="none" stroke-width="6.0" stroke-linecap="round" stroke-linejoin="round" />
<path d="M 121.5 146.0 L 120.5 146.5 L 120.0 147.0 L 121.0 147.0 L 124.5 146.5 L 128.5 146.0 L 132.0 145.5 L 134.5 145.0 L 136.0 144.5 " stroke="black" fill="none" stroke-width="6.0" stroke-linecap="round" stroke-linejoin="round" />
<path d="M 129.0 127.0 L 128.0 127.0 L 127.5 127.0 L 127.5 127.0 L 127.5 128.0 L 128.0 131.5 L 129.0 139.5 L 129.0 149.0 L 129.0 158.0 L 129.0 163.5 L 129.5 165.5 L 129.5 166.0 " stroke="black" fill="none" stroke-width="6.0" stroke-linecap="round" stroke-linejoin="round" />
<path d="M 118.0 169.0 L 117.5 169.0 L 117.0 169.0 L 117.0 168.5 L 120.5 168.0 L 125.0 167.0 L 130.5 165.5 L 135.5 163.5 L 139.0 159.5 " stroke="black" fill="none" stroke-width="6.0" stroke-linecap="round" stroke-linejoin="round" />
<path d="M 160.5 111.0 L 160.5 111.0 L 161.0 111.0 L 161.5 110.5 L 162.0 110.5 L 162.0 110.0 L 162.5 110.5 L 162.5 114.0 L 162.5 119.5 L 162.5 124.0 L 162.5 126.5 L 162.0 127.0 " stroke="black" fill="none" stroke-width="6.0" stroke-linecap="round" stroke-linejoin="round" />
<path d="M 149.5 119.5 L 148.5 118.5 L 148.0 118.5 L 148.0 118.5 L 150.0 120.0 L 152.5 122.0 L 154.5 124.0 L 156.0 125.0 " stroke="black" fill="none" stroke-width="6.0" stroke-linecap="round" stroke-linejoin="round" />
<path d="M 174.0 114.0 L 174.0 114.0 L 174.5 114.0 L 174.5 114.0 L 174.5 114.0 L 174.5 115.0 L 173.5 117.5 L 171.5 122.0 " stroke="black" fill="none" stroke-width="6.0" stroke-linecap="round" stroke-linejoin="round" />
<path d="M 153.0 134.0 L 153.0 134.0 L 153.0 134.0 L 153.0 134.0 L 153.0 136.0 L 153.5 143.0 L 154.5 153.5 L 155.5 163.5 L 155.5 169.0 L 156.0 170.5 L 156.0 167.5 " stroke="black" fill="none" stroke-width="6.0" stroke-linecap="round" stroke-linejoin="round" />
<path d="M 155.5 137.5 L 155.5 137.5 L 155.0 137.5 L 155.0 137.5 L 156.0 137.5 L 159.5 136.5 L 164.5 135.0 L 169.0 134.0 L 173.5 133.0 L 175.5 132.5 L 177.0 133.0 L 177.5 134.0 L 178.0 136.0 L 178.5 139.5 L 178.5 145.5 L 178.0 152.5 L 177.5 159.5 L 177.0 164.5 L 176.5 166.0 L 175.5 166.0 " stroke="black" fill="none" stroke-width="6.0" stroke-linecap="round" stroke-linejoin="round" />
<path d="M 157.5 147.0 L 156.5 147.0 L 156.0 147.0 L 155.5 147.0 L 158.0 147.0 L 162.5 146.5 L 167.5 146.0 L 172.0 146.0 L 175.0 146.0 L 175.5 146.0 " stroke="black" fill="none" stroke-width="6.0" stroke-linecap="round" stroke-linejoin="round" />
<path d="M 161.5 154.0 L 160.5 155.5 L 160.0 155.5 L 160.5 155.5 L 162.5 155.5 L 166.0 155.5 L 169.0 155.0 L 172.0 155.0 L 173.5 154.5 " stroke="black" fill="none" stroke-width="6.0" stroke-linecap="round" stroke-linejoin="round" />
<path d="M 158.5 169.5 L 158.5 169.5 L 158.0 169.5 L 158.0 169.5 L 159.0 169.5 L 163.0 169.5 L 168.0 169.0 L 172.5 168.5 L 175.5 168.0 L 176.0 168.0 " stroke="black" fill="none" stroke-width="6.0" stroke-linecap="round" stroke-linejoin="round" />
<path d="M 163.5 181.0 L 163.5 181.0 L 163.5 181.0 L 163.5 181.0 L 163.0 181.5 L 160.5 184.5 L 157.0 188.0 L 154.5 190.5 L 154.0 191.0 " stroke="black" fill="none" stroke-width="6.0" stroke-linecap="round" stroke-linejoin="round" />
<path d="M 178.0 182.5 L 178.5 182.5 L 179.5 182.5 L 181.0 183.0 L 184.5 184.5 L 189.0 186.5 L 193.0 189.0 L 194.5 191.0 " stroke="black" fill="none" stroke-width="6.0" stroke-linecap="round" stroke-linejoin="round" />
</svg>