<svg xmlns="http://www.w3.org/2000/svg" width="300" height="300" viewBox="0 0 300 300">
<path d="M 111.0 94.0 L 111.0 94.0 L 110.5 94.0 L 110.5 94.5 L 110.5 94.5 L 112.5 94.5 L 118.0 93.5 L 125.0 91.0 L 132.0 88.5 L 135.5 87.5 L 136.0 87.5 L 136.0 88.0 L 136.0 89.5 L 136.0 91.5 L 135.5 93.5 L 135.0 96.5 L 134.0 100.0 L 133.0 102.5 L 133.0 103.0 " stroke="black" fill="none" stroke-width="9.0" stroke-linecap="round" stroke-linejoin="round" />
<path d="M 118.0 111.0 L 117.5 111.5 L 116.0 112.5 L 115.5 113.0 L 116.5 113.0 L 119.5 112.5 L 123.5 111.5 L 128.0 110.0 L 132.0 108.0 L 134.0 106.5 L 134.5 106.0 " stroke="black" fill="none" stroke-width="9.0" stroke-linecap="round" stroke-linejoin="round" />
<path d="M 107.5 100.5 L 108.0 100.0 L 108.5 99.0 L 109.0 98.5 L 109.5 99.0 L 110.0 102.5 L 109.5 110.5 L 106.5 124.5 L 103.0 138.0 L 101.5 145.0 L 101.5 145.5 L 101.5 143.0 " stroke="black" fill="none" stroke-width="9.0" stroke-linecap="round" stroke-linejoin="round" />
<path d="M 120.0 127.0 L 119.0 126.5 L 119.0 126.5 L 119.0 127.0 L 119.5 131.0 L 120.0 137.0 L 121.0 142.5 L 121.5 145.0 " stroke="black" fill="none" stroke-width="9.0" stroke-linecap="round" stroke-linejoin="round" />
<path d="M 121.5 131.0 L 121.5 131.0 L 121.0 130.5 L 121.0 129.5 L 122.5 128.0 L 125.0 126.5 L 127.5 125.5 L 131.0 125.0 L 134.5 125.0 L 136.5 125.5 L 137.0 127.5 L 137.0 131.5 L 135.5 136.5 L 133.5 140.5 L 132.5 142.0 " stroke="black" fill="none" stroke-width="9.0" stroke-linecap="round" stroke-linejoin="round" />
<path d="M 126.0 144.5 L 126.0 144.5 L 126.0 144.0 L 127.5 144.0 L 130.5 143.0 L 134.5 141.5 L 136.0 140.5 " stroke="black" fill="none" stroke-width="9.0" stroke-linecap="round" stroke-linejoin="round" />
<path d="M 168.0 84.0 L 166.5 84.0 L 165.5 84.0 L 164.5 84.5 L 164.5 84.5 L 164.5 86.0 L 166.0 89.0 L 167.5 91.5 L 169.5 93.0 " stroke="black" fill="none" stroke-width="9.0" stroke-linecap="round" stroke-linejoin="round" />
<path d="M 154.0 101.5 L 153.5 101.5 L 153.0 101.0 L 153.0 101.0 L 155.0 101.0 L 159.0 101.5 L 165.5 101.5 L 172.5 101.5 L 177.5 100.5 L 180.5 99.5 " stroke="black" fill="none" stroke-width="9.0" stroke-linecap="round" stroke-linejoin="round" />
<path d="M 156.5 110.0 L 156.5 110.0 L 156.5 110.5 L 156.5 110.5 L 157.0 111.0 L 158.0 112.0 L 159.5 113.0 L 161.5 114.0 L 162.0 114.5 " stroke="black" fill="none" stroke-width="9.0" stroke-linecap="round" stroke-linejoin="round" />
<path d="M 179.0 109.0 L 179.0 109.0 L 179.0 109.5 L 179.0 109.5 L 179.0 110.0 L 179.0 111.0 L 178.5 112.5 " stroke="black" fill="none" stroke-width="9.0" stroke-linecap="round" stroke-linejoin="round" />
<path d="M 153.0 125.0 L 152.5 125.0 L 152.0 125.0 L 152.0 125.0 L 153.0 125.5 L 158.0 125.5 L 165.5 123.5 L 174.0 121.0 L 180.5 120.0 L 182.0 120.5 L 182.0 121.0 " stroke="black" fill="none" stroke-width="9.0" stroke-linecap="round" stroke-linejoin="round" />
<path d="M 160.0 137.0 L 160.0 137.0 L 160.0 137.0 L 160.5 137.5 L 160.5 137.5 L 161.0 137.5 L 162.0 137.5 L 163.5 137.5 L 167.0 137.0 L 171.0 136.0 L 175.0 134.5 L 177.0 133.5 " stroke="black" fill="none" stroke-width="9.0" stroke-linecap="round" stroke-linejoin="round" />
<path d="M 168.5 126.5 L 168.5 126.5 L 168.5 126.5 L 168.5 126.5 L 168.5 128.5 L 169.5 136.5 L 170.0 146.5 L 170.5 151.5 L 170.5 152.0 " stroke="black" fill="none" stroke-width="9.0" stroke-linecap="round" stroke-linejoin="round" />
<path d="M 122.5 161.0 L 122.0 161.0 L 120.5 161.0 L 120.0 161.5 L 120.0 161.5 L 122.5 161.5 L 128.0 161.5 L 136.0 161.5 L 148.5 161.0 L 164.0 159.5 L 175.5 158.0 L 182.5 158.0 L 185.0 158.0 L 184.5 158.5 L 183.0 158.5 L 181.5 158.5 " stroke="black" fill="none" stroke-width="9.0" stroke-linecap="round" stroke-linejoin="round" />
<path d="M 137.5 176.5 L 137.5 177.0 L 138.0 177.5 L 138.5 177.5 L 141.5 177.5 L 147.0 176.5 L 154.0 175.5 L 161.5 175.0 L 167.5 174.5 L 170.5 174.5 " stroke="black" fill="none" stroke-width="9.0" stroke-linecap="round" stroke-linejoin="round" />
<path d="M 150.0 164.0 L 150.0 164.0 L 149.5 163.5 L 149.5 164.0 L 149.0 168.5 L 147.5 180.5 L 147.0 193.5 L 147.0 200.0 L 148.0 200.5 L 150.0 199.0 " stroke="black" fill="none" stroke-width="9.0" stroke-linecap="round" stroke-linejoin="round" />
<path d="M 116.0 204.0 L 116.0 204.0 L 116.0 204.5 L 116.0 205.0 L 117.0 205.5 L 120.5 205.5 L 128.0 205.5 L 142.0 204.5 L 158.0 203.5 L 173.0 202.0 L 185.0 201.5 L 192.5 201.0 L 194.0 201.5 L 194.0 201.5 " stroke="black" fill="none" stroke-width="9.0" stroke-linecap="round" stroke-linejoin="round" />
<path d="M 171.0 186.5 L 170.0 186.0 L 169.0 186.0 L 169.0 186.0 L 170.0 187.5 L 172.5 189.5 L 175.5 191.5 L 176.5 192.5 " stroke="black" fill="none" stroke-width="9.0" stroke-linecap="round" stroke-linejoin="round" />
</svg>