<svg xmlns="http://www.w3.org/2000/svg" width="300" height="300" viewBox="0 0 300 300">
<path d="M 139.5 119.0 L 139.5 119.0 L 140.5 118.5 L 141.0 117.5 L 141.5 117.0 L 142.0 116.5 L 142.0 116.5 L 141.5 117.0 L 139.5 119.0 L 136.0 121.5 L 132.5 124.0 L 128.5 126.0 L 125.5 127.5 L 123.0 128.0 L 122.0 128.5 L 122.0 128.5 L 122.0 128.5 L 122.0 128.5 L 122.5 128.5 L 122.5 128.5 L 123.0 128.5 L 123.5 128.5 L 123.5 129.5 L 124.5 131.0 L 124.5 134.5 L 125.0 139.5 L 125.0 145.0 L 125.5 149.0 L 125.5 151.5 L 125.5 152.0 L 125.5 152.0 L 126.0 151.5 L 127.5 150.5 L 129.5 148.5 L 132.5 146.5 L 135.0 144.5 L 137.0 143.0 L 138.5 142.5 L 139.0 142.5 " stroke="black" fill="none" stroke-width="6.0" stroke-linecap="round" stroke-linejoin="round" />
<path d="M 140.5 133.5 L 140.0 133.5 L 139.0 133.5 L 139.0 134.0 L 139.0 135.0 L 140.5 138.0 L 142.5 142.0 L 144.0 145.0 L 145.0 147.0 " stroke="black" fill="none" stroke-width="6.0" stroke-linecap="round" stroke-linejoin="round" />
<path d="M 158.0 127.0 L 158.5 126.0 L 158.5 125.0 L 159.0 125.0 L 159.0 125.0 L 159.0 127.5 L 158.5 132.5 L 157.0 138.5 L 155.0 144.0 L 153.5 146.5 L 153.5 146.5 " stroke="black" fill="none" stroke-width="6.0" stroke-linecap="round" stroke-linejoin="round" />
<path d="M 155.0 120.0 L 154.5 120.0 L 154.0 120.0 L 153.5 120.0 L 153.5 120.0 L 155.0 120.0 L 158.5 119.5 L 162.0 119.5 L 165.0 119.5 L 167.5 119.5 L 169.0 119.5 L 170.0 120.0 L 171.0 120.5 L 171.0 120.5 L 171.5 121.5 L 172.0 122.0 L 172.0 123.5 L 172.0 125.0 L 172.0 127.0 L 172.0 129.5 L 172.0 133.5 L 172.0 138.0 L 172.0 143.5 L 172.0 147.0 L 171.5 149.0 L 170.0 150.0 L 168.0 150.0 L 167.0 148.5 L 166.5 148.0 " stroke="black" fill="none" stroke-width="6.0" stroke-linecap="round" stroke-linejoin="round" />
<path d="M 134.0 160.0 L 134.5 159.5 L 135.0 158.5 L 135.0 158.5 L 135.0 162.0 L 135.0 170.0 L 135.5 179.0 L 135.5 186.5 L 135.5 190.0 L 135.5 190.5 L 135.5 190.0 " stroke="black" fill="none" stroke-width="6.0" stroke-linecap="round" stroke-linejoin="round" />
<path d="M 135.5 161.0 L 135.0 161.0 L 134.0 160.0 L 134.0 159.0 L 137.0 158.0 L 142.0 157.5 L 148.0 157.5 L 154.0 158.5 L 159.0 159.0 L 164.5 159.5 L 169.5 158.0 L 172.5 157.0 L 173.5 157.0 L 173.5 157.5 L 173.0 158.5 L 173.0 160.0 L 172.5 162.5 L 172.0 166.5 L 171.0 172.5 L 170.0 179.5 L 169.0 185.0 L 169.0 188.0 L 169.0 189.0 L 169.5 189.0 L 169.5 188.5 " stroke="black" fill="none" stroke-width="6.0" stroke-linecap="round" stroke-linejoin="round" />
<path d="M 144.0 173.0 L 143.5 173.0 L 142.0 173.0 L 141.5 173.0 L 143.5 173.0 L 148.0 174.0 L 152.5 174.0 L 156.5 174.0 L 158.0 173.5 " stroke="black" fill="none" stroke-width="6.0" stroke-linecap="round" stroke-linejoin="round" />
<path d="M 157.5 159.5 L 157.0 159.0 L 156.5 158.5 L 156.0 159.0 L 155.0 162.0 L 154.5 168.0 L 153.0 176.5 L 152.0 184.0 L 152.0 187.0 L 152.0 187.5 " stroke="black" fill="none" stroke-width="6.0" stroke-linecap="round" stroke-linejoin="round" />
<path d="M 137.0 192.0 L 136.5 192.0 L 136.0 192.5 L 136.0 193.0 L 140.5 192.5 L 148.5 191.5 L 158.0 189.5 L 166.0 189.0 L 170.5 190.5 " stroke="black" fill="none" stroke-width="6.0" stroke-linecap="round" stroke-linejoin="round" />
</svg>