<svg xmlns="http://www.w3.org/2000/svg" width="300" height="300" viewBox="0 0 300 300">
<path d="M 114.0 101.5 L 114.0 101.0 L 114.5 100.5 L 115.0 100.5 L 115.5 104.0 L 117.5 111.5 L 120.0 125.0 L 121.5 138.5 L 122.5 143.0 L 123.0 142.5 L 123.5 137.5 L 123.5 136.0 " stroke="black" fill="none" stroke-width="8.0" stroke-linecap="round" stroke-linejoin="round" />
<path d="M 121.5 105.0 L 121.0 105.0 L 120.0 105.0 L 119.5 105.0 L 121.5 104.5 L 127.0 103.5 L 137.5 102.0 L 151.0 100.5 L 163.0 99.5 L 170.0 99.5 L 174.0 100.0 L 176.0 100.5 L 176.0 101.0 L 176.0 101.5 L 175.5 102.5 L 175.0 105.5 L 175.0 110.0 L 174.5 117.0 L 173.5 126.0 L 171.5 133.5 L 169.5 140.0 L 167.5 144.5 L 167.5 146.0 L 168.5 146.0 " stroke="black" fill="none" stroke-width="8.0" stroke-linecap="round" stroke-linejoin="round" />
<path d="M 128.5 126.0 L 128.0 126.0 L 127.5 126.0 L 127.5 125.5 L 129.0 125.5 L 135.0 124.5 L 144.5 124.0 L 154.0 123.0 L 162.0 121.5 L 166.5 120.5 L 167.5 121.0 " stroke="black" fill="none" stroke-width="8.0" stroke-linecap="round" stroke-linejoin="round" />
<path d="M 126.5 150.0 L 126.5 150.0 L 126.5 150.0 L 126.5 149.5 L 131.5 149.0 L 143.0 146.5 L 155.0 145.0 L 162.5 144.5 L 166.0 144.0 " stroke="black" fill="none" stroke-width="8.0" stroke-linecap="round" stroke-linejoin="round" />
<path d="M 147.5 107.0 L 147.5 107.0 L 146.5 107.0 L 146.0 107.0 L 146.0 107.0 L 146.0 107.5 L 146.5 110.5 L 147.0 116.0 L 147.5 127.0 L 147.5 142.0 L 147.0 158.5 L 147.0 173.5 L 147.0 184.0 L 147.0 191.0 L 147.5 194.0 L 148.0 194.0 L 148.0 192.0 L 148.0 191.0 " stroke="black" fill="none" stroke-width="8.0" stroke-linecap="round" stroke-linejoin="round" />
</svg>