<svg xmlns="http://www.w3.org/2000/svg" width="300" height="300" viewBox="0 0 300 300">
<path d="M 130.0 127.0 L 130.0 126.0 L 130.0 125.0 L 130.0 125.0 L 130.0 125.0 L 130.0 128.0 L 128.5 132.5 L 127.0 137.0 L 126.0 140.5 L 125.5 141.0 " stroke="black" fill="none" stroke-width="7.0" stroke-linecap="round" stroke-linejoin="round" />
<path d="M 121.0 147.5 L 121.0 147.5 L 120.5 146.5 L 120.0 146.0 L 120.0 145.5 L 120.0 146.0 L 120.0 151.0 L 120.5 161.5 L 121.0 172.5 L 122.0 179.0 L 122.5 180.0 L 123.0 177.0 " stroke="black" fill="none" stroke-width="7.0" stroke-linecap="round" stroke-linejoin="round" />
<path d="M 122.5 147.0 L 120.0 147.0 L 119.0 147.5 L 119.0 147.5 L 121.5 146.5 L 124.5 145.5 L 128.0 143.5 L 132.0 142.5 L 136.0 141.5 L 139.5 141.5 L 141.5 142.5 L 142.0 145.0 L 142.0 149.5 L 142.0 156.5 L 140.5 172.5 L 140.5 176.5 L 140.0 177.0 L 139.5 176.0 L 139.0 175.0 " stroke="black" fill="none" stroke-width="7.0" stroke-linecap="round" stroke-linejoin="round" />
<path d="M 124.5 165.0 L 124.0 164.5 L 123.0 164.0 L 124.0 163.0 L 128.0 161.5 L 132.5 159.0 L 136.5 157.0 L 139.5 156.5 " stroke="black" fill="none" stroke-width="7.0" stroke-linecap="round" stroke-linejoin="round" />
<path d="M 126.5 182.5 L 126.0 182.5 L 126.0 181.5 L 126.5 180.5 L 129.0 180.0 L 132.5 178.5 L 134.5 178.0 " stroke="black" fill="none" stroke-width="7.0" stroke-linecap="round" stroke-linejoin="round" />
<path d="M 157.5 127.5 L 157.5 127.0 L 157.5 126.0 L 158.0 126.0 L 157.5 127.0 L 156.0 132.5 L 154.5 139.5 L 153.5 144.5 L 153.5 146.0 " stroke="black" fill="none" stroke-width="7.0" stroke-linecap="round" stroke-linejoin="round" />
<path d="M 155.5 138.5 L 155.5 139.0 L 154.0 139.0 L 153.0 139.0 L 153.0 139.0 L 154.5 138.5 L 158.5 137.5 L 163.5 135.5 L 168.0 134.5 L 171.5 134.0 L 174.0 134.0 L 175.5 135.0 L 175.5 137.5 L 175.5 140.5 L 175.5 145.5 L 176.0 154.0 L 176.0 163.0 L 176.0 172.0 L 176.0 179.5 L 175.5 184.5 L 174.5 186.5 L 172.0 186.5 L 168.5 185.0 L 165.0 183.5 L 162.5 182.0 L 162.0 181.0 " stroke="black" fill="none" stroke-width="7.0" stroke-linecap="round" stroke-linejoin="round" />
<path d="M 156.5 158.5 L 156.0 158.5 L 155.0 158.5 L 154.5 158.0 L 157.0 158.0 L 161.5 159.5 L 165.5 161.5 L 166.5 162.5 " stroke="black" fill="none" stroke-width="7.0" stroke-linecap="round" stroke-linejoin="round" />
</svg>