<svg xmlns="http://www.w3.org/2000/svg" width="300" height="300" viewBox="0 0 300 300">
<path d="M 116.5 112.0 L 116.0 112.5 L 115.5 113.0 L 115.5 113.0 L 115.5 113.0 L 118.5 112.5 L 122.5 112.0 L 126.5 111.5 L 131.5 110.5 L 135.5 110.0 L 137.5 110.0 L 138.5 110.0 L 138.5 110.5 " stroke="black" fill="none" stroke-width="6.0" stroke-linecap="round" stroke-linejoin="round" />
<path d="M 116.5 115.0 L 116.5 114.5 L 117.0 114.5 L 117.0 114.0 L 117.0 114.0 L 117.0 114.0 L 117.0 114.5 L 117.5 116.5 L 117.5 119.5 L 117.5 124.5 L 117.5 130.0 L 117.0 135.0 L 117.0 139.0 L 117.0 142.5 L 117.0 145.0 L 117.0 146.5 L 117.0 147.0 L 117.5 146.5 L 117.5 146.0 " stroke="black" fill="none" stroke-width="6.0" stroke-linecap="round" stroke-linejoin="round" />
<path d="M 128.5 112.0 L 128.0 112.0 L 128.0 112.0 L 127.5 112.0 L 127.5 112.0 L 128.0 112.5 L 128.5 115.5 L 129.0 119.0 L 129.0 122.5 L 129.0 124.5 L 129.0 125.0 " stroke="black" fill="none" stroke-width="6.0" stroke-linecap="round" stroke-linejoin="round" />
<path d="M 121.5 126.0 L 121.0 126.0 L 119.5 126.5 L 119.0 127.0 L 119.0 127.0 L 120.0 127.0 L 122.5 126.5 L 125.5 126.0 L 129.0 125.5 L 132.0 125.0 L 134.5 124.5 L 136.0 124.0 L 137.0 124.0 L 137.0 124.0 L 137.0 124.0 L 137.0 125.0 L 136.5 126.5 L 135.5 128.5 L 135.0 130.5 L 134.0 131.5 " stroke="black" fill="none" stroke-width="6.0" stroke-linecap="round" stroke-linejoin="round" />
<path d="M 124.0 135.5 L 122.5 136.0 L 121.5 136.5 L 121.0 136.5 L 121.0 136.5 L 123.0 136.5 L 126.5 135.5 L 130.0 135.0 L 133.5 134.5 L 136.0 134.5 " stroke="black" fill="none" stroke-width="6.0" stroke-linecap="round" stroke-linejoin="round" />
<path d="M 129.0 137.0 L 129.0 136.5 L 129.5 136.5 L 129.5 136.5 L 129.5 136.5 L 129.5 139.0 L 129.5 142.0 L 129.0 144.5 L 129.0 146.0 " stroke="black" fill="none" stroke-width="6.0" stroke-linecap="round" stroke-linejoin="round" />
<path d="M 118.5 150.0 L 118.5 151.5 L 118.5 152.0 L 119.5 152.0 L 122.0 152.0 L 126.5 150.5 L 131.0 150.0 L 135.0 149.5 L 138.5 149.5 L 139.5 149.0 " stroke="black" fill="none" stroke-width="6.0" stroke-linecap="round" stroke-linejoin="round" />
<path d="M 154.0 110.0 L 154.0 110.0 L 154.0 110.5 L 154.0 110.5 L 154.5 111.0 L 154.0 113.5 L 152.0 119.0 L 149.0 125.5 L 146.0 129.0 L 145.5 129.0 L 145.5 129.0 " stroke="black" fill="none" stroke-width="6.0" stroke-linecap="round" stroke-linejoin="round" />
<path d="M 150.5 123.0 L 150.5 123.0 L 151.0 123.0 L 152.0 123.0 L 153.5 123.0 L 157.0 123.0 L 161.5 122.5 L 165.5 122.0 L 168.5 121.5 L 170.0 121.5 L 170.0 121.5 " stroke="black" fill="none" stroke-width="6.0" stroke-linecap="round" stroke-linejoin="round" />
<path d="M 153.0 136.5 L 153.0 136.5 L 152.0 137.0 L 151.5 137.5 L 151.5 137.5 L 153.0 137.5 L 156.5 137.0 L 160.5 137.0 L 164.5 136.5 L 167.5 136.5 L 169.5 136.0 L 170.5 136.0 " stroke="black" fill="none" stroke-width="6.0" stroke-linecap="round" stroke-linejoin="round" />
<path d="M 123.5 165.0 L 123.5 165.0 L 123.5 164.0 L 123.0 163.0 L 123.0 162.0 L 123.0 161.5 L 123.0 161.5 L 123.0 163.0 L 124.0 167.0 L 124.5 171.5 L 125.5 176.0 L 126.0 178.5 L 126.5 178.5 L 127.0 176.5 " stroke="black" fill="none" stroke-width="6.0" stroke-linecap="round" stroke-linejoin="round" />
<path d="M 125.5 163.0 L 125.0 163.0 L 123.5 163.0 L 123.5 163.0 L 123.5 163.0 L 123.5 163.0 L 125.0 163.0 L 126.5 162.5 L 129.0 162.0 L 133.0 161.5 L 139.5 160.5 L 147.5 159.0 L 154.0 157.5 L 157.5 157.0 L 159.0 157.0 L 159.5 157.5 L 160.5 158.0 L 162.0 158.0 L 163.5 158.0 L 164.5 157.5 L 165.5 157.5 L 166.0 157.5 L 166.0 157.5 L 166.0 157.5 L 166.0 157.5 L 166.0 157.5 L 166.0 157.5 L 166.0 157.5 L 166.0 157.5 L 166.0 157.5 L 166.0 157.5 L 166.0 157.5 L 166.0 158.0 L 166.0 159.0 L 165.5 162.0 L 165.0 166.0 L 164.5 170.0 L 164.0 173.0 L 164.0 174.0 L 164.0 174.5 L 164.0 173.0 " stroke="black" fill="none" stroke-width="6.0" stroke-linecap="round" stroke-linejoin="round" />
<path d="M 138.0 164.5 L 137.5 164.0 L 137.5 164.0 L 137.5 164.5 L 138.0 167.5 L 138.5 171.5 L 139.5 174.0 L 140.5 175.0 L 140.5 175.0 " stroke="black" fill="none" stroke-width="6.0" stroke-linecap="round" stroke-linejoin="round" />
<path d="M 147.5 162.5 L 148.0 162.0 L 148.0 161.5 L 148.0 161.0 L 148.5 162.5 L 148.5 166.0 L 149.0 169.5 L 149.5 172.5 L 149.5 175.0 L 149.5 176.0 " stroke="black" fill="none" stroke-width="6.0" stroke-linecap="round" stroke-linejoin="round" />
<path d="M 119.0 179.0 L 118.0 179.0 L 117.0 179.0 L 116.5 179.0 L 116.5 179.0 L 116.5 179.0 L 118.0 179.0 L 120.5 179.0 L 125.0 178.5 L 133.0 178.0 L 145.5 177.0 L 158.5 175.0 L 166.5 175.0 L 170.5 175.5 L 172.0 176.5 L 172.5 177.0 L 173.0 177.0 L 173.0 176.5 L 173.5 176.5 L 173.5 176.5 L 173.5 176.5 L 173.5 176.5 L 173.5 176.5 L 173.5 176.5 L 174.0 176.5 L 174.0 176.5 L 174.0 176.5 L 174.0 176.5 L 174.0 176.5 L 174.0 176.5 L 174.0 176.0 " stroke="black" fill="none" stroke-width="6.0" stroke-linecap="round" stroke-linejoin="round" />
</svg>