<svg xmlns="http://www.w3.org/2000/svg" width="300" height="300" viewBox="0 0 300 300">
<path d="M 124.5 119.0 L 123.0 119.0 L 122.5 118.5 L 122.5 118.0 L 124.0 118.5 L 127.0 120.0 L 129.5 122.0 L 131.5 123.5 L 132.5 124.5 L 133.0 125.0 " stroke="black" fill="none" stroke-width="8.0" stroke-linecap="round" stroke-linejoin="round" />
<path d="M 122.5 134.5 L 121.5 135.0 L 121.0 135.5 L 121.0 135.5 L 122.5 136.0 L 124.5 137.0 L 127.0 138.0 L 128.5 139.0 L 129.5 140.0 " stroke="black" fill="none" stroke-width="8.0" stroke-linecap="round" stroke-linejoin="round" />
<path d="M 118.0 162.0 L 118.0 162.0 L 117.0 161.0 L 117.0 160.5 L 118.0 159.5 L 121.0 158.0 L 125.0 156.0 L 129.0 153.0 L 130.0 152.0 " stroke="black" fill="none" stroke-width="8.0" stroke-linecap="round" stroke-linejoin="round" />
<path d="M 150.5 116.0 L 150.5 116.0 L 150.5 116.0 L 151.0 116.0 L 151.0 116.0 L 150.0 119.0 L 147.5 123.5 L 145.5 127.5 L 145.0 128.5 " stroke="black" fill="none" stroke-width="8.0" stroke-linecap="round" stroke-linejoin="round" />
<path d="M 148.5 124.0 L 147.5 124.0 L 147.0 124.0 L 147.0 124.0 L 149.5 123.5 L 153.5 123.0 L 158.0 122.5 L 163.5 121.5 L 168.5 120.5 L 171.5 120.0 L 172.5 119.5 L 172.0 119.5 L 171.5 119.5 L 171.5 119.5 L 171.0 120.0 L 171.0 120.5 L 171.0 121.0 L 171.0 122.5 L 171.0 123.5 L 171.0 124.5 L 171.0 125.5 L 171.0 126.5 L 171.0 126.5 " stroke="black" fill="none" stroke-width="8.0" stroke-linecap="round" stroke-linejoin="round" />
<path d="M 156.0 131.0 L 157.0 131.5 L 157.5 132.0 L 157.5 132.5 L 157.5 133.5 L 157.0 136.5 L 154.0 141.5 L 149.0 147.5 L 142.0 153.0 L 139.0 154.0 L 139.0 152.5 L 139.5 151.5 " stroke="black" fill="none" stroke-width="8.0" stroke-linecap="round" stroke-linejoin="round" />
<path d="M 155.0 145.0 L 155.0 145.0 L 154.5 145.0 L 154.5 145.5 L 154.5 145.5 L 154.5 145.5 L 156.5 146.5 L 161.5 148.0 L 168.0 150.0 L 173.0 151.5 L 176.0 152.0 " stroke="black" fill="none" stroke-width="8.0" stroke-linecap="round" stroke-linejoin="round" />
<path d="M 126.5 174.5 L 126.0 174.5 L 125.5 174.5 L 125.0 174.5 L 125.5 175.5 L 127.0 179.0 L 128.5 184.0 L 129.5 187.5 L 130.0 188.5 L 130.0 187.5 " stroke="black" fill="none" stroke-width="8.0" stroke-linecap="round" stroke-linejoin="round" />
<path d="M 129.5 171.0 L 129.0 171.0 L 128.5 171.0 L 128.0 171.0 L 129.5 171.0 L 133.0 171.0 L 138.0 170.5 L 143.5 170.0 L 150.0 170.0 L 156.0 170.0 L 161.0 169.5 L 165.0 169.5 L 167.0 169.5 L 167.5 169.5 L 168.0 170.0 L 168.0 170.0 L 168.0 170.0 L 168.0 170.5 L 168.5 170.5 L 168.5 170.5 L 169.0 171.0 L 169.0 171.5 L 169.5 172.5 L 169.5 174.5 L 168.0 178.0 L 166.5 182.5 L 165.0 187.0 L 164.5 190.0 L 164.5 190.0 L 165.0 188.5 " stroke="black" fill="none" stroke-width="8.0" stroke-linecap="round" stroke-linejoin="round" />
<path d="M 142.0 175.5 L 142.0 175.5 L 141.5 175.5 L 141.5 175.5 L 141.0 175.5 L 141.0 177.5 L 141.5 181.0 L 142.5 184.5 L 143.5 186.5 L 144.5 187.0 " stroke="black" fill="none" stroke-width="8.0" stroke-linecap="round" stroke-linejoin="round" />
<path d="M 152.0 173.0 L 152.0 173.0 L 152.0 173.5 L 152.0 173.5 L 152.0 175.0 L 152.0 178.5 L 152.0 183.0 L 151.5 187.0 L 151.0 189.5 " stroke="black" fill="none" stroke-width="8.0" stroke-linecap="round" stroke-linejoin="round" />
<path d="M 116.5 196.5 L 116.5 197.0 L 116.0 197.5 L 116.0 197.5 L 117.0 197.5 L 120.5 197.0 L 128.0 196.5 L 139.5 196.0 L 151.5 196.0 L 162.0 196.0 L 170.0 196.5 L 175.0 197.5 L 178.5 198.5 L 180.0 199.0 L 180.0 199.0 L 180.0 198.5 L 180.0 198.5 L 180.0 198.5 L 180.0 198.5 L 180.0 198.5 L 180.0 198.5 L 180.0 198.5 L 180.0 198.5 L 180.0 198.5 L 180.0 198.5 L 180.0 198.5 L 180.0 198.5 L 180.0 198.5 L 180.0 198.5 L 180.0 198.5 L 180.0 198.5 L 180.0 198.5 L 180.0 198.5 L 180.0 198.5 L 180.0 198.5 L 180.0 198.5 L 180.0 198.0 L 180.0 198.0 L 180.0 198.0 " stroke="black" fill="none" stroke-width="8.0" stroke-linecap="round" stroke-linejoin="round" />
</svg>