<svg xmlns="http://www.w3.org/2000/svg" width="300" height="300" viewBox="0 0 300 300">
<path d="M 149.0 81.5 L 148.5 80.5 L 148.5 80.0 L 148.5 80.0 L 148.5 80.5 L 148.0 85.5 L 145.5 95.5 L 139.5 107.0 L 135.5 112.5 L 134.5 112.5 L 134.5 112.0 " stroke="black" fill="none" stroke-width="9.0" stroke-linecap="round" stroke-linejoin="round" />
<path d="M 101.5 123.5 L 101.0 123.5 L 100.5 123.0 L 100.5 123.0 L 101.0 124.5 L 102.5 131.0 L 103.5 145.0 L 104.5 165.0 L 105.0 183.0 L 104.0 195.5 L 104.0 200.0 L 105.0 198.5 L 105.5 197.0 " stroke="black" fill="none" stroke-width="9.0" stroke-linecap="round" stroke-linejoin="round" />
<path d="M 105.0 126.5 L 104.5 126.0 L 104.0 125.5 L 104.5 125.5 L 108.0 125.5 L 116.5 125.5 L 129.0 125.5 L 145.0 125.5 L 159.5 125.0 L 171.0 124.5 L 176.5 124.5 L 179.0 125.5 L 179.0 125.5 L 179.0 125.5 L 179.0 125.5 L 179.0 126.5 L 179.0 129.0 L 179.0 133.0 L 179.0 140.0 L 179.0 151.5 L 179.0 169.5 L 179.0 187.0 L 179.0 199.5 L 179.0 208.0 L 179.0 211.5 L 177.5 210.0 L 175.5 206.0 " stroke="black" fill="none" stroke-width="9.0" stroke-linecap="round" stroke-linejoin="round" />
<path d="M 119.5 162.0 L 119.0 162.0 L 118.5 162.0 L 119.0 162.0 L 123.5 161.0 L 134.0 160.0 L 147.0 160.0 L 157.0 160.5 L 164.5 161.0 L 169.5 161.5 L 171.0 162.0 " stroke="black" fill="none" stroke-width="9.0" stroke-linecap="round" stroke-linejoin="round" />
<path d="M 113.0 208.5 L 113.0 208.0 L 113.5 208.0 L 114.0 207.5 L 115.5 207.0 L 121.5 206.0 L 133.0 204.5 L 147.0 204.0 L 160.0 204.5 L 171.0 204.5 L 178.5 204.0 L 181.5 202.5 " stroke="black" fill="none" stroke-width="9.0" stroke-linecap="round" stroke-linejoin="round" />
</svg>