<svg xmlns="http://www.w3.org/2000/svg" width="300" height="300" viewBox="0 0 300 300">
<path d="M 86.66666666666667 85.0 L 86.66666666666667 85.0 L 86.66666666666667 85.0 L 86.66666666666667 85.0 L 91.11111111111111 83.88888888888889 L 101.11111111111111 82.77777777777777 L 113.8888888888889 82.77777777777777 L 124.44444444444444 83.33333333333333 L 128.8888888888889 85.0 L 130.00000000000003 86.11111111111111 L 128.8888888888889 88.33333333333333 L 127.22222222222221 91.66666666666667 L 123.8888888888889 97.77777777777777 L 118.8888888888889 106.11111111111111 L 112.22222222222221 115.00000000000001 L 103.33333333333333 122.77777777777779 L 95.0 127.22222222222221 L 88.88888888888889 128.8888888888889 L 85.55555555555556 129.44444444444446 " stroke="black" fill="none" stroke-width="10.0" stroke-linecap="round" stroke-linejoin="round" />
<path d="M 82.22222222222223 102.22222222222223 L 82.77777777777777 101.66666666666667 L 83.88888888888889 101.66666666666667 L 86.11111111111111 102.22222222222223 L 91.11111111111111 105.55555555555556 L 96.66666666666667 108.33333333333333 L 102.77777777777777 110.55555555555556 L 103.88888888888889 110.55555555555556 " stroke="black" fill="none" stroke-width="10.0" stroke-linecap="round" stroke-linejoin="round" />
<path d="M 87.22222222222223 147.22222222222223 L 87.22222222222223 147.22222222222223 L 87.22222222222223 146.66666666666669 L 88.33333333333333 146.11111111111111 L 92.77777777777777 144.44444444444446 L 101.66666666666667 141.11111111111111 L 112.77777777777779 138.33333333333334 L 121.1111111111111 137.7777777777778 L 125.00000000000001 138.33333333333334 L 125.55555555555556 140.00000000000003 L 125.00000000000001 141.66666666666669 L 123.33333333333333 145.55555555555557 L 121.66666666666667 150.00000000000003 L 120.00000000000001 154.44444444444446 L 118.8888888888889 158.33333333333334 L 117.77777777777779 161.66666666666669 L 117.77777777777779 162.22222222222223 " stroke="black" fill="none" stroke-width="10.0" stroke-linecap="round" stroke-linejoin="round" />
<path d="M 92.77777777777777 175.00000000000003 L 92.22222222222223 174.44444444444446 L 92.22222222222223 173.8888888888889 L 92.77777777777777 173.33333333333334 L 96.66666666666667 172.22222222222223 L 111.66666666666667 170.55555555555557 L 119.44444444444444 169.44444444444446 L 122.22222222222221 168.8888888888889 " stroke="black" fill="none" stroke-width="10.0" stroke-linecap="round" stroke-linejoin="round" />
<path d="M 86.66666666666667 175.00000000000003 L 86.66666666666667 175.00000000000003 L 86.66666666666667 175.00000000000003 L 86.66666666666667 175.00000000000003 L 86.66666666666667 175.55555555555557 L 87.22222222222223 177.22222222222223 L 87.22222222222223 182.22222222222223 L 87.22222222222223 190.55555555555557 L 86.11111111111111 199.44444444444446 L 85.55555555555556 206.11111111111114 L 85.55555555555556 207.7777777777778 L 88.33333333333333 206.66666666666669 L 93.88888888888889 203.8888888888889 L 100.55555555555556 200.55555555555557 L 107.22222222222223 198.33333333333334 L 112.77777777777779 197.7777777777778 L 117.22222222222221 198.8888888888889 L 118.8888888888889 201.11111111111114 L 119.44444444444444 203.8888888888889 L 120.00000000000001 207.7777777777778 L 120.55555555555556 212.7777777777778 L 122.22222222222221 218.8888888888889 L 123.8888888888889 225.00000000000003 L 124.44444444444444 228.8888888888889 L 124.44444444444444 232.7777777777778 L 123.33333333333333 236.11111111111114 L 121.1111111111111 239.44444444444449 L 116.66666666666667 241.6666666666667 L 110.0 243.33333333333334 L 102.77777777777777 243.88888888888889 L 97.22222222222223 243.88888888888889 L 96.11111111111111 243.33333333333334 " stroke="black" fill="none" stroke-width="10.0" stroke-linecap="round" stroke-linejoin="round" />
<path d="M 145.00000000000003 85.55555555555556 L 144.44444444444446 87.22222222222223 L 146.11111111111111 89.44444444444444 L 152.22222222222223 95.0 L 164.44444444444446 105.0 L 178.33333333333334 115.55555555555556 L 191.66666666666669 122.77777777777779 L 201.66666666666669 123.8888888888889 L 209.44444444444446 123.33333333333333 L 213.33333333333334 120.55555555555556 L 212.7777777777778 120.00000000000001 " stroke="black" fill="none" stroke-width="10.0" stroke-linecap="round" stroke-linejoin="round" />
<path d="M 175.00000000000003 86.66666666666667 L 175.00000000000003 87.22222222222223 L 173.8888888888889 87.77777777777777 L 173.33333333333334 89.44444444444444 L 171.66666666666669 92.77777777777777 L 168.8888888888889 98.33333333333333 L 167.22222222222223 102.22222222222223 L 166.66666666666669 102.77777777777777 " stroke="black" fill="none" stroke-width="10.0" stroke-linecap="round" stroke-linejoin="round" />
<path d="M 199.44444444444446 95.0 L 198.8888888888889 95.55555555555556 L 197.22222222222223 96.66666666666667 L 194.44444444444446 100.55555555555556 L 192.22222222222223 105.0 L 190.00000000000003 108.88888888888889 L 187.7777777777778 111.11111111111111 " stroke="black" fill="none" stroke-width="10.0" stroke-linecap="round" stroke-linejoin="round" />
<path d="M 146.66666666666669 138.8888888888889 L 146.66666666666669 138.8888888888889 L 146.11111111111111 138.33333333333334 L 145.55555555555557 137.7777777777778 L 145.55555555555557 138.8888888888889 L 146.11111111111111 145.00000000000003 L 146.11111111111111 156.11111111111111 L 144.44444444444446 169.44444444444446 L 141.11111111111111 178.33333333333334 L 140.00000000000003 180.00000000000003 L 140.00000000000003 178.33333333333334 " stroke="black" fill="none" stroke-width="10.0" stroke-linecap="round" stroke-linejoin="round" />
<path d="M 150.00000000000003 133.33333333333334 L 149.44444444444446 133.8888888888889 L 148.8888888888889 133.8888888888889 L 148.8888888888889 134.44444444444446 L 151.11111111111111 135.00000000000003 L 157.22222222222223 134.44444444444446 L 165.55555555555557 133.8888888888889 L 173.8888888888889 133.8888888888889 L 180.00000000000003 136.11111111111111 L 182.7777777777778 140.00000000000003 L 182.7777777777778 143.33333333333334 L 182.7777777777778 147.7777777777778 L 182.22222222222223 153.8888888888889 L 181.66666666666669 161.66666666666669 L 181.11111111111114 170.55555555555557 L 180.55555555555557 177.22222222222223 L 181.11111111111114 180.55555555555557 L 183.8888888888889 182.7777777777778 L 188.8888888888889 183.33333333333334 L 195.00000000000003 182.7777777777778 L 201.11111111111114 180.00000000000003 L 207.22222222222223 175.55555555555557 L 209.44444444444446 171.11111111111114 " stroke="black" fill="none" stroke-width="10.0" stroke-linecap="round" stroke-linejoin="round" />
<path d="M 138.33333333333334 203.8888888888889 L 138.33333333333334 203.8888888888889 L 138.8888888888889 203.8888888888889 L 143.33333333333334 202.7777777777778 L 154.44444444444446 200.00000000000003 L 168.8888888888889 197.7777777777778 L 180.55555555555557 197.7777777777778 L 186.66666666666669 198.8888888888889 L 187.7777777777778 203.33333333333334 L 187.7777777777778 209.44444444444446 L 183.8888888888889 216.66666666666669 L 178.33333333333334 224.44444444444446 L 172.22222222222223 232.22222222222226 L 166.66666666666669 240.00000000000003 L 162.22222222222223 244.44444444444449 L 160.55555555555557 245.00000000000003 L 160.00000000000003 243.88888888888889 " stroke="black" fill="none" stroke-width="10.0" stroke-linecap="round" stroke-linejoin="round" />
<path d="M 148.8888888888889 216.66666666666669 L 148.33333333333334 216.11111111111114 L 147.7777777777778 215.55555555555557 L 151.11111111111111 215.55555555555557 L 160.00000000000003 217.7777777777778 L 172.7777777777778 222.7777777777778 L 187.22222222222223 230.55555555555557 L 200.00000000000003 236.11111111111114 L 208.8888888888889 239.44444444444449 L 216.11111111111114 241.11111111111111 L 218.33333333333334 241.11111111111111 " stroke="black" fill="none" stroke-width="10.0" stroke-linecap="round" stroke-linejoin="round" />
</svg>