<svg xmlns="http://www.w3.org/2000/svg" width="300" height="300" viewBox="0 0 300 300">
<path d="M 116.5 121.5 L 116.5 121.5 L 117.0 120.0 L 117.5 119.0 L 117.5 118.0 L 117.5 118.0 L 118.5 120.0 L 118.5 125.5 L 119.0 134.5 L 119.0 147.5 L 119.5 158.5 L 121.0 162.0 L 121.5 161.5 L 122.0 157.5 " stroke="black" fill="none" stroke-width="6.0" stroke-linecap="round" stroke-linejoin="round" />
<path d="M 121.5 122.0 L 119.5 122.0 L 117.5 122.5 L 117.5 122.5 L 119.0 122.5 L 123.0 122.5 L 128.0 121.5 L 132.0 120.5 L 135.5 119.5 L 136.5 119.5 L 137.0 120.5 L 137.0 123.0 L 137.0 127.5 L 136.5 134.0 L 136.0 144.0 L 136.0 154.5 L 136.0 161.5 L 136.5 165.0 L 136.5 165.5 L 136.5 162.5 L 136.0 161.5 " stroke="black" fill="none" stroke-width="6.0" stroke-linecap="round" stroke-linejoin="round" />
<path d="M 124.5 134.5 L 123.5 135.0 L 122.0 135.5 L 122.0 135.5 L 124.5 135.0 L 127.5 134.5 L 130.5 134.0 L 133.5 133.5 L 135.0 133.5 L 135.5 134.0 " stroke="black" fill="none" stroke-width="6.0" stroke-linecap="round" stroke-linejoin="round" />
<path d="M 128.0 145.0 L 126.5 146.0 L 125.0 146.5 L 125.0 146.5 L 125.5 146.5 L 127.5 146.5 L 130.0 146.0 L 132.5 146.0 L 134.0 146.0 " stroke="black" fill="none" stroke-width="6.0" stroke-linecap="round" stroke-linejoin="round" />
<path d="M 122.0 167.0 L 121.0 167.0 L 120.5 167.0 L 120.5 167.0 L 123.0 167.0 L 127.0 167.0 L 130.5 167.0 L 135.0 166.0 L 136.0 165.0 " stroke="black" fill="none" stroke-width="6.0" stroke-linecap="round" stroke-linejoin="round" />
<path d="M 159.5 118.0 L 160.0 117.5 L 160.5 117.0 L 161.0 116.0 L 161.5 116.0 L 162.0 115.5 L 162.5 116.5 L 163.0 120.5 L 163.0 128.0 L 162.0 140.0 L 160.5 153.0 L 159.0 161.5 L 156.5 166.5 L 154.5 169.5 L 152.5 170.0 L 151.5 170.0 L 151.0 170.5 " stroke="black" fill="none" stroke-width="6.0" stroke-linecap="round" stroke-linejoin="round" />
<path d="M 150.5 133.0 L 149.0 133.5 L 148.0 133.5 L 148.0 133.5 L 149.0 134.5 L 151.0 135.5 L 153.0 136.5 L 153.5 136.5 " stroke="black" fill="none" stroke-width="6.0" stroke-linecap="round" stroke-linejoin="round" />
<path d="M 147.5 152.0 L 145.5 152.5 L 145.5 152.5 L 147.0 152.0 L 150.5 150.5 L 154.5 148.5 " stroke="black" fill="none" stroke-width="6.0" stroke-linecap="round" stroke-linejoin="round" />
<path d="M 173.5 119.0 L 173.5 119.0 L 173.5 118.5 L 173.5 118.0 L 173.5 118.0 L 173.5 118.0 L 173.5 120.5 L 173.5 126.0 L 173.0 134.0 L 172.5 143.5 L 172.0 151.5 L 172.0 156.5 L 173.0 160.0 L 174.0 163.0 L 176.0 165.0 L 178.0 166.0 L 181.5 166.0 L 184.5 165.5 L 187.5 164.5 L 189.5 162.5 L 191.5 161.0 L 192.0 159.0 L 192.5 157.5 L 192.5 156.0 L 192.5 155.5 L 192.5 155.0 L 191.5 154.0 L 191.5 154.0 L 191.5 154.0 L 191.5 154.0 " stroke="black" fill="none" stroke-width="6.0" stroke-linecap="round" stroke-linejoin="round" />
<path d="M 180.5 131.0 L 180.5 131.5 L 180.5 132.5 L 180.0 132.5 L 180.5 132.5 L 183.0 131.0 L 186.0 129.5 L 188.5 128.0 L 190.5 128.0 " stroke="black" fill="none" stroke-width="6.0" stroke-linecap="round" stroke-linejoin="round" />
<path d="M 178.5 140.0 L 178.5 140.0 L 178.5 140.0 L 178.0 140.0 L 178.5 141.0 L 181.0 142.5 L 184.0 144.0 " stroke="black" fill="none" stroke-width="6.0" stroke-linecap="round" stroke-linejoin="round" />
</svg>