<svg xmlns="http://www.w3.org/2000/svg" width="300" height="300" viewBox="0 0 300 300">
<path d="M 124.5 122.5 L 124.0 122.0 L 124.0 121.0 L 124.0 120.5 L 124.5 120.5 L 125.0 123.0 L 125.5 128.5 L 124.5 137.5 L 122.0 147.0 L 120.0 153.0 L 118.0 154.0 L 117.0 152.0 " stroke="black" fill="none" stroke-width="7.0" stroke-linecap="round" stroke-linejoin="round" />
<path d="M 126.5 138.0 L 126.0 138.0 L 125.5 138.0 L 125.5 138.0 L 128.5 136.0 L 133.0 134.0 L 138.0 132.0 L 141.5 131.0 L 143.0 130.5 L 143.5 130.5 " stroke="black" fill="none" stroke-width="7.0" stroke-linecap="round" stroke-linejoin="round" />
<path d="M 127.0 161.5 L 126.5 161.5 L 126.0 162.0 L 125.5 162.0 L 127.0 161.5 L 131.5 160.0 L 137.5 157.5 L 144.0 154.0 L 149.0 151.5 L 149.5 151.0 " stroke="black" fill="none" stroke-width="7.0" stroke-linecap="round" stroke-linejoin="round" />
<path d="M 137.0 138.5 L 136.5 138.5 L 136.0 139.5 L 135.5 142.0 L 135.0 150.5 L 133.0 165.5 L 129.5 180.0 L 126.5 188.0 L 124.0 190.5 L 123.0 189.0 L 123.0 187.5 " stroke="black" fill="none" stroke-width="7.0" stroke-linecap="round" stroke-linejoin="round" />
<path d="M 138.5 162.5 L 138.5 162.5 L 138.5 163.5 L 140.5 166.0 L 145.5 170.5 L 151.5 174.5 L 156.0 175.5 L 156.5 175.5 " stroke="black" fill="none" stroke-width="7.0" stroke-linecap="round" stroke-linejoin="round" />
<path d="M 158.5 117.5 L 158.0 117.5 L 158.0 117.5 L 158.0 117.0 L 160.5 117.0 L 166.5 115.5 L 173.5 112.0 L 179.0 108.5 L 180.5 108.0 L 180.0 108.0 " stroke="black" fill="none" stroke-width="7.0" stroke-linecap="round" stroke-linejoin="round" />
<path d="M 157.0 129.5 L 157.0 130.5 L 157.0 131.0 L 158.0 131.0 L 162.5 130.0 L 169.5 128.5 L 176.5 127.0 L 182.0 125.5 L 185.0 125.5 L 185.0 125.5 " stroke="black" fill="none" stroke-width="7.0" stroke-linecap="round" stroke-linejoin="round" />
<path d="M 170.5 117.5 L 170.0 118.5 L 169.0 120.0 L 168.0 125.0 L 166.5 132.5 L 163.5 141.5 L 159.0 147.0 L 156.0 149.0 L 155.5 148.5 L 155.5 147.5 " stroke="black" fill="none" stroke-width="7.0" stroke-linecap="round" stroke-linejoin="round" />
<path d="M 168.0 135.0 L 167.5 135.5 L 167.0 136.5 L 167.0 137.0 L 170.0 138.0 L 174.0 139.5 L 180.0 142.0 L 185.5 144.0 L 189.5 145.5 L 191.0 145.5 " stroke="black" fill="none" stroke-width="7.0" stroke-linecap="round" stroke-linejoin="round" />
<path d="M 165.5 149.0 L 165.5 149.0 L 165.0 148.5 L 164.5 148.0 L 164.5 147.5 L 164.5 147.5 L 164.5 150.0 L 165.5 153.5 L 166.5 156.5 L 167.0 159.0 L 167.5 159.5 L 168.0 159.5 " stroke="black" fill="none" stroke-width="7.0" stroke-linecap="round" stroke-linejoin="round" />
<path d="M 167.0 148.0 L 166.0 148.0 L 165.0 148.0 L 165.0 148.0 L 166.5 148.0 L 168.5 147.5 L 171.0 147.0 L 173.5 146.5 L 175.5 146.5 L 178.0 146.5 L 179.0 147.0 L 180.0 147.5 L 180.0 147.5 L 180.0 148.5 L 180.0 150.0 L 180.0 152.0 L 179.5 154.0 L 179.0 155.5 L 178.5 155.5 " stroke="black" fill="none" stroke-width="7.0" stroke-linecap="round" stroke-linejoin="round" />
<path d="M 170.5 160.0 L 170.0 160.0 L 170.0 160.0 L 170.5 160.0 L 172.5 159.5 L 175.5 159.5 L 177.5 159.5 " stroke="black" fill="none" stroke-width="7.0" stroke-linecap="round" stroke-linejoin="round" />
<path d="M 163.5 166.5 L 163.5 166.0 L 163.0 165.5 L 163.0 165.5 L 163.0 165.5 L 163.0 168.5 L 164.5 174.5 L 165.5 183.0 L 166.0 190.5 L 166.0 194.0 L 166.5 193.5 " stroke="black" fill="none" stroke-width="7.0" stroke-linecap="round" stroke-linejoin="round" />
<path d="M 166.5 168.0 L 165.0 168.0 L 164.5 168.0 L 164.5 167.5 L 167.0 167.5 L 170.5 166.5 L 175.5 165.5 L 181.5 165.0 L 187.5 165.0 L 192.0 165.0 L 194.0 165.5 L 194.5 165.5 L 194.5 166.0 L 195.0 166.5 L 195.5 167.5 L 196.0 169.5 L 196.0 172.5 L 196.5 177.0 L 197.0 183.5 L 197.0 190.5 L 197.0 197.0 L 196.5 202.5 L 195.0 205.5 L 193.0 207.0 L 190.5 206.0 L 188.0 202.5 L 186.5 199.5 " stroke="black" fill="none" stroke-width="7.0" stroke-linecap="round" stroke-linejoin="round" />
<path d="M 174.5 177.0 L 174.5 177.0 L 174.5 177.0 L 174.5 177.5 L 174.5 177.5 L 174.5 178.5 L 175.0 180.5 L 175.5 183.0 L 176.0 185.0 L 176.5 185.0 " stroke="black" fill="none" stroke-width="7.0" stroke-linecap="round" stroke-linejoin="round" />
<path d="M 176.0 177.5 L 176.0 177.5 L 176.0 178.0 L 176.0 178.5 L 176.5 178.0 L 178.5 177.5 L 181.0 177.0 L 183.0 177.0 L 185.0 178.0 L 186.0 179.5 L 186.0 181.0 L 186.0 183.0 L 184.5 184.5 L 184.0 185.0 " stroke="black" fill="none" stroke-width="7.0" stroke-linecap="round" stroke-linejoin="round" />
<path d="M 177.5 188.0 L 177.5 188.0 L 177.5 187.0 L 178.5 186.5 L 180.5 186.5 L 183.0 186.5 L 184.0 186.5 " stroke="black" fill="none" stroke-width="7.0" stroke-linecap="round" stroke-linejoin="round" />
</svg>