<svg xmlns="http://www.w3.org/2000/svg" width="300" height="300" viewBox="0 0 300 300">
<path d="M 113.0 123.0 L 113.0 122.5 L 113.0 122.0 L 113.5 122.0 L 116.5 122.0 L 124.0 122.0 L 134.0 123.0 L 140.5 123.0 L 142.5 123.0 L 142.5 123.0 L 141.0 122.0 " stroke="black" fill="none" stroke-width="6.0" stroke-linecap="round" stroke-linejoin="round" />
<path d="M 128.0 125.5 L 128.0 125.5 L 128.0 125.5 L 128.0 125.0 L 128.0 125.0 L 128.0 126.0 L 126.0 131.5 L 121.0 142.0 L 113.5 153.0 L 108.5 158.0 L 108.5 158.0 L 108.5 156.0 " stroke="black" fill="none" stroke-width="6.0" stroke-linecap="round" stroke-linejoin="round" />
<path d="M 122.0 145.0 L 120.5 144.5 L 120.0 144.0 L 120.0 144.0 L 120.5 144.5 L 121.5 148.0 L 122.0 155.0 L 122.0 163.5 L 122.5 168.5 L 123.5 168.5 L 123.5 168.0 " stroke="black" fill="none" stroke-width="6.0" stroke-linecap="round" stroke-linejoin="round" />
<path d="M 123.0 150.0 L 122.5 150.0 L 121.0 149.5 L 121.0 149.5 L 122.0 149.5 L 124.5 149.5 L 127.5 148.5 L 131.5 147.5 L 135.0 146.0 L 137.5 146.0 L 139.0 146.5 L 139.0 148.5 L 139.0 151.5 L 139.0 154.0 L 138.0 157.5 L 137.0 160.0 L 136.0 162.0 L 135.0 162.5 " stroke="black" fill="none" stroke-width="6.0" stroke-linecap="round" stroke-linejoin="round" />
<path d="M 126.0 168.0 L 124.0 168.0 L 122.5 168.0 L 122.5 168.0 L 123.5 168.0 L 126.0 167.5 L 129.0 166.5 L 132.5 165.5 " stroke="black" fill="none" stroke-width="6.0" stroke-linecap="round" stroke-linejoin="round" />
<path d="M 156.5 106.5 L 156.5 106.5 L 156.5 106.0 L 156.5 106.0 L 157.0 106.0 L 158.0 106.5 L 159.5 108.0 L 162.5 112.0 L 162.5 112.0 " stroke="black" fill="none" stroke-width="6.0" stroke-linecap="round" stroke-linejoin="round" />
<path d="M 152.0 118.5 L 151.5 118.5 L 151.0 119.0 L 150.5 119.0 L 152.0 119.0 L 156.0 118.0 L 161.5 117.5 L 167.0 117.5 L 171.0 117.5 L 172.5 117.5 " stroke="black" fill="none" stroke-width="6.0" stroke-linecap="round" stroke-linejoin="round" />
<path d="M 151.5 128.0 L 151.5 128.0 L 151.0 128.0 L 150.5 128.0 L 150.5 128.0 L 151.0 129.0 L 152.5 130.5 L 154.5 132.5 L 156.0 134.0 L 156.5 134.0 " stroke="black" fill="none" stroke-width="6.0" stroke-linecap="round" stroke-linejoin="round" />
<path d="M 168.5 129.0 L 168.0 129.0 L 167.5 129.0 L 167.0 129.0 L 167.0 129.5 L 167.0 131.0 L 166.0 132.5 L 165.0 134.5 " stroke="black" fill="none" stroke-width="6.0" stroke-linecap="round" stroke-linejoin="round" />
<path d="M 149.0 139.5 L 148.0 139.5 L 147.5 140.0 L 148.5 140.0 L 152.5 139.5 L 158.5 139.5 L 164.0 139.5 L 169.0 139.5 L 171.0 139.0 " stroke="black" fill="none" stroke-width="6.0" stroke-linecap="round" stroke-linejoin="round" />
<path d="M 157.5 148.0 L 157.5 148.0 L 158.0 147.5 L 158.0 147.5 L 158.5 147.5 L 159.0 148.0 L 160.0 150.0 L 160.5 151.5 L 161.0 153.0 " stroke="black" fill="none" stroke-width="6.0" stroke-linecap="round" stroke-linejoin="round" />
<path d="M 150.0 155.0 L 149.0 155.0 L 149.0 155.5 L 149.0 155.5 L 151.5 155.5 L 155.5 155.5 L 161.0 155.0 L 166.5 154.5 L 171.0 154.5 L 173.0 154.5 " stroke="black" fill="none" stroke-width="6.0" stroke-linecap="round" stroke-linejoin="round" />
<path d="M 159.0 158.0 L 159.0 158.0 L 159.5 158.0 L 160.0 158.5 L 160.0 159.0 L 160.0 160.5 L 158.5 164.5 L 156.0 170.5 L 153.5 177.0 L 152.0 180.0 L 151.5 180.0 L 151.5 179.5 " stroke="black" fill="none" stroke-width="6.0" stroke-linecap="round" stroke-linejoin="round" />
<path d="M 157.5 169.0 L 158.0 169.0 L 158.5 168.5 L 159.0 168.5 L 160.0 168.0 L 161.5 167.5 L 164.0 167.0 L 167.5 166.5 L 170.5 166.5 L 173.0 168.0 L 174.0 169.0 L 174.0 170.5 L 174.0 172.5 L 174.0 175.0 L 174.0 178.0 L 174.0 181.0 L 173.0 183.5 L 171.0 185.0 L 168.5 186.0 L 166.0 186.0 L 164.0 185.5 L 163.5 185.0 " stroke="black" fill="none" stroke-width="6.0" stroke-linecap="round" stroke-linejoin="round" />
</svg>