<svg xmlns="http://www.w3.org/2000/svg" width="300" height="300" viewBox="0 0 300 300">
<path d="M 120.5 117.5 L 119.5 117.5 L 119.0 117.5 L 119.0 117.5 L 120.5 117.0 L 124.0 116.5 L 128.5 116.0 L 132.0 115.0 L 134.5 114.5 L 136.0 114.0 L 136.0 114.0 L 136.0 114.0 " stroke="black" fill="none" stroke-width="6.0" stroke-linecap="round" stroke-linejoin="round" />
<path d="M 126.0 126.0 L 125.5 126.0 L 125.0 126.0 L 125.0 126.5 L 126.0 126.5 L 128.5 126.5 L 131.0 125.5 L 133.0 124.5 L 133.5 124.0 " stroke="black" fill="none" stroke-width="6.0" stroke-linecap="round" stroke-linejoin="round" />
<path d="M 130.0 117.0 L 129.5 117.0 L 129.5 117.5 L 129.0 118.0 L 129.0 119.5 L 129.0 123.5 L 129.5 130.0 L 129.5 136.0 L 129.0 139.5 L 129.0 140.0 " stroke="black" fill="none" stroke-width="6.0" stroke-linecap="round" stroke-linejoin="round" />
<path d="M 119.5 141.5 L 119.5 141.0 L 119.5 141.0 L 119.5 140.5 L 121.0 140.5 L 125.0 140.5 L 130.0 140.0 L 134.5 138.5 L 139.5 136.0 " stroke="black" fill="none" stroke-width="6.0" stroke-linecap="round" stroke-linejoin="round" />
<path d="M 159.0 109.5 L 159.0 109.5 L 159.5 109.0 L 160.0 108.5 L 160.0 108.5 L 160.0 108.5 L 160.0 109.0 L 159.0 111.0 L 158.0 113.0 L 156.5 115.0 L 156.0 116.5 " stroke="black" fill="none" stroke-width="6.0" stroke-linecap="round" stroke-linejoin="round" />
<path d="M 147.5 123.0 L 146.0 122.5 L 145.5 121.5 L 145.5 121.5 L 146.0 122.0 L 147.0 124.0 L 148.5 128.0 L 150.0 133.0 L 150.5 137.5 L 151.0 140.0 L 151.0 139.5 " stroke="black" fill="none" stroke-width="6.0" stroke-linecap="round" stroke-linejoin="round" />
<path d="M 150.5 123.0 L 150.5 123.0 L 150.0 123.0 L 150.0 122.5 L 150.5 122.5 L 154.0 122.0 L 159.0 121.0 L 164.0 120.0 L 167.5 119.5 L 170.0 119.0 L 170.5 119.5 L 170.5 120.5 L 170.5 122.0 L 170.0 124.5 L 169.5 128.5 L 169.0 133.0 L 168.5 136.0 L 167.5 137.5 " stroke="black" fill="none" stroke-width="6.0" stroke-linecap="round" stroke-linejoin="round" />
<path d="M 153.5 130.0 L 153.5 130.0 L 153.0 130.5 L 153.0 130.5 L 155.0 130.5 L 158.0 130.5 L 161.0 130.5 L 163.0 130.0 L 164.0 129.5 " stroke="black" fill="none" stroke-width="6.0" stroke-linecap="round" stroke-linejoin="round" />
<path d="M 153.5 140.0 L 154.0 140.0 L 155.0 140.0 L 156.0 140.0 L 158.5 140.0 L 161.5 140.0 L 164.0 139.0 L 166.0 138.5 L 167.5 138.5 " stroke="black" fill="none" stroke-width="6.0" stroke-linecap="round" stroke-linejoin="round" />
<path d="M 124.0 153.0 L 124.0 153.0 L 124.0 153.0 L 124.0 153.0 L 125.0 153.0 L 128.5 153.0 L 135.0 153.0 L 144.0 153.5 L 152.5 153.5 L 159.5 153.5 L 164.0 153.5 L 166.5 154.0 " stroke="black" fill="none" stroke-width="6.0" stroke-linecap="round" stroke-linejoin="round" />
<path d="M 140.5 156.5 L 141.5 156.0 L 142.0 155.5 L 142.0 155.5 L 142.5 155.5 L 142.5 156.0 L 141.0 158.0 L 138.0 161.5 L 133.5 167.0 L 129.0 172.0 L 126.5 174.5 L 126.5 175.0 " stroke="black" fill="none" stroke-width="6.0" stroke-linecap="round" stroke-linejoin="round" />
<path d="M 139.5 167.5 L 139.5 167.0 L 139.0 166.5 L 139.0 166.0 L 139.0 167.0 L 139.5 170.5 L 140.5 174.5 L 142.0 178.5 L 143.0 180.5 L 143.5 181.0 " stroke="black" fill="none" stroke-width="6.0" stroke-linecap="round" stroke-linejoin="round" />
<path d="M 141.0 171.0 L 140.5 171.0 L 139.5 171.0 L 139.0 170.5 L 140.0 170.5 L 143.5 169.0 L 148.5 167.5 L 154.0 166.5 L 160.5 166.0 L 165.0 166.0 L 166.5 167.0 L 166.5 168.0 L 165.5 170.0 L 165.0 172.0 L 164.5 174.5 L 163.5 177.5 L 163.0 180.0 L 162.5 182.0 L 162.0 183.0 L 161.5 183.0 " stroke="black" fill="none" stroke-width="6.0" stroke-linecap="round" stroke-linejoin="round" />
<path d="M 147.5 185.5 L 147.0 185.0 L 146.0 184.5 L 146.0 184.5 L 148.5 184.5 L 153.5 184.5 L 159.5 184.0 L 164.5 183.5 L 168.5 182.5 " stroke="black" fill="none" stroke-width="6.0" stroke-linecap="round" stroke-linejoin="round" />
</svg>