<svg xmlns="http://www.w3.org/2000/svg" width="300" height="300" viewBox="0 0 300 300">
<path d="M 118.8888888888889 127.22222222222221 L 117.77777777777779 127.77777777777779 L 116.66666666666667 127.77777777777779 L 117.22222222222221 127.77777777777779 L 120.00000000000001 127.22222222222221 L 124.44444444444444 126.1111111111111 L 130.00000000000003 125.55555555555556 L 137.22222222222223 123.8888888888889 L 143.33333333333334 122.22222222222221 L 145.55555555555557 120.55555555555556 L 145.55555555555557 120.55555555555556 L 145.00000000000003 120.55555555555556 " stroke="black" fill="none" stroke-width="7.0" stroke-linecap="round" stroke-linejoin="round" />
<path d="M 128.8888888888889 127.77777777777779 L 128.8888888888889 127.77777777777779 L 129.44444444444446 126.66666666666667 L 130.00000000000003 126.66666666666667 L 130.00000000000003 126.66666666666667 L 128.8888888888889 130.00000000000003 L 125.55555555555556 136.66666666666669 L 120.55555555555556 143.33333333333334 L 117.77777777777779 146.66666666666669 L 117.22222222222221 147.22222222222223 " stroke="black" fill="none" stroke-width="7.0" stroke-linecap="round" stroke-linejoin="round" />
<path d="M 125.55555555555556 142.7777777777778 L 125.55555555555556 142.7777777777778 L 125.55555555555556 142.22222222222223 L 125.55555555555556 142.22222222222223 L 126.1111111111111 146.66666666666669 L 126.1111111111111 155.00000000000003 L 126.1111111111111 165.00000000000003 L 126.1111111111111 170.00000000000003 L 126.1111111111111 170.00000000000003 " stroke="black" fill="none" stroke-width="7.0" stroke-linecap="round" stroke-linejoin="round" />
<path d="M 127.22222222222221 149.44444444444446 L 126.1111111111111 148.8888888888889 L 125.55555555555556 148.33333333333334 L 126.1111111111111 147.7777777777778 L 128.8888888888889 146.66666666666669 L 132.7777777777778 145.00000000000003 L 136.66666666666669 143.8888888888889 L 139.44444444444446 143.33333333333334 L 141.11111111111111 144.44444444444446 L 141.66666666666669 147.7777777777778 L 141.11111111111111 152.7777777777778 L 141.11111111111111 155.55555555555557 L 140.00000000000003 158.8888888888889 L 138.8888888888889 163.33333333333334 L 138.8888888888889 165.00000000000003 L 138.8888888888889 165.00000000000003 " stroke="black" fill="none" stroke-width="7.0" stroke-linecap="round" stroke-linejoin="round" />
<path d="M 128.33333333333334 170.55555555555557 L 127.77777777777779 170.00000000000003 L 127.22222222222221 170.00000000000003 L 128.33333333333334 170.00000000000003 L 131.66666666666669 169.44444444444446 L 135.55555555555557 169.44444444444446 L 136.66666666666669 168.8888888888889 " stroke="black" fill="none" stroke-width="7.0" stroke-linecap="round" stroke-linejoin="round" />
<path d="M 160.55555555555557 105.55555555555556 L 160.55555555555557 105.55555555555556 L 160.55555555555557 105.55555555555556 L 160.55555555555557 105.55555555555556 L 160.55555555555557 106.11111111111111 L 161.11111111111111 110.55555555555556 L 161.11111111111111 120.00000000000001 L 161.11111111111111 127.77777777777779 L 161.11111111111111 129.44444444444446 " stroke="black" fill="none" stroke-width="7.0" stroke-linecap="round" stroke-linejoin="round" />
<path d="M 160.55555555555557 105.55555555555556 L 158.8888888888889 105.55555555555556 L 157.7777777777778 106.11111111111111 L 157.7777777777778 106.11111111111111 L 160.55555555555557 105.55555555555556 L 163.8888888888889 104.44444444444444 L 167.7777777777778 103.88888888888889 L 171.66666666666669 103.33333333333333 L 175.00000000000003 102.77777777777777 L 177.22222222222223 102.22222222222223 L 178.33333333333334 102.22222222222223 L 179.44444444444446 102.77777777777777 L 179.44444444444446 104.44444444444444 L 180.00000000000003 107.22222222222223 L 180.00000000000003 112.22222222222221 L 179.44444444444446 119.44444444444444 L 178.8888888888889 128.33333333333334 L 178.33333333333334 132.22222222222223 L 178.33333333333334 132.7777777777778 " stroke="black" fill="none" stroke-width="7.0" stroke-linecap="round" stroke-linejoin="round" />
<path d="M 165.55555555555557 121.66666666666667 L 163.8888888888889 120.55555555555556 L 163.33333333333334 119.44444444444444 L 165.55555555555557 118.33333333333333 L 168.33333333333334 117.22222222222221 L 171.66666666666669 116.66666666666667 L 174.44444444444446 116.66666666666667 L 175.55555555555557 116.66666666666667 L 176.11111111111114 116.66666666666667 " stroke="black" fill="none" stroke-width="7.0" stroke-linecap="round" stroke-linejoin="round" />
<path d="M 162.7777777777778 134.44444444444446 L 162.7777777777778 135.00000000000003 L 162.7777777777778 135.00000000000003 L 164.44444444444446 133.8888888888889 L 167.7777777777778 133.33333333333334 L 172.22222222222223 132.7777777777778 L 176.11111111111114 132.7777777777778 L 177.7777777777778 132.22222222222223 " stroke="black" fill="none" stroke-width="7.0" stroke-linecap="round" stroke-linejoin="round" />
<circle cx="291.6666666666667" cy="86.66666666666667" r="3.5" fill="black" />
<path d="M 162.22222222222223 146.11111111111111 L 162.7777777777778 145.00000000000003 L 163.33333333333334 143.8888888888889 L 163.8888888888889 143.33333333333334 L 163.8888888888889 144.44444444444446 L 161.11111111111111 149.44444444444446 L 157.22222222222223 156.11111111111111 L 154.44444444444446 161.11111111111111 L 153.33333333333334 161.66666666666669 " stroke="black" fill="none" stroke-width="7.0" stroke-linecap="round" stroke-linejoin="round" />
<path d="M 163.8888888888889 151.11111111111111 L 162.7777777777778 151.66666666666669 L 162.22222222222223 152.22222222222223 L 162.7777777777778 152.22222222222223 L 165.55555555555557 151.66666666666669 L 168.8888888888889 151.11111111111111 L 172.7777777777778 150.00000000000003 L 177.22222222222223 149.44444444444446 L 181.66666666666669 149.44444444444446 L 185.00000000000003 149.44444444444446 L 186.66666666666669 149.44444444444446 L 186.66666666666669 149.44444444444446 L 186.66666666666669 148.8888888888889 L 186.66666666666669 148.8888888888889 L 186.66666666666669 148.8888888888889 L 186.66666666666669 148.8888888888889 L 186.66666666666669 148.8888888888889 L 186.66666666666669 148.8888888888889 L 186.66666666666669 148.8888888888889 L 186.66666666666669 148.8888888888889 L 186.66666666666669 148.8888888888889 L 186.66666666666669 149.44444444444446 L 186.66666666666669 149.44444444444446 L 186.66666666666669 149.44444444444446 L 186.66666666666669 149.44444444444446 L 186.66666666666669 149.44444444444446 L 186.66666666666669 149.44444444444446 L 186.66666666666669 149.44444444444446 L 186.66666666666669 149.44444444444446 L 186.66666666666669 149.44444444444446 L 186.66666666666669 149.44444444444446 L 186.66666666666669 149.44444444444446 L 187.22222222222223 149.44444444444446 L 187.22222222222223 149.44444444444446 L 187.22222222222223 149.44444444444446 L 187.22222222222223 149.44444444444446 L 187.22222222222223 149.44444444444446 L 187.22222222222223 150.00000000000003 L 187.22222222222223 150.00000000000003 L 187.22222222222223 151.11111111111111 L 187.22222222222223 154.44444444444446 L 187.22222222222223 161.66666666666669 L 187.22222222222223 171.66666666666669 L 187.22222222222223 181.11111111111114 L 187.7777777777778 188.8888888888889 L 187.7777777777778 194.44444444444446 L 187.7777777777778 198.8888888888889 L 187.7777777777778 201.66666666666669 L 187.7777777777778 203.33333333333334 L 187.7777777777778 203.8888888888889 L 186.66666666666669 203.8888888888889 L 185.00000000000003 203.8888888888889 L 182.7777777777778 203.8888888888889 L 180.00000000000003 203.33333333333334 " stroke="black" fill="none" stroke-width="7.0" stroke-linecap="round" stroke-linejoin="round" />
<path d="M 171.66666666666669 162.22222222222223 L 171.11111111111114 161.66666666666669 L 170.55555555555557 161.11111111111111 L 170.55555555555557 160.55555555555557 L 170.55555555555557 161.66666666666669 L 169.44444444444446 165.55555555555557 L 167.7777777777778 171.66666666666669 L 165.55555555555557 177.7777777777778 L 163.8888888888889 180.55555555555557 L 163.33333333333334 181.11111111111114 " stroke="black" fill="none" stroke-width="7.0" stroke-linecap="round" stroke-linejoin="round" />
<path d="M 167.7777777777778 175.00000000000003 L 167.22222222222223 175.55555555555557 L 167.22222222222223 176.11111111111114 L 168.8888888888889 176.11111111111114 L 171.66666666666669 176.66666666666669 L 173.8888888888889 177.22222222222223 L 173.8888888888889 177.22222222222223 " stroke="black" fill="none" stroke-width="7.0" stroke-linecap="round" stroke-linejoin="round" />
<path d="M 155.55555555555557 168.33333333333334 L 156.11111111111111 168.33333333333334 L 156.66666666666669 167.7777777777778 L 156.66666666666669 167.7777777777778 L 157.22222222222223 167.7777777777778 L 157.22222222222223 168.33333333333334 L 157.22222222222223 170.55555555555557 L 156.11111111111111 175.55555555555557 L 155.00000000000003 182.7777777777778 L 155.00000000000003 188.8888888888889 L 155.55555555555557 191.11111111111114 L 158.33333333333334 191.11111111111114 L 160.55555555555557 189.44444444444446 L 163.8888888888889 188.8888888888889 L 167.22222222222223 188.8888888888889 L 170.00000000000003 188.8888888888889 L 172.7777777777778 188.8888888888889 L 173.33333333333334 188.8888888888889 " stroke="black" fill="none" stroke-width="7.0" stroke-linecap="round" stroke-linejoin="round" />
</svg>