<svg xmlns="http://www.w3.org/2000/svg" width="300" height="300" viewBox="0 0 300 300">
<path d="M 107.5 118.5 L 107.5 118.0 L 108.0 117.0 L 112.0 114.5 L 121.5 109.5 L 130.0 104.0 L 134.5 102.0 L 134.5 102.0 L 134.5 102.5 " stroke="black" fill="none" stroke-width="8.0" stroke-linecap="round" stroke-linejoin="round" />
<path d="M 108.5 135.5 L 108.0 135.5 L 107.5 135.5 L 108.0 135.0 L 114.0 133.5 L 124.0 132.0 L 134.5 130.0 L 141.0 128.5 L 143.0 127.5 " stroke="black" fill="none" stroke-width="8.0" stroke-linecap="round" stroke-linejoin="round" />
<path d="M 128.0 113.5 L 127.5 113.5 L 126.5 113.0 L 126.5 114.0 L 126.5 119.0 L 127.5 133.5 L 127.5 158.0 L 127.5 178.0 L 127.0 187.5 L 127.0 191.0 L 126.5 191.0 L 126.5 189.5 " stroke="black" fill="none" stroke-width="8.0" stroke-linecap="round" stroke-linejoin="round" />
<path d="M 125.0 138.0 L 124.5 137.5 L 124.0 137.5 L 123.5 137.5 L 122.5 142.0 L 118.5 153.5 L 113.5 166.5 L 110.0 174.0 L 108.0 175.0 L 108.0 173.5 " stroke="black" fill="none" stroke-width="8.0" stroke-linecap="round" stroke-linejoin="round" />
<path d="M 129.5 142.5 L 129.5 142.5 L 129.5 142.0 L 130.5 142.0 L 134.0 144.0 L 139.0 147.5 L 144.0 149.5 L 145.0 149.5 " stroke="black" fill="none" stroke-width="8.0" stroke-linecap="round" stroke-linejoin="round" />
<path d="M 164.0 104.0 L 164.0 103.5 L 164.0 102.0 L 164.5 101.0 L 165.0 101.0 L 165.0 101.5 L 163.0 105.0 L 157.0 110.5 L 151.5 116.5 L 149.0 119.5 L 149.0 119.5 " stroke="black" fill="none" stroke-width="8.0" stroke-linecap="round" stroke-linejoin="round" />
<path d="M 163.0 111.0 L 162.5 111.0 L 162.0 111.0 L 162.0 111.0 L 165.0 110.5 L 170.0 109.0 L 176.0 108.0 L 181.0 108.0 L 183.5 110.0 L 184.0 114.0 L 182.0 119.5 L 177.5 127.0 L 171.0 135.0 L 164.5 142.5 L 158.0 147.5 L 155.0 147.5 L 154.5 145.0 " stroke="black" fill="none" stroke-width="8.0" stroke-linecap="round" stroke-linejoin="round" />
<path d="M 164.0 123.0 L 162.0 122.5 L 161.0 122.0 L 161.0 122.0 L 163.5 123.5 L 167.0 125.5 L 170.5 127.0 L 172.5 128.0 " stroke="black" fill="none" stroke-width="8.0" stroke-linecap="round" stroke-linejoin="round" />
<path d="M 186.5 140.5 L 185.5 139.5 L 184.5 139.5 L 182.5 140.5 L 177.5 145.5 L 169.0 153.5 L 160.0 161.5 L 154.0 165.0 L 152.0 165.0 L 152.5 164.5 " stroke="black" fill="none" stroke-width="8.0" stroke-linecap="round" stroke-linejoin="round" />
<path d="M 179.5 150.0 L 179.5 149.5 L 179.5 149.0 L 180.5 149.0 L 182.5 149.5 L 186.5 152.5 L 190.0 158.0 L 191.0 166.5 L 187.0 175.5 L 179.5 184.0 L 169.5 191.5 L 161.5 194.5 L 156.5 193.5 L 154.5 191.0 L 154.5 190.5 " stroke="black" fill="none" stroke-width="8.0" stroke-linecap="round" stroke-linejoin="round" />
<path d="M 165.5 168.0 L 165.5 167.5 L 165.0 166.5 L 165.5 167.0 L 169.0 170.0 L 174.0 173.5 L 179.0 175.5 " stroke="black" fill="none" stroke-width="8.0" stroke-linecap="round" stroke-linejoin="round" />
</svg>