<svg xmlns="http://www.w3.org/2000/svg" width="300" height="300" viewBox="0 0 300 300">
<path d="M 108.5 99.0 L 108.5 98.5 L 108.0 98.5 L 108.0 100.5 L 110.5 104.5 L 113.5 108.5 L 116.0 110.0 L 117.0 110.0 " stroke="black" fill="none" stroke-width="8.0" stroke-linecap="round" stroke-linejoin="round" />
<path d="M 104.5 121.0 L 103.0 120.5 L 102.5 120.5 L 103.5 120.0 L 106.5 119.5 L 111.0 119.5 L 116.0 119.0 L 121.0 119.0 L 124.0 118.5 L 125.5 118.5 L 126.0 118.0 L 126.0 118.0 L 125.5 118.5 L 125.5 118.5 L 125.5 119.0 L 125.0 119.5 L 124.5 121.0 L 124.0 122.5 L 122.5 126.0 L 120.5 130.0 L 117.5 136.0 L 114.0 142.5 L 110.0 148.5 L 107.0 151.5 L 106.0 152.5 L 106.0 152.5 L 106.0 152.5 L 107.0 152.0 " stroke="black" fill="none" stroke-width="8.0" stroke-linecap="round" stroke-linejoin="round" />
<path d="M 116.0 144.0 L 116.0 143.5 L 116.0 142.5 L 116.0 142.5 L 116.5 143.0 L 117.0 147.5 L 118.0 156.0 L 118.5 169.0 L 118.0 182.0 L 116.5 192.5 L 115.5 198.0 L 116.0 200.0 L 116.5 200.0 L 117.0 198.5 " stroke="black" fill="none" stroke-width="8.0" stroke-linecap="round" stroke-linejoin="round" />
<path d="M 130.0 142.5 L 130.0 142.5 L 130.0 142.0 L 131.0 143.0 L 133.5 145.0 L 136.0 146.5 L 136.5 146.5 " stroke="black" fill="none" stroke-width="8.0" stroke-linecap="round" stroke-linejoin="round" />
<path d="M 148.5 108.5 L 148.0 108.0 L 147.0 107.5 L 147.0 107.0 L 147.0 107.5 L 148.5 112.5 L 150.0 120.0 L 151.0 125.5 L 152.0 127.5 L 152.0 127.0 " stroke="black" fill="none" stroke-width="8.0" stroke-linecap="round" stroke-linejoin="round" />
<path d="M 150.0 112.0 L 149.5 112.0 L 148.5 112.5 L 148.5 112.5 L 149.0 112.5 L 152.5 112.5 L 158.5 112.0 L 165.5 111.0 L 173.5 110.5 L 181.0 110.5 L 187.5 110.5 L 193.0 110.5 L 197.5 110.0 L 200.0 109.5 L 200.0 110.5 L 200.0 112.0 L 199.5 114.0 L 199.0 116.5 L 198.0 120.0 L 196.0 125.0 L 194.5 129.5 L 193.5 131.0 L 193.5 131.0 " stroke="black" fill="none" stroke-width="8.0" stroke-linecap="round" stroke-linejoin="round" />
<path d="M 162.5 126.0 L 162.5 125.5 L 163.0 125.0 L 164.5 124.5 L 168.5 124.5 L 175.0 124.0 L 182.5 123.5 L 187.5 122.5 " stroke="black" fill="none" stroke-width="8.0" stroke-linecap="round" stroke-linejoin="round" />
<path d="M 168.5 90.0 L 167.5 91.0 L 167.0 92.0 L 167.0 95.0 L 167.5 101.5 L 168.0 113.0 L 168.0 123.5 L 168.0 130.5 L 168.5 132.5 L 170.0 132.0 " stroke="black" fill="none" stroke-width="8.0" stroke-linecap="round" stroke-linejoin="round" />
<path d="M 183.5 99.0 L 183.5 98.5 L 183.5 98.0 L 183.5 98.0 L 183.5 98.5 L 183.5 102.5 L 183.5 111.5 L 182.0 124.5 L 180.5 132.0 L 180.5 133.5 L 180.5 133.5 " stroke="black" fill="none" stroke-width="8.0" stroke-linecap="round" stroke-linejoin="round" />
<path d="M 156.5 138.0 L 156.5 138.0 L 156.0 138.0 L 155.5 138.5 L 155.5 138.5 L 159.5 138.5 L 167.0 138.5 L 178.5 137.0 L 189.5 135.5 L 195.0 135.5 L 196.0 137.0 " stroke="black" fill="none" stroke-width="8.0" stroke-linecap="round" stroke-linejoin="round" />
<path d="M 156.5 154.5 L 156.0 154.5 L 154.5 155.5 L 153.5 156.0 L 154.0 156.0 L 159.0 156.0 L 166.5 156.0 L 175.5 155.5 L 183.5 154.0 L 188.5 153.5 L 190.0 153.5 L 189.5 154.5 " stroke="black" fill="none" stroke-width="8.0" stroke-linecap="round" stroke-linejoin="round" />
<path d="M 157.0 169.0 L 157.0 168.0 L 157.0 167.0 L 157.0 166.5 L 157.5 166.5 L 159.5 169.0 L 162.0 172.0 L 163.5 175.0 L 165.0 176.5 L 165.0 176.5 " stroke="black" fill="none" stroke-width="8.0" stroke-linecap="round" stroke-linejoin="round" />
<path d="M 161.5 172.0 L 161.0 172.0 L 160.5 171.5 L 160.0 171.0 L 161.5 170.0 L 165.5 168.5 L 170.0 167.5 L 175.0 167.0 L 179.0 166.5 L 182.5 167.5 L 184.0 168.5 L 184.5 170.0 L 184.5 172.0 L 183.5 174.0 L 182.5 176.0 L 181.5 177.5 L 181.0 177.5 " stroke="black" fill="none" stroke-width="8.0" stroke-linecap="round" stroke-linejoin="round" />
<path d="M 167.0 182.5 L 166.5 182.0 L 166.5 181.5 L 167.0 181.5 L 170.0 181.5 L 174.0 181.5 L 179.5 181.5 L 180.5 181.0 " stroke="black" fill="none" stroke-width="8.0" stroke-linecap="round" stroke-linejoin="round" />
<path d="M 158.0 191.0 L 158.0 191.0 L 158.0 191.0 L 158.0 191.0 L 159.0 191.0 L 161.0 193.0 L 163.5 196.0 L 166.5 197.5 " stroke="black" fill="none" stroke-width="8.0" stroke-linecap="round" stroke-linejoin="round" />
<path d="M 186.0 188.5 L 186.0 188.5 L 186.0 188.0 L 186.0 188.0 L 185.5 189.0 L 185.0 192.0 L 183.5 195.0 L 181.5 197.0 " stroke="black" fill="none" stroke-width="8.0" stroke-linecap="round" stroke-linejoin="round" />
<path d="M 149.5 207.5 L 149.5 207.0 L 149.5 206.0 L 152.5 205.0 L 162.5 203.5 L 176.0 203.0 L 187.5 204.5 L 195.0 206.0 L 199.0 206.5 " stroke="black" fill="none" stroke-width="8.0" stroke-linecap="round" stroke-linejoin="round" />
</svg>