<svg xmlns="http://www.w3.org/2000/svg" width="300" height="300" viewBox="0 0 300 300">
<path d="M 116.1111111111111 122.22222222222221 L 114.44444444444444 122.77777777777779 L 112.77777777777779 123.33333333333333 L 112.77777777777779 123.8888888888889 L 114.44444444444444 123.33333333333333 L 118.8888888888889 121.66666666666667 L 123.8888888888889 118.8888888888889 L 129.44444444444446 116.1111111111111 L 133.33333333333334 113.8888888888889 L 135.00000000000003 112.77777777777779 L 135.00000000000003 112.77777777777779 L 135.00000000000003 113.33333333333333 " stroke="black" fill="none" stroke-width="7.0" stroke-linecap="round" stroke-linejoin="round" />
<path d="M 111.11111111111111 141.11111111111111 L 111.11111111111111 141.11111111111111 L 111.11111111111111 140.55555555555557 L 111.11111111111111 140.00000000000003 L 113.33333333333333 140.00000000000003 L 118.8888888888889 140.00000000000003 L 126.66666666666667 139.44444444444446 L 134.44444444444446 138.8888888888889 L 138.8888888888889 139.44444444444446 " stroke="black" fill="none" stroke-width="7.0" stroke-linecap="round" stroke-linejoin="round" />
<path d="M 127.77777777777779 122.22222222222221 L 127.77777777777779 122.22222222222221 L 127.22222222222221 122.22222222222221 L 127.22222222222221 122.22222222222221 L 126.66666666666667 122.77777777777779 L 126.66666666666667 127.22222222222221 L 126.66666666666667 135.00000000000003 L 126.66666666666667 147.22222222222223 L 126.1111111111111 160.00000000000003 L 126.1111111111111 170.00000000000003 L 126.1111111111111 177.22222222222223 L 126.1111111111111 183.33333333333334 L 126.66666666666667 186.11111111111114 L 126.66666666666667 187.22222222222223 L 126.66666666666667 184.44444444444446 L 126.1111111111111 182.7777777777778 " stroke="black" fill="none" stroke-width="7.0" stroke-linecap="round" stroke-linejoin="round" />
<path d="M 125.55555555555556 141.66666666666669 L 125.55555555555556 141.11111111111111 L 125.00000000000001 140.55555555555557 L 124.44444444444444 140.55555555555557 L 123.8888888888889 142.7777777777778 L 122.77777777777779 148.33333333333334 L 118.8888888888889 156.66666666666669 L 113.33333333333333 165.00000000000003 L 110.0 168.33333333333334 L 109.44444444444444 168.33333333333334 " stroke="black" fill="none" stroke-width="7.0" stroke-linecap="round" stroke-linejoin="round" />
<path d="M 127.77777777777779 147.7777777777778 L 127.22222222222221 147.22222222222223 L 126.66666666666667 147.22222222222223 L 127.22222222222221 147.22222222222223 L 130.00000000000003 148.33333333333334 L 133.33333333333334 151.11111111111111 L 136.66666666666669 154.44444444444446 L 138.8888888888889 156.11111111111111 " stroke="black" fill="none" stroke-width="7.0" stroke-linecap="round" stroke-linejoin="round" />
<path d="M 151.11111111111111 122.22222222222221 L 151.11111111111111 122.22222222222221 L 151.11111111111111 122.22222222222221 L 150.55555555555557 122.22222222222221 L 150.55555555555557 122.22222222222221 L 150.55555555555557 122.22222222222221 L 152.7777777777778 122.22222222222221 L 156.11111111111111 122.22222222222221 L 162.22222222222223 121.66666666666667 L 168.8888888888889 121.1111111111111 L 173.8888888888889 120.55555555555556 L 175.55555555555557 120.55555555555556 L 176.11111111111114 121.1111111111111 " stroke="black" fill="none" stroke-width="7.0" stroke-linecap="round" stroke-linejoin="round" />
<path d="M 166.11111111111114 107.22222222222223 L 166.11111111111114 107.22222222222223 L 165.55555555555557 107.77777777777779 L 165.00000000000003 107.77777777777779 L 165.00000000000003 108.88888888888889 L 165.00000000000003 111.11111111111111 L 165.00000000000003 116.1111111111111 L 165.00000000000003 124.44444444444444 L 164.44444444444446 134.44444444444446 L 163.8888888888889 141.66666666666669 L 163.8888888888889 144.44444444444446 L 164.44444444444446 144.44444444444446 L 164.44444444444446 144.44444444444446 " stroke="black" fill="none" stroke-width="7.0" stroke-linecap="round" stroke-linejoin="round" />
<path d="M 152.7777777777778 131.66666666666669 L 152.7777777777778 131.66666666666669 L 153.33333333333334 131.66666666666669 L 153.33333333333334 131.66666666666669 L 153.33333333333334 132.22222222222223 L 153.33333333333334 133.8888888888889 L 151.66666666666669 136.66666666666669 L 149.44444444444446 139.44444444444446 L 148.33333333333334 141.66666666666669 L 147.22222222222223 142.22222222222223 L 146.66666666666669 142.7777777777778 L 146.66666666666669 142.22222222222223 L 146.66666666666669 141.66666666666669 L 147.7777777777778 141.11111111111111 L 148.8888888888889 141.11111111111111 L 150.00000000000003 141.11111111111111 L 152.22222222222223 141.66666666666669 L 154.44444444444446 142.7777777777778 L 156.11111111111111 143.33333333333334 L 156.66666666666669 143.33333333333334 " stroke="black" fill="none" stroke-width="7.0" stroke-linecap="round" stroke-linejoin="round" />
<path d="M 174.44444444444446 131.11111111111111 L 174.44444444444446 131.11111111111111 L 174.44444444444446 131.11111111111111 L 174.44444444444446 130.55555555555557 L 174.44444444444446 130.55555555555557 L 174.44444444444446 131.11111111111111 L 173.8888888888889 134.44444444444446 L 172.7777777777778 138.33333333333334 L 172.22222222222223 141.11111111111111 " stroke="black" fill="none" stroke-width="7.0" stroke-linecap="round" stroke-linejoin="round" />
<path d="M 173.33333333333334 138.8888888888889 L 172.7777777777778 139.44444444444446 L 172.7777777777778 139.44444444444446 L 173.8888888888889 139.44444444444446 L 176.66666666666669 140.55555555555557 L 180.55555555555557 142.22222222222223 L 182.7777777777778 144.44444444444446 L 183.33333333333334 145.00000000000003 " stroke="black" fill="none" stroke-width="7.0" stroke-linecap="round" stroke-linejoin="round" />
<path d="M 146.11111111111111 151.66666666666669 L 146.11111111111111 151.66666666666669 L 145.55555555555557 151.66666666666669 L 145.00000000000003 151.66666666666669 L 145.00000000000003 151.66666666666669 L 146.11111111111111 151.66666666666669 L 148.33333333333334 151.66666666666669 L 153.33333333333334 151.66666666666669 L 160.55555555555557 151.66666666666669 L 169.44444444444446 151.66666666666669 L 175.55555555555557 152.22222222222223 L 180.00000000000003 152.7777777777778 L 181.11111111111114 153.8888888888889 " stroke="black" fill="none" stroke-width="7.0" stroke-linecap="round" stroke-linejoin="round" />
<path d="M 148.8888888888889 164.44444444444446 L 147.7777777777778 164.44444444444446 L 147.22222222222223 164.44444444444446 L 147.22222222222223 165.55555555555557 L 147.22222222222223 170.00000000000003 L 147.7777777777778 176.11111111111114 L 148.33333333333334 181.66666666666669 L 148.33333333333334 185.55555555555557 L 148.8888888888889 186.11111111111114 L 148.8888888888889 186.11111111111114 " stroke="black" fill="none" stroke-width="7.0" stroke-linecap="round" stroke-linejoin="round" />
<path d="M 148.8888888888889 165.55555555555557 L 148.33333333333334 165.55555555555557 L 146.66666666666669 165.55555555555557 L 146.11111111111111 165.55555555555557 L 146.66666666666669 165.55555555555557 L 148.33333333333334 165.55555555555557 L 151.11111111111111 165.55555555555557 L 154.44444444444446 165.55555555555557 L 157.7777777777778 165.55555555555557 L 161.66666666666669 165.55555555555557 L 166.11111111111114 165.55555555555557 L 169.44444444444446 165.55555555555557 L 172.7777777777778 165.55555555555557 L 174.44444444444446 165.55555555555557 L 175.00000000000003 165.55555555555557 L 175.00000000000003 165.55555555555557 L 175.55555555555557 165.55555555555557 L 176.11111111111114 165.55555555555557 L 176.66666666666669 165.55555555555557 L 177.7777777777778 165.55555555555557 L 177.7777777777778 165.55555555555557 L 178.33333333333334 165.55555555555557 L 178.8888888888889 165.55555555555557 L 179.44444444444446 165.55555555555557 L 179.44444444444446 165.55555555555557 L 180.00000000000003 165.55555555555557 L 180.00000000000003 165.55555555555557 L 180.00000000000003 165.55555555555557 L 180.00000000000003 165.55555555555557 L 180.00000000000003 165.55555555555557 L 180.00000000000003 165.55555555555557 L 180.00000000000003 166.11111111111114 L 180.00000000000003 166.66666666666669 L 179.44444444444446 167.7777777777778 L 179.44444444444446 169.44444444444446 L 178.8888888888889 172.22222222222223 L 178.33333333333334 175.55555555555557 L 177.7777777777778 180.00000000000003 L 177.7777777777778 184.44444444444446 L 177.7777777777778 188.33333333333334 L 177.7777777777778 190.55555555555557 L 177.7777777777778 191.66666666666669 L 177.7777777777778 191.66666666666669 " stroke="black" fill="none" stroke-width="7.0" stroke-linecap="round" stroke-linejoin="round" />
<path d="M 158.33333333333334 175.55555555555557 L 158.33333333333334 175.55555555555557 L 158.8888888888889 175.55555555555557 L 158.8888888888889 176.11111111111114 L 158.8888888888889 177.22222222222223 L 159.44444444444446 178.8888888888889 L 159.44444444444446 180.55555555555557 L 159.44444444444446 181.66666666666669 L 159.44444444444446 181.66666666666669 " stroke="black" fill="none" stroke-width="7.0" stroke-linecap="round" stroke-linejoin="round" />
<path d="M 158.8888888888889 175.55555555555557 L 158.8888888888889 175.55555555555557 L 158.8888888888889 175.55555555555557 L 158.8888888888889 175.55555555555557 L 158.8888888888889 175.55555555555557 L 159.44444444444446 175.55555555555557 L 161.66666666666669 175.55555555555557 L 163.8888888888889 175.55555555555557 L 166.11111111111114 175.55555555555557 L 167.7777777777778 175.55555555555557 L 168.33333333333334 176.66666666666669 L 168.33333333333334 178.33333333333334 L 167.7777777777778 180.55555555555557 L 166.66666666666669 182.22222222222223 L 165.55555555555557 183.33333333333334 L 165.55555555555557 183.33333333333334 " stroke="black" fill="none" stroke-width="7.0" stroke-linecap="round" stroke-linejoin="round" />
<path d="M 161.11111111111111 183.8888888888889 L 161.11111111111111 184.44444444444446 L 160.55555555555557 185.00000000000003 L 160.00000000000003 185.55555555555557 L 160.55555555555557 185.55555555555557 L 162.22222222222223 185.55555555555557 L 163.8888888888889 185.55555555555557 L 165.00000000000003 185.00000000000003 " stroke="black" fill="none" stroke-width="7.0" stroke-linecap="round" stroke-linejoin="round" />
<path d="M 148.33333333333334 193.8888888888889 L 147.7777777777778 193.8888888888889 L 146.66666666666669 193.8888888888889 L 146.66666666666669 193.8888888888889 L 146.66666666666669 193.8888888888889 L 148.33333333333334 193.8888888888889 L 152.22222222222223 193.8888888888889 L 157.7777777777778 193.8888888888889 L 166.11111111111114 193.8888888888889 L 173.8888888888889 193.8888888888889 L 177.7777777777778 193.33333333333334 " stroke="black" fill="none" stroke-width="7.0" stroke-linecap="round" stroke-linejoin="round" />
</svg>