<svg xmlns="http://www.w3.org/2000/svg" width="300" height="300" viewBox="0 0 300 300">
<path d="M 141.0 86.0 L 141.0 86.0 L 140.0 86.0 L 140.0 86.0 L 143.5 89.0 L 149.0 95.5 L 154.5 102.5 L 156.0 105.5 L 156.0 106.0 " stroke="black" fill="none" stroke-width="9.0" stroke-linecap="round" stroke-linejoin="round" />
<path d="M 113.5 119.5 L 114.0 119.5 L 114.5 119.5 L 118.0 119.5 L 130.0 118.5 L 149.5 116.0 L 168.5 113.5 L 181.5 113.0 L 188.5 115.0 L 189.0 116.0 " stroke="black" fill="none" stroke-width="9.0" stroke-linecap="round" stroke-linejoin="round" />
<path d="M 125.0 141.5 L 124.5 141.5 L 124.5 142.0 L 125.0 144.5 L 131.0 154.0 L 140.5 168.5 L 147.0 174.5 L 149.5 175.0 " stroke="black" fill="none" stroke-width="9.0" stroke-linecap="round" stroke-linejoin="round" />
<path d="M 171.0 133.5 L 171.0 133.5 L 171.0 133.5 L 170.5 133.5 L 170.5 136.5 L 170.0 149.0 L 168.0 166.5 L 165.0 178.0 L 164.5 181.5 " stroke="black" fill="none" stroke-width="9.0" stroke-linecap="round" stroke-linejoin="round" />
<path d="M 108.0 199.0 L 109.0 199.0 L 113.5 198.0 L 123.5 196.5 L 139.0 194.5 L 157.5 193.0 L 176.0 191.5 L 191.0 190.5 L 202.5 190.5 L 208.0 190.5 " stroke="black" fill="none" stroke-width="9.0" stroke-linecap="round" stroke-linejoin="round" />
</svg>