<svg xmlns="http://www.w3.org/2000/svg" width="300" height="300" viewBox="0 0 300 300">
<path d="M 141.5 86.5 L 141.5 86.5 L 141.0 85.5 L 141.0 85.5 L 142.5 86.5 L 144.5 90.5 L 147.0 97.0 L 148.5 102.0 L 149.5 104.5 " stroke="black" fill="none" stroke-width="9.0" stroke-linecap="round" stroke-linejoin="round" />
<path d="M 114.0 109.5 L 114.0 109.0 L 114.5 108.5 L 114.5 108.5 L 114.5 111.0 L 114.0 117.5 L 112.5 125.0 L 111.0 129.0 L 110.5 129.5 " stroke="black" fill="none" stroke-width="9.0" stroke-linecap="round" stroke-linejoin="round" />
<path d="M 114.0 111.5 L 114.0 111.5 L 114.0 112.0 L 114.5 112.0 L 118.5 112.0 L 129.0 109.5 L 145.0 106.0 L 160.0 104.5 L 171.0 105.0 L 180.0 105.5 L 186.0 105.5 L 186.5 105.5 L 186.5 105.5 L 186.0 105.5 L 186.0 105.5 L 186.0 106.5 L 186.0 109.0 L 186.0 112.5 L 185.0 117.5 L 184.0 122.0 L 183.5 124.0 L 183.5 124.5 " stroke="black" fill="none" stroke-width="9.0" stroke-linecap="round" stroke-linejoin="round" />
<path d="M 138.5 118.5 L 139.5 117.5 L 140.0 117.0 L 140.5 117.0 L 140.5 118.0 L 139.0 121.5 L 136.0 129.5 L 131.0 139.5 L 128.5 144.5 L 128.0 144.0 " stroke="black" fill="none" stroke-width="9.0" stroke-linecap="round" stroke-linejoin="round" />
<path d="M 156.0 121.5 L 156.0 121.0 L 156.0 120.5 L 156.0 121.0 L 155.5 124.5 L 155.0 132.0 L 155.5 141.5 L 160.5 147.0 L 170.0 148.5 L 181.5 147.0 L 190.5 145.5 L 195.5 145.0 L 196.0 145.0 L 195.5 144.5 L 195.0 144.0 L 195.0 144.0 " stroke="black" fill="none" stroke-width="9.0" stroke-linecap="round" stroke-linejoin="round" />
<path d="M 122.5 164.0 L 122.0 164.0 L 121.5 163.5 L 121.0 163.0 L 124.0 163.0 L 131.0 162.5 L 143.0 161.5 L 156.5 161.0 L 168.0 161.0 L 174.5 162.5 L 175.5 164.5 L 175.5 164.5 " stroke="black" fill="none" stroke-width="9.0" stroke-linecap="round" stroke-linejoin="round" />
<path d="M 148.0 168.0 L 147.5 167.5 L 147.0 167.5 L 147.0 167.5 L 147.0 170.5 L 147.5 178.5 L 148.0 189.5 L 147.5 197.0 L 147.5 198.5 L 148.0 198.5 " stroke="black" fill="none" stroke-width="9.0" stroke-linecap="round" stroke-linejoin="round" />
<path d="M 120.0 203.5 L 119.5 203.5 L 119.5 203.5 L 119.0 203.5 L 119.0 203.0 L 120.5 202.5 L 125.0 202.0 L 133.0 202.0 L 147.5 202.0 L 165.5 201.5 L 179.5 200.5 L 188.0 200.5 L 191.0 201.0 L 191.0 201.0 L 191.0 201.0 L 190.5 200.0 L 190.0 198.5 L 190.0 198.5 " stroke="black" fill="none" stroke-width="9.0" stroke-linecap="round" stroke-linejoin="round" />
</svg>