<svg xmlns="http://www.w3.org/2000/svg" width="300" height="300" viewBox="0 0 300 300">
<path d="M 114.5 106.0 L 114.5 106.0 L 114.5 106.0 L 114.5 106.5 L 115.5 108.0 L 118.0 112.5 L 120.0 117.5 L 122.0 120.0 L 122.5 120.5 " stroke="black" fill="none" stroke-width="9.0" stroke-linecap="round" stroke-linejoin="round" />
<path d="M 106.5 136.5 L 106.5 135.5 L 106.5 134.0 L 108.5 132.5 L 113.5 130.5 L 120.0 129.0 L 126.0 128.5 L 130.5 128.0 L 133.5 127.5 L 134.0 127.0 " stroke="black" fill="none" stroke-width="9.0" stroke-linecap="round" stroke-linejoin="round" />
<path d="M 109.0 151.5 L 108.5 151.0 L 108.0 150.5 L 108.0 150.0 L 110.0 151.5 L 113.5 155.5 L 117.5 162.5 L 121.5 169.0 L 124.0 171.0 L 124.5 171.0 " stroke="black" fill="none" stroke-width="9.0" stroke-linecap="round" stroke-linejoin="round" />
<path d="M 131.0 143.0 L 131.0 142.5 L 131.0 142.0 L 131.0 142.0 L 131.0 142.5 L 132.0 146.0 L 132.5 151.0 L 133.0 157.5 L 132.5 162.5 L 132.0 164.5 " stroke="black" fill="none" stroke-width="9.0" stroke-linecap="round" stroke-linejoin="round" />
<path d="M 110.5 194.0 L 109.5 195.5 L 108.0 197.5 L 108.0 198.0 L 112.5 196.5 L 120.5 192.0 L 130.0 185.5 L 139.0 179.0 L 146.0 174.0 L 147.5 173.0 " stroke="black" fill="none" stroke-width="9.0" stroke-linecap="round" stroke-linejoin="round" />
<path d="M 164.0 100.5 L 163.5 99.5 L 163.0 99.0 L 163.0 99.0 L 163.0 99.0 L 163.5 103.0 L 164.5 109.0 L 165.0 115.5 L 165.5 120.5 L 165.5 121.0 " stroke="black" fill="none" stroke-width="9.0" stroke-linecap="round" stroke-linejoin="round" />
<path d="M 164.0 97.0 L 163.5 97.0 L 161.5 98.0 L 161.0 98.0 L 161.5 98.0 L 164.5 98.0 L 169.0 96.5 L 174.0 95.0 L 179.5 93.5 L 185.0 92.5 L 188.5 92.5 L 190.5 93.0 L 191.0 95.5 L 191.5 99.0 L 191.5 104.5 L 192.0 110.5 L 192.0 115.5 L 191.5 119.0 L 191.5 120.5 L 191.5 120.5 " stroke="black" fill="none" stroke-width="9.0" stroke-linecap="round" stroke-linejoin="round" />
<path d="M 170.0 112.0 L 168.0 112.0 L 168.0 112.0 L 170.0 112.0 L 174.0 111.0 L 179.0 110.5 L 183.5 109.5 L 188.0 109.0 L 190.0 108.5 " stroke="black" fill="none" stroke-width="9.0" stroke-linecap="round" stroke-linejoin="round" />
<path d="M 169.5 129.0 L 169.0 129.0 L 167.5 129.5 L 168.0 129.5 L 171.5 129.5 L 176.5 130.0 L 182.0 130.0 L 187.5 129.5 L 192.0 127.5 " stroke="black" fill="none" stroke-width="9.0" stroke-linecap="round" stroke-linejoin="round" />
<path d="M 162.5 141.5 L 162.5 141.0 L 162.5 140.5 L 162.5 140.0 L 162.5 141.0 L 162.5 144.0 L 160.5 149.0 L 157.5 155.0 L 154.5 160.0 L 153.5 161.0 " stroke="black" fill="none" stroke-width="9.0" stroke-linecap="round" stroke-linejoin="round" />
<path d="M 163.0 151.5 L 162.5 151.5 L 161.5 152.0 L 161.5 152.0 L 164.0 152.0 L 169.0 151.0 L 176.0 149.5 L 185.5 148.5 L 193.5 147.5 L 198.5 147.0 L 200.5 147.0 L 201.0 147.0 L 201.0 147.0 L 200.5 147.5 L 200.5 147.5 L 200.5 147.5 L 200.5 147.5 L 200.5 147.5 L 200.5 147.5 L 200.5 148.0 L 200.5 149.0 L 200.5 150.0 L 200.5 152.5 L 200.5 156.0 L 200.5 161.5 L 201.0 169.0 L 201.0 177.0 L 201.5 184.5 L 201.5 191.5 L 201.5 196.5 L 201.0 201.5 L 200.0 205.0 L 199.5 207.0 L 199.0 208.5 L 198.0 209.5 L 196.5 210.0 L 195.0 210.5 L 193.0 210.0 L 191.5 208.0 " stroke="black" fill="none" stroke-width="9.0" stroke-linecap="round" stroke-linejoin="round" />
<path d="M 178.5 163.0 L 178.5 163.0 L 179.0 162.5 L 179.5 162.5 L 179.5 162.5 L 179.5 163.5 L 179.0 168.0 L 177.5 176.0 L 175.5 183.5 L 174.5 187.5 L 173.5 188.0 L 173.5 187.0 " stroke="black" fill="none" stroke-width="9.0" stroke-linecap="round" stroke-linejoin="round" />
<path d="M 181.0 175.0 L 181.0 175.0 L 181.0 175.0 L 181.0 175.0 L 181.0 175.5 L 181.5 176.5 L 183.0 178.5 L 185.0 180.0 L 186.0 180.0 " stroke="black" fill="none" stroke-width="9.0" stroke-linecap="round" stroke-linejoin="round" />
<path d="M 163.5 170.0 L 163.5 170.0 L 163.5 169.5 L 163.5 169.5 L 163.5 169.5 L 164.0 169.5 L 164.0 170.0 L 164.0 171.5 L 163.5 174.5 L 163.0 179.0 L 162.0 185.0 L 161.5 190.5 L 161.0 194.0 L 160.5 195.5 L 160.0 197.0 L 159.5 198.5 L 159.5 199.0 L 159.0 199.5 L 159.0 200.0 L 159.0 200.5 L 159.0 200.5 L 159.0 201.0 L 159.5 201.0 L 160.0 201.0 L 160.5 201.0 L 161.0 201.0 L 161.5 201.0 L 162.5 201.0 L 163.5 201.0 L 164.5 200.5 L 166.5 200.5 L 168.5 200.0 L 171.0 199.0 L 174.5 198.5 L 178.0 198.0 L 181.5 197.0 L 184.0 197.0 L 185.0 197.5 L 185.5 198.0 " stroke="black" fill="none" stroke-width="9.0" stroke-linecap="round" stroke-linejoin="round" />
</svg>