<svg xmlns="http://www.w3.org/2000/svg" width="300" height="300" viewBox="0 0 300 300">
<path d="M 122.0 100.5 L 122.0 100.0 L 122.0 98.5 L 122.0 97.5 L 122.5 97.0 L 122.5 97.0 L 123.0 97.0 L 122.5 100.5 L 120.0 107.5 L 116.0 116.0 L 112.5 121.5 L 111.5 122.0 " stroke="black" fill="none" stroke-width="7.0" stroke-linecap="round" stroke-linejoin="round" />
<path d="M 124.5 111.5 L 124.0 112.0 L 122.5 113.0 L 122.0 113.0 L 124.0 112.5 L 128.5 110.0 L 133.0 107.5 L 137.0 106.0 L 139.5 105.5 L 140.0 106.5 L 140.0 107.5 " stroke="black" fill="none" stroke-width="7.0" stroke-linecap="round" stroke-linejoin="round" />
<path d="M 127.5 121.5 L 127.0 121.5 L 126.5 121.0 L 126.5 121.0 L 129.0 122.0 L 132.5 123.5 L 136.0 124.0 " stroke="black" fill="none" stroke-width="7.0" stroke-linecap="round" stroke-linejoin="round" />
<path d="M 156.0 101.5 L 156.5 100.5 L 157.0 100.0 L 157.5 99.5 L 157.5 100.5 L 155.0 105.5 L 151.5 113.0 L 148.0 119.5 L 146.5 122.5 L 146.5 122.5 " stroke="black" fill="none" stroke-width="7.0" stroke-linecap="round" stroke-linejoin="round" />
<path d="M 154.5 111.5 L 154.5 112.0 L 154.5 112.5 L 156.5 112.5 L 161.0 110.5 L 166.5 107.5 L 171.5 105.5 L 174.5 104.0 L 175.5 104.0 L 175.5 104.0 " stroke="black" fill="none" stroke-width="7.0" stroke-linecap="round" stroke-linejoin="round" />
<path d="M 162.5 118.0 L 161.5 117.5 L 161.5 117.5 L 164.0 118.0 L 167.5 119.0 L 170.5 120.5 L 172.0 121.5 " stroke="black" fill="none" stroke-width="7.0" stroke-linecap="round" stroke-linejoin="round" />
<path d="M 144.5 131.0 L 144.5 131.5 L 144.5 132.0 L 144.5 132.0 L 145.0 133.0 L 142.5 137.0 L 135.5 144.5 L 127.0 150.5 L 121.5 151.5 L 120.0 151.0 L 120.0 150.0 " stroke="black" fill="none" stroke-width="7.0" stroke-linecap="round" stroke-linejoin="round" />
<path d="M 146.0 133.0 L 145.5 133.0 L 144.5 133.5 L 144.0 134.0 L 146.5 134.0 L 152.5 135.5 L 162.0 139.0 L 172.5 143.0 L 179.0 144.5 L 181.0 144.5 L 181.0 144.5 " stroke="black" fill="none" stroke-width="7.0" stroke-linecap="round" stroke-linejoin="round" />
<path d="M 141.5 154.5 L 141.0 154.5 L 140.5 155.0 L 142.0 155.0 L 147.0 155.0 L 153.5 154.0 L 160.0 152.5 L 164.5 152.0 " stroke="black" fill="none" stroke-width="7.0" stroke-linecap="round" stroke-linejoin="round" />
<path d="M 139.0 169.5 L 139.0 169.0 L 139.0 168.0 L 139.0 167.0 L 139.0 167.0 L 139.0 170.0 L 139.0 177.0 L 139.0 183.5 L 139.5 187.5 L 140.0 188.5 " stroke="black" fill="none" stroke-width="7.0" stroke-linecap="round" stroke-linejoin="round" />
<path d="M 138.0 170.0 L 136.5 170.5 L 135.0 170.5 L 135.5 170.5 L 140.0 170.5 L 147.5 168.5 L 156.5 166.0 L 165.0 165.0 L 170.5 165.5 L 171.5 168.0 L 171.5 171.0 L 169.5 176.0 L 167.5 181.0 L 165.0 184.5 L 163.5 186.0 L 163.0 186.0 " stroke="black" fill="none" stroke-width="7.0" stroke-linecap="round" stroke-linejoin="round" />
<path d="M 143.0 192.5 L 143.0 192.5 L 143.0 192.5 L 144.0 192.5 L 151.0 191.0 L 161.0 189.5 L 167.5 189.0 " stroke="black" fill="none" stroke-width="7.0" stroke-linecap="round" stroke-linejoin="round" />
</svg>