<svg xmlns="http://www.w3.org/2000/svg" width="300" height="300" viewBox="0 0 300 300">
<path d="M 131.5 99.5 L 131.5 99.0 L 132.5 99.0 L 132.5 98.5 L 132.5 100.0 L 132.5 103.5 L 133.0 107.5 L 133.5 109.5 L 134.0 109.5 " stroke="black" fill="none" stroke-width="6.0" stroke-linecap="round" stroke-linejoin="round" />
<path d="M 132.5 107.0 L 132.5 107.5 L 132.5 107.5 L 132.5 108.0 L 134.5 107.5 L 136.0 107.0 L 138.0 107.0 " stroke="black" fill="none" stroke-width="6.0" stroke-linecap="round" stroke-linejoin="round" />
<path d="M 123.5 112.0 L 123.5 112.0 L 123.5 112.0 L 123.0 112.0 L 122.5 112.5 L 122.5 115.0 L 122.0 119.0 L 122.0 122.5 L 122.0 123.0 " stroke="black" fill="none" stroke-width="6.0" stroke-linecap="round" stroke-linejoin="round" />
<path d="M 125.5 117.0 L 125.0 117.0 L 125.0 117.0 L 126.0 117.0 L 129.0 117.0 L 132.5 117.0 L 136.0 117.0 L 139.0 117.0 L 141.0 117.0 L 141.5 117.0 L 141.5 117.0 L 141.5 117.0 L 141.5 117.5 L 141.0 119.0 L 140.0 120.5 L 138.5 124.0 L 136.5 128.5 L 133.5 134.5 L 131.0 138.5 L 130.5 139.5 L 130.0 140.0 " stroke="black" fill="none" stroke-width="6.0" stroke-linecap="round" stroke-linejoin="round" />
<path d="M 130.0 127.0 L 129.5 127.0 L 129.0 127.5 L 129.0 127.5 L 130.5 127.5 L 132.5 127.5 L 133.5 127.5 " stroke="black" fill="none" stroke-width="6.0" stroke-linecap="round" stroke-linejoin="round" />
<path d="M 153.0 106.0 L 153.5 106.0 L 153.5 106.0 L 154.0 106.0 L 155.5 106.0 L 158.5 105.5 L 162.5 105.5 L 166.0 105.5 L 167.5 105.5 L 168.0 106.5 L 167.0 108.5 L 164.5 113.5 L 160.5 121.5 L 157.0 129.5 L 153.5 136.0 L 151.5 139.5 L 151.0 139.5 L 151.0 139.0 " stroke="black" fill="none" stroke-width="6.0" stroke-linecap="round" stroke-linejoin="round" />
<path d="M 151.0 115.5 L 151.0 116.0 L 150.5 117.0 L 151.0 118.0 L 155.0 120.5 L 161.0 124.5 L 168.0 129.0 L 172.5 132.5 L 174.5 135.0 L 174.5 137.0 " stroke="black" fill="none" stroke-width="6.0" stroke-linecap="round" stroke-linejoin="round" />
<path d="M 128.0 161.0 L 128.0 161.0 L 129.0 160.5 L 130.5 160.5 L 134.5 160.0 L 143.5 159.0 L 154.0 158.0 L 163.0 157.0 L 168.0 156.0 L 169.0 156.0 L 167.5 155.0 " stroke="black" fill="none" stroke-width="6.0" stroke-linecap="round" stroke-linejoin="round" />
<path d="M 143.5 144.0 L 143.0 143.0 L 143.0 142.5 L 143.0 142.5 L 143.5 144.5 L 145.5 151.5 L 148.0 163.0 L 150.0 175.0 L 151.0 181.0 L 151.0 182.0 " stroke="black" fill="none" stroke-width="6.0" stroke-linecap="round" stroke-linejoin="round" />
<path d="M 132.5 148.5 L 132.5 149.0 L 132.5 150.0 L 133.0 151.0 L 134.0 151.5 L 136.5 152.0 L 139.0 151.5 " stroke="black" fill="none" stroke-width="6.0" stroke-linecap="round" stroke-linejoin="round" />
<path d="M 156.0 145.5 L 156.0 145.5 L 156.0 145.0 L 156.5 145.0 L 156.5 145.5 L 156.5 147.0 L 155.5 149.0 L 155.0 150.0 " stroke="black" fill="none" stroke-width="6.0" stroke-linecap="round" stroke-linejoin="round" />
<path d="M 134.5 169.0 L 135.5 168.5 L 136.5 168.0 L 137.0 167.5 L 138.0 167.5 L 138.0 167.5 L 138.0 168.5 L 137.0 171.5 L 134.5 175.0 L 132.0 178.0 L 131.0 178.5 " stroke="black" fill="none" stroke-width="6.0" stroke-linecap="round" stroke-linejoin="round" />
<path d="M 157.0 167.5 L 157.0 167.5 L 157.5 167.5 L 158.0 167.5 L 160.0 168.0 L 164.0 170.5 L 168.5 173.0 L 172.0 175.0 L 172.5 175.0 " stroke="black" fill="none" stroke-width="6.0" stroke-linecap="round" stroke-linejoin="round" />
</svg>