<svg xmlns="http://www.w3.org/2000/svg" width="300" height="300" viewBox="0 0 300 300">
<path d="M 116.5 100.5 L 117.0 100.0 L 117.0 98.5 L 117.0 98.0 L 117.0 98.0 L 117.0 98.5 L 117.0 102.0 L 115.0 109.5 L 111.5 119.5 L 108.0 126.0 L 106.0 127.5 " stroke="black" fill="none" stroke-width="7.0" stroke-linecap="round" stroke-linejoin="round" />
<path d="M 118.0 112.0 L 118.0 113.0 L 118.0 113.0 L 121.0 112.0 L 127.0 109.0 L 133.5 105.5 L 138.0 103.0 L 141.0 102.5 L 142.0 102.5 " stroke="black" fill="none" stroke-width="7.0" stroke-linecap="round" stroke-linejoin="round" />
<path d="M 125.0 120.0 L 125.0 119.5 L 125.5 119.5 L 127.0 120.0 L 130.5 122.5 L 133.5 125.0 L 135.5 126.0 " stroke="black" fill="none" stroke-width="7.0" stroke-linecap="round" stroke-linejoin="round" />
<path d="M 159.5 101.0 L 159.5 101.0 L 160.0 100.0 L 160.0 100.0 L 160.0 101.0 L 158.5 106.5 L 156.0 114.0 L 153.0 122.0 L 150.5 126.0 L 150.0 126.5 " stroke="black" fill="none" stroke-width="7.0" stroke-linecap="round" stroke-linejoin="round" />
<path d="M 157.0 115.0 L 157.5 115.0 L 158.5 115.0 L 160.5 113.5 L 165.0 111.0 L 171.0 108.0 L 175.5 107.0 L 177.5 106.5 L 177.5 106.5 L 177.5 106.5 " stroke="black" fill="none" stroke-width="7.0" stroke-linecap="round" stroke-linejoin="round" />
<path d="M 166.5 120.0 L 166.5 120.0 L 166.0 120.0 L 166.0 120.0 L 167.0 121.0 L 169.5 123.0 L 172.5 124.5 L 175.0 125.5 L 175.5 125.5 " stroke="black" fill="none" stroke-width="7.0" stroke-linecap="round" stroke-linejoin="round" />
<path d="M 110.0 139.5 L 110.5 139.5 L 111.5 139.5 L 113.5 138.5 L 117.0 138.0 L 122.5 137.5 L 127.5 137.0 L 131.5 137.0 L 133.5 137.0 L 133.5 138.0 L 133.5 139.0 L 133.0 140.5 L 132.5 142.5 L 132.0 145.5 L 131.5 149.0 L 131.0 153.5 L 130.5 157.5 L 130.5 159.5 L 130.0 160.0 " stroke="black" fill="none" stroke-width="7.0" stroke-linecap="round" stroke-linejoin="round" />
<path d="M 115.0 150.5 L 115.0 150.5 L 114.5 151.5 L 114.5 151.5 L 117.0 151.5 L 121.0 150.5 L 125.5 149.0 L 129.0 148.0 " stroke="black" fill="none" stroke-width="7.0" stroke-linecap="round" stroke-linejoin="round" />
<path d="M 116.5 161.0 L 117.0 161.0 L 118.0 161.0 L 119.5 161.0 L 122.5 161.0 L 124.5 160.5 " stroke="black" fill="none" stroke-width="7.0" stroke-linecap="round" stroke-linejoin="round" />
<path d="M 109.5 143.0 L 109.5 143.0 L 109.5 142.0 L 109.5 142.0 L 109.5 142.0 L 109.5 145.5 L 110.0 155.5 L 110.5 173.5 L 111.0 190.5 L 111.5 197.5 L 111.5 198.0 L 111.5 197.5 " stroke="black" fill="none" stroke-width="7.0" stroke-linecap="round" stroke-linejoin="round" />
<path d="M 151.0 135.5 L 151.0 135.5 L 150.5 135.5 L 150.0 137.0 L 149.0 142.0 L 148.5 150.5 L 148.0 156.0 L 148.5 156.5 L 148.5 156.0 " stroke="black" fill="none" stroke-width="7.0" stroke-linecap="round" stroke-linejoin="round" />
<path d="M 149.0 142.0 L 149.0 141.5 L 148.5 141.5 L 148.5 141.0 L 148.5 140.5 L 151.0 139.5 L 155.0 138.0 L 160.5 136.5 L 166.0 136.0 L 170.0 136.0 L 172.0 137.0 L 172.0 138.0 L 172.0 139.5 L 172.0 141.5 L 172.5 144.0 L 173.5 148.0 L 174.5 153.5 L 175.5 161.0 L 176.0 170.5 L 176.0 180.5 L 176.0 189.0 L 176.0 195.5 L 176.0 200.0 L 175.0 201.0 L 173.0 201.0 L 170.0 197.5 L 166.5 193.5 L 165.0 192.0 " stroke="black" fill="none" stroke-width="7.0" stroke-linecap="round" stroke-linejoin="round" />
<path d="M 152.0 147.0 L 152.0 147.5 L 151.5 147.5 L 151.5 148.0 L 153.0 148.0 L 157.0 147.5 L 161.5 146.0 L 165.0 145.5 L 165.5 145.5 " stroke="black" fill="none" stroke-width="7.0" stroke-linecap="round" stroke-linejoin="round" />
<path d="M 152.5 157.5 L 152.5 158.0 L 152.5 158.5 L 153.0 158.5 L 155.0 158.5 L 159.5 157.5 L 164.0 156.5 L 165.0 156.0 " stroke="black" fill="none" stroke-width="7.0" stroke-linecap="round" stroke-linejoin="round" />
<path d="M 132.0 171.0 L 132.0 171.0 L 132.0 171.0 L 132.0 171.0 L 132.0 172.0 L 132.0 178.0 L 132.5 185.5 L 132.5 190.0 L 132.5 190.5 " stroke="black" fill="none" stroke-width="7.0" stroke-linecap="round" stroke-linejoin="round" />
<path d="M 132.5 172.5 L 132.5 172.5 L 132.0 172.5 L 132.0 172.5 L 132.0 172.5 L 133.0 172.5 L 137.0 171.0 L 143.0 169.5 L 148.0 168.5 L 151.5 168.5 L 153.0 168.5 L 153.0 168.5 L 153.0 169.5 L 153.5 171.0 L 154.0 173.0 L 154.0 176.0 L 154.0 179.5 L 153.5 183.5 L 152.5 186.0 L 151.5 187.5 " stroke="black" fill="none" stroke-width="7.0" stroke-linecap="round" stroke-linejoin="round" />
<path d="M 135.5 182.0 L 135.5 182.0 L 135.5 181.5 L 136.0 181.0 L 139.0 180.0 L 142.5 178.5 L 146.0 178.5 L 148.0 178.5 " stroke="black" fill="none" stroke-width="7.0" stroke-linecap="round" stroke-linejoin="round" />
<path d="M 134.5 190.5 L 135.0 190.5 L 136.0 191.0 L 139.0 191.0 L 145.0 190.0 L 150.5 188.5 L 153.0 188.0 " stroke="black" fill="none" stroke-width="7.0" stroke-linecap="round" stroke-linejoin="round" />
</svg>