<svg xmlns="http://www.w3.org/2000/svg" width="300" height="300" viewBox="0 0 300 300">
<path d="M 122.5 111.5 L 123.0 110.0 L 123.5 109.0 L 123.5 107.5 L 123.5 106.0 L 124.0 106.0 L 124.0 106.0 L 124.0 108.5 L 123.0 115.5 L 121.0 123.5 L 118.5 131.0 L 117.0 135.5 L 116.0 136.5 L 115.5 136.5 L 115.5 136.5 L 115.5 136.0 L 115.5 136.0 L 115.5 135.5 L 116.0 135.5 L 117.0 135.0 L 118.5 134.5 L 120.0 134.5 L 122.5 133.5 L 125.5 132.5 L 128.0 130.0 L 129.0 129.0 L 129.5 128.5 L 129.5 128.0 " stroke="black" fill="none" stroke-width="7.0" stroke-linecap="round" stroke-linejoin="round" />
<path d="M 132.0 119.0 L 132.0 119.0 L 132.5 118.5 L 132.5 118.0 L 132.5 117.5 L 132.5 117.5 L 132.5 119.0 L 132.5 122.0 L 131.0 126.5 L 129.5 133.0 L 126.5 141.5 L 124.0 149.5 L 121.0 155.5 L 117.5 159.5 L 115.5 162.5 L 114.0 164.0 L 114.0 164.5 L 114.0 164.5 L 114.0 164.0 L 115.0 163.5 L 115.5 163.0 L 117.0 162.5 L 118.5 161.5 L 121.0 160.5 L 125.0 159.5 L 129.5 158.5 L 133.0 157.5 L 134.5 157.5 L 135.0 158.0 L 134.5 158.0 " stroke="black" fill="none" stroke-width="7.0" stroke-linecap="round" stroke-linejoin="round" />
<path d="M 133.5 148.0 L 133.5 148.0 L 133.5 147.0 L 134.0 146.5 L 134.0 147.0 L 135.0 151.0 L 137.0 157.0 L 138.5 162.0 L 140.0 165.0 L 140.5 166.0 " stroke="black" fill="none" stroke-width="7.0" stroke-linecap="round" stroke-linejoin="round" />
<path d="M 115.5 180.0 L 116.0 180.0 L 116.5 180.0 L 117.0 180.0 L 117.0 180.0 L 117.0 182.0 L 116.0 186.0 L 115.0 190.0 L 114.0 192.0 " stroke="black" fill="none" stroke-width="7.0" stroke-linecap="round" stroke-linejoin="round" />
<path d="M 127.0 178.0 L 127.0 178.0 L 126.5 178.0 L 126.0 178.5 L 126.5 180.0 L 127.5 183.5 L 129.0 186.0 L 130.0 188.0 " stroke="black" fill="none" stroke-width="7.0" stroke-linecap="round" stroke-linejoin="round" />
<path d="M 138.0 176.5 L 138.0 176.5 L 138.0 177.0 L 138.5 177.5 L 140.0 178.0 L 142.0 179.5 L 144.0 181.0 L 145.0 181.5 " stroke="black" fill="none" stroke-width="7.0" stroke-linecap="round" stroke-linejoin="round" />
<path d="M 151.0 111.5 L 151.0 111.5 L 151.0 111.0 L 151.0 111.0 L 151.0 110.5 L 151.0 110.5 L 151.0 113.0 L 151.5 121.5 L 151.5 137.0 L 152.0 151.5 L 152.5 157.0 L 152.5 157.5 L 152.5 154.5 " stroke="black" fill="none" stroke-width="7.0" stroke-linecap="round" stroke-linejoin="round" />
<path d="M 154.0 108.0 L 153.0 108.0 L 151.5 108.5 L 151.0 108.5 L 151.0 108.5 L 152.5 109.0 L 156.0 109.0 L 160.0 109.0 L 165.0 109.0 L 170.0 109.0 L 174.0 109.0 L 175.5 109.5 L 175.5 109.5 L 175.5 110.0 L 175.5 110.0 L 175.5 110.5 L 175.5 111.5 L 175.5 112.5 L 175.5 114.5 L 175.5 118.0 L 175.5 123.0 L 175.0 130.0 L 174.5 138.5 L 174.0 147.0 L 173.5 154.5 L 173.5 159.0 L 173.5 162.0 L 173.5 163.5 L 173.5 163.5 L 173.5 161.5 " stroke="black" fill="none" stroke-width="7.0" stroke-linecap="round" stroke-linejoin="round" />
<path d="M 158.0 128.5 L 158.0 129.0 L 157.5 129.0 L 157.5 129.0 L 157.5 129.0 L 160.0 128.5 L 163.5 127.5 L 166.5 127.0 L 169.0 126.5 L 171.0 126.5 " stroke="black" fill="none" stroke-width="7.0" stroke-linecap="round" stroke-linejoin="round" />
<path d="M 155.5 146.5 L 155.5 146.5 L 155.5 146.5 L 156.0 146.5 L 157.5 146.5 L 160.5 146.0 L 164.5 146.0 L 169.0 145.5 L 172.0 145.5 " stroke="black" fill="none" stroke-width="7.0" stroke-linecap="round" stroke-linejoin="round" />
<path d="M 148.5 168.0 L 148.0 167.5 L 147.5 167.5 L 147.5 167.5 L 148.5 167.5 L 151.5 167.5 L 156.0 168.0 L 163.5 168.0 L 173.5 167.0 L 182.5 165.5 L 186.5 165.0 L 187.0 165.0 " stroke="black" fill="none" stroke-width="7.0" stroke-linecap="round" stroke-linejoin="round" />
</svg>