<svg xmlns="http://www.w3.org/2000/svg" width="300" height="300" viewBox="0 0 300 300">
<path d="M 123.5 107.0 L 122.5 107.0 L 122.0 107.0 L 121.0 107.0 L 121.0 107.0 L 121.5 107.0 L 124.0 106.5 L 127.5 106.0 L 131.0 105.0 L 134.5 104.5 L 136.5 104.5 L 137.0 104.5 " stroke="black" fill="none" stroke-width="7.0" stroke-linecap="round" stroke-linejoin="round" />
<path d="M 127.0 118.5 L 126.0 119.0 L 125.0 119.5 L 124.5 119.5 L 124.5 119.0 L 126.5 118.5 L 129.5 118.0 L 132.0 118.0 L 135.0 117.5 L 137.5 117.5 L 138.5 117.5 " stroke="black" fill="none" stroke-width="7.0" stroke-linecap="round" stroke-linejoin="round" />
<path d="M 122.5 129.5 L 122.5 130.5 L 122.5 131.0 L 122.5 131.0 L 124.5 131.0 L 128.0 130.0 L 132.5 129.5 L 136.5 128.5 L 139.5 127.5 L 142.0 126.5 " stroke="black" fill="none" stroke-width="7.0" stroke-linecap="round" stroke-linejoin="round" />
<path d="M 131.0 98.0 L 130.5 98.5 L 130.0 99.0 L 129.5 99.0 L 129.5 99.5 L 129.5 100.0 L 129.5 101.0 L 129.5 103.0 L 129.5 107.5 L 130.0 115.5 L 131.5 125.0 L 132.5 133.5 L 133.5 140.0 L 134.0 143.5 L 134.0 144.5 L 134.0 145.0 " stroke="black" fill="none" stroke-width="7.0" stroke-linecap="round" stroke-linejoin="round" />
<path d="M 155.5 106.5 L 155.5 106.5 L 155.5 106.5 L 155.5 106.5 L 156.0 107.0 L 156.0 107.5 L 156.0 111.0 L 155.5 119.0 L 154.0 127.5 L 153.0 133.0 L 153.0 135.0 L 153.0 132.5 " stroke="black" fill="none" stroke-width="7.0" stroke-linecap="round" stroke-linejoin="round" />
<path d="M 151.5 102.5 L 151.0 102.5 L 149.5 102.5 L 149.0 102.5 L 148.5 102.5 L 148.5 102.5 L 150.0 102.5 L 153.0 102.5 L 157.0 102.0 L 161.5 102.0 L 166.5 101.5 L 169.5 101.5 L 171.0 102.0 L 172.0 102.5 L 172.0 104.0 L 172.0 105.5 L 172.0 108.0 L 172.0 110.5 L 172.0 114.5 L 171.5 119.0 L 171.0 123.5 L 171.0 127.5 L 170.0 130.5 L 169.0 133.0 L 167.5 134.0 L 165.5 134.0 L 164.5 133.5 L 163.5 131.5 L 163.5 130.5 " stroke="black" fill="none" stroke-width="7.0" stroke-linecap="round" stroke-linejoin="round" />
<path d="M 148.0 143.5 L 148.0 143.5 L 148.0 143.5 L 147.5 143.5 L 147.5 143.5 L 147.0 143.0 L 147.0 143.0 L 147.0 143.0 L 147.0 144.5 L 146.5 147.5 L 144.5 152.5 L 141.0 158.5 L 138.0 162.0 L 135.5 164.0 L 133.5 164.5 L 132.0 165.0 L 131.0 165.0 L 131.0 165.0 L 131.0 165.0 L 131.0 165.0 L 131.0 165.0 L 131.0 165.0 L 131.5 165.0 L 132.0 165.0 L 132.5 165.0 L 133.0 165.0 L 134.0 165.0 L 136.0 165.0 L 139.5 164.5 L 144.5 164.0 L 148.5 163.5 L 151.5 162.5 L 153.0 162.0 L 153.5 162.0 " stroke="black" fill="none" stroke-width="7.0" stroke-linecap="round" stroke-linejoin="round" />
<path d="M 157.5 149.0 L 157.5 149.0 L 157.5 149.5 L 157.5 149.5 L 157.5 149.5 L 157.5 150.0 L 157.5 150.5 L 157.0 152.5 L 155.0 157.0 L 151.5 163.0 L 146.5 168.5 L 141.5 173.5 L 137.0 177.0 L 133.5 179.5 L 132.0 180.5 L 131.0 180.5 L 131.0 180.5 L 131.0 180.5 L 131.0 180.5 L 131.0 180.5 L 131.5 180.5 L 133.0 180.0 L 135.5 180.0 L 138.5 179.5 L 142.5 178.5 L 147.5 178.0 L 153.5 176.5 L 158.5 175.5 L 162.0 175.0 L 164.0 175.0 L 165.0 175.0 L 166.5 175.0 " stroke="black" fill="none" stroke-width="7.0" stroke-linecap="round" stroke-linejoin="round" />
<path d="M 168.0 166.0 L 167.0 166.0 L 166.0 165.5 L 165.5 165.5 L 165.5 165.5 L 165.5 166.5 L 167.0 169.5 L 169.5 173.0 L 172.0 176.5 L 174.0 178.0 L 175.5 178.5 L 175.5 178.5 " stroke="black" fill="none" stroke-width="7.0" stroke-linecap="round" stroke-linejoin="round" />
<path d="M 151.0 189.0 L 151.0 188.0 L 151.0 187.5 L 151.0 187.0 L 151.0 186.5 L 151.0 186.5 L 151.0 188.5 L 151.5 193.0 L 152.5 198.5 L 153.0 204.0 L 153.0 207.5 L 153.0 209.0 L 152.0 209.5 L 150.0 209.5 L 148.0 208.0 L 145.5 206.5 L 144.0 204.5 L 143.5 203.5 " stroke="black" fill="none" stroke-width="7.0" stroke-linecap="round" stroke-linejoin="round" />
<path d="M 138.0 194.0 L 138.0 194.0 L 138.0 194.0 L 137.5 194.5 L 137.0 195.0 L 135.5 196.5 L 133.0 198.5 L 130.5 200.5 L 129.5 202.0 L 129.5 202.5 " stroke="black" fill="none" stroke-width="7.0" stroke-linecap="round" stroke-linejoin="round" />
<path d="M 168.0 191.0 L 167.0 191.0 L 166.5 191.5 L 166.5 192.0 L 169.5 194.0 L 174.0 196.0 L 178.5 197.5 L 182.0 198.0 L 183.5 198.0 " stroke="black" fill="none" stroke-width="7.0" stroke-linecap="round" stroke-linejoin="round" />
</svg>