<svg xmlns="http://www.w3.org/2000/svg" width="300" height="300" viewBox="0 0 300 300">
<path d="M 109.0 93.5 L 109.0 93.5 L 109.0 93.0 L 109.0 93.0 L 109.0 93.0 L 109.0 94.5 L 108.5 100.5 L 105.0 112.5 L 100.0 125.5 L 96.0 132.0 L 95.0 133.0 L 95.0 133.0 L 95.0 132.5 L 95.5 132.5 L 97.0 132.5 L 98.5 132.0 L 101.0 131.5 L 104.0 130.5 L 108.0 128.5 L 112.5 126.0 L 116.0 123.5 L 118.0 121.5 L 118.0 120.5 L 118.0 120.5 L 118.0 120.0 L 118.0 120.0 L 118.0 120.0 L 118.0 119.5 L 118.0 119.5 L 118.0 119.0 L 118.5 118.5 L 118.5 118.0 L 119.0 117.0 L 119.0 116.0 L 119.5 114.5 L 120.0 113.5 L 120.0 112.5 L 120.5 111.5 L 120.5 111.0 L 120.5 110.5 L 120.5 110.0 L 120.5 110.0 L 120.5 110.0 L 120.5 110.5 L 120.5 111.5 L 120.0 113.5 L 119.0 117.0 L 117.5 122.5 L 114.5 131.0 L 110.5 139.0 L 106.0 147.0 L 102.0 154.0 L 98.0 159.0 L 95.0 162.5 L 94.0 163.5 L 94.0 163.5 L 94.0 163.5 L 94.5 163.0 L 94.5 163.0 L 95.0 162.5 L 96.0 161.5 L 98.5 160.0 L 102.5 158.5 L 108.5 157.0 L 115.5 155.5 L 122.0 154.5 L 124.5 154.5 L 124.5 154.5 L 123.0 154.0 L 122.5 153.5 " stroke="black" fill="none" stroke-width="9.0" stroke-linecap="round" stroke-linejoin="round" />
<path d="M 122.5 143.5 L 122.5 143.0 L 122.0 143.0 L 122.0 144.0 L 124.0 147.5 L 127.0 155.5 L 130.5 164.0 L 132.0 168.0 L 132.0 168.5 " stroke="black" fill="none" stroke-width="9.0" stroke-linecap="round" stroke-linejoin="round" />
<path d="M 99.0 187.5 L 99.0 187.0 L 98.5 187.0 L 98.5 186.5 L 98.5 188.0 L 98.5 192.5 L 98.0 200.0 L 97.0 206.0 L 96.5 208.0 " stroke="black" fill="none" stroke-width="9.0" stroke-linecap="round" stroke-linejoin="round" />
<path d="M 113.0 187.0 L 113.0 187.0 L 113.5 187.0 L 114.0 187.5 L 115.5 189.5 L 118.0 193.0 L 120.5 197.0 L 121.5 198.5 L 122.0 198.5 " stroke="black" fill="none" stroke-width="9.0" stroke-linecap="round" stroke-linejoin="round" />
<path d="M 129.0 183.0 L 129.0 183.0 L 129.0 184.0 L 130.0 186.0 L 133.5 190.0 L 137.0 193.0 L 137.5 193.5 " stroke="black" fill="none" stroke-width="9.0" stroke-linecap="round" stroke-linejoin="round" />
<path d="M 151.5 92.5 L 151.5 93.0 L 151.0 93.0 L 151.0 93.5 L 151.0 94.5 L 150.0 99.0 L 147.0 109.0 L 144.5 120.5 L 144.0 126.0 L 143.5 126.5 L 144.5 126.0 L 146.5 124.5 L 149.5 123.0 L 154.0 122.0 L 158.5 121.5 L 162.5 120.5 L 165.0 119.0 L 165.5 118.5 " stroke="black" fill="none" stroke-width="9.0" stroke-linecap="round" stroke-linejoin="round" />
<path d="M 155.5 105.0 L 155.0 105.5 L 154.5 106.0 L 155.0 106.5 L 159.5 106.5 L 167.0 105.0 L 175.5 102.0 L 182.5 100.5 L 184.5 100.5 L 184.0 102.5 L 183.0 105.5 L 181.0 110.5 L 179.5 117.0 L 177.5 123.5 L 176.0 127.0 L 175.5 127.5 " stroke="black" fill="none" stroke-width="9.0" stroke-linecap="round" stroke-linejoin="round" />
<path d="M 139.5 140.5 L 139.5 140.5 L 139.5 140.0 L 139.0 139.5 L 140.5 139.0 L 147.0 138.0 L 159.5 136.5 L 173.0 135.0 L 183.0 134.5 L 188.5 134.0 L 189.5 134.0 L 188.5 135.5 " stroke="black" fill="none" stroke-width="9.0" stroke-linecap="round" stroke-linejoin="round" />
<path d="M 162.0 144.0 L 162.0 143.0 L 162.0 142.0 L 162.0 141.5 L 162.5 141.0 L 162.5 142.0 L 159.5 147.0 L 153.0 157.0 L 144.5 168.5 L 140.5 171.0 L 141.0 169.0 " stroke="black" fill="none" stroke-width="9.0" stroke-linecap="round" stroke-linejoin="round" />
<path d="M 165.5 151.0 L 163.5 151.5 L 163.5 151.5 L 163.5 151.5 L 166.0 151.5 L 169.5 153.5 L 173.0 158.0 L 176.0 165.0 L 178.0 174.5 L 178.0 185.0 L 175.0 196.0 L 171.0 205.5 L 165.5 212.5 L 161.0 215.5 L 158.0 215.0 L 156.5 212.0 L 156.5 211.5 " stroke="black" fill="none" stroke-width="9.0" stroke-linecap="round" stroke-linejoin="round" />
<path d="M 166.5 159.5 L 166.0 159.5 L 165.5 159.0 L 165.5 159.0 L 165.5 160.0 L 165.5 164.0 L 163.5 171.5 L 159.0 180.5 L 155.5 184.0 L 154.5 183.5 L 154.5 182.0 " stroke="black" fill="none" stroke-width="9.0" stroke-linecap="round" stroke-linejoin="round" />
<path d="M 172.5 175.5 L 173.0 175.5 L 174.0 175.5 L 174.5 175.5 L 174.5 177.5 L 173.5 182.0 L 169.5 190.0 L 164.0 196.0 L 158.5 198.0 L 156.5 197.5 " stroke="black" fill="none" stroke-width="9.0" stroke-linecap="round" stroke-linejoin="round" />
<path d="M 194.0 154.0 L 194.0 153.5 L 194.5 152.5 L 194.5 152.0 L 195.0 151.5 L 195.0 151.5 L 195.0 152.0 L 193.0 155.0 L 190.0 159.5 L 186.5 163.5 L 184.5 166.0 L 184.0 166.0 " stroke="black" fill="none" stroke-width="9.0" stroke-linecap="round" stroke-linejoin="round" />
<path d="M 185.0 166.0 L 185.0 166.0 L 185.0 165.5 L 185.0 165.0 L 185.5 165.0 L 188.0 167.5 L 192.5 173.5 L 199.0 181.5 L 202.5 185.5 L 203.5 186.5 " stroke="black" fill="none" stroke-width="9.0" stroke-linecap="round" stroke-linejoin="round" />
</svg>