<svg xmlns="http://www.w3.org/2000/svg" width="300" height="300" viewBox="0 0 300 300">
<path d="M 128.5 110.5 L 128.5 110.5 L 128.5 110.0 L 128.5 109.5 L 128.5 109.5 L 128.5 109.0 L 129.0 108.5 L 129.0 108.0 L 129.5 108.0 L 129.5 107.5 L 130.0 107.5 L 130.0 109.0 L 128.5 113.5 L 126.0 120.5 L 123.5 127.5 L 121.0 133.5 L 120.5 136.5 L 120.5 136.5 L 120.5 136.5 L 120.5 136.5 L 120.5 136.5 L 121.0 136.5 L 122.0 136.5 L 124.0 136.0 L 126.5 135.0 L 129.5 133.5 L 132.5 132.0 L 134.0 130.5 L 134.5 130.0 L 134.5 130.0 L 134.0 130.0 L 133.5 130.0 " stroke="black" fill="none" stroke-width="7.0" stroke-linecap="round" stroke-linejoin="round" />
<path d="M 137.5 120.5 L 138.0 120.0 L 138.5 120.0 L 138.5 119.5 L 138.5 119.5 L 138.5 120.5 L 137.5 123.0 L 136.0 127.0 L 133.5 133.5 L 130.0 142.0 L 126.5 149.5 L 123.0 155.0 L 121.0 159.0 L 119.0 162.5 L 118.5 164.5 L 118.0 165.5 L 118.0 165.5 L 118.0 165.5 L 119.0 165.0 L 121.0 164.0 L 123.5 162.5 L 127.0 161.0 L 131.0 159.0 L 133.5 157.5 L 135.0 157.0 L 135.5 157.0 L 135.5 156.5 " stroke="black" fill="none" stroke-width="7.0" stroke-linecap="round" stroke-linejoin="round" />
<path d="M 138.5 150.5 L 138.5 149.5 L 138.5 149.0 L 138.5 149.0 L 138.5 149.0 L 139.0 151.0 L 140.5 155.0 L 141.5 158.0 L 143.0 160.5 L 143.5 161.0 " stroke="black" fill="none" stroke-width="7.0" stroke-linecap="round" stroke-linejoin="round" />
<path d="M 117.5 179.5 L 117.5 179.0 L 118.0 178.5 L 118.5 178.0 L 118.5 178.0 L 119.0 178.0 L 119.0 178.5 L 119.0 180.0 L 118.5 183.0 L 118.0 185.5 L 118.0 187.0 " stroke="black" fill="none" stroke-width="7.0" stroke-linecap="round" stroke-linejoin="round" />
<path d="M 129.0 174.5 L 129.0 175.0 L 129.0 175.5 L 129.0 176.0 L 129.0 176.5 L 129.5 178.0 L 130.5 179.5 L 131.5 181.0 L 132.5 182.0 " stroke="black" fill="none" stroke-width="7.0" stroke-linecap="round" stroke-linejoin="round" />
<path d="M 137.0 174.5 L 137.5 174.5 L 138.5 174.5 L 138.5 174.5 L 139.0 174.5 L 140.0 175.5 L 140.5 176.5 L 141.0 177.5 L 141.5 178.0 " stroke="black" fill="none" stroke-width="7.0" stroke-linecap="round" stroke-linejoin="round" />
<path d="M 150.5 113.0 L 150.5 113.0 L 150.5 113.5 L 150.5 114.0 L 150.5 114.0 L 152.5 114.0 L 157.0 113.0 L 163.0 111.0 L 168.0 109.0 L 171.0 107.5 L 171.5 107.0 L 172.0 106.5 L 172.5 106.5 L 173.0 106.5 L 173.0 107.0 " stroke="black" fill="none" stroke-width="7.0" stroke-linecap="round" stroke-linejoin="round" />
<path d="M 150.5 123.0 L 150.5 123.0 L 150.5 123.0 L 150.5 123.0 L 150.5 123.0 L 151.0 123.0 L 152.0 123.5 L 153.5 124.0 L 154.5 124.5 " stroke="black" fill="none" stroke-width="7.0" stroke-linecap="round" stroke-linejoin="round" />
<path d="M 166.0 121.0 L 165.5 121.0 L 165.5 121.0 L 165.0 121.0 L 165.0 121.5 L 165.0 122.0 L 166.0 122.5 L 167.0 123.5 L 167.5 123.5 " stroke="black" fill="none" stroke-width="7.0" stroke-linecap="round" stroke-linejoin="round" />
<path d="M 176.0 119.0 L 176.5 119.0 L 177.5 119.0 L 178.0 119.0 L 178.5 119.0 L 178.5 119.0 L 178.5 120.0 L 178.0 121.5 L 177.5 123.0 L 177.0 124.5 " stroke="black" fill="none" stroke-width="7.0" stroke-linecap="round" stroke-linejoin="round" />
<path d="M 152.5 136.0 L 152.5 136.0 L 153.0 136.5 L 153.5 136.5 L 154.5 136.5 L 156.5 136.5 L 160.5 136.5 L 167.0 135.5 L 173.5 135.0 L 178.0 134.0 L 179.5 133.5 L 178.0 133.5 L 177.0 133.5 " stroke="black" fill="none" stroke-width="7.0" stroke-linecap="round" stroke-linejoin="round" />
<path d="M 151.0 147.0 L 151.0 147.0 L 151.0 147.0 L 151.0 147.0 L 151.5 147.0 L 153.0 147.0 L 158.5 146.0 L 166.5 145.0 L 174.0 144.5 L 178.5 144.0 L 179.0 144.0 " stroke="black" fill="none" stroke-width="7.0" stroke-linecap="round" stroke-linejoin="round" />
<path d="M 165.0 139.0 L 165.0 139.0 L 165.0 138.5 L 165.0 138.5 L 165.0 138.5 L 165.0 138.5 L 165.0 141.0 L 164.0 146.0 L 161.5 155.0 L 157.0 167.0 L 153.5 175.5 L 152.0 178.0 L 152.0 177.5 L 152.0 174.5 L 152.0 173.5 " stroke="black" fill="none" stroke-width="7.0" stroke-linecap="round" stroke-linejoin="round" />
<path d="M 168.5 155.0 L 167.0 155.5 L 166.5 156.0 L 166.0 156.0 L 166.0 156.0 L 167.0 156.0 L 169.5 155.5 L 172.0 155.0 L 175.5 154.5 L 178.0 154.0 L 180.0 154.0 L 180.5 156.0 L 178.0 160.0 L 173.5 165.0 L 168.5 171.0 L 164.0 176.0 L 161.0 179.5 L 159.0 181.5 L 159.0 182.0 L 159.0 182.0 L 159.5 180.0 L 159.5 179.5 " stroke="black" fill="none" stroke-width="7.0" stroke-linecap="round" stroke-linejoin="round" />
<path d="M 165.5 165.5 L 165.5 165.5 L 165.0 165.5 L 164.5 165.0 L 164.5 165.0 L 166.0 167.0 L 170.0 171.0 L 176.0 176.0 L 183.5 180.5 L 188.5 182.0 L 190.0 182.0 " stroke="black" fill="none" stroke-width="7.0" stroke-linecap="round" stroke-linejoin="round" />
</svg>