<svg xmlns="http://www.w3.org/2000/svg" width="300" height="300" viewBox="0 0 300 300">
<path d="M 119.5 106.5 L 119.5 106.0 L 119.5 104.5 L 119.5 103.5 L 119.5 103.5 L 119.5 103.5 L 119.0 106.5 L 117.0 113.0 L 113.5 122.0 L 109.5 131.5 L 107.5 138.0 L 107.5 139.5 L 108.0 139.5 L 109.5 138.5 L 113.0 137.0 L 117.5 134.5 L 123.0 131.0 L 126.5 128.0 L 128.0 126.5 L 128.0 126.5 L 127.0 127.5 L 126.0 129.5 L 125.0 133.0 L 123.5 137.0 L 121.5 142.0 L 118.5 147.5 L 115.5 153.5 L 113.5 157.5 L 111.5 160.5 L 110.0 162.5 L 109.5 162.5 L 109.0 163.5 L 109.0 164.0 L 109.0 164.0 L 109.0 164.0 L 109.0 164.0 L 109.5 164.0 L 110.5 163.0 L 111.5 162.5 L 112.5 162.0 L 113.5 161.5 L 115.0 160.5 L 116.5 160.0 L 119.0 159.5 L 122.0 158.5 L 125.5 156.0 L 128.5 153.0 L 130.0 151.0 L 130.5 150.0 L 130.5 149.5 L 131.0 149.0 L 131.5 149.0 L 131.5 148.5 L 132.0 148.5 L 132.0 148.5 L 132.0 148.5 L 132.0 148.5 L 132.0 148.5 L 132.0 148.5 L 132.0 148.5 L 132.0 148.5 L 132.0 149.0 L 132.0 149.0 " stroke="black" fill="none" stroke-width="8.0" stroke-linecap="round" stroke-linejoin="round" />
<path d="M 130.5 148.0 L 130.5 148.0 L 130.5 148.0 L 130.5 147.5 L 130.5 147.5 L 130.5 147.5 L 130.5 147.5 L 131.5 150.5 L 133.5 156.5 L 136.5 163.0 L 138.0 166.5 L 139.0 166.5 " stroke="black" fill="none" stroke-width="8.0" stroke-linecap="round" stroke-linejoin="round" />
<path d="M 109.5 178.0 L 109.5 178.0 L 109.5 179.0 L 109.0 181.0 L 108.0 186.0 L 106.0 192.0 L 104.5 195.5 L 104.5 196.0 L 104.5 196.0 " stroke="black" fill="none" stroke-width="8.0" stroke-linecap="round" stroke-linejoin="round" />
<path d="M 120.0 180.5 L 119.5 180.5 L 119.0 180.5 L 119.0 181.0 L 120.5 182.5 L 122.5 185.0 L 124.5 186.5 " stroke="black" fill="none" stroke-width="8.0" stroke-linecap="round" stroke-linejoin="round" />
<path d="M 132.5 175.0 L 133.0 175.5 L 133.5 176.0 L 134.5 177.5 L 136.0 180.0 L 138.0 183.0 L 139.5 185.0 L 139.5 185.0 " stroke="black" fill="none" stroke-width="8.0" stroke-linecap="round" stroke-linejoin="round" />
<path d="M 153.5 121.5 L 153.5 121.5 L 153.5 121.0 L 153.5 121.0 L 153.5 121.5 L 153.5 125.5 L 154.5 132.5 L 155.0 143.5 L 155.0 156.5 L 154.5 168.0 L 153.0 174.5 L 151.5 177.5 L 151.0 177.5 L 151.0 176.0 " stroke="black" fill="none" stroke-width="8.0" stroke-linecap="round" stroke-linejoin="round" />
<path d="M 154.0 118.5 L 154.0 118.5 L 154.0 118.5 L 154.0 118.5 L 154.5 118.5 L 155.0 118.5 L 155.5 118.5 L 156.5 118.5 L 158.0 118.5 L 161.0 118.5 L 166.5 118.5 L 173.0 118.0 L 179.5 117.5 L 184.0 117.5 L 187.0 118.0 L 188.0 118.0 L 189.0 118.0 L 189.5 118.0 L 189.5 118.0 L 189.5 118.0 L 190.0 118.0 L 190.0 118.0 L 190.5 118.0 L 191.0 118.0 L 191.5 118.0 L 191.5 118.0 L 192.0 118.0 L 192.5 118.0 L 192.5 118.0 L 193.0 118.5 L 193.0 118.5 L 193.5 118.5 L 193.5 118.5 L 193.5 118.5 L 193.5 118.5 L 193.5 118.5 L 194.0 118.5 L 194.0 118.5 L 194.0 118.5 L 194.0 118.5 L 194.0 118.5 L 194.5 118.5 L 194.5 118.5 L 194.5 118.5 L 194.5 118.5 L 194.5 119.0 L 195.0 119.0 L 195.0 119.0 L 195.0 119.5 L 195.0 120.0 L 195.5 121.0 L 195.5 122.0 L 196.0 124.0 L 196.0 126.0 L 196.5 129.0 L 197.0 132.5 L 197.5 137.0 L 198.0 141.5 L 198.0 145.5 L 198.5 149.5 L 198.5 153.5 L 198.5 157.5 L 198.5 162.0 L 198.0 166.5 L 197.5 171.0 L 197.5 175.5 L 197.0 180.5 L 196.5 184.5 L 196.5 188.0 L 196.0 190.5 L 196.0 192.0 L 195.0 192.0 L 193.0 191.5 L 189.5 188.5 L 188.0 187.0 " stroke="black" fill="none" stroke-width="8.0" stroke-linecap="round" stroke-linejoin="round" />
<path d="M 176.5 102.5 L 177.0 102.0 L 177.5 101.5 L 178.0 101.5 L 178.0 102.5 L 178.0 105.5 L 177.5 111.0 L 176.5 121.0 L 174.0 133.0 L 172.0 142.5 L 171.0 148.5 L 169.5 153.0 L 168.0 157.0 L 167.0 160.0 L 166.5 161.5 L 166.5 161.5 L 166.0 161.0 L 166.0 160.5 " stroke="black" fill="none" stroke-width="8.0" stroke-linecap="round" stroke-linejoin="round" />
<path d="M 172.5 148.5 L 172.5 148.0 L 172.0 147.5 L 172.0 147.5 L 173.0 147.5 L 175.0 148.5 L 178.0 151.5 L 181.5 156.0 L 185.0 160.5 L 187.0 162.5 L 187.5 163.0 " stroke="black" fill="none" stroke-width="8.0" stroke-linecap="round" stroke-linejoin="round" />
</svg>