<svg xmlns="http://www.w3.org/2000/svg" width="300" height="300" viewBox="0 0 300 300">
<path d="M 131.5 105.5 L 131.5 105.0 L 131.5 103.5 L 131.5 103.0 L 131.0 105.0 L 131.0 114.0 L 131.5 124.0 L 132.0 130.0 L 132.5 130.5 L 133.0 127.0 " stroke="black" fill="none" stroke-width="7.0" stroke-linecap="round" stroke-linejoin="round" />
<path d="M 131.5 104.0 L 131.0 104.0 L 130.0 104.5 L 129.5 105.0 L 129.5 105.0 L 131.0 105.0 L 135.0 105.0 L 141.5 104.0 L 150.5 102.5 L 158.5 101.0 L 164.5 100.5 L 167.5 100.0 L 168.0 100.0 L 168.0 100.0 L 168.0 100.0 L 167.5 101.5 L 167.5 104.5 L 167.5 108.5 L 167.0 115.0 L 165.5 122.5 L 164.5 128.0 L 164.0 130.0 L 164.0 129.5 " stroke="black" fill="none" stroke-width="7.0" stroke-linecap="round" stroke-linejoin="round" />
<path d="M 135.0 123.5 L 134.5 123.0 L 134.0 122.0 L 134.5 121.5 L 138.5 121.0 L 143.0 121.0 L 148.0 121.0 L 152.0 121.0 L 153.0 121.0 " stroke="black" fill="none" stroke-width="7.0" stroke-linecap="round" stroke-linejoin="round" />
<path d="M 149.0 107.0 L 148.5 107.0 L 147.5 106.5 L 147.0 106.5 L 147.0 107.0 L 147.0 111.5 L 147.0 119.0 L 147.0 127.0 L 147.0 132.5 L 147.0 133.0 " stroke="black" fill="none" stroke-width="7.0" stroke-linecap="round" stroke-linejoin="round" />
<path d="M 135.0 139.0 L 134.5 138.5 L 134.5 138.0 L 135.0 137.0 L 139.5 136.5 L 145.5 135.5 L 154.0 134.0 L 162.0 132.0 L 163.5 131.5 " stroke="black" fill="none" stroke-width="7.0" stroke-linecap="round" stroke-linejoin="round" />
<path d="M 150.0 145.5 L 150.5 144.5 L 151.5 143.5 L 152.5 142.5 L 153.5 142.5 L 153.5 143.0 L 152.0 146.5 L 149.5 152.0 L 145.5 158.0 L 141.5 163.0 L 139.0 165.5 L 138.0 166.0 L 138.0 165.0 L 138.0 163.5 L 140.0 162.5 L 143.0 162.0 L 147.0 161.0 L 152.5 160.0 L 157.5 158.5 L 160.5 158.0 L 162.5 158.0 L 163.0 158.0 " stroke="black" fill="none" stroke-width="7.0" stroke-linecap="round" stroke-linejoin="round" />
<path d="M 163.5 149.5 L 164.0 149.5 L 164.0 149.5 L 164.0 149.5 L 164.0 150.0 L 162.5 152.5 L 159.5 158.0 L 154.5 165.5 L 149.0 172.5 L 145.0 176.5 L 142.5 177.5 L 141.0 178.0 L 139.5 178.0 L 138.5 178.5 L 138.0 179.0 L 138.0 179.5 L 139.5 179.5 L 141.5 179.0 L 144.0 178.5 L 147.5 177.5 L 151.5 176.0 L 157.5 174.5 L 163.0 173.5 L 167.0 173.0 L 169.0 173.0 L 170.5 172.5 L 171.0 172.0 " stroke="black" fill="none" stroke-width="7.0" stroke-linecap="round" stroke-linejoin="round" />
<path d="M 169.5 166.0 L 169.5 165.5 L 169.0 164.5 L 168.0 164.0 L 168.0 164.0 L 169.0 165.0 L 171.5 168.0 L 175.0 172.0 L 178.5 175.5 L 181.0 178.0 " stroke="black" fill="none" stroke-width="7.0" stroke-linecap="round" stroke-linejoin="round" />
<path d="M 158.0 182.0 L 158.0 181.5 L 158.0 181.0 L 158.0 180.5 L 158.0 180.5 L 158.0 181.0 L 158.5 184.0 L 160.0 188.5 L 160.5 193.5 L 160.5 197.5 L 158.0 200.0 L 155.0 200.5 L 152.0 200.0 L 149.5 199.0 L 148.5 198.5 " stroke="black" fill="none" stroke-width="7.0" stroke-linecap="round" stroke-linejoin="round" />
<path d="M 147.0 192.0 L 146.5 192.0 L 145.0 192.5 L 143.5 193.0 L 141.0 194.5 L 138.0 196.0 L 136.0 197.0 L 135.0 197.0 " stroke="black" fill="none" stroke-width="7.0" stroke-linecap="round" stroke-linejoin="round" />
<path d="M 176.5 188.5 L 177.0 188.5 L 178.0 188.5 L 180.0 190.0 L 185.0 192.5 L 190.0 194.5 L 192.5 195.0 " stroke="black" fill="none" stroke-width="7.0" stroke-linecap="round" stroke-linejoin="round" />
</svg>