<svg xmlns="http://www.w3.org/2000/svg" width="300" height="300" viewBox="0 0 300 300">
<path d="M 112.0 105.5 L 112.5 105.5 L 113.0 106.0 L 113.0 106.0 L 113.5 107.0 L 114.0 110.5 L 114.5 120.0 L 115.0 134.0 L 115.0 145.0 L 115.5 150.5 L 116.0 151.5 L 116.0 151.0 L 116.0 149.5 " stroke="black" fill="none" stroke-width="8.0" stroke-linecap="round" stroke-linejoin="round" />
<path d="M 115.5 105.5 L 115.5 106.0 L 115.0 106.5 L 114.5 107.0 L 115.0 107.0 L 117.5 106.5 L 121.5 105.5 L 126.0 103.5 L 130.0 101.5 L 133.0 100.5 L 134.5 100.5 L 135.0 101.0 L 135.0 102.5 L 135.0 104.5 L 135.5 108.0 L 136.5 113.0 L 137.0 121.0 L 137.5 129.5 L 138.0 137.0 L 138.0 142.0 L 138.0 145.5 L 138.0 148.0 L 138.5 149.0 L 138.5 149.0 " stroke="black" fill="none" stroke-width="8.0" stroke-linecap="round" stroke-linejoin="round" />
<path d="M 118.5 122.5 L 118.5 122.5 L 118.5 122.0 L 118.5 121.5 L 120.5 121.0 L 124.0 119.5 L 127.5 118.5 L 131.0 117.0 L 133.0 116.5 " stroke="black" fill="none" stroke-width="8.0" stroke-linecap="round" stroke-linejoin="round" />
<path d="M 120.0 136.5 L 120.0 136.5 L 119.5 136.5 L 120.0 136.5 L 121.5 135.0 L 125.0 133.5 L 128.0 132.5 L 131.0 132.0 L 133.5 131.5 L 133.5 131.5 " stroke="black" fill="none" stroke-width="8.0" stroke-linecap="round" stroke-linejoin="round" />
<path d="M 121.0 146.5 L 120.5 146.5 L 120.5 146.5 L 121.5 146.0 L 124.5 145.5 L 128.5 144.0 L 132.0 143.0 L 133.0 142.5 " stroke="black" fill="none" stroke-width="8.0" stroke-linecap="round" stroke-linejoin="round" />
<path d="M 108.0 162.5 L 108.5 162.5 L 110.0 162.0 L 112.5 161.0 L 118.0 159.5 L 125.5 157.0 L 132.0 155.5 L 138.0 154.5 L 141.5 154.5 L 144.0 154.5 L 145.0 154.5 " stroke="black" fill="none" stroke-width="8.0" stroke-linecap="round" stroke-linejoin="round" />
<path d="M 121.0 172.0 L 121.0 172.0 L 121.0 172.0 L 121.0 172.0 L 121.0 172.5 L 120.5 175.5 L 119.5 180.5 L 118.0 186.0 L 116.5 189.0 L 116.0 190.0 L 115.5 189.5 " stroke="black" fill="none" stroke-width="8.0" stroke-linecap="round" stroke-linejoin="round" />
<path d="M 131.5 169.0 L 132.0 169.0 L 132.0 169.0 L 132.0 169.0 L 132.5 170.5 L 133.0 173.0 L 133.5 176.0 L 133.5 179.0 L 133.5 179.0 " stroke="black" fill="none" stroke-width="8.0" stroke-linecap="round" stroke-linejoin="round" />
<path d="M 139.5 166.5 L 139.5 166.5 L 139.5 166.5 L 140.0 166.0 L 141.5 167.5 L 144.0 170.5 L 147.0 174.5 L 149.5 177.0 L 150.5 177.5 " stroke="black" fill="none" stroke-width="8.0" stroke-linecap="round" stroke-linejoin="round" />
<path d="M 169.0 98.0 L 168.5 97.5 L 168.5 97.0 L 168.5 96.5 L 168.5 96.5 L 168.5 98.0 L 168.0 101.0 L 164.5 106.0 L 159.5 111.5 L 155.0 115.0 L 153.5 116.0 L 153.5 115.5 " stroke="black" fill="none" stroke-width="8.0" stroke-linecap="round" stroke-linejoin="round" />
<path d="M 175.5 106.0 L 175.5 106.0 L 176.5 106.0 L 177.0 106.0 L 177.0 106.0 L 177.0 106.5 L 176.5 108.0 L 175.0 111.5 L 172.5 116.5 L 169.5 121.5 L 166.0 126.0 L 162.5 129.5 L 160.5 131.5 L 159.5 132.5 L 158.5 133.0 L 158.0 133.5 L 158.0 133.5 L 158.0 133.5 L 158.0 133.5 L 158.0 133.5 L 158.5 133.5 L 159.0 133.5 L 159.5 133.0 L 160.0 132.5 L 161.0 132.5 L 161.5 132.0 L 162.5 131.5 L 163.5 131.5 L 164.0 131.0 L 165.5 130.5 L 166.5 130.0 L 168.0 130.0 L 170.0 129.5 L 171.5 129.0 L 173.0 128.5 L 175.5 128.0 L 177.5 126.5 L 178.5 125.5 L 179.5 125.0 L 179.5 124.5 L 179.0 125.5 " stroke="black" fill="none" stroke-width="8.0" stroke-linecap="round" stroke-linejoin="round" />
<path d="M 182.5 119.5 L 182.5 119.5 L 182.5 119.0 L 182.5 118.5 L 182.5 118.5 L 182.5 118.5 L 182.0 120.0 L 180.5 122.5 L 178.0 126.5 L 175.0 131.0 L 171.5 135.5 L 169.0 138.5 L 167.0 141.0 L 165.0 142.5 L 163.0 144.5 L 161.5 146.0 L 160.5 147.0 L 160.0 147.0 L 159.5 147.0 L 159.5 147.0 L 159.5 147.0 L 159.5 147.0 L 159.5 147.0 L 159.5 147.0 L 159.5 147.0 L 159.5 147.0 L 159.5 147.0 L 160.0 147.0 L 161.0 147.0 L 163.0 146.5 L 166.5 145.5 L 171.5 144.5 L 176.5 143.0 L 179.5 141.5 L 181.0 141.0 L 181.5 141.0 L 181.5 141.0 L 182.0 141.0 L 182.0 141.0 " stroke="black" fill="none" stroke-width="8.0" stroke-linecap="round" stroke-linejoin="round" />
<path d="M 183.0 135.0 L 183.5 135.0 L 183.5 135.5 L 183.5 136.0 L 184.0 137.5 L 185.0 141.0 L 186.5 145.5 L 188.0 148.5 L 188.5 150.5 L 188.5 150.5 " stroke="black" fill="none" stroke-width="8.0" stroke-linecap="round" stroke-linejoin="round" />
<path d="M 173.0 156.0 L 173.0 156.0 L 173.5 156.0 L 173.5 156.0 L 173.5 156.0 L 173.5 157.5 L 174.0 161.5 L 175.0 168.5 L 175.5 176.0 L 176.0 182.0 L 176.5 185.5 L 176.0 187.0 L 175.0 187.0 L 172.5 187.0 L 170.0 185.0 L 167.5 182.5 L 166.5 180.5 " stroke="black" fill="none" stroke-width="8.0" stroke-linecap="round" stroke-linejoin="round" />
<path d="M 165.0 166.5 L 164.5 166.5 L 163.5 166.0 L 163.0 166.0 L 162.0 166.5 L 161.0 168.0 L 160.0 170.0 L 159.0 171.0 L 159.0 171.5 " stroke="black" fill="none" stroke-width="8.0" stroke-linecap="round" stroke-linejoin="round" />
<path d="M 184.5 164.0 L 184.5 164.0 L 184.5 164.0 L 185.0 164.5 L 188.0 168.0 L 192.5 173.0 L 196.0 177.5 L 198.0 179.0 L 198.0 179.0 " stroke="black" fill="none" stroke-width="8.0" stroke-linecap="round" stroke-linejoin="round" />
</svg>