<svg xmlns="http://www.w3.org/2000/svg" width="300" height="300" viewBox="0 0 300 300">
<path d="M 123.5 115.0 L 123.5 115.0 L 123.5 114.5 L 123.5 114.0 L 124.0 113.5 L 124.0 113.0 L 124.0 113.0 L 123.0 116.0 L 121.0 122.0 L 117.5 130.5 L 115.5 137.0 L 114.5 139.0 L 114.5 139.0 L 116.0 137.0 L 118.5 134.5 L 122.5 132.0 L 126.5 130.5 L 129.5 129.0 L 131.5 128.5 L 131.5 128.0 L 131.5 128.0 L 130.5 128.5 L 130.0 129.0 L 129.5 129.5 " stroke="black" fill="none" stroke-width="7.0" stroke-linecap="round" stroke-linejoin="round" />
<path d="M 132.5 121.0 L 132.5 121.0 L 133.0 121.0 L 133.0 121.0 L 133.5 121.0 L 133.5 122.5 L 133.0 126.0 L 130.5 133.0 L 127.0 142.5 L 123.0 150.5 L 119.0 155.5 L 116.0 158.0 L 114.5 159.5 L 114.0 159.5 L 114.0 159.5 L 114.0 159.5 L 114.0 159.5 L 115.0 159.0 L 116.5 158.0 L 118.5 157.0 L 121.5 156.0 L 125.0 155.0 L 129.0 153.5 L 132.5 152.5 L 133.5 151.5 L 133.5 151.5 " stroke="black" fill="none" stroke-width="7.0" stroke-linecap="round" stroke-linejoin="round" />
<path d="M 134.0 145.0 L 134.0 144.5 L 134.5 144.5 L 135.0 144.0 L 135.5 145.5 L 136.5 149.0 L 138.0 152.5 L 139.0 155.5 L 139.0 157.0 " stroke="black" fill="none" stroke-width="7.0" stroke-linecap="round" stroke-linejoin="round" />
<path d="M 115.0 171.0 L 115.0 171.0 L 115.5 170.5 L 115.5 170.5 L 114.5 172.5 L 113.5 175.5 L 113.0 178.5 L 113.0 180.0 " stroke="black" fill="none" stroke-width="7.0" stroke-linecap="round" stroke-linejoin="round" />
<path d="M 126.5 168.0 L 125.5 168.0 L 125.0 168.0 L 125.0 168.5 L 126.0 171.0 L 127.5 173.5 L 128.5 175.0 L 129.0 175.0 " stroke="black" fill="none" stroke-width="7.0" stroke-linecap="round" stroke-linejoin="round" />
<path d="M 136.0 165.0 L 136.5 165.0 L 137.0 165.0 L 138.0 166.0 L 139.0 168.5 L 140.5 171.0 L 141.5 171.5 " stroke="black" fill="none" stroke-width="7.0" stroke-linecap="round" stroke-linejoin="round" />
<path d="M 148.5 114.0 L 147.5 114.5 L 147.0 115.0 L 147.0 115.0 L 147.5 115.0 L 150.5 114.5 L 155.0 113.5 L 159.5 112.5 L 163.0 112.0 L 165.0 111.5 L 165.5 111.5 L 165.5 111.5 " stroke="black" fill="none" stroke-width="7.0" stroke-linecap="round" stroke-linejoin="round" />
<path d="M 149.0 126.5 L 149.0 126.0 L 149.5 125.5 L 150.5 125.0 L 153.0 124.5 L 157.0 124.0 L 160.5 123.0 L 163.0 122.0 " stroke="black" fill="none" stroke-width="7.0" stroke-linecap="round" stroke-linejoin="round" />
<path d="M 156.5 102.5 L 156.5 102.0 L 157.0 101.5 L 157.0 101.5 L 157.0 103.5 L 157.0 109.0 L 157.0 118.0 L 157.0 127.0 L 157.0 132.0 L 157.0 132.5 " stroke="black" fill="none" stroke-width="7.0" stroke-linecap="round" stroke-linejoin="round" />
<path d="M 147.5 134.5 L 147.0 134.5 L 146.0 135.0 L 145.5 135.0 L 145.5 135.5 L 147.5 135.5 L 152.0 135.5 L 158.0 135.0 L 165.5 134.0 L 171.5 133.0 L 172.0 133.0 " stroke="black" fill="none" stroke-width="7.0" stroke-linecap="round" stroke-linejoin="round" />
<path d="M 151.0 146.0 L 151.0 146.0 L 151.0 145.5 L 151.0 145.5 L 151.0 145.0 L 151.0 145.0 L 151.5 145.0 L 151.5 147.5 L 151.5 153.0 L 151.5 160.0 L 151.0 165.0 L 151.0 167.0 L 151.0 167.0 " stroke="black" fill="none" stroke-width="7.0" stroke-linecap="round" stroke-linejoin="round" />
<path d="M 151.5 144.5 L 151.5 144.5 L 151.0 144.5 L 150.5 144.5 L 150.5 144.5 L 150.5 144.5 L 151.5 144.5 L 153.5 144.5 L 156.5 144.5 L 161.0 144.5 L 165.5 144.5 L 168.0 144.5 L 169.5 144.5 L 169.5 144.5 L 169.0 144.5 L 169.0 144.5 L 168.5 144.5 L 168.5 144.5 L 168.5 144.5 L 168.5 144.5 L 168.5 144.5 L 168.5 145.0 L 168.5 145.0 L 168.5 145.5 L 168.5 146.0 L 168.5 147.5 L 168.5 149.5 L 168.5 153.0 L 168.5 157.0 L 168.5 161.0 L 168.5 165.0 L 168.0 168.0 L 168.0 169.5 L 168.0 170.0 L 168.0 170.0 L 168.0 169.5 L 168.0 167.5 " stroke="black" fill="none" stroke-width="7.0" stroke-linecap="round" stroke-linejoin="round" />
<path d="M 153.5 153.0 L 153.0 153.0 L 152.5 153.0 L 152.0 153.0 L 152.5 153.0 L 154.5 153.0 L 157.5 153.0 L 160.5 153.0 L 163.5 153.0 L 166.0 153.0 L 167.0 153.0 " stroke="black" fill="none" stroke-width="7.0" stroke-linecap="round" stroke-linejoin="round" />
<path d="M 154.0 159.5 L 154.0 160.0 L 154.0 160.5 L 154.0 161.0 L 154.5 161.0 L 156.0 161.0 L 158.5 161.0 L 160.5 161.0 L 162.5 161.0 " stroke="black" fill="none" stroke-width="7.0" stroke-linecap="round" stroke-linejoin="round" />
<path d="M 152.5 170.0 L 152.5 170.5 L 152.5 170.5 L 153.0 171.0 L 155.0 171.0 L 159.0 171.0 L 163.5 170.5 L 166.5 170.5 L 167.5 170.5 " stroke="black" fill="none" stroke-width="7.0" stroke-linecap="round" stroke-linejoin="round" />
<path d="M 156.5 176.5 L 157.0 176.5 L 157.5 176.5 L 157.5 177.5 L 155.5 179.0 L 152.5 182.0 L 150.0 184.5 L 147.5 186.0 L 147.5 186.5 " stroke="black" fill="none" stroke-width="7.0" stroke-linecap="round" stroke-linejoin="round" />
<path d="M 167.0 177.5 L 167.0 178.0 L 167.0 179.0 L 168.0 179.5 L 171.0 181.0 L 175.0 183.0 L 179.0 185.0 L 180.5 185.5 " stroke="black" fill="none" stroke-width="7.0" stroke-linecap="round" stroke-linejoin="round" />
</svg>