<svg xmlns="http://www.w3.org/2000/svg" width="300" height="300" viewBox="0 0 300 300">
<path d="M 124.0 119.0 L 123.0 119.0 L 123.0 119.0 L 122.5 119.0 L 125.0 118.5 L 128.0 118.0 L 131.5 118.0 L 134.0 118.0 L 135.5 117.5 L 136.5 117.0 " stroke="black" fill="none" stroke-width="6.0" stroke-linecap="round" stroke-linejoin="round" />
<path d="M 131.0 107.5 L 131.0 108.0 L 130.5 108.0 L 130.5 110.5 L 130.5 114.5 L 131.0 120.0 L 131.0 124.5 L 131.0 127.5 L 131.0 128.0 " stroke="black" fill="none" stroke-width="6.0" stroke-linecap="round" stroke-linejoin="round" />
<path d="M 119.0 130.5 L 118.5 131.0 L 118.0 131.5 L 118.0 132.0 L 119.0 132.0 L 122.0 132.0 L 126.5 131.5 L 132.0 130.5 L 137.0 130.0 L 139.5 129.5 L 140.0 129.0 " stroke="black" fill="none" stroke-width="6.0" stroke-linecap="round" stroke-linejoin="round" />
<path d="M 117.5 147.0 L 117.5 147.5 L 118.0 147.5 L 118.5 147.5 L 119.5 147.5 L 122.0 146.5 L 124.5 145.5 L 126.5 145.0 L 128.0 145.0 L 128.5 145.0 " stroke="black" fill="none" stroke-width="6.0" stroke-linecap="round" stroke-linejoin="round" />
<path d="M 123.5 138.0 L 123.5 138.0 L 122.0 138.5 L 122.0 139.0 L 121.5 141.0 L 122.0 145.0 L 122.0 149.5 L 122.0 153.5 L 122.0 156.0 L 122.5 156.5 " stroke="black" fill="none" stroke-width="6.0" stroke-linecap="round" stroke-linejoin="round" />
<path d="M 112.0 162.0 L 112.5 161.0 L 113.5 160.5 L 115.5 160.5 L 118.5 160.5 L 122.5 160.5 L 126.0 160.0 " stroke="black" fill="none" stroke-width="6.0" stroke-linecap="round" stroke-linejoin="round" />
<path d="M 138.5 144.0 L 138.5 144.0 L 138.5 144.0 L 139.0 143.5 L 141.0 143.5 L 144.0 143.0 L 146.5 143.0 L 148.0 142.5 " stroke="black" fill="none" stroke-width="6.0" stroke-linecap="round" stroke-linejoin="round" />
<path d="M 144.5 134.5 L 144.0 135.0 L 143.0 136.0 L 143.0 136.5 L 143.0 138.0 L 143.0 142.0 L 143.5 147.0 L 143.5 152.0 L 144.0 155.0 L 144.5 155.5 " stroke="black" fill="none" stroke-width="6.0" stroke-linecap="round" stroke-linejoin="round" />
<path d="M 132.0 162.0 L 133.0 161.5 L 133.5 161.5 L 134.5 161.0 L 137.0 161.0 L 140.5 160.5 L 144.0 160.0 L 147.5 158.5 L 148.5 158.0 " stroke="black" fill="none" stroke-width="6.0" stroke-linecap="round" stroke-linejoin="round" />
<path d="M 116.5 171.0 L 117.0 171.0 L 117.5 171.0 L 119.0 171.0 L 122.0 171.0 L 128.5 170.5 L 137.5 169.5 L 145.5 169.0 L 150.0 169.0 L 150.5 169.0 " stroke="black" fill="none" stroke-width="6.0" stroke-linecap="round" stroke-linejoin="round" />
<path d="M 130.0 173.5 L 130.5 173.5 L 131.5 173.5 L 131.5 173.5 L 131.5 174.0 L 131.5 175.0 L 129.0 179.0 L 124.0 186.0 L 119.5 192.5 L 116.5 195.5 L 116.5 195.0 L 116.5 194.5 " stroke="black" fill="none" stroke-width="6.0" stroke-linecap="round" stroke-linejoin="round" />
<path d="M 138.0 173.5 L 138.0 173.5 L 138.5 173.5 L 139.0 173.5 L 139.5 173.5 L 140.0 173.5 L 140.5 174.0 L 140.5 175.5 L 140.5 178.0 L 140.5 182.5 L 140.0 187.5 L 140.0 191.5 L 140.0 194.0 L 140.5 195.0 L 141.5 195.0 L 143.5 195.0 L 147.0 195.0 L 151.5 195.0 L 158.0 194.5 L 166.0 194.0 L 173.0 194.0 L 178.5 194.0 L 182.5 194.0 L 186.5 194.0 L 189.5 194.0 L 192.5 194.0 L 194.5 193.5 L 196.0 193.0 L 196.0 193.0 L 196.0 193.0 L 196.0 193.0 L 196.0 193.0 L 196.0 192.5 L 196.5 192.5 L 196.5 192.5 L 197.0 192.5 L 197.0 192.0 L 197.5 192.0 L 197.5 192.0 L 197.5 192.0 L 197.5 191.5 L 197.5 191.0 L 197.5 190.5 L 197.5 189.0 L 197.5 187.0 L 197.5 184.5 L 197.0 182.0 L 197.0 180.5 L 196.5 179.5 L 196.5 179.0 " stroke="black" fill="none" stroke-width="6.0" stroke-linecap="round" stroke-linejoin="round" />
<path d="M 158.5 113.0 L 158.5 114.0 L 158.5 114.5 L 158.5 115.0 L 158.5 115.0 L 160.0 114.5 L 162.0 114.0 L 165.0 113.5 L 167.5 113.0 L 169.5 113.0 L 170.5 112.5 L 171.0 112.5 L 171.0 112.5 L 171.0 112.5 L 171.0 112.5 L 171.0 113.5 L 171.0 114.5 L 171.0 117.0 L 171.0 120.5 L 171.0 125.5 L 171.0 131.0 L 171.0 137.5 L 171.0 144.5 L 171.0 151.0 L 171.0 157.0 L 171.0 162.5 L 171.5 167.0 L 172.0 171.0 L 172.0 174.5 L 172.0 176.5 L 172.0 178.0 L 171.5 178.0 L 170.5 178.0 L 168.5 176.5 L 166.5 173.0 L 166.0 171.0 " stroke="black" fill="none" stroke-width="6.0" stroke-linecap="round" stroke-linejoin="round" />
<path d="M 157.0 130.5 L 157.0 130.5 L 157.0 130.0 L 157.0 129.5 L 157.5 129.5 L 158.0 130.5 L 159.0 132.0 L 160.0 134.0 L 161.0 136.0 L 161.0 136.5 " stroke="black" fill="none" stroke-width="6.0" stroke-linecap="round" stroke-linejoin="round" />
<path d="M 157.5 154.0 L 157.5 154.0 L 158.0 154.5 L 159.0 154.5 L 160.0 154.0 L 161.5 152.5 L 163.5 150.5 L 165.0 149.5 " stroke="black" fill="none" stroke-width="6.0" stroke-linecap="round" stroke-linejoin="round" />
<path d="M 183.5 109.5 L 183.5 110.0 L 183.0 111.0 L 183.0 111.5 L 183.0 112.0 L 184.5 112.5 L 186.5 113.0 L 188.5 113.0 L 190.0 113.0 L 191.0 113.0 L 191.5 113.0 L 191.5 113.5 L 191.5 116.0 L 191.5 119.5 L 191.5 124.0 L 191.0 129.0 L 191.0 134.5 L 190.5 139.5 L 190.5 145.0 L 190.5 150.5 L 190.5 156.0 L 191.0 161.5 L 191.0 167.0 L 191.0 170.5 L 190.5 173.5 L 190.0 176.0 L 189.5 177.0 L 189.5 177.0 L 189.0 177.0 L 188.5 176.0 L 188.0 175.0 L 187.0 174.0 L 186.0 173.0 L 184.5 172.0 L 183.5 171.0 L 183.0 170.5 " stroke="black" fill="none" stroke-width="6.0" stroke-linecap="round" stroke-linejoin="round" />
<path d="M 180.0 130.5 L 180.5 130.5 L 181.0 130.0 L 181.5 130.0 L 182.0 131.0 L 182.5 132.0 L 183.0 133.5 L 183.5 134.5 " stroke="black" fill="none" stroke-width="6.0" stroke-linecap="round" stroke-linejoin="round" />
<path d="M 179.5 151.5 L 180.0 151.5 L 181.0 151.0 L 182.0 150.5 L 183.5 149.5 L 186.0 147.5 L 187.0 146.5 " stroke="black" fill="none" stroke-width="6.0" stroke-linecap="round" stroke-linejoin="round" />
</svg>