<svg xmlns="http://www.w3.org/2000/svg" width="300" height="300" viewBox="0 0 300 300">
<path d="M 121.5 100.0 L 121.5 100.0 L 120.0 100.0 L 119.0 99.5 L 118.5 99.5 L 120.0 99.5 L 122.5 99.0 L 127.5 98.0 L 131.0 97.5 L 139.0 96.5 L 141.5 96.5 L 145.5 96.0 L 146.0 96.0 " stroke="black" fill="none" stroke-width="7.0" stroke-linecap="round" stroke-linejoin="round" />
<path d="M 127.0 106.5 L 126.5 106.5 L 126.5 106.5 L 126.0 106.5 L 126.0 106.5 L 126.0 107.0 L 125.5 109.0 L 125.0 113.0 L 123.5 117.5 L 123.0 119.0 L 123.0 119.5 " stroke="black" fill="none" stroke-width="7.0" stroke-linecap="round" stroke-linejoin="round" />
<path d="M 128.0 113.0 L 127.5 113.5 L 126.5 114.0 L 127.5 113.5 L 129.5 112.5 L 134.0 111.0 L 138.5 110.0 L 143.0 109.5 L 145.5 109.5 L 146.5 109.5 " stroke="black" fill="none" stroke-width="7.0" stroke-linecap="round" stroke-linejoin="round" />
<path d="M 127.0 127.0 L 126.5 127.0 L 125.5 127.0 L 125.0 127.0 L 125.5 127.0 L 129.0 126.0 L 135.0 124.5 L 137.5 124.0 L 142.0 122.5 L 143.5 122.0 " stroke="black" fill="none" stroke-width="7.0" stroke-linecap="round" stroke-linejoin="round" />
<path d="M 134.5 113.0 L 135.0 113.0 L 135.0 114.0 L 135.0 115.0 L 135.0 117.0 L 135.0 120.5 L 133.0 127.0 L 129.5 134.5 L 127.5 138.0 L 126.5 139.0 L 126.5 137.5 " stroke="black" fill="none" stroke-width="7.0" stroke-linecap="round" stroke-linejoin="round" />
<path d="M 135.5 129.5 L 136.0 130.0 L 136.5 130.5 L 138.5 131.5 L 144.0 133.5 L 148.0 135.5 L 151.0 136.0 " stroke="black" fill="none" stroke-width="7.0" stroke-linecap="round" stroke-linejoin="round" />
<path d="M 113.0 102.0 L 113.0 102.0 L 113.0 102.0 L 113.5 101.5 L 113.5 101.0 L 113.5 101.0 L 113.5 101.0 L 113.5 103.0 L 113.5 106.5 L 114.0 113.5 L 114.0 122.0 L 114.0 130.0 L 114.5 137.0 L 114.5 141.5 L 115.0 145.0 L 115.5 147.5 L 116.0 149.0 L 116.5 149.0 L 117.0 149.0 L 118.0 149.0 L 120.0 148.5 L 122.5 148.0 L 125.0 148.0 L 132.5 147.5 L 139.5 146.5 L 149.0 145.0 L 153.5 144.5 L 155.5 144.5 L 155.5 145.0 L 155.0 145.0 L 153.5 144.5 " stroke="black" fill="none" stroke-width="7.0" stroke-linecap="round" stroke-linejoin="round" />
<path d="M 160.5 100.5 L 161.0 100.0 L 161.0 99.0 L 161.0 99.0 L 161.0 101.5 L 161.0 107.0 L 161.0 112.0 L 160.5 115.0 L 160.0 116.0 L 159.5 115.5 " stroke="black" fill="none" stroke-width="7.0" stroke-linecap="round" stroke-linejoin="round" />
<path d="M 161.5 101.5 L 160.5 101.0 L 160.0 100.5 L 160.0 100.0 L 160.5 100.0 L 163.0 99.0 L 165.5 98.0 L 168.0 97.5 L 170.0 97.5 L 172.5 97.5 L 174.5 98.0 L 175.5 98.5 L 176.5 99.0 L 176.5 99.0 L 176.5 99.5 L 176.5 100.0 L 176.0 101.0 L 176.0 102.5 L 175.0 105.0 L 174.5 108.5 L 174.5 112.0 L 174.5 114.5 L 176.0 115.0 L 178.0 114.5 L 180.5 112.5 L 182.0 111.5 L 183.0 111.5 L 183.0 111.5 " stroke="black" fill="none" stroke-width="7.0" stroke-linecap="round" stroke-linejoin="round" />
<path d="M 165.0 128.0 L 164.5 128.0 L 163.5 128.0 L 163.5 128.0 L 166.0 127.5 L 170.0 126.0 L 174.0 125.0 L 177.5 124.5 L 179.5 124.5 L 180.0 125.0 L 180.5 126.0 L 180.0 127.5 L 179.0 130.0 L 177.0 133.5 L 174.5 139.0 L 172.0 144.5 L 170.0 148.5 L 168.5 150.0 L 168.5 150.0 L 168.5 150.0 " stroke="black" fill="none" stroke-width="7.0" stroke-linecap="round" stroke-linejoin="round" />
<path d="M 166.5 135.5 L 166.5 135.5 L 165.5 135.5 L 165.0 135.5 L 164.5 135.5 L 164.5 135.5 L 165.0 136.0 L 167.0 137.5 L 171.0 139.0 L 178.0 142.0 L 186.5 146.0 L 192.5 148.5 L 194.5 149.5 L 195.0 149.5 L 194.5 149.0 " stroke="black" fill="none" stroke-width="7.0" stroke-linecap="round" stroke-linejoin="round" />
<path d="M 125.5 163.0 L 125.0 163.0 L 124.5 163.0 L 124.0 163.5 L 124.5 163.5 L 127.5 163.0 L 132.5 162.0 L 138.0 161.0 L 144.0 160.5 L 148.5 160.5 L 150.0 160.5 L 150.5 161.0 L 150.0 161.0 L 149.5 161.0 L 149.5 161.0 L 149.0 161.0 L 149.0 161.0 L 149.0 161.0 L 149.0 161.0 L 148.5 161.5 L 148.5 161.5 L 148.5 161.5 L 148.5 161.5 L 148.5 162.0 L 148.0 162.0 L 148.0 162.5 L 148.0 163.5 L 148.0 165.5 L 148.0 169.5 L 148.5 176.5 L 148.5 184.5 L 148.5 193.0 L 147.5 199.5 L 146.5 204.5 L 144.5 209.5 L 142.0 212.5 L 140.0 214.0 L 138.5 214.0 L 137.0 214.0 L 137.0 213.0 L 137.0 212.0 " stroke="black" fill="none" stroke-width="7.0" stroke-linecap="round" stroke-linejoin="round" />
<path d="M 128.0 173.0 L 127.0 173.0 L 126.5 173.5 L 126.5 174.0 L 129.0 175.5 L 132.0 177.5 L 134.0 179.0 L 135.0 180.0 L 135.0 180.0 " stroke="black" fill="none" stroke-width="7.0" stroke-linecap="round" stroke-linejoin="round" />
<path d="M 125.0 194.5 L 125.0 194.5 L 124.5 194.0 L 125.5 193.5 L 128.5 191.5 L 133.0 189.0 L 136.5 186.5 L 137.0 185.5 " stroke="black" fill="none" stroke-width="7.0" stroke-linecap="round" stroke-linejoin="round" />
<path d="M 159.5 160.0 L 159.0 160.0 L 158.5 160.0 L 158.5 160.0 L 158.5 160.0 L 161.5 160.0 L 166.0 159.5 L 171.0 158.5 L 175.5 158.0 L 178.0 157.5 L 179.0 157.5 L 179.0 157.5 L 179.0 158.0 L 179.0 158.0 L 178.5 158.0 L 178.5 158.0 L 178.5 158.0 L 178.5 158.0 L 178.5 158.0 L 178.0 158.0 L 178.0 158.0 L 178.0 158.0 L 178.0 158.5 L 178.0 158.5 L 178.0 159.0 L 177.5 159.5 L 177.5 160.5 L 177.5 162.5 L 177.5 166.5 L 177.5 174.5 L 177.5 183.5 L 178.0 191.5 L 178.5 198.5 L 178.5 204.5 L 177.5 209.0 L 176.5 211.0 L 175.0 211.5 L 173.0 212.0 L 170.5 211.5 L 168.0 210.0 L 166.0 208.0 L 166.0 207.0 " stroke="black" fill="none" stroke-width="7.0" stroke-linecap="round" stroke-linejoin="round" />
<path d="M 159.5 171.0 L 159.5 171.0 L 159.0 171.0 L 159.0 171.5 L 159.5 172.5 L 161.0 173.5 L 162.5 174.5 L 164.5 176.5 " stroke="black" fill="none" stroke-width="7.0" stroke-linecap="round" stroke-linejoin="round" />
<path d="M 160.5 190.5 L 160.5 190.5 L 160.5 190.5 L 160.5 190.5 L 160.5 190.0 L 162.0 189.0 L 164.5 187.5 L 166.5 186.0 " stroke="black" fill="none" stroke-width="7.0" stroke-linecap="round" stroke-linejoin="round" />
</svg>