<svg xmlns="http://www.w3.org/2000/svg" width="300" height="300" viewBox="0 0 300 300">
<path d="M 132.7777777777778 90.55555555555556 L 132.7777777777778 90.55555555555556 L 132.7777777777778 90.55555555555556 L 132.7777777777778 90.55555555555556 L 132.7777777777778 90.55555555555556 L 132.7777777777778 90.55555555555556 L 132.7777777777778 90.55555555555556 L 131.66666666666669 90.55555555555556 L 131.11111111111111 90.0 L 130.00000000000003 90.0 L 129.44444444444446 89.44444444444444 L 128.33333333333334 89.44444444444444 L 127.77777777777779 89.44444444444444 L 126.66666666666667 89.44444444444444 L 126.1111111111111 89.44444444444444 L 125.00000000000001 89.44444444444444 L 124.44444444444444 88.88888888888889 L 124.44444444444444 88.88888888888889 L 125.55555555555556 88.88888888888889 L 129.44444444444446 90.0 L 133.33333333333334 90.55555555555556 L 135.00000000000003 91.11111111111111 " stroke="black" fill="none" stroke-width="7.0" stroke-linecap="round" stroke-linejoin="round" />
<path d="M 158.8888888888889 82.77777777777777 L 159.44444444444446 82.77777777777777 L 160.55555555555557 82.77777777777777 L 161.66666666666669 82.77777777777777 L 161.66666666666669 82.77777777777777 L 161.66666666666669 82.77777777777777 L 160.00000000000003 85.0 L 156.66666666666669 89.44444444444444 L 153.33333333333334 93.33333333333333 L 152.22222222222223 94.44444444444444 " stroke="black" fill="none" stroke-width="7.0" stroke-linecap="round" stroke-linejoin="round" />
<path d="M 126.1111111111111 100.0 L 125.55555555555556 100.0 L 124.44444444444444 100.0 L 125.00000000000001 99.44444444444444 L 128.33333333333334 98.88888888888889 L 135.00000000000003 98.33333333333333 L 146.11111111111111 98.33333333333333 L 160.00000000000003 98.88888888888889 L 172.22222222222223 98.33333333333333 L 178.33333333333334 97.77777777777777 " stroke="black" fill="none" stroke-width="7.0" stroke-linecap="round" stroke-linejoin="round" />
<path d="M 127.22222222222221 108.33333333333333 L 127.22222222222221 108.33333333333333 L 127.22222222222221 108.33333333333333 L 127.22222222222221 108.33333333333333 L 127.22222222222221 108.33333333333333 L 127.22222222222221 109.44444444444444 L 127.77777777777779 114.44444444444444 L 127.77777777777779 125.00000000000001 L 127.22222222222221 135.55555555555557 L 127.22222222222221 139.44444444444446 L 126.66666666666667 138.33333333333334 " stroke="black" fill="none" stroke-width="7.0" stroke-linecap="round" stroke-linejoin="round" />
<path d="M 130.00000000000003 108.88888888888889 L 129.44444444444446 109.44444444444444 L 128.8888888888889 110.0 L 128.8888888888889 110.0 L 130.55555555555557 110.0 L 133.8888888888889 108.88888888888889 L 136.66666666666669 107.77777777777779 L 139.44444444444446 107.22222222222223 L 141.11111111111111 106.66666666666667 L 142.7777777777778 106.66666666666667 L 143.33333333333334 107.77777777777779 L 143.8888888888889 108.88888888888889 L 143.8888888888889 111.11111111111111 L 143.8888888888889 113.33333333333333 L 143.8888888888889 117.22222222222221 L 143.8888888888889 122.77777777777779 L 143.8888888888889 128.8888888888889 L 144.44444444444446 136.11111111111111 L 144.44444444444446 142.22222222222223 L 144.44444444444446 144.44444444444446 L 143.33333333333334 145.55555555555557 L 141.11111111111111 146.11111111111111 L 138.8888888888889 145.00000000000003 L 136.66666666666669 141.11111111111111 " stroke="black" fill="none" stroke-width="7.0" stroke-linecap="round" stroke-linejoin="round" />
<path d="M 131.11111111111111 122.77777777777779 L 131.11111111111111 122.77777777777779 L 130.00000000000003 122.77777777777779 L 129.44444444444446 122.77777777777779 L 130.55555555555557 122.77777777777779 L 132.7777777777778 122.22222222222221 L 136.11111111111111 122.22222222222221 L 137.7777777777778 122.22222222222221 " stroke="black" fill="none" stroke-width="7.0" stroke-linecap="round" stroke-linejoin="round" />
<path d="M 132.7777777777778 131.11111111111111 L 132.22222222222223 132.22222222222223 L 132.7777777777778 132.7777777777778 L 135.55555555555557 132.7777777777778 L 137.7777777777778 131.66666666666669 " stroke="black" fill="none" stroke-width="7.0" stroke-linecap="round" stroke-linejoin="round" />
<path d="M 156.11111111111111 115.00000000000001 L 156.66666666666669 114.44444444444444 L 157.22222222222223 113.8888888888889 L 157.7777777777778 113.33333333333333 L 157.7777777777778 112.77777777777779 L 157.7777777777778 113.33333333333333 L 157.7777777777778 117.77777777777779 L 157.7777777777778 126.66666666666667 L 157.7777777777778 135.00000000000003 L 157.7777777777778 138.8888888888889 " stroke="black" fill="none" stroke-width="7.0" stroke-linecap="round" stroke-linejoin="round" />
<path d="M 168.8888888888889 106.66666666666667 L 168.8888888888889 106.66666666666667 L 168.33333333333334 106.66666666666667 L 167.7777777777778 106.66666666666667 L 167.7777777777778 107.22222222222223 L 167.7777777777778 107.77777777777779 L 167.7777777777778 111.11111111111111 L 168.8888888888889 120.00000000000001 L 169.44444444444446 131.11111111111111 L 169.44444444444446 141.11111111111111 L 168.33333333333334 145.00000000000003 L 166.66666666666669 145.00000000000003 L 164.44444444444446 143.8888888888889 L 163.33333333333334 142.7777777777778 " stroke="black" fill="none" stroke-width="7.0" stroke-linecap="round" stroke-linejoin="round" />
<path d="M 125.55555555555556 156.66666666666669 L 123.33333333333333 157.7777777777778 L 122.22222222222221 158.33333333333334 L 122.22222222222221 157.7777777777778 L 124.44444444444444 157.22222222222223 L 126.66666666666667 156.66666666666669 L 129.44444444444446 156.11111111111111 L 132.22222222222223 156.11111111111111 L 135.00000000000003 156.11111111111111 L 137.7777777777778 155.55555555555557 L 140.00000000000003 155.55555555555557 L 141.11111111111111 155.55555555555557 L 141.66666666666669 155.55555555555557 L 141.66666666666669 155.55555555555557 L 141.66666666666669 155.55555555555557 L 142.22222222222223 155.55555555555557 L 142.22222222222223 155.55555555555557 L 142.22222222222223 155.55555555555557 L 142.22222222222223 155.55555555555557 L 142.22222222222223 155.55555555555557 L 142.22222222222223 155.55555555555557 L 142.22222222222223 155.55555555555557 L 142.22222222222223 155.55555555555557 L 142.22222222222223 155.55555555555557 L 142.22222222222223 155.55555555555557 L 141.66666666666669 155.55555555555557 L 141.66666666666669 156.11111111111111 L 141.66666666666669 156.11111111111111 L 141.66666666666669 157.22222222222223 L 141.11111111111111 158.8888888888889 L 141.11111111111111 162.22222222222223 L 141.11111111111111 167.7777777777778 L 141.11111111111111 173.8888888888889 L 141.11111111111111 181.66666666666669 L 141.11111111111111 188.8888888888889 L 141.11111111111111 195.00000000000003 L 141.11111111111111 200.00000000000003 L 141.11111111111111 203.8888888888889 L 141.11111111111111 206.11111111111114 L 140.55555555555557 207.22222222222223 L 139.44444444444446 207.22222222222223 L 136.66666666666669 206.66666666666669 L 133.8888888888889 205.00000000000003 L 131.66666666666669 202.22222222222223 " stroke="black" fill="none" stroke-width="7.0" stroke-linecap="round" stroke-linejoin="round" />
<path d="M 124.44444444444444 165.55555555555557 L 123.33333333333333 166.66666666666669 L 123.33333333333333 167.22222222222223 L 123.8888888888889 168.33333333333334 L 125.55555555555556 170.00000000000003 L 127.77777777777779 171.11111111111114 L 128.33333333333334 171.66666666666669 " stroke="black" fill="none" stroke-width="7.0" stroke-linecap="round" stroke-linejoin="round" />
<path d="M 123.8888888888889 190.00000000000003 L 122.77777777777779 188.8888888888889 L 122.77777777777779 187.22222222222223 L 125.00000000000001 185.55555555555557 L 128.33333333333334 183.33333333333334 " stroke="black" fill="none" stroke-width="7.0" stroke-linecap="round" stroke-linejoin="round" />
<path d="M 155.00000000000003 160.00000000000003 L 154.44444444444446 160.00000000000003 L 153.33333333333334 160.55555555555557 L 153.33333333333334 160.55555555555557 L 155.00000000000003 160.55555555555557 L 158.33333333333334 159.44444444444446 L 161.66666666666669 158.8888888888889 L 164.44444444444446 157.7777777777778 L 166.66666666666669 157.22222222222223 L 168.33333333333334 156.66666666666669 L 168.8888888888889 156.66666666666669 L 168.8888888888889 156.66666666666669 L 168.8888888888889 156.66666666666669 L 168.8888888888889 157.22222222222223 L 168.8888888888889 157.7777777777778 L 168.8888888888889 158.8888888888889 L 168.8888888888889 161.11111111111111 L 168.8888888888889 163.8888888888889 L 168.8888888888889 168.8888888888889 L 169.44444444444446 176.11111111111114 L 170.00000000000003 185.00000000000003 L 170.55555555555557 192.22222222222223 L 170.55555555555557 197.7777777777778 L 170.55555555555557 202.7777777777778 L 170.00000000000003 206.66666666666669 L 169.44444444444446 209.44444444444446 L 168.33333333333334 210.55555555555557 L 167.22222222222223 211.11111111111114 L 165.55555555555557 210.00000000000003 L 163.33333333333334 206.11111111111114 L 162.7777777777778 205.00000000000003 " stroke="black" fill="none" stroke-width="7.0" stroke-linecap="round" stroke-linejoin="round" />
<path d="M 152.7777777777778 171.11111111111114 L 152.7777777777778 171.11111111111114 L 152.22222222222223 171.66666666666669 L 153.33333333333334 172.7777777777778 L 155.00000000000003 173.33333333333334 L 156.11111111111111 173.8888888888889 " stroke="black" fill="none" stroke-width="7.0" stroke-linecap="round" stroke-linejoin="round" />
<path d="M 153.33333333333334 191.11111111111114 L 153.33333333333334 188.8888888888889 L 154.44444444444446 187.22222222222223 L 156.66666666666669 185.55555555555557 L 158.8888888888889 184.44444444444446 " stroke="black" fill="none" stroke-width="7.0" stroke-linecap="round" stroke-linejoin="round" />
</svg>