<svg xmlns="http://www.w3.org/2000/svg" width="300" height="300" viewBox="0 0 300 300">
<path d="M 76.66666666666667 91.66666666666667 L 75.0 91.11111111111111 L 74.44444444444444 90.55555555555556 L 75.0 90.55555555555556 L 82.22222222222223 89.44444444444444 L 95.0 87.22222222222223 L 108.33333333333333 85.55555555555556 L 118.8888888888889 85.0 L 123.33333333333333 87.22222222222223 L 123.33333333333333 91.66666666666667 L 123.33333333333333 97.77777777777777 L 122.22222222222221 106.66666666666667 L 122.22222222222221 121.66666666666667 L 122.77777777777779 142.7777777777778 L 125.00000000000001 166.11111111111114 L 126.66666666666667 185.55555555555557 L 127.22222222222221 203.8888888888889 L 127.22222222222221 220.55555555555557 L 124.44444444444444 232.22222222222226 L 120.55555555555556 240.00000000000003 L 115.55555555555556 241.6666666666667 L 108.88888888888889 239.44444444444449 L 102.77777777777777 231.66666666666669 L 101.11111111111111 227.22222222222223 " stroke="black" fill="none" stroke-width="12.0" stroke-linecap="round" stroke-linejoin="round" />
<path d="M 83.33333333333333 125.55555555555556 L 83.33333333333333 125.00000000000001 L 83.33333333333333 123.8888888888889 L 84.44444444444444 123.8888888888889 L 88.88888888888889 125.55555555555556 L 95.0 132.7777777777778 L 100.55555555555556 143.33333333333334 L 104.44444444444444 151.66666666666669 L 105.55555555555556 153.8888888888889 " stroke="black" fill="none" stroke-width="12.0" stroke-linecap="round" stroke-linejoin="round" />
<path d="M 86.11111111111111 206.11111111111114 L 86.11111111111111 205.55555555555557 L 86.11111111111111 203.8888888888889 L 88.33333333333333 198.33333333333334 L 96.11111111111111 186.11111111111114 L 105.0 175.00000000000003 L 107.77777777777779 171.11111111111114 " stroke="black" fill="none" stroke-width="12.0" stroke-linecap="round" stroke-linejoin="round" />
<path d="M 159.44444444444446 85.55555555555556 L 158.33333333333334 85.55555555555556 L 157.22222222222223 85.55555555555556 L 156.11111111111111 85.0 L 155.55555555555557 85.0 L 155.55555555555557 84.44444444444444 L 158.8888888888889 83.33333333333333 L 166.66666666666669 81.11111111111111 L 177.22222222222223 79.44444444444444 L 188.33333333333334 78.33333333333333 L 196.66666666666669 79.44444444444444 L 200.00000000000003 81.66666666666667 L 202.22222222222223 84.44444444444444 L 203.33333333333334 89.44444444444444 L 204.44444444444446 96.66666666666667 L 205.00000000000003 106.66666666666667 L 205.00000000000003 120.55555555555556 L 204.44444444444446 136.11111111111111 L 203.33333333333334 152.7777777777778 L 201.66666666666669 166.66666666666669 L 200.55555555555557 181.66666666666669 L 198.33333333333334 197.22222222222223 L 196.11111111111114 210.55555555555557 L 193.8888888888889 220.00000000000003 L 191.11111111111114 226.66666666666669 L 187.7777777777778 231.66666666666669 L 185.00000000000003 232.7777777777778 L 181.66666666666669 231.11111111111114 L 178.33333333333334 224.44444444444446 L 177.22222222222223 222.22222222222223 " stroke="black" fill="none" stroke-width="12.0" stroke-linecap="round" stroke-linejoin="round" />
<path d="M 161.11111111111111 120.55555555555556 L 161.11111111111111 120.55555555555556 L 161.11111111111111 120.55555555555556 L 161.11111111111111 120.00000000000001 L 164.44444444444446 122.77777777777779 L 170.55555555555557 128.8888888888889 L 177.7777777777778 136.66666666666669 L 183.33333333333334 142.22222222222223 L 185.00000000000003 145.00000000000003 L 185.00000000000003 146.11111111111111 " stroke="black" fill="none" stroke-width="12.0" stroke-linecap="round" stroke-linejoin="round" />
<path d="M 160.55555555555557 187.22222222222223 L 160.55555555555557 186.66666666666669 L 160.55555555555557 185.00000000000003 L 162.22222222222223 181.66666666666669 L 167.7777777777778 175.00000000000003 L 174.44444444444446 167.22222222222223 L 180.00000000000003 163.33333333333334 L 181.66666666666669 162.22222222222223 " stroke="black" fill="none" stroke-width="12.0" stroke-linecap="round" stroke-linejoin="round" />
</svg>