<svg xmlns="http://www.w3.org/2000/svg" width="300" height="300" viewBox="0 0 300 300">
<path d="M 140.5 116.5 L 140.5 116.5 L 141.0 116.5 L 141.5 116.5 L 141.5 116.0 L 141.5 116.0 L 140.5 116.0 L 138.5 117.0 L 135.0 119.0 L 130.0 121.0 L 125.5 123.0 L 121.5 124.5 L 119.5 125.5 L 118.0 125.5 L 117.0 125.5 L 116.0 126.0 L 115.5 126.0 L 115.5 126.0 L 115.5 126.0 L 115.5 126.0 L 115.5 126.0 L 115.5 126.0 L 115.5 126.0 L 115.5 126.0 L 115.5 126.0 L 115.5 126.0 L 115.5 126.0 L 116.0 126.5 L 116.0 127.5 L 116.5 130.5 L 116.5 136.0 L 116.5 143.5 L 116.5 151.0 L 116.5 157.5 L 116.0 164.5 L 115.5 171.5 L 115.0 176.0 L 114.5 179.0 L 113.5 181.0 L 112.0 182.5 L 111.0 184.5 L 109.5 187.0 L 109.0 188.0 L 109.0 187.0 " stroke="black" fill="none" stroke-width="6.0" stroke-linecap="round" stroke-linejoin="round" />
<path d="M 121.5 134.0 L 121.0 134.5 L 119.5 135.5 L 118.5 136.0 L 118.5 136.0 L 120.5 135.5 L 123.5 135.0 L 127.0 133.5 L 130.5 132.5 L 134.5 131.5 L 138.0 131.0 L 139.5 130.5 L 140.5 130.5 L 141.0 131.0 L 141.0 131.5 L 141.0 133.0 L 140.5 134.5 L 140.5 136.5 L 140.5 138.5 L 140.5 140.5 L 140.5 142.5 L 140.5 143.0 " stroke="black" fill="none" stroke-width="6.0" stroke-linecap="round" stroke-linejoin="round" />
<path d="M 121.0 149.5 L 121.0 149.5 L 120.0 150.0 L 120.5 150.0 L 123.0 149.0 L 127.0 148.0 L 131.5 147.5 L 135.5 147.0 L 139.0 146.5 L 139.5 146.5 " stroke="black" fill="none" stroke-width="6.0" stroke-linecap="round" stroke-linejoin="round" />
<path d="M 120.0 161.0 L 120.0 161.0 L 120.0 161.0 L 120.0 160.5 L 120.0 160.5 L 120.5 162.0 L 120.5 166.0 L 121.0 172.5 L 121.5 181.0 L 122.0 186.5 L 122.5 188.5 L 122.5 188.0 L 122.5 186.0 " stroke="black" fill="none" stroke-width="6.0" stroke-linecap="round" stroke-linejoin="round" />
<path d="M 121.0 159.5 L 120.5 159.5 L 120.5 159.5 L 121.0 159.0 L 122.5 159.0 L 124.5 159.0 L 125.5 159.0 " stroke="black" fill="none" stroke-width="6.0" stroke-linecap="round" stroke-linejoin="round" />
<path d="M 125.0 158.5 L 124.5 158.5 L 123.5 159.0 L 123.0 159.5 L 123.0 159.5 L 123.0 159.5 L 124.0 159.5 L 126.0 159.5 L 128.5 159.0 L 131.5 158.5 L 135.0 158.0 L 138.0 158.0 L 140.0 157.5 L 141.5 157.5 L 142.0 157.5 L 142.0 157.5 L 142.0 157.5 L 142.0 157.5 L 142.0 157.5 L 142.5 157.5 L 142.5 157.5 L 142.5 157.5 L 142.5 157.5 L 142.5 157.5 L 143.0 157.5 L 143.0 157.5 L 143.5 157.5 L 143.5 157.0 L 144.0 157.0 L 144.0 157.0 L 144.0 157.0 L 144.5 157.0 L 144.5 157.0 L 144.5 157.0 L 144.5 157.5 L 145.0 158.5 L 145.0 160.0 L 145.0 161.5 L 145.0 164.0 L 145.0 166.5 L 145.0 169.0 L 145.0 172.0 L 145.0 175.0 L 145.0 178.5 L 145.0 181.0 L 145.5 184.0 L 145.5 186.0 L 145.5 187.5 L 145.5 189.0 L 145.5 190.0 L 145.5 191.0 L 145.5 192.0 L 145.5 192.5 L 145.5 193.0 L 145.5 193.0 L 145.0 193.0 L 144.0 193.0 L 143.0 193.0 L 141.5 193.0 " stroke="black" fill="none" stroke-width="6.0" stroke-linecap="round" stroke-linejoin="round" />
<path d="M 124.0 172.5 L 123.0 172.5 L 122.5 173.0 L 123.0 173.0 L 126.5 173.0 L 131.0 172.5 L 136.0 172.0 L 141.0 172.0 L 144.0 172.5 L 145.0 172.5 L 145.0 172.5 " stroke="black" fill="none" stroke-width="6.0" stroke-linecap="round" stroke-linejoin="round" />
<path d="M 129.0 159.5 L 129.0 160.0 L 129.0 161.0 L 129.0 162.5 L 129.0 166.0 L 129.5 172.5 L 129.5 180.5 L 129.5 186.5 L 129.5 189.5 L 130.0 189.5 " stroke="black" fill="none" stroke-width="6.0" stroke-linecap="round" stroke-linejoin="round" />
<path d="M 135.5 160.0 L 135.5 160.0 L 136.0 160.5 L 136.5 161.0 L 136.5 162.5 L 137.0 165.5 L 137.0 172.5 L 137.0 181.5 L 137.0 188.5 L 137.0 191.5 " stroke="black" fill="none" stroke-width="6.0" stroke-linecap="round" stroke-linejoin="round" />
<path d="M 154.0 120.0 L 154.0 120.0 L 154.0 120.0 L 153.5 120.0 L 153.5 120.0 L 154.5 120.0 L 157.0 120.0 L 159.5 120.0 L 161.5 120.0 L 162.5 120.0 L 163.0 120.0 L 163.0 120.5 L 163.0 122.5 L 162.5 125.5 L 162.5 130.5 L 162.0 137.5 L 162.0 145.5 L 163.0 152.5 L 164.0 159.0 L 164.5 164.5 L 164.5 170.5 L 164.5 176.0 L 164.5 180.5 L 164.5 184.0 L 164.5 187.0 L 164.0 190.5 L 163.0 193.0 L 162.5 194.0 L 162.0 194.0 L 161.0 193.0 L 159.0 190.5 L 157.0 187.5 L 156.5 187.0 " stroke="black" fill="none" stroke-width="6.0" stroke-linecap="round" stroke-linejoin="round" />
<path d="M 152.5 140.0 L 153.0 140.0 L 153.5 140.0 L 153.5 140.0 L 154.0 140.5 L 154.5 141.5 L 155.0 143.5 L 155.5 145.0 " stroke="black" fill="none" stroke-width="6.0" stroke-linecap="round" stroke-linejoin="round" />
<path d="M 151.5 167.0 L 151.5 167.0 L 152.0 167.0 L 152.5 167.0 L 153.5 165.5 L 155.0 163.0 L 156.0 160.0 " stroke="black" fill="none" stroke-width="6.0" stroke-linecap="round" stroke-linejoin="round" />
<path d="M 174.5 119.0 L 174.0 119.5 L 173.5 119.5 L 173.5 120.0 L 173.5 120.0 L 175.0 120.0 L 177.0 120.0 L 179.5 119.5 L 181.0 119.5 L 182.0 121.0 L 182.5 124.0 L 182.5 130.5 L 182.5 140.0 L 182.5 152.0 L 182.5 162.5 L 182.5 169.5 L 182.5 175.0 L 182.5 179.5 L 182.5 183.5 L 182.0 185.5 L 181.5 185.5 L 180.5 186.0 L 179.5 186.0 L 178.5 185.0 L 177.5 184.0 " stroke="black" fill="none" stroke-width="6.0" stroke-linecap="round" stroke-linejoin="round" />
<path d="M 171.5 138.5 L 170.5 139.0 L 170.0 139.5 L 170.0 140.0 L 171.0 141.0 L 172.5 142.0 L 174.0 143.5 L 175.0 144.5 " stroke="black" fill="none" stroke-width="6.0" stroke-linecap="round" stroke-linejoin="round" />
<path d="M 172.0 164.0 L 172.0 164.5 L 172.0 165.0 L 172.0 165.0 L 173.0 163.5 L 174.5 161.0 L 176.0 158.5 L 177.5 156.0 " stroke="black" fill="none" stroke-width="6.0" stroke-linecap="round" stroke-linejoin="round" />
</svg>