<svg xmlns="http://www.w3.org/2000/svg" width="300" height="300" viewBox="0 0 300 300">
<path d="M 123.0 89.5 L 122.5 89.5 L 121.5 89.5 L 121.5 90.5 L 124.5 95.0 L 130.0 101.5 L 135.5 105.5 L 140.0 106.5 L 145.0 106.5 " stroke="black" fill="none" stroke-width="9.0" stroke-linecap="round" stroke-linejoin="round" />
<path d="M 174.0 92.0 L 174.0 92.0 L 174.0 92.0 L 174.0 92.0 L 174.0 93.0 L 171.5 98.5 L 168.0 106.5 L 166.5 110.5 L 166.5 110.5 " stroke="black" fill="none" stroke-width="9.0" stroke-linecap="round" stroke-linejoin="round" />
<path d="M 122.5 124.5 L 123.0 123.5 L 126.5 122.5 L 137.0 120.0 L 151.5 117.5 L 166.0 116.5 L 176.0 116.0 L 183.0 115.5 L 184.0 115.5 " stroke="black" fill="none" stroke-width="9.0" stroke-linecap="round" stroke-linejoin="round" />
<path d="M 136.5 145.0 L 138.0 145.0 L 141.5 144.5 L 147.5 144.0 L 157.0 143.0 L 166.0 141.5 L 172.0 141.0 " stroke="black" fill="none" stroke-width="9.0" stroke-linecap="round" stroke-linejoin="round" />
<path d="M 156.5 123.5 L 157.0 123.5 L 157.5 123.5 L 157.5 123.5 L 158.0 127.5 L 157.0 139.0 L 156.0 155.5 L 156.0 166.0 L 157.5 168.0 L 158.0 167.5 " stroke="black" fill="none" stroke-width="9.0" stroke-linecap="round" stroke-linejoin="round" />
<path d="M 127.5 173.0 L 127.5 173.0 L 127.5 173.0 L 130.0 172.5 L 139.5 170.0 L 154.5 167.5 L 170.0 166.0 L 181.5 166.0 L 187.5 166.0 L 188.5 166.0 " stroke="black" fill="none" stroke-width="9.0" stroke-linecap="round" stroke-linejoin="round" />
<path d="M 132.0 183.0 L 132.0 183.0 L 132.0 183.0 L 132.0 183.5 L 131.5 184.0 L 129.5 187.5 L 125.5 193.5 L 123.0 198.5 L 123.0 199.0 " stroke="black" fill="none" stroke-width="9.0" stroke-linecap="round" stroke-linejoin="round" />
<path d="M 149.0 185.0 L 148.5 185.0 L 148.5 185.0 L 148.5 185.5 L 150.0 189.0 L 154.0 193.5 L 158.0 195.5 " stroke="black" fill="none" stroke-width="9.0" stroke-linecap="round" stroke-linejoin="round" />
<path d="M 169.0 181.5 L 169.0 181.5 L 168.5 182.5 L 169.0 183.5 L 172.0 186.0 L 176.5 188.5 L 178.5 190.0 " stroke="black" fill="none" stroke-width="9.0" stroke-linecap="round" stroke-linejoin="round" />
<path d="M 194.5 180.5 L 194.5 180.5 L 194.5 181.5 L 198.5 184.0 L 206.0 188.5 L 213.5 193.0 L 215.0 194.5 " stroke="black" fill="none" stroke-width="9.0" stroke-linecap="round" stroke-linejoin="round" />
</svg>