<svg xmlns="http://www.w3.org/2000/svg" width="300" height="300" viewBox="0 0 300 300">
<path d="M 131.5 90.0 L 131.0 90.5 L 130.5 91.5 L 132.0 93.5 L 136.5 96.0 L 142.0 97.5 L 146.5 98.0 " stroke="black" fill="none" stroke-width="8.0" stroke-linecap="round" stroke-linejoin="round" />
<path d="M 172.0 90.0 L 172.0 90.0 L 171.5 90.5 L 171.0 91.0 L 170.0 92.5 L 167.5 97.5 L 163.0 103.0 L 160.0 106.0 L 160.0 106.0 " stroke="black" fill="none" stroke-width="8.0" stroke-linecap="round" stroke-linejoin="round" />
<path d="M 127.0 114.5 L 127.0 114.5 L 128.5 114.0 L 133.0 113.5 L 145.0 112.0 L 157.5 111.5 L 166.5 111.5 L 172.0 111.5 L 175.0 111.5 L 175.0 111.5 " stroke="black" fill="none" stroke-width="8.0" stroke-linecap="round" stroke-linejoin="round" />
<path d="M 142.0 131.5 L 142.0 131.5 L 141.5 132.0 L 141.0 132.5 L 143.0 132.5 L 147.5 132.5 L 154.5 131.5 L 161.0 130.5 L 165.5 130.0 L 165.5 130.0 " stroke="black" fill="none" stroke-width="8.0" stroke-linecap="round" stroke-linejoin="round" />
<path d="M 124.5 149.5 L 124.5 149.5 L 123.5 150.0 L 123.0 150.0 L 124.0 150.0 L 129.0 150.0 L 139.5 149.5 L 154.0 148.0 L 170.0 146.5 L 181.5 146.0 L 186.0 146.0 L 186.0 147.5 " stroke="black" fill="none" stroke-width="8.0" stroke-linecap="round" stroke-linejoin="round" />
<path d="M 141.0 167.0 L 140.5 167.0 L 138.5 167.0 L 137.5 167.0 L 137.0 167.0 L 138.5 167.5 L 143.5 167.5 L 152.0 167.5 L 162.5 167.5 L 173.0 166.5 L 178.5 165.5 L 179.5 164.5 L 178.5 164.5 " stroke="black" fill="none" stroke-width="8.0" stroke-linecap="round" stroke-linejoin="round" />
<path d="M 154.5 111.0 L 154.5 111.5 L 155.0 112.0 L 155.5 112.5 L 155.5 114.0 L 155.5 119.0 L 156.0 129.5 L 156.5 144.5 L 156.5 159.0 L 155.0 172.0 L 151.0 182.5 L 144.5 192.5 L 138.0 199.0 L 135.0 201.5 L 134.0 201.5 L 134.0 199.5 " stroke="black" fill="none" stroke-width="8.0" stroke-linecap="round" stroke-linejoin="round" />
<path d="M 157.0 178.5 L 158.0 178.5 L 159.0 179.0 L 164.0 182.5 L 175.0 190.5 L 187.0 198.0 L 195.5 201.5 L 201.0 203.0 L 203.0 203.0 " stroke="black" fill="none" stroke-width="8.0" stroke-linecap="round" stroke-linejoin="round" />
</svg>