<svg xmlns="http://www.w3.org/2000/svg" width="300" height="300" viewBox="0 0 300 300">
<path d="M 144.5 101.0 L 144.5 101.0 L 144.0 101.0 L 144.0 100.5 L 143.5 100.0 L 144.0 100.0 L 144.5 101.5 L 145.5 105.0 L 145.5 111.5 L 145.0 121.0 L 143.5 129.5 L 142.0 134.5 L 140.5 137.0 L 140.0 137.0 L 139.5 136.0 L 139.5 135.5 " stroke="black" fill="none" stroke-width="6.0" stroke-linecap="round" stroke-linejoin="round" />
<path d="M 130.0 107.5 L 130.0 108.5 L 130.0 108.5 L 130.0 109.0 L 132.5 109.0 L 136.0 108.5 L 139.5 107.5 L 142.0 107.5 L 144.0 107.0 " stroke="black" fill="none" stroke-width="6.0" stroke-linecap="round" stroke-linejoin="round" />
<path d="M 134.0 115.5 L 134.0 116.0 L 133.5 116.0 L 133.0 116.0 L 133.0 116.0 L 133.0 116.0 L 134.5 116.0 L 137.5 116.0 L 140.0 116.0 L 142.5 115.5 " stroke="black" fill="none" stroke-width="6.0" stroke-linecap="round" stroke-linejoin="round" />
<path d="M 130.0 125.0 L 130.0 125.0 L 130.0 125.0 L 130.0 125.0 L 130.5 125.0 L 133.0 125.0 L 137.0 125.0 L 141.0 124.5 " stroke="black" fill="none" stroke-width="6.0" stroke-linecap="round" stroke-linejoin="round" />
<path d="M 153.0 102.0 L 153.0 101.5 L 153.5 101.0 L 153.5 101.0 L 154.5 103.0 L 156.0 109.0 L 156.5 120.5 L 156.5 132.0 L 156.5 137.5 L 157.0 138.0 L 157.0 136.5 " stroke="black" fill="none" stroke-width="6.0" stroke-linecap="round" stroke-linejoin="round" />
<path d="M 159.5 108.0 L 159.5 108.5 L 159.5 109.0 L 159.5 109.0 L 160.5 109.0 L 162.0 108.5 L 164.5 108.0 L 166.5 108.0 L 167.5 108.0 " stroke="black" fill="none" stroke-width="6.0" stroke-linecap="round" stroke-linejoin="round" />
<path d="M 160.5 117.5 L 160.5 117.5 L 160.5 118.0 L 160.5 118.0 L 161.5 118.0 L 163.5 117.5 L 166.5 117.5 L 167.5 117.5 " stroke="black" fill="none" stroke-width="6.0" stroke-linecap="round" stroke-linejoin="round" />
<path d="M 159.0 126.0 L 159.0 127.0 L 158.5 127.5 L 159.0 128.0 L 160.5 128.0 L 163.5 127.5 L 167.0 127.0 L 168.5 126.5 " stroke="black" fill="none" stroke-width="6.0" stroke-linecap="round" stroke-linejoin="round" />
<path d="M 131.0 147.0 L 131.0 147.0 L 131.5 147.0 L 132.0 147.0 L 134.0 147.0 L 137.0 147.0 L 140.5 146.0 L 143.0 145.5 L 144.5 145.5 L 145.5 145.0 L 146.0 145.0 L 146.0 145.0 L 146.0 145.0 L 145.5 145.5 L 145.5 146.0 L 145.0 147.0 L 144.5 148.5 L 144.0 151.0 L 143.5 154.5 L 143.5 160.0 L 143.5 166.5 L 143.5 172.0 L 143.5 176.5 L 143.5 180.0 L 143.0 183.0 L 142.5 184.5 L 142.0 186.0 L 141.0 187.0 L 140.5 187.5 L 139.5 187.5 L 138.0 187.0 L 136.5 184.5 L 135.5 183.0 " stroke="black" fill="none" stroke-width="6.0" stroke-linecap="round" stroke-linejoin="round" />
<path d="M 131.0 159.5 L 131.0 159.5 L 130.5 159.5 L 130.0 159.5 L 131.0 159.5 L 132.5 160.5 L 135.0 161.0 L 136.0 161.5 " stroke="black" fill="none" stroke-width="6.0" stroke-linecap="round" stroke-linejoin="round" />
<path d="M 131.0 171.5 L 130.5 171.5 L 130.0 172.5 L 130.0 172.5 L 130.0 172.5 L 131.5 172.5 L 133.0 172.5 L 135.0 171.5 L 136.0 170.5 " stroke="black" fill="none" stroke-width="6.0" stroke-linecap="round" stroke-linejoin="round" />
<path d="M 157.0 147.5 L 157.0 147.5 L 157.0 146.5 L 157.0 146.5 L 157.0 146.0 L 158.0 146.0 L 160.5 146.0 L 163.5 146.0 L 166.5 146.0 L 168.0 146.5 L 169.0 146.5 L 169.0 147.0 L 169.0 147.5 L 168.5 148.5 L 167.5 151.0 L 166.5 155.5 L 165.5 162.0 L 165.0 169.0 L 164.5 175.5 L 164.5 180.5 L 164.5 184.5 L 165.0 186.5 L 165.5 187.0 L 165.5 187.5 L 165.0 187.5 L 163.5 187.5 L 161.5 186.5 L 160.0 185.5 L 158.5 184.0 L 158.0 183.0 " stroke="black" fill="none" stroke-width="6.0" stroke-linecap="round" stroke-linejoin="round" />
<path d="M 153.0 158.0 L 152.5 158.0 L 152.5 158.0 L 152.5 158.0 L 152.5 158.0 L 152.5 158.0 L 154.0 159.5 L 155.5 160.5 L 156.0 161.5 " stroke="black" fill="none" stroke-width="6.0" stroke-linecap="round" stroke-linejoin="round" />
<path d="M 152.0 170.0 L 152.0 171.0 L 152.0 171.5 L 152.5 172.0 L 153.5 172.5 L 155.0 171.5 L 157.0 169.5 L 158.0 169.0 " stroke="black" fill="none" stroke-width="6.0" stroke-linecap="round" stroke-linejoin="round" />
</svg>