<svg xmlns="http://www.w3.org/2000/svg" width="300" height="300" viewBox="0 0 300 300">
<path d="M 73.33333333333333 78.88888888888889 L 71.11111111111111 80.0 L 71.11111111111111 81.66666666666667 L 74.44444444444444 85.55555555555556 L 80.0 90.0 L 86.66666666666667 92.77777777777777 L 89.44444444444444 92.77777777777777 " stroke="black" fill="none" stroke-width="12.0" stroke-linecap="round" stroke-linejoin="round" />
<path d="M 121.1111111111111 79.44444444444444 L 120.55555555555556 79.44444444444444 L 118.33333333333333 80.55555555555556 L 117.22222222222221 81.66666666666667 L 116.1111111111111 85.0 L 113.8888888888889 91.11111111111111 L 111.11111111111111 98.33333333333333 L 106.66666666666667 103.33333333333333 " stroke="black" fill="none" stroke-width="12.0" stroke-linecap="round" stroke-linejoin="round" />
<path d="M 70.0 121.66666666666667 L 68.88888888888889 121.66666666666667 L 68.33333333333333 121.66666666666667 L 71.66666666666667 121.1111111111111 L 81.66666666666667 118.8888888888889 L 97.22222222222223 116.1111111111111 L 112.22222222222221 115.55555555555556 L 122.77777777777779 115.55555555555556 L 127.22222222222221 116.66666666666667 L 127.22222222222221 117.22222222222221 " stroke="black" fill="none" stroke-width="12.0" stroke-linecap="round" stroke-linejoin="round" />
<path d="M 66.66666666666667 161.11111111111111 L 66.66666666666667 161.11111111111111 L 66.66666666666667 160.55555555555557 L 66.66666666666667 160.00000000000003 L 70.55555555555556 159.44444444444446 L 80.55555555555556 158.8888888888889 L 94.44444444444444 158.8888888888889 L 106.66666666666667 158.33333333333334 L 116.1111111111111 156.66666666666669 L 118.33333333333333 155.00000000000003 " stroke="black" fill="none" stroke-width="12.0" stroke-linecap="round" stroke-linejoin="round" />
<path d="M 63.33333333333333 195.55555555555557 L 64.44444444444444 195.55555555555557 L 66.66666666666667 195.55555555555557 L 73.88888888888889 195.55555555555557 L 87.22222222222223 195.00000000000003 L 101.11111111111111 192.7777777777778 L 111.11111111111111 187.7777777777778 " stroke="black" fill="none" stroke-width="12.0" stroke-linecap="round" stroke-linejoin="round" />
<path d="M 98.33333333333333 125.55555555555556 L 97.22222222222223 126.66666666666667 L 96.11111111111111 127.77777777777779 L 96.11111111111111 131.66666666666669 L 96.66666666666667 140.55555555555557 L 97.22222222222223 157.7777777777778 L 96.66666666666667 180.55555555555557 L 92.77777777777777 201.66666666666669 L 87.22222222222223 217.7777777777778 L 79.44444444444444 231.66666666666669 L 72.22222222222221 242.22222222222226 L 67.77777777777777 245.55555555555557 L 67.22222222222221 245.00000000000003 " stroke="black" fill="none" stroke-width="12.0" stroke-linecap="round" stroke-linejoin="round" />
<path d="M 133.33333333333334 85.0 L 132.7777777777778 85.0 L 132.22222222222223 85.0 L 133.8888888888889 85.0 L 139.44444444444446 83.33333333333333 L 148.33333333333334 81.66666666666667 L 158.33333333333334 80.55555555555556 L 162.7777777777778 81.66666666666667 L 163.8888888888889 85.55555555555556 L 162.7777777777778 90.55555555555556 L 161.11111111111111 96.66666666666667 L 160.00000000000003 107.22222222222223 L 160.00000000000003 122.22222222222221 L 160.00000000000003 138.33333333333334 L 160.55555555555557 155.00000000000003 L 161.66666666666669 172.7777777777778 L 163.33333333333334 188.8888888888889 L 163.33333333333334 205.00000000000003 L 162.22222222222223 219.44444444444446 L 159.44444444444446 230.00000000000003 L 155.00000000000003 237.22222222222226 L 149.44444444444446 240.00000000000003 L 145.00000000000003 239.44444444444449 L 142.7777777777778 233.8888888888889 L 141.66666666666669 228.33333333333334 " stroke="black" fill="none" stroke-width="12.0" stroke-linecap="round" stroke-linejoin="round" />
<path d="M 138.33333333333334 119.44444444444444 L 137.7777777777778 118.8888888888889 L 137.22222222222223 118.8888888888889 L 137.7777777777778 122.22222222222221 L 140.00000000000003 131.11111111111111 L 143.33333333333334 143.33333333333334 L 145.55555555555557 150.55555555555557 L 147.22222222222223 153.33333333333334 " stroke="black" fill="none" stroke-width="12.0" stroke-linecap="round" stroke-linejoin="round" />
<path d="M 133.8888888888889 205.00000000000003 L 133.8888888888889 205.55555555555557 L 134.44444444444446 205.55555555555557 L 135.00000000000003 203.33333333333334 L 138.33333333333334 197.22222222222223 L 144.44444444444446 186.66666666666669 L 151.66666666666669 173.8888888888889 " stroke="black" fill="none" stroke-width="12.0" stroke-linecap="round" stroke-linejoin="round" />
<path d="M 190.00000000000003 91.66666666666667 L 188.33333333333334 91.11111111111111 L 187.22222222222223 90.55555555555556 L 187.7777777777778 89.44444444444444 L 191.66666666666669 87.22222222222223 L 197.22222222222223 84.44444444444444 L 205.55555555555557 80.55555555555556 L 212.22222222222223 79.44444444444444 L 216.11111111111114 80.0 L 216.66666666666669 84.44444444444444 L 217.22222222222223 91.11111111111111 L 217.7777777777778 102.77777777777777 L 217.7777777777778 120.00000000000001 L 219.44444444444446 138.8888888888889 L 221.11111111111114 158.8888888888889 L 223.33333333333334 177.7777777777778 L 225.55555555555557 193.33333333333334 L 225.55555555555557 209.44444444444446 L 223.33333333333334 226.66666666666669 L 220.55555555555557 237.22222222222226 L 217.7777777777778 242.22222222222226 L 215.00000000000003 242.22222222222226 L 210.00000000000003 236.11111111111114 L 204.44444444444446 227.7777777777778 L 201.11111111111114 221.11111111111114 L 200.55555555555557 220.00000000000003 " stroke="black" fill="none" stroke-width="12.0" stroke-linecap="round" stroke-linejoin="round" />
<path d="M 191.66666666666669 118.8888888888889 L 190.00000000000003 118.8888888888889 L 189.44444444444446 118.8888888888889 L 190.55555555555557 121.66666666666667 L 193.8888888888889 128.33333333333334 L 197.7777777777778 137.22222222222223 L 201.66666666666669 143.8888888888889 L 203.8888888888889 146.66666666666669 L 204.44444444444446 146.66666666666669 " stroke="black" fill="none" stroke-width="12.0" stroke-linecap="round" stroke-linejoin="round" />
<path d="M 187.7777777777778 196.11111111111114 L 187.22222222222223 196.11111111111114 L 187.22222222222223 195.55555555555557 L 189.44444444444446 189.44444444444446 L 193.8888888888889 182.22222222222223 L 197.7777777777778 176.66666666666669 L 201.11111111111114 173.8888888888889 " stroke="black" fill="none" stroke-width="12.0" stroke-linecap="round" stroke-linejoin="round" />
</svg>