<svg xmlns="http://www.w3.org/2000/svg" width="300" height="300" viewBox="0 0 300 300">
<path d="M 88.5 99.0 L 88.5 99.0 L 88.5 99.0 L 88.5 98.5 L 89.0 98.5 L 92.5 98.5 L 101.0 98.0 L 110.0 97.5 L 115.5 96.5 L 117.0 96.0 L 115.5 96.5 " stroke="black" fill="none" stroke-width="8.0" stroke-linecap="round" stroke-linejoin="round" />
<path d="M 94.0 101.5 L 94.0 101.0 L 94.5 101.0 L 94.5 101.0 L 95.0 101.0 L 95.5 104.5 L 96.0 112.5 L 96.0 125.0 L 96.0 138.0 L 96.0 147.5 L 96.0 154.0 L 97.0 159.0 L 97.5 162.5 L 97.5 165.5 L 98.0 167.5 L 98.0 168.0 L 98.0 168.0 L 98.5 166.5 L 98.5 165.0 L 98.5 164.5 " stroke="black" fill="none" stroke-width="8.0" stroke-linecap="round" stroke-linejoin="round" />
<path d="M 113.5 103.5 L 114.0 103.5 L 114.0 103.5 L 114.5 104.0 L 114.5 106.0 L 114.5 111.0 L 114.5 119.5 L 114.5 132.0 L 115.0 145.5 L 115.5 157.0 L 116.0 167.0 L 116.0 177.5 L 116.0 187.5 L 116.0 195.5 L 116.0 200.5 L 117.0 204.0 L 118.0 206.0 L 118.5 206.5 L 118.5 205.5 " stroke="black" fill="none" stroke-width="8.0" stroke-linecap="round" stroke-linejoin="round" />
<path d="M 99.5 119.0 L 99.0 119.0 L 99.0 119.0 L 99.0 119.0 L 100.5 119.0 L 103.0 119.0 L 106.0 118.0 L 108.5 118.0 L 110.0 117.5 " stroke="black" fill="none" stroke-width="8.0" stroke-linecap="round" stroke-linejoin="round" />
<path d="M 100.0 139.5 L 99.0 139.5 L 98.5 139.5 L 98.5 139.5 L 100.0 139.5 L 102.0 139.0 L 104.5 138.0 L 107.0 137.5 L 110.0 136.5 L 112.0 136.0 " stroke="black" fill="none" stroke-width="8.0" stroke-linecap="round" stroke-linejoin="round" />
<path d="M 84.5 173.0 L 84.5 173.0 L 84.5 173.5 L 86.0 173.5 L 91.0 171.5 L 100.5 167.5 L 110.0 164.0 L 116.5 161.5 L 120.0 160.5 L 120.5 160.0 L 121.0 160.0 " stroke="black" fill="none" stroke-width="8.0" stroke-linecap="round" stroke-linejoin="round" />
<path d="M 145.0 88.5 L 144.5 89.0 L 143.5 89.5 L 144.0 90.5 L 145.5 93.5 L 147.5 96.5 L 149.0 98.0 L 149.5 98.5 " stroke="black" fill="none" stroke-width="8.0" stroke-linecap="round" stroke-linejoin="round" />
<path d="M 132.0 104.5 L 132.0 104.5 L 131.5 104.5 L 131.5 104.5 L 134.0 104.5 L 140.5 104.5 L 149.5 104.0 L 158.0 102.0 L 162.5 101.0 L 162.5 101.5 " stroke="black" fill="none" stroke-width="8.0" stroke-linecap="round" stroke-linejoin="round" />
<path d="M 138.5 121.0 L 137.5 120.0 L 136.5 119.0 L 136.0 118.5 L 136.0 118.0 L 137.0 119.5 L 139.5 122.5 L 142.5 126.0 L 145.0 128.0 L 146.5 128.0 " stroke="black" fill="none" stroke-width="8.0" stroke-linecap="round" stroke-linejoin="round" />
<path d="M 157.5 114.0 L 157.5 114.0 L 157.5 114.5 L 157.5 115.0 L 157.5 116.0 L 157.5 119.0 L 157.5 123.5 L 156.5 127.5 " stroke="black" fill="none" stroke-width="8.0" stroke-linecap="round" stroke-linejoin="round" />
<path d="M 127.0 146.5 L 127.0 146.0 L 127.0 146.0 L 129.5 145.0 L 140.5 142.5 L 160.0 138.5 L 179.5 136.5 L 195.0 136.0 L 205.5 136.0 L 210.0 137.0 L 210.5 137.5 L 209.5 137.5 L 208.5 136.0 " stroke="black" fill="none" stroke-width="8.0" stroke-linecap="round" stroke-linejoin="round" />
<path d="M 174.0 90.0 L 174.5 90.0 L 174.5 90.5 L 175.0 91.5 L 176.5 95.0 L 179.0 105.5 L 183.5 126.5 L 187.5 152.0 L 191.0 173.0 L 196.0 188.0 L 202.0 198.0 L 208.0 204.5 L 213.0 207.5 L 216.0 206.5 L 217.5 202.0 L 218.0 196.5 L 216.5 191.5 L 216.0 189.0 " stroke="black" fill="none" stroke-width="8.0" stroke-linecap="round" stroke-linejoin="round" />
<path d="M 206.5 152.5 L 206.5 153.0 L 206.5 153.5 L 206.5 154.5 L 205.5 158.0 L 203.5 166.5 L 198.5 178.5 L 191.5 188.5 L 185.5 192.5 L 184.5 192.0 L 184.5 191.5 " stroke="black" fill="none" stroke-width="8.0" stroke-linecap="round" stroke-linejoin="round" />
<path d="M 148.0 157.0 L 148.0 157.0 L 147.5 157.0 L 147.5 158.0 L 148.0 161.5 L 149.0 169.5 L 149.5 179.0 L 149.5 186.0 L 149.5 189.0 L 149.5 189.0 " stroke="black" fill="none" stroke-width="8.0" stroke-linecap="round" stroke-linejoin="round" />
<path d="M 154.0 158.0 L 153.5 158.0 L 153.0 158.0 L 153.0 158.0 L 156.0 157.5 L 160.5 156.0 L 164.5 154.5 L 166.5 153.5 L 167.5 153.5 L 168.0 155.0 L 168.0 158.5 L 168.0 165.5 L 168.0 175.5 L 168.0 185.5 L 168.0 192.0 L 168.0 194.0 L 168.0 192.5 " stroke="black" fill="none" stroke-width="8.0" stroke-linecap="round" stroke-linejoin="round" />
<path d="M 153.5 176.0 L 153.0 177.0 L 152.5 177.5 L 155.0 177.0 L 159.5 176.0 L 164.0 174.5 L 167.0 173.5 L 168.0 173.5 " stroke="black" fill="none" stroke-width="8.0" stroke-linecap="round" stroke-linejoin="round" />
<path d="M 151.0 198.5 L 151.0 198.5 L 151.0 198.0 L 151.5 197.5 L 154.5 197.0 L 160.0 195.5 L 164.5 194.0 " stroke="black" fill="none" stroke-width="8.0" stroke-linecap="round" stroke-linejoin="round" />
<path d="M 194.5 105.0 L 194.5 105.0 L 194.5 105.5 L 196.0 108.0 L 200.0 112.5 L 203.5 116.5 L 204.5 117.5 " stroke="black" fill="none" stroke-width="8.0" stroke-linecap="round" stroke-linejoin="round" />
</svg>