<svg xmlns="http://www.w3.org/2000/svg" width="300" height="300" viewBox="0 0 300 300">
<path d="M 121.0 111.5 L 119.5 111.5 L 119.0 111.5 L 120.0 111.5 L 125.0 110.5 L 131.5 109.5 L 138.0 109.5 L 144.0 109.5 L 146.5 109.5 L 146.5 109.5 L 146.0 109.5 " stroke="black" fill="none" stroke-width="7.0" stroke-linecap="round" stroke-linejoin="round" />
<path d="M 133.0 94.0 L 133.0 94.0 L 133.5 94.0 L 134.0 94.0 L 134.0 95.5 L 134.5 100.0 L 134.5 109.5 L 134.5 118.0 L 134.5 123.5 L 135.0 125.0 L 135.0 125.0 " stroke="black" fill="none" stroke-width="7.0" stroke-linecap="round" stroke-linejoin="round" />
<path d="M 113.0 129.0 L 113.0 129.0 L 113.0 129.0 L 113.0 129.5 L 115.0 129.5 L 123.0 129.0 L 136.0 128.5 L 150.5 128.5 L 162.0 128.5 L 169.0 128.0 L 171.0 128.0 L 171.0 128.0 L 171.0 128.0 L 171.0 128.0 L 171.5 128.0 L 171.5 128.0 " stroke="black" fill="none" stroke-width="7.0" stroke-linecap="round" stroke-linejoin="round" />
<path d="M 162.5 99.0 L 162.5 98.0 L 162.5 97.0 L 162.5 97.0 L 163.0 98.5 L 162.0 104.0 L 158.0 114.5 L 149.0 130.0 L 138.0 146.0 L 128.5 156.0 L 123.0 162.5 L 119.5 165.5 L 119.5 165.5 L 120.5 164.5 " stroke="black" fill="none" stroke-width="7.0" stroke-linecap="round" stroke-linejoin="round" />
<path d="M 145.0 151.5 L 145.0 151.5 L 144.5 152.0 L 145.0 152.0 L 147.5 151.0 L 152.0 150.0 L 156.5 149.0 L 159.5 148.5 L 160.0 148.5 " stroke="black" fill="none" stroke-width="7.0" stroke-linecap="round" stroke-linejoin="round" />
<path d="M 145.5 145.0 L 145.0 145.0 L 144.0 144.5 L 143.5 144.5 L 143.0 144.5 L 142.5 146.5 L 142.0 150.5 L 141.0 157.0 L 141.0 163.0 L 143.0 166.5 L 147.0 168.0 L 151.5 168.5 L 157.0 168.0 L 162.5 167.0 L 167.0 165.5 L 169.0 164.5 L 169.5 163.5 L 169.5 162.5 L 168.5 161.5 L 167.5 160.5 L 167.0 160.0 L 167.0 159.5 L 167.0 159.5 " stroke="black" fill="none" stroke-width="7.0" stroke-linecap="round" stroke-linejoin="round" />
</svg>