<svg xmlns="http://www.w3.org/2000/svg" width="300" height="300" viewBox="0 0 300 300">
<path d="M 119.5 110.0 L 119.5 110.5 L 119.5 111.0 L 119.5 111.5 L 119.5 112.0 L 120.0 114.5 L 120.5 120.0 L 121.5 125.5 L 121.5 128.0 " stroke="black" fill="none" stroke-width="6.0" stroke-linecap="round" stroke-linejoin="round" />
<path d="M 110.0 124.0 L 109.5 124.0 L 109.5 125.0 L 109.5 125.5 L 112.0 126.0 L 113.0 126.0 " stroke="black" fill="none" stroke-width="6.0" stroke-linecap="round" stroke-linejoin="round" />
<path d="M 132.0 113.0 L 132.0 114.0 L 132.0 114.5 L 132.0 116.0 L 132.0 118.0 L 132.0 120.0 L 131.5 121.0 " stroke="black" fill="none" stroke-width="6.0" stroke-linecap="round" stroke-linejoin="round" />
<path d="M 109.0 137.0 L 109.5 137.0 L 109.5 137.0 L 111.5 137.0 L 117.0 137.0 L 124.0 136.5 L 128.0 136.0 L 130.5 136.0 L 132.0 135.0 L 132.0 134.5 " stroke="black" fill="none" stroke-width="6.0" stroke-linecap="round" stroke-linejoin="round" />
<path d="M 116.5 141.5 L 116.5 141.5 L 116.5 141.0 L 117.0 140.0 L 117.0 140.0 L 117.0 140.0 L 117.0 141.5 L 116.5 146.5 L 114.5 156.0 L 111.0 168.5 L 109.0 174.5 L 109.0 174.0 " stroke="black" fill="none" stroke-width="6.0" stroke-linecap="round" stroke-linejoin="round" />
<path d="M 123.5 145.0 L 123.5 144.5 L 123.0 144.0 L 123.0 143.5 L 123.5 143.5 L 124.0 144.5 L 124.5 146.0 L 124.5 149.0 L 124.5 154.0 L 124.0 160.5 L 123.5 165.0 L 123.5 167.5 L 124.0 167.5 L 125.5 166.5 L 127.5 164.0 L 130.0 161.5 L 132.0 159.5 L 133.5 158.5 L 134.0 158.0 " stroke="black" fill="none" stroke-width="6.0" stroke-linecap="round" stroke-linejoin="round" />
<path d="M 148.0 104.0 L 147.0 104.5 L 146.0 104.5 L 145.5 105.0 L 146.0 105.0 L 148.5 105.0 L 151.5 105.0 L 154.0 105.0 L 156.0 104.5 L 157.5 104.0 L 158.5 104.0 L 159.0 103.5 L 159.0 103.5 L 159.0 104.0 L 159.0 106.0 L 158.5 109.0 L 158.5 114.0 L 158.5 120.5 L 158.5 126.0 L 158.5 130.0 L 158.5 131.5 L 158.0 133.0 L 157.0 133.5 L 155.5 133.5 L 154.0 132.0 L 153.5 131.5 " stroke="black" fill="none" stroke-width="6.0" stroke-linecap="round" stroke-linejoin="round" />
<path d="M 147.5 113.5 L 146.5 114.0 L 145.5 114.5 L 145.5 115.5 L 147.0 116.5 L 148.5 117.5 L 150.0 118.0 L 150.5 118.5 " stroke="black" fill="none" stroke-width="6.0" stroke-linecap="round" stroke-linejoin="round" />
<path d="M 145.0 126.5 L 144.5 127.5 L 144.5 128.0 L 146.0 128.0 L 148.5 126.5 L 150.0 125.5 " stroke="black" fill="none" stroke-width="6.0" stroke-linecap="round" stroke-linejoin="round" />
<path d="M 168.5 106.5 L 168.5 106.5 L 168.0 107.0 L 168.0 107.0 L 170.5 106.5 L 173.5 105.5 L 175.5 105.0 L 177.5 104.5 L 178.5 104.5 L 178.5 104.5 L 178.5 106.5 L 178.5 110.0 L 178.5 116.0 L 178.5 123.0 L 178.5 129.0 L 178.5 133.0 L 178.0 135.0 L 177.5 135.5 L 176.0 135.0 L 174.5 133.5 L 173.0 131.5 L 172.5 130.5 " stroke="black" fill="none" stroke-width="6.0" stroke-linecap="round" stroke-linejoin="round" />
<path d="M 168.5 115.5 L 168.0 115.5 L 167.5 115.5 L 167.5 115.5 L 167.5 115.5 L 169.0 117.0 L 171.0 118.5 L 171.0 118.5 " stroke="black" fill="none" stroke-width="6.0" stroke-linecap="round" stroke-linejoin="round" />
<path d="M 165.5 126.0 L 165.0 126.5 L 165.0 127.0 L 166.0 127.0 L 167.5 126.5 L 169.0 126.5 " stroke="black" fill="none" stroke-width="6.0" stroke-linecap="round" stroke-linejoin="round" />
<path d="M 153.5 141.5 L 153.5 141.5 L 154.0 141.0 L 154.5 140.5 L 155.0 140.0 L 155.0 140.0 L 154.0 141.5 L 151.0 145.0 L 148.0 148.5 L 144.5 151.5 L 142.5 153.0 L 142.0 153.5 " stroke="black" fill="none" stroke-width="6.0" stroke-linecap="round" stroke-linejoin="round" />
<path d="M 149.5 149.5 L 149.0 150.0 L 149.0 150.0 L 149.0 150.5 L 149.5 151.5 L 150.5 155.5 L 151.5 165.0 L 153.0 176.0 L 153.0 182.5 L 153.0 183.0 L 153.0 181.5 " stroke="black" fill="none" stroke-width="6.0" stroke-linecap="round" stroke-linejoin="round" />
<path d="M 164.0 142.5 L 164.0 142.5 L 163.5 142.5 L 163.5 142.5 L 164.0 142.5 L 165.5 144.0 L 166.5 145.0 L 167.5 146.5 " stroke="black" fill="none" stroke-width="6.0" stroke-linecap="round" stroke-linejoin="round" />
<path d="M 158.5 154.0 L 159.0 154.5 L 160.0 155.0 L 161.5 155.0 L 164.5 154.5 L 167.5 154.0 L 170.0 153.0 L 171.0 153.0 " stroke="black" fill="none" stroke-width="6.0" stroke-linecap="round" stroke-linejoin="round" />
<path d="M 161.5 164.5 L 161.5 164.0 L 161.5 163.5 L 163.0 163.0 L 165.0 162.5 L 168.0 162.5 L 170.0 162.5 L 170.0 162.5 " stroke="black" fill="none" stroke-width="6.0" stroke-linecap="round" stroke-linejoin="round" />
<path d="M 163.5 172.0 L 163.5 172.5 L 163.5 173.0 L 164.0 173.0 L 165.5 173.5 L 167.5 172.5 L 168.5 171.5 " stroke="black" fill="none" stroke-width="6.0" stroke-linecap="round" stroke-linejoin="round" />
<path d="M 165.0 155.0 L 165.0 155.5 L 164.0 156.0 L 164.0 157.0 L 164.0 160.0 L 164.5 164.5 L 165.5 170.5 L 166.0 175.0 L 166.0 178.0 L 166.0 178.0 " stroke="black" fill="none" stroke-width="6.0" stroke-linecap="round" stroke-linejoin="round" />
<path d="M 163.0 182.5 L 163.0 183.0 L 163.0 183.0 L 164.0 183.5 L 166.0 183.5 L 171.0 182.0 L 177.5 181.5 L 183.5 180.5 L 184.5 180.5 " stroke="black" fill="none" stroke-width="6.0" stroke-linecap="round" stroke-linejoin="round" />
</svg>