<svg xmlns="http://www.w3.org/2000/svg" width="300" height="300" viewBox="0 0 300 300">
<path d="M 89.5 89.0 L 89.5 89.0 L 90.0 89.0 L 90.5 89.0 L 92.5 89.0 L 98.0 88.5 L 110.0 87.0 L 126.0 85.0 L 134.5 84.5 L 137.0 84.5 L 136.5 85.0 " stroke="black" fill="none" stroke-width="9.0" stroke-linecap="round" stroke-linejoin="round" />
<path d="M 118.5 78.5 L 117.5 77.5 L 117.0 77.5 L 116.5 77.5 L 116.5 80.5 L 116.5 88.0 L 117.0 98.5 L 117.5 105.5 L 118.5 105.5 " stroke="black" fill="none" stroke-width="9.0" stroke-linecap="round" stroke-linejoin="round" />
<path d="M 91.5 108.0 L 91.0 108.0 L 90.5 108.0 L 90.5 107.5 L 93.0 107.5 L 103.0 107.5 L 118.5 107.5 L 130.5 107.5 L 138.5 106.5 L 141.0 106.0 " stroke="black" fill="none" stroke-width="9.0" stroke-linecap="round" stroke-linejoin="round" />
<path d="M 92.0 123.5 L 92.0 122.5 L 92.5 121.5 L 95.0 121.0 L 101.5 120.5 L 112.5 119.0 L 125.5 118.0 L 134.5 117.5 L 140.0 123.5 L 138.5 128.5 L 136.0 133.0 L 134.0 136.0 L 133.0 137.0 L 132.5 137.0 " stroke="black" fill="none" stroke-width="9.0" stroke-linecap="round" stroke-linejoin="round" />
<path d="M 119.5 124.0 L 119.0 123.0 L 118.5 123.0 L 118.5 124.5 L 118.0 129.0 L 117.0 134.0 L 116.0 137.5 L 115.5 138.5 L 115.5 138.5 " stroke="black" fill="none" stroke-width="9.0" stroke-linecap="round" stroke-linejoin="round" />
<path d="M 107.5 141.5 L 107.0 141.5 L 106.0 141.0 L 106.0 141.0 L 110.0 141.0 L 117.0 140.5 L 124.5 139.5 L 129.0 138.0 L 129.5 137.5 " stroke="black" fill="none" stroke-width="9.0" stroke-linecap="round" stroke-linejoin="round" />
<path d="M 98.5 127.5 L 98.5 127.0 L 99.0 126.5 L 99.0 127.0 L 98.0 131.0 L 94.5 140.5 L 89.5 152.0 L 86.0 158.5 L 84.5 158.5 L 84.5 158.0 " stroke="black" fill="none" stroke-width="9.0" stroke-linecap="round" stroke-linejoin="round" />
<path d="M 167.0 86.5 L 167.0 86.5 L 166.5 86.5 L 166.5 86.5 L 166.0 89.5 L 164.5 96.5 L 160.5 106.0 L 158.0 111.5 L 157.5 112.0 " stroke="black" fill="none" stroke-width="9.0" stroke-linecap="round" stroke-linejoin="round" />
<path d="M 166.5 88.0 L 166.0 88.0 L 164.5 88.0 L 164.5 88.0 L 167.5 87.5 L 172.5 86.5 L 179.0 85.0 L 185.5 84.0 L 190.0 84.0 L 191.5 85.5 L 191.5 87.5 L 190.5 90.5 L 189.0 95.5 L 187.0 102.5 L 186.5 108.5 L 187.5 111.0 L 190.5 111.0 L 195.5 108.5 L 199.5 106.0 L 200.5 105.0 L 200.5 105.0 " stroke="black" fill="none" stroke-width="9.0" stroke-linecap="round" stroke-linejoin="round" />
<path d="M 157.5 120.5 L 157.5 120.5 L 157.5 120.0 L 158.5 119.5 L 163.0 119.5 L 172.0 119.0 L 182.0 119.0 L 190.5 119.5 L 194.5 120.5 L 195.5 122.0 L 192.5 126.0 L 187.0 131.0 L 180.5 136.5 L 174.5 142.5 L 170.0 147.5 L 166.0 151.5 L 162.0 154.0 L 160.5 153.0 " stroke="black" fill="none" stroke-width="9.0" stroke-linecap="round" stroke-linejoin="round" />
<path d="M 164.5 131.5 L 164.0 131.5 L 162.0 131.5 L 161.5 131.5 L 163.5 132.0 L 169.5 135.0 L 179.5 140.0 L 192.0 146.5 L 201.0 151.0 L 201.5 151.5 " stroke="black" fill="none" stroke-width="9.0" stroke-linecap="round" stroke-linejoin="round" />
<path d="M 111.5 169.5 L 111.0 169.0 L 111.0 168.0 L 111.0 168.0 L 115.0 167.5 L 125.5 166.5 L 143.0 166.5 L 159.0 166.5 L 170.0 167.0 L 175.0 167.5 L 175.0 168.0 " stroke="black" fill="none" stroke-width="9.0" stroke-linecap="round" stroke-linejoin="round" />
<path d="M 123.0 171.0 L 123.0 171.0 L 123.0 170.5 L 123.0 170.0 L 123.0 171.0 L 123.0 175.0 L 123.0 181.5 L 123.5 189.0 L 123.5 194.0 L 124.0 195.0 " stroke="black" fill="none" stroke-width="9.0" stroke-linecap="round" stroke-linejoin="round" />
<path d="M 165.0 169.5 L 165.0 169.5 L 164.0 169.5 L 164.0 169.5 L 164.0 172.0 L 165.0 179.5 L 166.5 193.0 L 167.0 207.0 L 166.5 217.5 L 165.0 223.5 L 164.5 225.5 L 164.0 224.0 L 163.5 221.5 " stroke="black" fill="none" stroke-width="9.0" stroke-linecap="round" stroke-linejoin="round" />
<path d="M 128.5 179.5 L 128.5 179.5 L 128.5 179.5 L 129.0 180.0 L 133.0 180.0 L 140.0 179.5 L 148.5 178.5 L 156.0 178.0 L 158.0 177.5 " stroke="black" fill="none" stroke-width="9.0" stroke-linecap="round" stroke-linejoin="round" />
<path d="M 131.0 192.0 L 131.0 192.0 L 131.5 192.0 L 133.0 192.0 L 138.0 191.5 L 145.5 191.0 L 152.0 190.5 L 154.5 191.0 " stroke="black" fill="none" stroke-width="9.0" stroke-linecap="round" stroke-linejoin="round" />
<path d="M 105.5 204.5 L 105.5 204.5 L 105.5 204.5 L 106.5 204.5 L 112.0 204.5 L 124.5 204.5 L 143.0 203.5 L 159.5 202.5 L 173.0 202.0 L 180.5 202.5 L 182.5 204.0 L 182.5 204.5 " stroke="black" fill="none" stroke-width="9.0" stroke-linecap="round" stroke-linejoin="round" />
</svg>