<svg xmlns="http://www.w3.org/2000/svg" width="300" height="300" viewBox="0 0 300 300">
<path d="M 121.5 109.5 L 120.0 109.5 L 119.0 109.5 L 119.0 109.5 L 121.0 109.5 L 125.0 109.0 L 129.5 109.0 L 134.5 108.5 L 139.0 108.5 L 141.5 108.0 L 142.5 108.0 L 142.5 108.0 L 142.5 108.5 L 142.0 109.5 L 141.5 111.0 L 141.0 113.5 L 140.5 116.5 L 140.0 120.0 L 140.0 123.0 L 139.5 125.0 L 139.0 126.0 L 139.0 126.0 " stroke="black" fill="none" stroke-width="6.0" stroke-linecap="round" stroke-linejoin="round" />
<path d="M 126.0 119.0 L 124.0 119.0 L 123.5 118.5 L 123.5 118.5 L 126.5 118.5 L 130.5 118.5 L 134.5 118.5 L 138.0 118.0 L 139.5 118.0 L 140.0 118.5 " stroke="black" fill="none" stroke-width="6.0" stroke-linecap="round" stroke-linejoin="round" />
<path d="M 126.5 128.5 L 125.0 129.0 L 124.5 129.0 L 125.0 129.0 L 127.5 129.0 L 130.5 129.0 L 133.0 129.0 L 135.5 129.0 L 136.5 128.5 " stroke="black" fill="none" stroke-width="6.0" stroke-linecap="round" stroke-linejoin="round" />
<path d="M 122.0 112.0 L 122.0 112.0 L 121.5 112.5 L 121.5 113.0 L 121.0 114.5 L 121.0 117.5 L 122.0 123.0 L 122.5 130.5 L 122.5 139.5 L 122.0 148.5 L 121.0 156.5 L 120.5 163.5 L 120.5 169.0 L 120.5 173.0 L 120.5 176.0 L 120.5 178.0 L 120.5 180.5 L 120.5 183.0 L 120.5 184.0 L 121.0 184.5 L 121.5 182.0 L 121.5 180.5 " stroke="black" fill="none" stroke-width="6.0" stroke-linecap="round" stroke-linejoin="round" />
<path d="M 159.0 107.0 L 159.0 107.0 L 159.0 107.0 L 159.0 107.0 L 159.0 107.0 L 159.5 107.0 L 159.5 108.0 L 159.5 112.0 L 159.0 120.0 L 159.0 128.0 L 159.0 131.0 L 159.5 130.5 L 160.0 126.5 " stroke="black" fill="none" stroke-width="6.0" stroke-linecap="round" stroke-linejoin="round" />
<path d="M 160.5 107.0 L 160.0 107.0 L 159.5 107.5 L 158.5 108.0 L 158.5 108.0 L 159.0 108.0 L 161.0 108.0 L 164.5 108.0 L 168.5 107.5 L 173.0 107.5 L 176.5 107.5 L 179.0 107.5 L 180.0 107.5 L 180.0 108.0 L 180.0 108.0 L 179.5 109.0 L 179.5 110.0 L 179.5 112.0 L 179.5 115.0 L 179.5 119.0 L 179.5 124.5 L 179.5 131.0 L 179.5 138.5 L 179.5 145.5 L 179.0 152.0 L 178.5 159.0 L 178.5 165.5 L 178.5 172.5 L 178.5 179.5 L 178.5 184.5 L 178.5 189.0 L 178.5 192.0 L 178.5 194.0 L 177.5 194.0 L 176.0 193.0 L 173.5 189.5 L 171.0 185.0 L 169.5 181.0 " stroke="black" fill="none" stroke-width="6.0" stroke-linecap="round" stroke-linejoin="round" />
<path d="M 166.5 119.0 L 165.5 118.5 L 164.5 118.0 L 164.0 117.5 L 164.5 117.0 L 166.0 117.0 L 168.0 117.0 L 170.0 117.5 L 172.0 118.0 L 173.0 118.0 L 174.5 118.5 " stroke="black" fill="none" stroke-width="6.0" stroke-linecap="round" stroke-linejoin="round" />
<path d="M 164.0 130.0 L 163.5 130.5 L 162.5 131.5 L 162.5 131.5 L 163.5 131.5 L 166.0 131.5 L 169.5 131.5 L 172.0 131.5 L 174.5 131.5 L 175.0 131.5 " stroke="black" fill="none" stroke-width="6.0" stroke-linecap="round" stroke-linejoin="round" />
<path d="M 138.0 140.5 L 138.0 140.5 L 138.5 140.0 L 139.0 139.5 L 140.0 139.5 L 142.5 139.5 L 147.5 139.5 L 153.5 139.5 L 157.5 139.5 L 160.5 139.5 L 162.0 140.0 L 162.5 140.5 L 163.0 141.0 L 163.0 141.5 L 163.0 141.5 " stroke="black" fill="none" stroke-width="6.0" stroke-linecap="round" stroke-linejoin="round" />
<path d="M 143.0 144.5 L 143.5 144.0 L 143.5 144.0 L 144.0 144.0 L 144.0 145.5 L 144.5 149.5 L 144.5 157.0 L 144.5 165.0 L 144.5 167.5 L 145.0 167.0 L 145.0 166.5 " stroke="black" fill="none" stroke-width="6.0" stroke-linecap="round" stroke-linejoin="round" />
<path d="M 155.5 141.5 L 156.0 141.5 L 156.5 141.5 L 157.0 142.5 L 157.5 144.5 L 157.5 148.5 L 157.5 155.5 L 157.5 165.0 L 156.5 173.5 L 156.5 180.0 L 156.5 184.0 L 156.5 185.0 L 156.0 185.0 " stroke="black" fill="none" stroke-width="6.0" stroke-linecap="round" stroke-linejoin="round" />
<path d="M 149.0 151.0 L 147.5 151.5 L 147.0 151.5 L 147.0 151.5 L 148.5 151.5 L 151.0 151.0 L 153.5 150.5 L 155.5 150.0 L 157.0 150.0 L 157.5 150.0 " stroke="black" fill="none" stroke-width="6.0" stroke-linecap="round" stroke-linejoin="round" />
<path d="M 148.5 159.5 L 148.0 160.0 L 147.5 160.5 L 147.5 161.0 L 148.5 161.0 L 151.0 161.0 L 153.5 160.0 L 155.5 159.0 L 156.0 159.0 " stroke="black" fill="none" stroke-width="6.0" stroke-linecap="round" stroke-linejoin="round" />
<path d="M 134.5 172.5 L 134.5 172.5 L 134.5 172.5 L 134.5 172.5 L 134.5 172.5 L 135.5 172.5 L 138.5 172.5 L 145.0 172.5 L 153.5 172.0 L 160.0 171.0 L 163.0 170.0 L 164.0 170.0 L 164.0 170.0 L 163.5 170.0 " stroke="black" fill="none" stroke-width="6.0" stroke-linecap="round" stroke-linejoin="round" />
</svg>