<svg xmlns="http://www.w3.org/2000/svg" width="300" height="300" viewBox="0 0 300 300">
<path d="M 129.0 122.0 L 128.0 122.0 L 127.5 122.0 L 127.0 122.0 L 127.5 121.5 L 132.0 120.5 L 138.0 119.5 L 144.0 118.5 L 147.5 118.5 L 148.5 118.5 L 148.5 118.0 " stroke="black" fill="none" stroke-width="6.0" stroke-linecap="round" stroke-linejoin="round" />
<path d="M 138.0 107.0 L 138.0 107.0 L 138.0 107.0 L 138.0 107.0 L 138.0 108.5 L 138.5 113.5 L 138.5 122.0 L 138.5 129.0 L 138.0 133.0 L 137.0 134.5 " stroke="black" fill="none" stroke-width="6.0" stroke-linecap="round" stroke-linejoin="round" />
<path d="M 122.5 138.5 L 120.5 138.5 L 119.0 138.5 L 119.0 138.5 L 122.0 138.0 L 128.0 137.5 L 136.5 136.5 L 149.5 135.5 L 162.5 134.5 L 171.5 133.5 L 174.0 132.5 " stroke="black" fill="none" stroke-width="6.0" stroke-linecap="round" stroke-linejoin="round" />
<path d="M 161.5 108.5 L 161.5 108.5 L 161.5 109.0 L 161.5 109.5 L 160.0 112.0 L 156.0 121.0 L 147.0 138.5 L 138.5 152.0 L 133.0 157.0 L 130.0 158.5 L 130.0 159.0 " stroke="black" fill="none" stroke-width="6.0" stroke-linecap="round" stroke-linejoin="round" />
<path d="M 147.0 147.0 L 147.0 146.5 L 147.0 146.5 L 147.0 147.5 L 147.0 153.5 L 147.5 162.5 L 148.5 170.0 L 149.0 173.0 L 149.5 173.0 " stroke="black" fill="none" stroke-width="6.0" stroke-linecap="round" stroke-linejoin="round" />
<path d="M 148.5 147.5 L 146.5 147.5 L 145.0 147.5 L 145.0 147.5 L 146.5 147.5 L 150.0 146.5 L 154.5 145.5 L 159.0 144.5 L 164.5 144.5 L 168.0 144.5 L 170.0 147.0 L 170.5 151.5 L 169.5 157.0 L 168.0 163.0 L 167.0 167.0 L 166.5 169.0 L 166.0 169.5 " stroke="black" fill="none" stroke-width="6.0" stroke-linecap="round" stroke-linejoin="round" />
<path d="M 151.5 158.5 L 151.5 158.5 L 151.5 159.0 L 151.0 159.0 L 152.0 158.5 L 154.0 157.5 L 157.0 157.0 L 160.5 157.0 " stroke="black" fill="none" stroke-width="6.0" stroke-linecap="round" stroke-linejoin="round" />
<path d="M 148.5 175.5 L 148.5 176.0 L 148.0 176.5 L 148.0 176.5 L 151.5 175.5 L 156.5 174.0 L 162.5 173.0 L 167.0 172.5 " stroke="black" fill="none" stroke-width="6.0" stroke-linecap="round" stroke-linejoin="round" />
</svg>