<svg xmlns="http://www.w3.org/2000/svg" width="300" height="300" viewBox="0 0 300 300">
<path d="M 117.5 106.5 L 117.5 106.0 L 117.5 105.5 L 117.5 104.5 L 117.5 104.0 L 117.5 104.0 L 117.5 104.0 L 117.5 104.5 L 118.0 108.5 L 118.5 117.0 L 118.5 130.5 L 118.5 144.5 L 118.5 155.5 L 118.5 165.5 L 118.0 174.0 L 118.5 178.0 L 118.5 179.0 L 118.5 179.0 L 118.5 179.5 L 117.5 179.5 L 116.5 179.0 " stroke="black" fill="none" stroke-width="7.0" stroke-linecap="round" stroke-linejoin="round" />
<path d="M 120.0 107.5 L 120.0 107.5 L 119.0 107.5 L 118.5 107.5 L 118.5 107.5 L 119.5 107.0 L 122.5 106.5 L 131.5 104.0 L 135.0 103.0 L 136.0 103.0 L 136.5 103.0 L 136.5 103.0 L 136.5 104.0 L 136.5 105.0 L 136.5 106.5 L 136.5 109.5 L 137.0 114.5 L 137.5 121.5 L 138.5 129.5 L 139.5 138.5 L 140.5 147.5 L 141.5 155.0 L 142.5 163.0 L 143.5 170.0 L 144.0 175.5 L 144.0 181.0 L 143.5 185.5 L 142.5 188.5 L 141.5 190.5 L 140.0 191.5 L 138.0 192.0 L 135.0 190.0 L 131.0 185.5 L 130.5 184.0 " stroke="black" fill="none" stroke-width="7.0" stroke-linecap="round" stroke-linejoin="round" />
<path d="M 123.0 131.5 L 122.5 131.5 L 122.0 131.5 L 122.5 130.5 L 125.5 129.0 L 128.5 128.0 L 132.0 127.5 L 134.5 127.5 L 135.5 127.5 " stroke="black" fill="none" stroke-width="7.0" stroke-linecap="round" stroke-linejoin="round" />
<path d="M 123.5 156.0 L 122.5 156.5 L 121.5 157.0 L 122.5 156.5 L 124.5 154.5 L 127.5 153.0 L 131.0 151.5 L 134.5 150.5 " stroke="black" fill="none" stroke-width="7.0" stroke-linecap="round" stroke-linejoin="round" />
<path d="M 157.5 113.5 L 157.0 113.5 L 157.0 113.5 L 156.5 113.5 L 156.5 113.5 L 156.0 113.0 L 155.5 112.5 L 154.5 112.0 L 153.0 112.0 L 152.0 112.0 L 151.5 112.0 L 152.0 112.0 L 156.5 111.5 L 163.5 110.5 L 173.5 109.0 L 182.0 107.5 L 185.0 106.5 L 185.0 106.5 L 184.5 106.5 L 184.0 107.0 L 184.0 107.5 L 184.0 108.0 L 184.0 109.5 L 184.0 113.0 L 184.0 118.0 L 183.5 124.0 L 183.0 129.0 L 183.0 132.0 L 183.0 132.5 L 183.0 130.5 " stroke="black" fill="none" stroke-width="7.0" stroke-linecap="round" stroke-linejoin="round" />
<path d="M 167.5 114.0 L 166.0 114.0 L 165.5 114.0 L 165.0 114.0 L 166.0 115.5 L 166.5 120.5 L 167.0 128.5 L 167.0 134.0 L 167.0 136.5 L 167.0 136.5 " stroke="black" fill="none" stroke-width="7.0" stroke-linecap="round" stroke-linejoin="round" />
<path d="M 159.0 137.0 L 158.0 138.0 L 157.5 138.5 L 157.0 138.5 L 159.0 138.0 L 163.0 136.0 L 169.0 134.5 L 175.0 133.5 L 179.5 133.5 L 181.5 133.5 " stroke="black" fill="none" stroke-width="7.0" stroke-linecap="round" stroke-linejoin="round" />
<path d="M 152.0 115.0 L 152.0 115.0 L 151.5 114.5 L 151.0 114.0 L 151.0 114.0 L 151.0 114.0 L 151.5 115.5 L 152.0 118.5 L 152.5 123.5 L 152.5 131.5 L 152.5 140.5 L 152.5 149.0 L 152.5 156.0 L 153.0 163.0 L 154.5 169.0 L 156.5 173.5 L 160.0 176.5 L 163.0 179.0 L 166.5 181.5 L 170.0 182.5 L 174.5 183.0 L 180.0 183.5 L 185.5 182.5 L 188.5 179.5 L 190.5 176.5 L 191.5 173.5 L 192.0 171.0 L 192.0 167.5 L 192.0 164.0 L 192.0 161.0 L 191.0 159.0 L 191.0 158.5 L 191.0 158.5 L 191.0 159.5 " stroke="black" fill="none" stroke-width="7.0" stroke-linecap="round" stroke-linejoin="round" />
</svg>