<svg xmlns="http://www.w3.org/2000/svg" width="300" height="300" viewBox="0 0 300 300">
<path d="M 104.0 91.0 L 103.5 91.5 L 103.5 91.5 L 105.0 91.5 L 111.5 91.5 L 126.0 91.5 L 145.5 91.5 L 165.0 91.5 L 180.5 92.0 L 188.5 92.5 L 190.5 92.5 L 189.5 91.5 " stroke="black" fill="none" stroke-width="10.0" stroke-linecap="round" stroke-linejoin="round" />
<path d="M 150.0 78.5 L 149.0 78.0 L 148.5 78.0 L 148.5 78.5 L 148.0 81.5 L 146.0 87.5 L 141.0 96.5 L 133.0 106.0 L 125.0 113.5 L 119.5 118.5 L 115.5 121.0 L 114.5 121.5 L 114.5 121.5 L 115.0 121.5 L 115.0 121.5 L 115.5 121.0 L 118.5 120.5 L 124.0 119.5 L 132.0 118.5 L 144.0 118.0 L 155.5 117.0 L 165.5 116.0 L 170.0 115.0 L 170.0 114.5 L 169.0 114.0 " stroke="black" fill="none" stroke-width="10.0" stroke-linecap="round" stroke-linejoin="round" />
<path d="M 164.0 107.0 L 164.0 107.0 L 164.0 107.0 L 163.5 107.0 L 164.5 107.5 L 167.5 109.5 L 173.0 115.0 L 178.0 120.5 L 181.0 123.5 L 181.0 124.5 " stroke="black" fill="none" stroke-width="10.0" stroke-linecap="round" stroke-linejoin="round" />
<path d="M 113.0 145.0 L 113.0 144.5 L 113.0 144.0 L 113.5 143.5 L 114.0 143.5 L 114.5 143.5 L 115.0 145.0 L 115.5 151.0 L 115.0 165.5 L 113.0 185.0 L 111.0 197.5 L 108.5 205.0 L 107.0 209.5 L 105.0 210.5 L 104.0 210.5 L 104.0 209.5 " stroke="black" fill="none" stroke-width="10.0" stroke-linecap="round" stroke-linejoin="round" />
<path d="M 121.0 144.5 L 120.5 144.5 L 120.0 144.0 L 120.0 144.0 L 121.5 144.0 L 127.0 143.5 L 137.0 142.5 L 149.5 140.5 L 160.5 139.5 L 167.5 139.5 L 170.5 141.0 L 172.0 142.0 L 173.0 142.0 L 173.5 142.0 L 173.5 142.0 L 173.5 142.0 L 173.5 142.0 L 174.0 142.0 L 174.0 142.5 L 174.5 143.0 L 174.5 144.0 L 175.0 146.0 L 176.0 149.5 L 177.0 155.0 L 179.0 163.5 L 181.0 173.0 L 183.0 183.5 L 185.0 193.5 L 186.5 201.5 L 186.5 207.5 L 185.0 212.0 L 182.0 214.5 L 177.5 215.0 L 171.5 214.5 L 166.5 213.5 L 164.0 212.0 " stroke="black" fill="none" stroke-width="10.0" stroke-linecap="round" stroke-linejoin="round" />
<path d="M 138.0 161.0 L 138.0 161.0 L 138.5 161.0 L 138.5 161.0 L 139.5 161.5 L 142.0 164.0 L 145.0 167.5 L 147.5 170.5 L 148.0 171.0 " stroke="black" fill="none" stroke-width="10.0" stroke-linecap="round" stroke-linejoin="round" />
<path d="M 132.5 201.0 L 132.5 201.0 L 133.0 201.0 L 134.0 200.5 L 136.5 198.5 L 142.5 195.0 L 150.5 190.0 L 156.0 186.5 L 158.5 184.5 L 158.5 184.0 L 158.5 184.0 " stroke="black" fill="none" stroke-width="10.0" stroke-linecap="round" stroke-linejoin="round" />
</svg>