<svg xmlns="http://www.w3.org/2000/svg" width="300" height="300" viewBox="0 0 300 300">
<path d="M 124.5 113.0 L 124.5 114.0 L 124.0 115.0 L 124.5 117.5 L 125.5 124.5 L 126.0 139.0 L 125.5 158.0 L 123.5 172.5 L 123.0 179.5 L 122.5 181.5 L 123.0 178.0 " stroke="black" fill="none" stroke-width="7.0" stroke-linecap="round" stroke-linejoin="round" />
<path d="M 126.5 112.0 L 126.0 112.0 L 124.5 112.0 L 124.0 112.0 L 124.5 112.0 L 126.5 112.0 L 129.0 111.5 L 132.0 111.0 L 135.0 110.5 L 138.0 110.0 L 142.0 109.0 L 145.5 108.5 L 147.0 108.5 L 147.0 108.5 L 147.0 108.5 L 147.0 108.5 L 146.5 108.5 L 146.5 108.5 L 146.5 108.5 L 146.0 108.5 L 146.0 108.5 L 146.0 108.5 L 146.0 108.5 L 146.0 108.5 L 146.0 108.5 L 146.0 108.5 L 146.0 108.5 L 146.0 108.5 L 146.0 108.5 L 146.0 109.0 L 145.5 110.0 L 145.5 113.0 L 145.5 119.0 L 145.5 128.0 L 145.5 139.0 L 146.5 150.5 L 147.0 159.0 L 147.5 166.5 L 147.5 173.0 L 147.5 178.0 L 147.5 182.5 L 146.5 185.5 L 145.0 187.5 L 143.0 188.5 L 140.5 187.5 L 137.5 184.5 L 136.5 183.5 " stroke="black" fill="none" stroke-width="7.0" stroke-linecap="round" stroke-linejoin="round" />
<path d="M 131.5 132.0 L 131.5 132.0 L 132.5 132.0 L 133.0 132.0 L 134.0 132.5 L 135.5 133.5 L 137.0 135.0 L 138.0 137.5 L 138.5 138.0 " stroke="black" fill="none" stroke-width="7.0" stroke-linecap="round" stroke-linejoin="round" />
<path d="M 130.0 165.0 L 129.5 165.0 L 129.5 165.0 L 130.0 164.0 L 133.0 161.0 L 137.0 157.5 L 141.5 154.0 L 144.0 152.0 " stroke="black" fill="none" stroke-width="7.0" stroke-linecap="round" stroke-linejoin="round" />
<path d="M 161.0 108.0 L 161.5 107.5 L 161.5 107.0 L 161.5 107.5 L 162.0 112.0 L 162.0 120.0 L 162.0 126.5 L 162.0 129.5 L 162.0 128.5 " stroke="black" fill="none" stroke-width="7.0" stroke-linecap="round" stroke-linejoin="round" />
<path d="M 163.0 107.0 L 162.5 107.0 L 161.5 107.0 L 161.0 107.5 L 162.5 107.5 L 166.0 107.0 L 170.0 106.0 L 175.0 104.5 L 179.5 104.0 L 183.5 104.0 L 186.0 105.5 L 187.0 106.5 L 186.5 108.5 L 185.5 111.0 L 184.5 115.0 L 183.5 120.0 L 182.5 124.5 L 182.5 128.0 L 182.5 129.0 L 182.5 128.5 " stroke="black" fill="none" stroke-width="7.0" stroke-linecap="round" stroke-linejoin="round" />
<path d="M 167.0 122.0 L 165.0 122.0 L 164.0 121.5 L 165.0 120.5 L 168.0 120.0 L 172.0 119.5 L 176.0 118.5 L 179.0 118.0 L 181.5 117.5 L 181.5 117.5 " stroke="black" fill="none" stroke-width="7.0" stroke-linecap="round" stroke-linejoin="round" />
<path d="M 165.5 132.5 L 165.0 132.5 L 165.0 133.0 L 166.0 133.0 L 170.0 133.0 L 175.0 132.0 L 180.0 130.5 L 183.5 129.0 " stroke="black" fill="none" stroke-width="7.0" stroke-linecap="round" stroke-linejoin="round" />
<path d="M 159.5 145.0 L 159.5 144.5 L 159.5 144.0 L 161.0 143.5 L 165.0 143.0 L 171.0 142.0 L 178.0 142.0 L 184.0 141.5 L 188.0 141.0 L 188.5 141.0 " stroke="black" fill="none" stroke-width="7.0" stroke-linecap="round" stroke-linejoin="round" />
<path d="M 166.0 152.5 L 165.5 152.0 L 165.5 152.0 L 165.0 152.0 L 164.5 153.0 L 163.5 156.0 L 162.0 160.0 L 160.5 163.0 L 160.5 163.5 " stroke="black" fill="none" stroke-width="7.0" stroke-linecap="round" stroke-linejoin="round" />
<path d="M 164.0 158.0 L 163.0 158.5 L 163.0 158.5 L 163.0 158.5 L 165.5 158.5 L 169.0 157.5 L 173.5 156.0 L 180.0 155.0 L 186.5 154.5 L 191.0 154.0 L 192.0 154.0 L 191.5 154.5 L 190.5 155.5 L 190.5 156.5 L 190.5 158.0 L 190.5 161.0 L 191.0 167.0 L 191.5 174.5 L 191.5 182.0 L 191.0 188.0 L 189.5 191.0 L 187.0 192.0 L 183.0 192.0 L 177.5 190.5 L 174.0 189.0 L 173.5 188.0 " stroke="black" fill="none" stroke-width="7.0" stroke-linecap="round" stroke-linejoin="round" />
<path d="M 175.0 159.0 L 175.0 159.0 L 175.5 159.0 L 175.5 159.0 L 175.5 160.5 L 174.0 164.5 L 170.5 170.0 L 167.5 174.5 L 165.5 176.0 L 165.5 176.0 " stroke="black" fill="none" stroke-width="7.0" stroke-linecap="round" stroke-linejoin="round" />
<path d="M 182.0 159.0 L 182.0 160.0 L 182.5 161.5 L 182.5 163.5 L 182.0 167.5 L 179.0 174.0 L 175.5 180.5 L 172.0 183.0 L 171.0 183.0 " stroke="black" fill="none" stroke-width="7.0" stroke-linecap="round" stroke-linejoin="round" />
</svg>