<svg xmlns="http://www.w3.org/2000/svg" width="300" height="300" viewBox="0 0 300 300">
<path d="M 118.0 106.5 L 118.0 106.0 L 118.0 105.5 L 117.5 105.0 L 118.0 105.5 L 118.5 110.5 L 119.0 121.5 L 118.0 139.5 L 114.5 158.0 L 111.5 170.0 L 110.5 174.0 L 110.0 173.0 L 109.0 169.5 " stroke="black" fill="none" stroke-width="7.0" stroke-linecap="round" stroke-linejoin="round" />
<path d="M 123.0 106.0 L 122.0 106.0 L 121.5 106.0 L 121.5 106.0 L 121.5 106.0 L 123.5 105.5 L 127.0 104.5 L 132.0 103.5 L 137.5 102.5 L 141.5 102.5 L 143.5 102.5 L 143.5 103.0 L 143.0 103.0 L 142.0 103.0 L 141.5 103.0 L 141.5 103.5 L 141.0 103.5 L 141.0 103.5 L 141.0 103.5 L 140.5 103.5 L 140.5 104.0 L 140.5 104.0 L 140.0 104.0 L 140.0 104.5 L 140.0 105.0 L 139.5 106.5 L 139.5 110.0 L 139.5 117.0 L 139.5 127.5 L 139.5 138.5 L 140.0 148.5 L 141.0 158.5 L 141.0 168.0 L 141.0 175.0 L 141.0 181.0 L 140.0 186.0 L 139.0 189.5 L 137.5 191.0 L 136.5 191.0 L 134.0 190.5 L 131.0 188.5 L 128.0 184.5 L 127.5 182.0 " stroke="black" fill="none" stroke-width="7.0" stroke-linecap="round" stroke-linejoin="round" />
<path d="M 126.0 123.0 L 124.5 122.5 L 124.5 122.5 L 125.5 123.5 L 127.5 125.5 L 129.0 128.5 L 130.5 130.5 L 131.5 132.5 " stroke="black" fill="none" stroke-width="7.0" stroke-linecap="round" stroke-linejoin="round" />
<path d="M 125.0 159.0 L 123.0 159.0 L 122.5 159.0 L 123.0 158.0 L 126.0 155.5 L 129.5 151.5 L 133.0 148.5 L 135.0 146.5 L 135.5 146.0 " stroke="black" fill="none" stroke-width="7.0" stroke-linecap="round" stroke-linejoin="round" />
<path d="M 154.5 102.0 L 154.5 102.0 L 154.5 101.5 L 154.5 101.5 L 155.0 102.0 L 157.5 104.0 L 160.0 105.5 L 163.5 106.5 L 166.0 106.5 " stroke="black" fill="none" stroke-width="7.0" stroke-linecap="round" stroke-linejoin="round" />
<path d="M 177.5 101.0 L 178.0 100.5 L 178.5 100.0 L 178.5 99.5 L 178.5 99.5 L 177.5 101.0 L 176.0 103.5 L 175.0 105.5 L 174.5 106.5 " stroke="black" fill="none" stroke-width="7.0" stroke-linecap="round" stroke-linejoin="round" />
<path d="M 156.5 115.0 L 156.5 115.0 L 157.0 115.0 L 157.5 115.0 L 160.0 115.0 L 164.5 114.5 L 171.0 113.0 L 177.5 111.5 L 182.5 111.0 L 184.0 111.5 L 184.0 111.5 " stroke="black" fill="none" stroke-width="7.0" stroke-linecap="round" stroke-linejoin="round" />
<path d="M 165.0 125.5 L 164.5 125.5 L 164.0 125.0 L 164.5 125.0 L 167.0 124.5 L 169.5 124.0 L 172.5 123.0 L 175.0 122.5 L 175.5 122.5 " stroke="black" fill="none" stroke-width="7.0" stroke-linecap="round" stroke-linejoin="round" />
<path d="M 171.5 114.0 L 171.5 114.5 L 171.0 115.5 L 170.5 117.0 L 170.5 119.5 L 171.0 123.5 L 171.0 128.0 L 171.0 131.0 L 171.0 132.5 " stroke="black" fill="none" stroke-width="7.0" stroke-linecap="round" stroke-linejoin="round" />
<path d="M 161.5 137.0 L 161.0 137.5 L 159.5 137.5 L 159.0 137.5 L 159.0 137.5 L 161.0 136.5 L 164.5 134.5 L 169.5 133.5 L 176.0 132.5 L 183.0 132.0 L 188.0 132.0 L 191.5 131.5 L 192.5 131.5 L 192.5 131.5 L 192.5 131.5 " stroke="black" fill="none" stroke-width="7.0" stroke-linecap="round" stroke-linejoin="round" />
<path d="M 167.0 145.0 L 166.5 145.0 L 166.0 145.0 L 165.5 145.0 L 165.5 145.0 L 166.0 146.0 L 167.5 147.0 L 169.0 148.0 L 170.5 148.5 " stroke="black" fill="none" stroke-width="7.0" stroke-linecap="round" stroke-linejoin="round" />
<path d="M 182.0 140.5 L 182.0 140.5 L 182.0 140.5 L 182.0 140.5 L 182.0 140.5 L 182.0 141.0 L 182.0 143.0 L 181.5 145.5 L 181.0 146.5 " stroke="black" fill="none" stroke-width="7.0" stroke-linecap="round" stroke-linejoin="round" />
<path d="M 160.0 156.5 L 159.0 157.0 L 157.0 158.0 L 156.5 158.0 L 159.0 158.0 L 166.0 155.5 L 175.0 152.5 L 185.0 150.0 L 192.0 148.5 L 194.0 148.5 " stroke="black" fill="none" stroke-width="7.0" stroke-linecap="round" stroke-linejoin="round" />
<path d="M 166.0 167.0 L 165.5 165.5 L 165.5 165.0 L 165.5 164.5 L 166.0 165.5 L 166.5 168.0 L 167.0 171.5 L 167.5 174.5 L 168.0 176.5 L 168.0 177.0 " stroke="black" fill="none" stroke-width="7.0" stroke-linecap="round" stroke-linejoin="round" />
<path d="M 169.0 165.5 L 167.5 165.0 L 167.5 165.0 L 167.5 165.0 L 169.0 164.5 L 171.5 163.5 L 175.0 162.5 L 179.0 161.5 L 183.5 161.5 L 188.0 161.5 L 190.0 161.5 L 190.5 163.0 L 189.5 165.0 L 187.5 168.5 L 186.0 171.5 L 185.0 173.5 L 184.5 175.0 L 184.5 175.5 " stroke="black" fill="none" stroke-width="7.0" stroke-linecap="round" stroke-linejoin="round" />
<path d="M 168.0 181.5 L 167.5 181.5 L 167.5 181.0 L 168.0 180.5 L 171.0 180.0 L 175.0 179.0 L 179.0 179.0 L 182.0 179.0 L 183.0 178.5 " stroke="black" fill="none" stroke-width="7.0" stroke-linecap="round" stroke-linejoin="round" />
</svg>