<svg xmlns="http://www.w3.org/2000/svg" width="300" height="300" viewBox="0 0 300 300">
<path d="M 134.0 109.5 L 134.5 109.5 L 135.0 109.5 L 135.5 110.0 L 135.5 111.0 L 136.0 116.0 L 136.0 123.5 L 136.0 129.5 L 136.0 131.0 L 135.0 131.0 " stroke="black" fill="none" stroke-width="6.0" stroke-linecap="round" stroke-linejoin="round" />
<path d="M 122.0 122.5 L 122.0 122.0 L 121.5 122.0 L 121.5 121.5 L 125.5 121.0 L 131.5 120.5 L 137.5 120.0 L 143.5 119.0 L 146.0 118.5 " stroke="black" fill="none" stroke-width="6.0" stroke-linecap="round" stroke-linejoin="round" />
<path d="M 164.0 109.0 L 164.0 109.0 L 164.0 109.0 L 163.5 109.0 L 163.5 110.0 L 163.5 112.0 L 164.0 116.0 L 164.0 121.5 L 164.0 125.0 L 164.0 126.0 " stroke="black" fill="none" stroke-width="6.0" stroke-linecap="round" stroke-linejoin="round" />
<path d="M 157.0 119.0 L 157.5 119.0 L 158.0 119.0 L 159.5 118.5 L 162.0 118.0 L 166.5 118.0 L 171.0 117.5 L 173.5 117.5 L 174.0 117.5 " stroke="black" fill="none" stroke-width="6.0" stroke-linecap="round" stroke-linejoin="round" />
<path d="M 128.5 140.0 L 129.0 140.0 L 130.0 138.5 L 130.5 138.0 L 130.5 138.0 L 130.5 138.5 L 128.5 142.0 L 125.5 147.0 L 123.0 152.0 L 121.0 155.5 L 120.5 156.0 " stroke="black" fill="none" stroke-width="6.0" stroke-linecap="round" stroke-linejoin="round" />
<path d="M 129.0 144.0 L 129.0 144.0 L 129.0 144.0 L 129.0 144.0 L 129.5 143.5 L 133.0 143.0 L 139.0 142.5 L 145.0 142.0 L 147.5 143.0 L 148.0 145.5 L 148.0 148.5 L 146.0 153.0 L 143.0 158.5 L 139.0 165.5 L 134.5 172.0 L 131.0 176.5 L 128.5 179.5 L 127.0 180.5 L 126.5 180.0 L 126.5 179.5 " stroke="black" fill="none" stroke-width="6.0" stroke-linecap="round" stroke-linejoin="round" />
<path d="M 131.5 156.0 L 131.5 157.0 L 131.0 158.0 L 131.0 158.0 L 132.0 159.0 L 135.0 159.5 L 138.5 159.5 " stroke="black" fill="none" stroke-width="6.0" stroke-linecap="round" stroke-linejoin="round" />
<path d="M 160.0 141.5 L 160.0 141.0 L 160.0 140.5 L 160.0 140.5 L 160.0 140.0 L 161.0 140.0 L 163.5 139.5 L 167.5 139.5 L 171.5 139.0 L 173.5 139.0 L 175.0 139.5 L 176.0 141.0 L 177.0 142.5 L 177.0 145.5 L 177.0 149.0 L 176.5 152.5 L 175.5 155.0 L 175.0 156.0 L 174.0 156.0 L 172.5 156.0 L 170.5 155.0 L 168.5 154.0 L 168.0 153.5 " stroke="black" fill="none" stroke-width="6.0" stroke-linecap="round" stroke-linejoin="round" />
<path d="M 156.0 142.0 L 157.5 141.5 L 158.0 141.0 L 158.0 141.0 L 158.0 141.0 L 158.0 143.5 L 156.5 149.5 L 154.5 158.0 L 153.0 167.5 L 153.0 175.0 L 155.5 178.0 L 160.0 179.0 L 165.5 179.0 L 171.0 179.0 L 177.5 178.5 L 184.5 176.0 L 189.5 173.5 L 190.5 171.5 L 190.5 170.5 L 189.0 169.5 L 188.0 168.5 L 187.5 168.0 L 187.5 168.0 L 187.5 168.0 " stroke="black" fill="none" stroke-width="6.0" stroke-linecap="round" stroke-linejoin="round" />
</svg>