<svg xmlns="http://www.w3.org/2000/svg" width="300" height="300" viewBox="0 0 300 300">
<path d="M 140.5 75.5 L 140.0 75.5 L 139.5 75.5 L 139.5 76.0 L 140.5 77.5 L 144.5 81.0 L 148.0 84.5 L 150.0 87.0 L 151.0 87.5 " stroke="black" fill="none" stroke-width="9.0" stroke-linecap="round" stroke-linejoin="round" />
<path d="M 126.5 97.5 L 125.0 97.5 L 124.0 97.5 L 124.5 97.5 L 128.0 97.5 L 135.0 96.0 L 145.0 94.5 L 157.5 92.5 L 166.5 92.0 L 170.5 92.5 L 170.5 94.0 L 170.0 95.0 L 169.5 98.0 L 168.5 103.0 L 167.5 108.0 L 166.5 112.5 L 166.5 117.0 L 166.5 120.0 L 166.5 120.5 " stroke="black" fill="none" stroke-width="9.0" stroke-linecap="round" stroke-linejoin="round" />
<path d="M 135.5 113.5 L 135.5 113.5 L 135.5 114.5 L 135.5 115.0 L 137.5 114.5 L 144.0 112.5 L 153.0 110.0 L 160.5 109.0 L 164.5 109.0 L 164.5 109.0 " stroke="black" fill="none" stroke-width="9.0" stroke-linecap="round" stroke-linejoin="round" />
<path d="M 132.5 130.0 L 132.5 131.0 L 133.0 131.5 L 135.0 131.5 L 141.0 130.0 L 148.5 127.5 L 156.0 126.0 L 161.0 124.0 " stroke="black" fill="none" stroke-width="9.0" stroke-linecap="round" stroke-linejoin="round" />
<path d="M 122.0 105.5 L 122.0 105.5 L 121.5 105.0 L 121.5 105.0 L 121.0 105.5 L 121.5 109.0 L 122.5 118.5 L 123.5 133.0 L 123.5 150.0 L 125.0 163.5 L 126.0 172.5 L 127.0 180.0 L 127.5 187.5 L 128.0 193.0 L 128.5 194.5 L 128.5 194.5 L 128.5 194.5 L 129.0 195.0 L 129.0 196.0 L 129.0 197.0 L 129.5 198.0 L 129.5 198.0 L 129.5 198.5 L 129.5 199.0 L 129.5 199.5 L 129.5 199.5 L 129.5 200.0 L 129.5 200.0 L 129.5 200.0 L 129.5 200.0 L 130.0 199.5 L 131.5 198.0 L 134.5 194.5 L 139.5 191.0 L 144.5 187.5 L 147.5 184.5 L 148.5 183.0 " stroke="black" fill="none" stroke-width="9.0" stroke-linecap="round" stroke-linejoin="round" />
<path d="M 175.0 142.0 L 175.0 141.5 L 175.0 141.0 L 175.0 141.0 L 174.0 143.0 L 171.0 146.5 L 167.0 151.5 L 162.0 154.0 L 159.0 154.5 " stroke="black" fill="none" stroke-width="9.0" stroke-linecap="round" stroke-linejoin="round" />
<path d="M 133.5 146.5 L 134.0 146.5 L 135.5 147.0 L 139.0 151.0 L 147.0 161.5 L 159.0 174.0 L 170.0 182.5 L 179.0 187.5 L 186.0 190.0 L 189.0 190.5 L 189.5 190.5 " stroke="black" fill="none" stroke-width="9.0" stroke-linecap="round" stroke-linejoin="round" />
</svg>