<svg xmlns="http://www.w3.org/2000/svg" width="300" height="300" viewBox="0 0 300 300">
<path d="M 154.0 98.5 L 154.0 97.5 L 154.0 97.0 L 154.5 97.0 L 154.5 98.5 L 153.5 104.5 L 151.5 113.5 L 149.0 124.0 L 148.0 128.5 L 148.5 129.0 L 149.5 127.5 L 152.0 125.5 L 155.0 124.0 L 158.5 122.5 L 161.5 121.5 L 164.0 121.5 L 165.5 121.5 L 166.5 123.5 L 166.5 127.5 L 166.5 134.0 L 166.0 141.5 L 165.5 147.5 L 165.0 151.5 L 164.5 152.0 L 164.0 151.5 L 163.0 149.5 " stroke="black" fill="none" stroke-width="9.0" stroke-linecap="round" stroke-linejoin="round" />
<path d="M 154.0 111.5 L 154.0 112.5 L 154.0 113.0 L 155.0 113.0 L 158.5 111.5 L 162.0 109.5 L 165.0 108.5 " stroke="black" fill="none" stroke-width="9.0" stroke-linecap="round" stroke-linejoin="round" />
<path d="M 148.5 145.0 L 148.0 145.0 L 147.0 146.0 L 146.5 148.5 L 146.5 152.0 L 147.0 153.5 " stroke="black" fill="none" stroke-width="9.0" stroke-linecap="round" stroke-linejoin="round" />
<path d="M 114.5 102.0 L 114.5 102.0 L 114.5 101.5 L 114.0 101.5 L 114.0 105.5 L 114.5 117.0 L 114.5 134.0 L 114.5 146.0 L 115.0 148.0 L 115.5 148.0 " stroke="black" fill="none" stroke-width="9.0" stroke-linecap="round" stroke-linejoin="round" />
<path d="M 116.5 105.5 L 115.0 106.0 L 114.5 106.0 L 114.5 106.0 L 117.0 105.0 L 120.5 103.5 L 123.5 102.0 L 126.5 100.5 L 129.5 99.5 L 130.5 99.5 " stroke="black" fill="none" stroke-width="9.0" stroke-linecap="round" stroke-linejoin="round" />
<path d="M 119.0 122.5 L 118.0 122.5 L 117.5 122.5 L 118.5 122.5 L 121.0 122.0 L 124.0 121.5 L 126.5 120.5 L 129.0 120.5 L 129.5 120.5 " stroke="black" fill="none" stroke-width="9.0" stroke-linecap="round" stroke-linejoin="round" />
<path d="M 114.5 145.0 L 115.0 143.0 L 116.0 142.0 L 118.5 141.5 L 122.0 140.5 L 126.0 139.0 L 128.0 138.0 " stroke="black" fill="none" stroke-width="9.0" stroke-linecap="round" stroke-linejoin="round" />
<path d="M 182.0 101.5 L 182.0 100.5 L 182.0 99.5 L 183.0 99.0 L 186.0 98.5 L 190.0 98.0 L 194.0 97.5 L 196.5 96.5 L 197.5 96.5 L 198.0 96.5 L 198.0 97.0 L 198.0 99.0 L 198.5 102.5 L 198.5 108.5 L 198.0 118.0 L 196.5 130.5 L 195.0 140.5 L 194.0 146.0 L 194.0 147.5 L 194.0 147.0 L 194.0 143.5 " stroke="black" fill="none" stroke-width="9.0" stroke-linecap="round" stroke-linejoin="round" />
<path d="M 181.0 116.0 L 180.0 116.0 L 179.5 116.0 L 179.5 116.0 L 181.5 116.0 L 185.0 115.5 L 188.5 115.0 L 191.0 114.5 L 192.5 114.5 " stroke="black" fill="none" stroke-width="9.0" stroke-linecap="round" stroke-linejoin="round" />
<path d="M 181.0 133.0 L 181.5 133.0 L 181.5 133.0 L 182.5 133.0 L 183.5 133.0 L 185.0 132.5 L 188.0 132.5 L 190.5 132.0 L 192.0 131.5 " stroke="black" fill="none" stroke-width="9.0" stroke-linecap="round" stroke-linejoin="round" />
<path d="M 104.5 167.0 L 104.5 166.0 L 104.5 165.5 L 107.0 165.0 L 113.0 164.5 L 124.0 164.5 L 140.0 164.0 L 158.5 164.0 L 177.0 164.5 L 194.5 164.5 L 209.0 163.0 L 215.0 162.5 " stroke="black" fill="none" stroke-width="9.0" stroke-linecap="round" stroke-linejoin="round" />
<path d="M 153.5 180.0 L 154.0 180.0 L 154.0 180.0 L 153.5 180.0 L 151.5 183.5 L 146.0 193.0 L 139.0 204.0 L 136.5 207.5 L 136.5 206.5 " stroke="black" fill="none" stroke-width="9.0" stroke-linecap="round" stroke-linejoin="round" />
<path d="M 179.5 188.5 L 179.0 187.5 L 179.0 187.5 L 180.5 188.5 L 186.5 193.0 L 194.0 199.0 L 202.5 206.0 L 205.5 208.5 " stroke="black" fill="none" stroke-width="9.0" stroke-linecap="round" stroke-linejoin="round" />
</svg>