<svg xmlns="http://www.w3.org/2000/svg" width="300" height="300" viewBox="0 0 300 300">
<path d="M 115.0 86.0 L 115.5 86.0 L 115.5 86.0 L 116.0 85.5 L 116.5 85.5 L 116.5 85.5 L 117.0 85.5 L 117.5 88.5 L 118.0 96.5 L 118.5 105.0 L 118.5 108.0 L 119.0 108.0 " stroke="black" fill="none" stroke-width="9.0" stroke-linecap="round" stroke-linejoin="round" />
<path d="M 101.0 100.0 L 100.5 99.5 L 99.5 98.5 L 99.5 98.5 L 102.5 98.5 L 107.0 98.0 L 120.5 96.0 L 133.0 94.0 L 143.5 92.5 L 147.5 91.5 L 148.0 91.5 " stroke="black" fill="none" stroke-width="9.0" stroke-linecap="round" stroke-linejoin="round" />
<path d="M 168.0 94.0 L 167.0 94.0 L 165.0 94.0 L 164.5 94.0 L 164.5 94.0 L 168.0 94.5 L 176.5 94.5 L 186.5 94.0 L 194.5 93.0 L 197.5 92.0 L 197.5 92.0 " stroke="black" fill="none" stroke-width="9.0" stroke-linecap="round" stroke-linejoin="round" />
<path d="M 179.5 82.5 L 180.0 82.5 L 180.5 82.5 L 180.5 82.5 L 181.0 83.5 L 181.0 89.5 L 181.0 102.5 L 181.5 112.0 L 182.0 114.0 L 182.5 113.0 " stroke="black" fill="none" stroke-width="9.0" stroke-linecap="round" stroke-linejoin="round" />
<path d="M 104.5 127.0 L 104.5 127.0 L 104.5 127.0 L 105.5 127.0 L 113.5 127.0 L 128.5 126.5 L 145.5 127.0 L 161.5 127.0 L 174.0 127.0 L 182.0 126.5 L 186.0 126.0 L 185.0 125.5 L 184.5 125.5 " stroke="black" fill="none" stroke-width="9.0" stroke-linecap="round" stroke-linejoin="round" />
<path d="M 149.5 108.0 L 149.0 108.0 L 148.5 108.0 L 148.0 108.5 L 148.5 113.5 L 149.0 123.5 L 148.5 133.5 L 148.0 138.5 L 148.0 139.0 L 148.5 138.5 " stroke="black" fill="none" stroke-width="9.0" stroke-linecap="round" stroke-linejoin="round" />
<path d="M 102.5 147.5 L 102.5 147.5 L 103.5 147.5 L 110.5 147.5 L 124.5 148.0 L 141.5 148.0 L 158.0 147.0 L 171.5 147.0 L 180.5 148.5 L 185.5 150.5 L 186.5 151.5 L 184.5 150.5 " stroke="black" fill="none" stroke-width="9.0" stroke-linecap="round" stroke-linejoin="round" />
<path d="M 145.5 148.5 L 145.5 148.5 L 145.0 148.5 L 145.0 148.5 L 144.5 148.5 L 144.5 149.0 L 143.5 151.0 L 140.5 155.0 L 134.5 160.5 L 126.5 166.5 L 118.5 172.5 L 112.0 177.0 L 109.0 178.5 L 109.0 179.0 L 109.0 179.0 L 110.5 178.0 L 113.0 177.0 L 116.5 176.5 L 122.5 175.5 L 133.0 174.5 L 148.5 173.5 L 164.5 173.5 L 177.5 172.5 L 186.0 172.0 L 189.5 172.0 L 189.5 171.5 L 189.0 171.5 " stroke="black" fill="none" stroke-width="9.0" stroke-linecap="round" stroke-linejoin="round" />
<path d="M 172.0 160.0 L 171.5 160.0 L 169.5 159.5 L 169.0 159.5 L 169.5 160.5 L 174.0 165.5 L 179.5 172.0 L 185.0 176.5 L 187.5 178.0 L 187.5 178.0 " stroke="black" fill="none" stroke-width="9.0" stroke-linecap="round" stroke-linejoin="round" />
<path d="M 109.0 198.5 L 109.5 198.0 L 109.5 197.5 L 110.0 197.0 L 111.0 198.5 L 113.5 204.0 L 115.5 210.0 L 117.5 213.0 L 118.0 213.5 " stroke="black" fill="none" stroke-width="9.0" stroke-linecap="round" stroke-linejoin="round" />
<path d="M 112.0 197.5 L 110.5 197.5 L 109.5 198.0 L 110.0 198.0 L 114.5 198.0 L 122.0 197.5 L 135.0 196.0 L 152.0 193.5 L 169.0 192.5 L 182.0 193.0 L 190.0 195.0 L 193.0 196.0 L 193.5 196.5 L 193.0 197.0 L 192.5 198.0 L 191.5 200.5 L 191.0 203.5 L 190.5 205.5 L 190.5 208.0 L 190.5 209.5 L 190.5 210.0 " stroke="black" fill="none" stroke-width="9.0" stroke-linecap="round" stroke-linejoin="round" />
<path d="M 144.0 199.5 L 143.5 199.5 L 142.5 200.0 L 142.5 201.0 L 142.5 204.0 L 144.0 208.0 L 145.5 211.5 L 146.5 213.0 L 147.0 213.0 " stroke="black" fill="none" stroke-width="9.0" stroke-linecap="round" stroke-linejoin="round" />
<path d="M 168.0 194.0 L 167.5 194.5 L 167.0 195.0 L 166.5 196.5 L 166.5 200.5 L 167.0 205.0 L 167.5 208.5 L 167.5 211.0 L 167.5 211.5 " stroke="black" fill="none" stroke-width="9.0" stroke-linecap="round" stroke-linejoin="round" />
<path d="M 94.5 221.0 L 94.5 221.0 L 95.5 221.5 L 97.0 222.0 L 100.5 222.0 L 107.0 222.0 L 118.5 222.0 L 134.5 221.5 L 154.0 219.5 L 171.5 217.5 L 188.0 216.0 L 201.5 216.0 L 210.0 218.0 L 215.5 219.0 L 218.5 219.0 L 218.0 217.5 " stroke="black" fill="none" stroke-width="9.0" stroke-linecap="round" stroke-linejoin="round" />
</svg>