<svg xmlns="http://www.w3.org/2000/svg" width="300" height="300" viewBox="0 0 300 300">
<path d="M 131.0 113.5 L 131.0 113.5 L 131.0 113.0 L 131.0 113.0 L 131.0 113.5 L 131.0 117.0 L 131.5 121.5 L 132.0 125.5 L 132.0 129.0 L 132.0 130.5 L 132.0 131.5 " stroke="black" fill="none" stroke-width="6.0" stroke-linecap="round" stroke-linejoin="round" />
<path d="M 122.5 125.5 L 121.5 125.0 L 120.5 124.5 L 120.5 124.5 L 123.0 125.0 L 126.5 125.0 L 131.5 125.5 L 137.0 124.0 L 142.0 122.5 L 145.0 122.5 " stroke="black" fill="none" stroke-width="6.0" stroke-linecap="round" stroke-linejoin="round" />
<path d="M 162.5 113.5 L 162.5 113.5 L 162.5 113.5 L 162.5 113.5 L 162.5 113.5 L 163.0 115.5 L 164.0 119.0 L 164.5 122.5 L 165.0 126.5 L 165.0 129.0 L 165.0 129.5 " stroke="black" fill="none" stroke-width="6.0" stroke-linecap="round" stroke-linejoin="round" />
<path d="M 156.0 125.5 L 155.5 125.5 L 155.0 125.5 L 155.0 125.0 L 156.0 125.0 L 160.5 124.5 L 166.0 124.5 L 171.0 124.5 L 174.5 124.5 L 176.5 125.0 " stroke="black" fill="none" stroke-width="6.0" stroke-linecap="round" stroke-linejoin="round" />
<path d="M 158.0 137.0 L 158.5 137.0 L 159.0 136.5 L 159.0 136.5 L 159.0 136.5 L 159.0 137.5 L 157.5 141.0 L 155.5 145.0 L 153.0 149.0 L 151.5 151.5 L 150.5 152.5 L 150.5 152.5 " stroke="black" fill="none" stroke-width="6.0" stroke-linecap="round" stroke-linejoin="round" />
<path d="M 153.5 146.0 L 152.0 145.5 L 151.5 145.5 L 151.5 145.5 L 152.5 145.5 L 154.5 145.5 L 157.5 145.5 L 160.5 145.0 L 164.0 145.0 L 167.0 145.0 L 169.5 145.0 L 171.5 144.5 L 172.5 144.0 L 173.0 143.5 L 173.5 142.5 L 174.0 142.5 L 174.0 142.5 L 174.0 142.5 L 174.0 142.5 L 173.5 144.0 L 172.0 146.5 L 169.5 149.5 L 166.0 154.0 L 161.0 159.0 L 156.0 165.0 L 152.0 168.5 L 149.5 170.0 L 148.0 171.0 L 147.5 171.5 L 147.5 171.5 L 147.5 171.5 " stroke="black" fill="none" stroke-width="6.0" stroke-linecap="round" stroke-linejoin="round" />
<path d="M 157.0 157.0 L 156.5 157.0 L 155.0 157.0 L 155.0 157.0 L 155.0 157.0 L 157.0 159.5 L 161.0 162.5 L 167.0 165.0 L 173.5 165.5 L 177.5 166.0 L 178.0 167.0 " stroke="black" fill="none" stroke-width="6.0" stroke-linecap="round" stroke-linejoin="round" />
<path d="M 153.5 177.5 L 153.0 178.0 L 152.5 178.0 L 152.5 178.0 L 154.5 177.5 L 158.5 177.5 L 163.5 177.5 L 168.5 177.0 L 171.0 176.5 L 172.0 177.0 L 172.0 177.5 " stroke="black" fill="none" stroke-width="6.0" stroke-linecap="round" stroke-linejoin="round" />
<path d="M 154.5 188.5 L 154.5 188.5 L 154.5 187.5 L 154.5 187.0 L 156.5 186.5 L 159.5 186.5 L 163.5 186.5 L 167.0 186.5 L 169.0 187.0 L 170.5 187.5 " stroke="black" fill="none" stroke-width="6.0" stroke-linecap="round" stroke-linejoin="round" />
<path d="M 151.0 195.0 L 151.0 195.0 L 151.0 195.0 L 151.0 195.0 L 151.0 195.5 L 152.0 195.5 L 155.0 195.5 L 159.0 195.5 L 164.5 194.5 L 168.5 193.5 L 171.0 192.5 L 172.5 192.5 L 173.5 192.5 L 173.5 192.5 L 174.0 192.5 L 174.0 192.5 " stroke="black" fill="none" stroke-width="6.0" stroke-linecap="round" stroke-linejoin="round" />
<path d="M 161.5 169.5 L 161.5 169.5 L 161.5 169.5 L 161.5 169.0 L 161.5 169.0 L 162.0 171.0 L 162.5 175.0 L 163.0 181.0 L 163.5 187.5 L 163.5 193.5 L 163.0 197.5 L 163.0 199.0 L 163.0 199.5 L 163.0 199.5 L 163.5 199.5 L 163.5 200.0 L 164.0 200.0 L 164.0 200.0 " stroke="black" fill="none" stroke-width="6.0" stroke-linecap="round" stroke-linejoin="round" />
<path d="M 129.5 144.0 L 129.0 145.0 L 129.0 145.5 L 129.0 146.0 L 130.0 147.5 L 132.0 148.5 L 134.0 150.0 L 134.5 150.5 " stroke="black" fill="none" stroke-width="6.0" stroke-linecap="round" stroke-linejoin="round" />
<path d="M 128.5 157.0 L 128.0 157.0 L 126.5 157.5 L 126.5 158.0 L 128.5 159.0 L 132.0 160.0 L 134.5 161.0 L 136.5 162.0 L 136.5 164.0 L 134.0 166.5 L 131.0 169.0 L 129.5 170.5 L 129.5 172.0 L 132.0 173.0 L 135.0 175.0 L 136.5 178.5 L 136.0 184.5 L 133.0 191.0 L 129.5 195.0 L 126.0 197.0 L 123.5 198.0 L 121.5 198.5 L 119.5 199.5 L 118.0 200.5 L 118.0 200.5 L 118.0 200.5 L 118.0 200.5 L 118.5 200.5 L 119.0 200.5 L 120.0 200.5 L 122.0 200.5 L 125.0 200.5 L 129.5 201.0 L 135.5 202.0 L 143.5 203.5 L 151.5 205.0 L 158.5 206.5 L 166.0 207.5 L 173.0 208.0 L 179.0 207.5 L 185.0 206.0 L 190.0 204.5 L 192.0 204.0 " stroke="black" fill="none" stroke-width="6.0" stroke-linecap="round" stroke-linejoin="round" />
</svg>