<svg xmlns="http://www.w3.org/2000/svg" width="300" height="300" viewBox="0 0 300 300">
<path d="M 124.44444444444444 96.66666666666667 L 123.8888888888889 96.66666666666667 L 123.33333333333333 96.11111111111111 L 123.33333333333333 97.22222222222223 L 123.33333333333333 101.11111111111111 L 124.44444444444444 106.66666666666667 L 125.00000000000001 110.0 L 125.55555555555556 111.11111111111111 " stroke="black" fill="none" stroke-width="7.0" stroke-linecap="round" stroke-linejoin="round" />
<path d="M 113.33333333333333 106.66666666666667 L 113.33333333333333 107.22222222222223 L 112.77777777777779 107.22222222222223 L 114.44444444444444 107.22222222222223 L 119.44444444444444 107.22222222222223 L 126.1111111111111 107.22222222222223 L 133.33333333333334 107.22222222222223 L 138.8888888888889 106.66666666666667 L 141.11111111111111 105.55555555555556 " stroke="black" fill="none" stroke-width="7.0" stroke-linecap="round" stroke-linejoin="round" />
<path d="M 151.11111111111111 105.55555555555556 L 150.55555555555557 105.55555555555556 L 150.55555555555557 106.11111111111111 L 150.00000000000003 106.11111111111111 L 150.55555555555557 106.11111111111111 L 153.8888888888889 106.11111111111111 L 160.00000000000003 105.55555555555556 L 166.66666666666669 104.44444444444444 L 171.11111111111114 103.88888888888889 L 172.7777777777778 103.88888888888889 " stroke="black" fill="none" stroke-width="7.0" stroke-linecap="round" stroke-linejoin="round" />
<path d="M 163.8888888888889 91.11111111111111 L 163.33333333333334 91.11111111111111 L 162.7777777777778 91.11111111111111 L 162.22222222222223 91.66666666666667 L 162.22222222222223 96.11111111111111 L 163.33333333333334 103.33333333333333 L 164.44444444444446 110.0 L 165.00000000000003 112.22222222222221 L 165.00000000000003 112.22222222222221 " stroke="black" fill="none" stroke-width="7.0" stroke-linecap="round" stroke-linejoin="round" />
<path d="M 115.00000000000001 124.44444444444444 L 113.8888888888889 123.8888888888889 L 113.33333333333333 123.33333333333333 L 112.77777777777779 122.77777777777779 L 112.77777777777779 122.77777777777779 L 115.00000000000001 123.8888888888889 L 118.8888888888889 125.00000000000001 L 123.8888888888889 125.00000000000001 L 129.44444444444446 123.8888888888889 L 134.44444444444446 122.22222222222221 L 135.55555555555557 121.66666666666667 " stroke="black" fill="none" stroke-width="7.0" stroke-linecap="round" stroke-linejoin="round" />
<path d="M 125.55555555555556 117.77777777777779 L 125.55555555555556 117.77777777777779 L 124.44444444444444 117.77777777777779 L 123.8888888888889 117.77777777777779 L 123.8888888888889 118.33333333333333 L 123.8888888888889 120.55555555555556 L 123.8888888888889 124.44444444444444 L 123.8888888888889 128.8888888888889 L 123.8888888888889 130.55555555555557 " stroke="black" fill="none" stroke-width="7.0" stroke-linecap="round" stroke-linejoin="round" />
<path d="M 107.22222222222223 134.44444444444446 L 107.22222222222223 134.44444444444446 L 107.22222222222223 135.00000000000003 L 107.22222222222223 135.00000000000003 L 111.66666666666667 135.00000000000003 L 121.1111111111111 133.8888888888889 L 131.11111111111111 131.66666666666669 L 137.7777777777778 130.55555555555557 L 139.44444444444446 130.55555555555557 " stroke="black" fill="none" stroke-width="7.0" stroke-linecap="round" stroke-linejoin="round" />
<path d="M 123.33333333333333 134.44444444444446 L 123.33333333333333 134.44444444444446 L 122.77777777777779 134.44444444444446 L 122.77777777777779 135.00000000000003 L 122.22222222222221 135.55555555555557 L 121.66666666666667 137.22222222222223 L 119.44444444444444 141.11111111111111 L 113.8888888888889 147.7777777777778 L 108.33333333333333 151.66666666666669 L 106.11111111111111 152.22222222222223 L 105.55555555555556 151.66666666666669 " stroke="black" fill="none" stroke-width="7.0" stroke-linecap="round" stroke-linejoin="round" />
<path d="M 128.8888888888889 136.66666666666669 L 128.8888888888889 136.66666666666669 L 128.8888888888889 136.66666666666669 L 129.44444444444446 136.66666666666669 L 129.44444444444446 136.66666666666669 L 129.44444444444446 137.22222222222223 L 129.44444444444446 139.44444444444446 L 130.55555555555557 142.7777777777778 L 133.8888888888889 146.66666666666669 L 138.33333333333334 148.8888888888889 L 141.66666666666669 148.8888888888889 L 142.7777777777778 148.8888888888889 " stroke="black" fill="none" stroke-width="7.0" stroke-linecap="round" stroke-linejoin="round" />
<path d="M 115.55555555555556 156.66666666666669 L 115.00000000000001 157.7777777777778 L 114.44444444444444 158.33333333333334 L 115.55555555555556 158.33333333333334 L 118.8888888888889 158.33333333333334 L 123.33333333333333 157.22222222222223 L 126.66666666666667 156.11111111111111 L 127.22222222222221 156.11111111111111 " stroke="black" fill="none" stroke-width="7.0" stroke-linecap="round" stroke-linejoin="round" />
<path d="M 125.00000000000001 148.8888888888889 L 124.44444444444444 149.44444444444446 L 123.33333333333333 150.00000000000003 L 122.77777777777779 151.66666666666669 L 122.77777777777779 155.00000000000003 L 122.77777777777779 160.55555555555557 L 123.33333333333333 165.00000000000003 L 123.33333333333333 166.66666666666669 " stroke="black" fill="none" stroke-width="7.0" stroke-linecap="round" stroke-linejoin="round" />
<path d="M 110.0 172.22222222222223 L 110.0 172.22222222222223 L 110.55555555555556 172.22222222222223 L 111.66666666666667 172.22222222222223 L 116.1111111111111 171.66666666666669 L 125.00000000000001 169.44444444444446 L 133.33333333333334 167.22222222222223 L 137.7777777777778 166.66666666666669 " stroke="black" fill="none" stroke-width="7.0" stroke-linecap="round" stroke-linejoin="round" />
<path d="M 161.11111111111111 123.8888888888889 L 161.11111111111111 123.33333333333333 L 161.11111111111111 122.77777777777779 L 161.66666666666669 122.22222222222221 L 161.66666666666669 122.22222222222221 L 161.66666666666669 123.33333333333333 L 161.66666666666669 127.77777777777779 L 160.00000000000003 138.33333333333334 L 157.22222222222223 151.66666666666669 L 155.00000000000003 160.55555555555557 L 154.44444444444446 162.22222222222223 L 153.8888888888889 160.55555555555557 " stroke="black" fill="none" stroke-width="7.0" stroke-linecap="round" stroke-linejoin="round" />
<path d="M 151.11111111111111 131.66666666666669 L 151.11111111111111 131.66666666666669 L 150.55555555555557 132.22222222222223 L 150.55555555555557 132.7777777777778 L 152.22222222222223 132.7777777777778 L 156.11111111111111 132.22222222222223 L 161.11111111111111 131.11111111111111 L 165.55555555555557 130.00000000000003 L 169.44444444444446 128.33333333333334 L 171.11111111111114 127.77777777777779 L 171.11111111111114 127.77777777777779 L 171.66666666666669 127.77777777777779 L 171.66666666666669 127.77777777777779 L 171.66666666666669 128.33333333333334 L 171.66666666666669 128.8888888888889 L 171.66666666666669 129.44444444444446 L 171.66666666666669 130.55555555555557 L 171.66666666666669 131.66666666666669 L 171.11111111111114 133.33333333333334 L 171.11111111111114 136.11111111111111 L 170.55555555555557 141.66666666666669 L 170.55555555555557 148.8888888888889 L 171.11111111111114 156.66666666666669 L 172.7777777777778 161.66666666666669 L 175.55555555555557 163.33333333333334 L 178.33333333333334 162.7777777777778 L 180.55555555555557 161.66666666666669 L 181.11111111111114 159.44444444444446 L 181.11111111111114 159.44444444444446 " stroke="black" fill="none" stroke-width="7.0" stroke-linecap="round" stroke-linejoin="round" />
<path d="M 150.55555555555557 144.44444444444446 L 149.44444444444446 144.44444444444446 L 148.8888888888889 145.55555555555557 L 149.44444444444446 146.66666666666669 L 152.7777777777778 149.44444444444446 L 157.22222222222223 151.11111111111111 " stroke="black" fill="none" stroke-width="7.0" stroke-linecap="round" stroke-linejoin="round" />
<path d="M 129.44444444444446 179.44444444444446 L 130.00000000000003 180.00000000000003 L 130.55555555555557 180.55555555555557 L 131.66666666666669 180.55555555555557 L 135.55555555555557 179.44444444444446 L 143.33333333333334 177.22222222222223 L 152.22222222222223 175.00000000000003 L 160.00000000000003 174.44444444444446 L 163.33333333333334 174.44444444444446 " stroke="black" fill="none" stroke-width="7.0" stroke-linecap="round" stroke-linejoin="round" />
<path d="M 122.77777777777779 191.66666666666669 L 122.22222222222221 191.66666666666669 L 121.66666666666667 191.11111111111114 L 121.66666666666667 191.11111111111114 L 123.33333333333333 190.55555555555557 L 129.44444444444446 190.00000000000003 L 140.00000000000003 189.44444444444446 L 154.44444444444446 187.7777777777778 L 168.33333333333334 185.00000000000003 L 176.66666666666669 183.33333333333334 L 179.44444444444446 182.7777777777778 L 179.44444444444446 182.7777777777778 " stroke="black" fill="none" stroke-width="7.0" stroke-linecap="round" stroke-linejoin="round" />
<path d="M 142.7777777777778 192.22222222222223 L 143.33333333333334 191.66666666666669 L 143.8888888888889 191.66666666666669 L 143.8888888888889 191.11111111111114 L 143.8888888888889 191.11111111111114 L 144.44444444444446 192.22222222222223 L 143.33333333333334 195.00000000000003 L 140.55555555555557 200.00000000000003 L 135.55555555555557 206.66666666666669 L 129.44444444444446 212.22222222222223 L 126.1111111111111 214.44444444444446 L 125.55555555555556 214.44444444444446 L 126.1111111111111 213.8888888888889 L 127.77777777777779 213.33333333333334 L 130.00000000000003 212.22222222222223 L 133.8888888888889 211.11111111111114 L 139.44444444444446 210.00000000000003 L 147.7777777777778 208.8888888888889 L 158.33333333333334 208.33333333333334 L 167.7777777777778 206.66666666666669 L 173.33333333333334 205.55555555555557 L 174.44444444444446 205.55555555555557 " stroke="black" fill="none" stroke-width="7.0" stroke-linecap="round" stroke-linejoin="round" />
<path d="M 168.33333333333334 198.33333333333334 L 167.7777777777778 198.33333333333334 L 166.66666666666669 198.33333333333334 L 166.66666666666669 198.33333333333334 L 167.22222222222223 200.00000000000003 L 171.11111111111114 203.8888888888889 L 175.55555555555557 210.00000000000003 L 178.8888888888889 213.8888888888889 L 181.11111111111114 215.00000000000003 L 181.66666666666669 214.44444444444446 L 181.66666666666669 214.44444444444446 " stroke="black" fill="none" stroke-width="7.0" stroke-linecap="round" stroke-linejoin="round" />
</svg>