<svg xmlns="http://www.w3.org/2000/svg" width="300" height="300" viewBox="0 0 300 300">
<path d="M 132.0 110.0 L 132.5 110.0 L 133.0 109.5 L 133.5 109.5 L 133.5 109.5 L 134.0 110.5 L 134.5 114.0 L 134.5 119.5 L 134.5 123.5 L 133.5 125.5 L 133.5 126.0 " stroke="black" fill="none" stroke-width="6.0" stroke-linecap="round" stroke-linejoin="round" />
<path d="M 125.0 118.5 L 123.5 118.5 L 123.0 118.5 L 123.0 118.5 L 125.0 118.5 L 128.0 118.0 L 131.0 117.5 L 135.0 117.5 L 139.5 117.5 L 144.5 117.5 L 147.0 117.0 " stroke="black" fill="none" stroke-width="6.0" stroke-linecap="round" stroke-linejoin="round" />
<path d="M 160.0 109.0 L 160.0 109.0 L 160.0 108.5 L 160.5 108.5 L 160.5 108.0 L 161.0 108.0 L 161.0 110.0 L 161.0 114.0 L 161.0 118.5 L 161.0 122.5 L 161.0 124.5 " stroke="black" fill="none" stroke-width="6.0" stroke-linecap="round" stroke-linejoin="round" />
<path d="M 156.0 119.0 L 156.0 119.0 L 155.0 119.0 L 154.5 119.0 L 155.0 119.0 L 158.0 119.0 L 162.5 118.5 L 167.0 118.5 L 172.0 118.5 L 176.5 118.5 L 179.0 118.5 L 179.5 118.5 " stroke="black" fill="none" stroke-width="6.0" stroke-linecap="round" stroke-linejoin="round" />
<path d="M 123.5 135.5 L 122.0 136.0 L 121.5 136.0 L 121.5 136.0 L 122.0 137.0 L 123.5 138.0 L 125.5 140.0 L 127.0 141.0 L 128.0 142.0 L 128.5 142.0 L 129.0 142.0 " stroke="black" fill="none" stroke-width="6.0" stroke-linecap="round" stroke-linejoin="round" />
<path d="M 123.0 151.0 L 122.5 151.5 L 121.0 152.0 L 120.5 153.0 L 121.0 154.5 L 123.0 157.0 L 125.0 158.5 L 127.0 160.5 L 128.0 161.0 L 128.0 161.5 " stroke="black" fill="none" stroke-width="6.0" stroke-linecap="round" stroke-linejoin="round" />
<path d="M 119.0 181.5 L 119.0 182.5 L 119.0 183.5 L 119.0 183.5 L 119.0 183.5 L 119.0 183.5 L 119.0 183.0 L 120.0 182.0 L 122.0 180.0 L 124.5 177.0 L 127.5 174.0 L 129.5 172.0 L 130.5 171.0 " stroke="black" fill="none" stroke-width="6.0" stroke-linecap="round" stroke-linejoin="round" />
<path d="M 139.5 139.0 L 139.5 139.0 L 139.5 139.0 L 139.5 139.0 L 139.5 139.0 L 142.0 138.0 L 146.5 137.0 L 153.0 135.5 L 161.0 134.0 L 168.0 132.5 L 172.0 131.5 L 172.0 131.0 L 171.5 131.0 L 171.0 131.0 L 170.5 131.0 L 170.5 131.0 " stroke="black" fill="none" stroke-width="6.0" stroke-linecap="round" stroke-linejoin="round" />
<path d="M 142.0 149.0 L 141.5 149.0 L 141.0 149.0 L 141.0 149.0 L 141.0 149.0 L 143.5 149.0 L 148.5 149.0 L 154.5 149.0 L 161.5 148.5 L 167.5 147.5 L 171.5 146.0 L 172.5 146.0 L 172.5 146.0 L 172.5 146.5 " stroke="black" fill="none" stroke-width="6.0" stroke-linecap="round" stroke-linejoin="round" />
<path d="M 158.0 138.0 L 158.5 138.0 L 159.0 138.0 L 159.0 138.5 L 159.0 140.5 L 159.0 146.5 L 158.5 155.5 L 158.5 162.5 L 158.5 165.5 L 158.5 165.5 L 158.0 164.5 " stroke="black" fill="none" stroke-width="6.0" stroke-linecap="round" stroke-linejoin="round" />
<path d="M 147.0 142.0 L 146.0 142.0 L 145.5 142.0 L 145.5 142.5 L 147.0 143.5 L 149.0 144.5 L 151.0 145.0 L 151.5 145.5 " stroke="black" fill="none" stroke-width="6.0" stroke-linecap="round" stroke-linejoin="round" />
<path d="M 168.5 137.5 L 168.5 137.5 L 168.5 138.0 L 168.0 138.0 L 168.0 138.5 L 167.5 139.5 L 167.0 141.5 L 166.5 143.5 L 165.5 146.0 " stroke="black" fill="none" stroke-width="6.0" stroke-linecap="round" stroke-linejoin="round" />
<path d="M 153.5 153.5 L 153.5 153.5 L 154.5 153.5 L 155.0 153.5 L 155.5 153.5 L 154.0 154.5 L 151.5 157.0 L 147.0 161.0 L 143.5 164.0 L 141.5 165.5 L 141.5 165.5 L 142.0 165.5 " stroke="black" fill="none" stroke-width="6.0" stroke-linecap="round" stroke-linejoin="round" />
<path d="M 159.5 155.0 L 160.0 156.0 L 161.0 156.5 L 163.5 157.5 L 168.0 159.0 L 171.5 160.5 L 174.0 162.0 L 174.5 163.0 " stroke="black" fill="none" stroke-width="6.0" stroke-linecap="round" stroke-linejoin="round" />
<path d="M 144.0 174.0 L 143.5 174.0 L 143.0 174.0 L 143.0 174.5 L 143.0 177.0 L 143.5 181.0 L 144.5 184.5 L 145.0 186.5 L 145.5 186.0 " stroke="black" fill="none" stroke-width="6.0" stroke-linecap="round" stroke-linejoin="round" />
<path d="M 143.5 173.0 L 142.5 173.5 L 142.0 173.5 L 143.0 173.5 L 146.5 173.5 L 150.5 173.0 L 154.5 172.5 L 159.5 172.0 L 165.0 172.0 L 169.5 172.0 L 173.0 172.0 L 174.5 172.0 L 175.0 172.0 L 175.0 172.0 L 174.5 172.5 L 174.5 172.5 L 174.0 173.5 L 174.0 174.5 L 173.0 177.0 L 172.0 180.5 L 170.5 184.5 L 169.5 188.0 L 169.5 190.0 L 169.5 190.5 L 169.5 190.5 " stroke="black" fill="none" stroke-width="6.0" stroke-linecap="round" stroke-linejoin="round" />
<path d="M 151.5 182.5 L 151.0 182.5 L 150.5 182.5 L 150.5 183.0 L 151.0 183.0 L 153.0 183.0 L 156.0 183.0 L 159.5 183.0 L 162.0 183.0 L 163.0 182.5 " stroke="black" fill="none" stroke-width="6.0" stroke-linecap="round" stroke-linejoin="round" />
<path d="M 160.5 174.5 L 160.5 174.5 L 160.0 175.0 L 159.5 175.5 L 159.5 176.5 L 159.5 179.0 L 159.5 183.0 L 159.5 187.0 L 159.5 190.0 L 159.5 191.0 " stroke="black" fill="none" stroke-width="6.0" stroke-linecap="round" stroke-linejoin="round" />
<path d="M 150.0 195.5 L 150.0 196.0 L 148.5 197.0 L 148.0 197.0 L 148.0 197.0 L 149.0 196.5 L 151.5 195.5 L 155.0 195.0 L 160.0 194.0 L 165.0 193.0 L 170.0 192.5 L 172.0 192.5 " stroke="black" fill="none" stroke-width="6.0" stroke-linecap="round" stroke-linejoin="round" />
</svg>