<svg xmlns="http://www.w3.org/2000/svg" width="300" height="300" viewBox="0 0 300 300">
<path d="M 72.77777777777777 85.0 L 71.66666666666667 85.0 L 71.66666666666667 84.44444444444444 L 71.66666666666667 83.88888888888889 L 75.0 82.77777777777777 L 83.33333333333333 82.22222222222223 L 96.66666666666667 82.22222222222223 L 115.55555555555556 81.11111111111111 L 132.22222222222223 78.33333333333333 L 145.00000000000003 76.66666666666667 L 149.44444444444446 76.66666666666667 L 149.44444444444446 76.66666666666667 " stroke="black" fill="none" stroke-width="11.0" stroke-linecap="round" stroke-linejoin="round" />
<path d="M 107.22222222222223 63.888888888888886 L 107.22222222222223 63.888888888888886 L 107.22222222222223 63.888888888888886 L 107.22222222222223 63.888888888888886 L 107.22222222222223 69.44444444444444 L 107.77777777777779 80.0 L 108.88888888888889 91.66666666666667 L 110.0 96.66666666666667 L 111.66666666666667 98.33333333333333 " stroke="black" fill="none" stroke-width="11.0" stroke-linecap="round" stroke-linejoin="round" />
<path d="M 169.44444444444446 78.88888888888889 L 168.8888888888889 78.88888888888889 L 168.33333333333334 78.88888888888889 L 169.44444444444446 78.88888888888889 L 175.55555555555557 78.88888888888889 L 186.11111111111114 77.77777777777777 L 198.33333333333334 76.11111111111111 L 207.22222222222223 75.0 L 209.44444444444446 73.88888888888889 " stroke="black" fill="none" stroke-width="11.0" stroke-linecap="round" stroke-linejoin="round" />
<path d="M 188.33333333333334 59.44444444444444 L 186.66666666666669 61.111111111111114 L 186.66666666666669 63.888888888888886 L 188.33333333333334 70.0 L 190.55555555555557 77.77777777777777 L 192.22222222222223 84.44444444444444 L 192.7777777777778 88.88888888888889 L 193.8888888888889 90.55555555555556 " stroke="black" fill="none" stroke-width="11.0" stroke-linecap="round" stroke-linejoin="round" />
<path d="M 77.22222222222223 116.1111111111111 L 76.66666666666667 114.44444444444444 L 76.66666666666667 113.33333333333333 L 81.66666666666667 112.77777777777779 L 91.11111111111111 112.77777777777779 L 106.11111111111111 112.22222222222221 L 123.8888888888889 110.0 L 142.7777777777778 108.33333333333333 L 161.66666666666669 106.66666666666667 L 180.00000000000003 105.55555555555556 L 197.7777777777778 105.0 L 211.66666666666669 105.55555555555556 L 220.00000000000003 106.66666666666667 L 221.66666666666669 107.22222222222223 " stroke="black" fill="none" stroke-width="11.0" stroke-linecap="round" stroke-linejoin="round" />
<path d="M 102.22222222222223 132.7777777777778 L 101.66666666666667 132.7777777777778 L 100.0 132.22222222222223 L 98.88888888888889 132.22222222222223 L 98.33333333333333 132.22222222222223 L 98.33333333333333 133.33333333333334 L 98.33333333333333 137.22222222222223 L 98.88888888888889 145.00000000000003 L 101.11111111111111 154.44444444444446 L 103.33333333333333 160.00000000000003 L 106.11111111111111 161.11111111111111 " stroke="black" fill="none" stroke-width="11.0" stroke-linecap="round" stroke-linejoin="round" />
<path d="M 101.11111111111111 137.7777777777778 L 99.44444444444444 137.22222222222223 L 99.44444444444444 136.11111111111111 L 101.66666666666667 135.55555555555557 L 108.88888888888889 133.8888888888889 L 119.44444444444444 131.66666666666669 L 133.33333333333334 129.44444444444446 L 148.8888888888889 128.33333333333334 L 163.8888888888889 127.77777777777779 L 175.55555555555557 127.22222222222221 L 181.66666666666669 128.33333333333334 L 186.11111111111114 130.00000000000003 L 188.33333333333334 132.22222222222223 L 189.44444444444446 135.00000000000003 L 189.44444444444446 138.33333333333334 L 187.22222222222223 142.7777777777778 L 183.8888888888889 147.7777777777778 L 181.11111111111114 153.33333333333334 L 179.44444444444446 157.22222222222223 L 179.44444444444446 157.7777777777778 " stroke="black" fill="none" stroke-width="11.0" stroke-linecap="round" stroke-linejoin="round" />
<path d="M 117.77777777777779 151.11111111111111 L 117.77777777777779 151.11111111111111 L 116.66666666666667 151.11111111111111 L 116.1111111111111 151.11111111111111 L 120.55555555555556 151.11111111111111 L 130.00000000000003 151.11111111111111 L 143.8888888888889 148.8888888888889 L 156.66666666666669 146.66666666666669 L 162.22222222222223 146.11111111111111 " stroke="black" fill="none" stroke-width="11.0" stroke-linecap="round" stroke-linejoin="round" />
<path d="M 138.8888888888889 137.22222222222223 L 138.33333333333334 137.22222222222223 L 137.22222222222223 138.33333333333334 L 137.22222222222223 141.11111111111111 L 138.33333333333334 147.7777777777778 L 139.44444444444446 155.55555555555557 L 140.55555555555557 162.22222222222223 L 141.11111111111111 165.55555555555557 " stroke="black" fill="none" stroke-width="11.0" stroke-linecap="round" stroke-linejoin="round" />
<path d="M 110.0 173.33333333333334 L 111.11111111111111 172.7777777777778 L 112.77777777777779 172.22222222222223 L 117.77777777777779 171.66666666666669 L 127.22222222222221 170.00000000000003 L 141.66666666666669 168.8888888888889 L 155.55555555555557 167.22222222222223 L 169.44444444444446 166.11111111111114 L 176.66666666666669 165.55555555555557 L 178.33333333333334 165.55555555555557 " stroke="black" fill="none" stroke-width="11.0" stroke-linecap="round" stroke-linejoin="round" />
<path d="M 81.11111111111111 188.33333333333334 L 81.11111111111111 188.33333333333334 L 81.11111111111111 188.33333333333334 L 81.11111111111111 188.33333333333334 L 81.66666666666667 187.7777777777778 L 83.33333333333333 187.7777777777778 L 87.77777777777777 187.7777777777778 L 95.55555555555556 187.7777777777778 L 109.44444444444444 187.22222222222223 L 126.66666666666667 185.55555555555557 L 145.00000000000003 183.8888888888889 L 163.33333333333334 182.7777777777778 L 179.44444444444446 181.66666666666669 L 192.22222222222223 180.55555555555557 L 199.44444444444446 180.00000000000003 L 200.00000000000003 180.00000000000003 " stroke="black" fill="none" stroke-width="11.0" stroke-linecap="round" stroke-linejoin="round" />
<path d="M 87.77777777777777 206.11111111111114 L 87.77777777777777 206.11111111111114 L 88.33333333333333 205.55555555555557 L 88.88888888888889 205.55555555555557 L 90.0 207.22222222222223 L 91.66666666666667 213.33333333333334 L 93.88888888888889 221.11111111111114 L 95.55555555555556 226.66666666666669 L 97.22222222222223 228.8888888888889 " stroke="black" fill="none" stroke-width="11.0" stroke-linecap="round" stroke-linejoin="round" />
<path d="M 92.77777777777777 210.55555555555557 L 91.66666666666667 209.44444444444446 L 91.11111111111111 208.33333333333334 L 93.33333333333333 207.22222222222223 L 97.77777777777777 205.55555555555557 L 105.0 203.8888888888889 L 118.33333333333333 201.66666666666669 L 133.33333333333334 200.00000000000003 L 148.8888888888889 200.00000000000003 L 163.33333333333334 200.00000000000003 L 173.8888888888889 200.00000000000003 L 180.55555555555557 201.11111111111114 L 185.55555555555557 203.33333333333334 L 188.8888888888889 205.55555555555557 L 190.00000000000003 207.7777777777778 L 190.00000000000003 210.00000000000003 L 188.8888888888889 212.22222222222223 L 186.66666666666669 215.55555555555557 L 183.8888888888889 219.44444444444446 L 181.11111111111114 222.7777777777778 L 178.33333333333334 226.11111111111114 L 177.22222222222223 227.7777777777778 " stroke="black" fill="none" stroke-width="11.0" stroke-linecap="round" stroke-linejoin="round" />
<path d="M 110.0 222.22222222222223 L 110.0 222.22222222222223 L 109.44444444444444 221.66666666666669 L 109.44444444444444 221.11111111111114 L 109.44444444444444 220.55555555555557 L 113.8888888888889 220.00000000000003 L 123.33333333333333 218.8888888888889 L 138.8888888888889 217.22222222222223 L 153.8888888888889 215.00000000000003 L 163.8888888888889 213.8888888888889 L 167.22222222222223 214.44444444444446 L 167.22222222222223 214.44444444444446 " stroke="black" fill="none" stroke-width="11.0" stroke-linecap="round" stroke-linejoin="round" />
<path d="M 136.66666666666669 204.44444444444446 L 136.11111111111111 204.44444444444446 L 135.55555555555557 204.44444444444446 L 135.00000000000003 205.00000000000003 L 135.00000000000003 206.11111111111114 L 135.55555555555557 210.55555555555557 L 136.66666666666669 218.33333333333334 L 138.33333333333334 225.00000000000003 L 139.44444444444446 227.7777777777778 " stroke="black" fill="none" stroke-width="11.0" stroke-linecap="round" stroke-linejoin="round" />
<path d="M 98.88888888888889 237.22222222222226 L 98.33333333333333 237.22222222222226 L 98.33333333333333 237.22222222222226 L 103.33333333333333 236.66666666666669 L 115.55555555555556 235.55555555555557 L 130.55555555555557 234.44444444444446 L 146.66666666666669 232.22222222222226 L 161.11111111111111 230.55555555555557 L 172.22222222222223 230.00000000000003 L 176.66666666666669 231.66666666666669 " stroke="black" fill="none" stroke-width="11.0" stroke-linecap="round" stroke-linejoin="round" />
<path d="M 64.44444444444444 253.88888888888889 L 64.44444444444444 253.88888888888889 L 64.44444444444444 253.88888888888889 L 64.44444444444444 253.88888888888889 L 64.44444444444444 253.88888888888889 L 66.66666666666667 253.88888888888889 L 70.0 253.33333333333334 L 76.66666666666667 252.7777777777778 L 86.11111111111111 252.22222222222226 L 97.22222222222223 252.22222222222226 L 109.44444444444444 252.22222222222226 L 124.44444444444444 252.22222222222226 L 141.66666666666669 251.6666666666667 L 158.33333333333334 250.00000000000003 L 174.44444444444446 248.88888888888889 L 189.44444444444446 248.88888888888889 L 200.00000000000003 248.88888888888889 L 207.7777777777778 250.55555555555557 L 214.44444444444446 250.55555555555557 L 217.7777777777778 250.55555555555557 L 218.8888888888889 250.55555555555557 L 218.8888888888889 250.55555555555557 L 218.8888888888889 250.55555555555557 L 218.8888888888889 250.55555555555557 L 219.44444444444446 250.55555555555557 " stroke="black" fill="none" stroke-width="11.0" stroke-linecap="round" stroke-linejoin="round" />
</svg>