<svg xmlns="http://www.w3.org/2000/svg" width="300" height="300" viewBox="0 0 300 300">
<path d="M 113.0 72.0 L 114.0 72.0 L 115.0 71.0 L 115.0 70.0 L 116.0 70.0 L 116.0 72.0 L 117.0 79.0 L 117.0 89.0 L 117.0 99.0 L 117.0 104.0 " stroke="black" fill="none" stroke-width="12.0" stroke-linecap="round" stroke-linejoin="round" />
<path d="M 78.0 87.0 L 78.0 87.0 L 76.0 87.0 L 74.0 87.0 L 74.0 87.0 L 75.0 87.0 L 84.0 89.0 L 97.0 91.0 L 117.0 91.0 L 137.0 87.0 L 147.0 87.0 L 149.0 87.0 " stroke="black" fill="none" stroke-width="12.0" stroke-linecap="round" stroke-linejoin="round" />
<path d="M 175.0 83.0 L 174.0 83.0 L 171.0 83.0 L 170.0 83.0 L 171.0 83.0 L 178.0 83.0 L 187.0 83.0 L 197.0 83.0 L 207.0 82.0 L 211.0 81.0 " stroke="black" fill="none" stroke-width="12.0" stroke-linecap="round" stroke-linejoin="round" />
<path d="M 191.0 68.0 L 191.0 68.0 L 190.0 68.0 L 189.0 68.0 L 189.0 69.0 L 189.0 74.0 L 189.0 84.0 L 189.0 94.0 L 189.0 98.0 " stroke="black" fill="none" stroke-width="12.0" stroke-linecap="round" stroke-linejoin="round" />
<path d="M 79.0 126.0 L 79.0 125.0 L 80.0 124.0 L 81.0 123.0 L 81.0 123.0 L 81.0 122.0 L 81.0 123.0 L 81.0 129.0 L 80.0 138.0 L 78.0 148.0 L 76.0 157.0 L 74.0 162.0 L 73.0 163.0 L 73.0 163.0 L 73.0 162.0 L 75.0 161.0 L 80.0 159.0 L 87.0 158.0 L 94.0 157.0 L 98.0 157.0 L 100.0 158.0 L 100.0 158.0 " stroke="black" fill="none" stroke-width="12.0" stroke-linecap="round" stroke-linejoin="round" />
<path d="M 99.0 193.0 L 97.0 193.0 L 95.0 193.0 L 93.0 192.0 L 90.0 192.0 L 85.0 191.0 L 79.0 190.0 L 73.0 190.0 L 69.0 190.0 L 67.0 191.0 L 66.0 192.0 L 66.0 193.0 L 67.0 194.0 L 67.0 195.0 L 68.0 198.0 L 69.0 203.0 L 70.0 212.0 L 69.0 223.0 L 64.0 237.0 L 58.0 249.0 L 56.0 255.0 L 55.0 256.0 L 57.0 253.0 " stroke="black" fill="none" stroke-width="12.0" stroke-linecap="round" stroke-linejoin="round" />
<path d="M 231.0 124.0 L 230.0 124.0 L 228.0 124.0 L 227.0 124.0 L 226.0 123.0 L 225.0 122.0 L 222.0 121.0 L 216.0 121.0 L 206.0 121.0 L 194.0 121.0 L 183.0 121.0 L 174.0 121.0 L 164.0 120.0 L 155.0 120.0 L 146.0 119.0 L 140.0 119.0 L 134.0 119.0 L 127.0 121.0 L 122.0 122.0 L 118.0 122.0 L 117.0 122.0 L 116.0 122.0 L 116.0 122.0 L 116.0 122.0 L 116.0 122.0 L 116.0 122.0 L 116.0 122.0 L 116.0 122.0 L 116.0 122.0 L 115.0 122.0 L 114.0 122.0 L 114.0 122.0 L 113.0 122.0 L 112.0 122.0 L 111.0 122.0 L 110.0 122.0 L 109.0 122.0 L 109.0 122.0 L 108.0 122.0 L 108.0 123.0 L 108.0 123.0 L 108.0 123.0 L 108.0 124.0 L 109.0 125.0 L 110.0 129.0 L 110.0 135.0 L 110.0 144.0 L 110.0 154.0 L 109.0 165.0 L 108.0 178.0 L 106.0 193.0 L 103.0 207.0 L 100.0 220.0 L 96.0 231.0 L 92.0 239.0 L 89.0 244.0 L 87.0 245.0 L 87.0 243.0 L 88.0 243.0 " stroke="black" fill="none" stroke-width="12.0" stroke-linecap="round" stroke-linejoin="round" />
<path d="M 173.0 150.0 L 172.0 150.0 L 170.0 151.0 L 168.0 151.0 L 166.0 151.0 L 161.0 151.0 L 155.0 151.0 L 147.0 151.0 L 141.0 151.0 L 135.0 151.0 L 131.0 151.0 L 129.0 151.0 L 128.0 151.0 L 128.0 152.0 L 128.0 152.0 L 128.0 152.0 L 129.0 153.0 L 129.0 153.0 L 130.0 154.0 L 131.0 155.0 L 131.0 157.0 L 132.0 159.0 L 132.0 164.0 L 132.0 172.0 L 131.0 183.0 L 129.0 194.0 L 126.0 203.0 L 126.0 210.0 L 126.0 215.0 L 126.0 217.0 L 127.0 219.0 L 127.0 223.0 L 128.0 226.0 L 128.0 228.0 L 129.0 228.0 L 130.0 224.0 " stroke="black" fill="none" stroke-width="12.0" stroke-linecap="round" stroke-linejoin="round" />
<path d="M 136.0 180.0 L 135.0 180.0 L 133.0 181.0 L 133.0 182.0 L 139.0 182.0 L 146.0 181.0 L 154.0 178.0 L 163.0 176.0 L 170.0 175.0 L 174.0 175.0 L 175.0 178.0 L 174.0 184.0 L 172.0 190.0 L 171.0 194.0 L 170.0 196.0 L 169.0 196.0 " stroke="black" fill="none" stroke-width="12.0" stroke-linecap="round" stroke-linejoin="round" />
<path d="M 139.0 198.0 L 136.0 200.0 L 136.0 200.0 L 143.0 199.0 L 152.0 197.0 L 161.0 196.0 L 169.0 195.0 " stroke="black" fill="none" stroke-width="12.0" stroke-linecap="round" stroke-linejoin="round" />
<path d="M 156.0 156.0 L 156.0 156.0 L 157.0 157.0 L 157.0 158.0 L 157.0 161.0 L 157.0 166.0 L 157.0 170.0 " stroke="black" fill="none" stroke-width="12.0" stroke-linecap="round" stroke-linejoin="round" />
<path d="M 153.0 203.0 L 153.0 203.0 L 153.0 203.0 L 152.0 204.0 L 152.0 205.0 L 152.0 208.0 L 152.0 212.0 L 152.0 215.0 " stroke="black" fill="none" stroke-width="12.0" stroke-linecap="round" stroke-linejoin="round" />
<path d="M 136.0 229.0 L 134.0 229.0 L 131.0 230.0 L 130.0 230.0 L 132.0 230.0 L 138.0 230.0 L 145.0 229.0 L 154.0 227.0 L 165.0 225.0 L 168.0 225.0 " stroke="black" fill="none" stroke-width="12.0" stroke-linecap="round" stroke-linejoin="round" />
<path d="M 193.0 114.0 L 193.0 114.0 L 192.0 114.0 L 191.0 114.0 L 191.0 114.0 L 191.0 118.0 L 192.0 128.0 L 194.0 150.0 L 196.0 182.0 L 204.0 212.0 L 215.0 230.0 L 223.0 237.0 L 228.0 239.0 L 232.0 240.0 L 232.0 240.0 " stroke="black" fill="none" stroke-width="12.0" stroke-linecap="round" stroke-linejoin="round" />
<path d="M 226.0 153.0 L 226.0 153.0 L 223.0 153.0 L 222.0 153.0 L 222.0 154.0 L 222.0 160.0 L 221.0 172.0 L 215.0 192.0 L 202.0 213.0 L 188.0 233.0 L 179.0 244.0 L 176.0 245.0 L 177.0 243.0 " stroke="black" fill="none" stroke-width="12.0" stroke-linecap="round" stroke-linejoin="round" />
<path d="M 224.0 108.0 L 224.0 108.0 L 221.0 107.0 L 220.0 106.0 L 220.0 105.0 L 221.0 105.0 L 223.0 106.0 L 226.0 110.0 L 230.0 113.0 " stroke="black" fill="none" stroke-width="12.0" stroke-linecap="round" stroke-linejoin="round" />
</svg>