<svg xmlns="http://www.w3.org/2000/svg" width="300" height="300" viewBox="0 0 300 300">
<path d="M 137.0 99.5 L 137.0 99.0 L 136.5 99.0 L 136.5 98.5 L 136.5 98.5 L 138.5 98.5 L 142.5 99.5 L 149.0 100.0 L 156.5 99.5 L 163.5 99.0 L 168.0 98.5 L 169.5 98.5 L 170.0 99.0 L 170.0 99.5 L 169.5 99.5 L 169.5 99.5 L 169.5 99.5 L 169.5 99.5 L 169.5 99.5 L 169.5 99.5 L 169.5 99.5 L 169.5 99.5 L 169.5 99.5 L 169.5 99.5 L 169.5 99.5 L 169.5 99.5 L 169.5 99.5 L 169.5 99.5 L 169.5 99.5 L 169.0 99.5 L 169.0 99.5 L 169.0 99.5 L 169.0 99.5 L 169.0 100.5 L 168.5 102.5 L 167.0 106.0 L 164.5 112.5 L 161.0 120.5 L 155.5 127.0 L 149.0 132.5 L 144.0 137.0 L 139.5 140.5 L 135.0 143.0 L 132.5 144.5 L 131.5 144.5 L 131.5 144.5 L 132.0 144.5 " stroke="black" fill="none" stroke-width="7.0" stroke-linecap="round" stroke-linejoin="round" />
<path d="M 139.0 110.0 L 139.0 110.0 L 139.0 109.5 L 138.5 109.0 L 138.5 109.0 L 139.0 109.5 L 141.0 112.5 L 144.5 118.0 L 150.0 127.0 L 159.5 136.0 L 169.0 141.5 L 176.0 143.0 L 181.5 143.0 L 183.5 142.5 L 183.5 142.5 " stroke="black" fill="none" stroke-width="7.0" stroke-linecap="round" stroke-linejoin="round" />
<path d="M 150.5 109.0 L 150.5 109.5 L 150.0 109.5 L 150.0 109.5 L 150.5 110.5 L 151.5 111.5 L 152.5 112.5 " stroke="black" fill="none" stroke-width="7.0" stroke-linecap="round" stroke-linejoin="round" />
<path d="M 131.0 120.5 L 131.0 120.0 L 131.0 120.0 L 132.0 121.0 L 134.5 124.5 L 136.5 128.0 L 138.0 130.0 " stroke="black" fill="none" stroke-width="7.0" stroke-linecap="round" stroke-linejoin="round" />
<path d="M 141.5 153.5 L 141.5 153.5 L 140.0 153.5 L 139.5 153.0 L 139.5 153.5 L 141.0 157.0 L 142.5 162.0 L 144.0 165.5 L 145.0 167.0 L 145.5 167.0 L 146.0 166.5 " stroke="black" fill="none" stroke-width="7.0" stroke-linecap="round" stroke-linejoin="round" />
<path d="M 142.0 154.0 L 140.0 154.5 L 139.5 154.5 L 140.0 154.5 L 142.5 154.0 L 146.0 152.5 L 149.5 151.0 L 154.5 150.0 L 159.5 149.5 L 163.5 149.5 L 165.0 150.0 L 165.0 151.0 L 165.0 151.0 L 165.5 151.5 L 166.0 151.5 L 166.5 151.5 L 166.5 152.0 L 166.5 152.5 L 166.5 153.0 L 166.5 154.0 L 166.5 155.5 L 165.5 158.5 L 164.5 163.5 L 164.0 168.5 L 163.5 171.5 L 163.0 172.5 L 163.0 172.5 L 163.0 171.5 " stroke="black" fill="none" stroke-width="7.0" stroke-linecap="round" stroke-linejoin="round" />
<path d="M 147.5 171.5 L 146.0 172.0 L 145.5 172.5 L 146.5 172.5 L 151.0 172.0 L 157.0 171.0 L 163.0 169.5 L 166.0 169.0 " stroke="black" fill="none" stroke-width="7.0" stroke-linecap="round" stroke-linejoin="round" />
<path d="M 152.5 140.5 L 152.5 140.5 L 153.0 140.0 L 153.0 140.5 L 153.0 144.5 L 153.0 153.5 L 153.0 168.0 L 152.5 180.5 L 152.5 185.5 L 153.0 186.0 L 153.5 184.5 L 153.5 184.0 " stroke="black" fill="none" stroke-width="7.0" stroke-linecap="round" stroke-linejoin="round" />
<path d="M 136.0 190.5 L 136.0 190.5 L 136.0 189.5 L 136.0 189.5 L 137.0 189.0 L 141.5 188.5 L 149.5 187.0 L 162.5 183.0 L 172.0 179.0 L 174.5 178.5 " stroke="black" fill="none" stroke-width="7.0" stroke-linecap="round" stroke-linejoin="round" />
<path d="M 175.5 170.5 L 175.5 170.5 L 175.5 170.5 L 175.5 171.0 L 176.5 174.0 L 179.0 181.5 L 182.5 189.0 L 184.5 192.5 L 185.0 193.0 " stroke="black" fill="none" stroke-width="7.0" stroke-linecap="round" stroke-linejoin="round" />
</svg>