<svg xmlns="http://www.w3.org/2000/svg" width="300" height="300" viewBox="0 0 300 300">
<path d="M 71.66666666666667 81.11111111111111 L 70.55555555555556 81.66666666666667 L 70.55555555555556 83.33333333333333 L 70.55555555555556 89.44444444444444 L 72.77777777777777 101.66666666666667 L 73.88888888888889 112.77777777777779 L 73.88888888888889 115.55555555555556 L 74.44444444444444 113.33333333333333 L 74.44444444444444 112.22222222222221 " stroke="black" fill="none" stroke-width="13.0" stroke-linecap="round" stroke-linejoin="round" />
<path d="M 72.77777777777777 85.0 L 71.66666666666667 85.0 L 70.0 85.55555555555556 L 70.55555555555556 85.0 L 76.11111111111111 81.66666666666667 L 87.22222222222223 76.66666666666667 L 101.11111111111111 73.33333333333333 L 112.77777777777779 73.33333333333333 L 120.00000000000001 76.66666666666667 L 120.55555555555556 82.22222222222223 L 118.33333333333333 89.44444444444444 L 115.55555555555556 98.88888888888889 L 113.8888888888889 107.22222222222223 L 113.8888888888889 111.11111111111111 L 113.33333333333333 112.77777777777779 L 111.66666666666667 113.8888888888889 " stroke="black" fill="none" stroke-width="13.0" stroke-linecap="round" stroke-linejoin="round" />
<path d="M 88.33333333333333 122.77777777777779 L 88.33333333333333 122.22222222222221 L 87.77777777777777 121.66666666666667 L 88.88888888888889 120.55555555555556 L 94.44444444444444 120.00000000000001 L 103.88888888888889 118.8888888888889 L 116.1111111111111 117.77777777777779 L 125.55555555555556 116.66666666666667 L 127.22222222222221 116.66666666666667 " stroke="black" fill="none" stroke-width="13.0" stroke-linecap="round" stroke-linejoin="round" />
<path d="M 64.44444444444444 158.33333333333334 L 64.44444444444444 158.33333333333334 L 65.0 158.33333333333334 L 67.77777777777777 158.33333333333334 L 77.77777777777777 155.55555555555557 L 96.11111111111111 150.55555555555557 L 113.33333333333333 147.22222222222223 L 124.44444444444444 146.11111111111111 L 127.77777777777779 146.11111111111111 " stroke="black" fill="none" stroke-width="13.0" stroke-linecap="round" stroke-linejoin="round" />
<path d="M 92.77777777777777 156.11111111111111 L 93.33333333333333 155.55555555555557 L 93.33333333333333 154.44444444444446 L 93.33333333333333 153.8888888888889 L 92.77777777777777 155.55555555555557 L 91.11111111111111 161.66666666666669 L 87.77777777777777 171.11111111111114 L 85.0 181.66666666666669 L 83.88888888888889 186.66666666666669 L 83.88888888888889 186.66666666666669 L 86.66666666666667 182.7777777777778 L 92.22222222222223 178.8888888888889 L 99.44444444444444 175.55555555555557 L 107.77777777777779 174.44444444444446 L 114.44444444444444 175.00000000000003 L 117.22222222222221 178.33333333333334 L 118.33333333333333 183.8888888888889 L 118.8888888888889 191.66666666666669 L 118.8888888888889 199.44444444444446 L 117.77777777777779 208.33333333333334 L 113.8888888888889 218.33333333333334 L 109.44444444444444 227.22222222222223 L 103.88888888888889 232.7777777777778 L 98.33333333333333 233.8888888888889 L 94.44444444444444 231.11111111111114 L 91.66666666666667 226.66666666666669 " stroke="black" fill="none" stroke-width="13.0" stroke-linecap="round" stroke-linejoin="round" />
<path d="M 188.8888888888889 72.77777777777777 L 188.33333333333334 71.11111111111111 L 188.33333333333334 70.55555555555556 L 188.33333333333334 71.66666666666667 L 189.44444444444446 77.22222222222223 L 190.00000000000003 87.77777777777777 L 190.00000000000003 98.88888888888889 L 189.44444444444446 102.77777777777777 L 189.44444444444446 102.22222222222223 L 189.44444444444446 101.66666666666667 " stroke="black" fill="none" stroke-width="13.0" stroke-linecap="round" stroke-linejoin="round" />
<path d="M 193.33333333333334 88.33333333333333 L 192.22222222222223 88.33333333333333 L 191.11111111111114 88.33333333333333 L 194.44444444444446 87.77777777777777 L 204.44444444444446 85.55555555555556 L 218.8888888888889 83.33333333333333 L 230.00000000000003 82.77777777777777 L 236.11111111111114 83.33333333333333 L 236.66666666666669 83.88888888888889 " stroke="black" fill="none" stroke-width="13.0" stroke-linecap="round" stroke-linejoin="round" />
<path d="M 240.00000000000003 121.66666666666667 L 240.00000000000003 122.22222222222221 L 240.00000000000003 122.77777777777779 L 240.00000000000003 123.33333333333333 L 240.00000000000003 123.33333333333333 L 240.00000000000003 122.77777777777779 L 240.00000000000003 122.22222222222221 L 240.55555555555557 121.1111111111111 L 240.55555555555557 119.44444444444444 L 240.55555555555557 116.66666666666667 L 240.00000000000003 113.8888888888889 L 238.33333333333334 111.66666666666667 L 234.44444444444446 110.55555555555556 L 227.22222222222223 110.55555555555556 L 219.44444444444446 112.22222222222221 L 211.66666666666669 112.77777777777779 L 203.8888888888889 113.33333333333333 L 196.66666666666669 114.44444444444444 L 190.00000000000003 116.1111111111111 L 183.8888888888889 116.66666666666667 L 178.8888888888889 117.22222222222221 L 175.00000000000003 117.77777777777779 L 171.11111111111114 118.33333333333333 L 168.33333333333334 119.44444444444444 L 166.66666666666669 120.00000000000001 L 166.66666666666669 120.00000000000001 L 166.66666666666669 120.00000000000001 L 166.66666666666669 120.00000000000001 L 166.66666666666669 120.00000000000001 L 166.11111111111114 121.1111111111111 L 165.00000000000003 122.77777777777779 L 163.8888888888889 125.00000000000001 L 163.33333333333334 128.33333333333334 L 163.33333333333334 132.7777777777778 L 163.33333333333334 139.44444444444446 L 163.33333333333334 148.33333333333334 L 162.7777777777778 161.66666666666669 L 161.11111111111111 176.66666666666669 L 158.8888888888889 191.66666666666669 L 155.55555555555557 208.33333333333334 L 151.11111111111111 224.44444444444446 L 146.11111111111111 240.00000000000003 L 140.55555555555557 252.22222222222226 L 136.66666666666669 259.44444444444446 L 135.00000000000003 262.77777777777777 L 135.00000000000003 262.77777777777777 " stroke="black" fill="none" stroke-width="13.0" stroke-linecap="round" stroke-linejoin="round" />
<path d="M 211.11111111111114 138.8888888888889 L 211.11111111111114 138.8888888888889 L 211.66666666666669 137.7777777777778 L 211.66666666666669 137.22222222222223 L 211.66666666666669 137.22222222222223 L 208.33333333333334 138.33333333333334 L 202.22222222222223 141.11111111111111 L 194.44444444444446 144.44444444444446 L 188.33333333333334 145.55555555555557 L 184.44444444444446 144.44444444444446 L 184.44444444444446 143.33333333333334 " stroke="black" fill="none" stroke-width="13.0" stroke-linecap="round" stroke-linejoin="round" />
<path d="M 190.00000000000003 131.66666666666669 L 189.44444444444446 132.22222222222223 L 188.8888888888889 132.7777777777778 L 188.8888888888889 133.8888888888889 L 189.44444444444446 137.7777777777778 L 190.00000000000003 145.55555555555557 L 190.00000000000003 157.22222222222223 L 192.22222222222223 165.55555555555557 L 197.7777777777778 168.8888888888889 L 207.7777777777778 167.7777777777778 L 218.33333333333334 163.8888888888889 L 224.44444444444446 162.22222222222223 L 225.55555555555557 163.33333333333334 " stroke="black" fill="none" stroke-width="13.0" stroke-linecap="round" stroke-linejoin="round" />
<path d="M 188.33333333333334 186.66666666666669 L 187.7777777777778 185.00000000000003 L 187.7777777777778 185.00000000000003 L 187.7777777777778 187.22222222222223 L 187.7777777777778 195.55555555555557 L 186.66666666666669 207.7777777777778 L 182.7777777777778 221.66666666666669 L 176.66666666666669 232.22222222222226 L 173.33333333333334 235.55555555555557 L 172.7777777777778 233.8888888888889 L 172.7777777777778 232.7777777777778 " stroke="black" fill="none" stroke-width="13.0" stroke-linecap="round" stroke-linejoin="round" />
<path d="M 215.55555555555557 185.00000000000003 L 215.00000000000003 185.00000000000003 L 213.8888888888889 186.66666666666669 L 212.22222222222223 193.8888888888889 L 210.55555555555557 208.33333333333334 L 211.11111111111114 222.22222222222223 L 215.00000000000003 230.55555555555557 L 220.55555555555557 233.8888888888889 L 227.7777777777778 234.44444444444446 L 238.33333333333334 232.7777777777778 L 245.55555555555557 229.44444444444446 L 247.22222222222226 223.8888888888889 L 247.22222222222226 222.22222222222223 " stroke="black" fill="none" stroke-width="13.0" stroke-linecap="round" stroke-linejoin="round" />
</svg>