<svg xmlns="http://www.w3.org/2000/svg" width="300" height="300" viewBox="0 0 300 300">
<path d="M 109.0 95.0 L 108.5 95.0 L 108.0 94.0 L 108.0 94.0 L 109.5 94.0 L 115.0 94.0 L 121.5 94.5 L 127.0 95.0 L 129.5 95.0 L 130.5 94.5 L 130.5 94.0 " stroke="black" fill="none" stroke-width="8.0" stroke-linecap="round" stroke-linejoin="round" />
<path d="M 121.0 84.0 L 120.5 84.0 L 120.0 83.5 L 119.5 83.5 L 119.5 86.5 L 120.0 94.5 L 121.0 103.5 L 122.0 108.5 L 123.0 109.0 " stroke="black" fill="none" stroke-width="8.0" stroke-linecap="round" stroke-linejoin="round" />
<path d="M 156.0 93.0 L 156.0 93.0 L 156.0 93.5 L 156.0 94.0 L 157.0 94.5 L 161.5 94.5 L 169.0 94.5 L 176.0 94.0 L 181.0 92.5 L 182.0 92.5 L 182.0 92.5 " stroke="black" fill="none" stroke-width="8.0" stroke-linecap="round" stroke-linejoin="round" />
<path d="M 171.0 85.5 L 170.0 85.0 L 169.5 85.0 L 169.0 85.5 L 169.0 90.5 L 169.0 100.0 L 169.5 106.0 L 170.0 107.0 " stroke="black" fill="none" stroke-width="8.0" stroke-linecap="round" stroke-linejoin="round" />
<path d="M 106.0 121.0 L 106.0 120.5 L 106.0 120.5 L 106.0 120.0 L 109.0 120.0 L 115.0 119.5 L 121.5 118.5 L 125.5 118.0 L 127.5 118.0 L 128.5 120.0 L 128.5 121.5 L 129.0 122.0 L 129.0 122.5 L 129.0 123.0 L 128.5 124.5 L 128.0 126.5 L 127.5 128.5 L 127.0 131.5 L 126.5 135.0 L 126.0 139.0 L 126.0 140.5 " stroke="black" fill="none" stroke-width="8.0" stroke-linecap="round" stroke-linejoin="round" />
<path d="M 112.0 133.0 L 112.0 133.0 L 111.0 133.0 L 110.5 133.0 L 111.0 133.0 L 114.5 132.0 L 119.5 131.0 L 124.0 130.5 L 127.0 130.0 L 127.5 130.0 " stroke="black" fill="none" stroke-width="8.0" stroke-linecap="round" stroke-linejoin="round" />
<path d="M 110.0 143.0 L 109.5 143.0 L 109.0 143.0 L 110.5 143.5 L 115.0 143.5 L 120.0 143.0 L 124.5 142.0 L 126.5 141.5 " stroke="black" fill="none" stroke-width="8.0" stroke-linecap="round" stroke-linejoin="round" />
<path d="M 103.0 123.0 L 102.5 122.5 L 101.5 121.5 L 101.5 121.5 L 101.5 122.5 L 102.0 126.0 L 103.0 133.0 L 104.0 143.0 L 104.5 156.0 L 103.5 169.5 L 103.0 181.0 L 102.0 191.5 L 101.0 199.5 L 100.0 205.0 L 100.0 209.0 L 101.0 212.0 L 102.0 213.5 L 103.0 213.0 L 103.5 211.0 " stroke="black" fill="none" stroke-width="8.0" stroke-linecap="round" stroke-linejoin="round" />
<path d="M 148.5 119.0 L 148.5 119.0 L 148.0 119.0 L 148.0 119.5 L 148.0 122.0 L 148.5 127.0 L 149.0 133.0 L 149.0 136.5 L 149.5 137.5 L 149.5 137.0 " stroke="black" fill="none" stroke-width="8.0" stroke-linecap="round" stroke-linejoin="round" />
<path d="M 152.0 120.5 L 151.5 120.0 L 150.5 119.5 L 150.0 119.0 L 150.5 119.0 L 152.5 118.0 L 155.5 117.5 L 159.5 117.0 L 165.0 117.0 L 172.0 117.0 L 179.5 117.0 L 184.0 117.0 L 187.0 117.0 L 187.0 117.0 L 187.0 117.0 L 186.5 117.0 L 186.5 117.0 L 186.5 117.5 L 186.5 118.5 L 186.0 119.5 L 186.0 120.5 L 185.5 122.0 L 185.5 124.5 L 184.5 129.0 L 183.5 134.0 L 182.5 140.5 L 182.5 147.0 L 182.5 153.5 L 182.5 160.5 L 183.0 166.5 L 184.0 171.5 L 184.5 175.5 L 185.0 179.0 L 185.0 183.0 L 185.5 187.0 L 185.5 190.0 L 185.5 192.5 L 186.0 195.5 L 186.0 199.0 L 186.5 202.0 L 186.5 204.0 L 186.5 204.5 L 186.5 204.5 L 186.0 205.0 L 186.0 206.0 L 185.5 207.0 L 185.0 207.5 L 185.0 208.0 L 185.0 208.0 L 185.0 209.0 L 184.5 210.0 L 184.5 211.0 L 184.5 211.5 L 184.0 211.5 L 184.0 211.5 L 184.0 211.5 L 184.0 211.5 L 183.5 211.5 L 183.0 211.5 L 182.0 211.5 L 180.0 211.0 L 177.5 209.0 L 176.5 208.0 " stroke="black" fill="none" stroke-width="8.0" stroke-linecap="round" stroke-linejoin="round" />
<path d="M 155.5 131.5 L 155.5 131.5 L 156.0 131.5 L 156.5 131.5 L 157.5 131.0 L 159.5 130.5 L 162.5 130.0 L 166.0 130.0 L 169.5 130.0 L 172.5 130.0 L 173.0 130.0 " stroke="black" fill="none" stroke-width="8.0" stroke-linecap="round" stroke-linejoin="round" />
<path d="M 151.0 141.5 L 150.5 141.5 L 150.0 141.5 L 150.0 142.0 L 150.5 142.0 L 153.5 142.0 L 158.5 142.0 L 165.5 141.0 L 173.0 140.5 L 178.5 140.0 L 179.0 140.5 " stroke="black" fill="none" stroke-width="8.0" stroke-linecap="round" stroke-linejoin="round" />
<path d="M 125.0 159.0 L 124.5 159.0 L 124.0 159.0 L 123.5 158.5 L 124.5 158.0 L 129.0 157.0 L 137.5 156.0 L 147.0 155.5 L 154.0 156.5 L 158.0 157.5 L 158.5 158.0 " stroke="black" fill="none" stroke-width="8.0" stroke-linecap="round" stroke-linejoin="round" />
<path d="M 120.5 173.0 L 119.5 173.0 L 119.5 173.0 L 119.0 173.0 L 119.5 174.5 L 120.5 178.0 L 121.5 181.5 L 122.5 184.0 L 122.5 184.5 " stroke="black" fill="none" stroke-width="6.0" stroke-linecap="round" stroke-linejoin="round" />
<path d="M 125.0 171.0 L 125.0 171.0 L 125.0 171.0 L 124.5 171.0 L 124.5 171.0 L 124.0 171.0 L 124.0 171.0 L 124.0 171.0 L 123.5 171.0 L 123.5 171.0 L 123.5 171.0 L 123.5 171.0 L 123.5 171.0 L 123.5 170.5 L 123.5 170.5 L 124.0 170.0 L 124.5 170.0 L 125.5 170.0 L 126.0 170.0 L 127.5 170.0 L 129.0 170.0 L 131.5 170.0 L 133.5 170.0 L 135.5 170.0 L 138.0 170.0 L 140.5 170.0 L 142.5 170.0 L 145.0 170.0 L 147.0 170.0 L 148.5 170.0 L 150.0 170.5 L 151.5 170.5 L 152.0 170.5 L 153.0 171.0 L 154.0 171.0 L 155.5 171.0 L 157.0 170.5 L 159.0 170.5 L 160.0 170.5 L 161.5 170.5 L 163.0 170.5 L 164.5 170.0 L 166.5 170.0 L 167.5 170.0 L 168.5 170.0 L 168.5 170.0 L 168.5 170.0 L 168.5 170.0 L 168.5 170.0 L 168.5 170.0 L 168.5 170.0 L 168.5 170.0 L 168.5 170.0 L 168.5 170.0 L 168.5 170.0 L 168.5 170.0 L 168.5 170.0 L 168.5 170.0 L 168.5 170.0 L 169.0 170.0 L 169.0 170.0 L 169.0 170.0 L 169.0 170.5 L 169.0 172.0 L 168.5 174.5 L 168.5 177.5 L 167.5 180.5 L 167.5 182.5 L 167.0 183.5 L 167.0 185.0 L 167.0 185.0 " stroke="black" fill="none" stroke-width="6.0" stroke-linecap="round" stroke-linejoin="round" />
<path d="M 141.0 146.0 L 141.0 145.5 L 140.5 145.5 L 140.5 145.0 L 140.5 145.0 L 140.5 145.0 L 140.5 145.0 L 140.5 146.0 L 140.5 147.0 L 140.5 148.5 L 140.5 150.0 L 141.0 152.0 L 141.0 154.0 L 141.0 155.5 L 141.0 157.0 L 141.0 158.5 L 141.0 160.0 L 141.5 162.0 L 141.5 164.0 L 141.5 165.5 L 141.5 167.5 L 141.5 169.5 L 141.5 171.5 L 141.5 173.5 L 141.5 175.5 L 141.5 177.0 L 142.0 178.5 L 142.0 180.0 L 142.0 182.0 L 142.0 184.0 L 142.0 185.5 L 142.5 187.0 L 142.5 188.5 L 142.5 190.5 L 142.5 192.0 L 142.5 194.0 L 142.5 195.5 L 142.5 196.5 L 142.5 197.5 L 142.5 198.5 L 142.5 199.5 L 142.5 200.5 L 142.5 201.5 L 142.5 202.0 L 142.5 203.0 L 142.5 203.5 L 142.5 204.5 L 142.5 205.5 L 142.5 206.0 L 142.5 207.0 L 142.5 207.5 L 142.5 208.0 L 142.5 209.0 L 142.5 209.5 L 142.5 210.0 L 142.5 210.5 L 142.5 211.0 L 142.5 211.5 L 143.0 211.5 L 143.0 211.5 L 143.0 212.0 L 143.0 212.5 L 143.0 212.5 L 143.0 213.0 L 143.0 213.0 L 143.0 213.0 L 143.0 213.0 L 143.0 213.5 L 143.0 213.5 L 143.0 213.5 " stroke="black" fill="none" stroke-width="6.0" stroke-linecap="round" stroke-linejoin="round" />
<path d="M 130.0 178.0 L 130.0 178.0 L 129.5 178.0 L 129.0 178.5 L 129.0 178.5 L 129.0 178.5 L 129.0 178.5 L 129.5 179.5 L 130.5 180.5 L 131.5 181.0 L 132.0 181.5 " stroke="black" fill="none" stroke-width="6.0" stroke-linecap="round" stroke-linejoin="round" />
<path d="M 151.5 177.0 L 151.5 177.0 L 151.5 177.5 L 152.0 177.5 L 152.0 178.0 L 152.0 178.5 L 152.0 179.5 L 152.0 181.0 L 151.5 183.0 L 151.0 184.0 " stroke="black" fill="none" stroke-width="6.0" stroke-linecap="round" stroke-linejoin="round" />
<path d="M 125.0 191.5 L 125.0 191.5 L 124.5 191.5 L 124.0 191.5 L 124.0 191.5 L 124.0 191.5 L 123.5 191.5 L 123.5 191.5 L 123.5 191.5 L 124.0 191.0 L 125.0 191.0 L 125.5 190.5 L 127.0 190.5 L 129.0 190.5 L 131.5 190.5 L 134.0 190.5 L 137.0 190.5 L 139.5 190.5 L 141.5 190.5 L 143.0 190.5 L 144.0 190.5 L 145.0 190.5 L 146.0 190.5 L 147.0 190.5 L 148.0 190.5 L 149.0 190.5 L 150.5 190.5 L 151.5 190.5 L 152.5 190.0 L 153.5 190.0 L 154.5 190.0 L 155.5 190.0 L 156.5 190.0 L 157.0 190.0 L 158.0 190.0 L 159.0 189.5 L 160.0 189.5 L 161.0 189.5 L 162.0 189.5 L 163.0 189.0 L 163.5 189.0 L 164.0 189.0 L 164.0 189.0 L 164.5 189.0 L 164.5 189.0 L 164.5 189.0 L 164.5 189.0 L 164.5 189.0 L 165.0 189.0 L 165.0 189.0 L 165.0 189.0 L 165.0 189.0 L 165.0 189.0 L 165.5 189.0 L 165.5 189.0 L 165.5 189.0 L 165.5 189.0 L 165.5 189.0 L 165.5 189.5 " stroke="black" fill="none" stroke-width="6.0" stroke-linecap="round" stroke-linejoin="round" />
<path d="M 136.5 195.5 L 137.0 195.5 L 137.5 195.5 L 138.0 195.5 L 138.0 195.5 L 138.0 195.5 L 138.0 195.5 L 136.0 197.5 L 132.5 201.5 L 128.0 206.0 L 124.0 210.0 L 121.0 211.5 L 120.5 212.5 L 120.5 212.5 " stroke="black" fill="none" stroke-width="6.0" stroke-linecap="round" stroke-linejoin="round" />
<path d="M 149.5 199.0 L 149.0 199.0 L 148.5 199.5 L 148.5 199.5 L 149.0 200.5 L 152.0 201.5 L 155.5 203.5 L 159.0 205.0 L 161.0 206.0 L 161.5 206.0 " stroke="black" fill="none" stroke-width="6.0" stroke-linecap="round" stroke-linejoin="round" />
</svg>