<svg xmlns="http://www.w3.org/2000/svg" width="300" height="300" viewBox="0 0 300 300">
<path d="M 132.0 105.0 L 132.0 105.0 L 132.5 105.5 L 132.5 106.0 L 133.0 106.5 L 133.0 109.0 L 132.5 114.5 L 130.5 122.0 L 127.5 129.0 L 125.5 131.5 L 124.0 131.0 L 124.0 130.5 " stroke="black" fill="none" stroke-width="6.0" stroke-linecap="round" stroke-linejoin="round" />
<path d="M 119.5 116.5 L 119.0 116.0 L 119.0 115.5 L 119.0 115.5 L 121.5 115.5 L 125.5 115.5 L 128.0 115.5 " stroke="black" fill="none" stroke-width="6.0" stroke-linecap="round" stroke-linejoin="round" />
<path d="M 145.0 110.0 L 145.0 110.5 L 145.0 111.0 L 145.0 111.5 L 145.0 112.0 L 145.0 113.0 L 144.5 114.5 L 144.5 116.0 " stroke="black" fill="none" stroke-width="6.0" stroke-linecap="round" stroke-linejoin="round" />
<path d="M 134.5 126.5 L 134.0 126.5 L 134.0 127.0 L 134.0 127.5 L 136.5 129.0 L 140.5 131.0 L 145.0 132.5 L 146.5 132.5 " stroke="black" fill="none" stroke-width="6.0" stroke-linecap="round" stroke-linejoin="round" />
<path d="M 167.5 105.0 L 167.5 105.0 L 168.0 105.0 L 168.5 105.0 L 169.0 104.5 L 169.0 104.5 L 169.0 105.5 L 167.5 110.5 L 164.5 118.5 L 161.0 125.5 L 158.5 128.0 L 157.5 128.0 " stroke="black" fill="none" stroke-width="6.0" stroke-linecap="round" stroke-linejoin="round" />
<path d="M 154.0 112.0 L 154.0 112.5 L 154.0 113.0 L 155.5 113.5 L 158.5 114.0 L 162.5 114.0 L 165.0 114.0 " stroke="black" fill="none" stroke-width="6.0" stroke-linecap="round" stroke-linejoin="round" />
<path d="M 177.0 106.5 L 178.0 107.5 L 178.5 108.0 L 178.5 108.0 L 178.5 108.0 L 178.5 109.5 L 177.0 112.0 L 175.5 115.5 L 174.5 118.0 " stroke="black" fill="none" stroke-width="6.0" stroke-linecap="round" stroke-linejoin="round" />
<path d="M 168.5 123.5 L 167.5 123.5 L 167.0 123.5 L 166.5 124.0 L 169.0 125.5 L 173.5 127.5 L 177.5 129.0 L 180.5 131.0 L 182.5 131.5 " stroke="black" fill="none" stroke-width="6.0" stroke-linecap="round" stroke-linejoin="round" />
<path d="M 133.0 143.5 L 133.0 143.0 L 133.5 142.0 L 133.5 141.0 L 133.5 141.0 L 133.5 141.0 L 133.5 142.5 L 132.5 146.0 L 131.5 150.0 L 130.0 153.0 L 129.5 155.5 " stroke="black" fill="none" stroke-width="6.0" stroke-linecap="round" stroke-linejoin="round" />
<path d="M 132.5 145.0 L 132.5 145.0 L 132.5 145.0 L 132.5 144.5 L 132.5 144.5 L 133.0 144.0 L 135.5 143.5 L 141.0 143.0 L 149.5 142.0 L 161.0 140.0 L 171.5 138.0 L 180.0 137.5 L 184.0 137.5 L 185.0 138.5 L 185.0 139.0 L 184.5 139.5 L 184.0 141.0 L 183.5 143.5 L 183.0 147.0 L 182.0 150.0 L 181.5 152.0 L 181.5 153.0 L 181.0 153.0 " stroke="black" fill="none" stroke-width="6.0" stroke-linecap="round" stroke-linejoin="round" />
<path d="M 145.5 156.5 L 145.5 156.5 L 145.0 156.0 L 145.0 156.0 L 144.5 156.0 L 145.0 158.5 L 146.0 164.0 L 147.0 169.0 L 147.5 171.0 L 148.0 171.5 " stroke="black" fill="none" stroke-width="6.0" stroke-linecap="round" stroke-linejoin="round" />
<path d="M 147.5 158.5 L 147.5 158.5 L 147.0 158.0 L 147.0 157.5 L 148.5 157.0 L 152.0 156.5 L 156.5 155.5 L 160.5 154.0 L 164.0 154.0 L 166.0 154.0 L 167.0 155.5 L 167.0 157.5 L 167.0 160.5 L 165.5 165.0 L 164.0 168.5 L 162.5 171.0 L 162.0 171.5 " stroke="black" fill="none" stroke-width="6.0" stroke-linecap="round" stroke-linejoin="round" />
<path d="M 151.5 173.0 L 151.0 173.0 L 149.5 173.5 L 149.5 173.5 L 150.5 173.5 L 153.5 172.0 L 157.0 171.0 L 160.5 169.0 " stroke="black" fill="none" stroke-width="6.0" stroke-linecap="round" stroke-linejoin="round" />
<path d="M 157.0 146.5 L 157.5 147.5 L 157.5 148.5 L 157.5 150.0 L 157.5 155.0 L 157.5 163.0 L 157.5 171.5 L 157.0 178.0 L 157.0 181.0 L 157.0 182.0 L 156.5 182.0 " stroke="black" fill="none" stroke-width="6.0" stroke-linecap="round" stroke-linejoin="round" />
<path d="M 143.0 188.0 L 142.0 187.5 L 141.0 187.0 L 141.0 187.0 L 142.5 186.0 L 147.5 184.5 L 155.5 183.5 L 166.5 182.0 L 175.5 180.5 L 179.0 179.5 L 179.0 179.0 " stroke="black" fill="none" stroke-width="6.0" stroke-linecap="round" stroke-linejoin="round" />
<path d="M 175.0 170.0 L 175.0 170.0 L 175.5 170.0 L 175.5 170.0 L 176.0 170.5 L 177.0 172.0 L 179.0 176.0 L 181.5 181.0 L 184.0 185.0 L 185.5 186.5 " stroke="black" fill="none" stroke-width="6.0" stroke-linecap="round" stroke-linejoin="round" />
</svg>