<svg xmlns="http://www.w3.org/2000/svg" width="300" height="300" viewBox="0 0 300 300">
<path d="M 133.5 104.0 L 133.5 104.0 L 133.5 103.5 L 133.5 103.0 L 133.5 103.0 L 134.5 105.5 L 136.0 109.5 L 137.5 115.0 L 138.5 118.5 L 138.5 119.5 L 138.0 119.5 " stroke="black" fill="none" stroke-width="6.0" stroke-linecap="round" stroke-linejoin="round" />
<path d="M 132.5 105.0 L 132.5 105.0 L 132.0 105.0 L 132.0 104.5 L 133.0 104.5 L 137.0 104.5 L 145.0 104.0 L 155.0 103.0 L 164.5 103.0 L 171.5 102.5 L 174.5 103.0 L 175.5 103.5 L 176.0 104.0 L 176.0 104.0 L 176.0 104.0 L 176.0 104.0 L 176.0 104.0 L 176.0 104.0 L 176.0 104.5 L 176.0 105.0 L 176.5 106.5 L 176.5 108.5 L 176.5 112.0 L 176.5 116.5 L 176.5 120.5 L 176.0 122.5 L 175.5 122.5 " stroke="black" fill="none" stroke-width="6.0" stroke-linecap="round" stroke-linejoin="round" />
<path d="M 149.5 107.0 L 149.0 107.0 L 148.5 107.0 L 148.5 107.0 L 149.0 108.0 L 150.5 110.5 L 152.0 113.5 L 153.5 115.0 L 154.0 115.0 " stroke="black" fill="none" stroke-width="6.0" stroke-linecap="round" stroke-linejoin="round" />
<path d="M 162.0 105.0 L 162.0 105.0 L 162.0 105.5 L 161.5 105.5 L 161.5 106.0 L 162.0 108.0 L 162.5 111.5 L 162.5 115.5 L 162.5 117.5 " stroke="black" fill="none" stroke-width="6.0" stroke-linecap="round" stroke-linejoin="round" />
<path d="M 142.5 126.0 L 141.5 126.0 L 141.0 126.0 L 141.0 125.5 L 143.5 125.5 L 148.5 125.0 L 156.0 125.0 L 166.0 125.0 L 175.5 124.5 L 178.5 124.0 " stroke="black" fill="none" stroke-width="6.0" stroke-linecap="round" stroke-linejoin="round" />
<path d="M 138.5 136.0 L 139.5 136.0 L 140.0 135.5 L 140.5 135.5 L 140.5 136.0 L 140.0 138.0 L 138.5 142.5 L 136.5 147.5 L 134.5 150.5 L 133.5 151.0 " stroke="black" fill="none" stroke-width="6.0" stroke-linecap="round" stroke-linejoin="round" />
<path d="M 138.0 143.0 L 138.5 143.0 L 139.5 142.5 L 141.0 142.5 L 145.0 142.0 L 150.5 141.0 L 157.0 140.5 L 164.5 140.0 L 171.0 139.5 L 176.0 139.0 L 177.5 139.0 L 177.5 139.0 L 177.0 139.0 L 177.0 139.0 L 177.0 139.0 L 177.0 139.0 L 177.5 139.0 L 177.5 139.0 L 177.5 139.5 L 178.0 139.5 L 178.0 139.5 L 178.0 139.5 L 178.5 139.5 L 178.5 139.5 L 178.5 139.5 L 178.5 139.5 L 178.5 139.5 L 178.5 139.5 L 178.5 139.5 L 179.0 139.5 L 179.0 139.5 L 179.0 139.5 L 179.0 139.5 L 179.0 139.5 L 179.0 139.5 L 179.0 139.5 L 179.0 139.5 L 179.0 140.0 L 179.0 140.0 L 179.0 140.5 L 179.0 141.5 L 179.5 143.0 L 179.5 145.5 L 179.5 148.5 L 180.0 152.0 L 180.5 155.0 L 180.5 158.5 L 180.5 161.5 L 180.5 165.0 L 180.5 168.5 L 180.5 171.5 L 180.5 174.0 L 180.5 176.5 L 180.5 178.5 L 180.0 180.5 L 180.0 182.5 L 179.5 184.5 L 179.0 186.5 L 178.5 188.5 L 177.5 189.5 L 176.0 190.5 L 174.0 191.0 L 172.0 191.0 L 169.5 191.0 L 167.5 190.0 L 165.5 189.0 " stroke="black" fill="none" stroke-width="6.0" stroke-linecap="round" stroke-linejoin="round" />
<path d="M 145.0 160.0 L 144.0 160.0 L 143.5 160.5 L 143.0 161.0 L 143.0 163.0 L 144.0 166.0 L 145.5 169.5 L 146.0 171.0 L 146.5 171.0 " stroke="black" fill="none" stroke-width="6.0" stroke-linecap="round" stroke-linejoin="round" />
<path d="M 146.5 156.5 L 145.0 157.0 L 144.5 157.0 L 144.5 157.5 L 145.0 157.5 L 146.5 157.5 L 148.5 157.5 L 150.5 157.5 L 154.0 157.0 L 158.5 156.0 L 163.0 155.5 L 166.0 155.5 L 166.5 155.5 L 166.5 155.5 L 165.5 155.5 L 165.5 155.5 L 165.0 156.5 L 164.5 158.0 L 164.5 159.5 L 164.5 162.0 L 164.5 165.0 L 164.5 167.5 L 164.5 169.5 L 164.5 170.5 L 164.5 170.5 " stroke="black" fill="none" stroke-width="6.0" stroke-linecap="round" stroke-linejoin="round" />
<path d="M 148.0 172.5 L 147.0 172.5 L 145.5 172.5 L 145.5 172.0 L 147.5 171.0 L 151.5 170.0 L 155.5 169.5 L 159.0 169.0 L 161.0 168.5 " stroke="black" fill="none" stroke-width="6.0" stroke-linecap="round" stroke-linejoin="round" />
<path d="M 155.0 152.0 L 155.0 152.0 L 156.0 151.5 L 156.0 150.5 L 156.5 150.0 L 156.5 149.5 L 156.5 149.5 L 156.5 150.0 L 156.5 152.0 L 156.5 156.0 L 156.0 162.0 L 156.0 169.0 L 156.0 175.0 L 156.0 178.0 L 155.5 178.0 " stroke="black" fill="none" stroke-width="6.0" stroke-linecap="round" stroke-linejoin="round" />
<path d="M 143.5 184.5 L 142.0 184.0 L 141.0 184.0 L 141.0 184.0 L 141.5 184.0 L 144.0 184.0 L 148.5 183.5 L 154.0 182.5 L 159.5 180.5 L 162.5 179.0 L 163.5 178.5 L 163.5 178.5 " stroke="black" fill="none" stroke-width="6.0" stroke-linecap="round" stroke-linejoin="round" />
<path d="M 166.5 175.0 L 166.5 175.0 L 166.0 175.0 L 165.5 175.0 L 165.5 175.0 L 166.5 176.5 L 168.0 179.0 L 170.0 182.0 L 171.0 184.0 L 171.0 184.5 " stroke="black" fill="none" stroke-width="6.0" stroke-linecap="round" stroke-linejoin="round" />
</svg>