<svg xmlns="http://www.w3.org/2000/svg" width="300" height="300" viewBox="0 0 300 300">
<path d="M 140.00000000000003 75.0 L 138.8888888888889 75.0 L 137.7777777777778 75.0 L 138.33333333333334 77.77777777777777 L 142.22222222222223 82.77777777777777 L 146.66666666666669 87.22222222222223 L 151.11111111111111 90.55555555555556 L 152.22222222222223 93.33333333333333 " stroke="black" fill="none" stroke-width="12.0" stroke-linecap="round" stroke-linejoin="round" />
<path d="M 85.55555555555556 111.66666666666667 L 86.11111111111111 111.66666666666667 L 86.66666666666667 111.66666666666667 L 89.44444444444444 111.66666666666667 L 96.66666666666667 113.33333333333333 L 112.77777777777779 113.33333333333333 L 133.8888888888889 111.66666666666667 L 157.7777777777778 110.0 L 179.44444444444446 109.44444444444444 L 197.7777777777778 110.0 L 211.11111111111114 111.66666666666667 L 217.7777777777778 113.33333333333333 L 218.8888888888889 113.8888888888889 " stroke="black" fill="none" stroke-width="12.0" stroke-linecap="round" stroke-linejoin="round" />
<path d="M 146.66666666666669 118.8888888888889 L 147.7777777777778 117.22222222222221 L 148.8888888888889 116.1111111111111 L 148.8888888888889 116.1111111111111 L 148.33333333333334 117.77777777777779 L 145.55555555555557 122.22222222222221 L 137.7777777777778 131.66666666666669 L 122.77777777777779 147.22222222222223 L 104.44444444444444 161.11111111111111 L 93.88888888888889 165.55555555555557 L 86.66666666666667 166.11111111111114 L 86.11111111111111 161.66666666666669 L 86.11111111111111 160.00000000000003 " stroke="black" fill="none" stroke-width="12.0" stroke-linecap="round" stroke-linejoin="round" />
<path d="M 144.44444444444446 126.1111111111111 L 143.33333333333334 126.1111111111111 L 142.7777777777778 127.77777777777779 L 145.55555555555557 132.22222222222223 L 151.11111111111111 142.22222222222223 L 159.44444444444446 160.00000000000003 L 170.55555555555557 185.00000000000003 L 182.7777777777778 204.44444444444446 L 196.11111111111114 217.7777777777778 L 208.33333333333334 226.11111111111114 L 220.00000000000003 230.00000000000003 L 228.33333333333334 231.11111111111114 L 231.66666666666669 230.00000000000003 L 230.55555555555557 228.33333333333334 " stroke="black" fill="none" stroke-width="12.0" stroke-linecap="round" stroke-linejoin="round" />
<path d="M 218.8888888888889 146.11111111111111 L 217.7777777777778 146.11111111111111 L 213.8888888888889 147.7777777777778 L 205.55555555555557 154.44444444444446 L 192.22222222222223 165.00000000000003 L 180.00000000000003 173.33333333333334 L 172.22222222222223 174.44444444444446 L 170.00000000000003 174.44444444444446 " stroke="black" fill="none" stroke-width="12.0" stroke-linecap="round" stroke-linejoin="round" />
<path d="M 114.44444444444444 162.22222222222223 L 114.44444444444444 161.66666666666669 L 114.44444444444444 161.66666666666669 L 114.44444444444444 161.11111111111111 L 115.00000000000001 161.11111111111111 L 116.1111111111111 163.33333333333334 L 117.22222222222221 168.8888888888889 L 118.8888888888889 179.44444444444446 L 118.8888888888889 195.55555555555557 L 118.8888888888889 210.55555555555557 L 117.77777777777779 222.22222222222223 L 116.66666666666667 228.33333333333334 L 116.1111111111111 231.11111111111114 L 116.1111111111111 231.66666666666669 L 116.1111111111111 231.66666666666669 L 117.22222222222221 230.00000000000003 L 120.00000000000001 226.66666666666669 L 125.00000000000001 222.7777777777778 L 132.22222222222223 218.33333333333334 L 140.00000000000003 213.8888888888889 L 146.11111111111111 210.55555555555557 L 147.7777777777778 210.00000000000003 " stroke="black" fill="none" stroke-width="12.0" stroke-linecap="round" stroke-linejoin="round" />
</svg>