<svg xmlns="http://www.w3.org/2000/svg" width="300" height="300" viewBox="0 0 300 300">
<path d="M 125.0 107.5 L 125.0 107.5 L 125.5 107.5 L 126.0 108.0 L 126.0 108.0 L 126.5 108.5 L 127.5 109.5 L 129.0 110.5 L 129.5 111.0 L 130.0 111.0 " stroke="black" fill="none" stroke-width="6.0" stroke-linecap="round" stroke-linejoin="round" />
<path d="M 121.5 119.5 L 120.5 120.0 L 120.0 120.5 L 120.0 120.5 L 121.0 120.5 L 124.5 120.0 L 128.5 119.0 L 132.0 118.0 L 135.0 118.0 L 136.5 118.0 L 137.0 118.0 L 137.5 118.0 L 137.5 118.5 L 137.0 118.5 L 136.5 119.0 L 135.5 119.5 L 134.5 121.5 L 132.5 123.5 L 130.5 126.5 L 127.5 130.5 L 123.5 136.0 L 119.5 141.0 L 117.5 144.0 L 117.0 145.0 L 117.0 145.0 L 117.0 144.5 L 117.5 144.0 " stroke="black" fill="none" stroke-width="6.0" stroke-linecap="round" stroke-linejoin="round" />
<path d="M 126.0 134.0 L 127.0 134.0 L 127.5 134.5 L 128.0 135.0 L 128.5 138.0 L 129.5 145.0 L 130.0 156.5 L 130.0 168.5 L 130.0 175.5 L 130.0 176.5 L 129.5 176.5 L 128.5 173.5 " stroke="black" fill="none" stroke-width="6.0" stroke-linecap="round" stroke-linejoin="round" />
<path d="M 143.5 126.5 L 143.5 126.5 L 143.5 126.0 L 143.5 125.5 L 143.5 125.0 L 143.5 125.0 L 143.0 126.0 L 141.5 128.5 L 140.5 130.5 L 140.0 130.5 " stroke="black" fill="none" stroke-width="6.0" stroke-linecap="round" stroke-linejoin="round" />
<path d="M 133.5 134.0 L 133.5 134.0 L 133.5 135.5 L 133.5 136.0 L 133.5 137.0 L 136.0 139.0 L 139.0 141.5 L 141.5 143.5 L 144.0 144.5 L 144.0 145.0 " stroke="black" fill="none" stroke-width="6.0" stroke-linecap="round" stroke-linejoin="round" />
<path d="M 164.0 106.0 L 164.0 105.5 L 164.0 104.5 L 164.0 104.0 L 164.0 103.5 L 164.0 103.5 L 164.0 105.0 L 162.0 109.5 L 159.0 116.5 L 155.5 123.5 L 152.5 128.5 L 151.5 129.5 L 151.5 129.0 " stroke="black" fill="none" stroke-width="6.0" stroke-linecap="round" stroke-linejoin="round" />
<path d="M 166.5 104.5 L 167.0 104.5 L 167.5 105.0 L 168.0 105.5 L 169.5 106.5 L 172.0 109.5 L 176.0 114.5 L 179.5 119.0 L 181.5 121.5 L 182.5 122.0 L 182.5 122.0 L 182.5 122.0 " stroke="black" fill="none" stroke-width="6.0" stroke-linecap="round" stroke-linejoin="round" />
<path d="M 162.5 127.0 L 162.0 128.0 L 161.5 128.0 L 162.5 128.0 L 165.0 128.5 L 168.0 128.5 L 170.5 128.0 L 172.0 128.0 L 172.5 128.0 " stroke="black" fill="none" stroke-width="6.0" stroke-linecap="round" stroke-linejoin="round" />
<path d="M 156.5 143.0 L 156.5 143.0 L 156.0 142.5 L 155.5 142.5 L 155.5 142.0 L 156.0 141.5 L 158.0 141.0 L 161.0 140.0 L 165.0 140.0 L 170.0 139.5 L 173.5 138.5 L 175.0 138.5 L 175.5 138.0 L 175.5 138.0 L 175.0 138.0 L 175.0 138.0 L 175.0 138.0 L 175.0 138.0 L 175.0 138.0 L 175.0 138.0 L 175.5 138.0 L 175.5 138.0 L 176.0 138.0 L 176.0 138.0 L 176.0 138.0 L 176.5 138.0 L 176.5 138.0 L 177.0 138.0 L 177.0 138.0 L 177.0 138.0 L 177.0 138.0 L 177.5 138.0 L 177.5 138.5 L 177.5 139.0 L 177.0 140.0 L 176.0 142.5 L 175.0 146.0 L 173.0 150.5 L 171.5 154.5 L 169.5 158.0 L 168.0 161.0 L 166.0 164.0 L 164.5 166.5 L 164.5 167.0 L 164.5 167.5 L 164.5 168.0 L 164.5 168.5 L 164.5 169.0 L 164.5 169.5 L 164.5 169.5 L 164.5 169.5 L 164.5 170.0 L 165.0 170.0 L 165.0 170.0 " stroke="black" fill="none" stroke-width="6.0" stroke-linecap="round" stroke-linejoin="round" />
</svg>