<svg xmlns="http://www.w3.org/2000/svg" width="300" height="300" viewBox="0 0 300 300">
<path d="M 122.5 107.5 L 120.5 108.5 L 120.5 109.0 L 120.5 109.0 L 122.5 110.0 L 124.5 111.0 L 126.0 112.0 L 127.5 113.5 L 128.0 114.0 " stroke="black" fill="none" stroke-width="6.0" stroke-linecap="round" stroke-linejoin="round" />
<path d="M 117.5 122.0 L 116.5 122.0 L 115.0 122.0 L 114.5 122.5 L 115.0 122.5 L 117.5 122.5 L 121.5 122.5 L 125.5 122.5 L 129.5 122.0 L 132.5 122.0 L 134.5 121.5 L 135.5 121.5 L 135.5 122.5 L 135.0 123.5 L 134.0 125.0 L 132.5 126.5 L 130.5 128.5 L 127.5 131.5 L 124.0 135.5 L 120.5 139.0 L 118.0 141.0 L 117.0 141.5 L 117.0 141.5 L 118.0 141.0 " stroke="black" fill="none" stroke-width="6.0" stroke-linecap="round" stroke-linejoin="round" />
<path d="M 126.5 135.5 L 125.5 135.0 L 125.0 135.0 L 125.0 134.5 L 125.0 135.0 L 125.5 139.5 L 126.5 148.0 L 126.5 159.5 L 126.0 170.0 L 125.5 175.5 L 125.5 179.0 L 125.5 179.5 L 125.5 179.5 L 125.5 177.5 " stroke="black" fill="none" stroke-width="6.0" stroke-linecap="round" stroke-linejoin="round" />
<path d="M 140.5 131.5 L 140.5 131.5 L 140.5 131.5 L 141.0 131.5 L 141.0 131.5 L 141.5 131.5 L 141.5 132.0 L 140.5 133.0 L 139.5 135.0 L 138.5 136.5 " stroke="black" fill="none" stroke-width="6.0" stroke-linecap="round" stroke-linejoin="round" />
<path d="M 130.0 138.5 L 130.0 139.0 L 130.0 139.5 L 130.0 140.0 L 130.5 141.0 L 133.5 145.0 L 137.5 149.5 L 141.5 153.0 L 144.0 154.0 " stroke="black" fill="none" stroke-width="6.0" stroke-linecap="round" stroke-linejoin="round" />
<path d="M 152.5 122.5 L 152.5 122.5 L 152.5 122.5 L 152.5 122.5 L 154.0 122.0 L 158.0 122.0 L 163.0 122.0 L 167.0 122.0 L 169.0 122.0 " stroke="black" fill="none" stroke-width="6.0" stroke-linecap="round" stroke-linejoin="round" />
<path d="M 161.5 109.0 L 161.5 109.5 L 160.5 110.0 L 160.0 110.0 L 159.5 111.5 L 159.5 115.0 L 159.5 122.0 L 159.5 129.5 L 159.5 134.0 L 160.0 136.0 L 160.0 136.0 " stroke="black" fill="none" stroke-width="6.0" stroke-linecap="round" stroke-linejoin="round" />
<path d="M 152.0 138.0 L 152.0 138.5 L 151.5 139.0 L 151.0 139.5 L 151.0 139.5 L 151.5 139.5 L 154.0 139.0 L 158.0 139.0 L 163.5 138.5 L 168.5 138.5 L 172.0 138.5 L 173.0 139.0 L 173.0 139.0 " stroke="black" fill="none" stroke-width="6.0" stroke-linecap="round" stroke-linejoin="round" />
<path d="M 151.5 161.0 L 151.5 161.0 L 151.5 161.5 L 151.5 162.0 L 152.0 162.0 L 153.5 162.0 L 157.0 162.0 L 161.0 162.0 L 165.0 162.0 L 165.5 162.0 " stroke="black" fill="none" stroke-width="6.0" stroke-linecap="round" stroke-linejoin="round" />
<path d="M 159.5 149.5 L 159.5 150.0 L 159.0 150.0 L 158.0 150.5 L 157.5 152.0 L 157.0 156.0 L 157.0 164.0 L 157.0 172.5 L 157.0 177.0 L 157.0 178.5 L 157.0 179.0 " stroke="black" fill="none" stroke-width="6.0" stroke-linecap="round" stroke-linejoin="round" />
<path d="M 144.0 179.0 L 143.5 179.0 L 143.0 179.0 L 143.0 179.0 L 146.5 179.0 L 152.0 179.0 L 159.0 178.5 L 166.0 178.0 L 171.5 177.0 L 175.5 177.0 L 177.0 178.5 L 178.0 180.0 " stroke="black" fill="none" stroke-width="6.0" stroke-linecap="round" stroke-linejoin="round" />
</svg>