<svg xmlns="http://www.w3.org/2000/svg" width="300" height="300" viewBox="0 0 300 300">
<path d="M 117.0 107.5 L 117.0 108.0 L 116.5 108.5 L 116.5 108.5 L 116.0 109.0 L 114.5 111.5 L 111.0 117.5 L 104.5 125.0 L 99.0 129.5 L 97.5 130.5 L 99.5 128.5 " stroke="black" fill="none" stroke-width="7.0" stroke-linecap="round" stroke-linejoin="round" />
<path d="M 123.5 115.0 L 123.0 115.5 L 122.5 116.0 L 122.5 116.0 L 122.5 117.0 L 122.0 119.5 L 119.5 124.0 L 115.0 130.0 L 108.0 137.0 L 102.0 142.0 L 101.0 143.5 L 101.5 143.5 L 103.0 142.5 " stroke="black" fill="none" stroke-width="7.0" stroke-linecap="round" stroke-linejoin="round" />
<path d="M 111.5 134.0 L 111.5 134.5 L 112.0 135.0 L 112.5 136.0 L 113.0 139.5 L 113.5 148.5 L 113.5 162.5 L 111.0 176.0 L 108.5 186.5 L 107.5 190.0 L 107.5 187.5 " stroke="black" fill="none" stroke-width="7.0" stroke-linecap="round" stroke-linejoin="round" />
<path d="M 139.5 109.0 L 139.5 108.5 L 140.0 108.0 L 140.0 108.0 L 140.0 108.5 L 138.5 113.5 L 137.0 120.5 L 136.0 125.5 L 135.5 127.0 L 135.5 127.0 " stroke="black" fill="none" stroke-width="7.0" stroke-linecap="round" stroke-linejoin="round" />
<path d="M 141.0 115.0 L 140.5 115.0 L 140.5 115.5 L 140.0 115.5 L 139.5 115.5 L 140.0 115.5 L 142.0 115.5 L 146.0 115.0 L 151.5 114.5 L 156.0 114.5 L 158.5 114.5 L 159.0 115.0 L 158.0 117.0 L 157.5 120.0 L 157.0 122.5 L 156.5 124.5 L 156.0 126.0 L 156.0 126.0 " stroke="black" fill="none" stroke-width="7.0" stroke-linecap="round" stroke-linejoin="round" />
<path d="M 134.5 135.5 L 135.0 135.5 L 135.0 135.5 L 135.0 137.0 L 135.0 143.5 L 135.0 151.5 L 135.0 156.5 L 135.5 157.5 L 135.5 156.5 " stroke="black" fill="none" stroke-width="7.0" stroke-linecap="round" stroke-linejoin="round" />
<path d="M 136.5 137.5 L 136.0 138.0 L 135.5 138.5 L 135.0 138.5 L 136.0 138.5 L 139.0 138.5 L 144.0 138.0 L 150.5 138.0 L 158.0 138.0 L 163.0 139.0 L 164.5 139.5 L 164.5 140.0 L 164.0 140.5 L 163.0 141.5 L 162.0 144.0 L 160.5 147.0 L 159.0 150.5 L 158.0 154.0 L 157.5 156.5 L 157.5 157.0 " stroke="black" fill="none" stroke-width="7.0" stroke-linecap="round" stroke-linejoin="round" />
<path d="M 141.0 153.5 L 140.0 154.0 L 138.0 154.0 L 137.0 154.5 L 137.5 154.0 L 141.0 153.0 L 145.5 152.5 L 150.0 152.0 L 153.0 151.5 L 153.5 151.0 " stroke="black" fill="none" stroke-width="7.0" stroke-linecap="round" stroke-linejoin="round" />
<path d="M 147.0 142.0 L 147.0 142.0 L 146.5 141.5 L 146.0 141.0 L 146.0 141.5 L 146.0 145.0 L 146.0 150.0 L 146.0 156.5 L 146.0 160.5 L 146.0 162.0 " stroke="black" fill="none" stroke-width="7.0" stroke-linecap="round" stroke-linejoin="round" />
<path d="M 136.5 165.5 L 136.5 165.5 L 135.5 165.5 L 135.5 165.5 L 136.0 166.0 L 139.0 166.0 L 144.0 165.5 L 148.5 164.0 L 152.0 163.0 " stroke="black" fill="none" stroke-width="7.0" stroke-linecap="round" stroke-linejoin="round" />
<path d="M 130.5 179.0 L 130.5 179.0 L 130.5 179.0 L 130.5 179.0 L 131.5 179.5 L 134.0 179.5 L 140.5 179.5 L 150.5 179.0 L 158.5 177.5 L 161.5 177.0 " stroke="black" fill="none" stroke-width="7.0" stroke-linecap="round" stroke-linejoin="round" />
<path d="M 144.5 172.5 L 144.0 173.0 L 143.5 173.5 L 143.5 175.0 L 142.5 178.5 L 140.5 186.5 L 137.0 195.0 L 134.0 199.0 L 132.5 199.5 L 132.0 198.0 " stroke="black" fill="none" stroke-width="7.0" stroke-linecap="round" stroke-linejoin="round" />
<path d="M 147.0 188.5 L 147.0 188.0 L 147.0 187.5 L 147.5 187.5 L 151.5 188.5 L 158.5 191.5 L 166.0 194.0 L 171.5 194.5 " stroke="black" fill="none" stroke-width="7.0" stroke-linecap="round" stroke-linejoin="round" />
<path d="M 178.0 118.0 L 178.0 118.0 L 178.0 118.0 L 178.0 118.0 L 178.0 117.5 L 179.5 117.5 L 184.5 116.5 L 190.0 115.5 L 194.0 115.0 L 195.0 115.5 L 195.5 115.5 " stroke="black" fill="none" stroke-width="7.0" stroke-linecap="round" stroke-linejoin="round" />
<path d="M 172.5 135.5 L 172.5 136.0 L 172.5 136.0 L 172.5 136.5 L 174.5 136.5 L 180.0 135.0 L 186.0 134.0 L 191.0 133.5 L 194.0 133.5 L 195.5 134.0 L 195.5 134.0 " stroke="black" fill="none" stroke-width="7.0" stroke-linecap="round" stroke-linejoin="round" />
<path d="M 184.5 137.5 L 184.5 137.5 L 184.5 137.0 L 184.5 137.0 L 184.5 137.0 L 184.5 138.0 L 184.5 141.5 L 184.5 146.0 L 184.5 151.5 L 184.5 157.5 L 184.5 162.0 L 184.5 166.5 L 184.5 170.5 L 184.5 173.5 L 184.5 176.5 L 184.5 179.0 L 184.5 181.5 L 184.0 184.0 L 183.5 185.5 L 183.5 186.5 L 183.5 186.5 L 183.0 187.0 L 183.0 188.0 L 183.0 188.5 L 183.0 189.0 L 183.0 189.5 L 182.5 189.5 L 182.5 189.5 L 181.5 189.5 L 180.5 189.0 L 179.0 188.5 L 177.5 187.5 L 176.5 186.5 L 176.0 186.0 " stroke="black" fill="none" stroke-width="7.0" stroke-linecap="round" stroke-linejoin="round" />
</svg>