<svg xmlns="http://www.w3.org/2000/svg" width="300" height="300" viewBox="0 0 300 300">
<path d="M 142.0 109.5 L 142.0 111.0 L 142.5 112.0 L 144.5 113.0 L 147.0 114.0 L 149.0 114.5 L 149.5 115.0 " stroke="black" fill="none" stroke-width="6.0" stroke-linecap="round" stroke-linejoin="round" />
<path d="M 126.5 124.5 L 126.0 124.5 L 125.5 124.5 L 127.0 124.5 L 135.0 124.5 L 148.5 123.0 L 160.0 121.5 L 167.5 121.0 L 170.5 121.0 L 171.5 121.5 L 171.0 121.5 L 170.0 122.0 L 169.5 122.0 " stroke="black" fill="none" stroke-width="6.0" stroke-linecap="round" stroke-linejoin="round" />
<path d="M 134.0 136.5 L 134.0 136.0 L 134.5 135.5 L 135.0 135.5 L 135.5 136.0 L 136.5 138.5 L 137.0 143.0 L 137.5 146.5 L 137.5 147.5 L 137.0 147.5 " stroke="black" fill="none" stroke-width="6.0" stroke-linecap="round" stroke-linejoin="round" />
<path d="M 134.0 138.5 L 134.0 138.5 L 134.5 138.0 L 136.0 137.5 L 140.0 136.5 L 147.0 134.5 L 154.0 133.0 L 160.0 132.0 L 165.0 132.0 L 167.5 133.0 L 167.5 133.5 L 167.5 133.5 L 167.5 134.0 L 167.5 134.0 L 167.5 135.0 L 167.5 136.0 L 167.0 137.5 L 166.5 139.5 L 166.0 141.5 L 165.5 143.0 L 164.5 144.5 " stroke="black" fill="none" stroke-width="6.0" stroke-linecap="round" stroke-linejoin="round" />
<path d="M 142.5 150.0 L 142.0 150.0 L 141.0 150.5 L 141.0 150.5 L 144.0 149.5 L 149.0 148.0 L 154.0 146.5 L 159.0 145.0 L 162.0 144.5 L 163.0 144.5 " stroke="black" fill="none" stroke-width="6.0" stroke-linecap="round" stroke-linejoin="round" />
<path d="M 151.5 124.5 L 151.5 124.5 L 151.5 124.5 L 152.0 124.5 L 152.0 124.5 L 152.0 126.5 L 152.0 134.0 L 152.0 146.5 L 152.5 155.0 L 152.5 156.0 L 152.0 153.5 " stroke="black" fill="none" stroke-width="6.0" stroke-linecap="round" stroke-linejoin="round" />
<path d="M 143.5 159.0 L 144.0 159.0 L 144.5 159.0 L 144.5 159.5 L 144.5 159.5 L 144.0 160.5 L 141.5 163.5 L 135.5 169.0 L 128.5 175.5 L 123.5 179.0 L 123.0 179.5 L 123.0 179.0 " stroke="black" fill="none" stroke-width="6.0" stroke-linecap="round" stroke-linejoin="round" />
<path d="M 144.5 161.0 L 143.5 161.5 L 143.5 162.5 L 143.5 163.5 L 147.0 166.5 L 153.5 171.5 L 162.5 178.0 L 170.5 181.5 L 175.0 182.5 L 176.0 182.5 L 175.0 181.5 L 174.5 181.0 " stroke="black" fill="none" stroke-width="6.0" stroke-linecap="round" stroke-linejoin="round" />
<path d="M 171.0 164.5 L 171.5 163.0 L 171.5 162.5 L 171.5 162.5 L 170.0 163.5 L 167.5 166.5 L 164.0 170.0 L 162.0 172.5 L 161.5 173.0 " stroke="black" fill="none" stroke-width="6.0" stroke-linecap="round" stroke-linejoin="round" />
<path d="M 137.5 173.0 L 137.5 173.0 L 137.5 172.0 L 138.0 171.5 L 138.0 171.5 L 138.5 172.0 L 139.0 174.5 L 139.0 180.0 L 138.5 186.5 L 138.5 192.0 L 139.0 195.0 L 141.5 194.5 L 145.5 191.5 L 149.0 188.0 L 150.5 185.5 L 151.0 185.0 L 151.0 185.0 " stroke="black" fill="none" stroke-width="6.0" stroke-linecap="round" stroke-linejoin="round" />
</svg>