<svg xmlns="http://www.w3.org/2000/svg" width="300" height="300" viewBox="0 0 300 300">
<path d="M 125.5 115.0 L 126.0 115.0 L 126.0 114.5 L 126.5 114.5 L 128.0 114.0 L 130.0 113.5 L 138.0 113.0 L 150.5 112.5 L 165.0 112.0 L 172.0 111.5 L 178.0 111.0 L 179.0 111.0 L 179.0 111.0 L 178.5 111.0 L 177.0 110.5 L 176.0 109.5 " stroke="black" fill="none" stroke-width="6.0" stroke-linecap="round" stroke-linejoin="round" />
<path d="M 131.5 124.5 L 132.0 124.0 L 132.0 123.5 L 132.5 123.5 L 132.5 123.5 L 132.5 125.5 L 132.5 130.5 L 132.5 134.0 L 132.5 137.0 L 132.5 137.0 " stroke="black" fill="none" stroke-width="6.0" stroke-linecap="round" stroke-linejoin="round" />
<path d="M 132.5 124.5 L 132.5 124.5 L 132.5 124.5 L 132.5 124.5 L 132.5 124.5 L 133.5 124.5 L 138.5 124.0 L 150.0 122.0 L 156.0 120.5 L 168.5 119.0 L 173.0 118.5 L 175.5 120.5 L 175.5 121.0 L 175.5 121.5 L 175.5 121.5 L 175.5 121.5 L 175.5 122.5 L 175.5 123.5 L 175.5 125.5 L 175.5 127.5 L 175.5 128.5 L 174.5 130.5 L 174.0 132.0 L 173.5 132.0 " stroke="black" fill="none" stroke-width="6.0" stroke-linecap="round" stroke-linejoin="round" />
<path d="M 144.5 113.0 L 144.5 113.0 L 144.5 113.0 L 144.0 114.0 L 144.0 118.0 L 144.0 124.0 L 144.5 133.5 L 145.5 136.5 L 146.0 136.5 " stroke="black" fill="none" stroke-width="6.0" stroke-linecap="round" stroke-linejoin="round" />
<path d="M 157.5 112.5 L 158.0 112.5 L 158.0 112.5 L 158.5 113.0 L 158.5 113.5 L 158.5 115.0 L 158.5 122.5 L 158.0 128.5 L 157.5 131.5 L 156.5 133.0 " stroke="black" fill="none" stroke-width="6.0" stroke-linecap="round" stroke-linejoin="round" />
<path d="M 138.5 139.0 L 138.0 139.0 L 137.0 138.5 L 137.0 138.5 L 142.0 138.0 L 145.0 137.5 L 154.5 136.0 L 166.5 135.0 L 171.0 135.0 L 177.0 135.0 L 177.5 134.5 " stroke="black" fill="none" stroke-width="6.0" stroke-linecap="round" stroke-linejoin="round" />
<path d="M 142.0 146.5 L 142.5 146.0 L 143.5 145.0 L 144.0 145.0 L 144.0 145.0 L 143.5 145.0 L 141.5 147.0 L 136.0 152.5 L 132.0 157.0 L 130.0 159.0 L 130.0 159.0 " stroke="black" fill="none" stroke-width="6.0" stroke-linecap="round" stroke-linejoin="round" />
<path d="M 146.0 151.0 L 146.5 151.0 L 146.5 152.0 L 146.5 152.5 L 146.5 153.0 L 146.5 153.5 L 144.0 157.0 L 141.5 160.0 L 138.5 163.0 L 135.5 166.0 L 134.0 166.5 " stroke="black" fill="none" stroke-width="6.0" stroke-linecap="round" stroke-linejoin="round" />
<path d="M 141.0 161.0 L 141.0 161.0 L 141.0 160.5 L 141.5 161.0 L 142.5 165.0 L 143.0 177.0 L 143.5 188.0 L 143.0 194.5 L 142.5 194.5 " stroke="black" fill="none" stroke-width="6.0" stroke-linecap="round" stroke-linejoin="round" />
<path d="M 161.0 145.0 L 161.0 144.5 L 161.5 144.0 L 161.5 143.5 L 161.5 143.5 L 161.5 144.5 L 161.5 147.5 L 160.5 150.0 L 159.0 153.5 L 157.0 156.0 L 155.5 156.0 " stroke="black" fill="none" stroke-width="6.0" stroke-linecap="round" stroke-linejoin="round" />
<path d="M 160.5 148.5 L 161.5 148.5 L 162.5 148.5 L 164.5 148.5 L 167.0 148.0 L 171.5 146.5 L 177.0 145.5 L 181.0 145.0 L 182.5 144.5 L 182.5 144.5 L 182.0 145.0 " stroke="black" fill="none" stroke-width="6.0" stroke-linecap="round" stroke-linejoin="round" />
<path d="M 164.0 157.5 L 164.0 157.5 L 164.0 157.5 L 164.0 157.0 L 164.0 158.5 L 164.0 162.5 L 164.0 167.0 L 164.0 170.0 L 164.0 171.0 " stroke="black" fill="none" stroke-width="6.0" stroke-linecap="round" stroke-linejoin="round" />
<path d="M 166.5 158.5 L 166.0 158.0 L 165.5 158.0 L 165.5 157.5 L 166.0 157.5 L 169.0 156.5 L 172.5 155.5 L 176.0 154.5 L 179.0 154.0 L 181.5 153.5 L 182.5 154.0 L 183.0 155.5 L 183.5 158.0 L 183.5 161.5 L 183.0 165.0 L 181.5 167.5 L 180.5 169.0 " stroke="black" fill="none" stroke-width="6.0" stroke-linecap="round" stroke-linejoin="round" />
<path d="M 168.5 163.5 L 167.0 163.0 L 166.5 163.0 L 166.5 163.0 L 169.0 163.0 L 172.0 162.5 L 175.0 162.0 L 177.5 161.5 L 178.5 161.5 " stroke="black" fill="none" stroke-width="6.0" stroke-linecap="round" stroke-linejoin="round" />
<path d="M 167.5 171.5 L 167.0 171.5 L 166.0 172.0 L 165.5 172.0 L 166.0 172.0 L 169.0 171.5 L 172.0 170.5 L 175.0 170.0 L 177.0 169.5 " stroke="black" fill="none" stroke-width="6.0" stroke-linecap="round" stroke-linejoin="round" />
<path d="M 160.5 176.5 L 160.5 176.5 L 161.0 176.5 L 161.0 176.5 L 161.0 177.0 L 160.5 178.5 L 159.0 180.5 L 157.5 183.0 L 156.5 184.5 " stroke="black" fill="none" stroke-width="6.0" stroke-linecap="round" stroke-linejoin="round" />
<path d="M 164.0 178.0 L 164.0 178.0 L 164.5 178.5 L 165.5 178.5 L 169.0 178.5 L 173.5 178.5 L 178.0 178.0 L 180.5 177.5 L 182.0 177.5 L 182.5 177.5 L 183.0 177.5 L 183.0 178.0 L 182.5 179.5 L 180.0 182.5 L 176.0 188.0 L 170.5 194.0 L 165.5 198.5 L 162.0 200.5 L 160.0 200.0 L 159.5 199.0 " stroke="black" fill="none" stroke-width="6.0" stroke-linecap="round" stroke-linejoin="round" />
<path d="M 163.5 189.0 L 163.5 189.0 L 163.5 189.0 L 166.0 190.0 L 173.0 193.0 L 182.0 196.5 L 189.5 199.0 L 194.0 200.5 L 195.0 200.5 " stroke="black" fill="none" stroke-width="6.0" stroke-linecap="round" stroke-linejoin="round" />
</svg>