<svg xmlns="http://www.w3.org/2000/svg" width="300" height="300" viewBox="0 0 300 300">
<path d="M 124.0 110.0 L 122.5 110.0 L 121.5 110.0 L 121.5 110.0 L 124.5 110.0 L 131.0 109.5 L 144.0 108.5 L 162.5 105.5 L 176.0 102.5 L 181.5 101.0 L 181.5 101.5 L 179.0 102.5 L 178.5 102.5 " stroke="black" fill="none" stroke-width="7.0" stroke-linecap="round" stroke-linejoin="round" />
<path d="M 128.0 122.0 L 127.5 122.0 L 127.0 122.0 L 127.0 123.5 L 129.5 129.5 L 132.0 135.5 L 133.0 139.0 L 133.5 139.5 " stroke="black" fill="none" stroke-width="7.0" stroke-linecap="round" stroke-linejoin="round" />
<path d="M 131.0 126.0 L 130.0 126.0 L 129.5 126.5 L 131.0 126.0 L 136.5 123.5 L 144.0 121.0 L 154.0 119.0 L 165.0 118.0 L 174.0 118.0 L 178.5 120.0 L 180.0 122.5 L 180.0 125.0 L 178.5 129.0 L 177.5 133.0 L 176.5 135.5 L 176.0 136.5 L 175.5 136.5 " stroke="black" fill="none" stroke-width="7.0" stroke-linecap="round" stroke-linejoin="round" />
<path d="M 145.0 107.5 L 144.0 108.5 L 143.5 109.5 L 143.5 112.5 L 143.5 119.5 L 144.0 126.5 L 145.5 130.5 L 146.5 131.0 " stroke="black" fill="none" stroke-width="7.0" stroke-linecap="round" stroke-linejoin="round" />
<path d="M 157.0 106.0 L 157.0 106.5 L 156.5 107.0 L 156.0 109.0 L 156.5 115.5 L 156.5 124.0 L 156.5 131.5 L 156.0 136.0 L 155.5 137.0 " stroke="black" fill="none" stroke-width="7.0" stroke-linecap="round" stroke-linejoin="round" />
<path d="M 136.5 138.0 L 136.0 138.5 L 135.0 138.5 L 134.5 138.5 L 137.5 139.0 L 143.0 139.0 L 151.5 139.0 L 162.5 137.0 L 170.5 135.0 L 173.5 134.5 " stroke="black" fill="none" stroke-width="7.0" stroke-linecap="round" stroke-linejoin="round" />
<path d="M 156.5 148.5 L 156.5 148.5 L 156.5 148.0 L 157.0 148.0 L 157.0 148.0 L 155.5 151.0 L 151.0 159.0 L 147.0 168.0 L 146.5 175.5 L 150.0 182.5 L 156.5 186.5 L 163.5 187.5 L 168.0 187.0 L 169.0 185.5 L 169.0 184.5 " stroke="black" fill="none" stroke-width="7.0" stroke-linecap="round" stroke-linejoin="round" />
<path d="M 170.5 155.5 L 170.0 155.5 L 169.5 155.0 L 169.0 155.0 L 167.5 157.0 L 164.0 164.5 L 156.5 178.0 L 148.0 189.0 L 142.0 191.5 L 139.5 190.5 L 139.5 189.0 " stroke="black" fill="none" stroke-width="7.0" stroke-linecap="round" stroke-linejoin="round" />
<path d="M 140.5 162.5 L 140.5 162.5 L 139.5 162.5 L 140.0 162.0 L 145.5 161.0 L 156.5 160.0 L 171.5 160.0 L 182.5 160.0 L 187.5 160.0 " stroke="black" fill="none" stroke-width="7.0" stroke-linecap="round" stroke-linejoin="round" />
</svg>