<svg xmlns="http://www.w3.org/2000/svg" width="300" height="300" viewBox="0 0 300 300">
<path d="M 137.5 111.5 L 137.5 111.5 L 138.0 111.0 L 138.0 111.0 L 138.0 114.5 L 137.5 125.5 L 136.5 142.0 L 136.5 152.0 L 136.0 155.0 L 136.0 155.0 L 136.0 152.5 " stroke="black" fill="none" stroke-width="7.0" stroke-linecap="round" stroke-linejoin="round" />
<path d="M 139.5 108.0 L 139.0 108.5 L 138.0 108.5 L 137.0 108.5 L 136.5 108.5 L 137.0 108.0 L 140.0 108.0 L 145.0 108.0 L 152.5 108.0 L 160.0 108.5 L 165.5 108.5 L 168.0 109.0 L 168.5 109.0 L 168.0 109.0 L 168.0 109.0 L 168.5 108.5 L 169.0 108.5 L 169.5 108.5 L 170.0 108.0 L 170.0 108.0 L 170.5 108.0 L 170.5 108.0 L 170.5 108.5 L 170.5 109.0 L 170.5 109.0 L 170.5 109.5 L 170.5 109.5 L 170.5 110.0 L 170.5 110.5 L 170.5 111.0 L 170.0 111.5 L 170.0 112.5 L 170.0 113.0 L 169.5 115.5 L 169.0 121.0 L 169.0 127.5 L 169.0 136.0 L 168.5 147.0 L 167.5 154.5 L 167.5 159.0 L 167.0 161.0 L 167.0 161.0 L 167.0 160.0 L 167.0 158.0 L 166.5 156.0 " stroke="black" fill="none" stroke-width="7.0" stroke-linecap="round" stroke-linejoin="round" />
<path d="M 134.5 127.5 L 134.5 127.5 L 135.0 127.0 L 136.0 126.5 L 138.5 126.0 L 143.0 125.5 L 149.5 125.5 L 156.0 125.5 L 161.5 125.5 L 164.0 125.5 L 164.0 126.5 L 163.0 126.5 L 162.5 126.5 " stroke="black" fill="none" stroke-width="7.0" stroke-linecap="round" stroke-linejoin="round" />
<path d="M 142.0 141.5 L 140.0 141.5 L 139.5 141.5 L 140.5 141.5 L 144.5 141.0 L 150.0 140.5 L 155.5 140.0 L 161.0 140.0 L 165.0 139.5 " stroke="black" fill="none" stroke-width="7.0" stroke-linecap="round" stroke-linejoin="round" />
<path d="M 135.0 161.5 L 135.5 161.0 L 136.5 160.5 L 138.5 160.0 L 143.0 160.0 L 149.5 159.5 L 158.0 159.5 L 165.5 159.5 L 170.0 159.0 L 170.5 158.5 L 169.5 159.0 " stroke="black" fill="none" stroke-width="7.0" stroke-linecap="round" stroke-linejoin="round" />
<path d="M 147.5 163.5 L 147.5 163.0 L 147.0 162.0 L 146.5 161.5 L 146.5 161.5 L 146.5 163.0 L 144.0 168.0 L 139.0 175.0 L 133.0 182.0 L 130.0 184.5 L 130.0 184.5 " stroke="black" fill="none" stroke-width="7.0" stroke-linecap="round" stroke-linejoin="round" />
<path d="M 156.5 165.5 L 157.0 164.5 L 157.5 163.5 L 158.0 163.0 L 158.0 163.0 L 158.0 163.5 L 158.0 166.5 L 157.5 171.0 L 156.5 176.5 L 156.5 182.0 L 157.5 185.0 L 160.5 186.5 L 165.5 186.5 L 171.5 186.5 L 178.0 184.0 L 182.5 182.0 L 183.5 181.5 L 183.5 181.0 L 183.5 180.0 L 183.0 179.5 L 182.5 178.5 L 182.5 177.0 L 182.0 176.0 L 181.5 174.5 L 181.5 173.5 L 181.5 173.0 L 181.5 173.0 " stroke="black" fill="none" stroke-width="7.0" stroke-linecap="round" stroke-linejoin="round" />
</svg>