<svg xmlns="http://www.w3.org/2000/svg" width="300" height="300" viewBox="0 0 300 300">
<path d="M 104.5 87.5 L 104.5 87.5 L 103.0 88.0 L 103.0 89.0 L 105.5 92.0 L 110.0 97.5 L 114.0 102.0 L 115.5 104.0 L 115.5 104.0 " stroke="black" fill="none" stroke-width="9.0" stroke-linecap="round" stroke-linejoin="round" />
<path d="M 104.5 116.0 L 103.5 115.5 L 102.5 115.0 L 103.5 114.5 L 108.0 113.0 L 115.0 112.0 L 121.5 111.0 L 125.0 111.0 L 125.5 111.0 " stroke="black" fill="none" stroke-width="9.0" stroke-linecap="round" stroke-linejoin="round" />
<path d="M 108.0 129.5 L 107.5 130.0 L 106.0 131.0 L 105.5 131.0 L 108.0 131.0 L 113.5 130.0 L 119.5 129.0 L 124.5 127.5 L 126.5 127.5 L 127.0 127.5 " stroke="black" fill="none" stroke-width="9.0" stroke-linecap="round" stroke-linejoin="round" />
<path d="M 110.5 151.0 L 110.5 151.0 L 110.5 151.0 L 111.0 150.5 L 114.0 150.0 L 119.5 148.5 L 124.5 148.0 L 127.0 148.0 L 127.5 148.0 " stroke="black" fill="none" stroke-width="9.0" stroke-linecap="round" stroke-linejoin="round" />
<path d="M 108.5 170.0 L 108.5 170.0 L 108.5 170.5 L 109.5 173.0 L 111.5 178.5 L 113.0 185.5 L 114.0 191.0 L 114.0 192.0 " stroke="black" fill="none" stroke-width="9.0" stroke-linecap="round" stroke-linejoin="round" />
<path d="M 113.0 180.5 L 112.0 179.5 L 112.0 178.0 L 113.5 175.5 L 118.0 173.5 L 123.0 171.5 L 126.5 171.5 L 128.5 172.5 L 130.0 175.5 L 131.5 179.0 L 132.0 184.5 L 131.5 191.5 L 129.0 197.0 L 127.0 199.0 L 126.0 199.0 " stroke="black" fill="none" stroke-width="9.0" stroke-linecap="round" stroke-linejoin="round" />
<path d="M 114.5 201.5 L 114.5 202.5 L 114.5 203.0 L 116.0 203.0 L 121.0 201.5 L 126.0 198.5 L 129.0 195.5 " stroke="black" fill="none" stroke-width="9.0" stroke-linecap="round" stroke-linejoin="round" />
<path d="M 150.0 104.5 L 150.0 104.0 L 149.5 103.5 L 152.0 103.0 L 159.0 102.5 L 170.0 101.0 L 176.5 100.0 L 179.0 99.5 L 179.0 99.0 " stroke="black" fill="none" stroke-width="9.0" stroke-linecap="round" stroke-linejoin="round" />
<path d="M 165.5 86.5 L 165.0 86.5 L 164.5 86.5 L 164.5 89.0 L 165.5 98.5 L 166.5 112.5 L 167.5 119.0 L 168.5 119.0 " stroke="black" fill="none" stroke-width="9.0" stroke-linecap="round" stroke-linejoin="round" />
<path d="M 148.0 125.5 L 145.0 125.5 L 144.0 125.5 L 146.5 125.5 L 156.0 124.5 L 167.5 122.5 L 179.5 120.5 L 186.5 120.0 L 189.0 120.5 " stroke="black" fill="none" stroke-width="9.0" stroke-linecap="round" stroke-linejoin="round" />
<path d="M 147.0 149.5 L 147.0 149.5 L 147.0 149.0 L 149.0 149.0 L 160.0 148.5 L 173.5 147.0 L 182.0 146.0 L 185.5 145.5 L 188.5 145.5 " stroke="black" fill="none" stroke-width="9.0" stroke-linecap="round" stroke-linejoin="round" />
<path d="M 178.0 133.0 L 178.5 133.0 L 179.0 133.0 L 179.5 133.5 L 180.0 138.5 L 182.0 149.5 L 184.5 164.0 L 187.5 178.5 L 188.5 191.0 L 189.5 202.0 L 189.5 211.0 L 188.5 215.5 L 187.0 217.5 L 183.5 217.5 L 178.5 213.5 L 173.0 208.0 L 171.5 206.0 " stroke="black" fill="none" stroke-width="9.0" stroke-linecap="round" stroke-linejoin="round" />
<path d="M 156.0 175.5 L 156.0 175.5 L 156.0 175.0 L 159.0 175.5 L 165.0 178.5 L 171.5 183.0 L 176.5 186.5 " stroke="black" fill="none" stroke-width="9.0" stroke-linecap="round" stroke-linejoin="round" />
</svg>