<svg xmlns="http://www.w3.org/2000/svg" width="300" height="300" viewBox="0 0 300 300">
<path d="M 114.5 108.5 L 114.0 108.5 L 114.0 108.5 L 115.5 111.0 L 119.5 114.5 L 123.0 117.5 L 125.0 118.5 L 125.5 119.5 " stroke="black" fill="none" stroke-width="7.0" stroke-linecap="round" stroke-linejoin="round" />
<path d="M 114.5 132.5 L 114.5 132.5 L 114.0 132.5 L 115.5 132.0 L 119.0 131.5 L 123.0 131.0 L 126.5 130.5 L 128.0 130.5 " stroke="black" fill="none" stroke-width="7.0" stroke-linecap="round" stroke-linejoin="round" />
<path d="M 113.0 147.0 L 113.0 147.0 L 113.5 146.5 L 115.0 146.0 L 118.5 145.0 L 122.0 145.0 L 125.0 144.5 L 126.0 144.5 " stroke="black" fill="none" stroke-width="7.0" stroke-linecap="round" stroke-linejoin="round" />
<path d="M 116.0 160.5 L 115.5 160.5 L 115.0 161.0 L 115.0 161.0 L 117.5 161.0 L 121.0 160.5 L 124.5 160.0 L 125.5 160.0 " stroke="black" fill="none" stroke-width="7.0" stroke-linecap="round" stroke-linejoin="round" />
<path d="M 116.5 173.0 L 116.5 173.0 L 116.0 173.5 L 116.0 174.0 L 116.0 176.5 L 116.5 182.5 L 117.5 187.5 L 118.0 189.5 " stroke="black" fill="none" stroke-width="7.0" stroke-linecap="round" stroke-linejoin="round" />
<path d="M 117.5 176.0 L 117.5 176.5 L 116.5 177.0 L 117.0 177.0 L 119.5 176.0 L 123.0 175.0 L 126.0 174.0 L 129.0 173.5 L 131.5 173.0 L 133.0 174.0 L 133.5 175.5 L 134.0 178.0 L 134.0 181.0 L 133.0 185.0 L 131.5 188.5 " stroke="black" fill="none" stroke-width="7.0" stroke-linecap="round" stroke-linejoin="round" />
<path d="M 121.5 192.0 L 120.5 192.0 L 120.5 192.0 L 121.0 192.0 L 123.5 191.0 L 126.5 190.5 L 128.0 190.0 " stroke="black" fill="none" stroke-width="7.0" stroke-linecap="round" stroke-linejoin="round" />
<path d="M 161.0 111.5 L 161.0 111.0 L 161.0 110.5 L 161.5 110.0 L 161.5 109.5 L 161.5 110.0 L 160.0 114.5 L 155.0 122.5 L 146.5 132.0 L 140.0 137.5 L 138.5 138.0 L 138.5 137.0 " stroke="black" fill="none" stroke-width="7.0" stroke-linecap="round" stroke-linejoin="round" />
<path d="M 165.5 114.5 L 164.5 114.5 L 162.5 114.5 L 162.5 114.5 L 163.5 114.5 L 166.5 117.5 L 170.5 122.5 L 175.0 128.5 L 181.0 133.5 L 186.0 134.5 L 189.5 135.0 " stroke="black" fill="none" stroke-width="7.0" stroke-linecap="round" stroke-linejoin="round" />
<path d="M 151.0 143.5 L 151.0 143.0 L 150.5 142.5 L 150.5 142.0 L 151.5 142.0 L 155.0 142.5 L 159.5 143.0 L 164.0 143.0 L 168.0 143.0 L 171.0 143.0 L 173.0 143.0 L 174.0 143.5 " stroke="black" fill="none" stroke-width="7.0" stroke-linecap="round" stroke-linejoin="round" />
<path d="M 148.0 159.5 L 148.0 158.0 L 148.0 157.0 L 148.0 158.0 L 148.0 159.5 L 148.5 165.5 L 148.5 173.5 L 148.5 180.5 L 149.0 183.5 L 149.0 184.0 " stroke="black" fill="none" stroke-width="7.0" stroke-linecap="round" stroke-linejoin="round" />
<path d="M 149.5 155.5 L 148.0 157.0 L 147.5 157.5 L 148.0 157.5 L 150.5 157.5 L 154.0 157.5 L 157.5 157.5 L 162.5 157.0 L 168.5 157.0 L 174.5 156.0 L 178.5 156.0 L 181.0 156.5 L 181.0 157.0 L 181.0 157.5 L 181.0 157.5 L 181.0 157.5 L 181.0 157.5 L 181.0 157.5 L 181.0 158.0 L 181.0 158.5 L 181.5 159.5 L 181.5 161.0 L 182.0 163.5 L 182.0 166.5 L 182.5 170.5 L 182.5 174.5 L 182.0 179.5 L 181.5 184.0 L 181.0 187.5 L 180.5 189.5 L 179.5 189.5 L 178.0 189.5 L 176.5 189.5 L 175.0 188.5 " stroke="black" fill="none" stroke-width="7.0" stroke-linecap="round" stroke-linejoin="round" />
<path d="M 152.5 171.0 L 152.5 171.0 L 152.0 171.0 L 152.5 171.0 L 156.0 170.5 L 161.5 169.5 L 166.5 168.5 L 170.5 168.5 L 173.0 169.0 L 173.5 169.5 " stroke="black" fill="none" stroke-width="7.0" stroke-linecap="round" stroke-linejoin="round" />
<path d="M 160.0 160.0 L 160.0 160.0 L 160.0 160.0 L 160.0 162.5 L 160.0 169.5 L 160.0 178.5 L 160.0 184.0 L 160.0 185.0 " stroke="black" fill="none" stroke-width="7.0" stroke-linecap="round" stroke-linejoin="round" />
<path d="M 169.5 159.5 L 169.5 159.5 L 169.0 160.5 L 168.5 162.0 L 168.5 167.0 L 168.5 174.5 L 168.5 182.0 " stroke="black" fill="none" stroke-width="7.0" stroke-linecap="round" stroke-linejoin="round" />
</svg>