<svg xmlns="http://www.w3.org/2000/svg" width="300" height="300" viewBox="0 0 300 300">
<path d="M 107.5 94.5 L 107.0 94.5 L 106.0 94.5 L 106.0 95.5 L 109.0 97.5 L 113.0 100.5 L 116.5 103.5 L 118.5 105.0 L 119.5 106.0 " stroke="black" fill="none" stroke-width="8.0" stroke-linecap="round" stroke-linejoin="round" />
<path d="M 102.5 117.5 L 100.5 117.5 L 100.5 117.5 L 102.0 117.5 L 106.5 117.5 L 112.5 117.5 L 117.5 117.0 L 122.0 115.5 L 124.5 114.5 " stroke="black" fill="none" stroke-width="8.0" stroke-linecap="round" stroke-linejoin="round" />
<path d="M 107.0 135.5 L 105.5 136.5 L 105.0 137.0 L 105.0 137.0 L 108.0 137.0 L 113.0 137.0 L 117.5 136.0 L 121.0 135.0 L 123.5 134.5 " stroke="black" fill="none" stroke-width="8.0" stroke-linecap="round" stroke-linejoin="round" />
<path d="M 106.0 155.5 L 105.5 156.0 L 105.0 156.0 L 105.0 156.0 L 108.5 155.5 L 113.0 154.0 L 117.5 153.0 L 120.5 152.5 L 122.0 152.5 " stroke="black" fill="none" stroke-width="8.0" stroke-linecap="round" stroke-linejoin="round" />
<path d="M 105.5 178.0 L 105.5 178.0 L 104.5 178.0 L 104.0 178.0 L 104.0 178.5 L 105.0 182.5 L 106.0 188.5 L 107.0 193.5 L 107.5 195.0 " stroke="black" fill="none" stroke-width="8.0" stroke-linecap="round" stroke-linejoin="round" />
<path d="M 107.0 183.0 L 106.5 183.0 L 104.5 183.0 L 104.0 182.5 L 106.5 181.0 L 112.0 177.5 L 118.5 174.5 L 123.5 173.5 L 126.0 175.0 L 126.0 179.5 L 125.5 185.5 L 124.0 192.5 L 122.0 196.0 L 120.0 196.5 " stroke="black" fill="none" stroke-width="8.0" stroke-linecap="round" stroke-linejoin="round" />
<path d="M 108.5 202.0 L 108.5 203.0 L 108.0 203.5 L 110.0 203.5 L 114.5 202.5 L 120.5 199.0 L 121.5 198.0 " stroke="black" fill="none" stroke-width="8.0" stroke-linecap="round" stroke-linejoin="round" />
<path d="M 150.0 101.0 L 150.0 100.0 L 150.0 99.0 L 150.0 98.5 L 150.0 100.5 L 150.0 107.0 L 150.0 116.5 L 149.5 124.0 L 149.0 126.0 L 149.0 125.5 " stroke="black" fill="none" stroke-width="8.0" stroke-linecap="round" stroke-linejoin="round" />
<path d="M 152.5 101.0 L 152.0 101.0 L 151.0 101.0 L 151.0 100.5 L 151.0 100.0 L 154.5 99.0 L 159.5 97.5 L 165.5 95.5 L 171.0 95.0 L 174.0 95.5 L 174.5 98.5 L 173.0 103.5 L 170.5 110.5 L 169.0 118.0 L 169.0 123.0 L 172.0 125.5 L 177.0 126.0 L 183.0 125.0 L 187.0 122.5 L 188.0 120.0 L 188.0 119.0 " stroke="black" fill="none" stroke-width="8.0" stroke-linecap="round" stroke-linejoin="round" />
<path d="M 149.5 149.5 L 149.5 149.5 L 149.0 149.5 L 149.0 149.5 L 150.5 149.0 L 156.5 147.5 L 165.5 145.5 L 173.0 144.5 L 176.0 144.0 L 176.5 144.0 L 176.0 144.5 L 175.5 145.0 L 174.5 146.0 L 173.5 147.5 L 173.0 149.5 L 171.5 152.5 L 170.0 156.5 L 168.0 162.5 L 165.0 171.0 L 159.5 181.5 L 153.5 192.5 L 148.0 199.0 L 146.0 200.0 L 146.0 199.5 L 146.5 197.0 " stroke="black" fill="none" stroke-width="8.0" stroke-linecap="round" stroke-linejoin="round" />
<path d="M 149.5 165.0 L 148.0 164.5 L 147.5 164.0 L 148.5 165.0 L 154.0 170.0 L 163.5 179.0 L 175.5 191.0 L 186.5 197.0 L 194.0 199.0 L 199.0 199.5 L 199.5 199.5 " stroke="black" fill="none" stroke-width="8.0" stroke-linecap="round" stroke-linejoin="round" />
</svg>