<svg xmlns="http://www.w3.org/2000/svg" width="300" height="300" viewBox="0 0 300 300">
<path d="M 143.5 90.5 L 143.5 91.0 L 142.5 91.5 L 142.5 92.5 L 143.0 94.5 L 145.5 97.5 L 147.5 100.0 L 149.5 102.0 L 150.0 102.5 " stroke="black" fill="none" stroke-width="8.0" stroke-linecap="round" stroke-linejoin="round" />
<path d="M 128.5 112.5 L 128.5 112.5 L 128.0 113.0 L 128.0 113.5 L 131.0 113.5 L 138.5 113.5 L 150.5 113.0 L 163.0 112.5 L 172.0 111.5 L 176.0 111.5 L 175.5 112.0 L 173.5 113.0 " stroke="black" fill="none" stroke-width="8.0" stroke-linecap="round" stroke-linejoin="round" />
<path d="M 140.5 134.0 L 140.5 134.0 L 140.0 134.5 L 140.0 134.5 L 141.5 134.5 L 146.5 134.0 L 154.0 133.0 L 161.0 132.0 L 166.0 131.5 L 168.5 131.0 L 168.5 131.0 " stroke="black" fill="none" stroke-width="8.0" stroke-linecap="round" stroke-linejoin="round" />
<path d="M 139.0 154.0 L 139.0 154.0 L 138.5 154.5 L 138.5 155.0 L 139.0 155.0 L 142.5 154.5 L 149.5 153.0 L 158.0 152.0 L 165.5 151.0 L 170.0 151.0 L 171.0 151.0 " stroke="black" fill="none" stroke-width="8.0" stroke-linecap="round" stroke-linejoin="round" />
<path d="M 137.0 176.0 L 137.0 176.0 L 137.5 176.0 L 138.0 176.5 L 138.5 179.0 L 139.5 184.0 L 140.5 190.5 L 141.5 194.5 L 142.0 195.5 L 142.5 193.5 " stroke="black" fill="none" stroke-width="8.0" stroke-linecap="round" stroke-linejoin="round" />
<path d="M 144.0 173.5 L 143.0 174.0 L 141.5 174.5 L 141.5 174.5 L 143.5 174.5 L 149.0 172.5 L 156.5 170.5 L 166.0 169.5 L 174.5 169.5 L 178.0 171.0 L 178.5 173.5 L 177.0 177.0 L 175.0 181.0 L 173.0 186.5 L 172.0 191.5 L 171.5 194.5 L 171.0 197.0 L 171.0 197.5 " stroke="black" fill="none" stroke-width="8.0" stroke-linecap="round" stroke-linejoin="round" />
<path d="M 141.5 208.0 L 141.5 207.5 L 141.5 207.0 L 141.5 206.5 L 145.5 206.0 L 155.0 205.0 L 164.5 205.0 L 173.0 205.0 L 177.0 204.5 " stroke="black" fill="none" stroke-width="8.0" stroke-linecap="round" stroke-linejoin="round" />
</svg>