<svg xmlns="http://www.w3.org/2000/svg" width="300" height="300" viewBox="0 0 300 300">
<path d="M 123.0 109.0 L 123.0 109.0 L 122.5 109.0 L 122.0 109.0 L 122.0 109.0 L 122.0 109.0 L 123.0 110.5 L 125.0 113.5 L 127.0 115.5 L 129.0 117.0 L 129.0 117.0 " stroke="black" fill="none" stroke-width="7.0" stroke-linecap="round" stroke-linejoin="round" />
<path d="M 116.5 127.5 L 116.5 128.0 L 116.5 128.0 L 118.5 128.0 L 123.0 127.5 L 128.5 127.0 L 133.0 126.5 L 136.0 126.0 L 137.0 126.0 " stroke="black" fill="none" stroke-width="7.0" stroke-linecap="round" stroke-linejoin="round" />
<path d="M 120.5 141.0 L 120.0 141.0 L 119.5 141.0 L 119.5 141.0 L 120.5 141.0 L 123.0 140.5 L 126.5 140.0 L 130.0 139.5 L 133.0 139.0 L 135.0 139.0 " stroke="black" fill="none" stroke-width="7.0" stroke-linecap="round" stroke-linejoin="round" />
<path d="M 121.0 156.0 L 120.0 156.5 L 119.0 156.5 L 118.5 156.5 L 119.0 156.5 L 121.5 156.0 L 125.0 156.0 L 129.0 155.5 L 132.0 155.5 L 135.0 155.5 L 136.0 154.5 " stroke="black" fill="none" stroke-width="7.0" stroke-linecap="round" stroke-linejoin="round" />
<path d="M 119.5 172.5 L 119.0 172.0 L 119.0 171.0 L 118.5 170.0 L 118.0 169.5 L 118.0 169.5 L 118.5 171.0 L 119.5 176.5 L 120.5 183.0 L 121.0 187.0 L 121.0 188.0 L 121.0 188.0 " stroke="black" fill="none" stroke-width="7.0" stroke-linecap="round" stroke-linejoin="round" />
<path d="M 122.0 169.5 L 121.5 169.5 L 120.5 169.5 L 120.0 169.5 L 120.5 169.5 L 123.0 169.0 L 126.5 168.5 L 131.0 168.0 L 135.0 167.5 L 139.0 167.0 L 140.5 166.5 L 140.5 166.5 L 140.5 166.5 L 140.0 166.5 L 139.5 167.0 L 139.5 167.5 L 139.0 168.5 L 138.5 169.5 L 138.0 172.0 L 138.0 175.5 L 138.0 179.0 L 138.0 181.5 L 138.0 182.5 L 138.0 182.5 " stroke="black" fill="none" stroke-width="7.0" stroke-linecap="round" stroke-linejoin="round" />
<path d="M 125.0 189.5 L 124.5 189.5 L 123.5 189.5 L 124.0 189.5 L 126.5 189.5 L 130.5 189.5 L 135.0 189.0 L 136.5 188.0 " stroke="black" fill="none" stroke-width="7.0" stroke-linecap="round" stroke-linejoin="round" />
<path d="M 157.5 112.5 L 157.5 112.5 L 157.5 113.0 L 158.0 113.0 L 158.5 113.0 L 158.5 113.5 L 158.5 114.0 L 158.5 115.0 L 157.0 117.5 L 154.0 122.0 L 150.0 128.5 L 147.0 133.0 L 146.0 134.5 L 145.5 134.5 L 146.0 133.5 " stroke="black" fill="none" stroke-width="7.0" stroke-linecap="round" stroke-linejoin="round" />
<path d="M 154.0 127.0 L 154.5 126.5 L 154.5 126.0 L 155.0 125.5 L 155.0 126.5 L 155.5 129.0 L 156.0 134.0 L 156.0 141.5 L 156.0 150.5 L 156.0 159.0 L 156.0 166.0 L 156.0 170.5 L 156.0 174.0 L 156.0 177.0 L 155.5 178.5 L 155.5 179.0 L 155.5 179.0 L 155.5 179.5 L 155.5 180.5 L 155.5 181.0 L 156.0 181.5 L 156.0 181.5 L 156.0 181.5 L 156.0 181.5 L 156.0 181.5 L 156.0 180.0 " stroke="black" fill="none" stroke-width="7.0" stroke-linecap="round" stroke-linejoin="round" />
<path d="M 171.5 109.5 L 171.0 109.5 L 170.5 109.5 L 170.0 109.5 L 170.0 110.0 L 171.0 111.5 L 172.0 114.5 L 173.5 118.0 L 174.5 120.0 L 174.5 120.5 " stroke="black" fill="none" stroke-width="7.0" stroke-linecap="round" stroke-linejoin="round" />
<path d="M 165.5 130.0 L 164.5 130.0 L 164.0 130.0 L 164.0 129.5 L 166.0 128.5 L 169.5 127.5 L 173.5 127.0 L 178.0 126.5 L 181.5 125.5 L 183.5 125.0 L 184.0 124.5 L 184.0 124.5 L 184.0 124.5 " stroke="black" fill="none" stroke-width="7.0" stroke-linecap="round" stroke-linejoin="round" />
<path d="M 168.0 145.5 L 167.5 145.0 L 167.0 145.0 L 167.0 144.5 L 167.0 144.0 L 167.5 143.5 L 169.5 143.0 L 173.0 143.0 L 176.5 143.0 L 180.0 143.0 L 182.0 143.0 L 183.0 142.5 L 183.5 142.5 " stroke="black" fill="none" stroke-width="7.0" stroke-linecap="round" stroke-linejoin="round" />
<path d="M 167.5 157.5 L 167.0 158.5 L 166.0 159.0 L 166.0 159.0 L 166.5 159.0 L 169.0 159.0 L 172.5 158.5 L 176.0 157.5 L 179.0 156.5 L 182.0 155.5 L 182.5 155.0 " stroke="black" fill="none" stroke-width="7.0" stroke-linecap="round" stroke-linejoin="round" />
<path d="M 174.5 125.0 L 174.5 126.0 L 174.5 127.0 L 174.5 128.5 L 174.5 131.5 L 175.0 137.0 L 175.0 144.5 L 175.0 152.5 L 175.0 159.0 L 175.0 164.5 L 175.0 168.5 L 175.0 170.0 L 175.0 170.0 L 174.5 170.0 L 174.5 170.0 " stroke="black" fill="none" stroke-width="7.0" stroke-linecap="round" stroke-linejoin="round" />
<path d="M 167.0 176.0 L 166.5 176.0 L 166.5 175.5 L 167.0 175.0 L 169.5 174.5 L 174.0 174.0 L 180.0 173.5 L 185.5 173.5 L 190.0 173.5 L 192.5 174.0 L 193.0 174.0 " stroke="black" fill="none" stroke-width="7.0" stroke-linecap="round" stroke-linejoin="round" />
</svg>