<svg xmlns="http://www.w3.org/2000/svg" width="300" height="300" viewBox="0 0 300 300">
<path d="M 113.8888888888889 107.22222222222223 L 113.8888888888889 107.22222222222223 L 113.33333333333333 107.22222222222223 L 113.33333333333333 107.77777777777779 L 113.8888888888889 108.88888888888889 L 117.22222222222221 111.11111111111111 L 119.44444444444444 112.77777777777779 L 121.66666666666667 114.44444444444444 L 122.22222222222221 114.44444444444444 " stroke="black" fill="none" stroke-width="7.0" stroke-linecap="round" stroke-linejoin="round" />
<path d="M 110.55555555555556 128.8888888888889 L 110.0 129.44444444444446 L 109.44444444444444 130.00000000000003 L 110.0 130.00000000000003 L 113.33333333333333 130.00000000000003 L 117.22222222222221 129.44444444444446 L 121.1111111111111 128.8888888888889 L 124.44444444444444 128.33333333333334 L 125.00000000000001 128.33333333333334 " stroke="black" fill="none" stroke-width="7.0" stroke-linecap="round" stroke-linejoin="round" />
<path d="M 115.00000000000001 145.55555555555557 L 114.44444444444444 145.55555555555557 L 113.33333333333333 145.55555555555557 L 113.33333333333333 145.55555555555557 L 114.44444444444444 145.00000000000003 L 117.22222222222221 145.00000000000003 L 119.44444444444444 145.00000000000003 L 121.66666666666667 145.00000000000003 " stroke="black" fill="none" stroke-width="7.0" stroke-linecap="round" stroke-linejoin="round" />
<path d="M 112.22222222222221 160.55555555555557 L 112.22222222222221 160.55555555555557 L 111.66666666666667 160.55555555555557 L 111.66666666666667 160.55555555555557 L 113.33333333333333 160.55555555555557 L 115.55555555555556 160.55555555555557 L 118.33333333333333 160.55555555555557 L 119.44444444444444 160.00000000000003 " stroke="black" fill="none" stroke-width="7.0" stroke-linecap="round" stroke-linejoin="round" />
<path d="M 111.66666666666667 176.66666666666669 L 111.66666666666667 176.66666666666669 L 111.66666666666667 176.66666666666669 L 111.11111111111111 176.66666666666669 L 111.11111111111111 177.22222222222223 L 111.11111111111111 181.11111111111114 L 112.22222222222221 186.66666666666669 L 113.33333333333333 190.55555555555557 " stroke="black" fill="none" stroke-width="7.0" stroke-linecap="round" stroke-linejoin="round" />
<path d="M 112.22222222222221 180.55555555555557 L 112.22222222222221 180.55555555555557 L 111.11111111111111 180.00000000000003 L 110.55555555555556 179.44444444444446 L 111.11111111111111 178.8888888888889 L 113.33333333333333 177.22222222222223 L 116.66666666666667 176.11111111111114 L 120.55555555555556 175.55555555555557 L 123.8888888888889 175.55555555555557 L 126.66666666666667 177.22222222222223 L 128.8888888888889 180.55555555555557 L 129.44444444444446 185.00000000000003 L 129.44444444444446 188.33333333333334 L 127.77777777777779 190.55555555555557 L 126.66666666666667 191.11111111111114 " stroke="black" fill="none" stroke-width="7.0" stroke-linecap="round" stroke-linejoin="round" />
<path d="M 116.1111111111111 196.66666666666669 L 115.00000000000001 196.66666666666669 L 113.8888888888889 196.66666666666669 L 113.8888888888889 196.66666666666669 L 116.66666666666667 196.11111111111114 L 120.00000000000001 195.00000000000003 L 123.8888888888889 193.8888888888889 L 124.44444444444444 193.8888888888889 " stroke="black" fill="none" stroke-width="7.0" stroke-linecap="round" stroke-linejoin="round" />
<path d="M 155.00000000000003 107.77777777777779 L 155.00000000000003 107.77777777777779 L 155.00000000000003 107.77777777777779 L 155.55555555555557 107.77777777777779 L 155.55555555555557 107.77777777777779 L 155.55555555555557 107.77777777777779 L 155.55555555555557 109.44444444444444 L 152.22222222222223 115.00000000000001 L 143.8888888888889 126.1111111111111 L 143.8888888888889 126.66666666666667 " stroke="black" fill="none" stroke-width="7.0" stroke-linecap="round" stroke-linejoin="round" />
<path d="M 167.22222222222223 113.33333333333333 L 166.11111111111114 113.33333333333333 L 165.55555555555557 113.33333333333333 L 167.22222222222223 113.33333333333333 L 170.00000000000003 115.00000000000001 L 172.7777777777778 118.33333333333333 L 176.11111111111114 120.55555555555556 L 177.7777777777778 122.22222222222221 L 178.33333333333334 122.77777777777779 " stroke="black" fill="none" stroke-width="7.0" stroke-linecap="round" stroke-linejoin="round" />
<path d="M 148.33333333333334 135.55555555555557 L 147.22222222222223 135.55555555555557 L 146.66666666666669 135.55555555555557 L 146.11111111111111 136.11111111111111 L 146.66666666666669 138.8888888888889 L 148.33333333333334 143.8888888888889 L 149.44444444444446 147.7777777777778 L 150.55555555555557 149.44444444444446 L 150.55555555555557 149.44444444444446 " stroke="black" fill="none" stroke-width="7.0" stroke-linecap="round" stroke-linejoin="round" />
<path d="M 151.66666666666669 136.11111111111111 L 150.00000000000003 136.66666666666669 L 149.44444444444446 136.66666666666669 L 150.00000000000003 136.66666666666669 L 153.33333333333334 135.55555555555557 L 157.22222222222223 134.44444444444446 L 161.66666666666669 132.7777777777778 L 165.55555555555557 131.66666666666669 L 169.44444444444446 131.66666666666669 L 172.7777777777778 131.66666666666669 L 173.8888888888889 132.22222222222223 L 174.44444444444446 135.55555555555557 L 173.8888888888889 140.55555555555557 L 172.22222222222223 146.11111111111111 L 171.66666666666669 150.55555555555557 L 171.11111111111114 151.66666666666669 " stroke="black" fill="none" stroke-width="7.0" stroke-linecap="round" stroke-linejoin="round" />
<path d="M 156.66666666666669 155.55555555555557 L 156.11111111111111 155.55555555555557 L 155.55555555555557 156.11111111111111 L 155.55555555555557 156.11111111111111 L 157.7777777777778 155.55555555555557 L 162.22222222222223 154.44444444444446 L 166.11111111111114 153.8888888888889 L 167.7777777777778 153.8888888888889 " stroke="black" fill="none" stroke-width="7.0" stroke-linecap="round" stroke-linejoin="round" />
<path d="M 154.44444444444446 158.8888888888889 L 154.44444444444446 158.8888888888889 L 155.00000000000003 159.44444444444446 L 155.55555555555557 160.00000000000003 L 155.55555555555557 161.66666666666669 L 153.33333333333334 167.7777777777778 L 150.00000000000003 176.66666666666669 L 146.66666666666669 183.33333333333334 L 145.00000000000003 185.00000000000003 L 145.00000000000003 185.00000000000003 " stroke="black" fill="none" stroke-width="7.0" stroke-linecap="round" stroke-linejoin="round" />
<path d="M 167.7777777777778 160.00000000000003 L 167.7777777777778 159.44444444444446 L 167.7777777777778 158.8888888888889 L 167.7777777777778 158.8888888888889 L 168.33333333333334 159.44444444444446 L 168.33333333333334 163.33333333333334 L 168.33333333333334 169.44444444444446 L 168.8888888888889 177.22222222222223 L 171.11111111111114 184.44444444444446 L 176.11111111111114 187.7777777777778 L 182.7777777777778 187.22222222222223 L 190.55555555555557 182.7777777777778 L 194.44444444444446 178.8888888888889 L 195.55555555555557 177.22222222222223 L 195.55555555555557 176.66666666666669 L 194.44444444444446 176.66666666666669 L 193.33333333333334 176.66666666666669 L 192.22222222222223 176.11111111111114 L 191.66666666666669 175.55555555555557 L 191.11111111111114 175.00000000000003 L 191.11111111111114 174.44444444444446 " stroke="black" fill="none" stroke-width="7.0" stroke-linecap="round" stroke-linejoin="round" />
</svg>