<svg xmlns="http://www.w3.org/2000/svg" width="300" height="300" viewBox="0 0 300 300">
<path d="M 121.0 112.5 L 119.0 113.5 L 119.0 114.0 L 120.0 116.0 L 122.5 118.5 L 125.0 121.0 L 126.5 122.0 L 127.5 122.5 " stroke="black" fill="none" stroke-width="7.0" stroke-linecap="round" stroke-linejoin="round" />
<path d="M 115.0 131.5 L 115.0 132.0 L 115.5 132.5 L 117.0 132.5 L 120.0 131.5 L 124.0 130.5 L 128.0 130.0 L 130.5 129.0 L 130.5 129.0 " stroke="black" fill="none" stroke-width="7.0" stroke-linecap="round" stroke-linejoin="round" />
<path d="M 118.0 144.0 L 117.5 144.0 L 117.5 144.0 L 119.0 144.0 L 123.0 143.5 L 126.5 142.5 L 130.0 142.0 L 130.5 141.5 " stroke="black" fill="none" stroke-width="7.0" stroke-linecap="round" stroke-linejoin="round" />
<path d="M 117.0 159.5 L 117.0 160.0 L 117.0 160.5 L 117.5 160.5 L 120.0 159.5 L 123.5 157.5 L 127.0 156.0 L 128.5 155.0 " stroke="black" fill="none" stroke-width="7.0" stroke-linecap="round" stroke-linejoin="round" />
<path d="M 114.0 175.0 L 114.0 175.0 L 114.0 176.0 L 114.0 177.0 L 114.5 180.0 L 114.5 187.0 L 115.0 192.5 L 115.0 193.5 " stroke="black" fill="none" stroke-width="7.0" stroke-linecap="round" stroke-linejoin="round" />
<path d="M 116.5 179.0 L 116.5 179.0 L 115.5 179.5 L 115.0 179.0 L 116.5 177.5 L 119.5 175.5 L 123.5 173.0 L 127.0 171.5 L 130.0 171.5 L 132.0 172.5 L 132.5 175.0 L 132.5 179.0 L 132.5 183.5 L 131.5 187.0 L 131.5 188.0 " stroke="black" fill="none" stroke-width="7.0" stroke-linecap="round" stroke-linejoin="round" />
<path d="M 119.0 196.0 L 119.0 196.5 L 118.5 197.0 L 119.5 197.0 L 122.5 195.5 L 124.0 194.0 " stroke="black" fill="none" stroke-width="7.0" stroke-linecap="round" stroke-linejoin="round" />
<path d="M 148.0 110.5 L 148.0 110.5 L 148.0 111.0 L 148.5 112.0 L 152.0 114.0 L 156.5 115.0 L 160.5 115.5 L 161.5 115.5 " stroke="black" fill="none" stroke-width="7.0" stroke-linecap="round" stroke-linejoin="round" />
<path d="M 175.0 108.5 L 175.0 108.5 L 175.0 108.5 L 175.0 109.5 L 174.0 110.5 L 173.0 113.0 L 172.0 115.0 L 171.5 116.0 " stroke="black" fill="none" stroke-width="7.0" stroke-linecap="round" stroke-linejoin="round" />
<path d="M 146.5 126.5 L 146.5 126.5 L 145.5 126.5 L 145.0 126.5 L 145.0 126.5 L 145.5 126.0 L 148.0 126.0 L 154.0 125.5 L 163.0 125.0 L 172.5 124.0 L 179.5 123.0 L 183.5 122.5 L 184.0 122.5 L 183.5 122.5 L 183.0 122.5 L 182.5 122.5 L 182.0 122.5 " stroke="black" fill="none" stroke-width="7.0" stroke-linecap="round" stroke-linejoin="round" />
<path d="M 144.5 141.5 L 143.5 141.5 L 143.0 141.5 L 143.0 141.5 L 143.5 141.5 L 144.5 141.5 L 145.5 141.5 L 146.5 141.5 L 147.5 141.5 L 149.5 141.0 L 153.0 140.5 L 158.0 140.0 L 163.5 139.5 L 168.0 139.0 L 171.0 139.0 L 172.5 139.0 L 173.5 139.0 L 174.0 139.0 L 175.0 138.5 L 176.5 138.5 L 178.0 138.0 L 179.0 138.0 L 180.0 138.0 L 180.5 138.0 L 180.5 138.0 L 180.5 138.0 L 180.5 138.0 L 180.5 138.0 L 180.5 138.0 L 180.0 138.0 L 180.0 138.0 L 180.0 138.0 L 179.5 138.5 L 179.5 139.0 L 179.0 139.5 L 179.0 140.5 L 178.5 142.0 L 178.0 143.5 L 178.0 145.5 L 177.5 148.0 L 176.5 151.0 L 176.0 153.5 L 175.0 156.0 L 174.5 157.5 L 174.5 159.0 L 174.0 160.0 L 174.0 161.0 L 174.0 161.5 L 173.5 162.0 L 173.5 161.5 " stroke="black" fill="none" stroke-width="7.0" stroke-linecap="round" stroke-linejoin="round" />
<path d="M 146.5 155.0 L 146.0 155.0 L 145.0 155.0 L 145.0 155.0 L 145.0 155.0 L 147.0 154.5 L 150.0 153.5 L 156.5 152.5 L 165.5 150.5 L 174.0 149.5 L 179.0 149.0 L 180.5 149.5 L 180.5 150.0 L 179.5 150.0 L 179.5 150.0 L 179.5 150.0 L 179.5 150.0 " stroke="black" fill="none" stroke-width="7.0" stroke-linecap="round" stroke-linejoin="round" />
<path d="M 138.5 169.5 L 139.0 169.5 L 139.5 169.0 L 140.0 168.5 L 141.0 168.0 L 142.5 167.5 L 145.5 167.0 L 153.0 165.5 L 163.0 164.5 L 172.5 163.5 L 178.5 163.0 L 181.0 162.5 L 181.5 162.5 L 181.0 162.5 L 180.0 162.5 " stroke="black" fill="none" stroke-width="7.0" stroke-linecap="round" stroke-linejoin="round" />
<path d="M 156.5 128.0 L 156.5 128.0 L 157.0 128.0 L 157.0 128.0 L 157.5 130.0 L 158.0 136.0 L 158.0 147.5 L 156.5 162.5 L 154.5 175.0 L 154.0 184.5 L 154.0 191.0 L 154.5 194.5 L 155.5 195.0 L 155.5 192.5 " stroke="black" fill="none" stroke-width="7.0" stroke-linecap="round" stroke-linejoin="round" />
<path d="M 166.0 129.0 L 166.0 129.0 L 166.0 129.0 L 166.0 129.0 L 166.0 129.0 L 166.5 129.0 L 166.5 129.0 L 166.5 129.5 L 166.5 131.0 L 166.5 133.0 L 166.5 136.5 L 166.5 140.0 L 166.0 143.0 L 166.0 146.0 L 165.5 148.0 L 165.5 149.5 L 165.5 151.5 L 165.5 153.0 L 165.5 155.0 L 165.5 156.5 L 165.5 158.0 L 165.5 159.5 L 165.5 161.0 L 165.5 162.5 L 165.5 163.5 L 165.5 165.0 L 165.5 166.5 L 165.5 168.0 L 166.0 169.5 L 166.0 171.5 L 166.0 173.0 L 166.0 174.5 L 166.0 176.5 L 166.0 177.5 L 166.0 179.0 L 166.0 180.5 L 166.0 181.5 L 166.0 183.0 L 166.0 184.5 L 166.5 186.0 L 166.5 187.0 L 166.5 188.0 L 166.5 189.0 L 166.5 190.0 L 166.5 190.5 L 166.5 191.0 L 166.5 191.0 L 166.5 191.5 L 166.5 192.0 L 166.5 192.5 L 166.5 193.0 L 167.0 193.5 L 167.0 194.0 L 167.0 194.0 L 167.0 194.5 L 167.0 194.5 " stroke="black" fill="none" stroke-width="7.0" stroke-linecap="round" stroke-linejoin="round" />
<path d="M 146.5 174.0 L 146.5 174.5 L 146.0 175.5 L 145.5 176.5 L 145.0 178.0 L 144.0 181.5 L 142.5 186.0 L 141.0 189.0 L 140.0 189.5 " stroke="black" fill="none" stroke-width="7.0" stroke-linecap="round" stroke-linejoin="round" />
<path d="M 172.5 175.0 L 172.5 176.0 L 172.5 177.0 L 174.5 178.0 L 178.0 180.5 L 181.5 182.5 L 183.5 184.0 L 184.5 184.5 " stroke="black" fill="none" stroke-width="7.0" stroke-linecap="round" stroke-linejoin="round" />
</svg>