<svg xmlns="http://www.w3.org/2000/svg" width="300" height="300" viewBox="0 0 300 300">
<path d="M 142.7777777777778 97.22222222222223 L 141.66666666666669 97.22222222222223 L 141.11111111111111 97.77777777777777 L 141.11111111111111 98.88888888888889 L 141.66666666666669 101.11111111111111 L 142.7777777777778 103.33333333333333 L 143.33333333333334 104.44444444444444 " stroke="black" fill="none" stroke-width="7.0" stroke-linecap="round" stroke-linejoin="round" />
<path d="M 122.22222222222221 108.88888888888889 L 121.66666666666667 110.0 L 121.1111111111111 110.55555555555556 L 122.77777777777779 110.55555555555556 L 126.66666666666667 110.55555555555556 L 130.55555555555557 111.11111111111111 L 131.11111111111111 111.11111111111111 " stroke="black" fill="none" stroke-width="7.0" stroke-linecap="round" stroke-linejoin="round" />
<path d="M 170.00000000000003 100.0 L 170.00000000000003 100.0 L 169.44444444444446 100.0 L 168.8888888888889 100.0 L 168.33333333333334 100.55555555555556 L 167.22222222222223 102.77777777777777 L 166.11111111111114 105.55555555555556 L 165.00000000000003 107.77777777777779 " stroke="black" fill="none" stroke-width="7.0" stroke-linecap="round" stroke-linejoin="round" />
<path d="M 126.1111111111111 121.1111111111111 L 125.00000000000001 121.1111111111111 L 123.8888888888889 122.22222222222221 L 123.33333333333333 123.8888888888889 L 122.77777777777779 127.77777777777779 L 122.77777777777779 131.66666666666669 L 122.77777777777779 133.8888888888889 " stroke="black" fill="none" stroke-width="7.0" stroke-linecap="round" stroke-linejoin="round" />
<path d="M 123.33333333333333 123.8888888888889 L 123.33333333333333 123.8888888888889 L 123.33333333333333 123.8888888888889 L 122.77777777777779 123.8888888888889 L 122.77777777777779 123.8888888888889 L 124.44444444444444 123.8888888888889 L 128.33333333333334 122.22222222222221 L 135.00000000000003 120.55555555555556 L 145.00000000000003 118.8888888888889 L 155.55555555555557 117.77777777777779 L 165.00000000000003 117.22222222222221 L 171.66666666666669 117.22222222222221 L 175.00000000000003 117.22222222222221 L 176.11111111111114 117.77777777777779 L 176.11111111111114 117.77777777777779 L 176.11111111111114 117.77777777777779 L 176.11111111111114 117.77777777777779 L 176.11111111111114 117.77777777777779 L 176.66666666666669 117.77777777777779 L 176.66666666666669 117.77777777777779 L 176.66666666666669 117.77777777777779 L 176.66666666666669 117.77777777777779 L 176.66666666666669 117.77777777777779 L 176.66666666666669 117.77777777777779 L 177.22222222222223 117.77777777777779 L 177.22222222222223 117.77777777777779 L 177.22222222222223 117.77777777777779 L 177.22222222222223 117.77777777777779 L 177.22222222222223 117.77777777777779 L 177.22222222222223 117.77777777777779 L 177.22222222222223 117.77777777777779 L 177.22222222222223 117.77777777777779 L 177.22222222222223 117.77777777777779 L 177.22222222222223 117.77777777777779 L 177.22222222222223 118.33333333333333 L 176.66666666666669 120.55555555555556 L 176.11111111111114 124.44444444444444 L 175.00000000000003 128.33333333333334 L 174.44444444444446 130.55555555555557 L 174.44444444444446 130.55555555555557 " stroke="black" fill="none" stroke-width="7.0" stroke-linecap="round" stroke-linejoin="round" />
<path d="M 136.66666666666669 132.22222222222223 L 137.22222222222223 131.66666666666669 L 137.22222222222223 131.66666666666669 L 137.22222222222223 131.66666666666669 L 137.22222222222223 133.33333333333334 L 137.22222222222223 138.33333333333334 L 136.66666666666669 143.8888888888889 L 137.22222222222223 145.55555555555557 L 137.22222222222223 145.55555555555557 " stroke="black" fill="none" stroke-width="7.0" stroke-linecap="round" stroke-linejoin="round" />
<path d="M 136.66666666666669 132.7777777777778 L 136.66666666666669 133.33333333333334 L 136.11111111111111 134.44444444444446 L 136.11111111111111 134.44444444444446 L 136.11111111111111 134.44444444444446 L 138.33333333333334 134.44444444444446 L 141.11111111111111 133.33333333333334 L 144.44444444444446 132.22222222222223 L 147.22222222222223 131.11111111111111 L 150.00000000000003 130.55555555555557 L 152.22222222222223 130.00000000000003 L 153.33333333333334 130.00000000000003 L 153.8888888888889 130.55555555555557 L 154.44444444444446 132.22222222222223 L 154.44444444444446 133.8888888888889 L 154.44444444444446 136.66666666666669 L 153.8888888888889 139.44444444444446 L 153.33333333333334 141.66666666666669 L 152.7777777777778 142.7777777777778 L 152.7777777777778 142.7777777777778 " stroke="black" fill="none" stroke-width="7.0" stroke-linecap="round" stroke-linejoin="round" />
<path d="M 137.7777777777778 149.44444444444446 L 137.7777777777778 150.00000000000003 L 137.22222222222223 150.55555555555557 L 138.33333333333334 150.55555555555557 L 141.66666666666669 150.55555555555557 L 146.66666666666669 150.00000000000003 L 150.55555555555557 148.33333333333334 L 151.66666666666669 147.7777777777778 " stroke="black" fill="none" stroke-width="7.0" stroke-linecap="round" stroke-linejoin="round" />
<path d="M 131.11111111111111 160.55555555555557 L 131.11111111111111 160.55555555555557 L 131.11111111111111 161.11111111111111 L 131.66666666666669 162.22222222222223 L 132.22222222222223 166.11111111111114 L 132.7777777777778 172.22222222222223 L 132.7777777777778 178.8888888888889 L 132.7777777777778 182.7777777777778 L 132.22222222222223 183.8888888888889 " stroke="black" fill="none" stroke-width="7.0" stroke-linecap="round" stroke-linejoin="round" />
<path d="M 133.33333333333334 156.66666666666669 L 133.33333333333334 156.66666666666669 L 132.7777777777778 157.7777777777778 L 132.7777777777778 157.7777777777778 L 132.7777777777778 158.33333333333334 L 134.44444444444446 158.33333333333334 L 137.22222222222223 158.33333333333334 L 140.55555555555557 157.7777777777778 L 146.11111111111111 157.22222222222223 L 153.33333333333334 156.11111111111111 L 160.55555555555557 154.44444444444446 L 165.00000000000003 154.44444444444446 L 166.11111111111114 154.44444444444446 L 166.11111111111114 154.44444444444446 L 165.55555555555557 155.00000000000003 L 165.55555555555557 155.00000000000003 L 165.55555555555557 155.00000000000003 L 165.55555555555557 155.00000000000003 L 166.11111111111114 155.00000000000003 L 166.11111111111114 155.00000000000003 L 166.11111111111114 155.00000000000003 L 166.11111111111114 155.00000000000003 L 166.11111111111114 155.00000000000003 L 166.11111111111114 155.00000000000003 L 166.11111111111114 155.00000000000003 L 166.11111111111114 155.00000000000003 L 166.11111111111114 156.11111111111111 L 166.11111111111114 157.7777777777778 L 165.55555555555557 161.66666666666669 L 165.00000000000003 168.33333333333334 L 165.00000000000003 176.66666666666669 L 164.44444444444446 182.7777777777778 L 164.44444444444446 186.11111111111114 L 164.44444444444446 187.22222222222223 L 164.44444444444446 187.22222222222223 L 164.44444444444446 186.11111111111114 L 163.8888888888889 185.55555555555557 " stroke="black" fill="none" stroke-width="7.0" stroke-linecap="round" stroke-linejoin="round" />
<path d="M 132.7777777777778 171.11111111111114 L 132.7777777777778 171.11111111111114 L 132.7777777777778 171.11111111111114 L 133.8888888888889 171.11111111111114 L 135.55555555555557 170.55555555555557 L 140.55555555555557 169.44444444444446 L 147.7777777777778 168.33333333333334 L 154.44444444444446 167.7777777777778 L 157.7777777777778 167.7777777777778 " stroke="black" fill="none" stroke-width="7.0" stroke-linecap="round" stroke-linejoin="round" />
<path d="M 136.11111111111111 179.44444444444446 L 136.11111111111111 179.44444444444446 L 136.11111111111111 180.55555555555557 L 136.11111111111111 181.11111111111114 L 138.33333333333334 181.11111111111114 L 142.22222222222223 180.00000000000003 L 147.22222222222223 178.8888888888889 L 152.22222222222223 177.7777777777778 L 154.44444444444446 177.22222222222223 " stroke="black" fill="none" stroke-width="7.0" stroke-linecap="round" stroke-linejoin="round" />
<path d="M 128.8888888888889 193.33333333333334 L 128.8888888888889 193.33333333333334 L 129.44444444444446 193.33333333333334 L 129.44444444444446 193.33333333333334 L 130.55555555555557 193.33333333333334 L 134.44444444444446 193.33333333333334 L 141.66666666666669 192.22222222222223 L 150.00000000000003 191.11111111111114 L 157.7777777777778 190.55555555555557 L 161.11111111111111 190.55555555555557 " stroke="black" fill="none" stroke-width="7.0" stroke-linecap="round" stroke-linejoin="round" />
<path d="M 142.7777777777778 201.66666666666669 L 142.7777777777778 201.66666666666669 L 142.22222222222223 201.66666666666669 L 142.22222222222223 201.66666666666669 L 141.66666666666669 202.22222222222223 L 140.00000000000003 203.8888888888889 L 136.66666666666669 207.7777777777778 L 132.7777777777778 211.66666666666669 L 130.55555555555557 212.7777777777778 L 130.55555555555557 212.7777777777778 " stroke="black" fill="none" stroke-width="7.0" stroke-linecap="round" stroke-linejoin="round" />
<path d="M 157.22222222222223 201.66666666666669 L 157.22222222222223 201.66666666666669 L 158.8888888888889 202.22222222222223 L 162.22222222222223 202.22222222222223 L 169.44444444444446 204.44444444444446 L 178.33333333333334 208.33333333333334 L 184.44444444444446 211.66666666666669 " stroke="black" fill="none" stroke-width="7.0" stroke-linecap="round" stroke-linejoin="round" />
</svg>