<svg xmlns="http://www.w3.org/2000/svg" width="300" height="300" viewBox="0 0 300 300">
<path d="M 124.5 117.0 L 124.0 116.5 L 124.0 116.0 L 123.5 116.0 L 123.5 116.0 L 123.5 117.5 L 124.0 124.0 L 125.0 135.0 L 125.0 147.0 L 124.5 155.0 L 124.5 157.0 L 124.5 157.0 L 124.5 155.5 L 124.5 151.5 L 124.5 150.5 " stroke="black" fill="none" stroke-width="6.0" stroke-linecap="round" stroke-linejoin="round" />
<path d="M 126.5 115.5 L 126.0 115.5 L 125.5 115.0 L 125.0 115.0 L 124.5 115.0 L 124.5 115.0 L 125.5 115.0 L 128.0 115.0 L 130.5 115.0 L 133.0 115.0 L 135.0 115.0 L 136.5 115.0 L 137.5 115.0 L 138.0 115.0 L 138.0 115.5 L 138.0 116.0 L 138.0 117.0 L 138.0 119.0 L 138.0 122.5 L 138.0 127.5 L 137.5 134.5 L 137.5 142.0 L 137.0 149.5 L 137.0 156.0 L 137.0 160.5 L 137.0 162.5 L 137.5 163.5 L 137.5 164.0 L 137.5 162.5 L 137.0 161.0 " stroke="black" fill="none" stroke-width="6.0" stroke-linecap="round" stroke-linejoin="round" />
<path d="M 130.5 134.0 L 130.0 134.0 L 129.0 134.0 L 129.0 134.0 L 129.5 134.0 L 131.0 133.5 L 133.5 133.0 L 135.5 132.5 L 138.0 132.5 L 139.5 132.5 " stroke="black" fill="none" stroke-width="6.0" stroke-linecap="round" stroke-linejoin="round" />
<path d="M 130.0 146.5 L 130.0 148.0 L 129.5 149.0 L 130.0 149.0 L 131.5 148.5 L 133.0 148.0 L 135.0 147.0 L 136.5 146.5 L 137.5 146.5 " stroke="black" fill="none" stroke-width="6.0" stroke-linecap="round" stroke-linejoin="round" />
<path d="M 125.0 163.0 L 125.0 163.5 L 124.5 164.0 L 124.5 164.5 L 125.5 165.0 L 128.0 165.0 L 131.0 165.0 L 134.0 164.5 L 137.0 164.0 L 138.0 163.5 " stroke="black" fill="none" stroke-width="6.0" stroke-linecap="round" stroke-linejoin="round" />
<path d="M 127.5 176.0 L 127.5 176.0 L 127.5 175.0 L 127.0 175.0 L 126.5 176.0 L 125.0 179.0 L 124.0 181.5 L 122.5 183.5 L 121.5 185.0 L 121.5 185.5 " stroke="black" fill="none" stroke-width="6.0" stroke-linecap="round" stroke-linejoin="round" />
<path d="M 136.5 177.0 L 137.0 176.5 L 138.0 176.5 L 139.5 176.5 L 141.5 178.5 L 144.0 180.0 L 146.0 180.5 L 147.5 180.5 " stroke="black" fill="none" stroke-width="6.0" stroke-linecap="round" stroke-linejoin="round" />
<path d="M 151.5 117.0 L 152.0 117.5 L 152.0 118.0 L 152.5 118.0 L 153.5 118.0 L 156.0 118.0 L 159.5 117.5 L 163.0 117.5 L 165.5 117.5 L 167.5 117.0 " stroke="black" fill="none" stroke-width="6.0" stroke-linecap="round" stroke-linejoin="round" />
<path d="M 150.5 126.5 L 150.5 126.5 L 150.5 127.0 L 150.5 127.0 L 150.5 127.5 L 150.5 127.5 L 151.0 128.0 L 152.0 128.0 L 154.5 128.5 L 158.5 129.0 L 164.5 129.5 L 171.0 129.5 L 177.0 129.5 L 181.0 129.5 L 183.0 129.5 L 184.5 129.5 L 185.5 129.5 L 186.0 129.5 L 186.5 129.5 L 186.5 129.5 L 187.0 129.5 L 187.0 129.5 L 187.5 129.5 L 188.0 129.5 L 188.5 130.0 L 189.0 130.0 L 189.5 130.0 L 189.5 130.0 L 190.0 130.0 L 190.0 130.0 L 190.0 130.0 L 190.0 130.0 " stroke="black" fill="none" stroke-width="6.0" stroke-linecap="round" stroke-linejoin="round" />
<path d="M 179.0 108.0 L 179.0 108.0 L 179.0 107.5 L 179.0 107.0 L 178.5 107.0 L 178.5 108.0 L 178.5 110.0 L 178.5 113.5 L 178.0 118.0 L 178.0 125.0 L 178.0 133.0 L 178.5 140.5 L 179.5 147.5 L 181.5 155.5 L 184.5 164.0 L 187.5 171.5 L 191.5 177.0 L 195.0 181.0 L 197.5 182.0 L 198.0 182.0 L 198.5 182.0 L 199.0 182.0 L 199.5 182.0 L 200.0 181.5 L 200.5 181.0 L 200.5 179.5 L 200.5 177.5 L 200.5 175.5 L 200.5 173.5 L 200.0 171.5 L 199.5 170.0 L 199.0 169.0 L 199.0 168.5 " stroke="black" fill="none" stroke-width="6.0" stroke-linecap="round" stroke-linejoin="round" />
<path d="M 166.0 143.5 L 166.0 143.5 L 165.5 143.5 L 165.5 143.0 L 165.0 143.0 L 165.0 143.0 L 165.0 145.0 L 165.0 150.5 L 165.0 158.5 L 165.0 162.5 L 165.0 163.5 L 165.0 162.0 " stroke="black" fill="none" stroke-width="6.0" stroke-linecap="round" stroke-linejoin="round" />
<path d="M 165.5 155.0 L 165.5 155.0 L 165.5 154.0 L 165.5 154.0 L 166.5 153.5 L 167.5 153.0 L 169.0 152.5 L 170.0 152.5 L 170.0 152.5 " stroke="black" fill="none" stroke-width="6.0" stroke-linecap="round" stroke-linejoin="round" />
<path d="M 156.0 144.5 L 156.0 145.0 L 156.0 146.0 L 156.0 146.5 L 156.0 146.5 L 156.0 147.0 L 156.0 149.0 L 156.0 153.0 L 156.0 158.0 L 156.0 162.5 L 156.0 165.5 L 156.0 166.0 L 156.0 165.5 " stroke="black" fill="none" stroke-width="6.0" stroke-linecap="round" stroke-linejoin="round" />
<path d="M 154.0 168.5 L 154.5 169.0 L 154.5 169.5 L 155.0 169.5 L 155.0 169.5 L 156.0 169.5 L 158.0 169.0 L 162.0 168.5 L 166.5 167.0 L 170.0 165.5 L 172.0 164.5 " stroke="black" fill="none" stroke-width="6.0" stroke-linecap="round" stroke-linejoin="round" />
<path d="M 189.0 115.5 L 189.0 115.5 L 188.5 115.5 L 188.5 115.5 L 188.5 115.5 L 190.0 117.0 L 191.5 118.5 L 193.0 119.5 " stroke="black" fill="none" stroke-width="6.0" stroke-linecap="round" stroke-linejoin="round" />
</svg>