<svg xmlns="http://www.w3.org/2000/svg" width="300" height="300" viewBox="0 0 300 300">
<path d="M 135.0 101.0 L 135.0 100.0 L 135.0 99.0 L 135.0 98.5 L 135.0 98.0 L 134.5 98.0 L 134.0 99.5 L 132.5 103.5 L 130.5 108.0 L 129.0 111.5 L 128.0 113.5 L 128.0 113.5 " stroke="black" fill="none" stroke-width="7.0" stroke-linecap="round" stroke-linejoin="round" />
<path d="M 133.5 105.0 L 133.0 105.5 L 132.5 106.0 L 132.0 106.5 L 132.0 106.5 L 133.0 106.0 L 135.5 104.5 L 140.0 103.0 L 146.5 101.5 L 154.5 100.5 L 160.5 100.0 L 162.0 100.5 L 161.5 101.5 L 160.5 102.5 L 159.5 103.5 L 159.0 104.5 L 158.0 106.0 L 157.5 107.5 L 156.5 109.5 L 156.0 111.0 L 156.0 111.0 " stroke="black" fill="none" stroke-width="7.0" stroke-linecap="round" stroke-linejoin="round" />
<path d="M 120.0 126.0 L 120.0 125.0 L 120.0 124.0 L 120.0 123.0 L 120.5 123.0 L 120.5 125.5 L 121.0 129.0 L 121.5 131.5 L 122.5 133.5 L 122.5 133.5 " stroke="black" fill="none" stroke-width="7.0" stroke-linecap="round" stroke-linejoin="round" />
<path d="M 124.0 122.5 L 123.0 121.5 L 122.5 121.0 L 122.5 120.5 L 124.0 120.5 L 127.5 120.5 L 133.5 119.5 L 143.5 119.0 L 155.0 117.5 L 165.0 117.0 L 171.5 117.5 L 174.5 118.5 L 175.5 119.5 L 175.5 120.0 L 175.5 120.0 L 175.0 120.5 L 174.5 121.0 L 174.0 122.0 L 173.0 123.5 L 171.5 126.5 L 169.0 130.5 L 166.5 134.0 L 166.0 136.0 L 166.0 136.0 " stroke="black" fill="none" stroke-width="7.0" stroke-linecap="round" stroke-linejoin="round" />
<path d="M 144.0 123.0 L 144.0 122.5 L 143.5 122.0 L 143.5 122.0 L 143.0 124.0 L 142.5 128.0 L 142.0 132.0 L 141.5 135.0 L 141.5 136.0 " stroke="black" fill="none" stroke-width="7.0" stroke-linecap="round" stroke-linejoin="round" />
<path d="M 128.5 139.0 L 128.0 139.0 L 127.5 139.0 L 126.5 139.0 L 126.5 139.0 L 128.0 139.0 L 133.0 139.0 L 141.5 138.0 L 151.5 136.5 L 158.5 135.0 L 159.5 135.0 " stroke="black" fill="none" stroke-width="7.0" stroke-linecap="round" stroke-linejoin="round" />
<path d="M 144.5 139.0 L 144.0 139.0 L 143.5 138.5 L 143.0 138.5 L 142.5 138.5 L 141.5 140.0 L 140.0 142.5 L 136.5 147.0 L 132.0 152.0 L 127.5 155.5 L 126.5 156.0 L 126.0 156.0 " stroke="black" fill="none" stroke-width="7.0" stroke-linecap="round" stroke-linejoin="round" />
<path d="M 140.5 148.0 L 140.0 148.0 L 139.0 148.0 L 139.0 148.5 L 141.0 149.0 L 145.0 150.0 L 150.5 151.5 L 157.0 154.5 L 162.5 159.5 L 164.0 167.0 L 163.5 175.0 L 161.5 182.0 L 159.0 187.0 L 155.5 191.0 L 151.0 193.0 L 146.5 193.5 L 142.0 193.0 L 137.5 192.0 L 136.0 190.0 " stroke="black" fill="none" stroke-width="7.0" stroke-linecap="round" stroke-linejoin="round" />
<path d="M 149.0 152.0 L 149.0 152.0 L 149.5 152.5 L 150.0 153.0 L 150.0 154.0 L 149.5 156.0 L 146.0 160.5 L 141.0 165.0 L 136.0 167.5 L 133.0 168.5 L 133.0 168.5 " stroke="black" fill="none" stroke-width="7.0" stroke-linecap="round" stroke-linejoin="round" />
<path d="M 157.5 160.0 L 157.5 160.5 L 158.0 161.5 L 158.0 162.5 L 156.5 164.5 L 153.5 168.0 L 149.5 172.0 L 144.0 175.0 L 140.0 177.0 L 138.5 177.0 " stroke="black" fill="none" stroke-width="7.0" stroke-linecap="round" stroke-linejoin="round" />
<path d="M 177.5 146.5 L 178.0 146.5 L 178.5 146.5 L 179.0 146.5 L 179.0 146.5 L 178.0 148.0 L 175.5 150.0 L 172.5 152.5 L 170.0 154.5 " stroke="black" fill="none" stroke-width="7.0" stroke-linecap="round" stroke-linejoin="round" />
<path d="M 165.5 156.0 L 165.5 156.0 L 165.5 156.5 L 165.0 156.5 L 166.0 157.5 L 169.0 159.5 L 176.0 164.0 L 186.0 169.0 L 193.5 172.0 " stroke="black" fill="none" stroke-width="7.0" stroke-linecap="round" stroke-linejoin="round" />
</svg>