<svg xmlns="http://www.w3.org/2000/svg" width="300" height="300" viewBox="0 0 300 300">
<path d="M 136.5 78.5 L 136.5 78.0 L 137.0 78.0 L 139.0 78.5 L 144.0 81.0 L 150.0 84.0 L 154.0 86.0 L 155.5 86.5 " stroke="black" fill="none" stroke-width="10.0" stroke-linecap="round" stroke-linejoin="round" />
<path d="M 116.5 91.0 L 116.5 91.0 L 115.5 91.0 L 114.0 93.0 L 110.5 98.5 L 107.5 103.5 L 107.0 105.5 " stroke="black" fill="none" stroke-width="10.0" stroke-linecap="round" stroke-linejoin="round" />
<path d="M 110.0 93.5 L 110.0 93.5 L 110.0 94.0 L 110.5 94.5 L 114.0 94.5 L 122.5 93.5 L 135.0 91.5 L 150.0 90.5 L 166.0 90.5 L 180.5 90.5 L 192.5 91.5 L 200.5 92.0 L 206.0 92.5 L 209.5 92.5 L 211.5 92.5 L 212.0 92.5 L 212.0 92.5 L 212.0 92.5 L 212.0 93.0 L 212.0 94.5 L 211.0 97.0 L 208.5 102.0 L 206.0 106.5 L 204.5 110.0 L 204.0 110.5 " stroke="black" fill="none" stroke-width="10.0" stroke-linecap="round" stroke-linejoin="round" />
<path d="M 125.0 108.0 L 125.5 108.0 L 128.5 107.5 L 136.0 106.5 L 150.0 105.5 L 166.5 104.5 L 181.0 104.0 L 190.5 104.5 L 193.5 106.0 L 193.5 106.5 " stroke="black" fill="none" stroke-width="10.0" stroke-linecap="round" stroke-linejoin="round" />
<path d="M 155.0 108.5 L 155.5 109.5 L 155.5 110.5 L 155.5 112.5 L 155.5 115.5 L 155.5 118.0 L 155.5 118.5 " stroke="black" fill="none" stroke-width="10.0" stroke-linecap="round" stroke-linejoin="round" />
<path d="M 140.5 118.0 L 140.0 118.0 L 139.0 119.0 L 137.0 120.5 L 134.0 122.5 L 130.0 125.0 L 127.0 126.0 L 126.0 126.5 " stroke="black" fill="none" stroke-width="10.0" stroke-linecap="round" stroke-linejoin="round" />
<path d="M 178.0 119.0 L 178.0 119.0 L 178.5 119.0 L 179.0 119.0 L 179.0 119.0 L 179.0 119.0 L 178.5 120.5 L 174.5 123.5 L 165.5 130.0 L 152.0 137.5 L 140.0 142.0 L 130.5 144.5 L 123.5 146.0 L 120.5 146.5 L 120.5 146.5 " stroke="black" fill="none" stroke-width="10.0" stroke-linecap="round" stroke-linejoin="round" />
<path d="M 121.5 154.5 L 121.5 154.5 L 122.0 154.5 L 122.0 154.5 L 122.5 154.0 L 122.5 154.0 L 122.5 154.0 L 123.0 154.0 L 123.0 154.0 L 123.0 155.5 L 123.5 159.0 L 124.0 165.5 L 124.5 173.0 L 125.0 179.0 L 125.0 183.5 L 125.5 186.5 L 125.5 188.0 L 125.5 188.5 L 125.5 188.5 L 125.5 187.5 " stroke="black" fill="none" stroke-width="10.0" stroke-linecap="round" stroke-linejoin="round" />
<path d="M 128.0 153.0 L 127.5 153.0 L 126.5 153.5 L 126.0 154.0 L 126.5 154.0 L 129.5 153.5 L 135.5 152.5 L 145.5 151.0 L 158.5 149.0 L 171.0 147.5 L 178.5 146.0 L 180.5 146.0 L 181.0 146.5 L 181.0 146.5 L 180.5 147.0 L 180.5 147.0 L 181.0 148.0 L 181.5 149.5 L 182.5 151.5 L 183.0 155.5 L 183.5 160.5 L 183.5 166.5 L 182.5 173.0 L 182.5 178.0 L 182.5 181.5 L 182.5 182.5 L 182.0 182.5 L 181.5 182.5 " stroke="black" fill="none" stroke-width="10.0" stroke-linecap="round" stroke-linejoin="round" />
<path d="M 133.0 170.0 L 133.5 170.0 L 134.5 170.0 L 136.5 169.0 L 141.0 167.5 L 149.0 165.5 L 159.5 164.0 L 170.0 163.0 L 176.0 162.0 L 177.5 162.5 L 176.5 163.5 " stroke="black" fill="none" stroke-width="10.0" stroke-linecap="round" stroke-linejoin="round" />
<path d="M 135.5 183.0 L 137.0 182.5 L 138.0 182.0 L 140.0 181.5 L 145.0 180.0 L 153.0 178.5 L 161.5 177.5 L 169.0 176.5 L 172.5 176.0 L 172.5 176.0 " stroke="black" fill="none" stroke-width="10.0" stroke-linecap="round" stroke-linejoin="round" />
<path d="M 128.5 196.5 L 128.5 196.5 L 128.5 196.5 L 128.5 196.5 L 131.0 196.5 L 138.5 195.5 L 151.0 194.0 L 164.0 193.5 L 174.0 193.0 L 179.5 193.0 L 180.5 193.5 L 180.5 193.5 " stroke="black" fill="none" stroke-width="10.0" stroke-linecap="round" stroke-linejoin="round" />
<path d="M 141.5 212.0 L 141.5 211.5 L 142.0 211.0 L 142.5 210.5 L 142.5 210.0 L 142.0 210.0 L 140.0 211.5 L 136.0 214.5 L 129.0 218.5 L 122.0 222.0 L 119.0 223.5 L 120.5 222.0 " stroke="black" fill="none" stroke-width="10.0" stroke-linecap="round" stroke-linejoin="round" />
<path d="M 169.5 212.5 L 169.5 212.5 L 169.0 212.5 L 169.0 212.5 L 169.5 212.5 L 172.5 213.0 L 180.0 216.0 L 189.5 220.0 L 197.5 222.0 L 203.0 222.5 L 204.5 221.0 L 204.5 221.0 " stroke="black" fill="none" stroke-width="10.0" stroke-linecap="round" stroke-linejoin="round" />
</svg>