<svg xmlns="http://www.w3.org/2000/svg" width="300" height="300" viewBox="0 0 300 300">
<path d="M 149.5 75.0 L 148.5 74.0 L 148.0 73.5 L 148.0 75.5 L 148.5 83.0 L 149.0 94.5 L 150.0 102.5 L 150.0 104.0 L 150.0 104.0 " stroke="black" fill="none" stroke-width="10.0" stroke-linecap="round" stroke-linejoin="round" />
<path d="M 118.5 88.0 L 118.5 88.0 L 118.5 87.5 L 119.0 87.5 L 119.0 87.5 L 119.5 88.0 L 120.0 92.0 L 121.0 100.5 L 122.5 111.0 L 124.0 115.5 L 126.5 115.5 L 131.0 114.5 L 138.5 113.5 L 148.0 113.5 L 159.0 114.0 L 170.0 114.0 L 177.0 112.5 L 178.5 112.0 L 178.0 111.5 " stroke="black" fill="none" stroke-width="10.0" stroke-linecap="round" stroke-linejoin="round" />
<path d="M 179.0 82.0 L 179.0 82.0 L 179.0 81.5 L 179.0 81.5 L 179.0 84.0 L 179.0 92.0 L 179.0 101.5 L 179.0 107.5 L 179.0 109.0 L 179.0 109.0 " stroke="black" fill="none" stroke-width="10.0" stroke-linecap="round" stroke-linejoin="round" />
<path d="M 125.0 132.5 L 124.5 132.5 L 124.0 132.5 L 124.0 132.5 L 124.0 135.0 L 126.0 141.0 L 128.5 146.0 L 130.5 147.5 L 131.0 147.5 " stroke="black" fill="none" stroke-width="10.0" stroke-linecap="round" stroke-linejoin="round" />
<path d="M 126.5 132.5 L 126.0 132.5 L 125.0 133.0 L 125.0 133.5 L 126.0 133.5 L 130.0 133.5 L 136.0 133.5 L 145.0 132.0 L 155.5 131.5 L 164.5 131.0 L 171.0 131.0 L 174.5 131.5 L 175.0 132.0 L 175.0 133.5 L 175.0 135.5 L 175.0 138.5 L 175.0 142.0 L 174.5 145.0 L 174.0 147.5 L 173.5 148.5 " stroke="black" fill="none" stroke-width="10.0" stroke-linecap="round" stroke-linejoin="round" />
<path d="M 137.5 155.5 L 137.0 156.5 L 136.0 157.0 L 136.0 157.0 L 138.5 157.0 L 144.0 156.0 L 153.0 155.0 L 164.5 154.0 L 173.0 153.5 L 175.0 153.5 L 174.5 154.5 L 173.0 154.5 " stroke="black" fill="none" stroke-width="10.0" stroke-linecap="round" stroke-linejoin="round" />
<path d="M 140.5 174.0 L 140.0 174.0 L 139.0 173.5 L 138.0 173.0 L 137.5 172.5 L 137.5 173.0 L 139.0 176.5 L 141.5 181.5 L 144.0 185.5 L 146.5 186.5 L 147.5 186.0 " stroke="black" fill="none" stroke-width="10.0" stroke-linecap="round" stroke-linejoin="round" />
<path d="M 168.5 171.0 L 168.5 170.5 L 168.5 170.0 L 168.5 170.0 L 168.5 170.0 L 168.5 171.5 L 167.5 175.5 L 166.0 181.0 L 164.0 186.5 L 163.0 190.0 " stroke="black" fill="none" stroke-width="10.0" stroke-linecap="round" stroke-linejoin="round" />
<path d="M 124.5 208.0 L 124.5 208.0 L 124.0 208.0 L 124.0 207.5 L 126.0 207.5 L 135.0 206.5 L 149.0 205.5 L 164.5 205.0 L 177.0 204.5 L 186.0 204.5 L 190.0 205.5 L 190.0 206.5 L 188.0 206.5 " stroke="black" fill="none" stroke-width="10.0" stroke-linecap="round" stroke-linejoin="round" />
</svg>