<svg xmlns="http://www.w3.org/2000/svg" width="300" height="300" viewBox="0 0 300 300">
<path d="M 120.00000000000001 120.55555555555556 L 120.00000000000001 120.55555555555556 L 118.33333333333333 118.8888888888889 L 117.77777777777779 118.33333333333333 L 119.44444444444444 118.33333333333333 L 125.55555555555556 117.77777777777779 L 132.7777777777778 116.66666666666667 L 138.8888888888889 116.66666666666667 L 142.7777777777778 116.1111111111111 " stroke="black" fill="none" stroke-width="7.0" stroke-linecap="round" stroke-linejoin="round" />
<path d="M 129.44444444444446 103.33333333333333 L 129.44444444444446 103.33333333333333 L 129.44444444444446 104.44444444444444 L 129.44444444444446 106.66666666666667 L 130.00000000000003 113.8888888888889 L 130.55555555555557 126.66666666666667 L 131.11111111111111 135.55555555555557 L 130.55555555555557 137.22222222222223 L 130.00000000000003 136.66666666666669 " stroke="black" fill="none" stroke-width="7.0" stroke-linecap="round" stroke-linejoin="round" />
<path d="M 117.77777777777779 145.00000000000003 L 117.22222222222221 145.00000000000003 L 116.1111111111111 144.44444444444446 L 117.22222222222221 143.33333333333334 L 121.66666666666667 141.66666666666669 L 130.00000000000003 140.00000000000003 L 139.44444444444446 137.7777777777778 L 145.55555555555557 137.7777777777778 " stroke="black" fill="none" stroke-width="7.0" stroke-linecap="round" stroke-linejoin="round" />
<path d="M 136.11111111111111 146.11111111111111 L 136.66666666666669 146.11111111111111 L 137.22222222222223 146.11111111111111 L 138.33333333333334 147.7777777777778 L 139.44444444444446 152.7777777777778 L 140.00000000000003 161.66666666666669 L 140.00000000000003 168.33333333333334 L 139.44444444444446 169.44444444444446 " stroke="black" fill="none" stroke-width="7.0" stroke-linecap="round" stroke-linejoin="round" />
<path d="M 135.55555555555557 165.00000000000003 L 135.55555555555557 164.44444444444446 L 136.11111111111111 162.22222222222223 L 140.00000000000003 157.7777777777778 L 144.44444444444446 156.11111111111111 L 148.33333333333334 156.11111111111111 L 150.00000000000003 156.11111111111111 L 150.00000000000003 156.11111111111111 " stroke="black" fill="none" stroke-width="7.0" stroke-linecap="round" stroke-linejoin="round" />
<path d="M 126.66666666666667 154.44444444444446 L 126.66666666666667 154.44444444444446 L 126.66666666666667 154.44444444444446 L 126.1111111111111 156.11111111111111 L 124.44444444444444 161.66666666666669 L 121.1111111111111 172.7777777777778 L 117.22222222222221 183.33333333333334 L 115.00000000000001 186.11111111111114 L 113.8888888888889 184.44444444444446 " stroke="black" fill="none" stroke-width="7.0" stroke-linecap="round" stroke-linejoin="round" />
<path d="M 126.1111111111111 176.11111111111114 L 126.1111111111111 176.11111111111114 L 126.1111111111111 176.66666666666669 L 130.00000000000003 176.66666666666669 L 141.11111111111111 177.22222222222223 L 156.11111111111111 178.33333333333334 L 173.33333333333334 180.00000000000003 L 189.44444444444446 178.8888888888889 L 199.44444444444446 176.11111111111114 L 201.11111111111114 175.55555555555557 " stroke="black" fill="none" stroke-width="7.0" stroke-linecap="round" stroke-linejoin="round" />
<path d="M 167.22222222222223 116.1111111111111 L 166.66666666666669 116.1111111111111 L 165.55555555555557 115.00000000000001 L 163.8888888888889 113.8888888888889 L 163.8888888888889 112.77777777777779 L 165.00000000000003 111.66666666666667 L 168.33333333333334 110.55555555555556 L 172.7777777777778 109.44444444444444 L 177.22222222222223 108.88888888888889 L 181.66666666666669 108.33333333333333 L 184.44444444444446 108.33333333333333 L 184.44444444444446 110.55555555555556 L 182.7777777777778 116.66666666666667 L 180.00000000000003 124.44444444444444 L 178.8888888888889 130.55555555555557 L 178.33333333333334 132.22222222222223 L 178.33333333333334 132.22222222222223 " stroke="black" fill="none" stroke-width="7.0" stroke-linecap="round" stroke-linejoin="round" />
<path d="M 167.22222222222223 133.33333333333334 L 166.11111111111114 132.7777777777778 L 166.11111111111114 132.22222222222223 L 169.44444444444446 132.22222222222223 L 172.7777777777778 132.22222222222223 L 175.55555555555557 132.22222222222223 L 176.11111111111114 131.66666666666669 " stroke="black" fill="none" stroke-width="7.0" stroke-linecap="round" stroke-linejoin="round" />
<path d="M 166.66666666666669 113.33333333333333 L 165.55555555555557 113.33333333333333 L 164.44444444444446 113.8888888888889 L 164.44444444444446 114.44444444444444 L 164.44444444444446 116.1111111111111 L 165.00000000000003 120.55555555555556 L 165.00000000000003 128.33333333333334 L 165.00000000000003 137.7777777777778 L 165.00000000000003 146.66666666666669 L 165.55555555555557 152.22222222222223 L 167.7777777777778 156.66666666666669 L 171.11111111111114 158.8888888888889 L 175.55555555555557 159.44444444444446 L 181.11111111111114 159.44444444444446 L 186.66666666666669 157.7777777777778 L 189.44444444444446 156.66666666666669 L 190.00000000000003 156.11111111111111 L 189.44444444444446 155.55555555555557 L 188.33333333333334 154.44444444444446 L 187.22222222222223 153.33333333333334 L 186.66666666666669 151.66666666666669 L 186.11111111111114 150.00000000000003 L 186.11111111111114 149.44444444444446 L 186.11111111111114 149.44444444444446 " stroke="black" fill="none" stroke-width="7.0" stroke-linecap="round" stroke-linejoin="round" />
</svg>