<svg xmlns="http://www.w3.org/2000/svg" width="300" height="300" viewBox="0 0 300 300">
<path d="M 121.5 116.5 L 121.5 116.5 L 120.5 116.5 L 120.5 116.5 L 120.5 116.5 L 120.5 119.0 L 121.0 125.0 L 121.5 132.0 L 122.5 136.0 L 123.0 136.5 " stroke="black" fill="none" stroke-width="7.0" stroke-linecap="round" stroke-linejoin="round" />
<path d="M 122.0 117.0 L 120.5 117.0 L 120.0 117.5 L 120.0 117.5 L 120.5 117.5 L 122.5 117.5 L 125.0 117.0 L 127.5 116.0 L 131.0 115.5 L 134.5 115.0 L 137.0 114.5 L 137.5 114.5 L 138.0 114.5 L 137.5 114.5 L 137.0 115.5 L 137.0 117.0 L 136.5 120.0 L 136.5 124.0 L 136.5 128.0 L 136.5 131.0 L 137.0 132.5 L 137.0 132.5 " stroke="black" fill="none" stroke-width="7.0" stroke-linecap="round" stroke-linejoin="round" />
<path d="M 124.5 138.5 L 123.0 139.0 L 121.0 139.5 L 120.5 139.5 L 122.0 139.0 L 126.0 137.5 L 130.0 136.0 L 133.5 134.5 L 135.5 134.0 L 136.0 133.5 " stroke="black" fill="none" stroke-width="7.0" stroke-linecap="round" stroke-linejoin="round" />
<path d="M 132.5 143.0 L 133.5 143.0 L 134.5 143.5 L 135.0 145.0 L 135.0 148.0 L 135.0 153.0 L 134.5 158.5 L 134.5 162.0 L 134.0 162.5 " stroke="black" fill="none" stroke-width="7.0" stroke-linecap="round" stroke-linejoin="round" />
<path d="M 133.0 156.5 L 134.0 157.0 L 135.0 157.0 L 136.0 157.0 L 137.5 156.0 L 139.5 154.5 L 141.5 153.0 L 142.0 152.5 " stroke="black" fill="none" stroke-width="7.0" stroke-linecap="round" stroke-linejoin="round" />
<path d="M 123.5 153.0 L 123.5 153.0 L 123.0 153.0 L 122.5 153.5 L 122.0 155.0 L 122.0 159.5 L 122.0 167.5 L 121.5 176.0 L 121.5 180.0 L 122.0 180.5 " stroke="black" fill="none" stroke-width="7.0" stroke-linecap="round" stroke-linejoin="round" />
<path d="M 117.0 185.0 L 117.0 185.0 L 117.5 184.0 L 119.5 182.5 L 124.5 179.5 L 131.5 174.0 L 137.5 170.5 L 141.0 169.5 L 142.5 168.5 " stroke="black" fill="none" stroke-width="7.0" stroke-linecap="round" stroke-linejoin="round" />
<path d="M 152.5 109.5 L 152.5 109.5 L 152.5 110.0 L 152.5 110.0 L 152.5 110.5 L 153.5 110.5 L 155.5 110.0 L 159.5 109.0 L 165.0 108.0 L 169.5 106.5 L 172.5 105.5 L 173.0 105.5 L 172.5 105.5 L 172.0 105.5 " stroke="black" fill="none" stroke-width="6.0" stroke-linecap="round" stroke-linejoin="round" />
<path d="M 164.0 101.0 L 164.0 100.5 L 164.0 100.5 L 164.0 100.5 L 164.0 102.5 L 164.0 108.0 L 164.0 114.0 L 164.5 117.0 L 165.0 118.5 " stroke="black" fill="none" stroke-width="6.0" stroke-linecap="round" stroke-linejoin="round" />
<path d="M 150.5 121.5 L 150.0 121.5 L 149.0 121.0 L 149.0 121.0 L 150.0 121.0 L 154.0 121.0 L 159.5 120.5 L 166.0 119.5 L 172.0 118.0 L 176.0 117.0 L 177.5 116.5 L 177.5 116.5 L 177.5 116.5 " stroke="black" fill="none" stroke-width="6.0" stroke-linecap="round" stroke-linejoin="round" />
<path d="M 151.0 131.5 L 151.0 132.0 L 151.0 132.5 L 151.0 132.5 L 151.0 132.5 L 151.5 132.5 L 154.0 132.0 L 158.5 131.0 L 165.5 129.0 L 172.5 127.0 L 177.5 126.5 L 180.0 126.0 L 180.5 127.0 L 180.5 127.0 L 180.5 127.5 L 181.0 127.5 L 181.5 127.5 L 181.5 127.5 L 182.0 127.5 L 182.0 128.0 L 182.5 128.5 L 182.0 129.5 L 181.5 131.5 L 180.5 134.5 L 180.0 136.5 L 180.0 138.5 L 180.0 138.5 " stroke="black" fill="none" stroke-width="6.0" stroke-linecap="round" stroke-linejoin="round" />
<path d="M 156.0 138.0 L 156.0 138.5 L 156.0 139.0 L 156.0 139.0 L 156.0 139.0 L 158.0 138.5 L 161.0 137.5 L 165.0 137.0 L 168.5 136.0 L 171.0 135.5 L 172.5 134.5 L 173.0 134.5 L 173.0 134.5 " stroke="black" fill="none" stroke-width="6.0" stroke-linecap="round" stroke-linejoin="round" />
<path d="M 167.0 136.5 L 165.0 137.0 L 164.0 137.0 L 164.0 137.0 L 164.0 139.0 L 164.5 143.0 L 165.0 147.5 L 166.0 150.5 L 166.5 151.0 " stroke="black" fill="none" stroke-width="6.0" stroke-linecap="round" stroke-linejoin="round" />
<path d="M 153.5 152.5 L 153.0 153.0 L 153.0 153.5 L 152.5 153.5 L 152.5 153.5 L 153.5 153.0 L 156.5 152.0 L 161.0 151.5 L 166.5 150.5 L 171.5 150.0 L 175.0 150.0 L 176.0 150.0 L 176.0 150.0 " stroke="black" fill="none" stroke-width="6.0" stroke-linecap="round" stroke-linejoin="round" />
<path d="M 154.0 160.5 L 154.5 160.5 L 154.5 161.0 L 154.5 161.0 L 155.5 161.0 L 158.0 160.5 L 163.0 159.5 L 170.5 157.0 L 178.0 155.0 L 184.0 154.0 L 186.0 154.0 " stroke="black" fill="none" stroke-width="6.0" stroke-linecap="round" stroke-linejoin="round" />
<path d="M 156.5 169.5 L 157.5 169.0 L 157.5 169.0 L 157.5 169.0 L 157.5 171.0 L 158.5 173.5 L 159.0 176.5 L 159.5 177.5 " stroke="black" fill="none" stroke-width="6.0" stroke-linecap="round" stroke-linejoin="round" />
<path d="M 157.5 172.0 L 157.5 172.0 L 157.5 172.5 L 157.5 172.5 L 159.5 171.0 L 163.5 169.5 L 167.5 168.5 L 170.5 167.5 L 172.0 167.0 L 172.5 167.0 L 172.5 168.0 L 172.5 170.0 L 171.5 173.0 L 170.5 175.5 L 170.0 178.5 L 169.5 180.0 L 169.0 180.0 " stroke="black" fill="none" stroke-width="6.0" stroke-linecap="round" stroke-linejoin="round" />
<path d="M 161.0 183.0 L 161.0 183.5 L 160.0 183.5 L 159.5 183.5 L 159.5 183.5 L 159.5 183.5 L 161.5 183.0 L 164.5 182.5 L 168.0 182.0 L 170.0 181.0 " stroke="black" fill="none" stroke-width="6.0" stroke-linecap="round" stroke-linejoin="round" />
<path d="M 178.5 170.5 L 178.0 171.0 L 177.0 171.0 L 177.0 171.0 L 178.5 171.0 L 182.0 170.5 L 186.0 170.5 L 189.5 170.0 L 192.0 169.0 L 193.5 168.5 L 193.5 168.0 " stroke="black" fill="none" stroke-width="6.0" stroke-linecap="round" stroke-linejoin="round" />
<path d="M 188.0 162.0 L 187.5 162.0 L 186.5 161.5 L 186.0 161.5 L 186.0 161.0 L 186.5 162.5 L 187.5 166.0 L 188.5 171.5 L 189.0 179.0 L 190.0 187.5 L 190.5 193.5 L 190.5 197.0 L 190.5 198.5 L 189.5 198.5 L 187.5 198.0 L 185.0 196.5 L 183.5 194.5 L 182.5 192.5 " stroke="black" fill="none" stroke-width="6.0" stroke-linecap="round" stroke-linejoin="round" />
<path d="M 180.5 183.0 L 180.5 183.5 L 180.5 184.0 L 180.5 184.0 L 181.5 184.5 L 183.0 185.5 L 183.5 185.5 " stroke="black" fill="none" stroke-width="6.0" stroke-linecap="round" stroke-linejoin="round" />
</svg>