<svg xmlns="http://www.w3.org/2000/svg" width="300" height="300" viewBox="0 0 300 300">
<path d="M 159.0 85.5 L 159.0 85.0 L 159.0 84.5 L 159.0 84.0 L 159.0 84.5 L 158.5 87.0 L 157.5 91.0 L 157.0 94.0 L 156.5 94.5 " stroke="black" fill="none" stroke-width="9.0" stroke-linecap="round" stroke-linejoin="round" />
<path d="M 141.5 101.0 L 141.5 100.5 L 141.5 100.0 L 141.5 100.0 L 142.0 102.0 L 142.5 109.5 L 142.5 124.0 L 142.0 140.0 L 141.5 149.0 L 141.5 150.5 L 141.5 149.0 L 141.5 146.5 " stroke="black" fill="none" stroke-width="9.0" stroke-linecap="round" stroke-linejoin="round" />
<path d="M 146.0 100.5 L 145.0 100.5 L 145.0 100.5 L 145.0 100.5 L 146.0 100.5 L 150.5 101.0 L 159.5 99.5 L 171.0 97.0 L 179.0 96.5 L 182.5 97.5 L 183.5 99.0 L 184.0 99.0 L 183.5 99.0 L 183.5 99.5 L 183.5 101.5 L 184.0 105.5 L 185.0 111.5 L 185.5 122.5 L 186.5 137.5 L 187.0 153.0 L 188.5 167.5 L 189.5 182.0 L 190.5 195.5 L 190.5 206.5 L 190.0 214.5 L 189.0 219.0 L 188.0 220.0 L 185.0 218.5 L 180.0 213.5 L 174.0 206.5 L 173.0 205.0 " stroke="black" fill="none" stroke-width="9.0" stroke-linecap="round" stroke-linejoin="round" />
<path d="M 149.0 120.0 L 148.5 120.0 L 148.0 119.5 L 148.0 119.5 L 152.0 119.5 L 161.0 118.5 L 170.0 117.5 L 175.0 117.5 L 176.0 117.5 " stroke="black" fill="none" stroke-width="9.0" stroke-linecap="round" stroke-linejoin="round" />
<path d="M 150.0 134.5 L 150.0 134.5 L 150.0 134.5 L 153.0 135.0 L 161.5 134.5 L 170.5 133.5 L 176.5 132.5 L 177.5 132.5 " stroke="black" fill="none" stroke-width="9.0" stroke-linecap="round" stroke-linejoin="round" />
<path d="M 126.0 159.0 L 126.0 159.5 L 125.5 159.5 L 126.5 159.5 L 133.5 159.5 L 147.0 157.5 L 163.0 155.0 L 178.5 152.0 L 188.0 150.0 L 192.0 149.5 L 192.0 149.5 " stroke="black" fill="none" stroke-width="9.0" stroke-linecap="round" stroke-linejoin="round" />
<path d="M 203.5 110.5 L 203.5 110.5 L 203.5 111.0 L 203.5 112.0 L 201.5 116.0 L 195.5 128.0 L 185.0 146.5 L 172.0 164.0 L 159.5 177.5 L 147.5 188.5 L 138.5 196.0 L 133.0 201.0 L 131.5 202.5 " stroke="black" fill="none" stroke-width="9.0" stroke-linecap="round" stroke-linejoin="round" />
</svg>