<svg xmlns="http://www.w3.org/2000/svg" width="300" height="300" viewBox="0 0 300 300">
<path d="M 180.0 105.5 L 180.0 105.5 L 179.5 105.0 L 179.0 105.0 L 178.0 104.5 L 176.5 104.5 L 174.5 105.5 L 171.0 106.0 L 166.5 107.5 L 161.0 109.0 L 155.5 111.0 L 151.5 112.5 L 150.5 112.5 L 149.5 112.5 L 148.5 112.0 L 148.0 111.5 L 148.0 111.5 L 147.5 111.5 L 147.5 111.5 L 147.5 111.5 L 147.5 111.5 L 147.5 111.5 L 147.5 111.5 L 147.5 111.5 L 147.5 111.5 L 147.5 111.5 L 147.5 111.5 L 147.5 111.5 L 147.5 111.5 L 147.5 111.5 L 148.0 111.5 L 148.0 111.5 L 148.0 112.0 L 148.0 112.5 L 148.0 114.0 L 148.5 115.5 L 148.5 118.5 L 148.5 123.0 L 148.5 130.0 L 148.5 138.0 L 148.5 146.5 L 148.5 154.5 L 147.0 161.5 L 145.5 169.0 L 144.0 173.5 L 143.5 176.0 L 142.0 177.5 L 141.5 177.5 L 141.5 177.0 L 142.0 175.0 " stroke="black" fill="none" stroke-width="7.0" stroke-linecap="round" stroke-linejoin="round" />
<path d="M 155.0 130.0 L 153.0 130.0 L 151.5 130.0 L 151.0 130.0 L 151.5 130.0 L 156.5 130.0 L 163.5 129.5 L 171.0 129.0 L 179.5 128.0 L 186.0 127.0 L 188.0 127.0 L 187.0 127.5 L 186.5 128.0 " stroke="black" fill="none" stroke-width="7.0" stroke-linecap="round" stroke-linejoin="round" />
<path d="M 171.5 132.0 L 171.5 132.0 L 171.0 132.0 L 170.5 131.5 L 170.5 131.5 L 170.5 133.0 L 170.5 138.5 L 170.5 148.5 L 170.5 160.5 L 170.0 169.0 L 170.0 173.0 L 170.5 174.0 L 170.5 174.0 L 171.0 174.0 " stroke="black" fill="none" stroke-width="7.0" stroke-linecap="round" stroke-linejoin="round" />
<path d="M 119.5 120.0 L 118.5 120.5 L 118.5 121.0 L 120.0 122.5 L 122.5 123.5 L 125.0 124.5 L 127.0 125.0 " stroke="black" fill="none" stroke-width="7.0" stroke-linecap="round" stroke-linejoin="round" />
<path d="M 118.0 137.0 L 117.5 137.5 L 117.0 137.5 L 116.5 137.5 L 117.5 137.5 L 120.5 137.5 L 124.0 137.5 L 127.0 139.5 L 128.0 142.5 L 127.0 147.0 L 124.0 152.0 L 121.5 155.0 L 120.0 156.5 L 120.0 156.5 L 121.5 156.0 L 124.0 156.0 L 126.0 156.0 L 127.5 157.0 L 129.0 159.0 L 129.5 162.0 L 129.5 165.0 L 129.0 168.5 L 127.0 172.0 L 125.0 175.5 L 123.0 178.5 L 120.0 182.0 L 118.0 183.5 L 116.5 183.5 L 115.5 183.5 L 114.5 182.5 L 113.5 182.0 L 113.0 182.0 L 113.0 182.0 L 113.0 182.0 L 113.0 182.0 L 113.0 182.0 L 113.5 182.0 L 114.5 182.0 L 115.0 182.0 L 116.5 182.0 L 117.5 182.5 L 119.0 182.5 L 121.0 183.0 L 123.0 184.0 L 125.0 184.5 L 127.5 185.0 L 130.5 186.0 L 135.0 186.5 L 141.5 187.0 L 149.0 187.5 L 157.0 187.5 L 165.5 188.5 L 173.0 188.5 L 182.0 187.5 L 189.0 186.0 " stroke="black" fill="none" stroke-width="7.0" stroke-linecap="round" stroke-linejoin="round" />
</svg>