<svg xmlns="http://www.w3.org/2000/svg" width="300" height="300" viewBox="0 0 300 300">
<path d="M 160.5 108.0 L 161.0 108.0 L 161.0 108.0 L 161.5 107.5 L 161.5 107.5 L 162.0 107.0 L 161.5 108.5 L 161.0 111.5 L 160.0 114.5 L 159.0 117.0 L 159.0 117.5 " stroke="black" fill="none" stroke-width="6.0" stroke-linecap="round" stroke-linejoin="round" />
<path d="M 146.5 123.0 L 145.5 123.0 L 144.5 123.0 L 144.5 123.0 L 144.5 123.0 L 147.0 123.0 L 150.5 123.0 L 155.0 123.0 L 160.5 123.0 L 166.5 123.0 L 170.5 122.5 L 172.5 122.0 L 174.0 121.5 L 174.5 121.5 L 175.0 121.5 L 175.5 121.5 L 175.5 121.5 L 175.5 121.5 L 175.5 122.0 L 176.0 123.0 L 176.0 124.0 L 175.5 126.0 L 175.0 129.5 L 174.5 133.0 L 174.0 136.5 L 173.5 138.0 L 173.5 138.0 L 173.5 138.0 " stroke="black" fill="none" stroke-width="6.0" stroke-linecap="round" stroke-linejoin="round" />
<path d="M 149.0 138.5 L 148.5 138.5 L 148.0 138.5 L 148.5 138.5 L 151.5 138.5 L 158.0 139.0 L 164.0 139.5 L 168.5 140.0 L 171.5 140.0 L 172.5 140.0 L 172.5 139.5 " stroke="black" fill="none" stroke-width="6.0" stroke-linecap="round" stroke-linejoin="round" />
<path d="M 147.0 125.5 L 146.0 125.0 L 145.5 124.5 L 145.0 124.0 L 145.0 124.0 L 145.5 126.0 L 146.0 130.5 L 146.5 137.0 L 146.5 145.0 L 147.0 153.5 L 147.0 160.5 L 147.5 166.0 L 147.5 170.5 L 147.5 173.0 L 147.5 174.0 L 148.0 174.5 L 148.0 174.5 L 148.0 173.0 L 148.5 171.0 " stroke="black" fill="none" stroke-width="6.0" stroke-linecap="round" stroke-linejoin="round" />
<path d="M 150.0 152.0 L 149.5 153.0 L 149.0 153.5 L 149.0 153.5 L 151.0 153.5 L 154.0 153.0 L 158.0 152.0 L 163.5 151.5 L 169.5 151.5 L 174.5 151.5 L 177.5 152.0 L 178.5 152.0 L 178.5 152.0 L 178.5 152.0 L 178.0 152.0 L 178.0 152.0 L 178.0 152.0 L 177.5 152.5 L 177.5 153.0 L 177.0 154.5 L 176.5 156.5 L 176.0 160.0 L 175.5 165.0 L 175.5 169.0 L 175.5 171.5 L 175.5 172.0 L 175.5 172.0 " stroke="black" fill="none" stroke-width="6.0" stroke-linecap="round" stroke-linejoin="round" />
<path d="M 149.5 173.5 L 149.5 174.0 L 149.5 174.5 L 151.0 174.5 L 155.0 174.0 L 161.5 173.0 L 168.0 172.0 L 171.5 172.0 L 174.0 171.5 " stroke="black" fill="none" stroke-width="6.0" stroke-linecap="round" stroke-linejoin="round" />
<path d="M 122.0 117.0 L 121.0 117.5 L 120.5 117.5 L 120.5 117.5 L 121.5 118.0 L 124.0 119.5 L 126.0 121.0 L 128.0 122.5 L 128.5 123.0 " stroke="black" fill="none" stroke-width="6.0" stroke-linecap="round" stroke-linejoin="round" />
<path d="M 121.5 137.5 L 120.5 137.5 L 119.5 137.5 L 119.5 137.0 L 120.0 136.5 L 122.0 135.5 L 124.5 135.0 L 128.0 134.5 L 132.0 134.0 L 136.0 134.0 L 138.5 134.0 L 139.0 136.0 L 138.0 139.0 L 135.0 143.5 L 132.0 147.5 L 128.5 151.5 L 126.0 154.0 L 123.5 156.5 L 122.5 158.5 L 123.0 159.0 L 125.0 159.0 L 128.5 159.0 L 131.5 158.5 L 134.5 158.0 L 136.5 158.0 L 137.5 159.0 L 138.0 161.0 L 137.5 164.5 L 136.0 168.5 L 133.5 172.5 L 131.0 177.0 L 128.5 180.5 L 125.5 183.5 L 123.0 184.5 L 121.5 185.0 L 120.0 185.0 L 118.5 185.0 L 117.0 185.0 L 116.5 185.0 L 116.5 185.0 L 116.5 184.0 L 117.5 182.5 L 118.5 181.0 L 120.0 179.5 L 121.0 179.0 L 122.0 178.5 L 123.0 178.5 L 124.0 178.5 L 125.0 179.0 L 126.5 180.5 L 128.5 181.5 L 132.0 183.0 L 137.0 184.5 L 144.5 186.5 L 153.5 187.5 L 163.5 187.5 L 174.0 187.5 L 182.5 188.5 L 189.0 188.5 L 194.0 188.5 L 196.0 187.0 L 196.5 186.5 " stroke="black" fill="none" stroke-width="6.0" stroke-linecap="round" stroke-linejoin="round" />
</svg>