<svg xmlns="http://www.w3.org/2000/svg" width="300" height="300" viewBox="0 0 300 300">
<path d="M 114.5 99.5 L 114.5 99.5 L 114.0 99.5 L 114.0 99.5 L 113.5 99.5 L 113.0 100.0 L 113.0 100.0 L 112.5 100.0 L 112.5 100.0 L 112.0 99.5 L 112.0 99.5 L 112.0 99.0 L 112.5 99.0 L 114.5 98.5 L 118.0 98.0 L 122.5 97.0 L 127.5 96.5 L 132.0 96.0 L 135.0 96.0 L 137.0 95.5 L 138.5 96.0 L 139.5 96.0 L 140.5 96.5 L 141.0 96.5 L 141.5 96.5 L 141.5 96.5 L 141.5 96.5 L 141.5 96.5 " stroke="black" fill="none" stroke-width="7.0" stroke-linecap="round" stroke-linejoin="round" />
<path d="M 126.0 88.5 L 126.0 88.5 L 126.0 88.5 L 125.5 88.0 L 125.5 88.0 L 125.5 88.5 L 125.5 90.5 L 125.5 96.0 L 126.0 101.5 L 126.5 105.5 L 127.0 107.0 " stroke="black" fill="none" stroke-width="7.0" stroke-linecap="round" stroke-linejoin="round" />
<path d="M 109.0 113.0 L 109.0 113.0 L 109.5 113.0 L 109.5 113.0 L 109.5 113.0 L 110.0 113.0 L 111.0 113.0 L 112.0 113.0 L 114.0 112.5 L 117.5 112.0 L 121.5 111.0 L 126.0 109.5 L 129.5 108.5 L 132.0 108.5 L 134.0 108.5 L 136.5 108.5 L 138.5 108.5 L 140.5 108.5 L 141.5 108.5 L 142.0 108.5 L 142.5 108.5 L 143.5 108.5 L 144.0 108.5 L 144.0 108.5 L 144.5 108.5 L 144.5 108.5 L 144.5 108.5 L 144.5 108.5 L 144.5 108.5 " stroke="black" fill="none" stroke-width="7.0" stroke-linecap="round" stroke-linejoin="round" />
<path d="M 110.0 126.0 L 110.0 126.0 L 110.0 126.0 L 110.0 126.0 L 109.5 126.0 L 109.5 125.5 L 109.5 125.5 L 109.5 125.0 L 109.5 125.0 L 109.5 124.5 L 109.5 124.0 L 109.5 123.5 L 109.5 123.5 L 109.5 124.0 L 109.5 125.5 L 109.0 128.0 L 109.0 131.0 L 108.5 133.5 L 108.5 135.5 L 108.5 136.5 L 108.5 136.5 L 108.5 136.5 L 108.5 136.5 L 108.5 135.5 " stroke="black" fill="none" stroke-width="7.0" stroke-linecap="round" stroke-linejoin="round" />
<path d="M 111.0 123.5 L 111.0 123.5 L 110.5 123.0 L 110.5 123.0 L 110.5 122.5 L 110.0 122.5 L 110.0 122.5 L 110.0 122.5 L 111.0 122.5 L 112.0 122.0 L 113.0 122.0 L 114.5 122.0 L 116.5 122.0 L 119.5 121.5 L 122.5 121.5 L 126.0 121.5 L 129.0 121.0 L 132.0 121.0 L 134.5 121.0 L 136.5 121.0 L 137.5 121.5 L 138.0 121.5 L 138.5 121.5 L 140.0 121.5 L 142.5 120.5 L 145.0 120.0 L 146.5 120.0 L 147.0 120.0 L 147.0 120.0 L 147.0 120.0 L 147.0 120.0 L 147.0 120.0 L 147.0 120.0 L 147.0 120.0 L 147.0 120.0 L 147.0 120.0 L 147.0 120.0 L 147.5 120.0 L 147.5 120.0 L 147.5 120.0 L 148.0 120.0 L 148.5 120.0 L 148.5 120.0 L 149.0 120.0 L 149.5 120.0 L 149.5 120.5 L 150.0 120.5 L 150.0 120.5 L 150.0 120.5 L 150.0 120.5 L 150.0 121.5 L 150.0 122.0 L 149.5 123.5 L 149.0 126.0 L 148.5 128.5 L 148.0 131.5 L 147.5 133.5 L 147.5 134.0 L 147.5 134.5 L 147.5 134.5 " stroke="black" fill="none" stroke-width="7.0" stroke-linecap="round" stroke-linejoin="round" />
<path d="M 118.5 134.0 L 118.5 134.0 L 118.0 134.5 L 117.5 134.5 L 117.0 135.0 L 117.0 135.0 L 117.5 135.0 L 119.0 135.0 L 121.5 134.5 L 124.5 134.0 L 128.0 133.0 L 131.5 132.5 L 134.5 132.0 L 135.5 132.0 L 136.0 132.0 L 136.0 132.0 L 136.0 132.5 L 136.0 132.5 " stroke="black" fill="none" stroke-width="7.0" stroke-linecap="round" stroke-linejoin="round" />
<path d="M 113.5 149.0 L 113.5 149.0 L 113.5 148.5 L 113.5 147.5 L 113.5 147.5 L 113.5 147.0 L 113.5 147.0 L 114.0 148.0 L 114.5 151.5 L 115.0 156.0 L 115.5 159.5 L 116.0 161.5 L 116.5 160.5 L 117.0 158.5 " stroke="black" fill="none" stroke-width="7.0" stroke-linecap="round" stroke-linejoin="round" />
<path d="M 117.0 146.5 L 117.0 146.5 L 116.0 147.5 L 115.5 147.5 L 115.0 148.0 L 115.0 148.0 L 115.5 148.0 L 117.0 148.0 L 119.5 147.5 L 123.0 147.0 L 126.5 146.5 L 130.5 145.5 L 133.5 145.0 L 135.5 145.0 L 136.5 145.0 L 138.0 145.0 L 139.0 145.0 L 140.0 145.0 L 141.0 145.5 L 142.0 145.5 L 143.0 145.5 L 143.5 145.5 L 144.0 146.0 L 144.5 146.0 L 144.5 146.5 L 144.5 147.5 L 144.0 149.0 L 143.5 151.5 L 142.5 155.0 L 142.0 158.5 L 141.5 161.0 L 141.5 162.5 L 141.5 163.0 L 141.5 163.0 " stroke="black" fill="none" stroke-width="7.0" stroke-linecap="round" stroke-linejoin="round" />
<path d="M 122.5 157.5 L 121.5 158.0 L 121.0 158.0 L 120.5 158.0 L 122.0 157.5 L 124.0 156.5 L 126.0 156.5 L 129.0 156.0 L 132.0 156.0 L 135.0 155.5 L 137.0 155.5 L 137.0 155.5 " stroke="black" fill="none" stroke-width="7.0" stroke-linecap="round" stroke-linejoin="round" />
<path d="M 116.0 168.0 L 115.5 168.0 L 115.5 168.0 L 115.5 167.5 L 115.5 167.0 L 116.5 167.0 L 118.0 166.5 L 121.0 166.0 L 125.0 166.0 L 130.0 165.5 L 134.5 164.5 L 137.0 164.5 L 138.5 164.0 L 138.5 164.0 L 138.5 164.0 " stroke="black" fill="none" stroke-width="7.0" stroke-linecap="round" stroke-linejoin="round" />
<path d="M 114.0 176.5 L 114.0 177.0 L 114.0 178.0 L 113.5 178.5 L 113.5 178.5 L 116.0 178.5 L 120.5 177.5 L 127.0 176.0 L 134.0 175.0 L 141.0 173.5 L 145.0 173.0 L 146.0 172.5 L 146.0 172.5 L 146.0 171.5 " stroke="black" fill="none" stroke-width="7.0" stroke-linecap="round" stroke-linejoin="round" />
<path d="M 128.0 136.0 L 128.0 136.0 L 128.0 136.0 L 128.0 136.5 L 128.0 137.0 L 128.0 137.0 L 128.0 137.0 L 128.0 137.5 L 128.0 138.5 L 128.0 141.5 L 128.0 146.0 L 128.0 152.5 L 128.0 158.5 L 128.0 164.0 L 128.0 169.0 L 128.0 173.5 L 127.5 177.0 L 127.5 180.5 L 127.5 183.5 L 127.5 186.0 L 127.5 188.5 L 127.5 191.0 L 127.5 192.5 L 127.5 193.5 L 127.5 194.5 L 127.5 195.5 L 127.5 197.0 L 127.5 198.0 L 127.5 199.0 L 127.5 199.0 L 127.5 199.5 L 128.0 199.5 L 128.0 200.0 L 128.0 200.0 L 128.0 200.0 L 128.0 200.0 L 128.0 200.0 L 128.0 200.5 L 128.0 201.0 L 128.0 201.5 L 128.0 201.5 L 128.0 202.0 L 128.0 202.0 L 128.0 202.5 L 128.0 203.0 L 128.0 203.0 L 128.5 203.5 L 128.5 203.5 L 128.5 204.0 L 128.5 204.0 L 128.5 204.0 L 128.5 204.5 L 128.5 204.5 L 128.5 204.5 L 128.5 204.5 L 128.5 204.5 L 128.5 204.5 L 128.5 204.5 L 128.5 204.5 L 128.5 204.5 L 128.5 204.5 L 128.5 204.5 L 128.5 204.5 L 128.5 205.0 L 128.5 205.0 L 128.5 205.5 L 128.5 205.5 L 128.5 205.5 L 128.5 206.0 L 128.5 206.0 L 128.5 206.0 " stroke="black" fill="none" stroke-width="7.0" stroke-linecap="round" stroke-linejoin="round" />
<path d="M 165.5 102.5 L 165.5 102.5 L 165.5 102.5 L 165.0 102.5 L 165.0 102.5 L 165.0 102.5 L 165.0 102.5 L 164.5 102.0 L 164.5 102.0 L 164.5 101.5 L 164.5 101.5 L 164.5 101.0 L 164.5 100.0 L 164.5 99.5 L 164.5 99.0 L 164.5 98.5 L 164.5 98.0 L 164.5 98.0 L 164.5 98.0 L 164.5 99.5 L 164.5 102.5 L 164.5 106.5 L 164.5 112.0 L 164.5 116.5 L 164.5 120.5 L 164.5 124.0 L 164.5 127.0 L 164.5 129.0 L 164.5 129.5 L 164.5 129.5 L 164.5 129.5 L 164.5 130.0 L 164.5 130.0 L 164.5 130.0 L 164.5 130.0 L 164.5 129.0 L 164.5 128.0 L 164.5 126.5 L 164.5 124.5 L 164.5 122.0 L 164.5 118.5 L 164.5 114.5 L 165.0 110.0 L 165.0 106.0 L 165.5 103.0 L 165.5 100.5 L 165.5 99.5 L 165.5 98.5 L 165.5 98.0 L 165.5 97.5 L 165.5 97.5 L 165.5 97.5 L 165.5 97.5 L 165.5 97.5 L 165.5 97.5 L 165.5 97.5 L 165.5 98.0 L 166.0 98.0 L 166.5 98.5 L 167.5 98.5 L 169.5 98.5 L 173.0 98.5 L 176.5 98.5 L 179.5 98.5 L 182.0 98.5 L 183.5 98.0 L 184.0 98.0 L 184.0 98.0 L 184.0 98.0 L 184.0 98.0 L 183.5 98.5 L 183.5 98.5 L 183.5 98.5 L 183.5 98.5 L 183.0 98.5 L 183.0 99.0 L 183.0 99.0 L 183.0 99.0 L 183.0 99.0 L 182.5 99.0 L 182.5 99.0 L 182.5 99.0 L 182.5 99.0 L 182.5 99.0 L 182.5 99.0 L 182.5 99.0 L 182.5 99.0 L 182.5 99.0 L 182.5 99.0 L 182.5 99.0 L 182.5 99.0 L 182.5 99.0 L 182.5 99.0 L 182.5 99.0 L 182.5 99.0 L 182.5 99.0 L 182.5 99.0 L 182.5 99.0 L 182.5 99.0 L 182.5 99.0 L 182.5 99.0 L 182.5 99.0 L 182.5 99.0 L 182.5 99.0 L 183.0 99.0 L 183.0 99.0 L 183.0 99.5 L 183.5 100.5 L 183.5 102.0 L 183.5 103.5 L 183.5 105.5 L 183.5 108.0 L 183.5 110.5 L 183.5 113.0 L 183.5 116.0 L 183.5 118.0 L 183.5 120.5 L 183.5 122.5 L 183.5 125.0 L 183.5 126.5 L 183.5 128.5 L 183.5 129.5 L 183.5 130.0 L 184.5 130.5 L 185.5 130.5 L 186.5 131.0 L 188.0 131.0 L 189.0 131.0 L 190.5 131.0 L 191.5 130.5 L 192.0 130.0 L 193.0 130.0 L 193.5 129.5 L 194.0 129.5 L 194.0 129.5 L 194.5 129.5 L 195.0 129.5 L 195.0 129.5 L 195.0 129.5 L 195.0 129.5 L 195.5 129.5 " stroke="black" fill="none" stroke-width="7.0" stroke-linecap="round" stroke-linejoin="round" />
<path d="M 168.0 147.5 L 167.5 147.5 L 167.0 147.5 L 166.5 147.5 L 166.0 147.5 L 166.0 147.5 L 167.0 147.5 L 168.5 147.0 L 171.5 147.0 L 175.0 147.0 L 178.5 147.0 L 181.5 147.0 L 183.5 147.0 L 184.5 147.0 L 185.0 147.0 L 185.0 147.0 L 185.0 147.0 L 185.0 147.5 L 185.5 148.0 L 185.5 148.0 L 186.0 148.5 L 186.0 149.5 L 186.0 150.0 L 186.0 151.0 L 186.0 152.5 L 185.5 155.0 L 184.5 158.0 L 183.5 162.0 L 181.5 166.0 L 179.0 170.5 L 176.0 175.0 L 172.5 179.5 L 169.5 183.5 L 167.5 187.5 L 166.0 190.0 L 165.5 191.0 L 165.0 191.5 L 165.0 192.0 L 165.0 192.0 L 165.5 191.5 L 166.5 190.5 " stroke="black" fill="none" stroke-width="7.0" stroke-linecap="round" stroke-linejoin="round" />
<path d="M 169.0 161.5 L 168.5 161.5 L 168.0 161.5 L 167.5 161.5 L 167.0 161.5 L 167.0 161.5 L 168.0 162.5 L 170.5 165.5 L 174.0 170.0 L 178.5 175.5 L 183.0 180.0 L 186.5 184.5 L 189.0 187.5 L 190.0 189.5 L 191.0 190.0 L 191.5 190.5 L 191.5 191.0 L 192.0 191.0 L 192.5 191.5 L 192.5 191.5 L 193.0 192.0 L 193.0 192.0 L 193.0 192.0 L 193.0 192.5 " stroke="black" fill="none" stroke-width="7.0" stroke-linecap="round" stroke-linejoin="round" />
</svg>