<svg xmlns="http://www.w3.org/2000/svg" width="300" height="300" viewBox="0 0 300 300">
<path d="M 122.77777777777779 118.8888888888889 L 120.00000000000001 118.8888888888889 L 118.8888888888889 118.8888888888889 L 118.8888888888889 118.8888888888889 L 120.55555555555556 118.8888888888889 L 124.44444444444444 118.33333333333333 L 130.00000000000003 117.22222222222221 L 135.55555555555557 116.66666666666667 L 141.11111111111111 115.55555555555556 L 144.44444444444446 115.00000000000001 L 145.55555555555557 114.44444444444444 L 145.55555555555557 114.44444444444444 " stroke="black" fill="none" stroke-width="7.0" stroke-linecap="round" stroke-linejoin="round" />
<path d="M 131.11111111111111 105.0 L 131.11111111111111 104.44444444444444 L 131.66666666666669 103.88888888888889 L 132.22222222222223 102.77777777777777 L 132.22222222222223 102.77777777777777 L 132.7777777777778 105.55555555555556 L 132.7777777777778 112.22222222222221 L 133.33333333333334 120.00000000000001 L 133.33333333333334 126.1111111111111 L 133.33333333333334 128.8888888888889 L 133.33333333333334 128.8888888888889 " stroke="black" fill="none" stroke-width="7.0" stroke-linecap="round" stroke-linejoin="round" />
<path d="M 113.33333333333333 134.44444444444446 L 112.22222222222221 134.44444444444446 L 111.11111111111111 134.44444444444446 L 111.11111111111111 134.44444444444446 L 111.11111111111111 134.44444444444446 L 114.44444444444444 134.44444444444446 L 120.55555555555556 134.44444444444446 L 132.22222222222223 134.44444444444446 L 151.11111111111111 131.66666666666669 L 169.44444444444446 128.8888888888889 L 180.55555555555557 128.33333333333334 L 185.55555555555557 128.8888888888889 L 186.11111111111114 129.44444444444446 L 186.11111111111114 129.44444444444446 L 186.11111111111114 129.44444444444446 L 185.55555555555557 128.8888888888889 L 185.00000000000003 128.8888888888889 " stroke="black" fill="none" stroke-width="7.0" stroke-linecap="round" stroke-linejoin="round" />
<path d="M 153.33333333333334 98.88888888888889 L 153.33333333333334 98.88888888888889 L 152.7777777777778 98.88888888888889 L 152.7777777777778 98.33333333333333 L 152.7777777777778 98.33333333333333 L 153.33333333333334 100.55555555555556 L 155.55555555555557 107.77777777777779 L 160.55555555555557 124.44444444444444 L 168.33333333333334 150.00000000000003 L 175.00000000000003 173.8888888888889 L 181.11111111111114 185.55555555555557 L 185.55555555555557 191.11111111111114 L 189.44444444444446 193.33333333333334 L 192.22222222222223 194.44444444444446 L 194.44444444444446 195.00000000000003 L 195.55555555555557 195.55555555555557 L 196.11111111111114 195.00000000000003 L 196.11111111111114 192.7777777777778 L 195.55555555555557 190.55555555555557 L 195.55555555555557 190.00000000000003 " stroke="black" fill="none" stroke-width="7.0" stroke-linecap="round" stroke-linejoin="round" />
<path d="M 182.22222222222223 155.55555555555557 L 182.22222222222223 155.55555555555557 L 182.7777777777778 156.11111111111111 L 183.33333333333334 156.66666666666669 L 183.33333333333334 156.66666666666669 L 183.8888888888889 157.7777777777778 L 182.7777777777778 161.66666666666669 L 178.8888888888889 169.44444444444446 L 170.55555555555557 180.00000000000003 L 163.8888888888889 185.55555555555557 L 162.7777777777778 183.33333333333334 " stroke="black" fill="none" stroke-width="7.0" stroke-linecap="round" stroke-linejoin="round" />
<path d="M 172.22222222222223 101.11111111111111 L 171.66666666666669 101.11111111111111 L 170.55555555555557 101.11111111111111 L 170.55555555555557 101.11111111111111 L 170.55555555555557 101.66666666666667 L 172.22222222222223 103.88888888888889 L 174.44444444444446 107.22222222222223 L 176.11111111111114 109.44444444444444 L 176.66666666666669 109.44444444444444 " stroke="black" fill="none" stroke-width="7.0" stroke-linecap="round" stroke-linejoin="round" />
<path d="M 117.77777777777779 150.00000000000003 L 116.1111111111111 150.00000000000003 L 114.44444444444444 150.55555555555557 L 113.8888888888889 150.55555555555557 L 117.22222222222221 150.55555555555557 L 122.77777777777779 150.55555555555557 L 130.00000000000003 150.55555555555557 L 136.66666666666669 149.44444444444446 L 142.22222222222223 147.7777777777778 L 143.33333333333334 147.7777777777778 " stroke="black" fill="none" stroke-width="7.0" stroke-linecap="round" stroke-linejoin="round" />
<path d="M 116.66666666666667 161.66666666666669 L 115.55555555555556 161.66666666666669 L 115.00000000000001 161.11111111111111 L 115.00000000000001 162.22222222222223 L 115.55555555555556 165.55555555555557 L 116.1111111111111 170.55555555555557 L 116.66666666666667 173.8888888888889 L 117.22222222222221 175.00000000000003 " stroke="black" fill="none" stroke-width="7.0" stroke-linecap="round" stroke-linejoin="round" />
<path d="M 117.77777777777779 162.7777777777778 L 117.22222222222221 162.7777777777778 L 116.66666666666667 162.7777777777778 L 116.66666666666667 162.7777777777778 L 120.00000000000001 161.66666666666669 L 125.55555555555556 160.00000000000003 L 132.22222222222223 158.8888888888889 L 137.7777777777778 158.33333333333334 L 141.11111111111111 158.33333333333334 L 142.22222222222223 159.44444444444446 L 142.7777777777778 160.55555555555557 L 142.7777777777778 162.22222222222223 L 142.7777777777778 165.55555555555557 L 142.7777777777778 170.00000000000003 L 142.22222222222223 172.7777777777778 L 141.11111111111111 174.44444444444446 L 141.11111111111111 175.00000000000003 " stroke="black" fill="none" stroke-width="7.0" stroke-linecap="round" stroke-linejoin="round" />
<path d="M 121.1111111111111 171.11111111111114 L 119.44444444444444 171.11111111111114 L 118.33333333333333 171.11111111111114 L 120.00000000000001 170.55555555555557 L 123.8888888888889 169.44444444444446 L 128.8888888888889 168.33333333333334 L 133.33333333333334 167.7777777777778 L 136.66666666666669 167.7777777777778 L 137.22222222222223 167.22222222222223 " stroke="black" fill="none" stroke-width="7.0" stroke-linecap="round" stroke-linejoin="round" />
<path d="M 120.00000000000001 178.8888888888889 L 119.44444444444444 179.44444444444446 L 117.77777777777779 180.55555555555557 L 118.33333333333333 180.55555555555557 L 121.1111111111111 179.44444444444446 L 125.55555555555556 178.8888888888889 L 130.55555555555557 177.7777777777778 L 135.00000000000003 176.66666666666669 L 136.11111111111111 176.66666666666669 " stroke="black" fill="none" stroke-width="7.0" stroke-linecap="round" stroke-linejoin="round" />
<path d="M 115.00000000000001 191.11111111111114 L 114.44444444444444 190.55555555555557 L 115.00000000000001 190.55555555555557 L 119.44444444444444 190.00000000000003 L 127.77777777777779 188.8888888888889 L 137.7777777777778 186.66666666666669 L 144.44444444444446 184.44444444444446 L 145.00000000000003 183.8888888888889 " stroke="black" fill="none" stroke-width="7.0" stroke-linecap="round" stroke-linejoin="round" />
<path d="M 127.77777777777779 138.33333333333334 L 127.77777777777779 138.8888888888889 L 127.22222222222221 140.00000000000003 L 127.22222222222221 142.7777777777778 L 128.33333333333334 150.55555555555557 L 130.00000000000003 165.55555555555557 L 131.11111111111111 185.55555555555557 L 131.66666666666669 201.66666666666669 L 131.66666666666669 207.22222222222223 L 132.22222222222223 208.8888888888889 L 132.22222222222223 208.8888888888889 " stroke="black" fill="none" stroke-width="7.0" stroke-linecap="round" stroke-linejoin="round" />
</svg>