<svg xmlns="http://www.w3.org/2000/svg" width="300" height="300" viewBox="0 0 300 300">
<path d="M 107.5 106.0 L 107.5 106.0 L 107.5 106.5 L 107.5 106.5 L 108.5 106.5 L 114.0 106.0 L 124.0 105.0 L 134.0 104.0 L 140.5 104.0 L 142.0 104.0 L 142.0 104.0 " stroke="black" fill="none" stroke-width="8.0" stroke-linecap="round" stroke-linejoin="round" />
<path d="M 111.5 121.5 L 111.5 121.0 L 111.0 120.0 L 111.0 119.5 L 111.0 119.5 L 111.0 122.0 L 111.0 127.5 L 111.0 134.0 L 111.0 140.0 L 111.0 142.0 " stroke="black" fill="none" stroke-width="8.0" stroke-linecap="round" stroke-linejoin="round" />
<path d="M 113.5 120.5 L 113.5 120.5 L 113.5 120.5 L 113.5 120.0 L 116.5 119.5 L 122.5 119.0 L 130.0 118.5 L 135.0 118.5 L 137.5 119.5 L 138.0 120.5 L 138.0 121.0 L 138.0 121.5 L 138.0 123.0 L 137.5 126.0 L 136.5 131.0 L 135.5 136.0 L 135.0 139.0 L 134.5 140.5 " stroke="black" fill="none" stroke-width="8.0" stroke-linecap="round" stroke-linejoin="round" />
<path d="M 113.0 133.5 L 113.0 133.5 L 114.0 133.5 L 115.5 133.0 L 118.0 132.0 L 122.5 131.0 L 127.0 131.0 L 130.0 131.0 " stroke="black" fill="none" stroke-width="8.0" stroke-linecap="round" stroke-linejoin="round" />
<path d="M 110.0 148.5 L 111.0 148.5 L 112.0 148.5 L 115.5 148.0 L 121.0 147.0 L 127.5 146.5 L 131.0 146.5 " stroke="black" fill="none" stroke-width="8.0" stroke-linecap="round" stroke-linejoin="round" />
<path d="M 106.5 163.5 L 106.5 163.5 L 106.5 163.5 L 108.0 163.0 L 114.5 162.5 L 124.0 161.5 L 133.0 160.5 L 138.0 160.0 L 139.5 160.0 L 139.5 160.0 L 139.5 160.0 " stroke="black" fill="none" stroke-width="8.0" stroke-linecap="round" stroke-linejoin="round" />
<path d="M 123.5 88.5 L 123.5 89.5 L 123.5 93.0 L 124.0 99.0 L 124.0 109.0 L 123.0 123.5 L 122.5 140.5 L 122.0 155.0 L 122.0 167.5 L 122.0 180.0 L 122.5 190.0 L 123.0 195.0 L 123.0 197.5 L 122.5 198.0 L 122.0 198.0 " stroke="black" fill="none" stroke-width="8.0" stroke-linecap="round" stroke-linejoin="round" />
<path d="M 157.0 98.5 L 156.5 98.5 L 156.0 98.5 L 155.5 98.5 L 156.5 99.0 L 160.5 99.0 L 166.5 99.0 L 175.0 98.5 L 184.0 98.5 L 191.0 98.5 L 194.5 99.0 L 194.5 99.5 " stroke="black" fill="none" stroke-width="8.0" stroke-linecap="round" stroke-linejoin="round" />
<path d="M 158.5 112.5 L 158.5 112.5 L 159.0 112.5 L 159.0 112.5 L 159.0 114.0 L 159.0 118.5 L 159.0 124.5 L 159.0 129.0 L 159.0 130.0 " stroke="black" fill="none" stroke-width="8.0" stroke-linecap="round" stroke-linejoin="round" />
<path d="M 159.5 113.5 L 159.5 114.0 L 159.5 114.0 L 159.5 114.0 L 160.5 114.0 L 163.0 113.5 L 167.0 113.5 L 173.5 113.5 L 180.5 113.5 L 187.0 113.0 L 190.5 113.0 L 192.0 113.5 L 192.0 114.0 L 192.0 114.0 L 192.0 114.5 L 192.0 115.0 L 192.5 115.5 L 192.5 116.0 L 192.5 117.5 L 192.5 119.0 L 192.0 121.5 L 191.5 125.5 L 191.0 130.5 L 190.5 135.0 L 190.5 137.5 L 190.5 138.0 L 190.5 138.0 " stroke="black" fill="none" stroke-width="8.0" stroke-linecap="round" stroke-linejoin="round" />
<path d="M 165.5 126.5 L 165.5 126.5 L 165.5 126.5 L 166.5 126.5 L 169.5 126.5 L 175.0 126.5 L 181.0 126.5 L 185.5 126.5 " stroke="black" fill="none" stroke-width="8.0" stroke-linecap="round" stroke-linejoin="round" />
<path d="M 160.0 139.0 L 160.0 139.0 L 160.0 139.0 L 160.0 139.0 L 160.0 139.0 L 163.0 139.0 L 169.0 139.0 L 177.5 138.5 L 184.0 138.5 L 188.0 138.0 L 189.0 137.5 " stroke="black" fill="none" stroke-width="8.0" stroke-linecap="round" stroke-linejoin="round" />
<path d="M 176.0 93.5 L 176.0 93.0 L 176.0 92.5 L 176.0 91.5 L 176.0 91.5 L 176.0 91.5 L 176.0 93.0 L 176.0 97.0 L 176.0 103.0 L 176.0 111.5 L 176.0 120.0 L 176.0 128.0 L 175.5 135.0 L 174.5 142.0 L 174.0 147.0 L 174.0 150.0 L 173.5 151.5 L 173.5 151.5 L 173.5 151.5 L 173.5 151.5 " stroke="black" fill="none" stroke-width="8.0" stroke-linecap="round" stroke-linejoin="round" />
<path d="M 156.0 153.5 L 156.0 154.0 L 156.0 154.5 L 156.5 154.5 L 158.0 154.5 L 162.5 154.0 L 169.5 153.0 L 176.0 152.5 L 180.5 152.0 L 184.0 152.5 L 186.0 152.5 L 188.0 151.5 L 189.5 150.0 " stroke="black" fill="none" stroke-width="8.0" stroke-linecap="round" stroke-linejoin="round" />
<path d="M 189.5 147.0 L 189.5 147.0 L 188.5 147.0 L 188.5 147.0 L 188.5 148.5 L 191.0 151.5 L 194.0 156.0 L 196.5 159.5 L 198.5 162.0 L 198.5 162.0 " stroke="black" fill="none" stroke-width="8.0" stroke-linecap="round" stroke-linejoin="round" />
<path d="M 156.5 169.0 L 156.5 168.5 L 157.0 168.0 L 157.5 167.5 L 159.0 167.5 L 161.5 168.0 L 166.0 168.5 L 171.5 169.5 L 178.0 169.5 L 183.0 169.5 L 186.5 169.5 L 187.0 169.0 " stroke="black" fill="none" stroke-width="8.0" stroke-linecap="round" stroke-linejoin="round" />
<path d="M 177.0 161.5 L 177.0 161.5 L 177.5 162.0 L 177.5 162.5 L 177.5 163.0 L 178.5 165.0 L 179.5 169.5 L 181.0 177.0 L 182.0 186.5 L 182.5 195.0 L 183.0 200.0 L 183.5 203.0 L 183.0 205.5 L 181.5 206.5 L 180.0 207.0 L 177.5 205.5 L 175.0 203.5 L 173.0 201.5 " stroke="black" fill="none" stroke-width="8.0" stroke-linecap="round" stroke-linejoin="round" />
<path d="M 158.0 186.0 L 158.0 186.0 L 158.0 186.0 L 158.0 186.5 L 158.5 186.5 L 161.5 186.5 L 165.0 187.5 L 169.0 189.5 L 169.5 190.5 " stroke="black" fill="none" stroke-width="8.0" stroke-linecap="round" stroke-linejoin="round" />
</svg>