<svg xmlns="http://www.w3.org/2000/svg" width="300" height="300" viewBox="0 0 300 300">
<path d="M 158.5 86.0 L 159.0 86.0 L 159.0 86.5 L 159.5 86.5 L 159.5 87.0 L 159.5 87.5 L 159.0 89.0 L 156.0 92.5 L 151.0 97.5 L 145.0 102.5 L 141.5 106.0 L 141.5 106.0 " stroke="black" fill="none" stroke-width="7.0" stroke-linecap="round" stroke-linejoin="round" />
<path d="M 160.0 93.5 L 159.0 94.0 L 158.0 94.5 L 157.5 94.5 L 157.0 94.5 L 157.5 94.5 L 158.5 94.5 L 160.5 94.5 L 163.0 94.5 L 167.0 94.5 L 173.0 94.5 L 179.5 94.5 L 184.0 95.0 L 185.5 96.0 L 186.0 96.5 L 185.5 97.5 L 185.0 98.0 L 184.0 98.5 L 183.0 100.0 L 181.5 101.5 L 179.0 103.5 L 175.0 107.0 L 169.5 112.0 L 162.0 118.0 L 153.5 123.5 L 147.5 125.5 L 145.5 125.5 L 146.0 125.0 L 146.5 124.5 " stroke="black" fill="none" stroke-width="7.0" stroke-linecap="round" stroke-linejoin="round" />
<path d="M 162.0 105.0 L 161.5 105.0 L 160.5 105.0 L 160.0 105.0 L 159.0 104.5 L 158.5 104.5 L 157.5 104.0 L 156.0 104.0 L 154.5 103.5 L 154.0 103.5 L 154.0 104.0 L 157.0 104.5 L 160.5 105.0 L 163.5 106.0 L 164.0 106.0 " stroke="black" fill="none" stroke-width="7.0" stroke-linecap="round" stroke-linejoin="round" />
<path d="M 146.5 113.0 L 146.5 113.0 L 145.5 113.0 L 145.5 113.0 L 146.5 113.5 L 149.0 114.5 L 152.5 115.5 " stroke="black" fill="none" stroke-width="7.0" stroke-linecap="round" stroke-linejoin="round" />
<path d="M 145.5 134.5 L 145.5 134.5 L 145.5 134.5 L 145.5 134.5 L 146.0 134.0 L 146.0 134.0 L 146.5 134.0 L 146.5 134.0 L 145.5 136.0 L 143.0 139.5 L 140.0 143.0 L 138.5 145.0 " stroke="black" fill="none" stroke-width="7.0" stroke-linecap="round" stroke-linejoin="round" />
<path d="M 151.0 138.0 L 150.5 138.5 L 149.5 138.5 L 149.0 139.0 L 149.0 139.0 L 150.0 138.5 L 153.0 138.0 L 158.0 137.5 L 165.0 137.0 L 173.5 136.5 L 181.0 136.0 L 184.5 136.0 L 185.0 136.5 L 184.5 136.5 L 184.5 136.5 " stroke="black" fill="none" stroke-width="7.0" stroke-linecap="round" stroke-linejoin="round" />
<path d="M 149.5 152.5 L 148.5 153.5 L 147.5 154.0 L 147.0 154.5 L 146.5 154.5 L 146.5 154.5 L 147.5 154.5 L 149.5 154.0 L 153.0 153.0 L 159.0 152.5 L 166.5 151.5 L 173.5 151.0 L 179.0 150.5 L 182.0 150.5 L 182.5 150.5 L 183.0 151.0 L 182.5 151.0 L 182.5 151.0 L 182.0 150.5 L 182.0 150.5 " stroke="black" fill="none" stroke-width="7.0" stroke-linecap="round" stroke-linejoin="round" />
<path d="M 167.0 142.0 L 166.5 141.5 L 166.0 141.5 L 166.0 141.0 L 166.0 141.0 L 166.0 141.0 L 166.0 142.0 L 166.0 145.0 L 165.5 150.5 L 165.0 158.5 L 165.0 164.5 L 165.0 166.5 L 165.0 167.0 L 165.0 166.0 " stroke="black" fill="none" stroke-width="7.0" stroke-linecap="round" stroke-linejoin="round" />
<path d="M 151.5 164.5 L 151.5 164.5 L 151.5 164.0 L 151.5 163.0 L 151.5 163.0 L 151.5 162.5 L 151.5 162.5 L 151.5 162.5 L 151.5 163.5 L 151.5 166.0 L 151.5 168.5 L 151.5 170.5 L 151.5 171.5 L 152.0 172.0 L 153.0 172.0 " stroke="black" fill="none" stroke-width="7.0" stroke-linecap="round" stroke-linejoin="round" />
<path d="M 152.5 171.5 L 152.5 171.5 L 152.0 171.5 L 151.5 172.0 L 151.5 172.0 L 151.5 172.5 L 152.5 172.5 L 155.0 172.0 L 158.5 171.5 L 163.0 171.0 L 168.0 171.0 L 171.5 171.0 L 174.5 171.0 L 176.5 171.0 L 177.5 171.0 L 178.0 171.0 L 178.5 171.0 L 178.5 171.0 " stroke="black" fill="none" stroke-width="7.0" stroke-linecap="round" stroke-linejoin="round" />
<path d="M 182.0 163.5 L 182.0 163.5 L 181.5 163.5 L 181.5 163.5 L 181.0 164.0 L 181.0 166.5 L 181.0 170.0 L 181.0 174.0 L 181.0 176.5 " stroke="black" fill="none" stroke-width="7.0" stroke-linecap="round" stroke-linejoin="round" />
<path d="M 117.0 102.0 L 117.0 102.0 L 117.0 102.0 L 117.0 101.5 L 117.5 101.5 L 119.0 102.5 L 121.5 104.0 L 124.0 106.0 L 124.5 106.0 " stroke="black" fill="none" stroke-width="7.0" stroke-linecap="round" stroke-linejoin="round" />
<path d="M 121.0 121.5 L 119.5 121.5 L 118.0 121.5 L 117.5 121.5 L 118.5 121.0 L 121.0 121.0 L 123.5 121.0 L 125.5 122.0 L 126.0 124.0 L 125.0 128.0 L 121.5 132.5 L 119.5 135.0 L 119.0 136.5 L 120.5 137.5 L 123.0 139.0 L 125.5 141.0 L 127.0 144.0 L 127.5 149.0 L 126.5 155.5 L 123.5 163.0 L 119.5 168.0 L 115.0 172.0 L 111.5 174.0 L 109.5 174.5 L 109.0 174.5 L 108.5 174.5 L 108.5 174.5 L 109.0 174.0 L 109.5 173.5 L 110.5 173.5 L 111.0 173.0 L 112.5 173.0 L 113.5 173.0 L 115.0 173.0 L 118.0 173.5 L 121.5 175.0 L 128.0 177.5 L 137.0 180.0 L 148.5 181.0 L 160.0 181.5 L 170.5 182.5 L 180.5 183.5 L 190.0 185.0 L 194.5 185.5 " stroke="black" fill="none" stroke-width="7.0" stroke-linecap="round" stroke-linejoin="round" />
</svg>