<svg xmlns="http://www.w3.org/2000/svg" width="300" height="300" viewBox="0 0 300 300">
<path d="M 140.5 74.5 L 140.0 74.0 L 139.5 73.5 L 139.5 73.5 L 142.5 76.0 L 147.0 81.5 L 152.5 87.5 L 156.5 90.0 L 158.5 90.0 L 159.0 90.0 " stroke="black" fill="none" stroke-width="10.0" stroke-linecap="round" stroke-linejoin="round" />
<path d="M 209.0 77.0 L 209.0 77.0 L 208.0 77.0 L 207.5 76.5 L 207.5 77.0 L 206.5 79.0 L 205.0 82.5 L 202.0 86.0 L 198.5 89.5 L 197.0 91.0 " stroke="black" fill="none" stroke-width="10.0" stroke-linecap="round" stroke-linejoin="round" />
<path d="M 133.0 103.0 L 133.0 103.0 L 132.5 103.5 L 132.5 103.5 L 134.5 103.5 L 141.5 103.0 L 153.5 102.0 L 169.5 101.5 L 185.0 101.0 L 197.0 101.0 L 206.5 101.0 L 211.5 101.0 L 211.5 101.5 L 211.0 102.5 L 209.5 102.5 L 209.0 102.5 " stroke="black" fill="none" stroke-width="10.0" stroke-linecap="round" stroke-linejoin="round" />
<path d="M 176.0 106.0 L 176.0 106.0 L 176.0 106.0 L 176.0 106.0 L 175.5 107.0 L 173.5 111.0 L 171.0 116.0 L 169.5 119.5 L 169.0 120.5 " stroke="black" fill="none" stroke-width="10.0" stroke-linecap="round" stroke-linejoin="round" />
<path d="M 139.0 133.0 L 139.0 133.0 L 139.0 133.5 L 139.0 133.5 L 139.0 134.0 L 139.5 135.5 L 139.5 139.0 L 139.5 145.5 L 139.5 155.5 L 139.5 166.0 L 139.5 174.0 L 140.0 181.5 L 140.0 189.5 L 140.5 196.5 L 140.5 203.0 L 140.5 208.5 L 140.5 214.0 L 140.5 218.5 L 141.0 221.0 L 141.5 221.0 L 141.0 220.0 L 139.0 216.5 L 136.5 214.0 " stroke="black" fill="none" stroke-width="10.0" stroke-linecap="round" stroke-linejoin="round" />
<path d="M 138.5 133.5 L 138.5 133.5 L 138.5 134.0 L 139.0 134.0 L 140.0 134.0 L 143.5 134.0 L 149.5 133.5 L 158.5 133.5 L 169.0 133.0 L 178.5 132.5 L 186.0 132.5 L 191.0 132.5 L 194.0 133.0 L 195.5 133.5 L 197.0 133.5 L 198.0 133.5 L 199.0 133.5 L 199.0 133.5 L 199.0 133.5 L 199.5 133.5 L 199.5 133.5 L 199.5 133.5 L 200.0 133.5 L 200.0 133.5 L 200.0 133.5 L 200.5 133.5 L 201.0 133.5 L 201.0 133.5 L 201.5 133.5 L 201.5 133.5 L 202.0 133.5 L 202.0 133.5 L 202.5 133.5 L 202.5 133.5 L 202.5 133.5 L 203.0 133.5 L 203.0 133.5 L 203.0 133.5 L 203.5 133.5 L 203.5 133.5 L 203.5 133.5 L 203.5 134.0 L 203.5 135.5 L 203.5 138.5 L 204.0 142.5 L 204.5 148.0 L 205.0 153.5 L 205.5 159.5 L 205.5 166.0 L 205.5 172.0 L 206.0 178.0 L 206.0 183.5 L 206.0 189.0 L 206.0 194.5 L 206.5 199.5 L 206.5 203.5 L 207.0 208.0 L 207.0 212.0 L 207.5 215.0 L 207.5 216.5 L 207.5 218.0 L 207.5 218.5 L 207.5 219.0 L 207.0 219.0 L 206.0 219.0 L 205.0 219.0 L 205.0 218.5 " stroke="black" fill="none" stroke-width="10.0" stroke-linecap="round" stroke-linejoin="round" />
<path d="M 148.5 162.0 L 148.0 162.0 L 147.0 161.5 L 146.5 161.5 L 147.5 161.0 L 152.0 160.0 L 158.5 159.5 L 167.5 159.5 L 176.0 160.0 L 184.5 160.5 L 189.0 160.5 L 190.0 160.5 L 190.0 160.5 L 189.5 160.5 L 189.5 160.0 L 189.5 160.0 L 189.5 159.5 L 190.0 159.5 " stroke="black" fill="none" stroke-width="10.0" stroke-linecap="round" stroke-linejoin="round" />
<path d="M 153.5 186.5 L 153.5 186.5 L 153.5 186.5 L 153.0 186.5 L 153.0 186.5 L 153.0 186.5 L 154.0 186.5 L 156.0 186.0 L 161.0 186.0 L 169.0 186.0 L 179.5 186.0 L 188.0 185.5 L 194.5 185.5 L 199.5 185.0 L 202.5 185.0 L 204.5 184.5 L 204.5 184.5 L 204.5 184.0 L 203.5 184.0 L 202.5 184.0 " stroke="black" fill="none" stroke-width="10.0" stroke-linecap="round" stroke-linejoin="round" />
<path d="M 148.0 221.5 L 148.0 222.0 L 147.5 222.5 L 148.0 222.5 L 151.5 222.0 L 158.0 221.5 L 167.5 220.5 L 178.0 219.5 L 187.5 218.0 L 194.0 217.5 L 196.0 217.5 L 196.5 217.5 L 196.5 217.0 L 195.5 215.5 L 195.0 215.5 " stroke="black" fill="none" stroke-width="10.0" stroke-linecap="round" stroke-linejoin="round" />
<path d="M 78.0 79.5 L 78.0 79.5 L 77.5 79.5 L 77.5 79.5 L 79.0 81.5 L 82.5 85.5 L 85.5 89.0 L 87.5 91.5 L 88.0 93.0 " stroke="black" fill="none" stroke-width="10.0" stroke-linecap="round" stroke-linejoin="round" />
<path d="M 71.5 118.0 L 71.5 118.0 L 71.5 118.0 L 71.5 118.0 L 72.0 118.0 L 74.5 117.5 L 80.0 116.5 L 88.5 115.5 L 95.5 115.0 L 99.5 115.0 L 100.0 115.5 L 99.5 116.0 L 99.0 117.0 L 98.0 118.0 L 97.5 120.0 L 97.0 122.0 L 96.0 125.5 L 94.0 130.0 L 91.5 135.0 L 89.0 141.0 L 86.0 146.5 L 83.0 151.5 L 80.5 155.0 L 79.0 157.0 L 79.0 157.5 L 79.0 157.5 L 79.5 157.0 L 80.0 156.5 L 81.0 156.0 L 82.0 155.0 L 83.5 154.0 L 85.5 153.0 L 88.5 152.5 L 91.5 152.5 L 94.5 152.5 L 96.0 153.0 L 96.5 154.0 L 97.0 155.5 L 97.5 157.0 L 98.0 159.5 L 99.0 162.0 L 99.5 164.5 L 100.0 167.0 L 100.0 170.0 L 100.5 173.0 L 100.5 177.0 L 100.0 181.5 L 99.0 186.5 L 97.5 191.0 L 96.0 195.5 L 94.0 200.5 L 92.0 205.5 L 90.0 210.5 L 87.5 215.5 L 84.5 220.0 L 81.5 225.0 L 79.0 230.5 L 77.0 234.5 L 75.5 237.0 L 75.0 238.5 L 74.5 238.5 L 74.5 238.5 L 74.5 238.5 L 74.5 238.5 L 74.5 238.5 L 74.5 238.5 L 74.5 238.5 L 74.5 238.5 L 74.5 238.5 L 74.5 238.5 L 74.5 238.5 L 74.5 238.5 L 74.5 238.5 L 74.5 238.5 " stroke="black" fill="none" stroke-width="10.0" stroke-linecap="round" stroke-linejoin="round" />
<path d="M 88.5 227.5 L 88.5 227.5 L 88.5 227.5 L 89.0 227.5 L 89.5 228.0 L 91.5 228.5 L 94.0 229.5 L 97.0 230.5 L 101.0 231.0 L 105.5 232.0 L 112.0 233.0 L 120.0 234.0 L 128.5 235.5 L 137.0 237.5 L 145.5 239.0 L 154.0 240.5 L 164.5 241.0 L 175.5 241.5 L 187.5 242.0 L 200.0 242.5 L 212.0 242.5 L 222.5 242.5 L 233.0 242.5 L 241.0 242.5 L 247.5 242.0 L 251.0 241.5 L 251.5 241.5 L 251.5 241.5 L 251.0 241.5 L 250.5 241.5 L 250.5 241.5 " stroke="black" fill="none" stroke-width="10.0" stroke-linecap="round" stroke-linejoin="round" />
</svg>