<svg xmlns="http://www.w3.org/2000/svg" width="300" height="300" viewBox="0 0 300 300">
<path d="M 152.7777777777778 98.33333333333333 L 152.7777777777778 97.22222222222223 L 152.22222222222223 96.66666666666667 L 152.22222222222223 96.66666666666667 L 154.44444444444446 97.77777777777777 L 157.7777777777778 99.44444444444444 L 160.55555555555557 100.55555555555556 L 163.33333333333334 101.11111111111111 " stroke="black" fill="none" stroke-width="7.0" stroke-linecap="round" stroke-linejoin="round" />
<path d="M 178.33333333333334 92.22222222222223 L 178.33333333333334 92.22222222222223 L 178.8888888888889 91.66666666666667 L 179.44444444444446 91.66666666666667 L 179.44444444444446 92.22222222222223 L 178.33333333333334 93.88888888888889 L 177.22222222222223 96.11111111111111 L 176.66666666666669 97.77777777777777 " stroke="black" fill="none" stroke-width="7.0" stroke-linecap="round" stroke-linejoin="round" />
<path d="M 148.33333333333334 110.55555555555556 L 147.22222222222223 110.55555555555556 L 146.66666666666669 110.55555555555556 L 147.7777777777778 110.55555555555556 L 153.33333333333334 111.11111111111111 L 164.44444444444446 110.0 L 177.22222222222223 107.77777777777779 L 186.66666666666669 106.66666666666667 L 190.55555555555557 106.66666666666667 L 191.11111111111114 108.33333333333333 " stroke="black" fill="none" stroke-width="7.0" stroke-linecap="round" stroke-linejoin="round" />
<path d="M 148.8888888888889 127.77777777777779 L 148.33333333333334 127.22222222222221 L 147.7777777777778 126.66666666666667 L 147.7777777777778 126.66666666666667 L 148.33333333333334 129.44444444444446 L 149.44444444444446 135.55555555555557 L 150.00000000000003 142.22222222222223 L 150.55555555555557 147.22222222222223 L 150.55555555555557 148.8888888888889 " stroke="black" fill="none" stroke-width="7.0" stroke-linecap="round" stroke-linejoin="round" />
<path d="M 149.44444444444446 125.00000000000001 L 148.33333333333334 124.44444444444444 L 147.22222222222223 123.8888888888889 L 147.22222222222223 123.8888888888889 L 147.22222222222223 123.33333333333333 L 147.7777777777778 123.33333333333333 L 149.44444444444446 123.33333333333333 L 150.55555555555557 122.77777777777779 L 151.66666666666669 122.77777777777779 L 152.7777777777778 122.77777777777779 L 153.8888888888889 122.77777777777779 L 155.55555555555557 122.77777777777779 L 158.8888888888889 121.66666666666667 L 163.33333333333334 120.55555555555556 L 167.7777777777778 120.00000000000001 L 170.00000000000003 120.00000000000001 L 171.66666666666669 120.00000000000001 L 172.22222222222223 121.1111111111111 L 173.8888888888889 121.1111111111111 L 176.11111111111114 121.1111111111111 L 178.33333333333334 121.66666666666667 L 181.11111111111114 121.66666666666667 L 183.8888888888889 121.66666666666667 L 186.11111111111114 121.66666666666667 L 187.7777777777778 121.66666666666667 L 188.8888888888889 121.66666666666667 L 188.8888888888889 121.66666666666667 L 188.8888888888889 121.66666666666667 L 188.8888888888889 121.66666666666667 L 188.8888888888889 121.66666666666667 L 188.8888888888889 121.66666666666667 L 188.8888888888889 121.66666666666667 L 188.8888888888889 121.66666666666667 L 188.8888888888889 121.66666666666667 L 188.8888888888889 121.66666666666667 L 188.8888888888889 121.66666666666667 L 188.8888888888889 121.66666666666667 L 188.8888888888889 121.66666666666667 L 188.8888888888889 121.66666666666667 L 188.8888888888889 121.66666666666667 L 188.8888888888889 121.66666666666667 L 188.8888888888889 121.66666666666667 L 188.8888888888889 121.66666666666667 L 188.8888888888889 122.22222222222221 L 188.8888888888889 123.8888888888889 L 188.8888888888889 127.22222222222221 L 188.33333333333334 133.33333333333334 L 188.33333333333334 140.00000000000003 L 188.33333333333334 145.55555555555557 L 188.33333333333334 149.44444444444446 L 188.33333333333334 151.11111111111111 L 188.33333333333334 151.11111111111111 L 188.33333333333334 151.11111111111111 " stroke="black" fill="none" stroke-width="7.0" stroke-linecap="round" stroke-linejoin="round" />
<path d="M 163.33333333333334 110.55555555555556 L 163.33333333333334 110.0 L 163.33333333333334 109.44444444444444 L 163.33333333333334 108.88888888888889 L 163.33333333333334 109.44444444444444 L 163.8888888888889 112.22222222222221 L 163.8888888888889 118.8888888888889 L 162.22222222222223 127.77777777777779 L 160.00000000000003 136.11111111111111 L 160.00000000000003 138.8888888888889 L 160.00000000000003 137.7777777777778 " stroke="black" fill="none" stroke-width="7.0" stroke-linecap="round" stroke-linejoin="round" />
<path d="M 172.22222222222223 113.33333333333333 L 171.11111111111114 113.33333333333333 L 170.55555555555557 113.33333333333333 L 170.55555555555557 114.44444444444444 L 170.55555555555557 117.77777777777779 L 170.55555555555557 123.33333333333333 L 170.55555555555557 128.8888888888889 L 170.55555555555557 132.7777777777778 L 172.22222222222223 133.8888888888889 L 173.8888888888889 133.8888888888889 L 176.11111111111114 132.22222222222223 L 176.66666666666669 131.66666666666669 L 177.22222222222223 131.66666666666669 " stroke="black" fill="none" stroke-width="7.0" stroke-linecap="round" stroke-linejoin="round" />
<path d="M 166.66666666666669 146.11111111111111 L 166.11111111111114 146.11111111111111 L 166.11111111111114 145.55555555555557 L 166.66666666666669 145.00000000000003 L 168.8888888888889 145.00000000000003 L 171.11111111111114 145.00000000000003 L 172.22222222222223 145.00000000000003 " stroke="black" fill="none" stroke-width="7.0" stroke-linecap="round" stroke-linejoin="round" />
<path d="M 152.7777777777778 156.66666666666669 L 152.7777777777778 156.66666666666669 L 153.33333333333334 156.66666666666669 L 155.00000000000003 157.22222222222223 L 158.8888888888889 156.66666666666669 L 165.00000000000003 155.00000000000003 L 171.66666666666669 153.8888888888889 L 177.22222222222223 153.33333333333334 L 181.66666666666669 153.33333333333334 " stroke="black" fill="none" stroke-width="7.0" stroke-linecap="round" stroke-linejoin="round" />
<path d="M 152.7777777777778 170.00000000000003 L 152.7777777777778 170.00000000000003 L 152.7777777777778 169.44444444444446 L 153.8888888888889 168.8888888888889 L 157.22222222222223 168.33333333333334 L 164.44444444444446 167.7777777777778 L 172.7777777777778 166.66666666666669 L 181.66666666666669 165.00000000000003 L 189.44444444444446 163.33333333333334 L 191.11111111111114 164.44444444444446 L 191.11111111111114 165.55555555555557 " stroke="black" fill="none" stroke-width="7.0" stroke-linecap="round" stroke-linejoin="round" />
<path d="M 178.8888888888889 157.22222222222223 L 178.8888888888889 157.22222222222223 L 178.8888888888889 157.7777777777778 L 178.8888888888889 157.7777777777778 L 178.8888888888889 158.8888888888889 L 179.44444444444446 161.11111111111111 L 179.44444444444446 166.66666666666669 L 180.00000000000003 173.33333333333334 L 180.00000000000003 181.66666666666669 L 180.00000000000003 189.44444444444446 L 180.00000000000003 194.44444444444446 L 180.00000000000003 196.66666666666669 L 178.8888888888889 197.7777777777778 L 176.66666666666669 198.33333333333334 L 173.8888888888889 198.33333333333334 L 171.66666666666669 197.7777777777778 L 170.00000000000003 196.66666666666669 L 170.00000000000003 195.55555555555557 " stroke="black" fill="none" stroke-width="7.0" stroke-linecap="round" stroke-linejoin="round" />
<path d="M 163.8888888888889 180.00000000000003 L 162.7777777777778 180.00000000000003 L 162.22222222222223 180.55555555555557 L 162.7777777777778 181.11111111111114 L 165.55555555555557 182.22222222222223 L 167.7777777777778 183.33333333333334 L 168.33333333333334 183.8888888888889 " stroke="black" fill="none" stroke-width="7.0" stroke-linecap="round" stroke-linejoin="round" />
<path d="M 118.8888888888889 114.44444444444444 L 117.22222222222221 114.44444444444444 L 116.66666666666667 114.44444444444444 L 116.66666666666667 114.44444444444444 L 117.22222222222221 115.55555555555556 L 119.44444444444444 117.22222222222221 L 121.1111111111111 119.44444444444444 L 123.33333333333333 121.1111111111111 " stroke="black" fill="none" stroke-width="7.0" stroke-linecap="round" stroke-linejoin="round" />
<path d="M 119.44444444444444 135.55555555555557 L 118.33333333333333 135.55555555555557 L 117.22222222222221 135.55555555555557 L 116.66666666666667 135.55555555555557 L 117.22222222222221 135.00000000000003 L 120.55555555555556 135.00000000000003 L 124.44444444444444 135.00000000000003 L 127.77777777777779 135.00000000000003 L 130.00000000000003 137.22222222222223 L 130.00000000000003 141.66666666666669 L 126.1111111111111 147.7777777777778 L 122.77777777777779 151.66666666666669 L 121.66666666666667 152.7777777777778 L 121.66666666666667 152.7777777777778 L 124.44444444444444 152.7777777777778 L 127.22222222222221 152.7777777777778 L 130.00000000000003 155.00000000000003 L 132.7777777777778 158.33333333333334 L 133.8888888888889 163.8888888888889 L 133.8888888888889 170.55555555555557 L 131.66666666666669 178.33333333333334 L 127.77777777777779 184.44444444444446 L 123.8888888888889 190.55555555555557 L 121.1111111111111 196.11111111111114 L 120.00000000000001 199.44444444444446 L 119.44444444444444 202.22222222222223 L 118.8888888888889 202.7777777777778 L 118.8888888888889 202.7777777777778 L 118.33333333333333 202.22222222222223 L 117.22222222222221 201.66666666666669 L 116.66666666666667 201.66666666666669 L 116.66666666666667 201.66666666666669 L 116.1111111111111 201.66666666666669 L 116.1111111111111 201.66666666666669 L 116.1111111111111 201.66666666666669 L 116.1111111111111 201.66666666666669 L 116.1111111111111 201.66666666666669 L 116.1111111111111 201.66666666666669 L 116.66666666666667 201.66666666666669 L 117.77777777777779 201.66666666666669 L 118.33333333333333 202.22222222222223 L 120.00000000000001 202.22222222222223 L 122.77777777777779 202.22222222222223 L 127.77777777777779 202.22222222222223 L 134.44444444444446 202.7777777777778 L 142.22222222222223 203.8888888888889 L 150.00000000000003 205.00000000000003 L 158.33333333333334 207.22222222222223 L 166.66666666666669 208.8888888888889 L 175.00000000000003 209.44444444444446 L 185.55555555555557 208.8888888888889 L 195.55555555555557 207.7777777777778 L 197.7777777777778 207.7777777777778 " stroke="black" fill="none" stroke-width="7.0" stroke-linecap="round" stroke-linejoin="round" />
</svg>