<svg xmlns="http://www.w3.org/2000/svg" width="300" height="300" viewBox="0 0 300 300">
<path d="M 152.0 116.0 L 152.0 116.0 L 152.0 115.5 L 152.0 114.5 L 152.0 113.5 L 152.0 113.0 L 152.0 112.0 L 152.0 112.0 L 152.5 112.5 L 153.0 119.0 L 153.0 133.0 L 153.0 149.0 L 152.0 159.0 L 151.5 163.5 L 151.5 165.5 L 151.5 165.5 L 151.5 163.5 L 151.5 161.0 " stroke="black" fill="none" stroke-width="6.0" stroke-linecap="round" stroke-linejoin="round" />
<path d="M 156.0 111.5 L 156.0 111.5 L 156.5 112.0 L 157.0 112.0 L 157.5 112.0 L 158.5 112.0 L 161.5 111.5 L 167.0 111.0 L 174.0 111.0 L 180.0 110.5 L 184.0 110.5 L 184.5 110.5 L 184.0 110.5 L 183.5 110.5 L 183.0 110.5 L 183.0 110.5 L 183.0 110.5 L 182.5 111.0 L 182.5 112.5 L 182.5 115.0 L 182.5 119.0 L 182.5 125.5 L 183.0 135.0 L 183.5 145.5 L 184.0 154.0 L 184.0 161.5 L 183.5 167.0 L 182.0 171.0 L 180.5 173.5 L 179.0 174.0 L 178.0 174.0 L 176.0 172.0 L 173.5 168.5 " stroke="black" fill="none" stroke-width="6.0" stroke-linecap="round" stroke-linejoin="round" />
<path d="M 162.0 128.5 L 161.0 129.0 L 159.5 129.5 L 159.5 129.5 L 161.0 129.5 L 164.5 129.5 L 168.0 129.0 L 170.5 128.5 L 172.5 128.0 L 173.0 128.0 " stroke="black" fill="none" stroke-width="6.0" stroke-linecap="round" stroke-linejoin="round" />
<path d="M 168.5 115.5 L 168.0 115.5 L 167.0 115.5 L 166.5 116.0 L 166.5 116.0 L 166.5 116.5 L 167.0 119.0 L 167.0 125.0 L 167.0 133.0 L 167.0 138.0 L 167.0 139.5 L 167.0 139.5 " stroke="black" fill="none" stroke-width="6.0" stroke-linecap="round" stroke-linejoin="round" />
<path d="M 156.0 140.0 L 156.0 140.0 L 155.5 140.0 L 155.5 140.5 L 158.5 140.5 L 164.5 140.0 L 172.5 139.5 L 177.5 139.5 L 179.0 139.5 L 179.0 139.5 " stroke="black" fill="none" stroke-width="6.0" stroke-linecap="round" stroke-linejoin="round" />
<path d="M 163.0 150.0 L 163.0 149.5 L 163.0 148.5 L 163.0 148.0 L 163.0 148.0 L 163.0 150.5 L 163.0 154.0 L 163.0 157.0 L 163.0 159.5 L 163.0 160.5 " stroke="black" fill="none" stroke-width="6.0" stroke-linecap="round" stroke-linejoin="round" />
<path d="M 163.5 150.0 L 163.5 149.5 L 163.0 149.0 L 163.0 149.0 L 164.5 149.0 L 167.0 149.0 L 169.5 149.0 L 172.0 149.0 L 173.5 149.0 L 175.0 150.0 L 175.5 151.0 L 176.0 152.0 L 176.0 153.5 L 175.5 155.0 L 174.5 157.0 L 173.5 158.5 L 173.0 158.5 " stroke="black" fill="none" stroke-width="6.0" stroke-linecap="round" stroke-linejoin="round" />
<path d="M 166.0 159.5 L 165.0 160.0 L 164.0 160.5 L 164.0 160.5 L 165.0 160.5 L 167.5 160.0 L 170.0 159.5 L 171.5 159.5 " stroke="black" fill="none" stroke-width="6.0" stroke-linecap="round" stroke-linejoin="round" />
<path d="M 136.5 111.0 L 136.5 111.0 L 136.5 111.5 L 136.5 112.0 L 136.5 112.0 L 137.5 113.0 L 139.0 114.0 L 140.5 115.0 L 141.5 115.5 " stroke="black" fill="none" stroke-width="6.0" stroke-linecap="round" stroke-linejoin="round" />
<path d="M 133.0 130.0 L 133.0 130.0 L 133.5 130.5 L 133.5 130.5 L 134.0 130.5 L 135.5 130.0 L 138.0 129.5 L 140.5 129.0 L 142.5 129.0 L 144.0 129.5 L 144.5 131.0 L 144.5 133.0 L 143.5 136.0 L 141.5 140.5 L 139.0 144.5 L 137.5 147.0 L 137.0 147.5 L 137.0 147.5 L 138.0 147.5 L 140.0 147.5 L 142.0 147.5 L 144.0 148.0 L 145.0 150.0 L 145.0 154.0 L 143.0 160.0 L 139.5 166.5 L 135.5 172.0 L 131.5 175.5 L 128.5 178.0 L 126.0 180.0 L 125.0 181.0 L 125.0 181.5 L 125.0 181.5 L 125.0 181.5 L 125.0 181.0 L 125.5 181.0 L 126.0 180.5 L 127.5 179.5 L 129.5 179.5 L 132.5 179.0 L 136.5 179.0 L 142.5 179.0 L 149.5 180.0 L 157.0 181.0 L 164.5 182.0 L 173.0 182.0 L 181.5 181.5 L 190.5 180.0 L 198.0 178.0 L 201.0 177.0 L 200.5 176.5 " stroke="black" fill="none" stroke-width="6.0" stroke-linecap="round" stroke-linejoin="round" />
</svg>