<svg xmlns="http://www.w3.org/2000/svg" width="300" height="300" viewBox="0 0 300 300">
<path d="M 126.66666666666667 112.22222222222221 L 126.66666666666667 112.77777777777779 L 126.1111111111111 113.33333333333333 L 125.55555555555556 113.8888888888889 L 125.55555555555556 113.8888888888889 L 128.33333333333334 112.22222222222221 L 132.7777777777778 108.88888888888889 L 138.8888888888889 103.88888888888889 L 143.8888888888889 97.77777777777777 L 145.55555555555557 95.55555555555556 L 145.55555555555557 95.55555555555556 L 145.55555555555557 96.11111111111111 " stroke="black" fill="none" stroke-width="7.0" stroke-linecap="round" stroke-linejoin="round" />
<path d="M 134.44444444444446 120.55555555555556 L 134.44444444444446 120.55555555555556 L 135.00000000000003 120.00000000000001 L 135.55555555555557 120.00000000000001 L 136.66666666666669 120.55555555555556 L 138.33333333333334 121.66666666666667 L 140.00000000000003 122.22222222222221 L 140.55555555555557 122.22222222222221 " stroke="black" fill="none" stroke-width="7.0" stroke-linecap="round" stroke-linejoin="round" />
<path d="M 145.00000000000003 110.55555555555556 L 143.8888888888889 110.55555555555556 L 143.33333333333334 110.55555555555556 L 143.33333333333334 110.55555555555556 L 143.8888888888889 111.11111111111111 L 145.55555555555557 112.22222222222221 L 146.66666666666669 113.33333333333333 L 147.22222222222223 113.8888888888889 " stroke="black" fill="none" stroke-width="7.0" stroke-linecap="round" stroke-linejoin="round" />
<path d="M 153.33333333333334 109.44444444444444 L 153.8888888888889 109.44444444444444 L 154.44444444444446 110.0 L 154.44444444444446 110.55555555555556 L 154.44444444444446 111.66666666666667 L 153.8888888888889 114.44444444444444 L 150.00000000000003 120.55555555555556 L 143.8888888888889 129.44444444444446 L 136.66666666666669 136.66666666666669 L 133.8888888888889 138.8888888888889 L 133.8888888888889 138.8888888888889 " stroke="black" fill="none" stroke-width="7.0" stroke-linecap="round" stroke-linejoin="round" />
<path d="M 149.44444444444446 127.22222222222221 L 149.44444444444446 127.22222222222221 L 148.8888888888889 127.22222222222221 L 148.8888888888889 127.22222222222221 L 148.8888888888889 127.22222222222221 L 148.8888888888889 127.77777777777779 L 150.55555555555557 129.44444444444446 L 151.66666666666669 132.7777777777778 L 153.8888888888889 139.44444444444446 L 155.00000000000003 148.33333333333334 L 155.55555555555557 157.22222222222223 L 155.55555555555557 166.11111111111114 L 155.55555555555557 175.00000000000003 L 154.44444444444446 180.55555555555557 L 153.33333333333334 183.8888888888889 L 151.66666666666669 184.44444444444446 L 148.8888888888889 184.44444444444446 L 146.11111111111111 182.22222222222223 L 144.44444444444446 180.55555555555557 L 143.8888888888889 180.00000000000003 " stroke="black" fill="none" stroke-width="7.0" stroke-linecap="round" stroke-linejoin="round" />
<path d="M 149.44444444444446 141.11111111111111 L 148.8888888888889 141.11111111111111 L 148.8888888888889 140.55555555555557 L 148.8888888888889 140.55555555555557 L 148.33333333333334 140.55555555555557 L 147.22222222222223 144.44444444444446 L 143.33333333333334 150.55555555555557 L 137.7777777777778 157.22222222222223 L 133.8888888888889 160.55555555555557 L 132.7777777777778 161.11111111111111 " stroke="black" fill="none" stroke-width="7.0" stroke-linecap="round" stroke-linejoin="round" />
<path d="M 151.66666666666669 153.33333333333334 L 151.66666666666669 154.44444444444446 L 151.66666666666669 155.00000000000003 L 151.66666666666669 155.55555555555557 L 150.55555555555557 157.7777777777778 L 146.66666666666669 163.33333333333334 L 140.00000000000003 169.44444444444446 L 136.11111111111111 172.22222222222223 L 135.55555555555557 172.22222222222223 " stroke="black" fill="none" stroke-width="7.0" stroke-linecap="round" stroke-linejoin="round" />
<path d="M 176.66666666666669 101.66666666666667 L 176.66666666666669 101.66666666666667 L 177.22222222222223 101.66666666666667 L 177.22222222222223 101.66666666666667 L 177.22222222222223 102.22222222222223 L 177.22222222222223 103.88888888888889 L 175.55555555555557 106.66666666666667 L 173.8888888888889 110.0 L 173.33333333333334 111.66666666666667 " stroke="black" fill="none" stroke-width="7.0" stroke-linecap="round" stroke-linejoin="round" />
<path d="M 164.44444444444446 119.44444444444444 L 164.44444444444446 119.44444444444444 L 164.44444444444446 118.33333333333333 L 164.44444444444446 118.33333333333333 L 164.44444444444446 118.8888888888889 L 165.00000000000003 124.44444444444444 L 165.55555555555557 132.7777777777778 L 165.55555555555557 141.66666666666669 L 165.55555555555557 145.55555555555557 L 166.11111111111114 145.55555555555557 " stroke="black" fill="none" stroke-width="7.0" stroke-linecap="round" stroke-linejoin="round" />
<path d="M 170.00000000000003 120.00000000000001 L 168.8888888888889 120.00000000000001 L 167.7777777777778 119.44444444444444 L 168.8888888888889 119.44444444444444 L 171.11111111111114 118.8888888888889 L 174.44444444444446 118.33333333333333 L 177.7777777777778 117.77777777777779 L 180.55555555555557 117.77777777777779 L 182.7777777777778 117.77777777777779 L 184.44444444444446 117.77777777777779 L 185.55555555555557 119.44444444444444 L 185.55555555555557 122.22222222222221 L 185.55555555555557 125.55555555555556 L 185.55555555555557 130.00000000000003 L 185.00000000000003 135.55555555555557 L 184.44444444444446 140.00000000000003 L 183.8888888888889 143.33333333333334 L 183.33333333333334 144.44444444444446 " stroke="black" fill="none" stroke-width="7.0" stroke-linecap="round" stroke-linejoin="round" />
<path d="M 170.55555555555557 133.8888888888889 L 169.44444444444446 134.44444444444446 L 168.8888888888889 134.44444444444446 L 170.00000000000003 134.44444444444446 L 172.7777777777778 133.8888888888889 L 176.11111111111114 133.33333333333334 L 178.8888888888889 132.7777777777778 L 180.00000000000003 132.7777777777778 " stroke="black" fill="none" stroke-width="7.0" stroke-linecap="round" stroke-linejoin="round" />
<path d="M 169.44444444444446 149.44444444444446 L 169.44444444444446 149.44444444444446 L 168.8888888888889 149.44444444444446 L 169.44444444444446 149.44444444444446 L 173.33333333333334 149.44444444444446 L 177.22222222222223 147.7777777777778 L 178.8888888888889 147.22222222222223 " stroke="black" fill="none" stroke-width="7.0" stroke-linecap="round" stroke-linejoin="round" />
<path d="M 173.33333333333334 157.7777777777778 L 172.7777777777778 158.33333333333334 L 171.66666666666669 158.8888888888889 L 171.11111111111114 161.66666666666669 L 169.44444444444446 167.22222222222223 L 168.33333333333334 173.33333333333334 L 167.7777777777778 176.11111111111114 " stroke="black" fill="none" stroke-width="7.0" stroke-linecap="round" stroke-linejoin="round" />
<path d="M 182.22222222222223 152.7777777777778 L 182.7777777777778 152.22222222222223 L 183.8888888888889 151.11111111111111 L 184.44444444444446 151.11111111111111 L 184.44444444444446 151.11111111111111 L 184.44444444444446 153.33333333333334 L 183.8888888888889 159.44444444444446 L 183.8888888888889 168.33333333333334 L 183.8888888888889 175.55555555555557 L 186.66666666666669 178.8888888888889 L 190.55555555555557 177.7777777777778 L 195.00000000000003 173.33333333333334 L 197.7777777777778 168.8888888888889 L 198.33333333333334 166.11111111111114 L 198.33333333333334 165.55555555555557 " stroke="black" fill="none" stroke-width="7.0" stroke-linecap="round" stroke-linejoin="round" />
<path d="M 106.11111111111111 106.66666666666667 L 105.55555555555556 107.77777777777779 L 105.0 108.33333333333333 L 105.55555555555556 110.0 L 107.22222222222223 112.77777777777779 L 108.88888888888889 115.00000000000001 L 110.0 116.66666666666667 " stroke="black" fill="none" stroke-width="7.0" stroke-linecap="round" stroke-linejoin="round" />
<path d="M 102.77777777777777 133.33333333333334 L 101.66666666666667 133.33333333333334 L 100.55555555555556 133.33333333333334 L 100.55555555555556 133.33333333333334 L 101.66666666666667 133.33333333333334 L 103.88888888888889 132.7777777777778 L 106.11111111111111 132.22222222222223 L 108.88888888888889 131.66666666666669 L 112.22222222222221 131.11111111111111 L 115.00000000000001 130.55555555555557 L 117.22222222222221 130.55555555555557 L 118.8888888888889 130.55555555555557 L 118.8888888888889 131.66666666666669 L 119.44444444444444 133.33333333333334 L 119.44444444444444 135.55555555555557 L 118.33333333333333 138.33333333333334 L 117.22222222222221 141.66666666666669 L 115.55555555555556 145.00000000000003 L 113.8888888888889 148.33333333333334 L 112.22222222222221 151.11111111111111 L 111.11111111111111 153.8888888888889 L 110.0 155.55555555555557 L 109.44444444444444 156.66666666666669 L 109.44444444444444 156.66666666666669 L 110.0 156.66666666666669 L 111.11111111111111 156.11111111111111 L 112.22222222222221 155.00000000000003 L 113.8888888888889 153.8888888888889 L 115.55555555555556 153.33333333333334 L 117.22222222222221 152.7777777777778 L 117.77777777777779 152.7777777777778 L 118.8888888888889 153.33333333333334 L 118.8888888888889 155.55555555555557 L 118.8888888888889 158.33333333333334 L 118.33333333333333 162.22222222222223 L 117.22222222222221 166.66666666666669 L 115.00000000000001 170.55555555555557 L 113.33333333333333 175.00000000000003 L 111.66666666666667 178.8888888888889 L 110.0 182.22222222222223 L 108.33333333333333 186.11111111111114 L 106.66666666666667 188.8888888888889 L 106.11111111111111 189.44444444444446 L 105.0 189.44444444444446 L 103.88888888888889 190.00000000000003 L 103.33333333333333 190.55555555555557 L 102.77777777777777 190.55555555555557 L 102.77777777777777 191.11111111111114 L 102.77777777777777 191.11111111111114 L 102.22222222222223 191.11111111111114 L 102.22222222222223 191.11111111111114 L 101.66666666666667 191.11111111111114 L 101.66666666666667 191.11111111111114 L 101.66666666666667 191.11111111111114 L 101.66666666666667 191.11111111111114 L 101.66666666666667 191.11111111111114 L 101.66666666666667 191.11111111111114 L 102.22222222222223 191.11111111111114 L 102.77777777777777 191.11111111111114 L 103.33333333333333 191.11111111111114 L 104.44444444444444 190.55555555555557 L 105.55555555555556 190.55555555555557 L 107.22222222222223 190.55555555555557 L 110.0 190.55555555555557 L 113.8888888888889 190.55555555555557 L 118.8888888888889 190.55555555555557 L 124.44444444444444 190.55555555555557 L 132.7777777777778 191.11111111111114 L 143.8888888888889 191.11111111111114 L 153.33333333333334 191.66666666666669 L 163.8888888888889 191.66666666666669 L 173.33333333333334 191.66666666666669 L 181.66666666666669 190.55555555555557 L 190.55555555555557 188.8888888888889 L 197.22222222222223 186.66666666666669 L 198.33333333333334 186.11111111111114 " stroke="black" fill="none" stroke-width="7.0" stroke-linecap="round" stroke-linejoin="round" />
</svg>