<svg xmlns="http://www.w3.org/2000/svg" width="300" height="300" viewBox="0 0 300 300">
<path d="M 132.5 87.0 L 132.5 87.0 L 132.5 87.0 L 133.0 86.5 L 137.0 86.5 L 144.0 86.0 L 152.0 86.0 L 157.5 86.5 L 160.5 87.5 L 161.0 89.0 L 161.0 91.0 L 160.0 93.5 L 159.5 97.0 L 158.5 100.5 L 158.0 104.5 L 157.5 107.5 L 157.5 110.0 " stroke="black" fill="none" stroke-width="10.0" stroke-linecap="round" stroke-linejoin="round" />
<path d="M 136.0 113.0 L 136.5 113.0 L 138.0 113.0 L 140.5 113.0 L 146.5 113.0 L 153.5 113.0 L 159.0 113.0 L 160.0 113.0 " stroke="black" fill="none" stroke-width="10.0" stroke-linecap="round" stroke-linejoin="round" />
<path d="M 130.5 91.5 L 130.5 91.5 L 131.0 91.5 L 131.5 92.0 L 131.5 93.0 L 132.0 97.0 L 133.0 107.5 L 134.5 124.0 L 136.0 140.5 L 137.0 154.5 L 137.5 164.5 L 137.5 170.0 L 137.5 172.5 L 137.0 174.0 L 136.0 174.0 " stroke="black" fill="none" stroke-width="10.0" stroke-linecap="round" stroke-linejoin="round" />
<path d="M 139.5 138.0 L 139.5 138.0 L 139.5 138.0 L 140.0 138.0 L 143.0 138.0 L 149.0 138.0 L 155.5 138.5 L 159.5 138.5 L 160.0 139.0 " stroke="black" fill="none" stroke-width="10.0" stroke-linecap="round" stroke-linejoin="round" />
<path d="M 139.0 159.0 L 139.0 159.0 L 139.5 159.0 L 141.5 159.0 L 147.0 158.5 L 156.0 156.5 L 158.0 155.5 " stroke="black" fill="none" stroke-width="10.0" stroke-linecap="round" stroke-linejoin="round" />
<path d="M 178.0 90.0 L 178.0 90.0 L 178.0 90.0 L 178.0 90.0 L 180.5 89.5 L 187.0 87.5 L 194.0 86.0 L 198.0 85.5 L 199.5 89.0 L 199.5 96.0 L 199.0 104.0 L 198.5 109.0 L 198.0 110.5 L 198.0 110.5 L 197.5 110.0 " stroke="black" fill="none" stroke-width="10.0" stroke-linecap="round" stroke-linejoin="round" />
<path d="M 176.0 116.5 L 176.0 116.0 L 176.0 116.0 L 176.5 115.5 L 179.0 115.0 L 185.0 115.0 L 192.5 115.0 L 198.5 114.0 L 200.0 113.0 " stroke="black" fill="none" stroke-width="10.0" stroke-linecap="round" stroke-linejoin="round" />
<path d="M 180.0 137.5 L 180.0 137.5 L 179.5 137.5 L 179.5 137.5 L 183.5 137.5 L 191.5 135.5 L 201.0 133.5 L 206.0 133.5 L 208.5 134.5 L 208.5 136.0 L 208.0 138.0 L 206.5 142.0 L 204.0 147.5 L 200.0 155.0 L 194.0 165.0 L 189.0 175.0 L 186.0 181.5 L 184.5 184.5 L 184.0 184.5 L 184.0 182.5 " stroke="black" fill="none" stroke-width="10.0" stroke-linecap="round" stroke-linejoin="round" />
<path d="M 182.0 154.5 L 182.0 154.5 L 182.0 154.5 L 184.0 155.5 L 191.5 161.0 L 205.5 172.0 L 216.5 180.0 L 221.0 181.0 L 221.0 181.0 " stroke="black" fill="none" stroke-width="10.0" stroke-linecap="round" stroke-linejoin="round" />
<path d="M 100.5 88.5 L 100.5 88.5 L 99.5 89.0 L 99.0 89.5 L 99.0 92.0 L 101.5 96.0 L 104.5 99.0 L 107.5 100.5 L 108.0 100.5 " stroke="black" fill="none" stroke-width="10.0" stroke-linecap="round" stroke-linejoin="round" />
<path d="M 97.0 122.0 L 96.0 122.0 L 95.5 122.0 L 95.5 122.0 L 97.0 122.0 L 100.5 120.5 L 106.0 118.5 L 111.5 117.5 L 116.5 117.0 L 118.5 117.5 L 119.5 118.5 L 119.5 119.0 L 119.5 120.5 L 119.0 122.0 L 118.0 125.0 L 117.0 127.5 L 115.5 131.0 L 114.5 135.0 L 113.5 139.0 L 111.5 145.0 L 108.0 151.0 L 104.5 156.5 L 101.5 160.5 L 100.0 163.0 L 100.0 164.5 L 100.0 164.5 L 101.0 164.0 L 102.5 162.5 L 104.0 161.0 L 106.0 159.0 L 108.5 157.5 L 112.0 156.0 L 115.5 155.0 L 117.5 154.5 L 118.5 154.0 L 119.0 154.5 L 119.0 156.0 L 119.0 158.0 L 119.5 160.5 L 120.0 163.5 L 120.0 167.5 L 119.5 172.5 L 117.5 178.5 L 114.5 185.0 L 111.0 191.0 L 106.5 196.0 L 102.0 201.5 L 98.0 207.0 L 95.0 210.5 L 92.5 212.5 L 92.0 213.0 L 92.0 213.0 L 92.0 212.5 L 92.0 212.5 L 92.5 212.5 L 92.5 212.5 L 92.5 212.5 L 92.5 212.5 L 92.5 212.5 L 93.0 212.5 L 93.5 212.0 L 94.5 211.5 L 95.5 211.5 L 96.5 211.0 L 98.5 210.5 L 101.5 210.0 L 106.0 208.5 L 111.5 207.5 L 118.5 207.5 L 126.0 207.5 L 134.5 207.5 L 145.5 208.0 L 155.5 209.0 L 167.0 210.0 L 178.0 210.5 L 188.5 211.0 L 199.0 211.0 L 207.0 212.0 L 214.0 213.5 L 218.5 214.5 L 221.5 214.5 L 222.0 214.0 L 221.5 213.5 " stroke="black" fill="none" stroke-width="10.0" stroke-linecap="round" stroke-linejoin="round" />
</svg>