<svg xmlns="http://www.w3.org/2000/svg" width="300" height="300" viewBox="0 0 300 300">
<path d="M 160.5 118.0 L 160.5 117.0 L 160.5 116.5 L 160.0 116.0 L 160.0 115.5 L 160.0 115.5 L 160.0 117.0 L 160.5 120.5 L 161.0 124.0 L 161.5 128.0 L 162.5 130.5 L 162.5 130.5 " stroke="black" fill="none" stroke-width="7.0" stroke-linecap="round" stroke-linejoin="round" />
<path d="M 160.0 118.5 L 159.5 118.5 L 159.0 118.5 L 158.5 118.5 L 158.5 118.0 L 159.0 117.5 L 160.5 117.5 L 163.0 117.0 L 166.5 116.5 L 171.5 116.0 L 175.5 116.0 L 178.0 116.0 L 179.5 116.0 L 180.0 115.5 L 181.0 115.0 L 182.0 115.0 L 183.0 114.5 L 183.5 114.5 L 184.5 114.5 L 185.0 114.5 L 185.5 114.5 L 186.0 115.0 L 186.5 115.0 L 186.5 115.0 L 186.5 115.0 L 186.5 115.0 L 186.5 115.0 L 186.5 115.5 L 186.5 116.0 L 186.0 117.0 L 185.5 118.5 L 185.5 121.0 L 185.0 123.5 L 185.0 126.0 L 185.0 128.0 L 185.0 129.0 L 185.0 129.0 " stroke="black" fill="none" stroke-width="7.0" stroke-linecap="round" stroke-linejoin="round" />
<path d="M 166.0 133.5 L 165.0 133.5 L 164.0 134.0 L 164.5 134.0 L 167.0 133.5 L 171.5 133.5 L 176.0 133.5 L 181.0 133.0 L 182.0 132.5 " stroke="black" fill="none" stroke-width="7.0" stroke-linecap="round" stroke-linejoin="round" />
<path d="M 172.0 106.5 L 172.0 106.5 L 172.0 106.5 L 172.0 106.5 L 172.0 106.5 L 172.0 107.0 L 172.5 109.5 L 172.5 117.0 L 172.5 130.0 L 173.5 139.5 L 174.0 142.5 L 174.5 142.5 L 174.5 142.5 " stroke="black" fill="none" stroke-width="7.0" stroke-linecap="round" stroke-linejoin="round" />
<path d="M 159.0 146.5 L 159.0 146.5 L 159.5 146.5 L 160.0 146.0 L 161.5 145.5 L 165.5 145.0 L 171.5 144.5 L 178.5 143.5 L 185.0 141.5 L 188.5 140.5 " stroke="black" fill="none" stroke-width="7.0" stroke-linecap="round" stroke-linejoin="round" />
<path d="M 171.0 159.5 L 171.0 159.5 L 170.5 159.5 L 170.0 159.5 L 169.5 159.5 " stroke="black" fill="none" stroke-width="7.0" stroke-linecap="round" stroke-linejoin="round" />
<path d="M 162.5 157.5 L 162.0 157.5 L 161.5 158.0 L 161.0 158.0 L 161.0 158.0 L 161.5 158.0 L 164.0 158.0 L 168.0 157.5 L 172.5 156.5 L 177.5 155.5 L 181.0 154.5 L 183.0 154.5 L 184.0 154.5 L 184.0 154.5 L 184.5 154.5 L 184.5 154.5 L 184.5 154.5 L 184.5 155.0 L 184.0 155.5 L 184.0 156.0 L 183.5 157.5 L 183.5 159.5 L 183.0 162.5 L 183.0 165.0 L 183.0 167.0 L 183.0 168.0 " stroke="black" fill="none" stroke-width="7.0" stroke-linecap="round" stroke-linejoin="round" />
<path d="M 164.5 170.5 L 164.5 170.5 L 164.5 171.0 L 164.5 171.0 L 167.0 171.0 L 172.5 171.0 L 179.0 170.0 L 184.0 168.5 L 186.5 168.0 " stroke="black" fill="none" stroke-width="7.0" stroke-linecap="round" stroke-linejoin="round" />
<path d="M 164.0 161.0 L 164.0 161.0 L 164.0 161.0 L 164.0 161.0 L 164.0 161.0 L 164.0 161.0 L 164.0 163.0 L 164.0 168.0 L 164.5 177.5 L 164.5 187.5 L 164.5 192.5 L 165.0 194.0 L 165.5 193.5 L 165.5 193.5 " stroke="black" fill="none" stroke-width="7.0" stroke-linecap="round" stroke-linejoin="round" />
<path d="M 166.5 184.0 L 166.0 184.0 L 165.0 184.0 L 165.0 184.0 L 166.5 183.5 L 169.5 183.5 L 173.0 183.5 L 176.5 182.5 L 180.0 182.5 L 183.0 182.5 L 184.5 182.5 L 185.0 183.5 L 185.0 184.5 L 185.0 186.0 L 184.5 188.0 L 184.0 190.5 L 183.5 192.0 L 183.5 192.5 L 183.0 192.5 " stroke="black" fill="none" stroke-width="7.0" stroke-linecap="round" stroke-linejoin="round" />
<path d="M 168.0 194.5 L 167.0 195.5 L 166.5 196.0 L 167.5 196.0 L 171.5 196.0 L 176.0 196.0 L 181.0 195.5 L 183.0 195.0 " stroke="black" fill="none" stroke-width="7.0" stroke-linecap="round" stroke-linejoin="round" />
<path d="M 132.5 118.5 L 132.5 118.5 L 132.0 118.0 L 132.0 118.0 L 131.5 118.0 L 132.0 118.5 L 134.5 120.5 L 137.0 122.0 L 139.0 124.0 L 140.0 125.0 " stroke="black" fill="none" stroke-width="7.0" stroke-linecap="round" stroke-linejoin="round" />
<path d="M 132.0 141.0 L 131.0 141.0 L 130.0 141.5 L 130.0 141.5 L 132.0 141.0 L 136.0 141.0 L 140.0 141.0 L 143.0 143.0 L 143.5 146.5 L 143.0 151.0 L 140.0 155.0 L 137.5 157.0 L 137.0 158.0 L 138.5 158.5 L 142.0 159.5 L 145.5 162.0 L 148.5 165.0 L 149.5 169.5 L 149.0 176.0 L 146.5 183.5 L 143.0 189.5 L 139.5 194.0 L 136.0 197.0 L 133.5 199.5 L 132.5 201.0 L 132.5 201.0 L 132.5 200.5 L 132.5 200.5 L 132.5 200.0 L 132.0 200.0 L 132.0 200.0 L 132.0 200.0 L 132.0 200.0 L 132.0 200.0 L 132.0 200.0 L 132.0 200.0 L 132.5 200.5 L 133.0 200.5 L 134.0 201.0 L 135.5 201.0 L 138.0 202.0 L 141.5 203.0 L 147.0 204.5 L 154.0 206.0 L 161.5 207.5 L 169.5 208.0 L 177.5 208.0 L 184.0 208.0 L 189.5 208.0 L 192.5 208.0 L 193.0 208.5 " stroke="black" fill="none" stroke-width="7.0" stroke-linecap="round" stroke-linejoin="round" />
</svg>