<svg xmlns="http://www.w3.org/2000/svg" width="300" height="300" viewBox="0 0 300 300">
<path d="M 119.0 118.5 L 118.5 118.5 L 118.0 118.0 L 118.0 119.0 L 119.5 122.5 L 122.5 127.0 L 125.0 130.5 L 127.0 132.5 L 128.5 133.5 L 128.5 134.0 " stroke="black" fill="none" stroke-width="7.0" stroke-linecap="round" stroke-linejoin="round" />
<path d="M 123.0 147.0 L 121.5 146.5 L 120.0 146.5 L 120.0 147.0 L 121.5 149.0 L 124.0 152.0 L 127.0 154.5 L 129.0 157.0 L 130.0 158.0 " stroke="black" fill="none" stroke-width="7.0" stroke-linecap="round" stroke-linejoin="round" />
<path d="M 121.0 184.5 L 120.0 184.0 L 119.5 183.5 L 120.5 183.0 L 123.5 181.0 L 127.0 178.5 L 130.0 175.5 L 132.0 173.0 " stroke="black" fill="none" stroke-width="7.0" stroke-linecap="round" stroke-linejoin="round" />
<path d="M 141.5 124.0 L 141.5 124.0 L 141.5 123.5 L 142.0 123.0 L 145.0 123.0 L 151.5 122.5 L 160.0 122.0 L 165.0 121.5 L 166.5 121.5 L 167.0 121.5 " stroke="black" fill="none" stroke-width="7.0" stroke-linecap="round" stroke-linejoin="round" />
<path d="M 141.0 143.0 L 140.5 141.5 L 140.0 141.0 L 140.0 141.5 L 140.5 146.0 L 141.5 155.5 L 142.0 166.5 L 142.0 174.0 L 142.0 176.5 L 142.5 174.0 L 143.0 173.0 " stroke="black" fill="none" stroke-width="7.0" stroke-linecap="round" stroke-linejoin="round" />
<path d="M 144.0 141.0 L 143.0 141.0 L 142.0 141.0 L 142.0 141.0 L 142.5 141.0 L 144.5 141.0 L 148.5 140.5 L 154.0 139.0 L 161.5 137.5 L 167.0 137.0 L 169.5 137.0 L 170.0 138.0 L 170.5 139.0 L 171.5 140.0 L 172.0 140.5 L 172.0 140.5 L 172.5 141.0 L 172.5 141.0 L 172.5 141.5 L 172.5 143.0 L 172.5 145.5 L 172.5 150.0 L 172.5 157.5 L 172.5 167.0 L 172.5 174.5 L 172.5 179.0 L 172.5 181.0 L 171.5 181.5 L 170.0 181.5 L 168.0 181.5 L 165.5 180.0 L 164.5 179.0 " stroke="black" fill="none" stroke-width="7.0" stroke-linecap="round" stroke-linejoin="round" />
<path d="M 149.0 124.5 L 149.0 124.5 L 149.0 124.0 L 149.0 124.0 L 149.0 124.0 L 149.0 125.5 L 149.5 131.5 L 149.5 141.5 L 149.0 152.0 L 147.5 158.0 L 147.0 159.5 L 147.0 158.5 " stroke="black" fill="none" stroke-width="7.0" stroke-linecap="round" stroke-linejoin="round" />
<path d="M 157.0 125.0 L 157.0 125.0 L 157.0 125.0 L 157.5 125.5 L 157.5 127.0 L 158.0 131.5 L 158.0 140.5 L 158.0 150.5 L 158.0 157.0 L 158.5 159.5 L 159.5 159.5 L 161.0 158.5 L 162.5 157.5 L 163.5 156.5 L 163.5 155.5 " stroke="black" fill="none" stroke-width="7.0" stroke-linecap="round" stroke-linejoin="round" />
<path d="M 154.0 168.0 L 153.5 168.0 L 153.0 168.0 L 152.5 168.0 L 154.0 168.0 L 157.0 168.0 L 159.5 168.5 L 161.0 168.5 " stroke="black" fill="none" stroke-width="7.0" stroke-linecap="round" stroke-linejoin="round" />
<path d="M 149.0 183.5 L 148.5 183.0 L 148.0 182.5 L 148.5 182.5 L 151.5 182.5 L 158.5 182.5 L 167.5 182.5 L 176.0 182.5 " stroke="black" fill="none" stroke-width="7.0" stroke-linecap="round" stroke-linejoin="round" />
</svg>