<svg xmlns="http://www.w3.org/2000/svg" width="300" height="300" viewBox="0 0 300 300">
<path d="M 128.0 87.5 L 128.0 87.5 L 128.0 88.0 L 129.0 90.0 L 130.0 97.5 L 131.5 108.5 L 132.0 113.0 L 132.5 112.0 " stroke="black" fill="none" stroke-width="9.0" stroke-linecap="round" stroke-linejoin="round" />
<path d="M 128.0 86.5 L 127.5 87.0 L 126.5 87.0 L 126.5 87.0 L 129.0 87.0 L 136.0 85.0 L 146.5 82.5 L 157.0 81.5 L 165.5 82.0 L 171.0 84.5 L 175.0 86.5 L 178.0 88.0 L 178.5 88.5 L 178.5 92.5 L 176.5 99.0 L 173.5 106.5 L 172.0 111.0 L 171.5 114.0 L 171.5 114.5 " stroke="black" fill="none" stroke-width="9.0" stroke-linecap="round" stroke-linejoin="round" />
<path d="M 139.5 102.5 L 139.0 102.5 L 139.0 102.0 L 139.0 101.0 L 143.0 100.0 L 151.0 98.0 L 159.5 97.0 L 165.5 97.0 L 169.0 97.5 L 170.0 97.5 " stroke="black" fill="none" stroke-width="9.0" stroke-linecap="round" stroke-linejoin="round" />
<path d="M 132.0 116.0 L 132.0 116.0 L 132.5 116.5 L 134.0 116.5 L 141.5 116.0 L 154.0 113.0 L 166.0 111.0 L 174.0 110.5 L 177.0 111.0 " stroke="black" fill="none" stroke-width="9.0" stroke-linecap="round" stroke-linejoin="round" />
<path d="M 115.5 135.5 L 115.5 135.5 L 115.5 136.0 L 117.0 136.0 L 122.0 135.5 L 133.5 133.0 L 149.5 130.0 L 164.0 128.0 L 176.5 127.0 L 185.0 127.5 L 188.0 129.5 L 188.0 130.5 " stroke="black" fill="none" stroke-width="9.0" stroke-linecap="round" stroke-linejoin="round" />
<path d="M 131.5 149.5 L 131.5 149.5 L 131.5 149.5 L 131.5 149.5 L 131.5 152.5 L 133.0 160.5 L 134.5 168.0 L 136.0 171.0 L 136.5 171.0 " stroke="black" fill="none" stroke-width="9.0" stroke-linecap="round" stroke-linejoin="round" />
<path d="M 135.0 149.0 L 134.0 149.0 L 133.0 149.0 L 133.5 148.0 L 139.0 145.5 L 147.5 142.5 L 158.0 141.0 L 165.5 141.0 L 171.5 142.0 L 174.5 145.5 L 175.0 151.5 L 174.0 159.0 L 172.5 166.0 L 171.5 170.0 L 170.5 172.0 L 170.0 172.5 " stroke="black" fill="none" stroke-width="9.0" stroke-linecap="round" stroke-linejoin="round" />
<path d="M 137.5 161.5 L 138.0 161.5 L 138.5 161.5 L 142.5 160.5 L 152.5 157.0 L 164.0 154.0 L 170.0 154.5 L 172.0 157.0 L 172.0 157.5 " stroke="black" fill="none" stroke-width="9.0" stroke-linecap="round" stroke-linejoin="round" />
<path d="M 135.5 179.5 L 136.5 180.0 L 138.0 180.0 L 142.5 179.0 L 149.5 177.0 L 159.5 174.5 L 168.0 173.5 L 172.5 173.5 " stroke="black" fill="none" stroke-width="9.0" stroke-linecap="round" stroke-linejoin="round" />
<path d="M 134.0 196.5 L 135.0 196.5 L 137.0 196.5 L 140.0 196.0 L 147.0 195.0 L 157.5 194.0 L 168.0 193.0 L 174.5 192.0 L 177.0 191.0 L 177.0 190.0 " stroke="black" fill="none" stroke-width="9.0" stroke-linecap="round" stroke-linejoin="round" />
<path d="M 153.5 146.0 L 153.5 146.0 L 153.5 146.0 L 153.5 146.0 L 153.5 147.0 L 154.0 149.5 L 154.5 155.0 L 155.0 164.5 L 155.0 174.0 L 155.0 181.0 L 155.0 185.5 L 155.5 189.5 L 155.5 194.5 L 155.5 199.5 L 156.0 203.0 L 156.5 204.0 L 156.5 204.0 L 156.5 202.5 L 156.0 201.5 " stroke="black" fill="none" stroke-width="9.0" stroke-linecap="round" stroke-linejoin="round" />
<path d="M 125.5 214.5 L 125.5 214.5 L 125.5 213.5 L 125.5 213.0 L 126.5 213.0 L 130.5 213.0 L 138.0 213.0 L 149.0 213.0 L 162.0 212.0 L 173.5 211.5 L 182.0 211.5 L 187.5 211.5 L 189.5 212.0 L 189.5 212.0 L 189.5 212.0 L 189.5 212.0 " stroke="black" fill="none" stroke-width="9.0" stroke-linecap="round" stroke-linejoin="round" />
</svg>