<svg xmlns="http://www.w3.org/2000/svg" width="300" height="300" viewBox="0 0 300 300">
<path d="M 109.5 120.5 L 109.5 120.0 L 109.5 119.5 L 109.5 119.5 L 109.5 119.5 L 111.0 119.5 L 114.5 119.5 L 121.0 119.5 L 128.0 120.0 L 133.0 120.0 L 135.5 120.0 L 136.0 120.0 L 136.0 120.0 L 136.0 120.0 L 136.0 120.0 L 135.5 120.0 L 135.0 120.0 L 134.5 120.5 " stroke="black" fill="none" stroke-width="6.0" stroke-linecap="round" stroke-linejoin="round" />
<path d="M 108.0 136.5 L 108.0 136.5 L 108.5 136.5 L 109.0 136.5 L 109.0 137.0 L 109.5 140.0 L 110.5 146.0 L 111.0 154.0 L 111.5 162.5 L 112.0 169.5 L 113.0 174.5 L 114.0 176.5 L 114.0 177.0 L 114.0 176.5 L 114.0 174.5 L 113.0 170.5 L 112.5 169.0 " stroke="black" fill="none" stroke-width="6.0" stroke-linecap="round" stroke-linejoin="round" />
<path d="M 112.0 136.0 L 112.0 136.0 L 112.0 136.0 L 112.0 135.5 L 112.0 135.5 L 112.0 135.5 L 113.0 135.5 L 114.0 135.5 L 117.0 136.0 L 122.5 135.5 L 129.5 134.5 L 136.0 133.0 L 140.5 132.5 L 142.0 132.5 L 142.5 133.0 L 142.5 133.0 L 142.0 133.0 L 141.5 133.0 L 141.5 134.0 L 141.0 135.0 L 141.0 136.5 L 140.5 139.5 L 140.5 144.0 L 140.5 149.5 L 140.5 156.5 L 141.0 162.5 L 141.5 168.0 L 142.5 173.0 L 143.0 177.5 L 143.5 180.0 L 143.5 181.5 L 143.5 181.5 L 143.5 180.0 L 143.0 177.0 " stroke="black" fill="none" stroke-width="6.0" stroke-linecap="round" stroke-linejoin="round" />
<path d="M 121.0 121.5 L 121.0 121.0 L 121.0 120.0 L 121.0 119.5 L 121.0 119.5 L 121.0 119.5 L 121.0 122.0 L 121.5 126.5 L 122.0 133.5 L 122.5 142.5 L 122.0 150.5 L 121.5 155.5 L 121.5 158.0 L 121.0 159.0 L 121.0 159.0 L 121.0 156.5 L 121.5 153.5 " stroke="black" fill="none" stroke-width="6.0" stroke-linecap="round" stroke-linejoin="round" />
<path d="M 127.0 125.5 L 127.0 125.0 L 127.0 124.5 L 127.0 124.0 L 127.5 123.5 L 127.5 123.5 L 128.0 125.0 L 128.5 127.5 L 129.0 131.0 L 129.5 136.5 L 129.5 142.5 L 129.5 147.0 L 129.5 150.0 L 130.0 152.0 L 130.0 153.0 L 130.5 153.5 L 131.0 154.0 L 131.0 154.0 L 131.5 154.0 L 132.5 154.0 L 133.0 154.0 L 133.5 153.5 L 134.5 153.5 L 135.0 153.0 L 135.0 152.5 " stroke="black" fill="none" stroke-width="6.0" stroke-linecap="round" stroke-linejoin="round" />
<path d="M 125.5 165.0 L 124.0 165.0 L 122.5 165.0 L 121.5 165.5 L 121.5 165.5 L 121.5 166.0 L 123.0 166.0 L 125.0 166.0 L 127.5 166.0 L 129.0 166.0 L 130.5 165.5 L 131.0 165.5 " stroke="black" fill="none" stroke-width="6.0" stroke-linecap="round" stroke-linejoin="round" />
<path d="M 118.5 180.0 L 118.5 180.0 L 118.5 180.0 L 118.5 180.0 L 118.5 180.0 L 119.0 180.0 L 121.5 180.0 L 125.5 180.0 L 130.0 179.5 L 133.5 179.0 L 135.0 179.0 L 135.5 178.5 " stroke="black" fill="none" stroke-width="6.0" stroke-linecap="round" stroke-linejoin="round" />
<path d="M 164.0 113.5 L 164.0 113.5 L 164.0 113.5 L 164.0 113.5 L 164.0 113.5 L 164.0 113.5 L 164.0 113.5 L 164.5 114.5 L 164.5 119.5 L 165.0 129.0 L 165.0 140.5 L 164.5 149.5 L 164.5 157.0 L 164.5 164.5 L 163.5 171.0 L 162.5 177.0 L 161.0 182.0 L 159.0 186.0 L 158.0 188.0 L 157.5 189.5 L 157.5 190.5 L 157.0 191.0 L 157.0 191.5 L 156.5 190.5 L 156.5 189.5 " stroke="black" fill="none" stroke-width="6.0" stroke-linecap="round" stroke-linejoin="round" />
<path d="M 152.0 146.5 L 152.5 146.0 L 152.5 145.5 L 153.0 145.5 L 153.5 146.0 L 154.0 147.5 L 154.5 148.5 L 155.0 149.0 " stroke="black" fill="none" stroke-width="6.0" stroke-linecap="round" stroke-linejoin="round" />
<path d="M 183.0 114.0 L 183.0 114.0 L 183.0 114.0 L 183.0 114.0 L 183.0 114.0 L 183.0 114.5 L 183.0 117.0 L 183.0 123.5 L 183.0 133.5 L 183.5 145.0 L 183.5 155.0 L 184.0 163.0 L 184.5 168.5 L 185.0 175.0 L 185.0 180.5 L 185.0 184.5 L 185.5 187.0 L 186.0 188.0 L 186.0 188.5 L 186.0 188.5 L 186.0 188.0 L 185.5 186.0 " stroke="black" fill="none" stroke-width="6.0" stroke-linecap="round" stroke-linejoin="round" />
<path d="M 172.0 146.5 L 172.0 146.0 L 172.0 145.5 L 172.0 145.5 L 172.0 145.5 L 172.5 146.5 L 173.5 149.0 L 174.5 151.0 L 175.0 152.5 L 175.5 153.0 " stroke="black" fill="none" stroke-width="6.0" stroke-linecap="round" stroke-linejoin="round" />
<path d="M 200.0 118.0 L 200.0 117.5 L 200.5 117.0 L 200.5 117.0 L 200.5 117.0 L 200.5 118.5 L 200.5 122.5 L 200.5 129.0 L 200.5 138.5 L 201.0 150.5 L 202.0 161.0 L 203.0 169.5 L 204.5 177.0 L 205.5 182.5 L 206.0 187.5 L 206.5 190.5 L 206.5 190.5 L 206.5 190.0 L 205.5 186.5 L 204.5 185.0 " stroke="black" fill="none" stroke-width="6.0" stroke-linecap="round" stroke-linejoin="round" />
<path d="M 192.5 145.0 L 192.0 144.5 L 191.5 144.0 L 191.0 144.0 L 191.0 144.0 L 191.0 144.5 L 192.5 146.0 L 193.5 148.0 L 194.5 149.5 L 195.5 151.5 L 195.5 151.5 " stroke="black" fill="none" stroke-width="6.0" stroke-linecap="round" stroke-linejoin="round" />
</svg>