<svg xmlns="http://www.w3.org/2000/svg" width="300" height="300" viewBox="0 0 300 300">
<path d="M 107.22222222222223 98.33333333333333 L 107.22222222222223 97.22222222222223 L 107.22222222222223 96.11111111111111 L 107.22222222222223 95.0 L 107.22222222222223 93.88888888888889 L 107.22222222222223 93.33333333333333 L 107.77777777777779 93.88888888888889 L 108.33333333333333 100.0 L 108.33333333333333 110.0 L 108.88888888888889 119.44444444444444 L 109.44444444444444 123.33333333333333 L 110.0 123.33333333333333 " stroke="black" fill="none" stroke-width="7.0" stroke-linecap="round" stroke-linejoin="round" />
<path d="M 112.22222222222221 96.11111111111111 L 111.11111111111111 96.11111111111111 L 108.88888888888889 95.55555555555556 L 108.33333333333333 95.0 L 108.33333333333333 95.0 L 111.11111111111111 94.44444444444444 L 116.66666666666667 93.33333333333333 L 122.77777777777779 92.77777777777777 L 131.11111111111111 92.22222222222223 L 139.44444444444446 92.22222222222223 L 143.8888888888889 92.22222222222223 L 145.00000000000003 92.77777777777777 L 144.44444444444446 92.77777777777777 L 143.8888888888889 93.33333333333333 L 143.8888888888889 93.88888888888889 L 143.33333333333334 96.11111111111111 L 143.33333333333334 99.44444444444444 L 142.7777777777778 105.55555555555556 L 141.66666666666669 113.8888888888889 L 141.66666666666669 121.1111111111111 L 141.66666666666669 125.55555555555556 L 141.66666666666669 125.55555555555556 " stroke="black" fill="none" stroke-width="7.0" stroke-linecap="round" stroke-linejoin="round" />
<path d="M 113.8888888888889 112.77777777777779 L 113.33333333333333 112.77777777777779 L 112.77777777777779 112.77777777777779 L 115.00000000000001 112.22222222222221 L 120.55555555555556 110.55555555555556 L 126.66666666666667 110.0 L 131.11111111111111 109.44444444444444 L 133.8888888888889 109.44444444444444 L 134.44444444444446 109.44444444444444 " stroke="black" fill="none" stroke-width="7.0" stroke-linecap="round" stroke-linejoin="round" />
<path d="M 117.77777777777779 130.00000000000003 L 116.1111111111111 129.44444444444446 L 116.1111111111111 128.8888888888889 L 119.44444444444444 127.77777777777779 L 125.00000000000001 126.66666666666667 L 131.66666666666669 126.1111111111111 L 137.22222222222223 125.55555555555556 L 140.55555555555557 125.55555555555556 L 142.22222222222223 125.55555555555556 " stroke="black" fill="none" stroke-width="7.0" stroke-linecap="round" stroke-linejoin="round" />
<path d="M 112.77777777777779 155.55555555555557 L 112.77777777777779 155.55555555555557 L 112.77777777777779 155.00000000000003 L 112.77777777777779 154.44444444444446 L 112.77777777777779 154.44444444444446 L 115.00000000000001 153.8888888888889 L 119.44444444444444 152.7777777777778 L 126.1111111111111 151.66666666666669 L 132.7777777777778 150.00000000000003 L 137.22222222222223 148.33333333333334 L 138.33333333333334 147.7777777777778 " stroke="black" fill="none" stroke-width="7.0" stroke-linecap="round" stroke-linejoin="round" />
<path d="M 127.22222222222221 100.55555555555556 L 127.22222222222221 100.55555555555556 L 126.66666666666667 100.55555555555556 L 126.66666666666667 100.55555555555556 L 126.66666666666667 100.55555555555556 L 126.66666666666667 101.66666666666667 L 126.66666666666667 107.22222222222223 L 126.66666666666667 122.22222222222221 L 126.1111111111111 142.7777777777778 L 126.1111111111111 158.8888888888889 L 126.1111111111111 166.66666666666669 L 126.1111111111111 170.00000000000003 L 126.66666666666667 170.55555555555557 L 126.66666666666667 170.00000000000003 " stroke="black" fill="none" stroke-width="7.0" stroke-linecap="round" stroke-linejoin="round" />
<path d="M 111.11111111111111 183.33333333333334 L 109.44444444444444 184.44444444444446 L 109.44444444444444 185.00000000000003 L 112.77777777777779 182.7777777777778 L 118.33333333333333 179.44444444444446 L 125.00000000000001 176.11111111111114 L 133.8888888888889 172.7777777777778 L 143.8888888888889 168.8888888888889 L 147.7777777777778 167.22222222222223 " stroke="black" fill="none" stroke-width="7.0" stroke-linecap="round" stroke-linejoin="round" />
<path d="M 163.33333333333334 96.66666666666667 L 163.33333333333334 96.66666666666667 L 161.66666666666669 96.66666666666667 L 161.66666666666669 96.11111111111111 L 162.7777777777778 96.11111111111111 L 166.11111111111114 95.55555555555556 L 170.55555555555557 95.0 L 175.00000000000003 94.44444444444444 L 178.33333333333334 93.88888888888889 L 180.55555555555557 93.88888888888889 L 181.11111111111114 94.44444444444444 L 181.11111111111114 96.66666666666667 L 180.00000000000003 99.44444444444444 L 178.33333333333334 103.88888888888889 L 176.11111111111114 108.88888888888889 L 174.44444444444446 113.33333333333333 L 173.33333333333334 116.1111111111111 L 173.33333333333334 117.77777777777779 L 173.33333333333334 117.77777777777779 " stroke="black" fill="none" stroke-width="7.0" stroke-linecap="round" stroke-linejoin="round" />
<path d="M 158.33333333333334 113.8888888888889 L 158.33333333333334 113.8888888888889 L 157.7777777777778 113.33333333333333 L 157.7777777777778 113.33333333333333 L 161.66666666666669 114.44444444444444 L 167.22222222222223 118.33333333333333 L 172.7777777777778 122.77777777777779 L 177.7777777777778 126.1111111111111 L 180.00000000000003 127.77777777777779 " stroke="black" fill="none" stroke-width="7.0" stroke-linecap="round" stroke-linejoin="round" />
<path d="M 156.66666666666669 131.11111111111111 L 156.66666666666669 132.22222222222223 L 155.55555555555557 132.7777777777778 L 155.55555555555557 133.33333333333334 L 155.00000000000003 133.33333333333334 L 157.22222222222223 133.33333333333334 L 161.66666666666669 133.33333333333334 L 167.7777777777778 132.7777777777778 L 175.00000000000003 131.66666666666669 L 183.33333333333334 131.11111111111111 L 190.00000000000003 130.55555555555557 L 193.33333333333334 130.55555555555557 L 193.8888888888889 131.11111111111111 L 193.8888888888889 131.11111111111111 L 193.33333333333334 131.11111111111111 L 193.33333333333334 131.11111111111111 L 192.7777777777778 131.66666666666669 L 192.22222222222223 132.7777777777778 L 191.66666666666669 134.44444444444446 L 191.11111111111114 136.66666666666669 L 190.55555555555557 139.44444444444446 L 190.00000000000003 142.22222222222223 L 190.00000000000003 144.44444444444446 L 190.00000000000003 145.55555555555557 " stroke="black" fill="none" stroke-width="7.0" stroke-linecap="round" stroke-linejoin="round" />
<path d="M 172.7777777777778 140.55555555555557 L 172.7777777777778 140.55555555555557 L 172.7777777777778 138.8888888888889 L 172.7777777777778 137.7777777777778 L 172.7777777777778 137.22222222222223 L 172.7777777777778 137.22222222222223 L 173.33333333333334 138.8888888888889 L 173.33333333333334 142.7777777777778 L 173.33333333333334 150.00000000000003 L 173.33333333333334 158.8888888888889 L 173.8888888888889 168.33333333333334 L 173.8888888888889 174.44444444444446 L 174.44444444444446 176.66666666666669 L 174.44444444444446 177.7777777777778 L 173.8888888888889 178.8888888888889 L 173.8888888888889 181.11111111111114 L 173.8888888888889 181.66666666666669 L 173.8888888888889 182.22222222222223 L 173.8888888888889 182.22222222222223 L 173.8888888888889 182.22222222222223 L 173.8888888888889 182.22222222222223 L 173.33333333333334 182.22222222222223 L 173.33333333333334 182.22222222222223 L 173.33333333333334 182.22222222222223 L 172.7777777777778 182.22222222222223 L 172.7777777777778 182.22222222222223 L 172.7777777777778 182.22222222222223 L 172.22222222222223 182.22222222222223 L 172.22222222222223 182.22222222222223 L 172.22222222222223 182.22222222222223 L 171.66666666666669 182.22222222222223 L 171.11111111111114 182.22222222222223 L 169.44444444444446 182.22222222222223 L 167.7777777777778 182.22222222222223 L 165.00000000000003 182.22222222222223 L 162.7777777777778 181.66666666666669 L 161.11111111111111 180.55555555555557 " stroke="black" fill="none" stroke-width="7.0" stroke-linecap="round" stroke-linejoin="round" />
</svg>