<svg xmlns="http://www.w3.org/2000/svg" width="300" height="300" viewBox="0 0 300 300">
<path d="M 121.0 114.5 L 121.5 114.0 L 122.5 113.5 L 122.5 112.5 L 123.0 112.0 L 123.0 112.0 L 123.0 112.0 L 123.0 112.0 L 121.5 113.5 L 118.0 119.0 L 111.5 128.5 L 105.0 139.0 L 102.5 143.5 L 101.5 144.0 L 101.5 143.5 L 103.0 141.0 " stroke="black" fill="none" stroke-width="7.0" stroke-linecap="round" stroke-linejoin="round" />
<path d="M 124.0 115.0 L 123.5 116.0 L 123.0 116.5 L 123.5 117.0 L 126.0 119.0 L 130.0 123.0 L 135.0 127.0 L 139.0 130.5 L 141.0 132.0 L 141.0 132.5 L 140.5 132.5 " stroke="black" fill="none" stroke-width="7.0" stroke-linecap="round" stroke-linejoin="round" />
<path d="M 114.5 145.5 L 114.5 145.5 L 113.5 145.5 L 112.5 145.5 L 112.5 145.5 L 115.0 145.0 L 120.5 144.0 L 126.0 142.5 L 129.5 141.0 L 131.5 140.5 L 132.0 140.0 L 132.0 140.5 " stroke="black" fill="none" stroke-width="7.0" stroke-linecap="round" stroke-linejoin="round" />
<path d="M 118.5 159.0 L 116.0 160.0 L 115.0 160.5 L 115.0 160.5 L 117.5 160.5 L 121.5 160.0 L 126.5 158.5 L 130.0 157.5 L 132.0 156.0 L 133.0 155.0 " stroke="black" fill="none" stroke-width="7.0" stroke-linecap="round" stroke-linejoin="round" />
<path d="M 126.0 144.0 L 125.5 143.5 L 125.0 143.5 L 125.0 143.5 L 125.0 147.0 L 125.5 157.0 L 126.5 170.5 L 126.5 181.0 L 127.0 187.0 L 127.0 188.5 L 126.5 188.0 L 126.5 187.5 " stroke="black" fill="none" stroke-width="7.0" stroke-linecap="round" stroke-linejoin="round" />
<path d="M 110.5 174.5 L 110.0 175.0 L 109.5 175.0 L 109.0 175.0 L 109.0 175.5 L 111.0 175.5 L 114.5 176.0 L 119.0 176.0 L 121.5 175.5 " stroke="black" fill="none" stroke-width="7.0" stroke-linecap="round" stroke-linejoin="round" />
<path d="M 138.5 167.5 L 138.5 167.5 L 139.0 167.0 L 139.5 166.5 L 139.5 166.5 L 139.5 167.0 L 139.0 168.0 L 137.5 171.0 L 136.0 175.5 L 135.0 176.5 " stroke="black" fill="none" stroke-width="7.0" stroke-linecap="round" stroke-linejoin="round" />
<path d="M 115.5 192.0 L 113.5 192.5 L 112.5 192.5 L 113.0 192.5 L 116.5 192.0 L 123.0 190.0 L 129.5 189.0 L 136.5 188.0 L 143.0 187.0 " stroke="black" fill="none" stroke-width="7.0" stroke-linecap="round" stroke-linejoin="round" />
<path d="M 152.0 122.0 L 152.0 122.0 L 151.0 122.0 L 151.0 122.0 L 152.0 122.0 L 158.0 121.0 L 166.0 120.0 L 173.0 119.0 L 176.5 118.5 L 178.0 118.0 L 178.0 118.0 " stroke="black" fill="none" stroke-width="7.0" stroke-linecap="round" stroke-linejoin="round" />
<path d="M 152.0 144.0 L 152.0 144.0 L 152.0 144.0 L 152.5 144.0 L 155.0 143.5 L 161.0 143.0 L 168.5 142.0 L 174.0 141.0 L 176.5 140.5 L 177.0 140.0 L 176.5 139.0 " stroke="black" fill="none" stroke-width="7.0" stroke-linecap="round" stroke-linejoin="round" />
<path d="M 169.0 122.5 L 167.0 121.5 L 166.5 121.5 L 166.5 121.5 L 166.0 124.5 L 166.0 132.0 L 165.5 145.0 L 165.0 158.0 L 164.5 166.5 L 164.5 172.0 L 165.0 175.0 L 165.0 175.5 L 165.0 175.5 " stroke="black" fill="none" stroke-width="7.0" stroke-linecap="round" stroke-linejoin="round" />
<path d="M 174.5 158.0 L 175.5 158.5 L 176.0 159.0 L 176.0 159.5 L 177.0 160.5 L 178.5 162.5 L 179.5 165.0 L 181.0 167.0 L 181.0 168.0 " stroke="black" fill="none" stroke-width="7.0" stroke-linecap="round" stroke-linejoin="round" />
<path d="M 153.0 180.0 L 154.5 179.5 L 155.5 179.5 L 157.0 179.5 L 159.0 179.0 L 163.0 178.5 L 168.5 178.5 L 174.5 179.5 L 180.0 180.0 L 184.5 180.0 L 186.0 179.0 " stroke="black" fill="none" stroke-width="7.0" stroke-linecap="round" stroke-linejoin="round" />
</svg>