<svg xmlns="http://www.w3.org/2000/svg" width="300" height="300" viewBox="0 0 300 300">
<path d="M 130.5 114.5 L 131.0 114.5 L 131.5 114.0 L 132.0 114.0 L 132.0 114.0 L 132.0 114.0 L 131.0 117.5 L 127.5 125.5 L 123.0 135.0 L 120.5 140.0 L 120.0 140.5 L 120.0 139.0 " stroke="black" fill="none" stroke-width="6.0" stroke-linecap="round" stroke-linejoin="round" />
<path d="M 134.0 113.0 L 134.0 113.0 L 134.0 113.5 L 134.5 114.0 L 136.0 115.0 L 140.0 118.0 L 144.0 122.0 L 147.5 125.5 L 149.0 128.0 L 149.0 129.0 " stroke="black" fill="none" stroke-width="6.0" stroke-linecap="round" stroke-linejoin="round" />
<path d="M 128.0 141.0 L 128.0 141.0 L 128.5 141.0 L 130.0 140.5 L 133.0 139.5 L 137.0 138.0 L 140.0 137.0 L 142.0 136.5 L 142.0 136.5 " stroke="black" fill="none" stroke-width="6.0" stroke-linecap="round" stroke-linejoin="round" />
<path d="M 130.5 154.0 L 130.5 154.5 L 130.5 155.0 L 130.5 155.5 L 131.5 155.5 L 134.0 155.0 L 138.0 153.5 L 141.5 152.0 L 142.0 151.5 " stroke="black" fill="none" stroke-width="6.0" stroke-linecap="round" stroke-linejoin="round" />
<path d="M 137.5 141.0 L 137.0 140.5 L 136.5 140.0 L 136.5 140.0 L 136.5 142.0 L 136.5 147.0 L 136.5 155.5 L 136.5 165.0 L 136.5 172.5 L 137.0 176.0 L 137.5 175.0 " stroke="black" fill="none" stroke-width="6.0" stroke-linecap="round" stroke-linejoin="round" />
<path d="M 126.0 168.0 L 126.0 168.0 L 126.0 168.0 L 126.0 167.5 L 126.0 167.5 L 126.5 167.5 L 128.0 167.5 L 130.0 167.5 L 132.0 167.5 " stroke="black" fill="none" stroke-width="6.0" stroke-linecap="round" stroke-linejoin="round" />
<path d="M 145.5 161.5 L 145.5 161.5 L 146.0 162.0 L 146.0 162.5 L 146.0 162.5 L 146.0 163.0 L 145.5 164.0 L 144.5 165.5 " stroke="black" fill="none" stroke-width="6.0" stroke-linecap="round" stroke-linejoin="round" />
<path d="M 124.0 182.5 L 124.0 182.5 L 124.5 182.0 L 124.5 181.5 L 125.5 181.5 L 128.0 181.0 L 133.0 180.5 L 138.5 179.0 L 144.0 176.0 L 145.5 175.0 " stroke="black" fill="none" stroke-width="6.0" stroke-linecap="round" stroke-linejoin="round" />
<path d="M 158.0 112.0 L 158.0 112.0 L 158.0 112.5 L 158.0 112.5 L 158.0 113.5 L 158.0 119.0 L 159.0 134.5 L 159.5 153.0 L 159.0 165.5 L 158.5 171.0 L 158.5 171.5 L 158.0 170.0 L 157.0 166.0 " stroke="black" fill="none" stroke-width="6.0" stroke-linecap="round" stroke-linejoin="round" />
<path d="M 160.0 117.0 L 160.0 117.0 L 159.0 116.5 L 158.5 116.0 L 159.0 115.5 L 161.0 115.0 L 163.5 115.0 L 168.0 114.5 L 174.0 114.5 L 181.0 113.5 L 186.5 113.0 L 189.0 113.0 L 189.5 113.0 L 189.0 113.0 L 188.5 113.0 L 188.5 113.0 L 188.0 113.0 L 188.0 113.0 L 188.0 113.5 L 188.0 114.0 L 187.5 115.5 L 187.5 118.5 L 187.5 122.5 L 187.0 129.0 L 187.0 138.5 L 187.0 150.5 L 187.0 161.5 L 187.0 169.5 L 187.0 175.0 L 187.0 178.5 L 187.0 181.0 L 187.0 182.5 L 187.0 182.5 L 186.0 182.5 L 184.0 181.0 L 182.5 178.5 L 181.5 177.0 " stroke="black" fill="none" stroke-width="6.0" stroke-linecap="round" stroke-linejoin="round" />
<path d="M 165.0 127.0 L 164.5 127.0 L 164.0 127.0 L 164.0 127.0 L 164.5 127.0 L 167.0 127.0 L 170.5 127.0 L 173.5 126.5 L 175.5 126.0 L 176.0 126.0 " stroke="black" fill="none" stroke-width="6.0" stroke-linecap="round" stroke-linejoin="round" />
<path d="M 165.5 142.0 L 165.5 141.5 L 165.5 140.5 L 165.0 140.0 L 165.0 140.0 L 165.0 142.0 L 165.5 146.5 L 166.5 150.5 L 167.0 153.5 L 167.0 154.0 " stroke="black" fill="none" stroke-width="6.0" stroke-linecap="round" stroke-linejoin="round" />
<path d="M 167.0 139.0 L 167.0 138.5 L 167.0 138.5 L 167.0 138.0 L 168.0 138.0 L 169.5 138.0 L 171.5 138.0 L 173.5 138.0 L 175.5 138.0 L 176.5 138.5 L 177.5 139.5 L 178.0 141.5 L 178.0 144.5 L 178.0 149.0 L 177.0 152.5 L 175.5 155.0 L 175.0 155.0 " stroke="black" fill="none" stroke-width="6.0" stroke-linecap="round" stroke-linejoin="round" />
<path d="M 168.0 153.5 L 168.0 154.0 L 168.0 154.5 L 168.0 155.0 L 169.5 155.0 L 172.0 155.0 L 175.0 154.5 L 176.5 153.5 " stroke="black" fill="none" stroke-width="6.0" stroke-linecap="round" stroke-linejoin="round" />
</svg>