<svg xmlns="http://www.w3.org/2000/svg" width="300" height="300" viewBox="0 0 300 300">
<path d="M 128.5 127.5 L 128.5 127.5 L 128.5 127.0 L 128.5 126.0 L 128.5 125.5 L 128.5 124.5 L 129.0 124.0 L 129.0 123.5 L 129.0 124.5 L 126.0 130.0 L 119.0 142.0 L 114.0 151.0 L 113.0 152.5 L 113.5 151.0 " stroke="black" fill="none" stroke-width="8.0" stroke-linecap="round" stroke-linejoin="round" />
<path d="M 130.0 125.0 L 129.5 125.0 L 129.0 124.5 L 129.0 124.5 L 129.5 126.0 L 132.5 130.5 L 136.5 135.5 L 140.0 138.5 L 141.5 139.5 " stroke="black" fill="none" stroke-width="8.0" stroke-linecap="round" stroke-linejoin="round" />
<path d="M 123.0 156.0 L 121.5 156.0 L 121.0 156.0 L 121.0 155.5 L 124.0 154.0 L 127.5 152.5 L 131.5 151.0 L 134.5 150.5 L 135.0 150.5 " stroke="black" fill="none" stroke-width="8.0" stroke-linecap="round" stroke-linejoin="round" />
<path d="M 125.5 167.0 L 124.0 167.0 L 123.0 167.0 L 123.0 167.0 L 125.5 166.5 L 129.0 165.0 L 132.0 163.5 L 134.0 162.5 " stroke="black" fill="none" stroke-width="8.0" stroke-linecap="round" stroke-linejoin="round" />
<path d="M 129.5 153.5 L 129.5 153.5 L 128.5 154.0 L 128.0 154.5 L 128.0 157.0 L 128.5 163.0 L 129.5 170.0 L 130.0 176.0 L 131.0 180.0 L 131.5 181.5 " stroke="black" fill="none" stroke-width="8.0" stroke-linecap="round" stroke-linejoin="round" />
<path d="M 119.0 176.5 L 118.5 177.0 L 116.5 177.5 L 116.0 178.0 L 116.5 178.0 L 119.0 178.0 L 122.5 178.5 L 126.0 178.5 " stroke="black" fill="none" stroke-width="8.0" stroke-linecap="round" stroke-linejoin="round" />
<path d="M 140.0 170.5 L 140.0 171.0 L 139.0 171.0 L 139.0 171.0 L 139.0 172.0 L 139.0 173.5 L 139.0 174.5 " stroke="black" fill="none" stroke-width="8.0" stroke-linecap="round" stroke-linejoin="round" />
<path d="M 123.5 190.0 L 121.5 190.5 L 120.5 191.0 L 120.5 191.0 L 121.5 191.0 L 124.0 190.5 L 128.0 189.0 L 132.5 186.5 L 137.5 183.5 L 138.5 182.5 " stroke="black" fill="none" stroke-width="8.0" stroke-linecap="round" stroke-linejoin="round" />
<path d="M 153.0 121.5 L 153.0 120.5 L 153.0 120.0 L 153.0 121.0 L 152.0 125.0 L 149.5 131.5 L 147.0 138.5 L 146.0 143.0 L 146.0 144.0 " stroke="black" fill="none" stroke-width="8.0" stroke-linecap="round" stroke-linejoin="round" />
<path d="M 153.5 130.0 L 153.5 130.0 L 152.5 131.0 L 152.0 131.0 L 152.5 131.0 L 155.0 131.0 L 159.5 130.5 L 164.0 129.5 L 169.5 128.5 L 174.0 128.0 L 176.0 128.0 L 177.0 129.5 L 177.0 131.5 L 176.5 134.0 L 176.5 138.0 L 176.5 143.5 L 176.5 149.5 L 177.0 156.0 L 177.5 162.5 L 177.5 168.5 L 177.5 173.5 L 177.0 178.0 L 176.0 181.5 L 174.5 184.0 L 172.0 185.5 L 169.5 186.0 L 166.5 186.0 L 164.0 185.5 L 163.0 182.5 L 162.5 181.0 " stroke="black" fill="none" stroke-width="8.0" stroke-linecap="round" stroke-linejoin="round" />
<path d="M 152.0 150.0 L 152.0 150.5 L 152.0 151.0 L 152.5 151.0 L 153.5 150.0 L 156.0 149.5 L 159.0 148.5 L 162.0 148.5 L 164.0 148.5 " stroke="black" fill="none" stroke-width="8.0" stroke-linecap="round" stroke-linejoin="round" />
<path d="M 150.5 163.5 L 150.0 163.5 L 149.0 163.5 L 148.5 163.5 L 148.0 163.5 L 149.5 163.0 L 152.5 162.5 L 156.5 162.0 L 161.0 161.0 L 164.5 161.0 L 166.5 161.0 L 167.0 161.0 " stroke="black" fill="none" stroke-width="8.0" stroke-linecap="round" stroke-linejoin="round" />
</svg>