<svg xmlns="http://www.w3.org/2000/svg" width="300" height="300" viewBox="0 0 300 300">
<path d="M 121.66666666666667 110.0 L 121.1111111111111 110.0 L 119.44444444444444 110.0 L 118.8888888888889 110.0 L 119.44444444444444 110.0 L 121.66666666666667 109.44444444444444 L 126.1111111111111 109.44444444444444 L 131.66666666666669 109.44444444444444 L 137.7777777777778 108.88888888888889 L 140.55555555555557 107.77777777777779 L 141.66666666666669 107.77777777777779 L 141.66666666666669 107.77777777777779 L 141.11111111111111 108.88888888888889 L 140.55555555555557 112.22222222222221 L 140.00000000000003 116.66666666666667 L 138.8888888888889 123.33333333333333 L 137.7777777777778 130.00000000000003 L 137.22222222222223 134.44444444444446 L 137.22222222222223 135.00000000000003 L 137.22222222222223 133.33333333333334 " stroke="black" fill="none" stroke-width="7.0" stroke-linecap="round" stroke-linejoin="round" />
<path d="M 122.22222222222221 124.44444444444444 L 121.66666666666667 124.44444444444444 L 120.00000000000001 125.00000000000001 L 119.44444444444444 125.00000000000001 L 122.22222222222221 125.00000000000001 L 126.66666666666667 124.44444444444444 L 131.11111111111111 124.44444444444444 L 135.00000000000003 123.8888888888889 L 137.22222222222223 123.8888888888889 L 137.7777777777778 123.8888888888889 " stroke="black" fill="none" stroke-width="7.0" stroke-linecap="round" stroke-linejoin="round" />
<path d="M 120.55555555555556 138.33333333333334 L 120.55555555555556 137.7777777777778 L 120.00000000000001 137.7777777777778 L 122.22222222222221 137.22222222222223 L 125.55555555555556 137.22222222222223 L 128.8888888888889 137.22222222222223 L 130.55555555555557 136.66666666666669 " stroke="black" fill="none" stroke-width="7.0" stroke-linecap="round" stroke-linejoin="round" />
<path d="M 119.44444444444444 114.44444444444444 L 118.33333333333333 113.8888888888889 L 118.33333333333333 113.33333333333333 L 117.77777777777779 113.33333333333333 L 117.77777777777779 115.00000000000001 L 118.33333333333333 120.00000000000001 L 118.33333333333333 130.55555555555557 L 118.33333333333333 149.44444444444446 L 116.66666666666667 171.66666666666669 L 115.55555555555556 188.33333333333334 L 115.55555555555556 195.55555555555557 L 115.00000000000001 195.55555555555557 L 115.00000000000001 195.00000000000003 " stroke="black" fill="none" stroke-width="7.0" stroke-linecap="round" stroke-linejoin="round" />
<path d="M 160.55555555555557 113.8888888888889 L 160.55555555555557 112.77777777777779 L 160.55555555555557 112.22222222222221 L 160.55555555555557 111.66666666666667 L 161.11111111111111 111.66666666666667 L 161.11111111111111 114.44444444444444 L 161.11111111111111 121.66666666666667 L 160.55555555555557 130.00000000000003 L 158.8888888888889 136.11111111111111 L 158.33333333333334 137.22222222222223 " stroke="black" fill="none" stroke-width="7.0" stroke-linecap="round" stroke-linejoin="round" />
<path d="M 161.66666666666669 110.55555555555556 L 161.11111111111111 111.11111111111111 L 160.55555555555557 111.11111111111111 L 160.55555555555557 111.66666666666667 L 162.22222222222223 111.66666666666667 L 165.00000000000003 111.66666666666667 L 168.33333333333334 111.11111111111111 L 170.55555555555557 110.55555555555556 L 172.7777777777778 110.55555555555556 L 173.8888888888889 110.55555555555556 L 175.00000000000003 110.55555555555556 L 175.00000000000003 111.11111111111111 L 175.00000000000003 111.66666666666667 L 175.00000000000003 112.22222222222221 L 175.55555555555557 112.77777777777779 L 175.55555555555557 113.33333333333333 L 176.11111111111114 115.00000000000001 L 176.11111111111114 117.22222222222221 L 176.11111111111114 121.1111111111111 L 176.11111111111114 126.66666666666667 L 176.11111111111114 134.44444444444446 L 176.11111111111114 143.33333333333334 L 176.66666666666669 151.11111111111111 L 177.22222222222223 158.8888888888889 L 177.22222222222223 168.33333333333334 L 176.66666666666669 177.22222222222223 L 176.11111111111114 185.55555555555557 L 175.55555555555557 191.66666666666669 L 176.11111111111114 195.55555555555557 L 176.11111111111114 198.8888888888889 L 176.11111111111114 202.22222222222223 L 176.11111111111114 205.00000000000003 L 176.11111111111114 206.11111111111114 L 175.55555555555557 206.11111111111114 L 173.8888888888889 205.55555555555557 L 172.22222222222223 203.8888888888889 L 170.00000000000003 202.7777777777778 L 168.33333333333334 201.66666666666669 L 167.7777777777778 201.11111111111114 " stroke="black" fill="none" stroke-width="7.0" stroke-linecap="round" stroke-linejoin="round" />
<path d="M 161.11111111111111 126.1111111111111 L 161.11111111111111 126.1111111111111 L 161.11111111111111 126.1111111111111 L 163.33333333333334 126.1111111111111 L 166.66666666666669 126.1111111111111 L 170.00000000000003 126.1111111111111 L 171.66666666666669 125.55555555555556 L 172.22222222222223 125.55555555555556 " stroke="black" fill="none" stroke-width="7.0" stroke-linecap="round" stroke-linejoin="round" />
<path d="M 160.55555555555557 142.7777777777778 L 160.00000000000003 142.7777777777778 L 160.00000000000003 141.66666666666669 L 160.00000000000003 141.11111111111111 L 161.66666666666669 140.55555555555557 L 164.44444444444446 140.55555555555557 L 168.8888888888889 140.55555555555557 L 171.66666666666669 140.55555555555557 " stroke="black" fill="none" stroke-width="7.0" stroke-linecap="round" stroke-linejoin="round" />
</svg>