<svg xmlns="http://www.w3.org/2000/svg" width="300" height="300" viewBox="0 0 300 300">
<path d="M 116.5 108.5 L 115.0 108.5 L 114.5 108.5 L 114.5 108.5 L 117.0 108.0 L 121.0 107.0 L 125.0 106.5 L 130.5 106.0 L 136.5 106.0 L 140.0 106.0 L 141.5 106.5 L 141.5 106.5 L 140.5 106.5 L 140.0 107.0 L 139.0 108.5 L 138.5 110.0 L 137.5 113.5 L 136.0 118.0 L 135.5 122.5 L 135.5 125.5 L 135.5 127.0 L 135.5 127.0 " stroke="black" fill="none" stroke-width="7.0" stroke-linecap="round" stroke-linejoin="round" />
<path d="M 121.5 119.5 L 121.0 119.5 L 119.0 119.5 L 119.0 119.5 L 120.0 119.5 L 123.0 119.0 L 127.0 119.0 L 131.0 118.0 L 135.0 117.0 L 136.5 117.0 " stroke="black" fill="none" stroke-width="7.0" stroke-linecap="round" stroke-linejoin="round" />
<path d="M 119.5 130.5 L 118.5 131.0 L 117.0 131.5 L 117.0 131.5 L 119.5 131.5 L 123.5 131.5 L 127.0 131.0 L 130.0 130.0 " stroke="black" fill="none" stroke-width="7.0" stroke-linecap="round" stroke-linejoin="round" />
<path d="M 116.0 112.0 L 116.0 112.0 L 116.0 112.0 L 116.0 112.5 L 116.0 115.0 L 116.0 125.0 L 114.5 144.5 L 112.5 164.0 L 111.5 177.0 L 112.0 183.5 L 112.5 185.0 L 112.5 184.5 " stroke="black" fill="none" stroke-width="7.0" stroke-linecap="round" stroke-linejoin="round" />
<path d="M 158.5 107.5 L 159.5 107.0 L 160.0 107.0 L 160.5 107.5 L 160.5 111.0 L 159.5 118.5 L 158.5 126.5 L 158.0 131.0 L 158.0 132.0 L 158.0 132.0 " stroke="black" fill="none" stroke-width="7.0" stroke-linecap="round" stroke-linejoin="round" />
<path d="M 161.0 109.0 L 160.5 109.0 L 159.5 109.0 L 158.5 109.5 L 158.5 109.5 L 160.0 109.5 L 163.5 108.5 L 168.0 108.5 L 173.0 108.0 L 179.0 107.5 L 183.5 107.5 L 186.0 108.0 L 186.0 108.5 L 186.0 108.5 L 185.5 108.5 L 185.5 108.5 L 185.0 108.5 L 185.0 108.5 L 185.0 108.5 L 185.0 109.0 L 185.0 109.0 L 185.0 109.5 L 185.0 110.0 L 184.5 111.5 L 184.0 115.0 L 183.5 122.0 L 183.0 132.5 L 182.5 144.5 L 181.5 156.0 L 181.5 165.0 L 181.0 172.5 L 181.0 179.5 L 181.0 185.5 L 181.0 190.5 L 181.0 193.0 L 181.0 193.5 L 180.5 194.0 L 179.5 194.5 L 178.0 195.0 L 176.0 196.0 L 174.5 196.0 L 172.5 195.0 L 171.0 193.5 " stroke="black" fill="none" stroke-width="7.0" stroke-linecap="round" stroke-linejoin="round" />
<path d="M 166.0 122.5 L 165.5 122.5 L 164.5 122.5 L 164.5 122.5 L 165.5 122.5 L 168.5 122.0 L 171.5 121.5 L 174.0 121.5 L 176.0 121.5 L 177.0 122.5 " stroke="black" fill="none" stroke-width="7.0" stroke-linecap="round" stroke-linejoin="round" />
<path d="M 163.5 137.0 L 162.0 137.0 L 161.5 137.0 L 163.5 137.0 L 167.5 137.0 L 171.5 137.0 L 175.5 137.0 L 178.0 137.0 " stroke="black" fill="none" stroke-width="7.0" stroke-linecap="round" stroke-linejoin="round" />
<path d="M 132.5 152.5 L 132.5 153.0 L 132.5 153.0 L 133.5 153.0 L 137.5 153.5 L 144.5 153.5 L 153.5 152.5 L 162.0 151.5 L 165.5 151.0 L 166.5 150.5 " stroke="black" fill="none" stroke-width="7.0" stroke-linecap="round" stroke-linejoin="round" />
<path d="M 147.0 135.5 L 146.5 135.0 L 146.0 135.0 L 146.0 136.5 L 147.0 140.5 L 147.5 148.0 L 147.5 160.5 L 147.0 174.5 L 146.5 184.0 L 146.5 186.5 L 147.0 185.0 L 147.0 182.5 " stroke="black" fill="none" stroke-width="7.0" stroke-linecap="round" stroke-linejoin="round" />
<path d="M 145.5 159.5 L 145.0 159.5 L 144.5 159.0 L 144.5 159.0 L 143.5 161.5 L 140.5 167.5 L 134.5 175.5 L 129.0 181.0 L 127.5 182.0 " stroke="black" fill="none" stroke-width="7.0" stroke-linecap="round" stroke-linejoin="round" />
<path d="M 150.0 162.5 L 149.5 162.0 L 149.5 162.0 L 151.5 162.0 L 156.5 164.5 L 163.5 169.0 L 170.0 172.5 L 172.0 173.5 " stroke="black" fill="none" stroke-width="7.0" stroke-linecap="round" stroke-linejoin="round" />
</svg>