<svg xmlns="http://www.w3.org/2000/svg" width="300" height="300" viewBox="0 0 300 300">
<path d="M 109.0 111.0 L 109.0 111.0 L 108.0 111.0 L 107.5 111.0 L 108.0 111.0 L 111.0 111.0 L 115.5 110.5 L 120.5 110.0 L 124.5 110.0 L 126.0 111.5 L 126.5 113.0 L 126.0 115.0 L 124.0 118.0 L 122.0 122.0 L 120.0 125.0 L 118.5 126.5 L 118.5 127.0 L 118.5 127.0 L 119.0 127.0 L 120.5 128.0 L 122.5 129.0 L 124.5 131.5 L 125.5 135.0 L 125.5 141.0 L 125.5 146.5 L 125.5 152.0 L 125.0 156.5 L 124.0 160.0 L 123.0 162.0 L 121.0 162.5 L 118.0 159.5 L 114.5 155.0 L 111.5 150.0 " stroke="black" fill="none" stroke-width="8.0" stroke-linecap="round" stroke-linejoin="round" />
<path d="M 103.0 112.0 L 102.0 112.5 L 101.5 114.0 L 101.5 117.0 L 101.5 124.0 L 101.5 138.5 L 102.0 157.0 L 102.5 175.0 L 103.0 189.0 L 103.0 197.0 L 103.0 201.0 L 103.0 200.5 " stroke="black" fill="none" stroke-width="8.0" stroke-linecap="round" stroke-linejoin="round" />
<path d="M 158.0 103.5 L 158.0 103.0 L 158.0 102.0 L 158.5 102.5 L 160.5 105.0 L 164.0 108.5 L 167.0 111.5 L 169.0 113.0 L 169.5 113.0 L 170.0 113.0 " stroke="black" fill="none" stroke-width="8.0" stroke-linecap="round" stroke-linejoin="round" />
<path d="M 146.5 122.0 L 146.0 122.0 L 145.5 121.5 L 145.0 121.5 L 147.5 121.0 L 155.5 120.0 L 167.0 119.0 L 177.5 118.0 L 183.5 117.5 L 185.5 118.0 L 184.5 119.0 " stroke="black" fill="none" stroke-width="8.0" stroke-linecap="round" stroke-linejoin="round" />
<path d="M 151.5 134.0 L 151.0 133.0 L 150.5 132.5 L 150.5 132.5 L 151.5 133.5 L 154.0 136.0 L 157.0 138.5 L 161.0 140.0 L 162.0 140.5 " stroke="black" fill="none" stroke-width="8.0" stroke-linecap="round" stroke-linejoin="round" />
<path d="M 174.5 127.5 L 174.5 127.5 L 174.5 127.5 L 174.0 128.0 L 173.5 130.5 L 172.5 134.0 L 171.5 137.5 L 170.5 140.5 " stroke="black" fill="none" stroke-width="8.0" stroke-linecap="round" stroke-linejoin="round" />
<path d="M 147.0 151.0 L 145.0 152.0 L 142.5 153.5 L 142.5 153.5 L 146.0 153.0 L 154.5 151.0 L 165.5 149.5 L 175.0 149.0 L 182.5 149.0 L 187.0 149.5 " stroke="black" fill="none" stroke-width="8.0" stroke-linecap="round" stroke-linejoin="round" />
<path d="M 148.0 166.0 L 147.0 165.0 L 146.5 164.5 L 146.5 165.0 L 147.5 167.5 L 148.0 172.5 L 149.0 180.0 L 150.0 187.5 L 151.5 190.0 L 152.0 190.5 " stroke="black" fill="none" stroke-width="8.0" stroke-linecap="round" stroke-linejoin="round" />
<path d="M 152.0 172.0 L 150.5 172.0 L 149.5 172.0 L 149.0 172.0 L 152.5 171.5 L 160.0 169.5 L 168.5 167.5 L 175.5 166.5 L 180.0 166.5 L 181.5 167.5 L 181.5 169.5 L 181.0 172.5 L 180.0 176.5 L 178.5 180.5 L 177.5 183.5 L 176.5 186.5 L 176.5 188.0 " stroke="black" fill="none" stroke-width="8.0" stroke-linecap="round" stroke-linejoin="round" />
<path d="M 157.5 194.5 L 156.0 195.0 L 155.0 195.0 L 156.5 195.0 L 162.0 194.5 L 168.5 194.0 L 175.0 193.5 L 179.5 193.5 L 180.0 193.5 " stroke="black" fill="none" stroke-width="8.0" stroke-linecap="round" stroke-linejoin="round" />
</svg>