<svg xmlns="http://www.w3.org/2000/svg" width="300" height="300" viewBox="0 0 300 300">
<path d="M 132.5 106.0 L 133.0 106.5 L 134.0 107.0 L 134.5 107.5 L 134.5 107.5 L 134.5 107.5 L 133.0 109.5 L 130.0 113.5 L 125.5 118.0 L 121.5 122.0 L 118.5 123.5 L 117.5 124.0 L 118.0 124.0 L 118.5 123.5 " stroke="black" fill="none" stroke-width="6.0" stroke-linecap="round" stroke-linejoin="round" />
<path d="M 126.5 120.0 L 125.5 120.0 L 125.5 121.0 L 125.5 125.5 L 126.5 134.5 L 127.0 143.5 L 127.0 148.0 L 127.0 149.0 L 127.0 148.5 " stroke="black" fill="none" stroke-width="6.0" stroke-linecap="round" stroke-linejoin="round" />
<path d="M 142.5 108.0 L 141.5 109.0 L 141.5 109.0 L 141.5 109.5 L 142.5 109.5 L 143.5 111.5 L 145.0 113.5 L 145.5 115.5 L 146.0 117.0 " stroke="black" fill="none" stroke-width="6.0" stroke-linecap="round" stroke-linejoin="round" />
<path d="M 137.0 121.5 L 137.5 121.0 L 138.0 120.5 L 139.0 120.0 L 141.0 119.5 L 143.5 119.0 L 146.0 119.0 " stroke="black" fill="none" stroke-width="6.0" stroke-linecap="round" stroke-linejoin="round" />
<path d="M 139.0 132.0 L 139.0 132.5 L 139.0 133.5 L 139.0 133.5 L 140.5 133.5 L 142.5 132.5 L 145.0 132.0 L 146.5 131.5 " stroke="black" fill="none" stroke-width="6.0" stroke-linecap="round" stroke-linejoin="round" />
<path d="M 137.5 144.0 L 137.5 144.0 L 138.0 143.5 L 139.0 143.0 L 140.5 143.0 L 143.0 143.0 L 145.5 142.5 L 146.5 142.0 " stroke="black" fill="none" stroke-width="6.0" stroke-linecap="round" stroke-linejoin="round" />
<path d="M 143.5 123.0 L 142.5 123.0 L 142.0 123.0 L 141.5 123.0 L 141.5 124.5 L 141.5 129.0 L 141.5 137.5 L 141.5 146.0 L 141.0 151.0 L 141.0 151.5 " stroke="black" fill="none" stroke-width="6.0" stroke-linecap="round" stroke-linejoin="round" />
<path d="M 134.5 153.0 L 134.5 154.0 L 135.0 154.5 L 136.0 154.5 L 138.5 154.0 L 142.5 153.0 L 146.0 152.0 L 148.5 150.5 " stroke="black" fill="none" stroke-width="6.0" stroke-linecap="round" stroke-linejoin="round" />
<path d="M 169.5 106.0 L 169.5 106.0 L 169.0 106.5 L 168.5 106.5 L 168.5 107.0 L 168.0 107.5 L 163.5 115.5 L 160.0 121.0 L 157.5 123.5 L 157.0 124.0 " stroke="black" fill="none" stroke-width="6.0" stroke-linecap="round" stroke-linejoin="round" />
<path d="M 161.5 120.5 L 162.0 119.5 L 162.5 119.5 L 163.5 120.0 L 164.5 124.5 L 165.5 132.5 L 165.5 142.0 L 165.5 148.5 L 166.0 149.0 L 166.5 148.0 " stroke="black" fill="none" stroke-width="6.0" stroke-linecap="round" stroke-linejoin="round" />
<path d="M 176.0 111.0 L 176.0 111.0 L 176.0 111.0 L 176.0 111.0 L 176.0 111.0 L 177.0 112.0 L 178.0 114.0 L 179.0 115.5 L 179.5 116.5 " stroke="black" fill="none" stroke-width="6.0" stroke-linecap="round" stroke-linejoin="round" />
<path d="M 173.5 122.0 L 173.5 122.0 L 173.0 122.0 L 173.0 122.0 L 173.5 122.0 L 176.5 121.5 L 179.5 121.0 L 182.0 120.5 L 183.5 120.5 " stroke="black" fill="none" stroke-width="6.0" stroke-linecap="round" stroke-linejoin="round" />
<path d="M 175.5 131.0 L 176.0 131.5 L 176.0 132.0 L 176.5 132.0 L 178.0 132.0 L 180.0 132.0 L 182.0 132.0 L 183.5 132.0 L 183.5 131.5 " stroke="black" fill="none" stroke-width="6.0" stroke-linecap="round" stroke-linejoin="round" />
<path d="M 175.0 139.5 L 175.0 139.5 L 175.5 139.5 L 176.0 139.5 L 177.5 139.5 L 179.5 139.5 L 180.5 139.5 " stroke="black" fill="none" stroke-width="6.0" stroke-linecap="round" stroke-linejoin="round" />
<path d="M 179.0 125.0 L 179.0 125.0 L 178.5 126.0 L 178.5 127.0 L 178.5 129.0 L 178.5 134.0 L 179.0 140.0 L 179.0 145.5 L 179.0 148.5 L 178.5 148.5 " stroke="black" fill="none" stroke-width="6.0" stroke-linecap="round" stroke-linejoin="round" />
<path d="M 175.5 148.0 L 175.5 148.5 L 175.5 149.0 L 176.5 149.5 L 179.5 149.5 L 184.0 148.5 L 187.5 147.0 L 189.0 146.5 " stroke="black" fill="none" stroke-width="6.0" stroke-linecap="round" stroke-linejoin="round" />
<path d="M 133.0 166.5 L 133.5 166.0 L 134.0 165.0 L 134.5 164.5 L 135.5 164.5 L 137.0 164.5 L 140.5 164.5 L 146.5 163.5 L 154.0 162.0 L 161.5 160.5 L 166.5 159.5 L 169.5 159.0 L 170.5 159.0 L 170.5 159.0 L 170.5 159.0 L 170.5 159.0 L 170.5 160.0 L 170.5 161.0 L 170.0 162.0 L 170.0 163.0 L 169.0 164.5 L 168.0 166.5 L 165.0 169.5 L 160.0 174.0 L 153.5 179.5 L 147.0 185.5 L 142.0 190.0 L 139.0 192.5 L 138.0 193.0 L 138.0 192.5 L 138.0 192.0 L 138.0 191.0 " stroke="black" fill="none" stroke-width="6.0" stroke-linecap="round" stroke-linejoin="round" />
<path d="M 137.0 174.5 L 137.5 175.0 L 138.0 175.5 L 138.5 176.0 L 140.0 177.0 L 144.0 179.0 L 151.0 181.5 L 159.5 182.5 L 169.5 183.0 L 178.5 183.0 L 184.5 184.0 " stroke="black" fill="none" stroke-width="6.0" stroke-linecap="round" stroke-linejoin="round" />
</svg>