<svg xmlns="http://www.w3.org/2000/svg" width="300" height="300" viewBox="0 0 300 300">
<path d="M 110.0 110.5 L 109.5 110.5 L 108.5 111.5 L 107.5 111.5 L 108.5 111.5 L 112.5 111.0 L 117.5 110.0 L 122.0 109.5 L 124.5 109.5 L 125.5 111.0 L 125.0 113.0 L 123.0 116.5 L 120.5 120.5 L 119.0 122.5 L 118.5 124.0 L 118.5 124.5 L 120.5 126.0 L 123.0 128.5 L 125.5 132.5 L 127.0 139.0 L 127.5 146.5 L 127.5 153.5 L 126.5 158.5 L 125.0 160.0 L 123.0 159.5 L 120.5 156.0 L 117.5 152.0 L 115.5 149.5 " stroke="black" fill="none" stroke-width="8.0" stroke-linecap="round" stroke-linejoin="round" />
<path d="M 105.5 114.0 L 105.0 113.5 L 104.0 113.0 L 104.0 114.0 L 104.5 119.0 L 105.5 133.0 L 106.0 155.0 L 103.5 175.5 L 102.5 188.5 L 103.0 195.5 L 103.5 196.0 " stroke="black" fill="none" stroke-width="8.0" stroke-linecap="round" stroke-linejoin="round" />
<path d="M 148.5 128.0 L 148.0 128.0 L 147.0 128.0 L 146.0 128.0 L 145.5 128.5 L 146.0 128.5 L 148.5 128.0 L 152.5 125.5 L 156.0 122.5 L 157.0 121.0 " stroke="black" fill="none" stroke-width="8.0" stroke-linecap="round" stroke-linejoin="round" />
<path d="M 144.5 111.0 L 144.5 110.0 L 145.0 109.0 L 145.0 108.5 L 145.0 109.0 L 144.5 113.0 L 143.5 121.5 L 142.0 133.5 L 141.5 146.0 L 142.0 152.0 L 144.0 152.5 L 146.5 151.5 L 149.0 149.5 L 152.0 148.0 L 155.0 146.0 L 157.5 144.0 " stroke="black" fill="none" stroke-width="8.0" stroke-linecap="round" stroke-linejoin="round" />
<path d="M 171.0 127.5 L 170.5 128.0 L 169.0 128.0 L 169.0 128.5 L 170.5 127.5 L 174.0 125.5 L 176.5 123.5 L 179.0 121.5 L 179.5 121.0 " stroke="black" fill="none" stroke-width="8.0" stroke-linecap="round" stroke-linejoin="round" />
<path d="M 172.0 111.5 L 171.5 111.5 L 171.0 111.5 L 171.0 112.0 L 170.5 113.0 L 170.0 116.5 L 169.0 124.5 L 168.5 134.0 L 168.5 142.0 L 170.0 146.0 L 172.5 146.5 L 175.5 147.0 L 179.0 146.5 L 182.0 145.0 L 183.5 144.0 L 184.0 143.5 L 184.0 143.5 " stroke="black" fill="none" stroke-width="8.0" stroke-linecap="round" stroke-linejoin="round" />
<path d="M 158.5 160.0 L 159.0 160.0 L 160.0 158.5 L 160.5 157.5 L 161.0 157.0 L 161.0 157.0 L 159.5 158.5 L 157.5 162.0 L 155.5 165.5 L 154.5 167.5 " stroke="black" fill="none" stroke-width="8.0" stroke-linecap="round" stroke-linejoin="round" />
<path d="M 139.0 172.0 L 139.0 171.5 L 139.5 170.0 L 139.5 169.5 L 140.5 169.0 L 141.5 170.0 L 142.5 174.0 L 142.5 181.5 L 142.5 189.5 L 142.5 195.0 L 143.5 196.5 L 143.5 196.5 " stroke="black" fill="none" stroke-width="8.0" stroke-linecap="round" stroke-linejoin="round" />
<path d="M 148.0 172.5 L 146.5 172.5 L 145.0 173.0 L 146.0 173.0 L 149.5 173.5 L 155.5 173.0 L 163.0 172.5 L 170.0 172.0 L 175.5 171.5 L 178.0 171.5 L 178.5 171.5 L 178.5 171.5 L 178.5 172.5 L 178.5 175.0 L 177.5 178.5 L 176.0 183.5 L 175.0 189.0 L 174.0 192.0 L 174.0 193.0 " stroke="black" fill="none" stroke-width="8.0" stroke-linecap="round" stroke-linejoin="round" />
<path d="M 148.5 188.0 L 148.0 188.0 L 147.0 187.5 L 147.0 187.0 L 148.5 187.0 L 152.5 186.5 L 158.0 186.0 L 163.5 185.0 L 168.0 184.0 " stroke="black" fill="none" stroke-width="8.0" stroke-linecap="round" stroke-linejoin="round" />
<path d="M 144.5 200.5 L 144.5 200.5 L 144.0 201.5 L 144.5 201.5 L 148.0 201.5 L 154.0 200.5 L 161.5 199.0 L 168.0 198.0 L 170.5 198.0 " stroke="black" fill="none" stroke-width="8.0" stroke-linecap="round" stroke-linejoin="round" />
</svg>