<svg xmlns="http://www.w3.org/2000/svg" width="300" height="300" viewBox="0 0 300 300">
<path d="M 125.0 120.0 L 125.0 120.0 L 123.5 119.5 L 123.5 118.5 L 124.0 118.0 L 126.0 117.5 L 129.0 117.5 L 132.5 117.5 L 135.0 117.5 L 137.0 117.5 L 138.0 118.0 L 138.0 118.5 L 136.5 120.5 L 134.0 122.0 L 132.0 124.5 L 130.5 126.5 L 129.5 127.5 L 129.5 128.5 L 131.0 128.5 L 133.5 129.0 L 136.0 130.5 L 139.0 133.0 L 140.5 138.0 L 140.5 144.5 L 138.5 150.0 L 135.5 153.5 L 133.0 154.5 L 130.5 153.0 L 128.5 150.5 L 127.5 148.0 L 127.5 147.5 " stroke="black" fill="none" stroke-width="7.0" stroke-linecap="round" stroke-linejoin="round" />
<path d="M 119.5 124.5 L 119.0 123.5 L 118.5 122.5 L 119.0 122.5 L 120.5 126.0 L 122.0 134.5 L 122.5 150.5 L 122.5 169.5 L 122.0 184.0 L 122.5 191.5 L 123.5 193.5 L 124.0 192.0 " stroke="black" fill="none" stroke-width="7.0" stroke-linecap="round" stroke-linejoin="round" />
<path d="M 151.0 128.0 L 150.5 128.0 L 149.5 128.0 L 149.0 128.0 L 149.0 127.5 L 151.0 127.0 L 155.0 127.0 L 160.5 127.0 L 167.5 127.0 L 173.5 127.0 L 178.0 127.0 L 179.5 127.0 L 178.5 127.0 L 178.0 127.0 " stroke="black" fill="none" stroke-width="7.0" stroke-linecap="round" stroke-linejoin="round" />
<path d="M 151.5 140.5 L 151.5 140.5 L 151.0 140.0 L 150.5 139.5 L 150.5 139.0 L 150.5 138.5 L 150.5 139.0 L 151.0 143.0 L 152.0 150.0 L 153.0 156.5 L 154.0 159.5 L 154.0 159.5 " stroke="black" fill="none" stroke-width="7.0" stroke-linecap="round" stroke-linejoin="round" />
<path d="M 153.5 140.5 L 152.5 140.5 L 152.5 140.5 L 152.5 140.0 L 154.0 139.0 L 157.5 138.5 L 163.0 138.5 L 168.5 139.5 L 174.0 140.0 L 179.5 140.0 L 182.0 140.0 L 182.5 140.0 L 182.5 140.0 L 182.5 140.0 L 182.5 140.5 L 182.0 141.0 L 181.5 142.0 L 181.0 143.0 L 180.0 145.5 L 179.5 150.0 L 178.5 155.0 L 178.0 158.5 L 178.0 159.5 L 178.0 159.5 L 178.0 159.5 " stroke="black" fill="none" stroke-width="7.0" stroke-linecap="round" stroke-linejoin="round" />
<path d="M 157.0 152.5 L 157.0 152.5 L 157.0 152.5 L 157.5 152.5 L 159.5 152.0 L 163.5 151.0 L 167.5 150.5 L 172.0 150.5 L 175.5 150.5 " stroke="black" fill="none" stroke-width="7.0" stroke-linecap="round" stroke-linejoin="round" />
<path d="M 157.5 161.5 L 157.5 162.0 L 157.0 162.5 L 157.0 162.5 L 160.5 162.5 L 166.5 162.5 L 173.0 162.0 L 175.5 162.0 " stroke="black" fill="none" stroke-width="7.0" stroke-linecap="round" stroke-linejoin="round" />
<path d="M 170.0 112.5 L 168.0 114.5 L 168.0 118.0 L 168.0 125.0 L 168.5 138.0 L 168.5 152.5 L 168.5 167.0 L 168.0 179.5 L 167.5 189.0 L 167.5 196.0 L 168.5 198.0 L 169.0 196.0 L 169.0 193.5 " stroke="black" fill="none" stroke-width="7.0" stroke-linecap="round" stroke-linejoin="round" />
<path d="M 167.5 167.5 L 167.0 166.5 L 166.5 166.0 L 166.0 166.0 L 165.0 168.0 L 162.0 173.5 L 156.5 181.0 L 150.5 186.5 L 148.0 187.5 L 148.0 186.0 L 148.5 185.0 " stroke="black" fill="none" stroke-width="7.0" stroke-linecap="round" stroke-linejoin="round" />
<path d="M 168.5 172.0 L 168.5 172.5 L 168.0 172.5 L 170.5 174.0 L 177.0 177.0 L 185.5 180.5 L 191.5 184.0 L 194.0 187.0 L 194.5 187.5 " stroke="black" fill="none" stroke-width="7.0" stroke-linecap="round" stroke-linejoin="round" />
</svg>