<svg xmlns="http://www.w3.org/2000/svg" width="300" height="300" viewBox="0 0 300 300">
<path d="M 70.0 88.0 L 70.0 88.0 L 71.0 87.0 L 72.0 86.0 L 75.0 86.0 L 81.0 86.0 L 96.0 86.0 L 119.0 86.0 L 148.0 85.0 L 171.0 84.0 L 188.0 84.0 L 199.0 84.0 L 208.0 85.0 L 210.0 85.0 L 210.0 85.0 L 210.0 85.0 L 210.0 85.0 L 210.0 85.0 L 210.0 85.0 L 211.0 85.0 L 211.0 85.0 L 212.0 85.0 L 212.0 85.0 L 213.0 85.0 L 213.0 85.0 L 214.0 85.0 L 214.0 86.0 L 214.0 86.0 L 215.0 86.0 L 215.0 86.0 L 215.0 86.0 L 215.0 86.0 L 216.0 86.0 L 216.0 86.0 L 216.0 86.0 L 216.0 86.0 L 216.0 86.0 L 216.0 86.0 " stroke="black" fill="none" stroke-width="15.0" stroke-linecap="round" stroke-linejoin="round" />
<path d="M 74.0 137.0 L 74.0 137.0 L 74.0 137.0 L 74.0 137.0 L 74.0 140.0 L 75.0 149.0 L 75.0 167.0 L 75.0 191.0 L 75.0 213.0 L 75.0 232.0 L 77.0 240.0 L 78.0 241.0 L 78.0 240.0 L 78.0 235.0 " stroke="black" fill="none" stroke-width="15.0" stroke-linecap="round" stroke-linejoin="round" />
<path d="M 86.0 137.0 L 86.0 136.0 L 86.0 134.0 L 86.0 134.0 L 86.0 134.0 L 87.0 134.0 L 89.0 134.0 L 94.0 135.0 L 104.0 135.0 L 119.0 134.0 L 135.0 133.0 L 149.0 133.0 L 161.0 133.0 L 171.0 133.0 L 181.0 133.0 L 190.0 134.0 L 196.0 135.0 L 200.0 137.0 L 203.0 138.0 L 205.0 138.0 L 207.0 139.0 L 207.0 140.0 L 208.0 140.0 L 208.0 141.0 L 209.0 142.0 L 211.0 144.0 L 212.0 146.0 L 215.0 149.0 L 217.0 152.0 L 218.0 156.0 L 220.0 160.0 L 221.0 166.0 L 222.0 172.0 L 223.0 179.0 L 224.0 186.0 L 224.0 193.0 L 224.0 199.0 L 224.0 206.0 L 223.0 214.0 L 221.0 222.0 L 218.0 229.0 L 215.0 236.0 L 212.0 240.0 L 209.0 243.0 L 206.0 245.0 L 204.0 246.0 L 201.0 246.0 L 198.0 243.0 L 196.0 239.0 L 194.0 236.0 L 194.0 234.0 " stroke="black" fill="none" stroke-width="15.0" stroke-linecap="round" stroke-linejoin="round" />
<path d="M 148.0 82.0 L 148.0 82.0 L 148.0 82.0 L 148.0 82.0 L 148.0 84.0 L 148.0 91.0 L 149.0 105.0 L 149.0 124.0 L 150.0 144.0 L 150.0 163.0 L 150.0 181.0 L 150.0 197.0 L 150.0 210.0 L 150.0 218.0 L 150.0 225.0 L 149.0 231.0 L 149.0 233.0 L 149.0 233.0 L 149.0 232.0 " stroke="black" fill="none" stroke-width="15.0" stroke-linecap="round" stroke-linejoin="round" />
<path d="M 98.0 158.0 L 97.0 158.0 L 97.0 159.0 L 98.0 162.0 L 102.0 166.0 L 106.0 171.0 L 110.0 175.0 L 111.0 178.0 " stroke="black" fill="none" stroke-width="15.0" stroke-linecap="round" stroke-linejoin="round" />
<path d="M 101.0 223.0 L 99.0 223.0 L 98.0 222.0 L 98.0 220.0 L 102.0 215.0 L 106.0 211.0 L 113.0 206.0 L 120.0 201.0 " stroke="black" fill="none" stroke-width="15.0" stroke-linecap="round" stroke-linejoin="round" />
<path d="M 188.0 156.0 L 187.0 156.0 L 186.0 156.0 L 186.0 156.0 L 186.0 157.0 L 185.0 161.0 L 182.0 168.0 L 180.0 174.0 L 178.0 177.0 L 178.0 179.0 L 178.0 179.0 " stroke="black" fill="none" stroke-width="15.0" stroke-linecap="round" stroke-linejoin="round" />
<path d="M 171.0 197.0 L 169.0 199.0 L 169.0 200.0 L 174.0 201.0 L 181.0 203.0 L 188.0 204.0 L 193.0 206.0 L 196.0 207.0 " stroke="black" fill="none" stroke-width="15.0" stroke-linecap="round" stroke-linejoin="round" />
</svg>