<svg xmlns="http://www.w3.org/2000/svg" width="300" height="300" viewBox="0 0 300 300">
<path d="M 122.5 121.0 L 120.5 120.5 L 119.0 120.0 L 119.0 120.0 L 119.5 119.5 L 123.0 119.0 L 128.0 118.0 L 132.5 117.5 L 135.5 118.0 L 137.0 119.0 L 136.5 120.5 L 135.0 122.5 L 132.0 125.0 L 129.5 127.0 L 128.0 128.5 L 127.5 129.5 L 127.5 130.0 L 128.5 130.5 L 130.5 131.5 L 132.5 133.0 L 134.0 135.5 L 135.0 139.5 L 134.5 145.0 L 133.0 149.5 L 130.5 151.5 L 128.5 151.5 L 126.0 150.0 L 123.0 147.0 L 121.0 144.5 L 121.0 144.0 " stroke="black" fill="none" stroke-width="6.0" stroke-linecap="round" stroke-linejoin="round" />
<path d="M 120.5 121.5 L 120.0 120.5 L 120.0 120.0 L 120.0 120.0 L 120.0 122.5 L 120.0 129.5 L 120.5 143.5 L 121.0 161.5 L 121.5 176.0 L 123.0 185.5 L 124.0 189.0 L 124.5 188.5 L 124.5 187.0 " stroke="black" fill="none" stroke-width="6.0" stroke-linecap="round" stroke-linejoin="round" />
<path d="M 154.0 117.5 L 154.0 117.5 L 154.0 117.5 L 154.0 117.5 L 154.0 118.0 L 154.0 118.0 L 154.5 118.0 L 154.5 118.0 L 156.0 118.0 L 160.0 117.5 L 166.0 116.5 L 172.5 115.5 L 177.0 115.0 L 179.5 115.0 L 179.5 115.0 L 180.5 115.0 L 181.5 115.0 L 182.0 114.5 L 183.0 114.5 L 183.5 114.5 L 183.5 114.5 L 183.5 114.5 L 183.5 114.5 L 183.0 114.0 " stroke="black" fill="none" stroke-width="6.0" stroke-linecap="round" stroke-linejoin="round" />
<path d="M 156.5 132.0 L 156.5 131.5 L 157.0 131.0 L 157.5 130.5 L 157.5 130.5 L 157.5 130.5 L 157.5 130.5 L 157.5 130.5 L 158.0 133.5 L 158.5 140.0 L 158.5 151.0 L 158.5 159.5 L 158.5 161.5 L 158.5 158.5 L 158.5 155.5 " stroke="black" fill="none" stroke-width="6.0" stroke-linecap="round" stroke-linejoin="round" />
<path d="M 162.0 128.0 L 161.5 128.5 L 161.0 128.5 L 160.5 128.5 L 162.0 128.5 L 164.5 127.5 L 168.0 127.0 L 172.0 126.5 L 175.5 126.5 L 177.5 126.5 L 179.0 126.5 L 180.0 126.5 L 181.5 126.5 L 183.0 126.5 L 184.0 126.5 L 185.0 126.5 L 185.0 126.5 L 185.0 126.5 L 185.0 126.5 L 185.0 126.5 L 185.0 126.5 L 185.0 127.0 L 185.0 127.0 L 185.0 127.0 L 185.0 127.5 L 185.0 128.0 L 185.0 128.0 L 185.0 129.0 L 185.0 130.0 L 184.5 131.0 L 184.5 133.0 L 184.5 136.0 L 184.5 139.5 L 184.5 143.5 L 184.5 147.5 L 185.0 151.5 L 185.0 155.5 L 185.5 158.5 L 186.0 160.5 L 186.0 161.5 L 185.5 162.5 L 185.0 163.5 L 183.5 164.5 L 182.5 164.5 L 180.5 163.5 L 178.5 160.0 L 178.0 159.0 " stroke="black" fill="none" stroke-width="6.0" stroke-linecap="round" stroke-linejoin="round" />
<path d="M 170.5 119.5 L 170.5 119.5 L 170.0 119.0 L 170.0 118.5 L 170.0 118.5 L 170.0 119.5 L 170.0 122.5 L 170.0 127.0 L 170.0 133.5 L 169.5 140.0 L 168.5 146.0 L 167.5 149.5 L 166.5 150.5 L 166.5 148.5 L 167.0 147.5 " stroke="black" fill="none" stroke-width="6.0" stroke-linecap="round" stroke-linejoin="round" />
<path d="M 171.5 142.5 L 171.0 142.5 L 171.0 142.0 L 171.0 142.0 L 173.0 143.5 L 175.0 145.5 L 177.0 147.5 L 178.0 148.0 " stroke="black" fill="none" stroke-width="6.0" stroke-linecap="round" stroke-linejoin="round" />
<path d="M 148.0 126.0 L 148.0 126.0 L 147.5 125.5 L 147.5 125.5 L 147.5 125.5 L 147.0 125.0 L 147.0 125.0 L 147.0 126.0 L 147.0 127.5 L 147.0 130.5 L 147.0 134.0 L 147.5 138.0 L 148.0 141.5 L 148.0 145.0 L 148.0 148.0 L 148.0 150.5 L 148.0 153.5 L 148.5 155.5 L 148.5 157.5 L 148.5 159.5 L 149.0 161.5 L 149.0 163.0 L 149.0 164.5 L 149.0 166.5 L 149.0 168.0 L 149.0 169.5 L 149.0 171.0 L 149.5 172.0 L 149.5 173.0 L 149.5 173.5 L 149.5 174.0 L 150.0 174.5 L 150.0 175.0 L 150.0 175.5 L 150.0 175.5 L 150.0 176.0 L 150.0 176.5 L 150.5 177.5 L 150.5 178.0 L 150.5 178.0 L 150.5 178.5 L 150.5 178.5 L 150.5 178.5 L 150.5 178.5 L 150.5 178.5 L 150.5 178.5 L 151.0 178.5 L 151.0 178.5 L 151.5 178.5 L 152.0 178.5 L 153.0 178.5 L 153.5 178.5 L 154.5 178.5 L 155.0 178.0 L 156.5 178.0 L 158.0 178.0 L 161.0 177.5 L 164.0 177.0 L 167.5 177.0 L 171.0 177.0 L 173.5 177.0 L 176.0 176.5 L 178.5 176.5 L 180.5 176.5 L 182.5 176.0 L 184.5 176.0 L 186.0 176.0 L 188.0 176.0 L 189.5 176.0 L 190.5 176.5 L 191.5 176.5 L 192.0 176.5 L 192.0 176.5 L 192.0 176.5 L 192.5 176.5 L 192.5 176.5 L 193.0 177.0 L 193.5 177.0 L 193.5 177.0 L 194.0 177.0 L 194.0 177.0 L 194.0 177.0 L 194.0 177.0 L 194.0 177.0 " stroke="black" fill="none" stroke-width="6.0" stroke-linecap="round" stroke-linejoin="round" />
</svg>