<svg xmlns="http://www.w3.org/2000/svg" width="300" height="300" viewBox="0 0 300 300">
<path d="M 125.0 109.5 L 124.5 110.5 L 124.0 111.0 L 124.0 111.0 L 126.5 110.5 L 131.5 109.5 L 140.0 107.5 L 151.0 105.5 L 161.0 104.0 L 168.0 103.0 L 170.5 102.5 L 170.5 102.5 L 170.0 102.5 L 170.0 102.5 L 170.0 102.5 L 170.0 102.5 L 170.0 102.5 L 170.0 102.5 L 170.0 102.5 L 170.0 102.5 L 170.0 102.5 L 170.0 102.5 L 170.0 102.5 L 170.0 102.5 L 170.0 102.5 L 170.0 102.5 L 170.0 102.5 " stroke="black" fill="none" stroke-width="6.0" stroke-linecap="round" stroke-linejoin="round" />
<path d="M 121.5 122.5 L 121.5 121.5 L 121.5 120.5 L 121.5 120.0 L 121.5 120.0 L 121.0 122.5 L 120.5 127.0 L 119.0 132.0 L 117.5 135.5 L 117.5 137.0 L 117.5 136.0 " stroke="black" fill="none" stroke-width="6.0" stroke-linecap="round" stroke-linejoin="round" />
<path d="M 124.0 123.5 L 123.5 123.0 L 123.0 123.0 L 123.0 122.5 L 123.5 122.5 L 126.5 122.5 L 132.5 122.0 L 140.5 121.0 L 150.0 119.5 L 157.5 118.0 L 162.5 117.0 L 167.0 115.5 L 171.0 114.5 L 173.0 114.0 L 174.5 113.5 L 176.0 113.0 L 177.5 113.0 L 179.5 112.5 L 180.0 112.5 L 180.5 112.5 L 180.0 112.5 L 180.0 113.0 L 179.5 113.0 L 179.5 113.5 L 179.0 114.0 L 179.0 115.5 L 178.5 117.0 L 178.0 119.5 L 177.5 121.0 L 177.5 123.0 L 177.5 125.0 L 177.0 127.0 L 176.5 129.0 L 176.5 129.5 " stroke="black" fill="none" stroke-width="6.0" stroke-linecap="round" stroke-linejoin="round" />
<path d="M 149.0 108.0 L 149.0 108.5 L 148.5 108.5 L 148.5 109.0 L 148.5 111.0 L 148.5 115.0 L 148.5 123.0 L 148.5 130.0 L 148.0 133.5 L 148.0 134.0 L 148.0 133.5 " stroke="black" fill="none" stroke-width="6.0" stroke-linecap="round" stroke-linejoin="round" />
<path d="M 130.5 129.5 L 131.0 129.5 L 131.0 130.0 L 131.5 130.5 L 132.0 131.0 L 133.0 131.5 L 133.5 132.5 L 134.5 133.5 L 134.5 134.0 L 134.5 134.5 " stroke="black" fill="none" stroke-width="6.0" stroke-linecap="round" stroke-linejoin="round" />
<path d="M 128.5 139.0 L 128.5 139.0 L 128.5 139.0 L 128.0 139.0 L 128.0 139.0 L 129.5 138.5 L 131.5 137.5 L 133.5 136.5 " stroke="black" fill="none" stroke-width="6.0" stroke-linecap="round" stroke-linejoin="round" />
<path d="M 161.0 124.0 L 161.0 124.0 L 161.5 123.5 L 161.5 123.5 L 161.5 123.5 L 161.5 124.0 L 161.5 126.0 L 160.5 128.5 L 159.0 130.0 L 159.0 130.5 " stroke="black" fill="none" stroke-width="6.0" stroke-linecap="round" stroke-linejoin="round" />
<path d="M 155.5 133.0 L 155.5 134.5 L 156.0 135.0 L 156.5 135.5 L 158.5 135.5 L 161.5 135.5 L 164.0 135.5 L 166.0 136.0 L 166.5 136.0 " stroke="black" fill="none" stroke-width="6.0" stroke-linecap="round" stroke-linejoin="round" />
<path d="M 129.0 148.5 L 129.0 148.5 L 129.0 148.5 L 129.0 148.5 L 129.5 148.5 L 129.5 148.5 L 131.0 148.5 L 133.0 148.5 L 136.5 148.0 L 139.5 147.5 L 141.5 147.0 L 142.5 147.0 L 143.0 147.0 L 143.0 147.0 L 143.0 147.5 L 142.5 148.5 L 142.5 149.5 L 142.5 151.0 L 142.5 152.0 L 142.5 153.5 L 142.5 155.0 L 142.5 156.0 L 142.5 157.0 L 142.5 157.0 " stroke="black" fill="none" stroke-width="6.0" stroke-linecap="round" stroke-linejoin="round" />
<path d="M 130.5 161.0 L 130.5 161.0 L 130.5 161.0 L 130.5 161.0 L 132.0 161.5 L 135.5 161.5 L 139.5 161.0 L 142.0 160.5 " stroke="black" fill="none" stroke-width="6.0" stroke-linecap="round" stroke-linejoin="round" />
<path d="M 128.5 151.5 L 128.5 151.0 L 128.5 150.5 L 128.5 150.0 L 128.5 150.0 L 128.5 151.5 L 128.5 156.0 L 128.5 165.0 L 128.5 176.5 L 128.5 186.5 L 129.0 192.5 L 129.5 197.0 L 129.5 199.0 L 129.5 199.0 L 129.5 198.5 L 129.0 196.0 " stroke="black" fill="none" stroke-width="6.0" stroke-linecap="round" stroke-linejoin="round" />
<path d="M 130.5 175.5 L 130.5 175.5 L 130.5 176.0 L 130.5 176.5 L 130.5 176.5 L 132.0 176.0 L 135.0 175.0 L 138.0 173.5 L 141.0 173.0 L 143.0 172.5 L 144.0 172.5 L 144.0 172.5 " stroke="black" fill="none" stroke-width="6.0" stroke-linecap="round" stroke-linejoin="round" />
<path d="M 130.5 186.0 L 130.5 186.0 L 130.5 185.5 L 131.0 185.5 L 131.5 185.5 L 133.5 185.5 L 137.5 185.5 L 141.5 185.0 L 144.0 184.5 " stroke="black" fill="none" stroke-width="6.0" stroke-linecap="round" stroke-linejoin="round" />
<path d="M 153.0 151.0 L 153.0 151.0 L 153.0 151.5 L 153.0 151.5 L 153.5 151.5 L 155.0 150.5 L 158.5 149.5 L 162.5 147.5 L 167.0 146.0 L 170.5 145.0 L 173.0 144.5 L 174.5 144.0 L 174.5 144.0 L 174.5 144.0 L 174.0 144.5 L 174.0 144.5 L 174.0 144.5 L 174.0 145.0 L 174.0 145.5 L 173.5 146.0 L 173.5 147.5 L 173.5 149.5 L 173.0 152.5 L 173.0 155.5 L 173.0 157.0 L 173.0 157.5 L 173.0 157.5 " stroke="black" fill="none" stroke-width="6.0" stroke-linecap="round" stroke-linejoin="round" />
<path d="M 155.0 160.0 L 155.0 160.0 L 155.5 160.0 L 156.0 160.0 L 157.0 160.0 L 159.0 160.0 L 162.5 159.5 L 167.5 159.0 L 172.0 158.0 L 174.5 157.5 L 174.5 157.0 " stroke="black" fill="none" stroke-width="6.0" stroke-linecap="round" stroke-linejoin="round" />
<path d="M 158.5 172.5 L 158.0 172.5 L 157.5 172.5 L 156.0 172.5 L 155.0 172.5 L 154.5 172.5 L 154.5 172.5 L 158.0 172.5 L 163.0 172.5 L 168.0 171.5 L 171.5 170.5 L 174.0 169.5 L 174.5 169.0 L 174.5 169.0 L 174.0 169.0 L 174.0 169.5 L 173.0 171.0 L 172.0 172.5 L 170.5 175.5 L 167.5 180.0 L 163.5 185.0 L 159.5 191.0 L 157.5 194.0 L 156.5 195.5 L 156.5 195.5 L 157.0 194.5 " stroke="black" fill="none" stroke-width="6.0" stroke-linecap="round" stroke-linejoin="round" />
<path d="M 157.5 183.5 L 157.5 183.0 L 157.5 182.5 L 158.0 182.5 L 160.0 182.5 L 165.0 184.5 L 171.0 187.5 L 178.0 190.5 L 184.0 192.5 L 187.5 192.5 L 189.5 192.0 " stroke="black" fill="none" stroke-width="6.0" stroke-linecap="round" stroke-linejoin="round" />
</svg>