<svg xmlns="http://www.w3.org/2000/svg" width="300" height="300" viewBox="0 0 300 300">
<path d="M 114.5 99.0 L 114.5 99.0 L 114.5 98.5 L 116.5 98.5 L 122.0 98.0 L 135.0 97.5 L 151.5 96.5 L 167.5 96.0 L 182.5 94.0 L 194.0 92.0 L 198.5 91.5 L 196.5 92.0 " stroke="black" fill="none" stroke-width="8.0" stroke-linecap="round" stroke-linejoin="round" />
<path d="M 151.0 99.5 L 151.5 99.5 L 152.0 99.5 L 152.5 99.5 L 152.5 101.5 L 151.0 107.0 L 148.0 115.0 L 145.5 120.0 L 145.5 121.0 " stroke="black" fill="none" stroke-width="8.0" stroke-linecap="round" stroke-linejoin="round" />
<path d="M 117.5 127.0 L 117.5 127.0 L 117.5 126.0 L 117.5 125.5 L 118.0 126.5 L 119.5 132.0 L 121.5 145.5 L 122.5 166.5 L 123.0 183.0 L 123.0 187.5 L 123.0 186.5 L 123.5 183.5 " stroke="black" fill="none" stroke-width="8.0" stroke-linecap="round" stroke-linejoin="round" />
<path d="M 124.0 130.0 L 124.0 130.0 L 123.5 129.5 L 123.0 129.5 L 126.0 129.0 L 134.0 128.0 L 148.5 126.0 L 168.0 123.5 L 182.5 121.5 L 191.5 120.5 L 194.5 121.5 L 194.5 124.0 L 194.5 127.0 L 194.5 132.0 L 194.5 139.0 L 195.0 150.5 L 195.0 165.5 L 192.5 178.0 L 190.5 187.0 L 189.0 192.5 L 189.0 195.5 L 189.0 196.0 " stroke="black" fill="none" stroke-width="8.0" stroke-linecap="round" stroke-linejoin="round" />
<path d="M 144.0 135.5 L 144.0 136.0 L 144.0 137.5 L 144.0 143.0 L 146.0 156.0 L 148.0 172.5 L 148.0 182.5 L 148.0 184.0 L 148.5 182.0 " stroke="black" fill="none" stroke-width="8.0" stroke-linecap="round" stroke-linejoin="round" />
<path d="M 169.0 128.0 L 169.0 128.5 L 168.5 131.5 L 168.5 139.0 L 169.0 154.0 L 170.0 171.0 L 170.0 180.5 L 169.5 182.5 L 169.5 182.5 " stroke="black" fill="none" stroke-width="8.0" stroke-linecap="round" stroke-linejoin="round" />
<path d="M 148.5 149.5 L 148.0 149.5 L 148.0 149.5 L 150.5 149.5 L 156.0 149.0 L 163.0 147.5 L 165.5 146.5 " stroke="black" fill="none" stroke-width="8.0" stroke-linecap="round" stroke-linejoin="round" />
<path d="M 153.0 162.0 L 153.0 162.5 L 152.0 163.0 L 152.5 163.5 L 155.5 163.5 L 160.0 163.5 L 165.0 163.0 L 169.0 163.0 " stroke="black" fill="none" stroke-width="8.0" stroke-linecap="round" stroke-linejoin="round" />
<path d="M 126.5 194.0 L 126.5 194.0 L 126.5 193.5 L 127.0 192.5 L 132.5 192.0 L 145.0 190.5 L 160.5 190.0 L 175.5 189.5 L 187.5 188.5 L 190.0 188.5 " stroke="black" fill="none" stroke-width="8.0" stroke-linecap="round" stroke-linejoin="round" />
</svg>