<svg xmlns="http://www.w3.org/2000/svg" width="300" height="300" viewBox="0 0 300 300">
<path d="M 120.00000000000001 94.44444444444444 L 118.8888888888889 94.44444444444444 L 118.33333333333333 93.88888888888889 L 117.77777777777779 93.33333333333333 L 117.77777777777779 93.33333333333333 L 118.8888888888889 93.33333333333333 L 120.55555555555556 92.77777777777777 L 122.77777777777779 92.77777777777777 L 127.22222222222221 92.77777777777777 L 136.11111111111111 92.22222222222223 L 150.55555555555557 90.0 L 164.44444444444446 88.33333333333333 L 173.33333333333334 87.77777777777777 L 177.7777777777778 87.77777777777777 L 180.00000000000003 88.33333333333333 L 180.55555555555557 88.33333333333333 L 181.11111111111114 88.33333333333333 L 181.11111111111114 87.77777777777777 L 181.66666666666669 87.22222222222223 L 182.22222222222223 87.22222222222223 L 182.7777777777778 87.22222222222223 L 184.44444444444446 86.66666666666667 L 186.11111111111114 86.11111111111111 L 188.33333333333334 86.11111111111111 L 188.8888888888889 86.11111111111111 L 188.8888888888889 86.11111111111111 L 189.44444444444446 86.11111111111111 L 189.44444444444446 86.11111111111111 L 189.44444444444446 86.11111111111111 L 188.8888888888889 86.11111111111111 L 188.8888888888889 86.66666666666667 L 188.33333333333334 87.77777777777777 L 188.33333333333334 87.77777777777777 " stroke="black" fill="none" stroke-width="7.0" stroke-linecap="round" stroke-linejoin="round" />
<path d="M 120.00000000000001 108.33333333333333 L 119.44444444444444 108.33333333333333 L 119.44444444444444 108.33333333333333 L 118.8888888888889 108.33333333333333 L 118.33333333333333 110.55555555555556 L 117.77777777777779 116.1111111111111 L 116.66666666666667 121.66666666666667 L 116.1111111111111 124.44444444444444 L 116.1111111111111 125.00000000000001 " stroke="black" fill="none" stroke-width="7.0" stroke-linecap="round" stroke-linejoin="round" />
<path d="M 120.55555555555556 110.55555555555556 L 120.00000000000001 110.55555555555556 L 118.8888888888889 111.11111111111111 L 118.33333333333333 111.11111111111111 L 119.44444444444444 111.11111111111111 L 121.66666666666667 111.11111111111111 L 124.44444444444444 111.11111111111111 L 127.77777777777779 111.11111111111111 L 132.7777777777778 111.11111111111111 L 140.55555555555557 109.44444444444444 L 149.44444444444446 107.77777777777779 L 157.22222222222223 106.66666666666667 L 165.00000000000003 106.11111111111111 L 170.55555555555557 106.11111111111111 L 174.44444444444446 106.11111111111111 L 178.33333333333334 105.55555555555556 L 181.66666666666669 105.55555555555556 L 183.8888888888889 105.55555555555556 L 185.00000000000003 105.55555555555556 L 185.55555555555557 105.55555555555556 L 185.55555555555557 105.55555555555556 L 186.11111111111114 105.55555555555556 L 186.11111111111114 105.55555555555556 L 186.66666666666669 105.55555555555556 L 187.22222222222223 105.55555555555556 L 187.7777777777778 105.55555555555556 L 188.33333333333334 105.55555555555556 L 188.8888888888889 105.55555555555556 L 188.8888888888889 105.55555555555556 L 188.8888888888889 105.55555555555556 L 188.8888888888889 106.11111111111111 L 188.8888888888889 106.11111111111111 L 188.8888888888889 107.22222222222223 L 187.7777777777778 110.0 L 186.66666666666669 113.8888888888889 L 185.55555555555557 117.77777777777779 L 185.00000000000003 121.1111111111111 L 185.00000000000003 123.33333333333333 L 185.00000000000003 124.44444444444444 " stroke="black" fill="none" stroke-width="7.0" stroke-linecap="round" stroke-linejoin="round" />
<path d="M 128.8888888888889 121.1111111111111 L 128.8888888888889 121.1111111111111 L 127.77777777777779 120.55555555555556 L 127.77777777777779 120.55555555555556 L 128.33333333333334 121.1111111111111 L 130.00000000000003 122.77777777777779 L 131.66666666666669 124.44444444444444 L 132.7777777777778 125.55555555555556 " stroke="black" fill="none" stroke-width="7.0" stroke-linecap="round" stroke-linejoin="round" />
<path d="M 126.66666666666667 134.44444444444446 L 126.1111111111111 134.44444444444446 L 125.55555555555556 133.8888888888889 L 125.55555555555556 133.33333333333334 L 127.77777777777779 132.22222222222223 L 131.66666666666669 131.11111111111111 L 135.00000000000003 130.55555555555557 L 136.11111111111111 130.55555555555557 " stroke="black" fill="none" stroke-width="7.0" stroke-linecap="round" stroke-linejoin="round" />
<path d="M 170.55555555555557 118.8888888888889 L 170.00000000000003 118.33333333333333 L 169.44444444444446 117.22222222222221 L 168.8888888888889 116.66666666666667 L 168.8888888888889 116.1111111111111 L 168.8888888888889 116.66666666666667 L 167.7777777777778 118.33333333333333 L 165.00000000000003 121.66666666666667 L 161.11111111111111 125.55555555555556 L 157.7777777777778 128.33333333333334 L 156.66666666666669 129.44444444444446 " stroke="black" fill="none" stroke-width="7.0" stroke-linecap="round" stroke-linejoin="round" />
<path d="M 156.11111111111111 128.8888888888889 L 156.11111111111111 129.44444444444446 L 156.11111111111111 129.44444444444446 L 156.11111111111111 130.00000000000003 L 156.66666666666669 130.00000000000003 L 158.8888888888889 130.55555555555557 L 163.33333333333334 131.66666666666669 L 168.33333333333334 132.7777777777778 L 172.22222222222223 133.8888888888889 L 172.7777777777778 133.8888888888889 " stroke="black" fill="none" stroke-width="7.0" stroke-linecap="round" stroke-linejoin="round" />
<path d="M 149.44444444444446 97.22222222222223 L 149.44444444444446 97.22222222222223 L 148.8888888888889 96.11111111111111 L 148.33333333333334 95.55555555555556 L 148.33333333333334 95.55555555555556 L 148.33333333333334 96.66666666666667 L 148.33333333333334 100.55555555555556 L 148.8888888888889 106.66666666666667 L 148.33333333333334 116.1111111111111 L 147.22222222222223 127.77777777777779 L 147.22222222222223 136.66666666666669 L 147.22222222222223 140.00000000000003 L 147.22222222222223 140.00000000000003 L 147.7777777777778 138.8888888888889 " stroke="black" fill="none" stroke-width="7.0" stroke-linecap="round" stroke-linejoin="round" />
<path d="M 118.33333333333333 154.44444444444446 L 118.33333333333333 154.44444444444446 L 117.77777777777779 155.00000000000003 L 117.22222222222221 155.00000000000003 L 119.44444444444444 155.00000000000003 L 123.8888888888889 154.44444444444446 L 130.55555555555557 154.44444444444446 L 136.66666666666669 154.44444444444446 L 141.66666666666669 153.8888888888889 L 143.8888888888889 153.33333333333334 L 143.8888888888889 153.33333333333334 L 143.8888888888889 153.33333333333334 L 143.8888888888889 153.33333333333334 " stroke="black" fill="none" stroke-width="7.0" stroke-linecap="round" stroke-linejoin="round" />
<path d="M 125.55555555555556 146.11111111111111 L 125.55555555555556 146.11111111111111 L 125.00000000000001 145.55555555555557 L 124.44444444444444 145.55555555555557 L 124.44444444444444 146.11111111111111 L 124.44444444444444 150.00000000000003 L 124.44444444444444 155.55555555555557 L 125.00000000000001 160.55555555555557 L 125.55555555555556 162.7777777777778 " stroke="black" fill="none" stroke-width="7.0" stroke-linecap="round" stroke-linejoin="round" />
<path d="M 135.55555555555557 147.22222222222223 L 136.11111111111111 146.66666666666669 L 136.66666666666669 146.11111111111111 L 136.66666666666669 145.55555555555557 L 137.22222222222223 146.11111111111111 L 137.22222222222223 147.7777777777778 L 137.22222222222223 151.66666666666669 L 137.22222222222223 157.22222222222223 L 137.22222222222223 161.66666666666669 L 137.22222222222223 163.33333333333334 " stroke="black" fill="none" stroke-width="7.0" stroke-linecap="round" stroke-linejoin="round" />
<path d="M 125.00000000000001 168.8888888888889 L 123.8888888888889 168.8888888888889 L 123.8888888888889 168.8888888888889 L 124.44444444444444 168.33333333333334 L 127.22222222222221 168.33333333333334 L 131.66666666666669 168.33333333333334 L 135.00000000000003 168.33333333333334 " stroke="black" fill="none" stroke-width="7.0" stroke-linecap="round" stroke-linejoin="round" />
<path d="M 121.66666666666667 178.8888888888889 L 120.00000000000001 178.8888888888889 L 119.44444444444444 178.8888888888889 L 119.44444444444444 178.8888888888889 L 120.55555555555556 180.55555555555557 L 121.1111111111111 183.33333333333334 L 122.22222222222221 185.55555555555557 L 123.33333333333333 187.7777777777778 " stroke="black" fill="none" stroke-width="7.0" stroke-linecap="round" stroke-linejoin="round" />
<path d="M 123.33333333333333 178.8888888888889 L 122.22222222222221 178.8888888888889 L 121.1111111111111 178.8888888888889 L 120.55555555555556 178.8888888888889 L 122.22222222222221 178.8888888888889 L 124.44444444444444 177.7777777777778 L 127.77777777777779 177.22222222222223 L 131.11111111111111 177.22222222222223 L 135.55555555555557 176.66666666666669 L 140.00000000000003 176.11111111111114 L 143.33333333333334 176.11111111111114 L 144.44444444444446 176.66666666666669 L 144.44444444444446 177.7777777777778 L 144.44444444444446 180.00000000000003 L 143.33333333333334 182.22222222222223 L 142.7777777777778 184.44444444444446 L 142.7777777777778 186.11111111111114 L 142.22222222222223 187.22222222222223 L 142.22222222222223 187.7777777777778 " stroke="black" fill="none" stroke-width="7.0" stroke-linecap="round" stroke-linejoin="round" />
<path d="M 126.66666666666667 190.55555555555557 L 125.55555555555556 189.44444444444446 L 125.55555555555556 188.8888888888889 L 127.77777777777779 188.8888888888889 L 132.7777777777778 188.8888888888889 L 137.22222222222223 188.8888888888889 L 141.11111111111111 188.8888888888889 " stroke="black" fill="none" stroke-width="7.0" stroke-linecap="round" stroke-linejoin="round" />
<path d="M 121.1111111111111 200.55555555555557 L 120.00000000000001 200.55555555555557 L 119.44444444444444 200.55555555555557 L 120.55555555555556 200.55555555555557 L 125.55555555555556 200.00000000000003 L 132.7777777777778 199.44444444444446 L 140.55555555555557 198.8888888888889 L 146.11111111111111 198.8888888888889 " stroke="black" fill="none" stroke-width="7.0" stroke-linecap="round" stroke-linejoin="round" />
<path d="M 131.11111111111111 172.22222222222223 L 131.11111111111111 171.66666666666669 L 131.11111111111111 171.66666666666669 L 131.11111111111111 171.66666666666669 L 131.11111111111111 173.8888888888889 L 131.11111111111111 181.66666666666669 L 131.11111111111111 193.33333333333334 L 131.11111111111111 204.44444444444446 L 131.11111111111111 210.55555555555557 L 132.22222222222223 211.66666666666669 L 132.7777777777778 211.66666666666669 " stroke="black" fill="none" stroke-width="7.0" stroke-linecap="round" stroke-linejoin="round" />
<path d="M 158.33333333333334 150.00000000000003 L 158.33333333333334 150.00000000000003 L 158.33333333333334 150.00000000000003 L 158.33333333333334 150.00000000000003 L 157.7777777777778 151.11111111111111 L 157.7777777777778 157.7777777777778 L 157.7777777777778 173.33333333333334 L 156.66666666666669 188.33333333333334 L 156.66666666666669 195.00000000000003 L 157.7777777777778 196.11111111111114 L 158.33333333333334 195.55555555555557 " stroke="black" fill="none" stroke-width="7.0" stroke-linecap="round" stroke-linejoin="round" />
<path d="M 158.8888888888889 150.55555555555557 L 158.33333333333334 150.55555555555557 L 158.33333333333334 150.55555555555557 L 159.44444444444446 150.55555555555557 L 162.7777777777778 149.44444444444446 L 166.66666666666669 148.33333333333334 L 170.00000000000003 147.7777777777778 L 172.22222222222223 147.22222222222223 L 173.8888888888889 147.22222222222223 L 175.00000000000003 147.7777777777778 L 175.55555555555557 148.8888888888889 L 176.11111111111114 150.00000000000003 L 176.11111111111114 150.55555555555557 L 176.11111111111114 151.11111111111111 L 176.11111111111114 151.11111111111111 L 176.66666666666669 151.66666666666669 L 176.66666666666669 151.66666666666669 L 176.66666666666669 152.7777777777778 L 176.66666666666669 153.33333333333334 L 176.66666666666669 155.00000000000003 L 176.66666666666669 157.22222222222223 L 177.22222222222223 160.55555555555557 L 177.22222222222223 166.11111111111114 L 177.7777777777778 173.33333333333334 L 178.33333333333334 181.11111111111114 L 178.33333333333334 188.8888888888889 L 178.33333333333334 194.44444444444446 L 177.7777777777778 199.44444444444446 L 177.22222222222223 203.33333333333334 L 176.66666666666669 205.00000000000003 L 175.55555555555557 205.00000000000003 L 173.8888888888889 203.8888888888889 L 172.22222222222223 202.7777777777778 L 171.11111111111114 201.66666666666669 " stroke="black" fill="none" stroke-width="7.0" stroke-linecap="round" stroke-linejoin="round" />
<path d="M 160.55555555555557 166.11111111111114 L 160.00000000000003 166.11111111111114 L 158.33333333333334 166.11111111111114 L 158.33333333333334 166.11111111111114 L 161.66666666666669 165.55555555555557 L 166.66666666666669 165.00000000000003 L 171.11111111111114 164.44444444444446 L 174.44444444444446 163.8888888888889 L 176.11111111111114 163.8888888888889 " stroke="black" fill="none" stroke-width="7.0" stroke-linecap="round" stroke-linejoin="round" />
<path d="M 161.66666666666669 187.7777777777778 L 161.66666666666669 187.7777777777778 L 161.66666666666669 187.22222222222223 L 162.7777777777778 186.66666666666669 L 166.66666666666669 186.66666666666669 L 172.7777777777778 187.22222222222223 L 176.66666666666669 187.22222222222223 " stroke="black" fill="none" stroke-width="7.0" stroke-linecap="round" stroke-linejoin="round" />
</svg>