<svg xmlns="http://www.w3.org/2000/svg" width="300" height="300" viewBox="0 0 300 300">
<path d="M 142.5 105.0 L 142.0 104.5 L 140.0 104.0 L 139.5 104.0 L 140.0 104.0 L 143.0 105.5 L 146.0 107.0 L 148.5 108.5 L 150.5 109.5 L 151.5 110.0 " stroke="black" fill="none" stroke-width="7.0" stroke-linecap="round" stroke-linejoin="round" />
<path d="M 129.0 121.5 L 128.5 121.5 L 126.5 121.5 L 125.5 121.5 L 126.0 121.5 L 130.5 121.0 L 137.5 120.5 L 146.5 119.5 L 156.0 118.5 L 164.0 118.0 L 166.0 118.0 L 166.0 118.5 " stroke="black" fill="none" stroke-width="7.0" stroke-linecap="round" stroke-linejoin="round" />
<path d="M 134.5 131.0 L 134.5 131.0 L 134.5 131.5 L 134.5 131.5 L 135.0 132.5 L 138.0 134.0 L 142.0 136.0 L 145.0 137.0 L 145.5 137.0 " stroke="black" fill="none" stroke-width="7.0" stroke-linecap="round" stroke-linejoin="round" />
<path d="M 157.0 127.5 L 157.0 127.5 L 157.5 127.5 L 157.5 127.5 L 157.5 128.5 L 154.5 135.5 L 153.0 139.0 " stroke="black" fill="none" stroke-width="7.0" stroke-linecap="round" stroke-linejoin="round" />
<path d="M 128.0 147.5 L 127.5 147.5 L 126.5 147.5 L 126.0 147.5 L 127.5 147.5 L 133.5 147.5 L 142.5 146.5 L 154.5 145.0 L 167.0 143.5 L 173.5 143.5 L 174.5 143.5 " stroke="black" fill="none" stroke-width="7.0" stroke-linecap="round" stroke-linejoin="round" />
<path d="M 134.5 159.5 L 134.5 159.5 L 135.0 158.5 L 135.5 158.5 L 136.0 160.0 L 136.0 164.5 L 136.5 171.5 L 136.5 179.0 L 136.5 184.0 L 137.5 184.0 L 137.5 183.0 " stroke="black" fill="none" stroke-width="7.0" stroke-linecap="round" stroke-linejoin="round" />
<path d="M 138.0 161.0 L 138.0 161.0 L 138.0 161.0 L 138.5 161.0 L 141.5 160.0 L 147.0 159.0 L 154.5 158.0 L 159.5 157.5 L 163.0 157.5 L 164.0 157.5 L 164.0 158.0 L 164.5 158.5 L 164.5 159.5 L 164.5 160.5 L 164.5 162.5 L 164.5 165.0 L 164.0 169.0 L 162.5 174.5 L 160.5 181.0 L 160.0 186.0 L 160.0 188.0 L 160.5 188.0 " stroke="black" fill="none" stroke-width="7.0" stroke-linecap="round" stroke-linejoin="round" />
<path d="M 142.0 174.5 L 140.0 174.5 L 139.5 174.5 L 140.5 174.5 L 143.5 174.5 L 148.0 174.0 L 153.0 174.0 L 157.5 173.5 L 160.0 173.0 " stroke="black" fill="none" stroke-width="7.0" stroke-linecap="round" stroke-linejoin="round" />
<path d="M 137.5 194.0 L 136.5 194.5 L 136.0 195.0 L 137.0 195.0 L 142.0 194.0 L 148.5 193.0 L 157.5 191.5 L 161.5 191.0 " stroke="black" fill="none" stroke-width="7.0" stroke-linecap="round" stroke-linejoin="round" />
</svg>