<svg xmlns="http://www.w3.org/2000/svg" width="300" height="300" viewBox="0 0 300 300">
<path d="M 142.5 113.5 L 142.5 114.0 L 142.0 114.5 L 142.0 114.5 L 141.5 114.5 L 141.0 114.5 L 139.0 114.5 L 136.5 114.5 L 132.5 114.5 L 128.5 115.0 L 125.0 115.5 L 123.0 116.0 L 122.0 116.0 L 121.5 116.0 L 120.5 116.0 L 120.0 116.0 L 119.5 115.5 L 119.5 115.5 L 119.5 115.5 L 119.5 115.5 L 119.5 115.5 L 119.5 115.5 L 119.5 115.5 L 119.5 115.5 L 120.0 115.5 L 120.5 116.5 L 121.5 118.0 L 122.5 121.0 L 123.0 125.5 L 123.0 131.5 L 122.5 138.0 L 121.5 145.0 L 120.0 151.5 L 118.5 158.0 L 117.0 165.0 L 115.5 171.0 L 113.5 176.0 L 111.5 181.5 L 109.0 186.0 L 107.5 188.5 L 107.0 190.0 L 107.0 190.0 L 107.5 188.0 L 107.5 187.5 " stroke="black" fill="none" stroke-width="8.0" stroke-linecap="round" stroke-linejoin="round" />
<path d="M 134.0 124.5 L 134.0 124.5 L 134.0 124.0 L 134.0 124.0 L 134.5 123.5 L 134.5 123.0 L 134.5 123.0 L 134.5 122.5 L 134.5 122.5 L 134.5 122.5 L 134.5 124.5 L 134.0 127.0 L 134.0 129.0 L 133.5 130.0 " stroke="black" fill="none" stroke-width="8.0" stroke-linecap="round" stroke-linejoin="round" />
<path d="M 126.0 142.5 L 126.0 142.0 L 125.5 140.0 L 125.0 139.5 L 125.0 139.5 L 125.5 140.0 L 126.0 143.5 L 127.0 147.5 L 127.5 151.5 L 128.0 154.0 L 128.5 154.5 " stroke="black" fill="none" stroke-width="8.0" stroke-linecap="round" stroke-linejoin="round" />
<path d="M 128.5 137.0 L 128.5 136.5 L 128.0 136.0 L 127.5 135.5 L 127.5 135.0 L 129.0 135.0 L 131.5 135.0 L 135.5 134.0 L 138.5 133.5 L 141.5 133.0 L 143.0 133.5 L 143.5 135.5 L 144.0 139.0 L 144.0 144.0 L 144.0 149.0 L 144.0 153.0 L 143.5 154.5 L 143.0 154.5 L 142.5 153.5 " stroke="black" fill="none" stroke-width="8.0" stroke-linecap="round" stroke-linejoin="round" />
<path d="M 131.5 146.5 L 131.0 146.5 L 130.5 146.5 L 130.0 146.5 L 130.0 146.5 L 132.0 146.0 L 135.0 145.0 L 137.5 144.5 L 139.5 144.0 L 140.5 144.0 " stroke="black" fill="none" stroke-width="8.0" stroke-linecap="round" stroke-linejoin="round" />
<path d="M 131.0 155.0 L 130.0 156.5 L 130.0 157.0 L 130.0 157.0 L 131.5 157.0 L 134.5 156.0 L 137.5 154.5 L 140.0 153.5 L 141.5 153.0 " stroke="black" fill="none" stroke-width="8.0" stroke-linecap="round" stroke-linejoin="round" />
<path d="M 133.0 160.5 L 133.0 160.0 L 134.0 159.5 L 134.5 159.0 L 135.0 159.0 L 135.5 160.0 L 136.5 163.5 L 137.0 168.5 L 137.0 174.5 L 137.0 179.0 L 136.5 181.5 L 135.5 182.5 L 133.0 182.5 L 130.0 182.5 L 128.0 181.5 L 127.0 180.5 " stroke="black" fill="none" stroke-width="8.0" stroke-linecap="round" stroke-linejoin="round" />
<path d="M 126.5 169.0 L 126.5 169.0 L 127.0 168.5 L 127.0 168.0 L 127.0 168.0 L 126.5 169.5 L 125.5 173.0 L 123.5 177.0 L 122.0 180.0 L 122.0 181.0 " stroke="black" fill="none" stroke-width="8.0" stroke-linecap="round" stroke-linejoin="round" />
<path d="M 143.5 167.5 L 143.5 167.5 L 143.0 168.0 L 144.0 168.5 L 146.0 169.5 L 148.0 170.5 " stroke="black" fill="none" stroke-width="8.0" stroke-linecap="round" stroke-linejoin="round" />
<path d="M 155.5 118.0 L 154.5 118.0 L 153.5 118.0 L 153.0 118.0 L 154.0 117.5 L 158.0 116.5 L 162.5 116.5 L 166.0 116.5 L 168.5 116.5 L 170.5 116.5 L 171.5 116.5 L 171.5 116.0 " stroke="black" fill="none" stroke-width="8.0" stroke-linecap="round" stroke-linejoin="round" />
<path d="M 164.5 118.5 L 164.5 118.5 L 164.5 117.5 L 164.0 117.0 L 164.0 117.0 L 164.0 118.0 L 164.0 120.5 L 163.5 123.5 L 163.5 126.5 L 163.0 128.5 " stroke="black" fill="none" stroke-width="8.0" stroke-linecap="round" stroke-linejoin="round" />
<path d="M 155.0 134.5 L 155.0 135.0 L 155.5 135.0 L 155.5 135.5 L 156.0 135.5 L 156.5 136.5 L 157.0 139.0 L 157.5 144.0 L 157.5 152.0 L 157.5 160.0 L 157.5 164.5 L 157.5 165.0 L 157.5 162.5 L 157.5 158.5 " stroke="black" fill="none" stroke-width="8.0" stroke-linecap="round" stroke-linejoin="round" />
<path d="M 158.0 135.0 L 158.0 135.0 L 157.5 136.0 L 157.0 136.5 L 157.0 136.5 L 158.0 136.0 L 159.5 135.5 L 162.0 134.5 L 165.5 134.0 L 169.0 134.0 L 173.0 134.0 L 176.0 134.5 L 177.5 135.0 L 178.0 135.0 L 178.0 135.0 L 177.5 135.0 L 177.0 135.0 L 177.0 135.5 L 177.0 136.0 L 177.0 137.5 L 177.0 140.0 L 177.0 143.5 L 176.5 148.0 L 176.5 153.5 L 176.5 158.5 L 176.5 163.0 L 176.5 166.5 L 176.5 168.0 L 176.5 168.0 L 176.5 168.0 L 176.5 166.5 L 176.5 165.5 " stroke="black" fill="none" stroke-width="8.0" stroke-linecap="round" stroke-linejoin="round" />
<path d="M 160.5 149.5 L 160.5 149.5 L 159.5 149.0 L 159.0 149.0 L 159.0 148.5 L 160.0 148.0 L 162.5 147.5 L 165.5 147.5 L 169.0 147.0 L 171.5 146.5 L 173.0 146.0 L 174.0 146.0 " stroke="black" fill="none" stroke-width="8.0" stroke-linecap="round" stroke-linejoin="round" />
<path d="M 164.5 158.0 L 164.5 158.0 L 163.5 158.5 L 163.0 159.0 L 163.5 159.0 L 166.0 158.5 L 169.0 158.0 L 171.5 157.0 L 173.0 156.5 L 173.5 156.5 " stroke="black" fill="none" stroke-width="8.0" stroke-linecap="round" stroke-linejoin="round" />
<path d="M 160.5 170.0 L 160.5 170.0 L 160.5 170.0 L 160.5 170.5 L 161.5 170.5 L 164.0 170.5 L 167.5 169.5 L 171.5 168.5 L 174.0 168.0 " stroke="black" fill="none" stroke-width="8.0" stroke-linecap="round" stroke-linejoin="round" />
<path d="M 163.0 177.0 L 163.0 177.0 L 163.5 177.5 L 163.5 178.0 L 163.5 178.5 L 161.5 180.5 L 159.0 183.0 L 156.0 185.5 L 154.5 186.5 L 154.5 186.5 " stroke="black" fill="none" stroke-width="8.0" stroke-linecap="round" stroke-linejoin="round" />
<path d="M 172.0 178.0 L 172.5 178.5 L 173.5 179.0 L 175.5 180.0 L 178.0 181.5 L 182.0 184.0 L 185.5 186.0 L 187.0 187.0 " stroke="black" fill="none" stroke-width="8.0" stroke-linecap="round" stroke-linejoin="round" />
</svg>