<svg xmlns="http://www.w3.org/2000/svg" width="300" height="300" viewBox="0 0 300 300">
<path d="M 138.5 103.5 L 138.5 103.5 L 138.5 103.0 L 139.0 102.5 L 139.0 102.5 L 139.0 102.0 L 139.0 102.0 L 137.0 103.5 L 132.5 107.0 L 125.5 112.5 L 118.0 116.5 L 114.5 118.0 L 113.0 118.0 L 112.5 118.0 L 112.0 118.0 L 112.0 118.0 L 112.0 118.0 L 112.0 118.0 L 112.0 118.0 L 112.0 118.0 L 112.0 118.0 L 112.0 118.0 L 112.0 118.0 L 112.0 118.0 L 111.5 118.0 L 111.5 118.0 L 111.5 118.0 L 111.5 118.0 L 111.5 118.0 L 111.5 118.0 L 111.5 118.0 L 111.5 118.0 L 112.5 119.0 L 113.0 121.5 L 113.5 130.0 L 114.0 144.5 L 112.0 161.0 L 109.0 174.5 L 106.5 184.5 L 103.5 191.5 L 101.5 195.0 L 101.0 195.5 L 100.5 192.5 L 100.5 191.5 " stroke="black" fill="none" stroke-width="7.0" stroke-linecap="round" stroke-linejoin="round" />
<path d="M 115.5 126.5 L 115.5 126.5 L 114.5 126.5 L 114.0 126.5 L 115.0 126.5 L 118.5 126.5 L 123.5 125.0 L 129.0 124.0 L 134.5 122.5 L 137.0 122.0 L 138.0 121.5 L 138.0 122.5 L 138.5 124.0 L 138.5 126.0 L 139.0 127.0 L 139.0 128.5 L 138.5 130.5 L 137.5 133.5 L 136.0 136.0 L 136.0 136.5 " stroke="black" fill="none" stroke-width="7.0" stroke-linecap="round" stroke-linejoin="round" />
<path d="M 116.0 140.0 L 116.0 140.0 L 116.0 139.0 L 116.5 138.5 L 120.0 138.0 L 126.0 137.0 L 131.5 135.5 L 135.5 135.0 L 136.5 135.0 " stroke="black" fill="none" stroke-width="7.0" stroke-linecap="round" stroke-linejoin="round" />
<path d="M 127.0 151.0 L 127.5 151.0 L 128.0 150.5 L 129.0 150.0 L 129.0 150.0 L 129.0 150.0 L 127.5 151.0 L 125.0 154.0 L 121.0 158.5 L 116.5 162.0 L 114.0 163.0 L 113.5 163.0 L 114.5 161.0 " stroke="black" fill="none" stroke-width="7.0" stroke-linecap="round" stroke-linejoin="round" />
<path d="M 121.5 160.5 L 121.0 160.0 L 120.5 159.5 L 120.0 159.5 L 120.5 160.0 L 121.5 164.5 L 123.0 173.5 L 124.0 185.0 L 124.5 194.0 L 124.5 196.5 L 124.5 194.5 " stroke="black" fill="none" stroke-width="7.0" stroke-linecap="round" stroke-linejoin="round" />
<path d="M 139.5 148.5 L 137.5 148.5 L 137.0 148.5 L 137.0 148.5 L 137.0 149.0 L 138.0 151.0 L 139.5 153.5 L 140.5 155.5 L 141.0 156.5 " stroke="black" fill="none" stroke-width="7.0" stroke-linecap="round" stroke-linejoin="round" />
<path d="M 131.0 165.5 L 130.5 165.5 L 130.5 165.0 L 130.5 165.0 L 132.5 164.5 L 136.0 164.0 L 139.5 163.5 L 142.0 163.0 L 143.0 163.0 " stroke="black" fill="none" stroke-width="7.0" stroke-linecap="round" stroke-linejoin="round" />
<path d="M 133.5 176.0 L 133.5 176.5 L 133.5 177.0 L 134.5 177.0 L 136.5 177.0 L 138.5 176.5 L 140.5 176.0 L 141.5 176.0 " stroke="black" fill="none" stroke-width="7.0" stroke-linecap="round" stroke-linejoin="round" />
<path d="M 133.5 185.5 L 133.5 185.0 L 133.5 185.0 L 135.0 185.0 L 137.5 185.0 L 140.0 184.5 " stroke="black" fill="none" stroke-width="7.0" stroke-linecap="round" stroke-linejoin="round" />
<path d="M 137.5 165.5 L 137.0 165.5 L 136.5 166.5 L 136.0 169.0 L 136.0 174.5 L 136.5 183.5 L 137.0 190.0 L 137.5 194.0 L 137.5 194.5 " stroke="black" fill="none" stroke-width="7.0" stroke-linecap="round" stroke-linejoin="round" />
<path d="M 133.0 196.5 L 133.0 196.5 L 133.0 196.5 L 133.5 197.0 L 135.5 196.5 L 139.5 195.0 L 144.0 192.5 L 147.0 191.0 " stroke="black" fill="none" stroke-width="7.0" stroke-linecap="round" stroke-linejoin="round" />
<path d="M 150.0 110.0 L 150.0 111.0 L 150.0 111.5 L 151.5 111.5 L 156.0 110.5 L 161.5 109.0 L 166.5 107.5 L 169.0 107.0 L 169.5 107.0 L 169.5 107.0 " stroke="black" fill="none" stroke-width="7.0" stroke-linecap="round" stroke-linejoin="round" />
<path d="M 162.0 109.5 L 162.0 110.0 L 161.5 110.5 L 161.0 111.0 L 160.0 113.5 L 158.5 118.5 L 156.5 124.5 L 156.0 126.5 L 156.0 126.5 " stroke="black" fill="none" stroke-width="7.0" stroke-linecap="round" stroke-linejoin="round" />
<path d="M 149.5 127.0 L 149.5 127.0 L 149.5 127.0 L 149.5 128.0 L 150.5 133.5 L 151.5 143.5 L 152.5 153.0 L 153.0 157.0 L 153.5 156.5 " stroke="black" fill="none" stroke-width="7.0" stroke-linecap="round" stroke-linejoin="round" />
<path d="M 152.0 127.0 L 152.0 127.0 L 151.0 127.0 L 150.5 127.0 L 151.0 127.0 L 154.0 126.0 L 158.5 123.5 L 163.5 121.5 L 167.0 120.5 L 169.0 120.5 L 170.0 123.0 L 170.0 128.5 L 170.5 138.0 L 169.5 148.5 L 169.0 155.5 L 168.0 160.0 L 167.5 163.0 L 167.0 163.5 L 167.0 163.5 " stroke="black" fill="none" stroke-width="7.0" stroke-linecap="round" stroke-linejoin="round" />
<path d="M 153.5 135.5 L 152.5 135.5 L 152.5 136.0 L 153.0 135.5 L 155.5 134.5 L 159.5 133.5 L 163.0 132.5 L 166.5 132.5 L 167.5 132.0 " stroke="black" fill="none" stroke-width="7.0" stroke-linecap="round" stroke-linejoin="round" />
<path d="M 156.0 147.0 L 156.5 146.5 L 156.5 146.0 L 158.0 145.5 L 159.5 145.5 L 162.5 145.5 L 165.0 145.5 L 166.0 145.5 " stroke="black" fill="none" stroke-width="7.0" stroke-linecap="round" stroke-linejoin="round" />
<path d="M 151.5 165.0 L 151.5 164.5 L 152.0 164.0 L 153.5 163.5 L 158.5 162.5 L 164.0 161.0 L 168.5 159.5 L 169.0 159.5 " stroke="black" fill="none" stroke-width="7.0" stroke-linecap="round" stroke-linejoin="round" />
<path d="M 160.5 174.5 L 160.5 175.0 L 160.5 175.5 L 160.5 176.0 L 160.0 178.5 L 158.5 182.5 L 157.5 185.0 L 156.5 186.5 " stroke="black" fill="none" stroke-width="7.0" stroke-linecap="round" stroke-linejoin="round" />
<path d="M 170.0 176.0 L 170.0 176.5 L 170.0 177.5 L 172.5 179.5 L 179.0 183.0 L 185.5 187.0 L 188.5 189.0 L 189.0 189.5 " stroke="black" fill="none" stroke-width="7.0" stroke-linecap="round" stroke-linejoin="round" />
</svg>