<svg xmlns="http://www.w3.org/2000/svg" width="300" height="300" viewBox="0 0 300 300">
<path d="M 113.5 96.5 L 113.5 96.5 L 114.0 96.0 L 114.0 95.5 L 115.5 95.5 L 119.0 94.5 L 127.0 94.0 L 139.5 92.5 L 152.0 91.0 L 162.0 90.0 L 169.0 89.5 L 173.5 89.5 L 176.5 89.5 L 179.5 89.0 L 182.0 88.5 L 183.0 88.0 L 183.0 88.0 L 183.0 88.0 L 183.0 88.0 L 183.0 88.0 L 183.0 88.0 L 183.0 88.5 L 183.5 89.0 L 183.5 89.5 L 183.5 89.5 L 183.5 90.0 L 183.5 91.0 L 183.5 92.5 L 183.5 95.0 L 183.5 98.5 L 183.5 104.0 L 183.5 112.0 L 183.5 121.5 L 185.5 129.0 L 189.0 134.5 L 193.5 139.0 L 198.5 141.5 L 203.0 142.5 L 206.5 142.5 L 210.0 140.0 L 211.0 136.0 L 211.0 133.5 " stroke="black" fill="none" stroke-width="8.0" stroke-linecap="round" stroke-linejoin="round" />
<path d="M 202.0 93.5 L 202.0 93.5 L 202.5 93.5 L 202.5 93.5 L 203.0 93.5 L 202.5 94.0 L 201.0 96.5 L 198.0 99.5 L 195.5 102.5 L 194.0 104.5 " stroke="black" fill="none" stroke-width="8.0" stroke-linecap="round" stroke-linejoin="round" />
<path d="M 190.5 114.0 L 190.0 114.5 L 189.5 115.0 L 189.5 115.0 L 191.5 115.5 L 195.0 116.0 L 199.0 116.5 L 202.5 117.5 L 204.0 118.0 " stroke="black" fill="none" stroke-width="8.0" stroke-linecap="round" stroke-linejoin="round" />
<path d="M 124.0 131.5 L 122.5 132.5 L 121.5 133.0 L 121.5 133.5 L 122.0 133.0 L 124.0 132.5 L 127.0 131.5 L 130.5 131.0 L 137.0 130.5 L 146.0 130.0 L 154.5 129.0 L 159.5 129.0 L 162.0 129.0 L 162.5 129.0 L 162.5 129.0 L 162.5 129.0 L 163.0 128.5 L 164.0 128.5 L 165.5 128.0 L 167.5 128.0 L 169.0 127.5 L 170.0 127.5 L 170.5 127.5 L 170.5 127.5 L 170.5 127.5 L 170.5 127.5 L 170.0 127.5 L 170.0 127.5 L 169.5 128.0 L 169.5 128.0 L 169.5 128.5 L 169.0 128.5 L 169.0 129.0 L 168.5 129.5 L 168.5 130.0 L 168.5 131.0 L 168.5 132.5 L 168.5 135.0 L 168.5 138.5 L 168.5 143.0 L 169.0 148.5 L 170.0 154.5 L 170.5 161.5 L 171.5 168.5 L 173.0 174.5 L 175.5 180.0 L 179.5 185.0 L 184.0 189.5 L 189.5 193.0 L 195.0 195.0 L 201.5 195.5 L 208.0 195.5 L 212.5 194.5 L 214.5 193.5 L 214.5 192.0 L 214.5 190.0 L 213.5 188.0 L 212.5 186.0 L 212.0 185.5 L 211.5 185.5 " stroke="black" fill="none" stroke-width="8.0" stroke-linecap="round" stroke-linejoin="round" />
<path d="M 200.5 154.0 L 200.5 154.0 L 201.5 154.0 L 202.0 154.0 L 202.0 154.0 L 201.5 154.5 L 199.0 157.5 L 195.5 161.5 L 192.5 165.5 L 191.0 168.0 L 190.5 168.5 " stroke="black" fill="none" stroke-width="8.0" stroke-linecap="round" stroke-linejoin="round" />
<path d="M 188.0 173.0 L 187.0 173.5 L 187.0 174.0 L 189.5 175.0 L 193.5 176.5 L 197.5 177.5 L 200.0 178.0 " stroke="black" fill="none" stroke-width="8.0" stroke-linecap="round" stroke-linejoin="round" />
<path d="M 122.5 116.0 L 122.5 116.0 L 121.5 116.0 L 121.0 115.5 L 122.5 113.5 L 126.5 110.5 L 131.0 107.0 L 135.0 104.0 L 138.0 102.5 L 139.5 102.0 L 139.5 102.5 L 139.5 102.5 " stroke="black" fill="none" stroke-width="8.0" stroke-linecap="round" stroke-linejoin="round" />
<path d="M 129.5 109.5 L 129.5 109.5 L 129.5 109.5 L 129.5 109.0 L 129.5 109.0 L 129.5 109.0 L 129.5 109.5 L 130.0 111.5 L 130.5 115.5 L 131.0 121.5 L 131.0 129.5 L 131.0 139.0 L 130.5 148.0 L 129.5 157.0 L 128.5 166.5 L 127.0 174.5 L 125.0 182.0 L 123.0 188.0 L 121.5 192.0 L 120.5 195.0 L 119.0 198.0 L 118.5 199.0 L 117.0 199.0 L 115.5 196.0 " stroke="black" fill="none" stroke-width="8.0" stroke-linecap="round" stroke-linejoin="round" />
<path d="M 150.5 102.5 L 150.5 102.0 L 150.0 102.0 L 150.0 102.0 L 150.0 102.0 L 150.0 103.0 L 150.0 105.5 L 150.0 110.0 L 150.0 117.0 L 149.5 125.0 L 149.5 132.5 L 149.0 138.5 L 149.0 145.0 L 148.5 150.5 L 148.5 155.0 L 148.5 159.0 L 148.0 163.0 L 148.0 167.0 L 148.0 171.0 L 147.5 175.0 L 147.5 178.0 L 147.5 181.0 L 147.5 183.5 L 147.5 185.5 L 147.0 187.5 L 147.0 189.5 L 147.0 191.0 L 147.0 193.0 L 147.0 194.5 L 147.0 196.5 L 147.0 198.0 L 147.0 199.0 L 147.0 200.0 L 147.5 201.0 L 147.5 202.0 L 147.5 202.5 L 147.5 203.5 L 147.5 204.5 L 148.0 205.0 L 148.0 205.5 L 148.0 205.5 L 148.0 205.5 L 148.0 205.5 L 148.0 205.5 L 148.0 205.5 " stroke="black" fill="none" stroke-width="8.0" stroke-linecap="round" stroke-linejoin="round" />
</svg>