<svg xmlns="http://www.w3.org/2000/svg" width="300" height="300" viewBox="0 0 300 300">
<path d="M 122.0 112.5 L 121.5 113.0 L 120.5 113.0 L 120.5 113.5 L 121.5 113.5 L 124.5 113.5 L 128.5 112.5 L 132.0 112.0 L 134.5 111.0 L 136.0 111.0 L 136.0 111.0 L 136.0 111.0 " stroke="black" fill="none" stroke-width="6.0" stroke-linecap="round" stroke-linejoin="round" />
<path d="M 124.0 117.0 L 123.5 116.5 L 123.0 116.5 L 123.0 116.5 L 123.0 116.5 L 123.0 118.0 L 123.5 121.0 L 123.5 125.0 L 123.0 130.5 L 122.5 137.0 L 121.5 143.0 L 121.5 146.0 L 122.5 147.0 L 123.0 147.5 L 123.5 147.5 L 123.5 147.5 L 124.0 147.5 L 124.0 147.5 L 124.0 147.5 L 124.5 147.5 L 125.5 147.5 L 126.0 147.5 L 127.5 147.5 L 128.5 147.0 L 131.0 146.5 L 133.5 145.5 L 137.0 144.5 L 140.0 144.0 L 142.5 144.0 L 144.0 143.5 L 144.0 143.5 L 144.0 144.0 L 143.5 145.0 L 143.5 146.5 L 143.0 148.5 L 142.5 152.0 L 142.5 157.0 L 142.5 164.0 L 142.5 171.0 L 142.5 178.0 L 142.5 182.5 L 143.0 186.0 L 143.5 187.5 L 143.5 188.5 L 143.0 189.0 L 142.0 190.0 L 140.5 190.0 L 138.0 188.5 L 137.0 187.5 " stroke="black" fill="none" stroke-width="6.0" stroke-linecap="round" stroke-linejoin="round" />
<path d="M 125.0 127.5 L 124.5 127.5 L 123.5 127.0 L 123.5 127.0 L 125.0 126.5 L 127.5 126.0 L 130.0 125.0 L 132.0 124.0 L 134.0 123.5 L 135.0 123.0 L 135.5 123.0 " stroke="black" fill="none" stroke-width="6.0" stroke-linecap="round" stroke-linejoin="round" />
<path d="M 126.5 139.0 L 126.0 139.0 L 125.0 139.5 L 125.0 139.5 L 126.5 139.0 L 129.5 138.0 L 132.5 137.0 L 135.5 136.0 L 137.0 134.5 " stroke="black" fill="none" stroke-width="6.0" stroke-linecap="round" stroke-linejoin="round" />
<path d="M 131.5 117.0 L 131.5 117.0 L 131.5 117.0 L 131.5 117.5 L 131.0 118.5 L 131.0 122.5 L 131.5 131.5 L 132.0 139.5 L 132.0 143.0 " stroke="black" fill="none" stroke-width="6.0" stroke-linecap="round" stroke-linejoin="round" />
<path d="M 111.0 167.5 L 112.0 166.5 L 113.0 166.0 L 113.5 165.5 L 113.5 165.5 L 113.5 166.5 L 113.5 168.5 L 113.5 171.5 L 113.0 174.0 L 112.5 176.0 L 112.0 176.5 " stroke="black" fill="none" stroke-width="6.0" stroke-linecap="round" stroke-linejoin="round" />
<path d="M 122.0 165.5 L 121.5 165.5 L 121.0 165.5 L 121.0 165.5 L 121.0 166.5 L 122.0 168.5 L 123.0 170.5 L 123.5 171.5 L 124.5 172.5 " stroke="black" fill="none" stroke-width="6.0" stroke-linecap="round" stroke-linejoin="round" />
<path d="M 130.5 165.5 L 130.5 165.5 L 130.5 165.5 L 130.0 165.5 L 130.0 165.5 L 130.0 165.5 L 130.5 166.5 L 131.0 167.0 " stroke="black" fill="none" stroke-width="6.0" stroke-linecap="round" stroke-linejoin="round" />
<path d="M 135.0 164.0 L 136.0 164.0 L 136.0 164.0 L 136.5 164.5 L 137.0 165.5 " stroke="black" fill="none" stroke-width="6.0" stroke-linecap="round" stroke-linejoin="round" />
<path d="M 152.5 122.0 L 152.5 121.5 L 152.5 121.0 L 152.5 121.0 L 152.5 121.0 L 153.0 123.0 L 153.5 131.0 L 153.5 146.5 L 153.5 162.0 L 153.0 170.5 L 153.5 172.0 L 153.5 171.0 L 153.5 167.0 L 153.5 161.5 " stroke="black" fill="none" stroke-width="6.0" stroke-linecap="round" stroke-linejoin="round" />
<path d="M 152.5 120.5 L 152.5 120.5 L 152.0 120.5 L 151.5 120.5 L 151.5 120.0 L 151.5 120.0 L 153.5 120.0 L 157.0 120.0 L 163.5 119.5 L 170.5 119.0 L 177.0 119.0 L 181.0 119.0 L 183.0 119.0 L 183.5 119.0 L 184.0 119.0 L 184.0 119.5 L 184.0 120.0 L 184.0 120.5 L 184.5 122.0 L 185.0 124.5 L 185.0 128.5 L 185.0 134.5 L 184.5 143.5 L 184.0 153.0 L 183.5 161.0 L 183.0 167.0 L 183.0 169.5 L 183.0 170.5 L 183.0 170.0 L 182.5 168.5 " stroke="black" fill="none" stroke-width="6.0" stroke-linecap="round" stroke-linejoin="round" />
<path d="M 165.5 124.5 L 165.5 124.0 L 165.0 123.0 L 164.5 123.0 L 164.5 123.0 L 164.5 124.0 L 164.5 129.0 L 164.5 137.0 L 162.0 147.0 L 159.5 154.0 L 159.0 155.0 L 159.0 153.5 L 159.5 151.5 " stroke="black" fill="none" stroke-width="6.0" stroke-linecap="round" stroke-linejoin="round" />
<path d="M 171.0 125.5 L 171.0 125.0 L 171.0 125.0 L 171.0 124.5 L 171.0 124.0 L 171.0 124.0 L 171.0 125.0 L 171.0 128.5 L 171.0 135.5 L 170.5 144.0 L 170.0 150.5 L 170.5 152.5 L 172.5 153.0 L 174.5 152.5 L 176.5 151.5 L 178.0 150.5 L 178.5 150.0 L 178.5 149.5 " stroke="black" fill="none" stroke-width="6.0" stroke-linecap="round" stroke-linejoin="round" />
<path d="M 156.5 174.0 L 156.5 174.0 L 156.5 174.5 L 157.5 174.5 L 160.5 174.5 L 166.0 173.5 L 172.5 173.0 L 177.5 172.5 L 178.5 172.5 " stroke="black" fill="none" stroke-width="6.0" stroke-linecap="round" stroke-linejoin="round" />
</svg>