<svg xmlns="http://www.w3.org/2000/svg" width="300" height="300" viewBox="0 0 300 300">
<path d="M 126.5 101.5 L 126.0 101.0 L 125.5 100.5 L 125.5 100.5 L 125.5 102.0 L 125.5 106.0 L 126.0 111.5 L 126.0 118.0 L 126.5 123.5 L 127.0 125.0 " stroke="black" fill="none" stroke-width="6.0" stroke-linecap="round" stroke-linejoin="round" />
<path d="M 126.5 101.0 L 125.0 101.0 L 124.5 101.0 L 124.5 101.0 L 126.5 101.0 L 129.5 100.5 L 133.0 99.5 L 136.0 98.5 L 139.0 98.0 " stroke="black" fill="none" stroke-width="6.0" stroke-linecap="round" stroke-linejoin="round" />
<path d="M 128.0 112.0 L 127.5 112.0 L 126.5 112.0 L 126.0 112.0 L 126.5 112.0 L 128.5 111.5 L 131.5 111.0 L 135.0 110.5 L 137.0 110.0 " stroke="black" fill="none" stroke-width="6.0" stroke-linecap="round" stroke-linejoin="round" />
<path d="M 129.0 121.0 L 128.0 121.0 L 128.0 121.0 L 128.5 120.5 L 131.0 120.5 L 135.0 120.0 L 137.5 119.5 " stroke="black" fill="none" stroke-width="6.0" stroke-linecap="round" stroke-linejoin="round" />
<path d="M 116.5 131.0 L 117.5 131.0 L 118.5 130.5 L 120.0 130.0 L 122.5 130.0 L 126.5 130.0 L 132.0 129.5 L 137.0 129.0 L 141.0 128.0 L 143.0 127.5 " stroke="black" fill="none" stroke-width="6.0" stroke-linecap="round" stroke-linejoin="round" />
<path d="M 128.5 132.0 L 128.5 132.0 L 128.5 131.5 L 128.5 131.0 L 128.5 131.0 L 127.5 133.0 L 126.0 137.0 L 123.5 142.5 L 121.5 147.0 L 121.0 149.0 L 121.0 149.5 L 122.0 148.0 L 123.5 146.5 L 125.5 145.5 L 127.0 145.0 L 129.5 144.5 L 131.5 144.5 L 134.0 144.5 L 136.0 144.5 L 136.5 144.5 " stroke="black" fill="none" stroke-width="6.0" stroke-linecap="round" stroke-linejoin="round" />
<path d="M 139.5 139.0 L 139.0 139.0 L 138.5 139.5 L 139.5 141.0 L 142.0 144.0 L 145.0 147.0 L 147.5 149.5 " stroke="black" fill="none" stroke-width="6.0" stroke-linecap="round" stroke-linejoin="round" />
<path d="M 161.5 105.5 L 161.5 105.5 L 162.0 105.0 L 162.0 105.0 L 162.0 104.5 L 162.0 104.5 L 160.5 107.0 L 157.5 111.0 L 153.0 116.5 L 150.0 120.0 L 150.0 120.5 " stroke="black" fill="none" stroke-width="6.0" stroke-linecap="round" stroke-linejoin="round" />
<path d="M 170.0 113.5 L 170.0 114.0 L 170.0 115.0 L 170.0 115.5 L 169.5 116.0 L 168.5 118.5 L 165.5 122.5 L 160.0 128.0 L 155.0 132.5 L 152.5 134.0 L 152.5 134.0 L 152.5 133.5 " stroke="black" fill="none" stroke-width="6.0" stroke-linecap="round" stroke-linejoin="round" />
<path d="M 174.0 129.0 L 174.0 130.0 L 174.0 131.0 L 173.5 132.0 L 172.5 134.0 L 169.5 137.5 L 165.0 142.0 L 162.0 144.5 L 160.5 144.5 " stroke="black" fill="none" stroke-width="6.0" stroke-linecap="round" stroke-linejoin="round" />
<path d="M 126.5 160.0 L 126.0 160.0 L 125.5 160.5 L 125.0 160.5 L 126.5 160.5 L 129.5 160.0 L 133.5 159.5 L 138.5 159.0 L 145.0 158.0 L 152.5 156.5 L 158.5 155.5 L 163.0 155.0 L 167.5 154.5 L 170.5 154.0 L 171.5 153.5 L 171.5 153.5 L 171.0 153.5 L 171.0 153.5 L 171.0 153.5 L 171.0 153.5 L 171.0 153.5 L 170.5 153.5 L 170.5 153.5 L 170.5 154.5 L 170.5 156.0 L 170.0 159.0 L 169.5 162.5 L 169.0 165.0 L 169.0 167.0 L 169.0 167.5 " stroke="black" fill="none" stroke-width="6.0" stroke-linecap="round" stroke-linejoin="round" />
<path d="M 132.5 171.0 L 132.0 171.0 L 131.5 171.0 L 130.5 171.5 L 130.0 171.5 L 130.0 171.5 L 133.0 171.5 L 139.5 170.5 L 147.5 169.0 L 156.5 167.5 L 164.5 166.5 L 169.5 166.5 L 171.0 168.0 L 170.0 169.0 L 168.0 169.0 " stroke="black" fill="none" stroke-width="6.0" stroke-linecap="round" stroke-linejoin="round" />
<path d="M 127.5 173.0 L 127.5 173.0 L 127.5 172.5 L 127.5 172.0 L 127.5 171.5 L 128.0 171.5 L 128.0 171.5 L 128.5 173.5 L 128.5 177.0 L 128.5 181.5 L 129.0 185.0 L 129.5 186.5 L 130.5 186.5 L 132.0 186.0 L 134.0 184.5 L 137.0 183.0 L 141.5 181.5 L 148.5 180.0 L 155.0 179.5 L 161.0 179.5 L 166.0 180.0 L 169.0 180.5 L 170.5 181.0 L 171.0 182.0 L 171.0 182.0 L 171.0 182.5 L 171.0 182.5 L 171.0 183.0 L 171.0 184.0 L 171.0 185.5 L 170.5 188.5 L 170.5 192.5 L 170.5 197.0 L 171.0 201.5 L 171.5 204.5 L 171.5 206.0 L 171.0 206.5 L 169.5 206.0 L 166.5 203.5 L 163.0 200.5 L 160.0 197.5 L 158.5 195.0 " stroke="black" fill="none" stroke-width="6.0" stroke-linecap="round" stroke-linejoin="round" />
<path d="M 139.5 157.0 L 140.0 156.5 L 140.0 156.0 L 140.5 156.0 L 141.0 156.5 L 141.5 158.5 L 141.5 162.0 L 142.0 167.0 L 141.0 175.5 L 138.5 185.5 L 136.0 194.0 L 133.0 200.5 L 130.5 205.0 L 130.0 206.5 L 129.5 206.5 " stroke="black" fill="none" stroke-width="6.0" stroke-linecap="round" stroke-linejoin="round" />
<path d="M 152.0 154.5 L 152.0 154.5 L 152.0 154.5 L 152.5 154.5 L 152.5 155.0 L 152.5 157.0 L 152.5 163.5 L 152.0 174.0 L 151.5 185.5 L 151.0 194.0 L 151.0 199.0 L 151.0 201.5 L 151.5 203.5 L 151.5 204.0 " stroke="black" fill="none" stroke-width="6.0" stroke-linecap="round" stroke-linejoin="round" />
</svg>