<svg xmlns="http://www.w3.org/2000/svg" width="300" height="300" viewBox="0 0 300 300">
<path d="M 113.0 106.5 L 111.5 107.0 L 110.5 107.0 L 110.5 107.0 L 112.5 107.0 L 116.5 107.0 L 122.0 106.5 L 126.5 106.5 L 131.0 106.5 L 133.5 106.0 L 134.5 106.0 L 134.5 106.0 " stroke="black" fill="none" stroke-width="6.0" stroke-linecap="round" stroke-linejoin="round" />
<path d="M 112.0 110.5 L 112.0 110.0 L 112.5 109.5 L 113.0 109.0 L 113.0 109.0 L 113.5 109.0 L 113.5 110.0 L 113.5 113.5 L 113.5 119.0 L 113.5 127.0 L 113.0 134.0 L 113.0 138.0 L 113.0 140.5 L 113.0 143.0 L 113.5 145.0 L 113.5 146.5 L 113.5 147.5 L 113.5 147.5 L 113.5 147.5 L 113.5 147.5 L 113.5 148.0 L 114.0 148.5 L 114.5 149.0 L 115.0 149.0 L 116.0 148.5 L 118.0 148.0 L 120.0 147.5 L 122.5 146.5 L 125.5 145.5 L 128.0 145.0 L 130.5 145.0 L 132.0 145.0 L 133.5 145.0 L 135.0 146.0 L 136.0 147.0 L 137.0 148.0 L 138.0 149.0 L 139.0 151.0 L 139.5 152.5 L 140.0 155.0 L 140.5 158.0 L 140.5 161.0 L 140.5 165.0 L 140.5 169.5 L 140.5 174.5 L 140.5 180.0 L 139.5 185.0 L 139.0 188.0 L 138.5 190.5 L 137.5 192.0 L 136.5 192.5 L 135.0 192.5 L 133.0 192.0 L 130.0 188.0 L 129.5 186.5 " stroke="black" fill="none" stroke-width="6.0" stroke-linecap="round" stroke-linejoin="round" />
<path d="M 118.5 124.0 L 118.0 124.0 L 117.0 123.5 L 117.0 123.0 L 118.0 122.0 L 121.0 121.0 L 123.5 120.5 L 126.5 120.5 L 128.5 121.0 L 129.0 121.0 " stroke="black" fill="none" stroke-width="6.0" stroke-linecap="round" stroke-linejoin="round" />
<path d="M 119.5 133.0 L 118.5 133.5 L 118.0 134.0 L 118.0 134.0 L 120.0 133.0 L 123.5 132.5 L 127.0 132.0 L 130.5 131.0 L 131.5 131.0 " stroke="black" fill="none" stroke-width="6.0" stroke-linecap="round" stroke-linejoin="round" />
<path d="M 125.5 110.0 L 126.0 111.0 L 126.5 111.5 L 126.5 112.0 L 126.0 114.5 L 125.5 121.0 L 124.5 131.0 L 124.5 139.5 L 125.0 143.5 L 125.0 144.0 " stroke="black" fill="none" stroke-width="6.0" stroke-linecap="round" stroke-linejoin="round" />
<path d="M 105.5 165.5 L 107.0 164.5 L 107.0 164.0 L 107.0 164.0 L 107.0 164.0 L 107.0 166.5 L 106.5 170.5 L 105.5 174.5 L 105.0 177.5 L 104.5 178.5 " stroke="black" fill="none" stroke-width="6.0" stroke-linecap="round" stroke-linejoin="round" />
<path d="M 115.5 165.5 L 115.5 165.0 L 115.5 165.0 L 115.0 164.5 L 115.0 164.5 L 115.0 164.5 L 116.0 165.0 L 117.5 167.0 L 118.5 169.5 L 119.5 171.0 " stroke="black" fill="none" stroke-width="6.0" stroke-linecap="round" stroke-linejoin="round" />
<path d="M 123.0 161.5 L 123.0 161.5 L 123.5 162.0 L 123.5 162.0 L 124.0 162.5 L 125.0 163.5 L 125.5 165.0 L 126.0 166.0 " stroke="black" fill="none" stroke-width="6.0" stroke-linecap="round" stroke-linejoin="round" />
<path d="M 133.0 158.5 L 133.0 158.5 L 133.0 159.0 L 133.0 159.5 L 133.0 160.0 L 133.0 160.5 L 133.5 161.5 L 134.0 163.0 " stroke="black" fill="none" stroke-width="6.0" stroke-linecap="round" stroke-linejoin="round" />
<path d="M 161.0 107.5 L 160.5 107.5 L 160.0 107.5 L 159.5 107.5 L 159.5 108.0 L 159.5 110.5 L 160.0 116.5 L 160.5 126.0 L 161.0 139.0 L 160.5 153.0 L 159.5 163.5 L 158.5 171.0 L 157.5 174.5 L 157.0 174.5 L 156.0 174.5 L 155.0 171.5 " stroke="black" fill="none" stroke-width="6.0" stroke-linecap="round" stroke-linejoin="round" />
<path d="M 149.5 129.0 L 149.0 129.0 L 148.5 129.5 L 148.0 129.5 L 148.0 129.5 L 149.0 129.0 L 151.5 128.0 L 154.5 128.0 L 157.0 127.5 L 159.0 127.5 " stroke="black" fill="none" stroke-width="6.0" stroke-linecap="round" stroke-linejoin="round" />
<path d="M 149.5 141.0 L 149.5 141.5 L 150.0 142.5 L 150.0 142.5 L 150.5 142.5 L 152.0 142.0 L 153.5 142.0 L 155.5 141.5 L 157.5 141.5 L 158.0 141.5 " stroke="black" fill="none" stroke-width="6.0" stroke-linecap="round" stroke-linejoin="round" />
<path d="M 147.0 160.5 L 147.5 160.5 L 148.0 160.0 L 148.5 160.0 L 150.0 159.5 L 152.5 159.0 L 155.5 158.5 L 159.5 156.5 " stroke="black" fill="none" stroke-width="6.0" stroke-linecap="round" stroke-linejoin="round" />
<path d="M 174.5 113.0 L 174.5 113.0 L 174.5 113.0 L 175.0 113.0 L 175.0 113.0 L 175.0 113.5 L 175.0 118.5 L 174.0 133.0 L 173.0 153.0 L 173.0 166.0 L 173.0 173.5 L 173.5 175.5 L 173.5 174.0 L 173.5 173.0 " stroke="black" fill="none" stroke-width="6.0" stroke-linecap="round" stroke-linejoin="round" />
<path d="M 176.5 128.5 L 176.0 129.0 L 175.5 129.5 L 175.5 129.5 L 176.0 129.5 L 177.5 129.5 L 180.0 129.5 L 182.5 129.5 L 185.0 129.0 L 186.5 129.0 " stroke="black" fill="none" stroke-width="6.0" stroke-linecap="round" stroke-linejoin="round" />
<path d="M 177.0 143.5 L 176.5 144.0 L 176.0 144.5 L 176.0 144.5 L 176.5 144.5 L 178.5 144.5 L 181.0 144.5 L 183.5 145.0 L 185.0 145.0 " stroke="black" fill="none" stroke-width="6.0" stroke-linecap="round" stroke-linejoin="round" />
<path d="M 175.0 161.0 L 175.0 161.0 L 175.0 161.0 L 175.0 161.0 L 176.0 160.5 L 178.0 160.5 L 182.0 160.5 L 186.5 161.0 L 188.5 161.0 " stroke="black" fill="none" stroke-width="6.0" stroke-linecap="round" stroke-linejoin="round" />
</svg>