<svg xmlns="http://www.w3.org/2000/svg" width="300" height="300" viewBox="0 0 300 300">
<path d="M 110.0 101.0 L 110.0 101.0 L 110.0 100.5 L 110.0 100.5 L 110.0 100.0 L 111.5 100.0 L 116.0 100.0 L 123.0 99.0 L 129.5 97.5 L 133.5 97.0 L 135.0 97.0 L 134.5 97.0 L 134.0 97.0 L 133.0 97.5 " stroke="black" fill="none" stroke-width="7.0" stroke-linecap="round" stroke-linejoin="round" />
<path d="M 108.5 103.5 L 109.0 103.5 L 109.5 103.0 L 109.5 103.0 L 109.5 104.5 L 110.0 107.5 L 110.0 112.0 L 110.5 117.5 L 111.0 123.5 L 111.5 128.0 L 111.5 132.0 L 111.5 135.5 L 111.5 139.0 L 111.5 141.0 L 111.5 143.0 L 112.0 145.0 L 112.0 146.5 L 112.5 147.5 L 112.5 148.0 L 113.0 148.0 L 113.0 148.0 L 114.0 148.0 L 114.5 147.5 L 115.5 147.5 L 117.0 147.0 L 118.5 146.5 L 121.0 146.0 L 124.5 145.5 L 128.5 145.0 L 132.0 144.5 L 135.5 144.0 L 137.5 144.5 L 139.0 145.0 L 140.0 145.0 L 140.5 145.0 L 141.0 145.0 L 141.0 145.0 L 141.5 145.0 L 142.0 145.5 L 142.5 145.5 L 143.0 146.0 L 143.5 147.0 L 144.5 148.5 L 145.5 150.5 L 146.0 153.0 L 147.0 156.5 L 147.5 159.5 L 148.0 163.0 L 148.0 167.0 L 148.0 171.0 L 148.0 175.5 L 148.0 179.5 L 148.0 183.5 L 148.0 188.0 L 148.0 192.0 L 147.5 195.0 L 147.0 198.0 L 146.0 199.5 L 144.5 201.0 L 143.0 202.0 L 141.5 202.0 L 140.0 201.5 L 138.0 199.0 L 136.5 197.0 " stroke="black" fill="none" stroke-width="7.0" stroke-linecap="round" stroke-linejoin="round" />
<path d="M 116.5 113.0 L 116.5 113.0 L 116.5 113.0 L 116.5 113.0 L 118.5 113.0 L 121.5 113.0 L 125.5 112.5 L 129.0 112.5 L 131.0 112.0 L 132.0 111.5 " stroke="black" fill="none" stroke-width="7.0" stroke-linecap="round" stroke-linejoin="round" />
<path d="M 115.5 130.0 L 116.0 130.0 L 116.0 129.5 L 116.5 129.5 L 118.5 128.5 L 123.5 127.5 L 129.0 127.0 L 133.5 126.0 L 136.0 125.5 " stroke="black" fill="none" stroke-width="7.0" stroke-linecap="round" stroke-linejoin="round" />
<path d="M 124.0 102.0 L 123.5 103.0 L 123.5 104.5 L 123.5 108.0 L 124.0 117.0 L 125.0 129.0 L 125.5 137.5 L 126.0 140.0 L 126.5 140.5 " stroke="black" fill="none" stroke-width="7.0" stroke-linecap="round" stroke-linejoin="round" />
<path d="M 108.5 165.0 L 109.0 165.0 L 109.0 164.5 L 109.5 164.5 L 109.5 166.5 L 109.5 171.0 L 109.0 177.0 L 108.0 182.0 L 107.0 184.0 L 107.0 184.0 " stroke="black" fill="none" stroke-width="7.0" stroke-linecap="round" stroke-linejoin="round" />
<path d="M 118.5 166.5 L 118.5 166.5 L 118.5 166.5 L 118.5 166.5 L 119.0 167.0 L 120.0 169.0 L 121.5 171.0 L 122.5 172.0 " stroke="black" fill="none" stroke-width="7.0" stroke-linecap="round" stroke-linejoin="round" />
<path d="M 128.5 164.5 L 128.5 164.5 L 128.5 164.5 L 128.5 165.0 L 128.5 166.0 L 130.0 167.5 L 131.0 168.5 " stroke="black" fill="none" stroke-width="7.0" stroke-linecap="round" stroke-linejoin="round" />
<path d="M 134.5 160.0 L 134.5 160.0 L 135.5 160.5 L 136.0 161.0 L 137.0 162.5 L 138.5 164.5 L 139.0 165.5 " stroke="black" fill="none" stroke-width="7.0" stroke-linecap="round" stroke-linejoin="round" />
<path d="M 153.0 99.0 L 153.0 99.0 L 153.0 98.5 L 153.0 98.5 L 153.5 98.0 L 155.0 98.0 L 159.5 98.0 L 167.5 98.5 L 176.0 98.5 L 183.5 98.5 L 188.0 98.0 L 189.0 98.0 L 189.5 98.0 L 189.5 98.0 L 189.5 98.0 " stroke="black" fill="none" stroke-width="7.0" stroke-linecap="round" stroke-linejoin="round" />
<path d="M 156.0 105.0 L 156.5 105.0 L 156.5 105.0 L 157.0 105.0 L 157.5 105.0 L 157.5 105.0 L 157.5 106.0 L 158.0 107.5 L 158.0 110.0 L 158.0 113.0 L 158.0 116.5 L 158.5 120.0 L 159.0 123.5 L 159.0 127.5 L 159.5 131.5 L 159.5 135.0 L 159.5 138.0 L 159.5 141.0 L 159.5 144.0 L 159.5 147.5 L 159.5 150.5 L 159.5 153.0 L 160.0 155.0 L 160.0 157.5 L 160.0 159.5 L 160.0 162.5 L 160.0 165.0 L 160.0 167.0 L 160.0 169.0 L 160.0 170.5 L 160.5 171.5 L 160.5 173.0 L 160.5 174.5 L 160.5 176.0 L 160.5 177.5 L 160.5 179.0 L 161.0 180.5 L 161.0 181.5 L 161.0 183.0 L 161.5 184.0 L 162.0 185.5 L 162.0 186.5 L 162.5 188.0 L 163.0 189.0 L 164.0 190.0 L 165.0 190.5 L 166.5 191.5 L 168.0 192.0 L 170.0 192.0 L 172.0 192.5 L 174.0 193.0 L 176.5 193.0 L 179.0 193.0 L 182.0 193.0 L 185.0 193.0 L 188.0 192.5 L 190.0 192.0 L 191.5 191.5 L 192.5 191.0 L 193.0 190.5 L 194.0 190.5 " stroke="black" fill="none" stroke-width="7.0" stroke-linecap="round" stroke-linejoin="round" />
<path d="M 173.5 113.0 L 173.5 113.0 L 173.0 113.0 L 173.0 113.0 L 173.0 113.0 L 173.0 114.0 L 173.5 118.5 L 174.5 125.0 L 175.0 129.5 L 175.5 131.5 L 175.5 131.5 " stroke="black" fill="none" stroke-width="7.0" stroke-linecap="round" stroke-linejoin="round" />
<path d="M 173.0 117.5 L 172.5 117.5 L 171.5 117.5 L 171.0 117.0 L 172.0 116.5 L 175.0 115.0 L 179.0 114.0 L 182.0 113.5 L 185.0 113.5 L 187.0 114.0 L 188.0 116.5 L 188.0 119.5 L 188.0 124.0 L 187.0 127.0 L 186.0 129.5 L 185.0 130.5 L 185.0 130.5 " stroke="black" fill="none" stroke-width="7.0" stroke-linecap="round" stroke-linejoin="round" />
<path d="M 175.5 136.5 L 175.5 137.0 L 174.5 138.0 L 174.5 138.0 L 177.0 137.5 L 180.5 136.5 L 183.0 135.5 L 185.0 135.0 " stroke="black" fill="none" stroke-width="7.0" stroke-linecap="round" stroke-linejoin="round" />
<path d="M 169.5 151.5 L 169.0 151.0 L 168.0 150.5 L 168.0 150.5 L 168.0 152.5 L 168.5 156.0 L 169.0 161.0 L 170.0 165.5 L 170.0 168.0 L 170.5 168.0 " stroke="black" fill="none" stroke-width="7.0" stroke-linecap="round" stroke-linejoin="round" />
<path d="M 169.0 154.0 L 169.0 154.0 L 169.0 153.5 L 169.0 153.0 L 171.0 152.0 L 173.0 151.5 L 175.5 151.0 L 177.5 151.5 L 178.5 154.0 L 179.0 157.5 L 179.0 162.5 L 178.0 165.5 L 176.5 167.5 " stroke="black" fill="none" stroke-width="7.0" stroke-linecap="round" stroke-linejoin="round" />
<path d="M 171.0 169.5 L 171.0 169.5 L 171.0 169.5 L 171.0 169.5 L 173.0 169.0 L 174.5 168.5 " stroke="black" fill="none" stroke-width="7.0" stroke-linecap="round" stroke-linejoin="round" />
<path d="M 186.5 147.0 L 186.5 147.0 L 186.5 147.0 L 186.5 147.0 L 186.5 147.0 L 186.5 150.5 L 187.5 157.0 L 188.0 164.0 L 188.0 168.0 L 188.0 168.5 " stroke="black" fill="none" stroke-width="7.0" stroke-linecap="round" stroke-linejoin="round" />
<path d="M 188.5 150.0 L 187.5 150.0 L 187.0 150.0 L 186.5 150.0 L 187.5 149.5 L 189.5 148.5 L 191.5 148.5 L 194.0 148.5 L 195.5 148.5 L 197.0 150.0 L 198.0 153.0 L 198.5 157.5 L 198.5 162.5 L 197.5 165.5 L 196.5 167.5 L 195.5 168.0 " stroke="black" fill="none" stroke-width="7.0" stroke-linecap="round" stroke-linejoin="round" />
<path d="M 189.5 171.5 L 189.0 171.5 L 188.5 171.5 L 189.0 171.5 L 191.5 170.0 L 195.0 169.0 L 198.0 168.0 " stroke="black" fill="none" stroke-width="7.0" stroke-linecap="round" stroke-linejoin="round" />
</svg>