<svg xmlns="http://www.w3.org/2000/svg" width="300" height="300" viewBox="0 0 300 300">
<path d="M 105.0 83.5 L 104.5 83.5 L 103.5 83.5 L 103.5 83.5 L 103.5 84.5 L 104.0 87.0 L 104.5 90.5 L 104.5 94.5 L 104.5 96.5 " stroke="black" fill="none" stroke-width="8.0" stroke-linecap="round" stroke-linejoin="round" />
<path d="M 87.5 95.0 L 88.0 94.5 L 88.5 94.5 L 89.5 94.0 L 92.5 93.5 L 97.0 93.0 L 99.0 92.5 " stroke="black" fill="none" stroke-width="8.0" stroke-linecap="round" stroke-linejoin="round" />
<path d="M 125.5 83.0 L 124.5 83.0 L 124.0 83.0 L 124.0 83.0 L 124.0 85.0 L 124.0 88.5 L 124.0 93.5 L 124.5 97.5 L 125.0 98.5 " stroke="black" fill="none" stroke-width="8.0" stroke-linecap="round" stroke-linejoin="round" />
<path d="M 126.5 92.0 L 126.5 92.0 L 125.5 92.5 L 125.5 92.5 L 126.5 92.5 L 129.0 91.5 L 132.0 91.0 L 134.5 90.5 L 136.5 90.5 L 137.0 90.5 " stroke="black" fill="none" stroke-width="8.0" stroke-linecap="round" stroke-linejoin="round" />
<path d="M 98.0 106.0 L 98.0 106.0 L 98.0 106.0 L 98.5 106.0 L 99.0 105.5 L 99.0 105.5 L 98.0 107.0 L 95.5 110.0 L 91.5 114.5 L 88.0 118.5 L 86.5 119.5 L 86.5 119.5 " stroke="black" fill="none" stroke-width="8.0" stroke-linecap="round" stroke-linejoin="round" />
<path d="M 101.0 111.5 L 100.5 111.5 L 100.5 111.5 L 100.5 111.5 L 101.5 111.5 L 105.0 111.0 L 109.5 110.5 L 114.5 109.5 L 120.5 108.5 L 126.5 108.0 L 130.5 107.0 L 133.0 107.0 L 133.5 107.0 L 133.5 107.0 L 133.0 107.0 L 133.0 107.0 L 133.0 107.5 L 133.0 107.5 L 133.0 108.0 L 133.0 108.0 L 132.5 108.5 L 132.5 109.0 L 132.5 110.0 L 132.5 111.5 L 132.5 113.5 L 132.5 116.5 L 132.5 120.5 L 132.5 125.5 L 132.0 129.0 L 131.5 132.0 L 131.0 134.0 L 130.5 135.0 L 129.5 135.5 L 127.5 135.0 L 125.5 133.5 L 125.0 133.0 " stroke="black" fill="none" stroke-width="8.0" stroke-linecap="round" stroke-linejoin="round" />
<path d="M 103.0 122.5 L 103.0 122.0 L 102.0 121.5 L 101.5 121.5 L 102.0 122.0 L 103.0 124.0 L 103.5 126.0 L 104.5 127.5 L 104.5 128.0 " stroke="black" fill="none" stroke-width="8.0" stroke-linecap="round" stroke-linejoin="round" />
<path d="M 103.0 124.5 L 102.0 124.0 L 101.5 123.5 L 103.0 122.5 L 105.5 121.5 L 107.5 120.5 L 110.0 119.5 L 111.5 119.5 L 112.5 119.0 L 113.5 119.0 L 113.5 120.5 L 113.5 122.0 L 113.5 124.5 L 112.5 126.0 L 112.0 127.5 " stroke="black" fill="none" stroke-width="8.0" stroke-linecap="round" stroke-linejoin="round" />
<path d="M 105.5 131.0 L 105.0 131.5 L 104.5 131.5 L 105.0 131.5 L 107.0 131.0 L 109.5 130.0 L 110.0 130.0 " stroke="black" fill="none" stroke-width="8.0" stroke-linecap="round" stroke-linejoin="round" />
<path d="M 164.5 83.5 L 164.5 83.5 L 164.0 83.5 L 164.0 83.5 L 163.5 83.5 L 163.0 85.0 L 161.5 88.5 L 159.0 93.5 L 157.5 97.5 L 156.5 98.5 " stroke="black" fill="none" stroke-width="8.0" stroke-linecap="round" stroke-linejoin="round" />
<path d="M 164.0 91.5 L 163.0 91.5 L 162.0 92.0 L 162.0 92.0 L 162.0 92.0 L 163.0 92.0 L 164.5 91.0 L 166.5 90.0 L 167.5 90.0 L 169.0 89.5 L 171.0 89.0 L 173.0 89.0 L 177.5 88.5 L 182.5 87.5 L 185.5 87.5 L 187.5 87.0 L 188.5 87.0 L 189.0 86.5 L 189.0 86.5 L 189.0 86.5 L 189.5 86.5 L 189.5 86.5 L 190.0 86.5 L 190.5 86.0 L 191.0 86.0 " stroke="black" fill="none" stroke-width="8.0" stroke-linecap="round" stroke-linejoin="round" />
<path d="M 186.0 90.0 L 186.0 90.0 L 185.5 90.0 L 185.5 90.0 L 185.0 90.0 L 185.0 90.5 L 184.0 93.0 L 182.0 99.5 L 177.0 108.5 L 170.0 119.0 L 164.0 128.0 L 159.0 132.5 L 156.5 135.0 L 155.5 135.0 L 155.5 134.0 L 155.5 133.5 " stroke="black" fill="none" stroke-width="8.0" stroke-linecap="round" stroke-linejoin="round" />
<path d="M 160.5 109.0 L 160.5 109.0 L 159.5 109.0 L 159.0 108.5 L 159.5 108.5 L 163.5 110.5 L 169.5 114.5 L 178.0 121.0 L 187.0 127.0 L 194.5 130.5 L 199.5 131.0 L 202.0 130.0 L 203.0 129.0 " stroke="black" fill="none" stroke-width="8.0" stroke-linecap="round" stroke-linejoin="round" />
<path d="M 116.0 148.5 L 116.0 148.5 L 116.0 148.5 L 116.5 148.5 L 117.0 148.5 L 119.0 148.5 L 124.0 148.5 L 133.5 148.5 L 147.5 148.5 L 161.0 147.5 L 171.5 147.0 L 177.0 147.5 L 179.5 148.5 L 180.0 149.0 L 180.0 149.0 L 179.0 148.0 L 178.0 147.5 " stroke="black" fill="none" stroke-width="8.0" stroke-linecap="round" stroke-linejoin="round" />
<path d="M 112.0 151.0 L 112.0 151.0 L 112.5 150.5 L 113.0 150.5 L 113.0 150.5 L 113.0 150.5 L 113.0 151.5 L 113.0 153.5 L 113.5 157.0 L 113.5 161.5 L 114.0 166.0 L 114.5 169.5 L 114.5 172.0 L 115.0 174.0 L 115.0 176.0 L 115.0 178.0 L 115.0 179.0 L 115.0 180.0 L 115.0 180.5 L 115.0 181.0 L 115.5 181.0 L 115.5 181.0 L 115.5 181.5 L 115.5 181.5 L 116.0 181.5 L 116.0 181.5 L 116.5 182.0 L 117.0 182.0 L 118.0 182.0 L 119.0 182.0 L 120.5 182.0 L 123.0 182.0 L 126.5 182.0 L 130.5 182.0 L 136.0 182.0 L 142.0 182.0 L 148.0 181.5 L 152.5 181.5 L 156.0 182.0 L 159.5 182.0 L 162.5 182.0 L 166.0 182.0 L 169.5 181.0 L 172.0 181.0 L 174.5 181.0 L 176.5 181.0 L 179.0 181.5 L 181.5 181.5 L 183.0 181.5 L 184.0 181.5 L 185.0 182.0 L 185.5 182.5 L 186.0 183.0 L 186.5 183.0 L 187.0 183.5 L 187.5 184.0 L 187.5 184.5 L 188.0 185.0 L 188.0 186.0 L 188.5 187.0 L 188.5 188.0 L 188.5 189.5 L 189.0 191.5 L 189.0 193.5 L 189.5 195.5 L 189.5 198.0 L 190.0 201.0 L 190.0 203.5 L 190.0 206.0 L 190.0 208.5 L 190.0 210.5 L 189.5 212.5 L 189.5 214.0 L 188.5 215.5 L 187.5 216.5 L 186.0 218.0 L 183.5 218.5 L 181.5 219.0 L 179.5 218.5 L 178.0 217.5 L 178.0 217.0 " stroke="black" fill="none" stroke-width="8.0" stroke-linecap="round" stroke-linejoin="round" />
<path d="M 118.0 163.0 L 118.0 163.0 L 118.5 163.0 L 121.0 163.0 L 127.5 162.5 L 139.0 162.0 L 151.5 161.5 L 163.0 161.0 L 171.0 160.5 L 176.0 162.5 L 177.5 164.0 " stroke="black" fill="none" stroke-width="8.0" stroke-linecap="round" stroke-linejoin="round" />
<path d="M 120.5 174.0 L 120.5 174.0 L 120.5 174.0 L 122.0 174.0 L 127.0 173.5 L 137.0 172.0 L 149.0 171.0 L 160.0 170.5 L 169.0 170.5 L 175.5 171.0 L 177.0 171.0 " stroke="black" fill="none" stroke-width="8.0" stroke-linecap="round" stroke-linejoin="round" />
<path d="M 146.0 150.5 L 146.0 150.5 L 145.5 150.5 L 145.5 151.0 L 145.5 153.5 L 146.0 160.5 L 146.5 169.0 L 147.0 175.5 L 147.5 177.5 L 148.0 177.5 " stroke="black" fill="none" stroke-width="8.0" stroke-linecap="round" stroke-linejoin="round" />
<path d="M 117.0 196.0 L 117.0 196.0 L 117.5 196.5 L 118.0 196.5 L 118.0 198.0 L 117.5 201.5 L 115.5 206.0 L 113.5 209.5 L 112.0 211.5 L 111.5 212.0 " stroke="black" fill="none" stroke-width="8.0" stroke-linecap="round" stroke-linejoin="round" />
<path d="M 133.5 199.0 L 133.5 200.0 L 133.5 201.0 L 133.5 202.5 L 134.5 205.0 L 136.0 206.5 L 136.5 207.0 " stroke="black" fill="none" stroke-width="8.0" stroke-linecap="round" stroke-linejoin="round" />
<path d="M 148.5 198.0 L 148.0 198.5 L 147.0 199.0 L 147.0 199.0 L 147.5 200.0 L 150.0 202.0 L 152.5 203.5 L 155.0 204.5 " stroke="black" fill="none" stroke-width="8.0" stroke-linecap="round" stroke-linejoin="round" />
<path d="M 168.5 194.0 L 167.5 194.0 L 167.0 194.0 L 168.0 195.5 L 170.5 197.5 L 173.0 199.5 L 174.5 200.5 " stroke="black" fill="none" stroke-width="8.0" stroke-linecap="round" stroke-linejoin="round" />
</svg>