<svg xmlns="http://www.w3.org/2000/svg" width="300" height="300" viewBox="0 0 300 300">
<path d="M 117.0 116.5 L 116.5 116.5 L 116.0 117.5 L 115.5 117.5 L 115.5 117.5 L 117.0 116.5 L 120.0 116.0 L 124.0 115.0 L 129.0 114.0 L 134.0 113.0 L 137.0 112.5 L 137.5 112.5 L 137.0 112.5 " stroke="black" fill="none" stroke-width="6.0" stroke-linecap="round" stroke-linejoin="round" />
<path d="M 115.0 118.5 L 115.0 118.0 L 115.5 117.5 L 115.5 117.0 L 116.0 116.5 L 116.5 117.0 L 117.0 119.5 L 117.5 124.0 L 117.5 129.0 L 117.0 135.5 L 116.5 141.5 L 116.5 146.0 L 117.0 147.5 L 118.0 147.5 L 118.5 147.5 L 118.5 147.0 L 119.5 146.5 L 120.5 146.5 L 122.0 146.5 L 124.0 145.5 L 127.0 145.0 L 130.0 144.0 L 133.5 143.0 L 136.5 142.0 L 139.0 141.5 L 139.5 141.0 L 139.5 141.0 L 139.5 141.0 L 139.5 142.5 L 139.5 144.0 L 139.5 147.5 L 139.5 152.0 L 139.5 159.0 L 140.0 167.5 L 141.0 175.5 L 141.5 182.0 L 141.5 188.0 L 140.5 194.0 L 138.5 199.5 L 137.0 202.5 L 136.0 202.5 L 134.5 200.5 L 132.0 196.5 L 129.5 191.5 " stroke="black" fill="none" stroke-width="6.0" stroke-linecap="round" stroke-linejoin="round" />
<path d="M 121.0 126.0 L 118.5 126.5 L 118.5 126.5 L 120.5 126.5 L 124.5 126.0 L 128.0 125.5 L 131.0 125.5 L 132.5 125.0 " stroke="black" fill="none" stroke-width="6.0" stroke-linecap="round" stroke-linejoin="round" />
<path d="M 125.0 133.0 L 123.5 134.5 L 123.0 135.5 L 123.0 135.5 L 125.0 135.5 L 127.5 134.5 L 130.5 133.5 L 132.5 132.5 L 133.5 131.5 " stroke="black" fill="none" stroke-width="6.0" stroke-linecap="round" stroke-linejoin="round" />
<path d="M 129.0 115.5 L 129.0 116.0 L 129.0 117.0 L 128.5 117.0 L 128.5 118.0 L 128.5 121.5 L 128.5 128.5 L 128.5 136.5 L 128.5 141.5 L 128.5 143.5 " stroke="black" fill="none" stroke-width="6.0" stroke-linecap="round" stroke-linejoin="round" />
<path d="M 110.0 167.0 L 110.5 167.0 L 111.0 167.5 L 111.5 168.0 L 111.5 169.5 L 111.0 172.0 L 110.0 175.0 L 109.0 177.5 L 108.5 178.0 " stroke="black" fill="none" stroke-width="6.0" stroke-linecap="round" stroke-linejoin="round" />
<path d="M 119.5 166.0 L 119.0 166.5 L 119.0 166.5 L 119.0 166.5 L 119.5 167.5 L 121.0 168.5 L 122.0 170.0 L 122.5 170.5 " stroke="black" fill="none" stroke-width="6.0" stroke-linecap="round" stroke-linejoin="round" />
<path d="M 126.0 162.5 L 125.0 162.5 L 124.5 162.5 L 124.5 162.5 L 124.5 163.0 L 126.0 164.5 L 127.0 166.0 L 128.0 167.0 " stroke="black" fill="none" stroke-width="6.0" stroke-linecap="round" stroke-linejoin="round" />
<path d="M 130.5 158.5 L 130.5 159.0 L 130.5 159.5 L 131.0 160.0 L 131.5 160.0 L 132.5 160.5 L 133.0 161.5 L 133.5 162.0 " stroke="black" fill="none" stroke-width="6.0" stroke-linecap="round" stroke-linejoin="round" />
<path d="M 153.5 120.5 L 153.0 120.5 L 152.0 121.0 L 151.5 121.5 L 152.0 121.5 L 157.5 121.5 L 166.0 120.5 L 172.5 120.0 L 175.5 119.5 L 175.5 119.5 L 175.0 119.0 " stroke="black" fill="none" stroke-width="6.0" stroke-linecap="round" stroke-linejoin="round" />
<path d="M 166.0 109.5 L 165.5 109.5 L 165.0 109.5 L 164.5 109.0 L 164.0 108.5 L 164.0 108.5 L 164.5 111.5 L 164.5 116.5 L 162.5 124.0 L 159.0 131.5 L 155.0 137.0 L 152.5 139.5 L 152.0 140.0 L 152.0 139.5 L 152.0 139.0 " stroke="black" fill="none" stroke-width="6.0" stroke-linecap="round" stroke-linejoin="round" />
<path d="M 165.5 127.5 L 165.0 128.5 L 164.5 129.0 L 165.0 129.5 L 167.5 131.0 L 171.0 133.0 L 175.5 136.0 L 178.5 138.0 L 180.0 138.5 " stroke="black" fill="none" stroke-width="6.0" stroke-linecap="round" stroke-linejoin="round" />
<path d="M 152.5 151.5 L 152.5 151.5 L 152.0 152.0 L 152.0 152.0 L 152.0 152.0 L 154.5 151.0 L 159.0 150.0 L 166.0 149.5 L 173.5 149.0 L 178.0 149.0 L 179.5 149.0 L 179.0 148.5 " stroke="black" fill="none" stroke-width="6.0" stroke-linecap="round" stroke-linejoin="round" />
<path d="M 152.0 164.5 L 152.5 164.5 L 152.5 164.0 L 153.0 164.0 L 153.0 165.0 L 153.0 169.5 L 152.5 175.0 L 152.5 178.0 L 153.0 178.0 " stroke="black" fill="none" stroke-width="6.0" stroke-linecap="round" stroke-linejoin="round" />
<path d="M 154.0 166.5 L 154.0 166.5 L 154.0 166.0 L 154.5 165.5 L 155.5 164.5 L 158.0 164.5 L 161.0 164.5 L 163.5 165.5 L 164.5 167.5 L 164.0 170.5 L 162.0 174.0 L 160.5 176.0 L 159.5 176.5 " stroke="black" fill="none" stroke-width="6.0" stroke-linecap="round" stroke-linejoin="round" />
<path d="M 155.5 178.0 L 156.0 179.0 L 156.5 179.0 L 158.0 178.5 L 161.0 176.5 L 164.0 175.0 L 165.0 174.5 " stroke="black" fill="none" stroke-width="6.0" stroke-linecap="round" stroke-linejoin="round" />
<path d="M 172.5 152.0 L 172.0 153.0 L 172.0 153.5 L 172.0 155.0 L 172.0 159.5 L 172.5 167.5 L 173.0 175.5 L 173.5 183.0 L 174.0 190.0 L 174.5 195.0 L 174.5 197.0 L 173.5 197.0 L 170.5 196.5 L 167.0 194.5 L 164.0 193.0 L 163.0 191.5 " stroke="black" fill="none" stroke-width="6.0" stroke-linecap="round" stroke-linejoin="round" />
</svg>