<svg xmlns="http://www.w3.org/2000/svg" width="300" height="300" viewBox="0 0 300 300">
<path d="M 117.5 112.5 L 117.5 112.5 L 117.5 113.0 L 117.0 113.0 L 117.0 113.0 L 119.0 113.0 L 123.5 112.5 L 129.5 111.5 L 133.5 110.5 L 135.5 110.0 L 135.5 109.5 " stroke="black" fill="none" stroke-width="5.0" stroke-linecap="round" stroke-linejoin="round" />
<path d="M 116.5 117.5 L 116.5 116.5 L 117.0 116.0 L 117.0 116.0 L 117.0 116.0 L 117.0 117.0 L 117.0 120.0 L 117.0 125.5 L 117.0 131.5 L 117.0 138.0 L 117.0 143.5 L 117.5 146.0 L 118.0 146.5 L 119.0 147.0 L 120.0 147.0 L 122.0 147.0 L 125.0 146.0 L 127.5 144.5 L 131.0 143.0 L 134.0 141.5 L 137.0 140.0 L 139.5 139.5 L 140.5 139.0 L 141.0 139.5 L 141.5 140.0 L 141.5 141.0 L 141.5 143.0 L 141.5 145.5 L 141.5 149.0 L 141.5 154.0 L 141.5 160.0 L 141.5 166.5 L 141.5 173.5 L 141.5 180.5 L 141.0 186.0 L 140.5 188.5 L 139.0 189.5 L 137.0 189.5 L 134.0 187.5 L 131.0 184.5 L 129.0 181.5 " stroke="black" fill="none" stroke-width="5.0" stroke-linecap="round" stroke-linejoin="round" />
<path d="M 120.5 125.0 L 120.0 125.0 L 119.5 125.0 L 119.5 125.0 L 121.0 125.0 L 123.5 124.0 L 126.5 123.0 L 129.0 122.0 L 131.0 121.5 L 131.5 121.5 " stroke="black" fill="none" stroke-width="5.0" stroke-linecap="round" stroke-linejoin="round" />
<path d="M 123.5 137.5 L 121.5 138.5 L 121.0 138.5 L 121.5 138.5 L 124.0 138.0 L 127.5 137.0 L 130.5 136.5 L 132.5 135.5 L 133.5 135.0 " stroke="black" fill="none" stroke-width="5.0" stroke-linecap="round" stroke-linejoin="round" />
<path d="M 127.5 120.0 L 127.5 119.5 L 127.0 119.5 L 127.0 119.0 L 127.0 119.0 L 127.0 121.5 L 127.0 128.0 L 127.0 136.5 L 127.0 142.5 L 127.0 143.0 " stroke="black" fill="none" stroke-width="5.0" stroke-linecap="round" stroke-linejoin="round" />
<path d="M 110.0 164.0 L 110.5 163.5 L 111.0 162.5 L 111.5 162.5 L 111.5 162.0 L 111.5 162.5 L 110.5 164.5 L 109.0 168.0 L 108.0 170.5 L 107.0 172.0 L 107.0 172.5 " stroke="black" fill="none" stroke-width="5.0" stroke-linecap="round" stroke-linejoin="round" />
<path d="M 119.0 162.5 L 119.5 162.5 L 119.5 162.0 L 119.5 162.0 L 120.0 162.0 L 120.5 163.5 L 121.0 165.5 L 122.0 167.5 L 122.5 169.0 " stroke="black" fill="none" stroke-width="5.0" stroke-linecap="round" stroke-linejoin="round" />
<path d="M 126.0 161.5 L 126.0 161.5 L 125.0 161.5 L 125.0 162.0 L 125.0 163.0 L 126.0 164.0 L 127.0 165.5 L 127.5 165.5 " stroke="black" fill="none" stroke-width="5.0" stroke-linecap="round" stroke-linejoin="round" />
<path d="M 131.5 159.5 L 131.5 160.0 L 132.0 160.5 L 132.5 161.5 L 133.0 162.0 L 133.5 162.5 L 134.5 163.0 L 134.5 163.5 " stroke="black" fill="none" stroke-width="5.0" stroke-linecap="round" stroke-linejoin="round" />
<path d="M 149.5 110.0 L 149.5 110.0 L 148.5 110.5 L 148.0 110.5 L 147.5 110.5 L 148.0 110.5 L 150.0 110.5 L 153.5 110.5 L 158.0 110.5 L 162.5 110.0 L 166.0 109.0 L 167.0 108.5 L 167.0 108.0 " stroke="black" fill="none" stroke-width="5.0" stroke-linecap="round" stroke-linejoin="round" />
<path d="M 149.0 121.5 L 149.0 120.5 L 149.0 120.0 L 149.0 120.0 L 149.0 121.5 L 150.0 124.5 L 150.5 127.5 L 150.5 129.5 L 151.0 130.0 " stroke="black" fill="none" stroke-width="5.0" stroke-linecap="round" stroke-linejoin="round" />
<path d="M 150.5 122.0 L 150.5 122.0 L 151.0 122.0 L 151.0 121.5 L 152.0 121.5 L 154.5 121.5 L 158.0 121.0 L 162.5 121.0 L 165.5 120.5 L 168.0 120.0 L 169.0 119.5 L 169.5 119.5 L 169.5 120.5 L 169.5 123.0 L 169.5 125.5 L 169.5 128.5 L 169.5 130.5 " stroke="black" fill="none" stroke-width="5.0" stroke-linecap="round" stroke-linejoin="round" />
<path d="M 156.5 128.5 L 157.0 128.5 L 157.0 129.0 L 157.5 130.0 L 158.5 131.0 L 160.0 132.0 " stroke="black" fill="none" stroke-width="5.0" stroke-linecap="round" stroke-linejoin="round" />
<path d="M 177.0 110.0 L 177.0 110.0 L 177.5 111.0 L 178.0 111.0 L 179.5 111.5 L 182.5 111.5 L 186.0 111.0 L 189.0 110.5 L 191.0 110.5 L 192.0 110.0 L 192.5 110.0 " stroke="black" fill="none" stroke-width="5.0" stroke-linecap="round" stroke-linejoin="round" />
<path d="M 176.5 123.0 L 177.0 123.0 L 177.5 123.0 L 177.5 123.5 L 178.0 125.0 L 178.5 127.5 L 179.0 130.0 L 179.0 131.0 " stroke="black" fill="none" stroke-width="5.0" stroke-linecap="round" stroke-linejoin="round" />
<path d="M 177.5 124.0 L 177.5 123.5 L 178.0 122.5 L 178.5 122.5 L 179.5 122.0 L 181.5 121.5 L 184.5 121.5 L 188.0 120.5 L 190.5 120.0 L 192.0 120.0 L 193.5 120.0 L 194.0 120.5 L 194.5 121.5 L 194.5 122.5 L 195.0 124.0 L 195.5 125.0 L 195.5 126.5 L 195.5 128.0 L 195.5 129.0 L 195.5 130.5 L 195.0 131.5 " stroke="black" fill="none" stroke-width="5.0" stroke-linecap="round" stroke-linejoin="round" />
<path d="M 186.5 129.5 L 185.5 129.5 L 184.5 129.5 L 184.5 129.5 L 185.0 130.0 L 186.0 131.0 L 188.0 132.0 " stroke="black" fill="none" stroke-width="5.0" stroke-linecap="round" stroke-linejoin="round" />
<path d="M 172.5 139.0 L 172.5 139.0 L 172.5 139.0 L 172.5 139.0 L 173.0 139.5 L 174.0 140.5 L 175.5 142.0 L 177.0 143.0 L 177.0 143.5 " stroke="black" fill="none" stroke-width="5.0" stroke-linecap="round" stroke-linejoin="round" />
<path d="M 192.5 145.0 L 192.0 145.0 L 191.5 144.5 L 191.0 144.5 L 190.5 144.5 L 189.5 144.5 L 187.5 144.5 L 184.0 145.0 L 179.0 146.0 L 173.5 146.5 L 169.5 147.0 L 166.0 147.0 L 164.5 147.0 L 163.5 147.0 L 162.5 146.5 L 161.0 146.5 L 159.0 146.0 L 156.5 146.0 L 153.5 146.0 L 151.5 146.5 L 150.5 146.5 L 150.5 146.5 L 150.5 146.5 L 151.0 146.5 L 151.0 146.5 L 151.0 146.5 L 151.5 146.5 L 151.5 146.5 L 151.5 146.5 L 151.5 146.5 L 151.5 146.5 L 152.0 146.5 L 152.0 146.5 L 152.0 146.5 L 152.0 147.0 L 152.5 147.0 L 152.5 147.5 L 153.0 148.5 L 153.5 151.0 L 154.0 155.0 L 154.5 160.0 L 154.5 164.5 L 154.5 168.5 L 154.5 172.0 L 154.5 175.5 L 154.0 179.0 L 153.0 183.0 L 152.0 187.0 L 151.0 191.0 L 150.0 194.5 L 148.5 198.0 L 147.5 200.0 L 147.5 200.5 L 148.0 199.5 L 148.0 198.5 " stroke="black" fill="none" stroke-width="5.0" stroke-linecap="round" stroke-linejoin="round" />
<path d="M 159.0 159.0 L 159.0 159.5 L 159.0 160.0 L 159.0 160.0 L 161.0 160.0 L 165.5 159.5 L 172.0 158.5 L 179.0 157.5 L 185.0 156.5 L 189.0 156.0 L 190.0 156.0 L 190.0 156.5 L 189.5 157.0 L 189.5 157.5 L 189.5 158.5 L 189.5 160.5 L 189.0 163.5 L 188.0 168.0 L 187.5 172.0 L 187.0 175.0 L 186.5 175.5 L 186.5 175.5 L 186.5 175.5 " stroke="black" fill="none" stroke-width="5.0" stroke-linecap="round" stroke-linejoin="round" />
<path d="M 166.0 152.5 L 166.0 152.0 L 165.5 152.0 L 165.0 152.0 L 165.0 153.0 L 165.0 156.0 L 165.5 161.0 L 166.0 166.0 L 166.5 167.5 L 167.0 168.0 " stroke="black" fill="none" stroke-width="5.0" stroke-linecap="round" stroke-linejoin="round" />
<path d="M 175.0 151.5 L 175.5 152.0 L 176.0 152.0 L 176.5 152.5 L 176.5 153.5 L 176.5 156.0 L 176.5 159.5 L 176.0 163.5 L 175.5 167.0 L 175.0 168.5 " stroke="black" fill="none" stroke-width="5.0" stroke-linecap="round" stroke-linejoin="round" />
<path d="M 162.0 173.0 L 162.0 173.0 L 161.0 173.0 L 160.5 173.5 L 160.0 173.5 L 160.5 173.5 L 163.5 173.5 L 169.0 173.0 L 176.0 172.5 L 184.0 172.0 L 189.5 171.5 L 190.0 171.5 L 189.5 171.5 " stroke="black" fill="none" stroke-width="5.0" stroke-linecap="round" stroke-linejoin="round" />
<path d="M 170.0 182.0 L 170.0 182.0 L 170.0 182.5 L 169.5 183.0 L 168.5 184.0 L 167.5 186.5 L 165.5 189.5 L 163.5 190.5 " stroke="black" fill="none" stroke-width="5.0" stroke-linecap="round" stroke-linejoin="round" />
<path d="M 161.0 181.0 L 161.0 181.0 L 161.0 181.0 L 161.5 181.5 L 161.5 182.0 L 161.5 183.5 L 161.0 187.0 L 160.0 192.5 L 159.0 198.0 L 159.0 201.0 L 160.5 201.5 L 163.5 200.0 L 166.5 197.5 L 169.0 194.5 L 169.5 194.0 " stroke="black" fill="none" stroke-width="5.0" stroke-linecap="round" stroke-linejoin="round" />
<path d="M 187.5 182.5 L 187.5 182.5 L 187.0 182.5 L 187.0 182.5 L 186.5 183.0 L 185.5 185.0 L 184.0 187.0 L 183.0 188.5 " stroke="black" fill="none" stroke-width="5.0" stroke-linecap="round" stroke-linejoin="round" />
<path d="M 178.5 180.5 L 179.0 180.5 L 179.5 180.5 L 179.5 181.0 L 179.5 182.5 L 179.0 186.0 L 178.5 191.0 L 178.5 195.0 L 179.5 197.0 L 182.0 197.5 L 186.0 196.0 L 188.5 193.5 L 189.5 192.0 " stroke="black" fill="none" stroke-width="5.0" stroke-linecap="round" stroke-linejoin="round" />
</svg>