<svg xmlns="http://www.w3.org/2000/svg" width="300" height="300" viewBox="0 0 300 300">
<path d="M 140.5 110.5 L 140.5 110.5 L 140.5 110.5 L 140.5 110.5 L 140.5 110.5 L 141.0 111.0 L 141.0 113.5 L 141.0 120.0 L 140.5 128.5 L 140.0 134.5 L 140.0 136.0 L 140.5 133.5 " stroke="black" fill="none" stroke-width="6.0" stroke-linecap="round" stroke-linejoin="round" />
<path d="M 142.5 112.5 L 142.0 113.0 L 140.5 113.0 L 139.5 113.0 L 139.5 113.0 L 141.0 113.0 L 144.0 113.0 L 148.0 112.5 L 152.5 112.0 L 158.0 111.5 L 163.0 111.0 L 166.5 111.0 L 169.0 111.0 L 170.0 111.0 L 170.5 111.0 L 171.0 110.5 L 171.5 110.5 L 172.0 110.5 L 172.0 110.5 L 172.5 110.5 L 172.5 111.0 L 172.5 112.5 L 172.0 115.5 L 171.0 121.0 L 170.5 126.0 L 170.0 130.0 L 170.0 131.5 L 170.0 132.0 L 170.0 131.5 " stroke="black" fill="none" stroke-width="6.0" stroke-linecap="round" stroke-linejoin="round" />
<path d="M 156.5 126.0 L 156.5 126.0 L 156.5 126.0 L 156.0 126.0 L 156.0 126.0 L 156.0 127.0 L 156.0 129.5 L 156.0 133.5 L 156.0 136.0 L 156.0 136.0 " stroke="black" fill="none" stroke-width="6.0" stroke-linecap="round" stroke-linejoin="round" />
<path d="M 157.0 124.5 L 157.0 124.5 L 157.0 125.0 L 157.5 125.5 L 158.5 125.5 L 161.0 125.5 L 164.5 125.5 L 167.5 125.0 L 169.5 125.0 L 170.0 125.0 " stroke="black" fill="none" stroke-width="6.0" stroke-linecap="round" stroke-linejoin="round" />
<path d="M 134.0 142.0 L 135.0 141.0 L 135.0 140.5 L 135.0 140.5 L 135.0 142.5 L 133.5 146.5 L 132.5 150.0 L 131.5 152.5 L 131.5 153.5 L 131.5 154.0 " stroke="black" fill="none" stroke-width="6.0" stroke-linecap="round" stroke-linejoin="round" />
<path d="M 139.5 141.5 L 139.0 141.0 L 138.0 141.0 L 137.5 140.5 L 138.5 140.5 L 141.5 140.5 L 146.0 140.5 L 153.0 141.0 L 161.5 141.0 L 170.5 140.0 L 177.5 138.5 L 182.5 138.0 L 185.5 137.0 L 187.0 137.0 L 187.5 137.0 L 187.5 137.0 L 187.5 137.0 L 187.5 137.0 L 187.5 137.5 L 187.5 138.5 L 187.0 140.0 L 186.5 142.5 L 185.0 145.5 L 184.0 148.0 L 183.5 149.5 L 183.0 150.0 " stroke="black" fill="none" stroke-width="6.0" stroke-linecap="round" stroke-linejoin="round" />
<path d="M 152.0 150.5 L 152.0 151.0 L 152.0 151.5 L 152.0 152.5 L 152.0 154.0 L 152.0 160.0 L 151.5 170.5 L 151.0 182.5 L 150.5 189.0 L 151.0 190.0 L 151.0 187.5 L 151.0 186.5 " stroke="black" fill="none" stroke-width="6.0" stroke-linecap="round" stroke-linejoin="round" />
<path d="M 153.5 154.5 L 152.5 155.5 L 151.5 156.5 L 151.5 156.5 L 152.0 156.5 L 154.5 155.5 L 157.5 154.0 L 160.5 153.0 L 163.0 152.0 L 165.0 151.5 L 166.5 151.5 L 167.0 152.5 L 168.0 154.0 L 168.5 156.0 L 168.5 159.5 L 168.5 165.0 L 168.5 171.5 L 168.5 179.5 L 168.5 186.0 L 168.5 191.0 L 168.5 194.5 L 168.5 196.5 L 167.5 196.5 L 166.5 194.5 L 165.0 191.5 L 164.5 190.5 " stroke="black" fill="none" stroke-width="6.0" stroke-linecap="round" stroke-linejoin="round" />
<path d="M 157.5 166.0 L 156.5 165.5 L 156.0 165.5 L 155.5 165.5 L 156.0 166.0 L 157.5 167.5 L 159.5 168.5 L 160.5 169.5 L 161.0 169.5 " stroke="black" fill="none" stroke-width="6.0" stroke-linecap="round" stroke-linejoin="round" />
<path d="M 155.5 179.5 L 155.5 179.5 L 155.5 180.5 L 155.5 181.0 L 157.0 181.0 L 159.5 179.0 L 163.5 177.0 L 165.0 176.0 " stroke="black" fill="none" stroke-width="6.0" stroke-linecap="round" stroke-linejoin="round" />
</svg>