<svg xmlns="http://www.w3.org/2000/svg" width="300" height="300" viewBox="0 0 300 300">
<path d="M 116.5 119.0 L 116.5 117.0 L 116.5 116.0 L 116.0 115.0 L 116.0 115.0 L 116.0 116.5 L 116.0 122.5 L 116.0 130.5 L 115.5 138.0 L 115.5 142.0 L 115.5 142.0 L 116.0 139.5 " stroke="black" fill="none" stroke-width="8.0" stroke-linecap="round" stroke-linejoin="round" />
<path d="M 117.0 120.0 L 117.0 120.0 L 116.0 119.5 L 115.0 119.0 L 114.5 119.0 L 114.5 119.0 L 117.0 119.0 L 120.5 118.5 L 125.0 117.5 L 130.5 116.5 L 136.0 115.5 L 140.0 115.5 L 141.5 116.0 L 142.0 118.0 L 141.5 119.5 L 140.5 122.5 L 139.0 126.5 L 137.5 131.5 L 137.0 136.0 L 136.5 138.0 L 136.5 138.5 L 137.0 138.5 " stroke="black" fill="none" stroke-width="8.0" stroke-linecap="round" stroke-linejoin="round" />
<path d="M 125.5 130.0 L 125.5 130.0 L 125.5 129.5 L 125.5 129.0 L 125.5 129.0 L 125.5 129.5 L 125.5 132.5 L 125.5 136.5 L 125.5 140.0 L 125.5 142.0 L 126.0 141.0 L 126.5 138.5 " stroke="black" fill="none" stroke-width="8.0" stroke-linecap="round" stroke-linejoin="round" />
<path d="M 127.0 130.0 L 127.0 130.0 L 126.0 130.0 L 125.5 130.0 L 125.5 130.0 L 127.0 129.5 L 129.5 129.0 L 132.0 129.0 L 134.0 129.0 L 135.5 129.0 " stroke="black" fill="none" stroke-width="8.0" stroke-linecap="round" stroke-linejoin="round" />
<path d="M 111.5 147.0 L 111.5 146.5 L 111.5 146.0 L 111.5 145.5 L 111.5 145.5 L 111.5 147.0 L 111.0 149.0 L 111.0 151.5 L 110.5 154.0 L 110.5 155.0 " stroke="black" fill="none" stroke-width="8.0" stroke-linecap="round" stroke-linejoin="round" />
<path d="M 112.0 147.5 L 112.0 147.5 L 112.0 147.0 L 112.5 146.5 L 114.0 146.0 L 118.0 145.0 L 126.0 143.0 L 133.5 141.0 L 139.5 140.0 L 143.0 140.0 L 144.5 140.5 L 144.5 141.0 L 144.5 141.5 L 144.0 142.5 L 143.0 144.5 L 142.5 146.5 L 141.5 149.0 L 141.5 151.0 L 141.5 152.5 L 141.5 152.5 " stroke="black" fill="none" stroke-width="8.0" stroke-linecap="round" stroke-linejoin="round" />
<path d="M 120.0 160.0 L 120.0 160.0 L 119.5 159.5 L 119.5 159.5 L 119.0 159.5 L 119.0 160.5 L 119.0 166.0 L 118.5 176.5 L 118.0 188.0 L 117.0 196.0 L 117.0 197.5 L 117.0 195.0 L 117.0 190.0 " stroke="black" fill="none" stroke-width="8.0" stroke-linecap="round" stroke-linejoin="round" />
<path d="M 118.5 159.5 L 118.5 159.5 L 117.5 160.0 L 117.5 160.0 L 118.0 159.5 L 120.0 159.0 L 122.0 158.5 L 124.5 158.0 L 127.5 158.0 L 130.5 158.0 L 133.0 158.0 L 134.5 159.0 L 134.5 160.5 L 134.5 163.5 L 134.5 168.0 L 134.5 173.5 L 135.5 180.5 L 136.0 188.0 L 136.0 194.0 L 136.0 198.0 L 136.0 201.0 L 135.5 202.0 L 135.0 202.5 L 134.0 202.5 L 133.5 202.5 L 132.5 200.5 L 132.0 196.5 " stroke="black" fill="none" stroke-width="8.0" stroke-linecap="round" stroke-linejoin="round" />
<path d="M 122.0 176.0 L 121.5 176.5 L 119.0 177.0 L 118.0 177.5 L 118.0 177.0 L 120.5 176.0 L 123.5 175.0 L 127.0 174.5 L 130.5 174.5 L 132.5 174.5 " stroke="black" fill="none" stroke-width="8.0" stroke-linecap="round" stroke-linejoin="round" />
<path d="M 124.0 188.5 L 124.0 188.5 L 123.5 188.5 L 123.0 188.0 L 123.0 188.0 L 125.0 188.0 L 128.0 188.0 L 130.5 188.0 " stroke="black" fill="none" stroke-width="8.0" stroke-linecap="round" stroke-linejoin="round" />
<path d="M 156.5 114.5 L 156.5 115.5 L 156.5 116.5 L 157.0 117.5 L 158.5 119.0 L 160.0 120.0 L 162.0 121.0 L 163.0 121.5 L 164.0 122.0 L 164.5 122.0 " stroke="black" fill="none" stroke-width="8.0" stroke-linecap="round" stroke-linejoin="round" />
<path d="M 151.0 127.5 L 150.5 128.0 L 150.5 128.5 L 150.5 128.5 L 151.5 129.0 L 154.5 129.0 L 159.0 129.0 L 166.0 129.5 L 172.0 129.0 L 176.0 128.5 L 177.5 128.5 " stroke="black" fill="none" stroke-width="8.0" stroke-linecap="round" stroke-linejoin="round" />
<path d="M 163.0 132.5 L 163.0 132.5 L 163.0 132.5 L 163.0 132.0 L 163.5 132.0 L 163.5 132.0 L 163.5 133.0 L 163.5 136.5 L 162.0 142.5 L 159.0 150.0 L 156.0 155.5 L 154.5 156.5 L 154.5 156.0 L 154.5 155.0 L 154.5 154.5 L 154.5 154.5 L 155.0 154.5 L 156.5 154.0 L 158.5 153.5 L 161.5 152.5 L 164.0 152.0 L 166.5 152.0 L 167.5 152.0 " stroke="black" fill="none" stroke-width="8.0" stroke-linecap="round" stroke-linejoin="round" />
<path d="M 175.5 144.5 L 175.5 144.0 L 175.0 143.5 L 175.0 143.5 L 174.5 143.5 L 174.0 145.5 L 172.0 149.5 L 169.0 156.0 L 164.0 163.5 L 159.0 169.0 L 155.5 171.5 L 153.0 172.5 L 152.0 172.5 L 152.0 172.5 L 153.5 171.0 L 155.5 169.5 " stroke="black" fill="none" stroke-width="8.0" stroke-linecap="round" stroke-linejoin="round" />
<path d="M 177.0 160.0 L 178.0 159.5 L 178.5 159.0 L 179.0 159.0 L 179.0 159.0 L 179.0 159.5 L 177.5 162.5 L 175.0 167.5 L 171.0 174.0 L 165.0 181.5 L 159.0 186.5 L 156.0 188.0 L 155.5 188.5 L 155.5 188.5 L 156.0 187.5 L 157.0 185.5 " stroke="black" fill="none" stroke-width="8.0" stroke-linecap="round" stroke-linejoin="round" />
<path d="M 171.0 181.0 L 170.5 181.0 L 169.5 181.5 L 169.0 182.0 L 170.5 182.5 L 173.5 183.5 L 177.5 185.0 L 181.5 187.5 L 186.0 190.5 L 188.5 192.0 " stroke="black" fill="none" stroke-width="8.0" stroke-linecap="round" stroke-linejoin="round" />
</svg>