<svg xmlns="http://www.w3.org/2000/svg" width="300" height="300" viewBox="0 0 300 300">
<path d="M 121.0 132.5 L 120.0 132.5 L 119.5 132.5 L 118.5 132.5 L 118.0 132.5 L 118.0 132.5 L 119.0 132.0 L 122.0 131.5 L 127.0 131.0 L 132.5 130.0 L 138.0 128.5 L 140.5 128.0 L 141.0 128.0 L 140.0 128.0 " stroke="black" fill="none" stroke-width="6.0" stroke-linecap="round" stroke-linejoin="round" />
<path d="M 117.0 146.5 L 117.0 146.5 L 116.0 146.5 L 115.0 146.5 L 114.5 146.5 L 115.5 146.0 L 119.0 145.0 L 124.5 143.5 L 130.5 142.5 L 136.0 141.0 L 139.5 140.5 L 140.0 141.0 L 139.5 141.0 " stroke="black" fill="none" stroke-width="6.0" stroke-linecap="round" stroke-linejoin="round" />
<path d="M 125.0 149.0 L 125.0 149.0 L 125.0 148.5 L 125.5 147.5 L 125.5 147.0 L 126.0 146.5 L 126.0 146.5 L 126.5 148.5 L 124.0 155.0 L 119.5 164.5 L 116.0 171.0 L 114.5 173.0 L 114.5 172.5 L 115.5 171.5 L 117.5 170.0 L 120.5 168.5 L 124.0 167.5 L 128.0 166.0 L 132.5 164.0 L 135.5 163.5 L 137.5 163.0 L 137.5 164.0 L 138.0 164.5 " stroke="black" fill="none" stroke-width="6.0" stroke-linecap="round" stroke-linejoin="round" />
<path d="M 137.5 156.0 L 137.5 156.0 L 137.0 156.0 L 136.5 156.0 L 136.5 156.0 L 136.5 157.0 L 138.0 160.5 L 140.0 165.0 L 142.0 169.5 L 143.0 172.5 L 144.0 174.0 " stroke="black" fill="none" stroke-width="6.0" stroke-linecap="round" stroke-linejoin="round" />
<path d="M 162.0 119.0 L 162.5 118.5 L 163.0 117.5 L 163.5 116.5 L 163.5 116.0 L 163.5 115.5 L 163.5 116.0 L 162.0 118.5 L 160.0 121.0 L 158.5 123.5 L 157.0 125.5 L 157.0 126.0 " stroke="black" fill="none" stroke-width="6.0" stroke-linecap="round" stroke-linejoin="round" />
<path d="M 148.5 129.0 L 148.5 129.5 L 148.0 130.0 L 147.5 130.0 L 147.5 130.5 L 148.0 133.5 L 149.0 138.5 L 149.5 143.0 L 150.0 146.5 L 150.5 148.0 " stroke="black" fill="none" stroke-width="6.0" stroke-linecap="round" stroke-linejoin="round" />
<path d="M 153.0 130.5 L 153.0 130.5 L 152.0 130.5 L 151.0 130.0 L 151.0 130.0 L 152.5 130.0 L 156.5 129.5 L 162.0 128.5 L 168.0 127.5 L 172.5 127.0 L 174.5 127.0 L 175.5 128.0 L 175.5 129.0 L 175.5 130.5 L 175.0 132.5 L 174.0 136.0 L 173.0 140.5 L 172.0 144.5 L 171.5 147.5 L 171.5 149.5 L 171.5 150.0 " stroke="black" fill="none" stroke-width="6.0" stroke-linecap="round" stroke-linejoin="round" />
<path d="M 154.5 142.5 L 154.0 142.5 L 153.0 142.0 L 152.5 141.5 L 153.0 141.5 L 156.5 141.5 L 161.0 141.0 L 165.5 141.0 L 169.5 141.0 " stroke="black" fill="none" stroke-width="6.0" stroke-linecap="round" stroke-linejoin="round" />
<path d="M 152.0 152.0 L 152.0 152.5 L 151.5 153.5 L 151.0 153.5 L 152.5 153.5 L 156.0 153.0 L 161.0 152.0 L 166.5 151.5 L 169.5 151.0 " stroke="black" fill="none" stroke-width="6.0" stroke-linecap="round" stroke-linejoin="round" />
<path d="M 161.5 131.5 L 161.5 131.5 L 161.5 132.0 L 161.5 132.5 L 161.5 133.5 L 161.5 136.5 L 161.5 141.5 L 161.0 147.0 L 161.0 149.5 " stroke="black" fill="none" stroke-width="6.0" stroke-linecap="round" stroke-linejoin="round" />
<path d="M 157.0 160.5 L 157.0 160.0 L 157.5 159.0 L 158.0 158.0 L 158.0 157.5 L 158.5 157.5 L 158.5 159.0 L 158.0 165.0 L 154.5 175.5 L 149.0 188.0 L 144.5 195.5 L 143.5 196.0 L 144.5 194.5 L 146.0 192.5 " stroke="black" fill="none" stroke-width="6.0" stroke-linecap="round" stroke-linejoin="round" />
<path d="M 166.5 161.0 L 166.5 160.5 L 166.5 160.0 L 166.5 159.5 L 166.5 159.5 L 166.5 160.0 L 166.5 163.5 L 165.5 169.0 L 164.0 176.0 L 163.0 184.0 L 163.0 189.0 L 164.5 190.5 L 168.0 190.5 L 172.5 189.5 L 177.5 188.5 L 183.5 188.5 L 189.5 188.5 L 192.5 188.5 L 193.0 187.5 L 193.0 186.0 L 193.0 184.0 L 192.5 182.5 L 192.0 182.0 L 191.5 181.0 L 191.0 180.0 L 190.5 179.0 L 190.0 178.5 L 190.0 178.5 L 190.0 178.5 " stroke="black" fill="none" stroke-width="6.0" stroke-linecap="round" stroke-linejoin="round" />
<path d="M 179.0 158.5 L 179.5 158.5 L 180.0 157.5 L 180.0 157.5 L 180.0 157.5 L 180.0 158.0 L 179.0 161.0 L 177.5 165.0 L 176.0 169.5 L 175.0 173.0 L 175.0 174.0 L 175.0 174.5 L 175.0 174.0 L 176.5 173.5 L 178.0 173.0 L 180.0 172.5 L 182.0 172.0 L 184.0 171.5 L 185.5 171.0 " stroke="black" fill="none" stroke-width="6.0" stroke-linecap="round" stroke-linejoin="round" />
<path d="M 187.5 165.0 L 187.5 164.5 L 187.0 163.5 L 186.5 163.5 L 187.0 163.5 L 188.0 164.5 L 189.0 166.5 L 190.0 168.0 L 190.5 169.0 " stroke="black" fill="none" stroke-width="6.0" stroke-linecap="round" stroke-linejoin="round" />
</svg>