<svg xmlns="http://www.w3.org/2000/svg" width="300" height="300" viewBox="0 0 300 300">
<path d="M 124.5 114.5 L 123.5 114.5 L 123.0 114.5 L 123.0 115.5 L 122.5 118.5 L 121.0 124.0 L 120.0 129.0 L 119.0 132.5 L 118.5 133.5 " stroke="black" fill="none" stroke-width="6.0" stroke-linecap="round" stroke-linejoin="round" />
<path d="M 121.0 125.5 L 121.0 126.0 L 120.5 126.0 L 120.5 126.0 L 123.0 126.0 L 126.5 125.5 L 129.5 124.5 L 132.0 124.0 L 134.0 123.0 L 134.5 123.0 L 135.0 123.0 L 135.0 125.0 L 135.0 128.0 L 134.0 131.0 L 133.5 133.5 L 133.5 134.0 " stroke="black" fill="none" stroke-width="6.0" stroke-linecap="round" stroke-linejoin="round" />
<path d="M 117.5 145.0 L 117.5 145.0 L 117.5 144.5 L 118.0 145.0 L 118.5 149.5 L 119.5 156.0 L 120.0 162.0 L 120.0 164.5 L 120.0 164.5 " stroke="black" fill="none" stroke-width="6.0" stroke-linecap="round" stroke-linejoin="round" />
<path d="M 119.5 142.5 L 119.5 143.0 L 119.0 143.0 L 119.5 143.5 L 122.5 143.5 L 127.0 143.0 L 131.5 142.0 L 135.0 140.0 L 138.0 139.0 L 139.5 139.0 L 140.5 139.5 L 141.5 141.0 L 142.5 142.5 L 142.5 144.5 L 142.5 147.0 L 142.5 150.5 L 141.5 155.0 L 140.5 159.5 L 140.0 163.0 L 139.5 165.5 " stroke="black" fill="none" stroke-width="6.0" stroke-linecap="round" stroke-linejoin="round" />
<path d="M 123.0 154.0 L 122.5 154.5 L 121.5 155.0 L 121.5 155.0 L 124.0 155.0 L 128.0 154.5 L 131.5 154.0 L 134.0 152.5 " stroke="black" fill="none" stroke-width="6.0" stroke-linecap="round" stroke-linejoin="round" />
<path d="M 130.0 142.5 L 129.5 143.5 L 129.5 144.5 L 129.5 147.5 L 129.5 154.0 L 129.5 161.0 L 129.5 165.0 L 129.0 167.0 " stroke="black" fill="none" stroke-width="6.0" stroke-linecap="round" stroke-linejoin="round" />
<path d="M 121.0 169.0 L 120.5 169.0 L 120.0 169.0 L 120.0 169.0 L 123.0 168.5 L 128.0 168.0 L 132.5 167.0 L 134.5 167.0 " stroke="black" fill="none" stroke-width="6.0" stroke-linecap="round" stroke-linejoin="round" />
<path d="M 120.5 176.5 L 120.5 176.5 L 120.5 176.5 L 120.5 177.0 L 120.0 178.5 L 118.5 182.5 L 117.5 188.5 L 117.0 192.0 L 116.5 192.0 " stroke="black" fill="none" stroke-width="6.0" stroke-linecap="round" stroke-linejoin="round" />
<path d="M 127.0 178.5 L 127.0 179.0 L 127.0 179.5 L 127.0 180.0 L 127.0 180.5 L 128.0 181.5 L 129.0 183.5 L 130.0 185.5 L 130.0 186.0 " stroke="black" fill="none" stroke-width="6.0" stroke-linecap="round" stroke-linejoin="round" />
<path d="M 137.0 176.0 L 137.5 177.5 L 137.5 178.5 L 138.5 179.5 L 139.5 180.5 L 141.0 181.5 L 141.5 181.5 " stroke="black" fill="none" stroke-width="6.0" stroke-linecap="round" stroke-linejoin="round" />
<path d="M 146.0 174.0 L 146.0 174.0 L 145.0 174.0 L 145.0 174.5 L 145.0 175.0 L 146.0 176.0 L 147.0 177.0 L 148.0 177.5 " stroke="black" fill="none" stroke-width="6.0" stroke-linecap="round" stroke-linejoin="round" />
<path d="M 159.5 106.0 L 160.0 106.0 L 160.5 106.0 L 161.5 106.5 L 163.0 107.5 L 164.5 109.0 L 166.0 111.0 " stroke="black" fill="none" stroke-width="6.0" stroke-linecap="round" stroke-linejoin="round" />
<path d="M 150.0 121.5 L 149.5 122.0 L 149.0 122.0 L 150.5 122.5 L 155.0 122.5 L 162.0 121.5 L 168.5 121.0 L 173.0 121.0 L 175.0 121.0 L 175.5 121.5 L 175.5 122.0 " stroke="black" fill="none" stroke-width="6.0" stroke-linecap="round" stroke-linejoin="round" />
<path d="M 154.0 132.0 L 154.5 131.5 L 155.0 131.0 L 155.0 131.0 L 155.5 131.5 L 155.5 135.5 L 156.0 140.0 L 156.0 144.0 L 156.0 144.5 " stroke="black" fill="none" stroke-width="6.0" stroke-linecap="round" stroke-linejoin="round" />
<path d="M 155.0 132.5 L 155.0 132.5 L 155.5 132.5 L 156.5 132.0 L 158.5 131.5 L 162.0 131.0 L 167.0 130.5 L 171.0 130.5 L 173.0 130.5 L 174.5 130.5 L 175.0 132.0 L 175.0 134.0 L 174.5 136.5 L 173.0 140.0 L 171.5 142.5 L 170.0 144.5 L 169.5 145.5 " stroke="black" fill="none" stroke-width="6.0" stroke-linecap="round" stroke-linejoin="round" />
<path d="M 159.0 145.5 L 159.0 145.5 L 159.5 145.5 L 160.0 146.0 L 161.0 146.0 L 164.5 146.0 L 168.5 145.0 L 171.0 144.5 " stroke="black" fill="none" stroke-width="6.0" stroke-linecap="round" stroke-linejoin="round" />
<path d="M 167.0 151.0 L 167.0 150.5 L 167.0 149.0 L 167.0 148.5 L 167.0 148.5 L 167.5 152.0 L 168.0 158.5 L 168.5 167.0 L 169.0 175.0 L 168.5 180.5 L 168.0 182.0 L 166.5 182.0 L 164.5 181.0 L 162.0 179.0 L 160.0 176.5 " stroke="black" fill="none" stroke-width="6.0" stroke-linecap="round" stroke-linejoin="round" />
<path d="M 158.5 156.5 L 158.5 157.0 L 158.5 157.5 L 158.5 158.5 L 156.5 160.5 L 154.5 163.5 L 153.0 165.5 L 152.0 166.5 " stroke="black" fill="none" stroke-width="6.0" stroke-linecap="round" stroke-linejoin="round" />
<path d="M 178.0 158.5 L 179.5 160.0 L 181.5 161.0 L 184.0 161.5 L 187.0 163.0 L 189.5 166.0 L 191.0 168.0 " stroke="black" fill="none" stroke-width="6.0" stroke-linecap="round" stroke-linejoin="round" />
</svg>