<svg xmlns="http://www.w3.org/2000/svg" width="300" height="300" viewBox="0 0 300 300">
<path d="M 127.0 111.5 L 127.0 111.5 L 126.5 112.5 L 126.5 113.0 L 126.5 114.5 L 127.5 118.0 L 128.0 122.5 L 128.0 126.5 L 128.5 127.5 " stroke="black" fill="none" stroke-width="6.0" stroke-linecap="round" stroke-linejoin="round" />
<path d="M 132.0 110.5 L 131.0 111.0 L 130.0 111.5 L 129.5 111.5 L 129.5 111.5 L 129.5 111.5 L 131.5 111.5 L 134.0 111.5 L 139.5 111.0 L 149.5 110.5 L 161.0 109.0 L 169.5 109.0 L 173.0 109.5 L 174.0 110.5 L 174.5 110.5 L 174.5 110.5 L 174.5 110.5 L 174.5 110.5 L 174.5 110.5 L 174.0 111.5 L 173.0 113.5 L 172.0 117.5 L 170.5 121.5 L 169.5 125.0 L 169.0 126.0 L 169.0 126.5 " stroke="black" fill="none" stroke-width="6.0" stroke-linecap="round" stroke-linejoin="round" />
<path d="M 117.0 134.0 L 117.0 134.0 L 117.5 134.0 L 118.5 134.0 L 120.0 134.0 L 125.5 133.0 L 136.5 131.5 L 151.5 130.0 L 165.5 128.5 L 177.0 127.0 L 181.5 127.0 L 181.0 128.0 L 178.5 128.5 " stroke="black" fill="none" stroke-width="6.0" stroke-linecap="round" stroke-linejoin="round" />
<path d="M 152.0 101.0 L 152.5 101.0 L 153.0 101.0 L 153.0 101.0 L 153.5 101.0 L 154.0 102.0 L 153.5 106.5 L 151.0 115.5 L 146.5 127.5 L 142.0 137.5 L 138.0 145.0 L 134.5 148.5 L 132.5 149.5 L 131.5 149.5 L 131.5 148.5 L 131.5 148.0 " stroke="black" fill="none" stroke-width="6.0" stroke-linecap="round" stroke-linejoin="round" />
<path d="M 151.5 134.0 L 151.0 134.5 L 150.5 134.5 L 150.5 135.0 L 151.5 135.5 L 155.0 136.5 L 161.5 139.0 L 168.5 141.5 L 173.5 143.5 L 174.5 144.0 " stroke="black" fill="none" stroke-width="6.0" stroke-linecap="round" stroke-linejoin="round" />
<path d="M 150.0 145.5 L 150.0 145.5 L 150.5 145.0 L 150.5 144.5 L 150.5 144.5 L 150.5 145.0 L 149.5 147.5 L 148.0 150.5 L 147.5 152.0 " stroke="black" fill="none" stroke-width="6.0" stroke-linecap="round" stroke-linejoin="round" />
<path d="M 138.0 157.0 L 138.0 157.0 L 138.0 158.0 L 138.5 158.0 L 140.5 158.0 L 144.5 157.5 L 150.0 155.5 L 156.5 153.0 L 162.0 151.5 L 164.5 151.5 L 165.0 152.5 L 165.0 154.5 L 165.0 157.0 L 164.0 159.5 L 163.0 163.0 L 161.5 166.5 L 160.5 169.5 L 159.5 170.5 " stroke="black" fill="none" stroke-width="6.0" stroke-linecap="round" stroke-linejoin="round" />
<path d="M 140.5 173.5 L 140.5 174.0 L 140.5 174.5 L 141.0 174.5 L 144.0 173.0 L 149.5 171.5 L 154.5 170.5 L 158.0 170.5 L 158.5 170.5 " stroke="black" fill="none" stroke-width="6.0" stroke-linecap="round" stroke-linejoin="round" />
<path d="M 138.0 158.5 L 138.0 158.5 L 138.5 158.5 L 138.5 158.5 L 138.5 160.5 L 138.5 165.0 L 137.5 171.5 L 136.0 178.5 L 134.5 185.0 L 134.0 189.0 L 134.0 191.0 L 135.5 191.0 L 137.0 191.0 L 140.0 190.0 L 144.0 189.5 L 150.0 188.5 L 157.5 187.0 L 165.0 186.0 L 171.5 186.0 L 175.0 186.0 L 176.0 187.0 L 176.5 187.5 L 176.5 188.5 L 176.5 189.0 L 176.5 190.0 L 176.5 191.5 L 176.5 194.5 L 176.5 198.0 L 176.5 203.0 L 176.5 209.0 L 176.0 214.5 L 176.0 218.5 L 175.5 219.5 L 174.0 219.5 L 170.0 217.5 L 165.5 214.5 L 163.0 213.0 " stroke="black" fill="none" stroke-width="6.0" stroke-linecap="round" stroke-linejoin="round" />
<path d="M 138.5 184.0 L 138.5 183.5 L 138.5 182.5 L 139.5 182.0 L 145.0 181.0 L 154.5 179.0 L 165.0 177.5 L 172.5 177.5 L 173.5 177.5 " stroke="black" fill="none" stroke-width="6.0" stroke-linecap="round" stroke-linejoin="round" />
<path d="M 140.5 166.0 L 140.5 166.0 L 140.5 166.0 L 142.0 165.0 L 145.0 164.0 L 149.5 162.5 L 153.0 161.5 L 156.5 161.5 L 158.5 161.5 " stroke="black" fill="none" stroke-width="6.0" stroke-linecap="round" stroke-linejoin="round" />
<path d="M 129.5 199.5 L 129.5 199.5 L 130.0 199.5 L 130.5 199.5 L 130.5 200.0 L 130.5 202.5 L 129.0 205.5 L 128.5 208.5 L 128.0 210.5 " stroke="black" fill="none" stroke-width="6.0" stroke-linecap="round" stroke-linejoin="round" />
<path d="M 139.5 200.5 L 139.0 201.0 L 138.5 201.0 L 138.5 201.5 L 138.5 202.0 L 139.0 203.0 L 140.0 204.5 L 142.0 206.0 " stroke="black" fill="none" stroke-width="6.0" stroke-linecap="round" stroke-linejoin="round" />
<path d="M 148.5 199.0 L 148.5 199.5 L 148.0 200.5 L 148.0 201.0 L 148.5 201.5 L 149.5 202.0 L 150.5 203.0 L 151.0 203.5 " stroke="black" fill="none" stroke-width="6.0" stroke-linecap="round" stroke-linejoin="round" />
<path d="M 157.0 195.5 L 157.5 196.5 L 158.5 197.0 L 159.0 197.5 L 160.5 198.5 L 162.5 200.0 L 164.0 201.0 L 165.5 202.0 " stroke="black" fill="none" stroke-width="6.0" stroke-linecap="round" stroke-linejoin="round" />
</svg>