<svg xmlns="http://www.w3.org/2000/svg" width="300" height="300" viewBox="0 0 300 300">
<path d="M 119.0 121.0 L 119.0 120.0 L 119.0 119.0 L 118.5 119.0 L 118.5 119.5 L 120.0 123.0 L 121.0 129.0 L 122.0 135.0 L 122.5 139.0 L 123.0 140.0 L 123.0 139.0 " stroke="black" fill="none" stroke-width="6.0" stroke-linecap="round" stroke-linejoin="round" />
<path d="M 120.0 118.5 L 120.0 118.5 L 118.5 118.0 L 118.0 118.0 L 118.0 118.0 L 120.0 118.0 L 124.0 117.0 L 131.0 115.5 L 139.0 114.5 L 146.0 114.0 L 151.5 114.0 L 154.0 114.0 L 154.5 114.0 L 154.5 114.0 L 154.5 114.0 L 154.0 114.0 L 154.0 115.0 L 153.5 117.5 L 153.0 122.0 L 151.5 128.5 L 150.5 134.0 L 149.5 137.5 L 149.5 139.0 L 149.5 138.5 " stroke="black" fill="none" stroke-width="6.0" stroke-linecap="round" stroke-linejoin="round" />
<path d="M 127.0 126.0 L 127.0 125.5 L 126.0 125.5 L 126.0 125.0 L 126.0 125.0 L 127.5 126.5 L 129.5 128.5 L 131.0 130.0 L 131.5 130.5 " stroke="black" fill="none" stroke-width="6.0" stroke-linecap="round" stroke-linejoin="round" />
<path d="M 145.0 119.5 L 145.0 119.0 L 145.0 118.5 L 144.5 118.5 L 144.5 118.5 L 144.0 120.5 L 143.0 124.0 L 142.5 128.0 L 141.5 130.5 " stroke="black" fill="none" stroke-width="6.0" stroke-linecap="round" stroke-linejoin="round" />
<path d="M 124.5 141.0 L 123.5 141.0 L 123.0 140.5 L 123.0 140.5 L 126.0 140.0 L 131.5 138.0 L 138.0 136.5 L 143.5 135.0 L 147.0 135.0 L 148.0 136.0 " stroke="black" fill="none" stroke-width="6.0" stroke-linecap="round" stroke-linejoin="round" />
<path d="M 127.0 153.0 L 126.5 154.0 L 126.0 154.5 L 126.0 154.5 L 126.5 154.5 L 129.5 154.0 L 134.0 152.5 L 137.5 151.5 L 141.0 151.0 L 143.5 149.5 " stroke="black" fill="none" stroke-width="6.0" stroke-linecap="round" stroke-linejoin="round" />
<path d="M 135.5 121.0 L 135.5 120.5 L 136.0 119.5 L 136.0 119.0 L 136.0 119.0 L 136.0 120.5 L 136.0 125.5 L 136.0 133.5 L 135.5 147.0 L 135.5 160.0 L 135.5 165.5 L 135.5 167.5 L 135.5 167.0 " stroke="black" fill="none" stroke-width="6.0" stroke-linecap="round" stroke-linejoin="round" />
<path d="M 124.0 172.5 L 124.0 172.5 L 123.5 173.0 L 123.5 173.0 L 123.0 173.0 L 124.5 173.0 L 128.5 171.5 L 134.0 170.0 L 140.5 168.5 L 145.5 167.5 L 146.5 167.5 " stroke="black" fill="none" stroke-width="6.0" stroke-linecap="round" stroke-linejoin="round" />
<path d="M 121.0 187.5 L 121.0 187.5 L 120.5 187.0 L 120.5 187.0 L 120.0 188.0 L 119.0 190.0 L 118.5 193.0 L 118.0 195.0 L 118.0 195.5 " stroke="black" fill="none" stroke-width="6.0" stroke-linecap="round" stroke-linejoin="round" />
<path d="M 131.5 186.5 L 131.5 186.0 L 131.5 185.5 L 131.5 185.5 L 132.0 185.5 L 132.5 186.5 L 134.0 188.5 L 135.0 189.5 L 135.0 190.0 " stroke="black" fill="none" stroke-width="6.0" stroke-linecap="round" stroke-linejoin="round" />
<path d="M 145.0 181.5 L 145.0 181.5 L 144.0 181.5 L 144.0 181.5 L 144.0 182.5 L 144.5 183.5 L 146.0 185.0 L 148.0 187.0 L 149.0 188.0 " stroke="black" fill="none" stroke-width="6.0" stroke-linecap="round" stroke-linejoin="round" />
<path d="M 154.5 181.0 L 155.5 181.5 L 156.0 181.5 L 157.0 182.5 L 157.5 183.5 L 158.5 185.0 L 158.5 185.0 " stroke="black" fill="none" stroke-width="6.0" stroke-linecap="round" stroke-linejoin="round" />
<path d="M 170.0 117.5 L 170.0 117.0 L 170.0 116.5 L 170.5 116.5 L 171.0 117.0 L 171.5 121.0 L 172.5 128.5 L 172.5 137.5 L 172.5 143.5 L 172.5 145.0 L 172.5 144.0 " stroke="black" fill="none" stroke-width="6.0" stroke-linecap="round" stroke-linejoin="round" />
<path d="M 174.0 133.5 L 174.0 133.5 L 173.5 134.0 L 173.5 134.0 L 173.5 134.0 L 175.5 134.0 L 180.0 133.0 L 184.5 132.0 L 186.5 131.5 " stroke="black" fill="none" stroke-width="6.0" stroke-linecap="round" stroke-linejoin="round" />
<path d="M 160.0 151.0 L 160.0 150.5 L 160.0 150.0 L 160.0 150.0 L 160.0 150.0 L 160.5 153.0 L 161.0 159.0 L 161.5 166.0 L 161.5 171.0 L 161.5 173.0 L 162.0 171.5 " stroke="black" fill="none" stroke-width="6.0" stroke-linecap="round" stroke-linejoin="round" />
<path d="M 162.5 151.5 L 162.0 152.5 L 161.0 153.0 L 161.0 153.5 L 161.0 153.5 L 162.5 153.0 L 165.0 152.5 L 169.0 152.0 L 174.5 150.5 L 180.0 149.0 L 185.0 148.0 L 187.5 147.5 L 187.5 147.5 L 187.0 148.0 L 186.5 148.5 L 186.0 150.0 L 185.5 152.0 L 185.5 155.0 L 185.0 159.5 L 184.5 164.5 L 183.5 168.5 L 183.0 170.5 L 183.0 171.0 L 183.0 171.0 " stroke="black" fill="none" stroke-width="6.0" stroke-linecap="round" stroke-linejoin="round" />
<path d="M 161.5 175.5 L 160.5 176.5 L 160.5 176.5 L 161.5 176.5 L 167.0 175.0 L 174.5 174.0 L 182.0 174.0 L 183.5 173.5 " stroke="black" fill="none" stroke-width="6.0" stroke-linecap="round" stroke-linejoin="round" />
</svg>