<svg xmlns="http://www.w3.org/2000/svg" width="300" height="300" viewBox="0 0 300 300">
<path d="M 124.5 201.5 L 123.5 202.0 L 123.0 202.5 L 123.0 202.5 L 124.0 202.5 L 125.5 202.5 L 127.5 202.0 L 129.0 202.0 L 131.0 202.0 L 132.5 202.0 L 134.0 202.0 L 136.5 202.0 L 139.5 202.0 L 143.0 202.0 L 147.5 201.5 L 152.0 201.0 L 156.0 200.5 L 160.0 200.0 L 163.5 200.0 L 166.5 200.0 L 170.0 200.0 L 173.0 200.0 L 176.5 200.0 L 180.0 199.5 L 182.5 199.5 L 184.0 199.5 L 185.5 199.5 L 186.5 199.5 L 187.0 199.0 L 188.0 199.0 L 189.0 199.0 L 190.0 199.0 L 190.5 199.0 L 192.0 199.0 L 193.5 199.0 L 195.0 199.0 L 196.5 199.0 L 197.5 199.0 L 199.0 199.0 L 200.0 199.0 L 201.0 199.0 L 201.5 199.0 L 202.0 199.0 L 202.0 199.0 L 202.5 199.0 L 202.5 199.0 L 203.0 199.0 L 203.5 199.0 L 204.0 199.0 L 204.0 199.0 L 204.5 199.0 L 204.5 199.0 L 204.5 199.0 L 205.0 199.0 L 205.0 199.0 L 205.0 199.0 L 205.0 199.0 L 205.0 199.5 L 205.0 199.5 L 205.0 200.5 L 205.0 201.5 L 205.0 203.0 L 204.5 205.0 L 204.5 207.5 L 204.5 209.5 L 204.5 212.0 L 204.5 213.5 L 204.5 215.0 L 204.5 216.5 L 204.5 217.5 L 204.5 218.5 L 205.0 219.0 L 205.0 219.5 L 205.0 220.0 L 205.0 220.0 L 205.0 220.5 L 205.0 221.0 " stroke="black" fill="none" stroke-width="7.0" stroke-linecap="round" stroke-linejoin="round" />
</svg>