<svg xmlns="http://www.w3.org/2000/svg" width="300" height="300" viewBox="0 0 300 300">
<path d="M 90.0 87.5 L 90.0 87.5 L 90.5 87.5 L 90.5 87.0 L 90.5 87.0 L 90.5 87.0 L 91.0 87.0 L 91.0 87.0 L 91.0 88.0 L 91.0 89.5 L 91.0 92.0 L 91.0 95.0 L 91.0 97.5 L 91.0 100.0 L 91.0 102.5 L 91.0 104.0 L 91.0 106.0 L 91.0 107.0 L 91.0 107.5 L 91.0 108.5 L 91.0 109.0 L 91.0 110.0 L 91.0 111.0 L 91.0 112.0 L 91.0 112.5 L 91.0 113.0 L 91.0 113.0 L 91.0 113.0 L 91.0 113.0 L 91.0 113.0 L 91.0 113.0 L 91.5 113.0 L 92.0 113.0 L 93.0 113.0 L 94.0 113.0 L 95.0 113.0 L 96.0 113.0 L 97.5 113.0 L 99.0 113.0 L 100.0 113.0 L 101.5 113.0 L 103.0 113.0 L 105.0 113.0 L 107.5 113.0 L 110.0 113.0 L 113.0 113.0 L 115.5 113.0 L 118.5 113.0 L 121.0 113.0 L 124.0 113.5 L 126.5 113.5 L 129.0 113.5 L 132.0 114.0 L 134.5 114.0 L 137.5 114.0 L 141.0 114.0 L 144.5 114.0 L 148.5 114.0 L 152.5 114.0 L 156.5 114.0 L 160.5 114.0 L 165.0 114.0 L 169.5 114.0 L 174.0 113.5 L 178.5 113.5 L 182.5 113.5 L 187.0 113.5 L 191.5 113.5 L 194.5 113.0 L 199.5 113.0 L 203.5 113.0 L 206.5 113.0 L 209.5 113.0 L 212.0 112.5 L 214.0 112.5 L 215.5 112.5 L 216.5 112.5 L 216.5 112.5 L 216.5 112.5 L 216.5 112.5 L 216.0 112.5 L 216.0 112.5 L 216.0 112.5 L 216.0 112.5 L 216.0 112.5 L 216.0 112.5 L 215.5 112.5 L 215.5 112.5 L 215.5 112.5 L 215.5 112.5 L 215.5 112.5 L 215.5 112.5 L 215.5 112.5 L 215.5 112.0 L 215.5 111.5 L 215.0 110.5 L 215.0 109.0 L 215.0 107.5 L 215.0 106.0 L 214.5 104.5 L 214.5 103.0 L 214.5 101.0 L 214.5 99.5 L 214.5 98.0 L 214.0 96.0 L 214.0 94.5 L 214.0 93.5 L 214.0 92.5 L 213.5 92.0 L 213.5 91.0 L 213.5 90.0 L 213.5 89.5 L 213.5 88.5 L 213.5 88.5 L 213.5 88.0 L 213.5 88.0 L 213.5 87.5 L 213.5 87.0 L 213.5 87.0 L 213.5 86.5 L 213.5 86.5 L 213.5 86.5 L 213.5 86.5 L 213.5 86.5 L 213.5 86.5 L 213.5 86.5 L 213.5 86.5 L 213.5 86.5 L 213.5 86.5 L 213.5 87.0 L 213.5 87.0 L 213.0 87.5 L 212.5 88.0 L 212.0 88.5 L 211.5 89.0 L 211.0 89.5 L 211.0 90.5 L 210.5 91.0 L 210.0 91.5 L 209.5 92.0 L 209.0 92.5 L 209.0 93.0 L 208.5 93.5 L 207.5 93.5 L 207.0 94.0 L 206.0 94.5 L 204.5 95.0 L 203.0 95.5 L 202.0 96.0 L 200.5 96.0 L 199.5 96.5 L 198.5 97.0 L 197.5 97.5 L 196.5 98.0 L 196.0 98.0 L 195.0 98.5 L 194.5 99.0 L 193.5 99.5 L 192.5 100.0 L 191.5 100.0 L 191.5 100.5 L 191.0 100.5 L 190.5 100.5 L 190.5 100.5 L 189.5 100.5 L 188.5 100.5 L 187.0 100.5 L 184.5 100.5 L 182.0 101.0 L 179.0 101.0 L 175.5 101.0 L 172.5 101.0 L 169.5 100.5 L 166.5 100.0 L 163.5 100.0 L 161.0 100.0 L 158.0 100.0 L 155.5 100.0 L 153.0 100.0 L 151.0 100.0 L 149.0 99.5 L 147.0 99.5 L 145.0 99.0 L 142.5 99.0 L 140.5 98.5 L 138.5 98.5 L 136.0 98.0 L 134.0 98.0 L 132.5 97.5 L 130.5 97.5 L 128.5 97.0 L 126.5 96.5 L 124.0 96.0 L 121.5 96.0 L 119.0 95.5 L 117.0 95.0 L 115.0 95.0 L 114.0 94.5 L 113.0 94.5 L 112.5 94.5 L 112.0 94.0 L 111.5 94.0 L 110.5 94.0 L 110.0 94.0 L 109.0 93.5 L 108.5 93.5 L 107.5 93.0 L 106.5 93.0 L 105.5 92.5 L 104.5 92.5 L 103.5 92.0 L 102.5 92.0 L 102.0 91.5 L 101.0 91.5 L 100.0 91.0 L 99.5 91.0 L 98.5 90.5 L 98.0 90.0 L 97.0 90.0 L 96.0 89.5 L 95.5 89.0 L 95.0 88.5 L 95.0 88.5 L 94.5 88.0 L 94.0 88.0 L 94.0 87.5 L 94.0 87.5 L 93.5 87.0 L 93.5 87.0 L 93.5 87.0 L 93.0 86.5 L 93.0 86.5 L 93.0 86.5 L 93.0 86.5 L 93.0 86.0 L 93.0 86.0 L 93.0 86.0 L 93.0 86.0 L 93.0 86.0 L 93.0 86.5 L 93.5 87.0 L 94.0 89.0 L 95.0 92.0 L 96.0 95.5 L 97.0 98.5 L 97.5 100.0 L 97.5 100.5 L 97.5 100.5 L 97.5 100.0 L 97.5 99.0 L 97.0 97.0 L 97.0 94.0 L 96.5 92.0 L 96.5 90.5 L 96.5 90.0 L 96.5 90.0 L 96.5 92.5 L 97.0 97.5 L 97.5 103.0 L 98.0 108.0 L 98.5 109.5 L 98.5 109.5 L 98.5 107.5 L 98.5 104.0 L 98.5 99.5 L 98.5 96.5 L 98.5 94.5 L 98.5 93.5 L 99.0 93.5 L 99.0 95.0 L 99.0 98.5 L 99.0 103.0 L 100.0 107.0 L 100.5 109.5 L 101.0 109.5 L 101.0 108.5 L 101.5 104.5 L 102.0 100.0 L 102.5 96.5 L 103.0 95.0 L 103.0 95.0 L 103.5 96.5 L 105.0 100.5 L 106.5 105.5 L 107.5 109.0 L 108.5 110.0 L 108.5 109.0 L 108.5 105.5 L 108.5 101.5 L 108.0 98.5 L 108.0 96.5 L 108.0 96.0 L 108.0 96.5 L 109.0 99.5 L 110.5 104.0 L 112.5 107.5 L 113.5 109.0 L 114.0 109.0 L 114.0 107.5 L 114.0 104.0 L 113.0 100.5 L 112.5 98.0 L 112.0 96.0 L 112.0 96.0 L 112.5 97.5 L 114.5 101.5 L 117.0 105.5 L 119.0 107.5 L 120.5 108.0 L 120.5 107.5 L 120.5 105.5 L 120.0 103.0 L 118.5 100.5 L 118.0 98.5 L 117.5 98.0 L 117.5 98.5 L 120.0 101.5 L 123.5 105.0 L 127.0 108.0 L 129.0 109.0 L 129.5 109.5 L 129.5 108.5 L 128.5 106.5 L 126.5 103.5 L 124.0 101.0 L 122.5 99.0 L 121.5 98.5 L 121.5 98.5 L 123.0 100.5 L 127.5 104.0 L 132.0 106.5 L 137.0 108.5 L 141.0 108.5 L 142.5 108.5 L 142.0 107.5 L 140.0 105.0 L 137.0 102.5 L 134.0 101.0 L 132.5 100.0 L 132.0 100.0 L 131.5 100.0 L 133.0 101.0 L 136.5 103.5 L 142.0 106.0 L 148.0 108.5 L 153.5 110.0 L 156.0 110.5 L 156.5 110.5 L 155.5 110.0 L 153.0 108.5 L 150.0 106.5 L 147.5 105.0 L 145.0 104.0 L 143.0 103.5 L 142.5 103.5 L 143.0 103.5 L 147.0 105.5 L 153.0 107.0 L 160.5 108.5 L 167.5 109.5 L 171.0 110.0 L 172.0 110.0 L 171.0 109.5 L 169.5 108.0 L 166.5 105.0 L 164.0 103.0 L 163.0 102.5 L 162.5 102.0 L 162.5 103.0 L 165.0 105.5 L 169.0 107.5 L 174.0 108.5 L 178.5 108.5 L 182.0 108.5 L 183.5 108.0 L 184.0 107.5 L 183.0 107.0 L 180.5 106.0 L 177.0 104.5 L 173.0 103.0 L 169.5 102.0 L 167.5 102.0 L 167.0 102.0 L 167.5 102.0 L 171.0 102.5 L 176.5 103.5 L 183.0 103.5 L 189.0 103.5 L 192.5 102.5 L 192.5 102.5 L 189.5 102.5 L 184.0 102.0 L 176.5 102.0 L 169.5 101.5 L 164.0 101.5 L 161.0 102.0 L 161.5 102.5 L 165.0 104.0 L 171.5 105.5 L 179.5 105.5 L 189.5 105.0 L 198.5 103.0 L 204.5 102.0 L 207.0 102.0 L 207.0 102.0 L 205.5 102.5 L 202.5 104.0 L 199.5 105.5 L 197.0 107.0 L 196.0 108.5 L 196.0 109.5 L 199.0 110.0 L 203.5 109.0 L 208.5 106.5 L 211.0 104.0 L 211.5 102.5 L 211.5 101.5 L 211.0 101.5 L 210.0 101.5 L 210.0 101.5 L 209.5 102.0 L 209.0 102.5 L 209.0 103.0 L 209.0 103.0 L 209.0 103.0 L 210.5 102.0 L 211.5 100.5 L 212.5 99.0 L 213.0 98.0 L 213.5 97.5 L 213.0 98.0 L 212.0 100.0 L 210.5 102.0 L 209.5 103.5 L 209.0 104.5 L 209.5 104.0 L 210.5 101.5 L 212.0 98.5 L 212.5 96.0 L 212.5 94.0 L 212.5 93.0 L 212.5 93.0 L 212.0 93.5 L 211.0 95.5 L 209.5 98.0 L 208.5 100.5 L 207.5 102.0 L 207.5 102.5 L 207.5 102.5 L 209.0 101.0 L 210.0 99.5 L 211.0 98.0 L 211.0 97.5 L 210.0 97.5 L 206.5 100.0 L 201.5 104.0 L 197.5 107.5 L 195.0 109.5 L 194.5 110.0 L 194.5 110.0 L 196.0 109.5 L 198.0 108.5 L 200.0 107.5 L 201.5 106.5 L 202.5 106.0 L 203.0 105.5 L 201.0 105.5 L 197.0 106.5 L 191.5 108.0 L 185.5 108.5 L 181.0 109.5 L 179.5 109.5 L 179.5 109.5 L 181.5 109.5 L 185.0 109.0 L 189.5 107.5 L 192.5 106.5 L 193.0 106.0 L 191.5 106.0 L 186.5 105.5 L 180.0 105.5 L 172.5 105.5 L 165.0 105.5 L 159.5 105.0 L 156.0 104.0 L 154.5 103.0 L 154.0 102.5 L 154.0 102.5 L 154.0 102.5 L 154.5 102.5 L 154.5 102.5 L 154.5 102.5 " stroke="black" fill="none" stroke-width="7.0" stroke-linecap="round" stroke-linejoin="round" />
</svg>