<svg xmlns="http://www.w3.org/2000/svg" width="300" height="300" viewBox="0 0 300 300">
<path d="M 118.0 160.5 L 118.0 160.5 L 117.0 161.0 L 117.0 161.5 L 117.0 161.5 L 118.5 162.0 L 122.0 163.5 L 126.0 166.0 L 130.0 168.0 L 134.0 170.5 L 138.0 172.5 L 142.5 175.0 L 147.0 177.5 L 151.0 180.0 L 155.0 182.0 L 159.0 183.5 L 162.0 185.0 L 165.0 186.5 L 168.0 187.5 L 170.5 188.5 L 173.0 189.5 L 174.5 190.5 L 175.0 191.0 L 175.0 191.0 L 175.0 191.0 L 175.0 191.0 L 175.0 191.0 L 175.0 191.0 L 175.0 191.0 L 175.0 191.0 L 174.5 191.0 L 174.5 191.0 L 174.0 191.0 L 172.5 191.5 L 170.5 192.5 L 167.5 194.0 L 163.5 196.0 L 159.5 198.0 L 155.5 200.0 L 151.5 202.0 L 147.5 204.0 L 143.5 206.0 L 139.0 208.0 L 134.5 209.5 L 130.5 211.0 L 127.0 212.0 L 124.5 213.0 L 123.0 213.5 L 122.0 214.0 L 122.0 214.0 L 121.5 214.5 L 121.0 214.5 L 120.5 214.5 L 120.0 214.5 L 120.0 214.5 " stroke="black" fill="none" stroke-width="8.0" stroke-linecap="round" stroke-linejoin="round" />
</svg>