<svg xmlns="http://www.w3.org/2000/svg" width="300" height="300" viewBox="0 0 300 300">
<path d="M 135.0 148.5 L 135.0 148.0 L 135.0 147.5 L 134.5 146.5 L 133.5 146.5 L 132.0 146.5 L 130.5 147.5 L 128.5 150.5 L 126.5 156.0 L 126.0 162.0 L 126.5 167.0 L 129.5 169.5 L 132.5 169.5 L 136.5 166.0 L 139.0 161.0 L 140.5 155.5 L 140.5 151.0 L 139.0 148.5 L 138.0 147.5 L 137.0 147.0 L 136.0 147.5 L 135.5 148.0 " stroke="black" fill="none" stroke-width="8.0" stroke-linecap="round" stroke-linejoin="round" />
<path d="M 161.0 147.0 L 161.0 147.0 L 161.5 146.5 L 162.0 146.5 L 162.0 146.5 L 162.0 146.5 L 161.5 147.0 L 160.0 150.0 L 158.0 155.0 L 154.0 163.0 L 148.5 172.0 L 143.0 181.0 L 139.0 187.0 L 136.5 191.5 L 135.5 194.0 L 135.0 195.0 L 135.0 195.0 L 135.0 195.0 L 135.0 193.5 " stroke="black" fill="none" stroke-width="8.0" stroke-linecap="round" stroke-linejoin="round" />
<path d="M 168.5 176.0 L 168.0 176.0 L 168.0 176.0 L 167.5 176.0 L 167.0 175.5 L 166.5 175.5 L 165.5 175.0 L 164.0 175.0 L 162.0 176.0 L 159.5 179.0 L 157.0 183.0 L 156.5 188.0 L 157.0 191.5 L 159.5 194.0 L 163.5 194.5 L 167.5 193.0 L 171.0 189.5 L 171.5 185.0 L 172.0 180.5 L 170.0 176.0 L 168.0 173.5 L 166.0 172.5 L 164.5 172.5 L 164.0 174.0 " stroke="black" fill="none" stroke-width="8.0" stroke-linecap="round" stroke-linejoin="round" />
</svg>