<svg xmlns="http://www.w3.org/2000/svg" width="300" height="300" viewBox="0 0 300 300">
<path d="M 142.5 112.5 L 142.5 112.5 L 142.5 112.5 L 142.5 112.5 L 142.5 113.0 L 143.5 115.0 L 144.5 120.5 L 145.5 129.5 L 145.0 140.5 L 144.5 151.5 L 144.0 158.5 L 144.5 161.5 L 145.5 161.5 L 145.5 161.5 L 145.5 161.0 L 145.5 161.0 L 146.0 160.0 L 148.0 157.5 L 150.0 153.5 L 153.0 149.0 L 156.5 144.0 L 159.5 139.5 L 161.0 137.0 L 162.0 136.0 L 162.5 136.0 L 163.0 136.0 L 163.5 136.0 L 163.5 136.0 L 163.5 136.0 L 163.5 136.0 L 163.5 136.0 L 163.5 136.5 L 162.5 138.5 L 160.0 142.0 L 156.5 147.0 L 152.5 152.5 L 150.5 155.5 L 150.5 156.5 L 150.5 156.5 L 152.0 156.5 L 154.0 156.5 L 158.5 157.5 L 163.0 159.0 L 167.0 161.0 L 170.5 163.0 L 172.5 165.0 L 172.5 166.0 L 172.5 166.5 " stroke="black" fill="none" stroke-width="6.0" stroke-linecap="round" stroke-linejoin="round" />
</svg>