<svg xmlns="http://www.w3.org/2000/svg" width="300" height="300" viewBox="0 0 300 300">
<path d="M 122.0 125.0 L 122.0 125.0 L 120.5 125.0 L 120.5 125.0 L 120.5 125.0 L 120.5 125.5 L 121.5 127.0 L 122.5 129.5 L 124.0 133.0 L 125.0 137.5 L 126.0 144.0 L 127.0 152.5 L 128.5 161.5 L 129.5 169.5 L 130.5 176.0 L 131.0 180.5 L 131.5 183.0 L 132.0 184.0 L 132.0 184.0 L 132.0 183.5 L 132.0 183.0 L 132.0 181.5 L 132.5 178.5 L 133.5 175.0 L 135.0 170.5 L 137.0 164.0 L 140.0 155.5 L 142.0 148.0 L 143.0 142.0 L 144.0 137.0 L 144.5 133.0 L 145.0 130.0 L 145.0 128.0 L 145.5 127.5 L 145.5 127.0 L 146.0 126.5 L 146.0 126.0 L 146.5 125.5 L 147.0 125.0 L 147.0 124.5 L 147.5 124.5 L 147.5 124.0 L 147.5 123.5 L 147.5 123.5 L 147.5 123.5 L 147.5 123.5 L 147.5 123.5 L 147.5 123.5 L 147.5 124.0 L 147.5 124.5 L 148.0 126.0 L 148.0 128.0 L 148.5 130.5 L 149.5 133.5 L 150.0 137.0 L 151.0 141.0 L 152.5 145.0 L 154.0 148.5 L 155.0 152.0 L 156.0 155.0 L 157.0 157.5 L 157.5 160.5 L 158.5 163.5 L 159.5 167.0 L 160.0 170.0 L 161.0 173.0 L 162.0 176.0 L 163.0 178.5 L 164.0 181.0 L 164.5 183.0 L 165.5 184.5 L 166.0 186.0 L 166.5 186.0 L 166.5 186.0 L 166.5 186.0 L 166.5 186.0 L 166.5 185.5 L 166.5 185.0 L 166.5 183.0 L 166.5 180.0 L 166.5 175.5 L 166.5 170.0 L 167.0 164.0 L 167.5 158.5 L 168.0 153.5 L 169.5 148.5 L 170.5 144.5 L 172.0 140.5 L 173.0 137.0 L 173.5 134.0 L 174.0 131.5 L 174.5 129.0 L 174.5 127.5 L 174.5 126.5 L 174.5 126.5 L 174.5 126.5 L 174.5 126.5 L 174.5 126.0 L 174.5 126.0 L 174.5 126.0 L 174.5 126.0 L 174.5 126.0 L 174.5 126.0 " stroke="black" fill="none" stroke-width="6.0" stroke-linecap="round" stroke-linejoin="round" />
<path d="M 112.0 147.0 L 112.0 147.0 L 112.0 147.0 L 112.5 147.0 L 112.5 147.0 L 113.0 147.0 L 114.0 147.0 L 116.5 147.0 L 121.5 146.5 L 130.5 145.5 L 141.0 144.5 L 150.0 144.0 L 157.5 143.5 L 164.0 143.0 L 169.0 143.0 L 173.0 143.0 L 175.5 143.0 L 177.5 143.5 L 179.5 144.0 L 182.0 144.0 L 184.5 143.5 L 186.5 143.0 L 187.5 143.0 L 188.0 143.0 L 188.0 143.0 L 188.0 143.0 L 188.5 143.0 L 189.0 143.0 L 189.0 143.0 L 189.5 143.0 L 189.5 143.0 L 189.5 143.0 L 189.5 143.0 L 189.5 143.0 L 189.5 143.0 L 189.5 143.0 L 189.5 143.0 L 189.5 143.0 " stroke="black" fill="none" stroke-width="6.0" stroke-linecap="round" stroke-linejoin="round" />
</svg>