<svg xmlns="http://www.w3.org/2000/svg" width="300" height="300" viewBox="0 0 300 300">
<path d="M 150.5 106.0 L 150.5 106.0 L 150.5 106.0 L 150.5 106.0 L 150.5 105.5 L 150.5 105.0 L 150.5 104.5 L 150.5 104.0 L 150.5 104.0 L 151.0 104.0 L 151.0 107.0 L 150.5 113.0 L 150.0 120.0 L 150.0 123.0 L 150.0 123.0 " stroke="black" fill="none" stroke-width="6.0" stroke-linecap="round" stroke-linejoin="round" />
<path d="M 136.5 128.5 L 136.5 128.5 L 137.0 128.0 L 137.0 127.5 L 137.5 127.0 L 137.5 127.0 L 137.5 127.5 L 137.5 131.0 L 137.5 136.0 L 137.5 141.5 L 137.5 144.5 L 137.5 143.5 L 138.0 138.0 " stroke="black" fill="none" stroke-width="6.0" stroke-linecap="round" stroke-linejoin="round" />
<path d="M 141.0 125.5 L 141.0 125.5 L 140.0 125.5 L 139.5 125.5 L 139.0 125.5 L 139.0 125.5 L 139.0 125.5 L 141.5 126.0 L 144.5 126.5 L 148.5 126.5 L 153.0 127.0 L 158.5 127.5 L 163.5 127.5 L 167.0 128.0 L 170.0 128.0 L 171.0 128.0 L 170.5 128.0 L 170.0 128.0 L 170.0 128.0 L 170.0 128.0 L 170.0 128.0 L 169.5 128.5 L 169.5 128.5 L 169.0 129.0 L 168.5 129.5 L 168.5 130.5 L 168.0 131.5 L 167.5 132.5 L 167.0 134.5 L 166.5 137.5 L 165.5 141.5 L 164.5 146.0 L 164.0 150.5 L 163.0 154.5 L 162.0 158.5 L 160.5 163.5 L 158.5 168.0 L 156.5 172.0 L 154.0 175.0 L 151.0 178.0 L 148.5 180.0 L 147.0 180.5 L 146.0 181.0 L 145.5 180.5 " stroke="black" fill="none" stroke-width="6.0" stroke-linecap="round" stroke-linejoin="round" />
</svg>