<svg xmlns="http://www.w3.org/2000/svg" width="300" height="300" viewBox="0 0 300 300">
<path d="M 134.5 141.0 L 134.5 141.0 L 134.0 141.0 L 133.5 141.0 L 133.0 141.0 L 133.5 141.0 L 134.5 141.0 L 137.5 141.0 L 140.5 141.5 L 144.0 141.5 L 148.0 142.0 L 151.5 142.5 L 154.0 143.5 L 156.5 143.5 L 158.0 143.5 L 158.0 143.5 L 158.0 143.5 L 158.0 143.5 L 158.0 143.5 L 158.0 143.5 L 158.0 143.5 L 158.0 143.5 L 158.0 143.5 L 158.0 143.5 L 158.0 143.5 L 158.0 144.0 L 158.0 144.0 L 158.0 144.0 L 158.0 145.0 L 157.5 146.5 L 157.0 149.5 L 156.5 153.5 L 156.0 157.5 L 155.0 161.5 L 155.0 164.5 L 154.5 167.0 L 154.0 170.0 L 153.5 172.5 L 153.5 175.0 L 153.0 176.5 L 153.0 177.5 L 153.0 179.0 L 153.0 179.5 L 153.0 180.5 L 153.0 181.0 L 153.0 181.0 L 153.0 181.5 L 153.0 181.5 L 153.0 181.5 L 153.0 181.5 L 153.0 181.5 L 153.0 181.5 L 153.0 181.5 L 153.0 181.5 L 153.0 181.5 L 153.0 181.5 L 153.0 181.5 L 153.0 181.5 L 153.0 181.0 L 153.0 181.0 " stroke="black" fill="none" stroke-width="6.0" stroke-linecap="round" stroke-linejoin="round" />
<path d="M 138.0 160.5 L 137.5 160.5 L 137.5 161.0 L 137.0 161.0 L 136.5 161.0 L 136.5 161.0 L 136.0 161.0 L 136.5 161.0 L 142.0 161.0 L 145.5 161.0 L 149.0 160.5 L 151.5 160.5 L 152.5 160.5 L 153.0 160.5 L 153.0 160.0 L 152.5 160.0 L 152.5 160.0 " stroke="black" fill="none" stroke-width="6.0" stroke-linecap="round" stroke-linejoin="round" />
<path d="M 134.0 177.0 L 134.0 177.5 L 134.0 178.0 L 134.0 178.5 L 134.0 178.5 L 134.0 179.0 L 134.5 179.0 L 136.0 179.0 L 138.5 179.0 L 142.5 179.0 L 146.5 179.0 L 149.5 178.5 L 152.0 178.5 L 152.5 178.0 L 152.5 177.5 L 152.5 177.5 " stroke="black" fill="none" stroke-width="6.0" stroke-linecap="round" stroke-linejoin="round" />
</svg>