<svg xmlns="http://www.w3.org/2000/svg" width="300" height="300" viewBox="0 0 300 300">
<path d="M 152.5 142.0 L 152.5 141.5 L 152.5 140.5 L 152.0 140.0 L 151.0 139.5 L 148.5 139.5 L 144.5 141.5 L 140.5 144.5 L 137.5 148.5 L 137.0 153.0 L 138.5 158.0 L 142.5 161.0 L 147.0 162.5 L 151.5 162.5 L 155.5 160.5 L 159.5 156.0 L 162.5 149.0 L 164.0 141.5 L 164.5 135.0 L 164.0 130.5 L 163.0 126.5 L 162.5 122.5 L 162.0 120.5 L 162.0 120.0 L 162.0 120.0 L 161.5 120.5 L 161.5 122.5 L 161.0 125.5 L 161.0 130.5 L 161.0 138.0 L 162.5 150.0 L 165.0 161.0 L 167.0 167.5 L 167.5 169.5 L 168.5 170.5 L 168.5 170.0 " stroke="black" fill="none" stroke-width="6.0" stroke-linecap="round" stroke-linejoin="round" />
</svg>