<svg xmlns="http://www.w3.org/2000/svg" width="300" height="300" viewBox="0 0 300 300">
<path d="M 140.5 130.5 L 140.0 130.5 L 139.5 131.0 L 139.5 131.0 L 139.5 131.0 L 140.5 131.0 L 143.0 131.0 L 146.5 131.0 L 151.0 130.5 L 156.5 129.5 L 163.0 128.5 L 166.5 128.0 L 167.5 128.0 L 167.5 128.0 L 167.5 128.0 L 167.0 128.0 L 167.0 128.0 L 167.0 128.0 L 167.0 128.0 L 167.0 128.0 L 167.0 128.0 L 167.0 128.0 L 167.0 128.0 L 167.0 128.0 L 167.0 128.0 L 167.0 128.5 L 167.0 128.5 L 167.0 128.5 L 167.0 128.5 L 167.0 129.0 L 167.0 130.0 L 167.0 132.5 L 166.0 136.5 L 164.5 141.5 L 163.5 146.5 L 162.5 150.0 L 161.5 153.0 L 160.0 156.5 L 158.5 159.5 L 156.5 163.0 L 154.5 166.0 L 153.0 167.5 L 151.0 169.0 L 149.5 170.0 L 148.0 170.5 L 147.0 171.0 L 147.0 171.0 L 146.5 171.0 L 146.5 171.0 " stroke="black" fill="none" stroke-width="6.0" stroke-linecap="round" stroke-linejoin="round" />
</svg>