<svg xmlns="http://www.w3.org/2000/svg" width="300" height="300" viewBox="0 0 300 300">
<path d="M 148.0 127.5 L 148.0 127.5 L 148.0 127.5 L 148.0 127.5 L 148.0 127.5 L 148.0 127.5 L 148.0 127.5 L 148.0 128.0 L 148.0 130.5 L 147.5 135.0 L 147.5 142.0 L 147.0 148.5 L 146.5 153.0 L 145.5 157.0 L 145.0 160.0 L 144.5 162.0 L 144.5 163.0 L 144.0 164.0 L 144.0 164.5 L 144.0 165.0 L 144.0 165.0 L 144.5 164.5 " stroke="black" fill="none" stroke-width="6.0" stroke-linecap="round" stroke-linejoin="round" />
<path d="M 139.5 167.0 L 139.0 166.5 L 138.5 166.0 L 138.5 165.5 L 138.5 165.5 L 140.5 165.5 L 145.0 165.0 L 151.5 164.5 L 158.0 163.0 L 162.0 162.5 L 163.5 162.0 L 164.0 162.0 L 164.5 162.0 L 164.5 162.0 " stroke="black" fill="none" stroke-width="6.0" stroke-linecap="round" stroke-linejoin="round" />
<path d="M 162.5 151.0 L 162.5 151.0 L 162.0 151.5 L 162.0 152.0 L 162.0 152.5 L 162.0 152.5 L 163.5 154.0 L 166.0 158.0 L 169.5 164.0 L 171.5 169.0 L 173.0 171.5 L 173.5 172.0 " stroke="black" fill="none" stroke-width="6.0" stroke-linecap="round" stroke-linejoin="round" />
</svg>