<svg xmlns="http://www.w3.org/2000/svg" width="300" height="300" viewBox="0 0 300 300">
<path d="M 154.0 135.0 L 154.0 135.0 L 154.5 135.0 L 155.0 135.0 L 155.0 134.0 L 155.0 133.0 L 154.0 131.5 L 152.0 130.5 L 149.0 129.5 L 146.0 129.5 L 142.5 129.5 L 139.5 130.5 L 137.0 132.0 L 135.0 134.0 L 133.0 137.0 L 131.0 140.0 L 130.0 143.5 L 129.0 147.0 L 128.5 151.5 L 128.0 155.5 L 128.0 160.0 L 129.5 164.0 L 131.5 166.5 L 134.0 168.5 L 137.0 169.5 L 140.5 170.0 L 144.5 170.0 L 149.0 168.5 L 152.0 165.5 L 154.5 161.0 L 156.5 155.5 L 158.0 150.5 L 158.0 146.5 L 158.0 144.0 L 158.0 142.0 L 158.0 140.0 L 157.5 139.0 L 157.5 139.0 L 157.5 138.5 L 157.5 138.5 L 157.5 138.5 L 157.5 138.5 L 157.5 139.0 L 157.0 139.5 L 156.5 141.0 L 156.5 143.0 L 156.0 146.0 L 155.5 149.5 L 155.5 153.5 L 155.0 157.0 L 155.0 161.0 L 155.0 164.0 L 155.5 166.0 L 156.5 168.0 L 158.0 169.5 L 159.0 170.0 L 160.5 170.5 L 162.0 170.5 L 164.0 170.5 L 166.5 169.5 L 169.0 168.5 L 171.0 167.0 L 173.0 164.5 L 174.5 161.5 L 176.0 158.0 L 177.0 153.5 L 178.5 149.0 L 179.5 144.5 L 180.0 140.0 L 180.5 135.5 L 180.5 131.5 L 180.5 128.0 L 179.5 124.5 L 178.0 122.0 L 176.5 119.0 L 175.0 116.5 L 172.5 114.0 L 170.0 111.5 L 166.5 109.5 L 163.0 108.0 L 159.0 106.5 L 155.0 105.0 L 151.5 104.5 L 148.0 104.0 L 145.0 104.0 L 142.0 104.0 L 139.0 104.5 L 136.0 105.0 L 133.5 106.0 L 131.0 107.5 L 128.5 109.0 L 126.0 111.0 L 124.0 113.5 L 122.0 115.5 L 120.5 118.5 L 119.0 121.5 L 117.5 124.5 L 116.5 127.0 L 115.0 130.0 L 114.0 133.0 L 112.5 136.5 L 111.5 140.5 L 110.5 144.0 L 110.0 147.5 L 109.5 151.5 L 109.5 156.0 L 109.5 159.5 L 109.5 163.0 L 110.0 166.0 L 110.5 168.5 L 111.5 171.0 L 112.5 173.0 L 113.5 175.0 L 115.0 176.5 L 116.5 178.5 L 118.5 179.5 L 120.5 181.0 L 123.0 182.5 L 125.5 184.0 L 128.5 185.0 L 131.5 186.0 L 134.5 187.0 L 137.0 188.5 L 140.0 189.5 L 142.5 190.5 L 145.0 190.5 L 148.0 190.5 L 150.0 190.5 L 152.5 190.0 L 154.5 189.5 L 157.0 188.5 L 160.0 187.5 L 162.5 186.5 L 164.5 186.0 L 166.0 185.5 L 168.0 184.5 L 170.0 183.5 " stroke="black" fill="none" stroke-width="6.0" stroke-linecap="round" stroke-linejoin="round" />
</svg>