<svg xmlns="http://www.w3.org/2000/svg" width="300" height="300" viewBox="0 0 300 300">
<path d="M 154.5 130.5 L 154.5 129.5 L 154.0 128.5 L 153.0 128.0 L 152.0 127.5 L 150.5 127.5 L 148.5 127.5 L 146.0 129.5 L 143.5 132.5 L 141.0 137.5 L 139.5 144.5 L 138.5 152.5 L 138.5 160.0 L 139.5 165.5 L 142.0 170.5 L 145.0 173.0 L 149.0 174.0 L 153.5 174.0 L 158.0 171.5 L 163.0 165.5 L 167.0 158.5 L 169.0 151.5 L 169.5 145.5 L 169.0 140.5 L 167.5 137.0 L 165.5 134.0 L 164.0 131.5 L 162.0 130.0 L 160.0 129.0 L 158.0 128.5 L 156.5 128.5 L 156.0 128.5 L 155.5 129.5 " stroke="black" fill="none" stroke-width="6.0" stroke-linecap="round" stroke-linejoin="round" />
</svg>