<svg xmlns="http://www.w3.org/2000/svg" width="300" height="300" viewBox="0 0 300 300">
<path d="M 137.5 137.0 L 137.5 137.0 L 137.5 136.5 L 137.0 136.5 L 137.0 136.5 L 137.0 136.5 L 138.5 139.0 L 141.0 143.5 L 143.5 148.0 L 145.0 151.5 L 145.5 153.0 L 145.5 152.5 " stroke="black" fill="none" stroke-width="6.0" stroke-linecap="round" stroke-linejoin="round" />
<path d="M 149.0 129.5 L 148.5 130.0 L 148.0 130.0 L 148.0 130.5 L 149.0 132.5 L 151.0 135.5 L 153.0 139.5 L 154.5 142.0 L 155.0 142.5 " stroke="black" fill="none" stroke-width="6.0" stroke-linecap="round" stroke-linejoin="round" />
<path d="M 172.0 129.5 L 172.0 129.5 L 172.0 130.0 L 172.0 130.0 L 172.0 130.0 L 172.0 130.5 L 172.0 132.5 L 171.0 139.0 L 167.0 150.5 L 160.5 163.5 L 153.5 173.5 L 148.5 178.5 L 146.0 180.0 L 145.5 179.5 " stroke="black" fill="none" stroke-width="6.0" stroke-linecap="round" stroke-linejoin="round" />
</svg>