<svg xmlns="http://www.w3.org/2000/svg" width="300" height="300" viewBox="0 0 300 300">
<path d="M 142.5 121.0 L 142.5 120.5 L 140.5 119.5 L 140.0 119.0 L 140.5 119.0 L 143.5 119.0 L 148.5 119.5 L 153.0 120.0 L 157.5 120.5 L 160.5 120.0 L 162.5 119.5 L 162.5 119.0 L 162.0 119.0 L 161.5 119.5 " stroke="black" fill="none" stroke-width="6.0" stroke-linecap="round" stroke-linejoin="round" />
<path d="M 137.0 142.5 L 137.0 142.5 L 136.5 142.5 L 136.0 142.5 L 135.5 142.5 L 135.5 142.5 L 136.0 142.5 L 137.5 142.5 L 140.5 142.5 L 144.5 142.5 L 149.0 142.0 L 154.0 142.0 L 157.0 142.0 L 159.0 142.0 L 159.5 142.0 L 160.5 142.0 L 161.5 142.0 L 162.0 142.0 L 162.5 142.0 L 162.5 142.0 L 163.0 142.0 L 163.5 142.0 L 164.0 142.0 L 164.5 142.0 L 164.5 142.5 L 165.0 142.5 L 165.0 142.5 L 165.0 142.5 L 165.5 142.5 L 165.5 142.5 L 165.5 142.5 L 165.5 142.5 L 165.5 142.5 L 166.0 142.5 L 166.0 143.0 L 166.0 143.5 L 165.5 144.5 L 165.0 146.0 L 164.5 148.0 L 164.0 150.0 L 163.5 152.5 L 162.5 154.5 L 161.5 156.5 L 160.5 158.5 L 159.5 160.5 L 158.5 163.0 L 157.0 165.5 L 155.5 167.5 L 153.5 170.0 L 151.5 171.0 L 150.0 171.5 L 149.0 172.0 L 147.5 172.0 L 147.5 172.0 " stroke="black" fill="none" stroke-width="6.0" stroke-linecap="round" stroke-linejoin="round" />
</svg>