<svg xmlns="http://www.w3.org/2000/svg" width="300" height="300" viewBox="0 0 300 300">
<path d="M 154.5 131.5 L 154.5 130.5 L 154.5 129.5 L 154.0 128.5 L 152.5 128.0 L 151.0 127.5 L 148.5 128.0 L 146.0 130.0 L 144.0 133.5 L 143.0 138.0 L 143.0 144.5 L 149.0 152.0 L 153.0 152.5 L 156.5 150.0 L 159.5 145.5 L 161.0 139.5 L 161.5 134.5 L 161.0 131.5 L 159.5 130.5 L 159.0 130.5 L 158.5 130.5 L 158.0 131.5 L 157.5 133.5 L 157.5 136.0 L 157.5 140.5 L 158.0 146.5 L 159.0 154.5 L 160.0 162.0 L 160.5 168.0 L 159.0 171.5 L 156.5 174.0 L 153.0 174.5 L 149.5 174.5 L 146.0 173.5 L 143.5 172.5 L 143.0 172.0 " stroke="black" fill="none" stroke-width="6.0" stroke-linecap="round" stroke-linejoin="round" />
</svg>