<svg xmlns="http://www.w3.org/2000/svg" width="300" height="300" viewBox="0 0 300 300">
<path d="M 151.0 111.0 L 151.0 111.5 L 151.0 111.5 L 151.0 112.0 L 151.0 113.0 L 151.5 115.5 L 152.0 120.0 L 152.5 126.5 L 153.0 133.5 L 153.5 141.0 L 153.5 148.0 L 153.5 155.0 L 153.5 162.0 L 153.5 169.5 L 153.5 175.5 L 153.5 179.0 L 153.5 181.0 L 153.5 181.5 L 153.5 181.5 L 153.5 181.0 L 153.5 179.5 " stroke="black" fill="none" stroke-width="6.0" stroke-linecap="round" stroke-linejoin="round" />
<path d="M 134.0 119.0 L 134.0 119.0 L 133.5 119.0 L 133.5 119.0 L 133.0 119.0 L 133.0 119.0 L 133.0 119.0 L 133.5 118.5 L 136.0 117.0 L 139.0 113.5 L 142.5 109.5 L 146.5 105.5 L 149.5 102.0 L 151.5 100.0 L 152.5 99.5 L 152.5 99.5 L 153.0 99.5 L 153.0 99.5 L 153.0 99.5 L 153.0 99.5 L 153.5 99.5 L 153.5 100.0 L 154.0 101.0 L 155.0 102.5 L 156.5 104.5 L 158.5 107.5 L 162.0 110.5 L 165.5 113.5 L 168.5 116.0 L 171.5 118.0 L 173.0 119.5 L 175.0 121.0 L 175.5 121.5 L 176.0 122.0 L 176.0 123.0 L 176.0 123.0 " stroke="black" fill="none" stroke-width="6.0" stroke-linecap="round" stroke-linejoin="round" />
</svg>