<svg xmlns="http://www.w3.org/2000/svg" width="300" height="300" viewBox="0 0 300 300">
<path d="M 142.0 130.5 L 142.0 130.5 L 142.0 131.0 L 142.0 131.5 L 141.5 131.5 L 141.5 131.5 L 142.5 131.5 L 144.0 131.5 L 147.0 131.0 L 150.5 131.0 L 154.0 130.5 L 156.5 130.5 L 159.0 130.5 L 160.5 130.0 L 161.5 130.0 L 162.5 130.5 L 163.5 130.5 L 163.5 130.5 L 164.0 130.5 L 164.0 130.5 L 164.0 130.5 L 164.0 130.5 L 164.0 130.5 L 164.0 130.5 L 164.0 130.5 L 164.0 130.5 L 164.0 130.5 L 164.0 130.5 L 163.5 131.0 L 163.0 132.0 L 162.5 134.0 L 162.0 137.0 L 162.0 140.5 L 161.5 144.0 L 161.0 148.0 L 161.0 151.5 L 160.5 155.0 L 160.5 157.5 L 160.5 159.5 L 160.5 161.0 L 160.5 162.0 L 160.5 163.0 L 160.0 164.5 L 159.5 165.5 L 159.5 166.0 L 159.5 166.0 L 159.5 166.0 L 159.5 166.0 L 159.5 165.5 " stroke="black" fill="none" stroke-width="6.0" stroke-linecap="round" stroke-linejoin="round" />
<path d="M 141.0 161.0 L 141.0 161.0 L 140.5 161.5 L 140.5 162.0 L 140.0 162.5 L 140.0 162.5 L 140.0 162.5 L 140.0 162.5 L 141.0 162.5 L 143.0 162.5 L 145.0 162.0 L 148.0 161.5 L 151.5 161.0 L 154.5 160.5 L 157.0 160.5 L 158.5 160.5 L 159.0 160.0 L 159.0 159.5 " stroke="black" fill="none" stroke-width="6.0" stroke-linecap="round" stroke-linejoin="round" />
</svg>