<svg xmlns="http://www.w3.org/2000/svg" width="300" height="300" viewBox="0 0 300 300">
<path d="M 159.0 113.5 L 159.0 113.5 L 159.0 113.5 L 159.5 113.5 L 159.5 113.0 L 159.5 113.0 L 160.0 112.5 L 160.0 112.5 L 160.0 112.5 L 160.0 113.0 L 158.0 116.0 L 154.5 122.0 L 149.5 130.0 L 144.5 137.0 L 139.0 141.0 L 135.5 143.5 L 134.0 144.0 L 133.5 144.0 " stroke="black" fill="none" stroke-width="6.0" stroke-linecap="round" stroke-linejoin="round" />
<path d="M 150.5 133.5 L 150.5 133.5 L 150.5 133.5 L 150.5 133.5 L 150.5 133.5 L 151.0 133.5 L 151.0 133.5 L 151.5 136.0 L 152.5 143.5 L 153.0 156.5 L 153.5 167.0 L 153.5 173.0 L 153.5 175.0 L 153.0 175.0 L 152.5 175.0 " stroke="black" fill="none" stroke-width="6.0" stroke-linecap="round" stroke-linejoin="round" />
</svg>