<svg xmlns="http://www.w3.org/2000/svg" width="300" height="300" viewBox="0 0 300 300">
<path d="M 160.5 134.5 L 160.5 134.5 L 160.5 134.5 L 160.5 134.5 L 160.5 134.5 L 160.0 134.5 L 159.5 134.0 L 158.0 133.0 L 155.5 132.5 L 152.0 132.0 L 148.0 132.0 L 145.0 132.5 L 142.0 134.0 L 139.5 136.5 L 138.5 139.5 L 138.0 142.5 L 138.0 145.5 L 139.5 148.0 L 142.0 150.0 L 144.5 151.5 L 148.0 153.0 L 151.0 154.5 L 154.5 155.0 L 157.0 155.5 L 159.5 156.5 L 162.0 157.0 L 163.5 158.5 L 165.0 160.0 L 166.0 162.0 L 166.5 164.5 L 167.0 166.5 L 167.0 168.0 L 167.0 169.0 L 165.5 170.5 L 163.0 171.5 L 159.5 172.5 L 155.5 173.0 L 150.0 172.5 L 145.0 170.5 L 140.5 168.5 L 137.0 167.0 L 136.0 166.0 " stroke="black" fill="none" stroke-width="6.0" stroke-linecap="round" stroke-linejoin="round" />
</svg>