<svg xmlns="http://www.w3.org/2000/svg" width="300" height="300" viewBox="0 0 300 300">
<path d="M 140.0 126.0 L 140.0 126.0 L 140.0 125.5 L 140.0 124.5 L 140.0 124.0 L 140.0 124.0 L 140.0 124.0 L 140.0 125.5 L 140.0 129.5 L 138.0 135.0 L 135.0 142.5 L 132.0 149.0 L 131.0 151.5 L 130.5 151.5 L 130.5 150.5 L 131.0 150.0 " stroke="black" fill="none" stroke-width="6.0" stroke-linecap="round" stroke-linejoin="round" />
<path d="M 140.0 138.0 L 139.5 138.5 L 138.5 138.5 L 138.0 138.5 L 138.0 138.0 L 139.0 137.5 L 141.0 137.5 L 144.5 137.5 L 149.0 137.0 L 154.0 136.0 L 158.0 135.5 L 159.5 135.5 L 160.0 135.5 L 160.0 135.0 L 160.0 135.0 " stroke="black" fill="none" stroke-width="6.0" stroke-linecap="round" stroke-linejoin="round" />
<path d="M 149.0 140.0 L 149.0 140.0 L 149.0 140.0 L 148.5 140.5 L 148.5 140.5 L 148.5 140.5 L 148.5 141.5 L 148.5 143.0 L 149.0 146.0 L 149.0 151.0 L 149.0 156.5 L 148.5 161.5 L 147.0 165.5 L 145.5 169.0 L 144.0 171.0 L 142.0 172.0 L 141.5 172.5 L 141.5 172.5 " stroke="black" fill="none" stroke-width="6.0" stroke-linecap="round" stroke-linejoin="round" />
</svg>