<svg xmlns="http://www.w3.org/2000/svg" width="300" height="300" viewBox="0 0 300 300">
<path d="M 134.0 124.0 L 135.0 124.0 L 135.5 124.0 L 135.5 124.0 L 136.0 124.0 L 138.0 123.5 L 142.0 122.5 L 149.5 121.0 L 158.5 119.5 L 165.5 119.5 L 169.0 120.0 L 169.5 122.0 L 169.5 124.0 L 168.5 126.0 L 167.0 129.0 L 165.5 132.5 L 162.5 137.5 L 158.0 144.0 L 152.5 151.0 L 146.0 158.0 L 139.5 163.5 L 136.0 166.5 L 135.5 167.5 L 135.5 167.5 L 135.0 167.5 L 135.0 168.0 L 134.5 168.0 L 134.5 168.0 L 134.5 168.0 L 135.5 168.0 L 137.0 167.5 L 140.5 167.0 L 147.0 166.5 L 156.5 165.5 L 167.5 165.0 L 176.5 164.5 L 180.5 164.5 L 182.0 164.5 L 182.0 164.5 L 181.5 164.5 L 181.0 164.5 " stroke="black" fill="none" stroke-width="6.0" stroke-linecap="round" stroke-linejoin="round" />
</svg>