<svg xmlns="http://www.w3.org/2000/svg" width="300" height="300" viewBox="0 0 300 300">
<path d="M 146.5 131.0 L 146.5 131.0 L 146.5 131.5 L 146.0 132.0 L 146.0 132.5 L 146.0 133.5 L 146.0 135.5 L 146.0 139.5 L 146.0 145.5 L 145.5 152.0 L 145.5 157.0 L 145.5 160.5 L 145.5 163.5 L 145.5 166.0 L 145.5 168.5 L 145.5 170.5 L 146.0 172.0 L 146.5 173.0 L 147.5 174.0 L 148.0 175.5 L 149.0 176.5 L 150.0 177.5 L 151.0 178.0 L 151.5 178.0 L 152.5 177.5 L 154.0 177.5 L 156.0 177.5 L 159.0 177.0 L 162.0 177.0 L 164.5 177.0 L 166.0 177.0 L 166.5 177.0 L 167.0 177.0 L 167.0 176.5 L 167.5 176.0 L 168.0 175.5 L 168.0 175.0 L 168.5 175.0 L 169.0 174.5 L 169.0 174.0 " stroke="black" fill="none" stroke-width="6.0" stroke-linecap="round" stroke-linejoin="round" />
<path d="M 167.5 137.5 L 167.5 137.5 L 167.5 138.0 L 167.5 138.0 L 167.5 138.5 L 167.5 138.5 L 167.5 139.0 L 167.5 139.0 L 166.5 140.0 L 165.0 142.5 L 162.0 147.0 L 157.5 152.0 L 154.0 155.0 L 150.5 157.0 L 149.0 158.0 L 149.0 158.0 L 149.5 157.5 " stroke="black" fill="none" stroke-width="6.0" stroke-linecap="round" stroke-linejoin="round" />
</svg>