<svg xmlns="http://www.w3.org/2000/svg" width="300" height="300" viewBox="0 0 300 300">
<path d="M 98.0 102.0 L 98.0 102.0 L 97.5 102.0 L 97.0 102.0 L 96.5 102.0 L 96.5 102.0 L 97.0 102.0 L 98.5 101.5 L 101.5 101.0 L 105.5 100.5 L 110.5 100.5 L 114.5 100.5 L 116.5 100.5 L 116.5 100.5 L 116.5 100.5 L 116.0 100.5 L 115.5 100.5 L 115.5 100.5 L 115.0 100.5 L 115.0 101.0 L 114.5 101.5 L 114.5 102.5 L 114.5 104.0 L 114.0 106.0 L 114.0 109.0 L 114.0 112.5 L 114.0 117.5 L 114.0 123.0 L 114.0 129.0 L 114.5 134.5 L 114.5 139.5 L 114.5 145.0 L 115.0 150.5 L 115.0 156.0 L 114.5 161.5 L 114.5 166.5 L 114.5 171.0 L 114.0 175.0 L 114.0 179.5 L 114.0 183.0 L 114.0 187.0 L 114.0 190.5 L 114.5 192.5 L 114.5 194.0 L 114.5 195.5 L 114.5 196.5 L 114.5 197.0 L 114.5 197.0 L 114.5 197.0 L 114.5 197.0 L 114.5 197.0 L 114.5 197.0 L 114.5 197.0 L 114.5 197.0 L 114.5 197.0 L 113.5 197.0 L 112.5 197.0 L 111.0 197.0 L 109.0 197.0 L 107.0 197.0 L 105.0 197.0 L 103.0 197.0 L 101.0 197.5 L 100.0 197.5 L 99.0 198.0 L 99.0 198.0 L 99.0 198.0 L 99.0 198.0 L 100.0 197.5 " stroke="black" fill="none" stroke-width="6.0" stroke-linecap="round" stroke-linejoin="round" />
</svg>