<svg xmlns="http://www.w3.org/2000/svg" width="300" height="300" viewBox="0 0 300 300">
<path d="M 171.0 150.0 L 170.5 150.0 L 170.0 150.0 L 169.5 150.0 L 169.0 150.0 L 168.5 150.5 L 167.0 151.5 L 164.5 154.5 L 160.0 159.5 L 154.0 166.0 L 148.5 171.0 L 145.0 173.0 L 143.0 173.0 L 141.5 172.0 L 140.0 170.0 L 138.5 168.0 L 137.0 166.5 L 136.5 165.0 L 136.5 164.0 L 138.0 162.5 L 141.0 159.0 L 144.5 154.0 L 148.5 147.0 L 150.5 140.0 L 151.5 134.5 L 152.0 129.0 L 152.5 124.0 L 153.0 118.5 L 153.0 113.5 L 152.0 110.5 L 151.0 108.0 L 150.0 106.0 L 148.5 105.0 L 147.0 104.0 L 145.5 103.5 L 144.0 103.5 L 142.5 104.5 L 140.5 106.5 L 139.5 109.5 L 139.0 113.5 L 138.5 118.0 L 138.5 122.5 L 139.5 127.5 L 141.5 132.5 L 144.0 138.0 L 148.0 144.0 L 151.5 150.0 L 155.0 155.0 L 158.5 160.0 L 161.5 164.0 L 164.0 167.5 L 167.0 170.5 L 169.0 173.0 L 169.5 174.0 L 170.0 174.5 L 170.0 174.5 " stroke="black" fill="none" stroke-width="6.0" stroke-linecap="round" stroke-linejoin="round" />
</svg>