<svg xmlns="http://www.w3.org/2000/svg" width="300" height="300" viewBox="0 0 300 300">
<path d="M 135.5 132.0 L 135.5 132.5 L 135.0 133.0 L 135.0 133.5 L 135.5 133.5 L 137.5 133.5 L 141.0 133.5 L 145.5 133.5 L 150.5 133.5 L 154.5 133.5 L 156.5 133.5 L 157.5 133.5 L 158.0 133.5 L 158.0 133.5 L 158.0 133.5 L 157.5 133.5 " stroke="black" fill="none" stroke-width="6.0" stroke-linecap="round" stroke-linejoin="round" />
<path d="M 150.5 126.0 L 150.0 126.0 L 149.5 126.0 L 149.5 126.0 L 149.0 126.5 L 149.0 127.0 L 149.0 130.0 L 149.0 134.5 L 149.5 141.5 L 149.5 150.0 L 149.5 157.5 L 149.5 162.5 L 149.5 167.0 L 149.5 171.0 L 149.0 174.0 L 148.5 176.5 L 148.0 178.0 L 147.5 178.5 L 147.5 178.5 L 146.5 178.0 L 144.5 177.0 L 143.0 175.5 L 141.5 174.5 L 140.5 173.0 L 140.5 172.5 " stroke="black" fill="none" stroke-width="6.0" stroke-linecap="round" stroke-linejoin="round" />
<path d="M 147.0 135.0 L 147.0 135.0 L 147.0 135.0 L 147.5 135.0 L 147.5 135.0 L 147.5 135.0 L 147.5 135.0 L 147.5 136.0 L 145.5 140.5 L 141.5 148.5 L 137.0 155.5 L 133.0 160.0 L 130.5 163.0 L 130.0 163.5 L 130.0 163.0 L 130.0 162.0 " stroke="black" fill="none" stroke-width="6.0" stroke-linecap="round" stroke-linejoin="round" />
</svg>