<svg xmlns="http://www.w3.org/2000/svg" width="300" height="300" viewBox="0 0 300 300">
<path d="M 142.0 125.0 L 142.0 125.0 L 141.5 125.0 L 141.5 125.0 L 141.5 125.5 L 142.0 129.0 L 143.0 138.5 L 143.5 153.0 L 143.5 166.0 L 143.5 172.0 L 143.5 173.0 L 143.5 171.5 L 143.5 171.0 " stroke="black" fill="none" stroke-width="6.0" stroke-linecap="round" stroke-linejoin="round" />
<path d="M 143.5 125.5 L 143.0 125.5 L 142.0 125.5 L 141.5 125.5 L 142.0 125.5 L 144.5 125.5 L 148.0 126.0 L 151.5 126.5 L 155.5 127.0 L 159.5 127.5 L 161.5 127.5 L 162.5 128.0 " stroke="black" fill="none" stroke-width="6.0" stroke-linecap="round" stroke-linejoin="round" />
<path d="M 144.5 150.0 L 143.5 150.5 L 142.5 151.0 L 142.5 151.5 L 143.0 151.5 L 146.0 151.5 L 150.5 151.5 L 155.0 151.0 L 159.0 151.0 L 162.0 151.0 L 162.5 151.0 " stroke="black" fill="none" stroke-width="6.0" stroke-linecap="round" stroke-linejoin="round" />
</svg>