<svg xmlns="http://www.w3.org/2000/svg" width="300" height="300" viewBox="0 0 300 300">
<path d="M 146.5 130.0 L 146.0 130.5 L 145.5 130.5 L 145.0 131.0 L 144.5 131.0 L 144.5 131.0 L 144.5 131.0 L 144.0 131.0 L 144.0 131.0 L 143.5 131.0 L 143.0 131.0 L 142.5 131.0 L 142.0 131.0 L 141.5 131.0 L 141.5 131.0 L 141.0 131.0 L 142.5 131.0 L 146.0 130.0 L 150.5 128.5 L 155.0 126.5 L 159.0 124.5 L 161.0 123.5 L 161.5 123.0 L 162.0 123.0 L 162.0 123.0 L 161.5 124.0 L 161.0 125.0 " stroke="black" fill="none" stroke-width="6.0" stroke-linecap="round" stroke-linejoin="round" />
<path d="M 137.5 147.5 L 137.5 147.5 L 137.0 147.5 L 136.5 147.5 L 136.5 147.5 L 136.0 147.5 L 136.0 147.5 L 136.0 147.5 L 137.5 147.5 L 141.0 147.5 L 146.5 147.0 L 151.5 147.0 L 156.5 146.0 L 160.5 146.0 L 163.0 145.5 L 164.5 145.5 L 165.0 145.5 L 165.0 145.5 L 165.0 145.5 L 165.0 145.0 L 165.0 145.0 L 165.0 145.0 " stroke="black" fill="none" stroke-width="6.0" stroke-linecap="round" stroke-linejoin="round" />
<path d="M 152.5 130.0 L 152.5 130.0 L 152.5 130.5 L 152.5 130.5 L 152.5 130.5 L 152.5 131.0 L 153.0 132.5 L 153.0 136.0 L 152.5 142.5 L 151.0 151.5 L 149.5 158.5 L 147.5 165.0 L 146.0 170.0 L 144.5 173.5 L 142.5 175.5 L 142.0 176.0 L 142.0 176.0 L 142.0 175.0 " stroke="black" fill="none" stroke-width="6.0" stroke-linecap="round" stroke-linejoin="round" />
</svg>