<svg xmlns="http://www.w3.org/2000/svg" width="300" height="300" viewBox="0 0 300 300">
<path d="M 153.0 123.5 L 153.0 123.0 L 153.0 122.0 L 153.0 121.5 L 153.0 122.0 L 153.5 125.0 L 154.0 128.0 L 154.0 131.0 L 154.5 132.5 L 154.5 134.0 L 154.5 134.5 " stroke="black" fill="none" stroke-width="6.0" stroke-linecap="round" stroke-linejoin="round" />
<path d="M 144.0 141.5 L 142.5 141.5 L 142.0 141.5 L 141.5 141.0 L 141.5 141.0 L 144.0 141.0 L 148.0 141.0 L 152.5 141.0 L 157.0 141.0 L 160.5 141.0 L 163.0 141.0 L 164.0 141.0 L 165.0 141.0 L 165.0 141.0 L 165.0 141.0 L 165.0 141.5 L 165.0 141.5 L 165.0 142.0 L 165.0 142.5 L 165.0 143.0 L 165.0 144.0 L 164.0 145.5 L 162.5 147.5 L 160.5 150.0 L 158.0 153.5 L 155.0 157.0 L 152.0 161.5 L 148.0 166.0 L 145.0 170.5 L 143.0 173.0 L 142.0 173.5 L 142.0 173.5 L 141.5 173.5 L 142.0 173.0 " stroke="black" fill="none" stroke-width="6.0" stroke-linecap="round" stroke-linejoin="round" />
<path d="M 154.0 162.0 L 154.0 162.0 L 154.5 162.0 L 154.5 162.0 L 155.0 161.5 L 155.0 162.5 L 155.5 166.5 L 156.0 173.5 L 156.0 182.5 L 156.0 190.0 L 156.0 194.0 L 156.5 194.0 L 156.5 192.5 " stroke="black" fill="none" stroke-width="6.0" stroke-linecap="round" stroke-linejoin="round" />
<path d="M 164.5 162.5 L 164.5 162.5 L 164.0 162.5 L 163.5 162.0 L 163.0 162.0 L 163.0 162.0 L 163.0 162.0 L 164.0 162.5 L 167.0 165.5 L 170.0 168.5 L 173.0 171.0 L 175.0 172.5 " stroke="black" fill="none" stroke-width="6.0" stroke-linecap="round" stroke-linejoin="round" />
</svg>