<svg xmlns="http://www.w3.org/2000/svg" width="300" height="300" viewBox="0 0 300 300">
<path d="M 145.0 137.5 L 145.0 137.5 L 144.5 137.5 L 144.0 137.0 L 143.5 136.5 L 143.5 136.0 L 143.0 135.5 L 143.0 134.5 L 142.5 134.0 L 142.5 133.5 L 142.0 133.0 L 142.0 132.5 L 141.5 132.5 L 141.5 132.5 L 141.5 132.5 L 142.5 134.0 L 144.0 136.5 L 145.5 138.5 L 147.0 141.0 L 147.5 141.5 " stroke="black" fill="none" stroke-width="6.0" stroke-linecap="round" stroke-linejoin="round" />
<path d="M 134.0 148.0 L 134.0 147.0 L 134.0 146.5 L 134.0 146.5 L 135.0 147.0 L 136.5 149.5 L 139.0 151.5 L 140.5 153.0 L 142.0 154.5 L 142.5 154.5 " stroke="black" fill="none" stroke-width="6.0" stroke-linecap="round" stroke-linejoin="round" />
<path d="M 163.5 142.0 L 163.5 142.0 L 164.0 142.0 L 164.0 141.5 L 164.5 141.0 L 164.5 141.0 L 164.5 140.5 L 164.5 140.5 L 164.5 142.0 L 162.5 147.5 L 157.0 157.0 L 149.5 168.5 L 142.5 175.0 L 139.5 176.5 L 139.5 176.5 " stroke="black" fill="none" stroke-width="6.0" stroke-linecap="round" stroke-linejoin="round" />
</svg>