<svg xmlns="http://www.w3.org/2000/svg" width="300" height="300" viewBox="0 0 300 300">
<path d="M 120.5 130.0 L 119.0 130.5 L 118.5 130.5 L 118.5 130.5 L 121.0 131.0 L 125.5 131.0 L 130.0 131.0 L 135.0 131.0 L 138.5 130.5 L 141.0 130.0 L 141.5 129.5 L 141.5 129.5 " stroke="black" fill="none" stroke-width="6.0" stroke-linecap="round" stroke-linejoin="round" />
<path d="M 132.5 116.0 L 132.5 116.0 L 132.5 116.5 L 132.0 117.5 L 132.0 122.0 L 132.5 135.0 L 132.5 145.0 L 131.5 170.5 L 130.5 181.0 L 130.5 186.5 L 130.5 187.0 L 130.0 186.0 L 129.5 184.5 " stroke="black" fill="none" stroke-width="6.0" stroke-linecap="round" stroke-linejoin="round" />
<path d="M 130.5 142.0 L 131.0 140.5 L 131.0 140.0 L 131.5 140.0 L 131.5 140.0 L 130.5 141.5 L 128.0 146.5 L 124.5 154.0 L 119.5 163.0 L 116.0 167.5 L 114.5 168.0 L 114.5 166.5 L 115.0 163.0 " stroke="black" fill="none" stroke-width="6.0" stroke-linecap="round" stroke-linejoin="round" />
<path d="M 129.0 145.0 L 129.5 144.5 L 130.5 144.0 L 133.0 144.0 L 137.0 147.0 L 140.5 150.0 L 143.0 152.5 L 144.0 153.0 " stroke="black" fill="none" stroke-width="6.0" stroke-linecap="round" stroke-linejoin="round" />
<path d="M 157.5 118.5 L 156.0 118.5 L 154.5 119.0 L 154.0 119.5 L 154.5 119.5 L 158.0 119.5 L 162.0 119.5 L 166.0 119.0 L 169.5 118.0 L 172.0 117.5 L 173.5 117.5 L 173.5 117.5 " stroke="black" fill="none" stroke-width="6.0" stroke-linecap="round" stroke-linejoin="round" />
<path d="M 163.5 121.0 L 163.0 120.5 L 163.0 120.0 L 162.5 120.0 L 162.5 119.5 L 162.5 119.5 L 162.5 121.0 L 162.5 126.0 L 161.5 135.5 L 160.5 144.5 L 160.0 148.5 L 160.0 148.0 L 160.5 146.5 " stroke="black" fill="none" stroke-width="6.0" stroke-linecap="round" stroke-linejoin="round" />
<path d="M 152.5 138.5 L 152.0 138.5 L 151.0 138.0 L 151.0 138.0 L 152.5 138.0 L 155.5 137.5 L 159.5 137.0 L 163.5 137.0 L 167.5 137.0 L 171.0 136.5 L 172.5 136.0 L 173.5 136.0 L 174.0 136.0 L 174.0 136.0 L 174.0 137.0 L 174.0 138.5 L 173.5 140.5 L 172.5 143.0 L 171.5 145.5 L 171.0 147.0 " stroke="black" fill="none" stroke-width="6.0" stroke-linecap="round" stroke-linejoin="round" />
<path d="M 152.0 150.5 L 151.0 151.5 L 150.5 151.5 L 151.0 151.5 L 154.5 151.5 L 159.5 151.0 L 165.0 151.0 L 171.0 151.0 L 175.0 151.0 L 176.0 151.0 " stroke="black" fill="none" stroke-width="6.0" stroke-linecap="round" stroke-linejoin="round" />
<path d="M 154.0 167.0 L 154.0 166.0 L 153.5 166.0 L 153.5 166.5 L 153.5 169.5 L 153.5 174.5 L 153.5 179.0 L 154.0 181.5 L 154.0 181.5 " stroke="black" fill="none" stroke-width="6.0" stroke-linecap="round" stroke-linejoin="round" />
<path d="M 153.5 169.5 L 152.0 169.5 L 151.5 169.5 L 152.0 169.0 L 155.0 167.5 L 158.5 166.5 L 162.5 165.0 L 166.5 165.0 L 170.5 165.0 L 173.5 166.0 L 176.5 167.5 L 178.0 169.0 L 178.0 170.5 L 177.5 173.5 L 175.5 177.0 L 174.0 180.5 L 173.0 183.5 L 172.5 184.5 L 172.5 184.5 " stroke="black" fill="none" stroke-width="6.0" stroke-linecap="round" stroke-linejoin="round" />
<path d="M 155.0 189.0 L 154.5 189.0 L 154.0 189.0 L 154.0 189.0 L 156.5 189.0 L 161.5 188.0 L 168.5 188.0 L 173.0 188.0 " stroke="black" fill="none" stroke-width="6.0" stroke-linecap="round" stroke-linejoin="round" />
</svg>