<svg xmlns="http://www.w3.org/2000/svg" width="300" height="300" viewBox="0 0 300 300">
<path d="M 126.0 110.5 L 126.0 110.0 L 126.0 109.5 L 126.0 109.0 L 126.0 108.5 L 126.0 108.5 L 126.0 111.0 L 126.5 116.0 L 127.5 130.5 L 127.5 141.0 L 127.5 155.5 L 127.5 168.0 L 127.5 173.0 L 127.5 174.5 L 127.5 175.0 L 127.5 173.0 L 127.5 169.0 " stroke="black" fill="none" stroke-width="6.0" stroke-linecap="round" stroke-linejoin="round" />
<path d="M 129.0 107.0 L 129.0 107.0 L 129.0 107.0 L 128.5 107.0 L 128.5 107.0 L 128.5 107.0 L 129.0 107.5 L 130.5 107.5 L 133.0 107.5 L 136.0 108.5 L 139.5 109.0 L 143.5 109.0 L 148.0 109.0 L 152.5 108.5 L 157.0 108.5 L 160.0 108.5 L 163.0 108.5 L 165.0 108.5 L 167.0 108.5 L 167.5 108.5 L 170.5 108.5 L 172.5 108.5 L 174.0 109.0 L 176.0 109.0 L 177.5 109.0 L 179.5 109.0 L 181.5 108.5 L 182.0 108.5 L 182.5 108.5 L 183.0 108.5 L 183.0 108.5 L 183.0 108.5 L 182.5 108.5 L 182.5 108.5 L 182.5 108.5 L 182.5 108.5 L 182.5 108.5 L 182.5 108.5 L 182.5 108.5 L 182.5 108.5 L 182.5 108.5 L 182.5 108.5 L 182.5 108.5 L 182.5 108.5 L 182.5 108.5 L 182.5 108.5 L 182.5 108.5 L 182.5 109.0 L 182.5 110.0 L 181.5 113.0 L 181.5 118.0 L 181.0 125.0 L 181.0 129.5 L 181.0 134.5 L 181.0 139.5 L 180.5 144.5 L 180.5 150.5 L 180.5 154.0 L 180.5 158.0 L 180.5 161.0 L 180.5 164.0 L 180.5 167.0 L 180.5 169.5 L 180.5 170.5 L 180.5 172.5 L 180.5 173.5 L 180.5 175.5 L 180.5 177.0 L 180.5 178.0 L 180.5 180.0 L 180.5 181.0 L 180.5 182.5 L 180.5 183.0 L 180.5 183.0 L 180.0 182.0 L 179.5 181.0 " stroke="black" fill="none" stroke-width="6.0" stroke-linecap="round" stroke-linejoin="round" />
<path d="M 140.0 127.0 L 139.5 127.0 L 139.0 127.5 L 138.0 127.5 L 138.5 127.5 L 140.5 127.5 L 143.5 127.5 L 149.0 128.0 L 153.0 129.0 L 159.0 130.0 L 165.5 130.0 L 167.0 130.0 L 168.5 129.5 L 169.5 129.5 L 169.5 129.5 L 170.0 129.5 " stroke="black" fill="none" stroke-width="6.0" stroke-linecap="round" stroke-linejoin="round" />
<path d="M 162.0 114.5 L 162.0 114.0 L 162.0 113.5 L 162.0 113.5 L 162.0 114.0 L 162.0 117.0 L 162.0 125.5 L 163.0 136.5 L 163.5 145.0 L 164.5 157.0 L 165.0 163.5 L 166.0 167.5 L 168.0 173.0 L 169.0 174.0 L 170.0 174.0 L 171.5 172.5 L 172.5 170.5 L 173.0 168.0 L 173.0 164.5 L 173.0 164.0 " stroke="black" fill="none" stroke-width="6.0" stroke-linecap="round" stroke-linejoin="round" />
<path d="M 171.5 145.0 L 171.0 145.0 L 171.0 144.5 L 170.0 144.5 L 169.0 146.0 L 166.5 150.5 L 162.5 157.0 L 158.5 162.0 L 157.0 164.0 L 156.5 164.0 " stroke="black" fill="none" stroke-width="6.0" stroke-linecap="round" stroke-linejoin="round" />
<path d="M 140.5 138.0 L 140.5 138.0 L 140.5 137.5 L 140.5 137.0 L 140.5 136.5 L 140.5 136.5 L 140.5 138.5 L 140.5 143.0 L 140.5 149.0 L 140.5 151.5 L 140.5 151.5 " stroke="black" fill="none" stroke-width="6.0" stroke-linecap="round" stroke-linejoin="round" />
<path d="M 142.0 139.0 L 141.5 139.0 L 140.5 139.0 L 140.5 139.0 L 140.5 139.0 L 142.0 139.0 L 144.5 139.0 L 147.5 138.5 L 150.0 138.5 L 151.0 138.5 L 152.5 138.5 L 153.5 139.0 L 153.5 139.5 L 153.5 140.5 L 153.0 142.5 L 151.5 146.5 L 151.0 147.5 L 150.5 149.5 L 150.0 150.0 " stroke="black" fill="none" stroke-width="6.0" stroke-linecap="round" stroke-linejoin="round" />
<path d="M 142.0 151.0 L 141.5 151.0 L 140.5 151.5 L 140.0 151.5 L 140.5 151.5 L 141.5 151.5 L 145.0 151.5 L 147.0 151.5 L 149.0 152.0 L 149.5 152.5 " stroke="black" fill="none" stroke-width="6.0" stroke-linecap="round" stroke-linejoin="round" />
<path d="M 139.0 162.0 L 139.5 162.5 L 139.5 162.5 L 141.0 162.5 L 143.5 162.5 L 145.0 162.5 L 149.5 162.5 L 151.0 162.0 " stroke="black" fill="none" stroke-width="6.0" stroke-linecap="round" stroke-linejoin="round" />
<path d="M 172.5 117.5 L 172.5 117.5 L 172.0 117.5 L 171.5 117.5 L 171.5 117.5 L 171.5 117.5 L 171.5 118.0 L 172.5 119.0 L 173.0 120.0 L 173.0 120.5 " stroke="black" fill="none" stroke-width="6.0" stroke-linecap="round" stroke-linejoin="round" />
<path d="M 133.0 181.0 L 133.5 181.5 L 133.5 182.0 L 133.5 182.5 L 133.5 182.5 L 134.5 182.5 L 134.5 182.5 L 136.5 182.5 L 138.0 182.0 L 140.5 182.0 L 142.5 182.0 L 145.0 182.0 L 147.0 182.5 L 148.0 182.5 L 149.0 182.5 L 150.0 182.5 L 151.0 182.5 L 152.5 183.0 L 154.5 183.0 L 157.0 183.0 L 159.0 183.0 L 160.5 183.0 L 162.0 183.0 L 163.5 183.5 L 164.0 183.5 L 165.0 183.5 L 166.0 184.0 L 167.5 184.0 L 168.5 184.0 L 169.5 184.0 L 171.5 184.0 L 172.0 184.0 L 173.5 184.0 L 174.0 184.0 L 174.5 184.0 L 174.5 184.0 L 174.5 184.0 L 174.5 184.0 L 174.5 184.5 L 174.5 184.5 L 174.5 184.5 L 174.5 184.5 L 174.5 184.5 L 174.5 184.5 L 174.5 184.5 L 174.5 185.0 L 174.5 185.0 " stroke="black" fill="none" stroke-width="6.0" stroke-linecap="round" stroke-linejoin="round" />
</svg>