<svg xmlns="http://www.w3.org/2000/svg" width="300" height="300" viewBox="0 0 300 300">
<path d="M 131.5 116.0 L 131.5 116.0 L 131.5 116.0 L 131.5 116.5 L 131.5 116.5 L 131.5 117.5 L 132.5 118.5 L 134.0 120.0 L 136.5 121.5 L 138.5 123.0 L 140.0 124.0 L 141.5 124.0 " stroke="black" fill="none" stroke-width="6.0" stroke-linecap="round" stroke-linejoin="round" />
<path d="M 168.0 115.5 L 168.0 115.5 L 168.0 115.5 L 168.0 115.5 L 168.0 115.5 L 167.5 115.0 L 167.5 115.0 L 167.0 115.0 L 165.5 117.0 L 163.0 120.5 L 161.0 124.5 L 160.0 126.5 " stroke="black" fill="none" stroke-width="6.0" stroke-linecap="round" stroke-linejoin="round" />
<path d="M 134.5 135.5 L 134.5 135.5 L 134.0 135.5 L 134.0 135.0 L 134.0 135.0 L 134.0 134.5 L 135.5 134.0 L 139.5 133.5 L 145.0 133.0 L 152.0 133.0 L 159.5 132.5 L 166.0 132.0 L 170.5 131.5 L 173.5 131.5 L 175.0 131.0 L 175.0 130.5 " stroke="black" fill="none" stroke-width="6.0" stroke-linecap="round" stroke-linejoin="round" />
<path d="M 145.0 143.5 L 144.5 144.0 L 144.0 144.5 L 143.5 145.0 L 143.5 145.0 L 144.0 145.0 L 146.0 145.0 L 149.5 145.0 L 153.0 145.0 L 156.5 144.5 L 159.0 144.0 L 160.0 143.0 " stroke="black" fill="none" stroke-width="6.0" stroke-linecap="round" stroke-linejoin="round" />
<path d="M 152.0 134.0 L 152.0 134.0 L 152.0 134.0 L 151.5 134.0 L 151.5 134.5 L 151.5 136.5 L 151.5 141.0 L 152.0 147.0 L 152.0 152.5 L 152.0 156.0 L 152.0 157.0 " stroke="black" fill="none" stroke-width="6.0" stroke-linecap="round" stroke-linejoin="round" />
<path d="M 131.0 159.0 L 131.0 159.0 L 131.0 159.0 L 131.0 159.0 L 131.0 159.0 L 131.0 159.0 L 131.5 159.0 L 132.5 159.0 L 135.5 159.5 L 140.5 159.5 L 148.0 160.0 L 155.5 160.0 L 161.5 159.5 L 167.0 159.5 L 170.5 159.5 L 172.0 160.5 L 172.5 161.0 L 172.5 161.5 L 172.5 161.0 L 172.5 160.5 " stroke="black" fill="none" stroke-width="6.0" stroke-linecap="round" stroke-linejoin="round" />
<path d="M 144.5 166.0 L 144.5 166.0 L 144.5 166.0 L 144.5 166.0 L 144.5 166.0 L 144.5 166.0 L 144.5 166.0 L 144.5 165.5 L 145.0 164.5 L 145.0 164.0 L 145.5 164.0 L 145.5 163.5 L 145.5 164.5 L 143.0 169.5 L 138.5 178.5 L 133.5 186.5 L 131.0 189.0 L 130.0 190.0 L 130.0 190.0 L 129.5 189.5 " stroke="black" fill="none" stroke-width="6.0" stroke-linecap="round" stroke-linejoin="round" />
<path d="M 156.0 164.0 L 156.0 164.0 L 156.5 163.5 L 157.0 163.5 L 157.5 163.5 L 157.5 163.5 L 157.5 164.0 L 157.0 167.0 L 156.5 171.5 L 156.5 177.0 L 156.5 182.0 L 158.0 186.0 L 160.0 188.0 L 162.5 189.0 L 165.5 189.0 L 169.5 188.5 L 173.5 187.5 L 178.0 185.5 L 182.5 183.5 L 185.5 182.0 L 186.0 181.0 L 185.5 180.5 L 184.0 179.0 L 183.0 178.0 L 182.5 176.5 L 181.5 175.5 L 181.0 174.5 L 180.5 173.5 L 180.5 173.0 L 180.5 173.0 L 180.5 173.0 " stroke="black" fill="none" stroke-width="6.0" stroke-linecap="round" stroke-linejoin="round" />
</svg>