<svg xmlns="http://www.w3.org/2000/svg" width="300" height="300" viewBox="0 0 300 300">
<path d="M 128.5 112.5 L 128.0 113.5 L 128.0 114.0 L 128.0 114.0 L 129.0 115.5 L 131.0 117.0 L 133.0 118.5 L 134.0 119.5 L 134.5 119.5 " stroke="black" fill="none" stroke-width="6.0" stroke-linecap="round" stroke-linejoin="round" />
<path d="M 124.0 130.0 L 123.0 130.0 L 122.0 130.0 L 122.0 130.0 L 122.5 130.0 L 125.0 130.0 L 129.0 129.5 L 133.0 129.0 L 136.5 128.5 L 138.5 128.0 L 139.5 128.0 L 139.5 128.0 L 139.5 128.5 L 138.5 129.5 L 137.0 132.0 L 134.5 135.5 L 131.5 140.0 L 129.0 143.0 L 127.0 145.0 L 125.5 145.5 L 125.0 145.5 L 125.0 145.0 " stroke="black" fill="none" stroke-width="6.0" stroke-linecap="round" stroke-linejoin="round" />
<path d="M 132.0 143.5 L 132.5 142.5 L 133.0 141.0 L 133.5 139.5 L 134.0 139.0 L 134.0 138.5 L 134.5 140.0 L 135.0 145.0 L 134.5 154.0 L 133.5 165.5 L 132.5 176.5 L 132.5 183.0 L 132.5 185.0 L 133.5 185.5 L 133.5 184.5 " stroke="black" fill="none" stroke-width="6.0" stroke-linecap="round" stroke-linejoin="round" />
<path d="M 141.0 144.0 L 141.0 143.5 L 140.5 142.5 L 140.5 142.5 L 140.5 142.5 L 142.5 144.5 L 144.5 147.0 L 146.5 148.5 L 147.5 149.5 " stroke="black" fill="none" stroke-width="6.0" stroke-linecap="round" stroke-linejoin="round" />
<path d="M 154.0 128.5 L 155.0 127.5 L 155.0 127.5 L 155.0 127.5 L 155.5 130.0 L 156.5 135.5 L 157.5 142.0 L 158.5 147.0 L 159.0 148.0 " stroke="black" fill="none" stroke-width="6.0" stroke-linecap="round" stroke-linejoin="round" />
<path d="M 155.5 127.0 L 155.5 127.0 L 155.0 127.0 L 155.0 127.0 L 156.0 127.0 L 160.0 127.0 L 165.0 127.0 L 170.0 127.0 L 174.5 126.5 L 178.5 126.0 L 181.0 126.0 L 182.0 126.5 L 182.5 127.0 L 183.0 128.0 L 183.5 129.5 L 183.5 132.5 L 183.5 136.0 L 183.5 140.5 L 183.5 143.5 L 183.0 146.5 L 182.5 147.5 " stroke="black" fill="none" stroke-width="6.0" stroke-linecap="round" stroke-linejoin="round" />
<path d="M 163.0 141.0 L 162.0 141.0 L 161.5 141.5 L 161.0 141.5 L 163.5 141.5 L 168.5 141.5 L 173.0 141.0 L 177.0 141.0 L 179.0 141.0 " stroke="black" fill="none" stroke-width="6.0" stroke-linecap="round" stroke-linejoin="round" />
<path d="M 162.0 153.5 L 162.0 153.5 L 162.0 153.5 L 161.5 153.5 L 161.0 153.5 L 162.5 154.0 L 166.0 154.0 L 171.0 154.0 L 176.5 154.5 L 178.5 154.0 " stroke="black" fill="none" stroke-width="6.0" stroke-linecap="round" stroke-linejoin="round" />
<path d="M 173.0 115.0 L 172.5 115.0 L 172.0 115.0 L 172.0 115.5 L 171.5 116.5 L 171.5 120.0 L 171.5 129.5 L 171.0 143.5 L 171.0 157.5 L 171.0 168.5 L 171.5 177.0 L 172.0 181.5 L 172.0 184.0 L 172.0 185.0 L 171.5 185.0 L 171.5 185.0 L 171.5 185.0 " stroke="black" fill="none" stroke-width="6.0" stroke-linecap="round" stroke-linejoin="round" />
</svg>