<svg xmlns="http://www.w3.org/2000/svg" width="300" height="300" viewBox="0 0 300 300">
<path d="M 128.5 119.0 L 128.5 119.5 L 128.5 120.0 L 128.5 120.5 L 129.5 121.0 L 131.0 122.0 L 133.0 122.5 L 134.5 123.5 L 135.0 124.0 " stroke="black" fill="none" stroke-width="6.0" stroke-linecap="round" stroke-linejoin="round" />
<path d="M 124.5 133.5 L 123.5 134.5 L 122.5 135.0 L 122.0 135.5 L 122.0 135.5 L 122.0 135.5 L 123.0 135.0 L 125.0 134.5 L 127.0 134.0 L 130.0 133.0 L 133.5 132.0 L 136.5 131.5 L 139.0 131.0 L 139.5 131.0 L 140.0 131.0 L 139.5 132.0 L 138.0 134.0 L 136.0 137.0 L 132.5 141.0 L 129.0 145.5 L 126.0 149.0 L 124.5 151.0 L 124.0 151.5 L 124.0 151.5 " stroke="black" fill="none" stroke-width="6.0" stroke-linecap="round" stroke-linejoin="round" />
<path d="M 130.5 147.0 L 131.0 146.5 L 131.5 146.0 L 132.0 145.5 L 132.5 146.5 L 133.0 150.0 L 133.5 157.5 L 133.5 167.5 L 133.5 175.5 L 134.0 179.5 L 134.0 180.0 " stroke="black" fill="none" stroke-width="6.0" stroke-linecap="round" stroke-linejoin="round" />
<path d="M 140.5 151.5 L 140.5 151.5 L 140.5 151.5 L 140.5 152.0 L 141.0 152.5 L 142.5 153.0 L 144.5 154.0 " stroke="black" fill="none" stroke-width="6.0" stroke-linecap="round" stroke-linejoin="round" />
<path d="M 153.0 133.5 L 153.0 133.0 L 153.0 133.0 L 153.0 132.5 L 153.0 132.5 L 153.0 134.0 L 153.5 139.5 L 154.5 145.0 L 155.0 148.5 " stroke="black" fill="none" stroke-width="6.0" stroke-linecap="round" stroke-linejoin="round" />
<path d="M 154.5 130.0 L 154.0 130.5 L 153.0 131.0 L 153.0 131.0 L 153.0 131.0 L 155.0 131.0 L 158.5 130.5 L 163.0 129.5 L 168.0 129.0 L 172.5 128.5 L 175.5 128.5 L 177.0 128.5 L 178.0 128.5 L 178.5 128.5 L 179.0 128.5 L 179.0 128.0 L 179.5 128.0 L 179.5 128.0 L 179.5 129.0 L 179.5 131.0 L 179.5 134.0 L 179.0 138.0 L 178.0 141.5 L 177.5 144.0 L 177.0 145.0 " stroke="black" fill="none" stroke-width="6.0" stroke-linecap="round" stroke-linejoin="round" />
<path d="M 158.5 139.5 L 158.5 140.0 L 158.5 140.5 L 158.5 140.5 L 159.0 140.5 L 161.5 140.0 L 166.0 139.5 L 170.5 138.5 L 174.0 138.5 L 176.0 138.0 L 176.0 138.0 " stroke="black" fill="none" stroke-width="6.0" stroke-linecap="round" stroke-linejoin="round" />
<path d="M 156.5 150.0 L 156.5 150.0 L 157.0 150.0 L 158.0 150.0 L 160.5 150.0 L 164.5 150.0 L 169.5 149.0 L 173.0 148.0 L 174.5 147.5 " stroke="black" fill="none" stroke-width="6.0" stroke-linecap="round" stroke-linejoin="round" />
<path d="M 168.5 117.5 L 168.0 118.0 L 167.0 118.5 L 167.0 119.0 L 167.0 121.0 L 167.0 125.5 L 167.0 132.0 L 167.0 141.0 L 167.0 150.0 L 167.0 158.5 L 167.5 165.0 L 167.5 169.0 L 168.0 171.0 L 168.0 172.0 L 168.0 172.0 " stroke="black" fill="none" stroke-width="6.0" stroke-linecap="round" stroke-linejoin="round" />
</svg>