<svg xmlns="http://www.w3.org/2000/svg" width="300" height="300" viewBox="0 0 300 300">
<path d="M 133.5 114.0 L 133.0 114.5 L 132.5 115.5 L 132.5 115.5 L 132.5 116.0 L 132.5 116.0 L 132.5 116.0 L 132.5 116.0 L 134.5 116.0 L 138.5 116.0 L 146.0 116.5 L 155.0 116.5 L 162.5 115.5 L 165.5 115.0 L 165.5 115.0 L 164.0 115.0 L 163.0 115.0 L 163.0 115.0 L 163.0 115.0 " stroke="black" fill="none" stroke-width="6.0" stroke-linecap="round" stroke-linejoin="round" />
<path d="M 125.0 138.5 L 125.0 138.5 L 124.5 139.0 L 124.5 139.5 L 124.5 139.5 L 126.0 139.5 L 130.0 139.5 L 137.5 139.5 L 148.5 140.0 L 161.0 140.5 L 172.0 139.5 L 177.5 139.0 L 177.5 139.0 L 176.5 139.0 L 175.5 139.0 L 174.5 139.0 " stroke="black" fill="none" stroke-width="6.0" stroke-linecap="round" stroke-linejoin="round" />
<path d="M 150.5 102.5 L 150.5 101.0 L 150.5 100.5 L 150.5 100.5 L 150.5 102.0 L 150.5 107.0 L 151.0 115.5 L 151.0 125.5 L 151.5 137.0 L 151.0 148.5 L 150.0 158.0 L 149.0 166.5 L 149.0 172.5 L 149.5 176.0 L 149.5 179.0 L 150.0 180.5 L 150.0 181.0 L 150.0 181.0 L 150.0 181.0 L 150.0 181.0 L 150.0 181.0 L 150.0 180.5 L 150.0 180.5 L 150.5 179.5 L 150.5 178.5 " stroke="black" fill="none" stroke-width="6.0" stroke-linecap="round" stroke-linejoin="round" />
<path d="M 142.5 150.5 L 142.5 150.5 L 142.5 150.5 L 142.5 151.0 L 141.5 152.5 L 137.0 156.5 L 130.5 163.0 L 125.5 167.5 L 124.5 168.0 L 125.0 168.5 " stroke="black" fill="none" stroke-width="6.0" stroke-linecap="round" stroke-linejoin="round" />
<path d="M 162.5 154.0 L 162.5 155.0 L 162.0 155.5 L 162.0 155.5 L 164.5 157.5 L 169.5 162.0 L 175.5 167.5 L 181.0 171.0 L 184.0 171.5 L 184.0 171.5 " stroke="black" fill="none" stroke-width="6.0" stroke-linecap="round" stroke-linejoin="round" />
</svg>