<svg xmlns="http://www.w3.org/2000/svg" width="300" height="300" viewBox="0 0 300 300">
<path d="M 128.0 117.5 L 128.0 117.5 L 128.5 117.5 L 129.0 117.5 L 129.0 117.5 L 130.0 119.5 L 132.0 123.5 L 134.0 127.5 L 135.0 129.5 L 136.0 130.5 L 136.5 130.5 " stroke="black" fill="none" stroke-width="6.0" stroke-linecap="round" stroke-linejoin="round" />
<path d="M 126.0 147.0 L 126.0 147.0 L 126.5 147.0 L 127.0 147.5 L 128.0 148.5 L 129.0 150.5 L 130.0 153.5 L 131.0 156.5 L 132.0 158.0 L 132.5 159.0 " stroke="black" fill="none" stroke-width="6.0" stroke-linecap="round" stroke-linejoin="round" />
<path d="M 123.5 183.0 L 123.0 182.5 L 123.0 182.0 L 123.0 182.0 L 125.0 180.0 L 128.0 177.0 L 131.5 172.5 L 133.0 169.5 L 133.0 168.5 " stroke="black" fill="none" stroke-width="6.0" stroke-linecap="round" stroke-linejoin="round" />
<path d="M 146.5 120.0 L 146.5 120.0 L 146.5 119.5 L 147.0 119.5 L 148.5 119.0 L 151.5 117.5 L 157.0 116.0 L 163.5 113.5 L 169.0 112.0 L 171.5 110.5 L 171.5 110.5 L 171.5 110.5 L 171.5 110.5 L 171.5 110.5 " stroke="black" fill="none" stroke-width="6.0" stroke-linecap="round" stroke-linejoin="round" />
<path d="M 149.5 129.5 L 148.5 130.0 L 148.0 131.0 L 148.0 131.0 L 147.5 131.5 L 148.0 131.5 L 149.5 132.0 L 151.5 132.5 L 153.5 133.0 L 155.5 133.0 L 157.0 133.0 L 158.0 133.0 " stroke="black" fill="none" stroke-width="6.0" stroke-linecap="round" stroke-linejoin="round" />
<path d="M 164.5 122.5 L 164.5 122.0 L 164.0 121.5 L 164.0 121.5 L 164.0 122.0 L 165.0 123.0 L 165.5 125.0 L 166.0 127.0 " stroke="black" fill="none" stroke-width="6.0" stroke-linecap="round" stroke-linejoin="round" />
<path d="M 175.5 120.5 L 176.0 120.5 L 176.0 120.5 L 176.5 120.0 L 176.5 120.0 L 176.5 121.0 L 176.5 123.0 L 176.0 125.5 L 175.5 128.0 L 174.5 130.0 " stroke="black" fill="none" stroke-width="6.0" stroke-linecap="round" stroke-linejoin="round" />
<path d="M 149.5 143.0 L 149.5 142.5 L 149.0 142.0 L 149.0 141.5 L 149.0 141.5 L 151.0 141.5 L 154.0 141.0 L 159.0 140.0 L 163.5 139.5 L 167.0 138.5 L 169.0 138.5 L 170.0 138.5 L 170.0 138.5 L 170.0 139.0 L 170.0 139.5 L 170.0 140.0 L 169.5 140.5 L 169.0 142.0 L 168.0 143.5 L 167.0 145.5 L 165.5 147.5 L 164.0 149.5 L 163.0 150.5 L 162.5 151.5 L 162.5 151.5 L 162.5 152.0 L 162.5 152.5 L 163.5 154.0 L 164.5 155.5 L 165.5 157.5 L 166.0 160.5 L 166.5 164.0 L 167.0 168.5 L 167.0 173.0 L 167.0 178.0 L 167.0 182.0 L 166.5 185.5 L 166.0 187.0 L 165.0 187.5 L 163.5 187.0 L 161.0 185.0 L 158.0 181.5 L 156.0 178.5 L 155.5 177.5 " stroke="black" fill="none" stroke-width="6.0" stroke-linecap="round" stroke-linejoin="round" />
<path d="M 150.0 161.5 L 149.5 161.5 L 148.5 161.5 L 148.0 161.5 L 148.5 161.0 L 151.0 160.5 L 156.5 159.5 L 164.0 158.5 L 173.0 157.5 L 180.5 156.5 L 184.5 156.0 L 185.5 156.0 L 185.5 155.5 " stroke="black" fill="none" stroke-width="6.0" stroke-linecap="round" stroke-linejoin="round" />
</svg>