<svg xmlns="http://www.w3.org/2000/svg" width="300" height="300" viewBox="0 0 300 300">
<path d="M 119.0 133.5 L 118.5 134.0 L 118.0 134.5 L 118.0 134.5 L 120.0 134.0 L 124.0 133.0 L 128.0 132.5 L 132.5 132.0 L 135.5 131.0 L 137.5 130.5 L 138.0 130.5 " stroke="black" fill="none" stroke-width="6.0" stroke-linecap="round" stroke-linejoin="round" />
<path d="M 131.5 115.0 L 131.5 115.0 L 131.5 115.5 L 132.0 116.5 L 132.0 119.0 L 132.0 126.5 L 131.0 141.0 L 130.0 158.5 L 129.5 173.5 L 129.5 184.0 L 129.5 189.5 L 129.5 189.5 L 129.5 186.5 " stroke="black" fill="none" stroke-width="6.0" stroke-linecap="round" stroke-linejoin="round" />
<path d="M 128.0 141.0 L 128.0 141.0 L 127.5 140.5 L 127.5 140.0 L 127.5 140.0 L 126.5 143.0 L 124.0 150.0 L 119.5 158.5 L 116.5 164.5 L 116.0 165.5 L 116.0 164.5 " stroke="black" fill="none" stroke-width="6.0" stroke-linecap="round" stroke-linejoin="round" />
<path d="M 133.0 141.0 L 133.0 141.0 L 133.0 141.0 L 133.5 142.0 L 135.5 145.5 L 140.0 150.0 L 144.0 153.5 L 146.5 154.0 " stroke="black" fill="none" stroke-width="6.0" stroke-linecap="round" stroke-linejoin="round" />
<path d="M 153.0 124.0 L 153.0 124.0 L 153.0 123.5 L 153.5 123.5 L 153.5 127.5 L 153.5 139.0 L 153.0 157.5 L 152.5 172.5 L 152.5 179.5 L 152.5 180.0 L 152.5 179.0 " stroke="black" fill="none" stroke-width="6.0" stroke-linecap="round" stroke-linejoin="round" />
<path d="M 155.5 125.5 L 155.0 126.5 L 154.5 127.5 L 154.5 128.0 L 155.5 128.0 L 158.5 127.5 L 162.0 125.5 L 165.5 124.0 L 169.0 123.0 L 173.5 123.0 L 174.0 126.0 L 174.0 132.0 L 173.5 142.0 L 172.0 155.5 L 172.0 166.0 L 172.0 172.5 L 172.0 175.0 L 172.0 175.0 L 172.0 173.5 " stroke="black" fill="none" stroke-width="6.0" stroke-linecap="round" stroke-linejoin="round" />
<path d="M 154.5 145.0 L 154.5 144.0 L 154.5 143.0 L 154.5 142.5 L 157.5 142.0 L 162.5 141.5 L 167.5 141.5 L 171.0 141.0 L 172.0 141.0 " stroke="black" fill="none" stroke-width="6.0" stroke-linecap="round" stroke-linejoin="round" />
<path d="M 158.5 160.0 L 157.5 161.5 L 157.0 162.5 L 158.0 162.5 L 161.0 160.5 L 165.0 158.5 L 168.5 157.0 L 170.5 156.5 " stroke="black" fill="none" stroke-width="6.0" stroke-linecap="round" stroke-linejoin="round" />
<path d="M 150.5 187.5 L 150.5 187.0 L 150.5 186.5 L 151.5 186.0 L 155.5 185.0 L 162.5 183.5 L 169.5 183.0 L 171.0 182.5 " stroke="black" fill="none" stroke-width="6.0" stroke-linecap="round" stroke-linejoin="round" />
</svg>