<svg xmlns="http://www.w3.org/2000/svg" width="300" height="300" viewBox="0 0 300 300">
<path d="M 138.5 123.0 L 138.5 123.0 L 139.0 123.0 L 139.0 123.0 L 139.5 123.0 L 139.5 124.0 L 136.5 127.5 L 130.5 136.0 L 125.0 143.5 L 121.5 148.0 L 120.5 149.0 L 121.0 149.0 L 121.5 149.0 " stroke="black" fill="none" stroke-width="6.0" stroke-linecap="round" stroke-linejoin="round" />
<path d="M 156.0 117.0 L 156.0 117.5 L 155.5 118.5 L 155.5 118.5 L 155.5 119.5 L 158.5 122.5 L 164.0 128.0 L 170.0 135.5 L 175.0 143.0 L 179.0 149.0 L 181.5 151.5 L 183.5 152.0 L 184.0 152.0 L 183.5 151.5 " stroke="black" fill="none" stroke-width="6.0" stroke-linecap="round" stroke-linejoin="round" />
<path d="M 146.5 140.5 L 146.5 140.0 L 146.5 139.0 L 146.5 138.5 L 146.5 138.0 L 146.5 137.5 L 146.5 138.0 L 145.5 141.5 L 141.0 148.5 L 134.0 159.0 L 128.0 168.0 L 126.0 171.5 L 125.5 172.5 L 125.5 172.0 L 126.0 172.0 L 128.0 171.0 L 132.0 170.0 L 137.5 169.5 L 145.5 169.0 L 154.0 168.5 L 160.0 168.0 L 162.5 168.0 L 162.5 168.0 L 162.0 168.0 L 161.5 168.0 L 161.5 168.0 " stroke="black" fill="none" stroke-width="6.0" stroke-linecap="round" stroke-linejoin="round" />
<path d="M 157.5 152.0 L 157.5 152.5 L 158.0 153.5 L 158.5 154.0 L 159.5 156.0 L 162.0 162.0 L 165.0 170.5 L 168.0 175.5 L 169.5 178.5 L 171.0 180.0 " stroke="black" fill="none" stroke-width="6.0" stroke-linecap="round" stroke-linejoin="round" />
</svg>