<svg xmlns="http://www.w3.org/2000/svg" width="300" height="300" viewBox="0 0 300 300">
<path d="M 121.5 104.0 L 121.5 104.0 L 121.5 103.5 L 121.5 103.0 L 121.5 103.0 L 122.0 102.5 L 122.0 102.0 L 122.5 101.5 L 122.5 101.5 L 123.0 101.5 L 123.0 103.0 L 120.5 108.0 L 117.0 115.0 L 114.5 119.5 L 114.5 120.5 L 115.5 119.5 " stroke="black" fill="none" stroke-width="6.0" stroke-linecap="round" stroke-linejoin="round" />
<path d="M 123.0 108.5 L 121.5 110.0 L 121.0 110.5 L 121.0 110.5 L 121.5 110.0 L 124.5 109.0 L 129.5 107.5 L 135.0 106.0 L 142.0 104.0 L 147.5 102.5 L 150.0 102.0 L 150.0 102.0 L 148.5 102.0 L 147.0 103.0 L 146.5 103.5 " stroke="black" fill="none" stroke-width="6.0" stroke-linecap="round" stroke-linejoin="round" />
<path d="M 127.5 120.0 L 128.0 118.5 L 128.0 117.5 L 128.0 117.0 L 128.0 117.0 L 128.0 117.0 L 128.0 118.0 L 127.5 120.0 L 127.0 124.0 L 125.0 130.0 L 122.5 138.5 L 121.0 145.5 L 120.5 149.5 L 120.5 151.0 L 122.0 151.0 L 124.0 151.0 L 126.5 151.0 L 128.5 150.5 L 130.5 149.5 L 132.0 148.5 " stroke="black" fill="none" stroke-width="6.0" stroke-linecap="round" stroke-linejoin="round" />
<path d="M 131.0 117.0 L 130.0 117.5 L 129.0 118.5 L 128.5 119.0 L 128.5 119.0 L 130.5 119.0 L 134.5 118.5 L 139.0 117.5 L 143.0 116.0 L 146.0 115.0 L 147.5 114.5 L 148.0 114.5 L 147.5 114.5 L 147.5 115.0 L 147.0 115.5 L 146.5 117.0 L 146.0 119.0 L 145.5 122.5 L 144.5 127.0 L 143.0 133.0 L 142.0 140.5 L 140.5 148.0 L 139.5 153.5 L 139.0 157.5 L 138.5 161.0 L 137.5 163.5 L 137.0 164.0 L 136.5 164.0 L 135.0 163.5 L 134.0 162.0 L 133.0 160.0 " stroke="black" fill="none" stroke-width="6.0" stroke-linecap="round" stroke-linejoin="round" />
<path d="M 134.0 125.0 L 134.0 125.0 L 134.0 125.5 L 134.0 125.5 L 134.0 126.0 L 134.5 126.0 L 135.0 127.0 L 135.5 128.5 L 135.5 128.5 " stroke="black" fill="none" stroke-width="6.0" stroke-linecap="round" stroke-linejoin="round" />
<path d="M 113.5 135.0 L 113.5 135.5 L 113.5 135.5 L 114.0 136.0 L 117.0 135.0 L 123.5 133.0 L 132.0 131.0 L 140.5 129.5 L 146.5 128.0 L 147.5 128.0 " stroke="black" fill="none" stroke-width="6.0" stroke-linecap="round" stroke-linejoin="round" />
<path d="M 130.0 140.5 L 130.0 140.5 L 130.5 141.0 L 131.0 141.5 L 132.0 142.5 L 133.5 144.0 L 134.0 144.5 " stroke="black" fill="none" stroke-width="6.0" stroke-linecap="round" stroke-linejoin="round" />
<path d="M 163.5 101.0 L 164.5 99.0 L 165.0 97.5 L 165.0 97.5 L 165.0 97.5 L 164.0 100.5 L 161.5 105.0 L 159.5 108.5 L 158.0 112.0 L 157.0 113.0 " stroke="black" fill="none" stroke-width="6.0" stroke-linecap="round" stroke-linejoin="round" />
<path d="M 160.0 108.0 L 160.0 109.0 L 160.0 110.0 L 160.5 110.5 L 162.0 110.5 L 165.0 109.5 L 170.5 107.5 L 176.5 105.5 L 182.0 103.5 L 186.0 103.0 L 186.5 103.0 L 186.5 103.5 L 185.0 104.0 " stroke="black" fill="none" stroke-width="6.0" stroke-linecap="round" stroke-linejoin="round" />
<path d="M 178.5 107.0 L 179.5 107.0 L 180.0 107.5 L 180.5 107.5 L 180.5 108.5 L 179.5 112.0 L 177.0 119.0 L 172.0 128.5 L 165.0 139.5 L 160.0 145.0 L 157.0 146.5 L 156.5 146.5 L 156.5 146.5 L 157.0 145.5 " stroke="black" fill="none" stroke-width="6.0" stroke-linecap="round" stroke-linejoin="round" />
<path d="M 162.5 118.5 L 162.5 118.5 L 161.5 117.5 L 161.0 117.5 L 161.5 119.0 L 164.5 123.5 L 170.0 129.0 L 177.0 134.0 L 186.0 137.0 L 193.5 139.0 L 197.0 140.5 " stroke="black" fill="none" stroke-width="6.0" stroke-linecap="round" stroke-linejoin="round" />
<path d="M 149.0 158.0 L 149.5 157.0 L 150.0 156.0 L 150.5 155.5 L 151.0 154.5 L 151.5 154.0 L 152.0 154.0 L 152.5 154.0 L 152.5 155.5 L 152.0 159.0 L 148.5 165.0 L 143.5 171.5 L 139.0 176.5 L 136.5 179.5 L 135.5 180.0 L 135.5 180.0 L 136.0 179.5 L 136.5 179.5 L 137.5 179.0 L 140.5 178.0 L 145.0 176.5 L 149.5 175.0 L 154.0 173.5 L 157.0 173.0 L 158.0 172.5 " stroke="black" fill="none" stroke-width="6.0" stroke-linecap="round" stroke-linejoin="round" />
<path d="M 170.5 155.5 L 170.5 155.5 L 170.5 155.5 L 170.5 156.0 L 170.5 156.0 L 169.5 157.5 L 167.5 161.0 L 163.5 166.5 L 158.5 173.0 L 152.0 179.5 L 146.5 185.5 L 142.0 189.5 L 137.5 192.5 L 134.5 193.5 L 133.0 194.0 L 132.5 194.0 L 132.5 194.0 L 134.0 193.0 L 136.5 192.0 L 140.0 191.5 L 144.5 190.5 L 150.0 189.0 L 157.5 187.0 L 164.5 185.0 L 169.0 184.5 L 170.5 184.5 L 170.5 184.5 L 170.5 184.5 " stroke="black" fill="none" stroke-width="6.0" stroke-linecap="round" stroke-linejoin="round" />
<path d="M 174.5 172.0 L 174.5 172.5 L 174.5 173.0 L 174.5 174.0 L 174.5 175.0 L 175.5 178.0 L 178.0 182.5 L 181.0 186.5 L 184.0 189.5 L 184.5 190.0 " stroke="black" fill="none" stroke-width="6.0" stroke-linecap="round" stroke-linejoin="round" />
<path d="M 154.0 196.5 L 154.0 196.0 L 154.5 195.5 L 155.0 195.0 L 155.0 194.0 L 155.5 193.5 L 155.5 193.5 L 156.0 193.5 L 156.0 196.0 L 156.5 201.5 L 156.5 207.5 L 157.0 213.0 L 157.0 215.5 L 157.0 216.0 L 155.5 216.0 L 153.5 215.5 L 151.0 215.0 L 149.0 213.5 " stroke="black" fill="none" stroke-width="6.0" stroke-linecap="round" stroke-linejoin="round" />
<path d="M 142.5 202.0 L 142.5 202.0 L 142.5 202.5 L 141.5 203.0 L 139.5 205.0 L 135.5 208.0 L 132.5 211.0 L 131.5 212.0 L 131.5 212.0 " stroke="black" fill="none" stroke-width="6.0" stroke-linecap="round" stroke-linejoin="round" />
<path d="M 172.5 199.5 L 172.5 200.5 L 172.5 201.0 L 173.5 203.0 L 176.0 206.0 L 180.5 209.0 L 181.5 210.0 " stroke="black" fill="none" stroke-width="6.0" stroke-linecap="round" stroke-linejoin="round" />
</svg>