<svg xmlns="http://www.w3.org/2000/svg" width="300" height="300" viewBox="0 0 300 300">
<path d="M 132.0 103.5 L 132.0 103.0 L 131.5 102.0 L 131.5 102.0 L 131.5 103.5 L 132.0 108.5 L 132.5 114.5 L 133.0 120.0 L 133.0 123.0 L 134.0 123.5 L 134.0 123.0 " stroke="black" fill="none" stroke-width="6.0" stroke-linecap="round" stroke-linejoin="round" />
<path d="M 133.0 102.5 L 133.0 102.5 L 132.0 102.0 L 131.0 101.5 L 131.0 101.5 L 132.0 101.5 L 135.5 101.5 L 140.0 101.5 L 146.5 101.5 L 155.0 101.0 L 164.0 101.0 L 170.0 100.5 L 173.0 100.5 L 174.5 100.5 L 174.5 100.5 L 174.5 100.5 L 174.0 100.5 L 174.0 100.5 L 173.5 101.5 L 173.0 103.5 L 172.0 107.5 L 171.0 112.5 L 169.5 118.0 L 169.0 121.5 L 169.0 123.0 L 169.0 122.5 L 168.5 122.0 " stroke="black" fill="none" stroke-width="6.0" stroke-linecap="round" stroke-linejoin="round" />
<path d="M 139.5 112.5 L 138.0 113.0 L 137.0 113.0 L 139.5 113.0 L 144.5 113.0 L 152.5 112.5 L 161.5 112.0 L 167.5 112.0 L 170.0 112.5 L 170.5 112.5 " stroke="black" fill="none" stroke-width="6.0" stroke-linecap="round" stroke-linejoin="round" />
<path d="M 152.5 104.5 L 152.5 104.5 L 153.0 103.5 L 153.0 103.0 L 153.0 103.0 L 153.0 103.5 L 153.0 106.5 L 153.0 111.5 L 153.0 118.5 L 153.0 123.5 L 153.5 125.0 L 153.5 125.0 " stroke="black" fill="none" stroke-width="6.0" stroke-linecap="round" stroke-linejoin="round" />
<path d="M 133.5 125.5 L 133.5 125.5 L 134.0 125.0 L 134.5 125.0 L 136.0 125.0 L 139.5 125.0 L 146.0 125.0 L 154.5 124.5 L 163.0 123.5 L 168.5 123.0 L 169.5 123.0 " stroke="black" fill="none" stroke-width="6.0" stroke-linecap="round" stroke-linejoin="round" />
<path d="M 132.0 139.0 L 132.0 139.0 L 132.0 139.0 L 132.0 139.0 L 132.0 139.0 L 132.0 139.0 L 132.0 139.0 L 132.5 139.0 L 135.5 139.0 L 143.0 138.5 L 153.0 138.0 L 162.0 137.5 L 167.5 137.5 L 170.5 137.5 L 170.5 137.5 L 170.5 137.5 L 170.0 137.5 L 170.0 137.5 L 170.0 137.5 L 170.0 137.5 L 169.5 137.5 " stroke="black" fill="none" stroke-width="6.0" stroke-linecap="round" stroke-linejoin="round" />
<path d="M 143.5 130.0 L 143.5 130.0 L 143.5 130.5 L 144.0 130.5 L 144.0 131.0 L 144.5 132.0 L 144.5 135.5 L 144.5 140.0 L 145.0 144.5 L 145.0 147.0 L 145.5 147.0 " stroke="black" fill="none" stroke-width="6.0" stroke-linecap="round" stroke-linejoin="round" />
<path d="M 165.5 129.5 L 165.5 129.5 L 165.5 130.0 L 165.5 130.0 L 165.0 130.5 L 165.0 132.0 L 165.0 135.5 L 164.5 141.0 L 164.5 145.5 L 164.5 148.0 L 164.5 148.0 " stroke="black" fill="none" stroke-width="6.0" stroke-linecap="round" stroke-linejoin="round" />
<path d="M 124.0 151.0 L 124.0 151.0 L 125.0 151.0 L 126.0 151.0 L 127.0 151.0 L 131.0 151.0 L 138.5 151.0 L 149.5 151.0 L 161.5 150.5 L 171.5 150.0 L 176.0 150.0 L 177.5 150.0 L 177.5 150.5 L 177.0 150.5 L 176.5 150.5 L 176.5 150.5 L 175.5 150.5 " stroke="black" fill="none" stroke-width="6.0" stroke-linecap="round" stroke-linejoin="round" />
<path d="M 142.5 161.0 L 142.5 161.0 L 142.5 161.0 L 142.5 161.0 L 142.5 161.0 L 142.5 161.0 L 142.0 161.0 L 140.5 162.5 L 137.5 165.5 L 134.5 168.5 L 133.0 170.0 L 133.0 170.0 " stroke="black" fill="none" stroke-width="6.0" stroke-linecap="round" stroke-linejoin="round" />
<path d="M 163.0 160.0 L 162.5 160.0 L 161.5 160.0 L 161.5 160.0 L 163.5 161.0 L 166.5 163.0 L 171.5 165.5 L 177.0 168.5 L 181.0 171.5 L 183.0 172.5 L 183.5 173.0 " stroke="black" fill="none" stroke-width="6.0" stroke-linecap="round" stroke-linejoin="round" />
</svg>