<svg xmlns="http://www.w3.org/2000/svg" width="300" height="300" viewBox="0 0 300 300">
<path d="M 126.0 119.0 L 126.0 119.0 L 126.0 118.5 L 126.0 118.0 L 127.5 118.0 L 131.0 118.0 L 139.0 118.0 L 150.5 116.5 L 161.5 114.0 L 167.5 113.5 L 170.0 113.5 L 170.5 113.5 L 170.5 114.0 L 170.5 114.0 L 170.0 114.0 " stroke="black" fill="none" stroke-width="6.0" stroke-linecap="round" stroke-linejoin="round" />
<path d="M 130.5 134.0 L 130.5 134.0 L 130.5 133.5 L 130.5 133.5 L 130.5 133.0 L 130.5 132.5 L 131.5 132.5 L 132.0 134.0 L 133.0 136.5 L 133.5 139.0 L 133.5 139.5 " stroke="black" fill="none" stroke-width="6.0" stroke-linecap="round" stroke-linejoin="round" />
<path d="M 133.0 131.0 L 132.5 131.0 L 132.5 130.5 L 132.0 130.5 L 132.0 130.0 L 134.5 129.5 L 139.5 129.0 L 146.5 129.0 L 155.0 129.0 L 161.5 129.0 L 165.5 129.0 L 167.0 129.0 L 167.0 129.0 L 167.0 128.5 L 166.5 128.5 L 166.5 128.5 L 166.5 128.5 L 166.0 129.5 L 165.0 131.0 L 164.5 134.0 L 163.5 136.5 L 163.0 138.5 L 163.0 139.0 " stroke="black" fill="none" stroke-width="6.0" stroke-linecap="round" stroke-linejoin="round" />
<path d="M 138.0 143.5 L 137.5 143.5 L 137.0 143.5 L 137.0 143.5 L 139.0 143.5 L 144.5 143.0 L 151.5 142.5 L 158.5 142.5 L 163.0 143.0 L 164.0 143.0 " stroke="black" fill="none" stroke-width="6.0" stroke-linecap="round" stroke-linejoin="round" />
<path d="M 131.0 154.0 L 130.5 154.0 L 130.0 154.0 L 130.0 153.5 L 130.0 153.0 L 132.5 153.0 L 137.5 153.5 L 144.5 154.5 L 153.5 154.5 L 161.5 152.5 L 165.5 151.0 L 166.0 151.0 L 165.5 151.0 L 165.0 151.5 L 165.0 152.0 L 165.0 153.5 L 164.5 156.0 L 164.0 160.0 L 163.5 165.0 L 162.5 169.5 L 162.5 171.5 L 162.5 172.5 " stroke="black" fill="none" stroke-width="6.0" stroke-linecap="round" stroke-linejoin="round" />
<path d="M 130.0 166.0 L 129.0 165.0 L 128.5 164.5 L 128.5 164.5 L 131.5 164.5 L 136.5 165.0 L 144.0 165.5 L 154.0 165.0 L 163.0 163.5 L 170.0 162.0 L 173.5 162.0 L 174.0 162.0 " stroke="black" fill="none" stroke-width="6.0" stroke-linecap="round" stroke-linejoin="round" />
<path d="M 128.5 176.0 L 128.5 176.5 L 128.0 177.0 L 127.5 177.0 L 129.0 177.0 L 133.5 177.0 L 140.5 176.5 L 149.0 175.5 L 157.5 174.5 L 163.0 174.5 L 164.0 174.5 " stroke="black" fill="none" stroke-width="6.0" stroke-linecap="round" stroke-linejoin="round" />
<path d="M 149.5 106.5 L 149.5 106.0 L 149.5 105.5 L 149.5 105.0 L 149.5 104.5 L 149.5 105.0 L 149.5 108.5 L 149.5 115.5 L 149.5 125.5 L 149.0 136.0 L 149.0 146.0 L 148.5 154.0 L 148.5 162.5 L 148.5 170.5 L 148.5 176.0 L 148.5 181.5 L 149.5 185.5 L 149.5 188.0 L 150.0 190.0 L 150.0 190.5 L 150.0 191.5 L 150.0 193.0 L 150.0 194.0 L 150.0 194.5 L 150.0 195.0 L 150.0 195.5 L 150.0 196.0 L 150.0 196.5 L 150.0 196.5 L 150.0 196.5 L 150.0 196.5 L 150.0 196.5 L 150.0 196.5 L 150.0 196.5 L 150.0 196.5 L 149.5 196.5 L 149.5 196.5 L 149.5 196.5 L 149.5 196.5 L 149.5 196.5 L 149.5 196.5 L 149.5 196.5 L 149.5 196.5 L 149.5 196.5 L 149.5 196.5 L 149.5 196.5 L 149.0 196.5 L 149.0 196.5 L 148.5 196.5 L 148.5 196.5 L 147.5 196.5 L 146.5 196.5 L 145.0 196.5 L 143.0 197.0 L 140.5 197.5 L 137.0 197.5 L 134.5 197.5 L 132.5 197.0 L 132.0 197.0 L 132.0 196.5 L 132.0 196.5 " stroke="black" fill="none" stroke-width="6.0" stroke-linecap="round" stroke-linejoin="round" />
</svg>