<svg xmlns="http://www.w3.org/2000/svg" width="300" height="300" viewBox="0 0 300 300">
<path d="M 132.0 103.5 L 132.0 103.5 L 132.0 104.5 L 131.5 105.0 L 131.5 105.5 L 131.0 106.0 L 131.0 106.0 L 130.5 106.5 L 130.0 106.5 L 130.0 106.0 L 130.0 105.5 L 130.0 105.0 L 130.0 105.0 L 130.5 107.5 L 131.0 113.0 L 131.5 118.5 L 131.5 122.0 L 132.0 122.0 " stroke="black" fill="none" stroke-width="6.0" stroke-linecap="round" stroke-linejoin="round" />
<path d="M 131.5 101.5 L 131.0 101.5 L 129.0 101.5 L 128.0 101.5 L 128.0 101.5 L 129.0 101.5 L 132.0 101.5 L 136.0 101.5 L 140.0 101.5 L 143.5 101.5 L 146.0 101.5 L 147.5 101.5 L 147.5 102.0 L 147.5 102.5 " stroke="black" fill="none" stroke-width="6.0" stroke-linecap="round" stroke-linejoin="round" />
<path d="M 133.5 111.0 L 132.0 112.0 L 131.5 112.5 L 132.0 112.0 L 134.0 111.5 L 137.0 111.0 L 140.0 111.0 L 142.5 111.0 L 145.0 111.0 " stroke="black" fill="none" stroke-width="6.0" stroke-linecap="round" stroke-linejoin="round" />
<path d="M 132.5 118.5 L 132.5 119.0 L 132.0 119.5 L 132.0 119.5 L 132.5 119.5 L 134.5 119.5 L 137.5 119.5 L 141.0 119.5 L 144.0 119.5 " stroke="black" fill="none" stroke-width="6.0" stroke-linecap="round" stroke-linejoin="round" />
<path d="M 123.5 128.0 L 123.5 128.0 L 123.0 128.0 L 122.5 128.0 L 123.5 128.0 L 127.5 128.0 L 133.0 128.0 L 140.0 128.0 L 145.5 128.0 L 148.0 127.5 L 148.5 127.5 " stroke="black" fill="none" stroke-width="6.0" stroke-linecap="round" stroke-linejoin="round" />
<path d="M 133.0 130.0 L 133.5 130.0 L 133.5 130.0 L 134.0 130.0 L 134.0 130.5 L 134.0 132.0 L 132.5 135.5 L 131.0 139.5 L 130.0 142.5 L 129.0 143.5 L 129.0 143.5 L 129.0 143.5 L 130.0 142.5 L 132.0 142.0 L 134.0 141.5 L 137.0 141.5 L 139.5 141.5 L 141.5 141.5 L 143.5 141.5 " stroke="black" fill="none" stroke-width="6.0" stroke-linecap="round" stroke-linejoin="round" />
<path d="M 144.0 137.5 L 143.5 137.5 L 142.5 137.5 L 142.5 138.0 L 144.5 139.5 L 147.0 141.5 L 149.0 144.0 L 150.5 145.5 " stroke="black" fill="none" stroke-width="6.0" stroke-linecap="round" stroke-linejoin="round" />
<path d="M 165.5 108.5 L 165.5 108.5 L 165.5 108.5 L 165.5 108.5 L 165.5 109.0 L 165.5 110.0 L 163.0 113.0 L 158.5 118.0 L 154.5 121.5 L 153.5 122.5 L 153.5 122.5 " stroke="black" fill="none" stroke-width="6.0" stroke-linecap="round" stroke-linejoin="round" />
<path d="M 171.5 117.0 L 171.5 117.5 L 171.5 117.5 L 171.5 118.0 L 171.5 118.5 L 170.5 120.0 L 166.5 124.5 L 161.0 129.0 L 158.0 131.5 L 157.0 131.5 L 157.0 131.5 " stroke="black" fill="none" stroke-width="6.0" stroke-linecap="round" stroke-linejoin="round" />
<path d="M 176.5 128.0 L 176.5 128.5 L 176.5 129.0 L 175.5 130.0 L 173.5 132.5 L 170.5 136.5 L 167.0 140.5 L 164.5 143.5 " stroke="black" fill="none" stroke-width="6.0" stroke-linecap="round" stroke-linejoin="round" />
<path d="M 145.5 150.5 L 145.5 150.5 L 145.5 151.0 L 145.5 151.5 L 145.5 152.0 L 147.5 153.0 L 149.5 153.5 L 151.0 153.5 " stroke="black" fill="none" stroke-width="6.0" stroke-linecap="round" stroke-linejoin="round" />
<path d="M 130.5 155.0 L 130.5 155.0 L 131.0 155.5 L 131.5 155.5 L 131.5 156.0 L 131.5 157.0 L 130.5 159.5 L 130.0 162.5 L 129.5 164.5 " stroke="black" fill="none" stroke-width="6.0" stroke-linecap="round" stroke-linejoin="round" />
<path d="M 131.5 159.5 L 132.5 160.0 L 134.0 160.0 L 137.0 160.0 L 142.0 159.5 L 148.5 159.0 L 156.0 158.5 L 163.0 157.5 L 170.0 156.0 L 175.0 156.0 L 177.0 156.0 L 177.5 156.5 L 177.5 156.5 L 177.0 156.5 L 177.0 157.0 L 176.5 158.0 L 176.0 160.0 L 175.0 162.5 L 174.0 164.5 L 173.5 166.0 L 173.5 167.0 L 173.5 167.0 " stroke="black" fill="none" stroke-width="6.0" stroke-linecap="round" stroke-linejoin="round" />
<path d="M 137.5 168.5 L 137.5 168.5 L 137.5 168.5 L 137.5 168.5 L 138.5 168.5 L 141.0 168.5 L 146.0 168.5 L 152.0 168.5 L 157.5 168.0 L 160.5 167.5 L 162.0 167.5 L 162.5 167.5 L 162.5 167.5 " stroke="black" fill="none" stroke-width="6.0" stroke-linecap="round" stroke-linejoin="round" />
<path d="M 148.5 171.0 L 148.5 171.5 L 148.5 171.5 L 148.0 172.0 L 148.0 173.0 L 148.0 175.0 L 148.0 177.0 L 148.0 178.5 " stroke="black" fill="none" stroke-width="6.0" stroke-linecap="round" stroke-linejoin="round" />
<path d="M 138.5 176.0 L 138.5 176.0 L 138.0 176.0 L 138.0 176.5 L 138.0 176.5 L 138.0 176.5 L 138.0 176.5 L 137.5 177.0 L 137.5 177.5 L 137.0 178.5 L 137.0 178.5 " stroke="black" fill="none" stroke-width="6.0" stroke-linecap="round" stroke-linejoin="round" />
<path d="M 156.5 176.0 L 156.5 176.5 L 156.5 177.5 L 157.0 177.5 L 157.0 177.5 L 157.0 178.0 L 156.0 178.5 L 154.0 180.5 L 150.0 182.5 L 144.0 185.0 L 137.0 187.5 L 132.5 189.5 L 130.5 190.5 L 130.5 191.0 " stroke="black" fill="none" stroke-width="6.0" stroke-linecap="round" stroke-linejoin="round" />
<path d="M 141.5 189.5 L 141.5 189.5 L 141.5 189.0 L 141.5 188.5 L 141.5 188.5 L 142.0 188.5 L 143.0 191.0 L 143.5 195.5 L 144.0 201.0 L 144.0 206.0 L 144.5 209.0 L 145.0 210.5 L 146.0 210.0 " stroke="black" fill="none" stroke-width="6.0" stroke-linecap="round" stroke-linejoin="round" />
<path d="M 146.5 188.0 L 146.0 188.0 L 145.0 188.0 L 144.5 188.0 L 144.5 188.0 L 145.5 187.5 L 147.5 187.5 L 150.0 188.0 L 153.5 188.5 L 158.0 188.5 L 162.5 188.0 L 165.0 187.5 L 166.0 187.5 L 166.0 187.5 L 166.0 187.5 L 166.5 187.5 L 166.5 187.5 L 167.0 188.0 L 167.0 188.5 L 167.0 189.0 L 167.0 190.5 L 167.0 192.0 L 167.0 194.5 L 167.0 197.5 L 167.0 201.5 L 167.0 205.5 L 167.0 209.5 L 168.0 212.0 L 168.5 212.5 L 169.0 212.5 " stroke="black" fill="none" stroke-width="6.0" stroke-linecap="round" stroke-linejoin="round" />
<path d="M 148.5 195.0 L 148.5 195.5 L 148.0 196.0 L 148.0 196.5 L 149.0 196.5 L 151.5 196.5 L 154.5 196.5 L 158.0 196.0 L 161.0 195.5 L 161.5 195.5 " stroke="black" fill="none" stroke-width="6.0" stroke-linecap="round" stroke-linejoin="round" />
<path d="M 150.5 203.5 L 150.0 204.5 L 149.0 205.0 L 148.5 205.5 L 148.5 205.5 L 148.5 205.5 L 150.0 205.0 L 152.0 204.5 L 154.5 204.5 L 157.5 204.5 L 158.5 205.0 " stroke="black" fill="none" stroke-width="6.0" stroke-linecap="round" stroke-linejoin="round" />
<path d="M 146.5 213.5 L 145.5 214.0 L 145.0 214.0 L 145.0 214.0 L 145.0 214.0 L 146.5 214.0 L 150.0 214.0 L 154.0 214.0 L 159.5 214.5 L 164.0 215.0 L 167.5 215.0 " stroke="black" fill="none" stroke-width="6.0" stroke-linecap="round" stroke-linejoin="round" />
<path d="M 151.0 221.0 L 151.5 221.0 L 151.5 221.5 L 151.0 221.5 L 149.0 222.5 L 145.5 224.5 L 142.5 226.5 L 141.5 227.5 L 141.5 227.5 " stroke="black" fill="none" stroke-width="6.0" stroke-linecap="round" stroke-linejoin="round" />
<path d="M 161.0 224.0 L 162.5 225.0 L 164.0 225.5 L 167.0 225.5 L 170.5 226.5 L 174.0 228.5 L 176.5 230.0 " stroke="black" fill="none" stroke-width="6.0" stroke-linecap="round" stroke-linejoin="round" />
</svg>