<svg xmlns="http://www.w3.org/2000/svg" width="300" height="300" viewBox="0 0 300 300">
<path d="M 127.0 114.5 L 128.0 114.5 L 128.5 114.0 L 129.5 114.0 L 132.0 113.5 L 137.5 113.0 L 146.0 112.0 L 156.0 111.5 L 165.0 111.0 L 170.5 111.0 L 172.0 111.0 L 172.0 111.0 L 172.0 111.0 L 172.0 111.0 L 172.0 111.0 L 172.0 111.0 L 172.0 111.0 " stroke="black" fill="none" stroke-width="6.0" stroke-linecap="round" stroke-linejoin="round" />
<path d="M 150.5 115.5 L 150.5 115.5 L 151.5 115.0 L 152.0 115.0 L 152.0 115.0 L 152.0 115.0 L 151.5 116.5 L 150.0 120.0 L 148.0 124.5 L 146.5 127.5 L 145.5 129.0 " stroke="black" fill="none" stroke-width="6.0" stroke-linecap="round" stroke-linejoin="round" />
<path d="M 125.0 134.0 L 125.0 134.0 L 126.0 134.0 L 126.5 134.0 L 126.5 134.0 L 127.0 135.5 L 127.0 139.5 L 127.5 147.0 L 127.5 157.0 L 126.5 166.5 L 126.5 170.5 L 126.5 171.0 L 126.5 169.5 L 126.5 168.0 " stroke="black" fill="none" stroke-width="6.0" stroke-linecap="round" stroke-linejoin="round" />
<path d="M 128.0 131.0 L 128.0 131.0 L 128.0 131.0 L 128.0 131.0 L 128.0 131.0 L 129.5 131.0 L 132.5 131.0 L 138.5 131.0 L 147.0 129.5 L 156.0 128.5 L 162.5 128.0 L 167.0 128.0 L 169.5 128.0 L 170.5 128.5 L 170.5 129.0 L 170.5 129.0 L 170.5 129.0 L 170.5 129.0 L 170.5 129.0 L 171.0 129.0 L 171.0 129.0 L 171.0 129.0 L 171.5 129.5 L 171.5 129.5 L 171.5 129.5 L 171.5 129.5 L 171.5 129.5 L 172.0 129.5 L 172.0 130.0 L 172.0 130.0 L 172.0 130.0 L 172.0 130.5 L 172.0 131.5 L 172.0 133.0 L 172.0 136.5 L 172.0 142.0 L 172.5 148.5 L 173.0 154.5 L 173.5 160.0 L 173.5 163.5 L 173.5 165.0 L 173.5 166.0 L 172.5 167.0 L 171.5 169.0 L 170.5 170.5 L 170.0 171.0 L 168.5 171.0 L 167.0 169.5 L 166.0 168.0 " stroke="black" fill="none" stroke-width="6.0" stroke-linecap="round" stroke-linejoin="round" />
<path d="M 142.0 135.5 L 142.0 135.0 L 142.0 135.0 L 142.0 134.5 L 142.0 134.5 L 142.5 137.0 L 142.5 145.0 L 142.0 156.5 L 141.5 165.0 L 141.5 166.0 " stroke="black" fill="none" stroke-width="6.0" stroke-linecap="round" stroke-linejoin="round" />
<path d="M 155.5 134.0 L 156.0 133.5 L 156.5 133.5 L 157.0 133.0 L 157.0 133.0 L 157.5 133.0 L 157.5 134.5 L 157.5 140.0 L 158.0 148.5 L 158.0 157.0 L 158.0 162.5 L 158.0 163.5 " stroke="black" fill="none" stroke-width="6.0" stroke-linecap="round" stroke-linejoin="round" />
</svg>