<svg xmlns="http://www.w3.org/2000/svg" width="300" height="300" viewBox="0 0 300 300">
<path d="M 147.0 106.5 L 147.5 106.0 L 148.0 105.5 L 148.0 105.5 L 148.0 105.5 L 148.0 106.5 L 148.0 110.5 L 148.5 115.0 L 149.0 119.0 L 149.5 120.5 L 149.5 121.0 " stroke="black" fill="none" stroke-width="6.0" stroke-linecap="round" stroke-linejoin="round" />
<path d="M 150.5 111.5 L 150.5 111.5 L 150.5 112.0 L 150.0 112.5 L 150.0 112.5 L 151.0 112.5 L 154.0 113.0 L 157.5 113.0 L 162.5 113.0 L 167.0 112.0 L 169.0 111.0 L 169.5 110.5 L 169.0 110.5 " stroke="black" fill="none" stroke-width="6.0" stroke-linecap="round" stroke-linejoin="round" />
<path d="M 132.0 126.5 L 132.0 126.5 L 131.5 126.5 L 131.0 126.5 L 131.0 126.5 L 131.0 126.5 L 131.0 126.5 L 131.5 126.5 L 133.5 126.5 L 137.0 127.0 L 143.5 127.0 L 152.5 127.5 L 161.0 128.0 L 167.5 128.0 L 172.5 128.0 L 175.5 128.0 L 177.0 128.5 L 177.5 129.0 L 177.5 129.0 L 177.5 129.0 L 177.5 129.0 L 177.5 129.0 L 177.5 129.0 L 177.5 129.0 L 177.5 129.0 L 177.5 129.0 L 177.5 129.0 L 177.5 129.0 L 177.5 129.0 L 177.5 129.0 L 177.5 129.0 L 177.5 129.0 L 177.5 129.5 L 176.5 131.0 L 175.5 133.0 L 174.5 134.5 L 174.0 136.0 L 174.0 136.5 " stroke="black" fill="none" stroke-width="6.0" stroke-linecap="round" stroke-linejoin="round" />
<path d="M 129.5 129.0 L 129.5 129.0 L 130.0 129.0 L 130.5 129.0 L 130.5 129.0 L 131.0 129.5 L 131.0 131.0 L 131.0 134.5 L 131.0 141.5 L 130.5 151.0 L 129.0 161.5 L 127.5 171.5 L 125.5 179.0 L 124.5 185.0 L 123.5 189.5 L 122.5 192.0 L 122.0 192.5 L 122.0 192.5 L 122.0 192.0 L 122.0 192.0 " stroke="black" fill="none" stroke-width="6.0" stroke-linecap="round" stroke-linejoin="round" />
<path d="M 141.5 145.0 L 140.5 145.0 L 140.0 144.5 L 140.0 144.5 L 140.5 144.5 L 143.0 144.0 L 146.5 143.5 L 150.5 143.0 L 155.0 142.0 L 158.5 141.0 L 160.0 140.5 L 161.0 140.5 L 161.0 140.0 L 161.0 140.5 " stroke="black" fill="none" stroke-width="6.0" stroke-linecap="round" stroke-linejoin="round" />
<path d="M 147.0 136.5 L 147.0 136.5 L 147.0 136.5 L 147.0 136.5 L 147.0 136.5 L 147.5 136.5 L 147.5 137.0 L 147.5 138.5 L 147.5 141.5 L 148.5 145.5 L 149.5 149.0 L 151.5 151.5 L 153.5 153.0 L 156.5 153.0 L 159.5 153.0 L 162.5 152.5 L 165.0 152.0 L 167.0 151.0 L 168.0 150.5 L 168.5 150.0 L 168.5 150.0 L 168.5 149.5 L 168.5 149.5 L 168.5 149.0 L 168.0 149.0 L 167.5 148.5 L 167.0 148.0 L 166.5 148.0 L 166.0 148.0 " stroke="black" fill="none" stroke-width="6.0" stroke-linecap="round" stroke-linejoin="round" />
<path d="M 138.5 162.5 L 138.0 162.0 L 137.0 161.5 L 137.0 161.5 L 137.0 161.5 L 136.5 163.5 L 136.0 167.0 L 135.5 170.0 L 135.5 171.5 " stroke="black" fill="none" stroke-width="6.0" stroke-linecap="round" stroke-linejoin="round" />
<path d="M 138.0 167.5 L 137.5 167.5 L 136.5 167.0 L 136.5 167.0 L 138.0 167.0 L 140.5 167.0 L 143.5 166.5 L 146.0 166.5 L 148.0 166.5 L 149.5 166.5 L 150.5 166.5 L 150.5 167.0 L 150.0 169.0 L 148.0 173.0 L 144.5 180.0 L 139.5 188.0 L 136.0 194.0 L 133.5 196.0 L 131.5 196.0 L 130.0 195.0 L 129.0 194.5 " stroke="black" fill="none" stroke-width="6.0" stroke-linecap="round" stroke-linejoin="round" />
<path d="M 137.0 180.0 L 136.5 180.5 L 136.0 180.5 L 136.5 181.0 L 138.0 182.0 L 141.5 184.5 L 145.5 187.5 L 151.0 190.5 L 158.5 192.0 L 166.5 193.0 L 172.5 194.0 L 176.5 194.5 L 179.5 194.5 L 181.0 194.5 L 182.0 194.0 L 182.0 193.5 L 182.0 193.0 L 182.0 193.0 " stroke="black" fill="none" stroke-width="6.0" stroke-linecap="round" stroke-linejoin="round" />
<path d="M 160.5 165.5 L 160.5 165.0 L 160.0 164.5 L 160.0 164.0 L 160.0 164.0 L 160.0 164.0 L 159.5 166.5 L 159.5 171.5 L 159.0 176.0 L 158.5 179.5 L 158.5 180.0 " stroke="black" fill="none" stroke-width="6.0" stroke-linecap="round" stroke-linejoin="round" />
<path d="M 160.0 164.0 L 159.0 164.0 L 158.5 164.0 L 158.0 164.0 L 159.0 164.0 L 162.0 164.0 L 164.5 163.5 L 166.5 163.0 L 168.5 162.5 L 170.0 162.5 L 171.0 162.0 L 171.0 162.5 L 171.0 163.5 L 171.0 166.0 L 170.0 169.0 L 169.0 173.0 L 168.0 176.5 L 168.0 179.0 L 168.5 180.5 L 170.0 181.0 L 172.0 181.0 L 174.0 180.5 L 176.0 179.0 L 177.0 177.5 L 178.0 176.5 L 178.0 176.5 " stroke="black" fill="none" stroke-width="6.0" stroke-linecap="round" stroke-linejoin="round" />
</svg>