<svg xmlns="http://www.w3.org/2000/svg" width="300" height="300" viewBox="0 0 300 300">
<path d="M 126.0 110.5 L 126.0 110.5 L 126.5 110.5 L 127.0 110.5 L 127.0 110.5 L 127.0 113.0 L 127.0 117.0 L 126.5 120.5 L 126.0 122.5 " stroke="black" fill="none" stroke-width="6.0" stroke-linecap="round" stroke-linejoin="round" />
<path d="M 115.5 116.0 L 115.5 116.0 L 115.5 116.0 L 116.5 116.5 L 119.0 116.5 L 123.5 115.5 L 127.5 115.0 " stroke="black" fill="none" stroke-width="6.0" stroke-linecap="round" stroke-linejoin="round" />
<path d="M 139.0 108.0 L 139.0 108.0 L 139.0 108.5 L 139.0 108.5 L 139.0 109.0 L 139.0 110.5 L 139.0 113.0 L 139.0 115.5 L 139.0 117.0 " stroke="black" fill="none" stroke-width="6.0" stroke-linecap="round" stroke-linejoin="round" />
<path d="M 138.5 113.5 L 138.5 113.5 L 139.0 114.0 L 139.5 114.5 L 142.0 114.5 L 145.5 113.5 L 148.0 113.0 L 149.5 112.5 L 150.0 112.5 " stroke="black" fill="none" stroke-width="6.0" stroke-linecap="round" stroke-linejoin="round" />
<path d="M 121.5 129.0 L 121.5 129.0 L 121.5 129.0 L 121.5 129.0 L 122.0 129.0 L 122.0 129.0 L 122.0 129.0 L 121.0 130.0 L 119.5 132.0 L 118.5 133.5 " stroke="black" fill="none" stroke-width="6.0" stroke-linecap="round" stroke-linejoin="round" />
<path d="M 124.5 129.0 L 124.0 130.0 L 124.0 130.5 L 124.0 130.5 L 126.0 130.5 L 130.0 129.0 L 134.0 128.0 L 138.0 127.5 L 140.5 127.0 L 142.0 127.0 L 143.0 127.0 L 144.0 127.5 L 144.5 128.5 L 145.0 129.5 L 145.5 131.0 L 146.0 133.5 L 146.0 137.0 L 146.0 141.5 L 146.0 147.0 L 146.0 151.5 L 145.0 154.0 L 143.0 155.5 L 141.0 156.0 L 138.5 156.5 L 136.0 155.5 L 135.0 155.0 " stroke="black" fill="none" stroke-width="6.0" stroke-linecap="round" stroke-linejoin="round" />
<path d="M 125.5 140.0 L 125.0 139.0 L 124.5 138.5 L 124.5 138.0 L 124.5 139.0 L 125.5 142.0 L 126.0 144.5 L 126.5 145.5 " stroke="black" fill="none" stroke-width="6.0" stroke-linecap="round" stroke-linejoin="round" />
<path d="M 126.0 141.0 L 126.0 140.5 L 126.0 140.0 L 126.0 139.5 L 127.5 139.0 L 130.0 138.0 L 133.0 137.0 L 135.5 136.5 L 137.5 136.5 L 138.0 137.5 L 138.0 139.5 L 137.5 142.0 L 136.0 144.0 L 135.5 145.5 " stroke="black" fill="none" stroke-width="6.0" stroke-linecap="round" stroke-linejoin="round" />
<path d="M 128.5 147.0 L 128.0 147.0 L 128.0 147.0 L 128.5 146.5 L 130.0 145.5 L 132.5 145.5 L 132.5 145.5 " stroke="black" fill="none" stroke-width="6.0" stroke-linecap="round" stroke-linejoin="round" />
<path d="M 161.5 110.5 L 161.5 110.5 L 161.5 110.0 L 161.0 109.5 L 161.0 110.0 L 160.0 113.5 L 158.5 119.5 L 157.0 125.0 L 156.5 126.5 " stroke="black" fill="none" stroke-width="6.0" stroke-linecap="round" stroke-linejoin="round" />
<path d="M 162.5 119.5 L 163.0 119.5 L 164.0 119.0 L 167.0 118.0 L 172.0 117.0 L 177.0 116.0 L 179.5 115.5 L 180.5 115.5 L 180.5 115.5 L 180.5 115.5 L 180.0 115.5 " stroke="black" fill="none" stroke-width="6.0" stroke-linecap="round" stroke-linejoin="round" />
<path d="M 174.0 120.5 L 174.0 120.0 L 174.0 119.0 L 174.5 118.5 L 174.5 117.5 L 174.5 117.0 L 175.0 117.0 L 175.0 117.0 L 175.0 117.5 L 175.0 120.0 L 174.0 124.5 L 171.0 132.0 L 165.0 142.5 L 158.0 150.5 L 154.0 153.0 L 153.5 153.5 L 153.5 152.5 " stroke="black" fill="none" stroke-width="6.0" stroke-linecap="round" stroke-linejoin="round" />
<path d="M 158.5 129.0 L 158.5 129.5 L 159.5 130.0 L 161.0 131.5 L 165.0 134.5 L 171.0 137.5 L 177.0 140.0 L 183.0 141.5 L 187.0 143.0 L 189.0 144.5 " stroke="black" fill="none" stroke-width="6.0" stroke-linecap="round" stroke-linejoin="round" />
<path d="M 138.0 165.0 L 137.5 165.0 L 137.0 165.0 L 136.5 165.0 L 139.5 164.5 L 148.0 163.0 L 160.5 160.5 L 171.0 158.5 L 175.5 158.5 L 175.5 160.0 L 174.5 161.0 L 174.0 161.5 " stroke="black" fill="none" stroke-width="6.0" stroke-linecap="round" stroke-linejoin="round" />
<path d="M 136.5 169.0 L 137.0 169.0 L 138.0 168.5 L 138.5 168.5 L 139.0 168.5 L 139.5 169.5 L 140.0 173.5 L 140.5 180.5 L 141.0 187.5 L 141.0 192.0 L 142.0 193.5 L 142.0 193.5 L 142.5 193.5 L 143.0 193.5 L 143.5 193.0 L 144.5 192.5 L 146.0 192.0 L 147.5 191.0 L 150.5 190.5 L 155.0 189.5 L 160.5 189.0 L 167.0 188.0 L 173.5 187.5 L 178.0 186.5 L 181.0 186.5 L 182.5 186.5 L 183.0 186.5 L 183.5 186.5 L 183.5 186.5 L 183.5 186.5 L 183.5 186.5 L 183.5 187.0 L 183.5 188.0 L 183.5 190.0 L 184.0 193.5 L 184.5 198.5 L 185.0 205.5 L 185.5 213.0 L 186.0 218.5 L 185.5 222.5 L 184.0 225.0 L 181.5 225.5 L 177.5 225.5 L 173.0 223.5 L 169.5 221.5 L 167.5 219.0 " stroke="black" fill="none" stroke-width="6.0" stroke-linecap="round" stroke-linejoin="round" />
<path d="M 146.5 174.5 L 145.0 174.5 L 145.0 174.0 L 147.0 172.5 L 152.5 170.5 L 159.0 169.5 L 164.0 169.0 L 166.5 169.0 L 168.0 169.5 " stroke="black" fill="none" stroke-width="6.0" stroke-linecap="round" stroke-linejoin="round" />
<path d="M 148.5 182.0 L 148.5 182.0 L 147.0 182.0 L 147.0 182.0 L 150.0 181.0 L 156.0 179.5 L 163.0 177.5 L 168.0 176.0 L 170.0 174.5 " stroke="black" fill="none" stroke-width="6.0" stroke-linecap="round" stroke-linejoin="round" />
<path d="M 154.0 165.0 L 154.5 165.0 L 154.5 165.0 L 155.0 165.5 L 155.5 168.5 L 157.0 175.5 L 158.0 184.5 L 158.0 189.5 " stroke="black" fill="none" stroke-width="6.0" stroke-linecap="round" stroke-linejoin="round" />
<path d="M 131.5 211.5 L 132.0 211.0 L 132.5 210.0 L 133.0 209.5 L 133.0 209.5 L 133.0 210.0 L 132.0 211.0 L 131.5 213.0 L 131.0 214.5 " stroke="black" fill="none" stroke-width="6.0" stroke-linecap="round" stroke-linejoin="round" />
<path d="M 145.0 205.0 L 145.0 205.0 L 144.5 205.0 L 144.5 205.5 L 144.5 206.0 L 145.5 207.5 L 147.0 209.0 L 148.0 210.5 " stroke="black" fill="none" stroke-width="6.0" stroke-linecap="round" stroke-linejoin="round" />
<path d="M 154.0 204.0 L 154.5 204.0 L 155.0 204.0 L 155.5 204.0 L 156.0 204.0 L 157.0 205.0 L 158.0 206.0 L 159.0 207.0 " stroke="black" fill="none" stroke-width="6.0" stroke-linecap="round" stroke-linejoin="round" />
<path d="M 167.5 201.0 L 167.5 201.0 L 167.5 201.5 L 167.5 201.5 L 168.5 202.0 L 170.5 203.0 L 172.0 204.5 L 173.0 205.0 " stroke="black" fill="none" stroke-width="6.0" stroke-linecap="round" stroke-linejoin="round" />
</svg>