<svg xmlns="http://www.w3.org/2000/svg" width="300" height="300" viewBox="0 0 300 300">
<path d="M 134.5 113.5 L 135.0 113.5 L 135.5 114.0 L 136.0 114.0 L 136.5 114.0 L 136.5 115.5 L 135.0 119.5 L 131.0 127.5 L 126.0 136.0 L 121.0 142.0 L 117.5 143.0 L 116.5 142.5 L 116.0 141.5 " stroke="black" fill="none" stroke-width="7.0" stroke-linecap="round" stroke-linejoin="round" />
<path d="M 129.5 131.0 L 130.0 131.0 L 131.0 131.5 L 131.5 132.0 L 132.5 134.0 L 132.5 140.0 L 132.0 153.0 L 130.5 169.0 L 129.0 180.0 L 129.0 184.5 L 130.0 183.0 " stroke="black" fill="none" stroke-width="7.0" stroke-linecap="round" stroke-linejoin="round" />
<path d="M 150.0 121.5 L 148.5 121.5 L 148.0 121.0 L 147.5 121.0 L 150.0 121.0 L 155.5 121.0 L 161.5 120.5 L 167.0 120.0 L 169.5 119.5 L 170.0 119.5 " stroke="black" fill="none" stroke-width="7.0" stroke-linecap="round" stroke-linejoin="round" />
<path d="M 159.5 107.5 L 159.5 107.5 L 159.0 107.5 L 158.5 107.5 L 158.5 108.0 L 158.5 113.0 L 158.5 122.0 L 158.5 129.5 L 158.0 132.5 L 157.5 133.0 L 157.5 133.0 " stroke="black" fill="none" stroke-width="7.0" stroke-linecap="round" stroke-linejoin="round" />
<path d="M 146.0 138.0 L 145.0 138.5 L 144.0 138.5 L 144.5 138.5 L 147.0 138.5 L 152.0 137.5 L 158.5 136.5 L 164.5 136.5 L 169.0 136.5 L 171.0 136.5 L 171.0 136.5 " stroke="black" fill="none" stroke-width="7.0" stroke-linecap="round" stroke-linejoin="round" />
<path d="M 145.5 151.5 L 145.0 151.5 L 144.5 151.5 L 145.0 151.0 L 148.5 150.0 L 153.5 149.5 L 160.5 149.0 L 166.5 149.0 L 170.0 149.5 L 171.0 150.0 " stroke="black" fill="none" stroke-width="7.0" stroke-linecap="round" stroke-linejoin="round" />
<path d="M 163.0 142.0 L 163.0 142.0 L 162.5 142.0 L 162.0 142.0 L 162.0 142.0 L 162.5 145.0 L 163.0 154.0 L 163.5 165.5 L 163.0 176.5 L 162.5 185.0 L 162.5 190.0 L 161.5 193.0 L 160.5 193.0 L 158.5 193.0 L 156.0 191.5 L 154.0 188.5 L 153.5 187.5 " stroke="black" fill="none" stroke-width="7.0" stroke-linecap="round" stroke-linejoin="round" />
<path d="M 149.0 166.5 L 147.0 166.0 L 146.0 165.5 L 146.0 165.5 L 148.0 168.0 L 151.5 171.0 L 155.5 173.5 L 156.5 174.5 " stroke="black" fill="none" stroke-width="7.0" stroke-linecap="round" stroke-linejoin="round" />
</svg>