<svg xmlns="http://www.w3.org/2000/svg" width="300" height="300" viewBox="0 0 300 300">
<path d="M 130.5 108.5 L 131.0 108.5 L 131.5 108.5 L 132.0 108.5 L 132.5 108.5 L 133.0 109.0 L 133.5 109.5 L 133.0 112.0 L 131.5 116.0 L 129.0 122.5 L 125.0 129.0 L 121.0 134.0 L 118.0 136.5 L 116.5 137.0 L 116.0 137.5 L 115.0 138.0 L 115.0 138.0 " stroke="black" fill="none" stroke-width="7.0" stroke-linecap="round" stroke-linejoin="round" />
<path d="M 124.0 128.5 L 124.0 128.5 L 124.0 128.5 L 124.0 128.5 L 125.0 129.5 L 126.5 135.0 L 128.5 146.0 L 129.5 161.0 L 129.5 174.0 L 129.5 181.5 L 129.5 185.0 L 129.5 185.5 L 129.5 185.0 " stroke="black" fill="none" stroke-width="7.0" stroke-linecap="round" stroke-linejoin="round" />
<path d="M 146.5 116.0 L 146.0 116.0 L 144.5 116.5 L 144.0 117.0 L 145.5 117.0 L 149.0 117.0 L 152.5 117.0 L 156.5 117.0 L 159.5 117.0 L 161.0 116.5 L 161.0 116.5 " stroke="black" fill="none" stroke-width="7.0" stroke-linecap="round" stroke-linejoin="round" />
<path d="M 155.5 105.5 L 156.0 105.5 L 156.0 105.5 L 156.5 106.0 L 156.5 107.5 L 156.5 112.0 L 155.5 118.0 L 155.0 124.0 L 155.0 127.0 L 155.0 127.5 " stroke="black" fill="none" stroke-width="7.0" stroke-linecap="round" stroke-linejoin="round" />
<path d="M 140.5 133.0 L 139.5 133.0 L 139.0 133.5 L 139.0 133.5 L 142.5 133.5 L 148.5 132.5 L 156.0 131.5 L 163.0 131.0 L 166.5 130.5 L 168.0 131.5 " stroke="black" fill="none" stroke-width="7.0" stroke-linecap="round" stroke-linejoin="round" />
<path d="M 142.0 147.5 L 141.0 147.5 L 140.5 147.5 L 141.0 147.5 L 144.5 147.5 L 150.0 146.5 L 156.5 145.5 L 162.0 145.0 L 165.5 145.0 L 166.0 144.5 " stroke="black" fill="none" stroke-width="7.0" stroke-linecap="round" stroke-linejoin="round" />
<path d="M 160.0 138.5 L 160.0 138.5 L 160.0 138.5 L 160.0 138.5 L 160.0 138.5 L 160.0 139.0 L 160.5 143.5 L 162.0 155.0 L 163.0 168.0 L 164.0 177.0 L 164.0 183.5 L 163.0 186.5 L 162.0 187.0 L 160.0 187.0 L 157.0 185.0 L 154.0 183.5 L 152.5 182.0 L 152.0 181.5 " stroke="black" fill="none" stroke-width="7.0" stroke-linecap="round" stroke-linejoin="round" />
<path d="M 146.5 159.5 L 145.5 159.5 L 144.5 159.5 L 144.0 160.0 L 147.0 162.5 L 150.5 165.5 L 154.0 167.5 " stroke="black" fill="none" stroke-width="7.0" stroke-linecap="round" stroke-linejoin="round" />
</svg>