<svg xmlns="http://www.w3.org/2000/svg" width="300" height="300" viewBox="0 0 300 300">
<path d="M 121.5 117.5 L 120.5 117.5 L 120.0 117.5 L 120.0 117.5 L 121.5 117.0 L 126.0 117.0 L 131.5 117.0 L 137.0 117.0 L 142.0 116.5 L 144.0 116.0 L 144.0 116.5 L 144.0 116.5 " stroke="black" fill="none" stroke-width="5.0" stroke-linecap="round" stroke-linejoin="round" />
<path d="M 133.5 107.0 L 133.5 107.0 L 132.5 107.0 L 132.0 107.0 L 132.0 107.5 L 132.0 109.5 L 132.0 115.5 L 132.0 125.5 L 131.5 137.0 L 130.5 148.0 L 129.5 158.0 L 128.5 165.5 L 128.5 171.5 L 128.5 176.0 L 129.0 178.5 L 129.0 180.5 L 129.0 181.0 L 129.0 181.0 L 129.0 181.0 L 128.5 181.0 L 128.0 181.0 L 127.0 181.0 L 125.5 180.0 L 124.0 179.0 L 122.5 178.5 L 121.5 178.0 L 120.5 178.0 L 120.0 177.5 L 119.0 177.5 L 118.5 177.0 " stroke="black" fill="none" stroke-width="5.0" stroke-linecap="round" stroke-linejoin="round" />
<path d="M 118.0 164.0 L 117.0 164.0 L 116.0 163.5 L 117.0 163.5 L 120.5 162.0 L 125.5 160.0 L 131.5 157.5 L 137.0 154.5 L 138.5 153.5 " stroke="black" fill="none" stroke-width="5.0" stroke-linecap="round" stroke-linejoin="round" />
<path d="M 152.0 104.5 L 152.0 104.5 L 152.0 104.5 L 151.5 104.5 L 151.5 104.0 L 152.0 104.0 L 155.0 103.5 L 158.5 103.5 L 162.5 103.5 L 165.5 104.0 L 166.5 104.0 " stroke="black" fill="none" stroke-width="5.0" stroke-linecap="round" stroke-linejoin="round" />
<path d="M 152.0 104.0 L 152.0 103.5 L 152.0 103.0 L 152.0 102.5 L 152.0 102.5 L 152.0 103.5 L 152.0 107.0 L 151.5 114.0 L 151.5 123.0 L 151.5 129.0 L 151.5 130.0 L 151.5 127.5 " stroke="black" fill="none" stroke-width="5.0" stroke-linecap="round" stroke-linejoin="round" />
<path d="M 161.0 105.5 L 161.0 105.0 L 160.5 104.5 L 160.5 104.0 L 160.5 103.5 L 160.5 103.5 L 160.5 104.0 L 161.0 107.0 L 161.0 110.0 L 161.0 112.5 L 161.0 113.5 " stroke="black" fill="none" stroke-width="5.0" stroke-linecap="round" stroke-linejoin="round" />
<path d="M 156.0 115.5 L 155.5 115.5 L 154.5 116.0 L 154.5 116.0 L 154.5 116.0 L 155.5 115.0 L 157.5 114.5 L 160.0 114.5 L 162.5 114.0 L 164.5 114.0 L 166.0 114.0 L 167.0 114.0 L 167.0 114.5 L 167.0 115.0 L 167.0 116.5 L 166.5 118.0 L 166.0 119.5 L 165.5 121.0 L 165.0 122.0 L 165.0 122.5 " stroke="black" fill="none" stroke-width="5.0" stroke-linecap="round" stroke-linejoin="round" />
<path d="M 157.0 122.0 L 156.0 122.0 L 155.0 122.0 L 154.5 121.5 L 154.5 121.5 L 155.5 121.5 L 157.5 121.5 L 160.0 121.5 L 162.5 121.5 L 165.0 121.5 L 165.0 121.5 " stroke="black" fill="none" stroke-width="5.0" stroke-linecap="round" stroke-linejoin="round" />
<path d="M 161.0 125.0 L 161.0 125.0 L 160.5 124.0 L 160.5 124.0 L 160.5 123.5 L 160.5 124.0 L 160.5 126.0 L 160.0 128.5 L 160.0 131.0 L 160.0 131.5 " stroke="black" fill="none" stroke-width="5.0" stroke-linecap="round" stroke-linejoin="round" />
<path d="M 150.0 134.5 L 150.5 135.5 L 150.5 136.0 L 151.5 136.0 L 154.0 135.5 L 157.5 135.0 L 161.0 134.5 L 164.5 134.5 L 165.0 134.0 " stroke="black" fill="none" stroke-width="5.0" stroke-linecap="round" stroke-linejoin="round" />
<path d="M 179.5 102.5 L 179.5 102.0 L 179.5 101.5 L 179.5 101.0 L 179.5 101.0 L 179.5 102.5 L 178.5 105.5 L 177.5 109.0 L 176.0 112.0 L 175.0 112.5 L 175.0 112.5 " stroke="black" fill="none" stroke-width="5.0" stroke-linecap="round" stroke-linejoin="round" />
<path d="M 178.5 107.5 L 178.0 108.5 L 178.0 109.0 L 178.5 109.0 L 180.5 109.0 L 184.0 109.0 L 187.5 109.0 L 190.5 108.5 L 192.0 108.5 L 193.0 108.0 L 193.0 108.0 " stroke="black" fill="none" stroke-width="5.0" stroke-linecap="round" stroke-linejoin="round" />
<path d="M 179.0 117.5 L 178.5 117.5 L 178.5 118.0 L 179.0 118.0 L 182.0 118.0 L 186.0 118.0 L 189.0 118.0 L 191.0 118.5 " stroke="black" fill="none" stroke-width="5.0" stroke-linecap="round" stroke-linejoin="round" />
<path d="M 174.0 126.0 L 174.0 126.0 L 174.0 126.0 L 174.0 126.0 L 174.0 126.0 L 174.0 126.0 L 174.5 126.5 L 174.5 128.0 L 175.0 130.0 L 175.0 131.0 L 175.0 131.5 " stroke="black" fill="none" stroke-width="5.0" stroke-linecap="round" stroke-linejoin="round" />
<path d="M 175.0 125.0 L 175.0 125.0 L 175.0 125.0 L 175.5 124.5 L 176.0 124.5 L 177.0 124.5 L 179.5 125.0 L 183.0 125.5 L 187.5 125.5 L 191.0 125.5 L 193.5 125.5 L 194.5 125.5 L 195.0 126.0 L 195.0 126.0 L 195.5 126.0 L 196.0 126.0 L 196.5 126.0 L 196.5 126.0 L 197.0 126.0 L 197.0 126.0 L 197.0 126.0 L 197.0 126.0 L 197.0 126.0 L 197.0 126.5 L 197.0 127.0 L 197.0 128.5 L 196.5 130.5 L 196.0 132.5 L 195.5 134.5 L 195.5 135.5 L 195.0 135.5 " stroke="black" fill="none" stroke-width="5.0" stroke-linecap="round" stroke-linejoin="round" />
<path d="M 183.5 127.0 L 183.0 127.0 L 182.5 127.0 L 182.0 127.0 L 182.0 127.0 L 182.0 128.5 L 182.5 130.5 L 183.0 132.0 L 183.5 132.5 " stroke="black" fill="none" stroke-width="5.0" stroke-linecap="round" stroke-linejoin="round" />
<path d="M 190.0 126.5 L 190.0 127.0 L 190.5 127.5 L 190.5 127.5 L 190.5 128.0 L 190.5 129.0 L 190.5 130.0 L 190.5 132.0 L 190.5 133.5 L 190.5 133.5 " stroke="black" fill="none" stroke-width="5.0" stroke-linecap="round" stroke-linejoin="round" />
<path d="M 177.0 134.5 L 177.0 135.0 L 176.5 135.0 L 176.0 135.5 L 176.0 136.0 L 176.0 136.0 L 178.0 136.5 L 181.5 137.0 L 185.5 137.0 L 189.5 137.0 L 192.5 137.0 " stroke="black" fill="none" stroke-width="5.0" stroke-linecap="round" stroke-linejoin="round" />
<path d="M 158.5 147.5 L 158.5 147.0 L 158.5 146.0 L 158.5 145.5 L 158.5 145.0 L 158.5 146.0 L 158.5 150.5 L 159.0 158.0 L 159.0 164.5 L 160.0 168.0 L 160.5 168.0 " stroke="black" fill="none" stroke-width="5.0" stroke-linecap="round" stroke-linejoin="round" />
<path d="M 160.0 146.0 L 159.0 146.0 L 158.0 146.0 L 158.0 146.0 L 159.0 146.0 L 162.0 146.5 L 166.5 146.5 L 170.5 146.5 L 176.0 146.5 L 181.0 146.0 L 185.0 145.5 L 187.0 145.5 L 187.0 145.5 L 187.0 146.0 L 186.5 146.5 L 186.0 147.5 L 185.5 149.5 L 185.0 153.0 L 184.0 157.5 L 182.5 163.5 L 182.0 169.0 L 181.5 172.5 L 181.5 172.5 L 181.5 171.5 L 182.0 171.0 " stroke="black" fill="none" stroke-width="5.0" stroke-linecap="round" stroke-linejoin="round" />
<path d="M 166.0 154.0 L 165.5 154.5 L 165.0 155.0 L 165.0 155.0 L 166.0 155.0 L 168.5 155.0 L 171.5 155.5 L 175.0 155.5 L 178.0 155.0 L 180.0 155.0 " stroke="black" fill="none" stroke-width="5.0" stroke-linecap="round" stroke-linejoin="round" />
<path d="M 165.5 165.0 L 165.0 165.0 L 164.0 165.0 L 164.0 165.0 L 165.0 165.0 L 167.5 165.0 L 170.5 165.0 L 174.0 165.0 L 177.0 165.5 L 179.0 166.0 " stroke="black" fill="none" stroke-width="5.0" stroke-linecap="round" stroke-linejoin="round" />
<path d="M 162.5 174.0 L 162.0 174.5 L 162.0 174.5 L 162.5 174.5 L 165.0 174.5 L 168.5 174.5 L 172.5 174.0 L 175.5 174.0 L 177.5 174.0 " stroke="black" fill="none" stroke-width="5.0" stroke-linecap="round" stroke-linejoin="round" />
<path d="M 166.5 177.5 L 166.5 177.5 L 167.0 177.5 L 167.0 178.0 L 167.0 178.0 L 165.5 180.0 L 161.5 183.5 L 157.5 187.0 L 155.5 188.5 L 156.0 188.5 " stroke="black" fill="none" stroke-width="5.0" stroke-linecap="round" stroke-linejoin="round" />
<path d="M 174.5 176.5 L 174.5 177.0 L 174.5 177.5 L 174.5 178.0 L 174.5 178.5 L 174.5 180.0 L 175.0 183.0 L 177.0 186.5 L 180.5 189.5 L 185.0 191.0 L 189.5 190.5 L 192.5 188.0 L 194.0 185.5 L 194.0 184.0 L 194.0 182.0 L 194.0 180.5 L 193.5 180.0 " stroke="black" fill="none" stroke-width="5.0" stroke-linecap="round" stroke-linejoin="round" />
</svg>