<svg xmlns="http://www.w3.org/2000/svg" width="300" height="300" viewBox="0 0 300 300">
<path d="M 135.0 118.5 L 135.0 117.5 L 136.0 116.0 L 136.5 115.5 L 136.5 115.5 L 137.0 116.5 L 137.5 121.5 L 138.0 129.0 L 138.5 136.0 L 139.0 140.0 L 139.0 140.0 L 138.5 139.5 " stroke="black" fill="none" stroke-width="6.0" stroke-linecap="round" stroke-linejoin="round" />
<path d="M 136.5 116.0 L 136.5 116.5 L 136.5 117.0 L 136.5 117.0 L 139.0 117.0 L 144.0 117.0 L 150.0 117.0 L 156.0 116.5 L 161.5 115.5 L 165.5 114.5 L 167.0 114.5 L 168.0 114.5 L 168.5 114.5 L 169.0 114.5 L 169.0 115.0 L 169.5 116.0 L 169.5 117.5 L 169.5 121.0 L 169.5 126.0 L 169.5 131.5 L 169.0 136.0 L 169.0 138.5 L 169.0 138.5 L 168.5 138.0 " stroke="black" fill="none" stroke-width="6.0" stroke-linecap="round" stroke-linejoin="round" />
<path d="M 144.0 132.5 L 143.5 133.0 L 142.5 133.5 L 142.5 133.5 L 144.5 133.0 L 149.5 131.5 L 155.0 130.5 L 160.0 130.0 L 163.5 130.0 L 165.5 131.0 L 166.0 131.5 " stroke="black" fill="none" stroke-width="6.0" stroke-linecap="round" stroke-linejoin="round" />
<path d="M 139.5 145.5 L 139.5 144.5 L 139.5 144.0 L 142.5 143.5 L 148.5 143.0 L 155.5 143.0 L 161.5 143.0 L 165.0 143.0 L 166.5 143.5 " stroke="black" fill="none" stroke-width="6.0" stroke-linecap="round" stroke-linejoin="round" />
<path d="M 133.0 156.5 L 133.5 156.5 L 133.5 156.5 L 133.5 156.0 L 136.0 155.5 L 142.5 154.0 L 152.0 153.5 L 159.0 153.0 L 164.5 153.0 L 168.0 154.0 L 170.0 154.5 L 171.5 155.0 L 171.5 155.5 " stroke="black" fill="none" stroke-width="6.0" stroke-linecap="round" stroke-linejoin="round" />
<path d="M 161.0 159.0 L 161.0 159.5 L 161.0 160.0 L 161.0 160.5 L 161.0 163.0 L 161.0 167.5 L 160.0 173.0 L 159.5 176.5 L 158.5 178.0 " stroke="black" fill="none" stroke-width="6.0" stroke-linecap="round" stroke-linejoin="round" />
<path d="M 159.0 169.5 L 159.5 169.0 L 160.0 169.0 L 161.5 168.5 L 164.5 168.5 L 168.5 168.0 L 171.5 168.0 L 173.5 168.5 " stroke="black" fill="none" stroke-width="6.0" stroke-linecap="round" stroke-linejoin="round" />
<path d="M 147.0 163.0 L 147.0 162.5 L 147.0 161.0 L 147.0 160.5 L 147.0 160.5 L 146.5 162.5 L 144.0 169.0 L 140.5 177.0 L 136.0 184.0 L 133.5 187.5 L 132.5 187.5 L 132.0 186.0 " stroke="black" fill="none" stroke-width="6.0" stroke-linecap="round" stroke-linejoin="round" />
<path d="M 142.5 179.0 L 142.5 179.5 L 143.0 180.0 L 144.5 181.0 L 149.0 181.5 L 156.0 182.5 L 164.5 183.5 L 172.0 184.0 L 179.0 184.0 L 184.5 184.5 L 187.5 185.5 L 188.0 186.0 " stroke="black" fill="none" stroke-width="6.0" stroke-linecap="round" stroke-linejoin="round" />
</svg>