<svg xmlns="http://www.w3.org/2000/svg" width="300" height="300" viewBox="0 0 300 300">
<path d="M 127.5 120.0 L 127.5 120.0 L 128.0 120.0 L 129.0 120.0 L 129.5 119.5 L 130.0 119.5 L 130.0 119.5 L 130.5 121.5 L 129.0 126.5 L 127.0 134.0 L 124.5 141.0 L 122.0 146.0 L 120.5 148.0 L 119.5 148.0 L 119.5 148.0 L 119.5 148.0 L 120.5 148.0 L 122.5 147.5 L 125.5 146.5 L 129.5 145.0 L 133.5 143.0 L 136.0 142.0 L 137.0 142.0 L 137.5 142.0 " stroke="black" fill="none" stroke-width="6.0" stroke-linecap="round" stroke-linejoin="round" />
<path d="M 136.5 132.5 L 136.5 132.5 L 136.5 133.0 L 136.5 133.0 L 136.5 133.0 L 136.5 134.0 L 136.0 139.0 L 134.0 147.5 L 131.0 156.5 L 128.0 164.5 L 124.5 170.0 L 122.5 172.5 L 122.5 172.5 L 122.5 172.0 L 123.5 170.5 L 125.5 169.5 L 128.5 168.0 L 132.5 166.5 L 136.5 164.5 L 140.5 163.0 L 143.0 162.5 L 143.5 163.0 " stroke="black" fill="none" stroke-width="6.0" stroke-linecap="round" stroke-linejoin="round" />
<path d="M 141.5 155.5 L 141.5 156.5 L 141.5 157.0 L 141.5 158.0 L 143.5 160.5 L 145.0 163.5 L 146.5 166.0 L 147.5 167.5 " stroke="black" fill="none" stroke-width="6.0" stroke-linecap="round" stroke-linejoin="round" />
<path d="M 125.0 181.5 L 125.0 181.5 L 125.0 181.5 L 125.0 181.5 L 125.0 182.0 L 124.5 184.0 L 123.5 187.0 L 123.0 189.0 " stroke="black" fill="none" stroke-width="6.0" stroke-linecap="round" stroke-linejoin="round" />
<path d="M 134.5 178.0 L 134.5 178.0 L 134.5 178.5 L 134.5 179.5 L 135.5 181.0 L 137.5 183.5 L 139.0 185.5 " stroke="black" fill="none" stroke-width="6.0" stroke-linecap="round" stroke-linejoin="round" />
<path d="M 146.5 178.0 L 146.5 178.5 L 146.5 178.5 L 146.5 179.0 L 147.5 180.0 L 148.5 181.0 L 148.5 181.5 " stroke="black" fill="none" stroke-width="6.0" stroke-linecap="round" stroke-linejoin="round" />
<path d="M 156.5 115.5 L 157.0 114.5 L 158.0 113.5 L 158.5 112.5 L 159.0 113.0 L 159.5 116.5 L 159.5 121.5 L 159.5 126.0 L 159.0 129.0 L 159.0 129.0 " stroke="black" fill="none" stroke-width="6.0" stroke-linecap="round" stroke-linejoin="round" />
<path d="M 158.5 123.0 L 158.5 123.0 L 158.0 123.0 L 158.0 122.5 L 160.5 122.0 L 164.0 122.0 L 167.5 122.0 L 170.0 122.0 L 170.5 122.0 " stroke="black" fill="none" stroke-width="6.0" stroke-linecap="round" stroke-linejoin="round" />
<path d="M 150.5 137.0 L 150.5 136.5 L 150.5 135.0 L 150.5 134.5 L 151.0 134.0 L 151.5 135.0 L 152.5 139.0 L 153.0 143.5 L 153.0 147.0 L 153.5 149.0 L 153.5 149.5 " stroke="black" fill="none" stroke-width="6.0" stroke-linecap="round" stroke-linejoin="round" />
<path d="M 153.0 132.5 L 153.0 132.5 L 152.0 133.0 L 152.0 133.0 L 152.5 133.0 L 154.5 133.0 L 158.0 133.0 L 162.0 133.0 L 166.5 133.0 L 170.5 133.0 L 174.0 133.0 L 176.5 132.5 L 177.0 132.5 L 177.5 132.5 L 177.5 132.5 L 177.5 132.5 L 177.5 133.0 L 177.5 133.0 L 177.5 134.0 L 177.5 135.0 L 177.5 136.5 L 177.0 139.5 L 176.5 143.0 L 176.5 147.0 L 176.5 149.5 L 176.5 151.5 L 176.5 151.5 " stroke="black" fill="none" stroke-width="6.0" stroke-linecap="round" stroke-linejoin="round" />
<path d="M 157.5 145.0 L 157.5 145.0 L 158.0 144.5 L 158.5 144.0 L 160.0 144.0 L 163.5 144.0 L 167.5 144.0 L 171.0 144.0 L 172.5 144.0 " stroke="black" fill="none" stroke-width="6.0" stroke-linecap="round" stroke-linejoin="round" />
<path d="M 156.5 155.5 L 156.5 155.5 L 156.5 156.0 L 156.5 156.0 L 157.5 156.0 L 159.5 155.5 L 164.0 155.5 L 168.0 155.5 L 171.5 155.5 L 173.0 155.5 " stroke="black" fill="none" stroke-width="6.0" stroke-linecap="round" stroke-linejoin="round" />
<path d="M 156.5 168.5 L 156.5 168.5 L 156.5 168.5 L 156.5 168.5 L 156.0 169.0 L 156.0 169.0 L 156.5 169.0 L 160.0 168.5 L 165.0 168.5 L 170.0 168.5 L 173.0 168.5 L 174.0 168.5 L 174.0 168.5 " stroke="black" fill="none" stroke-width="6.0" stroke-linecap="round" stroke-linejoin="round" />
<path d="M 165.0 159.5 L 164.5 159.5 L 164.0 159.5 L 164.0 159.5 L 164.0 161.0 L 164.5 165.0 L 165.0 170.0 L 165.5 175.5 L 165.5 181.0 L 165.5 185.0 L 166.0 187.0 L 166.5 188.0 L 166.5 188.0 " stroke="black" fill="none" stroke-width="6.0" stroke-linecap="round" stroke-linejoin="round" />
</svg>