<svg xmlns="http://www.w3.org/2000/svg" width="300" height="300" viewBox="0 0 300 300">
<path d="M 151.0 97.0 L 151.0 97.0 L 151.5 96.5 L 152.0 96.0 L 152.0 96.0 L 152.0 97.5 L 152.0 101.0 L 152.0 105.0 L 152.0 108.0 L 152.0 109.5 " stroke="black" fill="none" stroke-width="7.0" stroke-linecap="round" stroke-linejoin="round" />
<path d="M 152.0 105.0 L 152.0 105.0 L 151.5 105.0 L 151.5 105.0 L 153.0 104.5 L 157.0 104.0 L 161.5 103.0 L 164.5 103.0 L 167.0 103.0 " stroke="black" fill="none" stroke-width="7.0" stroke-linecap="round" stroke-linejoin="round" />
<path d="M 132.5 115.5 L 132.5 116.0 L 133.0 116.5 L 133.0 117.0 L 133.5 117.0 L 135.0 117.0 L 138.0 117.0 L 142.5 117.0 L 149.5 117.0 L 158.0 116.0 L 165.5 115.0 L 171.5 114.5 L 174.0 115.0 L 174.5 116.0 L 175.0 116.5 L 175.0 116.5 L 175.0 116.5 L 175.0 116.5 L 175.0 116.5 L 175.5 116.5 L 176.0 116.5 L 176.5 116.5 L 176.5 116.5 L 177.0 116.5 L 177.0 116.5 L 177.0 116.5 L 177.0 116.5 L 177.0 117.0 L 176.0 118.5 L 174.5 121.0 L 173.0 124.0 L 172.0 125.5 L 172.0 126.0 " stroke="black" fill="none" stroke-width="7.0" stroke-linecap="round" stroke-linejoin="round" />
<path d="M 131.0 120.0 L 131.0 120.0 L 132.0 120.0 L 132.0 120.0 L 132.5 120.0 L 132.5 122.0 L 133.0 126.5 L 133.0 135.0 L 132.5 147.0 L 130.5 158.5 L 128.0 168.5 L 125.5 175.5 L 122.5 179.5 L 121.5 181.0 L 121.5 181.0 L 121.5 181.0 " stroke="black" fill="none" stroke-width="7.0" stroke-linecap="round" stroke-linejoin="round" />
<path d="M 145.5 133.5 L 145.0 134.0 L 144.5 134.5 L 146.5 134.5 L 151.0 134.0 L 156.0 132.5 L 160.5 131.5 L 163.0 130.5 L 163.0 130.0 " stroke="black" fill="none" stroke-width="7.0" stroke-linecap="round" stroke-linejoin="round" />
<path d="M 151.5 124.5 L 152.0 124.5 L 152.0 124.0 L 152.5 124.0 L 152.5 125.0 L 152.0 129.5 L 151.5 136.0 L 152.5 141.0 L 155.5 144.0 L 160.0 144.5 L 167.0 143.5 L 173.0 141.5 L 176.0 140.0 L 176.5 139.0 L 175.0 139.0 L 174.0 139.0 " stroke="black" fill="none" stroke-width="7.0" stroke-linecap="round" stroke-linejoin="round" />
<path d="M 161.0 154.5 L 161.0 155.0 L 161.0 155.0 L 161.0 155.5 L 161.0 157.0 L 160.5 160.5 L 159.5 165.0 L 159.5 167.0 L 159.5 167.5 " stroke="black" fill="none" stroke-width="7.0" stroke-linecap="round" stroke-linejoin="round" />
<path d="M 162.0 154.5 L 162.0 155.0 L 162.0 155.5 L 161.5 156.0 L 162.0 156.0 L 164.5 155.5 L 167.5 154.5 L 171.0 154.0 L 174.0 153.5 L 175.5 153.5 L 176.0 155.0 L 176.0 157.0 L 175.0 160.5 L 174.5 164.0 L 174.0 167.0 L 174.5 168.0 L 176.0 168.0 L 177.5 167.5 L 178.0 166.0 " stroke="black" fill="none" stroke-width="7.0" stroke-linecap="round" stroke-linejoin="round" />
<path d="M 142.0 150.5 L 142.0 150.0 L 142.0 149.5 L 142.5 149.5 L 142.5 149.5 L 143.0 149.5 L 143.0 151.5 L 141.5 155.5 L 139.0 160.5 L 137.5 164.0 L 136.5 165.0 " stroke="black" fill="none" stroke-width="7.0" stroke-linecap="round" stroke-linejoin="round" />
<path d="M 142.0 156.5 L 142.0 156.5 L 141.5 157.5 L 141.5 158.0 L 142.5 158.0 L 145.0 157.5 L 148.0 156.0 L 150.5 155.0 L 152.0 154.5 L 153.0 154.5 L 153.0 155.0 L 153.0 157.0 L 152.5 160.0 L 151.0 164.5 L 148.5 169.5 L 144.5 174.5 L 141.0 178.5 L 138.5 181.0 L 137.0 182.5 L 136.5 183.5 L 136.0 184.5 L 136.0 184.5 " stroke="black" fill="none" stroke-width="7.0" stroke-linecap="round" stroke-linejoin="round" />
<path d="M 144.5 171.5 L 144.0 171.5 L 143.0 171.5 L 142.5 171.5 L 143.0 172.0 L 146.0 173.5 L 152.0 176.5 L 160.5 178.5 L 170.5 179.0 L 179.0 177.5 L 185.0 176.5 L 189.0 176.5 L 190.5 176.5 " stroke="black" fill="none" stroke-width="7.0" stroke-linecap="round" stroke-linejoin="round" />
</svg>