<svg xmlns="http://www.w3.org/2000/svg" width="300" height="300" viewBox="0 0 300 300">
<path d="M 117.5 116.5 L 117.0 116.5 L 116.5 116.5 L 116.5 116.5 L 119.0 116.0 L 124.5 115.0 L 131.0 114.0 L 137.5 113.0 L 141.5 112.5 L 142.0 112.0 L 142.0 112.5 L 141.0 114.5 L 139.5 118.5 L 138.0 124.0 L 137.0 129.0 L 137.0 132.5 L 137.0 135.0 L 137.0 135.5 " stroke="black" fill="none" stroke-width="6.0" stroke-linecap="round" stroke-linejoin="round" />
<path d="M 121.0 128.5 L 119.5 129.0 L 119.0 129.0 L 120.0 129.0 L 124.0 127.5 L 129.0 126.0 L 133.5 125.0 L 137.0 125.0 L 137.5 125.5 " stroke="black" fill="none" stroke-width="6.0" stroke-linecap="round" stroke-linejoin="round" />
<path d="M 125.0 137.0 L 122.5 138.5 L 122.0 138.5 L 123.0 138.5 L 127.0 137.5 L 131.0 135.5 L 134.0 133.5 L 134.5 133.0 " stroke="black" fill="none" stroke-width="6.0" stroke-linecap="round" stroke-linejoin="round" />
<path d="M 119.5 120.5 L 118.5 120.5 L 117.0 120.5 L 116.5 120.5 L 116.5 121.5 L 116.5 125.0 L 116.5 134.0 L 115.0 150.5 L 113.0 170.0 L 112.0 184.5 L 112.0 193.5 L 113.0 195.5 L 113.0 194.0 " stroke="black" fill="none" stroke-width="6.0" stroke-linecap="round" stroke-linejoin="round" />
<path d="M 152.0 115.0 L 152.0 115.0 L 152.0 114.5 L 152.0 114.0 L 152.0 115.0 L 152.0 119.0 L 151.0 126.0 L 150.5 132.5 L 150.5 135.0 L 150.5 134.5 " stroke="black" fill="none" stroke-width="6.0" stroke-linecap="round" stroke-linejoin="round" />
<path d="M 153.0 115.5 L 153.0 115.0 L 152.5 114.0 L 152.5 113.5 L 152.5 113.0 L 154.5 113.0 L 157.5 113.0 L 162.5 113.0 L 169.0 113.0 L 176.0 112.0 L 181.5 111.0 L 185.5 111.0 L 187.0 111.0 L 187.5 111.5 L 187.5 111.5 L 187.0 111.5 L 186.5 112.0 L 186.0 112.0 L 185.5 113.0 L 185.0 113.5 L 184.5 114.5 L 184.0 116.0 L 183.5 117.5 L 183.0 120.0 L 182.0 124.0 L 181.5 129.0 L 180.5 135.5 L 180.5 142.0 L 180.5 148.0 L 180.5 153.5 L 180.5 158.5 L 180.5 164.0 L 180.5 169.5 L 180.5 174.5 L 180.0 178.5 L 180.0 182.0 L 179.5 185.5 L 179.5 188.5 L 179.0 191.0 L 178.5 193.0 L 178.5 195.5 L 178.0 197.5 L 177.0 199.0 L 176.5 200.5 L 176.0 201.5 L 174.5 202.0 L 173.0 202.5 L 171.0 202.5 L 168.5 202.0 L 165.5 200.5 L 163.0 199.0 L 162.5 196.5 " stroke="black" fill="none" stroke-width="6.0" stroke-linecap="round" stroke-linejoin="round" />
<path d="M 155.5 127.0 L 155.5 127.0 L 156.0 127.0 L 156.5 126.5 L 157.5 126.5 L 161.0 126.0 L 167.0 125.5 L 174.5 124.0 L 179.0 123.5 L 180.0 123.5 " stroke="black" fill="none" stroke-width="6.0" stroke-linecap="round" stroke-linejoin="round" />
<path d="M 158.0 137.0 L 157.5 137.5 L 156.0 139.5 L 155.0 140.0 L 155.0 140.0 L 157.5 139.0 L 162.5 137.5 L 168.5 135.5 L 174.5 134.0 L 177.5 134.0 L 178.0 134.5 " stroke="black" fill="none" stroke-width="6.0" stroke-linecap="round" stroke-linejoin="round" />
<path d="M 126.0 149.5 L 126.0 149.5 L 125.0 149.5 L 125.0 150.0 L 125.0 150.0 L 126.0 150.5 L 128.0 150.5 L 129.5 150.5 L 130.0 150.5 " stroke="black" fill="none" stroke-width="6.0" stroke-linecap="round" stroke-linejoin="round" />
<path d="M 140.5 146.5 L 140.5 146.5 L 140.5 146.0 L 140.5 146.0 L 140.5 145.5 L 140.5 145.5 L 140.5 145.5 L 140.0 146.0 L 139.5 148.5 L 138.5 151.0 L 138.0 152.5 " stroke="black" fill="none" stroke-width="6.0" stroke-linecap="round" stroke-linejoin="round" />
<path d="M 124.5 161.0 L 124.5 161.0 L 124.0 161.0 L 123.5 160.5 L 125.0 160.0 L 128.5 159.5 L 133.5 158.5 L 138.5 158.0 L 143.0 157.5 " stroke="black" fill="none" stroke-width="6.0" stroke-linecap="round" stroke-linejoin="round" />
<path d="M 124.0 170.0 L 124.0 169.0 L 124.0 168.5 L 124.0 168.0 L 124.0 168.0 L 124.0 169.5 L 124.0 172.0 L 124.0 174.5 L 124.0 177.5 L 124.0 179.0 L 125.0 180.0 L 127.5 179.5 L 131.0 177.0 L 135.0 175.0 L 139.0 173.5 L 141.5 173.5 L 142.5 173.5 " stroke="black" fill="none" stroke-width="6.0" stroke-linecap="round" stroke-linejoin="round" />
<path d="M 142.5 166.0 L 142.5 166.0 L 142.0 166.0 L 142.0 166.0 L 141.5 166.5 L 141.5 169.0 L 141.5 172.0 L 141.5 174.5 L 141.5 174.5 " stroke="black" fill="none" stroke-width="6.0" stroke-linecap="round" stroke-linejoin="round" />
<path d="M 134.0 162.5 L 134.5 162.5 L 135.0 162.0 L 135.0 162.0 L 135.0 163.5 L 134.5 167.0 L 133.0 173.5 L 130.5 181.0 L 128.0 188.5 L 125.5 193.0 L 124.5 193.5 L 124.5 193.5 " stroke="black" fill="none" stroke-width="6.0" stroke-linecap="round" stroke-linejoin="round" />
<path d="M 152.5 151.0 L 153.0 150.5 L 153.5 150.0 L 153.5 150.0 L 153.0 151.0 L 152.0 153.5 L 151.0 156.0 L 151.0 158.0 L 150.5 159.0 L 150.5 159.0 " stroke="black" fill="none" stroke-width="6.0" stroke-linecap="round" stroke-linejoin="round" />
<path d="M 152.0 156.0 L 152.0 156.5 L 152.0 157.0 L 152.0 157.0 L 152.0 157.0 L 154.0 156.5 L 157.5 155.0 L 161.5 154.0 L 164.5 152.5 L 167.0 152.0 L 168.0 151.5 L 168.5 151.5 L 168.5 151.5 L 168.5 151.5 L 169.0 151.5 L 169.0 152.0 L 169.0 152.0 L 169.0 152.5 L 169.0 153.5 L 169.0 155.0 L 168.5 156.0 L 168.0 157.5 L 168.0 158.5 " stroke="black" fill="none" stroke-width="6.0" stroke-linecap="round" stroke-linejoin="round" />
<path d="M 158.5 163.5 L 159.0 163.0 L 159.5 163.0 L 159.5 163.0 L 159.5 164.0 L 158.5 167.5 L 156.5 171.5 L 154.0 176.0 L 150.5 180.5 L 149.0 183.0 L 148.5 183.5 L 148.5 182.5 " stroke="black" fill="none" stroke-width="6.0" stroke-linecap="round" stroke-linejoin="round" />
<path d="M 156.0 175.5 L 156.0 175.5 L 156.0 176.5 L 156.5 177.0 L 158.0 177.5 L 161.5 178.5 L 165.5 179.0 L 169.0 179.5 " stroke="black" fill="none" stroke-width="6.0" stroke-linecap="round" stroke-linejoin="round" />
</svg>