<svg xmlns="http://www.w3.org/2000/svg" width="300" height="300" viewBox="0 0 300 300">
<path d="M 133.5 120.5 L 134.5 120.5 L 135.5 119.5 L 136.0 119.5 L 136.5 119.5 L 137.5 121.5 L 137.5 126.0 L 138.0 133.0 L 137.0 142.0 L 136.0 151.0 L 135.5 158.0 L 135.5 161.5 L 136.0 163.5 L 136.5 163.5 L 136.5 163.5 L 136.5 163.0 L 136.5 162.0 L 135.5 161.5 " stroke="black" fill="none" stroke-width="6.0" stroke-linecap="round" stroke-linejoin="round" />
<path d="M 128.0 169.0 L 127.5 169.0 L 126.5 168.5 L 126.5 168.5 L 127.0 167.5 L 130.5 166.0 L 135.5 163.5 L 141.5 161.0 L 146.5 158.0 L 148.5 157.0 " stroke="black" fill="none" stroke-width="6.0" stroke-linecap="round" stroke-linejoin="round" />
<path d="M 154.0 132.0 L 154.0 132.0 L 153.5 132.0 L 153.5 132.5 L 153.5 133.0 L 154.5 134.5 L 157.0 136.5 L 159.0 138.0 " stroke="black" fill="none" stroke-width="6.0" stroke-linecap="round" stroke-linejoin="round" />
<path d="M 170.0 122.0 L 169.5 122.0 L 169.0 122.0 L 169.0 123.0 L 169.0 126.0 L 168.5 132.5 L 166.5 144.5 L 161.5 158.5 L 156.0 169.5 L 151.5 177.0 L 148.5 180.5 L 147.5 181.5 L 147.0 181.0 L 147.5 180.0 " stroke="black" fill="none" stroke-width="6.0" stroke-linecap="round" stroke-linejoin="round" />
<path d="M 163.0 163.0 L 163.0 163.0 L 163.0 163.5 L 164.5 164.0 L 169.0 166.0 L 176.0 170.0 L 183.0 174.0 L 188.5 177.0 L 190.0 177.0 " stroke="black" fill="none" stroke-width="6.0" stroke-linecap="round" stroke-linejoin="round" />
</svg>