<svg xmlns="http://www.w3.org/2000/svg" width="300" height="300" viewBox="0 0 300 300">
<path d="M 123.0 116.0 L 122.5 116.0 L 121.5 116.0 L 121.0 116.5 L 122.0 116.5 L 125.5 116.0 L 130.5 115.5 L 135.5 115.0 L 139.5 114.5 L 142.0 113.5 L 143.0 113.5 L 143.0 113.5 L 142.5 115.5 L 141.5 117.5 L 141.0 120.5 L 140.5 124.0 L 140.5 127.0 L 140.5 129.5 L 140.5 131.5 L 140.5 131.5 L 140.5 131.5 " stroke="black" fill="none" stroke-width="6.0" stroke-linecap="round" stroke-linejoin="round" />
<path d="M 129.0 125.5 L 128.5 125.5 L 127.5 125.5 L 127.0 125.5 L 129.0 125.5 L 132.0 125.5 L 135.0 125.0 L 137.5 124.5 L 139.0 124.0 " stroke="black" fill="none" stroke-width="6.0" stroke-linecap="round" stroke-linejoin="round" />
<path d="M 127.5 134.5 L 127.0 135.5 L 127.0 136.0 L 127.0 136.0 L 129.0 135.5 L 132.0 134.5 L 135.0 133.5 L 136.0 132.5 " stroke="black" fill="none" stroke-width="6.0" stroke-linecap="round" stroke-linejoin="round" />
<path d="M 121.5 121.5 L 121.5 121.0 L 121.0 119.5 L 120.5 119.5 L 120.5 119.5 L 120.5 120.0 L 120.5 122.5 L 121.0 126.5 L 122.5 133.5 L 123.5 145.0 L 124.5 158.0 L 124.5 170.0 L 124.5 177.5 L 125.0 181.5 L 125.0 183.0 L 125.5 183.0 L 125.5 182.5 " stroke="black" fill="none" stroke-width="6.0" stroke-linecap="round" stroke-linejoin="round" />
<path d="M 153.5 118.5 L 153.5 118.0 L 153.5 117.0 L 153.5 116.5 L 153.5 116.0 L 154.0 115.5 L 154.0 116.0 L 154.5 120.0 L 155.0 124.5 L 155.0 128.5 L 155.0 130.5 L 155.0 131.0 " stroke="black" fill="none" stroke-width="6.0" stroke-linecap="round" stroke-linejoin="round" />
<path d="M 155.5 118.0 L 155.5 117.5 L 155.5 117.0 L 155.5 116.5 L 156.0 116.0 L 158.5 115.5 L 161.0 115.0 L 163.5 115.0 L 166.5 115.0 L 169.0 115.5 L 170.5 116.0 L 171.5 117.0 L 172.0 118.0 L 172.0 120.0 L 172.0 122.5 L 172.0 126.0 L 172.5 136.5 L 172.5 142.5 L 173.0 149.5 L 174.0 157.5 L 174.5 165.0 L 174.5 172.0 L 175.0 179.0 L 175.5 183.5 L 175.5 186.0 L 175.0 186.5 L 173.0 186.0 L 170.0 183.5 L 166.5 180.5 " stroke="black" fill="none" stroke-width="6.0" stroke-linecap="round" stroke-linejoin="round" />
<path d="M 156.0 123.5 L 156.0 123.5 L 156.0 123.5 L 156.0 123.5 L 157.0 123.0 L 159.0 123.0 L 161.5 123.0 L 164.0 123.0 L 165.5 123.0 L 166.0 123.5 " stroke="black" fill="none" stroke-width="6.0" stroke-linecap="round" stroke-linejoin="round" />
<path d="M 158.0 129.0 L 158.0 129.5 L 157.0 131.0 L 157.0 131.0 L 157.5 131.0 L 160.0 130.0 L 163.5 129.5 L 166.0 129.0 L 167.5 129.0 " stroke="black" fill="none" stroke-width="6.0" stroke-linecap="round" stroke-linejoin="round" />
<path d="M 138.5 148.5 L 139.0 149.5 L 140.0 150.0 L 142.0 150.0 L 147.0 150.0 L 152.0 149.5 L 156.0 149.0 L 158.0 148.5 L 158.5 148.0 " stroke="black" fill="none" stroke-width="6.0" stroke-linecap="round" stroke-linejoin="round" />
<path d="M 147.5 141.0 L 147.5 140.5 L 147.5 140.0 L 147.5 140.0 L 147.5 140.5 L 148.5 143.5 L 149.0 149.5 L 149.5 158.0 L 150.0 167.5 L 151.0 174.0 L 151.5 175.5 L 151.5 173.5 L 151.5 171.5 " stroke="black" fill="none" stroke-width="6.0" stroke-linecap="round" stroke-linejoin="round" />
<path d="M 149.0 150.5 L 149.0 151.0 L 149.0 151.5 L 149.0 152.0 L 148.0 154.0 L 145.5 158.5 L 141.0 165.0 L 136.0 169.5 L 133.5 170.0 L 133.0 168.5 " stroke="black" fill="none" stroke-width="6.0" stroke-linecap="round" stroke-linejoin="round" />
<path d="M 147.5 155.0 L 147.5 156.5 L 148.5 157.0 L 151.5 157.5 L 156.5 158.0 L 162.0 159.5 L 165.5 161.5 L 167.0 163.0 L 167.5 164.0 " stroke="black" fill="none" stroke-width="6.0" stroke-linecap="round" stroke-linejoin="round" />
</svg>