<svg xmlns="http://www.w3.org/2000/svg" width="300" height="300" viewBox="0 0 300 300">
<path d="M 111.0 118.5 L 111.5 118.5 L 111.5 119.0 L 112.0 119.5 L 113.5 121.0 L 115.5 123.5 L 119.0 126.5 L 121.5 129.0 L 123.5 130.5 L 125.0 132.0 L 125.0 132.0 " stroke="black" fill="none" stroke-width="6.0" stroke-linecap="round" stroke-linejoin="round" />
<path d="M 115.5 148.0 L 115.5 148.0 L 115.5 148.0 L 115.5 147.5 L 115.5 147.5 L 116.5 148.0 L 118.5 150.0 L 121.0 152.5 L 122.5 154.5 " stroke="black" fill="none" stroke-width="6.0" stroke-linecap="round" stroke-linejoin="round" />
<path d="M 109.5 188.0 L 109.5 188.0 L 110.0 187.5 L 110.5 186.0 L 111.5 184.0 L 114.5 180.0 L 118.5 176.0 L 122.5 173.0 L 123.5 172.0 " stroke="black" fill="none" stroke-width="6.0" stroke-linecap="round" stroke-linejoin="round" />
<path d="M 147.5 106.5 L 147.5 106.5 L 146.5 107.0 L 146.5 107.0 L 146.5 108.0 L 148.0 110.0 L 150.0 112.0 L 152.0 114.0 L 153.0 115.0 " stroke="black" fill="none" stroke-width="6.0" stroke-linecap="round" stroke-linejoin="round" />
<path d="M 136.0 121.5 L 136.0 121.5 L 136.0 121.5 L 136.0 121.5 L 136.5 121.0 L 139.0 121.0 L 145.0 121.0 L 153.0 120.5 L 162.5 120.0 L 171.0 118.5 L 173.5 118.5 L 173.5 118.5 L 172.5 118.5 L 172.5 118.5 L 172.5 118.5 L 172.5 118.5 L 172.5 118.5 L 172.0 118.5 L 172.0 118.5 L 171.5 118.5 L 171.5 118.5 L 171.0 118.5 " stroke="black" fill="none" stroke-width="6.0" stroke-linecap="round" stroke-linejoin="round" />
<path d="M 148.0 128.5 L 148.0 128.5 L 148.0 129.0 L 148.0 129.5 L 148.0 129.5 L 148.0 130.0 L 149.5 130.0 L 151.5 130.5 L 152.5 130.5 " stroke="black" fill="none" stroke-width="6.0" stroke-linecap="round" stroke-linejoin="round" />
<path d="M 162.0 128.0 L 162.0 128.0 L 162.0 128.0 L 162.0 128.0 L 162.0 128.0 L 162.0 128.0 L 162.0 128.0 L 162.0 128.5 L 160.5 130.0 L 159.0 132.0 L 157.5 134.5 L 157.0 135.5 " stroke="black" fill="none" stroke-width="6.0" stroke-linecap="round" stroke-linejoin="round" />
<path d="M 153.5 141.5 L 153.5 141.5 L 153.5 141.0 L 153.5 140.5 L 153.5 140.5 L 153.5 140.0 L 153.5 140.0 L 153.5 140.5 L 154.0 142.5 L 154.5 145.5 L 155.0 148.5 L 155.0 151.0 L 155.5 151.5 " stroke="black" fill="none" stroke-width="6.0" stroke-linecap="round" stroke-linejoin="round" />
<path d="M 133.5 136.0 L 133.5 136.5 L 133.5 137.5 L 133.5 137.5 L 133.5 137.5 L 135.0 137.5 L 137.0 137.5 L 138.5 137.5 L 140.5 137.5 L 142.0 137.0 L 143.0 137.0 L 144.0 137.0 L 144.0 137.0 L 144.0 137.0 L 144.0 137.0 L 144.0 137.5 L 144.0 138.5 L 144.0 140.5 L 144.0 142.5 L 144.0 145.0 L 144.0 147.0 L 144.0 149.5 L 144.0 150.5 L 144.0 151.0 L 143.5 151.0 L 143.0 151.0 L 142.0 151.0 L 142.0 151.0 " stroke="black" fill="none" stroke-width="6.0" stroke-linecap="round" stroke-linejoin="round" />
<path d="M 137.5 139.0 L 137.5 138.5 L 137.5 138.5 L 137.5 138.5 L 137.0 138.5 L 137.0 139.0 L 136.0 141.0 L 134.5 144.0 L 133.5 146.5 " stroke="black" fill="none" stroke-width="6.0" stroke-linecap="round" stroke-linejoin="round" />
<path d="M 173.5 130.5 L 173.5 130.5 L 174.0 130.5 L 174.0 130.5 L 174.0 130.5 L 174.0 130.5 L 174.0 131.0 L 174.0 131.5 L 173.0 132.0 L 172.0 132.5 L 171.0 133.5 L 169.5 134.5 L 168.5 135.5 L 167.5 136.5 L 166.5 137.0 L 165.5 137.5 L 164.5 138.5 L 163.5 139.0 L 163.5 139.0 L 163.0 139.0 L 163.0 139.0 L 163.0 139.0 L 163.0 139.0 L 163.0 139.0 L 163.0 139.0 L 163.0 139.0 L 163.0 139.0 L 163.0 139.0 L 163.0 139.0 L 163.5 139.5 L 164.0 141.0 L 164.5 143.5 L 165.0 146.0 L 165.0 149.0 L 165.5 150.5 L 165.5 151.0 L 165.5 151.5 L 165.5 151.5 L 165.5 151.0 L 166.0 150.5 L 166.5 150.0 L 167.5 149.5 L 168.5 149.0 L 169.0 148.0 " stroke="black" fill="none" stroke-width="6.0" stroke-linecap="round" stroke-linejoin="round" />
<path d="M 172.5 137.0 L 172.5 137.5 L 172.5 138.5 L 172.5 139.5 L 173.5 141.0 L 175.0 143.0 L 177.0 145.5 L 178.5 147.0 " stroke="black" fill="none" stroke-width="6.0" stroke-linecap="round" stroke-linejoin="round" />
<path d="M 143.5 161.5 L 143.5 161.5 L 143.0 162.0 L 142.5 162.0 L 142.5 162.5 L 142.5 163.0 L 143.0 164.5 L 143.0 167.0 L 143.5 171.5 L 142.5 177.5 L 141.0 183.5 L 139.5 188.5 L 138.5 190.0 L 138.0 190.0 L 138.0 189.5 " stroke="black" fill="none" stroke-width="6.0" stroke-linecap="round" stroke-linejoin="round" />
<path d="M 147.5 166.5 L 146.0 166.5 L 145.0 166.5 L 145.0 166.5 L 147.0 166.0 L 151.0 166.0 L 155.0 165.5 L 159.0 165.0 L 162.5 164.5 L 165.5 164.0 L 166.5 163.5 L 166.5 164.0 L 166.5 164.5 " stroke="black" fill="none" stroke-width="6.0" stroke-linecap="round" stroke-linejoin="round" />
<path d="M 149.0 174.0 L 149.0 174.5 L 147.5 175.5 L 147.0 175.5 L 146.5 176.0 L 147.0 176.0 L 149.0 175.5 L 152.0 175.0 L 155.5 175.0 L 159.0 175.0 L 162.5 174.5 L 163.0 174.5 " stroke="black" fill="none" stroke-width="6.0" stroke-linecap="round" stroke-linejoin="round" />
<path d="M 166.0 157.5 L 165.5 158.5 L 165.0 159.0 L 165.0 159.5 L 165.0 161.0 L 165.5 163.5 L 166.0 167.0 L 166.5 170.5 L 167.0 174.0 L 167.5 177.5 L 168.0 180.5 L 168.5 182.5 L 169.0 184.5 L 169.0 186.0 L 169.0 186.5 L 169.0 187.0 L 169.0 187.5 L 169.0 187.5 L 169.0 188.5 L 169.0 189.0 L 169.0 189.5 L 169.0 190.0 L 169.0 190.5 L 169.0 191.5 L 169.5 192.0 L 169.5 193.0 L 169.5 193.5 L 170.0 194.0 L 170.0 194.5 L 170.0 195.0 L 170.0 195.5 L 170.5 195.5 L 170.5 196.0 L 170.5 196.0 L 170.5 196.0 L 170.5 196.0 " stroke="black" fill="none" stroke-width="6.0" stroke-linecap="round" stroke-linejoin="round" />
</svg>