<svg xmlns="http://www.w3.org/2000/svg" width="300" height="300" viewBox="0 0 300 300">
<path d="M 117.5 146.5 L 117.5 146.5 L 117.5 146.5 L 117.5 146.5 L 118.5 146.5 L 121.5 146.5 L 126.0 146.5 L 130.0 147.0 L 133.0 146.5 L 133.0 146.0 " stroke="black" fill="none" stroke-width="6.0" stroke-linecap="round" stroke-linejoin="round" />
<path d="M 127.0 129.5 L 126.5 130.0 L 125.5 130.5 L 125.5 131.0 L 125.5 133.5 L 125.5 140.0 L 125.0 149.5 L 124.0 158.5 L 123.5 164.0 L 123.5 165.5 L 124.0 165.5 " stroke="black" fill="none" stroke-width="6.0" stroke-linecap="round" stroke-linejoin="round" />
<path d="M 113.5 172.0 L 113.5 172.5 L 113.5 173.0 L 113.5 173.5 L 117.0 173.0 L 122.0 170.5 L 127.5 167.5 L 132.5 164.5 L 133.5 163.5 " stroke="black" fill="none" stroke-width="6.0" stroke-linecap="round" stroke-linejoin="round" />
<path d="M 145.5 146.0 L 144.5 146.5 L 143.5 146.5 L 143.5 146.5 L 145.0 146.5 L 149.5 145.5 L 154.5 144.0 L 160.0 142.5 L 166.0 141.0 L 170.0 141.0 L 171.5 141.0 L 171.5 141.5 L 171.5 143.0 L 171.5 144.5 L 171.5 146.5 L 172.0 149.0 L 172.0 151.5 L 171.5 154.0 L 171.0 155.5 L 170.0 156.5 L 169.0 157.5 L 168.0 158.5 L 167.5 158.0 " stroke="black" fill="none" stroke-width="6.0" stroke-linecap="round" stroke-linejoin="round" />
<path d="M 158.0 130.0 L 158.0 130.0 L 158.0 130.5 L 158.0 131.0 L 158.0 133.0 L 158.0 138.5 L 157.5 147.0 L 157.5 152.5 L 157.0 153.5 L 157.0 153.0 " stroke="black" fill="none" stroke-width="6.0" stroke-linecap="round" stroke-linejoin="round" />
<path d="M 152.5 123.0 L 152.5 123.0 L 152.0 123.0 L 152.0 123.0 L 151.5 124.5 L 150.0 130.0 L 148.5 141.5 L 147.0 154.5 L 147.0 164.0 L 147.0 170.0 L 148.0 174.0 L 150.0 176.5 L 152.0 178.5 L 156.0 179.5 L 161.5 179.5 L 168.0 178.0 L 174.0 176.0 L 178.0 175.0 L 180.0 173.5 L 180.5 172.0 L 180.5 170.5 L 180.0 168.5 L 179.0 166.5 L 178.5 165.0 L 178.0 164.5 L 178.0 164.0 L 178.0 164.0 " stroke="black" fill="none" stroke-width="6.0" stroke-linecap="round" stroke-linejoin="round" />
</svg>