<svg xmlns="http://www.w3.org/2000/svg" width="300" height="300" viewBox="0 0 300 300">
<path d="M 122.0 122.5 L 121.5 122.5 L 120.0 122.0 L 119.5 121.5 L 119.5 121.5 L 121.0 123.5 L 123.5 126.0 L 126.5 129.5 L 129.0 132.5 L 130.5 134.5 L 130.5 136.0 " stroke="black" fill="none" stroke-width="6.0" stroke-linecap="round" stroke-linejoin="round" />
<path d="M 124.5 145.0 L 123.5 145.5 L 122.0 145.5 L 122.0 146.0 L 123.0 146.5 L 125.0 148.0 L 127.5 150.0 L 129.0 151.5 L 130.0 153.5 L 130.0 154.0 " stroke="black" fill="none" stroke-width="6.0" stroke-linecap="round" stroke-linejoin="round" />
<path d="M 119.5 174.0 L 119.0 174.5 L 118.5 175.0 L 119.0 175.0 L 122.0 172.5 L 125.5 168.5 L 129.0 164.0 L 131.0 161.0 " stroke="black" fill="none" stroke-width="6.0" stroke-linecap="round" stroke-linejoin="round" />
<path d="M 141.0 135.0 L 141.0 135.0 L 141.0 136.0 L 141.0 136.0 L 143.5 135.5 L 148.5 132.5 L 152.5 131.0 L 156.5 129.0 L 165.0 126.0 L 171.0 124.0 L 174.0 124.0 L 174.0 124.0 L 173.5 125.0 L 173.5 126.5 L 173.5 128.0 L 173.5 130.0 L 173.5 132.5 L 172.5 136.0 L 171.5 140.0 L 171.0 143.5 L 170.5 145.0 L 170.5 145.0 L 170.5 143.5 L 170.0 141.5 " stroke="black" fill="none" stroke-width="6.0" stroke-linecap="round" stroke-linejoin="round" />
<path d="M 155.5 115.5 L 156.0 115.5 L 156.0 115.5 L 156.0 115.5 L 156.0 118.5 L 156.5 127.0 L 157.0 138.0 L 158.0 145.0 L 158.5 147.0 L 158.0 147.0 " stroke="black" fill="none" stroke-width="6.0" stroke-linecap="round" stroke-linejoin="round" />
<path d="M 148.0 114.5 L 147.0 115.0 L 146.0 116.0 L 146.0 118.0 L 146.0 123.0 L 145.5 132.0 L 145.0 142.5 L 143.5 152.0 L 143.0 157.5 L 143.5 162.5 L 146.0 166.5 L 149.0 169.0 L 153.0 170.0 L 158.0 170.5 L 165.0 170.5 L 172.5 168.5 L 178.0 166.5 L 180.0 165.0 L 180.5 163.5 L 180.5 162.0 L 180.5 160.0 L 180.0 158.5 L 180.0 157.5 L 179.5 157.0 L 179.5 156.5 L 179.5 156.5 " stroke="black" fill="none" stroke-width="6.0" stroke-linecap="round" stroke-linejoin="round" />
</svg>