<svg xmlns="http://www.w3.org/2000/svg" width="300" height="300" viewBox="0 0 300 300">
<path d="M 132.5 113.5 L 132.5 113.0 L 133.0 112.5 L 133.5 111.5 L 133.5 111.0 L 133.5 111.0 L 133.5 111.0 L 133.5 113.0 L 132.5 118.0 L 130.5 124.0 L 127.5 130.5 L 126.5 133.0 L 126.0 132.5 L 126.5 130.0 " stroke="black" fill="none" stroke-width="6.0" stroke-linecap="round" stroke-linejoin="round" />
<path d="M 135.5 121.0 L 135.5 121.0 L 135.0 121.0 L 135.0 121.0 L 135.0 121.0 L 135.5 121.0 L 138.0 121.0 L 142.0 121.0 L 147.5 120.5 L 153.0 119.5 L 157.0 119.0 L 158.0 118.5 L 158.0 118.5 L 157.5 118.5 L 157.0 118.5 L 156.5 119.0 L 156.0 120.5 L 155.5 123.0 L 154.5 126.0 L 153.5 129.0 L 153.0 131.5 L 153.0 132.5 L 153.0 132.5 " stroke="black" fill="none" stroke-width="6.0" stroke-linecap="round" stroke-linejoin="round" />
<path d="M 138.0 137.0 L 137.5 137.0 L 137.5 137.0 L 137.5 137.5 L 137.5 137.5 L 139.0 137.5 L 142.0 137.0 L 147.5 137.0 L 155.5 136.0 L 163.5 135.0 L 169.5 134.5 L 171.0 134.5 L 171.0 135.0 L 170.5 135.0 L 170.0 135.5 L 170.0 135.5 L 170.0 136.0 L 170.0 137.0 L 170.0 138.5 L 170.0 140.5 L 169.5 144.0 L 169.0 148.5 L 168.5 152.5 L 168.0 154.5 L 168.0 154.5 L 168.0 152.0 " stroke="black" fill="none" stroke-width="6.0" stroke-linecap="round" stroke-linejoin="round" />
<path d="M 153.0 139.5 L 153.0 139.0 L 153.0 138.5 L 153.5 138.0 L 153.5 138.5 L 153.5 141.0 L 153.5 144.5 L 153.5 148.0 L 153.5 151.0 L 153.5 152.5 L 153.5 152.5 " stroke="black" fill="none" stroke-width="6.0" stroke-linecap="round" stroke-linejoin="round" />
<path d="M 143.0 155.0 L 143.0 155.5 L 142.0 156.0 L 141.5 156.0 L 141.5 156.0 L 143.0 156.0 L 145.5 156.0 L 150.0 156.0 L 156.0 155.0 L 162.5 154.0 L 166.5 153.5 L 168.0 153.5 L 168.0 153.0 L 167.0 152.5 " stroke="black" fill="none" stroke-width="6.0" stroke-linecap="round" stroke-linejoin="round" />
<path d="M 135.0 140.0 L 135.0 140.0 L 135.0 139.5 L 134.5 139.5 L 134.5 139.5 L 134.5 140.5 L 134.5 144.0 L 134.5 149.0 L 134.5 156.0 L 134.0 163.5 L 133.5 170.0 L 133.5 173.5 L 134.5 176.0 L 136.0 177.5 L 138.0 179.0 L 141.0 180.0 L 145.5 180.5 L 150.5 181.0 L 156.0 181.5 L 161.5 182.0 L 166.5 182.0 L 170.5 181.0 L 173.0 179.5 L 175.0 179.0 L 175.5 178.5 L 175.5 178.5 L 175.5 178.5 L 175.0 178.5 L 175.0 177.5 L 175.0 176.5 L 175.0 174.5 L 175.5 172.5 L 176.0 170.5 L 176.0 169.5 L 176.0 169.0 L 176.0 169.0 " stroke="black" fill="none" stroke-width="6.0" stroke-linecap="round" stroke-linejoin="round" />
</svg>