<svg xmlns="http://www.w3.org/2000/svg" width="300" height="300" viewBox="0 0 300 300">
<path d="M 125.5 106.5 L 125.0 106.5 L 124.5 106.5 L 124.5 107.0 L 124.5 109.0 L 125.5 113.5 L 126.0 119.0 L 126.0 122.5 L 126.5 123.0 " stroke="black" fill="none" stroke-width="7.0" stroke-linecap="round" stroke-linejoin="round" />
<path d="M 113.0 116.0 L 113.5 116.0 L 114.0 116.0 L 115.0 116.0 L 116.5 116.5 L 119.0 117.5 L 119.5 117.5 " stroke="black" fill="none" stroke-width="7.0" stroke-linecap="round" stroke-linejoin="round" />
<path d="M 140.0 105.5 L 140.0 105.5 L 140.0 105.0 L 140.0 104.5 L 140.0 104.5 L 140.0 106.5 L 140.0 111.0 L 140.0 116.5 L 140.0 120.5 L 140.0 121.5 " stroke="black" fill="none" stroke-width="7.0" stroke-linecap="round" stroke-linejoin="round" />
<path d="M 140.5 114.0 L 140.5 114.5 L 140.0 115.0 L 140.0 115.0 L 141.0 115.0 L 143.5 114.5 L 146.5 113.5 L 148.5 113.0 L 149.5 112.5 " stroke="black" fill="none" stroke-width="7.0" stroke-linecap="round" stroke-linejoin="round" />
<path d="M 119.0 132.5 L 118.5 132.5 L 118.5 132.5 L 118.0 132.5 L 118.0 133.5 L 118.5 136.5 L 119.5 139.5 L 120.0 140.5 " stroke="black" fill="none" stroke-width="7.0" stroke-linecap="round" stroke-linejoin="round" />
<path d="M 118.0 133.5 L 117.0 134.5 L 116.5 135.0 L 116.5 135.0 L 118.5 134.0 L 121.0 132.5 L 124.5 131.5 L 127.5 131.0 L 129.5 131.0 L 130.5 131.0 L 130.5 133.0 L 130.0 136.0 L 128.5 138.5 L 127.5 140.0 L 127.5 140.5 " stroke="black" fill="none" stroke-width="7.0" stroke-linecap="round" stroke-linejoin="round" />
<path d="M 120.5 145.0 L 120.0 145.0 L 119.5 145.0 L 119.5 145.0 L 121.5 145.0 L 124.5 144.0 L 126.0 143.5 " stroke="black" fill="none" stroke-width="7.0" stroke-linecap="round" stroke-linejoin="round" />
<path d="M 138.5 131.0 L 138.5 131.0 L 138.0 131.5 L 138.0 132.0 L 138.0 132.5 L 138.0 135.5 L 139.0 139.0 L 140.0 142.0 L 140.0 142.5 " stroke="black" fill="none" stroke-width="7.0" stroke-linecap="round" stroke-linejoin="round" />
<path d="M 139.5 132.5 L 139.5 133.0 L 139.0 133.5 L 139.0 133.5 L 140.5 133.5 L 143.5 132.0 L 146.5 131.0 L 149.5 130.5 L 152.0 130.0 L 153.5 130.0 L 154.5 130.5 L 154.5 131.5 L 154.5 133.0 L 154.5 135.0 L 153.5 137.5 L 153.0 140.0 L 152.0 141.5 L 152.0 141.5 " stroke="black" fill="none" stroke-width="7.0" stroke-linecap="round" stroke-linejoin="round" />
<path d="M 144.5 145.0 L 143.0 145.0 L 143.0 145.0 L 143.5 145.0 L 146.0 144.5 L 148.5 144.0 L 150.5 143.5 L 151.0 143.5 " stroke="black" fill="none" stroke-width="7.0" stroke-linecap="round" stroke-linejoin="round" />
<path d="M 127.0 151.5 L 127.0 151.5 L 127.0 151.5 L 126.5 151.5 L 126.5 151.5 L 126.5 152.0 L 126.0 153.0 L 123.5 156.5 L 120.0 161.0 L 116.0 164.5 L 114.5 165.5 L 114.0 165.5 " stroke="black" fill="none" stroke-width="7.0" stroke-linecap="round" stroke-linejoin="round" />
<path d="M 122.0 161.5 L 122.0 161.5 L 122.0 161.5 L 122.5 162.0 L 123.0 163.0 L 124.0 166.5 L 125.5 174.5 L 126.5 185.0 L 127.0 192.0 L 126.5 194.0 L 126.0 194.0 L 126.0 193.0 " stroke="black" fill="none" stroke-width="7.0" stroke-linecap="round" stroke-linejoin="round" />
<path d="M 139.5 153.5 L 139.5 153.5 L 139.5 153.5 L 139.5 154.0 L 140.0 154.5 L 141.0 155.5 L 142.5 157.0 L 144.0 158.5 L 145.5 159.5 " stroke="black" fill="none" stroke-width="7.0" stroke-linecap="round" stroke-linejoin="round" />
<path d="M 136.5 167.0 L 136.5 167.0 L 137.0 166.5 L 137.5 166.0 L 139.0 165.5 L 141.5 165.5 L 144.5 165.0 L 147.0 165.0 L 148.5 165.0 " stroke="black" fill="none" stroke-width="7.0" stroke-linecap="round" stroke-linejoin="round" />
<path d="M 138.0 175.5 L 138.0 176.5 L 138.5 177.0 L 140.0 177.0 L 142.5 176.0 L 145.5 175.0 L 148.5 174.5 L 149.5 174.5 L 150.0 174.5 " stroke="black" fill="none" stroke-width="7.0" stroke-linecap="round" stroke-linejoin="round" />
<path d="M 141.5 185.0 L 141.5 185.0 L 141.0 184.5 L 141.0 184.5 L 141.5 184.0 L 144.5 184.0 L 147.0 183.0 L 149.0 183.0 " stroke="black" fill="none" stroke-width="7.0" stroke-linecap="round" stroke-linejoin="round" />
<path d="M 146.0 166.5 L 145.0 166.5 L 144.5 166.5 L 144.0 167.5 L 144.0 170.5 L 145.0 177.0 L 145.5 185.0 L 145.5 191.0 L 145.5 193.5 L 145.5 193.5 " stroke="black" fill="none" stroke-width="7.0" stroke-linecap="round" stroke-linejoin="round" />
<path d="M 137.5 196.0 L 137.0 197.5 L 137.0 197.5 L 138.5 198.0 L 142.5 197.0 L 148.0 195.5 L 152.5 194.0 L 153.5 193.0 " stroke="black" fill="none" stroke-width="7.0" stroke-linecap="round" stroke-linejoin="round" />
<path d="M 168.5 109.5 L 168.5 109.5 L 168.5 109.5 L 168.5 109.5 L 168.0 109.5 L 168.0 111.0 L 168.0 116.5 L 167.0 127.0 L 164.5 136.5 L 162.5 140.0 L 162.0 139.5 " stroke="black" fill="none" stroke-width="7.0" stroke-linecap="round" stroke-linejoin="round" />
<path d="M 168.5 126.0 L 168.5 126.0 L 167.5 126.0 L 167.0 126.0 L 168.5 126.0 L 172.0 125.5 L 176.5 124.0 L 180.5 122.0 L 184.0 121.0 L 186.0 120.0 L 186.0 120.0 L 186.0 120.0 L 186.0 120.0 L 185.5 120.0 L 185.5 120.5 L 185.0 121.5 L 185.0 122.5 L 184.5 124.0 L 184.5 127.0 L 184.5 130.5 L 184.5 134.0 L 184.5 136.0 L 184.5 137.0 " stroke="black" fill="none" stroke-width="7.0" stroke-linecap="round" stroke-linejoin="round" />
<path d="M 173.5 139.0 L 174.5 138.0 L 175.0 138.0 L 175.0 138.0 L 175.0 140.5 L 174.5 147.0 L 172.0 158.5 L 168.0 170.5 L 165.0 177.0 L 163.5 178.0 L 163.0 177.0 " stroke="black" fill="none" stroke-width="7.0" stroke-linecap="round" stroke-linejoin="round" />
<path d="M 171.0 167.0 L 171.0 166.5 L 171.0 166.0 L 172.0 166.0 L 177.5 168.5 L 186.5 172.5 L 195.5 178.5 L 201.5 182.0 L 202.0 182.5 " stroke="black" fill="none" stroke-width="7.0" stroke-linecap="round" stroke-linejoin="round" />
</svg>