<svg xmlns="http://www.w3.org/2000/svg" width="300" height="300" viewBox="0 0 300 300">
<path d="M 131.0 123.0 L 131.0 123.0 L 131.0 122.5 L 131.0 122.0 L 131.5 122.0 L 136.5 121.5 L 147.0 120.5 L 158.5 120.0 L 168.5 119.0 L 174.5 118.5 L 176.5 118.5 L 176.0 118.5 L 176.0 118.5 L 176.0 118.5 L 176.0 118.5 " stroke="black" fill="none" stroke-width="6.0" stroke-linecap="round" stroke-linejoin="round" />
<path d="M 134.5 147.5 L 134.5 147.5 L 134.0 147.5 L 133.5 147.5 L 133.5 147.5 L 137.5 147.5 L 145.0 147.5 L 154.5 147.0 L 163.5 145.0 L 169.5 143.5 L 170.5 143.5 " stroke="black" fill="none" stroke-width="6.0" stroke-linecap="round" stroke-linejoin="round" />
<path d="M 153.0 123.5 L 153.0 123.0 L 153.0 122.0 L 153.0 122.0 L 153.0 122.5 L 153.5 127.0 L 153.5 137.5 L 153.5 152.5 L 152.5 172.0 L 152.5 175.0 L 152.5 176.0 L 152.0 175.0 " stroke="black" fill="none" stroke-width="6.0" stroke-linecap="round" stroke-linejoin="round" />
<path d="M 131.5 180.5 L 131.5 180.5 L 130.5 180.5 L 130.0 180.5 L 131.0 180.0 L 138.0 178.5 L 150.5 178.0 L 166.5 177.5 L 179.5 177.5 L 187.5 177.5 L 189.5 177.5 L 188.5 177.0 " stroke="black" fill="none" stroke-width="6.0" stroke-linecap="round" stroke-linejoin="round" />
<path d="M 169.5 157.0 L 169.0 157.5 L 168.5 158.5 L 168.5 159.0 L 169.5 161.5 L 172.0 164.5 L 175.5 167.5 L 176.5 168.0 " stroke="black" fill="none" stroke-width="6.0" stroke-linecap="round" stroke-linejoin="round" />
</svg>