<svg xmlns="http://www.w3.org/2000/svg" width="300" height="300" viewBox="0 0 300 300">
<path d="M 133.0 119.5 L 132.0 119.0 L 131.5 119.0 L 131.5 119.0 L 132.5 118.5 L 138.0 117.5 L 145.5 116.5 L 154.0 114.0 L 161.5 112.0 L 165.0 111.0 L 166.0 111.0 L 166.0 111.0 L 166.0 111.0 L 166.0 111.5 " stroke="black" fill="none" stroke-width="6.0" stroke-linecap="round" stroke-linejoin="round" />
<path d="M 133.5 149.5 L 133.0 150.0 L 132.5 150.5 L 132.5 150.5 L 134.5 150.0 L 140.0 149.0 L 147.0 148.0 L 155.5 147.5 L 162.0 146.5 L 165.0 146.5 L 165.5 146.5 L 165.5 146.5 " stroke="black" fill="none" stroke-width="6.0" stroke-linecap="round" stroke-linejoin="round" />
<path d="M 151.0 122.5 L 150.5 122.5 L 150.0 122.0 L 150.0 122.0 L 150.0 122.0 L 150.0 125.0 L 150.0 132.0 L 150.0 145.5 L 150.0 159.0 L 150.5 168.5 L 150.5 172.0 L 151.0 173.0 L 151.0 173.0 L 151.0 171.5 " stroke="black" fill="none" stroke-width="6.0" stroke-linecap="round" stroke-linejoin="round" />
<path d="M 129.0 178.5 L 129.0 179.0 L 128.5 179.5 L 128.5 179.5 L 131.5 179.5 L 139.0 179.5 L 150.0 179.0 L 161.5 177.5 L 170.0 176.0 L 175.0 175.0 L 176.5 174.5 L 176.0 174.5 L 175.5 174.5 L 174.5 174.5 " stroke="black" fill="none" stroke-width="6.0" stroke-linecap="round" stroke-linejoin="round" />
<path d="M 164.0 159.5 L 163.5 159.5 L 163.0 159.5 L 163.0 159.5 L 165.0 161.0 L 167.5 163.5 L 169.5 165.5 L 170.5 167.0 " stroke="black" fill="none" stroke-width="6.0" stroke-linecap="round" stroke-linejoin="round" />
</svg>