<svg xmlns="http://www.w3.org/2000/svg" width="300" height="300" viewBox="0 0 300 300">
<path d="M 118.0 139.0 L 118.5 139.0 L 119.0 139.0 L 120.0 138.0 L 123.0 135.0 L 129.0 129.0 L 135.5 122.5 L 138.5 119.5 L 139.0 119.0 L 138.0 119.5 L 137.0 120.5 L 137.0 120.5 " stroke="black" fill="none" stroke-width="6.0" stroke-linecap="round" stroke-linejoin="round" />
<path d="M 115.5 148.0 L 115.5 148.5 L 115.5 149.0 L 116.0 149.5 L 117.5 149.5 L 122.5 149.5 L 132.5 148.5 L 145.0 146.0 L 156.5 144.0 L 164.0 142.5 L 167.5 142.5 L 168.0 143.0 L 168.0 143.0 L 167.5 143.0 L 167.0 143.0 L 166.5 142.5 " stroke="black" fill="none" stroke-width="6.0" stroke-linecap="round" stroke-linejoin="round" />
<path d="M 130.0 131.0 L 130.5 131.0 L 131.0 131.0 L 131.5 131.0 L 132.0 131.0 L 132.0 131.5 L 132.0 134.0 L 132.5 141.0 L 132.5 152.5 L 131.5 166.0 L 129.5 177.5 L 127.0 184.0 L 124.5 187.5 L 123.0 188.0 L 122.5 187.5 L 122.5 186.5 " stroke="black" fill="none" stroke-width="6.0" stroke-linecap="round" stroke-linejoin="round" />
<path d="M 150.5 125.0 L 150.5 125.0 L 150.5 125.0 L 150.0 125.0 L 150.0 125.5 L 150.0 130.0 L 151.0 139.5 L 154.0 168.5 L 155.5 178.0 L 156.0 183.0 L 156.0 184.0 L 154.5 183.0 L 154.0 182.5 " stroke="black" fill="none" stroke-width="6.0" stroke-linecap="round" stroke-linejoin="round" />
</svg>