<svg xmlns="http://www.w3.org/2000/svg" width="300" height="300" viewBox="0 0 300 300">
<path d="M 145.5 106.5 L 145.0 106.5 L 144.0 106.5 L 143.0 106.5 L 142.5 106.0 L 143.0 106.0 L 146.0 108.0 L 149.5 109.5 L 152.0 111.0 L 153.0 111.0 " stroke="black" fill="none" stroke-width="6.0" stroke-linecap="round" stroke-linejoin="round" />
<path d="M 126.0 122.5 L 125.5 122.5 L 125.5 122.0 L 126.0 122.0 L 131.0 122.5 L 139.0 122.5 L 149.5 122.5 L 160.5 122.0 L 170.5 120.0 L 176.5 118.0 L 177.0 118.0 L 175.5 118.5 L 172.5 120.5 L 170.5 121.5 " stroke="black" fill="none" stroke-width="6.0" stroke-linecap="round" stroke-linejoin="round" />
<path d="M 145.5 125.0 L 146.0 124.5 L 146.5 124.0 L 147.5 123.0 L 147.5 123.0 L 147.5 124.0 L 144.5 129.0 L 139.0 136.0 L 131.5 144.0 L 125.5 149.0 L 124.5 149.5 L 125.5 148.5 " stroke="black" fill="none" stroke-width="6.0" stroke-linecap="round" stroke-linejoin="round" />
<path d="M 148.0 128.5 L 148.0 129.0 L 148.0 129.5 L 148.0 129.5 L 148.5 130.5 L 151.5 133.5 L 158.5 140.5 L 168.0 147.5 L 176.5 150.0 L 182.5 150.0 L 185.5 149.5 L 185.5 149.5 L 185.5 149.0 " stroke="black" fill="none" stroke-width="6.0" stroke-linecap="round" stroke-linejoin="round" />
<path d="M 176.5 134.0 L 176.5 134.0 L 176.5 134.5 L 176.5 134.5 L 176.0 134.5 L 173.5 136.5 L 170.0 140.0 L 166.5 142.5 L 165.5 143.0 " stroke="black" fill="none" stroke-width="6.0" stroke-linecap="round" stroke-linejoin="round" />
<path d="M 141.0 141.5 L 141.0 140.5 L 141.0 139.5 L 141.0 139.5 L 141.0 139.5 L 141.0 141.5 L 141.0 147.0 L 140.5 156.0 L 140.5 166.0 L 140.5 171.5 L 142.0 172.5 L 145.0 169.0 L 149.0 164.5 L 152.5 161.0 L 154.0 159.5 L 154.5 160.0 L 154.5 160.0 " stroke="black" fill="none" stroke-width="6.0" stroke-linecap="round" stroke-linejoin="round" />
</svg>