<svg xmlns="http://www.w3.org/2000/svg" width="300" height="300" viewBox="0 0 300 300">
<path d="M 130.5 113.5 L 131.0 113.0 L 131.5 112.5 L 132.0 112.5 L 132.5 112.5 L 133.0 117.0 L 133.5 127.5 L 133.0 141.5 L 132.5 150.0 L 132.5 151.5 L 132.5 150.0 L 132.5 148.0 " stroke="black" fill="none" stroke-width="6.0" stroke-linecap="round" stroke-linejoin="round" />
<path d="M 133.5 111.5 L 132.5 112.0 L 131.5 112.0 L 131.5 112.0 L 132.0 112.0 L 134.5 112.0 L 139.5 111.5 L 147.5 109.5 L 157.0 107.5 L 164.5 107.0 L 167.5 107.5 L 168.0 108.5 L 168.0 110.0 L 168.0 111.5 L 168.5 114.5 L 169.0 119.5 L 169.5 126.5 L 169.0 133.5 L 167.5 141.5 L 166.5 147.5 L 166.5 150.0 L 166.5 150.5 L 166.5 150.0 " stroke="black" fill="none" stroke-width="6.0" stroke-linecap="round" stroke-linejoin="round" />
<path d="M 141.0 133.5 L 139.5 134.0 L 139.0 134.0 L 140.5 134.0 L 145.5 133.0 L 151.0 132.0 L 156.0 130.5 L 158.5 129.5 " stroke="black" fill="none" stroke-width="6.0" stroke-linecap="round" stroke-linejoin="round" />
<path d="M 152.0 111.0 L 152.0 111.0 L 151.0 111.5 L 151.0 113.0 L 151.0 117.5 L 151.0 126.5 L 150.5 136.0 L 150.0 143.5 L 149.5 147.5 L 149.0 148.0 " stroke="black" fill="none" stroke-width="6.0" stroke-linecap="round" stroke-linejoin="round" />
<path d="M 139.0 150.5 L 138.0 151.0 L 137.5 151.5 L 138.5 151.5 L 142.5 150.5 L 148.0 150.0 L 154.0 149.0 L 160.0 148.0 L 161.0 148.0 " stroke="black" fill="none" stroke-width="6.0" stroke-linecap="round" stroke-linejoin="round" />
<path d="M 129.5 166.0 L 129.5 166.0 L 128.5 166.5 L 126.5 168.5 L 124.0 172.0 L 122.5 175.0 L 122.5 176.0 " stroke="black" fill="none" stroke-width="6.0" stroke-linecap="round" stroke-linejoin="round" />
<path d="M 144.5 166.5 L 143.5 166.5 L 142.5 166.0 L 142.0 168.5 L 142.0 172.5 L 142.5 178.0 L 145.5 182.5 L 150.5 183.5 L 157.0 183.5 L 161.0 182.0 L 161.5 180.5 L 161.5 178.5 " stroke="black" fill="none" stroke-width="6.0" stroke-linecap="round" stroke-linejoin="round" />
<path d="M 157.5 165.5 L 157.5 165.5 L 157.5 165.0 L 158.0 165.0 L 159.0 165.0 L 161.5 166.0 L 165.0 166.5 " stroke="black" fill="none" stroke-width="6.0" stroke-linecap="round" stroke-linejoin="round" />
<path d="M 172.5 162.5 L 173.0 162.5 L 173.5 162.5 L 174.0 162.5 L 176.0 163.5 L 179.0 166.0 L 182.0 168.5 L 184.5 170.5 L 186.5 171.5 L 187.5 172.0 " stroke="black" fill="none" stroke-width="6.0" stroke-linecap="round" stroke-linejoin="round" />
</svg>