<svg xmlns="http://www.w3.org/2000/svg" width="300" height="300" viewBox="0 0 300 300">
<path d="M 86.0 117.0 L 86.5 117.5 L 86.5 117.5 L 86.5 118.0 L 86.5 118.0 L 86.5 118.0 L 87.0 118.0 L 88.0 119.5 L 90.0 122.5 L 92.0 127.0 L 94.5 132.0 L 97.0 136.0 L 98.5 138.5 L 100.0 140.0 L 101.0 141.5 L 102.0 143.5 L 103.0 145.0 L 104.0 147.0 L 104.5 148.0 L 105.0 149.0 L 105.5 150.0 L 106.0 150.0 L 106.0 150.5 L 106.5 150.5 L 106.5 151.0 L 106.5 151.0 L 106.5 151.0 L 106.5 151.0 L 106.5 151.0 L 106.5 151.0 L 106.5 151.0 L 106.5 151.5 L 106.5 152.0 L 106.5 152.0 L 106.5 153.0 L 106.5 153.5 L 106.5 154.0 L 106.5 155.0 L 106.0 155.5 L 106.0 156.5 L 105.5 157.5 L 105.0 159.0 L 104.5 160.0 L 103.5 161.0 L 102.5 162.5 L 102.0 164.0 L 101.0 165.5 L 100.5 166.5 L 99.5 168.0 L 98.0 169.5 L 96.0 172.0 L 94.0 174.5 L 92.5 177.5 L 91.0 180.0 L 89.5 182.5 L 88.5 185.0 L 87.5 187.0 L 87.0 189.0 L 86.5 189.5 L 86.5 190.0 L 86.5 190.0 L 86.5 190.0 L 86.5 189.5 L 86.5 187.5 " stroke="black" fill="none" stroke-width="7.0" stroke-linecap="round" stroke-linejoin="round" />
<path d="M 103.0 115.0 L 102.0 115.5 L 101.0 116.0 L 101.0 116.0 L 101.0 116.0 L 102.0 116.5 L 103.5 117.5 L 105.5 119.5 L 107.5 122.0 L 110.0 125.5 L 112.5 129.5 L 115.0 132.5 L 116.5 135.0 L 118.0 136.5 L 119.5 138.0 L 120.5 139.0 L 121.0 140.0 L 122.0 141.0 L 122.5 142.5 L 123.5 143.5 L 124.5 145.0 L 125.0 146.0 L 125.5 146.5 L 126.0 147.5 L 126.5 148.0 L 127.5 148.5 L 127.5 149.0 L 128.0 149.5 L 128.5 150.0 L 128.5 150.0 L 129.0 150.5 L 129.0 150.5 L 129.0 151.0 L 129.0 151.0 L 129.0 151.0 L 129.5 151.0 L 129.5 151.0 L 129.5 151.5 L 129.5 151.5 L 129.5 151.5 L 129.5 151.5 L 129.5 151.5 L 129.5 151.5 L 129.5 152.0 L 129.5 152.0 L 129.0 152.0 L 129.0 152.5 L 128.5 153.0 L 128.0 153.0 L 127.5 153.5 L 127.0 154.5 L 126.0 156.0 L 124.5 158.0 L 123.0 160.0 L 121.5 162.5 L 119.5 165.0 L 117.0 168.0 L 114.5 171.0 L 112.5 173.5 L 111.0 176.5 L 109.0 179.0 L 107.5 181.5 L 105.5 184.5 L 104.0 187.0 L 103.0 189.0 L 102.5 190.0 L 102.0 190.5 L 101.5 191.5 L 101.0 192.5 L 100.0 194.0 L 99.0 195.5 L 98.5 197.0 L 98.0 197.5 L 98.0 197.5 " stroke="black" fill="none" stroke-width="7.0" stroke-linecap="round" stroke-linejoin="round" />
</svg>