<svg xmlns="http://www.w3.org/2000/svg" width="300" height="300" viewBox="0 0 300 300">
<path d="M 131.5 109.5 L 132.5 109.5 L 133.0 109.5 L 133.0 109.5 L 134.5 109.0 L 136.5 107.5 L 139.5 106.5 L 143.0 105.0 L 146.5 104.0 L 149.5 103.5 L 151.0 103.5 L 152.0 103.5 L 152.5 103.5 L 152.5 103.5 L 152.5 103.5 L 152.5 103.5 L 152.0 103.5 L 152.0 103.5 L 152.0 103.5 L 152.0 103.5 L 152.0 103.5 L 152.0 103.5 L 152.0 103.5 L 152.0 103.5 L 151.5 104.0 L 151.5 104.0 L 151.5 104.5 L 151.5 105.0 L 151.5 105.5 L 151.5 106.0 L 151.5 107.0 L 151.5 108.5 L 151.5 112.5 L 152.0 119.5 L 154.0 130.0 L 156.5 140.5 L 160.5 150.5 L 165.5 158.0 L 171.0 162.5 L 176.0 165.0 L 180.0 165.0 L 181.0 165.0 L 180.0 165.0 " stroke="black" fill="none" stroke-width="7.0" stroke-linecap="round" stroke-linejoin="round" />
<path d="M 150.0 129.5 L 150.0 129.5 L 150.5 129.5 L 151.0 129.5 L 151.0 130.0 L 151.0 131.0 L 149.5 134.5 L 143.5 144.5 L 133.5 158.5 L 127.0 167.0 L 125.0 169.5 L 125.0 168.0 " stroke="black" fill="none" stroke-width="7.0" stroke-linecap="round" stroke-linejoin="round" />
</svg>