<svg xmlns="http://www.w3.org/2000/svg" width="300" height="300" viewBox="0 0 300 300">
<path d="M 119.0 119.5 L 119.0 119.5 L 118.5 119.5 L 119.5 119.5 L 125.0 119.0 L 134.5 118.5 L 145.0 118.0 L 151.0 118.0 L 151.5 118.5 L 151.0 119.0 " stroke="black" fill="none" stroke-width="6.0" stroke-linecap="round" stroke-linejoin="round" />
<path d="M 118.0 141.5 L 117.0 141.5 L 115.5 141.5 L 115.5 141.5 L 119.5 142.0 L 127.5 142.0 L 138.5 141.0 L 148.5 139.0 L 153.5 138.0 L 154.0 137.5 " stroke="black" fill="none" stroke-width="6.0" stroke-linecap="round" stroke-linejoin="round" />
<path d="M 130.0 122.0 L 131.0 122.0 L 131.0 123.0 L 131.0 126.0 L 130.5 133.5 L 128.5 146.0 L 125.0 158.5 L 121.0 170.0 L 118.5 176.5 L 117.5 177.5 L 116.5 175.5 " stroke="black" fill="none" stroke-width="6.0" stroke-linecap="round" stroke-linejoin="round" />
<path d="M 138.5 123.5 L 138.5 123.5 L 138.5 123.5 L 138.5 124.5 L 139.0 129.0 L 139.5 138.5 L 139.5 152.0 L 139.5 164.5 L 139.0 172.5 L 139.5 174.0 L 139.5 174.0 " stroke="black" fill="none" stroke-width="6.0" stroke-linecap="round" stroke-linejoin="round" />
<path d="M 173.0 118.5 L 173.0 118.5 L 173.5 118.0 L 174.0 118.0 L 174.0 118.0 L 172.5 119.5 L 168.5 124.5 L 163.5 130.5 L 159.5 134.0 L 159.0 135.0 L 159.0 135.0 " stroke="black" fill="none" stroke-width="6.0" stroke-linecap="round" stroke-linejoin="round" />
<path d="M 176.0 129.0 L 176.0 129.5 L 176.5 130.0 L 176.5 130.5 L 176.5 131.5 L 174.5 134.5 L 170.5 140.0 L 164.5 146.0 L 159.0 150.5 L 156.5 152.0 L 156.5 152.0 L 156.5 151.0 " stroke="black" fill="none" stroke-width="6.0" stroke-linecap="round" stroke-linejoin="round" />
<path d="M 181.0 143.0 L 181.0 143.0 L 180.5 143.0 L 179.5 144.5 L 176.5 148.0 L 172.0 154.5 L 165.5 162.0 L 159.0 168.0 L 155.5 170.5 L 155.0 171.0 L 155.0 171.0 " stroke="black" fill="none" stroke-width="6.0" stroke-linecap="round" stroke-linejoin="round" />
</svg>