<svg xmlns="http://www.w3.org/2000/svg" width="300" height="300" viewBox="0 0 300 300">
<path d="M 132.0 110.5 L 132.0 110.0 L 132.5 109.5 L 132.5 109.0 L 132.5 109.0 L 133.0 108.5 L 133.0 108.5 L 133.0 110.5 L 133.0 114.5 L 132.0 120.0 L 131.0 124.5 L 129.5 128.0 L 129.5 128.5 " stroke="black" fill="none" stroke-width="6.0" stroke-linecap="round" stroke-linejoin="round" />
<path d="M 126.5 116.5 L 125.5 117.0 L 125.0 117.0 L 125.5 117.0 L 128.0 117.0 L 131.5 116.5 L 134.5 116.0 L 137.5 115.5 L 140.5 115.0 L 142.0 114.5 L 142.5 114.5 L 142.5 114.5 L 142.5 114.5 L 142.5 115.0 L 142.5 116.0 L 142.5 117.5 L 142.5 119.5 L 142.5 122.5 L 142.5 125.0 L 142.0 126.5 L 141.0 127.5 L 140.0 127.0 " stroke="black" fill="none" stroke-width="6.0" stroke-linecap="round" stroke-linejoin="round" />
<path d="M 153.5 113.5 L 153.5 113.5 L 154.0 113.0 L 154.0 113.0 L 154.5 113.0 L 154.5 113.0 L 154.5 113.0 L 155.0 113.0 L 155.0 113.5 L 155.0 116.5 L 155.0 120.5 L 155.0 124.0 L 154.5 125.0 L 154.5 125.0 " stroke="black" fill="none" stroke-width="6.0" stroke-linecap="round" stroke-linejoin="round" />
<path d="M 153.5 112.0 L 153.5 111.5 L 153.5 111.5 L 153.5 111.0 L 154.5 110.5 L 158.0 109.5 L 162.5 109.0 L 166.0 108.5 L 169.5 108.0 L 171.0 108.0 L 172.0 108.5 L 172.0 110.0 L 171.0 112.0 L 170.5 114.5 L 169.0 117.5 L 168.0 120.0 L 167.0 121.5 L 166.5 122.5 " stroke="black" fill="none" stroke-width="6.0" stroke-linecap="round" stroke-linejoin="round" />
<path d="M 157.5 124.0 L 157.5 124.0 L 157.5 124.0 L 158.5 123.5 L 161.5 123.5 L 165.0 123.0 L 168.0 122.5 L 168.5 122.5 " stroke="black" fill="none" stroke-width="6.0" stroke-linecap="round" stroke-linejoin="round" />
<path d="M 131.5 137.5 L 132.5 137.5 L 133.5 137.5 L 136.0 137.0 L 142.5 136.0 L 152.5 134.5 L 162.5 133.5 L 168.5 133.5 L 170.0 133.5 " stroke="black" fill="none" stroke-width="6.0" stroke-linecap="round" stroke-linejoin="round" />
<path d="M 138.5 141.5 L 138.0 141.5 L 137.0 141.0 L 137.0 140.5 L 137.0 140.5 L 137.0 141.5 L 138.0 144.5 L 139.0 149.0 L 139.5 155.0 L 139.5 160.5 L 139.5 164.0 L 139.5 165.0 L 139.5 165.5 L 140.5 166.5 L 141.0 167.5 L 141.5 168.5 L 142.0 169.0 L 143.0 169.0 L 143.5 169.0 L 144.5 168.5 L 145.0 167.5 L 145.5 167.0 L 146.0 166.0 L 148.0 165.5 L 151.0 164.5 L 156.0 163.5 L 162.5 163.0 L 169.0 163.0 L 173.5 163.0 L 176.5 162.5 L 178.0 162.0 L 178.5 162.0 L 178.5 162.0 L 178.5 162.0 L 178.0 162.0 L 178.0 162.0 L 178.0 163.0 L 178.5 164.0 L 179.0 167.0 L 179.5 172.0 L 180.0 179.0 L 180.5 186.5 L 180.5 192.0 L 181.0 195.5 L 181.0 198.5 L 181.0 200.0 L 180.5 200.5 L 179.5 200.5 L 176.0 199.0 L 171.0 195.5 L 168.0 192.0 " stroke="black" fill="none" stroke-width="6.0" stroke-linecap="round" stroke-linejoin="round" />
<path d="M 145.0 149.5 L 144.5 149.5 L 143.5 149.0 L 143.5 148.5 L 146.0 147.5 L 150.0 145.5 L 154.5 144.0 L 158.5 143.5 L 161.0 144.0 " stroke="black" fill="none" stroke-width="6.0" stroke-linecap="round" stroke-linejoin="round" />
<path d="M 147.0 154.5 L 146.5 154.5 L 146.0 155.5 L 146.0 155.5 L 148.5 155.5 L 153.0 155.0 L 158.5 153.5 L 163.0 152.0 L 167.0 150.5 " stroke="black" fill="none" stroke-width="6.0" stroke-linecap="round" stroke-linejoin="round" />
<path d="M 152.5 140.0 L 152.5 140.0 L 153.5 140.0 L 154.0 140.0 L 154.0 141.0 L 154.0 145.0 L 154.0 152.0 L 154.0 159.0 L 154.5 162.5 L 154.5 162.5 " stroke="black" fill="none" stroke-width="6.0" stroke-linecap="round" stroke-linejoin="round" />
<path d="M 132.5 182.0 L 133.0 182.0 L 134.0 182.0 L 134.0 182.0 L 134.0 182.0 L 133.5 183.0 L 132.0 186.0 L 131.0 189.5 L 130.5 192.5 L 130.0 193.5 " stroke="black" fill="none" stroke-width="6.0" stroke-linecap="round" stroke-linejoin="round" />
<path d="M 144.5 179.0 L 144.0 179.5 L 143.5 179.5 L 143.0 179.5 L 143.5 180.5 L 145.0 182.0 L 146.0 183.5 L 147.0 185.0 L 147.5 185.5 " stroke="black" fill="none" stroke-width="6.0" stroke-linecap="round" stroke-linejoin="round" />
<path d="M 153.0 179.0 L 153.0 180.0 L 153.0 180.5 L 153.5 181.0 L 154.0 181.5 L 155.0 182.0 L 155.5 182.5 L 156.0 182.5 " stroke="black" fill="none" stroke-width="6.0" stroke-linecap="round" stroke-linejoin="round" />
<path d="M 163.0 176.5 L 163.0 177.5 L 162.5 178.0 L 163.0 178.5 L 163.5 179.0 L 165.5 180.5 L 167.0 182.5 L 168.5 184.5 L 169.5 185.5 " stroke="black" fill="none" stroke-width="6.0" stroke-linecap="round" stroke-linejoin="round" />
</svg>