<svg xmlns="http://www.w3.org/2000/svg" width="300" height="300" viewBox="0 0 300 300">
<path d="M 130.5 118.0 L 130.0 118.0 L 129.0 118.0 L 128.5 118.0 L 129.5 118.0 L 132.5 117.5 L 138.5 116.0 L 147.5 113.5 L 157.0 111.0 L 165.0 109.5 L 169.0 109.5 L 169.5 110.5 L 169.5 111.0 L 169.0 112.5 L 168.5 115.0 L 168.0 120.0 L 167.0 126.0 L 165.5 132.5 L 164.5 137.5 L 164.5 139.5 L 164.5 140.0 L 165.0 138.0 " stroke="black" fill="none" stroke-width="6.0" stroke-linecap="round" stroke-linejoin="round" />
<path d="M 127.0 129.5 L 126.0 130.5 L 125.5 131.0 L 126.0 131.0 L 130.0 130.5 L 137.5 129.5 L 149.5 128.0 L 162.5 126.0 L 172.5 125.5 L 177.0 125.0 L 176.5 125.5 L 174.5 125.5 L 172.5 125.5 " stroke="black" fill="none" stroke-width="6.0" stroke-linecap="round" stroke-linejoin="round" />
<path d="M 131.5 144.0 L 131.5 144.0 L 131.5 144.0 L 131.5 144.0 L 131.5 144.0 L 131.5 143.5 L 132.0 143.5 L 132.0 143.5 L 132.5 143.5 L 134.5 143.5 L 140.5 142.5 L 149.5 141.5 L 158.0 139.5 L 163.5 138.5 L 164.0 138.0 L 163.5 138.0 L 163.0 138.0 L 163.0 138.0 L 163.0 138.0 L 163.5 138.0 L 163.5 138.0 " stroke="black" fill="none" stroke-width="6.0" stroke-linecap="round" stroke-linejoin="round" />
<path d="M 142.5 118.0 L 142.5 118.0 L 142.5 117.5 L 142.5 117.5 L 142.5 119.0 L 143.0 123.5 L 143.0 132.5 L 141.0 146.5 L 137.5 159.5 L 134.5 168.5 L 132.5 172.5 L 131.0 174.0 L 130.5 174.0 L 130.5 174.0 L 130.5 173.5 " stroke="black" fill="none" stroke-width="6.0" stroke-linecap="round" stroke-linejoin="round" />
<path d="M 141.5 159.0 L 141.5 158.0 L 141.5 157.0 L 141.0 157.0 L 141.5 158.0 L 142.5 162.0 L 144.0 168.5 L 144.5 174.5 L 145.0 177.0 L 145.5 176.5 " stroke="black" fill="none" stroke-width="6.0" stroke-linecap="round" stroke-linejoin="round" />
<path d="M 145.5 158.5 L 144.5 158.5 L 143.5 158.0 L 143.5 158.0 L 144.5 158.0 L 147.5 157.5 L 151.5 157.0 L 155.5 156.0 L 159.0 155.5 L 161.5 156.0 L 163.0 158.0 L 164.0 160.5 L 164.5 164.0 L 164.5 168.5 L 164.5 173.0 L 163.5 177.5 L 162.5 181.0 L 162.0 182.5 L 161.5 182.5 " stroke="black" fill="none" stroke-width="6.0" stroke-linecap="round" stroke-linejoin="round" />
<path d="M 149.0 183.0 L 148.0 183.0 L 147.5 182.5 L 147.5 182.5 L 149.5 182.5 L 152.5 182.5 L 157.0 182.5 L 162.5 182.5 L 166.5 182.0 " stroke="black" fill="none" stroke-width="6.0" stroke-linecap="round" stroke-linejoin="round" />
</svg>