<svg xmlns="http://www.w3.org/2000/svg" width="300" height="300" viewBox="0 0 300 300">
<path d="M 136.0 115.0 L 135.5 115.5 L 134.5 116.0 L 133.5 117.0 L 133.0 117.0 L 132.5 117.0 L 133.0 117.0 L 135.0 116.5 L 139.0 116.0 L 144.5 115.0 L 152.0 114.5 L 161.0 114.0 L 168.0 113.5 L 172.5 113.5 L 173.5 113.5 L 173.5 114.0 L 173.5 114.0 L 173.5 114.0 L 173.5 114.5 L 173.0 115.5 L 172.5 118.5 L 170.5 123.5 L 168.0 130.0 L 166.0 135.5 L 165.0 139.0 L 166.0 140.0 " stroke="black" fill="none" stroke-width="6.0" stroke-linecap="round" stroke-linejoin="round" />
<path d="M 128.0 129.5 L 127.5 129.5 L 126.5 130.0 L 126.5 130.0 L 127.5 130.0 L 130.0 130.0 L 135.0 129.0 L 143.5 127.5 L 154.0 127.0 L 164.0 126.5 L 172.0 126.5 L 176.0 127.5 L 177.0 128.0 L 177.0 128.0 L 176.0 128.0 L 174.5 128.0 " stroke="black" fill="none" stroke-width="6.0" stroke-linecap="round" stroke-linejoin="round" />
<path d="M 129.5 145.5 L 129.5 145.5 L 130.0 145.0 L 130.0 144.5 L 131.0 144.5 L 134.0 144.0 L 140.0 143.0 L 147.5 143.0 L 154.5 142.5 L 160.0 142.0 L 161.0 142.0 " stroke="black" fill="none" stroke-width="6.0" stroke-linecap="round" stroke-linejoin="round" />
<path d="M 146.5 116.5 L 146.0 116.5 L 145.0 116.5 L 144.5 116.5 L 144.0 117.5 L 143.5 121.0 L 142.5 128.0 L 140.0 139.0 L 136.5 149.5 L 133.5 158.5 L 130.0 166.5 L 126.5 172.5 L 123.5 176.0 L 121.5 177.0 L 121.5 176.5 L 121.5 175.0 " stroke="black" fill="none" stroke-width="6.0" stroke-linecap="round" stroke-linejoin="round" />
<path d="M 139.5 159.5 L 139.5 159.5 L 139.5 159.0 L 139.5 158.5 L 140.0 158.5 L 141.0 161.0 L 142.0 166.0 L 142.5 171.0 L 143.5 174.5 L 144.0 175.0 " stroke="black" fill="none" stroke-width="6.0" stroke-linecap="round" stroke-linejoin="round" />
<path d="M 142.5 156.0 L 142.0 156.0 L 140.5 156.0 L 140.0 155.5 L 140.5 155.5 L 143.0 155.0 L 147.0 154.0 L 152.5 153.5 L 159.0 153.0 L 166.0 152.5 L 170.5 153.0 L 171.5 154.5 L 171.5 156.5 L 169.5 160.0 L 167.5 165.0 L 165.0 171.0 L 164.0 175.0 L 163.5 176.5 L 163.5 176.5 L 164.0 175.0 " stroke="black" fill="none" stroke-width="6.0" stroke-linecap="round" stroke-linejoin="round" />
<path d="M 142.0 180.0 L 142.0 180.0 L 141.0 180.0 L 141.0 180.0 L 143.5 179.5 L 148.5 178.5 L 155.5 178.0 L 163.5 178.0 L 170.0 178.0 " stroke="black" fill="none" stroke-width="6.0" stroke-linecap="round" stroke-linejoin="round" />
</svg>