<svg xmlns="http://www.w3.org/2000/svg" width="300" height="300" viewBox="0 0 300 300">
<path d="M 132.0 112.5 L 132.0 112.5 L 132.0 113.0 L 131.0 113.0 L 130.5 113.0 L 131.0 112.5 L 134.5 111.5 L 140.5 110.5 L 149.0 109.0 L 158.0 107.5 L 164.5 107.0 L 169.0 106.0 L 171.0 106.0 L 171.5 105.5 L 171.5 105.5 L 171.5 105.5 L 172.0 105.5 L 172.5 105.5 L 173.0 105.5 L 173.5 106.0 L 173.5 106.5 L 174.0 108.5 L 174.0 111.0 L 172.0 118.0 L 170.5 122.5 L 168.0 128.5 L 167.5 132.0 L 167.5 133.0 L 167.5 132.5 L 167.5 131.5 L 167.5 131.0 " stroke="black" fill="none" stroke-width="6.0" stroke-linecap="round" stroke-linejoin="round" />
<circle cx="287.5" cy="134.5" r="3.0" fill="black" />
<path d="M 131.5 127.0 L 131.0 126.5 L 131.0 126.0 L 131.5 125.0 L 135.5 124.0 L 139.0 123.0 L 148.0 122.0 L 162.0 120.5 L 169.5 120.0 L 176.0 120.0 L 179.0 120.0 L 179.0 120.0 L 179.0 120.0 L 178.5 120.0 L 176.5 120.0 " stroke="black" fill="none" stroke-width="6.0" stroke-linecap="round" stroke-linejoin="round" />
<path d="M 132.0 144.0 L 132.0 144.0 L 132.0 144.0 L 131.5 144.0 L 131.5 144.0 L 133.5 143.5 L 139.0 142.5 L 149.0 140.0 L 159.5 137.5 L 165.0 137.0 L 166.5 137.5 L 166.5 138.0 L 166.5 138.5 L 166.5 138.5 " stroke="black" fill="none" stroke-width="6.0" stroke-linecap="round" stroke-linejoin="round" />
<path d="M 147.5 110.5 L 147.5 110.5 L 148.0 111.0 L 148.0 111.0 L 148.0 111.5 L 148.0 114.5 L 147.0 123.5 L 144.5 137.0 L 141.5 151.5 L 137.5 162.0 L 133.0 170.0 L 129.0 175.0 L 127.0 177.0 L 126.0 176.5 L 125.5 174.5 " stroke="black" fill="none" stroke-width="6.0" stroke-linecap="round" stroke-linejoin="round" />
<path d="M 141.5 152.5 L 141.0 152.5 L 140.0 152.5 L 140.0 153.0 L 140.0 156.5 L 141.0 163.5 L 142.0 170.5 L 142.5 175.0 L 143.0 175.5 L 143.5 174.5 " stroke="black" fill="none" stroke-width="6.0" stroke-linecap="round" stroke-linejoin="round" />
<path d="M 144.0 155.5 L 143.5 155.5 L 142.0 156.0 L 141.5 156.0 L 141.5 156.0 L 143.5 155.5 L 147.0 154.0 L 151.0 152.5 L 156.5 151.5 L 162.0 151.0 L 166.0 151.5 L 167.5 152.0 L 168.0 152.5 L 168.0 153.0 L 167.5 153.0 L 167.0 153.0 L 167.0 154.0 L 166.5 155.5 L 166.0 158.0 L 165.0 161.5 L 164.0 166.5 L 163.0 171.0 L 163.0 174.0 L 163.0 174.5 " stroke="black" fill="none" stroke-width="6.0" stroke-linecap="round" stroke-linejoin="round" />
<path d="M 143.5 179.0 L 142.5 179.0 L 142.0 179.0 L 142.0 179.0 L 142.0 179.0 L 144.5 179.0 L 149.0 179.0 L 153.5 179.0 L 158.5 179.0 L 162.0 179.0 L 163.5 178.5 L 163.5 178.5 L 163.5 178.5 L 163.0 178.5 L 163.0 178.5 " stroke="black" fill="none" stroke-width="6.0" stroke-linecap="round" stroke-linejoin="round" />
</svg>