<svg xmlns="http://www.w3.org/2000/svg" width="300" height="300" viewBox="0 0 300 300">
<path d="M 141.0 114.0 L 141.0 115.0 L 141.0 116.0 L 143.0 116.5 L 145.5 118.5 L 148.0 120.5 L 149.5 122.5 " stroke="black" fill="none" stroke-width="6.0" stroke-linecap="round" stroke-linejoin="round" />
<path d="M 124.0 131.0 L 123.5 131.5 L 123.0 132.0 L 122.5 133.0 L 122.5 135.5 L 122.0 139.0 L 122.0 142.0 L 122.0 143.5 L 122.0 143.5 " stroke="black" fill="none" stroke-width="6.0" stroke-linecap="round" stroke-linejoin="round" />
<path d="M 125.0 132.5 L 125.0 132.5 L 125.0 133.0 L 125.5 133.0 L 128.5 133.0 L 133.5 133.0 L 141.5 131.5 L 149.0 130.0 L 155.5 129.0 L 162.5 129.0 L 167.0 129.0 L 171.0 129.5 L 176.0 130.0 L 177.0 130.0 L 177.0 130.0 L 177.0 130.5 L 177.0 130.5 L 177.0 130.5 L 176.5 130.5 L 176.0 132.0 L 175.5 134.5 L 174.5 137.5 L 173.5 141.5 L 173.0 144.5 L 173.0 146.0 " stroke="black" fill="none" stroke-width="6.0" stroke-linecap="round" stroke-linejoin="round" />
<path d="M 137.5 149.0 L 137.5 149.0 L 137.5 149.0 L 137.0 149.0 L 137.0 149.5 L 136.5 151.0 L 134.5 153.5 L 131.5 158.0 L 128.0 162.0 L 126.5 164.0 L 126.5 163.5 " stroke="black" fill="none" stroke-width="6.0" stroke-linecap="round" stroke-linejoin="round" />
<path d="M 152.0 148.5 L 152.0 148.5 L 152.0 148.5 L 152.0 148.5 L 152.5 149.0 L 155.0 150.5 L 158.5 153.5 L 161.5 155.5 L 163.5 157.5 L 164.0 157.5 " stroke="black" fill="none" stroke-width="6.0" stroke-linecap="round" stroke-linejoin="round" />
<path d="M 146.5 160.5 L 146.5 160.5 L 146.5 160.5 L 146.5 160.0 L 146.5 160.0 L 146.0 160.0 L 145.0 161.0 L 141.5 166.0 L 136.0 173.0 L 131.5 178.5 L 130.0 180.0 L 130.0 179.0 L 130.0 178.0 " stroke="black" fill="none" stroke-width="6.0" stroke-linecap="round" stroke-linejoin="round" />
<path d="M 145.0 162.0 L 145.0 162.0 L 145.0 162.5 L 145.0 162.5 L 146.5 162.5 L 150.0 163.5 L 154.0 165.5 L 158.5 167.5 L 162.5 169.0 L 165.0 170.0 L 166.5 170.5 L 166.5 170.5 " stroke="black" fill="none" stroke-width="6.0" stroke-linecap="round" stroke-linejoin="round" />
<path d="M 141.5 179.0 L 141.5 178.5 L 141.5 178.0 L 141.0 177.5 L 141.0 177.5 L 141.0 180.0 L 141.5 185.0 L 141.5 189.5 L 142.0 192.5 L 142.0 193.5 " stroke="black" fill="none" stroke-width="6.0" stroke-linecap="round" stroke-linejoin="round" />
<path d="M 143.0 178.0 L 142.5 179.0 L 142.0 179.5 L 143.0 179.5 L 146.0 179.5 L 149.5 179.5 L 152.5 178.0 L 155.5 177.0 L 157.5 176.0 L 159.0 175.5 L 159.5 175.0 L 160.0 176.0 L 160.0 178.0 L 160.0 181.5 L 159.5 186.0 L 159.5 189.5 L 159.0 192.0 L 158.5 193.0 " stroke="black" fill="none" stroke-width="6.0" stroke-linecap="round" stroke-linejoin="round" />
<path d="M 143.5 195.5 L 143.0 196.0 L 142.0 196.5 L 142.0 196.5 L 144.0 196.0 L 148.5 195.0 L 153.5 194.0 L 158.0 194.0 L 159.5 193.5 " stroke="black" fill="none" stroke-width="6.0" stroke-linecap="round" stroke-linejoin="round" />
</svg>