<svg xmlns="http://www.w3.org/2000/svg" width="300" height="300" viewBox="0 0 300 300">
<path d="M 127.5 118.5 L 127.5 117.5 L 127.5 116.5 L 127.5 115.5 L 127.5 115.0 L 127.5 115.0 L 128.0 115.5 L 128.5 118.0 L 129.0 122.5 L 129.5 127.5 L 129.5 131.0 L 129.5 132.5 " stroke="black" fill="none" stroke-width="6.0" stroke-linecap="round" stroke-linejoin="round" />
<path d="M 116.5 127.0 L 116.5 127.0 L 116.5 127.0 L 116.5 127.0 L 119.0 126.5 L 123.0 126.0 L 126.5 126.0 L 129.0 125.5 L 129.5 125.5 " stroke="black" fill="none" stroke-width="6.0" stroke-linecap="round" stroke-linejoin="round" />
<path d="M 143.0 114.5 L 143.0 114.5 L 142.5 115.0 L 142.5 115.5 L 142.5 116.0 L 142.5 118.0 L 143.0 121.5 L 143.0 126.0 L 143.0 129.0 L 142.5 130.0 " stroke="black" fill="none" stroke-width="6.0" stroke-linecap="round" stroke-linejoin="round" />
<path d="M 141.5 123.5 L 141.5 123.5 L 141.5 123.5 L 143.5 123.5 L 147.0 123.0 L 150.0 123.0 L 152.0 122.5 L 152.5 122.5 " stroke="black" fill="none" stroke-width="6.0" stroke-linecap="round" stroke-linejoin="round" />
<path d="M 118.5 141.0 L 118.5 141.0 L 118.5 141.0 L 118.5 140.5 L 118.5 140.5 L 118.5 142.0 L 119.5 145.5 L 120.5 148.5 L 121.0 150.5 L 121.0 150.5 " stroke="black" fill="none" stroke-width="6.0" stroke-linecap="round" stroke-linejoin="round" />
<path d="M 120.5 141.5 L 120.0 141.5 L 119.5 141.5 L 119.5 141.5 L 121.0 141.0 L 123.5 140.5 L 127.0 140.0 L 130.0 139.0 L 131.5 139.0 L 133.0 139.5 L 132.5 142.0 L 131.5 145.0 L 130.0 148.0 L 129.0 150.0 L 128.5 150.0 " stroke="black" fill="none" stroke-width="6.0" stroke-linecap="round" stroke-linejoin="round" />
<path d="M 124.0 150.5 L 123.5 151.0 L 123.0 151.5 L 123.5 151.5 L 125.5 151.0 L 128.0 150.0 L 129.0 149.5 " stroke="black" fill="none" stroke-width="6.0" stroke-linecap="round" stroke-linejoin="round" />
<path d="M 143.5 137.5 L 143.5 137.5 L 143.5 138.5 L 143.0 139.5 L 143.0 141.5 L 143.5 144.5 L 144.0 147.0 L 144.5 148.5 L 144.5 149.0 " stroke="black" fill="none" stroke-width="6.0" stroke-linecap="round" stroke-linejoin="round" />
<path d="M 143.0 139.0 L 142.5 139.0 L 142.5 139.0 L 143.0 139.0 L 145.0 138.0 L 148.0 137.5 L 150.0 137.0 L 152.0 136.5 L 153.5 136.5 L 154.5 136.5 L 155.5 137.0 L 155.5 138.5 L 156.0 140.5 L 156.0 143.5 L 155.0 146.0 L 153.5 147.5 " stroke="black" fill="none" stroke-width="6.0" stroke-linecap="round" stroke-linejoin="round" />
<path d="M 146.5 149.5 L 146.5 149.5 L 146.5 149.5 L 147.0 149.5 L 149.0 149.0 L 150.5 149.0 L 151.0 149.0 " stroke="black" fill="none" stroke-width="6.0" stroke-linecap="round" stroke-linejoin="round" />
<path d="M 131.0 157.0 L 131.5 157.0 L 132.5 157.0 L 132.5 157.0 L 132.5 157.0 L 132.5 157.0 L 131.5 157.5 L 129.5 160.5 L 126.5 164.0 L 123.0 168.0 L 121.0 170.5 L 120.5 171.0 L 121.5 169.5 L 122.5 168.5 " stroke="black" fill="none" stroke-width="6.0" stroke-linecap="round" stroke-linejoin="round" />
<path d="M 127.0 164.0 L 127.0 164.0 L 127.0 164.5 L 127.0 165.0 L 127.0 165.5 L 127.5 168.0 L 128.5 173.5 L 129.5 182.0 L 129.5 191.0 L 129.5 197.5 L 129.5 200.0 L 129.0 199.0 L 129.0 198.0 " stroke="black" fill="none" stroke-width="6.0" stroke-linecap="round" stroke-linejoin="round" />
<path d="M 143.0 157.0 L 142.5 157.5 L 142.0 157.5 L 142.0 158.0 L 142.0 159.0 L 143.0 161.0 L 144.0 163.0 L 145.0 164.0 L 145.0 164.5 " stroke="black" fill="none" stroke-width="6.0" stroke-linecap="round" stroke-linejoin="round" />
<path d="M 135.5 171.0 L 136.0 171.0 L 136.5 171.0 L 138.0 170.5 L 140.0 170.0 L 143.0 169.0 L 145.5 168.5 L 147.0 168.5 L 147.5 168.5 " stroke="black" fill="none" stroke-width="6.0" stroke-linecap="round" stroke-linejoin="round" />
<path d="M 140.5 179.5 L 140.5 180.0 L 140.0 181.0 L 140.0 181.0 L 141.0 181.0 L 143.5 181.0 L 145.5 180.0 L 147.5 179.5 L 148.5 179.5 " stroke="black" fill="none" stroke-width="6.0" stroke-linecap="round" stroke-linejoin="round" />
<path d="M 140.0 191.0 L 140.5 191.0 L 141.0 191.0 L 142.5 191.0 L 144.5 190.5 L 147.0 190.0 L 147.5 189.5 " stroke="black" fill="none" stroke-width="6.0" stroke-linecap="round" stroke-linejoin="round" />
<path d="M 145.0 171.0 L 144.5 171.5 L 144.0 172.0 L 143.5 173.5 L 144.5 177.5 L 145.5 184.0 L 146.0 191.0 L 146.0 195.5 L 146.0 196.5 " stroke="black" fill="none" stroke-width="6.0" stroke-linecap="round" stroke-linejoin="round" />
<path d="M 140.5 200.5 L 140.5 200.5 L 140.5 201.0 L 141.5 201.0 L 144.5 201.0 L 149.0 200.0 L 152.5 198.5 L 153.5 198.0 " stroke="black" fill="none" stroke-width="6.0" stroke-linecap="round" stroke-linejoin="round" />
<path d="M 166.5 126.0 L 166.5 126.0 L 166.0 125.5 L 165.5 125.5 L 165.5 126.5 L 166.0 132.0 L 166.5 143.5 L 167.0 154.5 L 167.0 159.5 L 167.0 158.0 " stroke="black" fill="none" stroke-width="6.0" stroke-linecap="round" stroke-linejoin="round" />
<path d="M 168.5 125.5 L 168.0 125.5 L 167.5 125.0 L 167.5 125.0 L 168.0 124.5 L 170.0 124.0 L 172.0 123.5 L 174.0 123.0 L 175.0 123.0 L 176.0 123.0 L 177.5 123.0 L 178.0 124.0 L 179.0 126.0 L 179.5 128.5 L 180.0 131.5 L 180.0 137.0 L 180.0 144.0 L 180.5 152.0 L 180.5 159.5 L 181.0 164.0 L 181.0 165.0 L 180.5 163.5 L 179.0 159.5 " stroke="black" fill="none" stroke-width="6.0" stroke-linecap="round" stroke-linejoin="round" />
<path d="M 170.5 140.0 L 170.0 140.5 L 169.5 141.0 L 169.0 141.0 L 170.0 141.0 L 172.5 140.5 L 175.0 139.5 L 177.0 139.0 L 177.5 138.5 " stroke="black" fill="none" stroke-width="6.0" stroke-linecap="round" stroke-linejoin="round" />
<path d="M 172.0 149.5 L 172.0 149.5 L 172.0 149.5 L 172.0 149.5 L 173.5 149.5 L 175.0 149.5 L 176.5 149.0 " stroke="black" fill="none" stroke-width="6.0" stroke-linecap="round" stroke-linejoin="round" />
<path d="M 166.5 165.0 L 166.5 165.0 L 166.5 164.5 L 166.5 164.0 L 169.5 164.0 L 173.5 163.5 L 176.0 163.0 " stroke="black" fill="none" stroke-width="6.0" stroke-linecap="round" stroke-linejoin="round" />
<path d="M 169.0 173.5 L 169.0 173.0 L 169.0 172.0 L 169.0 171.5 L 169.0 172.0 L 168.5 176.5 L 167.0 183.5 L 165.0 190.5 L 164.0 193.5 L 164.0 193.0 " stroke="black" fill="none" stroke-width="6.0" stroke-linecap="round" stroke-linejoin="round" />
<path d="M 176.5 172.0 L 176.5 172.0 L 177.0 172.0 L 177.0 172.0 L 177.5 172.0 L 177.5 174.5 L 177.5 179.5 L 177.5 187.0 L 178.5 193.5 L 181.5 196.5 L 186.5 196.5 L 191.0 194.0 L 194.5 190.5 L 195.0 187.0 L 195.0 184.5 L 194.0 183.0 L 193.0 183.0 L 192.0 183.0 L 191.5 183.0 " stroke="black" fill="none" stroke-width="6.0" stroke-linecap="round" stroke-linejoin="round" />
</svg>