<svg xmlns="http://www.w3.org/2000/svg" width="300" height="300" viewBox="0 0 300 300">
<path d="M 143.5 109.0 L 143.5 109.0 L 143.5 109.0 L 143.5 109.0 L 143.5 109.0 L 144.0 110.0 L 145.5 112.5 L 147.5 115.5 L 148.0 116.0 " stroke="black" fill="none" stroke-width="6.0" stroke-linecap="round" stroke-linejoin="round" />
<path d="M 126.0 127.0 L 126.0 127.0 L 126.0 127.0 L 125.5 127.0 L 125.5 128.5 L 124.0 133.5 L 121.5 139.5 L 120.5 142.5 L 120.5 143.0 " stroke="black" fill="none" stroke-width="6.0" stroke-linecap="round" stroke-linejoin="round" />
<path d="M 126.0 129.0 L 126.0 129.0 L 126.0 129.0 L 126.0 129.5 L 128.0 129.5 L 131.5 130.0 L 139.0 129.0 L 150.0 127.5 L 160.0 126.5 L 169.0 125.5 L 176.0 125.0 L 180.0 125.0 L 182.5 125.0 L 183.5 125.0 L 184.0 125.0 L 184.0 125.0 L 184.0 125.0 L 184.0 125.0 L 184.0 125.0 L 183.5 125.5 L 182.5 127.5 L 181.0 130.5 L 178.5 135.5 L 176.5 140.0 L 175.5 143.5 L 175.5 144.0 " stroke="black" fill="none" stroke-width="6.0" stroke-linecap="round" stroke-linejoin="round" />
<path d="M 137.5 141.5 L 137.5 141.5 L 137.5 141.5 L 137.0 141.5 L 137.0 141.5 L 139.5 141.5 L 144.5 141.5 L 152.0 141.0 L 159.5 139.5 L 164.0 138.5 L 165.5 138.5 L 165.5 139.0 L 164.5 140.0 " stroke="black" fill="none" stroke-width="6.0" stroke-linecap="round" stroke-linejoin="round" />
<path d="M 155.5 144.5 L 155.5 144.5 L 155.5 144.0 L 155.5 144.0 L 155.5 144.0 L 155.0 145.0 L 154.5 148.5 L 154.0 154.0 L 153.5 159.0 L 153.0 162.0 L 153.5 162.0 L 153.5 162.0 " stroke="black" fill="none" stroke-width="6.0" stroke-linecap="round" stroke-linejoin="round" />
<path d="M 135.0 150.5 L 135.0 150.5 L 135.5 150.5 L 135.5 150.5 L 135.5 150.0 L 135.5 152.0 L 133.5 158.5 L 130.0 166.5 L 127.0 172.5 L 125.5 174.5 L 125.0 174.5 " stroke="black" fill="none" stroke-width="6.0" stroke-linecap="round" stroke-linejoin="round" />
<path d="M 132.5 164.0 L 132.5 164.0 L 132.5 164.0 L 133.0 164.0 L 134.0 164.0 L 137.0 165.5 L 143.5 168.5 L 153.5 172.0 L 165.0 174.0 L 174.0 174.0 L 180.5 174.5 L 184.5 174.5 L 186.0 174.5 L 186.0 173.0 " stroke="black" fill="none" stroke-width="6.0" stroke-linecap="round" stroke-linejoin="round" />
<path d="M 157.0 154.5 L 157.0 155.5 L 156.5 156.0 L 156.5 156.0 L 157.5 156.0 L 161.5 156.0 L 167.0 155.0 L 172.5 154.5 L 173.5 154.5 " stroke="black" fill="none" stroke-width="6.0" stroke-linecap="round" stroke-linejoin="round" />
</svg>