<svg xmlns="http://www.w3.org/2000/svg" width="300" height="300" viewBox="0 0 300 300">
<path d="M 127.5 108.5 L 127.5 108.5 L 127.5 108.5 L 128.0 108.5 L 128.0 108.5 L 128.0 109.5 L 126.0 114.5 L 122.5 122.5 L 120.0 128.5 L 119.5 129.5 " stroke="black" fill="none" stroke-width="7.0" stroke-linecap="round" stroke-linejoin="round" />
<path d="M 127.0 118.0 L 126.5 118.0 L 125.5 118.5 L 125.5 118.5 L 128.0 118.5 L 132.0 117.5 L 135.5 116.5 L 139.0 114.5 L 142.0 112.5 L 143.5 111.5 L 144.0 110.5 " stroke="black" fill="none" stroke-width="7.0" stroke-linecap="round" stroke-linejoin="round" />
<path d="M 134.5 126.5 L 134.5 127.0 L 134.5 127.0 L 134.5 127.5 L 136.0 128.0 L 139.0 129.5 L 143.0 131.0 L 144.5 131.0 " stroke="black" fill="none" stroke-width="7.0" stroke-linecap="round" stroke-linejoin="round" />
<path d="M 166.0 108.5 L 165.0 108.5 L 164.5 108.5 L 164.0 108.5 L 163.5 110.0 L 162.0 115.0 L 159.5 122.5 L 158.0 128.0 L 157.0 130.0 " stroke="black" fill="none" stroke-width="7.0" stroke-linecap="round" stroke-linejoin="round" />
<path d="M 168.0 117.5 L 167.0 118.0 L 167.5 118.0 L 170.0 117.5 L 173.0 116.5 L 176.0 115.0 L 178.5 113.5 L 179.5 112.5 L 180.0 112.5 " stroke="black" fill="none" stroke-width="7.0" stroke-linecap="round" stroke-linejoin="round" />
<path d="M 170.5 125.5 L 170.0 125.5 L 169.0 126.0 L 169.0 126.5 L 171.5 128.0 L 174.5 130.0 L 177.0 131.5 " stroke="black" fill="none" stroke-width="7.0" stroke-linecap="round" stroke-linejoin="round" />
<path d="M 128.5 149.0 L 129.0 149.0 L 129.5 148.5 L 131.5 148.5 L 139.0 147.0 L 151.5 144.5 L 162.5 143.0 L 168.0 142.5 L 168.0 143.0 L 165.5 143.5 L 163.5 144.0 " stroke="black" fill="none" stroke-width="7.0" stroke-linecap="round" stroke-linejoin="round" />
<path d="M 127.5 162.5 L 127.0 162.5 L 126.5 163.0 L 126.5 163.0 L 126.5 163.5 L 128.5 164.0 L 135.0 164.0 L 146.0 164.0 L 160.0 163.5 L 171.0 162.5 L 176.0 161.0 L 176.0 161.0 " stroke="black" fill="none" stroke-width="7.0" stroke-linecap="round" stroke-linejoin="round" />
<path d="M 151.0 148.5 L 151.5 148.5 L 152.0 148.5 L 152.5 148.5 L 152.5 149.5 L 152.0 154.5 L 149.0 164.5 L 143.5 175.5 L 136.5 183.5 L 132.0 187.5 L 131.0 187.5 L 131.0 187.0 " stroke="black" fill="none" stroke-width="7.0" stroke-linecap="round" stroke-linejoin="round" />
<path d="M 156.5 174.5 L 156.5 174.5 L 157.5 175.0 L 159.0 176.0 L 162.5 178.5 L 167.5 182.5 L 171.5 185.5 L 173.5 187.0 " stroke="black" fill="none" stroke-width="7.0" stroke-linecap="round" stroke-linejoin="round" />
</svg>