<svg xmlns="http://www.w3.org/2000/svg" width="300" height="300" viewBox="0 0 300 300">
<path d="M 147.5 109.0 L 147.0 109.5 L 146.5 110.0 L 147.0 110.5 L 150.0 111.5 L 153.5 113.0 L 157.0 114.5 L 160.0 115.0 " stroke="black" fill="none" stroke-width="6.0" stroke-linecap="round" stroke-linejoin="round" />
<path d="M 176.5 104.0 L 177.5 104.0 L 178.0 104.0 L 178.0 104.0 L 178.0 104.0 L 178.0 105.0 L 176.5 107.0 L 175.5 110.0 L 174.0 112.0 " stroke="black" fill="none" stroke-width="6.0" stroke-linecap="round" stroke-linejoin="round" />
<path d="M 146.0 125.5 L 144.0 125.5 L 143.5 125.5 L 144.0 125.5 L 149.0 125.5 L 157.5 124.5 L 168.0 123.0 L 176.0 122.5 L 180.5 122.5 L 181.0 122.5 L 181.0 122.5 L 180.0 122.5 " stroke="black" fill="none" stroke-width="6.0" stroke-linecap="round" stroke-linejoin="round" />
<path d="M 159.5 126.5 L 159.5 126.5 L 160.5 126.5 L 161.0 126.0 L 161.5 126.0 L 161.5 126.0 L 161.5 126.5 L 160.0 128.5 L 158.0 131.5 L 154.0 136.5 L 148.5 142.5 L 144.0 147.0 L 142.5 148.0 L 142.5 147.5 L 144.0 145.5 " stroke="black" fill="none" stroke-width="6.0" stroke-linecap="round" stroke-linejoin="round" />
<path d="M 161.5 134.0 L 161.5 134.0 L 162.5 134.0 L 163.0 134.5 L 164.0 134.5 L 165.5 135.0 L 169.5 139.5 L 171.0 145.0 L 172.0 152.0 L 172.0 160.0 L 171.5 167.0 L 170.0 172.5 L 168.0 177.0 L 164.5 180.5 L 160.5 182.5 L 157.0 182.5 L 155.0 180.5 L 153.5 178.0 L 152.5 176.5 " stroke="black" fill="none" stroke-width="6.0" stroke-linecap="round" stroke-linejoin="round" />
<path d="M 164.5 141.5 L 164.5 141.0 L 165.0 140.5 L 166.0 140.0 L 166.0 139.5 L 166.5 139.5 L 166.5 140.0 L 166.0 142.0 L 163.0 146.0 L 157.5 152.0 L 152.0 157.0 L 149.5 159.0 L 149.5 158.5 " stroke="black" fill="none" stroke-width="6.0" stroke-linecap="round" stroke-linejoin="round" />
<path d="M 170.0 147.5 L 170.0 147.5 L 171.0 147.5 L 171.5 147.5 L 172.0 147.5 L 172.5 147.5 L 172.5 149.0 L 171.5 152.0 L 168.5 157.0 L 163.0 163.5 L 156.0 169.0 L 150.0 171.5 L 146.0 172.0 L 145.0 172.0 L 144.5 171.5 " stroke="black" fill="none" stroke-width="6.0" stroke-linecap="round" stroke-linejoin="round" />
<path d="M 185.5 136.0 L 186.0 136.0 L 186.5 135.5 L 187.0 135.5 L 187.0 135.5 L 187.0 136.0 L 185.0 138.5 L 182.0 141.5 L 179.0 144.5 L 177.0 146.0 " stroke="black" fill="none" stroke-width="6.0" stroke-linecap="round" stroke-linejoin="round" />
<path d="M 173.5 146.0 L 173.5 145.5 L 173.5 145.0 L 174.0 145.0 L 177.0 147.5 L 181.5 152.5 L 186.5 157.5 L 190.5 161.0 L 194.0 162.0 " stroke="black" fill="none" stroke-width="6.0" stroke-linecap="round" stroke-linejoin="round" />
<path d="M 121.5 119.5 L 121.5 119.5 L 121.0 119.5 L 121.0 119.5 L 121.0 119.5 L 122.5 120.5 L 125.0 122.5 L 127.5 125.0 L 128.5 126.0 " stroke="black" fill="none" stroke-width="6.0" stroke-linecap="round" stroke-linejoin="round" />
<path d="M 125.0 131.5 L 124.5 132.0 L 123.5 133.0 L 123.5 133.0 L 125.0 134.0 L 127.0 136.0 L 128.0 138.5 L 128.5 141.5 L 126.5 144.5 L 124.5 146.0 L 123.0 147.0 L 124.0 148.5 L 127.5 150.5 L 132.0 154.0 L 135.5 159.5 L 135.5 166.0 L 131.5 172.5 L 126.5 177.5 L 122.5 179.5 L 120.5 180.5 L 119.5 182.0 L 117.5 183.5 L 116.0 184.5 L 115.5 185.0 L 115.5 185.0 L 115.5 185.0 L 115.5 185.0 L 116.0 184.5 L 116.0 184.5 L 116.5 184.0 L 117.0 183.5 L 118.5 183.5 L 120.5 183.0 L 124.0 183.0 L 129.5 183.0 L 138.0 184.0 L 148.5 184.5 L 159.5 185.0 L 170.5 186.5 L 179.5 187.5 L 187.0 187.5 L 190.5 187.0 " stroke="black" fill="none" stroke-width="6.0" stroke-linecap="round" stroke-linejoin="round" />
</svg>