<svg xmlns="http://www.w3.org/2000/svg" width="300" height="300" viewBox="0 0 300 300">
<path d="M 136.0 120.5 L 135.0 121.0 L 133.5 121.0 L 132.5 121.5 L 132.0 121.5 L 134.5 121.5 L 141.0 120.0 L 149.0 118.5 L 158.5 117.5 L 166.0 117.0 L 169.0 118.0 L 169.5 119.0 L 169.0 119.0 L 169.0 119.0 L 169.0 119.0 " stroke="black" fill="none" stroke-width="6.0" stroke-linecap="round" stroke-linejoin="round" />
<path d="M 144.5 143.0 L 143.0 143.5 L 142.0 144.0 L 142.0 144.0 L 144.0 144.0 L 148.0 143.5 L 153.0 142.0 L 158.5 141.0 L 163.5 140.0 L 166.5 139.5 L 166.5 139.5 " stroke="black" fill="none" stroke-width="6.0" stroke-linecap="round" stroke-linejoin="round" />
<path d="M 153.0 120.5 L 153.0 121.0 L 153.0 121.5 L 152.5 123.0 L 152.5 128.0 L 153.0 139.5 L 154.0 151.0 L 154.0 159.0 L 154.5 162.5 L 155.0 162.5 L 155.0 162.5 " stroke="black" fill="none" stroke-width="6.0" stroke-linecap="round" stroke-linejoin="round" />
<path d="M 131.0 167.5 L 131.0 167.5 L 131.5 167.5 L 131.5 167.5 L 132.5 167.0 L 136.0 166.5 L 143.0 165.5 L 153.0 165.5 L 164.5 165.0 L 174.0 164.0 L 179.0 164.0 L 179.5 164.0 " stroke="black" fill="none" stroke-width="6.0" stroke-linecap="round" stroke-linejoin="round" />
<path d="M 168.5 149.0 L 167.5 149.0 L 166.5 148.5 L 166.5 148.5 L 167.5 149.0 L 169.5 151.0 L 171.5 153.5 L 173.5 156.0 L 174.0 156.5 " stroke="black" fill="none" stroke-width="6.0" stroke-linecap="round" stroke-linejoin="round" />
</svg>