<svg xmlns="http://www.w3.org/2000/svg" width="300" height="300" viewBox="0 0 300 300">
<path d="M 128.0 119.5 L 128.0 119.5 L 127.5 119.5 L 127.5 119.5 L 127.5 119.5 L 127.5 119.5 L 130.0 119.5 L 138.0 118.5 L 149.5 117.0 L 158.5 116.5 L 163.5 116.5 L 165.0 116.5 L 165.5 116.5 L 165.0 116.5 L 164.5 116.0 L 164.5 116.0 " stroke="black" fill="none" stroke-width="6.0" stroke-linecap="round" stroke-linejoin="round" />
<path d="M 130.5 145.5 L 130.5 145.5 L 130.5 146.0 L 131.0 146.5 L 132.5 146.5 L 135.5 146.5 L 142.0 146.0 L 150.0 146.0 L 157.0 144.5 L 163.0 142.5 L 166.0 141.0 " stroke="black" fill="none" stroke-width="6.0" stroke-linecap="round" stroke-linejoin="round" />
<path d="M 147.5 122.5 L 147.5 122.5 L 147.0 122.5 L 147.0 122.5 L 147.0 123.5 L 147.5 128.0 L 148.5 139.0 L 148.5 153.5 L 148.5 164.0 L 147.5 171.0 L 147.0 173.5 L 147.0 173.0 L 147.0 172.5 " stroke="black" fill="none" stroke-width="6.0" stroke-linecap="round" stroke-linejoin="round" />
<path d="M 161.5 160.5 L 160.5 160.5 L 160.5 160.5 L 160.5 161.0 L 162.0 162.5 L 164.5 164.5 L 166.5 167.5 " stroke="black" fill="none" stroke-width="6.0" stroke-linecap="round" stroke-linejoin="round" />
<path d="M 125.0 179.5 L 125.0 179.5 L 125.0 179.5 L 125.0 179.0 L 127.0 179.0 L 136.5 178.0 L 153.0 177.0 L 167.5 175.5 L 176.5 175.5 L 180.0 176.5 L 180.0 176.5 " stroke="black" fill="none" stroke-width="6.0" stroke-linecap="round" stroke-linejoin="round" />
</svg>