<svg xmlns="http://www.w3.org/2000/svg" width="300" height="300" viewBox="0 0 300 300">
<path d="M 129.5 119.5 L 129.5 119.5 L 129.5 119.0 L 129.5 119.0 L 131.0 118.5 L 138.0 118.5 L 147.5 119.0 L 157.5 118.5 L 164.0 117.0 L 166.0 116.0 L 165.5 116.0 L 164.5 116.0 L 164.0 116.0 " stroke="black" fill="none" stroke-width="6.0" stroke-linecap="round" stroke-linejoin="round" />
<path d="M 133.5 146.5 L 133.0 146.5 L 132.5 146.5 L 131.5 146.5 L 131.5 146.5 L 132.0 146.0 L 136.5 145.5 L 143.5 145.5 L 152.5 145.0 L 160.0 145.0 L 163.5 144.5 L 164.0 144.5 " stroke="black" fill="none" stroke-width="6.0" stroke-linecap="round" stroke-linejoin="round" />
<path d="M 148.5 124.0 L 148.5 124.0 L 148.5 123.5 L 148.5 123.5 L 148.5 126.0 L 148.5 134.5 L 148.5 149.5 L 148.0 163.0 L 148.0 169.5 L 148.0 171.5 L 147.5 171.5 L 147.0 170.5 " stroke="black" fill="none" stroke-width="6.0" stroke-linecap="round" stroke-linejoin="round" />
<path d="M 124.5 177.5 L 124.5 177.5 L 123.0 178.0 L 123.0 178.0 L 123.0 178.0 L 125.5 177.5 L 130.0 177.0 L 137.0 177.0 L 147.0 176.5 L 158.0 176.5 L 165.0 176.5 L 168.5 176.5 L 169.5 176.5 L 169.5 176.0 L 169.0 175.5 " stroke="black" fill="none" stroke-width="6.0" stroke-linecap="round" stroke-linejoin="round" />
<path d="M 160.5 157.0 L 159.5 157.0 L 158.5 157.0 L 158.5 158.0 L 160.0 160.5 L 163.0 164.0 L 166.0 166.0 L 168.5 168.0 " stroke="black" fill="none" stroke-width="6.0" stroke-linecap="round" stroke-linejoin="round" />
</svg>