<svg xmlns="http://www.w3.org/2000/svg" width="300" height="300" viewBox="0 0 300 300">
<path d="M 138.33333333333334 73.33333333333333 L 137.7777777777778 73.33333333333333 L 137.22222222222223 73.33333333333333 L 137.7777777777778 73.88888888888889 L 140.55555555555557 77.77777777777777 L 145.00000000000003 85.0 L 150.00000000000003 93.33333333333333 L 154.44444444444446 98.88888888888889 L 157.22222222222223 101.11111111111111 L 158.33333333333334 101.66666666666667 " stroke="black" fill="none" stroke-width="12.0" stroke-linecap="round" stroke-linejoin="round" />
<path d="M 78.88888888888889 118.33333333333333 L 78.88888888888889 118.33333333333333 L 78.88888888888889 118.33333333333333 L 78.88888888888889 118.33333333333333 L 80.0 118.33333333333333 L 87.22222222222223 118.33333333333333 L 100.55555555555556 117.77777777777779 L 116.66666666666667 117.22222222222221 L 132.22222222222223 116.1111111111111 L 149.44444444444446 114.44444444444444 L 166.11111111111114 113.8888888888889 L 181.66666666666669 113.33333333333333 L 196.11111111111114 112.77777777777779 L 207.22222222222223 112.77777777777779 L 216.11111111111114 113.33333333333333 L 220.00000000000003 113.8888888888889 L 220.00000000000003 114.44444444444444 " stroke="black" fill="none" stroke-width="12.0" stroke-linecap="round" stroke-linejoin="round" />
<path d="M 111.66666666666667 136.66666666666669 L 111.66666666666667 136.66666666666669 L 111.66666666666667 136.66666666666669 L 111.11111111111111 136.66666666666669 L 111.11111111111111 137.22222222222223 L 112.77777777777779 138.8888888888889 L 116.1111111111111 143.33333333333334 L 121.1111111111111 151.66666666666669 L 128.33333333333334 162.7777777777778 L 138.33333333333334 173.8888888888889 L 149.44444444444446 185.55555555555557 L 162.22222222222223 196.66666666666669 L 175.55555555555557 206.11111111111114 L 188.8888888888889 215.55555555555557 L 202.22222222222223 222.7777777777778 L 216.11111111111114 228.8888888888889 L 227.7777777777778 233.33333333333334 L 236.66666666666669 235.00000000000003 L 239.44444444444449 233.8888888888889 " stroke="black" fill="none" stroke-width="12.0" stroke-linecap="round" stroke-linejoin="round" />
<path d="M 201.11111111111114 124.44444444444444 L 201.11111111111114 124.44444444444444 L 200.55555555555557 124.44444444444444 L 200.00000000000003 125.00000000000001 L 199.44444444444446 127.22222222222221 L 197.7777777777778 132.22222222222223 L 194.44444444444446 140.55555555555557 L 190.00000000000003 150.55555555555557 L 183.8888888888889 160.00000000000003 L 177.22222222222223 170.00000000000003 L 170.00000000000003 179.44444444444446 L 161.66666666666669 188.8888888888889 L 151.66666666666669 197.22222222222223 L 140.55555555555557 205.00000000000003 L 127.22222222222221 213.33333333333334 L 113.8888888888889 221.11111111111114 L 100.55555555555556 227.7777777777778 L 91.66666666666667 233.33333333333334 L 85.0 237.22222222222226 L 84.44444444444444 238.33333333333334 " stroke="black" fill="none" stroke-width="12.0" stroke-linecap="round" stroke-linejoin="round" />
</svg>