<svg xmlns="http://www.w3.org/2000/svg" width="300" height="300" viewBox="0 0 300 300">
<path d="M 135.0 118.0 L 136.0 118.0 L 137.0 118.0 L 137.0 117.5 L 137.0 117.0 L 137.0 117.5 L 135.0 121.5 L 131.0 129.5 L 127.5 137.5 L 125.5 142.0 L 125.5 142.5 L 125.5 142.0 " stroke="black" fill="none" stroke-width="6.0" stroke-linecap="round" stroke-linejoin="round" />
<path d="M 135.0 131.0 L 135.0 131.0 L 135.0 131.5 L 135.0 132.0 L 136.5 132.0 L 140.0 132.0 L 146.5 132.0 L 153.0 131.5 L 158.5 131.0 L 163.0 131.0 L 166.0 130.0 L 167.5 129.5 L 168.0 130.0 L 168.0 131.5 L 168.0 132.0 " stroke="black" fill="none" stroke-width="6.0" stroke-linecap="round" stroke-linejoin="round" />
<path d="M 141.0 154.0 L 140.5 154.5 L 139.5 154.5 L 140.0 155.0 L 144.5 154.5 L 151.0 153.5 L 157.5 152.5 L 162.0 152.0 L 163.0 151.5 " stroke="black" fill="none" stroke-width="6.0" stroke-linecap="round" stroke-linejoin="round" />
<path d="M 152.5 116.5 L 152.5 116.5 L 152.0 116.5 L 151.5 117.0 L 151.5 119.0 L 151.0 127.5 L 150.0 143.0 L 149.0 157.0 L 149.0 165.0 L 149.5 168.0 " stroke="black" fill="none" stroke-width="6.0" stroke-linecap="round" stroke-linejoin="round" />
<path d="M 127.5 174.0 L 127.5 174.0 L 127.5 174.0 L 126.5 174.0 L 126.5 174.5 L 128.0 174.5 L 136.5 175.0 L 150.0 174.0 L 163.0 171.0 L 171.5 170.0 L 173.0 170.0 " stroke="black" fill="none" stroke-width="6.0" stroke-linecap="round" stroke-linejoin="round" />
</svg>