<svg xmlns="http://www.w3.org/2000/svg" width="300" height="300" viewBox="0 0 300 300">
<path d="M 125.5 113.0 L 125.5 113.0 L 125.0 113.5 L 124.5 114.0 L 124.5 115.0 L 124.5 117.5 L 125.0 125.5 L 125.0 140.0 L 123.5 158.0 L 122.0 172.0 L 122.0 179.5 L 122.0 179.5 L 122.0 177.0 " stroke="black" fill="none" stroke-width="6.0" stroke-linecap="round" stroke-linejoin="round" />
<path d="M 127.5 116.5 L 127.5 116.5 L 126.5 116.5 L 126.5 116.0 L 127.0 115.5 L 128.5 114.5 L 130.5 114.0 L 132.0 113.5 L 133.5 114.0 L 134.5 115.0 L 136.0 116.5 L 137.5 119.0 L 138.5 121.5 L 139.0 125.0 L 140.0 130.5 L 140.5 138.5 L 141.5 148.5 L 142.5 158.5 L 143.0 167.0 L 143.0 174.0 L 142.5 179.0 L 141.5 182.0 L 140.5 182.0 L 139.0 180.0 L 136.5 175.5 " stroke="black" fill="none" stroke-width="6.0" stroke-linecap="round" stroke-linejoin="round" />
<path d="M 132.0 132.0 L 132.0 132.0 L 132.0 133.0 L 132.0 134.0 L 132.5 134.5 L 133.0 135.5 L 134.0 136.0 L 135.0 137.0 " stroke="black" fill="none" stroke-width="6.0" stroke-linecap="round" stroke-linejoin="round" />
<path d="M 130.0 154.5 L 130.0 155.5 L 130.0 157.0 L 130.5 157.0 L 132.5 154.5 L 135.0 151.0 L 136.5 147.5 " stroke="black" fill="none" stroke-width="6.0" stroke-linecap="round" stroke-linejoin="round" />
<path d="M 152.5 108.5 L 153.0 108.5 L 153.5 108.5 L 153.5 108.5 L 153.5 109.0 L 153.5 113.5 L 153.5 121.0 L 153.5 128.5 L 153.5 132.0 L 153.0 132.0 " stroke="black" fill="none" stroke-width="6.0" stroke-linecap="round" stroke-linejoin="round" />
<path d="M 150.5 111.5 L 150.0 112.0 L 150.0 112.0 L 150.5 112.0 L 153.5 110.5 L 158.0 108.5 L 163.5 107.0 L 168.5 106.5 L 172.5 106.5 L 175.0 107.0 L 175.5 108.0 L 175.5 110.0 L 175.5 113.0 L 175.0 118.0 L 174.5 122.5 L 174.5 126.0 L 174.0 127.5 L 173.5 128.0 L 173.5 128.0 " stroke="black" fill="none" stroke-width="6.0" stroke-linecap="round" stroke-linejoin="round" />
<path d="M 158.0 121.5 L 158.0 121.5 L 157.5 121.0 L 157.5 120.5 L 159.0 120.5 L 163.0 119.5 L 167.0 119.0 L 170.0 119.0 L 170.5 119.0 " stroke="black" fill="none" stroke-width="6.0" stroke-linecap="round" stroke-linejoin="round" />
<path d="M 156.0 130.0 L 156.0 130.5 L 155.5 132.0 L 155.0 132.5 L 157.0 132.5 L 162.0 131.0 L 167.0 129.5 L 171.0 128.5 L 173.5 128.0 " stroke="black" fill="none" stroke-width="6.0" stroke-linecap="round" stroke-linejoin="round" />
<path d="M 152.5 141.0 L 152.5 141.0 L 153.0 140.0 L 153.5 140.0 L 156.5 139.5 L 164.5 138.5 L 173.0 137.5 L 176.5 137.0 L 177.5 136.5 " stroke="black" fill="none" stroke-width="6.0" stroke-linecap="round" stroke-linejoin="round" />
<path d="M 156.5 148.0 L 157.0 148.0 L 157.5 147.5 L 157.5 148.0 L 156.5 150.5 L 154.0 155.0 L 152.0 159.0 " stroke="black" fill="none" stroke-width="6.0" stroke-linecap="round" stroke-linejoin="round" />
<path d="M 156.5 153.0 L 158.0 153.0 L 159.5 152.5 L 163.0 151.5 L 168.5 149.5 L 175.0 148.5 L 181.0 148.5 L 186.0 150.0 L 188.5 151.5 L 189.0 153.0 L 189.0 155.0 L 189.0 158.0 L 189.0 162.0 L 188.5 167.5 L 187.0 173.5 L 185.0 178.5 L 182.5 182.0 L 179.0 184.5 L 176.0 186.0 L 173.5 186.0 L 171.5 184.5 L 171.0 182.5 " stroke="black" fill="none" stroke-width="6.0" stroke-linecap="round" stroke-linejoin="round" />
<path d="M 167.5 153.5 L 167.5 153.5 L 167.0 155.0 L 166.5 157.0 L 165.0 160.0 L 162.0 164.5 L 158.5 169.0 L 156.0 171.0 " stroke="black" fill="none" stroke-width="6.0" stroke-linecap="round" stroke-linejoin="round" />
<path d="M 175.0 155.5 L 176.5 156.0 L 178.0 156.5 L 178.5 157.5 L 178.5 160.0 L 176.0 166.0 L 171.0 174.5 L 166.0 181.0 L 162.5 183.0 " stroke="black" fill="none" stroke-width="6.0" stroke-linecap="round" stroke-linejoin="round" />
</svg>