<svg xmlns="http://www.w3.org/2000/svg" width="300" height="300" viewBox="0 0 300 300">
<path d="M 127.0 117.5 L 124.5 117.5 L 122.5 117.5 L 122.0 117.5 L 122.0 117.5 L 123.0 117.5 L 126.0 117.0 L 129.5 117.0 L 133.5 117.0 L 137.0 117.0 L 138.5 118.0 L 139.0 119.5 L 137.0 123.0 L 133.5 126.0 L 131.0 128.5 L 129.0 130.0 L 129.0 131.0 L 130.0 132.0 L 132.5 133.0 L 135.5 134.5 L 138.0 137.0 L 139.0 140.0 L 139.0 143.0 L 138.5 147.0 L 136.5 150.0 L 134.5 151.5 L 133.0 152.5 L 131.5 152.5 L 130.0 151.5 L 129.0 150.0 " stroke="black" fill="none" stroke-width="6.0" stroke-linecap="round" stroke-linejoin="round" />
<path d="M 122.0 123.0 L 122.0 122.5 L 121.0 122.0 L 121.0 121.5 L 121.0 122.5 L 122.5 127.0 L 123.5 137.5 L 124.5 154.0 L 125.0 169.5 L 125.0 179.0 L 125.5 183.5 L 126.0 184.0 L 126.5 183.0 " stroke="black" fill="none" stroke-width="6.0" stroke-linecap="round" stroke-linejoin="round" />
<path d="M 153.0 117.5 L 152.0 117.5 L 150.5 117.5 L 150.0 117.5 L 150.0 118.0 L 152.0 119.0 L 156.5 119.5 L 162.5 119.5 L 168.5 118.5 L 172.0 118.0 L 174.0 118.0 L 174.0 118.0 " stroke="black" fill="none" stroke-width="6.0" stroke-linecap="round" stroke-linejoin="round" />
<path d="M 150.0 139.5 L 149.5 139.0 L 149.5 137.5 L 149.5 137.5 L 149.5 137.5 L 150.0 140.0 L 150.5 144.0 L 151.0 147.5 L 151.5 150.5 L 151.5 151.0 " stroke="black" fill="none" stroke-width="6.0" stroke-linecap="round" stroke-linejoin="round" />
<path d="M 150.5 140.0 L 150.5 139.0 L 150.5 138.0 L 150.5 137.0 L 151.5 136.0 L 154.0 135.0 L 157.0 134.5 L 159.5 134.5 L 161.5 136.0 L 162.0 138.5 L 161.5 142.5 L 160.0 146.5 L 158.0 149.5 L 156.5 151.0 " stroke="black" fill="none" stroke-width="6.0" stroke-linecap="round" stroke-linejoin="round" />
<path d="M 151.0 153.0 L 150.5 153.0 L 150.0 153.5 L 150.5 153.5 L 152.5 153.0 L 155.0 151.5 L 157.5 150.0 " stroke="black" fill="none" stroke-width="6.0" stroke-linecap="round" stroke-linejoin="round" />
<path d="M 168.5 124.0 L 168.0 123.5 L 167.5 123.0 L 167.5 123.0 L 167.5 123.0 L 167.5 125.5 L 168.5 130.5 L 168.5 137.5 L 169.0 145.5 L 169.0 153.0 L 169.0 159.5 L 168.5 164.5 L 168.5 168.0 L 168.0 170.5 L 167.0 172.0 L 166.5 172.5 L 165.0 172.5 L 163.5 171.5 L 161.5 169.5 " stroke="black" fill="none" stroke-width="6.0" stroke-linecap="round" stroke-linejoin="round" />
</svg>