<svg xmlns="http://www.w3.org/2000/svg" width="300" height="300" viewBox="0 0 300 300">
<path d="M 127.0 118.5 L 127.0 118.5 L 126.5 118.5 L 126.5 118.5 L 126.5 118.5 L 126.5 118.5 L 128.5 118.5 L 132.5 117.5 L 139.5 116.0 L 150.5 112.5 L 161.0 108.0 L 167.5 106.0 L 170.5 105.0 L 170.5 105.0 L 170.5 105.0 L 170.0 105.5 L 170.0 105.5 " stroke="black" fill="none" stroke-width="6.0" stroke-linecap="round" stroke-linejoin="round" />
<path d="M 127.5 129.5 L 127.5 130.0 L 127.0 130.5 L 127.0 130.5 L 127.0 130.5 L 129.0 130.5 L 132.5 130.0 L 139.0 129.5 L 148.5 128.5 L 159.0 127.0 L 168.0 126.0 L 173.0 126.0 L 174.5 126.5 L 174.5 127.5 L 174.0 127.5 " stroke="black" fill="none" stroke-width="6.0" stroke-linecap="round" stroke-linejoin="round" />
<path d="M 135.0 139.5 L 135.5 139.5 L 135.5 139.5 L 136.0 139.0 L 136.5 140.0 L 136.5 142.5 L 137.0 146.0 L 137.0 150.5 L 137.0 153.5 L 137.0 154.0 " stroke="black" fill="none" stroke-width="6.0" stroke-linecap="round" stroke-linejoin="round" />
<path d="M 130.0 147.5 L 128.5 147.5 L 128.0 147.5 L 127.5 147.5 L 128.0 147.5 L 130.5 147.5 L 133.5 147.5 L 137.5 147.5 L 138.5 147.5 " stroke="black" fill="none" stroke-width="6.0" stroke-linecap="round" stroke-linejoin="round" />
<path d="M 168.0 138.0 L 167.5 137.5 L 167.5 137.0 L 167.0 137.0 L 167.0 137.5 L 168.0 140.5 L 168.5 144.0 L 168.5 148.0 L 168.5 151.5 L 169.0 154.0 " stroke="black" fill="none" stroke-width="6.0" stroke-linecap="round" stroke-linejoin="round" />
<path d="M 164.0 146.0 L 163.5 146.0 L 163.0 146.0 L 162.5 146.0 L 163.0 146.0 L 165.5 145.5 L 168.5 145.5 L 171.5 145.5 L 174.0 145.5 L 174.5 145.5 " stroke="black" fill="none" stroke-width="6.0" stroke-linecap="round" stroke-linejoin="round" />
<path d="M 138.0 162.5 L 138.0 162.5 L 137.5 162.5 L 138.0 163.0 L 141.0 163.0 L 146.5 163.5 L 153.0 163.5 L 159.0 163.0 L 164.0 162.5 L 165.5 162.5 " stroke="black" fill="none" stroke-width="6.0" stroke-linecap="round" stroke-linejoin="round" />
<path d="M 153.0 115.0 L 153.0 115.0 L 153.0 115.0 L 153.0 115.0 L 153.0 115.0 L 153.0 115.0 L 153.5 115.5 L 153.5 118.0 L 153.5 123.0 L 153.5 128.5 L 153.5 134.5 L 153.5 141.0 L 153.5 146.5 L 153.0 151.0 L 153.0 155.0 L 152.5 159.0 L 152.5 163.0 L 152.5 166.5 L 152.5 169.0 L 152.5 171.0 L 152.5 172.5 L 152.5 173.0 L 152.5 174.5 L 152.5 175.5 L 152.5 176.5 L 152.5 177.5 L 152.5 178.0 L 152.5 178.0 L 152.5 178.0 L 152.5 178.0 L 152.5 178.0 L 152.5 178.0 L 152.5 178.0 L 152.5 178.0 L 152.5 178.0 L 152.5 177.5 L 152.5 177.0 " stroke="black" fill="none" stroke-width="6.0" stroke-linecap="round" stroke-linejoin="round" />
<path d="M 130.0 180.5 L 130.0 180.5 L 130.0 180.5 L 129.5 180.5 L 129.5 180.5 L 129.5 180.5 L 129.5 180.5 L 131.5 180.5 L 134.5 180.5 L 141.5 179.5 L 151.5 178.0 L 162.5 176.5 L 172.0 175.5 L 178.5 175.5 L 181.5 176.0 L 182.0 176.5 L 182.0 176.5 L 181.5 176.5 L 181.5 176.5 L 181.5 176.5 " stroke="black" fill="none" stroke-width="6.0" stroke-linecap="round" stroke-linejoin="round" />
</svg>