<svg xmlns="http://www.w3.org/2000/svg" width="300" height="300" viewBox="0 0 300 300">
<path d="M 129.5 111.0 L 129.5 111.0 L 130.0 111.0 L 130.5 111.0 L 130.5 111.5 L 131.0 112.0 L 131.0 114.0 L 131.5 119.0 L 132.0 126.5 L 132.0 136.0 L 132.5 146.0 L 132.5 153.5 L 132.5 160.5 L 132.5 167.0 L 132.5 173.0 L 133.0 178.0 L 133.5 181.0 L 133.5 182.0 L 133.5 182.0 L 133.5 180.0 L 132.0 175.0 " stroke="black" fill="none" stroke-width="6.0" stroke-linecap="round" stroke-linejoin="round" />
<path d="M 123.5 126.0 L 123.5 126.0 L 124.0 125.5 L 124.0 125.0 L 124.0 125.0 L 124.0 125.5 L 124.0 128.0 L 121.5 141.0 L 121.0 147.0 L 120.5 148.5 L 120.5 148.0 " stroke="black" fill="none" stroke-width="6.0" stroke-linecap="round" stroke-linejoin="round" />
<path d="M 142.0 119.0 L 142.0 119.0 L 141.0 118.5 L 141.0 118.5 L 141.0 118.5 L 141.5 120.5 L 143.0 124.0 L 144.0 127.5 L 144.5 129.5 " stroke="black" fill="none" stroke-width="6.0" stroke-linecap="round" stroke-linejoin="round" />
<path d="M 158.0 108.5 L 158.0 109.0 L 157.5 109.5 L 157.5 109.5 L 157.5 109.5 L 158.5 110.5 L 159.5 111.5 L 161.0 113.0 L 162.0 114.5 L 163.0 115.0 " stroke="black" fill="none" stroke-width="6.0" stroke-linecap="round" stroke-linejoin="round" />
<path d="M 151.0 120.0 L 151.0 120.0 L 151.0 120.5 L 151.0 120.5 L 151.0 120.5 L 151.5 121.0 L 152.0 121.0 L 154.0 121.0 L 158.5 120.5 L 165.5 119.5 L 173.5 118.5 L 179.5 118.0 L 182.5 118.0 L 183.0 118.0 L 182.5 118.5 L 182.5 119.0 L 182.0 119.5 L 181.5 119.5 L 181.0 119.5 " stroke="black" fill="none" stroke-width="6.0" stroke-linecap="round" stroke-linejoin="round" />
<path d="M 151.0 131.5 L 151.5 131.5 L 152.0 131.0 L 152.5 131.0 L 152.5 131.0 L 153.0 132.5 L 153.5 135.5 L 154.0 139.0 L 154.5 141.5 L 154.5 142.0 L 154.5 141.5 " stroke="black" fill="none" stroke-width="6.0" stroke-linecap="round" stroke-linejoin="round" />
<path d="M 153.0 128.5 L 153.0 128.5 L 153.0 128.0 L 153.0 128.0 L 153.5 128.0 L 154.0 128.0 L 155.5 128.5 L 157.5 129.0 L 160.0 129.5 L 164.5 130.0 L 170.5 130.5 L 177.0 131.0 L 182.0 131.0 L 186.0 131.0 L 187.5 131.0 L 188.5 131.0 L 188.5 131.0 L 188.5 131.5 L 188.0 131.5 L 188.0 131.5 L 188.0 131.5 L 188.0 131.5 L 187.5 132.0 L 187.0 132.5 L 186.5 133.0 L 185.5 134.5 L 184.5 137.0 L 184.0 139.5 L 183.5 142.0 L 183.5 143.5 L 183.5 144.0 L 183.5 143.5 " stroke="black" fill="none" stroke-width="6.0" stroke-linecap="round" stroke-linejoin="round" />
<path d="M 165.5 132.0 L 165.5 132.0 L 165.5 132.0 L 166.0 132.0 L 166.0 132.5 L 166.0 134.0 L 166.0 137.5 L 166.0 140.5 L 166.0 142.0 L 166.0 142.0 " stroke="black" fill="none" stroke-width="6.0" stroke-linecap="round" stroke-linejoin="round" />
<path d="M 173.5 130.0 L 174.0 131.0 L 174.5 131.5 L 175.0 132.5 L 175.0 134.5 L 175.0 137.5 L 175.0 141.0 L 174.5 144.0 L 174.0 145.0 " stroke="black" fill="none" stroke-width="6.0" stroke-linecap="round" stroke-linejoin="round" />
<path d="M 155.0 146.5 L 154.5 146.5 L 154.0 146.5 L 153.5 146.0 L 153.0 146.0 L 154.0 146.0 L 157.5 146.0 L 163.5 145.5 L 170.5 145.5 L 177.0 145.5 L 180.5 145.5 L 181.0 146.0 L 181.0 146.0 " stroke="black" fill="none" stroke-width="6.0" stroke-linecap="round" stroke-linejoin="round" />
<path d="M 166.5 153.0 L 166.5 153.0 L 166.5 153.0 L 167.0 153.5 L 167.0 153.5 L 167.0 154.0 L 167.0 155.5 L 167.0 158.0 L 167.0 159.5 L 167.0 160.5 " stroke="black" fill="none" stroke-width="6.0" stroke-linecap="round" stroke-linejoin="round" />
<path d="M 155.5 154.0 L 155.5 154.0 L 155.0 154.0 L 154.5 154.5 L 154.5 154.5 L 154.5 155.0 L 155.0 155.5 L 156.0 156.5 L 157.0 157.0 L 158.0 157.5 " stroke="black" fill="none" stroke-width="6.0" stroke-linecap="round" stroke-linejoin="round" />
<path d="M 151.0 165.5 L 151.0 165.5 L 151.5 165.5 L 151.5 165.5 L 152.0 165.5 L 152.5 165.5 L 153.5 165.5 L 154.5 165.0 L 157.0 164.5 L 158.0 163.5 " stroke="black" fill="none" stroke-width="6.0" stroke-linecap="round" stroke-linejoin="round" />
<path d="M 185.0 152.0 L 184.5 152.5 L 184.5 153.0 L 184.5 153.0 L 184.0 153.5 L 182.5 154.5 L 181.0 156.0 L 179.5 157.5 L 179.0 157.5 " stroke="black" fill="none" stroke-width="6.0" stroke-linecap="round" stroke-linejoin="round" />
<path d="M 176.0 158.5 L 174.5 159.5 L 174.0 160.0 L 174.0 160.0 L 174.5 160.5 L 176.5 161.5 L 179.5 162.5 L 182.5 163.5 L 184.5 164.0 L 186.0 164.0 " stroke="black" fill="none" stroke-width="6.0" stroke-linecap="round" stroke-linejoin="round" />
<path d="M 162.0 171.0 L 162.0 171.0 L 162.0 171.0 L 161.5 171.0 L 161.0 171.0 L 160.0 171.5 L 157.5 173.5 L 154.0 176.0 L 150.5 178.0 L 148.0 178.5 L 147.5 178.5 " stroke="black" fill="none" stroke-width="6.0" stroke-linecap="round" stroke-linejoin="round" />
<path d="M 163.0 169.5 L 163.0 169.5 L 163.0 169.5 L 162.5 169.5 L 162.5 169.5 L 164.0 170.5 L 166.5 172.0 L 171.0 174.0 L 177.0 176.5 L 182.5 178.0 L 186.5 179.0 L 188.5 179.0 L 188.5 179.0 L 188.5 178.5 " stroke="black" fill="none" stroke-width="6.0" stroke-linecap="round" stroke-linejoin="round" />
<path d="M 179.0 170.0 L 179.0 170.0 L 179.5 170.0 L 179.5 170.5 L 180.0 170.5 L 180.0 170.5 L 180.5 170.5 L 180.5 170.5 L 180.0 171.0 L 179.0 172.0 L 177.5 173.0 L 176.0 174.0 L 175.5 174.5 " stroke="black" fill="none" stroke-width="6.0" stroke-linecap="round" stroke-linejoin="round" />
<path d="M 157.0 175.5 L 157.0 175.5 L 157.5 175.5 L 158.0 175.5 L 158.5 175.5 L 159.0 175.5 L 159.5 176.5 L 159.5 179.5 L 159.5 184.0 L 159.5 189.0 L 159.5 193.0 L 159.5 194.5 L 159.5 194.5 L 161.0 193.0 L 162.5 191.5 L 165.0 190.0 L 167.5 188.5 L 169.5 187.5 L 171.0 186.5 L 171.5 185.5 " stroke="black" fill="none" stroke-width="6.0" stroke-linecap="round" stroke-linejoin="round" />
</svg>