<svg xmlns="http://www.w3.org/2000/svg" width="300" height="300" viewBox="0 0 300 300">
<path d="M 130.5 114.0 L 130.5 114.0 L 130.5 114.0 L 130.5 114.0 L 130.5 114.5 L 131.0 116.0 L 132.0 119.0 L 133.5 123.0 L 134.5 126.5 L 135.5 129.0 " stroke="black" fill="none" stroke-width="6.0" stroke-linecap="round" stroke-linejoin="round" />
<path d="M 123.0 136.5 L 122.5 137.0 L 122.0 137.5 L 122.0 137.5 L 122.5 137.5 L 126.0 137.5 L 131.0 137.0 L 136.5 137.0 L 141.0 136.5 L 143.5 136.0 L 145.0 135.5 L 145.0 135.5 " stroke="black" fill="none" stroke-width="6.0" stroke-linecap="round" stroke-linejoin="round" />
<path d="M 129.0 140.0 L 130.0 139.0 L 130.5 139.0 L 130.5 139.0 L 130.5 141.0 L 130.0 146.5 L 127.5 157.0 L 123.5 168.5 L 121.5 175.5 L 121.5 176.5 L 122.0 174.5 " stroke="black" fill="none" stroke-width="6.0" stroke-linecap="round" stroke-linejoin="round" />
<path d="M 131.5 152.5 L 131.5 152.5 L 131.5 152.5 L 131.5 152.5 L 131.5 152.5 L 132.5 152.5 L 135.5 152.0 L 139.5 150.5 L 143.0 149.5 L 144.5 149.0 L 145.0 149.0 L 145.0 150.5 L 145.0 154.0 L 144.5 159.0 L 144.0 167.0 L 142.5 176.0 L 141.0 183.5 L 139.5 188.5 L 138.0 190.0 L 136.0 190.0 L 134.0 190.0 L 131.5 188.5 L 130.5 188.0 " stroke="black" fill="none" stroke-width="6.0" stroke-linecap="round" stroke-linejoin="round" />
<path d="M 161.0 114.0 L 160.5 114.5 L 160.5 115.0 L 160.5 115.0 L 160.0 116.5 L 159.0 120.0 L 157.0 128.0 L 154.0 136.5 L 152.0 140.5 L 152.0 140.5 L 151.5 139.0 " stroke="black" fill="none" stroke-width="6.0" stroke-linecap="round" stroke-linejoin="round" />
<path d="M 164.5 114.5 L 164.0 115.0 L 164.0 115.0 L 164.5 116.0 L 166.5 119.0 L 171.5 125.5 L 177.0 132.5 L 180.5 137.0 L 181.0 137.5 L 181.0 137.5 L 180.5 137.0 " stroke="black" fill="none" stroke-width="6.0" stroke-linecap="round" stroke-linejoin="round" />
<path d="M 163.0 143.5 L 163.0 143.5 L 162.5 143.0 L 162.5 142.5 L 162.5 142.5 L 164.5 145.5 L 167.0 149.0 L 169.5 152.5 L 171.5 155.0 L 172.0 155.5 L 172.0 155.0 " stroke="black" fill="none" stroke-width="6.0" stroke-linecap="round" stroke-linejoin="round" />
<path d="M 160.5 166.5 L 160.5 166.0 L 160.0 165.0 L 160.0 165.0 L 160.5 166.0 L 163.5 169.5 L 167.0 174.5 L 170.5 179.5 L 172.5 183.0 L 173.5 184.0 L 173.5 184.0 " stroke="black" fill="none" stroke-width="6.0" stroke-linecap="round" stroke-linejoin="round" />
</svg>