<svg xmlns="http://www.w3.org/2000/svg" width="300" height="300" viewBox="0 0 300 300">
<path d="M 127.5 115.0 L 126.5 115.5 L 126.0 116.0 L 125.5 116.0 L 126.5 117.0 L 129.5 119.0 L 132.5 121.5 L 135.0 123.0 L 136.0 124.0 L 136.0 124.5 " stroke="black" fill="none" stroke-width="6.0" stroke-linecap="round" stroke-linejoin="round" />
<path d="M 120.5 130.0 L 119.0 130.5 L 117.5 131.5 L 117.5 131.5 L 117.5 131.5 L 120.0 131.5 L 125.0 131.5 L 131.0 131.5 L 137.0 131.5 L 142.0 131.0 L 146.0 130.5 L 147.5 130.0 L 147.5 130.0 L 147.0 130.0 " stroke="black" fill="none" stroke-width="6.0" stroke-linecap="round" stroke-linejoin="round" />
<path d="M 129.0 133.5 L 129.5 132.5 L 129.5 132.0 L 129.5 131.5 L 130.0 131.5 L 130.0 132.5 L 129.5 137.5 L 128.0 146.5 L 124.5 158.5 L 121.5 170.0 L 120.5 174.5 L 120.5 175.5 L 121.5 173.0 " stroke="black" fill="none" stroke-width="6.0" stroke-linecap="round" stroke-linejoin="round" />
<path d="M 130.0 145.0 L 130.0 145.5 L 130.0 146.0 L 130.0 146.5 L 131.0 146.5 L 133.0 146.5 L 136.0 146.5 L 139.0 146.0 L 141.5 145.5 L 143.0 145.5 L 143.5 146.0 L 143.5 148.0 L 143.5 151.5 L 142.5 157.0 L 142.0 164.5 L 142.0 172.5 L 142.0 180.0 L 141.5 186.5 L 140.0 190.5 L 138.5 192.0 L 136.0 192.0 L 134.5 190.5 L 132.5 187.5 L 132.0 186.5 " stroke="black" fill="none" stroke-width="6.0" stroke-linecap="round" stroke-linejoin="round" />
<path d="M 160.5 117.0 L 161.0 116.5 L 162.0 116.5 L 162.5 116.0 L 163.0 116.0 L 162.5 119.0 L 160.0 125.5 L 156.5 133.0 L 153.0 139.0 L 153.0 137.5 " stroke="black" fill="none" stroke-width="6.0" stroke-linecap="round" stroke-linejoin="round" />
<path d="M 163.0 116.5 L 163.0 116.5 L 163.5 116.5 L 164.0 116.5 L 165.5 117.5 L 168.5 120.5 L 172.5 125.5 L 175.5 130.0 L 178.0 133.0 L 180.0 135.0 L 180.5 135.5 " stroke="black" fill="none" stroke-width="6.0" stroke-linecap="round" stroke-linejoin="round" />
<path d="M 164.0 141.0 L 164.0 141.5 L 163.5 142.0 L 163.5 143.0 L 166.0 145.0 L 169.0 148.0 L 172.0 150.5 L 173.5 152.5 L 174.0 152.5 " stroke="black" fill="none" stroke-width="6.0" stroke-linecap="round" stroke-linejoin="round" />
<path d="M 159.5 161.0 L 159.5 161.0 L 159.5 161.5 L 159.5 161.5 L 160.5 162.0 L 163.0 164.0 L 167.5 168.0 L 172.5 172.5 L 176.5 176.0 L 178.0 176.5 " stroke="black" fill="none" stroke-width="6.0" stroke-linecap="round" stroke-linejoin="round" />
</svg>