<svg xmlns="http://www.w3.org/2000/svg" width="300" height="300" viewBox="0 0 300 300">
<path d="M 127.5 118.5 L 127.5 118.5 L 127.5 118.0 L 127.5 117.5 L 127.5 117.5 L 129.0 121.5 L 129.5 132.0 L 129.5 147.0 L 128.5 156.5 L 129.0 159.5 L 129.0 159.5 " stroke="black" fill="none" stroke-width="6.0" stroke-linecap="round" stroke-linejoin="round" />
<path d="M 129.5 119.0 L 129.0 120.5 L 128.0 121.0 L 128.5 121.0 L 130.5 120.0 L 134.5 118.5 L 138.5 117.0 L 141.5 116.0 L 144.5 115.5 L 146.5 116.0 L 147.0 118.5 L 147.0 124.5 L 146.5 133.0 L 146.0 143.0 L 145.5 152.0 L 145.0 158.5 L 145.0 160.5 L 145.0 160.0 " stroke="black" fill="none" stroke-width="6.0" stroke-linecap="round" stroke-linejoin="round" />
<path d="M 132.0 134.5 L 131.5 135.5 L 131.0 136.0 L 131.0 136.0 L 134.0 135.0 L 138.5 134.0 L 143.0 133.5 L 146.0 133.0 L 146.5 133.0 " stroke="black" fill="none" stroke-width="6.0" stroke-linecap="round" stroke-linejoin="round" />
<path d="M 136.0 146.5 L 135.0 147.0 L 134.5 147.5 L 137.0 148.0 L 141.0 147.5 L 144.0 147.0 L 145.5 147.0 " stroke="black" fill="none" stroke-width="6.0" stroke-linecap="round" stroke-linejoin="round" />
<path d="M 133.5 162.0 L 133.0 162.5 L 132.5 163.0 L 134.0 163.5 L 139.0 162.5 L 143.5 161.0 L 147.0 160.5 L 148.0 160.5 " stroke="black" fill="none" stroke-width="6.0" stroke-linecap="round" stroke-linejoin="round" />
<path d="M 137.5 175.5 L 137.5 175.5 L 138.0 175.5 L 138.0 175.5 L 138.0 175.5 L 137.0 177.0 L 134.5 180.5 L 133.0 184.0 L 132.0 185.0 " stroke="black" fill="none" stroke-width="6.0" stroke-linecap="round" stroke-linejoin="round" />
<path d="M 150.5 174.0 L 150.5 175.0 L 150.5 176.5 L 151.5 178.5 L 154.0 181.5 L 156.0 183.5 " stroke="black" fill="none" stroke-width="6.0" stroke-linecap="round" stroke-linejoin="round" />
<path d="M 161.5 127.0 L 161.5 127.0 L 161.5 127.0 L 161.5 127.0 L 161.5 131.0 L 162.0 142.5 L 162.5 154.0 L 163.5 158.5 L 164.0 158.0 " stroke="black" fill="none" stroke-width="6.0" stroke-linecap="round" stroke-linejoin="round" />
<path d="M 171.0 115.0 L 171.5 115.5 L 171.5 115.5 L 172.0 116.0 L 172.5 117.5 L 173.5 123.0 L 174.0 134.5 L 175.0 148.0 L 175.5 159.5 L 175.5 167.0 L 174.5 171.0 L 173.0 173.0 L 172.0 173.5 L 171.0 173.5 L 170.5 172.0 " stroke="black" fill="none" stroke-width="6.0" stroke-linecap="round" stroke-linejoin="round" />
</svg>