<svg xmlns="http://www.w3.org/2000/svg" width="300" height="300" viewBox="0 0 300 300">
<path d="M 123.5 109.5 L 123.5 109.5 L 124.0 110.0 L 124.0 110.5 L 124.5 110.5 L 128.0 110.0 L 133.5 108.5 L 139.0 108.0 L 142.0 108.0 L 143.0 108.0 L 143.0 109.0 L 143.0 111.0 L 142.0 114.5 L 140.5 120.0 L 139.5 126.0 L 139.5 129.5 L 139.5 130.5 L 139.5 130.0 L 139.5 129.5 " stroke="black" fill="none" stroke-width="6.0" stroke-linecap="round" stroke-linejoin="round" />
<path d="M 126.0 120.5 L 126.0 120.0 L 126.0 119.5 L 126.0 119.0 L 126.0 119.0 L 127.5 119.0 L 130.0 119.0 L 133.0 119.5 L 135.0 120.0 L 137.0 120.0 L 137.0 120.5 " stroke="black" fill="none" stroke-width="6.0" stroke-linecap="round" stroke-linejoin="round" />
<path d="M 124.0 129.5 L 124.0 129.5 L 124.5 130.0 L 124.5 130.0 L 125.0 130.5 L 127.0 130.5 L 130.5 130.5 L 134.0 130.0 L 135.0 129.0 " stroke="black" fill="none" stroke-width="6.0" stroke-linecap="round" stroke-linejoin="round" />
<path d="M 123.0 113.0 L 123.0 113.0 L 122.5 113.5 L 122.5 114.0 L 122.0 115.5 L 122.5 121.5 L 123.5 134.0 L 124.0 150.0 L 122.5 165.0 L 121.0 175.5 L 120.5 180.5 L 120.5 181.5 L 121.0 180.0 " stroke="black" fill="none" stroke-width="6.0" stroke-linecap="round" stroke-linejoin="round" />
<path d="M 152.5 109.0 L 152.0 109.5 L 151.5 109.5 L 151.0 109.5 L 151.0 111.5 L 151.0 116.0 L 152.0 121.5 L 152.0 125.0 L 152.0 125.5 " stroke="black" fill="none" stroke-width="6.0" stroke-linecap="round" stroke-linejoin="round" />
<path d="M 151.5 108.0 L 152.0 108.0 L 152.5 108.0 L 153.5 108.0 L 155.5 108.0 L 159.5 107.0 L 164.5 106.0 L 167.5 106.0 L 169.5 106.0 L 170.5 106.0 L 170.5 106.5 L 170.5 107.5 L 170.5 108.5 L 170.5 110.5 L 170.5 113.0 L 170.5 117.5 L 171.0 124.5 L 171.5 133.5 L 172.0 143.5 L 172.5 154.0 L 173.0 164.0 L 173.5 173.5 L 173.5 180.0 L 172.5 185.5 L 171.5 189.5 L 170.5 190.0 L 169.0 189.5 L 166.5 186.0 L 164.0 181.0 L 163.5 177.5 " stroke="black" fill="none" stroke-width="6.0" stroke-linecap="round" stroke-linejoin="round" />
<path d="M 151.5 119.5 L 151.0 119.5 L 150.0 119.5 L 150.0 119.5 L 153.5 119.0 L 157.5 118.0 L 161.0 117.0 L 164.5 117.0 L 167.0 117.0 L 168.5 117.0 L 168.5 117.0 " stroke="black" fill="none" stroke-width="6.0" stroke-linecap="round" stroke-linejoin="round" />
<path d="M 151.0 129.5 L 151.0 130.0 L 151.0 131.0 L 151.0 131.0 L 153.0 131.0 L 156.5 130.5 L 160.0 130.0 L 163.0 129.5 L 164.0 129.5 " stroke="black" fill="none" stroke-width="6.0" stroke-linecap="round" stroke-linejoin="round" />
<path d="M 135.0 142.0 L 135.0 142.0 L 135.0 142.0 L 135.0 142.0 L 135.0 141.5 L 138.0 141.0 L 143.5 140.5 L 149.5 140.0 L 154.0 139.5 L 155.5 139.5 L 155.5 140.5 " stroke="black" fill="none" stroke-width="6.0" stroke-linecap="round" stroke-linejoin="round" />
<path d="M 140.0 143.5 L 139.0 143.5 L 138.5 143.5 L 138.5 144.0 L 138.5 149.0 L 138.5 159.0 L 138.5 170.0 L 138.5 175.0 L 139.0 174.5 L 139.5 173.5 " stroke="black" fill="none" stroke-width="6.0" stroke-linecap="round" stroke-linejoin="round" />
<path d="M 151.0 143.0 L 151.5 143.0 L 152.0 143.0 L 152.5 143.5 L 152.5 147.0 L 152.5 156.5 L 153.0 170.5 L 153.0 181.0 L 153.0 188.0 L 153.0 191.5 L 152.5 192.0 L 152.5 192.0 " stroke="black" fill="none" stroke-width="6.0" stroke-linecap="round" stroke-linejoin="round" />
<path d="M 141.0 153.5 L 140.5 154.0 L 139.5 154.5 L 139.5 155.0 L 140.0 155.0 L 142.5 154.5 L 145.0 153.5 L 148.0 153.0 L 149.5 153.0 " stroke="black" fill="none" stroke-width="6.0" stroke-linecap="round" stroke-linejoin="round" />
<path d="M 142.5 161.5 L 142.5 161.5 L 141.5 161.5 L 141.5 161.5 L 141.5 161.5 L 143.0 161.5 L 144.5 161.0 L 145.5 161.0 " stroke="black" fill="none" stroke-width="6.0" stroke-linecap="round" stroke-linejoin="round" />
<path d="M 130.0 176.0 L 130.5 176.0 L 131.0 176.0 L 132.0 176.0 L 133.5 176.0 L 136.0 175.5 L 140.0 175.0 L 144.0 174.5 L 146.5 173.5 L 148.0 173.0 L 149.0 172.5 " stroke="black" fill="none" stroke-width="6.0" stroke-linecap="round" stroke-linejoin="round" />
</svg>