<svg xmlns="http://www.w3.org/2000/svg" width="300" height="300" viewBox="0 0 300 300">
<path d="M 121.0 110.0 L 119.5 110.5 L 118.5 111.0 L 118.0 111.0 L 118.5 111.0 L 121.0 110.5 L 124.0 110.5 L 127.5 110.5 L 130.5 110.5 L 133.5 110.5 L 135.5 110.0 L 136.5 110.0 L 137.0 110.0 L 137.0 111.0 L 137.0 113.0 L 137.0 116.0 L 136.5 120.0 L 135.5 123.5 L 135.0 126.5 L 134.5 128.0 " stroke="black" fill="none" stroke-width="6.0" stroke-linecap="round" stroke-linejoin="round" />
<path d="M 122.0 121.0 L 121.5 121.0 L 120.0 120.5 L 120.0 120.0 L 121.0 120.0 L 124.5 119.5 L 128.5 119.5 L 131.5 119.5 L 132.5 120.0 " stroke="black" fill="none" stroke-width="6.0" stroke-linecap="round" stroke-linejoin="round" />
<path d="M 118.5 130.5 L 118.5 131.5 L 118.5 132.0 L 120.0 132.0 L 123.5 131.5 L 127.5 130.5 L 129.5 129.0 " stroke="black" fill="none" stroke-width="6.0" stroke-linecap="round" stroke-linejoin="round" />
<path d="M 115.5 114.0 L 115.5 113.0 L 115.5 112.0 L 115.5 112.0 L 115.0 112.0 L 114.0 116.5 L 114.0 126.5 L 113.5 143.0 L 114.5 162.0 L 116.0 174.0 L 118.5 180.0 L 120.5 181.0 L 120.5 179.5 L 120.0 178.0 " stroke="black" fill="none" stroke-width="6.0" stroke-linecap="round" stroke-linejoin="round" />
<path d="M 157.0 109.5 L 156.5 109.5 L 156.0 110.0 L 155.5 110.5 L 155.5 112.5 L 155.5 116.5 L 155.5 123.5 L 156.0 129.0 L 156.0 130.0 " stroke="black" fill="none" stroke-width="6.0" stroke-linecap="round" stroke-linejoin="round" />
<path d="M 154.0 111.5 L 154.0 112.0 L 153.5 112.5 L 153.5 112.5 L 154.0 112.5 L 157.0 111.5 L 162.5 111.0 L 168.5 110.5 L 174.0 110.5 L 178.0 110.5 L 181.0 110.5 L 182.0 111.0 L 182.0 111.5 L 182.0 113.0 L 182.0 115.5 L 182.5 119.5 L 183.0 125.0 L 183.0 132.0 L 183.0 141.0 L 183.0 150.5 L 183.0 159.5 L 181.5 168.0 L 180.0 175.0 L 178.5 180.5 L 176.5 183.5 L 175.0 184.0 L 173.0 183.5 L 170.5 180.5 L 170.0 179.0 " stroke="black" fill="none" stroke-width="6.0" stroke-linecap="round" stroke-linejoin="round" />
<path d="M 156.0 124.0 L 156.0 123.5 L 156.0 122.5 L 156.5 122.0 L 158.5 121.0 L 162.5 121.0 L 166.5 121.5 L 170.5 122.5 L 172.5 123.0 " stroke="black" fill="none" stroke-width="6.0" stroke-linecap="round" stroke-linejoin="round" />
<path d="M 159.0 132.0 L 158.5 135.0 L 158.5 135.5 L 160.5 135.5 L 164.5 135.5 L 169.5 134.5 L 173.5 133.5 L 175.5 132.5 " stroke="black" fill="none" stroke-width="6.0" stroke-linecap="round" stroke-linejoin="round" />
<path d="M 129.5 143.5 L 129.5 143.5 L 129.5 143.5 L 129.5 143.5 L 130.5 143.5 L 136.0 143.5 L 145.5 142.5 L 152.5 141.0 L 155.5 141.0 L 156.0 142.5 L 155.5 143.5 " stroke="black" fill="none" stroke-width="6.0" stroke-linecap="round" stroke-linejoin="round" />
<path d="M 135.0 145.5 L 136.0 145.0 L 137.0 145.0 L 137.0 146.5 L 137.0 152.0 L 137.0 161.0 L 137.0 169.5 L 138.0 171.5 L 139.0 169.5 " stroke="black" fill="none" stroke-width="6.0" stroke-linecap="round" stroke-linejoin="round" />
<path d="M 151.5 142.5 L 151.5 142.5 L 152.0 142.0 L 152.5 141.5 L 153.0 142.5 L 153.5 146.5 L 154.0 154.5 L 154.5 165.5 L 154.5 175.0 L 154.5 181.0 L 154.5 182.5 " stroke="black" fill="none" stroke-width="6.0" stroke-linecap="round" stroke-linejoin="round" />
<path d="M 141.0 154.5 L 140.0 155.5 L 139.5 156.0 L 140.0 155.5 L 142.5 154.5 L 145.0 154.0 L 148.0 153.5 L 150.5 153.0 " stroke="black" fill="none" stroke-width="6.0" stroke-linecap="round" stroke-linejoin="round" />
<path d="M 141.0 165.0 L 142.0 164.5 L 143.5 163.5 L 145.0 163.0 L 146.5 162.5 L 147.5 162.5 " stroke="black" fill="none" stroke-width="6.0" stroke-linecap="round" stroke-linejoin="round" />
<path d="M 128.5 174.0 L 128.5 174.0 L 129.0 174.0 L 129.5 174.0 L 132.5 173.5 L 139.5 172.5 L 148.5 170.5 L 157.0 168.5 L 158.0 168.0 " stroke="black" fill="none" stroke-width="6.0" stroke-linecap="round" stroke-linejoin="round" />
</svg>