<svg xmlns="http://www.w3.org/2000/svg" width="300" height="300" viewBox="0 0 300 300">
<path d="M 132.5 126.0 L 133.5 125.5 L 134.0 125.0 L 134.5 124.5 L 135.0 124.5 L 135.0 124.5 L 134.0 128.0 L 131.5 134.5 L 127.0 142.5 L 124.0 148.5 L 122.0 151.5 L 122.0 152.0 L 122.5 152.0 L 124.0 151.5 L 126.5 151.0 L 130.0 150.0 L 133.5 149.5 L 136.5 148.5 L 138.0 148.0 L 139.0 147.5 " stroke="black" fill="none" stroke-width="6.0" stroke-linecap="round" stroke-linejoin="round" />
<path d="M 144.0 134.5 L 144.0 135.0 L 143.5 135.5 L 143.5 136.0 L 143.0 136.5 L 142.5 138.0 L 140.5 142.0 L 136.5 149.5 L 131.5 158.5 L 127.0 166.0 L 123.5 170.0 L 122.0 171.5 L 121.0 172.5 L 121.0 173.0 L 121.0 173.0 L 121.0 173.0 L 121.5 172.5 L 124.0 171.0 L 128.0 169.0 L 132.5 167.5 L 136.5 166.5 L 139.5 166.0 L 141.0 166.0 L 141.5 166.0 " stroke="black" fill="none" stroke-width="6.0" stroke-linecap="round" stroke-linejoin="round" />
<path d="M 144.5 157.5 L 144.5 157.5 L 144.0 158.0 L 144.0 158.5 L 144.0 159.5 L 145.5 162.5 L 147.5 166.0 L 149.0 169.0 L 149.5 170.0 " stroke="black" fill="none" stroke-width="6.0" stroke-linecap="round" stroke-linejoin="round" />
<path d="M 123.5 184.0 L 123.5 183.0 L 123.5 182.5 L 123.0 182.5 L 122.5 185.0 L 121.5 189.0 L 120.5 191.5 L 120.5 193.5 L 120.5 193.5 " stroke="black" fill="none" stroke-width="6.0" stroke-linecap="round" stroke-linejoin="round" />
<path d="M 131.0 183.0 L 131.0 182.5 L 132.0 182.0 L 132.0 182.0 L 133.0 182.5 L 133.5 184.5 L 134.5 187.5 L 135.5 190.0 L 136.5 191.0 " stroke="black" fill="none" stroke-width="6.0" stroke-linecap="round" stroke-linejoin="round" />
<path d="M 143.5 179.0 L 143.5 179.5 L 143.0 180.0 L 143.0 180.5 L 144.0 181.5 L 145.0 183.0 L 146.0 184.0 L 146.5 184.5 " stroke="black" fill="none" stroke-width="6.0" stroke-linecap="round" stroke-linejoin="round" />
<path d="M 163.5 125.5 L 163.5 125.5 L 163.5 125.0 L 163.5 124.5 L 163.5 124.0 L 163.5 124.0 L 163.5 124.5 L 162.0 128.0 L 159.0 134.0 L 157.0 138.5 L 156.0 140.5 L 156.0 140.5 " stroke="black" fill="none" stroke-width="6.0" stroke-linecap="round" stroke-linejoin="round" />
<path d="M 161.0 133.0 L 161.0 133.0 L 160.5 133.5 L 160.5 134.0 L 163.0 133.5 L 167.0 133.0 L 172.0 132.5 L 176.0 132.0 L 178.5 131.5 L 179.5 131.0 L 180.5 130.5 L 181.0 130.5 L 181.0 130.5 L 181.0 131.5 L 181.5 133.5 L 181.5 136.0 L 181.5 140.0 L 181.5 145.0 L 181.5 151.0 L 181.5 158.0 L 181.5 164.5 L 181.5 170.5 L 181.0 175.5 L 180.0 180.0 L 179.0 183.0 L 177.0 184.5 L 174.5 184.5 L 171.5 184.0 L 169.5 182.0 L 168.5 180.0 " stroke="black" fill="none" stroke-width="6.0" stroke-linecap="round" stroke-linejoin="round" />
<path d="M 163.5 151.5 L 162.5 152.0 L 162.0 152.0 L 162.5 153.0 L 165.0 154.5 L 168.5 156.5 L 171.5 158.0 L 172.5 158.5 " stroke="black" fill="none" stroke-width="6.0" stroke-linecap="round" stroke-linejoin="round" />
</svg>