<svg xmlns="http://www.w3.org/2000/svg" width="300" height="300" viewBox="0 0 300 300">
<path d="M 131.5 123.5 L 131.5 123.0 L 132.0 122.5 L 132.0 122.0 L 132.0 122.0 L 132.0 123.0 L 132.0 128.5 L 131.5 139.5 L 130.5 153.5 L 130.5 160.5 L 130.5 161.5 L 130.5 158.5 " stroke="black" fill="none" stroke-width="7.0" stroke-linecap="round" stroke-linejoin="round" />
<path d="M 132.0 142.0 L 132.5 142.0 L 133.0 142.0 L 133.5 141.5 L 135.0 140.5 L 136.5 139.5 L 138.5 139.0 L 139.5 138.5 L 140.5 138.5 " stroke="black" fill="none" stroke-width="7.0" stroke-linecap="round" stroke-linejoin="round" />
<path d="M 116.0 138.0 L 116.5 138.0 L 117.0 138.0 L 117.5 138.0 L 117.5 141.0 L 118.5 148.5 L 119.0 158.0 L 119.5 165.5 L 119.5 169.0 L 119.5 170.0 " stroke="black" fill="none" stroke-width="7.0" stroke-linecap="round" stroke-linejoin="round" />
<path d="M 111.5 178.0 L 112.5 178.0 L 113.5 177.5 L 117.5 176.0 L 126.0 172.0 L 135.5 168.0 L 141.5 166.0 L 145.0 165.5 " stroke="black" fill="none" stroke-width="7.0" stroke-linecap="round" stroke-linejoin="round" />
<path d="M 157.0 143.5 L 157.0 143.5 L 157.0 143.0 L 157.0 143.0 L 157.5 142.5 L 158.5 142.0 L 161.5 140.5 L 164.5 138.5 L 167.0 137.0 L 168.5 136.5 " stroke="black" fill="none" stroke-width="7.0" stroke-linecap="round" stroke-linejoin="round" />
<path d="M 152.5 123.0 L 154.0 122.5 L 154.5 122.5 L 154.5 122.5 L 154.5 123.5 L 154.0 127.0 L 153.5 133.5 L 153.0 143.0 L 152.5 153.0 L 152.5 160.5 L 152.5 166.0 L 153.5 170.0 L 156.0 172.0 L 159.5 173.5 L 164.0 174.0 L 168.5 172.5 L 173.5 169.5 L 177.5 166.5 L 179.0 164.0 L 179.5 162.5 L 178.0 162.0 L 176.0 161.5 L 175.0 161.5 L 175.0 161.0 L 174.5 160.5 L 174.5 160.5 L 174.5 160.0 " stroke="black" fill="none" stroke-width="7.0" stroke-linecap="round" stroke-linejoin="round" />
</svg>