<svg xmlns="http://www.w3.org/2000/svg" width="300" height="300" viewBox="0 0 300 300">
<path d="M 120.5 121.5 L 119.5 121.5 L 119.0 121.5 L 119.0 121.5 L 122.5 120.5 L 127.5 119.0 L 133.5 117.0 L 139.0 116.0 L 141.0 115.5 L 141.5 116.0 L 140.0 117.0 " stroke="black" fill="none" stroke-width="6.0" stroke-linecap="round" stroke-linejoin="round" />
<path d="M 116.5 135.5 L 116.5 135.5 L 116.0 135.5 L 116.0 135.5 L 119.5 135.0 L 127.0 132.5 L 136.0 129.5 L 140.5 128.5 L 141.0 129.0 L 141.0 129.5 " stroke="black" fill="none" stroke-width="6.0" stroke-linecap="round" stroke-linejoin="round" />
<path d="M 128.0 136.5 L 128.0 136.5 L 129.0 136.0 L 129.5 134.5 L 130.5 134.0 L 130.5 133.5 L 131.0 134.5 L 129.0 140.5 L 125.0 149.5 L 121.5 158.5 L 119.5 163.5 L 119.5 164.0 L 119.5 163.0 L 120.0 162.0 L 122.0 160.5 L 125.0 160.0 L 130.5 158.5 L 136.5 156.5 L 140.5 154.5 L 142.5 154.5 L 142.5 154.5 " stroke="black" fill="none" stroke-width="6.0" stroke-linecap="round" stroke-linejoin="round" />
<path d="M 139.0 149.5 L 139.0 150.0 L 139.0 150.5 L 139.0 150.5 L 139.5 151.0 L 141.0 152.5 L 143.5 155.5 L 146.0 158.5 L 147.5 161.0 L 147.5 161.5 " stroke="black" fill="none" stroke-width="6.0" stroke-linecap="round" stroke-linejoin="round" />
<path d="M 161.0 109.5 L 161.0 109.5 L 161.0 109.5 L 161.5 109.5 L 161.5 109.5 L 161.5 109.5 L 160.5 111.5 L 158.5 115.0 L 157.5 116.5 " stroke="black" fill="none" stroke-width="6.0" stroke-linecap="round" stroke-linejoin="round" />
<path d="M 150.5 124.5 L 150.5 124.5 L 150.5 124.0 L 150.0 124.0 L 150.0 126.0 L 151.0 131.0 L 153.0 138.0 L 154.5 143.5 L 156.0 146.0 " stroke="black" fill="none" stroke-width="6.0" stroke-linecap="round" stroke-linejoin="round" />
<path d="M 154.5 123.0 L 154.5 122.5 L 154.0 122.5 L 154.0 122.0 L 154.5 121.5 L 158.0 121.0 L 164.5 121.0 L 172.5 121.0 L 179.0 121.0 L 181.5 121.5 L 182.0 121.5 L 182.0 122.0 L 181.5 123.0 L 181.5 125.0 L 181.0 128.5 L 180.5 133.0 L 179.5 137.5 L 179.5 141.0 L 179.0 142.5 L 178.5 143.0 " stroke="black" fill="none" stroke-width="6.0" stroke-linecap="round" stroke-linejoin="round" />
<path d="M 159.0 134.0 L 159.0 134.5 L 159.0 134.5 L 159.5 134.5 L 164.0 134.0 L 169.5 133.0 L 174.0 132.5 L 176.0 132.5 " stroke="black" fill="none" stroke-width="6.0" stroke-linecap="round" stroke-linejoin="round" />
<path d="M 159.5 147.5 L 159.0 147.5 L 157.5 148.5 L 157.0 148.5 L 160.5 148.0 L 166.0 146.5 L 170.5 145.0 L 174.5 144.5 " stroke="black" fill="none" stroke-width="6.0" stroke-linecap="round" stroke-linejoin="round" />
<path d="M 166.0 125.0 L 166.0 125.0 L 165.5 125.0 L 165.5 125.0 L 165.5 127.0 L 166.0 132.5 L 167.0 139.0 L 167.5 143.5 " stroke="black" fill="none" stroke-width="6.0" stroke-linecap="round" stroke-linejoin="round" />
<path d="M 162.5 151.5 L 163.0 151.5 L 163.5 151.5 L 164.0 151.5 L 164.0 151.5 L 164.5 151.5 L 164.5 151.5 L 164.5 153.5 L 162.5 160.5 L 159.0 170.0 L 155.0 177.5 L 151.5 181.0 L 149.5 182.5 L 148.5 183.0 L 148.5 183.0 " stroke="black" fill="none" stroke-width="6.0" stroke-linecap="round" stroke-linejoin="round" />
<path d="M 169.0 154.5 L 169.0 154.5 L 169.5 154.5 L 170.0 154.0 L 170.0 154.0 L 170.0 154.5 L 170.0 158.5 L 168.0 167.0 L 167.5 176.0 L 168.5 182.0 L 172.0 185.0 L 177.5 185.0 L 184.0 183.0 L 189.5 181.0 L 192.5 179.5 L 193.5 178.5 L 193.5 177.5 L 192.5 176.0 L 191.5 175.0 L 191.0 174.5 L 190.5 174.0 L 190.5 174.0 " stroke="black" fill="none" stroke-width="6.0" stroke-linecap="round" stroke-linejoin="round" />
<path d="M 180.5 152.5 L 181.5 152.5 L 182.0 152.5 L 182.0 152.5 L 182.0 152.5 L 182.0 154.5 L 181.0 158.0 L 179.0 162.0 L 177.5 165.5 L 176.5 167.5 L 176.0 168.0 L 176.5 168.0 L 178.5 167.5 L 181.0 167.0 L 184.5 166.0 L 187.0 165.0 L 189.5 164.5 L 189.5 164.5 " stroke="black" fill="none" stroke-width="6.0" stroke-linecap="round" stroke-linejoin="round" />
<path d="M 190.0 159.5 L 189.5 159.5 L 189.5 159.5 L 190.0 160.0 L 192.5 162.0 L 194.5 164.0 L 196.0 166.0 L 196.5 166.5 " stroke="black" fill="none" stroke-width="6.0" stroke-linecap="round" stroke-linejoin="round" />
</svg>