<svg xmlns="http://www.w3.org/2000/svg" width="300" height="300" viewBox="0 0 300 300">
<path d="M 124.0 119.0 L 123.5 119.0 L 122.5 118.5 L 122.0 117.5 L 123.0 116.0 L 127.0 115.0 L 133.0 114.0 L 140.0 114.0 L 145.0 114.0 L 146.5 115.5 L 146.0 116.5 " stroke="black" fill="none" stroke-width="6.0" stroke-linecap="round" stroke-linejoin="round" />
<path d="M 122.0 123.0 L 122.0 122.0 L 121.5 121.0 L 121.5 120.0 L 121.5 119.5 L 121.5 120.0 L 121.5 122.0 L 122.0 127.0 L 122.0 133.5 L 122.0 141.5 L 121.5 149.0 L 121.5 152.5 L 122.5 153.5 L 124.0 153.5 L 125.5 153.5 L 127.0 153.0 L 129.0 152.5 L 130.5 152.5 L 133.0 152.5 L 135.5 152.0 L 138.0 152.0 L 140.5 152.0 L 142.5 152.0 L 144.0 152.5 L 145.5 153.0 L 146.0 154.0 L 146.5 156.0 L 147.0 158.5 L 147.0 163.0 L 147.5 168.5 L 148.0 175.0 L 149.0 182.0 L 149.0 189.0 L 149.5 195.0 L 149.0 200.5 L 147.5 204.0 L 146.0 204.5 L 144.0 204.0 L 141.5 201.0 L 139.0 197.0 " stroke="black" fill="none" stroke-width="6.0" stroke-linecap="round" stroke-linejoin="round" />
<path d="M 126.5 125.0 L 125.5 125.5 L 124.5 126.0 L 125.5 126.0 L 128.5 125.5 L 132.5 125.0 L 136.0 125.0 L 139.0 125.0 " stroke="black" fill="none" stroke-width="6.0" stroke-linecap="round" stroke-linejoin="round" />
<path d="M 130.5 135.5 L 129.0 136.0 L 127.5 136.5 L 128.0 136.5 L 130.0 136.5 L 134.0 136.5 L 137.5 136.0 L 141.5 135.5 L 143.0 135.0 " stroke="black" fill="none" stroke-width="6.0" stroke-linecap="round" stroke-linejoin="round" />
<path d="M 136.5 120.0 L 136.5 120.0 L 136.0 120.0 L 136.0 120.0 L 135.5 122.0 L 135.5 128.5 L 135.5 138.0 L 135.0 144.5 L 135.0 147.5 " stroke="black" fill="none" stroke-width="6.0" stroke-linecap="round" stroke-linejoin="round" />
<path d="M 114.5 169.5 L 115.0 169.5 L 115.0 169.5 L 115.5 169.5 L 115.5 170.0 L 115.0 173.0 L 114.0 177.0 L 113.0 181.0 L 113.0 183.0 " stroke="black" fill="none" stroke-width="6.0" stroke-linecap="round" stroke-linejoin="round" />
<path d="M 124.0 172.5 L 124.0 172.5 L 123.5 173.0 L 123.5 173.5 L 123.5 174.0 L 124.0 175.5 L 125.0 177.5 L 126.5 179.5 L 127.0 179.5 " stroke="black" fill="none" stroke-width="6.0" stroke-linecap="round" stroke-linejoin="round" />
<path d="M 132.0 171.5 L 132.0 171.5 L 132.0 171.5 L 132.5 171.5 L 133.5 171.5 L 134.5 172.5 L 135.5 173.0 " stroke="black" fill="none" stroke-width="6.0" stroke-linecap="round" stroke-linejoin="round" />
<path d="M 139.0 170.0 L 139.0 170.5 L 139.0 171.0 L 139.0 171.5 L 140.0 172.0 L 140.5 172.5 L 141.0 173.0 " stroke="black" fill="none" stroke-width="6.0" stroke-linecap="round" stroke-linejoin="round" />
<path d="M 156.5 123.0 L 155.5 123.0 L 155.0 123.0 L 155.0 123.0 L 157.0 122.5 L 161.0 121.5 L 165.5 121.0 L 169.0 121.0 L 171.5 121.5 L 172.5 123.5 L 172.5 126.5 L 171.5 132.5 L 169.5 142.0 L 166.5 152.5 L 163.0 164.0 L 159.0 173.0 L 157.0 179.5 L 156.0 182.5 L 156.0 183.0 L 156.0 182.0 " stroke="black" fill="none" stroke-width="6.0" stroke-linecap="round" stroke-linejoin="round" />
<path d="M 156.5 136.5 L 155.5 136.5 L 154.5 137.0 L 153.5 137.0 L 154.0 138.0 L 158.5 144.0 L 166.5 157.5 L 174.5 171.5 L 180.0 177.5 L 183.5 180.0 L 184.5 180.5 " stroke="black" fill="none" stroke-width="6.0" stroke-linecap="round" stroke-linejoin="round" />
</svg>