<svg xmlns="http://www.w3.org/2000/svg" width="300" height="300" viewBox="0 0 300 300">
<path d="M 123.0 118.0 L 123.0 118.0 L 122.0 118.0 L 121.5 118.0 L 121.5 118.0 L 122.5 117.5 L 126.0 116.5 L 129.5 115.5 L 132.5 115.5 L 135.5 115.5 L 137.0 116.5 L 137.0 118.5 L 135.5 121.0 L 133.0 124.5 L 130.5 127.5 L 128.5 130.0 L 127.5 131.5 L 127.5 131.5 L 127.5 131.5 L 129.0 132.0 L 130.5 133.0 L 132.5 135.0 L 134.0 138.0 L 135.5 143.0 L 136.0 150.0 L 136.0 156.0 L 136.0 160.0 L 134.5 162.5 L 133.5 164.0 L 132.0 164.0 L 130.5 163.5 L 128.5 161.0 L 127.0 158.5 L 126.0 155.5 " stroke="black" fill="none" stroke-width="6.0" stroke-linecap="round" stroke-linejoin="round" />
<path d="M 120.0 119.5 L 119.0 119.5 L 118.5 119.5 L 118.0 119.5 L 118.0 122.5 L 118.0 131.5 L 118.5 149.0 L 118.5 168.0 L 119.0 182.0 L 119.0 190.0 L 119.0 195.0 L 119.0 197.0 L 119.0 195.5 " stroke="black" fill="none" stroke-width="6.0" stroke-linecap="round" stroke-linejoin="round" />
<path d="M 155.5 124.5 L 155.5 124.0 L 155.5 123.5 L 155.5 123.5 L 155.5 123.5 L 155.0 124.5 L 154.0 127.5 L 152.5 131.0 L 151.5 132.5 " stroke="black" fill="none" stroke-width="6.0" stroke-linecap="round" stroke-linejoin="round" />
<path d="M 145.5 118.5 L 145.5 118.0 L 146.0 117.5 L 146.0 117.0 L 146.5 117.0 L 146.5 118.5 L 146.5 123.0 L 146.5 131.0 L 146.5 140.5 L 146.5 147.5 L 147.5 149.5 L 148.5 149.0 L 150.5 147.5 L 153.0 145.5 L 156.0 143.5 L 158.0 141.5 L 158.5 141.0 " stroke="black" fill="none" stroke-width="6.0" stroke-linecap="round" stroke-linejoin="round" />
<path d="M 174.5 120.5 L 174.5 120.5 L 175.0 120.5 L 175.5 120.5 L 175.5 121.5 L 174.5 123.0 L 173.0 126.0 L 171.5 128.0 L 171.0 128.0 " stroke="black" fill="none" stroke-width="6.0" stroke-linecap="round" stroke-linejoin="round" />
<path d="M 167.0 116.0 L 167.0 116.0 L 167.0 116.5 L 167.0 117.0 L 167.0 118.0 L 167.0 122.0 L 166.0 129.5 L 165.5 138.5 L 165.5 146.5 L 166.5 151.0 L 168.5 151.0 L 170.5 148.5 L 172.5 145.5 L 174.0 143.0 L 175.0 141.0 " stroke="black" fill="none" stroke-width="6.0" stroke-linecap="round" stroke-linejoin="round" />
<path d="M 154.5 157.5 L 154.5 157.5 L 154.5 158.0 L 154.5 158.0 L 154.5 159.5 L 154.5 162.0 L 153.5 165.0 L 153.0 166.5 " stroke="black" fill="none" stroke-width="6.0" stroke-linecap="round" stroke-linejoin="round" />
<path d="M 144.5 168.5 L 144.5 168.0 L 144.5 168.0 L 144.5 168.5 L 144.5 172.5 L 145.0 179.0 L 145.5 186.0 L 145.5 190.5 L 145.5 191.5 L 145.5 191.0 " stroke="black" fill="none" stroke-width="6.0" stroke-linecap="round" stroke-linejoin="round" />
<path d="M 146.0 168.5 L 146.0 168.5 L 145.5 168.5 L 145.5 168.5 L 145.5 168.5 L 146.5 168.5 L 149.5 168.5 L 154.5 168.0 L 160.5 167.0 L 166.5 167.0 L 171.5 166.5 L 173.0 166.5 L 173.0 166.5 L 172.5 166.5 L 172.0 167.5 L 171.0 169.5 L 170.0 173.5 L 169.5 179.0 L 168.5 185.0 L 168.5 190.5 L 168.5 193.5 L 168.5 194.5 L 168.5 193.5 " stroke="black" fill="none" stroke-width="6.0" stroke-linecap="round" stroke-linejoin="round" />
<path d="M 150.5 179.0 L 150.5 180.0 L 150.5 180.5 L 150.5 180.5 L 152.0 180.5 L 155.0 180.0 L 159.0 180.0 L 162.5 179.5 L 165.0 179.5 L 166.5 179.0 " stroke="black" fill="none" stroke-width="6.0" stroke-linecap="round" stroke-linejoin="round" />
<path d="M 152.0 194.0 L 151.5 194.0 L 150.5 194.0 L 150.0 193.5 L 150.0 193.0 L 150.0 193.0 L 151.5 192.5 L 155.0 192.5 L 159.5 193.0 L 164.0 194.0 L 167.5 195.0 L 169.5 195.5 " stroke="black" fill="none" stroke-width="6.0" stroke-linecap="round" stroke-linejoin="round" />
</svg>