<svg xmlns="http://www.w3.org/2000/svg" width="300" height="300" viewBox="0 0 300 300">
<path d="M 130.0 119.0 L 129.5 119.0 L 129.0 119.0 L 128.5 119.0 L 129.5 120.5 L 132.5 125.5 L 137.0 131.0 L 140.0 134.5 L 141.5 135.0 L 141.5 134.5 " stroke="black" fill="none" stroke-width="6.0" stroke-linecap="round" stroke-linejoin="round" />
<path d="M 125.5 150.0 L 125.5 150.0 L 125.5 150.5 L 125.0 151.0 L 125.5 152.0 L 128.0 154.0 L 131.0 157.0 L 134.0 160.0 L 136.0 163.5 L 136.5 165.0 " stroke="black" fill="none" stroke-width="6.0" stroke-linecap="round" stroke-linejoin="round" />
<path d="M 124.0 194.5 L 123.5 194.5 L 123.0 194.5 L 123.0 193.5 L 125.0 191.0 L 128.5 186.5 L 133.0 182.0 L 136.5 177.5 " stroke="black" fill="none" stroke-width="6.0" stroke-linecap="round" stroke-linejoin="round" />
<path d="M 162.0 118.0 L 161.5 118.0 L 160.5 117.5 L 160.0 117.0 L 160.0 117.0 L 160.5 121.0 L 160.5 127.5 L 160.5 135.0 L 161.0 140.5 L 161.5 143.5 " stroke="black" fill="none" stroke-width="6.0" stroke-linecap="round" stroke-linejoin="round" />
<path d="M 163.0 131.5 L 161.5 131.5 L 161.0 131.5 L 161.0 131.5 L 163.0 131.5 L 165.5 131.0 L 168.0 130.5 L 171.0 130.0 L 174.0 129.5 L 175.5 129.5 " stroke="black" fill="none" stroke-width="6.0" stroke-linecap="round" stroke-linejoin="round" />
<path d="M 148.5 154.5 L 149.5 154.0 L 150.0 154.0 L 150.0 154.0 L 150.5 156.0 L 150.5 162.0 L 150.5 170.5 L 151.0 176.5 L 151.0 178.0 L 151.5 177.0 " stroke="black" fill="none" stroke-width="6.0" stroke-linecap="round" stroke-linejoin="round" />
<path d="M 152.5 151.5 L 151.0 151.5 L 150.5 151.5 L 150.0 151.5 L 151.5 151.5 L 155.0 151.5 L 159.5 151.5 L 165.0 151.0 L 171.0 149.5 L 176.0 149.0 L 179.5 149.0 L 180.0 149.0 L 180.5 149.5 L 180.0 149.5 L 179.5 150.0 L 179.5 151.0 L 179.5 152.0 L 179.0 154.0 L 179.0 157.5 L 178.0 162.5 L 177.5 168.0 L 177.0 172.5 L 177.0 175.5 L 177.0 176.0 L 177.0 176.5 " stroke="black" fill="none" stroke-width="6.0" stroke-linecap="round" stroke-linejoin="round" />
<path d="M 156.5 179.0 L 155.0 179.5 L 154.0 179.5 L 155.0 179.5 L 158.0 179.0 L 162.0 179.0 L 166.5 179.0 L 172.5 179.0 L 177.5 178.5 " stroke="black" fill="none" stroke-width="6.0" stroke-linecap="round" stroke-linejoin="round" />
</svg>