<svg xmlns="http://www.w3.org/2000/svg" width="300" height="300" viewBox="0 0 300 300">
<path d="M 124.5 122.5 L 124.5 121.5 L 124.5 121.0 L 125.5 120.0 L 129.0 118.0 L 135.5 115.0 L 142.5 111.5 L 147.5 108.5 L 149.0 107.5 L 149.0 107.0 L 148.0 108.5 L 148.0 109.0 " stroke="black" fill="none" stroke-width="6.0" stroke-linecap="round" stroke-linejoin="round" />
<path d="M 125.0 135.0 L 124.0 135.5 L 123.0 136.0 L 123.0 136.0 L 126.0 136.0 L 130.5 135.5 L 135.5 134.5 L 141.0 133.5 L 145.0 132.0 L 147.0 131.0 " stroke="black" fill="none" stroke-width="6.0" stroke-linecap="round" stroke-linejoin="round" />
<path d="M 137.5 118.0 L 137.5 118.0 L 137.5 118.0 L 137.5 118.0 L 137.5 120.0 L 137.5 127.5 L 136.5 142.5 L 135.5 158.5 L 134.5 170.5 L 134.5 176.0 L 134.5 178.5 L 134.0 178.5 L 133.0 176.0 " stroke="black" fill="none" stroke-width="6.0" stroke-linecap="round" stroke-linejoin="round" />
<path d="M 132.5 145.0 L 132.5 145.0 L 132.5 144.0 L 132.5 144.0 L 132.5 144.0 L 132.5 144.0 L 132.5 144.0 L 132.5 145.0 L 132.0 147.0 L 130.5 150.0 L 128.5 155.5 L 126.0 161.0 L 124.0 165.0 L 123.5 166.0 L 124.5 164.5 " stroke="black" fill="none" stroke-width="6.0" stroke-linecap="round" stroke-linejoin="round" />
<path d="M 142.0 144.0 L 141.5 143.5 L 140.5 143.0 L 140.0 143.0 L 140.0 143.0 L 141.5 144.0 L 143.5 146.0 L 145.5 147.5 L 146.5 148.0 " stroke="black" fill="none" stroke-width="6.0" stroke-linecap="round" stroke-linejoin="round" />
<path d="M 170.5 116.5 L 170.5 116.5 L 170.5 115.5 L 170.5 115.5 L 170.5 115.5 L 170.5 117.5 L 170.0 124.0 L 167.5 137.0 L 162.5 154.0 L 158.0 165.5 L 156.0 170.5 L 155.0 171.0 L 155.0 170.5 L 155.0 169.0 " stroke="black" fill="none" stroke-width="6.0" stroke-linecap="round" stroke-linejoin="round" />
<path d="M 156.5 132.5 L 156.5 133.0 L 156.5 133.5 L 156.5 134.0 L 158.0 134.5 L 160.5 135.0 L 162.5 135.0 " stroke="black" fill="none" stroke-width="6.0" stroke-linecap="round" stroke-linejoin="round" />
<path d="M 182.0 126.0 L 182.0 126.0 L 182.5 126.5 L 182.5 126.5 L 183.0 126.5 L 183.0 127.5 L 182.0 130.0 L 180.5 133.0 L 180.0 133.5 " stroke="black" fill="none" stroke-width="6.0" stroke-linecap="round" stroke-linejoin="round" />
<path d="M 167.0 150.0 L 166.5 150.0 L 166.0 150.0 L 165.5 150.0 L 165.5 150.0 L 167.5 151.5 L 171.0 155.5 L 175.5 161.0 L 179.5 166.0 L 182.0 168.0 L 183.5 168.5 L 185.0 168.0 " stroke="black" fill="none" stroke-width="6.0" stroke-linecap="round" stroke-linejoin="round" />
</svg>