<svg xmlns="http://www.w3.org/2000/svg" width="300" height="300" viewBox="0 0 300 300">
<path d="M 141.0 109.0 L 141.0 110.5 L 141.5 111.5 L 143.5 112.0 L 147.0 113.0 L 151.0 114.5 L 153.5 115.5 L 154.0 116.0 " stroke="black" fill="none" stroke-width="6.0" stroke-linecap="round" stroke-linejoin="round" />
<path d="M 132.0 125.0 L 130.5 125.0 L 127.5 125.0 L 126.0 125.5 L 124.5 127.0 L 124.0 128.0 L 124.0 128.5 L 124.5 128.5 L 127.5 128.5 L 133.5 127.5 L 142.0 126.0 L 152.0 125.0 L 161.0 124.0 L 168.5 124.0 L 173.0 124.0 L 174.0 124.0 L 174.0 124.5 L 173.5 124.5 L 172.0 124.5 L 171.0 124.5 " stroke="black" fill="none" stroke-width="6.0" stroke-linecap="round" stroke-linejoin="round" />
<path d="M 137.5 131.5 L 138.0 131.0 L 139.0 130.0 L 139.5 129.5 L 139.5 129.5 L 139.5 131.0 L 139.0 136.0 L 137.5 154.0 L 138.5 161.0 L 141.0 164.5 L 145.5 165.5 L 151.0 165.5 L 157.5 164.0 L 163.0 162.0 L 166.5 160.5 L 168.0 159.0 L 168.5 158.0 L 168.5 158.0 " stroke="black" fill="none" stroke-width="6.0" stroke-linecap="round" stroke-linejoin="round" />
<path d="M 129.5 174.0 L 130.0 173.0 L 130.5 173.0 L 130.5 173.0 L 129.5 174.0 L 127.5 178.0 L 126.0 182.0 L 125.0 185.5 L 125.0 186.0 " stroke="black" fill="none" stroke-width="6.0" stroke-linecap="round" stroke-linejoin="round" />
<path d="M 142.5 177.5 L 142.5 177.5 L 142.0 177.5 L 142.0 177.5 L 141.5 178.0 L 141.5 179.5 L 141.5 183.0 L 143.0 188.0 L 147.5 193.0 L 152.5 194.5 L 157.0 194.5 L 159.0 194.0 L 159.0 192.5 L 159.0 191.5 " stroke="black" fill="none" stroke-width="6.0" stroke-linecap="round" stroke-linejoin="round" />
<path d="M 153.5 177.0 L 153.5 177.0 L 154.5 177.5 L 155.5 177.5 L 157.5 178.0 L 160.0 179.0 L 163.5 180.0 L 164.5 180.5 " stroke="black" fill="none" stroke-width="6.0" stroke-linecap="round" stroke-linejoin="round" />
<path d="M 175.0 175.0 L 175.5 175.0 L 176.5 175.5 L 177.5 176.5 L 179.0 178.0 L 181.5 179.5 L 183.0 181.0 L 183.5 182.0 " stroke="black" fill="none" stroke-width="6.0" stroke-linecap="round" stroke-linejoin="round" />
</svg>