<svg xmlns="http://www.w3.org/2000/svg" width="300" height="300" viewBox="0 0 300 300">
<path d="M 133.0 110.5 L 133.0 110.5 L 134.0 110.5 L 134.5 110.5 L 135.0 111.5 L 135.5 115.5 L 136.0 124.0 L 136.0 136.5 L 134.5 153.5 L 133.0 169.0 L 133.0 178.0 L 133.0 182.5 L 133.0 183.0 L 133.0 182.0 L 132.0 179.5 " stroke="black" fill="none" stroke-width="6.0" stroke-linecap="round" stroke-linejoin="round" />
<path d="M 135.5 110.5 L 135.5 111.0 L 135.5 111.5 L 135.0 112.0 L 135.0 112.0 L 136.5 112.5 L 140.5 113.0 L 148.0 113.5 L 157.5 111.5 L 167.0 110.0 L 174.0 109.5 L 177.0 109.5 L 178.0 110.5 L 177.5 110.5 L 177.5 110.5 L 177.0 110.5 L 177.0 110.5 L 177.0 110.5 L 177.0 111.5 L 177.0 114.0 L 177.0 118.0 L 176.5 124.5 L 175.5 134.5 L 174.5 145.5 L 173.5 157.0 L 173.5 168.0 L 175.0 175.5 L 178.0 180.0 L 180.5 182.5 L 182.0 183.0 L 183.0 182.5 L 184.5 181.0 L 186.0 178.0 L 186.0 177.0 " stroke="black" fill="none" stroke-width="6.0" stroke-linecap="round" stroke-linejoin="round" />
<path d="M 145.0 125.5 L 145.0 125.5 L 144.5 125.5 L 144.0 125.5 L 146.0 125.5 L 150.5 125.5 L 155.0 124.5 L 159.0 123.5 L 161.5 122.0 L 162.5 121.5 L 162.5 121.5 " stroke="black" fill="none" stroke-width="6.0" stroke-linecap="round" stroke-linejoin="round" />
<path d="M 148.0 137.5 L 148.0 137.5 L 147.0 137.5 L 146.5 137.5 L 146.5 138.0 L 146.5 139.5 L 146.5 143.5 L 147.0 147.5 L 147.5 150.0 L 148.0 150.5 " stroke="black" fill="none" stroke-width="6.0" stroke-linecap="round" stroke-linejoin="round" />
<path d="M 146.5 141.0 L 145.5 140.0 L 145.0 139.5 L 145.0 138.5 L 147.5 137.5 L 150.5 136.5 L 153.5 135.5 L 156.5 135.5 L 158.5 135.5 L 160.5 135.5 L 161.0 136.0 L 161.5 137.0 L 161.5 138.5 L 160.5 141.5 L 159.5 144.5 L 158.5 147.5 L 157.5 149.5 L 156.5 150.5 " stroke="black" fill="none" stroke-width="6.0" stroke-linecap="round" stroke-linejoin="round" />
<path d="M 150.0 151.5 L 149.5 151.5 L 148.0 152.0 L 147.5 152.0 L 148.5 152.0 L 151.0 152.0 L 153.5 152.0 L 156.0 151.0 L 157.0 150.5 " stroke="black" fill="none" stroke-width="6.0" stroke-linecap="round" stroke-linejoin="round" />
<path d="M 153.0 129.0 L 153.5 129.0 L 154.0 129.5 L 154.0 130.5 L 154.0 133.5 L 153.0 140.5 L 152.0 151.5 L 151.0 161.0 L 150.5 166.5 L 150.5 168.0 L 150.5 168.0 " stroke="black" fill="none" stroke-width="6.0" stroke-linecap="round" stroke-linejoin="round" />
<path d="M 141.5 170.5 L 141.0 171.5 L 140.5 172.5 L 140.5 172.5 L 141.5 172.5 L 145.0 172.5 L 149.5 171.5 L 154.0 170.5 L 157.5 169.0 L 159.0 168.5 " stroke="black" fill="none" stroke-width="6.0" stroke-linecap="round" stroke-linejoin="round" />
<path d="M 161.5 160.0 L 161.5 160.0 L 161.0 160.0 L 161.0 160.5 L 161.0 162.0 L 162.0 165.5 L 163.5 170.0 L 165.0 173.0 L 165.5 174.5 " stroke="black" fill="none" stroke-width="6.0" stroke-linecap="round" stroke-linejoin="round" />
</svg>