<svg xmlns="http://www.w3.org/2000/svg" width="300" height="300" viewBox="0 0 300 300">
<path d="M 149.0 147.5 L 149.0 146.5 L 149.0 145.5 L 149.0 145.0 L 149.0 144.5 L 149.0 144.0 L 148.5 144.0 L 148.0 146.0 L 147.0 149.0 L 147.0 151.5 L 147.0 153.0 L 148.0 153.0 L 149.5 152.0 L 150.0 149.5 L 150.5 147.5 L 150.5 146.5 L 150.5 146.0 L 150.0 146.0 L 150.0 146.0 L 150.0 146.0 L 150.0 146.0 L 149.5 146.5 L 149.5 146.5 L 149.5 146.5 L 149.5 147.0 L 150.0 148.0 L 150.0 149.0 L 150.5 151.0 L 150.5 155.0 L 149.5 159.5 L 148.0 163.0 L 146.0 165.5 L 144.5 166.5 L 144.5 166.5 " stroke="black" fill="none" stroke-width="6.0" stroke-linecap="round" stroke-linejoin="round" />
</svg>