<svg xmlns="http://www.w3.org/2000/svg" width="300" height="300" viewBox="0 0 300 300">
<path d="M 148.5 140.0 L 148.5 140.0 L 148.5 139.0 L 148.0 138.5 L 147.5 138.0 L 147.0 137.5 L 146.5 137.0 L 145.5 137.5 L 144.5 139.5 L 144.0 142.0 L 144.0 144.5 L 145.5 146.0 L 147.5 146.0 L 149.5 145.0 L 150.0 142.5 L 150.5 140.0 L 150.5 138.5 L 150.0 138.0 L 149.5 138.0 L 149.0 138.0 L 148.5 138.5 L 148.5 139.0 L 148.5 139.5 L 148.5 139.5 L 148.5 140.0 L 148.5 140.0 L 148.5 140.0 L 149.0 140.0 L 149.0 140.5 L 149.0 140.5 L 149.0 140.5 L 149.5 141.0 L 150.0 141.0 L 150.0 141.5 L 151.0 143.0 L 151.5 144.5 L 152.0 146.5 L 152.0 149.0 L 152.0 151.0 L 151.5 153.0 L 150.0 154.5 L 148.5 155.5 L 146.5 156.5 L 145.0 157.0 L 145.0 157.5 " stroke="black" fill="none" stroke-width="7.0" stroke-linecap="round" stroke-linejoin="round" />
</svg>