<svg xmlns="http://www.w3.org/2000/svg" width="300" height="300" viewBox="0 0 300 300">
<path d="M 149.0 145.5 L 149.0 145.0 L 149.0 143.5 L 149.0 143.0 L 149.0 142.5 L 149.0 142.5 L 148.5 143.0 L 148.0 145.0 L 148.0 147.0 L 148.0 149.0 L 148.5 149.5 L 150.5 149.5 L 152.0 148.0 L 152.5 146.0 L 153.0 144.5 L 153.0 143.5 L 152.0 143.0 L 150.5 143.5 L 150.0 145.0 L 149.5 146.0 L 149.5 146.5 L 150.0 146.5 L 151.0 146.5 L 152.0 146.0 L 153.0 145.0 L 154.0 144.5 L 154.5 144.0 L 154.5 144.0 L 155.0 144.0 L 155.0 146.0 L 155.0 148.0 L 154.0 151.5 L 153.0 155.0 L 151.5 159.0 L 150.0 162.5 L 148.0 164.0 L 147.0 164.0 L 146.5 164.0 L 146.5 163.5 " stroke="black" fill="none" stroke-width="6.0" stroke-linecap="round" stroke-linejoin="round" />
</svg>