<svg xmlns="http://www.w3.org/2000/svg" width="300" height="300" viewBox="0 0 300 300">
<path d="M 148.5 147.5 L 148.5 147.5 L 148.5 147.0 L 148.5 146.5 L 148.5 146.5 L 148.0 146.5 L 147.5 146.5 L 146.5 148.0 L 146.5 149.5 L 146.5 151.0 L 147.5 151.0 L 149.5 150.5 L 150.5 148.5 L 151.5 146.5 L 151.5 145.0 L 151.5 144.0 L 150.5 144.0 L 149.5 144.5 L 149.0 145.5 L 149.0 147.0 L 149.0 148.0 L 150.0 148.5 L 151.5 148.5 L 152.5 148.5 L 153.5 147.5 L 153.5 146.5 L 153.5 145.5 L 153.0 145.5 L 152.0 145.0 L 151.0 145.0 L 150.5 145.0 L 150.5 145.0 L 150.5 145.0 L 150.5 145.0 L 151.0 145.0 L 151.5 145.0 L 152.0 145.0 L 152.0 145.0 L 152.5 145.0 L 153.0 145.5 L 153.0 145.5 L 153.5 146.5 L 154.0 147.5 L 154.0 148.5 L 154.0 150.0 L 154.0 151.0 L 154.0 152.5 L 154.0 154.0 L 153.5 156.0 L 153.0 157.5 L 152.0 159.0 L 151.0 160.5 L 150.5 161.5 L 149.5 162.5 L 149.0 163.0 L 149.0 163.0 L 149.0 163.0 " stroke="black" fill="none" stroke-width="6.0" stroke-linecap="round" stroke-linejoin="round" />
</svg>