<svg xmlns="http://www.w3.org/2000/svg" width="300" height="300" viewBox="0 0 300 300">
<path d="M 154.0 146.5 L 154.0 146.5 L 154.5 145.5 L 154.5 144.5 L 154.0 144.0 L 153.0 143.5 L 151.5 144.0 L 150.5 146.0 L 150.0 148.5 L 150.0 150.0 L 150.5 150.5 L 152.5 150.5 L 154.0 148.5 L 155.0 146.5 L 155.5 145.0 L 155.5 144.5 L 155.0 144.0 L 154.5 144.0 L 154.5 144.5 L 154.5 145.0 L 154.5 145.5 L 154.5 146.0 L 155.0 146.5 L 155.0 146.5 L 155.5 146.5 L 155.5 147.0 L 156.0 147.5 L 156.5 148.5 L 156.5 150.5 L 156.5 154.0 L 156.5 158.5 L 155.0 162.5 L 152.5 165.5 L 150.5 166.5 L 150.0 167.0 L 149.5 167.0 " stroke="black" fill="none" stroke-width="6.0" stroke-linecap="round" stroke-linejoin="round" />
</svg>