<svg xmlns="http://www.w3.org/2000/svg" width="300" height="300" viewBox="0 0 300 300">
<path d="M 149.0 147.0 L 149.0 146.5 L 148.5 145.0 L 148.0 144.5 L 148.0 144.0 L 147.5 144.0 L 147.5 146.5 L 147.5 149.0 L 147.5 150.5 L 148.5 151.0 L 149.5 151.0 L 151.0 149.0 L 151.0 146.5 L 151.0 144.5 L 150.5 144.0 L 149.5 144.5 L 149.0 146.0 L 148.5 147.5 L 148.5 148.0 L 149.5 148.5 L 151.0 148.5 L 152.0 147.0 L 152.5 145.5 L 153.0 144.5 L 153.0 143.5 L 153.0 143.5 L 152.5 144.0 L 152.0 145.0 L 152.0 145.5 L 152.0 146.5 L 152.0 147.5 L 152.5 149.0 L 153.0 151.0 L 153.0 154.0 L 153.0 157.5 L 153.0 161.5 L 152.0 164.0 L 150.5 165.5 L 149.5 166.0 L 148.5 166.0 L 148.5 166.0 " stroke="black" fill="none" stroke-width="6.0" stroke-linecap="round" stroke-linejoin="round" />
</svg>