<svg xmlns="http://www.w3.org/2000/svg" width="300" height="300" viewBox="0 0 300 300">
<path d="M 158.0 143.0 L 158.0 143.0 L 158.0 143.0 L 158.0 143.0 L 158.0 143.0 L 158.0 143.0 L 157.5 143.5 L 156.5 143.5 L 154.5 144.0 L 152.5 145.5 L 151.0 147.5 L 150.0 151.0 L 150.0 153.5 L 152.0 155.0 L 154.0 155.5 L 155.5 155.0 L 156.5 153.0 L 157.5 150.5 L 157.5 148.5 L 157.0 147.0 L 156.5 146.5 L 155.5 146.0 L 155.0 146.0 L 154.5 146.0 L 154.0 146.0 L 154.0 146.5 L 154.0 146.5 L 154.0 146.5 L 154.5 147.0 L 154.5 147.0 L 155.0 147.0 L 155.5 147.0 L 155.5 147.0 L 156.0 147.0 L 156.0 147.0 L 156.5 147.5 L 156.5 147.5 L 156.5 148.0 L 157.0 148.5 L 157.0 149.5 L 157.5 151.5 L 157.5 154.0 L 157.5 157.0 L 157.5 160.5 L 157.5 163.5 L 157.0 166.5 L 156.0 169.0 L 155.0 171.0 L 154.0 172.0 L 152.5 173.0 L 151.5 173.5 L 150.5 174.0 L 150.0 174.5 L 150.0 174.5 L 150.0 174.5 " stroke="black" fill="none" stroke-width="6.0" stroke-linecap="round" stroke-linejoin="round" />
</svg>