<svg xmlns="http://www.w3.org/2000/svg" width="300" height="300" viewBox="0 0 300 300">
<path d="M 150.5 146.0 L 150.5 145.0 L 150.5 144.0 L 150.0 143.5 L 149.0 143.5 L 148.5 144.5 L 148.0 146.5 L 148.0 148.0 L 149.0 149.5 L 150.0 150.0 L 151.0 149.5 L 152.0 147.5 L 152.5 145.5 L 152.5 143.5 L 152.0 143.0 L 151.0 143.0 L 150.0 145.0 L 149.5 146.5 L 149.5 148.0 L 150.5 148.5 L 152.5 148.0 L 153.5 146.5 L 154.5 145.0 L 154.5 143.5 L 154.5 143.0 L 153.5 142.5 L 152.5 143.0 L 152.0 143.5 L 151.5 144.0 L 151.5 144.5 L 151.5 144.5 L 152.0 144.5 L 152.5 144.5 L 153.5 144.5 L 154.5 144.5 L 155.5 145.0 L 156.0 146.0 L 156.5 147.5 L 157.0 149.5 L 156.5 152.0 L 155.5 155.0 L 153.5 157.5 L 151.5 160.0 L 150.0 161.0 L 148.5 161.5 L 148.0 162.0 L 148.0 162.0 " stroke="black" fill="none" stroke-width="6.0" stroke-linecap="round" stroke-linejoin="round" />
</svg>