<svg xmlns="http://www.w3.org/2000/svg" width="300" height="300" viewBox="0 0 300 300">
<path d="M 146.5 148.0 L 147.0 148.0 L 147.5 147.5 L 148.0 146.5 L 148.0 146.0 L 148.5 146.0 L 148.5 145.5 L 148.0 146.0 L 147.5 148.0 L 147.0 150.0 L 147.0 151.5 L 147.5 152.5 L 148.5 152.5 L 149.5 151.0 L 150.0 149.0 L 150.0 147.5 L 150.0 146.5 L 150.0 146.0 L 149.5 146.0 L 149.0 146.5 L 148.5 147.5 L 148.5 148.0 L 148.5 148.0 L 149.0 148.0 L 149.0 148.0 L 149.5 147.5 L 149.5 147.0 L 150.0 147.0 L 150.0 146.5 L 150.0 146.5 L 150.5 146.5 L 150.5 147.0 L 151.0 149.0 L 151.5 151.5 L 151.5 155.0 L 151.5 158.5 L 150.5 162.0 L 148.5 164.5 L 147.0 165.5 L 145.5 166.0 L 145.0 166.5 " stroke="black" fill="none" stroke-width="6.0" stroke-linecap="round" stroke-linejoin="round" />
</svg>