<svg xmlns="http://www.w3.org/2000/svg" width="300" height="300" viewBox="0 0 300 300">
<path d="M 150.0 144.0 L 149.5 143.0 L 149.0 142.5 L 149.0 142.0 L 149.0 142.0 L 148.5 143.0 L 148.5 144.5 L 148.5 145.5 L 148.5 146.5 L 149.0 146.5 L 150.0 146.0 L 150.5 145.0 L 151.0 143.5 L 151.0 143.0 L 151.0 142.5 L 151.0 142.5 L 151.0 142.5 L 151.0 143.0 L 151.0 143.5 L 151.0 143.5 L 151.0 143.5 L 151.5 143.5 L 152.0 143.0 L 152.0 143.0 L 152.5 142.5 L 152.5 142.5 L 153.0 143.5 L 153.0 145.0 L 153.0 147.5 L 153.0 150.5 L 153.0 153.0 L 152.0 155.0 L 151.5 156.5 L 150.0 158.0 L 149.0 159.0 L 148.0 159.5 L 148.0 159.5 L 148.0 160.0 " stroke="black" fill="none" stroke-width="6.0" stroke-linecap="round" stroke-linejoin="round" />
</svg>