<svg xmlns="http://www.w3.org/2000/svg" width="300" height="300" viewBox="0 0 300 300">
<path d="M 149.5 148.0 L 149.5 147.0 L 149.5 146.5 L 149.5 145.5 L 150.0 144.5 L 150.0 143.5 L 150.0 143.0 L 150.0 143.0 L 150.0 143.5 L 150.0 145.5 L 150.5 147.5 L 151.5 148.5 L 152.5 148.5 L 153.5 147.0 L 153.5 145.0 L 152.5 143.5 L 151.0 143.0 L 149.0 143.5 L 148.0 146.0 L 147.5 148.0 L 148.0 149.0 L 149.5 149.5 L 151.0 148.5 L 152.5 147.0 L 153.0 145.0 L 153.0 144.0 L 152.0 143.5 L 151.0 143.5 L 150.0 145.0 L 149.5 145.5 L 149.0 146.0 L 149.0 146.0 L 149.5 146.0 L 150.5 145.0 L 151.0 144.5 L 151.5 144.5 L 152.0 144.0 L 152.0 144.0 L 152.5 145.5 L 153.0 147.5 L 153.5 150.0 L 153.5 153.5 L 153.0 157.0 L 151.5 160.5 L 150.0 163.0 L 148.0 165.0 L 146.5 166.0 L 146.0 166.0 L 146.0 166.0 L 146.0 166.0 " stroke="black" fill="none" stroke-width="6.0" stroke-linecap="round" stroke-linejoin="round" />
</svg>