<svg xmlns="http://www.w3.org/2000/svg" width="300" height="300" viewBox="0 0 300 300">
<path d="M 152.0 139.5 L 154.5 139.0 L 156.5 137.5 L 156.5 137.0 " stroke="black" fill="none" stroke-width="6.0" stroke-linecap="round" stroke-linejoin="round" />
<path d="M 154.5 137.0 L 155.0 137.5 L 155.5 138.0 L 155.5 138.0 L 156.0 138.0 L 156.5 136.5 L 156.5 135.0 L 156.5 133.5 L 156.5 133.0 L 155.0 132.5 L 153.5 134.0 L 152.5 137.0 L 152.0 139.5 L 152.0 141.0 L 153.0 141.0 L 154.0 141.0 L 155.5 139.5 L 156.0 138.0 L 156.5 136.5 L 156.5 136.0 L 156.0 135.5 L 155.5 136.0 L 155.0 137.5 L 155.0 139.0 L 155.5 139.5 L 157.0 139.5 L 158.5 138.5 L 159.0 137.5 L 159.0 136.0 L 158.5 135.5 L 157.5 135.5 L 156.5 135.5 L 156.0 136.5 L 155.5 137.0 L 155.5 137.0 L 155.5 137.0 L 156.0 137.0 L 157.0 136.5 L 157.5 136.5 L 158.0 136.0 L 158.5 136.0 L 158.5 136.0 L 159.0 136.5 L 159.5 138.0 L 159.5 140.0 L 159.5 143.0 L 159.5 145.5 L 158.5 148.5 L 157.5 151.5 L 155.5 154.0 L 154.0 155.5 L 153.0 156.0 L 152.0 156.0 L 151.5 156.0 " stroke="black" fill="none" stroke-width="6.0" stroke-linecap="round" stroke-linejoin="round" />
</svg>