<svg xmlns="http://www.w3.org/2000/svg" width="300" height="300" viewBox="0 0 300 300">
<path d="M 151.0 146.5 L 151.0 146.5 L 151.0 145.5 L 151.0 145.0 L 151.0 144.5 L 151.0 144.0 L 150.5 144.0 L 150.0 144.0 L 149.5 145.0 L 149.0 146.5 L 149.0 148.0 L 149.5 149.0 L 150.5 149.0 L 152.0 148.5 L 153.0 147.5 L 153.5 146.0 L 153.5 145.0 L 153.0 144.5 L 152.0 144.5 L 150.5 146.0 L 150.0 148.0 L 150.0 150.0 L 150.0 150.5 L 151.0 151.0 L 152.0 150.0 L 152.5 148.0 L 152.5 147.0 L 152.5 146.0 L 152.0 145.5 L 151.0 145.5 L 150.5 145.5 L 150.5 146.0 L 150.5 146.5 L 151.0 146.5 L 152.0 146.5 L 152.5 147.0 " stroke="black" fill="none" stroke-width="6.0" stroke-linecap="round" stroke-linejoin="round" />
<path d="M 154.5 145.0 L 154.5 144.5 L 154.5 144.5 L 154.5 144.0 L 154.5 144.0 L 154.5 144.0 L 154.5 144.0 L 155.0 145.0 L 155.0 146.5 L 155.0 148.5 L 155.0 150.5 L 155.0 153.0 L 154.5 156.0 L 154.0 158.0 L 153.0 160.0 L 152.5 161.5 L 151.5 163.0 L 150.5 164.0 L 150.0 165.0 L 150.0 165.5 L 150.0 166.0 " stroke="black" fill="none" stroke-width="6.0" stroke-linecap="round" stroke-linejoin="round" />
</svg>