<svg xmlns="http://www.w3.org/2000/svg" width="300" height="300" viewBox="0 0 300 300">
<path d="M 150.5 146.5 L 150.5 146.5 L 150.5 146.0 L 151.0 145.5 L 151.0 145.0 L 150.0 144.5 L 148.5 144.0 L 146.5 144.0 L 144.5 145.0 L 144.0 147.0 L 144.0 148.5 L 145.5 149.5 L 148.0 149.0 L 150.0 147.5 L 151.0 145.0 L 151.5 143.0 L 151.0 142.0 L 150.0 142.0 L 148.5 143.0 L 147.5 144.5 L 147.5 146.5 L 148.0 147.5 L 149.5 148.5 L 151.0 148.5 L 152.0 148.5 L 152.5 147.5 L 152.5 146.5 L 152.5 145.5 L 151.5 145.0 L 151.0 145.0 L 150.5 145.0 L 150.0 145.0 L 150.0 145.0 L 150.0 145.0 L 150.5 145.0 L 151.0 145.0 L 151.5 145.0 L 152.5 145.0 L 153.0 145.0 L 153.5 145.0 L 154.5 145.5 L 155.0 146.0 L 155.0 147.5 L 155.0 149.0 L 155.0 152.0 L 154.0 155.5 L 152.0 159.5 L 150.5 163.0 L 148.5 166.5 L 147.0 168.5 L 146.0 169.5 L 146.0 170.0 L 146.0 170.0 " stroke="black" fill="none" stroke-width="6.0" stroke-linecap="round" stroke-linejoin="round" />
</svg>