<svg xmlns="http://www.w3.org/2000/svg" width="300" height="300" viewBox="0 0 300 300">
<path d="M 149.0 145.5 L 149.0 145.0 L 149.0 143.0 L 149.0 141.5 L 149.0 140.0 L 149.0 139.0 L 148.0 139.0 L 146.5 140.0 L 145.0 143.0 L 144.0 146.0 L 144.0 148.0 L 145.5 148.5 L 148.5 147.0 L 151.0 144.0 L 152.0 141.0 L 152.0 139.5 L 152.0 139.0 L 151.5 139.0 L 151.0 139.5 L 150.5 140.5 L 150.5 142.0 L 150.5 143.0 L 151.0 144.0 L 151.5 145.0 L 152.0 146.5 L 152.5 148.0 L 153.0 150.0 L 153.5 152.5 L 153.5 155.0 L 153.0 157.5 L 151.5 159.0 L 150.0 160.0 L 148.0 160.0 L 145.5 160.0 L 144.0 160.5 " stroke="black" fill="none" stroke-width="6.0" stroke-linecap="round" stroke-linejoin="round" />
</svg>