<svg xmlns="http://www.w3.org/2000/svg" width="300" height="300" viewBox="0 0 300 300">
<path d="M 149.0 145.5 L 149.0 145.0 L 149.0 144.5 L 149.5 144.0 L 149.5 143.5 L 149.5 142.5 L 149.0 142.0 L 148.0 141.5 L 147.5 141.5 L 146.5 142.0 L 146.0 143.5 L 146.0 145.0 L 146.5 146.0 L 147.0 146.5 L 148.0 147.0 L 149.0 146.5 L 149.5 145.0 L 149.5 143.5 L 149.5 142.5 L 149.0 141.5 L 148.5 141.5 L 148.0 142.0 L 147.5 143.5 L 147.5 145.0 L 148.0 146.0 L 149.0 146.5 L 150.0 146.5 L 151.0 146.5 L 151.5 145.0 L 152.0 144.0 L 152.0 143.0 L 151.0 142.5 L 150.0 142.0 L 148.5 142.5 L 148.0 143.0 L 147.5 144.5 L 147.5 146.0 L 147.5 147.0 L 148.5 148.0 L 149.5 148.0 L 150.5 148.0 L 151.5 147.0 L 151.5 145.5 L 151.5 144.0 L 151.0 143.0 L 150.5 142.5 L 149.5 142.5 L 149.5 142.5 L 149.0 143.5 L 149.0 144.5 L 149.0 145.0 L 149.0 145.0 L 149.0 145.5 L 149.5 145.5 L 149.5 145.5 L 150.0 145.0 L 150.0 144.5 L 150.5 144.5 L 150.5 144.0 L 150.5 144.0 L 151.0 144.0 L 151.5 144.0 L 152.0 144.5 L 152.5 145.5 L 153.0 147.5 L 153.0 149.0 L 153.5 151.5 L 153.5 154.5 L 153.0 156.5 L 152.5 158.0 L 151.5 159.0 L 151.0 160.0 L 150.5 160.0 L 149.5 160.5 L 149.0 161.0 L 148.5 161.5 L 148.0 162.0 L 147.5 162.5 L 147.5 162.5 L 147.5 162.5 L 147.5 162.5 L 147.5 163.0 " stroke="black" fill="none" stroke-width="6.0" stroke-linecap="round" stroke-linejoin="round" />
</svg>