<svg xmlns="http://www.w3.org/2000/svg" width="300" height="300" viewBox="0 0 300 300">
<path d="M 151.0 144.0 L 151.0 144.0 L 151.0 143.5 L 150.0 143.5 L 148.0 143.5 L 146.5 145.0 L 145.5 146.5 L 145.0 148.0 L 146.0 149.5 L 147.5 149.5 L 149.0 149.5 L 150.5 148.0 L 151.0 146.0 L 151.0 144.5 L 150.5 143.0 L 149.0 142.5 L 148.0 143.0 L 147.5 144.5 L 147.0 145.5 L 147.5 146.5 L 148.5 147.0 L 150.0 147.0 L 151.0 145.5 L 152.0 144.5 L 152.5 143.5 L 152.5 143.0 L 153.0 143.0 L 153.0 143.0 L 153.0 143.5 L 153.5 144.5 L 153.5 146.5 L 153.5 149.5 L 153.5 152.5 L 153.0 156.5 L 152.0 159.5 L 150.0 162.0 L 148.0 164.5 L 146.5 165.5 L 145.5 166.0 L 144.5 166.0 L 144.5 166.5 " stroke="black" fill="none" stroke-width="6.0" stroke-linecap="round" stroke-linejoin="round" />
</svg>