<svg xmlns="http://www.w3.org/2000/svg" width="300" height="300" viewBox="0 0 300 300">
<path d="M 150.0 148.0 L 150.0 148.0 L 150.0 147.0 L 150.0 147.0 L 150.0 146.5 L 150.0 146.0 L 150.0 146.0 L 150.0 146.0 L 149.5 146.0 L 148.5 147.5 L 148.5 148.5 L 148.5 150.0 L 148.5 150.5 L 150.0 151.0 L 150.5 151.0 L 151.0 150.5 L 152.0 148.5 L 152.0 147.5 L 152.0 146.5 L 152.0 146.0 L 151.5 146.0 L 151.0 146.0 L 151.0 146.5 L 151.0 148.0 L 151.0 148.5 L 151.0 149.0 L 152.0 149.0 L 152.5 149.0 L 153.0 148.0 L 153.5 147.5 L 153.5 147.0 L 153.5 146.5 L 153.5 146.5 L 153.5 146.0 L 153.0 146.0 L 153.0 146.0 L 153.0 146.0 L 153.0 146.0 L 153.0 146.0 L 153.0 146.0 L 153.0 146.0 L 153.0 146.5 L 153.5 147.0 L 153.5 148.0 L 154.0 149.0 L 154.0 150.5 L 154.5 152.0 L 154.5 153.5 L 154.5 154.0 L 154.5 156.0 L 154.0 157.5 L 153.0 158.5 L 152.5 159.0 L 151.5 160.0 L 150.5 161.5 L 150.0 162.0 L 149.5 162.5 L 148.5 163.5 L 148.0 164.0 L 148.0 164.5 L 148.0 164.5 " stroke="black" fill="none" stroke-width="7.0" stroke-linecap="round" stroke-linejoin="round" />
</svg>