<svg xmlns="http://www.w3.org/2000/svg" width="300" height="300" viewBox="0 0 300 300">
<path d="M 146.5 147.0 L 146.5 146.5 L 147.0 146.0 L 147.5 145.0 L 148.5 144.0 L 148.5 143.5 L 149.0 143.0 L 148.5 143.0 L 147.0 143.5 L 145.0 145.5 L 144.5 148.0 L 144.5 150.0 L 145.0 151.5 L 147.5 152.0 L 150.0 151.0 L 151.5 148.0 L 152.5 145.5 L 152.5 143.0 L 151.0 142.0 L 149.5 142.0 L 148.0 143.5 L 147.0 145.5 L 147.0 147.0 L 147.5 148.5 L 149.0 149.0 L 150.5 149.0 L 152.0 147.0 L 152.5 145.0 L 152.5 143.0 L 152.5 142.0 L 152.5 142.0 L 152.5 142.0 L 152.5 142.0 L 152.5 142.5 L 152.5 143.5 L 152.5 144.5 L 152.5 146.5 L 152.5 149.0 L 152.5 151.5 L 152.5 154.5 L 152.5 157.5 L 152.0 160.5 L 151.0 162.5 L 150.0 163.5 L 149.0 164.0 L 148.0 164.0 L 146.5 164.5 L 146.0 165.0 L 146.0 165.5 " stroke="black" fill="none" stroke-width="6.0" stroke-linecap="round" stroke-linejoin="round" />
</svg>