<svg xmlns="http://www.w3.org/2000/svg" width="300" height="300" viewBox="0 0 300 300">
<path d="M 146.0 103.5 L 146.0 103.5 L 145.0 103.5 L 144.5 103.5 L 145.5 104.5 L 148.0 107.5 L 151.0 110.5 L 152.5 113.0 L 153.5 113.5 " stroke="black" fill="none" stroke-width="7.0" stroke-linecap="round" stroke-linejoin="round" />
<path d="M 134.5 122.5 L 133.5 122.5 L 132.5 122.5 L 132.0 122.5 L 132.0 122.5 L 135.5 122.0 L 143.5 120.5 L 155.5 119.0 L 167.0 118.5 L 172.5 119.0 L 174.0 120.0 L 172.5 120.0 L 171.5 120.0 " stroke="black" fill="none" stroke-width="7.0" stroke-linecap="round" stroke-linejoin="round" />
<path d="M 142.5 134.0 L 142.0 133.5 L 141.5 133.5 L 141.0 133.5 L 141.0 133.5 L 141.5 136.0 L 143.0 139.5 L 144.5 143.0 L 146.0 144.0 " stroke="black" fill="none" stroke-width="7.0" stroke-linecap="round" stroke-linejoin="round" />
<path d="M 145.5 133.5 L 144.5 134.0 L 143.0 134.0 L 143.0 134.0 L 145.5 133.0 L 149.5 132.0 L 153.5 131.0 L 157.0 130.5 L 159.5 130.5 L 161.0 130.5 L 162.0 131.0 L 162.0 131.5 L 162.0 133.0 L 161.5 135.5 L 161.0 138.5 L 160.0 141.0 L 159.5 142.0 " stroke="black" fill="none" stroke-width="7.0" stroke-linecap="round" stroke-linejoin="round" />
<path d="M 149.5 147.0 L 148.0 147.0 L 147.5 146.5 L 148.5 146.5 L 151.5 146.0 L 155.5 145.5 L 158.5 145.5 L 159.0 145.5 " stroke="black" fill="none" stroke-width="7.0" stroke-linecap="round" stroke-linejoin="round" />
<path d="M 129.5 160.0 L 130.5 159.0 L 131.5 158.5 L 132.0 158.5 L 133.0 160.5 L 134.5 165.5 L 135.0 173.0 L 135.0 181.0 L 135.0 186.0 L 134.5 187.5 L 134.0 187.5 " stroke="black" fill="none" stroke-width="7.0" stroke-linecap="round" stroke-linejoin="round" />
<path d="M 137.5 156.5 L 137.0 156.5 L 136.5 156.5 L 136.5 157.0 L 136.5 157.0 L 138.0 157.0 L 142.0 156.5 L 148.5 156.0 L 157.5 155.5 L 167.0 155.0 L 173.0 155.0 L 176.0 155.0 L 176.0 155.0 L 176.0 155.0 L 175.5 155.0 L 175.0 155.0 L 175.0 155.0 L 175.0 155.5 L 175.0 156.0 L 175.0 157.5 L 175.0 159.5 L 175.0 163.5 L 175.0 169.0 L 175.5 175.5 L 175.5 181.0 L 175.5 186.0 L 175.0 190.0 L 174.0 193.5 L 173.0 194.5 L 171.0 194.5 L 169.0 192.0 L 167.5 189.0 " stroke="black" fill="none" stroke-width="7.0" stroke-linecap="round" stroke-linejoin="round" />
<path d="M 151.0 168.0 L 151.0 167.5 L 150.5 166.0 L 150.0 165.5 L 150.0 165.5 L 150.0 167.5 L 150.0 171.0 L 150.5 174.0 L 150.5 176.0 " stroke="black" fill="none" stroke-width="7.0" stroke-linecap="round" stroke-linejoin="round" />
<path d="M 148.5 169.0 L 148.0 169.0 L 147.5 169.0 L 147.5 169.0 L 149.5 168.5 L 152.5 168.0 L 155.5 168.0 L 158.5 167.5 L 160.5 167.5 L 161.5 168.0 L 162.0 169.0 L 162.0 171.0 L 161.0 173.0 L 160.0 175.5 L 159.0 177.0 " stroke="black" fill="none" stroke-width="7.0" stroke-linecap="round" stroke-linejoin="round" />
<path d="M 151.0 180.0 L 150.5 180.5 L 150.0 180.5 L 150.0 180.5 L 151.5 180.5 L 154.5 180.5 L 156.5 180.5 " stroke="black" fill="none" stroke-width="7.0" stroke-linecap="round" stroke-linejoin="round" />
</svg>