<svg xmlns="http://www.w3.org/2000/svg" width="300" height="300" viewBox="0 0 300 300">
<path d="M 119.5 116.5 L 118.0 117.5 L 117.5 117.5 L 117.5 117.5 L 121.0 117.5 L 126.5 117.0 L 133.0 116.5 L 137.5 116.5 L 139.5 116.5 L 140.0 116.5 " stroke="black" fill="none" stroke-width="6.0" stroke-linecap="round" stroke-linejoin="round" />
<path d="M 130.0 105.0 L 130.0 104.0 L 130.0 103.0 L 130.0 103.0 L 130.5 103.5 L 131.0 108.5 L 132.0 118.0 L 132.5 131.0 L 132.5 142.5 L 132.5 147.5 L 132.5 148.5 L 132.0 147.5 " stroke="black" fill="none" stroke-width="6.0" stroke-linecap="round" stroke-linejoin="round" />
<path d="M 128.5 119.0 L 129.0 119.0 L 129.5 119.0 L 130.0 119.0 L 129.0 121.5 L 126.0 128.0 L 121.5 136.0 L 118.0 141.0 L 116.0 142.5 L 116.5 141.5 L 117.0 141.0 " stroke="black" fill="none" stroke-width="6.0" stroke-linecap="round" stroke-linejoin="round" />
<path d="M 132.0 124.5 L 132.5 124.0 L 133.0 123.5 L 133.5 123.5 L 135.0 123.5 L 137.5 125.5 L 141.5 129.0 L 144.5 132.0 L 146.5 134.0 L 146.5 134.0 " stroke="black" fill="none" stroke-width="6.0" stroke-linecap="round" stroke-linejoin="round" />
<path d="M 152.0 109.5 L 152.5 109.5 L 153.0 109.5 L 153.5 109.5 L 153.5 110.5 L 154.0 114.5 L 154.5 123.5 L 154.5 133.0 L 154.5 141.0 L 154.5 144.5 L 154.5 144.5 L 153.5 142.0 " stroke="black" fill="none" stroke-width="6.0" stroke-linecap="round" stroke-linejoin="round" />
<path d="M 153.5 106.5 L 153.5 107.0 L 153.5 107.5 L 153.5 108.0 L 153.5 108.0 L 154.0 108.0 L 156.5 108.0 L 160.0 107.0 L 164.5 107.0 L 168.5 107.0 L 171.5 107.0 L 172.0 107.5 L 172.0 108.0 L 171.5 108.5 L 171.0 109.0 L 170.5 111.5 L 170.5 114.5 L 170.0 119.5 L 169.5 126.0 L 169.5 133.5 L 170.0 139.5 L 170.5 144.0 L 170.5 145.5 L 170.5 145.5 L 170.0 145.0 L 169.5 143.5 " stroke="black" fill="none" stroke-width="6.0" stroke-linecap="round" stroke-linejoin="round" />
<path d="M 157.0 123.0 L 157.0 123.0 L 155.5 123.0 L 155.5 123.0 L 156.5 122.5 L 160.0 122.0 L 164.0 121.0 L 167.0 120.0 L 169.0 120.5 L 169.5 121.0 " stroke="black" fill="none" stroke-width="6.0" stroke-linecap="round" stroke-linejoin="round" />
<path d="M 162.0 134.0 L 160.0 134.5 L 159.5 134.5 L 159.5 134.5 L 161.5 134.0 L 164.0 133.5 L 167.0 133.5 L 169.5 133.5 L 170.5 133.5 " stroke="black" fill="none" stroke-width="6.0" stroke-linecap="round" stroke-linejoin="round" />
<path d="M 156.0 149.5 L 156.0 149.5 L 156.0 149.5 L 155.5 150.0 L 155.5 150.0 L 157.0 150.0 L 161.0 149.5 L 166.0 149.5 L 171.0 149.5 L 173.5 149.5 L 174.0 149.5 " stroke="black" fill="none" stroke-width="6.0" stroke-linecap="round" stroke-linejoin="round" />
<path d="M 125.5 162.0 L 126.5 161.5 L 127.5 161.0 L 127.5 161.0 L 127.0 161.5 L 125.5 164.5 L 123.5 167.5 L 121.0 170.5 L 120.0 172.0 " stroke="black" fill="none" stroke-width="6.0" stroke-linecap="round" stroke-linejoin="round" />
<path d="M 139.0 163.5 L 138.5 163.0 L 137.5 162.5 L 137.5 162.5 L 137.5 162.5 L 137.5 163.5 L 138.0 166.5 L 139.0 170.0 L 141.0 173.5 L 143.5 176.0 L 146.0 177.5 L 149.0 177.5 L 152.5 176.5 L 155.5 175.0 L 157.0 174.0 L 157.5 173.5 L 157.5 173.0 L 157.5 172.5 L 157.0 172.5 L 156.5 172.5 " stroke="black" fill="none" stroke-width="6.0" stroke-linecap="round" stroke-linejoin="round" />
<path d="M 151.0 160.5 L 151.0 160.5 L 151.0 160.0 L 151.0 159.5 L 151.0 159.5 L 151.5 159.5 L 153.5 160.0 L 155.5 161.5 L 158.0 163.5 " stroke="black" fill="none" stroke-width="6.0" stroke-linecap="round" stroke-linejoin="round" />
<path d="M 169.0 164.0 L 170.5 164.0 L 171.0 164.0 L 172.0 164.0 L 173.0 164.5 L 174.5 167.0 L 176.5 169.5 L 178.0 172.0 " stroke="black" fill="none" stroke-width="6.0" stroke-linecap="round" stroke-linejoin="round" />
</svg>