<svg xmlns="http://www.w3.org/2000/svg" width="300" height="300" viewBox="0 0 300 300">
<path d="M 129.0 127.5 L 129.0 127.5 L 129.5 127.5 L 129.5 127.5 L 130.0 127.5 L 130.0 127.5 L 130.5 129.5 L 131.5 138.0 L 132.0 151.5 L 132.0 162.0 L 132.0 165.0 L 132.0 165.0 L 132.0 162.0 L 131.5 161.0 " stroke="black" fill="none" stroke-width="6.0" stroke-linecap="round" stroke-linejoin="round" />
<path d="M 128.0 124.0 L 127.5 124.0 L 127.0 125.0 L 126.5 125.5 L 127.0 125.5 L 129.5 125.5 L 133.5 124.5 L 139.0 124.0 L 146.0 123.5 L 153.5 123.5 L 159.0 124.0 L 163.5 124.5 L 167.0 125.0 L 169.0 125.0 L 170.5 124.5 L 170.5 124.0 L 170.5 124.0 L 170.5 124.0 L 170.5 124.0 L 170.5 124.0 L 170.5 124.0 L 170.5 124.0 L 170.5 125.0 L 170.0 126.0 L 169.5 129.0 L 169.0 133.0 L 168.0 140.5 L 167.5 149.5 L 167.5 156.5 L 167.5 161.0 L 167.5 163.0 L 167.5 163.0 L 167.5 162.0 L 166.5 159.5 L 166.0 156.5 " stroke="black" fill="none" stroke-width="6.0" stroke-linecap="round" stroke-linejoin="round" />
<path d="M 134.5 167.5 L 135.0 167.0 L 135.5 166.5 L 137.0 166.5 L 140.5 166.0 L 148.0 165.5 L 156.0 165.5 L 162.5 166.0 L 166.5 166.5 L 167.5 166.5 " stroke="black" fill="none" stroke-width="6.0" stroke-linecap="round" stroke-linejoin="round" />
</svg>