<svg xmlns="http://www.w3.org/2000/svg" width="300" height="300" viewBox="0 0 300 300">
<path d="M 117.0 132.0 L 117.0 133.0 L 117.0 133.5 L 118.0 133.5 L 120.5 133.5 L 126.0 133.0 L 133.5 133.0 L 140.0 132.5 L 144.5 131.5 L 145.0 131.0 L 144.0 131.0 L 143.5 130.5 " stroke="black" fill="none" stroke-width="6.0" stroke-linecap="round" stroke-linejoin="round" />
<path d="M 135.0 117.0 L 135.0 117.0 L 135.0 117.0 L 135.0 118.0 L 135.0 123.5 L 135.0 137.0 L 134.0 155.5 L 133.0 172.5 L 133.0 184.5 L 134.5 191.0 L 135.0 193.0 L 135.0 193.0 L 134.0 190.0 L 132.5 187.5 " stroke="black" fill="none" stroke-width="6.0" stroke-linecap="round" stroke-linejoin="round" />
<path d="M 132.0 139.5 L 132.0 139.5 L 132.0 139.5 L 132.0 139.5 L 132.0 139.5 L 132.0 140.5 L 129.0 146.5 L 124.5 156.5 L 119.5 165.5 L 117.5 168.5 L 117.5 167.0 L 117.5 164.5 " stroke="black" fill="none" stroke-width="6.0" stroke-linecap="round" stroke-linejoin="round" />
<path d="M 134.0 145.0 L 134.5 145.0 L 135.5 145.0 L 137.0 146.0 L 139.0 149.5 L 142.0 155.0 L 145.5 160.0 L 148.0 161.5 L 148.0 161.0 " stroke="black" fill="none" stroke-width="6.0" stroke-linecap="round" stroke-linejoin="round" />
<path d="M 156.5 125.0 L 156.5 124.0 L 156.5 123.5 L 156.5 123.5 L 158.5 124.0 L 162.5 124.5 L 167.5 125.0 L 170.5 125.0 L 172.5 124.5 L 172.5 123.5 " stroke="black" fill="none" stroke-width="6.0" stroke-linecap="round" stroke-linejoin="round" />
<path d="M 168.0 113.0 L 167.5 114.0 L 167.0 115.0 L 167.0 116.5 L 167.5 120.0 L 168.0 125.5 L 168.0 130.5 L 167.0 133.5 L 167.0 134.5 " stroke="black" fill="none" stroke-width="6.0" stroke-linecap="round" stroke-linejoin="round" />
<path d="M 155.5 141.0 L 155.5 141.0 L 155.5 141.0 L 155.5 140.5 L 156.0 140.5 L 158.5 140.5 L 163.5 141.0 L 169.0 141.0 L 173.0 140.0 L 175.5 139.0 L 176.5 139.0 L 177.0 139.5 L 177.0 142.0 L 176.0 146.5 L 173.5 153.5 L 170.5 162.5 L 166.0 171.5 L 162.0 179.0 L 159.0 184.0 L 157.0 185.5 L 156.5 185.5 L 156.0 183.0 " stroke="black" fill="none" stroke-width="6.0" stroke-linecap="round" stroke-linejoin="round" />
<path d="M 156.5 156.5 L 156.5 156.5 L 156.0 157.5 L 156.0 158.0 L 157.5 159.5 L 162.5 163.5 L 170.5 170.5 L 178.5 177.5 L 185.0 181.5 L 190.5 183.5 L 194.0 184.0 L 194.5 183.0 " stroke="black" fill="none" stroke-width="6.0" stroke-linecap="round" stroke-linejoin="round" />
</svg>