<svg xmlns="http://www.w3.org/2000/svg" width="300" height="300" viewBox="0 0 300 300">
<path d="M 145.0 106.5 L 144.5 106.5 L 144.0 107.5 L 144.0 109.0 L 145.5 112.5 L 148.0 116.5 L 149.5 118.0 " stroke="black" fill="none" stroke-width="6.0" stroke-linecap="round" stroke-linejoin="round" />
<path d="M 127.0 126.0 L 127.5 124.5 L 127.5 123.5 L 127.5 123.5 L 127.5 124.5 L 126.5 127.5 L 125.5 131.5 L 125.0 135.0 L 125.0 135.5 " stroke="black" fill="none" stroke-width="6.0" stroke-linecap="round" stroke-linejoin="round" />
<path d="M 127.5 127.0 L 127.5 126.5 L 128.0 126.0 L 130.0 125.5 L 134.5 124.5 L 143.0 123.0 L 152.5 122.5 L 161.5 122.5 L 168.5 122.5 L 173.5 122.5 L 175.0 122.0 L 175.0 122.5 L 174.0 123.5 L 173.0 125.5 L 172.5 128.5 L 171.5 131.5 L 170.5 134.0 L 169.5 136.5 " stroke="black" fill="none" stroke-width="6.0" stroke-linecap="round" stroke-linejoin="round" />
<path d="M 139.0 135.5 L 139.5 136.0 L 139.5 136.5 L 139.5 138.0 L 139.0 142.0 L 138.5 147.0 L 138.5 150.5 L 138.5 151.0 L 138.5 150.5 " stroke="black" fill="none" stroke-width="6.0" stroke-linecap="round" stroke-linejoin="round" />
<path d="M 139.0 135.0 L 139.0 136.0 L 139.0 136.5 L 139.0 137.0 L 140.5 137.0 L 143.0 137.0 L 146.5 136.5 L 150.0 135.5 L 152.5 135.0 L 154.5 135.0 L 155.0 135.5 L 155.5 136.0 L 155.5 137.5 L 155.5 140.0 L 155.0 143.0 L 154.0 146.5 L 152.5 149.0 L 152.0 149.5 " stroke="black" fill="none" stroke-width="6.0" stroke-linecap="round" stroke-linejoin="round" />
<path d="M 137.0 152.5 L 138.0 152.5 L 139.0 153.0 L 141.5 153.0 L 145.5 152.5 L 149.5 151.5 L 153.0 151.0 " stroke="black" fill="none" stroke-width="6.0" stroke-linecap="round" stroke-linejoin="round" />
<path d="M 146.0 154.0 L 146.0 154.0 L 146.0 154.0 L 145.5 154.0 L 145.5 154.0 L 144.5 155.0 L 143.5 156.5 L 143.0 158.5 L 142.5 159.5 " stroke="black" fill="none" stroke-width="6.0" stroke-linecap="round" stroke-linejoin="round" />
<path d="M 128.5 167.5 L 128.5 166.5 L 128.5 166.0 L 128.5 166.0 L 128.5 167.5 L 128.5 171.0 L 129.0 175.5 L 129.5 178.0 L 129.5 178.5 " stroke="black" fill="none" stroke-width="6.0" stroke-linecap="round" stroke-linejoin="round" />
<path d="M 128.5 166.0 L 128.5 165.5 L 128.5 165.0 L 128.5 164.5 L 129.0 164.5 L 132.0 164.5 L 137.5 164.5 L 146.5 163.5 L 155.0 163.0 L 161.0 163.0 L 163.5 164.5 L 164.0 165.5 L 163.5 166.0 L 162.5 167.0 L 162.0 169.0 L 161.0 172.0 L 159.5 175.5 L 158.0 179.0 L 157.0 181.0 L 157.0 181.5 L 157.0 181.0 " stroke="black" fill="none" stroke-width="6.0" stroke-linecap="round" stroke-linejoin="round" />
<path d="M 131.0 183.5 L 131.5 183.5 L 132.5 183.5 L 134.0 183.5 L 138.0 183.5 L 146.0 183.0 L 154.5 181.5 L 162.0 180.0 L 163.0 179.5 " stroke="black" fill="none" stroke-width="6.0" stroke-linecap="round" stroke-linejoin="round" />
</svg>