<svg xmlns="http://www.w3.org/2000/svg" width="300" height="300" viewBox="0 0 300 300">
<path d="M 141.5 109.0 L 140.5 110.0 L 140.5 110.5 L 141.0 111.5 L 143.0 114.5 L 145.5 117.5 L 147.5 119.5 L 148.5 120.0 " stroke="black" fill="none" stroke-width="6.0" stroke-linecap="round" stroke-linejoin="round" />
<path d="M 128.0 130.5 L 128.0 130.5 L 128.0 130.0 L 128.5 130.0 L 128.5 130.0 L 128.5 130.0 L 127.5 132.5 L 126.0 136.5 L 124.0 141.5 L 123.0 145.0 L 123.0 145.5 " stroke="black" fill="none" stroke-width="6.0" stroke-linecap="round" stroke-linejoin="round" />
<path d="M 127.5 132.5 L 127.5 132.0 L 127.0 131.5 L 127.0 131.5 L 127.0 131.5 L 129.0 131.5 L 132.5 131.5 L 139.0 130.5 L 149.0 128.5 L 157.5 127.5 L 164.0 127.5 L 166.5 127.5 L 167.0 127.5 L 167.0 127.5 L 167.0 127.5 L 167.0 127.5 L 167.0 127.5 L 167.0 127.5 L 166.5 128.0 L 166.5 129.5 L 165.5 132.0 L 165.0 135.0 L 164.0 138.0 L 164.0 140.0 " stroke="black" fill="none" stroke-width="6.0" stroke-linecap="round" stroke-linejoin="round" />
<path d="M 137.0 144.0 L 137.0 143.0 L 137.5 141.5 L 137.5 141.5 L 137.5 141.5 L 137.0 144.0 L 136.5 147.0 L 136.0 150.0 L 136.0 151.5 L 136.0 152.0 " stroke="black" fill="none" stroke-width="6.0" stroke-linecap="round" stroke-linejoin="round" />
<path d="M 137.0 141.0 L 136.5 141.0 L 136.5 141.0 L 136.0 141.0 L 136.5 141.0 L 139.0 140.5 L 142.0 139.5 L 145.5 138.5 L 149.0 138.0 L 151.5 138.0 L 152.5 138.0 L 153.0 139.0 L 153.0 140.5 L 153.0 142.5 L 152.0 145.0 L 150.5 148.0 L 149.5 150.0 L 148.5 151.5 L 148.5 152.0 L 148.5 152.0 " stroke="black" fill="none" stroke-width="6.0" stroke-linecap="round" stroke-linejoin="round" />
<path d="M 140.0 153.5 L 139.0 154.5 L 137.5 155.0 L 137.0 155.0 L 137.0 155.0 L 139.0 154.5 L 142.5 154.5 L 145.5 154.0 L 148.5 153.5 L 149.0 153.5 " stroke="black" fill="none" stroke-width="6.0" stroke-linecap="round" stroke-linejoin="round" />
<path d="M 144.0 158.0 L 144.0 157.5 L 144.5 157.0 L 145.0 156.5 L 145.0 156.5 L 145.0 156.5 L 144.5 159.0 L 143.0 162.0 L 141.5 165.5 L 141.0 166.5 " stroke="black" fill="none" stroke-width="6.0" stroke-linecap="round" stroke-linejoin="round" />
<path d="M 123.5 171.0 L 123.5 171.0 L 124.0 171.0 L 124.0 170.5 L 124.5 171.5 L 125.0 175.0 L 125.5 180.0 L 126.5 184.0 L 127.0 185.5 L 128.0 185.5 L 128.5 184.5 " stroke="black" fill="none" stroke-width="6.0" stroke-linecap="round" stroke-linejoin="round" />
<path d="M 131.0 170.0 L 130.5 170.0 L 130.0 169.5 L 129.5 169.5 L 129.5 169.5 L 131.0 169.5 L 135.0 169.5 L 141.5 169.5 L 149.0 169.0 L 155.5 168.5 L 159.0 168.5 L 159.5 168.5 L 159.5 169.5 L 159.5 170.0 L 159.0 171.0 L 158.5 172.5 L 158.0 175.0 L 157.5 178.0 L 156.5 182.0 L 155.5 186.0 L 155.0 188.0 L 155.0 188.5 " stroke="black" fill="none" stroke-width="6.0" stroke-linecap="round" stroke-linejoin="round" />
<path d="M 130.5 192.0 L 130.5 192.0 L 130.0 192.0 L 130.0 192.0 L 132.0 191.5 L 137.5 191.0 L 145.0 190.5 L 153.0 190.5 L 159.0 190.5 " stroke="black" fill="none" stroke-width="6.0" stroke-linecap="round" stroke-linejoin="round" />
</svg>