<svg xmlns="http://www.w3.org/2000/svg" width="300" height="300" viewBox="0 0 300 300">
<path d="M 124.5 129.0 L 123.5 129.5 L 123.5 129.5 L 124.0 129.5 L 127.0 128.0 L 130.0 126.0 L 133.5 123.5 L 136.0 121.5 L 137.0 120.5 L 138.0 120.0 L 138.5 120.0 " stroke="black" fill="none" stroke-width="6.0" stroke-linecap="round" stroke-linejoin="round" />
<path d="M 122.0 141.5 L 121.5 141.5 L 120.5 141.0 L 120.0 141.0 L 119.5 140.5 L 120.0 140.0 L 122.0 140.0 L 125.5 139.5 L 130.0 139.5 L 137.0 139.0 L 145.5 137.5 L 154.0 136.5 L 159.5 135.5 L 163.0 135.0 L 165.0 134.5 L 166.0 134.5 L 166.0 134.5 L 166.0 134.5 L 166.5 134.5 L 167.0 134.5 L 169.0 134.5 L 171.0 134.5 L 172.5 134.5 L 173.0 134.5 L 173.5 134.5 L 173.5 134.5 L 173.5 134.5 L 173.5 134.5 L 173.5 134.5 L 173.0 134.5 L 172.5 134.5 L 172.5 134.5 " stroke="black" fill="none" stroke-width="6.0" stroke-linecap="round" stroke-linejoin="round" />
<path d="M 135.5 126.0 L 135.5 125.5 L 135.5 125.5 L 135.5 125.5 L 135.5 125.5 L 135.5 126.5 L 135.5 130.0 L 135.5 137.5 L 135.5 147.5 L 135.5 158.0 L 135.5 167.0 L 136.0 172.5 L 136.0 178.0 L 135.5 182.5 L 135.0 185.5 L 134.5 187.0 L 134.5 187.5 L 133.5 187.5 L 132.5 187.0 L 131.0 186.0 L 129.5 184.5 L 128.5 182.5 L 128.0 180.0 L 127.5 177.5 " stroke="black" fill="none" stroke-width="6.0" stroke-linecap="round" stroke-linejoin="round" />
<path d="M 126.0 168.0 L 125.0 167.5 L 125.0 166.5 L 127.0 165.0 L 130.5 163.0 L 135.5 160.5 L 140.5 157.0 L 145.5 153.0 L 147.5 150.5 " stroke="black" fill="none" stroke-width="6.0" stroke-linecap="round" stroke-linejoin="round" />
<path d="M 156.5 122.0 L 156.5 121.5 L 156.5 120.5 L 156.5 120.0 L 156.5 120.0 L 156.0 124.0 L 156.0 132.5 L 155.0 144.5 L 155.0 157.5 L 155.5 169.0 L 157.0 175.5 L 159.0 180.0 L 160.5 182.5 L 162.0 183.0 L 163.0 182.5 L 164.0 180.5 L 165.0 177.0 L 166.0 173.5 L 167.0 170.5 L 167.5 168.5 L 168.5 167.5 " stroke="black" fill="none" stroke-width="6.0" stroke-linecap="round" stroke-linejoin="round" />
<path d="M 171.0 157.5 L 170.0 157.5 L 169.0 157.5 L 168.5 157.0 L 167.5 157.0 L 166.5 157.5 L 164.0 160.0 L 160.0 165.0 L 155.5 170.0 L 152.0 174.0 L 150.5 176.5 L 150.5 176.5 L 151.5 174.0 " stroke="black" fill="none" stroke-width="6.0" stroke-linecap="round" stroke-linejoin="round" />
<path d="M 170.5 122.0 L 170.5 122.0 L 170.0 121.0 L 169.5 120.5 L 169.5 121.0 L 170.5 122.0 L 171.5 123.0 L 172.5 124.5 L 173.0 126.0 L 173.5 126.0 " stroke="black" fill="none" stroke-width="6.0" stroke-linecap="round" stroke-linejoin="round" />
</svg>