<svg xmlns="http://www.w3.org/2000/svg" width="300" height="300" viewBox="0 0 300 300">
<path d="M 125.0 107.5 L 123.5 108.0 L 122.5 108.0 L 122.0 108.0 L 122.0 108.0 L 123.0 108.0 L 126.0 108.0 L 131.5 108.0 L 138.5 108.0 L 145.0 107.5 L 149.0 107.5 L 149.5 107.5 L 148.5 107.5 L 147.5 107.5 L 146.5 108.5 L 146.0 110.0 L 145.5 111.5 L 144.5 114.0 L 142.5 117.5 L 139.5 122.5 L 135.5 128.5 L 133.0 132.0 L 132.0 133.5 L 131.5 133.5 L 131.0 133.5 L 130.5 133.5 " stroke="black" fill="none" stroke-width="6.0" stroke-linecap="round" stroke-linejoin="round" />
<path d="M 126.0 117.5 L 125.5 117.5 L 125.5 117.5 L 127.0 118.0 L 130.0 119.5 L 134.0 120.5 L 136.5 121.0 " stroke="black" fill="none" stroke-width="6.0" stroke-linecap="round" stroke-linejoin="round" />
<path d="M 160.0 109.5 L 160.0 109.5 L 160.0 109.5 L 159.5 109.5 L 159.0 110.0 L 159.5 112.0 L 163.0 117.0 L 168.5 124.5 L 175.5 129.5 L 181.5 131.0 L 184.0 130.5 L 184.0 130.0 L 182.5 129.5 " stroke="black" fill="none" stroke-width="6.0" stroke-linecap="round" stroke-linejoin="round" />
<path d="M 171.5 111.5 L 171.5 112.0 L 171.5 112.5 L 171.0 113.0 L 169.5 114.0 L 167.5 116.5 L 166.0 119.5 L 166.0 120.5 " stroke="black" fill="none" stroke-width="6.0" stroke-linecap="round" stroke-linejoin="round" />
<path d="M 181.0 113.0 L 181.0 114.5 L 180.5 115.5 L 179.5 118.0 L 178.0 121.5 L 176.5 124.5 L 175.5 126.0 " stroke="black" fill="none" stroke-width="6.0" stroke-linecap="round" stroke-linejoin="round" />
<path d="M 142.5 134.5 L 142.5 134.5 L 142.5 135.5 L 142.5 135.5 L 143.0 135.5 L 145.0 135.5 L 148.5 134.5 L 153.0 133.5 L 157.5 132.5 L 161.0 132.5 L 164.0 132.5 L 166.0 133.0 L 166.0 133.5 L 166.0 133.5 L 165.5 133.0 " stroke="black" fill="none" stroke-width="6.0" stroke-linecap="round" stroke-linejoin="round" />
<path d="M 140.0 146.0 L 140.0 145.5 L 140.0 144.5 L 140.0 144.5 L 140.5 144.0 L 140.5 144.5 L 141.5 147.5 L 142.0 151.5 L 143.0 155.0 L 143.5 157.0 L 143.5 157.5 " stroke="black" fill="none" stroke-width="6.0" stroke-linecap="round" stroke-linejoin="round" />
<path d="M 140.5 146.5 L 140.0 145.5 L 139.0 145.0 L 139.5 144.5 L 142.0 144.0 L 146.5 143.0 L 151.5 142.5 L 158.0 142.0 L 164.0 143.0 L 167.5 144.5 L 168.5 146.0 L 168.5 146.5 L 168.0 146.5 L 168.0 146.5 L 168.0 146.0 L 168.0 146.0 L 167.5 146.0 L 166.5 147.5 L 165.0 150.0 L 163.0 154.0 L 162.0 157.5 L 161.5 159.5 L 161.5 159.5 " stroke="black" fill="none" stroke-width="6.0" stroke-linecap="round" stroke-linejoin="round" />
<path d="M 144.0 163.0 L 143.0 162.5 L 143.0 162.5 L 144.5 162.0 L 148.0 161.5 L 153.0 161.0 L 158.0 160.5 L 161.5 161.0 " stroke="black" fill="none" stroke-width="6.0" stroke-linecap="round" stroke-linejoin="round" />
<path d="M 143.0 172.0 L 143.0 172.0 L 143.0 171.5 L 143.0 171.5 L 143.5 171.5 L 145.0 173.5 L 147.0 175.5 L 149.5 176.5 L 150.0 176.5 " stroke="black" fill="none" stroke-width="6.0" stroke-linecap="round" stroke-linejoin="round" />
<path d="M 165.5 170.0 L 165.0 170.0 L 164.0 170.0 L 163.5 170.0 L 163.5 171.0 L 163.5 172.5 L 163.0 175.5 L 161.5 178.5 L 160.5 181.0 " stroke="black" fill="none" stroke-width="6.0" stroke-linecap="round" stroke-linejoin="round" />
<path d="M 131.0 189.5 L 131.0 189.5 L 131.0 189.5 L 131.0 189.5 L 131.0 189.5 L 133.5 189.0 L 140.5 187.0 L 153.0 185.0 L 165.5 184.0 L 174.0 183.5 L 177.0 184.0 L 176.0 185.0 L 175.5 185.0 " stroke="black" fill="none" stroke-width="6.0" stroke-linecap="round" stroke-linejoin="round" />
</svg>