<svg xmlns="http://www.w3.org/2000/svg" width="300" height="300" viewBox="0 0 300 300">
<path d="M 133.0 112.5 L 133.0 113.5 L 133.0 114.0 L 133.0 114.0 L 135.0 114.0 L 140.0 113.5 L 147.5 112.5 L 155.0 111.5 L 161.0 110.0 L 164.5 109.0 L 164.5 108.5 L 164.0 109.0 L 162.5 109.5 " stroke="black" fill="none" stroke-width="6.0" stroke-linecap="round" stroke-linejoin="round" />
<path d="M 150.5 114.5 L 151.0 115.0 L 151.5 115.5 L 152.0 115.5 L 152.0 115.5 L 151.5 118.0 L 148.0 123.5 L 143.0 130.5 L 136.0 138.0 L 130.0 143.5 L 127.0 145.0 L 125.5 145.5 L 125.5 145.5 L 125.5 144.5 " stroke="black" fill="none" stroke-width="6.0" stroke-linecap="round" stroke-linejoin="round" />
<path d="M 147.5 130.5 L 147.5 129.5 L 147.5 129.5 L 147.5 129.0 L 148.0 129.0 L 148.0 129.5 L 148.0 131.0 L 148.0 135.5 L 148.0 147.0 L 148.0 156.5 L 148.5 169.0 L 149.0 175.0 L 149.5 177.5 L 149.5 177.5 L 149.5 175.5 " stroke="black" fill="none" stroke-width="6.0" stroke-linecap="round" stroke-linejoin="round" />
<path d="M 162.0 136.0 L 161.0 136.0 L 160.0 136.0 L 159.5 136.0 L 159.5 136.0 L 161.0 137.5 L 164.5 140.5 L 168.5 144.0 L 172.0 146.5 L 174.5 148.0 L 176.0 148.0 " stroke="black" fill="none" stroke-width="6.0" stroke-linecap="round" stroke-linejoin="round" />
</svg>