<svg xmlns="http://www.w3.org/2000/svg" width="300" height="300" viewBox="0 0 300 300">
<path d="M 128.0 106.5 L 128.0 106.5 L 127.5 106.5 L 127.5 107.0 L 127.5 107.0 L 131.5 107.0 L 139.5 107.0 L 151.5 106.0 L 161.5 104.5 L 168.0 103.5 L 170.5 103.0 L 170.5 103.0 L 169.5 103.0 L 169.5 103.0 L 169.5 103.0 L 169.5 102.5 " stroke="black" fill="none" stroke-width="6.0" stroke-linecap="round" stroke-linejoin="round" />
<path d="M 151.5 106.0 L 152.5 107.0 L 152.5 107.5 L 152.5 107.5 L 152.5 109.0 L 152.5 112.5 L 150.5 118.5 L 146.0 126.5 L 139.0 135.0 L 133.5 141.5 L 130.0 144.5 L 129.5 144.5 L 129.5 144.5 L 130.0 143.5 L 131.5 141.5 L 131.5 140.5 " stroke="black" fill="none" stroke-width="6.0" stroke-linecap="round" stroke-linejoin="round" />
<path d="M 145.5 126.5 L 145.5 126.5 L 145.0 126.0 L 145.0 126.0 L 145.0 126.0 L 145.0 126.0 L 145.5 129.5 L 146.5 138.0 L 147.0 150.0 L 147.0 161.5 L 147.0 167.0 L 147.0 168.5 L 147.5 167.5 L 147.5 166.5 " stroke="black" fill="none" stroke-width="6.0" stroke-linecap="round" stroke-linejoin="round" />
<path d="M 161.0 126.5 L 161.0 127.0 L 160.5 127.5 L 160.5 127.5 L 161.5 129.0 L 165.0 131.5 L 169.0 135.0 L 172.0 138.0 L 174.0 138.5 L 174.0 137.5 " stroke="black" fill="none" stroke-width="6.0" stroke-linecap="round" stroke-linejoin="round" />
</svg>