<svg xmlns="http://www.w3.org/2000/svg" width="300" height="300" viewBox="0 0 300 300">
<path d="M 123.0 115.0 L 123.0 114.5 L 123.0 114.0 L 122.5 113.0 L 122.0 113.0 L 121.5 113.0 L 120.5 113.0 L 120.0 113.5 L 119.5 114.0 L 119.5 114.5 L 119.5 114.5 L 119.5 115.0 L 119.5 115.0 L 121.5 115.0 L 124.5 114.5 L 128.0 114.0 L 131.0 113.5 L 133.5 113.5 L 135.0 113.5 L 136.0 113.5 L 137.0 113.5 L 137.5 113.5 L 138.0 113.5 L 138.5 113.5 L 138.5 113.5 L 139.0 113.5 L 139.0 113.5 L 139.0 113.5 L 139.0 113.5 L 139.0 114.0 L 139.0 115.0 L 139.0 117.0 L 139.0 121.0 L 139.0 126.5 L 138.5 133.5 L 138.0 139.0 L 138.0 140.0 L 138.0 139.0 L 138.0 134.5 L 137.5 133.0 " stroke="black" fill="none" stroke-width="6.0" stroke-linecap="round" stroke-linejoin="round" />
<path d="M 126.0 125.5 L 125.5 125.5 L 124.0 126.5 L 123.5 126.5 L 123.5 127.0 L 125.5 127.0 L 128.5 127.0 L 131.5 127.0 L 134.0 127.0 L 136.0 127.0 L 136.0 127.0 " stroke="black" fill="none" stroke-width="6.0" stroke-linecap="round" stroke-linejoin="round" />
<path d="M 126.5 138.0 L 126.0 138.5 L 124.5 139.0 L 124.5 139.0 L 126.5 139.0 L 130.5 139.0 L 134.5 138.5 L 138.0 138.0 L 138.5 138.0 " stroke="black" fill="none" stroke-width="6.0" stroke-linecap="round" stroke-linejoin="round" />
<path d="M 120.5 116.5 L 120.0 116.5 L 119.5 117.0 L 119.0 117.0 L 118.5 117.5 L 118.5 119.0 L 118.5 121.5 L 118.5 126.0 L 118.5 132.5 L 118.5 141.0 L 117.5 149.5 L 117.5 157.0 L 117.5 163.0 L 117.5 169.5 L 117.5 175.5 L 117.5 181.0 L 117.0 186.0 L 116.5 190.0 L 116.0 193.5 L 115.5 197.0 L 115.5 199.5 L 115.5 199.5 L 116.0 199.5 L 117.5 198.0 L 118.0 196.0 " stroke="black" fill="none" stroke-width="6.0" stroke-linecap="round" stroke-linejoin="round" />
<path d="M 154.0 112.5 L 154.0 112.5 L 154.0 112.5 L 154.0 113.0 L 154.0 113.0 L 154.0 114.0 L 154.0 119.0 L 153.0 129.0 L 152.5 137.5 L 152.5 140.5 L 153.0 141.0 L 153.0 141.0 " stroke="black" fill="none" stroke-width="6.0" stroke-linecap="round" stroke-linejoin="round" />
<path d="M 158.5 110.5 L 158.5 111.5 L 158.5 112.5 L 158.5 112.5 L 158.5 112.5 L 159.5 112.5 L 161.5 113.0 L 163.5 113.0 L 166.5 113.0 L 169.0 113.0 L 171.5 113.0 L 173.0 113.0 L 174.0 113.0 L 174.5 113.5 L 175.0 115.0 L 175.0 117.0 L 175.0 121.0 L 175.0 127.5 L 174.5 136.5 L 174.0 146.0 L 174.0 155.0 L 173.5 164.0 L 173.0 173.0 L 173.0 181.0 L 172.5 189.0 L 172.0 194.5 L 171.5 200.5 L 171.0 205.5 L 170.0 208.0 L 169.0 209.5 L 167.5 209.5 L 166.0 209.0 L 164.0 207.5 L 162.5 205.5 L 162.0 205.0 " stroke="black" fill="none" stroke-width="6.0" stroke-linecap="round" stroke-linejoin="round" />
<path d="M 157.0 130.0 L 156.5 130.5 L 155.5 131.5 L 155.0 132.0 L 155.0 132.0 L 156.5 132.0 L 159.5 132.0 L 163.0 132.0 L 166.0 132.0 L 168.0 132.0 L 168.5 132.0 " stroke="black" fill="none" stroke-width="6.0" stroke-linecap="round" stroke-linejoin="round" />
<path d="M 161.0 144.0 L 159.5 144.5 L 159.0 144.5 L 160.5 144.0 L 164.0 144.0 L 168.0 144.0 L 169.5 144.0 " stroke="black" fill="none" stroke-width="6.0" stroke-linecap="round" stroke-linejoin="round" />
<path d="M 136.0 147.5 L 136.0 147.5 L 136.5 147.5 L 136.5 147.0 L 136.5 147.5 L 135.5 151.0 L 134.0 154.5 L 133.5 157.0 " stroke="black" fill="none" stroke-width="6.0" stroke-linecap="round" stroke-linejoin="round" />
<path d="M 134.5 152.5 L 135.0 152.5 L 136.0 153.5 L 137.5 153.5 L 140.0 153.0 L 143.5 152.0 L 147.0 152.0 L 149.5 152.0 L 152.0 152.0 L 153.5 152.0 L 154.0 152.5 L 154.0 153.5 L 153.5 155.5 L 151.5 159.5 L 148.0 164.0 L 143.0 169.0 L 137.5 172.5 L 132.5 175.5 L 129.0 177.0 L 127.5 177.5 L 127.0 177.5 " stroke="black" fill="none" stroke-width="6.0" stroke-linecap="round" stroke-linejoin="round" />
<path d="M 137.5 162.0 L 137.5 162.0 L 137.5 162.0 L 138.5 163.0 L 142.0 166.0 L 150.0 170.5 L 156.5 173.5 L 160.5 174.5 L 162.5 174.5 L 163.0 174.5 " stroke="black" fill="none" stroke-width="6.0" stroke-linecap="round" stroke-linejoin="round" />
<path d="M 135.0 177.5 L 135.0 177.5 L 135.5 178.0 L 135.5 178.5 L 136.0 180.0 L 136.0 183.5 L 136.5 188.5 L 136.5 191.0 " stroke="black" fill="none" stroke-width="6.0" stroke-linecap="round" stroke-linejoin="round" />
<path d="M 137.0 183.0 L 138.0 182.0 L 139.0 180.5 L 140.5 179.5 L 143.0 178.5 L 145.5 178.0 L 148.5 178.0 L 151.0 178.5 L 151.5 179.5 L 152.0 181.0 L 152.0 183.5 L 151.0 186.0 L 149.5 189.0 L 148.5 191.0 L 147.5 191.5 L 147.5 192.0 " stroke="black" fill="none" stroke-width="6.0" stroke-linecap="round" stroke-linejoin="round" />
<path d="M 137.5 192.0 L 137.0 192.0 L 136.5 192.5 L 136.0 192.5 L 137.5 192.5 L 141.5 192.5 L 145.5 192.5 L 148.5 192.5 " stroke="black" fill="none" stroke-width="6.0" stroke-linecap="round" stroke-linejoin="round" />
</svg>