<svg xmlns="http://www.w3.org/2000/svg" width="300" height="300" viewBox="0 0 300 300">
<path d="M 132.5 108.5 L 132.5 107.5 L 132.0 106.5 L 132.0 106.0 L 132.5 107.0 L 133.0 111.0 L 133.5 117.0 L 133.5 122.0 L 133.5 125.0 L 133.5 126.0 " stroke="black" fill="none" stroke-width="6.0" stroke-linecap="round" stroke-linejoin="round" />
<path d="M 125.5 117.5 L 123.5 117.5 L 122.0 117.5 L 122.5 118.0 L 126.0 118.0 L 131.0 117.0 L 136.0 116.0 L 141.0 115.5 " stroke="black" fill="none" stroke-width="6.0" stroke-linecap="round" stroke-linejoin="round" />
<path d="M 160.0 107.5 L 160.0 107.5 L 160.0 107.5 L 160.0 107.0 L 160.5 107.0 L 160.5 108.5 L 161.0 113.0 L 161.0 118.5 L 160.5 122.5 L 160.5 123.0 " stroke="black" fill="none" stroke-width="6.0" stroke-linecap="round" stroke-linejoin="round" />
<path d="M 151.0 117.0 L 150.0 117.0 L 149.5 117.0 L 151.0 116.5 L 155.5 116.0 L 161.0 116.0 L 167.0 116.0 L 171.0 116.0 L 173.0 116.5 " stroke="black" fill="none" stroke-width="6.0" stroke-linecap="round" stroke-linejoin="round" />
<path d="M 145.5 131.0 L 145.5 131.0 L 145.0 131.0 L 144.5 131.5 L 145.0 132.0 L 146.5 133.0 L 147.5 134.5 L 148.5 135.5 " stroke="black" fill="none" stroke-width="6.0" stroke-linecap="round" stroke-linejoin="round" />
<path d="M 129.0 142.0 L 129.0 142.0 L 129.0 142.0 L 130.0 142.0 L 133.5 142.5 L 141.0 142.5 L 150.0 142.5 L 157.0 142.0 L 161.0 141.5 L 162.0 141.0 L 162.0 141.0 L 161.5 141.0 L 161.5 141.0 L 161.5 141.0 L 161.5 141.0 L 161.5 141.0 L 161.5 141.0 L 161.5 141.0 L 161.5 141.0 L 161.5 141.0 L 161.0 141.0 L 161.0 141.0 L 161.0 141.0 L 161.0 141.0 L 160.5 141.0 L 160.5 141.0 L 160.5 141.0 " stroke="black" fill="none" stroke-width="6.0" stroke-linecap="round" stroke-linejoin="round" />
<path d="M 162.5 142.0 L 162.5 142.0 L 162.5 141.5 L 162.5 141.5 L 162.0 141.0 L 162.0 141.0 L 162.0 142.0 L 161.5 144.5 L 159.5 149.0 L 155.5 155.0 L 150.0 162.0 L 144.0 168.0 L 138.0 173.5 L 133.0 177.0 L 130.0 179.0 L 128.5 179.5 L 128.0 179.5 L 128.0 179.0 L 127.5 177.5 L 127.5 175.5 L 127.5 174.5 L 127.5 173.5 L 128.0 173.0 L 129.0 172.5 L 129.5 172.5 L 131.0 172.5 L 132.5 172.5 L 135.0 173.0 L 140.0 174.0 L 146.5 174.5 L 154.5 175.5 L 161.0 177.0 L 166.0 178.5 L 170.5 179.5 L 174.0 180.0 L 176.5 179.5 L 178.5 178.5 L 179.0 177.5 " stroke="black" fill="none" stroke-width="6.0" stroke-linecap="round" stroke-linejoin="round" />
</svg>