<svg xmlns="http://www.w3.org/2000/svg" width="300" height="300" viewBox="0 0 300 300">
<path d="M 155.5 124.5 L 155.5 124.5 L 156.0 124.0 L 156.5 123.5 L 156.5 122.0 L 156.5 121.0 L 156.0 119.0 L 155.0 118.0 L 153.0 117.5 L 150.0 117.5 L 147.0 118.5 L 144.0 121.0 L 141.0 125.0 L 138.5 129.5 L 137.5 134.0 L 137.5 138.5 L 139.5 142.0 L 142.0 144.0 L 145.5 146.0 L 149.5 148.0 L 153.0 149.0 L 155.5 150.5 L 157.5 152.5 L 159.5 154.0 L 160.5 156.0 L 161.5 158.5 L 162.0 161.0 L 162.0 163.5 L 162.0 166.0 L 161.5 167.5 L 160.0 169.0 L 157.0 170.0 L 154.5 170.5 L 148.5 170.5 L 143.5 168.0 L 139.5 164.0 L 137.5 160.5 " stroke="black" fill="none" stroke-width="6.0" stroke-linecap="round" stroke-linejoin="round" />
</svg>