<svg xmlns="http://www.w3.org/2000/svg" width="300" height="300" viewBox="0 0 300 300">
<path d="M 149.0 151.0 L 149.0 151.0 L 149.0 151.0 L 149.0 151.0 L 149.0 151.0 L 149.0 151.0 L 149.0 151.0 L 149.0 151.0 L 149.0 151.0 L 148.0 152.5 L 146.0 155.0 L 143.5 158.0 L 141.0 161.5 L 139.0 164.0 L 137.5 165.5 L 136.5 166.5 L 136.0 167.0 L 136.0 167.5 L 136.0 167.5 L 136.5 167.5 L 137.5 167.5 L 138.5 167.5 L 140.5 169.0 L 142.5 170.5 L 144.0 173.0 L 146.0 175.0 L 147.0 176.0 L 147.5 177.0 L 148.0 177.5 " stroke="black" fill="none" stroke-width="6.0" stroke-linecap="round" stroke-linejoin="round" />
<path d="M 159.0 156.0 L 159.0 156.0 L 159.5 156.0 L 159.5 156.0 L 159.5 156.0 L 159.5 156.0 L 159.5 156.0 L 159.0 156.5 L 157.5 157.0 L 156.0 158.0 L 154.5 160.0 L 152.5 162.5 L 151.5 164.5 L 150.5 165.5 L 150.0 166.5 L 150.0 167.0 L 150.0 167.0 L 150.0 167.0 L 150.0 167.0 L 150.0 167.0 L 151.0 167.5 L 153.5 169.0 L 155.0 170.5 L 157.5 172.5 L 159.5 174.5 L 161.0 176.5 L 162.0 178.0 L 162.5 178.5 L 162.5 178.5 L 162.5 178.0 " stroke="black" fill="none" stroke-width="6.0" stroke-linecap="round" stroke-linejoin="round" />
</svg>