<svg xmlns="http://www.w3.org/2000/svg" width="300" height="300" viewBox="0 0 300 300">
<path d="M 141.0 120.0 L 141.0 119.5 L 141.0 119.0 L 141.0 118.5 L 141.0 118.5 L 141.0 118.5 L 141.0 119.0 L 141.5 125.5 L 142.0 137.5 L 142.0 151.5 L 142.5 161.0 L 143.0 164.0 L 143.5 164.5 L 143.5 163.5 L 143.0 162.5 " stroke="black" fill="none" stroke-width="6.0" stroke-linecap="round" stroke-linejoin="round" />
<path d="M 145.5 144.5 L 145.0 144.5 L 144.0 144.5 L 143.5 144.5 L 145.5 143.5 L 151.5 139.5 L 156.0 136.5 L 167.0 127.5 L 170.5 123.0 L 171.5 121.5 L 171.5 121.5 L 171.0 123.0 L 171.0 125.5 " stroke="black" fill="none" stroke-width="6.0" stroke-linecap="round" stroke-linejoin="round" />
<path d="M 151.0 149.0 L 150.5 149.0 L 150.5 148.5 L 150.0 148.5 L 150.0 148.5 L 150.5 148.5 L 153.0 150.5 L 158.0 155.5 L 164.5 162.5 L 170.5 169.0 L 173.0 171.5 L 173.5 172.0 L 173.5 171.5 " stroke="black" fill="none" stroke-width="6.0" stroke-linecap="round" stroke-linejoin="round" />
</svg>