<svg xmlns="http://www.w3.org/2000/svg" width="300" height="300" viewBox="0 0 300 300">
<path d="M 151.0 128.0 L 151.0 128.0 L 151.5 128.0 L 151.5 128.0 L 151.5 128.0 L 152.0 128.5 L 152.0 129.0 L 152.0 130.5 L 152.0 134.5 L 152.0 141.0 L 152.0 148.5 L 152.0 153.5 L 152.5 157.0 L 152.5 160.0 L 152.5 162.5 L 152.5 166.5 L 152.5 170.0 L 152.5 172.5 L 152.5 174.5 L 152.5 176.0 L 152.5 177.5 L 152.5 178.5 L 152.5 179.0 L 152.5 179.0 L 152.5 179.0 L 152.5 179.0 L 152.5 178.0 L 152.5 178.0 " stroke="black" fill="none" stroke-width="6.0" stroke-linecap="round" stroke-linejoin="round" />
<path d="M 143.5 125.5 L 142.5 125.0 L 142.5 124.5 L 142.5 124.5 L 145.5 124.5 L 150.5 125.0 L 156.0 125.5 L 160.0 125.5 L 162.0 125.5 L 163.0 125.0 L 163.0 125.0 " stroke="black" fill="none" stroke-width="6.0" stroke-linecap="round" stroke-linejoin="round" />
<path d="M 146.5 177.0 L 146.5 177.0 L 146.0 177.5 L 145.0 178.0 L 144.5 178.5 L 144.0 179.0 L 144.0 179.5 L 143.5 179.5 L 143.0 180.0 L 143.0 180.0 L 143.0 180.0 L 143.0 180.0 L 143.0 180.0 L 144.0 180.0 L 146.5 180.0 L 151.0 180.0 L 156.5 180.0 L 161.0 180.5 L 164.0 180.0 L 165.0 179.5 L 165.5 179.0 L 165.5 178.0 L 165.0 177.5 " stroke="black" fill="none" stroke-width="6.0" stroke-linecap="round" stroke-linejoin="round" />
</svg>