<svg xmlns="http://www.w3.org/2000/svg" width="300" height="300" viewBox="0 0 300 300">
<path d="M 143.5 134.5 L 142.5 134.5 L 141.0 134.5 L 141.0 133.5 L 142.0 131.5 L 145.0 129.0 L 150.0 127.0 L 155.0 125.5 L 158.5 125.5 L 160.5 127.0 L 161.5 130.0 L 161.5 133.5 L 161.5 138.5 L 160.0 144.0 L 158.0 150.5 L 155.5 155.5 L 152.5 159.5 L 149.5 162.5 L 146.5 164.0 L 144.0 164.0 L 142.5 164.0 L 141.5 164.0 L 141.0 163.5 L 141.0 163.5 L 142.0 163.0 L 144.0 161.5 L 146.5 160.0 L 149.5 159.5 L 152.5 159.5 L 156.0 160.0 L 159.5 162.0 L 162.5 163.5 L 165.0 165.5 L 167.0 167.0 L 168.5 167.5 L 169.5 167.5 L 170.0 166.5 " stroke="black" fill="none" stroke-width="6.0" stroke-linecap="round" stroke-linejoin="round" />
</svg>