<svg xmlns="http://www.w3.org/2000/svg" width="300" height="300" viewBox="0 0 300 300">
<path d="M 136.0 141.5 L 136.0 141.5 L 136.5 141.5 L 136.5 141.5 L 136.5 141.0 L 136.5 141.0 L 137.0 141.0 L 137.5 141.0 L 139.5 141.0 L 143.0 141.0 L 148.5 141.0 L 154.5 141.5 L 159.5 141.5 L 162.5 141.5 L 164.0 141.5 L 164.5 141.0 L 164.5 140.5 L 164.5 140.5 L 164.5 140.5 L 164.5 140.5 L 164.0 140.5 " stroke="black" fill="none" stroke-width="6.0" stroke-linecap="round" stroke-linejoin="round" />
<path d="M 149.5 130.5 L 149.5 130.5 L 149.5 130.5 L 149.5 130.5 L 149.5 130.5 L 149.5 130.5 L 150.0 132.0 L 150.0 136.0 L 150.5 143.0 L 150.5 150.0 L 151.0 155.0 L 151.0 156.5 L 151.0 156.0 L 151.0 155.5 " stroke="black" fill="none" stroke-width="6.0" stroke-linecap="round" stroke-linejoin="round" />
<path d="M 136.5 173.0 L 137.0 173.0 L 137.0 173.0 L 137.5 173.0 L 137.5 173.0 L 138.0 173.0 L 138.5 173.0 L 140.0 173.0 L 142.0 173.0 L 145.0 173.0 L 148.0 173.0 L 151.0 173.0 L 153.0 173.0 L 155.0 173.0 L 156.0 173.0 L 157.0 173.0 L 157.5 173.0 L 158.0 173.0 L 158.5 173.0 L 158.5 173.0 L 159.0 173.0 L 159.5 173.0 L 160.0 173.0 L 160.5 173.0 L 161.0 173.0 L 161.5 173.0 L 161.5 173.0 L 162.0 173.0 L 162.5 173.0 L 162.5 172.5 L 163.0 172.5 L 163.0 172.5 L 163.0 172.5 L 163.0 172.5 L 163.0 172.5 L 163.0 172.5 L 163.0 172.5 L 163.0 172.5 L 163.0 172.5 " stroke="black" fill="none" stroke-width="6.0" stroke-linecap="round" stroke-linejoin="round" />
</svg>