<svg xmlns="http://www.w3.org/2000/svg" width="300" height="300" viewBox="0 0 300 300">
<path d="M 150.0 132.0 L 150.0 132.0 L 149.5 131.0 L 149.5 130.5 L 149.0 130.0 L 149.0 130.0 L 148.5 131.0 L 148.5 132.5 L 148.5 133.5 L 149.0 134.0 L 149.5 134.0 L 150.0 134.0 L 150.5 133.5 L 151.0 133.0 L 151.0 132.5 L 151.0 132.5 L 150.5 132.5 L 150.0 132.5 " stroke="black" fill="none" stroke-width="6.0" stroke-linecap="round" stroke-linejoin="round" />
<path d="M 130.5 149.0 L 130.5 149.0 L 131.0 148.5 L 131.0 148.0 L 131.5 148.0 L 132.5 148.0 L 135.5 148.0 L 140.0 149.0 L 148.0 149.0 L 156.0 148.5 L 163.5 147.0 L 168.5 146.5 L 170.0 146.5 " stroke="black" fill="none" stroke-width="6.0" stroke-linecap="round" stroke-linejoin="round" />
<path d="M 150.0 164.0 L 150.0 164.0 L 150.0 163.0 L 150.0 162.5 L 149.5 162.0 L 149.0 162.0 L 148.0 162.5 L 147.0 164.0 L 146.5 166.5 L 146.0 168.5 L 148.0 169.5 L 150.0 169.0 L 152.5 167.5 L 153.5 165.5 L 153.5 164.5 L 150.5 163.5 L 149.0 164.5 L 148.5 166.5 L 148.5 168.0 L 150.0 168.5 L 152.0 168.5 L 153.0 167.5 L 153.5 166.0 L 153.5 165.0 L 153.0 165.0 L 152.5 165.0 " stroke="black" fill="none" stroke-width="6.0" stroke-linecap="round" stroke-linejoin="round" />
</svg>