<svg xmlns="http://www.w3.org/2000/svg" width="300" height="300" viewBox="0 0 300 300">
<path d="M 159.0 120.5 L 159.0 120.5 L 159.0 120.0 L 159.0 119.5 L 159.0 119.5 L 158.0 121.5 L 155.0 127.0 L 151.0 134.0 L 145.5 141.5 L 141.5 147.0 L 138.5 151.0 L 137.5 152.0 L 137.0 152.5 L 137.0 152.5 L 137.0 152.5 L 138.0 152.5 L 140.0 152.0 L 144.0 152.0 L 148.5 152.0 L 154.5 152.0 L 159.5 152.0 L 161.5 152.0 L 162.0 152.0 L 162.0 151.5 " stroke="black" fill="none" stroke-width="6.0" stroke-linecap="round" stroke-linejoin="round" />
<path d="M 161.5 129.0 L 161.5 129.0 L 161.5 129.0 L 161.0 129.0 L 161.0 128.5 L 161.0 128.5 L 161.0 128.5 L 161.0 129.0 L 161.0 134.0 L 161.0 145.0 L 161.0 156.0 L 161.0 163.5 L 161.0 168.5 L 161.0 172.0 L 161.0 175.0 L 161.5 175.5 L 162.0 175.5 L 162.0 174.5 " stroke="black" fill="none" stroke-width="6.0" stroke-linecap="round" stroke-linejoin="round" />
</svg>