<svg xmlns="http://www.w3.org/2000/svg" width="300" height="300" viewBox="0 0 300 300">
<path d="M 156.5 139.0 L 157.0 139.0 L 157.5 138.5 L 157.5 138.0 L 157.0 137.0 L 155.0 136.0 L 152.5 136.0 L 149.0 136.0 L 144.0 138.5 L 139.0 143.5 L 136.5 149.5 L 137.0 154.5 L 140.5 157.5 L 144.5 158.5 L 149.0 158.5 L 153.5 155.5 L 157.5 151.0 L 159.5 145.0 L 160.5 139.5 L 160.5 136.5 L 160.0 136.5 L 159.5 137.0 L 159.5 137.5 L 159.0 138.0 L 158.5 141.0 L 158.0 146.5 L 157.5 154.5 L 157.5 165.5 L 159.5 175.0 L 160.5 178.5 L 160.5 179.0 L 160.5 178.5 L 160.0 178.0 " stroke="black" fill="none" stroke-width="6.0" stroke-linecap="round" stroke-linejoin="round" />
</svg>