<svg xmlns="http://www.w3.org/2000/svg" width="300" height="300" viewBox="0 0 300 300">
<path d="M 155.5 123.5 L 155.5 123.0 L 155.5 122.5 L 155.5 122.0 L 155.5 121.0 L 155.5 120.5 L 155.0 120.5 L 154.0 120.0 L 153.0 120.0 L 151.5 121.0 L 150.0 123.0 L 149.0 125.0 L 148.5 127.5 L 148.0 130.5 L 148.0 134.0 L 148.0 137.0 L 148.5 140.5 L 148.5 143.0 L 149.0 146.0 L 149.5 148.0 L 150.0 150.5 L 150.0 153.0 L 150.5 155.0 L 150.5 156.5 L 150.5 158.5 L 150.5 160.0 L 150.0 161.5 L 149.0 163.0 L 148.5 164.0 L 147.5 165.0 L 146.5 166.0 L 145.5 167.0 L 145.0 168.0 L 144.0 169.0 L 143.5 170.0 L 142.5 170.5 L 142.0 171.0 L 141.5 171.5 L 141.5 171.5 L 141.0 171.5 L 141.0 171.5 L 141.0 171.5 L 141.0 171.5 L 141.0 171.5 L 141.5 171.5 L 142.0 171.5 L 143.0 171.0 L 146.0 171.0 L 148.0 171.0 L 150.5 171.0 L 153.0 171.0 L 155.5 171.0 L 158.0 171.5 L 160.5 172.0 L 163.0 172.0 L 165.0 172.0 L 166.0 172.0 L 167.0 172.0 L 167.5 172.0 L 167.5 171.5 " stroke="black" fill="none" stroke-width="6.0" stroke-linecap="round" stroke-linejoin="round" />
<path d="M 139.0 148.5 L 139.0 148.5 L 139.0 148.5 L 139.0 148.5 L 139.5 148.0 L 141.5 148.0 L 145.5 148.0 L 151.0 148.0 L 162.0 148.0 L 165.5 148.0 L 167.5 148.5 " stroke="black" fill="none" stroke-width="6.0" stroke-linecap="round" stroke-linejoin="round" />
</svg>