<svg xmlns="http://www.w3.org/2000/svg" width="300" height="300" viewBox="0 0 300 300">
<path d="M 139.0 115.0 L 139.5 115.0 L 139.5 115.0 L 140.0 115.0 L 140.0 115.0 L 140.5 116.0 L 140.5 120.0 L 140.5 127.0 L 140.5 136.5 L 139.5 146.0 L 139.0 154.5 L 139.0 158.5 L 139.0 159.0 L 139.5 159.0 L 139.5 158.5 L 139.5 158.0 L 139.5 156.0 L 140.0 152.5 L 141.5 148.5 L 143.0 144.5 L 145.5 140.5 L 149.0 138.0 L 153.0 136.5 L 156.0 136.5 L 158.0 136.5 L 159.5 137.5 L 161.0 138.5 L 162.0 140.5 L 162.5 143.5 L 162.5 154.0 L 162.0 158.5 L 161.5 160.5 L 161.0 161.0 L 161.0 160.5 " stroke="black" fill="none" stroke-width="6.0" stroke-linecap="round" stroke-linejoin="round" />
</svg>