<svg xmlns="http://www.w3.org/2000/svg" width="300" height="300" viewBox="0 0 300 300">
<path d="M 148.5 87.5 L 148.5 87.5 L 148.0 87.5 L 147.5 87.0 L 147.5 86.5 L 147.0 86.5 L 146.5 86.0 L 145.5 86.0 L 144.5 86.0 L 143.0 87.0 L 141.5 88.5 L 140.0 90.5 L 139.5 93.0 L 138.5 95.0 L 138.0 97.5 L 138.0 99.5 L 138.5 101.5 L 139.5 103.0 L 140.5 104.5 L 142.0 105.5 L 143.5 106.5 L 145.0 107.0 L 147.5 107.0 L 149.5 107.0 L 151.5 107.0 L 153.5 106.0 L 155.0 105.0 L 156.0 103.5 L 156.5 102.0 L 157.0 100.0 L 157.0 98.0 L 157.0 96.0 L 157.0 93.5 L 156.0 91.0 L 155.5 89.5 L 154.5 88.0 L 153.5 86.5 L 152.0 85.5 L 150.0 84.5 L 148.5 84.5 L 146.5 84.5 L 145.0 85.5 L 143.5 87.0 L 143.0 88.0 " stroke="black" fill="none" stroke-width="6.0" stroke-linecap="round" stroke-linejoin="round" />
</svg>