<svg xmlns="http://www.w3.org/2000/svg" width="300" height="300" viewBox="0 0 300 300">
<path d="M 151.0 149.5 L 151.0 149.5 L 151.5 149.0 L 151.5 149.0 L 152.0 148.5 L 152.0 148.0 L 152.0 147.5 L 151.5 147.5 L 150.5 147.5 L 149.5 148.5 L 148.5 149.5 L 148.5 151.0 L 149.0 152.0 L 150.5 152.5 L 152.5 152.5 L 154.0 151.0 L 154.5 149.0 L 154.5 147.5 L 153.5 146.5 L 152.0 146.0 L 150.5 146.5 L 149.0 147.5 L 148.5 149.0 L 148.5 150.5 L 149.0 151.5 L 151.0 152.5 L 153.0 152.5 L 155.0 151.5 L 156.5 150.0 L 156.5 148.0 L 156.5 146.5 L 155.0 145.5 L 153.0 145.5 L 151.0 145.5 L 150.0 146.5 L 149.0 148.5 L 149.0 150.0 L 149.5 151.5 L 151.0 152.0 L 152.5 152.5 L 154.0 151.5 L 155.0 149.5 L 155.5 147.5 L 155.0 145.5 L 153.5 144.5 L 152.0 144.0 L 150.5 144.5 L 149.0 146.5 L 148.5 148.0 L 148.5 149.5 L 149.0 150.5 L 151.0 150.5 L 153.0 150.5 L 154.5 149.5 L 155.0 148.0 L 155.0 147.0 L 155.0 145.5 L 153.5 145.0 L 152.0 145.0 L 150.5 145.5 L 150.0 146.5 L 149.5 148.0 L 150.0 149.5 L 151.0 150.0 L 152.5 150.0 L 153.5 149.5 L 154.0 148.0 L 154.0 147.0 L 153.5 146.0 L 152.5 145.5 L 152.0 145.0 L 151.5 145.0 " stroke="black" fill="none" stroke-width="6.0" stroke-linecap="round" stroke-linejoin="round" />
</svg>