<svg xmlns="http://www.w3.org/2000/svg" width="300" height="300" viewBox="0 0 300 300">
<path d="M 132.5 121.5 L 133.0 121.0 L 133.0 120.5 L 133.5 120.5 L 134.0 120.5 L 134.5 120.5 L 136.0 121.5 L 137.0 124.0 L 139.0 127.5 L 141.0 132.0 L 143.5 136.0 L 146.0 139.5 L 148.0 142.5 L 149.0 143.5 L 150.0 144.5 L 150.5 145.5 L 151.0 146.0 L 151.0 146.0 L 151.0 146.0 L 151.0 146.0 L 151.5 146.0 L 151.5 145.5 L 151.5 144.5 L 152.0 143.5 L 153.0 142.0 L 153.5 140.5 L 155.0 138.0 L 157.0 134.5 L 159.5 130.5 L 161.5 126.0 L 163.5 123.0 L 164.0 122.0 L 164.0 121.5 L 164.0 121.5 L 164.0 121.5 L 164.5 120.5 L 165.5 120.0 L 166.0 120.0 L 166.5 121.0 " stroke="black" fill="none" stroke-width="6.0" stroke-linecap="round" stroke-linejoin="round" />
</svg>