<svg xmlns="http://www.w3.org/2000/svg" width="300" height="300" viewBox="0 0 300 300">
<path d="M 132.0 125.0 L 132.0 124.5 L 131.5 124.5 L 131.0 124.0 L 131.0 123.5 L 131.0 123.5 L 131.5 123.5 L 132.5 123.5 L 134.5 123.5 L 136.5 123.5 L 138.5 123.5 L 141.0 124.5 L 143.0 125.5 L 145.0 126.5 L 146.5 128.0 L 148.5 129.5 L 150.0 132.0 L 151.5 135.0 L 153.0 138.5 L 155.0 142.0 L 156.5 145.0 L 158.5 148.0 L 160.0 151.5 L 162.5 155.5 L 164.5 159.5 L 166.5 162.5 L 168.5 165.5 L 170.0 168.0 L 171.0 170.0 L 172.0 170.5 L 172.5 171.0 L 172.5 171.0 L 172.5 170.5 L 172.0 170.0 " stroke="black" fill="none" stroke-width="6.0" stroke-linecap="round" stroke-linejoin="round" />
<path d="M 153.0 142.5 L 153.0 142.0 L 153.5 141.5 L 153.5 141.5 L 153.5 141.5 L 153.5 141.5 L 153.5 141.5 L 153.5 142.5 L 153.0 144.0 L 152.5 146.0 L 152.0 148.5 L 150.5 151.5 L 149.0 154.5 L 148.0 157.0 L 146.5 159.0 L 145.0 161.5 L 144.0 163.5 L 143.0 165.5 L 142.5 167.5 L 142.0 169.0 L 142.0 169.5 L 142.0 169.5 L 142.0 169.5 L 142.0 169.0 L 142.0 169.0 L 142.0 169.0 L 143.0 169.0 " stroke="black" fill="none" stroke-width="6.0" stroke-linecap="round" stroke-linejoin="round" />
</svg>