<svg xmlns="http://www.w3.org/2000/svg" width="300" height="300" viewBox="0 0 300 300">
<path d="M 135.5 137.5 L 135.5 137.5 L 136.0 137.0 L 136.5 137.0 L 136.5 137.0 L 136.5 137.0 L 137.0 137.0 L 137.5 137.0 L 138.0 138.0 L 139.0 139.5 L 140.0 141.0 L 141.0 143.0 L 142.0 145.0 L 143.0 147.0 L 143.5 149.0 L 144.0 151.0 L 144.5 152.5 L 144.5 154.5 L 144.5 156.5 L 144.5 158.0 L 144.5 159.0 L 144.5 160.5 L 144.5 161.5 L 144.5 162.5 L 144.5 163.5 L 144.0 164.5 L 144.0 165.5 L 144.0 166.0 L 143.5 167.0 L 143.5 168.0 L 143.5 168.5 L 143.0 169.0 L 143.0 169.5 L 143.0 169.5 L 143.0 170.0 L 143.0 170.0 L 143.0 170.0 L 143.0 170.0 L 143.0 170.0 L 143.0 169.5 L 143.0 169.0 L 143.0 168.5 L 143.0 168.0 L 143.5 167.5 L 144.0 166.5 L 144.0 166.0 L 144.5 165.5 L 145.0 165.0 L 145.5 165.0 L 146.0 164.0 L 146.5 163.5 L 147.0 163.0 L 147.5 162.0 L 148.5 161.0 L 149.5 160.0 L 150.5 159.0 L 151.5 158.0 L 152.0 157.5 L 153.0 156.5 L 153.5 156.0 L 154.0 155.0 L 154.5 154.0 L 155.5 153.0 L 156.0 152.0 L 157.0 151.0 L 158.0 149.5 L 159.0 148.5 L 160.0 147.5 L 161.0 146.5 L 162.0 145.5 L 162.5 144.5 L 163.5 144.0 L 164.0 143.5 L 164.5 143.0 L 164.5 142.5 L 165.0 142.5 L 165.0 142.0 L 165.0 142.0 L 165.0 142.0 L 165.0 141.5 L 165.0 141.5 L 165.5 141.5 L 165.5 141.0 L 165.5 141.0 L 166.0 141.0 L 166.0 140.5 L 166.0 140.5 L 166.5 140.5 L 166.5 140.5 L 166.5 140.5 L 166.5 140.5 L 166.5 140.5 L 166.5 140.5 L 166.0 141.0 L 165.5 142.5 L 164.5 144.0 L 164.0 146.0 L 163.0 148.0 L 162.0 150.0 L 161.5 152.0 L 161.0 153.5 L 160.5 154.5 L 160.5 155.5 L 160.5 156.5 L 160.5 157.5 L 160.5 158.5 L 160.5 159.5 L 160.5 161.0 L 161.0 162.0 L 161.5 163.5 L 162.0 164.5 L 162.5 165.5 L 163.5 166.5 L 164.0 167.5 L 165.0 168.0 L 166.0 169.0 L 166.5 169.0 L 167.5 169.5 L 168.5 169.5 L 169.0 169.5 L 170.0 170.0 L 171.0 170.0 L 171.5 170.0 L 172.5 170.0 L 173.0 170.0 L 173.5 170.0 L 174.0 170.0 L 174.0 170.0 L 174.0 170.0 " stroke="black" fill="none" stroke-width="6.0" stroke-linecap="round" stroke-linejoin="round" />
</svg>