<svg xmlns="http://www.w3.org/2000/svg" width="300" height="300" viewBox="0 0 300 300">
<path d="M 134.0 180.0 L 134.0 180.0 L 134.0 180.0 L 133.5 179.0 L 133.0 176.5 L 133.0 173.0 L 132.5 167.5 L 132.5 160.5 L 133.0 154.0 L 133.5 149.0 L 134.0 144.5 L 135.0 140.5 L 136.0 137.5 L 137.5 134.0 L 139.0 130.5 L 140.5 128.5 L 142.0 127.0 L 144.0 125.0 L 146.0 123.5 L 148.5 121.5 L 151.0 120.5 L 152.5 120.0 L 153.5 120.0 L 154.5 120.0 L 155.5 120.5 L 156.5 121.0 L 157.5 122.0 L 158.0 123.0 L 158.5 124.0 L 158.5 125.5 L 158.5 126.5 L 158.5 128.5 L 157.5 130.0 L 156.5 131.5 L 155.0 133.5 L 153.5 135.5 L 151.5 137.5 L 149.5 139.5 L 147.0 141.0 L 145.0 142.5 L 143.0 144.0 L 142.5 144.5 L 142.5 144.5 L 142.5 144.5 L 144.0 144.0 L 146.5 143.0 L 149.5 142.0 L 152.5 141.5 L 155.0 141.0 L 157.5 141.0 L 159.0 141.0 L 160.0 142.0 L 161.0 143.0 L 161.5 144.5 L 161.5 146.5 L 161.5 148.5 L 161.0 151.0 L 160.0 152.5 L 158.5 154.5 L 157.0 156.0 L 155.5 157.0 L 153.0 158.5 L 150.5 160.0 L 147.0 160.5 L 143.5 161.0 L 140.0 161.0 L 137.5 160.5 L 136.0 160.0 L 135.0 159.5 L 135.0 159.5 " stroke="black" fill="none" stroke-width="6.0" stroke-linecap="round" stroke-linejoin="round" />
</svg>