<svg xmlns="http://www.w3.org/2000/svg" width="300" height="300" viewBox="0 0 300 300">
<path d="M 133.0 131.5 L 133.0 131.5 L 133.0 131.5 L 133.5 131.5 L 133.5 131.0 L 133.5 131.0 L 133.5 130.5 L 134.0 129.5 L 134.5 129.0 L 135.5 128.5 L 136.5 128.0 L 137.5 128.0 L 139.0 128.0 L 140.0 129.0 L 141.5 130.5 L 142.5 132.0 L 143.5 134.0 L 144.5 135.5 L 145.5 137.0 L 146.5 138.5 L 147.5 140.0 L 148.5 141.5 L 149.5 143.0 L 150.0 144.5 L 151.0 146.0 L 151.5 147.5 L 152.0 149.0 L 152.5 150.5 L 153.0 152.0 L 153.5 153.5 L 154.0 155.0 L 154.5 156.5 L 155.0 157.5 L 155.5 159.0 L 156.0 160.0 L 156.5 161.0 L 157.0 162.0 L 157.5 163.0 L 157.5 163.5 L 158.0 164.0 L 158.5 165.0 L 158.5 165.5 L 159.0 166.0 L 159.0 166.5 L 159.5 167.0 L 159.5 167.5 L 159.5 168.0 L 160.0 168.5 L 160.0 169.0 L 160.0 169.0 L 160.0 169.5 L 160.0 169.5 L 160.0 170.0 L 160.0 170.0 L 160.0 170.0 L 160.0 170.0 L 160.0 170.0 L 160.0 170.0 L 160.0 170.0 L 160.0 170.0 L 160.0 170.0 L 159.5 170.0 L 158.5 170.0 L 158.0 169.5 L 157.0 169.5 L 156.0 169.5 L 155.0 169.5 L 153.5 169.5 L 152.5 169.5 L 151.5 169.5 L 150.0 169.5 L 149.0 169.5 L 148.0 169.0 L 147.0 169.0 L 146.0 169.0 L 145.0 168.5 L 144.5 168.5 L 143.5 168.5 L 142.5 168.0 L 142.0 168.0 L 141.0 168.0 L 140.5 167.5 L 140.0 167.5 L 139.5 167.5 L 139.0 167.0 L 139.0 167.0 L 138.5 167.0 L 138.0 167.0 L 138.0 167.0 L 137.5 167.0 L 137.0 167.0 L 137.0 167.0 L 136.5 167.0 L 136.5 167.0 L 136.0 167.0 L 136.0 167.0 L 136.0 167.0 L 136.0 167.0 L 136.0 167.0 L 136.0 167.0 L 136.0 166.5 L 136.5 166.5 L 137.5 165.5 L 138.5 164.5 L 139.5 163.5 L 140.0 162.5 L 141.0 161.0 L 141.5 160.0 L 142.0 159.0 L 142.5 158.0 L 143.0 156.5 L 143.5 155.5 L 144.0 154.5 L 144.5 153.5 L 145.0 152.5 L 146.0 151.0 L 147.0 149.5 L 148.0 147.5 L 149.5 145.5 L 151.0 144.0 L 152.5 142.5 L 153.5 140.5 L 154.5 139.5 L 155.5 138.0 L 156.5 136.5 L 157.5 135.5 L 158.5 135.0 L 159.0 134.0 L 160.0 133.5 L 161.0 132.5 L 162.0 132.0 L 162.5 131.5 L 163.0 131.5 L 163.5 131.0 L 164.0 131.0 L 164.5 131.0 L 165.0 131.0 L 165.5 131.0 L 166.0 131.0 L 167.0 131.0 L 167.5 131.5 L 168.0 132.0 L 169.0 132.5 L 169.5 133.0 L 170.5 134.0 L 171.0 134.5 L 171.5 135.5 L 172.0 136.0 L 172.5 137.0 L 173.0 138.0 L 173.5 139.0 L 174.0 139.5 L 174.0 140.5 L 174.5 140.5 L 174.5 141.0 L 174.5 141.0 L 174.5 141.0 " stroke="black" fill="none" stroke-width="6.0" stroke-linecap="round" stroke-linejoin="round" />
</svg>