<svg xmlns="http://www.w3.org/2000/svg" width="300" height="300" viewBox="0 0 300 300">
<path d="M 153.0 99.0 L 153.0 99.0 L 153.0 98.5 L 153.0 98.0 L 153.0 98.0 L 153.0 98.0 L 153.0 98.5 L 153.0 101.0 L 151.5 105.0 L 149.0 109.0 L 147.0 112.0 L 146.0 113.0 " stroke="black" fill="none" stroke-width="6.0" stroke-linecap="round" stroke-linejoin="round" />
<path d="M 144.0 123.5 L 144.0 123.0 L 143.5 122.5 L 143.5 122.0 L 143.5 122.0 L 143.5 122.0 L 143.5 123.0 L 143.5 126.0 L 143.5 129.5 L 143.0 135.0 L 142.5 141.5 L 142.5 146.5 L 142.5 150.5 L 142.5 153.5 L 142.5 156.0 L 143.0 158.0 L 143.5 159.5 L 144.5 160.5 L 146.0 161.5 L 148.0 162.0 L 150.0 162.5 L 152.5 163.0 L 155.0 163.5 L 157.0 163.5 L 159.0 163.5 L 160.5 162.5 L 161.0 162.0 L 161.0 162.0 L 161.0 161.5 L 161.0 161.0 " stroke="black" fill="none" stroke-width="6.0" stroke-linecap="round" stroke-linejoin="round" />
</svg>