<svg xmlns="http://www.w3.org/2000/svg" width="300" height="300" viewBox="0 0 300 300">
<path d="M 139.5 123.0 L 139.5 123.0 L 139.5 123.0 L 139.5 123.0 L 140.0 123.0 L 140.0 123.0 L 140.0 123.0 L 140.0 124.5 L 140.0 127.5 L 140.0 132.0 L 140.0 138.0 L 140.0 144.0 L 140.0 149.5 L 140.5 153.5 L 141.0 158.0 L 141.0 161.0 L 141.0 163.5 L 141.5 164.5 L 141.5 164.5 L 141.5 164.0 L 141.5 162.0 L 141.0 159.0 " stroke="black" fill="none" stroke-width="6.0" stroke-linecap="round" stroke-linejoin="round" />
<path d="M 144.0 124.0 L 143.0 124.0 L 142.0 123.5 L 142.0 123.5 L 142.0 123.5 L 142.0 123.5 L 142.5 123.5 L 143.5 123.5 L 144.5 123.5 L 146.0 123.5 L 148.0 123.5 L 150.5 123.5 L 154.0 123.5 L 157.0 123.0 L 159.5 123.0 L 160.5 123.0 L 160.5 123.0 L 160.5 123.0 L 160.5 123.0 L 159.5 123.5 " stroke="black" fill="none" stroke-width="6.0" stroke-linecap="round" stroke-linejoin="round" />
<path d="M 144.0 144.5 L 143.5 144.5 L 143.0 144.5 L 142.5 144.5 L 142.5 144.5 L 142.0 144.5 L 142.5 144.5 L 143.5 144.5 L 144.5 144.0 L 146.5 144.0 L 148.5 143.5 L 150.0 143.5 L 153.0 143.5 L 154.5 143.5 L 155.0 143.5 L 156.0 143.5 L 156.5 143.5 L 156.5 143.5 L 157.0 143.5 L 157.0 143.5 L 157.0 143.5 L 157.0 143.5 L 157.0 143.5 L 157.0 143.5 L 157.0 143.5 L 157.0 143.5 L 157.0 143.5 L 157.0 143.5 L 157.0 143.5 L 157.0 143.5 L 157.0 144.5 L 157.0 145.5 L 156.5 146.5 L 156.5 148.5 L 156.5 150.5 L 156.5 152.0 L 156.5 153.0 L 156.5 154.0 L 156.5 154.5 L 156.5 154.5 L 156.0 154.5 " stroke="black" fill="none" stroke-width="6.0" stroke-linecap="round" stroke-linejoin="round" />
</svg>