<svg xmlns="http://www.w3.org/2000/svg" width="300" height="300" viewBox="0 0 300 300">
<path d="M 142.0 129.0 L 141.0 129.0 L 139.5 129.0 L 138.5 129.0 L 138.0 128.5 L 138.0 128.5 L 139.0 128.0 L 142.5 127.5 L 146.5 127.0 L 152.0 126.5 L 157.5 126.5 L 162.0 126.5 L 164.5 126.5 L 165.5 127.0 L 165.5 127.0 L 165.5 127.0 L 165.0 127.0 L 165.0 127.0 L 165.0 127.0 L 164.5 127.0 L 164.5 127.0 L 164.5 127.5 L 164.0 128.0 L 163.0 129.5 L 161.5 132.0 L 159.0 135.5 L 156.0 139.5 L 153.0 143.5 L 150.0 147.5 L 147.0 151.5 L 144.0 154.5 L 141.5 157.0 L 139.5 159.0 L 138.0 160.5 L 137.0 161.5 L 136.5 162.0 L 136.5 162.0 L 136.5 162.0 L 136.5 162.0 L 136.5 162.0 L 136.5 162.0 L 136.5 162.0 L 136.5 162.0 L 136.5 162.0 L 136.5 162.0 L 136.5 162.0 L 136.5 162.0 L 136.5 162.0 L 136.5 162.0 L 137.0 162.0 L 137.5 162.0 L 139.0 162.0 L 143.0 161.5 L 149.5 161.0 L 156.0 160.5 L 161.5 160.5 L 165.0 160.5 L 167.5 160.5 L 170.0 160.0 L 170.5 160.0 L 171.0 160.0 L 171.0 160.0 L 171.0 160.0 L 171.0 160.0 L 171.0 160.0 L 171.0 159.5 " stroke="black" fill="none" stroke-width="6.0" stroke-linecap="round" stroke-linejoin="round" />
</svg>