<svg xmlns="http://www.w3.org/2000/svg" width="300" height="300" viewBox="0 0 300 300">
<path d="M 159.0 134.0 L 159.0 134.0 L 158.5 134.0 L 158.0 134.0 L 157.0 134.0 L 155.0 134.0 L 153.0 134.0 L 150.0 136.0 L 146.0 139.5 L 142.5 144.5 L 139.5 151.0 L 138.5 156.0 L 138.5 161.5 L 138.5 166.0 L 140.0 169.5 L 142.0 173.0 L 145.5 176.0 L 149.0 178.0 L 153.5 179.5 L 157.5 179.5 L 160.5 179.5 L 163.0 178.5 L 164.5 177.5 L 164.5 176.5 L 164.5 176.0 " stroke="black" fill="none" stroke-width="6.0" stroke-linecap="round" stroke-linejoin="round" />
<path d="M 157.0 152.0 L 157.0 152.0 L 157.0 152.0 L 157.5 152.0 L 157.5 152.0 L 157.0 152.0 L 156.0 152.0 L 154.5 153.0 L 153.0 154.5 L 152.5 156.0 L 152.5 157.0 L 154.0 157.5 L 155.5 157.5 L 157.0 156.0 L 158.0 154.5 L 158.0 153.5 L 158.0 152.5 L 158.0 152.5 L 157.5 152.0 L 156.5 152.0 L 156.5 152.0 L 156.0 152.0 L 156.0 152.0 L 156.0 152.5 " stroke="black" fill="none" stroke-width="6.0" stroke-linecap="round" stroke-linejoin="round" />
</svg>