<svg xmlns="http://www.w3.org/2000/svg" width="300" height="300" viewBox="0 0 300 300">
<path d="M 146.0 160.0 L 146.0 159.5 L 146.0 159.5 L 145.5 159.0 L 145.5 159.0 L 145.5 159.0 L 145.5 159.0 L 145.5 159.0 L 145.5 161.0 L 146.0 165.5 L 146.5 173.0 L 146.5 182.5 L 147.0 189.0 L 147.0 194.0 L 146.5 197.0 L 146.5 198.5 L 146.5 200.0 L 146.5 201.0 L 146.5 201.5 L 146.5 201.5 L 146.5 200.5 " stroke="black" fill="none" stroke-width="6.0" stroke-linecap="round" stroke-linejoin="round" />
<path d="M 148.0 179.5 L 147.5 180.0 L 146.5 180.0 L 145.5 180.0 L 145.5 180.0 L 146.0 180.0 L 148.0 180.5 L 151.5 180.5 L 155.5 181.0 L 160.0 181.0 L 164.5 181.0 L 168.0 181.0 L 169.0 181.0 L 169.5 181.0 L 169.5 181.0 " stroke="black" fill="none" stroke-width="6.0" stroke-linecap="round" stroke-linejoin="round" />
</svg>