<svg xmlns="http://www.w3.org/2000/svg" width="300" height="300" viewBox="0 0 300 300">
<path d="M 165.0 141.5 L 164.5 140.5 L 164.0 139.5 L 163.5 139.0 L 163.0 138.0 L 162.0 137.5 L 160.5 137.0 L 158.5 137.0 L 156.0 137.0 L 153.5 137.0 L 151.0 138.0 L 149.5 139.5 L 148.0 141.0 L 146.5 142.5 L 145.0 144.5 L 144.5 146.5 L 143.5 149.0 L 143.0 151.0 L 143.0 153.0 L 142.5 155.5 L 142.5 158.0 L 143.0 159.5 L 144.0 161.0 L 145.5 162.5 L 147.0 163.5 L 148.5 164.5 L 150.0 165.0 L 151.5 165.5 L 153.0 166.5 L 154.5 166.5 L 155.5 167.0 L 156.0 167.5 L 157.0 168.0 L 157.5 168.0 L 158.0 168.5 L 158.5 169.0 L 158.5 169.5 L 159.0 170.0 L 159.0 170.5 L 159.5 171.5 L 159.5 172.0 L 159.5 172.5 L 159.0 173.5 L 158.5 174.5 L 158.0 175.0 L 156.5 176.0 L 155.5 176.5 L 154.5 177.0 L 153.5 177.5 L 152.5 178.0 L 151.5 178.0 " stroke="black" fill="none" stroke-width="6.0" stroke-linecap="round" stroke-linejoin="round" />
</svg>