<svg xmlns="http://www.w3.org/2000/svg" width="300" height="300" viewBox="0 0 300 300">
<path d="M 147.5 123.0 L 146.5 122.5 L 146.0 122.5 L 146.0 122.5 L 146.0 122.5 L 147.0 122.5 L 147.5 122.5 " stroke="black" fill="none" stroke-width="6.0" stroke-linecap="round" stroke-linejoin="round" />
<path d="M 159.5 124.0 L 159.5 124.5 L 160.0 124.5 L 160.0 124.5 L 160.0 124.5 L 160.0 124.5 L 160.0 124.5 " stroke="black" fill="none" stroke-width="6.0" stroke-linecap="round" stroke-linejoin="round" />
<path d="M 140.5 134.5 L 140.5 134.5 L 140.5 134.5 L 140.5 134.5 L 140.5 134.5 L 140.5 135.0 L 141.0 135.0 L 142.0 136.0 L 143.0 137.5 L 145.0 140.0 L 147.0 143.0 L 149.0 146.0 L 150.5 148.5 L 152.0 150.5 L 152.5 152.0 L 153.5 153.0 L 154.0 154.0 L 154.5 154.5 L 154.5 154.5 L 154.5 154.5 L 154.5 154.5 L 155.0 154.0 L 155.0 153.0 L 156.0 151.5 L 157.0 149.0 L 158.5 147.0 L 160.0 144.5 L 161.5 142.5 L 162.5 141.0 L 163.0 140.0 L 163.5 139.5 L 164.0 138.5 L 165.0 138.0 L 165.5 137.5 L 166.0 137.0 L 166.5 136.5 L 167.0 136.5 L 167.5 136.0 L 168.0 136.0 L 168.0 135.5 L 168.5 135.5 L 168.5 135.5 L 168.5 135.5 L 168.5 135.5 L 168.5 135.5 L 168.5 135.5 L 168.5 135.5 L 168.5 135.5 L 168.5 135.5 " stroke="black" fill="none" stroke-width="6.0" stroke-linecap="round" stroke-linejoin="round" />
<path d="M 152.0 154.0 L 152.0 154.0 L 152.0 153.5 L 152.0 153.5 L 152.0 153.0 L 152.0 153.0 L 152.5 153.0 L 153.0 153.5 L 153.0 155.5 L 153.5 158.5 L 154.0 162.5 L 154.0 166.5 L 154.0 169.0 L 154.0 170.5 L 154.0 172.0 L 154.5 173.0 L 154.5 174.0 L 154.5 174.5 L 154.5 175.0 L 154.5 175.0 L 155.0 175.0 L 155.0 175.0 " stroke="black" fill="none" stroke-width="6.0" stroke-linecap="round" stroke-linejoin="round" />
</svg>