<svg xmlns="http://www.w3.org/2000/svg" width="300" height="300" viewBox="0 0 300 300">
<path d="M 143.5 133.0 L 143.5 133.0 L 143.0 133.0 L 142.5 133.5 L 142.5 133.5 L 142.5 134.0 L 142.5 135.0 L 143.0 137.5 L 143.5 141.5 L 144.0 147.0 L 144.5 153.0 L 145.0 159.0 L 145.0 164.5 L 145.5 170.0 L 146.0 175.0 L 146.5 178.5 L 146.5 180.0 L 147.0 180.5 L 147.0 180.0 L 146.5 177.5 L 146.0 175.5 " stroke="black" fill="none" stroke-width="6.0" stroke-linecap="round" stroke-linejoin="round" />
<path d="M 147.5 133.5 L 145.5 134.5 L 145.0 134.5 L 145.0 134.5 L 145.5 134.5 L 147.0 134.5 L 149.0 134.5 L 152.0 134.5 L 155.5 134.5 L 160.0 134.5 L 163.5 134.5 L 166.0 134.5 L 167.0 134.5 L 167.0 134.5 L 166.0 134.5 L 165.5 134.5 " stroke="black" fill="none" stroke-width="6.0" stroke-linecap="round" stroke-linejoin="round" />
<path d="M 148.5 153.0 L 148.5 153.0 L 147.5 153.5 L 147.0 153.5 L 146.5 154.0 L 146.0 154.0 L 146.0 154.0 L 147.0 154.0 L 148.5 153.5 L 150.0 153.0 L 152.5 153.0 L 154.5 153.0 L 156.0 153.0 L 157.5 153.0 L 159.0 153.0 L 160.0 153.0 L 160.5 153.0 L 161.0 153.0 L 161.5 153.0 L 162.0 153.0 L 162.0 153.0 L 162.0 153.0 L 162.0 153.0 L 162.0 153.0 L 162.0 153.0 L 162.0 153.0 L 162.0 153.0 L 162.0 153.0 L 162.0 153.5 L 161.5 154.0 L 161.5 154.5 L 161.5 155.0 L 161.5 156.0 L 161.0 157.5 L 161.0 158.5 L 161.0 160.0 L 161.0 161.5 L 161.0 162.0 L 161.0 163.0 L 161.0 163.0 L 161.0 163.0 L 161.0 162.5 " stroke="black" fill="none" stroke-width="6.0" stroke-linecap="round" stroke-linejoin="round" />
</svg>