<svg xmlns="http://www.w3.org/2000/svg" width="300" height="300" viewBox="0 0 300 300">
<path d="M 140.5 122.5 L 140.5 122.5 L 140.0 122.0 L 140.0 121.5 L 139.5 121.5 L 139.0 121.5 L 138.0 121.5 L 137.0 121.5 L 135.5 122.0 L 134.5 123.5 L 133.0 124.5 L 132.0 126.0 L 131.0 127.5 L 130.5 129.0 L 129.5 130.5 L 129.0 132.0 L 129.0 133.0 L 129.0 134.5 L 129.0 135.5 L 129.0 136.5 L 129.0 137.5 L 129.0 138.5 L 129.0 139.5 L 129.5 140.5 L 129.5 141.5 L 130.0 142.5 L 130.5 143.5 L 131.5 144.5 L 132.0 145.0 L 133.0 146.0 L 134.0 146.5 L 135.0 147.0 L 136.0 147.0 L 137.5 147.5 L 138.5 148.0 L 140.0 148.5 L 141.5 148.5 L 142.5 148.5 L 144.0 148.5 L 145.5 148.5 L 146.5 148.5 L 148.0 148.0 L 149.0 147.5 L 150.0 147.0 L 151.5 146.0 L 152.5 145.0 L 153.5 144.0 L 154.5 143.0 L 155.0 142.0 L 155.0 141.5 L 155.0 140.5 L 155.0 139.5 L 155.0 138.5 L 155.0 137.0 L 155.0 136.0 L 155.0 135.0 L 155.0 134.0 L 155.0 133.0 L 155.5 132.0 L 155.5 131.0 L 155.5 130.0 L 156.0 129.0 L 156.0 128.5 L 156.0 127.5 L 156.5 127.0 L 156.5 126.0 L 156.5 126.0 L 156.5 125.5 L 156.5 125.0 L 156.5 125.0 L 156.5 125.0 L 156.5 125.0 L 156.5 125.0 L 156.5 125.0 L 156.5 125.0 L 156.5 125.0 L 156.5 124.5 L 156.5 124.5 L 156.5 124.5 L 156.5 124.5 L 156.5 124.5 L 156.5 124.5 L 156.5 124.5 L 156.5 124.5 L 156.5 124.5 L 156.5 124.5 L 156.5 124.5 L 156.5 125.0 L 156.0 125.5 L 156.0 127.0 L 156.0 128.5 L 155.5 130.5 L 155.5 132.5 L 155.5 134.0 L 155.0 136.0 L 155.0 138.0 L 155.0 140.0 L 154.5 142.0 L 154.5 145.0 L 154.5 147.0 L 154.0 148.5 L 154.0 150.0 L 154.0 151.5 L 154.0 152.5 L 154.0 154.0 L 154.0 155.5 L 154.0 156.5 L 154.0 157.5 L 154.0 158.5 L 154.0 159.5 L 154.0 160.0 L 154.0 160.5 L 154.0 161.0 L 154.0 161.5 L 154.0 162.0 L 154.0 162.0 L 154.0 162.5 L 154.0 162.5 L 154.0 163.0 L 154.0 163.0 L 154.0 163.5 L 154.0 163.5 L 154.0 164.0 L 154.0 164.5 L 154.0 165.0 L 154.0 165.5 L 154.0 166.0 L 154.0 166.0 L 154.0 166.5 L 154.0 167.0 L 154.0 167.0 L 154.0 167.5 " stroke="black" fill="none" stroke-width="6.0" stroke-linecap="round" stroke-linejoin="round" />
</svg>