<svg xmlns="http://www.w3.org/2000/svg" width="300" height="300" viewBox="0 0 300 300">
<path d="M 160.0 131.0 L 160.0 131.0 L 160.0 130.5 L 160.0 130.0 L 160.0 129.5 L 159.5 129.0 L 159.0 128.5 L 158.5 128.0 L 157.0 128.0 L 155.5 128.0 L 153.5 128.0 L 151.5 129.0 L 150.0 130.0 L 148.5 131.0 L 147.0 132.5 L 146.0 133.5 L 145.0 134.5 L 144.5 136.0 L 143.5 137.5 L 142.5 139.0 L 142.0 140.5 L 141.5 142.0 L 141.0 144.0 L 140.5 145.5 L 140.5 147.0 L 140.5 148.5 L 140.5 150.0 L 140.5 151.0 L 141.0 152.0 L 141.5 153.0 L 142.5 154.0 L 143.5 154.5 L 144.5 155.5 L 145.5 156.0 L 146.5 156.5 L 147.5 157.5 L 148.5 158.0 L 149.5 158.5 L 150.5 159.0 L 151.5 159.5 L 152.5 160.0 L 153.0 160.5 L 153.5 161.0 L 154.0 161.5 L 155.0 162.5 L 155.5 163.0 L 155.5 163.5 L 156.0 164.0 L 156.5 164.5 L 157.0 165.5 L 157.5 166.0 L 158.0 166.5 L 158.5 167.0 L 158.5 167.5 L 159.0 168.5 L 159.5 169.0 L 159.5 170.0 L 159.5 170.5 L 159.5 170.5 L 159.5 171.0 L 159.5 171.5 L 159.5 171.5 L 159.5 172.0 L 159.0 172.0 L 159.0 172.5 L 158.5 172.5 L 158.0 173.0 L 157.5 173.0 L 157.5 173.5 L 157.0 173.5 L 156.5 173.5 L 156.5 174.0 L 156.0 174.0 L 155.5 174.0 L 155.0 174.5 L 155.0 174.5 L 154.0 174.5 L 153.5 174.5 L 153.0 174.5 L 152.5 174.5 L 152.0 174.5 L 151.0 174.5 L 150.0 174.5 L 149.5 174.5 L 148.5 174.5 L 148.0 174.5 L 147.0 174.5 L 146.5 174.0 L 146.0 174.0 L 146.0 173.5 " stroke="black" fill="none" stroke-width="6.0" stroke-linecap="round" stroke-linejoin="round" />
</svg>