<svg xmlns="http://www.w3.org/2000/svg" width="300" height="300" viewBox="0 0 300 300">
<path d="M 133.5 129.5 L 134.0 128.5 L 134.0 127.5 L 134.0 127.5 L 134.0 127.5 L 134.0 127.5 L 134.5 128.5 L 134.5 131.0 L 135.0 135.5 L 135.0 142.0 L 135.0 149.0 L 135.5 155.0 L 135.5 158.5 L 135.5 160.5 L 135.5 161.5 L 135.5 162.5 L 136.0 163.5 L 136.5 164.0 L 136.5 164.0 L 137.0 164.0 L 138.0 162.5 L 139.5 159.0 L 141.5 155.5 L 144.5 151.0 L 150.0 145.0 L 155.5 139.5 L 161.0 134.5 L 164.0 131.0 L 164.5 130.0 L 164.5 130.0 L 164.5 130.0 L 164.5 130.0 L 164.5 130.0 L 164.5 130.0 L 164.5 130.0 L 164.5 130.5 L 164.5 130.5 L 164.5 130.5 L 164.5 130.5 L 164.5 130.5 L 164.0 130.5 L 164.0 130.5 L 164.0 130.5 " stroke="black" fill="none" stroke-width="6.0" stroke-linecap="round" stroke-linejoin="round" />
<path d="M 149.5 149.5 L 149.5 149.5 L 149.0 149.5 L 149.0 149.5 L 149.0 149.5 L 149.0 149.5 L 150.5 150.5 L 153.0 152.5 L 157.0 155.0 L 161.0 158.5 L 164.5 161.5 L 166.0 163.0 L 167.0 163.5 L 167.0 164.0 L 167.0 164.0 L 167.0 164.0 L 167.0 163.5 L 167.0 163.0 " stroke="black" fill="none" stroke-width="6.0" stroke-linecap="round" stroke-linejoin="round" />
<path d="M 167.0 164.0 L 167.0 164.0 L 167.0 163.5 L 167.0 163.5 L 167.0 163.0 L 167.0 163.0 L 167.0 163.0 L 167.0 163.0 L 167.0 164.0 L 167.0 165.5 L 167.0 167.0 L 166.5 169.0 L 166.0 171.0 L 165.0 173.0 L 164.5 174.5 L 163.5 176.0 L 163.0 177.0 L 162.0 177.5 L 161.0 178.0 L 160.5 178.5 L 159.5 179.5 L 158.5 180.0 L 157.5 180.5 L 157.0 180.5 L 156.0 181.0 L 155.5 181.0 L 154.5 181.5 L 153.5 181.5 L 153.0 181.5 L 152.0 181.5 L 151.0 181.5 L 150.0 181.0 L 149.0 181.0 L 147.5 180.5 L 146.5 180.0 L 145.5 179.5 L 145.0 179.5 L 144.5 179.5 L 144.5 178.5 " stroke="black" fill="none" stroke-width="6.0" stroke-linecap="round" stroke-linejoin="round" />
</svg>