<svg xmlns="http://www.w3.org/2000/svg" width="300" height="300" viewBox="0 0 300 300">
<path d="M 158.0 130.5 L 158.5 130.5 L 159.5 130.5 L 159.5 130.5 L 160.0 130.5 L 160.0 130.0 L 160.0 130.0 L 159.5 129.5 L 158.0 129.0 L 155.5 129.0 L 153.0 129.0 L 150.0 130.0 L 146.5 132.0 L 144.0 135.0 L 142.0 137.5 L 140.0 140.5 L 139.0 143.5 L 138.5 147.0 L 138.5 150.0 L 140.0 152.5 L 142.5 154.5 L 145.5 156.0 L 148.0 156.5 L 151.5 156.5 L 154.0 156.5 L 155.0 156.5 L 155.5 156.0 L 155.5 156.0 L 155.5 156.0 L 155.5 156.0 L 155.0 156.0 L 154.5 156.0 L 153.5 156.0 L 152.0 156.0 L 150.5 156.0 L 148.5 156.5 L 146.5 157.0 L 144.0 158.0 L 141.5 160.0 L 139.0 162.5 L 138.0 165.0 L 137.5 167.5 L 137.5 169.5 L 138.0 171.5 L 139.0 173.0 L 141.0 174.5 L 142.5 175.5 L 144.5 177.0 L 147.0 179.0 L 150.0 180.5 L 153.0 181.5 L 156.0 182.5 L 159.0 182.5 L 161.0 182.5 L 163.0 181.5 L 164.5 180.5 L 165.0 180.0 L 165.5 179.0 L 166.0 178.5 L 166.0 178.0 L 166.0 177.5 L 166.0 177.5 L 166.0 177.5 L 166.0 177.5 " stroke="black" fill="none" stroke-width="6.0" stroke-linecap="round" stroke-linejoin="round" />
</svg>