<svg xmlns="http://www.w3.org/2000/svg" width="300" height="300" viewBox="0 0 300 300">
<path d="M 131.0 123.0 L 131.0 122.5 L 131.0 122.0 L 131.0 121.5 L 131.0 121.5 L 131.0 122.0 L 132.5 123.5 L 134.0 126.0 L 135.5 129.0 L 137.5 133.0 L 139.0 138.0 L 141.0 143.5 L 142.5 148.0 L 144.5 152.0 L 146.0 155.0 L 147.5 158.0 L 148.5 160.0 L 149.5 160.5 L 149.5 160.5 L 149.5 160.5 L 149.5 160.0 L 149.5 160.0 L 149.5 159.5 L 150.0 159.0 L 151.0 158.0 L 152.0 157.0 L 153.0 156.0 L 154.5 154.5 L 156.0 152.0 L 160.0 147.0 L 165.5 140.5 L 171.0 134.5 L 173.5 131.5 L 174.5 130.5 L 174.5 129.5 L 174.5 129.5 L 175.0 128.0 L 175.0 128.0 L 175.0 128.5 L 175.0 128.5 " stroke="black" fill="none" stroke-width="6.0" stroke-linecap="round" stroke-linejoin="round" />
<path d="M 149.0 160.5 L 149.0 160.0 L 149.0 159.5 L 149.0 159.5 L 149.0 159.0 L 149.0 160.0 L 150.0 162.5 L 150.5 167.5 L 151.5 173.5 L 151.5 180.0 L 152.0 185.5 L 152.0 187.5 L 152.5 187.5 L 152.5 187.0 L 152.5 186.5 " stroke="black" fill="none" stroke-width="6.0" stroke-linecap="round" stroke-linejoin="round" />
</svg>