<svg xmlns="http://www.w3.org/2000/svg" width="300" height="300" viewBox="0 0 300 300">
<path d="M 132.5 141.5 L 132.5 142.0 L 132.5 142.5 L 133.0 142.5 L 134.0 142.0 L 135.5 140.5 L 136.5 138.5 L 137.0 136.0 L 137.5 134.0 L 137.0 132.0 L 136.0 131.0 L 135.0 130.0 L 133.5 129.5 L 132.0 129.0 L 130.5 129.0 L 129.0 129.5 L 128.0 130.0 L 127.5 130.5 L 126.5 131.5 L 126.0 132.0 L 125.0 133.0 L 124.5 134.5 L 124.0 136.5 L 124.0 138.5 L 124.0 140.5 L 124.0 142.5 L 124.0 144.5 L 125.0 146.0 L 126.0 147.5 L 127.0 149.0 L 129.0 149.5 L 130.5 150.0 L 132.5 150.5 L 135.0 150.5 L 137.5 150.0 L 140.0 149.0 L 142.5 148.0 L 144.5 147.0 L 146.0 146.0 L 147.0 144.5 L 148.5 143.5 L 150.0 142.0 L 151.5 141.0 L 152.5 140.5 L 153.5 140.0 L 154.5 140.0 L 154.5 140.0 L 155.0 139.5 L 155.5 139.5 L 156.0 139.5 L 156.5 139.5 L 157.0 139.5 L 157.5 139.5 L 157.5 139.5 L 158.0 139.5 L 158.5 139.5 L 159.0 139.5 L 159.5 140.0 L 160.0 140.0 L 160.0 140.5 L 160.5 141.0 L 160.5 142.0 L 161.0 143.0 L 161.0 144.5 L 161.0 146.0 L 161.0 148.0 L 161.0 150.0 L 161.0 152.0 L 161.0 153.5 L 161.0 155.0 L 161.0 156.5 L 161.0 158.0 L 161.0 159.5 L 161.0 161.5 L 161.0 163.0 L 161.0 164.5 L 161.0 165.5 L 160.5 167.0 L 160.5 168.5 L 160.0 170.0 L 160.0 171.5 L 159.5 172.5 L 159.0 173.5 L 158.0 174.5 L 157.0 175.5 L 156.0 176.5 L 154.5 177.0 L 153.5 178.0 L 153.0 178.0 " stroke="black" fill="none" stroke-width="6.0" stroke-linecap="round" stroke-linejoin="round" />
</svg>