<svg xmlns="http://www.w3.org/2000/svg" width="300" height="300" viewBox="0 0 300 300">
<path d="M 148.5 116.5 L 148.5 116.5 L 148.0 116.0 L 147.5 116.0 L 147.5 115.5 L 147.0 115.5 L 147.0 115.5 L 146.5 115.5 L 145.5 116.5 L 144.5 118.5 L 143.5 121.0 L 143.0 125.0 L 143.0 128.5 L 143.0 131.5 L 144.0 134.0 L 145.0 136.0 L 146.0 137.5 L 147.0 138.5 L 148.0 139.0 L 149.0 139.5 L 150.0 139.5 L 151.0 139.5 L 152.0 138.5 L 153.0 137.5 L 154.0 136.0 L 155.0 134.5 L 155.5 133.0 L 156.0 131.0 L 156.0 129.5 L 156.0 127.5 L 156.0 125.5 L 155.5 123.5 L 155.0 122.0 L 154.5 121.0 L 154.5 120.5 L 154.0 120.0 L 153.0 119.5 L 152.5 119.0 L 152.0 118.5 L 151.0 118.0 L 150.5 117.5 L 150.0 117.5 L 149.5 117.5 L 148.5 117.5 L 148.0 117.5 L 147.5 118.5 L 147.5 119.0 " stroke="black" fill="none" stroke-width="6.0" stroke-linecap="round" stroke-linejoin="round" />
</svg>