<svg xmlns="http://www.w3.org/2000/svg" width="300" height="300" viewBox="0 0 300 300">
<path d="M 153.5 154.5 L 153.5 154.0 L 153.5 153.5 L 153.5 152.5 L 153.0 151.5 L 152.0 150.5 L 150.5 150.0 L 149.0 150.0 L 147.0 150.5 L 145.0 152.0 L 143.5 154.5 L 143.5 157.5 L 144.0 160.0 L 146.5 162.0 L 149.5 162.5 L 152.0 162.0 L 154.0 159.5 L 155.0 156.0 L 155.0 153.0 L 154.0 151.0 L 152.5 149.5 L 151.0 149.0 L 149.0 149.0 L 147.0 151.0 L 145.5 154.5 L 144.5 158.5 L 145.0 162.5 L 147.0 165.0 L 150.0 165.5 L 153.5 164.5 L 156.0 161.5 L 157.5 158.5 L 157.5 155.5 L 157.0 153.0 L 155.5 152.0 L 153.5 151.5 L 151.5 151.5 L 149.5 152.5 L 147.5 155.0 L 147.0 158.0 L 146.5 160.5 L 147.5 162.0 L 150.5 163.0 L 153.0 162.5 L 155.5 160.5 L 156.5 157.5 L 156.5 155.0 L 155.5 152.5 L 153.5 151.0 L 151.5 150.5 L 149.0 151.5 L 147.5 154.0 L 146.5 157.5 L 146.5 160.0 L 148.5 161.5 L 151.0 162.0 L 153.5 162.0 L 155.5 160.0 L 156.5 157.5 L 157.0 156.0 L 156.0 155.0 L 154.5 154.5 L 152.5 154.5 L 151.0 155.5 L 150.5 157.0 L 150.0 159.0 L 151.0 160.5 L 153.0 161.0 L 154.5 161.0 L 156.0 159.5 L 156.5 157.5 L 156.0 155.5 L 155.0 155.0 L 153.0 154.5 L 151.5 155.5 L 150.5 158.0 L 150.5 160.0 L 152.0 161.0 L 154.0 161.5 L 155.5 161.0 L 156.5 159.0 L 157.0 157.0 L 156.0 155.0 L 154.0 154.0 L 152.0 154.0 L 150.5 154.5 L 149.5 156.5 L 149.5 156.5 L 150.0 159.5 " stroke="black" fill="none" stroke-width="6.0" stroke-linecap="round" stroke-linejoin="round" />
</svg>