<svg xmlns="http://www.w3.org/2000/svg" width="300" height="300" viewBox="0 0 300 300">
<path d="M 162.0 115.0 L 162.5 115.0 L 162.5 115.0 L 163.0 115.0 L 163.0 115.0 L 163.0 115.0 L 162.5 115.0 L 161.5 115.0 L 160.5 115.5 L 158.5 116.5 L 157.0 118.5 L 155.5 121.5 L 154.5 124.0 L 154.5 126.5 L 155.5 128.5 L 157.0 129.5 L 159.0 130.5 L 161.0 130.5 L 163.5 130.0 L 166.0 128.5 L 167.5 126.0 L 168.5 123.5 L 168.5 121.0 L 168.5 119.5 L 167.5 118.0 L 166.0 116.5 L 164.0 115.0 L 162.5 114.0 L 160.5 112.5 L 159.0 112.0 L 158.0 111.0 L 157.5 110.5 L 157.0 110.0 L 157.0 109.0 L 157.0 108.0 L 158.0 107.0 L 159.0 106.0 L 160.5 105.5 L 162.5 104.5 L 164.0 103.5 L 165.5 103.5 L 167.0 103.5 L 168.0 103.5 L 169.0 103.5 L 169.5 103.5 L 170.5 104.0 L 171.0 105.0 L 171.5 105.5 L 171.5 106.5 L 172.0 107.5 L 172.0 108.5 L 172.0 110.0 L 172.0 112.0 L 171.5 113.0 L 170.5 114.5 L 169.5 115.5 L 168.0 116.5 L 166.5 117.5 L 165.0 118.0 L 164.5 118.5 " stroke="black" fill="none" stroke-width="6.0" stroke-linecap="round" stroke-linejoin="round" />
</svg>