<svg xmlns="http://www.w3.org/2000/svg" width="300" height="300" viewBox="0 0 300 300">
<path d="M 133.5 120.0 L 134.0 119.5 L 134.5 119.0 L 134.5 119.0 L 134.5 119.0 L 134.5 119.0 L 134.5 120.5 L 135.0 125.0 L 135.5 133.5 L 136.0 147.0 L 137.0 157.5 L 137.5 162.0 L 137.5 162.5 L 137.5 162.0 " stroke="black" fill="none" stroke-width="6.0" stroke-linecap="round" stroke-linejoin="round" />
<path d="M 159.5 123.0 L 159.5 123.0 L 160.0 122.0 L 160.0 121.5 L 160.0 121.0 L 160.0 121.0 L 160.0 122.0 L 160.5 125.5 L 161.0 132.0 L 161.0 142.5 L 161.5 153.0 L 162.0 159.0 L 162.0 159.5 " stroke="black" fill="none" stroke-width="6.0" stroke-linecap="round" stroke-linejoin="round" />
<path d="M 136.0 172.5 L 136.5 172.0 L 137.0 172.0 L 137.0 171.5 L 137.0 171.5 L 136.5 172.0 L 136.0 173.5 L 136.0 175.0 L 136.0 176.0 L 137.0 176.5 L 138.0 176.5 L 139.0 175.5 L 139.5 174.0 L 139.5 173.0 L 138.5 173.0 L 137.5 173.0 L 136.5 174.0 L 136.5 175.5 L 136.5 176.5 L 137.5 176.5 L 139.0 176.5 L 140.0 175.5 L 140.5 174.5 " stroke="black" fill="none" stroke-width="6.0" stroke-linecap="round" stroke-linejoin="round" />
<path d="M 166.5 176.0 L 166.5 175.5 L 166.0 175.0 L 165.5 174.5 L 165.5 174.5 L 165.0 174.5 L 165.0 175.0 L 164.5 177.0 L 164.5 179.0 L 164.5 180.0 L 165.5 180.0 L 166.5 178.5 L 167.0 177.0 L 167.0 175.5 L 167.0 175.0 L 166.5 175.0 L 165.5 175.0 L 165.5 175.5 " stroke="black" fill="none" stroke-width="6.0" stroke-linecap="round" stroke-linejoin="round" />
</svg>