<svg xmlns="http://www.w3.org/2000/svg" width="300" height="300" viewBox="0 0 300 300">
<path d="M 126.0 148.0 L 125.5 148.0 L 125.0 148.0 L 125.0 148.0 L 126.0 148.0 L 131.0 147.5 L 140.0 147.5 L 151.5 147.5 L 161.0 147.5 L 167.0 147.5 L 169.5 147.5 L 170.0 147.5 L 170.0 147.5 L 170.0 147.0 L 170.0 147.0 L 170.0 147.0 L 170.0 147.0 " stroke="black" fill="none" stroke-width="6.0" stroke-linecap="round" stroke-linejoin="round" />
<path d="M 150.0 122.0 L 150.0 121.5 L 150.0 121.0 L 150.0 121.0 L 150.0 121.0 L 150.0 122.0 L 150.5 127.0 L 150.5 138.0 L 150.5 152.5 L 150.0 164.5 L 149.5 171.0 L 149.5 172.5 L 149.5 172.5 L 149.5 170.0 L 149.0 169.0 " stroke="black" fill="none" stroke-width="6.0" stroke-linecap="round" stroke-linejoin="round" />
<path d="M 133.0 131.0 L 133.5 131.5 L 133.5 131.5 L 133.5 132.0 L 133.5 132.5 L 134.0 133.5 L 134.5 135.0 L 134.5 135.5 L 135.0 136.0 L 135.5 135.5 L 135.5 134.0 L 135.5 133.0 L 135.5 132.0 L 135.5 131.5 L 135.5 131.5 L 135.5 131.5 L 135.5 131.5 " stroke="black" fill="none" stroke-width="6.0" stroke-linecap="round" stroke-linejoin="round" />
<path d="M 164.0 134.5 L 164.0 134.5 L 163.5 135.0 L 163.5 135.0 L 163.0 135.5 L 163.0 135.5 L 163.0 136.0 L 163.0 136.5 L 163.0 137.0 L 163.5 137.5 L 164.0 137.0 L 165.0 136.0 L 165.0 135.0 L 165.0 134.0 L 165.0 134.0 " stroke="black" fill="none" stroke-width="6.0" stroke-linecap="round" stroke-linejoin="round" />
<path d="M 137.5 165.5 L 138.0 164.5 L 138.0 164.0 L 138.0 163.5 L 138.0 163.5 L 137.5 163.5 L 137.0 164.0 L 136.5 165.0 L 136.0 166.0 L 136.0 166.5 L 137.0 166.5 L 137.5 165.5 L 138.0 164.5 L 138.0 163.0 L 138.0 162.5 L 137.5 162.5 L 137.5 163.5 L 137.5 164.5 " stroke="black" fill="none" stroke-width="6.0" stroke-linecap="round" stroke-linejoin="round" />
<path d="M 165.0 164.0 L 165.0 164.0 L 164.5 164.0 L 164.5 164.0 L 164.5 164.0 L 164.5 164.0 L 165.0 165.0 L 165.5 166.0 L 166.5 166.5 L 167.5 166.5 L 168.0 166.0 L 168.5 165.5 L 168.5 165.0 L 168.5 165.0 L 169.0 165.0 L 169.0 165.5 " stroke="black" fill="none" stroke-width="6.0" stroke-linecap="round" stroke-linejoin="round" />
</svg>