<svg xmlns="http://www.w3.org/2000/svg" width="300" height="300" viewBox="0 0 300 300">
<path d="M 151.0 195.5 L 151.0 195.5 L 151.0 195.0 L 151.0 194.5 L 151.0 194.0 L 150.5 193.5 L 149.5 193.0 L 148.0 193.0 L 146.0 194.0 L 143.5 196.0 L 142.5 199.0 L 142.0 202.0 L 142.5 204.5 L 145.0 206.0 L 147.5 206.5 L 150.5 205.5 L 152.5 203.0 L 154.0 200.0 L 154.5 197.5 L 154.5 196.0 L 154.0 195.5 L 154.0 195.5 L 153.5 195.5 L 153.5 196.5 L 153.0 198.0 L 153.0 200.0 L 153.5 203.0 L 154.0 206.5 L 154.5 210.0 L 154.5 213.5 L 154.0 216.0 L 153.0 218.0 L 151.0 219.0 L 149.5 219.0 L 147.5 219.0 L 145.0 218.0 L 144.0 217.5 L 143.0 217.0 L 142.5 216.5 " stroke="black" fill="none" stroke-width="6.0" stroke-linecap="round" stroke-linejoin="round" />
</svg>