<svg xmlns="http://www.w3.org/2000/svg" width="300" height="300" viewBox="0 0 300 300">
<path d="M 149.0 133.5 L 149.0 133.5 L 149.0 133.0 L 149.0 133.0 L 149.0 133.0 L 149.0 133.0 L 149.0 132.5 L 149.5 132.5 L 149.5 133.0 L 149.5 134.5 L 149.5 138.0 L 149.5 142.5 L 149.5 151.5 L 149.5 154.5 L 150.0 156.5 L 150.0 158.0 L 150.0 160.0 L 150.0 161.5 L 150.0 163.0 L 150.0 164.5 L 150.5 166.0 L 150.5 167.0 L 150.5 167.5 L 150.5 168.5 L 150.5 169.5 L 150.5 170.5 L 151.0 171.5 L 151.0 172.0 L 151.0 172.0 L 151.0 172.0 L 151.0 172.0 L 151.0 172.0 L 151.0 171.5 L 151.0 171.5 " stroke="black" fill="none" stroke-width="6.0" stroke-linecap="round" stroke-linejoin="round" />
</svg>