<svg xmlns="http://www.w3.org/2000/svg" width="300" height="300" viewBox="0 0 300 300">
<path d="M 137.0 138.0 L 137.0 137.0 L 137.0 136.0 L 137.0 135.5 L 137.0 135.0 L 137.0 135.0 L 137.5 135.0 L 138.0 135.0 L 139.5 136.5 L 141.5 139.5 L 144.0 144.5 L 146.5 151.0 L 148.5 156.0 L 150.0 159.0 L 150.5 160.0 L 151.0 160.5 L 151.0 160.5 L 151.0 160.5 L 151.0 160.5 L 151.0 160.0 L 151.5 159.5 L 152.0 158.5 L 153.0 156.5 L 154.5 153.0 L 158.0 147.5 L 163.0 140.0 L 167.0 135.0 L 168.5 132.5 L 168.5 132.5 L 168.5 132.5 L 168.5 132.5 L 168.0 132.5 L 168.0 132.5 L 168.0 132.5 L 168.0 132.5 L 168.0 133.0 L 168.0 133.0 L 168.0 133.0 L 168.0 133.0 L 168.0 133.0 L 168.0 133.0 L 168.0 133.0 " stroke="black" fill="none" stroke-width="6.0" stroke-linecap="round" stroke-linejoin="round" />
</svg>