<svg xmlns="http://www.w3.org/2000/svg" width="300" height="300" viewBox="0 0 300 300">
<path d="M 135.0 135.0 L 135.5 135.0 L 136.0 135.0 L 136.0 135.0 L 136.5 135.0 L 136.5 134.5 L 137.0 134.5 L 137.0 136.0 L 137.0 141.5 L 137.0 152.0 L 137.0 162.5 L 137.5 167.5 L 138.0 168.5 L 138.0 167.5 " stroke="black" fill="none" stroke-width="6.0" stroke-linecap="round" stroke-linejoin="round" />
<path d="M 149.5 136.0 L 149.5 136.0 L 149.5 136.0 L 149.0 136.0 L 149.0 136.0 L 149.0 137.5 L 150.5 142.0 L 152.5 148.5 L 154.0 155.0 L 155.5 160.5 L 157.5 164.5 L 158.5 166.5 L 159.5 167.0 L 159.5 167.0 L 159.5 166.0 L 160.0 165.0 L 160.0 163.0 L 160.5 161.0 L 161.0 159.0 L 162.0 156.0 L 163.5 152.5 L 166.0 148.0 L 168.0 143.0 L 169.5 138.5 L 169.5 136.0 L 169.5 135.0 L 169.5 134.5 L 169.5 134.5 L 170.0 134.5 L 170.0 134.5 L 170.0 134.5 L 170.0 134.5 L 170.0 134.5 L 170.0 134.5 L 170.0 134.5 L 170.0 134.5 L 170.0 135.0 " stroke="black" fill="none" stroke-width="6.0" stroke-linecap="round" stroke-linejoin="round" />
</svg>