<svg xmlns="http://www.w3.org/2000/svg" width="300" height="300" viewBox="0 0 300 300">
<path d="M 150.0 138.5 L 150.0 138.0 L 150.0 137.5 L 150.0 137.0 L 150.0 137.0 L 150.0 137.0 L 150.0 137.0 L 150.5 139.5 L 150.5 144.0 L 151.0 150.5 L 151.0 159.0 L 151.0 166.0 L 151.5 169.5 L 151.5 170.5 L 151.5 169.5 L 151.5 167.0 " stroke="black" fill="none" stroke-width="6.0" stroke-linecap="round" stroke-linejoin="round" />
<path d="M 151.0 124.5 L 151.0 124.0 L 151.0 123.5 L 151.0 123.0 L 151.0 122.5 L 151.0 122.5 L 151.0 122.5 L 151.0 123.0 L 151.0 123.5 L 151.0 124.0 L 151.0 124.0 L 151.5 124.0 L 151.5 124.0 L 152.0 123.5 L 152.0 123.5 L 152.0 123.5 L 152.0 123.5 L 152.0 123.5 L 152.0 123.5 L 152.0 123.5 L 152.0 123.5 L 152.0 123.5 L 152.0 123.5 " stroke="black" fill="none" stroke-width="6.0" stroke-linecap="round" stroke-linejoin="round" />
</svg>