<svg xmlns="http://www.w3.org/2000/svg" width="300" height="300" viewBox="0 0 300 300">
<path d="M 132.5 134.5 L 132.5 134.5 L 133.0 134.0 L 133.0 133.5 L 133.5 133.0 L 133.5 133.0 L 134.0 133.0 L 134.5 136.0 L 134.5 142.5 L 134.5 153.5 L 134.5 163.5 L 134.5 168.0 L 134.5 168.0 L 134.5 165.5 " stroke="black" fill="none" stroke-width="6.0" stroke-linecap="round" stroke-linejoin="round" />
<path d="M 150.0 135.0 L 150.0 135.0 L 150.0 135.0 L 150.0 135.5 L 150.0 135.5 L 150.0 136.0 L 150.0 137.0 L 150.0 141.5 L 150.0 150.5 L 150.5 160.5 L 151.0 166.5 L 151.5 167.0 L 151.5 166.5 " stroke="black" fill="none" stroke-width="6.0" stroke-linecap="round" stroke-linejoin="round" />
<path d="M 168.0 134.0 L 167.5 134.0 L 167.5 134.5 L 167.0 134.5 L 167.0 134.5 L 167.0 136.0 L 168.0 140.0 L 169.0 147.5 L 169.0 157.0 L 169.0 164.5 L 169.0 168.5 L 169.0 169.5 L 169.5 169.5 L 169.5 168.5 " stroke="black" fill="none" stroke-width="6.0" stroke-linecap="round" stroke-linejoin="round" />
</svg>