<svg xmlns="http://www.w3.org/2000/svg" width="300" height="300" viewBox="0 0 300 300">
<path d="M 131.5 120.5 L 131.5 120.0 L 131.5 119.0 L 131.5 118.5 L 131.5 118.0 L 130.5 117.5 L 129.5 117.5 L 127.5 118.5 L 125.5 121.5 L 124.0 125.5 L 124.0 130.0 L 126.0 133.5 L 129.5 135.0 L 133.5 134.5 L 136.5 131.0 L 137.5 126.0 L 137.5 121.5 L 136.5 118.0 L 134.5 116.5 L 132.5 116.0 L 131.0 117.0 L 131.0 117.5 " stroke="black" fill="none" stroke-width="6.0" stroke-linecap="round" stroke-linejoin="round" />
<path d="M 150.0 118.0 L 150.0 117.5 L 150.0 117.0 L 150.0 117.0 L 150.0 117.0 L 150.5 118.5 L 151.0 126.5 L 151.0 141.5 L 151.5 154.0 L 151.5 161.0 L 151.5 163.0 L 151.5 163.0 L 151.5 160.5 L 151.0 156.5 " stroke="black" fill="none" stroke-width="6.0" stroke-linecap="round" stroke-linejoin="round" />
<path d="M 153.0 114.0 L 153.0 114.5 L 152.0 115.5 L 151.5 116.0 L 151.5 116.0 L 152.5 116.0 L 155.0 115.5 L 158.5 114.5 L 162.0 114.0 L 166.0 113.5 L 168.5 113.5 L 170.5 113.5 L 171.0 113.5 L 170.5 113.5 " stroke="black" fill="none" stroke-width="6.0" stroke-linecap="round" stroke-linejoin="round" />
<path d="M 153.5 141.5 L 154.0 141.5 L 154.5 141.5 L 154.5 141.5 L 155.5 141.0 L 158.0 141.0 L 161.5 140.5 L 166.0 140.5 L 170.0 140.0 L 172.5 139.5 L 173.0 139.5 L 173.0 139.0 " stroke="black" fill="none" stroke-width="6.0" stroke-linecap="round" stroke-linejoin="round" />
</svg>