<svg xmlns="http://www.w3.org/2000/svg" width="300" height="300" viewBox="0 0 300 300">
<path d="M 126.5 172.0 L 126.5 172.0 L 125.5 172.5 L 125.0 172.5 L 124.5 172.5 L 125.0 172.5 L 127.0 170.5 L 130.0 167.0 L 136.0 161.0 L 146.5 152.5 L 157.0 144.0 L 166.5 136.5 L 172.5 131.5 L 174.5 129.5 L 174.5 129.5 L 174.0 129.5 L 174.0 129.5 L 174.0 129.5 L 174.0 130.0 L 174.0 131.0 " stroke="black" fill="none" stroke-width="6.0" stroke-linecap="round" stroke-linejoin="round" />
<path d="M 122.0 162.5 L 122.0 162.5 L 121.5 162.5 L 121.5 162.5 L 121.5 162.5 L 121.0 162.5 L 121.0 163.5 L 120.5 166.0 L 119.0 170.5 L 118.0 175.0 L 117.0 178.5 L 116.5 180.0 L 116.5 180.5 L 117.0 180.5 L 119.0 180.5 L 121.5 180.5 L 124.5 180.5 L 127.5 180.5 L 130.0 180.5 L 131.5 180.5 L 132.0 180.5 L 131.5 180.5 " stroke="black" fill="none" stroke-width="6.0" stroke-linecap="round" stroke-linejoin="round" />
</svg>