<svg xmlns="http://www.w3.org/2000/svg" width="300" height="300" viewBox="0 0 300 300">
<path d="M 126.0 140.5 L 126.0 140.5 L 125.5 140.0 L 125.5 140.0 L 125.5 139.5 L 125.5 139.5 L 126.0 139.5 L 127.0 139.5 L 128.5 141.5 L 130.5 145.0 L 132.5 151.0 L 135.5 158.0 L 138.5 164.0 L 140.0 166.0 L 140.5 166.0 L 140.5 165.5 L 141.0 163.0 L 142.0 159.0 L 142.5 154.0 L 143.5 149.0 L 144.5 144.0 L 146.0 139.0 L 147.0 135.0 L 147.5 133.0 L 147.5 133.0 L 147.5 133.5 L 147.5 135.0 L 147.5 135.5 " stroke="black" fill="none" stroke-width="6.0" stroke-linecap="round" stroke-linejoin="round" />
<path d="M 160.5 139.5 L 160.5 139.0 L 160.5 138.5 L 160.5 138.0 L 161.0 138.0 L 161.0 137.5 L 161.0 137.0 L 161.0 137.0 L 161.5 137.0 L 161.5 140.0 L 162.0 145.5 L 162.5 153.5 L 163.0 160.5 L 163.0 163.0 L 163.0 163.5 L 163.0 162.0 " stroke="black" fill="none" stroke-width="6.0" stroke-linecap="round" stroke-linejoin="round" />
<path d="M 164.0 123.0 L 164.0 123.0 L 163.5 122.5 L 163.0 122.5 L 163.0 122.5 L 163.0 122.5 L 163.0 123.0 L 163.0 123.0 L 163.0 123.0 L 163.0 123.0 L 163.0 123.0 L 163.0 123.0 L 163.5 123.0 L 163.5 123.0 L 163.5 123.0 L 163.5 123.0 " stroke="black" fill="none" stroke-width="6.0" stroke-linecap="round" stroke-linejoin="round" />
</svg>