<svg xmlns="http://www.w3.org/2000/svg" width="300" height="300" viewBox="0 0 300 300">
<path d="M 136.5 132.0 L 136.5 132.0 L 136.5 132.5 L 136.0 132.5 L 136.0 132.5 L 138.0 133.0 L 142.0 134.0 L 148.0 136.0 L 154.0 137.5 L 159.0 138.5 L 162.5 139.5 L 165.0 140.0 L 166.5 140.5 L 167.0 140.5 L 167.0 141.0 L 167.5 141.0 L 167.5 141.0 L 167.5 141.0 L 167.5 141.0 L 167.5 141.0 L 167.5 141.0 L 167.5 141.0 L 167.5 141.0 L 167.5 141.5 L 166.5 142.5 L 165.0 143.5 L 162.5 146.0 L 158.5 149.5 L 154.0 152.5 L 150.0 156.0 L 145.5 159.0 L 142.5 161.0 L 140.0 163.0 L 138.0 165.0 L 137.0 166.0 L 136.5 167.0 L 136.0 167.5 L 136.0 167.5 L 136.0 167.5 L 136.0 167.5 L 136.5 167.5 " stroke="black" fill="none" stroke-width="6.0" stroke-linecap="round" stroke-linejoin="round" />
<path d="M 129.0 176.5 L 129.0 177.0 L 129.0 177.5 L 130.0 177.5 L 132.5 177.5 L 138.5 177.0 L 147.0 176.5 L 156.0 176.0 L 164.0 175.5 L 168.5 175.5 L 169.5 175.5 L 169.5 175.5 L 168.0 175.5 L 167.0 175.5 " stroke="black" fill="none" stroke-width="6.0" stroke-linecap="round" stroke-linejoin="round" />
<path d="M 128.0 193.0 L 128.0 193.0 L 128.0 193.0 L 128.0 192.5 L 129.0 192.0 L 132.5 191.5 L 139.5 191.0 L 148.5 190.5 L 156.0 190.5 L 165.5 190.5 L 167.5 190.5 L 167.5 190.5 " stroke="black" fill="none" stroke-width="6.0" stroke-linecap="round" stroke-linejoin="round" />
</svg>