<svg xmlns="http://www.w3.org/2000/svg" width="300" height="300" viewBox="0 0 300 300">
<path d="M 149.5 146.0 L 149.5 145.0 L 149.5 144.0 L 149.5 143.5 L 149.0 143.5 L 148.5 144.0 L 148.0 144.5 L 147.5 146.0 L 147.5 147.0 L 147.5 148.0 L 148.5 148.0 L 150.0 148.5 L 150.5 148.0 L 151.0 147.0 L 151.0 146.5 L 150.5 146.0 L 149.5 146.0 L 148.5 147.0 L 148.5 148.5 L 148.5 150.0 L 150.0 150.0 L 151.0 150.0 L 152.0 149.0 L 152.5 147.5 L 152.5 146.0 L 152.0 145.5 L 150.5 144.5 L 150.0 144.0 " stroke="black" fill="none" stroke-width="6.0" stroke-linecap="round" stroke-linejoin="round" />
<path d="M 149.5 123.5 L 149.5 123.0 L 149.0 122.5 L 148.5 122.0 L 148.0 122.0 L 147.0 122.0 L 146.0 122.0 L 144.5 123.0 L 142.5 124.0 L 140.0 125.5 L 138.0 127.0 L 136.5 129.0 L 135.0 131.0 L 134.5 133.0 L 133.5 135.0 L 132.5 137.0 L 132.0 139.0 L 131.5 140.5 L 131.5 142.5 L 131.0 144.5 L 131.0 146.5 L 131.0 148.0 L 131.0 149.5 L 131.0 151.0 L 131.0 152.5 L 131.0 154.0 L 131.5 155.5 L 132.0 156.5 L 132.5 158.0 L 133.0 159.0 L 134.0 160.5 L 135.0 161.5 L 137.5 163.5 L 139.0 164.5 L 140.5 165.5 L 142.5 166.5 L 144.5 167.5 L 146.5 168.0 L 148.5 168.5 L 150.5 169.0 L 152.5 169.0 L 155.0 169.0 L 157.0 168.5 L 159.5 168.0 L 162.0 167.0 L 164.0 165.5 L 166.5 164.0 L 168.5 162.0 L 170.5 160.0 L 172.0 157.5 L 173.0 155.5 L 173.5 153.5 L 174.0 151.5 L 174.0 149.5 L 174.5 147.5 L 174.5 145.5 L 174.5 144.0 L 174.0 142.5 L 173.5 140.5 L 173.0 138.5 L 172.5 137.0 L 171.5 135.5 L 170.5 134.0 L 169.0 132.0 L 167.5 130.5 L 165.5 128.5 L 164.0 127.0 L 162.0 125.5 L 160.5 124.5 L 158.5 123.5 L 156.0 122.5 L 153.0 122.0 L 151.0 121.5 L 150.0 121.5 L 149.5 121.5 L 149.5 121.5 L 149.5 122.0 " stroke="black" fill="none" stroke-width="6.0" stroke-linecap="round" stroke-linejoin="round" />
</svg>