<svg xmlns="http://www.w3.org/2000/svg" width="300" height="300" viewBox="0 0 300 300">
<path d="M 145.0 150.5 L 144.0 150.5 L 143.0 150.0 L 142.0 149.5 L 141.5 149.0 L 140.0 148.5 L 138.5 148.5 L 136.5 148.5 L 134.5 148.5 L 132.5 149.5 L 130.5 151.0 L 129.5 152.5 L 128.5 154.0 L 127.5 156.0 L 126.5 158.0 L 126.0 160.0 L 125.5 162.0 L 125.5 164.5 L 125.5 167.0 L 126.0 169.0 L 127.5 171.0 L 129.0 172.5 L 131.0 173.5 L 133.5 174.0 L 136.0 174.0 L 139.0 172.5 L 142.5 170.5 L 146.0 168.5 L 149.0 166.0 L 151.5 164.0 L 153.5 161.5 L 155.5 159.0 L 157.5 157.5 L 160.0 155.5 L 163.5 154.0 L 167.0 153.0 L 169.5 152.5 L 172.5 152.5 L 174.5 152.5 L 176.5 152.5 L 178.5 152.5 L 179.5 153.0 L 181.0 153.5 L 182.0 154.5 L 183.0 156.0 L 184.0 157.0 L 184.5 158.5 L 184.5 160.0 L 184.5 161.5 L 184.5 163.5 L 184.5 165.5 L 184.0 167.0 L 183.5 169.0 L 182.5 171.0 L 181.0 173.0 L 180.0 175.0 L 178.5 177.0 L 177.5 178.0 L 176.5 179.0 L 175.5 179.0 L 174.0 179.0 L 172.0 179.0 L 169.5 178.5 L 167.0 177.5 L 164.5 177.0 L 162.0 176.0 L 160.0 175.0 L 158.0 173.5 L 156.0 171.5 L 154.5 169.5 L 153.0 168.0 L 152.0 166.5 L 151.0 165.0 L 150.0 163.5 L 149.0 161.5 L 147.5 159.5 L 146.0 158.0 L 145.0 157.5 L 144.5 157.0 L 144.5 157.0 L 144.5 157.0 L 145.5 156.5 " stroke="black" fill="none" stroke-width="6.0" stroke-linecap="round" stroke-linejoin="round" />
</svg>