<svg xmlns="http://www.w3.org/2000/svg" width="300" height="300" viewBox="0 0 300 300">
<path d="M 123.5 153.5 L 123.5 153.5 L 123.0 153.0 L 123.0 153.0 L 123.0 153.0 L 124.0 153.0 L 124.5 153.5 L 126.0 155.0 L 127.5 158.0 L 129.5 162.0 L 131.5 166.5 L 133.0 170.0 L 134.0 172.0 L 134.5 172.5 L 134.5 172.5 L 134.5 172.0 L 134.5 172.0 L 134.5 171.5 L 135.0 171.0 L 135.0 169.5 L 135.5 167.5 L 136.0 165.5 L 136.5 162.0 L 137.5 158.0 L 138.5 153.0 L 140.5 148.0 L 142.0 143.0 L 143.5 139.0 L 145.0 135.0 L 146.5 131.5 L 148.0 128.5 L 149.0 125.5 L 149.5 124.0 L 149.5 123.5 L 149.5 123.0 L 149.5 122.5 L 150.0 122.0 L 150.0 121.5 L 150.0 121.5 L 150.0 121.5 L 150.0 121.5 L 150.0 121.0 L 150.5 121.0 L 150.5 120.5 L 150.5 120.0 L 150.5 120.0 L 150.5 120.0 L 151.0 120.0 L 151.0 120.0 L 151.0 120.0 L 151.0 120.0 L 151.0 120.0 L 151.0 120.0 L 151.0 120.0 L 151.0 120.0 L 151.0 120.0 L 151.0 120.0 L 151.0 120.0 L 151.0 120.0 L 151.0 120.0 L 151.0 120.0 L 151.0 120.0 L 151.0 120.0 L 151.0 120.0 L 151.0 120.0 L 151.0 120.0 L 151.0 120.0 L 151.0 120.0 " stroke="black" fill="none" stroke-width="6.0" stroke-linecap="round" stroke-linejoin="round" />
<path d="M 129.5 134.5 L 129.5 134.5 L 129.5 135.0 L 129.5 135.5 L 129.5 135.5 L 130.0 135.5 L 132.5 135.5 L 137.5 135.5 L 145.0 136.0 L 153.0 136.5 L 158.0 136.5 L 160.0 136.5 L 160.0 136.5 L 160.0 136.5 L 159.0 136.5 L 158.5 136.0 " stroke="black" fill="none" stroke-width="6.0" stroke-linecap="round" stroke-linejoin="round" />
</svg>