<svg xmlns="http://www.w3.org/2000/svg" width="300" height="300" viewBox="0 0 300 300">
<path d="M 157.5 106.0 L 157.5 106.0 L 157.5 106.0 L 157.0 106.0 L 157.0 106.0 L 156.5 105.5 L 155.5 105.0 L 154.0 104.5 L 151.5 104.0 L 149.0 104.0 L 146.0 104.0 L 142.5 104.0 L 139.0 104.5 L 136.0 105.5 L 133.0 106.0 L 130.0 106.5 L 127.0 107.5 L 124.0 108.5 L 121.0 110.0 L 118.0 112.0 L 115.0 114.0 L 112.5 116.0 L 110.5 118.0 L 109.0 121.0 L 107.5 123.5 L 105.5 126.0 L 104.0 129.0 L 102.5 132.5 L 100.5 136.0 L 98.5 140.5 L 96.5 144.5 L 95.0 149.0 L 94.0 153.5 L 93.5 157.5 L 93.5 161.5 L 93.5 166.0 L 94.0 170.5 L 95.0 175.0 L 96.5 180.0 L 98.0 184.0 L 100.0 188.5 L 102.0 192.5 L 104.0 196.5 L 106.0 200.5 L 108.5 204.0 L 111.0 207.0 L 114.0 209.5 L 117.0 212.5 L 121.0 214.5 L 125.5 216.5 L 129.5 218.5 L 133.5 219.5 L 138.5 221.0 L 142.5 222.0 L 149.5 222.5 L 155.5 222.5 L 161.0 222.0 L 166.5 220.5 L 171.5 219.5 L 176.5 217.5 L 181.0 216.0 L 184.5 213.5 L 187.5 211.0 L 190.0 208.0 L 192.0 205.0 L 194.5 201.5 L 196.0 198.0 L 197.0 194.5 L 198.5 191.0 L 199.5 187.0 L 201.0 183.0 L 202.0 179.0 L 203.0 175.5 L 203.0 172.0 L 203.0 168.0 L 202.5 164.5 L 201.5 160.5 L 201.0 156.5 L 200.0 153.0 L 199.0 149.5 L 197.5 146.0 L 196.5 143.0 L 195.5 139.5 L 194.0 136.5 L 192.5 133.5 L 190.5 130.5 L 188.5 127.5 L 186.0 124.5 L 183.5 121.5 L 180.0 119.0 L 175.5 117.0 L 170.0 115.5 L 164.5 114.0 L 159.5 113.0 L 155.0 112.0 L 151.5 111.0 L 148.5 110.0 L 145.5 109.0 L 142.5 108.5 L 142.0 108.5 " stroke="black" fill="none" stroke-width="7.0" stroke-linecap="round" stroke-linejoin="round" />
<path d="M 141.0 71.0 L 140.5 71.0 L 139.0 71.0 L 136.5 71.0 L 134.5 71.0 L 132.5 71.5 L 129.5 72.0 L 126.5 72.5 L 123.5 73.0 L 119.5 74.0 L 116.0 75.5 L 112.0 77.0 L 107.5 79.0 L 103.5 81.5 L 99.0 83.5 L 95.0 86.0 L 91.0 88.5 L 87.0 91.5 L 83.0 94.5 L 80.0 97.0 L 77.0 100.0 L 74.0 103.0 L 71.0 106.0 L 68.5 109.5 L 66.5 112.5 L 64.5 116.0 L 63.0 119.5 L 61.5 123.0 L 60.5 126.5 L 60.0 129.5 L 59.5 133.0 L 59.0 136.5 L 58.5 140.0 L 58.5 144.0 L 58.5 147.5 L 58.5 151.5 L 58.5 155.5 L 58.5 160.0 L 59.0 164.0 L 59.5 168.0 L 60.5 172.0 L 61.0 176.5 L 62.0 181.0 L 63.0 185.0 L 64.0 189.5 L 65.0 193.5 L 66.5 197.0 L 68.5 200.5 L 70.0 204.0 L 72.5 207.0 L 75.0 209.5 L 77.5 212.5 L 80.0 215.0 L 82.5 217.5 L 85.0 219.5 L 87.5 222.0 L 90.0 224.5 L 93.0 226.5 L 95.5 229.0 L 98.5 231.0 L 102.0 233.0 L 105.5 235.5 L 109.0 237.0 L 113.0 239.0 L 117.5 240.5 L 122.5 241.5 L 128.0 243.0 L 133.0 243.5 L 138.0 244.0 L 143.5 244.5 L 149.0 244.5 L 154.0 244.5 L 159.0 244.5 L 163.5 244.5 L 168.5 244.5 L 173.0 244.5 L 177.0 244.0 L 181.0 244.0 L 185.0 243.0 L 189.0 242.5 L 193.0 241.5 L 196.5 240.5 L 200.0 239.0 L 203.5 237.0 L 206.5 234.5 L 210.0 232.5 L 213.0 230.0 L 216.0 227.5 L 218.5 225.0 L 221.0 222.0 L 223.5 219.5 L 226.0 216.5 L 229.0 213.5 L 231.0 210.5 L 232.5 208.0 L 233.5 205.5 L 234.5 202.5 L 235.5 199.5 L 236.0 196.5 L 236.5 193.5 L 236.5 190.5 L 237.0 187.0 L 237.0 183.5 L 237.5 180.0 L 237.5 176.5 L 237.5 173.0 L 237.5 169.5 L 237.0 166.0 L 236.5 162.5 L 236.5 158.5 L 236.0 154.5 L 235.5 150.5 L 234.5 146.5 L 233.5 142.0 L 232.5 137.0 L 231.0 132.5 L 229.0 128.0 L 227.0 123.0 L 224.5 118.5 L 221.0 113.5 L 217.5 109.0 L 213.5 105.0 L 209.5 100.5 L 205.0 96.5 L 201.0 93.0 L 197.0 89.0 L 193.0 85.5 L 189.0 82.5 L 184.5 79.5 L 180.0 77.5 L 175.5 75.5 L 171.0 74.0 L 165.5 73.0 L 160.0 72.5 L 154.5 72.0 L 149.0 71.5 L 144.5 71.5 L 141.0 71.5 L 137.5 71.5 L 135.5 72.5 L 134.0 73.5 " stroke="black" fill="none" stroke-width="7.0" stroke-linecap="round" stroke-linejoin="round" />
</svg>