<svg xmlns="http://www.w3.org/2000/svg" width="300" height="300" viewBox="0 0 300 300">
<path d="M 78.0 151.5 L 77.5 151.5 L 77.0 151.5 L 76.5 151.5 L 76.0 151.5 L 76.0 151.5 L 76.5 152.0 L 78.0 153.0 L 79.5 154.5 L 81.0 156.0 L 82.5 157.5 L 84.0 159.0 L 85.5 160.5 L 87.5 163.0 L 89.5 165.0 L 91.5 166.5 L 94.0 169.0 L 96.0 171.0 L 98.5 173.0 L 101.0 175.5 L 103.5 178.0 L 106.0 181.0 L 108.5 183.5 L 111.0 186.0 L 113.5 188.5 L 116.5 191.0 L 118.5 193.5 L 121.0 196.0 L 123.5 198.5 L 125.0 200.5 L 127.0 202.5 L 129.0 204.5 L 130.5 206.5 L 132.0 208.5 L 134.0 210.5 L 135.5 212.0 L 137.5 214.0 L 139.5 215.5 L 141.0 217.0 L 142.5 218.5 L 144.5 220.5 L 145.5 221.5 L 147.0 223.0 L 148.0 224.0 L 149.0 224.5 L 149.5 225.0 L 149.5 225.5 L 150.0 225.5 L 150.0 225.5 L 150.0 225.5 L 150.0 225.5 L 150.0 225.5 L 150.0 225.5 L 150.0 225.5 L 149.5 225.5 L 149.5 225.5 L 149.5 225.0 " stroke="black" fill="none" stroke-width="9.0" stroke-linecap="round" stroke-linejoin="round" />
<path d="M 152.0 226.0 L 152.0 226.5 L 152.5 226.5 L 152.5 227.0 L 152.5 227.0 L 153.0 227.0 L 154.0 225.5 L 156.0 222.5 L 159.5 218.5 L 164.5 214.0 L 169.5 209.5 L 173.5 205.5 L 176.5 202.0 L 179.0 199.5 L 180.5 197.5 L 182.5 196.0 L 184.5 194.0 L 187.0 192.0 L 189.0 189.5 L 191.0 187.5 L 192.5 186.0 L 194.5 184.0 L 196.5 182.5 L 198.5 180.5 L 200.5 178.5 L 202.5 176.5 L 204.0 174.5 L 205.5 173.0 L 207.0 171.0 L 208.5 169.5 L 210.5 168.0 L 212.0 166.0 L 213.5 164.5 L 215.0 163.0 L 216.0 162.0 L 216.5 161.0 L 217.5 160.0 L 218.5 158.5 L 219.5 158.0 L 220.5 157.0 L 221.0 156.5 L 221.5 155.5 L 222.5 155.0 L 223.0 154.0 L 224.0 153.5 L 224.0 153.0 L 224.5 153.0 L 224.5 153.0 L 224.5 153.0 L 224.5 153.0 L 224.5 153.0 L 224.5 153.0 L 224.5 153.0 " stroke="black" fill="none" stroke-width="9.0" stroke-linecap="round" stroke-linejoin="round" />
<path d="M 149.5 78.0 L 149.5 78.0 L 149.5 78.0 L 149.0 77.5 L 149.0 77.5 L 149.0 77.5 L 149.0 77.5 L 149.0 77.5 L 149.5 78.0 L 150.5 79.0 L 151.5 80.0 L 152.5 81.5 L 154.5 83.5 L 156.5 85.5 L 158.0 87.0 L 160.0 88.5 L 161.5 90.0 L 163.5 91.5 L 165.5 93.0 L 168.0 95.0 L 170.5 97.5 L 173.0 100.0 L 175.5 102.5 L 178.5 105.5 L 181.5 108.5 L 184.5 111.5 L 187.0 114.5 L 190.0 117.0 L 192.5 119.5 L 194.5 121.5 L 196.5 123.5 L 198.5 125.5 L 200.0 127.0 L 201.5 128.5 L 203.0 130.0 L 204.5 131.0 L 206.0 132.5 L 207.5 133.5 L 209.5 135.0 L 211.0 136.5 L 213.0 137.5 L 215.0 139.0 L 217.0 140.0 L 218.5 141.5 L 220.0 142.5 L 221.5 143.5 L 222.5 144.5 L 223.5 145.0 L 224.0 145.5 L 224.5 146.0 L 224.5 146.0 L 224.5 146.5 L 224.5 146.5 L 224.5 146.5 L 224.5 146.5 L 224.5 146.5 L 224.5 146.5 L 224.5 146.5 " stroke="black" fill="none" stroke-width="9.0" stroke-linecap="round" stroke-linejoin="round" />
<path d="M 80.5 150.5 L 80.5 150.5 L 80.0 150.5 L 79.5 150.5 L 79.5 150.5 L 79.5 150.0 L 80.5 148.5 L 83.5 145.5 L 87.5 141.0 L 93.0 135.5 L 98.5 130.0 L 103.0 125.5 L 106.0 121.5 L 109.0 118.5 L 112.0 115.5 L 114.5 112.5 L 117.5 109.0 L 120.5 105.5 L 124.0 102.0 L 127.5 98.5 L 130.5 95.0 L 133.5 92.0 L 136.0 89.5 L 138.0 87.0 L 140.0 84.5 L 141.5 83.0 L 143.0 82.0 L 144.0 81.0 L 145.0 80.5 L 145.5 80.0 L 145.5 80.0 L 146.5 79.5 L 147.0 79.5 L 147.5 79.0 L 147.5 79.0 L 147.5 79.0 L 147.5 79.0 L 147.5 79.0 L 147.5 79.0 " stroke="black" fill="none" stroke-width="9.0" stroke-linecap="round" stroke-linejoin="round" />
</svg>