<svg xmlns="http://www.w3.org/2000/svg" width="300" height="300" viewBox="0 0 300 300">
<path d="M 80.0 80.0 L 80.0 80.0 L 80.0 80.0 L 79.5 79.5 L 79.5 79.5 L 79.0 79.5 L 79.0 79.5 L 79.0 79.5 L 79.0 80.0 L 79.0 81.0 L 79.0 83.0 L 79.0 85.0 L 79.0 87.5 L 79.0 89.5 L 79.0 91.5 L 79.0 93.5 L 79.0 95.5 L 79.0 98.0 L 79.0 100.5 L 79.0 103.5 L 79.0 106.0 L 79.0 109.0 L 79.0 112.0 L 79.0 115.5 L 79.0 119.5 L 79.0 123.5 L 79.0 127.5 L 79.0 131.5 L 79.0 136.0 L 79.0 140.0 L 79.0 144.5 L 79.0 149.0 L 79.0 153.0 L 79.5 157.0 L 79.5 161.0 L 79.5 165.5 L 79.5 169.0 L 79.5 173.0 L 79.5 177.0 L 79.5 181.0 L 79.0 185.0 L 79.0 189.5 L 79.0 193.0 L 79.0 196.5 L 79.0 199.0 L 79.0 202.0 L 79.0 204.5 L 79.0 207.5 L 79.0 209.5 L 79.0 211.5 L 78.5 213.0 L 78.5 214.5 L 78.0 216.0 L 78.0 217.5 L 78.0 218.5 L 77.5 219.0 L 77.5 219.5 L 77.5 219.5 L 77.5 220.0 L 77.0 220.5 L 77.0 221.0 L 77.0 221.5 L 77.0 221.5 L 77.0 222.0 L 77.0 222.0 L 77.0 222.0 L 77.0 222.0 L 77.0 222.0 L 77.0 222.0 L 77.0 222.0 L 77.0 222.0 L 77.0 222.0 L 77.0 222.0 L 77.0 222.0 L 77.0 221.5 L 77.5 221.5 L 77.5 221.5 L 78.0 221.0 L 78.5 220.5 L 79.0 220.5 L 79.5 219.5 L 80.0 219.0 L 81.0 218.5 L 82.5 218.0 L 84.5 217.0 L 87.5 216.0 L 91.0 214.5 L 95.5 213.5 L 100.0 212.0 L 104.5 210.5 L 108.5 209.0 L 113.0 207.5 L 117.5 205.5 L 122.0 204.0 L 127.0 202.0 L 131.0 200.5 L 135.5 199.0 L 139.5 196.5 L 144.5 194.0 L 149.0 191.5 L 153.0 189.0 L 157.5 187.0 L 162.0 184.5 L 166.0 182.0 L 170.0 180.0 L 173.5 178.5 L 176.5 177.0 L 179.5 175.5 L 182.5 174.0 L 185.5 172.5 L 188.5 171.0 L 191.0 169.5 L 193.5 168.5 L 196.5 167.0 L 199.5 165.0 L 203.0 163.5 L 206.5 161.5 L 209.5 160.5 L 213.0 159.0 L 216.0 157.5 L 218.5 156.0 L 221.0 155.5 L 223.0 154.5 L 224.0 154.5 L 224.0 154.5 L 224.0 154.5 L 224.0 154.5 L 223.5 154.5 L 223.5 154.5 L 223.5 154.5 L 223.5 154.5 L 223.5 154.5 L 223.5 154.5 L 223.5 154.5 L 223.5 154.5 L 223.5 154.5 L 223.5 154.5 L 223.5 154.5 L 223.0 154.5 L 223.0 154.5 L 222.0 154.0 L 220.5 153.0 L 217.5 152.0 L 214.5 150.5 L 210.5 149.0 L 206.5 147.5 L 202.0 145.5 L 197.5 144.0 L 192.5 141.5 L 187.0 139.0 L 181.5 137.0 L 175.5 134.5 L 169.0 132.0 L 162.5 129.5 L 156.0 126.5 L 150.0 124.0 L 145.5 121.0 L 140.5 118.0 L 136.0 115.0 L 132.5 112.0 L 128.5 109.5 L 125.0 107.5 L 122.0 105.5 L 119.0 103.5 L 116.5 102.0 L 114.5 100.5 L 112.5 99.0 L 111.0 98.0 L 109.5 97.0 L 108.0 96.0 L 107.0 95.0 L 105.5 94.5 L 104.5 93.5 L 103.0 92.5 L 101.5 91.5 L 100.0 90.5 L 98.5 89.5 L 97.0 89.0 L 95.5 88.0 L 94.5 87.5 L 94.0 87.0 L 93.5 86.5 L 93.5 86.5 L 93.0 86.0 L 92.0 85.5 L 91.5 85.0 L 90.5 84.5 L 89.5 84.0 L 88.5 83.5 L 88.0 82.5 L 87.0 82.0 L 86.0 81.0 L 85.0 80.5 L 84.0 79.5 L 83.5 79.0 L 83.0 79.0 L 83.0 79.0 L 83.0 79.0 L 83.0 79.0 L 83.0 79.0 " stroke="black" fill="none" stroke-width="9.0" stroke-linecap="round" stroke-linejoin="round" />
</svg>