<svg xmlns="http://www.w3.org/2000/svg" width="300" height="300" viewBox="0 0 300 300">
<path d="M 109.5 107.0 L 109.5 107.0 L 109.5 106.5 L 109.5 106.5 L 109.5 106.5 L 110.5 106.5 L 113.0 108.0 L 116.0 111.5 L 120.5 117.0 L 126.5 125.5 L 132.5 133.5 L 138.0 139.5 L 144.5 145.5 L 150.5 151.0 L 155.0 155.5 L 159.5 161.0 L 164.5 166.5 L 169.0 170.0 L 172.5 173.0 L 175.5 176.0 L 177.5 179.0 L 179.0 181.5 L 180.0 182.5 L 181.0 183.5 L 181.5 184.0 L 182.0 184.0 L 182.0 184.0 L 182.0 184.0 L 182.0 183.5 " stroke="black" fill="none" stroke-width="6.0" stroke-linecap="round" stroke-linejoin="round" />
<path d="M 114.5 173.0 L 114.5 173.0 L 114.5 173.0 L 115.5 172.0 L 119.0 168.5 L 126.0 161.5 L 135.5 151.5 L 147.0 141.5 L 157.5 132.5 L 166.5 125.0 L 172.5 119.5 L 176.0 115.5 L 178.0 112.5 L 178.5 111.5 L 179.0 110.5 L 180.0 110.0 L 181.5 110.0 L 182.5 109.5 L 183.5 109.5 L 184.0 109.5 L 184.0 110.0 " stroke="black" fill="none" stroke-width="6.0" stroke-linecap="round" stroke-linejoin="round" />
</svg>