<svg xmlns="http://www.w3.org/2000/svg" width="300" height="300" viewBox="0 0 300 300">
<path d="M 149.0 135.5 L 149.0 135.5 L 149.0 135.5 L 149.0 135.5 L 149.0 135.5 L 149.0 135.5 L 149.0 135.5 L 148.5 135.5 L 148.5 135.0 L 147.5 135.0 L 147.0 135.0 L 145.5 135.0 L 144.0 135.0 L 142.5 135.5 L 140.5 136.0 L 139.0 136.5 L 137.5 137.0 L 136.0 137.5 L 135.5 138.0 L 134.5 138.5 L 134.0 139.5 L 133.0 140.5 L 132.5 141.0 L 131.5 142.0 L 131.0 143.0 L 130.0 144.0 L 129.5 145.5 L 129.0 146.5 L 128.5 147.5 L 128.0 149.0 L 127.5 150.0 L 127.0 151.0 L 126.5 152.5 L 126.5 153.5 L 126.0 154.5 L 126.0 155.5 L 126.0 156.5 L 125.5 158.0 L 125.5 159.0 L 125.5 160.0 L 125.5 161.0 L 126.0 162.5 L 126.0 163.5 L 126.5 164.5 L 127.0 166.0 L 127.5 167.0 L 128.0 168.0 L 128.5 169.5 L 129.0 170.5 L 129.5 172.0 L 130.0 173.0 L 130.5 174.5 L 131.0 175.5 L 132.0 176.5 L 132.5 177.5 L 133.5 178.5 L 134.5 179.5 L 135.0 180.0 L 136.0 181.0 L 137.0 181.5 L 138.0 182.5 L 139.5 183.0 L 141.0 184.0 L 142.0 184.5 L 143.5 185.5 L 144.5 186.0 L 146.0 186.5 L 147.0 186.5 L 148.0 187.0 L 149.0 187.0 L 150.5 187.0 L 152.0 187.0 L 153.0 186.5 L 154.5 186.0 L 156.0 185.5 L 158.0 185.0 L 159.5 184.5 L 161.5 183.5 L 163.0 183.0 L 164.5 181.5 L 166.0 180.5 L 167.5 179.5 L 168.5 178.0 L 170.0 177.0 L 171.0 175.5 L 172.0 174.0 L 173.5 172.5 L 174.5 170.5 L 175.5 169.0 L 176.0 167.5 L 176.5 166.0 L 176.5 164.0 L 177.0 162.0 L 177.5 160.0 L 177.5 158.5 L 177.5 157.5 L 177.5 156.0 L 177.5 154.5 L 177.5 152.5 L 177.0 151.0 L 176.5 149.0 L 176.0 147.5 L 175.0 146.0 L 174.0 144.5 L 173.0 143.0 L 172.0 141.5 L 171.0 140.0 L 169.5 138.5 L 168.0 137.5 L 166.0 136.0 L 164.5 134.5 L 162.5 133.5 L 160.0 133.5 L 157.5 133.0 L 155.0 133.0 L 153.0 133.0 L 151.5 133.0 L 150.5 133.0 L 149.5 133.0 L 149.0 133.5 L 148.5 134.0 " stroke="black" fill="none" stroke-width="8.0" stroke-linecap="round" stroke-linejoin="round" />
</svg>