<svg xmlns="http://www.w3.org/2000/svg" width="300" height="300" viewBox="0 0 300 300">
<path d="M 115.5 130.0 L 115.5 130.0 L 115.5 130.5 L 115.5 130.5 L 115.5 131.0 L 115.5 131.0 L 115.5 131.0 L 115.5 131.0 L 115.5 130.5 L 116.0 129.5 L 116.5 128.5 L 118.0 126.5 L 120.5 123.5 L 124.0 120.5 L 127.5 117.5 L 129.5 116.0 L 131.0 115.0 L 131.0 115.0 L 131.0 115.0 L 131.0 115.0 L 131.0 115.0 L 131.0 114.5 L 131.0 114.5 L 131.0 114.5 L 131.0 114.5 L 131.0 114.5 L 131.0 114.5 L 131.0 114.5 L 131.0 114.5 L 131.0 114.5 L 131.0 114.5 L 131.0 114.5 L 131.0 114.5 L 131.0 114.5 L 131.0 115.0 L 131.5 115.5 L 132.5 116.5 L 133.0 117.5 L 134.5 119.0 L 136.0 120.5 L 138.0 122.5 L 140.5 124.0 L 142.5 125.5 L 144.5 127.0 L 146.0 128.5 L 148.0 129.5 L 149.5 131.0 L 150.5 132.5 L 152.0 133.5 L 153.5 135.0 L 155.5 136.5 L 157.5 138.0 L 160.0 140.0 L 162.0 141.5 L 164.0 143.0 L 166.0 144.0 L 167.5 145.5 L 169.0 147.0 L 170.0 148.0 L 171.0 149.0 L 172.0 150.0 L 173.0 151.0 L 174.0 151.5 L 174.5 152.5 L 175.5 153.0 L 176.0 154.0 L 177.0 154.5 L 177.5 155.0 L 178.0 155.5 L 178.5 156.0 L 179.0 156.5 L 179.5 157.0 L 180.0 157.0 L 180.0 157.5 L 180.5 157.5 L 180.5 157.5 L 181.0 158.0 L 181.0 158.0 L 181.0 158.0 L 181.0 158.0 L 181.0 158.0 L 181.0 158.0 L 181.0 158.0 L 181.0 158.0 L 181.0 158.0 L 181.0 158.0 L 181.0 158.0 L 181.0 158.0 L 181.0 158.0 L 181.0 158.0 L 181.0 158.0 L 181.0 158.0 L 181.0 158.0 L 181.0 158.0 L 181.0 158.0 L 181.0 158.0 L 181.0 158.0 L 181.0 158.0 L 181.0 158.0 L 181.0 157.5 L 181.5 157.0 L 182.5 156.5 L 183.5 155.0 L 184.5 153.5 L 186.0 152.5 L 187.0 151.5 L 188.5 150.5 L 189.5 149.5 L 190.5 149.0 L 191.0 148.5 L 191.5 148.0 L 192.0 147.5 L 192.0 147.5 L 192.0 147.5 L 192.0 147.5 L 192.0 147.0 L 192.5 147.0 L 192.5 147.0 L 192.5 146.5 L 192.5 146.5 L 193.0 146.5 L 193.0 146.5 L 193.0 146.5 L 193.0 146.5 L 193.0 146.5 L 193.0 146.5 L 193.0 146.5 L 193.0 146.5 L 193.0 146.5 L 193.0 147.5 L 193.0 148.5 L 193.5 150.5 L 193.5 152.0 L 193.5 154.0 L 193.5 155.5 L 193.5 157.0 L 193.5 159.0 L 193.5 160.5 L 193.5 161.5 L 193.5 163.0 L 193.5 164.5 L 193.5 165.5 L 193.5 167.0 L 193.5 168.5 L 194.0 169.5 L 194.0 171.0 L 194.0 172.0 L 194.0 173.0 L 194.0 174.0 L 194.0 175.0 L 194.5 176.5 L 194.5 177.5 L 194.5 178.5 L 194.5 179.5 L 194.5 180.0 L 194.5 181.0 L 194.5 181.5 L 194.5 182.0 L 195.0 182.5 L 195.0 183.0 L 195.0 183.5 L 195.0 184.5 L 195.5 185.0 L 195.5 185.5 L 195.5 186.0 L 195.5 187.0 L 196.0 187.5 L 196.0 187.5 L 196.0 188.0 L 196.0 188.0 L 196.0 188.0 L 196.0 188.0 L 196.0 188.0 L 196.0 188.0 L 196.0 188.0 L 196.0 188.0 L 196.0 188.0 L 196.0 188.0 L 196.0 188.0 L 196.0 188.0 L 196.0 188.0 L 196.0 188.0 L 196.0 188.0 L 196.0 188.0 L 196.0 188.0 L 196.0 188.0 L 196.0 187.5 L 196.0 187.5 L 196.0 187.5 L 196.0 187.5 L 196.0 187.5 L 196.0 187.5 L 196.0 187.5 L 196.0 187.5 L 196.0 187.5 L 196.0 187.5 L 196.0 187.5 L 196.0 187.5 L 196.0 187.5 L 195.5 187.5 L 195.5 187.5 L 195.0 187.5 L 194.5 187.5 L 194.0 187.5 L 193.0 187.5 L 192.5 187.5 L 191.5 187.5 L 191.0 187.5 L 190.0 187.5 L 189.0 187.5 L 188.5 187.5 L 187.5 187.5 L 186.5 187.5 L 185.5 187.5 L 184.0 187.5 L 183.0 188.0 L 181.5 188.0 L 180.5 188.0 L 179.0 188.0 L 177.5 188.5 L 176.0 188.5 L 174.5 188.5 L 173.0 188.5 L 171.5 188.5 L 170.5 188.5 L 170.0 188.5 L 168.5 188.5 L 167.5 188.5 L 166.5 188.5 L 165.0 188.5 L 164.0 188.5 L 163.0 188.5 L 162.0 188.5 L 161.0 188.5 L 160.5 188.5 L 159.5 188.5 L 159.0 188.5 L 158.5 188.5 L 158.0 188.5 L 157.5 188.5 L 157.0 189.0 L 156.5 189.0 L 156.0 189.0 L 155.5 189.0 L 155.0 189.0 L 155.0 189.5 L 154.5 189.5 L 154.5 189.5 L 154.5 189.5 L 154.5 189.5 L 154.5 189.5 L 154.5 189.5 L 154.5 189.5 L 154.5 189.5 L 155.0 189.5 L 155.0 189.5 L 155.5 189.0 L 156.0 188.0 L 157.0 187.5 L 158.0 186.0 L 159.0 184.5 L 160.5 183.0 L 162.0 181.0 L 163.5 179.5 L 164.5 178.5 L 165.5 177.5 L 166.0 177.0 L 166.5 176.5 L 166.5 176.0 L 167.0 175.5 L 167.0 175.0 L 167.5 174.5 L 168.0 174.0 L 168.0 173.5 L 168.5 173.0 L 168.5 173.0 L 168.5 172.5 L 169.0 172.5 L 169.0 172.0 L 169.0 172.0 L 169.5 171.5 L 169.5 171.5 L 169.5 171.5 L 169.5 171.5 L 169.5 171.5 L 169.5 171.5 L 169.5 171.5 L 169.5 171.5 L 169.5 171.5 L 169.5 171.5 L 169.5 171.5 L 169.0 171.5 L 168.5 171.5 L 167.5 171.5 L 167.0 171.5 L 166.5 171.5 L 165.5 171.0 L 165.0 171.0 L 164.5 170.5 L 163.5 170.0 L 163.0 170.0 L 162.0 169.5 L 161.0 168.5 L 160.0 168.0 L 158.5 167.0 L 157.5 166.0 L 156.5 165.0 L 155.5 164.0 L 154.5 163.0 L 153.5 162.0 L 152.5 161.0 L 151.5 160.0 L 151.0 159.0 L 150.0 158.5 L 149.0 157.5 L 147.5 156.0 L 146.0 155.0 L 145.0 153.5 L 143.5 152.5 L 142.0 151.5 L 141.5 150.5 L 140.5 149.5 L 139.5 148.5 L 138.5 147.5 L 137.0 146.0 L 136.0 145.0 L 135.5 144.0 L 134.5 143.5 L 133.5 142.5 L 132.5 142.0 L 131.5 141.0 L 130.5 140.0 L 129.5 139.0 L 129.0 138.5 L 128.0 137.5 L 127.5 137.0 L 127.0 136.5 L 126.0 135.5 L 125.5 135.0 L 125.0 134.5 L 124.5 133.5 L 124.0 133.5 L 123.5 133.0 L 123.5 132.5 L 123.0 132.5 L 122.5 132.0 L 122.5 131.5 L 122.5 131.5 L 122.0 131.5 L 122.0 131.5 L 122.0 131.5 L 122.0 131.5 L 122.5 131.5 L 125.0 133.0 L 129.0 136.0 L 135.0 141.0 L 142.0 146.5 L 148.5 151.0 L 153.0 155.0 L 156.5 158.0 L 158.5 159.5 L 159.5 160.0 L 159.5 160.0 L 159.5 160.0 L 158.5 159.0 L 156.5 156.0 L 152.5 152.0 L 148.5 147.0 L 143.5 141.0 L 138.5 135.0 L 135.5 132.5 L 135.0 132.0 L 135.0 132.0 L 135.0 132.0 L 135.0 132.0 L 137.0 133.0 L 141.5 136.0 L 148.0 141.0 L 156.5 148.5 L 165.5 155.5 L 171.5 160.0 L 175.0 162.0 L 176.0 162.5 L 176.0 162.5 L 175.0 162.0 L 172.0 159.0 L 165.5 153.5 L 158.0 147.0 L 150.0 140.5 L 143.0 135.5 L 137.5 131.0 L 133.5 128.0 L 131.5 126.0 L 131.0 125.0 L 131.0 125.0 L 131.0 125.0 L 131.0 125.0 L 131.0 125.0 L 131.0 125.0 L 131.5 125.5 L 132.0 126.0 L 133.0 127.5 L 135.5 129.5 L 139.5 133.0 L 146.0 139.0 L 154.0 146.5 L 161.0 153.0 L 165.0 156.0 L 168.5 158.0 L 171.5 160.5 L 173.0 161.5 L 173.5 162.0 L 173.5 162.0 L 173.0 161.5 L 170.5 159.5 L 167.0 155.5 L 164.5 153.0 L 163.5 151.5 L 163.0 151.5 L 164.5 152.5 L 167.0 155.0 L 170.5 158.5 L 174.0 162.0 L 177.0 165.5 L 179.0 168.0 L 180.0 169.5 L 180.0 169.5 L 180.0 170.0 L 180.5 170.0 L 180.5 170.5 L 181.0 170.5 L 181.0 170.5 L 181.0 170.5 L 181.5 170.0 L 181.5 170.0 L 181.5 169.5 L 182.0 169.5 L 183.0 169.5 L 183.5 169.5 L 184.5 169.5 L 185.0 170.0 L 185.5 170.0 L 186.0 170.5 L 186.5 170.5 L 186.5 170.5 L 186.5 170.5 L 186.5 170.5 L 186.5 170.5 L 186.5 171.0 L 186.5 171.0 L 185.5 172.0 L 184.5 173.5 L 183.5 174.5 L 182.5 176.0 L 181.5 177.0 L 180.5 178.0 L 180.0 178.5 L 179.5 178.5 L 179.0 178.5 L 178.5 179.0 L 178.0 179.0 L 178.0 179.5 L 177.5 179.5 L 177.0 180.0 L 176.5 180.0 L 176.0 180.0 L 175.5 180.0 L 175.0 180.0 L 175.0 180.0 L 175.0 180.0 L 175.0 180.0 L 176.5 179.5 L 178.5 178.5 L 181.0 178.0 L 183.5 177.0 L 185.5 176.5 L 187.0 176.0 L 187.5 176.0 L 188.0 176.0 L 188.0 176.0 " stroke="black" fill="none" stroke-width="15.0" stroke-linecap="round" stroke-linejoin="round" />
</svg>