<svg xmlns="http://www.w3.org/2000/svg" width="300" height="300" viewBox="0 0 300 300">
<path d="M 125.5 121.5 L 125.5 121.5 L 125.5 121.5 L 125.5 121.5 L 127.5 121.5 L 133.5 122.0 L 145.0 122.0 L 156.5 122.0 L 164.0 121.5 L 169.0 121.5 L 171.0 121.5 L 171.5 122.0 L 171.0 122.0 L 171.0 122.0 L 170.5 122.0 L 170.5 122.0 L 171.0 122.0 L 171.5 122.5 L 171.5 123.0 " stroke="black" fill="none" stroke-width="6.0" stroke-linecap="round" stroke-linejoin="round" />
<path d="M 127.0 140.0 L 127.0 139.0 L 127.0 138.0 L 127.5 137.5 L 128.0 137.0 L 128.5 137.5 L 129.5 140.0 L 130.0 146.5 L 130.5 156.0 L 130.5 168.5 L 129.5 177.5 L 129.5 181.0 L 129.5 181.0 L 129.5 179.0 L 129.5 174.5 " stroke="black" fill="none" stroke-width="6.0" stroke-linecap="round" stroke-linejoin="round" />
<path d="M 130.5 136.5 L 130.5 137.0 L 130.5 137.5 L 130.5 138.0 L 130.5 138.0 L 131.0 138.5 L 133.5 138.5 L 137.5 138.5 L 145.0 138.5 L 153.0 138.0 L 159.0 138.0 L 163.5 138.0 L 166.5 138.0 L 167.0 138.0 L 167.5 138.5 L 167.5 139.0 L 168.0 139.0 L 168.0 139.0 L 168.5 139.0 L 169.0 139.0 L 169.5 139.0 L 169.5 139.0 L 169.5 139.0 L 170.0 139.0 L 170.0 139.0 L 170.5 139.0 L 170.5 139.0 L 171.0 139.0 L 171.0 139.0 L 171.0 139.0 L 171.0 139.0 L 171.0 139.5 L 171.0 140.5 L 171.0 142.0 L 171.5 145.0 L 171.5 149.0 L 171.5 154.5 L 172.0 160.5 L 172.0 166.5 L 172.0 172.5 L 172.0 178.0 L 172.0 183.0 L 172.0 188.0 L 172.0 191.5 L 172.0 193.5 L 172.0 195.0 L 172.0 195.5 L 171.0 196.0 L 170.0 196.0 L 168.5 195.5 L 166.0 193.5 L 164.0 190.5 L 163.5 189.5 " stroke="black" fill="none" stroke-width="6.0" stroke-linecap="round" stroke-linejoin="round" />
<path d="M 150.5 122.0 L 150.5 121.5 L 150.0 120.5 L 150.0 120.5 L 150.0 120.5 L 150.0 121.0 L 150.0 124.0 L 150.0 130.5 L 150.5 141.0 L 150.5 153.5 L 151.5 164.0 L 152.0 172.0 L 152.5 177.0 L 152.5 180.5 L 152.5 182.5 L 152.5 182.5 L 152.5 181.0 L 152.0 177.0 " stroke="black" fill="none" stroke-width="6.0" stroke-linecap="round" stroke-linejoin="round" />
<path d="M 136.5 151.5 L 136.5 151.5 L 136.5 151.0 L 137.0 151.0 L 137.0 150.5 L 138.0 150.5 L 138.5 151.0 L 139.5 152.0 L 140.5 153.5 L 141.0 154.5 L 141.5 155.5 " stroke="black" fill="none" stroke-width="6.0" stroke-linecap="round" stroke-linejoin="round" />
<path d="M 138.5 170.0 L 138.5 171.5 L 138.5 173.0 L 138.5 173.0 L 139.0 173.0 L 140.0 171.5 L 141.5 170.0 L 143.5 168.0 L 145.0 166.5 " stroke="black" fill="none" stroke-width="6.0" stroke-linecap="round" stroke-linejoin="round" />
<path d="M 166.5 149.5 L 165.5 149.5 L 165.0 149.5 L 165.0 149.5 L 165.0 150.0 L 165.0 150.0 L 165.0 150.0 L 164.5 151.0 L 164.5 152.0 L 164.0 153.5 " stroke="black" fill="none" stroke-width="6.0" stroke-linecap="round" stroke-linejoin="round" />
<path d="M 161.0 163.5 L 160.5 164.0 L 160.5 164.0 L 160.0 164.0 L 160.0 164.5 L 160.0 164.5 L 161.0 165.5 L 163.5 167.0 L 166.5 169.0 L 168.5 170.5 L 169.5 171.0 " stroke="black" fill="none" stroke-width="6.0" stroke-linecap="round" stroke-linejoin="round" />
</svg>