<svg xmlns="http://www.w3.org/2000/svg" width="300" height="300" viewBox="0 0 300 300">
<path d="M 128.0 111.5 L 128.0 111.5 L 128.0 112.5 L 128.0 113.0 L 128.5 113.0 L 130.0 113.0 L 134.0 112.0 L 143.0 109.0 L 153.5 105.0 L 162.5 101.5 L 168.0 99.0 L 169.5 98.0 L 169.5 98.0 L 169.0 98.0 L 168.5 98.0 L 168.5 99.0 " stroke="black" fill="none" stroke-width="6.0" stroke-linecap="round" stroke-linejoin="round" />
<path d="M 127.5 126.5 L 127.5 126.5 L 127.5 127.0 L 127.5 127.0 L 128.5 127.0 L 131.5 126.5 L 139.5 123.5 L 150.0 120.0 L 159.5 116.5 L 166.0 114.0 L 169.5 112.5 L 170.5 112.5 L 170.0 112.5 L 169.5 112.5 L 169.0 113.5 L 168.5 114.0 " stroke="black" fill="none" stroke-width="6.0" stroke-linecap="round" stroke-linejoin="round" />
<path d="M 126.0 138.0 L 125.5 138.5 L 125.5 138.5 L 125.0 138.5 L 125.0 138.5 L 126.0 138.5 L 128.0 138.5 L 133.5 137.5 L 143.0 135.5 L 155.0 132.0 L 166.0 128.0 L 174.0 124.5 L 179.0 122.0 L 181.5 121.0 L 181.5 121.0 L 181.0 121.0 L 180.5 121.5 L 179.5 122.5 " stroke="black" fill="none" stroke-width="6.0" stroke-linecap="round" stroke-linejoin="round" />
<path d="M 159.5 134.0 L 159.5 134.0 L 160.0 133.5 L 160.0 133.5 L 160.5 133.5 L 160.5 133.5 L 160.5 134.0 L 160.5 137.5 L 160.0 144.0 L 159.0 151.0 L 159.0 156.0 L 159.0 158.0 L 159.0 158.0 L 159.0 156.0 " stroke="black" fill="none" stroke-width="6.0" stroke-linecap="round" stroke-linejoin="round" />
<path d="M 162.5 144.5 L 162.5 144.5 L 162.5 144.5 L 162.0 144.5 L 162.0 144.5 L 162.5 144.5 L 165.5 144.5 L 169.0 144.0 L 171.5 143.5 L 173.0 143.0 " stroke="black" fill="none" stroke-width="6.0" stroke-linecap="round" stroke-linejoin="round" />
<path d="M 137.5 146.5 L 138.0 146.0 L 139.0 145.5 L 139.0 145.5 L 139.0 145.5 L 139.0 145.5 L 139.0 147.0 L 138.0 150.5 L 135.5 156.0 L 132.0 162.0 L 129.5 166.5 L 128.5 167.5 L 128.5 166.5 L 128.5 164.5 " stroke="black" fill="none" stroke-width="6.0" stroke-linecap="round" stroke-linejoin="round" />
<path d="M 137.0 156.0 L 138.0 156.5 L 139.0 157.0 L 141.0 157.5 L 144.0 158.0 L 150.0 159.0 L 158.0 160.5 L 168.0 161.0 L 176.0 161.0 L 181.0 160.0 L 182.5 159.5 L 181.5 158.5 " stroke="black" fill="none" stroke-width="6.0" stroke-linecap="round" stroke-linejoin="round" />
</svg>