<svg xmlns="http://www.w3.org/2000/svg" width="300" height="300" viewBox="0 0 300 300">
<path d="M 160.5 116.0 L 160.5 115.5 L 161.0 115.0 L 161.5 114.5 L 161.5 114.5 L 162.0 114.0 L 162.0 114.0 L 162.0 115.5 L 160.0 118.5 L 156.0 124.0 L 148.5 131.5 L 139.5 137.5 L 133.5 140.5 L 129.5 142.0 L 128.0 142.0 L 129.0 142.0 " stroke="black" fill="none" stroke-width="6.0" stroke-linecap="round" stroke-linejoin="round" />
<path d="M 168.0 131.5 L 168.0 131.5 L 167.5 131.5 L 167.5 131.5 L 167.5 132.0 L 167.0 132.5 L 166.5 134.0 L 164.5 138.0 L 159.0 144.5 L 150.0 152.0 L 140.5 158.5 L 132.0 162.5 L 128.5 164.0 L 129.0 163.5 L 130.0 162.5 " stroke="black" fill="none" stroke-width="6.0" stroke-linecap="round" stroke-linejoin="round" />
<path d="M 172.0 153.0 L 172.0 152.5 L 172.5 152.5 L 172.5 152.0 L 173.0 152.0 L 173.0 152.0 L 172.5 153.0 L 170.0 156.0 L 164.0 162.0 L 155.0 169.0 L 145.5 175.5 L 137.5 180.5 L 133.0 183.0 L 132.0 183.5 L 132.5 182.5 " stroke="black" fill="none" stroke-width="6.0" stroke-linecap="round" stroke-linejoin="round" />
</svg>