<svg xmlns="http://www.w3.org/2000/svg" width="300" height="300" viewBox="0 0 300 300">
<path d="M 134.5 114.5 L 134.5 114.0 L 134.5 113.5 L 134.5 112.5 L 134.5 112.0 L 134.5 110.5 L 135.5 109.5 L 135.5 109.0 L 136.0 108.5 L 136.0 110.0 L 135.0 115.5 L 132.5 124.0 L 128.5 132.5 L 126.5 137.0 L 125.5 137.5 L 125.0 137.0 L 125.0 136.0 L 125.0 134.0 " stroke="black" fill="none" stroke-width="6.0" stroke-linecap="round" stroke-linejoin="round" />
<path d="M 133.0 127.0 L 132.0 127.5 L 131.5 127.5 L 133.5 127.5 L 138.0 127.5 L 143.5 127.0 L 151.5 127.5 L 159.0 128.0 L 164.0 128.5 L 166.0 128.5 L 166.0 128.0 L 164.0 128.0 " stroke="black" fill="none" stroke-width="6.0" stroke-linecap="round" stroke-linejoin="round" />
<path d="M 125.5 149.5 L 125.5 149.5 L 124.0 149.0 L 123.0 149.0 L 123.0 148.5 L 125.5 148.5 L 131.0 148.5 L 138.5 149.0 L 147.0 150.0 L 156.5 150.0 L 162.5 150.0 L 163.5 149.5 L 162.5 149.0 " stroke="black" fill="none" stroke-width="6.0" stroke-linecap="round" stroke-linejoin="round" />
<path d="M 152.0 110.0 L 151.5 110.0 L 151.0 110.0 L 150.5 110.0 L 150.5 111.0 L 150.5 114.0 L 150.5 124.0 L 150.5 141.5 L 150.5 157.5 L 150.5 170.5 L 151.0 179.5 L 151.5 184.5 L 152.0 186.5 L 152.0 186.5 L 152.0 185.5 L 152.0 184.0 " stroke="black" fill="none" stroke-width="6.0" stroke-linecap="round" stroke-linejoin="round" />
</svg>