<svg xmlns="http://www.w3.org/2000/svg" width="300" height="300" viewBox="0 0 300 300">
<path d="M 133.5 117.0 L 133.5 116.5 L 133.5 115.5 L 133.5 115.0 L 133.5 114.5 L 133.5 114.5 L 133.5 114.5 L 132.5 117.0 L 130.0 121.0 L 126.5 126.0 L 121.0 131.0 L 117.0 134.5 L 115.5 135.5 L 115.0 135.5 L 114.5 135.0 L 114.5 134.5 L 114.5 134.5 L 114.5 134.5 L 114.5 134.5 L 115.0 134.5 L 115.5 134.5 L 116.0 134.5 L 116.5 135.0 L 117.0 137.0 L 118.0 141.5 L 119.0 148.5 L 120.0 157.0 L 121.5 165.5 L 122.0 171.0 L 122.5 176.0 L 122.5 180.0 L 122.5 183.5 L 123.0 185.0 L 123.0 185.0 L 123.5 181.5 " stroke="black" fill="none" stroke-width="6.0" stroke-linecap="round" stroke-linejoin="round" />
<path d="M 121.5 160.5 L 121.0 161.5 L 120.0 161.5 L 120.0 161.5 L 122.0 161.5 L 125.0 160.5 L 128.5 159.0 L 131.5 158.0 L 134.5 157.0 L 135.5 156.5 " stroke="black" fill="none" stroke-width="6.0" stroke-linecap="round" stroke-linejoin="round" />
<path d="M 160.5 122.0 L 159.5 122.0 L 158.5 122.0 L 158.0 122.0 L 158.0 122.0 L 160.0 122.0 L 163.0 121.5 L 166.0 120.5 L 169.0 120.0 L 172.0 120.0 L 174.0 120.0 L 175.0 120.5 L 175.5 122.0 L 175.5 124.5 L 175.5 128.0 L 174.5 133.5 L 173.5 141.0 L 173.0 150.0 L 172.5 158.0 L 172.0 165.5 L 171.5 173.0 L 171.0 179.0 L 171.0 181.5 L 171.0 182.0 L 171.0 180.5 L 170.5 178.0 L 170.0 177.0 " stroke="black" fill="none" stroke-width="6.0" stroke-linecap="round" stroke-linejoin="round" />
<path d="M 155.5 152.0 L 154.0 152.5 L 153.5 153.0 L 153.5 153.0 L 155.5 153.0 L 158.5 153.0 L 161.5 152.5 L 164.0 152.5 L 166.5 152.5 L 168.0 152.5 " stroke="black" fill="none" stroke-width="6.0" stroke-linecap="round" stroke-linejoin="round" />
<path d="M 127.5 185.0 L 127.0 185.0 L 126.5 185.0 L 126.5 184.5 L 128.0 184.0 L 132.5 183.5 L 139.0 183.0 L 146.5 182.5 L 154.0 182.0 L 160.5 181.5 L 164.5 180.0 L 167.5 179.0 L 168.0 178.5 " stroke="black" fill="none" stroke-width="6.0" stroke-linecap="round" stroke-linejoin="round" />
</svg>