<svg xmlns="http://www.w3.org/2000/svg" width="300" height="300" viewBox="0 0 300 300">
<path d="M 148.5 109.5 L 148.5 109.0 L 148.5 108.5 L 148.5 108.0 L 148.5 108.0 L 148.5 110.0 L 149.0 115.0 L 149.0 121.5 L 149.0 127.0 L 149.0 130.0 L 149.0 130.0 " stroke="black" fill="none" stroke-width="6.0" stroke-linecap="round" stroke-linejoin="round" />
<path d="M 151.0 119.0 L 151.0 119.0 L 150.5 119.0 L 150.0 119.0 L 150.5 119.0 L 153.0 119.0 L 156.5 118.5 L 159.5 118.0 L 163.0 117.5 L 165.5 117.0 " stroke="black" fill="none" stroke-width="6.0" stroke-linecap="round" stroke-linejoin="round" />
<path d="M 129.5 135.5 L 129.5 135.5 L 130.0 135.0 L 130.0 135.0 L 130.5 135.0 L 130.5 137.0 L 131.0 141.5 L 132.0 150.5 L 132.5 165.0 L 132.5 178.0 L 132.5 187.5 L 132.5 192.0 L 132.5 192.5 L 132.5 190.5 L 132.0 185.0 L 131.5 181.0 " stroke="black" fill="none" stroke-width="6.0" stroke-linecap="round" stroke-linejoin="round" />
<path d="M 133.0 135.5 L 133.0 136.0 L 133.5 136.5 L 133.5 136.5 L 134.5 136.5 L 136.0 137.0 L 140.0 137.0 L 147.0 136.0 L 156.0 134.0 L 165.0 132.5 L 172.0 131.5 L 175.5 131.5 L 176.0 132.0 L 176.0 132.5 L 176.0 133.0 L 176.0 133.0 L 176.0 133.5 L 176.0 134.5 L 176.0 135.5 L 176.0 137.0 L 176.0 140.5 L 176.5 146.0 L 177.5 155.5 L 178.5 167.0 L 179.5 176.5 L 179.5 185.0 L 179.5 192.0 L 179.5 195.5 L 179.5 196.5 L 179.5 196.0 L 179.0 194.0 L 178.0 191.5 " stroke="black" fill="none" stroke-width="6.0" stroke-linecap="round" stroke-linejoin="round" />
<path d="M 143.0 152.0 L 143.0 152.0 L 142.5 152.0 L 142.0 152.0 L 142.0 152.0 L 145.0 154.0 L 150.5 158.5 L 158.0 166.0 L 165.5 174.0 L 171.0 179.0 L 174.0 181.5 L 174.5 182.0 L 174.0 181.5 L 172.0 179.0 " stroke="black" fill="none" stroke-width="6.0" stroke-linecap="round" stroke-linejoin="round" />
<path d="M 165.0 146.5 L 165.0 146.0 L 165.0 145.5 L 165.0 145.0 L 164.5 145.0 L 164.5 145.0 L 164.5 145.5 L 164.0 147.5 L 163.0 150.5 L 161.0 155.0 L 157.5 162.0 L 153.0 169.5 L 148.5 175.0 L 146.0 179.0 L 144.5 181.0 L 144.5 181.0 L 145.0 179.0 L 146.0 177.5 " stroke="black" fill="none" stroke-width="6.0" stroke-linecap="round" stroke-linejoin="round" />
<path d="M 151.5 144.5 L 151.5 144.0 L 151.5 144.0 L 151.5 144.0 L 151.5 144.0 L 152.5 145.5 L 153.5 147.5 L 153.5 148.0 " stroke="black" fill="none" stroke-width="6.0" stroke-linecap="round" stroke-linejoin="round" />
<path d="M 139.5 162.5 L 139.5 162.5 L 139.0 162.0 L 139.0 161.5 L 139.0 161.5 L 140.5 163.0 L 143.0 164.0 L 145.5 165.0 " stroke="black" fill="none" stroke-width="6.0" stroke-linecap="round" stroke-linejoin="round" />
<path d="M 167.0 158.0 L 167.0 158.5 L 166.5 158.5 L 166.5 159.0 L 167.0 159.5 L 168.0 160.5 L 169.0 161.5 L 169.5 162.0 " stroke="black" fill="none" stroke-width="6.0" stroke-linecap="round" stroke-linejoin="round" />
<path d="M 155.5 179.5 L 156.5 180.0 L 157.0 180.0 L 157.5 180.5 L 158.5 181.0 L 159.5 182.0 L 160.5 183.0 " stroke="black" fill="none" stroke-width="6.0" stroke-linecap="round" stroke-linejoin="round" />
<path d="M 131.5 193.0 L 132.0 193.0 L 133.0 193.0 L 134.0 193.0 L 136.0 193.0 L 140.0 193.0 L 148.5 193.0 L 159.5 193.5 L 170.5 193.5 L 178.0 191.5 L 179.5 191.0 " stroke="black" fill="none" stroke-width="6.0" stroke-linecap="round" stroke-linejoin="round" />
</svg>