<svg xmlns="http://www.w3.org/2000/svg" width="300" height="300" viewBox="0 0 300 300">
<path d="M 137.5 101.5 L 137.5 101.5 L 137.5 100.5 L 137.5 99.5 L 137.5 99.0 L 137.5 98.5 L 137.5 98.0 L 137.5 98.0 L 137.5 98.0 L 137.5 99.0 L 137.0 101.5 L 136.0 104.5 L 135.0 107.5 L 134.0 110.0 L 133.5 111.0 L 133.5 111.0 " stroke="black" fill="none" stroke-width="6.0" stroke-linecap="round" stroke-linejoin="round" />
<path d="M 137.5 104.5 L 137.0 104.5 L 136.0 104.5 L 136.0 104.5 L 136.0 104.5 L 138.0 104.0 L 140.0 103.0 L 142.5 102.5 L 145.5 102.0 L 149.0 102.0 L 152.0 101.5 L 154.5 101.5 L 156.5 101.5 L 157.5 101.5 L 158.0 101.5 L 158.5 101.5 L 159.0 101.5 L 159.0 101.5 L 159.5 101.5 L 159.5 101.5 L 159.5 101.5 L 159.5 101.5 L 159.5 101.5 L 159.5 101.5 L 159.5 101.5 L 159.5 101.5 L 159.0 101.5 L 158.5 103.0 L 158.0 105.0 L 157.5 107.0 L 156.5 108.5 L 156.5 110.0 L 156.0 110.5 L 156.0 111.0 " stroke="black" fill="none" stroke-width="6.0" stroke-linecap="round" stroke-linejoin="round" />
<path d="M 131.5 119.0 L 131.5 119.0 L 132.0 119.5 L 132.0 119.5 L 132.5 119.5 L 132.5 119.5 L 132.5 119.5 L 133.0 119.5 L 133.5 119.5 L 134.5 119.0 L 136.5 119.0 L 139.0 118.5 L 144.0 118.0 L 149.0 117.0 L 153.5 116.0 L 157.0 115.5 L 159.5 115.0 L 162.0 115.0 L 165.0 115.0 L 167.0 115.0 L 169.0 115.5 L 171.0 115.5 L 172.5 116.0 L 173.5 116.0 L 174.5 116.0 L 174.5 116.0 L 175.0 116.0 L 175.0 116.0 L 175.0 116.0 L 175.0 116.0 L 175.0 116.0 L 175.0 116.0 L 175.0 116.0 L 175.0 116.0 L 175.0 116.0 L 175.0 116.0 L 175.0 116.0 L 175.0 116.0 L 175.0 116.0 L 175.0 116.0 L 175.0 116.0 L 175.0 116.0 L 175.0 116.0 L 175.0 116.0 L 175.0 116.0 L 175.0 116.0 L 175.0 116.0 L 175.0 116.0 L 175.0 116.0 L 175.0 116.0 L 175.0 116.0 L 175.0 116.0 L 175.0 116.0 L 175.0 116.0 L 175.0 116.0 L 175.0 116.0 L 175.0 116.0 L 175.0 116.0 L 175.0 116.0 L 175.0 115.5 L 175.0 115.5 L 175.0 115.5 L 175.0 115.5 L 175.0 115.5 L 175.0 115.5 L 175.0 115.5 L 175.0 115.5 L 175.0 115.5 L 175.0 115.5 L 175.0 116.0 L 175.0 116.5 L 175.0 117.5 L 175.0 119.0 L 175.0 121.0 L 174.5 123.5 L 174.0 126.0 L 174.0 128.0 L 174.0 129.0 L 174.0 129.0 L 174.0 129.0 L 174.0 129.0 " stroke="black" fill="none" stroke-width="6.0" stroke-linecap="round" stroke-linejoin="round" />
<path d="M 129.5 120.0 L 130.0 120.0 L 130.5 120.0 L 130.5 120.0 L 130.5 120.0 L 130.5 120.5 L 131.0 121.0 L 131.0 122.0 L 131.5 123.0 L 131.5 125.0 L 131.5 126.5 L 131.5 128.5 L 131.5 130.0 L 131.5 131.5 L 131.5 132.5 L 131.5 132.5 L 131.5 132.5 L 131.5 132.5 L 131.5 132.5 L 131.5 132.5 L 131.5 132.5 L 131.5 132.5 L 132.0 132.5 L 132.0 132.5 L 132.5 132.5 L 133.0 132.5 L 134.0 132.5 L 136.0 132.5 L 138.5 132.5 L 141.0 132.0 L 142.5 131.5 L 144.0 131.5 L 145.0 131.5 " stroke="black" fill="none" stroke-width="6.0" stroke-linecap="round" stroke-linejoin="round" />
<path d="M 148.0 121.0 L 147.5 121.0 L 147.0 121.0 L 146.5 121.0 L 146.5 121.0 L 146.5 121.0 L 146.5 121.5 L 146.5 122.0 L 146.5 124.0 L 146.5 126.5 L 146.5 129.5 L 146.5 133.0 L 146.5 136.0 L 146.5 139.5 L 146.5 143.5 L 146.5 147.0 L 146.5 150.0 L 146.5 152.5 L 146.5 154.5 L 146.5 156.5 L 146.5 159.0 L 147.0 161.0 L 147.0 163.5 L 147.0 165.5 L 147.0 167.5 L 147.5 169.0 L 147.5 171.0 L 147.5 173.0 L 147.5 174.5 L 148.0 176.5 L 148.0 177.5 L 148.0 179.0 L 148.0 180.0 L 148.0 181.0 L 148.0 182.0 L 148.5 183.0 L 148.5 184.0 L 148.5 184.5 L 148.5 185.5 L 149.0 186.5 L 149.0 187.0 L 149.5 188.0 L 150.0 189.0 L 150.0 189.5 L 150.5 190.0 L 151.5 190.5 L 152.0 191.0 L 153.0 191.0 L 154.0 191.5 L 155.0 192.0 L 156.0 192.0 L 157.5 192.5 L 159.5 193.0 L 161.5 193.5 L 163.5 193.5 L 165.0 193.5 L 167.0 193.5 L 168.0 193.5 L 169.5 193.5 L 171.0 193.5 L 172.5 193.0 L 174.0 193.0 L 175.0 193.0 L 176.5 192.5 L 177.5 192.5 L 178.5 192.0 L 179.0 192.0 L 180.0 192.0 L 180.5 192.0 L 181.5 192.0 L 182.0 191.5 L 182.5 191.5 L 183.0 191.5 L 183.0 191.5 L 183.5 191.5 L 184.0 191.5 L 184.0 191.5 L 184.0 191.5 L 184.0 191.0 L 184.5 191.0 L 184.5 191.0 L 184.5 191.0 L 184.5 191.0 L 185.0 191.0 L 185.0 191.0 L 185.0 191.0 L 185.5 191.0 L 185.5 191.0 L 185.5 191.0 L 186.0 191.0 L 186.0 191.0 L 186.0 190.5 L 186.0 190.5 L 186.5 190.5 L 186.5 190.5 L 186.5 190.0 L 186.5 189.5 L 186.5 188.5 L 186.5 187.5 L 186.5 186.5 L 186.5 185.5 L 186.5 184.5 L 186.5 184.5 L 186.5 184.0 " stroke="black" fill="none" stroke-width="6.0" stroke-linecap="round" stroke-linejoin="round" />
<path d="M 162.0 118.0 L 162.0 118.0 L 162.0 118.0 L 162.0 118.0 L 162.0 118.0 L 161.5 118.0 L 161.5 118.0 L 161.5 117.5 L 161.5 117.5 L 161.5 117.5 L 161.5 117.5 L 161.5 117.5 L 161.5 117.5 L 161.5 117.5 L 161.5 117.5 L 161.5 118.0 L 161.5 118.5 L 162.0 119.5 L 162.0 120.5 L 162.0 121.5 L 162.0 123.0 L 162.5 124.5 L 162.5 125.5 L 162.5 127.0 L 162.5 128.5 L 162.5 129.5 L 162.5 131.0 L 162.5 132.0 L 162.5 133.5 L 162.5 134.5 L 162.5 136.0 L 162.5 137.0 L 162.5 138.5 L 162.5 140.0 L 162.5 141.0 L 162.5 142.5 L 162.5 143.5 L 162.5 144.5 L 162.5 146.0 L 162.5 147.5 L 162.5 148.5 L 162.5 149.5 L 162.5 150.5 L 162.5 151.0 L 162.5 152.0 L 162.5 153.0 L 162.5 154.0 L 162.5 155.0 L 162.5 155.5 L 162.5 156.5 L 162.5 157.5 L 162.5 158.5 L 162.5 159.5 L 162.5 160.5 L 162.5 161.0 L 162.5 162.0 L 162.5 163.0 L 162.5 164.0 L 162.5 165.0 L 162.5 166.0 L 162.5 167.0 L 162.5 167.5 L 162.5 168.5 L 162.5 169.0 L 162.5 170.0 L 162.5 171.0 L 162.0 171.5 L 162.0 172.0 L 162.0 172.5 L 162.0 173.5 L 162.0 174.5 L 162.0 175.0 L 161.5 175.5 L 161.5 175.5 L 162.0 175.0 " stroke="black" fill="none" stroke-width="6.0" stroke-linecap="round" stroke-linejoin="round" />
<path d="M 167.0 130.0 L 167.0 130.0 L 166.5 130.0 L 166.0 130.0 L 166.0 130.0 L 166.5 130.0 L 168.5 129.5 L 171.0 129.5 L 173.0 129.0 L 175.0 129.0 L 175.5 129.0 " stroke="black" fill="none" stroke-width="6.0" stroke-linecap="round" stroke-linejoin="round" />
<path d="M 118.5 150.5 L 118.5 150.5 L 118.0 150.5 L 117.5 150.5 L 117.5 150.5 L 117.5 150.5 L 118.0 150.5 L 119.0 150.5 L 120.5 150.5 L 122.0 150.5 L 123.5 150.0 L 126.0 150.0 L 128.5 150.0 L 131.5 150.0 L 134.5 149.5 L 137.5 149.5 L 140.5 149.0 L 142.5 149.0 L 144.5 149.0 L 146.5 149.0 L 148.0 149.0 L 150.5 148.5 L 153.0 148.0 L 155.5 147.5 L 157.5 147.5 L 159.5 147.5 L 161.0 147.5 L 162.5 147.5 L 164.0 147.5 L 165.5 147.5 L 167.0 147.5 L 168.5 147.5 L 169.5 147.5 L 170.0 147.5 L 171.0 147.5 L 172.0 147.5 L 172.5 147.5 L 173.5 147.5 L 174.0 147.5 L 175.0 148.0 L 175.5 148.0 L 176.0 148.0 L 176.5 148.0 L 177.5 148.0 L 178.0 148.0 L 179.0 148.0 L 179.5 148.0 L 180.0 148.0 L 180.5 148.0 L 181.0 148.0 L 181.0 148.0 L 181.5 148.0 L 182.0 148.0 L 182.0 148.0 L 182.5 148.0 L 183.0 148.0 L 183.0 148.0 L 183.5 148.0 L 184.0 148.0 L 184.5 148.0 L 185.0 148.0 L 185.0 148.0 L 185.5 148.0 L 186.0 148.0 L 186.5 148.0 L 187.0 148.0 L 187.5 148.0 L 188.0 148.0 L 188.5 148.0 L 188.5 148.0 L 188.5 148.0 L 188.5 148.0 L 189.0 148.0 " stroke="black" fill="none" stroke-width="6.0" stroke-linecap="round" stroke-linejoin="round" />
<path d="M 187.0 148.5 L 187.0 148.5 L 186.5 148.0 L 186.5 148.0 L 186.0 147.5 L 186.0 147.5 L 186.0 147.5 L 186.0 147.5 L 186.0 148.5 L 186.0 150.5 L 186.0 152.0 L 186.0 154.0 L 186.5 155.5 L 186.5 157.0 L 186.5 158.5 L 186.5 159.5 L 186.5 160.5 L 186.5 161.5 L 186.5 162.5 L 186.5 163.0 L 186.5 164.0 L 186.5 164.5 L 186.5 165.0 L 186.5 165.5 L 186.5 166.0 L 186.5 166.5 L 186.5 167.0 L 186.5 167.0 L 186.5 167.5 L 186.5 167.5 L 186.5 167.5 L 186.5 167.5 " stroke="black" fill="none" stroke-width="6.0" stroke-linecap="round" stroke-linejoin="round" />
<path d="M 164.0 174.5 L 164.0 174.5 L 163.5 174.5 L 163.5 174.5 L 163.0 174.5 L 163.0 174.5 L 163.0 174.5 L 163.5 174.5 L 165.0 174.5 L 166.5 174.0 L 168.5 174.0 L 170.0 174.0 L 172.0 174.0 L 173.0 174.0 L 174.0 174.0 L 175.0 174.0 L 176.0 173.5 L 177.5 173.5 L 178.5 173.5 L 179.5 173.5 L 180.0 173.5 L 180.5 173.5 L 181.0 173.5 L 181.5 173.5 L 182.5 173.5 L 183.0 173.5 L 183.5 173.5 L 184.0 173.5 L 184.0 173.5 L 184.5 173.5 L 185.0 173.5 L 185.0 173.5 L 185.5 173.5 L 186.0 173.5 L 186.0 173.5 L 186.0 173.5 L 186.0 173.5 L 186.0 173.5 L 186.5 173.5 L 186.5 173.5 L 186.5 173.5 L 186.5 173.5 L 186.5 173.5 L 187.0 173.5 L 187.0 173.5 L 187.0 173.5 L 187.0 173.5 L 187.0 173.5 L 187.0 173.5 L 187.5 173.5 L 187.5 173.5 L 187.5 173.5 L 187.5 173.5 L 187.5 173.5 L 187.5 173.5 L 187.5 173.5 L 187.5 173.5 L 187.5 173.5 L 187.5 173.5 L 187.5 173.5 L 187.5 173.5 L 187.5 173.5 L 187.5 173.5 L 187.5 173.5 L 187.5 173.5 L 187.5 173.5 L 187.5 173.5 L 187.5 173.5 L 187.5 173.5 L 187.5 173.5 L 188.0 173.5 L 188.0 173.5 L 188.0 173.5 L 188.0 173.5 L 188.0 173.5 L 188.0 173.5 L 188.0 173.5 L 188.0 173.5 L 188.0 173.5 L 188.0 173.5 L 188.0 173.5 L 188.0 173.5 L 188.0 173.5 L 188.0 173.5 L 188.0 173.5 L 188.0 173.5 L 188.0 173.5 L 188.0 173.5 L 188.0 173.5 L 188.0 173.5 L 188.0 173.5 L 188.0 173.5 L 188.0 173.5 L 188.0 173.5 " stroke="black" fill="none" stroke-width="6.0" stroke-linecap="round" stroke-linejoin="round" />
<path d="M 120.0 175.5 L 120.0 175.5 L 120.0 176.0 L 120.0 176.5 L 120.0 176.5 L 120.5 176.5 L 121.5 176.5 L 122.0 176.5 L 123.0 176.5 L 123.5 176.5 L 124.5 176.0 L 125.5 176.0 L 126.5 176.0 L 127.5 176.0 L 128.5 176.0 L 129.5 176.0 L 130.5 176.0 L 132.0 176.0 L 133.5 176.0 L 135.5 175.5 L 137.5 175.5 L 139.0 175.5 L 140.5 175.0 L 141.5 175.0 L 143.0 175.0 L 144.5 175.0 L 146.5 174.5 L 148.0 174.5 L 149.5 174.0 L 150.5 174.0 L 151.5 174.0 L 152.0 174.0 L 153.0 174.0 L 154.0 173.5 L 155.0 173.5 L 156.0 173.5 L 156.5 173.5 L 157.0 173.5 L 157.5 173.5 L 158.0 173.5 L 158.0 173.5 L 158.5 173.5 L 159.0 173.5 L 159.5 173.5 L 160.0 173.5 L 160.0 173.5 L 160.0 173.5 L 160.5 173.5 L 160.5 173.5 L 160.5 173.5 L 161.0 173.5 L 161.0 173.5 " stroke="black" fill="none" stroke-width="6.0" stroke-linecap="round" stroke-linejoin="round" />
<path d="M 178.0 153.5 L 178.5 153.5 L 178.5 153.5 L 179.0 153.5 L 179.0 153.5 L 179.0 154.0 L 179.0 154.0 L 179.0 155.0 L 178.0 156.5 L 176.0 159.0 L 174.0 162.5 L 171.5 165.5 L 170.0 167.5 L 169.0 169.0 L 169.0 169.5 " stroke="black" fill="none" stroke-width="6.0" stroke-linecap="round" stroke-linejoin="round" />
<path d="M 171.0 156.0 L 170.5 156.5 L 170.0 156.5 L 169.5 157.0 L 170.0 157.0 L 171.5 158.0 L 174.0 159.5 L 176.5 161.0 L 179.0 163.0 L 181.5 164.5 L 183.0 165.5 L 183.0 165.5 " stroke="black" fill="none" stroke-width="6.0" stroke-linecap="round" stroke-linejoin="round" />
<path d="M 115.0 139.5 L 115.0 139.5 L 115.0 139.5 L 115.0 140.0 L 115.0 140.0 L 115.0 140.0 L 115.0 140.0 L 116.0 140.0 L 117.0 140.0 L 118.5 140.0 L 120.5 140.0 L 122.0 140.0 L 123.5 139.5 L 124.5 139.5 L 125.5 139.0 L 126.0 139.0 L 126.0 139.0 L 126.5 139.0 L 126.5 139.0 L 126.5 139.0 L 126.5 139.0 L 126.5 139.0 L 126.5 139.0 L 126.5 139.0 L 127.0 139.0 L 127.0 139.0 L 127.0 139.0 L 127.0 139.0 L 127.0 139.0 L 127.0 139.0 L 127.0 139.5 L 127.0 140.5 L 127.0 141.0 L 127.0 142.5 L 127.0 144.0 L 126.5 145.5 L 126.5 147.0 L 126.5 148.5 L 126.5 149.5 L 126.5 150.5 L 126.5 151.5 L 126.5 152.5 L 126.5 153.0 L 127.0 153.0 L 127.0 153.0 L 127.0 153.0 L 127.0 153.0 L 127.0 153.5 L 127.0 153.5 " stroke="black" fill="none" stroke-width="6.0" stroke-linecap="round" stroke-linejoin="round" />
<path d="M 116.5 158.5 L 116.5 158.5 L 116.5 159.0 L 116.0 159.5 L 116.0 159.5 L 115.5 159.5 L 115.5 159.5 L 115.5 159.0 L 116.0 159.0 L 117.0 159.0 L 118.0 158.5 L 119.0 158.5 L 120.5 158.5 L 122.0 158.0 L 123.5 158.0 L 125.0 158.0 L 126.0 157.5 L 126.5 157.5 L 126.5 157.5 L 127.0 157.5 " stroke="black" fill="none" stroke-width="6.0" stroke-linecap="round" stroke-linejoin="round" />
<path d="M 115.5 168.5 L 115.5 168.5 L 116.0 168.5 L 116.0 168.5 L 116.5 168.5 L 117.0 168.0 L 117.5 168.0 L 118.5 167.5 L 119.5 167.5 L 121.0 167.5 L 122.0 167.5 L 123.5 167.5 L 124.5 167.5 L 125.5 167.5 L 126.5 167.5 L 127.0 167.0 L 127.5 167.0 L 128.0 167.0 L 128.5 167.0 L 128.5 167.0 L 128.5 167.0 L 128.5 167.0 L 128.5 167.0 L 128.5 167.0 L 128.5 167.0 L 128.5 167.0 L 128.5 167.0 L 128.5 167.0 L 128.0 167.5 L 128.0 168.5 L 127.5 169.5 L 127.5 170.5 L 127.0 171.5 L 127.0 173.0 L 127.0 174.5 L 126.5 176.0 L 126.5 177.0 L 126.5 178.0 L 126.5 179.0 L 126.5 180.0 L 126.5 181.0 L 126.5 181.5 L 126.5 181.5 L 126.5 181.5 L 126.5 181.5 L 126.5 182.5 L 126.5 183.5 L 127.0 184.0 " stroke="black" fill="none" stroke-width="6.0" stroke-linecap="round" stroke-linejoin="round" />
<path d="M 115.5 186.5 L 115.5 186.5 L 115.5 186.5 L 115.0 186.5 L 114.5 186.5 L 114.5 186.5 L 114.5 186.5 L 114.5 186.5 L 115.5 186.5 L 117.5 186.5 L 120.5 186.0 L 123.5 185.5 L 126.0 185.0 L 127.5 185.0 L 128.0 185.0 " stroke="black" fill="none" stroke-width="6.0" stroke-linecap="round" stroke-linejoin="round" />
</svg>