<svg xmlns="http://www.w3.org/2000/svg" width="300" height="300" viewBox="0 0 300 300">
<path d="M 129.0 120.5 L 129.0 120.0 L 129.0 119.5 L 129.0 119.0 L 129.0 119.0 L 129.0 119.0 L 129.5 120.5 L 130.0 124.5 L 130.5 131.0 L 131.5 140.0 L 132.0 149.5 L 132.5 155.5 L 133.0 160.0 L 133.5 163.0 L 133.5 165.0 L 133.5 166.5 L 133.5 167.0 L 133.5 167.0 L 133.5 167.0 L 133.5 167.0 L 134.0 166.5 L 135.0 166.5 L 136.5 166.5 L 140.0 166.5 L 145.0 166.5 L 152.0 166.0 L 158.5 165.0 L 164.5 164.5 L 169.5 164.5 L 172.5 165.0 L 174.0 165.0 L 174.0 165.0 L 173.5 165.0 L 172.5 165.0 L 172.0 164.5 " stroke="black" fill="none" stroke-width="6.0" stroke-linecap="round" stroke-linejoin="round" />
<path d="M 173.0 119.5 L 173.0 119.0 L 173.5 118.0 L 173.5 117.5 L 173.5 117.5 L 173.5 118.5 L 174.0 121.0 L 174.0 126.5 L 174.5 134.0 L 175.0 142.5 L 175.5 151.0 L 176.0 159.0 L 176.0 165.5 L 176.5 170.0 L 177.0 172.0 L 177.5 172.0 L 177.0 171.0 " stroke="black" fill="none" stroke-width="6.0" stroke-linecap="round" stroke-linejoin="round" />
</svg>