<svg xmlns="http://www.w3.org/2000/svg" width="300" height="300" viewBox="0 0 300 300">
<path d="M 130.0 115.0 L 129.0 114.5 L 128.5 114.5 L 128.0 114.0 L 128.0 114.0 L 128.5 114.0 L 132.5 114.0 L 139.5 114.0 L 148.5 113.5 L 157.0 113.5 L 161.5 113.5 L 163.0 113.5 L 163.0 113.5 L 163.0 113.5 L 163.0 113.0 L 163.5 112.5 L 164.0 112.5 L 164.0 112.5 " stroke="black" fill="none" stroke-width="6.0" stroke-linecap="round" stroke-linejoin="round" />
<path d="M 130.0 112.0 L 129.5 112.5 L 129.5 113.0 L 129.5 113.5 L 129.5 115.0 L 130.0 117.0 L 131.5 128.0 L 132.0 140.0 L 132.0 151.0 L 132.0 159.5 L 132.0 165.0 L 132.0 166.5 L 132.5 166.5 L 132.5 165.5 L 133.0 163.0 L 133.0 162.0 " stroke="black" fill="none" stroke-width="6.0" stroke-linecap="round" stroke-linejoin="round" />
<path d="M 153.0 117.5 L 152.5 117.0 L 151.5 117.0 L 151.0 117.0 L 151.0 117.0 L 151.0 117.5 L 151.5 120.5 L 152.5 124.5 L 153.0 128.5 L 153.5 130.5 L 153.5 130.5 L 154.0 130.5 " stroke="black" fill="none" stroke-width="6.0" stroke-linecap="round" stroke-linejoin="round" />
<path d="M 140.0 131.5 L 140.0 131.5 L 139.0 132.0 L 139.0 132.0 L 140.5 132.0 L 145.5 131.0 L 153.0 129.5 L 160.5 128.0 L 165.5 127.0 L 166.5 127.0 L 165.5 128.0 L 164.5 129.5 L 163.5 131.5 L 163.5 133.5 L 163.0 135.5 L 163.0 138.0 L 162.5 139.0 L 162.5 140.0 L 162.0 140.5 L 162.0 140.5 " stroke="black" fill="none" stroke-width="6.0" stroke-linecap="round" stroke-linejoin="round" />
<path d="M 139.0 148.0 L 139.0 148.0 L 139.0 148.0 L 139.5 148.0 L 140.0 148.0 L 144.5 147.5 L 152.5 145.5 L 161.0 144.0 L 165.5 143.5 L 166.0 143.0 L 164.5 144.0 " stroke="black" fill="none" stroke-width="6.0" stroke-linecap="round" stroke-linejoin="round" />
<path d="M 152.5 148.5 L 152.5 148.5 L 152.5 148.0 L 152.0 148.0 L 152.0 148.0 L 152.0 149.5 L 152.5 153.0 L 153.0 157.5 L 153.0 160.5 L 153.5 161.5 " stroke="black" fill="none" stroke-width="6.0" stroke-linecap="round" stroke-linejoin="round" />
<path d="M 136.5 168.5 L 136.5 168.5 L 136.0 169.0 L 135.5 169.0 L 135.5 169.0 L 135.5 169.0 L 136.0 169.0 L 139.0 168.0 L 144.5 166.5 L 153.5 165.5 L 163.5 165.0 L 170.0 165.0 L 172.5 165.5 L 172.0 165.5 L 171.0 165.5 " stroke="black" fill="none" stroke-width="6.0" stroke-linecap="round" stroke-linejoin="round" />
</svg>