<svg xmlns="http://www.w3.org/2000/svg" width="300" height="300" viewBox="0 0 300 300">
<path d="M 133.0 122.0 L 132.0 121.5 L 131.0 121.5 L 131.0 121.5 L 131.5 121.5 L 133.0 121.5 L 136.0 121.5 L 141.0 121.0 L 148.0 120.5 L 157.0 119.5 L 163.5 119.0 L 168.0 118.5 L 169.5 118.5 L 169.5 118.5 L 168.5 118.5 L 168.5 118.5 L 168.0 118.5 L 167.5 119.0 L 167.5 120.0 L 167.0 121.0 L 166.5 123.0 L 166.0 127.0 L 165.5 132.5 L 165.0 138.5 L 165.0 142.0 L 165.0 143.0 L 165.0 143.0 L 164.5 143.0 " stroke="black" fill="none" stroke-width="6.0" stroke-linecap="round" stroke-linejoin="round" />
<path d="M 120.5 135.0 L 120.5 135.0 L 120.5 135.0 L 120.5 135.0 L 120.5 135.0 L 122.0 134.5 L 126.5 134.0 L 134.0 132.5 L 142.5 132.0 L 152.0 131.5 L 162.0 131.5 L 169.5 131.0 L 176.0 130.5 L 180.5 130.0 L 182.0 130.0 L 182.0 130.0 L 181.5 130.0 L 180.5 130.0 L 179.5 130.0 " stroke="black" fill="none" stroke-width="6.0" stroke-linecap="round" stroke-linejoin="round" />
<path d="M 130.0 146.5 L 130.0 146.5 L 130.0 146.5 L 130.0 146.0 L 131.0 146.0 L 135.0 146.0 L 143.0 146.0 L 154.5 146.0 L 164.0 145.5 L 170.5 145.0 L 174.0 145.0 L 174.5 145.5 L 174.5 146.5 " stroke="black" fill="none" stroke-width="6.0" stroke-linecap="round" stroke-linejoin="round" />
<path d="M 133.0 161.5 L 132.5 161.5 L 132.0 161.5 L 132.0 161.5 L 133.0 161.5 L 138.0 160.5 L 147.0 159.5 L 157.0 158.5 L 164.5 158.0 L 168.5 157.5 L 168.5 157.5 L 167.0 157.5 " stroke="black" fill="none" stroke-width="6.0" stroke-linecap="round" stroke-linejoin="round" />
<path d="M 121.0 176.0 L 121.0 176.5 L 121.0 177.5 L 121.0 178.0 L 121.0 178.0 L 121.5 178.0 L 124.0 178.0 L 128.5 177.5 L 136.0 176.5 L 146.5 175.5 L 157.0 174.5 L 166.0 174.0 L 171.5 174.0 L 174.0 174.0 L 174.5 174.0 L 174.0 174.0 L 174.0 174.0 L 173.5 174.0 L 173.5 174.0 L 174.0 174.0 L 174.0 174.0 " stroke="black" fill="none" stroke-width="6.0" stroke-linecap="round" stroke-linejoin="round" />
<path d="M 151.0 109.5 L 151.0 109.5 L 150.5 109.5 L 150.5 109.5 L 150.0 109.5 L 150.0 110.5 L 150.5 114.0 L 151.5 121.0 L 152.0 130.5 L 152.0 139.5 L 152.5 146.5 L 152.5 153.0 L 152.5 159.0 L 152.0 165.0 L 151.5 170.0 L 151.5 175.0 L 151.5 179.0 L 151.0 183.5 L 151.0 186.5 L 151.0 189.5 L 151.0 192.0 L 151.0 194.0 L 151.0 195.5 L 151.0 196.5 L 151.0 197.5 L 151.0 198.5 L 151.0 199.0 L 151.0 199.0 L 151.0 199.0 L 151.0 199.0 L 151.0 199.0 L 151.0 199.0 L 151.0 199.0 L 151.0 199.0 L 151.0 199.0 L 151.0 199.0 L 151.0 199.0 L 151.0 199.5 L 151.0 199.5 L 151.0 200.0 L 151.0 200.0 L 151.0 200.5 L 151.0 200.5 L 151.0 200.5 L 151.0 200.5 L 151.0 201.0 L 151.0 201.0 L 151.0 200.5 L 151.0 200.5 " stroke="black" fill="none" stroke-width="6.0" stroke-linecap="round" stroke-linejoin="round" />
</svg>