<svg xmlns="http://www.w3.org/2000/svg" width="300" height="300" viewBox="0 0 300 300">
<path d="M 131.5 125.5 L 131.5 125.0 L 131.5 124.5 L 131.5 124.0 L 131.5 124.0 L 132.0 124.0 L 132.5 127.0 L 134.0 134.5 L 135.5 147.0 L 136.0 157.5 L 136.0 160.0 L 136.0 159.0 L 136.0 155.5 L 136.0 151.0 " stroke="black" fill="none" stroke-width="6.0" stroke-linecap="round" stroke-linejoin="round" />
<path d="M 135.5 123.5 L 135.5 123.5 L 134.0 123.5 L 133.5 123.0 L 133.5 123.0 L 134.5 123.0 L 137.5 123.0 L 141.5 123.0 L 147.5 123.0 L 156.0 123.0 L 164.5 123.0 L 171.0 123.0 L 175.5 123.0 L 177.0 123.0 L 177.0 123.0 L 176.5 123.0 L 176.0 123.0 L 176.0 123.0 L 175.5 124.0 L 175.0 126.0 L 174.5 129.0 L 174.0 134.0 L 173.0 141.5 L 172.0 150.5 L 171.5 157.5 L 171.5 161.0 L 171.5 161.5 L 171.5 161.5 L 171.5 160.5 L 171.5 158.5 " stroke="black" fill="none" stroke-width="6.0" stroke-linecap="round" stroke-linejoin="round" />
<path d="M 141.5 161.5 L 140.5 161.5 L 139.5 161.5 L 138.5 161.5 L 138.5 161.5 L 140.5 161.5 L 145.0 161.5 L 151.5 161.5 L 159.5 161.5 L 167.5 162.0 L 172.0 163.0 L 172.0 163.0 " stroke="black" fill="none" stroke-width="6.0" stroke-linecap="round" stroke-linejoin="round" />
</svg>