<svg xmlns="http://www.w3.org/2000/svg" width="300" height="300" viewBox="0 0 300 300">
<path d="M 133.0 122.0 L 133.0 122.0 L 132.5 121.0 L 132.5 121.0 L 132.5 120.5 L 132.5 121.5 L 133.0 125.5 L 133.5 133.5 L 133.5 148.5 L 132.0 164.0 L 131.5 172.0 L 132.0 172.5 L 133.0 170.0 L 133.5 164.5 " stroke="black" fill="none" stroke-width="6.0" stroke-linecap="round" stroke-linejoin="round" />
<path d="M 136.5 122.5 L 135.5 122.0 L 134.5 121.5 L 134.5 121.5 L 135.0 121.5 L 137.5 121.5 L 141.5 121.5 L 147.0 121.5 L 154.5 122.0 L 161.0 123.0 L 166.0 124.0 L 168.0 124.5 L 168.0 125.0 L 167.0 125.0 L 167.0 125.0 L 166.5 125.0 L 166.5 125.0 L 166.5 125.5 L 166.0 127.0 L 165.5 131.0 L 165.0 140.0 L 164.0 153.0 L 164.0 164.0 L 164.0 169.0 L 164.0 171.0 L 164.0 171.5 L 164.0 171.0 L 163.5 168.0 L 163.5 167.0 " stroke="black" fill="none" stroke-width="6.0" stroke-linecap="round" stroke-linejoin="round" />
<path d="M 138.5 138.5 L 138.5 138.5 L 138.5 139.0 L 138.5 139.0 L 139.5 139.0 L 142.0 139.0 L 145.5 139.0 L 149.5 139.0 L 154.5 138.5 L 159.0 138.5 L 162.0 138.0 L 162.5 137.5 L 162.5 137.5 " stroke="black" fill="none" stroke-width="6.0" stroke-linecap="round" stroke-linejoin="round" />
<path d="M 139.0 155.5 L 139.0 156.5 L 139.0 157.0 L 139.5 157.0 L 141.0 157.0 L 144.0 156.5 L 149.0 155.5 L 154.0 154.5 L 158.5 154.0 L 159.5 154.0 " stroke="black" fill="none" stroke-width="6.0" stroke-linecap="round" stroke-linejoin="round" />
<path d="M 134.0 175.5 L 133.5 175.5 L 133.0 176.5 L 132.5 176.5 L 132.5 176.5 L 135.0 176.5 L 139.5 176.0 L 146.0 175.5 L 154.5 175.5 L 161.5 175.0 L 166.0 174.5 L 166.5 174.0 " stroke="black" fill="none" stroke-width="6.0" stroke-linecap="round" stroke-linejoin="round" />
</svg>