<svg xmlns="http://www.w3.org/2000/svg" width="300" height="300" viewBox="0 0 300 300">
<path d="M 126.5 119.5 L 126.5 119.5 L 127.0 119.5 L 127.0 119.5 L 127.0 119.5 L 127.5 119.5 L 128.5 121.0 L 129.5 124.5 L 130.0 131.5 L 130.5 143.0 L 129.5 156.0 L 128.0 167.5 L 127.5 177.0 L 127.5 182.0 L 127.5 183.5 L 128.0 183.0 L 128.5 179.5 L 128.5 171.5 L 128.5 169.0 " stroke="black" fill="none" stroke-width="6.0" stroke-linecap="round" stroke-linejoin="round" />
<path d="M 133.0 119.0 L 131.5 118.5 L 131.0 118.5 L 131.0 118.5 L 131.0 118.5 L 133.0 118.5 L 136.0 119.0 L 141.5 119.0 L 149.0 119.0 L 158.0 118.0 L 164.5 118.0 L 167.5 118.0 L 168.5 119.0 L 169.0 119.5 L 168.5 119.5 L 168.5 119.5 L 168.0 119.5 L 168.0 119.5 L 168.0 120.5 L 168.5 122.5 L 169.5 126.0 L 170.5 131.5 L 171.5 139.0 L 172.5 148.0 L 173.0 158.0 L 173.0 169.0 L 173.0 178.5 L 173.0 185.0 L 173.0 189.5 L 172.5 191.0 L 172.5 190.5 L 171.0 189.0 L 168.0 185.5 L 166.0 182.0 L 165.0 181.0 " stroke="black" fill="none" stroke-width="6.0" stroke-linecap="round" stroke-linejoin="round" />
<path d="M 153.0 100.5 L 152.5 100.0 L 152.0 99.5 L 152.0 99.5 L 152.0 99.5 L 152.0 100.0 L 152.5 103.0 L 152.5 107.0 L 152.5 113.5 L 150.0 123.0 L 146.5 131.0 L 143.5 136.5 L 142.0 140.0 L 140.5 143.0 L 139.5 146.5 L 138.5 148.5 L 138.5 148.5 L 138.5 148.5 L 138.5 148.0 L 139.0 146.0 L 139.5 143.5 L 140.0 141.5 L 140.5 140.0 L 141.0 138.0 L 142.5 136.0 L 143.5 134.5 L 144.5 134.0 L 145.0 133.5 L 145.5 134.0 L 145.5 134.0 L 145.5 134.5 L 146.0 134.5 L 146.5 135.0 L 148.0 136.0 L 149.5 137.5 L 151.5 139.5 L 154.0 142.0 L 156.0 144.0 L 157.0 145.0 L 158.0 146.0 L 158.0 146.0 L 158.5 146.0 L 158.5 146.0 L 159.0 146.0 L 159.0 146.0 " stroke="black" fill="none" stroke-width="6.0" stroke-linecap="round" stroke-linejoin="round" />
<path d="M 147.5 149.5 L 147.5 149.5 L 148.0 149.5 L 148.0 149.5 L 148.5 149.5 L 148.5 149.5 L 148.5 149.5 L 148.5 149.5 L 149.0 149.5 L 149.0 150.5 L 148.5 152.5 L 147.0 156.5 L 144.5 161.5 L 141.5 166.5 L 139.0 169.5 L 138.5 169.5 L 138.0 168.5 " stroke="black" fill="none" stroke-width="6.0" stroke-linecap="round" stroke-linejoin="round" />
<path d="M 148.0 160.0 L 148.0 160.0 L 148.0 160.0 L 148.5 160.0 L 149.0 160.0 L 151.0 161.5 L 154.5 164.0 L 158.0 165.5 L 160.5 166.5 " stroke="black" fill="none" stroke-width="6.0" stroke-linecap="round" stroke-linejoin="round" />
</svg>