<svg xmlns="http://www.w3.org/2000/svg" width="300" height="300" viewBox="0 0 300 300">
<path d="M 127.0 121.0 L 126.5 121.0 L 126.0 120.5 L 126.0 120.5 L 126.5 120.5 L 130.0 120.5 L 137.5 120.5 L 148.0 119.5 L 158.5 119.0 L 165.5 118.0 L 169.0 117.5 L 170.5 117.5 L 170.5 117.5 L 170.5 118.0 L 170.0 118.0 L 170.0 118.0 L 169.5 118.0 " stroke="black" fill="none" stroke-width="6.0" stroke-linecap="round" stroke-linejoin="round" />
<path d="M 138.5 123.5 L 138.5 123.5 L 138.5 123.0 L 139.0 122.5 L 139.0 122.5 L 139.0 122.5 L 139.5 123.0 L 139.5 126.5 L 138.5 133.0 L 137.0 143.0 L 135.0 154.0 L 133.0 163.0 L 132.0 167.5 L 132.0 168.5 L 132.0 168.0 L 132.5 166.0 " stroke="black" fill="none" stroke-width="6.0" stroke-linecap="round" stroke-linejoin="round" />
<path d="M 126.0 169.5 L 126.0 169.5 L 127.0 169.0 L 127.5 168.5 L 128.5 168.5 L 130.0 169.0 L 133.0 170.5 L 135.5 171.5 L 137.5 172.0 L 138.0 172.0 " stroke="black" fill="none" stroke-width="6.0" stroke-linecap="round" stroke-linejoin="round" />
<path d="M 141.0 136.5 L 141.0 136.5 L 140.5 137.0 L 140.0 137.0 L 139.5 137.5 L 139.5 137.5 L 139.5 137.5 L 140.0 137.5 L 142.0 137.5 L 146.0 137.5 L 151.5 137.5 L 157.5 137.5 L 162.0 137.5 L 164.5 138.0 L 165.0 138.0 L 165.0 138.0 L 164.5 138.0 L 164.0 138.0 L 164.0 138.0 L 163.5 138.0 L 163.5 138.0 L 163.5 138.0 L 163.5 138.0 L 163.5 138.0 L 163.5 138.5 L 163.5 139.0 L 163.5 140.5 L 163.5 143.0 L 163.5 147.0 L 163.5 152.5 L 163.5 158.0 L 163.5 163.5 L 164.5 168.0 L 166.0 171.0 L 168.5 173.0 L 171.0 173.5 L 174.0 174.0 L 176.5 173.5 L 178.0 172.0 L 179.0 170.5 L 179.5 169.0 L 180.0 167.5 L 180.0 166.5 L 180.0 166.5 " stroke="black" fill="none" stroke-width="6.0" stroke-linecap="round" stroke-linejoin="round" />
<path d="M 145.0 151.0 L 145.0 151.0 L 144.5 151.0 L 144.5 151.0 L 144.0 151.5 L 145.0 152.5 L 147.0 154.5 L 149.5 156.5 " stroke="black" fill="none" stroke-width="6.0" stroke-linecap="round" stroke-linejoin="round" />
</svg>