<svg xmlns="http://www.w3.org/2000/svg" width="300" height="300" viewBox="0 0 300 300">
<path d="M 146.5 106.0 L 146.0 106.0 L 145.5 106.0 L 146.0 106.0 L 148.5 108.5 L 151.0 111.5 L 153.5 114.5 L 154.0 115.5 " stroke="black" fill="none" stroke-width="6.0" stroke-linecap="round" stroke-linejoin="round" />
<path d="M 127.5 119.5 L 127.5 119.5 L 127.0 119.0 L 127.0 119.0 L 127.0 119.0 L 131.0 119.0 L 139.5 119.0 L 151.0 119.0 L 162.0 119.5 L 171.5 119.5 L 177.0 118.0 L 178.0 117.5 L 178.0 117.0 L 176.5 117.5 L 174.5 119.5 " stroke="black" fill="none" stroke-width="6.0" stroke-linecap="round" stroke-linejoin="round" />
<path d="M 129.0 122.5 L 129.0 122.0 L 129.0 121.0 L 129.5 120.5 L 129.5 120.0 L 130.0 120.0 L 130.5 121.5 L 131.5 125.5 L 132.5 133.0 L 132.5 145.5 L 132.5 159.5 L 131.0 170.5 L 129.0 178.5 L 126.5 184.0 L 124.5 187.5 L 124.0 187.5 L 123.5 184.0 L 123.5 182.5 " stroke="black" fill="none" stroke-width="6.0" stroke-linecap="round" stroke-linejoin="round" />
<path d="M 137.0 131.0 L 137.0 131.5 L 137.0 132.0 L 137.5 132.0 L 138.0 132.0 L 140.0 132.0 L 143.5 132.0 L 149.5 131.0 L 157.5 130.0 L 166.0 129.0 L 172.5 129.0 L 175.0 129.0 L 176.0 129.0 L 176.0 129.0 L 175.5 129.0 L 175.5 129.0 L 175.5 128.5 L 175.5 128.5 L 175.5 128.5 L 175.5 128.5 L 175.5 129.5 L 175.5 131.5 L 175.5 135.0 L 175.0 139.5 L 174.5 143.0 L 174.5 144.5 L 174.5 144.5 L 174.0 144.0 " stroke="black" fill="none" stroke-width="6.0" stroke-linecap="round" stroke-linejoin="round" />
<path d="M 148.5 121.5 L 148.5 121.5 L 148.5 120.5 L 148.5 120.0 L 148.5 120.0 L 148.5 121.5 L 149.5 126.5 L 149.5 133.0 L 150.0 139.0 L 150.0 141.5 L 150.5 141.5 " stroke="black" fill="none" stroke-width="6.0" stroke-linecap="round" stroke-linejoin="round" />
<path d="M 165.0 124.0 L 164.5 123.5 L 164.0 123.0 L 164.0 123.0 L 164.0 123.0 L 164.0 124.5 L 164.0 127.5 L 164.0 132.5 L 164.0 137.5 L 164.0 140.5 L 164.5 141.5 L 164.5 141.5 " stroke="black" fill="none" stroke-width="6.0" stroke-linecap="round" stroke-linejoin="round" />
<path d="M 141.5 145.5 L 140.5 146.0 L 139.5 146.0 L 139.5 146.5 L 139.5 146.5 L 141.0 146.5 L 145.0 146.0 L 151.5 145.0 L 159.5 144.0 L 166.5 143.5 L 172.0 143.0 L 173.5 143.0 L 173.5 143.5 " stroke="black" fill="none" stroke-width="6.0" stroke-linecap="round" stroke-linejoin="round" />
<path d="M 149.5 163.5 L 150.0 163.0 L 150.5 162.0 L 151.0 161.5 L 151.0 161.0 L 151.0 161.0 L 151.0 162.0 L 150.0 164.0 L 148.5 167.0 L 147.0 169.0 L 147.0 169.0 " stroke="black" fill="none" stroke-width="6.0" stroke-linecap="round" stroke-linejoin="round" />
<path d="M 142.5 157.5 L 142.5 157.0 L 142.5 157.0 L 142.5 157.0 L 142.5 157.0 L 143.0 159.5 L 143.5 166.0 L 143.5 176.0 L 143.5 185.0 L 144.0 188.5 L 145.5 188.5 L 148.0 186.0 L 150.0 183.0 L 151.5 181.0 L 152.5 179.5 L 154.0 178.0 L 154.0 177.5 " stroke="black" fill="none" stroke-width="6.0" stroke-linecap="round" stroke-linejoin="round" />
<path d="M 175.0 158.5 L 175.0 158.5 L 175.5 158.5 L 175.5 159.0 L 175.5 159.0 L 175.0 160.5 L 174.0 163.0 L 172.0 166.0 L 171.0 168.0 L 170.5 168.0 " stroke="black" fill="none" stroke-width="6.0" stroke-linecap="round" stroke-linejoin="round" />
<path d="M 165.5 153.5 L 165.0 153.5 L 164.0 154.0 L 164.0 154.0 L 164.0 154.0 L 164.0 156.0 L 164.5 160.5 L 165.0 168.0 L 166.0 176.5 L 168.0 183.0 L 171.0 185.5 L 174.0 184.5 L 176.5 180.5 L 178.0 176.5 L 178.5 173.5 L 178.5 172.5 " stroke="black" fill="none" stroke-width="6.0" stroke-linecap="round" stroke-linejoin="round" />
</svg>