<svg xmlns="http://www.w3.org/2000/svg" width="300" height="300" viewBox="0 0 300 300">
<path d="M 128.5 113.5 L 128.5 113.5 L 128.5 113.0 L 128.5 113.0 L 128.5 113.0 L 128.5 113.0 L 129.5 118.0 L 131.0 127.5 L 132.0 137.0 L 132.5 141.0 L 132.5 141.0 L 132.0 139.5 L 131.0 136.5 " stroke="black" fill="none" stroke-width="6.0" stroke-linecap="round" stroke-linejoin="round" />
<path d="M 131.0 112.0 L 130.5 111.5 L 129.5 111.0 L 129.5 110.5 L 129.5 110.5 L 130.0 110.5 L 132.5 110.5 L 136.5 111.0 L 142.5 111.5 L 151.5 111.0 L 161.5 110.0 L 169.5 109.0 L 173.0 109.0 L 174.5 109.0 L 174.0 109.5 L 173.5 109.5 L 173.5 109.5 L 173.0 110.5 L 173.0 111.5 L 172.5 114.0 L 172.5 118.0 L 172.0 124.5 L 171.5 132.0 L 171.5 138.0 L 171.5 141.5 L 171.5 142.5 L 171.5 142.5 L 171.0 140.0 " stroke="black" fill="none" stroke-width="6.0" stroke-linecap="round" stroke-linejoin="round" />
<path d="M 140.5 127.5 L 140.0 127.5 L 139.5 128.0 L 139.5 128.0 L 140.0 128.0 L 144.0 128.0 L 151.0 128.0 L 159.0 127.5 L 164.5 127.5 L 167.5 129.0 L 168.5 129.5 " stroke="black" fill="none" stroke-width="6.0" stroke-linecap="round" stroke-linejoin="round" />
<path d="M 136.5 141.0 L 136.5 141.0 L 137.0 140.5 L 137.0 140.5 L 137.5 140.5 L 139.5 140.5 L 144.5 140.5 L 152.0 141.5 L 160.0 142.0 L 164.5 142.0 " stroke="black" fill="none" stroke-width="6.0" stroke-linecap="round" stroke-linejoin="round" />
<path d="M 138.5 159.5 L 138.5 159.5 L 139.0 159.5 L 139.5 159.5 L 143.0 159.0 L 151.0 158.0 L 160.5 158.0 L 166.5 158.5 L 169.5 159.0 " stroke="black" fill="none" stroke-width="6.0" stroke-linecap="round" stroke-linejoin="round" />
<path d="M 151.5 114.0 L 151.5 114.0 L 151.5 114.5 L 151.5 115.0 L 151.5 115.0 L 151.5 116.5 L 151.0 120.5 L 151.0 130.0 L 151.0 143.0 L 152.5 154.5 L 153.5 160.5 L 153.5 164.5 L 154.0 167.5 L 154.0 169.0 L 154.0 169.5 L 153.0 169.0 " stroke="black" fill="none" stroke-width="6.0" stroke-linecap="round" stroke-linejoin="round" />
<path d="M 130.0 173.5 L 130.0 173.5 L 130.0 174.0 L 130.0 174.5 L 130.0 174.5 L 130.0 174.5 L 131.0 174.0 L 134.5 173.5 L 142.5 173.5 L 154.0 173.5 L 166.0 173.5 L 175.5 173.0 L 181.5 172.0 L 183.0 172.5 L 183.5 172.5 L 182.0 172.5 L 181.0 172.5 " stroke="black" fill="none" stroke-width="6.0" stroke-linecap="round" stroke-linejoin="round" />
</svg>