<svg xmlns="http://www.w3.org/2000/svg" width="300" height="300" viewBox="0 0 300 300">
<path d="M 140.0 118.0 L 140.0 117.5 L 140.0 116.0 L 140.0 115.0 L 140.0 115.0 L 140.0 115.0 L 140.5 116.5 L 141.5 121.5 L 143.0 131.0 L 143.5 146.0 L 143.5 160.0 L 144.0 168.0 L 144.5 171.5 L 145.0 172.0 L 145.0 172.0 L 144.0 170.0 L 143.0 166.5 " stroke="black" fill="none" stroke-width="6.0" stroke-linecap="round" stroke-linejoin="round" />
<path d="M 128.0 131.0 L 127.5 132.0 L 126.5 132.5 L 125.5 133.0 L 125.5 133.0 L 126.0 133.0 L 128.5 132.5 L 132.5 131.5 L 135.5 131.0 L 139.0 131.0 L 141.0 131.0 L 142.0 131.0 " stroke="black" fill="none" stroke-width="6.0" stroke-linecap="round" stroke-linejoin="round" />
<path d="M 129.5 148.5 L 129.5 149.0 L 128.5 149.5 L 128.0 150.0 L 128.0 150.0 L 128.5 150.0 L 131.0 149.5 L 134.5 149.5 L 138.0 149.5 L 140.5 149.5 L 141.5 149.5 L 141.5 149.5 " stroke="black" fill="none" stroke-width="6.0" stroke-linecap="round" stroke-linejoin="round" />
<path d="M 126.0 165.5 L 125.0 165.5 L 124.5 165.5 L 124.5 165.5 L 126.5 165.5 L 130.5 165.0 L 135.0 165.0 L 139.5 164.5 L 140.5 164.5 " stroke="black" fill="none" stroke-width="6.0" stroke-linecap="round" stroke-linejoin="round" />
<path d="M 160.5 122.0 L 160.5 120.5 L 160.5 119.5 L 160.5 119.5 L 160.5 119.5 L 160.5 121.0 L 160.5 127.0 L 161.0 138.0 L 161.0 152.5 L 161.0 164.5 L 161.5 169.0 L 162.0 170.0 L 162.5 169.0 L 162.0 166.0 " stroke="black" fill="none" stroke-width="6.0" stroke-linecap="round" stroke-linejoin="round" />
<path d="M 162.5 133.5 L 162.5 133.5 L 162.0 133.5 L 161.5 133.5 L 161.5 133.5 L 161.5 133.5 L 162.5 133.5 L 165.5 133.0 L 169.0 132.5 L 172.5 132.0 L 175.0 132.0 L 176.0 132.0 " stroke="black" fill="none" stroke-width="6.0" stroke-linecap="round" stroke-linejoin="round" />
<path d="M 164.0 147.5 L 163.0 148.0 L 162.0 148.5 L 161.5 148.5 L 162.0 148.5 L 164.5 148.5 L 168.0 148.5 L 171.5 148.5 L 174.5 148.5 L 176.5 148.5 " stroke="black" fill="none" stroke-width="6.0" stroke-linecap="round" stroke-linejoin="round" />
<path d="M 165.5 159.0 L 164.5 160.0 L 163.5 161.0 L 163.5 161.0 L 164.5 161.0 L 167.5 161.0 L 171.5 160.5 L 174.5 160.5 L 177.0 161.0 L 177.0 161.0 " stroke="black" fill="none" stroke-width="6.0" stroke-linecap="round" stroke-linejoin="round" />
<path d="M 124.0 178.5 L 124.0 178.5 L 122.5 178.5 L 122.0 178.5 L 121.5 178.5 L 121.5 178.5 L 122.0 178.5 L 124.5 178.5 L 127.5 178.0 L 132.5 178.0 L 139.5 177.5 L 148.5 177.0 L 156.5 176.5 L 164.5 175.5 L 170.5 175.0 L 175.0 175.0 L 177.5 175.5 L 178.5 176.0 L 179.5 176.0 L 181.0 176.0 L 182.0 176.0 L 182.5 176.0 L 183.0 176.0 L 183.0 176.0 L 183.0 176.0 L 183.0 176.0 L 183.0 176.0 L 182.5 176.0 L 182.5 176.0 L 182.5 176.0 L 182.5 176.0 L 182.0 176.0 " stroke="black" fill="none" stroke-width="6.0" stroke-linecap="round" stroke-linejoin="round" />
</svg>