<svg xmlns="http://www.w3.org/2000/svg" width="300" height="300" viewBox="0 0 300 300">
<path d="M 129.5 116.0 L 129.5 116.0 L 130.0 116.0 L 130.5 115.5 L 130.5 115.5 L 130.5 115.5 L 130.5 115.5 L 130.5 117.5 L 130.0 122.0 L 128.0 129.5 L 124.5 138.5 L 121.5 145.0 L 120.0 147.5 L 120.0 147.0 L 120.0 145.0 L 120.0 144.0 " stroke="black" fill="none" stroke-width="6.0" stroke-linecap="round" stroke-linejoin="round" />
<path d="M 127.5 131.0 L 127.5 131.5 L 127.0 132.0 L 127.0 132.0 L 127.5 132.0 L 130.0 132.0 L 134.5 131.0 L 139.0 130.5 L 143.0 130.0 L 145.5 130.0 L 145.5 130.0 " stroke="black" fill="none" stroke-width="6.0" stroke-linecap="round" stroke-linejoin="round" />
<path d="M 136.5 137.0 L 136.5 137.5 L 136.0 137.5 L 135.5 138.5 L 135.5 141.0 L 135.5 148.0 L 135.5 159.5 L 135.0 169.0 L 134.5 173.0 L 134.5 173.0 L 135.0 170.5 " stroke="black" fill="none" stroke-width="6.0" stroke-linecap="round" stroke-linejoin="round" />
<path d="M 156.0 118.5 L 156.0 118.5 L 155.5 117.5 L 155.0 117.0 L 155.0 117.0 L 155.0 117.0 L 155.0 117.5 L 155.5 120.5 L 155.0 125.5 L 154.0 130.5 L 153.0 134.0 L 152.5 135.0 L 152.5 134.5 L 153.0 134.0 " stroke="black" fill="none" stroke-width="6.0" stroke-linecap="round" stroke-linejoin="round" />
<path d="M 156.5 127.0 L 156.0 127.0 L 154.5 127.0 L 154.5 127.0 L 155.0 127.0 L 158.0 127.0 L 162.5 126.5 L 167.0 126.0 L 171.5 125.5 L 176.0 125.0 L 178.0 124.5 L 178.0 124.5 L 178.0 125.0 " stroke="black" fill="none" stroke-width="6.0" stroke-linecap="round" stroke-linejoin="round" />
<path d="M 169.5 129.5 L 169.5 129.5 L 169.5 129.5 L 169.0 129.5 L 169.0 130.0 L 169.0 130.5 L 169.0 132.5 L 169.0 137.5 L 169.0 146.5 L 169.0 156.5 L 168.5 165.0 L 168.0 171.0 L 167.5 175.5 L 167.0 179.0 L 166.0 181.0 L 165.5 182.0 L 164.5 182.0 L 162.5 181.5 L 160.5 179.0 L 158.5 176.5 L 157.0 174.5 L 157.0 174.0 " stroke="black" fill="none" stroke-width="6.0" stroke-linecap="round" stroke-linejoin="round" />
</svg>