<svg xmlns="http://www.w3.org/2000/svg" width="300" height="300" viewBox="0 0 300 300">
<path d="M 133.0 125.5 L 133.0 125.5 L 133.5 125.0 L 133.5 125.0 L 134.0 125.0 L 135.5 125.0 L 139.5 125.0 L 146.0 125.0 L 155.0 125.0 L 163.5 124.5 L 168.0 123.5 L 169.5 123.5 L 169.5 123.5 L 169.0 123.5 L 169.0 123.5 L 169.0 123.5 L 169.0 123.5 L 169.0 124.0 L 169.0 125.0 L 169.0 127.0 L 169.0 130.0 L 168.5 135.0 L 168.5 139.0 L 168.5 141.0 L 168.5 141.5 L 169.0 141.5 L 169.0 140.5 " stroke="black" fill="none" stroke-width="6.0" stroke-linecap="round" stroke-linejoin="round" />
<path d="M 130.5 141.5 L 130.5 141.5 L 130.5 141.5 L 130.5 141.5 L 130.5 141.5 L 133.0 141.5 L 138.5 140.5 L 146.5 140.0 L 154.0 140.0 L 161.0 140.0 L 165.0 140.5 L 166.0 140.5 L 166.0 140.5 L 165.0 140.5 L 163.5 139.5 L 163.0 139.0 " stroke="black" fill="none" stroke-width="6.0" stroke-linecap="round" stroke-linejoin="round" />
<path d="M 133.5 125.5 L 134.0 125.0 L 134.5 124.5 L 135.0 124.0 L 135.0 124.0 L 135.0 125.5 L 135.0 129.0 L 135.5 136.0 L 135.5 145.0 L 134.0 157.0 L 133.0 168.0 L 132.0 175.0 L 131.5 180.0 L 130.5 184.0 L 129.5 186.0 L 128.5 186.5 L 128.0 186.0 L 128.0 185.5 " stroke="black" fill="none" stroke-width="6.0" stroke-linecap="round" stroke-linejoin="round" />
</svg>