<svg xmlns="http://www.w3.org/2000/svg" width="300" height="300" viewBox="0 0 300 300">
<path d="M 130.5 120.5 L 131.0 120.0 L 131.0 119.5 L 131.0 119.5 L 131.0 119.0 L 132.5 119.0 L 136.0 118.0 L 142.5 117.5 L 151.5 116.0 L 160.0 115.0 L 165.0 114.5 L 168.0 115.0 L 169.5 115.0 L 170.0 115.5 L 170.0 115.5 L 170.0 115.5 L 169.5 115.5 L 169.0 115.0 " stroke="black" fill="none" stroke-width="6.0" stroke-linecap="round" stroke-linejoin="round" />
<path d="M 125.5 144.0 L 125.0 144.5 L 124.0 144.5 L 124.0 144.5 L 124.5 145.0 L 128.5 145.0 L 136.5 144.5 L 148.0 143.5 L 158.5 142.5 L 167.5 141.0 L 172.5 140.0 L 173.5 140.0 L 173.0 140.0 L 171.5 140.0 L 170.5 139.5 " stroke="black" fill="none" stroke-width="6.0" stroke-linecap="round" stroke-linejoin="round" />
<path d="M 152.0 120.5 L 152.5 120.0 L 153.0 120.0 L 153.0 119.5 L 153.0 119.5 L 153.0 121.5 L 153.0 127.5 L 149.0 139.0 L 142.0 154.5 L 134.0 167.0 L 130.5 172.0 L 129.0 173.5 L 128.5 173.5 L 128.5 171.5 L 128.5 171.0 " stroke="black" fill="none" stroke-width="6.0" stroke-linecap="round" stroke-linejoin="round" />
<path d="M 153.0 150.5 L 153.5 150.5 L 154.0 149.5 L 154.5 149.5 L 154.5 149.5 L 154.5 150.5 L 153.5 154.5 L 152.5 161.0 L 151.5 168.5 L 151.0 174.0 L 151.5 176.0 L 154.5 177.0 L 159.0 177.0 L 164.5 176.5 L 170.5 175.5 L 176.5 174.0 L 181.0 173.0 L 184.5 172.0 L 184.5 171.5 L 184.5 171.5 L 183.5 170.0 L 182.5 168.5 L 182.0 166.5 L 181.5 165.5 L 181.0 164.5 L 181.0 163.5 L 180.5 163.5 " stroke="black" fill="none" stroke-width="6.0" stroke-linecap="round" stroke-linejoin="round" />
</svg>