<svg xmlns="http://www.w3.org/2000/svg" width="300" height="300" viewBox="0 0 300 300">
<path d="M 130.5 117.0 L 130.5 117.5 L 131.0 118.5 L 131.5 119.0 L 133.0 121.0 L 137.5 125.0 L 146.0 131.5 L 154.5 137.5 L 162.0 141.5 L 168.0 144.5 L 171.5 145.5 L 171.5 146.0 L 171.5 146.0 L 170.5 145.0 L 170.0 144.5 " stroke="black" fill="none" stroke-width="6.0" stroke-linecap="round" stroke-linejoin="round" />
<path d="M 159.0 116.0 L 159.5 115.5 L 159.5 115.0 L 160.0 115.0 L 160.0 115.0 L 160.0 115.0 L 159.5 117.0 L 157.5 121.0 L 153.0 128.0 L 146.0 137.0 L 137.5 145.5 L 132.0 149.5 L 129.5 150.5 L 129.5 150.5 L 129.5 150.0 L 129.5 149.5 " stroke="black" fill="none" stroke-width="6.0" stroke-linecap="round" stroke-linejoin="round" />
<path d="M 144.5 114.0 L 144.0 114.0 L 143.0 114.5 L 143.0 114.5 L 144.5 114.5 L 146.5 115.5 L 148.0 117.0 L 149.0 119.0 L 149.5 119.0 " stroke="black" fill="none" stroke-width="6.0" stroke-linecap="round" stroke-linejoin="round" />
<path d="M 129.5 133.0 L 129.5 133.0 L 129.0 133.0 L 129.0 133.5 L 129.0 133.5 L 130.0 134.0 L 131.5 135.0 L 133.0 135.5 " stroke="black" fill="none" stroke-width="6.0" stroke-linecap="round" stroke-linejoin="round" />
<path d="M 150.0 148.5 L 150.0 148.5 L 149.5 149.0 L 149.5 149.5 L 150.0 150.0 L 151.5 150.5 L 153.0 151.0 L 154.0 151.0 " stroke="black" fill="none" stroke-width="6.0" stroke-linecap="round" stroke-linejoin="round" />
<path d="M 165.0 128.0 L 164.5 128.5 L 164.0 129.0 L 164.5 130.0 L 166.0 131.0 L 167.5 132.0 " stroke="black" fill="none" stroke-width="6.0" stroke-linecap="round" stroke-linejoin="round" />
<path d="M 117.5 117.5 L 117.5 117.5 L 117.5 117.5 L 117.5 117.5 L 117.5 117.0 L 117.0 117.0 L 117.0 117.5 L 117.0 119.0 L 117.5 122.0 L 117.5 127.0 L 118.0 132.0 L 118.5 138.0 L 118.5 143.5 L 119.0 147.5 L 119.0 151.5 L 119.0 155.5 L 119.0 158.5 L 119.0 161.0 L 119.0 163.0 L 119.5 163.5 L 120.0 163.5 L 120.5 163.5 L 121.0 163.5 L 121.5 163.5 L 122.0 163.5 L 123.0 163.5 L 125.0 163.5 L 128.0 163.0 L 132.5 162.5 L 138.0 161.5 L 144.5 160.5 L 151.0 159.5 L 157.0 159.5 L 162.0 159.0 L 166.5 158.5 L 170.5 158.0 L 174.0 157.5 L 177.0 157.5 L 180.0 157.5 L 182.0 158.0 L 182.5 158.0 L 182.5 158.0 L 181.5 156.5 L 180.5 155.5 " stroke="black" fill="none" stroke-width="6.0" stroke-linecap="round" stroke-linejoin="round" />
<path d="M 179.0 113.0 L 179.0 113.0 L 179.5 113.0 L 180.0 113.5 L 180.0 113.5 L 180.0 113.5 L 180.5 114.5 L 180.5 116.5 L 181.0 120.5 L 181.5 126.0 L 182.0 131.0 L 182.0 136.0 L 182.5 140.0 L 182.5 143.0 L 183.0 145.0 L 183.0 147.0 L 183.5 149.0 L 183.5 151.0 L 183.5 153.0 L 184.0 154.5 L 184.0 155.5 L 184.0 155.5 L 184.0 155.5 L 184.0 155.0 L 184.0 155.0 L 184.0 154.0 L 184.5 152.5 " stroke="black" fill="none" stroke-width="6.0" stroke-linecap="round" stroke-linejoin="round" />
<path d="M 143.0 177.5 L 141.5 178.5 L 139.5 179.0 L 138.5 179.5 L 138.0 180.0 L 138.0 180.0 L 138.5 179.5 L 141.0 178.5 L 145.0 177.0 L 150.5 174.5 L 157.5 172.5 L 163.5 171.0 L 166.0 170.5 L 166.0 170.5 L 165.0 170.5 L 164.5 171.0 L 164.0 171.0 " stroke="black" fill="none" stroke-width="6.0" stroke-linecap="round" stroke-linejoin="round" />
<path d="M 128.0 173.5 L 128.0 173.5 L 128.0 173.5 L 128.0 173.5 L 128.0 173.5 L 128.0 173.5 L 128.0 173.5 L 128.0 173.5 L 128.0 173.5 L 128.0 173.5 L 128.0 175.5 L 128.5 179.0 L 129.0 184.0 L 129.5 188.5 L 130.0 192.5 L 130.5 195.0 L 130.5 197.0 L 131.5 198.0 L 132.5 198.0 L 133.5 198.0 L 135.5 198.0 L 139.5 198.0 L 145.0 197.5 L 151.5 196.0 L 157.0 195.5 L 162.0 195.0 L 166.5 194.5 L 169.5 194.5 L 172.0 194.5 L 174.0 194.5 L 175.5 194.0 L 176.5 194.0 L 176.5 194.0 L 176.5 193.5 L 176.5 193.5 L 176.5 193.5 L 176.5 193.0 L 176.5 193.0 L 176.5 192.0 L 176.5 191.0 L 176.5 190.0 L 176.5 188.5 L 176.5 187.5 L 176.5 187.0 L 176.0 187.0 " stroke="black" fill="none" stroke-width="6.0" stroke-linecap="round" stroke-linejoin="round" />
</svg>