<svg xmlns="http://www.w3.org/2000/svg" width="300" height="300" viewBox="0 0 300 300">
<path d="M 131.5 112.0 L 131.5 112.0 L 131.5 111.5 L 131.5 111.0 L 131.5 111.0 L 131.5 111.5 L 132.0 114.5 L 132.5 120.0 L 133.0 126.0 L 133.5 130.0 L 133.5 130.5 L 134.0 128.5 " stroke="black" fill="none" stroke-width="6.0" stroke-linecap="round" stroke-linejoin="round" />
<path d="M 133.0 109.5 L 133.0 110.0 L 133.0 110.5 L 133.0 110.5 L 133.0 111.0 L 134.0 111.0 L 136.0 111.0 L 139.5 111.0 L 145.5 110.5 L 153.5 109.5 L 161.0 109.0 L 167.5 108.0 L 171.0 107.5 L 171.5 107.0 L 171.5 107.0 L 171.5 107.0 L 171.5 107.0 L 171.5 107.0 L 172.0 107.0 L 173.0 107.0 L 174.0 107.0 L 174.5 107.0 L 174.5 107.0 L 175.0 107.0 L 175.0 107.0 L 175.0 107.0 L 175.0 107.5 L 175.0 108.0 L 174.5 108.5 L 174.5 109.0 L 174.5 110.0 L 174.0 111.5 L 173.5 113.5 L 173.0 116.5 L 172.5 120.0 L 172.0 124.0 L 172.0 126.0 L 172.0 127.0 L 172.0 126.5 " stroke="black" fill="none" stroke-width="6.0" stroke-linecap="round" stroke-linejoin="round" />
<path d="M 144.5 115.0 L 144.0 115.0 L 143.5 114.5 L 143.0 114.0 L 142.5 114.0 L 142.5 114.0 L 143.0 115.0 L 144.0 117.5 L 145.5 119.5 L 147.0 121.5 L 147.5 122.0 " stroke="black" fill="none" stroke-width="6.0" stroke-linecap="round" stroke-linejoin="round" />
<path d="M 166.5 113.0 L 166.5 113.0 L 166.5 113.0 L 166.0 113.0 L 166.0 113.0 L 166.0 113.0 L 165.5 113.0 L 165.5 113.0 L 165.0 114.5 L 164.0 117.0 L 163.0 120.0 L 162.5 121.5 " stroke="black" fill="none" stroke-width="6.0" stroke-linecap="round" stroke-linejoin="round" />
<path d="M 139.5 129.5 L 139.5 129.5 L 139.0 130.0 L 138.5 130.0 L 138.5 130.5 L 139.0 130.5 L 141.5 130.0 L 147.0 129.5 L 154.0 129.5 L 161.0 129.5 L 165.5 129.5 L 167.5 129.5 L 168.0 129.5 L 168.0 129.0 " stroke="black" fill="none" stroke-width="6.0" stroke-linecap="round" stroke-linejoin="round" />
<path d="M 141.0 143.5 L 141.0 143.5 L 140.5 143.5 L 140.0 143.5 L 139.5 143.5 L 139.5 143.5 L 140.0 143.5 L 142.0 143.0 L 145.5 142.5 L 150.5 142.5 L 157.5 142.5 L 164.0 142.0 L 167.5 142.0 L 168.5 142.0 L 168.5 141.5 L 168.0 141.5 L 167.5 141.0 " stroke="black" fill="none" stroke-width="6.0" stroke-linecap="round" stroke-linejoin="round" />
<path d="M 155.0 113.0 L 155.0 113.5 L 155.0 113.5 L 155.0 113.5 L 155.0 113.5 L 155.0 113.5 L 155.0 113.5 L 155.0 114.0 L 155.0 115.0 L 155.0 117.5 L 155.0 121.0 L 154.5 124.5 L 154.5 128.0 L 154.5 130.5 L 154.5 133.0 L 154.0 135.5 L 154.0 137.5 L 154.0 139.0 L 154.0 140.0 L 154.0 141.5 L 154.0 142.5 L 154.5 143.5 L 154.5 144.5 L 154.5 145.0 L 155.0 146.0 L 155.0 147.0 L 155.0 147.5 L 155.0 148.0 L 155.0 148.5 L 155.0 149.0 L 155.0 149.5 L 155.0 150.0 L 155.0 151.0 L 155.0 151.5 L 155.0 152.0 L 155.0 152.5 L 155.0 153.0 L 155.0 154.0 L 155.0 154.5 L 155.0 155.5 L 155.0 156.5 L 155.0 157.5 L 155.0 158.0 L 155.0 158.0 L 155.0 158.5 L 155.0 158.5 L 155.0 158.5 L 155.0 158.5 L 155.0 158.5 L 155.0 158.0 L 155.0 158.0 L 155.0 158.0 L 155.0 158.5 L 155.0 158.5 L 155.0 159.0 L 155.0 159.0 L 155.0 159.5 L 155.0 160.0 L 155.0 160.5 L 155.0 160.5 L 155.0 160.5 L 155.0 160.5 L 155.0 160.5 " stroke="black" fill="none" stroke-width="6.0" stroke-linecap="round" stroke-linejoin="round" />
<path d="M 130.0 159.5 L 130.0 159.5 L 130.0 159.5 L 130.0 159.5 L 130.0 159.5 L 129.5 159.5 L 129.5 159.5 L 129.5 159.5 L 129.5 159.5 L 129.5 159.5 L 129.5 159.5 L 130.5 159.0 L 131.5 159.0 L 133.5 158.5 L 136.5 158.5 L 140.5 158.0 L 144.0 158.0 L 147.5 158.0 L 150.0 158.0 L 152.0 158.0 L 153.0 158.0 L 154.5 158.5 L 156.0 158.5 L 157.5 159.0 L 159.5 159.0 L 160.5 159.0 L 162.0 159.5 L 163.5 159.5 L 165.0 159.5 L 166.5 159.5 L 168.0 159.5 L 169.0 159.5 L 170.0 159.5 L 171.0 159.5 L 172.0 159.5 L 172.5 159.5 L 173.0 159.5 L 173.5 159.5 L 174.0 159.5 L 175.0 159.5 L 175.5 159.5 L 175.5 159.5 L 176.0 159.5 L 176.0 159.5 L 176.0 159.5 L 176.5 159.5 L 176.5 159.5 L 176.5 159.5 L 176.5 159.5 L 176.5 159.5 L 176.5 159.5 L 176.5 159.5 L 176.5 159.5 " stroke="black" fill="none" stroke-width="6.0" stroke-linecap="round" stroke-linejoin="round" />
<path d="M 134.5 172.5 L 134.5 172.5 L 135.0 172.0 L 135.0 171.5 L 135.0 171.5 L 135.0 171.5 L 135.0 171.5 L 134.5 172.5 L 133.5 174.5 L 132.0 177.0 L 131.0 179.0 L 131.0 179.5 " stroke="black" fill="none" stroke-width="6.0" stroke-linecap="round" stroke-linejoin="round" />
<path d="M 147.5 173.5 L 147.5 173.5 L 147.0 174.0 L 146.5 174.0 L 146.5 174.5 L 146.5 175.0 L 147.5 176.5 L 149.0 178.0 L 150.0 179.5 L 151.0 180.5 " stroke="black" fill="none" stroke-width="6.0" stroke-linecap="round" stroke-linejoin="round" />
<path d="M 159.0 173.5 L 159.0 174.0 L 159.0 174.5 L 159.0 174.5 L 159.0 175.0 L 160.0 175.5 L 161.0 176.5 L 162.0 178.0 L 164.0 179.0 L 164.5 179.0 " stroke="black" fill="none" stroke-width="6.0" stroke-linecap="round" stroke-linejoin="round" />
<path d="M 172.5 174.5 L 172.5 174.5 L 172.5 174.5 L 173.0 174.5 L 173.0 174.5 L 173.5 174.5 L 174.5 174.5 L 175.5 175.5 L 176.5 177.0 L 178.5 179.0 L 179.5 181.0 L 180.5 182.0 L 180.5 182.5 " stroke="black" fill="none" stroke-width="6.0" stroke-linecap="round" stroke-linejoin="round" />
</svg>