<svg xmlns="http://www.w3.org/2000/svg" width="300" height="300" viewBox="0 0 300 300">
<path d="M 148.0 103.0 L 148.0 103.0 L 148.0 102.5 L 148.0 102.5 L 148.0 102.5 L 148.0 102.5 L 148.0 102.5 L 148.0 104.5 L 146.5 107.0 L 145.5 110.0 L 145.0 111.5 " stroke="black" fill="none" stroke-width="6.0" stroke-linecap="round" stroke-linejoin="round" />
<path d="M 133.0 116.0 L 133.0 116.5 L 132.5 117.0 L 132.0 117.0 L 132.0 117.0 L 135.0 117.0 L 140.5 116.0 L 148.0 115.0 L 154.5 114.0 L 159.5 113.5 L 162.5 113.0 L 163.5 113.0 L 163.5 113.5 L 163.5 114.5 L 163.0 115.5 L 162.5 117.0 L 162.5 119.0 L 162.0 122.0 L 161.5 125.0 L 161.5 127.5 L 161.0 128.5 L 161.0 129.0 " stroke="black" fill="none" stroke-width="6.0" stroke-linecap="round" stroke-linejoin="round" />
<path d="M 141.0 130.0 L 140.0 130.0 L 139.5 130.5 L 139.5 130.5 L 141.5 130.5 L 145.0 130.0 L 149.5 129.5 L 154.0 129.0 L 157.5 129.0 L 159.5 128.5 " stroke="black" fill="none" stroke-width="6.0" stroke-linecap="round" stroke-linejoin="round" />
<path d="M 131.5 121.5 L 132.0 121.0 L 132.5 120.5 L 132.5 120.5 L 133.0 121.0 L 133.0 124.0 L 133.5 129.0 L 133.5 137.5 L 134.0 147.5 L 134.0 155.0 L 134.5 158.0 L 135.0 157.5 L 135.0 156.0 L 135.0 152.5 L 135.0 152.0 " stroke="black" fill="none" stroke-width="6.0" stroke-linecap="round" stroke-linejoin="round" />
<path d="M 136.0 143.0 L 136.0 143.0 L 136.0 143.0 L 136.0 143.0 L 136.5 143.0 L 137.5 143.0 L 139.5 143.0 L 144.5 142.0 L 151.0 140.5 L 158.0 139.0 L 164.0 138.0 L 165.5 138.0 L 165.5 139.0 L 164.5 140.0 L 164.0 141.0 L 164.0 143.0 L 163.5 145.5 L 163.5 147.5 L 163.0 150.0 L 162.5 151.5 L 162.0 151.5 " stroke="black" fill="none" stroke-width="6.0" stroke-linecap="round" stroke-linejoin="round" />
<path d="M 135.5 157.0 L 135.5 157.5 L 135.5 158.5 L 135.5 159.0 L 136.0 159.0 L 139.0 158.5 L 144.5 156.5 L 151.5 155.0 L 157.5 153.5 L 162.5 153.0 L 163.5 152.5 " stroke="black" fill="none" stroke-width="6.0" stroke-linecap="round" stroke-linejoin="round" />
<path d="M 126.0 170.5 L 126.0 170.5 L 126.0 170.5 L 125.5 170.5 L 125.5 170.5 L 126.5 170.5 L 130.0 170.5 L 137.0 170.5 L 148.0 169.5 L 158.0 167.5 L 167.0 166.0 L 173.0 165.0 L 175.5 164.5 L 176.0 164.5 L 174.5 165.0 L 174.0 165.0 " stroke="black" fill="none" stroke-width="6.0" stroke-linecap="round" stroke-linejoin="round" />
<path d="M 149.0 159.0 L 149.0 159.0 L 149.0 158.5 L 149.0 158.5 L 148.5 158.5 L 148.5 159.5 L 149.0 165.0 L 150.5 174.0 L 151.0 184.0 L 151.5 191.5 L 152.0 194.0 L 152.5 194.5 L 152.5 194.0 L 152.5 192.5 " stroke="black" fill="none" stroke-width="6.0" stroke-linecap="round" stroke-linejoin="round" />
</svg>