<svg xmlns="http://www.w3.org/2000/svg" width="300" height="300" viewBox="0 0 300 300">
<path d="M 133.5 115.0 L 133.5 115.0 L 134.0 115.0 L 134.0 115.0 L 134.5 115.0 L 135.0 115.0 L 136.5 115.0 L 141.5 114.0 L 150.0 111.5 L 158.5 108.0 L 164.0 105.0 L 166.0 104.0 L 166.0 104.0 L 165.5 104.0 L 165.5 104.0 L 165.5 104.0 L 165.5 104.5 L 166.0 105.0 " stroke="black" fill="none" stroke-width="6.0" stroke-linecap="round" stroke-linejoin="round" />
<path d="M 130.0 129.0 L 130.5 129.0 L 130.5 129.0 L 131.0 129.0 L 132.5 129.0 L 137.0 128.0 L 144.5 126.5 L 154.0 125.0 L 162.0 124.0 L 168.0 124.0 L 171.5 124.0 L 172.0 123.5 L 172.0 123.5 L 170.5 123.5 L 169.5 122.5 " stroke="black" fill="none" stroke-width="6.0" stroke-linecap="round" stroke-linejoin="round" />
<path d="M 151.5 110.5 L 151.5 110.5 L 151.5 111.0 L 151.5 111.0 L 151.5 111.5 L 151.5 113.0 L 152.0 119.0 L 152.5 129.0 L 153.0 138.5 L 153.5 144.0 L 154.0 145.5 L 154.5 146.0 L 154.5 145.5 L 154.0 144.0 L 154.0 143.5 " stroke="black" fill="none" stroke-width="6.0" stroke-linecap="round" stroke-linejoin="round" />
<path d="M 150.5 127.0 L 150.5 127.0 L 150.5 127.0 L 150.5 127.0 L 150.0 127.0 L 148.0 129.5 L 143.5 134.5 L 136.0 141.0 L 128.5 145.5 L 124.5 147.0 L 124.0 147.0 L 125.5 146.0 L 126.5 145.0 " stroke="black" fill="none" stroke-width="6.0" stroke-linecap="round" stroke-linejoin="round" />
<path d="M 158.0 131.5 L 159.0 131.5 L 159.0 132.0 L 159.5 132.5 L 161.0 133.0 L 164.5 134.5 L 170.5 137.0 L 176.5 139.0 L 181.5 141.0 L 184.5 141.5 L 185.0 141.5 " stroke="black" fill="none" stroke-width="6.0" stroke-linecap="round" stroke-linejoin="round" />
<path d="M 133.0 153.0 L 134.0 153.0 L 134.5 153.0 L 135.0 153.0 L 135.5 155.0 L 136.5 161.0 L 137.5 168.5 L 138.0 175.0 L 138.0 179.0 L 138.0 180.0 L 138.0 178.0 L 138.0 174.5 " stroke="black" fill="none" stroke-width="6.0" stroke-linecap="round" stroke-linejoin="round" />
<path d="M 141.0 149.5 L 141.0 149.5 L 140.5 149.5 L 140.5 149.5 L 140.0 149.5 L 141.0 150.0 L 145.0 150.0 L 151.0 149.0 L 158.0 148.0 L 165.0 147.5 L 170.0 147.5 L 172.0 148.5 L 173.0 148.5 L 172.5 148.5 L 172.0 148.5 L 172.0 148.5 L 172.0 148.5 L 172.0 149.0 L 172.0 150.0 L 172.0 152.0 L 172.0 155.5 L 172.0 161.5 L 172.5 169.0 L 173.0 175.5 L 173.5 179.5 L 174.0 181.0 L 174.0 180.5 L 174.0 179.0 L 173.5 177.5 " stroke="black" fill="none" stroke-width="6.0" stroke-linecap="round" stroke-linejoin="round" />
<path d="M 143.0 165.0 L 143.0 165.0 L 142.5 165.0 L 142.5 165.0 L 144.0 164.5 L 149.0 163.5 L 156.0 162.5 L 163.5 161.5 L 168.0 161.0 L 168.5 161.0 L 168.5 161.0 " stroke="black" fill="none" stroke-width="6.0" stroke-linecap="round" stroke-linejoin="round" />
<path d="M 141.0 180.0 L 140.5 180.5 L 139.0 181.0 L 137.5 181.5 L 137.0 182.0 L 137.0 182.0 L 139.5 182.0 L 143.0 181.0 L 147.5 181.0 L 152.5 181.0 L 158.0 181.5 L 163.5 182.0 L 168.0 182.0 L 170.5 182.0 L 171.0 182.0 L 171.0 182.0 L 171.0 182.0 L 171.0 182.0 L 170.5 182.0 L 170.5 182.0 L 170.5 182.0 " stroke="black" fill="none" stroke-width="6.0" stroke-linecap="round" stroke-linejoin="round" />
</svg>