<svg xmlns="http://www.w3.org/2000/svg" width="300" height="300" viewBox="0 0 300 300">
<path d="M 128.5 119.0 L 128.5 119.0 L 128.5 117.5 L 128.5 116.5 L 128.5 116.0 L 128.5 116.0 L 129.0 116.0 L 129.5 119.0 L 130.0 125.0 L 130.0 133.5 L 129.5 142.5 L 129.5 149.0 L 129.5 151.0 L 129.5 151.0 L 129.5 150.5 " stroke="black" fill="none" stroke-width="6.0" stroke-linecap="round" stroke-linejoin="round" />
<path d="M 130.0 114.5 L 130.0 115.0 L 130.0 116.0 L 130.0 116.0 L 130.0 116.0 L 130.0 116.0 L 131.5 116.5 L 134.0 116.5 L 136.5 116.5 L 139.0 116.5 L 141.0 116.5 L 142.0 116.5 L 142.0 116.5 " stroke="black" fill="none" stroke-width="6.0" stroke-linecap="round" stroke-linejoin="round" />
<path d="M 132.5 131.0 L 132.5 132.0 L 132.5 132.5 L 132.5 132.5 L 132.5 132.5 L 134.0 132.5 L 136.5 132.5 L 139.0 132.5 L 141.5 132.5 L 143.0 132.5 " stroke="black" fill="none" stroke-width="6.0" stroke-linecap="round" stroke-linejoin="round" />
<path d="M 134.0 140.5 L 133.5 141.0 L 133.0 141.5 L 133.0 141.5 L 133.5 141.5 L 136.0 141.5 L 139.0 141.5 L 142.0 142.0 L 144.5 142.5 " stroke="black" fill="none" stroke-width="6.0" stroke-linecap="round" stroke-linejoin="round" />
<path d="M 118.5 156.5 L 118.0 157.0 L 117.5 157.5 L 117.5 157.5 L 119.0 157.5 L 122.5 157.0 L 127.5 156.5 L 134.0 155.5 L 140.0 154.5 L 144.5 154.5 L 147.0 154.5 L 147.5 154.5 " stroke="black" fill="none" stroke-width="6.0" stroke-linecap="round" stroke-linejoin="round" />
<path d="M 132.0 157.5 L 132.0 157.5 L 132.5 157.5 L 133.0 157.5 L 133.0 157.5 L 133.0 157.5 L 133.0 159.0 L 131.5 164.0 L 129.5 170.5 L 127.0 182.0 L 127.0 183.0 L 127.0 183.0 L 127.0 182.5 L 128.0 182.0 L 129.5 181.0 L 131.5 180.0 L 134.0 179.0 L 136.5 177.5 L 139.0 176.5 L 141.0 176.0 L 142.5 175.5 L 144.0 175.0 " stroke="black" fill="none" stroke-width="6.0" stroke-linecap="round" stroke-linejoin="round" />
<path d="M 146.5 168.0 L 145.5 168.0 L 145.0 168.0 L 145.0 168.0 L 146.0 169.5 L 147.5 172.0 L 149.5 174.5 L 151.0 177.0 L 152.0 178.5 " stroke="black" fill="none" stroke-width="6.0" stroke-linecap="round" stroke-linejoin="round" />
<path d="M 164.0 116.5 L 164.5 116.5 L 165.5 116.5 L 166.0 116.5 L 166.5 116.5 L 166.5 117.5 L 165.0 120.0 L 161.0 125.5 L 156.5 131.5 L 153.5 134.0 L 153.5 134.5 L 153.5 133.5 " stroke="black" fill="none" stroke-width="6.0" stroke-linecap="round" stroke-linejoin="round" />
<path d="M 172.5 131.5 L 173.0 132.0 L 173.0 133.0 L 173.0 133.0 L 173.0 134.0 L 172.0 136.0 L 169.0 140.5 L 164.5 145.5 L 161.0 149.5 L 159.5 151.0 L 160.0 151.0 " stroke="black" fill="none" stroke-width="6.0" stroke-linecap="round" stroke-linejoin="round" />
<path d="M 178.5 148.5 L 178.5 148.5 L 179.0 148.5 L 179.5 148.5 L 179.5 148.5 L 179.5 148.5 L 179.5 149.5 L 177.5 153.0 L 173.5 158.5 L 168.0 164.5 L 164.0 168.0 L 163.0 169.0 L 163.0 169.5 " stroke="black" fill="none" stroke-width="6.0" stroke-linecap="round" stroke-linejoin="round" />
</svg>