<svg xmlns="http://www.w3.org/2000/svg" width="300" height="300" viewBox="0 0 300 300">
<path d="M 131.0 108.5 L 131.0 109.0 L 131.5 109.0 L 131.5 109.0 L 132.5 109.0 L 135.0 109.0 L 141.5 107.5 L 151.0 106.5 L 159.0 106.0 L 165.5 106.0 L 168.5 106.0 L 169.0 106.0 L 168.5 106.0 L 168.0 106.0 L 167.5 106.0 L 167.0 106.0 " stroke="black" fill="none" stroke-width="6.0" stroke-linecap="round" stroke-linejoin="round" />
<path d="M 132.0 111.0 L 132.5 111.0 L 132.5 111.5 L 133.0 111.5 L 133.0 112.0 L 133.0 113.5 L 133.5 117.0 L 134.0 122.0 L 134.0 128.5 L 134.0 134.5 L 133.5 140.0 L 133.0 144.5 L 133.0 148.0 L 133.0 150.0 L 133.0 151.0 L 133.0 152.5 L 133.0 153.5 L 133.0 154.0 L 133.0 154.0 L 133.0 154.0 L 133.5 153.5 L 135.0 153.0 L 136.5 152.0 L 139.5 151.5 L 143.0 150.5 L 148.0 149.5 L 153.5 148.5 L 158.5 148.0 L 162.5 148.0 L 166.0 148.0 L 169.0 147.5 L 171.0 147.0 L 173.5 146.5 L 175.5 146.5 L 177.0 146.5 L 177.5 146.5 L 178.0 147.0 L 178.0 147.5 L 178.0 147.5 L 178.0 148.0 L 178.0 148.5 L 178.0 149.5 L 178.0 150.5 L 177.5 152.5 L 177.5 155.5 L 177.0 159.5 L 177.0 164.0 L 177.0 169.5 L 177.0 175.0 L 177.0 187.5 L 177.0 193.5 L 176.5 198.0 L 176.0 201.0 L 175.5 202.0 L 174.5 202.5 L 172.5 202.0 L 169.5 199.5 L 166.0 197.0 L 164.0 194.0 L 163.5 193.0 " stroke="black" fill="none" stroke-width="6.0" stroke-linecap="round" stroke-linejoin="round" />
<path d="M 138.5 124.5 L 138.5 124.5 L 138.5 124.0 L 138.5 123.5 L 138.5 123.5 L 140.0 123.0 L 144.5 122.5 L 151.0 121.5 L 158.0 121.0 L 161.5 120.5 L 163.0 121.5 L 162.5 123.0 " stroke="black" fill="none" stroke-width="6.0" stroke-linecap="round" stroke-linejoin="round" />
<path d="M 142.0 134.5 L 141.0 135.5 L 140.0 136.0 L 139.5 136.5 L 140.0 136.5 L 143.0 136.5 L 148.0 135.0 L 154.0 134.0 L 159.5 133.0 L 163.5 133.0 L 165.0 132.5 " stroke="black" fill="none" stroke-width="6.0" stroke-linecap="round" stroke-linejoin="round" />
<path d="M 150.5 111.0 L 150.5 111.0 L 150.5 111.5 L 150.0 111.5 L 150.0 112.0 L 150.0 113.0 L 150.0 116.0 L 150.5 123.0 L 151.0 133.0 L 151.5 140.0 L 152.0 143.5 L 152.5 143.5 L 152.5 143.0 " stroke="black" fill="none" stroke-width="6.0" stroke-linecap="round" stroke-linejoin="round" />
<path d="M 129.0 169.0 L 129.0 169.0 L 130.0 169.0 L 130.0 168.5 L 130.5 168.5 L 130.5 168.5 L 130.5 169.5 L 130.0 172.0 L 128.5 175.0 L 127.0 178.5 L 126.5 180.5 L 126.0 181.0 " stroke="black" fill="none" stroke-width="6.0" stroke-linecap="round" stroke-linejoin="round" />
<path d="M 142.0 168.0 L 142.0 168.0 L 141.0 168.0 L 140.5 167.5 L 140.5 167.5 L 140.5 168.0 L 141.5 170.0 L 142.5 172.5 L 144.0 175.0 L 145.5 177.0 L 146.0 177.0 " stroke="black" fill="none" stroke-width="6.0" stroke-linecap="round" stroke-linejoin="round" />
<path d="M 151.5 168.0 L 152.0 168.0 L 152.5 167.5 L 152.5 167.5 L 153.5 168.0 L 154.5 169.0 L 155.5 170.5 L 156.0 171.0 " stroke="black" fill="none" stroke-width="6.0" stroke-linecap="round" stroke-linejoin="round" />
<path d="M 162.5 165.5 L 162.5 165.5 L 162.5 165.0 L 162.5 165.0 L 162.5 165.0 L 164.0 167.0 L 165.5 169.5 L 167.0 171.5 L 167.5 172.0 " stroke="black" fill="none" stroke-width="6.0" stroke-linecap="round" stroke-linejoin="round" />
</svg>