<svg xmlns="http://www.w3.org/2000/svg" width="300" height="300" viewBox="0 0 300 300">
<path d="M 126.5 148.0 L 124.5 148.5 L 122.5 149.5 L 122.0 150.0 L 122.0 150.0 L 124.0 150.0 L 128.0 149.5 L 134.5 149.5 L 143.0 149.0 L 153.0 149.0 L 162.0 149.0 L 168.0 149.5 L 171.5 150.5 L 173.0 151.5 L 173.0 151.5 L 172.5 151.5 L 172.5 151.5 L 172.5 151.5 L 171.5 151.5 L 171.0 150.5 L 171.0 150.5 " stroke="black" fill="none" stroke-width="6.0" stroke-linecap="round" stroke-linejoin="round" />
<path d="M 147.5 127.5 L 147.5 126.5 L 147.5 126.0 L 147.5 125.5 L 147.5 125.0 L 147.5 125.0 L 147.5 125.5 L 147.5 129.0 L 146.5 136.5 L 143.5 147.5 L 138.5 160.0 L 133.0 169.5 L 128.5 174.5 L 126.0 177.5 L 125.5 177.5 L 126.0 177.0 L 127.0 174.0 " stroke="black" fill="none" stroke-width="6.0" stroke-linecap="round" stroke-linejoin="round" />
<path d="M 148.5 154.0 L 148.5 155.0 L 148.5 155.5 L 149.0 156.5 L 152.0 159.5 L 159.0 165.0 L 168.0 171.5 L 174.5 174.5 L 177.0 175.5 L 177.0 175.5 " stroke="black" fill="none" stroke-width="6.0" stroke-linecap="round" stroke-linejoin="round" />
</svg>