<svg xmlns="http://www.w3.org/2000/svg" width="300" height="300" viewBox="0 0 300 300">
<path d="M 129.5 119.0 L 129.5 119.0 L 129.0 119.0 L 128.5 119.5 L 128.5 119.5 L 128.5 119.5 L 131.0 119.5 L 134.5 119.5 L 140.5 119.5 L 153.5 120.5 L 158.5 121.0 L 161.5 121.0 L 163.5 121.0 L 165.5 121.0 L 167.5 120.5 L 168.5 120.0 L 169.5 120.0 L 169.5 120.0 L 169.5 120.0 L 169.5 120.0 L 169.5 120.0 L 169.5 120.0 L 169.5 120.0 L 169.5 120.0 L 169.5 120.0 L 169.5 120.0 L 169.5 120.0 L 169.5 120.0 L 169.5 120.0 L 169.5 120.0 L 169.5 121.0 L 169.5 122.5 L 169.0 126.0 L 168.5 132.5 L 168.0 140.5 L 167.5 149.5 L 167.0 157.5 L 166.5 164.0 L 166.0 168.0 L 165.0 170.5 L 165.0 171.5 L 164.5 171.5 L 163.5 171.0 L 163.0 170.0 " stroke="black" fill="none" stroke-width="6.0" stroke-linecap="round" stroke-linejoin="round" />
<path d="M 134.0 144.0 L 134.0 144.0 L 134.5 144.0 L 134.5 144.0 L 135.0 144.0 L 135.0 143.5 L 136.5 143.5 L 140.0 143.0 L 146.5 143.0 L 153.5 143.5 L 159.5 144.0 L 163.5 144.0 L 165.5 144.0 L 165.5 144.0 L 165.0 144.0 L 164.5 144.0 L 164.0 144.0 L 163.5 144.0 " stroke="black" fill="none" stroke-width="6.0" stroke-linecap="round" stroke-linejoin="round" />
<path d="M 115.5 168.0 L 115.5 168.0 L 115.5 168.5 L 115.5 169.0 L 115.5 169.0 L 115.5 169.0 L 116.5 169.0 L 119.5 169.0 L 125.0 169.0 L 133.5 169.0 L 143.5 169.0 L 152.5 169.0 L 160.0 169.0 L 167.5 169.0 L 173.5 169.0 L 178.0 169.5 L 181.0 170.0 L 183.5 170.5 L 185.5 170.5 L 187.0 171.0 L 188.5 171.0 L 189.5 171.5 L 190.0 171.5 L 190.0 171.5 L 190.0 171.5 L 190.0 171.5 L 190.0 171.5 L 190.0 171.5 L 190.0 171.5 L 190.0 171.5 L 189.5 171.5 L 189.5 171.5 L 189.0 171.5 " stroke="black" fill="none" stroke-width="6.0" stroke-linecap="round" stroke-linejoin="round" />
</svg>