<svg xmlns="http://www.w3.org/2000/svg" width="300" height="300" viewBox="0 0 300 300">
<path d="M 123.5 135.5 L 123.5 135.5 L 123.0 136.0 L 122.5 136.5 L 125.5 137.0 L 132.5 138.0 L 145.0 139.0 L 156.5 139.0 L 164.0 137.5 L 167.5 137.5 L 168.0 137.5 L 168.5 137.5 L 168.5 137.5 L 168.5 137.5 L 168.5 137.5 L 168.5 137.5 " stroke="black" fill="none" stroke-width="6.0" stroke-linecap="round" stroke-linejoin="round" />
<path d="M 155.5 123.5 L 155.5 123.5 L 156.0 123.0 L 156.5 122.5 L 156.5 122.5 L 156.5 123.5 L 157.0 127.0 L 157.5 134.0 L 158.5 146.5 L 159.0 161.5 L 159.5 174.5 L 160.5 183.0 L 160.5 190.0 L 161.0 195.0 L 161.0 198.5 L 161.0 199.0 L 160.0 199.0 L 157.0 197.0 L 153.0 193.5 L 150.0 189.5 L 149.5 189.0 " stroke="black" fill="none" stroke-width="6.0" stroke-linecap="round" stroke-linejoin="round" />
<path d="M 133.0 158.5 L 133.5 158.5 L 134.5 158.5 L 135.0 159.0 L 137.0 160.5 L 140.0 163.5 L 143.5 166.0 L 145.5 167.5 L 146.0 168.0 " stroke="black" fill="none" stroke-width="6.0" stroke-linecap="round" stroke-linejoin="round" />
</svg>