<svg xmlns="http://www.w3.org/2000/svg" width="300" height="300" viewBox="0 0 300 300">
<path d="M 126.0 123.0 L 126.0 122.5 L 125.5 122.0 L 125.0 122.0 L 125.0 122.0 L 125.0 122.5 L 125.5 125.0 L 126.0 129.5 L 126.5 134.0 L 126.5 137.0 L 126.5 138.0 L 126.5 134.5 L 127.0 130.5 " stroke="black" fill="none" stroke-width="6.0" stroke-linecap="round" stroke-linejoin="round" />
<path d="M 127.5 123.0 L 126.5 123.0 L 126.0 123.0 L 126.0 123.0 L 126.0 123.0 L 126.5 123.0 L 128.0 123.0 L 130.5 123.0 L 134.5 123.0 L 140.5 123.0 L 148.0 123.0 L 155.0 123.0 L 161.5 122.5 L 167.5 122.0 L 172.0 122.0 L 176.5 122.0 L 179.5 122.5 L 181.0 123.5 L 182.5 124.0 L 182.5 124.0 L 183.0 124.5 L 183.0 124.5 L 183.0 124.5 L 183.0 124.5 L 182.5 124.5 L 182.5 124.5 L 182.5 124.5 L 182.5 124.5 L 182.0 125.0 L 182.0 125.5 L 181.5 126.0 L 181.5 127.5 L 181.0 129.0 L 180.5 131.0 L 180.5 132.5 L 180.0 134.5 L 180.0 135.5 L 180.0 135.5 L 179.5 135.5 " stroke="black" fill="none" stroke-width="6.0" stroke-linecap="round" stroke-linejoin="round" />
</svg>