<svg xmlns="http://www.w3.org/2000/svg" width="300" height="300" viewBox="0 0 300 300">
<path d="M 148.0 119.0 L 148.0 118.0 L 148.0 117.5 L 148.0 117.0 L 148.0 117.0 L 148.5 117.0 L 148.5 117.5 L 149.0 120.0 L 149.0 124.5 L 148.0 131.5 L 146.0 139.0 L 143.5 145.5 L 141.0 150.5 L 138.0 153.5 L 136.0 156.0 L 135.0 157.5 L 134.5 158.0 L 134.5 158.0 L 134.5 158.0 L 134.5 158.0 L 135.5 157.0 L 137.5 156.5 L 139.5 155.5 L 142.5 155.0 L 146.5 155.0 L 152.5 155.0 L 159.0 155.5 L 165.0 155.5 L 167.5 155.0 L 167.5 154.5 L 166.5 153.0 L 166.0 152.5 " stroke="black" fill="none" stroke-width="6.0" stroke-linecap="round" stroke-linejoin="round" />
<path d="M 165.0 145.0 L 164.5 144.5 L 164.0 144.0 L 164.0 144.0 L 164.5 145.0 L 166.5 148.5 L 169.0 155.0 L 171.5 161.0 L 173.0 164.5 L 173.5 165.0 " stroke="black" fill="none" stroke-width="6.0" stroke-linecap="round" stroke-linejoin="round" />
</svg>