<svg xmlns="http://www.w3.org/2000/svg" width="300" height="300" viewBox="0 0 300 300">
<path d="M 127.5 130.0 L 127.5 130.0 L 127.5 130.0 L 127.0 130.0 L 127.0 130.0 L 127.0 131.5 L 127.5 136.0 L 128.5 144.0 L 129.0 149.5 L 129.5 151.5 L 130.0 151.0 L 131.0 148.5 " stroke="black" fill="none" stroke-width="6.0" stroke-linecap="round" stroke-linejoin="round" />
<path d="M 128.5 130.5 L 127.5 131.0 L 126.5 131.5 L 126.0 131.5 L 126.0 131.5 L 127.5 131.5 L 129.5 131.5 L 133.0 131.5 L 137.5 131.5 L 145.5 130.0 L 156.0 128.0 L 164.5 126.5 L 171.0 126.0 L 175.5 126.0 L 177.0 126.5 L 177.0 126.5 L 176.5 126.5 L 176.5 126.5 L 176.5 126.5 L 176.5 126.5 L 176.0 127.0 L 176.0 128.5 L 175.0 131.5 L 174.0 137.0 L 172.5 143.0 L 171.5 147.0 L 171.5 148.5 L 171.5 148.5 L 171.5 147.5 " stroke="black" fill="none" stroke-width="6.0" stroke-linecap="round" stroke-linejoin="round" />
<path d="M 141.0 133.5 L 141.0 133.5 L 141.5 133.5 L 141.5 133.0 L 142.0 133.0 L 142.0 135.0 L 142.0 139.0 L 142.5 142.5 L 143.5 145.0 L 144.0 145.0 " stroke="black" fill="none" stroke-width="6.0" stroke-linecap="round" stroke-linejoin="round" />
<path d="M 157.0 131.0 L 156.5 131.0 L 156.0 131.5 L 156.0 132.0 L 156.0 132.5 L 156.5 134.5 L 156.5 137.5 L 156.5 141.5 L 156.5 144.5 L 156.5 146.5 " stroke="black" fill="none" stroke-width="6.0" stroke-linecap="round" stroke-linejoin="round" />
<path d="M 113.5 150.0 L 112.5 150.0 L 111.5 150.5 L 111.5 150.5 L 111.5 150.5 L 112.5 150.5 L 114.5 151.0 L 116.5 151.5 L 120.5 151.5 L 127.5 152.0 L 138.0 151.0 L 150.5 149.0 L 163.5 147.5 L 173.5 147.0 L 181.5 147.0 L 185.5 147.5 L 187.0 148.0 L 187.0 148.0 L 187.0 148.0 L 187.0 148.0 L 187.0 148.0 L 187.0 148.0 L 187.0 148.0 L 187.0 148.0 L 187.0 148.0 L 187.0 148.0 L 187.0 148.0 L 187.0 148.0 L 187.0 148.0 L 187.0 148.0 L 187.0 148.0 L 187.0 148.0 L 187.0 148.0 L 187.0 148.0 L 187.0 148.0 L 187.0 148.0 L 187.0 148.0 L 187.0 148.0 L 187.0 148.0 L 187.0 148.0 L 187.0 148.0 L 186.5 148.0 " stroke="black" fill="none" stroke-width="6.0" stroke-linecap="round" stroke-linejoin="round" />
</svg>