<svg xmlns="http://www.w3.org/2000/svg" width="300" height="300" viewBox="0 0 300 300">
<path d="M 134.0 113.5 L 134.0 113.0 L 134.0 112.0 L 134.0 111.5 L 134.0 111.5 L 134.0 111.5 L 134.0 112.5 L 133.0 115.5 L 131.0 121.0 L 128.0 127.0 L 126.0 131.0 L 125.0 131.5 L 125.0 131.5 " stroke="black" fill="none" stroke-width="6.0" stroke-linecap="round" stroke-linejoin="round" />
<path d="M 134.0 123.5 L 134.0 123.0 L 134.0 122.5 L 134.5 122.5 L 137.0 122.5 L 142.0 122.5 L 149.5 122.5 L 156.5 123.0 L 162.5 123.0 L 165.0 123.0 L 165.0 122.5 L 164.0 122.5 " stroke="black" fill="none" stroke-width="6.0" stroke-linecap="round" stroke-linejoin="round" />
<path d="M 135.0 133.0 L 134.0 133.5 L 133.5 133.5 L 133.5 133.5 L 136.0 133.5 L 140.0 133.5 L 146.0 133.5 L 153.5 133.5 L 159.0 133.5 L 161.0 133.5 L 160.5 134.0 L 159.0 134.5 " stroke="black" fill="none" stroke-width="6.0" stroke-linecap="round" stroke-linejoin="round" />
<path d="M 129.5 145.5 L 129.5 145.5 L 128.5 145.5 L 128.0 145.5 L 128.0 145.5 L 130.0 145.5 L 135.0 145.5 L 142.5 145.5 L 153.0 145.0 L 163.0 144.5 L 168.5 144.0 L 171.5 144.0 L 172.0 144.5 L 171.5 144.5 L 171.0 144.5 L 170.5 145.0 L 170.5 145.5 L 169.5 146.0 L 169.0 147.0 L 168.0 149.0 L 166.5 151.5 L 165.0 155.5 L 164.0 162.0 L 164.0 171.0 L 166.0 179.5 L 169.5 185.5 L 173.5 188.5 L 178.0 189.0 L 182.0 188.5 L 184.5 185.0 L 187.5 180.5 L 189.0 175.5 L 189.5 172.5 L 188.5 170.5 L 187.5 170.0 " stroke="black" fill="none" stroke-width="6.0" stroke-linecap="round" stroke-linejoin="round" />
</svg>