<svg xmlns="http://www.w3.org/2000/svg" width="300" height="300" viewBox="0 0 300 300">
<path d="M 132.5 114.0 L 132.5 114.0 L 133.5 113.5 L 134.0 113.5 L 134.0 113.0 L 134.5 113.0 L 134.5 113.0 L 135.0 116.0 L 135.0 122.0 L 133.5 129.0 L 132.0 133.5 L 131.0 134.5 L 130.0 134.0 L 129.5 133.5 " stroke="black" fill="none" stroke-width="6.0" stroke-linecap="round" stroke-linejoin="round" />
<path d="M 133.5 124.0 L 134.0 124.0 L 135.0 124.0 L 135.5 123.5 L 137.0 123.5 L 139.0 123.5 L 143.0 123.5 L 148.0 123.5 L 154.0 123.0 L 160.5 121.5 L 166.5 120.5 L 171.0 119.5 L 173.5 119.5 L 174.5 119.5 L 175.0 119.5 L 175.0 119.5 L 175.0 119.5 L 175.0 119.5 L 175.0 119.5 L 175.0 119.5 L 175.0 119.5 L 175.0 119.5 L 175.0 119.5 L 175.0 119.5 L 175.0 119.5 L 175.0 119.5 L 175.0 119.5 L 175.0 119.5 L 174.5 119.5 L 174.5 120.0 L 174.5 121.0 L 174.5 124.0 L 174.5 130.0 L 175.0 138.0 L 175.5 145.5 L 175.5 152.0 L 176.0 158.0 L 176.0 163.5 L 175.5 168.0 L 175.0 171.5 L 174.5 173.5 L 174.0 174.0 L 173.5 174.0 L 172.0 174.0 L 169.0 173.0 L 166.0 171.0 L 164.0 169.0 L 162.5 167.5 " stroke="black" fill="none" stroke-width="6.0" stroke-linecap="round" stroke-linejoin="round" />
</svg>