<svg xmlns="http://www.w3.org/2000/svg" width="300" height="300" viewBox="0 0 300 300">
<path d="M 123.0 127.0 L 122.5 126.5 L 121.5 125.5 L 121.0 125.5 L 121.0 125.0 L 121.0 125.5 L 121.0 127.0 L 120.5 130.5 L 120.0 136.0 L 119.5 144.0 L 119.5 152.5 L 119.5 161.5 L 120.0 169.5 L 121.5 175.0 L 123.0 178.5 L 124.5 180.5 L 125.0 182.0 L 126.0 183.0 L 126.0 183.5 L 126.0 183.5 L 126.0 183.5 L 126.0 183.5 L 126.0 183.5 L 126.0 183.5 L 126.0 183.0 L 126.0 181.5 L 126.5 179.5 L 128.0 176.0 L 130.0 171.5 L 132.5 167.5 L 134.5 164.5 L 136.0 163.0 L 136.5 162.5 L 136.5 162.5 " stroke="black" fill="none" stroke-width="6.0" stroke-linecap="round" stroke-linejoin="round" />
<path d="M 144.5 126.5 L 143.5 127.0 L 142.0 127.5 L 141.0 127.5 L 141.0 127.5 L 141.0 127.5 L 143.5 127.5 L 148.0 127.0 L 153.0 126.5 L 159.5 127.0 L 166.0 127.5 L 170.5 128.0 L 173.0 128.5 L 174.0 129.0 L 174.0 129.0 " stroke="black" fill="none" stroke-width="6.0" stroke-linecap="round" stroke-linejoin="round" />
<path d="M 145.5 141.0 L 144.5 141.0 L 144.0 141.5 L 143.5 141.5 L 145.0 141.5 L 148.5 141.0 L 153.0 140.5 L 158.5 141.0 L 164.0 141.5 L 169.5 142.0 L 172.0 141.0 " stroke="black" fill="none" stroke-width="6.0" stroke-linecap="round" stroke-linejoin="round" />
<path d="M 158.5 130.5 L 159.5 130.5 L 160.0 130.0 L 160.0 129.5 L 160.0 129.5 L 160.5 129.5 L 160.5 129.5 L 160.5 130.5 L 160.5 133.0 L 160.5 136.5 L 160.5 142.0 L 160.5 149.0 L 160.0 155.5 L 160.0 162.0 L 160.0 168.0 L 160.0 172.5 L 160.0 176.0 L 160.0 178.0 L 159.5 179.5 L 159.0 181.0 L 158.0 182.0 L 157.5 182.5 L 156.5 183.0 L 155.5 183.0 L 154.5 183.0 L 153.5 183.0 L 152.5 182.5 L 151.0 182.0 L 150.0 181.0 L 149.0 179.5 L 148.5 178.5 L 148.0 177.0 L 147.5 175.5 L 147.0 174.0 L 147.0 172.5 L 147.0 171.0 L 147.0 169.5 L 147.5 167.5 L 148.5 165.5 L 150.0 164.0 L 151.0 162.5 L 153.0 161.0 L 155.0 160.5 L 157.0 160.5 L 159.5 160.5 L 162.0 161.0 L 165.0 162.0 L 167.5 163.0 L 170.0 164.5 L 172.0 165.5 L 173.0 167.0 L 174.0 168.5 L 174.5 170.0 L 174.5 171.0 L 175.0 172.5 L 175.5 174.0 " stroke="black" fill="none" stroke-width="6.0" stroke-linecap="round" stroke-linejoin="round" />
</svg>