<svg xmlns="http://www.w3.org/2000/svg" width="300" height="300" viewBox="0 0 300 300">
<path d="M 140.5 133.0 L 140.5 133.0 L 140.5 133.0 L 141.0 133.0 L 141.0 133.0 L 141.0 133.0 L 141.5 133.5 L 141.5 136.5 L 141.5 143.0 L 141.5 150.0 L 141.5 153.5 L 142.5 154.0 " stroke="black" fill="none" stroke-width="6.0" stroke-linecap="round" stroke-linejoin="round" />
<path d="M 158.0 127.5 L 159.0 127.5 L 159.5 127.5 L 159.5 127.5 L 160.0 127.5 L 160.0 128.5 L 160.5 130.0 L 160.5 133.5 L 160.5 138.5 L 160.0 145.5 L 159.5 153.5 L 158.5 161.0 L 158.0 167.0 L 156.5 172.5 L 154.5 176.5 L 153.0 179.0 L 152.0 180.0 L 151.5 180.0 " stroke="black" fill="none" stroke-width="6.0" stroke-linecap="round" stroke-linejoin="round" />
</svg>