<svg xmlns="http://www.w3.org/2000/svg" width="300" height="300" viewBox="0 0 300 300">
<path d="M 135.5 143.5 L 135.5 143.5 L 136.0 143.5 L 136.0 144.0 L 136.5 144.0 L 137.5 144.0 L 139.0 143.5 L 141.0 142.5 L 144.0 141.5 L 147.0 140.5 L 150.5 140.0 L 153.5 140.0 L 156.0 140.0 L 158.0 140.0 L 160.5 140.0 L 162.5 139.5 L 164.5 139.5 L 166.5 139.0 L 168.0 139.0 L 169.5 139.0 L 170.5 138.5 L 170.5 138.5 L 171.0 138.5 L 171.0 138.5 L 171.5 138.5 L 172.0 138.5 L 172.0 138.5 L 172.5 138.5 L 172.5 138.5 L 172.5 138.5 L 172.5 139.0 L 172.5 139.0 L 172.5 139.5 L 172.5 140.5 L 172.5 142.0 L 172.0 145.5 L 170.5 149.5 L 169.5 154.5 L 168.0 159.0 L 167.5 162.5 L 166.5 165.0 L 166.5 166.5 L 166.5 166.5 L 166.5 167.0 L 166.5 167.0 L 166.5 167.0 " stroke="black" fill="none" stroke-width="6.0" stroke-linecap="round" stroke-linejoin="round" />
<path d="M 138.5 171.0 L 138.5 171.0 L 138.5 171.0 L 138.0 171.5 L 138.0 171.5 L 138.0 171.5 L 138.0 171.5 L 138.0 171.5 L 138.0 171.5 L 138.0 171.5 L 138.0 171.5 L 139.5 171.0 L 141.5 170.5 L 146.0 170.0 L 151.5 169.5 L 157.5 168.5 L 163.5 168.0 L 168.5 167.5 L 171.5 167.5 L 174.0 167.5 L 176.0 167.5 L 177.5 167.5 L 179.0 167.5 L 180.5 167.5 L 181.5 167.5 L 182.5 167.5 L 182.5 167.5 L 183.0 167.5 L 183.0 167.5 L 183.0 167.5 L 183.0 167.5 L 183.0 167.5 L 183.0 167.5 L 183.0 167.5 L 183.0 167.5 L 183.0 167.5 L 183.0 167.5 L 183.0 167.5 L 183.0 167.5 L 182.5 167.5 L 182.5 167.5 " stroke="black" fill="none" stroke-width="6.0" stroke-linecap="round" stroke-linejoin="round" />
</svg>