<svg xmlns="http://www.w3.org/2000/svg" width="300" height="300" viewBox="0 0 300 300">
<path d="M 134.0 134.5 L 134.0 135.0 L 134.0 135.5 L 134.0 135.5 L 134.0 135.5 L 134.0 135.5 L 135.0 135.0 L 136.5 135.0 L 140.0 134.5 L 145.0 134.5 L 149.5 134.5 L 154.0 134.0 L 158.0 133.5 L 161.0 133.0 L 163.5 132.5 L 165.0 132.5 L 166.5 132.5 L 167.5 132.5 L 168.5 132.5 L 169.5 132.5 L 170.5 132.5 L 171.0 132.5 L 171.0 133.0 L 171.0 133.0 L 171.0 133.5 L 171.0 133.5 L 171.0 134.5 L 171.0 135.5 L 171.0 138.0 L 171.0 141.0 L 171.0 145.5 L 170.5 150.0 L 170.0 155.0 L 170.0 159.5 L 170.0 163.5 L 170.0 167.0 L 170.0 169.0 L 170.0 169.5 L 170.0 169.5 L 170.0 169.5 L 169.5 169.5 L 169.5 169.5 L 168.5 169.5 L 168.5 169.0 " stroke="black" fill="none" stroke-width="6.0" stroke-linecap="round" stroke-linejoin="round" />
<path d="M 143.0 153.5 L 143.0 153.5 L 142.5 153.5 L 142.5 153.5 L 142.0 153.5 L 142.0 153.5 L 143.0 153.0 L 145.5 152.0 L 149.5 151.5 L 154.5 151.5 L 159.5 152.0 L 164.0 152.5 L 167.5 152.5 L 169.5 152.5 L 170.0 152.5 L 170.0 152.5 L 169.5 152.5 " stroke="black" fill="none" stroke-width="6.0" stroke-linecap="round" stroke-linejoin="round" />
<path d="M 133.0 171.0 L 133.5 171.0 L 134.5 171.5 L 135.5 171.5 L 137.0 172.0 L 139.5 172.0 L 144.0 172.5 L 150.0 172.5 L 155.0 172.5 L 160.5 172.5 L 164.5 172.5 L 167.5 172.5 L 169.5 172.5 L 170.0 173.0 " stroke="black" fill="none" stroke-width="6.0" stroke-linecap="round" stroke-linejoin="round" />
</svg>