<svg xmlns="http://www.w3.org/2000/svg" width="300" height="300" viewBox="0 0 300 300">
<path d="M 141.0 146.0 L 140.5 146.0 L 139.5 146.0 L 139.0 145.5 L 139.0 145.5 L 139.0 145.5 L 139.0 145.5 L 139.0 145.5 L 140.5 145.0 L 143.5 143.5 L 147.5 141.5 L 152.5 138.5 L 158.0 136.0 L 162.5 134.0 L 166.5 133.0 L 168.5 132.5 L 169.5 132.5 L 171.0 132.5 L 171.5 132.0 L 172.0 132.0 L 172.5 132.0 L 173.0 132.0 L 173.5 131.5 L 174.0 131.5 L 174.0 131.5 L 174.5 131.0 L 174.5 131.0 L 174.5 131.0 L 174.5 131.0 L 174.5 131.0 L 174.5 131.0 L 174.5 131.0 L 174.5 131.0 L 174.5 131.0 L 174.5 131.5 L 174.0 132.5 L 172.5 135.0 L 171.0 139.0 L 169.0 144.0 L 168.0 147.0 L 167.5 148.5 L 167.5 148.5 L 167.5 148.5 L 167.5 148.5 L 167.5 148.5 " stroke="black" fill="none" stroke-width="6.0" stroke-linecap="round" stroke-linejoin="round" />
<path d="M 148.5 124.5 L 148.5 124.5 L 148.0 124.0 L 148.0 125.0 L 150.0 129.0 L 152.5 136.5 L 155.5 146.5 L 158.0 154.0 L 159.0 158.5 L 160.0 160.0 L 160.0 160.5 " stroke="black" fill="none" stroke-width="6.0" stroke-linecap="round" stroke-linejoin="round" />
</svg>