<svg xmlns="http://www.w3.org/2000/svg" width="300" height="300" viewBox="0 0 300 300">
<path d="M 127.0 136.0 L 127.0 136.0 L 126.5 136.0 L 126.0 136.5 L 126.0 136.5 L 126.0 136.5 L 127.0 136.5 L 129.0 136.5 L 131.5 136.5 L 136.0 136.5 L 141.5 135.5 L 147.5 134.0 L 151.0 133.5 L 152.0 133.0 L 152.0 132.5 L 151.0 132.0 L 151.0 131.5 " stroke="black" fill="none" stroke-width="6.0" stroke-linecap="round" stroke-linejoin="round" />
<path d="M 142.5 122.0 L 142.5 122.0 L 142.5 122.5 L 142.0 123.0 L 141.5 124.5 L 141.0 128.0 L 139.0 136.0 L 134.5 148.0 L 129.5 159.0 L 124.5 167.0 L 120.5 172.0 L 119.5 172.5 L 120.0 171.5 " stroke="black" fill="none" stroke-width="6.0" stroke-linecap="round" stroke-linejoin="round" />
<path d="M 154.5 147.0 L 154.5 147.0 L 155.0 147.0 L 155.5 147.0 L 155.5 147.0 L 156.0 146.5 L 157.0 146.5 L 160.5 146.5 L 166.0 146.5 L 172.0 145.0 L 175.5 144.5 L 176.5 144.5 " stroke="black" fill="none" stroke-width="6.0" stroke-linecap="round" stroke-linejoin="round" />
<path d="M 146.5 159.5 L 146.5 159.5 L 146.0 159.5 L 145.5 159.5 L 145.5 160.0 L 145.5 160.0 L 145.5 160.0 L 145.5 160.5 L 145.5 161.5 L 145.5 163.5 L 145.5 166.0 L 145.5 169.5 L 145.5 172.0 L 146.5 174.5 L 147.5 176.0 L 149.0 177.0 L 151.5 177.5 L 155.0 177.5 L 159.5 177.0 L 164.5 175.5 L 170.0 174.5 L 173.5 173.5 L 176.0 173.0 L 176.0 173.0 L 176.0 173.0 L 176.0 173.0 L 175.5 173.0 " stroke="black" fill="none" stroke-width="6.0" stroke-linecap="round" stroke-linejoin="round" />
</svg>