<svg xmlns="http://www.w3.org/2000/svg" width="300" height="300" viewBox="0 0 300 300">
<path d="M 130.5 141.5 L 130.5 141.5 L 130.5 141.5 L 131.0 141.5 L 131.0 141.5 L 131.0 141.5 L 131.0 141.5 L 132.0 141.5 L 133.5 141.5 L 137.5 141.5 L 144.0 141.0 L 151.5 140.0 L 157.5 138.5 L 162.5 137.5 L 165.5 137.0 L 167.5 137.0 L 168.5 137.0 L 169.0 137.0 L 169.5 137.0 L 169.5 137.0 L 169.5 137.0 L 169.5 137.0 L 170.0 137.0 L 170.0 137.0 L 170.0 137.0 L 170.0 137.0 L 170.0 137.0 L 170.0 137.0 L 170.0 137.0 L 170.0 137.0 L 170.0 137.0 L 170.0 137.0 L 170.0 138.0 L 170.0 139.0 L 169.0 141.0 L 168.0 144.5 L 165.5 149.0 L 162.5 154.5 L 159.5 159.5 L 156.5 164.0 L 154.0 168.0 L 151.5 171.0 L 148.5 173.5 L 145.0 175.5 L 141.5 176.5 L 139.0 177.5 L 137.0 178.5 L 136.0 179.0 L 135.5 179.5 L 135.5 179.5 " stroke="black" fill="none" stroke-width="6.0" stroke-linecap="round" stroke-linejoin="round" />
<path d="M 165.5 127.5 L 165.5 127.5 L 165.0 127.5 L 164.5 127.0 L 164.5 127.0 L 166.0 128.0 L 167.5 129.0 L 169.0 130.0 L 170.0 131.0 " stroke="black" fill="none" stroke-width="6.0" stroke-linecap="round" stroke-linejoin="round" />
<path d="M 175.5 123.5 L 175.5 123.0 L 175.5 122.5 L 175.5 122.5 L 176.0 122.5 L 177.0 123.0 L 178.0 124.5 L 179.5 126.0 L 180.5 128.0 " stroke="black" fill="none" stroke-width="6.0" stroke-linecap="round" stroke-linejoin="round" />
</svg>