<svg xmlns="http://www.w3.org/2000/svg" width="300" height="300" viewBox="0 0 300 300">
<path d="M 136.0 137.5 L 136.0 138.0 L 136.5 138.0 L 136.5 138.0 L 136.5 138.0 L 137.0 138.0 L 137.5 138.0 L 138.5 138.0 L 140.0 137.5 L 142.0 137.5 L 145.0 137.5 L 148.5 137.0 L 152.5 137.0 L 155.5 137.0 L 158.0 137.0 L 160.0 137.0 L 162.0 137.0 L 164.0 137.0 L 165.5 137.0 L 167.5 137.0 L 169.0 136.5 L 170.5 136.5 L 171.5 136.0 L 172.0 136.0 L 172.0 136.0 L 172.0 136.0 L 172.5 136.0 L 172.5 136.0 L 172.5 136.0 L 172.5 136.0 L 172.5 136.0 L 172.5 136.0 L 172.5 136.5 L 172.5 137.0 L 172.5 138.5 L 172.5 140.5 L 172.5 143.0 L 172.0 146.5 L 171.5 149.5 L 171.0 153.0 L 170.5 156.5 L 170.0 160.0 L 169.5 163.0 L 169.0 166.5 L 169.0 168.5 L 169.0 170.0 L 169.0 170.5 L 169.0 170.5 L 169.0 170.5 L 169.0 170.0 L 169.0 170.0 L 169.0 170.0 L 169.0 169.5 " stroke="black" fill="none" stroke-width="6.0" stroke-linecap="round" stroke-linejoin="round" />
<path d="M 147.0 154.5 L 146.5 155.0 L 145.5 155.5 L 145.0 155.5 L 145.0 155.5 L 145.0 155.5 L 145.0 155.5 L 145.0 155.5 L 146.0 155.5 L 147.5 155.0 L 149.0 155.0 L 151.5 155.0 L 154.5 155.0 L 158.5 155.0 L 162.5 155.5 L 166.0 156.0 L 169.0 156.0 L 170.5 155.5 L 171.0 155.5 L 171.0 155.5 L 170.5 156.0 L 170.5 156.5 " stroke="black" fill="none" stroke-width="6.0" stroke-linecap="round" stroke-linejoin="round" />
<path d="M 134.5 174.0 L 134.5 174.0 L 135.0 174.0 L 135.0 174.0 L 135.0 174.0 L 135.5 174.0 L 135.5 174.0 L 136.0 174.0 L 137.0 174.0 L 138.5 174.5 L 141.5 174.5 L 145.0 174.5 L 148.5 174.5 L 151.5 174.5 L 154.0 174.5 L 155.5 174.5 L 157.0 174.5 L 158.0 174.5 L 160.0 174.5 L 161.5 174.5 L 163.0 174.0 L 164.5 174.0 L 166.0 174.0 L 168.0 174.0 L 169.5 174.0 L 171.5 174.0 L 172.0 174.0 L 172.5 174.0 L 172.5 174.0 L 172.5 174.0 L 172.0 174.0 L 172.0 174.0 L 172.0 174.0 " stroke="black" fill="none" stroke-width="6.0" stroke-linecap="round" stroke-linejoin="round" />
</svg>