<svg xmlns="http://www.w3.org/2000/svg" width="300" height="300" viewBox="0 0 300 300">
<path d="M 136.0 131.0 L 135.5 131.5 L 134.5 131.5 L 134.5 131.5 L 135.0 131.5 L 136.5 130.5 L 140.0 130.0 L 144.0 130.0 L 148.5 129.5 L 152.5 129.5 L 155.5 129.5 L 157.5 129.5 L 158.0 129.5 L 158.0 129.5 L 158.0 129.5 " stroke="black" fill="none" stroke-width="6.0" stroke-linecap="round" stroke-linejoin="round" />
<path d="M 129.5 146.0 L 129.5 146.0 L 129.5 145.5 L 129.5 145.5 L 129.5 145.0 L 129.5 144.5 L 131.5 144.5 L 134.0 144.5 L 138.0 144.5 L 143.5 144.5 L 149.5 143.5 L 154.0 142.5 L 157.5 142.5 L 159.5 142.5 L 161.0 142.5 L 161.5 142.5 L 162.5 143.0 L 163.0 143.0 L 164.0 143.5 L 164.5 143.5 L 165.0 143.5 L 165.5 143.5 L 165.5 143.5 L 166.0 143.5 L 166.5 144.0 L 166.5 144.0 L 166.5 144.0 L 166.5 144.0 L 166.5 144.0 L 166.5 144.0 L 166.5 144.0 L 166.5 144.5 L 166.5 144.5 L 166.5 144.5 L 166.5 144.5 L 166.5 145.0 L 166.5 145.5 L 166.0 146.0 L 166.0 147.0 L 165.5 148.0 L 164.5 149.5 L 163.5 152.0 L 162.0 154.5 L 160.0 158.0 L 157.5 161.0 L 154.5 164.0 L 151.0 166.5 L 148.0 168.5 L 145.5 170.0 L 144.0 171.0 L 143.5 171.5 L 143.5 171.5 " stroke="black" fill="none" stroke-width="6.0" stroke-linecap="round" stroke-linejoin="round" />
</svg>