<svg xmlns="http://www.w3.org/2000/svg" width="300" height="300" viewBox="0 0 300 300">
<path d="M 134.5 150.5 L 134.5 150.5 L 134.5 151.0 L 134.0 151.5 L 134.0 151.5 L 134.0 151.5 L 134.0 151.5 L 134.0 151.5 L 135.0 151.5 L 137.0 151.0 L 140.0 150.0 L 144.5 149.5 L 149.0 149.0 L 152.5 148.5 L 155.5 148.5 L 157.5 148.0 L 159.5 148.0 L 161.5 148.0 L 163.0 148.0 L 164.5 148.0 L 165.5 148.0 L 166.5 148.0 L 167.0 148.0 L 167.5 148.0 L 167.5 148.0 L 167.5 148.0 L 167.5 148.0 L 167.5 148.0 L 167.5 148.0 L 167.5 148.0 L 167.5 148.0 L 167.5 148.0 L 167.5 148.0 L 167.5 148.0 L 167.5 148.5 L 167.0 149.5 L 166.5 151.5 L 165.5 155.0 L 164.5 159.5 L 163.5 164.0 L 162.5 168.0 L 162.0 170.0 L 162.0 171.0 L 162.0 171.0 L 162.0 171.0 L 162.0 171.0 L 162.5 171.0 L 162.5 171.0 " stroke="black" fill="none" stroke-width="6.0" stroke-linecap="round" stroke-linejoin="round" />
<path d="M 134.5 173.5 L 134.5 173.5 L 135.0 174.0 L 135.5 174.5 L 135.5 174.5 L 136.0 174.5 L 137.0 174.5 L 138.0 174.5 L 139.5 174.5 L 142.5 174.0 L 146.5 174.0 L 151.0 173.5 L 155.5 173.0 L 160.0 173.0 L 164.0 172.5 L 168.0 172.5 L 171.0 172.5 L 173.5 172.0 L 175.0 172.0 L 175.5 171.5 L 176.0 171.5 L 176.0 171.5 L 176.0 171.5 L 176.0 171.5 L 176.0 171.5 L 176.0 171.5 L 176.0 171.5 " stroke="black" fill="none" stroke-width="6.0" stroke-linecap="round" stroke-linejoin="round" />
</svg>