<svg xmlns="http://www.w3.org/2000/svg" width="300" height="300" viewBox="0 0 300 300">
<path d="M 147.5 146.0 L 146.5 145.5 L 145.5 145.5 L 145.0 145.5 L 145.0 145.5 L 146.0 145.5 L 148.5 145.5 L 152.0 145.0 L 157.0 144.0 L 163.0 143.0 L 168.5 142.0 L 173.0 141.5 L 174.0 141.5 L 175.0 142.0 L 175.0 142.5 L 175.5 142.5 L 176.0 143.0 L 176.5 143.5 L 177.0 144.0 L 177.0 144.5 L 177.5 145.0 L 177.5 146.0 L 177.5 147.5 L 178.0 148.5 L 178.0 150.0 L 178.0 152.0 L 177.5 154.0 L 177.0 155.5 L 176.5 158.0 L 175.5 160.0 L 174.5 162.5 L 173.5 165.0 L 172.5 167.0 L 171.5 169.0 L 170.5 170.5 L 169.5 171.5 L 168.5 171.5 L 167.5 171.5 L 166.5 170.5 L 165.0 169.5 L 163.5 168.0 L 163.0 166.5 L 163.0 165.0 " stroke="black" fill="none" stroke-width="6.0" stroke-linecap="round" stroke-linejoin="round" />
<path d="M 159.5 131.5 L 159.5 132.0 L 159.5 132.0 L 159.5 132.5 L 159.5 132.5 L 159.5 133.0 L 159.5 134.0 L 159.5 136.5 L 159.5 141.0 L 159.5 147.5 L 158.0 155.0 L 156.0 161.0 L 154.0 165.5 L 152.0 169.0 L 150.5 171.5 L 150.0 173.0 L 150.0 173.5 " stroke="black" fill="none" stroke-width="6.0" stroke-linecap="round" stroke-linejoin="round" />
<path d="M 184.0 130.0 L 184.0 130.0 L 184.0 130.0 L 184.0 129.5 L 184.0 129.5 L 184.0 129.5 L 184.5 129.5 L 185.0 130.5 L 186.5 133.5 L 188.5 138.5 L 190.5 143.5 L 191.5 147.0 L 191.5 148.0 L 191.5 148.5 " stroke="black" fill="none" stroke-width="6.0" stroke-linecap="round" stroke-linejoin="round" />
</svg>