<svg xmlns="http://www.w3.org/2000/svg" width="300" height="300" viewBox="0 0 300 300">
<path d="M 149.0 129.5 L 149.0 129.5 L 148.5 129.5 L 148.5 129.5 L 148.5 129.5 L 148.5 130.0 L 148.5 132.0 L 148.5 137.0 L 148.0 145.5 L 146.0 155.0 L 145.0 161.0 L 145.0 163.0 L 145.0 163.5 " stroke="black" fill="none" stroke-width="6.0" stroke-linecap="round" stroke-linejoin="round" />
<path d="M 134.0 166.0 L 134.5 166.0 L 135.0 166.0 L 135.5 166.0 L 137.0 165.5 L 140.5 164.5 L 147.0 163.0 L 155.5 162.0 L 164.0 160.5 L 170.5 159.0 L 174.0 158.5 L 174.5 158.5 " stroke="black" fill="none" stroke-width="6.0" stroke-linecap="round" stroke-linejoin="round" />
<path d="M 171.5 147.5 L 171.0 147.5 L 171.0 147.0 L 171.0 147.0 L 172.0 149.0 L 174.5 153.5 L 177.0 159.5 L 179.5 164.5 L 181.0 167.5 L 181.5 169.0 " stroke="black" fill="none" stroke-width="6.0" stroke-linecap="round" stroke-linejoin="round" />
</svg>