<svg xmlns="http://www.w3.org/2000/svg" width="300" height="300" viewBox="0 0 300 300">
<path d="M 148.5 125.5 L 148.0 125.5 L 147.5 125.0 L 147.5 125.0 L 147.5 125.0 L 147.5 125.0 L 147.5 125.0 L 148.0 125.5 L 148.5 127.0 L 148.5 129.5 L 149.0 132.0 L 149.0 134.5 L 149.5 136.5 " stroke="black" fill="none" stroke-width="6.0" stroke-linecap="round" stroke-linejoin="round" />
<path d="M 133.5 141.0 L 133.5 141.0 L 134.0 141.0 L 134.0 141.5 L 134.0 142.5 L 134.0 144.5 L 134.0 147.5 L 134.0 151.0 L 134.5 154.0 L 134.5 155.0 L 134.5 155.5 L 135.0 154.0 " stroke="black" fill="none" stroke-width="6.0" stroke-linecap="round" stroke-linejoin="round" />
<path d="M 135.5 142.0 L 135.5 142.0 L 135.5 141.5 L 135.5 141.5 L 135.5 141.5 L 136.0 141.5 L 136.5 141.5 L 138.0 141.5 L 140.5 141.5 L 144.5 141.0 L 148.5 141.0 L 152.0 141.0 L 154.5 141.0 L 156.0 141.0 L 158.0 141.0 L 160.0 141.0 L 161.5 141.0 L 163.0 141.0 L 163.5 141.0 L 164.5 141.5 L 165.0 141.5 L 166.0 141.5 L 167.0 141.5 L 167.5 141.5 L 168.5 141.5 L 168.5 141.5 L 169.0 141.5 L 169.5 141.5 L 169.5 141.5 L 169.5 141.5 L 169.5 141.5 L 169.5 141.5 L 169.5 141.5 L 169.5 141.5 L 169.5 141.5 L 169.5 141.5 L 169.5 141.5 L 169.5 141.5 L 169.5 141.5 L 169.5 141.5 L 169.5 141.5 L 169.5 141.5 L 170.0 141.5 L 170.0 141.5 L 170.0 141.5 L 170.5 141.5 L 170.5 141.5 L 170.5 141.5 L 170.5 141.5 L 170.5 141.5 L 171.0 141.5 L 171.0 141.5 L 171.0 141.5 L 171.0 141.5 L 171.0 141.5 L 171.0 141.5 L 171.0 142.0 L 171.0 142.5 L 170.5 143.0 L 170.0 144.0 L 170.0 145.0 L 169.5 146.0 L 169.0 147.5 L 168.5 149.0 L 168.5 150.0 L 168.0 151.5 L 167.5 153.0 L 167.0 154.0 L 167.0 155.0 L 166.0 156.5 L 165.5 157.5 L 164.5 159.0 L 164.0 160.5 L 163.0 161.5 L 162.0 163.0 L 161.0 164.5 L 160.0 165.5 L 159.0 166.5 L 158.0 167.5 L 157.0 168.5 L 156.0 169.5 L 154.5 171.0 L 153.5 172.0 L 152.0 172.5 L 151.5 173.5 L 150.5 173.5 L 150.0 174.0 L 149.5 174.0 L 149.0 174.5 L 148.5 174.5 L 148.5 175.0 L 148.0 175.0 L 148.0 175.0 L 147.5 175.0 L 147.5 175.0 L 147.0 175.5 L 147.0 175.5 L 146.5 175.5 L 146.5 175.5 L 146.0 176.0 L 145.5 176.0 L 145.5 176.0 L 145.0 176.0 L 144.5 176.0 L 144.5 176.5 L 144.0 176.5 L 144.0 176.5 L 144.0 176.5 L 143.5 176.5 L 143.5 176.5 L 143.5 176.5 L 143.5 176.5 " stroke="black" fill="none" stroke-width="6.0" stroke-linecap="round" stroke-linejoin="round" />
</svg>