<svg xmlns="http://www.w3.org/2000/svg" width="300" height="300" viewBox="0 0 300 300">
<path d="M 126.5 139.5 L 125.0 138.0 L 125.0 138.0 L 125.0 138.0 L 126.0 137.5 L 127.5 136.0 L 129.5 135.0 L 131.5 133.0 L 135.5 131.0 L 140.0 128.5 L 145.5 126.0 L 150.0 125.0 L 153.0 125.0 L 155.0 125.0 L 157.0 125.5 L 158.5 126.0 L 160.0 126.5 L 162.0 127.5 L 164.5 128.5 L 166.5 129.5 L 168.5 130.0 L 170.0 131.0 L 170.5 132.0 L 171.0 132.5 L 171.5 133.5 L 172.0 134.5 L 172.5 136.0 L 173.0 137.5 L 173.0 139.5 L 173.0 141.5 L 173.0 143.0 L 173.0 144.5 L 172.5 146.0 L 172.0 147.5 L 171.0 149.0 L 169.5 151.0 L 168.5 152.0 L 167.5 153.0 L 166.0 154.5 L 164.5 155.5 L 163.0 156.5 L 161.5 157.0 L 160.0 157.5 L 159.0 157.5 L 157.5 157.5 L 156.0 158.0 L 154.5 158.5 L 153.0 159.0 L 152.5 159.5 L 152.0 159.5 L 152.0 159.5 L 152.0 159.5 L 152.0 159.5 L 152.0 159.5 L 152.0 160.0 " stroke="black" fill="none" stroke-width="6.0" stroke-linecap="round" stroke-linejoin="round" />
</svg>