<svg xmlns="http://www.w3.org/2000/svg" width="300" height="300" viewBox="0 0 300 300">
<path d="M 173.5 138.0 L 173.5 138.5 L 173.5 138.5 L 173.5 138.5 L 173.5 138.5 L 173.5 138.5 L 173.5 138.5 L 173.5 138.5 L 172.0 140.0 L 167.5 143.5 L 159.5 149.5 L 152.0 155.0 L 147.5 158.5 L 144.0 160.5 L 142.5 161.0 L 142.0 161.0 L 141.5 160.0 " stroke="black" fill="none" stroke-width="6.0" stroke-linecap="round" stroke-linejoin="round" />
<path d="M 140.0 132.5 L 140.5 132.0 L 141.0 131.5 L 141.5 131.0 L 141.5 131.0 L 141.5 131.0 L 141.5 131.0 L 142.0 132.5 L 142.0 134.5 L 142.5 138.0 L 142.5 143.0 L 142.5 148.5 L 142.5 154.5 L 142.5 160.0 L 143.0 164.0 L 143.0 167.5 L 144.0 171.0 L 144.5 173.5 L 145.5 176.0 L 146.5 177.5 L 148.0 178.5 L 149.5 179.0 L 151.5 179.5 L 153.5 180.0 L 156.5 180.0 L 160.0 180.0 L 164.0 179.5 L 168.5 178.5 L 173.0 177.0 L 176.0 176.0 L 178.0 175.5 L 179.0 174.5 L 179.5 174.0 L 179.5 174.0 L 179.5 174.0 L 179.5 174.0 L 179.5 174.0 L 179.5 174.0 L 179.5 174.0 " stroke="black" fill="none" stroke-width="6.0" stroke-linecap="round" stroke-linejoin="round" />
</svg>