<svg xmlns="http://www.w3.org/2000/svg" width="300" height="300" viewBox="0 0 300 300">
<path d="M 150.5 130.0 L 150.5 130.0 L 150.5 129.5 L 150.5 129.5 L 150.5 129.0 L 150.5 128.5 L 150.5 128.5 L 150.5 128.5 L 150.5 129.5 L 149.0 131.5 L 147.5 134.5 L 145.0 139.0 L 142.5 143.0 L 139.5 147.0 L 137.5 149.5 L 136.0 150.5 L 135.0 151.0 L 135.0 151.5 L 134.5 151.5 L 134.5 151.5 L 134.5 152.0 L 134.0 152.0 L 134.0 152.5 L 134.0 153.0 L 134.0 153.0 L 134.0 153.5 L 134.5 154.5 L 135.5 155.0 L 137.0 156.0 L 139.0 157.5 L 141.5 159.0 L 144.0 162.0 L 146.5 165.0 L 148.0 167.5 L 149.5 169.0 L 150.0 169.5 L 150.5 170.0 L 151.0 170.5 L 151.5 170.5 " stroke="black" fill="none" stroke-width="6.0" stroke-linecap="round" stroke-linejoin="round" />
</svg>