<svg xmlns="http://www.w3.org/2000/svg" width="300" height="300" viewBox="0 0 300 300">
<path d="M 124.0 139.0 L 123.5 139.0 L 122.5 139.0 L 122.5 139.0 L 122.0 139.0 L 122.5 139.0 L 123.5 138.0 L 126.0 136.5 L 129.5 134.0 L 134.0 131.5 L 139.5 129.0 L 145.0 127.0 L 149.5 125.5 L 153.0 124.5 L 155.5 124.0 L 156.5 124.0 L 158.0 124.0 L 159.0 124.0 L 160.5 124.0 L 162.5 124.0 L 164.5 124.0 L 166.0 124.0 L 167.5 124.0 L 169.0 124.0 L 170.0 124.5 L 171.0 124.5 L 172.0 125.0 L 172.5 125.0 L 173.0 125.0 L 173.0 125.5 L 173.0 125.5 L 173.0 125.5 L 173.0 125.5 L 173.0 125.5 L 173.5 125.5 L 173.5 125.5 L 173.5 125.5 L 173.5 126.0 L 173.5 126.0 L 173.5 126.0 " stroke="black" fill="none" stroke-width="6.0" stroke-linecap="round" stroke-linejoin="round" />
<path d="M 171.0 127.5 L 171.0 127.0 L 171.0 127.0 L 171.0 126.5 L 171.0 126.0 L 171.0 126.0 L 170.5 125.5 L 169.5 125.0 L 168.5 125.0 L 167.5 125.0 L 166.5 125.0 L 164.5 125.0 L 163.0 125.5 L 161.0 126.5 L 159.0 127.5 L 157.0 128.5 L 155.0 130.0 L 153.5 131.0 L 152.5 131.5 L 152.0 132.0 L 151.5 133.0 L 150.5 135.0 L 149.5 137.0 L 148.5 139.5 L 147.5 141.0 L 147.0 143.0 L 147.0 144.5 L 147.0 146.0 L 147.0 147.5 L 147.0 149.5 L 147.0 151.0 L 147.5 152.5 L 148.0 154.5 L 149.0 156.0 L 150.5 157.5 L 151.5 159.0 L 153.5 160.0 L 155.5 161.5 L 157.5 163.0 L 160.0 164.0 L 162.5 165.0 L 165.0 165.0 L 166.5 165.0 L 167.5 165.0 L 168.0 164.0 L 168.5 163.5 " stroke="black" fill="none" stroke-width="6.0" stroke-linecap="round" stroke-linejoin="round" />
<path d="M 166.0 135.5 L 166.0 135.5 L 165.5 135.5 L 165.0 135.0 L 165.0 134.5 L 165.0 134.5 L 165.0 134.5 L 165.5 134.5 L 167.0 136.0 L 168.0 137.5 L 169.0 139.0 L 170.0 140.0 " stroke="black" fill="none" stroke-width="6.0" stroke-linecap="round" stroke-linejoin="round" />
<path d="M 175.5 135.5 L 175.5 135.5 L 175.5 135.5 L 175.5 135.5 L 176.0 135.0 L 176.0 135.0 L 176.5 135.0 L 177.5 135.5 L 178.5 137.0 L 179.5 138.5 " stroke="black" fill="none" stroke-width="6.0" stroke-linecap="round" stroke-linejoin="round" />
</svg>