<svg xmlns="http://www.w3.org/2000/svg" width="300" height="300" viewBox="0 0 300 300">
<path d="M 135.0 135.5 L 135.0 135.5 L 135.0 136.0 L 135.0 136.0 L 135.0 136.0 L 135.0 136.0 L 136.0 136.0 L 137.0 136.0 L 139.0 136.0 L 143.0 135.5 L 149.0 135.0 L 156.5 133.5 L 163.5 131.5 L 169.5 130.0 L 172.5 129.5 L 173.0 129.5 L 173.0 129.0 L 173.0 129.0 L 173.0 129.0 " stroke="black" fill="none" stroke-width="6.0" stroke-linecap="round" stroke-linejoin="round" />
<path d="M 150.5 123.0 L 150.5 123.0 L 151.0 122.5 L 151.0 121.5 L 151.0 121.0 L 151.5 120.5 L 151.5 120.0 L 151.5 120.0 L 151.5 121.5 L 151.5 124.5 L 150.5 128.5 L 149.5 133.5 L 148.5 139.5 L 146.5 144.5 L 145.0 149.0 L 143.5 152.0 L 142.5 154.5 L 141.5 156.5 L 141.5 157.5 L 141.0 158.0 L 140.5 158.5 L 140.0 159.5 L 140.0 160.0 L 139.5 160.5 L 139.5 160.5 L 139.5 160.5 L 139.5 160.5 L 139.5 160.5 L 139.5 160.5 L 139.5 160.5 " stroke="black" fill="none" stroke-width="6.0" stroke-linecap="round" stroke-linejoin="round" />
<path d="M 144.0 157.5 L 144.0 157.5 L 144.0 157.5 L 143.5 158.0 L 143.5 158.0 L 143.5 158.0 L 143.5 157.5 L 144.5 157.5 L 145.5 156.5 L 146.5 156.0 L 148.5 155.0 L 151.0 154.0 L 154.0 153.0 L 157.0 151.5 L 160.0 150.5 L 162.0 150.0 L 163.0 150.0 L 164.0 150.0 L 165.0 150.0 L 166.5 150.0 L 168.0 150.0 L 169.5 150.0 L 170.5 150.0 L 171.5 150.5 L 172.5 150.5 L 173.0 151.0 L 174.0 151.5 L 174.5 152.0 L 175.0 152.5 L 175.0 153.5 L 175.5 154.5 L 176.0 155.0 L 176.0 156.0 L 176.0 157.5 L 176.0 158.5 L 176.0 160.0 L 176.0 162.0 L 176.0 163.0 L 175.5 164.5 L 175.0 165.5 L 174.5 166.5 L 174.0 167.5 L 173.0 168.5 L 172.5 169.5 L 171.5 170.5 L 170.5 171.5 L 169.5 172.5 L 168.5 173.0 L 167.0 173.5 L 165.5 174.5 L 164.0 175.0 L 162.0 175.5 L 159.5 176.0 L 157.5 176.5 L 155.5 177.0 L 154.0 177.5 L 152.0 178.0 L 151.0 178.5 L 150.0 178.5 L 150.0 178.5 L 150.0 178.5 L 150.0 178.5 L 150.0 178.5 L 150.0 178.5 L 150.5 178.5 " stroke="black" fill="none" stroke-width="6.0" stroke-linecap="round" stroke-linejoin="round" />
</svg>