<svg xmlns="http://www.w3.org/2000/svg" width="300" height="300" viewBox="0 0 300 300">
<path d="M 129.0 114.0 L 129.0 113.5 L 129.0 113.0 L 129.0 113.0 L 129.0 112.5 L 129.0 112.5 L 129.0 112.5 L 129.0 114.0 L 129.0 117.0 L 129.0 122.0 L 129.0 129.5 L 129.5 137.0 L 130.0 143.5 L 130.0 149.0 L 130.0 154.5 L 130.0 159.5 L 130.0 163.5 L 130.0 167.0 L 130.0 170.5 L 130.0 173.5 L 130.0 176.0 L 130.0 178.0 L 130.0 178.5 L 130.0 178.5 L 130.0 177.0 L 130.0 175.0 " stroke="black" fill="none" stroke-width="6.0" stroke-linecap="round" stroke-linejoin="round" />
<path d="M 149.5 124.0 L 149.5 124.0 L 149.0 123.5 L 149.0 123.0 L 149.0 122.5 L 149.0 122.5 L 149.0 122.5 L 149.0 123.5 L 149.0 127.5 L 149.0 135.0 L 149.0 144.5 L 149.0 153.5 L 149.0 159.5 L 149.0 163.0 L 149.0 164.0 L 149.5 163.5 L 149.5 161.0 " stroke="black" fill="none" stroke-width="6.0" stroke-linecap="round" stroke-linejoin="round" />
<path d="M 166.5 106.0 L 166.0 105.5 L 166.0 105.0 L 165.5 105.0 L 165.5 104.5 L 165.5 104.5 L 165.5 104.5 L 165.5 104.5 L 165.5 105.5 L 166.0 108.0 L 166.0 111.5 L 166.5 116.5 L 166.5 121.5 L 166.5 127.0 L 166.5 132.0 L 166.5 136.0 L 167.0 140.0 L 167.0 143.5 L 167.0 147.5 L 167.0 151.5 L 167.0 155.0 L 167.0 158.0 L 167.0 160.0 L 167.0 162.5 L 167.0 164.5 L 167.0 166.0 L 167.0 168.0 L 167.5 169.5 L 167.5 171.0 L 167.5 172.5 L 167.5 174.0 L 167.5 175.5 L 167.5 176.5 L 167.5 177.5 L 167.5 178.5 L 167.5 179.5 L 168.0 180.5 L 168.0 181.0 L 168.0 182.0 L 168.0 182.5 L 168.0 183.0 L 168.0 184.0 L 168.0 184.5 L 168.0 185.0 L 168.0 185.5 L 168.0 185.5 L 168.0 185.5 L 168.0 185.0 " stroke="black" fill="none" stroke-width="6.0" stroke-linecap="round" stroke-linejoin="round" />
</svg>