<svg xmlns="http://www.w3.org/2000/svg" width="300" height="300" viewBox="0 0 300 300">
<path d="M 136.0 143.5 L 136.0 143.5 L 136.5 143.5 L 137.0 143.0 L 137.0 143.0 L 138.0 145.0 L 139.0 147.0 L 140.5 149.5 L 141.5 151.5 L 143.0 153.0 L 143.5 154.0 " stroke="black" fill="none" stroke-width="6.0" stroke-linecap="round" stroke-linejoin="round" />
<path d="M 171.5 135.0 L 171.5 136.5 L 171.5 137.0 L 171.5 137.0 L 171.5 137.0 L 171.5 137.0 L 171.5 137.0 L 171.5 137.5 L 171.0 138.5 L 171.0 140.0 L 170.5 142.5 L 169.0 147.0 L 167.0 152.5 L 164.5 157.5 L 162.0 162.5 L 159.0 167.5 L 155.5 171.5 L 151.5 175.0 L 148.0 178.0 L 145.5 180.0 L 143.5 181.5 L 142.0 182.0 L 141.5 182.5 L 141.5 182.5 L 142.5 182.0 " stroke="black" fill="none" stroke-width="6.0" stroke-linecap="round" stroke-linejoin="round" />
</svg>