<svg xmlns="http://www.w3.org/2000/svg" width="300" height="300" viewBox="0 0 300 300">
<path d="M 147.0 137.0 L 146.0 138.0 L 145.5 138.5 L 145.5 138.5 L 145.5 139.0 L 145.5 140.5 L 145.5 143.5 L 144.0 149.0 L 140.0 157.0 L 136.0 166.0 L 134.5 170.5 L 134.0 170.0 " stroke="black" fill="none" stroke-width="6.0" stroke-linecap="round" stroke-linejoin="round" />
<path d="M 166.0 132.5 L 165.5 132.5 L 165.0 132.5 L 164.5 132.5 L 164.5 133.5 L 166.5 137.5 L 170.5 146.0 L 175.5 159.0 L 180.5 169.5 L 183.5 175.5 L 184.0 176.0 " stroke="black" fill="none" stroke-width="6.0" stroke-linecap="round" stroke-linejoin="round" />
<path d="M 180.0 119.0 L 180.0 119.0 L 180.0 119.0 L 180.0 119.0 L 180.0 119.0 L 179.5 119.0 L 178.5 119.0 L 177.5 119.0 L 176.5 121.0 L 175.0 124.5 L 175.0 129.0 L 176.0 132.0 L 177.5 133.5 L 180.0 133.5 L 182.0 131.5 L 183.5 129.0 L 183.5 125.5 L 183.5 122.5 L 183.5 120.5 L 182.5 120.0 L 182.0 119.5 L 181.5 119.5 " stroke="black" fill="none" stroke-width="6.0" stroke-linecap="round" stroke-linejoin="round" />
</svg>