<svg xmlns="http://www.w3.org/2000/svg" width="300" height="300" viewBox="0 0 300 300">
<path d="M 123.0 151.5 L 123.0 151.5 L 122.0 151.5 L 121.0 151.5 L 120.5 151.5 L 120.5 151.5 L 122.0 151.5 L 126.0 150.5 L 131.5 149.5 L 140.0 148.0 L 148.5 147.5 L 155.0 147.0 L 160.0 147.0 L 164.5 147.0 L 168.0 147.0 L 170.5 148.0 L 172.0 149.0 L 173.5 149.5 L 173.5 149.5 L 174.0 149.5 L 174.0 149.5 L 174.0 149.0 L 173.5 149.0 " stroke="black" fill="none" stroke-width="6.0" stroke-linecap="round" stroke-linejoin="round" />
<path d="M 160.0 124.5 L 160.0 124.5 L 160.0 124.5 L 160.0 124.0 L 160.0 124.0 L 160.0 124.0 L 160.0 124.0 L 160.0 125.0 L 160.0 127.5 L 160.0 131.5 L 159.5 136.5 L 159.5 142.5 L 159.0 148.0 L 158.0 153.5 L 157.5 163.5 L 156.5 166.5 L 156.0 169.0 L 155.5 170.5 L 155.0 172.5 L 154.0 174.0 L 152.5 175.0 L 151.5 176.0 L 149.5 176.0 L 147.5 175.5 L 145.0 174.0 L 143.5 172.5 L 143.0 171.0 L 143.0 170.5 " stroke="black" fill="none" stroke-width="6.0" stroke-linecap="round" stroke-linejoin="round" />
<path d="M 132.0 130.5 L 132.0 130.5 L 132.5 130.5 L 132.5 130.5 L 132.5 130.5 L 132.5 131.0 L 132.5 132.5 L 132.5 135.5 L 132.5 139.5 L 132.5 144.5 L 132.0 150.0 L 132.0 155.5 L 132.0 160.5 L 132.0 164.0 L 132.0 167.0 L 132.0 169.5 L 132.0 172.0 L 132.0 174.5 L 132.0 176.5 L 132.0 178.0 L 132.5 180.0 L 132.5 182.5 L 133.0 184.5 L 133.0 187.0 L 134.0 188.5 L 135.0 190.0 L 137.0 190.5 L 139.5 191.5 L 142.5 191.5 L 146.0 192.0 L 149.0 192.0 L 153.0 191.0 L 156.5 190.0 L 159.5 189.0 L 162.5 188.5 L 163.5 188.0 L 164.0 187.5 " stroke="black" fill="none" stroke-width="6.0" stroke-linecap="round" stroke-linejoin="round" />
<path d="M 171.0 126.0 L 171.0 126.0 L 171.0 125.5 L 171.0 125.5 L 171.5 126.0 L 172.0 128.0 L 173.0 130.5 L 174.0 133.5 L 174.5 135.0 " stroke="black" fill="none" stroke-width="6.0" stroke-linecap="round" stroke-linejoin="round" />
<path d="M 182.0 124.0 L 182.0 124.0 L 182.0 124.0 L 182.0 124.0 L 182.0 125.0 L 182.5 128.0 L 183.5 131.5 L 185.0 135.0 " stroke="black" fill="none" stroke-width="6.0" stroke-linecap="round" stroke-linejoin="round" />
</svg>