<svg xmlns="http://www.w3.org/2000/svg" width="300" height="300" viewBox="0 0 300 300">
<path d="M 134.5 135.5 L 134.5 135.5 L 134.5 136.0 L 134.0 136.5 L 134.0 136.5 L 134.0 136.5 L 134.0 136.5 L 134.0 136.5 L 134.0 136.5 L 135.0 136.5 L 138.0 136.5 L 143.0 136.5 L 149.0 136.0 L 154.0 135.5 L 158.0 134.5 L 161.5 134.0 L 163.5 133.5 L 164.0 133.5 L 164.0 133.5 L 164.0 133.5 L 164.0 133.5 L 164.0 133.5 L 164.0 133.5 L 164.0 133.5 L 164.0 134.0 L 164.5 134.0 L 165.0 134.0 L 165.0 134.0 " stroke="black" fill="none" stroke-width="6.0" stroke-linecap="round" stroke-linejoin="round" />
<path d="M 151.5 137.5 L 151.5 137.5 L 151.5 137.5 L 151.0 138.0 L 151.0 138.5 L 151.0 139.5 L 151.0 142.0 L 151.5 146.0 L 152.0 150.5 L 152.0 154.0 L 152.0 156.0 L 152.0 157.0 L 152.0 157.0 " stroke="black" fill="none" stroke-width="6.0" stroke-linecap="round" stroke-linejoin="round" />
<path d="M 129.0 163.0 L 128.5 163.0 L 128.5 163.5 L 128.0 163.5 L 128.0 163.5 L 127.5 163.5 L 127.5 163.5 L 127.5 163.5 L 128.5 163.5 L 131.0 163.5 L 135.5 163.5 L 142.5 162.5 L 149.5 161.0 L 156.5 160.0 L 162.5 160.0 L 167.0 159.5 L 169.5 159.5 L 170.5 159.5 L 171.0 160.0 L 171.0 160.0 L 171.0 160.0 L 171.0 160.0 L 171.0 160.0 L 171.0 160.0 L 171.0 160.0 L 171.0 160.0 " stroke="black" fill="none" stroke-width="6.0" stroke-linecap="round" stroke-linejoin="round" />
</svg>