<svg xmlns="http://www.w3.org/2000/svg" width="300" height="300" viewBox="0 0 300 300">
<path d="M 135.5 125.0 L 135.5 125.0 L 135.5 125.0 L 135.5 125.0 L 135.0 125.0 L 135.0 125.0 L 135.0 125.0 L 135.0 125.0 L 136.0 125.0 L 138.5 125.0 L 143.0 125.0 L 149.5 123.0 L 156.0 121.5 L 160.5 121.0 L 164.5 121.0 L 167.5 121.0 L 170.0 121.5 L 171.5 121.5 L 173.0 121.0 L 173.0 121.0 L 173.0 121.0 L 173.0 121.0 L 173.0 121.0 L 173.0 121.0 L 172.5 121.0 L 172.5 121.0 L 172.5 121.0 L 172.5 121.0 L 172.5 121.0 L 172.5 121.0 L 172.5 121.5 L 172.0 122.5 L 171.0 124.5 L 169.5 128.0 L 167.5 131.5 L 165.5 135.0 L 163.0 139.0 L 161.5 141.5 L 161.0 142.5 L 161.0 142.5 L 161.0 142.5 L 162.0 142.5 L 162.5 142.0 " stroke="black" fill="none" stroke-width="6.0" stroke-linecap="round" stroke-linejoin="round" />
<path d="M 146.5 138.0 L 146.5 138.0 L 146.5 138.0 L 146.0 138.0 L 146.0 138.0 L 146.0 138.0 L 146.0 138.0 L 146.0 138.0 L 147.0 139.5 L 147.5 142.5 L 148.0 146.5 L 148.5 151.5 L 148.5 155.5 L 148.5 157.5 L 148.5 159.0 L 149.0 159.5 L 149.0 159.5 " stroke="black" fill="none" stroke-width="6.0" stroke-linecap="round" stroke-linejoin="round" />
<path d="M 130.5 166.0 L 130.5 166.0 L 131.0 166.0 L 131.0 166.0 L 131.0 166.0 L 131.0 166.0 L 132.0 166.0 L 134.0 165.5 L 139.0 165.0 L 146.0 164.5 L 152.0 164.0 L 156.5 164.0 L 160.5 164.5 L 164.0 164.5 L 167.5 164.0 L 170.0 163.5 L 171.0 163.0 L 171.0 163.0 L 171.0 163.0 L 171.0 163.0 L 170.5 163.0 " stroke="black" fill="none" stroke-width="6.0" stroke-linecap="round" stroke-linejoin="round" />
</svg>