<svg xmlns="http://www.w3.org/2000/svg" width="300" height="300" viewBox="0 0 300 300">
<path d="M 170.0 109.5 L 169.5 109.5 L 169.5 109.0 L 169.0 108.0 L 169.0 108.0 L 169.0 107.5 L 169.0 107.5 L 169.0 108.5 L 169.5 111.0 L 169.5 114.0 L 169.5 118.5 L 169.5 124.0 L 169.5 129.0 L 169.5 133.5 L 169.5 137.0 L 169.5 140.5 L 169.5 144.0 L 169.5 147.0 L 169.5 150.5 L 169.5 154.5 L 169.5 158.0 L 169.5 160.5 L 169.5 163.5 L 169.5 167.0 L 169.5 170.0 L 170.0 173.0 L 170.0 175.5 L 170.5 177.5 L 170.5 179.5 L 170.5 181.5 L 170.5 184.0 L 170.5 187.5 L 170.5 190.5 L 170.5 192.5 L 170.5 194.5 L 170.5 197.0 L 170.5 199.5 L 170.5 201.0 L 170.5 202.0 L 170.5 202.0 L 171.0 201.5 L 171.0 199.0 " stroke="black" fill="none" stroke-width="7.0" stroke-linecap="round" stroke-linejoin="round" />
<path d="M 172.0 105.5 L 171.5 105.5 L 171.0 105.5 L 170.5 105.5 L 170.0 105.5 L 170.0 105.5 L 170.0 105.5 L 170.0 105.5 L 171.0 105.5 L 172.0 105.5 L 173.5 105.5 L 174.5 105.5 L 176.0 105.5 L 177.5 105.5 L 179.0 105.5 L 180.5 105.5 L 181.5 105.5 L 182.5 105.5 L 184.0 105.5 L 185.5 105.5 L 187.0 105.5 L 188.5 105.5 L 189.5 105.5 L 190.0 105.5 L 190.5 105.5 L 191.0 105.5 L 191.0 105.5 L 191.5 105.5 L 191.5 105.5 L 192.0 105.5 L 192.0 105.5 L 192.0 105.5 L 192.0 105.5 L 192.0 105.5 L 192.0 105.5 L 192.0 105.5 L 192.0 105.5 L 191.5 105.5 L 191.0 106.5 L 190.0 107.0 L 189.0 108.0 L 188.0 109.0 L 187.5 110.5 L 186.5 111.5 L 186.0 113.0 L 185.5 114.0 L 185.0 115.0 L 184.0 116.5 L 183.5 117.5 L 183.0 118.5 L 183.0 119.5 L 182.5 120.5 L 182.0 121.5 L 181.5 123.0 L 181.0 124.0 L 180.5 125.5 L 180.5 126.5 L 180.0 127.5 L 180.0 129.0 L 179.5 130.0 L 179.5 131.5 L 179.0 132.5 L 179.0 133.5 L 179.0 135.0 L 179.0 136.0 L 179.0 137.5 L 179.0 139.0 L 179.0 140.0 L 178.5 141.5 L 178.5 143.5 L 178.5 145.0 L 178.5 146.5 L 178.5 148.5 L 178.0 150.0 L 178.0 152.0 L 178.0 154.0 L 177.5 155.5 L 177.5 157.0 L 177.5 158.5 L 177.5 160.0 L 177.5 161.5 L 177.5 163.0 L 177.5 164.0 L 177.5 165.5 L 177.5 167.0 L 177.5 168.0 L 177.5 170.0 L 177.5 171.5 L 177.5 173.0 L 177.5 174.0 L 178.0 175.0 L 178.0 176.0 L 178.5 177.0 L 178.5 178.0 L 179.0 179.0 L 179.5 180.0 L 179.5 181.5 L 180.0 182.5 L 180.5 183.5 L 180.5 184.5 L 181.0 185.5 L 181.5 186.5 L 182.0 187.0 L 182.5 188.0 L 182.5 188.5 L 183.0 189.0 L 183.5 190.0 L 184.0 190.5 L 184.0 191.0 L 184.5 191.5 L 185.0 192.0 L 185.0 192.5 L 185.5 193.0 L 186.0 193.5 L 186.0 194.0 L 186.5 194.0 L 186.5 194.5 L 186.5 194.5 L 187.0 195.0 L 187.0 195.0 L 187.5 195.5 L 187.5 195.5 L 187.5 195.5 L 188.0 196.0 L 188.0 196.5 L 188.0 196.5 L 188.5 197.0 L 188.5 197.0 L 189.0 197.5 L 189.0 197.5 L 189.0 197.5 L 189.5 198.0 L 189.5 198.0 L 189.5 198.0 L 189.5 198.5 L 190.0 198.5 L 190.0 198.5 L 190.0 198.5 L 190.0 198.5 L 190.5 199.0 L 190.5 199.0 L 190.5 199.0 L 190.5 199.0 L 190.5 199.0 L 190.5 199.0 L 190.5 199.0 L 190.5 199.0 L 190.5 199.0 L 190.5 199.0 L 190.5 199.0 L 190.5 199.0 L 190.5 199.0 L 190.5 199.0 L 190.0 199.0 L 189.5 199.5 L 189.0 199.5 L 188.0 199.5 L 187.0 199.5 L 186.5 199.5 L 185.5 199.5 L 185.0 199.5 L 184.0 199.5 L 183.0 199.5 L 182.5 199.5 L 181.5 199.5 L 180.5 200.0 L 179.0 200.0 L 178.0 200.5 L 177.5 200.5 L 176.5 200.5 L 176.0 200.5 L 175.5 200.5 L 175.5 200.5 L 175.0 200.5 L 175.0 200.5 L 175.0 200.5 L 175.0 200.5 L 175.0 200.5 L 175.5 200.5 L 175.5 200.0 L 175.5 198.5 L 175.5 195.5 L 175.5 191.5 L 175.5 188.0 L 175.5 184.5 L 175.5 180.5 L 175.5 177.5 L 175.5 174.5 L 175.5 172.5 L 175.5 169.5 L 175.0 167.0 L 175.0 163.0 L 175.0 158.5 L 175.0 155.0 L 175.0 151.0 L 175.0 147.0 L 175.0 143.0 L 175.5 139.0 L 175.5 134.5 L 176.0 131.5 L 176.0 128.0 L 176.0 125.0 L 176.0 122.0 L 176.0 118.5 L 176.0 115.5 L 176.0 113.5 L 176.0 112.5 L 175.5 112.0 L 175.5 111.5 L 175.5 111.5 L 175.5 111.0 L 175.5 111.0 L 175.5 111.0 L 175.5 111.0 L 175.5 111.0 L 175.5 111.0 L 175.5 111.0 L 175.5 111.0 L 175.5 111.0 L 175.5 111.0 L 175.5 111.0 L 175.5 111.0 L 175.5 111.0 L 175.5 111.0 L 175.5 111.0 L 175.5 111.0 L 176.0 111.0 L 176.5 110.5 L 177.0 110.5 L 178.0 110.5 L 179.5 110.5 L 180.5 110.5 L 181.5 110.5 L 182.5 111.0 L 183.5 111.0 L 184.0 111.0 L 184.5 111.5 L 185.0 111.5 L 185.5 111.5 L 185.5 111.5 L 186.0 111.5 L 186.0 111.5 L 186.0 111.5 L 186.5 111.5 L 186.5 111.5 L 186.5 111.5 L 186.5 111.5 L 186.5 111.5 L 186.5 111.5 L 186.5 111.5 L 186.0 111.5 L 185.5 112.5 L 184.0 114.5 L 182.5 117.0 L 180.5 120.0 L 179.5 122.5 L 178.5 125.0 L 178.0 126.5 L 178.0 127.5 L 177.5 128.5 L 177.5 129.0 L 177.5 130.0 L 177.5 130.5 L 177.5 131.5 L 177.5 133.0 L 177.5 134.5 L 177.5 137.0 L 177.0 140.0 L 177.0 143.0 L 177.0 146.0 L 176.5 149.0 L 176.5 151.0 L 176.5 154.0 L 176.5 156.5 L 176.5 159.5 L 176.5 162.5 L 176.5 165.0 L 176.5 167.5 L 176.5 170.5 L 177.0 173.0 L 177.0 175.5 L 177.5 177.5 L 177.5 179.5 L 177.5 181.0 L 177.5 183.0 L 178.0 184.5 L 178.0 186.5 L 178.5 187.5 L 178.5 188.5 L 179.0 189.5 L 179.0 190.5 L 179.0 191.5 L 179.5 192.5 L 179.5 193.0 L 179.5 193.5 L 180.0 194.0 L 180.0 194.0 L 180.5 194.0 L 181.0 194.5 L 181.5 194.5 L 182.0 194.5 L 182.5 195.0 L 182.5 195.0 L 183.0 195.5 L 183.0 195.5 L 183.5 195.5 L 184.0 195.5 L 184.5 196.0 L 185.0 196.0 L 185.0 196.0 L 185.5 196.0 L 185.5 196.0 L 186.0 196.0 L 186.0 196.0 " stroke="black" fill="none" stroke-width="7.0" stroke-linecap="round" stroke-linejoin="round" />
</svg>