<svg xmlns="http://www.w3.org/2000/svg" width="300" height="300" viewBox="0 0 300 300">
<path d="M 137.0 158.0 L 137.0 158.5 L 137.0 159.0 L 137.0 159.5 L 137.0 159.5 L 139.5 158.5 L 145.0 156.5 L 152.5 153.0 L 160.0 150.5 L 165.5 148.0 L 167.5 147.0 L 167.5 147.0 L 167.0 147.0 L 167.0 147.0 " stroke="black" fill="none" stroke-width="6.0" stroke-linecap="round" stroke-linejoin="round" />
<path d="M 132.5 144.5 L 132.5 144.0 L 133.0 143.5 L 133.5 143.0 L 134.0 142.5 L 134.0 142.5 L 134.0 142.5 L 134.0 142.5 L 134.0 143.0 L 134.0 144.5 L 134.0 147.0 L 134.0 150.5 L 134.0 155.0 L 133.5 159.5 L 133.5 164.0 L 133.5 167.5 L 133.5 170.5 L 134.5 173.0 L 135.0 174.0 L 136.0 175.0 L 137.0 176.0 L 138.0 177.0 L 139.0 178.5 L 140.5 179.0 L 142.0 180.0 L 144.0 180.0 L 146.5 180.0 L 149.0 180.0 L 152.0 179.5 L 156.0 178.5 L 159.5 178.0 L 164.0 177.0 L 167.5 176.5 L 169.5 176.5 L 171.0 176.0 L 171.0 176.0 L 171.0 176.0 L 171.0 176.0 L 171.0 176.0 L 171.0 176.0 L 171.0 176.0 " stroke="black" fill="none" stroke-width="6.0" stroke-linecap="round" stroke-linejoin="round" />
<path d="M 172.0 134.0 L 172.0 134.0 L 171.5 134.0 L 171.0 134.0 L 171.0 133.5 L 170.5 133.5 L 170.5 133.0 L 170.0 133.0 L 169.5 133.0 L 169.0 133.0 L 168.5 134.0 L 168.5 135.5 L 168.5 137.0 L 168.5 139.0 L 169.5 140.5 L 171.0 141.5 L 172.0 142.0 L 173.5 142.0 L 175.0 140.5 L 175.5 138.5 L 175.5 136.5 L 175.5 134.5 L 175.0 133.5 L 174.0 133.0 L 173.0 132.5 L 172.5 132.5 L 172.5 133.0 " stroke="black" fill="none" stroke-width="6.0" stroke-linecap="round" stroke-linejoin="round" />
</svg>