<svg xmlns="http://www.w3.org/2000/svg" width="300" height="300" viewBox="0 0 300 300">
<path d="M 185.0 106.5 L 185.0 106.5 L 185.0 106.5 L 185.0 106.5 L 185.0 106.0 L 185.0 106.0 L 185.0 106.0 L 185.0 106.0 L 185.5 106.0 L 185.5 106.0 L 185.5 106.0 L 185.5 107.5 L 185.5 110.0 L 185.5 113.0 L 185.5 117.0 L 185.5 121.0 L 185.0 124.5 L 185.0 128.0 L 185.0 130.5 L 185.0 133.0 L 185.0 135.5 L 185.0 138.0 L 185.0 141.0 L 185.0 144.5 L 184.5 147.5 L 184.5 151.5 L 184.5 155.0 L 184.5 158.0 L 184.5 161.5 L 184.5 164.5 L 184.5 168.0 L 184.5 171.0 L 184.5 174.0 L 184.5 176.5 L 184.5 178.5 L 185.0 180.5 L 185.0 182.0 L 185.0 183.5 L 185.0 185.5 L 185.0 186.5 L 185.0 188.0 L 185.0 189.0 L 185.0 189.5 L 185.0 190.0 L 185.5 191.0 L 185.5 192.0 L 185.5 193.0 L 185.5 194.0 L 185.5 194.5 L 185.5 195.5 L 185.5 196.5 L 185.5 197.5 L 185.5 198.0 L 185.5 198.5 L 185.5 198.5 L 185.5 199.0 L 185.5 199.0 L 185.5 199.0 L 185.5 199.0 L 185.5 199.0 L 186.0 199.0 L 186.0 199.0 L 186.0 199.0 L 186.0 199.0 L 186.5 199.0 L 187.0 199.0 L 188.0 199.0 L 189.5 199.0 L 191.0 199.0 L 192.5 199.0 L 194.5 199.0 L 196.0 199.0 L 198.0 199.5 L 199.5 199.5 L 200.5 199.5 L 202.0 199.5 L 203.0 199.5 L 204.0 200.0 L 205.0 200.0 L 206.0 200.0 L 206.5 200.0 L 207.0 200.0 L 207.0 200.0 L 207.0 200.0 L 207.0 200.0 L 207.0 200.0 L 206.5 200.0 " stroke="black" fill="none" stroke-width="7.0" stroke-linecap="round" stroke-linejoin="round" />
<path d="M 188.0 103.5 L 187.0 104.0 L 186.0 104.5 L 186.0 104.5 L 186.0 104.5 L 186.5 104.5 L 187.5 104.5 L 188.0 104.0 L 189.0 104.0 L 190.5 104.0 L 191.5 104.0 L 192.5 104.0 L 194.0 104.0 L 195.0 104.0 L 196.5 104.0 L 198.0 104.5 L 199.0 104.5 L 200.5 105.0 L 202.0 105.0 L 203.0 105.5 L 204.0 105.5 L 204.5 106.0 L 205.0 106.0 L 205.5 106.5 L 206.0 106.5 L 206.5 106.5 L 207.0 106.5 L 207.0 106.5 L 208.0 106.5 L 208.5 106.5 L 209.0 106.5 L 209.0 106.5 L 209.5 106.5 L 209.5 106.5 " stroke="black" fill="none" stroke-width="7.0" stroke-linecap="round" stroke-linejoin="round" />
<path d="M 196.0 107.0 L 196.0 107.0 L 196.5 107.0 L 196.5 107.0 L 196.5 107.0 L 197.0 107.5 L 197.0 108.0 L 197.0 109.0 L 197.0 110.5 L 197.0 113.0 L 197.0 116.0 L 197.0 118.5 L 197.0 121.5 L 197.0 123.5 L 197.0 125.5 L 197.0 128.0 L 197.0 130.0 L 197.0 132.0 L 197.0 133.5 L 197.0 135.0 L 197.0 136.5 L 197.0 138.5 L 197.0 140.0 L 197.0 141.5 L 197.0 143.5 L 197.0 144.5 L 197.0 146.5 L 197.0 148.0 L 197.0 149.5 L 197.0 151.0 L 197.0 152.5 L 197.0 154.0 L 197.0 155.5 L 197.0 156.5 L 197.0 158.0 L 197.0 159.5 L 197.0 161.0 L 197.0 162.5 L 197.0 164.0 L 197.0 166.0 L 197.0 167.0 L 197.0 168.5 L 197.0 170.5 L 197.0 172.0 L 196.5 173.5 L 196.5 175.0 L 196.5 176.0 L 196.5 177.5 L 196.5 179.0 L 196.5 180.5 L 196.5 181.5 L 196.5 183.0 L 196.5 184.0 L 196.5 185.5 L 197.0 186.5 L 197.0 188.0 L 197.0 189.0 L 197.0 190.5 L 197.0 191.5 L 197.0 193.0 L 197.0 194.5 L 197.0 195.5 L 197.0 196.5 L 197.0 197.5 L 197.0 197.5 L 197.0 198.0 L 197.0 198.0 L 197.0 198.0 L 197.0 198.5 L 197.5 200.0 " stroke="black" fill="none" stroke-width="7.0" stroke-linecap="round" stroke-linejoin="round" />
</svg>