<svg xmlns="http://www.w3.org/2000/svg" width="300" height="300" viewBox="0 0 300 300">
<path d="M 130.5 132.5 L 130.5 132.5 L 130.5 133.0 L 130.0 133.0 L 129.5 133.0 L 129.0 133.0 L 129.0 133.0 L 129.0 133.0 L 130.5 133.0 L 133.5 132.5 L 137.0 131.5 L 141.5 130.0 L 144.5 129.0 L 147.0 128.0 L 148.5 127.5 L 149.0 127.0 L 150.0 127.0 L 150.5 126.5 L 151.0 126.5 L 151.5 126.0 L 152.0 126.0 L 152.5 126.0 L 152.5 126.0 L 153.0 126.0 L 153.0 126.0 L 153.5 126.0 L 153.5 126.0 L 153.5 126.0 L 153.5 126.0 L 153.5 126.0 L 153.5 126.0 L 153.5 126.0 L 153.5 126.5 L 153.5 127.0 L 153.5 128.5 L 153.0 130.5 L 152.0 133.5 L 151.5 136.5 L 151.0 140.5 L 150.5 143.5 L 150.0 147.0 L 149.5 149.5 L 149.0 152.0 L 148.5 154.0 L 148.0 156.0 L 147.0 158.0 L 146.0 160.5 L 144.5 163.0 L 143.5 165.5 L 142.0 167.5 L 141.0 168.5 L 140.0 169.5 L 139.0 170.0 L 138.5 170.5 L 137.5 170.5 L 136.5 170.5 L 136.0 170.5 L 135.0 170.0 L 134.0 169.5 L 133.5 168.5 L 132.5 167.0 L 132.0 165.5 L 131.5 164.0 L 131.5 163.0 L 131.5 161.0 L 132.0 159.5 L 132.5 158.0 L 133.0 156.5 L 134.0 155.0 L 135.5 154.0 L 137.0 152.5 L 139.0 151.0 L 141.0 150.0 L 143.5 148.5 L 145.5 147.5 L 147.5 146.5 L 150.0 145.5 L 152.0 145.0 L 154.0 144.5 L 156.0 143.5 L 158.5 143.5 L 160.5 143.0 L 162.5 143.0 L 164.0 143.5 L 165.0 144.0 L 166.0 144.5 L 166.5 145.0 L 167.5 145.5 L 168.5 146.5 L 169.5 147.0 L 170.0 148.0 L 170.5 148.5 L 171.0 149.5 L 171.0 150.5 L 171.5 151.5 L 171.5 153.0 L 171.5 154.0 L 171.5 155.5 L 171.5 157.0 L 172.0 158.5 L 172.0 160.5 L 172.0 162.0 L 172.0 164.0 L 172.0 165.5 L 171.5 167.5 L 171.0 169.0 L 171.0 170.5 L 170.5 172.0 L 170.0 173.0 L 169.5 174.5 L 169.0 175.5 L 168.5 177.0 L 168.0 178.0 L 167.0 179.0 L 166.5 180.0 L 165.5 180.5 L 164.5 181.0 L 163.5 182.0 L 162.5 182.5 L 161.5 183.0 L 160.0 183.5 L 158.5 183.5 L 157.5 184.0 L 156.5 184.0 L 155.5 184.0 L 154.5 184.0 L 153.5 183.5 L 153.0 183.0 L 152.5 182.5 L 152.0 181.5 L 152.0 181.0 L 151.5 180.0 L 151.5 179.0 L 151.5 178.0 L 151.5 177.5 L 151.5 177.0 L 152.0 176.0 L 152.5 175.0 L 153.5 174.5 L 154.5 174.0 L 155.5 173.5 L 157.0 173.0 L 159.0 172.5 L 160.5 172.0 L 162.5 172.0 L 164.0 172.0 L 165.0 172.0 L 166.5 172.5 L 167.5 173.0 L 168.5 173.5 L 169.5 174.0 L 170.5 174.5 L 171.0 174.5 L 171.0 175.0 L 171.0 175.5 " stroke="black" fill="none" stroke-width="6.0" stroke-linecap="round" stroke-linejoin="round" />
</svg>