<svg xmlns="http://www.w3.org/2000/svg" width="300" height="300" viewBox="0 0 300 300">
<path d="M 133.0 136.0 L 133.0 136.0 L 133.0 137.0 L 133.0 137.5 L 133.0 137.5 L 133.5 137.5 L 135.5 137.5 L 138.5 137.0 L 143.5 136.5 L 149.0 136.0 L 154.0 136.0 L 157.5 135.5 L 160.0 135.5 L 161.0 135.5 L 162.0 135.5 L 162.0 135.5 L 162.5 135.5 L 162.5 135.5 L 163.0 135.5 " stroke="black" fill="none" stroke-width="6.0" stroke-linecap="round" stroke-linejoin="round" />
<path d="M 149.5 140.0 L 149.5 140.0 L 149.5 139.5 L 149.5 139.0 L 149.5 139.0 L 149.5 139.0 L 150.0 141.0 L 150.0 146.0 L 150.0 153.0 L 150.0 159.0 L 150.5 163.0 L 151.5 164.5 L 151.5 164.5 " stroke="black" fill="none" stroke-width="6.0" stroke-linecap="round" stroke-linejoin="round" />
<path d="M 129.5 168.0 L 129.5 168.0 L 129.5 168.0 L 129.5 168.5 L 129.5 168.5 L 129.5 168.5 L 130.0 168.5 L 131.5 169.0 L 134.0 169.0 L 139.5 169.0 L 148.0 168.5 L 156.0 167.5 L 163.0 167.5 L 168.0 167.5 L 171.0 168.5 L 172.5 169.5 L 172.5 169.5 L 172.5 169.5 " stroke="black" fill="none" stroke-width="6.0" stroke-linecap="round" stroke-linejoin="round" />
</svg>