<svg xmlns="http://www.w3.org/2000/svg" width="300" height="300" viewBox="0 0 300 300">
<path d="M 133.0 125.0 L 132.5 125.0 L 132.0 125.0 L 131.5 125.0 L 131.5 125.0 L 131.5 125.0 L 131.5 125.0 L 134.0 125.0 L 137.5 125.0 L 142.5 124.5 L 148.5 124.0 L 155.0 123.5 L 161.0 122.5 L 166.0 122.0 L 170.0 121.5 L 173.0 121.0 L 174.5 121.0 L 175.5 121.5 L 176.0 121.5 L 176.5 122.0 L 176.5 122.0 L 177.0 122.5 L 177.5 123.0 L 178.5 123.5 L 179.5 124.5 L 180.5 126.5 L 181.5 128.5 L 182.5 131.5 L 183.5 135.0 L 183.5 140.0 L 184.0 145.0 L 183.5 149.5 L 182.0 153.5 L 180.0 157.0 L 177.5 159.5 L 174.5 160.5 L 172.5 161.0 L 171.0 160.5 L 171.0 159.5 " stroke="black" fill="none" stroke-width="6.0" stroke-linecap="round" stroke-linejoin="round" />
<path d="M 151.5 111.5 L 151.5 111.5 L 151.0 112.0 L 151.0 112.0 L 151.0 112.5 L 151.0 113.5 L 151.0 115.5 L 151.5 119.5 L 151.5 126.0 L 151.5 134.0 L 150.5 141.0 L 149.0 146.5 L 148.0 150.0 L 146.0 153.0 L 144.5 156.0 L 143.0 158.0 L 142.5 158.5 L 142.0 159.0 L 141.0 158.5 L 140.5 158.5 " stroke="black" fill="none" stroke-width="6.0" stroke-linecap="round" stroke-linejoin="round" />
</svg>