<svg xmlns="http://www.w3.org/2000/svg" width="300" height="300" viewBox="0 0 300 300">
<path d="M 149.0 107.0 L 149.0 107.0 L 148.5 107.0 L 148.5 107.0 L 148.5 107.0 L 148.5 107.0 L 148.0 107.5 L 148.0 109.5 L 148.0 113.0 L 148.5 118.0 L 148.5 123.5 L 149.0 128.0 L 149.5 132.0 L 149.5 135.5 L 149.5 138.5 L 150.0 141.5 L 150.0 143.0 L 150.0 147.5 L 150.0 150.0 L 150.0 152.5 L 150.0 154.5 L 150.0 156.5 L 150.0 158.0 L 150.0 160.0 L 150.0 161.5 L 150.0 163.0 L 150.0 165.0 L 150.0 166.5 L 150.0 168.0 L 150.0 169.0 L 150.0 170.0 L 150.0 171.5 L 150.0 172.5 L 150.0 173.5 L 150.0 175.0 L 150.0 176.0 L 150.0 177.0 L 150.0 178.0 L 150.0 178.5 L 150.0 179.5 L 150.0 180.0 L 150.0 180.5 L 150.5 180.5 L 150.5 180.5 L 150.5 180.5 L 150.5 180.5 L 150.5 180.5 " stroke="black" fill="none" stroke-width="6.0" stroke-linecap="round" stroke-linejoin="round" />
</svg>