<svg xmlns="http://www.w3.org/2000/svg" width="300" height="300" viewBox="0 0 300 300">
<path d="M 176.0 138.0 L 176.0 138.0 L 176.5 138.0 L 176.5 138.0 L 176.5 138.0 L 176.5 138.0 L 176.0 138.0 L 175.0 139.0 L 172.5 141.0 L 167.5 145.0 L 160.0 149.5 L 153.0 153.0 L 149.0 155.0 L 147.0 156.0 L 146.0 156.5 L 145.5 157.0 " stroke="black" fill="none" stroke-width="6.0" stroke-linecap="round" stroke-linejoin="round" />
<path d="M 140.0 132.0 L 139.5 131.5 L 139.5 131.5 L 139.0 131.0 L 139.0 131.0 L 139.0 131.0 L 139.0 131.0 L 139.0 131.0 L 139.5 132.0 L 139.5 133.5 L 140.0 135.5 L 140.0 138.0 L 140.0 140.5 L 140.0 144.0 L 140.0 147.0 L 140.0 150.0 L 140.0 153.0 L 140.0 155.5 L 140.0 157.5 L 140.0 160.0 L 139.5 162.0 L 139.5 164.0 L 139.5 165.5 L 139.5 166.5 L 140.0 167.5 L 140.0 168.5 L 140.5 169.5 L 141.0 170.5 L 141.5 171.5 L 142.0 172.0 L 142.5 172.5 L 143.5 173.5 L 144.5 174.0 L 145.0 175.0 L 146.0 175.5 L 147.5 176.0 L 148.5 176.0 L 150.0 176.0 L 151.0 176.0 L 152.5 176.0 L 154.5 175.5 L 156.5 175.0 L 159.0 174.5 L 161.0 174.0 L 163.5 173.5 L 166.0 173.5 L 168.5 173.0 L 171.0 173.0 L 173.0 172.5 L 175.0 172.5 L 176.5 172.5 L 177.5 172.0 L 178.0 171.5 L 178.0 171.5 " stroke="black" fill="none" stroke-width="6.0" stroke-linecap="round" stroke-linejoin="round" />
<path d="M 179.0 126.0 L 179.0 126.0 L 178.5 125.5 L 178.0 125.0 L 178.0 125.0 L 179.0 125.5 L 180.5 127.0 L 182.0 128.5 L 183.0 130.0 L 184.5 131.5 " stroke="black" fill="none" stroke-width="6.0" stroke-linecap="round" stroke-linejoin="round" />
<path d="M 188.5 122.5 L 188.0 122.0 L 187.5 121.5 L 187.5 121.5 L 188.5 121.5 L 190.0 123.5 L 192.0 125.0 L 193.5 127.0 L 195.0 129.0 L 195.0 129.5 " stroke="black" fill="none" stroke-width="6.0" stroke-linecap="round" stroke-linejoin="round" />
</svg>