<svg xmlns="http://www.w3.org/2000/svg" width="300" height="300" viewBox="0 0 300 300">
<path d="M 131.5 125.5 L 131.5 125.5 L 131.5 125.5 L 131.5 125.5 L 131.5 125.5 L 131.5 125.5 L 131.5 125.5 L 133.0 125.0 L 136.5 124.0 L 143.5 122.5 L 151.0 121.0 L 157.0 119.5 L 161.0 119.5 L 162.5 119.5 L 162.5 119.5 L 162.5 119.5 L 162.5 119.5 L 162.0 119.5 L 162.0 119.5 L 162.0 119.5 L 162.0 119.5 L 162.0 119.5 L 161.5 120.0 L 161.0 121.0 L 160.0 122.0 L 158.5 123.5 L 156.0 126.5 L 152.5 130.5 L 148.5 134.5 L 144.5 138.0 L 140.5 141.0 L 137.5 143.0 L 136.5 144.0 L 136.5 144.0 L 136.5 144.0 L 137.0 144.5 L 138.0 144.5 " stroke="black" fill="none" stroke-width="6.0" stroke-linecap="round" stroke-linejoin="round" />
<path d="M 127.5 148.5 L 127.0 148.5 L 126.0 148.5 L 125.5 148.5 L 125.5 148.5 L 128.0 148.5 L 132.5 147.5 L 141.0 145.5 L 150.5 143.5 L 159.0 142.0 L 166.0 141.5 L 169.5 141.5 L 171.5 142.5 L 172.0 143.0 L 172.5 143.0 L 172.5 143.0 L 172.5 143.0 L 172.5 143.0 L 172.0 143.0 L 172.0 143.0 L 172.0 143.0 " stroke="black" fill="none" stroke-width="6.0" stroke-linecap="round" stroke-linejoin="round" />
<path d="M 164.0 144.0 L 164.0 144.0 L 163.5 144.0 L 163.0 143.5 L 163.0 143.5 L 162.5 143.5 L 162.0 143.5 L 161.5 143.5 L 161.0 143.5 L 160.0 144.0 L 158.5 144.5 L 157.0 145.0 L 154.5 146.0 L 152.0 147.5 L 150.5 148.5 L 149.0 149.5 L 148.0 151.0 L 146.5 153.0 L 145.5 155.0 L 144.0 157.0 L 143.5 159.0 L 142.5 161.5 L 142.5 163.5 L 142.5 165.5 L 142.5 167.5 L 142.5 170.0 L 142.5 172.0 L 144.0 174.0 L 145.5 175.5 L 147.5 176.5 L 150.0 177.5 L 153.0 178.0 L 157.0 178.0 L 162.0 177.5 L 167.0 176.0 L 170.0 175.0 L 171.5 174.5 L 171.5 174.5 " stroke="black" fill="none" stroke-width="6.0" stroke-linecap="round" stroke-linejoin="round" />
<path d="M 170.0 126.5 L 170.0 126.5 L 170.0 126.0 L 170.0 126.0 L 170.0 126.0 L 170.0 126.0 L 170.0 126.0 L 170.0 126.5 L 171.0 127.5 L 172.0 129.5 L 173.5 131.0 L 174.0 131.5 " stroke="black" fill="none" stroke-width="6.0" stroke-linecap="round" stroke-linejoin="round" />
<path d="M 179.5 122.5 L 179.5 122.5 L 180.0 122.0 L 180.0 122.0 L 180.5 122.0 L 181.0 122.0 L 181.5 123.0 L 182.5 124.5 L 183.5 126.0 L 184.5 128.0 L 185.0 128.5 " stroke="black" fill="none" stroke-width="6.0" stroke-linecap="round" stroke-linejoin="round" />
</svg>