<svg xmlns="http://www.w3.org/2000/svg" width="300" height="300" viewBox="0 0 300 300">
<path d="M 136.5 116.5 L 136.5 117.5 L 136.0 117.5 L 136.0 117.5 L 136.0 117.5 L 136.5 117.0 L 138.5 116.0 L 142.5 115.0 L 148.0 114.0 L 154.5 112.5 L 161.0 111.5 L 164.5 111.5 L 166.5 112.0 L 167.0 112.5 L 167.5 112.5 L 168.5 113.0 L 169.5 113.0 L 169.5 113.0 L 169.5 113.0 L 169.5 113.0 L 169.5 113.0 L 169.5 113.0 L 169.0 114.0 L 168.0 115.5 L 166.5 119.0 L 164.5 123.5 L 162.5 129.0 L 160.5 133.5 L 159.0 136.0 L 159.0 136.0 L 159.0 136.0 L 159.0 136.0 " stroke="black" fill="none" stroke-width="6.0" stroke-linecap="round" stroke-linejoin="round" />
<path d="M 144.5 127.0 L 144.5 127.0 L 144.5 126.5 L 144.5 126.0 L 144.5 126.0 L 144.5 126.0 L 144.5 127.0 L 143.5 129.0 L 142.5 132.0 L 141.5 136.0 L 141.0 139.0 L 141.0 141.0 L 141.0 141.5 L 142.0 141.5 L 144.0 141.0 L 147.0 140.5 L 151.5 139.5 L 157.0 138.5 L 163.5 137.0 L 168.5 137.0 L 171.0 137.0 L 173.0 137.0 L 174.5 137.0 L 176.0 137.0 L 177.0 137.0 L 177.5 136.5 L 177.5 136.5 L 177.5 136.5 L 177.5 136.5 L 177.5 136.5 L 177.5 136.5 L 177.5 136.5 L 177.0 136.5 L 177.0 137.0 L 177.0 137.5 L 176.5 138.5 L 176.0 140.5 L 174.5 144.0 L 172.5 148.5 L 170.0 154.5 L 167.0 161.0 L 164.5 166.5 L 163.0 170.0 L 162.0 171.5 L 162.0 171.5 L 162.0 171.5 L 163.0 171.5 L 163.5 171.5 " stroke="black" fill="none" stroke-width="6.0" stroke-linecap="round" stroke-linejoin="round" />
</svg>