<svg xmlns="http://www.w3.org/2000/svg" width="300" height="300" viewBox="0 0 300 300">
<path d="M 145.5 130.0 L 144.5 129.0 L 144.0 128.5 L 144.0 128.0 L 144.5 128.0 L 145.0 129.0 L 145.5 133.0 L 145.5 140.0 L 145.5 149.0 L 146.0 155.0 L 146.5 156.0 " stroke="black" fill="none" stroke-width="6.0" stroke-linecap="round" stroke-linejoin="round" />
<path d="M 167.5 124.0 L 167.5 124.0 L 167.0 124.0 L 167.0 123.5 L 166.5 123.5 L 166.5 123.5 L 166.5 124.5 L 166.5 126.5 L 166.5 130.5 L 166.5 137.0 L 166.0 145.0 L 164.5 152.0 L 163.0 158.5 L 160.5 163.5 L 158.0 166.5 L 156.0 168.0 L 155.0 168.0 L 155.0 168.0 L 154.0 168.0 " stroke="black" fill="none" stroke-width="6.0" stroke-linecap="round" stroke-linejoin="round" />
</svg>