<svg xmlns="http://www.w3.org/2000/svg" width="300" height="300" viewBox="0 0 300 300">
<path d="M 153.5 128.5 L 154.0 128.5 L 155.0 128.5 L 155.0 128.5 L 155.5 128.5 L 155.5 128.5 L 155.5 128.5 L 155.5 129.0 L 155.5 130.0 L 155.5 131.5 L 155.0 134.0 L 153.5 137.5 L 152.0 142.0 L 150.0 147.0 L 148.0 150.5 L 146.0 153.0 L 145.0 154.5 L 144.0 154.5 L 143.0 155.0 L 142.5 155.0 L 141.5 155.0 L 141.5 155.5 L 141.0 155.5 L 141.0 156.0 L 141.0 156.0 L 141.0 156.0 L 141.0 156.0 L 141.5 156.5 L 141.5 156.5 L 142.0 157.0 L 143.0 158.0 L 144.0 159.0 L 145.5 161.5 L 148.0 166.0 L 151.0 172.5 L 153.5 177.5 L 155.5 182.0 L 157.5 185.0 L 158.5 186.5 L 159.0 187.5 L 159.0 187.5 L 159.0 187.5 L 159.0 187.0 " stroke="black" fill="none" stroke-width="6.0" stroke-linecap="round" stroke-linejoin="round" />
</svg>