<svg xmlns="http://www.w3.org/2000/svg" width="300" height="300" viewBox="0 0 300 300">
<path d="M 133.0 131.0 L 133.0 131.5 L 133.0 132.0 L 133.0 132.0 L 132.5 132.0 L 132.5 132.0 L 133.0 132.0 L 135.5 132.0 L 140.0 132.0 L 146.5 132.0 L 153.5 132.0 L 159.5 131.5 L 164.5 131.5 L 167.0 131.0 L 168.0 131.0 L 168.0 131.0 L 167.5 131.0 L 167.5 131.0 L 167.0 131.5 L 167.0 131.5 " stroke="black" fill="none" stroke-width="6.0" stroke-linecap="round" stroke-linejoin="round" />
<path d="M 151.0 132.0 L 151.0 132.0 L 151.0 132.0 L 151.0 131.5 L 151.0 131.5 L 151.0 131.5 L 151.0 132.0 L 151.0 134.0 L 151.5 138.5 L 151.5 146.0 L 151.5 153.0 L 151.5 158.5 L 151.5 162.0 L 151.5 166.0 L 151.5 169.5 L 151.5 171.5 L 151.5 172.0 L 152.0 172.0 L 152.0 172.0 " stroke="black" fill="none" stroke-width="6.0" stroke-linecap="round" stroke-linejoin="round" />
</svg>