<svg xmlns="http://www.w3.org/2000/svg" width="300" height="300" viewBox="0 0 300 300">
<path d="M 123.0 110.0 L 123.0 110.0 L 123.0 110.0 L 123.0 110.0 L 124.0 110.0 L 126.5 109.5 L 132.0 109.5 L 139.0 109.0 L 146.0 108.5 L 151.0 108.0 L 153.5 108.0 L 154.5 108.0 L 154.5 108.0 L 154.5 108.0 L 154.5 108.0 L 154.5 108.0 L 154.5 108.0 L 154.5 108.0 L 154.5 108.0 L 154.5 108.0 L 154.5 108.0 L 154.5 108.0 L 154.5 108.0 L 154.5 108.5 L 153.5 109.5 L 152.0 112.0 L 150.5 114.5 L 148.5 118.0 L 146.5 121.0 L 143.5 124.5 L 141.0 127.5 L 138.5 130.0 L 136.5 132.5 L 135.0 134.0 L 134.0 135.0 L 133.5 135.0 L 133.0 135.0 L 133.0 135.5 L 133.0 135.5 L 133.0 135.5 L 133.0 135.5 L 133.0 135.5 L 133.0 135.5 L 133.0 135.5 L 133.0 136.0 L 133.0 136.0 " stroke="black" fill="none" stroke-width="6.0" stroke-linecap="round" stroke-linejoin="round" />
<path d="M 136.5 135.0 L 135.5 135.0 L 134.5 135.5 L 134.0 135.5 L 134.0 135.5 L 134.0 135.5 L 134.5 135.5 L 135.5 135.5 L 137.5 135.5 L 140.5 135.0 L 144.0 134.5 L 148.0 134.0 L 152.0 133.0 L 155.5 132.0 L 158.5 131.0 L 160.5 130.5 L 162.5 130.5 L 163.0 130.0 L 164.0 130.0 L 164.0 130.0 L 164.5 130.0 L 165.0 130.0 L 165.5 130.0 L 166.0 130.0 L 166.0 130.0 L 166.5 130.0 L 166.5 130.0 L 167.0 130.0 L 167.5 130.5 L 167.5 130.5 L 168.0 130.5 L 168.0 130.5 L 168.5 130.5 L 168.5 130.5 L 168.5 130.5 L 168.5 130.5 L 168.5 131.0 L 168.5 131.5 L 168.5 132.0 L 168.5 133.5 L 168.5 135.5 L 167.5 138.0 L 166.0 141.5 L 165.0 145.5 L 163.5 149.5 L 161.5 154.0 L 159.5 159.0 L 157.5 163.5 L 154.5 168.0 L 152.0 171.0 L 150.0 173.0 L 148.5 174.0 L 146.0 174.5 L 143.5 174.5 L 141.0 173.5 L 138.5 173.0 L 136.5 172.5 L 136.0 172.5 " stroke="black" fill="none" stroke-width="6.0" stroke-linecap="round" stroke-linejoin="round" />
</svg>