<svg xmlns="http://www.w3.org/2000/svg" width="300" height="300" viewBox="0 0 300 300">
<path d="M 138.5 118.5 L 138.5 118.5 L 138.5 118.0 L 138.5 118.0 L 139.0 117.5 L 139.0 118.0 L 139.5 120.5 L 140.0 126.0 L 139.5 135.0 L 137.0 146.5 L 134.5 156.0 L 133.0 162.0 L 132.0 164.5 L 132.0 164.5 " stroke="black" fill="none" stroke-width="6.0" stroke-linecap="round" stroke-linejoin="round" />
<path d="M 155.5 117.5 L 155.5 117.5 L 156.5 118.0 L 156.5 118.0 L 157.0 118.5 L 157.0 118.5 L 157.0 119.5 L 157.0 121.5 L 157.0 124.5 L 157.0 129.5 L 156.5 136.0 L 156.0 143.5 L 156.0 150.0 L 155.5 155.0 L 155.5 158.5 L 155.5 160.5 L 155.5 161.0 L 155.5 161.0 L 155.5 161.0 L 155.5 161.0 L 156.5 160.0 L 158.0 159.0 L 161.0 156.5 L 166.5 153.5 L 173.0 149.0 L 178.0 144.5 L 180.0 142.5 L 180.5 142.0 L 179.0 142.0 " stroke="black" fill="none" stroke-width="6.0" stroke-linecap="round" stroke-linejoin="round" />
</svg>