<svg xmlns="http://www.w3.org/2000/svg" width="300" height="300" viewBox="0 0 300 300">
<path d="M 137.5 114.0 L 138.0 114.0 L 138.0 114.0 L 138.5 114.0 L 139.0 114.0 L 139.0 113.5 L 139.0 113.5 L 139.5 113.0 L 139.5 113.0 L 139.5 114.5 L 139.5 116.5 L 139.5 119.5 L 138.5 122.5 L 137.5 125.0 L 136.5 128.0 L 135.0 130.5 L 133.5 132.0 L 133.0 133.0 L 132.0 133.5 L 132.0 134.0 L 132.0 134.0 L 132.0 134.0 L 132.0 134.0 L 132.0 134.0 L 132.0 133.5 L 132.5 133.5 L 133.0 133.5 L 134.5 132.5 L 137.0 132.0 L 139.5 131.5 L 143.0 130.5 L 147.0 130.5 L 150.5 130.0 L 154.0 130.0 L 157.0 129.5 L 159.5 129.5 L 161.5 129.5 L 163.0 129.5 L 164.5 130.0 L 165.5 130.5 L 166.5 130.5 L 167.5 130.5 L 168.0 130.5 L 168.0 130.5 L 168.0 130.5 L 168.0 130.5 L 168.5 130.5 L 168.5 131.0 L 168.5 131.0 L 169.0 131.0 L 169.5 131.0 L 169.5 131.0 L 170.0 131.5 L 170.0 131.5 L 170.5 131.5 L 170.5 131.5 L 171.0 131.5 L 171.0 131.5 L 171.5 131.5 L 171.5 131.5 L 172.0 131.5 L 172.0 131.5 L 172.0 131.5 L 172.0 131.5 L 172.0 131.5 L 172.0 132.0 L 172.5 132.5 L 172.5 133.5 L 172.5 135.0 L 172.5 137.0 L 172.5 140.0 L 172.5 143.5 L 172.5 147.5 L 172.5 152.0 L 171.5 156.0 L 170.5 159.5 L 168.5 163.5 L 166.5 166.5 L 164.5 170.0 L 161.5 173.0 L 158.5 175.5 L 156.0 176.5 L 154.0 177.5 L 152.5 177.5 L 151.5 177.5 L 151.0 176.5 L 151.0 176.5 " stroke="black" fill="none" stroke-width="6.0" stroke-linecap="round" stroke-linejoin="round" />
</svg>