<svg xmlns="http://www.w3.org/2000/svg" width="300" height="300" viewBox="0 0 300 300">
<path d="M 127.5 138.0 L 127.5 138.0 L 127.0 138.5 L 126.5 139.0 L 126.5 139.0 L 127.0 139.0 L 129.5 139.0 L 134.0 139.0 L 142.0 139.0 L 151.0 139.0 L 159.0 138.5 L 164.5 138.0 L 168.0 138.0 L 169.5 138.0 L 169.5 138.0 L 170.0 138.5 L 170.0 139.0 L 171.0 139.5 L 171.5 139.5 " stroke="black" fill="none" stroke-width="6.0" stroke-linecap="round" stroke-linejoin="round" />
<path d="M 159.5 123.0 L 159.5 123.0 L 159.5 123.0 L 159.5 122.5 L 159.5 122.5 L 159.5 122.5 L 159.5 125.5 L 159.5 130.5 L 158.5 138.5 L 157.0 146.5 L 155.0 153.0 L 152.5 156.5 L 151.5 158.0 L 151.0 158.0 L 151.0 157.5 " stroke="black" fill="none" stroke-width="6.0" stroke-linecap="round" stroke-linejoin="round" />
<path d="M 136.5 126.0 L 136.5 126.0 L 137.0 125.5 L 137.0 125.0 L 137.0 125.0 L 137.0 125.0 L 137.0 125.0 L 137.0 126.0 L 137.0 128.0 L 137.0 130.0 L 137.0 132.5 L 137.0 135.5 L 136.5 138.5 L 136.5 141.0 L 136.5 144.0 L 136.0 146.5 L 136.0 148.5 L 136.0 150.0 L 136.0 151.0 L 136.0 153.0 L 136.0 154.5 L 136.0 156.0 L 136.0 157.5 L 136.0 158.5 L 136.0 159.5 L 136.0 160.5 L 136.5 161.5 L 136.5 162.5 L 137.0 164.0 L 137.5 164.5 L 138.0 165.5 L 138.5 166.0 L 139.5 167.0 L 140.5 167.5 L 142.0 168.0 L 143.5 168.5 L 144.5 169.0 L 146.0 169.5 L 148.0 170.0 L 150.0 170.0 L 152.5 170.0 L 155.5 169.5 L 158.5 168.5 L 161.5 168.0 L 164.0 167.5 L 165.5 167.5 L 166.5 167.5 L 166.5 167.5 " stroke="black" fill="none" stroke-width="6.0" stroke-linecap="round" stroke-linejoin="round" />
</svg>