<svg xmlns="http://www.w3.org/2000/svg" width="300" height="300" viewBox="0 0 300 300">
<path d="M 135.5 108.0 L 136.0 108.0 L 136.0 107.5 L 136.5 107.5 L 137.0 107.0 L 137.0 107.0 L 137.5 106.5 L 137.5 106.5 L 137.5 107.5 L 137.5 110.5 L 136.0 114.5 L 134.5 119.5 L 132.5 124.0 L 131.5 127.0 L 131.5 128.0 L 131.5 128.0 L 131.5 128.0 L 132.0 128.0 L 132.5 127.5 L 133.5 127.0 L 136.0 126.5 L 140.5 125.5 L 146.5 125.0 L 152.0 124.0 L 156.5 123.5 L 160.5 123.0 L 163.5 123.0 L 165.5 123.0 L 166.5 123.0 L 166.5 123.0 L 167.0 123.0 L 167.0 123.0 L 167.0 123.0 L 167.0 123.0 L 167.5 123.0 L 167.5 123.0 L 167.5 123.0 L 168.0 123.0 L 168.5 123.0 L 168.5 123.0 L 168.5 123.0 L 169.0 123.5 L 169.0 123.5 L 169.0 123.5 L 169.0 123.5 L 169.0 123.5 L 169.0 123.5 L 169.0 124.0 L 169.0 124.0 L 169.0 125.0 L 169.0 126.0 L 168.5 127.0 L 168.0 129.5 L 167.0 132.5 L 165.0 137.0 L 162.5 142.0 L 160.0 146.5 L 155.5 154.0 L 152.0 159.5 L 148.5 165.0 L 145.0 169.5 L 141.5 173.0 L 138.5 176.0 L 136.5 177.5 L 135.5 178.0 L 135.0 178.0 L 134.5 178.5 L 134.0 178.5 " stroke="black" fill="none" stroke-width="6.0" stroke-linecap="round" stroke-linejoin="round" />
<path d="M 139.0 140.5 L 139.0 140.5 L 138.0 141.0 L 138.0 141.0 L 137.5 141.0 L 137.5 141.0 L 139.0 141.5 L 142.5 144.0 L 149.0 148.5 L 157.5 155.0 L 165.5 160.5 L 171.0 164.0 L 173.5 166.5 L 174.5 168.0 L 175.5 169.5 L 175.5 170.0 " stroke="black" fill="none" stroke-width="6.0" stroke-linecap="round" stroke-linejoin="round" />
</svg>