<svg xmlns="http://www.w3.org/2000/svg" width="300" height="300" viewBox="0 0 300 300">
<path d="M 168.0 134.0 L 168.0 134.0 L 168.0 133.0 L 168.0 132.5 L 168.0 132.0 L 167.5 132.5 L 166.0 135.0 L 161.5 139.5 L 155.0 145.5 L 149.5 150.0 L 146.5 152.0 L 146.5 152.5 " stroke="black" fill="none" stroke-width="6.0" stroke-linecap="round" stroke-linejoin="round" />
<path d="M 138.0 129.5 L 138.5 129.5 L 139.5 129.5 L 140.0 129.0 L 140.5 128.5 L 141.0 128.5 L 141.0 128.5 L 141.0 130.5 L 140.5 135.0 L 139.5 142.0 L 137.5 151.5 L 136.5 159.5 L 137.0 165.0 L 139.0 167.0 L 142.5 168.5 L 147.5 169.5 L 153.0 170.5 L 159.0 170.5 L 166.0 170.5 L 171.0 169.0 L 173.5 168.5 L 174.0 168.5 " stroke="black" fill="none" stroke-width="6.0" stroke-linecap="round" stroke-linejoin="round" />
</svg>