<svg xmlns="http://www.w3.org/2000/svg" width="300" height="300" viewBox="0 0 300 300">
<path d="M 123.0 124.5 L 121.0 124.5 L 120.5 124.5 L 120.0 124.0 L 120.5 124.0 L 121.5 124.0 L 123.0 124.0 L 125.0 124.0 L 127.0 123.5 L 129.5 123.5 L 133.0 123.5 L 138.5 123.5 L 145.0 123.0 L 152.5 122.5 L 159.0 122.0 L 165.0 121.5 L 170.0 121.5 L 173.0 121.5 L 175.0 121.5 L 176.5 121.5 L 177.0 121.5 L 177.0 121.5 L 177.0 121.0 L 177.0 121.0 L 177.0 121.0 L 177.0 121.0 L 177.0 121.0 L 176.5 121.0 " stroke="black" fill="none" stroke-width="7.0" stroke-linecap="round" stroke-linejoin="round" />
<path d="M 154.0 125.5 L 154.5 125.5 L 154.5 125.0 L 154.5 125.0 L 154.5 125.0 L 155.0 126.0 L 155.0 128.0 L 155.0 131.5 L 155.0 135.0 L 155.0 139.0 L 155.0 142.0 L 155.0 145.5 L 155.0 148.5 L 155.0 151.5 L 155.5 154.0 L 155.5 156.5 L 155.5 158.5 L 155.5 160.5 L 156.0 161.5 L 156.0 162.0 L 156.0 162.5 L 156.0 162.5 L 156.0 162.0 L 156.5 161.5 L 156.5 159.0 " stroke="black" fill="none" stroke-width="7.0" stroke-linecap="round" stroke-linejoin="round" />
<path d="M 156.5 145.0 L 156.5 145.0 L 156.5 145.0 L 156.5 145.0 L 156.5 145.5 L 156.5 145.5 L 157.5 145.5 L 159.5 145.5 L 163.0 145.5 L 166.0 145.0 L 169.0 144.5 L 170.0 144.5 " stroke="black" fill="none" stroke-width="7.0" stroke-linecap="round" stroke-linejoin="round" />
<path d="M 136.5 143.0 L 137.0 143.0 L 137.5 143.0 L 137.5 143.0 L 138.0 143.0 L 138.0 143.0 L 138.0 145.5 L 138.0 149.0 L 138.0 155.0 L 138.0 160.5 L 138.0 164.0 L 139.0 164.5 " stroke="black" fill="none" stroke-width="7.0" stroke-linecap="round" stroke-linejoin="round" />
<path d="M 126.5 169.5 L 126.0 169.5 L 126.0 169.5 L 125.5 169.5 L 125.5 169.5 L 125.5 169.5 L 126.0 169.5 L 126.5 169.0 L 128.0 169.0 L 130.5 169.0 L 136.0 169.0 L 144.0 168.5 L 153.0 168.5 L 161.0 168.5 L 167.0 169.0 L 172.0 169.5 L 175.5 169.5 L 177.0 169.5 L 177.5 169.5 L 178.0 169.5 L 178.0 169.5 L 178.0 169.5 L 178.0 169.5 L 178.0 169.5 L 177.5 169.5 L 177.5 169.5 " stroke="black" fill="none" stroke-width="7.0" stroke-linecap="round" stroke-linejoin="round" />
<path d="M 148.0 101.0 L 148.0 101.0 L 148.0 101.0 L 148.0 100.5 L 147.5 100.5 L 147.5 100.0 L 147.0 100.0 L 146.5 99.5 L 145.5 99.5 L 144.5 99.5 L 143.5 99.0 L 142.0 99.0 L 140.5 99.0 L 138.5 99.5 L 136.0 99.5 L 133.5 100.0 L 131.5 100.5 L 129.5 101.0 L 128.0 101.5 L 127.0 102.0 L 126.0 102.5 L 124.5 103.0 L 123.5 104.0 L 122.0 105.0 L 120.5 106.0 L 119.5 107.0 L 118.0 108.5 L 117.0 109.5 L 115.5 111.0 L 114.5 112.5 L 113.5 114.5 L 112.5 116.0 L 111.5 118.0 L 111.0 119.5 L 110.0 121.5 L 109.0 124.0 L 108.5 126.0 L 107.5 128.0 L 107.5 129.5 L 107.0 131.0 L 107.0 132.5 L 107.0 134.5 L 106.5 136.0 L 106.5 137.5 L 106.5 138.5 L 106.5 140.0 L 106.5 141.5 L 106.5 143.0 L 106.5 144.5 L 106.5 146.5 L 106.5 148.5 L 106.5 150.0 L 106.5 151.0 L 106.5 152.5 L 107.0 153.5 L 107.0 155.0 L 107.5 156.5 L 107.5 157.5 L 108.0 159.0 L 108.0 160.5 L 108.5 162.0 L 109.0 163.5 L 109.0 165.0 L 109.5 166.5 L 110.0 168.0 L 110.5 169.0 L 111.0 170.5 L 112.0 172.0 L 112.5 173.5 L 113.5 175.0 L 114.5 176.5 L 115.5 178.0 L 116.5 179.0 L 118.0 180.5 L 119.5 181.5 L 121.0 182.5 L 122.5 183.5 L 124.0 184.5 L 125.0 185.0 L 127.0 185.5 L 128.5 186.5 L 130.0 187.0 L 132.0 188.0 L 133.5 188.5 L 135.0 188.5 L 137.0 189.0 L 139.0 189.5 L 140.5 189.5 L 142.5 189.5 L 144.5 189.5 L 146.5 189.5 L 148.5 189.0 L 150.0 189.0 L 151.5 189.0 L 152.5 188.5 L 154.0 188.5 L 155.5 188.0 L 156.5 188.0 L 158.0 188.0 L 159.0 188.0 L 160.5 187.5 L 162.0 187.5 L 163.0 187.5 L 164.5 187.0 L 166.0 186.5 L 167.5 186.0 L 169.0 185.5 L 170.5 185.0 L 172.0 184.5 L 173.5 184.0 L 174.5 183.5 L 176.0 183.0 L 177.5 182.0 L 179.0 181.0 L 181.0 180.0 L 182.5 179.0 L 184.0 178.0 L 185.5 177.0 L 187.0 176.0 L 188.5 175.0 L 190.0 173.5 L 191.5 172.0 L 193.0 171.0 L 194.0 170.0 L 195.0 168.5 L 196.0 167.0 L 197.5 165.5 L 198.5 163.5 L 199.0 161.0 L 200.0 159.0 L 201.0 156.5 L 201.5 154.0 L 202.5 151.0 L 203.0 148.0 L 203.5 145.5 L 203.5 143.5 L 203.0 141.5 L 202.5 139.0 L 202.0 136.5 L 201.5 134.0 L 201.0 132.0 L 200.5 130.0 L 200.0 128.5 L 199.5 126.5 L 199.0 124.5 L 198.5 122.0 L 198.0 120.5 L 197.5 119.0 L 196.5 117.5 L 196.0 116.5 L 195.0 115.0 L 194.0 113.0 L 193.5 111.5 L 192.5 110.0 L 191.0 109.0 L 190.0 108.0 L 188.5 107.0 L 187.5 106.0 L 186.0 104.5 L 184.5 103.5 L 183.0 102.5 L 181.5 102.0 L 180.0 101.5 L 178.5 100.5 L 177.5 100.0 L 176.0 99.0 L 174.0 98.5 L 172.5 98.0 L 171.0 97.5 L 169.0 97.0 L 167.0 97.0 L 164.5 96.5 L 162.5 96.0 L 160.0 96.0 L 157.5 95.5 L 155.0 95.5 L 153.0 96.0 L 151.5 96.0 L 150.5 96.5 L 150.0 96.5 L 150.0 97.0 L 150.0 97.0 " stroke="black" fill="none" stroke-width="7.0" stroke-linecap="round" stroke-linejoin="round" />
</svg>