<svg xmlns="http://www.w3.org/2000/svg" width="300" height="300" viewBox="0 0 300 300">
<path d="M 128.0 154.0 L 128.0 154.0 L 128.5 154.0 L 128.5 153.5 L 129.0 153.0 L 129.5 152.0 L 132.0 150.0 L 134.5 147.0 L 137.5 142.5 L 140.0 137.0 L 141.5 132.0 L 142.0 126.0 L 142.0 119.5 L 141.5 115.0 L 141.0 112.0 L 141.0 110.0 L 140.5 108.5 L 140.5 106.5 L 140.0 105.5 L 140.0 105.0 L 139.5 104.5 L 139.0 104.5 L 138.5 104.5 L 137.5 105.5 L 137.0 107.0 L 136.0 109.0 L 135.5 111.5 L 135.0 114.0 L 134.5 116.0 L 134.0 118.0 L 133.5 121.0 L 133.0 124.0 L 132.5 126.5 L 132.5 129.5 L 132.5 131.5 L 132.5 134.0 L 132.5 136.5 L 132.5 139.5 L 133.0 142.0 L 133.5 144.5 L 134.5 147.0 L 135.5 149.5 L 136.5 152.0 L 138.0 154.5 L 139.5 156.5 L 141.5 157.5 L 143.5 158.0 L 146.0 158.0 L 147.5 158.0 L 148.5 157.0 L 150.0 156.0 " stroke="black" fill="none" stroke-width="7.0" stroke-linecap="round" stroke-linejoin="round" />
<path d="M 153.5 135.0 L 153.5 135.0 L 153.5 135.0 L 153.5 135.0 L 153.5 134.5 L 153.5 134.5 L 153.5 134.5 L 153.5 134.5 L 153.5 135.5 L 153.5 138.0 L 153.5 142.5 L 153.5 148.5 L 153.5 153.0 L 153.5 155.5 L 153.5 156.0 L 153.5 155.5 L 153.5 153.5 L 153.5 150.0 L 153.5 146.0 L 153.5 142.0 L 154.5 138.0 L 155.0 135.0 L 156.0 133.5 L 157.5 133.0 L 158.5 133.0 L 160.0 133.0 L 161.5 133.5 L 163.0 133.5 L 164.0 134.0 L 165.5 134.5 L 166.5 135.0 L 167.5 135.5 L 168.5 136.5 L 169.5 137.5 L 170.0 139.5 L 170.0 141.5 L 170.5 143.5 L 170.5 145.5 L 170.5 148.0 L 170.0 150.5 L 170.0 153.0 L 170.0 155.0 L 170.0 156.5 L 170.0 157.0 " stroke="black" fill="none" stroke-width="7.0" stroke-linecap="round" stroke-linejoin="round" />
<path d="M 184.0 154.0 L 183.0 154.5 L 183.0 154.5 L 183.0 154.5 L 183.5 154.5 L 183.5 154.5 " stroke="black" fill="none" stroke-width="7.0" stroke-linecap="round" stroke-linejoin="round" />
</svg>