<svg xmlns="http://www.w3.org/2000/svg" width="300" height="300" viewBox="0 0 300 300">
<path d="M 113.5 101.0 L 114.5 101.0 L 117.0 101.0 L 123.5 100.0 L 137.0 98.5 L 153.0 97.5 L 167.5 97.5 L 178.5 98.0 L 185.5 98.5 L 187.5 99.0 " stroke="black" fill="none" stroke-width="9.0" stroke-linecap="round" stroke-linejoin="round" />
<path d="M 123.0 120.5 L 123.0 120.5 L 122.5 120.5 L 122.5 120.5 L 124.0 123.0 L 126.0 125.5 L 128.0 126.5 " stroke="black" fill="none" stroke-width="9.0" stroke-linecap="round" stroke-linejoin="round" />
<path d="M 130.5 120.5 L 130.0 120.5 L 129.0 120.5 L 129.0 120.0 L 131.5 119.0 L 139.0 117.5 L 149.0 115.5 L 158.5 114.0 L 166.0 114.0 L 169.5 114.5 L 170.0 116.0 L 169.5 118.0 L 167.5 121.5 L 166.0 124.5 L 164.5 126.5 L 164.5 127.0 " stroke="black" fill="none" stroke-width="9.0" stroke-linecap="round" stroke-linejoin="round" />
<path d="M 132.0 134.0 L 132.0 134.0 L 132.0 134.5 L 132.0 134.5 L 134.0 134.5 L 140.5 133.0 L 151.0 131.5 L 161.0 130.5 L 167.0 130.5 " stroke="black" fill="none" stroke-width="9.0" stroke-linecap="round" stroke-linejoin="round" />
<path d="M 123.0 156.0 L 122.5 156.5 L 122.0 157.0 L 122.0 157.0 L 124.5 156.5 L 131.5 154.5 L 143.0 152.0 L 156.0 150.0 L 166.5 150.0 L 173.5 152.5 L 173.5 157.0 L 172.5 163.0 L 170.0 168.5 L 168.0 172.5 L 167.5 175.0 L 167.5 176.5 L 167.5 176.5 " stroke="black" fill="none" stroke-width="9.0" stroke-linecap="round" stroke-linejoin="round" />
<path d="M 125.0 171.5 L 124.0 171.5 L 123.0 172.0 L 122.0 172.0 L 124.0 172.0 L 131.5 170.0 L 144.5 167.0 L 162.0 165.0 L 176.0 164.5 L 183.0 164.5 L 183.5 165.0 " stroke="black" fill="none" stroke-width="9.0" stroke-linecap="round" stroke-linejoin="round" />
<path d="M 122.0 193.0 L 122.5 193.0 L 124.0 192.0 L 129.0 190.5 L 140.5 188.0 L 154.5 186.5 L 167.5 184.5 L 176.0 184.0 L 177.5 184.0 " stroke="black" fill="none" stroke-width="9.0" stroke-linecap="round" stroke-linejoin="round" />
<path d="M 151.5 84.5 L 151.5 85.0 L 151.5 85.5 L 151.0 86.0 L 151.0 88.0 L 151.0 92.5 L 151.5 101.5 L 152.5 113.5 L 153.0 125.0 L 153.5 134.5 L 154.0 143.5 L 154.5 152.0 L 155.0 159.5 L 155.5 167.5 L 155.5 174.5 L 155.0 181.0 L 154.0 188.0 L 153.5 193.5 L 153.0 197.0 L 153.0 201.0 L 152.5 204.5 L 152.0 207.5 L 152.0 209.0 L 151.5 209.5 L 151.5 209.5 L 149.5 209.5 L 146.0 209.0 L 141.5 207.5 L 137.5 205.5 L 136.5 205.0 " stroke="black" fill="none" stroke-width="9.0" stroke-linecap="round" stroke-linejoin="round" />
</svg>