<svg xmlns="http://www.w3.org/2000/svg" width="300" height="300" viewBox="0 0 300 300">
<path d="M 145.0 92.5 L 144.5 91.5 L 144.5 90.0 L 144.5 89.5 L 145.0 89.5 L 145.0 89.5 L 144.5 92.0 L 140.5 98.0 L 133.0 108.5 L 121.0 119.0 L 113.0 124.0 L 111.0 123.0 L 111.0 120.0 " stroke="black" fill="none" stroke-width="8.0" stroke-linecap="round" stroke-linejoin="round" />
<path d="M 147.5 95.0 L 146.0 94.5 L 146.0 94.5 L 146.0 95.0 L 149.0 97.5 L 154.5 102.0 L 163.5 108.5 L 172.5 115.0 L 181.0 118.5 L 187.5 119.5 L 189.5 119.5 L 189.5 119.5 " stroke="black" fill="none" stroke-width="8.0" stroke-linecap="round" stroke-linejoin="round" />
<path d="M 134.0 127.0 L 134.0 127.0 L 134.5 127.0 L 136.0 127.5 L 142.0 127.5 L 152.5 126.5 L 160.0 126.0 L 163.0 126.0 L 163.0 126.5 L 162.5 127.0 " stroke="black" fill="none" stroke-width="8.0" stroke-linecap="round" stroke-linejoin="round" />
<path d="M 123.5 144.5 L 123.5 144.5 L 122.5 144.5 L 122.0 144.5 L 124.0 144.5 L 130.0 144.0 L 139.5 143.0 L 151.5 142.0 L 161.5 142.0 L 172.0 142.0 L 172.0 142.5 L 171.0 143.5 L 169.0 145.0 L 167.5 147.0 L 165.5 149.5 L 163.0 153.5 L 160.0 159.0 L 157.0 164.5 L 156.0 167.5 L 156.0 167.5 " stroke="black" fill="none" stroke-width="8.0" stroke-linecap="round" stroke-linejoin="round" />
<path d="M 134.0 167.0 L 134.5 167.0 L 135.5 167.0 L 136.5 167.0 L 138.5 168.5 L 143.0 171.5 L 150.5 175.5 L 158.5 180.0 L 162.5 184.0 L 163.5 185.5 L 163.5 185.5 " stroke="black" fill="none" stroke-width="8.0" stroke-linecap="round" stroke-linejoin="round" />
</svg>