<svg xmlns="http://www.w3.org/2000/svg" width="300" height="300" viewBox="0 0 300 300">
<path d="M 115.00000000000001 82.22222222222223 L 115.55555555555556 81.66666666666667 L 116.1111111111111 80.0 L 116.1111111111111 79.44444444444444 L 116.66666666666667 79.44444444444444 L 116.66666666666667 82.22222222222223 L 113.33333333333333 90.55555555555556 L 105.0 106.66666666666667 L 92.77777777777777 125.55555555555556 L 85.55555555555556 132.22222222222223 L 82.77777777777777 132.7777777777778 L 82.77777777777777 130.55555555555557 " stroke="black" fill="none" stroke-width="12.0" stroke-linecap="round" stroke-linejoin="round" />
<path d="M 97.77777777777777 125.00000000000001 L 97.22222222222223 125.00000000000001 L 96.66666666666667 125.00000000000001 L 96.66666666666667 125.00000000000001 L 97.22222222222223 126.66666666666667 L 98.33333333333333 133.33333333333334 L 99.44444444444444 149.44444444444446 L 100.0 172.7777777777778 L 100.0 194.44444444444446 L 98.88888888888889 208.33333333333334 L 98.88888888888889 216.66666666666669 L 99.44444444444444 218.33333333333334 " stroke="black" fill="none" stroke-width="12.0" stroke-linecap="round" stroke-linejoin="round" />
<path d="M 152.22222222222223 82.22222222222223 L 152.22222222222223 82.22222222222223 L 151.11111111111111 82.22222222222223 L 151.11111111111111 83.33333333333333 L 153.33333333333334 88.33333333333333 L 156.11111111111111 95.55555555555556 L 158.33333333333334 100.55555555555556 L 158.8888888888889 101.11111111111111 " stroke="black" fill="none" stroke-width="12.0" stroke-linecap="round" stroke-linejoin="round" />
<path d="M 127.77777777777779 120.00000000000001 L 127.22222222222221 120.00000000000001 L 127.22222222222221 120.00000000000001 L 128.33333333333334 120.00000000000001 L 133.8888888888889 119.44444444444444 L 146.11111111111111 118.33333333333333 L 163.33333333333334 116.1111111111111 L 178.8888888888889 114.44444444444444 L 192.22222222222223 114.44444444444444 L 198.33333333333334 115.00000000000001 L 199.44444444444446 116.66666666666667 L 198.8888888888889 117.22222222222221 " stroke="black" fill="none" stroke-width="12.0" stroke-linecap="round" stroke-linejoin="round" />
<path d="M 143.8888888888889 145.00000000000003 L 143.8888888888889 145.00000000000003 L 142.22222222222223 144.44444444444446 L 142.22222222222223 144.44444444444446 L 144.44444444444446 148.8888888888889 L 147.7777777777778 159.44444444444446 L 151.66666666666669 172.7777777777778 L 155.55555555555557 181.66666666666669 L 158.33333333333334 186.11111111111114 L 160.55555555555557 187.22222222222223 " stroke="black" fill="none" stroke-width="12.0" stroke-linecap="round" stroke-linejoin="round" />
<path d="M 184.44444444444446 140.00000000000003 L 184.44444444444446 140.00000000000003 L 184.44444444444446 139.44444444444446 L 185.00000000000003 139.44444444444446 L 185.00000000000003 142.7777777777778 L 184.44444444444446 154.44444444444446 L 183.33333333333334 171.66666666666669 L 181.11111111111114 185.55555555555557 L 180.55555555555557 192.22222222222223 L 180.55555555555557 193.33333333333334 " stroke="black" fill="none" stroke-width="12.0" stroke-linecap="round" stroke-linejoin="round" />
<path d="M 141.11111111111111 222.22222222222223 L 141.11111111111111 222.22222222222223 L 141.11111111111111 222.22222222222223 L 141.66666666666669 222.22222222222223 L 147.22222222222223 221.11111111111114 L 158.8888888888889 218.8888888888889 L 175.55555555555557 216.66666666666669 L 192.22222222222223 213.8888888888889 L 202.22222222222223 212.7777777777778 L 207.22222222222223 214.44444444444446 " stroke="black" fill="none" stroke-width="12.0" stroke-linecap="round" stroke-linejoin="round" />
</svg>