<svg xmlns="http://www.w3.org/2000/svg" width="300" height="300" viewBox="0 0 300 300">
<path d="M 130.0 117.5 L 130.0 117.5 L 130.5 117.5 L 131.0 117.0 L 131.5 116.5 L 131.5 116.5 L 131.5 116.5 L 131.5 117.0 L 129.0 121.0 L 124.5 127.0 L 118.0 134.0 L 112.5 139.5 L 111.0 141.0 L 111.5 139.5 " stroke="black" fill="none" stroke-width="8.0" stroke-linecap="round" stroke-linejoin="round" />
<path d="M 124.5 130.5 L 123.5 131.0 L 123.0 131.0 L 123.0 131.5 L 123.5 133.5 L 125.0 142.0 L 125.5 158.5 L 125.0 175.5 L 124.0 184.5 L 124.0 186.0 L 125.0 183.5 " stroke="black" fill="none" stroke-width="8.0" stroke-linecap="round" stroke-linejoin="round" />
<path d="M 152.5 107.0 L 152.5 107.5 L 153.0 108.5 L 153.5 109.0 L 155.0 110.5 L 157.0 112.5 L 159.5 115.0 L 161.0 116.0 L 161.5 116.0 " stroke="black" fill="none" stroke-width="8.0" stroke-linecap="round" stroke-linejoin="round" />
<path d="M 172.5 123.5 L 172.5 123.5 L 172.5 123.5 L 172.0 123.5 L 171.0 123.5 L 169.5 123.5 L 166.5 123.5 L 162.5 123.0 L 157.0 123.0 L 151.5 123.0 L 147.0 124.0 L 144.5 124.5 L 143.0 125.0 L 142.5 125.0 L 142.5 125.0 L 142.5 125.0 L 142.0 125.0 L 142.0 125.0 L 142.0 125.0 L 142.0 125.0 L 142.0 125.0 L 142.0 125.0 L 142.0 125.0 L 142.0 125.0 L 142.0 125.0 L 142.0 125.0 L 142.0 125.0 L 142.5 125.0 L 142.5 125.0 L 143.0 125.5 L 143.0 127.0 L 143.5 130.5 L 143.5 138.0 L 143.5 148.5 L 143.0 159.0 L 142.5 167.5 L 141.5 174.5 L 140.0 180.0 L 139.0 183.5 L 138.5 184.0 L 138.5 184.0 L 138.0 183.0 L 138.0 181.0 L 138.0 180.5 " stroke="black" fill="none" stroke-width="8.0" stroke-linecap="round" stroke-linejoin="round" />
<path d="M 157.5 133.0 L 157.5 133.0 L 158.5 133.0 L 158.5 133.0 L 159.0 133.0 L 159.0 133.5 L 159.0 135.0 L 157.0 138.0 L 154.0 141.5 L 151.5 144.0 L 149.5 145.5 L 149.5 146.0 L 149.5 146.0 " stroke="black" fill="none" stroke-width="8.0" stroke-linecap="round" stroke-linejoin="round" />
<path d="M 154.5 142.0 L 154.5 142.0 L 155.0 141.5 L 155.5 141.5 L 156.5 141.5 L 157.0 144.0 L 158.0 150.0 L 158.0 161.0 L 156.5 173.5 L 155.0 180.5 L 155.0 182.0 L 155.0 180.5 L 155.0 178.0 " stroke="black" fill="none" stroke-width="8.0" stroke-linecap="round" stroke-linejoin="round" />
<path d="M 169.5 142.0 L 169.0 142.0 L 168.5 141.5 L 169.0 141.0 L 171.5 140.5 L 174.5 140.5 L 177.5 140.5 L 179.5 140.5 L 180.5 140.5 L 181.0 140.5 " stroke="black" fill="none" stroke-width="8.0" stroke-linecap="round" stroke-linejoin="round" />
<path d="M 176.0 131.5 L 176.0 132.5 L 176.5 134.0 L 177.0 136.0 L 178.0 139.5 L 179.0 145.0 L 180.0 152.0 L 180.5 159.5 L 181.0 167.5 L 181.0 174.0 L 181.0 179.0 L 180.5 182.5 L 179.0 184.0 L 178.5 184.5 L 177.5 184.5 L 176.5 183.5 L 175.5 180.5 L 175.0 179.5 " stroke="black" fill="none" stroke-width="8.0" stroke-linecap="round" stroke-linejoin="round" />
<path d="M 168.5 159.0 L 168.0 159.0 L 167.5 159.0 L 167.5 159.0 L 168.5 159.0 L 171.0 160.5 L 174.0 163.0 L 174.5 163.0 " stroke="black" fill="none" stroke-width="8.0" stroke-linecap="round" stroke-linejoin="round" />
</svg>