<svg xmlns="http://www.w3.org/2000/svg" width="300" height="300" viewBox="0 0 300 300">
<path d="M 127.0 108.0 L 127.0 108.5 L 127.5 109.0 L 127.5 109.5 L 128.0 109.5 L 128.0 110.0 L 127.5 112.5 L 125.0 117.5 L 120.5 125.0 L 113.5 133.0 L 106.5 140.0 L 102.0 143.5 L 101.5 143.5 L 102.5 142.0 " stroke="black" fill="none" stroke-width="8.0" stroke-linecap="round" stroke-linejoin="round" />
<path d="M 119.5 130.5 L 119.5 130.5 L 119.5 130.5 L 119.5 130.5 L 119.5 130.5 L 119.5 130.5 L 119.5 130.5 L 119.5 131.5 L 120.0 138.0 L 120.5 151.0 L 120.5 167.5 L 120.5 179.0 L 121.0 187.5 L 121.5 192.5 L 121.5 193.5 L 122.0 192.5 " stroke="black" fill="none" stroke-width="8.0" stroke-linecap="round" stroke-linejoin="round" />
<path d="M 142.0 120.0 L 142.0 119.5 L 142.0 119.5 L 142.0 119.0 L 141.5 118.5 L 141.5 118.5 L 141.5 118.5 L 141.5 118.5 L 142.5 118.5 L 145.0 118.5 L 149.5 118.5 L 156.0 118.0 L 163.5 117.0 L 169.0 116.5 L 171.5 116.5 L 172.0 117.0 L 172.0 117.0 L 172.0 117.0 L 172.0 117.0 L 172.5 117.0 L 173.0 116.5 L 174.0 116.5 L 174.5 116.5 L 175.0 116.5 L 175.5 116.5 L 175.5 116.0 L 175.5 116.0 L 175.5 116.0 " stroke="black" fill="none" stroke-width="8.0" stroke-linecap="round" stroke-linejoin="round" />
<path d="M 161.0 103.0 L 161.0 103.0 L 161.5 103.0 L 161.5 103.0 L 162.0 103.0 L 162.5 103.0 L 162.5 103.0 L 162.5 104.5 L 161.5 109.0 L 159.0 117.0 L 155.0 126.5 L 151.0 134.5 L 147.0 140.0 L 144.0 142.0 L 142.0 143.0 L 141.0 143.5 L 140.5 144.0 L 140.5 144.0 " stroke="black" fill="none" stroke-width="8.0" stroke-linecap="round" stroke-linejoin="round" />
<path d="M 160.0 124.5 L 159.5 124.5 L 158.5 124.5 L 158.0 124.5 L 157.5 125.0 L 157.5 125.0 L 157.5 125.0 L 158.0 126.0 L 159.5 129.0 L 162.5 133.0 L 166.5 138.0 L 171.5 142.0 L 177.0 143.0 L 180.5 142.0 L 182.0 140.5 L 182.0 140.5 " stroke="black" fill="none" stroke-width="8.0" stroke-linecap="round" stroke-linejoin="round" />
<path d="M 141.0 129.0 L 141.0 129.5 L 141.0 130.5 L 141.0 131.0 L 142.0 131.5 L 144.0 132.0 L 146.5 132.0 " stroke="black" fill="none" stroke-width="8.0" stroke-linecap="round" stroke-linejoin="round" />
<path d="M 174.0 127.0 L 174.0 127.5 L 174.5 128.0 L 174.5 128.5 L 174.5 129.0 L 173.5 130.5 L 172.0 131.5 L 171.0 133.5 L 170.5 133.5 " stroke="black" fill="none" stroke-width="8.0" stroke-linecap="round" stroke-linejoin="round" />
<path d="M 149.5 148.0 L 149.5 147.5 L 149.0 147.5 L 149.0 147.5 L 149.0 147.0 L 149.0 147.5 L 149.0 150.0 L 149.5 154.0 L 150.0 157.5 L 150.5 160.0 L 151.0 160.5 L 151.0 160.5 " stroke="black" fill="none" stroke-width="8.0" stroke-linecap="round" stroke-linejoin="round" />
<path d="M 154.0 146.0 L 152.5 146.0 L 151.5 146.0 L 150.5 146.0 L 150.5 146.0 L 151.5 146.0 L 153.5 146.0 L 156.0 145.5 L 159.0 145.5 L 161.5 145.5 L 164.5 145.5 L 167.0 145.5 L 168.5 145.5 L 169.5 146.0 L 169.5 146.5 L 169.5 147.5 L 170.0 148.0 L 170.0 149.5 L 170.0 151.0 L 170.0 153.5 L 169.5 157.0 L 169.0 160.0 L 168.5 162.0 L 168.0 163.5 L 168.0 163.5 " stroke="black" fill="none" stroke-width="8.0" stroke-linecap="round" stroke-linejoin="round" />
<path d="M 154.0 157.5 L 154.0 157.5 L 154.0 157.5 L 154.0 158.0 L 154.0 158.0 L 154.5 158.0 L 156.5 158.0 L 159.0 158.0 L 162.5 157.5 L 164.5 156.5 " stroke="black" fill="none" stroke-width="8.0" stroke-linecap="round" stroke-linejoin="round" />
<path d="M 152.5 169.0 L 152.0 169.5 L 152.0 169.5 L 151.5 169.5 L 152.0 169.5 L 154.5 168.5 L 158.0 167.5 L 162.0 167.5 L 165.5 167.5 L 166.0 167.5 " stroke="black" fill="none" stroke-width="8.0" stroke-linecap="round" stroke-linejoin="round" />
<path d="M 159.5 170.0 L 159.5 169.5 L 159.0 169.5 L 159.0 169.0 L 159.0 168.5 L 159.0 168.5 L 159.0 168.5 L 159.0 170.0 L 159.5 173.0 L 160.0 178.0 L 160.0 184.0 L 160.0 188.5 L 160.0 192.0 L 159.5 193.0 L 158.0 192.5 L 156.0 191.5 L 153.5 190.5 L 152.5 190.0 L 152.5 190.0 " stroke="black" fill="none" stroke-width="8.0" stroke-linecap="round" stroke-linejoin="round" />
<path d="M 150.5 180.5 L 150.5 180.5 L 150.5 181.0 L 150.0 181.0 L 149.5 181.5 L 148.0 182.5 L 145.5 183.5 L 144.0 184.5 L 143.5 185.0 " stroke="black" fill="none" stroke-width="8.0" stroke-linecap="round" stroke-linejoin="round" />
<path d="M 174.0 176.5 L 173.5 177.5 L 173.5 178.0 L 173.5 178.5 L 175.0 179.5 L 177.5 181.5 L 180.5 184.0 L 183.5 186.0 L 184.5 187.0 " stroke="black" fill="none" stroke-width="8.0" stroke-linecap="round" stroke-linejoin="round" />
</svg>