<svg xmlns="http://www.w3.org/2000/svg" width="300" height="300" viewBox="0 0 300 300">
<path d="M 127.0 111.0 L 127.0 111.0 L 127.5 111.0 L 127.5 111.0 L 128.0 110.5 L 128.0 110.5 L 128.5 111.5 L 127.0 116.5 L 121.0 127.0 L 113.0 138.5 L 109.5 143.5 L 109.5 143.5 L 110.5 142.0 L 111.0 141.5 " stroke="black" fill="none" stroke-width="7.0" stroke-linecap="round" stroke-linejoin="round" />
<path d="M 124.5 132.5 L 124.0 132.5 L 123.0 132.0 L 122.5 131.0 L 122.5 131.0 L 122.5 131.0 L 123.0 135.5 L 124.0 146.0 L 124.0 162.0 L 123.5 174.5 L 123.5 180.0 L 124.0 180.0 L 124.5 179.5 " stroke="black" fill="none" stroke-width="7.0" stroke-linecap="round" stroke-linejoin="round" />
<path d="M 141.5 114.0 L 141.5 114.0 L 141.5 114.0 L 141.5 114.0 L 141.5 114.5 L 141.5 117.0 L 142.0 125.5 L 142.5 139.5 L 141.5 149.0 L 141.5 153.0 L 141.0 153.5 L 141.0 152.0 L 141.5 151.5 " stroke="black" fill="none" stroke-width="7.0" stroke-linecap="round" stroke-linejoin="round" />
<path d="M 143.5 114.5 L 142.0 115.5 L 141.0 116.0 L 140.5 116.0 L 141.5 116.0 L 144.5 115.0 L 149.0 113.5 L 152.5 112.5 L 155.5 112.5 L 157.5 112.5 L 159.0 113.0 L 159.5 114.0 L 160.0 114.5 L 160.0 115.5 L 160.0 117.0 L 160.0 120.5 L 160.0 125.5 L 160.0 133.5 L 160.0 143.5 L 159.5 152.5 L 159.5 157.5 L 159.5 159.5 L 159.5 159.5 L 159.0 157.5 " stroke="black" fill="none" stroke-width="7.0" stroke-linecap="round" stroke-linejoin="round" />
<path d="M 146.5 129.5 L 145.0 130.0 L 143.5 131.0 L 143.5 131.0 L 146.0 130.5 L 150.0 129.0 L 154.5 127.5 L 158.0 127.0 L 160.5 126.5 L 160.5 127.0 " stroke="black" fill="none" stroke-width="7.0" stroke-linecap="round" stroke-linejoin="round" />
<path d="M 148.0 142.5 L 146.0 142.5 L 145.0 142.5 L 145.0 142.5 L 146.0 142.5 L 149.0 142.0 L 153.0 141.0 L 157.0 140.5 L 158.0 140.0 " stroke="black" fill="none" stroke-width="7.0" stroke-linecap="round" stroke-linejoin="round" />
<path d="M 141.5 158.5 L 141.5 159.0 L 141.0 159.5 L 141.0 160.0 L 141.5 160.0 L 145.0 160.0 L 151.0 158.5 L 156.0 157.5 L 159.5 156.0 " stroke="black" fill="none" stroke-width="7.0" stroke-linecap="round" stroke-linejoin="round" />
<path d="M 147.0 172.0 L 147.0 171.5 L 147.0 170.5 L 147.5 170.0 L 147.5 170.5 L 146.0 173.0 L 143.0 178.0 L 140.5 182.0 L 139.5 183.5 " stroke="black" fill="none" stroke-width="7.0" stroke-linecap="round" stroke-linejoin="round" />
<path d="M 157.5 170.0 L 157.5 170.0 L 157.5 169.5 L 158.0 169.0 L 158.0 169.5 L 159.5 171.5 L 162.0 174.0 L 164.5 176.0 L 165.0 176.0 " stroke="black" fill="none" stroke-width="7.0" stroke-linecap="round" stroke-linejoin="round" />
<path d="M 172.5 126.5 L 172.5 125.0 L 172.5 124.0 L 172.5 124.0 L 172.5 126.5 L 173.0 132.5 L 173.0 141.5 L 173.0 149.0 L 173.0 153.0 L 173.0 153.0 " stroke="black" fill="none" stroke-width="7.0" stroke-linecap="round" stroke-linejoin="round" />
<path d="M 179.5 108.5 L 180.5 109.0 L 181.0 110.0 L 181.0 111.0 L 181.5 114.0 L 182.0 121.0 L 182.5 131.0 L 182.5 143.5 L 183.0 157.0 L 183.0 168.0 L 183.5 176.0 L 183.5 179.5 L 182.5 180.0 L 181.0 180.5 L 179.0 180.5 L 177.5 180.5 L 176.5 179.5 " stroke="black" fill="none" stroke-width="7.0" stroke-linecap="round" stroke-linejoin="round" />
</svg>