<svg xmlns="http://www.w3.org/2000/svg" width="300" height="300" viewBox="0 0 300 300">
<path d="M 130.5 106.0 L 131.0 106.0 L 131.5 105.5 L 132.0 105.5 L 132.0 105.5 L 132.5 107.5 L 132.5 112.5 L 133.0 119.0 L 133.0 124.0 L 133.0 125.5 " stroke="black" fill="none" stroke-width="7.0" stroke-linecap="round" stroke-linejoin="round" />
<path d="M 123.0 115.0 L 122.5 115.0 L 121.5 115.0 L 121.0 115.0 L 121.0 115.0 L 121.0 115.0 L 121.0 117.0 L 120.5 121.0 L 120.0 126.0 L 120.0 130.5 L 121.5 132.5 L 124.0 133.0 L 127.5 133.0 L 131.0 132.0 L 134.0 130.5 L 136.5 130.0 L 139.0 129.5 L 139.5 129.0 " stroke="black" fill="none" stroke-width="7.0" stroke-linecap="round" stroke-linejoin="round" />
<path d="M 148.0 111.0 L 147.0 111.0 L 146.0 111.0 L 146.0 111.0 L 146.0 113.0 L 146.0 117.5 L 146.5 123.5 L 147.0 128.5 L 147.5 130.5 " stroke="black" fill="none" stroke-width="7.0" stroke-linecap="round" stroke-linejoin="round" />
<path d="M 121.0 146.0 L 121.0 146.0 L 120.0 145.5 L 119.5 145.5 L 119.5 145.0 L 122.5 145.0 L 128.0 144.0 L 134.0 143.5 L 138.5 143.5 L 140.5 143.5 L 140.5 143.5 " stroke="black" fill="none" stroke-width="7.0" stroke-linecap="round" stroke-linejoin="round" />
<path d="M 122.0 156.0 L 122.0 156.0 L 121.0 156.5 L 121.0 157.0 L 121.0 159.0 L 122.5 163.5 L 124.0 167.0 L 125.5 169.5 L 126.0 169.5 " stroke="black" fill="none" stroke-width="7.0" stroke-linecap="round" stroke-linejoin="round" />
<path d="M 125.0 159.0 L 124.5 159.0 L 123.0 159.0 L 123.0 159.0 L 125.0 158.0 L 129.0 157.0 L 133.5 156.0 L 137.5 155.5 L 140.5 155.5 L 142.5 155.5 L 143.0 155.5 L 143.0 156.0 L 143.0 158.0 L 142.5 160.5 L 141.0 163.5 L 139.5 166.0 L 139.5 166.0 " stroke="black" fill="none" stroke-width="7.0" stroke-linecap="round" stroke-linejoin="round" />
<path d="M 129.0 168.0 L 129.0 168.0 L 128.5 168.0 L 128.5 168.0 L 130.0 168.0 L 133.5 168.0 L 137.0 168.0 L 138.5 168.0 " stroke="black" fill="none" stroke-width="7.0" stroke-linecap="round" stroke-linejoin="round" />
<path d="M 123.5 181.5 L 123.0 181.5 L 122.5 182.0 L 122.0 182.5 L 123.0 184.0 L 125.5 187.0 L 127.5 189.5 L 129.0 190.5 " stroke="black" fill="none" stroke-width="7.0" stroke-linecap="round" stroke-linejoin="round" />
<path d="M 144.5 177.0 L 145.0 177.0 L 145.0 177.5 L 145.0 177.5 L 145.0 178.0 L 144.5 179.5 L 142.5 182.0 L 140.5 186.0 L 139.5 187.0 " stroke="black" fill="none" stroke-width="7.0" stroke-linecap="round" stroke-linejoin="round" />
<path d="M 122.0 200.5 L 121.0 201.0 L 119.5 202.0 L 119.5 202.0 L 123.0 202.0 L 128.5 201.5 L 134.0 200.5 L 141.5 198.5 L 145.0 197.0 " stroke="black" fill="none" stroke-width="7.0" stroke-linecap="round" stroke-linejoin="round" />
<path d="M 157.5 116.0 L 158.0 116.0 L 158.5 116.0 L 159.0 116.0 L 159.5 118.0 L 159.5 126.5 L 159.5 144.5 L 158.0 162.0 L 156.0 175.0 L 155.5 181.0 L 155.0 180.5 L 154.5 179.5 " stroke="black" fill="none" stroke-width="7.0" stroke-linecap="round" stroke-linejoin="round" />
<path d="M 160.5 114.5 L 159.5 115.5 L 159.0 115.5 L 159.0 115.5 L 159.5 115.5 L 162.0 115.0 L 164.5 114.0 L 167.5 113.0 L 171.0 112.0 L 173.0 112.0 L 174.5 112.0 L 175.0 112.5 L 175.5 113.5 L 175.5 115.0 L 175.5 116.0 L 175.5 117.5 L 175.5 120.0 L 175.5 123.0 L 175.5 127.0 L 175.5 131.0 L 175.5 136.5 L 174.5 143.5 L 174.0 150.0 L 174.0 156.0 L 174.0 162.0 L 174.0 167.0 L 175.0 172.0 L 175.5 176.5 L 176.5 179.5 L 178.0 181.5 L 180.0 182.0 L 182.0 182.0 L 185.0 180.5 L 189.0 177.0 L 192.5 172.5 L 194.5 168.0 L 195.0 165.5 L 195.0 164.0 L 193.5 162.5 L 192.0 161.0 L 191.0 160.0 L 190.0 159.5 L 190.0 158.5 " stroke="black" fill="none" stroke-width="7.0" stroke-linecap="round" stroke-linejoin="round" />
</svg>