<svg xmlns="http://www.w3.org/2000/svg" width="300" height="300" viewBox="0 0 300 300">
<path d="M 128.0 128.5 L 128.0 128.5 L 127.5 128.5 L 127.0 128.5 L 128.5 128.5 L 133.0 128.0 L 138.0 127.5 L 142.5 127.5 L 144.5 127.5 L 145.0 127.0 " stroke="black" fill="none" stroke-width="6.0" stroke-linecap="round" stroke-linejoin="round" />
<path d="M 135.5 116.0 L 135.5 116.0 L 135.5 116.0 L 135.5 116.5 L 135.5 116.5 L 135.5 118.5 L 136.0 123.0 L 136.5 128.5 L 136.5 132.0 L 136.5 133.5 " stroke="black" fill="none" stroke-width="6.0" stroke-linecap="round" stroke-linejoin="round" />
<path d="M 126.5 140.0 L 126.5 140.0 L 125.5 140.0 L 125.0 140.0 L 125.0 140.0 L 125.0 141.5 L 125.5 145.5 L 126.0 150.5 L 126.5 153.5 L 127.0 155.0 L 127.0 155.0 " stroke="black" fill="none" stroke-width="6.0" stroke-linecap="round" stroke-linejoin="round" />
<path d="M 128.0 141.5 L 128.0 141.5 L 127.5 141.0 L 127.5 140.5 L 127.5 140.5 L 129.0 140.5 L 132.0 140.5 L 136.0 140.5 L 140.0 140.5 L 143.0 139.5 L 145.0 139.5 L 146.0 139.5 L 146.5 139.5 L 146.5 139.5 L 146.5 140.0 L 146.5 140.0 L 146.5 140.5 L 146.0 142.0 L 145.5 144.0 L 145.0 147.0 L 144.5 150.0 L 144.0 152.5 L 144.0 153.5 " stroke="black" fill="none" stroke-width="6.0" stroke-linecap="round" stroke-linejoin="round" />
<path d="M 129.0 157.0 L 128.5 157.5 L 128.0 158.0 L 128.0 158.0 L 129.5 157.5 L 133.0 157.5 L 137.0 157.0 L 140.5 157.0 L 142.0 157.0 " stroke="black" fill="none" stroke-width="6.0" stroke-linecap="round" stroke-linejoin="round" />
<path d="M 140.0 158.0 L 140.0 158.0 L 140.0 158.0 L 140.0 158.5 L 140.0 158.5 L 140.0 159.0 L 140.0 161.0 L 140.0 163.5 L 140.0 167.5 L 140.0 172.0 L 140.5 174.5 L 141.5 176.0 L 143.0 176.5 L 145.0 176.5 L 147.5 177.0 L 150.5 177.0 L 155.5 176.5 L 162.0 175.5 L 168.5 175.0 L 173.0 174.5 L 176.5 174.5 L 179.0 174.5 L 180.0 174.0 L 181.0 174.0 L 181.5 173.5 L 182.0 173.0 L 182.0 173.0 L 182.0 173.0 L 182.0 173.0 L 181.5 173.0 L 181.5 173.0 L 181.5 172.0 L 181.5 171.0 L 181.5 169.5 L 181.5 167.5 L 181.5 166.0 L 181.0 165.5 L 180.5 165.5 " stroke="black" fill="none" stroke-width="6.0" stroke-linecap="round" stroke-linejoin="round" />
<path d="M 129.0 159.5 L 129.5 159.5 L 130.0 159.5 L 130.5 159.5 L 130.5 159.5 L 130.5 159.5 L 130.5 160.0 L 130.5 163.0 L 130.0 167.5 L 128.5 172.5 L 126.5 176.5 L 124.0 178.5 L 122.0 178.5 L 120.0 178.5 L 119.5 178.0 L 119.5 177.5 " stroke="black" fill="none" stroke-width="6.0" stroke-linecap="round" stroke-linejoin="round" />
<path d="M 154.5 122.5 L 154.5 122.5 L 154.5 122.0 L 154.5 122.0 L 155.0 122.0 L 156.5 121.5 L 159.0 121.5 L 162.5 121.5 L 165.0 121.5 L 167.0 121.0 L 168.0 121.0 " stroke="black" fill="none" stroke-width="6.0" stroke-linecap="round" stroke-linejoin="round" />
<path d="M 162.0 123.0 L 162.0 122.5 L 162.0 122.5 L 162.0 122.0 L 162.0 122.0 L 162.0 123.0 L 161.5 125.5 L 160.5 128.0 L 159.5 129.5 " stroke="black" fill="none" stroke-width="6.0" stroke-linecap="round" stroke-linejoin="round" />
<path d="M 155.5 135.5 L 155.5 135.5 L 155.5 135.0 L 155.5 135.0 L 155.5 135.0 L 155.5 135.0 L 156.0 136.5 L 156.0 141.0 L 156.0 147.5 L 156.0 152.5 L 156.0 154.0 L 155.5 153.5 " stroke="black" fill="none" stroke-width="6.0" stroke-linecap="round" stroke-linejoin="round" />
<path d="M 156.5 132.5 L 156.5 132.5 L 156.5 132.5 L 157.0 132.5 L 157.5 132.5 L 158.0 133.0 L 159.5 133.0 L 161.5 133.5 L 164.0 133.5 L 167.0 134.0 L 169.5 134.5 L 171.0 135.0 L 172.0 135.0 L 172.5 135.0 L 172.5 135.0 L 172.5 135.0 L 172.0 135.0 L 172.0 135.5 L 172.0 137.5 L 171.5 141.0 L 171.5 146.5 L 171.5 152.0 L 171.5 157.0 L 171.5 159.5 L 171.5 160.5 L 171.5 160.0 L 171.0 159.5 " stroke="black" fill="none" stroke-width="6.0" stroke-linecap="round" stroke-linejoin="round" />
<path d="M 158.0 147.0 L 158.0 147.0 L 157.5 146.5 L 157.0 146.5 L 156.5 146.0 L 157.0 146.0 L 159.5 146.0 L 162.5 146.5 L 166.0 147.0 L 168.5 147.0 L 169.0 147.0 " stroke="black" fill="none" stroke-width="6.0" stroke-linecap="round" stroke-linejoin="round" />
<path d="M 155.5 157.5 L 155.5 158.0 L 155.5 158.5 L 155.5 159.0 L 155.5 159.5 L 155.5 159.5 L 156.5 159.5 L 159.0 159.5 L 162.5 160.0 L 166.0 160.0 L 169.0 160.0 L 171.0 160.0 " stroke="black" fill="none" stroke-width="6.0" stroke-linecap="round" stroke-linejoin="round" />
</svg>