<svg xmlns="http://www.w3.org/2000/svg" width="300" height="300" viewBox="0 0 300 300">
<path d="M 137.0 115.0 L 137.0 115.0 L 137.0 115.5 L 137.5 116.0 L 137.5 116.5 L 138.0 118.0 L 138.5 122.5 L 138.5 131.5 L 138.5 146.0 L 137.0 160.0 L 135.0 171.0 L 132.5 178.0 L 130.5 182.0 L 129.0 183.0 L 128.5 182.5 L 128.0 180.0 " stroke="black" fill="none" stroke-width="6.0" stroke-linecap="round" stroke-linejoin="round" />
<path d="M 126.5 134.5 L 125.0 135.0 L 125.0 135.5 L 124.5 135.5 L 125.5 135.5 L 127.0 136.0 L 129.0 137.0 L 130.5 138.5 L 131.0 139.5 " stroke="black" fill="none" stroke-width="6.0" stroke-linecap="round" stroke-linejoin="round" />
<path d="M 126.0 160.0 L 125.0 161.5 L 125.0 161.5 L 126.5 160.0 L 129.5 157.0 L 132.0 154.5 L 134.5 152.5 " stroke="black" fill="none" stroke-width="6.0" stroke-linecap="round" stroke-linejoin="round" />
<path d="M 165.5 128.5 L 165.5 128.5 L 165.5 128.5 L 165.5 128.5 L 165.5 128.5 L 165.0 128.5 L 165.0 128.5 L 164.0 130.5 L 162.0 134.0 L 160.0 138.0 " stroke="black" fill="none" stroke-width="6.0" stroke-linecap="round" stroke-linejoin="round" />
<path d="M 155.0 148.0 L 155.0 148.0 L 155.5 148.0 L 156.5 148.5 L 157.5 148.5 L 160.5 149.5 L 164.0 151.0 L 167.5 152.0 L 170.0 152.0 " stroke="black" fill="none" stroke-width="6.0" stroke-linecap="round" stroke-linejoin="round" />
<path d="M 148.5 122.5 L 148.5 122.0 L 148.5 122.0 L 148.5 122.0 L 148.5 122.0 L 148.5 122.5 L 148.5 125.5 L 148.5 130.5 L 148.5 139.0 L 148.0 148.0 L 148.0 156.0 L 148.5 162.5 L 149.5 167.5 L 151.0 171.5 L 153.0 173.5 L 155.5 175.0 L 159.5 175.5 L 164.0 175.5 L 169.0 174.0 L 173.5 172.0 L 176.0 170.0 L 177.0 169.0 L 177.0 168.0 L 177.0 167.0 L 177.0 166.0 L 176.5 165.5 L 176.5 165.0 L 176.5 165.0 L 176.5 164.5 L 176.0 163.5 L 176.0 163.5 " stroke="black" fill="none" stroke-width="6.0" stroke-linecap="round" stroke-linejoin="round" />
</svg>