<svg xmlns="http://www.w3.org/2000/svg" width="300" height="300" viewBox="0 0 300 300">
<path d="M 120.0 120.5 L 119.5 119.5 L 119.5 119.0 L 120.0 122.0 L 122.0 131.0 L 123.5 147.0 L 124.5 162.5 L 125.0 167.5 L 126.0 165.0 L 126.5 162.5 " stroke="black" fill="none" stroke-width="8.0" stroke-linecap="round" stroke-linejoin="round" />
<path d="M 122.0 119.5 L 120.5 119.5 L 119.5 119.0 L 120.0 119.0 L 123.0 119.0 L 129.5 119.0 L 141.0 119.0 L 155.5 119.0 L 168.5 119.5 L 180.5 119.5 L 189.5 120.5 L 192.5 122.5 L 193.5 125.0 L 193.5 127.0 L 193.0 130.0 L 191.0 136.0 L 188.0 145.5 L 185.0 156.5 L 183.0 166.5 L 183.0 172.0 L 183.5 172.5 L 184.0 170.5 " stroke="black" fill="none" stroke-width="8.0" stroke-linecap="round" stroke-linejoin="round" />
<path d="M 132.0 142.5 L 132.0 142.0 L 132.0 141.0 L 133.0 141.0 L 138.0 141.5 L 148.5 143.0 L 160.5 143.5 L 172.0 143.0 L 179.0 139.5 L 180.0 138.5 " stroke="black" fill="none" stroke-width="8.0" stroke-linecap="round" stroke-linejoin="round" />
<path d="M 146.5 94.0 L 146.5 94.0 L 146.0 95.0 L 146.0 97.0 L 146.0 104.0 L 146.0 122.0 L 146.0 145.5 L 147.5 160.0 L 149.0 161.5 L 150.5 160.0 " stroke="black" fill="none" stroke-width="8.0" stroke-linecap="round" stroke-linejoin="round" />
<path d="M 171.5 99.0 L 171.0 101.5 L 170.5 106.0 L 170.0 116.5 L 169.0 132.5 L 167.5 147.5 L 166.5 156.0 L 166.0 158.0 L 165.5 158.5 " stroke="black" fill="none" stroke-width="8.0" stroke-linecap="round" stroke-linejoin="round" />
<path d="M 109.0 175.0 L 109.0 175.0 L 108.5 175.0 L 108.5 174.5 L 108.5 174.5 L 108.5 174.0 L 110.0 174.0 L 116.0 174.0 L 128.0 174.5 L 146.5 175.0 L 166.5 174.5 L 182.5 174.5 L 192.5 176.0 L 199.0 177.0 L 203.0 176.5 L 203.0 175.5 L 202.5 173.5 L 201.0 172.5 " stroke="black" fill="none" stroke-width="8.0" stroke-linecap="round" stroke-linejoin="round" />
<path d="M 145.5 188.5 L 145.5 188.0 L 145.5 187.5 L 145.5 187.0 L 145.5 188.0 L 142.5 193.0 L 138.0 201.0 L 133.5 209.0 L 133.0 211.0 L 133.0 211.0 " stroke="black" fill="none" stroke-width="8.0" stroke-linecap="round" stroke-linejoin="round" />
<path d="M 169.5 193.0 L 169.0 193.0 L 168.5 193.0 L 169.5 194.0 L 175.0 198.0 L 184.0 202.5 L 193.5 206.5 L 195.5 207.0 " stroke="black" fill="none" stroke-width="8.0" stroke-linecap="round" stroke-linejoin="round" />
</svg>