<svg xmlns="http://www.w3.org/2000/svg" width="300" height="300" viewBox="0 0 300 300">
<path d="M 123.0 122.5 L 122.0 121.5 L 121.5 121.0 L 121.5 121.0 L 122.5 123.0 L 125.5 126.5 L 128.0 130.0 L 130.5 132.0 L 131.5 133.0 L 132.0 133.0 " stroke="black" fill="none" stroke-width="6.0" stroke-linecap="round" stroke-linejoin="round" />
<path d="M 122.5 172.0 L 122.5 172.5 L 121.5 173.0 L 121.5 173.0 L 122.5 171.5 L 125.0 168.5 L 127.5 165.0 L 129.5 162.0 L 131.5 159.5 L 131.5 158.5 " stroke="black" fill="none" stroke-width="6.0" stroke-linecap="round" stroke-linejoin="round" />
<path d="M 154.5 116.0 L 155.0 115.0 L 155.5 114.5 L 156.0 114.0 L 156.0 113.5 L 156.0 113.5 L 156.0 115.0 L 154.0 120.0 L 149.5 126.5 L 145.0 133.0 L 141.5 136.5 L 141.0 137.0 " stroke="black" fill="none" stroke-width="6.0" stroke-linecap="round" stroke-linejoin="round" />
<path d="M 157.5 117.0 L 158.0 117.0 L 158.5 117.0 L 159.0 117.0 L 160.5 117.5 L 163.0 121.0 L 167.0 126.0 L 171.5 130.0 L 174.5 133.0 L 175.5 134.0 L 175.5 134.5 " stroke="black" fill="none" stroke-width="6.0" stroke-linecap="round" stroke-linejoin="round" />
<path d="M 154.0 140.5 L 154.0 140.5 L 154.5 140.5 L 154.5 140.5 L 155.0 140.5 L 156.5 140.5 L 158.5 140.0 L 161.0 139.0 L 164.0 138.0 L 166.0 137.5 L 167.0 137.0 " stroke="black" fill="none" stroke-width="6.0" stroke-linecap="round" stroke-linejoin="round" />
<path d="M 148.5 148.5 L 147.5 149.0 L 147.0 149.5 L 147.0 149.5 L 150.0 149.5 L 154.5 149.5 L 159.5 149.0 L 164.5 148.5 L 168.0 148.0 L 170.0 148.0 L 170.5 148.5 L 171.0 149.0 L 171.0 149.5 L 170.0 151.5 L 168.0 154.5 L 165.0 158.5 L 162.5 162.0 L 161.0 165.0 L 160.5 166.0 " stroke="black" fill="none" stroke-width="6.0" stroke-linecap="round" stroke-linejoin="round" />
<path d="M 151.0 164.0 L 151.0 163.0 L 151.0 163.0 L 152.5 163.5 L 157.0 167.0 L 163.5 171.0 L 169.5 174.5 L 173.5 177.0 L 175.0 177.0 " stroke="black" fill="none" stroke-width="6.0" stroke-linecap="round" stroke-linejoin="round" />
</svg>