<svg xmlns="http://www.w3.org/2000/svg" width="300" height="300" viewBox="0 0 300 300">
<path d="M 127.5 125.5 L 126.5 125.5 L 125.5 125.0 L 125.0 125.0 L 124.5 124.5 L 125.0 124.5 L 127.5 124.0 L 131.5 124.0 L 137.0 124.0 L 142.0 124.0 L 144.0 123.5 L 144.5 123.5 L 144.5 123.5 " stroke="black" fill="none" stroke-width="6.0" stroke-linecap="round" stroke-linejoin="round" />
<path d="M 134.0 114.5 L 134.5 114.5 L 135.0 115.0 L 135.0 115.5 L 135.0 115.5 L 135.5 117.5 L 135.5 122.0 L 135.5 128.5 L 134.5 133.5 L 134.5 136.0 L 134.5 136.5 " stroke="black" fill="none" stroke-width="6.0" stroke-linecap="round" stroke-linejoin="round" />
<path d="M 123.5 140.5 L 122.5 140.5 L 122.0 140.5 L 122.0 140.5 L 122.0 142.5 L 123.0 147.0 L 124.0 153.0 L 124.5 157.0 L 125.0 158.5 L 125.5 157.0 L 125.5 156.0 " stroke="black" fill="none" stroke-width="6.0" stroke-linecap="round" stroke-linejoin="round" />
<path d="M 127.0 140.0 L 126.5 140.5 L 126.0 140.5 L 126.0 141.0 L 126.5 141.0 L 128.5 141.0 L 132.0 140.5 L 136.0 140.5 L 141.0 140.0 L 145.0 140.0 L 147.0 140.0 L 147.5 140.0 L 147.0 140.0 L 146.5 140.5 L 146.0 141.0 L 145.0 142.5 L 144.5 145.0 L 144.0 148.5 L 143.5 152.0 L 143.5 155.5 L 143.5 157.0 L 143.5 157.0 L 143.5 157.0 " stroke="black" fill="none" stroke-width="6.0" stroke-linecap="round" stroke-linejoin="round" />
<path d="M 128.0 158.5 L 127.0 159.0 L 126.0 159.5 L 126.0 160.0 L 127.0 160.0 L 131.0 159.5 L 135.5 159.5 L 140.0 159.0 L 143.0 158.5 L 143.5 158.5 " stroke="black" fill="none" stroke-width="6.0" stroke-linecap="round" stroke-linejoin="round" />
<path d="M 137.0 161.5 L 137.0 161.5 L 137.5 161.0 L 138.0 161.0 L 138.5 161.0 L 138.5 161.0 L 138.5 161.0 L 138.5 162.0 L 138.5 163.5 L 138.5 166.0 L 138.0 169.5 L 137.5 173.5 L 137.5 177.0 L 137.5 179.5 L 137.5 181.0 L 137.5 181.5 L 138.0 181.5 L 138.0 182.0 L 138.0 182.0 L 138.5 182.0 L 139.0 182.0 L 140.0 182.0 L 141.5 182.0 L 143.5 182.0 L 146.0 181.5 L 150.5 181.5 L 156.5 180.5 L 163.5 180.0 L 170.5 180.0 L 175.5 180.0 L 179.0 180.0 L 180.5 180.0 L 182.0 179.5 L 183.0 179.0 L 185.0 178.5 L 186.5 178.0 L 188.5 177.5 L 190.0 177.5 L 190.5 177.5 L 190.5 177.5 L 190.5 177.5 L 190.5 177.5 L 190.0 177.5 L 190.0 177.5 L 190.0 177.5 L 190.0 177.0 L 190.0 176.5 L 190.0 175.5 L 190.0 173.0 L 190.0 170.0 L 189.5 166.5 L 189.5 164.5 L 189.5 164.0 L 189.0 164.0 " stroke="black" fill="none" stroke-width="6.0" stroke-linecap="round" stroke-linejoin="round" />
<path d="M 129.5 162.0 L 129.5 162.0 L 129.5 162.0 L 129.5 162.0 L 130.0 162.0 L 130.0 162.0 L 130.0 162.0 L 130.0 163.0 L 129.5 166.5 L 128.0 172.5 L 126.0 178.0 L 123.5 182.0 L 120.0 183.5 L 117.0 183.5 L 116.0 183.5 L 116.0 183.0 L 117.5 182.0 " stroke="black" fill="none" stroke-width="6.0" stroke-linecap="round" stroke-linejoin="round" />
<path d="M 155.0 118.5 L 155.0 118.5 L 155.0 118.5 L 155.0 118.5 L 155.0 118.5 L 155.0 118.5 L 156.0 118.5 L 159.0 118.5 L 164.5 118.0 L 171.0 117.5 L 175.5 117.0 L 177.5 117.0 L 177.5 116.5 L 177.5 116.5 L 177.5 116.5 L 177.0 116.5 L 176.5 116.5 " stroke="black" fill="none" stroke-width="6.0" stroke-linecap="round" stroke-linejoin="round" />
<path d="M 153.0 120.0 L 153.0 119.5 L 153.5 119.0 L 153.5 119.0 L 153.5 119.0 L 153.5 119.0 L 154.0 119.0 L 154.0 120.5 L 154.0 123.5 L 154.0 127.5 L 154.0 132.5 L 154.0 137.5 L 154.0 142.0 L 154.0 146.0 L 154.0 149.0 L 154.0 152.0 L 154.0 155.0 L 154.0 157.5 L 153.5 160.0 L 153.0 162.0 L 152.5 164.0 L 151.5 166.0 L 151.0 168.0 L 150.5 169.0 L 150.0 169.5 L 149.5 170.0 L 149.5 170.0 L 149.5 169.5 " stroke="black" fill="none" stroke-width="6.0" stroke-linecap="round" stroke-linejoin="round" />
<path d="M 161.5 130.5 L 161.5 130.5 L 161.0 130.5 L 161.0 130.5 L 160.5 130.5 L 160.5 130.5 L 161.0 132.5 L 161.5 135.5 L 162.0 139.5 L 163.0 142.0 L 163.5 142.5 " stroke="black" fill="none" stroke-width="6.0" stroke-linecap="round" stroke-linejoin="round" />
<path d="M 163.0 130.0 L 162.5 130.0 L 161.5 130.5 L 161.5 130.5 L 161.5 130.5 L 162.5 130.5 L 165.0 130.5 L 167.5 130.0 L 170.5 130.0 L 173.5 129.5 L 175.5 129.5 L 177.5 129.0 L 178.5 129.0 L 179.5 129.0 L 179.5 129.0 L 179.5 129.0 L 179.5 129.5 L 180.0 130.0 L 180.0 130.5 L 180.0 132.0 L 180.0 134.0 L 180.0 136.0 L 180.0 139.0 L 180.0 141.0 L 179.5 143.0 L 179.5 143.5 " stroke="black" fill="none" stroke-width="6.0" stroke-linecap="round" stroke-linejoin="round" />
<path d="M 166.0 138.5 L 165.5 138.5 L 165.0 139.0 L 165.0 139.0 L 166.5 139.0 L 169.5 139.0 L 172.5 139.5 L 174.5 139.5 L 175.0 139.5 " stroke="black" fill="none" stroke-width="6.0" stroke-linecap="round" stroke-linejoin="round" />
<path d="M 165.5 147.5 L 164.5 147.5 L 164.0 147.0 L 164.5 147.0 L 166.5 147.0 L 169.5 147.0 L 172.5 147.5 L 174.5 147.5 L 175.0 147.5 " stroke="black" fill="none" stroke-width="6.0" stroke-linecap="round" stroke-linejoin="round" />
<path d="M 163.5 156.5 L 163.0 156.5 L 162.5 157.0 L 162.5 157.5 L 163.0 157.5 L 164.0 157.5 L 165.0 157.0 L 166.0 157.0 L 167.0 156.5 L 168.0 156.5 L 169.0 156.5 L 170.0 156.5 L 171.0 156.0 L 172.0 156.0 L 173.5 156.0 L 174.5 156.0 L 175.5 156.0 L 176.0 156.0 L 176.5 156.0 L 176.5 156.0 " stroke="black" fill="none" stroke-width="6.0" stroke-linecap="round" stroke-linejoin="round" />
<path d="M 170.0 134.0 L 170.0 133.5 L 169.5 133.0 L 169.5 132.5 L 169.5 132.5 L 169.5 132.5 L 169.5 133.0 L 169.5 134.5 L 169.5 137.0 L 169.5 140.0 L 170.0 144.0 L 170.0 148.0 L 170.0 151.0 L 170.5 154.0 L 170.5 156.5 L 170.5 158.5 L 170.5 160.5 L 170.5 161.5 L 170.0 162.5 L 170.0 163.5 L 170.0 164.5 L 170.0 165.0 L 170.0 165.5 L 170.0 166.0 L 170.0 166.5 L 170.0 166.5 L 170.0 166.5 L 170.0 166.5 L 170.0 166.0 L 170.0 166.0 " stroke="black" fill="none" stroke-width="6.0" stroke-linecap="round" stroke-linejoin="round" />
<path d="M 160.0 168.0 L 159.5 168.0 L 159.5 168.0 L 159.0 168.0 L 159.0 168.0 L 160.5 168.0 L 164.0 167.5 L 168.0 167.5 L 172.5 167.5 L 176.0 167.5 L 178.0 167.5 L 179.0 167.0 L 179.0 167.0 L 179.0 167.0 L 178.5 167.0 " stroke="black" fill="none" stroke-width="6.0" stroke-linecap="round" stroke-linejoin="round" />
</svg>