<svg xmlns="http://www.w3.org/2000/svg" width="300" height="300" viewBox="0 0 300 300">
<path d="M 138.0 77.0 L 138.0 77.0 L 137.0 78.0 L 136.0 78.0 L 136.0 78.0 L 135.0 78.0 L 135.0 78.0 L 133.0 80.0 L 131.0 84.0 L 124.0 91.0 L 114.0 102.0 L 103.0 114.0 L 95.0 124.0 L 88.0 131.0 L 80.0 137.0 L 73.0 141.0 L 71.0 143.0 L 73.0 141.0 L 73.0 140.0 " stroke="black" fill="none" stroke-width="16.0" stroke-linecap="round" stroke-linejoin="round" />
<path d="M 115.0 101.0 L 115.0 101.0 L 115.0 101.0 L 115.0 101.0 L 115.0 101.0 L 116.0 101.0 L 119.0 101.0 L 125.0 101.0 L 137.0 100.0 L 153.0 96.0 L 167.0 94.0 L 177.0 94.0 L 184.0 95.0 L 188.0 97.0 L 192.0 98.0 L 195.0 98.0 L 198.0 98.0 L 200.0 98.0 L 202.0 98.0 L 202.0 99.0 L 203.0 99.0 L 203.0 99.0 L 203.0 99.0 L 203.0 99.0 L 203.0 99.0 L 203.0 100.0 L 203.0 100.0 L 203.0 100.0 L 203.0 100.0 L 203.0 100.0 L 203.0 101.0 L 202.0 102.0 L 200.0 103.0 L 198.0 105.0 L 195.0 108.0 L 189.0 113.0 L 182.0 119.0 L 175.0 126.0 L 168.0 132.0 L 160.0 138.0 L 152.0 142.0 L 144.0 148.0 L 135.0 154.0 L 126.0 160.0 L 116.0 165.0 L 106.0 169.0 L 97.0 172.0 L 88.0 177.0 L 80.0 182.0 L 77.0 184.0 L 76.0 184.0 L 76.0 183.0 L 78.0 180.0 L 80.0 178.0 " stroke="black" fill="none" stroke-width="16.0" stroke-linecap="round" stroke-linejoin="round" />
<path d="M 119.0 122.0 L 119.0 122.0 L 119.0 122.0 L 119.0 122.0 L 119.0 122.0 L 124.0 124.0 L 135.0 132.0 L 155.0 146.0 L 177.0 158.0 L 194.0 165.0 L 206.0 169.0 L 213.0 170.0 L 215.0 170.0 L 215.0 169.0 L 215.0 169.0 " stroke="black" fill="none" stroke-width="16.0" stroke-linecap="round" stroke-linejoin="round" />
<path d="M 129.0 183.0 L 129.0 183.0 L 128.0 183.0 L 128.0 183.0 L 129.0 184.0 L 137.0 186.0 L 151.0 191.0 L 170.0 197.0 L 184.0 202.0 L 191.0 205.0 L 192.0 206.0 " stroke="black" fill="none" stroke-width="16.0" stroke-linecap="round" stroke-linejoin="round" />
<path d="M 120.0 222.0 L 120.0 222.0 L 120.0 222.0 L 125.0 224.0 L 141.0 233.0 L 163.0 246.0 L 178.0 254.0 L 186.0 259.0 " stroke="black" fill="none" stroke-width="16.0" stroke-linecap="round" stroke-linejoin="round" />
</svg>