<svg xmlns="http://www.w3.org/2000/svg" width="300" height="300" viewBox="0 0 300 300">
<path d="M 110.0 93.0 L 110.0 93.5 L 109.5 95.0 L 110.0 97.5 L 112.5 100.5 L 115.5 103.0 L 117.0 103.5 L 117.0 103.5 " stroke="black" fill="none" stroke-width="8.0" stroke-linecap="round" stroke-linejoin="round" />
<path d="M 101.0 114.5 L 100.0 114.5 L 100.0 114.5 L 100.5 114.5 L 104.5 114.5 L 111.0 113.5 L 118.5 112.5 L 124.0 111.5 L 126.0 111.0 L 126.0 111.0 L 126.0 112.0 L 126.0 112.5 L 125.5 113.0 L 125.5 113.0 L 125.5 113.5 L 125.5 114.0 L 125.0 115.0 L 125.0 116.0 L 124.5 116.5 L 124.5 117.5 L 124.0 118.5 L 123.5 120.0 L 122.5 122.0 L 121.0 124.5 L 120.0 127.0 L 119.0 129.0 L 117.5 131.0 L 116.0 133.5 L 114.0 136.5 L 112.0 139.0 L 109.0 142.0 L 105.0 145.0 L 101.5 147.5 L 99.5 149.5 L 99.0 150.0 L 99.5 149.5 L 100.0 149.0 " stroke="black" fill="none" stroke-width="8.0" stroke-linecap="round" stroke-linejoin="round" />
<path d="M 113.5 141.0 L 113.5 141.0 L 113.5 140.5 L 113.5 140.5 L 114.0 142.5 L 115.0 148.5 L 117.0 162.5 L 118.5 178.0 L 119.0 190.0 L 118.0 197.5 L 117.5 200.5 L 117.5 201.0 L 116.5 199.0 " stroke="black" fill="none" stroke-width="8.0" stroke-linecap="round" stroke-linejoin="round" />
<path d="M 135.0 130.5 L 135.0 130.5 L 135.0 130.5 L 135.0 131.0 L 134.0 133.0 L 132.0 136.5 L 130.0 139.0 L 130.0 139.5 " stroke="black" fill="none" stroke-width="8.0" stroke-linecap="round" stroke-linejoin="round" />
<path d="M 120.0 150.0 L 119.5 150.5 L 119.5 150.5 L 121.5 152.0 L 126.0 155.0 L 131.0 158.0 L 135.5 159.5 L 136.5 159.5 " stroke="black" fill="none" stroke-width="8.0" stroke-linecap="round" stroke-linejoin="round" />
<path d="M 163.0 114.0 L 163.0 114.0 L 163.0 114.0 L 163.0 114.0 L 163.0 114.0 L 163.0 114.5 L 163.0 117.5 L 163.5 125.5 L 162.0 140.5 L 159.5 156.0 L 156.5 169.0 L 153.0 179.0 L 150.5 186.5 L 149.5 189.0 L 149.0 189.0 L 148.5 187.5 " stroke="black" fill="none" stroke-width="8.0" stroke-linecap="round" stroke-linejoin="round" />
<path d="M 152.0 112.5 L 152.0 112.5 L 151.5 112.5 L 151.0 112.5 L 153.5 112.5 L 159.0 111.5 L 166.5 111.5 L 174.0 111.5 L 181.5 111.0 L 188.5 109.5 L 192.5 108.5 L 192.5 108.0 L 192.0 108.0 L 191.5 108.0 L 191.5 108.5 L 191.0 108.5 L 191.0 109.0 L 191.0 109.5 L 191.0 110.0 L 191.0 110.5 L 191.0 111.5 L 191.0 113.0 L 191.0 115.5 L 191.0 119.0 L 191.0 123.5 L 191.0 128.5 L 191.5 133.5 L 192.0 139.0 L 192.0 145.5 L 192.5 152.0 L 193.0 158.0 L 193.5 164.0 L 193.5 168.5 L 194.0 173.5 L 194.0 178.5 L 194.0 182.5 L 194.0 185.5 L 194.0 188.5 L 194.0 191.5 L 194.0 194.5 L 194.0 197.5 L 194.0 199.5 L 194.0 200.5 L 193.5 201.5 L 192.5 202.5 L 191.5 203.5 L 190.0 204.0 L 188.0 204.0 L 185.0 203.5 L 182.0 202.5 L 180.5 201.5 L 179.0 201.0 L 178.5 199.5 " stroke="black" fill="none" stroke-width="8.0" stroke-linecap="round" stroke-linejoin="round" />
</svg>