<svg xmlns="http://www.w3.org/2000/svg" width="300" height="300" viewBox="0 0 300 300">
<path d="M 130.5 118.5 L 131.0 118.0 L 131.5 117.5 L 131.5 117.0 L 131.5 116.5 L 130.5 116.5 L 129.0 116.5 L 126.5 117.5 L 124.0 118.0 L 121.0 119.5 L 118.5 120.5 L 117.0 121.5 L 116.0 122.0 L 116.0 122.5 L 116.0 122.5 L 116.0 122.5 L 116.5 122.5 L 116.5 122.5 L 116.5 123.0 L 117.0 123.0 L 117.0 124.0 L 117.5 125.0 L 118.0 126.5 L 118.5 129.5 L 119.5 134.0 L 120.5 139.5 L 121.5 144.0 L 122.5 147.0 L 123.0 148.5 L 123.0 148.5 L 123.0 148.5 L 123.0 148.0 L 124.5 146.5 L 126.5 145.0 L 129.0 143.0 L 132.0 141.0 L 134.0 139.0 L 135.5 137.5 L 135.5 137.5 " stroke="black" fill="none" stroke-width="7.0" stroke-linecap="round" stroke-linejoin="round" />
<path d="M 130.5 132.0 L 130.5 132.0 L 131.0 131.5 L 131.0 131.5 L 132.5 131.5 L 135.5 135.0 L 139.0 138.5 L 141.5 141.5 L 142.5 142.5 " stroke="black" fill="none" stroke-width="7.0" stroke-linecap="round" stroke-linejoin="round" />
<path d="M 150.5 123.0 L 150.5 122.5 L 150.5 121.5 L 151.0 121.5 L 151.0 121.5 L 151.0 124.0 L 150.0 129.5 L 149.0 136.5 L 148.0 141.0 L 147.5 142.0 " stroke="black" fill="none" stroke-width="7.0" stroke-linecap="round" stroke-linejoin="round" />
<path d="M 145.0 119.5 L 143.5 119.5 L 142.0 119.5 L 142.0 119.5 L 142.0 119.5 L 144.0 119.5 L 147.5 119.0 L 151.0 118.0 L 154.5 118.0 L 158.0 118.0 L 161.0 118.5 L 162.5 119.0 L 164.0 120.0 L 165.0 120.5 L 166.0 121.5 L 166.5 122.5 L 167.0 124.0 L 167.5 125.5 L 168.0 127.0 L 168.0 130.0 L 168.0 133.0 L 168.0 137.0 L 166.5 140.5 L 165.5 143.5 L 163.5 145.5 L 161.0 146.5 L 159.0 146.5 L 158.0 146.0 " stroke="black" fill="none" stroke-width="7.0" stroke-linecap="round" stroke-linejoin="round" />
<path d="M 135.0 157.0 L 136.0 157.0 L 136.5 157.0 L 137.0 156.5 L 137.0 156.5 L 136.0 157.0 L 133.0 160.0 L 128.5 164.5 L 124.5 168.5 L 121.5 170.0 L 121.5 169.5 L 122.5 168.5 " stroke="black" fill="none" stroke-width="7.0" stroke-linecap="round" stroke-linejoin="round" />
<path d="M 138.0 155.0 L 138.0 155.0 L 139.0 156.0 L 141.5 156.0 L 145.5 157.5 L 151.5 160.0 L 156.5 162.0 L 159.5 164.0 L 161.0 164.5 L 161.0 165.0 L 161.0 165.0 " stroke="black" fill="none" stroke-width="7.0" stroke-linecap="round" stroke-linejoin="round" />
<path d="M 130.5 174.5 L 130.5 175.0 L 130.5 175.5 L 131.5 175.5 L 134.0 175.0 L 139.5 173.0 L 145.0 171.5 L 149.5 170.5 L 152.0 170.5 L 153.0 171.0 " stroke="black" fill="none" stroke-width="7.0" stroke-linecap="round" stroke-linejoin="round" />
<path d="M 135.0 185.5 L 135.0 184.5 L 135.0 184.0 L 135.0 184.0 L 135.0 184.0 L 137.0 183.5 L 141.0 183.5 L 147.0 183.0 L 151.5 182.5 L 154.0 182.0 L 154.5 181.5 " stroke="black" fill="none" stroke-width="7.0" stroke-linecap="round" stroke-linejoin="round" />
<path d="M 146.0 175.0 L 145.0 175.5 L 144.5 175.5 L 144.5 176.0 L 144.5 176.5 L 144.5 179.5 L 145.5 185.0 L 146.0 191.0 L 147.0 195.5 L 147.0 196.5 " stroke="black" fill="none" stroke-width="7.0" stroke-linecap="round" stroke-linejoin="round" />
<path d="M 132.5 194.0 L 132.5 194.0 L 132.5 194.5 L 133.0 194.5 L 134.5 194.5 L 137.5 195.0 L 140.5 195.0 " stroke="black" fill="none" stroke-width="7.0" stroke-linecap="round" stroke-linejoin="round" />
<path d="M 162.0 191.5 L 162.0 191.5 L 162.0 192.0 L 161.5 192.0 L 161.0 192.5 L 160.5 193.5 L 159.5 194.5 L 159.0 195.0 " stroke="black" fill="none" stroke-width="7.0" stroke-linecap="round" stroke-linejoin="round" />
<path d="M 135.0 205.5 L 135.0 205.5 L 135.5 205.5 L 136.0 205.5 L 137.0 205.5 L 140.5 205.0 L 147.0 205.0 L 154.0 204.5 L 159.5 203.5 L 161.0 202.5 " stroke="black" fill="none" stroke-width="7.0" stroke-linecap="round" stroke-linejoin="round" />
<path d="M 177.5 140.0 L 178.5 139.0 L 179.0 139.0 L 179.5 139.0 L 179.5 140.5 L 180.0 147.0 L 180.0 159.5 L 180.0 171.0 L 180.0 174.0 L 180.0 172.5 " stroke="black" fill="none" stroke-width="7.0" stroke-linecap="round" stroke-linejoin="round" />
<path d="M 189.5 118.0 L 189.5 117.5 L 189.0 117.0 L 188.5 117.0 L 188.5 117.0 L 189.0 118.5 L 189.5 123.5 L 190.5 133.5 L 191.5 149.0 L 192.5 165.5 L 193.5 176.0 L 193.5 184.0 L 193.5 190.5 L 192.0 194.5 L 190.0 197.0 L 188.5 198.0 L 187.0 198.0 L 184.5 197.0 L 183.0 196.0 L 182.0 195.5 " stroke="black" fill="none" stroke-width="7.0" stroke-linecap="round" stroke-linejoin="round" />
</svg>