<svg xmlns="http://www.w3.org/2000/svg" width="300" height="300" viewBox="0 0 300 300">
<path d="M 128.5 130.0 L 128.5 130.0 L 128.5 130.0 L 128.5 130.5 L 128.5 133.0 L 128.5 141.5 L 127.0 156.5 L 124.5 170.0 L 123.5 176.0 L 123.5 175.5 L 123.5 173.0 " stroke="black" fill="none" stroke-width="6.0" stroke-linecap="round" stroke-linejoin="round" />
<path d="M 120.0 144.5 L 118.5 144.0 L 117.5 144.0 L 118.5 144.0 L 122.5 144.0 L 128.5 143.5 L 135.0 142.0 L 140.5 141.0 L 143.5 140.0 L 144.5 139.5 L 144.5 139.5 L 144.0 139.5 L 144.0 139.5 L 144.0 141.0 L 144.0 143.0 L 144.0 147.5 L 144.5 153.5 L 144.5 160.5 L 144.5 167.5 L 144.0 172.5 L 142.5 175.0 L 140.5 175.5 L 139.0 174.0 L 137.5 170.5 L 137.5 169.5 " stroke="black" fill="none" stroke-width="6.0" stroke-linecap="round" stroke-linejoin="round" />
<path d="M 157.0 140.0 L 157.5 139.0 L 157.5 138.5 L 158.0 139.0 L 158.5 143.0 L 159.0 149.0 L 159.5 155.0 L 160.0 158.0 L 160.0 158.0 " stroke="black" fill="none" stroke-width="6.0" stroke-linecap="round" stroke-linejoin="round" />
<path d="M 158.5 144.0 L 158.5 143.5 L 158.5 142.5 L 159.5 141.5 L 162.5 140.5 L 166.0 139.0 L 169.5 138.5 L 172.0 138.5 L 173.5 139.0 L 174.5 140.5 L 175.0 142.0 L 175.0 144.0 L 175.0 147.0 L 174.5 151.0 L 173.0 155.5 L 171.5 159.5 L 170.5 161.0 " stroke="black" fill="none" stroke-width="6.0" stroke-linecap="round" stroke-linejoin="round" />
<path d="M 161.5 164.5 L 161.5 164.5 L 161.5 164.0 L 163.0 163.5 L 167.0 163.0 L 171.5 162.5 L 173.0 162.5 " stroke="black" fill="none" stroke-width="6.0" stroke-linecap="round" stroke-linejoin="round" />
</svg>