<svg xmlns="http://www.w3.org/2000/svg" width="300" height="300" viewBox="0 0 300 300">
<path d="M 116.1111111111111 117.77777777777779 L 115.55555555555556 117.77777777777779 L 114.44444444444444 117.77777777777779 L 113.8888888888889 117.22222222222221 L 116.66666666666667 116.66666666666667 L 122.22222222222221 115.55555555555556 L 130.55555555555557 113.33333333333333 L 137.7777777777778 111.66666666666667 L 142.7777777777778 111.11111111111111 L 145.55555555555557 110.0 L 146.11111111111111 110.0 " stroke="black" fill="none" stroke-width="7.0" stroke-linecap="round" stroke-linejoin="round" />
<path d="M 117.22222222222221 144.44444444444446 L 116.66666666666667 144.44444444444446 L 116.66666666666667 143.8888888888889 L 120.55555555555556 142.7777777777778 L 127.22222222222221 141.11111111111111 L 134.44444444444446 140.00000000000003 L 140.00000000000003 138.33333333333334 L 142.7777777777778 136.66666666666669 " stroke="black" fill="none" stroke-width="7.0" stroke-linecap="round" stroke-linejoin="round" />
<path d="M 126.66666666666667 118.8888888888889 L 126.1111111111111 118.33333333333333 L 126.1111111111111 117.77777777777779 L 126.1111111111111 118.33333333333333 L 126.1111111111111 122.22222222222221 L 126.1111111111111 133.8888888888889 L 124.44444444444444 153.33333333333334 L 121.1111111111111 169.44444444444446 L 119.44444444444444 173.33333333333334 L 118.8888888888889 171.11111111111114 L 118.8888888888889 170.55555555555557 " stroke="black" fill="none" stroke-width="7.0" stroke-linecap="round" stroke-linejoin="round" />
<path d="M 137.7777777777778 117.22222222222221 L 138.33333333333334 117.22222222222221 L 138.8888888888889 118.33333333333333 L 139.44444444444446 120.55555555555556 L 139.44444444444446 127.22222222222221 L 140.00000000000003 141.66666666666669 L 140.00000000000003 157.7777777777778 L 140.55555555555557 166.11111111111114 L 141.11111111111111 167.7777777777778 " stroke="black" fill="none" stroke-width="7.0" stroke-linecap="round" stroke-linejoin="round" />
<path d="M 158.8888888888889 119.44444444444444 L 158.8888888888889 119.44444444444444 L 158.8888888888889 120.00000000000001 L 158.8888888888889 123.33333333333333 L 159.44444444444446 134.44444444444446 L 159.44444444444446 148.8888888888889 L 159.44444444444446 154.44444444444446 L 159.44444444444446 153.8888888888889 " stroke="black" fill="none" stroke-width="7.0" stroke-linecap="round" stroke-linejoin="round" />
<path d="M 172.22222222222223 103.33333333333333 L 171.11111111111114 103.33333333333333 L 170.55555555555557 103.88888888888889 L 170.55555555555557 106.11111111111111 L 171.11111111111114 111.66666666666667 L 172.22222222222223 122.22222222222221 L 173.33333333333334 138.33333333333334 L 173.33333333333334 152.7777777777778 L 172.7777777777778 164.44444444444446 L 171.66666666666669 172.22222222222223 L 171.11111111111114 178.33333333333334 L 169.44444444444446 181.11111111111114 L 167.7777777777778 181.66666666666669 L 165.00000000000003 181.11111111111114 L 162.22222222222223 178.33333333333334 L 161.66666666666669 177.22222222222223 " stroke="black" fill="none" stroke-width="7.0" stroke-linecap="round" stroke-linejoin="round" />
</svg>