<svg xmlns="http://www.w3.org/2000/svg" width="300" height="300" viewBox="0 0 300 300">
<path d="M 128.0 111.0 L 128.0 111.0 L 128.0 110.0 L 128.0 109.0 L 128.0 108.5 L 128.0 108.5 L 128.0 108.5 L 128.0 108.5 L 127.5 108.5 L 127.5 108.5 L 127.5 108.5 L 127.5 108.5 L 127.5 108.5 L 127.5 108.5 L 127.5 109.0 L 127.5 111.0 L 127.5 113.5 L 127.5 117.5 L 128.0 122.5 L 128.0 127.0 L 128.0 131.5 L 128.0 135.0 L 128.0 137.5 L 128.0 139.5 L 128.0 141.0 L 128.0 142.5 L 128.0 144.5 L 128.0 145.5 L 128.0 147.0 L 128.5 147.5 L 128.5 147.5 L 128.5 147.5 L 128.5 147.5 L 129.0 147.5 L 129.0 147.5 L 130.0 147.0 L 131.0 147.0 L 132.5 147.0 L 135.5 147.0 L 139.5 147.0 L 144.5 147.0 L 149.5 146.0 L 154.0 145.0 L 158.0 144.5 L 161.0 144.5 L 163.0 144.5 L 164.5 144.5 L 166.5 144.5 L 168.0 144.5 L 169.0 145.0 L 170.0 145.0 L 170.5 145.0 L 170.5 145.0 L 170.5 145.0 L 170.5 145.0 L 170.5 145.0 L 170.5 145.0 L 170.5 145.0 L 171.0 145.0 L 171.0 145.0 L 171.0 145.0 L 171.0 145.0 L 171.5 145.0 L 171.5 145.0 L 171.5 145.0 L 171.5 145.0 L 171.5 145.0 L 171.5 145.0 L 171.5 145.5 L 171.5 147.0 L 171.5 149.5 L 171.5 153.0 L 171.5 157.5 L 171.0 162.0 L 171.0 166.0 L 171.0 169.5 L 171.0 172.0 L 171.0 173.0 L 171.0 173.5 L 171.0 173.5 L 171.0 173.5 L 171.0 173.5 L 171.0 173.5 L 171.0 173.5 L 171.0 173.0 L 171.0 173.0 L 171.0 172.5 " stroke="black" fill="none" stroke-width="7.0" stroke-linecap="round" stroke-linejoin="round" />
<path d="M 170.0 107.5 L 170.0 107.5 L 170.0 107.5 L 169.5 107.5 L 169.5 107.5 L 169.0 107.5 L 168.5 107.5 L 168.0 107.5 L 167.0 107.5 L 166.0 107.5 L 164.5 107.5 L 163.0 107.0 L 161.5 107.0 L 160.0 107.0 L 158.5 107.0 L 157.0 107.0 L 155.5 107.0 L 154.0 107.0 L 153.0 107.0 L 152.0 107.0 L 151.5 107.5 L 150.5 107.5 L 150.0 107.5 L 150.0 107.5 L 149.5 107.5 L 149.0 107.5 L 149.0 107.5 L 149.0 107.5 L 149.0 107.5 L 149.0 107.5 L 149.0 107.5 L 149.0 107.5 L 149.0 107.5 L 149.0 107.5 L 149.0 107.5 L 149.5 107.5 L 149.5 107.5 L 149.5 108.0 L 149.5 108.5 L 150.0 110.0 L 150.0 112.0 L 150.5 115.0 L 150.5 118.0 L 150.5 121.0 L 151.0 123.5 L 151.0 125.0 L 151.0 127.0 L 151.0 128.5 L 151.0 131.0 L 151.0 133.0 L 151.0 135.5 L 151.0 137.0 L 151.0 139.0 L 151.0 141.0 L 151.0 143.0 L 151.0 145.0 L 151.0 147.0 L 151.0 149.5 L 151.0 151.5 L 151.5 153.5 L 151.5 155.0 L 151.5 156.5 L 151.5 158.5 L 151.5 159.5 L 151.5 161.0 L 152.0 162.5 L 152.0 164.0 L 152.0 166.0 L 152.0 168.0 L 152.5 169.0 L 152.5 170.0 L 152.5 170.5 L 152.5 171.0 L 153.0 171.5 L 153.0 172.0 L 153.0 172.0 L 153.0 172.5 L 153.0 173.0 L 153.0 173.0 L 153.5 173.5 L 153.5 173.5 L 153.5 173.5 L 153.5 173.5 L 153.5 174.0 L 153.5 174.0 L 153.5 174.5 L 153.5 174.5 L 153.5 175.0 L 153.5 175.0 L 153.5 175.0 L 153.5 175.0 L 153.5 175.0 L 153.5 175.0 L 153.5 175.0 L 153.5 175.0 L 153.5 175.0 L 153.5 175.0 L 153.5 175.0 L 153.5 175.0 L 153.5 175.0 L 153.5 175.0 L 153.5 175.0 L 153.5 175.0 L 153.5 175.0 L 153.5 175.0 L 153.0 175.0 L 152.0 175.0 L 150.0 175.0 L 147.5 175.0 L 144.5 175.0 L 142.0 175.0 L 140.0 175.0 L 138.0 175.0 L 136.0 175.0 L 134.0 175.0 L 131.5 175.0 L 130.0 175.0 L 128.0 175.0 L 127.0 175.5 L 126.0 175.5 L 125.5 175.5 L 125.5 175.5 L 125.5 175.5 L 126.0 175.5 L 126.0 175.5 L 126.5 175.5 L 127.5 175.0 L 128.0 175.0 " stroke="black" fill="none" stroke-width="7.0" stroke-linecap="round" stroke-linejoin="round" />
</svg>