<svg xmlns="http://www.w3.org/2000/svg" width="300" height="300" viewBox="0 0 300 300">
<path d="M 122.0 132.0 L 121.5 132.5 L 120.5 133.0 L 120.5 133.0 L 121.0 133.0 L 123.5 134.0 L 126.0 136.0 L 128.5 137.5 L 130.5 139.0 " stroke="black" fill="none" stroke-width="6.0" stroke-linecap="round" stroke-linejoin="round" />
<path d="M 141.5 117.5 L 141.5 117.5 L 141.5 117.5 L 141.5 117.5 L 141.5 117.5 L 141.0 118.0 L 141.0 123.0 L 141.0 134.0 L 142.0 145.0 L 142.5 151.5 L 143.0 153.0 L 143.0 153.0 " stroke="black" fill="none" stroke-width="6.0" stroke-linecap="round" stroke-linejoin="round" />
<path d="M 124.5 158.5 L 124.0 159.0 L 123.5 159.0 L 124.0 159.0 L 127.0 158.0 L 131.5 156.5 L 137.0 154.0 L 143.0 151.0 L 145.5 150.0 " stroke="black" fill="none" stroke-width="6.0" stroke-linecap="round" stroke-linejoin="round" />
<path d="M 167.0 125.0 L 167.0 124.0 L 166.5 123.5 L 166.5 123.5 L 166.0 123.5 L 165.0 126.0 L 163.5 129.5 L 162.5 133.5 L 161.0 135.0 " stroke="black" fill="none" stroke-width="6.0" stroke-linecap="round" stroke-linejoin="round" />
<path d="M 152.0 115.0 L 152.5 115.0 L 153.5 114.5 L 153.5 114.5 L 154.0 114.5 L 154.0 115.5 L 154.0 120.0 L 154.0 129.0 L 154.0 140.5 L 155.0 149.5 L 156.0 155.0 L 157.0 156.0 L 160.5 157.5 L 164.5 157.5 L 169.0 156.0 L 173.0 153.0 L 175.5 150.0 L 177.0 148.0 L 177.5 147.0 L 177.5 146.5 " stroke="black" fill="none" stroke-width="6.0" stroke-linecap="round" stroke-linejoin="round" />
</svg>