<svg xmlns="http://www.w3.org/2000/svg" width="300" height="300" viewBox="0 0 300 300">
<path d="M 112.0 126.0 L 113.0 124.5 L 113.5 124.0 L 114.0 124.5 L 114.5 129.0 L 114.5 137.0 L 115.0 147.0 L 115.0 152.5 L 115.0 151.5 L 115.0 150.5 " stroke="black" fill="none" stroke-width="8.0" stroke-linecap="round" stroke-linejoin="round" />
<path d="M 115.0 130.0 L 114.0 130.0 L 113.5 129.5 L 114.5 129.0 L 118.5 127.5 L 125.0 126.0 L 131.5 125.5 L 136.0 126.5 L 138.5 129.0 L 138.5 132.0 L 137.5 137.0 L 136.0 143.0 L 134.5 148.0 L 134.0 150.0 L 134.0 151.0 L 133.5 151.5 " stroke="black" fill="none" stroke-width="8.0" stroke-linecap="round" stroke-linejoin="round" />
<path d="M 121.5 156.0 L 121.0 156.5 L 120.0 157.0 L 121.5 157.0 L 125.5 155.5 L 131.0 153.5 L 136.0 150.5 " stroke="black" fill="none" stroke-width="8.0" stroke-linecap="round" stroke-linejoin="round" />
<path d="M 164.5 106.5 L 164.5 106.0 L 164.5 105.5 L 164.5 105.0 L 164.5 106.5 L 164.0 111.5 L 162.0 120.0 L 159.0 128.5 L 157.0 132.5 L 156.5 132.5 L 156.5 130.5 " stroke="black" fill="none" stroke-width="8.0" stroke-linecap="round" stroke-linejoin="round" />
<path d="M 164.0 120.0 L 163.0 119.5 L 162.0 119.5 L 162.5 119.5 L 166.0 119.5 L 171.5 118.5 L 178.0 117.0 L 184.5 116.5 L 188.5 116.5 L 189.5 116.5 L 189.5 116.5 L 189.5 117.0 L 190.0 117.0 L 190.5 117.5 L 191.0 118.0 L 191.5 118.0 L 191.5 118.5 L 192.0 119.0 L 192.0 119.5 L 192.0 120.5 L 192.0 121.5 L 191.5 123.0 L 191.0 125.5 L 190.0 129.0 L 189.0 133.5 L 188.0 137.0 L 187.5 139.5 L 187.0 139.5 " stroke="black" fill="none" stroke-width="8.0" stroke-linecap="round" stroke-linejoin="round" />
<path d="M 170.5 131.0 L 170.5 130.5 L 170.0 130.0 L 170.0 130.0 L 170.0 129.5 L 170.0 132.0 L 168.5 138.0 L 165.0 149.0 L 157.0 163.0 L 148.0 173.0 L 143.0 177.0 L 141.5 177.0 L 142.0 175.0 " stroke="black" fill="none" stroke-width="8.0" stroke-linecap="round" stroke-linejoin="round" />
<path d="M 161.5 163.0 L 161.5 162.5 L 161.0 162.0 L 161.0 162.0 L 162.5 162.5 L 168.5 164.5 L 178.0 168.5 L 190.0 174.5 L 200.0 178.0 L 205.0 178.5 " stroke="black" fill="none" stroke-width="8.0" stroke-linecap="round" stroke-linejoin="round" />
</svg>