<svg xmlns="http://www.w3.org/2000/svg" width="300" height="300" viewBox="0 0 300 300">
<path d="M 122.5 129.5 L 122.5 129.0 L 123.0 128.0 L 123.0 127.5 L 123.0 126.5 L 123.5 126.5 L 123.5 127.0 L 123.5 132.0 L 123.5 141.5 L 123.5 151.0 L 124.0 157.0 L 124.0 159.5 L 125.0 158.5 L 125.0 156.5 " stroke="black" fill="none" stroke-width="6.0" stroke-linecap="round" stroke-linejoin="round" />
<path d="M 123.0 130.5 L 122.5 131.0 L 121.5 131.0 L 121.5 131.0 L 124.0 130.0 L 127.0 129.0 L 130.0 128.0 L 133.0 128.0 L 135.0 127.5 L 136.5 127.5 L 137.5 129.0 L 138.0 131.0 L 138.5 134.5 L 138.5 141.0 L 138.0 148.0 L 138.0 153.5 L 138.0 157.0 L 138.0 158.0 L 137.5 158.0 " stroke="black" fill="none" stroke-width="6.0" stroke-linecap="round" stroke-linejoin="round" />
<path d="M 122.5 160.5 L 121.5 161.5 L 121.0 162.0 L 122.5 162.0 L 126.5 162.0 L 130.5 160.5 L 135.0 159.5 L 136.5 159.0 " stroke="black" fill="none" stroke-width="6.0" stroke-linecap="round" stroke-linejoin="round" />
<path d="M 150.5 133.0 L 149.5 133.5 L 149.0 134.0 L 150.0 134.0 L 155.0 134.0 L 163.0 133.5 L 170.5 133.0 L 175.0 132.5 L 176.5 132.0 L 177.5 132.0 L 177.5 132.0 " stroke="black" fill="none" stroke-width="6.0" stroke-linecap="round" stroke-linejoin="round" />
<path d="M 165.0 111.0 L 164.5 111.5 L 164.0 112.0 L 163.5 112.5 L 163.5 113.5 L 163.5 118.0 L 164.5 128.0 L 165.0 141.5 L 164.5 153.5 L 164.0 159.5 L 164.0 163.0 L 164.0 163.5 L 164.0 163.5 " stroke="black" fill="none" stroke-width="6.0" stroke-linecap="round" stroke-linejoin="round" />
<path d="M 150.0 170.0 L 150.0 170.0 L 149.5 169.5 L 149.0 169.5 L 149.5 169.5 L 153.0 169.0 L 159.5 168.5 L 168.0 168.0 L 176.5 168.0 L 183.0 167.5 L 185.0 167.5 " stroke="black" fill="none" stroke-width="6.0" stroke-linecap="round" stroke-linejoin="round" />
</svg>