<svg xmlns="http://www.w3.org/2000/svg" width="300" height="300" viewBox="0 0 300 300">
<path d="M 129.5 106.0 L 130.0 105.5 L 130.0 105.0 L 130.5 105.0 L 130.5 105.0 L 130.5 107.5 L 130.5 113.5 L 128.5 121.5 L 126.5 128.5 L 126.0 130.5 L 125.5 130.0 " stroke="black" fill="none" stroke-width="6.0" stroke-linecap="round" stroke-linejoin="round" />
<path d="M 123.0 113.0 L 122.5 113.0 L 122.0 113.0 L 121.5 113.0 L 122.0 113.0 L 124.0 113.0 L 127.0 113.0 L 131.0 113.0 L 136.0 113.5 L 141.0 113.5 L 144.5 113.5 L 145.5 113.5 L 145.5 113.0 L 145.5 113.0 L 145.0 113.0 L 144.5 113.0 L 144.5 113.0 L 144.5 113.0 L 144.5 113.0 L 144.0 113.5 L 144.0 114.5 L 144.0 116.0 L 144.0 119.0 L 144.0 122.5 L 144.0 126.5 L 144.0 129.5 L 143.0 132.0 L 142.0 133.0 L 140.5 133.0 L 138.5 133.0 L 137.5 132.0 L 137.0 131.5 " stroke="black" fill="none" stroke-width="6.0" stroke-linecap="round" stroke-linejoin="round" />
<path d="M 157.0 108.0 L 158.0 107.0 L 158.5 107.0 L 158.5 106.5 L 159.0 106.5 L 159.0 109.5 L 159.5 115.0 L 159.5 122.0 L 159.5 127.5 L 159.5 130.5 L 159.0 131.0 L 159.0 130.0 " stroke="black" fill="none" stroke-width="6.0" stroke-linecap="round" stroke-linejoin="round" />
<path d="M 161.5 107.5 L 160.5 107.5 L 159.5 108.0 L 159.0 108.0 L 159.0 108.0 L 160.5 108.5 L 163.5 108.5 L 167.0 108.5 L 171.0 108.5 L 175.5 108.0 L 179.5 108.0 L 181.0 108.5 L 181.0 108.5 L 181.0 109.0 L 180.0 109.5 L 179.5 111.0 L 179.0 113.0 L 178.5 116.5 L 177.5 121.0 L 177.5 125.0 L 177.5 127.5 L 177.5 128.5 L 177.5 128.5 L 177.5 128.0 " stroke="black" fill="none" stroke-width="6.0" stroke-linecap="round" stroke-linejoin="round" />
<path d="M 162.0 130.5 L 160.5 131.0 L 160.0 131.5 L 160.5 131.5 L 163.5 131.5 L 168.5 131.5 L 174.0 131.5 L 179.0 131.5 L 180.0 131.5 " stroke="black" fill="none" stroke-width="6.0" stroke-linecap="round" stroke-linejoin="round" />
<path d="M 148.0 137.0 L 148.5 137.0 L 148.5 137.0 L 148.5 137.5 L 148.5 137.5 L 148.5 138.5 L 146.5 141.0 L 142.0 146.0 L 133.5 152.0 L 126.0 156.0 L 122.5 156.0 L 122.0 155.0 L 124.0 153.5 " stroke="black" fill="none" stroke-width="6.0" stroke-linecap="round" stroke-linejoin="round" />
<path d="M 151.0 139.5 L 151.0 139.5 L 151.5 139.5 L 151.5 139.5 L 152.5 139.5 L 155.5 140.5 L 161.0 144.5 L 169.0 149.0 L 176.0 151.5 L 179.5 152.0 L 180.0 151.5 L 178.5 151.0 " stroke="black" fill="none" stroke-width="6.0" stroke-linecap="round" stroke-linejoin="round" />
<path d="M 145.0 155.0 L 144.5 155.0 L 142.5 156.0 L 142.0 156.0 L 142.0 156.0 L 144.5 156.0 L 149.0 155.5 L 153.0 154.5 L 157.0 154.5 L 159.5 154.5 L 160.5 154.5 L 160.5 155.0 " stroke="black" fill="none" stroke-width="6.0" stroke-linecap="round" stroke-linejoin="round" />
<path d="M 135.0 166.5 L 135.0 166.5 L 135.0 166.0 L 135.0 165.5 L 135.5 165.0 L 135.5 165.0 L 136.0 167.0 L 136.5 172.5 L 136.5 179.0 L 136.5 184.5 L 136.5 187.5 L 136.5 187.0 L 136.0 184.5 " stroke="black" fill="none" stroke-width="6.0" stroke-linecap="round" stroke-linejoin="round" />
<path d="M 137.0 166.5 L 137.0 165.5 L 137.0 165.0 L 137.0 164.5 L 137.0 164.0 L 138.5 164.0 L 141.0 164.0 L 145.0 164.0 L 150.5 164.0 L 158.0 164.0 L 166.0 164.0 L 170.5 164.0 L 172.5 163.5 L 172.5 163.5 L 172.0 163.5 L 171.5 163.5 L 171.5 163.5 L 171.0 163.5 L 171.0 163.5 L 171.0 163.5 L 171.0 163.5 L 171.0 163.5 L 171.0 164.0 L 171.0 165.0 L 171.0 166.5 L 170.5 169.5 L 170.5 173.5 L 170.5 179.0 L 170.5 184.5 L 170.5 189.5 L 170.5 193.5 L 170.5 196.5 L 170.0 197.5 L 169.5 198.0 L 168.0 197.5 L 165.5 196.0 L 162.5 193.5 L 161.0 192.5 " stroke="black" fill="none" stroke-width="6.0" stroke-linecap="round" stroke-linejoin="round" />
<path d="M 143.0 175.5 L 142.0 175.5 L 140.5 176.0 L 140.0 176.0 L 141.0 176.0 L 145.0 176.0 L 150.5 176.5 L 156.5 176.5 L 162.5 176.0 L 167.0 175.0 L 168.0 174.5 " stroke="black" fill="none" stroke-width="6.0" stroke-linecap="round" stroke-linejoin="round" />
<path d="M 148.5 166.0 L 148.0 165.5 L 147.0 165.0 L 147.0 165.0 L 146.5 165.5 L 146.5 168.0 L 147.0 173.0 L 147.0 180.5 L 147.0 186.5 L 147.0 189.0 L 148.0 188.0 " stroke="black" fill="none" stroke-width="6.0" stroke-linecap="round" stroke-linejoin="round" />
<path d="M 159.0 167.5 L 159.0 167.5 L 159.5 167.0 L 159.5 167.0 L 159.5 167.0 L 160.0 168.0 L 160.0 171.0 L 160.0 176.5 L 160.0 182.0 L 160.5 185.5 L 160.5 185.5 " stroke="black" fill="none" stroke-width="6.0" stroke-linecap="round" stroke-linejoin="round" />
</svg>