<svg xmlns="http://www.w3.org/2000/svg" width="300" height="300" viewBox="0 0 300 300">
<path d="M 122.0 91.0 L 121.5 90.5 L 121.5 90.5 L 121.5 91.0 L 122.0 94.5 L 122.5 98.0 L 123.0 100.0 L 124.0 100.5 " stroke="black" fill="none" stroke-width="9.0" stroke-linecap="round" stroke-linejoin="round" />
<path d="M 123.0 89.0 L 122.5 89.5 L 121.5 90.0 L 121.5 90.0 L 123.5 90.0 L 127.5 88.5 L 132.5 87.0 L 137.5 86.0 L 141.0 85.5 L 142.0 85.5 L 142.0 86.0 L 142.0 88.0 L 142.0 90.0 L 142.0 91.5 L 142.0 93.5 L 142.0 95.0 L 141.5 96.0 " stroke="black" fill="none" stroke-width="9.0" stroke-linecap="round" stroke-linejoin="round" />
<path d="M 129.5 103.0 L 128.5 103.0 L 128.0 103.0 L 128.5 103.0 L 132.0 102.5 L 135.5 101.5 L 139.0 100.5 L 140.5 100.0 " stroke="black" fill="none" stroke-width="9.0" stroke-linecap="round" stroke-linejoin="round" />
<path d="M 161.0 86.0 L 161.0 86.0 L 161.0 86.0 L 161.0 86.0 L 161.5 87.5 L 162.5 90.5 L 163.5 94.0 L 164.0 96.5 L 165.0 97.0 " stroke="black" fill="none" stroke-width="9.0" stroke-linecap="round" stroke-linejoin="round" />
<path d="M 165.0 85.5 L 164.0 85.5 L 163.0 85.5 L 162.5 86.0 L 163.0 86.0 L 166.0 85.5 L 169.5 84.0 L 173.5 83.5 L 176.5 83.5 L 179.5 83.5 L 181.5 84.0 L 182.5 84.5 L 183.0 85.5 L 183.0 87.0 L 183.0 89.0 L 183.0 91.5 L 183.0 94.0 L 182.5 96.0 " stroke="black" fill="none" stroke-width="9.0" stroke-linecap="round" stroke-linejoin="round" />
<path d="M 168.5 101.0 L 167.5 101.0 L 167.0 101.0 L 168.5 101.0 L 172.0 100.5 L 176.5 100.0 L 181.0 100.0 L 183.0 100.0 " stroke="black" fill="none" stroke-width="9.0" stroke-linecap="round" stroke-linejoin="round" />
<path d="M 116.5 120.5 L 116.5 119.5 L 116.5 119.0 L 117.5 119.0 L 122.0 119.0 L 132.5 119.5 L 146.0 119.5 L 160.5 119.0 L 172.5 116.5 L 179.5 115.0 L 183.0 115.0 L 183.0 116.5 L 181.5 117.0 " stroke="black" fill="none" stroke-width="9.0" stroke-linecap="round" stroke-linejoin="round" />
<path d="M 112.5 126.0 L 112.5 125.0 L 112.5 124.5 L 112.5 124.5 L 112.5 125.0 L 113.0 127.5 L 113.5 133.0 L 113.5 141.0 L 113.5 152.0 L 113.0 165.0 L 112.0 177.5 L 111.5 188.0 L 111.0 196.5 L 109.0 204.0 L 106.5 210.5 L 105.0 216.0 L 104.0 219.0 L 104.0 219.0 L 104.0 218.5 " stroke="black" fill="none" stroke-width="9.0" stroke-linecap="round" stroke-linejoin="round" />
<path d="M 128.5 134.5 L 128.0 134.5 L 127.5 134.5 L 129.0 134.5 L 133.0 134.0 L 139.5 133.5 L 145.5 132.5 L 149.5 131.5 L 150.5 131.5 L 150.5 131.5 " stroke="black" fill="none" stroke-width="9.0" stroke-linecap="round" stroke-linejoin="round" />
<path d="M 142.5 134.0 L 141.5 135.0 L 141.0 136.0 L 141.0 138.5 L 141.0 142.0 L 141.0 145.0 L 141.0 146.0 " stroke="black" fill="none" stroke-width="9.0" stroke-linecap="round" stroke-linejoin="round" />
<path d="M 129.0 151.5 L 128.5 151.5 L 128.5 151.5 L 130.0 151.5 L 135.0 151.0 L 142.0 149.5 L 148.0 149.0 L 152.0 148.5 L 153.0 148.5 L 153.0 148.5 " stroke="black" fill="none" stroke-width="9.0" stroke-linecap="round" stroke-linejoin="round" />
<path d="M 131.5 154.0 L 132.0 154.5 L 132.5 155.5 L 133.0 160.0 L 133.0 168.0 L 133.0 177.0 L 132.5 183.0 L 132.5 183.5 L 132.5 183.5 " stroke="black" fill="none" stroke-width="9.0" stroke-linecap="round" stroke-linejoin="round" />
<path d="M 148.5 152.5 L 148.0 153.0 L 147.5 154.0 L 147.5 156.0 L 148.0 159.5 L 149.0 166.0 L 149.5 176.5 L 150.0 188.5 L 151.0 199.0 L 151.5 206.5 L 151.5 210.0 L 151.5 212.0 L 151.5 212.0 " stroke="black" fill="none" stroke-width="9.0" stroke-linecap="round" stroke-linejoin="round" />
<path d="M 136.5 166.0 L 136.5 166.0 L 136.5 165.5 L 136.5 165.5 L 137.0 165.5 L 139.0 165.5 L 141.5 165.0 L 144.0 164.5 L 145.5 164.0 " stroke="black" fill="none" stroke-width="9.0" stroke-linecap="round" stroke-linejoin="round" />
<path d="M 135.5 179.5 L 136.0 179.0 L 137.0 179.0 L 138.5 179.0 L 140.5 178.5 L 143.0 177.5 L 144.5 177.5 " stroke="black" fill="none" stroke-width="9.0" stroke-linecap="round" stroke-linejoin="round" />
<path d="M 127.5 194.5 L 127.5 194.0 L 128.5 193.0 L 130.5 192.0 L 135.0 191.0 L 140.5 190.5 L 144.5 190.0 L 146.5 190.0 " stroke="black" fill="none" stroke-width="9.0" stroke-linecap="round" stroke-linejoin="round" />
<path d="M 168.0 135.5 L 167.0 135.5 L 166.5 135.5 L 166.5 136.5 L 166.5 141.5 L 165.5 148.5 L 165.0 153.0 L 165.0 153.5 " stroke="black" fill="none" stroke-width="9.0" stroke-linecap="round" stroke-linejoin="round" />
<path d="M 170.5 145.0 L 170.0 144.0 L 170.0 143.5 L 170.5 143.0 L 174.0 143.0 L 178.5 142.5 L 183.5 142.5 L 186.5 142.5 L 188.5 142.0 L 190.0 141.5 " stroke="black" fill="none" stroke-width="9.0" stroke-linecap="round" stroke-linejoin="round" />
<path d="M 184.5 147.5 L 184.5 146.5 L 185.0 146.5 L 185.0 146.5 L 185.0 147.0 L 185.0 149.5 L 185.0 154.5 L 183.5 163.0 L 180.5 175.0 L 176.5 187.0 L 173.5 195.5 L 170.5 200.5 L 168.5 202.5 L 167.5 202.5 L 167.0 200.0 L 167.0 199.5 " stroke="black" fill="none" stroke-width="9.0" stroke-linecap="round" stroke-linejoin="round" />
<path d="M 168.5 166.0 L 168.0 165.5 L 166.5 164.5 L 166.5 164.5 L 167.0 164.5 L 168.5 166.5 L 171.0 170.5 L 176.5 178.0 L 185.0 189.0 L 193.0 197.5 L 195.5 200.0 L 196.0 200.5 L 196.0 200.5 " stroke="black" fill="none" stroke-width="9.0" stroke-linecap="round" stroke-linejoin="round" />
</svg>