<svg xmlns="http://www.w3.org/2000/svg" width="300" height="300" viewBox="0 0 300 300">
<path d="M 121.5 149.0 L 120.5 150.0 L 119.5 150.0 L 120.5 150.0 L 123.5 149.0 L 127.5 147.0 L 131.0 144.5 L 133.5 143.0 L 135.5 141.5 L 136.5 141.0 L 136.5 140.5 L 136.5 140.5 " stroke="black" fill="none" stroke-width="6.0" stroke-linecap="round" stroke-linejoin="round" />
<path d="M 130.0 130.0 L 130.0 129.5 L 130.0 129.0 L 129.5 129.0 L 129.5 129.5 L 129.5 133.5 L 129.5 141.0 L 129.5 152.0 L 129.0 160.0 L 129.0 163.0 L 129.0 163.0 L 129.0 163.0 " stroke="black" fill="none" stroke-width="6.0" stroke-linecap="round" stroke-linejoin="round" />
<path d="M 117.5 177.5 L 118.0 177.5 L 118.0 177.5 L 120.0 176.0 L 124.0 173.0 L 129.5 168.5 L 135.0 165.0 L 140.5 161.5 " stroke="black" fill="none" stroke-width="6.0" stroke-linecap="round" stroke-linejoin="round" />
<path d="M 149.5 127.0 L 149.5 127.0 L 148.5 127.0 L 148.0 127.0 L 148.0 127.0 L 151.5 127.0 L 156.5 126.5 L 163.0 126.0 L 170.5 125.5 L 177.0 125.0 L 180.0 124.5 L 180.5 124.0 L 180.0 124.0 L 179.0 124.5 L 178.0 125.0 " stroke="black" fill="none" stroke-width="6.0" stroke-linecap="round" stroke-linejoin="round" />
<path d="M 171.0 115.5 L 170.0 115.5 L 169.0 115.5 L 169.0 115.5 L 169.0 115.5 L 170.5 117.5 L 172.5 123.0 L 174.5 131.0 L 177.0 142.0 L 180.5 156.0 L 184.0 167.0 L 187.5 173.5 L 190.0 175.5 L 191.0 176.0 L 192.0 176.0 L 192.5 174.5 L 193.0 172.5 L 193.0 171.5 L 193.0 171.0 L 193.0 170.5 L 193.0 170.0 " stroke="black" fill="none" stroke-width="6.0" stroke-linecap="round" stroke-linejoin="round" />
<path d="M 185.5 140.0 L 185.5 140.0 L 186.0 139.5 L 186.0 139.0 L 186.0 138.5 L 186.5 138.5 L 186.5 138.0 L 186.5 139.0 L 184.5 145.0 L 180.5 155.0 L 174.5 166.5 L 170.5 172.5 L 169.5 174.0 L 170.0 174.0 " stroke="black" fill="none" stroke-width="6.0" stroke-linecap="round" stroke-linejoin="round" />
<path d="M 153.5 142.0 L 153.5 142.0 L 153.5 141.5 L 153.5 141.0 L 153.5 142.0 L 153.5 146.0 L 153.5 150.5 L 153.5 153.5 L 153.5 154.5 L 153.5 154.5 " stroke="black" fill="none" stroke-width="6.0" stroke-linecap="round" stroke-linejoin="round" />
<path d="M 154.0 140.5 L 153.5 140.5 L 153.5 140.5 L 154.0 140.5 L 156.0 140.0 L 158.5 139.5 L 161.0 139.0 L 163.0 139.0 L 164.5 139.0 L 166.0 140.0 L 166.5 141.5 L 166.5 144.5 L 166.0 147.5 L 164.5 150.5 L 163.5 152.5 L 162.5 153.5 " stroke="black" fill="none" stroke-width="6.0" stroke-linecap="round" stroke-linejoin="round" />
<path d="M 156.0 154.5 L 156.0 155.0 L 156.0 156.0 L 156.0 156.0 L 158.5 156.0 L 160.5 155.5 L 163.0 155.5 L 164.0 155.5 " stroke="black" fill="none" stroke-width="6.0" stroke-linecap="round" stroke-linejoin="round" />
<path d="M 152.0 168.5 L 151.5 168.5 L 151.0 168.5 L 151.0 168.5 L 152.5 168.5 L 155.5 168.0 L 159.0 168.0 L 162.5 167.0 L 165.0 165.5 " stroke="black" fill="none" stroke-width="6.0" stroke-linecap="round" stroke-linejoin="round" />
<path d="M 180.5 111.5 L 180.5 112.0 L 180.0 113.0 L 180.0 113.0 L 180.0 113.5 L 181.5 114.5 L 183.0 115.0 L 184.5 115.5 L 186.0 115.5 " stroke="black" fill="none" stroke-width="6.0" stroke-linecap="round" stroke-linejoin="round" />
</svg>