<svg xmlns="http://www.w3.org/2000/svg" width="300" height="300" viewBox="0 0 300 300">
<path d="M 126.1111111111111 147.22222222222223 L 125.55555555555556 147.22222222222223 L 125.00000000000001 147.22222222222223 L 124.44444444444444 147.22222222222223 L 124.44444444444444 147.22222222222223 L 126.1111111111111 147.22222222222223 L 128.8888888888889 147.22222222222223 L 133.8888888888889 147.22222222222223 L 141.11111111111111 147.22222222222223 L 150.55555555555557 146.66666666666669 L 161.11111111111111 146.11111111111111 L 168.8888888888889 146.11111111111111 L 172.7777777777778 146.66666666666669 L 174.44444444444446 147.22222222222223 L 175.00000000000003 147.22222222222223 L 175.00000000000003 146.11111111111111 L 175.00000000000003 146.11111111111111 " stroke="black" fill="none" stroke-width="7.0" stroke-linecap="round" stroke-linejoin="round" />
<circle cx="175.00000000000003" cy="142.7777777777778" r="3.5" fill="black" />
<path d="M 149.44444444444446 123.8888888888889 L 147.7777777777778 123.33333333333333 L 147.22222222222223 123.33333333333333 L 146.66666666666669 122.77777777777779 L 147.22222222222223 122.22222222222221 L 147.22222222222223 121.66666666666667 L 147.22222222222223 121.66666666666667 L 147.7777777777778 121.66666666666667 L 147.7777777777778 122.77777777777779 L 147.7777777777778 124.44444444444444 L 148.33333333333334 126.66666666666667 L 148.33333333333334 130.00000000000003 L 148.33333333333334 136.11111111111111 L 148.33333333333334 145.00000000000003 L 148.33333333333334 156.11111111111111 L 148.33333333333334 166.11111111111114 L 148.33333333333334 171.66666666666669 L 148.33333333333334 175.00000000000003 L 148.33333333333334 177.22222222222223 L 148.33333333333334 178.8888888888889 L 148.33333333333334 178.8888888888889 L 148.33333333333334 178.8888888888889 L 148.33333333333334 176.66666666666669 L 148.33333333333334 176.11111111111114 " stroke="black" fill="none" stroke-width="7.0" stroke-linecap="round" stroke-linejoin="round" />
<path d="M 120.00000000000001 182.7777777777778 L 119.44444444444444 183.33333333333334 L 117.77777777777779 183.8888888888889 L 117.22222222222221 184.44444444444446 L 117.77777777777779 184.44444444444446 L 122.22222222222221 184.44444444444446 L 131.11111111111111 183.33333333333334 L 144.44444444444446 181.66666666666669 L 160.00000000000003 181.66666666666669 L 173.33333333333334 182.7777777777778 L 181.11111111111114 183.33333333333334 L 183.8888888888889 183.8888888888889 L 184.44444444444446 183.8888888888889 L 183.8888888888889 183.8888888888889 L 183.8888888888889 183.8888888888889 L 183.8888888888889 183.8888888888889 L 183.8888888888889 183.8888888888889 " stroke="black" fill="none" stroke-width="7.0" stroke-linecap="round" stroke-linejoin="round" />
</svg>