<svg xmlns="http://www.w3.org/2000/svg" width="300" height="300" viewBox="0 0 300 300">
<path d="M 124.5 142.5 L 123.0 142.0 L 122.5 141.5 L 122.5 141.0 L 124.0 141.0 L 128.5 139.5 L 136.0 137.5 L 143.5 134.5 L 146.5 132.5 L 146.5 132.5 " stroke="black" fill="none" stroke-width="7.0" stroke-linecap="round" stroke-linejoin="round" />
<path d="M 135.5 125.0 L 135.5 123.5 L 135.5 123.0 L 135.5 123.5 L 136.0 127.0 L 136.0 133.5 L 135.5 143.0 L 134.0 153.0 L 133.0 161.0 L 133.0 165.0 L 133.0 167.0 L 133.0 168.0 L 133.0 169.0 L 133.0 169.0 " stroke="black" fill="none" stroke-width="7.0" stroke-linecap="round" stroke-linejoin="round" />
<path d="M 125.5 173.0 L 124.5 173.5 L 123.0 174.0 L 123.5 174.0 L 126.0 172.5 L 131.0 170.0 L 136.5 167.5 L 141.5 165.5 L 147.0 164.0 L 148.5 163.5 " stroke="black" fill="none" stroke-width="7.0" stroke-linecap="round" stroke-linejoin="round" />
<path d="M 156.5 117.5 L 156.5 117.5 L 156.5 117.5 L 156.5 117.5 L 157.0 117.5 L 161.0 117.0 L 168.5 117.0 L 177.0 116.5 L 184.0 116.5 L 187.0 116.5 L 187.5 116.5 " stroke="black" fill="none" stroke-width="7.0" stroke-linecap="round" stroke-linejoin="round" />
<path d="M 160.0 135.0 L 160.0 135.5 L 159.5 136.5 L 159.5 138.0 L 159.5 141.5 L 160.0 147.0 L 160.0 151.5 L 160.0 155.0 L 160.0 155.5 " stroke="black" fill="none" stroke-width="7.0" stroke-linecap="round" stroke-linejoin="round" />
<path d="M 164.0 134.0 L 163.5 133.5 L 162.5 132.5 L 162.5 132.0 L 163.5 132.0 L 166.5 132.0 L 171.0 132.0 L 176.5 131.5 L 181.5 131.0 L 185.0 132.0 L 185.5 133.0 L 185.0 134.5 L 183.0 137.0 L 180.5 141.5 L 178.0 146.5 L 176.5 151.5 L 176.5 153.5 L 176.5 154.0 L 176.5 154.0 " stroke="black" fill="none" stroke-width="7.0" stroke-linecap="round" stroke-linejoin="round" />
<path d="M 167.0 146.5 L 165.5 146.0 L 164.0 145.5 L 163.5 145.5 L 166.0 145.0 L 170.0 144.0 L 174.5 143.5 L 178.5 143.0 L 180.5 143.5 " stroke="black" fill="none" stroke-width="7.0" stroke-linecap="round" stroke-linejoin="round" />
<path d="M 161.5 158.5 L 161.0 158.5 L 161.0 158.5 L 161.0 158.5 L 162.0 158.5 L 165.5 158.5 L 171.0 157.5 L 177.0 157.0 L 179.5 157.0 " stroke="black" fill="none" stroke-width="7.0" stroke-linecap="round" stroke-linejoin="round" />
<path d="M 152.0 175.5 L 152.0 175.5 L 151.5 175.5 L 151.0 175.5 L 153.5 175.5 L 159.5 175.0 L 167.0 174.5 L 176.0 174.0 L 183.5 173.5 L 187.0 173.5 L 186.5 173.5 " stroke="black" fill="none" stroke-width="7.0" stroke-linecap="round" stroke-linejoin="round" />
</svg>