<svg xmlns="http://www.w3.org/2000/svg" width="300" height="300" viewBox="0 0 300 300">
<path d="M 137.5 116.5 L 137.5 116.0 L 138.0 115.5 L 138.5 114.5 L 139.0 114.0 L 139.0 114.0 L 139.0 115.0 L 138.5 120.0 L 135.5 126.0 L 131.5 132.5 L 128.5 137.0 L 128.0 138.0 L 128.0 136.5 " stroke="black" fill="none" stroke-width="6.0" stroke-linecap="round" stroke-linejoin="round" />
<path d="M 135.0 128.0 L 134.5 129.0 L 134.5 129.5 L 134.5 129.5 L 136.0 129.5 L 141.0 128.5 L 148.5 127.0 L 157.5 126.0 L 164.5 125.0 L 168.5 124.5 L 169.0 124.5 L 168.5 124.5 L 168.0 124.5 " stroke="black" fill="none" stroke-width="6.0" stroke-linecap="round" stroke-linejoin="round" />
<path d="M 134.0 148.0 L 134.0 148.0 L 134.0 148.0 L 134.0 148.5 L 134.0 148.5 L 134.5 148.5 L 136.5 148.5 L 142.0 147.5 L 150.5 145.5 L 158.0 144.0 L 163.5 142.5 L 166.0 141.5 " stroke="black" fill="none" stroke-width="6.0" stroke-linecap="round" stroke-linejoin="round" />
<path d="M 152.5 117.0 L 152.5 117.0 L 152.5 116.5 L 152.5 116.5 L 152.5 118.0 L 152.5 122.5 L 151.5 132.5 L 148.0 147.5 L 142.0 161.5 L 135.5 172.0 L 131.0 178.0 L 128.5 181.0 L 127.5 181.0 L 128.0 180.0 L 129.0 177.5 " stroke="black" fill="none" stroke-width="6.0" stroke-linecap="round" stroke-linejoin="round" />
<path d="M 152.5 154.0 L 152.0 154.5 L 151.5 155.0 L 151.5 155.5 L 151.5 155.5 L 152.5 157.5 L 156.0 161.5 L 162.5 167.5 L 169.0 172.0 L 174.0 174.5 L 177.0 175.5 " stroke="black" fill="none" stroke-width="6.0" stroke-linecap="round" stroke-linejoin="round" />
</svg>