<svg xmlns="http://www.w3.org/2000/svg" width="300" height="300" viewBox="0 0 300 300">
<path d="M 128.0 114.5 L 127.5 114.5 L 127.0 114.0 L 126.5 113.0 L 127.0 113.0 L 130.5 112.5 L 136.5 112.0 L 145.5 111.5 L 155.0 110.5 L 162.5 109.5 L 167.0 108.5 L 168.0 108.0 L 168.5 108.0 L 168.5 108.0 L 168.5 108.0 L 168.5 108.0 L 168.5 108.0 " stroke="black" fill="none" stroke-width="6.0" stroke-linecap="round" stroke-linejoin="round" />
<path d="M 152.5 96.5 L 153.0 96.0 L 153.5 95.0 L 154.0 94.5 L 154.0 94.5 L 154.0 96.5 L 153.5 101.0 L 150.0 108.0 L 144.0 118.5 L 136.5 127.5 L 131.0 133.0 L 126.0 137.5 L 123.0 139.5 L 122.0 140.0 L 122.0 139.5 L 123.5 138.0 " stroke="black" fill="none" stroke-width="6.0" stroke-linecap="round" stroke-linejoin="round" />
<path d="M 153.0 119.0 L 152.5 118.5 L 152.0 117.5 L 152.0 117.5 L 152.0 117.5 L 154.0 119.5 L 157.5 122.0 L 162.5 124.5 L 169.5 127.0 L 176.5 129.0 L 181.5 130.0 L 184.0 130.0 " stroke="black" fill="none" stroke-width="6.0" stroke-linecap="round" stroke-linejoin="round" />
<path d="M 139.0 132.0 L 139.5 132.0 L 140.5 131.5 L 141.0 131.0 L 141.5 130.5 L 142.0 130.5 L 142.0 130.5 L 142.0 130.5 L 140.5 132.5 L 137.0 137.0 L 132.5 141.5 L 128.5 145.5 L 127.5 146.5 L 128.0 147.0 " stroke="black" fill="none" stroke-width="6.0" stroke-linecap="round" stroke-linejoin="round" />
<path d="M 135.5 140.5 L 135.5 140.5 L 135.5 140.0 L 135.5 139.5 L 135.5 139.5 L 135.5 141.0 L 135.5 145.0 L 135.5 152.0 L 135.5 161.0 L 135.5 167.5 L 136.5 169.0 L 137.0 167.5 " stroke="black" fill="none" stroke-width="6.0" stroke-linecap="round" stroke-linejoin="round" />
<path d="M 152.5 128.5 L 152.0 128.5 L 151.5 128.5 L 151.0 128.5 L 151.0 129.0 L 151.5 130.0 L 152.5 131.0 L 153.5 132.0 L 154.5 132.5 L 154.5 133.0 " stroke="black" fill="none" stroke-width="6.0" stroke-linecap="round" stroke-linejoin="round" />
<path d="M 146.5 140.5 L 146.0 140.5 L 145.0 140.5 L 144.5 140.5 L 145.0 140.5 L 147.0 140.0 L 150.5 140.0 L 154.0 139.5 L 157.0 139.0 L 159.5 138.0 L 161.0 137.5 " stroke="black" fill="none" stroke-width="6.0" stroke-linecap="round" stroke-linejoin="round" />
<path d="M 147.5 149.0 L 147.0 149.0 L 146.0 149.5 L 146.0 149.5 L 146.5 149.5 L 148.5 149.5 L 151.0 149.0 L 154.0 148.5 L 156.5 148.0 L 158.0 147.5 L 159.0 147.5 " stroke="black" fill="none" stroke-width="6.0" stroke-linecap="round" stroke-linejoin="round" />
<path d="M 147.0 157.5 L 146.5 158.0 L 145.5 158.5 L 145.5 158.5 L 145.5 158.5 L 147.5 158.5 L 151.0 158.5 L 154.0 157.5 L 156.5 156.5 L 157.0 156.0 " stroke="black" fill="none" stroke-width="6.0" stroke-linecap="round" stroke-linejoin="round" />
<path d="M 154.0 140.5 L 153.5 140.0 L 153.0 139.5 L 152.5 139.5 L 152.5 141.0 L 152.5 145.0 L 152.5 151.0 L 152.0 157.0 L 152.0 161.5 L 152.0 163.5 L 152.0 164.0 " stroke="black" fill="none" stroke-width="6.0" stroke-linecap="round" stroke-linejoin="round" />
<path d="M 145.0 168.5 L 144.0 168.5 L 143.5 168.5 L 143.5 168.5 L 145.5 168.0 L 149.5 167.0 L 154.0 166.5 L 158.0 166.0 L 161.0 166.0 L 161.5 166.0 " stroke="black" fill="none" stroke-width="6.0" stroke-linecap="round" stroke-linejoin="round" />
<path d="M 126.5 182.0 L 126.5 181.5 L 127.0 181.0 L 127.0 180.5 L 128.0 180.5 L 131.0 180.5 L 136.5 181.0 L 145.0 181.5 L 155.0 181.5 L 165.0 180.5 L 172.5 179.0 L 175.5 178.5 L 176.0 178.5 L 175.5 178.5 L 173.5 178.5 L 172.5 178.5 " stroke="black" fill="none" stroke-width="6.0" stroke-linecap="round" stroke-linejoin="round" />
<path d="M 162.0 172.5 L 162.0 172.5 L 161.5 172.5 L 161.0 172.5 L 161.0 172.5 L 161.0 173.5 L 161.0 178.0 L 161.5 186.0 L 162.0 195.0 L 162.0 202.5 L 162.0 207.5 L 161.5 210.5 L 160.0 211.0 L 158.5 211.5 L 156.5 211.0 L 154.5 210.5 L 153.0 209.5 L 152.5 209.0 " stroke="black" fill="none" stroke-width="6.0" stroke-linecap="round" stroke-linejoin="round" />
<path d="M 137.0 191.5 L 137.0 191.5 L 137.0 191.5 L 137.0 191.0 L 137.5 191.0 L 139.5 191.5 L 143.5 193.5 L 147.5 195.0 " stroke="black" fill="none" stroke-width="6.0" stroke-linecap="round" stroke-linejoin="round" />
</svg>