<svg xmlns="http://www.w3.org/2000/svg" width="300" height="300" viewBox="0 0 300 300">
<path d="M 125.5 109.5 L 125.5 109.5 L 124.5 109.5 L 124.0 109.5 L 124.0 109.5 L 124.0 109.5 L 126.5 109.0 L 130.5 108.5 L 137.5 108.5 L 147.0 108.0 L 156.0 107.5 L 163.0 107.0 L 168.0 107.0 L 170.0 107.0 L 170.5 107.0 L 170.0 107.0 L 170.0 107.0 L 169.0 107.0 L 168.0 106.5 " stroke="black" fill="none" stroke-width="6.0" stroke-linecap="round" stroke-linejoin="round" />
<path d="M 120.5 128.0 L 120.5 128.0 L 120.5 128.0 L 120.5 128.0 L 120.5 128.0 L 122.0 128.0 L 127.0 128.5 L 137.5 129.0 L 151.5 128.5 L 163.0 127.0 L 171.5 126.0 L 176.0 126.0 L 178.0 126.0 L 179.5 126.0 L 180.5 126.0 L 181.0 125.5 L 181.0 125.5 L 181.0 125.0 " stroke="black" fill="none" stroke-width="6.0" stroke-linecap="round" stroke-linejoin="round" />
<path d="M 152.5 98.0 L 153.0 97.5 L 154.0 97.0 L 154.0 97.0 L 154.0 97.0 L 154.0 97.0 L 154.0 97.5 L 154.0 99.0 L 153.0 103.0 L 149.5 110.5 L 144.0 120.5 L 138.0 130.0 L 132.5 138.5 L 127.5 145.0 L 123.0 150.5 L 119.5 153.5 L 116.5 155.5 L 115.0 156.5 L 115.0 156.5 L 115.0 156.0 " stroke="black" fill="none" stroke-width="6.0" stroke-linecap="round" stroke-linejoin="round" />
<path d="M 147.0 131.0 L 146.5 131.0 L 145.5 131.5 L 145.5 131.5 L 146.0 132.0 L 150.0 133.0 L 157.5 136.0 L 169.0 139.5 L 180.5 142.0 L 189.0 143.5 L 192.5 144.5 L 193.5 145.0 L 192.5 145.0 " stroke="black" fill="none" stroke-width="6.0" stroke-linecap="round" stroke-linejoin="round" />
<path d="M 137.0 148.5 L 137.5 148.5 L 138.0 148.5 L 138.5 148.5 L 140.5 148.0 L 145.0 148.0 L 151.0 148.0 L 156.0 148.0 L 158.0 148.5 L 159.0 148.5 L 159.0 149.0 " stroke="black" fill="none" stroke-width="6.0" stroke-linecap="round" stroke-linejoin="round" />
<path d="M 130.0 161.0 L 130.5 161.0 L 131.5 161.0 L 132.5 161.0 L 135.0 161.0 L 140.5 161.0 L 149.0 160.5 L 158.0 159.5 L 165.0 159.0 L 168.0 158.5 L 168.0 159.0 L 167.5 159.5 L 166.5 159.5 " stroke="black" fill="none" stroke-width="6.0" stroke-linecap="round" stroke-linejoin="round" />
<path d="M 148.5 165.0 L 148.5 164.5 L 148.5 163.5 L 148.5 163.5 L 148.5 163.0 L 148.5 164.0 L 149.5 167.0 L 150.5 172.5 L 151.5 179.0 L 152.0 184.0 L 152.5 186.0 L 152.5 185.0 " stroke="black" fill="none" stroke-width="6.0" stroke-linecap="round" stroke-linejoin="round" />
<path d="M 136.5 173.0 L 137.0 173.0 L 137.5 173.0 L 138.0 173.0 L 138.0 173.5 L 136.5 175.5 L 133.5 179.0 L 130.0 183.5 L 128.0 186.0 L 127.0 187.0 L 127.0 187.0 " stroke="black" fill="none" stroke-width="6.0" stroke-linecap="round" stroke-linejoin="round" />
<path d="M 162.5 174.0 L 162.5 174.5 L 162.5 175.5 L 163.5 176.0 L 166.5 177.5 L 170.5 180.0 L 175.0 182.5 L 178.0 184.5 L 179.5 186.0 " stroke="black" fill="none" stroke-width="6.0" stroke-linecap="round" stroke-linejoin="round" />
</svg>