<svg xmlns="http://www.w3.org/2000/svg" width="300" height="300" viewBox="0 0 300 300">
<path d="M 135.5 121.0 L 136.0 121.0 L 136.0 121.0 L 136.5 121.0 L 136.5 125.0 L 137.0 133.0 L 138.0 140.5 L 138.5 143.0 L 138.5 142.0 " stroke="black" fill="none" stroke-width="6.0" stroke-linecap="round" stroke-linejoin="round" />
<path d="M 136.5 126.0 L 136.5 126.5 L 136.5 127.0 L 136.5 127.5 L 137.0 127.5 L 139.0 126.5 L 142.5 125.0 L 148.5 123.0 L 156.5 120.5 L 164.0 119.5 L 168.0 120.0 L 168.5 121.0 L 168.0 121.0 L 168.0 121.5 L 168.0 121.5 L 168.0 122.5 L 168.0 124.0 L 168.0 126.5 L 167.5 131.0 L 166.0 136.5 L 165.0 141.0 L 165.0 142.5 L 165.0 142.5 " stroke="black" fill="none" stroke-width="6.0" stroke-linecap="round" stroke-linejoin="round" />
<path d="M 127.0 147.5 L 126.5 147.5 L 125.5 148.0 L 125.5 148.0 L 128.0 148.5 L 135.5 148.5 L 147.5 148.0 L 162.5 145.5 L 175.0 143.5 L 178.5 143.0 L 178.0 144.5 L 177.0 145.0 " stroke="black" fill="none" stroke-width="6.0" stroke-linecap="round" stroke-linejoin="round" />
<path d="M 154.5 109.5 L 154.5 109.5 L 155.5 110.5 L 155.5 111.0 L 155.5 112.5 L 155.0 117.5 L 153.0 129.0 L 149.0 146.5 L 143.5 161.5 L 138.0 172.0 L 132.5 179.0 L 130.5 182.0 L 130.5 181.5 L 130.5 179.5 " stroke="black" fill="none" stroke-width="6.0" stroke-linecap="round" stroke-linejoin="round" />
<path d="M 156.5 156.5 L 156.5 157.0 L 156.5 157.5 L 156.5 158.0 L 158.5 160.0 L 164.5 166.0 L 173.0 173.5 L 179.5 177.5 L 181.0 177.5 " stroke="black" fill="none" stroke-width="6.0" stroke-linecap="round" stroke-linejoin="round" />
</svg>