<svg xmlns="http://www.w3.org/2000/svg" width="300" height="300" viewBox="0 0 300 300">
<path d="M 131.0 117.5 L 131.5 117.5 L 132.5 117.0 L 132.5 117.0 L 132.5 116.5 L 133.0 116.5 L 133.0 118.0 L 132.5 121.5 L 131.5 127.0 L 130.0 134.5 L 128.5 141.0 L 127.0 146.5 L 126.0 150.0 L 125.0 152.5 L 124.5 153.5 L 124.5 154.0 L 124.5 154.0 L 124.5 154.0 L 124.5 154.0 L 124.5 154.0 L 124.5 154.5 L 124.5 155.0 L 124.5 155.5 L 124.5 156.0 L 125.5 158.0 L 126.5 162.5 L 128.5 169.5 L 130.5 177.0 L 131.5 182.0 L 132.5 184.0 L 133.0 184.5 L 133.0 184.5 L 133.5 184.5 L 133.5 184.0 " stroke="black" fill="none" stroke-width="7.0" stroke-linecap="round" stroke-linejoin="round" />
<path d="M 138.0 138.5 L 138.5 138.5 L 139.0 138.0 L 139.0 138.0 L 139.0 138.0 L 139.0 139.0 L 138.0 144.5 L 135.0 154.5 L 130.5 167.0 L 126.5 174.5 L 124.0 177.0 L 123.0 177.0 L 122.5 175.0 " stroke="black" fill="none" stroke-width="7.0" stroke-linecap="round" stroke-linejoin="round" />
<path d="M 115.0 146.5 L 115.0 146.5 L 113.5 147.0 L 112.5 147.0 L 114.0 147.0 L 120.5 146.5 L 129.5 144.5 L 138.5 142.5 L 144.0 141.5 L 144.5 141.5 " stroke="black" fill="none" stroke-width="7.0" stroke-linecap="round" stroke-linejoin="round" />
<path d="M 152.0 116.0 L 151.5 117.0 L 150.0 117.5 L 149.0 118.0 L 149.0 117.5 L 151.5 116.5 L 155.5 115.5 L 160.5 114.5 L 165.5 114.5 L 170.5 114.5 L 175.0 114.0 L 178.0 114.0 L 179.0 114.0 L 179.0 114.0 L 179.0 114.0 L 179.0 114.0 L 179.0 114.0 L 179.0 114.0 L 179.0 114.0 L 179.0 114.0 L 179.0 114.0 L 179.0 114.5 L 179.0 115.0 L 179.0 116.0 L 179.0 117.0 L 179.0 119.0 L 179.0 121.0 L 179.0 122.5 L 179.0 123.5 " stroke="black" fill="none" stroke-width="7.0" stroke-linecap="round" stroke-linejoin="round" />
<path d="M 164.5 113.0 L 164.5 114.0 L 164.5 114.5 L 164.5 116.0 L 164.5 118.5 L 165.0 122.0 L 165.5 125.0 L 165.5 126.5 " stroke="black" fill="none" stroke-width="7.0" stroke-linecap="round" stroke-linejoin="round" />
<path d="M 155.5 129.0 L 155.5 129.0 L 156.0 129.0 L 156.5 129.0 L 158.0 128.5 L 163.5 128.0 L 171.0 127.5 L 177.5 127.0 L 180.0 127.0 L 180.5 126.5 L 180.0 126.5 " stroke="black" fill="none" stroke-width="7.0" stroke-linecap="round" stroke-linejoin="round" />
<path d="M 153.0 120.5 L 153.5 120.5 L 154.0 119.5 L 154.5 119.5 L 154.5 119.5 L 155.5 121.5 L 156.0 126.0 L 156.0 135.0 L 154.0 148.0 L 150.5 160.5 L 147.0 169.5 L 145.0 175.5 L 144.0 179.0 L 143.5 181.0 L 143.0 181.5 L 142.5 181.0 " stroke="black" fill="none" stroke-width="7.0" stroke-linecap="round" stroke-linejoin="round" />
<path d="M 162.5 144.5 L 162.5 144.5 L 162.5 144.0 L 162.5 143.5 L 162.5 143.0 L 162.5 143.5 L 163.0 146.0 L 163.5 152.0 L 164.0 162.0 L 163.0 173.0 L 162.0 178.0 L 162.0 178.0 L 162.0 174.0 L 162.0 172.5 " stroke="black" fill="none" stroke-width="7.0" stroke-linecap="round" stroke-linejoin="round" />
<path d="M 163.0 144.5 L 162.5 144.5 L 162.0 144.5 L 162.0 144.5 L 163.0 144.5 L 165.5 144.0 L 169.0 142.5 L 172.5 141.5 L 176.0 141.0 L 178.0 141.0 L 179.0 141.5 L 179.5 142.0 L 180.0 142.5 L 180.0 142.5 L 180.5 142.5 L 180.5 142.5 L 180.5 142.5 L 180.5 142.5 L 180.5 143.0 L 180.5 143.0 L 180.5 144.0 L 180.5 145.5 L 180.0 147.5 L 180.0 151.5 L 179.5 157.5 L 180.0 165.5 L 180.5 173.5 L 181.0 178.5 L 181.0 181.0 L 181.0 182.5 L 181.0 182.5 L 181.0 182.0 L 180.0 180.0 " stroke="black" fill="none" stroke-width="7.0" stroke-linecap="round" stroke-linejoin="round" />
<path d="M 166.5 155.5 L 166.0 156.0 L 165.0 157.0 L 165.0 157.0 L 167.5 156.5 L 171.0 156.5 L 174.0 156.0 L 176.5 156.0 L 178.0 156.0 " stroke="black" fill="none" stroke-width="7.0" stroke-linecap="round" stroke-linejoin="round" />
<path d="M 169.0 167.0 L 168.5 167.0 L 167.5 167.0 L 167.0 167.0 L 167.0 167.0 L 168.5 167.0 L 171.0 167.0 L 174.0 167.0 L 176.0 167.0 L 176.5 167.0 " stroke="black" fill="none" stroke-width="7.0" stroke-linecap="round" stroke-linejoin="round" />
<path d="M 162.0 182.5 L 162.0 182.5 L 162.0 183.0 L 162.0 183.5 L 162.0 183.5 L 163.0 183.5 L 165.5 183.5 L 170.5 183.0 L 176.0 182.0 L 180.0 182.0 L 181.5 182.0 " stroke="black" fill="none" stroke-width="7.0" stroke-linecap="round" stroke-linejoin="round" />
</svg>