<svg xmlns="http://www.w3.org/2000/svg" width="300" height="300" viewBox="0 0 300 300">
<path d="M 127.0 117.0 L 127.0 117.0 L 128.0 116.5 L 128.5 116.0 L 128.5 116.0 L 128.5 115.5 L 128.5 116.5 L 128.5 121.5 L 126.5 132.5 L 123.5 148.0 L 121.5 159.5 L 121.0 168.0 L 122.0 171.5 L 124.0 174.0 L 127.0 177.5 L 130.0 182.0 L 132.0 185.5 L 133.5 188.5 L 135.0 189.0 L 135.5 188.5 L 135.5 186.5 " stroke="black" fill="none" stroke-width="6.0" stroke-linecap="round" stroke-linejoin="round" />
<path d="M 135.5 145.0 L 136.0 144.0 L 136.0 143.5 L 136.0 144.0 L 135.5 147.0 L 132.5 155.5 L 127.5 168.0 L 122.0 179.5 L 119.5 185.5 L 119.0 186.0 L 119.0 185.5 " stroke="black" fill="none" stroke-width="6.0" stroke-linecap="round" stroke-linejoin="round" />
<path d="M 109.0 153.0 L 109.0 153.0 L 109.0 153.0 L 111.5 152.5 L 121.0 149.5 L 133.5 146.5 L 142.0 146.0 L 147.5 145.5 " stroke="black" fill="none" stroke-width="6.0" stroke-linecap="round" stroke-linejoin="round" />
<path d="M 151.5 123.0 L 151.0 123.0 L 150.0 123.0 L 150.0 123.0 L 152.0 121.5 L 156.0 119.0 L 159.5 116.5 L 162.5 113.5 L 165.0 111.5 L 166.0 110.5 L 166.5 110.5 L 166.5 110.5 " stroke="black" fill="none" stroke-width="6.0" stroke-linecap="round" stroke-linejoin="round" />
<path d="M 151.5 134.0 L 151.0 134.0 L 151.0 134.0 L 151.0 133.0 L 153.5 132.0 L 158.5 131.0 L 166.0 130.5 L 174.5 129.5 L 181.0 128.5 L 186.0 128.0 L 187.5 128.0 " stroke="black" fill="none" stroke-width="6.0" stroke-linecap="round" stroke-linejoin="round" />
<path d="M 158.5 119.0 L 158.5 119.0 L 158.5 119.0 L 159.0 120.0 L 160.5 122.5 L 162.0 128.0 L 164.0 139.5 L 165.0 151.5 L 165.0 162.5 L 165.0 172.0 L 163.5 179.0 L 162.0 183.0 L 160.0 184.0 L 158.0 184.0 L 156.0 182.0 L 154.0 179.5 L 153.0 177.5 L 152.5 175.5 L 152.5 174.0 L 152.5 172.5 L 153.0 172.0 " stroke="black" fill="none" stroke-width="6.0" stroke-linecap="round" stroke-linejoin="round" />
<path d="M 153.5 167.0 L 153.0 167.0 L 152.5 167.0 L 152.0 167.0 L 153.5 166.0 L 156.0 163.5 L 159.5 160.5 L 164.0 156.5 L 169.5 150.5 L 171.0 149.0 " stroke="black" fill="none" stroke-width="6.0" stroke-linecap="round" stroke-linejoin="round" />
<path d="M 174.5 115.5 L 175.0 115.5 L 175.0 115.0 L 175.5 115.0 L 175.5 116.0 L 176.5 122.0 L 177.5 134.5 L 177.5 150.5 L 179.0 162.5 L 182.0 169.0 L 186.5 171.5 L 189.5 171.5 L 191.5 170.0 L 192.5 167.5 L 193.0 165.0 L 193.5 163.0 " stroke="black" fill="none" stroke-width="6.0" stroke-linecap="round" stroke-linejoin="round" />
<path d="M 193.5 152.0 L 193.0 152.5 L 191.0 152.5 L 189.5 153.0 L 188.0 154.0 L 184.5 157.5 L 179.0 163.5 L 174.5 168.0 L 172.0 169.5 " stroke="black" fill="none" stroke-width="6.0" stroke-linecap="round" stroke-linejoin="round" />
<path d="M 187.5 115.0 L 187.0 115.0 L 186.5 115.0 L 186.5 115.0 L 188.0 115.5 L 190.5 116.5 L 193.0 118.0 L 194.0 119.0 " stroke="black" fill="none" stroke-width="6.0" stroke-linecap="round" stroke-linejoin="round" />
</svg>