<svg xmlns="http://www.w3.org/2000/svg" width="300" height="300" viewBox="0 0 300 300">
<path d="M 126.0 116.5 L 124.0 116.5 L 123.0 116.5 L 123.0 116.5 L 125.0 116.0 L 128.0 115.0 L 131.0 114.5 L 134.5 114.5 L 137.0 114.5 L 138.0 116.0 L 138.0 117.5 L 136.0 120.5 L 133.0 123.0 L 131.0 125.5 L 130.0 126.5 L 130.0 127.0 L 131.5 127.5 L 133.5 129.0 L 136.0 131.0 L 137.5 135.0 L 139.0 141.0 L 139.0 149.5 L 139.0 160.0 L 139.0 168.0 L 138.5 172.0 L 136.5 172.5 L 134.0 171.5 L 130.5 169.0 L 128.0 166.5 L 126.5 164.5 L 126.5 164.0 " stroke="black" fill="none" stroke-width="6.0" stroke-linecap="round" stroke-linejoin="round" />
<path d="M 129.0 153.5 L 129.5 154.0 L 130.0 154.0 L 131.5 153.5 L 135.0 151.0 L 141.0 147.0 L 146.5 143.0 L 150.5 140.0 L 151.0 139.5 " stroke="black" fill="none" stroke-width="6.0" stroke-linecap="round" stroke-linejoin="round" />
<path d="M 173.0 110.5 L 173.0 111.0 L 173.0 111.0 L 173.0 111.0 L 172.0 111.0 L 170.5 111.0 L 168.0 112.0 L 164.5 113.5 L 160.5 115.0 L 157.5 116.0 L 155.0 117.0 L 154.0 117.5 L 153.5 117.5 L 153.5 117.5 L 153.5 117.5 L 153.5 117.5 L 154.0 117.5 L 154.5 117.5 L 155.0 117.5 L 155.5 117.5 L 155.5 117.5 L 156.0 117.5 L 156.5 117.5 L 156.5 118.0 L 157.0 119.0 L 157.0 121.5 L 157.0 127.0 L 157.0 135.0 L 156.0 144.5 L 155.0 153.5 L 154.0 161.0 L 153.5 166.0 L 152.5 167.5 L 152.0 168.0 L 151.0 168.0 L 151.0 166.5 " stroke="black" fill="none" stroke-width="6.0" stroke-linecap="round" stroke-linejoin="round" />
<path d="M 167.0 127.0 L 166.5 126.0 L 166.0 126.0 L 166.0 125.5 L 166.0 125.5 L 166.0 125.5 L 166.5 127.5 L 167.0 131.0 L 167.0 136.5 L 166.5 143.0 L 166.0 150.5 L 165.0 155.5 L 164.5 159.0 L 163.0 162.0 L 163.0 163.5 L 163.0 164.0 L 163.0 163.5 L 164.0 163.0 L 164.5 162.5 L 165.5 162.0 L 167.0 161.5 L 168.5 161.0 L 170.0 160.0 L 171.0 158.5 L 172.0 157.5 " stroke="black" fill="none" stroke-width="6.0" stroke-linecap="round" stroke-linejoin="round" />
<path d="M 173.0 150.5 L 173.0 150.5 L 173.0 150.5 L 173.0 150.5 L 173.0 150.5 L 173.5 153.0 L 175.5 156.0 L 176.5 158.0 L 177.0 158.5 " stroke="black" fill="none" stroke-width="6.0" stroke-linecap="round" stroke-linejoin="round" />
<path d="M 172.5 124.5 L 172.5 124.5 L 172.5 124.0 L 172.5 124.0 L 172.5 124.0 L 173.0 124.5 L 174.5 128.0 L 177.0 136.5 L 182.0 150.0 L 188.0 162.5 L 192.5 168.0 L 195.5 170.5 L 196.0 170.0 L 196.0 169.5 " stroke="black" fill="none" stroke-width="6.0" stroke-linecap="round" stroke-linejoin="round" />
</svg>