<svg xmlns="http://www.w3.org/2000/svg" width="300" height="300" viewBox="0 0 300 300">
<path d="M 142.0 99.5 L 142.0 99.5 L 141.5 99.0 L 141.5 99.0 L 142.5 99.5 L 144.5 101.5 L 147.0 103.5 L 148.5 105.5 L 149.5 106.5 " stroke="black" fill="none" stroke-width="6.0" stroke-linecap="round" stroke-linejoin="round" />
<path d="M 128.5 113.5 L 128.5 114.0 L 128.5 115.0 L 128.5 116.5 L 127.0 119.0 L 126.0 122.5 L 124.5 125.5 L 124.0 127.5 L 124.0 127.5 " stroke="black" fill="none" stroke-width="6.0" stroke-linecap="round" stroke-linejoin="round" />
<path d="M 128.5 116.0 L 128.5 116.0 L 128.0 115.5 L 128.0 115.5 L 128.0 115.5 L 129.0 115.5 L 132.0 115.0 L 137.5 115.0 L 145.5 114.5 L 153.0 114.0 L 160.0 113.0 L 165.0 113.0 L 168.5 112.5 L 171.5 112.5 L 172.5 113.0 L 173.0 113.0 L 173.0 113.0 L 173.0 113.0 L 173.0 113.0 L 173.5 113.0 L 174.0 113.0 L 174.5 113.0 L 175.0 113.0 L 175.5 113.0 L 176.0 113.0 L 176.0 113.0 L 176.5 113.0 L 177.0 113.0 L 177.5 113.0 L 177.5 113.0 L 178.0 113.5 L 178.0 113.5 L 178.0 113.5 L 178.5 113.5 L 178.5 114.0 L 179.0 114.0 L 179.5 114.0 L 179.5 114.5 L 180.0 114.5 L 180.0 114.5 L 180.0 114.5 L 180.0 115.0 L 180.0 116.0 L 179.5 117.5 L 178.5 119.5 L 177.5 122.5 L 176.5 125.0 L 176.0 127.0 L 175.0 128.0 L 175.0 128.0 " stroke="black" fill="none" stroke-width="6.0" stroke-linecap="round" stroke-linejoin="round" />
<path d="M 140.5 125.5 L 140.5 125.5 L 140.5 125.5 L 141.0 125.0 L 142.5 125.0 L 145.0 125.0 L 149.5 124.5 L 153.5 124.0 L 156.5 123.5 L 158.5 123.5 L 159.0 123.5 L 159.0 124.5 L 159.0 124.5 " stroke="black" fill="none" stroke-width="6.0" stroke-linecap="round" stroke-linejoin="round" />
<path d="M 150.0 127.0 L 150.0 127.0 L 150.0 127.0 L 150.0 127.0 L 149.5 128.0 L 148.5 130.0 L 148.0 131.5 L 147.5 132.0 " stroke="black" fill="none" stroke-width="6.0" stroke-linecap="round" stroke-linejoin="round" />
<path d="M 136.5 139.5 L 136.5 139.5 L 136.5 139.5 L 136.5 139.0 L 136.5 139.0 L 136.5 138.5 L 136.5 138.0 L 137.0 138.0 L 137.0 138.0 L 137.5 139.5 L 137.5 142.5 L 137.5 146.5 L 137.5 151.0 L 137.0 155.0 L 136.5 159.0 L 136.5 162.5 L 136.0 165.0 L 136.0 166.0 L 136.0 166.5 L 136.5 166.5 L 136.5 166.5 L 137.0 165.0 L 137.0 164.5 " stroke="black" fill="none" stroke-width="6.0" stroke-linecap="round" stroke-linejoin="round" />
<path d="M 140.5 135.5 L 140.0 136.5 L 139.0 137.0 L 139.0 137.0 L 139.5 137.0 L 141.0 136.5 L 143.5 136.5 L 145.5 136.0 L 148.0 136.0 L 151.0 136.0 L 153.5 136.0 L 155.5 136.0 L 156.5 136.0 L 157.5 136.0 L 158.0 136.5 L 158.0 136.5 L 158.5 136.0 L 159.0 136.0 L 159.5 136.0 L 160.0 136.0 L 160.5 136.0 L 161.0 136.5 L 161.0 136.5 L 161.5 136.5 L 161.5 137.0 L 161.5 137.0 L 162.0 137.5 L 162.0 137.5 L 162.0 138.0 L 162.0 138.0 L 162.0 138.5 L 162.0 139.0 L 162.0 140.0 L 162.0 142.0 L 161.5 144.5 L 161.0 147.5 L 160.5 151.5 L 160.5 155.0 L 160.0 157.0 L 160.0 158.5 L 160.0 159.5 L 160.0 161.0 L 160.0 162.0 L 160.0 162.0 " stroke="black" fill="none" stroke-width="6.0" stroke-linecap="round" stroke-linejoin="round" />
<path d="M 143.5 148.0 L 143.0 148.0 L 141.5 148.0 L 141.0 148.0 L 141.0 148.0 L 143.0 148.0 L 146.0 148.0 L 149.0 148.0 L 152.0 148.0 L 154.5 147.5 L 155.5 147.5 L 155.5 147.5 " stroke="black" fill="none" stroke-width="6.0" stroke-linecap="round" stroke-linejoin="round" />
<path d="M 144.5 157.5 L 144.0 157.5 L 143.0 157.5 L 142.5 157.5 L 142.0 157.5 L 142.0 157.5 L 143.5 157.5 L 145.5 157.5 L 148.0 157.5 L 151.0 157.5 L 153.0 157.5 L 154.5 157.5 L 155.5 157.5 L 155.5 157.5 " stroke="black" fill="none" stroke-width="6.0" stroke-linecap="round" stroke-linejoin="round" />
<path d="M 127.0 166.5 L 127.0 166.5 L 127.0 166.0 L 127.0 165.5 L 127.0 165.5 L 128.0 165.5 L 129.5 165.0 L 133.0 165.0 L 139.0 165.0 L 147.5 165.0 L 156.0 164.5 L 163.0 164.0 L 167.0 164.5 L 169.0 165.0 L 170.0 165.5 L 170.5 165.5 L 171.0 165.5 L 171.0 165.0 L 171.0 165.0 L 171.5 165.0 L 171.5 165.0 L 172.0 165.0 L 172.5 165.0 L 172.5 165.0 L 172.5 165.0 L 172.5 165.0 L 172.5 165.0 L 172.5 165.0 L 172.5 165.0 L 172.5 165.0 " stroke="black" fill="none" stroke-width="6.0" stroke-linecap="round" stroke-linejoin="round" />
<path d="M 141.0 173.0 L 141.5 173.0 L 142.5 172.0 L 143.0 171.5 L 143.0 171.5 L 143.0 171.5 L 143.0 171.5 L 142.5 172.5 L 140.0 174.5 L 137.0 178.0 L 133.5 181.0 L 131.5 182.5 L 131.0 182.0 " stroke="black" fill="none" stroke-width="6.0" stroke-linecap="round" stroke-linejoin="round" />
<path d="M 155.0 170.0 L 155.0 170.0 L 154.0 170.0 L 153.5 170.0 L 154.5 170.5 L 158.0 172.5 L 164.0 175.0 L 170.5 178.0 L 174.5 180.5 L 176.5 181.0 L 176.0 181.0 L 175.5 181.0 " stroke="black" fill="none" stroke-width="6.0" stroke-linecap="round" stroke-linejoin="round" />
<path d="M 147.0 185.5 L 147.0 185.5 L 146.5 185.0 L 146.5 185.0 L 146.5 184.5 L 146.5 185.0 L 146.5 187.0 L 146.5 191.0 L 145.5 195.0 L 145.0 198.5 L 144.5 199.5 L 144.5 199.5 " stroke="black" fill="none" stroke-width="6.0" stroke-linecap="round" stroke-linejoin="round" />
<path d="M 145.0 184.0 L 144.5 184.0 L 142.5 184.0 L 142.0 184.5 L 142.5 184.5 L 144.0 184.0 L 146.5 183.5 L 149.5 182.5 L 152.0 182.0 L 154.5 182.0 L 157.0 181.5 L 158.5 181.5 L 160.0 182.0 L 160.5 182.5 L 161.0 183.0 L 161.5 184.0 L 161.5 184.0 L 161.5 184.5 L 161.5 185.0 L 161.5 185.5 L 161.5 187.0 L 161.5 189.0 L 162.0 191.0 L 162.0 193.5 L 162.0 196.5 L 162.0 199.0 L 161.0 201.5 L 160.0 202.5 L 158.5 203.0 L 157.0 202.0 L 155.0 200.5 L 154.5 199.0 " stroke="black" fill="none" stroke-width="6.0" stroke-linecap="round" stroke-linejoin="round" />
</svg>