<svg xmlns="http://www.w3.org/2000/svg" width="300" height="300" viewBox="0 0 300 300">
<path d="M 148.0 66.0 L 145.0 66.0 L 144.0 67.0 L 146.0 69.0 L 150.0 75.0 L 155.0 81.0 L 159.0 85.0 L 159.0 86.0 " stroke="black" fill="none" stroke-width="13.0" stroke-linecap="round" stroke-linejoin="round" />
<path d="M 87.0 86.0 L 87.0 86.0 L 87.0 85.0 L 86.0 84.0 L 85.0 84.0 L 84.0 87.0 L 82.0 96.0 L 81.0 104.0 L 79.0 109.0 L 78.0 110.0 " stroke="black" fill="none" stroke-width="13.0" stroke-linecap="round" stroke-linejoin="round" />
<path d="M 79.0 92.0 L 79.0 92.0 L 79.0 93.0 L 79.0 94.0 L 81.0 95.0 L 88.0 95.0 L 99.0 95.0 L 118.0 95.0 L 142.0 93.0 L 164.0 91.0 L 186.0 89.0 L 204.0 86.0 L 219.0 85.0 L 230.0 85.0 L 234.0 86.0 L 235.0 87.0 L 235.0 88.0 L 234.0 88.0 L 234.0 88.0 L 234.0 88.0 L 234.0 88.0 L 234.0 88.0 L 233.0 89.0 L 232.0 92.0 L 230.0 98.0 L 226.0 106.0 L 223.0 112.0 L 222.0 114.0 " stroke="black" fill="none" stroke-width="13.0" stroke-linecap="round" stroke-linejoin="round" />
<path d="M 99.0 123.0 L 98.0 122.0 L 98.0 121.0 L 97.0 120.0 L 96.0 119.0 L 96.0 119.0 L 97.0 120.0 L 101.0 122.0 L 111.0 124.0 L 130.0 125.0 L 154.0 124.0 L 177.0 123.0 L 192.0 122.0 L 202.0 121.0 L 204.0 119.0 " stroke="black" fill="none" stroke-width="13.0" stroke-linecap="round" stroke-linejoin="round" />
<path d="M 104.0 147.0 L 103.0 147.0 L 102.0 147.0 L 102.0 147.0 L 111.0 147.0 L 129.0 147.0 L 157.0 144.0 L 187.0 140.0 L 211.0 137.0 L 227.0 136.0 L 231.0 136.0 " stroke="black" fill="none" stroke-width="13.0" stroke-linecap="round" stroke-linejoin="round" />
<path d="M 127.0 110.0 L 127.0 110.0 L 126.0 107.0 L 125.0 106.0 L 124.0 105.0 L 124.0 105.0 L 124.0 113.0 L 124.0 131.0 L 125.0 153.0 L 128.0 163.0 L 129.0 164.0 " stroke="black" fill="none" stroke-width="13.0" stroke-linecap="round" stroke-linejoin="round" />
<path d="M 179.0 104.0 L 178.0 104.0 L 177.0 104.0 L 177.0 106.0 L 179.0 116.0 L 179.0 133.0 L 179.0 148.0 L 179.0 153.0 " stroke="black" fill="none" stroke-width="13.0" stroke-linecap="round" stroke-linejoin="round" />
<path d="M 78.0 176.0 L 78.0 176.0 L 79.0 176.0 L 85.0 176.0 L 103.0 175.0 L 133.0 172.0 L 163.0 168.0 L 189.0 167.0 L 209.0 166.0 L 225.0 166.0 L 233.0 169.0 " stroke="black" fill="none" stroke-width="13.0" stroke-linecap="round" stroke-linejoin="round" />
<path d="M 116.0 190.0 L 118.0 188.0 L 120.0 186.0 L 121.0 185.0 L 121.0 185.0 L 120.0 186.0 L 115.0 191.0 L 105.0 200.0 L 91.0 212.0 L 72.0 220.0 L 62.0 222.0 L 62.0 217.0 " stroke="black" fill="none" stroke-width="13.0" stroke-linecap="round" stroke-linejoin="round" />
<path d="M 183.0 175.0 L 181.0 175.0 L 177.0 175.0 L 176.0 175.0 L 176.0 175.0 L 182.0 179.0 L 193.0 188.0 L 209.0 201.0 L 225.0 212.0 L 235.0 217.0 L 237.0 217.0 " stroke="black" fill="none" stroke-width="13.0" stroke-linecap="round" stroke-linejoin="round" />
<path d="M 141.0 201.0 L 140.0 201.0 L 140.0 200.0 L 140.0 200.0 L 144.0 201.0 L 157.0 207.0 L 176.0 214.0 L 189.0 218.0 L 191.0 218.0 " stroke="black" fill="none" stroke-width="13.0" stroke-linecap="round" stroke-linejoin="round" />
<path d="M 111.0 239.0 L 112.0 239.0 L 112.0 240.0 L 115.0 241.0 L 126.0 244.0 L 146.0 251.0 L 168.0 256.0 L 185.0 257.0 L 187.0 257.0 " stroke="black" fill="none" stroke-width="13.0" stroke-linecap="round" stroke-linejoin="round" />
</svg>