<svg xmlns="http://www.w3.org/2000/svg" width="300" height="300" viewBox="0 0 300 300">
<path d="M 146.0 92.5 L 145.0 92.5 L 144.5 92.5 L 144.5 92.5 L 145.5 94.0 L 147.5 98.0 L 150.0 101.5 L 151.5 103.5 L 152.5 105.0 L 152.5 105.0 " stroke="black" fill="none" stroke-width="9.0" stroke-linecap="round" stroke-linejoin="round" />
<path d="M 116.5 112.5 L 116.5 112.5 L 117.0 112.5 L 117.0 113.0 L 117.0 114.0 L 117.0 118.5 L 115.0 124.5 L 113.5 129.5 L 113.0 131.0 L 113.0 130.0 " stroke="black" fill="none" stroke-width="9.0" stroke-linecap="round" stroke-linejoin="round" />
<path d="M 118.0 116.5 L 118.0 116.5 L 117.5 116.5 L 117.5 116.5 L 118.0 116.5 L 121.0 116.5 L 128.0 116.5 L 139.0 115.5 L 150.5 114.5 L 161.5 113.0 L 171.0 112.5 L 178.0 112.0 L 183.0 112.0 L 187.0 113.0 L 191.0 113.0 L 195.0 113.0 L 197.0 113.0 L 198.0 113.5 L 198.0 114.5 L 197.5 115.0 L 197.0 115.5 L 196.5 116.0 L 195.5 118.0 L 194.0 120.5 L 192.0 124.0 L 190.0 127.0 L 188.5 129.0 L 188.0 131.0 L 188.0 131.0 " stroke="black" fill="none" stroke-width="9.0" stroke-linecap="round" stroke-linejoin="round" />
<path d="M 130.0 133.0 L 130.0 133.0 L 130.0 133.5 L 130.5 133.5 L 133.5 133.5 L 141.0 133.0 L 151.5 131.0 L 162.0 130.0 L 170.0 129.5 L 174.0 129.5 L 174.0 130.0 " stroke="black" fill="none" stroke-width="9.0" stroke-linecap="round" stroke-linejoin="round" />
<path d="M 158.0 136.0 L 158.0 136.0 L 158.0 136.5 L 158.0 137.0 L 158.0 138.0 L 158.0 142.5 L 157.5 149.5 L 157.0 157.0 L 156.5 161.5 L 157.0 162.0 L 158.5 160.0 " stroke="black" fill="none" stroke-width="9.0" stroke-linecap="round" stroke-linejoin="round" />
<path d="M 156.0 151.5 L 156.0 151.5 L 156.0 151.5 L 156.0 152.0 L 159.0 152.0 L 165.5 151.0 L 174.0 149.0 L 180.5 147.5 L 181.5 147.5 " stroke="black" fill="none" stroke-width="9.0" stroke-linecap="round" stroke-linejoin="round" />
<path d="M 133.5 150.5 L 133.5 150.5 L 134.0 150.5 L 135.0 150.0 L 135.0 150.0 L 135.5 151.5 L 135.0 156.0 L 131.5 165.0 L 126.0 176.0 L 120.0 184.0 L 117.0 185.5 L 117.0 185.0 L 117.5 181.5 " stroke="black" fill="none" stroke-width="9.0" stroke-linecap="round" stroke-linejoin="round" />
<path d="M 133.5 171.0 L 133.5 171.0 L 134.0 171.0 L 134.5 171.0 L 135.5 171.5 L 137.5 173.5 L 142.5 176.5 L 151.0 179.0 L 162.0 180.5 L 172.5 182.0 L 181.0 183.0 L 188.0 183.5 L 194.0 183.0 L 199.0 181.0 L 202.5 179.0 L 203.5 178.5 L 203.5 178.5 L 202.5 178.5 " stroke="black" fill="none" stroke-width="9.0" stroke-linecap="round" stroke-linejoin="round" />
</svg>