<svg xmlns="http://www.w3.org/2000/svg" width="300" height="300" viewBox="0 0 300 300">
<path d="M 144.0 100.5 L 144.0 100.5 L 143.5 100.5 L 144.0 100.5 L 146.5 102.5 L 150.0 104.5 L 152.5 107.0 L 153.5 108.0 " stroke="black" fill="none" stroke-width="6.0" stroke-linecap="round" stroke-linejoin="round" />
<path d="M 124.5 119.5 L 124.5 120.0 L 124.5 120.0 L 124.5 120.5 L 124.5 121.5 L 123.5 124.0 L 122.0 127.5 L 121.0 130.5 L 120.5 131.0 " stroke="black" fill="none" stroke-width="6.0" stroke-linecap="round" stroke-linejoin="round" />
<path d="M 127.5 120.5 L 127.0 120.5 L 127.0 120.5 L 127.0 120.5 L 129.5 120.0 L 134.0 119.5 L 141.5 119.0 L 151.0 119.0 L 160.0 118.5 L 169.0 117.5 L 174.5 117.0 L 177.5 117.0 L 179.5 118.0 L 180.5 118.0 L 181.5 118.0 L 181.5 118.0 L 181.5 118.0 L 181.5 118.0 L 181.5 118.0 L 181.5 118.0 L 181.5 118.5 L 181.5 119.5 L 181.5 121.0 L 181.0 123.0 L 180.5 125.5 L 180.5 127.5 L 180.0 128.5 " stroke="black" fill="none" stroke-width="6.0" stroke-linecap="round" stroke-linejoin="round" />
<path d="M 134.0 133.0 L 134.5 133.0 L 135.0 132.5 L 135.0 132.5 L 135.0 132.5 L 135.0 134.0 L 135.0 136.5 L 134.0 139.5 L 133.0 143.0 L 133.0 143.0 " stroke="black" fill="none" stroke-width="6.0" stroke-linecap="round" stroke-linejoin="round" />
<path d="M 137.0 132.0 L 136.5 132.0 L 135.5 132.0 L 135.0 132.0 L 135.0 132.0 L 135.0 132.0 L 135.5 132.0 L 137.0 132.0 L 140.0 132.0 L 144.0 131.5 L 148.5 131.0 L 153.0 131.0 L 157.5 131.0 L 160.5 131.0 L 163.5 130.5 L 166.0 130.5 L 167.5 130.0 L 169.0 129.5 L 169.5 129.5 L 170.5 129.5 L 171.0 129.5 L 171.5 129.5 L 171.5 129.5 L 171.5 129.5 L 171.5 129.5 L 171.5 129.5 L 171.5 129.5 L 171.5 129.5 L 171.0 130.0 L 170.5 131.0 L 170.0 132.5 L 169.5 134.5 L 168.5 137.0 L 167.5 139.0 L 167.0 140.5 L 167.0 141.5 L 167.0 141.5 " stroke="black" fill="none" stroke-width="6.0" stroke-linecap="round" stroke-linejoin="round" />
<path d="M 147.0 134.5 L 147.0 135.0 L 147.0 135.5 L 147.5 136.0 L 147.5 136.5 L 147.5 138.0 L 147.5 140.0 L 147.5 141.5 L 147.5 142.0 " stroke="black" fill="none" stroke-width="6.0" stroke-linecap="round" stroke-linejoin="round" />
<path d="M 156.0 133.0 L 156.0 133.0 L 157.0 133.0 L 157.5 133.5 L 158.0 133.5 L 158.5 134.0 L 158.5 136.0 L 158.5 138.0 L 158.5 139.5 L 158.0 140.5 " stroke="black" fill="none" stroke-width="6.0" stroke-linecap="round" stroke-linejoin="round" />
<path d="M 132.0 149.0 L 131.5 148.5 L 131.0 148.5 L 131.0 148.5 L 131.5 148.0 L 134.0 148.0 L 139.5 147.0 L 147.0 146.0 L 155.5 145.0 L 164.0 144.0 L 170.0 143.5 L 172.5 143.5 L 173.5 143.5 L 173.0 143.5 L 172.5 143.5 L 171.5 143.5 " stroke="black" fill="none" stroke-width="6.0" stroke-linecap="round" stroke-linejoin="round" />
<path d="M 115.0 163.5 L 115.0 163.5 L 115.0 163.5 L 115.0 163.5 L 116.0 163.0 L 121.0 162.0 L 132.0 160.0 L 147.5 157.0 L 162.0 154.5 L 171.0 154.0 L 175.0 153.5 L 176.0 154.0 L 176.0 154.0 L 176.0 154.0 L 176.0 154.0 L 176.0 154.0 L 176.0 154.0 L 176.0 154.0 L 176.0 154.0 L 176.0 154.0 L 176.0 154.0 L 176.0 154.0 L 176.0 154.0 L 176.0 154.0 L 176.0 154.0 L 176.0 154.0 L 176.0 154.0 " stroke="black" fill="none" stroke-width="6.0" stroke-linecap="round" stroke-linejoin="round" />
<path d="M 134.5 171.0 L 134.5 170.5 L 134.5 169.5 L 134.5 168.5 L 134.5 168.0 L 134.5 168.0 L 135.5 168.5 L 136.5 170.0 L 137.5 172.5 L 138.0 175.0 L 138.5 176.5 " stroke="black" fill="none" stroke-width="6.0" stroke-linecap="round" stroke-linejoin="round" />
<path d="M 137.5 169.0 L 137.0 169.0 L 136.5 168.0 L 136.5 168.0 L 137.5 168.0 L 141.5 168.0 L 147.5 167.5 L 154.0 166.5 L 159.5 166.0 L 163.5 165.5 L 165.0 165.5 L 165.0 165.0 L 165.0 165.0 L 165.0 165.0 L 165.0 165.0 L 165.0 166.5 L 164.5 169.0 L 163.5 171.5 L 163.0 173.5 L 162.0 175.5 L 162.0 176.0 L 162.0 176.5 " stroke="black" fill="none" stroke-width="6.0" stroke-linecap="round" stroke-linejoin="round" />
<path d="M 140.0 179.0 L 140.0 179.0 L 139.5 179.5 L 139.0 179.5 L 141.0 179.5 L 145.0 179.0 L 151.5 178.5 L 157.5 178.5 L 162.0 178.0 L 164.0 177.5 " stroke="black" fill="none" stroke-width="6.0" stroke-linecap="round" stroke-linejoin="round" />
<path d="M 148.5 179.0 L 149.5 179.0 L 150.5 179.0 L 151.0 178.5 L 151.0 178.5 L 150.5 179.5 L 148.0 183.0 L 142.5 188.0 L 135.5 193.0 L 129.5 196.0 L 127.0 196.5 L 128.0 195.5 L 128.5 195.0 " stroke="black" fill="none" stroke-width="6.0" stroke-linecap="round" stroke-linejoin="round" />
<path d="M 149.5 182.0 L 149.5 181.5 L 149.5 181.5 L 151.5 182.0 L 155.0 184.0 L 161.5 186.5 L 169.5 189.0 L 176.5 191.5 L 180.5 193.5 L 182.0 194.0 " stroke="black" fill="none" stroke-width="6.0" stroke-linecap="round" stroke-linejoin="round" />
<path d="M 179.0 177.0 L 179.0 177.5 L 178.0 178.5 L 176.5 179.5 L 173.0 180.5 L 169.0 183.5 L 166.0 187.0 L 165.0 189.0 " stroke="black" fill="none" stroke-width="6.0" stroke-linecap="round" stroke-linejoin="round" />
<path d="M 145.5 190.5 L 145.5 190.0 L 145.5 189.5 L 145.5 189.0 L 145.5 189.0 L 145.5 189.5 L 145.5 192.0 L 145.5 197.0 L 145.0 202.5 L 145.0 206.5 L 146.0 207.0 L 149.5 204.0 L 153.5 200.0 L 156.0 198.0 L 157.5 197.5 L 157.5 198.0 " stroke="black" fill="none" stroke-width="6.0" stroke-linecap="round" stroke-linejoin="round" />
</svg>