<svg xmlns="http://www.w3.org/2000/svg" width="300" height="300" viewBox="0 0 300 300">
<path d="M 144.5 84.0 L 144.5 84.0 L 143.5 84.0 L 143.5 84.5 L 144.0 86.0 L 146.0 88.5 L 148.5 91.0 L 149.5 92.0 L 150.0 92.5 " stroke="black" fill="none" stroke-width="9.0" stroke-linecap="round" stroke-linejoin="round" />
<path d="M 111.5 101.5 L 111.5 101.0 L 112.0 100.0 L 112.0 100.0 L 112.0 101.0 L 111.0 104.5 L 109.5 109.0 L 108.0 113.5 L 108.0 116.0 L 108.0 116.0 " stroke="black" fill="none" stroke-width="9.0" stroke-linecap="round" stroke-linejoin="round" />
<path d="M 113.5 102.5 L 113.5 102.5 L 113.5 102.5 L 114.0 102.5 L 115.5 102.0 L 122.0 102.0 L 133.0 102.0 L 148.5 101.0 L 163.5 99.5 L 177.5 98.0 L 188.0 97.5 L 194.5 98.5 L 198.5 100.0 L 200.0 100.5 L 200.0 100.5 L 200.0 100.5 L 199.5 100.5 L 199.5 102.0 L 199.0 103.5 L 198.5 105.5 L 198.0 108.0 L 197.0 111.0 L 196.0 114.0 L 195.5 116.5 " stroke="black" fill="none" stroke-width="9.0" stroke-linecap="round" stroke-linejoin="round" />
<path d="M 121.5 120.0 L 121.5 119.0 L 122.0 118.5 L 124.5 118.0 L 128.5 117.0 L 134.0 116.0 L 139.0 115.0 L 141.5 115.0 L 142.0 115.0 " stroke="black" fill="none" stroke-width="9.0" stroke-linecap="round" stroke-linejoin="round" />
<path d="M 123.5 134.0 L 123.5 134.0 L 123.5 134.0 L 124.0 133.5 L 126.5 133.0 L 131.0 132.0 L 136.0 131.0 L 139.0 130.0 " stroke="black" fill="none" stroke-width="9.0" stroke-linecap="round" stroke-linejoin="round" />
<path d="M 132.0 120.5 L 132.0 120.5 L 132.0 120.5 L 132.0 121.5 L 131.5 127.0 L 131.5 135.5 L 131.5 143.0 L 131.5 146.0 " stroke="black" fill="none" stroke-width="9.0" stroke-linecap="round" stroke-linejoin="round" />
<path d="M 119.0 153.5 L 119.0 153.5 L 119.5 153.0 L 120.5 152.5 L 124.0 151.5 L 132.0 150.5 L 141.0 149.0 L 149.0 147.5 " stroke="black" fill="none" stroke-width="9.0" stroke-linecap="round" stroke-linejoin="round" />
<path d="M 163.5 107.0 L 164.5 106.5 L 165.0 106.0 L 165.0 106.0 L 165.0 106.0 L 163.5 109.0 L 160.5 114.5 L 157.0 120.5 L 154.5 124.0 L 154.0 125.0 " stroke="black" fill="none" stroke-width="9.0" stroke-linecap="round" stroke-linejoin="round" />
<path d="M 164.5 117.5 L 164.0 117.5 L 164.0 118.0 L 165.0 118.0 L 169.0 117.5 L 175.5 116.5 L 181.5 115.5 L 184.5 115.0 L 185.5 115.0 L 185.5 115.0 " stroke="black" fill="none" stroke-width="9.0" stroke-linecap="round" stroke-linejoin="round" />
<path d="M 161.5 132.0 L 161.5 132.5 L 161.5 132.5 L 162.0 132.5 L 165.0 132.5 L 170.5 132.0 L 176.0 130.5 L 180.0 129.0 L 180.5 129.0 " stroke="black" fill="none" stroke-width="9.0" stroke-linecap="round" stroke-linejoin="round" />
<path d="M 173.0 120.0 L 173.0 120.0 L 173.0 119.5 L 173.0 119.5 L 173.0 122.5 L 172.5 129.5 L 172.0 136.0 L 172.0 139.0 " stroke="black" fill="none" stroke-width="9.0" stroke-linecap="round" stroke-linejoin="round" />
<path d="M 160.0 144.0 L 160.5 143.5 L 160.5 143.0 L 160.5 143.0 L 160.5 145.0 L 160.5 147.5 L 160.5 150.0 L 161.5 151.5 L 163.5 152.0 L 167.0 151.5 L 171.0 150.0 L 174.5 149.0 L 176.5 148.0 L 178.5 147.0 " stroke="black" fill="none" stroke-width="9.0" stroke-linecap="round" stroke-linejoin="round" />
<path d="M 183.0 141.0 L 183.0 140.5 L 183.0 140.5 L 183.5 140.5 L 184.0 141.0 L 184.5 143.5 L 184.5 146.5 L 185.0 149.5 L 185.0 150.5 " stroke="black" fill="none" stroke-width="9.0" stroke-linecap="round" stroke-linejoin="round" />
<path d="M 128.0 165.0 L 128.0 165.5 L 128.0 167.0 L 128.5 171.0 L 129.5 180.5 L 131.0 189.5 L 132.0 194.5 L 132.5 195.5 L 132.5 195.5 " stroke="black" fill="none" stroke-width="9.0" stroke-linecap="round" stroke-linejoin="round" />
<path d="M 129.0 167.0 L 129.0 167.0 L 128.5 167.0 L 128.0 167.5 L 129.0 167.5 L 133.5 167.5 L 141.5 166.0 L 151.5 164.5 L 161.0 163.5 L 166.5 163.5 L 169.0 164.0 L 169.0 167.5 L 168.0 172.0 L 167.0 177.5 L 166.0 183.5 L 166.0 189.5 L 166.0 193.5 L 166.0 195.5 L 166.0 195.0 L 165.5 192.5 " stroke="black" fill="none" stroke-width="9.0" stroke-linecap="round" stroke-linejoin="round" />
<path d="M 135.0 183.0 L 135.0 183.0 L 134.5 182.5 L 134.5 182.0 L 134.5 181.5 L 137.0 180.5 L 142.5 179.0 L 150.0 178.5 L 156.0 178.0 L 158.5 178.0 L 158.5 178.5 " stroke="black" fill="none" stroke-width="9.0" stroke-linecap="round" stroke-linejoin="round" />
<path d="M 136.0 193.0 L 136.5 193.0 L 137.0 193.0 L 138.0 193.0 L 140.5 193.0 L 146.0 192.5 L 152.0 191.0 L 156.5 190.5 L 157.5 190.5 " stroke="black" fill="none" stroke-width="9.0" stroke-linecap="round" stroke-linejoin="round" />
<path d="M 134.0 205.5 L 134.0 205.5 L 134.0 205.5 L 134.5 205.5 L 139.5 205.0 L 148.5 203.5 L 156.5 201.5 L 162.5 200.5 L 163.0 200.0 " stroke="black" fill="none" stroke-width="9.0" stroke-linecap="round" stroke-linejoin="round" />
<path d="M 144.5 211.5 L 143.5 211.5 L 142.0 211.5 L 139.0 213.5 L 134.5 218.0 L 130.0 222.5 L 128.0 224.0 L 128.0 223.5 " stroke="black" fill="none" stroke-width="9.0" stroke-linecap="round" stroke-linejoin="round" />
<path d="M 171.0 212.5 L 170.5 213.0 L 170.0 213.5 L 170.0 214.5 L 173.5 216.0 L 181.0 219.0 L 189.0 222.0 L 192.5 222.5 " stroke="black" fill="none" stroke-width="9.0" stroke-linecap="round" stroke-linejoin="round" />
</svg>