<svg xmlns="http://www.w3.org/2000/svg" width="300" height="300" viewBox="0 0 300 300">
<path d="M 151.0 113.5 L 150.5 113.5 L 150.0 113.0 L 149.5 113.0 L 149.5 113.0 L 149.5 114.0 L 150.0 118.0 L 151.5 124.5 L 152.5 132.5 L 153.0 141.0 L 153.0 149.5 L 153.5 157.5 L 154.0 165.0 L 154.0 170.5 L 154.0 173.0 L 154.0 175.5 L 153.0 177.5 L 152.5 179.0 L 152.0 179.0 L 151.5 179.5 L 150.0 179.5 L 148.5 179.5 L 146.5 179.0 L 143.5 178.5 L 141.0 177.5 L 139.5 176.0 L 139.5 175.5 " stroke="black" fill="none" stroke-width="6.0" stroke-linecap="round" stroke-linejoin="round" />
<path d="M 140.5 143.0 L 140.5 142.0 L 140.5 141.5 L 140.5 141.5 L 138.5 144.0 L 135.0 150.0 L 131.0 156.5 L 128.5 161.0 L 128.5 162.0 " stroke="black" fill="none" stroke-width="6.0" stroke-linecap="round" stroke-linejoin="round" />
<path d="M 171.5 142.0 L 171.5 141.5 L 170.5 141.0 L 170.5 141.0 L 171.5 141.5 L 174.0 143.5 L 177.5 147.5 L 182.0 151.5 L 186.5 155.0 L 188.5 156.5 " stroke="black" fill="none" stroke-width="6.0" stroke-linecap="round" stroke-linejoin="round" />
</svg>