<svg xmlns="http://www.w3.org/2000/svg" width="300" height="300" viewBox="0 0 300 300">
<path d="M 127.5 105.5 L 127.5 106.0 L 127.5 106.0 L 127.5 106.5 L 128.0 106.5 L 130.0 106.5 L 135.5 106.5 L 145.5 105.5 L 155.5 104.5 L 163.0 104.0 L 168.0 104.0 L 170.5 104.5 L 171.5 104.5 L 172.0 104.5 L 172.0 104.5 L 172.0 104.5 L 172.0 104.5 L 172.0 104.5 L 172.0 104.5 L 172.0 104.5 L 172.0 105.0 L 172.0 105.0 L 172.0 106.5 L 172.0 108.5 L 171.5 111.0 L 171.0 114.0 L 170.0 116.5 L 169.5 118.0 L 169.5 118.5 L 169.5 118.5 " stroke="black" fill="none" stroke-width="6.0" stroke-linecap="round" stroke-linejoin="round" />
<path d="M 130.0 118.5 L 129.5 118.5 L 129.0 118.0 L 128.5 117.5 L 128.0 117.5 L 128.5 117.0 L 130.5 117.0 L 134.5 117.5 L 141.5 119.0 L 151.0 119.5 L 160.5 119.5 L 167.5 118.5 L 170.5 117.5 L 170.5 117.5 L 169.5 117.5 L 167.0 117.5 " stroke="black" fill="none" stroke-width="6.0" stroke-linecap="round" stroke-linejoin="round" />
<path d="M 128.0 110.0 L 128.0 110.0 L 128.0 110.0 L 128.0 110.5 L 127.5 110.5 L 127.5 111.0 L 127.0 113.0 L 127.0 120.0 L 126.5 135.0 L 125.5 152.0 L 124.0 165.0 L 121.5 174.0 L 118.5 182.0 L 114.5 187.5 L 112.0 189.5 L 111.0 190.0 L 111.0 189.5 L 111.5 188.5 " stroke="black" fill="none" stroke-width="6.0" stroke-linecap="round" stroke-linejoin="round" />
<path d="M 139.5 130.0 L 139.5 130.0 L 139.5 130.0 L 139.5 130.0 L 139.5 130.5 L 139.5 132.5 L 140.0 136.0 L 140.0 140.0 L 140.0 142.5 L 140.5 143.0 L 140.5 142.0 " stroke="black" fill="none" stroke-width="6.0" stroke-linecap="round" stroke-linejoin="round" />
<path d="M 139.5 129.5 L 139.5 129.5 L 139.0 129.5 L 138.5 129.0 L 138.5 129.0 L 139.0 129.0 L 142.0 129.0 L 146.5 129.0 L 152.0 129.0 L 158.5 129.0 L 163.5 129.5 L 167.0 130.0 L 168.0 130.0 L 168.0 130.5 L 168.0 130.5 L 168.0 130.5 L 167.5 130.5 L 167.5 130.5 L 167.5 131.0 L 167.0 131.5 L 166.0 133.5 L 165.0 137.0 L 164.0 142.0 L 163.5 145.5 L 163.0 147.5 L 163.0 149.0 L 163.0 149.0 " stroke="black" fill="none" stroke-width="6.0" stroke-linecap="round" stroke-linejoin="round" />
<path d="M 129.5 139.0 L 129.5 139.0 L 129.5 139.0 L 131.0 139.0 L 136.0 138.0 L 145.5 137.5 L 155.5 138.5 L 163.5 140.0 L 168.5 141.0 L 172.5 141.5 L 174.0 141.5 L 174.0 141.5 L 173.5 141.0 " stroke="black" fill="none" stroke-width="6.0" stroke-linecap="round" stroke-linejoin="round" />
<path d="M 137.5 148.0 L 137.5 148.0 L 137.5 148.5 L 137.5 148.5 L 138.5 148.5 L 141.5 148.5 L 146.0 148.0 L 152.0 148.5 L 157.0 149.0 L 161.0 149.5 L 164.0 149.5 L 164.5 149.5 " stroke="black" fill="none" stroke-width="6.0" stroke-linecap="round" stroke-linejoin="round" />
<path d="M 138.0 160.0 L 138.5 160.0 L 138.5 160.5 L 138.5 160.5 L 138.5 160.5 L 139.0 162.0 L 139.5 164.0 L 140.5 166.5 L 141.0 168.0 L 141.0 168.0 " stroke="black" fill="none" stroke-width="6.0" stroke-linecap="round" stroke-linejoin="round" />
<path d="M 141.0 158.5 L 141.0 158.5 L 140.5 158.5 L 140.5 159.0 L 141.5 159.0 L 144.5 159.0 L 149.5 158.5 L 155.0 158.0 L 161.5 157.0 L 167.0 157.0 L 169.5 156.5 L 170.0 156.5 L 170.0 156.5 L 170.0 156.5 L 169.5 156.5 L 169.5 156.5 L 169.5 157.0 L 169.5 157.5 L 169.5 158.5 L 168.5 161.0 L 167.5 163.5 L 167.0 166.0 L 166.5 167.5 L 166.5 168.5 L 166.5 168.5 " stroke="black" fill="none" stroke-width="6.0" stroke-linecap="round" stroke-linejoin="round" />
<path d="M 151.5 125.5 L 151.5 125.5 L 151.5 125.5 L 151.5 125.5 L 152.0 125.5 L 152.0 125.5 L 152.0 125.5 L 152.0 126.0 L 152.0 127.5 L 152.0 130.5 L 152.0 136.0 L 152.0 142.5 L 152.0 149.0 L 152.0 153.5 L 152.0 156.5 L 152.0 159.5 L 152.0 162.0 L 152.0 165.0 L 152.0 167.0 L 152.0 169.0 L 152.0 170.0 L 152.0 171.0 L 152.5 171.5 L 152.5 171.5 L 152.5 171.5 L 152.5 171.5 L 152.5 170.5 L 152.5 170.0 " stroke="black" fill="none" stroke-width="6.0" stroke-linecap="round" stroke-linejoin="round" />
<path d="M 142.5 173.0 L 142.5 173.0 L 141.5 173.5 L 141.5 173.5 L 141.5 173.0 L 144.5 172.0 L 149.0 171.0 L 154.5 170.5 L 159.5 170.5 L 163.0 170.5 L 164.0 170.5 L 164.5 170.5 L 164.5 170.5 L 164.5 170.5 " stroke="black" fill="none" stroke-width="6.0" stroke-linecap="round" stroke-linejoin="round" />
<path d="M 146.0 179.5 L 146.0 179.5 L 146.0 180.0 L 146.5 180.0 L 147.0 180.0 L 147.0 180.0 L 147.0 180.0 L 147.0 180.0 L 145.5 182.0 L 142.5 185.0 L 139.5 188.5 L 138.0 191.0 L 137.5 192.0 L 139.0 193.0 L 142.5 194.5 L 147.5 197.5 L 153.0 200.0 L 157.5 202.5 L 160.0 203.0 L 161.0 203.0 L 161.0 202.5 L 161.0 201.5 " stroke="black" fill="none" stroke-width="6.0" stroke-linecap="round" stroke-linejoin="round" />
<path d="M 158.5 183.0 L 159.0 183.5 L 159.0 184.0 L 159.0 184.5 L 158.0 185.0 L 156.0 186.5 L 152.5 189.5 L 148.0 194.0 L 142.5 198.5 L 138.0 202.0 L 135.5 203.0 L 134.5 202.5 " stroke="black" fill="none" stroke-width="6.0" stroke-linecap="round" stroke-linejoin="round" />
<path d="M 127.5 188.0 L 128.0 188.0 L 129.0 187.5 L 131.5 187.0 L 139.0 186.0 L 151.0 185.5 L 163.0 185.5 L 171.5 185.0 L 175.0 185.0 L 175.0 186.0 " stroke="black" fill="none" stroke-width="6.0" stroke-linecap="round" stroke-linejoin="round" />
</svg>