<svg xmlns="http://www.w3.org/2000/svg" width="300" height="300" viewBox="0 0 300 300">
<path d="M 133.0 89.0 L 133.0 89.0 L 132.5 89.0 L 134.0 89.0 L 137.5 89.5 L 142.0 91.0 L 145.5 93.0 L 146.5 93.5 " stroke="black" fill="none" stroke-width="8.0" stroke-linecap="round" stroke-linejoin="round" />
<path d="M 171.0 81.5 L 171.0 80.5 L 171.5 79.5 L 172.0 79.0 L 172.0 79.0 L 172.0 80.5 L 171.0 84.0 L 169.5 88.5 L 168.0 92.5 L 167.5 94.5 " stroke="black" fill="none" stroke-width="8.0" stroke-linecap="round" stroke-linejoin="round" />
<path d="M 123.0 104.5 L 122.5 104.5 L 122.5 104.0 L 125.0 103.0 L 132.5 102.5 L 145.5 101.5 L 160.5 101.0 L 173.5 100.5 L 184.0 100.0 L 190.5 100.0 L 192.0 101.0 L 191.5 102.0 L 191.5 102.0 " stroke="black" fill="none" stroke-width="8.0" stroke-linecap="round" stroke-linejoin="round" />
<path d="M 124.5 119.5 L 124.0 119.0 L 123.5 119.0 L 123.5 119.0 L 123.5 121.5 L 124.5 127.0 L 125.5 135.5 L 126.5 144.5 L 127.0 150.0 L 127.5 151.0 L 128.5 148.0 " stroke="black" fill="none" stroke-width="8.0" stroke-linecap="round" stroke-linejoin="round" />
<path d="M 126.5 121.5 L 126.0 121.5 L 125.5 121.0 L 125.0 121.0 L 126.0 121.0 L 128.0 120.5 L 132.5 120.0 L 139.5 119.0 L 148.5 117.5 L 158.0 116.5 L 165.5 116.5 L 170.5 116.5 L 175.5 116.0 L 180.0 116.0 L 183.0 116.0 L 185.5 116.0 L 186.5 117.0 L 186.5 117.0 L 186.5 117.5 L 186.5 117.5 L 186.5 117.5 L 186.5 119.0 L 186.5 120.5 L 186.5 122.5 L 186.5 124.5 L 186.5 128.0 L 186.0 132.0 L 185.5 137.0 L 185.0 142.5 L 185.0 147.0 L 185.0 149.5 L 185.0 150.0 L 185.0 148.0 " stroke="black" fill="none" stroke-width="8.0" stroke-linecap="round" stroke-linejoin="round" />
<path d="M 150.0 101.5 L 149.5 100.0 L 149.5 100.0 L 150.0 100.0 L 150.0 102.5 L 150.0 106.5 L 150.0 114.5 L 148.0 125.0 L 145.5 133.5 L 144.0 137.0 L 143.0 137.5 L 143.0 134.5 " stroke="black" fill="none" stroke-width="8.0" stroke-linecap="round" stroke-linejoin="round" />
<path d="M 164.5 105.0 L 164.5 105.0 L 164.0 105.0 L 164.0 104.5 L 164.0 105.0 L 163.5 107.5 L 163.0 113.5 L 162.0 122.0 L 161.0 129.0 L 160.5 132.5 L 161.5 134.5 L 163.5 135.5 L 165.5 136.5 L 168.0 136.5 L 171.0 136.5 L 173.5 134.5 L 175.0 133.5 L 175.0 133.5 " stroke="black" fill="none" stroke-width="8.0" stroke-linecap="round" stroke-linejoin="round" />
<path d="M 146.0 148.0 L 146.0 148.0 L 146.0 148.0 L 147.0 147.5 L 151.0 147.0 L 157.5 146.5 L 164.5 145.5 L 167.5 145.5 " stroke="black" fill="none" stroke-width="8.0" stroke-linecap="round" stroke-linejoin="round" />
<path d="M 130.0 160.0 L 130.0 160.0 L 130.0 160.0 L 130.5 160.0 L 131.0 160.0 L 133.5 159.5 L 138.5 158.5 L 145.5 157.0 L 153.5 155.5 L 162.0 154.5 L 169.0 154.0 L 173.5 154.0 L 176.5 154.0 L 178.0 154.0 L 178.0 153.5 L 178.5 153.0 L 179.0 152.5 L 180.5 152.5 L 182.5 152.5 L 185.5 152.5 L 188.0 152.5 L 189.5 152.5 L 190.0 152.5 L 190.0 152.5 L 190.0 152.5 L 190.0 152.5 L 190.0 152.5 L 190.0 152.5 L 190.0 152.5 L 190.0 152.5 L 189.5 153.0 " stroke="black" fill="none" stroke-width="8.0" stroke-linecap="round" stroke-linejoin="round" />
<path d="M 129.5 173.5 L 129.5 173.5 L 129.5 173.5 L 129.5 173.0 L 129.5 173.0 L 130.0 173.0 L 132.0 173.0 L 136.0 174.0 L 142.5 174.5 L 153.0 174.5 L 165.5 173.0 L 175.0 171.5 L 183.0 170.0 L 187.5 170.0 L 188.5 170.0 L 188.5 170.0 L 188.0 170.0 L 187.5 170.0 L 187.5 170.0 L 187.5 170.0 " stroke="black" fill="none" stroke-width="8.0" stroke-linecap="round" stroke-linejoin="round" />
<path d="M 170.5 163.0 L 170.0 162.5 L 169.5 162.0 L 169.0 161.5 L 169.0 163.0 L 169.5 166.0 L 169.5 172.0 L 170.0 181.0 L 171.0 191.5 L 172.5 200.5 L 174.0 207.5 L 174.5 212.5 L 174.5 216.0 L 174.0 217.5 L 172.5 219.0 L 170.5 219.5 L 167.5 219.5 L 165.0 218.5 L 162.0 216.5 L 160.0 215.0 " stroke="black" fill="none" stroke-width="8.0" stroke-linecap="round" stroke-linejoin="round" />
<path d="M 146.5 192.0 L 145.5 192.0 L 145.0 191.5 L 145.0 191.5 L 146.5 192.5 L 149.5 194.0 L 152.5 195.5 L 154.5 196.0 " stroke="black" fill="none" stroke-width="8.0" stroke-linecap="round" stroke-linejoin="round" />
</svg>