<svg xmlns="http://www.w3.org/2000/svg" width="300" height="300" viewBox="0 0 300 300">
<path d="M 130.5 101.0 L 130.5 101.0 L 130.5 101.0 L 130.5 101.0 L 130.5 100.5 L 130.5 100.5 L 131.0 100.5 L 134.0 100.0 L 140.5 99.5 L 150.5 98.0 L 159.0 97.5 L 164.0 97.0 L 168.0 97.0 L 171.0 96.5 L 172.5 96.5 L 173.0 96.5 L 173.0 96.5 L 173.0 96.5 L 173.0 96.5 L 173.0 96.5 L 173.0 96.5 L 173.0 96.5 L 173.0 96.5 L 173.5 96.5 L 173.5 96.5 L 173.5 96.5 L 173.5 96.5 L 173.5 96.5 L 173.5 96.5 L 173.5 96.5 L 173.5 96.5 L 173.5 96.5 L 173.5 96.5 L 173.5 96.5 " stroke="black" fill="none" stroke-width="7.0" stroke-linecap="round" stroke-linejoin="round" />
<path d="M 134.5 110.5 L 134.5 110.5 L 135.0 110.5 L 135.0 110.5 L 135.5 110.5 L 135.5 112.5 L 135.5 116.5 L 135.5 121.5 L 135.0 124.5 L 135.0 125.5 L 136.0 124.5 L 136.5 123.0 " stroke="black" fill="none" stroke-width="7.0" stroke-linecap="round" stroke-linejoin="round" />
<path d="M 140.0 109.5 L 140.0 109.5 L 139.0 109.5 L 138.5 109.5 L 138.5 109.5 L 139.0 109.5 L 141.0 109.5 L 145.5 109.0 L 151.5 108.0 L 160.5 107.0 L 168.5 106.5 L 172.5 106.5 L 173.0 107.0 L 173.0 107.5 L 172.5 107.5 L 172.0 108.0 L 172.0 108.5 L 172.0 108.5 L 171.0 111.0 L 170.0 113.5 L 169.0 116.5 L 168.0 119.5 L 167.0 122.0 L 167.0 124.0 L 167.0 125.0 L 167.5 125.0 " stroke="black" fill="none" stroke-width="7.0" stroke-linecap="round" stroke-linejoin="round" />
<path d="M 144.5 119.0 L 143.5 119.0 L 143.0 119.0 L 142.0 119.0 L 141.5 119.0 L 141.0 119.0 L 141.0 119.0 L 142.5 118.5 L 145.5 118.0 L 150.5 117.5 L 157.0 117.0 L 163.0 116.5 L 167.0 116.5 L 167.5 116.5 L 167.0 116.5 " stroke="black" fill="none" stroke-width="7.0" stroke-linecap="round" stroke-linejoin="round" />
<path d="M 142.5 128.0 L 142.5 128.0 L 142.0 128.0 L 142.0 128.5 L 142.0 128.5 L 143.0 128.5 L 147.0 128.5 L 153.5 127.5 L 161.5 126.0 L 167.0 125.0 L 168.5 125.0 " stroke="black" fill="none" stroke-width="7.0" stroke-linecap="round" stroke-linejoin="round" />
<path d="M 153.5 88.5 L 154.0 88.5 L 154.5 89.0 L 154.5 89.0 L 155.0 89.5 L 155.0 90.0 L 155.0 91.5 L 155.0 94.5 L 155.0 98.5 L 155.0 104.5 L 154.5 111.0 L 154.0 117.0 L 153.5 122.0 L 153.0 126.0 L 152.5 129.5 L 152.0 132.5 L 151.5 135.0 L 151.5 137.0 L 151.5 138.0 L 151.5 138.5 L 151.5 138.5 L 151.5 138.5 L 151.5 138.0 " stroke="black" fill="none" stroke-width="7.0" stroke-linecap="round" stroke-linejoin="round" />
<path d="M 133.0 142.0 L 133.0 142.0 L 133.0 141.5 L 132.5 141.5 L 132.5 141.5 L 132.5 141.0 L 134.0 141.0 L 139.0 140.5 L 147.5 140.0 L 157.0 139.0 L 165.5 139.0 L 170.0 139.0 L 170.5 139.0 L 170.0 139.0 L 169.0 139.0 L 168.5 138.5 " stroke="black" fill="none" stroke-width="7.0" stroke-linecap="round" stroke-linejoin="round" />
<path d="M 173.0 134.5 L 173.0 134.5 L 173.0 134.5 L 173.0 134.5 L 173.0 134.5 L 173.0 134.5 L 173.5 134.5 L 175.0 136.5 L 177.5 140.0 L 180.0 142.5 L 181.5 144.5 " stroke="black" fill="none" stroke-width="7.0" stroke-linecap="round" stroke-linejoin="round" />
<path d="M 127.5 152.5 L 127.5 153.5 L 127.5 154.0 L 127.5 154.0 L 128.0 154.5 L 129.0 155.0 L 131.0 155.0 L 135.0 155.5 L 142.0 155.5 L 151.0 155.0 L 161.5 154.0 L 171.0 153.0 L 177.5 152.5 L 181.0 152.5 L 181.5 152.5 L 181.0 152.5 L 181.0 152.5 L 180.5 152.5 L 180.5 152.5 L 180.5 152.5 L 180.0 152.5 L 179.5 152.5 " stroke="black" fill="none" stroke-width="7.0" stroke-linecap="round" stroke-linejoin="round" />
<path d="M 169.0 147.5 L 168.0 147.0 L 167.5 146.5 L 167.5 146.5 L 167.5 146.5 L 167.5 148.0 L 168.5 151.5 L 169.0 156.0 L 169.0 161.5 L 169.5 167.5 L 169.5 173.0 L 170.0 177.5 L 170.0 180.0 L 170.0 181.5 L 170.5 182.5 L 170.5 184.0 L 170.5 185.0 L 170.5 186.0 L 170.0 186.5 L 169.5 186.5 L 167.5 186.5 L 165.0 185.5 L 162.5 184.0 L 159.5 182.5 L 157.5 181.5 L 157.0 181.5 " stroke="black" fill="none" stroke-width="7.0" stroke-linecap="round" stroke-linejoin="round" />
<path d="M 145.0 166.0 L 144.0 165.5 L 143.5 165.0 L 143.0 165.0 L 143.5 165.0 L 145.5 166.0 L 148.0 167.5 L 151.0 169.0 L 153.5 170.0 L 154.5 170.5 " stroke="black" fill="none" stroke-width="7.0" stroke-linecap="round" stroke-linejoin="round" />
</svg>