<svg xmlns="http://www.w3.org/2000/svg" width="300" height="300" viewBox="0 0 300 300">
<path d="M 149.0 91.0 L 149.0 91.0 L 149.0 91.0 L 149.0 90.5 L 149.0 90.5 L 149.0 90.5 L 149.0 91.0 L 149.0 94.5 L 149.0 99.0 L 149.5 103.5 L 149.5 106.5 L 149.5 107.5 " stroke="black" fill="none" stroke-width="6.0" stroke-linecap="round" stroke-linejoin="round" />
<path d="M 126.0 98.5 L 126.0 98.0 L 126.0 97.5 L 126.0 97.0 L 126.0 96.5 L 126.0 96.5 L 126.0 96.5 L 126.5 96.5 L 126.5 98.5 L 126.5 102.0 L 126.5 106.0 L 127.0 109.0 L 127.5 111.0 L 129.0 112.0 L 130.5 111.5 L 133.5 110.5 L 138.0 108.5 L 145.0 107.0 L 153.0 105.5 L 161.0 104.5 L 168.5 103.5 L 172.5 103.5 L 175.0 103.5 L 175.5 103.5 L 175.5 103.5 L 175.0 103.5 L 175.0 103.5 L 175.0 103.5 L 174.5 103.5 L 174.0 103.5 " stroke="black" fill="none" stroke-width="6.0" stroke-linecap="round" stroke-linejoin="round" />
<path d="M 175.5 88.5 L 175.5 89.0 L 175.5 89.5 L 175.5 89.5 L 175.5 90.0 L 175.5 91.0 L 175.5 92.5 L 175.0 95.5 L 175.0 99.5 L 175.0 103.0 L 175.0 105.0 " stroke="black" fill="none" stroke-width="6.0" stroke-linecap="round" stroke-linejoin="round" />
<path d="M 146.0 117.5 L 145.5 118.0 L 145.5 118.0 L 145.0 118.0 L 145.5 118.5 L 147.0 119.5 L 149.0 121.0 L 150.0 122.5 L 151.5 124.0 L 151.5 124.5 " stroke="black" fill="none" stroke-width="6.0" stroke-linecap="round" stroke-linejoin="round" />
<path d="M 124.0 127.5 L 124.0 127.5 L 124.0 127.0 L 124.0 126.5 L 123.5 126.5 L 123.5 128.0 L 123.0 131.0 L 122.0 134.5 L 121.5 137.5 L 121.5 138.5 " stroke="black" fill="none" stroke-width="6.0" stroke-linecap="round" stroke-linejoin="round" />
<path d="M 125.0 129.5 L 125.0 130.0 L 125.0 130.0 L 125.0 130.5 L 126.0 130.5 L 129.5 130.5 L 134.5 130.0 L 142.5 129.0 L 151.5 128.0 L 161.5 127.5 L 170.0 126.5 L 175.5 126.0 L 179.0 126.0 L 181.0 126.0 L 181.0 126.0 L 181.0 126.0 L 181.0 126.0 L 181.0 126.0 L 181.0 126.0 L 181.0 126.0 L 180.5 126.0 L 180.5 126.5 L 180.0 127.5 L 179.5 129.5 L 178.0 133.0 L 177.0 136.0 L 176.5 138.5 L 176.0 140.5 L 176.0 140.5 " stroke="black" fill="none" stroke-width="6.0" stroke-linecap="round" stroke-linejoin="round" />
<path d="M 131.5 138.5 L 131.5 139.5 L 131.5 140.0 L 131.5 140.0 L 132.5 140.0 L 135.5 139.5 L 141.5 138.5 L 149.0 138.0 L 156.0 137.5 L 160.5 137.5 L 162.5 138.0 L 162.5 139.0 L 162.0 139.0 " stroke="black" fill="none" stroke-width="6.0" stroke-linecap="round" stroke-linejoin="round" />
<path d="M 124.0 149.5 L 123.5 149.5 L 123.0 149.5 L 122.5 149.5 L 122.5 149.5 L 125.0 149.5 L 131.5 149.5 L 141.5 149.0 L 152.0 149.0 L 160.5 149.5 L 167.0 150.0 L 170.5 150.5 L 170.5 151.0 L 169.5 151.0 L 168.5 151.0 " stroke="black" fill="none" stroke-width="6.0" stroke-linecap="round" stroke-linejoin="round" />
<path d="M 146.5 153.5 L 146.5 152.5 L 146.5 151.5 L 146.0 151.0 L 145.5 150.5 L 145.5 151.0 L 145.5 153.0 L 146.0 159.0 L 146.0 168.0 L 146.0 178.5 L 146.0 185.0 L 146.0 187.0 L 146.0 187.0 L 146.0 185.5 " stroke="black" fill="none" stroke-width="6.0" stroke-linecap="round" stroke-linejoin="round" />
<path d="M 133.5 164.0 L 135.0 163.0 L 136.0 162.5 L 136.5 162.5 L 137.0 162.0 L 137.0 162.0 L 137.0 163.5 L 134.5 167.5 L 130.5 174.0 L 125.5 180.5 L 122.0 184.5 L 122.0 184.5 L 122.5 184.5 " stroke="black" fill="none" stroke-width="6.0" stroke-linecap="round" stroke-linejoin="round" />
<path d="M 158.0 166.0 L 158.0 166.5 L 157.5 167.0 L 157.0 167.5 L 158.0 168.0 L 161.5 169.0 L 168.0 172.0 L 174.5 175.5 L 179.0 179.0 L 180.5 181.5 " stroke="black" fill="none" stroke-width="6.0" stroke-linecap="round" stroke-linejoin="round" />
</svg>