<svg xmlns="http://www.w3.org/2000/svg" width="300" height="300" viewBox="0 0 300 300">
<path d="M 128.0 118.0 L 128.0 117.0 L 128.0 116.5 L 128.0 116.0 L 128.0 116.0 L 128.5 119.5 L 128.5 127.0 L 128.5 137.0 L 128.0 149.5 L 128.0 158.0 L 128.0 159.5 L 128.5 159.0 L 128.5 155.5 " stroke="black" fill="none" stroke-width="6.0" stroke-linecap="round" stroke-linejoin="round" />
<path d="M 113.5 127.0 L 113.5 127.0 L 114.0 127.0 L 114.5 127.5 L 115.0 128.0 L 115.5 130.5 L 116.0 136.0 L 116.5 144.0 L 116.5 154.0 L 116.5 162.0 L 116.5 165.5 L 118.0 166.0 L 120.0 166.0 L 123.0 166.0 L 126.0 166.5 L 129.5 166.0 L 133.0 164.0 L 135.5 163.0 L 137.5 162.5 " stroke="black" fill="none" stroke-width="6.0" stroke-linecap="round" stroke-linejoin="round" />
<path d="M 143.0 130.5 L 142.5 130.5 L 142.0 130.5 L 141.5 131.0 L 141.0 131.5 L 141.0 134.5 L 141.0 142.0 L 140.5 155.0 L 140.0 166.0 L 140.0 170.5 L 141.0 170.5 L 141.5 169.5 " stroke="black" fill="none" stroke-width="6.0" stroke-linecap="round" stroke-linejoin="round" />
<path d="M 151.5 108.5 L 151.5 109.5 L 151.5 110.0 L 151.5 110.5 L 153.5 110.0 L 158.5 108.5 L 166.0 107.0 L 173.0 105.0 L 177.5 104.0 L 179.0 103.5 L 179.0 103.5 L 178.5 103.5 " stroke="black" fill="none" stroke-width="6.0" stroke-linecap="round" stroke-linejoin="round" />
<path d="M 152.5 119.5 L 152.5 119.5 L 152.5 119.5 L 152.5 119.5 L 153.0 119.5 L 154.5 119.5 L 159.0 119.0 L 165.5 119.0 L 171.5 118.5 L 176.5 117.0 L 178.0 116.5 L 177.5 116.0 " stroke="black" fill="none" stroke-width="6.0" stroke-linecap="round" stroke-linejoin="round" />
<path d="M 167.0 108.5 L 167.0 108.5 L 167.5 108.5 L 167.5 108.5 L 167.5 109.0 L 167.5 110.5 L 165.0 115.5 L 160.0 124.0 L 154.5 131.5 L 151.0 136.0 L 150.5 136.5 L 151.5 134.5 L 154.0 131.0 " stroke="black" fill="none" stroke-width="6.0" stroke-linecap="round" stroke-linejoin="round" />
<path d="M 166.0 124.0 L 165.5 124.0 L 164.0 124.0 L 163.5 124.0 L 163.0 124.0 L 164.0 124.0 L 167.0 124.5 L 171.5 126.0 L 176.5 128.5 L 181.5 130.5 L 185.0 131.5 L 186.0 131.5 " stroke="black" fill="none" stroke-width="6.0" stroke-linecap="round" stroke-linejoin="round" />
<path d="M 158.5 132.0 L 158.5 131.5 L 159.0 131.0 L 159.0 130.5 L 159.5 130.0 L 159.5 130.0 L 160.0 131.0 L 160.5 134.0 L 161.0 138.5 L 161.0 142.5 L 161.0 145.0 L 161.0 145.5 " stroke="black" fill="none" stroke-width="6.0" stroke-linecap="round" stroke-linejoin="round" />
<path d="M 164.0 130.0 L 163.0 131.0 L 162.0 132.0 L 162.0 132.0 L 162.0 132.0 L 164.0 132.0 L 166.5 132.0 L 169.5 132.0 L 172.0 131.5 L 174.0 131.0 L 176.0 130.5 L 177.0 130.5 L 177.0 130.5 L 177.0 131.0 L 177.0 132.0 L 176.5 133.5 L 176.0 136.0 L 175.5 139.0 L 175.0 142.0 L 174.5 144.0 L 174.5 145.0 L 174.5 145.0 " stroke="black" fill="none" stroke-width="6.0" stroke-linecap="round" stroke-linejoin="round" />
<path d="M 163.0 145.0 L 162.5 145.0 L 162.0 145.0 L 162.0 145.0 L 162.5 144.5 L 165.5 144.0 L 169.0 143.5 L 172.0 143.5 L 174.0 144.0 L 174.0 144.0 " stroke="black" fill="none" stroke-width="6.0" stroke-linecap="round" stroke-linejoin="round" />
<path d="M 154.5 155.5 L 154.5 155.0 L 154.5 154.5 L 154.5 154.0 L 154.5 153.5 L 154.5 154.0 L 154.5 158.5 L 154.5 167.5 L 154.5 178.0 L 155.0 184.5 L 155.0 186.0 L 155.0 185.0 L 154.5 181.0 " stroke="black" fill="none" stroke-width="6.0" stroke-linecap="round" stroke-linejoin="round" />
<path d="M 155.5 154.5 L 155.5 155.0 L 154.5 156.0 L 154.0 156.5 L 154.0 156.5 L 154.5 156.5 L 156.5 156.5 L 159.5 156.5 L 163.0 156.0 L 169.0 155.5 L 176.0 154.5 L 182.0 153.5 L 185.5 153.0 L 187.0 153.0 L 187.0 153.0 L 186.5 153.0 L 186.0 153.0 L 186.0 153.0 L 186.0 153.0 L 186.0 153.0 L 185.5 153.5 L 185.5 154.5 L 185.5 157.0 L 185.0 160.5 L 185.0 165.5 L 184.5 171.5 L 184.0 177.0 L 184.0 182.5 L 184.0 187.0 L 184.0 189.0 L 183.5 190.0 L 183.0 190.5 L 182.5 190.5 L 182.0 190.5 L 181.0 190.5 L 180.0 190.0 L 178.5 189.0 L 178.0 188.0 " stroke="black" fill="none" stroke-width="6.0" stroke-linecap="round" stroke-linejoin="round" />
<path d="M 163.5 168.0 L 164.0 167.0 L 164.0 166.0 L 164.0 165.0 L 164.0 165.0 L 164.0 165.0 L 164.0 167.0 L 164.0 170.0 L 164.0 173.0 L 164.0 174.5 L 164.0 175.0 L 164.5 174.0 " stroke="black" fill="none" stroke-width="6.0" stroke-linecap="round" stroke-linejoin="round" />
<path d="M 165.5 166.5 L 164.5 166.0 L 164.0 165.5 L 164.0 165.5 L 164.0 165.5 L 166.0 165.5 L 168.0 165.0 L 170.5 165.0 L 172.5 165.0 L 174.0 165.0 L 175.5 165.0 L 176.0 165.0 L 176.5 165.0 L 176.5 165.0 L 176.5 165.5 L 176.5 167.0 L 176.0 169.0 L 175.5 170.5 L 175.0 172.0 L 174.5 173.0 L 174.5 173.0 " stroke="black" fill="none" stroke-width="6.0" stroke-linecap="round" stroke-linejoin="round" />
<path d="M 167.5 174.5 L 167.0 174.5 L 166.0 175.5 L 165.0 175.5 L 165.0 175.5 L 166.5 174.5 L 168.5 174.0 L 171.0 173.5 L 173.0 173.5 L 174.5 174.0 " stroke="black" fill="none" stroke-width="6.0" stroke-linecap="round" stroke-linejoin="round" />
</svg>