<svg xmlns="http://www.w3.org/2000/svg" width="300" height="300" viewBox="0 0 300 300">
<path d="M 111.0 120.5 L 111.0 120.5 L 110.5 119.5 L 111.0 119.5 L 115.5 120.0 L 124.5 121.0 L 139.5 121.5 L 156.5 121.5 L 173.0 120.0 L 183.5 119.0 L 188.5 119.5 L 188.5 121.0 " stroke="black" fill="none" stroke-width="8.0" stroke-linecap="round" stroke-linejoin="round" />
<path d="M 143.5 100.0 L 143.5 99.0 L 143.5 98.5 L 143.5 99.0 L 144.0 103.0 L 142.5 112.0 L 135.5 129.0 L 123.5 149.5 L 113.5 163.5 L 107.0 169.0 L 105.5 169.5 L 106.0 167.5 " stroke="black" fill="none" stroke-width="8.0" stroke-linecap="round" stroke-linejoin="round" />
<path d="M 134.0 144.0 L 132.5 144.5 L 130.5 145.5 L 130.5 146.0 L 134.5 146.5 L 143.0 147.0 L 153.5 147.0 L 174.5 146.5 L 180.0 145.5 " stroke="black" fill="none" stroke-width="8.0" stroke-linecap="round" stroke-linejoin="round" />
<path d="M 156.5 147.5 L 156.5 147.0 L 156.5 146.5 L 156.5 149.5 L 155.5 158.0 L 154.0 169.0 L 153.5 176.0 L 155.0 178.5 L 155.0 178.5 " stroke="black" fill="none" stroke-width="8.0" stroke-linecap="round" stroke-linejoin="round" />
<path d="M 121.0 186.0 L 121.0 185.5 L 121.5 185.0 L 123.5 184.0 L 130.5 183.0 L 143.5 182.5 L 156.0 182.0 L 168.5 181.5 L 178.0 180.0 L 187.0 178.5 L 192.5 178.5 " stroke="black" fill="none" stroke-width="8.0" stroke-linecap="round" stroke-linejoin="round" />
</svg>