<svg xmlns="http://www.w3.org/2000/svg" width="300" height="300" viewBox="0 0 300 300">
<path d="M 128.5 131.5 L 128.5 131.5 L 129.0 132.0 L 129.0 132.0 L 129.0 132.0 L 130.5 131.5 L 134.5 130.5 L 144.0 129.5 L 155.0 128.5 L 165.0 128.5 L 170.5 128.5 L 171.5 129.5 L 171.5 130.0 L 171.0 130.0 L 170.5 129.5 L 170.5 129.0 " stroke="black" fill="none" stroke-width="8.0" stroke-linecap="round" stroke-linejoin="round" />
<path d="M 151.5 130.0 L 151.5 130.0 L 151.5 130.0 L 151.5 130.0 L 151.5 130.0 L 151.5 131.0 L 151.5 136.5 L 151.5 148.0 L 150.5 160.0 L 150.5 166.5 L 150.5 168.5 L 151.0 167.5 L 151.0 165.5 " stroke="black" fill="none" stroke-width="8.0" stroke-linecap="round" stroke-linejoin="round" />
<path d="M 123.0 174.0 L 123.0 174.0 L 123.0 175.0 L 123.0 175.0 L 124.0 175.0 L 129.5 174.5 L 139.5 173.5 L 152.5 172.5 L 164.0 172.0 L 171.0 172.0 L 173.5 172.5 L 173.5 173.0 L 172.5 173.0 L 171.5 172.5 " stroke="black" fill="none" stroke-width="8.0" stroke-linecap="round" stroke-linejoin="round" />
</svg>