<svg xmlns="http://www.w3.org/2000/svg" width="300" height="300" viewBox="0 0 300 300">
<path d="M 147.5 80.5 L 147.5 80.5 L 147.0 79.5 L 146.5 79.5 L 146.5 80.5 L 147.0 85.5 L 148.5 91.0 L 149.5 95.0 L 150.5 96.5 L 150.5 96.5 " stroke="black" fill="none" stroke-width="9.0" stroke-linecap="round" stroke-linejoin="round" />
<path d="M 111.5 97.0 L 111.5 97.0 L 111.5 96.5 L 111.5 96.5 L 112.5 96.5 L 115.5 97.5 L 120.5 98.5 L 127.0 100.0 L 134.5 100.0 L 136.5 100.0 " stroke="black" fill="none" stroke-width="9.0" stroke-linecap="round" stroke-linejoin="round" />
<path d="M 179.5 86.5 L 179.5 86.5 L 180.0 87.0 L 180.0 88.0 L 180.0 89.5 L 178.5 92.0 L 177.0 94.5 L 175.5 96.5 " stroke="black" fill="none" stroke-width="9.0" stroke-linecap="round" stroke-linejoin="round" />
<path d="M 115.5 111.0 L 115.5 111.0 L 116.0 111.5 L 116.0 112.0 L 115.5 113.5 L 114.5 116.5 L 114.0 119.5 L 113.5 121.0 " stroke="black" fill="none" stroke-width="9.0" stroke-linecap="round" stroke-linejoin="round" />
<path d="M 122.0 112.5 L 122.0 112.5 L 121.5 112.5 L 121.5 113.0 L 124.0 113.0 L 132.5 112.0 L 146.0 110.0 L 162.5 108.0 L 177.5 106.5 L 190.0 105.0 L 197.0 105.0 L 199.5 105.5 L 200.5 106.5 L 200.5 107.5 L 200.5 109.0 L 200.5 111.0 L 200.5 113.0 L 200.0 115.0 L 199.0 117.0 L 197.0 119.5 L 196.5 120.0 " stroke="black" fill="none" stroke-width="9.0" stroke-linecap="round" stroke-linejoin="round" />
<path d="M 137.0 128.5 L 137.0 128.5 L 137.0 129.0 L 137.5 130.5 L 138.0 134.5 L 139.5 140.0 L 141.0 143.5 L 141.5 143.5 " stroke="black" fill="none" stroke-width="9.0" stroke-linecap="round" stroke-linejoin="round" />
<path d="M 141.5 130.5 L 140.0 131.0 L 139.0 131.5 L 138.5 131.5 L 142.0 131.0 L 148.0 129.5 L 156.0 127.0 L 166.0 125.0 L 172.5 125.0 L 174.5 127.0 L 174.0 131.0 L 172.0 135.0 L 170.5 138.0 L 170.5 139.5 L 170.0 139.5 L 170.0 139.5 " stroke="black" fill="none" stroke-width="9.0" stroke-linecap="round" stroke-linejoin="round" />
<path d="M 141.0 150.0 L 141.0 150.0 L 141.5 150.0 L 143.5 150.0 L 151.0 148.5 L 161.5 146.5 L 170.0 146.5 L 172.0 146.5 " stroke="black" fill="none" stroke-width="9.0" stroke-linecap="round" stroke-linejoin="round" />
<path d="M 120.0 173.0 L 119.5 173.5 L 119.0 175.5 L 119.5 181.0 L 121.5 190.0 L 123.0 197.0 L 124.0 200.0 L 124.0 199.5 " stroke="black" fill="none" stroke-width="9.0" stroke-linecap="round" stroke-linejoin="round" />
<path d="M 126.5 171.0 L 126.0 171.0 L 126.0 171.0 L 126.0 171.0 L 128.5 171.0 L 138.0 168.5 L 153.5 164.0 L 171.5 160.5 L 185.5 160.0 L 196.0 161.0 L 202.5 164.0 L 205.5 167.5 L 207.5 171.5 L 209.0 176.5 L 210.0 182.0 L 210.0 187.5 L 209.5 193.0 L 208.0 196.5 L 205.0 199.0 L 199.5 199.0 L 193.5 197.0 L 186.5 192.0 " stroke="black" fill="none" stroke-width="9.0" stroke-linecap="round" stroke-linejoin="round" />
<path d="M 158.0 151.0 L 158.0 151.0 L 158.0 151.5 L 158.0 152.0 L 158.5 158.0 L 160.5 176.5 L 162.5 198.0 L 163.5 210.0 L 163.5 217.5 L 163.5 220.5 L 162.5 219.5 L 162.0 219.0 " stroke="black" fill="none" stroke-width="9.0" stroke-linecap="round" stroke-linejoin="round" />
</svg>