<svg xmlns="http://www.w3.org/2000/svg" width="300" height="300" viewBox="0 0 300 300">
<path d="M 137.5 107.5 L 137.5 107.5 L 138.0 107.0 L 138.0 106.5 L 138.5 105.5 L 138.5 105.5 L 138.5 105.5 L 138.0 108.5 L 134.5 115.5 L 129.0 123.5 L 124.5 128.0 L 123.0 129.0 L 123.0 128.0 L 123.5 127.0 " stroke="black" fill="none" stroke-width="8.0" stroke-linecap="round" stroke-linejoin="round" />
<path d="M 134.0 120.0 L 133.5 120.0 L 133.5 119.5 L 133.5 119.5 L 135.0 119.0 L 139.5 118.5 L 147.5 118.5 L 156.0 118.5 L 164.0 118.0 L 169.5 117.0 L 170.5 116.5 L 170.5 116.5 L 170.0 117.5 L 170.0 118.0 " stroke="black" fill="none" stroke-width="8.0" stroke-linecap="round" stroke-linejoin="round" />
<path d="M 137.5 141.0 L 137.5 140.5 L 137.5 140.0 L 137.5 139.5 L 137.5 139.5 L 137.5 140.5 L 137.0 144.5 L 136.5 149.0 L 136.5 152.5 L 137.0 154.5 L 137.5 154.5 L 137.5 154.0 " stroke="black" fill="none" stroke-width="8.0" stroke-linecap="round" stroke-linejoin="round" />
<path d="M 139.5 138.0 L 139.0 137.5 L 138.0 137.0 L 138.0 136.5 L 139.0 136.5 L 143.0 135.5 L 148.5 135.0 L 154.5 134.5 L 159.5 134.5 L 162.0 135.0 L 162.5 135.5 L 162.5 135.5 " stroke="black" fill="none" stroke-width="8.0" stroke-linecap="round" stroke-linejoin="round" />
<path d="M 126.0 158.5 L 125.5 159.0 L 124.5 159.5 L 124.0 160.0 L 125.0 160.0 L 129.5 159.0 L 138.5 157.5 L 151.0 156.0 L 163.0 155.5 L 170.0 155.5 L 171.5 156.5 L 171.0 157.0 L 170.5 156.0 " stroke="black" fill="none" stroke-width="8.0" stroke-linecap="round" stroke-linejoin="round" />
<path d="M 154.5 123.0 L 154.5 123.0 L 155.0 122.5 L 155.0 122.5 L 155.0 122.0 L 155.5 124.0 L 155.5 129.0 L 155.5 138.5 L 155.0 152.5 L 154.5 166.0 L 154.0 175.5 L 154.5 182.0 L 155.5 188.0 L 156.0 191.0 L 156.0 191.5 L 156.0 191.5 L 156.0 191.5 L 156.0 190.0 L 156.0 189.0 " stroke="black" fill="none" stroke-width="8.0" stroke-linecap="round" stroke-linejoin="round" />
</svg>