<svg xmlns="http://www.w3.org/2000/svg" width="300" height="300" viewBox="0 0 300 300">
<path d="M 144.5 94.5 L 144.0 94.5 L 143.5 94.5 L 143.5 94.5 L 145.5 96.5 L 149.0 99.5 L 152.5 102.0 L 155.0 103.0 L 155.0 103.0 " stroke="black" fill="none" stroke-width="6.0" stroke-linecap="round" stroke-linejoin="round" />
<path d="M 127.0 114.5 L 127.0 114.5 L 126.5 115.0 L 126.5 115.0 L 129.0 114.5 L 135.0 114.0 L 144.5 114.0 L 155.5 114.0 L 165.0 113.5 L 171.5 113.0 L 174.0 113.0 L 174.5 113.0 L 174.0 113.0 L 173.5 112.5 L 172.5 111.0 " stroke="black" fill="none" stroke-width="6.0" stroke-linecap="round" stroke-linejoin="round" />
<path d="M 124.5 116.5 L 125.0 116.0 L 125.0 115.5 L 125.5 115.5 L 126.0 116.0 L 127.0 119.0 L 128.5 126.0 L 128.5 139.0 L 127.0 155.0 L 124.0 168.5 L 121.5 176.0 L 118.5 181.5 L 115.5 185.5 L 115.0 186.5 L 115.0 186.5 L 115.0 186.0 " stroke="black" fill="none" stroke-width="6.0" stroke-linecap="round" stroke-linejoin="round" />
<path d="M 135.0 130.5 L 135.0 131.0 L 135.5 131.0 L 136.0 131.0 L 139.0 131.0 L 142.5 130.5 L 147.0 129.5 L 151.0 128.0 L 151.5 127.5 " stroke="black" fill="none" stroke-width="6.0" stroke-linecap="round" stroke-linejoin="round" />
<path d="M 137.0 143.5 L 137.0 142.5 L 136.5 142.0 L 136.5 142.0 L 137.0 145.0 L 137.0 148.5 L 137.5 152.5 L 138.0 155.5 " stroke="black" fill="none" stroke-width="6.0" stroke-linecap="round" stroke-linejoin="round" />
<path d="M 139.0 144.0 L 139.0 143.0 L 138.5 142.0 L 138.5 141.5 L 139.0 140.5 L 141.5 140.0 L 145.0 139.5 L 148.5 139.5 L 151.5 139.5 L 153.5 139.5 L 154.5 141.0 L 155.0 143.0 L 155.0 145.5 L 154.0 148.0 L 153.0 150.0 L 152.0 151.5 " stroke="black" fill="none" stroke-width="6.0" stroke-linecap="round" stroke-linejoin="round" />
<path d="M 140.5 149.5 L 139.0 149.5 L 138.0 149.5 L 138.5 149.5 L 141.0 149.0 L 144.0 148.0 L 147.0 147.5 L 150.0 147.0 L 150.5 147.0 " stroke="black" fill="none" stroke-width="6.0" stroke-linecap="round" stroke-linejoin="round" />
<path d="M 144.5 124.5 L 144.5 124.5 L 144.0 124.5 L 143.5 124.5 L 143.5 125.0 L 143.5 126.5 L 144.0 129.0 L 145.0 133.0 L 145.5 136.5 L 146.0 137.5 " stroke="black" fill="none" stroke-width="6.0" stroke-linecap="round" stroke-linejoin="round" />
<path d="M 140.5 159.5 L 140.5 159.5 L 140.0 159.5 L 140.0 159.5 L 140.0 159.5 L 141.0 159.5 L 143.5 159.0 L 147.0 158.5 L 149.5 158.5 L 151.0 158.5 " stroke="black" fill="none" stroke-width="6.0" stroke-linecap="round" stroke-linejoin="round" />
<path d="M 136.0 168.5 L 136.0 168.5 L 136.0 168.5 L 136.0 168.5 L 136.5 168.5 L 140.0 168.5 L 145.5 168.5 L 151.0 168.0 L 154.0 168.0 L 155.0 168.0 " stroke="black" fill="none" stroke-width="6.0" stroke-linecap="round" stroke-linejoin="round" />
<path d="M 146.5 159.5 L 146.0 159.5 L 145.5 159.5 L 145.5 159.5 L 145.5 162.5 L 146.0 169.0 L 146.5 179.0 L 146.0 189.0 L 146.0 194.0 L 146.5 194.0 L 147.5 192.0 " stroke="black" fill="none" stroke-width="6.0" stroke-linecap="round" stroke-linejoin="round" />
<path d="M 164.5 130.5 L 164.5 130.5 L 164.5 130.5 L 164.5 130.5 L 164.5 130.5 L 164.5 132.0 L 164.5 136.5 L 164.5 146.5 L 162.5 161.0 L 161.0 174.0 L 160.5 180.0 L 162.0 181.5 L 163.5 178.0 " stroke="black" fill="none" stroke-width="6.0" stroke-linecap="round" stroke-linejoin="round" />
<path d="M 167.0 128.0 L 166.0 128.0 L 165.5 128.0 L 165.5 128.0 L 166.5 128.0 L 168.5 127.5 L 170.5 127.0 L 172.0 127.0 L 173.5 126.5 L 174.5 127.0 L 175.0 128.0 L 175.5 131.0 L 175.5 136.0 L 175.5 143.0 L 176.0 151.0 L 176.0 159.5 L 176.5 167.5 L 177.0 173.5 L 177.0 177.5 L 177.0 179.0 L 177.0 179.5 L 176.0 177.5 L 174.5 173.5 L 173.5 171.0 " stroke="black" fill="none" stroke-width="6.0" stroke-linecap="round" stroke-linejoin="round" />
<path d="M 166.5 142.5 L 166.0 142.5 L 165.5 142.5 L 165.5 142.5 L 167.5 142.5 L 170.0 141.5 L 173.0 141.0 L 175.0 141.0 L 176.0 141.0 " stroke="black" fill="none" stroke-width="6.0" stroke-linecap="round" stroke-linejoin="round" />
<path d="M 168.5 156.0 L 167.5 156.5 L 166.5 157.0 L 166.5 157.0 L 168.0 157.0 L 170.5 156.0 L 173.5 154.5 L 175.0 153.5 " stroke="black" fill="none" stroke-width="6.0" stroke-linecap="round" stroke-linejoin="round" />
</svg>