<svg xmlns="http://www.w3.org/2000/svg" width="300" height="300" viewBox="0 0 300 300">
<path d="M 126.0 117.5 L 126.0 116.5 L 126.0 115.5 L 126.0 114.0 L 126.0 113.5 L 126.0 113.0 L 126.5 113.0 L 127.0 114.5 L 127.5 119.5 L 127.5 128.5 L 128.0 142.5 L 128.5 156.0 L 130.0 168.5 L 131.0 179.0 L 132.0 186.0 L 132.5 189.5 L 133.0 190.0 L 133.0 189.0 L 132.5 186.0 L 131.5 184.0 " stroke="black" fill="none" stroke-width="6.0" stroke-linecap="round" stroke-linejoin="round" />
<path d="M 118.0 128.5 L 118.0 128.5 L 118.0 129.0 L 118.0 129.0 L 118.0 129.5 L 118.0 130.0 L 118.0 133.5 L 116.5 140.0 L 115.5 146.0 L 114.5 149.0 L 114.5 149.0 " stroke="black" fill="none" stroke-width="6.0" stroke-linecap="round" stroke-linejoin="round" />
<path d="M 135.5 125.0 L 135.5 125.0 L 135.5 125.0 L 135.5 124.5 L 135.5 124.5 L 136.0 126.0 L 137.5 128.5 L 139.0 131.5 L 140.0 132.0 " stroke="black" fill="none" stroke-width="6.0" stroke-linecap="round" stroke-linejoin="round" />
<path d="M 148.0 122.5 L 147.5 122.5 L 146.5 122.0 L 146.5 121.5 L 146.5 121.5 L 149.0 120.5 L 153.0 120.0 L 157.0 119.5 L 162.0 119.0 L 166.5 119.0 L 170.5 119.0 L 172.5 119.0 L 173.5 119.0 L 174.0 119.0 L 174.5 119.5 L 174.5 119.5 L 174.5 119.5 L 174.5 119.5 L 174.5 119.5 L 174.5 119.5 L 174.0 120.5 L 173.5 122.5 L 173.0 126.0 L 172.0 130.5 L 171.5 135.5 L 171.5 139.5 L 171.5 142.5 L 171.5 144.0 " stroke="black" fill="none" stroke-width="6.0" stroke-linecap="round" stroke-linejoin="round" />
<path d="M 141.5 148.0 L 141.0 148.0 L 140.5 148.0 L 140.5 148.0 L 143.0 148.0 L 148.0 147.5 L 156.0 146.5 L 166.5 145.0 L 174.5 144.0 L 178.5 144.0 L 180.5 144.0 L 181.0 144.0 L 180.5 144.0 " stroke="black" fill="none" stroke-width="6.0" stroke-linecap="round" stroke-linejoin="round" />
<path d="M 157.5 107.5 L 157.5 107.5 L 158.0 108.0 L 158.5 108.5 L 158.5 108.5 L 159.0 109.5 L 159.0 112.0 L 159.0 118.0 L 158.0 128.5 L 156.0 142.5 L 153.5 156.5 L 150.5 168.5 L 148.0 176.0 L 146.5 180.0 L 146.5 181.0 L 146.5 179.5 L 146.5 178.0 " stroke="black" fill="none" stroke-width="6.0" stroke-linecap="round" stroke-linejoin="round" />
<path d="M 162.5 157.0 L 162.0 157.0 L 161.5 157.0 L 162.0 158.0 L 167.0 163.5 L 174.5 170.5 L 181.0 176.5 L 184.0 178.5 L 184.5 178.0 " stroke="black" fill="none" stroke-width="6.0" stroke-linecap="round" stroke-linejoin="round" />
</svg>