<svg xmlns="http://www.w3.org/2000/svg" width="300" height="300" viewBox="0 0 300 300">
<path d="M 119.0 115.5 L 117.5 116.0 L 116.5 116.0 L 116.0 116.0 L 117.5 115.0 L 120.5 114.0 L 124.5 112.5 L 128.0 111.5 L 131.5 111.0 L 133.5 111.0 L 134.5 112.0 L 134.5 113.5 L 134.5 115.5 L 133.5 118.5 L 132.5 121.0 L 132.0 123.0 L 131.5 124.5 L 131.0 126.0 " stroke="black" fill="none" stroke-width="7.0" stroke-linecap="round" stroke-linejoin="round" />
<path d="M 120.0 131.0 L 120.0 131.0 L 119.0 132.0 L 118.5 132.0 L 119.0 132.5 L 121.5 131.5 L 125.5 130.0 L 129.0 129.0 L 132.0 128.0 L 132.5 127.5 " stroke="black" fill="none" stroke-width="7.0" stroke-linecap="round" stroke-linejoin="round" />
<path d="M 120.0 136.0 L 120.0 136.0 L 120.0 136.0 L 119.5 135.5 L 119.5 135.5 L 119.0 135.0 L 119.0 136.5 L 119.0 140.5 L 119.0 146.5 L 119.0 152.0 L 119.5 154.5 L 121.0 154.5 L 123.0 152.5 L 125.5 150.0 L 128.5 148.5 L 131.0 147.0 L 132.5 145.5 L 133.0 145.0 L 133.5 145.0 L 133.5 145.0 L 133.5 145.5 L 133.5 146.0 L 133.5 146.5 L 133.5 146.5 L 133.5 147.0 L 133.5 147.5 L 133.0 148.5 L 133.0 150.0 L 133.0 154.0 L 133.0 159.5 L 133.0 165.5 L 133.0 170.5 L 133.0 175.0 L 133.0 178.5 L 133.0 180.0 L 132.5 180.5 L 131.0 180.0 L 129.0 179.0 L 126.0 177.0 L 122.5 175.0 L 120.0 173.0 L 118.5 171.5 L 118.5 171.5 " stroke="black" fill="none" stroke-width="7.0" stroke-linecap="round" stroke-linejoin="round" />
<path d="M 151.5 106.5 L 151.5 107.0 L 151.0 107.0 L 151.0 108.0 L 152.0 111.0 L 154.5 115.0 L 156.5 117.5 L 158.5 119.5 L 159.0 120.0 " stroke="black" fill="none" stroke-width="7.0" stroke-linecap="round" stroke-linejoin="round" />
<path d="M 141.5 123.0 L 141.0 123.0 L 140.5 123.0 L 141.5 123.0 L 147.0 122.5 L 154.5 122.0 L 162.5 121.0 L 168.5 120.5 L 171.0 120.5 L 171.5 120.5 " stroke="black" fill="none" stroke-width="7.0" stroke-linecap="round" stroke-linejoin="round" />
<path d="M 153.0 124.5 L 153.0 124.0 L 153.0 123.5 L 153.0 123.0 L 153.0 123.0 L 153.5 123.0 L 153.5 123.5 L 153.5 127.5 L 152.0 133.0 L 149.5 140.5 L 147.5 145.0 L 146.5 147.5 L 146.5 148.0 L 146.5 148.0 L 146.5 148.0 L 147.0 147.5 L 147.0 147.5 L 147.5 147.5 L 148.5 147.0 L 150.5 146.5 L 154.0 146.0 L 157.5 145.0 L 160.0 144.5 L 161.0 144.0 L 161.5 143.5 " stroke="black" fill="none" stroke-width="7.0" stroke-linecap="round" stroke-linejoin="round" />
<path d="M 163.0 130.0 L 163.0 130.0 L 163.0 130.0 L 163.0 130.0 L 163.0 130.0 L 163.0 130.5 L 162.5 133.0 L 161.0 138.5 L 158.5 147.5 L 155.5 155.5 L 153.0 161.5 L 150.5 164.5 L 148.5 166.5 L 147.5 168.0 L 147.0 168.5 L 147.0 169.0 L 147.0 169.0 L 147.5 168.5 L 148.0 168.0 L 148.5 167.5 L 149.0 167.0 L 149.5 167.0 L 150.0 167.0 L 150.5 167.0 L 152.0 167.0 L 154.0 167.0 L 157.0 167.0 L 160.0 167.0 L 162.5 167.0 L 165.0 167.0 L 166.0 166.5 " stroke="black" fill="none" stroke-width="7.0" stroke-linecap="round" stroke-linejoin="round" />
<path d="M 165.5 156.0 L 165.0 156.0 L 164.5 156.5 L 164.5 157.5 L 166.0 160.0 L 169.5 164.5 L 173.5 168.5 L 176.0 171.0 L 177.0 171.5 L 177.0 171.0 " stroke="black" fill="none" stroke-width="7.0" stroke-linecap="round" stroke-linejoin="round" />
</svg>