<svg xmlns="http://www.w3.org/2000/svg" width="300" height="300" viewBox="0 0 300 300">
<path d="M 131.0 107.5 L 131.5 107.5 L 132.5 107.5 L 132.5 107.5 L 133.0 107.5 L 133.0 107.5 L 132.0 109.5 L 128.5 114.5 L 121.5 122.5 L 115.0 129.0 L 112.5 131.0 L 112.5 129.5 L 115.5 126.5 " stroke="black" fill="none" stroke-width="8.0" stroke-linecap="round" stroke-linejoin="round" />
<path d="M 138.5 116.5 L 139.0 117.5 L 139.0 118.0 L 139.0 118.5 L 139.0 119.0 L 138.0 120.5 L 135.5 124.5 L 130.5 130.0 L 123.5 136.5 L 117.5 141.0 L 115.0 142.0 L 115.5 141.5 L 116.5 140.5 " stroke="black" fill="none" stroke-width="8.0" stroke-linecap="round" stroke-linejoin="round" />
<path d="M 129.0 134.0 L 129.0 134.5 L 129.0 135.5 L 129.0 136.5 L 129.0 139.5 L 130.0 148.0 L 131.0 162.5 L 131.5 175.0 L 131.5 180.5 L 131.5 182.0 L 131.5 181.5 " stroke="black" fill="none" stroke-width="8.0" stroke-linecap="round" stroke-linejoin="round" />
<path d="M 159.5 106.0 L 159.5 106.5 L 159.5 106.5 L 159.5 107.0 L 160.0 107.5 L 160.0 109.5 L 160.5 115.5 L 160.5 127.5 L 160.0 142.5 L 159.0 155.0 L 156.0 163.5 L 153.0 170.0 L 151.5 174.5 L 151.5 175.5 L 151.5 175.0 L 151.5 173.5 " stroke="black" fill="none" stroke-width="8.0" stroke-linecap="round" stroke-linejoin="round" />
<path d="M 149.5 127.0 L 149.5 127.0 L 148.5 127.0 L 148.0 127.0 L 148.5 127.0 L 150.0 127.0 L 152.5 126.5 L 155.5 126.0 L 157.5 125.5 L 159.0 125.5 " stroke="black" fill="none" stroke-width="8.0" stroke-linecap="round" stroke-linejoin="round" />
<path d="M 148.0 142.0 L 147.5 142.0 L 146.0 142.0 L 145.5 142.0 L 146.0 142.0 L 148.5 142.0 L 151.5 142.0 L 154.0 142.0 L 155.5 142.0 " stroke="black" fill="none" stroke-width="8.0" stroke-linecap="round" stroke-linejoin="round" />
<path d="M 142.0 158.5 L 142.0 158.5 L 141.0 159.5 L 141.0 159.5 L 142.0 159.5 L 145.0 159.0 L 149.0 158.0 L 153.5 156.0 L 154.5 155.5 " stroke="black" fill="none" stroke-width="8.0" stroke-linecap="round" stroke-linejoin="round" />
<path d="M 172.5 110.0 L 172.5 110.0 L 172.0 109.5 L 171.5 109.0 L 171.5 109.0 L 171.5 111.0 L 172.0 118.0 L 172.0 134.5 L 172.0 153.5 L 172.0 165.5 L 172.5 170.0 L 172.5 170.5 L 172.5 169.0 " stroke="black" fill="none" stroke-width="8.0" stroke-linecap="round" stroke-linejoin="round" />
<path d="M 175.5 122.5 L 175.5 122.5 L 175.0 123.0 L 175.0 123.0 L 175.0 123.5 L 176.0 123.5 L 178.5 123.5 L 181.0 123.5 L 183.5 123.5 L 185.0 123.5 " stroke="black" fill="none" stroke-width="8.0" stroke-linecap="round" stroke-linejoin="round" />
<path d="M 175.5 138.5 L 175.5 138.5 L 175.5 140.0 L 175.5 140.5 L 176.5 140.5 L 178.5 140.5 L 181.5 140.0 L 184.0 139.5 L 185.0 139.0 " stroke="black" fill="none" stroke-width="8.0" stroke-linecap="round" stroke-linejoin="round" />
<path d="M 176.0 156.0 L 176.0 157.5 L 176.5 158.0 L 178.5 158.0 L 181.5 157.5 L 185.5 156.5 L 187.5 156.0 " stroke="black" fill="none" stroke-width="8.0" stroke-linecap="round" stroke-linejoin="round" />
</svg>