<svg xmlns="http://www.w3.org/2000/svg" width="300" height="300" viewBox="0 0 300 300">
<path d="M 129.0 108.0 L 129.0 108.5 L 129.0 109.0 L 129.0 109.0 L 129.0 109.0 L 129.0 110.0 L 127.5 113.5 L 123.0 120.0 L 117.0 127.0 L 114.0 130.0 L 114.0 130.5 L 115.0 129.5 " stroke="black" fill="none" stroke-width="6.0" stroke-linecap="round" stroke-linejoin="round" />
<path d="M 133.0 120.5 L 133.0 120.5 L 133.0 120.0 L 133.5 120.0 L 133.5 120.0 L 133.5 120.0 L 133.0 121.0 L 131.5 124.5 L 129.0 129.5 L 124.5 135.5 L 120.5 140.0 L 119.0 141.5 L 119.0 141.0 L 119.0 140.0 " stroke="black" fill="none" stroke-width="6.0" stroke-linecap="round" stroke-linejoin="round" />
<path d="M 127.5 132.0 L 127.5 132.5 L 127.0 133.5 L 127.0 134.0 L 127.0 135.0 L 127.0 138.5 L 127.5 146.0 L 127.5 157.5 L 127.0 170.0 L 126.5 177.5 L 126.5 180.5 L 126.5 180.5 L 126.5 177.5 " stroke="black" fill="none" stroke-width="6.0" stroke-linecap="round" stroke-linejoin="round" />
<path d="M 151.0 104.5 L 151.5 103.0 L 151.5 102.5 L 151.5 102.5 L 151.5 103.0 L 152.5 104.5 L 154.0 106.5 L 155.0 108.0 L 156.0 109.0 L 156.5 109.5 " stroke="black" fill="none" stroke-width="6.0" stroke-linecap="round" stroke-linejoin="round" />
<path d="M 144.5 115.5 L 143.0 116.0 L 142.0 117.0 L 142.0 117.0 L 143.5 117.5 L 147.5 117.5 L 152.5 117.5 L 157.5 117.0 L 162.5 115.5 L 165.5 115.0 L 166.5 115.0 " stroke="black" fill="none" stroke-width="6.0" stroke-linecap="round" stroke-linejoin="round" />
<path d="M 146.0 125.5 L 145.5 125.0 L 145.5 125.0 L 145.5 124.5 L 146.5 125.5 L 148.5 128.5 L 150.5 131.0 L 152.5 132.5 " stroke="black" fill="none" stroke-width="6.0" stroke-linecap="round" stroke-linejoin="round" />
<path d="M 164.5 124.5 L 164.0 123.5 L 163.5 123.0 L 163.5 123.0 L 163.0 123.0 L 162.5 125.0 L 162.0 127.0 L 161.0 129.5 L 161.0 129.5 " stroke="black" fill="none" stroke-width="6.0" stroke-linecap="round" stroke-linejoin="round" />
<path d="M 139.5 136.0 L 139.5 136.0 L 139.0 136.0 L 139.0 136.5 L 138.5 137.5 L 138.0 141.0 L 137.0 145.5 L 137.0 148.5 L 137.0 149.5 " stroke="black" fill="none" stroke-width="6.0" stroke-linecap="round" stroke-linejoin="round" />
<path d="M 141.0 138.5 L 141.0 138.5 L 140.5 139.0 L 140.5 139.0 L 142.0 139.0 L 145.5 139.0 L 151.5 137.0 L 158.5 135.0 L 166.0 134.0 L 171.0 134.0 L 173.5 135.5 L 174.0 136.5 L 174.0 137.0 L 174.0 137.0 L 174.0 137.0 L 174.0 137.0 L 174.0 137.5 L 174.0 138.5 L 173.5 139.5 L 173.5 141.0 L 173.0 142.5 L 173.0 144.0 L 173.0 145.0 " stroke="black" fill="none" stroke-width="6.0" stroke-linecap="round" stroke-linejoin="round" />
<path d="M 155.0 145.0 L 155.0 143.5 L 154.5 143.5 L 154.5 143.5 L 154.5 145.0 L 155.0 147.0 L 156.5 148.0 L 156.5 148.0 " stroke="black" fill="none" stroke-width="6.0" stroke-linecap="round" stroke-linejoin="round" />
<path d="M 147.5 151.5 L 147.5 152.5 L 147.5 153.5 L 148.0 153.5 L 151.5 153.5 L 156.5 152.5 L 161.0 152.0 L 164.5 151.5 L 166.0 151.0 " stroke="black" fill="none" stroke-width="6.0" stroke-linecap="round" stroke-linejoin="round" />
<path d="M 153.0 155.0 L 153.5 155.0 L 154.0 154.5 L 154.5 154.5 L 154.5 155.5 L 152.5 160.0 L 150.0 167.0 L 148.0 172.0 L 147.5 173.0 " stroke="black" fill="none" stroke-width="6.0" stroke-linecap="round" stroke-linejoin="round" />
<path d="M 153.5 161.0 L 153.5 161.5 L 153.5 161.5 L 154.0 162.0 L 155.5 162.0 L 158.5 162.0 L 162.0 162.0 L 165.0 162.0 L 167.5 162.5 L 169.0 165.0 L 169.5 168.5 L 169.5 173.0 L 169.0 177.0 L 168.0 180.0 L 166.0 181.5 L 164.0 182.0 L 161.5 182.0 L 159.5 179.5 " stroke="black" fill="none" stroke-width="6.0" stroke-linecap="round" stroke-linejoin="round" />
</svg>