<svg xmlns="http://www.w3.org/2000/svg" width="300" height="300" viewBox="0 0 300 300">
<path d="M 128.0 112.0 L 129.0 112.0 L 130.0 111.5 L 130.0 111.0 L 130.5 111.0 L 130.0 112.0 L 127.5 117.0 L 123.0 123.5 L 118.0 129.0 L 114.5 131.5 L 114.0 131.5 L 114.5 131.0 " stroke="black" fill="none" stroke-width="6.0" stroke-linecap="round" stroke-linejoin="round" />
<path d="M 133.0 120.5 L 134.0 120.5 L 134.5 120.5 L 135.0 120.5 L 135.0 120.5 L 134.0 122.5 L 130.5 126.5 L 125.0 132.0 L 120.0 137.0 L 117.0 140.5 L 117.0 141.5 L 117.0 141.5 " stroke="black" fill="none" stroke-width="6.0" stroke-linecap="round" stroke-linejoin="round" />
<path d="M 125.5 130.5 L 125.5 131.0 L 125.5 131.5 L 125.5 132.0 L 125.5 132.5 L 125.5 135.5 L 125.5 143.0 L 125.5 155.0 L 124.5 168.0 L 124.5 175.0 L 125.0 178.0 L 126.5 176.5 " stroke="black" fill="none" stroke-width="6.0" stroke-linecap="round" stroke-linejoin="round" />
<path d="M 146.0 118.0 L 145.5 118.0 L 144.5 118.5 L 144.5 118.5 L 145.5 118.0 L 150.0 116.5 L 155.5 116.0 L 160.5 115.0 L 163.5 115.0 L 164.5 114.0 " stroke="black" fill="none" stroke-width="6.0" stroke-linecap="round" stroke-linejoin="round" />
<path d="M 156.5 104.0 L 156.5 104.0 L 156.0 104.0 L 155.5 104.0 L 155.5 104.0 L 155.5 106.5 L 155.5 113.0 L 155.5 120.0 L 156.0 124.5 L 156.0 127.0 " stroke="black" fill="none" stroke-width="6.0" stroke-linecap="round" stroke-linejoin="round" />
<path d="M 143.0 129.5 L 142.0 130.5 L 141.0 131.5 L 141.0 131.5 L 142.5 131.5 L 146.5 130.5 L 152.5 129.5 L 159.0 128.5 L 164.5 127.5 L 167.0 127.0 L 168.0 127.0 " stroke="black" fill="none" stroke-width="6.0" stroke-linecap="round" stroke-linejoin="round" />
<path d="M 158.5 134.0 L 158.5 134.0 L 159.0 134.5 L 159.5 134.5 L 159.5 136.0 L 159.5 140.0 L 159.0 147.0 L 159.0 153.0 L 159.0 155.5 L 159.0 154.5 " stroke="black" fill="none" stroke-width="6.0" stroke-linecap="round" stroke-linejoin="round" />
<path d="M 158.5 145.0 L 159.0 145.0 L 159.5 145.5 L 161.0 145.5 L 163.5 145.0 L 166.5 144.0 L 169.5 142.5 L 171.5 142.5 " stroke="black" fill="none" stroke-width="6.0" stroke-linecap="round" stroke-linejoin="round" />
<path d="M 148.5 141.5 L 148.5 141.0 L 148.5 140.5 L 148.5 140.5 L 147.5 142.0 L 145.0 147.0 L 142.0 153.0 L 138.5 158.5 L 136.0 162.0 L 135.5 162.0 " stroke="black" fill="none" stroke-width="6.0" stroke-linecap="round" stroke-linejoin="round" />
<path d="M 144.5 153.5 L 144.5 154.0 L 144.0 155.5 L 145.0 157.0 L 149.0 158.5 L 156.0 159.5 L 164.5 160.5 L 173.5 160.5 L 182.0 161.0 L 189.0 162.0 " stroke="black" fill="none" stroke-width="6.0" stroke-linecap="round" stroke-linejoin="round" />
</svg>