<svg xmlns="http://www.w3.org/2000/svg" width="300" height="300" viewBox="0 0 300 300">
<path d="M 144.5 102.0 L 143.0 102.0 L 141.5 102.0 L 141.0 102.0 L 141.5 102.0 L 144.0 103.0 L 147.5 105.0 L 151.0 107.0 L 153.5 108.5 L 155.5 109.5 L 156.5 111.0 L 156.5 112.0 " stroke="black" fill="none" stroke-width="7.0" stroke-linecap="round" stroke-linejoin="round" />
<path d="M 129.5 117.0 L 129.0 117.5 L 127.5 118.0 L 127.0 118.0 L 126.5 118.0 L 128.0 117.5 L 131.5 117.0 L 138.0 116.0 L 147.5 114.5 L 158.0 113.0 L 167.0 112.5 L 171.5 112.5 L 172.5 112.5 L 172.5 112.5 L 171.5 112.5 L 171.0 112.5 " stroke="black" fill="none" stroke-width="7.0" stroke-linecap="round" stroke-linejoin="round" />
<path d="M 162.5 120.0 L 164.0 120.0 L 164.5 119.5 L 164.5 119.5 L 164.5 119.5 L 164.5 119.5 L 163.0 120.5 L 159.5 122.5 L 154.5 126.5 L 146.5 132.0 L 138.5 136.5 L 132.5 139.5 L 130.0 140.5 L 129.5 140.5 L 129.5 139.5 " stroke="black" fill="none" stroke-width="7.0" stroke-linecap="round" stroke-linejoin="round" />
<path d="M 134.0 125.0 L 134.0 125.0 L 134.5 125.0 L 135.0 125.0 L 136.0 125.0 L 139.0 126.5 L 145.5 130.0 L 154.5 133.0 L 165.0 135.0 L 172.5 136.0 L 177.0 137.0 L 177.5 138.0 " stroke="black" fill="none" stroke-width="7.0" stroke-linecap="round" stroke-linejoin="round" />
<path d="M 122.5 150.5 L 122.0 151.0 L 122.0 151.5 L 123.5 151.5 L 128.0 151.5 L 136.0 151.5 L 147.0 152.0 L 158.5 153.0 L 169.0 153.0 L 176.0 153.0 L 179.5 152.5 " stroke="black" fill="none" stroke-width="7.0" stroke-linecap="round" stroke-linejoin="round" />
<path d="M 128.5 153.0 L 128.5 153.0 L 128.5 153.0 L 128.0 153.0 L 128.0 153.0 L 128.0 153.0 L 128.0 156.0 L 128.0 163.0 L 128.0 173.5 L 127.0 184.5 L 126.0 193.0 L 124.5 199.0 L 122.5 203.5 L 121.5 205.0 L 121.5 205.0 L 121.5 204.5 L 122.5 202.5 " stroke="black" fill="none" stroke-width="7.0" stroke-linecap="round" stroke-linejoin="round" />
<path d="M 160.5 161.5 L 161.0 161.5 L 162.0 161.5 L 162.5 161.5 L 162.5 161.5 L 162.5 161.5 L 161.0 162.5 L 158.5 163.5 L 154.5 165.5 L 148.5 169.0 L 141.0 172.5 L 136.0 174.0 L 135.5 174.0 L 136.5 173.5 L 137.5 172.5 " stroke="black" fill="none" stroke-width="7.0" stroke-linecap="round" stroke-linejoin="round" />
<path d="M 166.0 169.0 L 166.0 169.0 L 165.5 169.5 L 165.0 169.5 L 165.0 169.5 L 164.5 170.0 L 163.0 170.5 L 160.0 172.5 L 154.0 176.0 L 146.5 180.5 L 141.0 184.5 L 138.5 185.5 L 138.5 185.5 L 140.0 185.0 " stroke="black" fill="none" stroke-width="7.0" stroke-linecap="round" stroke-linejoin="round" />
<path d="M 170.5 177.5 L 170.5 177.5 L 170.5 178.0 L 170.5 178.0 L 170.5 178.5 L 170.5 178.5 L 170.5 178.5 L 169.5 179.5 L 167.0 181.5 L 160.0 187.0 L 150.5 193.0 L 144.5 197.0 L 143.0 198.5 L 143.5 198.5 L 144.0 198.5 " stroke="black" fill="none" stroke-width="7.0" stroke-linecap="round" stroke-linejoin="round" />
</svg>