<svg xmlns="http://www.w3.org/2000/svg" width="300" height="300" viewBox="0 0 300 300">
<path d="M 130.0 111.5 L 130.0 112.5 L 130.0 113.5 L 130.0 115.5 L 130.0 123.5 L 131.0 140.0 L 131.5 156.5 L 131.5 168.0 L 131.0 174.0 L 131.0 175.0 L 131.0 173.5 " stroke="black" fill="none" stroke-width="7.0" stroke-linecap="round" stroke-linejoin="round" />
<path d="M 124.0 126.0 L 123.5 126.0 L 122.5 126.0 L 122.0 125.5 L 122.0 125.5 L 122.0 126.5 L 122.0 131.0 L 121.0 138.0 L 119.0 144.5 L 117.5 146.0 L 117.5 145.5 " stroke="black" fill="none" stroke-width="7.0" stroke-linecap="round" stroke-linejoin="round" />
<path d="M 143.5 119.5 L 142.5 119.0 L 142.0 119.0 L 142.5 119.5 L 144.0 122.0 L 145.5 123.5 " stroke="black" fill="none" stroke-width="7.0" stroke-linecap="round" stroke-linejoin="round" />
<path d="M 154.0 117.0 L 153.5 117.0 L 151.5 116.5 L 150.5 116.5 L 150.0 117.0 L 152.0 117.5 L 157.0 117.5 L 164.0 116.5 L 170.0 115.0 L 174.0 113.5 L 175.5 113.5 " stroke="black" fill="none" stroke-width="7.0" stroke-linecap="round" stroke-linejoin="round" />
<path d="M 150.5 131.0 L 150.5 131.0 L 150.0 131.0 L 150.0 131.5 L 150.0 132.5 L 150.0 136.0 L 151.5 140.0 L 153.0 142.0 L 154.5 142.5 " stroke="black" fill="none" stroke-width="7.0" stroke-linecap="round" stroke-linejoin="round" />
<path d="M 153.0 133.0 L 151.5 133.5 L 150.0 133.5 L 150.0 133.5 L 152.5 132.5 L 157.5 131.0 L 164.5 129.0 L 171.5 127.0 L 176.5 126.5 L 178.0 127.0 L 178.0 130.5 L 176.0 135.0 L 174.0 140.5 L 172.0 144.0 L 170.5 146.0 L 169.0 146.0 " stroke="black" fill="none" stroke-width="7.0" stroke-linecap="round" stroke-linejoin="round" />
<path d="M 157.0 147.0 L 156.5 147.0 L 155.0 147.5 L 154.5 148.0 L 157.5 148.0 L 162.5 146.5 L 168.0 144.5 L 171.5 142.0 " stroke="black" fill="none" stroke-width="7.0" stroke-linecap="round" stroke-linejoin="round" />
<path d="M 167.5 105.0 L 167.5 105.5 L 166.5 106.0 L 166.0 108.5 L 166.5 115.0 L 166.5 128.0 L 166.5 146.5 L 166.0 164.0 L 166.0 175.5 L 166.0 182.0 L 166.0 183.5 L 166.0 181.0 " stroke="black" fill="none" stroke-width="7.0" stroke-linecap="round" stroke-linejoin="round" />
<path d="M 165.0 148.0 L 165.0 148.0 L 164.5 148.0 L 163.5 148.0 L 161.0 151.5 L 155.5 159.0 L 150.5 166.0 L 148.5 167.5 L 149.0 167.0 L 149.5 166.5 " stroke="black" fill="none" stroke-width="7.0" stroke-linecap="round" stroke-linejoin="round" />
<path d="M 168.5 153.5 L 169.0 154.0 L 169.5 154.5 L 172.5 156.0 L 180.5 159.0 L 188.0 160.5 L 192.0 162.0 " stroke="black" fill="none" stroke-width="7.0" stroke-linecap="round" stroke-linejoin="round" />
</svg>