<svg xmlns="http://www.w3.org/2000/svg" width="300" height="300" viewBox="0 0 300 300">
<path d="M 122.0 95.5 L 121.5 95.5 L 120.5 95.5 L 120.5 96.0 L 121.0 100.0 L 123.0 113.0 L 124.5 137.0 L 125.5 165.5 L 126.0 186.0 L 126.5 194.5 L 127.0 198.5 L 127.0 198.5 L 126.5 194.5 " stroke="black" fill="none" stroke-width="8.0" stroke-linecap="round" stroke-linejoin="round" />
<path d="M 110.0 112.5 L 111.0 112.0 L 112.0 112.0 L 112.5 112.5 L 113.0 115.0 L 112.0 122.0 L 109.0 132.5 L 106.5 140.5 L 106.5 143.0 L 106.5 143.0 " stroke="black" fill="none" stroke-width="8.0" stroke-linecap="round" stroke-linejoin="round" />
<path d="M 133.0 107.5 L 133.0 108.5 L 133.0 109.5 L 134.5 111.5 L 136.0 114.0 L 137.5 116.5 " stroke="black" fill="none" stroke-width="8.0" stroke-linecap="round" stroke-linejoin="round" />
<path d="M 154.0 107.0 L 154.0 107.0 L 153.0 107.0 L 153.5 107.0 L 158.0 106.0 L 165.5 105.0 L 173.0 104.0 L 179.0 103.5 L 180.0 104.0 " stroke="black" fill="none" stroke-width="8.0" stroke-linecap="round" stroke-linejoin="round" />
<path d="M 155.5 123.0 L 156.0 123.0 L 157.0 122.0 L 158.0 121.5 L 161.0 121.0 L 165.0 120.5 L 169.5 120.0 L 173.5 119.5 L 175.5 119.5 " stroke="black" fill="none" stroke-width="8.0" stroke-linecap="round" stroke-linejoin="round" />
<path d="M 167.0 91.5 L 166.5 90.5 L 166.5 90.0 L 166.5 89.5 L 166.5 91.0 L 166.5 98.0 L 166.5 110.0 L 166.5 124.0 L 166.0 130.0 L 166.0 130.5 L 167.0 129.5 " stroke="black" fill="none" stroke-width="8.0" stroke-linecap="round" stroke-linejoin="round" />
<path d="M 146.0 136.0 L 145.5 136.0 L 143.5 136.0 L 142.5 136.5 L 142.5 136.5 L 144.0 136.5 L 147.5 135.5 L 153.0 135.5 L 160.0 135.0 L 168.5 134.0 L 177.5 133.0 L 184.5 132.5 L 188.5 132.5 L 188.5 133.0 L 188.0 134.0 L 187.5 134.5 " stroke="black" fill="none" stroke-width="8.0" stroke-linecap="round" stroke-linejoin="round" />
<path d="M 154.0 150.5 L 154.0 150.5 L 154.5 150.5 L 155.0 150.5 L 155.5 152.5 L 155.0 161.5 L 153.5 175.5 L 152.0 188.5 L 151.5 195.0 L 151.5 194.0 L 151.5 193.0 " stroke="black" fill="none" stroke-width="8.0" stroke-linecap="round" stroke-linejoin="round" />
<path d="M 158.5 149.0 L 157.5 149.0 L 157.0 149.0 L 156.5 149.0 L 157.0 149.0 L 159.5 149.0 L 164.5 148.5 L 170.5 147.5 L 175.5 146.0 L 178.0 145.5 L 179.0 145.5 L 179.0 147.5 L 179.0 150.0 L 179.5 155.5 L 180.0 163.5 L 180.0 172.5 L 180.0 182.0 L 180.0 189.0 L 179.5 195.0 L 179.5 199.0 L 179.5 201.5 L 179.0 202.0 L 177.5 202.0 L 175.0 198.5 L 174.0 196.0 " stroke="black" fill="none" stroke-width="8.0" stroke-linecap="round" stroke-linejoin="round" />
<path d="M 157.0 166.5 L 155.5 166.5 L 154.5 166.5 L 155.5 166.5 L 159.5 166.5 L 165.0 166.5 L 170.5 165.5 L 176.0 164.0 L 178.0 163.5 " stroke="black" fill="none" stroke-width="8.0" stroke-linecap="round" stroke-linejoin="round" />
<path d="M 156.5 184.5 L 156.5 184.5 L 156.5 184.5 L 156.5 184.5 L 158.5 184.0 L 164.0 184.0 L 170.5 184.0 L 177.0 184.0 " stroke="black" fill="none" stroke-width="8.0" stroke-linecap="round" stroke-linejoin="round" />
</svg>