<svg xmlns="http://www.w3.org/2000/svg" width="300" height="300" viewBox="0 0 300 300">
<path d="M 120.5 109.5 L 119.5 110.0 L 119.0 110.0 L 120.5 110.0 L 124.5 110.0 L 129.5 110.0 L 136.0 110.0 L 141.5 109.5 L 144.0 109.5 L 145.0 109.0 L 145.5 109.0 " stroke="black" fill="none" stroke-width="7.0" stroke-linecap="round" stroke-linejoin="round" />
<path d="M 126.0 111.5 L 125.5 111.0 L 125.0 111.0 L 125.0 110.5 L 125.0 112.5 L 125.5 118.0 L 125.5 129.0 L 125.0 142.0 L 124.5 151.0 L 124.5 153.0 L 125.0 153.0 " stroke="black" fill="none" stroke-width="7.0" stroke-linecap="round" stroke-linejoin="round" />
<path d="M 142.0 113.5 L 141.5 113.5 L 140.5 113.5 L 140.5 113.5 L 140.5 115.5 L 141.0 120.0 L 142.0 128.5 L 142.0 141.0 L 141.5 154.5 L 141.0 166.0 L 141.0 174.5 L 140.5 180.5 L 140.5 181.5 L 141.0 181.0 L 141.0 178.5 " stroke="black" fill="none" stroke-width="7.0" stroke-linecap="round" stroke-linejoin="round" />
<path d="M 129.0 125.5 L 128.5 125.0 L 127.5 124.5 L 127.5 124.5 L 128.5 124.5 L 132.5 124.5 L 137.0 124.5 L 141.5 124.0 L 144.0 124.0 L 145.5 124.0 " stroke="black" fill="none" stroke-width="7.0" stroke-linecap="round" stroke-linejoin="round" />
<path d="M 130.5 139.0 L 129.5 139.0 L 128.5 139.5 L 128.5 139.0 L 131.0 138.5 L 135.0 137.0 L 139.5 136.5 L 143.0 136.5 L 145.0 137.0 " stroke="black" fill="none" stroke-width="7.0" stroke-linecap="round" stroke-linejoin="round" />
<path d="M 116.0 159.0 L 116.0 159.0 L 115.5 158.0 L 116.5 157.5 L 121.0 157.0 L 127.5 157.0 L 136.0 156.0 L 143.5 154.0 L 146.0 153.0 " stroke="black" fill="none" stroke-width="7.0" stroke-linecap="round" stroke-linejoin="round" />
<path d="M 158.0 132.5 L 158.5 132.5 L 159.0 132.0 L 159.5 132.0 L 159.5 133.0 L 158.5 138.0 L 155.5 146.0 L 153.0 152.0 L 152.5 154.5 L 152.5 154.5 " stroke="black" fill="none" stroke-width="7.0" stroke-linecap="round" stroke-linejoin="round" />
<path d="M 168.5 134.5 L 168.5 134.5 L 167.5 134.5 L 167.0 134.5 L 167.0 135.5 L 167.0 138.5 L 167.5 144.0 L 168.5 151.5 L 170.0 158.0 L 173.5 160.0 L 178.5 160.5 L 182.5 158.5 L 184.5 156.5 L 185.0 154.5 L 185.0 152.0 L 184.0 150.5 " stroke="black" fill="none" stroke-width="7.0" stroke-linecap="round" stroke-linejoin="round" />
<path d="M 177.5 125.0 L 177.0 125.5 L 176.5 125.5 L 176.5 126.0 L 178.5 128.0 L 180.5 130.0 L 182.5 131.0 " stroke="black" fill="none" stroke-width="7.0" stroke-linecap="round" stroke-linejoin="round" />
<path d="M 191.5 130.0 L 190.5 130.0 L 190.0 130.0 L 190.0 130.5 L 191.5 134.0 L 193.5 139.5 L 195.0 144.5 L 196.0 147.5 L 196.5 148.5 " stroke="black" fill="none" stroke-width="7.0" stroke-linecap="round" stroke-linejoin="round" />
</svg>