<svg xmlns="http://www.w3.org/2000/svg" width="300" height="300" viewBox="0 0 300 300">
<path d="M 125.0 93.5 L 124.0 93.5 L 123.0 93.5 L 123.5 94.0 L 126.0 96.0 L 130.0 98.5 L 134.0 100.5 L 136.0 101.0 " stroke="black" fill="none" stroke-width="9.0" stroke-linecap="round" stroke-linejoin="round" />
<path d="M 174.0 87.0 L 174.0 87.0 L 174.0 87.0 L 174.0 87.0 L 174.0 87.5 L 172.5 90.0 L 170.0 94.5 L 167.5 99.0 L 166.5 101.0 " stroke="black" fill="none" stroke-width="9.0" stroke-linecap="round" stroke-linejoin="round" />
<path d="M 110.5 115.0 L 110.5 115.0 L 110.5 115.0 L 111.0 115.0 L 114.0 115.0 L 122.0 113.5 L 137.5 111.5 L 154.5 109.5 L 171.0 109.0 L 183.5 109.0 L 191.5 110.0 L 193.5 111.5 " stroke="black" fill="none" stroke-width="9.0" stroke-linecap="round" stroke-linejoin="round" />
<path d="M 133.5 123.5 L 134.0 123.0 L 134.5 122.0 L 134.5 121.5 L 134.5 121.5 L 134.5 121.5 L 134.5 123.5 L 133.0 126.5 L 130.0 131.5 L 126.5 137.0 L 122.5 141.5 L 120.0 144.0 L 119.0 144.5 L 119.5 144.5 L 121.0 144.0 L 124.5 143.5 L 128.5 143.0 L 133.0 141.5 L 137.5 140.0 L 140.0 139.0 L 141.0 138.5 L 141.5 138.0 L 141.5 136.5 L 142.0 135.0 L 142.5 134.5 " stroke="black" fill="none" stroke-width="9.0" stroke-linecap="round" stroke-linejoin="round" />
<path d="M 144.5 131.0 L 144.5 131.0 L 144.0 131.0 L 143.5 131.0 L 143.5 131.0 L 143.0 131.5 L 142.5 133.0 L 141.0 136.5 L 138.5 141.5 L 134.5 147.0 L 129.5 152.0 L 126.0 155.0 L 123.0 157.5 L 121.0 159.5 L 120.5 160.0 L 120.0 160.0 L 120.0 160.0 L 120.0 160.0 L 121.0 160.0 L 123.5 159.5 L 127.5 158.5 L 132.5 157.0 L 138.5 154.5 L 143.0 153.0 L 145.0 152.5 L 145.0 152.5 L 145.0 153.0 L 145.0 153.0 " stroke="black" fill="none" stroke-width="9.0" stroke-linecap="round" stroke-linejoin="round" />
<path d="M 148.5 147.0 L 148.0 147.0 L 147.5 147.0 L 147.0 148.0 L 148.0 151.0 L 149.5 155.0 L 151.0 157.5 L 151.5 158.0 " stroke="black" fill="none" stroke-width="9.0" stroke-linecap="round" stroke-linejoin="round" />
<path d="M 175.0 119.5 L 175.5 119.0 L 175.5 118.5 L 176.0 118.5 L 176.0 119.0 L 175.0 121.5 L 172.5 125.5 L 169.5 130.5 L 166.0 135.5 L 163.5 138.5 L 163.5 139.0 L 164.0 139.0 L 166.0 138.0 L 168.5 137.0 L 172.0 136.0 L 176.0 134.5 L 180.0 132.5 L 183.0 131.0 L 184.5 130.0 L 185.0 129.5 L 185.0 129.5 L 185.0 129.5 L 185.0 129.5 L 185.0 129.5 L 184.5 130.0 L 184.0 131.0 L 183.0 133.0 L 180.5 137.5 L 177.0 144.0 L 172.0 151.5 L 168.0 156.5 L 166.0 158.0 L 166.0 158.5 L 166.0 158.5 L 166.0 159.0 L 166.5 159.0 L 167.5 159.5 L 169.5 159.0 L 172.5 158.0 L 176.5 156.5 L 180.5 156.0 L 185.0 155.5 L 188.5 155.0 L 190.5 154.0 L 191.0 153.5 L 191.0 152.5 L 190.5 152.5 " stroke="black" fill="none" stroke-width="9.0" stroke-linecap="round" stroke-linejoin="round" />
<path d="M 188.5 148.0 L 188.0 147.5 L 187.5 147.0 L 188.0 147.0 L 189.0 147.0 L 191.0 149.5 L 193.5 153.0 L 196.0 158.0 L 198.5 162.5 L 199.0 163.5 " stroke="black" fill="none" stroke-width="9.0" stroke-linecap="round" stroke-linejoin="round" />
<path d="M 127.0 177.5 L 127.0 177.5 L 127.0 177.5 L 127.0 177.5 L 127.0 177.5 L 127.0 179.0 L 126.0 182.5 L 122.5 189.5 L 119.0 195.0 L 117.0 197.0 L 117.0 196.0 " stroke="black" fill="none" stroke-width="9.0" stroke-linecap="round" stroke-linejoin="round" />
<path d="M 146.0 179.5 L 145.5 179.5 L 144.5 179.5 L 144.0 179.5 L 143.5 181.0 L 143.5 185.5 L 144.5 191.0 L 147.0 195.5 L 152.0 198.5 L 158.0 199.5 L 165.5 198.5 L 171.0 197.0 L 173.0 195.0 L 173.0 194.0 L 172.0 193.0 L 171.5 192.5 " stroke="black" fill="none" stroke-width="9.0" stroke-linecap="round" stroke-linejoin="round" />
<path d="M 166.0 178.0 L 164.5 178.0 L 163.5 178.0 L 163.5 178.0 L 166.0 178.5 L 169.5 180.0 L 173.0 180.5 L 175.0 180.5 " stroke="black" fill="none" stroke-width="9.0" stroke-linecap="round" stroke-linejoin="round" />
<path d="M 192.5 182.0 L 192.0 182.0 L 191.0 181.5 L 191.0 181.0 L 192.0 181.5 L 194.0 183.0 L 196.0 185.0 L 197.5 187.0 L 199.0 189.0 L 199.0 189.5 " stroke="black" fill="none" stroke-width="9.0" stroke-linecap="round" stroke-linejoin="round" />
</svg>