<svg xmlns="http://www.w3.org/2000/svg" width="300" height="300" viewBox="0 0 300 300">
<path d="M 128.0 113.0 L 127.0 113.0 L 126.0 113.0 L 126.0 113.0 L 127.5 112.5 L 133.0 112.5 L 142.0 112.0 L 152.0 112.0 L 162.5 112.0 L 169.5 111.0 L 172.0 111.0 L 172.5 111.0 L 172.5 111.0 L 173.5 111.0 L 174.5 111.0 L 175.0 111.0 L 175.5 111.0 L 176.0 111.0 L 176.0 111.0 L 176.0 111.0 L 176.0 111.0 L 176.0 111.0 L 176.0 111.0 L 176.0 111.0 " stroke="black" fill="none" stroke-width="7.0" stroke-linecap="round" stroke-linejoin="round" />
<path d="M 124.5 115.0 L 124.5 115.0 L 124.5 114.5 L 124.5 114.5 L 124.0 114.5 L 124.0 114.5 L 124.0 115.0 L 124.0 118.0 L 124.0 124.0 L 124.0 134.5 L 124.0 147.5 L 121.5 158.0 L 118.5 167.5 L 115.0 174.5 L 112.5 178.5 L 111.0 180.0 L 111.0 180.0 L 112.0 178.0 " stroke="black" fill="none" stroke-width="7.0" stroke-linecap="round" stroke-linejoin="round" />
<path d="M 162.5 103.0 L 162.5 103.0 L 162.5 102.5 L 162.5 102.0 L 162.5 102.0 L 162.5 103.0 L 162.5 107.5 L 163.0 120.5 L 164.0 140.5 L 166.5 159.5 L 171.5 171.5 L 177.5 176.5 L 183.5 179.0 L 188.0 179.0 L 190.5 175.5 L 191.5 171.5 L 192.0 167.0 L 192.0 163.5 L 191.5 162.0 L 191.5 162.0 " stroke="black" fill="none" stroke-width="7.0" stroke-linecap="round" stroke-linejoin="round" />
<path d="M 178.0 141.5 L 178.5 140.5 L 179.0 139.5 L 179.5 139.0 L 179.5 139.0 L 179.0 140.5 L 176.5 145.5 L 172.5 153.0 L 165.0 163.5 L 158.0 171.0 L 155.5 172.0 L 155.0 171.0 L 155.0 170.0 " stroke="black" fill="none" stroke-width="7.0" stroke-linecap="round" stroke-linejoin="round" />
<path d="M 142.5 124.0 L 142.0 123.5 L 141.5 122.5 L 141.0 121.5 L 141.0 121.5 L 141.0 121.5 L 141.0 124.5 L 141.0 128.5 L 140.5 133.0 L 139.5 137.5 L 139.0 139.5 " stroke="black" fill="none" stroke-width="7.0" stroke-linecap="round" stroke-linejoin="round" />
<path d="M 141.0 131.5 L 141.0 131.5 L 140.5 132.0 L 141.5 132.0 L 143.5 131.5 L 146.0 131.0 L 148.5 131.0 " stroke="black" fill="none" stroke-width="7.0" stroke-linecap="round" stroke-linejoin="round" />
<path d="M 131.5 143.5 L 131.5 143.5 L 131.5 143.5 L 131.5 143.0 L 133.5 142.5 L 138.0 142.5 L 144.5 142.5 L 150.0 143.5 L 153.5 144.0 L 154.0 145.0 " stroke="black" fill="none" stroke-width="7.0" stroke-linecap="round" stroke-linejoin="round" />
<path d="M 141.5 143.5 L 141.5 143.5 L 141.5 143.5 L 141.5 143.5 L 141.5 143.5 L 141.5 144.5 L 141.5 148.5 L 141.5 155.5 L 142.0 164.0 L 142.0 170.0 L 141.0 174.5 L 140.0 177.0 L 139.0 177.0 L 137.5 175.5 L 136.0 173.0 L 135.0 171.0 L 134.5 170.5 " stroke="black" fill="none" stroke-width="7.0" stroke-linecap="round" stroke-linejoin="round" />
<path d="M 134.0 154.5 L 134.0 154.5 L 134.0 155.0 L 134.0 155.5 L 133.5 156.0 L 132.0 158.0 L 130.0 160.0 L 128.5 162.0 L 128.5 162.5 " stroke="black" fill="none" stroke-width="7.0" stroke-linecap="round" stroke-linejoin="round" />
<path d="M 149.0 155.0 L 149.0 155.5 L 149.0 156.5 L 150.0 157.0 L 151.5 158.0 L 153.5 159.0 L 153.5 159.0 " stroke="black" fill="none" stroke-width="7.0" stroke-linecap="round" stroke-linejoin="round" />
<path d="M 172.5 100.0 L 172.5 99.5 L 173.0 98.5 L 173.5 98.5 L 174.5 98.5 L 176.5 99.0 L 178.5 100.5 " stroke="black" fill="none" stroke-width="7.0" stroke-linecap="round" stroke-linejoin="round" />
</svg>