<svg xmlns="http://www.w3.org/2000/svg" width="300" height="300" viewBox="0 0 300 300">
<path d="M 94.0 111.5 L 95.0 111.5 L 96.0 111.0 L 99.0 111.0 L 104.5 110.0 L 112.0 109.0 L 118.5 108.0 L 122.5 107.5 L 124.0 106.5 " stroke="black" fill="none" stroke-width="8.0" stroke-linecap="round" stroke-linejoin="round" />
<path d="M 106.0 90.5 L 106.0 90.5 L 105.5 90.5 L 105.5 91.5 L 105.5 93.5 L 106.5 101.5 L 109.0 119.0 L 112.0 142.0 L 114.5 160.5 L 116.5 175.0 L 118.5 188.0 L 119.5 198.0 L 120.0 203.5 L 119.0 206.0 L 117.0 206.5 L 114.0 206.5 L 109.0 204.5 L 103.5 200.5 L 102.0 198.0 " stroke="black" fill="none" stroke-width="8.0" stroke-linecap="round" stroke-linejoin="round" />
<path d="M 98.0 174.0 L 98.5 174.0 L 99.0 173.0 L 101.5 171.5 L 107.5 167.5 L 115.5 159.5 L 122.5 152.5 L 126.0 148.5 L 127.0 148.0 " stroke="black" fill="none" stroke-width="8.0" stroke-linecap="round" stroke-linejoin="round" />
<path d="M 158.0 78.0 L 158.0 77.5 L 159.0 76.5 L 159.0 76.5 L 159.5 78.5 L 160.0 84.0 L 160.0 91.0 L 160.0 96.0 L 160.0 97.5 L 160.0 97.5 " stroke="black" fill="none" stroke-width="8.0" stroke-linecap="round" stroke-linejoin="round" />
<path d="M 160.0 89.0 L 160.0 89.0 L 160.0 89.0 L 161.5 89.0 L 166.5 88.5 L 173.0 87.0 L 179.0 86.0 L 181.5 86.0 L 181.5 86.0 " stroke="black" fill="none" stroke-width="8.0" stroke-linecap="round" stroke-linejoin="round" />
<path d="M 142.0 105.5 L 142.0 105.5 L 141.5 105.5 L 141.5 105.0 L 141.5 105.0 L 141.5 105.0 L 142.0 105.0 L 143.5 105.0 L 146.0 105.0 L 150.0 105.0 L 157.0 105.0 L 165.5 104.0 L 172.0 102.5 L 176.5 102.0 L 180.0 102.0 L 182.5 102.0 L 184.5 102.0 L 186.5 102.0 L 187.5 102.0 L 189.0 102.0 L 190.0 102.0 L 190.5 102.0 L 190.5 102.0 L 191.0 102.0 L 191.0 102.0 L 191.0 102.0 L 191.0 102.0 L 191.0 102.0 L 191.0 102.0 L 191.0 102.0 L 191.0 102.0 L 191.0 102.0 L 191.0 102.0 L 191.0 101.5 L 191.0 101.5 L 191.0 101.5 L 191.0 101.5 L 191.0 101.5 L 191.0 101.5 L 191.0 101.5 L 191.0 101.5 L 191.0 101.5 L 191.0 101.5 L 191.0 101.5 L 191.0 101.5 L 191.0 101.5 L 191.0 101.5 L 191.0 101.5 L 191.0 101.5 L 191.0 101.5 L 191.0 101.5 L 191.0 101.5 L 191.0 101.5 L 191.0 101.5 L 191.0 101.5 L 191.0 101.5 L 191.0 101.5 L 191.0 101.5 L 191.0 101.5 L 191.0 101.5 L 191.0 101.5 L 191.0 101.5 L 191.0 101.5 L 191.0 101.5 L 191.0 101.5 L 191.0 101.5 L 191.0 101.5 L 191.0 101.5 L 191.0 102.0 L 191.0 102.0 L 191.0 102.0 L 191.0 102.5 L 191.0 103.0 L 191.0 103.5 L 190.5 104.0 L 190.5 105.0 L 190.0 106.0 L 189.5 107.5 L 189.0 109.0 L 188.0 110.5 L 188.0 111.5 L 187.5 112.0 L 187.5 112.5 L 187.5 112.5 L 187.5 112.5 L 187.5 112.5 " stroke="black" fill="none" stroke-width="8.0" stroke-linecap="round" stroke-linejoin="round" />
<path d="M 140.5 108.5 L 140.5 108.5 L 141.0 108.0 L 141.0 108.0 L 141.5 107.5 L 142.0 107.5 L 143.0 108.5 L 144.0 111.5 L 145.0 116.5 L 145.5 125.0 L 146.0 135.0 L 146.5 145.0 L 146.5 153.5 L 146.5 163.5 L 145.5 174.0 L 145.0 183.5 L 144.5 191.5 L 144.0 198.0 L 143.5 203.0 L 143.0 206.5 L 143.0 207.0 L 141.5 205.0 L 139.5 201.0 " stroke="black" fill="none" stroke-width="8.0" stroke-linecap="round" stroke-linejoin="round" />
<path d="M 156.0 128.0 L 156.0 128.0 L 156.5 127.5 L 157.5 126.5 L 160.5 125.0 L 166.0 122.5 L 171.0 120.5 L 174.0 119.0 L 175.0 119.0 L 175.0 119.0 " stroke="black" fill="none" stroke-width="8.0" stroke-linecap="round" stroke-linejoin="round" />
<path d="M 163.5 114.5 L 163.5 114.5 L 163.5 114.5 L 163.5 115.0 L 163.5 116.0 L 163.5 120.0 L 164.0 127.0 L 164.5 134.5 L 167.0 140.0 L 172.0 141.0 L 179.0 139.0 L 186.0 135.5 L 188.5 133.0 L 189.0 132.5 L 188.5 132.5 " stroke="black" fill="none" stroke-width="8.0" stroke-linecap="round" stroke-linejoin="round" />
<path d="M 158.0 153.0 L 158.0 153.5 L 158.0 154.0 L 158.0 154.5 L 161.0 155.0 L 168.5 154.5 L 178.5 152.5 L 188.0 150.0 L 194.0 148.5 L 196.0 148.0 L 196.0 148.0 " stroke="black" fill="none" stroke-width="8.0" stroke-linecap="round" stroke-linejoin="round" />
<path d="M 173.0 156.5 L 173.0 156.5 L 173.0 156.5 L 173.5 156.5 L 173.5 156.5 L 174.0 156.5 L 174.0 156.5 L 174.0 157.5 L 172.0 160.5 L 168.5 165.0 L 163.5 171.0 L 159.5 175.5 L 158.0 176.5 L 157.5 174.5 " stroke="black" fill="none" stroke-width="8.0" stroke-linecap="round" stroke-linejoin="round" />
<path d="M 173.0 164.0 L 173.0 163.5 L 173.5 163.0 L 175.0 163.0 L 177.5 165.0 L 180.5 168.5 L 183.5 174.5 L 186.5 183.0 L 187.5 191.0 L 188.0 198.5 L 186.5 206.0 L 182.5 212.5 L 178.5 216.5 L 175.0 217.0 L 171.0 213.5 L 168.0 209.0 " stroke="black" fill="none" stroke-width="8.0" stroke-linecap="round" stroke-linejoin="round" />
<path d="M 175.5 172.5 L 175.5 172.5 L 176.0 173.0 L 176.0 174.0 L 176.5 175.5 L 174.5 180.0 L 170.0 186.0 L 164.5 190.5 L 161.0 191.5 L 160.0 191.0 " stroke="black" fill="none" stroke-width="8.0" stroke-linecap="round" stroke-linejoin="round" />
<path d="M 181.5 185.0 L 181.5 185.5 L 182.0 186.5 L 181.0 189.0 L 177.5 194.5 L 173.0 200.0 L 169.5 201.5 L 168.5 201.0 " stroke="black" fill="none" stroke-width="8.0" stroke-linecap="round" stroke-linejoin="round" />
<path d="M 199.0 168.0 L 199.5 168.0 L 199.5 167.5 L 199.5 167.5 L 199.5 167.5 L 198.0 170.0 L 195.5 174.0 L 192.5 177.0 L 192.0 177.0 " stroke="black" fill="none" stroke-width="8.0" stroke-linecap="round" stroke-linejoin="round" />
<path d="M 187.0 179.0 L 186.5 179.5 L 186.5 181.0 L 188.5 182.5 L 195.0 186.0 L 203.0 191.0 L 209.0 195.5 L 212.5 198.0 " stroke="black" fill="none" stroke-width="8.0" stroke-linecap="round" stroke-linejoin="round" />
</svg>