<svg xmlns="http://www.w3.org/2000/svg" width="300" height="300" viewBox="0 0 300 300">
<path d="M 120.0 120.5 L 119.0 120.5 L 117.5 120.0 L 117.5 119.5 L 117.5 119.5 L 118.5 119.5 L 121.5 119.5 L 125.5 119.5 L 130.5 119.5 L 135.5 119.5 L 139.5 118.5 L 141.0 117.5 L 141.0 117.5 L 141.0 117.0 L 141.0 117.0 L 141.0 117.0 L 141.0 117.0 L 140.5 117.0 " stroke="black" fill="none" stroke-width="7.0" stroke-linecap="round" stroke-linejoin="round" />
<path d="M 130.5 107.5 L 130.5 107.5 L 130.5 107.0 L 130.5 107.0 L 130.5 107.0 L 131.0 109.0 L 131.5 114.0 L 132.0 123.5 L 132.0 136.0 L 132.0 148.5 L 132.0 158.0 L 132.0 166.0 L 132.0 173.0 L 131.5 178.0 L 131.5 181.0 L 131.5 181.5 L 131.5 181.5 L 131.0 181.5 L 130.0 182.0 L 129.0 182.5 L 127.0 183.5 L 125.0 184.0 L 123.5 182.5 L 122.5 179.5 " stroke="black" fill="none" stroke-width="7.0" stroke-linecap="round" stroke-linejoin="round" />
<path d="M 120.0 164.5 L 118.5 164.5 L 118.5 164.5 L 119.0 164.0 L 122.5 163.0 L 127.5 161.0 L 132.0 158.5 L 136.5 156.0 L 139.0 154.5 " stroke="black" fill="none" stroke-width="7.0" stroke-linecap="round" stroke-linejoin="round" />
<path d="M 158.5 112.5 L 160.0 111.5 L 160.5 111.0 L 161.0 110.5 L 161.5 110.0 L 161.5 110.0 L 161.5 110.5 L 160.0 113.0 L 157.0 117.5 L 153.0 123.0 L 150.0 126.5 L 149.5 127.0 " stroke="black" fill="none" stroke-width="7.0" stroke-linecap="round" stroke-linejoin="round" />
<path d="M 162.0 115.5 L 161.5 115.5 L 160.5 115.0 L 160.0 114.5 L 160.0 114.5 L 160.0 114.5 L 161.0 114.5 L 163.0 114.5 L 164.5 114.5 L 166.0 114.5 L 168.0 114.5 L 170.5 114.5 L 172.5 114.5 L 175.0 115.0 L 177.0 115.0 L 178.0 115.0 L 178.5 115.5 L 178.5 115.5 L 178.5 115.5 " stroke="black" fill="none" stroke-width="7.0" stroke-linecap="round" stroke-linejoin="round" />
<path d="M 174.5 116.5 L 174.5 116.5 L 175.0 116.0 L 175.0 116.0 L 175.0 115.5 L 175.0 115.0 L 175.5 115.0 L 175.5 115.0 L 175.5 115.0 L 175.5 115.0 L 175.5 116.0 L 175.0 117.0 L 174.5 118.0 L 174.0 119.5 L 173.0 121.0 L 172.5 122.5 L 171.5 123.5 L 170.5 125.0 L 169.5 126.0 L 168.5 127.5 L 167.5 128.5 L 166.0 130.0 L 165.0 131.0 L 164.0 132.0 L 163.0 133.0 L 162.0 133.5 L 161.5 134.0 L 161.0 134.5 L 160.5 134.5 L 159.0 135.0 L 157.5 136.0 L 155.5 136.5 L 153.5 137.0 L 152.5 137.0 L 151.5 137.5 L 151.0 137.5 L 150.5 137.5 L 150.0 137.5 L 150.0 137.5 L 149.5 137.5 L 149.5 137.5 L 149.5 137.5 L 149.5 137.5 L 149.5 137.5 L 149.5 137.5 L 149.5 137.5 L 149.5 137.5 L 149.5 137.5 L 149.0 137.5 L 149.0 137.5 L 149.0 137.5 L 149.0 137.5 L 149.0 137.5 L 149.0 137.5 L 149.0 137.5 L 149.0 137.0 " stroke="black" fill="none" stroke-width="7.0" stroke-linecap="round" stroke-linejoin="round" />
<path d="M 158.0 126.0 L 158.0 126.0 L 158.0 125.5 L 158.5 125.5 L 159.0 125.5 L 160.5 125.5 L 162.0 126.0 L 162.5 126.5 " stroke="black" fill="none" stroke-width="7.0" stroke-linecap="round" stroke-linejoin="round" />
<path d="M 152.5 146.5 L 152.5 146.5 L 152.5 145.0 L 153.0 144.0 L 153.5 143.5 L 153.5 143.0 L 154.5 143.0 L 154.5 143.0 L 155.0 143.0 L 155.5 144.0 L 154.5 146.0 L 153.0 149.5 L 151.5 152.0 L 150.0 154.0 L 150.0 154.5 L 150.0 154.5 " stroke="black" fill="none" stroke-width="7.0" stroke-linecap="round" stroke-linejoin="round" />
<path d="M 154.0 150.0 L 154.0 150.0 L 153.5 150.0 L 153.5 149.5 L 153.5 149.5 L 156.5 149.0 L 161.0 149.0 L 167.0 148.5 L 173.0 147.5 L 178.0 146.5 L 179.5 146.0 L 179.5 146.0 L 177.5 146.5 " stroke="black" fill="none" stroke-width="7.0" stroke-linecap="round" stroke-linejoin="round" />
<path d="M 149.0 165.0 L 148.0 165.0 L 147.0 165.0 L 146.5 165.0 L 147.5 165.0 L 151.5 165.0 L 158.0 164.0 L 165.5 163.0 L 172.5 162.5 L 177.0 162.0 L 178.0 162.0 " stroke="black" fill="none" stroke-width="7.0" stroke-linecap="round" stroke-linejoin="round" />
<path d="M 167.0 151.0 L 167.0 151.0 L 166.5 151.0 L 166.0 151.0 L 166.0 151.0 L 166.0 151.5 L 166.0 153.0 L 166.0 154.5 L 166.0 157.0 L 166.0 160.0 L 165.5 162.5 L 165.5 164.5 L 165.5 165.5 L 165.0 166.0 L 165.0 166.5 L 165.0 167.0 L 165.0 168.0 L 165.0 168.0 L 165.0 168.5 L 165.0 168.5 L 164.5 169.0 L 164.5 170.0 L 164.5 171.0 L 164.0 171.5 L 164.0 173.0 L 163.5 174.0 L 163.5 175.5 L 163.5 176.5 L 163.5 176.5 L 164.0 176.5 L 164.0 176.5 " stroke="black" fill="none" stroke-width="7.0" stroke-linecap="round" stroke-linejoin="round" />
<path d="M 148.5 173.5 L 148.5 173.0 L 148.5 172.5 L 148.5 172.0 L 148.5 171.5 L 148.5 171.0 L 148.5 171.0 L 148.5 171.0 L 148.5 171.0 L 149.0 171.5 L 149.0 173.5 L 149.0 175.5 L 149.0 178.0 L 149.0 180.0 L 149.5 181.5 L 149.5 182.0 L 150.0 182.5 L 150.5 182.5 L 151.5 182.5 L 152.5 182.0 L 154.0 181.5 L 156.0 181.5 L 158.5 181.0 L 162.0 181.0 L 165.5 181.0 L 169.0 180.5 L 173.0 180.0 L 177.5 179.5 L 180.5 179.0 L 182.0 179.0 L 182.5 179.0 L 182.5 179.0 L 182.5 179.0 L 183.0 178.5 L 183.0 178.5 L 183.0 179.0 " stroke="black" fill="none" stroke-width="7.0" stroke-linecap="round" stroke-linejoin="round" />
<path d="M 184.0 170.0 L 184.0 170.0 L 183.5 169.5 L 183.5 169.0 L 183.5 169.0 L 183.5 171.0 L 183.5 174.0 L 183.5 178.5 L 183.0 183.0 L 183.0 186.5 " stroke="black" fill="none" stroke-width="7.0" stroke-linecap="round" stroke-linejoin="round" />
</svg>