<svg xmlns="http://www.w3.org/2000/svg" width="300" height="300" viewBox="0 0 300 300">
<path d="M 127.5 132.0 L 126.5 132.0 L 125.0 132.5 L 124.5 132.5 L 124.5 132.5 L 126.5 132.0 L 131.5 131.0 L 138.0 130.0 L 143.0 129.0 L 145.0 128.5 L 145.5 128.5 L 145.5 128.5 " stroke="black" fill="none" stroke-width="7.0" stroke-linecap="round" stroke-linejoin="round" />
<path d="M 136.0 116.0 L 136.0 116.0 L 135.5 115.0 L 135.5 114.5 L 135.5 114.0 L 135.5 114.0 L 135.5 117.5 L 136.0 124.0 L 136.0 133.0 L 136.0 141.0 L 136.0 146.0 L 136.0 147.5 L 135.5 147.5 " stroke="black" fill="none" stroke-width="7.0" stroke-linecap="round" stroke-linejoin="round" />
<path d="M 124.5 152.0 L 124.0 151.5 L 123.0 151.0 L 123.0 151.5 L 123.5 157.0 L 124.0 166.0 L 124.5 177.5 L 125.0 177.0 " stroke="black" fill="none" stroke-width="7.0" stroke-linecap="round" stroke-linejoin="round" />
<path d="M 126.5 155.0 L 126.0 155.5 L 124.0 156.5 L 124.0 156.5 L 125.0 156.0 L 128.0 154.0 L 131.5 152.0 L 136.0 149.5 L 141.0 147.5 L 145.0 147.0 L 147.0 147.0 L 147.5 148.0 L 147.5 150.5 L 147.0 155.0 L 146.5 161.0 L 146.0 166.0 L 145.5 168.5 L 145.5 169.0 " stroke="black" fill="none" stroke-width="7.0" stroke-linecap="round" stroke-linejoin="round" />
<path d="M 131.0 174.0 L 129.0 175.0 L 128.0 175.0 L 128.5 175.0 L 131.0 174.0 L 134.5 173.0 L 138.5 171.5 L 141.5 170.0 " stroke="black" fill="none" stroke-width="7.0" stroke-linecap="round" stroke-linejoin="round" />
<path d="M 163.5 111.5 L 163.5 111.0 L 163.5 110.0 L 164.0 109.5 L 164.0 109.5 L 164.0 111.5 L 163.0 117.0 L 161.0 123.5 L 159.0 128.5 L 158.0 130.0 " stroke="black" fill="none" stroke-width="7.0" stroke-linecap="round" stroke-linejoin="round" />
<path d="M 164.5 122.0 L 163.5 122.0 L 162.5 122.0 L 162.0 122.0 L 163.0 121.5 L 166.0 120.5 L 170.5 119.5 L 176.0 118.5 L 180.5 117.5 L 184.5 116.0 L 185.5 115.5 L 185.5 116.0 " stroke="black" fill="none" stroke-width="7.0" stroke-linecap="round" stroke-linejoin="round" />
<path d="M 179.0 122.0 L 179.0 122.0 L 180.0 121.0 L 180.0 120.0 L 180.5 120.0 L 180.5 120.5 L 180.0 124.5 L 177.5 132.5 L 172.5 146.5 L 164.5 165.0 L 158.0 176.0 L 155.5 177.5 L 155.0 177.0 L 154.5 175.5 " stroke="black" fill="none" stroke-width="7.0" stroke-linecap="round" stroke-linejoin="round" />
<path d="M 160.0 140.5 L 159.5 140.0 L 159.5 139.5 L 160.0 139.5 L 165.0 145.5 L 173.0 160.5 L 183.0 177.0 L 190.0 184.0 L 193.5 184.5 L 193.5 184.0 " stroke="black" fill="none" stroke-width="7.0" stroke-linecap="round" stroke-linejoin="round" />
</svg>