<svg xmlns="http://www.w3.org/2000/svg" width="300" height="300" viewBox="0 0 300 300">
<path d="M 123.5 129.0 L 123.0 130.0 L 122.5 130.5 L 122.5 130.5 L 123.5 130.5 L 126.5 130.0 L 130.5 129.5 L 135.5 129.0 L 139.5 128.5 L 141.5 128.5 L 141.5 128.5 L 141.0 128.5 " stroke="black" fill="none" stroke-width="6.0" stroke-linecap="round" stroke-linejoin="round" />
<path d="M 131.0 117.5 L 131.0 117.0 L 131.0 116.5 L 131.0 116.5 L 131.0 119.0 L 131.5 125.0 L 132.5 133.5 L 133.0 145.0 L 133.5 155.5 L 134.0 165.0 L 135.0 172.5 L 135.0 178.0 L 135.0 181.5 L 134.0 183.5 L 133.0 183.5 L 132.5 184.0 L 132.0 184.0 L 131.0 183.5 L 130.0 182.0 L 128.5 179.0 L 127.5 177.0 " stroke="black" fill="none" stroke-width="6.0" stroke-linecap="round" stroke-linejoin="round" />
<path d="M 117.0 164.5 L 117.0 164.5 L 117.0 164.0 L 117.5 163.5 L 121.0 162.0 L 129.0 158.5 L 136.5 153.5 L 139.5 150.5 L 140.0 150.0 " stroke="black" fill="none" stroke-width="6.0" stroke-linecap="round" stroke-linejoin="round" />
<path d="M 149.5 110.5 L 149.5 110.5 L 149.5 111.0 L 149.0 111.0 L 149.5 111.0 L 151.5 111.0 L 155.0 110.5 L 158.0 110.0 L 160.5 109.0 L 162.0 108.5 L 162.0 108.0 " stroke="black" fill="none" stroke-width="6.0" stroke-linecap="round" stroke-linejoin="round" />
<path d="M 148.0 111.5 L 148.0 111.5 L 148.0 111.5 L 148.0 111.5 L 148.0 111.5 L 148.0 112.0 L 148.5 114.0 L 149.0 118.5 L 150.0 124.0 L 150.0 129.0 L 150.5 133.0 L 150.5 136.0 L 150.5 137.5 L 150.5 138.5 L 150.5 138.5 L 150.5 137.5 " stroke="black" fill="none" stroke-width="6.0" stroke-linecap="round" stroke-linejoin="round" />
<path d="M 157.0 108.5 L 157.5 109.0 L 157.5 109.5 L 157.5 110.5 L 158.0 112.5 L 158.0 116.0 L 158.5 119.0 L 158.5 121.0 L 158.5 121.5 " stroke="black" fill="none" stroke-width="6.0" stroke-linecap="round" stroke-linejoin="round" />
<path d="M 152.0 124.0 L 152.0 124.0 L 152.0 124.5 L 151.5 124.5 L 151.5 124.5 L 153.0 124.5 L 156.0 123.5 L 159.0 122.5 L 162.0 121.0 L 164.0 120.5 L 165.0 120.0 L 165.5 120.0 L 166.0 121.0 L 166.0 123.0 L 166.0 125.0 L 165.5 126.5 L 165.0 127.5 L 164.5 128.0 " stroke="black" fill="none" stroke-width="6.0" stroke-linecap="round" stroke-linejoin="round" />
<path d="M 154.5 131.0 L 154.5 131.5 L 155.0 132.0 L 156.0 132.0 L 158.0 132.0 L 160.5 130.5 L 163.0 130.0 L 164.5 129.5 " stroke="black" fill="none" stroke-width="6.0" stroke-linecap="round" stroke-linejoin="round" />
<path d="M 160.0 132.5 L 160.5 133.0 L 160.5 134.0 L 160.5 135.0 L 160.5 136.5 L 161.0 138.0 L 161.0 139.5 " stroke="black" fill="none" stroke-width="6.0" stroke-linecap="round" stroke-linejoin="round" />
<path d="M 153.0 143.5 L 153.5 143.0 L 154.0 142.5 L 156.0 142.5 L 158.5 142.0 L 161.5 141.0 L 164.5 140.5 L 166.0 140.0 " stroke="black" fill="none" stroke-width="6.0" stroke-linecap="round" stroke-linejoin="round" />
<path d="M 175.0 105.5 L 176.0 106.0 L 176.5 106.0 L 177.0 106.0 L 177.5 106.0 L 177.5 107.5 L 177.5 110.5 L 175.5 114.5 L 173.5 118.5 L 171.5 120.5 L 171.0 120.5 " stroke="black" fill="none" stroke-width="6.0" stroke-linecap="round" stroke-linejoin="round" />
<path d="M 176.5 114.0 L 176.5 114.0 L 177.0 115.0 L 178.0 115.0 L 179.5 115.0 L 182.5 114.5 L 186.0 113.5 L 189.0 113.0 L 191.0 112.5 L 192.0 112.5 L 192.5 112.5 " stroke="black" fill="none" stroke-width="6.0" stroke-linecap="round" stroke-linejoin="round" />
<path d="M 178.0 124.0 L 178.0 124.0 L 178.0 124.0 L 178.0 124.0 L 178.5 124.0 L 180.0 124.0 L 183.0 124.0 L 186.5 123.0 L 189.0 122.5 L 190.5 122.5 L 190.5 122.5 " stroke="black" fill="none" stroke-width="6.0" stroke-linecap="round" stroke-linejoin="round" />
<path d="M 174.5 131.0 L 174.5 131.0 L 174.5 131.0 L 175.0 131.0 L 175.0 131.5 L 175.5 134.0 L 176.5 137.5 L 176.5 140.0 L 176.5 140.5 " stroke="black" fill="none" stroke-width="6.0" stroke-linecap="round" stroke-linejoin="round" />
<path d="M 175.0 131.5 L 175.0 132.0 L 175.0 132.5 L 175.5 133.0 L 177.0 133.0 L 180.0 132.5 L 184.5 132.0 L 189.0 131.0 L 193.0 130.0 L 195.5 129.5 L 197.0 129.0 L 198.0 129.0 L 198.5 129.5 L 198.5 130.0 L 199.0 131.0 L 199.5 132.5 L 199.5 133.5 L 199.5 135.5 L 199.0 138.0 L 198.5 140.5 L 197.5 143.0 L 197.0 143.5 " stroke="black" fill="none" stroke-width="6.0" stroke-linecap="round" stroke-linejoin="round" />
<path d="M 182.5 134.5 L 183.0 134.5 L 183.5 134.5 L 184.0 134.5 L 184.5 135.5 L 184.5 137.0 L 185.0 139.5 L 185.0 141.5 " stroke="black" fill="none" stroke-width="6.0" stroke-linecap="round" stroke-linejoin="round" />
<path d="M 191.0 131.0 L 191.5 132.5 L 192.0 133.0 L 192.0 135.0 L 192.5 138.0 L 192.5 141.5 L 192.0 143.0 " stroke="black" fill="none" stroke-width="6.0" stroke-linecap="round" stroke-linejoin="round" />
<path d="M 178.5 147.5 L 178.5 147.5 L 180.0 147.5 L 182.5 147.5 L 186.5 147.0 L 192.0 145.5 L 196.5 144.5 L 198.0 145.0 " stroke="black" fill="none" stroke-width="6.0" stroke-linecap="round" stroke-linejoin="round" />
<path d="M 161.5 154.0 L 161.5 154.0 L 161.5 153.5 L 162.0 153.0 L 162.0 153.0 L 162.5 153.0 L 163.0 156.0 L 164.0 164.5 L 165.0 172.0 L 165.0 176.0 L 165.0 175.5 L 165.0 174.0 " stroke="black" fill="none" stroke-width="6.0" stroke-linecap="round" stroke-linejoin="round" />
<path d="M 165.0 154.0 L 165.0 154.5 L 164.5 155.0 L 164.5 155.5 L 166.0 155.5 L 169.0 155.5 L 174.0 155.0 L 180.0 154.0 L 184.0 154.0 L 186.0 153.5 L 187.0 153.5 L 187.0 153.5 L 187.0 153.5 L 187.0 153.5 L 187.0 153.5 L 187.0 153.5 L 187.0 154.5 L 187.0 156.5 L 187.0 160.0 L 187.0 166.0 L 187.0 172.5 L 187.0 176.0 L 187.5 178.0 L 187.5 178.5 L 187.5 177.5 " stroke="black" fill="none" stroke-width="6.0" stroke-linecap="round" stroke-linejoin="round" />
<path d="M 164.5 165.0 L 164.5 165.0 L 164.0 164.5 L 165.0 164.0 L 169.0 163.5 L 175.0 163.0 L 179.5 162.0 L 182.5 162.0 L 183.0 162.0 " stroke="black" fill="none" stroke-width="6.0" stroke-linecap="round" stroke-linejoin="round" />
<path d="M 169.0 172.0 L 169.0 172.0 L 169.0 172.5 L 169.0 172.5 L 171.0 172.5 L 175.5 172.0 L 180.0 171.5 L 183.0 170.5 L 183.5 170.5 " stroke="black" fill="none" stroke-width="6.0" stroke-linecap="round" stroke-linejoin="round" />
<path d="M 165.0 182.5 L 164.0 182.0 L 164.0 182.0 L 168.0 181.0 L 174.5 180.0 L 182.0 179.0 L 187.0 178.0 " stroke="black" fill="none" stroke-width="6.0" stroke-linecap="round" stroke-linejoin="round" />
<path d="M 169.0 188.0 L 169.5 188.0 L 171.5 187.0 L 172.5 186.5 L 173.0 186.0 L 173.5 186.0 L 172.0 187.5 L 169.0 190.5 L 164.5 194.0 L 160.0 196.5 L 157.5 197.0 " stroke="black" fill="none" stroke-width="6.0" stroke-linecap="round" stroke-linejoin="round" />
<path d="M 181.5 186.5 L 181.5 186.0 L 182.0 185.5 L 182.0 185.5 L 181.5 187.0 L 181.0 189.5 L 181.0 193.0 L 182.0 196.5 L 187.0 199.0 L 195.0 198.0 L 202.0 194.5 L 204.5 191.5 L 203.5 190.0 L 201.0 189.5 L 199.5 189.0 L 199.0 189.0 L 198.5 189.0 " stroke="black" fill="none" stroke-width="6.0" stroke-linecap="round" stroke-linejoin="round" />
</svg>