<svg xmlns="http://www.w3.org/2000/svg" width="300" height="300" viewBox="0 0 300 300">
<path d="M 123.5 112.5 L 123.5 112.5 L 123.0 112.5 L 123.0 112.5 L 123.0 112.5 L 123.5 112.5 L 125.0 114.0 L 126.5 117.0 L 128.0 120.0 L 129.0 122.5 L 129.5 123.0 " stroke="black" fill="none" stroke-width="6.0" stroke-linecap="round" stroke-linejoin="round" />
<path d="M 117.5 133.0 L 117.5 133.0 L 116.0 133.5 L 115.5 133.5 L 116.5 133.5 L 121.0 132.5 L 129.0 131.0 L 137.5 130.0 L 143.5 129.5 L 145.5 129.5 L 145.5 129.5 " stroke="black" fill="none" stroke-width="6.0" stroke-linecap="round" stroke-linejoin="round" />
<path d="M 129.0 133.5 L 129.0 133.5 L 130.0 133.0 L 130.5 133.0 L 130.5 133.0 L 130.5 135.0 L 128.5 141.5 L 124.5 153.0 L 120.5 163.0 L 119.0 166.5 L 118.5 165.5 L 119.0 165.0 " stroke="black" fill="none" stroke-width="6.0" stroke-linecap="round" stroke-linejoin="round" />
<path d="M 131.0 142.5 L 131.0 142.5 L 130.5 142.5 L 130.5 143.0 L 130.5 143.0 L 133.5 143.0 L 138.0 143.0 L 143.0 142.5 L 146.0 142.0 L 147.0 142.0 L 147.0 142.0 L 146.5 143.5 L 146.5 144.0 L 145.0 152.5 L 144.0 160.5 L 143.0 169.5 L 141.5 176.0 L 139.0 179.5 L 137.0 180.5 L 135.0 179.5 L 134.0 177.5 L 134.0 176.0 " stroke="black" fill="none" stroke-width="6.0" stroke-linecap="round" stroke-linejoin="round" />
<path d="M 160.5 110.5 L 161.5 110.0 L 162.0 110.0 L 162.0 110.0 L 162.0 110.0 L 160.5 111.5 L 158.0 116.5 L 155.0 122.5 L 153.5 127.0 L 153.0 127.5 " stroke="black" fill="none" stroke-width="6.0" stroke-linecap="round" stroke-linejoin="round" />
<path d="M 157.5 118.5 L 157.5 119.0 L 157.0 119.5 L 157.0 119.5 L 159.5 119.0 L 164.5 117.0 L 171.5 115.5 L 178.5 114.5 L 183.0 114.5 L 184.5 115.0 L 184.5 115.5 L 184.0 115.5 " stroke="black" fill="none" stroke-width="6.0" stroke-linecap="round" stroke-linejoin="round" />
<path d="M 163.5 128.0 L 164.0 127.5 L 164.5 126.5 L 165.0 126.0 L 165.5 126.0 L 165.5 126.0 L 165.0 127.0 L 163.0 131.5 L 160.0 137.5 L 157.5 142.5 L 156.0 145.5 L 155.0 145.5 " stroke="black" fill="none" stroke-width="6.0" stroke-linecap="round" stroke-linejoin="round" />
<path d="M 164.0 136.5 L 164.0 137.0 L 164.0 137.5 L 164.0 137.5 L 167.0 137.5 L 171.5 136.5 L 176.5 135.0 L 179.5 133.5 L 180.5 133.5 L 180.0 133.5 " stroke="black" fill="none" stroke-width="6.0" stroke-linecap="round" stroke-linejoin="round" />
<path d="M 160.5 155.0 L 161.5 155.5 L 162.5 155.5 L 165.0 155.5 L 169.5 154.5 L 173.5 153.0 L 176.5 151.5 L 177.0 150.5 " stroke="black" fill="none" stroke-width="6.0" stroke-linecap="round" stroke-linejoin="round" />
<path d="M 174.5 128.0 L 175.0 128.5 L 175.5 128.5 L 175.5 129.0 L 175.0 130.0 L 174.0 133.0 L 173.0 141.5 L 172.0 152.5 L 172.0 162.0 L 172.0 166.5 L 172.5 167.0 " stroke="black" fill="none" stroke-width="6.0" stroke-linecap="round" stroke-linejoin="round" />
<path d="M 153.5 174.0 L 153.5 174.0 L 154.0 174.0 L 154.0 174.0 L 156.0 174.0 L 161.0 173.5 L 170.5 172.5 L 180.0 171.5 L 187.5 171.0 L 191.0 171.0 " stroke="black" fill="none" stroke-width="6.0" stroke-linecap="round" stroke-linejoin="round" />
</svg>