<svg xmlns="http://www.w3.org/2000/svg" width="300" height="300" viewBox="0 0 300 300">
<path d="M 127.5 107.5 L 127.5 107.5 L 127.5 107.0 L 127.5 106.5 L 127.5 106.5 L 127.5 107.5 L 127.0 111.5 L 124.5 118.0 L 120.0 127.0 L 115.5 133.0 L 112.5 135.5 L 112.0 135.5 L 112.0 134.5 " stroke="black" fill="none" stroke-width="7.0" stroke-linecap="round" stroke-linejoin="round" />
<path d="M 124.0 125.5 L 124.0 125.0 L 124.0 124.0 L 124.0 124.0 L 124.5 123.5 L 125.0 126.5 L 125.5 133.5 L 126.0 147.0 L 126.0 163.5 L 126.0 172.5 L 126.0 173.5 L 126.5 171.0 " stroke="black" fill="none" stroke-width="7.0" stroke-linecap="round" stroke-linejoin="round" />
<path d="M 138.5 115.0 L 139.0 114.5 L 139.0 114.0 L 139.5 115.0 L 139.5 121.0 L 139.5 132.5 L 139.5 144.0 L 139.5 151.0 L 140.5 153.0 " stroke="black" fill="none" stroke-width="7.0" stroke-linecap="round" stroke-linejoin="round" />
<path d="M 156.5 104.0 L 157.0 103.0 L 157.0 102.5 L 157.0 102.5 L 157.0 105.0 L 156.0 109.5 L 154.5 115.0 L 153.5 119.0 L 152.5 120.5 " stroke="black" fill="none" stroke-width="7.0" stroke-linecap="round" stroke-linejoin="round" />
<path d="M 157.0 113.5 L 157.0 113.5 L 157.0 113.5 L 157.0 113.5 L 157.0 113.5 L 158.5 113.5 L 162.0 114.0 L 168.0 114.0 L 175.5 113.0 L 182.0 111.5 L 183.5 111.0 L 183.5 111.0 " stroke="black" fill="none" stroke-width="7.0" stroke-linecap="round" stroke-linejoin="round" />
<path d="M 172.0 116.0 L 172.0 115.5 L 172.5 114.5 L 173.5 114.0 L 174.0 114.0 L 174.5 115.5 L 175.0 119.5 L 173.5 126.5 L 169.5 139.5 L 163.5 153.5 L 158.5 162.5 L 155.5 165.5 L 155.5 165.5 L 155.5 165.0 L 155.5 165.0 " stroke="black" fill="none" stroke-width="7.0" stroke-linecap="round" stroke-linejoin="round" />
<path d="M 157.0 130.5 L 157.0 130.5 L 157.5 130.5 L 158.0 131.0 L 160.5 135.0 L 168.5 148.0 L 180.0 165.5 L 190.0 173.5 L 194.5 174.5 L 194.5 174.5 " stroke="black" fill="none" stroke-width="7.0" stroke-linecap="round" stroke-linejoin="round" />
</svg>