<svg xmlns="http://www.w3.org/2000/svg" width="300" height="300" viewBox="0 0 300 300">
<path d="M 169.0 110.0 L 168.5 110.0 L 168.0 110.0 L 167.5 110.5 L 167.5 110.5 L 167.0 110.5 L 166.5 110.5 L 165.0 111.5 L 162.0 112.5 L 157.0 114.5 L 150.5 117.0 L 145.0 118.5 L 141.5 119.5 L 140.0 119.5 L 140.0 119.5 L 139.5 119.5 L 138.5 119.5 L 138.0 119.5 L 137.5 119.5 L 137.5 119.5 L 137.5 119.5 L 137.5 119.5 L 137.5 119.5 L 137.5 119.5 L 137.5 119.5 L 137.5 119.5 L 137.5 119.5 L 137.5 119.5 L 137.5 119.5 L 137.5 119.5 L 137.5 119.5 L 137.5 119.5 L 137.5 119.5 L 137.5 119.5 L 137.5 119.5 L 137.5 119.5 L 137.5 119.5 L 137.5 119.5 L 137.5 119.5 L 137.5 120.0 L 137.5 121.5 L 138.0 124.0 L 138.5 129.0 L 138.5 136.5 L 138.0 144.0 L 137.0 152.0 L 136.0 160.0 L 134.0 168.0 L 132.5 175.0 L 132.0 178.0 L 132.0 178.5 L 132.0 178.5 L 131.5 178.0 L 131.5 177.0 L 131.0 175.0 " stroke="black" fill="none" stroke-width="6.0" stroke-linecap="round" stroke-linejoin="round" />
<path d="M 142.5 134.0 L 141.0 134.5 L 140.5 135.0 L 140.5 135.0 L 142.0 135.0 L 145.0 135.0 L 149.5 135.5 L 155.0 135.5 L 162.0 135.5 L 167.0 135.5 L 168.5 135.5 L 168.5 135.0 L 167.5 135.0 L 167.0 135.0 L 167.0 135.0 " stroke="black" fill="none" stroke-width="6.0" stroke-linecap="round" stroke-linejoin="round" />
<path d="M 155.0 137.5 L 155.5 137.5 L 156.0 137.5 L 156.0 137.5 L 156.5 137.5 L 156.5 139.0 L 157.0 143.0 L 157.0 151.0 L 157.0 161.0 L 156.5 168.5 L 156.5 172.5 L 156.5 175.0 L 156.5 176.5 L 156.5 177.5 L 156.5 178.0 L 156.5 178.0 L 156.0 177.5 " stroke="black" fill="none" stroke-width="6.0" stroke-linecap="round" stroke-linejoin="round" />
</svg>