<svg xmlns="http://www.w3.org/2000/svg" width="300" height="300" viewBox="0 0 300 300">
<path d="M 131.0 116.5 L 130.5 116.5 L 130.0 117.0 L 130.5 117.0 L 137.5 116.0 L 150.0 114.0 L 162.5 113.0 L 169.5 113.5 L 171.0 114.5 L 170.5 115.0 L 169.0 115.0 " stroke="black" fill="none" stroke-width="7.0" stroke-linecap="round" stroke-linejoin="round" />
<path d="M 144.0 129.0 L 141.0 129.0 L 140.0 129.0 L 140.0 129.0 L 141.5 129.0 L 145.5 128.5 L 151.5 128.0 L 158.5 127.5 L 164.0 127.0 L 167.5 127.0 L 168.0 127.0 " stroke="black" fill="none" stroke-width="7.0" stroke-linecap="round" stroke-linejoin="round" />
<path d="M 126.5 145.5 L 126.5 145.5 L 126.0 145.5 L 126.0 145.5 L 126.5 145.0 L 131.5 144.0 L 142.0 142.5 L 156.5 141.5 L 168.5 140.5 L 176.0 140.5 L 178.0 140.5 L 177.0 140.5 L 176.0 140.0 " stroke="black" fill="none" stroke-width="7.0" stroke-linecap="round" stroke-linejoin="round" />
<path d="M 152.5 101.0 L 152.5 101.0 L 152.5 101.0 L 152.5 102.0 L 152.5 108.0 L 150.0 121.5 L 142.5 140.5 L 132.5 158.0 L 125.0 170.5 L 122.0 174.5 L 122.0 174.5 L 122.5 173.5 " stroke="black" fill="none" stroke-width="7.0" stroke-linecap="round" stroke-linejoin="round" />
<path d="M 152.0 146.5 L 151.5 146.5 L 151.0 146.0 L 151.0 146.0 L 153.0 147.0 L 158.5 151.5 L 168.5 158.0 L 179.0 162.0 L 187.5 163.5 L 190.0 164.0 " stroke="black" fill="none" stroke-width="7.0" stroke-linecap="round" stroke-linejoin="round" />
<path d="M 138.5 160.5 L 138.5 160.0 L 139.0 160.0 L 139.5 160.5 L 139.5 165.5 L 140.5 174.5 L 141.5 182.5 L 142.5 186.0 L 143.0 186.0 " stroke="black" fill="none" stroke-width="7.0" stroke-linecap="round" stroke-linejoin="round" />
<path d="M 143.5 163.5 L 141.5 163.5 L 140.5 164.0 L 141.0 164.0 L 145.0 164.0 L 150.5 162.5 L 155.5 160.5 L 160.0 158.5 L 162.5 158.0 L 164.0 158.0 L 164.5 158.5 L 164.5 161.5 L 164.5 165.5 L 164.0 171.0 L 163.0 177.0 L 163.0 182.0 L 162.5 185.0 L 162.5 186.5 L 162.0 186.5 " stroke="black" fill="none" stroke-width="7.0" stroke-linecap="round" stroke-linejoin="round" />
<path d="M 147.5 176.5 L 145.5 176.5 L 145.0 176.5 L 146.0 176.0 L 149.0 175.5 L 152.5 175.0 L 156.5 174.5 L 160.0 174.5 L 160.5 175.0 " stroke="black" fill="none" stroke-width="7.0" stroke-linecap="round" stroke-linejoin="round" />
<path d="M 145.0 194.5 L 144.5 194.5 L 143.0 194.5 L 143.5 194.5 L 147.0 193.0 L 152.0 191.0 L 158.0 190.0 L 161.5 190.0 " stroke="black" fill="none" stroke-width="7.0" stroke-linecap="round" stroke-linejoin="round" />
</svg>