<svg xmlns="http://www.w3.org/2000/svg" width="300" height="300" viewBox="0 0 300 300">
<path d="M 125.0 130.5 L 125.0 130.5 L 124.5 130.5 L 124.5 130.5 L 124.5 131.0 L 125.5 135.5 L 126.0 145.0 L 126.5 156.0 L 126.5 164.5 L 126.5 169.5 L 127.0 170.0 L 127.0 169.0 L 127.5 166.5 " stroke="black" fill="none" stroke-width="6.0" stroke-linecap="round" stroke-linejoin="round" />
<path d="M 128.0 130.5 L 127.5 130.5 L 126.5 131.5 L 126.0 131.5 L 126.5 131.5 L 129.0 131.5 L 132.5 132.0 L 136.5 132.0 L 140.0 132.0 L 143.5 131.5 L 146.0 130.0 L 146.5 129.0 L 146.5 129.0 L 146.5 129.0 L 145.5 131.5 L 145.0 136.0 L 144.5 143.0 L 144.5 150.5 L 144.5 158.5 L 144.5 165.5 L 144.5 171.5 L 144.5 175.0 L 144.5 175.5 L 144.5 175.0 L 144.5 173.0 " stroke="black" fill="none" stroke-width="6.0" stroke-linecap="round" stroke-linejoin="round" />
<path d="M 130.5 151.5 L 130.5 152.5 L 130.5 153.0 L 130.5 153.0 L 132.5 153.0 L 135.5 152.0 L 139.0 151.5 L 141.5 151.5 L 142.0 151.0 " stroke="black" fill="none" stroke-width="6.0" stroke-linecap="round" stroke-linejoin="round" />
<path d="M 132.5 172.5 L 132.0 172.5 L 132.0 172.5 L 133.0 172.5 L 136.5 172.0 L 140.5 170.0 " stroke="black" fill="none" stroke-width="6.0" stroke-linecap="round" stroke-linejoin="round" />
<path d="M 158.0 124.0 L 158.0 123.0 L 158.5 122.0 L 159.0 122.0 L 159.5 124.0 L 159.5 130.0 L 158.5 138.0 L 157.5 144.5 L 156.5 147.5 L 156.5 147.0 " stroke="black" fill="none" stroke-width="6.0" stroke-linecap="round" stroke-linejoin="round" />
<path d="M 153.0 122.0 L 152.5 122.0 L 152.0 122.0 L 151.5 122.0 L 152.0 121.5 L 155.0 121.0 L 159.0 120.5 L 164.0 120.0 L 169.0 119.0 L 172.5 119.0 L 173.5 119.0 L 173.5 119.0 L 173.5 119.0 L 174.0 119.0 L 174.0 119.5 L 174.5 120.5 L 174.5 122.0 L 175.0 124.0 L 175.5 127.0 L 176.0 131.0 L 176.5 136.5 L 176.5 141.5 L 176.5 146.0 L 176.5 150.0 L 175.5 151.5 L 174.0 151.5 L 172.5 150.5 L 172.0 149.5 " stroke="black" fill="none" stroke-width="6.0" stroke-linecap="round" stroke-linejoin="round" />
<path d="M 156.5 163.5 L 156.5 163.5 L 156.5 162.5 L 156.5 163.0 L 157.0 167.5 L 157.5 173.5 L 158.0 178.5 L 159.0 181.0 L 159.5 179.5 " stroke="black" fill="none" stroke-width="6.0" stroke-linecap="round" stroke-linejoin="round" />
<path d="M 158.0 165.5 L 157.5 164.0 L 157.0 164.0 L 158.0 164.0 L 160.5 164.0 L 164.0 164.0 L 168.5 163.5 L 173.5 163.5 L 176.5 163.5 L 178.5 163.5 L 179.5 164.5 L 180.0 165.0 L 180.0 165.5 L 180.0 166.5 L 180.0 168.0 L 180.0 170.0 L 180.0 173.0 L 179.5 177.0 L 178.5 181.0 L 178.0 184.0 L 177.5 187.0 L 177.0 188.0 " stroke="black" fill="none" stroke-width="6.0" stroke-linecap="round" stroke-linejoin="round" />
<path d="M 162.5 190.0 L 162.0 190.0 L 161.0 190.0 L 161.5 190.0 L 165.0 190.0 L 169.5 189.5 L 174.0 189.0 L 176.0 189.0 " stroke="black" fill="none" stroke-width="6.0" stroke-linecap="round" stroke-linejoin="round" />
</svg>