<svg xmlns="http://www.w3.org/2000/svg" width="300" height="300" viewBox="0 0 300 300">
<path d="M 126.66666666666667 106.66666666666667 L 126.66666666666667 106.66666666666667 L 126.66666666666667 106.11111111111111 L 126.1111111111111 106.11111111111111 L 126.1111111111111 107.22222222222223 L 127.77777777777779 115.00000000000001 L 128.8888888888889 129.44444444444446 L 128.8888888888889 140.00000000000003 L 128.8888888888889 142.7777777777778 L 128.8888888888889 140.55555555555557 " stroke="black" fill="none" stroke-width="7.0" stroke-linecap="round" stroke-linejoin="round" />
<path d="M 129.44444444444446 107.22222222222223 L 128.33333333333334 108.33333333333333 L 127.77777777777779 108.88888888888889 L 128.33333333333334 109.44444444444444 L 131.66666666666669 109.44444444444444 L 136.66666666666669 108.88888888888889 L 143.8888888888889 107.22222222222223 L 153.33333333333334 105.55555555555556 L 163.33333333333334 104.44444444444444 L 171.66666666666669 103.33333333333333 L 175.55555555555557 102.77777777777777 L 175.55555555555557 102.77777777777777 L 175.55555555555557 102.77777777777777 L 175.00000000000003 102.77777777777777 L 175.00000000000003 103.33333333333333 L 175.00000000000003 103.88888888888889 L 175.00000000000003 105.55555555555556 L 175.00000000000003 107.77777777777779 L 174.44444444444446 111.66666666666667 L 173.33333333333334 121.1111111111111 L 172.22222222222223 130.00000000000003 L 171.11111111111114 136.66666666666669 L 171.11111111111114 138.33333333333334 L 171.11111111111114 138.8888888888889 L 171.11111111111114 137.7777777777778 " stroke="black" fill="none" stroke-width="7.0" stroke-linecap="round" stroke-linejoin="round" />
<path d="M 139.44444444444446 126.66666666666667 L 139.44444444444446 126.66666666666667 L 138.33333333333334 126.66666666666667 L 137.7777777777778 126.66666666666667 L 141.11111111111111 125.55555555555556 L 147.22222222222223 124.44444444444444 L 155.00000000000003 122.77777777777779 L 161.66666666666669 122.77777777777779 L 165.00000000000003 122.22222222222221 L 165.00000000000003 122.77777777777779 " stroke="black" fill="none" stroke-width="7.0" stroke-linecap="round" stroke-linejoin="round" />
<path d="M 137.7777777777778 145.00000000000003 L 136.11111111111111 145.55555555555557 L 135.00000000000003 146.11111111111111 L 137.22222222222223 146.11111111111111 L 144.44444444444446 143.8888888888889 L 153.33333333333334 141.66666666666669 L 162.7777777777778 140.55555555555557 L 169.44444444444446 140.55555555555557 L 170.55555555555557 141.66666666666669 " stroke="black" fill="none" stroke-width="7.0" stroke-linecap="round" stroke-linejoin="round" />
<path d="M 134.44444444444446 171.11111111111114 L 135.00000000000003 171.11111111111114 L 135.00000000000003 171.11111111111114 L 136.66666666666669 170.00000000000003 L 139.44444444444446 168.33333333333334 L 142.7777777777778 165.55555555555557 L 145.55555555555557 163.33333333333334 " stroke="black" fill="none" stroke-width="7.0" stroke-linecap="round" stroke-linejoin="round" />
<path d="M 128.8888888888889 156.66666666666669 L 130.00000000000003 156.66666666666669 L 131.11111111111111 156.66666666666669 L 132.22222222222223 157.22222222222223 L 132.7777777777778 158.8888888888889 L 132.7777777777778 163.33333333333334 L 132.7777777777778 171.11111111111114 L 132.7777777777778 181.11111111111114 L 132.22222222222223 188.8888888888889 L 132.22222222222223 192.22222222222223 L 132.22222222222223 192.22222222222223 L 132.22222222222223 191.11111111111114 L 133.33333333333334 190.55555555555557 L 135.00000000000003 189.44444444444446 L 138.33333333333334 187.22222222222223 L 142.22222222222223 183.8888888888889 L 145.00000000000003 181.11111111111114 L 147.22222222222223 178.8888888888889 " stroke="black" fill="none" stroke-width="7.0" stroke-linecap="round" stroke-linejoin="round" />
<path d="M 163.33333333333334 166.66666666666669 L 162.22222222222223 166.66666666666669 L 162.22222222222223 166.66666666666669 L 164.44444444444446 166.11111111111114 L 167.7777777777778 163.8888888888889 L 171.11111111111114 161.66666666666669 L 173.8888888888889 160.00000000000003 L 174.44444444444446 159.44444444444446 " stroke="black" fill="none" stroke-width="7.0" stroke-linecap="round" stroke-linejoin="round" />
<path d="M 158.8888888888889 151.66666666666669 L 158.8888888888889 151.66666666666669 L 158.8888888888889 151.66666666666669 L 158.8888888888889 151.66666666666669 L 158.8888888888889 151.66666666666669 L 158.8888888888889 152.7777777777778 L 158.8888888888889 157.7777777777778 L 158.33333333333334 167.7777777777778 L 157.7777777777778 177.7777777777778 L 158.33333333333334 184.44444444444446 L 161.11111111111111 186.66666666666669 L 165.00000000000003 187.22222222222223 L 170.00000000000003 187.22222222222223 L 176.11111111111114 186.66666666666669 L 182.22222222222223 185.55555555555557 L 186.11111111111114 184.44444444444446 L 187.22222222222223 183.33333333333334 L 187.22222222222223 182.7777777777778 L 186.66666666666669 182.7777777777778 L 186.11111111111114 182.7777777777778 L 185.55555555555557 182.22222222222223 L 185.00000000000003 181.66666666666669 L 185.00000000000003 181.11111111111114 L 185.00000000000003 180.00000000000003 L 185.00000000000003 179.44444444444446 " stroke="black" fill="none" stroke-width="7.0" stroke-linecap="round" stroke-linejoin="round" />
</svg>