<svg xmlns="http://www.w3.org/2000/svg" width="300" height="300" viewBox="0 0 300 300">
<path d="M 120.0 117.5 L 119.5 117.0 L 119.0 117.0 L 119.0 118.0 L 119.5 123.5 L 120.5 137.5 L 121.0 156.0 L 120.0 168.5 L 119.5 172.0 L 120.0 171.0 " stroke="black" fill="none" stroke-width="8.0" stroke-linecap="round" stroke-linejoin="round" />
<path d="M 121.5 120.0 L 121.0 120.0 L 119.5 119.5 L 119.5 119.5 L 121.0 119.0 L 125.5 118.0 L 131.5 117.5 L 138.0 117.5 L 142.5 118.0 L 144.5 120.0 L 144.5 123.0 L 144.5 129.0 L 143.0 139.5 L 141.5 151.0 L 141.0 161.5 L 140.5 166.5 L 141.0 167.0 L 141.5 166.0 " stroke="black" fill="none" stroke-width="8.0" stroke-linecap="round" stroke-linejoin="round" />
<path d="M 126.5 147.0 L 126.0 146.5 L 125.5 146.0 L 126.0 145.5 L 129.5 145.5 L 135.0 145.0 L 140.0 145.0 L 144.0 145.0 " stroke="black" fill="none" stroke-width="8.0" stroke-linecap="round" stroke-linejoin="round" />
<path d="M 127.0 170.5 L 126.5 171.5 L 126.0 172.5 L 129.0 172.5 L 133.5 173.0 L 139.0 172.0 " stroke="black" fill="none" stroke-width="8.0" stroke-linecap="round" stroke-linejoin="round" />
<path d="M 166.0 100.0 L 166.0 100.0 L 165.0 100.5 L 165.0 106.0 L 165.0 123.5 L 164.0 148.5 L 163.0 166.0 L 162.0 176.5 L 162.0 180.5 L 161.0 180.5 " stroke="black" fill="none" stroke-width="8.0" stroke-linecap="round" stroke-linejoin="round" />
<path d="M 165.0 103.5 L 164.0 103.0 L 163.0 102.5 L 163.0 102.0 L 165.5 100.5 L 170.0 98.5 L 176.0 97.0 L 182.0 96.0 L 186.5 96.0 L 189.0 96.5 L 189.0 98.0 L 189.0 99.5 L 189.0 101.0 L 189.0 102.0 L 189.0 102.5 L 189.0 104.0 L 189.0 105.5 L 189.5 107.0 L 189.5 109.0 L 190.0 111.5 L 190.0 115.0 L 190.0 121.0 L 190.0 130.5 L 190.0 142.5 L 190.0 155.0 L 189.5 168.0 L 189.0 179.0 L 188.0 188.5 L 187.5 195.0 L 186.0 198.5 L 184.0 199.5 L 180.5 198.0 L 177.5 194.5 " stroke="black" fill="none" stroke-width="8.0" stroke-linecap="round" stroke-linejoin="round" />
<path d="M 169.5 123.5 L 169.5 123.5 L 169.5 124.0 L 171.0 124.0 L 175.5 124.0 L 181.5 124.0 L 185.5 125.0 L 186.0 125.5 " stroke="black" fill="none" stroke-width="8.0" stroke-linecap="round" stroke-linejoin="round" />
<path d="M 167.0 156.5 L 166.0 157.0 L 165.5 157.5 L 166.5 157.5 L 170.5 157.0 L 176.5 156.0 L 183.0 155.5 L 189.5 155.0 " stroke="black" fill="none" stroke-width="8.0" stroke-linecap="round" stroke-linejoin="round" />
</svg>