<svg xmlns="http://www.w3.org/2000/svg" width="300" height="300" viewBox="0 0 300 300">
<path d="M 112.14285714285718 87.14285714285715 L 112.14285714285718 87.14285714285715 L 112.14285714285718 87.85714285714288 L 112.14285714285718 87.85714285714288 L 112.14285714285718 88.5714285714286 L 112.14285714285718 90.71428571428574 L 114.28571428571432 99.28571428571432 L 116.42857142857146 120.71428571428574 L 117.14285714285718 152.8571428571429 L 113.5714285714286 184.28571428571433 L 107.85714285714288 207.14285714285722 L 103.5714285714286 219.28571428571433 L 101.42857142857146 220.71428571428578 L 101.42857142857146 215.00000000000006 " stroke="black" fill="none" stroke-width="8.0" stroke-linecap="round" stroke-linejoin="round" />
<path d="M 119.28571428571432 87.85714285714288 L 118.5714285714286 87.85714285714288 L 117.14285714285718 87.85714285714288 L 116.42857142857146 87.85714285714288 L 117.85714285714288 87.14285714285715 L 126.42857142857146 84.28571428571432 L 141.42857142857144 80.00000000000001 L 159.28571428571433 77.14285714285715 L 174.28571428571433 77.14285714285715 L 185.00000000000006 77.14285714285715 L 190.00000000000006 80.00000000000001 L 193.5714285714286 85.00000000000001 L 195.00000000000006 92.85714285714288 L 195.71428571428578 104.28571428571432 L 195.71428571428578 116.42857142857146 L 196.4285714285715 131.42857142857144 L 196.4285714285715 149.28571428571433 L 196.4285714285715 169.28571428571433 L 195.71428571428578 189.28571428571433 L 195.00000000000006 205.71428571428578 L 192.8571428571429 220.00000000000006 L 190.71428571428578 232.14285714285722 L 187.8571428571429 240.71428571428578 L 184.28571428571433 245.71428571428578 L 182.14285714285717 246.4285714285715 L 178.5714285714286 240.71428571428578 L 175.71428571428578 232.14285714285722 " stroke="black" fill="none" stroke-width="8.0" stroke-linecap="round" stroke-linejoin="round" />
<path d="M 130.71428571428572 123.5714285714286 L 129.28571428571433 125.00000000000001 L 127.14285714285718 125.71428571428574 L 127.14285714285718 125.71428571428574 L 131.42857142857144 125.71428571428574 L 141.42857142857144 125.71428571428574 L 155.00000000000006 125.00000000000001 L 170.71428571428572 125.00000000000001 L 183.5714285714286 124.28571428571432 L 191.42857142857144 122.85714285714288 L 190.71428571428578 122.14285714285718 L 189.28571428571433 122.14285714285718 " stroke="black" fill="none" stroke-width="8.0" stroke-linecap="round" stroke-linejoin="round" />
<path d="M 128.5714285714286 169.28571428571433 L 128.5714285714286 169.28571428571433 L 128.5714285714286 170.00000000000006 L 128.5714285714286 170.71428571428572 L 133.5714285714286 172.14285714285717 L 145.00000000000006 173.5714285714286 L 160.71428571428572 174.28571428571433 L 177.8571428571429 171.42857142857144 L 191.42857142857144 167.14285714285717 L 198.5714285714286 166.42857142857144 " stroke="black" fill="none" stroke-width="8.0" stroke-linecap="round" stroke-linejoin="round" />
</svg>