<svg xmlns="http://www.w3.org/2000/svg" width="300" height="300" viewBox="0 0 300 300">
<path d="M 80.55555555555556 96.11111111111111 L 82.77777777777777 95.55555555555556 L 86.11111111111111 95.55555555555556 L 94.44444444444444 95.55555555555556 L 107.77777777777779 95.0 L 125.00000000000001 93.33333333333333 L 146.66666666666669 91.11111111111111 L 169.44444444444446 88.33333333333333 L 186.11111111111114 87.22222222222223 L 196.66666666666669 88.33333333333333 L 200.00000000000003 90.55555555555556 L 200.55555555555557 90.55555555555556 " stroke="black" fill="none" stroke-width="14.0" stroke-linecap="round" stroke-linejoin="round" />
<path d="M 150.00000000000003 74.44444444444444 L 148.8888888888889 74.44444444444444 L 148.33333333333334 74.44444444444444 L 148.33333333333334 76.66666666666667 L 150.00000000000003 83.33333333333333 L 151.11111111111111 100.0 L 151.11111111111111 120.55555555555556 L 150.55555555555557 133.33333333333334 L 150.55555555555557 138.33333333333334 L 150.55555555555557 136.11111111111111 " stroke="black" fill="none" stroke-width="14.0" stroke-linecap="round" stroke-linejoin="round" />
<path d="M 147.7777777777778 95.55555555555556 L 147.22222222222223 95.55555555555556 L 146.66666666666669 95.55555555555556 L 146.11111111111111 96.66666666666667 L 141.11111111111111 104.44444444444444 L 129.44444444444446 117.77777777777779 L 116.66666666666667 126.66666666666667 L 105.0 129.44444444444446 L 96.66666666666667 130.55555555555557 L 95.55555555555556 130.55555555555557 L 98.88888888888889 128.8888888888889 " stroke="black" fill="none" stroke-width="14.0" stroke-linecap="round" stroke-linejoin="round" />
<path d="M 146.11111111111111 103.88888888888889 L 145.55555555555557 103.88888888888889 L 144.44444444444446 103.88888888888889 L 145.00000000000003 103.88888888888889 L 151.11111111111111 106.11111111111111 L 161.66666666666669 110.55555555555556 L 176.11111111111114 118.33333333333333 L 192.22222222222223 125.00000000000001 L 205.55555555555557 127.77777777777779 L 212.22222222222223 128.33333333333334 L 212.22222222222223 128.8888888888889 L 211.11111111111114 128.8888888888889 " stroke="black" fill="none" stroke-width="14.0" stroke-linecap="round" stroke-linejoin="round" />
<path d="M 107.22222222222223 161.11111111111111 L 108.33333333333333 161.11111111111111 L 110.55555555555556 161.11111111111111 L 115.55555555555556 161.11111111111111 L 126.66666666666667 159.44444444444446 L 144.44444444444446 158.33333333333334 L 160.55555555555557 157.7777777777778 L 172.7777777777778 158.8888888888889 L 178.33333333333334 161.66666666666669 L 178.8888888888889 165.00000000000003 L 174.44444444444446 168.33333333333334 L 167.22222222222223 173.8888888888889 L 158.33333333333334 178.8888888888889 L 151.11111111111111 182.7777777777778 L 146.66666666666669 185.55555555555557 L 146.66666666666669 186.66666666666669 L 148.8888888888889 187.22222222222223 L 152.7777777777778 187.7777777777778 L 158.33333333333334 188.33333333333334 L 162.7777777777778 190.55555555555557 L 164.44444444444446 196.11111111111114 L 162.7777777777778 206.66666666666669 L 157.7777777777778 220.00000000000003 L 152.22222222222223 233.33333333333334 L 148.8888888888889 242.7777777777778 L 145.55555555555557 248.88888888888889 L 142.7777777777778 251.11111111111111 L 140.00000000000003 250.00000000000003 L 135.00000000000003 243.88888888888889 L 130.00000000000003 237.7777777777778 " stroke="black" fill="none" stroke-width="14.0" stroke-linecap="round" stroke-linejoin="round" />
<path d="M 91.66666666666667 201.11111111111114 L 90.0 202.22222222222223 L 89.44444444444444 202.7777777777778 L 92.77777777777777 203.33333333333334 L 102.22222222222223 203.8888888888889 L 120.00000000000001 203.33333333333334 L 148.8888888888889 201.11111111111114 L 177.7777777777778 200.00000000000003 L 198.33333333333334 199.44444444444446 L 216.11111111111114 199.44444444444446 L 229.44444444444446 198.8888888888889 L 237.22222222222226 198.33333333333334 L 239.44444444444449 198.8888888888889 " stroke="black" fill="none" stroke-width="14.0" stroke-linecap="round" stroke-linejoin="round" />
</svg>