<svg xmlns="http://www.w3.org/2000/svg" width="300" height="300" viewBox="0 0 300 300">
<path d="M 91.5 104.5 L 91.5 104.5 L 91.5 104.5 L 91.0 105.0 L 91.0 105.0 L 91.0 105.0 L 91.0 105.0 L 92.5 105.5 L 97.0 106.0 L 106.5 106.0 L 120.5 105.5 L 133.0 105.5 L 146.5 105.5 L 160.0 105.0 L 173.0 104.0 L 185.5 103.0 L 196.0 102.5 L 203.5 102.5 L 209.5 102.5 L 211.5 102.5 L 212.0 102.5 L 211.5 102.5 L 211.0 102.5 L 210.5 102.5 L 210.0 102.5 L 210.0 102.5 " stroke="black" fill="none" stroke-width="10.0" stroke-linecap="round" stroke-linejoin="round" />
<path d="M 135.0 83.5 L 135.0 83.0 L 135.0 82.5 L 135.0 82.5 L 135.0 83.0 L 135.0 86.0 L 134.0 91.0 L 131.5 98.5 L 127.5 107.5 L 123.0 118.0 L 118.0 128.0 L 111.5 136.0 L 105.0 144.0 L 98.5 152.5 L 91.0 160.0 L 84.0 166.5 L 80.5 169.5 L 79.0 169.5 L 79.0 168.5 L 80.0 167.0 " stroke="black" fill="none" stroke-width="10.0" stroke-linecap="round" stroke-linejoin="round" />
<path d="M 123.5 132.0 L 123.0 132.0 L 122.5 132.0 L 122.5 132.0 L 122.0 132.0 L 122.0 132.5 L 122.0 134.5 L 122.5 139.5 L 123.0 148.5 L 123.0 162.0 L 122.0 178.5 L 121.5 192.5 L 121.0 202.5 L 120.5 210.5 L 119.5 217.5 L 118.0 223.5 L 116.5 228.0 L 116.0 229.5 L 116.0 229.5 L 115.5 226.5 L 114.5 222.0 L 114.0 219.5 " stroke="black" fill="none" stroke-width="10.0" stroke-linecap="round" stroke-linejoin="round" />
<path d="M 126.0 138.0 L 126.0 138.0 L 125.0 138.0 L 124.0 137.5 L 124.0 137.5 L 125.0 137.5 L 126.5 137.5 L 128.5 138.0 L 132.0 138.0 L 136.0 138.0 L 142.5 137.5 L 149.0 137.5 L 156.0 137.0 L 162.0 136.5 L 167.0 136.5 L 171.5 136.5 L 175.5 136.5 L 179.0 136.5 L 182.0 136.5 L 183.5 137.5 L 184.0 138.0 L 184.0 138.0 L 184.0 138.5 L 183.5 138.5 L 183.0 139.0 L 183.0 139.5 L 182.5 140.5 L 182.5 141.5 L 182.0 144.0 L 181.5 146.5 L 181.0 149.5 L 181.0 153.5 L 180.5 158.5 L 180.5 165.5 L 180.5 173.0 L 180.5 180.5 L 180.0 189.0 L 179.5 197.5 L 179.0 204.5 L 178.5 211.0 L 177.0 216.5 L 175.5 220.5 L 174.5 223.0 L 173.5 223.5 L 172.5 223.5 L 171.5 223.5 L 170.0 223.5 L 168.5 223.0 L 167.5 222.0 L 166.5 220.0 L 166.5 219.5 " stroke="black" fill="none" stroke-width="10.0" stroke-linecap="round" stroke-linejoin="round" />
<path d="M 133.0 165.0 L 133.0 164.5 L 133.0 164.5 L 133.0 164.5 L 134.0 164.5 L 136.5 164.5 L 142.5 165.5 L 152.0 166.5 L 163.0 166.5 L 170.5 166.5 L 173.5 166.5 L 174.0 166.5 L 173.5 166.5 L 172.0 166.5 L 171.0 167.0 " stroke="black" fill="none" stroke-width="10.0" stroke-linecap="round" stroke-linejoin="round" />
<path d="M 135.5 192.0 L 135.5 192.0 L 135.5 192.5 L 135.5 192.5 L 137.0 192.5 L 140.5 192.5 L 146.5 192.5 L 155.0 192.5 L 165.0 192.5 L 173.5 192.5 L 180.5 192.5 L 184.5 192.5 L 186.0 193.5 L 186.0 193.5 " stroke="black" fill="none" stroke-width="10.0" stroke-linecap="round" stroke-linejoin="round" />
</svg>