<svg xmlns="http://www.w3.org/2000/svg" width="300" height="300" viewBox="0 0 300 300">
<path d="M 125.0 111.0 L 125.0 111.0 L 124.5 111.0 L 124.0 111.0 L 125.0 111.0 L 127.0 112.5 L 129.0 114.5 L 130.5 116.0 L 131.5 117.5 L 132.0 118.5 " stroke="black" fill="none" stroke-width="6.0" stroke-linecap="round" stroke-linejoin="round" />
<path d="M 121.5 124.0 L 120.0 124.0 L 118.5 124.0 L 118.5 124.0 L 121.0 124.0 L 125.5 123.5 L 130.5 123.0 L 134.0 122.5 L 137.0 122.0 L 138.0 122.0 L 138.0 123.0 L 138.0 124.5 L 137.5 127.5 L 136.5 132.0 L 135.5 137.0 L 135.0 141.5 L 135.0 143.0 L 135.0 143.5 " stroke="black" fill="none" stroke-width="6.0" stroke-linecap="round" stroke-linejoin="round" />
<path d="M 125.0 137.5 L 123.0 137.5 L 122.5 137.5 L 122.5 137.5 L 126.0 136.0 L 130.5 134.5 L 134.0 134.0 L 136.0 134.0 L 136.5 134.5 " stroke="black" fill="none" stroke-width="6.0" stroke-linecap="round" stroke-linejoin="round" />
<path d="M 126.0 146.5 L 125.5 147.0 L 124.0 147.5 L 124.0 147.5 L 127.0 147.0 L 130.0 145.5 L 132.5 144.0 L 134.0 142.5 " stroke="black" fill="none" stroke-width="6.0" stroke-linecap="round" stroke-linejoin="round" />
<path d="M 121.0 126.0 L 120.0 126.0 L 118.5 126.5 L 118.5 128.5 L 118.5 134.0 L 119.5 142.5 L 119.5 152.0 L 119.0 161.5 L 118.0 170.5 L 117.5 177.0 L 117.5 180.5 L 118.0 182.0 L 118.5 182.0 L 121.0 178.5 L 123.0 176.0 L 125.0 174.0 L 127.5 171.5 L 130.5 169.5 L 132.5 168.5 L 133.0 168.0 " stroke="black" fill="none" stroke-width="6.0" stroke-linecap="round" stroke-linejoin="round" />
<path d="M 136.5 160.5 L 136.5 160.5 L 136.5 160.5 L 136.5 161.5 L 138.5 164.5 L 141.5 168.5 L 144.5 171.0 L 145.5 171.5 " stroke="black" fill="none" stroke-width="6.0" stroke-linecap="round" stroke-linejoin="round" />
<path d="M 153.0 119.5 L 153.0 119.0 L 153.0 118.5 L 153.0 119.0 L 153.0 123.5 L 153.5 135.0 L 153.5 151.0 L 153.5 164.0 L 154.0 169.5 L 154.5 169.5 L 154.5 167.5 " stroke="black" fill="none" stroke-width="6.0" stroke-linecap="round" stroke-linejoin="round" />
<path d="M 152.0 116.0 L 152.0 116.5 L 151.5 117.5 L 151.5 118.0 L 151.5 118.0 L 152.5 118.0 L 154.5 117.0 L 157.0 116.0 L 159.5 114.5 L 162.0 113.5 L 164.0 113.0 L 165.5 113.0 L 167.0 115.5 L 168.0 121.0 L 169.5 130.5 L 170.5 142.5 L 171.5 153.0 L 172.0 162.0 L 172.0 169.5 L 172.0 177.0 L 171.0 183.0 L 170.5 185.0 L 170.0 184.5 L 168.5 180.5 L 166.5 175.0 L 165.5 171.5 " stroke="black" fill="none" stroke-width="6.0" stroke-linecap="round" stroke-linejoin="round" />
<path d="M 156.5 137.5 L 155.0 138.0 L 154.5 138.0 L 154.5 137.5 L 156.5 136.5 L 160.0 135.0 L 163.5 134.0 L 166.0 133.5 L 168.0 133.5 L 168.5 134.5 " stroke="black" fill="none" stroke-width="6.0" stroke-linecap="round" stroke-linejoin="round" />
<path d="M 158.5 153.0 L 156.5 153.5 L 156.5 153.5 L 158.0 153.5 L 161.5 152.0 L 165.5 151.0 L 168.5 150.0 L 170.5 149.5 " stroke="black" fill="none" stroke-width="6.0" stroke-linecap="round" stroke-linejoin="round" />
</svg>