<svg xmlns="http://www.w3.org/2000/svg" width="300" height="300" viewBox="0 0 300 300">
<path d="M 147.7777777777778 102.77777777777777 L 147.22222222222223 102.77777777777777 L 147.22222222222223 102.22222222222223 L 146.66666666666669 101.66666666666667 L 146.11111111111111 102.22222222222223 L 142.7777777777778 106.66666666666667 L 133.8888888888889 117.77777777777779 L 123.33333333333333 128.33333333333334 L 118.33333333333333 132.7777777777778 L 117.22222222222221 132.22222222222223 L 117.77777777777779 131.11111111111111 " stroke="black" fill="none" stroke-width="7.0" stroke-linecap="round" stroke-linejoin="round" />
<path d="M 151.11111111111111 102.77777777777777 L 149.44444444444446 102.77777777777777 L 148.33333333333334 102.22222222222223 L 148.8888888888889 102.22222222222223 L 152.22222222222223 103.33333333333333 L 157.7777777777778 106.11111111111111 L 165.55555555555557 110.0 L 173.8888888888889 113.8888888888889 L 181.11111111111114 116.1111111111111 L 185.00000000000003 117.77777777777779 L 186.66666666666669 119.44444444444444 L 187.22222222222223 121.66666666666667 " stroke="black" fill="none" stroke-width="7.0" stroke-linecap="round" stroke-linejoin="round" />
<path d="M 141.11111111111111 127.22222222222221 L 140.00000000000003 127.22222222222221 L 138.33333333333334 127.22222222222221 L 137.22222222222223 127.22222222222221 L 138.33333333333334 126.66666666666667 L 142.22222222222223 126.1111111111111 L 147.7777777777778 125.55555555555556 L 154.44444444444446 123.8888888888889 L 162.22222222222223 122.22222222222221 L 168.33333333333334 121.1111111111111 L 170.55555555555557 120.55555555555556 L 171.11111111111114 120.55555555555556 " stroke="black" fill="none" stroke-width="7.0" stroke-linecap="round" stroke-linejoin="round" />
<path d="M 131.66666666666669 142.22222222222223 L 131.66666666666669 142.22222222222223 L 132.22222222222223 141.66666666666669 L 132.22222222222223 141.66666666666669 L 132.22222222222223 142.7777777777778 L 132.7777777777778 146.11111111111111 L 133.8888888888889 148.8888888888889 L 135.00000000000003 151.11111111111111 L 135.00000000000003 151.66666666666669 " stroke="black" fill="none" stroke-width="7.0" stroke-linecap="round" stroke-linejoin="round" />
<path d="M 133.33333333333334 140.55555555555557 L 133.33333333333334 140.55555555555557 L 132.22222222222223 139.44444444444446 L 132.22222222222223 138.8888888888889 L 133.8888888888889 138.33333333333334 L 137.7777777777778 138.33333333333334 L 143.33333333333334 137.7777777777778 L 152.22222222222223 136.11111111111111 L 165.55555555555557 132.22222222222223 L 175.00000000000003 130.00000000000003 L 180.55555555555557 130.00000000000003 L 182.22222222222223 131.66666666666669 L 182.22222222222223 132.7777777777778 L 182.22222222222223 132.7777777777778 L 182.22222222222223 132.7777777777778 L 182.7777777777778 133.33333333333334 L 182.7777777777778 135.55555555555557 L 181.11111111111114 139.44444444444446 L 178.33333333333334 145.00000000000003 L 176.11111111111114 150.55555555555557 L 175.00000000000003 154.44444444444446 L 175.00000000000003 155.55555555555557 " stroke="black" fill="none" stroke-width="7.0" stroke-linecap="round" stroke-linejoin="round" />
<path d="M 153.8888888888889 138.33333333333334 L 153.8888888888889 137.22222222222223 L 154.44444444444446 136.66666666666669 L 155.00000000000003 136.66666666666669 L 155.00000000000003 139.44444444444446 L 155.55555555555557 144.44444444444446 L 156.11111111111111 149.44444444444446 L 156.11111111111111 152.7777777777778 L 156.11111111111111 153.33333333333334 " stroke="black" fill="none" stroke-width="7.0" stroke-linecap="round" stroke-linejoin="round" />
<path d="M 143.33333333333334 143.33333333333334 L 143.33333333333334 142.7777777777778 L 142.22222222222223 142.22222222222223 L 141.66666666666669 141.11111111111111 L 141.11111111111111 141.11111111111111 L 141.11111111111111 141.11111111111111 L 142.22222222222223 142.7777777777778 L 143.8888888888889 145.55555555555557 L 146.11111111111111 148.33333333333334 " stroke="black" fill="none" stroke-width="7.0" stroke-linecap="round" stroke-linejoin="round" />
<path d="M 167.22222222222223 136.66666666666669 L 165.55555555555557 137.22222222222223 L 165.00000000000003 137.7777777777778 L 164.44444444444446 138.8888888888889 L 164.44444444444446 141.11111111111111 L 164.44444444444446 145.55555555555557 L 162.7777777777778 150.00000000000003 L 162.22222222222223 150.55555555555557 " stroke="black" fill="none" stroke-width="7.0" stroke-linecap="round" stroke-linejoin="round" />
<path d="M 136.66666666666669 161.66666666666669 L 137.7777777777778 161.11111111111111 L 138.8888888888889 160.55555555555557 L 141.11111111111111 159.44444444444446 L 145.55555555555557 158.8888888888889 L 151.66666666666669 158.33333333333334 L 161.11111111111111 157.7777777777778 L 170.55555555555557 156.66666666666669 L 172.7777777777778 156.11111111111111 " stroke="black" fill="none" stroke-width="7.0" stroke-linecap="round" stroke-linejoin="round" />
<path d="M 136.11111111111111 173.33333333333334 L 136.66666666666669 173.33333333333334 L 137.22222222222223 172.7777777777778 L 137.7777777777778 172.7777777777778 L 138.33333333333334 176.11111111111114 L 138.8888888888889 182.22222222222223 L 139.44444444444446 189.44444444444446 L 140.00000000000003 193.8888888888889 L 140.00000000000003 194.44444444444446 " stroke="black" fill="none" stroke-width="7.0" stroke-linecap="round" stroke-linejoin="round" />
<path d="M 140.00000000000003 173.8888888888889 L 140.00000000000003 173.8888888888889 L 138.8888888888889 173.8888888888889 L 138.33333333333334 173.8888888888889 L 140.00000000000003 173.33333333333334 L 144.44444444444446 171.66666666666669 L 151.66666666666669 168.8888888888889 L 163.33333333333334 167.22222222222223 L 172.7777777777778 166.66666666666669 L 177.7777777777778 167.7777777777778 L 178.33333333333334 169.44444444444446 L 177.7777777777778 170.00000000000003 L 177.22222222222223 171.11111111111114 L 176.66666666666669 172.7777777777778 L 176.66666666666669 175.55555555555557 L 175.00000000000003 180.00000000000003 L 173.33333333333334 186.11111111111114 L 172.22222222222223 191.11111111111114 L 172.22222222222223 194.44444444444446 L 172.22222222222223 195.55555555555557 " stroke="black" fill="none" stroke-width="7.0" stroke-linecap="round" stroke-linejoin="round" />
<path d="M 146.11111111111111 188.33333333333334 L 144.44444444444446 188.33333333333334 L 142.7777777777778 188.8888888888889 L 142.7777777777778 188.33333333333334 L 144.44444444444446 187.22222222222223 L 148.8888888888889 186.11111111111114 L 155.55555555555557 185.55555555555557 L 162.7777777777778 184.44444444444446 L 167.7777777777778 184.44444444444446 L 169.44444444444446 185.00000000000003 " stroke="black" fill="none" stroke-width="7.0" stroke-linecap="round" stroke-linejoin="round" />
<path d="M 142.22222222222223 207.7777777777778 L 140.55555555555557 208.33333333333334 L 139.44444444444446 208.33333333333334 L 140.00000000000003 208.33333333333334 L 145.55555555555557 207.22222222222223 L 155.00000000000003 205.00000000000003 L 166.66666666666669 202.7777777777778 L 176.11111111111114 202.7777777777778 " stroke="black" fill="none" stroke-width="7.0" stroke-linecap="round" stroke-linejoin="round" />
</svg>