<svg xmlns="http://www.w3.org/2000/svg" width="300" height="300" viewBox="0 0 300 300">
<path d="M 126.5 118.5 L 126.0 118.5 L 125.0 119.0 L 123.5 119.0 L 123.0 119.0 L 123.0 119.0 L 123.5 118.5 L 126.0 117.5 L 130.0 115.5 L 134.5 113.0 L 138.5 111.0 L 141.5 108.5 L 143.5 107.0 L 143.5 106.5 L 143.5 106.5 L 143.5 107.0 L 143.5 107.5 " stroke="black" fill="none" stroke-width="6.0" stroke-linecap="round" stroke-linejoin="round" />
<path d="M 122.0 129.0 L 121.5 130.0 L 121.5 130.5 L 121.5 130.5 L 124.0 130.0 L 128.5 129.0 L 134.0 128.0 L 138.5 127.0 L 142.5 126.0 L 144.5 125.0 L 145.0 125.0 " stroke="black" fill="none" stroke-width="6.0" stroke-linecap="round" stroke-linejoin="round" />
<path d="M 135.5 114.0 L 135.5 114.0 L 136.0 115.5 L 136.0 116.0 L 136.0 118.0 L 136.0 123.0 L 136.0 131.5 L 135.5 142.0 L 135.5 148.5 L 135.5 150.5 L 135.5 150.5 L 135.5 150.0 " stroke="black" fill="none" stroke-width="6.0" stroke-linecap="round" stroke-linejoin="round" />
<path d="M 132.5 130.0 L 133.0 130.5 L 133.5 131.0 L 133.5 131.0 L 133.5 132.0 L 131.5 135.0 L 128.5 139.0 L 125.5 143.0 L 122.0 146.5 L 120.0 147.5 L 120.0 147.0 " stroke="black" fill="none" stroke-width="6.0" stroke-linecap="round" stroke-linejoin="round" />
<path d="M 140.0 132.5 L 140.0 132.5 L 140.0 133.0 L 140.0 133.5 L 141.5 135.0 L 144.5 137.0 L 147.0 138.5 L 148.0 139.0 " stroke="black" fill="none" stroke-width="6.0" stroke-linecap="round" stroke-linejoin="round" />
<path d="M 159.5 111.0 L 159.5 111.5 L 159.5 112.0 L 159.5 112.5 L 159.5 114.5 L 159.5 119.0 L 159.5 126.0 L 159.5 133.0 L 160.0 137.0 L 161.0 137.5 L 162.0 134.5 " stroke="black" fill="none" stroke-width="6.0" stroke-linecap="round" stroke-linejoin="round" />
<path d="M 165.0 108.0 L 165.0 108.0 L 165.0 109.0 L 165.0 109.0 L 165.5 109.0 L 166.0 109.0 L 167.0 110.5 L 167.5 116.0 L 168.5 124.5 L 169.0 133.0 L 169.5 140.5 L 169.5 145.0 L 169.0 147.0 L 168.0 149.0 L 166.5 149.5 L 165.0 149.5 L 163.5 149.0 L 163.0 148.5 " stroke="black" fill="none" stroke-width="6.0" stroke-linecap="round" stroke-linejoin="round" />
<path d="M 128.5 162.5 L 128.5 162.5 L 128.0 162.5 L 128.0 162.5 L 128.0 162.5 L 132.0 163.0 L 140.5 163.0 L 152.0 163.5 L 162.0 163.5 L 167.0 163.0 L 167.5 162.5 L 166.0 162.0 L 165.0 161.5 " stroke="black" fill="none" stroke-width="6.0" stroke-linecap="round" stroke-linejoin="round" />
<path d="M 148.5 150.5 L 148.5 151.5 L 148.5 152.0 L 148.5 153.0 L 148.5 156.0 L 149.5 163.5 L 149.5 175.5 L 149.0 186.5 L 149.0 192.5 L 149.0 194.5 L 149.5 193.5 " stroke="black" fill="none" stroke-width="6.0" stroke-linecap="round" stroke-linejoin="round" />
<path d="M 141.0 169.5 L 141.0 170.0 L 141.0 170.0 L 140.5 171.0 L 138.5 173.0 L 134.5 177.5 L 130.5 182.5 L 128.0 185.0 L 127.5 185.0 L 128.0 184.0 " stroke="black" fill="none" stroke-width="6.0" stroke-linecap="round" stroke-linejoin="round" />
<path d="M 158.5 173.5 L 159.0 174.0 L 159.5 175.0 L 161.5 176.0 L 165.0 177.5 L 170.0 181.0 L 174.5 184.5 L 177.0 186.5 L 178.5 187.0 " stroke="black" fill="none" stroke-width="6.0" stroke-linecap="round" stroke-linejoin="round" />
</svg>