<svg xmlns="http://www.w3.org/2000/svg" width="300" height="300" viewBox="0 0 300 300">
<path d="M 120.0 127.0 L 119.0 127.0 L 117.5 127.0 L 116.5 127.0 L 116.5 127.0 L 119.0 127.0 L 123.5 127.5 L 129.0 127.5 L 135.5 127.0 L 140.0 126.0 L 141.0 125.0 L 141.0 125.0 " stroke="black" fill="none" stroke-width="7.0" stroke-linecap="round" stroke-linejoin="round" />
<path d="M 127.5 115.5 L 127.5 116.0 L 127.5 118.0 L 127.5 121.5 L 128.5 129.5 L 129.0 141.0 L 128.5 155.0 L 127.5 170.0 L 127.5 181.0 L 127.5 187.5 L 127.5 188.5 L 127.5 186.5 L 127.5 183.5 " stroke="black" fill="none" stroke-width="7.0" stroke-linecap="round" stroke-linejoin="round" />
<path d="M 127.5 133.0 L 127.0 133.0 L 126.0 133.0 L 126.0 133.0 L 126.0 134.0 L 126.0 138.0 L 124.0 147.0 L 120.0 158.5 L 116.5 166.0 L 115.5 168.0 L 116.0 165.5 L 116.5 164.5 " stroke="black" fill="none" stroke-width="7.0" stroke-linecap="round" stroke-linejoin="round" />
<path d="M 129.0 134.5 L 128.5 134.5 L 128.5 134.5 L 130.5 135.5 L 135.0 139.0 L 140.0 144.0 L 143.0 147.5 L 145.0 148.0 " stroke="black" fill="none" stroke-width="7.0" stroke-linecap="round" stroke-linejoin="round" />
<path d="M 156.0 123.5 L 155.0 123.5 L 154.5 123.0 L 154.5 123.0 L 156.0 123.0 L 159.0 123.0 L 162.5 123.0 L 166.5 123.0 L 170.0 123.0 L 173.0 123.5 L 175.5 123.5 L 176.5 124.0 L 176.5 124.0 L 176.0 124.0 L 176.0 124.0 L 175.5 124.0 L 175.0 124.5 L 175.0 124.5 L 174.5 125.5 L 174.0 126.5 L 173.5 130.0 L 172.0 136.0 L 171.0 143.0 L 170.5 147.0 L 170.5 148.5 L 170.5 148.5 L 170.5 148.5 L 170.5 148.5 " stroke="black" fill="none" stroke-width="7.0" stroke-linecap="round" stroke-linejoin="round" />
<path d="M 158.0 138.5 L 158.0 138.5 L 157.0 139.0 L 156.5 139.5 L 157.5 139.5 L 161.0 139.5 L 165.0 138.5 L 168.5 138.0 L 170.5 138.0 L 171.5 138.0 L 171.5 138.5 " stroke="black" fill="none" stroke-width="7.0" stroke-linecap="round" stroke-linejoin="round" />
<path d="M 160.0 152.0 L 160.0 152.0 L 159.0 152.5 L 159.0 152.5 L 159.5 152.5 L 162.0 152.0 L 165.0 151.5 L 167.5 150.0 L 169.0 149.0 " stroke="black" fill="none" stroke-width="7.0" stroke-linecap="round" stroke-linejoin="round" />
<path d="M 153.0 127.0 L 153.0 127.0 L 153.5 127.0 L 154.0 127.0 L 154.0 127.0 L 154.5 127.0 L 154.5 129.0 L 154.5 134.0 L 154.5 141.0 L 154.0 150.0 L 153.0 165.0 L 152.0 175.0 L 151.0 180.5 L 150.0 184.0 L 150.0 186.0 L 149.5 186.5 L 149.5 187.0 L 149.5 187.0 L 149.5 187.0 L 149.5 187.0 L 149.5 187.0 L 150.0 186.5 L 151.0 186.0 L 151.5 185.5 L 152.5 184.5 L 154.0 183.5 L 155.5 182.5 L 156.0 181.5 L 156.5 180.5 L 157.0 180.0 " stroke="black" fill="none" stroke-width="7.0" stroke-linecap="round" stroke-linejoin="round" />
<path d="M 174.0 156.5 L 174.0 156.5 L 174.5 156.5 L 174.5 156.5 L 174.5 156.5 L 174.5 157.0 L 173.5 159.0 L 171.5 161.5 L 170.0 164.5 L 170.0 165.5 " stroke="black" fill="none" stroke-width="7.0" stroke-linecap="round" stroke-linejoin="round" />
<path d="M 160.5 162.0 L 160.5 161.5 L 161.0 161.0 L 161.0 161.0 L 162.5 163.0 L 166.0 170.0 L 170.5 178.0 L 174.5 182.5 L 178.0 183.0 L 178.5 182.5 " stroke="black" fill="none" stroke-width="7.0" stroke-linecap="round" stroke-linejoin="round" />
</svg>