<svg xmlns="http://www.w3.org/2000/svg" width="300" height="300" viewBox="0 0 300 300">
<path d="M 121.5 120.0 L 119.5 120.0 L 118.5 120.5 L 118.5 120.5 L 120.0 120.5 L 123.5 120.5 L 128.5 120.5 L 133.5 121.0 L 139.5 121.0 L 143.0 121.0 L 143.5 121.0 L 143.5 120.5 L 143.5 120.5 " stroke="black" fill="none" stroke-width="8.0" stroke-linecap="round" stroke-linejoin="round" />
<path d="M 131.5 105.5 L 131.5 105.0 L 131.5 104.0 L 131.5 103.5 L 131.5 103.5 L 132.0 106.5 L 132.5 114.0 L 132.5 126.0 L 132.5 140.0 L 132.5 151.5 L 132.0 161.0 L 132.5 168.0 L 132.5 173.0 L 133.0 174.5 L 133.0 175.0 L 133.0 175.0 L 132.5 174.5 L 131.5 173.0 " stroke="black" fill="none" stroke-width="8.0" stroke-linecap="round" stroke-linejoin="round" />
<path d="M 129.0 126.5 L 129.5 125.5 L 130.0 124.5 L 130.5 124.0 L 130.5 124.0 L 130.5 124.5 L 129.0 129.0 L 125.5 136.5 L 121.0 146.5 L 117.5 153.5 L 116.0 154.5 L 116.0 154.0 L 116.0 153.5 " stroke="black" fill="none" stroke-width="8.0" stroke-linecap="round" stroke-linejoin="round" />
<path d="M 134.0 128.5 L 135.0 128.0 L 135.5 128.0 L 136.0 128.0 L 137.5 129.5 L 139.5 132.0 L 142.0 135.0 L 144.0 137.0 L 145.0 137.0 " stroke="black" fill="none" stroke-width="8.0" stroke-linecap="round" stroke-linejoin="round" />
<path d="M 155.0 104.0 L 155.5 103.0 L 156.0 102.0 L 156.0 101.0 L 156.0 101.0 L 156.5 101.0 L 156.5 102.5 L 157.0 107.0 L 157.5 114.0 L 157.5 120.5 L 157.5 124.5 L 157.5 125.0 L 157.0 123.0 " stroke="black" fill="none" stroke-width="8.0" stroke-linecap="round" stroke-linejoin="round" />
<path d="M 156.5 103.5 L 156.5 103.5 L 156.5 103.5 L 157.0 103.5 L 157.0 103.5 L 158.0 103.5 L 159.5 103.0 L 162.0 102.5 L 167.0 102.0 L 172.5 101.5 L 176.5 101.0 L 178.5 101.0 L 179.5 101.0 L 179.5 101.0 L 180.0 101.0 L 180.5 101.0 L 180.5 101.5 L 181.0 101.5 L 181.0 102.0 L 181.0 102.5 L 181.0 104.5 L 181.0 107.0 L 180.0 111.0 L 179.5 116.5 L 179.0 122.0 L 179.0 125.5 L 179.0 126.0 L 179.0 126.0 L 178.5 125.0 " stroke="black" fill="none" stroke-width="8.0" stroke-linecap="round" stroke-linejoin="round" />
<path d="M 163.5 114.5 L 162.0 115.0 L 161.0 115.0 L 161.0 115.0 L 163.0 115.0 L 166.0 115.0 L 169.5 114.5 L 172.0 114.5 L 174.5 114.0 L 176.0 114.0 " stroke="black" fill="none" stroke-width="8.0" stroke-linecap="round" stroke-linejoin="round" />
<path d="M 162.5 125.0 L 162.5 125.0 L 162.5 125.0 L 162.5 125.0 L 164.0 125.0 L 167.5 125.0 L 171.0 125.0 L 174.0 125.0 " stroke="black" fill="none" stroke-width="8.0" stroke-linecap="round" stroke-linejoin="round" />
<path d="M 153.0 137.5 L 153.0 137.5 L 153.0 137.5 L 153.0 137.5 L 153.0 137.5 L 155.0 137.5 L 159.5 137.5 L 167.5 137.5 L 175.0 136.5 L 179.5 135.5 L 180.0 135.5 L 177.5 136.5 " stroke="black" fill="none" stroke-width="8.0" stroke-linecap="round" stroke-linejoin="round" />
<path d="M 153.5 146.0 L 154.0 145.5 L 155.0 145.0 L 155.5 144.5 L 156.0 144.5 L 156.0 144.5 L 155.0 146.5 L 153.5 149.5 L 152.0 153.0 L 151.0 155.0 L 150.0 156.0 " stroke="black" fill="none" stroke-width="8.0" stroke-linecap="round" stroke-linejoin="round" />
<path d="M 154.5 149.5 L 155.5 149.5 L 156.5 149.5 L 158.5 149.5 L 161.0 149.5 L 164.5 149.5 L 169.0 148.0 L 173.0 147.0 L 176.0 146.5 L 178.5 146.5 L 180.0 147.5 L 181.0 148.0 L 181.5 149.0 L 181.5 149.5 L 181.5 150.0 L 181.5 150.5 L 181.5 150.5 L 181.5 151.5 L 181.5 153.0 L 181.5 155.0 L 181.5 158.0 L 180.5 162.5 L 180.0 169.0 L 179.5 175.5 L 178.5 180.5 L 178.0 183.5 L 176.5 184.5 L 174.5 184.5 L 171.5 184.0 L 169.0 182.0 L 167.5 180.0 L 167.5 179.5 " stroke="black" fill="none" stroke-width="8.0" stroke-linecap="round" stroke-linejoin="round" />
<path d="M 163.0 152.0 L 163.0 152.0 L 163.0 152.0 L 163.5 152.0 L 163.5 153.5 L 162.0 157.0 L 158.0 163.0 L 153.5 168.0 L 151.0 170.0 L 150.5 170.0 " stroke="black" fill="none" stroke-width="8.0" stroke-linecap="round" stroke-linejoin="round" />
<path d="M 172.0 152.0 L 172.0 152.0 L 172.0 152.5 L 172.0 153.0 L 172.0 154.0 L 172.5 156.0 L 171.5 161.0 L 167.5 170.0 L 161.5 178.5 L 155.0 183.0 L 151.0 183.0 " stroke="black" fill="none" stroke-width="8.0" stroke-linecap="round" stroke-linejoin="round" />
</svg>