<svg xmlns="http://www.w3.org/2000/svg" width="300" height="300" viewBox="0 0 300 300">
<path d="M 117.0 146.0 L 117.0 145.5 L 117.0 145.0 L 118.5 144.5 L 122.5 143.0 L 128.5 140.5 L 133.5 138.0 L 135.0 136.5 " stroke="black" fill="none" stroke-width="8.0" stroke-linecap="round" stroke-linejoin="round" />
<path d="M 107.0 107.0 L 107.0 106.0 L 107.0 105.5 L 107.5 105.0 L 108.0 105.5 L 110.0 110.5 L 111.5 122.5 L 112.0 143.0 L 111.0 163.5 L 111.0 175.5 L 111.5 181.0 L 112.0 184.0 L 113.5 184.5 L 116.5 183.0 L 121.5 178.5 L 126.5 173.5 L 130.0 169.5 L 131.5 166.0 L 131.5 165.0 " stroke="black" fill="none" stroke-width="8.0" stroke-linecap="round" stroke-linejoin="round" />
<path d="M 174.0 123.5 L 174.5 122.5 L 175.0 122.0 L 175.0 122.0 L 175.0 122.0 L 173.5 125.0 L 170.0 130.0 L 165.0 136.5 L 161.5 140.5 L 160.5 141.5 " stroke="black" fill="none" stroke-width="8.0" stroke-linecap="round" stroke-linejoin="round" />
<path d="M 150.5 106.5 L 149.5 106.0 L 149.0 105.5 L 149.0 105.0 L 150.5 105.0 L 151.5 107.5 L 152.5 114.0 L 152.0 126.0 L 149.0 143.5 L 147.5 159.5 L 148.0 170.5 L 151.5 175.0 L 157.5 177.5 L 165.5 179.0 L 173.5 179.0 L 183.0 178.0 L 190.0 176.0 L 192.5 173.5 L 193.0 170.0 L 192.0 167.0 L 190.5 164.0 L 189.5 161.5 L 189.5 159.5 L 189.5 158.0 L 189.5 156.5 L 189.5 156.5 " stroke="black" fill="none" stroke-width="8.0" stroke-linecap="round" stroke-linejoin="round" />
</svg>