<svg xmlns="http://www.w3.org/2000/svg" width="300" height="300" viewBox="0 0 300 300">
<path d="M 123.0 124.0 L 123.0 124.0 L 122.5 123.5 L 122.0 123.5 L 124.0 123.0 L 128.0 123.0 L 133.5 123.0 L 138.0 123.0 L 141.0 123.0 L 142.5 123.0 L 142.5 123.0 " stroke="black" fill="none" stroke-width="6.0" stroke-linecap="round" stroke-linejoin="round" />
<path d="M 131.5 110.5 L 131.5 111.0 L 131.0 112.0 L 131.0 113.5 L 131.0 116.5 L 132.0 123.5 L 132.0 134.5 L 132.0 147.5 L 132.0 159.0 L 132.0 167.5 L 132.0 171.5 L 132.0 172.0 L 132.0 170.5 L 131.5 170.0 " stroke="black" fill="none" stroke-width="6.0" stroke-linecap="round" stroke-linejoin="round" />
<path d="M 133.5 126.0 L 134.0 126.0 L 134.0 126.5 L 134.0 126.5 L 134.0 127.5 L 132.5 131.0 L 129.5 138.0 L 125.0 146.5 L 122.0 151.5 L 121.0 153.0 L 121.0 152.0 L 121.0 151.5 " stroke="black" fill="none" stroke-width="6.0" stroke-linecap="round" stroke-linejoin="round" />
<path d="M 133.0 132.5 L 133.5 133.0 L 134.0 133.5 L 134.5 134.5 L 136.5 136.5 L 139.0 139.0 L 141.0 141.5 L 142.5 142.5 L 142.5 143.0 " stroke="black" fill="none" stroke-width="6.0" stroke-linecap="round" stroke-linejoin="round" />
<path d="M 154.0 103.0 L 154.0 103.0 L 154.0 103.0 L 154.0 103.0 L 154.0 103.0 L 154.0 103.5 L 154.0 105.0 L 154.5 108.0 L 154.5 111.5 L 154.5 115.0 " stroke="black" fill="none" stroke-width="6.0" stroke-linecap="round" stroke-linejoin="round" />
<path d="M 144.0 110.5 L 143.0 111.5 L 143.0 112.0 L 143.5 111.5 L 146.0 111.0 L 149.0 111.0 L 151.5 110.5 L 152.5 110.5 " stroke="black" fill="none" stroke-width="6.0" stroke-linecap="round" stroke-linejoin="round" />
<path d="M 167.5 102.5 L 167.0 102.5 L 166.5 102.0 L 166.5 102.0 L 166.5 102.5 L 167.0 104.5 L 167.5 108.0 L 168.0 111.5 L 168.0 114.0 L 168.0 114.5 " stroke="black" fill="none" stroke-width="6.0" stroke-linecap="round" stroke-linejoin="round" />
<path d="M 167.5 107.5 L 166.5 108.0 L 166.5 108.0 L 167.0 108.0 L 170.0 108.0 L 173.0 108.0 L 176.0 108.0 L 178.5 107.5 L 179.5 107.5 " stroke="black" fill="none" stroke-width="6.0" stroke-linecap="round" stroke-linejoin="round" />
<path d="M 150.5 123.5 L 150.5 123.5 L 150.5 123.0 L 150.0 122.5 L 149.5 122.5 L 149.5 123.0 L 149.5 125.0 L 150.0 127.0 L 150.0 127.0 " stroke="black" fill="none" stroke-width="6.0" stroke-linecap="round" stroke-linejoin="round" />
<path d="M 150.5 123.0 L 150.5 122.5 L 150.0 122.0 L 150.0 121.5 L 150.5 121.5 L 152.0 121.0 L 154.0 121.0 L 156.0 121.5 L 157.5 122.5 L 159.0 122.5 L 159.5 123.0 L 160.0 124.0 L 160.0 125.5 L 159.5 127.5 L 158.5 128.5 L 158.0 128.5 " stroke="black" fill="none" stroke-width="6.0" stroke-linecap="round" stroke-linejoin="round" />
<path d="M 150.5 129.5 L 150.5 130.5 L 150.0 131.0 L 150.0 131.5 L 151.0 131.5 L 153.0 131.0 L 155.0 131.0 L 157.0 130.5 " stroke="black" fill="none" stroke-width="6.0" stroke-linecap="round" stroke-linejoin="round" />
<path d="M 167.5 123.5 L 167.5 123.0 L 167.0 122.5 L 167.0 122.0 L 167.0 122.0 L 167.0 124.0 L 167.0 126.0 L 167.5 128.5 L 167.5 130.0 " stroke="black" fill="none" stroke-width="6.0" stroke-linecap="round" stroke-linejoin="round" />
<path d="M 167.0 124.0 L 166.5 124.0 L 166.0 124.0 L 166.0 124.0 L 167.0 124.0 L 169.5 124.0 L 172.0 123.5 L 174.5 123.5 L 176.5 123.0 L 178.5 123.0 L 179.0 123.0 L 179.5 123.0 L 179.5 124.0 L 179.5 125.5 L 179.5 127.5 L 179.0 129.5 L 178.5 131.0 L 178.0 131.0 " stroke="black" fill="none" stroke-width="6.0" stroke-linecap="round" stroke-linejoin="round" />
<path d="M 172.5 130.5 L 172.0 131.5 L 172.0 132.5 L 171.5 132.5 L 172.5 132.5 L 174.0 132.0 L 175.5 132.0 L 177.0 132.0 L 177.0 132.0 " stroke="black" fill="none" stroke-width="6.0" stroke-linecap="round" stroke-linejoin="round" />
<path d="M 157.5 137.5 L 158.0 137.5 L 159.0 137.5 L 159.0 137.0 L 159.5 137.0 L 159.5 137.5 L 158.0 139.0 L 155.5 142.0 L 152.0 144.5 L 149.0 146.5 L 147.5 147.5 L 147.0 147.5 " stroke="black" fill="none" stroke-width="6.0" stroke-linecap="round" stroke-linejoin="round" />
<path d="M 152.5 144.0 L 152.5 144.0 L 152.5 144.0 L 153.0 144.0 L 153.5 145.5 L 154.0 149.5 L 155.0 157.5 L 155.0 166.0 L 155.5 171.0 L 156.0 172.5 L 156.0 171.5 " stroke="black" fill="none" stroke-width="6.0" stroke-linecap="round" stroke-linejoin="round" />
<path d="M 167.5 138.5 L 167.0 138.5 L 166.0 138.5 L 166.0 138.5 L 166.0 140.0 L 167.0 142.5 L 168.0 145.0 L 168.5 147.5 L 168.5 149.0 " stroke="black" fill="none" stroke-width="6.0" stroke-linecap="round" stroke-linejoin="round" />
<path d="M 162.5 150.0 L 162.5 150.5 L 162.0 151.0 L 162.0 151.0 L 163.0 151.0 L 165.0 150.5 L 167.5 150.0 L 170.0 149.5 L 171.0 149.0 " stroke="black" fill="none" stroke-width="6.0" stroke-linecap="round" stroke-linejoin="round" />
<path d="M 165.5 162.5 L 165.0 162.5 L 164.5 162.5 L 164.5 162.0 L 165.0 162.0 L 167.0 161.5 L 169.0 161.5 L 171.0 161.0 L 172.0 161.0 " stroke="black" fill="none" stroke-width="6.0" stroke-linecap="round" stroke-linejoin="round" />
<path d="M 167.5 170.0 L 167.5 170.0 L 167.5 170.5 L 167.5 170.5 L 168.5 170.5 L 170.0 170.0 L 171.5 169.5 L 172.0 169.5 " stroke="black" fill="none" stroke-width="6.0" stroke-linecap="round" stroke-linejoin="round" />
<path d="M 168.0 151.0 L 168.0 151.0 L 167.5 152.0 L 167.5 152.5 L 167.5 153.5 L 168.0 156.0 L 168.5 160.5 L 169.0 167.0 L 169.5 172.0 L 169.5 174.5 L 170.0 175.5 " stroke="black" fill="none" stroke-width="6.0" stroke-linecap="round" stroke-linejoin="round" />
<path d="M 165.0 178.5 L 164.5 179.0 L 164.5 179.5 L 164.0 179.5 L 165.0 179.5 L 167.5 179.0 L 171.0 178.5 L 174.5 177.5 L 177.0 177.0 " stroke="black" fill="none" stroke-width="6.0" stroke-linecap="round" stroke-linejoin="round" />
</svg>