<svg xmlns="http://www.w3.org/2000/svg" width="300" height="300" viewBox="0 0 300 300">
<path d="M 108.5 100.5 L 108.5 100.5 L 108.0 100.5 L 107.5 100.5 L 107.0 100.5 L 107.0 100.0 L 109.0 99.5 L 114.0 99.0 L 120.0 98.5 L 126.5 98.0 L 133.0 97.0 L 139.0 96.0 L 142.0 95.0 L 142.5 95.0 L 142.0 95.0 L 141.5 95.5 L 141.0 96.5 L 140.5 97.5 L 140.0 99.0 L 139.0 101.5 L 138.0 105.0 L 137.0 109.0 L 136.0 112.5 L 135.5 114.5 L 135.5 114.5 " stroke="black" fill="none" stroke-width="8.0" stroke-linecap="round" stroke-linejoin="round" />
<path d="M 115.5 121.0 L 114.5 120.5 L 113.0 120.5 L 112.5 120.5 L 113.0 120.5 L 116.5 120.5 L 122.5 120.5 L 128.5 119.0 L 135.5 116.5 L 139.5 115.5 " stroke="black" fill="none" stroke-width="8.0" stroke-linecap="round" stroke-linejoin="round" />
<path d="M 108.5 106.5 L 108.0 106.5 L 107.5 106.5 L 107.5 107.5 L 107.5 109.5 L 108.5 116.0 L 109.0 129.5 L 106.5 148.5 L 102.5 166.5 L 98.5 180.0 L 94.5 189.5 L 92.0 193.0 L 92.0 192.0 L 92.0 191.0 " stroke="black" fill="none" stroke-width="8.0" stroke-linecap="round" stroke-linejoin="round" />
<path d="M 118.5 148.5 L 118.0 148.5 L 117.5 148.5 L 117.0 148.0 L 117.0 148.0 L 117.5 147.5 L 120.0 147.5 L 123.5 147.0 L 128.0 146.5 L 133.0 146.5 L 136.5 146.5 L 138.5 146.5 L 139.0 146.0 L 139.5 146.0 " stroke="black" fill="none" stroke-width="8.0" stroke-linecap="round" stroke-linejoin="round" />
<path d="M 122.5 131.5 L 122.5 131.5 L 122.0 132.0 L 121.5 132.0 L 121.5 133.5 L 122.0 138.5 L 122.5 147.0 L 123.5 155.0 L 124.0 160.0 L 124.5 160.5 " stroke="black" fill="none" stroke-width="8.0" stroke-linecap="round" stroke-linejoin="round" />
<path d="M 130.5 129.5 L 130.5 130.0 L 131.0 131.0 L 131.0 132.0 L 131.0 135.0 L 131.5 141.0 L 131.5 149.5 L 132.0 157.5 L 132.0 161.5 L 132.0 162.5 " stroke="black" fill="none" stroke-width="8.0" stroke-linecap="round" stroke-linejoin="round" />
<path d="M 117.0 166.0 L 117.0 166.0 L 117.0 165.5 L 117.0 165.0 L 119.5 164.5 L 124.0 164.5 L 129.5 164.5 L 135.0 164.0 L 139.0 163.5 L 142.0 163.5 L 142.5 163.5 " stroke="black" fill="none" stroke-width="8.0" stroke-linecap="round" stroke-linejoin="round" />
<path d="M 125.0 176.5 L 124.5 176.5 L 124.5 176.5 L 124.0 176.5 L 122.5 178.0 L 119.5 182.5 L 115.0 188.5 L 112.0 191.0 L 111.5 191.0 L 111.5 190.5 " stroke="black" fill="none" stroke-width="8.0" stroke-linecap="round" stroke-linejoin="round" />
<path d="M 136.5 180.0 L 136.0 180.0 L 136.0 180.0 L 137.5 181.0 L 141.5 182.5 L 145.5 184.0 L 147.5 184.5 " stroke="black" fill="none" stroke-width="8.0" stroke-linecap="round" stroke-linejoin="round" />
<path d="M 159.5 103.0 L 159.5 103.0 L 160.0 103.0 L 160.5 103.0 L 161.0 103.0 L 161.0 103.0 L 161.5 104.5 L 161.5 109.0 L 161.5 118.5 L 160.0 129.0 L 159.0 134.5 L 159.0 134.0 " stroke="black" fill="none" stroke-width="8.0" stroke-linecap="round" stroke-linejoin="round" />
<path d="M 163.5 105.0 L 163.5 105.0 L 162.5 105.0 L 162.0 104.5 L 162.5 104.5 L 164.0 103.5 L 166.5 103.0 L 169.5 102.0 L 172.0 102.0 L 175.0 102.0 L 177.5 103.0 L 179.0 104.0 L 179.5 106.0 L 179.5 109.0 L 178.0 114.0 L 177.5 119.5 L 177.0 124.0 L 177.0 128.0 L 178.0 130.0 L 180.0 131.0 L 183.0 131.0 L 186.0 131.0 L 189.0 130.5 L 190.5 129.0 L 191.0 127.5 " stroke="black" fill="none" stroke-width="8.0" stroke-linecap="round" stroke-linejoin="round" />
<path d="M 162.5 149.5 L 162.5 149.5 L 161.5 149.5 L 161.0 149.5 L 161.5 149.5 L 164.0 149.5 L 168.0 148.5 L 172.0 147.5 L 176.5 146.5 L 180.0 145.0 L 181.5 144.5 L 182.5 144.5 L 182.5 144.5 L 183.0 145.0 L 183.0 146.5 L 183.5 148.5 L 183.5 151.5 L 183.5 155.5 L 182.5 161.5 L 180.5 168.0 L 177.0 174.5 L 172.0 180.0 L 167.0 185.5 L 162.5 190.0 L 161.0 192.0 L 161.0 192.0 L 161.5 191.5 " stroke="black" fill="none" stroke-width="8.0" stroke-linecap="round" stroke-linejoin="round" />
<path d="M 163.5 163.5 L 163.0 163.0 L 162.5 162.5 L 163.5 162.5 L 166.5 163.5 L 171.0 166.5 L 178.5 171.0 L 188.0 176.5 L 196.5 183.5 L 201.5 188.0 L 203.0 189.5 L 203.0 189.5 " stroke="black" fill="none" stroke-width="8.0" stroke-linecap="round" stroke-linejoin="round" />
</svg>