<svg xmlns="http://www.w3.org/2000/svg" width="300" height="300" viewBox="0 0 300 300">
<path d="M 119.5 121.0 L 118.5 121.0 L 118.0 121.0 L 118.0 121.5 L 119.0 122.5 L 121.5 124.5 L 124.0 126.5 L 126.0 128.5 L 126.5 128.5 " stroke="black" fill="none" stroke-width="6.0" stroke-linecap="round" stroke-linejoin="round" />
<path d="M 119.5 141.5 L 119.5 141.5 L 119.0 141.5 L 119.0 141.5 L 120.5 142.5 L 122.5 144.0 L 124.5 146.5 L 126.5 148.5 L 127.5 150.0 " stroke="black" fill="none" stroke-width="6.0" stroke-linecap="round" stroke-linejoin="round" />
<path d="M 117.5 184.0 L 118.0 185.0 L 118.0 186.0 L 118.5 186.0 L 119.0 185.0 L 120.0 182.0 L 122.0 177.5 L 124.0 172.5 L 127.0 168.5 " stroke="black" fill="none" stroke-width="6.0" stroke-linecap="round" stroke-linejoin="round" />
<path d="M 136.0 130.0 L 135.0 130.5 L 135.0 131.0 L 134.5 131.0 L 137.0 131.0 L 142.5 130.0 L 150.5 128.5 L 158.5 127.0 L 165.5 126.0 L 168.5 125.5 L 168.5 125.0 L 168.0 125.0 " stroke="black" fill="none" stroke-width="6.0" stroke-linecap="round" stroke-linejoin="round" />
<path d="M 153.5 113.0 L 153.5 113.0 L 153.5 112.5 L 153.0 112.0 L 153.0 112.0 L 153.0 113.5 L 153.0 119.5 L 153.5 129.0 L 153.5 141.0 L 153.0 151.5 L 153.0 161.0 L 152.5 169.5 L 152.5 176.0 L 153.0 179.5 L 153.0 179.5 L 153.0 179.0 L 152.5 175.5 " stroke="black" fill="none" stroke-width="6.0" stroke-linecap="round" stroke-linejoin="round" />
<path d="M 149.0 131.5 L 149.0 132.0 L 149.0 132.5 L 149.0 133.0 L 149.0 133.0 L 149.5 134.0 L 149.5 137.5 L 148.0 144.5 L 143.0 154.0 L 137.0 162.5 L 135.0 166.5 L 135.0 167.5 " stroke="black" fill="none" stroke-width="6.0" stroke-linecap="round" stroke-linejoin="round" />
<path d="M 154.0 137.5 L 154.0 137.5 L 154.0 137.0 L 154.0 137.0 L 154.0 137.0 L 156.0 141.0 L 161.5 148.5 L 168.0 157.0 L 173.0 162.0 L 176.0 163.0 L 177.0 163.0 " stroke="black" fill="none" stroke-width="6.0" stroke-linecap="round" stroke-linejoin="round" />
</svg>