<svg xmlns="http://www.w3.org/2000/svg" width="300" height="300" viewBox="0 0 300 300">
<path d="M 77.77777777777777 85.55555555555556 L 77.77777777777777 86.66666666666667 L 79.44444444444444 88.88888888888889 L 83.88888888888889 92.77777777777777 L 92.22222222222223 98.88888888888889 L 100.0 105.0 L 105.0 108.33333333333333 L 106.11111111111111 108.33333333333333 " stroke="black" fill="none" stroke-width="12.0" stroke-linecap="round" stroke-linejoin="round" />
<path d="M 74.44444444444444 132.7777777777778 L 73.33333333333333 133.33333333333334 L 73.88888888888889 134.44444444444446 L 80.55555555555556 139.44444444444446 L 92.22222222222223 147.22222222222223 L 100.55555555555556 153.33333333333334 L 105.55555555555556 155.55555555555557 L 106.66666666666667 156.66666666666669 " stroke="black" fill="none" stroke-width="12.0" stroke-linecap="round" stroke-linejoin="round" />
<path d="M 73.33333333333333 237.22222222222226 L 73.33333333333333 235.00000000000003 L 73.88888888888889 230.00000000000003 L 80.0 219.44444444444446 L 90.0 206.66666666666669 L 98.33333333333333 198.33333333333334 L 101.66666666666667 194.44444444444446 " stroke="black" fill="none" stroke-width="12.0" stroke-linecap="round" stroke-linejoin="round" />
<path d="M 126.1111111111111 90.0 L 125.00000000000001 90.0 L 123.8888888888889 90.0 L 123.8888888888889 90.0 L 127.22222222222221 90.0 L 133.8888888888889 90.55555555555556 L 143.33333333333334 90.55555555555556 L 157.7777777777778 90.55555555555556 L 174.44444444444446 90.55555555555556 L 191.66666666666669 90.55555555555556 L 202.22222222222223 90.55555555555556 L 208.8888888888889 91.66666666666667 L 211.66666666666669 92.77777777777777 L 212.22222222222223 92.77777777777777 L 211.66666666666669 92.77777777777777 L 211.66666666666669 91.66666666666667 L 210.55555555555557 91.11111111111111 " stroke="black" fill="none" stroke-width="12.0" stroke-linecap="round" stroke-linejoin="round" />
<path d="M 133.8888888888889 131.66666666666669 L 133.8888888888889 131.11111111111111 L 133.8888888888889 130.55555555555557 L 134.44444444444446 130.00000000000003 L 134.44444444444446 130.00000000000003 L 135.00000000000003 132.7777777777778 L 135.55555555555557 143.8888888888889 L 136.11111111111111 162.22222222222223 L 135.55555555555557 177.22222222222223 L 135.55555555555557 180.55555555555557 L 136.66666666666669 178.8888888888889 L 136.66666666666669 177.7777777777778 " stroke="black" fill="none" stroke-width="12.0" stroke-linecap="round" stroke-linejoin="round" />
<path d="M 133.8888888888889 136.11111111111111 L 133.8888888888889 136.11111111111111 L 133.33333333333334 136.11111111111111 L 132.7777777777778 136.11111111111111 L 133.8888888888889 135.00000000000003 L 140.00000000000003 132.7777777777778 L 150.00000000000003 130.00000000000003 L 163.33333333333334 128.8888888888889 L 172.7777777777778 130.55555555555557 L 176.66666666666669 135.00000000000003 L 176.66666666666669 140.55555555555557 L 175.00000000000003 146.66666666666669 L 173.33333333333334 154.44444444444446 L 172.7777777777778 162.22222222222223 L 171.11111111111114 170.00000000000003 L 170.00000000000003 176.66666666666669 L 168.8888888888889 179.44444444444446 L 168.8888888888889 177.7777777777778 " stroke="black" fill="none" stroke-width="12.0" stroke-linecap="round" stroke-linejoin="round" />
<path d="M 135.00000000000003 187.7777777777778 L 135.00000000000003 187.7777777777778 L 134.44444444444446 187.22222222222223 L 136.11111111111111 186.66666666666669 L 142.7777777777778 184.44444444444446 L 152.7777777777778 183.33333333333334 L 162.7777777777778 182.7777777777778 L 170.55555555555557 182.22222222222223 L 175.55555555555557 180.00000000000003 " stroke="black" fill="none" stroke-width="12.0" stroke-linecap="round" stroke-linejoin="round" />
<path d="M 198.33333333333334 93.88888888888889 L 197.7777777777778 93.33333333333333 L 197.22222222222223 93.33333333333333 L 197.22222222222223 92.77777777777777 L 197.7777777777778 95.55555555555556 L 198.8888888888889 103.33333333333333 L 199.44444444444446 118.8888888888889 L 199.44444444444446 138.8888888888889 L 198.8888888888889 157.7777777777778 L 198.8888888888889 173.33333333333334 L 199.44444444444446 188.33333333333334 L 199.44444444444446 202.7777777777778 L 199.44444444444446 215.55555555555557 L 199.44444444444446 225.00000000000003 L 198.8888888888889 230.00000000000003 L 197.22222222222223 232.7777777777778 L 194.44444444444446 233.33333333333334 L 189.44444444444446 231.11111111111114 L 183.33333333333334 227.7777777777778 L 179.44444444444446 225.55555555555557 L 178.33333333333334 225.00000000000003 " stroke="black" fill="none" stroke-width="12.0" stroke-linecap="round" stroke-linejoin="round" />
</svg>