<svg xmlns="http://www.w3.org/2000/svg" width="300" height="300" viewBox="0 0 300 300">
<path d="M 120.0 119.5 L 119.5 119.5 L 119.5 119.5 L 119.5 120.0 L 121.5 123.0 L 124.0 126.0 L 126.5 128.5 L 128.0 130.5 L 128.0 131.0 " stroke="black" fill="none" stroke-width="6.0" stroke-linecap="round" stroke-linejoin="round" />
<path d="M 121.5 147.0 L 120.5 147.5 L 120.0 147.5 L 120.0 148.0 L 121.5 149.0 L 123.5 151.0 L 126.0 153.5 L 127.5 155.5 " stroke="black" fill="none" stroke-width="6.0" stroke-linecap="round" stroke-linejoin="round" />
<path d="M 115.0 184.5 L 115.0 185.0 L 115.5 185.0 L 116.0 185.5 L 117.0 183.5 L 119.0 179.5 L 120.5 175.5 L 123.0 171.5 L 124.5 170.0 " stroke="black" fill="none" stroke-width="6.0" stroke-linecap="round" stroke-linejoin="round" />
<path d="M 149.5 116.0 L 149.0 116.0 L 148.5 116.0 L 148.5 116.0 L 148.5 116.0 L 150.0 117.5 L 152.0 119.5 L 154.5 121.5 L 156.0 123.0 " stroke="black" fill="none" stroke-width="6.0" stroke-linecap="round" stroke-linejoin="round" />
<path d="M 138.5 129.0 L 138.5 129.5 L 138.5 130.0 L 138.0 130.5 L 137.5 132.0 L 137.0 134.5 L 137.0 137.5 L 137.0 138.0 " stroke="black" fill="none" stroke-width="6.0" stroke-linecap="round" stroke-linejoin="round" />
<path d="M 140.5 130.0 L 139.5 130.0 L 139.5 130.0 L 141.0 130.0 L 151.0 129.0 L 158.5 128.5 L 166.5 128.0 L 173.0 127.5 L 177.0 127.5 L 178.0 127.5 L 178.0 127.5 L 177.5 128.0 L 177.0 129.0 L 176.0 130.0 L 175.5 132.0 L 174.5 134.0 L 174.0 136.5 L 173.5 139.0 " stroke="black" fill="none" stroke-width="6.0" stroke-linecap="round" stroke-linejoin="round" />
<path d="M 145.5 144.0 L 145.0 143.5 L 144.0 143.0 L 144.0 142.5 L 145.5 142.5 L 149.0 142.5 L 153.0 142.5 L 157.0 142.5 L 160.5 142.5 L 162.0 142.5 " stroke="black" fill="none" stroke-width="6.0" stroke-linecap="round" stroke-linejoin="round" />
<path d="M 140.5 153.5 L 140.5 154.5 L 140.0 155.5 L 140.0 155.5 L 143.0 155.0 L 148.5 154.5 L 154.5 154.0 L 161.0 153.0 L 165.5 152.5 L 167.0 152.5 L 167.0 152.5 " stroke="black" fill="none" stroke-width="6.0" stroke-linecap="round" stroke-linejoin="round" />
<path d="M 152.0 153.5 L 152.0 154.0 L 151.5 154.0 L 151.5 154.5 L 151.5 156.5 L 151.5 163.5 L 151.5 176.0 L 151.0 186.0 L 151.0 190.5 L 151.0 191.0 L 150.5 188.5 " stroke="black" fill="none" stroke-width="6.0" stroke-linecap="round" stroke-linejoin="round" />
<path d="M 145.0 167.0 L 145.0 167.0 L 145.0 166.5 L 145.0 166.0 L 145.0 166.0 L 144.0 166.5 L 142.0 170.5 L 138.0 177.0 L 135.0 182.0 L 134.0 183.0 L 134.5 182.5 " stroke="black" fill="none" stroke-width="6.0" stroke-linecap="round" stroke-linejoin="round" />
<path d="M 165.5 170.0 L 165.5 170.0 L 165.0 171.0 L 165.0 171.5 L 166.0 172.0 L 168.5 173.5 L 171.5 175.5 L 176.0 177.0 L 179.5 177.5 " stroke="black" fill="none" stroke-width="6.0" stroke-linecap="round" stroke-linejoin="round" />
</svg>