<svg xmlns="http://www.w3.org/2000/svg" width="300" height="300" viewBox="0 0 300 300">
<path d="M 114.0 111.5 L 114.0 112.0 L 114.5 113.0 L 115.0 113.5 L 116.0 114.5 L 118.0 117.0 L 120.5 120.5 L 122.5 123.5 L 123.5 125.0 L 124.0 125.0 " stroke="black" fill="none" stroke-width="8.0" stroke-linecap="round" stroke-linejoin="round" />
<path d="M 114.0 139.5 L 114.0 139.5 L 114.0 140.0 L 114.5 140.0 L 115.0 140.5 L 116.0 142.0 L 118.5 145.0 L 120.5 147.5 L 122.5 149.0 " stroke="black" fill="none" stroke-width="8.0" stroke-linecap="round" stroke-linejoin="round" />
<path d="M 112.5 181.0 L 112.5 181.0 L 112.5 180.0 L 113.0 179.0 L 114.0 178.0 L 116.0 176.0 L 119.0 172.5 L 122.5 168.5 L 125.0 165.0 " stroke="black" fill="none" stroke-width="8.0" stroke-linecap="round" stroke-linejoin="round" />
<path d="M 146.0 108.5 L 146.0 108.5 L 146.0 109.0 L 146.0 109.0 L 146.0 109.5 L 146.0 111.0 L 146.0 116.0 L 146.0 124.5 L 145.5 133.0 L 145.5 136.0 L 146.5 134.0 " stroke="black" fill="none" stroke-width="8.0" stroke-linecap="round" stroke-linejoin="round" />
<path d="M 148.0 121.5 L 147.5 121.5 L 147.0 121.0 L 147.0 121.0 L 148.5 120.5 L 151.0 120.5 L 153.5 120.0 L 155.5 120.0 L 156.5 120.0 " stroke="black" fill="none" stroke-width="8.0" stroke-linecap="round" stroke-linejoin="round" />
<path d="M 135.5 142.5 L 135.5 142.5 L 135.5 142.5 L 135.5 142.0 L 136.5 142.0 L 139.0 141.5 L 145.0 140.0 L 153.5 138.5 L 160.5 137.5 L 163.5 137.5 L 163.5 137.5 " stroke="black" fill="none" stroke-width="8.0" stroke-linecap="round" stroke-linejoin="round" />
<path d="M 149.0 145.0 L 149.0 145.0 L 149.0 144.5 L 149.0 144.0 L 149.0 143.5 L 149.0 143.5 L 149.5 144.0 L 150.5 148.0 L 151.0 156.5 L 151.0 168.0 L 150.5 178.5 L 150.5 185.0 L 150.0 187.0 L 149.5 187.5 L 148.5 187.0 L 146.5 185.5 L 144.0 183.5 L 142.5 182.5 L 141.5 181.0 L 141.5 179.5 " stroke="black" fill="none" stroke-width="8.0" stroke-linecap="round" stroke-linejoin="round" />
<path d="M 140.5 160.5 L 140.0 160.5 L 139.0 161.0 L 138.0 162.0 L 136.5 164.0 L 135.5 165.5 L 135.0 166.5 L 134.5 167.0 " stroke="black" fill="none" stroke-width="8.0" stroke-linecap="round" stroke-linejoin="round" />
<path d="M 160.0 154.5 L 160.0 155.5 L 160.0 156.0 L 160.0 156.5 L 162.0 157.5 L 164.0 159.0 L 166.0 160.5 L 166.5 161.0 " stroke="black" fill="none" stroke-width="8.0" stroke-linecap="round" stroke-linejoin="round" />
<path d="M 171.0 120.5 L 170.5 120.5 L 170.0 120.0 L 169.5 119.5 L 170.5 119.5 L 174.0 119.0 L 178.5 118.0 L 182.5 117.5 L 185.5 117.0 L 186.5 117.0 L 187.0 117.0 L 187.0 118.0 L 187.0 119.5 L 187.0 122.5 L 187.0 127.5 L 186.0 136.5 L 184.0 149.0 L 181.0 163.0 L 178.0 173.5 L 175.5 180.5 L 174.0 184.5 L 173.5 185.5 L 173.5 185.5 L 173.5 184.0 " stroke="black" fill="none" stroke-width="8.0" stroke-linecap="round" stroke-linejoin="round" />
<path d="M 172.5 134.5 L 172.5 134.5 L 172.5 134.5 L 172.5 135.0 L 172.5 136.0 L 176.5 142.5 L 185.0 155.5 L 192.5 169.0 L 197.0 174.5 L 198.0 174.0 L 198.0 172.0 " stroke="black" fill="none" stroke-width="8.0" stroke-linecap="round" stroke-linejoin="round" />
</svg>