<svg xmlns="http://www.w3.org/2000/svg" width="300" height="300" viewBox="0 0 300 300">
<path d="M 115.55555555555556 117.77777777777779 L 116.1111111111111 117.22222222222221 L 116.1111111111111 117.22222222222221 L 116.66666666666667 116.66666666666667 L 117.77777777777779 117.22222222222221 L 120.55555555555556 120.55555555555556 L 123.8888888888889 125.55555555555556 L 126.1111111111111 129.44444444444446 L 127.22222222222221 131.11111111111111 " stroke="black" fill="none" stroke-width="7.0" stroke-linecap="round" stroke-linejoin="round" />
<path d="M 118.33333333333333 141.66666666666669 L 117.22222222222221 141.66666666666669 L 116.66666666666667 141.66666666666669 L 116.66666666666667 141.66666666666669 L 119.44444444444444 144.44444444444446 L 122.22222222222221 148.8888888888889 L 124.44444444444444 153.8888888888889 L 126.1111111111111 158.33333333333334 L 126.1111111111111 158.8888888888889 " stroke="black" fill="none" stroke-width="7.0" stroke-linecap="round" stroke-linejoin="round" />
<path d="M 120.55555555555556 191.11111111111114 L 120.00000000000001 190.55555555555557 L 118.33333333333333 189.44444444444446 L 118.33333333333333 187.7777777777778 L 120.55555555555556 183.8888888888889 L 124.44444444444444 177.22222222222223 L 128.8888888888889 171.66666666666669 L 131.66666666666669 170.00000000000003 L 132.22222222222223 169.44444444444446 " stroke="black" fill="none" stroke-width="7.0" stroke-linecap="round" stroke-linejoin="round" />
<path d="M 150.55555555555557 118.33333333333333 L 150.55555555555557 118.33333333333333 L 150.00000000000003 118.33333333333333 L 149.44444444444446 118.33333333333333 L 148.8888888888889 118.33333333333333 L 148.33333333333334 118.33333333333333 L 148.33333333333334 118.33333333333333 L 147.7777777777778 118.33333333333333 L 147.7777777777778 118.33333333333333 L 148.8888888888889 117.77777777777779 L 152.22222222222223 117.77777777777779 L 157.7777777777778 117.77777777777779 L 166.66666666666669 117.77777777777779 L 176.11111111111114 116.66666666666667 L 183.8888888888889 116.1111111111111 L 187.7777777777778 116.1111111111111 L 189.44444444444446 116.1111111111111 L 190.00000000000003 116.1111111111111 L 190.55555555555557 116.1111111111111 L 191.11111111111114 116.1111111111111 L 191.66666666666669 116.1111111111111 L 191.66666666666669 116.1111111111111 L 192.22222222222223 116.1111111111111 L 192.22222222222223 115.55555555555556 L 192.7777777777778 115.55555555555556 L 192.7777777777778 115.55555555555556 L 192.7777777777778 115.55555555555556 L 192.7777777777778 115.55555555555556 L 192.7777777777778 115.55555555555556 L 192.7777777777778 115.55555555555556 " stroke="black" fill="none" stroke-width="7.0" stroke-linecap="round" stroke-linejoin="round" />
<path d="M 148.33333333333334 119.44444444444444 L 147.7777777777778 119.44444444444444 L 147.22222222222223 118.8888888888889 L 147.22222222222223 118.8888888888889 L 146.66666666666669 118.33333333333333 L 146.66666666666669 118.33333333333333 L 146.66666666666669 118.33333333333333 L 147.22222222222223 120.00000000000001 L 147.7777777777778 122.77777777777779 L 147.7777777777778 128.33333333333334 L 147.7777777777778 136.66666666666669 L 147.22222222222223 147.7777777777778 L 146.11111111111111 158.33333333333334 L 144.44444444444446 169.44444444444446 L 142.22222222222223 178.8888888888889 L 140.00000000000003 185.00000000000003 L 137.7777777777778 187.22222222222223 L 135.55555555555557 187.22222222222223 L 135.00000000000003 186.66666666666669 L 134.44444444444446 185.55555555555557 " stroke="black" fill="none" stroke-width="7.0" stroke-linecap="round" stroke-linejoin="round" />
<path d="M 171.66666666666669 103.33333333333333 L 171.11111111111114 103.33333333333333 L 170.00000000000003 103.33333333333333 L 170.00000000000003 103.33333333333333 L 170.55555555555557 105.0 L 172.7777777777778 109.44444444444444 L 175.55555555555557 117.22222222222221 L 178.8888888888889 128.8888888888889 L 183.33333333333334 143.8888888888889 L 189.44444444444446 157.7777777777778 L 195.00000000000003 165.55555555555557 L 200.00000000000003 171.11111111111114 L 205.00000000000003 175.00000000000003 L 207.22222222222223 176.66666666666669 L 208.33333333333334 177.22222222222223 L 208.33333333333334 175.00000000000003 L 208.33333333333334 172.7777777777778 L 208.33333333333334 170.55555555555557 L 207.7777777777778 168.8888888888889 L 207.22222222222223 168.8888888888889 " stroke="black" fill="none" stroke-width="7.0" stroke-linecap="round" stroke-linejoin="round" />
<path d="M 197.22222222222223 150.55555555555557 L 197.22222222222223 150.55555555555557 L 195.55555555555557 150.55555555555557 L 195.00000000000003 150.55555555555557 L 195.00000000000003 150.55555555555557 L 195.00000000000003 150.55555555555557 L 195.00000000000003 150.55555555555557 L 195.55555555555557 150.55555555555557 L 195.55555555555557 151.11111111111111 L 195.55555555555557 152.7777777777778 L 194.44444444444446 157.22222222222223 L 191.66666666666669 164.44444444444446 L 187.7777777777778 172.22222222222223 L 185.00000000000003 177.22222222222223 L 183.33333333333334 177.7777777777778 L 183.33333333333334 177.22222222222223 " stroke="black" fill="none" stroke-width="7.0" stroke-linecap="round" stroke-linejoin="round" />
<path d="M 157.22222222222223 138.33333333333334 L 157.22222222222223 137.7777777777778 L 157.22222222222223 137.22222222222223 L 157.22222222222223 136.66666666666669 L 158.33333333333334 136.66666666666669 L 161.11111111111111 136.11111111111111 L 165.00000000000003 135.55555555555557 L 168.33333333333334 135.55555555555557 L 171.11111111111114 135.55555555555557 L 171.66666666666669 135.55555555555557 " stroke="black" fill="none" stroke-width="7.0" stroke-linecap="round" stroke-linejoin="round" />
<path d="M 165.55555555555557 140.55555555555557 L 165.55555555555557 140.55555555555557 L 165.00000000000003 140.00000000000003 L 165.00000000000003 140.00000000000003 L 165.00000000000003 140.00000000000003 L 165.00000000000003 141.11111111111111 L 165.55555555555557 143.8888888888889 L 166.11111111111114 148.8888888888889 L 164.44444444444446 160.00000000000003 L 161.11111111111111 173.33333333333334 L 156.66666666666669 183.8888888888889 L 155.00000000000003 187.22222222222223 L 153.8888888888889 186.11111111111114 L 153.33333333333334 184.44444444444446 " stroke="black" fill="none" stroke-width="7.0" stroke-linecap="round" stroke-linejoin="round" />
<path d="M 161.66666666666669 175.55555555555557 L 162.22222222222223 175.55555555555557 L 163.8888888888889 175.00000000000003 L 165.55555555555557 174.44444444444446 L 167.7777777777778 174.44444444444446 L 170.00000000000003 175.00000000000003 L 172.22222222222223 176.66666666666669 L 174.44444444444446 178.8888888888889 L 175.00000000000003 179.44444444444446 " stroke="black" fill="none" stroke-width="7.0" stroke-linecap="round" stroke-linejoin="round" />
<path d="M 151.11111111111111 154.44444444444446 L 151.11111111111111 155.55555555555557 L 150.55555555555557 156.66666666666669 L 150.55555555555557 158.33333333333334 L 152.7777777777778 160.55555555555557 L 155.00000000000003 161.66666666666669 L 156.11111111111111 161.66666666666669 " stroke="black" fill="none" stroke-width="7.0" stroke-linecap="round" stroke-linejoin="round" />
<path d="M 177.7777777777778 148.8888888888889 L 177.7777777777778 149.44444444444446 L 177.22222222222223 150.55555555555557 L 176.11111111111114 152.7777777777778 L 174.44444444444446 156.66666666666669 L 173.33333333333334 160.55555555555557 L 173.33333333333334 161.66666666666669 " stroke="black" fill="none" stroke-width="7.0" stroke-linecap="round" stroke-linejoin="round" />
<path d="M 186.66666666666669 96.66666666666667 L 186.66666666666669 97.22222222222223 L 187.22222222222223 98.88888888888889 L 189.44444444444446 100.55555555555556 L 192.22222222222223 102.22222222222223 L 192.7777777777778 102.77777777777777 " stroke="black" fill="none" stroke-width="7.0" stroke-linecap="round" stroke-linejoin="round" />
</svg>