<svg xmlns="http://www.w3.org/2000/svg" width="300" height="300" viewBox="0 0 300 300">
<path d="M 117.0 113.0 L 116.5 113.5 L 116.0 114.0 L 116.0 114.0 L 117.5 115.5 L 120.5 118.5 L 123.5 122.0 L 126.0 125.0 L 127.5 126.5 L 127.5 126.5 " stroke="black" fill="none" stroke-width="7.0" stroke-linecap="round" stroke-linejoin="round" />
<path d="M 117.5 142.5 L 116.5 142.0 L 116.0 141.5 L 116.0 141.5 L 117.5 143.5 L 119.5 147.0 L 122.0 151.0 L 124.0 155.0 L 126.0 158.5 " stroke="black" fill="none" stroke-width="7.0" stroke-linecap="round" stroke-linejoin="round" />
<path d="M 118.5 191.0 L 116.0 190.5 L 115.5 190.5 L 116.0 189.5 L 118.0 186.5 L 121.0 182.5 L 124.0 179.0 L 127.5 175.5 L 130.0 173.0 " stroke="black" fill="none" stroke-width="7.0" stroke-linecap="round" stroke-linejoin="round" />
<path d="M 147.5 115.0 L 145.0 115.0 L 144.5 115.0 L 144.5 115.0 L 144.5 115.0 L 147.0 115.0 L 152.0 114.5 L 159.5 113.5 L 169.0 111.5 L 176.5 110.0 L 179.5 110.0 L 179.5 110.0 L 177.5 110.0 L 176.5 110.5 " stroke="black" fill="none" stroke-width="7.0" stroke-linecap="round" stroke-linejoin="round" />
<path d="M 144.0 119.0 L 144.0 118.5 L 143.0 117.0 L 143.0 116.0 L 143.0 115.5 L 143.0 115.5 L 143.5 118.0 L 143.5 124.0 L 144.0 135.0 L 143.0 151.0 L 141.5 168.0 L 140.0 181.0 L 138.5 188.0 L 138.0 191.0 L 137.5 191.5 L 137.5 191.0 L 137.5 190.5 " stroke="black" fill="none" stroke-width="7.0" stroke-linecap="round" stroke-linejoin="round" />
<path d="M 164.5 124.5 L 164.5 124.0 L 164.5 122.5 L 164.5 121.5 L 164.5 121.0 L 164.5 121.0 L 164.5 122.0 L 164.0 124.5 L 164.0 126.5 L 164.0 128.5 " stroke="black" fill="none" stroke-width="7.0" stroke-linecap="round" stroke-linejoin="round" />
<path d="M 153.0 134.5 L 153.0 135.0 L 153.0 135.0 L 153.0 135.5 L 153.0 137.0 L 153.5 140.5 L 153.5 145.5 L 154.0 149.5 L 155.0 151.5 L 155.0 151.5 " stroke="black" fill="none" stroke-width="7.0" stroke-linecap="round" stroke-linejoin="round" />
<path d="M 155.5 135.0 L 155.5 135.5 L 155.0 136.0 L 155.0 136.0 L 155.0 136.0 L 156.5 136.0 L 160.5 135.0 L 166.5 133.5 L 178.5 131.0 L 181.5 131.0 L 182.0 131.0 L 181.5 131.5 L 181.0 132.5 L 180.5 135.0 L 180.0 140.0 L 179.0 145.5 L 178.5 149.5 L 178.5 152.0 L 178.5 152.0 " stroke="black" fill="none" stroke-width="7.0" stroke-linecap="round" stroke-linejoin="round" />
<path d="M 159.0 145.0 L 159.0 145.0 L 158.0 145.0 L 157.5 145.0 L 157.5 145.0 L 159.5 144.5 L 162.5 144.0 L 166.5 143.0 L 169.5 142.5 L 172.0 142.0 L 172.5 142.0 " stroke="black" fill="none" stroke-width="7.0" stroke-linecap="round" stroke-linejoin="round" />
<path d="M 158.5 155.5 L 158.0 156.0 L 157.0 156.5 L 156.5 156.5 L 156.5 156.5 L 157.5 156.0 L 161.0 155.5 L 165.5 155.0 L 169.5 154.0 L 172.5 153.5 L 173.5 153.0 " stroke="black" fill="none" stroke-width="7.0" stroke-linecap="round" stroke-linejoin="round" />
<path d="M 167.0 158.0 L 166.5 158.0 L 166.0 158.5 L 165.5 158.5 L 165.5 161.0 L 166.5 166.0 L 166.5 174.5 L 166.5 183.0 L 166.5 189.0 L 166.5 192.5 L 165.5 193.0 L 164.0 193.0 L 162.0 192.0 L 159.5 191.0 L 158.0 190.5 L 158.0 189.5 L 158.0 189.0 " stroke="black" fill="none" stroke-width="7.0" stroke-linecap="round" stroke-linejoin="round" />
<path d="M 154.5 171.0 L 154.0 172.5 L 152.5 174.0 L 151.5 176.0 L 150.0 179.0 L 148.5 182.0 L 148.0 183.0 L 148.0 183.0 " stroke="black" fill="none" stroke-width="7.0" stroke-linecap="round" stroke-linejoin="round" />
<path d="M 181.0 171.5 L 181.5 171.5 L 182.5 171.5 L 183.0 172.0 L 184.5 172.5 L 188.0 175.0 L 192.5 177.5 L 196.0 179.5 " stroke="black" fill="none" stroke-width="7.0" stroke-linecap="round" stroke-linejoin="round" />
</svg>