<svg xmlns="http://www.w3.org/2000/svg" width="300" height="300" viewBox="0 0 300 300">
<path d="M 114.5 115.0 L 114.5 115.0 L 114.5 115.5 L 114.5 116.0 L 114.5 116.0 L 115.5 117.0 L 118.0 118.5 L 120.5 121.0 L 123.0 123.5 L 124.0 124.5 " stroke="black" fill="none" stroke-width="6.0" stroke-linecap="round" stroke-linejoin="round" />
<path d="M 118.5 142.0 L 118.5 143.5 L 118.0 144.0 L 118.0 144.0 L 119.0 144.5 L 121.5 146.0 L 124.0 149.0 L 126.0 152.0 L 127.0 154.5 " stroke="black" fill="none" stroke-width="6.0" stroke-linecap="round" stroke-linejoin="round" />
<path d="M 115.0 190.0 L 115.0 191.0 L 115.0 191.0 L 116.0 188.0 L 119.0 182.5 L 123.5 175.5 L 127.0 170.0 " stroke="black" fill="none" stroke-width="6.0" stroke-linecap="round" stroke-linejoin="round" />
<path d="M 141.0 112.5 L 140.0 112.5 L 139.0 112.5 L 138.5 112.5 L 138.5 112.5 L 140.5 111.5 L 145.0 110.5 L 152.0 109.5 L 162.0 107.5 L 179.0 105.0 L 182.5 105.0 L 183.0 105.0 L 183.0 105.0 L 182.0 105.5 L 181.5 106.5 L 181.0 108.0 L 180.0 110.0 L 179.0 113.0 L 178.5 115.5 L 177.5 118.0 L 177.5 120.0 L 177.5 121.0 " stroke="black" fill="none" stroke-width="6.0" stroke-linecap="round" stroke-linejoin="round" />
<path d="M 142.5 127.5 L 141.0 128.0 L 140.0 128.0 L 140.5 128.0 L 144.0 127.0 L 149.5 125.5 L 156.5 125.0 L 165.0 124.0 L 173.5 123.0 L 178.5 121.5 " stroke="black" fill="none" stroke-width="6.0" stroke-linecap="round" stroke-linejoin="round" />
<path d="M 139.0 117.0 L 139.0 117.0 L 139.5 117.0 L 139.5 117.0 L 140.0 118.0 L 141.0 122.0 L 142.0 129.5 L 143.0 140.5 L 143.0 153.5 L 143.0 166.5 L 142.0 178.5 L 140.5 188.5 L 138.5 196.5 L 136.5 201.0 L 135.5 202.0 L 135.5 201.0 L 135.5 199.5 " stroke="black" fill="none" stroke-width="6.0" stroke-linecap="round" stroke-linejoin="round" />
<path d="M 149.5 139.0 L 149.5 139.5 L 149.0 140.5 L 149.0 141.0 L 151.0 141.0 L 156.5 139.5 L 164.0 137.5 L 172.0 135.5 L 179.0 134.0 L 182.0 133.0 L 182.5 133.5 L 180.0 135.0 " stroke="black" fill="none" stroke-width="6.0" stroke-linecap="round" stroke-linejoin="round" />
<path d="M 150.5 157.5 L 150.5 156.5 L 150.5 156.0 L 150.5 155.5 L 150.5 156.5 L 150.5 161.0 L 151.0 168.0 L 151.0 176.0 L 151.5 181.0 L 152.5 181.5 L 152.5 181.0 " stroke="black" fill="none" stroke-width="6.0" stroke-linecap="round" stroke-linejoin="round" />
<path d="M 154.0 154.5 L 153.5 154.0 L 152.5 153.5 L 152.0 153.5 L 152.0 153.5 L 153.5 153.0 L 157.0 152.0 L 162.5 150.5 L 170.5 149.0 L 177.0 149.0 L 182.0 149.0 L 185.5 149.5 L 187.0 150.5 L 188.5 151.5 L 189.0 152.0 L 189.0 153.0 L 189.5 155.0 L 189.5 157.5 L 189.5 161.5 L 189.5 166.5 L 190.0 174.0 L 190.0 180.5 L 190.0 186.0 L 189.5 190.0 L 188.5 191.5 L 187.0 191.5 L 185.5 190.5 L 184.0 187.5 L 183.5 185.5 " stroke="black" fill="none" stroke-width="6.0" stroke-linecap="round" stroke-linejoin="round" />
<path d="M 164.5 137.5 L 164.5 137.5 L 164.5 138.0 L 164.5 139.0 L 165.0 141.5 L 166.0 149.0 L 168.0 160.5 L 169.0 171.5 L 169.5 179.5 L 170.0 183.5 L 170.5 184.0 L 171.0 183.5 " stroke="black" fill="none" stroke-width="6.0" stroke-linecap="round" stroke-linejoin="round" />
<path d="M 158.5 163.0 L 158.5 163.0 L 158.0 163.0 L 158.0 163.0 L 158.0 163.0 L 158.0 164.0 L 158.5 165.0 L 160.0 167.0 L 161.0 168.5 " stroke="black" fill="none" stroke-width="6.0" stroke-linecap="round" stroke-linejoin="round" />
<path d="M 160.0 180.5 L 160.0 180.5 L 160.5 180.5 L 160.5 180.0 L 161.0 179.0 L 162.0 177.5 L 162.5 176.5 " stroke="black" fill="none" stroke-width="6.0" stroke-linecap="round" stroke-linejoin="round" />
<path d="M 180.0 157.0 L 180.0 157.0 L 180.5 157.0 L 181.0 157.0 L 181.0 157.0 L 181.0 157.0 L 180.5 158.0 L 179.5 160.0 L 178.0 161.5 L 177.0 163.0 L 176.5 163.5 " stroke="black" fill="none" stroke-width="6.0" stroke-linecap="round" stroke-linejoin="round" />
<path d="M 176.0 172.0 L 176.0 172.0 L 176.0 172.0 L 176.0 172.5 L 176.5 172.5 L 177.5 173.5 L 179.5 174.5 L 181.5 175.0 L 183.0 176.0 L 184.0 176.0 " stroke="black" fill="none" stroke-width="6.0" stroke-linecap="round" stroke-linejoin="round" />
</svg>