<svg xmlns="http://www.w3.org/2000/svg" width="300" height="300" viewBox="0 0 300 300">
<path d="M 115.5 115.0 L 115.5 115.5 L 115.5 116.5 L 115.5 117.0 L 116.5 118.0 L 118.5 121.0 L 121.5 124.5 L 123.5 127.0 L 125.0 128.5 L 125.5 129.5 " stroke="black" fill="none" stroke-width="6.0" stroke-linecap="round" stroke-linejoin="round" />
<path d="M 118.0 148.5 L 117.0 148.5 L 116.5 148.5 L 116.0 148.5 L 117.0 149.0 L 119.5 151.0 L 121.5 154.0 L 123.5 157.0 L 124.5 160.5 " stroke="black" fill="none" stroke-width="6.0" stroke-linecap="round" stroke-linejoin="round" />
<path d="M 114.5 189.5 L 114.0 189.5 L 113.0 189.5 L 112.5 189.5 L 112.5 189.0 L 114.5 188.0 L 117.5 185.5 L 121.0 182.0 L 124.0 178.5 " stroke="black" fill="none" stroke-width="6.0" stroke-linecap="round" stroke-linejoin="round" />
<path d="M 135.5 117.0 L 135.5 118.5 L 135.0 119.0 L 135.0 119.0 L 137.0 118.0 L 141.0 116.5 L 145.0 115.5 L 148.0 114.5 L 150.5 114.0 L 151.5 114.0 L 152.5 114.0 L 152.5 115.0 L 152.5 117.0 L 152.5 119.5 L 152.0 123.0 L 151.0 126.5 L 150.5 129.5 L 150.5 131.0 L 150.5 131.5 " stroke="black" fill="none" stroke-width="6.0" stroke-linecap="round" stroke-linejoin="round" />
<path d="M 138.0 125.5 L 138.0 126.0 L 138.5 126.5 L 139.0 126.5 L 141.0 126.5 L 144.0 126.0 L 147.0 125.5 L 149.0 125.0 L 150.0 124.5 " stroke="black" fill="none" stroke-width="6.0" stroke-linecap="round" stroke-linejoin="round" />
<path d="M 136.0 135.0 L 136.5 136.0 L 137.0 136.5 L 138.0 136.5 L 140.0 136.5 L 143.0 135.5 L 146.0 134.5 L 148.0 133.5 L 148.5 133.0 " stroke="black" fill="none" stroke-width="6.0" stroke-linecap="round" stroke-linejoin="round" />
<path d="M 134.0 119.0 L 134.0 119.0 L 134.0 118.5 L 134.5 118.0 L 134.5 118.0 L 134.5 118.0 L 134.5 120.5 L 134.5 125.0 L 134.5 132.5 L 134.5 143.0 L 134.5 154.5 L 134.5 164.5 L 134.5 173.5 L 134.5 179.0 L 134.5 182.5 L 134.5 184.0 L 134.5 184.0 L 134.5 183.5 " stroke="black" fill="none" stroke-width="6.0" stroke-linecap="round" stroke-linejoin="round" />
<path d="M 165.5 111.5 L 165.0 111.0 L 164.5 111.0 L 164.5 111.0 L 164.5 111.0 L 164.5 112.5 L 164.5 118.0 L 164.0 124.0 L 163.5 129.0 L 163.5 130.5 L 164.0 130.5 " stroke="black" fill="none" stroke-width="6.0" stroke-linecap="round" stroke-linejoin="round" />
<path d="M 166.5 112.0 L 166.0 112.0 L 165.0 112.5 L 165.0 112.5 L 166.5 112.0 L 169.0 111.0 L 171.5 110.5 L 173.5 110.0 L 175.5 110.0 L 177.0 110.0 L 178.5 110.0 L 179.0 110.0 L 179.5 110.5 L 179.5 111.5 L 180.0 113.0 L 180.0 114.5 L 180.0 117.0 L 180.0 121.0 L 180.0 126.5 L 180.5 134.5 L 181.0 143.5 L 181.5 152.5 L 182.0 162.0 L 182.0 171.5 L 181.0 179.0 L 180.0 185.5 L 179.5 190.0 L 178.5 191.5 L 177.5 192.0 L 175.5 190.5 L 173.5 187.5 L 172.5 185.0 " stroke="black" fill="none" stroke-width="6.0" stroke-linecap="round" stroke-linejoin="round" />
<path d="M 167.5 123.0 L 166.5 123.0 L 166.0 123.0 L 166.5 123.0 L 168.5 123.0 L 171.5 123.0 L 174.0 123.0 L 176.0 123.0 L 176.5 123.0 " stroke="black" fill="none" stroke-width="6.0" stroke-linecap="round" stroke-linejoin="round" />
<path d="M 167.5 133.5 L 167.0 134.0 L 165.5 134.5 L 165.5 134.5 L 168.5 134.5 L 172.0 133.5 L 174.5 132.5 " stroke="black" fill="none" stroke-width="6.0" stroke-linecap="round" stroke-linejoin="round" />
<path d="M 148.0 150.5 L 148.0 150.0 L 148.0 150.0 L 148.0 149.5 L 149.0 148.5 L 153.0 147.5 L 157.5 146.5 L 161.0 146.5 L 164.0 146.5 L 164.5 147.5 " stroke="black" fill="none" stroke-width="6.0" stroke-linecap="round" stroke-linejoin="round" />
<path d="M 150.5 160.5 L 150.5 161.0 L 150.0 162.0 L 150.0 162.5 L 151.0 162.5 L 153.5 162.0 L 156.5 161.0 L 160.0 159.5 L 162.0 158.0 " stroke="black" fill="none" stroke-width="6.0" stroke-linecap="round" stroke-linejoin="round" />
<path d="M 156.0 149.5 L 156.0 149.5 L 156.5 149.0 L 156.5 148.5 L 156.5 148.5 L 156.5 150.0 L 156.0 155.0 L 155.5 162.5 L 155.5 169.0 L 155.5 171.5 L 155.0 172.0 " stroke="black" fill="none" stroke-width="6.0" stroke-linecap="round" stroke-linejoin="round" />
<path d="M 147.5 174.5 L 145.5 174.5 L 145.0 174.5 L 145.0 174.5 L 147.5 174.5 L 151.5 174.5 L 157.0 174.5 L 162.5 174.5 L 167.5 174.0 L 170.0 173.0 L 170.5 172.5 " stroke="black" fill="none" stroke-width="6.0" stroke-linecap="round" stroke-linejoin="round" />
</svg>