<svg xmlns="http://www.w3.org/2000/svg" width="300" height="300" viewBox="0 0 300 300">
<path d="M 111.0 121.5 L 111.0 121.0 L 110.5 120.5 L 110.5 120.0 L 112.0 120.5 L 115.0 124.0 L 118.5 128.5 L 122.0 133.0 L 124.0 135.5 " stroke="black" fill="none" stroke-width="7.0" stroke-linecap="round" stroke-linejoin="round" />
<path d="M 117.0 149.5 L 116.0 150.0 L 116.0 150.5 L 116.5 151.5 L 118.5 153.0 L 121.5 155.0 L 124.0 157.0 L 125.0 158.0 " stroke="black" fill="none" stroke-width="7.0" stroke-linecap="round" stroke-linejoin="round" />
<path d="M 111.5 192.5 L 112.0 193.0 L 112.0 193.0 L 112.5 192.5 L 113.5 189.0 L 116.0 184.0 L 118.0 178.5 L 120.5 175.0 L 122.0 173.0 " stroke="black" fill="none" stroke-width="7.0" stroke-linecap="round" stroke-linejoin="round" />
<path d="M 149.0 117.0 L 149.0 116.5 L 149.0 115.5 L 149.0 114.5 L 149.0 114.0 L 149.0 113.5 L 149.0 114.0 L 148.0 116.5 L 147.0 120.0 L 147.0 122.0 " stroke="black" fill="none" stroke-width="7.0" stroke-linecap="round" stroke-linejoin="round" />
<path d="M 137.5 131.5 L 138.0 131.5 L 138.0 131.0 L 139.0 130.5 L 139.5 130.5 L 140.0 133.5 L 140.0 142.5 L 139.5 156.5 L 139.5 166.5 L 139.5 171.0 L 140.0 171.0 L 140.0 170.0 " stroke="black" fill="none" stroke-width="7.0" stroke-linecap="round" stroke-linejoin="round" />
<path d="M 142.0 132.5 L 141.0 132.5 L 140.0 133.0 L 140.0 133.0 L 141.0 133.5 L 143.5 133.5 L 146.5 133.5 L 149.0 133.5 L 151.5 133.0 L 153.5 132.5 L 154.5 132.5 L 155.0 133.0 L 155.5 135.0 L 155.5 139.5 L 155.5 146.0 L 155.5 153.5 L 155.5 160.0 L 155.5 165.5 L 155.5 168.0 L 155.5 168.5 L 154.5 168.0 " stroke="black" fill="none" stroke-width="7.0" stroke-linecap="round" stroke-linejoin="round" />
<path d="M 146.0 148.5 L 144.0 149.0 L 143.0 149.5 L 143.0 149.5 L 145.0 149.0 L 148.5 149.0 L 151.5 148.5 L 154.0 148.0 L 155.0 148.0 " stroke="black" fill="none" stroke-width="7.0" stroke-linecap="round" stroke-linejoin="round" />
<path d="M 146.0 168.0 L 145.5 168.5 L 144.0 169.5 L 144.5 169.5 L 147.0 168.5 L 149.5 168.0 L 152.0 167.5 L 154.0 167.0 " stroke="black" fill="none" stroke-width="7.0" stroke-linecap="round" stroke-linejoin="round" />
<path d="M 173.5 117.0 L 173.5 117.0 L 174.0 116.5 L 174.0 116.0 L 174.0 116.0 L 173.5 118.5 L 171.5 125.0 L 169.5 131.5 L 168.0 135.0 L 167.5 135.5 L 167.5 133.5 " stroke="black" fill="none" stroke-width="7.0" stroke-linecap="round" stroke-linejoin="round" />
<path d="M 169.0 129.0 L 169.0 129.0 L 168.5 129.5 L 168.5 129.5 L 171.0 129.5 L 175.0 129.5 L 179.5 129.5 L 185.0 129.5 L 190.5 129.0 L 194.5 129.0 L 195.0 129.0 " stroke="black" fill="none" stroke-width="7.0" stroke-linecap="round" stroke-linejoin="round" />
<path d="M 184.5 112.5 L 184.0 113.0 L 183.5 113.0 L 183.0 114.5 L 182.5 119.0 L 182.0 127.0 L 181.5 134.5 L 181.0 139.0 L 180.5 141.5 " stroke="black" fill="none" stroke-width="7.0" stroke-linecap="round" stroke-linejoin="round" />
<path d="M 170.5 145.5 L 170.0 145.5 L 169.5 145.5 L 169.0 145.5 L 169.0 145.5 L 171.0 145.5 L 175.0 145.5 L 180.0 145.5 L 186.5 144.5 L 191.5 144.0 " stroke="black" fill="none" stroke-width="7.0" stroke-linecap="round" stroke-linejoin="round" />
<path d="M 172.0 156.0 L 172.0 156.0 L 171.0 156.0 L 171.0 156.0 L 170.5 157.0 L 170.5 161.5 L 171.5 167.5 L 172.0 172.5 L 172.5 174.0 " stroke="black" fill="none" stroke-width="7.0" stroke-linecap="round" stroke-linejoin="round" />
<path d="M 171.5 160.0 L 171.5 160.0 L 170.0 159.5 L 170.0 159.0 L 172.5 158.0 L 176.5 157.5 L 181.0 156.5 L 185.0 156.0 L 188.0 156.0 L 189.5 156.0 L 190.5 157.0 L 191.0 159.5 L 191.0 162.5 L 190.5 166.5 L 189.5 171.0 L 188.5 174.0 L 187.0 175.5 L 186.5 176.0 " stroke="black" fill="none" stroke-width="7.0" stroke-linecap="round" stroke-linejoin="round" />
<path d="M 173.5 176.5 L 173.5 176.5 L 172.0 176.5 L 172.0 176.5 L 173.5 176.5 L 177.5 177.0 L 182.5 177.5 L 188.5 178.0 L 190.0 178.0 " stroke="black" fill="none" stroke-width="7.0" stroke-linecap="round" stroke-linejoin="round" />
</svg>