<svg xmlns="http://www.w3.org/2000/svg" width="300" height="300" viewBox="0 0 300 300">
<path d="M 124.5 114.5 L 123.5 114.5 L 123.0 114.5 L 123.0 114.5 L 124.5 117.0 L 127.5 121.5 L 130.0 125.0 L 131.0 127.0 L 131.5 128.0 L 131.5 128.0 " stroke="black" fill="none" stroke-width="6.0" stroke-linecap="round" stroke-linejoin="round" />
<path d="M 126.5 142.5 L 125.5 142.0 L 125.5 141.5 L 125.5 142.0 L 127.0 144.5 L 128.5 148.5 L 130.5 153.5 L 131.5 159.0 L 132.0 163.0 L 132.0 164.0 " stroke="black" fill="none" stroke-width="6.0" stroke-linecap="round" stroke-linejoin="round" />
<path d="M 126.5 184.0 L 125.5 183.5 L 125.0 183.5 L 125.0 182.5 L 126.0 180.0 L 127.5 177.0 L 130.0 173.5 L 131.5 171.0 L 132.5 169.5 " stroke="black" fill="none" stroke-width="6.0" stroke-linecap="round" stroke-linejoin="round" />
<path d="M 145.0 116.5 L 145.0 116.5 L 144.0 115.5 L 143.0 115.0 L 143.5 115.0 L 146.5 114.5 L 150.5 113.5 L 154.5 113.0 L 157.0 112.5 L 158.5 113.0 L 159.5 115.0 L 159.5 118.5 L 159.0 123.0 L 158.0 126.5 L 157.5 128.5 L 156.5 129.0 L 156.5 129.0 " stroke="black" fill="none" stroke-width="6.0" stroke-linecap="round" stroke-linejoin="round" />
<path d="M 148.5 124.0 L 147.0 123.5 L 146.5 123.5 L 146.5 123.0 L 149.5 122.5 L 153.0 121.5 L 155.0 121.5 L 157.0 121.5 L 157.0 121.5 " stroke="black" fill="none" stroke-width="6.0" stroke-linecap="round" stroke-linejoin="round" />
<path d="M 147.5 132.5 L 147.0 133.5 L 147.0 133.5 L 149.5 133.5 L 152.5 132.5 L 154.5 131.5 L 155.0 130.5 " stroke="black" fill="none" stroke-width="6.0" stroke-linecap="round" stroke-linejoin="round" />
<path d="M 144.5 115.0 L 144.0 115.0 L 143.5 115.0 L 143.0 115.5 L 143.0 117.5 L 143.0 123.0 L 143.0 133.0 L 143.0 148.0 L 142.5 161.5 L 142.0 173.0 L 142.5 181.5 L 143.0 186.5 L 143.0 189.0 L 142.0 189.0 L 141.5 188.5 " stroke="black" fill="none" stroke-width="6.0" stroke-linecap="round" stroke-linejoin="round" />
<path d="M 172.5 115.5 L 172.0 115.5 L 171.5 115.0 L 171.0 115.0 L 171.0 117.5 L 171.0 123.0 L 171.5 129.5 L 171.5 134.5 L 171.5 136.0 L 171.5 136.0 " stroke="black" fill="none" stroke-width="6.0" stroke-linecap="round" stroke-linejoin="round" />
<path d="M 174.0 114.0 L 173.5 114.0 L 173.0 114.5 L 173.0 114.5 L 173.5 114.5 L 175.5 114.5 L 177.5 114.5 L 180.5 113.5 L 183.0 113.0 L 185.5 113.0 L 187.0 112.5 L 187.0 112.5 L 187.0 113.0 L 187.0 114.5 L 187.0 117.0 L 187.0 121.5 L 187.0 128.0 L 187.5 137.0 L 187.5 147.0 L 188.0 156.5 L 187.5 165.5 L 187.0 174.0 L 186.5 182.0 L 186.0 188.0 L 185.5 191.5 L 185.5 193.5 L 185.0 194.0 L 184.0 193.5 L 181.5 190.0 L 178.0 183.5 " stroke="black" fill="none" stroke-width="6.0" stroke-linecap="round" stroke-linejoin="round" />
<path d="M 174.5 125.5 L 173.5 125.5 L 173.0 125.0 L 173.0 125.0 L 175.0 124.5 L 177.5 124.0 L 180.0 124.0 L 182.0 124.0 L 183.5 124.0 L 183.5 124.0 " stroke="black" fill="none" stroke-width="6.0" stroke-linecap="round" stroke-linejoin="round" />
<path d="M 173.0 138.0 L 172.0 138.0 L 171.5 137.5 L 172.0 137.0 L 174.0 136.0 L 177.5 136.0 L 180.0 135.5 L 182.0 135.5 L 184.0 135.5 " stroke="black" fill="none" stroke-width="6.0" stroke-linecap="round" stroke-linejoin="round" />
<path d="M 156.5 150.0 L 156.5 149.5 L 157.0 149.0 L 157.5 149.0 L 157.5 149.5 L 158.0 154.0 L 158.0 160.5 L 158.0 166.5 L 158.0 170.0 L 157.5 170.0 L 157.5 168.5 " stroke="black" fill="none" stroke-width="6.0" stroke-linecap="round" stroke-linejoin="round" />
<path d="M 158.5 148.0 L 158.5 148.0 L 157.5 149.0 L 157.0 149.0 L 157.0 149.5 L 159.0 150.0 L 162.5 150.0 L 165.5 149.5 L 168.5 148.5 L 170.5 148.0 L 171.5 147.5 L 172.0 147.5 L 172.0 147.5 L 172.0 149.0 L 171.5 151.5 L 171.0 155.5 L 171.0 161.0 L 171.0 166.0 L 171.0 169.0 L 170.5 170.5 L 170.5 170.5 L 170.5 170.0 " stroke="black" fill="none" stroke-width="6.0" stroke-linecap="round" stroke-linejoin="round" />
<path d="M 161.0 160.5 L 160.5 160.0 L 160.0 160.0 L 160.0 160.0 L 161.0 160.0 L 163.0 160.0 L 165.5 160.0 L 167.5 160.0 L 168.5 160.0 " stroke="black" fill="none" stroke-width="6.0" stroke-linecap="round" stroke-linejoin="round" />
<path d="M 160.0 170.5 L 160.0 171.0 L 160.0 171.5 L 161.0 171.5 L 163.5 171.5 L 167.0 171.0 L 170.0 170.5 " stroke="black" fill="none" stroke-width="6.0" stroke-linecap="round" stroke-linejoin="round" />
</svg>