<svg xmlns="http://www.w3.org/2000/svg" width="300" height="300" viewBox="0 0 300 300">
<path d="M 118.0 114.5 L 117.5 115.0 L 117.0 115.5 L 116.5 115.5 L 116.5 116.0 L 117.0 116.0 L 119.5 116.0 L 123.0 116.0 L 126.5 115.5 L 129.0 115.0 L 131.0 113.5 L 131.5 112.0 " stroke="black" fill="none" stroke-width="8.0" stroke-linecap="round" stroke-linejoin="round" />
<path d="M 124.5 104.5 L 123.5 104.5 L 123.0 104.5 L 122.5 105.0 L 122.5 106.5 L 123.5 111.0 L 125.0 116.0 L 126.0 120.0 L 126.5 123.0 L 126.5 123.5 " stroke="black" fill="none" stroke-width="8.0" stroke-linecap="round" stroke-linejoin="round" />
<path d="M 115.5 127.5 L 115.0 128.5 L 114.5 129.5 L 114.5 130.0 L 115.5 129.5 L 118.5 129.0 L 122.5 128.0 L 127.0 127.0 L 131.5 126.0 L 134.5 125.0 L 136.0 125.0 " stroke="black" fill="none" stroke-width="8.0" stroke-linecap="round" stroke-linejoin="round" />
<path d="M 122.0 131.5 L 122.0 131.5 L 122.0 132.0 L 122.0 132.5 L 122.0 133.0 L 122.0 134.5 L 121.5 137.0 L 120.5 140.0 L 118.0 143.0 L 116.0 144.5 L 115.0 145.0 " stroke="black" fill="none" stroke-width="8.0" stroke-linecap="round" stroke-linejoin="round" />
<path d="M 129.5 131.5 L 129.5 131.5 L 129.5 132.0 L 129.5 132.5 L 129.5 133.0 L 129.5 133.0 L 129.5 135.0 L 129.5 138.0 L 131.0 141.0 L 133.0 143.5 L 136.0 144.5 L 139.5 143.5 L 141.5 141.0 L 142.5 139.5 L 143.0 139.0 L 143.0 139.0 " stroke="black" fill="none" stroke-width="8.0" stroke-linecap="round" stroke-linejoin="round" />
<path d="M 123.5 159.0 L 122.5 159.0 L 122.0 159.0 L 122.0 159.0 L 123.0 159.0 L 126.5 158.0 L 130.0 157.0 L 133.0 156.5 L 134.5 156.0 L 134.5 155.5 " stroke="black" fill="none" stroke-width="8.0" stroke-linecap="round" stroke-linejoin="round" />
<path d="M 129.0 148.5 L 128.0 148.5 L 127.5 149.0 L 127.5 149.0 L 127.5 150.0 L 128.0 153.0 L 129.0 158.5 L 129.5 163.0 L 130.0 166.0 L 130.0 167.0 " stroke="black" fill="none" stroke-width="8.0" stroke-linecap="round" stroke-linejoin="round" />
<path d="M 120.5 170.5 L 119.5 171.0 L 118.5 172.0 L 118.5 172.0 L 120.5 172.0 L 124.5 171.5 L 129.5 170.0 L 134.5 169.0 L 137.5 168.0 L 140.0 167.5 L 140.5 167.5 " stroke="black" fill="none" stroke-width="8.0" stroke-linecap="round" stroke-linejoin="round" />
<path d="M 147.5 113.0 L 147.5 113.0 L 147.5 114.0 L 147.5 114.5 L 148.0 114.5 L 149.5 114.0 L 152.0 113.0 L 156.5 112.0 L 161.5 111.0 L 166.0 110.5 L 169.0 110.5 L 170.0 111.0 L 170.0 112.0 L 169.0 113.5 L 168.5 115.0 L 168.0 117.0 L 167.5 120.0 L 166.5 124.5 L 165.5 130.5 L 164.5 137.5 L 164.0 145.0 L 164.5 151.5 L 166.0 156.5 L 168.5 159.5 L 171.0 160.5 L 173.0 160.5 L 175.0 158.5 L 177.0 155.0 L 178.0 151.0 L 178.0 148.0 L 177.5 146.0 L 177.5 146.0 " stroke="black" fill="none" stroke-width="8.0" stroke-linecap="round" stroke-linejoin="round" />
<path d="M 154.0 102.0 L 154.5 101.5 L 155.0 101.0 L 155.0 101.0 L 155.0 101.0 L 155.5 103.0 L 155.5 108.5 L 155.5 118.5 L 154.5 132.0 L 152.5 145.5 L 150.0 155.0 L 148.0 161.5 L 147.5 164.0 L 147.5 164.0 L 148.5 163.0 L 149.0 162.0 " stroke="black" fill="none" stroke-width="8.0" stroke-linecap="round" stroke-linejoin="round" />
<path d="M 149.5 141.0 L 149.5 141.0 L 149.0 141.0 L 149.0 141.0 L 150.0 141.0 L 153.0 141.5 L 156.0 143.0 L 158.0 144.5 L 158.5 145.0 " stroke="black" fill="none" stroke-width="8.0" stroke-linecap="round" stroke-linejoin="round" />
<path d="M 128.5 187.5 L 128.5 187.5 L 129.0 186.5 L 129.0 186.0 L 129.0 186.0 L 129.0 186.0 L 129.0 186.5 L 129.0 188.0 L 128.0 190.5 L 127.0 192.0 L 126.0 193.5 L 126.0 194.0 " stroke="black" fill="none" stroke-width="8.0" stroke-linecap="round" stroke-linejoin="round" />
<path d="M 142.0 183.5 L 142.0 183.5 L 141.5 183.0 L 141.5 183.5 L 142.5 185.5 L 144.0 188.0 L 145.5 189.5 L 146.5 190.0 L 146.5 190.0 " stroke="black" fill="none" stroke-width="8.0" stroke-linecap="round" stroke-linejoin="round" />
<path d="M 152.0 181.0 L 152.0 181.0 L 152.0 181.0 L 152.0 181.5 L 152.0 181.5 L 153.0 182.5 L 154.5 183.5 L 156.5 185.5 L 158.5 187.0 " stroke="black" fill="none" stroke-width="8.0" stroke-linecap="round" stroke-linejoin="round" />
<path d="M 168.5 180.5 L 168.5 180.5 L 168.5 180.5 L 168.0 180.5 L 168.0 180.5 L 170.0 181.5 L 173.0 184.0 L 176.0 187.0 L 178.0 189.5 L 178.5 191.0 " stroke="black" fill="none" stroke-width="8.0" stroke-linecap="round" stroke-linejoin="round" />
</svg>