<svg xmlns="http://www.w3.org/2000/svg" width="300" height="300" viewBox="0 0 300 300">
<path d="M 117.5 112.0 L 117.5 112.0 L 118.0 112.0 L 118.0 112.0 L 118.5 112.0 L 119.0 111.5 L 119.0 111.5 L 119.5 111.5 L 119.5 113.0 L 119.0 117.0 L 117.5 123.5 L 114.5 130.0 L 112.5 133.5 L 111.5 134.5 L 111.5 134.5 L 112.5 132.5 " stroke="black" fill="none" stroke-width="5.0" stroke-linecap="round" stroke-linejoin="round" />
<path d="M 118.0 126.0 L 116.5 126.5 L 115.5 126.5 L 115.5 126.5 L 116.5 126.5 L 119.0 126.0 L 122.5 126.0 L 127.5 125.5 L 132.5 124.5 L 137.0 123.5 L 138.5 122.5 L 138.5 122.0 " stroke="black" fill="none" stroke-width="5.0" stroke-linecap="round" stroke-linejoin="round" />
<path d="M 128.0 106.5 L 128.0 106.5 L 128.0 106.0 L 128.0 106.0 L 128.0 106.0 L 128.0 106.5 L 128.0 112.0 L 128.0 124.5 L 127.0 143.0 L 126.0 159.0 L 125.0 170.5 L 124.0 178.5 L 123.5 183.0 L 123.5 182.5 L 123.5 179.5 " stroke="black" fill="none" stroke-width="5.0" stroke-linecap="round" stroke-linejoin="round" />
<path d="M 112.0 169.5 L 112.5 169.5 L 113.0 169.0 L 114.0 168.0 L 116.5 166.0 L 121.0 163.0 L 126.0 159.5 L 130.0 156.5 L 134.0 153.5 L 135.5 152.0 " stroke="black" fill="none" stroke-width="5.0" stroke-linecap="round" stroke-linejoin="round" />
<path d="M 149.0 114.5 L 148.5 115.0 L 148.5 115.5 L 148.5 115.5 L 151.5 115.5 L 155.5 114.5 L 161.0 113.0 L 165.0 112.0 L 167.5 111.5 L 167.5 111.5 L 167.5 111.5 " stroke="black" fill="none" stroke-width="5.0" stroke-linecap="round" stroke-linejoin="round" />
<path d="M 159.0 103.5 L 158.5 103.5 L 158.5 103.5 L 158.5 103.5 L 158.5 105.0 L 159.0 109.0 L 159.5 114.0 L 159.5 118.5 L 159.5 120.5 L 159.5 121.5 " stroke="black" fill="none" stroke-width="5.0" stroke-linecap="round" stroke-linejoin="round" />
<path d="M 149.0 125.5 L 149.0 125.5 L 148.0 126.0 L 148.0 126.0 L 148.5 126.0 L 151.0 125.5 L 154.5 125.0 L 159.0 124.5 L 164.5 124.5 L 168.5 124.5 L 170.0 124.5 " stroke="black" fill="none" stroke-width="5.0" stroke-linecap="round" stroke-linejoin="round" />
<path d="M 146.5 134.0 L 146.0 134.0 L 145.5 134.0 L 145.0 134.0 L 145.0 135.0 L 145.0 137.0 L 146.0 140.0 L 147.5 142.5 L 148.0 143.0 " stroke="black" fill="none" stroke-width="5.0" stroke-linecap="round" stroke-linejoin="round" />
<path d="M 145.0 136.0 L 144.0 136.0 L 143.5 136.0 L 143.5 136.0 L 146.0 135.0 L 149.5 134.0 L 154.0 133.5 L 159.5 132.5 L 166.5 132.0 L 173.5 131.5 L 178.0 132.0 L 179.5 134.0 L 180.0 136.0 L 179.5 137.0 L 178.5 138.0 L 177.5 139.5 L 176.5 142.5 L 174.5 145.5 L 173.5 148.0 L 173.0 148.5 L 172.5 148.5 " stroke="black" fill="none" stroke-width="5.0" stroke-linecap="round" stroke-linejoin="round" />
<path d="M 155.5 137.0 L 155.5 136.5 L 156.0 136.5 L 156.5 136.5 L 156.5 137.5 L 156.5 140.0 L 156.5 143.0 L 156.5 145.0 " stroke="black" fill="none" stroke-width="5.0" stroke-linecap="round" stroke-linejoin="round" />
<path d="M 164.0 134.0 L 164.0 134.0 L 164.0 135.0 L 164.5 135.5 L 164.5 136.5 L 164.5 138.5 L 164.5 141.5 L 164.5 145.0 L 164.0 147.5 " stroke="black" fill="none" stroke-width="5.0" stroke-linecap="round" stroke-linejoin="round" />
<path d="M 149.5 149.5 L 149.5 150.0 L 150.0 150.5 L 152.5 150.5 L 157.5 150.5 L 165.0 149.0 L 172.5 147.5 L 176.5 147.0 " stroke="black" fill="none" stroke-width="5.0" stroke-linecap="round" stroke-linejoin="round" />
<path d="M 147.5 160.5 L 147.5 160.0 L 147.0 159.5 L 147.0 159.0 L 147.5 159.0 L 148.0 161.5 L 149.0 166.5 L 149.5 172.0 L 150.0 177.0 L 150.0 179.0 L 150.0 179.0 " stroke="black" fill="none" stroke-width="5.0" stroke-linecap="round" stroke-linejoin="round" />
<path d="M 150.5 158.5 L 150.0 159.0 L 149.5 160.0 L 149.0 160.0 L 149.0 160.5 L 149.0 160.5 L 150.0 160.5 L 151.5 160.5 L 154.5 160.0 L 158.5 159.0 L 165.0 157.0 L 170.5 156.5 L 175.0 156.0 L 177.0 156.5 L 177.5 157.5 L 177.0 158.0 L 176.5 158.5 L 176.0 159.5 L 175.5 161.5 L 175.0 165.0 L 174.0 170.0 L 172.5 176.0 L 172.0 180.5 L 171.5 182.0 L 171.5 182.0 L 171.5 181.0 L 171.5 180.0 " stroke="black" fill="none" stroke-width="5.0" stroke-linecap="round" stroke-linejoin="round" />
<path d="M 155.5 169.5 L 154.5 170.0 L 154.0 170.5 L 154.0 170.5 L 154.5 170.0 L 156.5 169.0 L 159.5 168.0 L 163.0 168.0 L 166.0 167.5 L 168.5 167.5 L 170.0 167.5 " stroke="black" fill="none" stroke-width="5.0" stroke-linecap="round" stroke-linejoin="round" />
<path d="M 157.5 176.0 L 157.0 176.5 L 156.0 177.5 L 155.5 178.0 L 155.5 178.0 L 157.0 177.5 L 160.0 177.0 L 163.5 176.0 L 167.0 175.5 L 169.0 175.0 L 169.5 174.5 " stroke="black" fill="none" stroke-width="5.0" stroke-linecap="round" stroke-linejoin="round" />
<path d="M 150.0 186.0 L 150.0 185.5 L 150.0 185.0 L 151.0 184.5 L 152.5 184.0 L 156.5 183.5 L 161.5 183.0 L 166.0 182.5 L 168.5 182.5 L 169.5 182.5 L 169.5 183.0 " stroke="black" fill="none" stroke-width="5.0" stroke-linecap="round" stroke-linejoin="round" />
<path d="M 155.0 190.0 L 155.0 190.0 L 156.5 189.5 L 157.5 189.0 L 157.5 189.0 L 157.0 189.5 L 154.5 191.5 L 151.5 194.0 L 149.0 196.0 L 148.0 196.5 L 148.0 196.5 " stroke="black" fill="none" stroke-width="5.0" stroke-linecap="round" stroke-linejoin="round" />
<path d="M 167.5 190.0 L 167.5 190.0 L 167.5 190.0 L 168.0 190.0 L 170.0 190.5 L 172.5 192.0 L 175.0 193.5 L 175.5 194.0 " stroke="black" fill="none" stroke-width="5.0" stroke-linecap="round" stroke-linejoin="round" />
</svg>