<svg xmlns="http://www.w3.org/2000/svg" width="300" height="300" viewBox="0 0 300 300">
<path d="M 129.0 105.5 L 129.0 105.0 L 129.0 104.0 L 129.0 103.5 L 129.0 103.5 L 129.0 105.5 L 129.5 111.0 L 130.0 115.5 L 130.0 119.5 L 130.0 121.5 L 130.5 121.5 " stroke="black" fill="none" stroke-width="6.0" stroke-linecap="round" stroke-linejoin="round" />
<path d="M 131.0 111.0 L 130.5 111.5 L 130.0 112.0 L 130.0 112.0 L 131.0 112.0 L 134.5 112.0 L 138.0 112.0 L 141.0 112.0 L 143.0 111.5 L 143.5 111.5 " stroke="black" fill="none" stroke-width="6.0" stroke-linecap="round" stroke-linejoin="round" />
<path d="M 120.0 126.0 L 119.5 126.0 L 118.5 126.5 L 118.5 126.5 L 118.5 126.5 L 118.5 126.5 L 118.5 126.5 L 119.0 126.5 L 120.5 127.0 L 123.5 127.0 L 128.5 127.0 L 135.0 127.0 L 141.0 126.0 L 146.5 125.0 L 149.0 124.5 L 149.5 124.5 L 149.5 124.5 L 149.5 124.5 L 149.0 124.5 L 149.0 124.5 L 149.0 124.5 L 149.0 124.5 L 149.0 124.5 L 149.0 124.5 L 149.0 125.0 L 149.0 125.0 L 148.5 125.5 L 148.0 126.5 L 147.0 128.5 L 146.5 131.0 L 145.5 132.5 L 145.5 134.0 L 145.5 134.0 " stroke="black" fill="none" stroke-width="6.0" stroke-linecap="round" stroke-linejoin="round" />
<path d="M 117.0 127.5 L 117.0 127.5 L 116.5 127.5 L 116.0 127.5 L 116.0 127.5 L 116.0 128.0 L 116.5 130.5 L 116.5 135.0 L 116.5 143.0 L 116.0 153.0 L 115.0 163.0 L 113.5 171.5 L 111.5 179.5 L 109.0 187.5 L 106.5 194.5 L 104.0 198.5 L 103.5 199.0 L 103.5 198.5 L 103.5 196.0 " stroke="black" fill="none" stroke-width="6.0" stroke-linecap="round" stroke-linejoin="round" />
<path d="M 123.0 143.0 L 123.0 143.0 L 123.5 143.0 L 123.5 142.5 L 124.0 142.5 L 125.5 142.0 L 128.5 141.5 L 132.5 140.5 L 135.5 139.0 L 137.5 138.0 L 138.0 137.5 " stroke="black" fill="none" stroke-width="6.0" stroke-linecap="round" stroke-linejoin="round" />
<path d="M 127.5 134.0 L 127.5 134.0 L 128.0 135.0 L 128.0 135.5 L 128.0 135.5 L 128.0 137.0 L 128.0 139.5 L 128.5 143.5 L 129.5 147.0 L 130.0 150.0 L 131.5 151.5 L 133.5 151.5 L 135.5 151.5 L 138.0 151.0 L 140.0 150.0 L 141.5 149.0 L 143.0 148.5 L 144.0 148.0 L 144.5 148.0 L 144.5 148.0 L 144.5 148.0 " stroke="black" fill="none" stroke-width="6.0" stroke-linecap="round" stroke-linejoin="round" />
<path d="M 122.0 159.0 L 122.0 159.0 L 122.0 159.0 L 122.0 159.5 L 122.0 159.5 L 122.0 159.5 L 122.5 159.5 L 124.0 160.0 L 126.5 160.0 L 130.5 160.5 L 135.0 160.5 L 139.5 160.5 L 141.5 160.0 L 143.0 159.5 L 143.0 160.0 L 143.0 160.5 " stroke="black" fill="none" stroke-width="6.0" stroke-linecap="round" stroke-linejoin="round" />
<path d="M 124.5 167.0 L 124.5 166.5 L 125.0 166.0 L 125.0 166.0 L 125.0 166.0 L 125.0 168.5 L 125.0 171.0 L 125.0 172.5 L 125.0 173.0 " stroke="black" fill="none" stroke-width="6.0" stroke-linecap="round" stroke-linejoin="round" />
<path d="M 126.0 167.0 L 126.0 167.0 L 125.5 167.0 L 125.5 167.0 L 125.5 167.0 L 127.0 167.5 L 130.0 167.5 L 133.5 167.5 L 136.5 167.5 L 139.0 167.5 L 140.5 168.0 L 141.5 168.0 L 142.0 168.0 L 142.0 168.5 L 142.0 169.0 L 142.0 169.5 L 141.5 170.5 L 141.0 171.0 L 140.0 172.0 L 139.5 173.5 L 139.5 173.5 " stroke="black" fill="none" stroke-width="6.0" stroke-linecap="round" stroke-linejoin="round" />
<path d="M 128.0 174.5 L 128.0 174.5 L 127.5 175.0 L 127.5 175.0 L 127.5 175.0 L 128.5 175.0 L 130.5 174.5 L 134.0 174.5 L 137.0 174.5 " stroke="black" fill="none" stroke-width="6.0" stroke-linecap="round" stroke-linejoin="round" />
<path d="M 118.5 186.5 L 118.5 186.0 L 118.5 185.5 L 118.5 185.0 L 118.5 184.5 L 119.0 184.5 L 119.0 185.0 L 119.0 188.0 L 119.0 191.5 L 119.0 194.5 L 119.0 197.0 L 119.0 198.0 L 119.5 198.0 " stroke="black" fill="none" stroke-width="6.0" stroke-linecap="round" stroke-linejoin="round" />
<path d="M 122.0 181.5 L 121.0 182.0 L 120.5 182.5 L 120.5 182.5 L 121.0 182.5 L 122.5 182.5 L 125.0 182.5 L 127.5 182.5 L 131.0 182.5 L 134.5 182.5 L 138.0 182.5 L 141.0 182.5 L 143.0 182.5 L 144.5 182.5 L 146.0 182.5 L 146.5 183.0 L 147.0 183.5 L 147.0 184.0 L 147.0 184.0 L 147.0 184.0 L 147.0 184.5 L 147.0 184.5 L 147.0 185.0 L 147.0 185.5 L 147.0 186.5 L 147.0 188.0 L 147.0 189.5 L 147.0 192.0 L 147.0 195.0 L 147.0 198.0 L 147.0 201.5 L 146.5 204.0 L 146.5 207.0 L 146.0 208.5 L 146.0 209.0 L 145.5 209.0 L 144.5 208.0 L 143.5 206.0 L 142.5 205.0 " stroke="black" fill="none" stroke-width="6.0" stroke-linecap="round" stroke-linejoin="round" />
<path d="M 126.0 189.0 L 126.5 189.5 L 126.5 189.5 L 127.0 190.0 L 127.5 190.5 L 128.5 191.0 L 129.5 191.5 L 130.0 191.5 " stroke="black" fill="none" stroke-width="6.0" stroke-linecap="round" stroke-linejoin="round" />
<path d="M 138.5 189.5 L 138.5 189.5 L 138.0 189.5 L 138.0 189.5 L 137.5 189.5 L 137.5 189.5 L 137.5 190.0 L 137.0 190.0 L 137.0 190.5 " stroke="black" fill="none" stroke-width="6.0" stroke-linecap="round" stroke-linejoin="round" />
<path d="M 126.5 196.0 L 126.5 196.5 L 126.5 196.5 L 127.0 196.5 L 127.0 196.5 L 128.0 196.5 L 130.0 196.5 L 133.0 196.5 L 136.0 196.5 " stroke="black" fill="none" stroke-width="6.0" stroke-linecap="round" stroke-linejoin="round" />
<path d="M 131.5 194.0 L 131.5 194.5 L 131.5 195.5 L 131.5 196.5 L 131.5 199.0 L 131.0 202.5 L 131.0 205.5 " stroke="black" fill="none" stroke-width="6.0" stroke-linecap="round" stroke-linejoin="round" />
<path d="M 161.0 134.5 L 160.5 134.5 L 159.0 135.0 L 159.0 135.0 L 159.0 135.0 L 160.5 135.0 L 162.0 135.0 L 163.5 135.0 L 165.5 135.0 L 168.0 135.5 L 171.0 135.5 L 175.0 135.5 L 179.0 135.5 L 182.0 135.5 L 183.5 135.5 L 184.5 135.0 L 184.5 135.0 L 184.5 135.0 L 184.5 135.0 L 184.5 135.0 L 184.5 135.0 " stroke="black" fill="none" stroke-width="6.0" stroke-linecap="round" stroke-linejoin="round" />
<path d="M 169.5 118.0 L 170.5 118.0 L 171.0 117.5 L 171.0 117.5 L 171.0 117.5 L 171.5 118.5 L 171.5 121.5 L 170.5 127.5 L 169.0 137.0 L 167.5 147.5 L 166.5 156.5 L 165.5 165.0 L 164.0 172.5 L 162.0 180.0 L 159.5 186.0 L 157.5 189.5 L 157.0 190.5 L 157.0 190.5 L 157.0 190.0 L 157.5 189.5 L 158.5 187.5 " stroke="black" fill="none" stroke-width="6.0" stroke-linecap="round" stroke-linejoin="round" />
<path d="M 171.0 141.5 L 171.0 141.0 L 171.0 140.5 L 171.5 140.0 L 171.5 140.0 L 171.5 140.5 L 172.0 144.0 L 172.5 152.0 L 174.0 165.0 L 176.5 180.0 L 180.0 189.5 L 182.5 195.0 L 184.0 197.0 L 184.5 197.0 L 184.5 195.0 L 184.5 194.0 " stroke="black" fill="none" stroke-width="6.0" stroke-linecap="round" stroke-linejoin="round" />
<path d="M 185.5 116.5 L 185.5 116.5 L 185.0 117.0 L 184.5 117.0 L 184.5 117.5 L 185.5 119.5 L 186.5 122.5 L 188.5 125.5 L 189.0 126.5 " stroke="black" fill="none" stroke-width="6.0" stroke-linecap="round" stroke-linejoin="round" />
</svg>