<svg xmlns="http://www.w3.org/2000/svg" width="300" height="300" viewBox="0 0 300 300">
<path d="M 95.0 94.5 L 95.0 94.5 L 95.0 94.5 L 95.0 94.5 L 95.0 95.5 L 95.5 98.0 L 96.0 102.0 L 96.5 105.0 L 97.0 106.0 " stroke="black" fill="none" stroke-width="8.0" stroke-linecap="round" stroke-linejoin="round" />
<path d="M 95.5 99.5 L 95.0 99.0 L 93.5 97.5 L 95.5 97.0 L 98.0 95.5 L 102.0 94.0 L 105.0 93.0 L 107.5 92.5 L 109.5 92.5 L 110.5 94.0 L 111.5 96.0 L 112.0 98.5 L 112.0 100.5 L 111.5 101.5 L 110.0 102.5 L 109.0 103.5 " stroke="black" fill="none" stroke-width="8.0" stroke-linecap="round" stroke-linejoin="round" />
<path d="M 100.5 110.5 L 99.5 111.0 L 98.0 112.0 L 97.5 112.0 L 99.0 112.0 L 101.5 111.5 L 104.5 110.5 L 107.5 110.0 L 109.5 109.5 " stroke="black" fill="none" stroke-width="8.0" stroke-linecap="round" stroke-linejoin="round" />
<path d="M 124.0 93.5 L 124.0 93.5 L 123.5 93.5 L 123.0 94.0 L 123.0 96.0 L 124.0 100.0 L 124.5 104.5 L 125.5 108.0 L 126.0 108.5 " stroke="black" fill="none" stroke-width="8.0" stroke-linecap="round" stroke-linejoin="round" />
<path d="M 125.5 97.0 L 124.0 97.0 L 123.5 96.5 L 123.5 96.0 L 125.5 95.0 L 128.5 93.5 L 131.5 92.5 L 134.5 92.0 L 137.5 92.0 L 139.0 92.0 L 140.5 92.0 L 141.5 93.5 L 141.5 95.0 L 141.5 97.5 L 141.5 100.5 L 140.0 103.5 L 139.0 106.0 L 138.5 106.5 " stroke="black" fill="none" stroke-width="8.0" stroke-linecap="round" stroke-linejoin="round" />
<path d="M 129.5 110.5 L 129.0 110.5 L 128.5 110.5 L 128.0 110.5 L 130.0 110.5 L 134.0 110.5 L 137.5 110.0 L 140.0 109.5 " stroke="black" fill="none" stroke-width="8.0" stroke-linecap="round" stroke-linejoin="round" />
<path d="M 97.0 125.5 L 97.0 125.0 L 97.0 124.5 L 97.0 124.0 L 97.5 127.0 L 99.0 133.5 L 100.5 140.5 L 101.5 146.0 L 102.0 148.0 L 102.5 147.5 " stroke="black" fill="none" stroke-width="8.0" stroke-linecap="round" stroke-linejoin="round" />
<path d="M 102.0 128.0 L 101.5 128.0 L 100.5 127.5 L 100.0 127.0 L 101.5 126.0 L 105.5 125.0 L 111.0 123.5 L 117.5 123.0 L 122.5 122.5 L 126.5 123.5 L 129.0 124.0 L 130.5 124.0 L 132.5 124.0 L 134.0 123.5 L 134.5 123.5 L 135.0 124.0 L 135.0 125.5 L 135.0 128.0 L 134.5 132.0 L 133.5 138.0 L 132.5 143.5 L 132.0 146.5 L 132.0 147.0 L 131.5 147.0 " stroke="black" fill="none" stroke-width="8.0" stroke-linecap="round" stroke-linejoin="round" />
<path d="M 109.0 137.5 L 108.5 137.5 L 107.0 137.5 L 106.0 137.5 L 106.0 137.5 L 108.5 137.0 L 112.5 137.0 L 117.0 136.5 L 122.0 135.0 L 124.0 134.0 " stroke="black" fill="none" stroke-width="8.0" stroke-linecap="round" stroke-linejoin="round" />
<path d="M 116.5 125.0 L 116.0 124.5 L 115.5 124.5 L 115.5 124.5 L 115.5 127.5 L 116.0 133.0 L 116.5 139.0 L 116.5 144.0 L 116.5 145.0 " stroke="black" fill="none" stroke-width="8.0" stroke-linecap="round" stroke-linejoin="round" />
<path d="M 105.5 152.5 L 105.0 153.0 L 104.5 153.0 L 105.0 153.5 L 108.5 153.0 L 114.0 151.5 L 120.0 149.5 L 125.5 148.5 L 127.0 148.0 " stroke="black" fill="none" stroke-width="8.0" stroke-linecap="round" stroke-linejoin="round" />
<path d="M 93.5 168.5 L 93.5 168.5 L 93.5 168.0 L 94.0 167.5 L 98.5 167.5 L 108.0 167.5 L 119.5 167.0 L 128.5 165.5 L 134.0 164.0 L 136.5 163.5 L 137.0 164.0 L 135.0 165.0 L 134.5 165.5 " stroke="black" fill="none" stroke-width="8.0" stroke-linecap="round" stroke-linejoin="round" />
<path d="M 105.5 184.0 L 105.5 183.5 L 105.0 183.0 L 105.0 183.0 L 105.5 185.0 L 106.5 189.5 L 108.0 194.0 L 109.0 197.0 L 109.0 197.0 " stroke="black" fill="none" stroke-width="8.0" stroke-linecap="round" stroke-linejoin="round" />
<path d="M 104.0 191.0 L 103.0 190.0 L 102.5 189.0 L 103.5 187.5 L 108.0 185.5 L 114.5 182.5 L 121.0 180.0 L 125.5 179.0 L 127.5 179.0 L 128.5 180.5 L 129.0 183.5 L 129.0 187.0 L 129.0 190.0 L 128.0 192.5 L 126.5 194.5 L 125.5 195.5 " stroke="black" fill="none" stroke-width="8.0" stroke-linecap="round" stroke-linejoin="round" />
<path d="M 112.0 202.5 L 112.0 202.5 L 111.0 202.5 L 110.5 202.5 L 111.5 202.5 L 116.0 201.5 L 121.5 200.0 L 126.0 198.5 " stroke="black" fill="none" stroke-width="8.0" stroke-linecap="round" stroke-linejoin="round" />
<path d="M 152.0 122.0 L 152.0 122.0 L 152.0 121.5 L 152.5 121.5 L 157.0 121.0 L 166.5 121.0 L 178.5 121.0 L 189.5 119.5 L 194.0 118.0 L 194.5 117.5 L 193.5 117.5 " stroke="black" fill="none" stroke-width="8.0" stroke-linecap="round" stroke-linejoin="round" />
<path d="M 172.0 97.5 L 172.0 96.5 L 172.0 96.0 L 172.0 96.5 L 172.0 99.5 L 172.0 106.5 L 170.0 119.0 L 166.0 135.5 L 160.0 152.5 L 153.0 167.5 L 148.0 176.5 L 145.5 179.5 L 145.0 179.0 L 145.0 178.0 " stroke="black" fill="none" stroke-width="8.0" stroke-linecap="round" stroke-linejoin="round" />
<path d="M 167.5 137.0 L 167.5 136.5 L 167.5 136.5 L 167.5 136.0 L 169.5 139.0 L 174.5 148.5 L 181.5 163.5 L 187.5 177.0 L 192.0 185.5 L 194.5 189.0 " stroke="black" fill="none" stroke-width="8.0" stroke-linecap="round" stroke-linejoin="round" />
<path d="M 188.5 98.0 L 188.0 98.0 L 188.0 97.5 L 187.5 97.5 L 188.5 99.0 L 190.5 103.0 L 193.5 107.5 L 194.0 108.5 " stroke="black" fill="none" stroke-width="8.0" stroke-linecap="round" stroke-linejoin="round" />
</svg>