<svg xmlns="http://www.w3.org/2000/svg" width="300" height="300" viewBox="0 0 300 300">
<path d="M 115.0 129.0 L 115.0 130.0 L 115.0 130.5 L 115.5 130.5 L 118.0 129.5 L 124.0 127.5 L 132.0 124.5 L 138.0 122.5 L 141.0 121.5 L 142.0 121.5 L 142.0 122.0 L 141.5 123.0 " stroke="black" fill="none" stroke-width="7.0" stroke-linecap="round" stroke-linejoin="round" />
<path d="M 121.0 152.0 L 119.5 152.5 L 119.5 152.5 L 120.0 152.5 L 124.0 151.5 L 129.0 149.5 L 133.5 148.0 L 137.5 146.5 L 138.5 146.0 " stroke="black" fill="none" stroke-width="7.0" stroke-linecap="round" stroke-linejoin="round" />
<path d="M 131.5 128.0 L 131.5 127.0 L 131.5 127.0 L 131.5 128.0 L 131.5 133.5 L 131.5 145.0 L 131.5 158.0 L 131.0 168.0 L 130.5 174.5 L 130.5 175.5 " stroke="black" fill="none" stroke-width="7.0" stroke-linecap="round" stroke-linejoin="round" />
<path d="M 120.5 182.0 L 120.0 182.0 L 119.5 181.5 L 119.5 180.5 L 123.5 178.5 L 129.5 175.5 L 136.0 172.0 L 141.5 169.0 L 144.0 167.0 " stroke="black" fill="none" stroke-width="7.0" stroke-linecap="round" stroke-linejoin="round" />
<path d="M 156.0 114.0 L 156.5 114.0 L 157.0 113.5 L 157.5 113.5 L 157.5 116.0 L 156.0 121.5 L 154.0 127.5 L 152.5 130.5 " stroke="black" fill="none" stroke-width="7.0" stroke-linecap="round" stroke-linejoin="round" />
<path d="M 154.5 126.0 L 154.0 126.0 L 154.0 125.5 L 154.5 125.0 L 157.5 124.5 L 165.0 124.0 L 173.0 123.5 L 178.0 123.0 L 181.0 123.0 L 181.5 123.5 L 181.5 124.0 " stroke="black" fill="none" stroke-width="7.0" stroke-linecap="round" stroke-linejoin="round" />
<path d="M 174.5 127.0 L 174.5 127.0 L 174.5 127.0 L 174.5 127.0 L 174.5 129.5 L 171.0 140.5 L 164.5 158.5 L 158.5 173.5 L 154.5 182.5 L 152.5 187.0 L 151.5 187.5 L 150.5 185.5 " stroke="black" fill="none" stroke-width="7.0" stroke-linecap="round" stroke-linejoin="round" />
<path d="M 155.0 144.0 L 155.0 144.0 L 155.0 143.5 L 155.0 143.5 L 158.5 146.5 L 166.5 155.5 L 177.0 168.5 L 186.0 177.0 L 191.0 180.5 L 193.0 182.0 " stroke="black" fill="none" stroke-width="7.0" stroke-linecap="round" stroke-linejoin="round" />
</svg>