<svg xmlns="http://www.w3.org/2000/svg" width="300" height="300" viewBox="0 0 300 300">
<path d="M 113.0 125.5 L 113.0 125.5 L 112.5 125.5 L 112.5 125.5 L 114.0 124.5 L 118.5 123.0 L 124.5 121.0 L 129.0 119.5 L 131.5 119.5 L 132.0 119.5 L 132.0 120.0 " stroke="black" fill="none" stroke-width="7.0" stroke-linecap="round" stroke-linejoin="round" />
<path d="M 116.0 144.0 L 115.5 145.0 L 115.0 145.0 L 116.0 145.0 L 120.5 143.0 L 125.0 140.5 L 128.0 138.0 L 129.5 137.0 " stroke="black" fill="none" stroke-width="7.0" stroke-linecap="round" stroke-linejoin="round" />
<path d="M 123.0 124.0 L 122.0 124.5 L 121.5 126.0 L 121.5 131.0 L 121.5 141.5 L 121.5 153.5 L 121.5 162.5 L 121.5 167.5 L 121.5 168.0 L 121.5 168.0 " stroke="black" fill="none" stroke-width="7.0" stroke-linecap="round" stroke-linejoin="round" />
<path d="M 110.0 170.0 L 110.0 170.0 L 110.0 170.0 L 110.0 170.0 L 112.5 169.0 L 119.0 166.0 L 128.0 162.5 L 135.5 159.5 L 138.5 157.5 " stroke="black" fill="none" stroke-width="7.0" stroke-linecap="round" stroke-linejoin="round" />
<path d="M 146.0 115.0 L 146.0 115.5 L 146.0 116.0 L 147.5 116.0 L 152.0 116.0 L 159.0 114.5 L 166.5 113.5 L 171.5 113.5 L 174.0 114.0 " stroke="black" fill="none" stroke-width="7.0" stroke-linecap="round" stroke-linejoin="round" />
<path d="M 142.0 131.5 L 142.0 131.5 L 142.0 131.5 L 143.0 131.5 L 147.5 131.5 L 155.5 131.0 L 163.0 131.5 L 168.5 132.0 L 172.0 132.0 L 172.5 131.5 " stroke="black" fill="none" stroke-width="7.0" stroke-linecap="round" stroke-linejoin="round" />
<path d="M 155.5 133.5 L 156.0 133.5 L 156.5 133.5 L 156.5 133.5 L 156.5 134.5 L 156.0 139.0 L 153.0 148.0 L 148.5 159.0 L 144.0 167.0 L 142.5 168.5 L 143.5 168.0 " stroke="black" fill="none" stroke-width="7.0" stroke-linecap="round" stroke-linejoin="round" />
<path d="M 163.5 136.5 L 163.5 136.5 L 163.5 135.5 L 163.5 135.0 L 164.0 134.5 L 164.0 135.0 L 164.0 138.0 L 163.0 145.5 L 161.0 157.0 L 161.0 166.0 L 163.5 170.5 L 168.0 171.5 L 174.0 171.5 L 181.0 169.0 L 187.0 165.5 L 189.5 163.5 L 189.5 162.5 L 189.0 162.0 L 187.5 161.0 L 186.5 160.0 L 186.0 158.5 L 186.0 157.5 L 186.0 157.0 " stroke="black" fill="none" stroke-width="7.0" stroke-linecap="round" stroke-linejoin="round" />
</svg>