<svg xmlns="http://www.w3.org/2000/svg" width="300" height="300" viewBox="0 0 300 300">
<path d="M 131.0 111.5 L 131.0 112.0 L 131.0 112.0 L 131.0 112.5 L 131.0 113.5 L 130.5 116.0 L 127.0 123.5 L 119.5 132.5 L 113.5 137.0 L 112.0 136.5 L 112.0 133.5 " stroke="black" fill="none" stroke-width="8.0" stroke-linecap="round" stroke-linejoin="round" />
<path d="M 116.0 113.5 L 116.0 113.5 L 116.0 113.5 L 116.0 113.5 L 117.0 114.0 L 119.5 116.5 L 124.0 124.5 L 129.0 139.0 L 132.5 152.5 L 135.0 164.0 L 136.5 176.5 L 137.0 187.0 L 135.5 193.5 L 132.5 197.0 L 130.0 197.0 L 126.5 193.5 L 123.0 188.0 L 120.5 184.0 " stroke="black" fill="none" stroke-width="8.0" stroke-linecap="round" stroke-linejoin="round" />
<path d="M 128.0 148.0 L 128.0 148.0 L 128.0 148.0 L 128.5 147.5 L 129.0 148.0 L 129.0 151.0 L 129.0 156.5 L 126.0 164.0 L 121.5 168.5 L 118.0 170.0 L 117.0 169.5 " stroke="black" fill="none" stroke-width="8.0" stroke-linecap="round" stroke-linejoin="round" />
<path d="M 150.0 104.0 L 150.0 104.0 L 150.0 104.0 L 150.0 104.0 L 150.0 104.5 L 150.0 108.0 L 150.0 113.5 L 150.0 118.0 L 150.0 120.5 L 150.0 120.5 " stroke="black" fill="none" stroke-width="8.0" stroke-linecap="round" stroke-linejoin="round" />
<path d="M 137.5 112.0 L 137.5 112.5 L 137.5 113.5 L 137.5 114.0 L 139.0 114.0 L 141.5 113.5 L 144.5 113.0 L 147.0 113.0 L 147.5 112.5 " stroke="black" fill="none" stroke-width="8.0" stroke-linecap="round" stroke-linejoin="round" />
<path d="M 165.0 102.5 L 165.0 102.5 L 164.5 102.5 L 164.5 102.5 L 164.5 102.5 L 164.5 103.0 L 164.5 106.5 L 164.5 112.0 L 164.5 117.0 L 164.5 119.5 " stroke="black" fill="none" stroke-width="8.0" stroke-linecap="round" stroke-linejoin="round" />
<path d="M 166.0 111.0 L 166.0 111.0 L 165.0 111.5 L 164.5 112.0 L 164.5 112.0 L 164.5 112.0 L 166.0 112.0 L 169.0 112.5 L 172.0 112.5 L 174.5 113.0 L 176.0 113.5 " stroke="black" fill="none" stroke-width="8.0" stroke-linecap="round" stroke-linejoin="round" />
<path d="M 153.5 131.5 L 153.5 131.5 L 153.5 131.5 L 154.0 131.0 L 154.5 131.0 L 155.0 130.5 L 155.0 130.5 L 155.5 130.5 L 155.5 130.5 L 155.5 130.5 L 155.0 131.5 L 153.0 134.5 L 150.5 138.0 L 147.0 141.5 L 145.0 143.5 L 144.5 144.0 L 144.5 144.0 L 144.5 143.5 L 144.5 143.5 L 144.5 143.0 L 145.0 143.0 L 145.5 143.0 L 146.0 143.0 L 147.0 142.5 L 147.5 142.5 L 148.0 142.5 L 148.5 142.5 L 149.0 142.5 L 149.5 142.0 L 149.5 142.0 L 150.0 142.0 L 150.5 141.5 L 150.5 141.5 L 151.0 141.0 L 151.5 141.0 L 151.5 140.5 L 152.0 140.5 L 152.0 140.5 L 152.5 140.5 L 152.5 140.5 L 153.0 140.5 L 153.0 140.5 L 153.0 140.5 L 153.0 141.0 L 153.0 142.0 L 153.0 144.5 L 152.5 149.0 L 152.0 155.0 L 152.0 160.0 L 152.0 163.5 L 152.0 164.0 L 152.0 163.5 L 152.0 162.5 " stroke="black" fill="none" stroke-width="8.0" stroke-linecap="round" stroke-linejoin="round" />
<path d="M 167.0 128.5 L 167.0 128.5 L 167.0 128.5 L 167.0 128.5 L 167.0 128.5 L 167.0 128.5 L 167.5 130.0 L 168.0 131.5 L 168.5 133.5 L 169.0 135.0 L 169.5 135.0 " stroke="black" fill="none" stroke-width="8.0" stroke-linecap="round" stroke-linejoin="round" />
<path d="M 163.5 139.0 L 162.5 139.0 L 162.0 139.0 L 162.0 139.0 L 164.0 138.5 L 167.0 138.0 L 170.0 137.5 L 172.5 137.5 L 174.5 137.5 L 175.5 137.5 " stroke="black" fill="none" stroke-width="8.0" stroke-linecap="round" stroke-linejoin="round" />
<path d="M 167.5 147.0 L 167.0 147.5 L 166.0 147.5 L 165.5 148.0 L 166.0 148.0 L 168.0 148.0 L 170.5 148.0 L 173.0 147.5 L 174.5 147.5 L 175.0 147.5 " stroke="black" fill="none" stroke-width="8.0" stroke-linecap="round" stroke-linejoin="round" />
<path d="M 166.5 156.0 L 166.0 156.5 L 165.0 157.5 L 164.5 157.5 L 165.0 157.5 L 167.0 157.5 L 169.5 156.5 L 172.0 156.0 L 173.5 155.0 " stroke="black" fill="none" stroke-width="8.0" stroke-linecap="round" stroke-linejoin="round" />
<path d="M 172.5 138.0 L 172.0 138.0 L 171.5 138.0 L 171.0 138.5 L 171.0 139.0 L 171.0 140.5 L 171.0 143.5 L 171.0 147.5 L 171.0 153.0 L 171.0 158.5 L 171.0 161.5 L 171.0 162.0 " stroke="black" fill="none" stroke-width="8.0" stroke-linecap="round" stroke-linejoin="round" />
<path d="M 163.5 166.0 L 163.0 166.0 L 162.0 166.0 L 162.0 166.0 L 164.0 166.0 L 167.5 166.0 L 171.0 165.5 L 174.5 165.0 L 177.0 165.0 " stroke="black" fill="none" stroke-width="8.0" stroke-linecap="round" stroke-linejoin="round" />
<path d="M 154.0 179.0 L 154.0 179.0 L 154.0 179.0 L 154.0 179.0 L 155.0 178.5 L 157.0 178.5 L 161.0 178.0 L 165.0 178.0 L 169.0 178.0 L 171.5 177.5 L 172.0 177.5 L 172.5 177.5 L 172.5 177.5 L 172.5 177.5 L 172.0 177.5 L 172.0 177.5 L 172.0 178.0 L 171.5 178.0 L 171.5 178.5 L 171.0 179.0 L 171.0 180.0 L 170.0 181.0 L 169.0 182.5 L 167.0 186.0 L 164.0 191.0 L 159.5 195.5 L 155.5 199.5 L 152.5 201.5 L 151.0 202.0 L 150.0 202.5 L 150.0 202.5 L 150.5 201.0 " stroke="black" fill="none" stroke-width="8.0" stroke-linecap="round" stroke-linejoin="round" />
<path d="M 155.5 189.5 L 155.5 189.5 L 154.5 189.0 L 154.0 189.0 L 154.0 189.0 L 157.0 190.0 L 162.0 192.0 L 168.0 195.0 L 175.5 198.0 L 180.5 200.0 L 184.5 200.0 L 187.0 199.5 L 188.0 198.0 " stroke="black" fill="none" stroke-width="8.0" stroke-linecap="round" stroke-linejoin="round" />
</svg>