<svg xmlns="http://www.w3.org/2000/svg" width="300" height="300" viewBox="0 0 300 300">
<path d="M 117.0 138.5 L 117.0 138.5 L 117.0 138.5 L 117.0 138.5 L 117.0 138.5 L 120.5 136.5 L 128.0 132.5 L 135.5 129.0 L 139.0 128.0 L 139.5 128.0 " stroke="black" fill="none" stroke-width="6.0" stroke-linecap="round" stroke-linejoin="round" />
<path d="M 120.5 153.5 L 120.5 154.0 L 121.0 155.5 L 122.0 155.5 L 125.0 154.0 L 128.5 152.0 L 131.0 150.0 " stroke="black" fill="none" stroke-width="6.0" stroke-linecap="round" stroke-linejoin="round" />
<path d="M 129.5 138.0 L 129.5 138.0 L 128.5 138.0 L 128.0 139.0 L 128.0 142.5 L 128.0 150.0 L 128.0 159.5 L 127.5 166.5 L 127.5 170.5 L 129.0 171.5 " stroke="black" fill="none" stroke-width="6.0" stroke-linecap="round" stroke-linejoin="round" />
<path d="M 119.5 178.5 L 119.5 178.5 L 119.5 178.5 L 121.5 177.0 L 128.5 173.5 L 137.5 169.5 L 143.0 167.5 " stroke="black" fill="none" stroke-width="6.0" stroke-linecap="round" stroke-linejoin="round" />
<path d="M 158.5 109.5 L 158.5 110.0 L 159.0 110.5 L 159.0 111.0 L 158.5 114.0 L 155.5 120.0 L 153.0 125.5 L 152.0 127.0 L 151.5 127.0 " stroke="black" fill="none" stroke-width="6.0" stroke-linecap="round" stroke-linejoin="round" />
<path d="M 159.0 118.5 L 159.0 118.5 L 159.0 119.5 L 160.0 119.5 L 164.0 118.0 L 170.5 116.0 L 175.5 115.0 L 178.0 115.5 L 178.5 117.0 L 177.5 120.5 L 175.0 125.0 L 170.5 131.0 L 165.0 137.0 L 159.0 142.5 L 155.5 146.0 L 154.0 147.0 L 153.5 147.0 " stroke="black" fill="none" stroke-width="6.0" stroke-linecap="round" stroke-linejoin="round" />
<path d="M 162.5 126.0 L 162.5 126.0 L 161.5 126.0 L 161.5 126.0 L 163.5 126.5 L 165.5 127.0 L 167.0 127.5 " stroke="black" fill="none" stroke-width="6.0" stroke-linecap="round" stroke-linejoin="round" />
<path d="M 153.5 137.5 L 153.5 137.5 L 154.5 137.5 L 155.0 137.5 L 157.0 136.5 L 159.5 135.5 L 163.0 134.0 " stroke="black" fill="none" stroke-width="6.0" stroke-linecap="round" stroke-linejoin="round" />
<path d="M 157.5 152.0 L 158.5 152.0 L 159.0 151.5 L 159.0 151.0 L 158.5 151.5 L 157.0 154.0 L 155.5 157.0 L 154.0 159.5 L 153.5 159.5 " stroke="black" fill="none" stroke-width="6.0" stroke-linecap="round" stroke-linejoin="round" />
<path d="M 153.0 158.0 L 153.5 158.0 L 155.0 157.5 L 159.0 156.0 L 168.5 153.5 L 177.0 151.5 L 182.0 151.0 L 183.0 151.0 L 182.0 151.0 " stroke="black" fill="none" stroke-width="6.0" stroke-linecap="round" stroke-linejoin="round" />
<path d="M 155.5 170.5 L 156.5 170.5 L 158.0 170.5 L 162.5 169.5 L 170.5 166.5 L 179.5 163.5 L 185.0 161.5 " stroke="black" fill="none" stroke-width="6.0" stroke-linecap="round" stroke-linejoin="round" />
<path d="M 172.0 154.0 L 172.0 154.0 L 171.5 154.0 L 171.0 156.5 L 170.5 164.0 L 170.5 171.5 L 170.5 177.0 L 170.5 180.0 L 171.0 181.0 " stroke="black" fill="none" stroke-width="6.0" stroke-linecap="round" stroke-linejoin="round" />
<path d="M 158.0 179.0 L 158.5 179.0 L 159.0 178.5 L 159.0 178.5 L 159.0 179.5 L 159.0 182.0 L 159.0 185.0 L 159.5 187.0 L 161.5 188.0 L 165.5 187.5 L 170.5 185.5 L 175.0 183.5 L 178.5 183.0 L 180.5 183.0 " stroke="black" fill="none" stroke-width="6.0" stroke-linecap="round" stroke-linejoin="round" />
<path d="M 187.5 170.5 L 186.5 170.5 L 186.0 170.5 L 185.5 170.5 L 185.5 173.0 L 185.5 178.0 L 185.5 185.0 L 185.5 190.0 L 186.0 191.5 " stroke="black" fill="none" stroke-width="6.0" stroke-linecap="round" stroke-linejoin="round" />
</svg>