<svg xmlns="http://www.w3.org/2000/svg" width="300" height="300" viewBox="0 0 300 300">
<path d="M 121.0 127.0 L 120.0 128.0 L 119.0 128.5 L 119.0 128.5 L 119.0 128.5 L 121.0 127.5 L 124.5 126.5 L 128.5 125.0 L 131.5 124.5 L 133.5 124.0 L 134.0 124.0 " stroke="black" fill="none" stroke-width="6.0" stroke-linecap="round" stroke-linejoin="round" />
<path d="M 121.5 144.0 L 121.5 144.0 L 120.5 144.5 L 120.5 145.0 L 120.5 145.0 L 122.0 145.0 L 124.5 144.0 L 127.5 142.5 L 130.5 141.0 L 131.5 140.5 " stroke="black" fill="none" stroke-width="6.0" stroke-linecap="round" stroke-linejoin="round" />
<path d="M 126.0 127.5 L 126.0 128.0 L 126.0 129.5 L 125.5 130.5 L 125.5 133.5 L 125.5 139.5 L 126.0 149.0 L 126.5 158.0 L 126.5 163.5 L 126.5 165.0 L 127.0 165.0 " stroke="black" fill="none" stroke-width="6.0" stroke-linecap="round" stroke-linejoin="round" />
<path d="M 120.5 170.0 L 120.0 170.0 L 119.0 170.0 L 118.5 170.5 L 119.0 170.0 L 122.0 169.0 L 127.0 167.5 L 131.0 166.0 L 134.5 164.0 L 135.5 163.5 " stroke="black" fill="none" stroke-width="6.0" stroke-linecap="round" stroke-linejoin="round" />
<path d="M 147.0 109.0 L 147.0 109.5 L 146.5 110.5 L 146.5 111.0 L 147.5 112.0 L 149.5 113.5 L 151.0 115.0 L 152.0 116.0 L 152.0 116.5 " stroke="black" fill="none" stroke-width="6.0" stroke-linecap="round" stroke-linejoin="round" />
<path d="M 144.5 121.5 L 144.0 122.0 L 142.5 122.5 L 142.0 122.5 L 142.5 122.5 L 146.0 122.5 L 151.0 122.0 L 155.5 121.5 L 158.5 121.5 L 161.0 121.5 L 161.5 121.5 " stroke="black" fill="none" stroke-width="6.0" stroke-linecap="round" stroke-linejoin="round" />
<path d="M 147.5 130.5 L 147.5 131.0 L 146.5 132.0 L 146.0 132.5 L 146.0 132.5 L 147.0 133.5 L 149.0 135.0 L 150.5 136.0 L 152.0 136.5 " stroke="black" fill="none" stroke-width="6.0" stroke-linecap="round" stroke-linejoin="round" />
<path d="M 158.5 129.5 L 159.0 130.5 L 159.0 131.0 L 159.5 131.5 L 159.5 132.5 L 159.0 134.5 L 158.5 137.0 L 158.0 138.0 " stroke="black" fill="none" stroke-width="6.0" stroke-linecap="round" stroke-linejoin="round" />
<path d="M 147.0 144.0 L 146.5 144.0 L 145.5 143.5 L 145.5 143.5 L 147.5 143.0 L 151.5 142.5 L 156.0 142.0 L 160.5 142.0 L 163.5 141.5 " stroke="black" fill="none" stroke-width="6.0" stroke-linecap="round" stroke-linejoin="round" />
<path d="M 149.5 152.5 L 150.0 153.5 L 150.0 154.0 L 150.0 154.5 L 150.5 156.5 L 151.5 163.0 L 151.5 174.0 L 152.0 182.0 L 152.0 185.5 L 153.0 187.0 " stroke="black" fill="none" stroke-width="6.0" stroke-linecap="round" stroke-linejoin="round" />
<path d="M 152.0 157.5 L 152.0 157.5 L 152.0 157.5 L 152.0 157.5 L 153.0 157.0 L 155.0 155.5 L 158.0 155.0 L 161.0 154.0 L 163.0 154.0 L 164.5 154.0 L 166.0 155.5 L 166.5 158.5 L 168.0 164.0 L 169.0 172.0 L 170.5 180.5 L 171.5 188.0 L 171.5 194.0 L 171.5 196.5 L 170.5 197.0 L 169.0 196.5 L 167.5 193.5 L 167.0 193.0 " stroke="black" fill="none" stroke-width="6.0" stroke-linecap="round" stroke-linejoin="round" />
<path d="M 158.5 165.5 L 158.5 165.0 L 158.5 164.5 L 158.5 164.5 L 159.5 164.5 L 161.0 165.5 L 162.5 167.0 " stroke="black" fill="none" stroke-width="6.0" stroke-linecap="round" stroke-linejoin="round" />
<path d="M 159.0 181.5 L 158.5 181.5 L 158.5 181.5 L 158.5 181.0 L 160.5 179.5 L 163.0 177.0 " stroke="black" fill="none" stroke-width="6.0" stroke-linecap="round" stroke-linejoin="round" />
<path d="M 175.5 114.5 L 175.5 116.0 L 175.5 116.5 L 176.0 116.5 L 178.5 115.5 L 181.5 114.5 L 184.5 113.5 L 186.0 113.5 L 186.5 113.5 " stroke="black" fill="none" stroke-width="6.0" stroke-linecap="round" stroke-linejoin="round" />
<path d="M 174.5 105.5 L 174.5 106.0 L 174.5 107.0 L 174.5 107.0 L 174.5 108.0 L 174.5 110.5 L 174.5 115.5 L 174.0 121.5 L 174.0 126.5 L 174.0 128.0 L 174.5 128.5 L 175.5 127.5 L 176.5 126.5 L 178.0 125.5 L 180.5 125.0 L 182.5 125.0 L 185.0 125.0 L 187.5 125.0 L 189.5 125.0 L 190.5 125.0 L 191.0 125.0 L 191.0 125.0 L 191.0 125.0 L 190.5 126.5 L 190.0 128.5 L 189.5 132.0 L 189.0 136.0 L 188.5 139.0 L 188.5 141.0 L 188.5 141.0 L 188.5 141.0 " stroke="black" fill="none" stroke-width="6.0" stroke-linecap="round" stroke-linejoin="round" />
<path d="M 174.5 141.5 L 174.5 140.5 L 175.0 140.0 L 175.5 139.5 L 177.0 139.5 L 180.0 139.5 L 183.5 140.5 L 186.5 140.5 L 187.0 140.5 " stroke="black" fill="none" stroke-width="6.0" stroke-linecap="round" stroke-linejoin="round" />
<path d="M 173.5 142.0 L 174.0 141.5 L 174.5 141.0 L 174.5 141.0 L 174.5 141.5 L 175.0 143.5 L 175.0 146.5 L 175.5 150.0 L 175.5 154.0 L 175.5 157.5 L 176.0 161.5 L 176.0 164.0 L 176.5 166.5 L 176.5 168.5 L 177.0 170.5 L 177.0 172.0 L 177.5 174.0 L 177.5 176.0 L 178.0 178.5 L 178.5 180.5 L 178.5 182.5 L 178.5 183.5 L 179.0 185.0 L 179.5 185.5 L 180.0 185.5 L 181.0 186.0 L 182.5 186.0 L 184.5 186.5 L 186.5 186.5 L 188.5 187.0 L 191.0 187.0 L 193.5 186.0 L 195.0 185.0 L 196.0 184.0 L 196.5 182.0 L 196.5 180.5 L 196.5 179.5 L 196.0 179.5 " stroke="black" fill="none" stroke-width="6.0" stroke-linecap="round" stroke-linejoin="round" />
<path d="M 180.0 152.0 L 180.0 154.0 L 180.0 154.5 L 180.0 154.5 L 181.5 154.0 L 184.0 153.0 L 187.0 153.0 L 189.5 153.0 L 190.5 153.0 " stroke="black" fill="none" stroke-width="6.0" stroke-linecap="round" stroke-linejoin="round" />
<path d="M 181.0 164.0 L 180.5 164.0 L 180.0 163.5 L 180.0 163.5 L 181.0 163.0 L 184.0 163.0 L 187.5 163.0 L 190.5 163.0 L 191.5 163.0 " stroke="black" fill="none" stroke-width="6.0" stroke-linecap="round" stroke-linejoin="round" />
<path d="M 181.5 170.5 L 181.0 171.0 L 180.5 171.5 L 180.0 172.0 L 180.5 172.0 L 182.5 172.0 L 186.5 172.5 L 190.5 172.5 L 191.0 172.5 " stroke="black" fill="none" stroke-width="6.0" stroke-linecap="round" stroke-linejoin="round" />
</svg>