<svg xmlns="http://www.w3.org/2000/svg" width="300" height="300" viewBox="0 0 300 300">
<path d="M 119.5 122.5 L 119.5 122.5 L 119.0 122.5 L 118.5 122.5 L 120.5 122.5 L 126.5 122.0 L 134.5 122.0 L 141.5 122.0 L 145.0 122.0 L 146.0 122.0 L 145.5 122.0 L 145.0 122.0 " stroke="black" fill="none" stroke-width="6.0" stroke-linecap="round" stroke-linejoin="round" />
<path d="M 129.0 125.5 L 129.0 125.5 L 129.0 125.5 L 129.5 125.0 L 129.5 125.0 L 129.5 125.5 L 129.5 128.5 L 129.5 136.0 L 128.0 148.0 L 126.5 161.0 L 125.0 171.0 L 124.5 175.5 L 124.5 175.5 L 124.5 174.0 " stroke="black" fill="none" stroke-width="6.0" stroke-linecap="round" stroke-linejoin="round" />
<path d="M 113.0 181.0 L 113.5 181.5 L 114.0 181.5 L 114.5 181.5 L 117.5 181.0 L 122.0 180.0 L 128.0 179.0 L 132.5 177.5 L 135.5 175.5 L 136.0 175.0 " stroke="black" fill="none" stroke-width="6.0" stroke-linecap="round" stroke-linejoin="round" />
<path d="M 129.5 143.0 L 129.5 143.0 L 129.5 143.0 L 129.5 143.0 L 129.5 143.0 L 130.5 143.0 L 133.0 142.0 L 136.5 141.0 L 141.5 139.5 L 146.0 139.0 L 148.5 138.5 L 149.0 138.5 L 149.0 139.0 L 149.0 139.5 L 148.5 140.0 L 148.5 140.5 L 148.5 141.0 L 148.0 141.5 L 147.5 142.0 L 147.5 142.5 L 147.0 143.5 L 147.0 145.0 L 146.5 146.5 L 146.5 148.5 L 146.0 151.0 L 146.0 154.5 L 146.0 158.0 L 146.0 162.0 L 146.0 165.5 L 146.0 169.0 L 146.0 173.0 L 146.5 176.5 L 147.0 179.5 L 148.5 182.0 L 150.0 183.5 L 152.0 185.0 L 154.0 185.5 L 157.0 186.0 L 161.0 185.5 L 166.5 184.0 L 171.5 182.5 L 176.0 181.5 L 180.0 181.0 L 182.5 180.0 L 185.0 178.5 L 186.5 176.0 L 187.0 174.0 L 187.0 172.0 L 186.0 169.5 L 185.0 168.0 L 184.0 167.0 " stroke="black" fill="none" stroke-width="6.0" stroke-linecap="round" stroke-linejoin="round" />
<path d="M 133.5 155.5 L 133.5 156.0 L 133.5 156.5 L 133.5 157.0 L 134.5 158.0 L 136.0 159.5 L 137.5 161.0 L 138.0 161.0 " stroke="black" fill="none" stroke-width="6.0" stroke-linecap="round" stroke-linejoin="round" />
<path d="M 158.0 125.5 L 158.0 125.5 L 158.0 125.5 L 157.5 125.5 L 157.5 125.5 L 159.5 125.0 L 164.0 124.0 L 170.5 123.0 L 174.5 122.5 L 177.0 122.0 L 178.0 122.5 L 178.0 123.0 " stroke="black" fill="none" stroke-width="6.0" stroke-linecap="round" stroke-linejoin="round" />
<path d="M 157.5 140.5 L 157.5 140.5 L 157.5 141.0 L 157.5 141.0 L 158.5 141.0 L 162.5 141.0 L 168.5 140.5 L 174.5 139.5 L 179.0 139.0 L 180.5 138.0 " stroke="black" fill="none" stroke-width="6.0" stroke-linecap="round" stroke-linejoin="round" />
<path d="M 170.5 126.5 L 170.0 126.5 L 169.5 126.5 L 169.0 126.5 L 169.0 127.5 L 169.0 133.0 L 169.0 143.5 L 170.0 155.0 L 170.5 163.0 L 171.0 167.0 L 171.0 168.0 L 171.0 168.5 " stroke="black" fill="none" stroke-width="6.0" stroke-linecap="round" stroke-linejoin="round" />
</svg>