<svg xmlns="http://www.w3.org/2000/svg" width="300" height="300" viewBox="0 0 300 300">
<path d="M 118.5 126.5 L 118.5 126.5 L 118.5 126.5 L 118.5 126.5 L 121.0 126.5 L 124.5 125.5 L 128.5 125.0 L 131.5 124.0 L 133.0 123.5 L 133.0 123.5 " stroke="black" fill="none" stroke-width="6.0" stroke-linecap="round" stroke-linejoin="round" />
<path d="M 120.5 146.5 L 120.0 146.5 L 119.0 146.5 L 119.0 147.0 L 121.5 147.0 L 125.0 147.0 L 128.5 147.0 L 131.5 146.0 " stroke="black" fill="none" stroke-width="6.0" stroke-linecap="round" stroke-linejoin="round" />
<path d="M 129.0 127.5 L 129.0 127.5 L 128.0 128.0 L 127.0 129.0 L 127.0 132.5 L 127.0 139.5 L 126.5 148.0 L 126.0 155.5 L 125.5 161.0 L 125.5 165.0 " stroke="black" fill="none" stroke-width="6.0" stroke-linecap="round" stroke-linejoin="round" />
<path d="M 114.0 175.0 L 114.0 175.5 L 114.5 175.5 L 115.0 175.5 L 118.0 174.0 L 123.0 171.5 L 129.0 168.0 L 133.0 165.5 " stroke="black" fill="none" stroke-width="6.0" stroke-linecap="round" stroke-linejoin="round" />
<path d="M 151.0 98.5 L 151.0 98.5 L 151.0 98.0 L 151.0 98.0 L 151.0 98.5 L 150.0 101.5 L 148.0 105.5 L 146.0 109.5 L 144.5 112.0 " stroke="black" fill="none" stroke-width="6.0" stroke-linecap="round" stroke-linejoin="round" />
<path d="M 149.0 104.5 L 149.0 105.5 L 148.5 106.0 L 149.0 106.0 L 151.5 106.0 L 154.5 105.0 L 159.0 103.5 L 162.5 102.5 L 165.0 102.5 L 166.0 102.5 L 166.5 102.5 L 166.5 103.0 L 166.5 104.5 L 165.5 107.0 L 165.0 109.0 L 164.0 111.0 L 163.5 113.0 " stroke="black" fill="none" stroke-width="6.0" stroke-linecap="round" stroke-linejoin="round" />
<path d="M 143.0 121.5 L 143.0 121.0 L 142.5 120.5 L 141.5 120.5 L 140.5 121.5 L 139.5 124.5 L 139.0 127.0 L 138.5 128.5 L 138.5 128.5 " stroke="black" fill="none" stroke-width="6.0" stroke-linecap="round" stroke-linejoin="round" />
<path d="M 143.5 122.0 L 143.5 121.5 L 143.0 121.0 L 143.0 120.5 L 143.5 120.0 L 146.5 119.5 L 150.5 119.0 L 156.0 118.5 L 162.0 118.0 L 167.5 117.5 L 172.5 117.5 L 175.5 117.0 L 176.5 117.0 L 177.0 117.0 L 177.0 117.0 L 177.0 117.0 L 177.0 117.5 L 177.0 118.0 L 177.0 119.5 L 176.5 121.0 L 176.5 123.0 L 175.5 125.0 L 175.5 125.5 " stroke="black" fill="none" stroke-width="6.0" stroke-linecap="round" stroke-linejoin="round" />
<path d="M 155.0 123.5 L 155.5 123.5 L 155.5 123.5 L 155.5 123.5 L 154.5 125.0 L 152.5 127.5 L 150.5 130.5 L 148.0 133.0 L 147.5 133.5 " stroke="black" fill="none" stroke-width="6.0" stroke-linecap="round" stroke-linejoin="round" />
<path d="M 152.0 128.0 L 153.0 128.0 L 154.5 128.5 L 157.0 128.5 L 160.5 129.5 L 165.5 130.5 L 169.5 131.5 L 170.5 132.0 " stroke="black" fill="none" stroke-width="6.0" stroke-linecap="round" stroke-linejoin="round" />
<path d="M 142.0 145.0 L 142.0 144.5 L 142.0 144.0 L 142.0 143.5 L 141.5 143.0 L 141.5 143.0 L 141.5 143.0 L 141.0 144.5 L 141.0 148.5 L 140.5 153.5 L 141.0 159.0 L 141.5 163.0 L 142.0 165.0 " stroke="black" fill="none" stroke-width="6.0" stroke-linecap="round" stroke-linejoin="round" />
<path d="M 141.0 142.5 L 141.0 142.5 L 141.0 142.0 L 141.0 142.0 L 141.0 141.5 L 142.5 141.5 L 145.0 141.0 L 148.5 140.0 L 152.0 139.5 L 155.5 139.0 L 159.0 138.5 L 163.0 138.0 L 166.5 138.0 L 169.5 138.0 L 171.0 138.0 L 172.0 138.0 L 172.5 138.0 L 173.0 137.5 L 174.0 137.5 L 174.5 137.0 L 175.0 137.0 L 175.0 137.0 L 175.0 137.5 L 175.0 138.5 L 174.5 140.0 L 174.0 142.5 L 173.5 145.5 L 172.5 149.0 L 172.0 152.5 L 171.5 155.5 L 171.0 158.0 L 171.0 160.0 L 171.0 160.5 " stroke="black" fill="none" stroke-width="6.0" stroke-linecap="round" stroke-linejoin="round" />
<path d="M 142.0 154.5 L 142.0 155.0 L 141.0 155.5 L 140.5 156.0 L 140.5 156.0 L 140.5 155.5 L 141.5 155.5 L 143.5 155.0 L 145.5 154.0 L 149.0 152.5 L 152.5 150.5 L 156.5 149.0 L 159.0 148.5 L 160.5 148.0 L 162.0 148.0 L 163.5 148.5 L 164.5 148.5 " stroke="black" fill="none" stroke-width="6.0" stroke-linecap="round" stroke-linejoin="round" />
<path d="M 143.5 161.5 L 143.5 161.5 L 142.5 161.5 L 142.0 161.5 L 141.5 161.5 L 142.0 161.5 L 144.5 161.5 L 148.0 161.0 L 151.5 160.5 L 156.0 160.0 L 159.5 160.0 L 162.5 159.5 L 165.0 159.0 L 166.5 158.5 L 167.0 158.0 L 167.5 157.5 L 167.5 157.5 " stroke="black" fill="none" stroke-width="6.0" stroke-linecap="round" stroke-linejoin="round" />
<path d="M 144.0 169.5 L 144.0 169.5 L 144.0 169.5 L 144.0 169.5 L 144.0 169.5 L 144.5 169.0 L 145.5 168.5 L 147.0 168.5 L 148.5 168.0 L 150.0 168.0 L 151.5 168.0 L 154.0 168.5 L 156.5 169.0 L 159.5 169.5 L 162.5 169.5 L 165.0 169.0 L 167.0 168.0 L 168.0 167.5 L 168.5 167.5 L 169.0 167.5 L 169.5 167.5 L 170.0 167.5 L 170.0 167.5 " stroke="black" fill="none" stroke-width="6.0" stroke-linecap="round" stroke-linejoin="round" />
<path d="M 144.5 176.5 L 144.5 176.5 L 144.5 176.5 L 145.0 176.5 L 145.0 176.5 L 145.0 176.5 L 145.0 177.0 L 144.0 179.0 L 141.5 182.5 L 140.0 185.5 L 139.0 186.5 L 139.0 186.5 " stroke="black" fill="none" stroke-width="6.0" stroke-linecap="round" stroke-linejoin="round" />
<path d="M 144.5 180.0 L 144.0 180.5 L 143.5 180.5 L 144.0 180.5 L 146.5 180.5 L 151.5 179.5 L 158.0 178.0 L 165.5 176.0 L 170.5 175.0 L 172.0 174.5 L 172.0 174.5 L 171.5 175.0 L 171.0 175.5 L 170.5 176.5 L 169.5 178.0 L 168.0 180.0 L 165.5 183.5 L 161.5 188.0 L 156.5 194.0 L 150.5 200.0 L 145.5 205.0 L 142.5 207.5 L 141.0 208.5 L 140.5 209.5 L 140.5 209.5 " stroke="black" fill="none" stroke-width="6.0" stroke-linecap="round" stroke-linejoin="round" />
<path d="M 146.5 192.5 L 146.0 192.0 L 146.0 192.0 L 146.0 191.5 L 147.0 191.5 L 151.5 193.5 L 158.0 196.5 L 166.5 200.5 L 174.0 203.0 L 179.0 203.5 " stroke="black" fill="none" stroke-width="6.0" stroke-linecap="round" stroke-linejoin="round" />
</svg>