<svg xmlns="http://www.w3.org/2000/svg" width="300" height="300" viewBox="0 0 300 300">
<path d="M 124.0 128.0 L 124.5 128.0 L 125.0 128.0 L 126.0 128.0 L 129.0 127.0 L 135.0 125.0 L 141.5 123.5 L 145.0 122.5 L 146.5 122.0 L 146.5 121.5 L 146.0 122.0 L 146.0 122.0 " stroke="black" fill="none" stroke-width="6.0" stroke-linecap="round" stroke-linejoin="round" />
<path d="M 132.0 142.5 L 131.5 143.0 L 131.0 143.0 L 131.0 143.0 L 131.5 143.0 L 134.5 141.5 L 138.0 139.5 L 141.0 138.0 L 142.5 137.0 L 143.0 136.0 " stroke="black" fill="none" stroke-width="6.0" stroke-linecap="round" stroke-linejoin="round" />
<path d="M 136.5 126.5 L 136.0 126.0 L 135.0 126.0 L 135.0 126.0 L 135.0 127.0 L 135.5 132.5 L 136.0 142.0 L 136.5 152.0 L 136.5 159.0 L 136.0 163.5 L 135.5 165.0 " stroke="black" fill="none" stroke-width="6.0" stroke-linecap="round" stroke-linejoin="round" />
<path d="M 123.0 169.5 L 123.0 169.5 L 122.5 169.5 L 122.5 169.0 L 123.0 168.5 L 127.0 167.5 L 132.5 166.0 L 137.5 164.0 L 142.0 161.5 L 144.0 160.5 " stroke="black" fill="none" stroke-width="6.0" stroke-linecap="round" stroke-linejoin="round" />
<path d="M 168.0 105.0 L 168.5 105.0 L 169.0 105.0 L 169.5 105.0 L 170.0 105.0 L 170.5 105.5 L 170.5 107.5 L 170.5 110.5 L 170.5 113.0 L 170.0 114.0 " stroke="black" fill="none" stroke-width="6.0" stroke-linecap="round" stroke-linejoin="round" />
<path d="M 156.5 112.0 L 156.0 113.0 L 155.5 114.0 L 155.5 114.5 L 157.5 115.0 L 160.0 115.0 L 162.5 115.0 L 164.0 114.5 " stroke="black" fill="none" stroke-width="6.0" stroke-linecap="round" stroke-linejoin="round" />
<path d="M 185.0 107.0 L 185.0 107.0 L 184.5 107.5 L 184.0 107.5 L 184.0 108.0 L 184.0 109.5 L 183.5 112.0 L 183.5 114.5 " stroke="black" fill="none" stroke-width="6.0" stroke-linecap="round" stroke-linejoin="round" />
<path d="M 157.5 126.0 L 157.5 126.0 L 157.5 125.5 L 157.0 125.5 L 157.0 126.0 L 156.5 128.5 L 156.5 132.0 L 156.0 133.5 " stroke="black" fill="none" stroke-width="6.0" stroke-linecap="round" stroke-linejoin="round" />
<path d="M 158.0 126.0 L 157.0 126.0 L 157.0 125.5 L 158.0 125.5 L 161.0 125.5 L 164.5 125.5 L 169.0 125.0 L 175.0 124.0 L 181.5 123.0 L 187.0 122.5 L 189.0 122.5 L 189.5 122.5 L 189.0 122.5 L 189.0 122.5 L 189.0 122.5 L 189.0 122.5 L 189.0 122.5 L 189.0 122.5 L 189.0 122.5 L 189.5 122.5 L 189.5 123.0 L 189.5 123.0 L 189.5 123.0 L 189.5 123.5 L 189.5 123.5 L 189.5 123.5 L 189.5 124.0 L 189.5 124.5 L 189.5 125.5 L 188.5 128.0 L 187.5 131.0 L 186.0 133.5 L 185.5 135.0 L 185.5 135.0 " stroke="black" fill="none" stroke-width="6.0" stroke-linecap="round" stroke-linejoin="round" />
<path d="M 165.5 137.5 L 165.5 136.5 L 165.5 135.5 L 165.5 135.5 L 165.5 135.5 L 165.5 137.0 L 165.5 140.5 L 165.5 143.5 L 165.5 146.5 L 165.5 148.0 L 165.5 148.0 " stroke="black" fill="none" stroke-width="6.0" stroke-linecap="round" stroke-linejoin="round" />
<path d="M 166.0 137.5 L 166.0 135.0 L 165.5 135.0 L 165.5 135.0 L 166.0 135.5 L 168.0 135.5 L 170.5 135.5 L 172.5 135.5 L 175.0 134.5 L 176.5 134.5 L 177.5 134.5 L 178.0 134.5 L 178.5 135.5 L 178.5 137.0 L 178.5 139.5 L 177.5 142.0 L 177.0 144.5 L 176.0 146.0 L 175.0 147.5 " stroke="black" fill="none" stroke-width="6.0" stroke-linecap="round" stroke-linejoin="round" />
<path d="M 167.0 149.0 L 166.5 149.0 L 165.5 149.0 L 165.5 149.0 L 165.5 149.0 L 167.5 149.0 L 170.5 149.0 L 173.5 149.0 L 174.5 149.0 " stroke="black" fill="none" stroke-width="6.0" stroke-linecap="round" stroke-linejoin="round" />
<path d="M 156.5 158.5 L 156.5 157.5 L 156.0 157.0 L 156.0 156.5 L 155.5 156.5 L 155.5 158.0 L 156.0 163.0 L 156.5 168.5 L 157.0 173.0 L 157.5 175.5 L 157.5 174.5 L 157.5 173.0 " stroke="black" fill="none" stroke-width="6.0" stroke-linecap="round" stroke-linejoin="round" />
<path d="M 156.0 158.0 L 155.0 159.0 L 154.5 159.0 L 154.5 159.0 L 155.5 159.0 L 158.0 158.5 L 160.5 158.5 L 163.5 158.5 L 167.0 159.0 L 172.0 159.5 L 177.5 159.5 L 182.5 159.5 L 186.0 159.0 L 188.0 159.0 L 188.5 159.0 L 188.5 159.0 L 188.5 159.0 L 188.0 159.0 L 188.0 159.0 L 188.0 159.5 L 187.5 160.0 L 187.5 161.0 L 187.0 162.5 L 186.5 165.5 L 186.0 169.5 L 185.5 173.0 L 185.0 176.0 L 185.0 177.5 L 184.5 178.5 L 184.5 178.5 " stroke="black" fill="none" stroke-width="6.0" stroke-linecap="round" stroke-linejoin="round" />
<path d="M 164.5 170.5 L 164.0 170.5 L 162.5 170.0 L 162.0 169.5 L 162.0 169.5 L 163.0 169.5 L 166.0 170.0 L 170.0 170.5 L 173.5 170.5 L 176.5 170.5 L 178.0 170.0 L 178.5 169.5 " stroke="black" fill="none" stroke-width="6.0" stroke-linecap="round" stroke-linejoin="round" />
<path d="M 171.5 162.5 L 172.0 162.0 L 172.5 161.5 L 172.5 161.5 L 172.5 162.0 L 172.5 165.0 L 172.5 170.0 L 172.0 175.5 L 171.0 180.0 L 170.5 182.0 L 169.5 182.5 L 169.5 182.5 " stroke="black" fill="none" stroke-width="6.0" stroke-linecap="round" stroke-linejoin="round" />
<path d="M 158.5 187.5 L 158.5 187.0 L 158.5 186.5 L 159.0 186.5 L 159.5 186.0 L 162.0 185.5 L 165.5 185.5 L 171.0 185.5 L 177.5 185.5 L 183.0 185.5 L 186.0 185.5 L 186.5 185.5 " stroke="black" fill="none" stroke-width="6.0" stroke-linecap="round" stroke-linejoin="round" />
</svg>