<svg xmlns="http://www.w3.org/2000/svg" width="300" height="300" viewBox="0 0 300 300">
<path d="M 127.5 109.0 L 127.5 109.0 L 127.0 108.0 L 126.5 108.0 L 127.0 110.5 L 129.0 119.0 L 131.0 128.0 L 132.5 132.5 L 132.5 132.0 " stroke="black" fill="none" stroke-width="7.0" stroke-linecap="round" stroke-linejoin="round" />
<path d="M 129.0 107.0 L 128.5 107.5 L 127.0 108.0 L 127.0 108.0 L 129.0 108.0 L 133.5 107.5 L 140.5 106.5 L 148.0 106.5 L 157.0 106.5 L 167.0 106.5 L 173.5 106.0 L 176.5 106.0 L 176.5 106.5 L 176.5 107.0 L 176.0 107.5 L 176.0 108.5 L 176.0 109.5 L 176.0 112.0 L 174.5 116.5 L 173.0 123.0 L 171.5 129.0 L 171.5 131.5 L 172.0 131.0 " stroke="black" fill="none" stroke-width="7.0" stroke-linecap="round" stroke-linejoin="round" />
<path d="M 139.0 121.0 L 137.5 120.5 L 137.0 120.5 L 140.5 120.5 L 148.5 119.5 L 159.0 118.0 L 167.5 118.0 L 169.5 119.0 " stroke="black" fill="none" stroke-width="7.0" stroke-linecap="round" stroke-linejoin="round" />
<path d="M 150.5 109.0 L 150.0 109.0 L 150.0 109.0 L 150.0 109.5 L 150.0 114.5 L 150.0 123.5 L 150.5 132.0 L 151.0 136.5 L 151.5 137.5 " stroke="black" fill="none" stroke-width="7.0" stroke-linecap="round" stroke-linejoin="round" />
<path d="M 135.0 140.0 L 135.0 140.0 L 136.0 139.0 L 138.5 138.0 L 145.5 136.0 L 156.5 134.5 L 167.0 134.5 L 173.0 135.5 " stroke="black" fill="none" stroke-width="7.0" stroke-linecap="round" stroke-linejoin="round" />
<path d="M 132.5 155.0 L 133.5 155.0 L 134.5 155.0 L 137.0 155.0 L 143.5 154.5 L 154.0 153.5 L 165.0 153.0 L 172.0 153.0 L 174.0 153.0 L 174.5 153.0 " stroke="black" fill="none" stroke-width="7.0" stroke-linecap="round" stroke-linejoin="round" />
<path d="M 147.5 145.5 L 146.5 145.5 L 146.0 145.5 L 145.5 147.0 L 146.0 151.0 L 147.0 158.0 L 147.5 164.0 L 148.0 167.0 L 148.0 167.5 " stroke="black" fill="none" stroke-width="7.0" stroke-linecap="round" stroke-linejoin="round" />
<path d="M 167.5 145.0 L 166.5 145.0 L 165.5 145.0 L 165.0 145.0 L 164.5 147.5 L 164.5 153.0 L 164.5 160.0 L 164.5 165.5 L 165.5 167.5 L 166.0 167.5 " stroke="black" fill="none" stroke-width="7.0" stroke-linecap="round" stroke-linejoin="round" />
<path d="M 129.0 174.5 L 129.5 174.5 L 131.0 174.0 L 135.0 174.0 L 143.0 173.5 L 153.5 173.5 L 165.5 173.0 L 176.0 172.5 L 183.5 171.5 L 184.0 171.5 " stroke="black" fill="none" stroke-width="7.0" stroke-linecap="round" stroke-linejoin="round" />
<path d="M 146.0 187.5 L 145.5 186.5 L 145.5 186.5 L 145.0 186.5 L 144.0 189.0 L 141.5 193.5 L 138.5 197.5 L 136.0 199.5 L 136.0 199.5 " stroke="black" fill="none" stroke-width="7.0" stroke-linecap="round" stroke-linejoin="round" />
<path d="M 169.0 188.0 L 168.5 188.0 L 167.0 187.5 L 166.5 187.5 L 168.0 188.0 L 171.0 189.5 L 175.0 192.5 L 179.5 195.5 L 183.0 198.5 " stroke="black" fill="none" stroke-width="7.0" stroke-linecap="round" stroke-linejoin="round" />
</svg>