<svg xmlns="http://www.w3.org/2000/svg" width="300" height="300" viewBox="0 0 300 300">
<path d="M 121.0 96.0 L 120.5 96.0 L 118.5 96.0 L 118.5 96.0 L 119.0 96.0 L 122.0 96.0 L 128.5 96.0 L 138.0 95.0 L 151.5 93.0 L 164.0 91.5 L 171.0 91.5 L 174.5 92.0 L 174.5 92.5 L 173.0 93.0 L 172.0 94.0 L 171.0 95.0 L 171.0 96.5 L 170.0 99.5 L 167.0 104.0 L 164.0 109.0 L 162.5 112.5 L 162.5 114.5 L 163.0 115.0 " stroke="black" fill="none" stroke-width="8.0" stroke-linecap="round" stroke-linejoin="round" />
<path d="M 116.5 110.0 L 116.5 110.0 L 116.0 110.0 L 115.5 110.0 L 118.5 110.0 L 126.5 109.5 L 140.5 108.0 L 157.0 105.5 L 169.5 104.0 L 176.0 103.5 L 177.5 104.5 L 177.0 105.0 " stroke="black" fill="none" stroke-width="8.0" stroke-linecap="round" stroke-linejoin="round" />
<path d="M 119.5 126.0 L 119.5 126.0 L 120.0 125.5 L 122.0 125.5 L 129.5 124.0 L 142.5 122.0 L 155.0 120.0 L 163.5 118.5 L 169.5 118.5 " stroke="black" fill="none" stroke-width="8.0" stroke-linecap="round" stroke-linejoin="round" />
<path d="M 125.0 141.0 L 125.0 141.0 L 125.0 141.0 L 126.5 141.5 L 134.0 140.5 L 147.0 137.0 L 159.0 134.0 L 168.5 132.0 L 174.0 131.0 " stroke="black" fill="none" stroke-width="8.0" stroke-linecap="round" stroke-linejoin="round" />
<path d="M 144.0 82.5 L 144.0 82.5 L 143.5 82.5 L 143.5 82.5 L 143.5 83.5 L 144.0 86.5 L 145.0 91.0 L 146.0 97.5 L 147.0 104.5 L 147.5 111.0 L 147.5 116.0 L 148.0 120.5 L 148.0 124.5 L 148.0 128.5 L 148.0 132.0 L 148.0 135.0 L 148.0 137.5 L 148.0 140.0 L 148.0 142.0 L 148.0 144.0 L 148.0 145.5 L 148.0 146.5 L 148.0 147.5 L 148.5 148.0 L 148.5 149.0 L 148.5 149.5 L 148.5 150.0 L 148.5 150.0 L 148.5 150.0 L 148.5 150.0 L 148.5 150.0 L 148.5 150.5 L 149.0 150.5 " stroke="black" fill="none" stroke-width="8.0" stroke-linecap="round" stroke-linejoin="round" />
<path d="M 111.0 154.0 L 111.5 154.0 L 112.0 154.0 L 112.5 154.0 L 114.0 154.0 L 117.5 154.0 L 126.5 154.0 L 142.0 152.5 L 157.5 150.5 L 170.0 148.5 L 178.5 147.5 L 184.0 147.5 L 187.0 147.0 L 187.5 147.0 L 187.5 147.0 L 187.0 147.0 L 187.0 147.0 L 187.0 147.0 L 187.0 147.0 L 187.0 147.5 " stroke="black" fill="none" stroke-width="8.0" stroke-linecap="round" stroke-linejoin="round" />
<path d="M 130.0 166.0 L 130.0 165.5 L 129.5 165.5 L 129.5 166.5 L 130.0 171.5 L 131.0 180.0 L 131.5 187.0 L 132.0 190.0 L 132.0 189.5 L 132.0 188.5 " stroke="black" fill="none" stroke-width="8.0" stroke-linecap="round" stroke-linejoin="round" />
<path d="M 132.0 167.0 L 132.0 167.0 L 131.0 167.0 L 131.0 167.0 L 132.5 167.0 L 137.0 166.5 L 145.5 164.5 L 158.0 161.5 L 169.0 159.5 L 176.0 159.5 L 179.0 161.0 L 179.5 163.0 L 179.5 165.5 L 179.0 169.0 L 178.5 172.5 L 177.5 177.0 L 176.5 182.0 L 175.5 185.5 L 175.5 186.5 L 175.0 186.5 L 175.0 186.5 " stroke="black" fill="none" stroke-width="8.0" stroke-linecap="round" stroke-linejoin="round" />
<path d="M 140.5 182.0 L 140.0 182.0 L 139.5 181.5 L 140.0 181.0 L 144.0 180.5 L 150.0 180.0 L 158.0 178.5 L 165.0 177.0 L 168.0 176.0 " stroke="black" fill="none" stroke-width="8.0" stroke-linecap="round" stroke-linejoin="round" />
<path d="M 154.0 166.0 L 154.5 166.0 L 154.5 167.0 L 155.5 169.0 L 156.0 173.5 L 156.5 180.0 L 156.5 186.0 L 155.5 189.0 L 155.0 190.0 " stroke="black" fill="none" stroke-width="8.0" stroke-linecap="round" stroke-linejoin="round" />
<path d="M 131.0 198.5 L 131.0 198.5 L 131.0 198.5 L 131.0 199.0 L 131.0 199.0 L 132.5 198.5 L 136.5 198.0 L 143.5 196.5 L 153.0 194.5 L 163.0 193.5 L 169.0 193.0 L 172.5 193.0 L 173.5 193.0 L 173.5 193.0 L 173.5 193.0 L 173.5 193.0 L 173.5 193.0 " stroke="black" fill="none" stroke-width="8.0" stroke-linecap="round" stroke-linejoin="round" />
<path d="M 108.5 217.0 L 108.5 217.0 L 109.0 217.0 L 109.5 217.0 L 111.5 217.0 L 116.0 217.0 L 124.5 216.0 L 136.0 215.0 L 149.5 213.0 L 163.5 211.0 L 175.5 209.0 L 184.0 208.5 L 190.0 208.5 L 195.0 208.0 L 198.5 207.0 L 201.5 206.0 L 203.0 205.5 L 203.0 205.5 L 203.0 205.5 L 203.0 205.5 L 203.0 205.5 L 203.0 205.5 L 203.0 205.5 L 203.0 205.5 L 203.0 205.5 L 203.0 205.5 L 203.0 205.5 L 203.0 205.0 " stroke="black" fill="none" stroke-width="8.0" stroke-linecap="round" stroke-linejoin="round" />
</svg>