<svg xmlns="http://www.w3.org/2000/svg" width="300" height="300" viewBox="0 0 300 300">
<path d="M 126.1111111111111 111.66666666666667 L 125.55555555555556 111.66666666666667 L 123.8888888888889 111.11111111111111 L 123.33333333333333 110.55555555555556 L 123.33333333333333 110.55555555555556 L 126.1111111111111 110.55555555555556 L 131.66666666666669 110.55555555555556 L 140.00000000000003 111.11111111111111 L 153.8888888888889 111.11111111111111 L 170.55555555555557 109.44444444444444 L 180.00000000000003 107.77777777777779 L 182.22222222222223 107.77777777777779 L 181.11111111111114 107.77777777777779 " stroke="black" fill="none" stroke-width="7.0" stroke-linecap="round" stroke-linejoin="round" />
<path d="M 151.66666666666669 97.22222222222223 L 151.66666666666669 96.66666666666667 L 151.66666666666669 95.55555555555556 L 151.66666666666669 94.44444444444444 L 151.66666666666669 94.44444444444444 L 151.66666666666669 96.66666666666667 L 149.44444444444446 103.88888888888889 L 146.11111111111111 113.8888888888889 L 143.8888888888889 120.55555555555556 L 142.7777777777778 123.8888888888889 L 142.7777777777778 123.8888888888889 " stroke="black" fill="none" stroke-width="7.0" stroke-linecap="round" stroke-linejoin="round" />
<path d="M 131.11111111111111 129.44444444444446 L 132.22222222222223 128.8888888888889 L 132.22222222222223 128.33333333333334 L 132.7777777777778 129.44444444444446 L 133.33333333333334 135.55555555555557 L 134.44444444444446 147.22222222222223 L 134.44444444444446 162.7777777777778 L 133.8888888888889 173.33333333333334 L 133.33333333333334 175.55555555555557 L 133.33333333333334 175.00000000000003 " stroke="black" fill="none" stroke-width="7.0" stroke-linecap="round" stroke-linejoin="round" />
<path d="M 140.00000000000003 129.44444444444446 L 138.8888888888889 129.44444444444446 L 137.22222222222223 129.44444444444446 L 137.22222222222223 128.33333333333334 L 140.55555555555557 127.22222222222221 L 146.11111111111111 126.1111111111111 L 152.7777777777778 125.55555555555556 L 161.11111111111111 124.44444444444444 L 168.8888888888889 124.44444444444444 L 170.55555555555557 124.44444444444444 L 170.00000000000003 125.55555555555556 L 168.33333333333334 127.77777777777779 L 166.66666666666669 131.66666666666669 L 165.55555555555557 137.7777777777778 L 164.44444444444446 146.11111111111111 L 163.8888888888889 155.55555555555557 L 163.33333333333334 163.8888888888889 L 163.33333333333334 168.8888888888889 L 163.33333333333334 170.55555555555557 L 163.33333333333334 171.66666666666669 L 163.33333333333334 171.66666666666669 " stroke="black" fill="none" stroke-width="7.0" stroke-linecap="round" stroke-linejoin="round" />
<path d="M 136.66666666666669 146.11111111111111 L 136.66666666666669 144.44444444444446 L 137.22222222222223 142.7777777777778 L 139.44444444444446 141.66666666666669 L 143.8888888888889 141.11111111111111 L 150.00000000000003 140.55555555555557 L 157.22222222222223 140.55555555555557 L 162.22222222222223 141.11111111111111 L 163.33333333333334 141.11111111111111 " stroke="black" fill="none" stroke-width="7.0" stroke-linecap="round" stroke-linejoin="round" />
<path d="M 140.55555555555557 156.66666666666669 L 140.00000000000003 156.66666666666669 L 138.8888888888889 156.66666666666669 L 138.33333333333334 157.22222222222223 L 139.44444444444446 157.22222222222223 L 143.33333333333334 156.11111111111111 L 148.33333333333334 153.8888888888889 L 154.44444444444446 152.22222222222223 L 159.44444444444446 152.22222222222223 " stroke="black" fill="none" stroke-width="7.0" stroke-linecap="round" stroke-linejoin="round" />
<path d="M 140.00000000000003 169.44444444444446 L 140.00000000000003 168.8888888888889 L 140.00000000000003 168.33333333333334 L 141.11111111111111 167.7777777777778 L 145.00000000000003 167.22222222222223 L 150.00000000000003 167.22222222222223 L 155.55555555555557 167.7777777777778 L 158.33333333333334 167.7777777777778 " stroke="black" fill="none" stroke-width="7.0" stroke-linecap="round" stroke-linejoin="round" />
<path d="M 121.66666666666667 184.44444444444446 L 121.66666666666667 184.44444444444446 L 120.00000000000001 184.44444444444446 L 120.00000000000001 183.8888888888889 L 121.66666666666667 183.33333333333334 L 127.77777777777779 182.22222222222223 L 138.33333333333334 181.66666666666669 L 151.66666666666669 181.11111111111114 L 166.66666666666669 179.44444444444446 L 176.11111111111114 177.7777777777778 L 180.55555555555557 177.22222222222223 L 181.66666666666669 177.22222222222223 L 180.00000000000003 178.33333333333334 L 178.33333333333334 178.8888888888889 " stroke="black" fill="none" stroke-width="7.0" stroke-linecap="round" stroke-linejoin="round" />
</svg>