<svg xmlns="http://www.w3.org/2000/svg" width="300" height="300" viewBox="0 0 300 300">
<path d="M 124.5 122.5 L 124.5 122.5 L 124.5 122.5 L 124.5 122.5 L 124.5 123.0 L 125.5 123.0 L 128.5 122.5 L 132.5 121.5 L 136.5 120.5 L 139.5 119.5 L 140.5 119.0 L 140.5 119.0 " stroke="black" fill="none" stroke-width="8.0" stroke-linecap="round" stroke-linejoin="round" />
<path d="M 125.0 110.5 L 124.0 111.0 L 123.5 111.5 L 123.0 111.5 L 123.0 112.5 L 123.0 115.5 L 123.0 120.5 L 123.0 127.0 L 122.5 132.5 L 122.5 135.5 L 124.0 136.0 L 127.5 136.5 L 131.5 136.0 L 135.0 135.5 L 137.5 134.5 L 139.5 133.0 L 142.0 131.0 " stroke="black" fill="none" stroke-width="8.0" stroke-linecap="round" stroke-linejoin="round" />
<path d="M 156.5 120.5 L 156.5 120.0 L 157.0 120.0 L 158.5 119.5 L 160.5 119.0 L 162.5 118.5 L 164.0 118.5 L 164.5 118.5 " stroke="black" fill="none" stroke-width="8.0" stroke-linecap="round" stroke-linejoin="round" />
<path d="M 153.0 109.5 L 153.0 109.5 L 153.0 110.0 L 153.0 110.5 L 153.0 111.0 L 153.0 112.5 L 153.0 116.5 L 153.0 122.5 L 153.0 129.0 L 154.0 134.0 L 155.0 136.0 L 157.5 137.0 L 160.0 137.0 L 163.5 137.0 L 166.0 137.0 L 169.0 135.5 L 171.0 134.5 L 171.5 134.0 L 171.5 134.0 L 171.0 134.0 L 170.5 133.5 L 170.0 133.5 " stroke="black" fill="none" stroke-width="8.0" stroke-linecap="round" stroke-linejoin="round" />
<path d="M 148.0 146.0 L 148.0 146.0 L 147.5 146.0 L 147.0 146.0 L 146.5 146.0 L 146.0 147.5 L 145.0 150.5 L 144.0 153.5 L 143.0 156.5 " stroke="black" fill="none" stroke-width="8.0" stroke-linecap="round" stroke-linejoin="round" />
<path d="M 133.0 157.0 L 133.0 157.0 L 132.5 157.5 L 131.5 160.5 L 130.5 168.0 L 130.5 178.5 L 131.0 186.5 L 132.5 189.5 L 133.5 188.0 L 134.0 186.0 " stroke="black" fill="none" stroke-width="8.0" stroke-linecap="round" stroke-linejoin="round" />
<path d="M 134.0 163.0 L 134.0 162.5 L 133.5 161.5 L 133.0 161.5 L 133.0 161.5 L 135.5 161.5 L 140.5 161.0 L 147.0 160.0 L 152.5 159.5 L 156.5 159.5 L 159.0 160.5 L 159.5 161.5 L 160.0 163.5 L 160.0 166.5 L 160.0 171.0 L 159.5 177.5 L 158.5 183.5 L 158.5 186.5 L 158.0 188.0 L 157.5 188.0 " stroke="black" fill="none" stroke-width="8.0" stroke-linecap="round" stroke-linejoin="round" />
<path d="M 138.5 177.0 L 137.5 177.5 L 137.0 178.0 L 137.0 178.0 L 140.0 177.5 L 145.0 176.0 L 150.0 175.5 L 154.0 175.5 " stroke="black" fill="none" stroke-width="8.0" stroke-linecap="round" stroke-linejoin="round" />
<path d="M 137.5 192.5 L 137.0 193.0 L 136.0 193.0 L 136.5 193.0 L 141.0 192.5 L 147.5 191.0 L 155.0 190.0 L 160.0 189.5 " stroke="black" fill="none" stroke-width="8.0" stroke-linecap="round" stroke-linejoin="round" />
</svg>