<svg xmlns="http://www.w3.org/2000/svg" width="300" height="300" viewBox="0 0 300 300">
<path d="M 124.5 120.0 L 124.5 119.5 L 124.5 118.5 L 124.5 118.0 L 124.0 118.0 L 124.0 118.0 L 123.5 122.0 L 121.0 129.0 L 117.5 136.5 L 115.5 141.0 L 115.0 141.5 " stroke="black" fill="none" stroke-width="8.0" stroke-linecap="round" stroke-linejoin="round" />
<path d="M 122.0 130.0 L 120.5 131.5 L 120.0 131.5 L 120.5 131.5 L 123.0 131.0 L 127.0 130.0 L 130.5 129.5 L 134.0 129.5 L 137.5 129.5 L 139.0 129.5 " stroke="black" fill="none" stroke-width="8.0" stroke-linecap="round" stroke-linejoin="round" />
<path d="M 119.5 154.0 L 119.5 155.0 L 119.0 155.5 L 119.5 156.0 L 123.5 155.0 L 129.0 153.5 L 135.0 152.5 L 140.0 152.0 L 142.5 152.0 L 142.5 151.5 " stroke="black" fill="none" stroke-width="8.0" stroke-linecap="round" stroke-linejoin="round" />
<path d="M 129.5 135.0 L 129.5 135.0 L 130.0 135.0 L 130.0 135.0 L 130.5 135.5 L 131.0 140.5 L 130.5 151.5 L 127.5 166.0 L 124.5 176.5 L 122.0 181.5 L 120.0 183.0 L 119.5 183.0 L 119.5 179.5 " stroke="black" fill="none" stroke-width="8.0" stroke-linecap="round" stroke-linejoin="round" />
<path d="M 134.0 160.5 L 134.0 161.0 L 134.0 161.5 L 135.0 162.0 L 136.5 164.0 L 139.5 167.0 L 143.0 169.5 L 146.0 171.0 L 146.5 171.5 " stroke="black" fill="none" stroke-width="8.0" stroke-linecap="round" stroke-linejoin="round" />
<path d="M 154.0 118.5 L 153.5 118.5 L 153.0 119.0 L 152.5 119.0 L 152.5 119.0 L 154.5 119.0 L 158.5 118.5 L 163.5 118.0 L 168.5 117.5 L 171.5 117.5 L 172.5 117.5 L 173.0 117.5 " stroke="black" fill="none" stroke-width="8.0" stroke-linecap="round" stroke-linejoin="round" />
<path d="M 158.0 123.0 L 158.0 123.0 L 158.0 122.5 L 158.0 122.5 L 158.0 122.5 L 158.0 124.5 L 158.5 131.5 L 158.5 145.0 L 158.5 157.5 L 158.5 164.0 L 159.0 165.0 L 159.0 163.0 " stroke="black" fill="none" stroke-width="8.0" stroke-linecap="round" stroke-linejoin="round" />
<path d="M 163.0 133.5 L 162.5 135.0 L 162.0 135.5 L 162.0 135.5 L 162.5 135.0 L 165.0 134.0 L 167.5 133.5 L 170.0 133.0 L 172.5 133.0 L 174.5 133.0 L 175.5 134.0 L 176.0 135.5 L 176.0 137.0 L 175.5 139.5 L 174.5 142.0 L 174.0 144.5 L 173.5 146.0 L 173.0 146.5 " stroke="black" fill="none" stroke-width="8.0" stroke-linecap="round" stroke-linejoin="round" />
<path d="M 164.5 150.5 L 163.5 151.5 L 163.5 152.0 L 165.0 151.5 L 168.0 151.0 L 170.5 150.5 L 172.5 150.0 " stroke="black" fill="none" stroke-width="8.0" stroke-linecap="round" stroke-linejoin="round" />
<path d="M 153.0 176.0 L 154.5 176.5 L 155.0 176.5 L 155.5 175.5 L 156.5 174.5 L 158.0 173.5 L 160.5 173.0 L 162.5 172.5 L 165.0 172.5 L 168.0 172.0 L 171.0 171.5 L 174.0 171.0 L 176.5 170.5 L 178.0 170.5 L 178.5 170.5 L 178.5 170.5 L 178.5 170.5 L 178.0 170.5 " stroke="black" fill="none" stroke-width="8.0" stroke-linecap="round" stroke-linejoin="round" />
</svg>