<svg xmlns="http://www.w3.org/2000/svg" width="300" height="300" viewBox="0 0 300 300">
<path d="M 100.0 114.5 L 99.0 115.0 L 99.0 115.5 L 99.0 117.0 L 100.5 123.0 L 102.0 137.0 L 102.0 155.0 L 102.0 165.0 L 102.0 168.5 L 102.0 168.0 L 102.0 166.5 " stroke="black" fill="none" stroke-width="8.0" stroke-linecap="round" stroke-linejoin="round" />
<path d="M 105.5 116.0 L 105.5 116.0 L 104.5 116.0 L 104.0 116.5 L 104.5 116.5 L 108.5 116.5 L 115.5 115.0 L 123.5 114.0 L 130.0 113.5 L 133.0 116.0 L 133.0 119.0 L 132.0 123.0 L 131.0 129.0 L 130.5 138.0 L 130.0 150.0 L 129.5 159.5 L 129.5 164.5 L 129.5 166.0 L 129.5 166.0 L 129.0 165.5 " stroke="black" fill="none" stroke-width="8.0" stroke-linecap="round" stroke-linejoin="round" />
<path d="M 108.5 137.5 L 108.5 137.5 L 108.0 137.5 L 108.0 136.5 L 110.0 135.5 L 114.5 134.0 L 119.5 133.5 L 123.0 133.5 L 124.5 134.5 L 125.0 135.0 " stroke="black" fill="none" stroke-width="8.0" stroke-linecap="round" stroke-linejoin="round" />
<path d="M 108.5 150.5 L 108.0 150.5 L 108.0 151.0 L 108.5 151.0 L 111.0 151.0 L 115.0 150.5 L 122.0 150.0 " stroke="black" fill="none" stroke-width="8.0" stroke-linecap="round" stroke-linejoin="round" />
<path d="M 105.5 177.0 L 104.5 177.5 L 104.0 178.5 L 105.0 178.5 L 109.5 177.5 L 116.0 175.5 L 123.0 173.0 L 127.5 171.0 " stroke="black" fill="none" stroke-width="8.0" stroke-linecap="round" stroke-linejoin="round" />
<path d="M 152.5 106.5 L 152.5 106.5 L 152.5 106.5 L 152.5 106.0 L 154.5 106.0 L 160.0 106.0 L 167.5 106.0 L 174.0 106.5 L 178.5 106.5 L 179.5 106.5 " stroke="black" fill="none" stroke-width="8.0" stroke-linecap="round" stroke-linejoin="round" />
<path d="M 168.5 94.0 L 167.5 94.0 L 166.5 94.0 L 166.5 95.0 L 166.5 99.5 L 166.0 108.5 L 165.5 116.5 L 165.0 119.5 L 165.0 120.5 " stroke="black" fill="none" stroke-width="8.0" stroke-linecap="round" stroke-linejoin="round" />
<path d="M 146.5 127.0 L 146.0 126.5 L 145.5 125.5 L 149.0 124.5 L 157.0 123.5 L 168.5 122.5 L 179.0 123.0 L 187.0 124.0 L 192.0 124.5 L 193.5 124.5 " stroke="black" fill="none" stroke-width="8.0" stroke-linecap="round" stroke-linejoin="round" />
<path d="M 160.0 128.0 L 160.5 128.0 L 161.0 128.0 L 161.5 128.5 L 162.0 130.0 L 160.5 133.5 L 156.5 139.0 L 152.0 143.5 L 149.5 144.5 L 149.5 144.5 " stroke="black" fill="none" stroke-width="8.0" stroke-linecap="round" stroke-linejoin="round" />
<path d="M 171.5 130.0 L 171.5 130.0 L 171.0 130.0 L 171.0 130.0 L 171.0 131.0 L 171.0 134.5 L 171.0 139.5 L 172.5 144.0 L 176.5 145.5 L 183.0 145.0 L 188.5 143.5 L 190.0 142.5 L 190.0 142.5 " stroke="black" fill="none" stroke-width="8.0" stroke-linecap="round" stroke-linejoin="round" />
<path d="M 154.0 167.0 L 153.5 167.0 L 153.5 167.0 L 153.5 167.0 L 157.5 166.5 L 163.0 165.5 L 168.5 165.0 L 172.5 164.0 L 173.5 164.0 " stroke="black" fill="none" stroke-width="8.0" stroke-linecap="round" stroke-linejoin="round" />
<path d="M 166.0 151.0 L 165.0 151.0 L 164.5 151.0 L 164.0 151.5 L 164.0 154.0 L 164.0 164.0 L 163.5 177.0 L 163.0 185.5 L 163.0 188.5 L 163.5 189.0 " stroke="black" fill="none" stroke-width="8.0" stroke-linecap="round" stroke-linejoin="round" />
<path d="M 140.5 194.5 L 140.5 194.5 L 140.5 194.5 L 142.5 194.0 L 151.0 193.5 L 165.0 192.5 L 178.0 192.0 L 188.0 192.0 L 194.0 191.5 L 196.5 191.0 " stroke="black" fill="none" stroke-width="8.0" stroke-linecap="round" stroke-linejoin="round" />
</svg>