<svg xmlns="http://www.w3.org/2000/svg" width="300" height="300" viewBox="0 0 300 300">
<path d="M 117.0 129.0 L 117.0 129.5 L 117.0 130.0 L 117.0 130.5 L 117.5 133.5 L 118.5 142.5 L 119.0 155.5 L 119.0 167.5 L 119.0 172.5 L 119.0 172.5 L 118.5 170.0 L 118.5 169.0 " stroke="black" fill="none" stroke-width="6.0" stroke-linecap="round" stroke-linejoin="round" />
<path d="M 121.0 130.5 L 120.5 131.5 L 119.5 132.0 L 119.5 132.0 L 120.0 131.5 L 122.5 130.5 L 125.0 130.0 L 127.5 129.5 L 129.5 129.0 L 131.0 129.0 L 132.0 128.5 L 132.5 128.5 L 132.5 129.0 L 132.0 131.0 L 131.5 135.0 L 131.0 141.5 L 131.5 150.0 L 133.0 158.0 L 134.0 164.5 L 134.5 169.0 L 134.5 170.0 L 134.5 170.0 L 134.0 169.0 L 133.0 167.5 " stroke="black" fill="none" stroke-width="6.0" stroke-linecap="round" stroke-linejoin="round" />
<path d="M 121.5 147.5 L 121.5 147.5 L 120.5 147.5 L 120.0 147.5 L 120.0 147.5 L 122.0 147.0 L 125.0 146.0 L 127.5 145.5 L 129.5 145.5 L 131.0 145.5 " stroke="black" fill="none" stroke-width="6.0" stroke-linecap="round" stroke-linejoin="round" />
<path d="M 122.0 158.0 L 121.5 158.5 L 121.0 159.0 L 121.0 159.0 L 123.0 158.5 L 125.5 157.5 L 128.0 157.0 L 130.5 156.5 L 131.0 156.5 " stroke="black" fill="none" stroke-width="6.0" stroke-linecap="round" stroke-linejoin="round" />
<path d="M 120.0 172.0 L 120.0 172.0 L 119.5 173.0 L 119.0 173.0 L 120.0 173.0 L 124.0 172.0 L 129.0 170.5 L 132.5 169.0 L 134.5 168.5 " stroke="black" fill="none" stroke-width="6.0" stroke-linecap="round" stroke-linejoin="round" />
<path d="M 144.5 123.5 L 144.0 123.5 L 142.5 123.5 L 142.5 123.5 L 143.5 123.5 L 148.5 122.5 L 155.0 120.5 L 161.5 118.0 L 167.0 115.0 L 170.0 113.5 L 171.0 113.0 L 170.5 114.5 L 170.0 116.5 " stroke="black" fill="none" stroke-width="6.0" stroke-linecap="round" stroke-linejoin="round" />
<path d="M 144.5 132.0 L 144.0 132.0 L 143.0 133.0 L 142.5 133.0 L 143.5 133.0 L 147.0 132.5 L 151.5 131.5 L 157.5 131.0 L 163.5 130.0 L 168.0 129.5 L 170.5 129.5 L 170.5 129.5 " stroke="black" fill="none" stroke-width="6.0" stroke-linecap="round" stroke-linejoin="round" />
<path d="M 147.5 142.5 L 148.0 141.5 L 148.0 140.5 L 148.5 140.5 L 149.0 140.5 L 149.0 143.5 L 149.0 148.0 L 149.0 151.5 L 149.0 154.0 L 149.0 154.5 " stroke="black" fill="none" stroke-width="6.0" stroke-linecap="round" stroke-linejoin="round" />
<path d="M 142.5 148.0 L 142.5 148.0 L 142.0 148.0 L 142.0 148.0 L 143.0 148.0 L 146.0 147.5 L 149.5 147.0 L 151.5 147.0 " stroke="black" fill="none" stroke-width="6.0" stroke-linecap="round" stroke-linejoin="round" />
<path d="M 167.0 138.5 L 167.0 138.5 L 167.0 139.5 L 167.0 139.5 L 167.0 140.5 L 167.5 142.5 L 168.0 144.5 L 168.0 147.0 L 168.0 149.5 " stroke="black" fill="none" stroke-width="6.0" stroke-linecap="round" stroke-linejoin="round" />
<path d="M 163.0 147.5 L 163.0 147.5 L 162.5 147.5 L 164.0 147.0 L 167.5 146.5 L 170.0 146.0 L 172.0 146.0 L 172.0 146.0 " stroke="black" fill="none" stroke-width="6.0" stroke-linecap="round" stroke-linejoin="round" />
<path d="M 149.5 162.5 L 149.0 162.5 L 148.0 162.5 L 147.5 162.5 L 148.5 162.5 L 151.5 162.5 L 155.5 162.5 L 160.5 162.0 L 165.0 161.5 L 168.0 161.0 L 168.0 161.0 " stroke="black" fill="none" stroke-width="6.0" stroke-linecap="round" stroke-linejoin="round" />
<path d="M 157.0 122.0 L 157.5 122.0 L 158.0 122.5 L 158.0 123.5 L 158.0 126.5 L 158.0 131.5 L 158.0 138.5 L 157.0 147.5 L 157.0 155.0 L 157.0 160.0 L 157.0 164.0 L 157.5 168.0 L 157.5 171.0 L 157.5 173.0 L 157.5 174.0 L 157.5 174.0 L 157.5 173.5 " stroke="black" fill="none" stroke-width="6.0" stroke-linecap="round" stroke-linejoin="round" />
<path d="M 146.0 175.5 L 146.0 175.5 L 145.0 176.5 L 144.5 176.5 L 144.5 177.0 L 146.5 177.0 L 149.5 176.5 L 154.5 175.5 L 160.0 174.5 L 166.0 173.5 L 171.0 173.5 L 173.0 173.5 L 173.0 174.5 " stroke="black" fill="none" stroke-width="6.0" stroke-linecap="round" stroke-linejoin="round" />
</svg>