<svg xmlns="http://www.w3.org/2000/svg" width="300" height="300" viewBox="0 0 300 300">
<path d="M 108.5 99.0 L 108.5 99.0 L 108.5 99.0 L 108.5 99.0 L 108.5 101.0 L 107.5 109.0 L 104.5 123.0 L 102.0 133.5 L 100.5 136.0 L 100.5 134.5 L 100.5 133.5 " stroke="black" fill="none" stroke-width="9.0" stroke-linecap="round" stroke-linejoin="round" />
<path d="M 107.0 120.0 L 106.0 120.0 L 105.5 120.0 L 107.5 119.0 L 114.5 116.0 L 123.5 112.5 L 130.5 110.5 L 134.5 110.0 L 135.5 110.0 L 135.0 111.0 L 134.0 111.5 " stroke="black" fill="none" stroke-width="9.0" stroke-linecap="round" stroke-linejoin="round" />
<path d="M 105.0 149.5 L 103.0 151.0 L 102.0 152.0 L 102.0 152.0 L 106.0 151.5 L 114.0 149.0 L 124.0 145.5 L 133.5 143.0 L 140.0 141.0 L 141.0 140.0 " stroke="black" fill="none" stroke-width="9.0" stroke-linecap="round" stroke-linejoin="round" />
<path d="M 124.5 122.0 L 124.0 121.0 L 123.0 120.5 L 123.0 120.5 L 123.0 123.5 L 122.5 130.5 L 120.5 145.5 L 115.0 166.5 L 110.5 180.0 L 108.0 186.0 L 107.5 187.0 L 107.5 184.0 L 107.5 183.0 " stroke="black" fill="none" stroke-width="9.0" stroke-linecap="round" stroke-linejoin="round" />
<path d="M 123.5 159.5 L 122.5 159.5 L 121.5 159.5 L 123.0 161.0 L 127.5 166.0 L 135.0 172.5 L 141.0 178.0 L 144.0 180.0 L 144.0 180.0 " stroke="black" fill="none" stroke-width="9.0" stroke-linecap="round" stroke-linejoin="round" />
<path d="M 157.5 104.5 L 158.0 104.5 L 158.0 104.0 L 158.5 106.0 L 159.0 117.5 L 159.5 139.5 L 158.5 158.0 L 158.5 162.5 L 159.5 163.0 L 160.0 160.5 " stroke="black" fill="none" stroke-width="9.0" stroke-linecap="round" stroke-linejoin="round" />
<path d="M 160.0 109.5 L 160.0 109.0 L 160.0 108.5 L 160.0 108.0 L 160.5 107.5 L 162.0 107.0 L 164.5 106.5 L 170.0 104.5 L 179.0 103.0 L 189.0 103.0 L 195.0 105.5 L 197.0 110.0 L 197.5 115.5 L 196.0 123.5 L 194.0 133.5 L 192.5 145.5 L 191.5 154.5 L 191.5 158.0 L 192.0 158.0 L 192.5 155.5 " stroke="black" fill="none" stroke-width="9.0" stroke-linecap="round" stroke-linejoin="round" />
<path d="M 163.5 167.5 L 163.5 167.5 L 162.5 167.0 L 162.5 167.0 L 164.0 166.5 L 170.0 165.0 L 181.0 163.0 L 192.5 161.5 L 198.0 161.0 L 198.5 161.0 " stroke="black" fill="none" stroke-width="9.0" stroke-linecap="round" stroke-linejoin="round" />
</svg>