<svg xmlns="http://www.w3.org/2000/svg" width="300" height="300" viewBox="0 0 300 300">
<path d="M 110.5 104.5 L 110.5 104.0 L 110.5 103.0 L 110.5 102.5 L 110.5 102.0 L 111.5 102.0 L 113.0 103.5 L 115.5 107.0 L 118.0 110.5 L 119.5 113.5 L 121.0 116.5 L 121.5 116.5 " stroke="black" fill="none" stroke-width="7.0" stroke-linecap="round" stroke-linejoin="round" />
<path d="M 107.0 124.0 L 107.0 124.0 L 106.5 124.0 L 106.0 123.5 L 107.0 123.5 L 110.0 123.0 L 114.5 122.5 L 120.0 121.5 L 124.0 120.5 L 125.0 120.0 L 125.0 119.5 L 125.0 119.5 L 124.5 119.5 L 124.0 119.5 L 124.0 119.5 L 124.0 119.5 L 124.0 119.5 L 124.0 120.0 L 124.0 120.0 L 124.0 120.0 L 124.0 120.0 L 124.0 120.0 L 124.5 120.0 L 124.5 120.0 L 125.0 120.0 L 125.0 120.0 L 125.5 120.0 L 125.5 120.0 L 126.0 120.0 L 126.0 120.0 L 126.5 120.0 L 126.5 120.0 L 126.5 120.0 L 127.0 120.0 L 127.0 120.0 L 127.0 120.0 L 127.0 120.5 L 126.5 121.5 L 125.0 123.5 L 119.5 131.5 L 116.0 136.0 L 113.0 140.5 L 110.5 144.0 L 109.0 146.5 L 108.5 148.0 L 108.0 149.0 L 107.5 150.0 L 106.5 150.5 L 106.5 150.5 " stroke="black" fill="none" stroke-width="7.0" stroke-linecap="round" stroke-linejoin="round" />
<path d="M 118.0 141.0 L 118.0 140.5 L 117.5 139.5 L 117.5 139.0 L 117.5 138.5 L 117.5 138.5 L 118.5 140.5 L 119.0 145.0 L 119.5 153.0 L 119.5 165.0 L 119.5 177.5 L 119.5 187.0 L 120.0 192.0 L 120.0 195.0 L 119.0 196.5 L 118.5 196.5 L 118.0 195.0 " stroke="black" fill="none" stroke-width="7.0" stroke-linecap="round" stroke-linejoin="round" />
<path d="M 127.0 142.5 L 126.0 142.5 L 125.0 142.0 L 125.0 142.0 L 126.0 142.0 L 129.5 144.0 L 133.0 147.5 L 137.0 150.0 L 139.0 152.0 L 140.0 152.0 " stroke="black" fill="none" stroke-width="7.0" stroke-linecap="round" stroke-linejoin="round" />
<path d="M 155.5 107.0 L 156.0 106.5 L 156.5 106.0 L 156.5 105.5 L 156.5 105.5 L 156.5 105.0 L 156.5 105.0 L 156.5 105.5 L 155.0 108.0 L 153.0 112.0 L 150.5 118.0 L 149.0 123.5 L 148.0 127.0 L 148.0 128.0 L 148.0 128.0 L 149.0 127.5 L 152.0 127.0 L 154.5 126.5 L 158.5 126.0 L 163.0 125.5 L 166.5 124.5 L 168.5 124.5 L 169.0 124.5 L 169.0 125.0 " stroke="black" fill="none" stroke-width="7.0" stroke-linecap="round" stroke-linejoin="round" />
<path d="M 158.0 112.5 L 158.0 112.5 L 157.0 114.0 L 156.5 114.5 L 156.5 114.5 L 158.5 113.5 L 161.5 112.0 L 165.5 111.0 L 169.5 110.5 L 172.5 110.0 L 176.0 110.0 L 177.5 110.0 L 178.0 110.0 L 178.0 110.5 L 178.0 110.5 L 177.5 111.5 L 177.0 113.0 L 176.0 115.5 L 174.5 119.0 L 172.0 124.5 L 169.5 130.0 L 168.5 132.5 L 169.0 132.5 " stroke="black" fill="none" stroke-width="7.0" stroke-linecap="round" stroke-linejoin="round" />
<path d="M 146.0 138.0 L 145.0 138.5 L 143.5 139.5 L 143.0 139.5 L 142.5 139.5 L 143.0 139.5 L 144.5 138.0 L 147.5 137.0 L 152.0 136.0 L 159.0 135.0 L 169.0 135.0 L 178.5 135.5 L 186.5 135.5 L 190.0 136.0 L 191.0 136.5 L 191.0 136.5 L 190.5 136.5 L 190.0 136.0 L 190.0 135.5 " stroke="black" fill="none" stroke-width="7.0" stroke-linecap="round" stroke-linejoin="round" />
<path d="M 168.5 138.5 L 168.0 138.5 L 167.0 138.5 L 166.5 138.0 L 166.0 138.0 L 166.0 138.0 L 166.0 138.0 L 166.5 139.0 L 167.0 142.0 L 167.5 146.5 L 168.0 152.0 L 168.0 158.5 L 168.0 165.5 L 168.0 172.5 L 167.5 178.5 L 167.5 182.0 L 167.5 185.0 L 168.0 186.5 L 168.0 188.0 L 168.0 189.0 L 167.5 189.5 L 167.0 190.5 L 166.0 190.5 L 164.5 190.5 L 163.0 190.0 L 161.5 189.0 L 160.5 188.5 L 160.0 187.5 L 160.0 187.5 " stroke="black" fill="none" stroke-width="7.0" stroke-linecap="round" stroke-linejoin="round" />
<path d="M 152.0 149.0 L 152.0 149.0 L 151.5 149.0 L 151.0 149.0 L 150.5 149.0 L 150.5 149.5 L 152.0 151.0 L 153.5 153.0 L 155.0 154.0 L 156.0 155.0 " stroke="black" fill="none" stroke-width="7.0" stroke-linecap="round" stroke-linejoin="round" />
<path d="M 148.5 172.5 L 147.5 173.0 L 146.5 174.0 L 146.5 174.5 L 147.0 174.0 L 149.5 172.5 L 152.5 170.5 L 155.5 168.5 L 156.5 167.5 " stroke="black" fill="none" stroke-width="7.0" stroke-linecap="round" stroke-linejoin="round" />
<path d="M 186.5 147.0 L 186.5 147.0 L 186.5 147.0 L 187.0 146.5 L 187.0 146.5 L 187.0 146.5 L 186.5 146.5 L 185.0 148.5 L 182.5 151.5 L 180.0 155.0 L 178.0 157.5 L 177.0 158.5 " stroke="black" fill="none" stroke-width="7.0" stroke-linecap="round" stroke-linejoin="round" />
<path d="M 175.5 167.0 L 175.5 167.0 L 176.0 167.0 L 176.5 167.0 L 178.5 169.0 L 182.5 171.5 L 187.0 174.5 L 190.0 176.5 L 191.0 176.5 " stroke="black" fill="none" stroke-width="7.0" stroke-linecap="round" stroke-linejoin="round" />
</svg>