<svg xmlns="http://www.w3.org/2000/svg" width="300" height="300" viewBox="0 0 300 300">
<path d="M 123.0 107.0 L 122.5 108.0 L 122.0 108.5 L 122.0 108.5 L 122.5 109.0 L 125.0 110.5 L 127.5 112.5 L 129.5 114.0 L 131.0 115.5 " stroke="black" fill="none" stroke-width="6.0" stroke-linecap="round" stroke-linejoin="round" />
<path d="M 122.5 123.5 L 121.5 123.5 L 119.5 124.0 L 119.0 124.5 L 119.0 124.5 L 120.5 125.0 L 124.5 125.5 L 129.0 125.5 L 133.0 126.0 L 136.5 126.0 L 138.5 126.0 L 139.0 125.5 L 139.0 125.5 L 139.0 125.5 L 139.0 126.0 L 138.5 127.5 L 138.5 128.5 L 138.0 130.0 L 137.5 131.5 L 136.0 133.5 L 134.0 136.0 L 131.5 139.0 L 129.0 141.5 L 126.5 143.5 L 124.5 145.5 L 123.5 147.0 L 123.5 147.5 L 125.0 147.5 L 125.5 147.0 " stroke="black" fill="none" stroke-width="6.0" stroke-linecap="round" stroke-linejoin="round" />
<path d="M 132.0 139.5 L 132.0 139.0 L 132.0 138.0 L 132.0 138.0 L 132.0 138.0 L 132.0 139.0 L 132.0 143.5 L 132.0 152.5 L 131.5 166.0 L 130.5 176.5 L 130.5 181.5 L 131.0 182.5 L 132.0 178.5 " stroke="black" fill="none" stroke-width="6.0" stroke-linecap="round" stroke-linejoin="round" />
<path d="M 140.0 144.5 L 139.0 144.5 L 138.5 144.0 L 138.5 144.0 L 139.0 144.0 L 141.0 145.0 L 143.5 146.0 L 145.0 147.0 " stroke="black" fill="none" stroke-width="6.0" stroke-linecap="round" stroke-linejoin="round" />
<path d="M 151.0 129.5 L 151.0 130.5 L 151.0 131.0 L 152.0 131.0 L 154.5 131.5 L 159.5 132.0 L 166.0 131.5 L 171.5 130.5 L 174.0 129.5 L 174.0 129.0 " stroke="black" fill="none" stroke-width="6.0" stroke-linecap="round" stroke-linejoin="round" />
<path d="M 164.5 115.5 L 163.5 115.5 L 163.0 116.0 L 162.5 116.5 L 162.5 120.0 L 162.5 128.0 L 161.5 138.5 L 161.5 146.5 L 161.5 148.0 L 162.5 147.0 " stroke="black" fill="none" stroke-width="6.0" stroke-linecap="round" stroke-linejoin="round" />
<path d="M 152.0 158.5 L 152.0 158.5 L 152.0 158.0 L 152.0 158.5 L 152.0 160.5 L 152.0 165.0 L 152.0 170.0 L 153.0 173.0 L 153.0 173.5 " stroke="black" fill="none" stroke-width="6.0" stroke-linecap="round" stroke-linejoin="round" />
<path d="M 153.0 160.0 L 153.0 159.5 L 152.5 158.5 L 152.5 158.5 L 152.5 158.0 L 153.5 157.5 L 157.0 156.0 L 162.5 154.0 L 168.5 152.0 L 173.0 151.5 L 174.5 152.0 L 174.5 153.5 L 174.0 157.0 L 172.5 161.5 L 171.0 167.0 L 169.5 171.0 L 169.0 172.5 L 168.5 173.0 L 168.0 173.0 " stroke="black" fill="none" stroke-width="6.0" stroke-linecap="round" stroke-linejoin="round" />
<path d="M 155.0 179.5 L 155.0 179.5 L 154.5 179.5 L 154.5 179.5 L 157.5 179.0 L 163.0 177.5 L 169.5 177.0 L 173.5 177.0 L 174.0 177.0 " stroke="black" fill="none" stroke-width="6.0" stroke-linecap="round" stroke-linejoin="round" />
</svg>