<svg xmlns="http://www.w3.org/2000/svg" width="300" height="300" viewBox="0 0 300 300">
<path d="M 119.5 90.0 L 119.0 90.0 L 118.5 90.5 L 118.5 90.5 L 118.5 91.0 L 119.5 92.5 L 121.0 95.0 L 122.5 96.5 L 123.5 97.5 " stroke="black" fill="none" stroke-width="9.0" stroke-linecap="round" stroke-linejoin="round" />
<path d="M 109.5 108.0 L 109.5 108.0 L 109.5 108.0 L 109.5 108.0 L 112.5 107.5 L 119.5 105.0 L 126.5 102.5 L 130.5 102.0 L 131.5 102.5 " stroke="black" fill="none" stroke-width="9.0" stroke-linecap="round" stroke-linejoin="round" />
<path d="M 116.5 118.0 L 116.5 118.0 L 116.5 117.5 L 116.5 117.0 L 117.0 118.5 L 118.0 122.5 L 120.0 126.5 L 122.0 129.5 L 122.5 129.5 " stroke="black" fill="none" stroke-width="9.0" stroke-linecap="round" stroke-linejoin="round" />
<path d="M 131.5 114.0 L 131.5 114.0 L 131.5 114.0 L 131.5 114.0 L 131.5 115.5 L 132.0 119.0 L 131.0 124.0 L 129.5 128.5 " stroke="black" fill="none" stroke-width="9.0" stroke-linecap="round" stroke-linejoin="round" />
<path d="M 114.5 143.5 L 114.5 143.5 L 115.0 143.0 L 116.5 142.5 L 120.5 142.0 L 127.0 141.0 L 133.5 140.0 L 138.0 139.5 L 138.5 139.5 " stroke="black" fill="none" stroke-width="9.0" stroke-linecap="round" stroke-linejoin="round" />
<path d="M 120.0 157.0 L 120.0 157.0 L 119.5 157.0 L 119.5 157.5 L 120.5 160.0 L 122.0 164.0 L 122.5 166.5 L 123.0 166.5 " stroke="black" fill="none" stroke-width="9.0" stroke-linecap="round" stroke-linejoin="round" />
<path d="M 121.5 157.0 L 121.5 157.0 L 121.5 157.0 L 122.0 156.5 L 125.0 154.5 L 130.5 152.5 L 136.0 152.0 L 139.0 152.5 L 139.5 156.0 L 138.5 162.0 L 136.5 168.0 L 134.0 170.0 L 133.0 170.5 " stroke="black" fill="none" stroke-width="9.0" stroke-linecap="round" stroke-linejoin="round" />
<path d="M 125.5 176.5 L 125.5 177.0 L 125.0 177.5 L 125.5 177.5 L 128.0 177.5 L 131.5 175.5 L 135.0 173.0 L 136.5 172.0 " stroke="black" fill="none" stroke-width="9.0" stroke-linecap="round" stroke-linejoin="round" />
<path d="M 126.5 186.0 L 126.5 186.0 L 126.5 185.0 L 126.5 184.5 L 126.0 186.0 L 123.5 191.0 L 119.5 197.0 L 116.0 202.0 L 115.0 202.5 " stroke="black" fill="none" stroke-width="9.0" stroke-linecap="round" stroke-linejoin="round" />
<path d="M 136.5 185.5 L 136.5 185.5 L 137.0 186.0 L 138.5 187.5 L 141.5 190.0 L 144.5 191.0 " stroke="black" fill="none" stroke-width="9.0" stroke-linecap="round" stroke-linejoin="round" />
<path d="M 156.0 85.0 L 156.0 84.5 L 156.5 84.5 L 157.0 84.5 L 158.5 85.5 L 160.5 88.0 L 162.0 90.5 L 163.5 91.5 " stroke="black" fill="none" stroke-width="9.0" stroke-linecap="round" stroke-linejoin="round" />
<path d="M 150.5 100.5 L 150.5 100.5 L 149.5 101.0 L 149.5 101.5 L 152.5 101.5 L 159.0 101.5 L 167.0 100.0 L 173.5 98.0 L 177.0 97.5 L 177.0 97.5 " stroke="black" fill="none" stroke-width="9.0" stroke-linecap="round" stroke-linejoin="round" />
<path d="M 157.5 115.5 L 157.5 115.5 L 158.0 115.5 L 159.0 115.5 L 160.0 116.5 L 161.5 118.5 L 163.5 121.0 L 166.0 122.5 L 166.5 123.0 " stroke="black" fill="none" stroke-width="9.0" stroke-linecap="round" stroke-linejoin="round" />
<path d="M 177.5 109.0 L 177.5 109.0 L 177.5 109.0 L 177.5 110.0 L 177.5 112.0 L 176.5 117.0 L 174.0 123.5 " stroke="black" fill="none" stroke-width="9.0" stroke-linecap="round" stroke-linejoin="round" />
<path d="M 157.5 137.0 L 157.5 137.0 L 157.5 137.5 L 158.0 137.5 L 162.5 137.0 L 171.0 134.0 L 179.0 131.0 L 185.0 129.5 " stroke="black" fill="none" stroke-width="9.0" stroke-linecap="round" stroke-linejoin="round" />
<path d="M 166.5 150.0 L 166.0 149.0 L 165.5 149.0 L 165.5 150.0 L 166.5 153.0 L 167.5 157.0 L 168.5 160.0 L 168.5 160.5 " stroke="black" fill="none" stroke-width="9.0" stroke-linecap="round" stroke-linejoin="round" />
<path d="M 168.0 152.5 L 168.0 152.5 L 168.0 152.5 L 168.0 151.5 L 171.5 149.0 L 177.5 146.5 L 181.5 146.0 L 183.5 147.0 L 183.5 149.5 L 182.5 152.5 L 180.5 156.5 L 177.5 160.0 L 176.0 162.0 " stroke="black" fill="none" stroke-width="9.0" stroke-linecap="round" stroke-linejoin="round" />
<path d="M 170.0 168.0 L 170.0 168.0 L 170.0 168.0 L 171.0 167.5 L 175.0 165.0 L 180.0 163.0 L 182.5 162.5 L 183.0 163.0 " stroke="black" fill="none" stroke-width="9.0" stroke-linecap="round" stroke-linejoin="round" />
<path d="M 171.5 171.5 L 171.5 171.5 L 171.5 170.5 L 171.5 170.5 L 171.5 171.5 L 170.0 177.0 L 167.0 185.5 L 163.0 193.5 L 161.5 196.5 L 161.0 196.5 " stroke="black" fill="none" stroke-width="9.0" stroke-linecap="round" stroke-linejoin="round" />
<path d="M 179.0 175.0 L 179.0 175.0 L 179.5 175.0 L 180.0 175.0 L 180.0 176.5 L 180.0 180.5 L 180.0 187.0 L 181.5 193.5 L 187.0 197.5 L 194.5 198.0 L 201.5 194.0 L 204.5 189.0 L 205.0 185.5 L 202.5 184.0 L 199.5 183.5 L 198.0 183.5 " stroke="black" fill="none" stroke-width="9.0" stroke-linecap="round" stroke-linejoin="round" />
</svg>