<svg xmlns="http://www.w3.org/2000/svg" width="300" height="300" viewBox="0 0 300 300">
<path d="M 126.0 119.5 L 125.5 119.0 L 125.0 118.5 L 125.0 118.5 L 125.5 119.5 L 128.0 122.5 L 130.0 125.5 L 131.5 128.0 L 132.5 129.0 " stroke="black" fill="none" stroke-width="6.0" stroke-linecap="round" stroke-linejoin="round" />
<path d="M 120.5 136.0 L 120.5 136.0 L 120.5 137.0 L 120.5 137.0 L 122.5 136.5 L 127.0 135.5 L 133.5 134.5 L 138.0 134.0 L 140.5 133.5 L 140.5 133.5 " stroke="black" fill="none" stroke-width="6.0" stroke-linecap="round" stroke-linejoin="round" />
<path d="M 124.0 148.5 L 123.5 148.5 L 123.0 148.0 L 122.5 148.0 L 122.5 148.0 L 123.5 149.5 L 125.0 154.5 L 127.0 161.5 L 129.0 166.5 L 130.5 167.5 L 130.5 167.5 " stroke="black" fill="none" stroke-width="6.0" stroke-linecap="round" stroke-linejoin="round" />
<path d="M 137.5 147.0 L 138.0 146.0 L 138.5 145.5 L 139.0 145.0 L 139.5 145.0 L 139.5 147.5 L 139.5 152.5 L 139.5 158.5 L 139.0 163.5 L 139.0 166.0 L 139.0 166.5 " stroke="black" fill="none" stroke-width="6.0" stroke-linecap="round" stroke-linejoin="round" />
<path d="M 125.0 176.5 L 125.5 177.0 L 125.5 177.5 L 127.5 177.0 L 131.5 174.5 L 136.0 171.5 L 139.5 169.0 L 141.0 168.5 " stroke="black" fill="none" stroke-width="6.0" stroke-linecap="round" stroke-linejoin="round" />
<path d="M 150.0 122.5 L 150.0 122.0 L 150.0 121.0 L 150.0 121.0 L 151.0 121.0 L 155.0 120.5 L 161.0 120.0 L 166.0 119.0 L 169.0 119.0 L 170.5 119.0 L 171.0 119.0 L 171.5 119.0 " stroke="black" fill="none" stroke-width="6.0" stroke-linecap="round" stroke-linejoin="round" />
<path d="M 149.5 134.5 L 149.0 134.5 L 149.0 135.5 L 149.0 136.0 L 149.0 137.0 L 149.5 139.5 L 150.5 142.5 L 151.5 145.5 L 152.5 147.0 L 153.0 147.0 " stroke="black" fill="none" stroke-width="6.0" stroke-linecap="round" stroke-linejoin="round" />
<path d="M 152.0 133.5 L 152.0 133.5 L 151.5 134.0 L 151.0 134.0 L 151.5 134.0 L 154.5 133.0 L 159.5 131.5 L 165.0 130.5 L 170.5 129.5 L 174.5 129.5 L 175.5 130.5 L 175.5 131.5 L 175.5 132.0 L 175.0 132.5 L 174.5 133.5 L 174.0 134.5 L 173.5 136.5 L 172.5 138.5 L 172.0 141.0 L 171.5 143.0 L 171.0 145.0 L 171.0 145.5 " stroke="black" fill="none" stroke-width="6.0" stroke-linecap="round" stroke-linejoin="round" />
<path d="M 155.0 148.5 L 154.5 148.5 L 154.0 148.5 L 154.0 148.0 L 154.5 148.0 L 157.5 147.5 L 162.0 147.0 L 166.5 146.0 " stroke="black" fill="none" stroke-width="6.0" stroke-linecap="round" stroke-linejoin="round" />
<path d="M 162.5 108.0 L 162.5 108.5 L 161.5 109.0 L 161.0 109.5 L 161.0 111.5 L 161.0 118.5 L 161.5 129.5 L 161.5 141.5 L 161.5 151.0 L 161.5 158.5 L 161.5 164.5 L 162.0 169.0 L 162.0 172.0 L 162.5 174.0 L 162.5 174.5 L 162.5 174.5 L 162.5 175.0 L 162.5 175.0 L 162.5 175.5 L 163.0 175.5 L 163.0 176.0 L 163.0 176.0 L 163.0 176.0 L 163.0 176.0 L 163.0 176.5 L 163.0 176.5 L 163.0 176.5 L 163.0 176.5 L 163.0 177.0 L 163.0 177.0 L 163.0 177.5 L 163.0 178.0 L 163.0 179.0 L 163.0 180.0 L 163.0 181.0 L 163.0 181.5 L 163.5 182.5 L 163.5 183.0 L 163.5 183.5 L 163.5 184.0 L 163.5 184.5 L 164.0 184.5 L 164.0 185.0 L 164.0 185.0 L 164.0 185.5 L 164.0 185.5 L 164.0 185.5 L 164.5 185.5 L 164.5 185.0 " stroke="black" fill="none" stroke-width="6.0" stroke-linecap="round" stroke-linejoin="round" />
<path d="M 158.5 150.5 L 158.5 150.5 L 159.0 151.0 L 159.5 151.0 L 159.5 151.5 L 159.5 152.5 L 158.0 156.0 L 155.0 162.5 L 151.0 169.0 L 148.5 172.5 L 148.0 173.0 L 148.0 172.0 " stroke="black" fill="none" stroke-width="6.0" stroke-linecap="round" stroke-linejoin="round" />
<path d="M 162.0 154.0 L 162.0 155.0 L 162.0 156.0 L 162.0 156.0 L 163.0 157.0 L 166.0 159.5 L 170.0 163.5 L 175.0 167.5 L 178.5 170.0 L 180.0 170.5 " stroke="black" fill="none" stroke-width="6.0" stroke-linecap="round" stroke-linejoin="round" />
</svg>