<svg xmlns="http://www.w3.org/2000/svg" width="300" height="300" viewBox="0 0 300 300">
<path d="M 143.5 83.5 L 143.5 83.5 L 143.0 83.5 L 144.0 86.0 L 146.0 90.0 L 149.5 93.0 L 150.5 93.5 " stroke="black" fill="none" stroke-width="8.0" stroke-linecap="round" stroke-linejoin="round" />
<path d="M 128.0 102.0 L 128.0 101.0 L 128.0 100.5 L 132.0 100.5 L 141.5 100.5 L 154.0 100.0 L 165.5 99.0 L 172.5 98.5 L 174.0 99.0 L 172.5 101.0 " stroke="black" fill="none" stroke-width="8.0" stroke-linecap="round" stroke-linejoin="round" />
<path d="M 138.0 111.0 L 137.0 111.5 L 136.0 112.5 L 135.5 113.5 L 137.5 116.0 L 142.0 119.5 L 146.5 121.0 L 149.0 121.0 " stroke="black" fill="none" stroke-width="8.0" stroke-linecap="round" stroke-linejoin="round" />
<path d="M 165.0 109.0 L 165.0 109.0 L 164.5 109.0 L 164.5 109.0 L 164.0 110.0 L 163.5 113.0 L 162.0 117.5 L 161.0 121.5 " stroke="black" fill="none" stroke-width="8.0" stroke-linecap="round" stroke-linejoin="round" />
<path d="M 126.5 137.5 L 126.5 137.5 L 126.5 137.0 L 129.0 136.0 L 140.0 134.5 L 154.0 133.0 L 166.0 132.5 L 173.0 133.0 L 173.5 133.0 " stroke="black" fill="none" stroke-width="8.0" stroke-linecap="round" stroke-linejoin="round" />
<path d="M 135.0 151.5 L 135.5 151.0 L 136.0 150.5 L 136.0 150.0 L 136.5 153.0 L 137.0 159.0 L 137.5 166.5 L 138.0 171.5 L 138.0 172.5 " stroke="black" fill="none" stroke-width="8.0" stroke-linecap="round" stroke-linejoin="round" />
<path d="M 142.0 149.0 L 141.0 149.0 L 139.5 149.0 L 139.0 149.0 L 140.5 149.0 L 145.5 148.0 L 153.5 145.5 L 161.5 143.5 L 167.0 144.0 L 169.5 145.5 L 169.5 147.5 L 170.0 150.0 L 170.0 153.5 L 169.0 160.0 L 167.5 168.0 L 166.0 175.0 L 165.5 178.5 L 165.5 179.0 " stroke="black" fill="none" stroke-width="8.0" stroke-linecap="round" stroke-linejoin="round" />
<path d="M 141.5 159.5 L 141.0 159.5 L 140.5 159.5 L 141.0 159.5 L 144.5 159.5 L 150.5 159.5 L 157.5 159.0 L 162.5 158.0 L 165.5 156.5 " stroke="black" fill="none" stroke-width="8.0" stroke-linecap="round" stroke-linejoin="round" />
<path d="M 132.5 183.0 L 133.0 183.0 L 133.0 182.5 L 134.0 182.5 L 139.5 182.0 L 148.0 182.0 L 156.0 181.5 L 161.0 180.0 L 161.5 179.5 " stroke="black" fill="none" stroke-width="8.0" stroke-linecap="round" stroke-linejoin="round" />
<path d="M 146.0 193.0 L 144.5 193.0 L 144.0 193.0 L 143.5 194.0 L 142.5 198.0 L 139.0 204.5 L 133.0 212.0 L 129.0 215.5 L 128.0 216.0 L 128.0 214.5 " stroke="black" fill="none" stroke-width="8.0" stroke-linecap="round" stroke-linejoin="round" />
<path d="M 163.0 196.5 L 161.5 196.5 L 161.0 196.0 L 160.5 196.0 L 160.5 196.5 L 160.5 198.5 L 161.0 203.0 L 162.5 208.5 L 165.5 213.0 L 170.5 216.5 L 178.5 217.0 L 187.5 215.5 L 193.0 213.5 L 194.5 212.0 L 194.5 211.0 L 194.0 210.5 L 193.5 208.5 L 192.5 206.5 L 192.0 204.0 L 192.0 202.0 L 192.0 201.0 L 192.0 200.5 " stroke="black" fill="none" stroke-width="8.0" stroke-linecap="round" stroke-linejoin="round" />
</svg>