<svg xmlns="http://www.w3.org/2000/svg" width="300" height="300" viewBox="0 0 300 300">
<path d="M 111.5 84.5 L 111.5 84.5 L 111.5 84.5 L 111.5 84.5 L 111.5 84.5 L 111.5 87.0 L 110.0 92.5 L 106.5 100.5 L 103.0 106.5 L 101.0 107.5 L 101.0 106.0 " stroke="black" fill="none" stroke-width="7.0" stroke-linecap="round" stroke-linejoin="round" />
<path d="M 111.5 95.0 L 111.5 95.0 L 111.5 94.5 L 113.0 94.0 L 118.5 93.5 L 126.5 92.0 L 134.0 91.0 L 139.5 89.5 L 141.0 89.5 L 140.5 89.5 L 138.5 90.5 " stroke="black" fill="none" stroke-width="7.0" stroke-linecap="round" stroke-linejoin="round" />
<path d="M 120.5 99.5 L 120.5 99.5 L 120.5 99.0 L 121.0 99.0 L 124.0 101.0 L 128.0 104.0 L 133.0 106.5 L 137.0 107.5 " stroke="black" fill="none" stroke-width="7.0" stroke-linecap="round" stroke-linejoin="round" />
<path d="M 169.5 86.5 L 169.0 86.5 L 168.5 86.5 L 168.0 86.5 L 167.5 87.5 L 166.5 92.0 L 163.5 100.0 L 160.5 106.0 L 159.0 108.0 L 159.0 108.0 " stroke="black" fill="none" stroke-width="7.0" stroke-linecap="round" stroke-linejoin="round" />
<path d="M 171.5 96.5 L 171.5 96.5 L 171.5 96.5 L 171.5 96.5 L 175.0 95.0 L 182.5 93.0 L 190.0 91.0 L 195.0 89.5 L 196.0 89.5 " stroke="black" fill="none" stroke-width="7.0" stroke-linecap="round" stroke-linejoin="round" />
<path d="M 179.5 103.0 L 180.0 103.0 L 180.5 102.5 L 182.0 102.5 L 185.0 104.0 L 188.5 106.0 L 191.0 107.5 L 193.0 108.0 " stroke="black" fill="none" stroke-width="7.0" stroke-linecap="round" stroke-linejoin="round" />
<path d="M 106.5 130.5 L 106.0 131.0 L 105.5 131.0 L 106.0 131.0 L 108.5 130.5 L 114.5 128.5 L 123.5 125.5 L 131.0 122.0 L 133.5 121.0 L 133.5 120.5 L 132.5 121.0 L 131.5 122.0 " stroke="black" fill="none" stroke-width="7.0" stroke-linecap="round" stroke-linejoin="round" />
<path d="M 109.5 142.0 L 109.5 142.0 L 110.0 141.0 L 110.5 140.0 L 112.0 139.0 L 115.5 139.0 L 120.5 138.5 L 127.0 137.5 L 132.5 136.0 L 135.0 135.0 L 135.5 135.0 L 135.0 135.0 " stroke="black" fill="none" stroke-width="7.0" stroke-linecap="round" stroke-linejoin="round" />
<path d="M 105.5 152.0 L 105.0 152.0 L 104.0 152.5 L 103.5 153.0 L 103.5 153.0 L 105.5 152.5 L 109.0 152.0 L 114.5 151.5 L 122.0 151.0 L 130.0 150.0 L 136.5 148.5 L 141.0 148.5 L 143.0 148.0 L 143.5 148.0 " stroke="black" fill="none" stroke-width="7.0" stroke-linecap="round" stroke-linejoin="round" />
<path d="M 121.0 114.5 L 121.0 114.5 L 120.5 115.5 L 120.5 116.5 L 120.5 118.5 L 121.0 123.5 L 122.0 131.0 L 122.5 142.5 L 123.0 156.5 L 123.5 170.0 L 124.5 181.5 L 125.5 190.5 L 126.0 195.5 L 126.0 196.5 L 125.0 196.0 L 123.5 193.0 " stroke="black" fill="none" stroke-width="7.0" stroke-linecap="round" stroke-linejoin="round" />
<path d="M 115.0 158.0 L 115.0 158.0 L 115.5 158.0 L 115.5 158.5 L 115.5 160.0 L 113.5 165.0 L 109.0 173.0 L 103.0 182.0 L 99.0 187.0 L 98.5 187.0 L 98.5 186.5 " stroke="black" fill="none" stroke-width="7.0" stroke-linecap="round" stroke-linejoin="round" />
<path d="M 130.0 165.0 L 130.0 165.0 L 130.0 165.0 L 130.5 165.0 L 133.5 168.0 L 138.0 171.5 L 142.5 174.5 L 144.5 175.5 " stroke="black" fill="none" stroke-width="7.0" stroke-linecap="round" stroke-linejoin="round" />
<path d="M 154.0 127.0 L 154.0 127.0 L 154.0 127.0 L 154.0 127.0 L 155.5 127.0 L 162.0 126.5 L 172.0 125.5 L 181.5 124.5 L 188.5 124.5 L 191.0 124.5 L 191.0 124.5 L 190.5 124.0 L 190.5 124.0 " stroke="black" fill="none" stroke-width="7.0" stroke-linecap="round" stroke-linejoin="round" />
<path d="M 167.0 117.0 L 166.5 117.0 L 165.5 117.0 L 165.5 117.0 L 165.5 117.5 L 166.5 121.0 L 167.0 126.5 L 167.0 133.0 L 167.0 137.0 L 167.5 137.5 " stroke="black" fill="none" stroke-width="7.0" stroke-linecap="round" stroke-linejoin="round" />
<path d="M 179.5 116.0 L 180.5 116.0 L 181.0 116.0 L 181.5 116.0 L 181.5 117.0 L 182.0 121.0 L 182.0 127.0 L 181.5 132.5 L 180.5 136.0 L 180.0 136.5 " stroke="black" fill="none" stroke-width="7.0" stroke-linecap="round" stroke-linejoin="round" />
<path d="M 159.0 143.5 L 159.0 143.5 L 158.0 143.5 L 158.0 143.5 L 158.5 143.5 L 162.5 143.0 L 170.5 142.5 L 180.5 142.0 L 190.0 141.5 L 196.0 141.0 L 198.5 140.5 L 198.0 140.5 L 196.5 141.0 " stroke="black" fill="none" stroke-width="7.0" stroke-linecap="round" stroke-linejoin="round" />
<path d="M 164.0 157.0 L 164.0 157.0 L 164.0 157.0 L 164.0 157.0 L 164.0 157.5 L 164.0 161.0 L 164.5 168.5 L 165.0 176.5 L 165.5 182.0 L 166.0 183.0 L 166.5 182.5 " stroke="black" fill="none" stroke-width="7.0" stroke-linecap="round" stroke-linejoin="round" />
<path d="M 167.5 158.5 L 166.5 159.0 L 165.0 159.0 L 165.0 159.0 L 166.0 159.0 L 168.5 159.0 L 172.5 158.5 L 177.5 157.0 L 183.0 156.0 L 187.0 156.0 L 189.0 156.0 L 189.5 157.0 L 189.5 159.0 L 189.0 162.0 L 188.5 167.0 L 187.5 173.5 L 187.0 179.0 L 187.0 182.5 L 187.0 183.5 L 187.0 183.5 " stroke="black" fill="none" stroke-width="7.0" stroke-linecap="round" stroke-linejoin="round" />
<path d="M 169.0 172.5 L 168.5 172.5 L 168.0 172.5 L 168.5 172.5 L 171.5 172.0 L 176.0 171.5 L 181.0 171.5 L 185.0 171.0 L 186.0 171.0 " stroke="black" fill="none" stroke-width="7.0" stroke-linecap="round" stroke-linejoin="round" />
<path d="M 165.5 188.5 L 165.5 188.5 L 165.0 188.5 L 164.5 188.5 L 167.0 188.5 L 172.0 188.5 L 178.0 188.5 L 184.5 189.0 L 190.0 188.5 L 191.0 188.5 " stroke="black" fill="none" stroke-width="7.0" stroke-linecap="round" stroke-linejoin="round" />
</svg>