<svg xmlns="http://www.w3.org/2000/svg" width="300" height="300" viewBox="0 0 300 300">
<path d="M 130.00000000000003 108.33333333333333 L 129.44444444444446 108.88888888888889 L 128.33333333333334 108.88888888888889 L 127.77777777777779 108.88888888888889 L 131.11111111111111 107.77777777777779 L 137.7777777777778 106.66666666666667 L 146.11111111111111 106.11111111111111 L 155.00000000000003 105.0 L 161.11111111111111 103.88888888888889 L 162.7777777777778 103.88888888888889 L 161.66666666666669 103.88888888888889 " stroke="black" fill="none" stroke-width="7.0" stroke-linecap="round" stroke-linejoin="round" />
<path d="M 135.55555555555557 121.66666666666667 L 135.00000000000003 122.22222222222221 L 134.44444444444446 122.22222222222221 L 135.00000000000003 122.22222222222221 L 139.44444444444446 122.22222222222221 L 146.11111111111111 121.1111111111111 L 153.33333333333334 120.00000000000001 L 158.33333333333334 119.44444444444444 L 159.44444444444446 119.44444444444444 " stroke="black" fill="none" stroke-width="7.0" stroke-linecap="round" stroke-linejoin="round" />
<path d="M 150.00000000000003 93.33333333333333 L 148.8888888888889 92.22222222222223 L 148.33333333333334 92.22222222222223 L 148.33333333333334 95.55555555555556 L 148.33333333333334 102.22222222222223 L 148.33333333333334 113.33333333333333 L 148.8888888888889 123.33333333333333 L 148.33333333333334 128.8888888888889 L 147.7777777777778 133.33333333333334 L 147.7777777777778 135.55555555555557 " stroke="black" fill="none" stroke-width="7.0" stroke-linecap="round" stroke-linejoin="round" />
<path d="M 123.33333333333333 139.44444444444446 L 122.22222222222221 138.33333333333334 L 122.77777777777779 137.7777777777778 L 127.77777777777779 136.66666666666669 L 137.22222222222223 136.11111111111111 L 150.55555555555557 135.00000000000003 L 164.44444444444446 133.33333333333334 L 173.8888888888889 132.22222222222223 L 175.55555555555557 132.7777777777778 L 175.55555555555557 132.7777777777778 " stroke="black" fill="none" stroke-width="7.0" stroke-linecap="round" stroke-linejoin="round" />
<path d="M 149.44444444444446 142.22222222222223 L 148.8888888888889 141.66666666666669 L 148.8888888888889 141.11111111111111 L 148.8888888888889 141.11111111111111 L 148.8888888888889 143.33333333333334 L 147.7777777777778 147.22222222222223 L 145.00000000000003 151.66666666666669 L 141.66666666666669 157.22222222222223 L 136.66666666666669 162.7777777777778 L 133.8888888888889 165.55555555555557 L 132.7777777777778 166.11111111111114 L 133.33333333333334 166.11111111111114 L 135.55555555555557 165.00000000000003 L 138.33333333333334 163.8888888888889 L 142.22222222222223 163.8888888888889 L 146.66666666666669 163.33333333333334 L 150.55555555555557 162.7777777777778 L 153.8888888888889 161.66666666666669 L 155.00000000000003 160.55555555555557 " stroke="black" fill="none" stroke-width="7.0" stroke-linecap="round" stroke-linejoin="round" />
<path d="M 162.22222222222223 146.11111111111111 L 162.22222222222223 145.55555555555557 L 162.22222222222223 145.00000000000003 L 162.22222222222223 145.00000000000003 L 161.66666666666669 146.11111111111111 L 160.55555555555557 150.55555555555557 L 156.66666666666669 157.22222222222223 L 150.00000000000003 165.00000000000003 L 143.8888888888889 171.66666666666669 L 138.8888888888889 175.55555555555557 L 135.55555555555557 177.22222222222223 L 133.8888888888889 178.33333333333334 L 132.7777777777778 178.8888888888889 L 132.7777777777778 178.8888888888889 L 133.33333333333334 178.8888888888889 L 135.55555555555557 178.8888888888889 L 140.00000000000003 178.33333333333334 L 145.00000000000003 177.22222222222223 L 151.66666666666669 175.55555555555557 L 157.7777777777778 173.33333333333334 L 162.22222222222223 172.22222222222223 L 163.33333333333334 171.66666666666669 L 163.33333333333334 171.66666666666669 " stroke="black" fill="none" stroke-width="7.0" stroke-linecap="round" stroke-linejoin="round" />
<path d="M 166.66666666666669 160.55555555555557 L 166.11111111111114 160.55555555555557 L 165.00000000000003 160.55555555555557 L 165.00000000000003 161.11111111111111 L 166.11111111111114 162.7777777777778 L 168.33333333333334 166.11111111111114 L 170.55555555555557 170.00000000000003 L 172.22222222222223 172.22222222222223 L 173.33333333333334 173.8888888888889 " stroke="black" fill="none" stroke-width="7.0" stroke-linecap="round" stroke-linejoin="round" />
<path d="M 151.66666666666669 181.11111111111114 L 151.66666666666669 181.11111111111114 L 151.66666666666669 180.55555555555557 L 151.66666666666669 180.00000000000003 L 151.66666666666669 179.44444444444446 L 152.7777777777778 180.00000000000003 L 153.8888888888889 183.8888888888889 L 155.00000000000003 190.00000000000003 L 155.55555555555557 196.66666666666669 L 155.00000000000003 202.22222222222223 L 153.8888888888889 205.00000000000003 L 151.11111111111111 205.55555555555557 L 148.33333333333334 205.55555555555557 L 146.66666666666669 203.8888888888889 L 145.55555555555557 201.66666666666669 " stroke="black" fill="none" stroke-width="7.0" stroke-linecap="round" stroke-linejoin="round" />
<path d="M 140.00000000000003 191.66666666666669 L 138.8888888888889 191.66666666666669 L 136.66666666666669 191.66666666666669 L 133.8888888888889 193.33333333333334 L 130.55555555555557 196.11111111111114 L 128.33333333333334 197.22222222222223 L 128.33333333333334 197.7777777777778 " stroke="black" fill="none" stroke-width="7.0" stroke-linecap="round" stroke-linejoin="round" />
<path d="M 169.44444444444446 188.8888888888889 L 169.44444444444446 188.8888888888889 L 169.44444444444446 188.33333333333334 L 170.00000000000003 188.33333333333334 L 173.33333333333334 189.44444444444446 L 178.8888888888889 192.7777777777778 L 183.33333333333334 195.55555555555557 " stroke="black" fill="none" stroke-width="7.0" stroke-linecap="round" stroke-linejoin="round" />
</svg>