<svg xmlns="http://www.w3.org/2000/svg" width="300" height="300" viewBox="0 0 300 300">
<path d="M 125.0 104.0 L 125.0 104.0 L 125.0 103.5 L 124.5 103.0 L 124.5 103.0 L 124.5 103.0 L 125.0 105.5 L 124.0 109.5 L 121.0 115.5 L 117.5 122.0 L 115.0 125.5 L 114.5 126.0 L 114.5 126.0 L 114.5 125.5 L 114.5 125.5 L 114.5 125.5 L 114.5 125.5 L 115.0 125.0 L 116.5 124.5 L 118.5 124.5 L 121.5 123.5 L 125.0 122.5 L 128.0 121.5 L 130.0 120.0 L 131.0 119.5 L 131.0 119.0 L 131.0 119.0 L 130.5 119.0 " stroke="black" fill="none" stroke-width="7.0" stroke-linecap="round" stroke-linejoin="round" />
<path d="M 134.0 111.0 L 135.0 111.0 L 135.5 111.5 L 135.5 111.5 L 135.5 112.0 L 135.5 113.5 L 134.0 116.5 L 132.5 121.0 L 129.5 126.0 L 126.5 131.5 L 124.0 137.5 L 121.0 143.0 L 118.5 147.5 L 116.5 149.5 L 116.0 150.0 L 115.5 150.0 L 115.0 150.0 L 114.5 150.0 L 114.5 150.0 L 115.0 149.0 L 116.0 148.5 L 117.5 147.5 L 118.5 147.0 L 120.0 146.5 L 121.5 146.5 L 124.0 146.0 L 126.5 146.0 L 129.0 145.5 L 131.5 145.0 L 134.0 144.0 L 136.5 142.5 L 138.0 142.0 L 138.0 141.5 L 138.0 141.0 L 138.0 141.0 " stroke="black" fill="none" stroke-width="7.0" stroke-linecap="round" stroke-linejoin="round" />
<path d="M 136.0 137.0 L 136.0 136.5 L 136.0 135.5 L 136.0 134.5 L 136.0 134.0 L 136.0 134.0 L 136.0 134.5 L 137.0 136.0 L 138.0 139.5 L 139.0 143.5 L 140.0 146.0 L 140.5 147.5 L 140.5 148.0 " stroke="black" fill="none" stroke-width="7.0" stroke-linecap="round" stroke-linejoin="round" />
<path d="M 117.5 161.0 L 117.5 160.5 L 118.0 160.0 L 118.0 160.0 L 118.0 160.5 L 117.5 163.0 L 117.0 167.5 L 116.0 171.0 L 115.0 173.0 L 114.5 173.0 " stroke="black" fill="none" stroke-width="7.0" stroke-linecap="round" stroke-linejoin="round" />
<path d="M 127.0 159.5 L 127.0 159.5 L 127.5 160.0 L 128.0 162.0 L 129.5 164.5 L 130.5 167.0 L 131.5 168.5 L 131.5 168.5 " stroke="black" fill="none" stroke-width="7.0" stroke-linecap="round" stroke-linejoin="round" />
<path d="M 136.5 160.5 L 137.5 160.5 L 138.5 161.5 L 139.5 162.5 L 141.5 164.0 L 143.0 165.5 L 143.5 165.5 " stroke="black" fill="none" stroke-width="7.0" stroke-linecap="round" stroke-linejoin="round" />
<path d="M 152.5 102.5 L 152.5 102.5 L 152.5 102.5 L 152.5 102.0 L 153.0 102.0 L 154.0 103.5 L 156.0 106.0 L 158.5 108.0 L 160.5 109.5 L 161.0 110.0 " stroke="black" fill="none" stroke-width="7.0" stroke-linecap="round" stroke-linejoin="round" />
<path d="M 148.5 119.5 L 148.5 119.5 L 147.5 119.5 L 147.5 119.0 L 149.5 118.5 L 155.0 117.5 L 163.0 117.0 L 170.5 116.5 L 175.0 116.5 L 176.5 116.5 L 176.0 116.5 " stroke="black" fill="none" stroke-width="7.0" stroke-linecap="round" stroke-linejoin="round" />
<path d="M 160.0 120.5 L 160.0 120.5 L 161.0 120.5 L 161.5 120.0 L 161.5 120.0 L 161.5 121.5 L 161.0 126.0 L 160.0 133.5 L 157.0 145.0 L 154.5 154.5 L 154.0 157.5 L 154.0 156.0 L 154.0 155.0 " stroke="black" fill="none" stroke-width="7.0" stroke-linecap="round" stroke-linejoin="round" />
<path d="M 160.5 133.5 L 160.5 133.5 L 160.0 134.5 L 160.0 135.0 L 160.5 135.0 L 163.0 134.5 L 166.5 133.0 L 170.0 132.5 L 173.5 132.0 L 175.5 132.0 L 176.0 132.0 L 176.0 132.0 L 175.5 132.0 L 175.5 132.5 L 175.0 133.0 L 175.0 133.5 L 174.5 134.0 L 174.5 134.5 L 174.5 135.5 L 174.5 137.0 L 175.0 139.5 L 175.0 143.5 L 175.0 150.0 L 174.5 157.0 L 173.5 162.5 L 171.5 166.0 L 169.0 168.0 L 166.5 168.0 L 165.0 167.0 L 163.5 165.0 L 163.5 164.0 " stroke="black" fill="none" stroke-width="7.0" stroke-linecap="round" stroke-linejoin="round" />
</svg>