<svg xmlns="http://www.w3.org/2000/svg" width="300" height="300" viewBox="0 0 300 300">
<path d="M 94.0 73.0 L 94.0 73.0 L 93.0 73.0 L 92.0 73.0 L 92.0 73.0 L 92.0 77.0 L 92.0 84.0 L 91.0 92.0 L 88.0 102.0 L 83.0 112.0 L 78.0 120.0 L 74.0 126.0 L 71.0 130.0 L 69.0 133.0 L 68.0 135.0 L 67.0 136.0 L 67.0 136.0 L 67.0 136.0 L 67.0 136.0 L 67.0 136.0 L 68.0 136.0 L 69.0 136.0 L 71.0 136.0 L 74.0 135.0 L 77.0 135.0 L 82.0 134.0 L 89.0 133.0 L 96.0 129.0 L 102.0 126.0 L 105.0 123.0 L 105.0 123.0 L 105.0 123.0 L 105.0 123.0 " stroke="black" fill="none" stroke-width="12.0" stroke-linecap="round" stroke-linejoin="round" />
<path d="M 111.0 109.0 L 111.0 109.0 L 111.0 108.0 L 112.0 107.0 L 112.0 106.0 L 112.0 105.0 L 112.0 105.0 L 112.0 106.0 L 111.0 110.0 L 107.0 118.0 L 103.0 128.0 L 96.0 141.0 L 88.0 154.0 L 79.0 164.0 L 73.0 171.0 L 68.0 174.0 L 67.0 175.0 L 67.0 175.0 L 67.0 175.0 L 68.0 175.0 L 68.0 175.0 L 68.0 175.0 L 68.0 175.0 L 68.0 175.0 L 68.0 175.0 L 68.0 175.0 L 69.0 175.0 L 70.0 175.0 L 72.0 174.0 L 74.0 174.0 L 78.0 174.0 L 85.0 174.0 L 94.0 173.0 L 103.0 171.0 L 109.0 170.0 L 111.0 169.0 L 112.0 168.0 " stroke="black" fill="none" stroke-width="12.0" stroke-linecap="round" stroke-linejoin="round" />
<path d="M 117.0 152.0 L 117.0 152.0 L 117.0 152.0 L 117.0 152.0 L 118.0 153.0 L 120.0 160.0 L 124.0 168.0 L 128.0 175.0 L 128.0 176.0 " stroke="black" fill="none" stroke-width="12.0" stroke-linecap="round" stroke-linejoin="round" />
<path d="M 76.0 208.0 L 76.0 208.0 L 76.0 209.0 L 76.0 209.0 L 75.0 211.0 L 73.0 217.0 L 69.0 226.0 L 66.0 233.0 L 65.0 236.0 " stroke="black" fill="none" stroke-width="12.0" stroke-linecap="round" stroke-linejoin="round" />
<path d="M 95.0 203.0 L 94.0 203.0 L 93.0 204.0 L 93.0 207.0 L 95.0 215.0 L 97.0 226.0 L 99.0 233.0 L 99.0 235.0 " stroke="black" fill="none" stroke-width="12.0" stroke-linecap="round" stroke-linejoin="round" />
<path d="M 114.0 202.0 L 114.0 203.0 L 114.0 205.0 L 116.0 208.0 L 119.0 214.0 L 122.0 220.0 L 123.0 220.0 " stroke="black" fill="none" stroke-width="12.0" stroke-linecap="round" stroke-linejoin="round" />
<path d="M 155.0 101.0 L 155.0 101.0 L 154.0 100.0 L 154.0 100.0 L 160.0 100.0 L 173.0 100.0 L 193.0 100.0 L 213.0 102.0 L 230.0 102.0 L 239.0 102.0 L 240.0 101.0 L 240.0 101.0 " stroke="black" fill="none" stroke-width="12.0" stroke-linecap="round" stroke-linejoin="round" />
<path d="M 190.0 76.0 L 188.0 76.0 L 187.0 76.0 L 187.0 76.0 L 187.0 78.0 L 188.0 88.0 L 189.0 103.0 L 189.0 119.0 L 189.0 130.0 L 190.0 132.0 " stroke="black" fill="none" stroke-width="12.0" stroke-linecap="round" stroke-linejoin="round" />
<path d="M 163.0 142.0 L 163.0 142.0 L 162.0 141.0 L 162.0 141.0 L 163.0 140.0 L 169.0 139.0 L 183.0 138.0 L 203.0 137.0 L 220.0 137.0 L 229.0 137.0 L 230.0 137.0 " stroke="black" fill="none" stroke-width="12.0" stroke-linecap="round" stroke-linejoin="round" />
<path d="M 153.0 182.0 L 153.0 182.0 L 152.0 182.0 L 152.0 184.0 L 153.0 192.0 L 156.0 205.0 L 158.0 220.0 L 158.0 230.0 L 159.0 233.0 L 159.0 233.0 " stroke="black" fill="none" stroke-width="12.0" stroke-linecap="round" stroke-linejoin="round" />
<path d="M 159.0 185.0 L 158.0 185.0 L 157.0 185.0 L 156.0 185.0 L 156.0 185.0 L 159.0 184.0 L 166.0 182.0 L 176.0 180.0 L 192.0 176.0 L 208.0 174.0 L 218.0 174.0 L 219.0 178.0 L 218.0 180.0 L 217.0 181.0 L 217.0 181.0 L 217.0 182.0 L 217.0 184.0 L 217.0 187.0 L 217.0 190.0 L 217.0 194.0 L 217.0 200.0 L 216.0 207.0 L 215.0 217.0 L 214.0 227.0 L 213.0 233.0 L 213.0 235.0 L 213.0 235.0 L 213.0 234.0 " stroke="black" fill="none" stroke-width="12.0" stroke-linecap="round" stroke-linejoin="round" />
<path d="M 154.0 249.0 L 156.0 249.0 L 158.0 249.0 L 163.0 249.0 L 172.0 249.0 L 188.0 248.0 L 207.0 247.0 L 215.0 245.0 " stroke="black" fill="none" stroke-width="12.0" stroke-linecap="round" stroke-linejoin="round" />
</svg>