<svg xmlns="http://www.w3.org/2000/svg" width="300" height="300" viewBox="0 0 300 300">
<path d="M 110.0 100.0 L 110.5 99.5 L 111.0 98.5 L 111.0 98.0 L 111.5 97.5 L 111.5 97.5 L 111.5 98.0 L 111.0 101.0 L 109.5 105.0 L 107.5 111.0 L 104.0 119.5 L 102.0 126.0 L 102.0 128.5 L 102.0 128.5 L 103.0 127.5 L 104.0 126.5 L 106.5 124.5 L 110.0 121.5 L 114.0 118.5 L 116.5 116.0 L 117.5 115.5 L 117.5 115.5 L 117.5 116.5 L 117.5 117.5 L 117.5 119.5 L 116.5 122.0 L 114.5 126.0 L 112.0 131.5 L 109.5 137.5 L 106.5 144.0 L 104.5 149.0 L 103.0 153.5 L 102.0 157.0 L 102.0 159.5 L 101.5 160.5 L 101.5 161.0 L 101.5 161.0 L 102.0 160.5 L 103.0 158.5 L 105.0 156.5 L 107.5 153.5 L 111.0 150.5 L 114.5 148.0 L 117.5 146.0 L 119.0 144.5 L 120.5 144.0 L 121.0 144.0 L 121.5 144.0 L 122.0 145.0 L 123.0 147.0 L 124.0 150.0 L 125.0 152.5 L 125.5 154.0 L 126.0 154.5 L 126.5 154.5 " stroke="black" fill="none" stroke-width="7.0" stroke-linecap="round" stroke-linejoin="round" />
<path d="M 106.5 174.0 L 106.5 174.0 L 105.5 174.0 L 105.5 174.0 L 105.0 174.5 L 105.0 176.0 L 105.0 180.5 L 105.0 186.0 L 104.5 190.0 L 104.5 191.0 " stroke="black" fill="none" stroke-width="7.0" stroke-linecap="round" stroke-linejoin="round" />
<path d="M 115.0 174.0 L 115.0 174.0 L 115.5 174.0 L 116.0 174.0 L 116.5 174.5 L 117.0 176.5 L 118.0 179.5 L 119.0 183.0 L 119.5 185.0 " stroke="black" fill="none" stroke-width="7.0" stroke-linecap="round" stroke-linejoin="round" />
<path d="M 126.5 171.5 L 126.5 171.5 L 125.5 171.5 L 125.0 172.0 L 126.0 173.5 L 128.0 176.5 L 130.0 179.5 L 132.0 182.0 L 133.0 183.5 " stroke="black" fill="none" stroke-width="7.0" stroke-linecap="round" stroke-linejoin="round" />
<path d="M 142.0 99.5 L 142.0 99.5 L 142.0 99.0 L 142.0 98.5 L 142.0 97.5 L 142.0 97.0 L 142.0 96.5 L 142.0 96.5 L 142.0 100.0 L 142.5 109.0 L 142.5 119.5 L 142.5 125.5 L 142.5 127.5 L 142.5 126.0 " stroke="black" fill="none" stroke-width="7.0" stroke-linecap="round" stroke-linejoin="round" />
<path d="M 145.0 95.5 L 144.5 95.5 L 143.5 95.5 L 143.0 95.5 L 142.5 95.5 L 142.0 95.5 L 143.0 95.0 L 145.5 94.0 L 148.5 93.5 L 153.0 93.0 L 157.0 93.0 L 160.0 93.0 L 161.0 93.5 L 161.0 94.5 L 161.0 95.0 L 160.0 97.0 L 159.5 99.5 L 159.0 104.0 L 158.5 111.0 L 158.5 120.0 L 158.5 126.5 L 158.5 130.0 L 158.5 130.5 L 158.5 130.0 L 158.0 127.5 " stroke="black" fill="none" stroke-width="7.0" stroke-linecap="round" stroke-linejoin="round" />
<path d="M 148.0 107.5 L 146.0 108.0 L 145.5 108.5 L 145.5 108.5 L 147.0 108.0 L 149.5 107.5 L 152.0 107.0 L 155.0 106.5 L 156.5 106.5 L 158.0 106.5 " stroke="black" fill="none" stroke-width="7.0" stroke-linecap="round" stroke-linejoin="round" />
<path d="M 150.0 118.0 L 148.5 118.5 L 147.5 118.5 L 147.5 118.5 L 148.5 118.5 L 150.0 118.5 L 152.5 118.0 L 155.0 118.0 L 156.5 118.0 L 157.5 118.0 " stroke="black" fill="none" stroke-width="7.0" stroke-linecap="round" stroke-linejoin="round" />
<path d="M 144.0 133.0 L 143.5 133.5 L 143.0 134.0 L 142.5 134.0 L 143.0 134.0 L 144.5 134.0 L 146.5 133.5 L 150.5 133.5 L 154.0 133.0 L 157.0 132.0 L 157.5 131.5 " stroke="black" fill="none" stroke-width="7.0" stroke-linecap="round" stroke-linejoin="round" />
<path d="M 148.5 142.5 L 148.5 142.5 L 148.5 142.0 L 148.5 142.0 L 148.0 142.5 L 146.5 145.5 L 144.5 149.0 L 143.5 151.0 L 143.5 151.5 " stroke="black" fill="none" stroke-width="7.0" stroke-linecap="round" stroke-linejoin="round" />
<path d="M 156.5 142.5 L 156.5 142.5 L 157.5 142.5 L 158.5 143.0 L 160.5 144.5 L 163.5 146.5 L 165.5 149.0 L 166.5 149.5 " stroke="black" fill="none" stroke-width="7.0" stroke-linecap="round" stroke-linejoin="round" />
<path d="M 174.5 96.0 L 174.5 96.0 L 174.5 95.5 L 174.0 95.5 L 174.0 95.5 L 174.0 95.5 L 174.0 96.0 L 174.0 102.0 L 174.0 113.5 L 174.0 123.5 L 174.0 128.0 L 174.0 128.0 L 174.0 127.5 " stroke="black" fill="none" stroke-width="7.0" stroke-linecap="round" stroke-linejoin="round" />
<path d="M 175.0 92.0 L 174.0 93.0 L 173.0 93.5 L 172.5 93.5 L 173.0 93.5 L 174.5 93.0 L 177.5 92.5 L 180.5 92.5 L 184.0 92.0 L 188.0 91.5 L 190.5 91.5 L 192.0 91.5 L 192.0 92.0 L 191.5 93.0 L 191.0 95.0 L 191.0 98.0 L 190.5 103.5 L 189.5 111.5 L 188.5 121.0 L 188.0 128.5 L 188.0 132.0 L 188.0 134.0 L 188.0 134.5 L 188.0 134.5 L 188.0 132.0 L 188.0 131.0 " stroke="black" fill="none" stroke-width="7.0" stroke-linecap="round" stroke-linejoin="round" />
<path d="M 176.5 107.5 L 176.5 107.5 L 175.5 108.0 L 175.0 108.5 L 175.0 108.5 L 175.5 107.5 L 177.0 106.5 L 179.0 106.0 L 181.5 106.0 L 184.0 106.0 L 186.0 106.0 " stroke="black" fill="none" stroke-width="7.0" stroke-linecap="round" stroke-linejoin="round" />
<path d="M 176.5 115.0 L 176.0 116.0 L 175.5 116.5 L 175.0 117.0 L 175.0 117.5 L 176.0 117.5 L 178.0 117.5 L 180.5 117.0 L 182.5 116.5 L 184.5 116.5 L 185.0 116.5 " stroke="black" fill="none" stroke-width="7.0" stroke-linecap="round" stroke-linejoin="round" />
<path d="M 172.5 132.0 L 172.5 132.0 L 172.5 132.5 L 172.5 132.5 L 174.0 132.5 L 177.0 132.5 L 180.0 132.5 L 183.0 132.0 " stroke="black" fill="none" stroke-width="7.0" stroke-linecap="round" stroke-linejoin="round" />
<path d="M 177.0 140.0 L 177.5 140.0 L 178.0 140.0 L 178.0 140.0 L 178.0 140.0 L 177.5 142.0 L 176.5 144.5 L 175.0 147.0 L 174.5 148.5 " stroke="black" fill="none" stroke-width="7.0" stroke-linecap="round" stroke-linejoin="round" />
<path d="M 183.5 141.0 L 183.5 141.0 L 183.5 141.5 L 184.5 142.5 L 186.0 143.0 L 188.0 144.5 L 190.0 145.5 L 191.0 147.0 L 191.0 147.5 " stroke="black" fill="none" stroke-width="7.0" stroke-linecap="round" stroke-linejoin="round" />
<path d="M 161.5 156.5 L 161.5 156.5 L 162.0 157.0 L 162.0 157.0 L 162.0 157.0 L 162.0 157.0 L 161.5 158.0 L 160.5 160.0 L 159.0 163.5 L 157.0 169.5 L 155.0 175.0 L 154.0 179.5 L 154.0 181.0 L 154.0 181.0 L 154.0 181.0 L 154.0 181.5 L 154.0 182.5 L 154.5 183.0 L 155.5 184.0 L 158.0 185.0 L 161.5 187.0 L 166.0 190.0 L 169.5 193.0 L 172.5 195.0 L 174.0 196.5 L 174.0 196.5 L 174.0 196.0 L 173.5 194.0 " stroke="black" fill="none" stroke-width="7.0" stroke-linecap="round" stroke-linejoin="round" />
<path d="M 174.0 168.5 L 174.5 167.5 L 175.0 166.5 L 175.0 166.0 L 175.0 166.0 L 175.0 166.0 L 175.0 166.0 L 174.5 166.5 L 173.0 168.5 L 170.5 171.5 L 167.5 176.0 L 162.5 182.5 L 157.5 189.0 L 153.0 194.0 L 150.5 197.0 L 150.0 197.5 L 151.0 195.0 " stroke="black" fill="none" stroke-width="7.0" stroke-linecap="round" stroke-linejoin="round" />
<path d="M 145.5 172.5 L 144.0 172.5 L 143.5 172.5 L 145.0 172.0 L 150.5 171.5 L 158.5 171.0 L 168.0 171.0 L 177.0 171.5 L 183.5 171.5 L 188.0 171.0 " stroke="black" fill="none" stroke-width="7.0" stroke-linecap="round" stroke-linejoin="round" />
</svg>