<svg xmlns="http://www.w3.org/2000/svg" width="300" height="300" viewBox="0 0 300 300">
<path d="M 123.5 93.5 L 124.5 93.5 L 125.0 93.5 L 125.5 93.0 L 125.5 93.0 L 126.0 93.0 L 126.0 94.0 L 124.0 98.0 L 121.5 103.5 L 119.0 107.5 L 118.0 109.5 L 118.0 108.5 " stroke="black" fill="none" stroke-width="6.0" stroke-linecap="round" stroke-linejoin="round" />
<path d="M 123.5 100.0 L 124.5 100.0 L 124.5 100.5 L 125.0 100.5 L 126.0 100.5 L 128.5 100.5 L 133.5 100.0 L 141.0 99.0 L 147.0 98.5 L 151.0 98.5 L 153.0 98.0 L 153.0 98.0 L 153.0 98.0 L 152.0 98.0 L 151.0 99.0 " stroke="black" fill="none" stroke-width="6.0" stroke-linecap="round" stroke-linejoin="round" />
<path d="M 128.0 113.0 L 128.0 113.5 L 128.0 113.5 L 128.0 114.0 L 128.0 114.0 L 129.5 114.0 L 132.5 114.0 L 136.5 113.5 L 141.0 112.5 L 145.0 111.5 L 147.5 111.5 L 148.5 111.5 L 148.5 111.5 L 148.5 112.0 L 148.5 112.0 L 148.5 112.0 L 148.5 112.0 L 149.0 112.0 L 149.0 112.5 L 149.0 112.5 L 149.0 112.5 L 149.0 113.0 L 149.0 113.0 L 149.0 113.5 L 149.0 114.0 L 149.0 115.0 L 149.0 116.5 L 148.5 119.0 L 147.5 123.0 L 146.5 129.0 L 146.0 134.5 L 145.5 140.0 L 145.0 145.0 L 144.5 149.5 L 144.0 153.0 L 143.5 155.0 L 143.0 156.0 L 142.5 157.0 L 142.0 157.5 L 142.0 157.5 L 141.5 157.5 L 141.5 157.5 L 141.5 157.5 L 141.5 157.5 L 141.5 157.5 L 141.5 157.5 L 141.5 157.5 L 141.5 157.5 L 141.5 157.5 L 141.5 157.5 L 141.5 157.5 L 141.5 157.5 L 141.5 157.5 L 141.0 157.0 L 141.0 157.0 L 140.0 156.5 L 139.5 156.5 L 139.0 156.0 L 139.0 155.5 " stroke="black" fill="none" stroke-width="6.0" stroke-linecap="round" stroke-linejoin="round" />
<path d="M 126.0 112.0 L 126.0 112.0 L 126.5 112.5 L 127.0 112.5 L 127.0 113.0 L 127.0 113.0 L 127.0 113.0 L 127.0 113.0 L 127.0 114.0 L 126.5 115.0 L 126.0 116.0 L 126.0 116.5 L 125.5 117.5 L 125.0 119.0 L 124.5 120.5 L 123.5 122.5 L 123.0 125.5 L 122.0 128.0 L 121.5 130.5 L 120.5 133.0 L 119.5 135.5 L 119.0 137.0 L 118.5 138.5 L 118.5 139.0 L 118.5 139.5 L 118.5 140.0 L 118.5 140.0 L 118.5 140.0 L 118.5 140.0 L 119.0 140.0 L 120.0 140.0 L 121.0 140.0 L 123.5 140.0 L 126.5 140.0 L 130.5 139.5 L 135.0 139.0 L 139.0 138.5 L 142.0 138.0 L 143.5 138.0 L 144.0 138.0 L 144.5 138.0 L 144.5 138.0 L 144.5 138.0 L 144.5 138.0 " stroke="black" fill="none" stroke-width="6.0" stroke-linecap="round" stroke-linejoin="round" />
<path d="M 136.0 118.5 L 136.0 118.5 L 135.5 118.0 L 135.5 118.0 L 135.5 118.0 L 135.5 118.5 L 136.0 119.5 L 137.0 120.5 L 137.0 121.0 " stroke="black" fill="none" stroke-width="6.0" stroke-linecap="round" stroke-linejoin="round" />
<path d="M 117.0 124.0 L 116.0 124.0 L 115.0 124.5 L 115.0 124.5 L 115.0 124.5 L 117.5 124.5 L 122.0 124.5 L 129.0 124.5 L 139.0 124.5 L 148.0 123.0 L 154.0 122.5 L 155.5 122.5 " stroke="black" fill="none" stroke-width="6.0" stroke-linecap="round" stroke-linejoin="round" />
<path d="M 136.5 130.0 L 136.0 130.0 L 135.5 130.0 L 135.5 130.0 L 135.5 130.0 L 136.0 130.5 L 137.5 132.5 L 139.0 134.0 " stroke="black" fill="none" stroke-width="6.0" stroke-linecap="round" stroke-linejoin="round" />
<path d="M 165.0 99.0 L 165.5 98.5 L 165.5 97.5 L 165.5 97.0 L 166.0 97.0 L 166.0 97.5 L 166.0 100.0 L 164.5 104.0 L 162.5 108.5 L 160.5 112.5 L 160.0 114.0 L 160.0 114.0 " stroke="black" fill="none" stroke-width="6.0" stroke-linecap="round" stroke-linejoin="round" />
<path d="M 165.5 106.0 L 165.0 106.0 L 165.0 105.5 L 165.0 105.5 L 167.5 105.0 L 172.0 105.0 L 178.5 105.0 L 184.5 105.0 L 188.0 104.5 L 189.0 104.0 L 189.0 104.0 " stroke="black" fill="none" stroke-width="6.0" stroke-linecap="round" stroke-linejoin="round" />
<path d="M 181.0 109.5 L 181.0 109.5 L 181.5 109.0 L 181.5 109.0 L 182.0 109.0 L 182.0 108.5 L 182.0 109.5 L 179.5 114.5 L 174.5 124.0 L 169.0 134.0 L 165.5 139.0 L 163.5 140.0 L 162.5 140.0 L 162.0 138.5 " stroke="black" fill="none" stroke-width="6.0" stroke-linecap="round" stroke-linejoin="round" />
<path d="M 166.5 121.5 L 166.5 121.0 L 166.5 120.5 L 166.5 120.5 L 167.5 120.5 L 170.0 123.0 L 175.0 127.5 L 180.5 133.0 L 185.5 137.5 L 189.5 140.0 L 191.0 140.0 " stroke="black" fill="none" stroke-width="6.0" stroke-linecap="round" stroke-linejoin="round" />
<path d="M 154.0 150.5 L 155.0 150.0 L 155.5 149.5 L 156.0 149.0 L 156.5 149.0 L 156.5 149.0 L 156.5 149.0 L 156.0 150.5 L 153.5 153.5 L 149.5 158.5 L 144.5 165.0 L 140.0 170.5 L 136.5 173.0 L 135.5 174.0 L 134.5 174.0 L 133.5 174.5 L 133.0 175.0 L 132.5 175.0 L 132.5 175.0 L 134.0 175.0 L 136.5 174.0 L 140.5 173.0 L 144.5 172.0 L 149.0 171.0 L 153.5 170.0 L 156.5 169.5 L 158.5 168.5 L 159.5 167.0 " stroke="black" fill="none" stroke-width="6.0" stroke-linecap="round" stroke-linejoin="round" />
<path d="M 164.0 154.5 L 164.0 155.0 L 163.5 155.5 L 163.5 156.0 L 162.5 157.0 L 161.5 160.0 L 158.0 165.0 L 152.5 172.0 L 146.5 179.0 L 141.0 185.0 L 136.5 189.0 L 133.5 191.0 L 132.0 191.5 L 131.5 191.5 L 131.5 191.5 L 131.5 191.5 L 133.0 190.5 L 136.5 189.0 L 142.0 187.0 L 148.0 185.5 L 154.5 184.0 L 160.5 182.5 L 165.5 182.0 L 167.5 181.5 L 168.0 181.0 L 168.0 180.0 L 168.0 179.5 " stroke="black" fill="none" stroke-width="6.0" stroke-linecap="round" stroke-linejoin="round" />
<path d="M 168.5 172.0 L 168.5 172.0 L 169.0 172.0 L 169.0 172.0 L 169.5 172.0 L 170.5 173.5 L 172.5 176.5 L 174.0 180.5 L 175.0 184.0 L 175.5 185.0 " stroke="black" fill="none" stroke-width="6.0" stroke-linecap="round" stroke-linejoin="round" />
<path d="M 155.5 191.5 L 155.5 190.5 L 155.5 190.0 L 156.0 190.0 L 156.0 190.5 L 156.5 194.0 L 157.0 199.0 L 157.5 204.5 L 157.0 209.5 L 156.0 213.0 L 154.5 214.5 L 152.5 214.5 L 150.5 213.0 L 148.5 210.5 L 146.5 209.0 " stroke="black" fill="none" stroke-width="6.0" stroke-linecap="round" stroke-linejoin="round" />
<path d="M 142.0 203.5 L 141.5 203.5 L 141.0 203.0 L 140.0 203.0 L 138.5 204.0 L 135.5 205.5 L 132.5 208.0 L 131.0 209.5 L 131.0 210.0 " stroke="black" fill="none" stroke-width="6.0" stroke-linecap="round" stroke-linejoin="round" />
<path d="M 170.0 196.5 L 170.5 197.0 L 171.0 198.0 L 172.5 199.0 L 175.5 200.5 L 179.5 202.5 L 183.0 204.0 " stroke="black" fill="none" stroke-width="6.0" stroke-linecap="round" stroke-linejoin="round" />
</svg>