<svg xmlns="http://www.w3.org/2000/svg" width="300" height="300" viewBox="0 0 300 300">
<path d="M 144.0 81.5 L 143.5 81.0 L 143.0 80.5 L 143.5 80.5 L 146.0 81.0 L 149.0 83.0 L 153.0 85.0 L 156.5 87.0 L 158.0 87.5 " stroke="black" fill="none" stroke-width="8.0" stroke-linecap="round" stroke-linejoin="round" />
<path d="M 121.5 99.0 L 120.5 98.5 L 120.0 97.5 L 121.0 97.5 L 125.0 97.0 L 133.0 97.0 L 146.0 96.5 L 160.5 95.5 L 173.5 93.5 L 182.0 92.5 L 184.5 92.5 L 183.5 92.5 L 182.0 92.5 " stroke="black" fill="none" stroke-width="8.0" stroke-linecap="round" stroke-linejoin="round" />
<path d="M 121.5 102.5 L 120.5 101.5 L 120.0 101.0 L 120.0 100.5 L 120.0 100.5 L 120.5 102.0 L 121.5 105.5 L 122.5 112.5 L 123.0 125.0 L 123.0 139.0 L 122.5 153.0 L 120.5 167.0 L 117.0 179.5 L 112.5 191.5 L 108.5 198.5 L 105.5 201.5 L 105.5 201.5 L 105.5 199.5 " stroke="black" fill="none" stroke-width="8.0" stroke-linecap="round" stroke-linejoin="round" />
<path d="M 140.5 115.5 L 139.5 115.5 L 138.5 115.5 L 138.0 115.5 L 139.0 115.0 L 142.5 114.5 L 146.5 113.5 L 150.0 112.5 L 152.0 112.0 " stroke="black" fill="none" stroke-width="8.0" stroke-linecap="round" stroke-linejoin="round" />
<path d="M 146.5 106.5 L 146.0 106.5 L 144.5 106.5 L 144.5 106.5 L 144.5 107.5 L 145.5 111.0 L 146.5 118.0 L 147.0 129.0 L 147.0 140.5 L 147.0 147.5 L 147.0 149.0 L 147.0 148.5 L 147.0 148.0 " stroke="black" fill="none" stroke-width="8.0" stroke-linecap="round" stroke-linejoin="round" />
<path d="M 142.5 120.5 L 141.5 120.5 L 140.5 120.5 L 139.5 122.0 L 137.0 126.5 L 132.5 133.5 L 129.0 138.5 L 128.5 139.0 L 129.0 138.0 " stroke="black" fill="none" stroke-width="8.0" stroke-linecap="round" stroke-linejoin="round" />
<path d="M 145.5 123.5 L 145.5 123.5 L 145.5 123.5 L 147.0 123.5 L 150.5 125.0 L 155.5 127.0 L 159.5 128.5 " stroke="black" fill="none" stroke-width="8.0" stroke-linecap="round" stroke-linejoin="round" />
<path d="M 169.0 112.0 L 168.5 112.5 L 168.0 112.5 L 168.5 112.5 L 171.5 112.5 L 176.5 111.5 L 181.0 111.0 L 183.5 110.0 L 183.5 110.0 " stroke="black" fill="none" stroke-width="8.0" stroke-linecap="round" stroke-linejoin="round" />
<path d="M 176.5 103.5 L 176.5 103.5 L 176.5 103.0 L 176.5 103.0 L 176.5 104.0 L 177.5 109.5 L 178.0 120.5 L 178.5 134.0 L 179.0 143.5 L 179.5 146.5 L 179.0 146.0 " stroke="black" fill="none" stroke-width="8.0" stroke-linecap="round" stroke-linejoin="round" />
<path d="M 174.5 115.5 L 174.5 116.0 L 174.0 117.0 L 172.5 118.5 L 170.0 122.5 L 166.5 128.0 L 165.0 132.0 L 164.5 132.0 " stroke="black" fill="none" stroke-width="8.0" stroke-linecap="round" stroke-linejoin="round" />
<path d="M 180.0 117.0 L 181.0 118.0 L 182.5 118.5 L 185.0 119.5 L 188.5 122.0 L 192.5 124.5 L 193.5 125.0 " stroke="black" fill="none" stroke-width="8.0" stroke-linecap="round" stroke-linejoin="round" />
<path d="M 158.5 151.5 L 158.5 151.5 L 159.5 151.0 L 160.5 150.5 L 161.0 150.5 L 161.0 150.5 L 160.0 151.5 L 158.0 154.5 L 154.0 158.5 L 149.0 164.0 L 143.5 168.5 L 140.0 171.0 L 139.5 171.0 L 139.5 170.0 L 140.0 170.0 L 140.5 169.5 L 141.5 169.5 L 143.0 169.5 L 145.0 170.0 L 147.0 170.0 L 149.0 170.0 L 151.0 170.0 L 153.0 170.0 L 156.0 169.0 L 159.5 168.0 L 162.5 166.0 L 164.5 164.5 L 164.5 164.0 L 164.5 164.0 " stroke="black" fill="none" stroke-width="8.0" stroke-linecap="round" stroke-linejoin="round" />
<path d="M 169.5 156.0 L 169.5 156.0 L 169.0 156.0 L 169.0 156.0 L 169.0 156.0 L 168.5 156.5 L 167.0 159.0 L 163.5 165.0 L 156.5 173.5 L 148.5 180.0 L 144.0 184.0 L 142.0 184.5 L 141.0 184.5 L 140.5 184.0 L 140.5 184.0 L 141.0 184.0 L 143.5 184.0 L 148.0 184.0 L 154.0 184.0 L 162.0 183.5 L 169.5 183.0 L 174.5 182.5 L 177.5 182.0 L 178.5 181.5 L 178.5 181.0 " stroke="black" fill="none" stroke-width="8.0" stroke-linecap="round" stroke-linejoin="round" />
<path d="M 176.5 169.0 L 177.0 168.5 L 177.0 168.0 L 177.0 168.0 L 178.5 169.0 L 181.0 172.5 L 184.0 176.5 L 187.0 180.0 L 188.5 182.0 " stroke="black" fill="none" stroke-width="8.0" stroke-linecap="round" stroke-linejoin="round" />
<path d="M 160.0 189.5 L 160.0 189.5 L 160.0 188.5 L 160.0 188.0 L 160.5 189.0 L 161.5 193.5 L 162.5 200.0 L 163.0 207.0 L 162.5 212.5 L 160.0 214.5 L 156.5 215.0 L 152.5 212.5 L 150.0 209.0 L 149.0 208.5 " stroke="black" fill="none" stroke-width="8.0" stroke-linecap="round" stroke-linejoin="round" />
<path d="M 147.5 199.0 L 146.5 199.5 L 145.0 199.5 L 142.5 200.0 L 140.0 200.5 L 136.5 201.5 L 134.0 202.0 L 133.5 202.5 " stroke="black" fill="none" stroke-width="8.0" stroke-linecap="round" stroke-linejoin="round" />
<path d="M 176.5 194.0 L 177.0 194.0 L 178.5 194.0 L 180.0 194.0 L 183.0 195.0 L 187.0 196.5 L 190.0 198.0 " stroke="black" fill="none" stroke-width="8.0" stroke-linecap="round" stroke-linejoin="round" />
</svg>