<svg xmlns="http://www.w3.org/2000/svg" width="300" height="300" viewBox="0 0 300 300">
<path d="M 123.5 86.5 L 122.0 86.5 L 121.0 86.5 L 122.0 87.0 L 126.5 89.0 L 133.0 91.0 L 139.5 93.0 L 144.5 93.5 " stroke="black" fill="none" stroke-width="8.0" stroke-linecap="round" stroke-linejoin="round" />
<path d="M 169.5 80.5 L 169.5 80.5 L 168.5 79.5 L 168.5 79.5 L 167.0 81.5 L 164.0 86.0 L 161.0 90.0 L 159.0 92.0 " stroke="black" fill="none" stroke-width="8.0" stroke-linecap="round" stroke-linejoin="round" />
<path d="M 125.5 106.0 L 125.0 106.0 L 125.0 105.5 L 129.5 104.5 L 144.5 101.0 L 161.5 99.0 L 169.0 99.0 L 170.5 99.5 " stroke="black" fill="none" stroke-width="8.0" stroke-linecap="round" stroke-linejoin="round" />
<path d="M 139.0 114.5 L 136.5 115.0 L 135.0 115.0 L 135.0 115.0 L 140.0 115.0 L 146.5 114.0 L 153.5 112.5 L 159.5 110.5 L 161.0 109.5 " stroke="black" fill="none" stroke-width="8.0" stroke-linecap="round" stroke-linejoin="round" />
<path d="M 151.5 101.5 L 149.5 101.5 L 148.5 103.0 L 148.0 107.0 L 147.5 114.0 L 147.5 122.0 L 147.5 126.0 " stroke="black" fill="none" stroke-width="8.0" stroke-linecap="round" stroke-linejoin="round" />
<path d="M 126.0 128.0 L 125.5 128.0 L 124.5 128.0 L 126.0 127.5 L 133.0 127.0 L 143.5 125.5 L 156.0 123.5 L 166.0 123.0 L 168.5 123.0 " stroke="black" fill="none" stroke-width="8.0" stroke-linecap="round" stroke-linejoin="round" />
<path d="M 122.5 150.5 L 121.5 150.5 L 121.0 151.0 L 122.0 150.0 L 127.5 147.5 L 136.5 144.0 L 146.0 141.0 L 150.0 140.0 L 150.0 140.5 " stroke="black" fill="none" stroke-width="8.0" stroke-linecap="round" stroke-linejoin="round" />
<path d="M 114.5 165.5 L 115.0 165.0 L 115.5 164.0 L 118.0 163.5 L 126.5 163.0 L 144.0 161.0 L 163.0 159.0 L 180.0 158.0 L 191.5 158.0 L 193.5 159.5 L 192.0 161.5 L 191.0 161.0 " stroke="black" fill="none" stroke-width="8.0" stroke-linecap="round" stroke-linejoin="round" />
<path d="M 138.0 151.5 L 138.5 151.0 L 139.0 150.5 L 139.5 150.5 L 139.5 152.5 L 140.0 159.5 L 139.5 172.5 L 138.5 186.5 L 138.0 198.5 L 137.0 206.5 L 135.5 209.0 L 132.5 209.0 L 128.5 205.5 L 125.0 201.5 L 123.0 198.0 L 123.0 197.0 " stroke="black" fill="none" stroke-width="8.0" stroke-linecap="round" stroke-linejoin="round" />
<path d="M 124.0 191.0 L 123.0 191.0 L 121.5 190.5 L 121.5 190.0 L 126.5 187.0 L 136.5 182.0 L 148.5 175.0 L 153.0 171.5 " stroke="black" fill="none" stroke-width="8.0" stroke-linecap="round" stroke-linejoin="round" />
<path d="M 165.5 141.0 L 165.0 141.0 L 164.5 141.0 L 164.5 144.5 L 166.0 155.5 L 166.5 173.0 L 166.5 190.5 L 169.0 202.0 L 173.0 207.5 L 178.5 209.0 L 184.5 208.0 L 188.0 202.5 L 189.0 196.0 L 189.0 195.0 " stroke="black" fill="none" stroke-width="8.0" stroke-linecap="round" stroke-linejoin="round" />
<path d="M 179.0 179.5 L 179.5 179.5 L 179.5 180.5 L 176.0 183.0 L 169.5 190.0 L 162.0 198.0 L 158.0 201.5 L 157.5 200.0 " stroke="black" fill="none" stroke-width="8.0" stroke-linecap="round" stroke-linejoin="round" />
<path d="M 177.0 136.5 L 177.0 136.5 L 177.5 136.5 L 177.5 136.5 L 179.0 137.5 L 182.0 140.0 L 185.5 142.5 L 186.5 143.0 " stroke="black" fill="none" stroke-width="8.0" stroke-linecap="round" stroke-linejoin="round" />
</svg>