<svg xmlns="http://www.w3.org/2000/svg" width="300" height="300" viewBox="0 0 300 300">
<path d="M 123.5 132.5 L 123.5 133.0 L 123.0 133.5 L 123.5 133.5 L 128.5 133.0 L 135.5 133.0 L 141.5 132.5 L 144.5 132.5 L 145.5 132.5 " stroke="black" fill="none" stroke-width="7.0" stroke-linecap="round" stroke-linejoin="round" />
<path d="M 137.0 117.0 L 137.0 117.0 L 137.0 117.5 L 136.5 118.5 L 136.5 121.0 L 136.5 128.0 L 136.0 139.0 L 136.0 147.0 L 136.0 148.5 " stroke="black" fill="none" stroke-width="7.0" stroke-linecap="round" stroke-linejoin="round" />
<path d="M 127.5 152.5 L 127.0 152.5 L 126.5 152.5 L 126.0 152.5 L 126.0 153.5 L 126.0 157.5 L 126.0 165.0 L 127.0 171.5 L 127.5 173.5 L 128.0 173.5 " stroke="black" fill="none" stroke-width="7.0" stroke-linecap="round" stroke-linejoin="round" />
<path d="M 127.5 154.0 L 127.0 154.5 L 127.0 155.0 L 127.5 155.0 L 130.0 154.5 L 135.0 153.5 L 141.5 151.5 L 147.5 150.0 L 150.0 150.0 L 150.5 150.5 L 150.5 151.5 L 150.5 153.5 L 150.0 157.5 L 149.0 163.0 L 148.0 167.0 L 147.5 170.5 L 147.0 172.0 L 147.0 172.0 " stroke="black" fill="none" stroke-width="7.0" stroke-linecap="round" stroke-linejoin="round" />
<path d="M 130.5 179.5 L 129.5 180.5 L 129.0 181.0 L 130.0 181.0 L 133.5 180.0 L 139.0 178.5 L 145.0 176.5 L 147.5 175.5 " stroke="black" fill="none" stroke-width="7.0" stroke-linecap="round" stroke-linejoin="round" />
<path d="M 165.0 117.5 L 164.5 117.0 L 164.0 116.5 L 164.0 116.5 L 164.0 118.0 L 164.0 126.5 L 164.0 146.5 L 162.0 166.0 L 161.5 176.0 L 162.0 178.5 L 162.5 176.5 L 162.5 175.0 " stroke="black" fill="none" stroke-width="7.0" stroke-linecap="round" stroke-linejoin="round" />
<path d="M 166.0 118.0 L 165.5 118.0 L 164.0 118.0 L 163.5 117.5 L 163.5 117.5 L 165.5 117.0 L 168.0 116.0 L 171.5 114.5 L 175.0 113.0 L 180.0 112.0 L 184.0 111.0 L 186.5 111.0 L 187.0 111.0 L 187.0 111.5 L 187.0 112.0 L 187.0 113.0 L 187.0 115.0 L 187.5 118.5 L 187.5 124.5 L 188.0 133.0 L 189.0 143.5 L 189.5 154.5 L 189.5 164.0 L 189.5 172.5 L 189.5 179.0 L 189.5 182.0 L 188.5 183.0 L 186.5 183.0 L 183.5 182.0 L 180.5 179.0 L 178.5 174.0 " stroke="black" fill="none" stroke-width="7.0" stroke-linecap="round" stroke-linejoin="round" />
<path d="M 173.0 132.0 L 172.5 132.5 L 172.5 133.0 L 172.5 133.0 L 173.0 133.5 L 175.0 134.0 L 176.5 135.5 L 177.5 137.0 " stroke="black" fill="none" stroke-width="7.0" stroke-linecap="round" stroke-linejoin="round" />
<path d="M 171.5 154.0 L 170.0 155.5 L 170.0 156.0 L 170.5 156.0 L 173.0 155.0 L 176.5 153.0 L 179.5 150.5 L 181.5 148.5 L 183.0 147.5 " stroke="black" fill="none" stroke-width="7.0" stroke-linecap="round" stroke-linejoin="round" />
</svg>