<svg xmlns="http://www.w3.org/2000/svg" width="300" height="300" viewBox="0 0 300 300">
<path d="M 124.0 111.5 L 124.0 112.0 L 124.0 112.0 L 124.0 112.0 L 124.0 112.5 L 124.5 114.5 L 124.5 121.5 L 123.5 137.0 L 120.5 155.5 L 118.0 169.5 L 117.0 177.0 L 116.5 181.0 L 116.0 182.5 L 115.5 182.5 L 115.0 180.5 " stroke="black" fill="none" stroke-width="6.0" stroke-linecap="round" stroke-linejoin="round" />
<path d="M 126.5 115.0 L 126.0 115.5 L 126.0 116.0 L 126.0 116.0 L 127.5 115.5 L 130.0 114.5 L 133.5 113.5 L 136.5 112.0 L 138.5 111.0 L 139.5 111.0 L 139.5 111.0 L 140.0 111.5 L 140.0 113.0 L 140.5 115.5 L 141.0 120.0 L 141.5 126.0 L 142.0 134.0 L 142.5 144.0 L 143.5 154.5 L 144.5 164.0 L 145.5 172.5 L 145.5 180.0 L 145.0 185.5 L 144.5 188.5 L 143.5 188.5 L 142.0 186.0 L 140.5 183.5 " stroke="black" fill="none" stroke-width="6.0" stroke-linecap="round" stroke-linejoin="round" />
<path d="M 130.0 134.0 L 130.0 134.0 L 129.5 134.0 L 129.5 134.0 L 129.5 134.0 L 131.0 135.0 L 133.5 136.5 L 135.0 138.0 L 136.0 139.0 " stroke="black" fill="none" stroke-width="6.0" stroke-linecap="round" stroke-linejoin="round" />
<path d="M 126.5 161.5 L 125.5 163.5 L 125.0 164.5 L 125.5 164.0 L 128.5 161.5 L 132.0 158.0 L 135.0 154.5 L 136.5 152.5 " stroke="black" fill="none" stroke-width="6.0" stroke-linecap="round" stroke-linejoin="round" />
<path d="M 155.5 116.0 L 156.0 116.0 L 156.5 114.5 L 157.0 113.5 L 157.5 113.5 L 157.5 114.5 L 157.0 120.0 L 155.5 128.0 L 154.5 134.5 L 154.0 136.5 " stroke="black" fill="none" stroke-width="6.0" stroke-linecap="round" stroke-linejoin="round" />
<path d="M 158.0 117.0 L 158.0 117.5 L 157.5 118.0 L 157.5 118.0 L 159.5 117.5 L 163.5 115.5 L 169.5 113.0 L 174.0 111.5 L 176.5 111.5 L 177.0 113.0 L 176.5 117.0 L 175.0 122.5 L 173.5 129.0 L 173.0 134.0 L 173.0 137.5 L 173.5 139.0 L 175.5 139.5 L 178.5 139.5 L 181.0 138.5 L 182.5 137.5 L 183.5 137.0 L 183.5 136.5 " stroke="black" fill="none" stroke-width="6.0" stroke-linecap="round" stroke-linejoin="round" />
<path d="M 160.5 153.0 L 160.0 153.5 L 159.5 154.0 L 159.5 153.5 L 161.5 152.0 L 165.0 150.0 L 170.0 148.5 L 175.0 148.0 L 178.0 148.0 L 180.0 148.0 L 181.0 148.5 L 181.0 150.0 L 180.5 152.5 L 179.0 157.0 L 176.5 163.5 L 173.5 172.0 L 169.5 180.5 L 166.5 186.5 L 165.5 189.0 L 165.0 189.5 L 165.0 188.0 L 164.5 186.5 " stroke="black" fill="none" stroke-width="6.0" stroke-linecap="round" stroke-linejoin="round" />
<path d="M 162.0 165.5 L 161.0 164.5 L 160.5 164.5 L 163.0 165.0 L 168.5 168.0 L 176.0 174.0 L 185.0 182.0 L 190.5 186.5 L 192.0 188.0 L 192.0 188.0 " stroke="black" fill="none" stroke-width="6.0" stroke-linecap="round" stroke-linejoin="round" />
</svg>