<svg xmlns="http://www.w3.org/2000/svg" width="300" height="300" viewBox="0 0 300 300">
<path d="M 126.0 108.5 L 125.5 108.0 L 125.0 108.0 L 125.0 109.0 L 126.5 114.0 L 127.0 126.5 L 125.0 145.5 L 120.5 164.0 L 117.5 177.5 L 117.5 181.0 L 119.0 179.5 L 119.0 178.0 " stroke="black" fill="none" stroke-width="7.0" stroke-linecap="round" stroke-linejoin="round" />
<path d="M 130.0 111.5 L 129.5 111.5 L 128.5 111.5 L 128.5 111.5 L 130.0 111.5 L 134.0 110.0 L 139.0 108.5 L 142.0 107.5 L 143.5 107.0 L 144.0 107.5 L 144.0 109.5 L 144.0 114.5 L 143.0 123.5 L 142.0 135.5 L 141.5 148.5 L 141.0 160.0 L 142.5 171.0 L 143.5 180.5 L 144.5 186.5 L 144.5 188.5 L 143.0 187.5 L 140.0 184.0 L 137.5 179.5 L 137.0 178.5 " stroke="black" fill="none" stroke-width="7.0" stroke-linecap="round" stroke-linejoin="round" />
<path d="M 131.5 133.0 L 131.5 133.0 L 131.0 133.5 L 130.5 133.5 L 131.0 134.0 L 133.0 135.0 L 135.5 135.5 L 138.0 136.0 L 138.5 136.0 " stroke="black" fill="none" stroke-width="7.0" stroke-linecap="round" stroke-linejoin="round" />
<path d="M 129.0 164.0 L 129.0 164.0 L 128.5 164.0 L 128.5 162.5 L 130.5 160.0 L 133.0 157.0 L 136.0 155.5 " stroke="black" fill="none" stroke-width="7.0" stroke-linecap="round" stroke-linejoin="round" />
<path d="M 156.5 118.5 L 156.0 118.5 L 155.5 118.5 L 157.0 118.0 L 162.5 116.5 L 169.5 115.0 L 174.0 114.5 L 175.0 114.5 " stroke="black" fill="none" stroke-width="7.0" stroke-linecap="round" stroke-linejoin="round" />
<path d="M 156.5 106.5 L 156.5 106.5 L 157.0 106.5 L 157.0 106.5 L 157.0 106.5 L 157.0 108.5 L 156.5 114.0 L 155.0 123.0 L 154.5 131.0 L 155.0 134.5 L 158.0 136.0 L 162.5 135.0 L 167.5 133.0 L 171.0 131.0 L 173.0 130.5 L 174.0 130.0 " stroke="black" fill="none" stroke-width="7.0" stroke-linecap="round" stroke-linejoin="round" />
<path d="M 154.5 151.5 L 154.5 151.5 L 154.5 151.0 L 154.5 150.5 L 154.5 150.5 L 155.0 153.5 L 156.5 160.5 L 157.5 168.0 L 158.5 171.5 L 159.0 171.5 " stroke="black" fill="none" stroke-width="7.0" stroke-linecap="round" stroke-linejoin="round" />
<path d="M 157.5 149.5 L 157.5 149.5 L 156.0 148.5 L 156.0 148.0 L 157.5 147.5 L 162.5 147.0 L 168.0 146.5 L 173.0 146.5 L 177.0 146.5 L 179.5 147.0 L 180.5 147.5 L 180.5 148.0 L 180.5 148.5 L 180.5 150.0 L 180.0 153.5 L 179.0 158.5 L 178.5 164.5 L 178.0 169.5 L 178.0 172.5 L 178.0 173.0 " stroke="black" fill="none" stroke-width="7.0" stroke-linecap="round" stroke-linejoin="round" />
<path d="M 162.5 164.5 L 162.0 164.5 L 160.0 164.5 L 160.0 164.0 L 161.0 163.5 L 165.5 162.5 L 170.5 162.0 L 174.5 162.0 L 177.0 162.5 L 177.0 162.5 " stroke="black" fill="none" stroke-width="7.0" stroke-linecap="round" stroke-linejoin="round" />
<path d="M 162.0 177.5 L 161.0 177.5 L 160.5 177.5 L 161.0 177.0 L 165.0 176.5 L 171.0 176.5 L 178.5 176.0 L 180.5 176.0 " stroke="black" fill="none" stroke-width="7.0" stroke-linecap="round" stroke-linejoin="round" />
</svg>