<svg xmlns="http://www.w3.org/2000/svg" width="300" height="300" viewBox="0 0 300 300">
<path d="M 143.0 92.0 L 143.0 92.0 L 142.5 92.0 L 142.5 92.0 L 142.5 92.0 L 142.5 92.0 L 142.5 93.5 L 141.0 98.5 L 137.5 106.5 L 130.0 117.5 L 121.5 125.5 L 112.5 131.0 L 106.5 133.5 L 104.0 134.0 L 104.0 134.0 L 104.5 133.5 " stroke="black" fill="none" stroke-width="8.0" stroke-linecap="round" stroke-linejoin="round" />
<path d="M 149.5 90.5 L 149.0 91.0 L 148.0 92.0 L 148.5 93.0 L 152.5 97.5 L 161.5 104.0 L 173.0 110.5 L 185.5 115.0 L 196.0 119.0 L 202.5 121.5 L 204.5 124.0 L 204.0 124.0 " stroke="black" fill="none" stroke-width="8.0" stroke-linecap="round" stroke-linejoin="round" />
<path d="M 138.0 123.0 L 138.0 123.0 L 139.0 123.0 L 139.5 123.0 L 141.0 123.0 L 144.5 123.0 L 151.5 123.0 L 161.0 122.0 L 168.5 121.0 L 171.5 120.5 L 172.0 120.5 " stroke="black" fill="none" stroke-width="8.0" stroke-linecap="round" stroke-linejoin="round" />
<path d="M 127.0 143.5 L 127.0 143.5 L 126.5 143.0 L 126.5 143.0 L 128.0 143.0 L 134.0 143.0 L 145.5 143.0 L 160.0 142.0 L 174.0 140.5 L 182.5 140.0 L 189.0 140.0 L 191.5 140.5 L 192.0 140.5 " stroke="black" fill="none" stroke-width="8.0" stroke-linecap="round" stroke-linejoin="round" />
<path d="M 152.5 130.0 L 152.5 129.5 L 152.5 129.5 L 152.5 129.0 L 153.0 129.0 L 153.5 129.5 L 154.0 134.5 L 154.5 142.5 L 154.5 152.0 L 154.0 158.0 L 154.0 159.0 L 154.0 158.5 " stroke="black" fill="none" stroke-width="8.0" stroke-linecap="round" stroke-linejoin="round" />
<path d="M 132.0 164.5 L 132.5 164.5 L 133.0 164.0 L 133.0 164.0 L 133.5 166.5 L 134.5 173.5 L 135.0 182.5 L 135.5 189.5 L 135.5 191.5 L 136.0 191.0 L 136.0 190.5 " stroke="black" fill="none" stroke-width="8.0" stroke-linecap="round" stroke-linejoin="round" />
<path d="M 135.0 165.0 L 135.0 164.5 L 135.0 164.0 L 135.0 164.0 L 135.0 163.5 L 137.0 163.5 L 142.0 163.0 L 152.0 162.5 L 164.5 161.0 L 173.5 160.0 L 178.5 160.5 L 181.5 162.5 L 182.0 164.5 L 182.0 167.0 L 181.0 170.5 L 180.0 174.5 L 179.5 179.0 L 178.5 183.5 L 177.5 186.0 L 177.5 187.5 L 177.5 187.5 L 177.5 187.5 " stroke="black" fill="none" stroke-width="8.0" stroke-linecap="round" stroke-linejoin="round" />
<path d="M 140.0 195.0 L 139.5 195.0 L 139.0 195.0 L 138.5 195.5 L 139.5 195.5 L 144.5 194.5 L 153.0 193.0 L 162.5 192.0 L 170.0 191.0 L 175.0 190.0 L 176.0 189.5 L 175.5 189.5 " stroke="black" fill="none" stroke-width="8.0" stroke-linecap="round" stroke-linejoin="round" />
</svg>