<svg xmlns="http://www.w3.org/2000/svg" width="300" height="300" viewBox="0 0 300 300">
<path d="M 118.5 100.5 L 117.5 100.0 L 116.5 100.0 L 116.5 100.0 L 119.5 99.5 L 124.0 99.5 L 131.0 99.5 L 137.5 99.5 L 142.5 99.0 L 144.5 98.5 L 144.5 98.0 " stroke="black" fill="none" stroke-width="8.0" stroke-linecap="round" stroke-linejoin="round" />
<path d="M 129.5 89.0 L 129.0 89.0 L 128.5 89.0 L 128.0 89.0 L 128.0 91.0 L 129.0 98.5 L 130.0 108.5 L 130.5 114.0 L 131.0 114.5 " stroke="black" fill="none" stroke-width="8.0" stroke-linecap="round" stroke-linejoin="round" />
<path d="M 165.5 97.0 L 165.0 97.0 L 163.0 97.0 L 162.5 97.0 L 164.0 97.0 L 168.5 97.0 L 175.0 96.5 L 181.5 95.5 L 185.5 95.0 L 187.0 95.0 L 187.0 95.0 " stroke="black" fill="none" stroke-width="8.0" stroke-linecap="round" stroke-linejoin="round" />
<path d="M 172.5 85.0 L 172.5 85.0 L 172.0 85.0 L 171.5 85.0 L 171.5 86.5 L 172.5 92.0 L 174.0 101.5 L 175.0 108.5 L 175.0 111.5 L 175.0 111.5 " stroke="black" fill="none" stroke-width="8.0" stroke-linecap="round" stroke-linejoin="round" />
<path d="M 124.0 131.5 L 124.0 131.5 L 123.5 131.5 L 123.0 131.5 L 123.0 133.5 L 124.0 138.5 L 125.0 145.5 L 126.0 150.0 L 126.0 151.5 L 126.5 151.5 " stroke="black" fill="none" stroke-width="8.0" stroke-linecap="round" stroke-linejoin="round" />
<path d="M 125.0 135.0 L 124.5 135.0 L 124.0 135.0 L 124.0 135.5 L 124.5 135.5 L 127.0 135.0 L 132.5 134.0 L 140.0 133.5 L 149.0 133.0 L 159.0 133.0 L 167.0 133.0 L 171.5 133.0 L 173.5 134.0 L 173.5 135.0 L 173.5 135.5 L 173.0 137.0 L 173.0 139.0 L 173.0 142.0 L 173.0 145.5 L 172.5 148.0 L 172.5 149.5 L 172.5 149.5 " stroke="black" fill="none" stroke-width="8.0" stroke-linecap="round" stroke-linejoin="round" />
<path d="M 112.5 158.0 L 113.0 158.0 L 114.0 157.5 L 116.0 157.5 L 121.0 157.0 L 131.5 157.0 L 148.0 156.5 L 164.0 155.5 L 177.5 154.0 L 189.5 152.5 L 196.5 152.0 L 198.5 152.5 L 197.5 153.0 " stroke="black" fill="none" stroke-width="8.0" stroke-linecap="round" stroke-linejoin="round" />
<path d="M 151.5 120.0 L 151.5 119.5 L 151.5 119.0 L 151.5 118.5 L 151.5 118.0 L 152.0 119.5 L 152.5 124.5 L 152.5 135.0 L 149.5 152.5 L 144.5 169.5 L 138.5 178.5 L 131.5 185.5 L 125.5 190.5 L 122.5 192.5 L 122.5 191.5 " stroke="black" fill="none" stroke-width="8.0" stroke-linecap="round" stroke-linejoin="round" />
<path d="M 151.5 167.5 L 151.5 167.5 L 150.5 167.5 L 151.0 168.0 L 155.5 172.0 L 164.5 179.5 L 175.5 187.0 L 185.5 191.5 L 191.5 193.5 L 194.0 194.5 " stroke="black" fill="none" stroke-width="8.0" stroke-linecap="round" stroke-linejoin="round" />
</svg>