<svg xmlns="http://www.w3.org/2000/svg" width="300" height="300" viewBox="0 0 300 300">
<path d="M 117.0 90.0 L 117.5 90.0 L 117.5 90.5 L 118.0 91.5 L 118.0 94.5 L 118.0 100.0 L 118.0 106.5 L 118.0 109.5 L 118.0 109.5 " stroke="black" fill="none" stroke-width="8.0" stroke-linecap="round" stroke-linejoin="round" />
<path d="M 103.0 102.5 L 103.0 102.5 L 103.0 102.0 L 103.5 102.0 L 108.5 102.0 L 118.5 102.5 L 128.5 102.0 L 135.5 101.0 L 138.0 100.5 " stroke="black" fill="none" stroke-width="8.0" stroke-linecap="round" stroke-linejoin="round" />
<path d="M 161.0 99.5 L 161.0 99.0 L 161.5 98.5 L 163.0 98.5 L 168.0 98.5 L 176.0 99.0 L 184.0 99.0 L 190.5 99.0 L 193.5 98.5 L 193.5 98.5 " stroke="black" fill="none" stroke-width="8.0" stroke-linecap="round" stroke-linejoin="round" />
<path d="M 176.0 88.5 L 176.0 88.5 L 176.0 88.5 L 176.0 88.5 L 176.0 89.5 L 176.0 95.5 L 176.0 106.0 L 176.0 113.0 L 176.0 114.5 " stroke="black" fill="none" stroke-width="8.0" stroke-linecap="round" stroke-linejoin="round" />
<path d="M 105.5 130.0 L 105.5 130.0 L 105.5 130.0 L 105.5 130.5 L 107.5 131.0 L 115.0 131.5 L 127.5 132.0 L 143.0 132.5 L 157.5 131.0 L 170.5 129.5 L 178.0 129.0 L 181.0 130.5 L 181.0 131.5 L 180.0 131.5 L 179.0 131.0 " stroke="black" fill="none" stroke-width="8.0" stroke-linecap="round" stroke-linejoin="round" />
<path d="M 139.0 119.0 L 139.0 119.0 L 139.0 118.5 L 139.0 118.5 L 139.0 119.5 L 137.5 124.0 L 134.0 133.5 L 127.0 148.5 L 119.0 161.5 L 110.5 171.0 L 105.5 174.5 L 104.0 173.5 L 105.0 170.0 " stroke="black" fill="none" stroke-width="8.0" stroke-linecap="round" stroke-linejoin="round" />
<path d="M 129.0 155.5 L 129.0 155.5 L 129.0 155.0 L 129.0 155.0 L 129.0 155.0 L 129.5 158.5 L 130.5 168.0 L 131.5 178.5 L 132.0 183.5 L 132.5 183.0 L 132.5 181.0 " stroke="black" fill="none" stroke-width="8.0" stroke-linecap="round" stroke-linejoin="round" />
<path d="M 130.0 159.0 L 129.0 159.5 L 128.0 160.0 L 127.5 160.5 L 128.0 160.5 L 131.0 160.5 L 136.5 159.5 L 145.0 158.0 L 155.0 157.0 L 164.5 156.5 L 171.0 157.0 L 172.0 158.5 L 172.0 161.5 L 170.0 166.0 L 168.5 170.5 L 167.5 175.0 L 166.5 179.0 L 166.5 181.5 L 166.5 182.5 L 166.5 183.0 L 166.5 183.0 " stroke="black" fill="none" stroke-width="8.0" stroke-linecap="round" stroke-linejoin="round" />
<path d="M 126.5 193.5 L 126.5 193.5 L 126.5 193.0 L 128.0 192.5 L 136.0 191.5 L 148.5 189.5 L 161.5 188.0 L 169.5 188.0 L 173.5 188.0 L 173.5 189.0 " stroke="black" fill="none" stroke-width="8.0" stroke-linecap="round" stroke-linejoin="round" />
</svg>