<svg xmlns="http://www.w3.org/2000/svg" width="300" height="300" viewBox="0 0 300 300">
<path d="M 129.0 104.0 L 129.0 104.0 L 129.5 103.5 L 130.0 103.5 L 130.5 104.5 L 131.0 107.5 L 131.5 112.5 L 131.5 116.5 L 131.0 118.0 L 131.0 118.0 " stroke="black" fill="none" stroke-width="6.0" stroke-linecap="round" stroke-linejoin="round" />
<path d="M 122.0 110.5 L 121.5 110.5 L 120.5 111.0 L 120.0 111.0 L 121.5 111.0 L 124.5 111.5 L 128.5 111.5 L 133.0 111.5 L 138.5 110.5 L 143.0 110.0 " stroke="black" fill="none" stroke-width="6.0" stroke-linecap="round" stroke-linejoin="round" />
<path d="M 158.0 104.0 L 158.5 103.5 L 159.0 103.0 L 159.0 102.5 L 159.5 102.5 L 159.5 102.5 L 159.5 104.0 L 159.5 106.5 L 159.0 109.5 L 158.5 112.5 L 158.0 112.5 " stroke="black" fill="none" stroke-width="6.0" stroke-linecap="round" stroke-linejoin="round" />
<path d="M 150.0 110.0 L 149.5 110.0 L 149.0 110.0 L 149.0 110.0 L 151.0 110.0 L 154.0 110.0 L 158.0 110.0 L 163.5 109.0 L 168.0 108.5 L 170.5 108.0 " stroke="black" fill="none" stroke-width="6.0" stroke-linecap="round" stroke-linejoin="round" />
<path d="M 125.5 127.5 L 125.5 127.0 L 125.5 126.5 L 125.5 126.5 L 125.5 126.5 L 125.5 127.0 L 124.5 129.0 L 123.5 132.0 L 123.0 134.5 " stroke="black" fill="none" stroke-width="6.0" stroke-linecap="round" stroke-linejoin="round" />
<path d="M 124.5 127.5 L 123.5 127.5 L 123.0 127.5 L 123.0 127.5 L 125.0 127.0 L 128.0 126.0 L 132.5 125.5 L 139.0 124.5 L 148.0 123.5 L 156.5 123.0 L 162.5 123.0 L 167.5 123.0 L 171.5 123.5 L 173.5 124.5 L 174.5 124.5 L 174.5 125.0 L 174.5 125.0 L 174.5 125.0 L 174.0 125.5 L 174.0 126.0 L 173.5 127.5 L 172.5 129.5 L 171.5 132.0 L 170.5 134.5 L 170.0 136.0 L 170.0 136.0 " stroke="black" fill="none" stroke-width="6.0" stroke-linecap="round" stroke-linejoin="round" />
<path d="M 134.5 134.0 L 134.5 134.0 L 135.0 134.5 L 135.0 135.0 L 135.0 135.0 L 137.0 135.0 L 140.5 134.0 L 146.0 134.0 L 151.5 134.0 L 155.0 134.0 L 156.5 134.0 L 156.5 134.0 " stroke="black" fill="none" stroke-width="6.0" stroke-linecap="round" stroke-linejoin="round" />
<path d="M 126.0 145.5 L 126.0 145.5 L 126.0 145.5 L 126.5 145.5 L 128.5 144.5 L 135.0 143.5 L 145.0 142.5 L 153.5 142.0 L 159.0 142.0 L 161.0 143.0 L 161.5 143.5 L 161.0 143.5 " stroke="black" fill="none" stroke-width="6.0" stroke-linecap="round" stroke-linejoin="round" />
<path d="M 143.0 144.5 L 143.0 144.0 L 142.5 144.0 L 142.5 143.5 L 142.5 143.5 L 142.0 144.0 L 141.0 147.5 L 137.5 154.0 L 132.5 160.0 L 129.5 162.5 L 128.5 162.5 L 128.5 161.5 " stroke="black" fill="none" stroke-width="6.0" stroke-linecap="round" stroke-linejoin="round" />
<path d="M 142.5 148.5 L 142.5 148.5 L 142.5 149.0 L 142.5 149.0 L 144.0 149.5 L 146.0 150.0 L 149.0 151.0 L 152.0 154.0 L 154.5 159.0 L 155.5 165.5 L 156.0 171.5 L 156.0 177.5 L 155.0 182.5 L 153.5 187.0 L 151.0 190.0 L 149.0 191.0 L 146.0 191.5 L 142.5 190.0 L 139.5 187.5 L 137.5 185.5 " stroke="black" fill="none" stroke-width="6.0" stroke-linecap="round" stroke-linejoin="round" />
<path d="M 147.5 155.0 L 147.5 155.0 L 147.5 155.0 L 147.5 155.0 L 147.5 155.0 L 147.5 155.0 L 147.5 155.5 L 147.5 156.5 L 146.0 159.0 L 142.5 163.5 L 138.5 168.0 L 136.0 170.5 L 136.0 170.5 " stroke="black" fill="none" stroke-width="6.0" stroke-linecap="round" stroke-linejoin="round" />
<path d="M 151.5 164.0 L 151.5 164.5 L 151.5 165.0 L 151.5 166.0 L 151.0 167.5 L 149.0 170.0 L 145.5 173.0 L 141.5 176.0 L 138.5 178.0 L 138.0 178.5 " stroke="black" fill="none" stroke-width="6.0" stroke-linecap="round" stroke-linejoin="round" />
<path d="M 167.0 152.5 L 166.0 153.0 L 166.0 153.0 L 165.5 153.5 L 165.5 154.0 L 164.5 155.5 L 163.0 158.5 L 161.0 162.0 L 159.5 165.0 L 159.0 165.0 " stroke="black" fill="none" stroke-width="6.0" stroke-linecap="round" stroke-linejoin="round" />
<path d="M 157.5 162.0 L 158.0 162.0 L 159.0 162.0 L 159.5 162.0 L 162.0 163.0 L 167.0 165.5 L 174.0 169.5 L 179.5 173.0 L 181.5 174.5 " stroke="black" fill="none" stroke-width="6.0" stroke-linecap="round" stroke-linejoin="round" />
</svg>