<svg xmlns="http://www.w3.org/2000/svg" width="300" height="300" viewBox="0 0 300 300">
<path d="M 119.5 101.5 L 119.0 101.5 L 118.0 101.0 L 117.0 100.5 L 116.5 100.0 L 116.5 99.5 L 116.5 99.5 L 119.5 100.0 L 125.0 100.5 L 131.0 101.0 L 137.5 101.5 L 142.5 101.5 L 144.5 101.0 L 144.5 100.5 L 144.0 100.5 L 144.0 100.5 " stroke="black" fill="none" stroke-width="7.0" stroke-linecap="round" stroke-linejoin="round" />
<path d="M 131.5 91.5 L 131.5 91.5 L 132.0 91.5 L 132.0 91.5 L 132.5 91.5 L 133.0 93.5 L 133.0 99.0 L 133.5 106.5 L 134.0 111.5 L 135.0 113.0 " stroke="black" fill="none" stroke-width="7.0" stroke-linecap="round" stroke-linejoin="round" />
<path d="M 161.0 100.5 L 160.5 100.5 L 159.0 100.5 L 158.0 100.0 L 157.5 100.0 L 157.5 99.5 L 160.0 99.5 L 165.0 99.5 L 170.5 99.5 L 175.5 99.0 L 179.0 99.0 L 180.0 98.5 L 180.5 99.0 " stroke="black" fill="none" stroke-width="7.0" stroke-linecap="round" stroke-linejoin="round" />
<path d="M 171.5 89.0 L 170.0 89.0 L 169.5 89.5 L 169.0 90.0 L 169.0 92.5 L 169.5 98.0 L 170.5 105.0 L 171.0 109.5 L 171.0 112.0 L 171.5 112.0 " stroke="black" fill="none" stroke-width="7.0" stroke-linecap="round" stroke-linejoin="round" />
<path d="M 125.5 124.0 L 124.0 124.0 L 123.0 124.0 L 123.0 123.5 L 123.0 123.5 L 125.5 122.5 L 129.0 122.0 L 134.5 122.0 L 142.0 122.0 L 151.0 122.0 L 158.5 122.0 L 164.0 122.0 L 166.0 121.5 L 166.0 121.5 L 165.0 122.0 L 164.0 122.5 " stroke="black" fill="none" stroke-width="7.0" stroke-linecap="round" stroke-linejoin="round" />
<path d="M 131.5 137.0 L 131.5 137.0 L 131.5 137.5 L 131.5 137.5 L 131.5 137.5 L 131.5 137.5 L 132.5 137.5 L 135.5 138.0 L 141.5 138.0 L 149.0 137.5 L 155.5 136.5 L 159.0 136.0 L 159.5 136.0 L 159.0 136.0 " stroke="black" fill="none" stroke-width="7.0" stroke-linecap="round" stroke-linejoin="round" />
<path d="M 117.5 151.0 L 117.5 151.0 L 118.0 151.0 L 118.5 151.0 L 119.5 151.0 L 123.0 151.0 L 130.0 151.0 L 140.5 151.0 L 152.0 150.5 L 162.0 149.5 L 168.0 149.0 L 170.5 149.0 L 171.0 150.0 " stroke="black" fill="none" stroke-width="7.0" stroke-linecap="round" stroke-linejoin="round" />
<path d="M 150.5 114.0 L 150.0 114.0 L 149.5 114.0 L 149.0 114.0 L 149.0 114.0 L 149.0 114.5 L 148.5 118.0 L 146.5 125.0 L 143.0 135.5 L 138.5 146.0 L 134.5 154.5 L 131.0 161.0 L 127.0 166.5 L 123.5 171.0 L 120.5 173.0 L 118.5 173.5 L 117.5 173.0 L 117.5 173.0 L 117.5 172.5 " stroke="black" fill="none" stroke-width="7.0" stroke-linecap="round" stroke-linejoin="round" />
<path d="M 147.0 154.5 L 146.0 154.5 L 145.0 154.5 L 145.0 154.5 L 145.0 154.5 L 147.5 155.0 L 151.5 158.0 L 157.0 163.0 L 163.5 168.5 L 169.0 171.5 L 171.0 172.0 L 171.0 171.5 L 170.5 170.5 " stroke="black" fill="none" stroke-width="7.0" stroke-linecap="round" stroke-linejoin="round" />
<path d="M 132.5 172.5 L 132.5 173.0 L 132.0 173.0 L 132.0 173.0 L 133.0 173.0 L 136.5 172.0 L 141.0 171.5 L 146.5 170.0 L 150.0 169.5 L 151.5 169.0 L 152.0 169.0 " stroke="black" fill="none" stroke-width="7.0" stroke-linecap="round" stroke-linejoin="round" />
<path d="M 132.0 186.0 L 132.5 185.5 L 132.5 185.0 L 132.5 185.0 L 134.0 184.5 L 137.0 183.5 L 143.0 183.0 L 149.5 182.5 L 155.0 182.5 L 159.0 183.0 L 160.0 183.5 " stroke="black" fill="none" stroke-width="7.0" stroke-linecap="round" stroke-linejoin="round" />
<path d="M 146.0 173.5 L 145.5 173.5 L 144.5 173.5 L 144.0 173.5 L 144.0 173.5 L 144.0 175.0 L 145.0 180.5 L 145.5 190.0 L 146.0 201.0 L 146.5 209.0 L 146.5 212.5 L 147.0 212.0 L 147.0 210.5 " stroke="black" fill="none" stroke-width="7.0" stroke-linecap="round" stroke-linejoin="round" />
<path d="M 141.0 195.5 L 141.0 195.5 L 141.0 195.5 L 141.0 195.5 L 140.5 196.0 L 138.5 198.0 L 134.5 202.0 L 129.5 207.0 L 126.5 210.5 L 126.0 211.0 L 127.5 211.0 " stroke="black" fill="none" stroke-width="7.0" stroke-linecap="round" stroke-linejoin="round" />
<path d="M 159.0 198.5 L 159.0 198.5 L 159.0 199.5 L 159.0 200.0 L 162.0 201.5 L 167.5 204.5 L 174.0 207.5 L 178.5 209.5 L 179.0 210.0 " stroke="black" fill="none" stroke-width="7.0" stroke-linecap="round" stroke-linejoin="round" />
</svg>