<svg xmlns="http://www.w3.org/2000/svg" width="300" height="300" viewBox="0 0 300 300">
<path d="M 125.0 110.5 L 124.5 110.5 L 124.0 110.5 L 123.5 110.5 L 123.0 110.5 L 122.5 110.5 L 123.5 110.5 L 126.0 110.5 L 130.0 110.5 L 135.0 110.5 L 140.0 110.0 L 143.0 109.0 L 145.0 108.5 L 146.0 108.5 L 146.0 108.5 L 146.5 109.0 " stroke="black" fill="none" stroke-width="6.0" stroke-linecap="round" stroke-linejoin="round" />
<path d="M 133.0 102.0 L 133.0 102.0 L 133.0 102.0 L 133.5 102.0 L 133.5 103.0 L 134.5 106.0 L 135.5 111.0 L 136.5 116.5 L 137.0 120.5 L 137.0 121.5 " stroke="black" fill="none" stroke-width="6.0" stroke-linecap="round" stroke-linejoin="round" />
<path d="M 158.5 105.5 L 157.0 106.5 L 156.0 107.0 L 155.5 107.5 L 155.0 107.5 L 156.0 107.5 L 159.0 107.5 L 164.0 107.5 L 168.5 107.5 L 173.5 107.0 L 176.5 106.5 L 178.5 106.0 L 179.0 105.5 L 179.0 105.0 L 179.0 105.0 " stroke="black" fill="none" stroke-width="6.0" stroke-linecap="round" stroke-linejoin="round" />
<path d="M 169.0 97.0 L 168.5 96.5 L 168.0 96.0 L 167.5 95.5 L 167.0 95.5 L 166.5 95.5 L 166.5 98.5 L 167.0 103.0 L 167.5 109.0 L 168.0 113.5 L 168.5 116.5 L 169.0 117.5 L 169.5 117.0 " stroke="black" fill="none" stroke-width="6.0" stroke-linecap="round" stroke-linejoin="round" />
<path d="M 149.5 121.0 L 149.5 121.0 L 149.5 121.0 L 149.0 121.5 L 149.5 122.0 L 151.0 123.0 L 153.0 124.5 L 154.5 126.0 L 155.0 126.5 " stroke="black" fill="none" stroke-width="6.0" stroke-linecap="round" stroke-linejoin="round" />
<path d="M 125.0 129.5 L 124.5 129.5 L 124.0 130.0 L 123.5 130.0 L 124.0 130.0 L 126.0 130.0 L 130.5 130.5 L 139.0 130.5 L 151.0 130.5 L 163.0 130.0 L 172.0 130.0 L 176.0 130.0 L 177.5 130.0 L 177.0 130.0 L 176.5 130.0 L 175.5 130.0 L 175.0 129.5 L 174.5 129.5 " stroke="black" fill="none" stroke-width="6.0" stroke-linecap="round" stroke-linejoin="round" />
<path d="M 122.5 129.5 L 122.5 130.0 L 122.5 130.0 L 122.5 130.5 L 122.5 131.0 L 122.5 132.0 L 123.5 135.0 L 124.0 140.0 L 124.5 147.5 L 124.5 155.0 L 124.0 163.0 L 122.5 170.5 L 121.0 177.0 L 119.5 183.0 L 117.5 189.0 L 115.5 194.0 L 113.0 198.5 L 111.5 201.0 L 110.5 202.5 L 109.5 203.5 L 109.0 204.5 L 109.0 204.5 L 108.5 205.0 L 108.5 206.0 L 108.0 206.0 L 108.0 206.0 L 108.0 206.0 L 108.0 206.0 L 108.0 206.0 L 108.0 206.0 L 108.0 206.0 L 108.0 206.0 L 108.0 206.0 L 108.0 206.0 " stroke="black" fill="none" stroke-width="6.0" stroke-linecap="round" stroke-linejoin="round" />
<path d="M 130.0 141.5 L 130.0 141.5 L 129.5 142.5 L 129.5 142.5 L 129.5 143.0 L 129.5 143.0 L 130.0 143.0 L 131.5 143.0 L 134.0 143.0 L 138.0 142.5 L 145.5 142.0 L 153.5 142.0 L 161.5 141.5 L 167.5 141.0 L 171.0 141.0 L 172.0 141.0 L 172.0 141.0 L 172.0 141.0 L 171.5 141.0 L 171.5 141.0 L 171.5 141.0 L 171.5 141.0 L 171.5 141.5 L 171.5 141.5 L 171.5 142.0 L 171.5 143.0 L 171.5 144.0 L 171.5 146.5 L 171.0 150.0 L 170.5 153.0 L 170.5 155.5 L 170.5 156.0 L 170.5 156.0 " stroke="black" fill="none" stroke-width="6.0" stroke-linecap="round" stroke-linejoin="round" />
<path d="M 139.5 134.0 L 139.5 134.0 L 139.5 134.5 L 139.5 135.0 L 139.5 135.5 L 140.0 137.0 L 140.5 140.5 L 141.5 145.0 L 142.0 149.0 L 143.5 150.5 L 143.5 150.5 " stroke="black" fill="none" stroke-width="6.0" stroke-linecap="round" stroke-linejoin="round" />
<path d="M 153.0 134.0 L 153.5 134.5 L 154.0 135.0 L 154.5 135.0 L 154.5 135.5 L 155.0 136.5 L 155.0 139.5 L 155.0 144.5 L 155.0 149.5 L 154.5 152.5 L 153.5 153.5 " stroke="black" fill="none" stroke-width="6.0" stroke-linecap="round" stroke-linejoin="round" />
<path d="M 130.0 153.5 L 129.5 154.5 L 129.0 155.0 L 128.5 155.5 L 128.5 155.5 L 129.5 155.5 L 132.0 156.0 L 137.0 156.0 L 146.0 156.0 L 155.5 155.5 L 164.0 155.5 L 168.0 155.5 L 169.0 155.5 L 168.5 156.0 L 168.5 155.5 L 168.5 155.0 " stroke="black" fill="none" stroke-width="6.0" stroke-linecap="round" stroke-linejoin="round" />
<path d="M 142.5 165.5 L 142.0 166.0 L 141.0 166.0 L 140.0 166.5 L 139.5 166.5 L 139.5 166.5 L 140.5 166.5 L 143.5 166.0 L 147.0 165.5 L 151.0 165.5 L 155.0 165.5 L 158.5 165.5 L 161.0 165.5 L 162.5 165.5 L 162.5 165.5 L 162.5 165.5 " stroke="black" fill="none" stroke-width="6.0" stroke-linecap="round" stroke-linejoin="round" />
<path d="M 133.5 160.0 L 133.5 160.0 L 134.5 160.0 L 135.0 159.5 L 135.0 159.5 L 135.0 159.5 L 135.0 159.5 L 135.0 161.0 L 134.5 163.0 L 133.5 166.0 L 132.5 169.5 L 132.0 172.5 L 132.0 175.0 L 132.0 176.0 L 132.0 176.0 L 132.5 176.0 L 133.5 176.0 L 134.0 176.0 L 135.5 176.0 L 137.5 175.5 L 139.5 175.5 L 143.5 175.5 L 147.5 175.5 L 152.0 175.0 L 156.5 175.0 L 161.5 175.0 L 165.0 174.5 L 167.5 174.5 L 169.0 174.5 L 169.5 174.5 L 169.5 174.5 L 169.5 174.5 L 169.5 174.5 L 169.0 174.5 L 169.0 174.5 L 169.0 174.5 L 169.0 174.5 L 169.0 174.5 L 169.0 174.5 L 169.0 174.5 L 169.0 174.5 L 169.0 174.5 L 168.5 174.5 L 168.5 175.0 L 168.5 175.0 L 168.0 175.5 L 168.0 176.0 L 168.0 176.0 L 167.5 176.5 L 167.5 176.5 L 167.5 176.5 L 167.5 177.0 L 167.5 177.5 L 167.0 178.0 L 167.0 178.5 L 166.5 180.5 L 165.5 184.0 L 164.5 189.0 L 163.0 194.5 L 162.5 198.5 L 162.0 202.0 L 162.0 204.0 L 161.5 205.0 L 161.5 205.5 L 161.5 205.5 L 161.5 205.5 L 161.5 205.0 L 161.5 205.0 L 161.0 205.0 L 160.0 204.5 L 158.5 204.5 L 157.0 204.5 L 155.5 204.0 L 154.0 204.0 L 153.0 203.5 " stroke="black" fill="none" stroke-width="6.0" stroke-linecap="round" stroke-linejoin="round" />
<path d="M 130.5 188.0 L 130.5 188.0 L 130.5 187.5 L 131.0 187.5 L 131.0 187.0 L 131.5 187.0 L 131.5 186.5 L 131.5 186.5 L 131.0 188.0 L 130.0 189.5 L 129.0 191.0 L 128.5 193.0 L 128.5 193.0 " stroke="black" fill="none" stroke-width="6.0" stroke-linecap="round" stroke-linejoin="round" />
<path d="M 140.0 188.0 L 140.0 187.5 L 140.0 187.0 L 140.0 186.5 L 140.0 186.5 L 140.0 186.5 L 140.5 186.5 L 141.0 188.0 L 141.5 190.0 L 142.5 191.5 " stroke="black" fill="none" stroke-width="6.0" stroke-linecap="round" stroke-linejoin="round" />
<path d="M 148.0 185.0 L 147.5 185.5 L 147.5 185.5 L 147.0 186.0 L 147.0 186.5 L 147.5 187.5 L 148.0 188.0 L 149.0 189.0 L 149.0 189.0 " stroke="black" fill="none" stroke-width="6.0" stroke-linecap="round" stroke-linejoin="round" />
<path d="M 153.0 183.0 L 153.5 183.0 L 153.5 183.0 L 154.0 183.0 L 154.5 183.5 L 155.5 183.5 L 156.5 184.0 L 157.5 184.5 L 158.0 185.5 L 158.0 186.0 " stroke="black" fill="none" stroke-width="6.0" stroke-linecap="round" stroke-linejoin="round" />
</svg>