<svg xmlns="http://www.w3.org/2000/svg" width="300" height="300" viewBox="0 0 300 300">
<path d="M 151.0 77.5 L 151.0 77.5 L 151.0 77.0 L 151.0 77.0 L 151.0 80.5 L 151.5 88.5 L 151.0 98.0 L 151.0 102.5 L 151.0 103.0 " stroke="black" fill="none" stroke-width="9.0" stroke-linecap="round" stroke-linejoin="round" />
<path d="M 151.0 92.5 L 150.5 92.5 L 150.0 92.5 L 151.5 92.5 L 159.0 92.0 L 170.0 90.5 L 179.0 90.0 L 182.0 90.0 " stroke="black" fill="none" stroke-width="9.0" stroke-linecap="round" stroke-linejoin="round" />
<path d="M 129.0 113.0 L 128.5 113.0 L 128.0 113.0 L 128.0 113.5 L 128.0 113.5 L 131.0 113.5 L 137.0 113.0 L 146.5 113.0 L 158.0 113.0 L 170.5 112.5 L 180.5 111.5 L 187.0 111.5 L 192.0 112.0 L 194.5 113.0 L 195.5 113.5 L 195.5 113.5 L 195.0 113.5 L 195.0 113.5 L 194.5 114.0 L 194.5 114.5 L 194.0 116.0 L 193.0 117.5 L 191.0 120.0 L 189.0 123.0 L 187.0 125.5 L 186.5 126.5 L 186.5 126.5 " stroke="black" fill="none" stroke-width="9.0" stroke-linecap="round" stroke-linejoin="round" />
<path d="M 125.0 114.5 L 124.5 114.5 L 124.5 114.5 L 124.5 114.5 L 124.5 114.5 L 124.5 116.5 L 125.5 121.5 L 126.0 131.0 L 126.0 144.5 L 123.5 159.0 L 119.5 174.0 L 115.5 188.0 L 112.0 199.5 L 109.5 207.0 L 108.0 210.0 L 106.5 210.5 L 105.5 209.5 " stroke="black" fill="none" stroke-width="9.0" stroke-linecap="round" stroke-linejoin="round" />
<path d="M 138.0 139.0 L 138.0 139.5 L 138.0 139.5 L 139.5 139.5 L 146.5 138.0 L 159.5 134.0 L 168.0 131.5 L 170.5 131.0 L 170.0 131.5 " stroke="black" fill="none" stroke-width="9.0" stroke-linecap="round" stroke-linejoin="round" />
<path d="M 156.5 126.0 L 157.0 126.0 L 157.0 125.5 L 157.5 125.5 L 157.5 126.0 L 156.5 130.0 L 154.5 138.5 L 153.5 148.5 L 154.5 155.0 L 158.5 157.5 L 166.0 157.5 L 174.5 155.0 L 181.5 153.0 L 184.0 152.5 L 184.5 152.5 L 184.5 152.5 L 184.0 152.0 L 184.0 151.0 L 184.0 150.5 " stroke="black" fill="none" stroke-width="9.0" stroke-linecap="round" stroke-linejoin="round" />
<path d="M 139.5 175.5 L 139.5 175.5 L 139.5 175.0 L 139.5 175.0 L 139.5 175.0 L 139.0 177.5 L 138.0 184.0 L 137.0 190.5 L 137.0 193.5 L 139.0 194.0 L 143.0 192.5 L 147.0 191.0 L 149.5 190.5 L 151.0 190.0 L 152.0 190.0 L 153.0 189.5 " stroke="black" fill="none" stroke-width="9.0" stroke-linecap="round" stroke-linejoin="round" />
<path d="M 154.5 175.0 L 155.0 175.0 L 155.5 175.0 L 155.5 175.0 L 156.0 176.5 L 156.0 183.5 L 156.0 195.0 L 156.0 204.0 L 156.0 207.0 L 156.0 207.0 " stroke="black" fill="none" stroke-width="9.0" stroke-linecap="round" stroke-linejoin="round" />
<path d="M 170.5 173.0 L 170.5 172.5 L 170.5 171.0 L 171.0 170.5 L 172.0 170.0 L 172.5 171.5 L 173.0 178.5 L 173.0 189.5 L 172.0 199.5 L 172.0 203.5 L 172.0 203.5 " stroke="black" fill="none" stroke-width="9.0" stroke-linecap="round" stroke-linejoin="round" />
<path d="M 174.5 187.5 L 174.5 187.5 L 174.5 187.0 L 174.5 187.0 L 176.5 186.0 L 179.5 185.5 L 183.5 185.0 L 186.5 185.0 L 189.0 184.0 L 190.5 182.0 L 191.0 180.5 L 191.0 179.0 L 190.5 177.5 L 189.5 176.0 L 189.5 175.0 L 189.0 173.5 L 188.5 172.0 L 188.5 171.0 L 188.5 171.0 " stroke="black" fill="none" stroke-width="9.0" stroke-linecap="round" stroke-linejoin="round" />
<path d="M 128.5 212.5 L 129.0 212.0 L 129.0 211.5 L 129.5 211.0 L 131.0 211.0 L 136.5 210.5 L 147.0 210.5 L 159.5 210.0 L 171.0 210.0 L 180.0 210.5 L 189.5 210.5 L 199.0 210.0 L 206.0 209.0 L 210.5 209.0 L 211.5 209.0 L 210.5 209.0 L 209.5 209.0 " stroke="black" fill="none" stroke-width="9.0" stroke-linecap="round" stroke-linejoin="round" />
</svg>