<svg xmlns="http://www.w3.org/2000/svg" width="300" height="300" viewBox="0 0 300 300">
<path d="M 145.5 104.5 L 145.0 104.5 L 144.0 104.5 L 144.0 104.5 L 145.0 105.5 L 148.0 108.0 L 150.5 110.0 L 151.5 111.0 " stroke="black" fill="none" stroke-width="6.0" stroke-linecap="round" stroke-linejoin="round" />
<path d="M 129.0 116.0 L 129.0 116.5 L 129.0 117.0 L 129.5 117.5 L 131.5 117.5 L 137.0 117.5 L 146.0 117.0 L 155.5 116.5 L 163.0 116.5 L 166.5 116.5 L 168.5 118.0 L 169.0 118.5 L 168.5 118.5 " stroke="black" fill="none" stroke-width="6.0" stroke-linecap="round" stroke-linejoin="round" />
<path d="M 145.0 120.5 L 145.0 120.0 L 145.5 119.5 L 146.0 118.5 L 146.5 118.0 L 146.5 117.5 L 146.5 118.0 L 145.0 120.5 L 141.5 125.0 L 137.0 130.0 L 131.5 135.0 L 128.0 138.0 L 127.0 138.0 L 126.5 138.0 L 126.5 136.5 " stroke="black" fill="none" stroke-width="6.0" stroke-linecap="round" stroke-linejoin="round" />
<path d="M 146.5 125.0 L 146.0 125.0 L 144.5 125.0 L 144.5 125.0 L 145.5 125.0 L 148.5 127.5 L 153.5 132.0 L 159.0 137.0 L 164.0 140.5 L 167.5 141.5 L 169.0 141.5 L 169.5 140.0 " stroke="black" fill="none" stroke-width="6.0" stroke-linecap="round" stroke-linejoin="round" />
<path d="M 164.0 128.5 L 164.0 128.5 L 164.0 128.0 L 164.5 128.0 L 164.5 127.5 L 164.0 127.5 L 163.0 128.0 L 161.0 129.5 L 158.0 131.5 " stroke="black" fill="none" stroke-width="6.0" stroke-linecap="round" stroke-linejoin="round" />
<path d="M 138.0 134.0 L 139.0 133.5 L 139.5 133.5 L 140.0 133.0 L 140.0 133.0 L 140.0 133.5 L 140.0 136.5 L 139.5 141.0 L 139.0 147.0 L 139.0 151.5 L 139.0 153.0 L 139.0 152.5 L 140.5 151.0 L 142.5 148.5 L 145.0 147.0 L 148.0 146.0 L 148.5 146.0 " stroke="black" fill="none" stroke-width="6.0" stroke-linecap="round" stroke-linejoin="round" />
<path d="M 132.0 162.5 L 132.0 162.5 L 132.5 162.5 L 133.0 162.0 L 133.5 162.0 L 133.5 162.5 L 133.5 165.0 L 133.5 171.5 L 133.0 180.0 L 132.0 186.0 L 131.5 188.5 L 131.0 187.5 " stroke="black" fill="none" stroke-width="6.0" stroke-linecap="round" stroke-linejoin="round" />
<path d="M 133.0 161.0 L 133.0 162.0 L 133.0 163.0 L 132.5 163.0 L 135.0 162.5 L 140.0 162.0 L 147.0 161.5 L 153.0 161.5 L 159.0 161.5 L 163.5 161.5 L 166.5 161.5 L 168.5 162.0 L 170.0 162.0 L 171.0 162.0 L 171.0 161.5 L 171.5 161.5 L 171.5 162.0 L 171.5 163.5 L 171.5 166.5 L 171.5 170.5 L 171.5 176.0 L 171.5 182.0 L 171.5 189.0 L 171.0 195.0 L 169.5 199.5 L 168.0 202.0 L 166.5 202.5 L 164.5 200.5 L 163.0 197.0 " stroke="black" fill="none" stroke-width="6.0" stroke-linecap="round" stroke-linejoin="round" />
<path d="M 148.0 163.0 L 148.0 163.0 L 148.0 163.0 L 148.5 163.0 L 148.5 163.5 L 147.5 165.5 L 145.5 170.0 L 143.0 174.0 L 141.5 176.0 L 141.0 176.0 L 141.0 175.0 " stroke="black" fill="none" stroke-width="6.0" stroke-linecap="round" stroke-linejoin="round" />
<path d="M 153.0 164.5 L 154.0 164.5 L 155.0 164.5 L 155.0 164.5 L 155.5 164.5 L 155.5 166.0 L 155.0 169.5 L 155.0 173.5 L 156.0 176.5 L 157.5 178.0 L 160.0 178.0 L 161.5 176.5 L 162.0 176.0 " stroke="black" fill="none" stroke-width="6.0" stroke-linecap="round" stroke-linejoin="round" />
<path d="M 147.0 183.0 L 147.0 183.0 L 146.5 182.5 L 146.0 182.5 L 145.5 182.5 L 145.5 184.5 L 146.0 187.0 L 146.5 189.0 L 147.0 189.5 " stroke="black" fill="none" stroke-width="6.0" stroke-linecap="round" stroke-linejoin="round" />
<path d="M 147.0 183.5 L 147.0 183.5 L 146.5 183.5 L 146.5 183.0 L 148.5 181.5 L 151.5 180.5 L 154.0 180.0 L 156.0 180.0 L 156.5 182.5 L 156.5 185.5 L 156.0 188.0 L 154.5 190.0 L 153.0 191.0 L 151.5 191.0 " stroke="black" fill="none" stroke-width="6.0" stroke-linecap="round" stroke-linejoin="round" />
<path d="M 146.0 192.0 L 144.0 192.0 L 143.5 192.0 L 143.5 192.0 L 145.5 192.0 L 149.0 191.5 L 152.0 191.0 L 153.5 191.0 " stroke="black" fill="none" stroke-width="6.0" stroke-linecap="round" stroke-linejoin="round" />
</svg>