<svg xmlns="http://www.w3.org/2000/svg" width="300" height="300" viewBox="0 0 300 300">
<path d="M 128.0 115.0 L 127.5 115.0 L 126.5 115.5 L 126.5 115.5 L 126.5 115.5 L 127.0 116.5 L 128.5 118.0 L 130.5 119.5 L 132.5 121.0 L 133.5 122.0 L 134.0 122.5 " stroke="black" fill="none" stroke-width="6.0" stroke-linecap="round" stroke-linejoin="round" />
<path d="M 122.5 132.0 L 122.0 132.0 L 120.0 132.0 L 119.5 132.0 L 119.5 132.0 L 120.5 132.0 L 122.5 132.0 L 125.5 131.5 L 128.5 131.5 L 132.0 130.5 L 134.5 130.0 L 136.5 129.5 L 137.0 129.5 L 137.0 129.5 L 137.0 130.0 L 136.5 132.0 L 135.5 134.5 L 134.0 137.5 L 131.0 141.0 L 127.5 145.5 L 123.5 148.5 L 121.0 150.5 L 119.5 151.5 L 119.0 152.5 L 119.0 153.0 " stroke="black" fill="none" stroke-width="6.0" stroke-linecap="round" stroke-linejoin="round" />
<path d="M 127.5 146.0 L 127.5 145.5 L 127.5 144.5 L 127.5 144.0 L 127.5 145.0 L 128.0 149.5 L 128.5 158.5 L 128.0 169.5 L 126.5 178.5 L 125.5 182.5 L 125.5 182.5 L 125.5 181.0 L 125.5 180.0 " stroke="black" fill="none" stroke-width="6.0" stroke-linecap="round" stroke-linejoin="round" />
<path d="M 144.0 139.5 L 144.0 139.5 L 143.5 140.0 L 143.0 140.0 L 143.0 140.0 L 142.5 140.5 L 142.0 142.0 L 141.5 144.5 L 140.5 147.0 L 140.5 147.5 " stroke="black" fill="none" stroke-width="6.0" stroke-linecap="round" stroke-linejoin="round" />
<path d="M 134.5 148.5 L 134.0 148.5 L 133.5 149.0 L 133.0 149.5 L 133.0 150.0 L 135.0 152.5 L 138.5 154.5 L 142.0 156.5 L 142.5 157.0 " stroke="black" fill="none" stroke-width="6.0" stroke-linecap="round" stroke-linejoin="round" />
<path d="M 156.0 112.0 L 156.0 112.0 L 156.0 112.0 L 156.5 112.0 L 157.0 112.0 L 157.0 112.0 L 157.5 112.0 L 157.5 112.0 L 158.0 114.5 L 158.0 118.5 L 158.0 123.0 L 158.0 125.0 L 158.0 126.0 L 157.5 125.5 " stroke="black" fill="none" stroke-width="6.0" stroke-linecap="round" stroke-linejoin="round" />
<path d="M 149.0 120.5 L 148.5 120.5 L 148.0 121.0 L 148.0 121.0 L 148.0 121.0 L 149.5 120.5 L 152.0 120.0 L 155.0 119.5 L 156.5 119.5 " stroke="black" fill="none" stroke-width="6.0" stroke-linecap="round" stroke-linejoin="round" />
<path d="M 170.0 112.0 L 170.0 112.0 L 169.5 111.5 L 169.0 111.0 L 169.0 110.5 L 169.0 110.5 L 169.5 112.5 L 169.5 116.0 L 169.5 120.5 L 170.0 124.0 L 170.0 124.5 " stroke="black" fill="none" stroke-width="6.0" stroke-linecap="round" stroke-linejoin="round" />
<path d="M 170.5 120.0 L 170.5 120.0 L 170.0 120.0 L 170.0 120.0 L 170.0 120.0 L 170.5 120.0 L 172.5 119.5 L 174.0 119.0 L 176.0 119.0 L 176.0 119.0 " stroke="black" fill="none" stroke-width="6.0" stroke-linecap="round" stroke-linejoin="round" />
<path d="M 155.5 137.0 L 156.0 137.5 L 156.0 138.0 L 156.0 139.5 L 156.5 143.5 L 157.0 147.5 L 157.5 150.5 L 158.0 151.0 L 158.0 151.0 " stroke="black" fill="none" stroke-width="6.0" stroke-linecap="round" stroke-linejoin="round" />
<path d="M 156.0 136.5 L 156.0 136.5 L 156.0 137.0 L 155.5 137.0 L 155.5 137.0 L 155.5 137.0 L 157.5 137.0 L 161.0 137.0 L 166.0 137.0 L 171.0 137.0 L 175.0 137.0 L 177.5 136.5 L 179.0 136.0 L 180.0 135.5 L 181.0 135.5 L 182.0 135.5 L 182.5 135.5 L 183.0 135.5 L 183.5 136.0 L 184.0 136.5 L 184.5 138.0 L 184.5 140.0 L 184.5 142.0 L 184.0 144.5 L 183.5 146.5 L 183.0 148.0 " stroke="black" fill="none" stroke-width="6.0" stroke-linecap="round" stroke-linejoin="round" />
<path d="M 167.5 140.5 L 167.5 140.5 L 166.5 140.5 L 166.0 140.5 L 166.0 140.5 L 166.0 142.5 L 166.5 145.5 L 167.5 147.5 L 168.0 148.0 " stroke="black" fill="none" stroke-width="6.0" stroke-linecap="round" stroke-linejoin="round" />
<path d="M 174.0 137.0 L 174.0 137.0 L 174.0 137.0 L 174.0 137.5 L 173.5 139.0 L 173.5 142.5 L 173.5 146.0 L 173.5 148.0 " stroke="black" fill="none" stroke-width="6.0" stroke-linecap="round" stroke-linejoin="round" />
<path d="M 160.5 152.5 L 160.0 153.0 L 160.0 153.5 L 160.0 154.0 L 160.5 154.0 L 163.0 154.0 L 167.5 154.0 L 172.5 153.5 L 175.5 152.5 L 176.0 152.5 " stroke="black" fill="none" stroke-width="6.0" stroke-linecap="round" stroke-linejoin="round" />
<path d="M 155.0 167.0 L 155.0 167.0 L 155.5 166.5 L 157.0 166.0 L 161.0 165.5 L 167.5 165.5 L 173.0 165.5 L 176.0 165.5 L 177.5 165.5 " stroke="black" fill="none" stroke-width="6.0" stroke-linecap="round" stroke-linejoin="round" />
<path d="M 153.5 168.0 L 153.5 168.0 L 154.5 167.0 L 154.5 166.5 L 154.5 166.5 L 154.5 167.5 L 154.0 170.5 L 153.5 174.5 L 152.0 180.0 L 150.5 184.5 L 149.0 188.0 L 148.5 189.0 L 148.5 188.5 L 148.5 186.5 " stroke="black" fill="none" stroke-width="6.0" stroke-linecap="round" stroke-linejoin="round" />
<path d="M 170.0 160.5 L 170.0 160.5 L 169.0 160.5 L 168.5 160.0 L 168.5 160.0 L 169.0 161.0 L 170.5 164.5 L 172.0 170.0 L 173.5 177.0 L 176.0 183.0 L 178.5 186.5 L 180.5 187.5 L 182.5 187.5 L 184.0 186.5 L 185.0 185.0 L 185.0 184.0 " stroke="black" fill="none" stroke-width="6.0" stroke-linecap="round" stroke-linejoin="round" />
<path d="M 180.5 174.0 L 180.5 174.0 L 180.5 174.0 L 180.5 174.0 L 180.5 174.5 L 180.0 174.5 L 178.5 176.0 L 175.5 179.5 L 172.5 183.5 L 170.5 186.5 " stroke="black" fill="none" stroke-width="6.0" stroke-linecap="round" stroke-linejoin="round" />
<path d="M 158.5 178.0 L 158.5 178.5 L 158.5 179.0 L 158.5 179.5 L 159.0 180.0 L 162.0 181.0 L 165.5 182.0 L 167.0 182.0 " stroke="black" fill="none" stroke-width="6.0" stroke-linecap="round" stroke-linejoin="round" />
<path d="M 182.0 156.0 L 182.0 156.0 L 181.5 156.5 L 181.0 156.5 L 181.0 156.5 L 182.5 158.0 L 184.5 160.0 " stroke="black" fill="none" stroke-width="6.0" stroke-linecap="round" stroke-linejoin="round" />
</svg>