<svg xmlns="http://www.w3.org/2000/svg" width="300" height="300" viewBox="0 0 300 300">
<path d="M 111.5 97.0 L 111.5 96.0 L 111.0 95.5 L 112.0 95.0 L 115.5 94.5 L 123.0 94.5 L 136.0 95.0 L 153.0 95.5 L 168.5 95.0 L 179.5 94.5 L 185.5 94.5 L 186.5 94.5 L 184.5 94.5 L 182.5 94.5 " stroke="black" fill="none" stroke-width="8.0" stroke-linecap="round" stroke-linejoin="round" />
<path d="M 113.0 128.0 L 113.0 128.0 L 113.5 127.0 L 114.0 126.5 L 114.0 126.5 L 114.5 128.5 L 116.0 135.0 L 118.0 148.0 L 119.5 162.0 L 120.5 168.0 L 121.0 167.5 L 121.5 163.5 " stroke="black" fill="none" stroke-width="8.0" stroke-linecap="round" stroke-linejoin="round" />
<path d="M 119.0 121.0 L 118.0 120.5 L 116.5 120.0 L 116.5 120.0 L 120.0 120.0 L 126.0 119.0 L 136.5 117.0 L 151.5 115.0 L 166.5 114.5 L 178.0 114.5 L 185.5 116.0 L 188.5 119.0 L 189.5 123.5 L 190.0 129.0 L 190.0 135.5 L 190.5 143.0 L 190.5 151.5 L 188.5 160.0 L 186.5 167.0 L 184.0 171.5 L 183.0 173.5 L 181.0 173.0 " stroke="black" fill="none" stroke-width="8.0" stroke-linecap="round" stroke-linejoin="round" />
<path d="M 139.5 97.5 L 140.0 98.0 L 141.0 99.0 L 142.5 103.5 L 143.5 115.0 L 142.5 131.0 L 139.5 145.0 L 137.0 151.0 L 135.5 150.0 L 135.0 149.0 " stroke="black" fill="none" stroke-width="8.0" stroke-linecap="round" stroke-linejoin="round" />
<path d="M 161.5 103.5 L 161.5 102.5 L 161.5 101.5 L 161.5 101.5 L 161.5 104.0 L 159.5 111.5 L 156.5 126.0 L 155.0 142.5 L 155.0 150.5 L 157.5 152.0 L 161.5 152.5 L 167.5 152.0 L 174.0 150.5 L 178.0 149.5 L 180.0 149.5 L 180.0 149.5 " stroke="black" fill="none" stroke-width="8.0" stroke-linecap="round" stroke-linejoin="round" />
<path d="M 127.0 180.5 L 127.0 180.0 L 126.5 179.0 L 129.5 178.0 L 139.5 176.5 L 155.5 174.5 L 171.0 172.5 L 185.0 169.5 L 194.5 167.5 " stroke="black" fill="none" stroke-width="8.0" stroke-linecap="round" stroke-linejoin="round" />
</svg>