<svg xmlns="http://www.w3.org/2000/svg" width="300" height="300" viewBox="0 0 300 300">
<path d="M 124.0 105.5 L 123.5 105.5 L 123.0 105.5 L 122.5 106.0 L 122.5 107.0 L 122.5 110.0 L 122.0 114.5 L 121.0 119.0 L 120.0 122.5 L 120.0 124.0 " stroke="black" fill="none" stroke-width="7.0" stroke-linecap="round" stroke-linejoin="round" />
<path d="M 124.5 112.5 L 124.0 112.5 L 122.0 112.5 L 122.0 112.5 L 123.5 111.5 L 127.0 110.5 L 131.0 109.5 L 135.0 108.5 L 139.5 108.0 L 142.0 108.0 L 143.5 107.5 L 143.5 107.5 L 143.5 108.5 L 143.5 109.5 L 143.5 111.0 L 143.5 113.0 L 143.5 115.5 L 143.0 117.5 L 143.0 118.5 L 142.5 119.5 " stroke="black" fill="none" stroke-width="7.0" stroke-linecap="round" stroke-linejoin="round" />
<path d="M 127.0 130.5 L 126.5 131.0 L 125.5 131.5 L 125.5 133.5 L 126.0 140.5 L 126.5 153.0 L 126.5 168.0 L 126.0 180.5 L 125.0 189.0 L 124.5 191.5 L 124.0 190.0 L 123.0 184.5 " stroke="black" fill="none" stroke-width="7.0" stroke-linecap="round" stroke-linejoin="round" />
<path d="M 129.0 130.5 L 128.5 131.5 L 128.0 131.5 L 128.0 131.5 L 129.0 131.0 L 131.0 130.0 L 133.5 129.5 L 136.0 129.5 L 139.5 129.5 L 143.0 129.5 L 145.0 130.0 L 145.5 131.5 L 146.0 134.5 L 146.0 138.5 L 146.0 144.5 L 146.5 153.5 L 147.0 164.5 L 148.0 175.0 L 148.0 185.5 L 148.0 193.5 L 147.5 198.0 L 145.5 199.0 L 143.5 198.0 L 141.5 194.5 L 140.5 190.0 L 140.5 189.0 " stroke="black" fill="none" stroke-width="7.0" stroke-linecap="round" stroke-linejoin="round" />
<path d="M 131.5 146.0 L 130.0 146.0 L 129.0 146.5 L 129.0 146.5 L 130.5 146.0 L 133.0 145.0 L 136.0 144.5 L 139.0 143.5 L 140.5 143.5 " stroke="black" fill="none" stroke-width="7.0" stroke-linecap="round" stroke-linejoin="round" />
<path d="M 138.0 135.0 L 137.5 135.0 L 137.5 134.5 L 137.0 134.5 L 136.5 134.5 L 136.5 137.0 L 136.5 142.0 L 136.5 148.5 L 136.5 153.5 L 137.5 155.0 L 138.0 155.0 " stroke="black" fill="none" stroke-width="7.0" stroke-linecap="round" stroke-linejoin="round" />
<path d="M 132.0 160.0 L 132.0 160.0 L 132.0 160.0 L 132.0 160.0 L 134.0 159.5 L 138.0 158.5 L 142.5 157.5 L 146.5 157.0 L 149.0 157.0 L 149.5 157.0 " stroke="black" fill="none" stroke-width="7.0" stroke-linecap="round" stroke-linejoin="round" />
<path d="M 161.5 102.5 L 161.5 102.5 L 161.0 102.0 L 160.5 102.0 L 160.5 102.0 L 160.5 103.0 L 160.0 105.5 L 159.0 109.5 L 157.0 113.5 L 155.5 117.0 L 154.5 119.0 L 154.5 118.5 " stroke="black" fill="none" stroke-width="7.0" stroke-linecap="round" stroke-linejoin="round" />
<path d="M 158.0 111.0 L 157.5 112.5 L 157.5 113.0 L 159.0 113.0 L 162.5 112.5 L 167.5 111.5 L 172.5 111.0 L 176.5 111.0 L 179.5 111.5 L 182.0 112.5 L 183.0 112.0 " stroke="black" fill="none" stroke-width="7.0" stroke-linecap="round" stroke-linejoin="round" />
<path d="M 161.0 126.5 L 161.0 126.0 L 161.0 125.5 L 161.0 125.0 L 161.0 125.0 L 161.5 127.5 L 162.0 132.5 L 162.0 137.5 L 162.0 141.5 L 162.0 143.5 L 162.5 143.5 " stroke="black" fill="none" stroke-width="7.0" stroke-linecap="round" stroke-linejoin="round" />
<path d="M 164.5 125.5 L 163.5 125.5 L 162.5 125.5 L 162.0 125.0 L 163.0 125.0 L 165.0 124.5 L 168.0 124.0 L 171.5 124.0 L 175.0 124.0 L 178.5 124.5 L 180.5 125.0 L 182.0 126.5 L 182.0 128.0 L 182.0 131.0 L 181.0 134.5 L 180.0 138.0 L 179.0 141.0 L 178.0 143.0 L 178.0 143.5 L 178.0 143.5 " stroke="black" fill="none" stroke-width="7.0" stroke-linecap="round" stroke-linejoin="round" />
<path d="M 169.0 135.0 L 168.0 135.0 L 165.5 135.0 L 165.0 135.0 L 165.5 135.0 L 167.5 135.0 L 170.0 135.0 L 172.5 134.5 L 175.5 134.5 L 177.5 134.5 " stroke="black" fill="none" stroke-width="7.0" stroke-linecap="round" stroke-linejoin="round" />
<path d="M 167.0 144.0 L 166.0 144.0 L 164.5 144.0 L 164.5 144.0 L 166.0 144.0 L 168.5 144.0 L 172.0 143.5 L 175.5 143.5 L 178.0 143.5 L 179.0 143.5 " stroke="black" fill="none" stroke-width="7.0" stroke-linecap="round" stroke-linejoin="round" />
<path d="M 161.0 155.5 L 161.0 155.5 L 160.0 156.0 L 160.0 156.0 L 161.0 155.5 L 163.5 154.5 L 167.0 153.5 L 171.5 153.0 L 176.5 152.5 L 181.0 152.5 L 184.5 152.5 " stroke="black" fill="none" stroke-width="7.0" stroke-linecap="round" stroke-linejoin="round" />
<path d="M 168.0 160.0 L 168.0 160.0 L 167.0 161.0 L 166.5 162.0 L 166.0 163.5 L 165.0 166.5 L 164.0 170.0 L 162.5 173.0 L 162.0 173.5 " stroke="black" fill="none" stroke-width="7.0" stroke-linecap="round" stroke-linejoin="round" />
<path d="M 167.0 166.5 L 167.0 166.5 L 166.5 166.0 L 166.0 166.0 L 167.5 166.0 L 170.0 166.5 L 173.5 166.5 L 177.0 167.0 L 181.5 167.5 L 186.0 168.5 L 189.5 171.5 L 190.5 175.0 L 190.5 180.5 L 190.5 185.5 L 189.5 190.0 L 188.5 195.0 L 186.5 200.0 L 184.5 203.5 L 181.5 205.5 L 178.0 205.5 L 176.0 203.5 L 174.5 200.0 " stroke="black" fill="none" stroke-width="7.0" stroke-linecap="round" stroke-linejoin="round" />
<path d="M 175.0 169.5 L 175.0 169.5 L 175.0 169.5 L 175.0 170.0 L 175.0 172.5 L 174.0 178.0 L 172.0 183.5 L 168.5 187.0 L 165.5 188.0 L 164.5 188.0 " stroke="black" fill="none" stroke-width="7.0" stroke-linecap="round" stroke-linejoin="round" />
<path d="M 185.5 174.0 L 185.5 174.0 L 185.0 176.0 L 184.5 178.5 L 183.0 182.0 L 180.0 187.0 L 175.0 191.5 L 171.0 194.5 L 169.5 196.0 " stroke="black" fill="none" stroke-width="7.0" stroke-linecap="round" stroke-linejoin="round" />
</svg>