<svg xmlns="http://www.w3.org/2000/svg" width="300" height="300" viewBox="0 0 300 300">
<path d="M 117.5 112.5 L 117.0 112.5 L 116.0 112.5 L 116.0 112.5 L 116.5 113.5 L 119.0 115.5 L 121.5 117.5 L 123.5 120.0 " stroke="black" fill="none" stroke-width="6.0" stroke-linecap="round" stroke-linejoin="round" />
<path d="M 118.0 129.0 L 117.0 129.0 L 116.5 129.5 L 117.0 129.0 L 119.5 128.5 L 123.0 127.5 L 126.0 127.0 L 128.5 127.0 L 129.0 127.0 " stroke="black" fill="none" stroke-width="6.0" stroke-linecap="round" stroke-linejoin="round" />
<path d="M 120.0 140.0 L 118.5 140.5 L 117.5 140.5 L 117.5 140.5 L 119.0 140.0 L 122.5 139.5 L 126.0 139.0 L 129.0 139.0 L 131.0 139.0 " stroke="black" fill="none" stroke-width="6.0" stroke-linecap="round" stroke-linejoin="round" />
<path d="M 120.5 156.5 L 120.5 156.5 L 120.0 157.5 L 119.5 157.5 L 120.0 157.0 L 122.0 156.0 L 124.5 155.5 L 126.5 155.0 L 128.0 155.0 " stroke="black" fill="none" stroke-width="6.0" stroke-linecap="round" stroke-linejoin="round" />
<path d="M 120.0 169.0 L 119.0 169.5 L 118.5 169.5 L 118.0 170.0 L 117.5 172.5 L 117.5 177.5 L 119.0 182.5 L 120.5 185.0 " stroke="black" fill="none" stroke-width="6.0" stroke-linecap="round" stroke-linejoin="round" />
<path d="M 119.5 175.0 L 118.5 175.0 L 117.5 175.0 L 117.5 174.0 L 119.5 172.5 L 122.5 171.0 L 126.0 170.5 L 129.5 170.5 L 132.0 171.0 L 133.5 173.0 L 134.0 176.5 L 134.0 180.0 L 133.0 183.0 L 131.5 185.5 L 131.0 186.0 " stroke="black" fill="none" stroke-width="6.0" stroke-linecap="round" stroke-linejoin="round" />
<path d="M 124.0 188.5 L 121.5 188.5 L 121.0 188.5 L 121.0 188.5 L 123.5 188.5 L 126.5 187.5 L 129.5 185.5 " stroke="black" fill="none" stroke-width="6.0" stroke-linecap="round" stroke-linejoin="round" />
<path d="M 148.0 117.5 L 148.0 116.5 L 148.0 115.5 L 148.5 115.0 L 149.0 114.5 L 149.0 114.5 L 148.5 117.0 L 146.5 122.5 L 144.0 128.0 L 142.5 131.0 L 142.5 131.5 " stroke="black" fill="none" stroke-width="6.0" stroke-linecap="round" stroke-linejoin="round" />
<path d="M 147.5 125.0 L 147.5 125.0 L 147.5 125.5 L 148.5 125.5 L 153.5 124.5 L 161.5 123.5 L 169.0 122.5 L 172.0 122.5 L 172.5 122.5 " stroke="black" fill="none" stroke-width="6.0" stroke-linecap="round" stroke-linejoin="round" />
<path d="M 141.5 146.5 L 141.0 146.5 L 141.0 146.5 L 143.0 146.5 L 149.0 146.0 L 159.5 144.5 L 167.5 143.5 L 171.5 143.0 L 172.0 143.0 " stroke="black" fill="none" stroke-width="6.0" stroke-linecap="round" stroke-linejoin="round" />
<path d="M 157.0 130.5 L 157.0 130.5 L 156.5 130.5 L 156.0 131.0 L 156.0 132.5 L 156.0 140.0 L 157.0 153.0 L 157.0 165.5 L 157.0 174.0 L 157.0 178.0 L 157.0 179.5 L 157.0 180.0 L 157.0 180.0 " stroke="black" fill="none" stroke-width="6.0" stroke-linecap="round" stroke-linejoin="round" />
</svg>