<svg xmlns="http://www.w3.org/2000/svg" width="300" height="300" viewBox="0 0 300 300">
<path d="M 114.0 91.5 L 114.0 91.5 L 113.5 91.5 L 113.5 91.5 L 113.5 91.5 L 115.0 93.5 L 117.5 96.0 L 119.5 98.5 L 120.5 99.5 " stroke="black" fill="none" stroke-width="8.0" stroke-linecap="round" stroke-linejoin="round" />
<path d="M 102.0 117.0 L 101.0 117.0 L 100.5 117.0 L 102.0 117.0 L 106.5 115.5 L 113.5 113.5 L 120.5 112.5 L 126.5 112.0 L 127.5 111.5 " stroke="black" fill="none" stroke-width="8.0" stroke-linecap="round" stroke-linejoin="round" />
<path d="M 104.5 137.5 L 104.5 137.5 L 104.0 137.5 L 104.0 137.5 L 107.5 135.5 L 114.5 133.0 L 122.0 130.5 L 128.0 129.0 L 128.5 128.5 " stroke="black" fill="none" stroke-width="8.0" stroke-linecap="round" stroke-linejoin="round" />
<path d="M 104.5 159.5 L 104.5 159.5 L 104.0 159.5 L 105.5 158.5 L 111.0 156.0 L 118.5 153.0 L 125.5 151.5 L 127.5 151.0 " stroke="black" fill="none" stroke-width="8.0" stroke-linecap="round" stroke-linejoin="round" />
<path d="M 104.0 187.5 L 104.0 187.0 L 104.0 186.5 L 104.0 186.0 L 104.0 186.5 L 105.0 189.0 L 105.5 193.5 L 106.0 198.0 L 106.5 199.5 " stroke="black" fill="none" stroke-width="8.0" stroke-linecap="round" stroke-linejoin="round" />
<path d="M 107.5 185.5 L 107.5 184.0 L 107.5 182.5 L 108.0 180.5 L 111.0 178.5 L 115.0 176.5 L 119.5 175.5 L 124.5 175.0 L 128.5 176.5 L 132.0 181.5 L 131.5 186.0 L 129.5 191.5 L 128.0 196.5 L 127.0 199.5 L 127.0 200.5 " stroke="black" fill="none" stroke-width="8.0" stroke-linecap="round" stroke-linejoin="round" />
<path d="M 116.0 205.5 L 116.0 205.5 L 116.0 206.0 L 116.0 206.0 L 116.5 206.0 L 119.0 205.0 L 123.5 203.0 L 125.5 201.5 " stroke="black" fill="none" stroke-width="8.0" stroke-linecap="round" stroke-linejoin="round" />
<path d="M 150.5 109.0 L 150.5 109.0 L 150.5 109.0 L 151.0 109.0 L 154.0 108.5 L 160.5 107.5 L 167.0 106.5 L 169.5 105.5 " stroke="black" fill="none" stroke-width="8.0" stroke-linecap="round" stroke-linejoin="round" />
<path d="M 159.0 89.0 L 159.0 89.0 L 159.0 88.5 L 158.5 88.0 L 158.5 88.5 L 159.0 92.5 L 160.0 101.0 L 160.0 112.5 L 159.0 121.0 L 159.0 124.5 L 159.0 125.0 " stroke="black" fill="none" stroke-width="8.0" stroke-linecap="round" stroke-linejoin="round" />
<path d="M 142.5 133.0 L 142.0 133.0 L 142.0 133.0 L 143.0 133.0 L 149.5 131.5 L 161.5 129.5 L 177.0 127.0 L 191.5 124.5 L 201.0 122.5 L 204.0 122.0 L 203.5 122.0 " stroke="black" fill="none" stroke-width="8.0" stroke-linecap="round" stroke-linejoin="round" />
<path d="M 192.0 90.5 L 191.5 90.5 L 191.0 90.5 L 190.5 92.0 L 189.5 97.5 L 185.0 110.0 L 175.0 128.5 L 163.5 144.5 L 155.0 155.5 L 149.0 162.5 L 147.5 165.0 L 148.0 164.5 " stroke="black" fill="none" stroke-width="8.0" stroke-linecap="round" stroke-linejoin="round" />
<path d="M 168.5 153.0 L 168.0 152.0 L 167.5 151.0 L 167.5 150.5 L 167.5 150.5 L 168.0 155.5 L 168.5 165.5 L 168.5 177.5 L 168.5 187.5 L 168.5 191.5 L 169.0 190.5 " stroke="black" fill="none" stroke-width="8.0" stroke-linecap="round" stroke-linejoin="round" />
<path d="M 171.0 154.0 L 170.0 154.5 L 169.0 155.0 L 169.0 155.5 L 171.5 155.0 L 177.0 153.0 L 183.5 150.5 L 189.5 148.0 L 193.0 147.5 L 193.5 148.0 L 194.0 150.0 L 194.0 154.0 L 194.0 160.5 L 193.0 169.5 L 192.0 178.5 L 191.0 184.5 L 191.0 186.5 L 191.0 186.5 " stroke="black" fill="none" stroke-width="8.0" stroke-linecap="round" stroke-linejoin="round" />
<path d="M 173.0 172.0 L 172.5 172.0 L 172.0 172.0 L 172.0 172.0 L 175.0 171.0 L 180.0 169.0 L 185.0 166.5 L 189.5 165.5 L 191.0 165.5 " stroke="black" fill="none" stroke-width="8.0" stroke-linecap="round" stroke-linejoin="round" />
<path d="M 170.5 193.0 L 169.5 194.0 L 169.0 194.5 L 171.0 194.0 L 176.5 192.5 L 182.5 190.5 L 189.0 189.0 L 194.5 187.5 " stroke="black" fill="none" stroke-width="8.0" stroke-linecap="round" stroke-linejoin="round" />
</svg>