<svg xmlns="http://www.w3.org/2000/svg" width="300" height="300" viewBox="0 0 300 300">
<path d="M 118.5 108.5 L 118.5 108.5 L 118.5 108.5 L 118.5 108.5 L 118.5 109.0 L 121.0 110.5 L 123.0 113.0 L 125.0 115.0 L 126.0 116.5 " stroke="black" fill="none" stroke-width="7.0" stroke-linecap="round" stroke-linejoin="round" />
<path d="M 116.5 128.0 L 116.5 128.0 L 116.5 128.0 L 116.5 128.0 L 117.5 128.0 L 121.0 127.5 L 125.0 127.0 L 128.0 127.0 L 129.0 127.0 " stroke="black" fill="none" stroke-width="7.0" stroke-linecap="round" stroke-linejoin="round" />
<path d="M 119.0 139.5 L 119.0 139.5 L 118.5 140.0 L 118.5 140.0 L 120.5 139.5 L 124.0 138.5 L 127.0 138.0 L 129.0 137.5 L 130.0 138.0 " stroke="black" fill="none" stroke-width="7.0" stroke-linecap="round" stroke-linejoin="round" />
<path d="M 117.5 154.5 L 117.5 155.0 L 117.5 155.5 L 117.5 156.0 L 117.5 156.0 L 119.0 155.5 L 121.5 154.5 L 124.5 154.0 L 126.5 153.5 " stroke="black" fill="none" stroke-width="7.0" stroke-linecap="round" stroke-linejoin="round" />
<path d="M 116.0 171.0 L 116.0 170.5 L 116.0 170.0 L 116.0 171.0 L 116.0 175.5 L 116.5 181.0 L 117.5 186.0 L 118.5 188.0 " stroke="black" fill="none" stroke-width="7.0" stroke-linecap="round" stroke-linejoin="round" />
<path d="M 116.5 175.0 L 116.5 175.0 L 116.0 175.0 L 115.5 175.0 L 115.5 175.0 L 117.0 174.5 L 120.5 172.5 L 124.0 170.5 L 127.5 169.5 L 130.0 169.5 L 131.5 170.5 L 132.0 172.5 L 132.5 174.5 L 132.5 176.5 L 130.5 179.0 L 130.0 180.5 " stroke="black" fill="none" stroke-width="7.0" stroke-linecap="round" stroke-linejoin="round" />
<path d="M 121.0 191.5 L 121.0 191.0 L 121.0 190.5 L 121.5 190.0 L 124.0 189.0 L 127.5 188.5 L 129.5 187.5 " stroke="black" fill="none" stroke-width="7.0" stroke-linecap="round" stroke-linejoin="round" />
<path d="M 141.0 114.5 L 141.0 114.5 L 141.0 114.5 L 141.0 114.5 L 143.0 114.0 L 148.0 114.0 L 155.5 114.0 L 164.5 114.0 L 172.0 112.5 L 176.0 111.5 L 176.5 111.5 L 176.0 111.5 L 175.0 111.5 L 175.0 111.5 L 174.5 111.5 " stroke="black" fill="none" stroke-width="7.0" stroke-linecap="round" stroke-linejoin="round" />
<path d="M 158.0 103.0 L 158.0 103.0 L 158.5 102.5 L 158.5 102.5 L 159.0 103.5 L 159.0 107.5 L 159.5 113.5 L 160.0 119.0 L 160.0 121.5 " stroke="black" fill="none" stroke-width="7.0" stroke-linecap="round" stroke-linejoin="round" />
<path d="M 145.0 128.5 L 145.5 128.0 L 146.5 127.5 L 149.5 127.0 L 156.0 126.0 L 164.5 125.0 L 172.0 124.5 L 175.0 124.5 " stroke="black" fill="none" stroke-width="7.0" stroke-linecap="round" stroke-linejoin="round" />
<path d="M 142.0 139.0 L 142.0 137.5 L 142.0 136.5 L 142.0 136.0 L 142.5 136.0 L 143.0 138.0 L 144.0 141.5 L 145.5 144.5 L 146.5 146.5 " stroke="black" fill="none" stroke-width="7.0" stroke-linecap="round" stroke-linejoin="round" />
<path d="M 142.5 140.0 L 142.5 140.0 L 142.0 140.0 L 142.0 139.5 L 143.0 138.5 L 146.5 137.5 L 151.5 137.0 L 159.0 137.0 L 167.5 137.5 L 174.5 137.5 L 180.5 137.5 L 183.5 137.0 L 184.0 137.0 L 183.5 137.0 L 183.0 137.0 L 182.5 137.0 L 182.5 137.0 L 182.0 138.0 L 181.5 139.5 L 181.0 141.5 L 180.5 144.5 L 180.0 147.5 L 179.5 149.5 L 179.0 150.5 " stroke="black" fill="none" stroke-width="7.0" stroke-linecap="round" stroke-linejoin="round" />
<path d="M 157.0 138.5 L 157.5 138.5 L 158.0 139.0 L 158.0 140.0 L 158.0 143.0 L 158.0 147.5 L 158.5 150.0 L 158.5 150.5 " stroke="black" fill="none" stroke-width="7.0" stroke-linecap="round" stroke-linejoin="round" />
<path d="M 168.0 140.5 L 168.0 140.5 L 167.5 141.0 L 167.5 142.0 L 167.5 144.0 L 167.5 146.5 L 167.5 149.0 L 167.5 149.5 " stroke="black" fill="none" stroke-width="7.0" stroke-linecap="round" stroke-linejoin="round" />
<path d="M 143.5 155.0 L 144.0 155.0 L 145.0 155.0 L 147.0 155.0 L 153.0 155.0 L 161.5 155.0 L 169.5 155.5 L 176.0 155.0 " stroke="black" fill="none" stroke-width="7.0" stroke-linecap="round" stroke-linejoin="round" />
<path d="M 149.0 167.0 L 148.5 166.5 L 148.5 166.5 L 148.5 166.0 L 148.5 166.5 L 148.5 169.5 L 149.0 173.0 L 149.5 176.0 L 150.0 178.0 " stroke="black" fill="none" stroke-width="7.0" stroke-linecap="round" stroke-linejoin="round" />
<path d="M 151.0 165.5 L 151.0 165.0 L 151.0 165.0 L 151.0 164.5 L 153.0 164.0 L 157.5 163.0 L 163.5 162.5 L 169.5 162.5 L 174.5 163.5 L 176.5 164.5 L 176.5 165.5 L 176.0 165.5 L 175.5 165.5 L 175.0 165.5 L 175.0 166.0 L 174.0 167.0 L 173.5 169.0 L 173.0 171.5 L 172.5 175.5 L 172.0 179.0 L 172.0 182.0 L 172.0 183.0 " stroke="black" fill="none" stroke-width="7.0" stroke-linecap="round" stroke-linejoin="round" />
<path d="M 150.5 172.5 L 151.0 172.5 L 151.5 172.0 L 152.0 171.5 L 153.5 171.5 L 157.0 171.0 L 161.0 171.0 L 165.5 171.0 L 167.5 171.0 " stroke="black" fill="none" stroke-width="7.0" stroke-linecap="round" stroke-linejoin="round" />
<path d="M 152.5 179.0 L 152.5 179.0 L 152.5 179.5 L 153.0 179.5 L 153.5 179.5 L 155.5 179.5 L 159.5 179.0 L 164.0 178.5 L 168.0 178.0 " stroke="black" fill="none" stroke-width="7.0" stroke-linecap="round" stroke-linejoin="round" />
<path d="M 147.5 188.5 L 147.5 188.5 L 147.5 188.0 L 149.0 187.5 L 154.0 186.5 L 161.0 186.5 L 167.5 186.5 L 171.0 187.0 " stroke="black" fill="none" stroke-width="7.0" stroke-linecap="round" stroke-linejoin="round" />
<path d="M 155.0 194.5 L 155.5 194.5 L 156.0 194.5 L 156.0 194.5 L 154.5 196.0 L 150.5 198.5 L 147.0 201.5 L 146.0 202.5 " stroke="black" fill="none" stroke-width="7.0" stroke-linecap="round" stroke-linejoin="round" />
<path d="M 170.0 197.5 L 170.0 197.5 L 170.0 197.5 L 170.5 198.0 L 173.5 198.5 L 178.5 199.5 L 183.0 201.0 L 184.0 201.5 " stroke="black" fill="none" stroke-width="7.0" stroke-linecap="round" stroke-linejoin="round" />
</svg>