<svg xmlns="http://www.w3.org/2000/svg" width="300" height="300" viewBox="0 0 300 300">
<path d="M 125.0 107.0 L 124.0 107.0 L 123.5 107.5 L 123.5 107.5 L 124.0 108.0 L 126.5 108.5 L 128.5 109.5 L 129.5 110.5 " stroke="black" fill="none" stroke-width="6.0" stroke-linecap="round" stroke-linejoin="round" />
<path d="M 122.0 123.5 L 121.5 123.5 L 120.5 123.5 L 120.5 123.5 L 121.0 123.0 L 124.0 122.5 L 127.5 122.0 L 131.0 121.5 L 133.0 121.0 L 135.0 120.5 L 135.5 120.5 " stroke="black" fill="none" stroke-width="6.0" stroke-linecap="round" stroke-linejoin="round" />
<path d="M 125.0 130.5 L 125.0 130.5 L 124.0 131.0 L 124.0 131.0 L 125.0 131.0 L 128.0 130.5 L 131.0 129.5 L 133.0 129.0 L 135.0 128.5 L 135.0 128.5 " stroke="black" fill="none" stroke-width="6.0" stroke-linecap="round" stroke-linejoin="round" />
<path d="M 125.0 142.0 L 125.0 142.0 L 124.0 142.0 L 124.0 142.0 L 124.0 141.5 L 126.0 141.5 L 128.5 140.5 L 131.5 140.0 L 133.5 139.5 L 134.5 139.5 " stroke="black" fill="none" stroke-width="6.0" stroke-linecap="round" stroke-linejoin="round" />
<path d="M 124.5 156.0 L 124.0 156.0 L 123.0 156.5 L 123.0 156.5 L 123.0 157.0 L 123.5 158.5 L 124.5 162.0 L 126.0 165.0 L 126.5 167.0 " stroke="black" fill="none" stroke-width="6.0" stroke-linecap="round" stroke-linejoin="round" />
<path d="M 125.5 156.0 L 124.5 156.0 L 122.5 156.0 L 122.0 156.0 L 124.0 154.5 L 127.5 152.5 L 131.5 150.5 L 135.0 149.5 L 137.5 149.0 L 139.5 149.5 L 140.0 151.0 L 140.0 153.5 L 140.0 157.0 L 139.0 161.0 L 137.5 164.5 L 136.5 166.5 L 135.5 167.0 " stroke="black" fill="none" stroke-width="6.0" stroke-linecap="round" stroke-linejoin="round" />
<path d="M 127.0 171.0 L 126.5 171.0 L 125.0 171.0 L 124.5 171.5 L 125.0 171.5 L 127.0 171.5 L 130.0 170.5 L 133.0 169.0 L 134.5 168.0 " stroke="black" fill="none" stroke-width="6.0" stroke-linecap="round" stroke-linejoin="round" />
<path d="M 150.0 110.5 L 150.0 110.5 L 149.5 111.0 L 149.0 111.5 L 149.0 112.5 L 149.0 115.0 L 149.5 119.0 L 150.0 122.5 L 150.5 124.5 L 150.5 124.5 " stroke="black" fill="none" stroke-width="6.0" stroke-linecap="round" stroke-linejoin="round" />
<path d="M 148.0 111.0 L 148.0 110.5 L 147.0 110.5 L 146.5 110.5 L 146.5 110.0 L 148.0 109.0 L 151.5 108.0 L 155.5 107.5 L 161.0 106.5 L 166.5 106.5 L 171.5 106.5 L 173.5 108.0 L 174.0 109.5 L 174.0 110.5 L 173.0 112.5 L 172.0 115.5 L 171.0 119.0 L 170.5 121.5 L 170.0 124.0 L 169.5 125.0 L 169.5 125.5 " stroke="black" fill="none" stroke-width="6.0" stroke-linecap="round" stroke-linejoin="round" />
<path d="M 155.0 117.0 L 155.0 118.0 L 155.0 119.0 L 155.0 119.5 L 155.5 120.0 L 158.0 120.0 L 161.0 119.5 L 163.5 118.5 L 165.0 118.0 " stroke="black" fill="none" stroke-width="6.0" stroke-linecap="round" stroke-linejoin="round" />
<path d="M 160.5 109.5 L 160.5 110.0 L 160.5 110.5 L 160.5 111.5 L 160.5 113.5 L 160.5 117.0 L 160.5 121.0 L 160.5 124.5 L 160.0 126.5 " stroke="black" fill="none" stroke-width="6.0" stroke-linecap="round" stroke-linejoin="round" />
<path d="M 151.5 131.0 L 151.5 131.5 L 151.5 132.0 L 152.0 132.0 L 155.0 131.5 L 158.5 130.5 L 163.0 129.5 L 166.0 129.0 L 167.0 129.0 " stroke="black" fill="none" stroke-width="6.0" stroke-linecap="round" stroke-linejoin="round" />
<path d="M 151.0 140.5 L 151.5 140.5 L 152.0 140.5 L 152.0 142.5 L 152.0 148.5 L 151.5 158.5 L 151.0 167.0 L 151.0 171.0 L 151.0 171.5 L 151.0 170.0 " stroke="black" fill="none" stroke-width="6.0" stroke-linecap="round" stroke-linejoin="round" />
<path d="M 151.5 143.5 L 151.5 143.0 L 152.0 142.5 L 152.0 142.5 L 153.0 142.0 L 155.0 141.0 L 158.0 140.0 L 162.0 139.5 L 165.0 139.0 L 167.0 139.5 L 168.0 141.0 L 168.5 142.5 L 168.5 144.5 L 169.0 147.5 L 169.5 151.0 L 170.0 155.5 L 170.5 161.5 L 170.5 167.0 L 170.5 172.5 L 170.0 177.0 L 169.0 179.0 L 167.5 179.5 L 166.0 179.5 L 164.5 177.5 L 163.5 175.0 L 163.0 174.0 " stroke="black" fill="none" stroke-width="6.0" stroke-linecap="round" stroke-linejoin="round" />
<path d="M 160.0 150.5 L 160.0 150.5 L 160.0 150.5 L 160.0 150.5 L 160.5 150.5 L 161.0 150.5 L 161.5 151.0 L 162.0 152.0 L 162.0 152.0 " stroke="black" fill="none" stroke-width="6.0" stroke-linecap="round" stroke-linejoin="round" />
<path d="M 154.5 162.0 L 155.5 162.5 L 155.5 162.5 L 157.0 162.5 L 159.0 162.0 L 162.0 160.0 L 165.0 157.5 L 165.5 157.0 " stroke="black" fill="none" stroke-width="6.0" stroke-linecap="round" stroke-linejoin="round" />
</svg>