<svg xmlns="http://www.w3.org/2000/svg" width="300" height="300" viewBox="0 0 300 300">
<path d="M 113.5 102.5 L 113.5 102.5 L 113.5 102.5 L 113.0 102.5 L 113.0 103.0 L 113.5 106.0 L 115.5 111.0 L 118.0 114.5 L 119.5 116.0 L 120.5 116.0 " stroke="black" fill="none" stroke-width="7.0" stroke-linecap="round" stroke-linejoin="round" />
<path d="M 108.0 127.5 L 108.0 128.0 L 108.0 128.5 L 108.0 128.5 L 111.0 128.0 L 115.5 127.0 L 119.5 126.0 L 122.5 125.5 L 123.5 125.5 L 124.0 125.5 " stroke="black" fill="none" stroke-width="7.0" stroke-linecap="round" stroke-linejoin="round" />
<path d="M 111.5 140.5 L 111.5 141.0 L 111.5 141.0 L 113.0 141.0 L 116.0 140.5 L 119.5 139.5 L 121.5 139.0 L 122.5 139.0 " stroke="black" fill="none" stroke-width="7.0" stroke-linecap="round" stroke-linejoin="round" />
<path d="M 110.0 157.0 L 110.5 157.5 L 111.0 158.0 L 112.0 158.0 L 114.5 158.0 L 118.0 157.0 L 121.0 156.5 L 123.0 156.0 " stroke="black" fill="none" stroke-width="7.0" stroke-linecap="round" stroke-linejoin="round" />
<path d="M 113.5 173.0 L 113.5 172.5 L 113.5 172.0 L 113.5 171.5 L 114.0 171.5 L 114.5 174.5 L 115.0 179.5 L 115.5 188.0 " stroke="black" fill="none" stroke-width="7.0" stroke-linecap="round" stroke-linejoin="round" />
<path d="M 112.0 176.5 L 112.5 176.5 L 112.5 176.5 L 113.5 175.5 L 115.0 174.0 L 117.0 173.0 L 119.5 172.5 L 122.0 172.0 L 124.5 172.5 L 126.0 174.0 L 127.5 175.5 L 127.5 177.5 L 127.5 180.0 L 126.5 183.5 L 125.5 187.0 L 125.0 189.5 L 124.5 190.0 " stroke="black" fill="none" stroke-width="7.0" stroke-linecap="round" stroke-linejoin="round" />
<path d="M 115.0 195.5 L 114.5 195.5 L 114.5 195.5 L 114.0 195.5 L 115.5 195.0 L 119.0 194.0 L 123.0 193.5 L 126.5 193.0 L 128.5 193.0 " stroke="black" fill="none" stroke-width="7.0" stroke-linecap="round" stroke-linejoin="round" />
<path d="M 146.5 104.5 L 146.5 104.0 L 146.5 103.5 L 146.5 102.5 L 146.5 102.0 L 146.5 101.5 L 146.5 101.5 L 146.0 103.0 L 144.5 107.0 L 142.0 113.0 L 139.0 119.5 L 137.0 125.0 L 136.0 127.5 L 136.0 127.5 L 136.5 127.0 L 138.5 125.5 L 141.0 124.0 L 143.5 122.5 L 146.0 121.5 L 148.0 120.5 L 149.0 119.5 L 149.5 119.5 L 149.5 120.5 L 148.5 122.5 L 147.5 124.5 L 146.0 127.5 L 144.0 131.0 L 141.5 136.0 L 139.5 141.0 L 138.0 144.0 L 137.0 146.0 L 136.0 147.5 L 136.0 148.0 L 136.0 148.5 L 136.5 148.0 L 137.5 147.0 L 139.0 146.0 L 141.0 144.5 L 142.5 143.5 L 144.0 142.0 L 145.5 141.0 L 147.0 140.0 L 147.5 139.0 L 148.5 139.0 L 149.0 138.5 L 150.0 138.5 L 150.5 138.5 L 150.5 138.0 L 151.0 138.0 L 151.0 138.0 L 151.0 138.0 L 151.0 137.5 L 151.0 137.5 L 151.0 137.5 L 151.0 137.5 L 151.0 137.5 L 151.0 137.5 L 151.0 137.5 L 151.0 137.5 L 151.0 138.5 L 151.5 141.0 L 152.5 144.0 L 154.0 146.5 L 154.5 148.0 " stroke="black" fill="none" stroke-width="7.0" stroke-linecap="round" stroke-linejoin="round" />
<path d="M 173.5 102.5 L 173.5 102.5 L 174.0 102.0 L 174.5 101.5 L 174.5 101.0 L 175.0 100.5 L 175.0 100.5 L 174.5 102.5 L 173.0 106.0 L 171.0 110.5 L 168.0 116.0 L 166.5 120.5 L 166.0 121.5 L 166.0 121.0 L 167.5 119.5 L 169.5 118.0 L 171.0 116.5 L 173.0 115.5 L 174.5 115.0 L 176.0 115.0 L 177.0 114.5 L 178.0 114.5 L 178.5 115.5 L 178.5 116.0 L 178.5 117.0 L 178.0 118.0 L 176.5 119.5 L 175.0 121.5 L 173.0 124.5 L 171.0 128.0 L 169.0 132.0 L 167.0 135.5 L 166.0 138.5 L 165.0 141.0 L 165.0 142.5 L 164.5 143.0 L 164.5 143.0 L 164.5 143.0 L 165.5 142.5 L 167.0 141.0 L 168.5 139.5 L 170.0 138.0 L 171.5 136.5 L 173.0 135.5 L 174.5 135.0 L 175.5 134.5 L 176.0 134.5 L 176.5 135.0 L 176.5 135.0 L 176.5 135.5 L 176.5 135.5 L 176.5 135.5 L 176.5 136.0 L 176.5 136.0 L 176.5 136.5 L 177.0 137.0 L 178.0 138.5 L 179.5 141.5 L 182.0 144.5 L 184.0 147.0 L 185.5 148.5 L 185.5 148.5 L 185.5 148.0 " stroke="black" fill="none" stroke-width="7.0" stroke-linecap="round" stroke-linejoin="round" />
<path d="M 132.5 157.5 L 132.5 157.5 L 133.0 157.5 L 133.5 157.5 L 134.0 157.0 L 134.0 157.0 L 134.5 157.0 L 135.0 157.0 L 137.5 157.0 L 142.5 158.0 L 152.5 159.0 L 165.5 159.5 L 176.0 159.5 L 183.5 159.5 L 188.0 159.5 L 189.5 161.0 L 189.0 162.0 L 188.5 162.0 " stroke="black" fill="none" stroke-width="7.0" stroke-linecap="round" stroke-linejoin="round" />
<path d="M 157.5 100.5 L 157.5 100.5 L 157.5 101.0 L 158.0 101.5 L 158.5 104.0 L 159.5 110.0 L 161.5 122.0 L 164.0 140.0 L 168.0 160.0 L 171.5 176.0 L 175.0 185.5 L 178.5 193.5 L 182.0 200.0 L 185.0 203.5 L 186.0 203.5 L 187.0 202.0 L 188.0 200.5 L 188.5 199.0 L 189.0 198.5 L 189.5 197.5 L 189.5 197.0 " stroke="black" fill="none" stroke-width="7.0" stroke-linecap="round" stroke-linejoin="round" />
<path d="M 181.0 176.5 L 181.0 176.5 L 181.0 176.5 L 181.5 176.5 L 181.5 176.5 L 181.5 176.0 L 181.5 176.0 L 180.5 178.0 L 176.0 185.0 L 169.5 193.5 L 165.5 197.0 L 164.5 195.5 L 164.5 194.5 " stroke="black" fill="none" stroke-width="7.0" stroke-linecap="round" stroke-linejoin="round" />
<path d="M 173.5 148.5 L 173.5 148.5 L 173.5 148.5 L 173.5 148.5 L 173.5 149.0 L 174.0 150.5 L 175.5 151.5 " stroke="black" fill="none" stroke-width="7.0" stroke-linecap="round" stroke-linejoin="round" />
<path d="M 148.5 166.5 L 148.5 166.5 L 148.0 165.5 L 148.0 165.0 L 148.0 164.5 L 148.0 164.0 L 148.5 164.0 L 148.5 166.0 L 148.5 170.0 L 147.5 175.5 L 145.5 182.0 L 143.5 187.0 L 142.0 189.5 L 141.5 189.5 L 141.5 188.5 L 141.5 187.5 " stroke="black" fill="none" stroke-width="7.0" stroke-linecap="round" stroke-linejoin="round" />
<path d="M 149.5 178.5 L 149.5 178.5 L 149.0 179.0 L 149.0 179.0 L 150.0 179.0 L 153.0 179.0 L 155.5 180.0 L 157.0 181.0 L 157.5 181.0 " stroke="black" fill="none" stroke-width="7.0" stroke-linecap="round" stroke-linejoin="round" />
</svg>