<svg xmlns="http://www.w3.org/2000/svg" width="300" height="300" viewBox="0 0 300 300">
<path d="M 111.5 106.0 L 111.5 105.5 L 111.5 105.0 L 111.5 104.5 L 111.5 104.5 L 113.0 105.0 L 115.0 107.0 L 117.0 109.0 L 118.0 110.5 L 119.0 111.5 " stroke="black" fill="none" stroke-width="7.0" stroke-linecap="round" stroke-linejoin="round" />
<path d="M 107.5 122.5 L 107.5 122.5 L 107.5 122.0 L 107.5 122.0 L 109.5 122.0 L 113.0 122.5 L 116.5 122.5 L 120.0 122.0 L 121.0 121.5 " stroke="black" fill="none" stroke-width="7.0" stroke-linecap="round" stroke-linejoin="round" />
<path d="M 109.5 134.5 L 109.0 135.5 L 108.5 136.0 L 108.0 136.0 L 109.0 136.0 L 111.5 135.5 L 114.0 135.0 L 116.5 134.5 L 119.0 134.0 L 119.5 134.0 " stroke="black" fill="none" stroke-width="7.0" stroke-linecap="round" stroke-linejoin="round" />
<path d="M 108.0 151.0 L 108.0 151.0 L 108.5 151.0 L 108.5 151.0 L 109.5 151.0 L 112.0 151.0 L 114.5 151.0 L 118.0 150.5 L 120.0 150.5 " stroke="black" fill="none" stroke-width="7.0" stroke-linecap="round" stroke-linejoin="round" />
<path d="M 110.5 163.5 L 110.5 163.0 L 110.5 162.0 L 110.5 161.5 L 110.5 161.5 L 110.5 163.0 L 111.5 168.5 L 112.5 174.5 L 113.0 180.0 L 113.5 182.0 " stroke="black" fill="none" stroke-width="7.0" stroke-linecap="round" stroke-linejoin="round" />
<path d="M 110.5 167.5 L 110.5 167.5 L 110.5 167.5 L 110.0 167.5 L 110.0 167.5 L 111.5 167.0 L 114.5 165.0 L 117.5 163.5 L 120.0 163.0 L 122.0 163.0 L 123.0 165.5 L 123.5 169.0 L 123.5 173.0 L 123.0 176.0 L 122.5 177.5 L 122.5 178.0 " stroke="black" fill="none" stroke-width="7.0" stroke-linecap="round" stroke-linejoin="round" />
<path d="M 114.0 183.5 L 114.0 183.5 L 113.5 183.5 L 113.5 183.5 L 114.5 183.5 L 118.0 183.5 L 122.5 182.0 L 123.5 181.5 " stroke="black" fill="none" stroke-width="7.0" stroke-linecap="round" stroke-linejoin="round" />
<path d="M 136.5 101.0 L 137.0 101.0 L 137.5 101.0 L 138.0 101.0 L 139.5 101.5 L 141.0 102.5 L 143.0 104.0 L 144.0 104.5 " stroke="black" fill="none" stroke-width="7.0" stroke-linecap="round" stroke-linejoin="round" />
<path d="M 132.5 114.5 L 132.5 115.0 L 132.5 115.5 L 132.0 115.5 L 132.0 115.5 L 132.0 115.5 L 134.0 115.5 L 138.0 115.5 L 143.5 115.0 L 149.0 114.5 L 151.5 114.5 L 152.0 114.5 " stroke="black" fill="none" stroke-width="7.0" stroke-linecap="round" stroke-linejoin="round" />
<path d="M 137.0 122.5 L 137.0 122.5 L 137.0 122.5 L 137.0 122.5 L 137.5 124.0 L 138.5 126.5 L 139.5 128.0 " stroke="black" fill="none" stroke-width="7.0" stroke-linecap="round" stroke-linejoin="round" />
<path d="M 149.0 121.5 L 148.5 122.0 L 148.0 122.0 L 148.0 122.5 L 148.0 124.0 L 148.5 126.0 L 148.5 128.5 L 148.5 129.0 " stroke="black" fill="none" stroke-width="7.0" stroke-linecap="round" stroke-linejoin="round" />
<path d="M 133.5 134.0 L 133.5 134.0 L 133.0 135.0 L 132.5 135.5 L 132.0 136.0 L 132.0 136.0 L 132.5 136.0 L 134.5 136.0 L 137.0 135.5 L 142.0 135.5 L 148.5 135.5 L 156.0 135.5 L 162.5 136.0 L 168.0 136.5 L 171.0 136.5 L 172.5 137.0 L 173.0 137.0 L 173.5 137.0 L 173.5 137.0 L 173.5 137.0 L 174.0 137.0 L 174.0 137.0 L 174.5 137.0 L 174.5 137.5 L 175.0 137.5 L 175.0 137.5 L 175.5 137.5 L 175.5 137.5 L 176.0 137.5 L 176.5 137.5 L 176.5 137.5 L 177.0 137.5 L 177.5 137.0 L 177.5 137.0 L 178.0 137.0 L 178.0 137.0 L 178.0 137.0 L 178.0 137.0 L 178.0 137.0 L 178.0 137.0 L 178.0 137.0 L 178.0 137.0 L 178.0 137.0 L 178.0 137.0 L 178.0 137.0 L 178.0 137.0 " stroke="black" fill="none" stroke-width="7.0" stroke-linecap="round" stroke-linejoin="round" />
<path d="M 162.5 109.0 L 162.5 109.0 L 162.5 109.0 L 162.5 108.5 L 162.5 108.5 L 162.5 108.5 L 162.5 110.0 L 162.5 116.0 L 163.0 129.5 L 164.5 146.5 L 166.5 162.0 L 169.5 174.0 L 172.5 180.5 L 174.0 183.5 L 175.0 184.0 L 176.0 184.0 L 177.0 183.0 L 178.5 181.0 L 179.5 178.0 L 180.0 175.5 L 180.5 173.5 L 180.5 172.5 " stroke="black" fill="none" stroke-width="7.0" stroke-linecap="round" stroke-linejoin="round" />
<path d="M 176.0 152.5 L 176.0 152.0 L 176.5 151.5 L 176.5 151.0 L 176.5 151.0 L 176.5 151.0 L 175.0 153.0 L 172.0 158.0 L 167.0 166.0 L 161.5 173.5 L 158.5 176.0 L 157.0 175.0 L 156.5 173.5 " stroke="black" fill="none" stroke-width="7.0" stroke-linecap="round" stroke-linejoin="round" />
<path d="M 173.5 118.0 L 173.5 117.5 L 173.5 117.0 L 173.5 116.5 L 173.5 116.5 L 174.5 117.5 L 176.0 119.5 L 177.0 121.5 L 177.0 121.5 " stroke="black" fill="none" stroke-width="7.0" stroke-linecap="round" stroke-linejoin="round" />
<path d="M 137.0 151.0 L 137.0 151.0 L 137.5 151.0 L 137.5 151.0 L 138.0 151.0 L 138.0 154.0 L 138.0 160.5 L 138.0 167.5 L 138.5 170.0 L 138.5 169.0 " stroke="black" fill="none" stroke-width="7.0" stroke-linecap="round" stroke-linejoin="round" />
<path d="M 137.0 149.5 L 136.5 149.5 L 136.0 150.0 L 136.0 150.0 L 136.0 150.0 L 138.5 150.0 L 142.0 149.5 L 145.0 148.5 L 147.5 148.0 L 149.0 148.0 L 149.5 150.0 L 149.5 154.0 L 149.5 159.0 L 149.0 163.0 L 149.0 165.5 L 149.0 167.0 L 149.0 167.5 " stroke="black" fill="none" stroke-width="7.0" stroke-linecap="round" stroke-linejoin="round" />
<path d="M 139.0 161.0 L 139.0 161.0 L 139.0 161.5 L 139.0 161.5 L 139.0 161.5 L 140.5 161.5 L 143.5 161.0 L 146.0 160.0 " stroke="black" fill="none" stroke-width="7.0" stroke-linecap="round" stroke-linejoin="round" />
<path d="M 138.5 172.5 L 138.5 172.5 L 139.0 172.5 L 139.0 172.5 L 140.5 172.5 L 143.0 172.5 L 146.5 171.5 " stroke="black" fill="none" stroke-width="7.0" stroke-linecap="round" stroke-linejoin="round" />
</svg>