<svg xmlns="http://www.w3.org/2000/svg" width="300" height="300" viewBox="0 0 300 300">
<path d="M 149.0 79.0 L 148.5 78.0 L 148.5 77.5 L 148.5 79.0 L 148.5 85.5 L 149.0 97.0 L 149.0 108.0 L 149.0 113.0 L 149.5 113.0 " stroke="black" fill="none" stroke-width="10.0" stroke-linecap="round" stroke-linejoin="round" />
<path d="M 156.0 93.5 L 155.5 93.5 L 154.5 93.5 L 154.0 93.5 L 156.0 93.5 L 163.0 92.0 L 172.0 90.0 L 182.5 89.5 L 190.5 90.0 L 192.0 91.5 L 192.5 92.0 " stroke="black" fill="none" stroke-width="10.0" stroke-linecap="round" stroke-linejoin="round" />
<path d="M 117.0 122.5 L 116.5 122.0 L 116.5 122.0 L 117.0 124.0 L 119.0 130.0 L 121.0 142.5 L 122.0 160.5 L 122.0 178.0 L 121.0 191.5 L 119.0 200.0 L 118.0 204.0 L 118.0 204.5 L 118.0 203.0 " stroke="black" fill="none" stroke-width="10.0" stroke-linecap="round" stroke-linejoin="round" />
<path d="M 127.0 124.5 L 126.0 124.5 L 125.0 124.5 L 125.0 124.5 L 126.5 124.5 L 130.0 124.0 L 138.0 123.0 L 150.0 122.5 L 167.0 122.0 L 181.0 123.0 L 190.0 125.0 L 195.5 127.5 L 198.5 129.0 L 199.0 130.0 L 199.0 132.0 L 198.5 134.5 L 198.0 139.0 L 197.0 145.5 L 195.0 155.5 L 193.5 168.5 L 192.5 183.5 L 192.5 196.0 L 193.0 202.0 L 193.5 204.5 L 193.5 202.5 L 193.5 201.0 " stroke="black" fill="none" stroke-width="10.0" stroke-linecap="round" stroke-linejoin="round" />
<path d="M 136.5 145.5 L 136.5 145.5 L 136.0 145.0 L 136.5 145.0 L 141.5 145.0 L 150.5 145.0 L 165.5 145.5 L 178.5 145.5 L 188.0 145.5 L 190.5 148.0 L 190.0 149.0 " stroke="black" fill="none" stroke-width="10.0" stroke-linecap="round" stroke-linejoin="round" />
<path d="M 132.5 172.0 L 132.0 172.5 L 132.0 173.0 L 133.5 173.5 L 139.5 173.5 L 149.0 173.5 L 160.0 173.5 L 169.5 173.0 L 172.0 173.0 " stroke="black" fill="none" stroke-width="10.0" stroke-linecap="round" stroke-linejoin="round" />
<path d="M 125.0 214.0 L 124.5 214.0 L 124.0 214.0 L 126.0 213.0 L 134.5 210.5 L 149.0 207.5 L 166.5 207.0 L 178.5 207.0 L 186.5 208.5 L 188.0 209.0 " stroke="black" fill="none" stroke-width="10.0" stroke-linecap="round" stroke-linejoin="round" />
<path d="M 136.5 222.5 L 136.5 222.5 L 137.0 223.0 L 137.5 223.0 L 137.5 224.0 L 136.0 225.5 L 132.5 229.0 L 127.0 233.0 L 121.0 237.0 L 117.5 239.5 L 117.5 239.5 " stroke="black" fill="none" stroke-width="10.0" stroke-linecap="round" stroke-linejoin="round" />
<path d="M 173.0 223.0 L 173.0 223.0 L 173.0 223.5 L 176.0 224.5 L 184.0 228.5 L 192.0 234.5 L 196.5 238.5 L 198.5 239.5 " stroke="black" fill="none" stroke-width="10.0" stroke-linecap="round" stroke-linejoin="round" />
</svg>