<svg xmlns="http://www.w3.org/2000/svg" width="300" height="300" viewBox="0 0 300 300">
<path d="M 124.0 113.0 L 123.0 113.0 L 121.5 114.0 L 120.5 114.0 L 120.5 114.0 L 120.5 114.0 L 121.5 114.0 L 123.0 113.5 L 125.0 113.0 L 128.0 112.0 L 131.0 111.5 L 134.0 111.0 L 136.5 111.0 L 138.5 111.0 L 139.0 111.0 L 139.0 111.5 L 139.0 112.5 L 138.0 114.0 L 137.0 116.5 L 135.5 119.0 L 133.5 122.5 L 132.5 124.5 L 132.0 125.5 L 132.0 125.5 " stroke="black" fill="none" stroke-width="7.0" stroke-linecap="round" stroke-linejoin="round" />
<path d="M 124.5 123.5 L 123.0 123.0 L 122.0 123.0 L 122.5 123.0 L 125.5 125.0 L 128.5 127.0 L 131.5 128.0 L 134.0 129.0 L 135.0 129.5 " stroke="black" fill="none" stroke-width="7.0" stroke-linecap="round" stroke-linejoin="round" />
<path d="M 115.5 136.5 L 115.0 136.5 L 113.5 137.0 L 112.5 137.0 L 113.0 137.5 L 116.5 137.5 L 122.0 137.5 L 128.5 137.0 L 141.5 135.0 L 144.5 135.0 L 145.0 136.0 L 145.0 137.5 L 145.0 138.5 L 145.0 139.5 L 145.0 140.5 L 144.5 142.5 L 143.0 145.0 L 142.0 146.5 L 141.5 147.0 " stroke="black" fill="none" stroke-width="7.0" stroke-linecap="round" stroke-linejoin="round" />
<path d="M 127.5 147.0 L 127.5 147.0 L 127.5 147.0 L 127.5 146.5 L 127.0 146.5 L 127.0 146.0 L 127.0 146.0 L 127.0 146.0 L 127.0 146.5 L 127.5 149.5 L 128.5 157.0 L 130.5 170.0 L 131.5 183.0 L 132.0 191.5 L 131.5 196.5 L 130.5 198.5 L 129.5 198.5 L 127.0 198.0 L 123.5 197.0 L 120.5 195.5 L 118.0 195.0 L 117.0 194.5 L 116.5 194.0 L 116.5 194.0 " stroke="black" fill="none" stroke-width="7.0" stroke-linecap="round" stroke-linejoin="round" />
<path d="M 158.5 110.0 L 158.5 110.0 L 158.5 110.5 L 158.0 111.0 L 157.5 112.0 L 156.5 115.5 L 154.5 121.0 L 152.5 125.0 L 152.0 126.5 L 152.0 126.5 " stroke="black" fill="none" stroke-width="7.0" stroke-linecap="round" stroke-linejoin="round" />
<path d="M 156.5 120.5 L 155.5 120.5 L 153.5 120.5 L 153.5 121.0 L 155.0 121.5 L 158.5 121.5 L 163.0 120.5 L 168.0 119.5 L 173.0 118.5 L 177.0 117.5 L 178.5 117.5 L 178.5 117.5 L 178.5 118.5 L 178.5 120.0 L 177.5 123.0 L 176.0 127.0 L 174.5 130.5 L 174.0 132.0 L 174.0 132.0 " stroke="black" fill="none" stroke-width="7.0" stroke-linecap="round" stroke-linejoin="round" />
<path d="M 156.0 136.5 L 156.0 136.0 L 155.5 136.0 L 155.5 136.5 L 155.5 141.0 L 156.0 146.5 L 157.0 150.5 L 157.0 151.5 L 157.0 151.5 " stroke="black" fill="none" stroke-width="7.0" stroke-linecap="round" stroke-linejoin="round" />
<path d="M 157.5 138.0 L 156.0 138.0 L 156.0 137.0 L 159.0 136.0 L 163.5 135.0 L 169.5 134.0 L 176.0 133.5 L 182.5 133.5 L 187.0 133.5 L 188.5 134.0 L 189.0 135.0 L 188.5 137.0 L 187.5 139.0 L 186.0 142.5 L 184.5 146.5 L 182.5 149.5 L 181.0 151.5 L 180.5 152.0 " stroke="black" fill="none" stroke-width="7.0" stroke-linecap="round" stroke-linejoin="round" />
<path d="M 171.5 138.0 L 171.5 138.0 L 171.0 138.0 L 170.5 137.5 L 170.0 138.5 L 170.0 141.0 L 170.5 144.5 L 170.5 147.0 L 170.5 148.0 " stroke="black" fill="none" stroke-width="7.0" stroke-linecap="round" stroke-linejoin="round" />
<path d="M 162.5 150.5 L 162.5 151.5 L 161.5 152.0 L 162.0 152.0 L 164.5 151.5 L 168.0 150.5 L 171.5 149.5 L 174.5 149.0 " stroke="black" fill="none" stroke-width="7.0" stroke-linecap="round" stroke-linejoin="round" />
<path d="M 170.0 151.0 L 170.0 151.5 L 170.0 152.0 L 170.0 152.5 L 169.5 153.0 L 168.5 154.5 L 165.0 159.0 L 159.0 164.0 L 152.0 167.0 L 148.0 168.0 L 147.5 167.5 L 149.5 166.5 " stroke="black" fill="none" stroke-width="7.0" stroke-linecap="round" stroke-linejoin="round" />
<path d="M 167.0 159.0 L 167.0 159.0 L 166.5 158.5 L 166.0 158.5 L 166.0 158.5 L 167.0 158.5 L 170.0 161.0 L 173.0 165.5 L 176.5 173.5 L 177.5 182.5 L 177.0 190.5 L 174.0 195.5 L 169.5 199.5 L 164.0 201.0 L 159.0 200.0 L 156.0 197.5 L 155.0 195.5 " stroke="black" fill="none" stroke-width="7.0" stroke-linecap="round" stroke-linejoin="round" />
<path d="M 169.0 167.5 L 169.0 167.5 L 168.5 167.5 L 168.0 168.0 L 166.0 170.0 L 162.0 173.5 L 157.5 176.5 L 154.0 178.0 L 154.0 178.5 " stroke="black" fill="none" stroke-width="7.0" stroke-linecap="round" stroke-linejoin="round" />
<path d="M 173.5 176.5 L 173.5 177.0 L 173.0 178.5 L 172.0 180.0 L 170.5 182.5 L 167.5 185.0 L 165.0 186.5 L 163.5 187.0 " stroke="black" fill="none" stroke-width="7.0" stroke-linecap="round" stroke-linejoin="round" />
<path d="M 190.5 161.0 L 190.5 161.0 L 189.5 161.0 L 189.5 161.0 L 188.5 161.0 L 186.5 163.0 L 184.5 165.0 L 183.5 166.0 " stroke="black" fill="none" stroke-width="7.0" stroke-linecap="round" stroke-linejoin="round" />
<path d="M 183.0 168.5 L 181.5 169.0 L 181.0 170.0 L 183.0 172.0 L 187.5 175.5 L 193.0 180.0 L 198.5 184.0 L 203.0 186.0 L 205.5 186.5 " stroke="black" fill="none" stroke-width="7.0" stroke-linecap="round" stroke-linejoin="round" />
</svg>