<svg xmlns="http://www.w3.org/2000/svg" width="300" height="300" viewBox="0 0 300 300">
<path d="M 119.5 117.5 L 120.0 117.5 L 120.5 116.5 L 120.5 116.0 L 121.0 116.0 L 121.5 119.0 L 122.0 125.0 L 122.0 132.5 L 122.0 138.0 L 122.0 139.0 L 122.0 139.0 " stroke="black" fill="none" stroke-width="6.0" stroke-linecap="round" stroke-linejoin="round" />
<path d="M 119.0 121.0 L 118.5 121.5 L 118.5 121.5 L 119.0 121.5 L 121.5 119.5 L 125.0 117.0 L 128.0 115.5 L 130.5 114.5 L 132.5 114.0 L 133.0 114.5 L 134.0 116.5 L 134.0 119.5 L 134.0 123.5 L 133.0 128.0 L 132.5 132.0 L 131.5 134.5 L 131.0 135.5 " stroke="black" fill="none" stroke-width="6.0" stroke-linecap="round" stroke-linejoin="round" />
<path d="M 124.0 139.5 L 123.0 139.5 L 122.0 140.5 L 122.0 140.5 L 124.0 140.0 L 127.5 138.5 L 130.0 137.5 L 132.0 136.0 " stroke="black" fill="none" stroke-width="6.0" stroke-linecap="round" stroke-linejoin="round" />
<path d="M 130.5 144.0 L 131.0 143.5 L 131.5 143.5 L 131.5 143.5 L 131.5 144.0 L 132.0 149.5 L 132.5 157.0 L 132.0 164.0 L 131.5 167.0 L 130.5 167.5 " stroke="black" fill="none" stroke-width="6.0" stroke-linecap="round" stroke-linejoin="round" />
<path d="M 131.5 159.0 L 131.5 159.5 L 132.0 160.0 L 133.0 160.0 L 134.5 159.0 L 137.0 157.5 L 139.0 156.5 L 140.0 156.0 " stroke="black" fill="none" stroke-width="6.0" stroke-linecap="round" stroke-linejoin="round" />
<path d="M 122.5 155.5 L 122.5 155.5 L 122.0 156.0 L 122.0 156.0 L 122.0 157.0 L 122.0 159.5 L 122.0 165.0 L 122.0 172.5 L 121.5 178.5 L 121.5 180.5 " stroke="black" fill="none" stroke-width="6.0" stroke-linecap="round" stroke-linejoin="round" />
<path d="M 119.5 179.0 L 119.0 179.5 L 118.5 180.5 L 118.5 180.5 L 119.0 180.5 L 122.0 179.5 L 126.5 177.0 L 131.5 174.0 L 136.5 171.0 L 138.0 169.5 " stroke="black" fill="none" stroke-width="6.0" stroke-linecap="round" stroke-linejoin="round" />
<path d="M 148.0 109.0 L 147.5 109.5 L 147.0 110.5 L 147.0 110.5 L 148.5 110.5 L 151.0 109.5 L 154.5 108.5 L 157.0 107.5 L 159.5 107.0 L 161.0 106.5 L 162.0 106.5 L 162.5 108.0 L 162.5 111.0 L 161.0 115.0 L 159.5 119.5 L 158.5 123.0 L 158.0 124.5 L 158.0 125.0 " stroke="black" fill="none" stroke-width="6.0" stroke-linecap="round" stroke-linejoin="round" />
<path d="M 150.5 124.0 L 150.0 124.0 L 149.5 124.5 L 150.0 124.5 L 152.5 125.0 L 156.5 126.0 L 160.5 126.5 L 164.0 127.5 L 164.5 127.5 " stroke="black" fill="none" stroke-width="6.0" stroke-linecap="round" stroke-linejoin="round" />
<path d="M 148.5 138.0 L 148.5 137.5 L 149.0 137.0 L 149.0 137.0 L 149.5 138.5 L 150.0 144.5 L 150.0 155.0 L 149.0 167.0 L 148.5 173.5 L 148.5 174.5 L 148.5 173.0 L 148.5 172.0 " stroke="black" fill="none" stroke-width="6.0" stroke-linecap="round" stroke-linejoin="round" />
<path d="M 154.5 135.5 L 154.5 136.5 L 154.5 137.5 L 154.0 137.5 L 154.5 138.0 L 156.5 138.0 L 160.0 137.5 L 164.0 136.0 L 167.5 134.5 L 170.5 134.0 L 173.0 133.5 L 174.5 133.5 L 176.0 134.5 L 177.0 136.0 L 177.5 139.0 L 178.5 143.5 L 179.0 151.0 L 179.0 160.0 L 178.0 169.0 L 177.0 176.5 L 176.0 181.0 L 175.0 183.5 L 174.5 183.5 L 173.0 182.5 L 171.5 179.0 " stroke="black" fill="none" stroke-width="6.0" stroke-linecap="round" stroke-linejoin="round" />
<path d="M 155.0 151.5 L 155.0 151.5 L 154.5 152.0 L 154.5 152.0 L 155.5 152.0 L 160.5 151.5 L 166.0 150.0 L 171.0 148.5 L 173.0 148.0 L 173.5 148.5 " stroke="black" fill="none" stroke-width="6.0" stroke-linecap="round" stroke-linejoin="round" />
<path d="M 153.5 163.5 L 153.5 163.5 L 153.5 163.5 L 154.5 163.5 L 158.0 163.0 L 164.5 162.0 L 170.5 161.0 L 173.5 160.0 " stroke="black" fill="none" stroke-width="6.0" stroke-linecap="round" stroke-linejoin="round" />
<path d="M 163.5 139.5 L 163.5 140.0 L 163.5 141.0 L 163.5 142.0 L 163.5 144.5 L 164.0 150.5 L 164.0 162.5 L 163.0 174.5 L 162.5 179.5 L 162.5 180.0 " stroke="black" fill="none" stroke-width="6.0" stroke-linecap="round" stroke-linejoin="round" />
</svg>