<svg xmlns="http://www.w3.org/2000/svg" width="300" height="300" viewBox="0 0 300 300">
<path d="M 114.5 120.0 L 114.5 119.5 L 114.5 118.5 L 114.5 118.0 L 114.5 118.5 L 115.5 122.5 L 116.0 128.0 L 116.5 134.0 L 116.5 139.5 L 116.5 142.5 L 116.5 143.0 " stroke="black" fill="none" stroke-width="8.0" stroke-linecap="round" stroke-linejoin="round" />
<path d="M 116.0 121.5 L 115.0 120.5 L 114.5 120.0 L 114.5 119.5 L 115.5 119.0 L 119.0 117.5 L 123.5 115.5 L 128.5 114.5 L 133.0 114.0 L 135.5 114.5 L 136.0 116.0 L 136.0 117.0 L 136.0 118.0 L 135.0 119.5 L 133.5 123.0 L 132.5 127.0 L 132.0 131.0 L 132.0 133.5 L 132.0 134.5 L 132.0 134.0 " stroke="black" fill="none" stroke-width="8.0" stroke-linecap="round" stroke-linejoin="round" />
<path d="M 118.5 143.0 L 117.5 143.5 L 116.5 143.5 L 116.0 144.0 L 117.5 143.5 L 122.5 142.0 L 127.0 139.5 L 131.5 138.0 L 133.0 138.0 " stroke="black" fill="none" stroke-width="8.0" stroke-linecap="round" stroke-linejoin="round" />
<path d="M 127.5 147.0 L 128.0 147.0 L 128.0 146.5 L 128.5 147.5 L 128.5 152.5 L 128.5 160.0 L 128.5 166.5 L 128.5 169.0 L 128.5 169.0 " stroke="black" fill="none" stroke-width="8.0" stroke-linecap="round" stroke-linejoin="round" />
<path d="M 127.0 163.5 L 127.0 163.0 L 126.5 162.5 L 126.5 162.0 L 128.5 160.5 L 131.0 158.0 L 134.0 156.5 L 135.0 156.0 " stroke="black" fill="none" stroke-width="8.0" stroke-linecap="round" stroke-linejoin="round" />
<path d="M 115.0 154.5 L 116.0 154.5 L 117.0 155.0 L 117.0 156.0 L 117.0 159.5 L 117.0 165.0 L 116.0 172.0 L 115.0 179.0 L 115.0 182.5 L 115.0 183.5 " stroke="black" fill="none" stroke-width="8.0" stroke-linecap="round" stroke-linejoin="round" />
<path d="M 107.5 190.5 L 107.0 190.5 L 106.5 190.5 L 107.0 190.5 L 112.5 187.0 L 123.0 181.5 L 133.5 176.0 L 139.5 173.0 L 141.5 171.0 " stroke="black" fill="none" stroke-width="8.0" stroke-linecap="round" stroke-linejoin="round" />
<path d="M 150.0 108.5 L 149.5 109.5 L 149.0 109.5 L 149.0 109.5 L 149.0 109.5 L 149.5 109.5 L 151.0 109.0 L 152.5 109.0 L 155.0 108.5 L 157.0 108.5 L 159.0 108.5 L 160.5 108.5 L 161.5 108.5 L 162.5 108.5 L 163.5 108.5 L 164.0 108.5 L 164.5 108.5 L 165.0 108.5 L 165.0 108.5 L 165.0 108.5 L 165.0 108.5 L 165.0 108.5 L 165.0 108.5 L 165.0 108.5 L 165.0 108.5 L 165.0 109.0 L 165.0 109.5 L 164.5 111.0 L 164.5 112.5 L 164.5 114.5 L 164.0 117.5 L 164.0 120.5 L 164.0 124.0 L 164.5 127.0 L 164.5 129.0 L 164.5 130.5 L 164.5 132.5 L 164.5 134.0 L 164.5 135.5 L 164.5 136.5 L 164.5 138.0 L 164.5 139.0 L 164.0 139.5 L 163.5 140.5 L 163.0 141.0 L 162.5 141.5 L 161.5 141.5 L 160.5 142.0 L 159.0 143.0 L 157.5 143.5 L 156.5 144.0 L 155.5 143.5 L 155.0 142.0 " stroke="black" fill="none" stroke-width="8.0" stroke-linecap="round" stroke-linejoin="round" />
<path d="M 149.5 120.5 L 149.0 120.0 L 148.5 120.0 L 148.5 120.0 L 149.5 120.0 L 151.0 120.0 L 152.0 121.0 " stroke="black" fill="none" stroke-width="8.0" stroke-linecap="round" stroke-linejoin="round" />
<path d="M 149.5 133.0 L 149.0 134.0 L 148.5 134.5 L 148.5 134.5 L 149.0 133.5 L 151.0 132.5 L 153.0 131.0 L 154.5 130.0 " stroke="black" fill="none" stroke-width="8.0" stroke-linecap="round" stroke-linejoin="round" />
<path d="M 175.5 109.5 L 175.5 110.5 L 175.0 111.0 L 175.0 111.0 L 175.0 110.5 L 176.0 110.5 L 177.5 110.0 L 179.0 110.0 L 180.0 110.5 L 181.0 110.5 L 182.0 110.5 L 182.5 110.5 L 183.0 110.5 L 183.0 110.0 L 183.0 110.0 L 183.0 110.0 L 183.0 110.0 L 182.5 110.5 L 182.5 111.0 L 182.0 112.5 L 182.0 114.5 L 182.0 117.0 L 182.0 120.0 L 182.5 123.5 L 182.5 127.0 L 182.5 131.0 L 183.0 135.0 L 183.0 137.5 L 183.0 140.5 L 183.0 143.0 L 183.0 145.5 L 183.0 146.5 L 183.0 146.5 L 182.5 146.5 L 181.5 145.5 L 180.0 145.0 L 179.0 145.0 L 178.0 145.0 L 178.0 145.0 " stroke="black" fill="none" stroke-width="8.0" stroke-linecap="round" stroke-linejoin="round" />
<path d="M 172.0 124.0 L 172.0 124.0 L 172.0 124.0 L 172.0 123.5 L 172.0 123.5 L 172.5 123.5 L 173.0 124.0 " stroke="black" fill="none" stroke-width="8.0" stroke-linecap="round" stroke-linejoin="round" />
<path d="M 173.5 136.0 L 173.5 136.5 L 173.5 136.5 L 173.5 136.5 L 173.5 136.5 L 175.0 135.5 L 177.0 134.0 L 177.5 133.5 " stroke="black" fill="none" stroke-width="8.0" stroke-linecap="round" stroke-linejoin="round" />
<path d="M 157.5 154.5 L 158.0 155.0 L 158.5 155.0 L 159.0 155.0 L 159.0 155.0 L 159.0 155.0 L 158.5 155.0 L 157.5 156.0 L 155.5 158.0 L 153.0 160.5 L 150.5 163.0 L 148.0 165.0 L 147.0 165.5 L 147.0 166.0 L 148.0 165.0 L 149.0 164.0 " stroke="black" fill="none" stroke-width="8.0" stroke-linecap="round" stroke-linejoin="round" />
<path d="M 153.0 163.0 L 153.0 163.0 L 153.0 162.0 L 153.0 161.5 L 153.0 161.5 L 153.0 161.5 L 153.0 164.0 L 153.0 169.0 L 153.5 176.5 L 153.5 185.0 L 153.0 192.5 L 153.0 197.5 L 153.0 198.5 L 153.0 198.0 L 153.5 196.0 " stroke="black" fill="none" stroke-width="8.0" stroke-linecap="round" stroke-linejoin="round" />
<path d="M 169.5 155.0 L 169.5 155.0 L 169.5 155.0 L 169.5 155.0 L 169.5 155.0 L 169.5 155.0 L 169.5 155.5 L 169.5 156.5 L 170.0 158.5 L 170.5 160.0 L 170.5 160.5 " stroke="black" fill="none" stroke-width="8.0" stroke-linecap="round" stroke-linejoin="round" />
<path d="M 163.0 167.5 L 162.0 167.5 L 161.5 167.5 L 161.0 167.5 L 162.5 167.5 L 165.5 167.0 L 169.0 166.0 L 172.0 165.0 L 173.5 164.5 L 175.0 165.0 " stroke="black" fill="none" stroke-width="8.0" stroke-linecap="round" stroke-linejoin="round" />
<path d="M 165.5 177.5 L 165.0 178.0 L 164.5 179.0 L 164.0 179.5 L 164.0 180.0 L 165.0 180.0 L 167.0 179.0 L 169.5 178.5 L 171.5 178.0 L 173.5 177.5 L 174.5 177.0 " stroke="black" fill="none" stroke-width="8.0" stroke-linecap="round" stroke-linejoin="round" />
<path d="M 164.0 189.0 L 164.0 189.0 L 164.0 189.0 L 164.5 188.5 L 166.5 188.5 L 169.5 187.5 L 172.5 186.5 L 173.5 186.5 " stroke="black" fill="none" stroke-width="8.0" stroke-linecap="round" stroke-linejoin="round" />
<path d="M 170.5 168.5 L 169.5 169.0 L 169.0 169.5 L 168.5 170.5 L 168.5 173.0 L 168.5 178.0 L 169.0 184.5 L 169.0 191.5 L 168.0 196.5 L 168.0 198.5 " stroke="black" fill="none" stroke-width="8.0" stroke-linecap="round" stroke-linejoin="round" />
<path d="M 163.0 202.0 L 163.0 202.0 L 162.0 202.0 L 161.5 202.0 L 161.5 202.0 L 162.5 202.0 L 165.0 201.5 L 169.0 201.0 L 173.5 201.0 L 174.5 200.5 " stroke="black" fill="none" stroke-width="8.0" stroke-linecap="round" stroke-linejoin="round" />
</svg>