<svg xmlns="http://www.w3.org/2000/svg" width="300" height="300" viewBox="0 0 300 300">
<path d="M 129.0 105.5 L 129.0 105.5 L 128.0 105.5 L 127.5 105.0 L 128.5 104.5 L 130.5 104.5 L 132.5 104.5 L 134.0 104.5 L 137.0 104.5 L 142.0 104.0 L 148.0 104.0 L 154.5 104.0 L 161.5 103.5 L 167.0 103.0 L 171.0 102.0 L 174.0 102.0 L 175.5 102.0 L 176.5 102.0 L 176.5 102.0 L 176.5 102.0 L 176.5 102.0 L 177.0 102.0 L 177.5 101.5 L 178.0 101.5 L 179.5 101.0 L 181.0 101.0 L 182.5 101.0 L 183.0 101.0 L 183.0 101.0 L 183.0 101.0 L 183.0 101.0 L 183.0 101.0 L 183.0 101.0 L 183.0 101.0 L 183.0 101.0 L 183.0 101.0 L 182.5 101.0 L 182.0 101.0 " stroke="black" fill="none" stroke-width="7.0" stroke-linecap="round" stroke-linejoin="round" />
<path d="M 126.5 107.0 L 125.5 107.0 L 125.0 107.0 L 125.0 106.5 L 125.0 107.0 L 125.5 109.0 L 125.5 112.0 L 125.5 116.0 L 125.5 121.5 L 125.0 127.0 L 124.0 132.5 L 123.5 136.5 L 122.5 139.5 L 121.5 141.5 L 121.0 143.5 L 120.5 144.5 L 120.0 145.0 L 120.0 145.0 L 119.5 145.0 L 119.0 145.0 L 118.5 146.0 L 118.0 147.0 L 117.5 147.5 L 117.0 148.0 L 116.5 148.5 L 116.0 149.0 L 115.5 149.0 L 115.5 149.0 " stroke="black" fill="none" stroke-width="7.0" stroke-linecap="round" stroke-linejoin="round" />
<path d="M 135.0 117.0 L 135.0 117.0 L 134.5 117.0 L 134.0 117.0 L 134.0 117.0 L 134.0 117.0 L 134.0 117.0 L 135.5 117.0 L 138.0 117.0 L 141.5 117.0 L 148.0 117.0 L 157.0 116.0 L 166.0 114.0 L 172.5 113.0 L 175.0 113.0 L 174.5 115.0 L 174.0 116.0 " stroke="black" fill="none" stroke-width="7.0" stroke-linecap="round" stroke-linejoin="round" />
<path d="M 129.5 130.0 L 128.5 129.5 L 127.5 129.0 L 127.5 129.0 L 130.5 130.0 L 136.0 130.0 L 144.5 130.0 L 154.5 129.5 L 165.0 128.0 L 172.5 126.5 L 173.5 126.5 L 172.5 127.5 L 172.0 127.5 " stroke="black" fill="none" stroke-width="7.0" stroke-linecap="round" stroke-linejoin="round" />
<path d="M 139.5 136.5 L 139.5 136.0 L 139.5 134.5 L 139.5 133.5 L 140.0 132.5 L 140.5 133.5 L 140.5 137.5 L 140.5 144.0 L 140.0 150.0 L 139.5 154.0 L 139.0 156.0 L 139.0 156.0 L 140.0 154.5 L 142.0 153.0 L 144.5 151.0 L 147.0 149.0 L 149.0 147.5 " stroke="black" fill="none" stroke-width="7.0" stroke-linecap="round" stroke-linejoin="round" />
<path d="M 171.0 136.5 L 170.0 137.5 L 169.5 138.5 L 168.5 139.5 L 167.5 140.5 L 166.0 142.0 L 164.0 143.5 L 163.0 144.5 " stroke="black" fill="none" stroke-width="7.0" stroke-linecap="round" stroke-linejoin="round" />
<path d="M 153.0 136.5 L 153.0 136.5 L 153.0 136.5 L 153.5 136.5 L 155.0 138.5 L 158.5 143.5 L 163.5 149.5 L 168.5 152.5 L 174.5 153.0 L 179.0 153.0 " stroke="black" fill="none" stroke-width="7.0" stroke-linecap="round" stroke-linejoin="round" />
<path d="M 124.0 168.5 L 123.5 168.5 L 122.5 168.5 L 122.0 168.0 L 122.0 168.0 L 124.5 167.5 L 130.0 167.5 L 139.0 167.0 L 152.0 167.0 L 166.0 165.0 L 176.5 162.5 L 183.0 162.0 L 184.5 162.5 L 184.5 163.0 L 184.0 162.5 " stroke="black" fill="none" stroke-width="7.0" stroke-linecap="round" stroke-linejoin="round" />
<path d="M 165.5 157.5 L 165.0 157.5 L 164.0 157.5 L 164.0 157.5 L 163.5 159.0 L 164.0 161.5 L 164.5 166.5 L 165.0 172.5 L 165.0 181.0 L 164.5 188.0 L 164.5 193.0 L 164.5 197.0 L 164.5 200.0 L 164.0 202.5 L 164.0 205.0 L 163.0 206.0 L 161.5 206.0 L 158.0 206.0 L 153.5 205.5 L 149.0 204.5 L 148.0 204.5 " stroke="black" fill="none" stroke-width="7.0" stroke-linecap="round" stroke-linejoin="round" />
<path d="M 135.5 181.5 L 135.5 181.5 L 135.5 181.5 L 136.0 182.0 L 138.5 184.5 L 142.0 187.5 L 145.0 190.0 L 146.0 191.0 " stroke="black" fill="none" stroke-width="7.0" stroke-linecap="round" stroke-linejoin="round" />
</svg>