<svg xmlns="http://www.w3.org/2000/svg" width="300" height="300" viewBox="0 0 300 300">
<path d="M 120.0 84.0 L 120.0 84.0 L 119.5 84.0 L 119.5 84.0 L 119.5 84.0 L 120.5 84.0 L 122.5 84.0 L 126.5 84.5 L 133.5 85.0 L 144.0 85.5 L 155.0 85.5 L 166.5 84.0 L 177.5 83.0 L 188.0 82.5 L 196.5 82.5 L 204.0 82.0 L 211.0 81.5 L 217.0 81.0 L 220.5 80.5 L 221.5 80.5 L 221.5 81.0 L 221.0 81.0 L 221.0 81.0 L 221.0 81.0 L 221.0 81.0 L 221.0 81.0 L 221.0 81.0 L 221.0 81.0 L 221.0 81.0 L 221.0 81.0 L 221.0 81.0 L 221.0 81.0 L 220.5 81.0 " stroke="black" fill="none" stroke-width="10.0" stroke-linecap="round" stroke-linejoin="round" />
<path d="M 150.0 97.0 L 149.0 97.0 L 148.5 97.0 L 147.5 97.0 L 146.5 98.5 L 142.5 102.0 L 134.5 108.5 L 124.5 116.0 L 116.5 120.5 L 111.0 123.5 L 111.0 123.0 L 113.0 121.0 " stroke="black" fill="none" stroke-width="10.0" stroke-linecap="round" stroke-linejoin="round" />
<path d="M 206.0 99.5 L 206.0 99.5 L 205.5 99.0 L 205.5 99.0 L 209.5 102.0 L 216.0 105.5 L 224.0 110.0 L 231.0 113.0 L 235.0 113.5 L 235.5 113.5 " stroke="black" fill="none" stroke-width="10.0" stroke-linecap="round" stroke-linejoin="round" />
<path d="M 130.5 127.5 L 130.5 128.0 L 130.0 128.5 L 130.0 129.0 L 130.0 130.5 L 130.0 133.0 L 130.0 137.0 L 130.0 142.0 L 130.0 147.0 L 130.0 153.0 L 130.0 160.0 L 130.0 167.5 L 130.0 174.5 L 130.0 181.5 L 130.0 187.5 L 129.5 192.5 L 129.5 198.0 L 129.5 202.5 L 129.5 207.0 L 129.5 209.5 L 129.5 211.5 L 129.5 213.0 L 129.5 215.0 L 129.5 216.5 L 129.5 218.0 L 130.0 219.5 L 130.0 220.5 L 130.0 222.0 L 130.5 223.0 L 130.5 224.5 L 130.5 225.0 L 130.5 225.5 L 130.5 225.5 L 130.5 225.5 L 130.5 225.5 L 130.5 224.5 " stroke="black" fill="none" stroke-width="10.0" stroke-linecap="round" stroke-linejoin="round" />
<path d="M 136.0 122.0 L 136.0 122.0 L 136.0 122.0 L 136.0 121.5 L 136.0 121.5 L 136.5 121.5 L 137.0 121.5 L 138.5 121.5 L 140.0 122.0 L 143.0 122.5 L 147.5 122.5 L 152.5 122.5 L 158.5 122.5 L 164.5 122.5 L 170.5 121.5 L 176.0 121.5 L 181.5 121.0 L 187.0 121.0 L 190.5 121.5 L 194.0 121.5 L 196.5 122.0 L 199.0 122.0 L 202.5 122.0 L 205.5 122.0 L 208.5 121.5 L 211.0 121.5 L 213.5 121.0 L 215.5 121.0 L 217.5 120.5 L 218.5 120.5 L 219.0 120.5 L 219.0 120.5 L 219.0 120.5 L 219.0 120.5 L 219.5 120.5 L 219.5 120.5 L 220.0 120.5 L 220.0 121.0 L 220.5 121.0 L 220.5 121.0 L 220.5 121.0 L 220.5 121.5 L 220.5 121.5 L 220.5 122.0 L 221.0 122.5 L 221.0 123.5 L 221.0 124.5 L 221.0 126.0 L 221.5 128.5 L 222.0 131.0 L 222.5 134.0 L 223.0 137.0 L 223.0 140.0 L 223.5 143.5 L 224.0 146.5 L 224.0 149.5 L 224.0 152.5 L 224.0 155.0 L 224.0 158.0 L 224.5 161.0 L 224.5 163.5 L 225.0 167.0 L 225.0 170.5 L 225.0 173.5 L 225.0 176.5 L 225.5 179.0 L 225.5 181.0 L 225.5 184.0 L 225.5 187.5 L 225.5 191.0 L 225.5 194.0 L 225.5 196.5 L 225.5 199.0 L 225.5 201.5 L 225.5 204.0 L 225.5 206.0 L 225.0 208.0 L 225.0 209.5 L 224.5 211.0 L 224.0 212.5 L 224.0 214.5 L 223.5 215.5 L 223.5 216.5 L 223.0 217.5 L 223.0 218.0 L 222.5 219.0 L 222.0 219.5 L 221.5 220.0 L 220.0 220.0 L 218.0 220.0 L 215.5 220.0 L 213.5 220.0 L 211.0 220.0 L 209.5 219.0 " stroke="black" fill="none" stroke-width="10.0" stroke-linecap="round" stroke-linejoin="round" />
<path d="M 144.0 140.0 L 144.0 140.0 L 144.0 140.0 L 144.0 139.5 L 144.5 141.0 L 147.5 144.5 L 153.0 150.0 L 159.0 155.5 L 163.0 159.0 L 164.5 160.5 L 165.5 161.0 L 165.5 161.0 " stroke="black" fill="none" stroke-width="10.0" stroke-linecap="round" stroke-linejoin="round" />
<path d="M 158.0 136.5 L 158.0 136.5 L 158.0 137.5 L 158.0 138.0 L 157.5 139.0 L 156.5 141.0 L 153.0 146.0 L 148.5 153.0 L 145.0 158.0 L 143.0 160.0 L 143.0 160.5 " stroke="black" fill="none" stroke-width="10.0" stroke-linecap="round" stroke-linejoin="round" />
<path d="M 142.5 186.5 L 142.5 186.0 L 142.5 186.0 L 143.5 186.0 L 146.5 188.0 L 151.0 191.5 L 156.5 197.0 L 161.0 201.0 L 163.0 201.5 L 163.0 201.5 " stroke="black" fill="none" stroke-width="10.0" stroke-linecap="round" stroke-linejoin="round" />
<path d="M 157.5 179.0 L 157.5 180.0 L 156.5 182.5 L 153.5 186.5 L 149.5 193.0 L 144.0 200.5 L 140.0 206.0 L 138.5 207.0 L 138.5 207.0 " stroke="black" fill="none" stroke-width="10.0" stroke-linecap="round" stroke-linejoin="round" />
<path d="M 190.5 138.5 L 190.0 139.0 L 189.5 140.0 L 191.0 142.0 L 196.0 145.0 L 203.5 148.5 L 210.5 150.5 L 214.5 150.5 L 215.0 150.5 " stroke="black" fill="none" stroke-width="10.0" stroke-linecap="round" stroke-linejoin="round" />
<path d="M 211.0 133.0 L 210.5 133.0 L 209.0 134.0 L 207.5 136.0 L 205.0 140.0 L 201.5 147.0 L 196.5 155.0 L 191.5 161.0 L 189.0 163.5 L 188.5 164.5 " stroke="black" fill="none" stroke-width="10.0" stroke-linecap="round" stroke-linejoin="round" />
<path d="M 195.0 185.0 L 195.0 185.0 L 196.0 185.5 L 200.0 187.5 L 206.0 191.5 L 212.0 195.0 L 215.0 196.5 L 216.0 196.5 L 216.5 196.5 " stroke="black" fill="none" stroke-width="10.0" stroke-linecap="round" stroke-linejoin="round" />
<path d="M 214.0 180.0 L 214.0 180.0 L 213.0 181.0 L 212.0 183.0 L 210.0 186.5 L 206.0 193.0 L 200.0 200.5 L 195.0 205.0 L 193.0 206.0 L 193.0 205.5 " stroke="black" fill="none" stroke-width="10.0" stroke-linecap="round" stroke-linejoin="round" />
<path d="M 175.5 90.0 L 176.0 91.0 L 176.0 91.5 L 176.5 92.5 L 176.5 94.0 L 177.0 97.5 L 177.5 102.0 L 178.0 108.5 L 178.0 115.5 L 178.5 123.0 L 178.5 130.0 L 178.5 138.0 L 179.0 144.5 L 180.0 149.5 L 180.5 155.0 L 180.5 160.5 L 181.0 166.0 L 181.0 170.5 L 181.0 174.0 L 181.0 177.5 L 181.0 180.5 L 181.0 184.0 L 181.0 187.0 L 181.0 190.5 L 181.0 193.0 L 181.0 195.5 L 181.0 198.5 L 181.0 201.5 L 181.0 204.5 L 181.0 208.0 L 181.0 211.5 L 181.0 214.5 L 181.0 217.5 L 181.0 219.5 L 181.0 220.5 L 181.0 221.0 L 181.0 220.5 L 181.0 219.5 L 180.5 217.5 " stroke="black" fill="none" stroke-width="10.0" stroke-linecap="round" stroke-linejoin="round" />
<path d="M 79.0 81.0 L 79.0 81.0 L 78.0 81.0 L 78.0 81.0 L 78.0 81.0 L 78.0 81.0 L 78.5 82.5 L 81.5 88.0 L 86.0 96.0 L 90.0 101.5 L 91.5 102.5 L 91.5 102.0 L 91.5 102.0 " stroke="black" fill="none" stroke-width="10.0" stroke-linecap="round" stroke-linejoin="round" />
<path d="M 84.0 122.5 L 83.0 122.5 L 82.5 122.5 L 82.5 122.5 L 82.0 122.5 L 82.5 122.5 L 83.0 122.0 L 84.0 122.0 L 86.0 121.5 L 88.0 121.5 L 90.0 121.5 L 92.5 122.0 L 94.0 122.5 L 95.5 123.0 L 96.0 123.5 L 96.5 124.5 L 97.0 125.5 L 97.0 127.0 L 97.5 129.0 L 98.0 132.0 L 98.0 135.0 L 98.0 138.0 L 97.5 141.5 L 96.0 145.5 L 95.0 149.0 L 93.0 152.5 L 91.5 155.5 L 89.0 159.0 L 86.5 163.0 L 84.5 166.5 L 83.5 168.0 L 83.5 168.0 L 83.5 168.0 L 84.0 167.0 L 84.5 166.5 L 85.0 166.0 L 86.0 165.5 L 87.5 164.5 L 89.5 164.0 L 92.0 163.0 L 95.0 162.5 L 98.0 162.5 L 100.5 162.5 L 102.5 163.5 L 104.0 164.0 L 105.0 165.0 L 106.0 166.0 L 106.5 167.5 L 107.0 168.5 L 107.0 169.5 L 107.0 170.5 L 107.0 171.5 L 107.0 173.5 L 106.5 175.5 L 106.0 178.5 L 105.5 182.0 L 104.5 185.5 L 103.5 189.0 L 103.0 193.0 L 102.0 197.0 L 100.5 201.0 L 99.0 204.5 L 97.0 208.0 L 95.0 212.0 L 92.5 215.5 L 90.0 218.5 L 87.5 221.5 L 85.5 223.5 L 84.5 225.0 L 83.5 225.5 L 83.0 225.5 L 82.0 226.5 L 81.0 227.5 L 80.0 228.5 L 79.0 229.5 L 78.0 230.0 L 78.0 230.5 L 77.5 230.5 L 77.5 230.5 L 77.5 230.5 L 77.0 231.0 L 76.5 231.0 L 76.0 231.0 L 76.0 231.5 L 75.5 231.5 L 75.5 231.5 L 75.5 231.5 L 75.5 231.5 L 75.5 231.5 L 75.5 231.5 L 75.5 231.5 L 75.5 231.5 L 75.5 231.5 L 75.5 231.0 L 76.0 231.0 L 76.0 230.5 L 76.5 230.5 L 77.0 230.0 L 77.0 230.0 L 78.0 229.5 L 78.5 229.0 L 79.0 229.0 L 80.0 228.5 L 81.0 228.0 L 82.5 227.5 L 84.0 227.0 L 86.0 226.5 L 87.5 226.0 L 88.5 226.0 L 89.5 226.0 L 90.5 226.0 L 91.0 226.5 L 92.5 227.5 L 93.5 228.5 L 94.5 230.0 L 95.5 231.0 L 97.0 232.5 L 98.5 234.0 L 100.0 236.0 L 102.0 237.5 L 104.5 239.0 L 107.0 240.5 L 109.5 241.5 L 113.0 242.0 L 116.5 243.0 L 120.5 244.0 L 125.0 244.5 L 129.5 245.0 L 134.5 245.0 L 140.0 245.5 L 146.0 245.5 L 152.0 245.5 L 159.0 245.5 L 166.5 245.5 L 173.0 245.5 L 179.5 245.5 L 186.0 246.0 L 191.5 246.0 L 194.5 246.0 L 202.5 246.0 L 207.5 246.0 L 212.0 246.0 L 216.5 246.0 L 220.5 245.0 L 225.0 245.0 L 228.0 244.5 L 229.5 244.5 L 230.0 244.5 L 230.0 244.5 L 230.0 244.5 L 229.5 244.5 L 229.5 244.5 L 229.5 244.5 L 229.5 244.5 L 229.5 244.5 L 229.5 244.5 " stroke="black" fill="none" stroke-width="10.0" stroke-linecap="round" stroke-linejoin="round" />
</svg>