<svg xmlns="http://www.w3.org/2000/svg" width="300" height="300" viewBox="0 0 300 300">
<path d="M 150.0 90.5 L 149.5 90.5 L 149.0 90.5 L 149.0 92.5 L 150.0 102.0 L 150.5 118.0 L 151.0 130.0 L 151.5 133.0 L 152.0 131.5 " stroke="black" fill="none" stroke-width="9.0" stroke-linecap="round" stroke-linejoin="round" />
<path d="M 153.0 96.5 L 152.5 96.0 L 152.0 96.0 L 152.0 95.5 L 155.0 94.0 L 161.5 92.0 L 169.5 90.0 L 179.5 89.5 L 189.0 89.5 L 194.0 91.0 L 195.5 94.5 L 196.5 102.0 L 196.5 111.0 L 196.5 120.0 L 196.0 126.5 L 195.5 129.5 L 195.5 130.5 L 195.5 130.0 " stroke="black" fill="none" stroke-width="9.0" stroke-linecap="round" stroke-linejoin="round" />
<path d="M 171.5 116.0 L 170.5 115.5 L 169.5 114.5 L 169.5 114.0 L 170.0 115.0 L 171.5 119.0 L 172.5 125.0 L 173.5 129.5 L 174.0 131.0 " stroke="black" fill="none" stroke-width="9.0" stroke-linecap="round" stroke-linejoin="round" />
<path d="M 173.0 117.0 L 172.5 116.5 L 171.5 116.5 L 171.5 116.0 L 173.5 116.0 L 177.5 115.5 L 182.0 114.5 L 186.5 113.0 L 189.0 113.0 L 190.0 113.0 " stroke="black" fill="none" stroke-width="9.0" stroke-linecap="round" stroke-linejoin="round" />
<path d="M 148.5 141.5 L 148.5 141.5 L 147.5 141.0 L 147.5 141.5 L 148.0 146.0 L 149.0 157.0 L 149.0 171.0 L 148.5 182.0 L 148.0 186.5 L 149.0 184.5 " stroke="black" fill="none" stroke-width="9.0" stroke-linecap="round" stroke-linejoin="round" />
<path d="M 150.5 142.0 L 150.0 141.5 L 149.0 141.0 L 149.0 141.0 L 150.0 140.5 L 153.5 140.0 L 160.0 139.5 L 170.0 138.5 L 183.5 137.0 L 195.5 137.0 L 203.0 139.0 L 207.5 142.0 L 210.0 144.5 L 212.0 148.0 L 214.0 152.5 L 216.5 158.5 L 219.0 165.5 L 221.0 172.5 L 222.5 180.5 L 223.5 188.5 L 223.5 196.0 L 223.0 202.5 L 221.5 207.0 L 218.5 209.5 L 213.0 210.0 L 207.5 208.5 L 203.5 206.5 " stroke="black" fill="none" stroke-width="9.0" stroke-linecap="round" stroke-linejoin="round" />
<path d="M 171.0 164.0 L 171.0 162.5 L 171.0 162.0 L 171.0 165.0 L 172.5 171.0 L 173.5 178.5 L 175.0 183.0 L 175.0 184.0 " stroke="black" fill="none" stroke-width="9.0" stroke-linecap="round" stroke-linejoin="round" />
<path d="M 174.5 169.5 L 173.5 168.0 L 173.0 167.0 L 174.0 164.5 L 178.0 162.5 L 182.0 160.5 L 186.0 160.5 L 188.0 162.5 L 189.0 167.0 L 189.0 173.5 L 188.5 180.0 L 187.5 184.5 L 186.5 186.0 L 185.5 186.0 " stroke="black" fill="none" stroke-width="9.0" stroke-linecap="round" stroke-linejoin="round" />
<path d="M 177.5 186.5 L 177.0 186.5 L 176.5 185.5 L 177.0 185.5 L 180.0 185.0 L 184.0 184.5 L 187.5 183.0 L 188.5 181.5 " stroke="black" fill="none" stroke-width="9.0" stroke-linecap="round" stroke-linejoin="round" />
<path d="M 107.5 101.0 L 107.0 101.0 L 105.5 101.0 L 105.5 102.5 L 107.0 105.5 L 110.5 108.5 L 113.5 111.0 L 115.5 113.5 L 116.5 114.5 " stroke="black" fill="none" stroke-width="9.0" stroke-linecap="round" stroke-linejoin="round" />
<path d="M 103.5 136.5 L 101.5 136.5 L 101.5 136.0 L 102.5 134.5 L 106.5 132.5 L 112.5 130.0 L 119.0 128.0 L 124.0 128.0 L 125.0 129.5 L 124.5 133.5 L 122.5 140.5 L 118.5 149.0 L 114.0 158.0 L 111.0 164.5 L 110.0 167.5 L 110.5 168.0 L 112.0 167.5 L 115.5 166.5 L 119.5 165.0 L 123.0 164.0 L 125.0 164.5 L 126.0 167.0 L 126.5 171.5 L 126.0 178.5 L 124.0 188.0 L 121.0 197.5 L 117.0 206.0 L 112.0 213.5 L 108.0 218.5 L 105.5 221.5 L 104.0 223.0 L 103.5 223.5 L 103.5 223.5 L 103.5 223.5 L 103.5 223.0 L 103.5 222.0 L 104.5 220.5 L 106.5 219.0 L 110.5 217.5 L 116.5 216.0 L 125.0 215.5 L 134.0 215.5 L 144.5 216.5 L 156.0 218.0 L 168.0 219.0 L 180.0 220.5 L 192.0 222.0 L 202.0 224.0 L 212.0 224.0 L 218.0 222.0 " stroke="black" fill="none" stroke-width="9.0" stroke-linecap="round" stroke-linejoin="round" />
</svg>