<svg xmlns="http://www.w3.org/2000/svg" width="300" height="300" viewBox="0 0 300 300">
<path d="M 156.0 94.0 L 156.0 94.0 L 156.0 94.0 L 156.0 94.0 L 157.5 95.0 L 161.0 98.0 L 164.0 101.5 L 166.0 103.5 L 166.5 104.0 " stroke="black" fill="none" stroke-width="7.0" stroke-linecap="round" stroke-linejoin="round" />
<path d="M 144.0 110.5 L 144.0 110.5 L 144.0 110.5 L 145.5 110.5 L 151.5 110.5 L 163.0 110.0 L 173.0 109.0 L 179.5 108.0 L 181.0 107.5 L 180.0 107.5 " stroke="black" fill="none" stroke-width="7.0" stroke-linecap="round" stroke-linejoin="round" />
<path d="M 151.5 119.0 L 151.5 119.0 L 151.0 119.0 L 151.0 119.0 L 152.5 120.5 L 155.0 122.5 L 157.5 124.0 L 158.5 124.0 " stroke="black" fill="none" stroke-width="7.0" stroke-linecap="round" stroke-linejoin="round" />
<path d="M 171.5 119.0 L 171.5 119.0 L 171.0 119.0 L 171.0 119.0 L 170.5 119.0 L 170.5 120.0 L 170.0 121.0 L 170.0 122.0 " stroke="black" fill="none" stroke-width="7.0" stroke-linecap="round" stroke-linejoin="round" />
<path d="M 148.5 135.0 L 148.0 135.0 L 148.0 134.5 L 148.0 134.5 L 148.0 134.5 L 148.5 137.0 L 149.5 143.5 L 150.5 155.0 L 150.5 166.5 L 151.0 172.0 L 151.0 171.5 L 151.0 170.0 " stroke="black" fill="none" stroke-width="7.0" stroke-linecap="round" stroke-linejoin="round" />
<path d="M 155.0 132.0 L 155.0 132.0 L 154.5 132.5 L 154.5 132.5 L 155.0 132.5 L 157.5 132.0 L 162.0 131.0 L 168.5 129.0 L 176.0 127.5 L 183.0 127.0 L 188.0 127.5 L 189.5 128.5 L 190.0 129.5 L 189.5 130.5 L 189.5 131.0 L 189.0 132.0 L 189.0 133.5 L 189.0 135.0 L 188.5 137.0 L 188.5 140.0 L 188.0 145.5 L 188.0 153.5 L 188.0 163.0 L 188.5 171.0 L 188.5 177.0 L 189.0 181.0 L 189.0 182.5 L 188.5 182.5 L 186.0 181.0 L 182.5 178.5 L 180.0 176.5 L 179.5 176.5 " stroke="black" fill="none" stroke-width="7.0" stroke-linecap="round" stroke-linejoin="round" />
<path d="M 162.5 142.5 L 162.5 142.5 L 162.5 141.5 L 163.0 141.0 L 165.0 141.0 L 168.0 141.0 L 170.5 141.0 L 171.5 140.5 " stroke="black" fill="none" stroke-width="7.0" stroke-linecap="round" stroke-linejoin="round" />
<path d="M 169.5 133.0 L 168.5 133.5 L 168.0 134.5 L 168.0 136.5 L 168.5 141.0 L 169.5 146.5 L 169.5 150.5 L 169.5 151.5 " stroke="black" fill="none" stroke-width="7.0" stroke-linecap="round" stroke-linejoin="round" />
<path d="M 163.5 157.0 L 163.5 157.0 L 163.0 156.5 L 163.0 156.5 L 163.5 158.0 L 164.5 161.5 L 165.5 165.0 L 166.0 168.0 L 166.5 169.5 " stroke="black" fill="none" stroke-width="7.0" stroke-linecap="round" stroke-linejoin="round" />
<path d="M 166.5 156.5 L 166.0 156.5 L 165.0 157.0 L 164.5 157.0 L 165.0 157.0 L 166.5 157.0 L 168.5 157.0 L 170.5 156.5 L 172.0 156.0 L 173.0 156.0 L 174.0 156.0 L 175.0 156.0 L 175.0 156.5 L 175.5 158.0 L 175.5 160.0 L 175.5 163.0 L 175.0 165.5 L 174.5 167.5 L 174.0 168.0 " stroke="black" fill="none" stroke-width="7.0" stroke-linecap="round" stroke-linejoin="round" />
<path d="M 168.5 171.0 L 168.0 170.5 L 167.5 170.0 L 167.5 169.5 L 169.5 169.0 L 172.0 169.0 L 173.5 169.0 " stroke="black" fill="none" stroke-width="7.0" stroke-linecap="round" stroke-linejoin="round" />
<path d="M 124.0 107.0 L 123.5 107.0 L 123.5 107.0 L 123.5 107.0 L 125.5 108.0 L 127.5 110.0 L 129.0 111.5 L 130.5 113.5 L 130.5 114.5 " stroke="black" fill="none" stroke-width="7.0" stroke-linecap="round" stroke-linejoin="round" />
<path d="M 125.5 126.5 L 124.0 126.5 L 124.0 127.0 L 125.5 127.5 L 129.0 129.0 L 132.5 131.0 L 134.5 133.5 L 134.5 136.5 L 133.5 140.0 L 131.5 142.0 L 130.0 143.5 L 130.0 144.5 L 130.5 147.5 L 132.0 152.0 L 133.5 158.0 L 133.5 166.0 L 131.0 173.5 L 128.0 177.0 L 125.0 178.5 L 123.5 178.0 L 122.5 177.0 L 122.5 176.5 L 122.5 176.0 L 122.5 176.0 L 122.5 176.0 L 122.5 176.0 L 122.5 176.0 L 122.5 176.0 L 123.0 176.0 L 123.5 175.5 L 124.0 175.5 L 125.5 175.5 L 129.5 176.5 L 139.0 180.0 L 154.5 184.5 L 171.0 187.5 L 186.0 189.0 L 197.5 192.0 L 206.5 194.0 L 209.5 194.0 " stroke="black" fill="none" stroke-width="7.0" stroke-linecap="round" stroke-linejoin="round" />
</svg>