<svg xmlns="http://www.w3.org/2000/svg" width="300" height="300" viewBox="0 0 300 300">
<path d="M 155.5 104.0 L 156.0 104.0 L 156.0 103.5 L 156.0 103.5 L 156.5 103.0 L 156.5 103.5 L 154.5 105.5 L 151.5 110.5 L 147.5 116.5 L 145.5 120.0 L 145.5 120.5 " stroke="black" fill="none" stroke-width="6.0" stroke-linecap="round" stroke-linejoin="round" />
<path d="M 153.0 110.5 L 152.5 111.5 L 152.5 112.5 L 152.5 112.5 L 153.5 112.0 L 156.0 111.0 L 161.0 109.5 L 166.5 108.5 L 171.5 108.0 L 174.5 108.0 L 175.5 108.5 L 175.5 109.5 L 174.5 111.0 L 172.0 113.5 L 168.5 118.0 L 162.5 124.5 L 155.5 131.5 L 149.0 137.0 L 144.0 140.5 L 141.5 142.0 L 140.5 142.5 L 140.5 142.5 L 142.5 141.5 L 143.0 141.0 " stroke="black" fill="none" stroke-width="6.0" stroke-linecap="round" stroke-linejoin="round" />
<path d="M 155.0 122.5 L 154.0 122.0 L 153.5 121.5 L 153.5 121.5 L 153.5 121.5 L 156.5 123.5 L 162.0 126.5 L 169.5 129.0 L 178.5 131.0 L 185.0 132.5 L 187.5 133.0 " stroke="black" fill="none" stroke-width="6.0" stroke-linecap="round" stroke-linejoin="round" />
<path d="M 155.0 146.5 L 155.0 146.5 L 155.0 146.5 L 155.0 146.5 L 155.0 146.5 L 155.0 146.0 L 157.0 145.5 L 161.5 145.0 L 166.5 144.5 L 170.5 144.5 L 173.5 144.0 L 174.5 144.0 " stroke="black" fill="none" stroke-width="6.0" stroke-linecap="round" stroke-linejoin="round" />
<path d="M 156.0 156.0 L 156.0 156.5 L 156.0 157.0 L 156.5 157.0 L 158.0 157.0 L 161.0 156.5 L 165.0 155.5 L 169.0 155.0 L 172.0 154.5 L 174.0 154.0 " stroke="black" fill="none" stroke-width="6.0" stroke-linecap="round" stroke-linejoin="round" />
<path d="M 152.0 167.0 L 152.0 167.0 L 152.5 166.5 L 154.0 166.0 L 158.0 165.5 L 166.5 164.5 L 175.5 164.0 L 180.0 164.0 L 181.0 164.0 " stroke="black" fill="none" stroke-width="6.0" stroke-linecap="round" stroke-linejoin="round" />
<path d="M 166.0 134.5 L 166.0 135.0 L 165.5 135.5 L 165.0 136.5 L 165.0 140.0 L 165.0 147.0 L 165.5 158.5 L 165.5 171.0 L 165.5 179.5 L 166.0 184.5 L 167.0 185.5 L 167.0 184.5 " stroke="black" fill="none" stroke-width="6.0" stroke-linecap="round" stroke-linejoin="round" />
<path d="M 126.5 116.0 L 126.5 115.5 L 126.5 115.0 L 126.5 115.0 L 126.0 114.5 L 126.0 115.0 L 127.0 116.0 L 129.0 118.0 L 130.5 120.0 L 132.0 122.0 L 132.0 122.5 " stroke="black" fill="none" stroke-width="6.0" stroke-linecap="round" stroke-linejoin="round" />
<path d="M 125.0 133.5 L 123.5 134.5 L 123.5 135.0 L 123.5 135.0 L 125.0 135.0 L 127.0 134.5 L 129.0 135.0 L 130.5 136.5 L 130.5 140.0 L 128.5 144.5 L 126.0 148.5 L 125.0 150.0 L 125.0 151.0 L 126.5 151.0 L 128.5 152.0 L 131.0 153.5 L 132.5 156.0 L 133.5 160.0 L 133.0 164.5 L 130.5 169.5 L 127.0 174.5 L 123.5 179.0 L 120.5 182.5 L 118.5 184.5 L 117.5 185.5 L 117.0 185.5 L 117.0 185.5 L 117.0 185.5 L 117.0 185.5 L 117.0 185.5 L 117.5 185.5 L 118.0 185.5 L 119.0 185.5 L 120.5 185.5 L 122.5 185.5 L 125.0 186.5 L 129.5 188.0 L 136.5 190.0 L 145.5 191.5 L 156.0 193.0 L 165.5 193.5 L 174.0 194.0 L 181.0 194.0 L 185.5 193.5 L 188.5 191.5 " stroke="black" fill="none" stroke-width="6.0" stroke-linecap="round" stroke-linejoin="round" />
</svg>