<svg xmlns="http://www.w3.org/2000/svg" width="300" height="300" viewBox="0 0 300 300">
<path d="M 130.0 112.0 L 130.0 112.0 L 130.5 112.0 L 130.5 112.0 L 131.0 112.5 L 131.5 113.0 L 132.5 114.0 L 133.5 115.0 L 134.0 116.5 L 134.0 116.5 " stroke="black" fill="none" stroke-width="7.0" stroke-linecap="round" stroke-linejoin="round" />
<path d="M 124.5 126.5 L 124.0 126.5 L 123.5 126.5 L 123.5 126.5 L 126.5 126.5 L 130.5 126.5 L 136.0 126.0 L 141.0 126.0 L 145.5 126.5 L 147.5 127.5 " stroke="black" fill="none" stroke-width="7.0" stroke-linecap="round" stroke-linejoin="round" />
<path d="M 129.5 136.5 L 129.5 136.5 L 129.5 136.5 L 129.0 136.5 L 129.0 136.5 L 129.0 137.5 L 129.0 141.0 L 129.5 145.0 L 130.0 147.5 " stroke="black" fill="none" stroke-width="7.0" stroke-linecap="round" stroke-linejoin="round" />
<path d="M 130.5 138.5 L 130.5 138.5 L 130.5 138.5 L 130.5 138.5 L 131.5 138.5 L 135.0 138.5 L 139.0 138.5 L 142.0 138.5 L 144.5 139.0 L 145.0 139.5 L 145.5 140.5 L 145.5 141.5 L 145.0 143.0 L 144.0 144.5 L 143.0 146.5 L 142.5 146.5 " stroke="black" fill="none" stroke-width="7.0" stroke-linecap="round" stroke-linejoin="round" />
<path d="M 133.5 150.5 L 133.5 150.5 L 133.0 151.5 L 133.0 151.5 L 133.0 152.0 L 134.0 152.0 L 136.5 152.0 L 139.5 152.0 L 140.5 151.5 " stroke="black" fill="none" stroke-width="7.0" stroke-linecap="round" stroke-linejoin="round" />
<path d="M 128.5 162.5 L 128.5 162.5 L 128.5 162.0 L 128.5 162.0 L 130.0 161.5 L 133.0 161.0 L 136.0 161.0 L 137.5 161.0 L 138.0 162.0 L 136.5 164.5 L 133.5 167.5 L 131.0 170.0 L 130.0 172.0 L 130.0 173.5 L 132.0 175.0 L 134.5 177.0 L 137.0 179.5 L 138.0 181.5 L 138.5 189.0 L 136.5 193.0 L 133.5 196.0 L 130.5 196.5 L 127.5 195.5 L 125.0 192.5 L 124.0 189.0 L 124.0 188.5 " stroke="black" fill="none" stroke-width="7.0" stroke-linecap="round" stroke-linejoin="round" />
<path d="M 120.5 180.0 L 119.5 181.0 L 119.0 181.0 L 121.0 181.0 L 126.5 180.5 L 133.0 179.0 L 140.5 177.5 L 146.5 176.0 L 149.5 175.0 " stroke="black" fill="none" stroke-width="7.0" stroke-linecap="round" stroke-linejoin="round" />
<path d="M 162.5 113.5 L 162.5 114.0 L 161.5 115.0 L 161.0 115.0 L 161.0 115.0 L 163.0 114.5 L 166.5 114.0 L 171.0 114.0 L 175.5 114.5 L 178.5 116.5 L 179.0 119.0 L 178.0 122.5 L 175.0 126.0 L 172.0 129.0 L 170.5 130.5 L 170.5 131.5 L 172.0 132.5 L 175.0 135.0 L 178.5 137.5 L 181.0 140.5 L 182.0 144.0 L 181.0 147.5 L 178.5 151.5 L 175.5 154.0 L 172.5 154.5 L 169.5 153.0 L 167.0 147.5 " stroke="black" fill="none" stroke-width="7.0" stroke-linecap="round" stroke-linejoin="round" />
<path d="M 158.0 112.5 L 158.0 113.0 L 158.5 113.0 L 158.5 113.5 L 159.0 116.0 L 159.0 124.0 L 159.0 140.0 L 159.0 158.5 L 159.0 172.0 L 159.0 183.0 L 159.0 192.5 L 159.0 198.0 L 159.0 200.0 L 159.0 200.0 L 158.5 199.0 " stroke="black" fill="none" stroke-width="7.0" stroke-linecap="round" stroke-linejoin="round" />
</svg>