<svg xmlns="http://www.w3.org/2000/svg" width="300" height="300" viewBox="0 0 300 300">
<path d="M 157.7777777777778 100.55555555555556 L 158.33333333333334 100.55555555555556 L 159.44444444444446 100.55555555555556 L 159.44444444444446 100.0 L 159.44444444444446 100.0 L 158.33333333333334 103.33333333333333 L 153.8888888888889 111.11111111111111 L 147.22222222222223 122.22222222222221 L 141.66666666666669 130.55555555555557 L 140.00000000000003 132.22222222222223 L 140.00000000000003 128.33333333333334 L 140.55555555555557 127.22222222222221 " stroke="black" fill="none" stroke-width="7.0" stroke-linecap="round" stroke-linejoin="round" />
<path d="M 162.22222222222223 101.11111111111111 L 162.22222222222223 101.11111111111111 L 161.66666666666669 101.66666666666667 L 161.66666666666669 101.66666666666667 L 164.44444444444446 103.33333333333333 L 170.00000000000003 106.66666666666667 L 177.7777777777778 111.66666666666667 L 185.00000000000003 116.1111111111111 L 190.55555555555557 118.33333333333333 L 192.7777777777778 119.44444444444444 L 192.7777777777778 119.44444444444444 " stroke="black" fill="none" stroke-width="7.0" stroke-linecap="round" stroke-linejoin="round" />
<path d="M 153.33333333333334 130.00000000000003 L 153.33333333333334 130.00000000000003 L 153.33333333333334 130.00000000000003 L 155.55555555555557 130.00000000000003 L 161.66666666666669 128.33333333333334 L 170.00000000000003 125.55555555555556 L 176.66666666666669 123.33333333333333 L 179.44444444444446 123.33333333333333 L 179.44444444444446 123.33333333333333 " stroke="black" fill="none" stroke-width="7.0" stroke-linecap="round" stroke-linejoin="round" />
<path d="M 150.00000000000003 147.7777777777778 L 150.00000000000003 147.7777777777778 L 148.33333333333334 148.33333333333334 L 147.7777777777778 148.8888888888889 L 148.33333333333334 148.8888888888889 L 152.22222222222223 147.22222222222223 L 160.55555555555557 145.55555555555557 L 170.55555555555557 143.33333333333334 L 181.11111111111114 142.22222222222223 L 187.22222222222223 141.66666666666669 L 188.33333333333334 141.66666666666669 L 187.7777777777778 141.66666666666669 " stroke="black" fill="none" stroke-width="7.0" stroke-linecap="round" stroke-linejoin="round" />
<path d="M 167.7777777777778 128.8888888888889 L 166.66666666666669 128.8888888888889 L 165.55555555555557 128.8888888888889 L 165.55555555555557 132.7777777777778 L 166.66666666666669 142.7777777777778 L 168.33333333333334 157.22222222222223 L 168.8888888888889 167.7777777777778 L 168.8888888888889 172.7777777777778 L 168.8888888888889 171.11111111111114 " stroke="black" fill="none" stroke-width="7.0" stroke-linecap="round" stroke-linejoin="round" />
<path d="M 158.8888888888889 157.7777777777778 L 158.8888888888889 157.7777777777778 L 158.33333333333334 159.44444444444446 L 156.66666666666669 162.22222222222223 L 153.33333333333334 165.55555555555557 L 148.33333333333334 170.00000000000003 L 146.11111111111111 172.7777777777778 L 146.11111111111111 172.7777777777778 " stroke="black" fill="none" stroke-width="7.0" stroke-linecap="round" stroke-linejoin="round" />
<path d="M 180.00000000000003 153.8888888888889 L 180.00000000000003 154.44444444444446 L 180.00000000000003 155.00000000000003 L 180.55555555555557 156.11111111111111 L 182.7777777777778 158.33333333333334 L 187.7777777777778 161.11111111111111 L 192.22222222222223 162.22222222222223 L 193.33333333333334 162.22222222222223 " stroke="black" fill="none" stroke-width="7.0" stroke-linecap="round" stroke-linejoin="round" />
<path d="M 115.00000000000001 104.44444444444444 L 115.00000000000001 104.44444444444444 L 114.44444444444444 105.0 L 114.44444444444444 106.11111111111111 L 116.1111111111111 107.22222222222223 L 118.8888888888889 108.88888888888889 L 121.1111111111111 110.0 L 121.66666666666667 110.0 " stroke="black" fill="none" stroke-width="7.0" stroke-linecap="round" stroke-linejoin="round" />
<path d="M 110.55555555555556 123.8888888888889 L 110.55555555555556 124.44444444444444 L 110.55555555555556 124.44444444444444 L 110.55555555555556 125.00000000000001 L 110.55555555555556 125.00000000000001 L 111.66666666666667 125.00000000000001 L 113.33333333333333 124.44444444444444 L 116.1111111111111 124.44444444444444 L 119.44444444444444 124.44444444444444 L 122.22222222222221 124.44444444444444 L 123.8888888888889 125.00000000000001 L 123.8888888888889 126.66666666666667 L 122.22222222222221 130.00000000000003 L 119.44444444444444 134.44444444444446 L 117.77777777777779 137.7777777777778 L 116.66666666666667 140.00000000000003 L 116.66666666666667 141.11111111111111 L 116.1111111111111 141.11111111111111 L 116.1111111111111 141.11111111111111 L 116.1111111111111 140.55555555555557 L 117.22222222222221 140.00000000000003 L 118.8888888888889 139.44444444444446 L 120.55555555555556 139.44444444444446 L 122.22222222222221 139.44444444444446 L 123.33333333333333 139.44444444444446 L 124.44444444444444 140.00000000000003 L 125.00000000000001 141.11111111111111 L 125.00000000000001 143.8888888888889 L 125.00000000000001 148.33333333333334 L 124.44444444444444 153.33333333333334 L 123.33333333333333 158.8888888888889 L 121.1111111111111 163.33333333333334 L 119.44444444444444 167.22222222222223 L 117.22222222222221 171.11111111111114 L 115.00000000000001 175.00000000000003 L 113.33333333333333 177.7777777777778 L 113.33333333333333 178.33333333333334 L 113.33333333333333 177.7777777777778 L 113.33333333333333 177.7777777777778 L 112.77777777777779 177.7777777777778 L 112.22222222222221 177.7777777777778 L 112.22222222222221 177.7777777777778 L 111.66666666666667 177.7777777777778 L 111.66666666666667 177.7777777777778 L 111.66666666666667 177.7777777777778 L 111.66666666666667 177.7777777777778 L 111.66666666666667 177.7777777777778 L 111.66666666666667 177.7777777777778 L 111.66666666666667 177.7777777777778 L 111.66666666666667 177.7777777777778 L 111.66666666666667 177.7777777777778 L 111.66666666666667 177.7777777777778 L 111.66666666666667 177.7777777777778 L 111.66666666666667 177.7777777777778 L 111.66666666666667 177.7777777777778 L 111.66666666666667 177.7777777777778 L 111.66666666666667 177.7777777777778 L 111.11111111111111 177.7777777777778 L 111.11111111111111 178.33333333333334 L 111.11111111111111 178.33333333333334 L 110.55555555555556 178.33333333333334 L 110.55555555555556 178.33333333333334 L 110.0 178.33333333333334 L 110.0 178.33333333333334 L 110.0 178.33333333333334 L 110.0 178.8888888888889 L 109.44444444444444 178.8888888888889 L 109.44444444444444 178.8888888888889 L 109.44444444444444 178.8888888888889 L 108.88888888888889 178.8888888888889 L 108.88888888888889 178.8888888888889 L 108.88888888888889 178.8888888888889 L 108.33333333333333 179.44444444444446 L 108.33333333333333 179.44444444444446 L 108.33333333333333 179.44444444444446 L 107.77777777777779 179.44444444444446 L 107.77777777777779 179.44444444444446 L 107.77777777777779 179.44444444444446 L 107.77777777777779 179.44444444444446 L 107.77777777777779 179.44444444444446 L 107.77777777777779 180.00000000000003 L 107.77777777777779 180.00000000000003 L 107.77777777777779 180.00000000000003 L 107.77777777777779 180.00000000000003 L 108.33333333333333 180.00000000000003 L 108.88888888888889 180.55555555555557 L 110.0 180.55555555555557 L 110.55555555555556 181.11111111111114 L 111.11111111111111 181.11111111111114 L 112.22222222222221 181.11111111111114 L 113.8888888888889 181.66666666666669 L 115.00000000000001 181.66666666666669 L 116.66666666666667 182.22222222222223 L 119.44444444444444 182.7777777777778 L 122.22222222222221 183.33333333333334 L 125.00000000000001 183.8888888888889 L 127.22222222222221 184.44444444444446 L 129.44444444444446 185.00000000000003 L 132.22222222222223 185.55555555555557 L 135.55555555555557 186.11111111111114 L 138.8888888888889 187.22222222222223 L 142.22222222222223 187.7777777777778 L 145.00000000000003 188.33333333333334 L 148.8888888888889 188.33333333333334 L 153.33333333333334 188.33333333333334 L 158.33333333333334 188.33333333333334 L 163.33333333333334 188.33333333333334 L 168.33333333333334 188.33333333333334 L 173.8888888888889 188.33333333333334 L 178.33333333333334 188.8888888888889 L 181.66666666666669 188.8888888888889 L 186.11111111111114 188.33333333333334 L 191.11111111111114 187.7777777777778 L 195.55555555555557 186.66666666666669 L 198.33333333333334 185.55555555555557 L 200.55555555555557 183.33333333333334 " stroke="black" fill="none" stroke-width="7.0" stroke-linecap="round" stroke-linejoin="round" />
</svg>