<svg xmlns="http://www.w3.org/2000/svg" width="300" height="300" viewBox="0 0 300 300">
<path d="M 146.0 107.5 L 145.5 107.5 L 144.0 108.0 L 143.5 108.0 L 143.5 108.0 L 143.5 108.0 L 145.0 107.5 L 146.5 107.5 L 148.5 107.0 L 152.5 106.5 L 159.0 106.0 L 169.0 105.0 L 177.0 104.5 L 180.5 104.5 L 180.5 105.0 L 180.0 105.0 L 180.0 105.0 L 180.0 104.5 L 180.0 104.5 L 180.0 104.5 L 180.0 105.0 " stroke="black" fill="none" stroke-width="7.0" stroke-linecap="round" stroke-linejoin="round" />
<path d="M 150.0 120.5 L 150.0 120.0 L 149.0 119.0 L 149.0 118.0 L 149.0 118.0 L 149.5 118.0 L 150.0 118.0 L 150.5 119.5 L 151.0 123.5 L 151.5 129.0 L 151.5 134.0 L 152.0 135.5 L 152.0 135.5 " stroke="black" fill="none" stroke-width="7.0" stroke-linecap="round" stroke-linejoin="round" />
<path d="M 152.0 120.0 L 151.0 120.0 L 150.0 120.0 L 150.0 120.0 L 151.0 119.5 L 153.5 119.0 L 157.5 118.5 L 161.5 118.0 L 166.5 118.0 L 171.5 118.0 L 176.0 118.5 L 178.5 119.0 L 179.5 119.0 L 180.0 119.5 L 180.0 119.5 L 180.0 119.5 L 180.0 119.5 L 180.0 119.5 L 179.5 119.5 L 179.0 120.5 L 178.5 121.5 L 177.5 124.0 L 176.5 127.5 L 175.5 131.5 L 175.0 134.0 L 175.0 135.0 L 175.0 135.5 L 175.0 135.0 " stroke="black" fill="none" stroke-width="7.0" stroke-linecap="round" stroke-linejoin="round" />
<path d="M 153.5 138.0 L 153.0 138.0 L 152.5 138.5 L 152.5 138.5 L 154.0 138.0 L 157.5 137.0 L 162.5 136.0 L 167.0 136.0 L 170.5 135.5 L 172.5 135.5 " stroke="black" fill="none" stroke-width="7.0" stroke-linecap="round" stroke-linejoin="round" />
<path d="M 146.5 152.0 L 146.5 152.0 L 146.0 151.5 L 145.5 151.0 L 145.0 150.5 L 145.0 150.5 L 145.0 150.0 L 145.0 152.0 L 145.0 158.0 L 145.0 166.0 L 145.5 172.5 L 146.0 175.5 L 146.5 175.5 L 146.5 173.5 L 146.5 173.0 " stroke="black" fill="none" stroke-width="7.0" stroke-linecap="round" stroke-linejoin="round" />
<path d="M 147.5 150.0 L 146.0 150.5 L 144.5 150.5 L 144.5 150.5 L 145.0 150.5 L 146.5 150.0 L 148.5 149.5 L 152.0 149.5 L 158.5 148.5 L 168.0 147.5 L 175.5 147.0 L 181.0 147.5 L 184.5 148.5 L 187.0 149.0 L 189.5 149.0 L 190.5 149.0 L 191.0 149.0 L 191.0 149.0 L 191.0 149.0 L 191.0 149.0 L 191.0 149.0 L 191.0 149.0 L 191.0 149.5 L 191.0 149.5 L 191.0 149.5 L 191.0 149.5 L 190.5 149.5 L 190.5 150.0 L 190.0 151.0 L 189.5 152.5 L 189.0 155.0 L 188.5 159.0 L 187.5 163.0 L 187.0 167.0 L 186.5 169.5 L 186.0 171.5 L 186.0 172.0 L 186.0 172.0 L 186.0 172.0 L 186.0 172.5 L 186.0 172.5 " stroke="black" fill="none" stroke-width="7.0" stroke-linecap="round" stroke-linejoin="round" />
<path d="M 153.0 164.5 L 152.5 164.5 L 152.0 165.0 L 151.5 165.0 L 154.5 165.0 L 160.5 164.0 L 167.5 163.5 L 173.0 163.0 L 175.0 162.5 " stroke="black" fill="none" stroke-width="7.0" stroke-linecap="round" stroke-linejoin="round" />
<path d="M 167.5 152.0 L 166.0 152.0 L 165.5 152.0 L 165.5 152.0 L 165.5 153.5 L 165.5 158.0 L 165.5 165.0 L 164.5 172.0 L 164.5 176.0 L 164.5 176.5 L 164.5 176.0 " stroke="black" fill="none" stroke-width="7.0" stroke-linecap="round" stroke-linejoin="round" />
<path d="M 151.5 183.0 L 151.0 182.5 L 150.5 182.0 L 151.5 181.5 L 155.5 180.5 L 161.0 179.5 L 168.5 178.5 L 176.5 176.5 L 183.0 175.5 L 186.5 176.5 L 187.5 178.0 L 187.5 178.0 " stroke="black" fill="none" stroke-width="7.0" stroke-linecap="round" stroke-linejoin="round" />
<path d="M 120.0 110.5 L 118.5 111.0 L 118.0 111.0 L 117.5 111.0 L 119.0 112.0 L 121.5 114.5 L 124.0 117.0 L 125.5 119.0 L 126.0 119.5 " stroke="black" fill="none" stroke-width="7.0" stroke-linecap="round" stroke-linejoin="round" />
<path d="M 118.0 132.5 L 118.0 132.5 L 116.5 132.5 L 116.0 132.0 L 116.5 131.0 L 119.5 129.5 L 123.0 129.0 L 126.0 130.5 L 127.0 134.5 L 127.0 140.0 L 124.0 145.0 L 120.5 148.0 L 119.0 149.0 L 119.0 149.0 L 120.5 148.5 L 122.5 149.5 L 125.0 150.5 L 127.0 152.0 L 128.5 155.0 L 128.5 160.0 L 127.5 166.5 L 125.5 173.5 L 123.5 180.0 L 122.0 185.0 L 120.0 189.5 L 118.0 193.5 L 116.5 196.5 L 115.0 197.5 L 115.0 197.5 L 115.0 197.5 L 114.5 197.0 L 114.5 196.5 L 114.0 196.5 L 114.0 196.5 L 114.0 196.0 L 114.0 196.0 L 114.0 196.0 L 114.0 195.5 L 114.5 195.5 L 115.0 195.0 L 117.0 195.0 L 121.0 194.5 L 128.0 194.0 L 139.0 194.0 L 149.0 195.5 L 157.5 197.0 L 165.0 198.5 L 171.0 199.0 L 177.5 199.5 L 184.0 200.0 L 189.0 200.0 L 192.5 200.0 L 194.5 199.5 L 195.0 199.5 " stroke="black" fill="none" stroke-width="7.0" stroke-linecap="round" stroke-linejoin="round" />
</svg>