<svg xmlns="http://www.w3.org/2000/svg" width="300" height="300" viewBox="0 0 300 300">
<path d="M 130.0 120.0 L 130.0 119.5 L 130.0 118.0 L 130.0 116.5 L 130.5 115.0 L 131.0 114.5 L 131.5 114.5 L 131.0 118.0 L 128.0 125.0 L 123.0 132.5 L 118.0 139.5 L 116.0 142.0 L 116.0 141.5 L 117.5 138.0 " stroke="black" fill="none" stroke-width="6.0" stroke-linecap="round" stroke-linejoin="round" />
<path d="M 134.0 118.0 L 134.0 118.0 L 133.0 118.0 L 133.0 118.0 L 134.0 119.0 L 137.5 121.0 L 141.5 124.0 L 145.0 126.5 L 147.5 129.0 L 149.0 130.5 " stroke="black" fill="none" stroke-width="6.0" stroke-linecap="round" stroke-linejoin="round" />
<path d="M 126.5 147.0 L 126.0 147.0 L 125.0 146.0 L 125.0 146.0 L 126.5 145.5 L 130.0 144.5 L 135.0 143.0 L 139.5 141.5 L 143.5 140.5 L 145.0 140.0 " stroke="black" fill="none" stroke-width="6.0" stroke-linecap="round" stroke-linejoin="round" />
<path d="M 127.5 159.5 L 127.5 161.0 L 126.0 162.5 L 125.5 163.0 L 126.5 162.0 L 129.5 160.5 L 133.5 158.5 L 137.0 157.0 L 140.0 155.0 L 140.5 154.5 " stroke="black" fill="none" stroke-width="6.0" stroke-linecap="round" stroke-linejoin="round" />
<path d="M 136.0 146.0 L 135.5 145.0 L 135.0 144.5 L 135.0 144.5 L 135.0 147.5 L 135.0 153.5 L 135.0 161.0 L 135.0 168.5 L 135.5 173.0 L 136.5 175.0 L 136.5 175.5 " stroke="black" fill="none" stroke-width="6.0" stroke-linecap="round" stroke-linejoin="round" />
<path d="M 122.5 170.5 L 120.5 170.5 L 119.5 170.5 L 119.5 170.5 L 121.5 171.5 L 125.0 172.0 L 128.5 172.5 L 129.5 172.5 " stroke="black" fill="none" stroke-width="6.0" stroke-linecap="round" stroke-linejoin="round" />
<path d="M 147.0 165.5 L 147.0 165.5 L 147.0 164.5 L 147.0 163.5 L 147.0 163.5 L 147.0 163.5 L 146.5 164.5 L 145.0 167.5 " stroke="black" fill="none" stroke-width="6.0" stroke-linecap="round" stroke-linejoin="round" />
<path d="M 125.0 186.5 L 124.0 186.0 L 123.5 185.5 L 123.0 185.0 L 123.0 185.0 L 124.5 184.5 L 129.0 183.5 L 135.0 181.0 L 142.0 178.5 L 147.5 177.0 L 150.5 175.5 " stroke="black" fill="none" stroke-width="6.0" stroke-linecap="round" stroke-linejoin="round" />
<path d="M 164.5 128.5 L 163.5 128.5 L 163.0 128.5 L 163.0 128.5 L 165.5 128.5 L 170.5 128.0 L 175.5 127.5 L 180.5 127.5 L 183.5 127.0 L 184.5 126.5 L 184.5 126.5 L 184.5 126.5 L 184.0 127.5 L 184.0 129.0 L 184.0 131.5 L 183.0 135.5 L 181.5 142.0 L 179.0 150.0 L 176.0 158.0 L 172.0 168.5 L 168.0 178.0 L 164.0 187.0 L 159.5 194.0 L 158.5 195.5 L 158.5 194.5 L 158.5 190.5 " stroke="black" fill="none" stroke-width="6.0" stroke-linecap="round" stroke-linejoin="round" />
<path d="M 170.5 139.0 L 169.0 139.0 L 168.5 139.0 L 168.5 139.5 L 170.0 141.0 L 172.0 143.0 L 173.5 144.5 " stroke="black" fill="none" stroke-width="6.0" stroke-linecap="round" stroke-linejoin="round" />
<path d="M 157.5 140.0 L 157.5 140.0 L 157.5 140.0 L 157.5 140.0 L 157.5 140.0 L 158.0 141.5 L 160.0 145.5 L 163.0 152.5 L 167.5 162.5 L 172.5 170.0 L 176.5 174.5 L 180.5 177.5 L 184.5 180.5 L 188.0 182.5 L 190.0 183.5 L 191.0 183.5 L 192.0 183.5 L 193.0 183.0 " stroke="black" fill="none" stroke-width="6.0" stroke-linecap="round" stroke-linejoin="round" />
</svg>