<svg xmlns="http://www.w3.org/2000/svg" width="300" height="300" viewBox="0 0 300 300">
<path d="M 130.0 120.5 L 130.5 119.5 L 130.5 118.0 L 130.5 117.5 L 130.5 117.0 L 130.0 119.5 L 128.0 125.5 L 125.0 132.0 L 123.0 137.5 L 122.5 139.0 L 123.0 138.0 " stroke="black" fill="none" stroke-width="6.0" stroke-linecap="round" stroke-linejoin="round" />
<path d="M 132.0 118.0 L 132.0 117.5 L 132.5 117.0 L 132.5 116.5 L 133.5 116.5 L 135.5 119.5 L 138.0 124.5 L 141.0 129.5 L 143.0 132.5 L 143.5 133.0 L 143.5 133.0 " stroke="black" fill="none" stroke-width="6.0" stroke-linecap="round" stroke-linejoin="round" />
<path d="M 128.0 143.0 L 127.5 143.0 L 127.0 143.5 L 126.5 143.5 L 128.5 143.0 L 132.0 142.0 L 135.5 141.0 L 138.5 140.5 L 140.0 140.5 " stroke="black" fill="none" stroke-width="6.0" stroke-linecap="round" stroke-linejoin="round" />
<path d="M 129.0 156.0 L 128.5 156.5 L 128.0 157.0 L 128.0 157.0 L 130.5 155.5 L 133.5 154.5 L 137.0 153.5 L 139.5 153.0 L 141.0 152.5 " stroke="black" fill="none" stroke-width="6.0" stroke-linecap="round" stroke-linejoin="round" />
<path d="M 136.0 146.5 L 136.0 146.5 L 136.0 146.5 L 136.0 147.0 L 136.0 147.5 L 136.0 150.0 L 136.5 156.0 L 136.5 164.0 L 137.0 169.0 L 137.5 170.5 L 137.5 170.5 " stroke="black" fill="none" stroke-width="6.0" stroke-linecap="round" stroke-linejoin="round" />
<path d="M 124.5 167.0 L 123.5 166.5 L 122.5 166.0 L 122.5 166.0 L 124.0 166.5 L 126.5 168.0 L 129.0 169.5 L 129.5 169.5 " stroke="black" fill="none" stroke-width="6.0" stroke-linecap="round" stroke-linejoin="round" />
<path d="M 146.0 159.5 L 146.0 159.5 L 145.0 160.0 L 144.5 160.0 L 144.5 160.5 L 144.5 162.0 L 144.5 164.5 L 143.5 167.0 L 143.0 167.5 " stroke="black" fill="none" stroke-width="6.0" stroke-linecap="round" stroke-linejoin="round" />
<path d="M 127.5 181.0 L 127.0 181.5 L 126.5 181.5 L 127.0 181.5 L 130.0 180.5 L 135.0 178.5 L 141.5 175.5 L 143.5 175.0 " stroke="black" fill="none" stroke-width="6.0" stroke-linecap="round" stroke-linejoin="round" />
<path d="M 155.5 124.0 L 155.5 122.5 L 155.5 121.5 L 155.5 121.0 L 155.5 121.5 L 156.5 126.0 L 156.5 136.0 L 156.5 150.0 L 157.5 159.5 L 159.0 162.0 L 159.5 160.5 L 160.0 156.5 " stroke="black" fill="none" stroke-width="6.0" stroke-linecap="round" stroke-linejoin="round" />
<path d="M 156.5 122.5 L 156.0 121.0 L 156.0 120.5 L 156.0 120.0 L 156.0 120.0 L 157.5 120.5 L 160.0 120.5 L 164.0 120.5 L 169.5 120.5 L 176.0 120.5 L 181.0 120.5 L 183.0 120.5 L 183.5 121.5 L 183.5 122.0 L 183.5 123.0 L 183.5 124.0 L 184.0 125.0 L 184.0 126.5 L 184.5 129.0 L 184.5 133.0 L 184.0 138.5 L 183.5 145.5 L 183.0 153.0 L 182.5 157.5 L 182.0 160.0 L 182.0 160.0 L 181.5 158.0 L 181.5 157.0 " stroke="black" fill="none" stroke-width="6.0" stroke-linecap="round" stroke-linejoin="round" />
<path d="M 165.5 142.0 L 164.5 141.5 L 162.0 140.5 L 161.5 140.0 L 162.0 140.0 L 164.0 140.5 L 167.0 141.0 L 170.5 141.0 L 174.0 140.5 L 176.0 139.0 " stroke="black" fill="none" stroke-width="6.0" stroke-linecap="round" stroke-linejoin="round" />
<path d="M 173.0 124.0 L 173.0 124.0 L 172.5 124.0 L 172.0 124.5 L 172.0 126.5 L 172.0 131.5 L 171.0 140.0 L 171.0 148.5 L 171.0 153.5 L 171.5 156.0 L 172.0 156.0 " stroke="black" fill="none" stroke-width="6.0" stroke-linecap="round" stroke-linejoin="round" />
<path d="M 162.5 163.5 L 161.5 164.5 L 160.0 165.5 L 160.0 166.0 L 161.5 166.0 L 166.0 164.5 L 171.0 163.0 L 176.0 162.0 L 178.0 162.0 " stroke="black" fill="none" stroke-width="6.0" stroke-linecap="round" stroke-linejoin="round" />
</svg>