<svg xmlns="http://www.w3.org/2000/svg" width="300" height="300" viewBox="0 0 300 300">
<path d="M 109.5 105.0 L 109.5 104.5 L 110.0 103.5 L 110.5 102.5 L 110.5 102.0 L 110.5 102.0 L 110.0 105.0 L 107.5 110.5 L 104.0 117.5 L 100.0 124.5 L 97.5 128.5 L 97.5 128.0 L 98.0 127.0 " stroke="black" fill="none" stroke-width="7.0" stroke-linecap="round" stroke-linejoin="round" />
<path d="M 111.0 107.0 L 111.0 107.0 L 110.0 107.5 L 110.0 107.5 L 112.0 108.5 L 116.0 110.5 L 120.5 113.0 L 124.0 116.0 L 126.5 118.5 L 128.0 120.5 L 129.0 122.0 " stroke="black" fill="none" stroke-width="7.0" stroke-linecap="round" stroke-linejoin="round" />
<path d="M 104.5 139.5 L 103.0 139.5 L 102.5 139.5 L 104.5 139.0 L 109.0 137.5 L 114.5 135.0 L 119.5 133.0 L 121.5 132.5 L 123.0 132.5 L 123.5 133.5 " stroke="black" fill="none" stroke-width="7.0" stroke-linecap="round" stroke-linejoin="round" />
<path d="M 109.5 156.5 L 109.0 157.5 L 109.0 158.5 L 109.0 159.0 L 112.0 158.5 L 116.0 157.5 L 120.0 156.0 L 122.5 154.5 L 123.5 153.0 " stroke="black" fill="none" stroke-width="7.0" stroke-linecap="round" stroke-linejoin="round" />
<path d="M 115.5 138.5 L 115.5 138.5 L 115.0 138.0 L 115.0 137.5 L 115.0 138.0 L 116.0 142.0 L 117.0 150.0 L 118.0 161.5 L 118.0 171.0 L 118.5 174.5 L 118.5 175.0 L 118.5 175.0 " stroke="black" fill="none" stroke-width="7.0" stroke-linecap="round" stroke-linejoin="round" />
<path d="M 102.5 172.5 L 102.0 172.5 L 101.5 172.5 L 101.5 172.5 L 103.0 173.5 L 105.5 175.0 L 108.0 176.0 L 108.5 176.0 " stroke="black" fill="none" stroke-width="7.0" stroke-linecap="round" stroke-linejoin="round" />
<path d="M 128.0 165.0 L 127.5 165.0 L 127.0 165.0 L 127.0 165.0 L 127.0 166.0 L 127.0 168.5 L 127.0 170.0 " stroke="black" fill="none" stroke-width="7.0" stroke-linecap="round" stroke-linejoin="round" />
<path d="M 107.0 192.0 L 107.0 192.5 L 106.5 193.0 L 107.0 193.0 L 111.0 191.5 L 117.5 187.5 L 126.0 182.5 L 134.0 178.5 L 138.5 177.0 " stroke="black" fill="none" stroke-width="7.0" stroke-linecap="round" stroke-linejoin="round" />
<path d="M 153.0 93.5 L 153.0 93.5 L 153.0 93.5 L 153.0 93.5 L 153.5 93.5 L 155.5 95.0 L 158.5 98.0 L 162.0 101.0 L 164.0 103.0 L 164.0 103.5 " stroke="black" fill="none" stroke-width="7.0" stroke-linecap="round" stroke-linejoin="round" />
<path d="M 143.5 111.0 L 143.0 111.5 L 141.0 112.5 L 141.0 112.5 L 142.5 112.5 L 147.0 112.5 L 153.0 111.5 L 162.0 110.5 L 171.0 108.5 L 177.5 107.5 L 181.5 107.5 L 182.5 108.5 L 182.0 109.5 " stroke="black" fill="none" stroke-width="7.0" stroke-linecap="round" stroke-linejoin="round" />
<path d="M 150.5 122.0 L 150.0 122.0 L 149.5 122.0 L 149.0 122.0 L 149.5 122.0 L 151.5 123.5 L 155.0 125.5 L 157.5 127.5 L 160.0 129.0 L 160.5 129.0 " stroke="black" fill="none" stroke-width="7.0" stroke-linecap="round" stroke-linejoin="round" />
<path d="M 176.0 120.0 L 176.5 119.5 L 176.5 119.5 L 176.5 119.0 L 176.5 119.0 L 176.5 120.5 L 176.0 123.0 L 175.0 126.0 L 174.0 128.5 L 174.0 129.0 " stroke="black" fill="none" stroke-width="7.0" stroke-linecap="round" stroke-linejoin="round" />
<path d="M 147.0 137.0 L 146.5 137.0 L 146.0 137.0 L 148.5 137.0 L 154.5 136.5 L 164.0 135.5 L 173.5 134.0 L 181.5 132.5 L 187.0 132.0 L 189.5 132.5 L 189.5 133.0 " stroke="black" fill="none" stroke-width="7.0" stroke-linecap="round" stroke-linejoin="round" />
<path d="M 150.0 148.5 L 150.0 148.0 L 150.0 147.5 L 150.0 147.0 L 151.0 146.5 L 152.0 147.0 L 153.5 150.0 L 154.5 154.0 L 155.5 158.0 L 156.0 160.0 L 156.0 160.5 " stroke="black" fill="none" stroke-width="7.0" stroke-linecap="round" stroke-linejoin="round" />
<path d="M 154.0 149.5 L 153.5 149.5 L 152.5 149.5 L 152.5 149.5 L 155.0 149.0 L 160.0 147.0 L 166.5 145.0 L 172.5 144.0 L 178.5 143.5 L 183.0 144.0 L 185.5 146.0 L 186.0 148.0 L 186.0 150.0 L 186.0 152.0 L 186.0 154.5 L 185.0 157.5 L 184.0 160.0 L 183.5 162.0 L 183.0 163.0 L 183.0 163.0 " stroke="black" fill="none" stroke-width="7.0" stroke-linecap="round" stroke-linejoin="round" />
<path d="M 164.0 157.0 L 164.0 157.0 L 163.5 157.0 L 163.0 157.0 L 164.0 157.0 L 167.0 156.0 L 170.5 155.5 L 174.5 155.0 L 176.5 155.0 " stroke="black" fill="none" stroke-width="7.0" stroke-linecap="round" stroke-linejoin="round" />
<path d="M 158.0 165.5 L 158.0 166.0 L 158.0 166.0 L 158.5 166.5 L 161.0 166.5 L 166.5 165.5 L 173.5 163.5 L 180.0 162.0 L 183.0 161.5 " stroke="black" fill="none" stroke-width="7.0" stroke-linecap="round" stroke-linejoin="round" />
<path d="M 155.5 179.5 L 156.5 179.5 L 158.0 179.5 L 161.5 179.5 L 166.5 178.5 L 173.0 176.0 L 179.0 173.0 " stroke="black" fill="none" stroke-width="7.0" stroke-linecap="round" stroke-linejoin="round" />
<path d="M 169.0 148.5 L 169.0 148.5 L 169.0 148.5 L 168.5 149.5 L 168.5 151.5 L 169.0 158.0 L 169.5 168.0 L 169.5 178.0 L 169.5 184.0 L 169.5 186.5 L 170.0 187.5 L 170.5 187.5 " stroke="black" fill="none" stroke-width="7.0" stroke-linecap="round" stroke-linejoin="round" />
<path d="M 151.5 196.0 L 151.5 196.0 L 152.0 196.0 L 152.0 196.0 L 153.5 196.0 L 157.5 195.5 L 163.5 194.0 L 171.0 193.0 L 177.5 192.5 L 183.5 192.0 L 187.5 191.5 L 190.5 191.5 L 193.5 191.5 L 195.5 191.5 L 197.0 191.5 L 197.0 191.0 L 197.0 190.5 " stroke="black" fill="none" stroke-width="7.0" stroke-linecap="round" stroke-linejoin="round" />
</svg>