<svg xmlns="http://www.w3.org/2000/svg" width="300" height="300" viewBox="0 0 300 300">
<path d="M 115.5 104.0 L 115.5 104.5 L 115.5 105.0 L 115.5 105.5 L 115.5 105.5 L 115.0 105.5 L 116.5 105.5 L 121.5 104.5 L 128.5 103.0 L 134.0 102.0 L 137.0 101.5 L 138.0 101.5 L 138.0 101.5 L 138.0 103.0 L 138.0 106.0 L 138.0 111.0 L 138.0 117.5 L 138.0 123.5 L 138.0 127.5 L 137.5 130.0 L 137.0 130.5 " stroke="black" fill="none" stroke-width="7.0" stroke-linecap="round" stroke-linejoin="round" />
<path d="M 123.5 119.0 L 122.5 119.0 L 120.5 118.5 L 120.0 118.5 L 120.0 118.5 L 122.0 118.5 L 125.5 118.5 L 129.5 119.0 L 132.5 119.0 L 135.0 118.0 L 135.5 117.5 " stroke="black" fill="none" stroke-width="7.0" stroke-linecap="round" stroke-linejoin="round" />
<path d="M 123.0 131.0 L 122.0 132.0 L 121.0 132.5 L 121.5 132.5 L 124.0 132.5 L 127.5 132.5 L 131.0 132.5 L 133.5 132.5 L 134.0 131.0 " stroke="black" fill="none" stroke-width="7.0" stroke-linecap="round" stroke-linejoin="round" />
<path d="M 119.0 106.5 L 119.0 106.0 L 119.0 105.5 L 119.0 105.0 L 118.5 105.0 L 118.5 107.0 L 118.5 114.0 L 118.5 128.0 L 118.5 146.0 L 118.5 163.5 L 118.5 176.0 L 118.5 183.5 L 119.0 188.0 L 119.0 188.5 L 118.0 187.0 L 117.5 186.5 " stroke="black" fill="none" stroke-width="7.0" stroke-linecap="round" stroke-linejoin="round" />
<path d="M 152.5 106.5 L 152.5 106.5 L 153.0 105.5 L 153.5 105.0 L 153.5 105.0 L 153.5 105.0 L 153.5 105.5 L 153.5 108.5 L 153.5 115.0 L 153.5 121.5 L 153.5 124.5 L 153.5 127.5 " stroke="black" fill="none" stroke-width="7.0" stroke-linecap="round" stroke-linejoin="round" />
<path d="M 153.0 107.5 L 153.0 107.0 L 152.5 107.0 L 152.5 106.5 L 152.5 106.5 L 153.0 106.0 L 155.0 106.0 L 159.0 105.0 L 164.0 104.5 L 170.0 104.0 L 174.5 103.5 L 176.5 103.5 L 177.0 103.5 L 176.5 103.5 L 176.0 103.5 L 176.0 103.5 L 176.0 103.5 L 176.0 104.0 L 176.0 105.5 L 176.0 107.5 L 176.5 112.0 L 177.5 119.5 L 178.5 129.5 L 179.0 140.5 L 179.5 150.5 L 179.5 159.0 L 179.0 169.0 L 178.0 179.0 L 177.0 186.5 L 176.5 191.5 L 176.0 195.5 L 175.5 197.0 L 175.0 197.5 L 174.0 197.5 L 172.5 196.0 L 169.0 192.0 L 165.0 185.5 L 163.5 182.5 " stroke="black" fill="none" stroke-width="7.0" stroke-linecap="round" stroke-linejoin="round" />
<path d="M 158.0 119.0 L 158.0 119.0 L 158.0 118.5 L 158.0 118.0 L 158.5 118.0 L 161.5 118.0 L 166.0 117.5 L 170.0 117.5 L 172.0 117.5 L 173.5 118.0 L 173.5 118.0 " stroke="black" fill="none" stroke-width="7.0" stroke-linecap="round" stroke-linejoin="round" />
<path d="M 156.0 128.5 L 156.0 129.0 L 156.0 129.0 L 156.5 129.5 L 157.0 129.5 L 159.0 129.5 L 163.0 129.5 L 166.5 129.5 L 169.5 129.0 L 170.0 128.5 " stroke="black" fill="none" stroke-width="7.0" stroke-linecap="round" stroke-linejoin="round" />
<path d="M 133.5 149.5 L 133.5 150.0 L 133.5 150.5 L 133.5 150.5 L 134.0 150.5 L 138.0 150.5 L 144.5 150.0 L 151.5 149.5 L 157.0 149.0 L 160.0 148.5 L 160.5 148.0 L 160.5 148.0 L 160.0 147.5 " stroke="black" fill="none" stroke-width="7.0" stroke-linecap="round" stroke-linejoin="round" />
<path d="M 144.5 142.0 L 144.5 141.5 L 144.5 141.0 L 144.5 141.0 L 144.5 140.5 L 144.5 140.5 L 144.5 141.5 L 144.5 144.5 L 143.5 149.0 L 142.0 156.0 L 138.5 164.0 L 135.5 169.5 L 132.5 173.5 L 131.0 175.5 L 130.5 176.0 L 130.5 176.0 " stroke="black" fill="none" stroke-width="7.0" stroke-linecap="round" stroke-linejoin="round" />
<path d="M 149.5 161.0 L 149.5 161.0 L 150.0 160.5 L 150.5 159.5 L 150.5 159.5 L 151.0 159.5 L 151.0 159.5 L 149.5 162.5 L 146.5 167.5 L 143.0 174.0 L 140.5 178.0 L 140.0 179.0 L 140.0 179.0 L 141.5 178.0 L 144.0 177.0 L 147.5 175.5 L 150.5 174.5 L 153.0 173.5 L 155.0 173.0 L 156.0 172.5 " stroke="black" fill="none" stroke-width="7.0" stroke-linecap="round" stroke-linejoin="round" />
<path d="M 157.0 166.5 L 157.0 166.0 L 157.5 166.0 L 158.0 165.5 L 158.5 165.5 L 159.0 167.5 L 160.5 170.5 L 162.0 173.5 L 163.0 175.5 " stroke="black" fill="none" stroke-width="7.0" stroke-linecap="round" stroke-linejoin="round" />
</svg>