<svg xmlns="http://www.w3.org/2000/svg" width="300" height="300" viewBox="0 0 300 300">
<path d="M 117.5 121.5 L 117.0 121.5 L 117.0 121.0 L 117.0 120.5 L 119.5 120.5 L 123.5 119.5 L 127.5 119.5 L 131.0 119.0 L 133.0 119.0 L 134.0 119.5 L 134.5 121.5 L 134.5 125.0 L 134.0 129.5 L 133.5 134.0 L 133.0 137.0 L 133.0 137.5 " stroke="black" fill="none" stroke-width="6.0" stroke-linecap="round" stroke-linejoin="round" />
<path d="M 117.0 129.5 L 116.5 130.0 L 116.0 130.0 L 117.5 130.0 L 121.5 130.0 L 125.5 129.5 L 128.0 129.5 L 129.0 129.0 " stroke="black" fill="none" stroke-width="6.0" stroke-linecap="round" stroke-linejoin="round" />
<path d="M 118.0 141.0 L 117.5 141.0 L 117.0 141.0 L 116.5 141.0 L 118.0 140.5 L 121.5 140.0 L 125.0 139.5 L 128.5 139.5 L 129.5 139.5 " stroke="black" fill="none" stroke-width="6.0" stroke-linecap="round" stroke-linejoin="round" />
<path d="M 113.5 125.0 L 113.5 125.0 L 114.0 125.0 L 114.0 125.0 L 114.0 125.0 L 114.5 126.5 L 114.5 131.5 L 114.5 140.5 L 114.5 151.0 L 114.0 159.5 L 114.0 166.5 L 114.0 173.5 L 114.0 180.0 L 114.0 184.5 L 114.0 187.5 L 114.0 189.0 L 114.0 189.0 L 114.0 187.5 " stroke="black" fill="none" stroke-width="6.0" stroke-linecap="round" stroke-linejoin="round" />
<path d="M 148.0 119.5 L 148.0 119.5 L 147.5 119.0 L 147.5 119.0 L 147.5 120.5 L 147.5 126.0 L 147.5 132.5 L 147.5 138.0 L 147.5 139.5 L 147.5 139.5 " stroke="black" fill="none" stroke-width="6.0" stroke-linecap="round" stroke-linejoin="round" />
<path d="M 150.0 120.0 L 149.0 120.0 L 148.0 119.5 L 148.0 119.5 L 148.0 119.5 L 149.5 120.0 L 152.0 120.5 L 156.0 121.0 L 160.0 121.0 L 164.5 121.0 L 167.5 121.5 L 169.0 121.5 L 169.5 121.5 L 169.5 121.5 L 169.5 121.5 L 170.0 121.5 L 170.0 121.5 L 170.0 122.0 L 170.0 122.5 L 170.0 124.0 L 170.0 126.0 L 170.0 129.5 L 169.0 134.5 L 168.5 140.0 L 168.5 146.5 L 168.0 153.0 L 168.0 160.0 L 168.0 166.0 L 168.0 171.0 L 168.0 175.0 L 168.0 179.5 L 168.0 184.0 L 168.0 188.0 L 168.0 191.5 L 167.5 194.0 L 167.0 195.5 L 166.0 196.0 L 165.0 196.0 L 163.0 194.0 L 160.5 190.0 " stroke="black" fill="none" stroke-width="6.0" stroke-linecap="round" stroke-linejoin="round" />
<path d="M 152.5 131.0 L 152.5 132.5 L 152.5 133.0 L 153.0 133.0 L 155.5 132.5 L 158.0 131.5 L 160.5 131.0 L 162.5 130.5 L 163.0 131.0 " stroke="black" fill="none" stroke-width="6.0" stroke-linecap="round" stroke-linejoin="round" />
<path d="M 153.5 142.5 L 153.0 142.5 L 152.5 142.5 L 153.0 143.0 L 156.0 143.0 L 158.5 143.5 L 161.5 143.5 L 162.5 143.5 " stroke="black" fill="none" stroke-width="6.0" stroke-linecap="round" stroke-linejoin="round" />
<path d="M 126.0 160.5 L 126.5 160.0 L 126.5 160.0 L 127.5 159.5 L 128.0 160.0 L 129.0 162.5 L 129.0 166.5 L 129.0 172.0 L 129.0 177.0 L 128.5 178.5 L 128.5 178.0 " stroke="black" fill="none" stroke-width="6.0" stroke-linecap="round" stroke-linejoin="round" />
<path d="M 131.5 158.0 L 130.5 158.5 L 130.0 159.0 L 130.0 159.5 L 132.0 160.0 L 135.0 160.0 L 138.0 160.0 L 140.5 160.0 L 142.5 160.0 L 144.0 159.5 L 145.0 159.5 L 145.5 160.0 L 145.5 161.0 L 145.5 162.5 L 145.5 165.5 L 145.5 169.5 L 145.5 174.0 L 145.5 178.5 L 145.0 180.5 L 145.0 181.0 L 144.5 181.0 " stroke="black" fill="none" stroke-width="6.0" stroke-linecap="round" stroke-linejoin="round" />
<path d="M 133.5 171.5 L 133.5 172.0 L 133.5 173.0 L 133.5 173.0 L 136.0 173.0 L 139.5 172.0 L 142.5 171.0 L 144.5 171.0 L 145.0 171.0 " stroke="black" fill="none" stroke-width="6.0" stroke-linecap="round" stroke-linejoin="round" />
<path d="M 132.5 181.0 L 131.0 181.5 L 130.5 182.5 L 132.0 183.0 L 136.0 183.0 L 140.0 182.5 L 143.5 182.0 L 146.0 181.5 " stroke="black" fill="none" stroke-width="6.0" stroke-linecap="round" stroke-linejoin="round" />
</svg>