<svg xmlns="http://www.w3.org/2000/svg" width="300" height="300" viewBox="0 0 300 300">
<path d="M 124.0 106.5 L 123.0 107.0 L 122.0 107.0 L 122.0 107.0 L 123.5 107.0 L 127.0 106.5 L 131.5 105.5 L 136.5 104.0 L 141.0 103.0 L 144.0 102.5 L 145.0 102.5 L 146.0 103.5 L 146.0 106.5 L 146.0 110.0 L 145.5 114.5 L 145.0 117.5 L 144.5 119.5 L 144.0 120.0 L 143.5 120.0 " stroke="black" fill="none" stroke-width="7.0" stroke-linecap="round" stroke-linejoin="round" />
<path d="M 130.0 113.5 L 129.5 114.0 L 128.5 114.5 L 128.5 115.0 L 129.0 115.0 L 132.5 115.0 L 138.0 114.5 L 142.5 113.5 L 145.0 112.5 L 145.0 112.5 " stroke="black" fill="none" stroke-width="7.0" stroke-linecap="round" stroke-linejoin="round" />
<path d="M 129.5 125.0 L 129.5 125.0 L 128.5 125.0 L 128.0 125.5 L 130.0 125.5 L 134.0 125.5 L 137.5 124.5 L 140.0 123.5 L 140.5 123.5 " stroke="black" fill="none" stroke-width="7.0" stroke-linecap="round" stroke-linejoin="round" />
<path d="M 120.5 110.0 L 120.0 110.0 L 119.5 110.0 L 119.5 110.0 L 120.0 111.5 L 121.5 118.0 L 122.5 131.5 L 123.5 148.5 L 125.0 164.0 L 126.0 173.5 L 127.0 177.5 L 127.5 178.0 L 127.5 177.0 " stroke="black" fill="none" stroke-width="7.0" stroke-linecap="round" stroke-linejoin="round" />
<path d="M 156.5 105.0 L 156.5 104.0 L 157.0 103.5 L 157.0 103.0 L 157.5 105.0 L 157.5 110.0 L 157.5 116.0 L 157.5 121.0 L 157.5 124.0 L 157.5 124.0 " stroke="black" fill="none" stroke-width="7.0" stroke-linecap="round" stroke-linejoin="round" />
<path d="M 160.0 105.0 L 159.5 105.0 L 159.0 104.5 L 158.5 104.0 L 158.5 104.0 L 160.5 104.0 L 163.5 103.0 L 167.0 102.0 L 171.0 101.5 L 175.0 101.0 L 178.0 101.0 L 179.5 101.0 L 179.5 102.0 L 180.0 103.0 L 180.0 105.0 L 180.5 108.5 L 180.5 114.0 L 181.0 123.0 L 182.5 134.0 L 184.5 145.5 L 186.0 156.0 L 186.5 165.5 L 186.5 174.0 L 185.5 180.0 L 184.0 182.5 L 181.5 183.5 L 178.5 182.5 L 175.5 179.5 L 173.0 176.0 " stroke="black" fill="none" stroke-width="7.0" stroke-linecap="round" stroke-linejoin="round" />
<path d="M 159.0 114.0 L 158.5 115.0 L 158.0 115.5 L 158.5 116.0 L 161.0 116.0 L 165.0 115.0 L 169.5 113.5 L 172.5 112.0 L 174.0 112.0 L 174.0 112.5 " stroke="black" fill="none" stroke-width="7.0" stroke-linecap="round" stroke-linejoin="round" />
<path d="M 160.5 128.0 L 160.0 128.0 L 160.0 128.0 L 159.5 128.0 L 161.5 128.0 L 166.5 128.0 L 171.5 127.5 L 175.0 127.0 L 176.5 126.0 L 177.0 126.0 " stroke="black" fill="none" stroke-width="7.0" stroke-linecap="round" stroke-linejoin="round" />
<path d="M 142.0 141.0 L 142.0 140.5 L 141.5 140.0 L 142.0 140.0 L 144.5 140.0 L 149.5 140.0 L 154.0 140.0 L 157.5 139.5 L 158.5 139.0 L 158.5 138.5 " stroke="black" fill="none" stroke-width="7.0" stroke-linecap="round" stroke-linejoin="round" />
<path d="M 150.0 128.0 L 150.0 128.0 L 150.0 128.0 L 149.5 128.0 L 149.5 128.0 L 149.5 129.0 L 150.5 134.0 L 151.5 141.0 L 152.0 146.5 L 152.0 148.5 " stroke="black" fill="none" stroke-width="7.0" stroke-linecap="round" stroke-linejoin="round" />
<path d="M 139.5 153.0 L 139.5 153.0 L 139.0 153.0 L 138.5 153.0 L 140.0 153.0 L 145.0 152.5 L 151.5 152.0 L 160.0 151.5 L 165.0 151.0 L 167.5 151.0 " stroke="black" fill="none" stroke-width="7.0" stroke-linecap="round" stroke-linejoin="round" />
<path d="M 145.5 167.5 L 144.0 167.0 L 143.5 167.0 L 144.0 167.0 L 147.5 167.0 L 151.5 167.0 L 155.5 167.0 L 158.0 166.5 L 158.5 166.5 " stroke="black" fill="none" stroke-width="7.0" stroke-linecap="round" stroke-linejoin="round" />
<path d="M 153.0 157.5 L 153.0 158.0 L 153.0 158.5 L 153.0 159.5 L 153.0 160.5 L 153.0 163.5 L 153.5 168.0 L 154.0 172.0 L 154.0 174.5 " stroke="black" fill="none" stroke-width="7.0" stroke-linecap="round" stroke-linejoin="round" />
<path d="M 141.5 181.5 L 141.5 181.5 L 141.0 181.0 L 141.0 181.0 L 143.5 180.5 L 149.5 180.0 L 157.5 179.0 L 164.5 178.5 L 168.0 178.0 " stroke="black" fill="none" stroke-width="7.0" stroke-linecap="round" stroke-linejoin="round" />
</svg>