<svg xmlns="http://www.w3.org/2000/svg" width="300" height="300" viewBox="0 0 300 300">
<path d="M 127.0 107.5 L 126.5 107.0 L 125.5 106.5 L 125.0 106.5 L 125.0 106.5 L 125.0 106.5 L 126.5 108.0 L 129.0 112.0 L 131.0 114.5 L 132.5 116.0 L 132.5 116.5 " stroke="black" fill="none" stroke-width="6.0" stroke-linecap="round" stroke-linejoin="round" />
<path d="M 112.5 121.5 L 113.0 121.5 L 113.0 121.5 L 114.0 121.5 L 116.5 122.0 L 120.5 122.5 L 130.5 123.0 L 135.5 122.5 L 139.0 121.5 L 140.5 121.5 L 141.0 121.5 L 141.5 122.5 " stroke="black" fill="none" stroke-width="6.0" stroke-linecap="round" stroke-linejoin="round" />
<path d="M 116.5 130.5 L 117.0 130.0 L 117.5 129.5 L 117.5 129.0 L 117.5 129.0 L 117.5 129.0 L 117.5 130.5 L 115.0 136.0 L 113.0 139.5 L 110.5 143.0 L 107.5 146.0 L 106.5 146.5 " stroke="black" fill="none" stroke-width="6.0" stroke-linecap="round" stroke-linejoin="round" />
<path d="M 112.0 140.5 L 113.5 141.5 L 113.5 142.0 L 114.5 143.0 L 116.5 143.5 L 118.5 144.0 L 123.0 144.0 L 123.5 144.0 " stroke="black" fill="none" stroke-width="6.0" stroke-linecap="round" stroke-linejoin="round" />
<path d="M 134.0 131.0 L 134.5 131.0 L 135.0 130.5 L 135.0 130.0 L 135.0 130.0 L 133.0 133.0 L 132.0 136.0 L 129.5 141.5 L 128.0 146.0 L 127.0 147.5 " stroke="black" fill="none" stroke-width="6.0" stroke-linecap="round" stroke-linejoin="round" />
<path d="M 132.0 139.5 L 132.5 139.5 L 133.0 139.5 L 135.0 140.0 L 137.0 141.5 L 140.5 143.5 L 142.5 144.5 L 143.0 145.5 " stroke="black" fill="none" stroke-width="6.0" stroke-linecap="round" stroke-linejoin="round" />
<path d="M 109.5 158.5 L 109.5 158.5 L 109.5 158.5 L 109.5 158.5 L 109.5 159.0 L 110.5 159.0 L 113.0 159.0 L 119.5 159.0 L 129.0 159.0 L 134.0 158.5 L 136.0 158.0 L 136.5 157.5 L 136.0 157.5 L 135.0 157.0 " stroke="black" fill="none" stroke-width="6.0" stroke-linecap="round" stroke-linejoin="round" />
<path d="M 123.0 151.0 L 123.0 151.0 L 122.0 151.0 L 121.5 152.0 L 121.0 152.5 L 121.5 157.0 L 122.5 164.5 L 122.5 173.0 L 122.5 181.0 L 122.5 185.0 L 122.5 187.5 L 122.5 188.0 L 122.5 188.5 L 122.0 188.5 " stroke="black" fill="none" stroke-width="6.0" stroke-linecap="round" stroke-linejoin="round" />
<path d="M 108.5 171.0 L 108.5 171.0 L 109.0 171.0 L 109.0 171.0 L 109.5 171.0 L 109.5 170.5 L 110.0 170.0 L 110.0 170.0 L 110.0 169.5 L 110.0 169.5 L 110.5 169.0 L 110.5 169.0 L 110.5 169.0 L 110.5 169.0 L 110.5 169.0 L 110.5 169.5 L 110.0 171.0 L 109.0 174.5 L 108.0 177.5 L 105.5 183.0 L 104.5 185.5 L 103.5 186.5 L 103.5 185.5 " stroke="black" fill="none" stroke-width="6.0" stroke-linecap="round" stroke-linejoin="round" />
<path d="M 128.5 173.0 L 128.5 173.5 L 129.0 174.0 L 130.5 176.0 L 132.5 178.0 L 136.5 181.0 L 138.5 181.5 L 139.0 181.0 " stroke="black" fill="none" stroke-width="6.0" stroke-linecap="round" stroke-linejoin="round" />
<path d="M 159.5 114.0 L 160.0 114.0 L 160.5 114.5 L 161.0 115.0 L 160.0 115.0 L 156.0 119.0 L 154.0 121.0 L 148.5 126.5 L 146.5 128.0 L 146.0 129.0 L 146.0 129.0 " stroke="black" fill="none" stroke-width="6.0" stroke-linecap="round" stroke-linejoin="round" />
<path d="M 156.0 124.0 L 156.0 124.0 L 156.0 124.0 L 156.0 124.0 L 156.0 124.0 L 156.0 124.5 L 156.5 128.0 L 156.5 134.5 L 156.5 144.0 L 156.0 154.0 L 155.5 163.5 L 154.5 170.5 L 154.0 175.0 L 153.5 178.5 L 153.0 181.0 L 153.0 184.0 L 153.0 185.5 L 153.0 185.5 L 153.0 185.5 L 153.0 185.0 " stroke="black" fill="none" stroke-width="6.0" stroke-linecap="round" stroke-linejoin="round" />
<path d="M 173.0 115.0 L 172.5 115.0 L 172.0 115.0 L 171.5 115.0 L 171.5 115.0 L 172.5 117.0 L 174.0 119.5 L 176.0 122.0 L 177.0 124.5 " stroke="black" fill="none" stroke-width="6.0" stroke-linecap="round" stroke-linejoin="round" />
<path d="M 168.0 131.5 L 167.5 131.5 L 165.5 131.5 L 165.0 131.5 L 165.0 131.5 L 167.5 132.0 L 169.0 132.0 L 174.0 132.0 L 176.5 131.5 L 179.5 131.0 " stroke="black" fill="none" stroke-width="6.0" stroke-linecap="round" stroke-linejoin="round" />
<path d="M 166.5 146.5 L 165.0 146.5 L 164.5 146.0 L 164.5 145.5 L 166.5 145.5 L 169.5 145.5 L 172.5 146.0 L 175.0 146.0 L 177.0 146.5 L 177.5 146.5 " stroke="black" fill="none" stroke-width="6.0" stroke-linecap="round" stroke-linejoin="round" />
<path d="M 169.0 161.0 L 168.5 161.5 L 167.0 162.5 L 167.0 162.5 L 168.0 162.5 L 170.5 162.0 L 173.0 162.0 L 176.0 162.0 L 178.0 162.5 " stroke="black" fill="none" stroke-width="6.0" stroke-linecap="round" stroke-linejoin="round" />
<path d="M 173.5 136.0 L 173.5 136.0 L 173.0 136.5 L 173.0 136.5 L 173.0 136.5 L 173.0 136.5 L 173.0 137.5 L 173.0 141.5 L 173.0 148.5 L 173.0 156.5 L 173.0 164.0 L 172.5 169.0 L 172.0 172.0 L 171.5 174.5 L 172.0 177.0 L 172.5 178.0 " stroke="black" fill="none" stroke-width="6.0" stroke-linecap="round" stroke-linejoin="round" />
<path d="M 166.0 179.0 L 166.0 179.0 L 165.5 179.5 L 165.5 180.0 L 166.0 180.5 L 169.0 181.0 L 173.0 181.5 L 177.0 182.0 L 180.5 182.0 L 181.5 181.5 " stroke="black" fill="none" stroke-width="6.0" stroke-linecap="round" stroke-linejoin="round" />
</svg>