<svg xmlns="http://www.w3.org/2000/svg" width="300" height="300" viewBox="0 0 300 300">
<path d="M 70.0 84.0 L 70.0 84.0 L 69.0 84.0 L 69.0 84.0 L 71.0 84.0 L 74.0 83.0 L 78.0 83.0 L 82.0 83.0 L 87.0 83.0 L 93.0 82.0 L 97.0 81.0 L 99.0 80.0 L 100.0 80.0 L 100.0 80.0 L 101.0 80.0 L 103.0 81.0 L 105.0 83.0 L 107.0 85.0 L 109.0 86.0 L 111.0 88.0 L 111.0 90.0 L 112.0 91.0 L 112.0 92.0 L 112.0 93.0 L 112.0 94.0 L 111.0 96.0 L 111.0 98.0 L 110.0 101.0 L 109.0 104.0 L 108.0 106.0 L 107.0 110.0 L 106.0 113.0 L 104.0 117.0 L 103.0 121.0 L 102.0 123.0 L 101.0 125.0 L 101.0 126.0 L 101.0 127.0 L 101.0 128.0 L 101.0 128.0 L 101.0 128.0 L 101.0 128.0 L 102.0 129.0 L 103.0 130.0 L 103.0 132.0 L 104.0 135.0 L 105.0 140.0 L 106.0 147.0 L 106.0 155.0 L 107.0 162.0 L 108.0 168.0 L 109.0 173.0 L 109.0 178.0 L 109.0 184.0 L 109.0 189.0 L 108.0 192.0 L 107.0 193.0 L 105.0 193.0 L 102.0 190.0 L 99.0 186.0 L 96.0 182.0 L 94.0 180.0 " stroke="black" fill="none" stroke-width="12.0" stroke-linecap="round" stroke-linejoin="round" />
<path d="M 72.0 90.0 L 72.0 90.0 L 72.0 89.0 L 72.0 90.0 L 72.0 97.0 L 73.0 111.0 L 74.0 135.0 L 74.0 166.0 L 72.0 197.0 L 71.0 217.0 L 71.0 228.0 L 72.0 233.0 L 72.0 235.0 " stroke="black" fill="none" stroke-width="12.0" stroke-linecap="round" stroke-linejoin="round" />
<path d="M 144.0 81.0 L 142.0 81.0 L 142.0 81.0 L 142.0 85.0 L 143.0 94.0 L 144.0 109.0 L 144.0 127.0 L 145.0 136.0 L 145.0 138.0 " stroke="black" fill="none" stroke-width="12.0" stroke-linecap="round" stroke-linejoin="round" />
<path d="M 150.0 75.0 L 148.0 76.0 L 147.0 76.0 L 147.0 76.0 L 150.0 76.0 L 157.0 76.0 L 167.0 75.0 L 180.0 73.0 L 192.0 73.0 L 201.0 74.0 L 205.0 77.0 L 206.0 80.0 L 206.0 82.0 L 205.0 84.0 L 205.0 89.0 L 205.0 97.0 L 204.0 107.0 L 201.0 122.0 L 198.0 137.0 L 196.0 144.0 L 196.0 144.0 " stroke="black" fill="none" stroke-width="12.0" stroke-linecap="round" stroke-linejoin="round" />
<path d="M 152.0 114.0 L 151.0 114.0 L 151.0 114.0 L 153.0 112.0 L 163.0 110.0 L 176.0 108.0 L 188.0 106.0 L 193.0 106.0 " stroke="black" fill="none" stroke-width="12.0" stroke-linecap="round" stroke-linejoin="round" />
<path d="M 157.0 143.0 L 156.0 143.0 L 156.0 143.0 L 163.0 143.0 L 174.0 139.0 L 185.0 137.0 L 194.0 136.0 L 197.0 135.0 " stroke="black" fill="none" stroke-width="12.0" stroke-linecap="round" stroke-linejoin="round" />
<path d="M 134.0 159.0 L 133.0 159.0 L 131.0 159.0 L 131.0 160.0 L 133.0 160.0 L 142.0 160.0 L 157.0 158.0 L 181.0 156.0 L 204.0 152.0 L 223.0 148.0 L 228.0 148.0 " stroke="black" fill="none" stroke-width="12.0" stroke-linecap="round" stroke-linejoin="round" />
<path d="M 154.0 164.0 L 155.0 164.0 L 156.0 164.0 L 157.0 164.0 L 158.0 164.0 L 159.0 168.0 L 154.0 178.0 L 145.0 192.0 L 137.0 202.0 L 132.0 206.0 L 131.0 206.0 L 131.0 205.0 " stroke="black" fill="none" stroke-width="12.0" stroke-linecap="round" stroke-linejoin="round" />
<path d="M 153.0 194.0 L 152.0 194.0 L 149.0 194.0 L 148.0 194.0 L 149.0 193.0 L 157.0 192.0 L 172.0 190.0 L 189.0 188.0 L 208.0 186.0 L 222.0 185.0 L 225.0 185.0 L 225.0 186.0 L 222.0 187.0 L 221.0 188.0 L 220.0 190.0 L 220.0 194.0 L 219.0 201.0 L 216.0 214.0 L 211.0 232.0 L 206.0 246.0 L 202.0 255.0 L 197.0 256.0 L 192.0 253.0 L 189.0 248.0 " stroke="black" fill="none" stroke-width="12.0" stroke-linecap="round" stroke-linejoin="round" />
<path d="M 168.0 200.0 L 168.0 200.0 L 169.0 200.0 L 170.0 200.0 L 170.0 200.0 L 170.0 201.0 L 167.0 208.0 L 158.0 222.0 L 147.0 235.0 L 141.0 239.0 " stroke="black" fill="none" stroke-width="12.0" stroke-linecap="round" stroke-linejoin="round" />
<path d="M 193.0 189.0 L 191.0 190.0 L 190.0 192.0 L 189.0 198.0 L 187.0 210.0 L 180.0 228.0 L 166.0 246.0 L 155.0 257.0 L 151.0 259.0 " stroke="black" fill="none" stroke-width="12.0" stroke-linecap="round" stroke-linejoin="round" />
</svg>