<svg xmlns="http://www.w3.org/2000/svg" width="300" height="300" viewBox="0 0 300 300">
<path d="M 122.5 121.5 L 121.0 122.0 L 119.5 122.5 L 119.0 122.5 L 119.5 122.0 L 122.0 121.0 L 124.5 120.5 L 127.0 120.0 L 130.0 120.0 L 132.0 122.0 L 132.5 124.5 L 132.5 127.0 L 131.0 130.0 L 129.5 132.0 L 128.5 133.5 L 128.0 134.0 L 128.5 135.0 L 130.0 137.0 L 131.5 139.5 L 133.5 142.5 L 134.5 145.5 L 134.0 147.5 L 132.5 149.0 L 130.5 150.0 L 128.5 150.0 L 126.5 149.0 L 124.5 147.0 " stroke="black" fill="none" stroke-width="6.0" stroke-linecap="round" stroke-linejoin="round" />
<path d="M 116.5 125.5 L 116.5 125.5 L 116.5 125.0 L 116.5 125.0 L 117.0 126.5 L 118.0 134.0 L 120.0 150.0 L 120.5 168.0 L 120.5 183.0 L 120.5 192.5 L 120.5 194.5 L 121.0 193.5 L 122.0 190.5 " stroke="black" fill="none" stroke-width="6.0" stroke-linecap="round" stroke-linejoin="round" />
<path d="M 144.5 121.5 L 143.0 121.5 L 141.5 121.5 L 141.0 121.5 L 142.5 121.5 L 145.5 120.5 L 148.5 119.5 L 152.0 118.5 L 156.0 117.5 L 159.0 117.0 L 162.0 117.0 L 163.5 117.5 L 164.0 118.0 L 164.5 118.0 L 164.5 118.5 L 165.0 119.0 L 165.0 119.0 L 165.0 119.0 L 165.0 119.0 L 165.0 119.5 L 165.0 120.5 L 164.5 123.0 L 164.5 126.5 L 164.5 129.5 L 164.5 131.5 L 164.5 133.5 L 164.5 134.5 L 164.5 134.5 " stroke="black" fill="none" stroke-width="6.0" stroke-linecap="round" stroke-linejoin="round" />
<path d="M 147.5 132.5 L 147.0 132.5 L 146.5 132.5 L 147.0 132.5 L 149.5 132.0 L 154.0 131.5 L 158.5 131.0 L 162.5 130.5 L 165.5 130.0 L 166.0 130.0 " stroke="black" fill="none" stroke-width="6.0" stroke-linecap="round" stroke-linejoin="round" />
<path d="M 149.5 143.0 L 149.0 143.0 L 148.5 142.5 L 148.0 142.5 L 149.0 142.0 L 152.0 141.5 L 156.5 141.0 L 161.0 141.0 L 165.5 140.5 L 167.5 140.5 " stroke="black" fill="none" stroke-width="6.0" stroke-linecap="round" stroke-linejoin="round" />
<path d="M 141.0 124.5 L 141.0 124.5 L 141.0 124.5 L 141.0 124.5 L 141.0 124.0 L 141.0 124.0 L 141.0 124.5 L 141.5 127.0 L 142.5 132.0 L 143.5 141.0 L 145.0 151.5 L 145.5 160.0 L 145.5 166.5 L 145.5 172.0 L 145.5 177.0 L 146.0 180.5 L 146.0 182.5 L 146.5 183.5 L 146.5 183.5 L 146.5 183.5 L 146.5 183.5 L 146.5 183.0 L 147.0 182.5 L 148.0 181.5 L 149.0 180.5 L 150.5 178.5 L 152.0 177.0 L 153.5 175.0 L 154.5 173.0 L 156.0 172.0 L 157.0 171.0 L 157.5 171.0 " stroke="black" fill="none" stroke-width="6.0" stroke-linecap="round" stroke-linejoin="round" />
<path d="M 172.0 147.5 L 172.0 147.5 L 172.0 147.5 L 172.0 147.5 L 172.0 147.5 L 171.5 149.5 L 170.0 153.0 L 168.5 157.5 L 167.0 161.0 L 166.0 162.0 " stroke="black" fill="none" stroke-width="6.0" stroke-linecap="round" stroke-linejoin="round" />
<path d="M 152.0 150.0 L 152.0 150.0 L 152.5 150.5 L 153.5 151.5 L 158.0 156.0 L 167.0 167.0 L 175.0 176.0 L 180.0 178.5 L 184.0 179.5 L 185.0 178.5 " stroke="black" fill="none" stroke-width="6.0" stroke-linecap="round" stroke-linejoin="round" />
</svg>