<svg xmlns="http://www.w3.org/2000/svg" width="300" height="300" viewBox="0 0 300 300">
<path d="M 96.5 95.0 L 95.0 95.0 L 94.0 95.0 L 94.0 95.0 L 94.5 94.5 L 98.0 93.5 L 103.5 92.5 L 109.5 92.5 L 115.5 92.5 L 118.5 93.5 L 119.5 94.5 L 118.0 96.5 L 115.5 99.0 L 112.0 102.5 L 109.0 106.0 L 106.5 108.0 L 105.5 109.5 L 105.5 110.5 L 105.5 110.5 L 105.5 110.5 L 107.0 110.5 L 108.5 111.5 L 111.0 113.0 L 113.0 115.5 L 115.0 120.0 L 116.5 127.5 L 117.0 136.0 L 117.0 143.0 L 117.0 148.0 L 116.5 152.0 L 115.5 155.5 L 114.0 157.5 L 111.5 158.5 L 107.5 158.5 L 103.5 155.0 L 101.0 149.5 L 100.5 148.0 " stroke="black" fill="none" stroke-width="9.0" stroke-linecap="round" stroke-linejoin="round" />
<path d="M 90.0 101.0 L 90.5 101.0 L 91.5 100.5 L 92.5 101.5 L 93.0 104.5 L 93.0 112.5 L 93.0 127.0 L 94.0 145.5 L 95.0 164.0 L 96.0 180.5 L 96.5 193.5 L 97.0 203.0 L 97.0 210.0 L 97.0 212.0 L 96.5 210.5 " stroke="black" fill="none" stroke-width="9.0" stroke-linecap="round" stroke-linejoin="round" />
<path d="M 161.5 89.0 L 161.5 89.0 L 161.5 89.0 L 162.0 89.0 L 162.0 89.5 L 160.0 93.5 L 154.5 103.5 L 146.0 114.5 L 141.0 120.5 L 139.5 120.5 L 139.0 117.5 " stroke="black" fill="none" stroke-width="9.0" stroke-linecap="round" stroke-linejoin="round" />
<path d="M 166.5 91.0 L 166.5 91.0 L 167.0 91.0 L 170.0 92.5 L 176.0 97.5 L 184.5 104.5 L 194.0 109.5 L 201.5 110.5 L 205.5 111.0 L 205.5 112.5 " stroke="black" fill="none" stroke-width="9.0" stroke-linecap="round" stroke-linejoin="round" />
<path d="M 163.0 118.5 L 163.0 118.5 L 163.0 118.5 L 163.0 119.0 L 165.0 118.5 L 170.0 117.5 L 175.5 115.5 L 179.5 115.0 L 180.5 115.5 L 181.0 116.5 " stroke="black" fill="none" stroke-width="9.0" stroke-linecap="round" stroke-linejoin="round" />
<path d="M 151.5 136.0 L 151.5 136.0 L 151.0 136.0 L 151.0 136.0 L 154.5 135.5 L 162.5 132.0 L 172.5 128.5 L 180.5 127.0 L 184.5 127.5 L 186.0 129.0 L 186.5 131.0 L 186.5 132.0 L 186.0 134.0 L 185.0 138.0 L 183.0 142.0 L 181.5 146.0 L 180.5 148.5 L 180.5 149.0 L 180.0 149.0 " stroke="black" fill="none" stroke-width="9.0" stroke-linecap="round" stroke-linejoin="round" />
<path d="M 142.5 152.0 L 142.5 152.0 L 142.5 151.5 L 143.0 151.5 L 147.0 150.5 L 157.5 149.5 L 171.0 149.0 L 182.0 148.5 L 189.5 148.0 L 192.5 147.5 " stroke="black" fill="none" stroke-width="9.0" stroke-linecap="round" stroke-linejoin="round" />
<path d="M 148.5 171.0 L 148.5 170.5 L 148.5 169.5 L 149.5 169.0 L 154.0 167.5 L 164.0 166.5 L 176.0 166.0 L 184.5 165.5 L 189.5 165.5 L 189.5 166.0 L 189.5 166.0 " stroke="black" fill="none" stroke-width="9.0" stroke-linecap="round" stroke-linejoin="round" />
<path d="M 164.5 171.5 L 164.5 171.5 L 164.5 171.0 L 164.5 170.5 L 164.5 170.5 L 164.5 171.0 L 163.5 175.0 L 159.0 184.0 L 152.5 194.0 L 147.5 200.5 L 146.0 202.5 L 146.0 202.0 L 146.5 201.5 L 148.5 200.5 L 151.5 199.0 L 155.5 198.0 L 162.0 197.5 L 169.5 196.5 L 176.5 195.5 L 182.5 195.0 L 185.0 195.0 L 185.0 195.0 " stroke="black" fill="none" stroke-width="9.0" stroke-linecap="round" stroke-linejoin="round" />
<path d="M 180.0 185.5 L 180.0 185.5 L 180.0 185.5 L 180.5 186.0 L 183.5 190.0 L 189.0 197.5 L 195.0 204.0 L 199.0 206.5 L 200.0 206.5 " stroke="black" fill="none" stroke-width="9.0" stroke-linecap="round" stroke-linejoin="round" />
</svg>