<svg xmlns="http://www.w3.org/2000/svg" width="300" height="300" viewBox="0 0 300 300">
<path d="M 108.0 111.5 L 107.5 111.5 L 107.0 112.0 L 107.0 112.5 L 110.5 112.0 L 117.5 110.5 L 126.0 109.0 L 133.0 109.0 L 137.0 109.0 L 137.0 109.5 " stroke="black" fill="none" stroke-width="8.0" stroke-linecap="round" stroke-linejoin="round" />
<path d="M 115.0 120.5 L 115.5 120.0 L 116.5 118.5 L 116.5 118.5 L 116.5 119.0 L 116.5 121.0 L 116.0 125.5 L 114.5 132.0 L 112.0 140.0 L 109.5 145.5 L 108.0 147.5 L 108.0 147.0 L 108.5 145.5 L 111.5 144.5 L 116.5 144.0 L 124.0 144.0 L 133.0 143.0 L 140.5 141.5 L 143.0 140.5 L 143.0 140.5 L 142.5 140.5 L 142.5 140.5 " stroke="black" fill="none" stroke-width="8.0" stroke-linecap="round" stroke-linejoin="round" />
<path d="M 129.0 114.5 L 128.5 114.5 L 128.0 115.0 L 128.0 116.0 L 128.0 119.0 L 128.5 126.0 L 129.5 139.0 L 130.0 154.5 L 130.0 170.0 L 130.0 182.0 L 130.5 190.5 L 131.5 197.0 L 132.0 200.5 L 132.0 202.5 L 132.0 203.0 L 132.0 203.5 L 132.0 203.5 L 132.0 203.5 L 131.5 203.5 L 131.5 203.5 L 131.0 204.0 L 130.5 204.5 L 130.5 204.5 L 130.0 204.5 L 129.5 205.0 L 129.5 205.0 L 129.0 205.0 L 128.5 205.0 L 128.0 205.0 L 127.5 205.0 L 126.5 205.0 L 125.5 204.5 L 124.0 204.0 L 121.5 203.0 L 119.0 202.0 L 117.0 201.0 " stroke="black" fill="none" stroke-width="8.0" stroke-linecap="round" stroke-linejoin="round" />
<path d="M 124.0 151.0 L 124.0 150.5 L 123.5 150.5 L 123.5 150.5 L 123.5 152.0 L 122.5 158.0 L 118.0 171.5 L 111.0 184.0 L 107.0 189.0 L 106.0 189.0 L 106.0 188.0 " stroke="black" fill="none" stroke-width="8.0" stroke-linecap="round" stroke-linejoin="round" />
<path d="M 163.5 106.0 L 164.0 105.5 L 164.5 105.5 L 165.0 105.0 L 165.0 105.0 L 165.0 105.0 L 164.5 107.5 L 161.5 115.0 L 156.0 125.5 L 151.5 134.0 L 150.0 135.5 L 150.5 133.0 " stroke="black" fill="none" stroke-width="8.0" stroke-linecap="round" stroke-linejoin="round" />
<path d="M 161.0 124.5 L 161.0 124.5 L 162.0 124.0 L 162.5 124.0 L 163.5 126.0 L 165.0 133.5 L 167.0 149.0 L 167.5 170.0 L 167.5 189.0 L 166.0 200.0 L 165.0 205.5 L 165.0 205.5 L 165.0 202.5 " stroke="black" fill="none" stroke-width="8.0" stroke-linecap="round" stroke-linejoin="round" />
<path d="M 183.0 109.0 L 183.0 109.0 L 183.0 109.5 L 183.0 110.0 L 185.0 113.0 L 188.5 118.0 L 191.0 122.0 L 193.0 124.5 " stroke="black" fill="none" stroke-width="8.0" stroke-linecap="round" stroke-linejoin="round" />
<path d="M 181.0 137.0 L 180.5 137.5 L 179.5 138.0 L 179.5 138.5 L 180.5 138.5 L 185.0 137.0 L 190.5 136.0 L 196.0 135.0 L 200.5 135.0 L 202.0 135.5 " stroke="black" fill="none" stroke-width="8.0" stroke-linecap="round" stroke-linejoin="round" />
<path d="M 184.5 159.0 L 184.0 159.5 L 182.5 161.0 L 181.5 161.5 L 182.0 161.5 L 185.0 161.5 L 189.5 161.0 L 194.0 160.5 L 198.5 160.0 L 200.5 159.0 " stroke="black" fill="none" stroke-width="8.0" stroke-linecap="round" stroke-linejoin="round" />
<path d="M 184.0 182.5 L 183.5 182.5 L 183.0 183.0 L 183.0 183.0 L 184.5 183.0 L 188.5 183.0 L 193.5 182.0 L 198.5 180.0 L 199.5 179.5 " stroke="black" fill="none" stroke-width="8.0" stroke-linecap="round" stroke-linejoin="round" />
<path d="M 193.0 138.5 L 192.5 138.5 L 191.5 139.5 L 191.5 142.0 L 192.0 149.5 L 193.0 164.0 L 193.0 178.0 L 192.5 188.0 L 192.0 194.0 L 192.0 197.0 L 192.0 197.5 " stroke="black" fill="none" stroke-width="8.0" stroke-linecap="round" stroke-linejoin="round" />
<path d="M 178.5 207.0 L 179.0 206.5 L 179.0 206.5 L 180.0 206.0 L 185.0 205.0 L 196.5 202.5 L 209.5 200.5 L 218.5 200.5 " stroke="black" fill="none" stroke-width="8.0" stroke-linecap="round" stroke-linejoin="round" />
</svg>