<svg xmlns="http://www.w3.org/2000/svg" width="300" height="300" viewBox="0 0 300 300">
<path d="M 130.0 92.0 L 130.0 92.5 L 130.0 93.5 L 130.0 96.0 L 130.5 103.0 L 131.5 117.0 L 131.5 135.0 L 131.5 153.0 L 130.0 169.0 L 128.5 184.0 L 127.0 194.5 L 126.0 198.0 L 125.0 197.0 L 125.0 196.0 " stroke="black" fill="none" stroke-width="9.0" stroke-linecap="round" stroke-linejoin="round" />
<path d="M 100.0 123.5 L 99.5 123.5 L 99.5 123.5 L 101.5 123.5 L 107.0 122.0 L 114.5 120.5 L 120.5 120.0 L 124.0 119.5 L 124.5 120.0 " stroke="black" fill="none" stroke-width="9.0" stroke-linecap="round" stroke-linejoin="round" />
<path d="M 104.5 155.0 L 104.5 155.0 L 104.0 155.5 L 103.5 155.5 L 105.5 155.0 L 111.0 153.5 L 117.5 151.5 L 123.0 150.5 L 126.0 150.5 L 126.5 150.5 " stroke="black" fill="none" stroke-width="9.0" stroke-linecap="round" stroke-linejoin="round" />
<path d="M 101.0 177.5 L 100.0 178.0 L 100.0 178.5 L 102.5 178.5 L 109.0 178.0 L 119.0 175.5 L 128.5 171.5 L 132.5 169.5 " stroke="black" fill="none" stroke-width="9.0" stroke-linecap="round" stroke-linejoin="round" />
<path d="M 158.0 93.0 L 158.0 93.0 L 158.0 92.5 L 158.5 92.5 L 159.0 93.5 L 159.0 100.0 L 159.0 119.0 L 158.0 145.5 L 157.5 167.0 L 159.5 179.5 L 161.0 186.5 L 161.5 189.5 L 161.0 188.0 " stroke="black" fill="none" stroke-width="9.0" stroke-linecap="round" stroke-linejoin="round" />
<path d="M 162.5 114.0 L 162.0 114.0 L 161.0 115.5 L 160.0 116.0 L 162.0 116.0 L 167.0 115.0 L 174.0 112.5 L 180.0 111.0 L 184.5 110.5 L 186.5 111.5 " stroke="black" fill="none" stroke-width="9.0" stroke-linecap="round" stroke-linejoin="round" />
<path d="M 164.0 135.0 L 163.5 135.5 L 163.0 136.5 L 163.5 136.5 L 167.0 136.5 L 172.0 136.0 L 177.0 134.0 L 180.5 133.0 L 181.5 133.0 " stroke="black" fill="none" stroke-width="9.0" stroke-linecap="round" stroke-linejoin="round" />
<path d="M 165.5 165.5 L 165.5 165.5 L 165.0 165.0 L 166.5 164.5 L 171.5 164.0 L 180.0 163.0 L 187.5 161.5 L 192.5 160.5 " stroke="black" fill="none" stroke-width="9.0" stroke-linecap="round" stroke-linejoin="round" />
</svg>