<svg xmlns="http://www.w3.org/2000/svg" width="300" height="300" viewBox="0 0 300 300">
<path d="M 120.0 105.0 L 119.0 106.0 L 118.5 106.0 L 118.5 106.0 L 119.5 106.0 L 122.5 105.5 L 127.0 104.5 L 132.0 103.0 L 136.5 102.0 L 138.5 102.0 L 139.0 103.5 L 137.5 107.5 L 134.5 112.5 L 131.5 117.0 L 129.5 120.0 L 128.0 122.0 L 127.5 123.0 L 127.5 123.5 " stroke="black" fill="none" stroke-width="7.0" stroke-linecap="round" stroke-linejoin="round" />
<path d="M 124.5 116.5 L 124.0 116.5 L 123.5 116.0 L 124.5 116.5 L 128.0 117.5 L 132.0 119.5 L 138.0 121.0 L 143.0 121.5 L 143.5 122.0 " stroke="black" fill="none" stroke-width="7.0" stroke-linecap="round" stroke-linejoin="round" />
<path d="M 116.5 134.5 L 116.0 134.5 L 115.0 134.5 L 114.5 134.5 L 114.5 134.5 L 117.0 134.0 L 120.5 133.5 L 124.0 133.0 L 127.0 133.0 L 128.0 134.0 L 128.0 138.0 L 125.0 143.0 L 121.0 148.0 L 117.0 151.5 L 114.5 153.0 L 113.5 153.0 L 113.5 152.5 " stroke="black" fill="none" stroke-width="7.0" stroke-linecap="round" stroke-linejoin="round" />
<path d="M 118.0 145.0 L 116.5 144.5 L 116.0 144.5 L 117.0 144.5 L 120.5 144.5 L 124.0 145.5 L 128.0 146.5 L 131.5 147.5 " stroke="black" fill="none" stroke-width="7.0" stroke-linecap="round" stroke-linejoin="round" />
<path d="M 141.0 134.5 L 140.0 135.0 L 139.0 135.5 L 139.0 135.5 L 140.0 135.5 L 143.0 135.0 L 145.5 134.0 L 148.5 134.0 L 150.0 134.0 L 151.0 135.5 L 151.0 138.5 L 149.0 142.5 L 146.0 147.0 L 143.0 151.0 L 141.0 153.5 L 140.5 154.0 L 141.0 152.5 " stroke="black" fill="none" stroke-width="7.0" stroke-linecap="round" stroke-linejoin="round" />
<path d="M 141.0 145.5 L 139.5 145.5 L 139.0 145.5 L 141.0 145.5 L 144.5 146.5 L 148.0 148.0 L 151.0 150.0 L 151.5 150.0 " stroke="black" fill="none" stroke-width="7.0" stroke-linecap="round" stroke-linejoin="round" />
<path d="M 118.5 167.0 L 118.5 166.5 L 118.5 165.5 L 119.5 165.0 L 123.5 164.5 L 130.0 164.5 L 137.5 164.0 L 144.0 163.5 L 147.5 163.5 L 148.0 166.0 " stroke="black" fill="none" stroke-width="7.0" stroke-linecap="round" stroke-linejoin="round" />
<path d="M 132.5 157.0 L 132.5 157.0 L 132.5 157.5 L 132.5 158.0 L 132.5 159.5 L 133.0 165.5 L 133.0 176.5 L 133.0 188.0 L 133.0 195.0 L 133.5 197.0 L 134.0 196.0 L 134.0 194.5 " stroke="black" fill="none" stroke-width="7.0" stroke-linecap="round" stroke-linejoin="round" />
<path d="M 130.5 172.0 L 129.5 172.5 L 128.0 174.0 L 125.0 177.5 L 119.0 185.0 L 113.5 190.0 L 112.0 191.0 L 112.5 191.0 " stroke="black" fill="none" stroke-width="7.0" stroke-linecap="round" stroke-linejoin="round" />
<path d="M 135.5 175.5 L 135.5 175.5 L 135.5 176.0 L 137.5 178.0 L 142.5 180.5 L 147.0 182.0 L 150.0 182.5 " stroke="black" fill="none" stroke-width="7.0" stroke-linecap="round" stroke-linejoin="round" />
<path d="M 162.0 108.0 L 161.5 109.0 L 160.5 109.5 L 161.0 109.5 L 164.5 108.5 L 168.5 107.5 L 172.5 107.0 L 176.0 106.5 L 178.5 106.5 L 179.0 106.0 " stroke="black" fill="none" stroke-width="7.0" stroke-linecap="round" stroke-linejoin="round" />
<path d="M 173.0 110.5 L 172.5 111.0 L 172.0 111.0 L 172.0 112.0 L 171.0 115.0 L 169.0 120.5 L 167.0 125.0 L 166.5 127.5 L 166.5 127.5 " stroke="black" fill="none" stroke-width="7.0" stroke-linecap="round" stroke-linejoin="round" />
<path d="M 163.0 130.5 L 163.0 130.5 L 161.5 130.5 L 161.5 130.5 L 161.5 131.5 L 163.0 137.0 L 163.5 147.0 L 163.5 158.5 L 163.5 166.0 L 164.0 167.5 L 165.5 164.5 L 166.0 161.0 " stroke="black" fill="none" stroke-width="7.0" stroke-linecap="round" stroke-linejoin="round" />
<path d="M 166.5 130.5 L 164.5 131.0 L 163.5 131.0 L 164.5 131.0 L 166.5 131.0 L 170.0 130.0 L 174.0 129.0 L 178.5 128.0 L 183.5 128.0 L 187.0 131.0 L 188.5 139.0 L 187.5 149.0 L 185.5 159.5 L 184.0 166.0 L 183.5 168.5 L 183.5 169.0 L 184.0 167.0 " stroke="black" fill="none" stroke-width="7.0" stroke-linecap="round" stroke-linejoin="round" />
<path d="M 170.0 141.0 L 168.0 141.0 L 167.0 141.0 L 168.0 141.0 L 171.0 141.0 L 175.0 141.0 L 179.0 140.0 L 182.0 140.0 L 183.5 140.5 " stroke="black" fill="none" stroke-width="7.0" stroke-linecap="round" stroke-linejoin="round" />
<path d="M 171.5 154.0 L 171.0 155.0 L 170.5 155.5 L 171.5 155.0 L 173.5 154.0 L 176.5 154.0 L 179.5 154.0 L 182.0 154.0 L 183.5 153.5 " stroke="black" fill="none" stroke-width="7.0" stroke-linecap="round" stroke-linejoin="round" />
<path d="M 167.0 171.5 L 167.0 171.5 L 166.5 171.5 L 167.0 171.5 L 170.0 171.5 L 175.0 170.5 L 180.5 170.0 L 185.0 169.5 " stroke="black" fill="none" stroke-width="7.0" stroke-linecap="round" stroke-linejoin="round" />
<path d="M 171.0 180.0 L 171.0 180.0 L 171.0 180.5 L 170.5 181.5 L 168.5 185.0 L 164.0 189.5 L 160.5 192.5 L 159.5 193.5 L 161.5 193.0 " stroke="black" fill="none" stroke-width="7.0" stroke-linecap="round" stroke-linejoin="round" />
<path d="M 177.5 185.0 L 178.0 184.0 L 179.0 184.0 L 182.0 187.5 L 187.0 192.0 L 192.0 195.0 L 194.5 196.0 " stroke="black" fill="none" stroke-width="7.0" stroke-linecap="round" stroke-linejoin="round" />
</svg>