<svg xmlns="http://www.w3.org/2000/svg" width="300" height="300" viewBox="0 0 300 300">
<path d="M 117.5 116.0 L 117.5 116.5 L 117.0 117.0 L 117.0 117.0 L 118.0 117.0 L 121.0 116.0 L 125.0 115.0 L 130.0 113.5 L 134.0 113.0 L 137.0 112.5 L 138.0 112.0 " stroke="black" fill="none" stroke-width="6.0" stroke-linecap="round" stroke-linejoin="round" />
<path d="M 118.0 130.0 L 117.5 130.0 L 117.0 130.0 L 116.5 130.0 L 116.5 130.5 L 116.5 132.0 L 117.5 136.0 L 118.5 140.0 L 119.5 142.5 L 120.0 143.0 " stroke="black" fill="none" stroke-width="6.0" stroke-linecap="round" stroke-linejoin="round" />
<path d="M 119.5 130.0 L 118.5 130.0 L 118.0 129.5 L 119.0 129.0 L 122.5 127.5 L 126.0 126.5 L 130.0 125.5 L 133.5 124.5 L 136.5 124.5 L 137.5 125.0 L 138.0 126.0 L 138.0 128.0 L 137.0 131.0 L 136.5 134.5 L 136.0 137.5 L 135.5 140.0 L 134.5 142.0 L 134.5 142.0 " stroke="black" fill="none" stroke-width="6.0" stroke-linecap="round" stroke-linejoin="round" />
<path d="M 124.5 145.5 L 122.5 146.0 L 121.0 146.5 L 121.0 146.5 L 122.5 146.5 L 126.0 145.5 L 129.5 144.5 L 132.5 144.0 L 134.5 144.0 " stroke="black" fill="none" stroke-width="6.0" stroke-linecap="round" stroke-linejoin="round" />
<path d="M 122.0 159.5 L 120.5 160.5 L 120.0 161.0 L 120.5 162.0 L 122.5 163.5 L 124.5 165.5 L 127.0 166.5 L 128.5 167.0 " stroke="black" fill="none" stroke-width="6.0" stroke-linecap="round" stroke-linejoin="round" />
<path d="M 139.0 155.5 L 139.0 155.5 L 139.0 156.0 L 139.0 156.0 L 139.0 156.5 L 139.0 158.0 L 139.0 160.5 L 138.0 164.5 L 137.5 168.5 L 136.5 170.5 " stroke="black" fill="none" stroke-width="6.0" stroke-linecap="round" stroke-linejoin="round" />
<path d="M 126.0 184.0 L 125.5 184.0 L 124.0 185.0 L 123.5 185.5 L 124.0 185.5 L 126.0 184.5 L 129.0 183.0 L 133.0 181.0 L 137.5 179.0 L 143.5 177.0 L 145.0 176.5 " stroke="black" fill="none" stroke-width="6.0" stroke-linecap="round" stroke-linejoin="round" />
<path d="M 152.0 110.5 L 152.0 110.5 L 151.5 110.5 L 151.5 111.0 L 151.5 111.0 L 152.5 110.5 L 155.5 109.0 L 160.5 107.5 L 165.0 106.5 L 168.5 106.0 L 170.0 106.0 L 170.0 106.5 " stroke="black" fill="none" stroke-width="6.0" stroke-linecap="round" stroke-linejoin="round" />
<path d="M 162.0 109.5 L 162.0 109.5 L 162.0 109.5 L 162.0 110.0 L 162.0 110.0 L 162.0 111.0 L 162.0 113.0 L 161.0 115.5 L 160.0 118.5 L 159.5 120.5 " stroke="black" fill="none" stroke-width="6.0" stroke-linecap="round" stroke-linejoin="round" />
<path d="M 151.5 128.0 L 151.5 127.5 L 151.5 126.5 L 151.5 126.5 L 152.0 126.5 L 153.0 130.0 L 154.5 137.5 L 155.5 146.0 L 156.5 152.0 L 157.0 153.5 L 157.0 152.0 " stroke="black" fill="none" stroke-width="6.0" stroke-linecap="round" stroke-linejoin="round" />
<path d="M 155.5 126.5 L 155.0 126.5 L 154.5 126.0 L 154.5 126.0 L 154.5 126.0 L 157.0 125.5 L 161.0 125.0 L 167.0 124.0 L 172.5 123.0 L 176.0 122.5 L 177.0 123.0 L 176.5 124.5 L 176.0 127.0 L 175.0 131.0 L 174.5 137.5 L 174.5 144.0 L 174.5 149.0 L 174.5 152.5 L 174.5 155.0 L 175.0 155.5 L 175.0 155.0 " stroke="black" fill="none" stroke-width="6.0" stroke-linecap="round" stroke-linejoin="round" />
<path d="M 160.0 139.0 L 159.0 139.0 L 158.0 138.5 L 158.0 138.5 L 158.0 138.0 L 160.5 137.0 L 164.0 136.5 L 167.5 136.0 L 170.0 136.0 L 170.5 136.0 " stroke="black" fill="none" stroke-width="6.0" stroke-linecap="round" stroke-linejoin="round" />
<path d="M 161.0 148.5 L 161.0 148.5 L 161.0 148.0 L 161.0 147.5 L 162.0 147.0 L 164.0 146.5 L 166.5 146.0 L 170.0 146.0 L 172.5 146.0 " stroke="black" fill="none" stroke-width="6.0" stroke-linecap="round" stroke-linejoin="round" />
<path d="M 158.5 160.5 L 158.5 161.0 L 158.5 161.0 L 159.5 161.0 L 162.5 160.0 L 166.5 158.5 L 170.5 157.5 L 173.5 157.5 L 176.0 157.5 " stroke="black" fill="none" stroke-width="6.0" stroke-linecap="round" stroke-linejoin="round" />
<path d="M 168.0 168.5 L 168.0 167.5 L 168.0 167.0 L 168.0 166.0 L 168.0 166.0 L 167.5 166.0 L 165.0 169.0 L 161.5 173.0 L 159.0 176.5 L 158.5 178.5 L 158.5 178.5 " stroke="black" fill="none" stroke-width="6.0" stroke-linecap="round" stroke-linejoin="round" />
<path d="M 173.0 171.0 L 173.0 170.5 L 173.0 170.0 L 173.5 169.5 L 175.0 169.0 L 178.0 170.0 L 181.5 172.5 L 185.5 175.0 L 189.0 177.0 L 190.5 177.5 " stroke="black" fill="none" stroke-width="6.0" stroke-linecap="round" stroke-linejoin="round" />
</svg>