<svg xmlns="http://www.w3.org/2000/svg" width="300" height="300" viewBox="0 0 300 300">
<path d="M 102.5 90.5 L 102.5 90.5 L 102.0 90.5 L 101.5 90.5 L 102.5 90.5 L 106.0 90.0 L 112.0 89.5 L 120.0 89.5 L 127.0 89.0 L 131.0 88.5 L 132.5 88.5 L 132.5 88.5 L 131.5 88.5 " stroke="black" fill="none" stroke-width="8.0" stroke-linecap="round" stroke-linejoin="round" />
<path d="M 116.5 82.0 L 116.5 82.0 L 116.5 82.0 L 116.5 82.0 L 116.5 82.5 L 116.5 85.0 L 116.5 89.0 L 117.0 97.5 L 117.0 101.5 L 117.0 102.0 " stroke="black" fill="none" stroke-width="8.0" stroke-linecap="round" stroke-linejoin="round" />
<path d="M 98.0 106.0 L 98.0 106.0 L 97.5 106.0 L 97.0 106.0 L 97.0 106.0 L 100.0 106.0 L 106.0 105.0 L 115.5 104.5 L 125.5 104.0 L 131.0 104.0 L 134.0 104.5 L 134.5 105.5 L 134.0 105.5 " stroke="black" fill="none" stroke-width="8.0" stroke-linecap="round" stroke-linejoin="round" />
<path d="M 103.0 117.0 L 103.0 117.0 L 102.5 117.0 L 102.0 116.5 L 102.0 116.5 L 103.5 116.0 L 106.5 115.5 L 112.5 115.0 L 121.0 114.0 L 129.5 112.5 L 135.0 111.5 L 137.0 111.5 L 137.0 113.0 L 137.0 113.5 L 137.0 114.0 L 136.5 114.0 L 136.5 115.0 L 136.0 117.0 L 135.5 119.0 L 135.0 122.0 L 135.0 124.0 L 134.5 125.5 L 134.5 126.5 L 134.5 126.5 " stroke="black" fill="none" stroke-width="8.0" stroke-linecap="round" stroke-linejoin="round" />
<path d="M 118.5 117.5 L 118.5 117.5 L 118.5 117.0 L 118.5 117.0 L 118.5 117.5 L 118.5 119.5 L 119.0 122.5 L 119.0 125.5 L 119.0 127.0 " stroke="black" fill="none" stroke-width="8.0" stroke-linecap="round" stroke-linejoin="round" />
<path d="M 109.0 131.5 L 109.0 132.5 L 109.0 133.0 L 109.5 133.0 L 112.0 133.0 L 118.5 132.0 L 126.5 130.5 L 132.5 130.0 L 135.5 129.5 L 135.5 129.5 " stroke="black" fill="none" stroke-width="8.0" stroke-linecap="round" stroke-linejoin="round" />
<path d="M 99.5 119.5 L 99.5 119.5 L 100.0 119.0 L 100.0 119.0 L 100.5 119.5 L 100.5 122.0 L 101.0 127.0 L 100.0 135.0 L 98.0 143.5 L 96.0 148.5 L 94.5 150.0 L 93.5 150.0 L 93.5 149.5 " stroke="black" fill="none" stroke-width="8.0" stroke-linecap="round" stroke-linejoin="round" />
<path d="M 153.0 84.0 L 153.0 83.5 L 153.5 83.5 L 153.5 83.0 L 153.5 83.0 L 154.0 84.0 L 154.0 87.0 L 153.5 92.5 L 152.5 98.0 L 151.5 101.0 L 151.0 101.0 " stroke="black" fill="none" stroke-width="8.0" stroke-linecap="round" stroke-linejoin="round" />
<path d="M 155.5 83.0 L 155.5 83.0 L 156.0 83.0 L 156.0 83.0 L 156.0 83.5 L 156.5 83.5 L 158.0 83.5 L 162.0 83.0 L 168.0 81.5 L 173.0 81.0 L 176.0 81.0 L 177.0 81.5 L 177.0 82.0 L 176.5 82.5 L 176.5 83.0 L 176.0 83.5 L 176.0 84.5 L 175.0 86.0 L 174.5 88.5 L 173.5 91.0 L 173.0 94.0 L 173.0 97.0 L 173.0 99.0 L 175.0 100.0 L 178.0 100.0 L 181.5 99.5 L 184.5 97.5 L 186.0 96.5 L 186.5 96.0 L 186.5 96.0 " stroke="black" fill="none" stroke-width="8.0" stroke-linecap="round" stroke-linejoin="round" />
<path d="M 153.0 111.5 L 152.5 112.0 L 152.0 112.5 L 151.5 113.0 L 151.5 113.5 L 153.0 113.5 L 157.0 113.5 L 162.0 112.5 L 167.5 111.5 L 172.5 111.0 L 177.0 110.5 L 179.5 110.5 L 180.0 110.5 L 180.0 110.5 L 179.5 110.5 L 179.0 111.0 L 179.0 111.5 L 178.5 112.0 L 178.5 113.0 L 178.0 114.0 L 177.5 116.0 L 176.5 118.0 L 175.0 120.5 L 173.5 123.5 L 172.0 127.0 L 169.5 131.0 L 166.0 135.5 L 162.5 139.5 L 159.0 143.0 L 155.5 145.5 L 154.0 146.5 L 153.5 147.0 L 153.5 146.5 " stroke="black" fill="none" stroke-width="8.0" stroke-linecap="round" stroke-linejoin="round" />
<path d="M 154.5 125.5 L 154.5 125.5 L 155.0 125.0 L 155.0 124.5 L 155.5 124.5 L 156.5 124.5 L 160.0 126.0 L 165.5 129.5 L 174.0 135.5 L 183.0 140.5 L 189.5 143.0 L 191.5 143.0 L 191.5 143.0 L 191.5 143.0 L 191.5 143.0 " stroke="black" fill="none" stroke-width="8.0" stroke-linecap="round" stroke-linejoin="round" />
<path d="M 119.5 161.0 L 119.5 161.0 L 118.5 161.0 L 118.0 161.0 L 117.5 161.0 L 117.5 161.0 L 118.0 161.0 L 120.5 161.0 L 125.0 161.0 L 132.5 160.0 L 143.0 159.0 L 152.5 157.0 L 159.0 155.0 L 162.5 154.5 L 163.5 154.5 L 163.5 154.5 L 163.0 154.5 L 163.0 154.5 L 163.0 155.0 L 163.0 155.5 L 163.0 156.0 " stroke="black" fill="none" stroke-width="8.0" stroke-linecap="round" stroke-linejoin="round" />
<path d="M 112.5 173.0 L 112.5 173.0 L 113.0 173.5 L 113.0 173.5 L 114.0 173.5 L 115.5 173.5 L 121.5 173.5 L 132.0 172.5 L 144.0 172.0 L 153.5 172.0 L 159.5 172.0 L 164.0 171.0 L 166.0 170.5 L 166.0 170.0 L 165.5 170.0 " stroke="black" fill="none" stroke-width="8.0" stroke-linecap="round" stroke-linejoin="round" />
<path d="M 137.0 164.5 L 137.5 163.0 L 137.5 162.5 L 137.5 162.5 L 137.5 164.0 L 137.5 167.0 L 137.5 170.5 L 137.5 174.0 L 137.5 177.0 L 137.5 180.0 L 138.0 182.0 L 138.0 184.0 L 138.5 185.5 L 138.5 187.0 L 138.5 187.5 L 138.5 187.5 L 138.5 187.5 L 138.5 187.5 L 138.5 187.5 L 138.5 187.0 " stroke="black" fill="none" stroke-width="8.0" stroke-linecap="round" stroke-linejoin="round" />
<path d="M 132.0 175.0 L 132.5 175.0 L 133.0 175.0 L 133.0 175.5 L 133.0 175.5 L 132.5 176.5 L 131.0 177.5 L 128.5 179.0 L 125.5 181.5 L 121.0 184.0 L 115.5 187.0 L 112.0 188.5 L 110.5 188.5 L 110.5 188.5 L 111.0 188.5 " stroke="black" fill="none" stroke-width="8.0" stroke-linecap="round" stroke-linejoin="round" />
<path d="M 138.0 181.5 L 138.0 181.5 L 138.0 181.5 L 139.0 181.5 L 141.5 181.5 L 146.5 182.5 L 153.5 185.0 L 160.5 188.0 L 165.0 190.0 L 166.5 190.5 L 166.5 190.5 " stroke="black" fill="none" stroke-width="8.0" stroke-linecap="round" stroke-linejoin="round" />
<path d="M 120.0 198.5 L 120.0 198.5 L 119.5 198.5 L 119.0 198.5 L 119.0 198.5 L 119.0 200.5 L 119.0 207.0 L 120.5 215.5 L 121.0 221.0 L 122.0 223.5 L 123.0 222.0 " stroke="black" fill="none" stroke-width="8.0" stroke-linecap="round" stroke-linejoin="round" />
<path d="M 122.5 200.5 L 121.5 201.0 L 121.0 201.0 L 121.0 201.0 L 123.5 201.0 L 127.5 200.5 L 132.5 200.0 L 140.5 199.5 L 149.5 199.0 L 158.0 198.5 L 162.5 199.0 L 164.5 199.5 L 164.5 200.5 L 164.5 201.0 L 164.5 202.5 L 164.0 205.0 L 164.0 208.0 L 163.0 212.5 L 163.0 216.5 L 163.0 219.5 L 163.0 221.0 L 163.0 221.0 " stroke="black" fill="none" stroke-width="8.0" stroke-linecap="round" stroke-linejoin="round" />
<path d="M 130.0 213.0 L 130.0 212.5 L 130.0 212.5 L 130.5 212.0 L 131.5 211.0 L 135.0 210.5 L 142.5 210.5 L 150.0 211.5 L 156.0 212.5 L 158.0 212.5 " stroke="black" fill="none" stroke-width="8.0" stroke-linecap="round" stroke-linejoin="round" />
<path d="M 121.0 229.5 L 120.5 229.5 L 119.5 229.5 L 120.5 229.0 L 125.5 228.5 L 133.5 228.5 L 143.5 228.5 L 153.5 228.5 L 157.5 228.5 " stroke="black" fill="none" stroke-width="8.0" stroke-linecap="round" stroke-linejoin="round" />
</svg>