<svg xmlns="http://www.w3.org/2000/svg" width="300" height="300" viewBox="0 0 300 300">
<path d="M 122.0 123.5 L 121.5 123.0 L 121.0 122.5 L 121.0 122.5 L 121.0 122.5 L 122.0 123.0 L 123.5 125.0 L 125.5 127.0 L 126.5 128.5 L 127.0 130.0 " stroke="black" fill="none" stroke-width="6.0" stroke-linecap="round" stroke-linejoin="round" />
<path d="M 119.5 148.0 L 119.0 148.5 L 118.5 149.5 L 118.5 150.0 L 119.0 150.5 L 121.0 151.5 L 122.5 153.0 L 124.5 154.5 L 126.0 156.5 " stroke="black" fill="none" stroke-width="6.0" stroke-linecap="round" stroke-linejoin="round" />
<path d="M 116.5 186.0 L 117.0 185.0 L 117.0 184.5 L 118.0 182.5 L 120.5 179.0 L 123.0 175.5 L 126.0 172.5 L 128.5 169.5 " stroke="black" fill="none" stroke-width="6.0" stroke-linecap="round" stroke-linejoin="round" />
<path d="M 139.5 131.5 L 139.5 132.5 L 139.5 133.5 L 139.5 133.5 L 140.5 133.0 L 143.0 131.5 L 146.0 130.5 L 148.5 129.5 L 150.0 129.0 L 150.5 128.5 " stroke="black" fill="none" stroke-width="6.0" stroke-linecap="round" stroke-linejoin="round" />
<path d="M 146.0 128.5 L 145.5 129.0 L 145.0 129.5 L 145.0 130.5 L 145.0 133.0 L 145.5 138.5 L 145.5 145.0 L 145.5 150.0 L 145.5 152.0 L 146.0 152.0 " stroke="black" fill="none" stroke-width="6.0" stroke-linecap="round" stroke-linejoin="round" />
<path d="M 138.0 161.0 L 138.0 161.0 L 138.0 161.0 L 138.0 161.0 L 139.0 161.0 L 141.5 159.5 L 145.0 156.5 L 148.5 153.0 L 150.5 150.5 " stroke="black" fill="none" stroke-width="6.0" stroke-linecap="round" stroke-linejoin="round" />
<path d="M 166.5 110.0 L 166.5 110.0 L 166.5 110.5 L 166.5 110.5 L 166.5 110.5 L 166.5 110.5 L 166.5 110.5 L 166.5 110.5 L 166.5 110.5 L 166.5 110.5 L 166.5 110.5 L 166.5 110.5 L 166.5 110.5 L 166.5 110.5 L 166.0 111.5 L 166.0 113.5 L 165.5 116.0 L 165.5 117.5 " stroke="black" fill="none" stroke-width="6.0" stroke-linecap="round" stroke-linejoin="round" />
<path d="M 161.5 123.0 L 161.0 122.5 L 160.5 122.5 L 160.0 122.0 L 160.5 122.0 L 163.5 122.0 L 168.5 121.5 L 173.5 120.5 L 177.5 120.5 L 180.0 120.0 L 181.0 120.0 L 181.5 120.5 L 181.5 122.0 L 181.5 124.0 L 181.0 126.5 L 180.0 130.0 L 179.0 133.5 L 178.5 136.5 L 178.0 138.0 L 177.5 138.5 " stroke="black" fill="none" stroke-width="6.0" stroke-linecap="round" stroke-linejoin="round" />
<path d="M 165.5 132.0 L 165.0 132.5 L 164.0 132.5 L 164.0 132.5 L 166.0 132.5 L 170.0 132.0 L 173.5 131.5 L 176.5 131.0 L 177.5 131.0 " stroke="black" fill="none" stroke-width="6.0" stroke-linecap="round" stroke-linejoin="round" />
<path d="M 166.5 141.5 L 166.0 141.5 L 166.0 141.5 L 166.0 141.5 L 168.5 141.5 L 171.0 141.5 L 173.5 140.0 " stroke="black" fill="none" stroke-width="6.0" stroke-linecap="round" stroke-linejoin="round" />
<path d="M 162.0 123.0 L 161.5 123.0 L 160.5 122.5 L 160.5 122.5 L 160.5 123.0 L 161.0 125.0 L 161.5 129.0 L 161.5 135.0 L 161.5 142.0 L 161.0 148.0 L 161.0 152.5 L 161.0 155.5 L 161.0 158.0 L 160.5 160.0 L 160.0 161.5 L 160.0 162.5 L 160.0 163.0 L 160.5 163.0 L 161.0 163.0 L 162.0 162.5 L 163.5 162.0 L 165.5 161.0 L 169.0 160.0 L 173.5 158.5 L 179.5 156.5 L 185.0 155.5 L 188.5 155.0 L 190.0 155.0 L 190.0 155.5 L 190.0 155.5 L 190.0 155.5 L 190.0 155.5 L 190.0 156.0 L 190.0 157.0 L 190.5 158.5 L 191.0 161.0 L 191.5 165.0 L 192.0 171.0 L 193.0 178.0 L 194.0 184.5 L 194.5 189.5 L 194.5 193.5 L 194.0 195.5 L 192.5 196.5 L 189.5 196.5 L 185.0 196.5 L 180.5 194.0 L 177.5 191.5 " stroke="black" fill="none" stroke-width="6.0" stroke-linecap="round" stroke-linejoin="round" />
<path d="M 165.5 151.0 L 165.0 152.5 L 165.0 153.0 L 167.0 152.5 L 171.0 151.0 L 176.0 149.0 L 181.0 148.0 L 183.5 147.5 " stroke="black" fill="none" stroke-width="6.0" stroke-linecap="round" stroke-linejoin="round" />
<path d="M 154.5 177.5 L 155.0 177.5 L 155.5 178.0 L 155.5 178.0 L 155.0 179.0 L 154.0 181.5 L 153.0 183.5 L 152.5 185.0 " stroke="black" fill="none" stroke-width="6.0" stroke-linecap="round" stroke-linejoin="round" />
<path d="M 165.5 176.0 L 165.5 177.0 L 165.0 177.5 L 165.0 178.0 L 165.0 178.5 L 165.5 179.5 L 166.5 181.0 L 166.5 181.5 " stroke="black" fill="none" stroke-width="6.0" stroke-linecap="round" stroke-linejoin="round" />
<path d="M 172.5 173.5 L 172.5 175.0 L 173.0 176.0 L 173.5 176.5 L 174.5 177.5 L 175.5 177.5 L 175.5 177.5 " stroke="black" fill="none" stroke-width="6.0" stroke-linecap="round" stroke-linejoin="round" />
<path d="M 179.5 170.0 L 180.0 170.5 L 180.5 171.0 L 181.0 171.5 L 182.0 172.5 L 183.0 172.5 " stroke="black" fill="none" stroke-width="6.0" stroke-linecap="round" stroke-linejoin="round" />
</svg>