<svg xmlns="http://www.w3.org/2000/svg" width="300" height="300" viewBox="0 0 300 300">
<path d="M 133.8888888888889 100.55555555555556 L 133.8888888888889 100.55555555555556 L 132.7777777777778 100.0 L 131.66666666666669 100.0 " stroke="black" fill="none" stroke-width="7.0" stroke-linecap="round" stroke-linejoin="round" />
<path d="M 119.44444444444444 103.88888888888889 L 118.33333333333333 103.88888888888889 L 117.22222222222221 104.44444444444444 L 117.22222222222221 105.0 L 119.44444444444444 103.88888888888889 L 125.55555555555556 102.22222222222223 L 133.8888888888889 100.0 L 146.11111111111111 97.77777777777777 L 158.8888888888889 93.88888888888889 L 167.22222222222223 91.11111111111111 L 168.8888888888889 90.0 L 167.7777777777778 90.0 L 166.66666666666669 90.55555555555556 " stroke="black" fill="none" stroke-width="7.0" stroke-linecap="round" stroke-linejoin="round" />
<path d="M 117.22222222222221 118.8888888888889 L 117.22222222222221 118.33333333333333 L 116.66666666666667 118.33333333333333 L 116.66666666666667 117.77777777777779 L 118.33333333333333 117.77777777777779 L 122.77777777777779 118.33333333333333 L 132.22222222222223 118.33333333333333 L 146.11111111111111 118.33333333333333 L 160.00000000000003 115.55555555555556 L 170.55555555555557 112.22222222222221 L 173.8888888888889 111.66666666666667 " stroke="black" fill="none" stroke-width="7.0" stroke-linecap="round" stroke-linejoin="round" />
<path d="M 146.11111111111111 103.33333333333333 L 145.55555555555557 103.33333333333333 L 145.00000000000003 103.33333333333333 L 145.00000000000003 103.33333333333333 L 145.00000000000003 103.33333333333333 L 144.44444444444446 103.33333333333333 L 144.44444444444446 103.33333333333333 L 144.44444444444446 104.44444444444444 L 145.00000000000003 107.77777777777779 L 145.55555555555557 116.1111111111111 L 145.55555555555557 126.66666666666667 L 145.55555555555557 135.00000000000003 L 146.11111111111111 138.33333333333334 L 146.66666666666669 138.8888888888889 L 147.22222222222223 137.22222222222223 " stroke="black" fill="none" stroke-width="7.0" stroke-linecap="round" stroke-linejoin="round" />
<path d="M 142.22222222222223 120.55555555555556 L 141.66666666666669 120.55555555555556 L 141.66666666666669 120.55555555555556 L 141.11111111111111 120.55555555555556 L 140.00000000000003 122.22222222222221 L 135.55555555555557 128.33333333333334 L 126.66666666666667 137.22222222222223 L 120.55555555555556 143.33333333333334 L 119.44444444444444 143.8888888888889 L 120.55555555555556 142.7777777777778 " stroke="black" fill="none" stroke-width="7.0" stroke-linecap="round" stroke-linejoin="round" />
<path d="M 149.44444444444446 125.55555555555556 L 148.8888888888889 125.55555555555556 L 148.33333333333334 125.55555555555556 L 148.33333333333334 125.55555555555556 L 151.11111111111111 126.66666666666667 L 160.00000000000003 130.55555555555557 L 171.11111111111114 135.55555555555557 L 181.11111111111114 137.7777777777778 L 183.8888888888889 137.7777777777778 " stroke="black" fill="none" stroke-width="7.0" stroke-linecap="round" stroke-linejoin="round" />
<path d="M 142.22222222222223 150.00000000000003 L 142.7777777777778 150.00000000000003 L 143.33333333333334 149.44444444444446 L 143.8888888888889 149.44444444444446 L 143.8888888888889 149.44444444444446 L 141.11111111111111 151.66666666666669 L 133.8888888888889 157.7777777777778 L 122.77777777777779 166.11111111111114 L 115.55555555555556 170.55555555555557 L 113.33333333333333 170.55555555555557 L 114.44444444444444 168.8888888888889 " stroke="black" fill="none" stroke-width="7.0" stroke-linecap="round" stroke-linejoin="round" />
<path d="M 148.33333333333334 148.8888888888889 L 148.33333333333334 148.8888888888889 L 147.7777777777778 148.8888888888889 L 147.7777777777778 148.8888888888889 L 148.33333333333334 150.00000000000003 L 155.00000000000003 154.44444444444446 L 166.11111111111114 162.7777777777778 L 179.44444444444446 168.33333333333334 L 188.8888888888889 168.8888888888889 L 191.11111111111114 168.8888888888889 " stroke="black" fill="none" stroke-width="7.0" stroke-linecap="round" stroke-linejoin="round" />
<path d="M 146.11111111111111 169.44444444444446 L 146.11111111111111 168.8888888888889 L 145.00000000000003 168.33333333333334 L 144.44444444444446 168.33333333333334 L 144.44444444444446 168.33333333333334 L 145.55555555555557 170.00000000000003 L 146.11111111111111 174.44444444444446 L 146.66666666666669 181.66666666666669 L 147.22222222222223 191.11111111111114 L 147.22222222222223 200.00000000000003 L 147.22222222222223 205.00000000000003 L 147.22222222222223 207.22222222222223 L 146.11111111111111 207.7777777777778 L 143.33333333333334 207.7777777777778 L 140.55555555555557 205.55555555555557 L 138.33333333333334 202.7777777777778 L 137.7777777777778 201.11111111111114 " stroke="black" fill="none" stroke-width="7.0" stroke-linecap="round" stroke-linejoin="round" />
<path d="M 128.33333333333334 178.8888888888889 L 128.33333333333334 178.8888888888889 L 127.77777777777779 178.8888888888889 L 127.22222222222221 179.44444444444446 L 127.77777777777779 179.44444444444446 L 129.44444444444446 180.00000000000003 L 131.11111111111111 181.11111111111114 L 133.33333333333334 182.22222222222223 L 134.44444444444446 182.7777777777778 " stroke="black" fill="none" stroke-width="7.0" stroke-linecap="round" stroke-linejoin="round" />
<path d="M 122.22222222222221 199.44444444444446 L 121.66666666666667 200.00000000000003 L 121.66666666666667 200.00000000000003 L 123.33333333333333 198.8888888888889 L 126.1111111111111 197.22222222222223 L 127.22222222222221 196.66666666666669 " stroke="black" fill="none" stroke-width="7.0" stroke-linecap="round" stroke-linejoin="round" />
<path d="M 163.8888888888889 176.11111111111114 L 163.8888888888889 176.11111111111114 L 163.33333333333334 176.11111111111114 L 163.33333333333334 176.11111111111114 L 162.7777777777778 176.11111111111114 L 161.66666666666669 177.22222222222223 L 160.00000000000003 180.00000000000003 L 158.33333333333334 182.7777777777778 L 157.7777777777778 183.33333333333334 " stroke="black" fill="none" stroke-width="7.0" stroke-linecap="round" stroke-linejoin="round" />
<path d="M 152.7777777777778 186.66666666666669 L 152.7777777777778 187.22222222222223 L 152.7777777777778 187.7777777777778 L 153.33333333333334 188.8888888888889 L 158.33333333333334 192.7777777777778 L 167.22222222222223 198.33333333333334 L 175.55555555555557 202.22222222222223 L 177.7777777777778 202.7777777777778 " stroke="black" fill="none" stroke-width="7.0" stroke-linecap="round" stroke-linejoin="round" />
</svg>