<svg xmlns="http://www.w3.org/2000/svg" width="300" height="300" viewBox="0 0 300 300">
<path d="M 67.77777777777777 78.88888888888889 L 67.22222222222221 78.88888888888889 L 66.11111111111111 78.88888888888889 L 65.55555555555556 78.88888888888889 L 66.11111111111111 78.88888888888889 L 69.44444444444444 78.88888888888889 L 75.0 79.44444444444444 L 85.0 79.44444444444444 L 98.33333333333333 79.44444444444444 L 111.11111111111111 79.44444444444444 L 120.55555555555556 79.44444444444444 L 126.1111111111111 80.55555555555556 L 129.44444444444446 81.11111111111111 L 131.66666666666669 81.11111111111111 L 131.66666666666669 81.11111111111111 L 131.66666666666669 80.55555555555556 L 131.66666666666669 80.55555555555556 L 131.11111111111111 80.55555555555556 " stroke="black" fill="none" stroke-width="13.0" stroke-linecap="round" stroke-linejoin="round" />
<path d="M 77.22222222222223 100.0 L 76.66666666666667 99.44444444444444 L 76.11111111111111 99.44444444444444 L 76.11111111111111 99.44444444444444 L 76.66666666666667 103.33333333333333 L 77.77777777777777 111.66666666666667 L 77.77777777777777 121.66666666666667 L 77.22222222222223 128.8888888888889 L 77.22222222222223 130.00000000000003 L 77.22222222222223 128.33333333333334 " stroke="black" fill="none" stroke-width="13.0" stroke-linecap="round" stroke-linejoin="round" />
<path d="M 80.0 97.77777777777777 L 78.88888888888889 97.77777777777777 L 77.77777777777777 98.33333333333333 L 77.77777777777777 98.33333333333333 L 81.11111111111111 98.33333333333333 L 86.11111111111111 98.33333333333333 L 93.33333333333333 98.33333333333333 L 103.88888888888889 97.77777777777777 L 116.1111111111111 97.77777777777777 L 125.55555555555556 98.33333333333333 L 130.00000000000003 100.55555555555556 L 130.55555555555557 101.66666666666667 L 130.55555555555557 102.77777777777777 L 130.00000000000003 103.88888888888889 L 130.00000000000003 105.55555555555556 L 130.00000000000003 108.88888888888889 L 129.44444444444446 113.8888888888889 L 128.33333333333334 120.55555555555556 L 127.22222222222221 127.22222222222221 L 126.66666666666667 132.7777777777778 L 126.66666666666667 134.44444444444446 L 126.66666666666667 134.44444444444446 " stroke="black" fill="none" stroke-width="13.0" stroke-linecap="round" stroke-linejoin="round" />
<path d="M 99.44444444444444 117.22222222222221 L 98.88888888888889 116.1111111111111 L 98.88888888888889 115.55555555555556 L 99.44444444444444 116.1111111111111 L 102.77777777777777 120.00000000000001 L 106.66666666666667 123.8888888888889 L 109.44444444444444 125.00000000000001 " stroke="black" fill="none" stroke-width="13.0" stroke-linecap="round" stroke-linejoin="round" />
<path d="M 153.33333333333334 80.0 L 153.33333333333334 80.55555555555556 L 153.33333333333334 81.11111111111111 L 153.33333333333334 81.11111111111111 L 156.11111111111111 81.66666666666667 L 165.00000000000003 81.66666666666667 L 180.00000000000003 81.11111111111111 L 195.55555555555557 80.0 L 207.7777777777778 80.0 L 216.11111111111114 79.44444444444444 L 220.00000000000003 79.44444444444444 L 220.55555555555557 79.44444444444444 L 218.8888888888889 79.44444444444444 L 218.8888888888889 79.44444444444444 " stroke="black" fill="none" stroke-width="13.0" stroke-linecap="round" stroke-linejoin="round" />
<path d="M 167.22222222222223 102.22222222222223 L 166.66666666666669 101.66666666666667 L 166.11111111111114 101.11111111111111 L 166.11111111111114 101.11111111111111 L 166.11111111111114 103.88888888888889 L 167.22222222222223 110.0 L 167.7777777777778 118.8888888888889 L 168.33333333333334 125.00000000000001 L 168.33333333333334 126.66666666666667 L 168.8888888888889 126.66666666666667 " stroke="black" fill="none" stroke-width="13.0" stroke-linecap="round" stroke-linejoin="round" />
<path d="M 173.33333333333334 97.77777777777777 L 171.66666666666669 97.77777777777777 L 170.00000000000003 98.33333333333333 L 170.00000000000003 98.33333333333333 L 171.66666666666669 98.33333333333333 L 175.55555555555557 98.33333333333333 L 182.7777777777778 98.88888888888889 L 193.8888888888889 99.44444444444444 L 209.44444444444446 100.0 L 221.66666666666669 101.66666666666667 L 227.7777777777778 103.33333333333333 L 230.55555555555557 105.0 L 231.11111111111114 105.55555555555556 L 231.11111111111114 105.55555555555556 L 231.11111111111114 105.55555555555556 L 231.11111111111114 106.11111111111111 L 230.55555555555557 108.88888888888889 L 230.00000000000003 113.33333333333333 L 228.8888888888889 118.8888888888889 L 228.33333333333334 126.1111111111111 L 227.7777777777778 131.11111111111111 L 227.22222222222223 133.33333333333334 L 227.22222222222223 133.33333333333334 " stroke="black" fill="none" stroke-width="13.0" stroke-linecap="round" stroke-linejoin="round" />
<path d="M 191.11111111111114 113.8888888888889 L 190.55555555555557 113.8888888888889 L 189.44444444444446 113.8888888888889 L 190.00000000000003 115.55555555555556 L 193.8888888888889 119.44444444444444 L 198.33333333333334 123.33333333333333 L 201.66666666666669 125.55555555555556 L 202.22222222222223 126.1111111111111 " stroke="black" fill="none" stroke-width="13.0" stroke-linecap="round" stroke-linejoin="round" />
<path d="M 147.7777777777778 125.55555555555556 L 147.22222222222223 125.55555555555556 L 146.11111111111111 125.55555555555556 L 145.55555555555557 126.66666666666667 L 147.7777777777778 130.00000000000003 L 151.11111111111111 134.44444444444446 L 153.8888888888889 137.7777777777778 L 155.00000000000003 140.00000000000003 " stroke="black" fill="none" stroke-width="13.0" stroke-linecap="round" stroke-linejoin="round" />
<path d="M 228.8888888888889 146.11111111111111 L 228.8888888888889 146.11111111111111 L 228.8888888888889 145.55555555555557 L 228.33333333333334 145.00000000000003 L 227.22222222222223 145.00000000000003 L 225.55555555555557 145.00000000000003 L 223.33333333333334 145.00000000000003 L 218.8888888888889 145.00000000000003 L 211.66666666666669 145.00000000000003 L 202.7777777777778 145.00000000000003 L 192.7777777777778 145.00000000000003 L 183.8888888888889 143.8888888888889 L 175.55555555555557 142.7777777777778 L 168.33333333333334 141.66666666666669 L 160.00000000000003 141.11111111111111 L 152.22222222222223 140.55555555555557 L 144.44444444444446 140.00000000000003 L 137.22222222222223 139.44444444444446 L 131.11111111111111 138.8888888888889 L 125.00000000000001 138.33333333333334 L 119.44444444444444 138.8888888888889 L 114.44444444444444 139.44444444444446 L 109.44444444444444 140.00000000000003 L 104.44444444444444 140.55555555555557 L 100.55555555555556 140.55555555555557 L 96.66666666666667 140.55555555555557 L 93.33333333333333 141.11111111111111 L 90.55555555555556 141.66666666666669 L 87.77777777777777 142.22222222222223 L 86.11111111111111 142.22222222222223 L 86.11111111111111 142.22222222222223 L 86.11111111111111 142.22222222222223 L 86.11111111111111 142.22222222222223 L 86.11111111111111 142.22222222222223 L 86.11111111111111 142.22222222222223 L 86.11111111111111 142.22222222222223 L 85.55555555555556 142.22222222222223 L 85.55555555555556 142.22222222222223 L 85.0 142.22222222222223 L 85.0 142.22222222222223 L 84.44444444444444 142.22222222222223 L 84.44444444444444 142.22222222222223 L 84.44444444444444 142.22222222222223 L 83.88888888888889 142.22222222222223 L 83.88888888888889 142.22222222222223 L 83.88888888888889 142.7777777777778 L 83.88888888888889 142.7777777777778 L 83.88888888888889 143.33333333333334 L 83.88888888888889 143.33333333333334 L 84.44444444444444 143.8888888888889 L 84.44444444444444 145.00000000000003 L 85.0 146.66666666666669 L 85.0 150.00000000000003 L 85.55555555555556 153.8888888888889 L 86.11111111111111 159.44444444444446 L 86.11111111111111 166.66666666666669 L 86.11111111111111 174.44444444444446 L 85.55555555555556 182.22222222222223 L 85.0 189.44444444444446 L 83.88888888888889 197.22222222222223 L 82.77777777777777 204.44444444444446 L 80.55555555555556 212.7777777777778 L 78.33333333333333 221.11111111111114 L 76.66666666666667 228.33333333333334 L 75.0 235.55555555555557 L 72.77777777777777 241.6666666666667 L 71.11111111111111 246.11111111111111 L 69.44444444444444 248.88888888888889 L 68.88888888888889 249.44444444444449 L 68.88888888888889 248.88888888888889 L 68.88888888888889 248.33333333333334 " stroke="black" fill="none" stroke-width="13.0" stroke-linecap="round" stroke-linejoin="round" />
<path d="M 103.33333333333333 169.44444444444446 L 102.77777777777777 168.8888888888889 L 102.22222222222223 168.33333333333334 L 102.22222222222223 168.33333333333334 L 103.33333333333333 168.33333333333334 L 106.11111111111111 168.33333333333334 L 111.11111111111111 168.8888888888889 L 117.77777777777779 169.44444444444446 L 126.66666666666667 170.00000000000003 L 137.22222222222223 169.44444444444446 L 146.66666666666669 169.44444444444446 L 154.44444444444446 169.44444444444446 L 163.33333333333334 169.44444444444446 L 171.66666666666669 170.00000000000003 L 179.44444444444446 170.00000000000003 L 187.22222222222223 170.55555555555557 L 194.44444444444446 170.55555555555557 L 200.55555555555557 170.55555555555557 L 207.22222222222223 170.00000000000003 L 213.33333333333334 170.00000000000003 L 217.7777777777778 170.00000000000003 L 220.55555555555557 170.00000000000003 L 221.11111111111114 170.00000000000003 L 221.66666666666669 170.00000000000003 L 221.66666666666669 170.00000000000003 L 221.66666666666669 170.00000000000003 L 221.11111111111114 170.00000000000003 L 221.11111111111114 170.55555555555557 L 221.11111111111114 170.55555555555557 L 221.11111111111114 171.11111111111114 L 221.11111111111114 172.22222222222223 L 221.11111111111114 173.8888888888889 L 221.11111111111114 177.22222222222223 L 221.11111111111114 182.22222222222223 L 221.11111111111114 186.66666666666669 L 221.11111111111114 188.33333333333334 L 221.11111111111114 188.33333333333334 L 221.11111111111114 188.33333333333334 L 221.11111111111114 188.33333333333334 " stroke="black" fill="none" stroke-width="13.0" stroke-linecap="round" stroke-linejoin="round" />
<path d="M 128.33333333333334 151.66666666666669 L 127.77777777777779 151.66666666666669 L 126.66666666666667 151.66666666666669 L 126.66666666666667 154.44444444444446 L 127.77777777777779 161.66666666666669 L 128.33333333333334 172.22222222222223 L 129.44444444444446 178.8888888888889 L 130.00000000000003 181.11111111111114 L 130.00000000000003 181.11111111111114 " stroke="black" fill="none" stroke-width="13.0" stroke-linecap="round" stroke-linejoin="round" />
<path d="M 171.66666666666669 152.22222222222223 L 170.55555555555557 152.22222222222223 L 170.00000000000003 152.7777777777778 L 170.00000000000003 156.66666666666669 L 170.55555555555557 164.44444444444446 L 171.11111111111114 171.66666666666669 L 171.11111111111114 174.44444444444446 L 171.11111111111114 175.00000000000003 L 171.11111111111114 175.00000000000003 " stroke="black" fill="none" stroke-width="13.0" stroke-linecap="round" stroke-linejoin="round" />
<path d="M 98.33333333333333 191.11111111111114 L 97.77777777777777 191.11111111111114 L 97.22222222222223 191.11111111111114 L 96.66666666666667 191.11111111111114 L 98.33333333333333 191.11111111111114 L 102.22222222222223 191.11111111111114 L 109.44444444444444 191.11111111111114 L 118.8888888888889 191.11111111111114 L 128.33333333333334 191.66666666666669 L 140.00000000000003 192.7777777777778 L 151.66666666666669 192.7777777777778 L 162.7777777777778 192.7777777777778 L 172.7777777777778 192.7777777777778 L 181.66666666666669 192.22222222222223 L 190.00000000000003 191.66666666666669 L 197.22222222222223 191.66666666666669 L 203.33333333333334 191.11111111111114 L 208.8888888888889 191.11111111111114 L 213.33333333333334 191.11111111111114 L 216.66666666666669 191.11111111111114 L 218.8888888888889 190.55555555555557 L 220.00000000000003 190.55555555555557 L 220.00000000000003 190.55555555555557 L 220.00000000000003 190.55555555555557 L 220.00000000000003 190.55555555555557 L 220.00000000000003 190.55555555555557 L 220.00000000000003 190.55555555555557 L 220.00000000000003 190.55555555555557 L 220.00000000000003 190.55555555555557 L 220.00000000000003 190.55555555555557 L 220.00000000000003 190.55555555555557 L 220.00000000000003 190.55555555555557 L 220.00000000000003 190.55555555555557 L 220.00000000000003 190.55555555555557 L 220.00000000000003 190.55555555555557 " stroke="black" fill="none" stroke-width="13.0" stroke-linecap="round" stroke-linejoin="round" />
<path d="M 144.44444444444446 212.7777777777778 L 144.44444444444446 212.7777777777778 L 143.33333333333334 212.22222222222223 L 142.7777777777778 211.66666666666669 L 141.66666666666669 211.66666666666669 L 138.8888888888889 214.44444444444446 L 132.22222222222223 218.33333333333334 L 125.55555555555556 222.7777777777778 L 121.1111111111111 224.44444444444446 L 121.1111111111111 224.44444444444446 " stroke="black" fill="none" stroke-width="13.0" stroke-linecap="round" stroke-linejoin="round" />
<path d="M 107.77777777777779 205.00000000000003 L 108.33333333333333 205.00000000000003 L 108.33333333333333 205.00000000000003 L 108.88888888888889 205.00000000000003 L 108.88888888888889 207.22222222222223 L 108.88888888888889 217.7777777777778 L 106.66666666666667 236.11111111111114 L 105.0 251.11111111111111 L 106.11111111111111 256.6666666666667 L 109.44444444444444 257.22222222222223 L 113.8888888888889 252.7777777777778 L 118.33333333333333 246.6666666666667 L 122.77777777777779 242.22222222222226 L 125.00000000000001 240.00000000000003 L 125.55555555555556 239.44444444444449 " stroke="black" fill="none" stroke-width="13.0" stroke-linecap="round" stroke-linejoin="round" />
<path d="M 203.8888888888889 212.7777777777778 L 203.8888888888889 212.22222222222223 L 204.44444444444446 211.66666666666669 L 204.44444444444446 211.11111111111114 L 202.7777777777778 211.66666666666669 L 198.8888888888889 215.00000000000003 L 194.44444444444446 218.8888888888889 L 190.55555555555557 222.22222222222223 L 188.8888888888889 223.33333333333334 " stroke="black" fill="none" stroke-width="13.0" stroke-linecap="round" stroke-linejoin="round" />
<path d="M 174.44444444444446 205.55555555555557 L 174.44444444444446 205.55555555555557 L 173.8888888888889 205.55555555555557 L 173.33333333333334 206.66666666666669 L 172.7777777777778 209.44444444444446 L 171.66666666666669 215.00000000000003 L 171.11111111111114 222.7777777777778 L 170.55555555555557 231.11111111111114 L 171.11111111111114 239.44444444444449 L 173.8888888888889 245.00000000000003 L 179.44444444444446 248.88888888888889 L 188.8888888888889 250.00000000000003 L 200.00000000000003 249.44444444444449 L 212.7777777777778 248.33333333333334 L 221.66666666666669 247.22222222222226 L 227.22222222222223 246.6666666666667 L 229.44444444444446 246.11111111111111 L 230.00000000000003 245.55555555555557 L 229.44444444444446 245.00000000000003 L 228.8888888888889 244.44444444444449 L 228.8888888888889 243.88888888888889 L 228.8888888888889 242.7777777777778 L 228.8888888888889 241.11111111111111 L 229.44444444444446 238.33333333333334 L 229.44444444444446 235.00000000000003 L 229.44444444444446 232.22222222222226 L 230.00000000000003 231.11111111111114 L 230.00000000000003 231.11111111111114 " stroke="black" fill="none" stroke-width="13.0" stroke-linecap="round" stroke-linejoin="round" />
</svg>