<svg xmlns="http://www.w3.org/2000/svg" width="300" height="300" viewBox="0 0 300 300">
<path d="M 131.5 149.0 L 132.5 149.0 L 133.0 149.5 L 133.5 149.5 L 133.5 149.5 L 134.0 150.0 L 134.5 151.0 L 135.5 153.0 L 136.5 156.5 L 138.5 161.5 L 140.5 167.0 L 142.5 172.5 L 144.5 177.0 L 146.5 181.5 L 148.0 185.5 L 150.0 188.5 L 151.0 191.5 L 152.5 194.0 L 153.5 196.5 L 154.5 200.0 L 155.5 203.0 L 156.5 206.0 L 157.0 208.5 L 158.0 210.5 L 158.5 211.5 L 159.5 212.5 L 160.0 213.5 L 160.0 214.0 L 160.0 214.0 L 160.0 214.0 L 160.0 214.0 L 160.0 214.0 L 160.0 214.0 L 160.5 213.5 " stroke="black" fill="none" stroke-width="8.0" stroke-linecap="round" stroke-linejoin="round" />
</svg>