<svg xmlns="http://www.w3.org/2000/svg" width="300" height="300" viewBox="0 0 300 300">
<path d="M 122.0 191.0 L 121.5 191.0 L 121.0 191.5 L 120.5 191.5 L 120.0 191.5 L 120.0 191.5 L 121.5 191.5 L 123.5 191.5 L 126.5 192.0 L 129.5 192.0 L 133.5 192.0 L 138.0 191.5 L 142.5 191.0 L 146.0 190.5 L 150.0 190.5 L 153.0 190.0 L 155.5 190.0 L 158.5 190.0 L 161.0 190.0 L 163.5 190.0 L 165.5 190.0 L 167.5 190.0 L 169.5 190.5 L 172.0 190.5 L 173.5 190.5 L 175.0 190.5 L 175.5 190.5 L 176.0 190.0 L 176.5 190.0 L 177.0 190.0 L 177.5 190.0 L 177.5 190.0 L 178.0 190.0 L 178.5 190.0 L 178.5 190.0 L 179.0 190.0 L 179.0 190.0 L 179.0 190.0 " stroke="black" fill="none" stroke-width="8.0" stroke-linecap="round" stroke-linejoin="round" />
</svg>