<svg xmlns="http://www.w3.org/2000/svg" width="300" height="300" viewBox="0 0 300 300">
<path d="M 164.0 150.0 L 164.0 150.0 L 164.0 150.0 L 163.5 150.0 L 163.0 149.5 L 162.5 149.5 L 162.0 149.5 L 161.5 149.0 L 160.5 149.0 L 159.0 149.0 L 157.5 149.0 L 155.5 149.0 L 152.5 150.0 L 150.0 151.0 L 147.0 152.0 L 144.0 153.0 L 141.5 155.0 L 139.0 156.5 L 137.0 158.5 L 136.0 160.5 L 136.0 161.5 L 136.0 162.5 L 136.5 163.5 L 137.0 165.0 L 138.0 166.5 L 139.0 168.5 L 140.0 170.5 L 141.5 172.5 L 143.0 174.5 L 144.5 176.0 L 147.0 177.5 L 149.5 178.5 L 152.5 180.0 L 155.5 181.5 L 158.0 182.5 L 160.0 184.0 L 162.0 185.5 L 163.0 186.5 L 164.0 188.0 L 164.5 189.5 L 165.0 190.5 L 165.5 192.0 L 166.0 193.5 L 166.0 194.5 L 166.0 195.5 L 166.0 196.5 L 165.0 198.0 L 164.0 199.0 L 163.0 200.0 L 161.0 200.5 L 158.0 201.0 L 153.5 201.5 L 149.0 201.0 L 145.0 200.0 L 142.0 199.5 L 140.5 198.5 L 139.5 197.0 L 139.5 196.0 " stroke="black" fill="none" stroke-width="8.0" stroke-linecap="round" stroke-linejoin="round" />
<path d="M 149.0 139.0 L 149.0 139.0 L 149.0 139.0 L 149.0 139.0 L 149.0 139.0 L 149.0 139.5 L 149.0 141.5 L 149.5 145.0 L 150.0 149.5 L 150.0 155.0 L 150.5 160.5 L 150.5 166.5 L 150.5 172.0 L 151.0 177.0 L 151.0 181.5 L 151.0 185.0 L 151.0 187.5 L 151.0 190.0 L 151.0 192.5 L 151.0 195.0 L 151.0 198.0 L 151.0 200.5 L 151.5 202.5 L 151.5 204.5 L 151.5 206.0 L 151.5 207.5 L 152.0 209.0 L 152.0 210.0 L 152.5 211.0 L 152.5 212.0 L 152.5 212.5 L 152.5 212.5 L 152.5 213.0 L 152.5 213.0 L 152.5 213.0 L 152.5 212.5 " stroke="black" fill="none" stroke-width="8.0" stroke-linecap="round" stroke-linejoin="round" />
</svg>