<svg xmlns="http://www.w3.org/2000/svg" width="300" height="300" viewBox="0 0 300 300">
<path d="M 103.5 84.5 L 101.5 84.5 L 100.5 84.0 L 100.5 84.0 L 100.5 84.0 L 101.0 83.5 L 103.0 83.5 L 106.0 83.5 L 110.5 83.5 L 118.0 83.0 L 126.0 82.5 L 130.5 81.5 L 131.5 81.5 L 131.0 81.5 L 130.5 81.5 " stroke="black" fill="none" stroke-width="7.0" stroke-linecap="round" stroke-linejoin="round" />
<path d="M 148.5 82.5 L 147.5 82.5 L 146.5 82.5 L 146.0 82.5 L 145.5 82.0 L 145.5 82.0 L 146.5 82.0 L 150.0 82.0 L 154.5 82.0 L 159.5 81.5 L 163.0 81.5 L 165.0 81.0 L 166.5 80.5 " stroke="black" fill="none" stroke-width="7.0" stroke-linecap="round" stroke-linejoin="round" />
<path d="M 184.0 82.0 L 183.0 82.0 L 182.0 81.5 L 181.5 81.5 L 181.5 81.5 L 182.0 81.5 L 184.0 81.5 L 187.0 81.5 L 192.0 82.0 L 199.5 83.0 L 208.0 83.0 L 214.0 83.0 L 215.5 83.0 L 215.5 83.0 L 214.5 83.0 L 214.0 83.0 " stroke="black" fill="none" stroke-width="7.0" stroke-linecap="round" stroke-linejoin="round" />
</svg>