<svg xmlns="http://www.w3.org/2000/svg" width="300" height="300" viewBox="0 0 300 300">
<path d="M 150.5 123.0 L 150.5 123.0 L 150.5 122.5 L 150.5 122.5 L 150.5 122.5 L 150.5 123.0 L 151.0 125.5 L 151.5 128.5 L 152.0 132.0 L 152.0 135.5 L 152.5 139.0 L 152.5 142.0 L 152.5 144.0 L 152.5 146.0 L 152.5 148.0 L 152.5 150.0 L 152.5 152.0 L 152.5 153.5 L 152.5 155.0 L 152.5 156.0 L 152.5 158.0 L 152.5 160.0 L 152.5 162.5 L 152.5 164.5 L 152.5 166.0 L 152.5 167.5 L 152.5 169.0 L 152.5 170.0 L 152.5 171.5 L 152.5 172.0 L 152.5 172.0 L 152.5 172.0 " stroke="black" fill="none" stroke-width="8.0" stroke-linecap="round" stroke-linejoin="round" />
<path d="M 149.5 196.5 L 149.5 196.5 L 149.5 196.5 L 149.0 196.0 L 149.0 196.0 L 149.0 196.0 L 149.0 196.0 L 149.5 196.0 " stroke="black" fill="none" stroke-width="8.0" stroke-linecap="round" stroke-linejoin="round" />
</svg>