<svg xmlns="http://www.w3.org/2000/svg" width="300" height="300" viewBox="0 0 300 300">
<path d="M 101.5 95.5 L 101.0 96.0 L 100.5 96.0 L 100.5 96.0 L 100.5 96.0 L 100.5 96.0 L 100.5 96.5 L 101.0 98.0 L 101.0 100.5 L 101.0 104.5 L 101.0 108.5 L 101.0 112.0 L 101.0 114.5 L 101.0 116.5 L 101.0 118.5 L 101.0 120.0 L 101.0 121.5 L 101.0 122.5 L 101.0 123.0 L 101.0 123.5 L 101.0 124.0 L 101.0 124.5 L 101.0 125.5 L 101.0 126.0 L 101.0 126.5 L 101.0 126.5 L 101.0 127.0 L 101.0 127.0 L 101.0 127.0 L 101.0 127.0 L 101.0 127.0 L 101.0 126.5 L 101.0 126.5 L 102.0 126.0 L 102.5 125.5 L 103.0 125.0 L 103.5 125.0 L 104.5 125.0 L 105.5 125.0 L 107.0 125.0 L 109.0 125.0 L 110.5 125.0 L 114.0 125.0 L 117.0 125.0 L 120.0 124.5 L 123.0 124.5 L 125.5 124.5 L 128.5 124.5 L 131.0 124.5 L 134.0 124.5 L 137.5 124.5 L 141.0 124.5 L 145.5 124.0 L 150.5 124.0 L 155.0 124.0 L 159.5 123.5 L 164.5 123.5 L 169.0 123.5 L 173.5 123.0 L 177.5 123.0 L 181.5 123.0 L 185.5 123.0 L 189.5 123.0 L 193.0 123.0 L 197.0 123.0 L 200.5 123.0 L 204.5 123.5 L 208.0 123.5 L 211.0 123.5 L 213.0 123.5 L 214.0 123.5 L 214.0 123.5 L 214.0 123.5 L 214.0 123.5 L 213.5 123.5 L 213.5 123.5 L 213.5 123.5 L 213.5 123.5 L 213.5 123.5 L 213.5 123.5 L 213.5 123.5 L 213.5 123.5 L 213.5 123.5 L 213.5 123.5 L 213.5 123.5 L 213.5 123.5 L 213.5 123.5 L 213.5 123.0 L 213.5 122.5 L 213.5 120.0 L 213.0 118.5 L 213.0 117.0 L 213.0 115.0 L 213.0 113.0 L 213.0 111.5 L 213.0 109.5 L 213.0 107.5 L 213.0 106.0 L 213.0 104.5 L 213.0 103.5 L 213.0 102.5 L 213.0 102.0 L 213.0 101.0 L 213.0 100.0 L 213.0 99.0 L 213.0 98.0 L 213.5 97.5 L 213.5 97.0 L 213.5 96.0 L 213.5 95.5 L 213.5 95.5 L 213.5 95.0 L 213.5 95.0 L 213.5 95.0 L 213.5 94.5 L 213.5 94.5 L 213.5 94.5 L 213.5 94.5 L 213.5 94.5 L 213.5 94.5 L 213.5 94.5 L 213.5 94.5 L 213.5 94.5 L 213.5 94.5 L 213.5 94.5 L 213.5 94.5 L 213.5 95.0 L 213.0 95.5 L 212.5 96.5 L 212.0 97.5 L 211.5 98.0 L 211.0 99.0 L 210.5 99.5 L 210.0 100.0 L 210.0 100.5 L 209.5 101.0 L 209.0 101.0 L 208.5 101.5 L 208.0 101.5 L 208.0 102.0 L 207.5 102.0 L 207.0 102.5 L 206.5 102.5 L 205.5 103.0 L 203.5 104.0 L 202.0 104.5 L 199.5 105.5 L 197.5 106.5 L 195.5 107.0 L 194.5 107.5 L 194.0 107.5 L 194.0 107.5 L 194.0 107.5 L 194.0 107.5 L 194.0 107.5 L 193.0 107.5 L 192.0 108.0 L 189.5 108.5 L 186.0 109.0 L 182.0 110.0 L 177.5 110.5 L 173.5 111.0 L 169.5 111.0 L 166.0 111.0 L 162.5 111.0 L 159.0 111.0 L 155.5 111.0 L 152.5 111.0 L 149.5 111.0 L 146.5 111.0 L 143.5 110.5 L 140.5 110.0 L 138.0 109.5 L 135.5 108.5 L 133.0 108.0 L 130.5 107.5 L 128.5 107.0 L 125.5 106.5 L 122.5 106.0 L 120.0 105.5 L 117.0 105.0 L 115.0 104.0 L 113.0 103.5 L 111.5 102.5 L 110.0 102.0 L 109.5 101.0 L 108.5 100.5 L 108.5 100.5 L 108.5 100.0 L 108.5 100.0 L 108.5 100.0 L 108.0 100.0 L 108.0 99.5 L 107.5 99.0 L 107.0 99.0 L 106.5 98.5 L 106.5 98.0 L 106.0 97.5 L 105.5 97.0 L 105.5 97.0 L 105.0 96.5 L 105.0 96.0 L 105.0 96.0 L 105.0 96.0 L 105.0 95.5 L 105.0 95.5 L 105.0 96.0 L 105.0 96.5 " stroke="black" fill="none" stroke-width="7.0" stroke-linecap="round" stroke-linejoin="round" />
</svg>