<svg xmlns="http://www.w3.org/2000/svg" width="300" height="300" viewBox="0 0 300 300">
<path d="M 106.5 179.0 L 106.5 179.0 L 106.5 179.5 L 106.5 179.5 L 106.5 179.5 L 106.5 179.5 L 106.5 180.5 L 106.5 182.0 L 107.0 186.5 L 107.0 193.0 L 106.5 199.5 L 106.5 202.5 L 106.5 202.5 L 106.5 200.0 L 106.5 197.5 " stroke="black" fill="none" stroke-width="7.0" stroke-linecap="round" stroke-linejoin="round" />
<path d="M 106.5 178.5 L 106.5 178.5 L 106.5 179.0 L 106.5 179.0 L 106.5 179.0 L 106.5 179.5 L 106.5 179.5 L 106.5 179.5 L 106.5 179.5 L 106.5 179.5 L 107.0 179.5 L 108.0 179.5 L 109.0 179.5 L 111.0 179.5 L 114.5 179.5 L 119.5 179.0 L 125.0 179.0 L 129.5 178.5 L 134.0 178.5 L 137.5 178.5 L 141.5 179.5 L 145.0 180.0 L 148.0 180.0 L 151.5 180.0 L 154.0 180.0 L 157.0 180.5 L 160.0 181.0 L 162.5 181.0 L 165.0 181.0 L 167.5 181.0 L 170.0 181.0 L 173.0 181.0 L 176.0 181.5 L 179.0 182.0 L 182.0 182.0 L 185.0 182.0 L 187.5 181.5 L 189.5 181.5 L 191.5 182.0 L 193.0 182.5 L 194.5 182.5 L 196.0 182.5 L 197.0 182.5 L 198.5 182.5 L 199.5 182.5 L 200.0 182.5 L 201.0 182.5 L 202.0 182.0 L 203.0 182.0 L 203.5 181.5 L 204.0 181.5 L 204.0 181.5 L 204.0 181.5 L 204.0 181.5 L 204.0 181.5 L 204.0 181.5 L 204.0 181.5 L 204.0 181.5 L 204.0 181.5 L 204.0 181.5 L 204.0 181.5 L 204.0 182.5 L 203.5 183.5 L 203.5 185.5 L 202.5 188.5 L 202.0 191.0 L 201.5 193.5 L 201.5 196.0 L 201.0 198.0 L 201.0 199.5 L 201.0 200.5 L 201.0 201.5 L 201.0 202.5 L 201.0 203.5 L 201.0 204.5 L 201.0 205.5 L 201.0 206.0 L 201.0 207.0 L 201.0 207.0 L 201.0 207.0 L 201.0 207.0 L 201.0 207.0 L 201.0 207.0 L 201.0 207.0 L 201.0 207.0 L 201.0 207.0 L 201.0 207.0 L 201.0 207.0 L 201.0 206.5 L 201.0 206.5 L 201.0 206.5 L 201.0 206.5 L 200.5 206.5 L 200.0 206.5 L 199.5 206.0 L 198.5 205.5 L 197.5 205.5 L 197.0 205.0 L 196.5 205.0 L 196.0 205.0 L 195.5 204.5 L 195.5 204.5 L 195.0 204.5 L 195.0 204.5 L 194.5 204.5 L 194.5 204.5 L 194.0 204.0 L 193.5 204.0 L 193.5 204.0 L 193.0 204.0 L 192.5 203.5 L 192.0 203.5 L 192.0 203.0 L 191.5 202.5 L 191.0 202.0 L 191.0 201.5 L 190.5 201.5 L 190.0 201.0 L 190.0 200.5 L 189.5 200.0 L 189.0 200.0 L 189.0 199.5 L 188.5 199.5 L 188.0 199.0 L 187.5 198.5 L 187.0 198.5 L 186.0 198.0 L 185.0 197.5 L 184.0 197.0 L 183.0 196.5 L 181.5 195.5 L 179.5 195.0 L 178.0 194.5 L 176.5 193.5 L 175.0 193.0 L 173.5 193.0 L 172.5 192.5 L 171.0 192.0 L 170.0 191.5 L 168.5 191.5 L 167.0 191.0 L 165.5 191.0 L 164.5 191.0 L 163.0 191.0 L 161.5 191.0 L 160.0 191.0 L 158.5 191.0 L 157.0 191.0 L 155.0 191.0 L 153.5 191.0 L 152.0 191.0 L 150.0 191.0 L 149.0 191.0 L 147.5 191.0 L 146.0 191.0 L 144.5 191.0 L 142.5 191.0 L 141.0 191.5 L 139.5 191.5 L 137.5 192.0 L 135.5 192.0 L 133.5 192.5 L 131.5 193.0 L 129.0 193.5 L 127.0 194.0 L 125.0 194.5 L 123.0 195.0 L 121.5 195.0 L 120.0 195.5 L 118.5 196.0 L 117.5 196.5 L 116.5 197.5 L 115.0 198.5 L 113.5 199.5 L 112.5 200.5 L 111.5 201.5 L 110.5 202.0 L 110.0 203.0 L 109.5 203.5 L 109.0 204.0 L 109.0 204.5 L 109.0 204.5 L 109.0 204.5 L 109.0 204.5 L 109.0 204.5 " stroke="black" fill="none" stroke-width="7.0" stroke-linecap="round" stroke-linejoin="round" />
</svg>