<svg xmlns="http://www.w3.org/2000/svg" width="300" height="300" viewBox="0 0 300 300">
<path d="M 149.0 116.5 L 149.0 116.5 L 148.5 116.5 L 148.5 117.0 L 148.5 117.0 L 148.5 117.5 L 148.5 119.0 L 149.0 121.0 L 149.5 124.5 L 150.0 128.0 L 150.0 132.0 L 150.5 135.5 L 150.5 138.5 L 150.5 140.0 L 150.5 141.5 L 150.5 142.5 L 150.5 143.5 L 150.5 144.5 L 151.0 146.0 L 151.0 147.0 L 151.0 148.0 L 151.0 149.0 L 151.0 150.5 L 151.0 151.5 L 151.0 152.5 L 151.5 153.5 L 151.5 154.0 L 151.5 154.5 L 151.5 154.5 L 151.5 154.5 L 151.5 154.5 L 151.5 154.5 L 151.5 154.5 L 151.5 154.5 " stroke="black" fill="none" stroke-width="6.0" stroke-linecap="round" stroke-linejoin="round" />
<path d="M 151.0 172.5 L 151.0 172.5 L 151.0 172.5 L 151.0 172.5 L 151.5 172.5 L 151.5 172.5 L 151.5 172.5 L 151.5 172.5 L 152.0 172.5 L 152.0 172.5 L 152.0 172.5 L 152.5 172.0 L 152.5 172.0 L 152.5 172.0 L 152.5 172.0 L 152.5 172.5 L 152.5 172.5 L 152.5 172.5 L 152.5 172.5 L 153.0 172.0 L 153.0 172.0 L 153.0 172.0 L 153.0 172.0 " stroke="black" fill="none" stroke-width="6.0" stroke-linecap="round" stroke-linejoin="round" />
</svg>