<svg xmlns="http://www.w3.org/2000/svg" width="300" height="300" viewBox="0 0 300 300">
<path d="M 141.5 120.5 L 141.5 120.5 L 140.5 120.5 L 140.0 120.5 L 139.5 120.5 L 139.5 120.0 L 140.5 120.0 L 143.0 119.5 L 147.0 119.5 L 152.0 119.5 L 157.0 119.0 L 161.0 119.0 L 163.0 118.5 L 164.0 118.5 L 164.5 118.5 L 165.0 118.5 L 165.0 118.5 L 165.5 118.5 L 165.5 118.5 L 165.5 118.5 L 165.5 118.5 L 165.5 118.5 L 165.5 118.5 L 165.5 118.5 L 165.5 119.0 L 165.5 119.5 L 165.5 120.0 L 165.0 121.5 L 164.0 123.5 L 162.5 127.0 L 161.0 130.5 L 159.5 133.5 L 158.5 135.5 L 157.0 137.0 L 157.0 137.5 " stroke="black" fill="none" stroke-width="6.0" stroke-linecap="round" stroke-linejoin="round" />
<path d="M 149.5 132.0 L 149.5 132.0 L 149.5 132.0 L 149.0 132.0 L 149.0 132.0 L 149.0 132.0 L 149.0 132.0 L 149.5 132.0 L 150.0 132.5 L 150.0 134.0 L 150.0 137.5 L 150.0 143.5 L 149.0 150.0 L 147.0 156.5 L 144.5 160.5 L 142.0 164.0 L 140.5 165.5 L 140.0 166.5 L 140.0 166.5 " stroke="black" fill="none" stroke-width="6.0" stroke-linecap="round" stroke-linejoin="round" />
</svg>