<svg xmlns="http://www.w3.org/2000/svg" width="300" height="300" viewBox="0 0 300 300">
<path d="M 164.5 118.0 L 164.5 117.5 L 164.0 116.5 L 163.0 115.0 L 161.5 114.0 L 159.5 112.5 L 156.5 111.5 L 152.5 111.0 L 149.0 111.0 L 146.5 112.5 L 144.5 113.5 L 143.0 115.0 L 142.0 117.0 L 141.0 120.5 L 140.0 124.5 L 139.5 128.0 L 139.5 131.5 L 140.0 135.5 L 141.5 139.0 L 144.0 143.0 L 148.0 146.0 L 151.5 148.0 L 155.5 149.5 L 158.5 151.0 L 161.0 152.0 L 163.0 154.0 L 164.0 155.5 L 165.0 157.5 L 165.5 160.0 L 166.0 162.5 L 166.0 165.0 L 166.0 167.5 L 165.5 170.0 L 164.5 172.0 L 163.0 173.5 L 159.5 175.0 L 155.5 176.0 L 150.0 175.5 L 145.0 174.0 L 141.0 172.0 L 139.0 170.0 L 138.5 167.5 " stroke="black" fill="none" stroke-width="6.0" stroke-linecap="round" stroke-linejoin="round" />
<path d="M 153.0 101.0 L 153.0 101.0 L 153.5 101.0 L 153.5 101.5 L 153.5 103.0 L 153.0 109.0 L 152.0 121.0 L 151.5 134.0 L 151.5 145.0 L 151.0 152.5 L 151.0 161.0 L 151.0 170.0 L 151.0 177.5 L 151.0 184.5 L 151.0 189.5 L 151.5 192.5 L 152.0 194.5 L 152.5 195.5 L 152.5 195.0 " stroke="black" fill="none" stroke-width="6.0" stroke-linecap="round" stroke-linejoin="round" />
</svg>