<svg xmlns="http://www.w3.org/2000/svg" width="300" height="300" viewBox="0 0 300 300">
<path d="M 110.0 190.0 L 110.0 190.0 L 110.0 189.5 L 110.0 189.5 L 110.0 189.5 L 110.5 189.0 L 111.0 189.0 L 112.0 188.0 L 114.5 186.0 L 118.5 182.0 L 125.0 176.5 L 131.5 170.5 L 138.5 164.0 L 146.0 157.5 L 152.5 152.0 L 157.5 147.5 L 162.5 143.0 L 167.0 139.0 L 171.5 135.5 L 176.0 132.0 L 180.0 128.5 L 183.5 126.0 L 186.0 124.5 L 188.0 123.0 L 189.5 122.0 L 190.5 121.0 L 191.5 120.5 L 192.5 119.5 L 192.5 119.5 L 192.5 119.5 L 192.5 119.5 L 192.5 119.5 L 192.5 119.5 L 192.5 119.5 L 192.5 119.5 L 192.5 119.5 L 192.5 119.5 L 192.5 119.5 L 192.5 119.5 L 192.5 119.5 L 192.5 119.5 L 192.5 119.5 L 192.5 119.5 L 192.5 119.5 " stroke="black" fill="none" stroke-width="6.0" stroke-linecap="round" stroke-linejoin="round" />
</svg>