<svg xmlns="http://www.w3.org/2000/svg" width="300" height="300" viewBox="0 0 300 300">
<path d="M 139.5 133.0 L 139.0 133.0 L 138.0 133.5 L 137.5 134.0 L 137.0 134.5 L 136.5 134.5 L 136.5 134.5 L 137.5 134.5 L 140.0 134.0 L 143.0 134.0 L 147.0 134.0 L 151.0 134.0 L 154.0 134.0 L 155.5 134.5 L 155.5 134.5 L 156.0 134.5 L 155.5 134.5 L 155.5 134.5 " stroke="black" fill="none" stroke-width="6.0" stroke-linecap="round" stroke-linejoin="round" />
<path d="M 148.5 137.0 L 148.5 137.0 L 148.5 136.5 L 148.5 136.5 L 148.5 136.5 L 148.5 136.5 L 148.5 136.5 L 148.5 137.5 L 148.5 140.5 L 148.0 146.0 L 148.0 152.5 L 147.5 158.0 L 147.5 162.0 L 147.5 163.0 L 147.5 163.0 L 147.5 163.0 L 147.5 162.5 L 147.5 161.5 " stroke="black" fill="none" stroke-width="6.0" stroke-linecap="round" stroke-linejoin="round" />
<path d="M 137.0 167.5 L 137.0 167.5 L 136.5 167.5 L 136.0 167.5 L 135.5 167.5 L 135.5 167.5 L 137.5 167.5 L 141.0 167.5 L 145.5 167.5 L 150.5 167.5 L 154.5 168.0 L 157.5 168.0 L 159.0 168.5 L 159.5 168.5 " stroke="black" fill="none" stroke-width="6.0" stroke-linecap="round" stroke-linejoin="round" />
</svg>