<svg xmlns="http://www.w3.org/2000/svg" width="300" height="300" viewBox="0 0 300 300">
<path d="M 139.0 121.5 L 138.0 121.5 L 137.0 121.0 L 137.0 120.5 L 137.0 120.0 L 137.5 118.5 L 138.5 117.0 L 140.0 115.5 L 141.5 114.0 L 144.0 112.5 L 146.0 111.5 L 148.5 111.0 L 150.0 111.0 L 151.5 111.0 L 152.5 112.0 L 153.0 113.0 L 154.0 114.5 L 154.5 115.5 L 154.5 117.0 L 155.0 118.5 L 155.0 120.0 L 155.5 121.5 L 155.5 123.5 L 155.5 125.5 L 155.5 127.5 L 155.5 129.5 L 155.5 132.0 L 155.0 134.0 L 154.5 135.5 L 154.0 137.5 L 153.0 139.0 L 152.5 141.0 L 151.5 142.5 L 151.0 144.5 L 150.5 146.0 L 150.0 148.0 L 149.5 149.5 L 149.0 151.0 L 149.0 152.0 L 149.0 152.0 L 149.5 152.5 L 150.0 153.5 L 151.0 154.0 L 151.5 154.0 " stroke="black" fill="none" stroke-width="6.0" stroke-linecap="round" stroke-linejoin="round" />
<path d="M 148.5 173.0 L 148.5 173.0 L 148.0 173.0 L 147.5 173.0 L 147.5 173.0 L 147.5 173.0 L 147.5 173.0 " stroke="black" fill="none" stroke-width="6.0" stroke-linecap="round" stroke-linejoin="round" />
</svg>