<svg xmlns="http://www.w3.org/2000/svg" width="300" height="300" viewBox="0 0 300 300">
<path d="M 149.0 100.0 L 149.0 100.0 L 148.5 99.5 L 148.0 99.5 L 148.0 99.5 L 148.0 100.0 L 148.5 102.0 L 149.0 105.5 L 149.5 111.5 L 150.0 118.0 L 150.0 124.5 L 150.5 130.0 L 150.5 135.0 L 150.5 140.0 L 151.0 144.0 L 151.0 147.5 L 151.0 151.0 L 151.0 154.5 L 151.0 158.0 L 151.0 161.5 L 151.0 164.5 L 151.0 167.5 L 151.0 170.0 L 151.0 172.5 L 151.0 175.0 L 151.5 177.5 L 151.5 179.0 L 152.0 180.5 L 152.0 181.0 L 152.0 181.5 L 152.0 182.0 L 152.0 182.0 L 152.0 182.0 L 152.0 182.0 L 152.0 181.5 " stroke="black" fill="none" stroke-width="6.0" stroke-linecap="round" stroke-linejoin="round" />
<path d="M 133.0 172.5 L 133.5 172.5 L 134.0 172.0 L 134.0 171.5 L 134.0 171.5 L 134.0 171.5 L 134.0 171.5 L 134.0 171.5 L 134.5 172.0 L 136.0 173.5 L 138.0 176.5 L 141.0 180.0 L 143.5 183.0 L 146.0 186.0 L 147.5 187.5 L 148.5 187.5 L 149.5 187.5 L 150.0 187.5 L 151.0 187.0 L 152.0 186.0 L 154.0 185.0 L 156.5 182.0 L 161.0 178.0 L 166.0 172.0 L 170.5 167.5 L 173.5 164.0 L 175.5 161.5 L 176.0 160.0 L 176.0 159.5 L 176.0 159.5 L 176.0 159.5 L 176.0 159.5 L 176.0 159.5 " stroke="black" fill="none" stroke-width="6.0" stroke-linecap="round" stroke-linejoin="round" />
</svg>