<svg xmlns="http://www.w3.org/2000/svg" width="300" height="300" viewBox="0 0 300 300">
<path d="M 144.0 130.5 L 143.5 130.5 L 142.5 130.5 L 142.0 130.0 L 142.0 129.5 L 143.5 128.0 L 147.0 126.5 L 150.5 125.0 L 154.0 125.0 L 157.0 126.5 L 159.5 130.0 L 160.0 134.0 L 159.5 138.0 L 156.5 142.0 L 153.5 144.5 L 151.0 146.0 L 150.0 146.0 L 150.0 146.0 L 150.0 146.0 L 152.0 146.0 L 155.0 146.0 L 158.5 147.5 L 161.5 150.5 L 163.5 154.0 L 164.0 159.0 L 163.0 163.5 L 160.0 168.5 L 155.5 172.0 L 150.5 174.0 L 145.0 174.5 L 139.5 174.0 L 136.5 172.5 L 135.0 171.5 L 135.5 171.0 L 136.5 170.5 " stroke="black" fill="none" stroke-width="6.0" stroke-linecap="round" stroke-linejoin="round" />
</svg>