<svg xmlns="http://www.w3.org/2000/svg" width="300" height="300" viewBox="0 0 300 300">
<path d="M 162.5 122.5 L 162.5 122.0 L 162.0 121.0 L 161.0 120.0 L 160.0 118.5 L 158.0 117.5 L 154.5 117.0 L 150.5 117.5 L 145.5 120.0 L 141.0 124.5 L 137.0 130.5 L 134.5 137.0 L 134.5 143.0 L 136.0 147.0 L 140.0 150.0 L 146.5 152.0 L 152.0 153.0 L 157.0 153.0 L 161.0 153.0 L 163.0 153.5 L 165.0 155.5 L 166.0 158.5 L 166.5 162.5 L 167.0 166.0 L 167.0 169.0 L 166.0 171.5 L 164.0 173.0 L 160.5 174.0 L 156.0 175.0 L 150.5 175.0 L 144.5 174.0 L 140.0 172.0 L 137.0 170.5 L 135.5 169.5 " stroke="black" fill="none" stroke-width="6.0" stroke-linecap="round" stroke-linejoin="round" />
</svg>