<svg xmlns="http://www.w3.org/2000/svg" width="300" height="300" viewBox="0 0 300 300">
<path d="M 137.5 140.0 L 137.0 140.0 L 136.5 139.5 L 136.0 139.5 L 135.5 139.5 L 135.5 139.0 L 135.5 139.0 L 135.5 139.0 L 137.5 139.0 L 141.0 139.0 L 145.5 139.5 L 151.5 140.0 L 157.0 140.5 L 160.5 141.0 L 162.5 141.5 L 163.0 141.5 L 163.0 141.5 L 163.0 141.5 L 162.5 141.5 L 162.0 141.5 L 162.0 141.5 " stroke="black" fill="none" stroke-width="6.0" stroke-linecap="round" stroke-linejoin="round" />
<path d="M 145.0 129.0 L 145.0 129.0 L 145.0 128.5 L 145.0 128.5 L 145.0 129.0 L 145.0 133.0 L 145.0 141.5 L 144.0 151.5 L 143.0 157.5 L 143.0 158.5 L 144.0 156.5 " stroke="black" fill="none" stroke-width="6.0" stroke-linecap="round" stroke-linejoin="round" />
<path d="M 159.5 130.0 L 159.5 130.0 L 159.5 130.0 L 159.0 130.0 L 159.0 130.0 L 159.0 130.0 L 159.0 130.5 L 159.0 133.0 L 158.5 139.0 L 158.0 147.5 L 157.0 156.5 L 156.0 163.0 L 154.5 168.0 L 152.5 173.0 L 151.0 176.0 L 150.0 177.5 L 149.5 178.0 L 149.5 178.0 " stroke="black" fill="none" stroke-width="6.0" stroke-linecap="round" stroke-linejoin="round" />
</svg>