<svg xmlns="http://www.w3.org/2000/svg" width="300" height="300" viewBox="0 0 300 300">
<path d="M 150.0 133.5 L 150.0 133.5 L 150.0 133.5 L 150.0 133.5 L 150.0 133.5 L 149.5 133.5 L 149.5 133.0 L 148.5 133.0 L 148.0 133.5 L 147.5 135.0 L 147.5 136.5 L 148.0 138.0 L 149.5 138.0 L 151.0 137.0 L 152.0 135.0 L 152.0 133.0 L 152.0 132.0 L 151.5 131.5 L 151.0 131.5 L 150.0 132.0 L 150.0 132.5 " stroke="black" fill="none" stroke-width="6.0" stroke-linecap="round" stroke-linejoin="round" />
<path d="M 151.5 170.5 L 151.5 170.5 L 152.0 170.5 L 152.5 170.5 L 152.5 171.0 L 152.5 171.0 L 152.0 172.0 L 151.5 173.0 L 151.0 174.5 L 151.0 175.0 L 151.0 175.5 L 151.5 175.5 L 152.0 174.5 L 152.5 172.5 L 152.5 170.5 L 152.0 169.0 L 151.0 168.5 L 150.0 168.5 L 149.0 170.5 L 149.0 172.5 L 149.5 174.0 L 150.5 175.0 L 152.0 175.0 L 153.0 174.5 L 153.5 172.5 L 153.5 170.5 L 153.5 169.5 L 152.0 169.0 L 150.5 170.0 L 149.5 171.0 L 149.0 172.5 L 149.0 173.0 " stroke="black" fill="none" stroke-width="6.0" stroke-linecap="round" stroke-linejoin="round" />
</svg>