<svg xmlns="http://www.w3.org/2000/svg" width="300" height="300" viewBox="0 0 300 300">
<path d="M 152.0 136.5 L 152.0 135.5 L 152.0 135.0 L 152.0 134.0 L 151.0 133.5 L 149.5 133.5 L 147.5 133.5 L 143.5 135.0 L 139.5 139.0 L 136.5 144.5 L 135.5 149.5 L 137.5 153.0 L 141.5 154.5 L 146.5 155.0 L 150.5 154.0 L 153.0 150.5 L 154.5 146.5 L 155.5 143.0 L 155.5 140.5 L 155.5 139.0 L 155.0 139.0 L 154.5 139.0 L 154.5 139.0 L 154.5 139.5 L 154.5 141.5 L 154.5 144.5 L 155.0 150.0 L 156.5 157.5 L 157.5 166.0 L 157.5 173.0 L 155.5 179.0 L 152.0 183.0 L 148.0 184.5 L 144.0 184.5 L 140.0 182.0 L 137.5 180.0 L 136.0 178.5 L 136.0 178.0 " stroke="black" fill="none" stroke-width="6.0" stroke-linecap="round" stroke-linejoin="round" />
</svg>