<svg xmlns="http://www.w3.org/2000/svg" width="300" height="300" viewBox="0 0 300 300">
<path d="M 139.0 128.5 L 139.0 128.5 L 139.0 128.5 L 139.0 128.5 L 139.0 128.5 L 139.0 128.5 L 139.0 129.5 L 140.5 135.5 L 142.5 146.0 L 144.5 159.5 L 146.5 170.5 L 148.5 177.5 L 150.5 183.5 L 152.0 188.5 L 152.5 190.5 L 152.5 190.5 L 152.5 190.5 L 152.0 189.5 L 150.5 186.5 L 150.5 185.5 " stroke="black" fill="none" stroke-width="6.0" stroke-linecap="round" stroke-linejoin="round" />
<path d="M 137.5 154.5 L 137.5 155.5 L 137.5 156.0 L 137.5 156.5 L 137.5 156.5 L 138.0 155.5 L 140.0 154.0 L 142.5 151.5 L 145.5 149.0 L 149.0 146.5 L 151.5 143.5 L 153.5 142.0 L 154.5 141.5 L 155.0 141.5 L 155.5 141.5 L 155.5 141.5 L 155.5 141.5 L 155.5 141.5 L 155.5 141.5 L 155.5 141.5 L 155.5 141.5 L 155.5 141.5 L 155.5 141.5 L 155.5 141.5 L 155.5 141.5 L 155.5 141.5 L 155.5 141.5 L 155.5 141.5 L 156.0 142.0 L 156.0 142.0 L 156.0 142.5 L 156.5 143.0 L 157.0 145.5 L 157.5 149.5 L 157.5 154.5 L 158.0 158.0 L 158.0 159.5 L 158.0 159.5 L 158.0 159.5 L 158.0 159.5 " stroke="black" fill="none" stroke-width="6.0" stroke-linecap="round" stroke-linejoin="round" />
</svg>