<svg xmlns="http://www.w3.org/2000/svg" width="300" height="300" viewBox="0 0 300 300">
<path d="M 150.5 133.0 L 150.5 132.5 L 150.0 132.0 L 149.0 132.0 L 148.5 131.5 L 148.0 131.0 L 147.5 131.0 L 147.0 131.0 L 146.0 131.0 L 144.5 131.0 L 142.5 131.5 L 140.5 132.0 L 138.0 132.5 L 136.0 133.0 L 134.5 133.5 L 133.5 134.0 L 133.0 134.5 L 132.0 135.0 L 131.0 136.0 L 130.0 137.0 L 128.5 138.5 L 127.5 139.5 L 126.5 140.5 L 126.0 141.5 L 125.5 142.5 L 124.5 143.5 L 123.5 145.0 L 122.5 147.0 L 121.5 149.0 L 120.5 150.5 L 120.0 152.0 L 119.5 153.5 L 119.0 155.0 L 119.0 156.0 L 119.0 157.5 L 119.0 159.0 L 119.0 160.5 L 119.0 162.0 L 119.0 163.5 L 119.0 165.5 L 119.0 167.0 L 119.0 168.5 L 119.5 170.0 L 120.0 171.5 L 120.5 173.0 L 121.0 174.5 L 121.5 176.5 L 122.0 178.0 L 122.5 179.5 L 123.5 181.0 L 124.0 182.5 L 125.0 183.5 L 126.0 184.5 L 126.5 185.5 L 127.5 186.0 L 129.0 187.0 L 130.0 187.5 L 131.5 188.5 L 133.0 189.0 L 134.5 189.5 L 136.0 190.0 L 138.0 190.5 L 139.5 190.5 L 141.0 190.5 L 143.0 191.0 L 144.5 191.0 L 146.5 191.0 L 148.0 191.0 L 149.5 191.0 L 151.0 190.5 L 152.0 190.0 L 153.5 189.5 L 154.5 189.0 L 156.5 188.0 L 157.5 187.5 L 159.0 186.5 L 160.5 186.0 L 162.0 185.0 L 163.0 183.5 L 164.5 182.0 L 165.0 181.0 L 166.5 179.0 L 167.5 177.0 L 168.5 175.0 L 169.5 173.0 L 170.0 170.5 L 171.0 168.5 L 171.5 167.0 L 172.0 165.0 L 172.0 163.0 L 172.5 160.5 L 172.5 158.5 L 172.5 156.5 L 172.5 154.5 L 172.5 152.5 L 172.5 151.0 L 172.0 149.5 L 171.0 148.0 L 170.5 146.5 L 169.5 145.0 L 168.5 143.5 L 167.0 142.0 L 166.0 141.0 L 165.0 140.5 L 163.5 139.5 L 161.5 138.5 L 159.0 137.0 L 157.0 135.5 L 154.5 134.5 L 152.0 133.0 L 150.5 132.0 L 149.5 131.5 L 149.0 131.0 L 149.0 131.0 L 148.5 131.5 L 148.0 132.5 " stroke="black" fill="none" stroke-width="7.0" stroke-linecap="round" stroke-linejoin="round" />
</svg>