<svg xmlns="http://www.w3.org/2000/svg" width="300" height="300" viewBox="0 0 300 300">
<path d="M 101.0 89.0 L 100.0 89.0 L 100.0 89.5 L 100.0 89.5 L 100.5 89.5 L 102.0 89.5 L 104.0 89.5 L 106.5 89.5 L 110.0 90.0 L 115.5 90.0 L 122.5 90.0 L 130.0 90.0 L 137.0 89.5 L 144.5 89.5 L 152.0 89.0 L 160.0 88.5 L 169.0 87.5 L 176.0 87.0 L 181.5 86.5 L 186.0 86.5 L 189.0 87.0 L 191.5 87.0 L 192.5 87.5 L 193.0 87.5 L 193.5 87.5 L 193.5 87.5 L 193.5 87.5 L 193.5 87.5 L 193.5 87.5 " stroke="black" fill="none" stroke-width="6.0" stroke-linecap="round" stroke-linejoin="round" />
</svg>