<svg xmlns="http://www.w3.org/2000/svg" width="300" height="300" viewBox="0 0 300 300">
<path d="M 147.5 136.5 L 147.5 136.5 L 148.0 136.0 L 148.0 135.5 L 148.5 135.5 L 148.5 135.0 L 148.5 135.0 L 148.5 136.0 L 146.5 141.0 L 143.0 149.5 L 138.5 158.5 L 136.0 162.0 L 136.0 162.5 L 136.0 159.0 " stroke="black" fill="none" stroke-width="6.0" stroke-linecap="round" stroke-linejoin="round" />
<path d="M 150.5 146.0 L 149.5 146.0 L 148.5 146.0 L 148.0 146.0 L 147.5 146.0 L 148.0 146.0 L 149.0 146.0 L 151.0 146.0 L 153.5 146.0 L 156.5 146.5 L 159.0 146.5 L 161.5 146.5 L 163.0 146.5 L 164.0 146.5 L 164.5 146.5 L 165.0 146.5 L 165.0 146.5 L 165.0 146.5 L 165.0 146.5 L 165.0 146.5 L 165.0 146.5 L 165.0 146.5 L 165.0 146.5 L 165.5 146.5 L 165.5 146.5 L 165.5 146.5 L 165.5 146.5 L 165.5 146.5 L 165.5 147.0 L 165.5 147.0 L 165.5 148.5 L 164.0 150.5 L 161.5 155.0 L 158.0 161.5 L 154.5 167.5 L 151.5 172.5 L 148.5 176.5 L 145.5 180.0 L 143.0 184.0 L 139.5 187.5 L 137.0 189.5 L 135.5 191.0 L 134.5 191.5 L 134.5 191.5 L 134.5 191.5 L 134.5 191.5 " stroke="black" fill="none" stroke-width="6.0" stroke-linecap="round" stroke-linejoin="round" />
<path d="M 146.5 168.0 L 146.5 168.0 L 146.0 168.0 L 145.5 168.0 L 145.5 168.0 L 145.0 167.5 L 145.0 167.5 L 146.0 168.5 L 149.0 172.0 L 155.0 177.5 L 161.5 182.5 L 165.5 184.0 L 166.0 184.0 " stroke="black" fill="none" stroke-width="6.0" stroke-linecap="round" stroke-linejoin="round" />
</svg>