<svg xmlns="http://www.w3.org/2000/svg" width="300" height="300" viewBox="0 0 300 300">
<path d="M 141.0 138.0 L 141.0 138.0 L 140.0 138.0 L 139.0 138.0 L 139.0 137.5 L 139.5 135.5 L 141.0 133.0 L 144.0 130.5 L 147.5 129.0 L 150.5 128.5 L 153.5 129.0 L 155.5 131.0 L 157.0 134.5 L 157.5 139.5 L 157.5 146.0 L 156.0 153.5 L 154.0 161.0 L 151.0 167.0 L 144.0 171.5 L 141.0 171.5 L 139.0 170.5 L 138.5 169.0 L 138.5 168.0 L 140.0 167.5 L 142.0 166.5 L 145.5 166.0 L 149.0 165.5 L 153.5 165.5 L 159.0 166.5 L 164.5 169.0 L 169.0 171.5 L 171.5 173.5 L 173.0 174.0 L 173.0 173.5 " stroke="black" fill="none" stroke-width="6.0" stroke-linecap="round" stroke-linejoin="round" />
</svg>