<svg xmlns="http://www.w3.org/2000/svg" width="300" height="300" viewBox="0 0 300 300">
<path d="M 145.5 127.5 L 145.5 127.5 L 146.0 127.5 L 146.5 127.5 L 146.5 127.5 L 147.0 127.5 L 147.0 127.5 L 147.5 129.0 L 147.5 132.0 L 146.5 139.0 L 146.0 148.0 L 145.5 154.0 L 145.5 158.5 L 145.5 162.0 L 145.5 165.5 L 145.5 168.5 L 145.5 171.0 L 145.5 172.0 L 145.5 172.5 L 145.5 172.5 L 145.5 172.5 L 145.5 172.5 L 145.5 171.5 " stroke="black" fill="none" stroke-width="6.0" stroke-linecap="round" stroke-linejoin="round" />
<path d="M 150.5 146.0 L 150.5 146.0 L 150.0 146.0 L 149.5 145.5 L 149.5 145.5 L 149.5 145.5 L 151.0 146.5 L 153.5 149.0 L 156.0 151.5 L 158.5 154.5 L 160.5 156.0 L 162.0 156.5 L 162.0 156.5 " stroke="black" fill="none" stroke-width="6.0" stroke-linecap="round" stroke-linejoin="round" />
</svg>