<svg xmlns="http://www.w3.org/2000/svg" width="300" height="300" viewBox="0 0 300 300">
<path d="M 151.5 155.0 L 151.5 155.0 L 151.5 155.0 L 151.5 155.0 L 151.5 155.0 L 151.5 154.5 L 150.5 154.0 L 149.5 154.0 L 148.5 154.0 L 147.5 155.5 L 147.5 158.5 L 147.5 161.0 L 149.0 162.5 L 151.0 163.0 L 152.5 162.0 L 153.5 159.5 L 154.0 157.5 L 154.0 155.5 L 153.5 154.5 L 152.0 154.0 L 151.0 153.5 L 150.0 153.5 L 149.0 154.5 L 149.0 155.5 L 149.0 156.5 L 149.5 157.0 L 151.0 157.5 L 151.5 157.5 L 152.5 157.0 L 152.5 156.0 L 153.0 155.5 L 153.0 155.0 L 152.5 154.5 L 152.0 154.0 " stroke="black" fill="none" stroke-width="6.0" stroke-linecap="round" stroke-linejoin="round" />
</svg>