<svg xmlns="http://www.w3.org/2000/svg" width="300" height="300" viewBox="0 0 300 300">
<path d="M 142.0 118.5 L 142.0 118.5 L 142.0 118.5 L 141.5 118.5 L 141.0 118.5 L 141.0 118.5 L 141.0 118.5 L 141.5 120.0 L 142.0 123.0 L 143.0 128.0 L 143.5 132.5 L 143.5 137.5 L 143.5 142.0 L 143.5 146.5 L 143.5 151.0 L 143.0 155.5 L 143.0 159.0 L 143.0 162.0 L 142.5 164.5 L 142.5 165.5 L 142.5 166.0 L 142.5 165.5 L 142.5 164.0 L 142.5 163.5 " stroke="black" fill="none" stroke-width="6.0" stroke-linecap="round" stroke-linejoin="round" />
<path d="M 158.5 146.5 L 159.0 146.0 L 159.5 145.5 L 159.5 145.0 L 160.0 144.5 L 160.0 144.5 L 160.5 144.5 L 160.5 145.0 L 160.5 147.0 L 160.0 149.5 L 158.5 153.0 L 157.0 157.0 L 154.0 160.0 L 151.5 163.0 L 148.5 165.0 L 146.5 166.5 L 145.5 167.0 L 144.5 167.5 L 143.5 167.5 L 143.0 168.0 L 142.5 168.5 L 142.5 169.0 L 142.5 169.0 " stroke="black" fill="none" stroke-width="6.0" stroke-linecap="round" stroke-linejoin="round" />
</svg>