<svg xmlns="http://www.w3.org/2000/svg" width="300" height="300" viewBox="0 0 300 300">
<path d="M 140.5 127.0 L 140.5 126.5 L 140.5 126.0 L 141.0 125.5 L 141.0 125.5 L 141.5 125.5 L 142.5 127.5 L 144.0 133.5 L 146.5 144.0 L 150.0 157.5 L 153.0 169.0 L 156.0 176.0 L 158.5 180.5 L 159.5 182.5 L 159.5 183.0 L 159.5 183.0 L 159.5 183.0 L 158.5 182.0 " stroke="black" fill="none" stroke-width="6.0" stroke-linecap="round" stroke-linejoin="round" />
<path d="M 141.5 145.0 L 141.0 145.0 L 140.5 144.5 L 140.0 144.5 L 140.0 144.0 L 141.0 144.0 L 142.5 143.0 L 145.0 142.5 L 148.5 141.0 L 153.5 139.0 L 159.5 136.5 L 164.0 135.0 L 166.0 134.5 L 167.0 134.5 L 167.0 134.5 L 167.0 134.5 L 167.0 134.5 L 167.0 134.5 L 167.5 134.0 L 168.0 134.0 L 168.5 134.0 L 168.5 134.0 L 169.0 134.0 L 169.0 134.0 L 169.0 134.0 L 169.0 134.0 L 169.0 134.0 L 169.0 134.0 L 169.0 134.0 L 169.0 134.0 L 169.0 134.0 L 169.0 134.0 L 169.0 134.5 L 168.5 135.5 L 168.5 137.0 L 167.5 139.5 L 167.0 142.0 L 166.0 145.0 L 165.0 148.0 L 164.5 150.0 L 164.0 151.0 L 164.0 152.0 L 163.5 152.0 L 163.5 152.0 L 164.0 152.0 L 164.5 152.0 " stroke="black" fill="none" stroke-width="6.0" stroke-linecap="round" stroke-linejoin="round" />
</svg>