<svg xmlns="http://www.w3.org/2000/svg" width="300" height="300" viewBox="0 0 300 300">
<path d="M 138.0 114.5 L 139.0 114.5 L 140.0 114.5 L 140.0 114.5 L 140.5 114.5 L 139.5 115.5 L 135.0 120.0 L 128.5 127.0 L 124.0 133.0 L 122.5 135.0 L 122.5 135.0 " stroke="black" fill="none" stroke-width="6.0" stroke-linecap="round" stroke-linejoin="round" />
<path d="M 142.5 125.5 L 142.5 126.5 L 142.0 127.0 L 141.0 128.5 L 139.5 131.5 L 136.0 137.5 L 131.0 145.0 L 127.0 149.5 L 125.0 150.5 L 124.5 150.5 L 124.5 150.5 " stroke="black" fill="none" stroke-width="6.0" stroke-linecap="round" stroke-linejoin="round" />
<path d="M 133.5 142.5 L 134.5 142.5 L 135.0 143.5 L 135.5 145.0 L 136.0 150.0 L 136.0 160.0 L 135.0 173.0 L 134.5 181.0 L 134.5 182.0 L 134.5 180.5 " stroke="black" fill="none" stroke-width="6.0" stroke-linecap="round" stroke-linejoin="round" />
<path d="M 154.5 117.5 L 154.5 118.5 L 154.5 118.5 L 155.0 119.0 L 159.0 119.0 L 164.5 118.0 L 169.5 117.0 L 172.0 116.5 L 173.5 116.5 L 174.0 116.5 " stroke="black" fill="none" stroke-width="6.0" stroke-linecap="round" stroke-linejoin="round" />
<path d="M 151.0 137.5 L 151.0 137.5 L 151.0 137.5 L 151.0 137.5 L 151.0 137.0 L 152.5 136.5 L 157.5 135.0 L 165.0 134.0 L 171.5 134.0 L 176.0 134.0 L 177.5 134.5 L 178.0 134.5 " stroke="black" fill="none" stroke-width="6.0" stroke-linecap="round" stroke-linejoin="round" />
<path d="M 163.0 139.5 L 163.0 139.5 L 163.0 139.0 L 163.0 139.0 L 163.0 139.0 L 164.0 141.0 L 165.5 146.0 L 166.5 154.0 L 167.0 162.5 L 167.0 169.5 L 167.0 174.5 L 165.5 178.0 L 163.5 180.5 L 162.0 181.0 L 159.5 180.0 L 156.5 178.0 L 153.5 176.5 L 152.5 176.0 L 152.5 175.5 " stroke="black" fill="none" stroke-width="6.0" stroke-linecap="round" stroke-linejoin="round" />
</svg>