<svg xmlns="http://www.w3.org/2000/svg" width="300" height="300" viewBox="0 0 300 300">
<path d="M 125.5 125.0 L 125.0 124.0 L 125.0 123.0 L 125.0 122.5 L 125.0 122.5 L 126.0 124.5 L 126.5 130.5 L 126.5 141.5 L 126.5 156.0 L 126.5 166.5 L 127.0 170.0 L 127.0 168.5 L 127.5 164.0 " stroke="black" fill="none" stroke-width="6.0" stroke-linecap="round" stroke-linejoin="round" />
<path d="M 127.0 124.0 L 126.0 124.0 L 125.5 124.0 L 125.5 124.0 L 127.5 124.0 L 131.5 124.0 L 137.0 124.0 L 144.0 123.5 L 151.0 123.0 L 157.5 123.0 L 162.5 123.5 L 165.5 124.0 L 170.5 124.0 L 173.5 124.0 L 174.5 124.0 L 175.0 124.0 L 175.0 124.0 L 175.0 124.0 L 175.0 124.0 L 175.0 124.0 L 175.0 124.5 L 175.0 124.5 L 175.0 125.0 L 175.0 125.5 L 175.0 126.0 L 175.0 127.5 L 175.0 130.0 L 174.0 135.0 L 173.5 140.5 L 173.0 150.0 L 173.0 156.0 L 173.0 161.0 L 172.5 164.0 L 172.5 166.0 L 172.5 167.5 L 172.5 168.5 L 172.5 169.5 L 172.5 170.0 " stroke="black" fill="none" stroke-width="6.0" stroke-linecap="round" stroke-linejoin="round" />
<path d="M 145.0 125.0 L 145.0 125.0 L 145.0 125.0 L 145.0 125.0 L 145.0 125.0 L 145.0 125.0 L 145.0 128.0 L 144.0 132.5 L 142.0 138.5 L 139.5 144.5 L 138.5 147.5 L 138.0 148.0 L 138.5 147.5 " stroke="black" fill="none" stroke-width="6.0" stroke-linecap="round" stroke-linejoin="round" />
<path d="M 155.0 127.0 L 155.0 127.0 L 155.0 126.5 L 155.5 126.5 L 155.5 126.5 L 155.0 129.0 L 154.5 134.5 L 153.0 141.0 L 152.5 146.5 L 152.0 149.5 L 152.5 150.5 L 153.5 150.5 L 154.5 150.5 L 156.5 150.5 L 159.0 150.0 L 161.5 150.0 L 164.0 149.5 L 165.5 149.0 L 166.0 149.0 L 166.0 149.0 " stroke="black" fill="none" stroke-width="6.0" stroke-linecap="round" stroke-linejoin="round" />
<path d="M 129.0 168.5 L 128.5 168.5 L 128.0 168.5 L 128.0 168.5 L 128.0 168.0 L 129.0 168.0 L 132.0 168.0 L 136.5 168.5 L 143.5 169.0 L 152.0 169.0 L 160.0 169.0 L 166.5 169.0 L 171.0 169.5 L 173.5 169.5 L 174.0 170.0 L 174.5 170.5 " stroke="black" fill="none" stroke-width="6.0" stroke-linecap="round" stroke-linejoin="round" />
</svg>