<svg xmlns="http://www.w3.org/2000/svg" width="300" height="300" viewBox="0 0 300 300">
<path d="M 134.5 107.0 L 134.5 107.0 L 134.5 107.0 L 134.5 107.0 L 134.5 107.0 L 134.5 109.5 L 134.0 116.0 L 133.5 123.5 L 133.5 128.0 L 132.5 129.0 " stroke="black" fill="none" stroke-width="6.0" stroke-linecap="round" stroke-linejoin="round" />
<path d="M 124.0 117.5 L 123.0 117.5 L 122.5 117.0 L 122.5 117.0 L 125.5 116.5 L 129.5 116.5 L 135.0 116.0 L 140.5 116.0 L 145.0 115.0 L 147.5 114.5 " stroke="black" fill="none" stroke-width="6.0" stroke-linecap="round" stroke-linejoin="round" />
<path d="M 166.0 105.5 L 166.0 105.5 L 165.0 105.5 L 164.5 105.5 L 164.5 105.5 L 164.5 108.5 L 164.5 114.0 L 164.5 120.5 L 164.5 125.0 " stroke="black" fill="none" stroke-width="6.0" stroke-linecap="round" stroke-linejoin="round" />
<path d="M 152.0 119.5 L 152.0 119.5 L 151.5 119.5 L 151.0 119.5 L 154.5 119.0 L 161.5 116.5 L 167.5 115.5 L 171.0 116.0 L 173.0 118.0 " stroke="black" fill="none" stroke-width="6.0" stroke-linecap="round" stroke-linejoin="round" />
<path d="M 140.0 138.5 L 140.0 138.5 L 140.0 138.5 L 140.0 138.5 L 141.0 138.5 L 144.0 138.5 L 151.0 138.5 L 158.5 137.5 L 163.5 137.0 L 164.0 137.0 " stroke="black" fill="none" stroke-width="6.0" stroke-linecap="round" stroke-linejoin="round" />
<path d="M 129.0 154.0 L 129.5 154.0 L 129.5 154.0 L 130.0 154.0 L 131.5 154.0 L 135.0 154.0 L 143.5 153.5 L 154.0 153.0 L 164.0 153.0 L 171.5 152.5 L 174.0 152.0 " stroke="black" fill="none" stroke-width="6.0" stroke-linecap="round" stroke-linejoin="round" />
<path d="M 152.5 129.0 L 152.5 129.0 L 152.5 129.0 L 152.5 129.0 L 152.5 129.0 L 152.5 131.0 L 152.0 138.5 L 149.5 153.0 L 145.0 168.5 L 140.0 178.0 L 136.0 183.0 L 134.0 185.0 L 134.0 185.0 L 133.5 183.5 " stroke="black" fill="none" stroke-width="6.0" stroke-linecap="round" stroke-linejoin="round" />
<path d="M 154.0 162.0 L 154.0 162.0 L 154.5 162.0 L 154.5 162.0 L 154.5 162.0 L 156.5 165.0 L 161.0 172.5 L 167.5 180.0 L 173.0 182.5 L 177.0 183.0 " stroke="black" fill="none" stroke-width="6.0" stroke-linecap="round" stroke-linejoin="round" />
</svg>