<svg xmlns="http://www.w3.org/2000/svg" width="300" height="300" viewBox="0 0 300 300">
<path d="M 127.5 117.0 L 127.0 117.0 L 125.0 118.0 L 124.5 118.0 L 126.0 118.0 L 130.0 116.5 L 134.5 115.0 L 138.5 114.0 L 140.5 113.5 L 142.0 113.5 L 142.0 116.0 L 141.0 120.5 L 139.5 126.5 L 138.5 132.0 L 138.0 135.5 L 137.5 137.0 L 137.5 136.0 " stroke="black" fill="none" stroke-width="6.0" stroke-linecap="round" stroke-linejoin="round" />
<path d="M 129.0 128.0 L 128.5 128.0 L 127.0 128.0 L 127.0 128.0 L 128.5 128.0 L 132.5 127.0 L 136.0 126.0 L 138.5 125.5 L 139.5 125.5 L 139.5 126.5 " stroke="black" fill="none" stroke-width="6.0" stroke-linecap="round" stroke-linejoin="round" />
<path d="M 128.0 138.5 L 128.0 138.5 L 127.0 139.5 L 127.5 140.0 L 131.0 140.0 L 135.0 139.0 L 138.0 136.5 L 138.5 134.5 " stroke="black" fill="none" stroke-width="6.0" stroke-linecap="round" stroke-linejoin="round" />
<path d="M 122.5 121.5 L 121.0 121.5 L 120.5 121.5 L 120.5 122.0 L 122.5 125.5 L 124.5 133.5 L 125.5 146.5 L 125.5 164.5 L 124.5 181.0 L 124.0 190.5 L 125.0 194.0 L 126.0 192.0 L 126.5 189.5 " stroke="black" fill="none" stroke-width="6.0" stroke-linecap="round" stroke-linejoin="round" />
<path d="M 155.0 114.0 L 155.0 114.0 L 155.0 114.0 L 155.5 114.0 L 155.5 114.0 L 155.5 115.0 L 155.5 119.0 L 155.0 127.5 L 154.5 135.0 L 154.5 137.0 L 154.5 136.5 " stroke="black" fill="none" stroke-width="6.0" stroke-linecap="round" stroke-linejoin="round" />
<path d="M 156.0 114.5 L 156.0 114.5 L 156.0 114.0 L 156.5 113.5 L 156.5 113.0 L 158.0 112.5 L 161.0 112.0 L 164.0 111.5 L 167.0 111.5 L 169.0 111.5 L 170.0 111.5 L 170.0 112.0 L 170.0 113.0 L 170.0 115.0 L 170.5 117.5 L 170.5 120.5 L 171.0 124.5 L 171.5 130.5 L 172.0 139.0 L 172.5 149.0 L 173.5 158.0 L 173.5 167.5 L 173.5 176.5 L 172.5 184.0 L 172.0 189.5 L 171.5 194.5 L 170.5 198.0 L 170.0 199.5 L 169.5 199.5 L 167.5 198.0 L 165.0 191.0 L 164.5 189.0 " stroke="black" fill="none" stroke-width="6.0" stroke-linecap="round" stroke-linejoin="round" />
<path d="M 153.5 125.5 L 153.5 125.5 L 153.5 125.5 L 154.0 125.5 L 155.0 125.5 L 158.0 125.5 L 162.0 125.0 L 165.5 125.0 L 167.0 125.5 " stroke="black" fill="none" stroke-width="6.0" stroke-linecap="round" stroke-linejoin="round" />
<path d="M 158.5 137.0 L 158.0 138.0 L 158.0 139.5 L 158.0 139.5 L 159.5 139.5 L 163.0 139.5 L 166.5 139.0 L 170.5 138.0 L 171.5 137.5 " stroke="black" fill="none" stroke-width="6.0" stroke-linecap="round" stroke-linejoin="round" />
</svg>