<svg xmlns="http://www.w3.org/2000/svg" width="300" height="300" viewBox="0 0 300 300">
<path d="M 124.5 131.0 L 123.0 131.0 L 123.0 131.0 L 123.5 130.5 L 127.0 130.0 L 131.5 129.5 L 136.0 129.5 L 140.0 128.5 L 142.0 127.5 L 143.0 127.0 L 143.0 127.0 " stroke="black" fill="none" stroke-width="6.0" stroke-linecap="round" stroke-linejoin="round" />
<path d="M 132.5 117.0 L 132.5 118.0 L 133.0 118.0 L 133.0 118.5 L 133.5 121.5 L 133.5 127.5 L 133.0 134.5 L 133.0 140.0 L 133.0 141.5 " stroke="black" fill="none" stroke-width="6.0" stroke-linecap="round" stroke-linejoin="round" />
<path d="M 123.5 146.0 L 123.0 146.0 L 121.0 146.0 L 121.0 146.0 L 123.5 146.0 L 128.5 145.0 L 134.0 144.0 L 139.5 143.0 L 143.5 142.5 L 146.0 143.0 " stroke="black" fill="none" stroke-width="6.0" stroke-linecap="round" stroke-linejoin="round" />
<path d="M 125.0 157.5 L 124.5 157.5 L 124.0 157.0 L 124.0 157.0 L 124.0 157.5 L 124.5 160.5 L 125.5 164.5 L 127.0 167.5 L 127.5 168.0 " stroke="black" fill="none" stroke-width="6.0" stroke-linecap="round" stroke-linejoin="round" />
<path d="M 128.5 156.5 L 127.0 156.5 L 127.0 156.5 L 128.0 155.5 L 131.5 154.5 L 136.0 153.5 L 140.0 153.0 L 143.0 152.5 L 145.0 152.0 L 146.0 152.0 L 146.0 152.0 L 146.0 152.5 L 146.0 153.5 L 145.5 155.0 L 144.5 157.5 L 143.5 160.0 L 142.5 162.5 L 142.5 163.5 " stroke="black" fill="none" stroke-width="6.0" stroke-linecap="round" stroke-linejoin="round" />
<path d="M 130.5 167.5 L 130.5 167.5 L 130.5 167.5 L 130.5 168.0 L 131.0 168.0 L 133.0 167.5 L 137.0 167.5 L 141.5 167.0 L 142.5 167.0 " stroke="black" fill="none" stroke-width="6.0" stroke-linecap="round" stroke-linejoin="round" />
<path d="M 128.0 177.0 L 127.5 177.5 L 127.5 177.5 L 127.5 178.5 L 128.5 180.5 L 130.0 183.5 L 132.0 185.5 L 132.0 185.5 " stroke="black" fill="none" stroke-width="6.0" stroke-linecap="round" stroke-linejoin="round" />
<path d="M 142.5 175.5 L 142.5 175.5 L 142.0 175.5 L 141.5 175.5 L 141.5 176.0 L 141.5 178.0 L 141.0 181.5 L 140.5 185.0 L 139.5 187.5 L 139.0 188.0 " stroke="black" fill="none" stroke-width="6.0" stroke-linecap="round" stroke-linejoin="round" />
<path d="M 126.5 191.0 L 125.5 191.0 L 124.5 191.0 L 124.0 191.0 L 126.5 191.0 L 131.0 191.0 L 135.5 191.0 L 140.5 190.5 L 144.5 189.5 L 146.5 189.0 " stroke="black" fill="none" stroke-width="6.0" stroke-linecap="round" stroke-linejoin="round" />
<path d="M 159.5 132.0 L 159.5 132.5 L 159.0 133.0 L 160.0 133.0 L 164.0 131.5 L 168.5 130.0 L 172.5 129.0 L 175.0 128.5 L 176.5 128.0 L 176.5 128.5 " stroke="black" fill="none" stroke-width="6.0" stroke-linecap="round" stroke-linejoin="round" />
<path d="M 169.0 119.0 L 168.0 119.0 L 167.5 118.5 L 167.5 118.0 L 167.5 118.5 L 167.5 122.5 L 167.5 129.0 L 168.0 135.5 L 168.5 140.0 L 169.5 142.0 " stroke="black" fill="none" stroke-width="6.0" stroke-linecap="round" stroke-linejoin="round" />
<path d="M 160.5 146.5 L 160.5 146.5 L 160.0 146.5 L 160.0 146.5 L 160.5 146.5 L 164.0 146.0 L 168.5 145.0 L 173.0 144.0 L 177.0 143.0 L 179.5 143.0 L 180.5 142.5 L 181.0 142.5 L 181.0 143.0 L 180.5 144.0 L 180.0 145.0 L 178.5 146.5 L 177.5 148.5 L 175.5 151.5 L 174.0 156.0 L 172.0 162.0 L 169.5 169.0 L 166.0 176.0 L 164.0 180.0 L 163.0 181.5 L 162.5 182.0 L 162.5 182.0 L 162.5 181.0 L 163.5 179.0 " stroke="black" fill="none" stroke-width="6.0" stroke-linecap="round" stroke-linejoin="round" />
<path d="M 166.5 156.0 L 166.0 156.0 L 164.5 156.5 L 164.0 156.5 L 164.0 156.5 L 166.0 157.0 L 170.0 161.0 L 175.0 167.5 L 180.0 174.0 L 183.5 178.0 L 185.5 179.5 L 186.5 180.0 L 186.5 179.0 " stroke="black" fill="none" stroke-width="6.0" stroke-linecap="round" stroke-linejoin="round" />
</svg>