<svg xmlns="http://www.w3.org/2000/svg" width="300" height="300" viewBox="0 0 300 300">
<path d="M 128.5 130.0 L 128.5 130.5 L 128.5 130.5 L 129.0 130.5 L 131.5 130.0 L 134.5 128.0 L 137.5 126.5 L 138.0 126.0 " stroke="black" fill="none" stroke-width="6.0" stroke-linecap="round" stroke-linejoin="round" />
<path d="M 128.0 111.5 L 127.5 111.5 L 127.0 112.0 L 126.5 113.0 L 126.5 115.0 L 126.5 121.0 L 126.0 131.5 L 125.5 142.0 L 125.5 147.0 L 126.0 148.0 L 127.5 147.5 L 129.0 146.0 L 131.0 144.5 L 133.0 142.5 L 135.0 141.0 L 137.0 140.0 " stroke="black" fill="none" stroke-width="6.0" stroke-linecap="round" stroke-linejoin="round" />
<path d="M 155.0 127.0 L 155.0 127.0 L 155.0 127.5 L 154.5 128.0 L 156.5 128.0 L 160.5 126.5 L 164.5 124.5 L 166.5 122.5 L 167.0 122.0 " stroke="black" fill="none" stroke-width="6.0" stroke-linecap="round" stroke-linejoin="round" />
<path d="M 155.0 108.5 L 155.0 108.5 L 155.5 108.5 L 155.5 108.5 L 155.5 109.0 L 154.5 111.5 L 152.0 120.0 L 147.5 133.0 L 146.0 142.0 L 147.0 145.0 L 150.0 145.5 L 154.0 146.5 L 159.0 146.5 L 164.0 146.5 L 168.0 145.0 L 170.5 144.0 L 171.5 142.5 L 171.5 141.5 L 170.5 141.0 L 170.0 141.0 L 170.0 141.0 " stroke="black" fill="none" stroke-width="6.0" stroke-linecap="round" stroke-linejoin="round" />
<path d="M 142.0 152.0 L 142.0 152.0 L 142.0 152.0 L 142.0 152.0 L 142.0 152.0 L 142.0 152.0 L 141.0 154.0 L 140.0 156.5 L 139.0 157.5 " stroke="black" fill="none" stroke-width="6.0" stroke-linecap="round" stroke-linejoin="round" />
<path d="M 129.5 162.5 L 129.5 162.0 L 130.0 161.5 L 130.0 161.0 L 130.0 162.5 L 130.0 168.0 L 130.0 176.0 L 130.0 184.0 L 131.0 188.0 L 131.0 188.5 " stroke="black" fill="none" stroke-width="6.0" stroke-linecap="round" stroke-linejoin="round" />
<path d="M 130.5 167.0 L 130.5 166.0 L 130.0 165.5 L 130.5 165.0 L 133.0 163.5 L 139.0 161.5 L 148.0 159.0 L 156.5 159.0 L 161.0 160.5 L 163.5 163.0 L 163.5 166.0 L 161.5 169.0 L 160.0 171.5 L 158.5 175.0 L 158.0 178.5 L 157.5 181.0 L 157.5 182.5 L 157.0 182.5 " stroke="black" fill="none" stroke-width="6.0" stroke-linecap="round" stroke-linejoin="round" />
<path d="M 135.0 177.5 L 136.0 177.5 L 136.5 177.0 L 137.5 177.0 L 139.5 176.5 L 144.0 175.0 L 148.5 174.0 L 153.0 173.0 L 155.0 173.0 " stroke="black" fill="none" stroke-width="6.0" stroke-linecap="round" stroke-linejoin="round" />
<path d="M 133.0 190.0 L 133.5 190.0 L 134.5 190.0 L 136.0 189.5 L 139.5 188.5 L 146.5 187.0 L 152.5 185.5 L 157.5 185.0 L 159.5 184.5 " stroke="black" fill="none" stroke-width="6.0" stroke-linecap="round" stroke-linejoin="round" />
</svg>