<svg xmlns="http://www.w3.org/2000/svg" width="300" height="300" viewBox="0 0 300 300">
<path d="M 139.5 105.5 L 140.0 105.5 L 140.0 105.0 L 140.5 105.0 L 139.5 107.0 L 137.0 113.0 L 134.5 119.0 L 133.0 121.5 " stroke="black" fill="none" stroke-width="7.0" stroke-linecap="round" stroke-linejoin="round" />
<path d="M 145.0 110.5 L 144.5 110.5 L 143.0 111.0 L 142.5 111.0 L 143.0 111.0 L 145.5 111.0 L 149.0 111.0 L 153.5 110.5 L 157.5 110.0 L 161.0 109.5 L 162.5 109.0 L 163.0 110.0 L 162.5 112.5 L 161.0 115.0 L 160.0 118.0 L 159.0 120.5 L 158.5 122.0 " stroke="black" fill="none" stroke-width="7.0" stroke-linecap="round" stroke-linejoin="round" />
<path d="M 133.0 131.0 L 132.5 131.0 L 132.0 131.0 L 131.5 131.0 L 131.5 131.5 L 134.0 131.5 L 141.5 130.5 L 153.0 128.5 L 163.5 127.0 L 169.5 126.5 L 171.0 127.5 L 170.5 128.0 L 170.0 128.0 L 170.0 128.0 L 170.0 128.0 L 170.0 128.0 L 170.0 128.0 L 170.0 128.0 L 170.0 128.0 L 170.0 128.0 L 170.0 128.0 L 170.0 128.0 L 170.0 128.0 L 170.0 128.0 L 170.0 128.0 L 170.0 128.0 L 170.0 128.0 L 170.0 128.0 L 170.0 128.5 L 170.0 129.5 L 170.0 131.0 L 169.5 137.0 L 169.0 141.5 L 168.5 144.5 L 168.5 146.5 L 168.5 147.5 " stroke="black" fill="none" stroke-width="7.0" stroke-linecap="round" stroke-linejoin="round" />
<path d="M 149.0 132.0 L 149.0 132.0 L 149.0 132.0 L 148.5 132.0 L 148.5 132.5 L 149.0 136.5 L 150.0 143.0 L 151.0 147.0 L 151.0 148.5 L 151.0 148.5 " stroke="black" fill="none" stroke-width="7.0" stroke-linecap="round" stroke-linejoin="round" />
<path d="M 136.0 154.5 L 136.0 154.5 L 136.5 154.5 L 137.5 154.5 L 139.5 154.0 L 145.0 153.0 L 154.5 151.5 L 164.0 150.5 L 169.5 149.5 L 170.5 149.5 " stroke="black" fill="none" stroke-width="7.0" stroke-linecap="round" stroke-linejoin="round" />
<path d="M 131.5 133.5 L 132.0 134.0 L 132.5 134.5 L 132.5 135.0 L 132.5 135.0 L 133.0 136.0 L 133.0 138.0 L 133.5 141.5 L 134.0 147.5 L 133.5 154.5 L 132.5 162.0 L 132.0 168.0 L 132.5 172.5 L 134.0 177.5 L 136.0 182.0 L 139.0 186.0 L 143.5 188.5 L 149.0 190.5 L 155.0 191.5 L 161.5 192.0 L 169.0 192.0 L 174.0 191.5 L 177.5 189.5 L 180.0 187.5 L 181.0 185.5 L 181.0 183.5 L 181.0 181.5 L 180.5 179.5 L 179.5 178.0 L 179.5 177.0 L 179.5 177.0 L 179.5 177.0 L 179.5 177.5 " stroke="black" fill="none" stroke-width="7.0" stroke-linecap="round" stroke-linejoin="round" />
</svg>