<svg xmlns="http://www.w3.org/2000/svg" width="300" height="300" viewBox="0 0 300 300">
<path d="M 129.5 106.0 L 129.5 105.0 L 129.5 104.5 L 129.5 104.5 L 129.5 104.5 L 129.5 105.0 L 130.0 107.5 L 129.5 112.0 L 127.0 118.0 L 124.0 124.5 L 121.5 128.0 L 120.5 128.5 L 120.0 128.5 L 120.0 128.0 " stroke="black" fill="none" stroke-width="6.0" stroke-linecap="round" stroke-linejoin="round" />
<path d="M 128.0 117.5 L 128.0 117.5 L 128.0 117.5 L 128.0 117.5 L 128.5 117.5 L 131.5 117.5 L 139.5 117.5 L 150.0 117.5 L 159.5 118.0 L 165.0 118.0 L 167.5 118.0 L 168.0 118.0 L 168.0 117.5 L 167.5 117.0 " stroke="black" fill="none" stroke-width="6.0" stroke-linecap="round" stroke-linejoin="round" />
<path d="M 137.0 136.0 L 137.0 135.5 L 137.5 135.5 L 137.5 135.0 L 137.5 135.0 L 138.0 137.5 L 138.0 142.5 L 138.0 148.5 L 138.0 152.0 L 138.0 153.5 L 138.0 152.5 " stroke="black" fill="none" stroke-width="6.0" stroke-linecap="round" stroke-linejoin="round" />
<path d="M 139.5 132.5 L 138.5 132.5 L 138.0 133.0 L 138.0 133.0 L 139.0 133.0 L 141.5 133.5 L 144.5 133.5 L 149.0 133.5 L 154.5 133.0 L 159.5 133.0 L 162.5 133.0 L 163.0 133.0 L 162.0 133.0 " stroke="black" fill="none" stroke-width="6.0" stroke-linecap="round" stroke-linejoin="round" />
<path d="M 117.5 157.5 L 118.0 157.5 L 118.5 157.5 L 120.0 157.5 L 123.0 157.5 L 130.0 156.5 L 141.0 155.0 L 153.0 154.5 L 164.0 154.0 L 172.0 153.5 L 174.0 153.5 L 174.5 154.5 L 173.5 154.5 L 173.5 154.5 " stroke="black" fill="none" stroke-width="6.0" stroke-linecap="round" stroke-linejoin="round" />
<path d="M 154.0 122.0 L 154.5 121.5 L 155.0 121.0 L 155.0 121.0 L 155.0 121.0 L 155.0 121.0 L 155.0 121.5 L 155.0 124.0 L 155.0 129.0 L 155.0 138.5 L 155.0 150.0 L 155.0 161.0 L 155.0 170.0 L 155.0 176.5 L 155.0 181.0 L 155.0 183.5 L 155.0 184.0 L 155.0 184.5 L 155.0 184.5 L 155.0 184.5 L 155.0 184.5 L 155.0 184.5 L 155.0 184.5 L 155.0 184.5 L 155.0 184.5 L 155.0 184.5 L 155.0 184.5 L 155.0 184.5 L 155.0 184.5 L 155.0 184.5 " stroke="black" fill="none" stroke-width="6.0" stroke-linecap="round" stroke-linejoin="round" />
</svg>