<svg xmlns="http://www.w3.org/2000/svg" width="300" height="300" viewBox="0 0 300 300">
<path d="M 130.5 120.5 L 130.5 120.5 L 130.5 120.0 L 130.5 119.5 L 130.5 119.5 L 130.5 119.0 L 130.5 119.0 L 131.5 119.5 L 133.5 121.0 L 134.5 122.5 L 135.5 123.5 L 136.0 124.0 " stroke="black" fill="none" stroke-width="6.0" stroke-linecap="round" stroke-linejoin="round" />
<path d="M 128.5 136.0 L 127.0 137.0 L 126.0 138.0 L 125.5 138.0 L 126.0 137.5 L 128.5 137.0 L 131.5 136.0 L 134.5 135.5 L 136.5 135.5 L 138.5 135.0 L 139.0 135.0 " stroke="black" fill="none" stroke-width="6.0" stroke-linecap="round" stroke-linejoin="round" />
<path d="M 129.0 152.0 L 128.5 152.5 L 127.5 153.5 L 127.5 153.5 L 128.5 153.0 L 131.0 152.5 L 133.5 152.0 L 135.5 151.5 L 137.0 151.5 L 137.5 151.5 " stroke="black" fill="none" stroke-width="6.0" stroke-linecap="round" stroke-linejoin="round" />
<path d="M 129.5 168.5 L 129.0 168.5 L 128.0 169.0 L 128.0 169.0 L 128.5 169.0 L 131.0 168.5 L 133.5 167.5 L 135.5 167.0 L 137.5 167.0 " stroke="black" fill="none" stroke-width="6.0" stroke-linecap="round" stroke-linejoin="round" />
<path d="M 127.5 182.0 L 127.0 182.5 L 126.0 184.0 L 125.5 185.0 L 125.5 187.5 L 126.0 191.0 L 126.5 193.0 L 127.5 194.0 L 127.5 194.0 " stroke="black" fill="none" stroke-width="6.0" stroke-linecap="round" stroke-linejoin="round" />
<path d="M 127.0 185.5 L 126.0 185.0 L 125.5 185.0 L 126.0 184.0 L 127.5 183.0 L 130.5 182.0 L 132.5 181.5 L 135.0 181.0 L 138.0 181.0 L 140.0 181.5 L 142.0 183.0 L 142.5 184.5 L 142.5 186.5 L 142.0 189.0 L 140.5 191.5 L 139.5 193.5 L 137.5 194.5 L 137.0 194.5 " stroke="black" fill="none" stroke-width="6.0" stroke-linecap="round" stroke-linejoin="round" />
<path d="M 132.0 194.5 L 131.5 195.0 L 130.5 195.0 L 130.0 195.5 L 130.0 195.5 L 131.5 195.5 L 133.5 195.0 L 134.5 194.0 " stroke="black" fill="none" stroke-width="6.0" stroke-linecap="round" stroke-linejoin="round" />
<path d="M 153.5 123.0 L 153.5 123.0 L 152.5 123.5 L 152.0 123.5 L 152.5 124.0 L 155.0 124.0 L 158.5 124.0 L 162.5 123.5 L 166.0 123.5 L 169.5 123.5 L 172.0 123.5 L 174.0 123.5 L 175.5 123.0 L 176.0 123.0 L 176.0 123.0 L 176.0 123.0 L 175.5 123.0 L 175.5 123.0 L 175.0 123.0 L 175.0 123.0 L 175.0 123.0 L 175.0 123.0 L 175.0 123.0 L 176.0 123.0 L 177.0 122.5 L 178.0 122.0 L 179.0 122.0 L 180.0 122.0 L 180.0 122.0 L 180.5 122.0 L 180.5 122.0 L 180.5 122.0 L 180.5 122.5 L 180.0 124.5 L 180.0 127.5 L 179.5 132.0 L 179.0 137.5 L 179.0 142.5 L 179.0 148.0 L 179.0 152.5 L 179.0 156.5 L 179.0 160.0 L 178.5 163.0 L 178.5 166.5 L 178.0 170.0 L 178.0 174.0 L 178.0 178.0 L 177.5 181.5 L 177.5 185.0 L 177.5 188.5 L 177.5 191.5 L 177.0 194.5 L 176.0 196.5 L 175.5 198.0 L 175.0 198.5 L 175.0 198.5 L 174.5 198.5 L 174.5 198.5 L 174.0 198.5 L 172.5 198.5 L 170.5 197.0 L 168.5 195.0 L 167.0 193.5 L 167.0 193.0 " stroke="black" fill="none" stroke-width="6.0" stroke-linecap="round" stroke-linejoin="round" />
<path d="M 153.5 143.5 L 153.0 143.5 L 152.5 143.5 L 152.5 143.5 L 152.0 143.5 L 152.5 143.5 L 154.5 142.5 L 158.0 141.5 L 162.0 140.0 L 164.5 139.5 L 166.5 139.5 L 167.0 139.5 " stroke="black" fill="none" stroke-width="6.0" stroke-linecap="round" stroke-linejoin="round" />
<path d="M 151.5 157.5 L 151.5 157.5 L 151.5 157.5 L 151.5 157.5 L 151.5 157.5 L 151.5 158.5 L 152.5 161.5 L 153.0 165.0 L 153.5 167.5 L 154.0 168.5 " stroke="black" fill="none" stroke-width="6.0" stroke-linecap="round" stroke-linejoin="round" />
<path d="M 153.0 159.0 L 152.5 158.5 L 152.0 158.0 L 152.5 157.5 L 154.5 156.0 L 157.5 155.5 L 160.0 155.0 L 162.5 155.0 L 165.0 155.0 L 166.0 156.5 L 167.0 158.0 L 167.0 160.0 L 167.0 162.5 L 166.5 165.0 L 165.0 167.5 L 164.0 169.5 L 163.5 170.0 " stroke="black" fill="none" stroke-width="6.0" stroke-linecap="round" stroke-linejoin="round" />
<path d="M 156.5 170.5 L 156.5 170.5 L 155.5 170.5 L 156.0 170.5 L 158.5 170.0 L 161.5 169.5 L 164.5 169.0 L 165.5 169.0 " stroke="black" fill="none" stroke-width="6.0" stroke-linecap="round" stroke-linejoin="round" />
</svg>