<svg xmlns="http://www.w3.org/2000/svg" width="300" height="300" viewBox="0 0 300 300">
<path d="M 126.5 119.0 L 127.0 118.5 L 127.0 117.5 L 127.5 117.0 L 127.5 117.0 L 128.0 117.0 L 128.5 118.5 L 129.0 122.0 L 129.0 127.0 L 128.0 135.0 L 127.0 143.0 L 126.5 149.0 L 125.5 153.5 L 124.5 157.0 L 123.5 159.5 L 123.0 162.5 L 122.5 163.5 L 122.5 164.0 L 122.5 164.0 L 122.5 164.0 L 122.5 163.5 L 123.0 162.5 L 124.5 161.5 L 125.5 160.0 L 127.5 159.0 L 129.5 157.5 L 131.0 157.0 L 132.0 156.5 " stroke="black" fill="none" stroke-width="6.0" stroke-linecap="round" stroke-linejoin="round" />
<path d="M 144.5 129.0 L 144.5 129.0 L 144.5 129.0 L 144.5 129.5 L 145.0 130.0 L 146.5 132.0 L 149.0 134.0 L 151.5 136.0 L 153.0 136.5 " stroke="black" fill="none" stroke-width="6.0" stroke-linecap="round" stroke-linejoin="round" />
<path d="M 162.5 125.0 L 162.5 125.0 L 162.0 124.5 L 162.0 124.5 L 162.0 124.5 L 161.5 127.0 L 160.5 132.5 L 157.5 142.0 L 153.5 152.5 L 149.0 161.0 L 144.5 166.5 L 141.5 169.5 L 140.0 170.5 L 140.0 170.5 L 140.0 170.5 L 140.0 170.0 L 140.0 170.0 L 140.5 169.5 L 141.0 169.5 L 141.5 169.0 L 142.0 169.0 L 142.0 168.5 L 142.5 168.5 L 143.0 168.0 L 143.0 168.0 " stroke="black" fill="none" stroke-width="6.0" stroke-linecap="round" stroke-linejoin="round" />
<path d="M 154.5 156.5 L 154.5 157.0 L 154.5 157.5 L 154.5 158.0 L 155.0 158.0 L 156.5 159.5 L 160.5 162.0 L 167.0 166.0 L 174.0 169.5 L 178.5 170.5 L 180.0 170.5 L 180.0 170.0 " stroke="black" fill="none" stroke-width="6.0" stroke-linecap="round" stroke-linejoin="round" />
</svg>