<svg xmlns="http://www.w3.org/2000/svg" width="300" height="300" viewBox="0 0 300 300">
<path d="M 131.0 116.0 L 131.5 116.0 L 131.5 116.0 L 132.0 116.0 L 132.0 116.0 L 132.0 116.5 L 132.0 119.0 L 132.0 123.5 L 132.0 131.0 L 131.0 140.5 L 130.5 149.5 L 130.0 155.0 L 130.0 159.5 L 130.0 162.0 L 130.0 162.5 L 130.0 162.5 L 130.0 162.5 L 130.0 162.5 L 130.0 162.0 L 130.0 162.0 L 130.0 162.0 L 130.0 162.0 " stroke="black" fill="none" stroke-width="6.0" stroke-linecap="round" stroke-linejoin="round" />
<path d="M 126.0 167.5 L 125.5 168.0 L 125.0 168.0 L 125.0 168.5 L 125.5 168.0 L 128.5 166.0 L 133.0 163.0 L 137.5 160.5 L 140.5 159.0 L 141.0 158.0 " stroke="black" fill="none" stroke-width="6.0" stroke-linecap="round" stroke-linejoin="round" />
<path d="M 150.0 125.5 L 149.0 125.0 L 148.5 125.0 L 148.5 124.5 L 149.5 126.0 L 152.0 128.0 L 154.5 130.5 L 156.5 132.0 L 158.0 133.0 " stroke="black" fill="none" stroke-width="6.0" stroke-linecap="round" stroke-linejoin="round" />
<path d="M 169.0 118.0 L 169.0 118.0 L 168.5 118.0 L 168.0 118.0 L 168.0 118.5 L 168.0 121.0 L 167.0 127.0 L 165.0 137.5 L 160.5 150.0 L 155.0 162.0 L 150.0 170.5 L 146.0 177.0 L 143.5 180.5 L 142.5 181.5 L 142.5 181.5 L 144.5 177.5 " stroke="black" fill="none" stroke-width="6.0" stroke-linecap="round" stroke-linejoin="round" />
<path d="M 160.5 161.5 L 160.5 161.5 L 160.0 162.0 L 160.0 162.5 L 161.5 163.5 L 165.5 166.5 L 171.0 172.0 L 177.5 179.5 L 182.0 184.5 L 185.0 186.0 L 185.0 186.0 " stroke="black" fill="none" stroke-width="6.0" stroke-linecap="round" stroke-linejoin="round" />
</svg>