<svg xmlns="http://www.w3.org/2000/svg" width="300" height="300" viewBox="0 0 300 300">
<path d="M 130.0 131.5 L 130.5 130.5 L 131.5 129.5 L 132.0 129.0 L 133.0 129.0 L 133.5 131.0 L 133.5 138.0 L 132.0 149.5 L 129.5 162.0 L 127.5 169.5 L 127.0 170.5 L 127.0 169.0 L 127.0 167.5 L 127.0 167.0 L 127.0 167.0 L 128.5 166.5 L 131.5 166.5 L 135.0 166.5 L 138.5 166.5 L 141.0 166.5 L 142.5 165.5 L 143.5 164.5 " stroke="black" fill="none" stroke-width="6.0" stroke-linecap="round" stroke-linejoin="round" />
<path d="M 147.5 142.0 L 146.5 143.0 L 146.5 144.0 L 148.5 145.0 L 150.5 145.5 L 152.5 145.5 " stroke="black" fill="none" stroke-width="6.0" stroke-linecap="round" stroke-linejoin="round" />
<path d="M 164.5 129.0 L 164.5 129.5 L 164.5 130.0 L 165.0 130.5 L 165.0 131.0 L 165.0 133.0 L 165.0 139.0 L 162.0 149.0 L 156.5 161.5 L 150.5 172.5 L 146.0 179.5 L 143.5 184.0 L 142.0 185.5 L 142.0 186.0 L 142.0 185.5 L 142.5 185.0 L 142.5 184.0 L 143.0 183.0 " stroke="black" fill="none" stroke-width="6.0" stroke-linecap="round" stroke-linejoin="round" />
<path d="M 156.0 171.5 L 156.0 172.0 L 156.5 172.5 L 157.5 173.5 L 161.0 175.5 L 167.5 179.0 L 175.0 183.0 L 181.5 185.5 L 186.0 185.5 " stroke="black" fill="none" stroke-width="6.0" stroke-linecap="round" stroke-linejoin="round" />
</svg>