<svg xmlns="http://www.w3.org/2000/svg" width="300" height="300" viewBox="0 0 300 300">
<path d="M 132.5 109.5 L 132.5 109.5 L 132.5 110.5 L 132.5 111.0 L 134.0 111.5 L 137.0 112.5 L 141.5 114.0 L 146.0 114.5 " stroke="black" fill="none" stroke-width="6.0" stroke-linecap="round" stroke-linejoin="round" />
<path d="M 168.5 103.5 L 168.0 103.5 L 167.5 103.0 L 167.0 103.0 L 166.0 103.0 L 164.5 105.0 L 163.5 108.0 L 163.0 111.0 L 162.5 112.0 " stroke="black" fill="none" stroke-width="6.0" stroke-linecap="round" stroke-linejoin="round" />
<path d="M 128.0 123.0 L 128.0 123.0 L 128.0 123.0 L 127.5 122.5 L 129.0 122.5 L 134.0 122.0 L 145.0 120.0 L 158.5 118.0 L 170.5 116.5 L 177.0 116.0 L 178.5 117.0 L 178.0 117.5 " stroke="black" fill="none" stroke-width="6.0" stroke-linecap="round" stroke-linejoin="round" />
<path d="M 152.0 123.0 L 153.0 122.5 L 153.5 121.5 L 153.5 121.5 L 152.5 122.5 L 151.0 125.5 L 150.0 129.5 L 150.0 132.5 L 150.0 133.0 " stroke="black" fill="none" stroke-width="6.0" stroke-linecap="round" stroke-linejoin="round" />
<path d="M 132.0 138.0 L 133.0 137.5 L 133.5 137.0 L 134.0 137.0 L 134.0 137.0 L 134.0 141.0 L 134.0 148.5 L 134.0 158.0 L 134.5 166.0 L 134.5 169.0 L 135.0 168.0 L 134.5 166.0 " stroke="black" fill="none" stroke-width="6.0" stroke-linecap="round" stroke-linejoin="round" />
<path d="M 135.5 139.0 L 135.5 139.0 L 135.5 139.5 L 135.5 140.0 L 136.0 140.0 L 138.5 139.5 L 143.0 138.5 L 150.5 137.5 L 159.0 136.0 L 168.0 135.0 L 174.0 134.0 L 176.0 134.0 L 176.5 134.5 L 175.5 135.0 L 175.0 136.0 L 175.0 137.5 L 174.5 140.5 L 174.0 145.0 L 172.0 152.5 L 170.5 160.0 L 170.0 164.5 L 170.0 165.5 L 170.5 164.5 L 170.5 163.5 " stroke="black" fill="none" stroke-width="6.0" stroke-linecap="round" stroke-linejoin="round" />
<path d="M 140.5 150.5 L 140.0 151.0 L 139.5 151.0 L 139.5 151.0 L 142.5 150.5 L 148.0 149.5 L 154.5 148.0 L 161.0 147.0 L 165.5 147.0 L 168.0 147.0 L 168.5 147.5 " stroke="black" fill="none" stroke-width="6.0" stroke-linecap="round" stroke-linejoin="round" />
<path d="M 144.0 160.5 L 143.5 160.5 L 143.0 160.5 L 143.0 160.5 L 145.0 159.5 L 150.0 158.0 L 156.0 157.0 L 162.0 157.0 L 166.0 157.5 " stroke="black" fill="none" stroke-width="6.0" stroke-linecap="round" stroke-linejoin="round" />
<path d="M 137.0 175.0 L 137.0 175.0 L 137.0 176.0 L 137.0 176.0 L 139.5 175.5 L 145.0 173.0 L 151.5 171.0 L 158.5 170.0 L 164.0 169.5 L 167.5 169.5 " stroke="black" fill="none" stroke-width="6.0" stroke-linecap="round" stroke-linejoin="round" />
</svg>