<svg xmlns="http://www.w3.org/2000/svg" width="300" height="300" viewBox="0 0 300 300">
<path d="M 130.0 114.0 L 130.5 114.0 L 131.0 113.5 L 131.0 113.5 L 131.5 113.0 L 131.5 113.0 L 131.5 113.0 L 131.5 113.0 L 131.5 113.5 L 130.5 115.5 L 129.0 119.5 L 126.5 125.0 L 123.5 132.0 L 120.5 137.0 L 118.0 140.0 L 117.0 140.5 L 117.0 140.0 L 118.0 139.0 " stroke="black" fill="none" stroke-width="6.0" stroke-linecap="round" stroke-linejoin="round" />
<path d="M 125.5 130.0 L 125.5 130.0 L 125.5 130.0 L 126.0 130.0 L 126.0 130.0 L 126.0 131.5 L 127.0 135.0 L 128.0 143.0 L 129.0 154.5 L 129.0 165.5 L 128.0 175.5 L 127.0 181.5 L 127.0 183.0 L 127.0 183.0 L 127.0 182.5 " stroke="black" fill="none" stroke-width="6.0" stroke-linecap="round" stroke-linejoin="round" />
<path d="M 138.0 126.5 L 138.0 126.5 L 138.0 126.0 L 138.5 126.0 L 138.5 126.0 L 138.5 126.0 L 139.0 127.0 L 139.0 129.5 L 140.0 134.0 L 140.5 140.5 L 140.5 149.0 L 140.5 157.5 L 140.5 162.0 L 140.5 165.0 L 141.5 165.5 " stroke="black" fill="none" stroke-width="6.0" stroke-linecap="round" stroke-linejoin="round" />
<path d="M 152.5 112.0 L 152.5 111.5 L 153.0 111.5 L 153.5 111.0 L 153.5 111.0 L 153.5 112.0 L 153.0 114.5 L 152.0 118.0 L 151.0 122.0 L 150.5 125.5 L 150.0 127.5 L 149.5 128.0 " stroke="black" fill="none" stroke-width="6.0" stroke-linecap="round" stroke-linejoin="round" />
<path d="M 151.0 118.0 L 151.0 118.0 L 151.0 119.0 L 151.5 119.0 L 152.0 119.5 L 153.0 119.5 L 155.5 119.0 L 158.5 118.0 L 162.0 117.0 L 165.5 116.0 L 168.0 115.5 L 169.5 115.5 L 169.5 115.5 L 169.5 116.0 L 169.5 116.0 L 168.5 117.0 L 168.0 118.5 L 167.0 121.0 L 165.5 124.5 L 163.5 129.0 L 161.0 134.0 L 158.0 139.0 L 154.5 143.0 L 151.5 147.0 L 149.5 149.0 L 149.0 150.0 L 148.5 150.0 L 148.5 150.0 L 148.5 150.0 " stroke="black" fill="none" stroke-width="6.0" stroke-linecap="round" stroke-linejoin="round" />
<path d="M 153.0 132.5 L 153.0 132.5 L 153.0 132.5 L 153.5 132.5 L 153.5 132.5 L 154.5 133.0 L 157.0 134.5 L 162.5 138.0 L 169.0 141.5 L 174.0 143.5 L 177.5 144.5 L 180.0 145.5 L 181.0 145.5 " stroke="black" fill="none" stroke-width="6.0" stroke-linecap="round" stroke-linejoin="round" />
<path d="M 165.0 151.5 L 165.0 151.5 L 165.0 151.5 L 164.5 151.5 L 164.5 151.5 L 164.5 151.5 L 163.5 151.5 L 162.5 152.5 L 160.0 154.5 L 157.0 156.5 L 154.5 158.0 L 153.0 158.5 L 152.5 158.5 " stroke="black" fill="none" stroke-width="6.0" stroke-linecap="round" stroke-linejoin="round" />
<path d="M 169.0 157.5 L 169.0 158.0 L 169.0 158.5 L 169.0 159.0 L 169.0 159.5 L 169.0 160.5 L 168.0 161.5 L 166.0 163.0 L 163.5 165.5 L 160.5 167.5 L 157.0 170.0 L 154.5 171.5 L 153.5 171.5 L 153.5 171.5 " stroke="black" fill="none" stroke-width="6.0" stroke-linecap="round" stroke-linejoin="round" />
<path d="M 172.0 172.0 L 172.0 173.0 L 172.0 173.5 L 171.5 174.5 L 169.5 176.0 L 166.5 178.5 L 162.5 182.0 L 157.0 186.5 L 153.5 189.0 L 152.0 189.5 L 151.5 189.0 " stroke="black" fill="none" stroke-width="6.0" stroke-linecap="round" stroke-linejoin="round" />
</svg>