<svg xmlns="http://www.w3.org/2000/svg" width="300" height="300" viewBox="0 0 300 300">
<path d="M 120.0 127.5 L 120.5 128.0 L 122.0 128.5 L 128.5 128.5 L 136.5 127.5 L 141.5 126.5 L 146.0 126.0 L 147.0 126.0 L 147.5 126.0 " stroke="black" fill="none" stroke-width="6.0" stroke-linecap="round" stroke-linejoin="round" />
<path d="M 135.5 112.0 L 135.5 112.5 L 136.0 113.0 L 136.0 115.0 L 136.0 118.0 L 135.5 134.5 L 136.5 153.0 L 137.0 168.0 L 137.0 177.5 L 137.0 179.5 L 136.5 181.0 L 134.5 176.5 " stroke="black" fill="none" stroke-width="6.0" stroke-linecap="round" stroke-linejoin="round" />
<path d="M 134.5 133.0 L 135.0 133.5 L 135.0 133.5 L 135.0 134.5 L 133.5 139.5 L 131.5 143.5 L 124.5 157.0 L 120.5 163.5 L 118.5 166.5 L 118.0 165.5 L 118.0 165.0 " stroke="black" fill="none" stroke-width="6.0" stroke-linecap="round" stroke-linejoin="round" />
<path d="M 133.5 139.0 L 134.0 139.0 L 134.5 139.0 L 135.5 139.5 L 137.5 143.5 L 139.5 146.5 L 144.0 152.5 L 145.5 154.0 L 146.0 154.5 " stroke="black" fill="none" stroke-width="6.0" stroke-linecap="round" stroke-linejoin="round" />
<path d="M 155.0 126.5 L 155.5 126.5 L 155.5 126.5 L 156.0 127.0 L 157.0 132.0 L 157.0 137.0 L 158.0 156.5 L 158.0 169.5 L 158.0 173.5 L 158.0 173.5 L 157.0 170.5 " stroke="black" fill="none" stroke-width="6.0" stroke-linecap="round" stroke-linejoin="round" />
<path d="M 158.0 126.0 L 158.0 126.0 L 157.5 126.0 L 157.5 126.5 L 157.5 127.0 L 159.5 127.0 L 163.5 126.0 L 168.0 124.5 L 171.5 124.0 L 173.5 123.5 L 175.5 123.5 L 176.0 124.5 L 176.0 125.0 L 176.0 128.5 L 176.0 133.0 L 176.0 140.0 L 176.0 147.5 L 176.5 159.0 L 177.0 167.0 L 177.0 169.5 L 177.0 172.0 L 177.0 171.5 L 176.5 170.5 " stroke="black" fill="none" stroke-width="6.0" stroke-linecap="round" stroke-linejoin="round" />
<path d="M 160.0 140.5 L 159.5 140.0 L 159.5 140.0 L 159.5 140.0 L 161.5 140.0 L 164.5 140.5 L 168.0 140.5 L 171.0 140.5 L 171.5 140.5 " stroke="black" fill="none" stroke-width="6.0" stroke-linecap="round" stroke-linejoin="round" />
<path d="M 160.0 155.5 L 160.5 156.0 L 160.5 156.5 L 162.0 156.5 L 164.5 156.0 L 168.0 155.0 L 171.0 154.0 L 173.0 153.5 " stroke="black" fill="none" stroke-width="6.0" stroke-linecap="round" stroke-linejoin="round" />
<path d="M 157.5 179.0 L 158.0 179.0 L 159.0 179.5 L 160.5 180.0 L 164.0 180.0 L 169.0 179.5 L 174.0 178.5 L 178.0 178.5 L 179.0 178.5 " stroke="black" fill="none" stroke-width="6.0" stroke-linecap="round" stroke-linejoin="round" />
</svg>