<svg xmlns="http://www.w3.org/2000/svg" width="300" height="300" viewBox="0 0 300 300">
<path d="M 139.0 105.5 L 139.0 106.0 L 139.0 107.0 L 140.0 107.5 L 141.5 108.0 L 144.0 109.0 L 146.0 109.5 L 147.5 110.0 " stroke="black" fill="none" stroke-width="6.0" stroke-linecap="round" stroke-linejoin="round" />
<path d="M 122.0 122.0 L 121.5 122.0 L 119.0 121.5 L 118.5 121.5 L 120.0 121.5 L 127.0 121.5 L 138.5 121.5 L 151.5 121.5 L 161.0 122.0 L 165.5 122.5 L 166.0 123.0 L 165.5 123.0 " stroke="black" fill="none" stroke-width="6.0" stroke-linecap="round" stroke-linejoin="round" />
<path d="M 127.5 138.5 L 127.5 137.5 L 127.5 137.0 L 127.5 136.5 L 128.0 137.0 L 128.5 142.5 L 128.5 152.0 L 128.5 163.5 L 128.5 171.0 L 129.0 172.0 L 129.0 171.5 " stroke="black" fill="none" stroke-width="6.0" stroke-linecap="round" stroke-linejoin="round" />
<path d="M 129.5 139.0 L 129.0 139.0 L 128.0 139.0 L 128.0 139.0 L 129.5 139.0 L 135.0 138.5 L 142.5 137.0 L 150.5 136.5 L 158.0 136.5 L 162.5 137.5 L 164.0 139.5 L 165.0 141.0 L 165.0 142.5 L 165.5 145.0 L 166.0 149.0 L 166.0 154.5 L 166.0 161.5 L 165.5 168.0 L 164.0 173.0 L 162.5 175.5 L 160.5 176.0 L 158.0 174.5 L 155.5 171.5 " stroke="black" fill="none" stroke-width="6.0" stroke-linecap="round" stroke-linejoin="round" />
<path d="M 144.0 124.0 L 144.0 124.0 L 143.0 124.0 L 143.0 123.5 L 143.0 126.5 L 144.0 134.5 L 145.5 150.0 L 146.0 168.0 L 146.5 180.0 L 147.0 185.5 L 147.5 189.0 L 147.5 189.5 " stroke="black" fill="none" stroke-width="6.0" stroke-linecap="round" stroke-linejoin="round" />
</svg>