<svg xmlns="http://www.w3.org/2000/svg" width="300" height="300" viewBox="0 0 300 300">
<path d="M 152.5 98.0 L 152.5 98.0 L 153.0 97.5 L 153.5 97.0 L 153.5 97.0 L 153.5 97.5 L 153.0 100.5 L 151.0 104.5 L 149.5 107.0 L 149.0 108.0 " stroke="black" fill="none" stroke-width="6.0" stroke-linecap="round" stroke-linejoin="round" />
<path d="M 136.0 110.0 L 136.0 110.0 L 136.0 111.5 L 136.0 112.0 L 138.0 112.0 L 144.0 112.0 L 151.5 110.5 L 158.5 109.5 L 164.0 109.0 L 168.0 109.0 L 169.0 109.0 L 169.5 109.5 L 169.5 110.0 L 169.5 110.5 L 169.5 112.0 L 169.0 114.5 L 168.5 118.5 L 167.5 122.5 L 166.5 125.0 L 166.0 126.0 L 165.5 126.0 " stroke="black" fill="none" stroke-width="6.0" stroke-linecap="round" stroke-linejoin="round" />
<path d="M 146.0 120.5 L 144.5 120.5 L 144.0 121.0 L 145.5 121.0 L 150.0 121.0 L 156.0 120.0 L 162.0 119.0 L 165.5 118.5 L 166.5 118.5 " stroke="black" fill="none" stroke-width="6.0" stroke-linecap="round" stroke-linejoin="round" />
<path d="M 142.0 129.0 L 142.0 129.0 L 142.0 129.0 L 142.0 129.5 L 143.0 130.0 L 147.5 130.0 L 154.0 128.5 L 158.0 126.0 " stroke="black" fill="none" stroke-width="6.0" stroke-linecap="round" stroke-linejoin="round" />
<path d="M 131.5 111.5 L 132.0 113.0 L 132.0 113.0 L 132.5 113.5 L 133.0 114.5 L 134.0 116.0 L 134.5 119.0 L 134.5 123.0 L 134.5 127.5 L 134.5 132.5 L 134.5 137.5 L 135.0 142.0 L 135.0 146.5 L 135.0 150.0 L 135.0 152.0 L 135.0 153.0 L 135.0 154.0 L 135.5 154.0 L 135.5 153.5 L 136.5 153.0 L 137.5 152.5 L 139.0 151.5 L 141.5 151.5 L 144.5 151.0 L 149.0 150.5 L 154.0 150.0 L 159.5 149.5 L 165.0 148.5 L 170.5 147.5 L 174.0 147.0 L 176.0 146.5 L 176.5 146.5 L 177.0 146.5 L 177.0 146.5 L 177.0 146.5 L 177.0 146.5 L 177.0 146.5 L 177.0 146.5 L 177.0 146.5 L 177.0 146.5 L 177.0 146.5 L 177.0 146.5 L 177.0 147.0 L 177.5 148.0 L 177.5 150.5 L 178.5 155.0 L 179.5 162.0 L 180.5 169.5 L 181.0 176.5 L 181.0 182.0 L 181.0 187.0 L 181.0 190.5 L 180.0 192.0 L 178.5 193.0 L 177.5 193.5 L 175.5 193.0 L 173.0 190.5 L 171.0 188.0 " stroke="black" fill="none" stroke-width="6.0" stroke-linecap="round" stroke-linejoin="round" />
<path d="M 135.0 141.5 L 135.5 141.5 L 136.0 141.5 L 137.5 141.5 L 141.0 142.0 L 148.5 141.5 L 157.5 140.0 L 167.0 138.5 L 173.0 137.5 " stroke="black" fill="none" stroke-width="6.0" stroke-linecap="round" stroke-linejoin="round" />
<path d="M 132.5 166.5 L 133.0 166.0 L 134.0 165.5 L 134.0 165.0 L 134.0 165.5 L 133.5 168.0 L 132.0 171.5 L 131.0 174.5 L 131.0 176.0 L 131.0 176.0 " stroke="black" fill="none" stroke-width="6.0" stroke-linecap="round" stroke-linejoin="round" />
<path d="M 147.5 166.0 L 147.5 166.0 L 147.0 165.5 L 146.5 165.0 L 146.5 165.0 L 146.5 165.0 L 147.5 167.5 L 148.5 170.0 L 149.5 172.0 L 150.0 172.5 " stroke="black" fill="none" stroke-width="6.0" stroke-linecap="round" stroke-linejoin="round" />
<path d="M 159.5 162.5 L 159.0 163.0 L 158.5 163.5 L 158.5 164.5 L 158.5 165.5 L 159.5 167.0 L 161.5 168.0 L 163.0 169.0 " stroke="black" fill="none" stroke-width="6.0" stroke-linecap="round" stroke-linejoin="round" />
<path d="M 168.5 163.0 L 168.5 163.0 L 168.5 162.5 L 168.5 162.5 L 169.0 162.5 L 170.5 163.5 L 172.0 165.5 L 173.5 168.0 L 173.5 168.5 " stroke="black" fill="none" stroke-width="6.0" stroke-linecap="round" stroke-linejoin="round" />
</svg>