<svg xmlns="http://www.w3.org/2000/svg" width="300" height="300" viewBox="0 0 300 300">
<path d="M 136.0 111.5 L 136.5 112.5 L 136.5 113.0 L 137.0 114.0 L 137.0 116.5 L 137.5 121.0 L 137.5 126.0 L 137.0 129.5 L 136.0 131.0 " stroke="black" fill="none" stroke-width="6.0" stroke-linecap="round" stroke-linejoin="round" />
<path d="M 126.0 121.5 L 126.0 121.5 L 125.0 121.5 L 125.0 121.5 L 126.0 121.5 L 129.5 121.0 L 135.5 121.0 L 143.5 121.0 L 152.5 121.0 L 159.5 120.5 L 164.0 120.5 L 166.5 120.5 L 167.5 121.5 L 167.0 121.5 L 166.5 121.5 " stroke="black" fill="none" stroke-width="6.0" stroke-linecap="round" stroke-linejoin="round" />
<path d="M 154.5 110.5 L 155.5 110.5 L 156.0 111.0 L 156.0 111.5 L 156.0 113.5 L 156.0 118.5 L 155.0 125.5 L 155.0 130.0 L 155.0 131.0 L 155.5 131.0 " stroke="black" fill="none" stroke-width="6.0" stroke-linecap="round" stroke-linejoin="round" />
<path d="M 137.0 137.0 L 137.0 137.0 L 137.0 137.5 L 137.0 138.0 L 137.0 138.0 L 137.0 138.5 L 138.5 138.5 L 142.5 138.5 L 147.5 138.0 L 152.0 137.0 L 156.0 136.5 L 157.5 136.5 L 158.0 137.0 " stroke="black" fill="none" stroke-width="6.0" stroke-linecap="round" stroke-linejoin="round" />
<path d="M 125.0 145.5 L 125.0 145.5 L 124.0 145.5 L 123.5 145.5 L 123.5 145.5 L 123.5 145.5 L 125.5 145.5 L 129.0 146.0 L 134.5 146.0 L 143.0 146.0 L 152.5 146.0 L 159.0 145.5 L 163.0 145.5 L 165.5 145.5 L 167.5 145.0 L 169.5 145.0 L 171.0 145.0 L 171.5 145.0 L 172.0 145.0 L 172.0 145.0 L 172.5 145.0 L 172.5 145.0 L 173.0 145.0 L 173.0 145.0 L 173.0 145.0 L 173.0 145.0 L 173.0 145.0 L 173.0 145.0 L 173.0 145.0 L 173.0 145.0 L 173.0 145.0 L 173.0 145.0 L 173.0 145.0 L 173.0 145.0 L 173.0 145.0 " stroke="black" fill="none" stroke-width="6.0" stroke-linecap="round" stroke-linejoin="round" />
<path d="M 130.0 158.5 L 130.0 158.0 L 131.0 157.0 L 131.0 157.0 L 131.5 157.0 L 131.5 157.0 L 132.0 159.0 L 132.5 163.0 L 133.0 168.0 L 134.0 172.5 L 134.0 175.0 L 134.0 175.0 L 133.5 175.0 " stroke="black" fill="none" stroke-width="6.0" stroke-linecap="round" stroke-linejoin="round" />
<path d="M 131.0 158.5 L 131.0 158.5 L 131.0 158.5 L 131.5 159.0 L 131.5 159.0 L 132.5 159.0 L 135.0 158.5 L 140.5 158.0 L 148.5 157.5 L 155.5 157.0 L 160.5 157.0 L 162.5 157.5 L 163.0 158.0 L 163.0 158.0 L 163.0 158.0 L 164.0 158.0 L 165.0 158.0 L 166.5 158.0 L 167.0 158.5 L 167.5 158.5 L 167.5 159.0 L 167.5 160.0 L 167.0 161.5 L 166.5 163.0 L 166.0 165.0 L 165.0 167.5 L 164.5 171.0 L 163.5 174.5 L 163.5 177.0 L 163.5 177.5 L 163.0 177.5 L 163.0 176.5 " stroke="black" fill="none" stroke-width="6.0" stroke-linecap="round" stroke-linejoin="round" />
<path d="M 140.0 168.0 L 139.5 168.0 L 139.0 168.0 L 139.0 168.0 L 138.5 168.0 L 140.0 168.0 L 143.0 168.0 L 147.5 168.0 L 152.0 168.0 L 156.0 168.0 L 157.5 167.5 " stroke="black" fill="none" stroke-width="6.0" stroke-linecap="round" stroke-linejoin="round" />
<path d="M 150.5 161.0 L 150.5 161.0 L 151.0 161.0 L 151.0 161.0 L 151.0 162.0 L 151.0 164.0 L 151.0 168.0 L 151.0 173.0 L 151.0 176.5 L 151.0 178.0 " stroke="black" fill="none" stroke-width="6.0" stroke-linecap="round" stroke-linejoin="round" />
<path d="M 135.0 178.5 L 135.5 179.0 L 136.0 179.5 L 136.5 180.0 L 138.5 180.0 L 143.5 180.0 L 150.5 179.0 L 156.0 178.5 L 159.5 178.0 L 160.0 177.5 " stroke="black" fill="none" stroke-width="6.0" stroke-linecap="round" stroke-linejoin="round" />
<path d="M 142.5 188.0 L 142.5 188.0 L 143.0 187.5 L 143.0 187.5 L 143.0 187.5 L 142.5 187.5 L 140.0 189.5 L 136.0 192.5 L 131.5 196.5 L 128.5 199.5 L 128.5 199.5 " stroke="black" fill="none" stroke-width="6.0" stroke-linecap="round" stroke-linejoin="round" />
<path d="M 160.0 189.5 L 160.0 189.5 L 160.0 189.0 L 160.0 189.0 L 161.0 189.5 L 164.0 192.0 L 168.5 195.0 L 174.5 198.5 L 179.5 201.0 L 183.5 201.5 L 184.0 201.5 " stroke="black" fill="none" stroke-width="6.0" stroke-linecap="round" stroke-linejoin="round" />
</svg>