<svg xmlns="http://www.w3.org/2000/svg" width="300" height="300" viewBox="0 0 300 300">
<path d="M 130.0 104.0 L 130.0 103.5 L 130.5 102.5 L 130.5 102.0 L 131.0 102.0 L 131.5 102.0 L 132.0 104.0 L 132.5 109.0 L 133.0 117.0 L 133.5 124.0 L 133.5 126.5 L 133.5 126.5 L 133.0 126.5 L 132.5 126.5 " stroke="black" fill="none" stroke-width="6.0" stroke-linecap="round" stroke-linejoin="round" />
<path d="M 123.5 116.0 L 123.0 116.0 L 121.5 116.5 L 121.5 116.5 L 122.0 116.5 L 124.0 116.5 L 128.0 116.5 L 132.5 116.5 L 139.0 116.5 L 148.0 116.0 L 155.5 115.0 L 161.0 114.0 L 164.5 113.5 L 165.0 113.5 L 165.0 113.5 L 165.0 113.5 L 165.0 113.5 L 165.5 113.5 L 165.5 113.5 L 165.5 113.5 L 165.5 113.5 L 165.5 113.5 L 165.5 113.5 L 165.5 113.5 L 166.0 113.5 L 166.0 113.5 L 166.5 113.5 L 167.0 113.5 L 167.0 113.5 " stroke="black" fill="none" stroke-width="6.0" stroke-linecap="round" stroke-linejoin="round" />
<path d="M 153.5 101.5 L 154.0 101.0 L 154.0 100.5 L 154.0 100.5 L 154.5 101.5 L 154.5 104.5 L 154.5 109.0 L 154.5 115.0 L 154.5 120.5 L 154.5 125.0 L 154.5 127.0 L 155.0 127.0 L 155.0 125.5 L 155.0 125.0 " stroke="black" fill="none" stroke-width="6.0" stroke-linecap="round" stroke-linejoin="round" />
<path d="M 132.0 133.5 L 132.0 133.5 L 132.0 133.5 L 131.5 134.0 L 131.5 134.0 L 132.5 134.0 L 135.0 134.0 L 139.0 134.0 L 144.5 134.5 L 150.0 134.5 L 154.0 134.5 L 155.0 134.5 L 155.5 134.0 L 155.0 134.0 L 154.0 134.0 L 154.0 134.0 " stroke="black" fill="none" stroke-width="6.0" stroke-linecap="round" stroke-linejoin="round" />
<path d="M 119.0 147.0 L 119.0 147.0 L 119.0 146.5 L 118.5 146.0 L 118.5 146.0 L 118.5 146.0 L 119.0 146.0 L 120.0 146.0 L 122.0 146.0 L 125.0 146.0 L 129.5 146.5 L 135.5 146.5 L 142.5 146.5 L 149.5 145.0 L 156.5 144.0 L 161.5 143.5 L 164.5 143.5 L 166.5 143.5 L 167.5 143.5 L 168.5 143.5 L 169.0 143.5 L 169.0 143.5 L 169.0 143.5 L 169.5 143.5 L 169.5 143.5 L 170.0 143.5 L 170.5 143.5 L 171.0 143.5 L 171.0 143.5 L 171.5 143.5 L 172.5 143.5 L 172.5 144.0 L 173.0 144.0 L 173.5 144.0 L 173.5 144.0 L 173.5 144.0 L 173.5 144.0 L 173.5 144.0 L 173.5 144.0 " stroke="black" fill="none" stroke-width="6.0" stroke-linecap="round" stroke-linejoin="round" />
<path d="M 129.5 159.5 L 129.5 159.5 L 129.5 159.5 L 129.5 159.5 L 129.5 160.0 L 129.5 162.0 L 129.5 167.0 L 129.5 172.5 L 130.0 176.0 L 130.5 177.0 L 131.5 175.5 " stroke="black" fill="none" stroke-width="6.0" stroke-linecap="round" stroke-linejoin="round" />
<path d="M 131.5 160.0 L 131.5 160.0 L 130.5 160.0 L 129.5 160.5 L 129.0 160.5 L 129.0 160.5 L 129.5 160.5 L 131.5 160.0 L 134.0 159.5 L 138.0 158.5 L 143.0 158.5 L 149.0 158.0 L 154.5 158.0 L 159.5 158.0 L 162.0 158.0 L 162.5 158.0 L 162.5 158.0 L 162.0 158.0 L 162.0 158.5 L 161.5 159.5 L 161.5 161.0 L 161.5 163.5 L 160.5 167.5 L 160.0 172.0 L 159.5 176.0 L 159.5 178.5 L 159.5 179.5 L 159.5 179.5 L 159.5 179.0 L 159.5 178.0 " stroke="black" fill="none" stroke-width="6.0" stroke-linecap="round" stroke-linejoin="round" />
<path d="M 138.5 171.0 L 137.5 171.0 L 136.5 171.0 L 136.0 171.0 L 136.0 171.0 L 136.5 171.0 L 139.5 171.0 L 143.0 171.5 L 146.0 171.5 L 148.0 171.5 L 150.0 171.5 L 150.5 171.5 " stroke="black" fill="none" stroke-width="6.0" stroke-linecap="round" stroke-linejoin="round" />
<path d="M 147.0 162.5 L 147.0 162.0 L 146.0 161.5 L 145.5 161.5 L 145.5 161.5 L 145.5 162.0 L 145.5 165.5 L 145.5 171.5 L 145.5 177.5 L 145.5 181.5 L 145.5 182.5 L 146.0 182.5 " stroke="black" fill="none" stroke-width="6.0" stroke-linecap="round" stroke-linejoin="round" />
<path d="M 133.5 184.0 L 133.0 184.0 L 132.5 184.0 L 132.0 184.0 L 132.0 184.0 L 134.5 184.0 L 138.5 184.0 L 144.0 184.0 L 150.5 184.0 L 156.5 183.5 L 159.5 183.0 L 160.0 182.5 " stroke="black" fill="none" stroke-width="6.0" stroke-linecap="round" stroke-linejoin="round" />
<path d="M 138.5 193.5 L 139.0 193.5 L 139.5 193.0 L 139.5 193.0 L 140.0 193.0 L 139.0 193.0 L 136.0 195.0 L 132.5 198.0 L 129.0 200.5 L 128.0 201.5 " stroke="black" fill="none" stroke-width="6.0" stroke-linecap="round" stroke-linejoin="round" />
<path d="M 151.0 192.0 L 151.5 192.0 L 152.0 191.5 L 153.0 191.5 L 156.0 192.5 L 160.0 195.0 L 165.0 198.0 L 169.0 199.5 L 170.5 199.5 " stroke="black" fill="none" stroke-width="6.0" stroke-linecap="round" stroke-linejoin="round" />
</svg>