<svg xmlns="http://www.w3.org/2000/svg" width="300" height="300" viewBox="0 0 300 300">
<path d="M 134.0 119.5 L 134.5 119.5 L 135.5 119.5 L 135.5 119.5 L 136.0 119.5 L 137.0 120.5 L 137.5 124.0 L 138.0 132.0 L 138.5 144.5 L 137.5 155.5 L 137.0 162.0 L 137.5 163.0 L 137.5 161.5 L 137.5 160.5 " stroke="black" fill="none" stroke-width="6.0" stroke-linecap="round" stroke-linejoin="round" />
<path d="M 141.5 119.0 L 140.5 119.0 L 139.5 119.0 L 139.0 119.0 L 139.0 119.0 L 140.5 119.0 L 143.5 119.5 L 148.5 120.0 L 154.5 120.5 L 160.0 120.5 L 164.0 120.5 L 166.0 120.0 L 166.0 120.0 L 166.0 120.0 L 165.5 120.0 L 165.0 121.0 L 165.0 122.0 L 165.0 124.0 L 165.0 128.0 L 165.0 134.5 L 165.0 143.5 L 165.0 153.5 L 165.0 160.5 L 165.0 164.0 L 165.5 165.5 L 165.5 165.5 L 164.5 164.0 L 164.0 162.0 " stroke="black" fill="none" stroke-width="6.0" stroke-linecap="round" stroke-linejoin="round" />
<path d="M 142.5 135.5 L 142.0 135.5 L 141.0 136.0 L 141.0 136.0 L 142.0 136.5 L 146.0 136.5 L 150.5 136.0 L 155.0 135.5 L 158.0 135.0 L 160.5 135.0 L 161.0 135.0 " stroke="black" fill="none" stroke-width="6.0" stroke-linecap="round" stroke-linejoin="round" />
<path d="M 146.5 151.0 L 146.0 151.0 L 145.5 151.0 L 145.5 151.0 L 147.5 151.0 L 151.0 150.5 L 154.5 149.5 L 157.5 149.5 " stroke="black" fill="none" stroke-width="6.0" stroke-linecap="round" stroke-linejoin="round" />
<path d="M 141.0 167.5 L 141.0 167.5 L 141.0 167.5 L 141.0 167.5 L 143.0 167.5 L 147.5 167.5 L 154.0 166.0 L 160.0 164.5 L 164.5 164.0 L 165.0 164.0 " stroke="black" fill="none" stroke-width="6.0" stroke-linecap="round" stroke-linejoin="round" />
<path d="M 146.0 173.5 L 146.0 173.5 L 146.0 173.5 L 146.0 173.5 L 145.5 173.5 L 144.0 175.5 L 140.5 180.5 L 136.0 186.0 L 134.0 188.5 L 134.5 188.0 " stroke="black" fill="none" stroke-width="6.0" stroke-linecap="round" stroke-linejoin="round" />
<path d="M 157.0 172.5 L 158.5 172.5 L 159.0 172.5 L 159.0 172.5 L 159.0 172.5 L 159.0 173.5 L 159.0 176.0 L 159.0 180.5 L 160.0 185.5 L 163.5 189.0 L 168.5 190.0 L 174.5 190.0 L 179.5 188.0 L 183.5 186.0 L 185.5 185.0 L 186.0 184.5 L 185.5 184.0 L 184.5 183.0 L 183.5 181.5 L 183.0 180.5 L 182.0 179.5 L 181.5 179.0 L 181.0 178.0 L 181.0 178.0 L 181.0 178.0 " stroke="black" fill="none" stroke-width="6.0" stroke-linecap="round" stroke-linejoin="round" />
</svg>