<svg xmlns="http://www.w3.org/2000/svg" width="300" height="300" viewBox="0 0 300 300">
<path d="M 134.5 120.0 L 135.0 119.0 L 135.5 118.0 L 135.5 118.0 L 135.5 119.5 L 136.0 125.0 L 136.5 134.0 L 137.0 148.5 L 137.0 160.0 L 137.5 164.5 L 138.5 163.5 L 139.0 158.0 L 139.0 156.0 " stroke="black" fill="none" stroke-width="6.0" stroke-linecap="round" stroke-linejoin="round" />
<path d="M 137.5 115.0 L 137.0 115.0 L 136.5 115.0 L 136.5 114.5 L 138.5 114.0 L 143.5 113.5 L 150.0 113.0 L 156.5 113.0 L 161.5 113.0 L 165.0 113.0 L 165.5 113.0 L 165.5 113.0 L 165.5 113.5 L 165.0 114.5 L 165.0 117.5 L 165.0 122.0 L 164.5 129.0 L 164.0 138.0 L 164.0 148.0 L 164.0 155.5 L 164.0 158.5 L 164.5 161.0 L 164.5 161.5 L 164.5 162.0 L 164.0 161.5 " stroke="black" fill="none" stroke-width="6.0" stroke-linecap="round" stroke-linejoin="round" />
<path d="M 141.5 129.5 L 140.5 129.5 L 139.5 129.5 L 139.5 130.0 L 141.0 130.0 L 145.5 130.0 L 150.5 129.5 L 155.0 129.5 L 158.5 129.5 L 160.0 129.5 " stroke="black" fill="none" stroke-width="6.0" stroke-linecap="round" stroke-linejoin="round" />
<path d="M 141.5 146.0 L 141.0 146.0 L 140.0 146.0 L 140.0 146.0 L 143.0 146.0 L 148.0 145.5 L 153.0 145.0 L 158.5 144.0 L 162.5 144.0 L 163.0 144.0 " stroke="black" fill="none" stroke-width="6.0" stroke-linecap="round" stroke-linejoin="round" />
<path d="M 136.0 165.0 L 136.0 165.5 L 135.0 165.5 L 134.5 166.0 L 137.0 166.0 L 143.0 164.5 L 150.5 163.0 L 162.0 161.5 L 163.0 161.5 " stroke="black" fill="none" stroke-width="6.0" stroke-linecap="round" stroke-linejoin="round" />
<path d="M 146.0 170.5 L 146.0 170.0 L 146.0 169.0 L 146.5 169.0 L 145.5 170.5 L 141.5 175.5 L 136.0 182.0 L 132.5 186.5 L 132.5 187.5 " stroke="black" fill="none" stroke-width="6.0" stroke-linecap="round" stroke-linejoin="round" />
<path d="M 152.5 171.0 L 152.5 171.0 L 152.5 171.0 L 152.0 171.0 L 152.0 171.0 L 152.0 172.0 L 152.0 174.5 L 153.0 178.5 L 155.5 182.5 L 161.0 184.5 L 168.5 184.5 L 174.5 182.5 L 178.0 180.5 L 178.5 178.5 L 178.0 176.5 L 177.0 174.5 L 176.5 173.5 L 176.0 173.5 L 176.0 173.5 L 176.0 173.5 " stroke="black" fill="none" stroke-width="6.0" stroke-linecap="round" stroke-linejoin="round" />
</svg>