<svg xmlns="http://www.w3.org/2000/svg" width="300" height="300" viewBox="0 0 300 300">
<path d="M 142.5 113.0 L 142.5 112.5 L 142.0 112.0 L 142.0 111.0 L 142.0 110.5 L 142.0 109.5 L 142.0 109.0 L 142.0 108.5 L 142.0 108.5 L 141.0 111.5 L 138.0 118.0 L 134.5 124.5 L 131.0 129.0 L 129.5 131.0 L 128.5 132.0 L 128.0 132.0 L 128.0 131.0 " stroke="black" fill="none" stroke-width="6.0" stroke-linecap="round" stroke-linejoin="round" />
<path d="M 156.5 108.0 L 156.5 108.5 L 156.5 109.5 L 156.5 109.5 L 157.0 110.0 L 158.0 111.0 L 160.0 113.0 L 162.0 116.0 L 164.5 119.0 L 166.5 122.0 L 168.5 124.5 L 170.5 126.5 L 172.0 128.0 L 173.0 129.5 L 174.0 130.5 L 174.5 131.0 L 175.0 131.0 " stroke="black" fill="none" stroke-width="6.0" stroke-linecap="round" stroke-linejoin="round" />
<path d="M 140.0 129.0 L 139.5 129.5 L 139.0 130.0 L 139.0 130.5 L 140.0 130.0 L 142.0 129.5 L 145.0 128.5 L 149.0 128.0 L 155.0 127.0 L 161.5 126.0 L 167.0 125.5 L 168.5 125.0 L 168.0 125.0 L 167.5 125.0 " stroke="black" fill="none" stroke-width="6.0" stroke-linecap="round" stroke-linejoin="round" />
<path d="M 148.5 131.0 L 148.5 131.0 L 148.0 131.5 L 148.0 131.5 L 148.0 131.5 L 148.0 131.5 L 148.0 131.5 L 148.5 131.5 L 148.5 131.5 L 148.5 132.5 L 148.0 135.0 L 146.5 138.5 L 144.0 142.5 L 141.5 146.0 L 139.0 149.0 L 137.0 150.5 L 136.0 151.5 L 136.0 151.5 L 136.0 151.5 L 136.0 151.5 L 136.0 151.5 L 136.5 151.5 L 136.5 151.5 L 137.0 151.5 L 137.0 151.5 L 137.5 151.5 L 137.5 151.5 L 138.0 151.5 L 138.5 151.5 L 138.5 151.5 L 138.5 151.5 L 139.0 151.5 L 140.0 151.5 L 141.5 151.0 L 144.0 151.0 L 148.5 150.0 L 153.5 149.0 L 158.5 148.5 L 162.5 148.0 L 165.5 148.0 L 167.0 148.0 L 167.5 148.0 L 167.5 148.0 L 167.0 148.0 L 167.0 148.0 L 167.0 148.0 L 167.0 148.0 L 167.0 148.0 L 167.0 148.0 L 167.0 148.0 L 166.5 148.0 L 166.5 148.0 L 166.5 148.0 L 166.5 148.0 L 166.5 148.0 L 166.5 148.0 L 166.5 148.0 L 166.5 148.0 L 166.5 148.0 L 167.0 148.0 L 167.0 148.0 L 167.5 148.0 L 167.5 147.5 L 167.5 147.5 L 168.0 147.5 L 168.0 147.5 L 168.0 147.5 L 168.0 147.5 L 168.0 147.5 L 168.0 148.0 L 168.0 149.0 L 168.0 151.0 L 168.0 154.5 L 167.5 159.5 L 167.5 164.5 L 167.0 168.0 L 167.0 171.0 L 166.5 174.0 L 166.0 177.0 L 165.5 179.5 L 164.5 181.0 L 164.0 182.5 L 162.5 183.5 L 160.5 184.5 L 158.5 185.0 L 156.5 185.5 L 154.0 185.5 L 151.5 185.5 L 150.0 184.5 L 149.0 183.5 L 149.0 183.5 " stroke="black" fill="none" stroke-width="6.0" stroke-linecap="round" stroke-linejoin="round" />
</svg>