<svg xmlns="http://www.w3.org/2000/svg" width="300" height="300" viewBox="0 0 300 300">
<path d="M 132.0 120.5 L 129.5 120.5 L 127.5 120.5 L 126.5 120.5 L 126.5 120.5 L 129.0 120.5 L 136.5 120.0 L 147.0 118.5 L 158.5 116.5 L 167.5 116.0 L 172.0 116.0 L 173.5 116.0 L 173.5 116.0 L 173.0 116.0 L 172.0 116.0 L 171.0 116.0 " stroke="black" fill="none" stroke-width="6.0" stroke-linecap="round" stroke-linejoin="round" />
<path d="M 126.0 149.0 L 126.5 149.0 L 127.0 149.5 L 127.0 149.5 L 129.0 149.5 L 135.0 148.5 L 146.0 146.0 L 158.0 144.5 L 168.0 144.0 L 174.0 143.5 L 176.5 143.5 L 177.0 144.0 " stroke="black" fill="none" stroke-width="6.0" stroke-linecap="round" stroke-linejoin="round" />
<path d="M 150.0 122.0 L 150.5 121.0 L 151.0 120.5 L 151.5 120.0 L 152.0 120.0 L 152.0 122.0 L 151.5 128.5 L 149.5 139.5 L 145.0 156.0 L 139.5 172.0 L 134.0 181.5 L 131.5 185.5 L 131.0 186.0 L 131.0 185.5 " stroke="black" fill="none" stroke-width="6.0" stroke-linecap="round" stroke-linejoin="round" />
<path d="M 151.0 159.0 L 151.0 159.0 L 151.5 158.5 L 151.5 158.0 L 152.0 158.0 L 152.5 158.0 L 154.5 160.5 L 159.5 166.5 L 167.0 174.0 L 174.5 180.0 L 181.0 182.5 " stroke="black" fill="none" stroke-width="6.0" stroke-linecap="round" stroke-linejoin="round" />
</svg>