<svg xmlns="http://www.w3.org/2000/svg" width="300" height="300" viewBox="0 0 300 300">
<path d="M 134.0 130.0 L 134.0 130.5 L 134.0 131.0 L 133.5 131.0 L 134.0 131.0 L 137.5 131.0 L 144.0 129.5 L 152.5 127.5 L 160.0 126.0 L 163.0 125.5 L 163.5 125.5 L 162.5 126.0 L 162.0 126.0 " stroke="black" fill="none" stroke-width="6.0" stroke-linecap="round" stroke-linejoin="round" />
<path d="M 150.5 112.0 L 150.5 112.0 L 150.0 112.0 L 149.5 112.0 L 149.5 112.0 L 149.5 115.0 L 150.5 123.5 L 151.0 134.0 L 151.5 140.0 L 151.5 141.5 L 152.0 142.0 " stroke="black" fill="none" stroke-width="6.0" stroke-linecap="round" stroke-linejoin="round" />
<path d="M 130.5 148.5 L 130.5 148.5 L 130.5 148.0 L 130.5 147.5 L 130.5 147.0 L 133.0 147.0 L 139.5 146.5 L 149.5 146.5 L 158.5 146.0 L 166.5 145.5 L 171.0 145.0 L 171.5 145.5 L 171.0 145.5 " stroke="black" fill="none" stroke-width="6.0" stroke-linecap="round" stroke-linejoin="round" />
<path d="M 149.5 150.5 L 150.0 150.5 L 150.0 150.0 L 150.0 150.0 L 150.0 150.0 L 149.5 152.5 L 147.0 158.0 L 143.0 165.0 L 139.0 171.0 L 137.0 173.5 L 136.5 173.5 L 136.0 173.5 L 136.0 173.5 L 136.0 173.5 L 136.0 173.5 L 136.5 173.5 L 139.0 173.5 L 142.5 173.0 L 148.0 172.5 L 154.5 171.0 L 162.0 169.0 L 167.5 167.0 L 168.5 166.5 L 168.5 167.0 L 168.0 168.0 " stroke="black" fill="none" stroke-width="6.0" stroke-linecap="round" stroke-linejoin="round" />
<path d="M 164.5 162.0 L 164.5 162.0 L 163.5 161.0 L 163.0 160.5 L 163.0 160.5 L 163.0 160.5 L 164.5 162.5 L 166.5 167.0 L 168.5 171.5 L 170.5 175.5 L 171.5 177.0 " stroke="black" fill="none" stroke-width="6.0" stroke-linecap="round" stroke-linejoin="round" />
</svg>