<svg xmlns="http://www.w3.org/2000/svg" width="300" height="300" viewBox="0 0 300 300">
<path d="M 139.0 111.5 L 139.0 112.0 L 138.5 112.5 L 138.0 113.0 L 137.5 113.0 L 137.5 113.0 L 138.5 113.0 L 141.0 113.0 L 145.0 113.0 L 149.5 113.0 L 153.5 113.0 L 156.0 113.0 L 157.5 114.0 L 158.5 114.5 L 158.5 115.0 L 158.5 115.5 L 158.0 116.5 L 156.5 118.5 L 155.0 120.5 L 153.5 123.0 L 151.5 126.0 L 149.0 129.5 L 147.0 133.0 L 146.0 134.0 L 146.0 134.5 L 147.5 133.5 " stroke="black" fill="none" stroke-width="6.0" stroke-linecap="round" stroke-linejoin="round" />
<path d="M 147.0 134.5 L 146.5 134.5 L 146.0 134.5 L 145.5 134.0 L 145.5 134.0 L 146.5 134.0 L 147.5 135.5 L 148.5 140.0 L 149.0 147.5 L 149.0 152.0 L 149.0 166.0 L 149.0 172.5 L 149.0 178.0 L 149.0 183.0 L 149.0 187.0 L 148.0 190.0 L 147.0 191.0 L 145.5 191.0 L 143.5 190.5 L 141.0 189.0 L 138.5 187.0 L 136.5 184.5 L 135.5 182.0 L 135.5 180.0 " stroke="black" fill="none" stroke-width="6.0" stroke-linecap="round" stroke-linejoin="round" />
<path d="M 139.5 142.5 L 139.5 142.5 L 139.0 143.0 L 139.0 143.0 L 139.0 143.0 L 141.0 143.0 L 145.0 142.5 L 150.0 142.0 L 154.5 141.5 L 157.0 141.5 L 158.0 141.5 L 158.0 142.0 " stroke="black" fill="none" stroke-width="6.0" stroke-linecap="round" stroke-linejoin="round" />
<path d="M 143.5 152.0 L 143.0 152.5 L 142.5 153.0 L 142.5 153.0 L 143.5 153.0 L 146.0 152.5 L 149.0 152.0 L 151.5 152.0 L 154.0 152.0 L 156.0 152.0 L 156.5 151.5 " stroke="black" fill="none" stroke-width="6.0" stroke-linecap="round" stroke-linejoin="round" />
<path d="M 137.5 161.5 L 137.5 161.5 L 138.0 162.0 L 138.0 162.0 L 138.0 162.0 L 139.0 162.0 L 142.0 162.0 L 147.5 161.5 L 153.0 160.5 L 157.0 160.0 L 159.0 159.5 L 160.0 160.5 L 160.0 161.0 " stroke="black" fill="none" stroke-width="6.0" stroke-linecap="round" stroke-linejoin="round" />
<path d="M 119.0 131.5 L 119.0 132.0 L 118.0 133.0 L 118.0 133.0 L 118.0 133.0 L 120.0 133.5 L 122.5 133.5 L 125.5 133.5 L 128.5 133.5 L 130.5 132.5 L 132.5 132.0 L 133.5 132.0 L 133.5 132.0 L 134.0 132.0 L 134.0 132.0 L 134.0 132.0 L 134.0 132.0 L 134.0 132.0 L 134.0 132.0 L 134.0 132.5 L 134.0 132.5 L 134.0 133.0 L 133.5 133.5 L 133.5 134.5 L 133.0 135.0 L 132.5 136.5 L 132.0 138.0 L 131.0 140.5 L 130.0 143.5 L 128.5 147.5 L 126.5 151.5 L 124.5 156.0 L 121.5 160.5 L 119.0 164.0 L 118.0 165.0 L 118.0 165.0 L 119.5 164.0 " stroke="black" fill="none" stroke-width="6.0" stroke-linecap="round" stroke-linejoin="round" />
<path d="M 181.0 124.5 L 181.0 124.5 L 182.0 124.0 L 183.0 123.5 L 183.0 123.5 L 183.0 123.5 L 183.0 124.0 L 182.0 126.0 L 179.5 129.0 L 176.0 132.5 L 172.5 135.5 L 170.5 137.0 L 169.5 137.5 L 169.5 137.5 " stroke="black" fill="none" stroke-width="6.0" stroke-linecap="round" stroke-linejoin="round" />
<path d="M 171.0 138.0 L 170.5 138.0 L 170.0 137.5 L 169.5 137.0 L 169.5 137.0 L 170.0 139.0 L 171.5 143.5 L 173.5 149.5 L 177.0 157.0 L 182.0 163.5 L 186.5 168.0 L 190.0 169.5 L 192.5 171.0 L 193.5 171.5 " stroke="black" fill="none" stroke-width="6.0" stroke-linecap="round" stroke-linejoin="round" />
</svg>