<svg xmlns="http://www.w3.org/2000/svg" width="300" height="300" viewBox="0 0 300 300">
<path d="M 127.5 113.5 L 127.0 113.5 L 126.5 113.0 L 126.5 113.0 L 126.5 113.0 L 128.5 112.5 L 132.5 112.5 L 139.0 112.0 L 150.0 111.5 L 161.5 109.5 L 168.5 108.0 L 171.5 107.5 L 171.5 107.5 L 170.5 107.5 L 170.0 107.5 " stroke="black" fill="none" stroke-width="6.0" stroke-linecap="round" stroke-linejoin="round" />
<path d="M 151.0 111.0 L 151.0 111.5 L 151.0 112.0 L 151.0 112.5 L 151.0 114.0 L 151.5 119.5 L 151.5 132.0 L 150.5 147.0 L 149.0 158.0 L 149.0 164.5 L 149.5 166.5 L 150.5 166.0 L 150.5 165.5 " stroke="black" fill="none" stroke-width="6.0" stroke-linecap="round" stroke-linejoin="round" />
<path d="M 164.5 125.5 L 164.0 125.5 L 163.0 124.5 L 162.5 124.5 L 162.5 124.5 L 164.5 125.5 L 167.0 128.0 L 169.5 130.0 L 171.5 132.0 L 172.5 132.5 " stroke="black" fill="none" stroke-width="6.0" stroke-linecap="round" stroke-linejoin="round" />
</svg>