<svg xmlns="http://www.w3.org/2000/svg" width="300" height="300" viewBox="0 0 300 300">
<path d="M 126.5 126.5 L 126.5 126.5 L 126.5 126.5 L 126.0 126.5 L 126.0 126.5 L 126.0 126.5 L 126.5 128.5 L 127.5 135.0 L 128.5 145.0 L 128.5 155.0 L 128.5 161.5 L 128.5 164.0 L 129.0 162.5 " stroke="black" fill="none" stroke-width="6.0" stroke-linecap="round" stroke-linejoin="round" />
<path d="M 130.5 124.5 L 130.5 125.0 L 130.0 125.0 L 130.0 125.0 L 130.0 125.0 L 131.0 125.0 L 133.5 124.5 L 136.5 124.0 L 140.0 123.5 L 144.0 123.5 L 147.0 124.5 L 148.5 126.0 L 148.5 128.0 L 148.5 131.0 L 148.0 135.5 L 148.0 141.5 L 148.0 148.0 L 148.0 154.0 L 148.0 158.5 L 148.0 161.0 L 148.0 162.0 L 148.0 162.0 " stroke="black" fill="none" stroke-width="6.0" stroke-linecap="round" stroke-linejoin="round" />
<path d="M 132.5 143.5 L 132.5 144.0 L 132.5 144.5 L 132.5 144.5 L 133.5 144.5 L 135.5 144.5 L 138.5 143.5 L 142.0 143.0 L 144.0 142.5 L 145.5 142.5 " stroke="black" fill="none" stroke-width="6.0" stroke-linecap="round" stroke-linejoin="round" />
<path d="M 133.5 164.0 L 134.0 163.5 L 134.5 163.0 L 135.5 162.5 L 138.0 162.0 L 141.5 161.0 L 145.0 160.0 L 147.5 159.0 L 148.0 159.0 " stroke="black" fill="none" stroke-width="6.0" stroke-linecap="round" stroke-linejoin="round" />
<path d="M 162.0 117.5 L 162.0 117.5 L 161.5 117.5 L 161.5 118.0 L 161.0 119.0 L 161.0 122.5 L 160.5 131.5 L 160.0 146.0 L 159.0 161.0 L 158.5 173.5 L 157.5 182.5 L 157.0 186.5 L 157.0 187.5 L 156.5 186.5 L 155.5 181.5 L 155.0 177.5 " stroke="black" fill="none" stroke-width="6.0" stroke-linecap="round" stroke-linejoin="round" />
<path d="M 160.5 122.5 L 160.0 121.5 L 159.5 121.0 L 159.5 121.0 L 159.5 120.5 L 161.0 120.0 L 163.5 119.5 L 166.5 118.5 L 170.5 117.5 L 174.5 117.5 L 177.5 117.5 L 179.0 118.0 L 179.5 119.5 L 180.0 122.0 L 180.0 125.5 L 180.0 130.5 L 180.5 137.0 L 181.0 146.0 L 181.0 155.5 L 181.0 166.0 L 181.0 175.0 L 181.0 183.5 L 181.0 191.0 L 181.0 195.5 L 181.0 197.0 L 180.5 197.0 L 179.5 195.0 L 178.5 191.0 L 177.0 188.5 " stroke="black" fill="none" stroke-width="6.0" stroke-linecap="round" stroke-linejoin="round" />
<path d="M 165.0 141.0 L 164.5 140.5 L 164.5 140.0 L 165.0 140.0 L 167.0 140.0 L 170.0 140.5 L 172.5 140.5 L 175.0 140.5 L 176.5 140.5 L 177.5 141.0 " stroke="black" fill="none" stroke-width="6.0" stroke-linecap="round" stroke-linejoin="round" />
<path d="M 162.5 165.5 L 161.5 165.5 L 161.0 165.5 L 160.5 165.5 L 162.0 165.0 L 165.5 164.5 L 170.0 164.0 L 174.5 163.0 L 178.5 163.0 L 179.5 163.0 " stroke="black" fill="none" stroke-width="6.0" stroke-linecap="round" stroke-linejoin="round" />
</svg>