<svg xmlns="http://www.w3.org/2000/svg" width="300" height="300" viewBox="0 0 300 300">
<path d="M 131.5 129.0 L 131.5 129.0 L 132.0 128.5 L 132.5 128.5 L 132.5 128.0 L 132.5 128.0 L 132.0 130.0 L 128.5 136.5 L 123.0 145.5 L 118.5 151.0 L 117.5 152.0 L 117.5 150.5 L 119.0 148.0 " stroke="black" fill="none" stroke-width="6.0" stroke-linecap="round" stroke-linejoin="round" />
<path d="M 133.5 126.5 L 133.0 126.5 L 132.5 126.5 L 132.5 126.5 L 132.5 127.0 L 134.5 130.5 L 138.0 136.0 L 141.5 141.0 L 144.0 144.0 L 145.0 145.0 L 145.0 146.0 " stroke="black" fill="none" stroke-width="6.0" stroke-linecap="round" stroke-linejoin="round" />
<path d="M 126.0 157.0 L 125.0 158.5 L 124.5 158.5 L 125.5 158.5 L 129.0 157.0 L 132.5 156.0 L 136.0 155.0 L 138.5 154.5 L 139.5 154.5 " stroke="black" fill="none" stroke-width="6.0" stroke-linecap="round" stroke-linejoin="round" />
<path d="M 126.0 171.0 L 125.5 171.5 L 125.0 171.5 L 125.0 171.5 L 127.0 171.0 L 131.0 170.5 L 134.5 170.0 L 137.5 169.5 L 139.0 169.5 " stroke="black" fill="none" stroke-width="6.0" stroke-linecap="round" stroke-linejoin="round" />
<path d="M 135.0 159.5 L 135.0 159.5 L 134.5 160.0 L 134.5 160.0 L 134.5 160.5 L 134.5 163.5 L 135.0 170.0 L 135.5 179.0 L 136.5 185.5 L 137.5 188.5 L 138.5 189.5 " stroke="black" fill="none" stroke-width="6.0" stroke-linecap="round" stroke-linejoin="round" />
<path d="M 123.0 182.5 L 122.5 182.5 L 121.0 182.5 L 121.0 183.0 L 121.5 183.5 L 124.5 185.0 L 128.0 186.0 L 130.5 186.5 " stroke="black" fill="none" stroke-width="6.0" stroke-linecap="round" stroke-linejoin="round" />
<path d="M 146.0 178.0 L 145.5 179.0 L 145.5 179.5 L 145.5 179.5 L 145.5 179.5 L 145.0 181.5 L 143.5 184.5 " stroke="black" fill="none" stroke-width="6.0" stroke-linecap="round" stroke-linejoin="round" />
<path d="M 127.5 201.5 L 126.5 201.5 L 126.0 201.5 L 127.0 201.0 L 131.0 200.0 L 136.5 198.0 L 142.0 195.0 L 146.0 192.0 " stroke="black" fill="none" stroke-width="6.0" stroke-linecap="round" stroke-linejoin="round" />
<path d="M 157.0 135.5 L 157.0 135.5 L 157.0 135.5 L 157.0 135.5 L 157.5 135.5 L 160.0 135.5 L 165.0 136.0 L 170.5 135.5 L 174.5 134.0 L 177.0 133.5 L 177.5 133.5 L 177.5 135.0 L 177.5 137.0 L 177.0 141.5 L 176.0 148.0 L 173.5 158.0 L 171.0 170.0 L 168.5 179.5 L 166.0 189.0 L 164.5 196.0 L 164.0 200.0 L 163.5 202.5 L 163.5 202.5 L 163.5 199.5 " stroke="black" fill="none" stroke-width="6.0" stroke-linecap="round" stroke-linejoin="round" />
<path d="M 165.0 149.0 L 164.5 149.0 L 163.5 148.5 L 163.5 148.5 L 164.5 149.5 L 167.0 151.0 L 169.0 152.5 L 170.0 152.5 " stroke="black" fill="none" stroke-width="6.0" stroke-linecap="round" stroke-linejoin="round" />
<path d="M 154.5 151.0 L 154.5 151.0 L 154.0 151.0 L 154.0 151.0 L 154.0 151.0 L 154.0 152.0 L 156.0 155.0 L 159.5 161.5 L 165.0 169.5 L 170.0 177.0 L 175.5 184.0 L 180.5 189.0 L 186.5 194.5 L 192.0 199.0 L 195.0 202.0 L 196.0 203.0 L 196.0 202.0 " stroke="black" fill="none" stroke-width="6.0" stroke-linecap="round" stroke-linejoin="round" />
</svg>