<svg xmlns="http://www.w3.org/2000/svg" width="300" height="300" viewBox="0 0 300 300">
<path d="M 128.5 128.0 L 128.5 128.0 L 128.5 128.5 L 128.0 128.5 L 128.0 129.0 L 128.5 129.0 L 130.0 129.0 L 134.5 129.0 L 143.0 128.5 L 152.5 127.5 L 161.0 127.0 L 167.5 126.0 L 170.0 126.0 L 170.5 126.0 L 170.0 126.0 L 170.0 126.0 L 170.0 126.0 L 170.0 126.0 L 170.0 126.0 L 170.0 126.0 L 170.0 126.0 L 170.0 126.0 L 170.0 126.0 L 170.0 126.0 L 170.0 126.0 L 170.0 126.0 " stroke="black" fill="none" stroke-width="6.0" stroke-linecap="round" stroke-linejoin="round" />
<path d="M 144.5 115.0 L 144.5 115.0 L 145.0 114.0 L 145.5 113.5 L 146.0 113.0 L 146.0 113.0 L 146.0 113.0 L 146.5 114.0 L 146.5 117.5 L 145.5 124.5 L 142.0 135.5 L 137.0 148.0 L 131.5 157.5 L 128.0 162.5 L 126.5 164.5 L 126.5 164.5 L 126.5 164.0 L 126.5 163.0 " stroke="black" fill="none" stroke-width="6.0" stroke-linecap="round" stroke-linejoin="round" />
<path d="M 142.5 143.0 L 142.5 143.0 L 142.5 143.0 L 142.5 143.0 L 143.0 143.0 L 143.0 144.5 L 143.5 148.0 L 144.0 155.5 L 143.5 167.5 L 142.0 180.0 L 141.0 188.5 L 140.5 190.5 L 140.5 190.5 L 140.0 190.0 L 139.0 189.5 " stroke="black" fill="none" stroke-width="6.0" stroke-linecap="round" stroke-linejoin="round" />
<path d="M 147.5 148.0 L 146.5 147.0 L 146.0 146.5 L 145.5 146.0 L 146.0 146.0 L 147.5 145.5 L 150.0 145.5 L 153.5 145.0 L 158.5 145.0 L 164.5 144.0 L 169.0 143.0 L 171.0 142.5 L 171.0 142.5 L 170.5 142.5 L 170.0 142.5 L 169.5 143.0 L 169.5 143.5 L 169.5 145.0 L 169.0 147.0 L 169.0 151.0 L 168.5 157.0 L 168.0 164.0 L 168.0 171.5 L 168.0 178.0 L 168.5 184.5 L 168.5 189.5 L 169.0 192.0 L 169.0 192.5 L 169.0 192.5 L 169.0 191.5 L 167.5 190.5 L 165.0 189.0 L 163.5 188.0 L 162.0 187.0 L 161.5 187.0 " stroke="black" fill="none" stroke-width="6.0" stroke-linecap="round" stroke-linejoin="round" />
<path d="M 147.5 160.0 L 147.5 160.0 L 147.0 160.0 L 146.5 160.0 L 146.5 160.0 L 148.0 159.5 L 151.5 158.5 L 156.0 157.5 L 161.0 157.0 L 163.5 156.5 L 165.0 156.5 L 165.0 156.5 " stroke="black" fill="none" stroke-width="6.0" stroke-linecap="round" stroke-linejoin="round" />
<path d="M 150.0 171.5 L 149.5 172.0 L 149.0 172.5 L 149.0 172.5 L 149.0 172.5 L 151.5 172.5 L 155.0 171.5 L 159.5 171.0 L 163.5 170.0 L 166.0 170.0 L 166.5 170.0 " stroke="black" fill="none" stroke-width="6.0" stroke-linecap="round" stroke-linejoin="round" />
</svg>