<svg xmlns="http://www.w3.org/2000/svg" width="300" height="300" viewBox="0 0 300 300">
<path d="M 147.5 117.0 L 147.5 117.0 L 147.5 116.5 L 147.5 116.5 L 147.5 116.5 L 147.5 119.5 L 147.5 125.5 L 147.5 134.0 L 147.5 145.5 L 147.0 155.0 L 147.0 161.0 L 147.0 163.5 L 147.0 164.0 L 147.0 163.5 L 147.0 162.0 " stroke="black" fill="none" stroke-width="6.0" stroke-linecap="round" stroke-linejoin="round" />
<path d="M 129.5 130.0 L 129.5 130.0 L 130.0 129.5 L 130.0 129.0 L 130.0 129.0 L 130.5 129.0 L 130.5 129.0 L 131.0 130.5 L 131.0 133.0 L 131.5 137.5 L 131.5 144.5 L 131.5 153.0 L 131.5 160.5 L 132.0 166.0 L 132.5 168.0 L 132.5 168.5 L 133.0 168.0 L 134.0 167.5 L 136.0 167.0 L 139.5 166.0 L 146.0 165.5 L 153.5 165.0 L 161.5 164.0 L 167.5 163.0 L 169.5 163.0 L 169.5 163.0 L 168.0 163.0 L 167.0 163.0 " stroke="black" fill="none" stroke-width="6.0" stroke-linecap="round" stroke-linejoin="round" />
<path d="M 164.5 127.5 L 164.5 128.0 L 164.5 128.5 L 164.5 129.0 L 164.5 129.5 L 164.5 130.5 L 164.5 134.0 L 165.0 141.0 L 165.5 151.0 L 165.5 167.5 L 166.0 170.5 L 166.5 170.5 L 166.5 169.5 L 167.0 168.5 " stroke="black" fill="none" stroke-width="6.0" stroke-linecap="round" stroke-linejoin="round" />
</svg>