<svg xmlns="http://www.w3.org/2000/svg" width="300" height="300" viewBox="0 0 300 300">
<path d="M 126.5 121.0 L 126.0 121.0 L 125.5 121.0 L 125.0 121.5 L 124.5 122.0 L 126.0 124.0 L 129.0 127.5 L 131.5 130.5 L 133.0 132.0 L 134.0 133.0 " stroke="black" fill="none" stroke-width="6.0" stroke-linecap="round" stroke-linejoin="round" />
<path d="M 125.5 147.0 L 125.5 147.0 L 124.5 147.5 L 123.5 148.0 L 123.5 148.0 L 123.5 148.0 L 124.5 149.0 L 126.5 151.5 L 129.0 154.5 L 130.5 157.0 L 131.5 158.5 " stroke="black" fill="none" stroke-width="6.0" stroke-linecap="round" stroke-linejoin="round" />
<path d="M 123.5 183.5 L 123.0 183.5 L 122.5 183.5 L 122.5 183.0 L 123.0 181.5 L 124.5 178.5 L 127.0 175.0 L 129.0 171.5 L 130.0 169.5 " stroke="black" fill="none" stroke-width="6.0" stroke-linecap="round" stroke-linejoin="round" />
<path d="M 148.5 125.5 L 148.5 124.0 L 148.5 122.5 L 148.5 122.0 L 148.5 121.5 L 149.0 122.5 L 149.0 126.5 L 149.0 131.0 L 149.0 135.0 L 149.0 137.5 L 148.5 138.0 L 148.5 137.5 " stroke="black" fill="none" stroke-width="6.0" stroke-linecap="round" stroke-linejoin="round" />
<path d="M 150.5 121.0 L 150.5 121.5 L 150.5 122.0 L 150.0 122.5 L 150.0 122.5 L 151.0 122.5 L 153.5 122.0 L 157.5 121.0 L 164.5 119.0 L 172.5 117.5 L 179.0 116.0 L 182.5 115.5 L 183.0 115.5 L 183.0 115.5 L 182.5 115.5 L 182.5 116.0 L 182.5 116.0 L 182.5 116.0 L 182.5 117.0 L 182.5 118.0 L 182.5 121.0 L 182.0 125.0 L 181.5 128.5 L 181.0 130.5 L 181.0 131.0 L 181.0 131.0 " stroke="black" fill="none" stroke-width="6.0" stroke-linecap="round" stroke-linejoin="round" />
<path d="M 160.0 136.5 L 160.0 136.5 L 160.5 135.5 L 160.5 135.5 L 161.0 135.0 L 161.0 135.0 L 161.0 138.0 L 159.5 145.5 L 156.5 155.5 L 153.0 165.5 L 151.0 170.0 L 150.5 169.5 L 150.5 168.0 " stroke="black" fill="none" stroke-width="6.0" stroke-linecap="round" stroke-linejoin="round" />
<path d="M 172.0 137.5 L 172.0 137.5 L 172.0 137.5 L 172.0 137.5 L 172.0 137.5 L 172.0 137.5 L 172.0 137.5 L 172.0 140.5 L 172.0 148.0 L 172.0 158.5 L 172.5 166.5 L 175.0 169.5 L 178.0 170.0 L 182.0 170.0 L 186.0 169.0 L 190.0 167.5 L 193.5 165.0 L 196.0 163.0 L 197.5 161.0 L 197.5 160.5 L 197.0 160.0 L 196.5 159.0 L 195.5 158.0 L 195.0 156.5 L 194.5 155.5 L 194.0 154.0 L 193.5 153.5 L 193.0 152.5 L 193.0 152.5 L 193.0 152.5 " stroke="black" fill="none" stroke-width="6.0" stroke-linecap="round" stroke-linejoin="round" />
</svg>