<svg xmlns="http://www.w3.org/2000/svg" width="300" height="300" viewBox="0 0 300 300">
<path d="M 136.5 114.5 L 136.5 114.0 L 137.0 113.0 L 137.0 113.0 L 137.0 113.0 L 137.0 113.0 L 137.0 116.5 L 136.5 123.0 L 134.5 131.0 L 132.5 136.5 L 131.5 137.5 L 131.0 136.0 L 131.0 135.5 " stroke="black" fill="none" stroke-width="6.0" stroke-linecap="round" stroke-linejoin="round" />
<path d="M 135.5 129.0 L 135.5 129.0 L 135.0 129.5 L 135.0 129.5 L 135.5 129.5 L 139.5 129.5 L 146.5 129.0 L 153.5 128.0 L 159.5 127.5 L 163.5 127.0 L 165.0 127.0 L 165.0 127.0 L 165.0 127.0 " stroke="black" fill="none" stroke-width="6.0" stroke-linecap="round" stroke-linejoin="round" />
<path d="M 153.5 114.5 L 153.5 113.5 L 153.5 113.0 L 153.5 113.0 L 153.5 113.0 L 153.5 113.0 L 153.0 116.5 L 153.0 124.0 L 152.5 135.0 L 153.0 143.5 L 153.5 146.5 L 153.5 147.0 L 153.5 146.0 " stroke="black" fill="none" stroke-width="6.0" stroke-linecap="round" stroke-linejoin="round" />
<path d="M 133.5 150.0 L 132.5 150.0 L 131.5 150.0 L 131.0 150.0 L 131.0 150.0 L 133.5 150.0 L 139.0 150.0 L 147.0 149.5 L 157.0 148.5 L 167.0 147.5 L 174.0 147.5 L 176.0 147.5 L 176.0 147.5 L 173.0 148.0 " stroke="black" fill="none" stroke-width="6.0" stroke-linecap="round" stroke-linejoin="round" />
<path d="M 147.5 151.5 L 147.5 151.0 L 147.5 150.0 L 147.5 149.5 L 148.0 148.5 L 148.0 148.5 L 148.0 148.5 L 148.0 149.5 L 147.0 155.5 L 143.5 166.0 L 136.5 178.5 L 131.5 186.0 L 131.0 186.0 L 131.5 184.5 " stroke="black" fill="none" stroke-width="6.0" stroke-linecap="round" stroke-linejoin="round" />
<path d="M 155.5 153.0 L 156.0 153.0 L 156.5 153.5 L 156.5 153.5 L 157.0 153.5 L 157.0 154.0 L 157.0 157.5 L 157.0 164.0 L 157.5 170.5 L 158.0 175.5 L 158.5 178.0 L 159.0 178.5 L 160.0 179.0 L 161.0 179.5 L 163.0 181.0 L 165.5 181.5 L 169.0 182.0 L 172.5 181.5 L 174.0 180.5 L 175.5 179.5 L 176.0 178.5 L 176.5 177.0 L 177.5 176.0 L 177.5 175.0 L 177.5 174.5 L 177.5 173.5 L 177.5 172.5 L 177.5 171.5 L 177.5 170.5 L 177.5 169.5 L 177.0 168.5 L 176.5 168.0 L 176.0 167.5 L 176.0 167.5 " stroke="black" fill="none" stroke-width="6.0" stroke-linecap="round" stroke-linejoin="round" />
</svg>