<svg xmlns="http://www.w3.org/2000/svg" width="300" height="300" viewBox="0 0 300 300">
<path d="M 124.0 105.0 L 123.5 105.0 L 122.0 104.5 L 121.5 104.0 L 121.5 104.0 L 122.0 104.0 L 123.5 105.0 L 125.0 106.5 L 127.0 108.0 L 129.0 109.5 L 130.5 111.0 L 131.5 111.5 " stroke="black" fill="none" stroke-width="6.0" stroke-linecap="round" stroke-linejoin="round" />
<path d="M 118.0 124.0 L 117.5 124.0 L 116.5 124.5 L 116.0 124.5 L 115.5 125.0 L 116.0 125.0 L 118.0 125.0 L 121.0 124.5 L 125.0 124.0 L 130.0 123.0 L 135.5 122.0 L 139.0 121.0 L 140.5 120.5 L 140.5 120.5 L 140.0 120.5 L 139.0 120.5 L 138.0 121.5 L 136.0 123.5 L 133.5 126.0 L 130.0 129.5 L 125.0 135.0 L 119.5 140.5 L 115.5 144.5 L 114.0 146.5 L 114.0 146.5 L 116.0 145.0 L 118.5 142.5 " stroke="black" fill="none" stroke-width="6.0" stroke-linecap="round" stroke-linejoin="round" />
<path d="M 127.5 138.0 L 127.5 138.0 L 127.5 138.0 L 127.5 138.0 L 128.0 138.0 L 128.0 138.0 L 128.5 140.5 L 128.5 146.5 L 129.0 158.0 L 129.5 170.0 L 130.0 178.5 L 130.5 183.0 L 130.5 185.0 L 130.5 185.5 L 130.5 184.5 " stroke="black" fill="none" stroke-width="6.0" stroke-linecap="round" stroke-linejoin="round" />
<path d="M 139.0 140.5 L 137.5 140.5 L 137.0 140.5 L 137.0 141.0 L 137.5 142.5 L 139.5 144.5 L 141.0 146.0 L 142.5 147.0 L 143.0 147.0 " stroke="black" fill="none" stroke-width="6.0" stroke-linecap="round" stroke-linejoin="round" />
<path d="M 153.0 126.0 L 153.0 125.5 L 153.0 125.0 L 153.0 125.0 L 153.0 128.0 L 153.0 136.0 L 154.0 147.0 L 154.5 154.5 L 155.0 155.0 L 155.0 152.0 " stroke="black" fill="none" stroke-width="6.0" stroke-linecap="round" stroke-linejoin="round" />
<path d="M 153.0 128.5 L 152.0 128.5 L 151.5 128.0 L 151.5 128.0 L 152.5 128.5 L 156.0 129.0 L 161.0 129.0 L 168.0 128.0 L 174.5 127.0 L 178.5 126.0 L 180.0 126.0 L 180.0 127.0 L 180.0 128.5 L 179.5 131.0 L 179.5 134.5 L 179.0 138.5 L 178.5 143.5 L 178.0 148.5 L 178.0 151.5 L 177.5 152.5 L 177.0 152.5 " stroke="black" fill="none" stroke-width="6.0" stroke-linecap="round" stroke-linejoin="round" />
<path d="M 157.5 144.5 L 157.0 144.5 L 156.5 144.0 L 156.5 144.0 L 159.5 144.0 L 164.5 144.0 L 169.5 143.5 L 173.5 143.0 L 175.5 143.0 " stroke="black" fill="none" stroke-width="6.0" stroke-linecap="round" stroke-linejoin="round" />
<path d="M 156.0 156.0 L 155.5 156.5 L 155.0 157.0 L 156.5 157.0 L 161.0 157.0 L 165.5 156.0 L 170.0 155.0 L 171.0 154.5 " stroke="black" fill="none" stroke-width="6.0" stroke-linecap="round" stroke-linejoin="round" />
<path d="M 167.0 114.0 L 167.0 114.0 L 166.5 114.0 L 166.0 114.5 L 165.5 115.5 L 165.5 120.0 L 165.5 129.0 L 165.5 141.0 L 165.5 152.5 L 165.5 162.0 L 165.5 170.0 L 165.5 174.5 L 166.0 177.5 L 166.0 179.5 L 166.0 181.0 L 166.0 182.0 L 166.0 182.0 L 166.0 182.0 L 166.0 182.0 L 166.0 182.0 L 166.0 182.0 L 166.0 182.0 L 166.0 182.0 L 166.0 182.5 L 166.0 182.5 L 166.0 182.5 L 166.0 182.5 L 166.0 182.5 L 166.0 182.5 L 166.0 182.5 L 166.0 182.5 L 166.0 182.5 L 166.0 182.5 L 166.0 183.5 L 166.0 184.5 L 166.0 185.5 L 166.0 186.5 L 165.5 188.0 L 165.5 190.0 L 165.5 191.0 L 165.5 191.5 L 165.5 191.5 " stroke="black" fill="none" stroke-width="6.0" stroke-linecap="round" stroke-linejoin="round" />
</svg>