<svg xmlns="http://www.w3.org/2000/svg" width="300" height="300" viewBox="0 0 300 300">
<path d="M 144.0 108.5 L 144.0 108.5 L 144.0 108.5 L 144.0 108.5 L 144.0 109.0 L 144.5 109.0 L 146.5 110.0 L 149.0 110.5 L 151.0 111.5 L 152.0 112.5 L 152.5 113.5 " stroke="black" fill="none" stroke-width="6.0" stroke-linecap="round" stroke-linejoin="round" />
<path d="M 130.0 124.5 L 130.0 124.5 L 130.0 124.5 L 129.5 124.0 L 129.0 124.0 L 129.0 124.0 L 129.0 124.0 L 129.0 124.0 L 131.0 125.0 L 136.0 126.0 L 143.0 126.5 L 152.0 126.5 L 160.5 125.5 L 167.0 124.5 L 170.0 124.5 L 172.0 124.5 L 172.5 124.5 L 172.5 125.0 L 172.5 125.0 L 172.5 125.0 L 172.5 125.0 L 172.5 125.0 L 172.5 125.0 L 172.5 125.0 L 172.0 125.0 L 172.0 125.5 " stroke="black" fill="none" stroke-width="6.0" stroke-linecap="round" stroke-linejoin="round" />
<path d="M 167.0 127.5 L 167.0 127.5 L 167.5 127.5 L 168.0 127.5 L 168.0 127.5 L 168.0 128.0 L 167.5 129.5 L 164.5 133.0 L 159.5 139.5 L 152.0 147.5 L 144.0 155.0 L 138.0 160.5 L 133.0 166.0 L 128.5 170.0 L 126.0 172.5 L 125.0 172.5 L 125.0 172.5 L 124.5 172.0 L 124.5 171.5 L 124.0 171.0 L 124.0 170.0 L 124.0 169.0 L 124.0 168.5 L 124.5 168.0 L 125.0 167.5 L 126.0 167.0 L 127.0 167.0 L 128.0 167.0 L 130.0 167.0 L 132.0 168.0 L 134.5 169.0 L 139.0 170.0 L 145.0 171.0 L 151.5 172.0 L 157.5 173.0 L 163.0 174.0 L 167.5 174.5 L 171.5 174.5 L 175.5 174.5 L 177.5 174.5 L 179.5 174.5 L 180.0 174.5 L 180.0 174.5 L 180.0 174.5 " stroke="black" fill="none" stroke-width="6.0" stroke-linecap="round" stroke-linejoin="round" />
</svg>