<svg xmlns="http://www.w3.org/2000/svg" width="300" height="300" viewBox="0 0 300 300">
<path d="M 141.0 115.0 L 141.0 115.5 L 141.0 116.0 L 141.5 117.0 L 144.0 119.0 L 148.5 122.0 L 151.5 124.0 L 152.0 124.5 " stroke="black" fill="none" stroke-width="6.0" stroke-linecap="round" stroke-linejoin="round" />
<path d="M 128.5 133.5 L 128.5 134.0 L 128.5 134.5 L 128.0 134.5 L 128.0 135.0 L 130.5 135.0 L 136.5 135.0 L 146.0 134.5 L 155.5 133.5 L 162.5 132.5 L 166.5 131.5 L 168.5 131.5 L 168.5 131.5 L 168.5 131.5 L 168.0 131.5 L 167.0 131.5 L 166.5 131.5 " stroke="black" fill="none" stroke-width="6.0" stroke-linecap="round" stroke-linejoin="round" />
<path d="M 165.5 133.5 L 165.5 133.5 L 165.5 133.5 L 165.5 134.0 L 165.5 134.5 L 165.0 135.5 L 163.5 138.0 L 160.5 143.5 L 154.5 153.0 L 148.0 162.5 L 142.5 169.0 L 138.5 173.5 L 135.0 177.0 L 132.5 179.0 L 130.5 179.5 L 129.0 179.5 L 128.5 178.5 L 128.5 177.5 L 128.5 176.5 L 128.5 175.5 L 129.0 174.5 L 130.0 174.0 L 131.0 173.5 L 133.0 173.5 L 135.5 173.5 L 139.5 174.0 L 144.5 175.0 L 151.0 176.5 L 157.0 177.5 L 163.5 178.5 L 169.5 179.0 L 174.5 179.0 L 178.5 178.5 L 180.0 178.0 L 180.5 178.0 L 180.0 177.5 " stroke="black" fill="none" stroke-width="6.0" stroke-linecap="round" stroke-linejoin="round" />
</svg>