<svg xmlns="http://www.w3.org/2000/svg" width="300" height="300" viewBox="0 0 300 300">
<path d="M 145.5 99.0 L 144.5 99.0 L 144.0 98.5 L 143.5 98.5 L 143.5 98.5 L 145.0 99.0 L 146.5 101.0 L 148.0 103.0 L 149.5 104.0 L 150.5 105.0 L 151.0 105.0 " stroke="black" fill="none" stroke-width="5.0" stroke-linecap="round" stroke-linejoin="round" />
<path d="M 122.5 112.0 L 122.0 112.0 L 121.5 112.0 L 121.0 112.0 L 121.0 112.0 L 120.5 112.5 L 120.5 112.5 L 121.0 112.5 L 122.0 112.5 L 123.5 112.0 L 126.5 112.0 L 131.0 112.0 L 138.0 111.5 L 146.5 111.0 L 154.0 110.0 L 159.0 109.5 L 162.0 110.0 L 165.0 110.0 L 167.5 110.0 L 169.0 109.5 L 170.5 109.5 L 172.0 109.5 L 173.0 109.5 L 174.0 109.5 L 174.0 109.5 L 175.0 109.5 L 175.5 109.5 L 176.0 109.5 L 176.5 109.5 L 177.0 109.5 L 177.0 109.5 L 177.5 109.5 L 177.5 109.5 L 178.0 109.5 L 178.0 109.5 L 178.0 109.5 L 178.5 109.5 L 178.5 109.5 L 179.0 109.5 L 179.0 109.5 L 179.0 109.5 L 179.0 109.5 " stroke="black" fill="none" stroke-width="5.0" stroke-linecap="round" stroke-linejoin="round" />
<path d="M 120.5 114.0 L 120.5 114.0 L 120.0 114.0 L 119.5 114.0 L 119.5 114.0 L 119.5 114.0 L 119.5 114.0 L 119.5 115.5 L 120.5 118.0 L 121.0 121.5 L 121.5 126.0 L 122.0 131.0 L 122.0 136.0 L 122.5 141.0 L 122.5 146.0 L 122.5 150.5 L 122.5 155.0 L 122.0 159.0 L 121.5 163.0 L 121.5 166.5 L 121.0 169.5 L 120.5 172.5 L 120.0 176.0 L 119.5 179.0 L 118.5 182.0 L 118.0 184.5 L 117.0 186.5 L 116.0 189.0 L 115.0 191.0 L 114.5 193.0 L 114.0 195.0 L 113.5 196.0 L 113.0 196.5 L 113.0 197.0 L 113.0 197.0 L 113.0 197.5 L 113.0 197.5 L 113.0 197.5 L 113.0 197.5 L 113.0 197.0 L 113.0 196.0 L 113.0 195.5 " stroke="black" fill="none" stroke-width="5.0" stroke-linecap="round" stroke-linejoin="round" />
<path d="M 137.0 120.5 L 137.5 120.5 L 138.0 120.5 L 138.0 120.5 L 138.5 120.5 L 139.0 120.0 L 139.0 120.0 L 139.5 119.5 L 139.5 119.5 L 139.5 119.5 L 139.5 119.5 L 139.0 120.0 L 137.5 121.5 L 135.0 123.5 L 132.5 126.0 L 130.5 127.5 L 129.5 128.5 L 129.5 128.5 L 129.5 128.5 " stroke="black" fill="none" stroke-width="5.0" stroke-linecap="round" stroke-linejoin="round" />
<path d="M 134.5 125.5 L 134.5 125.5 L 135.0 125.0 L 135.0 125.0 L 135.0 125.0 L 135.5 125.0 L 136.0 126.5 L 136.0 129.0 L 136.5 133.5 L 137.0 138.5 L 137.0 142.5 L 137.0 145.0 L 137.0 145.0 L 137.0 144.5 " stroke="black" fill="none" stroke-width="5.0" stroke-linecap="round" stroke-linejoin="round" />
<path d="M 152.5 118.0 L 152.5 117.5 L 153.0 117.0 L 153.0 116.0 L 153.5 116.0 L 153.5 115.5 L 153.5 115.5 L 153.5 115.5 L 153.5 117.0 L 152.0 119.0 L 150.5 121.0 L 149.0 122.5 L 147.5 124.5 L 146.0 125.5 L 145.0 126.0 L 145.0 126.5 L 145.5 126.5 " stroke="black" fill="none" stroke-width="5.0" stroke-linecap="round" stroke-linejoin="round" />
<path d="M 150.0 124.0 L 150.0 124.0 L 150.0 124.0 L 150.0 124.0 L 150.0 124.0 L 150.0 124.5 L 150.0 125.5 L 150.0 129.0 L 150.0 134.0 L 150.0 139.5 L 150.0 143.0 L 150.0 144.0 L 150.0 144.5 L 150.5 144.0 " stroke="black" fill="none" stroke-width="5.0" stroke-linecap="round" stroke-linejoin="round" />
<path d="M 165.5 117.5 L 165.5 117.0 L 165.0 116.5 L 165.0 116.5 L 164.5 116.0 L 164.5 116.0 L 164.5 117.0 L 165.0 118.5 L 165.5 119.5 L 166.0 121.0 L 166.5 121.5 " stroke="black" fill="none" stroke-width="5.0" stroke-linecap="round" stroke-linejoin="round" />
<path d="M 160.0 125.5 L 160.0 125.5 L 160.0 125.5 L 160.0 125.5 L 160.5 125.0 L 161.5 125.0 L 163.5 124.5 L 166.0 124.0 L 169.0 124.0 L 171.5 124.0 L 173.0 124.5 " stroke="black" fill="none" stroke-width="5.0" stroke-linecap="round" stroke-linejoin="round" />
<path d="M 161.5 132.0 L 161.0 132.0 L 161.0 132.0 L 160.5 132.5 L 160.5 132.5 L 161.5 132.5 L 163.5 132.0 L 166.0 131.5 L 168.0 131.0 L 170.0 131.0 L 171.0 131.0 " stroke="black" fill="none" stroke-width="5.0" stroke-linecap="round" stroke-linejoin="round" />
<path d="M 161.5 140.0 L 161.5 140.0 L 161.0 141.0 L 160.5 141.0 L 160.5 141.0 L 163.0 141.0 L 166.0 140.5 L 169.0 140.0 L 171.0 140.0 L 172.5 140.0 " stroke="black" fill="none" stroke-width="5.0" stroke-linecap="round" stroke-linejoin="round" />
<path d="M 168.0 128.0 L 167.0 127.5 L 166.5 127.5 L 166.0 127.5 L 166.0 127.5 L 166.0 128.5 L 166.0 131.0 L 166.0 136.0 L 166.5 140.5 L 166.5 144.0 L 167.0 145.5 L 167.0 146.0 " stroke="black" fill="none" stroke-width="5.0" stroke-linecap="round" stroke-linejoin="round" />
<path d="M 159.0 148.5 L 159.0 148.5 L 159.0 148.5 L 159.0 148.5 L 159.0 148.5 L 160.5 148.0 L 163.0 148.0 L 166.5 148.0 L 170.5 148.5 L 173.0 148.5 L 174.0 148.5 " stroke="black" fill="none" stroke-width="5.0" stroke-linecap="round" stroke-linejoin="round" />
<path d="M 149.0 152.5 L 149.0 152.5 L 149.0 152.5 L 149.0 152.5 L 149.0 152.5 L 149.0 152.5 L 149.0 152.5 L 148.0 154.0 L 147.5 155.5 L 147.5 155.5 " stroke="black" fill="none" stroke-width="5.0" stroke-linecap="round" stroke-linejoin="round" />
<path d="M 131.0 158.5 L 131.0 158.5 L 131.0 159.0 L 131.0 159.0 L 131.0 159.0 L 131.0 159.0 L 132.0 159.0 L 134.0 158.5 L 136.5 158.0 L 140.5 158.0 L 146.0 157.5 L 151.5 157.0 L 156.5 156.5 L 161.0 156.5 L 164.5 156.5 L 167.5 157.0 L 170.5 157.0 L 173.0 157.0 L 175.0 156.0 L 176.0 155.5 L 176.5 155.5 L 176.5 155.5 L 176.5 155.5 L 176.5 155.5 L 176.5 155.5 L 176.0 155.5 L 176.0 155.5 L 176.0 155.5 L 176.0 155.5 L 176.0 155.5 L 176.0 156.0 L 175.5 156.5 L 175.5 157.5 L 175.0 159.5 L 174.5 162.0 L 174.0 164.5 L 174.0 166.5 L 174.0 168.0 L 174.0 168.5 L 174.0 168.5 L 174.0 168.5 " stroke="black" fill="none" stroke-width="5.0" stroke-linecap="round" stroke-linejoin="round" />
<path d="M 135.0 166.5 L 135.0 166.5 L 135.0 166.5 L 135.5 166.0 L 136.0 166.0 L 136.0 166.0 L 137.0 165.5 L 138.5 165.5 L 141.5 165.5 L 147.0 165.0 L 154.0 164.5 L 161.0 163.5 L 167.0 163.0 L 171.0 163.0 L 172.0 163.5 L 172.5 163.5 L 172.5 163.5 L 172.5 163.5 L 172.5 163.5 " stroke="black" fill="none" stroke-width="5.0" stroke-linecap="round" stroke-linejoin="round" />
<path d="M 133.0 172.0 L 133.0 172.0 L 133.0 172.5 L 133.0 172.5 L 133.0 173.0 L 133.0 173.0 L 133.0 173.0 L 133.5 173.0 L 134.0 173.0 L 135.5 173.0 L 138.5 172.5 L 142.5 172.0 L 147.5 171.0 L 153.0 170.0 L 157.0 169.5 L 160.0 169.5 L 162.5 169.5 L 164.5 170.0 L 166.5 170.5 L 168.5 170.5 L 170.5 170.0 L 172.0 169.5 L 173.5 169.5 L 174.5 169.0 L 176.0 169.0 L 177.0 169.0 L 177.5 169.0 L 177.5 168.5 L 177.5 168.5 L 177.5 168.5 L 176.5 168.5 " stroke="black" fill="none" stroke-width="5.0" stroke-linecap="round" stroke-linejoin="round" />
<path d="M 130.5 157.0 L 130.5 157.0 L 130.5 157.0 L 130.5 157.0 L 131.0 157.0 L 131.0 157.0 L 131.0 156.5 L 131.0 156.5 L 131.5 156.5 L 131.5 156.5 L 131.5 156.5 L 131.5 157.5 L 131.5 159.0 L 131.5 161.5 L 131.5 164.0 L 131.5 166.5 L 131.5 169.0 L 131.5 171.0 L 131.5 173.0 L 131.5 174.5 L 131.5 176.0 L 131.5 177.5 L 131.5 179.0 L 131.5 180.0 L 131.5 180.5 L 131.5 181.5 L 131.5 182.0 L 131.5 182.5 L 131.5 183.0 L 131.5 183.0 L 131.5 184.0 L 131.5 184.5 L 131.5 184.5 L 131.5 185.0 L 131.5 185.0 L 132.0 185.0 L 132.0 185.0 L 132.0 185.5 L 132.5 185.5 L 132.5 186.0 L 132.5 186.0 L 133.0 186.0 L 133.0 186.0 L 133.5 186.0 L 133.5 186.0 L 134.0 186.0 L 134.0 186.0 L 134.0 186.0 L 134.0 186.0 L 134.5 186.0 L 134.5 186.0 L 134.5 186.0 L 135.0 186.0 L 135.5 185.5 L 136.5 185.5 L 138.0 185.5 L 140.0 185.0 L 143.0 185.0 L 146.0 185.0 L 149.0 184.5 L 151.5 184.5 L 153.5 184.5 L 155.0 184.5 L 156.0 184.5 L 157.0 184.5 L 158.0 184.5 L 159.5 184.5 L 161.5 184.5 L 164.0 184.5 L 166.5 184.0 L 168.5 184.0 L 170.5 184.0 L 172.0 184.0 L 174.0 184.0 L 175.0 184.0 L 176.5 184.0 L 178.0 183.5 L 179.0 183.5 L 180.0 183.5 L 181.0 183.5 L 182.0 183.5 L 183.0 183.0 L 184.0 183.0 L 184.5 183.0 L 185.0 183.0 L 185.5 183.0 L 185.5 183.0 L 185.5 183.0 L 185.5 183.0 L 185.5 183.0 L 185.5 183.0 L 185.5 183.0 L 185.5 183.0 L 185.5 183.0 L 185.5 183.5 L 185.5 184.0 L 185.5 184.5 L 185.5 186.0 L 185.5 188.0 L 185.5 190.5 L 185.5 193.5 L 185.5 196.0 L 185.5 198.0 L 185.5 199.5 L 185.5 201.5 L 185.5 203.0 L 185.5 204.5 L 185.5 205.5 L 185.5 206.0 L 185.5 206.0 L 185.0 206.0 L 184.0 206.0 L 182.5 206.0 L 180.5 205.0 L 179.0 203.5 L 178.0 202.0 " stroke="black" fill="none" stroke-width="5.0" stroke-linecap="round" stroke-linejoin="round" />
<path d="M 133.5 179.0 L 133.5 179.0 L 133.5 179.0 L 134.0 179.0 L 134.0 179.0 L 134.5 179.0 L 134.5 179.0 L 135.0 179.0 L 135.0 179.0 L 136.0 179.0 L 136.5 179.0 L 137.0 179.0 L 138.0 179.0 L 139.0 178.5 L 139.5 178.5 L 140.5 178.5 L 141.0 178.5 L 141.5 178.5 L 142.0 178.5 L 142.0 178.5 L 142.5 178.5 L 144.0 178.0 L 145.0 178.0 L 147.0 178.0 L 148.0 178.0 L 149.0 178.0 L 149.5 178.0 L 150.0 178.0 L 150.0 178.0 L 150.5 178.0 L 151.5 178.0 L 153.0 177.5 L 154.5 177.5 L 156.0 177.5 L 157.0 177.5 L 158.0 177.5 L 159.0 177.5 L 159.5 177.5 L 159.5 177.5 L 159.5 177.5 L 159.5 177.5 L 160.5 177.5 L 161.5 177.5 L 163.5 177.0 L 165.5 177.0 L 167.0 176.5 L 168.0 176.5 L 168.5 176.5 L 168.5 176.5 L 169.0 176.5 L 170.0 176.0 L 171.0 176.0 L 172.0 176.0 L 172.5 176.0 L 173.5 176.0 L 174.0 176.0 L 174.5 176.0 L 175.0 176.0 L 176.0 176.0 L 177.0 176.0 L 177.5 175.5 L 178.5 175.5 L 179.5 175.5 L 180.0 175.5 L 180.5 175.5 L 181.5 175.5 L 182.0 175.5 L 183.0 175.0 L 184.0 175.0 L 184.5 175.0 L 185.0 175.0 L 185.5 175.0 L 185.5 175.0 L 185.5 175.0 L 185.5 175.0 L 185.5 174.5 L 185.5 174.5 L 185.5 174.5 L 185.5 174.5 L 185.5 174.5 L 185.5 174.5 L 185.5 174.5 " stroke="black" fill="none" stroke-width="5.0" stroke-linecap="round" stroke-linejoin="round" />
<path d="M 128.5 196.0 L 128.5 196.0 L 129.0 196.0 L 129.0 196.0 L 129.5 196.0 L 130.0 196.0 L 130.0 195.5 L 130.0 195.5 L 130.0 196.0 L 129.5 197.0 L 129.0 199.0 L 128.5 200.0 " stroke="black" fill="none" stroke-width="5.0" stroke-linecap="round" stroke-linejoin="round" />
<path d="M 140.0 195.0 L 140.0 195.0 L 140.0 195.0 L 140.0 195.0 L 140.0 195.0 L 140.0 195.5 L 140.5 196.0 L 140.5 197.0 L 141.0 198.5 L 141.5 200.0 " stroke="black" fill="none" stroke-width="5.0" stroke-linecap="round" stroke-linejoin="round" />
<path d="M 155.0 194.0 L 155.0 194.0 L 155.0 193.5 L 155.0 193.5 L 155.0 193.0 L 155.0 193.0 L 155.0 193.0 L 156.0 194.5 L 156.5 196.5 L 157.5 198.0 L 158.0 198.0 " stroke="black" fill="none" stroke-width="5.0" stroke-linecap="round" stroke-linejoin="round" />
<path d="M 170.0 194.0 L 170.0 194.0 L 169.5 194.0 L 169.5 194.0 L 170.0 194.0 L 171.0 194.0 L 172.0 194.5 L 173.0 195.0 " stroke="black" fill="none" stroke-width="5.0" stroke-linecap="round" stroke-linejoin="round" />
</svg>