<svg xmlns="http://www.w3.org/2000/svg" width="300" height="300" viewBox="0 0 300 300">
<path d="M 145.5 117.0 L 145.0 117.0 L 144.0 116.5 L 144.0 116.5 L 144.0 116.5 L 145.5 117.5 L 147.5 119.5 L 149.5 121.0 L 151.0 122.5 L 152.5 123.0 L 153.0 123.5 " stroke="black" fill="none" stroke-width="6.0" stroke-linecap="round" stroke-linejoin="round" />
<path d="M 126.5 129.5 L 125.5 130.5 L 125.0 131.0 L 125.0 131.0 L 127.0 131.0 L 131.0 131.5 L 136.5 131.5 L 145.0 131.5 L 151.5 131.0 L 161.5 130.0 L 166.5 130.0 L 169.5 130.0 L 170.5 130.0 L 170.5 130.0 L 170.5 130.0 L 171.0 130.0 L 171.5 130.0 L 172.0 130.0 L 172.0 130.0 L 172.5 130.0 L 172.5 130.0 L 172.5 130.0 L 172.5 130.0 L 172.5 130.0 L 172.5 130.0 L 172.5 130.0 L 172.5 130.0 L 172.5 130.0 L 172.5 130.0 L 172.5 130.0 L 172.5 130.0 L 172.5 130.0 L 172.5 130.0 L 172.5 130.0 L 172.5 130.0 L 172.5 130.0 L 172.5 130.0 L 172.5 130.0 L 172.5 130.0 L 172.5 130.0 L 172.5 130.0 " stroke="black" fill="none" stroke-width="6.0" stroke-linecap="round" stroke-linejoin="round" />
<path d="M 139.0 140.5 L 139.0 140.5 L 139.0 140.0 L 139.0 139.5 L 138.5 139.0 L 138.0 139.5 L 136.0 142.0 L 132.0 145.5 L 128.0 149.5 L 124.5 152.5 L 123.0 153.5 L 123.5 153.0 " stroke="black" fill="none" stroke-width="6.0" stroke-linecap="round" stroke-linejoin="round" />
<path d="M 156.0 143.0 L 156.0 142.5 L 156.0 142.0 L 156.0 142.0 L 156.5 142.5 L 158.0 144.5 L 160.5 146.0 L 163.5 147.5 L 166.0 148.5 L 168.5 149.0 L 170.5 150.0 L 171.0 150.0 " stroke="black" fill="none" stroke-width="6.0" stroke-linecap="round" stroke-linejoin="round" />
<path d="M 160.5 150.0 L 161.0 150.5 L 161.0 150.5 L 161.0 151.0 L 161.0 151.0 L 161.0 151.0 L 160.0 152.5 L 158.5 154.5 L 155.5 159.0 L 150.0 165.5 L 143.0 172.5 L 135.0 179.5 L 129.0 184.0 L 125.0 185.5 L 124.0 185.5 L 124.0 184.5 L 124.0 183.0 L 124.0 182.0 " stroke="black" fill="none" stroke-width="6.0" stroke-linecap="round" stroke-linejoin="round" />
<path d="M 135.5 150.0 L 135.5 150.0 L 135.0 150.0 L 135.0 150.0 L 134.5 150.5 L 134.5 151.0 L 135.5 154.0 L 139.5 160.5 L 145.5 169.5 L 152.0 176.5 L 157.5 180.5 L 161.5 183.0 L 165.0 184.0 L 168.0 185.0 L 169.5 186.0 L 170.0 186.5 L 171.0 187.0 L 171.0 187.0 " stroke="black" fill="none" stroke-width="6.0" stroke-linecap="round" stroke-linejoin="round" />
</svg>