<svg xmlns="http://www.w3.org/2000/svg" width="300" height="300" viewBox="0 0 300 300">
<path d="M 129.5 102.0 L 130.0 100.5 L 130.5 99.0 L 131.0 98.0 L 131.0 97.5 L 131.0 97.5 L 130.5 99.5 L 129.5 103.0 L 128.5 106.0 L 128.0 108.0 " stroke="black" fill="none" stroke-width="6.0" stroke-linecap="round" stroke-linejoin="round" />
<path d="M 120.5 115.0 L 120.0 115.0 L 119.0 115.5 L 118.5 116.0 L 121.0 115.5 L 123.0 114.5 L 130.0 111.5 L 134.0 109.5 L 136.0 108.5 L 137.0 108.5 L 137.5 110.0 L 137.5 112.0 L 137.5 115.5 L 137.0 119.5 L 136.5 122.5 L 135.5 124.0 L 135.0 124.5 " stroke="black" fill="none" stroke-width="6.0" stroke-linecap="round" stroke-linejoin="round" />
<path d="M 124.0 126.0 L 122.5 126.5 L 122.0 126.5 L 122.5 126.5 L 125.5 126.5 L 129.0 125.5 L 132.0 125.0 L 133.0 124.0 " stroke="black" fill="none" stroke-width="6.0" stroke-linecap="round" stroke-linejoin="round" />
<path d="M 121.5 116.0 L 121.5 116.5 L 120.5 117.0 L 120.5 118.5 L 121.0 122.0 L 122.0 129.0 L 122.0 138.0 L 122.0 145.5 L 122.0 147.5 L 122.5 147.0 " stroke="black" fill="none" stroke-width="6.0" stroke-linecap="round" stroke-linejoin="round" />
<path d="M 124.5 140.0 L 123.0 140.0 L 123.0 140.0 L 124.0 139.0 L 127.5 137.5 L 131.5 135.0 L 134.5 133.5 L 137.0 133.0 L 138.0 134.0 L 138.0 136.0 L 138.0 138.5 L 137.5 141.5 L 136.5 144.0 L 135.0 146.0 " stroke="black" fill="none" stroke-width="6.0" stroke-linecap="round" stroke-linejoin="round" />
<path d="M 124.5 149.0 L 124.0 149.0 L 123.5 149.0 L 124.0 149.0 L 127.0 149.0 L 131.0 148.5 L 135.0 147.5 L 136.0 147.5 " stroke="black" fill="none" stroke-width="6.0" stroke-linecap="round" stroke-linejoin="round" />
<path d="M 131.0 158.5 L 131.0 158.5 L 131.5 158.0 L 132.0 157.5 L 132.0 158.0 L 132.5 161.5 L 132.5 167.0 L 132.5 173.0 L 132.5 177.0 L 132.5 177.5 " stroke="black" fill="none" stroke-width="6.0" stroke-linecap="round" stroke-linejoin="round" />
<path d="M 132.0 171.0 L 133.0 171.0 L 134.0 171.0 L 135.5 171.0 L 138.0 170.0 L 139.5 168.5 L 140.5 167.5 " stroke="black" fill="none" stroke-width="6.0" stroke-linecap="round" stroke-linejoin="round" />
<path d="M 124.5 165.0 L 124.0 165.0 L 123.0 165.0 L 123.0 165.0 L 124.0 167.5 L 125.5 172.0 L 126.0 178.0 L 126.5 182.5 L 126.5 185.5 " stroke="black" fill="none" stroke-width="6.0" stroke-linecap="round" stroke-linejoin="round" />
<path d="M 120.5 190.5 L 120.5 190.5 L 120.5 190.5 L 121.0 190.5 L 122.0 190.5 L 125.5 189.0 L 131.0 186.0 L 136.5 181.0 L 139.0 178.0 " stroke="black" fill="none" stroke-width="6.0" stroke-linecap="round" stroke-linejoin="round" />
<path d="M 151.0 110.5 L 150.5 112.0 L 150.5 112.5 L 150.5 112.5 L 153.5 112.0 L 158.0 110.0 L 163.0 108.0 L 166.5 107.0 L 168.5 107.5 L 169.0 109.5 L 169.0 113.0 L 168.5 117.0 L 168.0 120.0 L 167.5 122.5 L 167.0 123.5 " stroke="black" fill="none" stroke-width="6.0" stroke-linecap="round" stroke-linejoin="round" />
<path d="M 146.5 123.0 L 145.0 123.0 L 144.0 123.0 L 144.0 122.5 L 147.0 121.5 L 153.5 119.5 L 161.0 117.5 L 169.5 116.0 L 175.0 115.0 L 176.5 115.0 L 176.5 115.0 " stroke="black" fill="none" stroke-width="6.0" stroke-linecap="round" stroke-linejoin="round" />
<path d="M 152.0 129.0 L 152.0 130.0 L 152.0 131.0 L 152.0 131.0 L 154.5 131.0 L 160.0 129.0 L 165.5 127.0 L 170.0 125.5 L 171.5 124.5 " stroke="black" fill="none" stroke-width="6.0" stroke-linecap="round" stroke-linejoin="round" />
<path d="M 151.0 142.5 L 151.5 142.0 L 151.5 141.5 L 151.5 141.5 L 151.5 143.5 L 150.5 147.5 L 149.5 152.0 L 148.5 154.5 L 148.5 155.0 " stroke="black" fill="none" stroke-width="6.0" stroke-linecap="round" stroke-linejoin="round" />
<path d="M 151.0 145.0 L 151.0 144.0 L 151.0 143.5 L 152.5 143.0 L 156.5 142.0 L 164.5 140.5 L 172.5 140.0 L 177.0 140.0 L 179.5 140.0 L 179.5 140.5 L 179.5 141.5 L 178.5 143.0 L 178.0 145.5 L 177.5 148.0 L 177.0 149.5 L 176.5 150.0 " stroke="black" fill="none" stroke-width="6.0" stroke-linecap="round" stroke-linejoin="round" />
<path d="M 155.5 157.5 L 156.5 157.5 L 157.0 158.5 L 157.0 161.0 L 157.5 166.5 L 157.5 173.0 L 158.0 175.5 L 158.0 175.5 " stroke="black" fill="none" stroke-width="6.0" stroke-linecap="round" stroke-linejoin="round" />
<path d="M 157.0 160.0 L 157.0 160.0 L 157.0 160.0 L 158.5 160.0 L 162.0 158.5 L 167.0 157.0 L 170.5 156.5 L 173.0 156.5 L 174.0 156.5 L 175.0 158.5 L 176.0 161.5 L 177.0 166.0 L 177.5 172.0 L 177.5 176.0 L 177.0 179.0 L 175.5 179.5 L 173.5 178.0 L 171.5 175.0 " stroke="black" fill="none" stroke-width="6.0" stroke-linecap="round" stroke-linejoin="round" />
<path d="M 165.5 143.0 L 164.5 143.0 L 163.5 142.5 L 163.5 144.0 L 164.0 149.5 L 165.5 160.5 L 166.5 176.0 L 166.5 187.5 L 167.0 190.5 " stroke="black" fill="none" stroke-width="6.0" stroke-linecap="round" stroke-linejoin="round" />
</svg>