<svg xmlns="http://www.w3.org/2000/svg" width="300" height="300" viewBox="0 0 300 300">
<path d="M 132.5 110.5 L 132.5 110.0 L 133.0 109.5 L 133.0 109.0 L 133.0 108.5 L 133.0 108.5 L 133.0 108.5 L 133.0 110.0 L 132.5 112.5 L 132.0 115.5 L 131.5 117.0 " stroke="black" fill="none" stroke-width="6.0" stroke-linecap="round" stroke-linejoin="round" />
<path d="M 126.5 122.0 L 125.5 122.0 L 125.0 121.5 L 125.0 121.5 L 127.5 121.5 L 131.5 121.0 L 136.0 120.5 L 140.0 119.5 L 142.5 119.5 L 143.5 119.5 L 143.5 120.5 L 142.5 122.5 L 141.5 125.5 L 140.5 129.0 L 140.0 131.0 L 139.5 133.0 L 139.5 133.5 " stroke="black" fill="none" stroke-width="6.0" stroke-linecap="round" stroke-linejoin="round" />
<path d="M 129.0 135.5 L 129.0 136.0 L 128.5 137.0 L 128.5 137.0 L 130.0 137.0 L 133.0 135.5 L 136.0 134.0 L 137.5 132.5 " stroke="black" fill="none" stroke-width="6.0" stroke-linecap="round" stroke-linejoin="round" />
<path d="M 126.0 122.0 L 125.0 122.0 L 124.5 121.5 L 124.5 122.0 L 125.0 125.5 L 125.0 131.0 L 123.5 139.0 L 122.0 145.5 L 122.0 149.0 L 122.5 149.5 " stroke="black" fill="none" stroke-width="6.0" stroke-linecap="round" stroke-linejoin="round" />
<path d="M 126.5 145.5 L 125.0 145.5 L 124.5 145.5 L 124.5 145.5 L 126.0 145.5 L 128.5 145.5 L 132.0 145.5 L 136.0 145.5 L 141.0 145.0 L 144.5 144.5 L 146.0 144.0 L 146.0 144.0 L 144.0 147.5 L 143.0 149.0 L 142.5 150.5 L 142.0 152.0 L 141.5 153.0 L 141.0 154.0 " stroke="black" fill="none" stroke-width="6.0" stroke-linecap="round" stroke-linejoin="round" />
<path d="M 128.0 154.5 L 127.0 155.0 L 126.5 155.0 L 127.0 155.0 L 129.5 155.0 L 133.0 154.5 L 137.0 154.0 L 141.0 153.0 L 143.0 152.0 " stroke="black" fill="none" stroke-width="6.0" stroke-linecap="round" stroke-linejoin="round" />
<path d="M 135.0 162.0 L 135.0 162.0 L 135.5 162.0 L 135.5 162.5 L 135.5 164.5 L 136.0 168.0 L 136.0 171.5 L 136.0 174.5 L 136.0 176.0 " stroke="black" fill="none" stroke-width="6.0" stroke-linecap="round" stroke-linejoin="round" />
<path d="M 136.5 171.0 L 137.0 171.0 L 137.0 171.0 L 138.5 170.5 L 140.5 170.0 L 142.5 169.5 L 142.5 169.5 " stroke="black" fill="none" stroke-width="6.0" stroke-linecap="round" stroke-linejoin="round" />
<path d="M 127.5 168.5 L 126.5 168.0 L 126.0 167.0 L 126.0 167.0 L 126.0 168.0 L 126.0 172.0 L 126.0 177.0 L 125.5 181.5 L 125.5 184.5 L 125.5 185.5 " stroke="black" fill="none" stroke-width="6.0" stroke-linecap="round" stroke-linejoin="round" />
<path d="M 124.5 188.5 L 124.0 188.5 L 123.0 188.0 L 123.0 187.5 L 123.5 187.0 L 127.0 186.0 L 131.5 184.0 L 137.5 181.5 L 143.5 178.5 L 146.5 177.0 L 147.0 176.5 L 147.0 177.0 " stroke="black" fill="none" stroke-width="6.0" stroke-linecap="round" stroke-linejoin="round" />
<path d="M 156.5 108.0 L 157.0 108.0 L 157.0 108.5 L 157.0 108.5 L 156.5 108.5 L 156.5 108.5 L 156.5 108.5 L 156.0 108.5 L 156.0 108.5 L 156.0 108.5 L 156.5 108.5 L 158.0 108.5 L 160.5 108.0 L 164.5 107.5 L 169.0 107.0 L 172.0 106.5 L 173.5 106.0 L 173.5 106.0 L 173.5 106.0 L 173.5 106.5 L 173.5 107.0 L 173.5 109.0 L 173.0 112.5 L 172.0 118.0 L 171.5 123.5 L 171.0 127.0 L 171.0 128.0 L 171.0 128.0 L 171.0 127.5 " stroke="black" fill="none" stroke-width="6.0" stroke-linecap="round" stroke-linejoin="round" />
<path d="M 154.0 119.5 L 154.0 119.5 L 154.0 119.5 L 154.0 120.0 L 154.0 120.0 L 155.5 120.0 L 159.0 120.0 L 164.5 119.5 L 170.0 119.0 L 175.0 118.0 L 177.5 117.5 L 178.5 117.5 L 177.5 117.5 L 176.5 117.5 " stroke="black" fill="none" stroke-width="6.0" stroke-linecap="round" stroke-linejoin="round" />
<path d="M 154.5 131.5 L 154.5 132.0 L 153.5 132.5 L 153.0 133.0 L 153.0 133.0 L 154.5 133.0 L 157.5 132.5 L 161.5 131.5 L 166.0 130.5 L 169.0 130.0 L 171.0 130.0 L 171.5 130.0 L 172.0 130.0 " stroke="black" fill="none" stroke-width="6.0" stroke-linecap="round" stroke-linejoin="round" />
<path d="M 154.5 144.0 L 155.0 144.0 L 155.5 143.5 L 155.5 143.5 L 155.5 143.5 L 155.5 145.0 L 155.5 147.0 L 155.0 149.0 L 154.5 151.0 L 154.5 151.5 " stroke="black" fill="none" stroke-width="6.0" stroke-linecap="round" stroke-linejoin="round" />
<path d="M 155.5 146.5 L 155.5 146.0 L 155.5 145.5 L 155.5 144.5 L 156.0 144.5 L 157.0 144.0 L 159.0 143.5 L 162.0 143.5 L 166.5 142.5 L 172.0 142.0 L 177.0 141.5 L 180.0 141.5 L 181.0 141.5 L 181.0 142.0 L 181.0 142.0 L 180.5 142.0 L 180.5 142.5 L 180.5 143.0 L 180.5 144.5 L 180.5 146.0 L 180.0 147.5 L 179.5 148.5 L 179.5 149.5 L 179.5 150.0 " stroke="black" fill="none" stroke-width="6.0" stroke-linecap="round" stroke-linejoin="round" />
<path d="M 160.0 159.0 L 160.5 159.0 L 161.0 159.0 L 161.0 159.0 L 161.0 159.5 L 161.0 163.0 L 161.0 168.0 L 161.0 172.5 L 161.0 173.0 L 161.5 172.5 " stroke="black" fill="none" stroke-width="6.0" stroke-linecap="round" stroke-linejoin="round" />
<path d="M 163.5 160.0 L 163.5 160.0 L 163.0 159.5 L 163.0 159.5 L 163.0 159.0 L 165.0 158.5 L 167.5 158.0 L 170.0 158.0 L 172.5 158.0 L 174.5 158.0 L 176.0 158.5 L 177.0 159.0 L 177.5 159.5 L 178.0 160.0 L 178.5 160.5 L 178.5 161.0 L 179.0 162.0 L 179.0 163.5 L 179.0 165.5 L 179.0 167.5 L 179.0 170.0 L 179.0 172.5 L 178.5 174.0 L 178.5 175.0 L 177.5 175.0 L 176.5 174.5 L 175.5 173.5 L 175.0 173.0 " stroke="black" fill="none" stroke-width="6.0" stroke-linecap="round" stroke-linejoin="round" />
<path d="M 168.5 146.0 L 167.5 146.0 L 167.0 146.0 L 167.0 146.5 L 167.0 148.0 L 167.0 151.5 L 167.5 156.5 L 168.0 162.5 L 168.5 169.5 L 168.5 176.5 L 169.5 182.0 L 169.5 185.0 L 170.0 185.5 L 170.0 185.5 L 170.0 184.5 " stroke="black" fill="none" stroke-width="6.0" stroke-linecap="round" stroke-linejoin="round" />
</svg>