<svg xmlns="http://www.w3.org/2000/svg" width="300" height="300" viewBox="0 0 300 300">
<path d="M 130.0 129.5 L 130.0 129.5 L 130.0 129.0 L 130.5 128.5 L 130.5 128.5 L 130.5 129.0 L 131.0 132.0 L 132.0 137.5 L 132.0 145.5 L 132.0 154.5 L 132.0 161.0 L 132.0 163.0 L 132.5 163.0 L 132.5 161.5 L 132.5 161.0 " stroke="black" fill="none" stroke-width="6.0" stroke-linecap="round" stroke-linejoin="round" />
<path d="M 130.5 125.0 L 130.5 124.5 L 130.0 124.0 L 130.0 123.5 L 130.5 123.5 L 132.5 124.0 L 136.0 124.5 L 141.0 125.5 L 148.0 125.5 L 155.5 125.5 L 162.0 125.5 L 167.5 125.5 L 170.5 125.5 L 171.0 125.5 L 171.0 125.5 L 171.0 125.5 L 170.5 125.5 L 170.5 125.5 L 170.5 125.5 L 170.5 125.5 L 170.5 125.5 L 170.5 126.0 L 170.5 127.0 L 170.5 129.5 L 170.5 133.5 L 170.0 140.0 L 169.5 147.0 L 169.0 153.5 L 168.5 158.0 L 168.5 160.0 L 168.5 161.5 L 168.5 162.0 L 168.5 163.5 L 168.5 164.0 " stroke="black" fill="none" stroke-width="6.0" stroke-linecap="round" stroke-linejoin="round" />
<path d="M 132.0 147.5 L 132.5 147.5 L 133.0 147.0 L 134.0 146.5 L 135.5 146.0 L 140.0 145.5 L 147.5 145.0 L 156.0 144.5 L 163.5 144.0 L 168.0 144.0 L 168.5 144.0 L 168.0 144.5 L 167.0 145.0 L 166.5 145.0 " stroke="black" fill="none" stroke-width="6.0" stroke-linecap="round" stroke-linejoin="round" />
<path d="M 134.0 165.0 L 134.0 165.5 L 134.0 165.5 L 134.0 166.0 L 134.5 166.0 L 135.5 166.0 L 138.0 166.0 L 143.0 165.0 L 149.5 164.0 L 156.0 163.0 L 161.5 162.5 L 165.5 162.5 L 167.0 162.5 " stroke="black" fill="none" stroke-width="6.0" stroke-linecap="round" stroke-linejoin="round" />
</svg>