<svg xmlns="http://www.w3.org/2000/svg" width="300" height="300" viewBox="0 0 300 300">
<path d="M 125.0 118.5 L 126.0 119.0 L 127.5 119.0 L 129.5 119.0 L 133.0 118.5 L 139.0 117.0 L 147.5 116.0 L 156.5 115.5 L 164.5 115.5 L 170.5 115.5 L 174.0 115.0 L 176.0 114.5 L 176.5 114.5 L 176.5 114.5 L 176.5 114.5 L 176.0 114.5 L 175.0 114.5 " stroke="black" fill="none" stroke-width="6.0" stroke-linecap="round" stroke-linejoin="round" />
<path d="M 127.5 123.5 L 127.5 123.0 L 127.5 122.5 L 127.5 121.5 L 127.5 121.0 L 128.0 121.0 L 129.0 122.0 L 130.0 127.0 L 130.0 138.0 L 127.5 156.0 L 123.5 172.5 L 120.0 181.0 L 117.5 185.5 L 116.0 186.0 L 116.0 185.0 L 115.5 183.0 " stroke="black" fill="none" stroke-width="6.0" stroke-linecap="round" stroke-linejoin="round" />
<path d="M 162.5 96.5 L 161.5 96.5 L 160.5 96.5 L 160.5 100.0 L 162.0 109.5 L 164.5 127.0 L 168.5 146.5 L 173.0 162.5 L 177.5 172.0 L 181.0 175.0 L 183.0 176.0 L 185.0 177.0 L 186.5 177.0 L 188.0 175.0 " stroke="black" fill="none" stroke-width="6.0" stroke-linecap="round" stroke-linejoin="round" />
<path d="M 178.0 143.5 L 178.0 143.5 L 178.5 143.5 L 178.5 143.5 L 178.5 144.5 L 176.5 149.0 L 172.5 158.0 L 168.5 165.5 L 167.0 167.5 L 167.0 167.0 " stroke="black" fill="none" stroke-width="6.0" stroke-linecap="round" stroke-linejoin="round" />
<path d="M 146.5 129.0 L 145.5 129.0 L 145.0 129.0 L 145.0 129.0 L 145.0 128.5 L 145.0 128.5 L 145.0 130.5 L 145.5 134.0 L 146.0 138.5 L 146.5 142.0 L 147.0 143.0 " stroke="black" fill="none" stroke-width="6.0" stroke-linecap="round" stroke-linejoin="round" />
<path d="M 149.0 135.0 L 148.5 135.5 L 147.5 135.5 L 147.5 135.5 L 148.5 135.5 L 150.5 135.5 L 152.5 135.5 L 154.5 135.5 L 155.0 135.5 " stroke="black" fill="none" stroke-width="6.0" stroke-linecap="round" stroke-linejoin="round" />
<path d="M 136.0 148.5 L 136.0 148.5 L 136.0 148.5 L 136.0 148.5 L 136.5 148.5 L 138.0 148.5 L 141.0 148.0 L 145.5 147.5 L 150.5 147.0 L 155.0 146.5 L 158.5 146.5 L 159.0 146.0 " stroke="black" fill="none" stroke-width="6.0" stroke-linecap="round" stroke-linejoin="round" />
<path d="M 146.5 149.0 L 146.5 149.0 L 146.5 149.0 L 146.5 149.0 L 146.5 149.5 L 147.0 150.0 L 147.5 153.0 L 148.5 159.0 L 149.0 167.5 L 149.5 175.0 L 149.5 179.0 L 149.5 180.0 L 149.5 180.0 L 148.5 179.0 L 147.0 177.5 L 146.0 175.0 L 146.0 174.5 " stroke="black" fill="none" stroke-width="6.0" stroke-linecap="round" stroke-linejoin="round" />
<path d="M 142.0 163.5 L 142.0 163.0 L 141.0 163.0 L 140.5 163.0 L 139.5 163.0 L 138.5 165.0 L 137.0 167.0 L 135.5 169.0 L 134.5 170.5 L 134.5 171.0 " stroke="black" fill="none" stroke-width="6.0" stroke-linecap="round" stroke-linejoin="round" />
<path d="M 157.0 159.5 L 157.5 159.5 L 157.5 160.0 L 158.0 160.0 L 159.0 160.5 L 160.5 161.5 L 162.0 162.0 L 162.0 162.0 " stroke="black" fill="none" stroke-width="6.0" stroke-linecap="round" stroke-linejoin="round" />
<path d="M 174.5 102.0 L 174.5 102.0 L 174.0 102.0 L 174.0 102.0 L 175.5 103.0 L 177.5 104.5 L 179.0 105.5 " stroke="black" fill="none" stroke-width="6.0" stroke-linecap="round" stroke-linejoin="round" />
</svg>