<svg xmlns="http://www.w3.org/2000/svg" width="300" height="300" viewBox="0 0 300 300">
<path d="M 127.5 118.5 L 127.0 118.5 L 126.5 118.5 L 127.0 118.0 L 130.5 117.5 L 138.0 117.5 L 149.0 117.0 L 160.0 116.0 L 168.5 115.0 L 173.5 114.5 L 174.5 114.0 L 174.0 114.0 " stroke="black" fill="none" stroke-width="6.0" stroke-linecap="round" stroke-linejoin="round" />
<path d="M 125.5 139.0 L 125.5 139.0 L 125.0 138.5 L 125.0 138.5 L 125.0 142.5 L 126.0 152.0 L 127.0 167.5 L 128.0 179.5 L 129.5 181.5 L 130.0 178.5 " stroke="black" fill="none" stroke-width="6.0" stroke-linecap="round" stroke-linejoin="round" />
<path d="M 132.5 140.5 L 132.5 140.0 L 131.0 139.5 L 130.5 139.0 L 131.0 138.0 L 134.0 137.0 L 140.0 136.0 L 148.5 134.5 L 157.5 134.5 L 167.0 135.5 L 173.0 137.5 L 176.0 140.0 L 177.0 142.5 L 178.0 144.5 L 178.5 147.5 L 179.5 151.0 L 180.0 156.0 L 180.5 162.0 L 180.5 170.0 L 179.0 177.5 L 176.5 184.5 L 174.5 190.0 L 173.0 192.5 L 171.5 191.5 L 168.5 187.5 L 165.5 182.5 " stroke="black" fill="none" stroke-width="6.0" stroke-linecap="round" stroke-linejoin="round" />
<path d="M 151.0 121.0 L 151.0 120.5 L 151.5 120.5 L 152.0 120.5 L 152.0 122.5 L 152.5 130.0 L 152.5 143.0 L 152.0 158.5 L 151.5 169.0 L 152.0 174.0 L 152.5 176.0 L 152.5 176.0 " stroke="black" fill="none" stroke-width="6.0" stroke-linecap="round" stroke-linejoin="round" />
<path d="M 138.0 152.5 L 138.0 153.0 L 138.0 153.0 L 138.0 154.0 L 139.5 155.0 L 141.0 156.5 L 142.0 158.0 L 142.5 158.5 " stroke="black" fill="none" stroke-width="6.0" stroke-linecap="round" stroke-linejoin="round" />
<path d="M 134.5 168.0 L 134.5 167.5 L 135.0 167.5 L 135.0 167.5 L 136.5 167.0 L 138.5 167.0 L 140.0 166.5 " stroke="black" fill="none" stroke-width="6.0" stroke-linecap="round" stroke-linejoin="round" />
<path d="M 168.0 149.5 L 168.0 149.5 L 168.0 149.5 L 168.0 150.0 L 168.0 150.5 L 167.5 151.0 L 167.0 152.5 L 166.5 155.0 " stroke="black" fill="none" stroke-width="6.0" stroke-linecap="round" stroke-linejoin="round" />
<path d="M 161.0 164.0 L 161.0 164.5 L 161.0 165.0 L 162.0 165.5 L 164.5 167.0 L 168.5 168.5 L 173.0 169.5 L 176.0 171.0 " stroke="black" fill="none" stroke-width="6.0" stroke-linecap="round" stroke-linejoin="round" />
</svg>