<svg xmlns="http://www.w3.org/2000/svg" width="300" height="300" viewBox="0 0 300 300">
<path d="M 138.5 120.5 L 138.5 120.5 L 138.0 120.0 L 138.0 120.0 L 139.5 120.0 L 144.5 120.0 L 152.0 119.5 L 159.0 119.0 L 162.5 118.5 L 163.5 118.5 L 163.0 119.5 " stroke="black" fill="none" stroke-width="6.0" stroke-linecap="round" stroke-linejoin="round" />
<path d="M 125.0 147.0 L 125.0 147.0 L 125.0 147.0 L 125.0 147.0 L 126.0 147.0 L 128.0 147.0 L 132.5 147.0 L 141.5 147.5 L 153.5 147.5 L 165.0 147.0 L 173.0 147.0 L 177.0 147.0 L 177.5 147.0 L 177.0 147.0 L 175.0 147.0 L 174.5 147.0 " stroke="black" fill="none" stroke-width="6.0" stroke-linecap="round" stroke-linejoin="round" />
<path d="M 152.5 107.0 L 152.5 107.0 L 152.5 107.0 L 152.5 107.0 L 152.5 107.0 L 152.5 107.0 L 152.5 111.0 L 152.0 120.5 L 151.5 132.5 L 151.5 142.5 L 151.5 150.0 L 152.0 156.0 L 152.0 162.5 L 152.0 169.0 L 151.5 174.5 L 151.5 178.0 L 151.5 180.0 L 151.5 181.5 L 151.5 183.0 L 151.5 184.5 L 151.5 185.5 L 151.5 186.5 L 151.5 188.0 L 151.5 189.0 L 151.5 189.5 L 151.5 189.5 L 151.5 189.5 L 151.5 189.5 L 151.5 189.5 L 151.5 188.5 L 152.0 188.0 " stroke="black" fill="none" stroke-width="6.0" stroke-linecap="round" stroke-linejoin="round" />
<path d="M 147.0 151.0 L 147.5 151.0 L 148.0 151.0 L 148.5 151.0 L 148.5 151.0 L 149.0 151.0 L 149.5 152.0 L 149.0 154.0 L 147.0 158.5 L 143.0 165.0 L 137.5 170.5 L 132.5 175.5 L 129.5 178.5 L 128.0 179.0 L 128.0 178.5 " stroke="black" fill="none" stroke-width="6.0" stroke-linecap="round" stroke-linejoin="round" />
<path d="M 152.0 154.0 L 152.0 154.0 L 152.0 154.0 L 152.0 154.0 L 152.0 154.0 L 155.0 157.5 L 163.0 167.0 L 171.5 178.0 L 176.5 183.5 L 179.0 186.0 L 179.0 186.0 " stroke="black" fill="none" stroke-width="6.0" stroke-linecap="round" stroke-linejoin="round" />
</svg>