<svg xmlns="http://www.w3.org/2000/svg" width="300" height="300" viewBox="0 0 300 300">
<path d="M 124.5 128.5 L 123.0 130.0 L 122.0 130.5 L 122.0 130.5 L 125.5 128.5 L 131.5 124.5 L 137.5 120.5 L 142.0 118.0 L 144.5 117.5 L 144.5 117.5 L 144.5 118.5 L 144.0 118.5 " stroke="black" fill="none" stroke-width="6.0" stroke-linecap="round" stroke-linejoin="round" />
<path d="M 123.5 146.0 L 122.5 146.0 L 120.5 146.0 L 120.5 146.0 L 122.5 145.5 L 128.0 144.0 L 134.5 142.0 L 140.5 140.5 L 144.5 140.0 L 146.0 140.0 " stroke="black" fill="none" stroke-width="6.0" stroke-linecap="round" stroke-linejoin="round" />
<path d="M 135.5 127.0 L 136.0 126.5 L 136.5 126.0 L 136.5 126.0 L 136.5 128.0 L 136.5 135.0 L 136.5 148.0 L 136.0 162.5 L 136.0 175.0 L 136.5 183.5 L 137.5 188.5 L 138.0 189.0 L 137.5 185.5 L 137.0 182.5 " stroke="black" fill="none" stroke-width="6.0" stroke-linecap="round" stroke-linejoin="round" />
<path d="M 134.5 149.0 L 135.0 148.5 L 135.5 147.5 L 136.0 147.0 L 136.0 147.0 L 135.0 149.5 L 132.5 156.0 L 128.0 164.0 L 123.5 171.0 L 122.0 173.0 L 121.5 173.0 L 122.5 172.0 " stroke="black" fill="none" stroke-width="6.0" stroke-linecap="round" stroke-linejoin="round" />
<path d="M 136.0 153.0 L 136.5 153.0 L 138.0 152.5 L 140.5 152.5 L 144.0 154.0 L 147.5 156.0 L 150.0 158.5 L 150.5 158.5 " stroke="black" fill="none" stroke-width="6.0" stroke-linecap="round" stroke-linejoin="round" />
<path d="M 164.0 120.5 L 164.0 120.0 L 164.5 119.5 L 164.5 119.0 L 164.5 119.0 L 164.0 122.0 L 161.5 127.5 L 158.0 134.0 L 156.0 138.5 L 155.0 139.5 L 155.0 139.5 " stroke="black" fill="none" stroke-width="6.0" stroke-linecap="round" stroke-linejoin="round" />
<path d="M 172.5 126.0 L 172.5 126.0 L 172.5 126.0 L 173.0 126.0 L 174.0 127.0 L 177.5 130.0 L 181.5 134.0 L 184.0 136.5 L 185.5 138.0 L 186.0 138.0 " stroke="black" fill="none" stroke-width="6.0" stroke-linecap="round" stroke-linejoin="round" />
<path d="M 164.0 141.5 L 163.5 140.5 L 163.0 139.5 L 162.5 139.5 L 162.5 140.5 L 163.0 144.5 L 164.0 149.5 L 164.5 153.0 L 165.0 154.5 L 165.0 154.5 " stroke="black" fill="none" stroke-width="6.0" stroke-linecap="round" stroke-linejoin="round" />
<path d="M 164.5 142.0 L 164.5 141.5 L 164.0 141.0 L 164.5 140.0 L 166.5 139.5 L 169.0 139.0 L 171.5 139.0 L 173.5 140.0 L 175.0 141.5 L 176.0 143.5 L 176.5 145.5 L 176.5 148.5 L 175.5 151.0 L 174.0 153.0 " stroke="black" fill="none" stroke-width="6.0" stroke-linecap="round" stroke-linejoin="round" />
<path d="M 167.0 157.0 L 166.5 157.0 L 166.0 157.5 L 166.5 157.5 L 169.0 157.0 L 172.0 156.5 L 173.5 156.0 L 174.5 155.5 " stroke="black" fill="none" stroke-width="6.0" stroke-linecap="round" stroke-linejoin="round" />
<path d="M 168.0 160.5 L 168.0 159.5 L 168.0 158.5 L 168.0 158.0 L 168.0 158.0 L 167.5 160.0 L 165.5 165.5 L 161.5 173.5 L 156.5 181.0 L 155.0 184.0 L 155.0 182.5 " stroke="black" fill="none" stroke-width="6.0" stroke-linecap="round" stroke-linejoin="round" />
<path d="M 172.5 162.0 L 172.5 162.0 L 172.5 162.0 L 172.5 162.0 L 172.5 162.0 L 172.5 163.0 L 173.0 167.0 L 173.5 173.5 L 175.5 180.0 L 179.5 183.0 L 184.5 182.5 L 189.0 180.0 L 192.5 178.0 L 193.5 176.5 L 194.0 175.0 L 193.0 174.0 L 191.5 172.5 L 191.0 171.5 L 190.5 170.5 L 190.0 170.0 L 190.0 170.0 L 190.0 170.0 " stroke="black" fill="none" stroke-width="6.0" stroke-linecap="round" stroke-linejoin="round" />
</svg>