<svg xmlns="http://www.w3.org/2000/svg" width="300" height="300" viewBox="0 0 300 300">
<path d="M 121.0 130.0 L 120.0 130.5 L 119.0 131.5 L 118.5 131.5 L 122.0 131.5 L 129.0 131.5 L 136.5 130.5 L 143.0 130.0 L 146.0 129.5 L 146.0 129.5 " stroke="black" fill="none" stroke-width="7.0" stroke-linecap="round" stroke-linejoin="round" />
<path d="M 132.5 115.0 L 133.0 116.5 L 133.5 117.5 L 133.5 120.5 L 134.0 129.0 L 134.0 145.0 L 134.5 162.5 L 134.5 175.0 L 134.0 183.5 L 132.5 189.5 L 131.5 192.0 L 129.0 192.5 L 126.0 191.5 L 123.5 189.5 L 121.5 187.5 L 121.5 185.5 " stroke="black" fill="none" stroke-width="7.0" stroke-linecap="round" stroke-linejoin="round" />
<path d="M 122.5 166.0 L 122.0 166.0 L 121.5 166.0 L 122.5 165.5 L 127.0 164.5 L 135.0 161.0 L 143.0 156.0 L 146.5 153.0 " stroke="black" fill="none" stroke-width="7.0" stroke-linecap="round" stroke-linejoin="round" />
<path d="M 156.5 129.0 L 156.0 129.0 L 155.5 129.5 L 155.5 130.0 L 158.5 130.0 L 165.0 128.5 L 172.0 127.0 L 177.5 126.0 L 179.0 126.0 L 179.0 126.5 " stroke="black" fill="none" stroke-width="7.0" stroke-linecap="round" stroke-linejoin="round" />
<path d="M 155.0 153.5 L 155.0 153.5 L 155.0 153.0 L 155.5 152.5 L 156.5 152.5 L 161.0 152.5 L 168.5 151.5 L 176.0 150.5 L 180.5 149.5 L 181.5 148.5 " stroke="black" fill="none" stroke-width="7.0" stroke-linecap="round" stroke-linejoin="round" />
<path d="M 168.5 114.0 L 168.0 114.5 L 167.5 115.5 L 167.0 117.0 L 167.5 121.0 L 168.0 130.0 L 167.0 143.5 L 163.0 159.5 L 157.5 173.0 L 153.0 182.0 L 150.5 186.5 L 149.5 187.0 L 148.5 185.5 " stroke="black" fill="none" stroke-width="7.0" stroke-linecap="round" stroke-linejoin="round" />
<path d="M 168.5 160.0 L 167.5 160.0 L 167.0 160.0 L 170.5 164.0 L 178.5 174.5 L 186.5 185.0 L 190.5 190.0 L 191.5 191.0 " stroke="black" fill="none" stroke-width="7.0" stroke-linecap="round" stroke-linejoin="round" />
</svg>