<svg xmlns="http://www.w3.org/2000/svg" width="300" height="300" viewBox="0 0 300 300">
<path d="M 128.0 121.5 L 128.5 120.0 L 129.0 119.0 L 129.0 119.0 L 129.0 119.0 L 128.5 122.0 L 125.0 127.5 L 120.0 135.0 L 114.5 142.5 L 112.0 146.5 L 112.0 146.0 L 114.5 143.0 " stroke="black" fill="none" stroke-width="6.0" stroke-linecap="round" stroke-linejoin="round" />
<path d="M 129.0 123.0 L 129.0 122.0 L 129.0 121.0 L 129.5 121.0 L 131.0 121.5 L 134.0 124.0 L 137.5 127.5 L 140.5 131.5 L 142.0 134.0 L 142.5 135.0 " stroke="black" fill="none" stroke-width="6.0" stroke-linecap="round" stroke-linejoin="round" />
<path d="M 122.5 150.0 L 122.0 150.0 L 121.0 149.5 L 121.0 149.5 L 123.5 148.5 L 128.5 147.5 L 133.5 146.5 L 138.0 146.0 L 139.5 146.0 L 140.0 146.5 " stroke="black" fill="none" stroke-width="6.0" stroke-linecap="round" stroke-linejoin="round" />
<path d="M 125.0 164.0 L 125.0 164.0 L 125.0 164.0 L 125.0 164.5 L 127.0 164.5 L 131.5 163.5 L 136.0 162.5 L 138.0 162.0 L 140.0 161.5 " stroke="black" fill="none" stroke-width="6.0" stroke-linecap="round" stroke-linejoin="round" />
<path d="M 134.5 150.5 L 135.5 150.0 L 135.5 150.0 L 135.0 150.5 L 133.5 157.5 L 133.0 165.0 L 133.0 173.5 L 133.0 182.0 L 134.0 183.5 L 134.5 183.5 " stroke="black" fill="none" stroke-width="6.0" stroke-linecap="round" stroke-linejoin="round" />
<path d="M 121.0 174.5 L 120.5 175.0 L 120.0 175.5 L 119.5 175.5 L 120.5 176.5 L 122.5 177.5 L 125.5 178.0 L 126.0 178.0 " stroke="black" fill="none" stroke-width="6.0" stroke-linecap="round" stroke-linejoin="round" />
<path d="M 143.5 173.5 L 143.0 173.5 L 142.5 173.5 L 142.0 173.5 L 142.0 174.0 L 142.0 175.0 L 141.0 177.0 " stroke="black" fill="none" stroke-width="6.0" stroke-linecap="round" stroke-linejoin="round" />
<path d="M 126.0 192.5 L 124.5 192.5 L 123.0 192.0 L 122.5 192.0 L 122.5 192.0 L 125.0 192.0 L 129.5 192.0 L 135.5 190.5 L 142.0 187.5 L 147.5 184.0 L 148.0 183.5 " stroke="black" fill="none" stroke-width="6.0" stroke-linecap="round" stroke-linejoin="round" />
<path d="M 157.5 133.5 L 157.5 133.0 L 157.5 131.0 L 157.5 130.5 L 157.5 130.5 L 157.5 136.0 L 158.0 147.0 L 158.0 161.5 L 158.0 171.5 L 158.0 174.0 L 158.0 173.0 " stroke="black" fill="none" stroke-width="6.0" stroke-linecap="round" stroke-linejoin="round" />
<path d="M 158.5 133.0 L 157.5 134.0 L 156.0 134.0 L 155.5 134.0 L 156.0 133.5 L 158.5 133.0 L 163.5 132.5 L 170.5 132.0 L 178.5 131.0 L 185.5 130.5 L 189.5 130.5 L 190.5 130.5 L 190.5 131.0 L 190.5 131.5 L 190.5 133.0 L 190.5 134.0 L 190.5 138.5 L 190.0 142.5 L 189.5 149.5 L 188.0 164.0 L 187.0 172.0 L 186.5 177.5 L 186.5 182.0 L 186.5 182.0 L 186.5 179.0 L 186.0 177.5 " stroke="black" fill="none" stroke-width="6.0" stroke-linecap="round" stroke-linejoin="round" />
<path d="M 160.5 156.5 L 159.0 157.5 L 158.5 157.5 L 160.5 157.5 L 166.0 157.0 L 171.5 157.0 L 176.0 156.5 L 178.5 156.0 L 179.0 155.0 " stroke="black" fill="none" stroke-width="6.0" stroke-linecap="round" stroke-linejoin="round" />
<path d="M 176.0 134.5 L 175.5 134.0 L 175.0 132.5 L 174.5 132.0 L 174.5 132.0 L 174.5 135.5 L 174.5 144.0 L 174.0 156.5 L 173.5 169.5 L 173.5 176.5 L 173.5 177.5 L 173.5 177.5 " stroke="black" fill="none" stroke-width="6.0" stroke-linecap="round" stroke-linejoin="round" />
<path d="M 158.5 183.5 L 157.0 184.5 L 156.5 185.0 L 157.5 185.5 L 162.5 185.5 L 171.5 184.5 L 181.5 183.0 L 189.0 181.0 L 193.0 180.5 L 193.5 180.5 " stroke="black" fill="none" stroke-width="6.0" stroke-linecap="round" stroke-linejoin="round" />
</svg>