<svg xmlns="http://www.w3.org/2000/svg" width="300" height="300" viewBox="0 0 300 300">
<path d="M 145.0 118.0 L 145.0 118.0 L 145.0 117.5 L 145.0 117.0 L 145.0 117.0 L 145.0 120.0 L 145.5 127.0 L 146.0 134.0 L 146.0 137.5 L 146.0 138.0 " stroke="black" fill="none" stroke-width="6.0" stroke-linecap="round" stroke-linejoin="round" />
<path d="M 126.5 130.5 L 126.5 131.5 L 126.5 132.0 L 126.5 132.5 L 128.5 133.5 L 131.5 134.5 L 134.5 135.5 " stroke="black" fill="none" stroke-width="6.0" stroke-linecap="round" stroke-linejoin="round" />
<path d="M 165.5 127.0 L 165.0 127.0 L 165.0 127.0 L 164.5 127.0 L 164.5 127.0 L 164.0 128.5 L 163.5 131.0 L 163.0 132.0 " stroke="black" fill="none" stroke-width="6.0" stroke-linecap="round" stroke-linejoin="round" />
<path d="M 127.0 148.0 L 126.5 148.0 L 126.0 147.5 L 126.0 147.0 L 129.0 146.0 L 135.0 145.0 L 145.5 143.5 L 156.5 142.5 L 166.5 142.5 L 172.0 142.5 L 173.0 142.5 L 172.5 143.0 L 171.0 142.5 " stroke="black" fill="none" stroke-width="6.0" stroke-linecap="round" stroke-linejoin="round" />
<path d="M 145.5 148.0 L 145.5 147.5 L 145.5 147.0 L 145.5 146.5 L 145.5 146.0 L 145.5 146.0 L 145.5 146.0 L 145.0 149.5 L 142.5 157.0 L 136.5 169.5 L 130.0 179.0 L 128.5 181.0 L 128.5 179.0 L 129.0 177.0 " stroke="black" fill="none" stroke-width="6.0" stroke-linecap="round" stroke-linejoin="round" />
<path d="M 156.0 149.0 L 156.0 149.0 L 156.0 149.0 L 156.0 148.5 L 156.0 148.5 L 156.0 149.0 L 156.0 151.0 L 154.5 156.0 L 153.0 163.5 L 152.0 170.5 L 152.5 175.5 L 154.5 178.0 L 158.0 179.0 L 163.5 179.0 L 170.0 178.5 L 176.0 177.5 L 179.5 176.0 L 181.0 174.0 L 181.0 172.0 L 180.0 170.0 L 178.5 168.0 L 178.0 167.0 L 177.5 166.5 L 177.5 166.0 L 177.5 166.0 L 177.5 166.5 " stroke="black" fill="none" stroke-width="6.0" stroke-linecap="round" stroke-linejoin="round" />
</svg>