<svg xmlns="http://www.w3.org/2000/svg" width="300" height="300" viewBox="0 0 300 300">
<path d="M 146.5 117.5 L 146.5 117.0 L 146.0 116.5 L 146.0 116.5 L 146.0 116.5 L 147.0 119.0 L 148.0 124.5 L 148.5 132.0 L 149.0 138.0 L 149.0 140.5 L 149.0 141.5 " stroke="black" fill="none" stroke-width="6.0" stroke-linecap="round" stroke-linejoin="round" />
<path d="M 126.0 129.0 L 126.0 129.0 L 126.0 129.5 L 126.0 130.5 L 127.5 133.0 L 130.5 137.0 L 133.0 139.5 L 134.5 140.5 L 134.5 140.5 " stroke="black" fill="none" stroke-width="6.0" stroke-linecap="round" stroke-linejoin="round" />
<path d="M 163.5 125.0 L 163.0 125.0 L 162.5 125.0 L 162.5 126.0 L 162.0 128.0 L 161.5 131.5 L 161.0 135.5 L 160.5 136.0 " stroke="black" fill="none" stroke-width="6.0" stroke-linecap="round" stroke-linejoin="round" />
<path d="M 127.5 149.0 L 127.5 149.0 L 127.5 149.5 L 128.0 150.0 L 131.0 150.0 L 140.0 149.0 L 152.0 147.5 L 162.0 146.0 L 168.5 146.0 L 171.0 146.0 L 171.5 146.0 " stroke="black" fill="none" stroke-width="6.0" stroke-linecap="round" stroke-linejoin="round" />
<path d="M 138.0 153.5 L 138.5 154.0 L 138.5 154.5 L 138.5 155.0 L 138.5 155.5 L 138.5 158.0 L 138.0 164.0 L 135.0 173.0 L 131.5 179.5 L 129.0 182.5 L 128.0 182.5 " stroke="black" fill="none" stroke-width="6.0" stroke-linecap="round" stroke-linejoin="round" />
<path d="M 151.5 153.0 L 151.5 153.5 L 151.5 154.0 L 151.5 154.0 L 151.5 155.0 L 151.5 158.0 L 151.5 164.0 L 150.5 173.5 L 151.0 181.0 L 153.5 184.5 L 158.5 185.0 L 165.0 183.5 L 171.0 181.5 L 174.0 179.5 L 175.0 178.5 L 175.5 177.0 L 175.0 176.0 L 174.5 175.0 L 174.0 174.0 L 173.0 173.0 L 172.5 172.0 L 171.5 171.0 L 171.0 170.5 L 171.0 170.0 L 170.5 169.5 " stroke="black" fill="none" stroke-width="6.0" stroke-linecap="round" stroke-linejoin="round" />
</svg>