<svg xmlns="http://www.w3.org/2000/svg" width="300" height="300" viewBox="0 0 300 300">
<path d="M 149.0 110.5 L 149.0 110.5 L 149.0 110.0 L 149.0 109.0 L 148.5 109.0 L 148.5 108.5 L 148.5 108.5 L 149.0 108.5 L 149.0 109.5 L 149.0 111.0 L 149.0 114.0 L 148.0 118.5 L 147.0 124.0 L 146.0 129.0 L 145.5 132.0 L 145.5 133.5 L 145.5 133.5 L 145.5 133.5 L 145.5 133.5 L 145.5 133.5 L 145.5 133.5 L 146.0 133.5 L 146.0 133.5 L 146.5 133.5 L 148.0 133.5 L 149.5 133.0 L 152.5 132.5 L 158.0 131.5 L 160.0 131.0 L 161.0 131.0 L 161.0 131.0 L 161.0 131.0 L 161.0 131.0 L 161.0 131.0 L 161.0 131.0 L 161.0 131.0 L 161.0 131.5 L 161.5 131.5 L 161.5 132.5 L 161.5 133.5 L 161.5 135.0 L 161.5 137.0 L 161.5 139.5 L 161.5 143.0 L 161.5 146.0 L 161.5 149.0 L 161.5 151.5 L 161.0 154.5 L 161.0 156.5 L 161.0 158.0 L 161.0 158.5 L 160.5 158.5 L 160.5 158.5 L 160.5 158.5 L 160.0 159.0 L 160.0 159.0 L 159.5 159.0 L 159.0 159.0 L 158.5 159.0 L 157.5 159.0 L 156.5 158.5 L 155.5 157.5 L 154.5 156.5 " stroke="black" fill="none" stroke-width="6.0" stroke-linecap="round" stroke-linejoin="round" />
<path d="M 153.5 121.0 L 153.5 121.0 L 153.5 121.0 L 153.5 120.5 L 153.5 120.5 L 154.0 120.5 L 155.5 120.0 L 157.5 120.0 L 159.0 120.0 " stroke="black" fill="none" stroke-width="6.0" stroke-linecap="round" stroke-linejoin="round" />
<path d="M 148.0 144.5 L 148.0 144.5 L 148.0 144.0 L 148.5 143.5 L 149.0 143.5 L 149.0 143.5 L 149.0 145.0 L 148.0 148.0 L 147.0 151.0 L 147.0 152.0 " stroke="black" fill="none" stroke-width="6.0" stroke-linecap="round" stroke-linejoin="round" />
<path d="M 133.0 114.0 L 133.5 114.0 L 134.5 113.5 L 135.0 113.0 L 135.0 113.0 L 135.0 113.0 L 135.0 113.0 L 134.0 113.5 L 132.5 115.0 L 131.0 118.0 L 128.5 122.0 L 125.5 126.5 L 122.0 130.5 L 119.5 132.5 L 119.0 133.0 L 118.5 133.0 L 118.5 132.5 L 118.5 132.5 L 118.5 132.5 L 118.5 132.5 L 118.5 132.5 L 118.5 132.5 L 118.5 132.5 L 118.5 132.5 L 119.0 132.5 L 119.0 132.5 L 119.5 132.5 L 120.0 134.0 L 120.5 137.0 L 121.5 143.5 L 122.0 151.0 L 123.0 156.5 L 123.0 158.0 L 123.0 158.0 L 123.0 157.0 L 123.5 154.5 " stroke="black" fill="none" stroke-width="6.0" stroke-linecap="round" stroke-linejoin="round" />
<path d="M 124.0 136.0 L 122.5 137.0 L 122.0 137.0 L 122.0 137.0 L 123.0 137.0 L 125.5 136.0 L 128.5 135.0 L 131.0 134.0 L 133.5 132.5 L 135.0 132.0 L 135.0 132.0 " stroke="black" fill="none" stroke-width="6.0" stroke-linecap="round" stroke-linejoin="round" />
<path d="M 126.5 145.5 L 125.5 146.0 L 124.0 146.5 L 124.0 147.0 L 124.0 147.0 L 125.5 146.5 L 127.5 145.5 L 130.0 144.5 L 132.0 143.0 L 133.0 142.5 " stroke="black" fill="none" stroke-width="6.0" stroke-linecap="round" stroke-linejoin="round" />
<path d="M 173.5 115.0 L 173.5 115.0 L 173.5 116.0 L 173.5 116.5 L 173.5 116.5 L 174.0 116.5 L 176.0 116.5 L 178.5 116.5 L 181.0 116.0 L 183.0 115.5 L 184.5 115.5 L 185.0 115.5 L 185.5 116.0 L 185.5 117.0 L 185.0 119.5 L 184.0 123.0 L 182.5 128.0 L 181.0 134.5 L 179.0 141.5 L 178.0 147.5 L 177.5 152.0 L 177.5 153.5 L 177.5 153.5 L 177.5 153.0 L 177.5 152.0 L 177.0 151.0 " stroke="black" fill="none" stroke-width="6.0" stroke-linecap="round" stroke-linejoin="round" />
<path d="M 173.0 131.0 L 172.0 131.5 L 171.5 131.5 L 171.0 131.5 L 171.5 131.5 L 173.5 131.5 L 176.0 131.5 L 178.0 131.5 L 179.5 131.5 L 180.0 131.5 " stroke="black" fill="none" stroke-width="6.0" stroke-linecap="round" stroke-linejoin="round" />
<path d="M 171.5 141.0 L 171.0 141.0 L 170.5 141.5 L 170.0 141.5 L 171.0 141.5 L 172.5 141.5 L 174.5 141.5 L 176.5 141.5 " stroke="black" fill="none" stroke-width="6.0" stroke-linecap="round" stroke-linejoin="round" />
<path d="M 120.0 164.0 L 120.0 164.0 L 119.5 163.5 L 119.5 163.5 L 120.0 163.0 L 123.0 162.5 L 129.5 162.0 L 139.5 162.0 L 151.5 161.5 L 163.0 160.5 L 171.5 159.5 L 177.5 159.0 L 181.0 158.5 L 182.5 158.5 L 182.5 158.5 L 182.5 158.5 L 182.0 158.5 L 182.0 158.5 L 182.0 158.5 L 182.0 158.5 L 182.0 158.5 L 182.0 158.5 " stroke="black" fill="none" stroke-width="6.0" stroke-linecap="round" stroke-linejoin="round" />
<path d="M 145.5 173.0 L 145.5 172.5 L 145.5 172.5 L 145.5 172.0 L 146.0 171.5 L 146.0 171.5 L 146.0 171.5 L 145.0 173.0 L 141.0 177.0 L 136.0 182.5 L 132.5 186.5 L 131.5 188.0 L 131.5 188.0 L 131.5 188.0 " stroke="black" fill="none" stroke-width="6.0" stroke-linecap="round" stroke-linejoin="round" />
<path d="M 157.0 177.0 L 157.0 177.0 L 156.5 177.0 L 156.0 177.0 L 156.5 177.5 L 159.0 180.0 L 163.5 183.0 L 168.5 185.5 L 172.0 186.5 L 172.5 186.5 " stroke="black" fill="none" stroke-width="6.0" stroke-linecap="round" stroke-linejoin="round" />
</svg>