<svg xmlns="http://www.w3.org/2000/svg" width="300" height="300" viewBox="0 0 300 300">
<path d="M 169.5 106.5 L 169.5 106.5 L 170.0 107.0 L 170.5 107.0 L 170.5 107.0 L 170.5 107.0 L 170.5 107.0 L 170.0 107.0 L 167.0 108.0 L 161.5 110.5 L 154.0 113.5 L 147.0 116.0 L 141.5 117.5 L 138.5 117.5 L 137.5 117.5 L 137.5 117.5 L 137.0 117.5 L 136.5 117.5 L 136.0 117.5 L 135.5 117.5 L 135.5 117.5 L 135.5 117.5 L 135.5 117.5 L 135.5 117.5 L 135.5 117.5 L 135.5 117.5 L 135.5 117.5 L 135.5 117.5 L 135.5 117.5 L 135.5 117.5 L 135.5 117.5 L 135.5 117.5 L 135.5 117.5 L 136.0 118.5 L 136.5 120.5 L 137.0 124.0 L 137.5 130.0 L 137.5 137.5 L 137.5 145.0 L 137.0 152.0 L 136.0 159.0 L 135.0 166.5 L 133.5 173.5 L 132.0 180.0 L 130.5 184.5 L 130.0 186.5 L 129.5 187.0 L 129.0 187.0 L 128.5 184.5 L 128.0 181.5 " stroke="black" fill="none" stroke-width="6.0" stroke-linecap="round" stroke-linejoin="round" />
<path d="M 143.0 128.0 L 142.0 128.5 L 141.0 129.0 L 141.0 129.5 L 141.5 129.5 L 144.5 129.0 L 148.0 128.5 L 152.5 128.0 L 158.5 127.0 L 164.0 126.0 L 168.0 125.0 L 170.0 125.0 L 170.0 125.0 L 170.0 125.0 L 169.5 125.0 L 169.0 125.5 L 169.0 126.0 L 169.0 126.5 L 169.0 127.5 L 169.0 129.0 L 169.0 131.0 L 168.5 133.5 L 168.0 135.5 L 168.0 136.5 " stroke="black" fill="none" stroke-width="6.0" stroke-linecap="round" stroke-linejoin="round" />
<path d="M 144.0 139.5 L 144.0 139.5 L 143.5 139.5 L 143.0 139.5 L 142.5 139.5 L 142.5 139.0 L 144.5 139.0 L 148.0 138.5 L 154.0 138.0 L 161.5 138.0 L 168.0 137.5 L 171.5 136.5 L 172.5 136.5 " stroke="black" fill="none" stroke-width="6.0" stroke-linecap="round" stroke-linejoin="round" />
<path d="M 154.0 147.0 L 154.0 146.5 L 154.0 146.0 L 154.0 145.5 L 154.0 145.5 L 154.5 145.5 L 155.5 145.5 L 156.5 147.0 L 157.5 148.5 L 157.5 149.0 " stroke="black" fill="none" stroke-width="6.0" stroke-linecap="round" stroke-linejoin="round" />
<path d="M 144.5 153.5 L 144.0 154.5 L 144.0 155.0 L 144.0 155.0 L 147.5 155.0 L 152.5 154.5 L 158.5 154.0 L 163.0 153.5 L 165.0 153.5 L 166.0 153.5 L 166.5 152.5 " stroke="black" fill="none" stroke-width="6.0" stroke-linecap="round" stroke-linejoin="round" />
<path d="M 150.0 159.5 L 150.0 159.0 L 150.0 158.5 L 150.0 158.0 L 150.0 158.0 L 149.5 159.5 L 148.5 164.5 L 147.5 172.0 L 146.0 179.0 L 145.5 182.0 L 145.5 182.5 L 145.5 181.5 " stroke="black" fill="none" stroke-width="6.0" stroke-linecap="round" stroke-linejoin="round" />
<path d="M 151.5 168.0 L 151.5 168.0 L 151.5 168.0 L 151.5 168.0 L 151.5 168.0 L 152.0 168.0 L 154.0 168.0 L 157.5 168.0 L 161.0 168.0 L 164.0 168.0 L 166.0 167.5 L 167.0 167.5 L 167.0 167.5 L 167.5 167.5 L 167.5 168.5 L 167.5 170.0 L 168.0 172.0 L 168.0 175.0 L 168.5 178.5 L 168.5 181.5 L 168.5 184.5 L 168.5 187.0 L 167.0 188.5 L 165.5 189.0 L 163.0 189.5 L 161.0 188.5 L 160.0 188.0 " stroke="black" fill="none" stroke-width="6.0" stroke-linecap="round" stroke-linejoin="round" />
</svg>