<svg xmlns="http://www.w3.org/2000/svg" width="300" height="300" viewBox="0 0 300 300">
<path d="M 135.0 118.5 L 135.0 118.0 L 135.0 117.5 L 135.5 117.0 L 136.0 117.0 L 136.5 118.0 L 137.0 124.0 L 136.5 137.0 L 133.5 153.0 L 131.5 164.5 L 129.5 171.0 L 129.0 173.0 L 128.0 172.5 L 127.5 172.0 " stroke="black" fill="none" stroke-width="6.0" stroke-linecap="round" stroke-linejoin="round" />
<path d="M 125.0 138.5 L 125.0 138.5 L 125.0 138.5 L 124.5 138.5 L 124.5 138.5 L 126.5 138.5 L 133.0 137.0 L 142.5 134.5 L 151.0 132.5 L 156.5 131.5 L 160.0 131.0 L 161.5 130.5 L 161.5 130.0 L 161.5 130.0 L 161.5 130.0 L 161.0 130.0 L 161.0 130.0 L 161.0 130.5 L 161.0 131.5 L 160.5 133.0 L 159.5 136.0 L 158.5 141.5 L 156.5 149.0 L 155.5 156.5 L 155.5 163.5 L 156.5 167.5 L 159.5 169.5 L 163.5 171.0 L 168.0 171.0 L 173.0 170.0 L 178.0 167.0 L 181.0 164.0 L 182.0 161.5 L 181.0 158.0 L 179.0 155.0 L 177.5 152.5 L 177.0 151.0 L 176.5 151.0 " stroke="black" fill="none" stroke-width="6.0" stroke-linecap="round" stroke-linejoin="round" />
</svg>