<svg xmlns="http://www.w3.org/2000/svg" width="300" height="300" viewBox="0 0 300 300">
<path d="M 131.0 112.5 L 131.0 112.5 L 131.0 112.5 L 131.0 112.5 L 130.5 113.0 L 130.5 113.0 L 130.5 113.5 L 131.5 115.0 L 133.5 117.0 L 135.0 119.5 L 136.5 121.5 L 137.0 122.5 L 137.0 123.0 " stroke="black" fill="none" stroke-width="6.0" stroke-linecap="round" stroke-linejoin="round" />
<path d="M 122.0 129.5 L 121.0 130.5 L 120.0 130.5 L 120.0 130.5 L 120.5 130.5 L 123.0 130.5 L 126.5 130.5 L 131.0 130.0 L 136.0 130.0 L 140.0 129.5 L 143.0 129.5 L 143.5 129.5 L 143.5 129.0 L 143.0 129.0 L 142.5 129.0 L 142.0 129.0 L 141.0 130.0 L 140.0 131.0 L 138.0 132.5 L 135.5 135.5 L 132.0 139.5 L 128.0 144.0 L 124.5 148.0 L 121.5 151.0 L 119.0 154.0 L 118.0 155.5 L 117.5 156.5 L 117.5 156.5 L 117.5 156.5 " stroke="black" fill="none" stroke-width="6.0" stroke-linecap="round" stroke-linejoin="round" />
<path d="M 130.0 145.0 L 130.5 144.5 L 131.5 144.0 L 131.5 144.0 L 131.5 144.0 L 132.0 145.0 L 132.0 149.0 L 131.5 156.5 L 130.5 167.5 L 130.5 176.5 L 130.0 183.0 L 130.0 186.5 L 130.0 187.5 L 130.0 188.5 L 130.0 188.0 L 130.0 188.0 " stroke="black" fill="none" stroke-width="6.0" stroke-linecap="round" stroke-linejoin="round" />
<path d="M 136.5 148.0 L 136.5 148.0 L 136.0 148.0 L 136.0 148.0 L 136.0 148.0 L 137.5 149.5 L 139.5 151.0 L 141.5 153.0 L 143.0 154.0 " stroke="black" fill="none" stroke-width="6.0" stroke-linecap="round" stroke-linejoin="round" />
<path d="M 152.0 123.0 L 152.0 122.5 L 152.0 121.5 L 152.0 121.0 L 152.0 121.0 L 152.0 121.5 L 153.0 124.0 L 153.5 129.0 L 154.0 134.5 L 155.0 139.0 L 155.5 141.5 L 156.0 141.5 L 156.0 141.0 " stroke="black" fill="none" stroke-width="6.0" stroke-linecap="round" stroke-linejoin="round" />
<path d="M 153.0 124.0 L 152.5 124.0 L 152.0 124.0 L 151.5 124.0 L 151.5 124.0 L 153.5 124.0 L 156.0 124.5 L 160.0 125.0 L 164.5 125.0 L 170.0 125.5 L 175.5 125.5 L 180.5 125.5 L 184.5 125.0 L 186.5 125.0 L 187.0 125.0 L 187.0 125.0 L 187.0 125.5 L 187.0 126.0 L 187.0 127.0 L 187.0 128.5 L 186.0 130.5 L 185.0 133.0 L 184.0 136.0 L 182.5 139.5 L 182.0 142.0 L 181.5 144.5 L 181.0 145.5 L 181.0 145.5 " stroke="black" fill="none" stroke-width="6.0" stroke-linecap="round" stroke-linejoin="round" />
<path d="M 157.0 135.0 L 157.0 135.0 L 157.5 135.0 L 157.5 135.0 L 158.5 135.0 L 162.0 135.0 L 168.0 135.0 L 175.5 135.0 L 180.5 134.5 L 183.0 134.5 L 183.0 134.0 " stroke="black" fill="none" stroke-width="6.0" stroke-linecap="round" stroke-linejoin="round" />
<path d="M 167.0 108.5 L 166.5 108.5 L 165.5 109.0 L 165.5 109.5 L 165.5 111.0 L 165.5 115.0 L 166.0 122.0 L 166.5 131.0 L 166.5 139.0 L 167.0 144.5 L 167.0 146.0 L 168.0 145.5 L 168.0 145.0 " stroke="black" fill="none" stroke-width="6.0" stroke-linecap="round" stroke-linejoin="round" />
<path d="M 177.5 110.0 L 177.5 110.0 L 178.0 110.5 L 178.0 111.0 L 178.0 112.0 L 178.0 114.0 L 177.5 118.0 L 176.5 124.5 L 175.5 133.0 L 175.0 141.0 L 175.0 145.5 L 174.5 146.0 " stroke="black" fill="none" stroke-width="6.0" stroke-linecap="round" stroke-linejoin="round" />
<path d="M 153.0 147.0 L 153.5 146.5 L 154.0 146.5 L 155.5 146.0 L 159.0 146.0 L 165.0 146.0 L 172.0 146.5 L 177.0 147.0 L 179.0 148.0 L 179.0 148.5 " stroke="black" fill="none" stroke-width="6.0" stroke-linecap="round" stroke-linejoin="round" />
<path d="M 156.5 157.0 L 156.5 157.0 L 156.0 157.0 L 156.0 157.0 L 155.5 157.0 L 155.5 157.0 L 155.5 157.0 L 157.5 157.0 L 162.5 156.5 L 171.0 156.0 L 177.0 155.0 L 179.5 155.0 L 179.5 155.0 L 179.0 156.0 L 177.0 156.5 " stroke="black" fill="none" stroke-width="6.0" stroke-linecap="round" stroke-linejoin="round" />
<path d="M 153.5 165.0 L 153.5 164.5 L 153.5 164.0 L 154.0 164.0 L 154.0 165.5 L 155.0 168.5 L 155.5 171.5 L 157.0 174.0 L 157.5 174.5 " stroke="black" fill="none" stroke-width="6.0" stroke-linecap="round" stroke-linejoin="round" />
<path d="M 155.0 166.5 L 155.0 166.0 L 155.5 165.5 L 156.5 165.5 L 159.0 165.0 L 164.0 164.5 L 170.5 163.0 L 175.0 162.5 L 177.0 162.5 L 178.0 163.5 L 178.0 164.0 L 178.0 164.5 L 178.0 164.5 L 178.0 165.0 L 178.0 165.5 L 177.5 167.0 L 176.5 169.0 L 175.5 171.0 L 174.5 173.5 L 174.0 175.5 L 173.5 176.0 " stroke="black" fill="none" stroke-width="6.0" stroke-linecap="round" stroke-linejoin="round" />
<path d="M 159.0 178.0 L 158.5 178.5 L 158.0 179.0 L 158.0 179.0 L 159.0 179.0 L 162.0 179.0 L 166.5 179.0 L 171.0 178.5 L 174.5 178.5 L 175.0 178.5 " stroke="black" fill="none" stroke-width="6.0" stroke-linecap="round" stroke-linejoin="round" />
<path d="M 155.5 183.5 L 155.5 183.5 L 155.5 183.0 L 156.0 183.0 L 156.5 183.0 L 157.0 183.5 L 158.0 186.0 L 159.5 188.5 L 160.5 191.0 L 161.0 192.0 " stroke="black" fill="none" stroke-width="6.0" stroke-linecap="round" stroke-linejoin="round" />
<path d="M 173.0 184.0 L 173.0 184.0 L 173.0 184.0 L 173.0 184.0 L 173.0 184.0 L 173.0 184.5 L 172.5 186.5 L 171.0 189.5 L 169.5 193.0 " stroke="black" fill="none" stroke-width="6.0" stroke-linecap="round" stroke-linejoin="round" />
<path d="M 147.5 198.5 L 147.0 198.5 L 146.5 199.0 L 146.5 199.0 L 150.0 199.0 L 157.0 199.5 L 166.5 199.5 L 175.5 199.5 L 183.0 199.0 L 186.5 199.0 L 187.5 199.5 L 187.5 200.0 " stroke="black" fill="none" stroke-width="6.0" stroke-linecap="round" stroke-linejoin="round" />
</svg>