<svg xmlns="http://www.w3.org/2000/svg" width="300" height="300" viewBox="0 0 300 300">
<path d="M 122.0 117.5 L 120.5 117.0 L 119.0 117.0 L 118.5 117.0 L 118.5 117.0 L 124.0 117.0 L 129.0 116.5 L 135.5 115.0 L 141.5 113.0 L 144.5 112.0 L 144.5 112.0 L 144.0 113.0 L 143.0 116.0 L 142.5 121.0 L 141.5 126.5 L 140.0 132.5 L 138.5 136.5 L 138.5 137.5 L 138.0 137.5 L 138.0 135.5 " stroke="black" fill="none" stroke-width="6.0" stroke-linecap="round" stroke-linejoin="round" />
<path d="M 124.0 129.5 L 123.5 129.5 L 122.5 129.5 L 122.0 129.5 L 124.5 129.0 L 129.0 128.5 L 133.5 128.0 L 136.5 128.0 L 137.5 128.0 " stroke="black" fill="none" stroke-width="6.0" stroke-linecap="round" stroke-linejoin="round" />
<path d="M 123.5 138.0 L 121.0 138.5 L 120.5 138.5 L 122.0 139.5 L 126.0 140.0 L 130.0 140.0 L 133.5 140.0 L 134.0 139.5 " stroke="black" fill="none" stroke-width="6.0" stroke-linecap="round" stroke-linejoin="round" />
<path d="M 120.5 123.0 L 119.0 122.0 L 117.5 121.0 L 117.5 121.0 L 117.5 121.5 L 118.0 123.0 L 118.5 127.0 L 119.0 133.5 L 117.5 144.5 L 115.5 158.5 L 115.0 171.0 L 115.0 181.5 L 115.0 190.0 L 115.0 194.0 L 115.0 195.0 L 115.0 193.5 L 114.5 191.0 " stroke="black" fill="none" stroke-width="6.0" stroke-linecap="round" stroke-linejoin="round" />
<path d="M 155.0 113.5 L 155.5 113.5 L 156.0 114.0 L 156.0 114.5 L 156.0 118.0 L 155.5 124.5 L 154.5 131.5 L 154.0 135.5 L 153.5 136.0 " stroke="black" fill="none" stroke-width="6.0" stroke-linecap="round" stroke-linejoin="round" />
<path d="M 160.0 115.0 L 158.5 115.0 L 158.0 115.0 L 158.0 115.0 L 159.5 114.5 L 161.5 114.5 L 164.0 114.5 L 166.5 114.5 L 168.5 114.5 L 170.5 114.5 L 172.0 114.5 L 172.5 115.0 L 173.0 115.5 L 173.5 116.5 L 174.5 117.5 L 175.5 118.5 L 176.5 119.5 L 177.0 120.5 L 177.0 121.0 L 177.0 122.5 L 177.0 124.0 L 176.5 125.5 L 176.0 128.0 L 175.5 131.0 L 175.0 135.5 L 174.5 141.5 L 173.5 148.5 L 173.0 157.5 L 172.5 168.0 L 172.5 176.5 L 172.5 184.5 L 172.0 191.0 L 171.0 196.0 L 170.0 200.5 L 169.0 204.0 L 168.0 206.5 L 166.5 208.0 L 164.5 208.5 L 161.5 206.0 L 158.5 201.0 L 158.0 199.0 " stroke="black" fill="none" stroke-width="6.0" stroke-linecap="round" stroke-linejoin="round" />
<path d="M 158.5 128.0 L 157.5 128.0 L 156.5 128.5 L 157.0 128.5 L 160.5 128.5 L 165.0 128.5 L 168.5 128.5 L 170.5 128.5 L 171.0 128.5 " stroke="black" fill="none" stroke-width="6.0" stroke-linecap="round" stroke-linejoin="round" />
<path d="M 155.0 140.0 L 154.5 140.5 L 154.5 141.0 L 157.5 142.0 L 162.0 142.0 L 166.0 142.0 L 166.5 142.0 " stroke="black" fill="none" stroke-width="6.0" stroke-linecap="round" stroke-linejoin="round" />
<path d="M 132.5 154.0 L 131.0 155.5 L 130.0 156.0 L 130.0 156.0 L 132.0 155.0 L 136.5 154.0 L 143.0 153.0 L 149.0 152.0 L 153.5 151.0 L 154.5 150.5 L 154.5 150.0 " stroke="black" fill="none" stroke-width="6.0" stroke-linecap="round" stroke-linejoin="round" />
<path d="M 135.0 156.0 L 135.0 155.5 L 135.5 155.5 L 136.0 155.5 L 136.0 155.5 L 136.0 160.5 L 135.0 169.5 L 134.0 178.0 L 134.0 181.5 L 134.0 181.0 " stroke="black" fill="none" stroke-width="6.0" stroke-linecap="round" stroke-linejoin="round" />
<path d="M 148.0 153.0 L 148.0 153.0 L 148.0 153.5 L 148.0 153.5 L 148.0 154.0 L 148.0 156.5 L 148.0 165.5 L 148.0 180.0 L 147.5 191.5 L 147.0 198.0 L 146.5 201.0 L 146.5 201.5 L 146.5 200.0 " stroke="black" fill="none" stroke-width="6.0" stroke-linecap="round" stroke-linejoin="round" />
<path d="M 138.0 164.0 L 137.0 164.0 L 136.5 164.0 L 136.5 164.0 L 139.0 164.0 L 142.5 163.5 L 146.0 162.5 L 148.5 162.5 L 149.5 162.5 " stroke="black" fill="none" stroke-width="6.0" stroke-linecap="round" stroke-linejoin="round" />
<path d="M 138.0 172.0 L 137.0 173.5 L 136.5 174.0 L 137.0 174.0 L 139.5 174.0 L 143.0 173.5 L 146.0 172.5 L 148.0 172.0 " stroke="black" fill="none" stroke-width="6.0" stroke-linecap="round" stroke-linejoin="round" />
<path d="M 126.5 185.0 L 126.0 185.0 L 125.0 185.0 L 125.5 185.0 L 131.0 185.0 L 140.0 184.5 L 149.5 183.5 L 155.0 182.5 L 156.0 182.5 " stroke="black" fill="none" stroke-width="6.0" stroke-linecap="round" stroke-linejoin="round" />
</svg>