<svg xmlns="http://www.w3.org/2000/svg" width="300" height="300" viewBox="0 0 300 300">
<path d="M 132.5 127.0 L 133.0 126.5 L 134.0 124.5 L 135.0 123.0 L 135.5 122.0 L 135.5 122.0 L 135.5 123.0 L 133.5 127.0 L 130.0 134.0 L 124.5 142.0 L 119.5 149.5 L 117.5 152.0 L 117.5 151.5 L 120.0 149.0 L 121.5 147.0 " stroke="black" fill="none" stroke-width="6.0" stroke-linecap="round" stroke-linejoin="round" />
<path d="M 135.5 127.0 L 135.5 126.5 L 135.5 126.5 L 135.5 126.0 L 136.0 126.5 L 138.0 129.0 L 141.0 133.5 L 144.0 137.5 L 146.0 140.5 L 146.5 140.5 " stroke="black" fill="none" stroke-width="6.0" stroke-linecap="round" stroke-linejoin="round" />
<path d="M 127.5 154.0 L 127.5 155.0 L 127.5 155.5 L 128.5 155.5 L 132.0 154.5 L 136.5 153.0 L 141.0 151.5 L 144.5 150.0 L 145.0 150.0 " stroke="black" fill="none" stroke-width="6.0" stroke-linecap="round" stroke-linejoin="round" />
<path d="M 128.5 168.5 L 128.0 168.5 L 127.0 168.5 L 126.0 168.5 L 126.0 168.5 L 127.5 168.5 L 131.5 168.0 L 135.5 167.5 L 139.5 166.5 L 141.5 166.5 " stroke="black" fill="none" stroke-width="6.0" stroke-linecap="round" stroke-linejoin="round" />
<path d="M 138.5 153.5 L 138.5 153.5 L 138.5 154.0 L 138.5 154.5 L 138.5 156.0 L 138.0 161.5 L 137.0 172.5 L 136.5 184.0 L 137.0 190.5 L 138.0 192.0 L 138.5 190.5 " stroke="black" fill="none" stroke-width="6.0" stroke-linecap="round" stroke-linejoin="round" />
<path d="M 125.0 179.5 L 124.5 180.0 L 123.5 180.5 L 123.5 180.5 L 124.5 180.5 L 127.0 181.0 L 130.0 182.0 L 132.5 182.0 " stroke="black" fill="none" stroke-width="6.0" stroke-linecap="round" stroke-linejoin="round" />
<path d="M 146.5 174.5 L 146.0 176.0 L 145.5 176.0 L 145.5 176.0 L 145.5 176.5 L 145.0 178.0 L 145.0 181.0 L 144.5 182.5 " stroke="black" fill="none" stroke-width="6.0" stroke-linecap="round" stroke-linejoin="round" />
<path d="M 128.5 197.5 L 127.0 199.0 L 126.5 199.0 L 126.5 199.0 L 129.0 198.5 L 133.0 197.0 L 138.0 194.5 L 142.5 191.0 " stroke="black" fill="none" stroke-width="6.0" stroke-linecap="round" stroke-linejoin="round" />
<path d="M 159.0 131.5 L 158.5 132.5 L 157.5 133.5 L 157.5 133.5 L 158.0 133.5 L 161.5 133.0 L 166.0 132.0 L 171.0 131.0 L 175.0 130.5 L 177.0 130.5 L 177.0 130.5 L 176.5 131.5 L 175.5 134.0 L 174.5 138.0 L 172.5 144.5 L 169.5 153.5 L 166.0 164.0 L 162.0 174.0 L 158.0 183.0 L 155.5 189.5 L 154.5 191.5 L 154.0 192.0 L 153.5 191.0 L 153.5 188.0 " stroke="black" fill="none" stroke-width="6.0" stroke-linecap="round" stroke-linejoin="round" />
<path d="M 163.0 144.0 L 163.0 143.0 L 163.0 142.5 L 163.0 142.5 L 164.5 143.5 L 165.5 145.0 " stroke="black" fill="none" stroke-width="6.0" stroke-linecap="round" stroke-linejoin="round" />
<path d="M 154.0 148.5 L 154.0 148.5 L 154.5 148.0 L 154.5 148.0 L 156.0 150.0 L 160.5 157.5 L 169.0 172.0 L 176.5 183.5 L 182.5 189.0 L 186.0 190.0 L 187.5 190.0 " stroke="black" fill="none" stroke-width="6.0" stroke-linecap="round" stroke-linejoin="round" />
</svg>