<svg xmlns="http://www.w3.org/2000/svg" width="300" height="300" viewBox="0 0 300 300">
<path d="M 132.0 120.5 L 132.0 120.5 L 132.0 120.0 L 132.0 120.0 L 132.5 120.0 L 134.5 120.0 L 141.5 120.0 L 152.5 120.0 L 163.5 120.0 L 170.5 120.5 L 173.0 121.5 L 172.5 121.5 L 172.0 121.5 L 171.5 121.5 L 171.0 122.0 L 171.0 122.0 " stroke="black" fill="none" stroke-width="6.0" stroke-linecap="round" stroke-linejoin="round" />
<path d="M 130.5 143.5 L 130.5 143.5 L 130.5 143.0 L 130.5 143.0 L 131.5 142.5 L 135.0 142.5 L 142.5 142.5 L 154.0 143.0 L 167.0 142.0 L 175.5 141.5 L 179.0 141.5 L 179.0 142.5 L 175.5 143.5 " stroke="black" fill="none" stroke-width="6.0" stroke-linecap="round" stroke-linejoin="round" />
<path d="M 153.0 126.0 L 154.0 125.5 L 154.5 125.5 L 154.5 125.5 L 154.5 126.5 L 154.5 130.0 L 153.5 138.5 L 150.0 151.0 L 145.0 162.5 L 139.0 170.5 L 134.5 176.0 L 132.5 178.0 L 132.5 178.0 L 132.5 175.5 " stroke="black" fill="none" stroke-width="6.0" stroke-linecap="round" stroke-linejoin="round" />
<path d="M 156.5 152.5 L 157.0 152.5 L 157.0 152.5 L 157.0 152.5 L 157.5 153.0 L 160.0 156.0 L 166.0 162.5 L 174.0 169.0 L 182.0 172.5 L 188.0 174.0 L 192.5 174.5 L 194.0 175.0 " stroke="black" fill="none" stroke-width="6.0" stroke-linecap="round" stroke-linejoin="round" />
</svg>