<svg xmlns="http://www.w3.org/2000/svg" width="300" height="300" viewBox="0 0 300 300">
<path d="M 121.0 115.5 L 121.0 115.5 L 121.0 116.0 L 120.5 116.0 L 120.5 116.5 L 122.0 116.5 L 127.0 116.0 L 135.0 116.0 L 142.0 116.0 L 145.5 117.5 L 145.5 118.5 " stroke="black" fill="none" stroke-width="6.0" stroke-linecap="round" stroke-linejoin="round" />
<path d="M 125.0 119.5 L 126.0 119.0 L 126.5 118.5 L 126.5 118.0 L 126.5 118.0 L 126.5 121.0 L 126.5 128.5 L 126.5 140.5 L 126.5 151.5 L 126.5 156.5 L 127.0 155.5 L 127.0 154.5 " stroke="black" fill="none" stroke-width="6.0" stroke-linecap="round" stroke-linejoin="round" />
<path d="M 140.0 118.5 L 140.0 118.5 L 140.0 118.5 L 139.5 119.0 L 139.5 119.5 L 140.0 123.5 L 140.0 131.0 L 140.0 143.0 L 140.0 156.0 L 140.5 166.5 L 141.0 174.5 L 141.0 179.5 L 141.5 182.0 L 141.5 182.0 L 141.0 179.5 " stroke="black" fill="none" stroke-width="6.0" stroke-linecap="round" stroke-linejoin="round" />
<path d="M 129.0 129.5 L 129.0 129.5 L 129.0 130.0 L 128.5 130.0 L 129.0 130.0 L 131.0 130.0 L 133.5 130.0 L 135.5 130.0 L 137.5 130.0 L 138.0 129.5 " stroke="black" fill="none" stroke-width="6.0" stroke-linecap="round" stroke-linejoin="round" />
<path d="M 129.5 141.5 L 129.5 141.5 L 129.5 142.0 L 130.0 142.0 L 130.0 142.0 L 130.5 142.0 L 132.0 142.0 L 133.5 141.5 L 136.0 141.0 L 137.5 140.5 " stroke="black" fill="none" stroke-width="6.0" stroke-linecap="round" stroke-linejoin="round" />
<path d="M 117.5 161.0 L 117.5 161.5 L 117.0 161.5 L 116.5 162.0 L 116.5 162.0 L 118.5 162.0 L 122.0 161.0 L 127.0 160.0 L 132.0 158.5 L 136.0 157.0 L 138.5 156.0 " stroke="black" fill="none" stroke-width="6.0" stroke-linecap="round" stroke-linejoin="round" />
<path d="M 168.0 120.0 L 168.5 120.0 L 169.0 120.0 L 169.5 120.0 L 169.5 121.5 L 169.0 125.5 L 167.5 133.5 L 164.5 145.5 L 161.0 158.0 L 158.0 166.5 L 155.5 172.0 L 154.5 174.5 L 154.0 174.5 L 154.0 174.5 " stroke="black" fill="none" stroke-width="6.0" stroke-linecap="round" stroke-linejoin="round" />
<path d="M 164.0 155.0 L 164.0 156.0 L 164.0 156.5 L 164.5 158.0 L 167.5 162.5 L 172.5 168.0 L 176.0 171.0 L 177.5 171.5 L 177.5 171.0 " stroke="black" fill="none" stroke-width="6.0" stroke-linecap="round" stroke-linejoin="round" />
<path d="M 151.5 136.0 L 152.0 136.0 L 152.5 136.5 L 153.0 136.5 L 153.5 137.0 L 154.5 138.5 L 155.0 141.0 L 156.0 143.5 L 156.5 145.5 L 157.0 146.5 " stroke="black" fill="none" stroke-width="6.0" stroke-linecap="round" stroke-linejoin="round" />
<path d="M 177.5 135.5 L 177.5 135.5 L 177.5 136.0 L 177.5 136.5 L 177.5 136.5 L 177.5 137.0 L 177.5 138.5 L 177.0 141.5 L 176.0 145.5 " stroke="black" fill="none" stroke-width="6.0" stroke-linecap="round" stroke-linejoin="round" />
</svg>