<svg xmlns="http://www.w3.org/2000/svg" width="300" height="300" viewBox="0 0 300 300">
<path d="M 121.0 119.5 L 120.0 119.5 L 119.5 120.0 L 119.5 120.0 L 123.5 120.0 L 130.0 120.0 L 136.5 120.0 L 140.5 120.0 L 142.0 119.5 L 142.0 118.5 L 141.5 118.5 " stroke="black" fill="none" stroke-width="6.0" stroke-linecap="round" stroke-linejoin="round" />
<path d="M 133.5 110.5 L 134.0 110.5 L 134.5 111.0 L 134.5 111.5 L 134.5 112.0 L 134.5 114.0 L 134.5 119.0 L 134.5 128.5 L 133.5 140.5 L 133.5 153.5 L 133.5 165.0 L 133.5 173.5 L 134.0 179.0 L 134.0 181.5 L 133.0 182.0 L 131.5 182.0 L 129.5 181.0 L 127.5 179.5 L 125.5 178.0 L 124.0 176.5 L 123.5 175.0 L 123.0 175.0 " stroke="black" fill="none" stroke-width="6.0" stroke-linecap="round" stroke-linejoin="round" />
<path d="M 122.5 163.5 L 121.5 163.5 L 121.0 163.5 L 122.0 163.0 L 125.5 161.5 L 129.5 159.0 L 133.5 156.5 L 137.0 152.5 " stroke="black" fill="none" stroke-width="6.0" stroke-linecap="round" stroke-linejoin="round" />
<path d="M 159.5 113.0 L 160.0 113.0 L 160.5 113.0 L 161.0 113.0 L 161.0 113.0 L 160.5 114.5 L 157.5 118.5 L 152.5 126.0 L 148.0 132.5 L 146.5 134.5 L 146.5 133.0 " stroke="black" fill="none" stroke-width="6.0" stroke-linecap="round" stroke-linejoin="round" />
<path d="M 157.5 116.5 L 157.5 117.0 L 157.5 117.5 L 157.5 117.5 L 158.5 118.0 L 161.5 119.5 L 168.0 122.5 L 175.5 126.5 L 182.5 129.5 L 187.0 130.5 L 188.0 131.0 L 188.0 131.0 " stroke="black" fill="none" stroke-width="6.0" stroke-linecap="round" stroke-linejoin="round" />
<path d="M 155.5 138.5 L 155.5 138.5 L 155.5 139.0 L 156.0 139.0 L 157.0 139.0 L 160.5 139.0 L 165.0 138.5 L 169.5 137.5 L 172.5 136.5 L 173.0 136.0 " stroke="black" fill="none" stroke-width="6.0" stroke-linecap="round" stroke-linejoin="round" />
<path d="M 150.0 152.0 L 150.0 151.5 L 150.0 151.0 L 150.0 151.0 L 150.0 151.0 L 150.0 154.0 L 150.5 159.5 L 151.0 164.5 L 151.5 168.5 L 151.5 171.0 L 151.5 171.0 " stroke="black" fill="none" stroke-width="6.0" stroke-linecap="round" stroke-linejoin="round" />
<path d="M 151.5 153.0 L 151.5 153.0 L 151.0 153.0 L 151.0 153.0 L 150.5 153.0 L 150.5 152.5 L 152.5 152.5 L 156.5 152.5 L 162.5 151.5 L 169.5 151.0 L 175.5 150.5 L 178.0 150.5 L 178.0 151.0 L 177.5 151.0 L 177.0 151.5 L 176.5 151.5 L 176.0 152.5 L 176.0 154.0 L 175.5 156.5 L 175.5 160.5 L 175.5 164.0 L 175.5 167.0 L 175.0 169.0 L 174.5 169.5 L 174.0 169.5 " stroke="black" fill="none" stroke-width="6.0" stroke-linecap="round" stroke-linejoin="round" />
<path d="M 154.0 173.5 L 153.5 173.5 L 152.5 173.5 L 151.5 173.5 L 151.5 173.5 L 152.5 173.0 L 158.0 172.5 L 165.0 172.0 L 171.5 171.5 L 174.5 171.5 " stroke="black" fill="none" stroke-width="6.0" stroke-linecap="round" stroke-linejoin="round" />
</svg>