<svg xmlns="http://www.w3.org/2000/svg" width="300" height="300" viewBox="0 0 300 300">
<path d="M 129.5 115.0 L 129.5 116.0 L 129.5 117.0 L 130.0 117.5 L 132.0 117.5 L 138.0 116.5 L 147.0 116.0 L 156.5 116.0 L 164.0 116.0 L 169.0 116.0 L 170.5 116.5 L 171.0 117.0 L 171.0 117.5 L 171.0 117.5 " stroke="black" fill="none" stroke-width="6.0" stroke-linecap="round" stroke-linejoin="round" />
<path d="M 152.0 105.0 L 152.0 105.0 L 153.0 104.5 L 153.5 104.0 L 153.5 104.0 L 153.5 105.0 L 153.0 109.0 L 151.0 115.0 L 149.0 121.5 L 147.0 125.5 L 146.5 127.5 " stroke="black" fill="none" stroke-width="6.0" stroke-linecap="round" stroke-linejoin="round" />
<path d="M 130.5 133.5 L 130.5 132.5 L 131.0 131.5 L 131.0 131.0 L 131.5 130.5 L 132.5 130.5 L 133.0 133.5 L 133.5 141.0 L 133.0 153.5 L 130.5 169.5 L 129.5 179.5 L 129.5 183.0 L 129.5 183.5 L 129.5 180.5 " stroke="black" fill="none" stroke-width="6.0" stroke-linecap="round" stroke-linejoin="round" />
<path d="M 134.0 134.5 L 134.0 135.0 L 133.5 135.5 L 134.0 135.5 L 137.0 134.5 L 141.5 133.0 L 146.5 131.5 L 151.5 130.5 L 155.5 130.5 L 159.0 130.5 L 161.5 131.0 L 163.0 131.5 L 164.5 131.5 L 165.0 132.0 L 165.5 132.0 L 166.0 132.5 L 166.5 133.5 L 167.0 135.0 L 167.0 137.0 L 167.0 140.0 L 167.0 144.0 L 166.5 150.0 L 166.5 157.0 L 166.5 164.0 L 167.0 171.5 L 167.5 178.5 L 167.5 184.0 L 167.5 187.5 L 166.5 190.0 L 165.0 190.0 L 162.5 189.5 L 159.0 185.5 L 157.5 183.0 " stroke="black" fill="none" stroke-width="6.0" stroke-linecap="round" stroke-linejoin="round" />
<path d="M 142.5 138.5 L 142.5 138.5 L 142.0 138.5 L 141.5 138.5 L 141.5 139.0 L 142.5 140.0 L 144.0 142.0 L 145.5 143.5 L 146.5 143.5 " stroke="black" fill="none" stroke-width="6.0" stroke-linecap="round" stroke-linejoin="round" />
<path d="M 154.5 138.5 L 155.0 138.5 L 156.0 139.5 L 156.0 139.5 L 156.0 139.5 L 156.0 140.0 L 155.0 141.0 L 154.5 142.0 L 153.0 144.5 L 153.0 145.0 " stroke="black" fill="none" stroke-width="6.0" stroke-linecap="round" stroke-linejoin="round" />
<path d="M 144.0 150.5 L 142.0 150.5 L 141.0 150.5 L 141.0 150.5 L 142.0 150.5 L 145.0 150.5 L 149.0 150.0 L 152.0 149.5 L 154.5 149.0 L 155.5 149.0 " stroke="black" fill="none" stroke-width="6.0" stroke-linecap="round" stroke-linejoin="round" />
<path d="M 142.0 162.5 L 140.5 163.0 L 139.5 163.0 L 139.0 163.5 L 139.5 163.5 L 142.0 163.0 L 146.5 163.0 L 151.0 162.0 L 154.5 162.0 L 156.5 162.0 L 157.0 161.5 " stroke="black" fill="none" stroke-width="6.0" stroke-linecap="round" stroke-linejoin="round" />
<path d="M 149.0 153.5 L 149.0 153.5 L 149.0 153.5 L 148.5 153.5 L 148.0 153.5 L 147.5 155.0 L 147.0 160.0 L 146.5 169.0 L 146.5 175.5 L 146.5 178.5 " stroke="black" fill="none" stroke-width="6.0" stroke-linecap="round" stroke-linejoin="round" />
</svg>