<svg xmlns="http://www.w3.org/2000/svg" width="300" height="300" viewBox="0 0 300 300">
<path d="M 131.0 124.5 L 131.0 124.5 L 131.0 124.5 L 131.0 124.5 L 131.0 124.5 L 131.0 124.5 L 131.0 124.5 L 133.0 124.5 L 137.5 123.0 L 146.0 120.0 L 156.5 115.0 L 165.5 111.0 L 170.5 108.5 L 171.5 108.0 L 171.0 108.0 L 170.5 108.5 L 170.5 108.5 L 170.5 108.5 L 170.5 108.5 L 170.5 108.5 L 170.0 108.5 L 170.0 108.5 " stroke="black" fill="none" stroke-width="6.0" stroke-linecap="round" stroke-linejoin="round" />
<path d="M 136.0 132.0 L 135.5 132.0 L 134.5 132.5 L 134.5 132.5 L 135.0 132.5 L 136.5 133.0 L 139.0 134.0 L 141.0 135.0 L 142.5 136.0 L 143.5 136.0 " stroke="black" fill="none" stroke-width="6.0" stroke-linecap="round" stroke-linejoin="round" />
<path d="M 154.0 126.5 L 154.0 126.5 L 153.5 126.5 L 153.5 126.0 L 153.5 126.0 L 153.5 127.5 L 155.0 129.5 L 156.0 131.5 L 156.5 132.0 " stroke="black" fill="none" stroke-width="6.0" stroke-linecap="round" stroke-linejoin="round" />
<path d="M 171.5 122.5 L 172.0 121.5 L 172.5 120.5 L 173.0 120.0 L 173.0 120.0 L 173.0 120.5 L 172.0 123.5 L 170.5 127.0 L 169.5 130.5 L 169.0 133.0 L 168.5 133.5 " stroke="black" fill="none" stroke-width="6.0" stroke-linecap="round" stroke-linejoin="round" />
<path d="M 134.0 143.0 L 134.0 143.0 L 134.5 143.0 L 134.5 142.5 L 135.0 142.5 L 135.0 143.0 L 134.5 145.5 L 133.5 150.0 L 132.5 154.0 L 131.5 156.5 L 131.5 156.5 " stroke="black" fill="none" stroke-width="6.0" stroke-linecap="round" stroke-linejoin="round" />
<path d="M 135.5 143.5 L 135.5 143.5 L 134.5 143.5 L 134.5 143.5 L 134.5 143.5 L 135.5 143.0 L 138.0 143.0 L 141.0 143.0 L 145.0 142.5 L 151.0 141.5 L 158.5 140.0 L 164.5 139.5 L 169.0 139.5 L 173.5 139.5 L 177.5 139.5 L 180.0 139.5 L 181.5 139.5 L 181.5 139.5 L 181.5 139.5 L 181.5 139.0 L 181.5 139.0 L 182.0 139.0 L 182.0 139.0 L 182.0 139.0 L 183.0 139.0 L 184.0 138.5 L 185.5 138.5 L 186.5 138.5 L 187.0 138.5 L 187.5 138.5 L 187.5 138.5 L 187.5 138.5 L 187.5 138.5 L 187.5 138.5 L 187.5 138.5 L 187.5 138.5 L 187.5 138.5 L 187.5 138.5 L 187.5 138.5 L 187.0 138.5 L 187.0 139.0 L 187.0 139.5 L 186.5 141.5 L 185.5 144.0 L 185.0 147.0 L 184.5 149.5 L 184.0 150.5 L 184.0 150.5 L 184.5 150.5 " stroke="black" fill="none" stroke-width="6.0" stroke-linecap="round" stroke-linejoin="round" />
<path d="M 143.0 152.5 L 143.0 152.5 L 142.5 153.5 L 142.5 154.0 L 142.5 154.5 L 142.0 156.5 L 141.0 159.5 L 140.0 162.5 L 139.5 165.0 L 139.5 165.5 " stroke="black" fill="none" stroke-width="6.0" stroke-linecap="round" stroke-linejoin="round" />
<path d="M 153.5 155.0 L 154.0 155.0 L 154.5 155.5 L 155.0 156.0 L 155.5 156.5 L 156.0 157.5 L 156.0 158.5 L 156.5 160.5 L 157.0 162.5 L 158.5 164.5 L 160.5 166.0 L 163.5 166.0 L 166.0 166.0 L 167.0 165.0 L 168.0 163.5 L 168.5 162.0 L 168.5 161.0 L 168.5 160.0 L 168.5 160.0 L 168.0 160.0 " stroke="black" fill="none" stroke-width="6.0" stroke-linecap="round" stroke-linejoin="round" />
<path d="M 164.0 151.0 L 163.5 151.0 L 163.0 151.0 L 163.0 151.0 L 163.0 151.5 L 164.5 152.0 L 165.5 152.5 L 166.0 152.5 " stroke="black" fill="none" stroke-width="6.0" stroke-linecap="round" stroke-linejoin="round" />
<path d="M 172.5 151.0 L 173.5 151.0 L 174.0 151.5 L 174.5 151.5 L 175.5 152.5 L 176.5 154.0 L 177.5 156.0 L 178.5 158.0 " stroke="black" fill="none" stroke-width="6.0" stroke-linecap="round" stroke-linejoin="round" />
<path d="M 147.0 173.0 L 147.0 173.0 L 147.5 173.0 L 148.0 173.0 L 148.0 173.0 L 148.0 174.5 L 147.0 178.0 L 145.5 182.0 L 144.0 185.0 L 143.5 185.5 " stroke="black" fill="none" stroke-width="6.0" stroke-linecap="round" stroke-linejoin="round" />
<path d="M 150.0 178.0 L 150.0 178.0 L 150.0 178.5 L 150.0 179.0 L 150.0 179.5 L 150.5 179.5 L 151.5 179.5 L 153.0 179.5 L 156.5 179.5 L 161.0 178.5 L 166.5 178.0 L 170.5 177.5 L 173.5 177.5 L 174.0 177.5 L 174.5 177.5 L 174.5 177.5 L 174.5 177.5 L 174.5 177.5 L 174.5 177.5 L 174.5 177.5 " stroke="black" fill="none" stroke-width="6.0" stroke-linecap="round" stroke-linejoin="round" />
<path d="M 173.5 178.5 L 173.5 178.5 L 174.0 178.5 L 174.0 178.5 L 174.0 178.5 L 174.0 179.0 L 174.0 180.0 L 173.0 183.0 L 169.5 187.5 L 163.5 194.5 L 157.0 200.5 L 151.0 205.0 L 147.0 208.5 L 144.5 210.5 L 144.0 211.0 L 143.5 210.5 L 143.0 210.0 L 143.0 209.5 " stroke="black" fill="none" stroke-width="6.0" stroke-linecap="round" stroke-linejoin="round" />
<path d="M 151.5 191.0 L 151.5 191.0 L 151.5 191.0 L 151.5 191.0 L 151.5 191.0 L 151.5 191.0 L 151.5 191.0 L 152.0 191.5 L 155.5 194.5 L 162.0 200.0 L 171.0 205.0 L 177.0 206.5 L 182.0 207.0 L 185.0 207.0 L 186.0 207.0 L 186.0 207.5 " stroke="black" fill="none" stroke-width="6.0" stroke-linecap="round" stroke-linejoin="round" />
</svg>