<svg xmlns="http://www.w3.org/2000/svg" width="300" height="300" viewBox="0 0 300 300">
<path d="M 124.5 118.5 L 124.0 118.5 L 123.0 119.0 L 123.0 119.0 L 125.5 119.0 L 130.0 118.5 L 135.0 118.0 L 138.5 117.5 L 141.0 117.5 L 141.5 117.5 L 141.5 117.5 " stroke="black" fill="none" stroke-width="6.0" stroke-linecap="round" stroke-linejoin="round" />
<path d="M 131.5 108.5 L 132.5 108.5 L 133.0 109.5 L 133.0 110.5 L 133.5 113.5 L 133.5 119.0 L 133.5 124.5 L 133.5 128.5 L 133.0 129.5 L 132.5 129.5 " stroke="black" fill="none" stroke-width="6.0" stroke-linecap="round" stroke-linejoin="round" />
<path d="M 123.5 131.0 L 123.5 131.0 L 123.0 131.0 L 123.0 131.0 L 124.5 131.0 L 128.5 131.0 L 134.5 130.5 L 140.0 129.5 L 143.0 129.0 L 144.5 130.0 L 144.5 130.0 " stroke="black" fill="none" stroke-width="6.0" stroke-linecap="round" stroke-linejoin="round" />
<path d="M 118.5 141.0 L 119.0 141.0 L 119.5 140.5 L 120.0 140.5 L 120.0 141.0 L 120.0 143.0 L 119.5 146.5 L 119.0 150.5 L 118.5 152.0 " stroke="black" fill="none" stroke-width="6.0" stroke-linecap="round" stroke-linejoin="round" />
<path d="M 120.5 142.0 L 121.0 142.0 L 121.5 142.5 L 122.5 142.5 L 125.0 142.5 L 129.5 141.0 L 134.5 140.5 L 139.5 140.0 L 143.5 140.0 L 147.0 140.5 L 150.0 140.5 L 152.0 141.0 L 153.0 141.5 L 153.5 141.5 L 153.5 141.5 L 153.5 141.5 L 153.5 142.0 L 153.5 143.0 L 153.5 144.0 L 153.5 146.0 L 153.0 148.5 L 152.5 150.5 L 152.0 152.5 L 152.0 153.0 " stroke="black" fill="none" stroke-width="6.0" stroke-linecap="round" stroke-linejoin="round" />
<path d="M 126.0 155.0 L 126.0 155.0 L 126.0 155.0 L 126.0 155.0 L 129.0 154.5 L 133.5 153.5 L 138.5 153.0 L 141.5 153.0 L 143.0 153.0 " stroke="black" fill="none" stroke-width="6.0" stroke-linecap="round" stroke-linejoin="round" />
<path d="M 123.5 167.0 L 123.5 166.5 L 123.5 166.5 L 123.5 166.0 L 123.5 166.0 L 123.5 166.5 L 124.0 168.5 L 124.5 171.5 L 124.5 173.0 " stroke="black" fill="none" stroke-width="6.0" stroke-linecap="round" stroke-linejoin="round" />
<path d="M 125.0 165.0 L 125.0 165.0 L 125.0 165.0 L 125.0 165.0 L 127.0 164.5 L 130.5 163.0 L 134.5 162.0 L 138.0 161.5 L 141.0 161.5 L 143.0 162.0 L 144.5 163.0 L 145.5 164.5 L 146.0 166.0 L 146.0 168.0 L 145.0 170.5 L 144.0 173.5 L 142.5 175.5 L 142.0 177.0 L 142.0 177.5 " stroke="black" fill="none" stroke-width="6.0" stroke-linecap="round" stroke-linejoin="round" />
<path d="M 127.5 172.5 L 127.5 172.5 L 127.0 172.5 L 127.0 172.0 L 127.5 172.0 L 129.5 171.5 L 133.0 171.0 L 137.0 170.5 L 138.5 170.5 " stroke="black" fill="none" stroke-width="6.0" stroke-linecap="round" stroke-linejoin="round" />
<path d="M 125.0 180.5 L 125.0 181.0 L 124.5 181.0 L 124.5 181.0 L 125.0 181.0 L 127.0 181.0 L 130.5 180.5 L 135.0 180.0 L 136.0 180.0 " stroke="black" fill="none" stroke-width="6.0" stroke-linecap="round" stroke-linejoin="round" />
<path d="M 120.5 194.0 L 120.5 194.0 L 121.0 193.5 L 124.0 193.0 L 129.5 191.5 L 135.5 191.0 L 141.0 190.5 L 144.0 190.0 " stroke="black" fill="none" stroke-width="6.0" stroke-linecap="round" stroke-linejoin="round" />
<path d="M 134.0 150.5 L 134.0 151.0 L 134.0 151.0 L 134.0 152.0 L 134.0 153.0 L 134.5 155.0 L 134.5 158.5 L 134.5 164.5 L 134.5 171.5 L 134.0 179.0 L 134.0 185.5 L 134.0 190.0 L 133.5 194.0 L 133.0 197.5 L 133.0 200.5 L 133.0 203.0 L 133.0 205.0 L 133.0 206.5 L 133.0 207.0 L 133.0 207.5 L 133.5 207.5 L 133.5 207.5 " stroke="black" fill="none" stroke-width="6.0" stroke-linecap="round" stroke-linejoin="round" />
<path d="M 162.0 115.0 L 163.0 115.0 L 163.5 114.5 L 163.5 114.5 L 164.0 115.5 L 164.0 120.5 L 164.0 128.5 L 163.5 137.5 L 163.0 143.0 L 162.5 144.5 L 162.0 144.5 L 162.0 143.5 " stroke="black" fill="none" stroke-width="6.0" stroke-linecap="round" stroke-linejoin="round" />
<path d="M 165.5 116.0 L 164.5 117.0 L 164.0 117.0 L 164.0 117.0 L 165.5 117.0 L 168.5 116.5 L 172.0 115.5 L 175.0 115.0 L 177.5 114.5 L 179.0 114.5 L 180.0 116.5 L 180.5 120.5 L 179.5 127.0 L 178.5 134.0 L 178.0 139.5 L 178.5 142.5 L 180.0 144.5 L 182.5 144.5 L 185.0 143.5 L 187.0 141.0 L 188.0 139.0 " stroke="black" fill="none" stroke-width="6.0" stroke-linecap="round" stroke-linejoin="round" />
<path d="M 160.5 159.5 L 160.5 160.0 L 161.0 160.5 L 161.0 161.0 L 162.5 161.0 L 166.0 160.0 L 170.5 158.5 L 175.0 157.0 L 178.0 156.5 L 179.5 156.5 L 180.0 157.0 L 180.0 159.5 L 179.0 163.5 L 176.5 170.0 L 173.0 178.0 L 168.5 187.0 L 165.0 195.0 L 163.0 200.5 L 162.5 202.0 L 161.5 201.5 L 160.5 199.5 " stroke="black" fill="none" stroke-width="6.0" stroke-linecap="round" stroke-linejoin="round" />
<path d="M 159.0 174.0 L 159.5 174.0 L 160.0 174.0 L 163.0 175.0 L 171.0 178.5 L 180.5 185.0 L 187.0 190.0 L 191.0 192.5 L 194.0 192.0 L 194.5 191.5 " stroke="black" fill="none" stroke-width="6.0" stroke-linecap="round" stroke-linejoin="round" />
</svg>