<svg xmlns="http://www.w3.org/2000/svg" width="300" height="300" viewBox="0 0 300 300">
<path d="M 125.5 119.0 L 124.0 119.0 L 122.0 118.5 L 120.5 118.5 L 120.5 118.5 L 122.0 118.5 L 125.0 118.5 L 128.5 118.5 L 132.5 118.5 L 137.0 118.5 L 141.0 118.5 L 144.0 118.5 L 145.0 118.0 L 145.0 118.0 " stroke="black" fill="none" stroke-width="6.0" stroke-linecap="round" stroke-linejoin="round" />
<path d="M 131.5 109.0 L 132.5 108.5 L 133.0 108.5 L 133.0 108.5 L 133.5 109.5 L 133.5 114.0 L 133.5 121.0 L 134.0 127.5 L 134.0 131.0 L 134.5 131.5 " stroke="black" fill="none" stroke-width="6.0" stroke-linecap="round" stroke-linejoin="round" />
<path d="M 153.0 117.5 L 153.0 117.5 L 153.0 118.0 L 153.5 118.5 L 154.5 118.5 L 158.0 119.0 L 164.0 119.0 L 169.5 118.0 L 173.0 117.5 L 174.5 117.0 L 175.0 116.5 " stroke="black" fill="none" stroke-width="6.0" stroke-linecap="round" stroke-linejoin="round" />
<path d="M 166.5 106.5 L 166.0 106.5 L 165.5 106.5 L 165.0 107.0 L 165.0 108.5 L 165.0 113.5 L 165.0 121.5 L 165.5 128.5 L 165.5 131.5 L 166.0 131.0 " stroke="black" fill="none" stroke-width="6.0" stroke-linecap="round" stroke-linejoin="round" />
<path d="M 146.5 135.0 L 146.5 134.5 L 146.0 133.5 L 145.5 133.5 L 145.5 133.5 L 145.5 134.0 L 147.0 136.5 L 148.5 139.0 L 149.5 141.0 L 150.0 142.5 " stroke="black" fill="none" stroke-width="6.0" stroke-linecap="round" stroke-linejoin="round" />
<path d="M 121.5 150.5 L 121.5 151.0 L 121.5 151.0 L 122.0 151.5 L 123.5 151.5 L 127.0 151.5 L 132.5 151.5 L 140.5 151.5 L 149.5 151.5 L 156.0 151.5 L 161.5 151.5 L 164.5 151.5 L 166.5 152.0 L 168.5 152.0 L 169.5 152.0 L 170.5 151.5 L 171.5 151.5 L 172.0 151.5 L 172.5 151.5 L 173.0 151.5 L 173.0 151.5 L 173.0 151.5 L 173.0 151.5 L 173.0 151.5 " stroke="black" fill="none" stroke-width="6.0" stroke-linecap="round" stroke-linejoin="round" />
<path d="M 135.0 155.0 L 135.5 155.0 L 136.0 155.0 L 136.5 155.0 L 137.0 155.0 L 137.0 155.0 L 137.0 155.0 L 137.0 155.5 L 137.0 158.0 L 137.0 163.0 L 135.5 170.5 L 133.5 179.5 L 131.5 187.5 L 129.5 193.5 L 127.5 196.5 L 127.5 196.5 L 127.5 195.5 L 128.0 192.5 " stroke="black" fill="none" stroke-width="6.0" stroke-linecap="round" stroke-linejoin="round" />
<path d="M 140.5 166.0 L 140.0 167.0 L 138.5 168.0 L 138.0 168.5 L 137.5 169.0 L 139.0 169.0 L 141.5 169.0 L 145.5 169.0 L 150.0 169.0 L 155.5 168.5 L 161.5 168.5 L 165.5 168.5 L 167.5 168.5 L 168.0 169.5 L 168.0 170.5 L 168.0 171.0 L 168.0 171.5 L 168.0 173.0 L 168.0 174.5 L 168.0 177.0 L 167.5 180.5 L 167.0 184.0 L 166.5 188.0 L 165.0 192.0 L 163.5 194.5 L 161.5 196.5 L 159.5 197.0 L 157.5 197.0 L 156.0 196.0 L 154.5 195.0 " stroke="black" fill="none" stroke-width="6.0" stroke-linecap="round" stroke-linejoin="round" />
</svg>