<svg xmlns="http://www.w3.org/2000/svg" width="300" height="300" viewBox="0 0 300 300">
<path d="M 142.0 112.5 L 141.5 112.5 L 140.5 112.5 L 140.0 112.5 L 141.0 114.0 L 144.0 116.0 L 147.5 118.5 L 150.5 120.5 L 152.5 122.0 L 153.0 123.0 L 153.0 123.0 " stroke="black" fill="none" stroke-width="6.0" stroke-linecap="round" stroke-linejoin="round" />
<path d="M 123.0 128.0 L 122.5 129.0 L 122.0 130.0 L 122.0 130.0 L 124.0 130.0 L 128.5 130.0 L 137.0 129.5 L 148.5 128.5 L 160.5 128.0 L 169.0 128.0 L 172.5 128.0 L 173.5 128.5 L 173.5 129.0 L 172.5 129.0 L 171.5 127.5 " stroke="black" fill="none" stroke-width="6.0" stroke-linecap="round" stroke-linejoin="round" />
<path d="M 137.0 138.5 L 137.0 138.5 L 138.0 137.5 L 138.5 137.0 L 139.0 136.5 L 139.0 136.5 L 138.0 138.0 L 135.0 141.5 L 130.5 146.0 L 125.5 150.0 L 123.0 151.5 L 123.5 151.0 " stroke="black" fill="none" stroke-width="6.0" stroke-linecap="round" stroke-linejoin="round" />
<path d="M 159.0 140.5 L 159.0 140.0 L 159.0 139.5 L 159.0 139.5 L 161.5 141.5 L 166.5 144.0 L 172.5 146.5 L 177.0 148.0 L 178.5 149.0 L 178.5 149.0 " stroke="black" fill="none" stroke-width="6.0" stroke-linecap="round" stroke-linejoin="round" />
<path d="M 164.5 147.0 L 164.5 147.0 L 165.0 147.0 L 165.0 146.5 L 165.5 146.5 L 165.5 146.5 L 163.5 150.0 L 157.0 158.0 L 144.5 170.5 L 133.0 180.0 L 128.5 182.5 L 128.0 183.0 L 128.5 181.5 L 129.5 179.5 " stroke="black" fill="none" stroke-width="6.0" stroke-linecap="round" stroke-linejoin="round" />
<path d="M 141.5 150.5 L 140.5 150.5 L 139.0 150.5 L 139.0 150.5 L 139.0 151.0 L 140.5 154.0 L 144.5 160.5 L 150.5 168.5 L 159.5 175.5 L 168.5 179.5 L 175.5 182.5 L 179.0 184.0 L 180.5 184.5 L 180.5 184.5 " stroke="black" fill="none" stroke-width="6.0" stroke-linecap="round" stroke-linejoin="round" />
</svg>