<svg xmlns="http://www.w3.org/2000/svg" width="300" height="300" viewBox="0 0 300 300">
<path d="M 115.0 110.5 L 115.0 110.5 L 115.0 111.0 L 115.0 111.0 L 115.0 111.0 L 116.5 111.0 L 120.5 110.0 L 127.0 109.5 L 134.0 110.0 L 140.0 111.0 L 143.0 111.0 L 144.5 111.0 L 145.0 110.5 L 145.0 109.5 " stroke="black" fill="none" stroke-width="6.0" stroke-linecap="round" stroke-linejoin="round" />
<path d="M 132.5 100.5 L 132.5 100.5 L 132.5 100.0 L 132.5 100.0 L 132.5 100.5 L 132.5 104.5 L 132.5 111.5 L 132.5 118.0 L 133.0 120.0 " stroke="black" fill="none" stroke-width="6.0" stroke-linecap="round" stroke-linejoin="round" />
<path d="M 155.0 107.5 L 154.5 107.5 L 153.5 108.0 L 153.0 108.5 L 153.0 108.5 L 155.0 108.5 L 160.0 109.0 L 165.0 109.0 L 169.0 108.0 L 171.5 107.5 L 172.0 106.5 " stroke="black" fill="none" stroke-width="6.0" stroke-linecap="round" stroke-linejoin="round" />
<path d="M 163.5 97.5 L 163.5 97.0 L 163.0 96.5 L 162.5 96.0 L 162.5 96.0 L 162.5 96.0 L 162.5 96.0 L 162.5 98.0 L 162.5 102.5 L 162.5 109.0 L 162.5 115.0 L 162.5 118.5 L 163.0 118.5 " stroke="black" fill="none" stroke-width="6.0" stroke-linecap="round" stroke-linejoin="round" />
<path d="M 130.5 129.0 L 130.5 129.0 L 130.5 128.5 L 130.5 128.0 L 130.5 128.0 L 130.5 130.5 L 131.5 136.0 L 133.0 141.5 L 133.5 144.0 L 133.5 144.0 " stroke="black" fill="none" stroke-width="6.0" stroke-linecap="round" stroke-linejoin="round" />
<path d="M 132.0 128.5 L 132.0 128.5 L 131.5 128.5 L 131.0 128.5 L 131.0 128.5 L 133.0 128.5 L 137.5 128.0 L 144.5 127.5 L 152.5 126.5 L 159.5 126.0 L 164.5 126.0 L 168.0 126.0 L 170.0 126.0 L 170.0 126.0 L 170.0 126.0 L 169.5 126.0 L 169.0 126.5 L 169.0 128.0 L 168.5 129.5 L 168.0 133.0 L 167.0 137.5 L 166.0 142.5 L 166.0 146.5 L 166.0 148.0 L 166.0 148.0 L 166.0 147.0 " stroke="black" fill="none" stroke-width="6.0" stroke-linecap="round" stroke-linejoin="round" />
<path d="M 136.5 140.5 L 136.0 140.5 L 135.5 140.0 L 135.0 140.0 L 135.5 140.0 L 140.0 139.5 L 146.5 138.5 L 153.0 137.5 L 157.5 137.0 L 159.5 138.0 L 160.0 139.5 L 160.0 140.0 " stroke="black" fill="none" stroke-width="6.0" stroke-linecap="round" stroke-linejoin="round" />
<path d="M 136.0 149.5 L 135.5 150.0 L 135.5 150.0 L 135.5 150.0 L 139.0 149.5 L 145.5 149.0 L 153.0 148.0 L 159.0 148.0 L 163.0 147.5 L 163.5 147.5 " stroke="black" fill="none" stroke-width="6.0" stroke-linecap="round" stroke-linejoin="round" />
<path d="M 126.5 163.5 L 126.5 163.0 L 126.0 163.0 L 126.0 162.5 L 126.0 162.5 L 126.0 162.0 L 126.5 162.0 L 129.5 162.0 L 136.5 163.0 L 149.0 163.0 L 163.0 160.5 L 173.0 159.0 L 178.5 158.5 L 180.0 159.0 L 180.0 159.5 L 179.5 159.5 L 178.0 159.0 L 177.0 158.5 L 176.5 158.0 " stroke="black" fill="none" stroke-width="6.0" stroke-linecap="round" stroke-linejoin="round" />
<path d="M 148.0 157.0 L 148.5 156.5 L 149.5 155.5 L 150.0 155.0 L 150.0 154.5 L 150.0 154.5 L 150.0 155.0 L 149.0 157.5 L 144.5 164.0 L 137.5 173.0 L 130.0 181.5 L 126.5 184.5 L 126.5 184.0 L 128.5 182.0 " stroke="black" fill="none" stroke-width="6.0" stroke-linecap="round" stroke-linejoin="round" />
<path d="M 158.5 167.5 L 158.5 167.5 L 158.5 167.5 L 158.5 167.5 L 158.5 167.5 L 162.5 169.0 L 169.5 171.5 L 178.5 175.0 L 184.0 176.5 L 185.5 177.0 " stroke="black" fill="none" stroke-width="6.0" stroke-linecap="round" stroke-linejoin="round" />
<path d="M 139.0 177.0 L 139.5 177.0 L 140.0 176.5 L 140.5 176.5 L 140.5 178.5 L 141.0 184.0 L 141.5 191.0 L 142.0 195.5 L 142.0 196.5 L 142.0 196.0 " stroke="black" fill="none" stroke-width="6.0" stroke-linecap="round" stroke-linejoin="round" />
<path d="M 143.5 178.5 L 143.5 178.5 L 142.5 179.0 L 142.5 179.5 L 143.0 179.5 L 145.5 179.5 L 150.0 179.0 L 155.5 178.0 L 161.0 177.0 L 165.0 176.0 L 167.0 176.0 L 168.0 176.0 L 168.5 176.0 L 168.5 176.0 L 168.5 176.0 L 168.5 176.0 L 168.5 176.5 L 168.5 177.5 L 168.5 180.0 L 168.0 184.5 L 167.5 189.5 L 167.0 193.0 L 167.0 195.0 L 167.0 195.0 L 167.0 195.0 " stroke="black" fill="none" stroke-width="6.0" stroke-linecap="round" stroke-linejoin="round" />
<path d="M 145.0 189.0 L 144.5 189.0 L 144.0 189.0 L 144.0 189.0 L 146.5 189.0 L 150.5 188.5 L 155.5 188.0 L 159.5 187.0 L 162.0 187.0 L 163.0 187.0 L 163.0 187.0 " stroke="black" fill="none" stroke-width="6.0" stroke-linecap="round" stroke-linejoin="round" />
<path d="M 147.0 198.0 L 146.5 198.5 L 146.0 199.0 L 146.0 199.0 L 147.0 199.0 L 151.5 199.0 L 157.0 198.5 L 162.5 198.0 L 166.5 197.0 L 169.0 196.5 " stroke="black" fill="none" stroke-width="6.0" stroke-linecap="round" stroke-linejoin="round" />
</svg>