<svg xmlns="http://www.w3.org/2000/svg" width="300" height="300" viewBox="0 0 300 300">
<path d="M 137.5 115.5 L 138.5 115.0 L 139.0 114.5 L 140.5 114.0 L 141.5 113.5 L 142.0 114.5 L 141.0 119.0 L 137.5 128.0 L 132.5 137.5 L 127.5 143.5 L 126.0 144.0 L 126.5 141.5 " stroke="black" fill="none" stroke-width="6.0" stroke-linecap="round" stroke-linejoin="round" />
<path d="M 133.5 131.5 L 133.5 132.0 L 132.5 133.0 L 133.0 133.0 L 136.5 133.0 L 143.0 131.5 L 152.0 129.5 L 158.5 128.5 L 163.0 128.0 L 165.0 128.0 L 165.0 128.5 L 165.0 128.5 " stroke="black" fill="none" stroke-width="6.0" stroke-linecap="round" stroke-linejoin="round" />
<path d="M 133.0 151.5 L 131.0 153.0 L 130.0 153.0 L 131.0 153.0 L 136.0 152.5 L 144.5 152.0 L 152.5 151.5 L 159.0 150.5 L 162.0 149.0 " stroke="black" fill="none" stroke-width="6.0" stroke-linecap="round" stroke-linejoin="round" />
<path d="M 153.5 115.5 L 153.5 115.5 L 153.5 115.0 L 153.5 114.5 L 153.5 114.5 L 153.5 116.5 L 152.5 124.0 L 150.5 137.0 L 148.5 153.0 L 147.5 164.0 L 147.0 170.0 L 147.0 172.5 L 147.5 172.0 L 147.5 169.5 " stroke="black" fill="none" stroke-width="6.0" stroke-linecap="round" stroke-linejoin="round" />
<path d="M 128.5 179.5 L 128.0 180.5 L 127.5 180.5 L 128.0 180.5 L 132.0 180.5 L 140.0 180.0 L 152.0 179.0 L 165.0 177.5 L 174.5 176.0 L 177.5 175.5 L 177.0 175.5 " stroke="black" fill="none" stroke-width="6.0" stroke-linecap="round" stroke-linejoin="round" />
</svg>