<svg xmlns="http://www.w3.org/2000/svg" width="300" height="300" viewBox="0 0 300 300">
<path d="M 132.0 124.5 L 132.5 124.5 L 133.0 124.5 L 134.0 124.0 L 134.5 124.0 L 134.5 124.0 L 134.5 126.0 L 133.0 131.0 L 129.0 138.5 L 125.0 145.5 L 122.0 149.0 L 121.5 149.5 L 122.0 147.5 " stroke="black" fill="none" stroke-width="7.0" stroke-linecap="round" stroke-linejoin="round" />
<path d="M 128.5 139.5 L 128.0 140.0 L 127.5 140.0 L 128.5 140.0 L 134.5 140.0 L 144.5 138.5 L 155.0 137.5 L 162.0 137.0 L 165.5 137.0 L 165.0 137.5 L 163.5 138.0 L 162.5 138.5 " stroke="black" fill="none" stroke-width="7.0" stroke-linecap="round" stroke-linejoin="round" />
<path d="M 136.5 158.0 L 136.0 158.0 L 136.0 158.0 L 135.5 158.5 L 135.5 158.5 L 137.5 158.5 L 143.5 158.5 L 151.0 158.0 L 156.5 157.0 L 160.0 155.5 L 160.5 154.0 " stroke="black" fill="none" stroke-width="7.0" stroke-linecap="round" stroke-linejoin="round" />
<path d="M 152.0 125.5 L 152.0 125.0 L 152.0 124.5 L 152.0 124.5 L 152.0 125.0 L 151.5 130.5 L 151.0 144.0 L 150.0 161.5 L 150.0 173.0 L 150.0 177.5 L 150.0 179.0 L 149.5 179.0 " stroke="black" fill="none" stroke-width="7.0" stroke-linecap="round" stroke-linejoin="round" />
<path d="M 128.5 183.0 L 129.5 182.5 L 130.0 182.5 L 133.0 181.5 L 142.0 180.5 L 154.5 180.5 L 168.0 180.5 L 178.0 180.0 L 184.0 179.0 " stroke="black" fill="none" stroke-width="7.0" stroke-linecap="round" stroke-linejoin="round" />
</svg>