<svg xmlns="http://www.w3.org/2000/svg" width="300" height="300" viewBox="0 0 300 300">
<path d="M 124.5 118.5 L 123.0 119.0 L 121.5 119.0 L 120.5 119.0 L 120.5 119.0 L 123.0 118.5 L 126.5 118.0 L 130.5 117.5 L 134.5 116.5 L 137.0 116.5 L 138.5 116.5 L 139.0 118.0 L 138.5 121.5 L 137.5 125.5 L 136.5 130.5 L 136.5 134.5 L 136.5 137.5 L 137.0 139.5 L 138.0 140.5 " stroke="black" fill="none" stroke-width="6.0" stroke-linecap="round" stroke-linejoin="round" />
<path d="M 125.0 130.5 L 124.5 131.0 L 123.0 131.5 L 123.0 131.5 L 124.0 131.0 L 127.0 130.5 L 130.0 130.0 L 133.0 130.0 L 135.5 130.0 L 135.5 130.0 " stroke="black" fill="none" stroke-width="6.0" stroke-linecap="round" stroke-linejoin="round" />
<path d="M 125.5 139.5 L 123.0 140.0 L 122.5 140.0 L 124.0 140.0 L 127.0 139.5 L 130.0 138.5 L 133.0 138.0 L 133.5 137.5 " stroke="black" fill="none" stroke-width="6.0" stroke-linecap="round" stroke-linejoin="round" />
<path d="M 122.0 121.0 L 122.0 121.0 L 121.0 121.0 L 120.5 121.0 L 120.5 121.0 L 120.5 123.5 L 120.5 129.0 L 121.0 138.0 L 121.0 149.0 L 121.0 160.0 L 120.5 171.5 L 120.5 178.0 L 120.5 183.0 L 120.5 186.0 L 121.5 185.0 L 122.0 182.0 " stroke="black" fill="none" stroke-width="6.0" stroke-linecap="round" stroke-linejoin="round" />
<path d="M 152.0 121.5 L 152.0 121.0 L 152.5 120.5 L 152.5 120.0 L 152.5 120.0 L 153.0 121.5 L 153.0 125.5 L 153.0 130.5 L 152.0 136.0 L 152.0 138.5 L 152.5 139.0 " stroke="black" fill="none" stroke-width="6.0" stroke-linecap="round" stroke-linejoin="round" />
<path d="M 154.5 119.0 L 153.5 119.0 L 152.5 118.5 L 152.0 118.0 L 152.5 118.0 L 154.5 118.0 L 157.0 118.0 L 159.5 118.0 L 162.0 118.0 L 164.5 118.0 L 167.5 118.0 L 169.5 118.0 L 170.5 118.0 L 170.5 118.0 L 170.5 119.0 L 170.5 120.5 L 170.0 123.0 L 170.0 126.5 L 170.0 131.5 L 170.0 138.5 L 170.5 147.5 L 171.5 155.5 L 172.5 162.5 L 173.0 169.0 L 173.0 174.0 L 171.5 179.0 L 169.5 184.0 L 167.0 188.0 L 166.0 189.5 L 165.0 189.5 L 164.5 189.0 L 164.0 186.0 L 164.0 185.0 " stroke="black" fill="none" stroke-width="6.0" stroke-linecap="round" stroke-linejoin="round" />
<path d="M 156.5 127.5 L 156.5 127.5 L 156.5 128.0 L 156.5 128.0 L 157.5 128.0 L 159.0 128.0 L 161.5 128.0 L 164.0 128.0 L 166.0 128.5 " stroke="black" fill="none" stroke-width="6.0" stroke-linecap="round" stroke-linejoin="round" />
<path d="M 159.5 138.0 L 158.0 139.5 L 158.0 140.0 L 159.5 140.0 L 162.5 140.0 L 166.0 140.0 L 168.5 140.0 L 169.5 140.0 " stroke="black" fill="none" stroke-width="6.0" stroke-linecap="round" stroke-linejoin="round" />
<path d="M 133.0 153.5 L 133.5 153.5 L 134.0 154.5 L 135.0 154.5 L 137.5 154.0 L 142.0 154.0 L 146.5 154.0 L 151.0 154.0 L 154.0 154.5 " stroke="black" fill="none" stroke-width="6.0" stroke-linecap="round" stroke-linejoin="round" />
<path d="M 133.0 167.5 L 132.5 168.0 L 132.5 168.0 L 132.0 168.0 L 133.5 168.0 L 138.0 167.5 L 145.5 167.0 L 153.0 167.0 L 155.0 167.0 " stroke="black" fill="none" stroke-width="6.0" stroke-linecap="round" stroke-linejoin="round" />
<path d="M 141.0 154.5 L 141.5 156.0 L 141.5 157.0 L 141.0 159.5 L 140.0 164.5 L 139.0 171.0 L 136.5 176.0 L 134.5 179.0 L 134.0 179.0 L 134.0 177.5 " stroke="black" fill="none" stroke-width="6.0" stroke-linecap="round" stroke-linejoin="round" />
<path d="M 149.5 155.0 L 149.5 155.5 L 149.5 157.5 L 149.5 159.5 L 149.5 163.5 L 149.5 170.0 L 149.5 177.5 L 150.0 182.5 L 150.5 185.0 " stroke="black" fill="none" stroke-width="6.0" stroke-linecap="round" stroke-linejoin="round" />
</svg>