<svg xmlns="http://www.w3.org/2000/svg" width="300" height="300" viewBox="0 0 300 300">
<path d="M 150.5 119.5 L 150.5 119.5 L 150.5 119.0 L 150.5 118.5 L 150.5 118.5 L 150.5 120.0 L 150.5 124.5 L 150.5 134.0 L 150.5 149.0 L 150.5 161.5 L 150.5 169.5 L 150.5 173.0 L 151.0 175.5 L 151.0 176.5 L 151.0 176.0 L 151.5 174.0 " stroke="black" fill="none" stroke-width="6.0" stroke-linecap="round" stroke-linejoin="round" />
<path d="M 154.0 151.5 L 153.5 152.5 L 153.0 153.0 L 153.0 153.0 L 153.0 152.5 L 155.5 152.0 L 160.5 151.0 L 167.0 150.0 L 174.5 149.0 L 179.0 149.0 L 180.0 149.0 L 180.0 149.0 L 178.5 149.0 " stroke="black" fill="none" stroke-width="6.0" stroke-linecap="round" stroke-linejoin="round" />
<path d="M 133.5 181.5 L 133.5 181.5 L 133.5 181.5 L 133.5 181.5 L 133.5 181.5 L 133.5 181.5 L 134.5 181.0 L 138.0 180.5 L 145.0 180.0 L 155.0 180.0 L 164.0 179.5 L 172.0 179.5 L 178.0 179.5 L 180.5 179.5 L 181.0 180.0 " stroke="black" fill="none" stroke-width="6.0" stroke-linecap="round" stroke-linejoin="round" />
</svg>