<svg xmlns="http://www.w3.org/2000/svg" width="300" height="300" viewBox="0 0 300 300">
<path d="M 134.0 111.0 L 134.0 111.0 L 135.0 111.0 L 136.0 111.0 L 136.5 111.0 L 137.0 111.0 L 137.0 111.5 L 135.0 114.5 L 131.0 121.5 L 125.5 129.0 L 122.0 133.0 L 121.0 132.5 L 121.5 128.5 " stroke="black" fill="none" stroke-width="6.0" stroke-linecap="round" stroke-linejoin="round" />
<path d="M 130.0 123.5 L 131.0 123.5 L 131.5 123.5 L 132.0 124.0 L 132.5 128.5 L 132.5 140.0 L 131.5 157.0 L 130.5 171.5 L 130.5 177.0 L 131.0 177.5 L 131.0 175.5 " stroke="black" fill="none" stroke-width="6.0" stroke-linecap="round" stroke-linejoin="round" />
<path d="M 151.5 107.0 L 151.5 107.0 L 151.5 107.0 L 151.5 107.0 L 152.0 107.0 L 152.0 107.0 L 152.5 107.0 L 152.5 107.0 L 152.5 107.0 L 152.5 109.5 L 151.0 115.0 L 147.0 124.0 L 143.5 131.5 L 143.0 133.5 L 143.0 133.5 " stroke="black" fill="none" stroke-width="6.0" stroke-linecap="round" stroke-linejoin="round" />
<path d="M 150.0 120.0 L 149.5 120.0 L 149.0 119.5 L 149.5 119.5 L 152.0 119.5 L 158.0 118.5 L 166.0 117.5 L 174.0 116.0 L 179.0 115.5 L 179.5 115.5 " stroke="black" fill="none" stroke-width="6.0" stroke-linecap="round" stroke-linejoin="round" />
<path d="M 152.5 131.0 L 153.0 131.0 L 153.5 131.0 L 154.0 131.5 L 154.0 133.5 L 154.0 138.0 L 154.5 142.5 L 155.0 145.0 " stroke="black" fill="none" stroke-width="6.0" stroke-linecap="round" stroke-linejoin="round" />
<path d="M 156.5 129.5 L 156.5 129.5 L 156.5 130.0 L 156.5 130.0 L 158.0 130.0 L 161.0 129.5 L 166.5 128.0 L 172.0 127.0 L 176.5 127.0 L 178.5 127.5 L 178.5 128.5 L 177.5 131.0 L 176.0 135.5 L 175.0 140.5 L 175.0 144.5 L 175.0 145.5 L 175.0 146.0 L 174.5 145.5 " stroke="black" fill="none" stroke-width="6.0" stroke-linecap="round" stroke-linejoin="round" />
<path d="M 162.0 137.5 L 161.0 138.5 L 160.0 139.0 L 160.0 139.5 L 161.5 139.5 L 164.5 138.5 L 168.0 138.0 L 171.0 137.0 L 171.5 137.0 " stroke="black" fill="none" stroke-width="6.0" stroke-linecap="round" stroke-linejoin="round" />
<path d="M 157.5 148.0 L 157.5 148.0 L 157.5 148.0 L 157.5 148.0 L 160.0 148.0 L 164.5 147.5 L 169.5 146.5 L 170.5 146.5 " stroke="black" fill="none" stroke-width="6.0" stroke-linecap="round" stroke-linejoin="round" />
<path d="M 148.5 154.0 L 148.5 154.0 L 148.5 154.0 L 148.0 154.0 L 147.5 154.0 L 147.5 154.0 L 147.5 154.0 L 147.5 154.0 L 147.5 154.0 L 147.5 154.0 L 148.5 154.0 L 151.0 154.0 L 156.0 153.5 L 163.5 153.0 L 172.5 152.0 L 179.5 151.0 L 183.0 150.5 L 183.0 150.5 L 182.0 150.5 " stroke="black" fill="none" stroke-width="6.0" stroke-linecap="round" stroke-linejoin="round" />
<path d="M 155.0 163.5 L 156.0 162.5 L 157.0 161.5 L 157.5 160.5 L 158.0 160.5 L 158.0 160.0 L 157.0 161.5 L 154.5 165.5 L 152.5 169.5 L 151.0 172.5 L 151.0 173.0 " stroke="black" fill="none" stroke-width="6.0" stroke-linecap="round" stroke-linejoin="round" />
<path d="M 160.0 164.0 L 161.0 164.0 L 161.5 163.5 L 163.0 163.0 L 166.5 162.5 L 172.0 162.5 L 177.5 164.0 L 182.0 165.5 L 184.0 167.0 L 184.0 169.0 L 183.0 172.5 L 181.5 177.5 L 179.5 184.0 L 177.5 189.5 L 175.0 193.5 L 173.0 194.0 L 170.5 192.5 L 169.0 190.5 " stroke="black" fill="none" stroke-width="6.0" stroke-linecap="round" stroke-linejoin="round" />
<path d="M 166.5 166.5 L 167.0 165.5 L 167.0 164.5 L 167.0 164.5 L 165.5 167.5 L 162.5 173.5 L 159.5 178.5 L 157.5 180.5 L 157.0 180.0 " stroke="black" fill="none" stroke-width="6.0" stroke-linecap="round" stroke-linejoin="round" />
<path d="M 174.5 169.5 L 175.0 170.0 L 175.5 171.0 L 176.0 172.5 L 175.5 175.5 L 172.5 181.5 L 167.5 188.0 L 163.5 191.0 L 162.5 191.5 " stroke="black" fill="none" stroke-width="6.0" stroke-linecap="round" stroke-linejoin="round" />
</svg>