<svg xmlns="http://www.w3.org/2000/svg" width="300" height="300" viewBox="0 0 300 300">
<path d="M 126.5 116.5 L 125.0 116.5 L 124.0 116.5 L 124.0 116.5 L 126.0 116.5 L 130.0 116.0 L 135.5 116.0 L 144.5 115.5 L 157.0 113.5 L 168.5 111.5 L 175.0 111.0 L 176.0 111.0 L 175.5 111.5 L 174.5 111.5 L 173.5 111.0 L 173.0 110.5 L 173.0 110.5 " stroke="black" fill="none" stroke-width="6.0" stroke-linecap="round" stroke-linejoin="round" />
<path d="M 126.5 131.5 L 126.5 131.0 L 127.0 130.5 L 127.0 130.0 L 127.0 130.0 L 127.0 130.5 L 126.5 134.0 L 125.0 140.0 L 122.5 147.0 L 122.0 150.0 L 123.5 148.5 " stroke="black" fill="none" stroke-width="6.0" stroke-linecap="round" stroke-linejoin="round" />
<path d="M 128.5 134.5 L 128.5 134.0 L 128.5 133.0 L 128.5 132.5 L 130.0 132.0 L 133.0 132.0 L 140.0 132.0 L 150.5 131.5 L 162.0 129.5 L 170.5 128.5 L 176.0 128.0 L 178.5 128.0 L 180.0 128.0 L 180.0 128.0 L 180.0 128.0 L 180.0 128.5 L 179.5 130.0 L 179.0 132.0 L 178.5 135.0 L 178.0 138.5 L 177.5 143.0 L 176.5 147.5 L 175.5 151.0 L 175.5 153.0 L 175.0 152.5 " stroke="black" fill="none" stroke-width="6.0" stroke-linecap="round" stroke-linejoin="round" />
<path d="M 150.5 119.0 L 150.5 119.0 L 150.5 118.5 L 150.5 118.0 L 150.5 120.5 L 150.5 126.0 L 151.0 134.0 L 151.0 143.0 L 151.5 149.0 L 151.5 152.0 L 151.5 153.0 L 151.5 152.5 L 151.5 152.0 " stroke="black" fill="none" stroke-width="6.0" stroke-linecap="round" stroke-linejoin="round" />
<path d="M 138.5 143.5 L 138.0 143.0 L 137.5 142.5 L 137.0 142.0 L 137.0 142.5 L 138.5 144.0 L 141.0 147.0 L 141.5 148.0 " stroke="black" fill="none" stroke-width="6.0" stroke-linecap="round" stroke-linejoin="round" />
<path d="M 132.0 157.0 L 132.5 157.0 L 133.0 157.0 L 134.5 156.5 L 136.0 155.5 L 138.5 154.5 L 140.5 154.0 " stroke="black" fill="none" stroke-width="6.0" stroke-linecap="round" stroke-linejoin="round" />
<path d="M 168.5 137.0 L 168.0 137.5 L 167.0 138.5 L 166.5 139.5 L 165.5 141.0 L 165.0 142.5 L 165.0 144.0 " stroke="black" fill="none" stroke-width="6.0" stroke-linecap="round" stroke-linejoin="round" />
<path d="M 161.0 151.0 L 161.0 151.5 L 161.0 152.5 L 161.0 153.5 L 162.5 154.0 L 164.5 154.5 L 167.0 155.5 L 168.0 155.5 " stroke="black" fill="none" stroke-width="6.0" stroke-linecap="round" stroke-linejoin="round" />
<path d="M 138.0 171.0 L 138.0 170.5 L 138.0 170.5 L 138.5 170.0 L 139.0 169.5 L 141.0 169.0 L 144.0 169.0 L 148.0 169.0 L 152.5 169.0 L 156.0 169.0 L 158.5 169.0 L 159.5 169.0 L 159.5 169.0 L 160.0 169.0 L 160.0 169.0 L 160.0 169.0 L 160.0 169.0 L 160.0 169.0 " stroke="black" fill="none" stroke-width="6.0" stroke-linecap="round" stroke-linejoin="round" />
<path d="M 127.5 178.0 L 127.0 178.5 L 126.5 179.0 L 126.5 179.0 L 127.0 179.0 L 129.5 179.0 L 133.0 179.0 L 137.5 179.0 L 143.5 179.0 L 150.5 178.5 L 157.0 178.5 L 163.0 179.0 L 167.5 179.0 L 170.0 179.5 L 171.0 179.5 L 171.0 179.5 L 171.0 179.5 L 171.0 179.5 L 171.0 179.5 L 171.5 179.5 L 172.0 179.5 L 173.0 179.5 L 173.0 179.5 L 173.5 179.5 L 173.5 180.0 " stroke="black" fill="none" stroke-width="6.0" stroke-linecap="round" stroke-linejoin="round" />
<path d="M 151.0 179.0 L 151.5 179.0 L 151.5 178.5 L 152.0 178.5 L 152.0 178.5 L 152.0 179.0 L 149.5 182.0 L 145.0 187.5 L 139.5 193.5 L 135.5 197.0 L 134.0 198.0 L 134.0 198.0 L 134.0 198.0 L 134.5 198.0 L 134.5 198.0 L 134.5 197.5 L 135.0 197.5 L 137.0 197.5 L 140.0 197.0 L 145.0 197.0 L 151.0 197.0 L 157.5 197.0 L 162.5 197.5 L 165.5 198.0 L 166.5 198.5 L 166.5 198.5 L 166.5 198.5 L 166.0 198.5 L 166.0 198.5 " stroke="black" fill="none" stroke-width="6.0" stroke-linecap="round" stroke-linejoin="round" />
<path d="M 164.0 190.5 L 164.0 190.5 L 163.0 190.5 L 163.0 190.5 L 163.5 191.0 L 166.0 193.5 L 169.0 197.0 L 172.0 200.5 L 173.5 203.0 L 174.0 204.0 " stroke="black" fill="none" stroke-width="6.0" stroke-linecap="round" stroke-linejoin="round" />
</svg>