<svg xmlns="http://www.w3.org/2000/svg" width="300" height="300" viewBox="0 0 300 300">
<path d="M 125.5 117.0 L 126.0 116.0 L 126.0 115.5 L 126.5 115.5 L 127.0 115.5 L 127.0 115.5 L 127.0 118.0 L 126.5 124.0 L 125.0 132.5 L 123.0 143.0 L 121.5 151.5 L 120.5 155.5 L 120.5 157.0 L 121.0 157.5 L 121.5 158.5 L 123.5 160.5 L 125.5 163.5 L 128.5 167.5 L 132.5 173.0 L 136.0 179.0 L 138.0 183.0 L 139.0 186.5 L 140.0 188.5 L 140.5 189.0 L 140.5 189.0 L 140.5 188.5 " stroke="black" fill="none" stroke-width="6.0" stroke-linecap="round" stroke-linejoin="round" />
<path d="M 132.5 142.5 L 133.0 141.5 L 133.0 140.5 L 133.5 140.0 L 133.5 140.0 L 133.5 141.0 L 133.0 144.5 L 132.0 151.5 L 129.5 162.5 L 127.0 174.0 L 125.5 179.5 L 125.5 180.5 L 125.0 179.0 L 125.0 178.0 " stroke="black" fill="none" stroke-width="6.0" stroke-linecap="round" stroke-linejoin="round" />
<path d="M 112.5 148.5 L 112.5 148.5 L 112.5 149.0 L 113.5 149.0 L 117.5 148.0 L 126.0 145.5 L 134.5 143.5 L 140.5 142.0 L 142.5 140.5 L 142.5 140.0 " stroke="black" fill="none" stroke-width="6.0" stroke-linecap="round" stroke-linejoin="round" />
<path d="M 149.5 121.5 L 149.5 121.5 L 149.5 120.0 L 149.5 120.0 L 150.5 120.0 L 154.0 120.0 L 159.0 119.5 L 165.0 119.0 L 170.0 118.0 L 173.0 117.5 L 173.0 117.0 L 172.5 117.0 L 172.0 117.0 " stroke="black" fill="none" stroke-width="6.0" stroke-linecap="round" stroke-linejoin="round" />
<path d="M 164.0 106.0 L 163.0 106.5 L 162.5 107.0 L 162.5 108.0 L 162.5 111.5 L 162.5 118.0 L 163.0 124.5 L 163.0 128.0 L 163.5 129.0 " stroke="black" fill="none" stroke-width="6.0" stroke-linecap="round" stroke-linejoin="round" />
<path d="M 151.5 130.0 L 151.0 131.0 L 151.0 131.5 L 151.0 131.5 L 153.0 131.5 L 157.0 131.0 L 163.5 130.5 L 170.0 129.0 L 175.0 127.5 L 177.5 127.0 L 177.5 127.0 L 176.5 127.5 " stroke="black" fill="none" stroke-width="6.0" stroke-linecap="round" stroke-linejoin="round" />
<path d="M 155.5 141.5 L 155.5 141.0 L 155.5 140.0 L 156.0 140.0 L 156.5 142.5 L 157.5 145.5 L 159.0 148.0 L 160.0 148.5 " stroke="black" fill="none" stroke-width="6.0" stroke-linecap="round" stroke-linejoin="round" />
<path d="M 158.0 142.0 L 157.5 141.5 L 157.0 140.5 L 157.0 140.0 L 157.0 140.0 L 159.5 139.5 L 163.5 139.0 L 168.0 138.5 L 172.5 137.5 L 175.5 137.5 L 177.5 137.5 L 177.5 137.5 L 177.5 139.0 L 177.0 141.5 L 176.0 144.5 L 175.0 147.5 L 174.0 149.0 L 173.0 150.0 L 173.0 150.0 " stroke="black" fill="none" stroke-width="6.0" stroke-linecap="round" stroke-linejoin="round" />
<path d="M 162.5 150.0 L 162.0 150.5 L 162.0 151.0 L 162.0 151.0 L 163.0 151.5 L 165.5 151.5 L 168.0 151.5 L 170.0 151.0 " stroke="black" fill="none" stroke-width="6.0" stroke-linecap="round" stroke-linejoin="round" />
<path d="M 161.5 156.5 L 161.0 156.5 L 161.0 156.5 L 161.0 157.0 L 161.0 158.5 L 161.5 161.0 L 163.0 163.0 L 164.5 164.0 " stroke="black" fill="none" stroke-width="6.0" stroke-linecap="round" stroke-linejoin="round" />
<path d="M 174.0 156.0 L 174.5 156.0 L 175.0 156.5 L 175.0 157.0 L 175.0 158.0 L 174.5 160.0 L 173.5 162.5 L 172.5 164.0 " stroke="black" fill="none" stroke-width="6.0" stroke-linecap="round" stroke-linejoin="round" />
<path d="M 151.0 170.0 L 151.5 170.0 L 153.0 169.5 L 155.5 169.5 L 160.0 169.5 L 168.0 169.5 L 177.0 168.0 L 184.0 166.0 L 186.5 165.5 " stroke="black" fill="none" stroke-width="6.0" stroke-linecap="round" stroke-linejoin="round" />
<path d="M 157.5 178.0 L 158.0 178.0 L 158.5 178.0 L 159.0 178.0 L 159.0 178.5 L 159.5 182.0 L 160.0 186.5 L 160.5 190.0 L 160.5 191.0 L 160.5 191.0 " stroke="black" fill="none" stroke-width="6.0" stroke-linecap="round" stroke-linejoin="round" />
<path d="M 161.0 181.0 L 161.0 180.5 L 160.5 180.0 L 160.5 180.0 L 161.0 179.5 L 163.0 179.5 L 166.5 178.5 L 171.0 177.5 L 176.0 176.5 L 179.0 176.0 L 179.5 176.0 L 180.0 177.0 L 180.0 179.0 L 179.5 182.0 L 178.5 185.5 L 178.0 189.0 L 177.0 190.5 L 176.0 191.0 " stroke="black" fill="none" stroke-width="6.0" stroke-linecap="round" stroke-linejoin="round" />
<path d="M 162.0 192.5 L 162.0 192.5 L 162.0 192.5 L 162.0 193.0 L 163.5 193.0 L 166.5 192.5 L 170.5 191.5 L 174.5 191.0 L 175.5 190.5 " stroke="black" fill="none" stroke-width="6.0" stroke-linecap="round" stroke-linejoin="round" />
</svg>