<svg xmlns="http://www.w3.org/2000/svg" width="300" height="300" viewBox="0 0 300 300">
<path d="M 154.0 138.5 L 154.0 138.0 L 154.0 137.5 L 154.0 137.5 L 154.0 137.0 L 153.0 136.5 L 152.0 136.5 L 150.0 136.5 L 147.5 138.5 L 145.0 141.5 L 143.5 145.5 L 143.0 149.5 L 144.0 152.5 L 146.0 154.5 L 148.0 156.0 L 150.0 156.5 L 152.0 157.0 L 154.0 156.0 L 156.5 154.5 L 158.0 152.0 L 159.0 149.0 L 159.0 146.5 L 159.0 143.5 L 158.0 141.0 L 157.0 138.5 L 155.5 136.5 L 154.5 135.5 L 154.0 135.5 L 153.5 136.5 L 153.5 136.5 " stroke="black" fill="none" stroke-width="6.0" stroke-linecap="round" stroke-linejoin="round" />
</svg>