<svg xmlns="http://www.w3.org/2000/svg" width="300" height="300" viewBox="0 0 300 300">
<path d="M 125.0 120.0 L 124.5 120.0 L 123.5 120.5 L 123.0 120.5 L 122.5 120.5 L 122.5 120.5 L 122.5 120.5 L 123.5 120.5 L 126.0 120.5 L 129.5 121.0 L 134.0 121.5 L 139.0 121.5 L 143.0 120.5 L 145.0 120.0 L 145.0 119.5 L 145.0 119.5 L 145.0 119.5 L 144.5 119.5 L 144.5 119.5 " stroke="black" fill="none" stroke-width="6.0" stroke-linecap="round" stroke-linejoin="round" />
<path d="M 135.5 111.5 L 135.5 112.0 L 135.5 112.5 L 135.5 113.0 L 135.5 114.0 L 135.5 117.5 L 135.5 125.0 L 135.0 133.0 L 134.0 139.5 L 133.5 142.5 L 133.5 142.5 L 133.0 142.0 L 133.0 141.0 " stroke="black" fill="none" stroke-width="6.0" stroke-linecap="round" stroke-linejoin="round" />
<path d="M 134.0 123.5 L 135.0 123.5 L 135.5 123.0 L 135.5 123.0 L 134.5 123.5 L 132.0 126.0 L 127.0 131.0 L 121.0 136.5 L 118.0 139.0 L 117.5 139.5 L 120.5 137.0 L 121.5 136.0 " stroke="black" fill="none" stroke-width="6.0" stroke-linecap="round" stroke-linejoin="round" />
<path d="M 133.5 128.5 L 134.0 128.5 L 134.5 128.5 L 135.5 129.0 L 137.5 129.0 L 141.0 129.5 L 145.0 131.0 L 148.5 132.0 L 150.5 132.5 L 151.0 132.5 " stroke="black" fill="none" stroke-width="6.0" stroke-linecap="round" stroke-linejoin="round" />
<path d="M 160.5 121.0 L 159.5 121.0 L 158.5 120.5 L 158.5 120.5 L 161.5 120.0 L 166.0 120.0 L 170.5 119.5 L 173.5 119.0 L 175.0 119.0 L 175.5 118.5 L 175.5 118.0 " stroke="black" fill="none" stroke-width="6.0" stroke-linecap="round" stroke-linejoin="round" />
<path d="M 170.0 110.5 L 169.5 110.5 L 169.0 110.5 L 168.5 111.0 L 168.5 111.5 L 168.5 115.0 L 168.5 122.0 L 168.5 132.5 L 169.0 140.0 L 169.0 144.0 L 169.5 144.5 L 169.5 143.5 L 170.0 142.0 " stroke="black" fill="none" stroke-width="6.0" stroke-linecap="round" stroke-linejoin="round" />
<path d="M 170.0 123.0 L 170.0 123.0 L 169.5 123.0 L 169.5 123.0 L 169.0 123.0 L 168.0 124.0 L 165.0 128.5 L 161.0 135.0 L 158.5 139.0 L 158.0 139.5 L 158.0 139.0 L 158.0 138.0 " stroke="black" fill="none" stroke-width="6.0" stroke-linecap="round" stroke-linejoin="round" />
<path d="M 172.0 125.5 L 172.0 125.5 L 172.0 125.5 L 171.5 125.5 L 173.0 126.0 L 176.0 127.5 L 179.0 129.0 L 181.0 130.0 L 182.0 131.0 L 182.0 131.0 " stroke="black" fill="none" stroke-width="6.0" stroke-linecap="round" stroke-linejoin="round" />
<path d="M 131.5 150.0 L 131.5 150.0 L 131.0 150.0 L 131.0 150.0 L 131.0 150.0 L 131.0 150.0 L 131.0 150.0 L 131.5 149.5 L 134.0 149.5 L 140.5 149.5 L 150.0 150.0 L 161.0 149.5 L 169.5 149.5 L 174.0 149.5 L 177.0 149.5 L 179.0 149.5 L 180.0 149.0 L 180.5 149.0 L 180.5 149.0 L 181.0 149.0 L 181.0 149.0 L 181.0 149.0 L 181.0 149.0 L 181.0 149.0 L 181.0 149.0 L 181.0 149.0 L 180.5 149.5 L 179.5 151.0 L 178.5 153.0 L 177.5 155.5 L 176.5 157.5 L 176.5 159.0 L 176.5 159.5 L 176.5 159.5 " stroke="black" fill="none" stroke-width="6.0" stroke-linecap="round" stroke-linejoin="round" />
<path d="M 155.0 157.0 L 155.0 157.0 L 155.5 157.0 L 155.5 156.5 L 155.5 156.5 L 155.5 158.0 L 155.5 161.5 L 155.5 166.0 L 155.5 169.5 L 155.5 171.0 L 155.5 171.0 " stroke="black" fill="none" stroke-width="6.0" stroke-linecap="round" stroke-linejoin="round" />
<path d="M 154.5 162.5 L 154.5 162.5 L 155.5 163.0 L 156.5 163.5 L 158.5 163.5 L 161.5 163.5 L 164.0 162.0 L 166.0 161.0 " stroke="black" fill="none" stroke-width="6.0" stroke-linecap="round" stroke-linejoin="round" />
<path d="M 136.0 159.5 L 136.5 159.5 L 137.0 159.5 L 137.5 159.0 L 137.5 158.5 L 137.5 158.5 L 137.0 159.0 L 135.5 162.0 L 132.5 167.0 L 129.0 172.5 L 126.0 177.0 L 124.0 179.0 L 124.0 179.0 L 124.0 178.5 L 126.0 176.5 " stroke="black" fill="none" stroke-width="6.0" stroke-linecap="round" stroke-linejoin="round" />
<path d="M 131.0 171.5 L 131.0 171.5 L 131.0 171.5 L 131.0 171.5 L 131.5 171.5 L 134.0 171.5 L 138.0 172.0 L 144.0 173.5 L 151.5 175.0 L 159.0 175.5 L 166.5 175.5 L 172.5 175.5 L 176.5 175.5 L 178.5 175.5 L 179.5 175.5 L 179.5 175.5 L 178.5 175.5 L 178.0 175.5 " stroke="black" fill="none" stroke-width="6.0" stroke-linecap="round" stroke-linejoin="round" />
</svg>