<svg xmlns="http://www.w3.org/2000/svg" width="300" height="300" viewBox="0 0 300 300">
<path d="M 131.5 115.0 L 131.5 115.0 L 132.0 115.0 L 132.5 114.5 L 133.0 114.5 L 133.5 114.0 L 133.5 114.0 L 134.5 114.0 L 134.5 116.0 L 135.0 120.5 L 135.0 126.0 L 135.0 129.5 L 135.0 130.5 L 135.0 130.0 L 135.0 129.5 " stroke="black" fill="none" stroke-width="6.0" stroke-linecap="round" stroke-linejoin="round" />
<path d="M 124.5 125.0 L 124.0 125.0 L 123.5 124.5 L 123.0 124.5 L 124.5 124.5 L 128.5 124.0 L 133.5 123.5 L 138.0 123.0 L 141.5 123.0 L 143.5 123.0 " stroke="black" fill="none" stroke-width="6.0" stroke-linecap="round" stroke-linejoin="round" />
<path d="M 154.0 122.5 L 154.0 122.5 L 154.0 122.0 L 154.5 121.5 L 156.0 121.0 L 160.5 121.0 L 165.0 120.5 L 169.0 120.5 L 170.5 120.5 L 171.0 120.5 " stroke="black" fill="none" stroke-width="6.0" stroke-linecap="round" stroke-linejoin="round" />
<path d="M 164.0 112.0 L 163.0 112.5 L 162.0 113.0 L 162.0 116.5 L 162.0 122.0 L 162.5 127.5 L 163.5 131.0 L 163.5 131.5 " stroke="black" fill="none" stroke-width="6.0" stroke-linecap="round" stroke-linejoin="round" />
<path d="M 125.5 143.0 L 125.5 143.0 L 125.0 142.0 L 125.0 142.0 L 126.0 142.0 L 130.0 142.0 L 138.0 141.5 L 149.5 141.0 L 160.5 140.5 L 167.5 140.5 L 170.5 140.5 L 171.0 140.5 L 170.0 140.0 L 169.0 139.5 L 168.5 139.5 " stroke="black" fill="none" stroke-width="6.0" stroke-linecap="round" stroke-linejoin="round" />
<path d="M 146.0 133.0 L 146.0 133.0 L 146.0 133.5 L 146.0 133.5 L 146.0 134.0 L 146.0 135.5 L 145.0 139.5 L 141.5 148.0 L 135.5 159.5 L 130.5 166.0 L 127.0 168.5 L 125.5 169.0 L 125.5 169.0 L 126.0 168.5 " stroke="black" fill="none" stroke-width="6.0" stroke-linecap="round" stroke-linejoin="round" />
<path d="M 141.0 155.5 L 141.0 155.5 L 140.5 156.0 L 140.5 156.5 L 140.0 157.5 L 140.0 161.5 L 140.5 168.0 L 141.0 173.0 L 141.0 175.0 L 141.5 174.5 " stroke="black" fill="none" stroke-width="6.0" stroke-linecap="round" stroke-linejoin="round" />
<path d="M 142.0 155.5 L 141.5 155.5 L 140.5 156.5 L 140.5 156.5 L 140.5 156.5 L 143.0 156.5 L 146.5 156.0 L 151.0 155.5 L 156.5 155.0 L 161.5 154.5 L 164.0 154.5 L 165.0 154.5 L 165.0 155.0 L 164.5 155.0 L 164.0 155.0 L 164.0 155.5 L 164.0 157.0 L 164.0 159.0 L 163.5 162.5 L 163.0 167.0 L 162.5 173.0 L 162.5 176.5 L 162.5 177.5 L 162.5 177.5 L 162.5 176.0 " stroke="black" fill="none" stroke-width="6.0" stroke-linecap="round" stroke-linejoin="round" />
<path d="M 143.5 179.5 L 142.5 180.0 L 141.0 180.5 L 141.0 180.5 L 143.0 180.5 L 148.0 180.0 L 154.0 179.0 L 159.5 178.0 L 164.5 178.0 L 165.0 178.0 " stroke="black" fill="none" stroke-width="6.0" stroke-linecap="round" stroke-linejoin="round" />
</svg>