<svg xmlns="http://www.w3.org/2000/svg" width="300" height="300" viewBox="0 0 300 300">
<path d="M 135.5 118.0 L 135.5 117.5 L 136.0 116.5 L 136.5 115.5 L 136.5 115.0 L 136.5 115.0 L 136.5 116.0 L 137.0 119.5 L 137.5 125.0 L 137.5 129.0 L 137.5 131.0 L 137.0 131.5 " stroke="black" fill="none" stroke-width="6.0" stroke-linecap="round" stroke-linejoin="round" />
<path d="M 126.0 127.0 L 126.0 126.5 L 124.5 126.0 L 124.5 126.0 L 126.0 126.0 L 129.5 125.5 L 133.5 125.5 L 137.5 125.0 L 142.0 124.0 L 144.0 123.5 " stroke="black" fill="none" stroke-width="6.0" stroke-linecap="round" stroke-linejoin="round" />
<path d="M 169.0 109.5 L 168.5 109.5 L 167.5 110.0 L 167.0 111.0 L 167.0 113.5 L 167.0 119.0 L 167.0 124.5 L 167.0 128.5 L 167.0 129.0 L 167.0 129.0 " stroke="black" fill="none" stroke-width="6.0" stroke-linecap="round" stroke-linejoin="round" />
<path d="M 154.5 123.0 L 155.0 122.5 L 155.5 122.5 L 156.0 122.0 L 157.5 121.5 L 161.5 121.0 L 166.5 121.0 L 170.5 121.0 L 173.5 121.0 L 173.5 121.0 " stroke="black" fill="none" stroke-width="6.0" stroke-linecap="round" stroke-linejoin="round" />
<path d="M 127.0 151.0 L 127.0 151.0 L 127.0 151.0 L 127.5 151.0 L 128.0 151.5 L 131.0 151.0 L 140.0 149.5 L 153.5 147.0 L 166.0 145.0 L 173.5 145.0 L 176.0 145.0 L 176.0 145.5 L 176.0 145.5 L 176.0 145.5 L 176.0 145.5 L 176.0 145.5 L 176.0 145.0 L 176.0 145.0 L 176.0 145.0 L 176.0 145.0 " stroke="black" fill="none" stroke-width="6.0" stroke-linecap="round" stroke-linejoin="round" />
<path d="M 146.0 139.0 L 146.0 139.0 L 145.5 138.5 L 145.5 138.5 L 145.5 138.5 L 145.5 139.5 L 145.5 143.0 L 143.0 150.5 L 136.5 161.0 L 129.0 170.5 L 123.5 175.5 L 121.5 176.5 L 122.0 175.5 L 123.5 173.0 " stroke="black" fill="none" stroke-width="6.0" stroke-linecap="round" stroke-linejoin="round" />
<path d="M 137.0 164.5 L 137.0 163.5 L 137.0 163.0 L 137.0 163.0 L 137.0 164.0 L 138.0 167.5 L 139.0 172.0 L 139.0 176.5 L 139.5 179.5 L 139.5 179.5 " stroke="black" fill="none" stroke-width="6.0" stroke-linecap="round" stroke-linejoin="round" />
<path d="M 138.0 165.5 L 138.0 165.0 L 137.5 165.0 L 137.5 165.0 L 138.5 165.0 L 141.5 165.0 L 147.0 164.0 L 154.5 163.0 L 163.0 161.5 L 170.0 160.5 L 173.0 160.0 L 173.0 160.5 L 172.5 160.5 L 172.0 161.5 L 172.0 162.0 L 171.5 163.0 L 171.0 165.0 L 170.0 168.5 L 168.5 172.5 L 167.5 176.0 L 167.5 178.5 L 167.5 179.5 L 168.0 180.0 L 168.0 180.0 " stroke="black" fill="none" stroke-width="6.0" stroke-linecap="round" stroke-linejoin="round" />
<path d="M 143.0 184.5 L 143.0 184.0 L 142.5 183.5 L 142.5 183.5 L 143.0 183.0 L 145.5 183.0 L 151.0 183.5 L 159.0 183.5 L 167.5 183.0 L 172.5 181.5 L 173.0 181.0 " stroke="black" fill="none" stroke-width="6.0" stroke-linecap="round" stroke-linejoin="round" />
</svg>