<svg xmlns="http://www.w3.org/2000/svg" width="300" height="300" viewBox="0 0 300 300">
<path d="M 134.0 115.0 L 135.0 116.0 L 135.5 116.5 L 136.0 119.0 L 136.5 124.5 L 137.0 131.0 L 137.5 134.5 L 137.5 135.5 L 137.5 135.5 L 137.0 135.0 " stroke="black" fill="none" stroke-width="6.0" stroke-linecap="round" stroke-linejoin="round" />
<path d="M 127.5 127.0 L 127.0 127.0 L 125.5 128.0 L 125.0 128.0 L 126.0 128.0 L 128.0 128.0 L 131.5 128.0 L 135.0 127.5 L 138.5 127.0 L 141.0 126.5 " stroke="black" fill="none" stroke-width="6.0" stroke-linecap="round" stroke-linejoin="round" />
<path d="M 151.0 124.5 L 151.0 124.5 L 151.0 124.5 L 151.5 124.5 L 153.0 124.5 L 158.0 124.5 L 164.0 124.0 L 168.5 123.0 L 170.5 122.5 L 171.0 122.0 " stroke="black" fill="none" stroke-width="6.0" stroke-linecap="round" stroke-linejoin="round" />
<path d="M 162.5 112.0 L 162.0 112.5 L 161.0 113.0 L 160.5 114.0 L 160.5 117.5 L 161.0 124.0 L 161.5 131.0 L 162.0 134.5 L 162.5 136.0 L 162.5 135.5 " stroke="black" fill="none" stroke-width="6.0" stroke-linecap="round" stroke-linejoin="round" />
<path d="M 121.0 148.5 L 121.0 148.5 L 121.5 148.5 L 122.5 149.0 L 127.0 148.5 L 137.0 147.0 L 149.0 145.5 L 159.0 144.5 L 165.5 144.0 L 167.5 144.0 L 167.5 144.0 L 167.5 144.0 L 167.5 144.0 L 168.0 144.0 L 168.5 144.0 L 169.0 144.0 L 169.0 144.0 L 169.0 144.5 " stroke="black" fill="none" stroke-width="6.0" stroke-linecap="round" stroke-linejoin="round" />
<path d="M 144.0 138.0 L 144.0 138.5 L 144.0 139.0 L 143.5 139.0 L 143.5 140.0 L 143.0 141.0 L 142.5 143.5 L 139.5 148.5 L 135.0 155.5 L 128.5 162.5 L 124.0 166.5 L 122.0 167.5 L 122.0 167.5 L 123.5 166.5 L 124.0 166.0 " stroke="black" fill="none" stroke-width="6.0" stroke-linecap="round" stroke-linejoin="round" />
<path d="M 135.5 162.0 L 135.5 161.5 L 136.0 160.5 L 136.0 160.0 L 136.5 160.0 L 137.0 161.5 L 138.0 167.0 L 138.5 173.5 L 138.5 178.5 L 139.0 180.5 L 139.0 179.0 L 139.0 178.0 " stroke="black" fill="none" stroke-width="6.0" stroke-linecap="round" stroke-linejoin="round" />
<path d="M 137.5 161.5 L 137.5 161.5 L 137.0 161.5 L 137.0 162.0 L 137.5 162.0 L 140.0 162.0 L 146.0 161.5 L 153.5 160.0 L 161.5 158.5 L 166.5 158.5 L 168.0 158.5 L 168.0 159.0 L 167.0 159.5 L 166.5 160.5 L 165.5 162.0 L 164.5 164.5 L 163.5 168.5 L 162.0 172.0 L 161.5 175.0 L 161.5 176.5 L 161.5 177.0 L 162.0 176.0 L 162.0 175.0 " stroke="black" fill="none" stroke-width="6.0" stroke-linecap="round" stroke-linejoin="round" />
<path d="M 143.0 180.0 L 142.5 180.0 L 142.0 180.5 L 141.5 180.5 L 141.5 180.5 L 142.0 180.5 L 143.5 180.0 L 146.0 179.5 L 148.5 179.5 L 151.5 179.0 L 155.0 178.5 L 158.5 178.0 L 161.0 177.0 L 162.5 176.5 L 162.5 176.5 L 162.5 176.5 L 162.5 176.5 L 162.5 177.0 L 162.5 177.0 L 162.5 177.5 " stroke="black" fill="none" stroke-width="6.0" stroke-linecap="round" stroke-linejoin="round" />
</svg>