<svg xmlns="http://www.w3.org/2000/svg" width="300" height="300" viewBox="0 0 300 300">
<path d="M 128.0 119.0 L 128.5 119.0 L 129.0 119.0 L 129.5 118.5 L 131.5 118.5 L 136.0 118.5 L 146.0 118.5 L 159.0 117.5 L 168.5 117.0 L 174.0 117.0 L 176.0 117.5 L 176.0 117.5 L 175.5 117.5 L 175.5 117.5 L 175.0 117.5 L 175.0 117.5 L 175.0 117.5 L 175.0 117.5 " stroke="black" fill="none" stroke-width="6.0" stroke-linecap="round" stroke-linejoin="round" />
<path d="M 150.5 121.5 L 150.5 121.5 L 151.0 120.5 L 151.5 120.0 L 152.0 120.0 L 152.0 120.0 L 151.5 122.5 L 150.5 127.5 L 149.0 135.0 L 148.5 136.5 L 148.5 136.0 " stroke="black" fill="none" stroke-width="6.0" stroke-linecap="round" stroke-linejoin="round" />
<path d="M 130.0 140.0 L 130.5 139.5 L 131.0 139.0 L 131.0 139.5 L 131.0 143.5 L 131.0 150.5 L 131.0 161.0 L 131.0 169.5 L 131.5 173.5 L 131.5 174.0 L 131.5 171.0 " stroke="black" fill="none" stroke-width="6.0" stroke-linecap="round" stroke-linejoin="round" />
<path d="M 133.5 138.0 L 133.5 138.0 L 133.5 138.5 L 133.5 139.0 L 134.0 139.5 L 136.0 139.5 L 142.5 139.5 L 152.5 139.0 L 162.5 137.5 L 170.0 137.0 L 173.5 137.0 L 174.5 137.5 L 175.0 138.0 L 175.5 138.5 L 175.5 138.5 L 176.0 138.5 L 177.5 138.5 L 178.5 138.0 L 179.0 137.5 L 179.5 137.5 L 179.5 137.5 L 179.5 137.5 L 179.5 137.5 L 179.5 137.5 L 179.5 137.5 L 179.5 137.5 L 179.5 137.5 L 179.5 137.5 L 179.5 138.0 L 179.5 138.0 L 179.5 138.5 L 179.5 139.0 L 179.5 140.5 L 179.5 143.0 L 179.5 147.0 L 179.5 153.5 L 179.5 160.5 L 179.5 166.5 L 179.0 172.0 L 179.0 176.5 L 179.0 181.0 L 179.0 185.5 L 179.0 188.5 L 179.0 190.5 L 178.0 191.0 L 176.0 190.0 L 173.0 187.5 L 169.5 184.5 L 168.5 183.5 " stroke="black" fill="none" stroke-width="6.0" stroke-linecap="round" stroke-linejoin="round" />
<path d="M 148.5 146.5 L 148.5 146.0 L 148.5 145.0 L 148.0 145.0 L 148.0 145.0 L 148.0 148.0 L 148.5 155.0 L 148.5 165.0 L 148.5 171.5 L 148.5 172.0 L 149.0 170.0 " stroke="black" fill="none" stroke-width="6.0" stroke-linecap="round" stroke-linejoin="round" />
<path d="M 161.5 142.5 L 161.5 142.5 L 162.5 142.5 L 163.0 142.5 L 163.5 144.0 L 164.0 149.0 L 164.0 158.0 L 164.0 166.5 L 164.0 170.0 L 164.0 170.5 " stroke="black" fill="none" stroke-width="6.0" stroke-linecap="round" stroke-linejoin="round" />
</svg>