<svg xmlns="http://www.w3.org/2000/svg" width="300" height="300" viewBox="0 0 300 300">
<path d="M 132.0 105.5 L 132.0 106.0 L 131.5 106.5 L 131.5 106.5 L 131.5 106.5 L 133.5 106.0 L 138.5 105.0 L 147.5 103.5 L 157.0 102.5 L 165.0 102.0 L 168.5 102.0 L 169.5 102.0 L 169.5 102.0 L 169.5 102.0 L 170.0 101.5 L 170.5 101.5 L 171.0 101.5 L 171.5 101.5 L 171.5 101.5 L 171.5 102.0 " stroke="black" fill="none" stroke-width="6.0" stroke-linecap="round" stroke-linejoin="round" />
<path d="M 140.0 118.5 L 140.0 118.5 L 138.5 118.5 L 138.0 118.0 L 137.5 118.0 L 138.0 118.0 L 141.0 118.0 L 145.5 118.0 L 151.5 117.5 L 157.0 117.0 L 162.0 116.5 L 164.5 116.5 L 164.5 117.0 " stroke="black" fill="none" stroke-width="6.0" stroke-linecap="round" stroke-linejoin="round" />
<path d="M 127.0 130.5 L 126.5 130.5 L 125.5 131.5 L 124.5 131.5 L 123.5 132.0 L 122.5 132.0 L 122.5 132.0 L 125.5 132.0 L 131.0 132.0 L 140.0 132.0 L 151.5 131.0 L 164.0 129.0 L 172.0 128.0 L 175.5 128.0 L 175.5 128.0 L 174.5 128.5 L 173.5 128.0 " stroke="black" fill="none" stroke-width="6.0" stroke-linecap="round" stroke-linejoin="round" />
<path d="M 154.0 93.0 L 154.0 93.0 L 154.5 93.0 L 154.5 93.0 L 155.0 93.5 L 154.5 97.5 L 153.0 105.5 L 150.0 118.0 L 146.5 130.0 L 143.0 140.0 L 139.0 149.0 L 134.0 156.0 L 130.5 161.0 L 127.5 163.5 L 125.5 164.5 L 125.5 164.0 L 126.5 162.0 " stroke="black" fill="none" stroke-width="6.0" stroke-linecap="round" stroke-linejoin="round" />
<path d="M 150.5 134.5 L 150.0 134.5 L 149.5 134.5 L 149.5 134.5 L 150.0 135.5 L 153.0 138.5 L 159.0 144.5 L 167.5 150.5 L 176.0 154.5 L 182.0 156.5 L 185.0 158.0 " stroke="black" fill="none" stroke-width="6.0" stroke-linecap="round" stroke-linejoin="round" />
<path d="M 139.0 155.0 L 139.0 155.0 L 139.5 154.5 L 139.5 154.0 L 139.5 154.0 L 140.0 156.5 L 141.0 163.0 L 141.5 170.5 L 142.5 176.0 L 143.0 177.5 L 144.0 175.5 " stroke="black" fill="none" stroke-width="6.0" stroke-linecap="round" stroke-linejoin="round" />
<path d="M 145.0 152.5 L 143.5 152.0 L 142.5 152.0 L 142.5 151.5 L 144.5 151.5 L 147.5 151.5 L 150.5 151.5 L 154.0 151.5 L 158.0 151.5 L 161.5 151.5 L 164.5 151.5 L 166.0 152.0 L 166.5 153.0 L 166.5 154.0 L 166.0 156.5 L 165.0 160.0 L 164.0 165.0 L 163.0 170.0 L 162.5 174.0 L 162.5 176.0 L 162.5 177.0 L 162.5 176.0 " stroke="black" fill="none" stroke-width="6.0" stroke-linecap="round" stroke-linejoin="round" />
<path d="M 145.5 167.0 L 145.0 167.0 L 144.0 166.5 L 143.5 166.5 L 143.5 166.5 L 145.0 166.5 L 148.5 166.5 L 152.0 166.5 L 155.0 166.5 L 158.5 166.5 L 160.5 167.0 " stroke="black" fill="none" stroke-width="6.0" stroke-linecap="round" stroke-linejoin="round" />
<path d="M 146.0 177.5 L 146.0 177.5 L 145.5 178.5 L 145.5 178.5 L 147.5 178.5 L 151.0 178.0 L 155.0 177.5 L 159.5 177.5 " stroke="black" fill="none" stroke-width="6.0" stroke-linecap="round" stroke-linejoin="round" />
</svg>