<svg xmlns="http://www.w3.org/2000/svg" width="300" height="300" viewBox="0 0 300 300">
<path d="M 135.5 130.0 L 136.0 129.5 L 136.5 129.0 L 136.5 128.5 L 136.5 128.5 L 137.0 129.0 L 137.0 131.5 L 137.5 137.0 L 137.5 147.5 L 136.5 159.5 L 136.5 166.5 L 136.5 168.5 L 136.5 167.0 L 136.0 165.5 " stroke="black" fill="none" stroke-width="6.0" stroke-linecap="round" stroke-linejoin="round" />
<path d="M 138.0 132.5 L 138.0 132.5 L 137.0 132.5 L 136.0 132.5 L 136.0 132.5 L 137.0 132.5 L 139.0 132.0 L 143.0 132.0 L 148.5 132.0 L 156.5 131.5 L 164.0 131.5 L 170.0 131.5 L 172.0 131.5 L 172.0 131.5 L 171.5 131.5 L 171.5 131.5 L 171.0 132.0 L 171.0 133.0 L 171.0 135.0 L 171.0 139.5 L 171.0 146.0 L 170.5 154.5 L 170.0 163.0 L 170.0 169.0 L 170.0 172.0 L 170.5 172.0 L 170.5 172.0 L 170.0 170.0 L 170.0 168.5 " stroke="black" fill="none" stroke-width="6.0" stroke-linecap="round" stroke-linejoin="round" />
<path d="M 139.0 154.0 L 138.5 154.0 L 138.5 153.5 L 138.5 153.5 L 142.0 153.0 L 148.5 153.0 L 156.0 153.0 L 163.0 153.0 L 168.0 153.0 L 169.5 153.0 L 169.5 153.0 " stroke="black" fill="none" stroke-width="6.0" stroke-linecap="round" stroke-linejoin="round" />
<path d="M 140.5 175.5 L 140.5 176.0 L 140.0 176.5 L 140.5 176.5 L 144.0 176.0 L 150.5 175.0 L 158.5 174.0 L 166.5 173.5 L 171.5 173.5 L 172.5 173.5 " stroke="black" fill="none" stroke-width="6.0" stroke-linecap="round" stroke-linejoin="round" />
</svg>