<svg xmlns="http://www.w3.org/2000/svg" width="300" height="300" viewBox="0 0 300 300">
<path d="M 129.5 123.0 L 129.5 123.0 L 130.0 122.5 L 130.0 122.0 L 130.5 122.0 L 131.0 122.5 L 132.0 127.5 L 133.0 139.5 L 134.0 156.5 L 133.5 170.0 L 133.5 174.5 L 133.5 172.5 L 133.5 165.5 L 133.5 163.0 " stroke="black" fill="none" stroke-width="6.0" stroke-linecap="round" stroke-linejoin="round" />
<path d="M 132.0 123.0 L 132.0 123.0 L 132.5 122.0 L 132.5 121.5 L 132.5 121.5 L 133.0 121.5 L 134.0 121.5 L 135.5 122.0 L 138.0 123.0 L 143.0 123.0 L 150.0 122.5 L 158.0 121.0 L 164.0 119.5 L 167.5 119.0 L 169.0 119.0 L 169.5 119.5 L 169.5 120.0 L 169.5 121.0 L 169.5 122.0 L 169.5 124.0 L 170.0 128.5 L 170.5 136.0 L 171.0 147.5 L 172.0 159.0 L 172.5 167.0 L 172.5 171.0 L 173.0 171.5 L 172.5 170.5 L 172.0 170.0 " stroke="black" fill="none" stroke-width="6.0" stroke-linecap="round" stroke-linejoin="round" />
<path d="M 138.5 149.5 L 138.5 149.5 L 139.0 149.5 L 139.5 149.5 L 140.0 149.5 L 143.0 149.5 L 148.5 149.5 L 155.5 149.0 L 161.0 149.0 L 164.5 149.0 L 165.5 150.0 L 165.5 150.5 " stroke="black" fill="none" stroke-width="6.0" stroke-linecap="round" stroke-linejoin="round" />
<path d="M 138.0 174.5 L 138.0 175.0 L 138.0 175.5 L 138.0 175.5 L 138.0 176.0 L 140.5 176.0 L 146.0 176.0 L 155.5 175.5 L 165.0 174.5 L 171.0 173.5 L 172.5 173.5 L 172.5 173.5 " stroke="black" fill="none" stroke-width="6.0" stroke-linecap="round" stroke-linejoin="round" />
</svg>