<svg xmlns="http://www.w3.org/2000/svg" width="300" height="300" viewBox="0 0 300 300">
<path d="M 127.0 111.5 L 127.0 111.5 L 127.5 111.5 L 129.5 111.5 L 133.0 110.5 L 139.0 109.5 L 145.5 108.5 L 151.0 108.0 L 155.0 107.5 L 157.5 107.5 L 159.5 107.5 L 160.0 107.5 L 160.5 107.5 L 160.5 107.5 L 160.5 107.5 L 160.5 107.5 L 160.5 108.0 L 160.5 108.0 L 160.5 109.0 L 160.0 110.0 L 159.5 111.5 L 158.5 113.5 L 157.5 116.0 L 156.5 119.0 L 155.0 122.5 L 154.0 125.5 L 153.0 128.5 L 152.0 131.0 L 151.5 132.5 L 151.5 133.5 L 151.5 133.5 L 151.5 133.5 L 151.5 133.0 L 152.0 132.5 L 153.0 132.0 L 154.5 131.5 L 157.0 131.0 L 160.0 130.5 L 164.0 130.0 L 167.5 130.5 L 169.5 131.5 L 171.0 133.5 L 172.0 135.5 L 173.0 138.5 L 173.5 142.0 L 174.0 146.0 L 174.5 151.0 L 175.0 156.5 L 175.0 161.0 L 175.0 165.5 L 174.0 170.5 L 172.5 176.0 L 170.0 180.0 L 167.5 182.0 L 165.5 182.0 L 163.0 180.5 L 161.0 178.0 L 159.5 175.0 L 158.5 173.0 " stroke="black" fill="none" stroke-width="6.0" stroke-linecap="round" stroke-linejoin="round" />
<path d="M 135.0 112.0 L 135.0 112.0 L 135.0 112.0 L 134.5 112.5 L 134.5 113.5 L 135.0 118.0 L 135.5 127.0 L 135.5 138.0 L 133.5 150.0 L 130.5 160.5 L 127.0 167.5 L 124.5 171.5 L 123.5 173.0 L 123.5 173.5 L 123.5 173.5 " stroke="black" fill="none" stroke-width="6.0" stroke-linecap="round" stroke-linejoin="round" />
</svg>