<svg xmlns="http://www.w3.org/2000/svg" width="300" height="300" viewBox="0 0 300 300">
<path d="M 150.5 106.5 L 150.5 106.5 L 150.0 106.0 L 150.0 105.0 L 149.5 104.5 L 149.5 104.5 L 149.5 106.0 L 149.5 111.5 L 149.5 117.0 L 149.5 121.0 L 149.5 123.0 L 149.5 123.0 " stroke="black" fill="none" stroke-width="6.0" stroke-linecap="round" stroke-linejoin="round" />
<path d="M 131.5 112.0 L 131.5 112.5 L 131.5 113.0 L 131.0 113.5 L 131.0 114.0 L 132.0 114.5 L 134.0 115.5 L 136.5 116.0 L 137.5 116.0 " stroke="black" fill="none" stroke-width="6.0" stroke-linecap="round" stroke-linejoin="round" />
<path d="M 172.5 107.5 L 172.5 107.5 L 172.5 107.5 L 172.5 108.0 L 172.5 108.0 L 172.5 109.0 L 171.5 111.0 L 169.5 114.0 L 167.5 117.0 L 166.5 119.0 " stroke="black" fill="none" stroke-width="6.0" stroke-linecap="round" stroke-linejoin="round" />
<path d="M 128.0 130.0 L 128.5 130.0 L 129.0 130.0 L 129.0 131.0 L 128.5 132.5 L 127.0 136.0 L 125.5 139.5 L 124.5 142.0 L 124.5 142.5 " stroke="black" fill="none" stroke-width="6.0" stroke-linecap="round" stroke-linejoin="round" />
<path d="M 130.0 132.0 L 130.0 132.0 L 130.5 132.0 L 132.0 132.5 L 134.5 132.5 L 139.5 131.5 L 147.0 131.5 L 155.0 131.5 L 163.5 130.5 L 171.0 129.5 L 176.5 129.0 L 179.0 129.0 L 179.5 129.5 L 179.5 130.5 L 179.0 131.5 L 179.0 132.5 L 179.0 133.5 L 178.5 135.5 L 177.0 138.5 L 175.0 141.0 L 174.0 143.0 L 173.5 144.5 " stroke="black" fill="none" stroke-width="6.0" stroke-linecap="round" stroke-linejoin="round" />
<path d="M 141.5 144.0 L 141.5 142.5 L 141.5 141.5 L 141.5 141.5 L 141.5 143.0 L 141.0 147.0 L 140.5 150.5 L 140.0 152.5 L 140.0 153.0 " stroke="black" fill="none" stroke-width="6.0" stroke-linecap="round" stroke-linejoin="round" />
<path d="M 143.5 143.5 L 142.5 143.5 L 141.5 143.5 L 142.0 143.5 L 143.5 143.0 L 146.0 142.5 L 148.5 142.0 L 151.5 142.0 L 155.0 141.5 L 158.0 141.5 L 159.5 141.5 L 160.5 142.0 L 160.5 143.0 L 160.0 145.0 L 158.5 147.0 L 157.5 149.0 L 156.5 150.5 L 155.5 151.5 L 154.5 152.5 L 154.0 152.5 " stroke="black" fill="none" stroke-width="6.0" stroke-linecap="round" stroke-linejoin="round" />
<path d="M 142.0 155.0 L 142.0 155.5 L 142.0 156.0 L 141.5 156.0 L 141.0 156.5 L 141.0 156.5 L 141.0 156.5 L 143.0 156.5 L 145.5 156.5 L 148.5 156.5 L 151.5 156.0 L 154.0 156.0 L 155.5 156.0 L 156.0 156.0 " stroke="black" fill="none" stroke-width="6.0" stroke-linecap="round" stroke-linejoin="round" />
<path d="M 136.0 168.5 L 136.0 168.5 L 136.0 168.0 L 135.5 167.5 L 135.5 167.0 L 137.5 167.0 L 142.0 167.5 L 148.5 168.0 L 155.5 168.5 L 160.5 168.5 L 163.5 168.0 L 164.5 167.5 L 164.5 168.0 " stroke="black" fill="none" stroke-width="6.0" stroke-linecap="round" stroke-linejoin="round" />
<path d="M 151.0 161.0 L 151.0 160.5 L 150.5 160.0 L 150.5 159.5 L 150.5 159.5 L 150.0 160.0 L 150.0 164.0 L 150.0 169.0 L 149.5 173.5 L 149.5 176.0 L 149.5 177.0 " stroke="black" fill="none" stroke-width="6.0" stroke-linecap="round" stroke-linejoin="round" />
<path d="M 128.5 183.0 L 128.0 183.0 L 126.5 183.0 L 126.0 182.0 L 127.0 181.5 L 131.5 180.5 L 134.5 180.5 L 148.5 180.5 L 153.0 180.5 L 164.5 179.5 L 170.5 179.5 L 177.5 179.0 L 178.5 179.0 " stroke="black" fill="none" stroke-width="6.0" stroke-linecap="round" stroke-linejoin="round" />
</svg>