<svg xmlns="http://www.w3.org/2000/svg" width="300" height="300" viewBox="0 0 300 300">
<path d="M 128.5 112.0 L 128.5 112.0 L 128.5 111.5 L 128.5 111.5 L 128.5 111.5 L 129.0 111.0 L 129.0 111.0 L 129.0 111.5 L 128.0 114.0 L 125.0 118.5 L 120.0 124.5 L 114.5 129.0 L 112.5 130.0 L 111.5 130.0 L 112.0 128.0 " stroke="black" fill="none" stroke-width="7.0" stroke-linecap="round" stroke-linejoin="round" />
<path d="M 133.0 120.5 L 133.5 120.5 L 134.0 121.0 L 134.0 121.5 L 134.0 121.5 L 134.0 122.0 L 133.0 123.5 L 131.5 125.0 L 126.5 131.0 L 123.0 134.5 L 118.0 140.0 L 116.5 141.0 L 115.0 141.5 L 115.5 139.5 " stroke="black" fill="none" stroke-width="7.0" stroke-linecap="round" stroke-linejoin="round" />
<path d="M 126.0 135.5 L 126.0 135.5 L 125.5 136.5 L 125.0 137.0 L 125.0 138.5 L 125.0 143.0 L 126.0 151.5 L 126.0 164.0 L 125.5 173.0 L 125.0 177.5 L 125.0 178.0 L 125.0 176.5 " stroke="black" fill="none" stroke-width="7.0" stroke-linecap="round" stroke-linejoin="round" />
<path d="M 150.5 111.5 L 150.5 111.5 L 151.0 111.5 L 151.0 111.5 L 151.5 111.5 L 151.5 111.0 L 152.0 111.0 L 152.0 112.0 L 151.5 114.5 L 149.5 119.5 L 147.0 126.0 L 144.0 131.0 L 142.5 133.5 L 141.5 134.0 L 141.5 134.0 L 141.5 133.5 L 141.5 133.0 L 142.5 132.0 L 143.5 131.5 L 144.5 130.5 L 145.0 130.0 L 146.0 130.0 L 147.0 129.5 L 148.0 129.5 L 149.5 130.0 L 151.0 131.0 L 152.5 132.0 L 154.0 133.5 L 156.0 135.0 L 157.0 135.5 L 157.5 136.0 L 157.5 136.0 " stroke="black" fill="none" stroke-width="7.0" stroke-linecap="round" stroke-linejoin="round" />
<path d="M 174.5 112.5 L 174.5 112.5 L 174.5 112.5 L 174.5 112.5 L 175.0 112.5 L 175.0 112.5 L 175.0 113.0 L 174.5 115.0 L 173.0 119.5 L 170.5 125.5 L 168.5 130.5 L 167.0 134.0 L 165.5 137.0 L 165.5 137.0 L 165.5 136.5 L 165.5 135.5 L 166.5 134.0 L 167.5 132.0 L 168.5 131.0 L 170.5 129.0 L 171.5 128.5 L 173.0 128.0 L 174.0 129.0 L 175.5 131.0 L 176.5 133.5 L 178.5 135.0 L 180.0 136.5 L 181.5 137.5 L 182.0 138.0 L 182.0 138.0 " stroke="black" fill="none" stroke-width="7.0" stroke-linecap="round" stroke-linejoin="round" />
<path d="M 146.5 150.5 L 146.5 150.0 L 146.5 149.5 L 146.5 149.0 L 146.5 149.0 L 147.0 148.5 L 147.0 148.5 L 147.0 148.0 L 147.0 148.0 L 147.0 149.5 L 147.0 153.5 L 145.5 159.5 L 143.0 166.0 L 140.0 171.5 L 138.5 173.5 L 136.5 174.0 L 136.0 174.0 L 136.0 173.0 L 136.5 171.0 L 137.0 170.0 " stroke="black" fill="none" stroke-width="7.0" stroke-linecap="round" stroke-linejoin="round" />
<path d="M 144.0 165.0 L 144.0 165.0 L 144.0 165.0 L 144.5 165.0 L 145.0 165.0 L 145.5 165.5 L 146.5 165.5 L 148.0 166.0 L 150.5 166.5 L 154.0 167.0 L 160.5 167.5 L 167.5 168.0 L 174.5 168.5 L 180.0 169.0 L 184.0 169.0 L 187.0 169.0 L 188.0 169.0 L 188.0 169.0 L 187.0 168.0 L 187.0 168.0 " stroke="black" fill="none" stroke-width="7.0" stroke-linecap="round" stroke-linejoin="round" />
<path d="M 170.5 149.5 L 170.5 149.0 L 170.5 149.0 L 170.0 148.5 L 170.0 148.5 L 170.0 148.5 L 170.0 149.0 L 170.0 151.5 L 170.0 155.0 L 170.0 159.5 L 170.0 162.5 L 170.0 163.5 " stroke="black" fill="none" stroke-width="7.0" stroke-linecap="round" stroke-linejoin="round" />
<path d="M 171.0 155.5 L 171.0 156.0 L 171.0 156.5 L 171.0 157.0 L 171.0 157.0 L 172.0 157.0 L 174.0 157.0 L 176.5 157.0 L 179.0 157.0 L 180.0 157.0 " stroke="black" fill="none" stroke-width="7.0" stroke-linecap="round" stroke-linejoin="round" />
</svg>