<svg xmlns="http://www.w3.org/2000/svg" width="300" height="300" viewBox="0 0 300 300">
<path d="M 120.5 112.0 L 120.5 112.0 L 120.5 112.5 L 120.5 112.5 L 121.5 112.5 L 124.5 112.5 L 130.5 112.5 L 136.5 112.0 L 141.5 112.0 L 144.0 112.0 L 145.0 112.0 L 145.0 112.0 L 144.5 112.0 L 143.5 112.0 " stroke="black" fill="none" stroke-width="6.0" stroke-linecap="round" stroke-linejoin="round" />
<path d="M 120.0 122.0 L 120.0 121.0 L 119.5 120.5 L 119.5 121.5 L 119.5 125.5 L 120.5 129.5 L 121.5 132.0 L 122.0 133.0 " stroke="black" fill="none" stroke-width="6.0" stroke-linecap="round" stroke-linejoin="round" />
<path d="M 121.0 120.0 L 121.0 120.0 L 120.0 120.5 L 119.5 120.5 L 120.5 121.0 L 123.5 122.0 L 127.5 122.5 L 132.0 122.5 L 136.5 122.5 L 141.0 122.5 L 144.5 122.0 L 147.0 122.0 L 148.0 122.0 L 149.0 122.0 L 149.5 122.5 L 150.0 122.5 L 150.0 123.0 L 150.0 123.5 L 150.0 124.5 L 149.5 126.0 L 149.0 128.0 L 148.0 129.5 L 147.5 131.0 L 147.5 131.5 " stroke="black" fill="none" stroke-width="6.0" stroke-linecap="round" stroke-linejoin="round" />
<path d="M 129.5 112.5 L 129.5 112.5 L 129.5 113.0 L 129.5 113.0 L 129.5 114.5 L 129.5 118.0 L 129.5 124.5 L 130.0 130.5 L 130.5 132.5 L 131.0 132.5 " stroke="black" fill="none" stroke-width="6.0" stroke-linecap="round" stroke-linejoin="round" />
<path d="M 136.5 113.0 L 136.5 113.0 L 137.0 113.5 L 137.0 113.5 L 137.5 114.0 L 137.5 115.0 L 137.5 117.5 L 137.5 122.0 L 137.5 127.5 L 137.0 131.5 L 136.5 133.0 " stroke="black" fill="none" stroke-width="6.0" stroke-linecap="round" stroke-linejoin="round" />
<path d="M 124.5 134.5 L 123.0 135.0 L 123.0 135.0 L 124.5 135.0 L 128.0 135.0 L 133.0 135.0 L 139.0 135.0 L 143.0 135.0 L 145.0 135.0 L 145.5 135.0 " stroke="black" fill="none" stroke-width="6.0" stroke-linecap="round" stroke-linejoin="round" />
<path d="M 126.0 145.5 L 126.0 145.5 L 125.5 145.0 L 125.0 145.0 L 127.5 144.5 L 131.5 144.0 L 136.5 144.0 L 140.5 143.5 L 141.5 143.5 " stroke="black" fill="none" stroke-width="6.0" stroke-linecap="round" stroke-linejoin="round" />
<path d="M 120.5 156.5 L 120.5 157.0 L 120.5 157.5 L 121.5 157.5 L 126.5 157.0 L 134.5 155.5 L 141.5 155.0 L 144.5 154.5 L 145.5 154.5 L 145.5 154.5 " stroke="black" fill="none" stroke-width="6.0" stroke-linecap="round" stroke-linejoin="round" />
<path d="M 132.0 156.5 L 132.5 157.0 L 133.0 157.0 L 133.5 157.5 L 133.5 160.5 L 133.5 168.5 L 132.5 178.5 L 132.5 185.5 L 132.5 188.5 L 132.5 188.0 " stroke="black" fill="none" stroke-width="6.0" stroke-linecap="round" stroke-linejoin="round" />
<path d="M 123.5 170.5 L 123.0 170.5 L 122.0 170.5 L 121.0 171.5 L 119.5 174.0 L 118.5 177.5 L 117.5 180.0 L 117.5 181.0 " stroke="black" fill="none" stroke-width="6.0" stroke-linecap="round" stroke-linejoin="round" />
<path d="M 141.5 168.0 L 141.5 168.0 L 141.5 168.0 L 141.5 168.5 L 143.0 170.0 L 146.0 172.5 L 148.5 174.5 " stroke="black" fill="none" stroke-width="6.0" stroke-linecap="round" stroke-linejoin="round" />
<path d="M 158.0 116.0 L 159.0 115.5 L 159.5 115.5 L 159.5 115.5 L 160.0 116.0 L 160.0 118.0 L 160.0 123.0 L 160.0 133.5 L 160.0 149.5 L 160.0 165.5 L 160.0 176.5 L 160.0 183.5 L 159.5 186.5 L 158.5 187.0 L 156.5 186.0 " stroke="black" fill="none" stroke-width="6.0" stroke-linecap="round" stroke-linejoin="round" />
<path d="M 163.5 118.5 L 162.5 118.5 L 161.5 118.5 L 161.0 118.5 L 161.5 118.5 L 164.0 118.5 L 168.5 117.5 L 172.5 117.0 L 176.5 117.0 L 179.0 117.0 L 181.0 117.0 L 182.5 117.0 L 183.0 117.0 L 184.0 117.5 L 185.0 117.5 L 185.5 118.0 L 186.5 119.0 L 187.0 120.0 L 187.0 122.0 L 187.0 125.0 L 187.5 129.5 L 187.5 134.5 L 187.5 141.0 L 187.5 148.0 L 188.0 155.0 L 188.5 162.5 L 188.5 169.0 L 189.0 175.0 L 189.5 180.5 L 191.0 185.0 L 192.5 187.5 L 194.5 188.5 L 196.5 188.5 L 198.5 186.5 L 200.5 183.5 L 202.0 179.5 L 202.0 179.0 " stroke="black" fill="none" stroke-width="6.0" stroke-linecap="round" stroke-linejoin="round" />
<path d="M 167.0 130.0 L 166.5 130.0 L 165.5 130.5 L 165.5 130.5 L 167.5 130.0 L 171.0 129.0 L 174.0 128.5 L 176.0 128.0 L 177.5 128.0 " stroke="black" fill="none" stroke-width="6.0" stroke-linecap="round" stroke-linejoin="round" />
<path d="M 166.5 143.0 L 166.0 142.5 L 166.0 142.5 L 165.5 142.5 L 165.5 142.5 L 165.5 145.0 L 166.5 148.5 L 167.0 151.0 L 167.5 152.0 " stroke="black" fill="none" stroke-width="6.0" stroke-linecap="round" stroke-linejoin="round" />
<path d="M 167.0 143.0 L 167.0 142.5 L 166.5 141.0 L 167.0 140.0 L 169.5 139.0 L 172.0 138.0 L 174.5 137.5 L 176.5 137.5 L 178.0 138.0 L 179.5 139.0 L 180.5 140.5 L 180.5 142.0 L 181.0 143.5 L 181.0 145.0 L 180.0 147.5 L 178.5 149.5 L 178.0 149.5 " stroke="black" fill="none" stroke-width="6.0" stroke-linecap="round" stroke-linejoin="round" />
<path d="M 169.5 153.0 L 168.5 153.0 L 168.0 153.5 L 168.5 153.5 L 171.5 153.5 L 174.5 153.0 L 177.0 152.0 L 177.5 152.0 " stroke="black" fill="none" stroke-width="6.0" stroke-linecap="round" stroke-linejoin="round" />
<path d="M 172.5 131.5 L 172.5 131.5 L 172.5 131.5 L 172.5 131.5 L 172.5 133.0 L 173.0 138.5 L 173.0 148.0 L 173.0 157.5 L 172.5 164.5 L 172.0 169.0 L 171.5 170.5 L 171.5 171.5 " stroke="black" fill="none" stroke-width="6.0" stroke-linecap="round" stroke-linejoin="round" />
<path d="M 166.0 173.0 L 166.0 173.0 L 165.5 173.0 L 165.5 173.5 L 167.0 173.5 L 170.0 172.5 L 173.5 171.5 L 177.5 170.0 L 179.0 169.5 " stroke="black" fill="none" stroke-width="6.0" stroke-linecap="round" stroke-linejoin="round" />
<path d="M 180.0 163.0 L 180.5 163.0 L 181.0 163.0 L 181.5 164.0 L 181.5 167.0 L 182.5 171.5 L 183.0 176.0 L 183.0 179.0 " stroke="black" fill="none" stroke-width="6.0" stroke-linecap="round" stroke-linejoin="round" />
</svg>