<svg xmlns="http://www.w3.org/2000/svg" width="300" height="300" viewBox="0 0 300 300">
<path d="M 137.0 109.5 L 137.0 109.5 L 137.5 110.0 L 138.0 110.0 L 138.5 110.0 L 140.0 110.0 L 143.5 110.0 L 147.5 109.5 L 151.5 109.0 L 154.5 108.0 L 157.0 107.5 L 158.5 107.0 L 160.0 107.0 L 161.0 107.5 L 161.5 107.5 L 162.0 107.5 L 162.5 107.5 L 162.5 107.5 L 162.5 107.5 L 162.5 107.5 L 162.5 108.0 L 162.5 108.5 L 162.0 110.0 L 161.0 111.5 L 159.0 114.5 L 157.0 118.5 L 154.5 122.0 L 152.0 124.5 L 151.0 125.5 L 150.5 126.0 L 150.5 126.5 " stroke="black" fill="none" stroke-width="7.0" stroke-linecap="round" stroke-linejoin="round" />
<path d="M 150.5 125.5 L 150.5 125.5 L 150.0 125.5 L 150.0 126.0 L 150.0 126.5 L 151.5 131.0 L 153.0 137.5 L 153.5 147.5 L 154.0 156.5 L 154.5 165.0 L 155.5 171.5 L 155.5 178.0 L 155.5 183.5 L 155.5 186.5 L 154.5 187.5 L 153.0 187.5 L 151.0 187.0 L 149.0 185.5 L 147.0 184.5 L 146.0 183.5 " stroke="black" fill="none" stroke-width="7.0" stroke-linecap="round" stroke-linejoin="round" />
<path d="M 143.0 141.5 L 142.5 141.5 L 142.0 141.5 L 142.0 141.5 L 146.0 141.5 L 152.0 140.5 L 157.5 139.5 L 161.5 139.0 L 163.5 139.0 L 163.5 139.0 " stroke="black" fill="none" stroke-width="7.0" stroke-linecap="round" stroke-linejoin="round" />
<path d="M 148.0 151.5 L 147.0 151.5 L 146.5 151.5 L 146.5 151.5 L 149.0 151.5 L 152.5 151.0 L 157.0 150.5 L 160.5 149.5 L 163.0 149.0 L 163.0 149.0 " stroke="black" fill="none" stroke-width="7.0" stroke-linecap="round" stroke-linejoin="round" />
<path d="M 139.0 164.0 L 139.0 164.0 L 139.0 164.0 L 139.0 163.5 L 140.0 163.5 L 143.5 163.5 L 149.0 164.0 L 156.5 164.0 L 163.0 163.0 L 166.5 161.5 L 167.5 161.0 L 167.5 160.5 " stroke="black" fill="none" stroke-width="7.0" stroke-linecap="round" stroke-linejoin="round" />
<path d="M 120.5 128.0 L 119.5 129.0 L 119.0 129.5 L 119.0 129.5 L 119.0 129.5 L 120.5 129.5 L 124.0 129.5 L 127.5 129.5 L 130.5 129.0 L 133.0 128.5 L 135.0 128.0 L 136.0 128.0 L 136.5 127.5 L 136.5 127.5 L 136.5 127.5 L 136.0 127.5 L 136.0 128.0 L 135.5 128.0 L 135.0 128.5 L 135.0 129.5 L 134.0 131.0 L 133.5 133.0 L 132.5 136.5 L 131.5 141.0 L 129.5 147.0 L 126.5 153.5 L 124.0 158.5 L 122.0 161.0 L 121.0 162.0 L 120.5 162.0 L 120.0 162.5 " stroke="black" fill="none" stroke-width="7.0" stroke-linecap="round" stroke-linejoin="round" />
<path d="M 183.0 119.0 L 183.5 119.0 L 184.5 119.0 L 185.0 119.0 L 185.0 118.5 L 185.0 119.0 L 184.5 120.5 L 182.5 124.0 L 179.5 128.5 L 176.5 132.0 L 174.0 134.5 L 172.5 135.5 " stroke="black" fill="none" stroke-width="7.0" stroke-linecap="round" stroke-linejoin="round" />
<path d="M 172.0 133.5 L 172.0 133.5 L 172.0 133.5 L 172.0 133.5 L 172.0 133.5 L 172.5 133.5 L 174.0 135.5 L 177.5 142.0 L 181.5 152.5 L 186.0 161.0 L 190.5 166.0 L 194.0 168.5 L 196.5 169.5 L 198.0 170.5 L 199.0 170.5 " stroke="black" fill="none" stroke-width="7.0" stroke-linecap="round" stroke-linejoin="round" />
</svg>