<svg xmlns="http://www.w3.org/2000/svg" width="300" height="300" viewBox="0 0 300 300">
<path d="M 126.5 117.0 L 126.5 117.0 L 126.5 116.5 L 126.5 116.5 L 126.5 116.5 L 127.0 118.5 L 127.5 125.5 L 127.5 137.5 L 127.5 148.5 L 127.0 152.5 L 127.0 152.5 L 127.0 151.5 " stroke="black" fill="none" stroke-width="6.0" stroke-linecap="round" stroke-linejoin="round" />
<path d="M 129.5 113.5 L 128.5 114.5 L 127.5 115.0 L 127.5 115.0 L 128.0 115.0 L 129.5 114.5 L 132.0 114.0 L 134.5 114.0 L 137.5 114.0 L 140.5 114.0 L 142.5 113.5 L 143.5 113.5 " stroke="black" fill="none" stroke-width="6.0" stroke-linecap="round" stroke-linejoin="round" />
<path d="M 131.5 129.0 L 131.0 129.0 L 130.5 129.0 L 130.5 129.0 L 130.5 129.0 L 132.0 129.0 L 135.0 128.5 L 138.0 128.5 L 141.0 128.0 L 142.0 128.0 " stroke="black" fill="none" stroke-width="6.0" stroke-linecap="round" stroke-linejoin="round" />
<path d="M 132.0 136.5 L 132.0 137.5 L 131.5 138.0 L 131.5 138.5 L 132.0 138.5 L 134.5 138.5 L 137.5 138.0 L 140.5 137.0 L 142.0 136.5 " stroke="black" fill="none" stroke-width="6.0" stroke-linecap="round" stroke-linejoin="round" />
<path d="M 118.5 153.5 L 118.0 153.5 L 117.0 153.5 L 117.0 153.5 L 118.5 153.5 L 124.5 153.0 L 132.5 152.0 L 140.0 151.0 L 144.0 151.0 L 144.5 151.0 L 144.5 151.0 " stroke="black" fill="none" stroke-width="6.0" stroke-linecap="round" stroke-linejoin="round" />
<path d="M 127.5 155.5 L 127.5 155.5 L 127.5 155.5 L 127.0 155.5 L 127.0 155.5 L 127.0 155.5 L 127.0 157.0 L 127.0 159.5 L 127.0 165.5 L 126.5 173.5 L 126.0 180.0 L 126.0 183.0 L 126.0 183.0 L 126.0 182.5 L 126.0 181.5 L 126.5 181.0 L 127.5 180.5 L 129.0 179.0 L 131.5 178.0 L 133.5 176.5 L 135.5 175.5 L 136.5 174.5 L 137.0 174.5 L 137.0 174.0 " stroke="black" fill="none" stroke-width="6.0" stroke-linecap="round" stroke-linejoin="round" />
<path d="M 138.0 167.0 L 137.5 166.5 L 137.5 166.0 L 137.0 166.0 L 138.5 167.5 L 141.0 171.0 L 143.5 175.0 L 145.5 178.5 L 147.0 179.5 " stroke="black" fill="none" stroke-width="6.0" stroke-linecap="round" stroke-linejoin="round" />
<path d="M 156.0 116.5 L 156.0 116.5 L 156.0 117.0 L 156.0 117.0 L 156.5 117.0 L 158.0 116.5 L 161.0 116.0 L 165.5 115.5 L 170.5 114.5 L 174.0 114.5 L 175.5 114.5 L 176.0 114.5 L 176.0 115.0 L 175.5 115.0 L 175.5 115.0 L 175.0 115.5 L 175.0 115.5 L 175.0 115.5 L 175.0 116.0 L 174.5 118.0 L 174.0 122.0 L 173.0 128.0 L 172.5 133.0 L 172.0 135.0 L 172.0 135.5 L 172.0 134.5 " stroke="black" fill="none" stroke-width="6.0" stroke-linecap="round" stroke-linejoin="round" />
<path d="M 153.0 127.5 L 153.0 127.5 L 152.5 126.5 L 152.5 126.0 L 152.5 125.5 L 154.5 125.0 L 158.5 125.0 L 164.0 125.0 L 170.5 125.0 L 176.0 124.5 L 180.0 123.5 L 180.5 123.0 L 179.5 123.0 L 178.5 123.5 " stroke="black" fill="none" stroke-width="6.0" stroke-linecap="round" stroke-linejoin="round" />
<path d="M 157.0 136.0 L 157.0 137.0 L 157.0 137.5 L 157.0 138.0 L 157.5 138.0 L 160.0 137.5 L 165.0 137.0 L 169.5 137.0 L 173.0 136.5 L 174.5 136.5 L 174.5 136.5 " stroke="black" fill="none" stroke-width="6.0" stroke-linecap="round" stroke-linejoin="round" />
<path d="M 155.5 151.0 L 155.5 151.0 L 155.0 151.0 L 155.0 151.0 L 155.5 151.0 L 160.0 151.0 L 165.5 150.5 L 170.0 150.0 L 173.5 149.5 L 174.0 149.0 L 174.0 149.0 " stroke="black" fill="none" stroke-width="6.0" stroke-linecap="round" stroke-linejoin="round" />
<path d="M 153.0 164.0 L 153.0 164.0 L 153.0 163.5 L 153.0 163.0 L 153.5 162.5 L 153.5 162.5 L 154.5 162.5 L 157.0 162.5 L 162.0 162.5 L 169.5 163.0 L 176.0 163.0 L 179.5 162.0 L 179.5 161.5 L 178.5 160.0 L 178.0 160.0 " stroke="black" fill="none" stroke-width="6.0" stroke-linecap="round" stroke-linejoin="round" />
<path d="M 163.0 104.5 L 163.0 104.0 L 163.0 103.5 L 163.0 103.5 L 163.0 103.5 L 163.0 106.0 L 163.0 110.0 L 163.0 115.0 L 163.0 121.5 L 163.0 127.5 L 163.0 132.0 L 163.0 134.5 L 163.0 137.0 L 162.5 140.5 L 162.5 144.0 L 162.5 147.0 L 162.5 149.0 L 162.5 150.0 L 162.5 151.5 L 162.5 154.0 L 162.5 156.5 L 162.5 158.5 L 163.0 160.5 L 163.0 162.0 L 163.0 164.0 L 163.0 166.5 L 163.0 168.5 L 163.0 170.5 L 163.0 172.0 L 163.0 173.0 L 163.0 174.5 L 163.0 175.5 L 163.0 177.0 L 163.0 178.0 L 163.5 178.5 L 163.5 179.5 L 163.5 180.0 L 163.5 181.0 L 163.5 182.0 L 163.5 182.5 L 163.5 183.5 L 164.0 184.0 L 164.0 184.5 L 164.0 185.5 L 164.0 186.0 L 164.0 187.0 L 164.0 187.5 L 164.0 188.0 L 164.0 189.0 L 164.0 190.0 L 164.0 190.5 L 164.0 191.0 L 164.0 191.5 L 164.0 192.0 L 164.0 192.5 L 164.0 192.5 L 164.5 192.5 L 164.5 192.0 L 165.0 191.5 " stroke="black" fill="none" stroke-width="6.0" stroke-linecap="round" stroke-linejoin="round" />
</svg>