<svg xmlns="http://www.w3.org/2000/svg" width="300" height="300" viewBox="0 0 300 300">
<path d="M 128.0 120.0 L 127.5 119.5 L 127.0 119.5 L 127.0 119.0 L 127.0 119.0 L 130.5 119.0 L 137.5 119.0 L 148.5 118.5 L 158.5 118.5 L 167.0 117.5 L 171.5 117.5 L 172.0 117.5 L 171.5 117.5 L 171.0 117.5 L 171.0 117.5 L 171.0 117.5 L 172.0 117.5 L 172.5 117.5 L 172.5 117.5 L 172.5 117.5 L 172.5 117.5 L 172.5 117.5 L 172.5 117.5 L 172.5 117.5 L 172.5 117.5 L 172.5 117.5 L 172.5 117.5 L 172.5 117.5 L 172.5 117.5 " stroke="black" fill="none" stroke-width="6.0" stroke-linecap="round" stroke-linejoin="round" />
<path d="M 123.5 129.0 L 123.5 129.0 L 123.0 129.0 L 122.5 129.5 L 122.5 130.0 L 122.0 132.5 L 121.0 137.0 L 120.0 141.5 L 119.0 144.5 L 119.0 145.5 " stroke="black" fill="none" stroke-width="6.0" stroke-linecap="round" stroke-linejoin="round" />
<path d="M 125.0 129.5 L 124.5 130.0 L 124.0 130.5 L 124.0 130.5 L 124.5 130.5 L 127.0 130.5 L 130.0 130.5 L 134.5 130.5 L 140.0 130.5 L 147.0 130.5 L 153.5 130.5 L 158.5 130.0 L 161.5 130.0 L 164.0 130.5 L 166.5 131.0 L 169.0 131.5 L 171.0 131.5 L 173.0 132.0 L 175.0 132.0 L 176.0 132.0 L 177.5 132.0 L 178.5 132.0 L 179.0 132.0 L 179.5 132.0 L 179.5 132.0 L 179.5 132.0 L 179.5 132.0 L 179.5 132.0 L 180.0 132.0 L 180.0 132.0 L 180.0 132.0 L 180.0 132.0 L 180.0 132.0 L 180.0 132.0 L 180.5 132.0 L 180.5 132.0 L 180.5 132.0 L 180.5 132.0 L 180.5 132.0 L 181.0 132.0 L 181.0 133.0 L 181.0 135.0 L 180.0 138.5 L 178.5 143.0 L 177.5 147.0 L 176.5 149.0 L 176.5 149.0 " stroke="black" fill="none" stroke-width="6.0" stroke-linecap="round" stroke-linejoin="round" />
<path d="M 151.0 121.5 L 151.0 121.5 L 151.0 121.0 L 151.5 120.5 L 151.5 120.5 L 151.5 120.5 L 151.5 122.5 L 151.5 126.0 L 151.0 131.5 L 149.5 138.5 L 148.5 144.5 L 147.5 149.0 L 147.0 150.5 L 147.0 150.5 L 147.0 150.0 " stroke="black" fill="none" stroke-width="6.0" stroke-linecap="round" stroke-linejoin="round" />
<path d="M 134.0 140.0 L 134.0 139.5 L 134.0 138.5 L 134.0 138.5 L 134.0 138.5 L 134.5 139.5 L 135.5 141.0 L 136.0 142.5 L 136.0 144.0 " stroke="black" fill="none" stroke-width="6.0" stroke-linecap="round" stroke-linejoin="round" />
<path d="M 128.5 150.5 L 128.0 151.5 L 127.0 152.0 L 127.5 152.0 L 129.5 152.0 L 131.5 151.5 L 133.5 150.5 " stroke="black" fill="none" stroke-width="6.0" stroke-linecap="round" stroke-linejoin="round" />
<path d="M 161.5 140.0 L 161.5 140.0 L 162.0 139.5 L 162.5 138.5 L 163.0 138.0 L 163.5 138.0 L 164.0 138.0 L 164.0 138.0 L 163.5 139.0 L 161.5 141.5 L 160.0 144.0 L 159.5 144.5 " stroke="black" fill="none" stroke-width="6.0" stroke-linecap="round" stroke-linejoin="round" />
<path d="M 156.0 149.0 L 156.0 149.5 L 157.0 150.0 L 158.0 151.0 L 161.0 152.0 L 164.0 153.5 L 167.0 154.0 " stroke="black" fill="none" stroke-width="6.0" stroke-linecap="round" stroke-linejoin="round" />
<path d="M 121.5 168.5 L 121.0 168.5 L 120.5 168.5 L 120.5 169.0 L 121.5 169.0 L 125.5 169.0 L 131.0 169.0 L 137.5 168.5 L 142.5 168.0 L 145.0 167.5 L 145.5 167.5 L 145.0 167.5 " stroke="black" fill="none" stroke-width="6.0" stroke-linecap="round" stroke-linejoin="round" />
<path d="M 133.5 159.5 L 133.5 159.5 L 133.5 160.0 L 133.5 160.0 L 133.5 162.0 L 134.0 168.5 L 134.5 180.0 L 134.5 192.0 L 134.5 201.0 L 134.5 206.0 L 134.5 206.5 L 134.5 205.5 L 134.0 204.5 " stroke="black" fill="none" stroke-width="6.0" stroke-linecap="round" stroke-linejoin="round" />
<path d="M 131.0 172.0 L 131.5 172.0 L 132.0 172.0 L 132.5 172.0 L 132.5 172.5 L 131.5 175.5 L 128.5 182.5 L 124.0 190.0 L 120.5 194.5 L 120.5 194.5 L 120.5 194.0 " stroke="black" fill="none" stroke-width="6.0" stroke-linecap="round" stroke-linejoin="round" />
<path d="M 133.5 178.0 L 134.0 178.5 L 134.5 179.0 L 136.0 180.5 L 139.5 182.0 L 143.0 184.0 L 146.0 185.5 L 147.5 186.5 " stroke="black" fill="none" stroke-width="6.0" stroke-linecap="round" stroke-linejoin="round" />
<path d="M 155.0 165.0 L 155.0 164.5 L 154.5 164.5 L 154.5 165.0 L 154.5 170.5 L 154.5 181.0 L 155.0 192.5 L 155.0 199.0 L 155.0 200.5 L 155.0 199.0 " stroke="black" fill="none" stroke-width="6.0" stroke-linecap="round" stroke-linejoin="round" />
<path d="M 155.0 167.0 L 155.0 167.0 L 155.0 167.0 L 154.5 166.5 L 154.5 166.5 L 156.0 166.5 L 160.5 165.5 L 165.5 165.0 L 171.0 164.0 L 175.0 164.0 L 176.5 164.0 L 176.5 164.0 L 176.0 164.5 L 175.5 165.5 L 175.5 167.5 L 175.0 170.5 L 174.5 175.5 L 174.0 183.0 L 173.5 190.0 L 173.5 195.5 L 173.5 198.0 L 173.5 198.5 L 173.5 198.0 L 173.0 196.0 " stroke="black" fill="none" stroke-width="6.0" stroke-linecap="round" stroke-linejoin="round" />
<path d="M 160.0 177.0 L 159.0 177.5 L 158.0 178.0 L 158.0 178.0 L 158.5 178.0 L 162.0 177.5 L 165.5 176.5 L 168.5 176.0 L 171.0 176.0 L 172.5 176.0 L 173.0 176.0 " stroke="black" fill="none" stroke-width="6.0" stroke-linecap="round" stroke-linejoin="round" />
<path d="M 158.0 188.5 L 157.5 189.0 L 157.5 189.0 L 157.5 189.5 L 158.0 190.0 L 160.5 190.0 L 164.0 190.0 L 168.0 189.5 L 170.5 189.5 " stroke="black" fill="none" stroke-width="6.0" stroke-linecap="round" stroke-linejoin="round" />
<path d="M 153.0 209.5 L 153.5 209.0 L 154.0 208.0 L 156.0 207.5 L 160.5 206.5 L 167.5 205.5 L 173.5 204.5 L 175.5 204.5 " stroke="black" fill="none" stroke-width="6.0" stroke-linecap="round" stroke-linejoin="round" />
</svg>