<svg xmlns="http://www.w3.org/2000/svg" width="300" height="300" viewBox="0 0 300 300">
<path d="M 135.5 116.5 L 135.5 115.5 L 135.5 114.5 L 135.5 114.5 L 136.0 117.0 L 137.0 125.0 L 137.0 136.5 L 137.0 147.5 L 137.0 152.5 L 137.5 152.5 L 137.5 152.0 " stroke="black" fill="none" stroke-width="6.0" stroke-linecap="round" stroke-linejoin="round" />
<path d="M 137.5 117.0 L 137.0 117.0 L 136.5 117.0 L 136.5 117.0 L 137.5 116.5 L 141.0 116.0 L 147.0 115.0 L 154.5 114.5 L 162.5 114.0 L 169.0 114.0 L 171.0 115.0 L 171.5 116.5 L 171.5 118.0 L 171.0 120.5 L 170.5 124.5 L 169.5 129.5 L 168.5 135.5 L 168.0 142.0 L 168.0 146.0 L 168.0 147.5 L 168.0 147.5 " stroke="black" fill="none" stroke-width="6.0" stroke-linecap="round" stroke-linejoin="round" />
<path d="M 144.5 136.0 L 144.0 136.0 L 142.5 136.0 L 142.0 136.0 L 143.0 136.0 L 146.5 135.5 L 151.0 135.0 L 155.5 134.5 L 159.0 134.0 L 159.5 134.0 " stroke="black" fill="none" stroke-width="6.0" stroke-linecap="round" stroke-linejoin="round" />
<path d="M 153.0 121.0 L 152.5 120.5 L 152.0 120.5 L 152.0 121.0 L 152.0 125.5 L 151.5 133.5 L 151.5 142.0 L 151.5 148.0 L 151.5 150.5 " stroke="black" fill="none" stroke-width="6.0" stroke-linecap="round" stroke-linejoin="round" />
<path d="M 133.5 159.5 L 133.5 159.0 L 134.0 158.5 L 134.5 158.5 L 137.0 158.0 L 141.0 158.0 L 147.5 158.0 L 155.5 157.5 L 162.5 157.0 L 167.0 156.5 L 169.0 156.5 L 169.0 156.5 L 169.0 156.5 L 169.0 156.5 L 169.0 156.5 L 169.5 156.5 L 169.5 156.5 " stroke="black" fill="none" stroke-width="6.0" stroke-linecap="round" stroke-linejoin="round" />
<path d="M 129.5 167.5 L 130.0 167.0 L 130.0 166.5 L 130.0 166.5 L 130.0 166.5 L 129.0 169.5 L 127.0 173.0 L 125.5 176.5 L 124.0 179.0 " stroke="black" fill="none" stroke-width="6.0" stroke-linecap="round" stroke-linejoin="round" />
<path d="M 141.5 171.0 L 141.5 171.0 L 140.5 171.5 L 140.5 172.0 L 140.5 173.0 L 141.5 176.0 L 143.0 179.0 L 145.5 182.5 L 149.0 184.5 L 152.5 184.5 L 156.5 183.5 L 159.5 182.0 L 160.5 181.0 L 161.5 180.0 L 161.5 179.5 L 161.5 179.0 L 160.5 178.5 " stroke="black" fill="none" stroke-width="6.0" stroke-linecap="round" stroke-linejoin="round" />
<path d="M 151.5 170.5 L 151.5 170.5 L 151.5 170.5 L 151.5 170.5 L 151.5 170.5 L 151.5 170.5 L 152.5 171.0 L 154.0 171.5 L 154.5 172.0 " stroke="black" fill="none" stroke-width="6.0" stroke-linecap="round" stroke-linejoin="round" />
<path d="M 167.5 169.5 L 167.0 169.5 L 166.5 169.5 L 166.5 170.0 L 167.5 170.0 L 169.0 170.5 L 170.5 171.5 L 171.5 173.0 L 172.0 173.5 " stroke="black" fill="none" stroke-width="6.0" stroke-linecap="round" stroke-linejoin="round" />
</svg>