<svg xmlns="http://www.w3.org/2000/svg" width="300" height="300" viewBox="0 0 300 300">
<path d="M 137.5 118.0 L 137.5 118.0 L 137.5 118.0 L 137.5 118.0 L 137.5 118.0 L 137.5 118.0 L 137.0 119.5 L 134.0 125.0 L 128.0 132.5 L 122.5 138.0 L 121.0 140.0 L 121.0 140.5 " stroke="black" fill="none" stroke-width="6.0" stroke-linecap="round" stroke-linejoin="round" />
<path d="M 142.5 127.0 L 142.5 127.0 L 142.5 128.0 L 142.5 128.5 L 142.5 129.0 L 142.0 131.0 L 139.5 135.5 L 135.0 143.5 L 129.0 151.0 L 125.0 155.5 L 124.5 156.0 L 124.0 154.0 " stroke="black" fill="none" stroke-width="6.0" stroke-linecap="round" stroke-linejoin="round" />
<path d="M 132.0 144.5 L 132.0 144.5 L 132.5 144.0 L 132.5 144.0 L 133.5 145.5 L 134.0 151.5 L 134.5 164.5 L 134.0 179.0 L 133.5 187.5 L 133.5 190.0 L 133.5 188.0 " stroke="black" fill="none" stroke-width="6.0" stroke-linecap="round" stroke-linejoin="round" />
<path d="M 157.0 117.5 L 157.0 117.5 L 157.0 117.5 L 157.5 117.0 L 157.5 117.0 L 158.0 118.0 L 159.5 121.5 L 161.0 127.0 L 163.0 132.0 L 164.0 135.5 L 164.0 136.0 " stroke="black" fill="none" stroke-width="6.0" stroke-linecap="round" stroke-linejoin="round" />
<path d="M 147.0 144.0 L 147.5 143.5 L 148.0 143.0 L 150.0 143.0 L 154.0 142.5 L 160.5 142.0 L 166.5 141.0 L 170.0 141.0 L 171.0 141.0 " stroke="black" fill="none" stroke-width="6.0" stroke-linecap="round" stroke-linejoin="round" />
<path d="M 147.0 164.5 L 147.5 164.5 L 147.5 164.5 L 149.0 164.5 L 152.5 164.5 L 158.5 163.5 L 163.5 162.0 L 166.5 161.5 L 167.5 161.0 " stroke="black" fill="none" stroke-width="6.0" stroke-linecap="round" stroke-linejoin="round" />
<path d="M 158.5 144.5 L 158.0 145.0 L 157.5 145.5 L 157.0 146.5 L 157.0 150.0 L 158.0 158.0 L 158.5 168.5 L 158.5 176.5 L 158.5 180.0 L 158.5 181.0 " stroke="black" fill="none" stroke-width="6.0" stroke-linecap="round" stroke-linejoin="round" />
<path d="M 145.0 186.5 L 145.0 186.5 L 145.5 186.0 L 146.0 185.5 L 149.0 185.0 L 155.5 183.5 L 164.5 182.0 L 172.0 180.5 L 175.5 180.0 " stroke="black" fill="none" stroke-width="6.0" stroke-linecap="round" stroke-linejoin="round" />
</svg>