<svg xmlns="http://www.w3.org/2000/svg" width="300" height="300" viewBox="0 0 300 300">
<path d="M 128.0 117.5 L 128.0 117.5 L 128.0 117.5 L 128.0 117.5 L 128.5 118.0 L 131.5 120.5 L 135.0 123.0 L 138.5 125.0 L 140.5 126.5 L 141.0 127.5 " stroke="black" fill="none" stroke-width="6.0" stroke-linecap="round" stroke-linejoin="round" />
<path d="M 120.5 133.0 L 119.5 134.0 L 118.5 134.0 L 118.5 134.0 L 119.5 134.0 L 122.5 134.0 L 127.0 134.0 L 133.0 134.0 L 141.0 133.5 L 148.0 133.5 L 150.0 133.5 L 150.5 133.5 L 150.0 133.5 L 149.5 133.0 L 149.5 132.5 L 149.5 132.5 L 149.5 132.5 L 149.5 133.0 " stroke="black" fill="none" stroke-width="6.0" stroke-linecap="round" stroke-linejoin="round" />
<path d="M 125.0 141.0 L 126.0 141.0 L 126.5 141.0 L 126.5 141.0 L 126.0 142.0 L 124.0 145.5 L 121.0 149.5 L 119.0 153.0 L 118.5 154.0 " stroke="black" fill="none" stroke-width="6.0" stroke-linecap="round" stroke-linejoin="round" />
<path d="M 142.5 145.0 L 142.0 145.0 L 141.5 144.5 L 141.5 144.5 L 142.5 144.5 L 145.0 147.0 L 148.0 149.5 L 150.5 152.0 L 152.0 153.0 L 152.0 153.0 " stroke="black" fill="none" stroke-width="6.0" stroke-linecap="round" stroke-linejoin="round" />
<path d="M 144.0 149.5 L 144.0 149.5 L 144.0 149.5 L 144.0 149.0 L 144.0 149.0 L 144.0 149.5 L 141.5 154.0 L 135.5 164.5 L 128.0 176.5 L 124.5 182.0 L 124.0 182.5 L 124.0 182.0 L 124.0 180.0 " stroke="black" fill="none" stroke-width="6.0" stroke-linecap="round" stroke-linejoin="round" />
<path d="M 126.0 152.0 L 126.0 152.5 L 126.0 153.5 L 126.5 154.5 L 128.5 157.0 L 133.5 163.5 L 140.0 171.0 L 145.5 176.0 L 149.5 179.0 L 151.5 180.5 L 151.5 180.0 " stroke="black" fill="none" stroke-width="6.0" stroke-linecap="round" stroke-linejoin="round" />
<path d="M 164.0 117.5 L 164.0 117.5 L 163.5 117.0 L 163.5 116.5 L 163.5 116.5 L 163.5 117.5 L 163.5 121.0 L 162.5 125.5 L 160.5 130.5 L 159.0 134.5 L 158.5 135.5 " stroke="black" fill="none" stroke-width="6.0" stroke-linecap="round" stroke-linejoin="round" />
<path d="M 165.5 125.0 L 164.0 126.0 L 163.5 126.5 L 163.5 126.5 L 164.0 126.5 L 166.5 126.5 L 170.0 126.0 L 175.5 125.0 L 182.0 124.0 L 187.0 123.0 L 188.5 123.0 L 188.5 123.0 L 187.5 124.0 " stroke="black" fill="none" stroke-width="6.0" stroke-linecap="round" stroke-linejoin="round" />
<path d="M 181.0 128.5 L 181.0 128.5 L 181.0 128.5 L 181.0 128.5 L 181.0 128.5 L 181.0 130.0 L 180.0 135.5 L 176.0 147.5 L 171.5 160.5 L 168.0 170.0 L 166.5 175.5 L 165.5 177.5 L 165.0 178.5 L 164.0 178.5 L 164.0 178.0 " stroke="black" fill="none" stroke-width="6.0" stroke-linecap="round" stroke-linejoin="round" />
<path d="M 165.0 144.0 L 165.0 144.0 L 164.5 143.5 L 164.0 143.0 L 164.0 142.5 L 164.0 142.5 L 164.0 142.5 L 164.5 144.0 L 166.5 148.5 L 170.0 155.5 L 174.5 165.0 L 178.5 174.0 L 182.0 179.0 L 184.5 182.5 L 186.5 185.5 L 188.0 187.5 L 189.0 188.0 L 189.0 187.0 L 189.0 186.5 " stroke="black" fill="none" stroke-width="6.0" stroke-linecap="round" stroke-linejoin="round" />
</svg>