<svg xmlns="http://www.w3.org/2000/svg" width="300" height="300" viewBox="0 0 300 300">
<path d="M 123.0 116.5 L 123.0 116.5 L 121.5 116.5 L 121.0 116.5 L 120.5 116.5 L 120.5 116.5 L 121.5 117.5 L 124.0 119.5 L 126.0 122.0 L 128.0 123.5 L 129.0 125.0 " stroke="black" fill="none" stroke-width="6.0" stroke-linecap="round" stroke-linejoin="round" />
<path d="M 122.5 138.0 L 121.0 138.0 L 120.0 138.0 L 120.0 138.0 L 120.5 138.0 L 123.0 139.5 L 125.5 142.0 L 128.0 144.0 L 129.5 146.0 " stroke="black" fill="none" stroke-width="6.0" stroke-linecap="round" stroke-linejoin="round" />
<path d="M 117.5 180.5 L 117.5 180.5 L 117.5 179.5 L 117.5 179.0 L 118.0 177.5 L 121.0 174.5 L 125.0 171.0 L 129.5 167.0 L 130.5 166.0 " stroke="black" fill="none" stroke-width="6.0" stroke-linecap="round" stroke-linejoin="round" />
<path d="M 145.0 120.5 L 144.0 120.5 L 143.0 120.0 L 143.0 119.5 L 143.0 119.5 L 146.5 119.5 L 152.0 118.5 L 159.5 117.5 L 166.0 116.5 L 170.5 116.0 L 171.5 116.0 L 171.5 116.0 " stroke="black" fill="none" stroke-width="6.0" stroke-linecap="round" stroke-linejoin="round" />
<path d="M 141.5 137.0 L 141.5 136.5 L 141.5 135.5 L 141.5 135.0 L 141.5 134.5 L 141.5 136.0 L 142.5 141.5 L 143.0 151.5 L 143.0 163.5 L 143.0 170.5 L 143.5 171.0 L 144.5 168.5 " stroke="black" fill="none" stroke-width="6.0" stroke-linecap="round" stroke-linejoin="round" />
<path d="M 146.5 134.5 L 145.5 134.5 L 143.5 135.0 L 142.5 135.0 L 142.5 135.5 L 144.5 135.5 L 148.5 135.5 L 154.5 134.0 L 161.5 132.5 L 169.5 130.5 L 175.0 129.5 L 179.0 129.5 L 181.0 129.5 L 181.0 129.5 L 181.0 130.0 L 181.0 130.0 L 181.0 130.5 L 181.0 131.0 L 181.0 132.5 L 181.0 135.0 L 181.0 139.5 L 181.0 145.0 L 181.0 150.5 L 180.5 156.5 L 180.0 161.5 L 179.5 165.0 L 178.5 167.0 L 178.0 167.0 L 177.0 166.5 L 176.5 166.5 " stroke="black" fill="none" stroke-width="6.0" stroke-linecap="round" stroke-linejoin="round" />
<path d="M 157.0 122.5 L 157.0 122.0 L 157.5 121.5 L 157.5 121.0 L 157.5 121.0 L 158.0 121.0 L 158.0 123.5 L 158.0 129.5 L 157.0 139.0 L 155.0 148.0 L 154.5 152.0 L 154.5 151.0 L 154.5 149.5 " stroke="black" fill="none" stroke-width="6.0" stroke-linecap="round" stroke-linejoin="round" />
<path d="M 165.5 122.0 L 165.5 121.5 L 165.5 120.5 L 165.5 120.5 L 165.5 120.5 L 165.5 122.0 L 165.5 126.0 L 165.0 133.5 L 164.0 143.5 L 163.5 150.0 L 165.0 152.5 L 166.5 153.0 L 168.5 152.5 L 170.0 151.0 L 171.0 150.0 " stroke="black" fill="none" stroke-width="6.0" stroke-linecap="round" stroke-linejoin="round" />
<path d="M 155.0 162.0 L 155.0 162.0 L 154.5 162.0 L 154.5 161.5 L 154.5 161.0 L 157.0 160.5 L 161.0 160.0 L 165.5 159.5 L 169.0 159.5 " stroke="black" fill="none" stroke-width="6.0" stroke-linecap="round" stroke-linejoin="round" />
<path d="M 146.5 174.0 L 146.5 174.5 L 146.0 175.0 L 146.5 175.0 L 148.5 174.0 L 153.5 172.5 L 161.0 171.0 L 168.0 170.0 L 173.5 169.0 L 176.0 168.5 " stroke="black" fill="none" stroke-width="6.0" stroke-linecap="round" stroke-linejoin="round" />
</svg>