<svg xmlns="http://www.w3.org/2000/svg" width="300" height="300" viewBox="0 0 300 300">
<path d="M 127.0 113.5 L 127.0 113.5 L 127.0 113.5 L 127.0 113.5 L 127.0 113.5 L 127.0 113.5 L 127.0 115.5 L 128.0 121.5 L 128.5 131.5 L 128.5 143.5 L 128.5 153.0 L 128.5 160.5 L 129.0 167.5 L 129.0 175.0 L 129.0 182.5 L 129.0 186.5 L 129.0 187.5 L 129.0 188.0 L 129.0 188.0 L 129.0 188.0 L 129.0 187.5 L 129.0 184.5 " stroke="black" fill="none" stroke-width="6.0" stroke-linecap="round" stroke-linejoin="round" />
<path d="M 129.5 111.0 L 129.5 111.5 L 129.0 112.0 L 129.0 112.5 L 128.5 112.5 L 129.0 112.5 L 130.5 113.0 L 134.0 113.0 L 140.0 113.0 L 149.0 111.5 L 158.0 109.5 L 167.0 108.5 L 174.5 107.0 L 180.5 106.0 L 185.5 106.0 L 189.0 106.0 L 192.0 106.5 L 193.5 107.0 L 193.5 107.0 L 193.5 107.0 L 193.5 107.0 L 193.5 107.0 L 193.5 107.0 L 193.5 107.0 L 193.0 107.0 L 193.0 107.5 L 192.5 108.0 L 192.0 109.5 L 191.5 111.0 L 191.0 114.0 L 190.5 118.0 L 189.5 123.5 L 189.5 130.0 L 188.5 137.5 L 188.5 145.5 L 188.0 153.5 L 187.5 161.0 L 187.5 168.5 L 187.5 174.5 L 188.0 178.5 L 189.0 182.5 L 189.5 185.5 L 190.5 187.5 L 191.0 188.0 L 191.5 188.5 L 191.5 188.5 L 191.5 188.0 " stroke="black" fill="none" stroke-width="6.0" stroke-linecap="round" stroke-linejoin="round" />
<path d="M 138.5 130.0 L 138.5 130.0 L 137.0 131.5 L 136.5 132.0 L 136.5 132.0 L 139.0 132.0 L 144.5 131.5 L 151.5 131.0 L 160.5 130.0 L 169.5 129.0 L 175.0 128.5 L 177.0 128.0 L 176.5 128.0 L 176.0 128.0 L 175.5 128.0 L 175.0 128.0 L 174.5 128.0 " stroke="black" fill="none" stroke-width="6.0" stroke-linecap="round" stroke-linejoin="round" />
<path d="M 161.0 121.0 L 161.0 120.5 L 161.0 120.5 L 161.0 120.0 L 161.0 120.0 L 161.5 120.5 L 162.5 123.5 L 164.0 129.5 L 165.0 139.5 L 167.0 150.5 L 168.5 159.0 L 171.0 165.0 L 173.0 168.5 L 174.5 171.5 L 176.0 173.0 L 177.5 173.5 L 178.5 173.5 L 180.0 172.5 L 181.0 170.5 L 182.0 168.5 L 182.5 167.0 L 182.5 166.0 L 182.5 165.0 " stroke="black" fill="none" stroke-width="6.0" stroke-linecap="round" stroke-linejoin="round" />
<path d="M 176.0 151.5 L 176.0 151.5 L 176.5 152.0 L 177.0 152.0 L 177.0 152.5 L 176.5 153.5 L 175.0 155.5 L 172.5 159.5 L 169.5 163.5 L 168.0 166.0 L 167.0 166.5 " stroke="black" fill="none" stroke-width="6.0" stroke-linecap="round" stroke-linejoin="round" />
<path d="M 143.5 146.0 L 142.5 145.0 L 142.0 144.5 L 142.0 144.5 L 142.0 145.5 L 142.0 148.5 L 142.5 152.5 L 143.0 155.5 L 143.0 157.0 L 143.0 157.0 " stroke="black" fill="none" stroke-width="6.0" stroke-linecap="round" stroke-linejoin="round" />
<path d="M 143.5 147.5 L 142.0 146.5 L 141.5 145.5 L 141.5 144.5 L 142.5 143.0 L 145.0 142.0 L 147.5 141.0 L 150.0 140.0 L 152.0 140.0 L 153.5 140.5 L 154.0 141.5 L 154.0 143.5 L 154.0 146.0 L 154.0 148.5 L 153.5 150.5 L 153.0 152.0 L 152.5 153.0 L 152.0 153.0 " stroke="black" fill="none" stroke-width="6.0" stroke-linecap="round" stroke-linejoin="round" />
<path d="M 147.0 155.0 L 146.5 155.0 L 145.0 155.5 L 144.5 155.5 L 144.5 155.5 L 145.5 155.5 L 148.0 155.5 L 150.0 155.5 L 152.0 155.5 " stroke="black" fill="none" stroke-width="6.0" stroke-linecap="round" stroke-linejoin="round" />
<path d="M 142.5 170.0 L 141.5 170.0 L 141.0 170.0 L 141.0 170.0 L 143.5 169.5 L 146.5 169.0 L 150.0 168.0 L 152.0 167.0 L 153.5 166.0 " stroke="black" fill="none" stroke-width="6.0" stroke-linecap="round" stroke-linejoin="round" />
<path d="M 172.5 119.5 L 172.5 119.5 L 172.5 119.0 L 172.5 119.0 L 172.5 119.0 L 173.0 119.0 L 173.5 119.0 L 174.5 120.0 L 175.5 120.5 " stroke="black" fill="none" stroke-width="6.0" stroke-linecap="round" stroke-linejoin="round" />
<path d="M 130.5 192.0 L 130.5 192.0 L 130.5 192.0 L 130.5 192.0 L 130.5 192.0 L 132.0 191.5 L 135.0 191.5 L 140.5 191.0 L 147.5 191.0 L 155.5 191.0 L 163.5 191.0 L 170.5 190.5 L 175.0 190.5 L 178.0 191.0 L 180.0 191.5 L 182.0 191.5 L 184.0 191.5 L 185.5 192.0 L 187.0 192.0 L 187.5 192.5 L 187.5 192.5 L 187.5 192.5 L 187.5 192.5 L 187.5 192.5 L 187.5 192.5 L 187.5 192.5 L 187.5 192.5 L 187.5 192.5 L 187.5 192.5 L 187.5 192.5 L 187.5 192.5 L 188.0 192.5 L 188.0 192.5 L 188.0 192.5 L 188.0 192.5 " stroke="black" fill="none" stroke-width="6.0" stroke-linecap="round" stroke-linejoin="round" />
</svg>