<svg xmlns="http://www.w3.org/2000/svg" width="300" height="300" viewBox="0 0 300 300">
<path d="M 131.5 126.0 L 131.5 126.0 L 131.5 126.5 L 131.5 127.0 L 131.5 127.0 L 132.5 127.0 L 136.0 127.0 L 144.0 127.0 L 154.0 127.0 L 163.5 126.0 L 169.5 126.0 L 171.5 126.0 L 172.0 126.0 L 171.5 126.0 L 171.0 126.0 L 170.0 126.5 L 170.0 126.5 " stroke="black" fill="none" stroke-width="6.0" stroke-linecap="round" stroke-linejoin="round" />
<path d="M 139.0 148.0 L 139.0 148.0 L 138.5 148.0 L 138.5 148.0 L 138.5 148.0 L 142.0 148.0 L 148.0 147.5 L 156.5 147.0 L 163.5 146.5 L 167.5 146.0 L 168.0 146.0 L 166.5 146.5 L 166.0 146.5 " stroke="black" fill="none" stroke-width="6.0" stroke-linecap="round" stroke-linejoin="round" />
<path d="M 123.5 167.0 L 123.0 167.0 L 123.0 167.0 L 122.5 166.5 L 123.0 166.5 L 126.5 166.0 L 134.5 166.0 L 145.0 165.5 L 155.5 165.5 L 164.5 165.5 L 172.0 165.0 L 178.5 164.5 L 183.5 164.5 L 185.5 164.5 L 185.5 164.5 L 185.5 164.5 L 184.5 164.0 " stroke="black" fill="none" stroke-width="6.0" stroke-linecap="round" stroke-linejoin="round" />
</svg>