<svg xmlns="http://www.w3.org/2000/svg" width="300" height="300" viewBox="0 0 300 300">
<path d="M 129.5 125.0 L 129.5 125.0 L 129.0 125.0 L 128.5 124.5 L 129.5 124.5 L 134.0 124.5 L 143.5 124.0 L 155.0 123.5 L 165.0 123.0 L 171.0 122.5 L 172.5 122.5 L 172.5 122.5 L 172.0 122.5 L 172.0 122.0 L 172.0 121.5 L 172.0 122.5 " stroke="black" fill="none" stroke-width="6.0" stroke-linecap="round" stroke-linejoin="round" />
<path d="M 145.0 127.5 L 145.0 127.5 L 144.5 127.5 L 144.0 128.0 L 143.5 130.5 L 143.5 136.5 L 143.5 146.0 L 142.5 156.5 L 141.5 165.0 L 141.5 169.5 L 141.5 170.5 L 140.5 170.0 L 139.5 168.5 " stroke="black" fill="none" stroke-width="6.0" stroke-linecap="round" stroke-linejoin="round" />
<path d="M 133.0 153.0 L 133.0 153.5 L 132.5 154.0 L 132.5 154.0 L 132.5 154.5 L 135.0 154.0 L 140.5 152.5 L 148.5 150.0 L 156.0 147.5 L 161.5 147.0 L 164.0 147.5 L 164.5 149.0 L 164.5 149.5 L 164.0 150.0 L 164.0 150.5 L 164.0 150.5 L 164.0 151.5 L 164.0 152.0 L 163.5 153.5 L 162.5 155.5 L 161.5 159.0 L 160.5 163.0 L 159.5 167.5 L 159.5 170.0 L 159.5 171.0 L 159.5 171.0 " stroke="black" fill="none" stroke-width="6.0" stroke-linecap="round" stroke-linejoin="round" />
<path d="M 123.5 172.5 L 122.5 173.0 L 122.0 173.5 L 122.0 173.5 L 125.0 174.0 L 130.0 174.0 L 138.0 174.0 L 149.0 173.0 L 160.0 172.0 L 170.0 171.0 L 176.5 170.0 L 179.0 169.0 L 179.5 169.0 L 177.5 170.5 " stroke="black" fill="none" stroke-width="6.0" stroke-linecap="round" stroke-linejoin="round" />
</svg>