<svg xmlns="http://www.w3.org/2000/svg" width="300" height="300" viewBox="0 0 300 300">
<path d="M 128.5 118.0 L 127.5 118.5 L 126.5 119.0 L 126.5 119.0 L 126.5 119.0 L 127.0 119.0 L 129.5 119.0 L 134.5 119.0 L 142.5 119.0 L 151.5 119.5 L 158.0 120.5 L 164.0 120.5 L 168.0 120.5 L 171.0 119.5 L 172.5 119.0 L 173.5 119.0 L 174.0 119.0 L 174.0 119.0 L 174.0 119.0 L 174.0 119.0 L 173.5 119.0 L 173.0 119.0 " stroke="black" fill="none" stroke-width="6.0" stroke-linecap="round" stroke-linejoin="round" />
<path d="M 143.5 125.5 L 143.5 125.0 L 143.5 124.5 L 143.5 124.0 L 143.5 123.5 L 144.0 124.5 L 144.5 128.5 L 145.0 137.5 L 143.0 150.5 L 141.0 162.5 L 140.0 167.0 L 140.0 166.5 L 140.5 165.0 L 140.5 162.5 " stroke="black" fill="none" stroke-width="6.0" stroke-linecap="round" stroke-linejoin="round" />
<path d="M 131.0 146.5 L 130.5 146.5 L 129.5 146.5 L 129.0 146.5 L 129.0 147.0 L 130.0 147.0 L 134.0 147.0 L 140.0 147.0 L 148.0 147.0 L 157.0 146.5 L 164.5 146.0 L 169.5 146.0 L 170.5 146.0 L 170.0 146.0 L 169.5 146.0 L 169.0 146.5 L 168.5 147.0 L 167.5 149.0 L 166.5 152.5 L 164.5 157.5 L 163.0 163.5 L 162.0 168.0 L 162.0 169.5 L 162.0 169.5 L 162.5 168.0 L 162.5 167.5 " stroke="black" fill="none" stroke-width="6.0" stroke-linecap="round" stroke-linejoin="round" />
<path d="M 123.0 169.0 L 122.0 169.0 L 121.5 168.5 L 122.0 168.5 L 124.5 168.5 L 131.0 169.0 L 141.5 170.0 L 155.5 170.0 L 168.5 169.5 L 178.5 168.5 L 184.5 168.5 L 186.0 169.0 L 186.0 169.0 L 185.0 169.0 L 183.0 169.5 " stroke="black" fill="none" stroke-width="6.0" stroke-linecap="round" stroke-linejoin="round" />
</svg>