<svg xmlns="http://www.w3.org/2000/svg" width="300" height="300" viewBox="0 0 300 300">
<path d="M 130.5 121.0 L 130.5 121.0 L 130.5 121.0 L 130.5 121.0 L 130.5 121.0 L 130.5 120.5 L 131.5 120.5 L 134.5 120.5 L 141.5 120.0 L 151.5 119.5 L 161.0 119.5 L 166.5 119.5 L 169.5 120.0 L 170.0 120.0 L 170.0 120.0 L 169.5 119.5 L 169.5 119.5 " stroke="black" fill="none" stroke-width="6.0" stroke-linecap="round" stroke-linejoin="round" />
<path d="M 153.0 110.5 L 153.0 110.5 L 153.5 110.0 L 154.0 110.0 L 154.0 110.5 L 153.0 114.0 L 150.5 121.0 L 148.0 128.0 L 148.0 130.5 " stroke="black" fill="none" stroke-width="6.0" stroke-linecap="round" stroke-linejoin="round" />
<path d="M 131.0 138.5 L 131.5 138.5 L 131.5 138.5 L 131.5 138.5 L 131.5 141.5 L 131.0 150.5 L 130.5 164.5 L 130.5 174.5 L 131.0 179.5 L 131.0 182.0 L 131.0 183.0 L 130.5 183.0 L 130.0 183.5 L 129.5 183.5 " stroke="black" fill="none" stroke-width="6.0" stroke-linecap="round" stroke-linejoin="round" />
<path d="M 136.5 141.0 L 136.5 141.0 L 136.5 141.0 L 136.0 140.5 L 135.5 140.5 L 135.0 140.5 L 135.5 140.5 L 137.5 140.0 L 142.0 140.0 L 150.5 139.5 L 160.0 138.5 L 167.5 138.0 L 170.5 137.5 L 171.5 137.5 L 171.0 138.0 L 170.5 138.5 L 170.5 139.5 L 170.5 141.5 L 170.5 144.5 L 170.5 149.5 L 170.5 157.5 L 170.5 168.0 L 170.5 179.0 L 170.0 187.0 L 170.0 192.0 L 170.0 194.5 L 169.0 195.5 L 167.5 196.5 L 165.5 197.0 L 163.0 197.0 L 162.0 195.5 L 161.0 193.5 " stroke="black" fill="none" stroke-width="6.0" stroke-linecap="round" stroke-linejoin="round" />
<path d="M 145.5 149.5 L 144.5 149.0 L 143.5 148.5 L 143.5 148.0 L 143.5 148.0 L 144.5 149.5 L 146.0 151.0 L 147.5 151.5 L 149.0 151.5 " stroke="black" fill="none" stroke-width="6.0" stroke-linecap="round" stroke-linejoin="round" />
<path d="M 155.0 147.0 L 155.5 147.0 L 156.0 147.0 L 156.5 147.0 L 156.5 147.5 L 156.5 148.5 L 156.5 149.5 L 156.0 151.5 L 154.5 153.5 " stroke="black" fill="none" stroke-width="6.0" stroke-linecap="round" stroke-linejoin="round" />
<path d="M 143.5 160.0 L 143.0 160.0 L 142.0 160.0 L 141.0 160.0 L 140.5 159.5 L 140.5 159.5 L 142.5 159.5 L 145.5 159.5 L 149.5 159.0 L 153.5 158.5 L 156.5 158.0 L 158.0 158.0 L 158.0 158.0 " stroke="black" fill="none" stroke-width="6.0" stroke-linecap="round" stroke-linejoin="round" />
<path d="M 146.0 171.0 L 145.5 171.0 L 144.5 171.0 L 144.0 171.0 L 143.5 171.0 L 143.5 171.0 L 144.5 171.5 L 147.0 171.5 L 150.5 171.5 L 154.5 171.5 L 158.5 171.5 L 160.5 171.5 L 161.5 171.0 L 161.5 171.0 " stroke="black" fill="none" stroke-width="6.0" stroke-linecap="round" stroke-linejoin="round" />
<path d="M 152.0 162.0 L 152.0 161.5 L 152.0 160.5 L 152.0 160.5 L 152.0 162.0 L 152.0 169.0 L 151.5 181.0 L 151.5 192.0 L 152.5 196.5 L 153.0 196.5 " stroke="black" fill="none" stroke-width="6.0" stroke-linecap="round" stroke-linejoin="round" />
</svg>