<svg xmlns="http://www.w3.org/2000/svg" width="300" height="300" viewBox="0 0 300 300">
<path d="M 123.0 122.5 L 122.0 122.5 L 120.5 122.5 L 120.5 122.5 L 122.0 122.5 L 127.0 122.0 L 133.5 121.0 L 139.0 120.5 L 143.5 120.0 L 144.5 120.5 L 144.5 120.5 " stroke="black" fill="none" stroke-width="7.0" stroke-linecap="round" stroke-linejoin="round" />
<path d="M 132.0 110.0 L 132.0 110.0 L 132.5 110.0 L 133.0 109.5 L 133.0 109.5 L 133.0 110.0 L 133.0 115.0 L 133.0 125.0 L 133.0 133.0 L 133.0 136.0 L 133.0 136.0 " stroke="black" fill="none" stroke-width="7.0" stroke-linecap="round" stroke-linejoin="round" />
<path d="M 121.0 141.0 L 121.0 141.0 L 120.0 140.5 L 120.0 140.5 L 120.0 143.5 L 121.0 150.0 L 122.5 158.0 L 123.5 162.5 L 124.5 164.0 L 124.5 163.5 " stroke="black" fill="none" stroke-width="7.0" stroke-linecap="round" stroke-linejoin="round" />
<path d="M 125.0 142.5 L 124.0 142.0 L 123.0 141.5 L 123.5 141.5 L 126.5 141.0 L 131.5 140.0 L 137.0 138.5 L 142.5 137.5 L 145.0 137.5 L 145.5 139.0 L 146.0 140.5 L 146.0 142.5 L 146.0 145.5 L 145.5 149.0 L 144.5 153.5 L 143.5 157.5 L 143.0 160.0 L 143.0 160.5 " stroke="black" fill="none" stroke-width="7.0" stroke-linecap="round" stroke-linejoin="round" />
<path d="M 128.0 154.5 L 127.0 155.5 L 126.5 155.5 L 129.0 155.5 L 133.5 154.5 L 138.0 153.0 L 141.5 152.0 L 142.0 152.0 " stroke="black" fill="none" stroke-width="7.0" stroke-linecap="round" stroke-linejoin="round" />
<path d="M 127.5 169.0 L 127.5 169.0 L 127.0 169.0 L 127.0 169.5 L 129.5 169.5 L 133.5 169.0 L 138.0 168.0 L 139.5 167.5 " stroke="black" fill="none" stroke-width="7.0" stroke-linecap="round" stroke-linejoin="round" />
<path d="M 122.5 185.5 L 122.5 185.5 L 122.5 184.0 L 124.0 183.0 L 128.5 182.5 L 136.0 181.5 L 144.0 181.5 L 149.5 182.0 L 152.0 183.0 " stroke="black" fill="none" stroke-width="7.0" stroke-linecap="round" stroke-linejoin="round" />
<path d="M 134.0 175.5 L 134.5 175.0 L 135.0 174.5 L 135.5 174.5 L 135.5 175.5 L 135.5 180.5 L 136.0 191.0 L 136.5 202.0 L 136.5 207.5 L 136.5 208.0 " stroke="black" fill="none" stroke-width="7.0" stroke-linecap="round" stroke-linejoin="round" />
<path d="M 160.5 119.0 L 160.5 119.0 L 161.0 119.0 L 161.0 119.0 L 161.5 120.5 L 162.5 126.0 L 163.5 141.0 L 163.5 161.0 L 162.5 176.5 L 161.5 186.0 L 161.0 190.5 L 160.5 193.0 L 160.5 195.0 L 160.5 195.0 " stroke="black" fill="none" stroke-width="7.0" stroke-linecap="round" stroke-linejoin="round" />
<path d="M 164.0 126.0 L 163.0 126.0 L 162.5 126.0 L 162.5 125.5 L 166.0 124.5 L 170.5 123.0 L 174.5 122.0 L 176.0 122.0 L 177.0 122.0 L 177.5 122.5 L 177.5 123.5 L 178.0 125.0 L 178.5 126.5 L 178.5 129.0 L 178.5 133.5 L 178.5 140.0 L 178.5 147.5 L 179.5 156.5 L 180.5 166.0 L 181.5 175.5 L 182.5 185.0 L 183.0 193.0 L 183.0 198.5 L 183.0 201.0 L 182.0 202.0 L 180.5 202.0 L 178.5 201.5 L 176.0 198.0 " stroke="black" fill="none" stroke-width="7.0" stroke-linecap="round" stroke-linejoin="round" />
<path d="M 169.0 148.5 L 167.5 149.0 L 166.5 149.0 L 167.0 149.0 L 169.5 149.0 L 173.0 148.5 L 176.5 148.5 L 179.5 148.5 L 180.5 148.5 " stroke="black" fill="none" stroke-width="7.0" stroke-linecap="round" stroke-linejoin="round" />
<path d="M 167.0 173.5 L 166.0 173.5 L 165.5 173.5 L 165.5 173.5 L 169.0 173.5 L 173.0 173.0 L 176.5 172.0 L 178.0 171.5 " stroke="black" fill="none" stroke-width="7.0" stroke-linecap="round" stroke-linejoin="round" />
</svg>