<svg xmlns="http://www.w3.org/2000/svg" width="300" height="300" viewBox="0 0 300 300">
<path d="M 125.0 116.5 L 125.0 116.5 L 125.0 116.0 L 125.5 115.5 L 125.5 115.0 L 125.5 114.5 L 126.0 114.5 L 126.0 114.5 L 126.5 117.0 L 127.0 125.0 L 127.0 140.0 L 126.0 157.0 L 125.5 169.5 L 126.0 175.0 L 126.0 176.5 L 125.5 176.0 " stroke="black" fill="none" stroke-width="6.0" stroke-linecap="round" stroke-linejoin="round" />
<path d="M 119.0 126.5 L 118.5 126.5 L 118.0 126.5 L 118.0 126.5 L 118.0 127.0 L 118.0 129.0 L 118.0 133.5 L 118.0 139.0 L 118.0 141.5 L 118.0 141.5 " stroke="black" fill="none" stroke-width="6.0" stroke-linecap="round" stroke-linejoin="round" />
<path d="M 138.5 121.0 L 137.5 120.5 L 137.0 120.5 L 137.0 120.5 L 137.5 123.0 L 138.5 128.0 L 140.0 132.5 L 141.0 135.0 " stroke="black" fill="none" stroke-width="6.0" stroke-linecap="round" stroke-linejoin="round" />
<path d="M 151.5 111.5 L 151.5 112.0 L 151.5 113.0 L 151.5 113.5 L 151.5 113.5 L 152.5 113.5 L 156.5 113.5 L 161.5 113.0 L 166.0 112.0 L 168.5 111.5 L 169.5 111.0 L 169.5 111.0 L 169.5 111.0 " stroke="black" fill="none" stroke-width="6.0" stroke-linecap="round" stroke-linejoin="round" />
<path d="M 155.0 124.5 L 155.0 124.5 L 155.0 124.5 L 155.0 124.5 L 156.0 124.5 L 158.5 124.0 L 162.0 123.5 L 165.0 123.5 L 167.5 123.0 L 168.5 122.0 " stroke="black" fill="none" stroke-width="6.0" stroke-linecap="round" stroke-linejoin="round" />
<path d="M 162.0 106.0 L 161.5 106.0 L 160.5 106.0 L 160.5 106.0 L 160.5 107.0 L 160.5 109.5 L 160.5 116.0 L 161.0 124.5 L 161.0 132.0 L 161.5 136.0 L 162.0 137.5 L 162.0 137.5 " stroke="black" fill="none" stroke-width="6.0" stroke-linecap="round" stroke-linejoin="round" />
<path d="M 154.0 137.0 L 154.0 137.0 L 153.5 137.0 L 153.5 137.0 L 153.5 137.5 L 153.5 137.5 L 156.0 137.5 L 159.5 137.5 L 164.0 137.0 L 168.0 136.5 L 170.5 135.5 L 171.5 135.0 " stroke="black" fill="none" stroke-width="6.0" stroke-linecap="round" stroke-linejoin="round" />
<path d="M 148.5 149.5 L 149.0 149.5 L 150.0 148.5 L 150.0 148.5 L 150.0 148.5 L 150.0 148.5 L 150.0 151.5 L 150.0 158.0 L 150.0 166.5 L 150.0 173.5 L 150.0 175.5 L 149.5 174.0 L 149.5 173.0 " stroke="black" fill="none" stroke-width="6.0" stroke-linecap="round" stroke-linejoin="round" />
<path d="M 152.0 145.0 L 152.0 145.0 L 152.0 145.0 L 152.0 145.0 L 152.5 145.0 L 154.5 145.5 L 157.5 146.5 L 161.0 146.5 L 164.5 146.5 L 167.0 146.5 L 168.5 146.5 L 169.0 146.5 L 169.0 147.0 L 169.0 147.5 L 169.0 148.5 L 169.0 150.0 L 169.0 152.5 L 169.0 156.0 L 169.0 160.5 L 169.0 165.5 L 169.0 170.5 L 169.0 175.5 L 168.5 179.5 L 168.0 183.0 L 167.5 185.5 L 167.0 185.5 L 166.5 185.5 L 166.0 184.0 " stroke="black" fill="none" stroke-width="6.0" stroke-linecap="round" stroke-linejoin="round" />
<path d="M 153.5 158.0 L 153.0 158.0 L 152.0 157.5 L 152.0 157.5 L 153.0 157.5 L 156.0 157.0 L 160.0 156.5 L 163.5 156.5 L 166.0 156.0 L 166.5 156.0 " stroke="black" fill="none" stroke-width="6.0" stroke-linecap="round" stroke-linejoin="round" />
<path d="M 155.5 168.0 L 155.5 168.0 L 155.5 168.0 L 155.0 168.0 L 155.5 168.0 L 157.5 168.0 L 161.0 168.0 L 164.5 168.0 L 167.5 168.0 " stroke="black" fill="none" stroke-width="6.0" stroke-linecap="round" stroke-linejoin="round" />
</svg>