<svg xmlns="http://www.w3.org/2000/svg" width="300" height="300" viewBox="0 0 300 300">
<path d="M 121.5 129.0 L 121.5 129.0 L 121.5 128.5 L 121.5 128.5 L 121.5 128.5 L 121.5 129.5 L 122.5 134.0 L 123.0 143.0 L 123.0 154.0 L 122.5 161.0 L 122.0 163.5 L 122.0 162.0 " stroke="black" fill="none" stroke-width="6.0" stroke-linecap="round" stroke-linejoin="round" />
<path d="M 124.0 126.5 L 123.5 126.5 L 122.5 127.0 L 122.5 127.5 L 125.0 127.5 L 128.0 127.5 L 131.5 127.0 L 134.0 126.5 L 136.5 126.0 L 138.0 125.5 L 139.0 125.5 L 139.0 126.0 L 139.5 127.0 L 139.5 128.5 L 139.5 132.0 L 139.5 137.0 L 139.5 144.0 L 140.0 150.5 L 140.0 155.5 L 140.0 158.5 L 140.0 160.0 L 139.5 160.0 " stroke="black" fill="none" stroke-width="6.0" stroke-linecap="round" stroke-linejoin="round" />
<path d="M 126.5 146.5 L 126.0 146.5 L 125.0 146.5 L 124.5 146.5 L 126.5 146.5 L 130.5 145.5 L 134.5 145.0 L 137.5 145.0 L 138.0 145.0 " stroke="black" fill="none" stroke-width="6.0" stroke-linecap="round" stroke-linejoin="round" />
<path d="M 126.5 161.0 L 126.0 161.5 L 126.0 162.0 L 126.5 162.0 L 129.5 162.0 L 134.0 161.0 L 138.0 159.5 " stroke="black" fill="none" stroke-width="6.0" stroke-linecap="round" stroke-linejoin="round" />
<path d="M 151.5 123.0 L 152.0 121.5 L 152.5 120.0 L 153.0 119.0 L 153.0 119.0 L 153.0 123.0 L 152.5 133.5 L 151.0 151.5 L 149.0 169.0 L 149.0 176.0 L 150.0 177.0 L 150.0 174.0 " stroke="black" fill="none" stroke-width="6.0" stroke-linecap="round" stroke-linejoin="round" />
<path d="M 156.5 118.5 L 156.5 119.0 L 157.0 119.5 L 157.0 119.5 L 157.5 119.5 L 160.0 118.5 L 164.0 116.5 L 168.0 115.0 L 171.5 114.0 L 173.5 114.0 L 175.0 115.0 L 176.5 117.0 L 178.0 120.5 L 178.5 126.5 L 179.5 134.0 L 180.0 143.0 L 180.0 152.0 L 180.0 161.5 L 180.0 170.5 L 178.5 177.0 L 178.0 181.5 L 177.0 183.0 L 175.5 182.0 L 172.5 178.0 " stroke="black" fill="none" stroke-width="6.0" stroke-linecap="round" stroke-linejoin="round" />
<path d="M 158.0 136.5 L 157.5 137.0 L 157.0 138.0 L 157.0 138.0 L 157.0 138.0 L 159.0 138.0 L 163.5 137.5 L 168.0 136.0 L 172.0 134.5 L 174.5 133.5 L 174.5 133.5 " stroke="black" fill="none" stroke-width="6.0" stroke-linecap="round" stroke-linejoin="round" />
<path d="M 155.5 152.5 L 155.5 153.0 L 155.0 153.5 L 155.0 153.5 L 155.0 153.5 L 158.0 153.0 L 163.0 151.5 L 169.0 151.0 L 173.5 150.5 L 175.0 150.5 " stroke="black" fill="none" stroke-width="6.0" stroke-linecap="round" stroke-linejoin="round" />
</svg>