<svg xmlns="http://www.w3.org/2000/svg" width="300" height="300" viewBox="0 0 300 300">
<path d="M 119.5 127.5 L 119.5 128.0 L 119.5 128.5 L 119.5 128.5 L 119.5 129.5 L 120.0 131.5 L 121.5 138.0 L 122.5 147.0 L 123.5 156.0 L 124.0 159.5 L 124.0 158.5 L 124.0 156.5 " stroke="black" fill="none" stroke-width="6.0" stroke-linecap="round" stroke-linejoin="round" />
<path d="M 124.5 127.5 L 122.0 129.0 L 120.5 130.0 L 120.5 130.0 L 122.5 129.0 L 125.5 128.0 L 128.5 126.5 L 131.5 126.0 L 134.5 125.0 L 137.0 125.0 L 139.0 125.0 L 139.5 127.5 L 140.0 132.5 L 139.0 141.0 L 139.0 150.0 L 139.0 155.5 L 139.0 157.5 L 139.0 157.5 L 139.0 156.5 " stroke="black" fill="none" stroke-width="6.0" stroke-linecap="round" stroke-linejoin="round" />
<path d="M 127.0 144.5 L 125.0 144.5 L 124.5 144.5 L 126.0 144.5 L 129.5 144.0 L 133.0 143.5 L 136.0 143.0 L 137.5 143.0 " stroke="black" fill="none" stroke-width="6.0" stroke-linecap="round" stroke-linejoin="round" />
<path d="M 128.0 156.5 L 127.0 159.5 L 127.0 161.0 L 130.0 161.0 L 133.5 160.5 L 137.0 159.0 L 139.0 157.0 " stroke="black" fill="none" stroke-width="6.0" stroke-linecap="round" stroke-linejoin="round" />
<path d="M 153.0 122.5 L 153.0 121.5 L 153.5 121.0 L 153.5 121.0 L 153.5 121.5 L 153.5 127.0 L 154.0 140.0 L 154.0 160.0 L 154.0 173.0 L 154.5 176.5 L 154.5 175.0 L 154.5 174.0 " stroke="black" fill="none" stroke-width="6.0" stroke-linecap="round" stroke-linejoin="round" />
<path d="M 155.0 118.5 L 155.0 118.5 L 155.0 118.5 L 155.5 118.5 L 156.0 118.0 L 158.0 118.0 L 160.5 117.5 L 162.5 117.5 L 165.0 117.0 L 166.5 117.0 L 167.5 117.0 L 168.0 117.0 L 168.0 117.5 L 168.5 119.0 L 169.0 121.0 L 169.5 124.5 L 170.5 130.0 L 172.0 138.5 L 173.5 148.0 L 174.5 157.5 L 175.0 166.5 L 175.0 173.0 L 175.0 178.5 L 174.5 180.0 L 173.0 179.5 L 170.5 177.0 L 169.0 173.5 " stroke="black" fill="none" stroke-width="6.0" stroke-linecap="round" stroke-linejoin="round" />
<path d="M 156.5 138.5 L 156.5 138.5 L 157.0 138.5 L 158.0 138.5 L 159.5 138.0 L 162.5 137.5 L 166.0 136.5 L 168.0 136.5 L 169.0 136.5 " stroke="black" fill="none" stroke-width="6.0" stroke-linecap="round" stroke-linejoin="round" />
<path d="M 159.0 150.0 L 158.5 152.0 L 160.0 153.0 L 163.5 152.0 L 167.5 151.0 L 171.0 150.0 L 173.0 149.0 " stroke="black" fill="none" stroke-width="6.0" stroke-linecap="round" stroke-linejoin="round" />
</svg>