<svg xmlns="http://www.w3.org/2000/svg" width="300" height="300" viewBox="0 0 300 300">
<path d="M 122.0 125.5 L 121.5 125.5 L 120.5 125.5 L 120.0 125.5 L 119.5 125.5 L 122.0 125.5 L 129.0 125.5 L 136.0 125.0 L 140.0 125.0 L 141.5 125.0 L 141.5 125.0 L 140.0 124.0 " stroke="black" fill="none" stroke-width="6.0" stroke-linecap="round" stroke-linejoin="round" />
<path d="M 131.5 115.5 L 131.5 115.0 L 131.5 114.0 L 131.5 113.5 L 131.5 113.5 L 131.5 114.0 L 131.5 118.0 L 131.5 127.0 L 131.0 143.0 L 130.5 160.5 L 131.5 169.5 L 132.5 174.0 L 132.5 176.0 L 132.5 176.0 L 132.0 173.0 " stroke="black" fill="none" stroke-width="6.0" stroke-linecap="round" stroke-linejoin="round" />
<path d="M 130.0 130.5 L 130.0 130.5 L 130.0 131.0 L 130.0 131.0 L 130.0 131.5 L 130.0 132.0 L 129.0 136.0 L 126.0 145.5 L 121.5 157.0 L 118.0 163.5 L 117.0 165.0 L 116.5 165.0 " stroke="black" fill="none" stroke-width="6.0" stroke-linecap="round" stroke-linejoin="round" />
<path d="M 131.5 134.0 L 132.0 134.5 L 132.5 135.0 L 133.5 135.5 L 134.5 137.0 L 137.0 139.5 L 139.0 143.5 L 140.5 146.0 L 141.0 147.0 " stroke="black" fill="none" stroke-width="6.0" stroke-linecap="round" stroke-linejoin="round" />
<path d="M 154.0 126.5 L 154.0 127.0 L 154.0 127.5 L 154.0 128.5 L 154.5 129.5 L 156.0 131.0 L 157.5 133.5 L 159.0 135.0 L 159.5 136.0 " stroke="black" fill="none" stroke-width="6.0" stroke-linecap="round" stroke-linejoin="round" />
<path d="M 168.0 109.0 L 168.0 109.0 L 168.0 109.0 L 168.0 109.0 L 168.0 109.0 L 168.5 109.5 L 168.5 110.5 L 169.0 117.0 L 169.0 131.5 L 167.5 148.0 L 165.0 160.0 L 162.0 168.5 L 161.0 172.0 L 160.5 172.5 L 160.0 172.5 " stroke="black" fill="none" stroke-width="6.0" stroke-linecap="round" stroke-linejoin="round" />
<path d="M 152.0 157.0 L 152.0 157.0 L 151.5 157.0 L 151.5 157.0 L 152.0 156.0 L 155.0 154.5 L 158.5 152.0 L 161.0 150.0 " stroke="black" fill="none" stroke-width="6.0" stroke-linecap="round" stroke-linejoin="round" />
<path d="M 185.5 126.5 L 185.5 126.5 L 185.5 126.5 L 185.5 126.5 L 185.5 126.5 L 185.5 126.5 L 185.5 127.5 L 184.0 130.0 L 183.0 132.5 L 182.5 133.0 " stroke="black" fill="none" stroke-width="6.0" stroke-linecap="round" stroke-linejoin="round" />
<path d="M 179.5 146.0 L 179.5 146.0 L 179.5 146.0 L 180.0 146.0 L 181.5 146.0 L 184.0 146.5 L 187.5 147.5 L 190.5 147.5 L 191.0 147.5 " stroke="black" fill="none" stroke-width="6.0" stroke-linecap="round" stroke-linejoin="round" />
<path d="M 176.0 109.0 L 176.5 109.5 L 177.5 110.0 L 177.5 110.0 L 177.5 110.5 L 177.5 111.0 L 177.5 113.5 L 177.0 119.5 L 176.5 129.5 L 176.0 141.5 L 176.0 153.0 L 176.5 160.5 L 177.5 164.0 L 179.0 166.5 L 180.5 168.0 L 182.5 168.5 L 185.5 168.5 L 189.5 168.5 L 193.0 168.0 L 195.5 167.5 L 197.5 167.0 L 198.0 166.5 L 198.5 165.5 L 198.5 164.5 L 198.5 163.0 L 198.5 161.5 L 198.0 160.0 L 198.0 159.0 L 198.0 158.0 " stroke="black" fill="none" stroke-width="6.0" stroke-linecap="round" stroke-linejoin="round" />
</svg>