<svg xmlns="http://www.w3.org/2000/svg" width="300" height="300" viewBox="0 0 300 300">
<path d="M 150.0 93.5 L 150.0 93.5 L 150.0 93.5 L 150.5 93.5 L 151.0 93.0 L 151.0 93.0 L 151.0 93.0 L 151.0 94.5 L 149.5 97.5 L 147.5 100.5 L 146.0 103.0 L 145.5 104.0 " stroke="black" fill="none" stroke-width="8.0" stroke-linecap="round" stroke-linejoin="round" />
<path d="M 130.0 112.0 L 130.0 112.0 L 130.5 112.0 L 130.5 111.5 L 131.0 111.5 L 131.0 114.5 L 131.5 120.5 L 131.5 127.0 L 132.5 131.5 L 133.0 132.5 L 133.5 131.0 L 133.5 130.5 " stroke="black" fill="none" stroke-width="8.0" stroke-linecap="round" stroke-linejoin="round" />
<path d="M 132.0 111.0 L 132.0 111.5 L 131.5 112.0 L 131.5 112.0 L 131.5 112.0 L 133.0 112.0 L 136.0 112.0 L 141.5 112.0 L 148.0 111.0 L 153.0 110.5 L 157.5 110.0 L 160.5 110.0 L 162.0 110.0 L 163.0 110.0 L 164.0 110.0 L 165.0 110.0 L 165.5 110.5 L 166.0 110.5 L 166.5 111.5 L 167.0 112.0 L 167.5 113.5 L 167.5 115.5 L 167.5 118.0 L 166.5 121.0 L 166.0 124.5 L 165.0 128.0 L 165.0 131.0 L 165.0 133.0 L 165.0 134.0 L 165.5 134.0 " stroke="black" fill="none" stroke-width="8.0" stroke-linecap="round" stroke-linejoin="round" />
<path d="M 134.0 126.0 L 134.0 126.0 L 134.0 126.0 L 134.5 126.0 L 135.5 126.0 L 138.0 125.5 L 142.5 125.5 L 148.5 125.0 L 153.0 125.0 L 156.5 125.0 L 156.5 125.0 " stroke="black" fill="none" stroke-width="8.0" stroke-linecap="round" stroke-linejoin="round" />
<path d="M 134.0 138.0 L 134.0 138.0 L 134.0 138.0 L 134.5 138.0 L 134.5 138.0 L 135.0 138.0 L 137.0 138.0 L 142.0 137.5 L 148.0 137.0 L 153.5 136.5 L 157.0 137.0 L 157.5 138.0 " stroke="black" fill="none" stroke-width="8.0" stroke-linecap="round" stroke-linejoin="round" />
<path d="M 132.0 149.5 L 132.0 149.5 L 132.0 149.5 L 132.0 150.0 L 132.0 150.0 L 133.5 150.0 L 137.5 149.5 L 144.0 148.5 L 151.0 147.5 L 157.0 147.0 L 160.5 147.0 L 162.0 147.5 L 162.0 148.0 L 161.5 148.0 L 161.0 148.0 L 160.0 148.0 " stroke="black" fill="none" stroke-width="8.0" stroke-linecap="round" stroke-linejoin="round" />
<path d="M 138.5 163.5 L 138.0 163.5 L 137.5 164.0 L 136.5 164.0 L 136.5 164.0 L 138.0 164.0 L 141.0 164.0 L 145.5 163.5 L 150.5 163.0 L 155.0 162.5 L 158.5 162.5 L 159.5 162.5 L 159.5 162.5 " stroke="black" fill="none" stroke-width="8.0" stroke-linecap="round" stroke-linejoin="round" />
<path d="M 147.5 152.0 L 147.0 152.0 L 146.5 152.0 L 146.0 152.0 L 146.0 152.5 L 146.0 154.0 L 146.5 158.0 L 147.0 164.5 L 147.0 171.5 L 147.0 177.0 L 147.0 179.5 L 147.0 180.0 L 147.5 179.0 " stroke="black" fill="none" stroke-width="8.0" stroke-linecap="round" stroke-linejoin="round" />
<path d="M 128.0 185.0 L 128.0 184.5 L 128.0 184.5 L 128.0 184.0 L 128.0 184.0 L 129.0 184.0 L 131.0 184.0 L 134.5 183.5 L 139.5 183.5 L 144.5 183.0 L 149.5 182.5 L 153.5 182.0 L 157.5 181.0 L 161.0 181.0 L 164.5 180.5 L 167.5 180.5 L 169.5 180.5 L 172.0 180.5 L 174.0 180.5 L 175.5 180.5 L 177.0 180.5 L 177.5 180.5 L 177.5 180.5 L 177.5 180.5 L 177.5 180.5 L 177.5 180.5 L 177.5 180.5 L 177.0 180.5 L 177.0 180.5 " stroke="black" fill="none" stroke-width="8.0" stroke-linecap="round" stroke-linejoin="round" />
</svg>