<svg xmlns="http://www.w3.org/2000/svg" width="300" height="300" viewBox="0 0 300 300">
<path d="M 116.0 123.0 L 116.0 123.0 L 116.0 123.0 L 116.0 123.0 L 117.0 122.5 L 121.0 122.5 L 128.5 122.5 L 136.0 122.0 L 141.5 122.0 L 143.0 122.0 L 143.0 122.0 " stroke="black" fill="none" stroke-width="7.0" stroke-linecap="round" stroke-linejoin="round" />
<path d="M 127.5 110.5 L 127.5 110.5 L 127.0 110.5 L 127.0 110.5 L 127.0 110.5 L 127.0 112.0 L 127.5 118.0 L 127.5 130.0 L 126.0 139.5 L 126.0 141.5 L 126.0 140.5 " stroke="black" fill="none" stroke-width="7.0" stroke-linecap="round" stroke-linejoin="round" />
<path d="M 110.5 145.5 L 110.5 145.5 L 110.0 145.0 L 110.0 145.0 L 111.5 144.5 L 116.5 144.5 L 126.0 144.5 L 135.5 144.0 L 140.5 143.0 L 141.5 142.5 " stroke="black" fill="none" stroke-width="7.0" stroke-linecap="round" stroke-linejoin="round" />
<path d="M 130.5 150.0 L 131.5 150.0 L 132.0 150.0 L 132.5 150.5 L 133.0 154.0 L 133.0 160.5 L 132.0 167.5 L 131.5 171.0 L 131.0 171.0 " stroke="black" fill="none" stroke-width="7.0" stroke-linecap="round" stroke-linejoin="round" />
<path d="M 130.5 164.0 L 130.5 164.0 L 131.5 164.0 L 132.5 164.0 L 134.5 164.0 L 137.5 164.0 L 141.0 163.0 L 143.5 162.0 " stroke="black" fill="none" stroke-width="7.0" stroke-linecap="round" stroke-linejoin="round" />
<path d="M 124.5 155.0 L 124.0 155.0 L 123.5 155.5 L 123.0 156.5 L 122.5 159.5 L 120.5 167.0 L 117.0 177.0 L 114.0 183.5 L 111.5 186.5 L 110.5 187.0 L 110.0 187.0 L 109.0 187.0 " stroke="black" fill="none" stroke-width="7.0" stroke-linecap="round" stroke-linejoin="round" />
<path d="M 122.0 179.5 L 121.5 180.0 L 121.0 180.0 L 122.0 180.5 L 126.0 180.5 L 134.0 180.5 L 147.0 181.0 L 161.5 183.0 L 174.5 184.5 L 182.0 184.5 L 182.0 183.0 " stroke="black" fill="none" stroke-width="7.0" stroke-linecap="round" stroke-linejoin="round" />
<path d="M 155.0 121.5 L 155.0 121.5 L 155.0 122.0 L 155.0 122.0 L 156.0 122.0 L 160.0 121.0 L 164.5 120.0 L 169.0 120.0 L 172.0 120.5 L 172.5 121.0 L 173.0 121.5 L 173.0 123.5 L 172.0 127.0 L 171.5 131.0 L 171.0 134.0 L 170.5 135.5 L 170.5 136.5 " stroke="black" fill="none" stroke-width="7.0" stroke-linecap="round" stroke-linejoin="round" />
<path d="M 156.5 142.0 L 156.0 142.0 L 155.5 142.5 L 155.0 142.5 L 155.5 142.5 L 159.5 142.5 L 164.5 142.0 L 169.5 141.0 L 172.0 139.5 " stroke="black" fill="none" stroke-width="7.0" stroke-linecap="round" stroke-linejoin="round" />
<path d="M 157.0 122.5 L 157.0 122.5 L 158.0 122.5 L 158.0 122.5 L 158.0 124.0 L 157.5 129.0 L 155.5 138.0 L 153.5 149.5 L 152.5 158.0 L 152.5 162.0 L 154.0 164.0 L 156.5 165.0 L 159.0 166.5 L 163.5 168.0 L 168.5 168.0 L 172.5 166.5 L 176.0 163.5 L 177.0 160.5 L 177.0 158.5 L 177.0 157.5 L 176.0 157.0 L 175.0 156.5 L 175.0 156.5 L 174.5 156.5 L 174.5 156.5 " stroke="black" fill="none" stroke-width="7.0" stroke-linecap="round" stroke-linejoin="round" />
</svg>