<svg xmlns="http://www.w3.org/2000/svg" width="300" height="300" viewBox="0 0 300 300">
<path d="M 131.0 122.5 L 131.0 122.0 L 130.0 122.0 L 130.0 121.5 L 130.0 121.5 L 131.0 121.5 L 133.5 122.0 L 138.5 122.0 L 147.0 122.5 L 156.5 122.5 L 164.5 122.0 L 169.5 122.0 L 171.0 122.0 L 171.0 122.0 L 171.0 122.0 L 172.0 122.0 L 173.0 122.0 L 173.5 122.0 L 174.0 122.0 " stroke="black" fill="none" stroke-width="6.0" stroke-linecap="round" stroke-linejoin="round" />
<path d="M 130.0 149.0 L 130.0 149.0 L 130.0 148.5 L 130.0 148.5 L 130.0 148.5 L 130.5 148.5 L 130.5 151.0 L 130.5 158.0 L 130.5 169.0 L 130.0 180.5 L 130.0 187.0 L 130.0 188.5 L 130.0 187.5 L 130.0 184.0 L 130.0 183.0 " stroke="black" fill="none" stroke-width="6.0" stroke-linecap="round" stroke-linejoin="round" />
<path d="M 135.5 143.5 L 133.5 143.5 L 132.5 143.5 L 132.5 143.5 L 133.0 143.5 L 134.0 144.5 L 135.5 145.0 L 137.5 146.0 L 140.5 146.5 L 146.0 146.5 L 153.5 145.0 L 162.0 142.5 L 169.0 141.0 L 173.0 140.5 L 174.5 141.0 L 175.5 142.0 L 176.0 143.0 L 176.0 143.5 L 176.5 144.0 L 177.0 144.5 L 177.0 146.5 L 177.0 149.0 L 177.0 153.0 L 177.0 159.0 L 176.5 167.5 L 176.5 176.5 L 176.5 185.0 L 177.0 190.5 L 177.5 193.5 L 177.5 194.5 L 177.5 194.5 L 177.0 194.5 L 175.5 193.0 L 173.5 191.5 L 172.0 189.5 L 170.0 187.5 " stroke="black" fill="none" stroke-width="6.0" stroke-linecap="round" stroke-linejoin="round" />
<path d="M 151.5 125.5 L 151.5 125.5 L 152.0 125.5 L 152.0 125.5 L 152.0 126.0 L 152.5 128.0 L 153.0 134.5 L 153.0 146.5 L 153.5 161.0 L 153.5 171.5 L 153.5 178.5 L 153.5 183.5 L 153.5 184.5 L 153.5 184.5 L 153.5 183.0 " stroke="black" fill="none" stroke-width="6.0" stroke-linecap="round" stroke-linejoin="round" />
<path d="M 143.0 156.0 L 142.5 156.0 L 141.5 156.0 L 141.0 156.0 L 141.0 156.0 L 141.0 157.0 L 142.5 159.0 L 144.0 161.5 L 145.5 164.0 L 146.0 166.0 L 146.5 167.5 " stroke="black" fill="none" stroke-width="6.0" stroke-linecap="round" stroke-linejoin="round" />
<path d="M 142.0 177.0 L 141.5 177.0 L 140.0 177.0 L 140.0 177.0 L 141.0 176.5 L 143.0 175.0 L 145.5 173.5 L 147.5 172.0 " stroke="black" fill="none" stroke-width="6.0" stroke-linecap="round" stroke-linejoin="round" />
<path d="M 168.0 150.5 L 168.0 150.5 L 167.0 150.5 L 167.0 150.5 L 167.0 151.0 L 166.5 152.0 L 166.0 154.5 L 165.5 158.0 L 165.5 159.0 " stroke="black" fill="none" stroke-width="6.0" stroke-linecap="round" stroke-linejoin="round" />
<path d="M 160.0 166.5 L 160.0 166.5 L 159.0 166.5 L 158.5 166.5 L 159.5 168.0 L 162.5 170.0 L 166.0 172.0 L 169.5 173.0 L 170.5 173.5 " stroke="black" fill="none" stroke-width="6.0" stroke-linecap="round" stroke-linejoin="round" />
</svg>