<svg xmlns="http://www.w3.org/2000/svg" width="300" height="300" viewBox="0 0 300 300">
<path d="M 148.5 121.0 L 149.5 119.0 L 150.0 117.0 L 150.5 116.0 L 151.5 115.5 L 151.5 115.5 L 151.5 117.0 L 151.5 121.5 L 150.0 128.5 L 148.0 137.5 L 145.0 148.0 L 141.5 158.0 L 138.5 167.0 L 135.0 174.0 L 133.0 179.0 L 131.0 182.0 L 130.0 183.0 L 129.5 183.0 L 129.5 183.0 L 129.5 182.5 " stroke="black" fill="none" stroke-width="6.0" stroke-linecap="round" stroke-linejoin="round" />
<path d="M 150.0 148.0 L 149.5 148.0 L 148.5 148.0 L 148.0 148.0 L 148.5 149.0 L 151.5 152.0 L 155.5 157.0 L 160.5 163.0 L 167.0 169.5 L 173.5 174.0 L 180.5 177.0 L 187.0 178.0 L 187.5 178.0 " stroke="black" fill="none" stroke-width="6.0" stroke-linecap="round" stroke-linejoin="round" />
</svg>