<svg xmlns="http://www.w3.org/2000/svg" width="300" height="300" viewBox="0 0 300 300">
<path d="M 120.5 113.5 L 120.5 113.5 L 120.5 113.5 L 120.5 113.5 L 120.5 113.5 L 122.0 115.0 L 124.0 117.5 L 126.0 120.5 L 127.5 123.0 L 128.0 124.0 " stroke="black" fill="none" stroke-width="6.0" stroke-linecap="round" stroke-linejoin="round" />
<path d="M 120.0 135.5 L 119.5 136.5 L 119.0 137.0 L 119.5 137.5 L 122.0 138.5 L 124.0 140.5 L 126.0 143.0 L 127.0 146.0 " stroke="black" fill="none" stroke-width="6.0" stroke-linecap="round" stroke-linejoin="round" />
<path d="M 115.5 175.5 L 115.5 177.0 L 115.5 177.5 L 116.5 177.0 L 120.0 172.5 L 124.5 166.5 L 128.0 160.5 L 129.5 157.0 " stroke="black" fill="none" stroke-width="6.0" stroke-linecap="round" stroke-linejoin="round" />
<path d="M 142.0 109.5 L 141.5 109.5 L 141.0 109.5 L 141.0 110.5 L 142.0 112.5 L 143.5 116.0 L 144.5 119.5 L 145.0 120.0 " stroke="black" fill="none" stroke-width="6.0" stroke-linecap="round" stroke-linejoin="round" />
<path d="M 143.0 111.0 L 142.0 111.5 L 141.5 112.0 L 142.0 111.5 L 145.0 110.5 L 148.5 109.5 L 154.0 108.5 L 162.5 107.0 L 171.5 106.0 L 177.5 106.0 L 179.0 106.5 L 179.0 107.0 L 178.5 107.0 L 178.5 107.0 L 178.5 107.0 L 178.0 108.5 L 177.5 110.5 L 177.0 113.5 L 176.5 116.0 L 176.5 117.5 L 176.0 118.0 " stroke="black" fill="none" stroke-width="6.0" stroke-linecap="round" stroke-linejoin="round" />
<path d="M 154.0 111.5 L 154.0 112.0 L 154.0 112.5 L 154.0 113.0 L 154.0 114.0 L 154.0 116.0 L 154.0 117.5 L 154.0 118.0 " stroke="black" fill="none" stroke-width="6.0" stroke-linecap="round" stroke-linejoin="round" />
<path d="M 165.0 107.0 L 165.0 107.5 L 165.0 108.0 L 165.0 109.0 L 165.0 111.0 L 164.5 114.0 L 163.0 118.0 L 162.5 119.0 " stroke="black" fill="none" stroke-width="6.0" stroke-linecap="round" stroke-linejoin="round" />
<path d="M 142.0 127.0 L 141.5 127.0 L 141.0 127.0 L 143.5 126.5 L 150.5 125.0 L 160.0 123.0 L 167.5 122.5 L 172.5 123.5 L 173.0 123.5 " stroke="black" fill="none" stroke-width="6.0" stroke-linecap="round" stroke-linejoin="round" />
<path d="M 148.5 135.0 L 147.5 136.0 L 146.5 136.0 L 147.0 136.0 L 151.0 135.0 L 157.0 133.0 L 164.5 131.5 L 169.0 131.0 L 170.5 131.0 L 170.5 131.5 " stroke="black" fill="none" stroke-width="6.0" stroke-linecap="round" stroke-linejoin="round" />
<path d="M 159.5 128.0 L 159.5 128.0 L 159.5 128.0 L 159.5 128.0 L 159.5 128.5 L 159.5 131.5 L 159.5 137.0 L 159.0 142.0 L 159.0 144.5 " stroke="black" fill="none" stroke-width="6.0" stroke-linecap="round" stroke-linejoin="round" />
<path d="M 142.5 148.5 L 141.5 149.0 L 141.5 149.0 L 142.5 149.0 L 147.5 148.5 L 155.5 148.0 L 164.5 147.5 L 172.0 147.5 L 176.5 146.0 " stroke="black" fill="none" stroke-width="6.0" stroke-linecap="round" stroke-linejoin="round" />
<path d="M 153.5 156.5 L 153.5 156.5 L 153.5 156.5 L 153.5 156.5 L 153.5 157.0 L 154.0 157.5 L 155.5 158.0 L 157.5 158.0 " stroke="black" fill="none" stroke-width="6.0" stroke-linecap="round" stroke-linejoin="round" />
<path d="M 167.5 154.5 L 167.0 155.5 L 167.0 156.0 L 167.0 156.0 L 167.0 156.0 L 167.0 157.0 L 167.0 158.0 L 166.5 159.0 " stroke="black" fill="none" stroke-width="6.0" stroke-linecap="round" stroke-linejoin="round" />
<path d="M 150.0 166.0 L 150.0 166.0 L 150.0 165.5 L 151.0 165.5 L 155.5 165.5 L 164.0 164.5 L 171.5 163.0 L 174.0 162.5 " stroke="black" fill="none" stroke-width="6.0" stroke-linecap="round" stroke-linejoin="round" />
<path d="M 150.5 177.5 L 151.0 177.5 L 152.0 177.5 L 154.5 177.5 L 159.5 176.5 L 166.0 175.5 L 170.5 175.5 L 173.0 175.5 L 173.5 175.5 " stroke="black" fill="none" stroke-width="6.0" stroke-linecap="round" stroke-linejoin="round" />
<path d="M 163.5 167.0 L 163.0 167.0 L 162.5 167.0 L 162.0 167.5 L 162.0 171.5 L 162.5 181.0 L 163.0 190.5 L 163.5 195.5 L 164.0 196.0 " stroke="black" fill="none" stroke-width="6.0" stroke-linecap="round" stroke-linejoin="round" />
</svg>