<svg xmlns="http://www.w3.org/2000/svg" width="300" height="300" viewBox="0 0 300 300">
<path d="M 129.0 126.0 L 129.0 126.0 L 129.0 126.0 L 129.0 125.5 L 129.0 125.5 L 129.0 125.5 L 129.0 125.5 L 130.0 125.5 L 133.0 125.5 L 139.0 125.5 L 148.0 125.5 L 157.5 124.0 L 164.5 122.5 L 168.0 122.0 L 169.0 122.0 L 169.0 122.0 L 169.0 122.0 L 169.0 122.0 L 169.0 122.0 L 169.5 122.0 L 169.5 122.5 L 169.5 123.0 " stroke="black" fill="none" stroke-width="6.0" stroke-linecap="round" stroke-linejoin="round" />
<path d="M 151.5 111.0 L 151.5 111.0 L 151.5 111.0 L 152.0 110.5 L 152.0 110.5 L 152.5 110.5 L 152.5 110.5 L 152.5 111.5 L 152.0 115.5 L 150.5 122.0 L 148.5 129.5 L 147.5 133.0 L 147.5 133.0 L 148.0 131.5 " stroke="black" fill="none" stroke-width="6.0" stroke-linecap="round" stroke-linejoin="round" />
<path d="M 127.5 142.5 L 127.5 142.5 L 127.5 141.5 L 127.5 141.0 L 127.5 141.0 L 127.5 141.0 L 128.0 142.5 L 128.5 146.5 L 129.0 154.5 L 129.0 165.0 L 129.0 175.0 L 129.5 178.0 L 129.5 177.0 L 129.5 172.5 L 128.5 170.0 " stroke="black" fill="none" stroke-width="6.0" stroke-linecap="round" stroke-linejoin="round" />
<path d="M 130.0 139.0 L 130.0 139.0 L 130.0 138.5 L 129.5 138.5 L 129.5 138.0 L 129.5 138.0 L 130.0 138.0 L 131.5 138.0 L 133.0 138.5 L 136.5 139.0 L 142.0 139.0 L 150.5 138.0 L 159.0 136.5 L 166.0 135.5 L 170.0 135.5 L 172.5 136.5 L 173.5 137.5 L 174.5 138.0 L 175.0 138.0 L 175.0 138.0 L 175.0 138.0 L 175.0 138.0 L 175.0 138.0 L 175.0 138.0 L 175.0 138.0 L 175.0 138.0 L 175.0 138.0 L 174.5 138.5 L 174.5 139.5 L 174.0 141.0 L 174.0 143.0 L 174.0 147.0 L 174.0 153.0 L 174.0 161.0 L 174.5 169.0 L 175.0 175.5 L 175.0 181.0 L 174.5 185.0 L 173.5 188.0 L 172.5 189.0 L 171.5 189.0 L 170.0 188.5 L 169.0 187.0 L 167.5 185.5 L 167.5 185.0 " stroke="black" fill="none" stroke-width="6.0" stroke-linecap="round" stroke-linejoin="round" />
<path d="M 141.5 147.5 L 141.5 147.5 L 141.5 147.5 L 141.5 147.0 L 141.5 147.0 L 142.5 147.5 L 144.5 149.5 L 146.0 150.5 L 148.0 151.5 L 148.0 151.5 " stroke="black" fill="none" stroke-width="6.0" stroke-linecap="round" stroke-linejoin="round" />
<path d="M 157.5 147.5 L 157.5 147.5 L 158.5 147.5 L 158.5 147.5 L 159.0 147.5 L 159.0 148.0 L 158.0 149.0 L 156.5 150.0 L 156.0 151.5 L 155.5 151.5 " stroke="black" fill="none" stroke-width="6.0" stroke-linecap="round" stroke-linejoin="round" />
<path d="M 142.5 160.5 L 142.0 160.5 L 140.5 161.0 L 140.0 161.0 L 140.0 161.0 L 142.0 161.0 L 145.5 161.0 L 149.0 160.5 L 152.5 160.0 L 155.5 159.5 L 157.5 159.0 L 157.5 159.0 " stroke="black" fill="none" stroke-width="6.0" stroke-linecap="round" stroke-linejoin="round" />
<path d="M 143.5 170.5 L 142.5 171.0 L 141.5 171.5 L 141.0 171.5 L 142.0 171.5 L 145.5 171.0 L 149.5 170.5 L 153.5 170.0 L 157.0 169.5 L 159.0 169.0 L 160.0 169.0 " stroke="black" fill="none" stroke-width="6.0" stroke-linecap="round" stroke-linejoin="round" />
<path d="M 152.0 163.5 L 152.0 163.5 L 152.0 163.5 L 151.5 163.5 L 151.5 164.5 L 151.5 167.0 L 151.5 173.5 L 151.5 181.5 L 151.5 186.5 L 151.5 187.0 " stroke="black" fill="none" stroke-width="6.0" stroke-linecap="round" stroke-linejoin="round" />
</svg>