<svg xmlns="http://www.w3.org/2000/svg" width="300" height="300" viewBox="0 0 300 300">
<path d="M 144.5 108.0 L 144.5 108.0 L 144.0 108.0 L 144.0 108.0 L 145.0 108.5 L 146.5 110.5 L 148.0 112.5 L 149.0 113.5 L 149.0 114.0 " stroke="black" fill="none" stroke-width="6.0" stroke-linecap="round" stroke-linejoin="round" />
<path d="M 126.0 120.5 L 126.0 120.5 L 125.0 120.5 L 125.0 120.0 L 125.0 120.5 L 125.0 122.5 L 125.0 126.5 L 124.5 130.0 L 124.0 132.0 L 124.0 132.5 " stroke="black" fill="none" stroke-width="6.0" stroke-linecap="round" stroke-linejoin="round" />
<path d="M 125.5 122.5 L 125.5 122.5 L 126.0 121.5 L 126.0 121.5 L 127.5 121.0 L 131.0 120.5 L 137.5 120.0 L 146.0 119.5 L 154.0 119.5 L 160.5 119.0 L 165.0 118.5 L 168.0 117.5 L 170.5 117.0 L 173.0 116.0 L 175.5 115.5 L 178.5 115.0 L 180.5 115.0 L 181.5 115.0 L 182.0 115.0 L 182.0 115.0 L 182.0 115.0 L 182.0 115.0 L 182.0 115.0 L 182.0 115.0 L 182.0 115.0 L 182.0 115.0 L 182.0 115.0 L 182.5 115.0 L 182.5 115.0 L 182.5 115.0 L 182.5 115.0 L 183.0 115.0 L 183.0 115.0 L 183.0 115.0 L 183.0 115.0 L 183.0 115.0 L 183.5 115.0 L 183.5 115.0 L 183.5 115.0 L 183.5 115.0 L 183.5 115.0 L 183.5 116.5 L 183.5 119.5 L 183.0 124.5 L 182.5 127.5 L 182.0 128.5 L 181.5 128.5 " stroke="black" fill="none" stroke-width="6.0" stroke-linecap="round" stroke-linejoin="round" />
<path d="M 135.0 130.5 L 135.5 130.5 L 136.5 130.0 L 136.5 130.0 L 136.5 130.5 L 134.5 133.0 L 131.5 137.5 L 129.0 141.5 L 128.0 143.0 L 127.5 143.0 " stroke="black" fill="none" stroke-width="6.0" stroke-linecap="round" stroke-linejoin="round" />
<path d="M 135.0 133.5 L 135.0 134.0 L 135.0 135.0 L 135.0 135.0 L 137.0 135.0 L 140.0 134.0 L 143.5 133.0 L 146.0 132.5 L 148.0 132.5 L 149.0 133.0 L 149.0 134.5 L 149.0 137.0 L 147.0 141.5 L 143.5 148.5 L 138.0 156.0 L 132.0 162.0 L 129.0 164.5 L 128.0 165.0 L 128.0 165.0 " stroke="black" fill="none" stroke-width="6.0" stroke-linecap="round" stroke-linejoin="round" />
<path d="M 137.0 142.5 L 137.0 142.5 L 137.0 142.5 L 137.0 142.0 L 137.0 142.0 L 138.0 142.0 L 139.0 142.5 L 140.0 143.0 " stroke="black" fill="none" stroke-width="6.0" stroke-linecap="round" stroke-linejoin="round" />
<path d="M 127.5 154.0 L 127.5 154.0 L 127.5 154.0 L 128.5 154.0 L 130.5 154.0 L 134.5 153.5 L 138.5 152.0 L 141.5 150.5 " stroke="black" fill="none" stroke-width="6.0" stroke-linecap="round" stroke-linejoin="round" />
<path d="M 162.5 132.0 L 162.0 132.5 L 161.0 133.0 L 160.0 133.5 L 160.0 133.5 L 161.5 133.5 L 165.5 132.5 L 169.5 132.0 L 173.5 131.5 L 176.0 131.0 L 177.0 131.0 L 177.5 131.0 L 177.5 131.0 L 177.0 132.0 L 176.0 133.5 L 175.0 136.5 L 173.5 139.0 L 172.5 141.0 L 172.5 141.5 L 172.0 141.5 " stroke="black" fill="none" stroke-width="6.0" stroke-linecap="round" stroke-linejoin="round" />
<path d="M 156.5 141.5 L 157.0 141.5 L 157.5 141.0 L 160.0 142.0 L 165.5 145.0 L 173.5 149.0 L 182.0 152.0 L 189.0 152.0 L 193.5 152.0 L 194.0 151.5 " stroke="black" fill="none" stroke-width="6.0" stroke-linecap="round" stroke-linejoin="round" />
<path d="M 146.5 156.0 L 146.5 156.0 L 145.5 156.0 L 145.5 156.5 L 145.5 156.5 L 148.0 156.0 L 152.5 155.0 L 157.0 154.0 L 161.0 154.0 L 163.5 153.5 L 164.5 153.5 L 164.5 153.5 L 164.0 153.0 " stroke="black" fill="none" stroke-width="6.0" stroke-linecap="round" stroke-linejoin="round" />
<path d="M 137.0 169.0 L 138.0 169.0 L 139.0 168.5 L 139.5 168.0 L 141.5 168.0 L 145.5 167.5 L 152.0 166.0 L 160.0 165.0 L 167.0 164.0 L 172.0 162.5 L 174.0 162.0 L 174.0 162.0 L 173.0 162.5 " stroke="black" fill="none" stroke-width="6.0" stroke-linecap="round" stroke-linejoin="round" />
<path d="M 155.0 170.0 L 156.0 170.0 L 156.5 169.5 L 156.5 169.5 L 156.5 170.0 L 156.5 173.0 L 156.5 178.5 L 156.5 187.0 L 156.5 195.0 L 157.5 198.5 L 157.5 198.5 L 157.5 197.0 " stroke="black" fill="none" stroke-width="6.0" stroke-linecap="round" stroke-linejoin="round" />
<path d="M 146.0 180.5 L 146.0 180.5 L 145.0 181.0 L 143.0 182.0 L 139.5 185.0 L 136.0 189.0 L 134.5 191.0 L 136.0 190.5 " stroke="black" fill="none" stroke-width="6.0" stroke-linecap="round" stroke-linejoin="round" />
<path d="M 171.5 180.0 L 171.5 180.0 L 171.5 181.5 L 172.0 182.5 L 174.5 184.5 L 180.0 187.5 L 186.0 190.5 L 189.0 191.5 " stroke="black" fill="none" stroke-width="6.0" stroke-linecap="round" stroke-linejoin="round" />
</svg>