<svg xmlns="http://www.w3.org/2000/svg" width="300" height="300" viewBox="0 0 300 300">
<path d="M 126.5 100.5 L 126.5 100.0 L 126.5 99.5 L 126.5 99.5 L 127.0 99.5 L 128.0 102.0 L 128.5 106.5 L 129.0 111.0 L 129.0 114.0 L 129.0 115.0 " stroke="black" fill="none" stroke-width="7.0" stroke-linecap="round" stroke-linejoin="round" />
<path d="M 120.0 110.5 L 119.0 111.0 L 118.5 111.5 L 119.0 111.5 L 122.5 111.5 L 128.5 110.5 L 134.5 109.0 L 141.0 108.0 L 146.5 106.5 L 148.5 106.0 " stroke="black" fill="none" stroke-width="7.0" stroke-linecap="round" stroke-linejoin="round" />
<path d="M 160.5 97.0 L 160.5 97.0 L 160.0 96.5 L 159.5 96.0 L 159.5 96.0 L 159.5 96.0 L 159.5 98.0 L 159.5 101.0 L 159.5 107.5 L 160.0 111.0 L 160.5 112.0 " stroke="black" fill="none" stroke-width="7.0" stroke-linecap="round" stroke-linejoin="round" />
<path d="M 153.0 107.0 L 152.5 107.5 L 152.5 108.0 L 152.0 108.0 L 154.0 108.0 L 158.5 108.0 L 165.5 107.0 L 172.5 106.5 L 176.5 105.5 L 177.5 105.5 " stroke="black" fill="none" stroke-width="7.0" stroke-linecap="round" stroke-linejoin="round" />
<path d="M 121.5 127.0 L 121.0 127.5 L 120.0 128.0 L 120.0 128.0 L 121.5 128.0 L 125.0 127.5 L 131.0 127.0 L 141.5 126.0 L 154.5 125.0 L 167.5 124.5 L 175.0 124.0 L 176.5 124.5 L 176.0 125.0 L 175.0 124.5 L 174.0 124.5 " stroke="black" fill="none" stroke-width="7.0" stroke-linecap="round" stroke-linejoin="round" />
<path d="M 126.0 142.0 L 126.0 142.0 L 125.0 142.0 L 125.0 142.0 L 125.5 142.0 L 129.0 142.0 L 133.5 141.5 L 138.0 141.0 L 141.0 140.5 L 141.5 140.0 " stroke="black" fill="none" stroke-width="7.0" stroke-linecap="round" stroke-linejoin="round" />
<path d="M 133.0 134.0 L 133.0 134.5 L 133.0 135.0 L 133.0 136.0 L 133.0 138.0 L 133.5 143.0 L 134.0 148.5 L 134.0 151.5 L 134.0 152.0 " stroke="black" fill="none" stroke-width="7.0" stroke-linecap="round" stroke-linejoin="round" />
<path d="M 158.0 140.0 L 158.0 140.0 L 158.0 140.0 L 157.5 140.0 L 158.5 140.0 L 161.5 140.0 L 166.0 140.0 L 170.0 139.5 L 171.5 138.5 " stroke="black" fill="none" stroke-width="7.0" stroke-linecap="round" stroke-linejoin="round" />
<path d="M 166.5 132.0 L 165.0 133.5 L 164.5 135.0 L 164.5 137.5 L 164.5 141.0 L 165.5 145.0 L 166.0 148.5 L 166.5 149.5 " stroke="black" fill="none" stroke-width="7.0" stroke-linecap="round" stroke-linejoin="round" />
<path d="M 130.5 161.5 L 131.5 161.5 L 132.0 161.0 L 133.0 161.0 L 136.0 161.0 L 142.0 161.0 L 152.0 160.5 L 161.5 160.0 L 167.5 160.0 L 168.5 160.5 L 167.5 161.0 L 166.5 160.0 " stroke="black" fill="none" stroke-width="7.0" stroke-linecap="round" stroke-linejoin="round" />
<path d="M 141.5 175.0 L 141.5 175.5 L 141.5 176.0 L 141.0 176.0 L 141.5 176.0 L 144.5 176.0 L 149.5 175.5 L 155.5 175.5 L 160.5 175.5 L 163.0 174.5 L 163.5 173.5 " stroke="black" fill="none" stroke-width="7.0" stroke-linecap="round" stroke-linejoin="round" />
<path d="M 149.0 130.0 L 149.0 130.0 L 149.0 129.5 L 149.0 129.5 L 149.0 129.0 L 149.0 129.0 L 149.0 129.0 L 149.0 129.0 L 149.5 131.5 L 149.5 135.0 L 149.5 139.5 L 150.0 145.0 L 150.0 150.0 L 150.5 154.5 L 150.5 159.0 L 151.0 163.0 L 151.0 166.5 L 151.0 169.0 L 151.5 171.0 L 151.5 172.5 L 151.5 174.5 L 151.5 176.5 L 151.5 179.0 L 151.5 181.0 L 151.5 182.5 L 151.5 184.0 L 151.5 185.5 L 151.5 187.0 L 152.0 188.5 L 152.0 190.0 L 152.0 191.0 L 152.0 192.0 L 152.0 193.0 L 152.0 194.0 L 152.0 195.5 L 152.5 196.5 L 152.5 197.5 L 152.5 198.5 L 152.5 199.5 L 152.5 200.5 L 152.5 201.0 L 152.5 201.5 L 152.5 202.0 L 152.5 202.5 L 152.5 202.5 L 153.0 203.0 L 153.0 203.0 L 153.0 203.5 L 153.0 203.5 L 153.0 203.5 L 153.0 203.0 " stroke="black" fill="none" stroke-width="7.0" stroke-linecap="round" stroke-linejoin="round" />
</svg>