<svg xmlns="http://www.w3.org/2000/svg" width="300" height="300" viewBox="0 0 300 300">
<path d="M 128.0 110.5 L 128.0 111.0 L 128.0 112.0 L 128.0 112.0 L 128.0 112.5 L 129.0 112.0 L 131.5 111.5 L 137.0 110.5 L 145.5 109.5 L 157.0 108.0 L 167.0 107.0 L 172.0 107.0 L 173.0 107.0 L 172.5 107.0 L 172.0 107.0 L 171.5 107.0 L 171.5 107.0 L 171.5 107.0 L 171.5 107.5 " stroke="black" fill="none" stroke-width="6.0" stroke-linecap="round" stroke-linejoin="round" />
<path d="M 148.0 114.0 L 148.0 114.0 L 148.0 114.5 L 148.0 115.0 L 148.0 116.0 L 147.0 118.5 L 145.5 123.0 L 144.5 126.5 L 144.0 127.5 " stroke="black" fill="none" stroke-width="6.0" stroke-linecap="round" stroke-linejoin="round" />
<path d="M 126.5 136.0 L 126.5 135.5 L 126.0 135.5 L 126.0 135.0 L 126.0 135.5 L 126.0 141.0 L 127.0 151.0 L 128.0 165.5 L 129.0 176.5 L 129.5 181.0 L 129.5 181.5 L 129.0 177.5 L 128.0 174.0 " stroke="black" fill="none" stroke-width="6.0" stroke-linecap="round" stroke-linejoin="round" />
<path d="M 130.5 131.5 L 130.5 132.5 L 130.0 133.0 L 130.0 133.0 L 132.0 133.0 L 135.5 132.5 L 141.0 131.5 L 149.0 130.0 L 158.5 128.5 L 167.0 127.5 L 173.5 127.0 L 177.0 127.0 L 177.0 127.5 L 176.5 128.0 L 176.5 129.5 L 176.0 131.5 L 176.0 135.0 L 176.5 141.0 L 176.5 148.5 L 176.0 158.0 L 176.0 167.5 L 175.5 174.0 L 174.5 179.0 L 173.5 183.5 L 172.5 186.0 L 172.0 187.0 L 171.0 186.5 L 168.5 184.0 L 166.0 180.0 " stroke="black" fill="none" stroke-width="6.0" stroke-linecap="round" stroke-linejoin="round" />
<path d="M 144.5 135.5 L 144.5 136.0 L 144.0 136.5 L 144.0 137.0 L 144.0 139.5 L 144.5 147.5 L 145.0 158.5 L 145.0 166.5 L 145.0 170.0 L 145.0 170.0 " stroke="black" fill="none" stroke-width="6.0" stroke-linecap="round" stroke-linejoin="round" />
<path d="M 155.5 131.5 L 156.0 133.5 L 156.0 135.0 L 156.5 139.5 L 157.5 148.5 L 158.5 159.0 L 159.5 166.5 L 160.0 171.0 L 160.0 172.0 L 160.0 172.0 " stroke="black" fill="none" stroke-width="6.0" stroke-linecap="round" stroke-linejoin="round" />
</svg>