<svg xmlns="http://www.w3.org/2000/svg" width="300" height="300" viewBox="0 0 300 300">
<path d="M 126.5 116.5 L 126.5 116.5 L 127.5 116.5 L 128.0 116.5 L 129.0 116.5 L 131.5 116.0 L 137.5 115.5 L 146.5 114.0 L 157.0 112.5 L 164.0 111.5 L 167.5 111.5 L 167.5 111.5 L 167.0 111.5 L 166.5 111.5 L 166.0 111.5 L 165.5 111.5 " stroke="black" fill="none" stroke-width="6.0" stroke-linecap="round" stroke-linejoin="round" />
<path d="M 145.5 117.0 L 145.5 117.0 L 146.5 116.5 L 147.0 116.5 L 147.0 116.5 L 146.5 118.5 L 145.5 122.0 L 144.5 126.0 L 143.5 128.5 L 143.5 129.0 " stroke="black" fill="none" stroke-width="6.0" stroke-linecap="round" stroke-linejoin="round" />
<path d="M 129.0 132.5 L 129.5 133.0 L 130.0 133.0 L 130.0 133.5 L 130.5 134.0 L 131.0 135.5 L 131.5 138.5 L 132.5 144.0 L 133.0 152.5 L 133.5 161.5 L 134.0 168.0 L 134.5 170.0 L 134.5 170.0 L 134.5 168.0 L 134.0 166.0 " stroke="black" fill="none" stroke-width="6.0" stroke-linecap="round" stroke-linejoin="round" />
<path d="M 133.5 131.0 L 133.0 131.5 L 132.0 133.0 L 131.5 133.0 L 131.5 133.0 L 133.0 132.5 L 136.0 132.0 L 141.0 130.5 L 148.5 129.0 L 157.0 127.5 L 164.0 127.0 L 168.5 128.0 L 170.5 128.5 L 170.5 129.0 L 170.5 129.0 L 170.0 129.0 L 170.0 129.0 L 170.0 129.0 L 169.5 129.5 L 169.0 133.5 L 168.5 138.0 L 168.0 145.5 L 167.5 155.0 L 167.5 164.0 L 167.5 171.0 L 168.0 175.5 L 168.5 178.0 L 168.5 178.5 L 168.5 178.5 L 167.5 178.5 L 165.0 177.5 L 162.5 175.0 L 160.5 172.0 " stroke="black" fill="none" stroke-width="6.0" stroke-linecap="round" stroke-linejoin="round" />
<path d="M 144.5 133.0 L 144.5 133.5 L 144.5 133.5 L 144.5 134.0 L 144.5 135.0 L 145.0 137.5 L 145.0 145.0 L 145.5 156.0 L 145.5 163.0 L 146.0 164.5 L 146.5 161.5 " stroke="black" fill="none" stroke-width="6.0" stroke-linecap="round" stroke-linejoin="round" />
<path d="M 154.0 132.5 L 154.0 132.5 L 155.0 133.0 L 155.0 133.0 L 155.5 133.0 L 155.5 133.5 L 156.0 135.5 L 156.0 141.0 L 156.5 149.5 L 156.5 157.0 L 156.5 160.0 " stroke="black" fill="none" stroke-width="6.0" stroke-linecap="round" stroke-linejoin="round" />
</svg>