<svg xmlns="http://www.w3.org/2000/svg" width="300" height="300" viewBox="0 0 300 300">
<path d="M 128.0 109.0 L 127.5 109.0 L 127.0 109.5 L 127.0 109.5 L 132.0 109.0 L 140.5 108.0 L 150.5 107.0 L 159.0 106.0 L 163.5 106.0 L 164.5 106.0 L 164.5 106.0 L 164.0 106.0 L 163.0 106.0 L 162.5 106.0 " stroke="black" fill="none" stroke-width="6.0" stroke-linecap="round" stroke-linejoin="round" />
<path d="M 149.5 109.5 L 149.5 109.5 L 149.5 109.5 L 149.5 109.5 L 149.5 109.5 L 148.5 112.0 L 147.5 117.5 L 146.5 123.5 L 146.0 126.0 " stroke="black" fill="none" stroke-width="6.0" stroke-linecap="round" stroke-linejoin="round" />
<path d="M 130.0 129.5 L 130.5 129.0 L 131.0 128.5 L 131.5 128.5 L 131.5 131.0 L 131.0 139.5 L 130.5 154.0 L 130.0 168.5 L 130.0 177.0 L 130.0 178.0 L 130.0 176.0 " stroke="black" fill="none" stroke-width="6.0" stroke-linecap="round" stroke-linejoin="round" />
<path d="M 133.0 127.5 L 133.0 127.5 L 133.5 127.5 L 134.0 127.5 L 135.5 127.5 L 140.0 127.5 L 147.5 127.5 L 155.5 127.0 L 161.5 126.5 L 165.5 126.0 L 167.5 126.0 L 168.5 126.5 L 169.5 127.0 L 170.5 127.0 L 171.5 127.5 L 172.5 129.0 L 173.0 132.5 L 173.0 138.0 L 173.0 146.0 L 173.0 156.0 L 173.0 165.5 L 172.0 173.5 L 170.5 178.5 L 169.0 181.0 L 167.0 181.0 L 164.5 178.5 L 163.5 176.5 " stroke="black" fill="none" stroke-width="6.0" stroke-linecap="round" stroke-linejoin="round" />
<path d="M 145.0 131.0 L 145.0 131.0 L 145.0 131.0 L 145.0 131.5 L 145.0 132.0 L 145.0 135.0 L 145.0 144.5 L 145.0 157.5 L 145.0 165.0 L 145.5 166.5 L 145.5 166.0 " stroke="black" fill="none" stroke-width="6.0" stroke-linecap="round" stroke-linejoin="round" />
<path d="M 155.5 130.5 L 157.0 131.0 L 157.5 131.0 L 157.5 132.0 L 157.5 134.5 L 158.0 141.0 L 158.0 151.5 L 158.0 160.0 L 158.5 164.0 L 158.5 164.0 " stroke="black" fill="none" stroke-width="6.0" stroke-linecap="round" stroke-linejoin="round" />
</svg>