<svg xmlns="http://www.w3.org/2000/svg" width="300" height="300" viewBox="0 0 300 300">
<path d="M 129.5 116.0 L 129.5 116.0 L 130.0 116.5 L 130.5 116.5 L 131.5 116.5 L 134.0 116.5 L 140.5 115.5 L 149.5 115.0 L 161.0 114.0 L 170.0 113.5 L 173.5 113.0 L 174.5 113.0 L 174.0 113.0 L 174.0 113.0 L 173.5 113.0 L 173.5 113.0 L 173.0 113.0 L 172.5 113.0 " stroke="black" fill="none" stroke-width="6.0" stroke-linecap="round" stroke-linejoin="round" />
<path d="M 151.5 118.0 L 152.5 118.0 L 153.0 118.0 L 153.0 118.0 L 152.5 120.0 L 151.0 123.5 L 149.5 127.5 L 148.0 130.0 " stroke="black" fill="none" stroke-width="6.0" stroke-linecap="round" stroke-linejoin="round" />
<path d="M 129.0 132.5 L 129.5 132.5 L 130.5 132.5 L 130.5 132.5 L 131.0 133.0 L 131.5 136.0 L 132.0 143.5 L 132.0 154.0 L 131.0 164.0 L 131.0 170.0 L 131.0 171.0 L 131.5 169.0 L 131.5 168.0 " stroke="black" fill="none" stroke-width="6.0" stroke-linecap="round" stroke-linejoin="round" />
<path d="M 134.5 131.0 L 134.0 132.0 L 134.0 132.5 L 134.0 132.5 L 136.0 132.5 L 139.5 132.5 L 146.5 132.0 L 156.0 130.5 L 165.5 129.0 L 171.5 129.0 L 174.0 129.0 L 175.0 129.0 L 175.5 129.0 L 175.5 128.5 L 175.5 128.5 L 175.5 128.5 L 175.5 128.5 L 175.5 129.0 L 175.5 129.0 L 176.0 130.0 L 176.0 131.5 L 176.0 134.5 L 176.0 138.5 L 176.0 144.5 L 176.0 152.0 L 176.0 159.0 L 176.0 165.0 L 176.0 170.0 L 176.0 173.5 L 176.0 175.5 L 175.5 176.0 L 174.5 176.0 L 173.0 175.5 L 171.0 173.5 L 169.0 171.5 " stroke="black" fill="none" stroke-width="6.0" stroke-linecap="round" stroke-linejoin="round" />
<path d="M 144.0 138.5 L 144.0 138.0 L 144.5 137.5 L 145.0 137.5 L 145.0 138.5 L 145.5 142.5 L 146.5 151.5 L 146.5 160.5 L 147.0 165.5 L 147.0 166.0 L 146.5 166.0 " stroke="black" fill="none" stroke-width="6.0" stroke-linecap="round" stroke-linejoin="round" />
<path d="M 162.5 133.0 L 162.5 133.0 L 162.0 133.5 L 162.0 133.5 L 162.0 134.5 L 162.0 137.5 L 163.0 144.0 L 164.0 153.0 L 164.5 160.0 L 165.0 164.5 L 165.0 165.5 " stroke="black" fill="none" stroke-width="6.0" stroke-linecap="round" stroke-linejoin="round" />
</svg>