<svg xmlns="http://www.w3.org/2000/svg" width="300" height="300" viewBox="0 0 300 300">
<path d="M 129.5 111.5 L 129.5 111.5 L 129.5 111.5 L 129.5 111.5 L 129.5 111.5 L 131.5 112.0 L 137.5 112.0 L 148.0 112.0 L 157.5 112.0 L 164.0 111.0 L 166.5 110.0 L 167.0 110.0 L 167.0 110.0 L 167.0 110.0 L 167.0 110.0 L 167.0 110.0 L 166.5 110.0 L 166.5 110.5 " stroke="black" fill="none" stroke-width="6.0" stroke-linecap="round" stroke-linejoin="round" />
<path d="M 151.0 114.0 L 151.0 114.0 L 152.0 113.5 L 152.5 113.5 L 152.5 113.5 L 152.0 114.0 L 150.5 116.5 L 149.0 120.0 L 147.5 123.5 L 146.5 125.5 L 146.5 126.5 L 146.5 126.5 " stroke="black" fill="none" stroke-width="6.0" stroke-linecap="round" stroke-linejoin="round" />
<path d="M 128.5 131.5 L 128.5 131.5 L 128.5 130.5 L 128.5 130.0 L 129.0 130.0 L 129.0 129.5 L 129.5 131.0 L 130.5 135.5 L 131.5 144.0 L 132.0 155.5 L 132.0 165.5 L 132.0 171.5 L 132.0 173.5 L 131.5 173.5 L 130.5 172.5 L 129.5 170.5 " stroke="black" fill="none" stroke-width="6.0" stroke-linecap="round" stroke-linejoin="round" />
<path d="M 130.5 131.5 L 131.0 131.5 L 132.0 131.5 L 132.5 131.5 L 135.5 131.0 L 140.0 130.5 L 145.5 129.5 L 151.5 129.0 L 157.0 128.5 L 161.0 128.0 L 163.5 128.0 L 165.5 127.5 L 167.5 127.5 L 169.0 127.5 L 171.0 128.0 L 172.0 128.0 L 172.5 128.5 L 173.0 128.5 L 173.0 128.5 L 173.0 129.0 L 173.5 130.0 L 173.5 131.0 L 173.5 133.5 L 174.0 137.0 L 174.0 142.0 L 174.5 148.5 L 175.0 156.0 L 175.5 163.0 L 175.5 169.0 L 175.5 174.5 L 175.5 178.5 L 175.0 180.5 L 173.5 181.5 L 171.0 181.0 L 168.0 179.0 L 166.0 177.0 " stroke="black" fill="none" stroke-width="6.0" stroke-linecap="round" stroke-linejoin="round" />
<path d="M 148.0 134.5 L 147.0 134.5 L 146.5 134.5 L 146.0 134.5 L 146.0 134.5 L 146.0 135.0 L 146.5 139.0 L 147.0 147.0 L 147.5 157.0 L 147.5 165.0 L 147.5 168.5 L 147.0 168.5 " stroke="black" fill="none" stroke-width="6.0" stroke-linecap="round" stroke-linejoin="round" />
<path d="M 156.0 133.5 L 156.5 133.5 L 157.0 134.0 L 157.5 134.5 L 157.5 135.0 L 157.5 136.5 L 157.5 140.5 L 157.5 148.0 L 157.5 158.5 L 157.5 167.5 L 157.0 171.0 L 156.5 172.0 " stroke="black" fill="none" stroke-width="6.0" stroke-linecap="round" stroke-linejoin="round" />
</svg>