<svg xmlns="http://www.w3.org/2000/svg" width="300" height="300" viewBox="0 0 300 300">
<path d="M 124.0 100.0 L 125.5 100.0 L 127.5 100.0 L 131.0 100.0 L 138.0 100.0 L 147.5 100.5 L 157.0 101.5 L 164.0 101.5 L 168.0 101.5 L 168.5 101.5 L 168.5 101.5 L 169.0 101.5 L 169.0 101.0 L 169.0 101.0 L 169.0 101.0 " stroke="black" fill="none" stroke-width="6.0" stroke-linecap="round" stroke-linejoin="round" />
<path d="M 147.5 105.5 L 148.0 105.0 L 149.5 104.0 L 150.0 104.0 L 150.5 103.5 L 150.5 104.0 L 149.0 107.5 L 146.0 112.5 L 143.0 118.0 L 141.5 120.5 " stroke="black" fill="none" stroke-width="6.0" stroke-linecap="round" stroke-linejoin="round" />
<path d="M 125.5 123.0 L 125.5 122.5 L 126.0 121.5 L 126.0 121.0 L 126.0 121.0 L 126.0 121.5 L 126.5 125.5 L 126.5 133.0 L 125.0 146.0 L 123.5 160.5 L 123.0 170.0 L 123.5 172.5 L 124.5 171.5 L 124.5 166.0 " stroke="black" fill="none" stroke-width="6.0" stroke-linecap="round" stroke-linejoin="round" />
<path d="M 126.0 120.5 L 126.0 120.5 L 126.0 120.0 L 126.5 120.0 L 128.0 120.0 L 131.5 120.0 L 137.5 120.0 L 146.0 120.0 L 155.5 119.5 L 164.0 119.0 L 168.5 119.0 L 170.0 120.0 L 170.5 120.5 L 170.5 121.0 L 170.5 122.0 L 170.5 123.5 L 170.5 126.0 L 170.5 130.0 L 170.5 135.5 L 170.5 143.0 L 170.5 152.0 L 170.5 160.0 L 170.0 167.0 L 168.5 171.5 L 166.0 175.0 L 163.5 176.5 L 162.0 176.5 L 161.0 174.0 L 160.5 172.5 " stroke="black" fill="none" stroke-width="6.0" stroke-linecap="round" stroke-linejoin="round" />
<path d="M 142.0 125.5 L 142.0 125.0 L 142.0 124.5 L 142.0 125.5 L 142.0 130.0 L 142.0 139.0 L 142.0 151.5 L 142.0 160.0 L 142.5 162.5 L 142.5 162.5 " stroke="black" fill="none" stroke-width="6.0" stroke-linecap="round" stroke-linejoin="round" />
<path d="M 154.0 125.0 L 154.0 125.0 L 155.0 125.0 L 155.5 124.5 L 155.5 124.5 L 156.0 124.5 L 156.0 125.0 L 156.0 128.5 L 156.0 138.0 L 155.5 152.5 L 155.5 163.5 L 156.0 168.0 L 156.5 168.0 " stroke="black" fill="none" stroke-width="6.0" stroke-linecap="round" stroke-linejoin="round" />
</svg>