<svg xmlns="http://www.w3.org/2000/svg" width="300" height="300" viewBox="0 0 300 300">
<path d="M 126.5 107.0 L 125.5 107.0 L 124.5 106.5 L 124.5 106.5 L 125.0 106.5 L 127.5 107.5 L 130.0 109.5 L 132.0 111.0 L 133.0 112.5 L 133.5 112.5 " stroke="black" fill="none" stroke-width="6.0" stroke-linecap="round" stroke-linejoin="round" />
<path d="M 119.5 119.5 L 119.0 119.5 L 118.5 119.5 L 118.5 119.5 L 121.0 119.5 L 126.5 119.0 L 134.0 119.0 L 141.5 119.0 L 146.5 119.5 L 147.0 120.0 " stroke="black" fill="none" stroke-width="6.0" stroke-linecap="round" stroke-linejoin="round" />
<path d="M 126.0 126.5 L 126.0 126.0 L 125.5 125.0 L 125.5 125.0 L 126.0 125.5 L 128.0 127.5 L 130.5 131.0 L 133.5 133.5 L 135.5 135.0 " stroke="black" fill="none" stroke-width="6.0" stroke-linecap="round" stroke-linejoin="round" />
<path d="M 139.5 122.0 L 139.5 121.5 L 140.0 121.0 L 140.0 121.0 L 140.0 121.0 L 138.0 122.5 L 135.0 126.0 L 130.5 130.5 L 125.5 134.5 L 123.5 136.5 L 123.0 136.5 " stroke="black" fill="none" stroke-width="6.0" stroke-linecap="round" stroke-linejoin="round" />
<path d="M 143.5 139.5 L 144.0 139.5 L 144.5 140.0 L 145.5 140.5 L 145.5 140.5 L 144.0 140.5 L 141.5 140.5 L 137.0 140.5 L 132.0 140.5 L 126.0 140.5 L 121.5 140.5 L 118.0 140.5 L 116.5 141.0 L 116.5 141.0 L 117.0 141.0 L 117.5 141.0 L 117.5 141.0 L 118.0 141.0 L 118.0 141.0 L 118.0 141.0 L 118.0 141.0 L 118.5 141.0 L 118.5 141.5 L 119.0 142.0 L 119.5 143.0 L 120.0 146.5 L 120.5 152.5 L 120.5 161.0 L 120.0 170.5 L 118.5 178.0 L 116.5 184.0 L 114.0 188.0 L 112.5 189.5 L 111.5 190.0 L 111.5 189.0 L 111.0 187.5 " stroke="black" fill="none" stroke-width="6.0" stroke-linecap="round" stroke-linejoin="round" />
<path d="M 139.0 149.0 L 139.5 149.0 L 140.0 149.0 L 140.0 149.0 L 139.5 149.0 L 137.0 151.0 L 134.0 153.5 L 131.5 156.5 L 130.5 159.0 L 130.0 159.5 " stroke="black" fill="none" stroke-width="6.0" stroke-linecap="round" stroke-linejoin="round" />
<path d="M 142.5 159.5 L 142.5 160.0 L 142.5 160.5 L 141.5 161.0 L 140.5 162.0 L 138.5 164.5 L 135.5 168.0 L 132.0 170.5 L 129.5 172.0 L 129.0 172.0 " stroke="black" fill="none" stroke-width="6.0" stroke-linecap="round" stroke-linejoin="round" />
<path d="M 142.5 174.0 L 142.5 174.5 L 142.5 175.5 L 142.5 176.5 L 141.5 178.5 L 139.5 180.5 L 136.0 183.5 L 131.0 185.5 L 128.0 186.5 L 127.5 186.5 " stroke="black" fill="none" stroke-width="6.0" stroke-linecap="round" stroke-linejoin="round" />
<path d="M 155.5 115.5 L 155.5 115.5 L 155.5 115.5 L 155.0 115.0 L 155.0 115.0 L 157.0 115.0 L 162.0 115.0 L 168.5 115.5 L 173.5 115.5 L 175.5 114.5 L 175.5 114.0 " stroke="black" fill="none" stroke-width="6.0" stroke-linecap="round" stroke-linejoin="round" />
<path d="M 169.0 117.0 L 169.0 117.0 L 168.5 116.5 L 168.5 116.5 L 168.5 116.5 L 167.5 117.5 L 166.5 122.5 L 164.0 129.0 L 163.0 134.5 L 163.0 136.0 " stroke="black" fill="none" stroke-width="6.0" stroke-linecap="round" stroke-linejoin="round" />
<path d="M 156.0 136.0 L 156.5 136.0 L 157.0 135.5 L 157.5 135.0 L 157.5 135.0 L 157.5 138.5 L 157.5 146.5 L 157.5 158.5 L 157.5 167.0 L 157.5 169.5 L 157.5 168.5 " stroke="black" fill="none" stroke-width="6.0" stroke-linecap="round" stroke-linejoin="round" />
<path d="M 158.5 133.5 L 157.5 134.5 L 157.0 135.0 L 157.0 135.0 L 159.0 135.0 L 163.0 134.5 L 168.0 133.0 L 173.0 132.0 L 177.5 131.5 L 180.5 132.0 L 181.0 134.5 L 180.5 139.5 L 179.5 147.5 L 178.5 155.5 L 178.0 162.0 L 178.0 166.0 L 177.5 167.0 L 176.5 166.5 " stroke="black" fill="none" stroke-width="6.0" stroke-linecap="round" stroke-linejoin="round" />
<path d="M 162.5 144.5 L 161.0 144.5 L 159.5 145.0 L 160.0 145.0 L 163.5 145.0 L 168.5 144.5 L 173.0 144.0 L 176.0 143.5 L 177.5 143.5 " stroke="black" fill="none" stroke-width="6.0" stroke-linecap="round" stroke-linejoin="round" />
<path d="M 165.0 156.0 L 162.5 157.5 L 161.0 158.0 L 161.5 158.0 L 164.0 158.0 L 168.0 157.0 L 172.0 157.0 L 175.0 156.5 L 177.0 156.5 " stroke="black" fill="none" stroke-width="6.0" stroke-linecap="round" stroke-linejoin="round" />
<path d="M 157.5 172.5 L 158.0 172.0 L 159.0 171.5 L 161.0 171.5 L 164.0 171.0 L 168.0 170.0 L 172.5 169.5 L 175.5 169.0 " stroke="black" fill="none" stroke-width="6.0" stroke-linecap="round" stroke-linejoin="round" />
<path d="M 164.5 179.0 L 164.5 179.0 L 164.0 179.5 L 163.5 180.0 L 162.5 181.5 L 160.0 186.0 L 157.5 191.0 L 156.0 194.0 L 155.5 194.0 L 155.5 193.5 " stroke="black" fill="none" stroke-width="6.0" stroke-linecap="round" stroke-linejoin="round" />
<path d="M 172.0 181.0 L 172.5 181.0 L 173.0 181.0 L 174.0 181.5 L 175.0 183.0 L 178.5 185.0 L 184.0 187.5 L 189.0 189.5 L 193.0 190.5 L 193.5 190.5 " stroke="black" fill="none" stroke-width="6.0" stroke-linecap="round" stroke-linejoin="round" />
</svg>