<svg xmlns="http://www.w3.org/2000/svg" width="300" height="300" viewBox="0 0 300 300">
<path d="M 135.5 116.0 L 135.5 116.0 L 136.0 115.0 L 136.5 114.5 L 136.5 114.0 L 137.0 113.5 L 137.0 113.5 L 137.0 113.5 L 137.0 113.5 L 137.0 114.0 L 137.0 116.0 L 136.0 119.5 L 134.5 124.0 L 133.0 130.0 L 130.5 137.0 L 128.0 144.0 L 126.0 149.0 L 125.0 152.5 L 123.5 155.5 L 123.0 157.0 L 123.0 157.5 L 123.0 157.5 L 123.0 157.0 L 123.0 157.0 L 123.0 157.0 L 123.0 157.0 L 123.0 157.0 L 123.0 157.0 L 123.5 157.0 L 124.0 157.5 L 125.5 159.5 L 127.5 163.0 L 130.0 169.0 L 133.0 175.5 L 135.0 182.0 L 136.5 188.0 L 138.0 191.5 L 138.5 192.5 L 138.5 192.5 L 138.5 191.5 L 138.0 188.5 " stroke="black" fill="none" stroke-width="6.0" stroke-linecap="round" stroke-linejoin="round" />
<path d="M 149.5 119.5 L 149.5 119.5 L 149.5 119.5 L 149.5 119.5 L 149.5 119.5 L 149.5 119.5 L 148.5 123.0 L 146.0 130.0 L 143.0 139.0 L 141.0 146.0 L 139.0 151.0 L 136.5 154.5 L 135.5 156.5 L 135.0 157.0 L 135.0 157.0 L 135.0 157.0 L 135.0 157.5 L 135.5 157.5 L 136.5 158.0 L 137.5 159.0 L 139.5 160.0 L 143.5 166.0 L 145.5 171.5 L 147.5 177.0 L 149.5 181.5 L 151.0 183.5 L 151.5 184.5 L 152.0 184.5 L 152.0 184.5 " stroke="black" fill="none" stroke-width="6.0" stroke-linecap="round" stroke-linejoin="round" />
</svg>