<svg xmlns="http://www.w3.org/2000/svg" width="300" height="300" viewBox="0 0 300 300">
<path d="M 119.5 127.0 L 119.5 127.0 L 119.5 127.0 L 119.5 126.5 L 120.5 126.0 L 123.5 124.5 L 129.0 122.0 L 136.0 118.5 L 142.0 116.0 L 145.0 114.0 L 146.0 113.5 L 146.0 113.0 L 145.5 113.0 L 145.5 112.5 " stroke="black" fill="none" stroke-width="6.0" stroke-linecap="round" stroke-linejoin="round" />
<path d="M 124.0 136.0 L 123.0 136.5 L 123.0 136.5 L 125.5 136.5 L 130.0 135.5 L 136.0 135.0 L 142.0 134.0 L 146.0 133.0 L 147.0 132.0 " stroke="black" fill="none" stroke-width="6.0" stroke-linecap="round" stroke-linejoin="round" />
<path d="M 136.5 122.0 L 137.0 121.5 L 137.0 121.0 L 137.0 121.0 L 137.0 122.0 L 136.5 126.5 L 136.0 135.5 L 136.0 148.5 L 136.0 160.5 L 136.0 169.5 L 136.5 175.0 L 137.0 177.5 L 137.0 177.5 L 135.5 176.0 " stroke="black" fill="none" stroke-width="6.0" stroke-linecap="round" stroke-linejoin="round" />
<path d="M 133.5 139.5 L 134.5 139.5 L 135.0 139.5 L 135.0 139.5 L 135.0 140.0 L 133.5 143.5 L 130.0 150.5 L 125.0 158.0 L 121.5 162.0 L 120.0 163.0 L 119.5 162.0 L 120.0 161.5 " stroke="black" fill="none" stroke-width="6.0" stroke-linecap="round" stroke-linejoin="round" />
<path d="M 136.5 144.0 L 137.0 144.0 L 137.5 144.0 L 139.0 144.5 L 142.5 146.0 L 146.0 148.0 L 148.5 149.0 L 149.5 149.0 " stroke="black" fill="none" stroke-width="6.0" stroke-linecap="round" stroke-linejoin="round" />
<path d="M 160.0 117.5 L 161.0 116.5 L 161.0 116.0 L 161.5 115.5 L 162.0 115.0 L 162.0 115.0 L 161.0 116.5 L 159.0 120.0 L 157.0 124.0 L 155.0 127.5 L 154.0 129.0 " stroke="black" fill="none" stroke-width="6.0" stroke-linecap="round" stroke-linejoin="round" />
<path d="M 163.0 119.5 L 163.0 119.5 L 163.0 119.5 L 163.5 119.0 L 165.5 118.5 L 167.5 118.5 L 169.5 119.0 L 170.5 120.5 L 170.5 123.5 L 170.0 127.5 L 167.0 133.0 L 163.0 138.0 L 159.0 142.0 L 157.0 144.0 L 155.0 144.0 L 155.0 144.0 " stroke="black" fill="none" stroke-width="6.0" stroke-linecap="round" stroke-linejoin="round" />
<path d="M 160.0 129.5 L 160.0 129.5 L 160.0 129.5 L 160.0 130.0 L 160.5 130.5 L 162.0 131.0 L 164.5 131.5 L 166.0 131.5 " stroke="black" fill="none" stroke-width="6.0" stroke-linecap="round" stroke-linejoin="round" />
<path d="M 172.0 136.5 L 172.0 136.0 L 172.5 135.5 L 173.0 135.0 L 172.5 135.0 L 170.5 138.5 L 166.5 144.5 L 161.0 152.0 L 156.5 156.5 L 155.0 158.0 L 155.0 157.0 L 155.5 156.0 " stroke="black" fill="none" stroke-width="6.0" stroke-linecap="round" stroke-linejoin="round" />
<path d="M 172.5 143.0 L 173.0 143.0 L 173.0 143.0 L 173.5 143.5 L 174.5 143.5 L 176.0 144.0 L 177.5 145.0 L 178.5 146.5 L 179.0 150.0 L 178.5 155.5 L 176.0 161.5 L 172.0 167.5 L 166.5 172.0 L 162.5 174.5 L 160.5 175.5 L 159.0 175.5 L 158.5 175.5 L 158.5 174.5 " stroke="black" fill="none" stroke-width="6.0" stroke-linecap="round" stroke-linejoin="round" />
<path d="M 167.5 155.0 L 166.5 156.0 L 166.5 156.5 L 168.0 157.5 L 171.0 159.5 L 174.0 161.0 L 175.5 161.5 " stroke="black" fill="none" stroke-width="6.0" stroke-linecap="round" stroke-linejoin="round" />
</svg>