<svg xmlns="http://www.w3.org/2000/svg" width="300" height="300" viewBox="0 0 300 300">
<path d="M 128.0 110.5 L 127.5 110.5 L 126.5 111.0 L 126.5 111.5 L 126.5 111.5 L 127.0 111.5 L 129.5 111.5 L 133.0 111.0 L 137.5 111.0 L 142.0 110.5 L 144.5 110.0 L 145.5 110.0 L 146.0 109.5 L 145.5 109.5 L 145.0 109.5 L 145.0 109.5 L 144.5 110.0 L 144.0 111.0 L 144.0 112.5 L 143.5 115.0 L 143.0 118.5 L 142.5 123.0 L 142.0 128.0 L 142.0 132.5 L 141.5 136.5 L 141.0 139.5 L 140.0 141.5 L 138.5 143.0 L 137.0 143.0 L 136.0 143.0 L 134.5 142.0 L 133.5 140.0 L 133.0 139.0 " stroke="black" fill="none" stroke-width="6.0" stroke-linecap="round" stroke-linejoin="round" />
<path d="M 129.5 119.5 L 129.5 119.5 L 129.0 119.5 L 128.5 119.5 L 128.5 119.5 L 128.5 120.0 L 129.5 120.5 L 131.0 121.5 L 132.5 122.5 L 133.0 122.5 " stroke="black" fill="none" stroke-width="6.0" stroke-linecap="round" stroke-linejoin="round" />
<path d="M 124.5 135.5 L 124.5 136.0 L 123.0 137.0 L 123.0 137.0 L 123.0 137.0 L 124.5 136.0 L 127.0 134.0 L 129.5 132.5 L 132.5 130.5 " stroke="black" fill="none" stroke-width="6.0" stroke-linecap="round" stroke-linejoin="round" />
<path d="M 161.0 107.5 L 160.5 107.5 L 159.5 107.5 L 159.0 107.5 L 159.0 107.5 L 161.5 107.5 L 166.0 107.0 L 170.0 106.0 L 173.0 106.0 L 174.5 106.0 L 175.5 106.0 L 175.5 106.5 L 176.0 108.0 L 176.0 110.0 L 176.0 113.0 L 175.5 117.5 L 174.5 123.5 L 173.5 129.5 L 173.0 134.5 L 172.0 139.0 L 171.0 142.0 L 169.5 143.0 L 168.0 143.0 L 166.5 142.0 L 164.5 140.0 L 163.0 137.5 " stroke="black" fill="none" stroke-width="6.0" stroke-linecap="round" stroke-linejoin="round" />
<path d="M 160.5 118.0 L 160.5 118.0 L 159.5 118.0 L 159.0 118.0 L 159.0 117.5 L 160.0 117.5 L 162.0 118.0 L 164.0 119.0 L 166.0 120.0 " stroke="black" fill="none" stroke-width="6.0" stroke-linecap="round" stroke-linejoin="round" />
<path d="M 157.5 130.5 L 157.5 131.0 L 157.0 132.5 L 156.5 133.0 L 157.0 133.0 L 159.5 131.0 L 162.0 129.5 L 164.5 128.0 L 166.5 127.0 " stroke="black" fill="none" stroke-width="6.0" stroke-linecap="round" stroke-linejoin="round" />
<path d="M 147.5 145.0 L 147.0 145.0 L 146.5 144.5 L 146.0 144.0 L 146.0 144.0 L 146.5 145.5 L 148.0 147.5 L 149.0 149.0 L 150.0 150.0 " stroke="black" fill="none" stroke-width="6.0" stroke-linecap="round" stroke-linejoin="round" />
<path d="M 127.5 157.0 L 127.5 157.0 L 127.5 158.0 L 127.5 158.0 L 128.0 158.0 L 131.0 157.5 L 137.5 156.5 L 147.5 155.5 L 160.0 153.5 L 170.0 152.0 L 174.0 152.0 L 173.0 153.0 L 171.0 153.5 " stroke="black" fill="none" stroke-width="6.0" stroke-linecap="round" stroke-linejoin="round" />
<path d="M 131.0 167.0 L 132.0 166.5 L 133.5 165.0 L 134.5 164.5 L 135.5 163.5 L 136.0 163.5 L 136.0 164.0 L 135.0 166.0 L 133.0 169.5 L 131.0 172.5 L 129.5 175.0 L 128.5 177.0 L 127.5 177.5 L 127.5 177.5 L 128.0 176.5 L 129.5 175.5 L 131.5 175.0 L 134.0 174.5 L 137.0 174.0 L 139.5 174.0 L 141.5 174.0 L 143.0 174.5 L 144.0 174.5 " stroke="black" fill="none" stroke-width="6.0" stroke-linecap="round" stroke-linejoin="round" />
<path d="M 163.5 162.0 L 163.5 161.5 L 163.5 161.0 L 163.5 160.5 L 164.0 160.0 L 164.0 160.0 L 163.0 161.5 L 161.0 165.0 L 158.5 169.5 L 156.0 173.5 L 155.0 176.0 L 155.0 176.0 L 155.5 174.5 L 157.0 172.5 L 159.0 171.5 L 161.0 171.5 L 163.5 171.5 L 166.0 171.5 L 168.5 171.5 L 169.5 172.0 L 170.0 172.5 " stroke="black" fill="none" stroke-width="6.0" stroke-linecap="round" stroke-linejoin="round" />
<path d="M 130.0 188.0 L 129.5 188.0 L 128.5 188.0 L 128.5 188.0 L 128.0 188.0 L 128.5 187.5 L 130.5 187.5 L 135.5 187.0 L 144.0 186.0 L 155.0 184.0 L 164.5 182.0 L 168.5 181.5 L 168.5 183.0 L 168.0 184.0 " stroke="black" fill="none" stroke-width="6.0" stroke-linecap="round" stroke-linejoin="round" />
<path d="M 150.5 179.0 L 150.5 179.0 L 150.5 179.0 L 150.5 179.0 L 150.5 180.0 L 150.5 182.5 L 151.0 189.5 L 151.5 199.0 L 152.5 207.0 L 153.5 212.0 L 154.0 213.0 L 154.0 213.0 L 154.0 213.0 " stroke="black" fill="none" stroke-width="6.0" stroke-linecap="round" stroke-linejoin="round" />
</svg>