<svg xmlns="http://www.w3.org/2000/svg" width="300" height="300" viewBox="0 0 300 300">
<path d="M 130.0 110.5 L 129.5 110.5 L 128.0 110.5 L 127.5 110.5 L 127.5 110.5 L 129.5 110.5 L 132.5 110.5 L 136.5 110.0 L 140.0 109.5 L 142.5 108.5 L 144.0 108.0 L 144.0 107.5 L 144.0 107.5 L 143.5 107.5 L 142.0 108.5 L 141.0 109.5 L 140.5 111.5 L 139.5 114.0 L 139.5 117.5 L 139.0 121.0 L 139.5 125.5 L 140.0 130.0 L 141.0 135.0 L 141.5 139.0 L 141.5 142.5 L 141.5 143.5 L 140.0 144.0 L 138.0 143.5 L 136.0 141.5 L 134.5 140.0 L 133.0 138.5 " stroke="black" fill="none" stroke-width="6.0" stroke-linecap="round" stroke-linejoin="round" />
<path d="M 128.5 121.0 L 128.0 121.0 L 127.5 121.0 L 127.5 121.0 L 127.5 121.0 L 129.5 121.5 L 131.5 122.5 L 132.5 123.5 " stroke="black" fill="none" stroke-width="6.0" stroke-linecap="round" stroke-linejoin="round" />
<path d="M 125.0 135.5 L 125.0 135.5 L 124.0 136.5 L 124.0 136.5 L 125.0 135.5 L 127.5 133.5 L 130.0 132.0 L 133.0 130.5 L 133.5 130.0 " stroke="black" fill="none" stroke-width="6.0" stroke-linecap="round" stroke-linejoin="round" />
<path d="M 156.0 112.0 L 156.0 112.5 L 156.0 113.0 L 156.0 113.0 L 156.0 112.5 L 158.0 111.0 L 161.0 109.5 L 164.0 108.5 L 166.5 108.0 L 167.5 107.5 L 168.0 108.0 L 168.0 109.5 L 167.5 113.0 L 167.0 118.5 L 166.5 125.0 L 166.5 132.0 L 166.5 138.0 L 166.5 143.5 L 166.5 148.0 L 166.5 149.5 L 166.0 150.0 L 164.5 149.0 L 162.5 147.0 L 161.0 145.5 L 160.0 144.0 L 159.5 143.0 " stroke="black" fill="none" stroke-width="6.0" stroke-linecap="round" stroke-linejoin="round" />
<path d="M 152.5 123.0 L 153.0 122.5 L 153.0 122.0 L 153.5 122.0 L 154.0 122.0 L 155.0 123.5 L 156.5 125.0 L 158.0 126.5 L 158.0 127.0 " stroke="black" fill="none" stroke-width="6.0" stroke-linecap="round" stroke-linejoin="round" />
<path d="M 151.5 138.5 L 151.5 140.0 L 151.5 140.5 L 152.5 139.0 L 154.5 136.5 L 157.0 134.5 L 158.0 134.0 " stroke="black" fill="none" stroke-width="6.0" stroke-linecap="round" stroke-linejoin="round" />
<path d="M 144.0 150.5 L 142.5 150.5 L 142.0 151.0 L 142.5 151.0 L 144.5 152.5 L 146.5 154.0 L 148.0 155.0 " stroke="black" fill="none" stroke-width="6.0" stroke-linecap="round" stroke-linejoin="round" />
<path d="M 126.5 161.5 L 126.5 162.0 L 125.5 162.0 L 125.5 162.0 L 126.5 162.0 L 129.0 161.5 L 133.5 160.5 L 138.0 160.0 L 143.5 159.0 L 149.0 158.5 L 154.5 157.5 L 158.0 157.0 L 160.5 157.0 L 162.0 157.0 L 163.0 157.0 L 163.5 157.5 L 164.0 157.5 L 164.0 157.5 L 164.0 157.5 L 163.5 157.5 " stroke="black" fill="none" stroke-width="6.0" stroke-linecap="round" stroke-linejoin="round" />
<path d="M 133.5 170.0 L 134.5 169.5 L 135.5 168.5 L 136.0 168.0 L 136.0 168.0 L 135.5 168.5 L 134.0 171.5 L 131.5 175.5 L 129.5 178.5 L 127.5 181.0 L 126.0 181.5 L 126.0 181.5 L 127.5 180.0 L 128.5 178.5 L 130.0 178.0 L 131.0 177.0 L 133.0 177.0 L 135.0 177.0 L 137.0 177.0 L 139.5 177.0 L 141.5 178.0 L 143.5 179.0 " stroke="black" fill="none" stroke-width="6.0" stroke-linecap="round" stroke-linejoin="round" />
<path d="M 156.5 167.5 L 156.5 167.5 L 157.5 167.0 L 158.5 166.5 L 158.5 166.5 L 158.5 166.5 L 158.5 166.5 L 158.0 168.5 L 157.0 171.5 L 156.0 174.5 L 155.5 176.5 L 155.0 177.5 " stroke="black" fill="none" stroke-width="6.0" stroke-linecap="round" stroke-linejoin="round" />
<path d="M 154.0 176.0 L 154.0 176.0 L 154.0 176.5 L 154.5 176.5 L 155.5 176.5 L 157.5 176.5 L 160.0 176.5 L 163.5 176.5 L 165.0 176.5 " stroke="black" fill="none" stroke-width="6.0" stroke-linecap="round" stroke-linejoin="round" />
<path d="M 130.0 192.5 L 130.5 192.5 L 131.0 192.0 L 131.0 192.0 L 132.0 192.0 L 134.0 191.5 L 138.0 191.5 L 144.5 191.0 L 151.5 190.0 L 158.5 188.0 L 162.5 186.5 L 164.0 186.5 L 164.5 187.5 L 163.5 188.0 " stroke="black" fill="none" stroke-width="6.0" stroke-linecap="round" stroke-linejoin="round" />
<path d="M 149.5 182.0 L 149.0 182.0 L 149.0 182.0 L 148.5 182.0 L 148.0 182.5 L 148.0 184.0 L 148.0 189.0 L 148.0 197.0 L 148.5 203.5 L 149.0 208.0 L 149.0 210.5 L 149.5 212.0 L 150.0 213.0 L 150.0 213.0 " stroke="black" fill="none" stroke-width="6.0" stroke-linecap="round" stroke-linejoin="round" />
</svg>