<svg xmlns="http://www.w3.org/2000/svg" width="300" height="300" viewBox="0 0 300 300">
<path d="M 134.0 112.0 L 134.5 112.0 L 135.5 112.0 L 136.0 112.0 L 136.0 112.0 L 136.0 112.0 L 136.0 113.0 L 134.5 116.0 L 131.5 121.5 L 128.0 126.5 L 126.5 129.5 L 126.0 130.0 " stroke="black" fill="none" stroke-width="6.0" stroke-linecap="round" stroke-linejoin="round" />
<path d="M 133.0 120.0 L 133.0 120.0 L 133.5 120.0 L 134.0 120.0 L 135.0 120.0 L 137.5 120.0 L 143.0 119.0 L 149.0 118.0 L 154.5 117.5 L 156.5 117.5 L 157.0 117.5 L 156.5 117.5 L 156.5 118.0 L 156.5 119.0 L 156.5 121.0 L 156.5 124.0 L 156.5 127.0 L 156.0 129.5 L 155.0 131.0 L 154.5 131.5 " stroke="black" fill="none" stroke-width="6.0" stroke-linecap="round" stroke-linejoin="round" />
<path d="M 130.0 141.0 L 130.0 141.0 L 130.0 141.0 L 130.0 140.5 L 130.0 140.5 L 132.5 139.5 L 140.0 138.0 L 151.5 136.0 L 161.0 136.0 L 167.5 136.5 L 170.5 137.0 L 171.0 137.5 L 171.0 138.5 L 171.0 139.0 L 170.5 141.0 L 170.0 143.5 L 169.0 146.5 L 168.5 149.5 L 168.0 152.0 L 168.0 153.0 L 167.5 153.0 L 167.5 153.0 " stroke="black" fill="none" stroke-width="6.0" stroke-linecap="round" stroke-linejoin="round" />
<path d="M 148.0 140.5 L 148.0 140.5 L 148.0 140.0 L 148.0 139.5 L 148.0 139.5 L 149.0 141.5 L 149.5 145.0 L 150.0 150.0 L 150.0 155.5 L 150.0 156.5 " stroke="black" fill="none" stroke-width="6.0" stroke-linecap="round" stroke-linejoin="round" />
<path d="M 142.5 159.0 L 141.5 159.5 L 141.5 159.5 L 142.5 159.5 L 155.0 158.0 L 162.5 156.5 L 166.5 155.0 L 166.5 155.0 " stroke="black" fill="none" stroke-width="6.0" stroke-linecap="round" stroke-linejoin="round" />
<path d="M 130.5 143.0 L 131.5 143.0 L 132.5 142.5 L 133.0 142.5 L 133.0 143.0 L 132.0 146.5 L 130.5 153.5 L 129.5 163.0 L 129.5 172.5 L 131.0 179.0 L 134.5 183.0 L 139.5 185.5 L 146.5 186.5 L 154.5 186.5 L 164.0 184.5 L 171.0 182.0 L 173.0 181.0 L 173.0 180.5 L 173.0 180.0 L 173.0 178.5 L 173.0 177.0 L 173.5 176.0 L 174.0 175.5 L 174.5 175.0 L 174.5 175.0 L 174.5 174.5 " stroke="black" fill="none" stroke-width="6.0" stroke-linecap="round" stroke-linejoin="round" />
</svg>