<svg xmlns="http://www.w3.org/2000/svg" width="300" height="300" viewBox="0 0 300 300">
<path d="M 129.0 123.5 L 128.5 123.5 L 128.0 123.5 L 127.5 123.5 L 128.5 123.5 L 132.5 123.5 L 140.0 123.5 L 149.0 122.5 L 156.0 122.0 L 161.0 122.0 L 164.5 121.5 L 166.0 121.5 L 166.5 121.0 L 167.5 121.0 L 168.0 121.0 L 169.0 121.0 L 170.0 121.0 L 170.5 121.0 L 170.5 121.0 L 171.0 121.0 L 171.0 121.0 L 171.0 121.0 " stroke="black" fill="none" stroke-width="6.0" stroke-linecap="round" stroke-linejoin="round" />
<path d="M 154.5 103.5 L 154.5 103.0 L 155.5 102.5 L 155.5 102.5 L 155.5 102.5 L 155.5 105.0 L 156.0 110.0 L 156.5 119.5 L 157.0 133.5 L 158.0 149.5 L 161.5 163.0 L 166.0 175.0 L 170.0 182.5 L 172.5 185.0 L 175.0 185.5 L 177.5 183.0 L 179.5 179.5 L 181.0 176.0 L 182.0 173.0 L 182.0 171.5 L 182.0 171.0 " stroke="black" fill="none" stroke-width="6.0" stroke-linecap="round" stroke-linejoin="round" />
<path d="M 171.5 143.0 L 171.5 141.5 L 171.5 141.0 L 171.5 141.0 L 171.0 141.5 L 169.5 145.0 L 165.5 152.0 L 159.0 163.0 L 152.0 172.0 L 149.5 174.0 L 149.0 174.0 " stroke="black" fill="none" stroke-width="6.0" stroke-linecap="round" stroke-linejoin="round" />
<path d="M 130.5 137.5 L 130.5 137.0 L 130.5 136.0 L 130.5 135.5 L 130.5 135.0 L 130.5 135.5 L 130.5 138.0 L 131.0 143.5 L 131.0 149.5 L 131.0 153.5 L 131.5 154.0 L 131.5 150.5 L 131.5 146.0 L 131.5 142.0 L 131.5 139.0 L 132.5 137.5 L 134.0 137.0 L 135.5 137.0 L 138.5 137.0 L 141.5 137.0 L 144.5 137.0 L 146.5 137.0 L 147.5 137.5 L 147.5 138.0 L 146.5 140.0 L 145.5 144.0 L 144.0 149.5 L 143.0 153.0 L 143.0 154.5 L 143.0 154.5 " stroke="black" fill="none" stroke-width="6.0" stroke-linecap="round" stroke-linejoin="round" />
<path d="M 133.0 155.5 L 133.0 155.5 L 133.0 156.5 L 133.0 157.0 L 134.0 157.0 L 137.0 156.5 L 141.0 156.0 L 145.0 155.5 " stroke="black" fill="none" stroke-width="6.0" stroke-linecap="round" stroke-linejoin="round" />
<path d="M 130.0 169.0 L 129.5 169.0 L 129.0 169.0 L 129.5 169.0 L 133.0 169.0 L 138.0 168.5 L 143.0 166.5 L 144.0 165.5 " stroke="black" fill="none" stroke-width="6.0" stroke-linecap="round" stroke-linejoin="round" />
<path d="M 168.5 105.5 L 168.0 105.5 L 167.5 105.0 L 167.5 105.0 L 169.0 106.5 L 171.0 109.0 L 173.0 111.0 L 174.0 112.0 " stroke="black" fill="none" stroke-width="6.0" stroke-linecap="round" stroke-linejoin="round" />
</svg>