<svg xmlns="http://www.w3.org/2000/svg" width="300" height="300" viewBox="0 0 300 300">
<path d="M 147.5 93.5 L 147.5 93.0 L 147.5 92.5 L 147.5 92.0 L 147.5 92.0 L 147.5 92.0 L 148.0 94.0 L 148.0 98.5 L 148.0 104.5 L 148.0 110.0 L 148.0 112.0 L 147.5 112.5 L 148.0 111.0 " stroke="black" fill="none" stroke-width="8.0" stroke-linecap="round" stroke-linejoin="round" />
<path d="M 149.0 103.5 L 149.0 103.5 L 147.5 103.5 L 147.0 103.5 L 147.0 103.5 L 148.5 103.5 L 152.0 103.5 L 156.5 103.0 L 161.0 102.5 L 165.0 102.0 L 166.5 102.0 " stroke="black" fill="none" stroke-width="8.0" stroke-linecap="round" stroke-linejoin="round" />
<path d="M 131.0 119.5 L 131.0 119.5 L 131.0 119.5 L 131.0 119.0 L 131.0 119.0 L 131.0 119.0 L 130.5 118.5 L 130.5 118.5 L 130.5 118.5 L 131.0 118.5 L 132.5 118.5 L 136.0 118.5 L 142.0 118.0 L 148.5 118.0 L 154.5 117.5 L 160.0 117.5 L 165.0 117.5 L 170.0 117.5 L 173.5 117.5 L 176.5 117.5 L 178.5 117.5 L 180.0 117.5 L 181.0 117.0 L 181.5 116.5 L 181.5 116.5 L 181.5 116.5 L 181.0 116.5 L 181.0 116.5 L 181.0 116.5 L 181.0 116.5 L 180.5 116.5 L 180.5 117.0 L 180.0 118.0 L 180.0 119.0 L 179.0 120.5 L 178.0 123.0 L 176.5 125.5 L 176.0 127.5 L 175.5 128.0 L 175.5 128.0 L 175.5 127.5 " stroke="black" fill="none" stroke-width="7.0" stroke-linecap="round" stroke-linejoin="round" />
<path d="M 129.0 119.0 L 129.0 119.0 L 129.0 118.5 L 129.0 118.0 L 129.0 118.0 L 129.0 118.0 L 129.0 119.5 L 129.5 122.0 L 129.5 126.5 L 129.5 133.0 L 129.5 142.0 L 128.5 151.5 L 127.5 160.5 L 127.0 169.0 L 126.0 176.0 L 124.5 181.5 L 122.5 186.0 L 120.5 189.5 L 119.5 191.0 L 119.5 191.0 L 119.5 191.0 L 119.5 191.0 L 119.5 191.0 " stroke="black" fill="none" stroke-width="7.0" stroke-linecap="round" stroke-linejoin="round" />
<path d="M 139.5 139.0 L 140.0 139.0 L 140.5 139.0 L 141.0 138.5 L 142.5 138.5 L 145.5 137.5 L 150.5 137.0 L 156.0 136.0 L 161.5 134.5 L 164.5 133.5 L 164.5 133.0 L 163.5 133.0 L 162.0 133.5 L 161.5 134.0 " stroke="black" fill="none" stroke-width="7.0" stroke-linecap="round" stroke-linejoin="round" />
<path d="M 149.0 127.5 L 149.0 127.5 L 149.0 127.5 L 149.0 127.0 L 149.0 127.0 L 149.0 127.0 L 149.0 128.0 L 149.0 130.5 L 149.0 135.5 L 149.5 140.5 L 151.0 145.0 L 154.0 147.0 L 157.5 147.5 L 162.0 147.5 L 167.5 147.5 L 172.5 146.5 L 177.0 146.0 L 179.0 146.0 L 179.0 146.0 L 178.0 145.5 L 176.5 145.0 L 176.0 144.0 L 175.5 143.5 L 175.0 143.0 L 175.0 143.0 L 175.0 142.5 L 175.0 142.5 " stroke="black" fill="none" stroke-width="7.0" stroke-linecap="round" stroke-linejoin="round" />
<path d="M 140.0 157.0 L 140.0 157.0 L 140.0 157.0 L 140.0 157.0 L 140.0 156.5 L 140.0 156.5 L 140.0 156.5 L 140.0 157.0 L 139.5 159.0 L 138.5 162.5 L 137.0 166.5 L 136.5 169.0 L 136.0 170.0 L 137.0 169.0 " stroke="black" fill="none" stroke-width="7.0" stroke-linecap="round" stroke-linejoin="round" />
<path d="M 141.5 164.5 L 140.5 164.0 L 140.0 164.0 L 140.0 164.0 L 140.5 164.0 L 142.5 164.0 L 145.5 163.0 L 149.0 162.0 L 151.0 161.0 L 152.5 161.0 L 152.5 161.0 L 152.5 162.0 L 152.0 163.5 L 151.0 166.5 L 149.5 170.0 L 147.0 174.5 L 144.0 180.0 L 141.0 185.0 L 139.0 188.5 L 137.5 190.5 L 136.5 192.0 L 136.0 193.5 L 135.5 193.5 L 136.5 192.0 L 137.5 190.0 " stroke="black" fill="none" stroke-width="7.0" stroke-linecap="round" stroke-linejoin="round" />
<path d="M 141.0 179.5 L 141.0 179.5 L 140.0 179.5 L 139.5 179.5 L 139.0 179.5 L 139.0 179.5 L 139.5 180.0 L 141.5 181.5 L 144.0 184.0 L 148.0 186.5 L 153.0 189.0 L 160.0 190.5 L 167.0 191.0 L 173.5 191.0 L 179.5 190.5 L 186.0 188.5 L 191.5 186.0 L 194.0 184.5 L 194.5 183.5 L 194.0 183.5 L 193.0 183.0 " stroke="black" fill="none" stroke-width="7.0" stroke-linecap="round" stroke-linejoin="round" />
<path d="M 163.5 161.0 L 164.0 160.5 L 164.0 160.5 L 164.0 160.5 L 164.0 160.5 L 164.0 163.5 L 164.0 169.0 L 163.0 176.0 L 162.0 181.0 L 162.0 182.5 L 162.0 180.0 L 162.0 178.0 " stroke="black" fill="none" stroke-width="7.0" stroke-linecap="round" stroke-linejoin="round" />
<path d="M 165.5 161.5 L 165.0 162.0 L 163.5 162.0 L 163.0 162.5 L 163.0 162.5 L 163.0 162.5 L 164.5 162.5 L 166.5 162.5 L 168.5 161.5 L 170.5 161.0 L 171.5 160.5 L 172.5 160.5 L 173.0 160.5 L 173.5 162.0 L 173.0 164.5 L 172.5 168.0 L 172.0 171.5 L 172.0 175.0 L 172.0 177.5 L 172.5 179.0 L 173.5 179.5 L 175.0 179.5 L 176.5 179.0 L 178.0 177.5 L 179.0 176.0 L 179.0 175.0 " stroke="black" fill="none" stroke-width="7.0" stroke-linecap="round" stroke-linejoin="round" />
</svg>