<svg xmlns="http://www.w3.org/2000/svg" width="300" height="300" viewBox="0 0 300 300">
<path d="M 130.0 113.0 L 130.0 114.0 L 130.5 114.5 L 131.0 114.5 L 132.0 114.5 L 133.5 115.5 L 136.0 117.0 L 138.5 119.0 L 140.5 120.0 L 141.0 120.0 " stroke="black" fill="none" stroke-width="6.0" stroke-linecap="round" stroke-linejoin="round" />
<path d="M 163.5 114.0 L 163.5 114.0 L 164.0 114.0 L 164.0 114.0 L 164.0 114.0 L 164.0 115.0 L 164.0 116.5 L 163.0 119.5 L 162.5 120.0 " stroke="black" fill="none" stroke-width="6.0" stroke-linecap="round" stroke-linejoin="round" />
<path d="M 130.0 126.5 L 130.0 126.5 L 129.5 126.5 L 130.0 126.5 L 134.5 126.0 L 143.5 125.5 L 156.0 124.0 L 167.0 123.5 L 173.0 123.5 L 174.5 124.0 L 172.5 124.0 " stroke="black" fill="none" stroke-width="6.0" stroke-linecap="round" stroke-linejoin="round" />
<path d="M 150.0 128.5 L 150.0 128.5 L 150.0 129.0 L 150.0 129.5 L 150.0 131.0 L 149.0 133.5 L 148.0 136.5 L 148.0 138.0 " stroke="black" fill="none" stroke-width="6.0" stroke-linecap="round" stroke-linejoin="round" />
<path d="M 130.5 144.0 L 130.5 143.5 L 131.0 142.0 L 131.5 142.0 L 132.0 143.0 L 133.5 147.5 L 134.5 155.5 L 134.5 167.0 L 134.5 175.5 L 134.5 178.0 L 134.5 176.5 L 134.5 175.5 " stroke="black" fill="none" stroke-width="6.0" stroke-linecap="round" stroke-linejoin="round" />
<path d="M 135.5 143.5 L 135.0 143.5 L 135.0 143.5 L 134.5 143.5 L 135.0 144.0 L 138.5 144.0 L 145.5 142.5 L 156.0 141.0 L 165.0 141.0 L 169.5 141.5 L 170.0 143.0 L 170.0 144.5 L 169.5 146.5 L 169.5 149.5 L 169.5 154.0 L 169.0 161.0 L 168.5 169.5 L 168.5 176.5 L 169.0 179.5 L 169.0 179.0 L 169.0 177.0 " stroke="black" fill="none" stroke-width="6.0" stroke-linecap="round" stroke-linejoin="round" />
<path d="M 141.0 156.5 L 141.0 156.5 L 140.5 156.0 L 140.5 156.0 L 143.5 156.0 L 148.0 156.0 L 154.0 155.5 L 158.0 155.5 L 159.5 155.0 " stroke="black" fill="none" stroke-width="6.0" stroke-linecap="round" stroke-linejoin="round" />
<path d="M 140.0 170.5 L 140.0 171.5 L 140.0 171.5 L 141.0 171.0 L 145.0 170.5 L 151.5 170.0 L 156.5 169.5 L 160.5 169.5 L 161.0 169.5 " stroke="black" fill="none" stroke-width="6.0" stroke-linecap="round" stroke-linejoin="round" />
<path d="M 135.5 186.5 L 137.0 185.0 L 138.5 184.0 L 141.0 183.5 L 146.0 183.5 L 153.0 183.5 L 159.5 183.5 L 164.5 183.5 L 167.0 183.5 " stroke="black" fill="none" stroke-width="6.0" stroke-linecap="round" stroke-linejoin="round" />
</svg>