<svg xmlns="http://www.w3.org/2000/svg" width="300" height="300" viewBox="0 0 300 300">
<path d="M 131.0 113.0 L 131.0 113.0 L 129.5 113.0 L 129.0 113.0 L 129.0 113.0 L 130.5 112.5 L 135.0 112.0 L 142.0 110.5 L 151.5 108.5 L 160.5 106.5 L 165.5 106.0 L 167.0 106.0 L 167.0 106.0 L 166.5 106.0 L 166.0 106.0 L 166.0 106.0 L 166.0 106.0 L 166.0 106.0 L 166.0 106.0 L 166.0 106.0 L 166.0 106.5 L 166.0 106.5 L 166.0 107.5 L 166.5 109.0 L 167.0 113.0 L 167.0 120.5 L 167.5 129.5 L 169.5 138.0 L 172.0 143.5 L 175.5 146.5 L 179.5 148.0 L 183.5 148.0 L 187.5 146.5 L 190.5 145.5 L 191.5 145.0 L 191.5 145.0 L 191.5 145.0 L 191.5 145.0 " stroke="black" fill="none" stroke-width="6.0" stroke-linecap="round" stroke-linejoin="round" />
<path d="M 186.5 114.0 L 186.5 113.5 L 186.5 113.0 L 186.5 112.5 L 186.5 112.0 L 186.5 112.0 L 186.5 111.5 L 186.0 113.0 L 184.5 115.0 L 182.0 118.0 L 180.0 121.0 L 179.0 123.0 " stroke="black" fill="none" stroke-width="6.0" stroke-linecap="round" stroke-linejoin="round" />
<path d="M 179.0 130.5 L 179.0 131.0 L 179.0 131.5 L 179.5 132.0 L 181.0 132.0 L 183.5 132.0 L 186.0 133.5 L 187.5 134.5 " stroke="black" fill="none" stroke-width="6.0" stroke-linecap="round" stroke-linejoin="round" />
<path d="M 139.5 122.5 L 140.0 122.0 L 140.5 121.5 L 140.5 121.5 L 141.0 121.0 L 141.0 121.0 L 140.0 122.0 L 138.0 124.5 L 135.0 127.5 L 131.5 130.0 L 128.5 132.0 L 127.5 132.5 L 127.0 132.5 L 127.5 132.5 " stroke="black" fill="none" stroke-width="6.0" stroke-linecap="round" stroke-linejoin="round" />
<path d="M 135.5 128.5 L 135.5 128.5 L 135.5 129.0 L 135.5 129.5 L 135.5 129.5 L 136.0 131.0 L 136.5 134.0 L 137.0 141.5 L 137.5 152.5 L 137.5 165.5 L 137.5 174.0 L 138.0 178.0 L 138.0 181.5 L 138.0 184.5 L 138.0 185.0 L 137.5 184.5 " stroke="black" fill="none" stroke-width="6.0" stroke-linecap="round" stroke-linejoin="round" />
<path d="M 150.5 121.5 L 150.5 121.0 L 150.5 120.5 L 150.5 120.5 L 150.5 120.0 L 150.5 121.0 L 150.5 124.5 L 151.0 132.0 L 152.0 144.0 L 152.5 156.5 L 153.0 167.0 L 153.0 173.5 L 153.5 177.5 L 153.5 179.5 L 153.5 179.5 L 153.5 179.5 " stroke="black" fill="none" stroke-width="6.0" stroke-linecap="round" stroke-linejoin="round" />
<path d="M 126.5 144.5 L 126.5 144.5 L 125.5 144.0 L 124.5 144.0 L 124.5 143.5 L 125.0 143.5 L 126.5 142.5 L 129.5 141.5 L 134.0 140.0 L 141.0 137.5 L 149.5 135.0 L 156.0 133.5 L 160.0 133.0 L 161.5 132.5 L 162.0 132.5 L 162.0 132.5 L 161.5 132.5 L 161.5 132.5 L 161.5 132.5 L 161.5 132.5 L 161.5 132.5 L 161.5 132.5 L 161.5 132.5 L 161.5 132.5 L 161.5 132.5 L 161.5 132.5 L 161.5 132.5 L 161.5 132.5 L 161.5 132.5 L 161.5 133.0 L 161.5 133.5 L 162.0 134.5 L 162.0 136.0 L 162.0 138.5 L 162.0 142.5 L 162.5 147.5 L 163.5 153.5 L 164.5 160.0 L 165.5 166.0 L 167.5 170.5 L 169.5 174.5 L 172.0 177.5 L 174.5 180.0 L 176.5 181.5 L 178.0 182.0 L 178.5 182.5 L 179.0 182.5 L 179.5 182.5 L 180.0 183.0 " stroke="black" fill="none" stroke-width="6.0" stroke-linecap="round" stroke-linejoin="round" />
<path d="M 178.5 162.5 L 179.0 162.5 L 179.5 162.0 L 180.0 161.5 L 180.0 161.0 L 180.5 160.5 L 180.5 160.5 L 180.0 160.5 L 179.0 160.5 L 178.0 160.5 L 176.5 161.0 L 175.5 162.0 L 175.0 163.0 L 175.0 164.0 L 175.0 164.0 " stroke="black" fill="none" stroke-width="6.0" stroke-linecap="round" stroke-linejoin="round" />
<path d="M 177.5 170.0 L 177.5 170.0 L 177.5 170.5 L 177.5 170.5 L 178.5 171.0 L 180.0 172.0 L 182.0 173.5 L 182.5 174.0 " stroke="black" fill="none" stroke-width="6.0" stroke-linecap="round" stroke-linejoin="round" />
</svg>