<svg xmlns="http://www.w3.org/2000/svg" width="300" height="300" viewBox="0 0 300 300">
<path d="M 125.5 125.0 L 123.5 125.0 L 123.5 125.0 L 124.0 125.0 L 126.5 125.5 L 129.5 126.5 L 131.5 127.0 L 133.0 128.0 L 134.0 128.5 " stroke="black" fill="none" stroke-width="6.0" stroke-linecap="round" stroke-linejoin="round" />
<path d="M 144.5 115.5 L 144.5 115.0 L 144.0 114.5 L 144.0 114.0 L 144.0 113.5 L 144.0 114.0 L 144.0 117.0 L 144.0 123.5 L 143.0 132.0 L 142.5 139.0 L 142.5 142.0 L 143.0 142.0 " stroke="black" fill="none" stroke-width="6.0" stroke-linecap="round" stroke-linejoin="round" />
<path d="M 126.0 148.0 L 123.5 149.0 L 123.0 149.0 L 124.5 148.5 L 128.5 147.0 L 132.5 145.0 L 136.5 143.5 L 140.5 142.5 L 141.0 142.0 " stroke="black" fill="none" stroke-width="6.0" stroke-linecap="round" stroke-linejoin="round" />
<path d="M 164.0 121.5 L 164.0 121.0 L 164.0 120.5 L 163.5 120.0 L 163.0 121.0 L 162.0 124.0 L 160.5 128.0 L 159.5 131.0 L 159.5 131.5 " stroke="black" fill="none" stroke-width="6.0" stroke-linecap="round" stroke-linejoin="round" />
<path d="M 156.5 114.5 L 157.0 114.5 L 157.0 114.5 L 157.0 114.5 L 157.0 114.5 L 157.0 116.0 L 156.5 119.0 L 156.0 125.5 L 154.5 134.5 L 154.0 142.5 L 154.5 147.0 L 156.0 148.0 L 158.0 148.0 L 161.0 146.0 L 163.5 144.0 L 165.5 142.0 L 166.5 141.0 L 168.0 140.5 L 168.5 140.5 " stroke="black" fill="none" stroke-width="6.0" stroke-linecap="round" stroke-linejoin="round" />
<path d="M 135.0 160.0 L 135.5 159.5 L 136.0 158.5 L 136.0 158.0 L 136.0 157.5 L 136.0 158.5 L 136.0 163.5 L 136.5 174.0 L 135.0 187.5 L 134.0 198.0 L 134.0 202.5 L 134.0 202.5 L 134.5 199.0 L 134.5 196.5 " stroke="black" fill="none" stroke-width="6.0" stroke-linecap="round" stroke-linejoin="round" />
<path d="M 140.5 160.5 L 139.5 160.0 L 138.5 159.5 L 138.5 159.5 L 140.0 159.0 L 142.5 159.0 L 146.0 159.0 L 149.5 159.0 L 153.0 158.5 L 156.0 158.0 L 157.0 158.0 L 157.5 158.0 L 157.5 158.0 L 157.5 158.0 L 157.5 158.5 L 157.5 159.5 L 158.0 161.0 L 158.5 164.0 L 158.5 168.5 L 159.0 175.0 L 159.5 182.5 L 159.5 190.0 L 159.5 197.0 L 159.5 202.0 L 159.5 204.5 L 158.5 205.5 L 158.0 206.0 L 157.0 206.0 L 156.0 206.0 L 154.5 205.0 L 154.0 204.0 " stroke="black" fill="none" stroke-width="6.0" stroke-linecap="round" stroke-linejoin="round" />
<path d="M 147.5 174.0 L 146.0 174.0 L 145.0 173.5 L 145.0 173.5 L 145.5 173.0 L 147.0 173.5 L 148.0 175.0 L 149.5 176.0 L 150.0 177.0 " stroke="black" fill="none" stroke-width="6.0" stroke-linecap="round" stroke-linejoin="round" />
<path d="M 143.0 191.5 L 142.0 191.5 L 141.5 191.5 L 142.5 191.0 L 145.0 190.0 L 148.0 188.5 L 151.0 187.5 L 152.5 186.5 " stroke="black" fill="none" stroke-width="6.0" stroke-linecap="round" stroke-linejoin="round" />
</svg>