<svg xmlns="http://www.w3.org/2000/svg" width="300" height="300" viewBox="0 0 300 300">
<path d="M 148.5 111.5 L 147.5 111.5 L 146.5 112.0 L 146.5 112.0 L 147.0 113.0 L 148.0 115.5 L 150.0 117.5 L 151.0 118.5 L 152.0 119.5 " stroke="black" fill="none" stroke-width="6.0" stroke-linecap="round" stroke-linejoin="round" />
<path d="M 141.0 130.5 L 141.0 131.0 L 140.5 132.0 L 140.0 132.5 L 140.5 132.5 L 142.0 132.5 L 144.5 132.5 L 147.5 132.5 L 150.5 132.0 L 153.0 132.0 L 154.5 131.5 L 155.0 131.5 L 155.0 131.5 L 154.5 131.5 L 154.5 131.5 L 154.0 131.5 L 153.0 132.0 L 152.5 133.0 L 152.0 135.0 L 151.5 138.0 L 151.5 143.0 L 152.0 149.5 L 152.0 157.5 L 152.5 166.5 L 152.5 174.5 L 153.5 181.5 L 153.5 186.5 L 153.5 190.5 L 153.5 193.0 L 152.5 194.5 L 151.5 194.5 L 149.5 194.5 L 147.5 193.0 L 145.5 190.0 L 144.0 186.0 L 143.5 185.0 " stroke="black" fill="none" stroke-width="6.0" stroke-linecap="round" stroke-linejoin="round" />
<path d="M 128.5 152.5 L 128.5 153.0 L 128.0 153.5 L 128.0 153.5 L 130.0 153.0 L 133.0 152.5 L 136.5 151.5 L 139.5 151.0 L 141.5 151.0 L 142.5 151.0 L 143.0 151.5 L 143.0 153.5 L 142.5 156.0 L 141.5 160.0 L 139.5 165.0 L 136.5 171.0 L 133.0 175.5 L 131.0 177.5 L 130.5 178.0 L 130.5 178.0 L 130.5 177.5 " stroke="black" fill="none" stroke-width="6.0" stroke-linecap="round" stroke-linejoin="round" />
<path d="M 172.0 144.5 L 172.0 144.5 L 172.0 144.5 L 172.0 144.5 L 172.0 144.0 L 172.0 144.0 L 172.0 144.0 L 170.5 146.0 L 168.5 149.5 L 166.5 153.0 L 165.5 154.5 " stroke="black" fill="none" stroke-width="6.0" stroke-linecap="round" stroke-linejoin="round" />
<path d="M 156.5 146.5 L 156.5 146.5 L 157.0 146.5 L 157.5 146.5 L 158.5 147.0 L 160.0 150.5 L 164.0 159.0 L 169.5 169.5 L 174.0 177.5 L 177.0 181.0 L 180.0 183.0 L 182.0 184.5 L 183.5 185.5 " stroke="black" fill="none" stroke-width="6.0" stroke-linecap="round" stroke-linejoin="round" />
</svg>