<svg xmlns="http://www.w3.org/2000/svg" width="300" height="300" viewBox="0 0 300 300">
<path d="M 143.0 109.5 L 142.0 109.5 L 142.0 109.0 L 142.0 109.0 L 143.0 109.0 L 145.0 111.0 L 147.5 113.0 L 149.5 115.0 L 150.5 115.5 " stroke="black" fill="none" stroke-width="6.0" stroke-linecap="round" stroke-linejoin="round" />
<path d="M 141.5 127.0 L 141.5 127.0 L 141.5 127.0 L 141.5 127.0 L 141.5 127.0 L 143.5 126.0 L 145.5 125.5 L 147.5 125.0 L 149.0 124.5 L 150.5 124.5 L 150.5 125.5 L 151.0 127.0 L 151.0 129.0 L 151.0 132.5 L 151.5 137.5 L 151.5 143.0 L 151.5 148.0 L 152.0 153.5 L 152.0 159.5 L 152.0 165.0 L 152.0 171.0 L 151.5 176.0 L 151.0 180.0 L 150.0 184.0 L 149.0 185.0 L 148.0 185.0 L 145.5 182.5 L 142.5 178.0 L 140.5 173.5 L 140.0 172.0 " stroke="black" fill="none" stroke-width="6.0" stroke-linecap="round" stroke-linejoin="round" />
<path d="M 125.5 146.5 L 125.5 146.5 L 125.0 147.0 L 124.5 147.0 L 124.5 147.0 L 125.0 147.0 L 128.0 146.5 L 131.5 145.5 L 135.0 144.5 L 138.5 143.5 L 141.0 143.0 L 142.0 143.0 L 142.0 143.0 L 142.0 143.0 L 141.5 145.0 L 141.0 147.5 L 139.5 151.5 L 136.5 155.5 L 133.5 160.5 L 130.0 165.0 L 127.5 167.5 L 126.5 168.5 L 126.5 168.0 " stroke="black" fill="none" stroke-width="6.0" stroke-linecap="round" stroke-linejoin="round" />
<path d="M 171.5 133.0 L 171.5 133.0 L 172.5 133.0 L 173.5 133.0 L 173.5 133.0 L 173.5 133.5 L 172.0 135.5 L 170.0 139.0 L 168.0 142.0 L 167.0 143.5 " stroke="black" fill="none" stroke-width="6.0" stroke-linecap="round" stroke-linejoin="round" />
<path d="M 159.5 141.5 L 159.0 141.0 L 158.0 141.0 L 158.0 141.0 L 159.0 143.5 L 162.0 149.5 L 166.0 157.5 L 170.5 163.5 L 175.5 166.5 L 180.0 168.0 L 183.5 169.0 L 184.5 169.0 " stroke="black" fill="none" stroke-width="6.0" stroke-linecap="round" stroke-linejoin="round" />
</svg>