<svg xmlns="http://www.w3.org/2000/svg" width="300" height="300" viewBox="0 0 300 300">
<path d="M 120.0 108.0 L 120.0 108.0 L 120.0 107.0 L 119.5 107.0 L 119.5 106.5 L 120.0 106.5 L 122.0 109.5 L 125.0 114.5 L 128.0 119.0 L 130.5 121.5 L 132.0 123.0 L 132.0 123.5 " stroke="black" fill="none" stroke-width="6.0" stroke-linecap="round" stroke-linejoin="round" />
<path d="M 121.0 135.0 L 121.0 134.0 L 120.5 133.0 L 120.5 132.5 L 120.5 132.5 L 121.5 134.5 L 123.5 139.0 L 125.5 143.5 L 128.0 148.0 L 129.5 152.0 " stroke="black" fill="none" stroke-width="6.0" stroke-linecap="round" stroke-linejoin="round" />
<path d="M 121.0 173.5 L 120.5 174.0 L 119.0 175.0 L 118.5 175.0 L 118.5 175.5 L 119.0 174.5 L 121.0 172.0 L 123.5 169.0 L 127.0 165.5 L 129.5 163.0 L 131.0 161.5 " stroke="black" fill="none" stroke-width="6.0" stroke-linecap="round" stroke-linejoin="round" />
<path d="M 151.0 106.5 L 151.0 106.0 L 151.5 104.5 L 151.5 104.0 L 151.5 104.0 L 151.5 104.0 L 151.5 104.5 L 151.0 107.5 L 150.0 112.5 L 148.5 117.5 L 147.5 120.5 L 147.5 121.5 " stroke="black" fill="none" stroke-width="6.0" stroke-linecap="round" stroke-linejoin="round" />
<path d="M 151.5 113.0 L 151.5 113.0 L 150.5 113.5 L 150.5 113.5 L 150.5 113.5 L 151.5 113.5 L 154.0 112.5 L 157.5 111.5 L 161.5 110.5 L 165.0 110.0 L 167.0 110.0 L 167.5 110.0 L 167.5 110.5 L 167.5 111.0 L 167.5 111.0 L 167.5 112.0 L 167.0 113.0 L 166.0 114.5 L 165.0 117.0 L 163.0 120.5 L 160.5 124.5 L 158.0 129.5 L 155.0 134.5 L 152.0 138.5 L 150.0 141.0 L 148.5 143.5 L 146.5 145.5 L 145.5 147.0 L 145.5 147.5 L 145.5 147.5 L 146.0 146.5 " stroke="black" fill="none" stroke-width="6.0" stroke-linecap="round" stroke-linejoin="round" />
<path d="M 151.5 130.5 L 151.0 130.5 L 150.0 130.5 L 149.5 130.0 L 148.5 130.0 L 148.5 130.0 L 148.5 130.0 L 149.0 130.5 L 151.5 132.5 L 155.0 136.0 L 160.0 139.5 L 166.0 143.0 L 171.0 145.5 L 174.5 147.0 L 176.5 148.0 L 178.5 148.5 L 179.0 149.5 L 179.5 150.0 L 180.0 150.0 L 180.5 150.0 L 180.5 150.5 L 180.5 150.5 L 180.5 150.5 L 180.5 150.5 L 180.5 150.5 L 180.5 150.5 L 180.5 150.5 L 180.5 150.5 L 180.5 150.5 L 180.5 150.5 L 180.5 150.5 L 180.0 150.0 " stroke="black" fill="none" stroke-width="6.0" stroke-linecap="round" stroke-linejoin="round" />
<path d="M 148.0 156.5 L 148.0 156.0 L 148.0 155.0 L 148.0 154.5 L 148.0 154.5 L 148.5 155.0 L 149.0 158.5 L 150.0 164.0 L 150.5 168.5 L 151.0 171.0 L 151.0 170.0 L 151.5 168.0 " stroke="black" fill="none" stroke-width="6.0" stroke-linecap="round" stroke-linejoin="round" />
<path d="M 151.5 156.0 L 151.5 156.0 L 151.0 155.5 L 150.5 155.5 L 150.5 155.5 L 151.0 155.0 L 154.0 155.0 L 158.0 154.5 L 162.5 154.0 L 167.0 153.5 L 170.0 153.5 L 170.5 153.5 L 170.5 153.5 L 170.0 153.5 L 170.0 153.5 L 170.0 154.0 L 170.0 154.0 L 170.0 154.5 L 170.0 155.5 L 170.0 157.5 L 169.5 160.5 L 169.0 165.0 L 168.0 169.5 L 168.0 172.5 L 168.0 174.5 L 168.0 174.5 L 168.0 173.5 " stroke="black" fill="none" stroke-width="6.0" stroke-linecap="round" stroke-linejoin="round" />
<path d="M 155.5 175.5 L 155.0 175.5 L 154.5 175.5 L 154.0 175.5 L 154.0 175.5 L 155.0 175.5 L 158.0 175.5 L 162.5 176.0 L 167.0 176.5 L 169.5 177.0 " stroke="black" fill="none" stroke-width="6.0" stroke-linecap="round" stroke-linejoin="round" />
</svg>