<svg xmlns="http://www.w3.org/2000/svg" width="300" height="300" viewBox="0 0 300 300">
<path d="M 129.0 105.0 L 129.0 104.5 L 129.0 104.0 L 129.5 103.5 L 129.5 106.0 L 129.5 111.0 L 130.0 117.0 L 130.5 121.0 L 130.5 122.5 L 130.0 122.5 " stroke="black" fill="none" stroke-width="6.0" stroke-linecap="round" stroke-linejoin="round" />
<path d="M 120.0 118.0 L 119.5 118.0 L 118.5 118.0 L 118.0 118.0 L 118.5 117.5 L 121.5 116.5 L 126.5 115.5 L 132.0 115.0 L 137.5 114.0 L 142.5 113.5 L 143.5 113.5 " stroke="black" fill="none" stroke-width="6.0" stroke-linecap="round" stroke-linejoin="round" />
<path d="M 161.0 104.0 L 161.0 103.5 L 161.0 103.0 L 160.5 103.0 L 160.5 103.0 L 160.5 105.5 L 160.0 111.0 L 160.0 117.0 L 160.0 121.0 L 159.5 122.5 " stroke="black" fill="none" stroke-width="6.0" stroke-linecap="round" stroke-linejoin="round" />
<path d="M 151.5 113.0 L 151.5 113.5 L 150.5 114.5 L 150.5 115.0 L 151.0 115.0 L 154.5 115.0 L 159.5 113.5 L 165.0 111.5 L 170.5 110.5 L 173.0 110.0 L 173.5 110.5 " stroke="black" fill="none" stroke-width="6.0" stroke-linecap="round" stroke-linejoin="round" />
<path d="M 126.5 135.5 L 126.5 135.0 L 127.0 135.0 L 127.5 134.5 L 128.0 135.5 L 128.5 139.0 L 129.0 144.5 L 129.5 149.5 L 129.5 152.5 L 129.5 154.0 " stroke="black" fill="none" stroke-width="6.0" stroke-linecap="round" stroke-linejoin="round" />
<path d="M 129.5 135.5 L 128.5 136.5 L 128.0 137.5 L 128.0 137.5 L 128.0 137.5 L 129.5 137.0 L 132.5 136.0 L 136.5 135.0 L 143.0 134.5 L 151.0 133.5 L 158.5 133.0 L 164.0 133.0 L 167.0 133.5 L 167.5 134.5 L 167.5 135.0 L 167.5 135.0 L 167.0 135.0 L 167.0 135.0 L 166.5 135.5 L 166.5 136.5 L 166.0 138.0 L 165.5 140.5 L 165.0 145.0 L 164.0 150.5 L 163.5 155.5 L 163.5 157.5 L 163.5 157.5 L 163.5 155.5 L 163.5 154.5 " stroke="black" fill="none" stroke-width="6.0" stroke-linecap="round" stroke-linejoin="round" />
<path d="M 130.5 147.5 L 131.0 147.5 L 132.0 147.0 L 133.5 147.0 L 136.0 147.0 L 141.0 147.5 L 148.0 146.5 L 154.0 145.5 L 158.0 145.5 " stroke="black" fill="none" stroke-width="6.0" stroke-linecap="round" stroke-linejoin="round" />
<path d="M 132.0 160.0 L 132.0 160.0 L 132.0 160.5 L 132.0 160.5 L 132.0 160.5 L 133.5 160.5 L 136.5 160.5 L 142.0 159.5 L 149.5 158.5 L 156.0 158.0 L 159.5 157.5 L 160.0 158.5 " stroke="black" fill="none" stroke-width="6.0" stroke-linecap="round" stroke-linejoin="round" />
<path d="M 124.5 172.5 L 124.5 172.5 L 124.0 172.0 L 124.0 171.5 L 124.0 171.5 L 124.0 174.5 L 125.0 180.5 L 125.5 188.0 L 125.5 194.0 L 125.5 196.0 L 125.5 195.0 L 125.5 194.0 " stroke="black" fill="none" stroke-width="6.0" stroke-linecap="round" stroke-linejoin="round" />
<path d="M 128.5 171.0 L 128.5 170.5 L 128.0 170.5 L 128.0 170.5 L 128.0 170.5 L 129.5 170.5 L 132.5 170.5 L 137.0 170.5 L 143.0 170.5 L 149.0 171.0 L 155.0 171.0 L 160.5 171.0 L 166.0 169.5 L 170.5 168.5 L 174.0 168.5 L 176.5 168.5 L 178.0 169.0 L 179.0 169.0 L 179.5 169.5 L 179.5 169.5 L 179.5 169.5 L 179.5 170.0 L 179.5 170.5 L 179.0 170.5 L 179.0 171.0 L 178.5 172.0 L 178.0 173.0 L 178.0 175.5 L 177.5 179.0 L 177.5 184.5 L 177.5 190.0 L 178.0 195.5 L 178.0 198.5 L 178.5 199.5 L 178.0 200.0 L 176.5 200.5 L 175.0 200.5 L 172.5 199.5 L 170.0 198.5 L 169.0 197.0 L 168.5 195.5 " stroke="black" fill="none" stroke-width="6.0" stroke-linecap="round" stroke-linejoin="round" />
<path d="M 146.5 138.0 L 145.5 137.5 L 145.0 137.0 L 145.0 137.0 L 145.0 137.5 L 145.5 139.5 L 146.5 144.0 L 147.0 152.0 L 147.0 161.0 L 147.0 169.0 L 146.0 175.5 L 145.0 181.0 L 144.5 185.5 L 144.0 188.5 L 144.0 189.5 L 144.0 189.5 L 144.0 189.0 L 144.0 189.0 L 144.0 189.0 L 144.0 188.5 L 144.5 188.5 L 146.0 188.5 L 147.5 188.5 L 149.5 188.5 L 152.0 188.0 L 154.5 188.0 L 156.5 187.5 L 157.5 186.0 L 157.5 185.5 " stroke="black" fill="none" stroke-width="6.0" stroke-linecap="round" stroke-linejoin="round" />
<path d="M 155.5 179.5 L 156.0 179.0 L 156.0 178.5 L 156.0 178.0 L 156.5 178.5 L 157.0 181.5 L 158.0 186.0 L 159.5 190.5 L 161.0 194.0 L 161.5 196.5 L 162.0 197.5 L 162.0 197.5 " stroke="black" fill="none" stroke-width="6.0" stroke-linecap="round" stroke-linejoin="round" />
</svg>