<svg xmlns="http://www.w3.org/2000/svg" width="300" height="300" viewBox="0 0 300 300">
<path d="M 130.0 122.5 L 131.0 122.5 L 132.0 122.0 L 134.0 122.0 L 138.0 122.0 L 146.0 121.5 L 156.5 120.5 L 165.0 120.0 L 170.5 119.5 L 173.0 119.5 L 173.0 119.5 L 173.0 119.5 L 172.5 119.5 L 172.5 119.5 L 172.5 119.5 " stroke="black" fill="none" stroke-width="6.0" stroke-linecap="round" stroke-linejoin="round" />
<path d="M 129.0 145.0 L 129.5 144.5 L 130.0 143.5 L 130.0 143.5 L 130.5 143.5 L 131.0 144.5 L 131.5 148.5 L 132.0 155.0 L 132.5 164.5 L 132.5 172.5 L 132.5 175.5 L 133.0 175.5 L 133.5 171.5 " stroke="black" fill="none" stroke-width="6.0" stroke-linecap="round" stroke-linejoin="round" />
<path d="M 135.5 142.0 L 135.0 141.5 L 134.5 141.0 L 134.0 141.0 L 134.0 140.5 L 135.0 140.5 L 137.5 140.0 L 142.0 140.0 L 149.0 140.0 L 157.5 139.5 L 166.0 139.0 L 171.5 139.5 L 174.0 140.5 L 175.5 141.0 L 176.0 141.0 L 176.5 141.0 L 176.5 140.5 L 176.5 140.5 L 176.5 140.5 L 176.5 140.5 L 176.5 140.5 L 176.5 140.5 L 176.5 141.0 L 176.5 141.5 L 176.5 143.0 L 176.0 145.5 L 176.0 149.0 L 176.0 155.0 L 176.0 162.5 L 176.0 169.0 L 176.0 174.5 L 176.0 178.0 L 176.0 179.0 L 176.0 179.0 L 176.0 179.0 L 175.5 177.5 " stroke="black" fill="none" stroke-width="6.0" stroke-linecap="round" stroke-linejoin="round" />
<path d="M 149.0 124.5 L 149.0 124.5 L 149.0 123.5 L 149.5 123.5 L 149.5 123.0 L 149.5 123.0 L 150.0 126.5 L 150.0 134.5 L 148.5 147.5 L 146.0 159.0 L 145.0 164.0 L 144.5 165.0 L 144.5 164.0 L 144.0 161.0 L 144.0 160.0 " stroke="black" fill="none" stroke-width="6.0" stroke-linecap="round" stroke-linejoin="round" />
<path d="M 161.5 124.5 L 161.5 124.5 L 161.5 124.5 L 161.0 124.0 L 161.0 124.0 L 161.0 125.0 L 161.0 129.0 L 160.0 136.5 L 158.0 147.5 L 157.0 156.5 L 156.5 162.5 L 157.0 165.5 L 158.0 166.5 L 159.0 167.0 L 160.5 166.5 L 162.5 165.5 L 165.0 164.5 L 166.5 164.0 L 167.0 163.5 L 167.5 163.0 " stroke="black" fill="none" stroke-width="6.0" stroke-linecap="round" stroke-linejoin="round" />
<path d="M 134.5 181.0 L 134.5 181.5 L 134.5 181.5 L 135.0 181.5 L 137.0 181.5 L 144.0 181.5 L 154.0 181.5 L 166.5 181.0 L 174.0 180.0 " stroke="black" fill="none" stroke-width="6.0" stroke-linecap="round" stroke-linejoin="round" />
</svg>