<svg xmlns="http://www.w3.org/2000/svg" width="300" height="300" viewBox="0 0 300 300">
<path d="M 125.5 120.5 L 125.5 120.5 L 124.5 120.5 L 124.5 120.5 L 127.0 120.5 L 132.5 120.5 L 140.5 121.0 L 151.0 121.0 L 160.0 121.0 L 166.5 121.0 L 169.0 120.5 L 169.0 120.5 L 168.5 120.5 L 168.5 120.5 L 168.5 121.0 L 169.0 121.0 L 169.5 121.5 L 170.5 121.5 L 171.0 121.5 L 171.5 121.5 L 172.0 121.5 L 172.0 121.5 L 172.0 121.5 L 172.5 121.5 L 172.5 121.5 L 172.5 121.5 L 172.5 121.5 L 172.5 121.5 L 172.5 121.5 " stroke="black" fill="none" stroke-width="6.0" stroke-linecap="round" stroke-linejoin="round" />
<path d="M 126.5 137.5 L 126.5 138.0 L 126.0 138.5 L 126.0 139.0 L 126.0 140.0 L 126.0 144.0 L 126.5 151.0 L 127.0 160.5 L 127.5 170.0 L 127.5 174.5 L 127.5 175.0 L 128.5 172.5 L 128.5 168.5 " stroke="black" fill="none" stroke-width="6.0" stroke-linecap="round" stroke-linejoin="round" />
<path d="M 128.5 141.0 L 128.0 141.0 L 127.0 141.0 L 126.5 141.0 L 127.0 141.0 L 129.5 141.0 L 134.0 140.5 L 141.0 140.0 L 150.5 140.0 L 160.0 140.0 L 165.5 140.0 L 168.5 140.0 L 169.5 140.0 L 169.5 140.0 L 169.5 140.0 L 169.5 140.0 L 170.0 140.0 L 171.0 140.5 L 171.5 141.5 L 172.0 142.5 L 172.0 148.5 L 172.0 154.5 L 171.5 162.0 L 171.0 169.5 L 171.0 175.0 L 171.0 177.5 L 171.0 178.0 L 171.0 177.0 L 170.5 175.5 " stroke="black" fill="none" stroke-width="6.0" stroke-linecap="round" stroke-linejoin="round" />
<path d="M 147.0 124.0 L 146.5 124.0 L 146.0 123.5 L 146.0 123.5 L 146.0 126.5 L 146.5 132.0 L 146.0 140.0 L 143.5 149.0 L 140.5 156.5 L 138.5 160.0 L 138.0 160.0 L 138.0 159.5 L 138.0 159.0 " stroke="black" fill="none" stroke-width="6.0" stroke-linecap="round" stroke-linejoin="round" />
<path d="M 160.5 127.5 L 160.5 127.0 L 160.5 126.5 L 160.5 126.0 L 160.5 126.0 L 160.5 127.5 L 160.0 131.5 L 158.0 139.5 L 156.0 150.0 L 155.0 157.0 L 155.0 160.5 L 155.5 161.0 L 157.0 161.0 L 159.0 161.0 L 162.0 161.0 L 165.5 160.0 L 168.5 159.0 L 170.0 158.0 L 170.5 158.0 L 170.5 158.5 " stroke="black" fill="none" stroke-width="6.0" stroke-linecap="round" stroke-linejoin="round" />
<path d="M 132.5 184.0 L 132.5 184.0 L 133.0 184.0 L 134.0 184.0 L 135.5 184.0 L 139.5 183.0 L 146.0 182.5 L 154.5 182.5 L 162.5 183.0 L 167.5 183.5 L 170.0 183.5 L 170.5 183.0 " stroke="black" fill="none" stroke-width="6.0" stroke-linecap="round" stroke-linejoin="round" />
</svg>