<svg xmlns="http://www.w3.org/2000/svg" width="300" height="300" viewBox="0 0 300 300">
<path d="M 151.0 145.0 L 150.0 145.0 L 149.0 145.0 L 148.0 145.0 L 147.0 146.5 L 147.0 148.5 L 147.0 151.0 L 148.0 153.0 L 150.0 153.0 L 151.0 152.0 L 152.0 149.0 L 152.5 146.0 L 152.0 144.0 L 151.5 143.0 L 150.5 143.0 L 150.0 145.0 L 149.5 146.5 L 149.5 147.5 L 150.0 147.5 L 150.5 147.5 L 151.0 146.5 L 151.5 145.5 L 151.5 145.0 L 151.5 144.5 L 152.0 144.0 L 152.0 144.0 L 152.0 144.5 L 152.0 145.5 L 152.5 147.5 L 152.5 150.5 L 152.5 154.0 L 152.0 158.5 L 150.5 162.5 L 148.5 165.5 L 147.0 167.0 L 146.5 168.0 L 146.5 168.0 " stroke="black" fill="none" stroke-width="6.0" stroke-linecap="round" stroke-linejoin="round" />
</svg>