<svg xmlns="http://www.w3.org/2000/svg" width="300" height="300" viewBox="0 0 300 300">
<path d="M 153.5 146.5 L 154.0 146.0 L 155.0 145.5 L 155.0 144.0 L 155.0 143.0 L 154.5 142.0 L 152.5 142.0 L 150.0 142.5 L 148.0 145.5 L 147.0 148.5 L 147.0 150.5 L 149.0 151.0 L 151.5 150.0 L 153.0 147.5 L 154.0 145.0 L 154.0 143.5 L 153.5 142.5 L 152.5 143.0 L 151.5 144.5 L 151.5 146.0 L 151.5 147.0 L 152.5 147.5 L 154.0 147.5 L 155.5 146.0 L 156.5 143.5 L 157.0 141.5 L 157.0 140.0 L 157.0 140.0 L 157.0 140.0 L 157.0 141.0 L 157.0 142.5 L 157.0 144.0 L 157.0 146.0 L 156.5 149.0 L 156.0 152.0 L 155.0 155.0 L 154.0 158.0 L 152.0 160.0 L 149.5 161.5 L 147.5 162.5 L 146.5 163.5 L 146.5 164.0 " stroke="black" fill="none" stroke-width="6.0" stroke-linecap="round" stroke-linejoin="round" />
</svg>