<svg xmlns="http://www.w3.org/2000/svg" width="300" height="300" viewBox="0 0 300 300">
<path d="M 148.5 145.0 L 148.5 145.0 L 149.5 144.5 L 149.5 144.0 L 149.5 144.0 L 149.5 144.0 L 149.5 145.0 L 149.0 147.0 L 149.0 149.0 L 149.0 150.5 L 149.5 151.5 L 151.0 151.5 L 152.0 150.0 L 153.0 148.0 L 153.0 146.5 L 153.0 145.5 L 152.0 145.0 L 151.0 145.0 L 150.0 145.5 L 149.0 146.0 L 149.0 146.5 L 149.0 146.5 L 149.5 146.5 L 150.5 146.5 L 151.5 146.0 L 152.0 145.5 L 152.5 145.0 L 153.0 145.0 L 153.5 145.0 L 154.0 146.0 L 154.0 148.5 L 154.0 152.0 L 153.5 156.0 L 152.0 159.5 L 150.5 162.0 L 148.5 163.0 L 147.5 163.5 L 147.0 163.5 " stroke="black" fill="none" stroke-width="6.0" stroke-linecap="round" stroke-linejoin="round" />
</svg>