<svg xmlns="http://www.w3.org/2000/svg" width="300" height="300" viewBox="0 0 300 300">
<path d="M 151.5 145.5 L 151.5 145.5 L 151.0 144.5 L 151.0 143.5 L 150.0 142.5 L 149.5 142.5 L 147.5 142.5 L 145.5 144.5 L 144.5 147.0 L 144.0 149.0 L 144.0 151.0 L 145.0 151.5 L 147.0 152.0 L 149.0 150.5 L 150.5 148.5 L 151.5 146.5 L 151.5 144.5 L 151.5 143.5 L 150.5 143.0 L 149.0 143.5 L 147.5 145.5 L 146.5 147.5 L 146.5 150.0 L 147.0 151.5 L 148.5 152.0 L 150.0 152.0 L 151.5 151.5 L 152.0 150.0 L 152.5 148.5 L 152.5 147.0 L 151.5 146.0 L 150.5 145.5 L 149.0 145.5 L 148.5 145.5 L 148.0 145.5 L 148.0 145.5 L 148.5 145.5 L 149.5 145.5 L 150.5 145.0 L 151.5 144.5 L 152.5 144.5 L 153.5 144.5 L 154.0 145.0 L 154.5 146.5 L 154.5 148.0 L 154.5 150.0 L 154.5 152.5 L 153.5 155.5 L 152.0 158.5 L 150.0 161.5 L 148.5 163.0 L 147.0 164.0 L 146.0 164.0 L 146.0 164.0 L 146.0 164.0 " stroke="black" fill="none" stroke-width="6.0" stroke-linecap="round" stroke-linejoin="round" />
</svg>