<svg xmlns="http://www.w3.org/2000/svg" width="300" height="300" viewBox="0 0 300 300">
<path d="M 150.5 144.5 L 150.5 144.5 L 151.0 143.5 L 151.5 142.5 L 151.5 142.0 L 151.5 141.5 L 151.5 141.5 L 150.5 141.5 L 149.0 144.0 L 147.5 146.5 L 147.0 148.5 L 147.5 150.0 L 149.0 150.0 L 151.0 148.0 L 152.5 145.5 L 152.5 143.5 L 152.5 142.0 L 152.5 141.5 L 152.0 141.5 L 151.5 142.0 L 151.5 142.0 L 151.5 142.5 L 151.5 142.5 L 152.0 142.5 L 152.0 142.5 L 152.5 143.0 L 153.0 143.0 L 153.0 143.5 L 153.5 145.0 L 153.5 147.0 L 153.5 149.5 L 153.5 152.5 L 152.5 156.0 L 151.5 158.5 L 150.0 161.0 L 148.5 162.5 L 147.5 163.0 L 147.0 163.0 L 147.0 163.0 L 147.0 162.5 " stroke="black" fill="none" stroke-width="6.0" stroke-linecap="round" stroke-linejoin="round" />
</svg>