<svg xmlns="http://www.w3.org/2000/svg" width="300" height="300" viewBox="0 0 300 300">
<path d="M 148.0 140.5 L 148.0 140.5 L 147.5 140.0 L 147.0 139.5 L 146.5 139.5 L 146.0 139.5 L 145.0 140.5 L 145.0 143.0 L 145.0 145.5 L 146.0 147.0 L 148.0 147.5 L 150.0 147.0 L 151.0 145.0 L 151.0 142.5 L 151.0 141.0 L 151.0 140.0 L 150.5 139.5 L 150.0 139.5 L 149.5 140.0 L 149.5 140.5 L 149.5 141.0 L 149.5 141.5 L 149.5 142.0 L 149.5 142.5 L 149.5 142.5 L 149.5 143.0 L 150.0 143.0 L 150.0 143.5 L 150.0 144.0 L 150.5 145.0 L 151.0 147.0 L 151.0 149.5 L 151.0 152.5 L 151.0 155.0 L 149.5 157.5 L 147.5 159.5 L 145.0 161.0 L 143.0 161.5 L 142.0 162.5 " stroke="black" fill="none" stroke-width="7.0" stroke-linecap="round" stroke-linejoin="round" />
</svg>