<svg xmlns="http://www.w3.org/2000/svg" width="300" height="300" viewBox="0 0 300 300">
<path d="M 150.5 145.0 L 150.5 145.0 L 150.5 145.0 L 150.5 144.5 L 150.5 144.0 L 150.5 143.5 L 150.5 142.5 L 150.5 142.5 L 149.5 143.0 L 148.0 144.5 L 147.5 146.5 L 147.5 148.5 L 148.0 149.5 L 149.5 149.5 L 150.5 149.0 L 151.5 147.0 L 152.0 145.5 L 152.0 144.5 L 151.0 144.0 L 149.5 144.0 L 148.5 145.5 L 148.5 147.0 L 148.5 148.5 L 149.5 149.0 L 151.5 149.0 L 153.0 147.0 L 154.0 145.5 L 154.5 143.5 L 154.5 142.5 L 154.5 142.5 L 154.0 142.5 L 154.0 142.5 L 153.5 142.5 L 153.5 143.5 L 153.5 144.0 L 153.5 145.5 L 153.5 146.5 L 153.5 148.5 L 153.5 151.0 L 153.5 154.0 L 153.0 157.5 L 151.5 159.5 L 150.5 160.5 L 149.0 161.0 L 148.0 161.5 L 147.0 161.5 " stroke="black" fill="none" stroke-width="6.0" stroke-linecap="round" stroke-linejoin="round" />
</svg>