<svg xmlns="http://www.w3.org/2000/svg" width="300" height="300" viewBox="0 0 300 300">
<path d="M 151.5 146.0 L 151.5 145.0 L 151.5 144.0 L 151.0 143.5 L 150.5 143.0 L 150.0 142.5 L 149.0 143.0 L 147.5 145.0 L 146.5 148.0 L 146.5 151.0 L 147.5 152.5 L 150.0 153.0 L 152.0 152.0 L 153.0 149.5 L 153.5 147.0 L 153.5 145.0 L 152.5 144.0 L 151.5 144.0 L 150.5 144.5 L 149.5 146.0 L 149.5 148.0 L 149.5 149.5 L 150.0 150.0 L 151.5 150.5 L 152.5 150.0 L 153.5 148.5 L 154.0 147.0 L 154.0 145.5 L 153.5 144.5 L 153.5 144.0 L 153.0 143.5 L 153.0 143.5 L 153.0 143.5 L 153.0 143.5 L 153.5 144.0 L 154.0 144.5 L 154.5 145.5 L 155.0 146.0 L 155.0 147.0 L 155.5 148.0 L 155.5 149.5 L 155.5 151.5 L 155.5 154.0 L 155.0 156.0 L 154.0 159.0 L 152.0 161.0 L 150.0 162.5 L 148.5 163.0 L 147.5 163.5 L 147.5 163.5 L 147.5 164.0 " stroke="black" fill="none" stroke-width="6.0" stroke-linecap="round" stroke-linejoin="round" />
</svg>