<svg xmlns="http://www.w3.org/2000/svg" width="300" height="300" viewBox="0 0 300 300">
<path d="M 149.5 145.5 L 149.5 145.0 L 149.0 144.0 L 149.0 143.5 L 149.0 143.5 L 148.5 143.5 L 148.0 145.0 L 147.5 147.0 L 147.5 149.0 L 147.5 150.5 L 149.0 150.5 L 151.0 148.5 L 152.0 146.0 L 152.0 143.5 L 152.0 142.0 L 151.0 141.5 L 150.5 141.5 L 150.0 143.5 L 149.5 145.5 L 150.0 146.5 L 151.0 147.0 L 152.0 147.0 L 153.0 146.5 L 153.5 145.0 L 153.5 143.5 L 153.5 142.5 L 153.5 142.5 L 153.0 142.0 L 152.5 142.0 L 152.5 142.5 L 152.5 142.5 L 152.5 143.0 L 152.5 144.0 L 153.0 145.0 L 153.5 147.0 L 153.5 149.5 L 153.5 153.0 L 152.5 156.5 L 150.5 159.5 L 149.0 161.0 L 148.0 161.5 L 147.5 162.0 " stroke="black" fill="none" stroke-width="6.0" stroke-linecap="round" stroke-linejoin="round" />
</svg>