<svg xmlns="http://www.w3.org/2000/svg" width="300" height="300" viewBox="0 0 300 300">
<path d="M 150.0 145.5 L 149.5 145.5 L 149.0 145.5 L 148.5 145.5 L 148.0 146.0 L 148.0 147.5 L 148.5 148.5 L 150.0 149.0 L 151.5 148.5 L 152.5 146.5 L 153.0 145.0 L 153.0 144.0 L 152.5 143.5 L 152.0 143.5 L 151.5 144.5 L 151.5 145.5 L 151.5 146.5 L 152.0 146.5 L 152.5 146.5 L 153.0 146.0 L 153.0 145.5 L 153.5 145.0 L 153.5 144.5 L 153.5 144.0 L 154.0 144.0 L 154.0 144.0 L 154.0 144.5 L 154.0 145.5 L 154.0 147.5 L 154.0 150.5 L 152.5 155.0 L 150.5 159.0 L 148.5 161.5 L 147.0 162.5 L 147.0 163.0 " stroke="black" fill="none" stroke-width="6.0" stroke-linecap="round" stroke-linejoin="round" />
</svg>