<svg xmlns="http://www.w3.org/2000/svg" width="300" height="300" viewBox="0 0 300 300">
<path d="M 149.0 142.0 L 148.5 141.5 L 148.0 141.0 L 147.5 140.0 L 146.5 139.5 L 145.5 139.5 L 144.0 141.0 L 143.5 144.0 L 143.5 146.5 L 144.5 148.0 L 147.0 148.0 L 149.0 146.0 L 150.5 143.5 L 151.0 140.5 L 151.5 139.0 L 151.0 138.5 L 150.5 138.5 L 150.0 139.5 L 150.0 141.0 L 150.5 143.0 L 151.5 145.5 L 152.5 148.5 L 153.5 151.5 L 154.0 154.5 L 154.0 157.5 L 153.0 159.5 L 150.5 161.5 L 147.0 163.0 L 144.0 164.0 L 142.0 164.5 L 141.0 164.0 " stroke="black" fill="none" stroke-width="7.0" stroke-linecap="round" stroke-linejoin="round" />
</svg>