<svg xmlns="http://www.w3.org/2000/svg" width="300" height="300" viewBox="0 0 300 300">
<path d="M 150.5 147.0 L 150.5 147.0 L 150.5 147.0 L 151.0 146.5 L 151.0 146.5 L 151.0 146.0 L 151.0 145.5 L 150.0 145.5 L 148.5 147.5 L 147.5 150.0 L 147.5 152.0 L 148.5 153.0 L 150.5 153.0 L 152.5 151.5 L 153.0 149.0 L 153.0 146.5 L 153.0 145.5 L 152.5 145.0 L 151.5 145.0 L 151.5 145.0 L 151.5 145.0 L 151.5 145.0 L 151.5 145.5 L 151.5 145.5 L 151.5 145.5 L 151.5 145.5 L 151.5 146.0 L 151.5 146.0 L 151.5 146.0 L 151.5 146.5 L 152.0 147.5 L 152.5 149.5 L 153.5 152.0 L 154.0 156.0 L 154.0 159.5 L 153.0 163.0 L 150.5 166.0 L 148.0 167.5 L 146.0 168.0 L 145.0 168.0 " stroke="black" fill="none" stroke-width="7.0" stroke-linecap="round" stroke-linejoin="round" />
</svg>