<svg xmlns="http://www.w3.org/2000/svg" width="300" height="300" viewBox="0 0 300 300">
<path d="M 150.0 148.5 L 150.0 148.0 L 150.5 147.0 L 150.5 146.0 L 150.5 145.0 L 150.5 144.5 L 149.0 144.5 L 147.5 145.5 L 146.5 147.5 L 146.0 149.0 L 146.5 150.0 L 148.0 150.0 L 150.5 149.5 L 153.0 148.0 L 154.0 146.0 L 154.0 144.0 L 153.5 143.5 L 152.0 144.0 L 150.5 145.5 L 150.0 147.5 L 150.0 148.5 L 151.0 149.0 L 152.5 149.0 L 154.0 148.0 L 154.5 146.5 L 154.5 145.0 L 154.0 144.5 L 153.5 144.0 L 152.5 144.0 L 152.0 144.0 L 152.0 144.0 L 152.0 144.0 L 153.0 144.0 L 153.5 144.0 L 154.5 144.0 L 155.0 144.0 L 155.5 144.5 L 156.0 145.0 L 156.0 146.0 L 156.0 147.0 L 156.0 149.0 L 155.5 150.5 L 154.5 152.5 L 153.5 155.0 L 152.0 157.5 L 151.0 159.5 L 149.5 161.5 L 148.5 162.5 L 147.5 163.0 L 147.5 163.5 L 147.5 163.5 " stroke="black" fill="none" stroke-width="6.0" stroke-linecap="round" stroke-linejoin="round" />
</svg>