<svg xmlns="http://www.w3.org/2000/svg" width="300" height="300" viewBox="0 0 300 300">
<path d="M 149.5 144.5 L 150.0 143.0 L 150.0 142.0 L 150.5 141.0 L 150.5 140.5 L 149.5 140.0 L 148.0 140.0 L 146.5 141.0 L 146.0 143.0 L 145.5 144.5 L 145.5 145.5 L 146.5 146.0 L 148.0 146.0 L 149.5 144.5 L 150.0 143.0 L 150.5 142.0 L 150.5 141.0 L 150.5 140.5 L 150.0 140.5 L 150.0 140.5 L 149.5 140.5 L 149.5 140.5 L 149.5 140.5 L 149.5 140.5 L 149.5 140.5 L 149.5 140.5 L 150.0 141.0 L 150.5 141.5 L 151.0 143.0 L 151.5 144.5 L 152.5 147.5 L 152.5 150.5 L 153.0 153.5 L 152.5 156.0 L 151.0 158.5 L 149.5 160.5 L 148.0 162.0 L 147.0 162.5 L 146.0 162.5 L 146.0 162.5 " stroke="black" fill="none" stroke-width="6.0" stroke-linecap="round" stroke-linejoin="round" />
</svg>