<svg xmlns="http://www.w3.org/2000/svg" width="300" height="300" viewBox="0 0 300 300">
<path d="M 149.5 146.0 L 149.0 145.0 L 148.5 143.5 L 148.0 143.0 L 148.0 143.0 L 147.0 143.5 L 146.5 146.0 L 146.0 148.5 L 146.0 151.0 L 146.5 152.0 L 147.5 152.0 L 148.5 151.0 L 149.5 149.0 L 149.5 147.5 L 149.5 146.0 L 149.5 145.5 L 149.5 145.5 L 149.5 145.5 L 149.5 145.5 L 149.5 145.5 L 149.5 145.5 L 149.5 145.5 L 149.5 145.5 L 149.5 145.5 L 149.5 145.5 L 150.0 146.5 L 150.5 147.5 L 150.5 150.0 L 150.5 152.5 L 150.5 156.0 L 149.0 158.5 L 147.5 160.5 L 146.5 161.5 L 146.0 162.5 L 146.0 163.0 " stroke="black" fill="none" stroke-width="6.0" stroke-linecap="round" stroke-linejoin="round" />
</svg>