<svg xmlns="http://www.w3.org/2000/svg" width="300" height="300" viewBox="0 0 300 300">
<path d="M 149.0 146.5 L 149.0 146.0 L 148.5 145.0 L 148.0 144.0 L 148.0 143.5 L 147.0 143.0 L 147.0 144.5 L 147.0 146.5 L 147.0 148.5 L 148.0 149.5 L 149.5 150.0 L 150.5 149.5 L 151.5 148.0 L 151.5 146.5 L 151.5 145.5 L 150.5 145.5 L 149.5 145.5 L 149.0 146.5 L 149.0 147.5 L 149.0 148.0 L 149.5 148.0 L 150.5 148.0 L 151.5 147.5 L 152.5 147.0 L 153.0 146.5 L 153.5 146.5 L 153.5 146.0 L 153.5 146.0 L 153.5 146.0 L 153.5 146.5 L 154.0 147.5 L 154.0 148.5 L 154.0 150.0 L 154.5 152.0 L 154.5 155.0 L 155.0 157.5 L 155.0 160.5 L 154.5 163.0 L 153.0 165.0 L 151.5 167.0 L 149.5 168.5 L 149.0 169.0 " stroke="black" fill="none" stroke-width="7.0" stroke-linecap="round" stroke-linejoin="round" />
</svg>