<svg xmlns="http://www.w3.org/2000/svg" width="300" height="300" viewBox="0 0 300 300">
<path d="M 144.5 100.0 L 144.5 99.5 L 143.5 99.0 L 143.5 99.0 L 144.0 99.5 L 146.5 102.0 L 149.5 105.0 L 152.0 107.5 L 153.0 109.0 " stroke="black" fill="none" stroke-width="7.0" stroke-linecap="round" stroke-linejoin="round" />
<path d="M 125.5 113.0 L 125.5 113.0 L 125.0 113.5 L 124.5 114.5 L 123.5 116.0 L 123.0 120.0 L 122.0 125.0 L 122.0 128.0 " stroke="black" fill="none" stroke-width="7.0" stroke-linecap="round" stroke-linejoin="round" />
<path d="M 126.0 118.0 L 125.5 118.0 L 125.0 118.0 L 125.0 118.0 L 128.5 118.0 L 135.0 117.5 L 147.0 117.5 L 161.0 117.0 L 171.5 117.0 L 177.0 117.5 L 178.0 119.0 L 178.0 119.5 L 177.5 120.0 L 177.0 120.5 L 177.0 122.0 L 176.5 125.0 L 175.5 128.5 L 174.5 132.0 L 174.0 134.5 L 173.5 135.5 " stroke="black" fill="none" stroke-width="7.0" stroke-linecap="round" stroke-linejoin="round" />
<path d="M 146.0 126.0 L 145.0 126.0 L 144.0 126.0 L 143.5 126.0 L 143.5 128.5 L 144.5 133.0 L 145.5 137.0 L 146.0 138.0 " stroke="black" fill="none" stroke-width="7.0" stroke-linecap="round" stroke-linejoin="round" />
<path d="M 129.0 133.5 L 129.5 134.5 L 130.0 135.0 L 130.0 135.0 L 131.5 135.0 L 133.5 135.5 L 134.5 135.5 " stroke="black" fill="none" stroke-width="7.0" stroke-linecap="round" stroke-linejoin="round" />
<path d="M 157.0 130.0 L 157.0 130.0 L 157.5 130.0 L 158.0 130.0 L 158.0 130.5 L 157.5 132.0 L 156.5 134.0 L 155.0 137.0 L 154.0 138.0 " stroke="black" fill="none" stroke-width="7.0" stroke-linecap="round" stroke-linejoin="round" />
<path d="M 132.0 148.0 L 132.0 148.0 L 133.0 147.0 L 133.5 147.0 L 134.0 147.0 L 134.0 148.0 L 134.0 153.5 L 134.0 165.0 L 133.0 179.5 L 133.0 187.0 L 133.0 187.5 L 132.5 182.0 L 132.0 180.0 " stroke="black" fill="none" stroke-width="7.0" stroke-linecap="round" stroke-linejoin="round" />
<path d="M 137.0 149.5 L 137.5 148.0 L 138.0 147.0 L 139.0 146.5 L 141.5 146.5 L 146.5 146.5 L 152.5 147.0 L 158.5 148.0 L 163.0 149.0 L 164.5 150.0 L 164.5 151.5 L 164.0 153.5 L 163.5 157.0 L 163.0 162.5 L 162.5 169.5 L 161.5 177.0 L 160.5 183.5 L 159.5 190.5 L 158.5 196.5 L 157.5 200.0 L 157.0 200.5 L 155.5 199.0 L 154.5 197.0 " stroke="black" fill="none" stroke-width="7.0" stroke-linecap="round" stroke-linejoin="round" />
<path d="M 145.0 160.0 L 145.0 160.0 L 144.0 160.5 L 144.0 161.0 L 144.5 162.0 L 146.5 164.0 L 148.5 165.5 L 149.5 166.5 " stroke="black" fill="none" stroke-width="7.0" stroke-linecap="round" stroke-linejoin="round" />
<path d="M 140.5 180.0 L 141.0 181.0 L 141.5 181.0 L 144.0 180.5 L 148.0 178.5 L 152.5 176.0 L 154.0 175.5 " stroke="black" fill="none" stroke-width="7.0" stroke-linecap="round" stroke-linejoin="round" />
</svg>