<svg xmlns="http://www.w3.org/2000/svg" width="300" height="300" viewBox="0 0 300 300">
<path d="M 137.5 112.5 L 137.5 112.5 L 137.5 112.5 L 137.5 112.5 L 137.5 112.5 L 137.5 112.5 L 137.5 112.5 L 137.5 113.5 L 137.5 116.0 L 137.5 120.0 L 137.5 124.5 L 137.5 127.5 L 137.5 128.5 L 137.5 128.5 " stroke="black" fill="none" stroke-width="6.0" stroke-linecap="round" stroke-linejoin="round" />
<path d="M 139.0 122.0 L 139.0 122.0 L 138.0 122.0 L 137.5 122.0 L 137.5 122.0 L 139.0 121.0 L 142.0 120.5 L 144.0 120.5 L 145.0 120.5 " stroke="black" fill="none" stroke-width="6.0" stroke-linecap="round" stroke-linejoin="round" />
<path d="M 126.0 119.5 L 126.0 119.5 L 125.5 119.5 L 125.5 119.5 L 125.0 119.5 L 125.0 120.5 L 125.5 123.5 L 125.5 128.5 L 125.5 133.5 L 125.5 137.5 L 125.5 139.0 L 125.5 139.0 " stroke="black" fill="none" stroke-width="6.0" stroke-linecap="round" stroke-linejoin="round" />
<path d="M 119.0 143.0 L 118.0 143.5 L 116.0 144.5 L 115.5 145.0 L 115.5 145.0 L 116.0 144.5 L 119.0 143.0 L 123.5 141.0 L 129.0 138.0 L 135.5 135.0 L 142.0 131.5 L 145.5 130.5 L 145.5 131.0 " stroke="black" fill="none" stroke-width="6.0" stroke-linecap="round" stroke-linejoin="round" />
<path d="M 166.0 119.0 L 166.5 118.5 L 166.5 117.5 L 166.5 117.0 L 166.5 117.0 L 166.0 117.5 L 164.5 119.5 L 162.5 122.0 L 161.5 123.5 L 161.0 123.5 " stroke="black" fill="none" stroke-width="6.0" stroke-linecap="round" stroke-linejoin="round" />
<path d="M 154.5 113.0 L 155.0 113.0 L 155.5 113.0 L 155.5 113.0 L 156.0 113.5 L 156.0 114.5 L 156.0 117.5 L 156.0 123.0 L 156.0 128.5 L 156.5 132.0 L 157.0 134.5 L 158.0 135.5 L 160.0 136.0 L 162.0 136.5 L 165.0 136.5 L 169.0 136.5 L 173.5 136.0 L 177.0 134.5 L 179.5 134.0 L 180.0 133.5 L 180.0 133.5 L 179.5 133.5 L 179.0 133.5 L 178.5 133.5 L 178.5 133.0 L 178.0 131.5 L 178.0 130.0 L 177.5 128.5 L 177.5 127.5 L 177.5 127.0 L 177.5 126.5 L 177.5 126.5 " stroke="black" fill="none" stroke-width="6.0" stroke-linecap="round" stroke-linejoin="round" />
<path d="M 146.5 143.5 L 146.5 143.5 L 147.0 143.0 L 147.0 142.5 L 147.5 142.0 L 147.5 142.0 L 147.5 142.0 L 146.5 143.5 L 144.5 146.5 L 142.0 150.5 L 138.0 156.0 L 134.0 161.5 L 132.0 164.0 L 132.0 164.5 L 132.0 164.0 L 133.5 163.5 L 136.0 163.0 L 139.0 162.0 L 142.5 161.0 L 146.0 159.5 L 149.5 158.0 L 151.0 157.5 L 152.0 157.5 " stroke="black" fill="none" stroke-width="6.0" stroke-linecap="round" stroke-linejoin="round" />
<path d="M 155.0 148.5 L 155.0 148.5 L 155.0 148.5 L 155.5 148.5 L 155.5 148.5 L 155.5 148.5 L 155.0 149.0 L 153.0 152.5 L 149.5 158.5 L 144.0 167.0 L 138.5 174.0 L 134.5 177.5 L 133.0 179.0 L 132.0 179.0 L 132.0 179.0 L 132.0 179.0 L 132.0 179.0 L 132.5 178.5 L 134.5 178.0 L 137.5 177.0 L 141.0 176.0 L 145.5 175.0 L 151.5 174.5 L 157.5 174.0 L 162.5 173.5 L 165.0 173.5 L 165.0 173.0 L 165.0 172.5 L 164.5 171.5 " stroke="black" fill="none" stroke-width="6.0" stroke-linecap="round" stroke-linejoin="round" />
<path d="M 163.0 162.0 L 162.5 161.0 L 162.0 160.5 L 162.0 160.0 L 162.0 161.5 L 163.5 166.0 L 166.0 172.5 L 168.5 178.0 L 170.0 180.5 L 170.5 181.0 " stroke="black" fill="none" stroke-width="6.0" stroke-linecap="round" stroke-linejoin="round" />
<path d="M 150.5 186.0 L 150.5 185.5 L 150.5 184.5 L 150.5 184.0 L 150.5 183.5 L 150.5 183.5 L 150.5 183.5 L 150.5 185.0 L 151.0 188.5 L 151.5 193.0 L 152.0 198.0 L 152.0 202.5 L 152.0 204.5 L 151.0 205.0 L 148.5 204.0 L 146.5 203.0 L 145.0 202.0 L 144.5 202.0 " stroke="black" fill="none" stroke-width="6.0" stroke-linecap="round" stroke-linejoin="round" />
<path d="M 136.0 191.5 L 136.0 191.5 L 136.5 191.5 L 136.5 191.5 L 136.5 191.5 L 136.0 191.5 L 134.5 193.0 L 131.5 195.5 L 129.5 198.0 L 129.0 198.5 " stroke="black" fill="none" stroke-width="6.0" stroke-linecap="round" stroke-linejoin="round" />
<path d="M 167.0 191.0 L 166.0 191.0 L 165.5 191.0 L 165.0 190.5 L 165.0 190.5 L 167.0 191.5 L 170.0 193.5 L 173.5 195.5 L 176.5 197.5 L 177.0 198.0 " stroke="black" fill="none" stroke-width="6.0" stroke-linecap="round" stroke-linejoin="round" />
</svg>