<svg xmlns="http://www.w3.org/2000/svg" width="300" height="300" viewBox="0 0 300 300">
<path d="M 123.5 129.5 L 123.5 129.5 L 123.5 129.5 L 124.0 129.5 L 126.0 129.5 L 131.0 129.5 L 135.5 129.0 L 138.0 129.0 L 139.0 128.5 L 139.0 128.0 " stroke="black" fill="none" stroke-width="6.0" stroke-linecap="round" stroke-linejoin="round" />
<path d="M 131.5 118.5 L 131.5 118.0 L 131.5 118.0 L 131.5 118.0 L 131.5 119.5 L 132.0 124.5 L 131.5 133.0 L 130.5 141.5 L 129.5 147.0 L 129.5 149.0 " stroke="black" fill="none" stroke-width="6.0" stroke-linecap="round" stroke-linejoin="round" />
<path d="M 118.0 153.5 L 118.0 154.0 L 118.0 155.0 L 118.5 155.0 L 122.5 154.0 L 130.5 152.0 L 141.0 151.0 L 149.5 150.5 L 155.5 150.0 L 157.5 149.5 L 158.0 148.5 " stroke="black" fill="none" stroke-width="6.0" stroke-linecap="round" stroke-linejoin="round" />
<path d="M 151.5 119.0 L 151.5 119.0 L 151.5 119.0 L 151.5 119.5 L 151.0 123.0 L 147.5 130.5 L 142.0 143.0 L 134.0 155.5 L 128.0 166.5 L 123.5 173.0 L 121.5 176.0 L 121.0 176.0 L 121.0 175.0 " stroke="black" fill="none" stroke-width="6.0" stroke-linecap="round" stroke-linejoin="round" />
<path d="M 132.5 166.0 L 132.5 165.0 L 133.0 163.5 L 133.0 163.0 L 133.0 163.0 L 133.5 165.5 L 134.0 178.0 L 134.0 184.5 L 134.5 187.5 L 134.5 187.5 " stroke="black" fill="none" stroke-width="6.0" stroke-linecap="round" stroke-linejoin="round" />
<path d="M 136.0 164.5 L 136.0 164.5 L 136.0 165.0 L 136.0 165.0 L 138.5 165.0 L 142.5 163.5 L 147.0 162.0 L 151.0 161.0 L 153.0 161.0 L 154.0 161.5 L 154.5 163.0 L 155.0 166.0 L 155.0 170.5 L 155.0 175.5 L 154.5 181.0 L 154.5 185.0 L 154.0 187.0 L 153.5 187.0 " stroke="black" fill="none" stroke-width="6.0" stroke-linecap="round" stroke-linejoin="round" />
<path d="M 139.0 177.0 L 138.5 177.5 L 138.5 178.0 L 139.0 178.0 L 142.0 177.0 L 146.0 176.0 L 149.5 175.0 L 151.5 174.0 " stroke="black" fill="none" stroke-width="6.0" stroke-linecap="round" stroke-linejoin="round" />
<path d="M 139.5 187.0 L 138.5 187.0 L 137.5 187.0 L 138.5 187.5 L 142.0 187.5 L 145.5 185.5 L 148.5 183.0 " stroke="black" fill="none" stroke-width="6.0" stroke-linecap="round" stroke-linejoin="round" />
<path d="M 165.0 119.0 L 165.0 118.5 L 164.5 118.0 L 164.5 117.5 L 166.5 117.5 L 169.5 117.5 L 173.0 118.5 L 175.5 120.0 L 176.5 121.5 L 176.5 123.5 L 175.0 125.0 L 172.5 126.0 L 171.5 127.0 L 171.5 128.0 L 172.5 129.0 L 175.0 130.5 L 178.0 132.5 L 180.5 135.0 L 181.0 138.0 L 181.0 141.5 L 179.0 144.5 L 176.0 147.5 L 173.0 149.0 L 170.5 149.5 L 168.5 148.0 L 168.5 147.5 " stroke="black" fill="none" stroke-width="6.0" stroke-linecap="round" stroke-linejoin="round" />
<path d="M 161.5 123.5 L 162.0 123.5 L 162.5 123.5 L 163.0 124.0 L 163.5 127.5 L 164.5 136.5 L 165.0 151.0 L 166.0 165.0 L 168.0 176.0 L 169.5 184.0 L 170.5 189.0 L 171.0 192.5 L 171.5 193.0 L 171.5 192.5 " stroke="black" fill="none" stroke-width="6.0" stroke-linecap="round" stroke-linejoin="round" />
</svg>