<svg xmlns="http://www.w3.org/2000/svg" width="300" height="300" viewBox="0 0 300 300">
<path d="M 131.0 147.5 L 131.0 147.5 L 131.0 148.0 L 131.5 148.0 L 132.5 148.0 L 136.0 148.5 L 143.0 149.5 L 152.0 150.0 L 160.0 149.5 L 165.5 149.0 L 166.5 149.0 L 165.5 149.0 L 164.0 148.5 L 163.5 148.0 " stroke="black" fill="none" stroke-width="7.0" stroke-linecap="round" stroke-linejoin="round" />
<path d="M 150.0 118.0 L 150.0 117.5 L 150.0 117.0 L 150.0 116.5 L 150.0 116.5 L 150.0 119.0 L 150.0 125.0 L 149.5 136.0 L 148.5 150.5 L 147.5 162.5 L 147.5 169.5 L 147.5 173.0 L 148.0 173.5 L 148.0 173.5 L 148.0 172.5 " stroke="black" fill="none" stroke-width="7.0" stroke-linecap="round" stroke-linejoin="round" />
<path d="M 120.0 175.0 L 120.0 175.0 L 120.0 175.0 L 120.0 175.0 L 121.0 175.0 L 124.5 175.0 L 131.5 175.5 L 143.5 175.5 L 154.0 175.5 L 163.5 174.5 L 169.5 173.5 L 171.5 173.5 L 172.5 174.0 L 172.5 174.5 L 172.5 174.5 L 172.5 174.5 L 172.5 174.5 L 173.0 174.5 L 173.0 174.5 L 173.0 174.5 L 173.0 174.5 L 173.0 174.5 L 173.0 174.5 L 173.0 174.5 " stroke="black" fill="none" stroke-width="7.0" stroke-linecap="round" stroke-linejoin="round" />
</svg>