<svg xmlns="http://www.w3.org/2000/svg" width="300" height="300" viewBox="0 0 300 300">
<path d="M 142.0 115.0 L 141.5 115.5 L 141.0 116.0 L 142.5 116.0 L 149.5 115.5 L 161.5 113.0 L 171.0 111.5 L 175.0 111.5 L 175.5 112.5 L 174.5 113.0 " stroke="black" fill="none" stroke-width="6.0" stroke-linecap="round" stroke-linejoin="round" />
<path d="M 144.5 126.5 L 144.0 126.5 L 143.0 126.5 L 143.0 127.5 L 143.5 131.0 L 145.0 136.5 L 146.5 141.5 L 147.5 145.0 L 147.5 145.5 " stroke="black" fill="none" stroke-width="6.0" stroke-linecap="round" stroke-linejoin="round" />
<path d="M 148.0 130.0 L 146.5 129.5 L 146.0 128.5 L 147.5 128.0 L 152.0 127.5 L 158.5 127.0 L 166.5 126.5 L 174.0 126.0 L 178.5 125.5 L 179.0 125.5 L 179.0 126.5 L 179.0 127.5 L 178.5 130.0 L 177.5 133.5 L 176.5 137.5 L 175.5 141.5 L 175.0 144.5 L 175.0 145.0 " stroke="black" fill="none" stroke-width="6.0" stroke-linecap="round" stroke-linejoin="round" />
<path d="M 153.5 138.5 L 153.5 138.5 L 152.5 139.5 L 152.5 139.5 L 154.0 138.5 L 158.5 137.5 L 164.0 137.0 L 169.0 137.0 L 172.0 138.0 L 173.0 138.5 " stroke="black" fill="none" stroke-width="6.0" stroke-linecap="round" stroke-linejoin="round" />
<path d="M 154.5 147.0 L 154.5 147.0 L 154.5 147.0 L 154.5 147.0 L 156.0 146.5 L 160.0 146.0 L 166.0 146.0 L 171.5 146.0 L 175.0 146.5 L 175.5 147.0 " stroke="black" fill="none" stroke-width="6.0" stroke-linecap="round" stroke-linejoin="round" />
<path d="M 151.5 159.0 L 151.5 159.5 L 150.5 160.0 L 150.5 160.5 L 151.5 160.0 L 156.5 160.0 L 163.5 160.0 L 171.5 159.5 L 177.5 158.5 L 179.0 157.5 " stroke="black" fill="none" stroke-width="6.0" stroke-linecap="round" stroke-linejoin="round" />
<path d="M 165.0 105.0 L 163.5 105.5 L 162.5 106.5 L 162.5 109.5 L 162.5 118.0 L 163.0 133.5 L 163.5 151.0 L 164.0 166.5 L 164.0 178.5 L 165.0 185.5 L 165.5 187.5 L 165.5 186.0 L 165.0 181.0 " stroke="black" fill="none" stroke-width="6.0" stroke-linecap="round" stroke-linejoin="round" />
<path d="M 122.0 115.5 L 121.5 115.5 L 121.0 115.5 L 121.5 115.5 L 124.5 117.5 L 127.5 120.5 L 130.0 124.0 L 130.0 124.5 " stroke="black" fill="none" stroke-width="6.0" stroke-linecap="round" stroke-linejoin="round" />
<path d="M 127.0 133.5 L 125.0 134.5 L 125.0 135.5 L 128.0 137.0 L 131.5 139.5 L 133.5 142.0 L 133.5 145.5 L 131.0 150.0 L 128.0 152.5 L 127.0 154.5 L 128.5 156.0 L 132.5 159.0 L 135.5 163.5 L 136.5 170.0 L 133.5 176.0 L 128.5 181.0 L 124.0 183.5 L 122.0 183.5 L 121.0 183.5 L 120.0 184.0 L 119.0 185.5 L 118.5 186.0 L 118.5 186.0 L 120.5 186.0 L 124.5 185.0 L 129.5 185.0 L 137.5 185.5 L 149.0 186.5 L 163.5 187.5 L 176.0 188.5 L 186.5 189.0 L 193.5 189.5 L 197.5 189.5 L 200.0 188.5 " stroke="black" fill="none" stroke-width="6.0" stroke-linecap="round" stroke-linejoin="round" />
</svg>