<svg xmlns="http://www.w3.org/2000/svg" width="300" height="300" viewBox="0 0 300 300">
<path d="M 124.0 112.5 L 123.0 113.0 L 122.0 113.0 L 121.5 113.0 L 121.5 113.0 L 121.5 113.0 L 123.0 113.0 L 125.5 112.5 L 128.0 112.0 L 131.0 111.0 L 133.5 109.5 L 135.5 109.0 L 137.0 108.5 L 137.5 108.5 L 137.5 108.5 L 137.5 108.5 L 137.5 109.0 L 137.5 110.0 L 137.5 111.5 L 137.0 114.0 L 136.5 117.0 L 136.5 121.5 L 136.0 126.5 L 136.0 131.0 L 136.0 135.0 L 135.5 138.0 L 135.0 141.0 L 134.5 142.5 L 134.0 143.5 L 133.5 144.0 L 133.0 144.0 L 132.0 144.0 L 130.5 143.5 L 129.5 143.0 L 129.0 142.5 " stroke="black" fill="none" stroke-width="6.0" stroke-linecap="round" stroke-linejoin="round" />
<path d="M 123.0 121.0 L 122.0 120.5 L 121.5 120.5 L 121.5 120.5 L 122.0 121.0 L 123.0 122.0 L 124.5 122.5 L 125.5 123.5 L 126.0 124.0 " stroke="black" fill="none" stroke-width="6.0" stroke-linecap="round" stroke-linejoin="round" />
<path d="M 118.5 138.0 L 118.5 138.0 L 118.5 138.0 L 119.0 138.0 L 120.0 137.0 L 122.0 136.0 L 124.5 134.0 L 125.5 133.0 " stroke="black" fill="none" stroke-width="6.0" stroke-linecap="round" stroke-linejoin="round" />
<path d="M 150.5 109.5 L 150.0 110.0 L 149.5 110.5 L 149.0 110.5 L 150.5 110.5 L 153.0 109.5 L 155.5 108.5 L 160.5 107.5 L 162.0 107.5 L 163.5 108.5 L 164.5 110.5 L 164.5 114.5 L 164.5 119.5 L 164.5 125.0 L 164.0 130.5 L 163.0 136.0 L 162.5 141.0 L 161.5 144.5 L 160.0 147.0 L 158.5 148.5 L 157.0 149.0 L 155.5 149.0 L 154.5 148.5 L 154.0 146.5 L 153.0 144.0 L 153.0 142.5 " stroke="black" fill="none" stroke-width="6.0" stroke-linecap="round" stroke-linejoin="round" />
<path d="M 149.0 120.5 L 149.0 120.5 L 148.5 120.5 L 148.0 120.5 L 148.0 120.5 L 148.0 120.5 L 149.0 121.0 L 150.5 122.0 L 151.5 122.5 L 152.0 123.0 " stroke="black" fill="none" stroke-width="6.0" stroke-linecap="round" stroke-linejoin="round" />
<path d="M 146.5 134.0 L 146.0 135.0 L 146.0 135.5 L 146.0 135.5 L 147.5 134.5 L 149.5 133.0 L 152.0 131.5 L 154.0 130.5 L 154.5 130.0 " stroke="black" fill="none" stroke-width="6.0" stroke-linecap="round" stroke-linejoin="round" />
<path d="M 141.0 147.5 L 140.5 147.5 L 140.5 147.5 L 140.0 147.5 L 140.0 148.0 L 140.0 148.0 L 139.5 149.5 L 138.5 152.0 L 137.5 154.5 L 137.0 157.0 L 137.0 157.0 " stroke="black" fill="none" stroke-width="6.0" stroke-linecap="round" stroke-linejoin="round" />
<path d="M 123.5 163.0 L 123.0 162.0 L 122.5 161.0 L 122.5 160.5 L 122.5 161.0 L 122.5 164.0 L 123.0 169.5 L 123.5 176.5 L 123.5 185.0 L 123.5 190.5 L 123.5 192.0 L 123.5 191.5 " stroke="black" fill="none" stroke-width="6.0" stroke-linecap="round" stroke-linejoin="round" />
<path d="M 126.5 163.5 L 125.5 163.0 L 124.5 162.5 L 123.5 162.5 L 123.5 162.0 L 123.5 162.0 L 123.5 162.0 L 124.5 162.0 L 126.0 162.5 L 128.5 163.0 L 132.0 163.5 L 136.5 163.5 L 142.0 163.5 L 147.0 163.0 L 150.0 163.0 L 152.0 163.0 L 153.0 163.5 L 153.5 164.0 L 153.5 164.0 L 154.0 164.0 L 154.5 164.0 L 155.0 164.0 L 155.0 164.0 L 155.5 164.0 L 156.0 164.0 L 156.5 164.0 L 157.0 164.0 L 157.0 164.0 L 157.5 164.0 L 158.0 164.0 L 158.5 164.0 L 158.5 164.0 L 158.5 164.0 L 158.5 164.0 L 158.5 164.0 L 158.5 164.5 L 158.5 165.0 L 158.5 166.0 L 158.0 167.0 L 157.5 169.0 L 157.0 171.5 L 156.5 174.0 L 156.0 177.0 L 156.0 179.5 L 155.5 182.0 L 155.5 184.5 L 155.5 186.5 L 155.5 187.0 L 155.5 188.0 L 155.5 188.5 L 155.5 189.0 L 155.5 189.5 L 155.5 189.5 " stroke="black" fill="none" stroke-width="6.0" stroke-linecap="round" stroke-linejoin="round" />
<path d="M 125.5 179.0 L 124.5 179.5 L 124.0 179.5 L 123.5 179.5 L 123.5 179.5 L 124.0 179.5 L 126.0 179.5 L 128.5 179.5 L 131.5 179.5 L 136.0 179.5 L 141.0 179.5 L 146.5 179.0 L 151.0 178.5 L 153.0 178.5 L 154.0 178.5 L 153.5 179.0 L 152.5 179.0 " stroke="black" fill="none" stroke-width="6.0" stroke-linecap="round" stroke-linejoin="round" />
<path d="M 124.5 193.5 L 124.5 194.0 L 123.5 194.5 L 123.5 195.0 L 123.0 195.0 L 124.0 195.0 L 126.5 195.0 L 130.0 195.0 L 135.5 195.0 L 142.5 194.0 L 149.5 193.5 L 154.5 192.5 L 157.0 192.0 L 158.0 192.0 L 157.5 192.0 " stroke="black" fill="none" stroke-width="6.0" stroke-linecap="round" stroke-linejoin="round" />
</svg>