<svg xmlns="http://www.w3.org/2000/svg" width="300" height="300" viewBox="0 0 300 300">
<path d="M 127.5 108.0 L 127.5 108.5 L 127.5 109.0 L 127.5 109.5 L 128.5 110.5 L 130.5 112.0 L 132.5 114.0 L 134.5 115.5 L 135.5 116.0 " stroke="black" fill="none" stroke-width="6.0" stroke-linecap="round" stroke-linejoin="round" />
<path d="M 120.0 125.5 L 119.5 125.5 L 119.0 125.5 L 118.5 125.5 L 119.5 125.5 L 123.5 125.5 L 129.5 125.0 L 135.5 124.5 L 140.5 124.0 L 142.5 124.0 L 143.5 124.0 L 143.5 124.0 L 143.0 124.5 " stroke="black" fill="none" stroke-width="6.0" stroke-linecap="round" stroke-linejoin="round" />
<path d="M 128.0 129.0 L 128.5 128.0 L 129.0 127.5 L 129.0 127.5 L 129.0 127.5 L 129.0 127.5 L 129.0 129.0 L 129.0 132.0 L 129.0 135.5 L 128.5 139.5 L 128.0 143.0 L 128.0 145.0 L 128.0 146.0 L 128.5 146.0 L 129.0 146.0 L 130.0 145.5 L 131.0 145.0 L 133.0 144.5 L 135.5 144.0 L 138.0 143.5 L 140.5 143.0 L 143.0 142.5 L 145.0 142.0 L 146.5 142.0 L 147.0 142.0 L 147.0 142.0 L 147.0 142.0 L 146.5 142.0 L 146.0 142.0 " stroke="black" fill="none" stroke-width="6.0" stroke-linecap="round" stroke-linejoin="round" />
<path d="M 161.5 104.5 L 161.5 104.5 L 161.0 103.5 L 161.0 103.5 L 161.0 103.5 L 161.0 103.5 L 160.5 105.0 L 159.0 108.5 L 157.0 112.5 L 155.0 116.5 L 154.5 118.5 L 154.5 118.5 " stroke="black" fill="none" stroke-width="6.0" stroke-linecap="round" stroke-linejoin="round" />
<path d="M 161.5 109.5 L 161.0 109.5 L 160.5 110.0 L 160.5 110.0 L 162.5 110.0 L 164.5 110.0 L 167.0 110.0 L 169.5 110.0 L 171.5 110.5 L 173.0 111.0 L 174.0 112.0 L 174.5 112.5 L 174.5 114.0 L 174.0 115.5 L 173.0 118.5 L 171.0 123.0 L 169.0 128.0 L 166.0 133.5 L 163.0 139.0 L 160.5 142.5 L 158.5 144.5 L 158.0 145.5 L 157.5 145.5 L 158.5 144.5 L 158.5 144.0 " stroke="black" fill="none" stroke-width="6.0" stroke-linecap="round" stroke-linejoin="round" />
<path d="M 163.0 120.5 L 161.5 120.0 L 161.0 120.0 L 161.0 120.0 L 161.0 120.0 L 163.0 121.0 L 164.5 121.5 L 166.0 122.5 L 167.0 123.0 " stroke="black" fill="none" stroke-width="6.0" stroke-linecap="round" stroke-linejoin="round" />
<path d="M 157.0 130.0 L 156.5 130.0 L 156.0 130.0 L 155.5 130.5 L 156.0 130.5 L 158.0 130.5 L 161.5 130.5 L 164.5 130.5 L 166.5 131.0 L 167.0 131.0 " stroke="black" fill="none" stroke-width="6.0" stroke-linecap="round" stroke-linejoin="round" />
<path d="M 131.0 160.0 L 131.5 160.0 L 132.0 160.0 L 132.0 160.0 L 133.0 160.0 L 135.5 159.0 L 141.0 158.5 L 149.5 157.5 L 158.5 155.5 L 165.0 154.0 L 167.5 153.0 L 168.0 152.5 L 168.0 152.5 L 167.5 152.5 L 167.0 152.5 L 167.0 152.5 " stroke="black" fill="none" stroke-width="6.0" stroke-linecap="round" stroke-linejoin="round" />
<path d="M 140.5 170.5 L 140.0 170.5 L 139.5 170.5 L 139.5 170.5 L 141.5 170.0 L 145.5 169.5 L 150.5 168.5 L 154.5 167.5 L 157.5 167.0 L 159.0 167.0 L 159.5 167.0 L 160.0 167.0 " stroke="black" fill="none" stroke-width="6.0" stroke-linecap="round" stroke-linejoin="round" />
<path d="M 151.5 157.0 L 151.5 157.0 L 151.5 157.5 L 151.5 158.0 L 151.5 159.0 L 151.5 161.5 L 151.5 166.0 L 151.5 172.5 L 151.5 177.5 L 151.5 180.5 L 151.5 180.5 L 151.5 180.5 " stroke="black" fill="none" stroke-width="6.0" stroke-linecap="round" stroke-linejoin="round" />
<path d="M 130.0 184.0 L 130.0 184.0 L 130.0 184.0 L 130.0 184.0 L 130.0 183.5 L 130.0 183.5 L 130.0 183.5 L 130.5 183.5 L 132.0 183.5 L 135.5 183.0 L 141.0 182.5 L 148.0 181.5 L 154.5 181.0 L 160.0 180.5 L 163.5 180.0 L 166.0 180.0 L 167.5 180.0 L 168.5 180.0 L 169.0 180.0 L 169.0 180.5 L 169.5 180.5 L 169.5 180.5 L 170.0 180.5 L 170.0 180.5 L 170.0 180.5 L 170.5 180.5 L 171.0 181.0 L 171.5 181.0 L 172.5 181.0 L 172.5 181.0 L 173.0 181.0 L 173.5 181.0 L 174.0 181.0 L 174.5 181.0 L 174.5 181.0 L 174.5 181.0 L 174.5 181.0 " stroke="black" fill="none" stroke-width="6.0" stroke-linecap="round" stroke-linejoin="round" />
</svg>