<svg xmlns="http://www.w3.org/2000/svg" width="300" height="300" viewBox="0 0 300 300">
<path d="M 132.5 109.5 L 133.0 109.5 L 133.5 109.5 L 133.5 109.5 L 133.5 110.0 L 133.5 111.0 L 133.0 113.0 L 132.0 116.0 L 130.0 118.5 L 129.0 120.0 " stroke="black" fill="none" stroke-width="6.0" stroke-linecap="round" stroke-linejoin="round" />
<path d="M 121.5 124.5 L 121.5 124.0 L 121.5 123.0 L 121.5 123.0 L 121.5 124.5 L 121.5 129.5 L 122.0 138.5 L 122.0 148.5 L 122.0 155.5 L 122.5 158.0 L 122.5 158.0 L 123.0 155.0 L 123.0 154.0 " stroke="black" fill="none" stroke-width="6.0" stroke-linecap="round" stroke-linejoin="round" />
<path d="M 125.5 122.5 L 124.0 122.5 L 123.0 122.5 L 123.0 122.5 L 123.0 122.5 L 125.5 123.0 L 128.5 123.5 L 132.0 124.0 L 135.5 124.0 L 138.5 124.0 L 140.0 124.0 L 140.5 124.0 L 141.0 124.5 L 141.0 125.0 L 141.0 126.5 L 140.5 129.0 L 140.0 134.0 L 140.0 141.0 L 139.5 149.5 L 139.5 158.0 L 140.0 166.0 L 140.5 172.5 L 140.5 178.0 L 141.0 183.0 L 141.0 187.5 L 141.0 190.0 L 138.5 188.5 L 136.5 186.0 L 134.5 183.5 " stroke="black" fill="none" stroke-width="6.0" stroke-linecap="round" stroke-linejoin="round" />
<path d="M 122.5 135.5 L 122.0 136.0 L 121.5 136.0 L 121.0 136.5 L 122.5 136.5 L 125.5 135.5 L 129.0 134.5 L 132.5 134.0 L 134.5 134.0 L 136.0 134.0 L 136.5 134.0 " stroke="black" fill="none" stroke-width="6.0" stroke-linecap="round" stroke-linejoin="round" />
<path d="M 126.0 149.5 L 125.0 149.5 L 124.5 149.5 L 124.5 149.5 L 125.5 149.0 L 128.5 148.5 L 131.5 148.0 L 134.0 148.0 L 136.0 148.0 " stroke="black" fill="none" stroke-width="6.0" stroke-linecap="round" stroke-linejoin="round" />
<path d="M 114.0 165.0 L 114.0 165.0 L 114.5 165.0 L 115.0 165.0 L 115.0 165.0 L 116.0 165.0 L 118.5 164.5 L 122.0 163.5 L 127.0 163.0 L 131.5 162.5 L 135.0 161.5 L 137.5 159.5 " stroke="black" fill="none" stroke-width="6.0" stroke-linecap="round" stroke-linejoin="round" />
<path d="M 147.5 137.5 L 147.5 137.5 L 147.5 138.0 L 147.5 138.5 L 147.5 139.0 L 147.0 141.5 L 144.5 147.5 L 140.5 156.5 L 134.5 165.5 L 128.0 174.0 L 121.5 180.0 L 118.0 183.5 L 117.0 184.5 L 117.5 184.5 " stroke="black" fill="none" stroke-width="6.0" stroke-linecap="round" stroke-linejoin="round" />
<path d="M 154.0 120.5 L 154.0 120.5 L 154.0 120.0 L 154.5 120.0 L 154.5 120.0 L 155.5 120.0 L 158.0 120.0 L 163.5 120.0 L 170.5 120.5 L 176.0 121.0 L 179.0 121.5 L 180.0 121.5 L 180.0 121.5 L 179.5 121.0 L 179.0 121.5 L 179.0 122.0 " stroke="black" fill="none" stroke-width="6.0" stroke-linecap="round" stroke-linejoin="round" />
<path d="M 164.5 131.0 L 164.5 131.0 L 164.5 131.0 L 165.0 131.0 L 165.0 131.0 L 165.0 133.0 L 165.0 137.0 L 165.0 141.5 L 165.5 144.0 L 165.5 144.5 " stroke="black" fill="none" stroke-width="6.0" stroke-linecap="round" stroke-linejoin="round" />
<path d="M 165.0 132.0 L 164.5 132.5 L 164.0 132.5 L 164.0 132.0 L 165.5 131.5 L 167.5 130.5 L 170.0 130.5 L 172.0 130.5 L 173.5 131.5 L 174.5 132.5 L 175.0 135.0 L 175.0 137.5 L 174.0 140.5 L 173.0 142.5 L 172.0 144.0 L 172.0 145.0 " stroke="black" fill="none" stroke-width="6.0" stroke-linecap="round" stroke-linejoin="round" />
<path d="M 167.5 148.0 L 167.0 148.0 L 166.5 148.0 L 166.5 147.5 L 167.5 147.0 L 169.5 147.0 L 171.0 146.5 " stroke="black" fill="none" stroke-width="6.0" stroke-linecap="round" stroke-linejoin="round" />
<path d="M 161.0 158.0 L 161.0 158.0 L 161.5 157.5 L 161.5 157.5 L 161.5 158.0 L 161.5 161.0 L 161.5 165.0 L 161.0 169.0 L 161.0 171.0 L 161.0 171.0 " stroke="black" fill="none" stroke-width="6.0" stroke-linecap="round" stroke-linejoin="round" />
<path d="M 160.5 158.5 L 160.5 158.0 L 160.5 157.0 L 160.5 157.0 L 161.5 156.5 L 163.5 156.0 L 166.0 156.0 L 168.0 157.0 L 169.0 158.5 L 169.0 160.5 L 169.0 163.0 L 168.0 165.5 L 166.0 168.0 L 164.5 170.0 L 164.0 170.0 " stroke="black" fill="none" stroke-width="6.0" stroke-linecap="round" stroke-linejoin="round" />
<path d="M 162.0 168.0 L 162.0 168.0 L 162.0 168.0 L 162.0 168.0 L 162.0 168.0 L 162.0 168.0 L 162.5 168.0 L 164.0 168.0 " stroke="black" fill="none" stroke-width="6.0" stroke-linecap="round" stroke-linejoin="round" />
<path d="M 174.5 157.0 L 174.5 157.0 L 174.5 157.5 L 174.5 157.5 L 175.0 158.5 L 175.0 160.5 L 175.0 164.0 L 175.0 168.0 L 175.0 170.5 L 175.0 170.5 L 175.0 167.5 L 175.0 163.5 L 175.0 161.0 L 175.0 159.0 L 175.5 158.0 L 176.5 157.5 L 178.0 157.0 L 180.0 157.0 L 181.5 157.0 L 182.5 157.0 L 184.0 158.0 L 184.5 159.5 L 185.0 161.5 L 185.0 164.0 L 185.0 166.0 L 184.0 168.5 L 183.0 170.0 L 182.5 170.5 " stroke="black" fill="none" stroke-width="6.0" stroke-linecap="round" stroke-linejoin="round" />
<path d="M 177.0 171.0 L 177.0 171.0 L 176.5 171.5 L 176.5 171.5 L 176.5 171.5 L 178.0 171.5 L 180.0 171.0 L 181.5 170.5 " stroke="black" fill="none" stroke-width="6.0" stroke-linecap="round" stroke-linejoin="round" />
<path d="M 156.5 125.0 L 157.0 124.5 L 157.0 123.5 L 157.0 123.0 L 157.0 123.0 L 157.0 123.5 L 157.0 126.0 L 156.5 129.5 L 156.0 134.0 L 156.0 139.0 L 155.5 145.0 L 155.5 151.5 L 155.5 157.0 L 155.5 161.5 L 155.0 165.0 L 155.0 168.0 L 154.5 171.0 L 154.5 174.5 L 154.5 177.5 L 154.5 179.5 L 154.5 181.0 L 154.5 183.0 L 155.0 184.5 L 155.0 186.0 L 155.5 187.0 L 156.5 187.5 L 158.0 188.0 L 159.5 188.0 L 162.5 188.5 L 166.5 188.5 L 171.0 189.0 L 176.0 189.0 L 181.0 188.0 L 185.0 187.0 L 187.0 186.5 L 188.0 186.5 L 188.0 186.5 L 188.0 186.5 L 188.0 187.5 " stroke="black" fill="none" stroke-width="6.0" stroke-linecap="round" stroke-linejoin="round" />
</svg>