<svg xmlns="http://www.w3.org/2000/svg" width="300" height="300" viewBox="0 0 300 300">
<path d="M 131.0 134.5 L 131.0 134.5 L 131.0 134.5 L 131.0 135.0 L 132.0 135.0 L 136.5 135.0 L 146.0 134.5 L 156.5 133.0 L 162.5 132.0 L 164.5 132.0 L 164.0 132.0 L 163.0 132.0 L 163.0 132.0 L 163.0 132.0 L 163.0 132.0 L 163.0 133.0 L 163.0 133.5 L 163.0 135.0 L 163.0 137.0 L 163.0 141.5 L 163.0 148.0 L 163.5 157.0 L 165.5 166.0 L 169.5 172.5 L 174.5 176.5 L 180.0 177.5 L 184.5 176.0 L 187.5 172.5 L 188.0 168.0 L 187.5 164.0 L 185.5 161.0 L 185.0 160.5 " stroke="black" fill="none" stroke-width="6.0" stroke-linecap="round" stroke-linejoin="round" />
<path d="M 146.0 121.0 L 145.5 120.5 L 145.0 120.5 L 145.0 120.5 L 145.0 127.0 L 145.0 137.5 L 145.0 149.5 L 144.5 160.0 L 142.0 168.0 L 139.0 173.0 L 136.5 176.0 L 134.5 178.5 L 133.5 179.0 " stroke="black" fill="none" stroke-width="6.0" stroke-linecap="round" stroke-linejoin="round" />
</svg>