<svg xmlns="http://www.w3.org/2000/svg" width="300" height="300" viewBox="0 0 300 300">
<path d="M 133.0 114.0 L 134.0 114.0 L 134.5 114.5 L 134.5 114.5 L 135.0 114.5 L 137.0 114.5 L 142.0 114.0 L 150.5 112.5 L 159.0 110.5 L 166.0 110.0 L 169.5 110.5 L 170.0 111.5 L 169.5 112.0 L 169.0 112.0 L 169.0 112.0 L 169.0 112.5 L 169.0 113.0 L 169.0 115.0 L 169.0 119.0 L 168.5 125.5 L 166.5 132.0 L 165.0 136.5 L 165.0 138.0 L 165.5 136.0 " stroke="black" fill="none" stroke-width="7.0" stroke-linecap="round" stroke-linejoin="round" />
<path d="M 128.5 128.0 L 128.5 128.0 L 128.5 128.0 L 128.5 128.5 L 128.5 128.5 L 130.5 128.5 L 137.0 128.5 L 149.5 128.0 L 165.0 126.5 L 177.0 125.0 L 179.5 124.5 L 177.0 125.0 L 176.0 125.5 " stroke="black" fill="none" stroke-width="7.0" stroke-linecap="round" stroke-linejoin="round" />
<path d="M 133.0 145.0 L 134.0 145.0 L 135.0 145.0 L 136.0 144.5 L 139.5 144.0 L 148.0 142.5 L 157.5 141.5 L 165.0 141.0 L 167.5 141.5 " stroke="black" fill="none" stroke-width="7.0" stroke-linecap="round" stroke-linejoin="round" />
<path d="M 141.5 118.0 L 141.5 118.0 L 141.5 118.0 L 141.5 118.5 L 141.5 119.0 L 141.5 121.0 L 141.0 128.5 L 138.5 144.0 L 134.0 160.0 L 130.0 172.0 L 127.0 179.5 L 126.0 181.0 L 125.5 180.0 L 125.5 178.5 " stroke="black" fill="none" stroke-width="7.0" stroke-linecap="round" stroke-linejoin="round" />
<path d="M 136.5 159.0 L 136.5 158.0 L 136.5 157.5 L 136.5 157.0 L 136.5 158.0 L 137.0 163.0 L 138.0 169.0 L 139.5 173.5 L 140.5 175.0 L 140.5 174.5 " stroke="black" fill="none" stroke-width="7.0" stroke-linecap="round" stroke-linejoin="round" />
<path d="M 140.0 161.5 L 139.5 161.5 L 138.0 161.0 L 137.5 160.5 L 137.5 160.5 L 140.5 160.0 L 146.0 158.5 L 152.0 158.0 L 159.0 157.5 L 165.0 157.5 L 167.5 157.5 L 168.0 158.0 L 167.5 158.0 L 166.5 159.0 L 165.0 162.0 L 163.5 166.5 L 162.0 171.5 L 161.0 176.5 L 160.5 179.5 L 160.5 179.5 L 160.5 178.5 " stroke="black" fill="none" stroke-width="7.0" stroke-linecap="round" stroke-linejoin="round" />
<path d="M 145.5 184.0 L 145.0 184.0 L 144.5 184.0 L 144.5 184.0 L 146.0 183.5 L 150.0 183.0 L 156.0 182.5 L 163.0 182.0 L 165.0 182.0 " stroke="black" fill="none" stroke-width="7.0" stroke-linecap="round" stroke-linejoin="round" />
</svg>