<svg xmlns="http://www.w3.org/2000/svg" width="300" height="300" viewBox="0 0 300 300">
<path d="M 128.0 117.5 L 128.0 117.5 L 128.0 118.0 L 128.0 118.0 L 128.0 118.0 L 128.0 118.0 L 130.0 118.0 L 134.5 117.5 L 141.5 116.5 L 150.0 115.5 L 157.5 115.0 L 162.5 114.5 L 165.5 114.5 L 166.5 114.5 L 167.0 114.5 L 167.0 114.5 L 167.0 114.5 L 167.0 114.5 L 167.0 114.5 L 167.0 115.0 L 167.5 115.0 L 167.5 115.0 L 168.0 115.0 L 168.5 115.5 L 169.0 116.0 L 169.0 116.5 L 169.0 117.0 L 169.0 119.0 L 168.5 122.5 L 168.0 128.0 L 167.0 134.0 L 166.0 138.0 L 165.5 140.0 L 165.5 140.0 L 165.0 139.5 L 165.0 138.0 " stroke="black" fill="none" stroke-width="6.0" stroke-linecap="round" stroke-linejoin="round" />
<path d="M 127.5 132.5 L 127.5 132.5 L 127.5 132.5 L 127.5 132.5 L 127.5 132.5 L 130.0 132.5 L 136.5 131.0 L 148.0 129.0 L 160.5 126.5 L 169.0 125.5 L 172.0 125.5 L 172.5 125.5 L 172.0 125.5 L 171.5 125.5 L 171.5 125.5 L 171.5 125.5 L 171.0 125.5 " stroke="black" fill="none" stroke-width="6.0" stroke-linecap="round" stroke-linejoin="round" />
<path d="M 127.5 147.0 L 127.5 147.0 L 128.0 147.0 L 130.5 147.0 L 138.0 146.0 L 149.0 144.5 L 158.5 143.5 L 164.5 142.0 L 166.5 141.5 L 166.5 141.5 " stroke="black" fill="none" stroke-width="6.0" stroke-linecap="round" stroke-linejoin="round" />
<path d="M 144.5 120.5 L 144.0 120.5 L 143.5 120.5 L 143.5 120.5 L 143.5 122.5 L 143.5 127.0 L 144.0 135.0 L 143.0 146.0 L 140.0 157.5 L 136.0 166.5 L 131.5 173.5 L 128.0 178.0 L 126.0 180.5 L 125.0 181.0 L 125.0 179.5 " stroke="black" fill="none" stroke-width="6.0" stroke-linecap="round" stroke-linejoin="round" />
<path d="M 144.0 158.0 L 144.0 158.0 L 144.0 158.5 L 143.5 158.5 L 143.5 160.0 L 145.0 164.0 L 146.0 171.5 L 147.0 178.0 L 147.0 180.0 L 147.0 179.0 " stroke="black" fill="none" stroke-width="6.0" stroke-linecap="round" stroke-linejoin="round" />
<path d="M 146.0 157.0 L 144.0 158.0 L 143.5 158.5 L 144.0 158.5 L 146.5 158.5 L 149.5 158.0 L 153.5 157.5 L 157.5 156.0 L 162.5 155.0 L 166.5 154.0 L 169.0 154.0 L 169.0 154.0 L 169.0 155.0 L 168.5 156.0 L 168.0 158.5 L 167.5 161.5 L 167.5 166.0 L 167.5 169.5 L 167.5 172.0 L 167.5 173.0 L 167.5 173.0 " stroke="black" fill="none" stroke-width="6.0" stroke-linecap="round" stroke-linejoin="round" />
<path d="M 149.0 178.0 L 149.0 178.5 L 148.0 180.0 L 148.0 180.5 L 150.0 180.5 L 153.0 180.5 L 157.0 179.5 L 161.5 178.0 L 166.0 177.0 L 168.5 176.5 " stroke="black" fill="none" stroke-width="6.0" stroke-linecap="round" stroke-linejoin="round" />
</svg>