<svg xmlns="http://www.w3.org/2000/svg" width="300" height="300" viewBox="0 0 300 300">
<path d="M 145.5 119.5 L 145.5 118.0 L 145.5 117.0 L 145.5 116.0 L 146.5 115.5 L 147.0 115.5 L 147.0 116.0 L 147.0 119.5 L 144.0 126.0 L 138.0 134.5 L 130.5 143.5 L 126.0 148.5 L 124.5 150.0 L 124.5 150.0 L 126.0 148.5 L 130.5 145.5 " stroke="black" fill="none" stroke-width="6.0" stroke-linecap="round" stroke-linejoin="round" />
<path d="M 144.5 127.5 L 144.0 127.5 L 143.5 128.0 L 143.5 128.0 L 145.0 128.0 L 148.5 128.0 L 153.0 127.5 L 158.5 127.0 L 163.0 127.0 L 165.0 127.5 L 166.0 128.5 L 166.5 130.0 L 166.0 131.5 L 165.5 134.0 L 163.5 137.5 L 161.0 143.0 L 157.0 149.5 L 152.5 157.5 L 147.0 165.5 L 141.5 172.5 L 136.5 177.0 L 134.0 179.0 L 133.5 179.5 L 133.5 178.0 L 134.0 177.0 " stroke="black" fill="none" stroke-width="6.0" stroke-linecap="round" stroke-linejoin="round" />
<path d="M 140.5 144.5 L 139.0 144.0 L 139.0 143.5 L 139.5 143.5 L 142.5 145.0 L 146.0 146.5 L 149.5 147.5 L 151.0 148.0 " stroke="black" fill="none" stroke-width="6.0" stroke-linecap="round" stroke-linejoin="round" />
</svg>