<svg xmlns="http://www.w3.org/2000/svg" width="300" height="300" viewBox="0 0 300 300">
<path d="M 147.5 130.0 L 147.5 130.0 L 148.0 130.0 L 148.0 129.5 L 147.0 129.5 L 146.5 129.5 L 146.0 131.5 L 146.0 133.5 L 146.0 135.0 L 147.5 135.5 L 149.0 135.5 L 150.5 134.0 L 151.0 132.0 L 151.0 130.5 L 150.0 130.0 L 149.0 130.0 L 147.5 130.5 L 147.0 132.0 L 147.0 132.5 L 147.5 133.5 L 148.5 133.5 L 150.0 133.0 L 150.5 132.0 L 151.0 131.5 L 151.0 130.5 L 150.5 130.5 " stroke="black" fill="none" stroke-width="6.0" stroke-linecap="round" stroke-linejoin="round" />
<path d="M 148.0 169.0 L 148.5 168.0 L 148.5 167.0 L 148.5 166.0 L 148.5 166.0 L 148.0 166.0 L 147.0 166.0 L 146.0 167.5 L 146.0 169.5 L 146.0 170.5 L 147.0 171.5 L 148.5 171.5 L 150.0 170.0 L 151.0 167.5 L 151.0 165.0 L 149.5 163.5 L 147.5 163.0 L 146.0 164.5 L 145.0 167.0 L 145.0 169.0 L 146.0 170.5 L 148.0 171.0 L 150.0 170.0 L 151.5 168.0 L 152.0 166.0 L 152.0 164.5 L 151.5 164.0 L 150.0 164.0 L 149.5 164.5 L 149.0 164.5 " stroke="black" fill="none" stroke-width="6.0" stroke-linecap="round" stroke-linejoin="round" />
</svg>