<svg xmlns="http://www.w3.org/2000/svg" width="300" height="300" viewBox="0 0 300 300">
<path d="M 140.5 109.5 L 140.0 109.5 L 139.0 109.5 L 138.5 109.5 L 138.5 109.5 L 139.0 111.5 L 139.5 117.5 L 140.0 130.0 L 140.0 144.0 L 140.0 152.0 L 141.0 153.0 L 141.5 151.5 " stroke="black" fill="none" stroke-width="6.0" stroke-linecap="round" stroke-linejoin="round" />
<path d="M 143.0 106.5 L 142.0 106.5 L 141.0 106.0 L 141.0 106.0 L 141.0 106.0 L 143.0 106.0 L 146.0 106.0 L 150.5 106.0 L 156.5 105.5 L 162.5 105.0 L 166.5 104.5 L 167.5 104.5 L 167.5 104.5 L 167.0 105.5 L 166.5 107.5 L 166.0 112.5 L 165.5 120.0 L 165.0 130.0 L 164.5 139.5 L 165.0 146.5 L 165.0 151.5 L 165.5 153.0 L 165.5 153.0 L 165.5 151.5 L 165.5 149.5 " stroke="black" fill="none" stroke-width="6.0" stroke-linecap="round" stroke-linejoin="round" />
<path d="M 144.5 123.5 L 143.5 123.0 L 143.0 122.5 L 142.5 122.0 L 143.0 122.0 L 146.0 121.5 L 150.5 121.0 L 156.0 120.5 L 160.0 120.5 L 162.0 120.5 L 162.0 121.0 L 162.0 121.0 " stroke="black" fill="none" stroke-width="6.0" stroke-linecap="round" stroke-linejoin="round" />
<path d="M 146.0 136.0 L 145.5 136.5 L 144.5 136.5 L 144.5 136.5 L 145.0 136.5 L 147.5 136.5 L 151.5 136.0 L 156.0 135.5 L 160.0 135.0 L 163.0 135.0 L 163.5 134.5 " stroke="black" fill="none" stroke-width="6.0" stroke-linecap="round" stroke-linejoin="round" />
<path d="M 143.5 153.0 L 143.5 154.0 L 143.0 154.5 L 143.0 154.5 L 145.5 154.5 L 150.0 154.5 L 154.5 154.0 L 159.5 153.5 L 163.5 152.5 L 164.5 152.0 " stroke="black" fill="none" stroke-width="6.0" stroke-linecap="round" stroke-linejoin="round" />
<path d="M 148.0 160.5 L 148.5 160.5 L 149.5 160.0 L 150.0 160.0 L 150.0 160.0 L 148.5 162.5 L 146.0 167.5 L 143.0 173.5 L 140.5 178.5 L 140.0 180.0 L 140.0 180.0 " stroke="black" fill="none" stroke-width="6.0" stroke-linecap="round" stroke-linejoin="round" />
<path d="M 162.0 158.0 L 161.0 158.0 L 160.5 158.0 L 160.0 158.5 L 160.0 160.0 L 159.5 163.0 L 159.5 168.0 L 160.0 173.0 L 162.5 176.5 L 166.5 177.5 L 171.5 176.5 L 177.0 174.5 L 181.0 172.5 L 183.5 171.5 L 184.0 170.5 L 184.0 169.5 L 183.0 169.0 L 182.0 168.0 L 181.0 167.5 L 180.5 166.5 L 180.0 165.5 L 180.0 165.0 L 180.0 164.5 L 180.0 164.5 " stroke="black" fill="none" stroke-width="6.0" stroke-linecap="round" stroke-linejoin="round" />
</svg>