<svg xmlns="http://www.w3.org/2000/svg" width="300" height="300" viewBox="0 0 300 300">
<path d="M 125.5 107.5 L 125.0 107.5 L 124.5 107.5 L 124.5 107.5 L 125.5 108.5 L 127.5 111.0 L 129.5 116.5 L 132.0 121.5 L 133.0 123.5 L 133.5 123.0 " stroke="black" fill="none" stroke-width="6.0" stroke-linecap="round" stroke-linejoin="round" />
<path d="M 117.0 131.5 L 117.0 132.0 L 116.0 132.5 L 115.5 132.5 L 115.5 132.5 L 118.5 132.0 L 124.0 132.0 L 130.0 132.0 L 135.5 132.0 L 138.5 132.0 L 139.5 131.5 " stroke="black" fill="none" stroke-width="6.0" stroke-linecap="round" stroke-linejoin="round" />
<path d="M 124.5 142.5 L 123.0 141.5 L 122.5 140.5 L 122.0 140.5 L 123.0 143.5 L 124.0 149.0 L 125.5 154.0 L 126.0 157.5 L 127.5 159.5 L 127.5 159.5 " stroke="black" fill="none" stroke-width="6.0" stroke-linecap="round" stroke-linejoin="round" />
<path d="M 137.0 141.0 L 137.0 141.0 L 137.0 141.5 L 137.0 142.0 L 137.0 142.5 L 137.0 145.0 L 136.5 149.5 L 136.0 154.0 L 135.5 157.0 L 135.0 158.0 " stroke="black" fill="none" stroke-width="6.0" stroke-linecap="round" stroke-linejoin="round" />
<path d="M 118.5 171.5 L 118.0 172.0 L 117.5 172.5 L 117.5 172.5 L 120.0 172.0 L 125.5 170.5 L 131.5 169.0 L 137.0 167.0 L 140.0 165.0 " stroke="black" fill="none" stroke-width="6.0" stroke-linecap="round" stroke-linejoin="round" />
<path d="M 152.5 108.0 L 152.5 108.0 L 152.5 107.0 L 152.5 106.5 L 152.5 106.0 L 153.0 107.5 L 153.0 113.0 L 153.5 119.5 L 153.5 125.0 L 153.5 127.0 L 154.0 126.5 L 154.5 124.5 " stroke="black" fill="none" stroke-width="6.0" stroke-linecap="round" stroke-linejoin="round" />
<path d="M 155.0 104.5 L 153.5 104.5 L 152.0 104.5 L 151.5 104.5 L 151.5 104.5 L 153.0 104.5 L 155.5 104.5 L 160.0 104.0 L 164.5 104.0 L 169.0 103.5 L 172.5 103.0 L 174.5 103.5 L 175.0 104.0 L 175.5 105.0 L 175.5 106.5 L 175.5 108.0 L 175.5 109.5 L 175.0 112.0 L 174.5 115.0 L 174.0 119.0 L 173.5 122.0 L 173.0 124.5 L 173.0 125.0 " stroke="black" fill="none" stroke-width="6.0" stroke-linecap="round" stroke-linejoin="round" />
<path d="M 157.5 115.0 L 157.0 115.5 L 156.5 115.5 L 156.0 115.5 L 158.0 115.5 L 161.5 116.0 L 165.5 116.5 L 169.5 117.0 L 172.0 116.5 L 172.5 116.5 " stroke="black" fill="none" stroke-width="6.0" stroke-linecap="round" stroke-linejoin="round" />
<path d="M 157.0 126.0 L 157.0 126.0 L 157.0 126.5 L 157.0 126.5 L 159.5 126.5 L 164.5 126.0 L 169.0 125.5 L 172.5 125.0 L 174.0 125.5 " stroke="black" fill="none" stroke-width="6.0" stroke-linecap="round" stroke-linejoin="round" />
<path d="M 153.0 136.5 L 153.0 136.5 L 153.5 136.5 L 153.5 136.5 L 154.0 136.5 L 154.0 136.0 L 154.0 137.0 L 153.5 139.5 L 152.0 143.5 L 150.5 147.0 L 150.5 148.0 L 150.5 148.0 " stroke="black" fill="none" stroke-width="6.0" stroke-linecap="round" stroke-linejoin="round" />
<path d="M 155.0 142.0 L 155.0 142.5 L 155.0 142.5 L 155.0 142.5 L 156.5 142.5 L 159.0 142.5 L 163.0 141.5 L 168.0 140.5 L 172.0 139.5 L 174.5 139.0 L 176.5 138.5 L 177.5 138.5 L 179.0 138.5 L 179.5 138.5 L 180.0 138.5 L 180.5 138.5 L 180.5 138.5 L 180.5 138.5 L 180.5 138.5 L 180.5 138.5 L 181.0 138.5 L 181.0 138.5 L 181.0 138.5 L 181.0 138.5 L 181.0 138.5 L 181.0 138.5 L 181.5 138.5 L 181.5 138.5 L 181.5 138.5 L 181.5 139.0 L 181.5 139.0 L 182.0 139.0 L 182.0 139.0 L 182.0 139.5 L 182.0 140.0 L 182.0 140.0 L 182.0 140.5 L 182.0 141.5 L 182.5 142.5 L 182.5 144.0 L 182.5 146.5 L 182.5 150.0 L 182.5 154.5 L 182.0 160.0 L 182.0 165.5 L 181.5 171.0 L 181.0 176.5 L 180.5 181.5 L 179.5 185.5 L 179.0 188.5 L 178.0 189.5 L 176.5 190.5 L 175.0 191.0 L 173.0 192.0 L 172.0 192.5 L 171.5 192.5 L 171.5 192.5 " stroke="black" fill="none" stroke-width="6.0" stroke-linecap="round" stroke-linejoin="round" />
<path d="M 164.5 148.5 L 164.0 148.5 L 163.5 148.5 L 163.0 149.0 L 163.0 150.5 L 163.0 154.0 L 162.0 159.0 L 160.5 164.5 L 159.5 167.5 L 159.0 168.0 L 160.0 167.0 " stroke="black" fill="none" stroke-width="6.0" stroke-linecap="round" stroke-linejoin="round" />
<path d="M 164.5 160.0 L 164.5 160.5 L 164.5 161.0 L 165.0 161.0 L 167.0 161.5 L 169.0 162.0 L 170.5 163.0 L 172.0 163.5 " stroke="black" fill="none" stroke-width="6.0" stroke-linecap="round" stroke-linejoin="round" />
<path d="M 152.5 153.0 L 152.5 153.5 L 153.0 153.5 L 153.0 154.0 L 153.0 155.0 L 153.0 156.5 L 153.0 159.5 L 152.5 163.5 L 152.0 168.0 L 151.5 172.5 L 151.0 175.0 L 150.5 176.5 L 150.5 177.5 L 150.5 178.0 L 150.5 178.0 L 151.0 178.5 L 151.5 178.5 L 153.5 178.5 L 156.0 178.5 L 159.5 178.0 L 164.0 177.5 L 168.0 177.0 L 170.5 176.5 L 171.5 176.5 L 172.0 176.5 L 172.0 176.5 " stroke="black" fill="none" stroke-width="6.0" stroke-linecap="round" stroke-linejoin="round" />
</svg>