<svg xmlns="http://www.w3.org/2000/svg" width="300" height="300" viewBox="0 0 300 300">
<path d="M 125.0 114.0 L 125.5 113.5 L 125.5 113.0 L 125.5 112.5 L 125.5 112.0 L 125.5 112.5 L 125.5 117.0 L 125.5 124.0 L 125.5 131.5 L 125.5 135.5 L 125.5 135.5 " stroke="black" fill="none" stroke-width="6.0" stroke-linecap="round" stroke-linejoin="round" />
<path d="M 125.5 114.5 L 125.0 115.5 L 124.5 116.0 L 124.5 116.0 L 126.0 115.0 L 129.5 113.5 L 134.0 112.5 L 139.0 111.5 L 143.0 111.5 L 145.5 111.5 L 146.0 112.0 L 146.5 112.5 L 146.5 113.5 L 146.5 116.0 L 146.0 119.5 L 145.5 125.5 L 145.0 131.0 L 144.5 134.5 L 144.5 135.5 L 144.5 134.5 L 144.5 134.0 " stroke="black" fill="none" stroke-width="6.0" stroke-linecap="round" stroke-linejoin="round" />
<path d="M 134.5 125.5 L 134.5 125.5 L 134.5 125.0 L 134.5 125.0 L 134.5 125.0 L 134.5 127.5 L 134.5 131.0 L 134.5 134.0 L 135.0 135.0 " stroke="black" fill="none" stroke-width="6.0" stroke-linecap="round" stroke-linejoin="round" />
<path d="M 134.5 125.5 L 134.5 125.5 L 134.0 125.0 L 134.0 124.5 L 135.0 124.5 L 137.5 124.5 L 141.0 124.0 L 143.5 124.0 L 144.5 124.0 " stroke="black" fill="none" stroke-width="6.0" stroke-linecap="round" stroke-linejoin="round" />
<path d="M 119.5 142.5 L 119.5 142.0 L 119.5 141.0 L 119.0 140.5 L 119.0 140.5 L 119.0 141.0 L 118.5 144.0 L 117.5 148.0 L 117.5 151.5 L 117.0 153.5 L 117.0 153.5 " stroke="black" fill="none" stroke-width="6.0" stroke-linecap="round" stroke-linejoin="round" />
<path d="M 121.0 142.0 L 121.0 142.0 L 121.0 142.0 L 121.0 142.0 L 121.0 142.0 L 122.5 142.0 L 125.5 142.0 L 131.0 142.0 L 138.5 140.5 L 145.0 139.5 L 149.0 138.5 L 151.0 138.5 L 151.5 139.0 L 152.0 140.0 L 152.0 140.5 L 152.5 141.0 L 153.0 141.0 L 153.5 141.5 L 153.5 141.5 L 154.0 141.5 L 154.0 142.0 L 153.5 143.0 L 153.0 145.0 L 152.0 148.0 L 151.5 151.0 L 151.5 154.0 L 151.5 155.0 " stroke="black" fill="none" stroke-width="6.0" stroke-linecap="round" stroke-linejoin="round" />
<path d="M 126.0 154.5 L 127.0 154.5 L 127.5 155.0 L 127.5 155.0 L 127.5 156.0 L 127.5 159.0 L 128.0 165.5 L 128.0 175.5 L 128.0 185.0 L 128.0 190.0 L 128.0 190.5 L 128.0 189.5 L 128.0 188.5 " stroke="black" fill="none" stroke-width="6.0" stroke-linecap="round" stroke-linejoin="round" />
<path d="M 128.0 154.0 L 128.0 154.5 L 128.0 155.5 L 128.0 155.5 L 128.5 155.5 L 130.5 155.5 L 133.5 155.0 L 136.5 154.0 L 139.0 153.0 L 141.0 152.5 L 142.0 152.5 L 142.5 152.5 L 143.0 153.5 L 143.0 155.0 L 143.0 158.5 L 143.5 163.0 L 144.0 168.5 L 144.5 174.5 L 145.0 179.5 L 145.5 185.0 L 146.0 189.5 L 146.0 194.0 L 146.0 197.0 L 145.5 197.0 L 144.0 196.0 L 143.0 194.5 " stroke="black" fill="none" stroke-width="6.0" stroke-linecap="round" stroke-linejoin="round" />
<path d="M 134.0 167.0 L 134.0 167.0 L 134.0 167.0 L 134.0 166.5 L 134.0 166.5 L 134.5 167.0 L 136.0 168.0 L 138.0 169.5 L 138.5 170.5 " stroke="black" fill="none" stroke-width="6.0" stroke-linecap="round" stroke-linejoin="round" />
<path d="M 134.5 181.5 L 134.5 181.5 L 133.5 182.0 L 133.5 182.0 L 134.0 181.0 L 136.0 179.0 L 138.5 177.0 L 141.0 175.0 " stroke="black" fill="none" stroke-width="6.0" stroke-linecap="round" stroke-linejoin="round" />
<path d="M 165.5 115.5 L 165.5 115.5 L 165.0 115.5 L 165.0 115.5 L 165.5 118.5 L 166.0 123.5 L 166.5 128.0 L 167.0 130.5 L 167.0 131.0 L 167.0 131.0 " stroke="black" fill="none" stroke-width="6.0" stroke-linecap="round" stroke-linejoin="round" />
<path d="M 166.5 117.0 L 165.5 117.5 L 165.0 117.5 L 165.0 117.5 L 165.0 117.5 L 167.0 117.0 L 170.5 116.0 L 175.0 115.5 L 181.5 115.0 L 188.0 114.5 L 192.0 114.0 L 194.0 113.5 L 194.0 113.5 L 194.0 113.5 L 193.5 113.5 L 193.5 113.5 L 193.5 114.5 L 193.5 116.0 L 193.0 119.5 L 192.0 124.0 L 191.5 128.5 L 191.5 131.0 L 191.5 132.0 L 191.5 132.0 " stroke="black" fill="none" stroke-width="6.0" stroke-linecap="round" stroke-linejoin="round" />
<path d="M 169.0 125.0 L 169.0 125.0 L 169.0 124.5 L 168.5 124.0 L 168.5 124.0 L 169.5 123.5 L 173.0 123.0 L 178.0 122.5 L 183.0 122.5 L 186.5 122.5 L 188.0 122.0 L 188.5 122.0 " stroke="black" fill="none" stroke-width="6.0" stroke-linecap="round" stroke-linejoin="round" />
<path d="M 173.5 101.5 L 173.5 101.0 L 174.0 100.5 L 174.0 100.0 L 174.0 100.0 L 174.0 101.5 L 174.0 107.5 L 174.0 117.0 L 174.0 127.0 L 174.5 132.5 L 175.0 133.5 L 175.5 132.0 " stroke="black" fill="none" stroke-width="6.0" stroke-linecap="round" stroke-linejoin="round" />
<path d="M 186.0 102.0 L 186.0 102.0 L 185.5 102.5 L 185.5 103.5 L 185.5 107.0 L 185.5 114.0 L 185.5 121.5 L 185.5 126.0 L 185.5 129.0 " stroke="black" fill="none" stroke-width="6.0" stroke-linecap="round" stroke-linejoin="round" />
<path d="M 168.0 132.5 L 168.0 133.0 L 168.0 134.0 L 168.5 134.0 L 171.0 134.0 L 175.5 134.0 L 181.5 134.0 L 186.5 134.0 L 189.5 134.0 L 191.0 133.5 " stroke="black" fill="none" stroke-width="6.0" stroke-linecap="round" stroke-linejoin="round" />
<path d="M 166.0 146.5 L 166.0 146.5 L 166.0 146.5 L 166.0 146.0 L 167.0 145.5 L 171.5 145.5 L 178.0 145.0 L 185.0 144.5 L 189.0 144.5 L 191.0 144.0 L 191.0 144.0 " stroke="black" fill="none" stroke-width="6.0" stroke-linecap="round" stroke-linejoin="round" />
<path d="M 168.0 156.5 L 168.0 156.5 L 168.0 156.5 L 168.0 156.5 L 168.0 157.0 L 168.0 157.5 L 168.5 160.0 L 169.0 162.5 L 170.0 164.5 L 170.5 165.0 " stroke="black" fill="none" stroke-width="6.0" stroke-linecap="round" stroke-linejoin="round" />
<path d="M 170.0 156.0 L 170.5 156.0 L 170.5 156.0 L 171.0 156.0 L 172.0 156.0 L 175.0 155.5 L 179.5 155.0 L 183.5 155.0 L 187.0 154.5 L 189.0 154.0 L 190.0 153.5 L 190.0 153.5 L 190.0 153.5 L 189.5 155.0 L 189.0 157.0 L 187.5 159.0 L 186.5 161.5 L 185.5 163.0 L 185.5 164.0 " stroke="black" fill="none" stroke-width="6.0" stroke-linecap="round" stroke-linejoin="round" />
<path d="M 173.5 165.0 L 173.0 165.5 L 172.5 165.5 L 172.0 165.5 L 173.0 165.5 L 176.0 165.0 L 180.0 165.0 L 184.5 164.5 L 187.0 164.5 " stroke="black" fill="none" stroke-width="6.0" stroke-linecap="round" stroke-linejoin="round" />
<path d="M 171.0 173.5 L 171.5 173.5 L 171.5 173.0 L 172.0 173.0 L 172.0 173.0 L 172.5 174.5 L 173.0 177.0 L 174.0 179.0 L 175.5 180.0 " stroke="black" fill="none" stroke-width="6.0" stroke-linecap="round" stroke-linejoin="round" />
<path d="M 186.0 171.5 L 185.5 171.5 L 185.0 171.5 L 185.0 171.5 L 185.0 173.0 L 184.5 175.5 L 184.5 178.5 L 184.0 180.5 " stroke="black" fill="none" stroke-width="6.0" stroke-linecap="round" stroke-linejoin="round" />
<path d="M 165.5 188.0 L 165.5 188.0 L 165.5 187.5 L 165.5 187.0 L 168.0 186.5 L 172.5 186.5 L 179.5 186.5 L 186.5 186.5 L 192.0 186.5 L 194.5 186.5 " stroke="black" fill="none" stroke-width="6.0" stroke-linecap="round" stroke-linejoin="round" />
</svg>