<svg xmlns="http://www.w3.org/2000/svg" width="300" height="300" viewBox="0 0 300 300">
<path d="M 127.5 115.5 L 127.5 115.5 L 127.0 115.5 L 127.0 115.5 L 127.5 119.5 L 129.0 130.0 L 130.0 146.0 L 130.0 161.0 L 131.0 171.5 L 132.0 175.5 L 132.0 176.0 L 132.0 174.5 L 131.5 172.0 " stroke="black" fill="none" stroke-width="6.0" stroke-linecap="round" stroke-linejoin="round" />
<path d="M 120.5 132.5 L 120.5 132.5 L 120.0 132.5 L 119.5 132.5 L 119.5 134.0 L 118.5 139.0 L 117.0 146.5 L 115.5 151.5 L 115.0 152.5 L 115.0 151.0 " stroke="black" fill="none" stroke-width="6.0" stroke-linecap="round" stroke-linejoin="round" />
<path d="M 132.0 129.5 L 132.0 129.5 L 132.0 129.5 L 133.0 130.0 L 135.0 131.5 L 137.0 133.5 L 138.0 134.0 " stroke="black" fill="none" stroke-width="6.0" stroke-linecap="round" stroke-linejoin="round" />
<path d="M 149.0 115.5 L 149.0 115.5 L 149.5 114.5 L 149.5 114.0 L 150.0 114.0 L 150.0 114.5 L 149.0 119.0 L 146.5 124.5 L 144.0 129.0 L 143.0 130.5 L 142.5 130.5 " stroke="black" fill="none" stroke-width="6.0" stroke-linecap="round" stroke-linejoin="round" />
<path d="M 154.5 119.5 L 154.5 119.5 L 154.5 119.5 L 155.5 119.5 L 158.5 119.5 L 162.5 120.5 L 165.5 121.0 L 168.0 121.0 L 169.0 121.0 " stroke="black" fill="none" stroke-width="6.0" stroke-linecap="round" stroke-linejoin="round" />
<path d="M 150.5 134.0 L 150.0 134.0 L 149.5 134.0 L 149.5 134.0 L 149.5 136.0 L 149.5 140.0 L 150.0 144.0 L 150.5 146.0 " stroke="black" fill="none" stroke-width="6.0" stroke-linecap="round" stroke-linejoin="round" />
<path d="M 151.0 135.5 L 151.0 135.0 L 151.0 134.0 L 152.0 132.0 L 155.0 130.5 L 158.0 129.5 L 161.5 129.5 L 163.5 129.5 L 165.0 130.0 L 166.0 131.5 L 166.0 134.0 L 165.5 137.5 L 164.5 141.5 L 163.5 144.5 L 163.0 145.0 " stroke="black" fill="none" stroke-width="6.0" stroke-linecap="round" stroke-linejoin="round" />
<path d="M 153.5 147.5 L 153.5 147.5 L 153.0 147.5 L 153.0 147.5 L 155.0 147.0 L 158.5 146.5 L 162.5 146.0 L 163.5 146.0 " stroke="black" fill="none" stroke-width="6.0" stroke-linecap="round" stroke-linejoin="round" />
<path d="M 153.0 154.5 L 154.0 153.5 L 155.0 153.0 L 155.5 152.5 L 155.5 152.5 L 155.0 156.5 L 152.5 163.0 L 148.5 170.5 L 145.0 175.5 L 143.5 177.0 L 143.5 175.5 " stroke="black" fill="none" stroke-width="6.0" stroke-linecap="round" stroke-linejoin="round" />
<path d="M 163.5 157.0 L 162.5 157.0 L 162.5 157.0 L 162.5 156.5 L 162.5 157.5 L 162.5 161.0 L 163.5 167.0 L 165.5 173.5 L 169.5 178.0 L 175.5 179.5 L 182.5 177.5 L 187.0 174.0 L 188.0 171.0 L 187.5 169.0 L 186.5 167.0 L 185.5 166.0 L 185.0 165.5 L 185.0 165.5 " stroke="black" fill="none" stroke-width="6.0" stroke-linecap="round" stroke-linejoin="round" />
</svg>