<svg xmlns="http://www.w3.org/2000/svg" width="300" height="300" viewBox="0 0 300 300">
<path d="M 131.5 111.5 L 131.5 111.5 L 132.0 111.5 L 132.5 111.5 L 133.0 112.0 L 133.5 112.0 L 134.0 113.0 L 134.0 115.0 L 134.5 119.5 L 135.0 128.5 L 135.0 142.0 L 135.0 155.0 L 135.0 160.5 L 135.5 162.0 L 135.5 161.0 L 135.0 158.5 " stroke="black" fill="none" stroke-width="6.0" stroke-linecap="round" stroke-linejoin="round" />
<path d="M 129.0 122.5 L 128.5 122.5 L 127.5 123.0 L 127.5 123.0 L 128.0 123.0 L 131.5 123.0 L 137.0 123.0 L 143.5 123.0 L 149.5 123.0 L 154.5 122.0 L 157.5 121.5 L 158.0 121.5 L 157.5 121.5 " stroke="black" fill="none" stroke-width="6.0" stroke-linecap="round" stroke-linejoin="round" />
<path d="M 153.5 110.5 L 153.5 111.0 L 153.5 112.0 L 154.0 113.0 L 154.0 115.0 L 155.0 121.0 L 155.5 132.5 L 156.0 145.0 L 156.5 154.0 L 156.5 159.0 L 156.5 161.0 L 156.5 161.0 L 155.5 159.0 " stroke="black" fill="none" stroke-width="6.0" stroke-linecap="round" stroke-linejoin="round" />
<path d="M 140.0 137.0 L 140.0 138.0 L 140.0 138.5 L 140.5 139.0 L 143.5 139.0 L 147.5 139.0 L 151.5 138.0 L 154.5 137.0 L 155.0 136.5 " stroke="black" fill="none" stroke-width="6.0" stroke-linecap="round" stroke-linejoin="round" />
<path d="M 135.0 154.0 L 135.5 154.5 L 136.5 155.0 L 138.0 155.5 L 140.5 155.5 L 143.5 155.5 L 146.5 155.0 L 149.0 154.0 L 151.0 153.0 L 151.0 153.0 " stroke="black" fill="none" stroke-width="6.0" stroke-linecap="round" stroke-linejoin="round" />
<path d="M 125.5 169.5 L 124.5 169.5 L 124.5 169.5 L 125.0 169.0 L 130.0 168.0 L 139.0 166.5 L 150.0 165.5 L 160.0 164.0 L 166.0 163.5 L 168.5 163.0 L 169.0 163.0 L 168.5 163.0 L 167.0 163.5 L 166.0 163.5 " stroke="black" fill="none" stroke-width="6.0" stroke-linecap="round" stroke-linejoin="round" />
<path d="M 143.5 177.0 L 144.5 176.5 L 144.5 176.5 L 144.5 176.5 L 143.5 177.5 L 140.5 181.5 L 137.0 186.5 L 133.5 190.0 L 132.0 191.0 L 132.0 191.0 L 132.0 191.0 " stroke="black" fill="none" stroke-width="6.0" stroke-linecap="round" stroke-linejoin="round" />
<path d="M 161.5 177.0 L 162.0 178.0 L 163.0 178.5 L 164.5 180.0 L 168.0 181.5 L 172.5 183.5 L 175.5 185.0 L 177.0 185.5 L 177.0 186.0 " stroke="black" fill="none" stroke-width="6.0" stroke-linecap="round" stroke-linejoin="round" />
</svg>