<svg xmlns="http://www.w3.org/2000/svg" width="300" height="300" viewBox="0 0 300 300">
<path d="M 136.0 115.5 L 136.0 115.5 L 136.5 115.5 L 136.5 115.5 L 137.0 115.5 L 137.5 117.0 L 138.5 122.0 L 139.0 131.0 L 139.0 143.0 L 139.0 154.5 L 139.0 162.0 L 139.0 166.0 L 139.5 167.0 L 139.5 167.0 L 139.0 164.5 L 139.0 163.5 " stroke="black" fill="none" stroke-width="6.0" stroke-linecap="round" stroke-linejoin="round" />
<path d="M 131.0 124.5 L 131.0 125.5 L 130.5 126.5 L 130.5 127.0 L 132.5 127.0 L 137.5 126.0 L 147.0 124.0 L 157.5 123.0 L 167.5 122.5 L 173.0 122.5 L 174.0 122.5 L 173.0 122.5 " stroke="black" fill="none" stroke-width="6.0" stroke-linecap="round" stroke-linejoin="round" />
<path d="M 163.5 110.0 L 163.5 110.5 L 163.0 111.5 L 162.5 112.0 L 162.5 113.5 L 162.5 118.0 L 163.0 135.5 L 163.0 146.0 L 162.5 154.5 L 162.5 160.5 L 163.0 165.0 L 163.5 167.0 L 163.5 167.0 L 163.5 167.0 " stroke="black" fill="none" stroke-width="6.0" stroke-linecap="round" stroke-linejoin="round" />
<path d="M 144.0 140.5 L 143.0 140.5 L 142.5 140.0 L 142.5 139.5 L 145.0 139.0 L 150.0 138.5 L 154.5 138.0 L 159.0 138.0 L 161.5 138.0 L 162.5 138.0 L 162.5 138.0 " stroke="black" fill="none" stroke-width="6.0" stroke-linecap="round" stroke-linejoin="round" />
<path d="M 146.5 151.0 L 145.5 151.0 L 144.5 151.5 L 144.0 151.5 L 146.0 151.0 L 149.5 150.5 L 153.5 150.0 L 157.5 149.5 L 160.5 149.0 L 161.5 149.0 " stroke="black" fill="none" stroke-width="6.0" stroke-linecap="round" stroke-linejoin="round" />
<path d="M 129.5 170.5 L 129.5 171.5 L 129.5 172.0 L 129.5 172.0 L 132.0 172.0 L 139.5 170.5 L 150.5 168.5 L 161.5 167.0 L 169.5 166.0 L 173.5 166.0 L 175.0 166.5 L 175.0 166.5 " stroke="black" fill="none" stroke-width="6.0" stroke-linecap="round" stroke-linejoin="round" />
<path d="M 145.5 179.0 L 145.5 179.0 L 146.0 179.0 L 146.5 178.5 L 146.5 178.5 L 146.5 178.5 L 145.5 180.5 L 143.5 184.0 L 141.0 187.5 L 139.5 190.0 L 139.0 190.5 " stroke="black" fill="none" stroke-width="6.0" stroke-linecap="round" stroke-linejoin="round" />
<path d="M 163.5 180.0 L 163.5 180.5 L 163.5 181.5 L 165.5 183.5 L 170.5 186.0 L 177.0 188.0 L 180.5 190.0 L 181.5 190.5 " stroke="black" fill="none" stroke-width="6.0" stroke-linecap="round" stroke-linejoin="round" />
</svg>