<svg xmlns="http://www.w3.org/2000/svg" width="300" height="300" viewBox="0 0 300 300">
<path d="M 148.5 103.5 L 148.5 103.0 L 148.5 101.5 L 149.0 100.5 L 149.5 99.5 L 150.0 99.5 L 150.0 100.0 L 149.0 102.5 L 147.0 106.0 L 145.0 109.5 L 144.5 110.5 " stroke="black" fill="none" stroke-width="7.0" stroke-linecap="round" stroke-linejoin="round" />
<path d="M 138.0 117.0 L 138.5 116.0 L 138.5 115.5 L 139.0 115.0 L 139.5 117.0 L 140.0 122.0 L 140.0 129.5 L 140.0 136.5 L 140.0 140.5 L 140.5 141.0 " stroke="black" fill="none" stroke-width="7.0" stroke-linecap="round" stroke-linejoin="round" />
<path d="M 143.0 116.0 L 141.5 116.5 L 140.5 116.5 L 140.5 116.5 L 142.0 116.5 L 145.0 116.5 L 148.5 116.5 L 152.0 116.5 L 155.0 116.0 L 157.0 115.5 L 158.0 115.5 L 158.5 117.0 L 158.5 120.5 L 158.0 125.5 L 156.5 131.0 L 156.0 136.0 L 156.0 139.5 L 156.0 140.5 " stroke="black" fill="none" stroke-width="7.0" stroke-linecap="round" stroke-linejoin="round" />
<path d="M 143.0 128.5 L 141.5 128.5 L 141.0 128.0 L 142.0 127.5 L 145.0 126.5 L 148.0 126.0 L 151.0 126.0 L 153.0 126.0 L 154.0 127.0 " stroke="black" fill="none" stroke-width="7.0" stroke-linecap="round" stroke-linejoin="round" />
<path d="M 143.0 139.0 L 141.0 140.5 L 141.0 141.0 L 143.0 141.0 L 146.5 140.5 L 150.0 139.5 L 153.0 138.5 L 153.5 138.0 " stroke="black" fill="none" stroke-width="7.0" stroke-linecap="round" stroke-linejoin="round" />
<path d="M 128.0 102.5 L 127.5 101.5 L 127.0 101.0 L 126.5 100.0 L 126.5 100.0 L 126.5 100.0 L 126.5 101.0 L 126.0 104.0 L 124.5 108.0 L 121.5 114.0 L 118.5 119.5 L 116.5 122.5 L 115.5 123.5 L 115.5 123.5 L 115.5 123.5 L 116.0 123.0 L 117.5 123.0 L 120.0 122.5 L 122.5 121.5 L 125.5 120.0 L 127.5 119.5 L 128.5 119.5 L 129.0 119.5 " stroke="black" fill="none" stroke-width="7.0" stroke-linecap="round" stroke-linejoin="round" />
<path d="M 130.0 113.0 L 130.0 113.0 L 130.0 113.0 L 130.0 113.0 L 130.0 113.0 L 130.0 113.5 L 129.5 116.5 L 127.5 122.5 L 124.0 130.0 L 120.5 135.5 L 117.5 138.0 L 116.0 139.0 L 115.5 139.5 L 115.0 139.5 L 115.0 139.5 L 115.5 139.5 L 116.5 139.5 L 118.0 139.0 L 120.0 138.0 L 121.5 137.0 L 123.5 136.5 L 125.0 136.5 L 126.5 136.5 L 128.0 136.5 L 128.5 136.5 " stroke="black" fill="none" stroke-width="7.0" stroke-linecap="round" stroke-linejoin="round" />
<path d="M 130.0 132.0 L 130.5 133.0 L 131.0 133.5 L 132.0 134.5 L 132.5 136.0 L 133.5 138.5 L 134.5 140.5 " stroke="black" fill="none" stroke-width="7.0" stroke-linecap="round" stroke-linejoin="round" />
<path d="M 175.5 102.0 L 176.0 101.5 L 176.5 101.5 L 177.0 101.0 L 177.0 101.5 L 176.0 105.0 L 173.5 110.5 L 170.0 118.0 L 167.0 123.5 L 165.5 125.5 L 165.5 125.5 L 166.5 124.0 L 168.5 122.0 L 171.0 120.0 L 173.5 118.5 L 176.0 117.5 L 177.5 117.0 L 178.5 116.5 L 178.5 118.0 L 178.0 120.5 L 176.5 124.0 L 173.5 128.5 L 170.5 133.5 L 166.5 137.5 L 164.0 140.5 L 163.5 141.5 L 163.5 141.5 L 164.5 140.5 L 166.5 139.0 L 169.0 137.5 L 171.5 135.5 L 174.0 134.0 L 176.0 133.0 L 177.5 132.5 L 178.5 132.5 L 179.0 134.5 L 179.5 137.0 L 180.5 140.0 L 181.0 142.0 L 182.0 143.0 L 182.5 143.5 " stroke="black" fill="none" stroke-width="7.0" stroke-linecap="round" stroke-linejoin="round" />
<path d="M 122.0 151.0 L 121.0 151.0 L 120.5 151.0 L 120.0 151.0 L 121.0 151.0 L 123.5 151.5 L 127.5 151.5 L 135.5 151.5 L 147.5 151.5 L 161.0 151.0 L 172.5 151.0 L 179.5 151.0 L 183.5 152.0 L 184.0 153.0 L 184.0 153.5 L 183.0 153.5 L 182.0 153.0 L 181.5 153.0 " stroke="black" fill="none" stroke-width="7.0" stroke-linecap="round" stroke-linejoin="round" />
<path d="M 150.0 149.0 L 150.0 149.0 L 150.0 149.0 L 150.0 149.0 L 150.0 149.0 L 150.5 152.0 L 151.0 159.0 L 150.5 171.5 L 149.0 182.5 L 149.0 188.5 L 149.5 190.0 L 150.5 189.5 L 150.5 188.0 " stroke="black" fill="none" stroke-width="7.0" stroke-linecap="round" stroke-linejoin="round" />
<path d="M 137.5 162.5 L 138.0 162.5 L 139.0 162.0 L 139.0 162.0 L 139.0 162.5 L 137.0 166.0 L 133.5 171.0 L 129.0 176.0 L 125.5 179.0 L 125.0 179.0 L 125.5 178.0 " stroke="black" fill="none" stroke-width="7.0" stroke-linecap="round" stroke-linejoin="round" />
<path d="M 160.0 167.0 L 160.5 167.0 L 161.0 167.0 L 164.5 169.0 L 172.5 173.5 L 183.0 180.0 L 190.5 186.0 L 192.5 188.5 " stroke="black" fill="none" stroke-width="7.0" stroke-linecap="round" stroke-linejoin="round" />
</svg>