<svg xmlns="http://www.w3.org/2000/svg" width="300" height="300" viewBox="0 0 300 300">
<path d="M 130.5 115.5 L 131.0 115.5 L 131.5 115.5 L 131.5 115.0 L 132.0 115.0 L 132.0 114.5 L 132.0 115.0 L 131.0 118.0 L 127.5 124.0 L 123.0 132.0 L 119.0 137.5 L 117.5 139.0 L 118.0 139.0 L 120.5 137.0 " stroke="black" fill="none" stroke-width="6.0" stroke-linecap="round" stroke-linejoin="round" />
<path d="M 136.0 124.5 L 136.5 124.5 L 137.0 125.0 L 137.0 125.0 L 137.5 125.5 L 137.0 127.0 L 135.0 131.0 L 131.0 136.5 L 126.5 142.5 L 123.0 146.5 L 122.0 148.0 L 122.5 148.0 L 123.0 148.0 " stroke="black" fill="none" stroke-width="6.0" stroke-linecap="round" stroke-linejoin="round" />
<path d="M 128.5 140.0 L 128.5 140.0 L 128.0 140.5 L 128.0 141.0 L 128.0 142.0 L 128.0 145.0 L 128.0 152.0 L 128.0 162.5 L 127.5 173.5 L 127.5 181.0 L 127.5 185.0 L 128.0 187.5 L 128.5 187.5 L 128.5 187.5 " stroke="black" fill="none" stroke-width="6.0" stroke-linecap="round" stroke-linejoin="round" />
<path d="M 150.0 115.0 L 150.0 115.0 L 150.5 114.5 L 150.5 114.5 L 151.0 114.0 L 151.0 114.0 L 150.5 117.5 L 148.5 124.0 L 145.5 131.5 L 143.5 137.0 L 142.5 139.0 L 143.0 138.0 L 143.0 137.0 " stroke="black" fill="none" stroke-width="6.0" stroke-linecap="round" stroke-linejoin="round" />
<path d="M 150.5 126.5 L 150.0 126.5 L 149.5 126.5 L 149.5 126.5 L 151.5 126.5 L 155.5 126.0 L 159.5 125.5 L 164.5 124.5 L 168.0 124.0 L 169.0 124.0 L 169.0 124.0 " stroke="black" fill="none" stroke-width="6.0" stroke-linecap="round" stroke-linejoin="round" />
<path d="M 141.5 147.0 L 141.0 147.0 L 140.5 147.0 L 140.0 147.0 L 140.0 147.0 L 140.0 147.0 L 141.5 147.0 L 144.5 147.0 L 148.0 146.0 L 154.0 144.5 L 161.5 142.0 L 167.5 140.0 L 170.5 140.0 L 170.5 140.0 L 169.5 140.5 L 169.0 141.0 L 169.0 141.0 L 169.0 141.0 " stroke="black" fill="none" stroke-width="6.0" stroke-linecap="round" stroke-linejoin="round" />
<path d="M 158.5 129.0 L 158.5 129.0 L 159.0 129.0 L 159.0 129.0 L 159.0 129.0 L 159.5 129.0 L 159.5 129.5 L 159.5 129.5 L 159.5 130.5 L 159.5 131.5 L 159.5 133.0 L 159.5 135.0 L 159.5 137.0 L 159.5 139.5 L 159.0 141.5 L 159.0 144.0 L 159.0 146.5 L 158.5 148.5 L 158.5 150.5 L 158.0 153.0 L 158.0 155.5 L 157.5 157.5 L 157.5 159.0 L 157.5 160.0 L 157.5 161.0 L 157.5 162.5 L 157.5 164.0 L 157.5 164.5 L 157.5 165.0 L 157.5 166.0 L 157.5 166.5 L 157.5 167.5 L 157.5 168.5 L 157.5 169.5 L 157.5 170.5 L 157.5 171.5 L 157.5 172.5 L 157.0 173.5 L 157.0 174.0 L 157.0 174.5 L 157.0 175.0 L 157.0 175.0 L 157.0 174.5 " stroke="black" fill="none" stroke-width="6.0" stroke-linecap="round" stroke-linejoin="round" />
<path d="M 161.0 159.0 L 161.0 159.0 L 160.5 159.0 L 160.5 159.0 L 161.0 159.0 L 162.5 158.5 L 164.0 158.5 L 166.0 157.5 L 167.5 157.0 " stroke="black" fill="none" stroke-width="6.0" stroke-linecap="round" stroke-linejoin="round" />
<path d="M 148.5 157.5 L 148.5 157.5 L 148.5 157.5 L 148.5 157.0 L 148.0 157.0 L 148.0 157.0 L 148.0 157.0 L 148.0 159.5 L 148.0 164.5 L 147.5 171.0 L 147.0 175.5 L 146.5 177.0 " stroke="black" fill="none" stroke-width="6.0" stroke-linecap="round" stroke-linejoin="round" />
<path d="M 145.5 181.5 L 145.5 181.5 L 145.0 182.5 L 145.0 182.5 L 147.0 182.0 L 150.5 180.5 L 155.5 178.5 L 161.5 175.5 L 167.5 172.0 " stroke="black" fill="none" stroke-width="6.0" stroke-linecap="round" stroke-linejoin="round" />
<path d="M 179.5 124.0 L 179.5 124.0 L 179.5 123.5 L 179.5 123.0 L 179.5 123.0 L 179.5 122.5 L 180.5 122.5 L 182.5 122.0 L 184.5 122.0 L 186.0 122.0 L 187.5 122.0 L 188.5 122.0 L 188.5 122.0 L 188.5 123.5 L 188.5 126.0 L 188.5 130.0 L 187.5 135.0 L 187.0 141.0 L 187.0 145.5 L 186.5 149.0 L 186.0 151.0 L 186.0 151.5 L 185.0 151.5 L 184.0 151.5 L 183.0 150.5 L 182.0 148.5 L 181.5 147.0 " stroke="black" fill="none" stroke-width="6.0" stroke-linecap="round" stroke-linejoin="round" />
<path d="M 177.5 125.5 L 177.5 125.5 L 177.5 125.0 L 177.0 124.5 L 177.0 124.5 L 177.0 126.0 L 177.0 130.5 L 177.0 139.0 L 177.0 149.5 L 177.0 158.5 L 176.5 166.0 L 176.0 171.0 L 176.0 175.0 L 176.0 178.5 L 176.0 180.5 L 176.0 181.5 L 176.0 182.0 L 176.5 182.0 L 176.5 182.0 L 176.5 182.0 L 176.5 182.0 L 176.5 182.0 L 176.5 182.0 L 176.5 182.0 L 176.5 182.0 L 176.5 181.5 " stroke="black" fill="none" stroke-width="6.0" stroke-linecap="round" stroke-linejoin="round" />
</svg>