<svg xmlns="http://www.w3.org/2000/svg" width="300" height="300" viewBox="0 0 300 300">
<path d="M 140.5 112.0 L 140.0 112.0 L 138.5 112.0 L 138.5 112.0 L 140.5 113.0 L 143.5 114.5 L 145.5 116.0 L 147.0 117.5 L 148.5 118.0 L 148.5 118.0 " stroke="black" fill="none" stroke-width="6.0" stroke-linecap="round" stroke-linejoin="round" />
<path d="M 124.5 128.0 L 124.5 128.0 L 124.5 128.0 L 124.0 128.0 L 124.5 128.0 L 128.0 128.0 L 136.5 127.0 L 147.5 126.0 L 157.5 125.5 L 164.0 125.0 L 168.5 124.5 L 170.0 124.0 L 169.5 124.0 L 168.0 124.5 " stroke="black" fill="none" stroke-width="6.0" stroke-linecap="round" stroke-linejoin="round" />
<path d="M 138.0 137.0 L 137.5 136.5 L 137.0 136.0 L 136.5 136.0 L 136.5 136.0 L 136.5 138.5 L 137.0 142.0 L 138.0 145.5 L 139.0 147.5 L 140.0 147.5 " stroke="black" fill="none" stroke-width="6.0" stroke-linecap="round" stroke-linejoin="round" />
<path d="M 138.0 136.5 L 136.0 135.5 L 135.5 135.5 L 135.5 135.0 L 137.5 135.0 L 140.5 134.5 L 144.5 134.5 L 148.5 133.5 L 153.0 133.5 L 156.5 133.5 L 158.0 133.5 L 159.0 133.5 L 159.0 134.0 L 159.0 134.5 L 159.0 135.0 L 159.0 136.5 L 158.5 138.0 L 157.5 141.0 L 156.5 143.5 L 155.5 146.0 L 155.0 147.5 L 155.0 148.5 " stroke="black" fill="none" stroke-width="6.0" stroke-linecap="round" stroke-linejoin="round" />
<path d="M 142.5 150.0 L 141.5 150.0 L 140.0 150.0 L 140.0 150.0 L 140.5 150.0 L 143.0 149.5 L 146.5 149.0 L 151.0 148.0 L 155.5 147.0 L 158.0 147.0 " stroke="black" fill="none" stroke-width="6.0" stroke-linecap="round" stroke-linejoin="round" />
<path d="M 144.0 150.5 L 144.5 150.5 L 144.5 150.0 L 145.0 150.0 L 145.0 149.5 L 145.0 150.0 L 143.5 152.0 L 139.5 157.0 L 133.5 163.0 L 128.5 167.5 L 127.5 168.5 L 128.0 168.0 L 129.0 167.0 " stroke="black" fill="none" stroke-width="6.0" stroke-linecap="round" stroke-linejoin="round" />
<path d="M 148.0 152.5 L 148.0 153.0 L 148.0 153.0 L 148.0 153.5 L 148.5 154.5 L 152.5 157.0 L 159.5 161.5 L 167.5 165.0 L 174.5 166.0 L 177.5 166.5 L 178.0 166.5 " stroke="black" fill="none" stroke-width="6.0" stroke-linecap="round" stroke-linejoin="round" />
<path d="M 169.0 153.0 L 169.0 153.0 L 169.0 153.0 L 169.0 153.0 L 169.0 153.0 L 167.5 154.0 L 165.5 155.5 L 163.5 157.5 L 163.0 158.0 " stroke="black" fill="none" stroke-width="6.0" stroke-linecap="round" stroke-linejoin="round" />
<path d="M 138.5 162.0 L 138.5 161.0 L 138.5 160.5 L 138.5 160.5 L 139.0 161.5 L 139.0 164.5 L 139.5 169.0 L 138.5 175.5 L 138.0 182.5 L 137.5 187.5 L 138.0 189.5 L 139.5 188.5 L 141.5 186.0 L 144.0 182.5 L 146.0 180.0 L 148.0 178.0 L 150.0 176.5 L 152.0 176.0 L 153.0 176.0 " stroke="black" fill="none" stroke-width="6.0" stroke-linecap="round" stroke-linejoin="round" />
</svg>