<svg xmlns="http://www.w3.org/2000/svg" width="300" height="300" viewBox="0 0 300 300">
<path d="M 126.5 116.0 L 126.5 116.0 L 125.5 116.0 L 125.0 116.0 L 125.0 116.0 L 125.0 116.0 L 125.0 118.0 L 124.5 122.5 L 123.0 130.0 L 120.5 138.5 L 118.0 147.0 L 117.0 153.0 L 116.5 156.5 L 116.5 159.0 L 116.5 160.5 L 117.5 160.5 L 118.5 160.5 L 119.5 161.0 L 121.0 161.5 L 122.5 163.0 L 124.5 166.0 L 126.5 171.0 L 129.0 177.5 L 132.0 184.0 L 134.5 189.0 L 137.0 192.5 L 139.0 194.5 L 141.0 194.5 L 141.5 193.0 " stroke="black" fill="none" stroke-width="7.0" stroke-linecap="round" stroke-linejoin="round" />
<path d="M 134.0 147.0 L 134.0 146.5 L 134.0 145.5 L 134.0 145.0 L 134.5 145.0 L 134.5 147.5 L 133.0 155.0 L 130.0 166.0 L 126.0 180.0 L 122.5 190.5 L 122.0 194.0 L 122.0 194.5 L 122.0 193.0 " stroke="black" fill="none" stroke-width="7.0" stroke-linecap="round" stroke-linejoin="round" />
<path d="M 108.5 149.5 L 108.0 149.5 L 107.0 149.5 L 107.0 149.5 L 110.0 149.0 L 118.0 147.5 L 128.0 145.5 L 137.0 143.5 L 143.5 142.0 L 146.0 142.0 " stroke="black" fill="none" stroke-width="7.0" stroke-linecap="round" stroke-linejoin="round" />
<path d="M 151.5 121.5 L 151.5 121.5 L 151.5 120.5 L 151.5 120.5 L 151.5 120.0 L 154.5 119.5 L 160.5 117.5 L 168.5 115.5 L 174.0 113.5 L 175.5 113.0 L 175.5 112.5 L 175.5 112.5 L 175.0 112.5 " stroke="black" fill="none" stroke-width="7.0" stroke-linecap="round" stroke-linejoin="round" />
<path d="M 153.0 136.5 L 153.0 136.5 L 153.5 137.0 L 153.5 137.0 L 155.0 137.0 L 158.0 135.5 L 163.5 134.0 L 170.0 133.0 L 175.5 132.5 L 179.0 132.5 L 181.0 132.0 L 181.0 132.0 " stroke="black" fill="none" stroke-width="7.0" stroke-linecap="round" stroke-linejoin="round" />
<path d="M 166.0 120.0 L 166.0 120.0 L 166.0 119.5 L 166.0 119.0 L 166.0 119.0 L 166.5 120.5 L 166.5 124.0 L 164.5 131.0 L 158.5 141.0 L 152.5 149.5 L 149.5 154.0 L 148.0 156.0 L 148.0 156.5 L 148.0 156.5 " stroke="black" fill="none" stroke-width="7.0" stroke-linecap="round" stroke-linejoin="round" />
<path d="M 162.0 140.5 L 162.0 140.5 L 162.0 140.5 L 162.5 140.5 L 164.5 140.5 L 168.5 142.5 L 175.0 146.0 L 182.5 148.5 L 189.0 149.5 L 191.5 149.5 " stroke="black" fill="none" stroke-width="7.0" stroke-linecap="round" stroke-linejoin="round" />
<path d="M 157.5 150.5 L 158.0 150.5 L 158.0 150.5 L 158.0 150.5 L 158.5 152.0 L 158.5 155.0 L 159.0 158.0 L 160.0 159.5 L 160.5 159.5 " stroke="black" fill="none" stroke-width="7.0" stroke-linecap="round" stroke-linejoin="round" />
<path d="M 161.5 151.0 L 161.0 151.0 L 160.5 151.0 L 160.5 150.5 L 162.5 150.5 L 166.0 149.5 L 169.5 149.0 L 172.5 148.0 L 175.0 147.0 L 176.5 147.0 L 177.5 147.0 L 177.5 148.5 L 177.5 151.5 L 177.5 154.5 L 176.5 158.0 L 176.0 160.5 L 175.5 161.5 " stroke="black" fill="none" stroke-width="7.0" stroke-linecap="round" stroke-linejoin="round" />
<path d="M 166.5 163.0 L 166.0 163.0 L 164.0 163.0 L 163.0 163.0 L 163.0 163.0 L 164.0 163.0 L 167.0 162.5 L 170.0 161.5 L 173.5 160.5 L 176.0 160.5 L 177.0 160.5 " stroke="black" fill="none" stroke-width="7.0" stroke-linecap="round" stroke-linejoin="round" />
<path d="M 155.0 175.5 L 155.0 175.5 L 155.0 175.0 L 154.5 174.5 L 154.5 176.5 L 155.0 183.0 L 155.5 190.5 L 156.5 195.5 L 157.0 196.5 L 157.0 196.5 " stroke="black" fill="none" stroke-width="7.0" stroke-linecap="round" stroke-linejoin="round" />
<path d="M 156.0 172.5 L 155.0 172.5 L 154.5 172.0 L 154.5 172.0 L 157.0 171.5 L 161.5 171.5 L 166.5 171.5 L 171.5 171.0 L 177.5 170.5 L 183.5 169.5 L 189.5 168.5 L 193.5 168.0 L 195.0 168.0 L 195.0 169.0 L 194.5 170.0 L 194.5 171.5 L 194.5 174.0 L 194.5 177.0 L 194.0 181.5 L 193.0 186.5 L 191.5 193.0 L 190.5 198.5 L 190.0 202.5 L 190.0 205.0 L 189.0 205.0 L 187.0 204.5 L 184.5 202.5 L 182.0 200.5 L 180.5 199.0 " stroke="black" fill="none" stroke-width="7.0" stroke-linecap="round" stroke-linejoin="round" />
<path d="M 169.5 183.0 L 169.5 182.5 L 169.0 181.5 L 168.5 181.0 L 168.5 180.5 L 168.5 181.5 L 169.5 184.5 L 170.0 187.5 L 171.0 190.0 L 171.5 190.5 " stroke="black" fill="none" stroke-width="7.0" stroke-linecap="round" stroke-linejoin="round" />
<path d="M 170.5 181.5 L 169.5 181.0 L 169.5 180.5 L 170.5 180.0 L 172.5 179.5 L 175.0 179.0 L 177.5 179.0 L 179.5 179.0 L 180.5 180.5 L 181.0 183.0 L 181.0 185.5 L 180.0 187.5 L 178.5 189.0 L 177.5 189.5 " stroke="black" fill="none" stroke-width="7.0" stroke-linecap="round" stroke-linejoin="round" />
<path d="M 171.0 190.0 L 171.0 190.0 L 169.5 190.0 L 169.5 190.0 L 169.5 189.5 L 171.5 189.0 L 174.0 188.5 L 176.0 188.5 " stroke="black" fill="none" stroke-width="7.0" stroke-linecap="round" stroke-linejoin="round" />
</svg>