<svg xmlns="http://www.w3.org/2000/svg" width="300" height="300" viewBox="0 0 300 300">
<path d="M 129.5 113.5 L 129.5 113.5 L 130.0 113.5 L 130.0 114.0 L 130.5 114.0 L 131.0 114.5 L 131.0 115.5 L 130.0 119.5 L 126.0 127.0 L 120.0 136.5 L 115.5 142.5 L 114.5 143.5 L 114.5 142.5 L 114.0 141.0 " stroke="black" fill="none" stroke-width="8.0" stroke-linecap="round" stroke-linejoin="round" />
<path d="M 137.5 129.0 L 138.0 129.0 L 138.0 129.0 L 138.0 129.5 L 138.0 130.5 L 136.0 134.5 L 132.0 141.5 L 126.5 149.5 L 122.5 153.5 L 120.5 154.5 L 120.5 153.0 " stroke="black" fill="none" stroke-width="8.0" stroke-linecap="round" stroke-linejoin="round" />
<path d="M 130.0 144.5 L 130.0 144.5 L 130.5 144.0 L 131.0 143.5 L 132.0 144.5 L 133.0 148.5 L 134.5 157.5 L 135.0 171.0 L 135.0 181.0 L 135.0 185.5 L 135.0 186.0 L 135.0 183.0 " stroke="black" fill="none" stroke-width="8.0" stroke-linecap="round" stroke-linejoin="round" />
<path d="M 151.0 110.5 L 151.0 110.0 L 151.5 110.0 L 151.5 109.5 L 152.0 109.5 L 152.5 112.0 L 152.5 118.0 L 153.0 125.0 L 153.0 128.5 L 153.5 128.5 " stroke="black" fill="none" stroke-width="8.0" stroke-linecap="round" stroke-linejoin="round" />
<path d="M 153.5 110.0 L 153.5 110.5 L 153.0 111.0 L 153.0 111.0 L 153.0 111.0 L 155.0 110.5 L 159.0 109.5 L 165.5 109.0 L 173.0 108.5 L 178.5 109.0 L 180.0 110.5 L 180.5 112.0 L 179.5 113.5 L 178.5 115.5 L 177.5 118.5 L 176.0 123.5 L 175.0 128.0 L 175.0 131.0 L 175.0 131.5 L 175.0 131.0 " stroke="black" fill="none" stroke-width="8.0" stroke-linecap="round" stroke-linejoin="round" />
<path d="M 159.0 121.0 L 159.0 121.0 L 158.0 121.0 L 157.5 121.0 L 157.5 121.0 L 159.0 121.0 L 162.5 121.0 L 166.0 121.0 L 169.5 121.0 L 171.5 121.0 L 172.0 121.0 " stroke="black" fill="none" stroke-width="8.0" stroke-linecap="round" stroke-linejoin="round" />
<path d="M 155.5 133.0 L 156.5 133.0 L 157.0 133.0 L 158.0 133.0 L 160.0 133.0 L 163.0 133.0 L 167.5 133.0 L 171.5 132.0 L 172.0 132.0 " stroke="black" fill="none" stroke-width="8.0" stroke-linecap="round" stroke-linejoin="round" />
<path d="M 151.5 146.0 L 151.5 146.0 L 151.5 146.0 L 151.5 146.5 L 153.0 146.5 L 157.0 146.5 L 163.0 146.0 L 168.5 146.0 L 171.5 145.5 L 172.0 145.0 " stroke="black" fill="none" stroke-width="8.0" stroke-linecap="round" stroke-linejoin="round" />
<path d="M 146.5 159.5 L 146.0 159.5 L 145.0 159.5 L 145.0 159.5 L 145.0 159.5 L 147.5 159.5 L 151.5 159.5 L 158.0 159.5 L 165.0 159.5 L 170.5 159.0 L 172.5 158.5 L 173.0 158.0 L 172.5 157.0 " stroke="black" fill="none" stroke-width="8.0" stroke-linecap="round" stroke-linejoin="round" />
<path d="M 164.0 149.0 L 163.5 149.0 L 163.0 150.0 L 162.5 151.0 L 162.5 154.0 L 164.0 158.5 L 165.0 165.5 L 165.5 173.5 L 166.0 180.5 L 166.5 184.5 L 166.5 187.0 L 166.0 188.0 L 165.0 188.0 L 163.5 188.0 L 161.0 187.0 L 159.5 186.0 L 158.0 185.0 L 157.0 184.5 " stroke="black" fill="none" stroke-width="8.0" stroke-linecap="round" stroke-linejoin="round" />
<path d="M 151.0 172.5 L 150.5 171.5 L 150.0 171.5 L 150.0 171.0 L 150.0 171.0 L 151.5 172.0 L 154.0 173.5 L 156.0 174.0 " stroke="black" fill="none" stroke-width="8.0" stroke-linecap="round" stroke-linejoin="round" />
</svg>