<svg xmlns="http://www.w3.org/2000/svg" width="300" height="300" viewBox="0 0 300 300">
<path d="M 116.0 113.0 L 115.5 113.5 L 115.0 113.5 L 114.5 113.5 L 114.5 113.5 L 116.5 113.0 L 121.0 112.5 L 126.5 112.5 L 132.5 112.0 L 136.5 111.5 L 138.0 111.5 L 138.0 111.5 L 136.5 111.5 L 135.0 111.5 " stroke="black" fill="none" stroke-width="6.0" stroke-linecap="round" stroke-linejoin="round" />
<path d="M 115.5 126.5 L 115.5 126.0 L 115.5 124.5 L 115.5 123.5 L 115.5 123.5 L 115.5 123.5 L 115.5 126.0 L 116.0 131.0 L 116.0 135.5 L 117.0 140.5 L 118.5 142.0 " stroke="black" fill="none" stroke-width="6.0" stroke-linecap="round" stroke-linejoin="round" />
<path d="M 118.0 123.0 L 117.5 123.0 L 116.5 123.0 L 116.0 123.0 L 116.0 123.0 L 117.5 123.0 L 121.0 123.0 L 125.0 122.5 L 130.0 122.0 L 135.0 121.5 L 138.5 121.0 L 139.5 121.0 L 140.0 121.5 L 140.0 122.5 L 140.0 124.0 L 139.5 127.0 L 139.0 130.5 L 138.5 134.0 L 138.0 137.5 L 138.0 140.5 L 138.0 141.5 L 138.0 141.5 " stroke="black" fill="none" stroke-width="6.0" stroke-linecap="round" stroke-linejoin="round" />
<path d="M 124.0 134.0 L 122.5 135.0 L 120.5 135.0 L 120.5 134.5 L 122.0 133.5 L 124.5 132.5 L 127.0 132.0 L 130.0 131.5 L 133.0 131.0 L 135.0 131.0 " stroke="black" fill="none" stroke-width="6.0" stroke-linecap="round" stroke-linejoin="round" />
<path d="M 120.0 145.5 L 119.0 145.5 L 118.0 145.5 L 117.5 145.0 L 118.5 144.5 L 122.0 144.0 L 125.5 143.5 L 129.0 143.5 L 132.0 143.5 L 133.0 143.5 " stroke="black" fill="none" stroke-width="6.0" stroke-linecap="round" stroke-linejoin="round" />
<path d="M 117.5 157.0 L 117.0 158.0 L 116.0 158.5 L 116.0 158.5 L 117.0 158.0 L 121.0 157.0 L 126.0 156.0 L 132.0 155.0 L 138.0 154.5 L 142.0 154.0 " stroke="black" fill="none" stroke-width="6.0" stroke-linecap="round" stroke-linejoin="round" />
<path d="M 130.5 103.0 L 130.5 103.0 L 130.5 103.0 L 130.5 103.0 L 130.5 103.5 L 131.0 104.0 L 131.0 106.5 L 130.5 111.5 L 130.0 119.5 L 129.5 129.0 L 129.0 137.5 L 128.5 144.0 L 128.5 149.5 L 128.5 155.0 L 128.5 161.0 L 128.5 166.0 L 129.0 169.5 L 129.0 172.0 L 129.0 174.0 L 129.0 175.5 L 129.0 177.5 L 129.0 179.0 L 129.0 181.0 L 129.0 182.0 L 129.0 183.5 L 129.0 184.0 L 129.0 184.5 L 129.0 185.0 L 129.0 184.0 L 129.0 183.0 " stroke="black" fill="none" stroke-width="6.0" stroke-linecap="round" stroke-linejoin="round" />
<path d="M 150.5 104.0 L 150.0 104.0 L 149.5 104.0 L 149.5 104.0 L 149.5 104.0 L 152.5 104.0 L 158.0 103.5 L 164.0 103.0 L 169.0 103.0 L 171.5 103.0 L 172.5 103.5 L 172.5 104.0 " stroke="black" fill="none" stroke-width="6.0" stroke-linecap="round" stroke-linejoin="round" />
<path d="M 149.5 116.0 L 149.5 115.0 L 149.5 114.0 L 149.5 113.5 L 149.5 113.5 L 149.5 116.0 L 149.5 120.0 L 150.0 124.0 L 151.0 127.0 L 151.5 128.5 L 151.5 128.5 " stroke="black" fill="none" stroke-width="6.0" stroke-linecap="round" stroke-linejoin="round" />
<path d="M 151.5 117.0 L 151.0 117.0 L 150.5 116.5 L 150.0 116.0 L 150.0 115.5 L 152.0 115.0 L 156.0 114.5 L 161.5 113.5 L 167.5 113.0 L 172.5 113.0 L 175.5 113.0 L 177.0 113.5 L 177.0 114.0 L 177.0 115.0 L 176.5 117.0 L 176.0 120.0 L 175.0 123.5 L 174.5 127.0 L 174.0 129.5 L 173.5 131.0 L 173.5 131.0 " stroke="black" fill="none" stroke-width="6.0" stroke-linecap="round" stroke-linejoin="round" />
<path d="M 155.5 123.5 L 155.5 123.5 L 155.5 123.0 L 155.5 122.5 L 155.5 122.0 L 157.0 122.0 L 159.5 121.5 L 163.5 121.5 L 167.5 122.0 L 170.0 122.5 " stroke="black" fill="none" stroke-width="6.0" stroke-linecap="round" stroke-linejoin="round" />
<path d="M 151.0 133.0 L 151.0 133.5 L 151.5 133.5 L 153.0 133.5 L 158.0 133.5 L 165.5 132.5 L 171.5 132.5 L 175.0 132.5 L 175.0 132.5 " stroke="black" fill="none" stroke-width="6.0" stroke-linecap="round" stroke-linejoin="round" />
<path d="M 163.5 97.5 L 163.5 97.5 L 163.5 97.0 L 163.5 96.5 L 163.0 96.0 L 163.0 96.0 L 163.0 96.0 L 163.0 98.5 L 163.5 103.0 L 163.5 109.0 L 163.0 116.5 L 162.5 124.0 L 162.0 130.0 L 162.0 134.0 L 162.0 136.5 L 162.0 138.5 L 162.0 139.0 L 162.0 139.0 L 162.0 139.0 " stroke="black" fill="none" stroke-width="6.0" stroke-linecap="round" stroke-linejoin="round" />
<path d="M 148.5 147.0 L 148.5 147.0 L 148.5 147.0 L 148.0 147.0 L 148.0 146.5 L 148.0 146.5 L 148.0 146.0 L 149.5 146.0 L 151.5 145.5 L 154.0 145.5 L 158.5 145.0 L 164.0 144.0 L 169.0 144.0 L 173.0 144.0 L 175.5 144.0 L 177.0 144.0 L 177.0 144.0 L 177.0 144.0 L 177.0 144.0 L 177.5 144.0 L 178.0 144.0 L 178.0 144.0 L 178.5 144.0 L 178.5 144.0 L 179.0 144.0 L 179.0 144.0 L 179.0 144.0 L 179.5 144.0 L 179.5 144.0 " stroke="black" fill="none" stroke-width="6.0" stroke-linecap="round" stroke-linejoin="round" />
<path d="M 180.5 140.5 L 180.5 140.5 L 180.5 140.5 L 180.5 140.5 L 180.5 140.5 L 180.5 140.5 L 181.5 142.5 L 183.0 145.0 L 185.0 147.0 L 186.5 148.5 L 187.5 149.0 L 187.5 149.0 " stroke="black" fill="none" stroke-width="6.0" stroke-linecap="round" stroke-linejoin="round" />
<path d="M 154.0 160.0 L 153.5 160.0 L 153.5 160.0 L 153.0 160.0 L 153.0 160.0 L 152.5 160.0 L 152.5 160.0 L 152.5 159.5 L 152.5 159.5 L 154.5 159.5 L 158.5 159.0 L 163.0 158.5 L 168.0 157.5 L 172.0 157.0 L 174.0 156.5 L 175.5 156.5 L 175.5 156.5 L 175.5 156.0 L 175.5 156.0 L 175.5 156.0 L 175.5 156.0 " stroke="black" fill="none" stroke-width="6.0" stroke-linecap="round" stroke-linejoin="round" />
<path d="M 172.0 150.0 L 171.0 150.5 L 170.5 150.5 L 170.5 151.0 L 170.5 152.5 L 171.0 155.5 L 172.0 159.5 L 173.0 165.0 L 174.0 171.0 L 174.5 176.5 L 175.0 181.0 L 175.5 184.0 L 175.5 186.5 L 174.5 187.5 L 173.0 188.0 L 171.0 188.0 L 169.0 188.0 L 167.0 187.0 L 166.0 185.5 L 165.5 184.5 " stroke="black" fill="none" stroke-width="6.0" stroke-linecap="round" stroke-linejoin="round" />
<path d="M 154.0 170.0 L 154.0 170.0 L 154.0 169.5 L 154.0 169.5 L 155.0 170.0 L 157.0 171.0 L 159.0 172.0 L 161.5 173.0 L 162.5 173.0 " stroke="black" fill="none" stroke-width="6.0" stroke-linecap="round" stroke-linejoin="round" />
</svg>