<svg xmlns="http://www.w3.org/2000/svg" width="300" height="300" viewBox="0 0 300 300">
<path d="M 150.5 109.5 L 150.5 109.5 L 150.5 108.5 L 151.0 108.0 L 151.0 108.0 L 151.0 107.5 L 151.0 107.5 L 151.0 108.0 L 150.0 110.0 L 149.0 113.0 L 147.5 116.0 L 146.5 118.5 " stroke="black" fill="none" stroke-width="6.0" stroke-linecap="round" stroke-linejoin="round" />
<path d="M 133.0 123.5 L 133.0 123.0 L 133.0 122.5 L 133.0 122.0 L 133.0 122.0 L 133.0 125.0 L 133.5 131.5 L 133.5 142.5 L 132.5 156.0 L 131.5 166.0 L 131.0 170.5 L 131.0 170.5 L 131.5 170.5 L 131.5 169.5 L 132.0 168.0 " stroke="black" fill="none" stroke-width="6.0" stroke-linecap="round" stroke-linejoin="round" />
<path d="M 137.5 122.0 L 137.0 122.0 L 136.5 122.0 L 136.5 122.0 L 136.0 122.0 L 137.0 122.0 L 139.0 122.0 L 143.0 122.0 L 148.5 122.0 L 155.0 122.0 L 161.0 121.5 L 164.5 121.5 L 165.5 121.5 L 165.5 121.5 L 164.5 122.0 L 164.0 123.0 L 163.5 124.0 L 163.0 125.5 L 163.0 128.0 L 163.0 132.0 L 162.5 138.5 L 162.0 147.5 L 161.0 158.5 L 160.0 166.5 L 159.5 171.5 L 159.5 174.5 L 159.5 175.5 L 159.5 176.0 L 159.0 174.5 " stroke="black" fill="none" stroke-width="6.0" stroke-linecap="round" stroke-linejoin="round" />
<path d="M 139.0 135.5 L 138.5 135.5 L 138.0 135.5 L 137.5 135.5 L 137.5 135.0 L 139.5 135.0 L 143.0 135.0 L 147.0 134.5 L 152.0 134.5 L 155.0 134.5 L 155.5 134.5 " stroke="black" fill="none" stroke-width="6.0" stroke-linecap="round" stroke-linejoin="round" />
<path d="M 135.5 152.0 L 135.5 152.0 L 135.5 153.0 L 135.5 153.0 L 136.0 153.0 L 138.0 153.0 L 141.5 153.0 L 146.5 153.5 L 152.0 153.5 L 157.5 153.0 L 161.0 152.0 L 162.0 152.0 L 162.0 151.5 " stroke="black" fill="none" stroke-width="6.0" stroke-linecap="round" stroke-linejoin="round" />
<path d="M 133.0 174.5 L 133.5 174.5 L 134.0 174.5 L 134.5 174.5 L 136.0 174.5 L 140.5 175.0 L 148.0 175.0 L 156.0 175.0 L 161.5 175.0 L 164.0 174.5 " stroke="black" fill="none" stroke-width="6.0" stroke-linecap="round" stroke-linejoin="round" />
</svg>