<svg xmlns="http://www.w3.org/2000/svg" width="300" height="300" viewBox="0 0 300 300">
<path d="M 117.0 115.0 L 116.5 115.0 L 116.0 115.5 L 116.0 115.5 L 118.0 115.5 L 121.5 115.5 L 125.5 115.5 L 129.5 115.5 L 134.0 115.5 L 137.0 115.0 L 138.5 114.5 L 139.0 114.5 L 138.0 114.0 L 137.5 114.0 " stroke="black" fill="none" stroke-width="6.0" stroke-linecap="round" stroke-linejoin="round" />
<path d="M 117.0 123.0 L 117.5 122.5 L 117.5 121.5 L 117.5 121.5 L 117.5 121.0 L 117.5 121.5 L 118.0 124.0 L 118.0 128.0 L 118.0 133.5 L 117.0 141.0 L 116.5 147.0 L 116.5 151.0 L 116.5 152.0 L 117.0 152.0 L 117.5 152.0 L 118.5 152.0 L 119.5 152.0 L 121.0 151.5 L 123.0 150.5 L 125.5 149.5 L 128.5 148.0 L 132.0 146.5 L 135.5 145.5 L 138.5 145.5 L 140.0 145.5 L 140.0 146.0 L 140.0 147.0 L 140.0 148.5 L 140.0 151.0 L 139.5 154.5 L 139.5 159.5 L 139.0 165.5 L 139.0 172.0 L 139.0 178.0 L 139.0 183.0 L 139.0 188.5 L 139.0 194.0 L 139.0 198.0 L 138.5 199.0 L 137.5 199.0 L 135.0 196.5 L 132.5 192.5 L 131.5 191.5 " stroke="black" fill="none" stroke-width="6.0" stroke-linecap="round" stroke-linejoin="round" />
<path d="M 122.0 128.0 L 120.5 128.0 L 120.0 128.0 L 120.5 128.0 L 123.5 127.0 L 127.5 126.0 L 131.0 125.0 L 133.5 125.0 L 135.5 125.0 L 135.5 125.5 " stroke="black" fill="none" stroke-width="6.0" stroke-linecap="round" stroke-linejoin="round" />
<path d="M 123.5 138.0 L 122.0 139.0 L 121.5 139.5 L 122.5 139.5 L 125.0 138.5 L 131.5 137.0 L 134.0 136.5 L 135.0 135.0 " stroke="black" fill="none" stroke-width="6.0" stroke-linecap="round" stroke-linejoin="round" />
<path d="M 130.5 121.0 L 130.5 121.0 L 130.0 121.0 L 129.0 121.5 L 128.5 124.0 L 128.5 130.5 L 129.0 138.0 L 129.5 144.0 L 129.5 146.0 " stroke="black" fill="none" stroke-width="6.0" stroke-linecap="round" stroke-linejoin="round" />
<path d="M 105.5 172.0 L 105.5 171.5 L 105.5 170.5 L 106.0 170.0 L 106.0 169.5 L 106.5 169.0 L 106.5 169.0 L 107.0 169.0 L 107.0 170.0 L 106.5 172.5 L 105.0 176.5 L 103.5 181.0 L 102.0 183.0 L 102.0 184.0 L 102.0 184.0 " stroke="black" fill="none" stroke-width="6.0" stroke-linecap="round" stroke-linejoin="round" />
<path d="M 114.5 170.0 L 114.5 169.5 L 115.0 169.0 L 115.0 169.0 L 115.0 169.0 L 115.0 169.0 L 115.0 170.0 L 115.0 172.0 L 115.5 174.0 L 116.0 175.5 L 116.5 176.0 " stroke="black" fill="none" stroke-width="6.0" stroke-linecap="round" stroke-linejoin="round" />
<path d="M 123.0 168.0 L 121.5 168.0 L 121.0 168.5 L 121.0 168.5 L 122.0 169.5 L 123.0 170.5 L 124.0 171.5 L 124.5 172.0 " stroke="black" fill="none" stroke-width="6.0" stroke-linecap="round" stroke-linejoin="round" />
<path d="M 128.5 166.5 L 128.0 166.5 L 127.5 166.0 L 127.5 166.0 L 127.5 166.0 L 128.0 166.0 L 128.5 166.5 L 129.5 167.5 L 130.0 168.5 L 130.0 168.5 " stroke="black" fill="none" stroke-width="6.0" stroke-linecap="round" stroke-linejoin="round" />
<path d="M 154.0 114.0 L 153.5 114.5 L 153.0 114.5 L 153.0 115.0 L 153.5 116.0 L 155.5 118.0 L 157.5 121.0 L 160.0 123.5 L 161.5 125.0 L 162.5 125.5 " stroke="black" fill="none" stroke-width="6.0" stroke-linecap="round" stroke-linejoin="round" />
<path d="M 150.5 131.5 L 150.5 131.5 L 150.0 131.5 L 150.0 131.5 L 150.0 131.5 L 150.5 131.5 L 153.5 131.5 L 158.0 131.5 L 165.0 131.0 L 171.5 130.5 L 175.0 130.0 L 176.0 129.5 L 175.0 129.5 L 174.0 129.0 " stroke="black" fill="none" stroke-width="6.0" stroke-linecap="round" stroke-linejoin="round" />
<path d="M 159.0 136.5 L 159.5 136.0 L 160.5 135.5 L 160.5 135.0 L 161.0 135.0 L 161.0 135.0 L 161.0 136.0 L 160.5 139.5 L 158.5 145.0 L 156.0 151.5 L 153.5 156.5 L 152.0 159.0 L 151.5 159.5 L 151.5 159.5 L 151.5 159.5 L 151.5 159.0 L 152.5 158.5 L 154.0 158.0 L 156.0 157.0 L 158.5 156.0 L 161.0 155.0 L 163.0 154.5 L 164.5 153.5 L 165.0 153.0 " stroke="black" fill="none" stroke-width="6.0" stroke-linecap="round" stroke-linejoin="round" />
<path d="M 170.0 142.5 L 170.0 142.5 L 170.0 142.0 L 170.0 142.0 L 170.0 142.0 L 170.0 143.0 L 169.5 145.5 L 167.5 149.5 L 164.0 156.0 L 159.5 164.0 L 154.5 171.5 L 150.5 176.0 L 148.5 177.5 L 148.0 177.5 L 148.0 177.0 L 148.5 176.5 L 149.5 176.0 " stroke="black" fill="none" stroke-width="6.0" stroke-linecap="round" stroke-linejoin="round" />
<path d="M 173.5 161.0 L 173.5 161.0 L 174.5 161.0 L 175.0 161.5 L 175.0 162.0 L 174.5 163.5 L 172.0 167.0 L 168.0 173.0 L 163.0 179.5 L 158.5 184.5 L 156.5 186.5 L 156.0 186.0 L 156.0 184.5 L 156.0 184.5 " stroke="black" fill="none" stroke-width="6.0" stroke-linecap="round" stroke-linejoin="round" />
<path d="M 167.5 176.0 L 167.5 176.5 L 167.5 177.5 L 169.0 178.5 L 172.5 181.0 L 177.5 184.5 L 182.0 187.5 L 184.5 188.0 " stroke="black" fill="none" stroke-width="6.0" stroke-linecap="round" stroke-linejoin="round" />
</svg>