<svg xmlns="http://www.w3.org/2000/svg" width="300" height="300" viewBox="0 0 300 300">
<path d="M 120.5 118.0 L 119.0 118.0 L 119.0 118.0 L 119.0 118.0 L 123.5 118.0 L 129.5 118.0 L 137.0 117.0 L 144.0 116.0 L 147.0 115.0 L 148.0 115.5 L 148.0 117.0 " stroke="black" fill="none" stroke-width="6.0" stroke-linecap="round" stroke-linejoin="round" />
<path d="M 132.5 108.5 L 132.5 108.5 L 132.5 108.5 L 133.0 109.0 L 133.5 109.5 L 134.0 113.5 L 134.5 121.0 L 135.0 127.5 L 135.5 129.5 " stroke="black" fill="none" stroke-width="6.0" stroke-linecap="round" stroke-linejoin="round" />
<path d="M 158.0 117.0 L 157.5 117.0 L 156.5 117.0 L 156.5 117.0 L 159.5 117.0 L 164.5 116.5 L 169.5 116.0 L 173.0 115.5 L 175.0 115.5 " stroke="black" fill="none" stroke-width="6.0" stroke-linecap="round" stroke-linejoin="round" />
<path d="M 166.0 106.5 L 165.5 106.5 L 164.5 106.5 L 164.5 106.5 L 164.5 109.0 L 165.5 115.0 L 166.0 122.0 L 166.5 127.0 L 166.5 129.0 " stroke="black" fill="none" stroke-width="6.0" stroke-linecap="round" stroke-linejoin="round" />
<path d="M 126.0 138.5 L 125.5 138.5 L 125.0 138.0 L 125.0 138.0 L 126.0 138.0 L 127.5 139.5 L 129.0 141.0 L 130.5 142.0 " stroke="black" fill="none" stroke-width="6.0" stroke-linecap="round" stroke-linejoin="round" />
<path d="M 123.0 147.5 L 123.0 147.5 L 122.5 147.5 L 123.0 147.5 L 126.0 147.5 L 131.0 147.0 L 136.0 146.5 L 139.5 146.5 L 141.5 146.5 L 142.0 146.5 " stroke="black" fill="none" stroke-width="6.0" stroke-linecap="round" stroke-linejoin="round" />
<path d="M 124.5 154.5 L 124.5 154.5 L 124.0 154.5 L 124.0 155.0 L 124.0 155.5 L 126.0 157.0 L 128.0 158.5 L 130.0 159.5 L 130.5 159.5 " stroke="black" fill="none" stroke-width="6.0" stroke-linecap="round" stroke-linejoin="round" />
<path d="M 138.5 153.0 L 139.0 153.0 L 139.5 153.5 L 139.5 153.5 L 140.0 153.5 L 140.0 154.5 L 139.0 156.5 L 137.5 159.0 L 137.0 159.5 " stroke="black" fill="none" stroke-width="6.0" stroke-linecap="round" stroke-linejoin="round" />
<path d="M 122.5 168.0 L 121.5 168.0 L 120.5 168.0 L 121.0 168.0 L 124.0 168.0 L 129.5 168.0 L 135.0 167.5 L 140.0 166.5 L 143.0 166.0 " stroke="black" fill="none" stroke-width="6.0" stroke-linecap="round" stroke-linejoin="round" />
<path d="M 124.0 176.5 L 123.5 177.0 L 122.0 177.5 L 121.5 177.5 L 121.5 177.5 L 124.0 177.5 L 128.5 177.0 L 133.5 176.0 L 138.5 175.5 L 141.5 175.5 L 142.5 175.0 " stroke="black" fill="none" stroke-width="6.0" stroke-linecap="round" stroke-linejoin="round" />
<path d="M 133.5 170.0 L 133.0 170.0 L 132.5 170.5 L 132.0 170.5 L 132.0 171.5 L 132.5 175.5 L 132.5 184.5 L 132.5 194.0 L 132.5 199.5 L 133.0 201.0 L 133.0 201.0 " stroke="black" fill="none" stroke-width="6.0" stroke-linecap="round" stroke-linejoin="round" />
<path d="M 129.0 187.0 L 129.0 186.5 L 129.0 186.0 L 129.0 185.5 L 128.5 186.0 L 126.5 189.0 L 124.0 193.0 L 121.5 196.0 L 120.0 197.0 L 120.0 197.0 " stroke="black" fill="none" stroke-width="6.0" stroke-linecap="round" stroke-linejoin="round" />
<path d="M 137.0 189.5 L 137.5 189.5 L 137.5 189.5 L 138.5 189.5 L 140.0 190.0 L 143.0 190.5 L 144.5 190.5 " stroke="black" fill="none" stroke-width="6.0" stroke-linecap="round" stroke-linejoin="round" />
<path d="M 170.0 142.0 L 170.0 141.0 L 170.5 140.5 L 170.5 140.0 L 170.0 140.0 L 169.0 140.5 L 166.0 141.5 L 162.0 143.0 L 157.5 144.5 L 153.5 146.0 L 151.5 147.0 L 150.5 147.5 L 150.5 147.5 L 151.0 147.5 L 151.5 147.5 L 151.5 147.5 L 151.5 147.5 L 152.0 147.5 L 152.0 147.5 L 152.0 147.5 L 152.5 147.5 L 152.5 148.0 L 153.0 149.0 L 153.0 151.5 L 153.0 155.5 L 153.5 162.0 L 153.5 170.5 L 153.0 180.0 L 153.0 187.0 L 152.5 191.5 L 152.0 194.0 L 151.5 194.5 L 151.5 194.5 L 151.5 193.5 L 152.0 192.0 " stroke="black" fill="none" stroke-width="6.0" stroke-linecap="round" stroke-linejoin="round" />
<path d="M 158.0 158.0 L 156.5 158.5 L 155.5 159.0 L 155.5 159.0 L 157.5 158.5 L 161.5 157.5 L 166.5 156.5 L 170.5 155.5 L 173.0 154.5 L 174.0 154.0 L 174.0 154.0 " stroke="black" fill="none" stroke-width="6.0" stroke-linecap="round" stroke-linejoin="round" />
<path d="M 166.0 158.5 L 165.5 158.5 L 165.0 158.5 L 165.0 159.0 L 165.0 162.0 L 165.5 169.0 L 166.0 179.5 L 166.5 188.5 L 167.0 194.5 L 167.5 196.5 L 168.0 196.0 L 168.0 195.5 " stroke="black" fill="none" stroke-width="6.0" stroke-linecap="round" stroke-linejoin="round" />
</svg>