<svg xmlns="http://www.w3.org/2000/svg" width="300" height="300" viewBox="0 0 300 300">
<path d="M 123.0 124.0 L 123.0 122.0 L 122.5 122.0 L 122.5 122.0 L 122.5 123.0 L 123.5 127.0 L 123.5 133.5 L 123.5 139.5 L 123.0 143.0 L 123.0 143.5 L 123.0 141.5 " stroke="black" fill="none" stroke-width="6.0" stroke-linecap="round" stroke-linejoin="round" />
<path d="M 126.0 122.0 L 125.5 121.5 L 124.5 120.5 L 124.0 120.0 L 124.0 120.0 L 125.0 120.0 L 127.5 120.0 L 131.0 119.5 L 134.5 119.0 L 137.5 118.5 L 139.0 118.5 L 139.5 119.0 L 139.5 120.0 L 139.5 121.0 L 139.5 123.0 L 139.0 126.0 L 138.0 131.0 L 137.5 136.0 L 137.5 140.5 L 137.0 142.5 L 136.5 143.5 L 136.0 143.5 " stroke="black" fill="none" stroke-width="6.0" stroke-linecap="round" stroke-linejoin="round" />
<path d="M 125.0 147.5 L 124.0 147.0 L 123.0 146.5 L 123.0 146.0 L 125.5 145.5 L 129.5 144.5 L 133.5 143.5 L 137.0 142.5 L 137.5 142.5 " stroke="black" fill="none" stroke-width="6.0" stroke-linecap="round" stroke-linejoin="round" />
<path d="M 135.0 153.0 L 135.5 153.0 L 136.0 153.0 L 136.5 153.0 L 136.5 154.5 L 136.5 159.0 L 136.5 166.5 L 136.5 172.5 L 136.0 175.5 L 135.0 175.5 L 135.0 175.5 " stroke="black" fill="none" stroke-width="6.0" stroke-linecap="round" stroke-linejoin="round" />
<path d="M 136.5 166.5 L 137.5 164.5 L 139.0 164.0 L 141.0 163.5 L 143.5 163.0 L 145.0 163.0 L 145.5 163.0 " stroke="black" fill="none" stroke-width="6.0" stroke-linecap="round" stroke-linejoin="round" />
<path d="M 123.0 161.5 L 123.5 161.0 L 123.5 161.0 L 124.0 161.0 L 124.5 162.5 L 125.0 167.0 L 125.0 173.0 L 125.0 179.0 L 125.0 183.0 L 124.5 184.0 L 124.5 184.0 " stroke="black" fill="none" stroke-width="6.0" stroke-linecap="round" stroke-linejoin="round" />
<path d="M 120.0 189.0 L 120.0 189.0 L 120.0 188.5 L 120.0 188.0 L 121.0 187.5 L 125.0 186.0 L 132.0 182.0 L 141.0 177.0 L 147.0 174.0 L 148.5 174.0 L 148.5 174.0 " stroke="black" fill="none" stroke-width="6.0" stroke-linecap="round" stroke-linejoin="round" />
<path d="M 150.5 128.0 L 151.0 128.0 L 151.5 128.0 L 152.5 127.5 L 155.0 126.5 L 159.0 125.5 L 164.0 125.0 L 167.5 125.0 L 169.0 125.0 " stroke="black" fill="none" stroke-width="6.0" stroke-linecap="round" stroke-linejoin="round" />
<path d="M 157.0 115.0 L 157.0 115.0 L 157.0 115.5 L 157.0 116.0 L 157.5 117.0 L 158.5 120.5 L 161.0 128.5 L 165.0 139.0 L 170.0 147.0 L 175.0 150.0 L 180.0 150.0 L 183.0 148.0 L 184.0 145.0 L 184.5 142.0 L 183.5 140.0 L 183.0 139.0 L 182.5 139.0 L 182.5 139.0 " stroke="black" fill="none" stroke-width="6.0" stroke-linecap="round" stroke-linejoin="round" />
<path d="M 173.5 134.0 L 173.5 134.5 L 173.5 135.0 L 173.5 135.5 L 172.0 136.0 L 169.0 138.5 L 163.0 143.0 L 158.0 146.5 L 157.0 147.0 L 157.0 147.0 " stroke="black" fill="none" stroke-width="6.0" stroke-linecap="round" stroke-linejoin="round" />
<path d="M 178.0 113.0 L 178.0 113.5 L 178.0 114.0 L 178.5 114.5 L 179.0 116.0 L 180.5 118.0 L 181.5 119.5 L 182.0 120.5 " stroke="black" fill="none" stroke-width="6.0" stroke-linecap="round" stroke-linejoin="round" />
<path d="M 157.0 169.5 L 157.0 169.0 L 157.5 168.5 L 158.0 167.5 L 159.5 167.0 L 163.0 166.0 L 166.5 164.5 L 169.5 164.0 L 170.0 163.5 L 170.0 163.5 " stroke="black" fill="none" stroke-width="6.0" stroke-linecap="round" stroke-linejoin="round" />
<path d="M 161.5 157.0 L 161.5 157.5 L 161.5 158.5 L 161.0 159.0 L 161.0 160.5 L 162.0 164.5 L 164.0 171.0 L 167.0 178.5 L 170.5 185.0 L 174.5 187.5 L 178.0 187.5 L 182.0 187.0 L 185.0 185.0 L 186.0 182.5 L 186.5 180.5 L 186.5 179.0 L 186.0 178.5 L 186.0 178.5 " stroke="black" fill="none" stroke-width="6.0" stroke-linecap="round" stroke-linejoin="round" />
<path d="M 175.0 172.5 L 175.0 172.5 L 175.0 172.5 L 175.0 172.5 L 174.0 173.0 L 172.5 175.0 L 169.0 178.0 L 164.5 181.5 L 161.5 184.0 L 160.5 184.5 " stroke="black" fill="none" stroke-width="6.0" stroke-linecap="round" stroke-linejoin="round" />
<path d="M 182.5 159.5 L 182.5 159.5 L 182.5 160.0 L 182.5 160.5 L 183.0 161.0 L 184.0 161.5 L 185.0 162.5 L 186.0 163.0 " stroke="black" fill="none" stroke-width="6.0" stroke-linecap="round" stroke-linejoin="round" />
</svg>