<svg xmlns="http://www.w3.org/2000/svg" width="300" height="300" viewBox="0 0 300 300">
<path d="M 123.5 125.0 L 123.5 124.5 L 123.0 124.0 L 123.0 123.5 L 123.0 123.0 L 123.5 123.5 L 124.0 126.5 L 124.0 133.0 L 124.5 140.5 L 124.5 145.0 L 125.5 145.0 L 125.5 144.0 " stroke="black" fill="none" stroke-width="6.0" stroke-linecap="round" stroke-linejoin="round" />
<path d="M 125.5 125.5 L 125.0 125.5 L 123.5 126.0 L 123.0 126.0 L 123.0 126.0 L 125.5 124.5 L 128.0 123.0 L 130.5 122.5 L 132.5 122.0 L 134.0 122.0 L 135.0 122.0 L 135.5 123.5 L 135.5 126.0 L 135.5 129.5 L 135.0 133.5 L 134.5 137.0 L 134.0 139.5 L 134.0 140.0 " stroke="black" fill="none" stroke-width="6.0" stroke-linecap="round" stroke-linejoin="round" />
<path d="M 126.0 145.0 L 126.0 145.0 L 125.0 145.0 L 125.0 144.5 L 126.0 144.0 L 128.5 143.5 L 131.0 143.5 " stroke="black" fill="none" stroke-width="6.0" stroke-linecap="round" stroke-linejoin="round" />
<path d="M 132.5 150.5 L 132.5 150.5 L 132.5 150.5 L 132.5 150.5 L 132.5 150.5 L 133.0 151.5 L 133.0 155.5 L 133.0 161.5 L 133.0 166.5 L 133.5 167.5 " stroke="black" fill="none" stroke-width="6.0" stroke-linecap="round" stroke-linejoin="round" />
<path d="M 133.5 160.0 L 133.5 160.0 L 133.5 160.0 L 133.5 160.0 L 134.0 159.5 L 136.5 158.0 L 139.5 156.5 L 142.0 155.5 L 142.5 155.5 " stroke="black" fill="none" stroke-width="6.0" stroke-linecap="round" stroke-linejoin="round" />
<path d="M 123.5 157.0 L 123.5 157.0 L 123.5 157.0 L 123.5 157.0 L 124.0 159.0 L 124.5 165.0 L 125.0 171.0 L 125.5 175.0 L 125.5 176.0 " stroke="black" fill="none" stroke-width="6.0" stroke-linecap="round" stroke-linejoin="round" />
<path d="M 122.5 182.0 L 122.5 182.0 L 122.0 182.0 L 121.5 182.0 L 121.5 181.0 L 125.0 178.5 L 131.0 174.5 L 138.5 170.5 L 144.0 167.5 L 146.5 166.5 L 147.0 166.5 " stroke="black" fill="none" stroke-width="6.0" stroke-linecap="round" stroke-linejoin="round" />
<path d="M 145.0 129.0 L 145.0 129.5 L 144.0 130.0 L 144.0 130.5 L 147.5 129.5 L 152.5 127.5 L 158.5 125.0 L 163.0 123.5 L 165.5 123.0 L 166.0 123.0 " stroke="black" fill="none" stroke-width="6.0" stroke-linecap="round" stroke-linejoin="round" />
<path d="M 152.5 117.0 L 152.5 117.0 L 153.0 117.0 L 153.5 117.0 L 154.5 119.5 L 155.5 125.5 L 157.5 134.5 L 160.5 143.5 L 165.0 146.5 L 171.0 146.0 L 176.5 143.0 L 180.0 140.5 L 181.5 139.5 L 181.5 138.5 L 181.5 137.5 L 181.5 136.5 L 181.0 136.0 " stroke="black" fill="none" stroke-width="6.0" stroke-linecap="round" stroke-linejoin="round" />
<path d="M 170.0 133.0 L 170.0 133.5 L 169.5 134.5 L 168.5 135.5 L 165.5 138.5 L 160.0 143.5 L 155.5 147.0 L 153.0 148.0 L 152.5 148.0 " stroke="black" fill="none" stroke-width="6.0" stroke-linecap="round" stroke-linejoin="round" />
<path d="M 174.5 113.0 L 174.5 114.0 L 174.5 114.5 L 174.5 116.0 L 176.0 117.5 L 177.5 119.5 L 179.0 120.5 L 179.5 120.5 " stroke="black" fill="none" stroke-width="6.0" stroke-linecap="round" stroke-linejoin="round" />
<path d="M 154.0 168.0 L 154.0 168.0 L 155.0 167.5 L 156.0 167.0 L 159.0 166.0 L 163.5 164.0 L 167.5 162.0 L 169.5 161.0 L 170.0 160.5 " stroke="black" fill="none" stroke-width="6.0" stroke-linecap="round" stroke-linejoin="round" />
<path d="M 157.5 157.0 L 157.5 157.0 L 157.5 157.0 L 158.0 157.0 L 158.0 157.0 L 158.5 157.0 L 159.5 160.5 L 162.0 169.0 L 166.5 180.0 L 171.0 187.0 L 175.0 188.0 L 178.5 187.5 L 180.0 186.5 L 181.0 185.5 L 181.5 184.5 L 182.0 182.5 L 182.0 180.0 L 182.0 177.0 L 182.0 175.5 L 181.5 174.5 L 181.0 174.5 L 181.0 174.5 " stroke="black" fill="none" stroke-width="6.0" stroke-linecap="round" stroke-linejoin="round" />
<path d="M 173.5 170.0 L 173.5 170.0 L 174.0 170.0 L 174.0 170.0 L 173.5 171.0 L 169.0 175.5 L 162.5 183.0 L 157.5 187.0 L 156.5 187.5 L 156.5 187.0 " stroke="black" fill="none" stroke-width="6.0" stroke-linecap="round" stroke-linejoin="round" />
<path d="M 181.0 154.5 L 181.0 155.5 L 181.0 155.5 L 182.0 156.0 L 183.5 157.0 L 185.5 158.0 L 187.5 159.0 " stroke="black" fill="none" stroke-width="6.0" stroke-linecap="round" stroke-linejoin="round" />
</svg>