<svg xmlns="http://www.w3.org/2000/svg" width="300" height="300" viewBox="0 0 300 300">
<path d="M 133.0 108.5 L 133.5 108.5 L 133.5 108.0 L 134.0 107.5 L 134.0 107.5 L 134.0 107.5 L 133.0 110.0 L 130.5 115.0 L 126.0 123.0 L 121.5 130.0 L 119.5 132.5 L 119.5 132.5 " stroke="black" fill="none" stroke-width="6.0" stroke-linecap="round" stroke-linejoin="round" />
<path d="M 130.0 122.5 L 130.0 122.0 L 131.0 121.0 L 131.0 120.5 L 131.0 120.5 L 131.5 120.5 L 132.0 121.5 L 132.5 126.0 L 133.5 137.0 L 133.5 153.0 L 133.5 165.5 L 133.5 172.0 L 133.5 175.5 L 133.5 176.5 L 133.5 175.5 L 132.5 172.5 L 132.5 171.5 " stroke="black" fill="none" stroke-width="6.0" stroke-linecap="round" stroke-linejoin="round" />
<path d="M 149.0 106.5 L 149.0 106.0 L 150.0 104.5 L 150.0 103.5 L 150.5 102.5 L 150.5 102.5 L 150.5 103.0 L 149.5 105.5 L 148.0 109.0 L 147.0 112.0 L 146.0 114.0 L 145.5 114.5 " stroke="black" fill="none" stroke-width="6.0" stroke-linecap="round" stroke-linejoin="round" />
<path d="M 148.5 108.5 L 148.5 109.0 L 148.5 109.5 L 148.5 109.5 L 149.5 109.5 L 153.0 108.0 L 157.0 107.0 L 160.5 106.0 L 163.0 105.5 L 164.0 105.0 L 165.0 105.0 L 165.0 105.5 L 165.5 106.0 L 165.5 106.5 L 165.5 107.5 L 165.5 110.0 L 165.0 112.5 L 164.0 115.0 L 163.0 117.0 L 162.5 118.0 " stroke="black" fill="none" stroke-width="6.0" stroke-linecap="round" stroke-linejoin="round" />
<path d="M 145.0 125.5 L 145.5 124.0 L 145.5 123.5 L 146.0 123.5 L 146.0 124.0 L 146.5 127.0 L 147.0 130.0 L 147.5 132.5 L 147.5 134.0 L 147.5 134.5 L 147.0 134.0 " stroke="black" fill="none" stroke-width="6.0" stroke-linecap="round" stroke-linejoin="round" />
<path d="M 146.0 121.5 L 146.5 120.5 L 147.0 120.5 L 147.5 120.5 L 148.5 120.5 L 150.5 120.5 L 153.5 120.5 L 158.0 120.0 L 163.5 119.5 L 169.0 119.0 L 174.5 119.0 L 177.5 119.0 L 179.0 119.0 L 179.5 119.0 L 179.5 119.0 L 179.0 119.0 L 179.0 119.0 L 178.5 119.0 L 178.5 119.5 L 178.0 121.0 L 178.0 123.0 L 177.0 125.5 L 176.5 128.0 L 176.5 129.5 L 176.5 130.5 L 176.5 130.5 " stroke="black" fill="none" stroke-width="6.0" stroke-linecap="round" stroke-linejoin="round" />
<path d="M 161.5 124.0 L 161.5 123.5 L 161.0 123.0 L 161.0 123.0 L 161.0 123.0 L 161.0 124.0 L 161.0 126.0 L 161.0 129.0 L 161.0 132.0 L 161.0 133.5 " stroke="black" fill="none" stroke-width="6.0" stroke-linecap="round" stroke-linejoin="round" />
<path d="M 150.0 135.0 L 150.5 135.5 L 151.0 136.0 L 152.0 136.0 L 154.5 136.0 L 159.0 135.0 L 165.5 134.0 L 171.5 133.5 L 176.5 133.5 L 177.5 133.5 " stroke="black" fill="none" stroke-width="6.0" stroke-linecap="round" stroke-linejoin="round" />
<path d="M 159.0 135.5 L 159.0 135.5 L 159.5 135.5 L 159.5 135.5 L 160.0 135.5 L 160.0 135.5 L 160.0 136.5 L 159.5 139.0 L 156.0 144.5 L 151.0 151.5 L 146.5 156.5 L 144.0 158.5 L 143.5 158.5 L 143.5 158.5 " stroke="black" fill="none" stroke-width="6.0" stroke-linecap="round" stroke-linejoin="round" />
<path d="M 159.5 142.0 L 159.5 142.0 L 159.0 141.5 L 159.0 141.0 L 159.0 141.0 L 160.0 141.0 L 162.0 143.0 L 164.0 145.0 L 166.0 149.0 L 168.0 155.5 L 169.0 164.0 L 169.5 172.0 L 169.5 178.5 L 168.0 183.0 L 166.0 188.0 L 164.0 191.0 L 162.0 191.5 L 159.5 191.5 L 157.0 189.0 L 155.5 187.0 " stroke="black" fill="none" stroke-width="6.0" stroke-linecap="round" stroke-linejoin="round" />
<path d="M 162.0 151.0 L 162.0 151.0 L 162.0 151.0 L 162.0 151.0 L 162.0 151.0 L 162.0 151.0 L 162.0 151.5 L 161.0 153.5 L 158.5 157.5 L 155.5 161.5 L 153.5 163.5 L 153.5 163.5 " stroke="black" fill="none" stroke-width="6.0" stroke-linecap="round" stroke-linejoin="round" />
<path d="M 165.0 159.5 L 165.0 160.5 L 165.0 162.0 L 165.0 163.0 L 164.0 165.0 L 162.0 168.0 L 158.5 171.5 L 155.5 174.0 L 153.5 175.0 " stroke="black" fill="none" stroke-width="6.0" stroke-linecap="round" stroke-linejoin="round" />
<path d="M 179.0 147.5 L 179.0 147.5 L 179.5 146.5 L 179.5 146.5 L 179.5 146.5 L 179.5 146.5 L 178.5 148.5 L 176.5 151.5 L 174.5 154.5 L 174.5 155.0 " stroke="black" fill="none" stroke-width="6.0" stroke-linecap="round" stroke-linejoin="round" />
<path d="M 171.5 154.5 L 171.5 155.0 L 172.0 156.0 L 173.0 157.0 L 176.0 160.5 L 180.5 166.5 L 186.0 172.0 L 190.0 174.5 L 192.0 175.0 " stroke="black" fill="none" stroke-width="6.0" stroke-linecap="round" stroke-linejoin="round" />
</svg>