<svg xmlns="http://www.w3.org/2000/svg" width="300" height="300" viewBox="0 0 300 300">
<path d="M 119.0 113.5 L 119.0 113.0 L 119.0 112.5 L 119.0 112.0 L 119.5 112.5 L 120.0 119.0 L 120.0 132.5 L 119.5 147.5 L 119.5 154.0 L 119.5 154.5 L 119.5 153.5 " stroke="black" fill="none" stroke-width="7.0" stroke-linecap="round" stroke-linejoin="round" />
<path d="M 123.0 116.5 L 121.0 117.0 L 120.5 117.0 L 120.0 117.0 L 122.5 116.5 L 126.5 116.0 L 130.5 115.5 L 134.5 115.5 L 138.5 116.0 L 142.0 116.0 L 143.5 116.5 L 144.0 116.5 L 143.5 116.5 L 143.5 117.0 L 143.0 118.5 L 143.0 120.0 L 143.0 122.5 L 142.5 125.0 L 142.0 129.5 L 141.5 136.5 L 141.0 144.0 L 141.0 151.0 L 141.0 156.0 L 141.5 158.5 L 141.0 159.0 L 139.5 159.0 L 137.0 158.0 L 135.0 156.0 L 133.5 154.5 " stroke="black" fill="none" stroke-width="7.0" stroke-linecap="round" stroke-linejoin="round" />
<path d="M 131.0 103.5 L 131.0 101.5 L 131.0 100.0 L 131.0 99.0 L 131.0 99.0 L 131.0 101.0 L 131.0 107.5 L 130.5 122.0 L 129.0 145.0 L 128.5 161.5 L 128.5 170.0 L 129.0 174.5 L 129.0 174.5 " stroke="black" fill="none" stroke-width="7.0" stroke-linecap="round" stroke-linejoin="round" />
<path d="M 156.0 101.5 L 156.5 100.0 L 156.5 99.5 L 156.5 99.0 L 156.5 99.5 L 156.5 103.5 L 156.0 112.0 L 155.5 120.5 L 155.5 125.0 L 155.5 126.0 " stroke="black" fill="none" stroke-width="7.0" stroke-linecap="round" stroke-linejoin="round" />
<path d="M 156.5 100.0 L 156.0 100.0 L 155.0 100.0 L 154.5 100.0 L 155.5 100.0 L 158.0 100.0 L 161.0 100.0 L 165.0 100.0 L 170.0 100.5 L 174.5 101.0 L 178.0 102.0 L 178.5 102.5 L 177.5 103.5 " stroke="black" fill="none" stroke-width="7.0" stroke-linecap="round" stroke-linejoin="round" />
<path d="M 160.0 112.5 L 159.0 112.5 L 158.0 112.5 L 158.0 112.5 L 159.5 112.5 L 162.5 112.5 L 166.0 112.5 L 169.5 113.0 L 172.0 113.5 " stroke="black" fill="none" stroke-width="7.0" stroke-linecap="round" stroke-linejoin="round" />
<path d="M 157.0 124.5 L 157.0 124.5 L 157.5 124.5 L 158.5 124.5 L 159.5 124.0 L 162.0 123.5 L 165.0 123.5 L 168.5 123.5 L 170.0 124.0 " stroke="black" fill="none" stroke-width="7.0" stroke-linecap="round" stroke-linejoin="round" />
<path d="M 149.0 135.5 L 149.0 136.0 L 149.0 136.5 L 149.5 137.0 L 152.5 137.0 L 158.0 136.5 L 165.5 135.5 L 173.0 134.5 L 176.0 134.0 " stroke="black" fill="none" stroke-width="7.0" stroke-linecap="round" stroke-linejoin="round" />
<path d="M 155.5 135.5 L 155.5 135.5 L 155.5 135.5 L 155.0 136.0 L 155.0 139.5 L 155.5 149.0 L 155.5 161.0 L 154.0 171.5 L 153.5 177.0 L 153.5 178.0 L 154.5 177.5 L 156.0 175.0 L 158.5 172.0 L 161.0 170.0 L 163.5 168.5 L 166.5 168.0 " stroke="black" fill="none" stroke-width="7.0" stroke-linecap="round" stroke-linejoin="round" />
<path d="M 178.5 150.0 L 178.5 150.5 L 178.0 150.5 L 177.5 151.0 L 177.5 151.5 L 176.5 153.0 L 175.5 155.5 L 173.5 158.5 L 172.5 159.5 " stroke="black" fill="none" stroke-width="7.0" stroke-linecap="round" stroke-linejoin="round" />
<path d="M 167.5 148.5 L 166.5 148.5 L 165.0 149.5 L 165.0 151.0 L 168.0 155.0 L 172.5 162.0 L 178.5 169.0 L 184.5 174.5 L 190.5 176.0 " stroke="black" fill="none" stroke-width="7.0" stroke-linecap="round" stroke-linejoin="round" />
</svg>