<svg xmlns="http://www.w3.org/2000/svg" width="300" height="300" viewBox="0 0 300 300">
<path d="M 151.5 115.5 L 151.5 115.5 L 151.5 115.0 L 152.0 114.5 L 152.5 114.0 L 152.5 114.0 L 152.5 114.0 L 152.5 116.5 L 151.0 122.0 L 147.5 131.5 L 142.5 142.5 L 138.5 149.5 L 137.0 153.5 L 136.0 155.0 L 135.0 156.0 L 135.0 156.5 L 134.5 156.5 L 134.5 156.5 L 134.5 156.5 L 134.5 156.5 L 134.5 156.5 L 135.5 157.0 L 137.0 157.5 L 138.5 158.5 L 141.5 161.0 L 145.5 165.5 L 150.5 171.5 L 155.5 178.0 L 159.5 183.0 L 163.0 187.0 L 166.0 189.0 L 167.5 190.0 L 168.5 190.0 L 168.5 190.0 L 169.0 188.5 " stroke="black" fill="none" stroke-width="6.0" stroke-linecap="round" stroke-linejoin="round" />
<path d="M 164.0 144.5 L 164.0 143.0 L 163.5 142.0 L 163.0 141.5 L 163.0 141.5 L 162.5 143.0 L 161.0 146.5 L 157.5 154.0 L 151.0 165.5 L 144.0 177.0 L 139.0 183.0 L 137.0 184.5 L 136.0 183.0 L 136.0 182.0 " stroke="black" fill="none" stroke-width="6.0" stroke-linecap="round" stroke-linejoin="round" />
<path d="M 127.0 149.5 L 126.5 149.0 L 126.0 148.5 L 128.0 148.5 L 134.5 149.0 L 147.5 149.5 L 162.5 149.0 L 174.5 147.0 L 180.5 145.0 L 181.0 145.0 " stroke="black" fill="none" stroke-width="6.0" stroke-linecap="round" stroke-linejoin="round" />
</svg>