<svg xmlns="http://www.w3.org/2000/svg" width="300" height="300" viewBox="0 0 300 300">
<path d="M 150.0 113.0 L 150.0 112.5 L 151.0 111.0 L 151.5 110.5 L 151.5 110.0 L 152.0 110.0 L 152.0 111.0 L 151.0 115.0 L 149.5 120.0 L 147.5 126.0 L 143.5 133.0 L 139.5 140.0 L 137.5 144.0 L 137.0 146.0 L 137.0 147.0 L 137.0 147.5 L 137.0 149.0 L 137.0 150.0 L 137.0 150.5 L 137.0 150.5 L 137.0 150.5 L 137.0 150.5 L 137.0 150.5 L 137.0 150.5 L 137.5 150.5 L 139.0 151.5 L 141.5 154.5 L 145.5 161.5 L 150.0 172.5 L 154.5 183.0 L 157.0 188.0 L 158.5 189.5 L 159.5 190.5 L 160.5 191.0 L 161.5 192.0 L 162.0 191.0 " stroke="black" fill="none" stroke-width="6.0" stroke-linecap="round" stroke-linejoin="round" />
<path d="M 161.5 139.0 L 162.0 139.5 L 162.5 139.5 L 163.0 139.5 L 163.0 139.5 L 163.0 140.0 L 161.5 142.5 L 156.5 150.5 L 148.5 164.5 L 140.5 177.0 L 136.0 183.0 L 135.5 183.5 L 135.0 181.5 " stroke="black" fill="none" stroke-width="6.0" stroke-linecap="round" stroke-linejoin="round" />
<path d="M 130.0 142.5 L 129.5 142.0 L 128.5 141.5 L 128.5 141.5 L 132.0 141.5 L 140.0 141.5 L 151.5 141.5 L 162.5 142.5 L 169.0 143.0 L 173.0 143.0 L 173.5 143.0 L 173.5 143.0 " stroke="black" fill="none" stroke-width="6.0" stroke-linecap="round" stroke-linejoin="round" />
</svg>