<svg xmlns="http://www.w3.org/2000/svg" width="300" height="300" viewBox="0 0 300 300">
<path d="M 150.5 116.0 L 150.5 116.0 L 150.5 115.5 L 150.5 115.0 L 150.5 114.0 L 150.5 113.5 L 150.5 113.5 L 150.5 114.5 L 150.0 117.5 L 148.5 121.5 L 147.0 126.5 L 144.5 132.0 L 142.0 137.0 L 140.5 140.5 L 139.0 143.0 L 137.0 145.5 L 136.0 147.5 L 135.0 149.5 L 134.5 150.5 L 134.5 151.0 L 134.0 151.5 L 134.0 151.5 L 134.0 151.5 L 134.0 151.5 L 134.0 151.5 L 134.0 151.5 L 134.0 151.5 L 134.0 151.5 L 134.0 151.5 L 134.0 151.5 L 134.0 151.5 L 134.0 151.5 L 135.0 151.5 L 137.0 152.5 L 139.5 154.5 L 142.5 157.0 L 146.0 160.5 L 149.5 164.0 L 153.0 168.0 L 156.5 173.0 L 160.0 177.0 L 162.5 179.5 L 163.5 180.0 L 164.0 179.5 L 164.0 179.0 L 164.0 179.0 L 164.0 178.5 L 164.0 178.0 L 164.0 177.5 " stroke="black" fill="none" stroke-width="6.0" stroke-linecap="round" stroke-linejoin="round" />
<path d="M 164.0 139.0 L 164.0 139.0 L 164.0 139.0 L 164.0 139.0 L 164.0 139.0 L 164.0 139.0 L 164.0 139.0 L 163.0 141.0 L 160.5 146.0 L 155.0 154.5 L 148.5 163.5 L 143.5 170.0 L 140.0 173.5 L 139.0 175.0 L 139.0 175.0 L 138.5 175.0 L 138.5 175.0 " stroke="black" fill="none" stroke-width="6.0" stroke-linecap="round" stroke-linejoin="round" />
<path d="M 123.5 146.0 L 122.5 146.0 L 122.0 146.0 L 122.0 146.0 L 125.0 146.5 L 130.0 146.5 L 139.0 145.5 L 151.5 144.0 L 163.0 142.5 L 170.5 141.5 L 173.5 141.0 L 174.0 141.5 L 174.0 141.5 L 173.5 141.5 L 173.5 141.5 L 173.0 141.5 " stroke="black" fill="none" stroke-width="6.0" stroke-linecap="round" stroke-linejoin="round" />
</svg>