<svg xmlns="http://www.w3.org/2000/svg" width="300" height="300" viewBox="0 0 300 300">
<path d="M 128.0 106.0 L 128.0 105.5 L 128.0 105.5 L 128.0 105.5 L 127.0 110.5 L 123.5 120.0 L 118.5 129.5 L 117.0 132.0 L 117.0 131.0 L 118.0 129.5 " stroke="black" fill="none" stroke-width="6.0" stroke-linecap="round" stroke-linejoin="round" />
<path d="M 125.0 119.5 L 122.5 120.0 L 122.5 120.0 L 124.0 120.0 L 130.0 120.0 L 140.0 118.0 L 153.5 115.5 L 167.0 113.0 L 175.0 111.5 L 177.5 112.0 L 174.5 114.0 " stroke="black" fill="none" stroke-width="6.0" stroke-linecap="round" stroke-linejoin="round" />
<path d="M 119.0 146.5 L 119.0 146.0 L 119.5 145.5 L 122.5 144.5 L 133.5 142.5 L 150.0 141.0 L 164.0 140.5 L 174.0 140.0 L 179.5 140.0 L 180.0 140.0 " stroke="black" fill="none" stroke-width="6.0" stroke-linecap="round" stroke-linejoin="round" />
<path d="M 143.5 130.5 L 143.5 132.0 L 143.0 133.0 L 143.0 137.5 L 143.5 144.5 L 144.0 151.5 L 145.0 155.0 L 146.0 154.5 " stroke="black" fill="none" stroke-width="6.0" stroke-linecap="round" stroke-linejoin="round" />
<path d="M 159.5 130.0 L 159.0 130.0 L 158.5 130.0 L 158.0 131.5 L 158.5 138.0 L 159.0 146.5 L 159.5 152.5 L 160.0 154.5 L 160.0 154.5 " stroke="black" fill="none" stroke-width="6.0" stroke-linecap="round" stroke-linejoin="round" />
<path d="M 131.5 135.0 L 131.5 135.0 L 131.5 135.0 L 131.5 135.5 L 131.5 138.5 L 131.5 146.0 L 133.0 153.5 L 134.5 157.0 " stroke="black" fill="none" stroke-width="6.0" stroke-linecap="round" stroke-linejoin="round" />
<path d="M 171.5 129.0 L 171.5 129.0 L 170.5 129.0 L 170.5 129.0 L 170.5 130.0 L 170.5 133.5 L 171.5 139.5 L 172.0 145.0 L 172.5 148.5 L 173.0 150.5 " stroke="black" fill="none" stroke-width="6.0" stroke-linecap="round" stroke-linejoin="round" />
<path d="M 124.5 166.0 L 124.0 166.0 L 123.0 166.0 L 123.5 165.0 L 128.0 163.0 L 138.5 160.5 L 153.0 159.5 L 166.5 159.0 L 174.5 159.0 L 176.0 160.0 L 175.5 161.0 L 174.5 161.0 " stroke="black" fill="none" stroke-width="6.0" stroke-linecap="round" stroke-linejoin="round" />
<path d="M 131.0 175.5 L 131.0 176.0 L 130.5 176.5 L 130.0 178.0 L 129.0 181.0 L 128.5 185.5 L 128.0 188.5 L 128.0 189.0 " stroke="black" fill="none" stroke-width="6.0" stroke-linecap="round" stroke-linejoin="round" />
<path d="M 143.5 175.5 L 142.5 176.0 L 142.0 176.5 L 142.0 177.0 L 143.0 178.5 L 145.0 180.5 L 146.5 182.5 L 148.5 185.0 " stroke="black" fill="none" stroke-width="6.0" stroke-linecap="round" stroke-linejoin="round" />
<path d="M 158.0 174.0 L 158.0 174.0 L 156.5 174.0 L 156.0 174.0 L 157.0 174.5 L 159.5 176.0 L 162.0 178.5 L 164.0 180.5 L 164.5 181.0 " stroke="black" fill="none" stroke-width="6.0" stroke-linecap="round" stroke-linejoin="round" />
<path d="M 172.0 172.0 L 172.0 172.0 L 172.0 172.0 L 173.5 173.0 L 177.0 175.5 L 181.0 179.0 L 185.5 182.0 L 187.0 182.5 " stroke="black" fill="none" stroke-width="6.0" stroke-linecap="round" stroke-linejoin="round" />
</svg>