<svg xmlns="http://www.w3.org/2000/svg" width="300" height="300" viewBox="0 0 300 300">
<path d="M 148.5 116.0 L 149.0 115.5 L 150.0 115.0 L 150.0 114.5 L 150.5 114.5 L 150.5 114.5 L 150.5 117.0 L 149.5 121.5 L 147.0 129.5 L 142.5 140.5 L 138.5 150.5 L 134.5 157.0 L 131.5 162.0 L 129.5 165.5 L 127.5 168.0 L 126.0 170.5 L 125.0 172.0 L 124.5 173.0 L 124.5 173.0 " stroke="black" fill="none" stroke-width="6.0" stroke-linecap="round" stroke-linejoin="round" />
<path d="M 144.5 149.5 L 144.5 149.0 L 144.0 148.5 L 144.0 148.5 L 144.0 148.5 L 145.0 149.5 L 148.5 154.0 L 154.0 160.5 L 161.0 168.0 L 167.0 172.0 L 172.0 173.0 L 172.5 173.0 L 173.0 174.0 L 173.0 174.5 " stroke="black" fill="none" stroke-width="6.0" stroke-linecap="round" stroke-linejoin="round" />
</svg>