<svg xmlns="http://www.w3.org/2000/svg" width="300" height="300" viewBox="0 0 300 300">
<path d="M 115.0 112.0 L 115.0 112.0 L 114.5 112.0 L 114.5 112.0 L 115.0 111.5 L 117.0 112.5 L 121.0 116.0 L 124.5 120.5 L 126.0 123.0 L 126.5 124.0 " stroke="black" fill="none" stroke-width="6.0" stroke-linecap="round" stroke-linejoin="round" />
<path d="M 114.0 131.5 L 114.0 131.5 L 113.5 132.0 L 113.5 132.5 L 114.0 133.5 L 117.0 136.0 L 120.5 140.0 L 123.0 143.5 L 125.0 145.5 L 125.5 146.5 " stroke="black" fill="none" stroke-width="6.0" stroke-linecap="round" stroke-linejoin="round" />
<path d="M 114.0 175.0 L 114.0 177.0 L 113.0 180.5 L 112.0 182.0 L 112.5 181.0 L 115.0 177.0 L 119.0 171.0 L 122.5 166.0 L 125.0 162.5 L 126.0 161.5 " stroke="black" fill="none" stroke-width="6.0" stroke-linecap="round" stroke-linejoin="round" />
<path d="M 141.5 119.0 L 141.0 119.0 L 140.0 119.0 L 139.5 119.0 L 139.5 119.0 L 141.5 119.0 L 146.0 118.0 L 151.5 117.5 L 157.5 117.0 L 163.5 117.0 L 167.0 116.5 L 168.0 116.5 L 168.5 116.5 L 168.5 116.5 L 168.5 117.0 L 168.5 118.0 L 168.5 120.0 L 168.5 122.5 L 168.0 124.5 L 167.5 126.0 L 166.5 127.5 " stroke="black" fill="none" stroke-width="6.0" stroke-linecap="round" stroke-linejoin="round" />
<path d="M 137.0 120.0 L 137.5 119.0 L 138.0 118.5 L 138.0 118.0 L 138.5 119.5 L 139.0 126.0 L 138.0 139.0 L 134.5 155.0 L 131.5 166.0 L 130.0 170.0 L 130.0 170.0 L 130.0 167.0 " stroke="black" fill="none" stroke-width="6.0" stroke-linecap="round" stroke-linejoin="round" />
<path d="M 151.0 105.5 L 151.0 105.0 L 151.0 104.5 L 151.0 104.0 L 151.5 104.0 L 152.5 106.5 L 153.0 112.5 L 153.5 121.0 L 153.5 127.5 L 153.5 129.5 L 153.5 129.5 " stroke="black" fill="none" stroke-width="6.0" stroke-linecap="round" stroke-linejoin="round" />
<path d="M 147.0 137.5 L 145.5 138.0 L 145.5 138.0 L 146.5 137.5 L 150.0 136.0 L 154.0 134.0 L 157.0 133.0 L 159.5 133.0 L 161.0 134.5 L 161.5 137.0 L 161.0 140.5 L 159.5 146.0 L 156.5 153.0 L 152.5 162.0 L 148.5 170.0 L 145.5 175.0 L 144.0 177.0 L 144.0 176.5 L 144.0 175.0 " stroke="black" fill="none" stroke-width="6.0" stroke-linecap="round" stroke-linejoin="round" />
<path d="M 147.0 147.5 L 147.0 146.5 L 147.0 146.0 L 149.0 146.5 L 153.5 152.0 L 162.0 161.0 L 170.0 168.5 L 176.0 171.5 L 180.0 172.0 L 180.5 172.0 " stroke="black" fill="none" stroke-width="6.0" stroke-linecap="round" stroke-linejoin="round" />
</svg>