<svg xmlns="http://www.w3.org/2000/svg" width="300" height="300" viewBox="0 0 300 300">
<path d="M 136.0 113.5 L 136.0 113.5 L 137.0 113.0 L 137.5 113.0 L 138.0 112.5 L 138.0 113.0 L 137.5 116.0 L 134.5 122.0 L 128.5 130.5 L 122.0 138.0 L 117.0 142.5 L 115.5 143.5 L 115.0 143.0 L 115.0 142.5 " stroke="black" fill="none" stroke-width="6.0" stroke-linecap="round" stroke-linejoin="round" />
<path d="M 128.5 134.5 L 128.5 134.5 L 128.5 134.5 L 128.5 134.5 L 128.5 135.0 L 130.0 138.0 L 132.5 146.5 L 134.0 160.5 L 135.0 174.0 L 136.0 181.5 L 137.0 182.0 L 137.0 179.0 " stroke="black" fill="none" stroke-width="6.0" stroke-linecap="round" stroke-linejoin="round" />
<path d="M 144.0 126.0 L 144.0 126.0 L 143.0 126.0 L 143.5 126.0 L 147.5 126.0 L 155.5 125.0 L 164.5 124.0 L 171.5 123.0 L 174.0 123.0 L 174.5 123.0 L 174.0 123.0 " stroke="black" fill="none" stroke-width="6.0" stroke-linecap="round" stroke-linejoin="round" />
<path d="M 145.0 142.0 L 144.5 141.5 L 144.0 141.5 L 144.0 141.5 L 144.0 141.5 L 145.5 144.0 L 147.0 147.0 L 148.5 149.5 L 149.0 150.5 " stroke="black" fill="none" stroke-width="6.0" stroke-linecap="round" stroke-linejoin="round" />
<path d="M 146.5 139.5 L 145.5 140.0 L 144.0 140.5 L 144.0 140.5 L 146.0 140.5 L 151.0 139.0 L 157.5 137.0 L 164.5 135.0 L 171.5 133.5 L 175.5 133.5 L 177.5 135.0 L 178.0 136.5 L 178.0 138.5 L 178.0 140.5 L 178.0 143.5 L 177.5 146.0 L 177.0 148.5 L 176.0 150.0 L 175.0 150.0 L 175.0 150.0 " stroke="black" fill="none" stroke-width="6.0" stroke-linecap="round" stroke-linejoin="round" />
<path d="M 153.5 154.5 L 152.0 154.5 L 150.5 155.5 L 151.0 155.5 L 155.0 155.0 L 162.5 153.0 L 169.0 151.0 L 173.5 149.0 L 174.0 148.0 " stroke="black" fill="none" stroke-width="6.0" stroke-linecap="round" stroke-linejoin="round" />
<path d="M 167.5 111.0 L 167.5 111.0 L 167.5 111.0 L 167.5 112.0 L 167.5 115.5 L 167.5 125.5 L 166.5 140.5 L 164.0 154.5 L 160.0 165.0 L 156.0 172.0 L 154.0 176.0 L 153.0 178.0 L 152.5 178.5 L 151.5 178.5 " stroke="black" fill="none" stroke-width="6.0" stroke-linecap="round" stroke-linejoin="round" />
<path d="M 148.0 161.5 L 147.5 161.0 L 146.5 161.0 L 146.5 161.0 L 150.0 162.5 L 157.0 165.5 L 166.5 169.0 L 175.5 171.0 L 181.5 172.0 L 183.0 172.0 " stroke="black" fill="none" stroke-width="6.0" stroke-linecap="round" stroke-linejoin="round" />
</svg>