<svg xmlns="http://www.w3.org/2000/svg" width="300" height="300" viewBox="0 0 300 300">
<path d="M 127.5 107.0 L 127.5 107.0 L 127.5 107.0 L 127.5 107.0 L 128.0 107.0 L 128.0 107.0 L 128.0 107.0 L 128.0 108.5 L 125.5 114.0 L 120.0 123.5 L 113.5 132.0 L 110.5 135.0 L 110.5 134.5 L 110.5 133.5 " stroke="black" fill="none" stroke-width="6.0" stroke-linecap="round" stroke-linejoin="round" />
<path d="M 119.5 126.5 L 119.5 127.0 L 119.5 127.0 L 120.0 127.5 L 120.0 127.5 L 120.5 129.0 L 121.0 133.0 L 121.5 142.5 L 121.5 157.5 L 121.0 172.0 L 121.0 181.5 L 121.0 186.0 L 121.0 186.5 L 121.0 183.5 " stroke="black" fill="none" stroke-width="6.0" stroke-linecap="round" stroke-linejoin="round" />
<path d="M 136.5 125.0 L 136.5 124.5 L 136.5 124.0 L 136.5 124.0 L 138.0 123.5 L 142.5 123.5 L 150.5 124.5 L 158.0 125.0 L 162.5 125.0 L 164.5 125.0 L 165.5 124.0 L 165.5 124.0 L 165.0 124.0 " stroke="black" fill="none" stroke-width="6.0" stroke-linecap="round" stroke-linejoin="round" />
<path d="M 152.0 113.0 L 152.0 113.0 L 153.0 113.0 L 153.5 113.0 L 154.0 113.0 L 154.0 114.0 L 153.5 117.5 L 151.0 123.5 L 146.5 131.0 L 141.0 137.5 L 136.5 141.5 L 135.0 142.5 L 135.0 142.0 L 135.0 140.0 " stroke="black" fill="none" stroke-width="6.0" stroke-linecap="round" stroke-linejoin="round" />
<path d="M 151.5 127.0 L 151.0 127.0 L 150.5 127.5 L 150.5 128.0 L 151.5 130.0 L 154.0 132.5 L 158.0 136.0 L 163.0 139.5 L 168.0 141.0 L 171.0 141.5 " stroke="black" fill="none" stroke-width="6.0" stroke-linecap="round" stroke-linejoin="round" />
<path d="M 134.0 150.5 L 134.0 151.0 L 134.0 151.0 L 134.0 151.0 L 138.0 151.0 L 147.5 151.0 L 158.0 151.5 L 164.5 153.0 L 168.0 155.0 L 169.0 155.5 " stroke="black" fill="none" stroke-width="6.0" stroke-linecap="round" stroke-linejoin="round" />
<path d="M 141.0 165.5 L 141.0 165.0 L 140.5 163.0 L 140.0 162.5 L 140.0 162.5 L 140.0 163.5 L 140.0 167.0 L 140.0 171.0 L 140.5 174.5 L 140.5 175.5 L 140.5 174.0 L 140.5 171.0 L 140.5 167.5 L 140.5 165.5 L 140.5 164.0 L 142.0 163.0 L 145.0 163.0 L 148.0 163.5 L 150.5 165.0 L 151.5 167.5 L 151.5 170.5 L 149.5 173.5 L 147.0 176.0 L 145.0 177.0 L 143.0 177.5 " stroke="black" fill="none" stroke-width="6.0" stroke-linecap="round" stroke-linejoin="round" />
<path d="M 141.0 175.5 L 141.0 176.0 L 141.0 177.0 L 141.0 177.0 L 142.0 177.0 L 145.0 176.0 L 148.5 175.0 L 151.5 174.0 " stroke="black" fill="none" stroke-width="6.0" stroke-linecap="round" stroke-linejoin="round" />
<path d="M 160.5 156.5 L 160.5 156.5 L 160.0 157.0 L 160.0 157.5 L 160.0 157.5 L 160.0 157.5 L 160.0 158.5 L 160.0 162.0 L 160.5 168.5 L 161.0 175.5 L 161.5 183.0 L 162.0 188.5 L 162.0 191.5 L 161.0 193.0 L 159.0 193.0 L 157.0 193.0 L 155.0 192.0 L 153.5 191.0 " stroke="black" fill="none" stroke-width="6.0" stroke-linecap="round" stroke-linejoin="round" />
</svg>