<svg xmlns="http://www.w3.org/2000/svg" width="300" height="300" viewBox="0 0 300 300">
<path d="M 131.5 111.0 L 131.5 110.5 L 132.0 110.0 L 132.0 109.5 L 132.5 109.5 L 133.0 110.5 L 133.5 115.5 L 133.5 124.5 L 131.5 138.0 L 129.5 152.5 L 127.5 164.0 L 127.0 169.5 L 127.0 171.5 L 127.0 171.5 L 127.0 170.5 " stroke="black" fill="none" stroke-width="6.0" stroke-linecap="round" stroke-linejoin="round" />
<path d="M 130.5 112.0 L 130.5 112.5 L 129.5 113.0 L 129.5 113.0 L 129.5 113.0 L 132.5 112.5 L 137.0 111.5 L 142.0 111.5 L 146.5 111.5 L 150.0 111.5 L 152.5 111.5 L 155.0 111.5 L 157.5 111.0 L 159.0 111.0 L 160.0 110.5 L 161.0 110.5 L 161.5 110.5 L 162.0 110.5 L 162.5 110.5 L 163.0 110.5 L 163.0 110.5 L 163.5 110.5 L 163.5 110.5 L 164.0 110.5 L 164.5 110.5 L 164.5 110.5 L 165.0 110.5 L 165.5 110.5 L 165.5 110.5 L 166.0 110.5 L 166.0 110.5 L 166.5 110.5 L 166.5 110.5 L 166.5 110.5 L 167.0 110.5 L 167.0 110.5 L 167.0 110.5 L 167.5 110.5 L 167.5 110.5 L 167.5 110.5 L 168.0 110.5 L 168.0 110.5 L 168.0 110.5 L 168.0 110.5 L 168.0 110.5 L 168.0 111.0 L 168.0 112.0 L 168.0 114.5 L 168.0 117.5 L 168.0 121.5 L 168.0 126.0 L 168.0 131.5 L 168.0 137.0 L 168.0 142.0 L 168.0 147.0 L 168.0 153.0 L 168.0 159.0 L 168.5 164.5 L 170.0 169.0 L 171.5 172.5 L 173.5 174.5 L 176.0 175.0 L 179.0 174.5 L 182.5 172.0 L 184.5 169.0 L 186.0 166.0 L 186.5 162.5 L 186.5 162.0 " stroke="black" fill="none" stroke-width="6.0" stroke-linecap="round" stroke-linejoin="round" />
<path d="M 144.0 127.5 L 143.0 127.5 L 141.5 127.5 L 141.0 127.5 L 143.0 127.0 L 146.5 127.0 L 150.5 126.5 L 153.5 126.5 L 155.5 126.0 L 156.0 126.0 " stroke="black" fill="none" stroke-width="6.0" stroke-linecap="round" stroke-linejoin="round" />
<path d="M 144.5 140.0 L 143.0 140.0 L 142.5 140.0 L 142.0 141.0 L 142.0 143.5 L 143.0 147.5 L 143.5 150.5 L 144.0 151.0 " stroke="black" fill="none" stroke-width="6.0" stroke-linecap="round" stroke-linejoin="round" />
<path d="M 143.5 140.5 L 143.0 140.5 L 142.0 140.0 L 142.0 139.0 L 144.0 138.0 L 146.5 137.5 L 149.5 137.5 L 152.5 137.0 L 155.0 137.0 L 157.5 136.5 L 159.0 136.5 L 160.0 137.0 L 160.0 138.5 L 159.5 141.5 L 158.5 145.0 L 157.0 148.0 L 155.5 150.0 L 155.0 150.5 " stroke="black" fill="none" stroke-width="6.0" stroke-linecap="round" stroke-linejoin="round" />
<path d="M 146.0 153.0 L 145.5 153.0 L 144.5 153.5 L 144.5 153.5 L 145.5 153.0 L 148.0 152.0 L 151.0 151.0 L 152.5 150.0 " stroke="black" fill="none" stroke-width="6.0" stroke-linecap="round" stroke-linejoin="round" />
<path d="M 150.5 127.5 L 150.0 128.5 L 149.5 129.5 L 149.0 131.5 L 149.0 135.5 L 149.0 143.0 L 149.0 152.0 L 149.0 158.5 L 148.5 164.0 L 148.5 166.0 " stroke="black" fill="none" stroke-width="6.0" stroke-linecap="round" stroke-linejoin="round" />
<path d="M 140.5 168.0 L 139.5 168.0 L 138.5 167.5 L 138.5 167.5 L 140.5 167.0 L 144.0 166.0 L 147.5 165.5 L 151.0 165.5 L 154.0 164.5 L 154.5 164.5 " stroke="black" fill="none" stroke-width="6.0" stroke-linecap="round" stroke-linejoin="round" />
<path d="M 157.5 157.5 L 157.5 158.5 L 157.5 159.0 L 157.5 160.0 L 157.5 162.5 L 158.5 165.5 L 159.5 169.5 L 160.0 171.5 " stroke="black" fill="none" stroke-width="6.0" stroke-linecap="round" stroke-linejoin="round" />
</svg>