<svg xmlns="http://www.w3.org/2000/svg" width="300" height="300" viewBox="0 0 300 300">
<path d="M 134.5 107.0 L 134.5 107.0 L 135.0 107.0 L 135.0 107.0 L 135.5 107.0 L 137.0 108.0 L 138.5 110.0 L 140.5 111.5 L 142.0 112.5 " stroke="black" fill="none" stroke-width="6.0" stroke-linecap="round" stroke-linejoin="round" />
<path d="M 124.0 123.0 L 122.5 123.0 L 122.0 123.0 L 122.0 123.0 L 124.5 123.0 L 129.0 123.0 L 135.5 122.0 L 142.5 121.0 L 148.5 120.0 L 152.5 119.5 L 153.0 121.0 L 153.0 121.5 " stroke="black" fill="none" stroke-width="6.0" stroke-linecap="round" stroke-linejoin="round" />
<path d="M 132.5 132.0 L 132.5 132.0 L 132.5 132.0 L 133.0 132.0 L 133.0 132.0 L 134.0 132.5 L 136.0 135.5 L 139.5 140.0 L 143.0 145.0 L 145.5 147.5 L 146.5 148.5 L 147.0 148.0 L 147.0 147.0 " stroke="black" fill="none" stroke-width="6.0" stroke-linecap="round" stroke-linejoin="round" />
<path d="M 144.5 130.5 L 144.5 130.5 L 144.0 130.5 L 144.0 130.5 L 143.5 131.5 L 142.0 133.5 L 138.5 138.5 L 134.0 145.5 L 131.5 148.5 L 131.0 148.5 " stroke="black" fill="none" stroke-width="6.0" stroke-linecap="round" stroke-linejoin="round" />
<path d="M 125.0 132.0 L 125.0 132.0 L 125.0 132.5 L 125.0 132.5 L 125.0 133.0 L 125.0 133.0 L 125.0 134.0 L 125.0 137.5 L 125.0 143.0 L 125.0 150.5 L 126.0 155.5 L 128.0 157.5 L 130.0 157.5 L 132.5 157.0 L 136.5 156.5 L 141.5 155.5 L 147.0 155.0 L 152.0 154.5 L 155.0 154.5 L 154.5 153.5 " stroke="black" fill="none" stroke-width="6.0" stroke-linecap="round" stroke-linejoin="round" />
<path d="M 154.0 132.5 L 154.0 133.0 L 154.0 134.0 L 154.0 134.5 L 154.0 136.5 L 154.0 141.0 L 154.5 148.5 L 154.5 154.5 L 154.5 158.5 L 155.0 159.0 " stroke="black" fill="none" stroke-width="6.0" stroke-linecap="round" stroke-linejoin="round" />
<path d="M 129.0 172.0 L 129.0 172.0 L 129.0 172.0 L 129.0 172.0 L 129.0 172.0 L 129.5 172.0 L 130.0 175.5 L 130.5 184.0 L 130.5 193.5 L 131.0 199.0 L 131.5 199.0 L 132.0 195.5 L 132.5 190.0 " stroke="black" fill="none" stroke-width="6.0" stroke-linecap="round" stroke-linejoin="round" />
<path d="M 132.0 173.0 L 132.0 173.5 L 132.0 174.0 L 131.5 174.0 L 132.0 174.0 L 134.0 173.0 L 138.0 171.5 L 143.0 171.0 L 148.0 170.5 L 151.5 170.5 L 154.0 171.0 L 155.5 171.5 L 156.5 171.5 L 156.5 171.5 L 156.5 172.0 L 156.5 172.0 L 157.0 172.5 L 157.0 174.0 L 157.0 175.5 L 157.5 177.5 L 157.5 181.0 L 158.0 185.0 L 158.0 189.5 L 158.5 194.0 L 159.0 197.5 L 159.5 200.0 L 159.5 202.5 L 159.5 203.5 L 159.5 204.0 L 158.5 204.0 L 157.0 202.5 L 155.5 200.0 L 155.0 199.5 " stroke="black" fill="none" stroke-width="6.0" stroke-linecap="round" stroke-linejoin="round" />
<path d="M 141.5 163.5 L 141.5 163.5 L 142.0 163.5 L 142.5 163.5 L 142.5 163.5 L 143.0 163.5 L 143.0 165.0 L 143.0 168.0 L 142.5 173.5 L 142.0 180.0 L 141.5 184.5 L 141.0 187.5 L 141.0 189.0 L 141.0 189.0 L 141.0 188.5 L 141.0 188.0 L 141.5 187.5 L 142.0 187.5 L 143.5 187.5 L 144.5 187.0 L 145.5 187.0 L 146.5 187.0 L 147.5 187.0 " stroke="black" fill="none" stroke-width="6.0" stroke-linecap="round" stroke-linejoin="round" />
<path d="M 148.0 181.5 L 148.0 182.0 L 147.5 183.5 L 147.5 184.5 L 148.0 186.0 L 149.5 188.5 L 150.5 190.0 L 151.0 191.0 " stroke="black" fill="none" stroke-width="6.0" stroke-linecap="round" stroke-linejoin="round" />
<path d="M 175.5 118.5 L 176.5 119.0 L 177.0 119.0 L 177.0 119.0 L 177.0 119.5 L 175.5 121.0 L 172.0 124.5 L 167.0 129.0 L 162.5 132.0 L 160.5 132.5 L 160.5 132.0 L 161.5 130.0 " stroke="black" fill="none" stroke-width="6.0" stroke-linecap="round" stroke-linejoin="round" />
<path d="M 170.0 127.0 L 170.0 127.5 L 170.5 127.5 L 170.5 128.0 L 171.0 129.5 L 171.0 134.5 L 171.0 143.5 L 171.0 155.5 L 171.5 167.5 L 172.0 176.0 L 173.0 181.0 L 173.5 182.5 L 173.5 182.0 L 173.5 179.5 " stroke="black" fill="none" stroke-width="6.0" stroke-linecap="round" stroke-linejoin="round" />
<path d="M 185.5 122.0 L 185.5 121.5 L 185.0 121.0 L 185.0 120.5 L 185.0 120.5 L 185.5 121.5 L 186.5 124.5 L 188.0 127.5 L 188.5 130.5 L 189.5 131.5 " stroke="black" fill="none" stroke-width="6.0" stroke-linecap="round" stroke-linejoin="round" />
<path d="M 179.0 137.5 L 179.0 138.0 L 178.5 138.0 L 178.5 138.0 L 181.0 138.0 L 185.5 137.0 L 189.5 136.5 L 192.0 136.5 L 192.5 136.5 " stroke="black" fill="none" stroke-width="6.0" stroke-linecap="round" stroke-linejoin="round" />
<path d="M 181.0 151.5 L 181.0 152.0 L 181.0 152.5 L 181.0 152.5 L 181.5 152.5 L 184.0 152.5 L 187.0 151.5 L 190.5 150.5 L 192.0 150.5 " stroke="black" fill="none" stroke-width="6.0" stroke-linecap="round" stroke-linejoin="round" />
<path d="M 184.0 163.5 L 184.0 164.0 L 183.5 164.5 L 183.5 165.0 L 184.0 165.0 L 186.0 165.0 L 188.5 164.5 L 191.0 163.5 L 192.5 162.0 L 193.0 162.0 " stroke="black" fill="none" stroke-width="6.0" stroke-linecap="round" stroke-linejoin="round" />
<path d="M 187.5 141.0 L 187.0 142.0 L 186.5 143.0 L 186.5 144.0 L 186.5 147.0 L 186.5 152.5 L 187.0 161.0 L 187.0 169.5 L 187.0 174.0 L 187.5 177.0 L 187.5 178.0 L 188.0 178.0 L 188.0 176.5 " stroke="black" fill="none" stroke-width="6.0" stroke-linecap="round" stroke-linejoin="round" />
<path d="M 184.0 179.5 L 184.0 180.0 L 184.0 180.0 L 185.0 180.5 L 187.5 180.5 L 191.5 180.5 L 196.5 179.0 L 199.0 177.5 " stroke="black" fill="none" stroke-width="6.0" stroke-linecap="round" stroke-linejoin="round" />
</svg>