<svg xmlns="http://www.w3.org/2000/svg" width="300" height="300" viewBox="0 0 300 300">
<path d="M 133.5 108.5 L 133.5 109.5 L 133.0 110.0 L 133.0 110.0 L 133.0 110.0 L 135.0 109.5 L 140.0 108.0 L 147.5 106.5 L 154.5 105.0 L 159.5 105.0 L 162.5 105.0 L 162.5 105.5 L 162.5 106.0 L 162.0 106.0 L 161.5 106.0 L 161.5 106.5 L 161.0 106.5 L 160.5 107.0 L 160.0 108.0 L 159.0 109.5 L 157.0 112.5 L 154.0 117.5 L 151.0 123.0 L 149.0 126.5 L 148.5 128.5 L 148.5 129.0 " stroke="black" fill="none" stroke-width="6.0" stroke-linecap="round" stroke-linejoin="round" />
<path d="M 149.0 128.5 L 149.0 128.5 L 148.5 128.5 L 148.5 128.5 L 148.0 128.5 L 148.5 129.0 L 149.0 131.0 L 150.5 137.5 L 151.0 148.5 L 151.0 161.0 L 151.0 172.0 L 151.0 179.5 L 151.0 185.5 L 151.0 190.0 L 149.5 192.5 L 147.5 193.5 L 145.5 193.5 L 143.0 192.0 L 140.0 190.0 L 137.5 187.0 L 136.5 185.0 L 136.0 183.5 " stroke="black" fill="none" stroke-width="6.0" stroke-linecap="round" stroke-linejoin="round" />
<path d="M 129.5 142.0 L 129.5 142.0 L 129.5 142.0 L 129.5 141.5 L 130.5 141.0 L 135.5 140.5 L 146.5 139.5 L 159.5 136.5 L 170.5 134.0 L 175.0 133.0 L 176.0 133.5 L 175.5 134.0 L 175.0 134.0 " stroke="black" fill="none" stroke-width="6.0" stroke-linecap="round" stroke-linejoin="round" />
</svg>