<svg xmlns="http://www.w3.org/2000/svg" width="300" height="300" viewBox="0 0 300 300">
<path d="M 152.0 141.5 L 152.0 141.5 L 152.0 142.0 L 152.0 142.5 L 152.0 142.5 L 152.0 142.5 L 153.0 142.5 L 153.0 142.0 L 153.5 141.5 L 153.5 141.5 L 153.0 141.5 L 152.0 142.5 L 151.5 144.5 L 151.0 146.0 L 151.0 146.5 L 152.0 146.5 L 153.0 145.0 L 154.0 142.5 L 154.0 140.5 L 154.0 139.5 L 153.5 139.0 L 152.5 139.5 L 152.0 141.5 L 152.0 143.5 L 152.5 145.0 L 153.5 145.0 L 155.0 145.0 L 156.0 143.0 L 156.5 141.5 L 156.5 140.5 L 156.0 140.5 L 155.0 141.0 L 154.0 143.5 L 153.5 146.0 L 153.5 148.0 L 153.5 148.5 L 154.0 148.5 L 155.0 146.5 L 156.0 144.0 L 156.0 142.5 L 156.0 141.0 L 156.0 140.0 L 156.0 140.0 L 155.5 141.5 L 155.5 143.5 L 155.5 144.5 L 155.5 145.5 L 156.0 145.5 L 156.5 145.0 L 156.5 144.0 L 156.5 142.5 L 156.5 142.0 L 156.5 141.5 L 156.5 141.0 L 156.0 141.0 L 156.0 141.0 L 156.0 141.0 L 156.0 141.0 L 156.0 141.0 L 156.0 141.0 L 156.0 142.0 L 156.5 143.5 L 156.5 145.0 L 157.0 148.0 L 157.0 153.0 L 155.5 158.0 L 153.5 162.5 L 151.0 166.0 L 148.5 168.5 L 147.5 169.5 L 147.0 169.5 L 147.5 169.5 " stroke="black" fill="none" stroke-width="6.0" stroke-linecap="round" stroke-linejoin="round" />
</svg>