<svg xmlns="http://www.w3.org/2000/svg" width="300" height="300" viewBox="0 0 300 300">
<path d="M 149.0 142.0 L 148.0 141.0 L 147.5 140.5 L 147.0 140.5 L 146.0 140.5 L 145.0 142.5 L 144.0 145.0 L 144.0 147.5 L 144.5 149.0 L 146.0 149.0 L 148.0 147.5 L 149.5 145.0 L 150.0 143.5 L 150.5 142.5 L 150.5 142.0 L 149.5 142.5 L 149.0 143.5 L 149.0 144.5 L 149.0 145.0 L 149.5 145.0 L 150.5 145.0 L 151.5 144.0 L 152.0 143.0 L 152.5 142.0 L 152.5 141.5 L 152.5 141.0 L 152.5 141.0 L 152.5 141.0 L 152.5 141.5 L 152.5 142.5 L 153.0 144.0 L 153.0 146.5 L 153.5 150.0 L 154.0 154.0 L 154.0 157.5 L 153.0 160.5 L 151.0 162.5 L 149.0 163.5 L 147.5 164.0 L 147.5 164.5 " stroke="black" fill="none" stroke-width="6.0" stroke-linecap="round" stroke-linejoin="round" />
</svg>