<svg xmlns="http://www.w3.org/2000/svg" width="300" height="300" viewBox="0 0 300 300">
<path d="M 147.5 144.0 L 148.0 144.0 L 148.5 144.0 L 148.5 144.0 L 148.5 144.0 L 148.0 144.0 L 147.0 145.0 L 146.0 147.0 L 146.0 149.0 L 146.0 150.5 L 147.5 151.0 L 149.0 150.0 L 149.5 147.5 L 150.0 145.0 L 150.0 143.5 L 150.0 143.0 L 149.0 142.5 L 148.5 143.0 L 148.0 144.5 L 147.5 145.0 L 147.5 145.5 L 147.5 146.0 L 148.0 146.0 L 149.0 146.0 L 149.5 146.0 L 150.0 145.5 L 150.0 145.5 L 150.5 145.5 L 151.0 145.5 L 151.0 146.5 L 151.0 149.0 L 151.0 152.5 L 149.5 158.0 L 147.0 163.5 L 145.5 166.5 L 145.0 167.5 L 144.5 167.5 L 144.5 167.5 L 144.5 167.5 " stroke="black" fill="none" stroke-width="6.0" stroke-linecap="round" stroke-linejoin="round" />
</svg>