<svg xmlns="http://www.w3.org/2000/svg" width="300" height="300" viewBox="0 0 300 300">
<path d="M 151.0 141.0 L 151.0 141.0 L 151.0 141.0 L 151.0 140.5 L 151.0 140.5 L 151.0 140.5 L 151.0 140.5 L 150.5 141.5 L 149.5 143.5 L 149.5 145.0 L 149.5 146.0 L 150.5 146.0 L 151.5 145.0 L 152.5 143.0 L 153.5 141.0 L 153.5 140.0 L 153.5 139.0 L 153.5 139.0 L 152.5 140.0 L 152.5 141.0 L 152.5 142.0 L 153.0 142.5 L 153.5 142.5 L 154.5 142.5 L 155.0 141.0 L 155.5 140.0 L 155.5 139.5 L 155.5 139.0 L 155.5 139.0 L 155.5 139.0 L 155.5 139.0 L 155.5 139.0 L 155.5 139.0 L 155.5 139.0 L 155.5 139.0 L 155.5 139.5 L 155.5 140.5 L 155.5 142.0 L 156.0 144.0 L 156.5 147.0 L 156.5 149.5 L 156.5 152.0 L 155.5 154.0 L 155.0 155.5 L 153.5 156.5 L 153.0 157.0 L 152.5 157.0 L 152.0 157.0 L 152.0 157.0 " stroke="black" fill="none" stroke-width="6.0" stroke-linecap="round" stroke-linejoin="round" />
</svg>