<svg xmlns="http://www.w3.org/2000/svg" width="300" height="300" viewBox="0 0 300 300">
<path d="M 149.5 145.5 L 149.5 145.0 L 149.0 144.0 L 148.5 143.0 L 148.0 143.0 L 147.5 143.5 L 147.0 145.5 L 146.5 148.0 L 146.5 149.5 L 147.5 150.0 L 149.0 150.0 L 150.5 148.0 L 151.0 146.5 L 151.5 145.0 L 151.5 144.0 L 151.5 144.0 L 151.0 144.0 L 151.0 144.0 L 151.0 145.0 L 151.0 145.5 L 151.0 146.0 L 151.5 146.5 L 152.0 146.5 L 152.0 146.0 L 152.5 145.5 L 152.5 145.5 L 152.5 145.0 L 152.5 145.0 L 152.5 145.0 L 152.5 145.5 L 152.5 146.5 L 153.0 148.5 L 153.0 150.5 L 153.0 153.0 L 153.0 155.0 L 153.0 157.0 L 152.5 158.5 L 151.0 160.0 L 150.0 161.0 L 149.0 161.5 L 148.0 162.0 L 148.0 162.5 " stroke="black" fill="none" stroke-width="6.0" stroke-linecap="round" stroke-linejoin="round" />
</svg>