<svg xmlns="http://www.w3.org/2000/svg" width="300" height="300" viewBox="0 0 300 300">
<path d="M 150.5 145.0 L 150.0 144.0 L 149.5 143.5 L 149.0 143.0 L 148.0 143.5 L 147.5 145.0 L 147.0 147.5 L 147.0 150.0 L 147.0 152.0 L 149.0 152.5 L 151.0 151.5 L 152.5 149.5 L 153.0 147.5 L 153.0 146.0 L 153.0 145.5 L 152.5 145.5 L 152.0 145.5 L 151.5 145.5 L 151.5 145.5 L 151.5 146.0 L 151.5 146.0 L 151.5 146.5 L 151.5 146.5 L 151.5 146.5 L 151.5 146.5 L 151.5 147.0 L 152.0 147.0 L 152.0 147.5 L 152.5 148.5 L 153.0 150.0 L 154.0 152.5 L 154.5 156.0 L 154.5 160.0 L 154.5 163.5 L 153.5 165.5 L 151.5 166.5 L 150.0 167.0 L 148.5 167.0 L 148.0 167.5 L 148.0 167.5 " stroke="black" fill="none" stroke-width="7.0" stroke-linecap="round" stroke-linejoin="round" />
</svg>