<svg xmlns="http://www.w3.org/2000/svg" width="300" height="300" viewBox="0 0 300 300">
<path d="M 147.5 144.5 L 147.5 144.5 L 148.0 143.5 L 148.0 142.0 L 148.5 141.5 L 148.5 140.5 L 148.5 140.5 L 148.5 140.5 L 147.5 141.5 L 147.0 144.0 L 147.0 145.5 L 148.0 146.5 L 149.0 146.5 L 150.5 144.5 L 151.5 142.5 L 151.5 141.0 L 151.5 140.0 L 150.5 140.0 L 150.0 141.5 L 149.5 143.0 L 149.5 144.0 L 149.5 144.5 L 150.0 145.0 L 151.0 145.0 L 152.0 144.0 L 152.5 143.5 L 153.0 143.0 L 153.0 143.0 L 153.5 144.0 L 153.5 146.5 L 153.0 150.0 L 151.5 154.5 L 149.0 158.5 L 147.5 161.0 L 146.0 162.5 L 146.0 163.0 L 146.0 163.5 " stroke="black" fill="none" stroke-width="6.0" stroke-linecap="round" stroke-linejoin="round" />
</svg>