<svg xmlns="http://www.w3.org/2000/svg" width="300" height="300" viewBox="0 0 300 300">
<path d="M 152.0 146.0 L 152.5 145.0 L 153.0 144.0 L 153.0 143.5 L 153.0 143.0 L 152.0 143.0 L 150.5 144.5 L 149.0 147.0 L 148.5 149.0 L 148.5 151.0 L 150.0 151.5 L 152.0 151.5 L 154.0 149.0 L 155.0 147.0 L 155.5 145.0 L 155.0 143.5 L 154.0 143.5 L 153.0 144.0 L 152.5 145.5 L 152.5 146.5 L 153.0 147.5 L 153.5 147.5 L 154.5 147.5 L 155.5 146.5 L 156.0 145.5 L 156.0 145.0 L 156.5 144.5 L 156.5 144.5 L 156.5 144.5 L 156.5 145.5 L 156.5 147.0 L 156.5 149.0 L 156.5 151.5 L 155.5 154.5 L 154.5 158.0 L 153.0 161.5 L 151.0 164.5 L 149.5 166.0 L 148.5 166.5 L 148.0 166.5 L 148.0 166.5 " stroke="black" fill="none" stroke-width="6.0" stroke-linecap="round" stroke-linejoin="round" />
</svg>