<svg xmlns="http://www.w3.org/2000/svg" width="300" height="300" viewBox="0 0 300 300">
<path d="M 146.5 146.5 L 146.5 146.5 L 146.0 146.5 L 145.5 146.5 L 145.0 146.5 L 144.5 147.0 L 144.0 147.5 L 144.0 148.5 L 144.5 149.5 L 145.5 150.0 L 147.5 150.0 L 149.5 149.5 L 150.5 148.0 L 151.0 147.0 L 151.0 146.0 L 150.5 145.5 L 149.5 145.5 L 149.0 146.5 L 148.5 147.0 L 148.5 147.5 L 148.5 148.0 L 149.0 148.0 L 149.5 148.0 L 150.0 147.5 L 150.5 146.5 L 150.5 146.0 L 150.5 146.0 L 150.5 145.5 L 150.5 145.5 L 150.5 145.5 L 150.5 145.5 L 150.5 145.5 L 150.5 146.0 L 150.5 146.5 L 151.0 147.5 L 151.0 148.5 L 151.0 150.0 L 151.0 152.0 L 151.0 154.0 L 151.0 157.0 L 150.5 159.5 L 149.5 162.0 L 148.5 163.5 L 147.5 165.0 L 146.5 166.0 L 145.5 166.5 L 145.0 167.0 L 144.5 167.5 L 144.0 167.5 L 144.0 168.0 L 144.0 168.5 " stroke="black" fill="none" stroke-width="6.0" stroke-linecap="round" stroke-linejoin="round" />
</svg>