<svg xmlns="http://www.w3.org/2000/svg" width="300" height="300" viewBox="0 0 300 300">
<path d="M 144.5 145.5 L 142.5 145.5 L 141.5 145.5 L 141.5 145.5 L 142.5 146.5 L 145.0 147.5 L 147.0 147.5 L 149.0 145.5 L 150.0 144.0 L 150.5 142.0 L 150.0 141.5 L 148.5 141.0 L 147.5 142.5 L 146.5 144.5 L 146.5 146.0 L 146.5 146.5 L 147.0 146.5 L 147.5 146.5 L 148.0 145.5 L 148.0 145.0 L 147.5 144.5 L 146.5 144.5 L 145.5 145.5 L 145.5 146.5 L 146.0 147.0 L 147.5 147.5 L 148.5 147.0 L 149.5 146.0 L 149.5 144.5 L 149.0 143.5 L 148.0 143.0 L 146.5 143.0 L 145.0 143.0 L 144.5 143.5 L 144.5 144.5 L 145.5 145.0 L 147.5 145.5 L 149.0 145.0 L 150.0 143.5 L 150.5 141.5 L 150.0 140.0 L 148.5 139.0 L 146.5 139.0 L 144.5 139.5 L 143.0 141.0 L 143.0 143.0 L 144.5 144.0 L 146.5 145.0 L 149.0 145.0 L 150.5 145.0 L 152.0 143.5 L 152.5 142.5 L 152.5 142.0 L 152.5 141.5 L 152.0 141.0 L 151.5 141.0 L 151.5 141.0 L 151.5 141.5 L 152.0 141.5 L 152.5 141.5 L 153.0 141.5 L 153.5 141.5 L 154.0 142.0 L 154.0 142.0 L 154.5 143.5 L 154.5 145.0 L 154.5 147.5 L 154.0 151.0 L 152.5 155.5 L 150.5 159.0 L 147.5 161.5 L 145.0 162.5 L 144.0 163.0 L 144.0 163.0 " stroke="black" fill="none" stroke-width="6.0" stroke-linecap="round" stroke-linejoin="round" />
</svg>