<svg xmlns="http://www.w3.org/2000/svg" width="300" height="300" viewBox="0 0 300 300">
<path d="M 151.0 148.0 L 151.0 148.0 L 150.5 148.0 L 150.0 148.0 L 150.0 148.0 L 149.5 148.0 L 149.0 148.5 L 148.5 149.0 L 148.5 150.0 L 148.5 151.0 L 149.5 152.0 L 150.5 152.0 L 152.0 152.0 L 153.0 150.5 L 153.0 149.5 L 153.0 148.5 L 151.5 148.0 L 149.5 148.5 L 148.0 150.0 L 147.0 152.0 L 147.0 153.5 L 148.0 154.0 L 150.0 154.5 L 151.5 153.5 L 153.0 151.0 L 153.5 149.5 L 153.5 148.5 L 152.5 148.0 L 151.0 148.0 L 150.0 148.5 L 149.0 149.5 L 148.5 150.5 L 148.5 152.0 L 149.0 152.5 L 150.5 152.5 L 152.0 152.0 L 153.0 150.5 L 153.0 149.0 L 153.0 147.5 L 152.5 146.5 L 151.0 146.5 L 149.5 146.5 L 148.0 148.5 L 147.5 150.5 L 147.5 152.5 L 148.5 153.5 L 150.5 153.5 L 152.0 152.5 L 153.0 150.0 L 153.0 148.0 L 153.0 146.5 L 152.0 145.5 L 150.5 145.5 L 149.0 146.5 L 148.0 148.0 L 147.5 150.0 L 147.5 152.0 L 148.5 153.0 L 150.5 153.0 L 152.0 152.0 L 153.0 150.0 L 153.5 148.0 L 153.5 146.5 L 153.0 145.0 L 151.5 144.5 L 150.5 144.5 L 150.0 145.0 L 149.5 146.0 L 149.5 146.5 L 149.5 147.0 L 149.5 147.0 L 150.0 147.0 L 151.0 147.0 L 151.5 146.5 L 152.5 146.0 L 153.0 145.5 L 153.5 145.5 L 154.0 145.5 L 154.0 145.5 L 154.5 145.5 L 154.5 146.0 L 154.5 146.5 L 154.5 148.0 L 154.5 149.5 L 154.5 151.0 L 154.5 153.0 L 154.5 154.5 L 154.5 156.5 L 154.5 158.0 L 154.0 159.5 L 153.5 161.5 L 153.0 163.0 L 152.5 164.5 L 151.0 166.0 L 150.0 167.0 L 149.5 167.5 L 149.0 167.5 L 149.0 167.5 " stroke="black" fill="none" stroke-width="6.0" stroke-linecap="round" stroke-linejoin="round" />
</svg>