<svg xmlns="http://www.w3.org/2000/svg" width="300" height="300" viewBox="0 0 300 300">
<path d="M 138.5 111.5 L 138.5 111.5 L 138.0 111.0 L 138.0 111.0 L 138.0 111.0 L 138.0 112.5 L 138.5 118.0 L 139.5 128.5 L 139.5 139.5 L 139.5 148.0 L 139.5 151.0 L 140.0 150.5 L 140.5 147.5 L 140.5 146.5 " stroke="black" fill="none" stroke-width="6.0" stroke-linecap="round" stroke-linejoin="round" />
<path d="M 141.5 111.5 L 140.0 111.5 L 139.5 112.0 L 139.5 112.0 L 139.5 112.0 L 140.5 112.0 L 143.0 112.0 L 147.5 112.0 L 153.0 112.0 L 159.0 112.0 L 162.5 111.5 L 164.0 111.5 L 164.0 111.5 L 163.0 111.5 L 162.5 112.0 " stroke="black" fill="none" stroke-width="6.0" stroke-linecap="round" stroke-linejoin="round" />
<path d="M 143.5 128.0 L 143.0 127.5 L 143.0 127.5 L 142.5 127.0 L 143.0 127.0 L 145.5 127.0 L 149.0 127.0 L 153.0 127.0 L 156.5 127.0 L 158.5 126.5 L 159.5 126.5 " stroke="black" fill="none" stroke-width="6.0" stroke-linecap="round" stroke-linejoin="round" />
<path d="M 143.5 139.5 L 143.5 139.5 L 143.5 139.0 L 143.5 139.0 L 144.5 138.5 L 146.5 138.5 L 150.0 138.5 L 153.5 138.5 L 156.0 138.5 L 157.0 138.5 " stroke="black" fill="none" stroke-width="6.0" stroke-linecap="round" stroke-linejoin="round" />
<path d="M 126.0 152.5 L 127.0 152.5 L 128.0 152.5 L 129.5 152.5 L 131.5 152.5 L 135.0 152.5 L 141.0 152.5 L 149.5 152.5 L 157.5 151.5 L 163.0 151.5 L 166.0 151.5 L 166.5 152.0 L 166.5 152.0 " stroke="black" fill="none" stroke-width="6.0" stroke-linecap="round" stroke-linejoin="round" />
<path d="M 140.5 157.5 L 140.5 157.5 L 140.5 157.5 L 140.0 158.0 L 140.0 158.5 L 140.0 160.5 L 140.5 164.0 L 140.5 169.5 L 140.0 176.5 L 139.0 183.5 L 138.5 188.0 L 138.5 189.5 L 139.0 190.0 L 139.5 190.0 L 139.5 190.0 L 139.5 190.0 L 139.5 189.5 L 140.0 189.5 L 140.5 188.5 L 142.0 187.5 L 143.0 186.5 L 145.0 185.5 L 146.5 184.0 L 147.5 183.0 L 148.0 182.0 L 148.5 181.5 " stroke="black" fill="none" stroke-width="6.0" stroke-linecap="round" stroke-linejoin="round" />
<path d="M 164.0 165.0 L 164.0 164.5 L 164.0 164.5 L 164.0 164.0 L 164.0 164.0 L 164.0 165.0 L 163.5 167.0 L 163.0 168.5 L 162.0 170.0 L 162.0 170.5 " stroke="black" fill="none" stroke-width="6.0" stroke-linecap="round" stroke-linejoin="round" />
<path d="M 148.0 159.0 L 149.0 159.0 L 149.5 158.5 L 149.5 158.5 L 150.5 159.5 L 152.0 162.5 L 155.0 169.0 L 159.5 177.5 L 165.0 184.5 L 168.5 186.5 L 170.5 187.5 L 171.5 187.5 L 171.5 187.5 " stroke="black" fill="none" stroke-width="6.0" stroke-linecap="round" stroke-linejoin="round" />
</svg>