<svg xmlns="http://www.w3.org/2000/svg" width="300" height="300" viewBox="0 0 300 300">
<path d="M 140.5 106.0 L 140.5 105.5 L 140.5 105.5 L 140.0 104.5 L 140.0 103.5 L 140.5 102.0 L 141.0 101.5 L 142.5 103.0 L 143.5 109.5 L 144.0 122.0 L 142.5 136.5 L 142.5 143.0 L 143.0 141.5 L 143.5 138.5 " stroke="black" fill="none" stroke-width="6.0" stroke-linecap="round" stroke-linejoin="round" />
<path d="M 143.0 104.0 L 141.0 104.5 L 140.5 104.5 L 141.0 104.5 L 145.0 104.0 L 149.5 103.5 L 155.0 103.5 L 159.5 103.5 L 163.0 104.0 L 164.5 105.0 " stroke="black" fill="none" stroke-width="6.0" stroke-linecap="round" stroke-linejoin="round" />
<path d="M 146.0 121.5 L 145.5 121.5 L 144.5 121.5 L 144.5 121.5 L 148.5 120.5 L 153.5 120.0 L 158.0 120.0 L 161.5 120.5 " stroke="black" fill="none" stroke-width="6.0" stroke-linecap="round" stroke-linejoin="round" />
<path d="M 145.5 129.5 L 145.0 130.0 L 144.5 130.5 L 146.0 130.5 L 150.5 130.5 L 156.5 130.0 L 161.5 129.0 " stroke="black" fill="none" stroke-width="6.0" stroke-linecap="round" stroke-linejoin="round" />
<path d="M 131.5 146.5 L 131.0 146.5 L 131.0 146.5 L 133.5 146.0 L 141.0 144.5 L 153.0 143.0 L 164.0 142.5 L 171.5 143.5 L 174.5 144.0 " stroke="black" fill="none" stroke-width="6.0" stroke-linecap="round" stroke-linejoin="round" />
<path d="M 144.0 147.5 L 144.0 147.0 L 144.5 146.0 L 144.5 145.5 L 145.0 145.5 L 145.5 147.5 L 145.5 153.0 L 144.5 161.0 L 143.5 170.0 L 143.0 176.0 L 143.0 177.5 L 145.0 177.5 L 147.5 174.5 L 150.5 172.0 L 153.0 169.0 L 155.5 167.0 " stroke="black" fill="none" stroke-width="6.0" stroke-linecap="round" stroke-linejoin="round" />
<path d="M 170.5 152.5 L 170.5 153.0 L 170.0 153.5 L 169.5 154.0 L 169.0 155.5 L 168.0 157.5 L 167.0 159.0 " stroke="black" fill="none" stroke-width="6.0" stroke-linecap="round" stroke-linejoin="round" />
<path d="M 154.5 150.0 L 154.0 150.0 L 153.0 150.0 L 152.5 150.5 L 153.0 152.0 L 157.5 158.5 L 167.0 169.5 L 176.5 176.5 L 182.5 178.5 L 183.5 178.0 " stroke="black" fill="none" stroke-width="6.0" stroke-linecap="round" stroke-linejoin="round" />
</svg>