<svg xmlns="http://www.w3.org/2000/svg" width="300" height="300" viewBox="0 0 300 300">
<path d="M 151.0 117.5 L 149.5 117.0 L 148.5 116.5 L 148.0 116.5 L 148.5 116.5 L 150.0 119.0 L 153.0 122.5 L 156.0 125.5 L 158.5 127.5 L 160.5 128.5 L 160.5 128.5 " stroke="black" fill="none" stroke-width="6.0" stroke-linecap="round" stroke-linejoin="round" />
<path d="M 124.0 142.0 L 123.0 142.0 L 122.0 142.0 L 121.5 142.0 L 121.5 142.5 L 124.0 142.5 L 130.0 142.5 L 140.0 142.0 L 153.0 141.0 L 165.0 140.5 L 174.5 140.0 L 180.0 140.0 L 182.0 140.0 L 181.0 140.5 L 178.5 141.0 " stroke="black" fill="none" stroke-width="6.0" stroke-linecap="round" stroke-linejoin="round" />
<path d="M 146.0 156.5 L 146.0 156.0 L 146.5 155.5 L 146.5 155.0 L 146.5 154.5 L 146.5 155.0 L 145.0 158.0 L 140.5 163.5 L 135.0 170.0 L 132.0 173.5 L 131.5 173.5 " stroke="black" fill="none" stroke-width="6.0" stroke-linecap="round" stroke-linejoin="round" />
<path d="M 165.5 159.5 L 165.5 159.5 L 166.0 159.5 L 168.5 161.0 L 174.5 165.0 L 182.5 169.0 L 189.0 171.5 " stroke="black" fill="none" stroke-width="6.0" stroke-linecap="round" stroke-linejoin="round" />
</svg>