<svg xmlns="http://www.w3.org/2000/svg" width="300" height="300" viewBox="0 0 300 300">
<path d="M 143.0 116.0 L 142.0 116.0 L 141.0 116.0 L 141.0 116.5 L 142.0 118.0 L 145.0 120.5 L 148.5 124.0 L 150.5 126.0 L 151.0 126.5 L 151.0 126.5 " stroke="black" fill="none" stroke-width="6.0" stroke-linecap="round" stroke-linejoin="round" />
<path d="M 128.5 137.5 L 128.5 138.0 L 128.5 139.0 L 128.5 139.5 L 128.5 139.5 L 130.5 140.0 L 136.0 140.0 L 145.5 139.0 L 157.0 138.0 L 166.5 137.0 L 172.0 137.0 L 173.0 139.0 " stroke="black" fill="none" stroke-width="6.0" stroke-linecap="round" stroke-linejoin="round" />
<path d="M 140.5 152.5 L 141.0 152.0 L 142.0 152.0 L 143.0 151.5 L 143.0 151.5 L 143.0 152.0 L 141.5 154.5 L 139.0 159.5 L 135.5 165.0 L 132.5 169.0 L 131.0 171.0 L 131.0 170.5 " stroke="black" fill="none" stroke-width="6.0" stroke-linecap="round" stroke-linejoin="round" />
<path d="M 158.0 155.0 L 158.5 155.0 L 159.0 155.0 L 159.0 155.0 L 160.0 155.0 L 162.0 157.0 L 166.0 160.5 L 171.5 165.5 L 177.0 169.0 L 180.5 169.5 L 181.0 169.5 " stroke="black" fill="none" stroke-width="6.0" stroke-linecap="round" stroke-linejoin="round" />
</svg>