<svg xmlns="http://www.w3.org/2000/svg" width="300" height="300" viewBox="0 0 300 300">
<path d="M 128.5 114.5 L 127.5 115.0 L 126.5 115.5 L 126.0 115.5 L 126.0 115.5 L 126.0 115.5 L 127.5 114.5 L 129.5 113.5 L 132.5 113.0 L 135.0 112.5 L 138.0 112.5 L 140.0 112.0 L 140.5 112.5 L 140.5 114.0 L 139.5 116.5 L 136.5 120.5 L 133.5 124.0 L 131.5 126.0 L 131.0 126.5 L 130.5 126.5 L 131.5 126.5 L 133.5 126.5 L 135.5 127.0 L 137.5 128.5 L 138.5 131.0 L 139.0 135.0 L 139.0 140.0 L 138.0 144.5 L 136.0 149.0 L 134.0 151.5 L 132.0 151.5 L 130.0 149.5 L 128.0 145.5 L 126.5 140.5 " stroke="black" fill="none" stroke-width="6.0" stroke-linecap="round" stroke-linejoin="round" />
<path d="M 123.0 120.5 L 122.0 120.5 L 121.5 120.5 L 122.0 121.5 L 123.0 124.5 L 125.0 131.0 L 125.5 141.5 L 125.5 156.0 L 124.0 170.5 L 123.0 181.0 L 122.5 186.0 L 122.5 186.0 L 122.5 183.5 " stroke="black" fill="none" stroke-width="6.0" stroke-linecap="round" stroke-linejoin="round" />
<path d="M 159.0 110.5 L 159.0 111.0 L 159.0 111.5 L 159.0 112.0 L 159.0 113.5 L 158.5 118.5 L 158.5 127.5 L 158.5 134.0 L 158.5 135.0 L 158.5 134.0 " stroke="black" fill="none" stroke-width="6.0" stroke-linecap="round" stroke-linejoin="round" />
<path d="M 157.5 115.0 L 157.5 115.0 L 157.0 115.0 L 156.5 115.0 L 156.5 114.5 L 158.5 114.0 L 162.0 113.5 L 166.0 113.0 L 171.0 112.5 L 175.0 112.5 L 178.0 112.5 L 179.5 113.0 L 179.5 115.0 L 179.0 118.0 L 177.5 122.5 L 176.5 127.5 L 175.5 131.5 L 175.0 134.5 L 174.5 135.0 " stroke="black" fill="none" stroke-width="6.0" stroke-linecap="round" stroke-linejoin="round" />
<path d="M 162.0 126.0 L 162.0 126.0 L 161.5 125.0 L 162.0 125.0 L 164.5 124.5 L 171.5 124.0 L 173.5 124.0 L 174.0 124.0 " stroke="black" fill="none" stroke-width="6.0" stroke-linecap="round" stroke-linejoin="round" />
<path d="M 164.0 135.5 L 163.5 136.0 L 162.0 137.0 L 162.0 137.0 L 163.0 137.0 L 166.5 137.0 L 170.5 136.0 L 173.5 135.5 L 174.5 135.0 " stroke="black" fill="none" stroke-width="6.0" stroke-linecap="round" stroke-linejoin="round" />
<path d="M 150.5 147.5 L 150.5 147.5 L 150.5 147.5 L 150.5 147.0 L 153.0 146.5 L 160.0 145.5 L 169.0 144.5 L 175.5 144.0 L 178.0 143.5 L 178.0 143.5 " stroke="black" fill="none" stroke-width="6.0" stroke-linecap="round" stroke-linejoin="round" />
<path d="M 149.5 157.5 L 149.5 157.5 L 150.0 157.5 L 150.0 157.5 L 150.0 158.0 L 148.5 161.0 L 146.0 165.0 L 144.5 168.0 L 144.5 168.5 " stroke="black" fill="none" stroke-width="6.0" stroke-linecap="round" stroke-linejoin="round" />
<path d="M 153.5 159.5 L 155.5 159.0 L 157.0 158.0 L 159.5 157.5 L 165.0 157.0 L 172.0 156.0 L 178.5 156.0 L 182.5 156.5 L 184.5 157.5 L 185.0 159.5 L 185.0 162.0 L 184.0 165.5 L 183.5 170.5 L 182.5 177.0 L 181.0 183.0 L 179.5 188.0 L 177.0 191.5 L 175.0 193.0 L 173.0 192.5 L 171.0 190.0 L 169.5 187.5 " stroke="black" fill="none" stroke-width="6.0" stroke-linecap="round" stroke-linejoin="round" />
<path d="M 162.0 160.5 L 163.0 159.5 L 163.0 159.0 L 163.5 159.0 L 163.5 159.5 L 162.0 163.5 L 159.0 169.5 L 155.5 175.0 L 153.0 177.0 L 152.5 177.0 " stroke="black" fill="none" stroke-width="6.0" stroke-linecap="round" stroke-linejoin="round" />
<path d="M 172.5 160.0 L 173.0 161.0 L 173.5 161.5 L 173.5 162.0 L 173.5 164.0 L 171.5 169.0 L 166.0 177.0 L 160.5 184.5 L 157.5 187.0 L 156.0 187.0 " stroke="black" fill="none" stroke-width="6.0" stroke-linecap="round" stroke-linejoin="round" />
</svg>