<svg xmlns="http://www.w3.org/2000/svg" width="300" height="300" viewBox="0 0 300 300">
<path d="M 137.0 120.0 L 137.0 120.0 L 137.5 119.5 L 137.5 119.5 L 138.0 119.5 L 138.0 122.5 L 138.0 132.5 L 137.0 148.0 L 136.0 159.0 L 135.5 161.5 L 136.0 161.0 " stroke="black" fill="none" stroke-width="7.0" stroke-linecap="round" stroke-linejoin="round" />
<path d="M 138.5 146.5 L 138.5 146.0 L 139.0 146.0 L 140.5 145.5 L 143.0 144.5 L 146.0 144.0 L 148.5 144.0 L 148.5 143.5 " stroke="black" fill="none" stroke-width="7.0" stroke-linecap="round" stroke-linejoin="round" />
<path d="M 123.0 135.5 L 123.0 135.5 L 123.0 135.0 L 123.0 134.5 L 123.0 134.5 L 123.5 138.5 L 123.5 147.0 L 123.5 157.0 L 123.5 164.0 L 123.5 166.5 " stroke="black" fill="none" stroke-width="7.0" stroke-linecap="round" stroke-linejoin="round" />
<path d="M 114.5 176.5 L 114.5 177.0 L 114.5 177.0 L 115.5 177.5 L 120.5 175.5 L 130.5 171.5 L 141.5 166.5 L 150.0 163.0 L 151.0 162.5 " stroke="black" fill="none" stroke-width="7.0" stroke-linecap="round" stroke-linejoin="round" />
<path d="M 173.5 133.5 L 173.5 134.0 L 173.5 135.0 L 173.0 135.5 L 172.5 136.5 L 170.5 139.0 L 167.5 142.5 L 165.5 145.0 " stroke="black" fill="none" stroke-width="7.0" stroke-linecap="round" stroke-linejoin="round" />
<path d="M 159.5 125.5 L 160.0 125.0 L 160.5 124.5 L 160.5 124.5 L 160.5 125.5 L 160.0 130.5 L 159.0 140.0 L 158.0 163.0 L 160.0 170.0 L 164.0 173.5 L 168.5 175.5 L 174.0 176.5 L 180.0 175.5 L 186.0 173.0 L 189.5 170.5 L 190.0 168.0 L 188.5 165.5 L 186.5 163.0 L 185.5 161.5 L 185.5 160.5 L 185.5 159.5 L 186.5 159.5 L 186.5 159.5 " stroke="black" fill="none" stroke-width="7.0" stroke-linecap="round" stroke-linejoin="round" />
</svg>