<svg xmlns="http://www.w3.org/2000/svg" width="300" height="300" viewBox="0 0 300 300">
<path d="M 112.5 119.0 L 113.5 119.0 L 114.0 119.0 L 115.0 119.0 L 117.5 118.0 L 122.5 116.0 L 130.5 112.5 L 137.5 109.0 L 141.5 107.0 L 142.5 106.0 L 142.5 106.0 L 142.5 106.0 " stroke="black" fill="none" stroke-width="7.0" stroke-linecap="round" stroke-linejoin="round" />
<path d="M 114.5 129.0 L 114.5 129.0 L 114.5 129.0 L 114.5 129.0 L 114.5 129.0 L 115.5 129.0 L 117.0 130.0 L 119.5 130.5 L 120.5 130.5 " stroke="black" fill="none" stroke-width="7.0" stroke-linecap="round" stroke-linejoin="round" />
<path d="M 129.5 123.0 L 129.5 123.0 L 129.5 123.0 L 129.5 123.0 L 129.5 123.5 L 130.5 124.5 L 130.5 125.5 " stroke="black" fill="none" stroke-width="7.0" stroke-linecap="round" stroke-linejoin="round" />
<path d="M 144.0 119.5 L 144.0 119.5 L 143.5 120.0 L 143.0 120.5 L 142.5 121.5 L 142.5 123.0 L 142.5 124.5 L 142.0 126.0 " stroke="black" fill="none" stroke-width="7.0" stroke-linecap="round" stroke-linejoin="round" />
<path d="M 116.0 144.5 L 115.5 144.5 L 115.0 144.5 L 114.5 144.5 L 114.5 144.5 L 115.5 144.0 L 118.5 144.0 L 123.5 144.0 L 130.5 144.0 L 137.5 144.0 L 143.5 143.5 L 145.5 142.5 L 145.5 142.5 " stroke="black" fill="none" stroke-width="7.0" stroke-linecap="round" stroke-linejoin="round" />
<path d="M 130.5 135.5 L 130.5 135.5 L 131.0 135.0 L 131.5 135.0 L 131.5 135.0 L 131.5 135.0 L 131.5 138.0 L 131.5 145.5 L 130.5 157.5 L 129.0 170.5 L 128.5 179.5 L 128.5 183.5 L 128.5 185.0 L 128.5 185.0 L 128.5 185.0 " stroke="black" fill="none" stroke-width="7.0" stroke-linecap="round" stroke-linejoin="round" />
<path d="M 129.5 149.0 L 129.5 149.0 L 130.0 148.5 L 130.0 148.5 L 130.0 148.5 L 129.5 150.0 L 126.5 155.0 L 122.0 162.5 L 117.5 169.0 L 115.0 171.5 L 114.5 171.5 L 114.5 170.0 " stroke="black" fill="none" stroke-width="7.0" stroke-linecap="round" stroke-linejoin="round" />
<path d="M 135.0 152.5 L 135.5 153.0 L 137.0 154.0 L 139.0 155.0 L 142.5 157.0 L 146.0 160.0 L 148.0 162.0 L 148.5 162.5 " stroke="black" fill="none" stroke-width="7.0" stroke-linecap="round" stroke-linejoin="round" />
<path d="M 166.5 114.5 L 166.5 114.5 L 166.5 114.5 L 166.5 114.5 L 166.5 114.5 L 166.5 115.0 L 166.0 116.0 L 163.0 121.0 L 158.0 128.0 L 154.5 133.0 L 153.5 134.0 " stroke="black" fill="none" stroke-width="7.0" stroke-linecap="round" stroke-linejoin="round" />
<path d="M 174.0 128.0 L 174.5 128.0 L 175.0 128.0 L 175.5 128.0 L 175.5 129.5 L 173.5 133.5 L 168.5 140.0 L 162.5 146.5 L 159.0 149.5 L 158.0 149.5 " stroke="black" fill="none" stroke-width="7.0" stroke-linecap="round" stroke-linejoin="round" />
<path d="M 175.0 150.5 L 176.0 150.5 L 176.5 150.5 L 176.5 150.5 L 176.5 150.5 L 175.0 154.0 L 169.5 161.5 L 159.5 172.0 L 152.0 177.5 L 151.0 178.5 L 151.0 177.5 " stroke="black" fill="none" stroke-width="7.0" stroke-linecap="round" stroke-linejoin="round" />
</svg>