<svg xmlns="http://www.w3.org/2000/svg" width="300" height="300" viewBox="0 0 300 300">
<path d="M 119.5 117.5 L 119.5 116.0 L 119.5 115.0 L 120.5 114.5 L 121.0 114.5 L 121.5 115.0 L 121.5 117.5 L 121.5 122.0 L 120.0 128.0 L 117.0 135.5 L 114.0 142.5 L 112.5 145.0 L 112.5 145.0 L 112.5 143.5 L 113.0 141.5 " stroke="black" fill="none" stroke-width="6.0" stroke-linecap="round" stroke-linejoin="round" />
<path d="M 119.0 134.0 L 118.5 134.5 L 117.0 136.0 L 116.5 136.0 L 117.0 136.0 L 119.5 135.0 L 123.5 133.5 L 127.5 132.5 L 131.0 132.0 L 133.5 131.0 " stroke="black" fill="none" stroke-width="6.0" stroke-linecap="round" stroke-linejoin="round" />
<path d="M 131.5 113.5 L 131.0 113.5 L 130.5 113.5 L 130.0 113.5 L 129.5 115.5 L 129.0 121.0 L 128.5 131.5 L 127.5 143.5 L 126.5 153.5 L 125.0 164.0 L 124.0 173.5 L 123.5 181.0 L 123.5 187.5 L 123.5 189.5 L 124.0 189.5 L 124.0 186.5 " stroke="black" fill="none" stroke-width="6.0" stroke-linecap="round" stroke-linejoin="round" />
<path d="M 116.5 169.0 L 116.5 169.0 L 115.5 169.0 L 115.5 168.5 L 117.5 166.5 L 122.5 163.0 L 128.0 159.0 L 132.5 155.0 L 134.5 152.0 " stroke="black" fill="none" stroke-width="6.0" stroke-linecap="round" stroke-linejoin="round" />
<path d="M 146.5 123.5 L 146.5 123.0 L 146.5 121.5 L 146.5 121.5 L 146.5 123.0 L 146.5 127.5 L 144.0 134.0 L 141.0 142.0 L 139.0 147.0 L 139.0 148.5 L 139.0 148.0 " stroke="black" fill="none" stroke-width="6.0" stroke-linecap="round" stroke-linejoin="round" />
<path d="M 144.5 135.0 L 142.5 135.0 L 141.0 135.5 L 141.0 135.5 L 142.5 135.0 L 146.5 134.0 L 151.0 133.5 L 155.5 132.5 L 160.5 132.0 L 164.5 131.5 L 166.5 131.0 L 167.0 131.0 L 166.5 131.0 L 166.0 131.0 L 166.0 131.0 L 166.0 131.5 L 166.0 132.0 L 166.0 133.0 L 165.5 134.5 L 165.5 136.0 L 165.5 139.0 L 165.5 143.0 L 165.5 149.0 L 165.0 157.0 L 164.5 165.5 L 164.5 172.5 L 164.0 178.0 L 163.5 183.5 L 163.0 188.5 L 162.0 191.5 L 161.0 192.0 L 160.0 192.0 L 158.0 192.0 L 156.0 192.0 L 154.5 191.5 L 153.0 189.0 " stroke="black" fill="none" stroke-width="6.0" stroke-linecap="round" stroke-linejoin="round" />
<path d="M 154.5 134.5 L 155.0 134.5 L 155.0 134.5 L 155.0 134.5 L 155.0 136.0 L 154.5 140.5 L 152.5 149.0 L 149.0 159.0 L 144.5 168.5 L 140.5 172.0 L 138.5 171.0 L 138.5 169.5 " stroke="black" fill="none" stroke-width="6.0" stroke-linecap="round" stroke-linejoin="round" />
<path d="M 162.0 147.5 L 162.5 147.5 L 162.5 148.0 L 163.0 148.0 L 163.5 149.5 L 163.5 151.5 L 162.5 157.0 L 159.0 166.0 L 154.0 174.0 L 149.0 178.0 L 145.0 180.0 L 144.0 180.5 L 143.5 180.5 " stroke="black" fill="none" stroke-width="6.0" stroke-linecap="round" stroke-linejoin="round" />
</svg>