<svg xmlns="http://www.w3.org/2000/svg" width="300" height="300" viewBox="0 0 300 300">
<path d="M 130.0 114.5 L 130.0 114.5 L 130.0 114.5 L 130.5 115.0 L 130.5 115.0 L 132.0 115.0 L 135.0 115.0 L 142.5 115.0 L 152.5 115.0 L 162.5 114.5 L 169.5 114.5 L 171.0 114.5 L 171.0 114.5 L 170.5 114.5 L 170.0 114.5 L 170.0 114.5 L 170.0 114.5 L 170.0 114.5 " stroke="black" fill="none" stroke-width="7.0" stroke-linecap="round" stroke-linejoin="round" />
<path d="M 135.5 136.0 L 135.5 135.5 L 136.0 135.5 L 136.0 135.5 L 136.5 136.0 L 137.0 139.0 L 137.0 143.5 L 137.5 147.5 L 137.5 149.0 L 137.5 149.0 " stroke="black" fill="none" stroke-width="7.0" stroke-linecap="round" stroke-linejoin="round" />
<path d="M 137.5 136.0 L 137.5 136.0 L 137.0 136.0 L 137.0 136.0 L 137.0 135.5 L 139.0 135.0 L 142.0 134.0 L 145.0 133.5 L 148.0 133.5 L 150.0 133.5 L 150.5 135.5 L 151.0 138.0 L 150.5 141.5 L 150.0 144.0 L 149.0 146.0 L 148.5 147.0 " stroke="black" fill="none" stroke-width="7.0" stroke-linecap="round" stroke-linejoin="round" />
<path d="M 139.5 150.5 L 139.0 151.5 L 138.5 152.0 L 139.0 152.0 L 141.5 151.5 L 145.0 150.5 L 147.0 150.0 " stroke="black" fill="none" stroke-width="7.0" stroke-linecap="round" stroke-linejoin="round" />
<path d="M 160.0 123.0 L 160.0 123.0 L 160.0 123.0 L 160.0 123.0 L 160.0 122.5 L 160.5 125.0 L 160.5 131.0 L 160.5 143.0 L 160.5 157.0 L 160.5 167.0 L 160.5 173.5 L 160.5 177.0 L 160.5 178.5 L 160.0 180.0 L 159.0 180.0 L 158.0 180.5 L 156.5 180.0 L 154.5 178.5 L 152.5 176.5 L 151.0 174.5 L 150.0 173.5 " stroke="black" fill="none" stroke-width="7.0" stroke-linecap="round" stroke-linejoin="round" />
</svg>