<svg xmlns="http://www.w3.org/2000/svg" width="300" height="300" viewBox="0 0 300 300">
<path d="M 128.0 121.5 L 128.0 121.5 L 127.5 121.0 L 127.5 121.0 L 127.5 121.0 L 129.5 121.0 L 136.0 121.0 L 148.0 121.0 L 161.0 120.0 L 168.5 118.5 L 171.0 118.0 L 171.0 118.0 L 170.5 118.0 L 170.0 118.0 L 170.0 118.0 L 170.0 118.0 L 170.0 118.0 L 170.0 118.5 " stroke="black" fill="none" stroke-width="7.0" stroke-linecap="round" stroke-linejoin="round" />
<path d="M 144.0 108.5 L 144.0 108.0 L 144.0 107.5 L 144.0 107.0 L 144.0 107.0 L 144.0 109.5 L 142.5 118.0 L 137.0 134.5 L 129.5 151.5 L 126.0 159.5 L 125.0 161.5 L 125.0 161.0 L 125.0 159.5 L 125.0 157.0 " stroke="black" fill="none" stroke-width="7.0" stroke-linecap="round" stroke-linejoin="round" />
<path d="M 135.5 146.0 L 136.0 144.5 L 136.5 143.5 L 137.0 143.0 L 138.0 144.0 L 139.0 149.5 L 140.0 158.0 L 140.0 169.0 L 139.5 177.5 L 139.5 180.0 L 139.0 178.5 " stroke="black" fill="none" stroke-width="7.0" stroke-linecap="round" stroke-linejoin="round" />
<path d="M 149.5 147.5 L 149.0 147.5 L 148.0 148.5 L 148.0 148.5 L 149.5 148.5 L 153.5 148.5 L 157.5 148.0 L 161.0 147.5 L 163.5 146.0 L 164.0 145.0 " stroke="black" fill="none" stroke-width="7.0" stroke-linecap="round" stroke-linejoin="round" />
<path d="M 159.5 133.0 L 159.0 133.0 L 158.0 134.0 L 158.0 134.5 L 158.0 137.0 L 159.0 142.5 L 160.0 152.5 L 161.0 161.0 L 161.0 166.0 L 161.0 167.0 " stroke="black" fill="none" stroke-width="7.0" stroke-linecap="round" stroke-linejoin="round" />
<path d="M 149.0 172.5 L 148.5 172.5 L 148.5 172.5 L 149.5 172.5 L 154.0 171.5 L 162.5 170.0 L 171.5 168.0 L 178.0 167.5 L 180.0 167.0 " stroke="black" fill="none" stroke-width="7.0" stroke-linecap="round" stroke-linejoin="round" />
</svg>