<svg xmlns="http://www.w3.org/2000/svg" width="300" height="300" viewBox="0 0 300 300">
<path d="M 127.0 113.5 L 127.0 113.5 L 126.5 114.0 L 126.5 114.0 L 126.5 114.0 L 130.0 113.5 L 137.5 111.5 L 148.5 109.5 L 159.0 107.5 L 165.5 107.5 L 168.0 107.5 L 168.5 107.5 L 168.5 107.5 L 168.5 107.5 L 168.0 107.5 L 168.0 107.5 L 168.0 108.0 L 168.0 109.0 L 168.0 111.0 L 168.0 114.5 L 167.5 118.5 L 167.0 122.0 L 166.5 125.0 L 166.5 126.5 L 166.5 127.0 " stroke="black" fill="none" stroke-width="6.0" stroke-linecap="round" stroke-linejoin="round" />
<path d="M 128.0 126.0 L 126.5 126.0 L 125.5 126.0 L 125.0 126.0 L 126.0 126.0 L 130.0 125.0 L 137.0 123.5 L 147.5 121.5 L 160.5 119.0 L 171.0 118.0 L 177.5 118.0 L 180.0 118.5 L 180.0 119.0 L 179.5 119.0 L 178.0 119.0 " stroke="black" fill="none" stroke-width="6.0" stroke-linecap="round" stroke-linejoin="round" />
<path d="M 131.5 137.5 L 131.5 137.5 L 131.5 138.0 L 131.5 138.0 L 132.0 138.0 L 135.0 138.0 L 143.0 136.0 L 153.5 134.0 L 163.5 132.0 L 171.5 130.5 L 175.5 130.5 L 177.0 130.5 L 177.0 131.0 " stroke="black" fill="none" stroke-width="6.0" stroke-linecap="round" stroke-linejoin="round" />
<path d="M 147.0 96.0 L 147.0 96.5 L 147.5 97.0 L 148.0 98.0 L 148.5 99.5 L 149.5 103.5 L 150.0 110.0 L 150.0 119.0 L 149.5 128.0 L 148.5 136.5 L 148.5 142.5 L 149.0 145.5 L 149.5 146.5 " stroke="black" fill="none" stroke-width="6.0" stroke-linecap="round" stroke-linejoin="round" />
<path d="M 126.0 150.5 L 126.0 150.5 L 126.0 151.0 L 126.0 151.0 L 128.0 151.0 L 133.5 150.0 L 142.5 149.5 L 152.0 149.5 L 162.0 149.5 L 170.5 147.5 L 176.0 146.0 L 179.5 145.5 L 180.0 145.5 " stroke="black" fill="none" stroke-width="6.0" stroke-linecap="round" stroke-linejoin="round" />
<path d="M 127.0 164.0 L 127.0 163.5 L 127.5 163.0 L 127.5 162.5 L 127.5 162.0 L 128.0 162.0 L 128.0 163.5 L 127.5 166.0 L 126.5 169.5 L 125.5 171.5 " stroke="black" fill="none" stroke-width="6.0" stroke-linecap="round" stroke-linejoin="round" />
<path d="M 141.5 160.0 L 141.0 161.0 L 141.0 161.5 L 141.0 162.5 L 141.0 164.0 L 143.0 166.0 L 145.0 167.5 L 146.5 168.5 " stroke="black" fill="none" stroke-width="6.0" stroke-linecap="round" stroke-linejoin="round" />
<path d="M 158.0 161.5 L 157.5 162.0 L 157.0 162.5 L 157.0 163.0 L 157.0 164.5 L 159.0 166.5 L 161.0 168.0 L 162.0 168.5 " stroke="black" fill="none" stroke-width="6.0" stroke-linecap="round" stroke-linejoin="round" />
<path d="M 176.0 159.0 L 176.0 159.0 L 176.5 159.5 L 177.0 159.5 L 178.0 160.0 L 179.0 162.0 L 180.5 164.0 L 182.0 166.0 L 182.5 167.0 " stroke="black" fill="none" stroke-width="6.0" stroke-linecap="round" stroke-linejoin="round" />
<path d="M 135.5 180.5 L 135.5 179.5 L 136.0 178.5 L 136.0 178.0 L 136.0 178.0 L 136.5 179.5 L 137.5 184.0 L 138.5 188.5 L 139.0 192.0 L 140.0 193.0 L 140.0 192.0 " stroke="black" fill="none" stroke-width="6.0" stroke-linecap="round" stroke-linejoin="round" />
<path d="M 137.0 177.0 L 136.5 177.0 L 136.5 177.5 L 136.0 178.0 L 136.0 178.5 L 137.0 179.0 L 139.5 179.0 L 143.5 179.0 L 150.5 179.0 L 159.0 178.5 L 166.5 178.0 L 172.0 178.5 L 176.0 178.5 L 178.5 178.0 L 179.5 177.5 L 179.5 177.5 L 179.5 177.5 L 179.5 177.5 L 179.5 178.5 L 179.5 180.5 L 179.0 182.5 L 178.5 185.5 L 178.0 188.5 L 177.0 191.0 L 176.0 193.0 L 176.0 193.0 " stroke="black" fill="none" stroke-width="6.0" stroke-linecap="round" stroke-linejoin="round" />
<path d="M 151.0 183.5 L 151.0 183.0 L 151.0 182.5 L 151.5 182.5 L 151.5 182.5 L 152.0 184.5 L 152.5 188.0 L 153.0 191.0 L 153.0 191.5 " stroke="black" fill="none" stroke-width="6.0" stroke-linecap="round" stroke-linejoin="round" />
<path d="M 161.5 180.5 L 162.0 180.5 L 162.5 180.5 L 163.0 181.0 L 163.5 183.0 L 164.0 186.5 L 164.0 191.0 L 163.5 193.5 " stroke="black" fill="none" stroke-width="6.0" stroke-linecap="round" stroke-linejoin="round" />
<path d="M 127.5 196.5 L 127.5 196.5 L 127.5 197.0 L 127.0 197.0 L 127.0 197.0 L 127.0 197.0 L 128.0 196.5 L 132.5 195.5 L 142.5 194.5 L 156.0 193.0 L 168.0 192.5 L 175.0 193.0 L 180.0 193.5 L 183.5 193.5 L 186.0 193.5 L 187.0 193.0 L 187.0 192.5 L 187.0 192.5 L 187.0 192.5 " stroke="black" fill="none" stroke-width="6.0" stroke-linecap="round" stroke-linejoin="round" />
</svg>