<svg xmlns="http://www.w3.org/2000/svg" width="300" height="300" viewBox="0 0 300 300">
<path d="M 130.0 119.0 L 130.0 119.0 L 130.0 118.0 L 130.0 118.0 L 131.0 117.5 L 135.0 117.5 L 145.0 117.5 L 157.5 116.5 L 169.0 115.5 L 175.5 115.0 L 176.5 115.0 L 176.5 115.0 L 175.0 115.5 L 173.5 117.0 L 172.5 119.0 L 172.0 121.0 L 171.0 124.5 L 169.0 129.5 L 167.5 135.5 L 166.5 139.5 L 166.5 140.5 L 167.5 139.5 " stroke="black" fill="none" stroke-width="6.0" stroke-linecap="round" stroke-linejoin="round" />
<path d="M 125.5 128.0 L 125.5 128.0 L 124.0 128.0 L 123.5 128.0 L 125.5 128.0 L 134.0 127.0 L 147.5 126.0 L 162.0 124.5 L 174.0 124.0 L 180.5 124.0 L 182.0 124.5 L 180.5 125.5 " stroke="black" fill="none" stroke-width="6.0" stroke-linecap="round" stroke-linejoin="round" />
<path d="M 129.5 144.5 L 129.0 144.5 L 128.0 144.5 L 128.5 144.5 L 134.0 143.5 L 146.0 141.5 L 160.0 139.5 L 169.0 139.0 L 172.5 139.0 " stroke="black" fill="none" stroke-width="6.0" stroke-linecap="round" stroke-linejoin="round" />
<path d="M 149.5 100.5 L 149.5 100.5 L 149.5 100.5 L 149.5 101.5 L 150.0 107.0 L 151.0 120.5 L 151.0 135.5 L 149.5 146.0 L 149.5 151.5 L 149.5 153.0 L 150.0 152.0 " stroke="black" fill="none" stroke-width="6.0" stroke-linecap="round" stroke-linejoin="round" />
<path d="M 126.5 156.0 L 126.5 156.0 L 126.5 156.0 L 126.5 156.0 L 127.5 156.0 L 131.0 156.0 L 139.5 155.5 L 152.5 154.5 L 166.5 154.0 L 177.0 153.5 L 180.5 152.5 " stroke="black" fill="none" stroke-width="6.0" stroke-linecap="round" stroke-linejoin="round" />
<path d="M 127.5 168.5 L 127.5 168.0 L 127.0 168.0 L 125.5 169.5 L 124.0 173.0 L 123.0 176.0 L 123.0 177.0 " stroke="black" fill="none" stroke-width="6.0" stroke-linecap="round" stroke-linejoin="round" />
<path d="M 141.5 168.5 L 141.0 168.5 L 140.5 168.5 L 140.5 168.5 L 141.0 169.0 L 142.0 171.0 L 143.5 173.5 L 144.5 174.0 " stroke="black" fill="none" stroke-width="6.0" stroke-linecap="round" stroke-linejoin="round" />
<path d="M 156.0 167.0 L 156.0 166.5 L 155.5 166.5 L 155.0 166.5 L 156.0 167.5 L 158.0 169.0 L 160.0 170.0 L 160.5 170.5 " stroke="black" fill="none" stroke-width="6.0" stroke-linecap="round" stroke-linejoin="round" />
<path d="M 173.5 165.5 L 173.5 165.5 L 173.5 165.5 L 174.0 165.5 L 176.0 167.0 L 177.5 168.5 L 178.5 169.0 " stroke="black" fill="none" stroke-width="6.0" stroke-linecap="round" stroke-linejoin="round" />
<path d="M 128.0 185.5 L 128.5 184.5 L 129.0 183.5 L 129.5 183.5 L 130.5 186.0 L 132.0 190.5 L 133.5 194.0 L 134.5 195.5 L 135.0 195.0 L 135.0 194.5 " stroke="black" fill="none" stroke-width="6.0" stroke-linecap="round" stroke-linejoin="round" />
<path d="M 134.5 183.0 L 134.0 182.0 L 133.0 181.5 L 133.0 181.5 L 135.0 181.5 L 140.5 181.5 L 148.5 181.0 L 158.5 179.5 L 167.5 179.0 L 171.5 179.5 L 172.5 180.5 L 172.5 180.5 L 172.0 180.5 L 172.0 180.5 L 172.0 181.0 L 171.5 183.5 L 171.0 186.5 L 170.0 190.5 L 170.0 193.0 L 170.0 194.5 L 170.0 195.5 " stroke="black" fill="none" stroke-width="6.0" stroke-linecap="round" stroke-linejoin="round" />
<path d="M 144.5 184.5 L 144.5 184.5 L 143.5 184.5 L 143.0 184.5 L 143.0 185.0 L 144.0 187.5 L 146.0 191.0 L 147.5 192.5 " stroke="black" fill="none" stroke-width="6.0" stroke-linecap="round" stroke-linejoin="round" />
<path d="M 153.5 181.5 L 153.5 182.0 L 154.0 182.5 L 154.5 183.5 L 154.5 186.5 L 154.5 191.0 L 153.5 194.5 L 152.5 195.5 " stroke="black" fill="none" stroke-width="6.0" stroke-linecap="round" stroke-linejoin="round" />
<path d="M 130.5 201.0 L 130.5 201.0 L 130.5 201.0 L 130.0 201.0 L 131.5 201.0 L 138.5 199.5 L 150.5 198.0 L 165.0 196.0 L 176.5 195.0 L 182.5 194.5 L 185.0 195.0 L 185.0 195.5 " stroke="black" fill="none" stroke-width="6.0" stroke-linecap="round" stroke-linejoin="round" />
</svg>