<svg xmlns="http://www.w3.org/2000/svg" width="300" height="300" viewBox="0 0 300 300">
<path d="M 136.5 111.0 L 135.5 110.5 L 134.5 110.5 L 134.5 110.0 L 134.5 110.0 L 137.0 110.0 L 141.5 109.5 L 148.0 108.5 L 157.0 106.5 L 165.0 106.0 L 171.0 106.0 L 172.5 106.0 L 172.5 106.0 L 172.0 106.0 L 172.0 106.0 L 172.0 106.0 L 172.0 106.0 L 172.0 107.5 L 171.5 110.0 L 170.5 114.0 L 169.0 118.5 L 168.5 121.0 L 168.5 122.0 " stroke="black" fill="none" stroke-width="6.0" stroke-linecap="round" stroke-linejoin="round" />
<path d="M 130.0 122.5 L 130.0 122.5 L 129.0 122.5 L 128.5 122.5 L 128.0 123.0 L 129.5 123.0 L 135.5 121.5 L 146.5 118.5 L 160.0 115.0 L 170.0 114.0 L 176.0 114.0 L 177.0 114.0 L 176.0 114.5 L 175.0 114.5 " stroke="black" fill="none" stroke-width="6.0" stroke-linecap="round" stroke-linejoin="round" />
<path d="M 136.5 129.0 L 136.5 129.5 L 136.5 130.0 L 136.5 130.5 L 137.5 130.5 L 143.5 129.0 L 153.0 126.5 L 162.5 124.5 L 170.0 123.5 L 172.5 123.5 " stroke="black" fill="none" stroke-width="6.0" stroke-linecap="round" stroke-linejoin="round" />
<path d="M 153.0 94.5 L 153.0 95.0 L 153.0 96.0 L 153.0 98.5 L 152.5 104.5 L 152.5 114.0 L 152.5 124.0 L 152.5 132.0 L 152.5 137.5 L 153.0 139.0 L 153.5 139.5 " stroke="black" fill="none" stroke-width="6.0" stroke-linecap="round" stroke-linejoin="round" />
<path d="M 137.0 146.0 L 137.0 146.0 L 137.0 146.0 L 137.0 146.0 L 136.5 145.5 L 137.0 145.0 L 142.0 143.5 L 151.5 141.5 L 162.5 140.0 L 171.0 139.0 L 174.5 138.0 L 175.0 137.5 " stroke="black" fill="none" stroke-width="6.0" stroke-linecap="round" stroke-linejoin="round" />
<path d="M 132.0 156.0 L 132.5 156.0 L 133.0 156.0 L 133.0 156.0 L 133.0 156.0 L 132.5 157.5 L 131.0 160.5 L 129.5 163.5 L 129.0 165.5 " stroke="black" fill="none" stroke-width="6.0" stroke-linecap="round" stroke-linejoin="round" />
<path d="M 146.0 154.0 L 145.0 154.0 L 144.0 154.0 L 144.0 154.0 L 144.0 154.5 L 145.5 156.5 L 147.0 158.0 L 149.0 159.0 L 150.0 159.5 " stroke="black" fill="none" stroke-width="6.0" stroke-linecap="round" stroke-linejoin="round" />
<path d="M 159.5 150.5 L 158.5 151.0 L 158.0 151.0 L 158.0 151.5 L 158.5 152.5 L 160.5 154.0 L 162.5 155.0 L 164.5 155.0 " stroke="black" fill="none" stroke-width="6.0" stroke-linecap="round" stroke-linejoin="round" />
<path d="M 175.0 150.0 L 175.0 150.0 L 175.0 150.0 L 175.5 149.5 L 176.0 149.5 L 177.0 150.5 L 178.5 152.5 L 179.5 154.5 L 180.5 156.0 " stroke="black" fill="none" stroke-width="6.0" stroke-linecap="round" stroke-linejoin="round" />
<path d="M 139.0 173.5 L 139.5 173.0 L 139.5 172.5 L 140.0 172.5 L 140.5 173.0 L 141.0 175.5 L 141.5 179.0 L 142.0 182.0 L 142.5 182.5 " stroke="black" fill="none" stroke-width="6.0" stroke-linecap="round" stroke-linejoin="round" />
<path d="M 142.0 171.0 L 141.0 171.5 L 139.5 172.0 L 139.5 172.0 L 143.0 172.0 L 148.0 171.5 L 154.5 170.5 L 161.5 169.5 L 167.0 169.5 L 171.5 169.0 L 173.0 169.0 L 173.5 168.5 L 173.5 168.0 L 173.5 168.0 L 173.5 169.0 L 173.5 170.5 L 173.5 172.5 L 173.0 175.5 L 172.5 179.0 L 171.5 182.0 L 171.5 184.0 " stroke="black" fill="none" stroke-width="6.0" stroke-linecap="round" stroke-linejoin="round" />
<path d="M 153.5 175.5 L 154.0 175.5 L 154.0 175.0 L 154.5 175.0 L 154.5 175.0 L 154.5 176.5 L 154.5 179.5 L 155.0 181.5 L 155.0 182.0 " stroke="black" fill="none" stroke-width="6.0" stroke-linecap="round" stroke-linejoin="round" />
<path d="M 164.0 171.0 L 164.0 171.0 L 163.5 171.0 L 163.5 171.0 L 163.5 171.5 L 163.5 174.5 L 163.5 178.0 L 163.0 181.0 L 163.0 182.0 " stroke="black" fill="none" stroke-width="6.0" stroke-linecap="round" stroke-linejoin="round" />
<path d="M 133.0 191.5 L 132.5 191.5 L 132.5 191.0 L 132.5 191.0 L 136.0 191.0 L 143.5 191.0 L 155.5 190.0 L 169.5 188.0 L 180.0 186.5 L 187.5 186.5 L 191.5 188.5 L 192.0 189.0 " stroke="black" fill="none" stroke-width="6.0" stroke-linecap="round" stroke-linejoin="round" />
</svg>