<svg xmlns="http://www.w3.org/2000/svg" width="300" height="300" viewBox="0 0 300 300">
<path d="M 131.0 105.0 L 130.5 105.0 L 130.0 105.0 L 129.5 105.0 L 129.5 105.0 L 130.5 105.0 L 135.5 104.0 L 145.0 102.0 L 158.5 100.0 L 169.5 100.0 L 174.0 101.0 L 175.0 101.5 L 175.0 101.5 L 175.5 101.0 L 175.5 100.5 L 175.0 100.5 L 175.0 100.5 " stroke="black" fill="none" stroke-width="6.0" stroke-linecap="round" stroke-linejoin="round" />
<path d="M 126.0 119.0 L 126.0 118.5 L 126.0 117.5 L 126.0 116.0 L 126.0 115.0 L 126.5 114.0 L 126.5 114.0 L 126.5 115.0 L 124.5 120.5 L 121.5 126.5 L 119.5 130.5 L 119.0 131.0 L 119.5 130.5 " stroke="black" fill="none" stroke-width="6.0" stroke-linecap="round" stroke-linejoin="round" />
<path d="M 129.0 117.0 L 128.5 117.0 L 128.0 116.5 L 128.0 116.5 L 130.5 116.0 L 136.0 116.0 L 146.0 115.0 L 158.0 113.5 L 169.0 112.0 L 175.5 111.5 L 177.5 112.0 L 178.0 112.5 L 180.0 112.5 L 183.0 112.0 L 187.0 111.5 L 188.5 111.0 L 188.5 111.5 L 187.5 113.5 L 186.0 116.0 L 184.5 118.5 L 183.5 120.5 L 182.5 123.5 L 181.0 126.5 L 180.0 129.0 L 179.5 130.0 " stroke="black" fill="none" stroke-width="6.0" stroke-linecap="round" stroke-linejoin="round" />
<path d="M 153.0 103.5 L 153.0 103.5 L 153.0 102.5 L 153.5 102.0 L 154.0 102.5 L 154.0 106.0 L 154.0 112.5 L 152.5 121.5 L 151.0 130.0 L 151.0 136.0 L 151.0 137.0 " stroke="black" fill="none" stroke-width="6.0" stroke-linecap="round" stroke-linejoin="round" />
<path d="M 134.0 124.5 L 134.0 124.5 L 134.0 124.5 L 134.0 124.5 L 134.5 124.5 L 136.0 125.5 L 137.5 127.0 L 138.5 128.5 " stroke="black" fill="none" stroke-width="6.0" stroke-linecap="round" stroke-linejoin="round" />
<path d="M 129.5 139.0 L 129.0 139.0 L 128.0 139.0 L 128.0 139.0 L 130.0 138.5 L 133.0 138.0 L 136.0 137.5 L 138.0 137.0 " stroke="black" fill="none" stroke-width="6.0" stroke-linecap="round" stroke-linejoin="round" />
<path d="M 164.5 123.0 L 164.5 122.5 L 164.0 122.0 L 164.0 121.0 L 164.0 120.5 L 164.5 120.5 L 164.5 121.0 L 164.0 123.5 L 162.0 127.0 L 160.5 129.5 " stroke="black" fill="none" stroke-width="6.0" stroke-linecap="round" stroke-linejoin="round" />
<path d="M 157.0 135.5 L 157.0 136.5 L 158.0 137.0 L 160.0 137.5 L 163.0 138.0 L 166.5 139.5 L 168.5 141.0 L 170.0 142.0 " stroke="black" fill="none" stroke-width="6.0" stroke-linecap="round" stroke-linejoin="round" />
<path d="M 127.0 152.0 L 126.5 151.5 L 126.5 151.0 L 126.5 150.0 L 126.5 150.0 L 127.0 150.5 L 127.5 152.5 L 128.5 155.5 L 129.0 158.0 L 129.0 158.5 " stroke="black" fill="none" stroke-width="6.0" stroke-linecap="round" stroke-linejoin="round" />
<path d="M 127.5 154.5 L 127.0 154.5 L 126.0 154.5 L 126.0 154.0 L 128.0 152.5 L 131.0 151.5 L 134.5 150.5 L 138.0 149.5 L 141.0 149.0 L 143.5 148.5 L 144.5 148.5 L 144.5 149.0 L 144.5 150.0 L 144.5 152.0 L 144.0 155.0 L 142.5 158.5 L 141.5 162.0 L 141.0 164.5 L 140.5 165.0 " stroke="black" fill="none" stroke-width="6.0" stroke-linecap="round" stroke-linejoin="round" />
<path d="M 130.0 167.5 L 129.0 168.0 L 128.0 168.0 L 128.0 168.0 L 130.0 168.0 L 133.5 167.0 L 137.0 166.0 L 140.0 166.0 L 140.5 166.0 " stroke="black" fill="none" stroke-width="6.0" stroke-linecap="round" stroke-linejoin="round" />
<path d="M 139.0 172.0 L 139.0 172.5 L 138.5 173.0 L 138.0 174.0 L 138.0 176.0 L 138.0 179.5 L 138.5 183.0 L 138.5 185.0 " stroke="black" fill="none" stroke-width="6.0" stroke-linecap="round" stroke-linejoin="round" />
<path d="M 137.0 180.0 L 137.0 180.0 L 137.5 180.0 L 139.0 180.0 L 142.0 179.5 L 145.0 179.5 L 147.0 179.0 " stroke="black" fill="none" stroke-width="6.0" stroke-linecap="round" stroke-linejoin="round" />
<path d="M 127.0 177.0 L 126.5 177.0 L 126.0 177.0 L 126.0 177.0 L 126.0 178.0 L 126.5 181.5 L 127.5 187.5 L 127.5 193.0 L 127.5 197.5 L 127.5 198.5 " stroke="black" fill="none" stroke-width="6.0" stroke-linecap="round" stroke-linejoin="round" />
<path d="M 121.0 201.0 L 121.0 201.5 L 121.0 202.0 L 123.0 202.0 L 128.5 199.0 L 136.5 195.0 L 145.0 192.0 L 150.5 190.5 L 153.0 190.0 L 153.0 190.0 " stroke="black" fill="none" stroke-width="6.0" stroke-linecap="round" stroke-linejoin="round" />
<path d="M 161.0 151.5 L 161.0 151.0 L 162.0 150.0 L 162.5 149.0 L 163.0 148.5 L 163.0 148.5 L 162.5 149.5 L 160.5 152.5 L 158.0 156.0 L 156.0 158.5 " stroke="black" fill="none" stroke-width="6.0" stroke-linecap="round" stroke-linejoin="round" />
<path d="M 158.5 155.5 L 158.5 156.0 L 158.5 156.0 L 160.0 156.0 L 164.0 155.0 L 170.0 153.0 L 175.5 152.0 L 180.0 152.0 L 182.5 152.0 L 183.0 152.0 L 183.0 152.0 L 182.0 152.0 L 180.5 153.0 L 178.5 155.0 L 174.5 159.0 L 169.5 165.0 L 163.5 171.5 L 159.0 175.5 L 158.0 176.5 L 157.0 176.5 L 156.5 176.0 " stroke="black" fill="none" stroke-width="6.0" stroke-linecap="round" stroke-linejoin="round" />
<path d="M 165.0 164.5 L 164.5 164.5 L 163.5 164.0 L 163.5 164.0 L 166.0 165.0 L 171.0 168.0 L 177.0 171.0 L 183.0 172.5 L 188.0 172.5 L 188.5 172.5 " stroke="black" fill="none" stroke-width="6.0" stroke-linecap="round" stroke-linejoin="round" />
<path d="M 166.5 182.0 L 166.0 181.5 L 165.0 181.5 L 165.0 181.0 L 165.0 182.5 L 165.0 187.0 L 166.0 191.5 L 167.5 194.0 L 168.0 194.0 " stroke="black" fill="none" stroke-width="6.0" stroke-linecap="round" stroke-linejoin="round" />
<path d="M 168.0 183.0 L 168.0 183.0 L 168.0 182.5 L 168.5 181.5 L 171.0 181.0 L 174.5 180.5 L 178.5 180.0 L 182.0 179.0 L 183.5 179.0 L 183.5 180.5 L 183.0 184.0 L 182.0 189.0 L 180.5 193.5 L 179.5 197.0 L 178.5 198.0 " stroke="black" fill="none" stroke-width="6.0" stroke-linecap="round" stroke-linejoin="round" />
<path d="M 168.5 198.5 L 167.5 199.5 L 167.0 200.0 L 168.0 200.0 L 171.5 200.0 L 175.5 200.0 L 180.0 199.0 L 182.5 198.0 " stroke="black" fill="none" stroke-width="6.0" stroke-linecap="round" stroke-linejoin="round" />
</svg>