<svg xmlns="http://www.w3.org/2000/svg" width="300" height="300" viewBox="0 0 300 300">
<path d="M 126.5 112.5 L 126.0 112.5 L 125.0 113.0 L 125.0 113.0 L 125.0 113.0 L 126.5 115.0 L 129.0 117.5 L 130.5 120.5 L 132.5 123.0 L 133.0 125.0 " stroke="black" fill="none" stroke-width="6.0" stroke-linecap="round" stroke-linejoin="round" />
<path d="M 125.0 142.5 L 124.0 142.5 L 123.0 142.5 L 123.5 143.0 L 125.0 144.5 L 127.5 147.0 L 129.5 150.0 L 131.0 152.5 L 132.0 156.0 L 132.0 157.0 " stroke="black" fill="none" stroke-width="6.0" stroke-linecap="round" stroke-linejoin="round" />
<path d="M 123.5 181.0 L 123.0 181.0 L 121.5 181.5 L 121.5 182.0 L 122.5 181.5 L 124.0 179.5 L 126.0 177.0 L 128.5 174.0 L 130.5 170.5 L 132.0 168.5 " stroke="black" fill="none" stroke-width="6.0" stroke-linecap="round" stroke-linejoin="round" />
<path d="M 148.0 108.5 L 147.5 108.5 L 147.0 108.0 L 147.0 108.0 L 146.5 109.0 L 146.0 114.5 L 145.0 122.5 L 144.5 128.5 L 144.5 130.0 L 144.5 130.0 " stroke="black" fill="none" stroke-width="6.0" stroke-linecap="round" stroke-linejoin="round" />
<path d="M 146.0 120.5 L 145.5 120.5 L 145.0 120.5 L 145.5 121.0 L 148.5 121.0 L 153.0 120.5 L 158.0 119.5 L 163.5 118.5 L 167.5 117.5 L 169.5 117.0 L 169.5 117.0 L 168.5 117.0 L 168.0 117.0 L 167.5 117.0 L 167.5 117.5 L 167.0 117.5 L 167.0 118.0 L 166.5 118.5 L 166.0 119.0 L 165.5 121.0 L 164.0 123.5 L 162.0 128.5 L 158.5 134.5 L 154.5 140.5 L 150.0 145.0 L 146.5 148.5 L 143.0 151.0 L 140.5 153.0 L 138.5 154.0 L 138.0 154.5 L 138.5 155.0 L 139.0 155.0 " stroke="black" fill="none" stroke-width="6.0" stroke-linecap="round" stroke-linejoin="round" />
<path d="M 150.5 134.0 L 150.5 134.5 L 150.0 135.0 L 150.0 135.5 L 150.0 137.5 L 153.0 142.0 L 158.5 149.0 L 166.5 155.0 L 172.5 157.5 L 176.5 158.0 L 179.5 158.5 L 179.5 158.5 " stroke="black" fill="none" stroke-width="6.0" stroke-linecap="round" stroke-linejoin="round" />
<path d="M 147.0 163.0 L 146.5 162.0 L 146.0 161.0 L 146.0 161.0 L 146.0 161.0 L 146.0 164.5 L 147.0 170.0 L 147.5 175.5 L 148.5 179.5 L 149.0 180.5 L 149.5 180.0 " stroke="black" fill="none" stroke-width="6.0" stroke-linecap="round" stroke-linejoin="round" />
<path d="M 150.0 162.5 L 149.0 162.5 L 148.0 162.5 L 147.5 162.5 L 148.5 162.5 L 151.0 162.5 L 154.0 162.0 L 158.0 161.5 L 162.0 161.5 L 165.0 161.5 L 167.0 161.5 L 167.0 162.0 L 167.0 163.0 L 167.0 164.0 L 166.5 166.0 L 166.5 168.5 L 166.0 172.0 L 166.0 175.0 L 166.0 177.5 L 166.0 178.5 L 166.0 179.0 " stroke="black" fill="none" stroke-width="6.0" stroke-linecap="round" stroke-linejoin="round" />
<path d="M 152.0 183.0 L 152.5 183.0 L 153.0 183.5 L 153.5 183.5 L 154.5 183.5 L 157.5 183.5 L 162.0 183.0 L 168.0 182.5 " stroke="black" fill="none" stroke-width="6.0" stroke-linecap="round" stroke-linejoin="round" />
</svg>