<svg xmlns="http://www.w3.org/2000/svg" width="300" height="300" viewBox="0 0 300 300">
<path d="M 133.5 107.5 L 133.0 107.5 L 132.5 108.0 L 132.5 108.0 L 135.5 107.5 L 141.0 106.5 L 147.5 105.5 L 154.0 105.0 L 157.5 105.0 L 158.5 106.0 L 158.5 106.5 L 157.5 107.0 L 157.0 108.5 L 155.5 110.5 L 153.5 114.0 L 150.5 118.0 L 148.0 121.5 L 147.0 123.5 L 147.0 124.0 L 147.0 124.0 L 147.0 123.5 L 147.5 123.0 L 147.5 123.0 L 147.5 123.0 L 148.0 123.0 " stroke="black" fill="none" stroke-width="6.0" stroke-linecap="round" stroke-linejoin="round" />
<path d="M 147.0 124.0 L 147.0 123.5 L 147.5 123.0 L 147.5 122.5 L 147.5 122.5 L 147.5 122.5 L 148.0 124.5 L 148.0 128.0 L 148.5 134.5 L 148.5 144.5 L 148.5 154.5 L 149.0 163.0 L 149.5 167.5 L 150.0 174.5 L 150.0 179.0 L 150.0 181.0 L 149.0 181.0 L 148.0 181.0 L 146.0 180.0 L 144.0 179.0 L 141.5 177.5 L 139.0 176.0 L 138.0 173.5 " stroke="black" fill="none" stroke-width="6.0" stroke-linecap="round" stroke-linejoin="round" />
<path d="M 127.5 136.0 L 127.5 136.0 L 127.5 136.5 L 128.0 136.5 L 128.5 136.5 L 129.5 136.5 L 134.0 136.5 L 142.0 135.5 L 153.0 134.0 L 163.5 133.5 L 168.0 133.5 L 169.0 134.0 L 168.5 134.5 L 167.5 134.5 " stroke="black" fill="none" stroke-width="6.0" stroke-linecap="round" stroke-linejoin="round" />
</svg>