<svg xmlns="http://www.w3.org/2000/svg" width="300" height="300" viewBox="0 0 300 300">
<path d="M 123.5 128.0 L 123.5 128.0 L 122.5 128.0 L 122.0 128.0 L 122.0 128.0 L 124.5 128.0 L 130.0 128.5 L 136.5 128.5 L 142.0 128.5 L 145.0 128.5 L 146.0 128.0 L 146.0 128.0 " stroke="black" fill="none" stroke-width="6.0" stroke-linecap="round" stroke-linejoin="round" />
<path d="M 122.0 129.0 L 122.0 129.0 L 121.5 129.5 L 121.5 129.5 L 121.5 131.0 L 122.5 135.0 L 122.5 144.0 L 121.5 155.5 L 118.5 167.0 L 116.0 175.5 L 114.5 181.0 L 113.5 184.5 L 113.0 185.5 L 113.0 185.0 L 113.0 182.0 " stroke="black" fill="none" stroke-width="6.0" stroke-linecap="round" stroke-linejoin="round" />
<path d="M 134.5 137.0 L 135.0 137.0 L 135.0 137.0 L 135.5 137.0 L 136.0 137.0 L 136.5 136.5 L 136.5 137.0 L 136.5 139.5 L 136.5 142.5 L 135.5 145.0 L 135.0 146.0 " stroke="black" fill="none" stroke-width="6.0" stroke-linecap="round" stroke-linejoin="round" />
<path d="M 128.5 148.5 L 128.0 148.5 L 127.5 148.5 L 127.5 149.5 L 128.0 152.5 L 129.0 157.0 L 129.5 162.0 L 130.5 164.5 L 131.0 164.0 " stroke="black" fill="none" stroke-width="6.0" stroke-linecap="round" stroke-linejoin="round" />
<path d="M 130.5 150.5 L 130.5 150.5 L 130.5 150.0 L 130.5 150.0 L 130.5 149.5 L 132.0 149.0 L 135.0 148.5 L 139.5 148.0 L 143.5 148.0 L 145.5 148.0 L 147.0 149.0 L 147.0 150.5 L 147.0 153.5 L 147.0 157.5 L 146.5 162.5 L 145.5 166.0 L 145.5 168.5 L 145.0 170.0 L 145.0 170.0 " stroke="black" fill="none" stroke-width="6.0" stroke-linecap="round" stroke-linejoin="round" />
<path d="M 133.5 158.0 L 133.5 158.5 L 132.5 158.5 L 132.5 158.5 L 135.0 158.5 L 138.5 158.5 L 141.5 158.5 L 144.0 158.5 " stroke="black" fill="none" stroke-width="6.0" stroke-linecap="round" stroke-linejoin="round" />
<path d="M 133.0 168.0 L 133.0 168.0 L 133.0 168.0 L 133.0 168.0 L 135.5 168.0 L 139.0 168.0 L 142.0 168.5 L 143.0 168.5 " stroke="black" fill="none" stroke-width="6.0" stroke-linecap="round" stroke-linejoin="round" />
<path d="M 137.5 173.0 L 138.5 173.5 L 138.5 173.5 L 139.0 174.0 L 139.5 175.0 L 140.0 177.5 L 140.0 183.0 L 140.0 188.5 L 139.5 191.5 L 138.5 192.5 L 136.5 193.0 L 134.5 191.5 L 133.0 190.0 " stroke="black" fill="none" stroke-width="6.0" stroke-linecap="round" stroke-linejoin="round" />
<path d="M 129.0 176.0 L 128.5 176.0 L 127.5 176.5 L 127.0 176.5 L 127.0 176.5 L 127.0 176.5 L 127.0 176.5 L 127.5 176.5 L 128.0 177.0 L 128.5 177.0 L 128.5 177.0 L 129.0 177.0 L 129.0 177.0 L 129.0 177.0 L 129.0 177.0 L 129.0 177.0 L 129.0 177.0 L 129.0 177.0 L 129.0 177.0 L 129.0 177.0 L 129.0 177.0 L 129.0 177.0 L 129.0 177.0 L 129.0 177.0 L 129.0 177.0 L 129.0 177.0 L 129.0 177.0 L 129.0 177.0 L 129.0 177.0 L 129.5 177.0 L 129.5 177.0 L 129.5 177.0 L 129.5 177.0 L 129.5 177.0 L 129.5 177.0 L 129.5 177.0 L 129.5 177.0 L 129.5 177.0 L 129.5 177.0 L 129.5 177.0 L 129.5 177.0 L 129.5 177.0 L 129.5 177.0 L 129.5 177.0 L 129.5 177.0 L 129.5 177.0 L 129.5 177.0 L 129.0 177.0 L 128.5 178.0 L 127.0 179.5 L 125.5 181.0 L 124.5 183.0 L 124.5 183.5 " stroke="black" fill="none" stroke-width="6.0" stroke-linecap="round" stroke-linejoin="round" />
<path d="M 148.0 179.0 L 148.0 180.0 L 148.0 180.5 L 148.0 181.5 L 150.0 182.5 L 152.5 184.0 L 154.5 184.5 L 155.0 184.5 " stroke="black" fill="none" stroke-width="6.0" stroke-linecap="round" stroke-linejoin="round" />
<path d="M 158.0 130.0 L 157.5 131.0 L 157.5 131.5 L 157.5 132.0 L 161.0 132.0 L 166.5 132.0 L 171.5 131.5 L 175.5 131.0 L 177.0 130.0 L 177.0 129.5 " stroke="black" fill="none" stroke-width="6.0" stroke-linecap="round" stroke-linejoin="round" />
<path d="M 169.0 131.0 L 169.0 131.0 L 168.5 131.5 L 168.0 132.0 L 168.0 133.0 L 167.0 136.5 L 166.0 141.0 L 165.0 144.0 L 165.0 144.5 " stroke="black" fill="none" stroke-width="6.0" stroke-linecap="round" stroke-linejoin="round" />
<path d="M 157.0 148.0 L 157.5 148.0 L 158.0 147.0 L 158.5 147.0 L 159.0 148.0 L 160.0 152.5 L 160.5 161.0 L 160.5 169.0 L 160.5 173.0 L 161.0 173.5 L 161.5 172.5 " stroke="black" fill="none" stroke-width="6.0" stroke-linecap="round" stroke-linejoin="round" />
<path d="M 163.5 146.0 L 162.5 146.0 L 161.0 146.0 L 160.5 146.0 L 161.5 146.0 L 164.5 147.0 L 169.0 147.0 L 173.0 146.5 L 176.5 146.0 L 179.0 145.5 L 180.0 146.0 L 181.0 148.5 L 181.0 153.0 L 181.0 160.0 L 180.0 167.5 L 180.0 173.0 L 180.0 175.5 L 180.0 176.0 L 180.0 175.5 " stroke="black" fill="none" stroke-width="6.0" stroke-linecap="round" stroke-linejoin="round" />
<path d="M 164.0 156.5 L 163.0 156.5 L 162.0 157.0 L 162.5 157.0 L 165.5 156.5 L 170.5 156.0 L 175.0 155.0 L 178.5 154.5 L 179.0 154.5 " stroke="black" fill="none" stroke-width="6.0" stroke-linecap="round" stroke-linejoin="round" />
<path d="M 166.5 164.5 L 165.5 164.5 L 165.0 164.5 L 166.5 164.5 L 170.0 165.0 L 174.0 165.0 L 177.5 164.5 " stroke="black" fill="none" stroke-width="6.0" stroke-linecap="round" stroke-linejoin="round" />
<path d="M 163.5 176.0 L 163.0 177.5 L 163.5 178.0 L 165.5 177.5 L 170.0 177.0 L 174.0 176.5 L 177.5 176.5 L 178.5 176.5 " stroke="black" fill="none" stroke-width="6.0" stroke-linecap="round" stroke-linejoin="round" />
<path d="M 171.5 187.0 L 172.5 186.0 L 172.5 185.5 L 173.0 185.5 L 171.0 188.0 L 168.0 191.5 L 165.5 194.5 L 164.0 195.5 " stroke="black" fill="none" stroke-width="6.0" stroke-linecap="round" stroke-linejoin="round" />
<path d="M 182.0 188.0 L 182.5 188.5 L 183.5 190.0 L 186.0 192.5 L 190.0 195.5 L 192.0 196.5 " stroke="black" fill="none" stroke-width="6.0" stroke-linecap="round" stroke-linejoin="round" />
</svg>