<svg xmlns="http://www.w3.org/2000/svg" width="300" height="300" viewBox="0 0 300 300">
<path d="M 139.0 100.0 L 139.0 100.0 L 139.5 100.0 L 139.5 100.0 L 140.0 100.5 L 141.5 102.0 L 143.5 104.5 L 145.5 107.5 L 147.5 109.5 L 148.0 111.5 L 148.5 112.0 " stroke="black" fill="none" stroke-width="6.0" stroke-linecap="round" stroke-linejoin="round" />
<path d="M 126.5 123.5 L 125.0 123.5 L 124.5 123.5 L 124.5 123.5 L 128.5 123.0 L 137.0 121.5 L 150.5 119.5 L 164.5 117.0 L 173.5 116.5 L 176.5 116.5 L 176.0 116.5 " stroke="black" fill="none" stroke-width="6.0" stroke-linecap="round" stroke-linejoin="round" />
<path d="M 144.0 126.5 L 145.5 125.5 L 146.5 124.5 L 147.0 124.5 L 147.5 124.0 L 146.5 126.0 L 143.0 131.5 L 136.5 140.0 L 129.0 148.5 L 124.0 152.0 L 123.5 152.0 L 124.5 150.5 L 125.5 149.5 " stroke="black" fill="none" stroke-width="6.0" stroke-linecap="round" stroke-linejoin="round" />
<path d="M 148.5 131.0 L 148.0 131.0 L 147.0 131.5 L 146.5 131.5 L 148.0 132.5 L 152.0 135.0 L 158.5 141.0 L 167.5 147.5 L 175.5 151.0 L 181.0 151.5 L 182.0 150.0 " stroke="black" fill="none" stroke-width="6.0" stroke-linecap="round" stroke-linejoin="round" />
<path d="M 176.0 131.0 L 176.5 131.5 L 176.5 132.0 L 176.5 132.0 L 175.0 133.0 L 173.0 135.0 L 170.5 137.0 L 169.0 139.0 " stroke="black" fill="none" stroke-width="6.0" stroke-linecap="round" stroke-linejoin="round" />
<path d="M 137.5 143.0 L 138.5 142.0 L 140.0 140.5 L 141.0 140.0 L 141.5 140.0 L 141.5 140.5 L 142.0 143.0 L 142.5 148.5 L 142.5 156.0 L 142.0 165.0 L 142.0 172.5 L 144.0 174.0 L 148.0 171.5 L 154.0 166.5 L 159.0 161.5 L 161.5 159.5 L 162.0 159.5 " stroke="black" fill="none" stroke-width="6.0" stroke-linecap="round" stroke-linejoin="round" />
</svg>