<svg xmlns="http://www.w3.org/2000/svg" width="300" height="300" viewBox="0 0 300 300">
<path d="M 122.0 139.5 L 122.0 139.5 L 121.5 139.5 L 121.5 139.5 L 121.5 139.5 L 121.5 141.0 L 120.0 145.0 L 118.0 151.0 L 115.5 156.0 L 114.5 158.5 L 114.5 158.5 " stroke="black" fill="none" stroke-width="6.0" stroke-linecap="round" stroke-linejoin="round" />
<path d="M 135.0 140.5 L 135.5 140.5 L 136.0 140.0 L 136.0 140.0 L 136.0 140.0 L 136.0 141.0 L 136.0 144.0 L 136.0 149.0 L 136.0 155.5 L 138.0 162.0 L 142.0 166.0 L 147.5 168.0 L 153.5 168.5 L 159.0 168.5 L 163.0 168.0 L 165.5 166.5 L 165.5 165.0 L 165.5 163.5 L 164.5 161.5 L 163.5 160.0 L 163.0 159.5 L 162.5 159.0 L 162.0 159.0 L 162.0 159.0 L 162.0 159.0 " stroke="black" fill="none" stroke-width="6.0" stroke-linecap="round" stroke-linejoin="round" />
<path d="M 150.0 138.0 L 150.0 138.0 L 149.5 138.5 L 149.0 138.5 L 150.5 139.5 L 152.5 141.0 L 154.5 142.5 L 156.5 143.5 " stroke="black" fill="none" stroke-width="6.0" stroke-linecap="round" stroke-linejoin="round" />
<path d="M 174.0 143.5 L 174.5 143.5 L 175.0 143.5 L 175.5 143.5 L 177.0 145.5 L 179.0 149.5 L 181.0 153.0 L 182.0 156.0 L 182.5 157.5 " stroke="black" fill="none" stroke-width="6.0" stroke-linecap="round" stroke-linejoin="round" />
</svg>