<svg xmlns="http://www.w3.org/2000/svg" width="300" height="300" viewBox="0 0 300 300">
<path d="M 148.5 106.5 L 149.0 106.5 L 150.0 106.5 L 150.5 106.0 L 151.0 105.5 L 151.5 105.5 L 151.0 106.0 L 149.0 110.0 L 143.5 118.0 L 135.0 129.0 L 129.5 136.0 L 127.5 137.0 L 127.0 136.0 L 127.0 133.5 L 127.5 132.0 " stroke="black" fill="none" stroke-width="6.0" stroke-linecap="round" stroke-linejoin="round" />
<path d="M 150.5 108.5 L 150.5 108.5 L 150.5 108.5 L 151.0 108.5 L 154.5 110.5 L 161.0 115.5 L 169.5 122.5 L 175.5 127.5 L 177.0 129.0 L 177.5 129.5 L 176.5 129.5 " stroke="black" fill="none" stroke-width="6.0" stroke-linecap="round" stroke-linejoin="round" />
<path d="M 147.0 132.5 L 147.0 133.0 L 146.5 133.5 L 147.5 133.5 L 150.5 132.5 L 154.5 131.0 L 159.0 130.0 L 162.5 129.5 L 164.0 129.5 " stroke="black" fill="none" stroke-width="6.0" stroke-linecap="round" stroke-linejoin="round" />
<path d="M 143.0 141.0 L 142.0 141.5 L 141.0 142.0 L 140.5 142.0 L 141.5 142.5 L 145.0 142.5 L 150.0 143.0 L 155.0 143.0 L 160.5 142.5 L 165.0 141.5 L 168.0 140.5 L 169.0 140.0 L 169.0 140.0 L 169.0 140.5 L 168.0 142.0 L 166.5 145.0 L 164.5 149.0 L 162.5 154.0 L 160.5 157.5 L 159.5 160.0 L 159.0 161.5 " stroke="black" fill="none" stroke-width="6.0" stroke-linecap="round" stroke-linejoin="round" />
<path d="M 149.5 157.0 L 149.5 157.0 L 149.0 157.0 L 148.5 157.0 L 149.5 157.5 L 152.5 159.5 L 156.5 162.0 L 160.0 165.0 L 162.5 167.0 L 164.5 169.0 L 165.5 169.5 " stroke="black" fill="none" stroke-width="6.0" stroke-linecap="round" stroke-linejoin="round" />
</svg>