<svg xmlns="http://www.w3.org/2000/svg" width="300" height="300" viewBox="0 0 300 300">
<path d="M 141.0 107.0 L 140.5 107.0 L 140.0 107.0 L 139.5 107.0 L 141.5 108.0 L 145.0 110.0 L 148.5 111.5 L 150.5 113.0 L 151.5 114.0 L 151.5 114.0 " stroke="black" fill="none" stroke-width="6.0" stroke-linecap="round" stroke-linejoin="round" />
<path d="M 123.5 126.0 L 122.5 125.5 L 122.5 125.0 L 125.0 124.5 L 130.0 124.0 L 138.0 123.5 L 148.5 123.5 L 158.0 123.0 L 165.0 122.0 L 167.5 121.5 L 168.0 121.0 L 167.5 121.0 L 166.5 122.5 " stroke="black" fill="none" stroke-width="6.0" stroke-linecap="round" stroke-linejoin="round" />
<path d="M 138.5 136.5 L 138.5 136.5 L 137.5 137.0 L 137.0 137.0 L 137.0 137.0 L 137.0 139.0 L 137.5 143.5 L 138.5 148.5 L 139.5 152.5 L 139.5 153.0 " stroke="black" fill="none" stroke-width="6.0" stroke-linecap="round" stroke-linejoin="round" />
<path d="M 136.0 140.0 L 135.5 139.5 L 135.0 139.0 L 135.0 138.0 L 137.0 137.0 L 141.5 135.5 L 147.0 134.5 L 152.0 134.0 L 155.5 133.5 L 157.5 134.0 L 158.0 135.0 L 158.0 137.0 L 158.0 139.5 L 158.0 143.0 L 157.0 146.5 L 156.5 150.0 L 155.5 152.5 L 154.5 153.5 " stroke="black" fill="none" stroke-width="6.0" stroke-linecap="round" stroke-linejoin="round" />
<path d="M 144.0 155.5 L 142.5 156.0 L 141.0 156.0 L 142.0 155.0 L 145.5 154.0 L 149.5 153.0 L 152.5 152.5 L 155.0 152.0 L 156.0 152.0 " stroke="black" fill="none" stroke-width="6.0" stroke-linecap="round" stroke-linejoin="round" />
<path d="M 149.0 160.0 L 149.5 160.0 L 149.5 160.0 L 150.0 159.5 L 151.0 159.5 L 151.5 159.5 L 151.5 162.5 L 152.0 168.5 L 152.0 176.5 L 151.5 184.0 L 151.5 188.5 L 150.5 189.0 L 148.5 188.5 L 145.5 186.5 L 142.5 184.0 L 141.0 181.5 " stroke="black" fill="none" stroke-width="6.0" stroke-linecap="round" stroke-linejoin="round" />
<path d="M 134.0 169.5 L 134.5 169.5 L 135.0 169.0 L 135.0 168.5 L 133.5 170.0 L 130.5 173.5 L 127.0 177.5 L 124.0 181.5 L 122.5 184.0 L 123.0 184.0 " stroke="black" fill="none" stroke-width="6.0" stroke-linecap="round" stroke-linejoin="round" />
<path d="M 157.5 171.5 L 157.5 171.5 L 158.0 171.0 L 159.0 170.5 L 162.5 171.0 L 167.5 172.5 L 172.5 174.0 L 176.0 176.0 L 178.0 178.0 L 178.5 179.0 " stroke="black" fill="none" stroke-width="6.0" stroke-linecap="round" stroke-linejoin="round" />
</svg>