<svg xmlns="http://www.w3.org/2000/svg" width="300" height="300" viewBox="0 0 300 300">
<path d="M 129.5 117.0 L 129.5 117.0 L 129.5 117.0 L 129.5 117.0 L 129.5 117.0 L 129.5 117.5 L 129.5 119.5 L 129.5 124.5 L 129.0 133.0 L 129.0 143.5 L 129.0 153.5 L 128.5 163.0 L 128.0 170.0 L 128.0 176.0 L 128.0 180.5 L 128.0 183.0 L 128.0 184.0 L 127.5 184.0 L 127.0 184.0 L 126.5 184.0 L 126.5 183.5 " stroke="black" fill="none" stroke-width="6.0" stroke-linecap="round" stroke-linejoin="round" />
<path d="M 121.5 126.5 L 121.5 126.0 L 121.0 126.0 L 120.5 125.5 L 120.5 125.5 L 120.5 125.5 L 120.0 126.5 L 119.0 130.5 L 117.5 135.5 L 116.5 139.5 L 116.5 141.0 L 116.5 141.0 " stroke="black" fill="none" stroke-width="6.0" stroke-linecap="round" stroke-linejoin="round" />
<path d="M 135.0 124.5 L 135.0 124.5 L 135.0 125.0 L 135.0 125.5 L 135.5 126.5 L 135.5 127.5 L 136.5 129.0 L 137.0 130.5 " stroke="black" fill="none" stroke-width="6.0" stroke-linecap="round" stroke-linejoin="round" />
<path d="M 146.0 112.5 L 145.5 113.0 L 145.0 113.5 L 145.0 114.0 L 145.0 115.0 L 145.0 117.5 L 145.0 122.5 L 145.0 129.0 L 145.0 137.0 L 145.0 143.5 L 145.0 145.5 L 145.5 145.0 L 145.5 144.0 " stroke="black" fill="none" stroke-width="6.0" stroke-linecap="round" stroke-linejoin="round" />
<path d="M 146.5 108.0 L 146.5 108.5 L 146.0 109.0 L 145.5 109.0 L 145.5 109.0 L 146.0 109.0 L 147.0 109.0 L 148.5 109.0 L 150.5 109.0 L 152.0 109.0 L 154.0 109.0 L 155.5 108.5 L 157.0 108.5 L 157.5 108.5 L 158.0 108.5 L 158.0 110.0 L 157.5 113.0 L 157.0 117.5 L 156.5 124.0 L 156.0 131.0 L 155.5 137.0 L 155.5 141.0 L 155.5 143.0 L 155.5 143.5 L 155.5 143.0 " stroke="black" fill="none" stroke-width="6.0" stroke-linecap="round" stroke-linejoin="round" />
<path d="M 148.5 120.5 L 148.0 120.5 L 147.5 120.5 L 147.0 120.5 L 148.0 120.5 L 149.5 120.0 L 151.0 119.5 L 153.0 119.5 L 154.0 119.5 " stroke="black" fill="none" stroke-width="6.0" stroke-linecap="round" stroke-linejoin="round" />
<path d="M 148.5 131.5 L 148.0 132.0 L 147.0 133.0 L 147.0 133.0 L 147.0 133.0 L 148.5 132.0 L 150.5 131.0 L 152.0 130.0 L 154.0 130.0 L 155.0 129.5 " stroke="black" fill="none" stroke-width="6.0" stroke-linecap="round" stroke-linejoin="round" />
<path d="M 147.5 144.5 L 147.0 144.0 L 147.0 143.5 L 147.0 143.5 L 148.0 143.0 L 150.0 143.0 L 152.0 142.5 L 154.5 142.5 L 155.0 142.0 " stroke="black" fill="none" stroke-width="6.0" stroke-linecap="round" stroke-linejoin="round" />
<path d="M 149.5 150.0 L 148.5 151.0 L 147.0 151.5 L 146.0 152.5 L 144.0 154.0 L 142.0 155.5 L 140.5 156.5 L 140.5 156.5 " stroke="black" fill="none" stroke-width="6.0" stroke-linecap="round" stroke-linejoin="round" />
<path d="M 152.0 150.5 L 153.5 152.0 L 155.0 152.5 L 156.5 153.0 L 158.0 153.5 L 159.5 153.5 L 160.0 153.5 " stroke="black" fill="none" stroke-width="6.0" stroke-linecap="round" stroke-linejoin="round" />
<path d="M 167.0 108.0 L 166.5 109.5 L 166.0 110.5 L 166.0 111.0 L 166.0 113.0 L 166.0 118.0 L 166.0 125.0 L 166.0 132.5 L 166.0 138.0 L 166.5 141.0 L 167.5 142.0 L 168.0 141.5 " stroke="black" fill="none" stroke-width="6.0" stroke-linecap="round" stroke-linejoin="round" />
<path d="M 169.0 109.5 L 169.0 110.0 L 168.5 110.5 L 168.5 111.0 L 168.5 111.0 L 170.0 110.5 L 171.5 110.0 L 173.0 110.0 L 175.0 109.5 L 176.5 109.0 L 178.0 109.0 L 179.0 109.0 L 180.0 109.5 L 180.0 111.5 L 180.5 115.0 L 180.5 119.5 L 180.0 125.5 L 180.0 131.5 L 180.0 137.0 L 179.5 141.0 L 179.5 143.5 L 179.5 145.0 L 179.5 145.0 " stroke="black" fill="none" stroke-width="6.0" stroke-linecap="round" stroke-linejoin="round" />
<path d="M 170.0 122.0 L 169.0 122.0 L 168.0 122.0 L 168.0 122.0 L 169.0 121.5 L 170.5 121.0 L 172.5 120.5 L 174.5 120.5 L 176.5 120.0 L 177.0 120.0 " stroke="black" fill="none" stroke-width="6.0" stroke-linecap="round" stroke-linejoin="round" />
<path d="M 170.0 128.5 L 169.5 129.0 L 169.0 130.0 L 169.0 130.5 L 169.0 130.5 L 170.5 129.5 L 172.0 128.5 L 174.0 127.5 L 175.5 127.0 L 176.5 127.0 " stroke="black" fill="none" stroke-width="6.0" stroke-linecap="round" stroke-linejoin="round" />
<path d="M 169.0 141.0 L 168.5 141.0 L 168.0 141.0 L 168.0 141.0 L 170.0 140.5 L 172.0 139.5 L 174.5 138.5 L 177.0 138.5 L 178.0 138.5 " stroke="black" fill="none" stroke-width="6.0" stroke-linecap="round" stroke-linejoin="round" />
<path d="M 175.0 147.5 L 175.0 147.5 L 175.0 148.0 L 174.5 148.0 L 174.0 148.5 L 172.5 149.5 L 171.0 150.5 L 170.0 151.0 L 169.5 151.5 " stroke="black" fill="none" stroke-width="6.0" stroke-linecap="round" stroke-linejoin="round" />
<path d="M 175.5 149.0 L 176.0 149.5 L 177.0 150.0 L 178.0 150.5 L 179.0 151.0 L 180.5 152.0 L 181.5 153.0 L 182.5 154.0 L 183.0 154.5 L 183.0 155.0 " stroke="black" fill="none" stroke-width="6.0" stroke-linecap="round" stroke-linejoin="round" />
<path d="M 149.0 160.0 L 149.0 160.0 L 149.0 159.0 L 149.0 158.5 L 149.0 158.5 L 149.0 158.5 L 148.0 159.0 L 146.5 161.0 L 144.5 163.5 L 142.5 165.5 L 141.5 166.5 L 141.0 167.0 " stroke="black" fill="none" stroke-width="6.0" stroke-linecap="round" stroke-linejoin="round" />
<path d="M 147.0 164.0 L 147.5 164.0 L 148.0 164.0 L 149.0 164.0 L 149.5 164.0 L 149.5 164.0 L 149.5 165.5 L 149.5 169.0 L 148.5 176.0 L 148.0 183.0 L 147.5 188.5 L 147.5 190.5 L 147.5 191.0 " stroke="black" fill="none" stroke-width="6.0" stroke-linecap="round" stroke-linejoin="round" />
<path d="M 163.0 162.5 L 162.5 162.5 L 161.5 162.5 L 161.0 162.0 L 161.0 162.0 L 161.0 161.5 L 161.0 161.5 L 161.5 161.5 L 162.5 163.0 L 163.5 164.0 L 164.5 165.5 L 164.5 166.0 " stroke="black" fill="none" stroke-width="6.0" stroke-linecap="round" stroke-linejoin="round" />
<path d="M 155.0 170.0 L 155.0 170.5 L 155.0 171.0 L 156.0 171.0 L 158.5 171.0 L 162.0 170.5 L 166.0 169.5 L 169.5 168.5 L 171.0 168.0 L 172.0 168.0 " stroke="black" fill="none" stroke-width="6.0" stroke-linecap="round" stroke-linejoin="round" />
<path d="M 158.0 178.5 L 158.0 179.5 L 158.0 180.0 L 158.0 180.0 L 159.0 180.0 L 161.5 179.5 L 164.5 178.5 L 167.5 178.0 L 169.5 177.0 L 170.5 176.5 " stroke="black" fill="none" stroke-width="6.0" stroke-linecap="round" stroke-linejoin="round" />
<path d="M 158.0 188.0 L 158.0 188.0 L 158.0 188.0 L 157.5 188.0 L 157.5 188.0 L 159.0 188.0 L 161.5 188.0 L 165.0 187.0 L 168.0 185.5 L 169.0 185.0 " stroke="black" fill="none" stroke-width="6.0" stroke-linecap="round" stroke-linejoin="round" />
<path d="M 166.0 169.0 L 165.0 169.5 L 164.0 170.0 L 163.5 171.0 L 163.5 173.5 L 163.5 177.5 L 163.5 182.5 L 163.5 187.5 L 163.5 191.5 " stroke="black" fill="none" stroke-width="6.0" stroke-linecap="round" stroke-linejoin="round" />
<path d="M 157.0 196.5 L 157.0 197.0 L 157.0 197.5 L 157.0 198.0 L 158.5 198.0 L 161.0 197.5 L 165.0 197.0 L 169.0 196.5 L 173.0 196.5 L 176.0 196.5 " stroke="black" fill="none" stroke-width="6.0" stroke-linecap="round" stroke-linejoin="round" />
</svg>