<svg xmlns="http://www.w3.org/2000/svg" width="300" height="300" viewBox="0 0 300 300">
<path d="M 123.5 122.0 L 123.0 122.0 L 122.0 121.5 L 122.0 121.0 L 122.0 121.5 L 124.5 124.5 L 127.0 129.5 L 129.5 133.5 L 131.5 135.5 L 131.5 136.0 L 131.5 136.0 " stroke="black" fill="none" stroke-width="6.0" stroke-linecap="round" stroke-linejoin="round" />
<path d="M 124.5 149.5 L 123.0 150.5 L 122.5 151.5 L 123.5 153.0 L 126.0 154.5 L 127.5 155.5 L 129.5 157.0 L 130.0 159.5 " stroke="black" fill="none" stroke-width="6.0" stroke-linecap="round" stroke-linejoin="round" />
<path d="M 117.0 185.5 L 116.0 186.0 L 115.5 186.0 L 115.5 186.5 L 118.0 185.0 L 122.5 181.5 L 127.5 177.5 L 130.5 173.0 " stroke="black" fill="none" stroke-width="6.0" stroke-linecap="round" stroke-linejoin="round" />
<path d="M 143.5 124.5 L 143.0 124.0 L 142.5 124.0 L 142.5 124.0 L 146.5 123.5 L 153.5 123.5 L 162.0 123.5 L 168.0 123.5 L 170.0 123.5 L 170.0 123.5 L 170.0 122.0 L 169.5 121.0 " stroke="black" fill="none" stroke-width="6.0" stroke-linecap="round" stroke-linejoin="round" />
<path d="M 156.5 112.0 L 157.0 112.0 L 157.5 112.5 L 158.0 112.5 L 158.0 113.5 L 157.0 116.5 L 154.5 122.5 L 150.0 131.5 L 145.0 138.5 L 142.5 141.5 L 142.5 141.5 L 142.5 141.0 L 143.0 140.5 L 143.0 140.5 L 143.0 140.5 L 143.0 140.5 L 143.5 140.5 L 145.0 140.5 L 147.5 140.5 L 152.0 140.5 L 158.0 140.0 L 164.0 139.5 L 167.5 139.0 L 168.5 138.5 L 168.5 138.5 L 168.5 139.0 " stroke="black" fill="none" stroke-width="6.0" stroke-linecap="round" stroke-linejoin="round" />
<path d="M 165.5 133.5 L 165.0 134.0 L 164.5 134.5 L 164.5 135.0 L 166.0 137.0 L 168.5 140.5 L 170.5 144.0 L 172.0 146.5 L 172.0 147.5 " stroke="black" fill="none" stroke-width="6.0" stroke-linecap="round" stroke-linejoin="round" />
<path d="M 149.0 153.5 L 149.0 152.5 L 148.5 152.0 L 148.0 152.0 L 148.0 152.0 L 148.0 156.0 L 147.0 164.5 L 143.5 175.5 L 139.0 184.0 L 137.0 185.5 L 137.0 183.5 " stroke="black" fill="none" stroke-width="6.0" stroke-linecap="round" stroke-linejoin="round" />
<path d="M 156.5 153.5 L 157.0 153.5 L 158.0 154.0 L 158.5 154.5 L 159.0 155.0 L 159.0 158.0 L 159.0 165.0 L 158.5 174.0 L 158.0 180.5 L 158.0 181.0 " stroke="black" fill="none" stroke-width="6.0" stroke-linecap="round" stroke-linejoin="round" />
<path d="M 166.5 154.5 L 166.5 155.0 L 165.5 155.5 L 165.5 156.0 L 165.5 156.5 L 166.5 159.0 L 167.0 164.0 L 167.0 171.5 L 167.0 179.0 L 168.0 183.0 L 170.5 183.5 L 175.0 182.5 L 180.0 181.0 L 184.5 179.5 L 186.5 179.0 L 186.5 179.0 L 186.0 179.0 " stroke="black" fill="none" stroke-width="6.0" stroke-linecap="round" stroke-linejoin="round" />
</svg>