<svg xmlns="http://www.w3.org/2000/svg" width="300" height="300" viewBox="0 0 300 300">
<path d="M 128.5 116.0 L 128.5 116.0 L 128.0 116.0 L 128.0 116.0 L 128.5 116.0 L 133.0 115.5 L 143.5 115.0 L 156.0 115.0 L 166.0 114.5 L 170.5 114.5 L 171.0 114.5 L 170.5 114.5 L 169.5 114.0 L 169.0 113.5 L 169.0 113.0 " stroke="black" fill="none" stroke-width="7.0" stroke-linecap="round" stroke-linejoin="round" />
<path d="M 150.5 117.0 L 150.5 116.5 L 151.0 116.0 L 151.0 116.0 L 151.5 116.0 L 152.0 119.0 L 152.5 126.5 L 152.5 138.0 L 152.5 150.5 L 152.5 160.0 L 152.5 165.5 L 152.5 168.0 L 152.5 167.5 L 152.5 164.5 " stroke="black" fill="none" stroke-width="7.0" stroke-linecap="round" stroke-linejoin="round" />
<path d="M 164.5 131.5 L 164.0 131.5 L 163.5 131.5 L 163.0 131.5 L 163.5 132.0 L 167.0 135.0 L 172.0 139.0 L 176.0 142.5 L 178.0 144.5 " stroke="black" fill="none" stroke-width="7.0" stroke-linecap="round" stroke-linejoin="round" />
</svg>