<svg xmlns="http://www.w3.org/2000/svg" width="300" height="300" viewBox="0 0 300 300">
<path d="M 142.0 107.0 L 142.0 107.5 L 141.5 108.0 L 142.0 108.5 L 144.5 109.5 L 147.0 111.5 L 149.5 113.0 L 150.5 114.5 L 150.5 114.5 " stroke="black" fill="none" stroke-width="6.0" stroke-linecap="round" stroke-linejoin="round" />
<path d="M 127.5 120.5 L 127.5 120.5 L 127.0 120.5 L 127.0 121.0 L 128.5 121.0 L 134.0 121.0 L 144.0 120.5 L 155.5 119.5 L 163.0 120.0 L 167.0 121.0 L 168.0 121.0 L 167.5 121.0 L 167.5 121.0 L 167.5 120.5 L 167.5 120.5 L 168.0 120.5 L 168.5 120.5 L 169.0 121.0 " stroke="black" fill="none" stroke-width="6.0" stroke-linecap="round" stroke-linejoin="round" />
<path d="M 128.5 122.5 L 129.0 122.5 L 129.5 122.0 L 130.0 122.0 L 130.5 122.5 L 131.0 125.5 L 131.5 131.5 L 131.5 141.5 L 129.5 155.5 L 126.5 170.5 L 123.5 183.5 L 120.5 192.0 L 117.5 197.5 L 116.5 199.5 L 116.0 199.0 L 115.0 196.0 " stroke="black" fill="none" stroke-width="6.0" stroke-linecap="round" stroke-linejoin="round" />
<path d="M 138.5 137.5 L 138.5 138.0 L 138.5 139.0 L 138.5 139.5 L 140.0 140.0 L 145.0 140.0 L 152.0 140.0 L 158.0 139.5 L 164.0 139.5 L 168.0 139.0 L 168.5 139.0 L 168.5 138.5 " stroke="black" fill="none" stroke-width="6.0" stroke-linecap="round" stroke-linejoin="round" />
<path d="M 147.0 131.5 L 147.0 131.5 L 146.0 132.0 L 145.0 133.0 L 144.5 136.0 L 144.5 142.5 L 145.0 149.5 L 146.0 153.0 L 147.5 152.0 " stroke="black" fill="none" stroke-width="6.0" stroke-linecap="round" stroke-linejoin="round" />
<path d="M 157.5 132.5 L 158.0 132.5 L 159.0 133.5 L 159.5 134.0 L 159.5 135.5 L 159.5 139.0 L 159.5 144.0 L 159.5 148.0 L 158.5 150.5 " stroke="black" fill="none" stroke-width="6.0" stroke-linecap="round" stroke-linejoin="round" />
<path d="M 145.0 154.5 L 145.0 155.0 L 145.5 155.5 L 148.5 155.5 L 154.0 154.5 L 159.0 153.5 L 161.5 153.0 L 162.0 153.0 " stroke="black" fill="none" stroke-width="6.0" stroke-linecap="round" stroke-linejoin="round" />
<path d="M 142.0 165.5 L 142.0 165.5 L 142.0 165.0 L 144.0 165.0 L 150.5 164.0 L 160.0 162.0 L 165.5 161.5 L 166.5 163.0 L 164.5 166.0 L 160.5 170.5 L 156.0 176.0 L 151.5 181.0 L 148.5 185.0 L 145.5 188.5 L 143.5 191.0 L 142.5 191.5 L 142.5 191.5 " stroke="black" fill="none" stroke-width="6.0" stroke-linecap="round" stroke-linejoin="round" />
<path d="M 141.5 173.0 L 141.0 173.0 L 141.0 173.0 L 143.5 173.5 L 152.5 177.0 L 165.0 183.0 L 176.0 188.0 L 182.5 190.0 L 186.0 189.5 L 186.5 189.0 " stroke="black" fill="none" stroke-width="6.0" stroke-linecap="round" stroke-linejoin="round" />
</svg>