<svg xmlns="http://www.w3.org/2000/svg" width="300" height="300" viewBox="0 0 300 300">
<path d="M 126.0 131.5 L 126.0 131.0 L 125.5 130.5 L 125.5 130.0 L 125.5 130.0 L 125.5 129.5 L 125.5 131.5 L 126.5 138.5 L 127.5 150.0 L 127.0 162.5 L 126.5 171.5 L 126.0 175.0 L 126.0 175.0 L 126.0 172.0 L 126.0 168.0 " stroke="black" fill="none" stroke-width="6.0" stroke-linecap="round" stroke-linejoin="round" />
<path d="M 127.5 129.0 L 127.0 129.5 L 125.5 130.5 L 125.0 130.5 L 125.0 130.5 L 126.0 130.5 L 128.5 130.5 L 132.0 130.5 L 136.0 130.5 L 140.0 130.0 L 142.5 130.0 L 144.0 130.5 L 144.5 132.0 L 144.5 134.0 L 144.5 136.0 L 144.5 139.5 L 144.5 145.0 L 144.5 152.5 L 144.0 161.0 L 143.0 168.0 L 142.5 173.0 L 142.0 175.5 L 142.0 175.5 L 142.0 173.5 L 142.0 171.5 " stroke="black" fill="none" stroke-width="6.0" stroke-linecap="round" stroke-linejoin="round" />
<path d="M 131.0 152.0 L 131.0 153.0 L 130.0 154.0 L 129.5 154.0 L 130.0 154.0 L 132.5 154.0 L 136.5 154.0 L 139.5 153.5 L 142.0 153.0 L 143.0 152.5 " stroke="black" fill="none" stroke-width="6.0" stroke-linecap="round" stroke-linejoin="round" />
<path d="M 130.5 174.0 L 130.5 174.0 L 130.5 174.5 L 130.5 175.0 L 131.0 175.0 L 134.0 174.0 L 137.5 173.0 L 140.5 171.0 " stroke="black" fill="none" stroke-width="6.0" stroke-linecap="round" stroke-linejoin="round" />
<path d="M 159.0 111.5 L 159.5 111.0 L 160.0 110.5 L 160.0 110.0 L 160.0 110.0 L 160.0 112.0 L 159.5 117.0 L 158.0 123.5 L 156.5 128.0 L 156.0 129.0 " stroke="black" fill="none" stroke-width="6.0" stroke-linecap="round" stroke-linejoin="round" />
<path d="M 161.0 121.0 L 160.0 121.0 L 159.0 121.0 L 158.0 121.0 L 158.0 121.0 L 159.0 121.0 L 161.5 120.5 L 166.0 120.0 L 172.0 118.5 L 178.0 118.0 L 181.0 117.5 L 182.0 118.0 L 182.0 119.0 L 181.5 120.5 L 180.5 122.5 L 179.5 125.0 L 178.5 128.0 L 178.0 129.5 L 177.5 130.5 L 177.5 130.5 " stroke="black" fill="none" stroke-width="6.0" stroke-linecap="round" stroke-linejoin="round" />
<path d="M 158.0 137.0 L 158.0 136.5 L 158.0 136.0 L 158.0 136.0 L 158.5 137.0 L 158.5 142.5 L 158.5 148.0 L 158.5 152.5 L 158.5 153.5 L 158.5 152.5 " stroke="black" fill="none" stroke-width="6.0" stroke-linecap="round" stroke-linejoin="round" />
<path d="M 160.0 137.0 L 159.5 137.0 L 159.5 137.5 L 159.5 137.5 L 159.5 137.5 L 161.5 137.5 L 164.0 137.5 L 168.5 137.0 L 174.5 136.0 L 180.5 135.5 L 185.0 135.5 L 188.5 135.5 L 190.5 135.5 L 191.0 135.5 L 191.0 135.5 L 190.5 135.5 L 190.5 136.5 L 190.5 137.5 L 190.0 139.0 L 190.0 140.5 L 189.5 143.0 L 189.0 146.5 L 188.5 149.5 L 188.0 151.5 L 187.5 152.0 L 187.5 152.0 " stroke="black" fill="none" stroke-width="6.0" stroke-linecap="round" stroke-linejoin="round" />
<path d="M 171.5 142.0 L 171.5 141.5 L 171.5 140.5 L 171.5 140.5 L 172.0 141.5 L 172.0 145.0 L 172.5 148.0 L 172.5 150.5 L 172.5 152.0 " stroke="black" fill="none" stroke-width="6.0" stroke-linecap="round" stroke-linejoin="round" />
<path d="M 161.5 155.0 L 161.5 155.5 L 162.0 155.5 L 163.0 155.5 L 165.0 155.5 L 169.0 155.0 L 176.0 153.5 L 183.5 151.0 L 187.0 150.0 L 187.5 150.0 " stroke="black" fill="none" stroke-width="6.0" stroke-linecap="round" stroke-linejoin="round" />
<path d="M 172.0 155.5 L 172.0 155.5 L 172.5 155.5 L 172.5 156.0 L 172.5 156.0 L 172.5 156.5 L 172.5 157.0 L 172.5 158.5 L 171.0 162.0 L 167.0 169.5 L 160.5 182.0 L 155.0 191.0 L 152.5 195.5 L 151.5 196.5 L 151.5 196.5 L 151.5 195.0 " stroke="black" fill="none" stroke-width="6.0" stroke-linecap="round" stroke-linejoin="round" />
<path d="M 173.5 159.5 L 173.5 158.5 L 173.5 158.0 L 173.5 158.0 L 174.0 158.5 L 174.0 160.0 L 174.0 164.0 L 174.0 169.5 L 173.5 177.0 L 173.5 184.0 L 174.5 188.5 L 176.5 190.0 L 180.0 190.5 L 184.5 190.5 L 189.0 190.0 L 193.0 189.5 L 197.0 188.5 L 198.5 186.5 L 198.5 185.0 L 198.0 182.5 L 197.5 180.5 L 197.0 178.5 L 196.5 176.5 L 196.5 174.5 L 196.0 173.0 L 196.0 172.0 L 196.0 172.0 L 196.0 172.5 " stroke="black" fill="none" stroke-width="6.0" stroke-linecap="round" stroke-linejoin="round" />
</svg>