<svg xmlns="http://www.w3.org/2000/svg" width="300" height="300" viewBox="0 0 300 300">
<path d="M 149.5 104.5 L 149.5 104.5 L 149.5 104.5 L 149.5 104.5 L 149.5 105.5 L 149.5 110.0 L 150.0 115.5 L 150.0 118.5 L 150.5 119.5 " stroke="black" fill="none" stroke-width="6.0" stroke-linecap="round" stroke-linejoin="round" />
<path d="M 150.0 111.0 L 149.5 111.0 L 149.0 111.0 L 149.0 111.0 L 152.0 111.0 L 156.5 110.5 L 160.5 109.5 L 163.5 109.0 L 165.0 108.5 " stroke="black" fill="none" stroke-width="6.0" stroke-linecap="round" stroke-linejoin="round" />
<path d="M 132.5 128.0 L 132.5 128.0 L 132.5 128.0 L 133.0 128.0 L 135.0 128.0 L 140.5 127.0 L 148.0 126.0 L 155.5 125.0 L 163.0 124.0 L 168.0 123.0 L 170.5 123.0 L 172.0 123.0 L 172.0 123.0 L 172.0 123.0 L 172.0 123.0 L 172.0 123.0 L 172.0 123.0 L 172.0 123.5 L 172.0 123.5 L 171.5 125.0 L 171.0 127.0 L 170.0 131.0 L 169.5 134.0 L 169.0 136.0 L 169.0 136.5 " stroke="black" fill="none" stroke-width="6.0" stroke-linecap="round" stroke-linejoin="round" />
<path d="M 130.0 132.5 L 130.5 132.5 L 131.0 132.0 L 131.0 132.0 L 131.5 132.0 L 131.5 132.0 L 131.5 133.5 L 131.5 137.5 L 131.5 145.5 L 131.0 154.5 L 129.5 164.5 L 128.0 173.0 L 126.0 180.0 L 124.5 185.5 L 123.0 189.5 L 121.5 191.5 L 121.5 191.5 L 121.5 191.5 L 122.0 190.0 " stroke="black" fill="none" stroke-width="6.0" stroke-linecap="round" stroke-linejoin="round" />
<path d="M 140.0 144.5 L 140.0 144.5 L 140.0 144.0 L 140.5 143.5 L 144.0 142.0 L 150.0 139.5 L 154.0 137.0 L 156.0 136.5 L 156.0 136.5 " stroke="black" fill="none" stroke-width="6.0" stroke-linecap="round" stroke-linejoin="round" />
<path d="M 144.0 132.5 L 143.5 132.5 L 142.5 133.5 L 142.0 134.0 L 142.0 135.0 L 143.0 139.0 L 145.0 144.0 L 147.5 148.5 L 150.5 151.5 L 154.5 153.0 L 158.5 153.0 L 162.5 151.5 L 165.5 149.5 L 168.0 148.0 L 169.5 147.0 L 170.0 146.0 L 170.0 145.5 L 170.0 144.5 L 169.5 144.5 L 168.5 144.5 L 168.0 144.5 L 168.0 144.5 " stroke="black" fill="none" stroke-width="6.0" stroke-linecap="round" stroke-linejoin="round" />
<path d="M 140.5 162.0 L 141.0 161.5 L 141.0 161.0 L 141.5 160.5 L 141.5 160.5 L 141.0 162.0 L 140.5 164.5 L 140.0 168.5 L 140.0 171.5 L 141.0 173.5 L 143.5 174.0 L 146.5 173.0 L 149.0 172.0 L 150.0 170.5 L 150.0 170.0 " stroke="black" fill="none" stroke-width="6.0" stroke-linecap="round" stroke-linejoin="round" />
<path d="M 150.5 161.0 L 151.0 161.0 L 151.0 161.0 L 151.5 161.0 L 151.5 161.0 L 151.5 162.5 L 151.5 167.0 L 151.5 175.0 L 151.5 182.0 L 151.5 185.5 L 152.0 186.0 " stroke="black" fill="none" stroke-width="6.0" stroke-linecap="round" stroke-linejoin="round" />
<path d="M 163.0 159.5 L 163.0 159.5 L 162.5 159.5 L 162.0 159.5 L 162.0 159.5 L 162.0 163.0 L 162.5 168.0 L 163.0 174.5 L 163.5 179.0 L 164.0 181.0 " stroke="black" fill="none" stroke-width="6.0" stroke-linecap="round" stroke-linejoin="round" />
<path d="M 172.5 158.0 L 172.5 158.0 L 173.0 158.0 L 173.5 158.0 L 173.5 159.5 L 174.0 162.5 L 174.5 166.5 L 175.0 168.5 L 175.0 169.0 " stroke="black" fill="none" stroke-width="6.0" stroke-linecap="round" stroke-linejoin="round" />
<path d="M 165.0 168.0 L 163.5 168.0 L 163.0 168.5 L 165.0 168.5 L 168.5 168.5 L 172.0 168.0 L 173.0 168.0 " stroke="black" fill="none" stroke-width="6.0" stroke-linecap="round" stroke-linejoin="round" />
<path d="M 132.0 191.0 L 133.5 191.0 L 134.5 191.0 L 136.0 191.0 L 139.5 191.0 L 146.5 190.0 L 157.5 188.5 L 167.5 186.5 L 175.5 185.5 L 178.0 185.0 L 177.5 185.0 L 176.5 185.0 L 175.5 184.5 " stroke="black" fill="none" stroke-width="6.0" stroke-linecap="round" stroke-linejoin="round" />
</svg>