<svg xmlns="http://www.w3.org/2000/svg" width="300" height="300" viewBox="0 0 300 300">
<path d="M 124.0 116.0 L 124.0 116.0 L 123.5 116.0 L 123.5 116.0 L 123.0 116.5 L 123.5 117.0 L 125.5 119.5 L 128.0 122.5 L 130.5 125.0 L 132.0 127.0 L 132.5 127.5 " stroke="black" fill="none" stroke-width="6.0" stroke-linecap="round" stroke-linejoin="round" />
<path d="M 123.0 143.5 L 123.0 143.0 L 123.0 142.5 L 122.5 142.0 L 122.5 142.0 L 123.5 143.0 L 126.0 146.5 L 128.5 150.0 L 130.5 153.0 L 132.5 155.0 L 132.5 155.0 " stroke="black" fill="none" stroke-width="6.0" stroke-linecap="round" stroke-linejoin="round" />
<path d="M 119.0 187.5 L 119.0 187.5 L 118.5 187.5 L 118.5 187.0 L 119.5 184.5 L 123.5 180.5 L 127.5 176.0 L 131.0 172.5 L 133.0 170.5 " stroke="black" fill="none" stroke-width="6.0" stroke-linecap="round" stroke-linejoin="round" />
<path d="M 148.0 126.0 L 148.0 126.0 L 147.0 126.0 L 146.5 126.5 L 146.0 126.5 L 145.5 127.0 L 147.5 127.0 L 152.5 127.0 L 159.0 126.5 L 167.0 125.5 L 173.5 124.0 L 176.0 123.5 L 176.0 123.5 L 175.0 123.5 L 173.5 123.0 " stroke="black" fill="none" stroke-width="6.0" stroke-linecap="round" stroke-linejoin="round" />
<path d="M 161.0 114.0 L 162.0 114.0 L 163.0 114.0 L 163.5 113.5 L 163.5 113.5 L 163.5 115.5 L 162.0 120.5 L 160.0 128.0 L 156.5 135.5 L 153.0 141.5 L 150.0 145.5 L 149.0 146.5 L 148.5 146.5 L 148.0 146.5 L 147.5 146.5 L 147.5 146.5 L 147.5 146.5 L 148.5 146.0 L 151.0 145.5 L 155.0 145.5 L 160.5 145.0 L 166.0 144.5 L 170.5 144.5 L 173.0 144.0 L 174.5 144.0 L 175.0 144.0 L 175.0 143.5 " stroke="black" fill="none" stroke-width="6.0" stroke-linecap="round" stroke-linejoin="round" />
<path d="M 173.0 134.5 L 173.0 135.5 L 172.5 136.0 L 172.5 136.5 L 173.0 138.0 L 175.0 140.5 L 177.0 143.5 L 178.5 145.5 L 180.0 147.5 L 180.5 148.0 " stroke="black" fill="none" stroke-width="6.0" stroke-linecap="round" stroke-linejoin="round" />
<path d="M 149.5 160.5 L 149.5 160.5 L 150.0 159.5 L 150.5 159.0 L 150.5 158.5 L 151.0 158.5 L 151.0 159.5 L 151.0 164.0 L 151.0 170.0 L 149.0 178.0 L 146.0 185.0 L 143.0 188.0 L 142.0 188.5 L 141.5 186.5 " stroke="black" fill="none" stroke-width="6.0" stroke-linecap="round" stroke-linejoin="round" />
<path d="M 161.0 160.0 L 161.0 160.0 L 161.5 160.0 L 161.5 160.0 L 161.5 160.0 L 161.5 160.5 L 161.5 163.5 L 161.5 171.0 L 161.5 180.5 L 161.5 186.0 L 162.0 186.5 " stroke="black" fill="none" stroke-width="6.0" stroke-linecap="round" stroke-linejoin="round" />
<path d="M 174.0 158.5 L 174.0 158.5 L 174.5 158.0 L 174.5 157.5 L 174.5 158.0 L 174.5 160.5 L 174.0 166.0 L 174.0 173.0 L 174.0 179.5 L 176.0 184.0 L 178.5 185.5 L 181.5 185.5 L 185.0 183.0 L 187.5 180.0 L 189.0 177.0 L 190.0 175.0 L 190.0 173.5 L 190.0 173.5 L 189.5 173.5 L 189.5 174.5 " stroke="black" fill="none" stroke-width="6.0" stroke-linecap="round" stroke-linejoin="round" />
</svg>