<svg xmlns="http://www.w3.org/2000/svg" width="300" height="300" viewBox="0 0 300 300">
<path d="M 114.0 119.5 L 114.0 119.5 L 114.0 119.5 L 114.0 119.5 L 114.0 119.5 L 114.0 119.5 L 115.5 119.5 L 119.0 120.0 L 125.5 120.0 L 134.5 119.0 L 141.5 117.5 L 146.5 116.5 L 147.5 116.5 L 147.5 116.5 L 147.0 116.5 L 146.5 117.0 L 146.0 117.0 " stroke="black" fill="none" stroke-width="6.0" stroke-linecap="round" stroke-linejoin="round" />
<path d="M 118.0 129.5 L 118.0 130.0 L 118.0 130.5 L 118.0 131.5 L 118.0 135.0 L 119.5 140.5 L 120.5 145.5 L 121.5 147.5 L 121.5 148.0 " stroke="black" fill="none" stroke-width="6.0" stroke-linecap="round" stroke-linejoin="round" />
<path d="M 119.5 132.5 L 119.0 133.0 L 118.0 133.0 L 118.0 133.5 L 118.5 133.5 L 121.5 133.0 L 125.5 132.5 L 131.0 132.0 L 137.0 131.0 L 141.5 130.5 L 144.0 130.5 L 145.5 130.5 L 146.0 132.0 L 146.5 134.0 L 146.5 136.0 L 146.5 139.0 L 146.0 142.5 L 145.5 145.5 L 145.0 147.5 L 145.0 148.5 L 145.0 148.5 " stroke="black" fill="none" stroke-width="6.0" stroke-linecap="round" stroke-linejoin="round" />
<path d="M 128.0 119.5 L 128.0 119.5 L 128.0 119.5 L 128.0 119.5 L 128.5 122.0 L 129.5 129.0 L 130.5 137.5 L 131.5 142.5 L 132.0 143.5 L 132.0 143.5 " stroke="black" fill="none" stroke-width="6.0" stroke-linecap="round" stroke-linejoin="round" />
<path d="M 136.5 119.0 L 137.0 120.0 L 137.5 121.0 L 138.0 122.5 L 138.0 124.5 L 138.5 127.5 L 138.5 132.5 L 138.5 138.5 L 139.0 144.5 L 139.0 147.5 L 139.0 148.0 " stroke="black" fill="none" stroke-width="6.0" stroke-linecap="round" stroke-linejoin="round" />
<path d="M 122.0 151.5 L 122.0 152.0 L 122.0 152.5 L 123.0 153.0 L 126.5 153.0 L 132.5 152.5 L 138.5 152.0 L 142.5 151.5 L 143.5 151.5 L 144.0 151.5 " stroke="black" fill="none" stroke-width="6.0" stroke-linecap="round" stroke-linejoin="round" />
<path d="M 124.0 161.5 L 124.0 162.0 L 124.0 162.0 L 124.0 162.0 L 126.5 162.0 L 131.5 162.0 L 137.5 161.5 L 141.5 161.0 L 143.0 160.5 L 143.5 160.5 L 143.5 160.5 " stroke="black" fill="none" stroke-width="6.0" stroke-linecap="round" stroke-linejoin="round" />
<path d="M 119.5 172.0 L 119.5 172.0 L 120.0 172.5 L 121.0 172.5 L 124.5 173.0 L 131.0 173.0 L 137.5 172.0 L 142.5 171.0 L 145.5 170.5 L 146.5 170.5 L 146.5 170.5 " stroke="black" fill="none" stroke-width="6.0" stroke-linecap="round" stroke-linejoin="round" />
<path d="M 134.0 173.5 L 134.5 174.5 L 134.5 175.5 L 134.5 177.5 L 135.0 180.5 L 135.5 185.5 L 136.0 190.0 L 136.0 193.0 L 136.0 194.5 L 135.5 194.0 " stroke="black" fill="none" stroke-width="6.0" stroke-linecap="round" stroke-linejoin="round" />
<path d="M 124.5 183.5 L 124.5 183.5 L 124.0 183.5 L 123.5 184.0 L 122.5 185.0 L 121.0 187.5 L 119.5 189.5 L 119.0 190.5 " stroke="black" fill="none" stroke-width="6.0" stroke-linecap="round" stroke-linejoin="round" />
<path d="M 142.5 181.0 L 142.5 182.0 L 143.5 182.5 L 145.5 183.5 L 147.5 184.5 L 149.5 184.5 " stroke="black" fill="none" stroke-width="6.0" stroke-linecap="round" stroke-linejoin="round" />
<path d="M 155.5 124.0 L 156.5 123.5 L 157.0 123.5 L 157.5 123.5 L 158.0 125.0 L 158.0 129.5 L 158.0 139.5 L 158.0 155.0 L 158.5 170.5 L 159.0 180.0 L 159.5 187.0 L 160.0 190.5 L 160.0 191.0 L 159.5 189.0 L 159.0 187.0 " stroke="black" fill="none" stroke-width="6.0" stroke-linecap="round" stroke-linejoin="round" />
<path d="M 157.5 123.5 L 157.5 123.5 L 157.0 124.0 L 156.0 124.0 L 156.0 124.0 L 156.0 124.0 L 157.5 123.0 L 161.0 122.5 L 165.5 121.5 L 170.5 121.0 L 175.0 120.5 L 178.5 119.5 L 181.0 119.0 L 182.5 119.0 L 183.0 119.0 L 183.5 118.5 L 184.5 118.0 L 185.0 118.0 L 185.5 118.0 L 185.5 117.5 L 186.0 117.5 L 186.0 117.5 L 186.5 117.5 L 186.5 117.5 L 187.0 117.5 L 187.5 117.5 L 188.0 117.5 L 188.5 117.5 L 188.5 117.5 L 189.0 117.5 L 189.5 117.5 L 189.5 118.0 L 190.0 118.0 L 190.0 118.0 L 190.0 118.0 L 190.0 118.0 L 190.0 118.0 L 190.0 118.0 L 190.0 118.0 L 190.0 118.5 L 190.0 119.0 L 189.5 120.5 L 189.5 123.0 L 189.0 127.0 L 189.0 131.5 L 188.5 136.5 L 188.5 142.0 L 188.5 147.0 L 188.5 151.0 L 188.5 154.5 L 188.5 158.5 L 188.5 163.5 L 189.0 167.5 L 189.0 171.5 L 189.5 175.5 L 190.0 178.5 L 191.5 182.0 L 192.5 185.5 L 194.0 188.0 L 195.5 190.0 L 197.0 191.5 L 199.5 191.5 L 201.5 190.0 L 204.0 187.0 L 206.0 183.0 L 208.0 179.0 L 208.5 176.0 L 208.5 175.0 " stroke="black" fill="none" stroke-width="6.0" stroke-linecap="round" stroke-linejoin="round" />
<path d="M 164.0 134.0 L 164.0 134.5 L 164.0 135.0 L 164.0 135.0 L 164.0 135.0 L 165.5 135.0 L 168.5 134.5 L 172.0 133.5 L 175.0 132.5 L 177.0 131.5 L 177.5 131.5 " stroke="black" fill="none" stroke-width="6.0" stroke-linecap="round" stroke-linejoin="round" />
<path d="M 166.5 148.5 L 166.5 148.5 L 166.0 148.0 L 166.0 148.0 L 166.0 149.5 L 166.5 152.5 L 167.0 155.0 L 167.5 157.5 L 168.0 159.0 L 168.0 159.0 " stroke="black" fill="none" stroke-width="6.0" stroke-linecap="round" stroke-linejoin="round" />
<path d="M 168.0 148.0 L 167.0 147.5 L 166.5 147.5 L 166.5 147.0 L 168.0 147.0 L 170.5 146.5 L 173.0 146.0 L 175.5 145.5 L 177.5 145.0 L 179.0 145.0 L 179.5 145.0 L 180.0 145.5 L 180.0 146.5 L 179.5 148.5 L 179.0 151.0 L 178.5 153.5 L 178.5 156.0 L 178.5 157.5 L 178.5 158.0 " stroke="black" fill="none" stroke-width="6.0" stroke-linecap="round" stroke-linejoin="round" />
<path d="M 169.5 161.0 L 169.0 161.0 L 168.0 161.5 L 167.5 161.5 L 167.5 161.5 L 168.0 161.5 L 170.0 161.0 L 173.0 160.5 L 175.5 159.5 L 176.0 159.0 " stroke="black" fill="none" stroke-width="6.0" stroke-linecap="round" stroke-linejoin="round" />
<path d="M 172.0 134.5 L 172.0 134.5 L 171.5 134.5 L 171.5 134.5 L 171.5 134.5 L 171.5 136.5 L 171.5 141.0 L 171.5 148.5 L 172.0 159.0 L 172.5 169.0 L 172.5 175.5 L 172.5 179.0 L 172.5 182.0 L 172.5 182.5 " stroke="black" fill="none" stroke-width="6.0" stroke-linecap="round" stroke-linejoin="round" />
<path d="M 168.5 182.5 L 168.5 182.5 L 167.5 182.0 L 167.0 182.0 L 167.0 182.0 L 168.0 182.0 L 170.5 181.5 L 173.0 181.0 L 176.5 180.0 L 179.0 179.0 L 180.5 178.5 " stroke="black" fill="none" stroke-width="6.0" stroke-linecap="round" stroke-linejoin="round" />
<path d="M 180.0 170.0 L 180.0 169.5 L 180.0 169.0 L 180.0 169.0 L 180.5 169.0 L 181.5 171.5 L 183.0 176.0 L 184.5 181.0 L 185.5 185.5 L 186.5 187.5 " stroke="black" fill="none" stroke-width="6.0" stroke-linecap="round" stroke-linejoin="round" />
</svg>