<svg xmlns="http://www.w3.org/2000/svg" width="300" height="300" viewBox="0 0 300 300">
<path d="M 142.0 119.5 L 140.5 120.0 L 139.5 120.0 L 139.0 120.0 L 139.0 120.0 L 140.0 120.0 L 143.5 120.0 L 150.0 119.5 L 158.5 118.5 L 168.0 118.0 L 175.5 118.5 L 179.0 119.0 L 180.0 119.5 L 180.0 119.5 L 179.0 119.5 L 179.0 119.5 L 179.0 119.5 L 179.0 119.5 L 179.0 119.5 L 178.5 119.5 " stroke="black" fill="none" stroke-width="6.0" stroke-linecap="round" stroke-linejoin="round" />
<path d="M 137.5 121.5 L 137.5 121.0 L 138.0 119.5 L 138.5 119.0 L 138.5 118.5 L 139.0 118.5 L 139.5 120.0 L 139.5 124.0 L 139.0 131.5 L 136.5 144.5 L 133.0 158.0 L 131.0 167.5 L 129.0 172.5 L 127.0 175.5 L 125.0 177.5 L 124.0 178.0 L 123.5 177.0 L 123.5 176.0 " stroke="black" fill="none" stroke-width="6.0" stroke-linecap="round" stroke-linejoin="round" />
<path d="M 167.5 108.5 L 167.5 108.5 L 167.5 108.0 L 167.5 107.5 L 167.5 108.5 L 168.0 113.0 L 168.5 123.5 L 169.0 138.0 L 170.5 152.5 L 173.5 163.5 L 177.0 170.5 L 181.5 174.0 L 185.5 175.0 L 189.0 174.0 L 191.5 171.0 L 193.0 167.0 L 194.0 163.0 L 194.0 160.0 L 194.0 158.0 L 194.0 157.5 L 193.5 157.5 " stroke="black" fill="none" stroke-width="6.0" stroke-linecap="round" stroke-linejoin="round" />
<path d="M 185.0 149.5 L 185.0 149.0 L 184.5 149.0 L 184.5 149.0 L 184.0 149.0 L 184.0 149.0 L 183.5 150.0 L 180.5 153.5 L 175.0 160.0 L 171.0 165.5 L 170.0 166.5 L 170.0 166.5 " stroke="black" fill="none" stroke-width="6.0" stroke-linecap="round" stroke-linejoin="round" />
<path d="M 145.5 138.0 L 144.5 137.5 L 144.0 137.5 L 144.0 137.0 L 146.5 136.5 L 150.5 136.0 L 154.5 136.0 L 157.5 136.0 L 159.5 136.0 L 160.0 136.0 " stroke="black" fill="none" stroke-width="6.0" stroke-linecap="round" stroke-linejoin="round" />
<path d="M 146.5 148.0 L 146.0 148.0 L 145.0 148.5 L 145.0 148.5 L 145.0 150.0 L 145.0 152.5 L 145.5 155.5 L 146.5 157.5 L 147.0 157.5 " stroke="black" fill="none" stroke-width="6.0" stroke-linecap="round" stroke-linejoin="round" />
<path d="M 146.5 151.5 L 146.0 151.0 L 145.5 150.5 L 145.5 149.5 L 147.0 148.0 L 149.5 147.0 L 152.5 146.0 L 155.5 146.0 L 158.0 147.0 L 159.5 148.0 L 160.0 150.0 L 160.0 152.0 L 158.5 154.0 L 157.5 155.5 L 156.0 156.0 " stroke="black" fill="none" stroke-width="6.0" stroke-linecap="round" stroke-linejoin="round" />
<path d="M 149.0 156.5 L 148.5 156.5 L 148.0 157.0 L 148.0 157.0 L 150.0 157.0 L 152.0 156.5 L 154.5 156.5 " stroke="black" fill="none" stroke-width="6.0" stroke-linecap="round" stroke-linejoin="round" />
<path d="M 140.0 167.5 L 140.0 167.5 L 140.0 167.0 L 140.5 167.0 L 140.5 167.0 L 140.5 168.0 L 139.5 169.5 L 138.5 172.0 L 138.0 172.5 " stroke="black" fill="none" stroke-width="6.0" stroke-linecap="round" stroke-linejoin="round" />
<path d="M 147.5 168.5 L 147.5 168.5 L 147.5 168.5 L 147.0 168.5 L 147.0 168.5 L 146.5 168.5 L 146.5 169.5 L 146.5 171.5 L 146.5 174.5 L 148.5 177.0 L 150.5 179.0 L 153.0 179.5 L 155.0 178.5 L 156.0 177.0 L 156.5 175.0 L 156.5 174.5 " stroke="black" fill="none" stroke-width="6.0" stroke-linecap="round" stroke-linejoin="round" />
<path d="M 155.5 166.0 L 155.5 166.0 L 155.5 165.5 L 155.5 165.5 L 155.5 165.5 L 156.5 166.0 L 157.0 166.5 " stroke="black" fill="none" stroke-width="6.0" stroke-linecap="round" stroke-linejoin="round" />
<path d="M 161.5 163.5 L 161.0 163.0 L 161.0 162.5 L 161.0 162.5 L 162.5 164.0 L 164.0 165.5 L 164.0 165.5 " stroke="black" fill="none" stroke-width="6.0" stroke-linecap="round" stroke-linejoin="round" />
<path d="M 178.0 108.5 L 179.0 109.5 L 179.5 110.0 L 181.0 111.0 L 183.0 112.0 L 184.5 112.5 " stroke="black" fill="none" stroke-width="6.0" stroke-linecap="round" stroke-linejoin="round" />
</svg>