<svg xmlns="http://www.w3.org/2000/svg" width="300" height="300" viewBox="0 0 300 300">
<path d="M 128.5 126.5 L 128.5 126.5 L 128.0 126.5 L 127.5 126.5 L 127.5 126.5 L 127.0 126.5 L 127.5 126.5 L 131.0 126.5 L 137.0 126.5 L 146.5 126.5 L 156.5 126.5 L 163.5 126.5 L 168.5 126.5 L 171.0 126.5 L 171.5 126.5 L 171.5 126.5 L 171.5 126.0 L 171.5 126.0 L 171.5 126.0 L 172.0 126.0 L 172.0 126.5 " stroke="black" fill="none" stroke-width="6.0" stroke-linecap="round" stroke-linejoin="round" />
<path d="M 145.5 130.5 L 144.5 130.5 L 144.0 130.5 L 143.5 130.5 L 143.5 130.5 L 144.0 132.5 L 144.0 137.0 L 144.0 144.0 L 143.0 153.5 L 142.5 160.5 L 142.5 164.0 L 142.5 165.0 L 142.5 165.0 L 142.5 165.0 L 142.5 164.0 L 142.0 163.5 " stroke="black" fill="none" stroke-width="6.0" stroke-linecap="round" stroke-linejoin="round" />
<path d="M 135.0 151.0 L 135.0 151.0 L 134.5 152.0 L 134.0 152.5 L 134.0 152.5 L 134.0 152.5 L 136.0 152.0 L 139.0 151.0 L 144.5 150.0 L 151.0 149.0 L 158.0 149.0 L 163.0 149.0 L 165.0 149.5 L 165.5 150.0 L 165.5 150.0 L 165.0 150.0 L 164.5 150.0 L 164.5 150.0 L 164.5 150.0 L 164.5 150.0 L 164.5 150.0 L 164.5 150.0 L 164.5 151.0 L 164.0 152.5 L 163.5 156.5 L 162.5 161.5 L 162.0 166.0 L 162.0 168.5 L 162.0 169.5 L 162.5 170.0 L 163.0 170.5 L 163.0 170.5 " stroke="black" fill="none" stroke-width="6.0" stroke-linecap="round" stroke-linejoin="round" />
<path d="M 122.5 172.5 L 122.5 172.5 L 122.5 172.5 L 122.0 172.5 L 122.0 172.5 L 123.5 172.0 L 128.0 172.0 L 137.5 171.0 L 149.0 170.0 L 159.5 169.5 L 168.5 169.5 L 174.5 169.5 L 179.5 171.0 L 183.0 171.5 L 185.0 172.0 L 185.5 172.5 L 185.5 172.5 L 185.5 172.5 L 185.0 172.5 L 184.5 172.5 " stroke="black" fill="none" stroke-width="6.0" stroke-linecap="round" stroke-linejoin="round" />
</svg>