<svg xmlns="http://www.w3.org/2000/svg" width="300" height="300" viewBox="0 0 300 300">
<path d="M 125.0 99.0 L 124.5 98.5 L 124.0 98.0 L 124.0 98.0 L 124.0 97.5 L 124.0 98.5 L 124.5 101.0 L 124.5 103.5 L 124.5 106.0 L 124.5 106.5 " stroke="black" fill="none" stroke-width="6.0" stroke-linecap="round" stroke-linejoin="round" />
<path d="M 116.5 104.0 L 116.5 104.0 L 116.5 104.0 L 116.5 104.0 L 117.0 104.0 L 118.5 104.0 L 121.5 104.0 L 123.5 104.0 " stroke="black" fill="none" stroke-width="6.0" stroke-linecap="round" stroke-linejoin="round" />
<path d="M 137.5 99.0 L 138.0 98.5 L 138.0 98.5 L 138.5 98.0 L 138.5 98.0 L 138.5 99.0 L 138.5 101.5 L 138.5 103.5 L 138.0 105.5 " stroke="black" fill="none" stroke-width="6.0" stroke-linecap="round" stroke-linejoin="round" />
<path d="M 137.0 104.0 L 137.0 104.0 L 137.0 104.0 L 137.5 104.0 L 138.5 103.5 L 140.0 103.5 L 142.0 103.0 L 144.0 103.0 L 146.0 103.0 L 147.0 103.0 " stroke="black" fill="none" stroke-width="6.0" stroke-linecap="round" stroke-linejoin="round" />
<path d="M 121.0 113.0 L 121.0 113.0 L 121.0 113.0 L 121.5 113.0 L 121.5 113.0 L 121.5 113.0 L 121.0 114.0 L 120.0 116.0 L 119.0 118.0 L 118.5 120.0 " stroke="black" fill="none" stroke-width="6.0" stroke-linecap="round" stroke-linejoin="round" />
<path d="M 121.0 117.5 L 121.0 117.5 L 121.0 117.5 L 121.5 117.5 L 124.0 117.5 L 127.5 116.5 L 131.0 116.0 L 134.5 115.5 L 137.0 115.5 L 138.5 115.0 L 140.0 115.0 L 141.5 115.0 L 142.0 115.5 L 142.5 116.0 L 142.5 116.0 L 143.0 116.5 L 143.0 116.5 L 143.0 117.0 L 143.0 118.0 L 143.0 119.5 L 143.0 121.0 L 142.5 123.5 L 142.5 127.0 L 142.5 130.0 L 142.5 133.5 L 142.5 135.5 L 142.0 138.0 L 142.0 140.0 L 141.5 141.5 L 140.5 142.5 L 139.0 143.0 L 137.0 142.5 L 135.0 141.5 L 133.5 140.5 " stroke="black" fill="none" stroke-width="6.0" stroke-linecap="round" stroke-linejoin="round" />
<path d="M 124.0 128.5 L 124.0 128.5 L 123.0 128.5 L 123.0 128.5 L 122.5 128.5 L 122.5 128.5 L 122.5 130.0 L 123.0 131.0 L 123.5 131.5 " stroke="black" fill="none" stroke-width="6.0" stroke-linecap="round" stroke-linejoin="round" />
<path d="M 125.5 128.0 L 125.0 128.0 L 125.0 127.5 L 124.5 127.0 L 125.0 127.0 L 126.5 126.5 L 128.5 126.0 L 130.5 126.0 L 132.0 126.0 L 133.0 126.0 L 133.0 126.5 L 133.5 127.5 L 133.5 128.5 L 132.5 129.5 L 132.0 130.5 " stroke="black" fill="none" stroke-width="6.0" stroke-linecap="round" stroke-linejoin="round" />
<path d="M 126.0 133.5 L 125.5 134.5 L 125.0 135.0 L 125.0 135.0 L 126.0 135.0 L 128.0 134.5 L 129.5 134.0 L 131.0 133.0 " stroke="black" fill="none" stroke-width="6.0" stroke-linecap="round" stroke-linejoin="round" />
<path d="M 158.5 102.5 L 159.5 102.5 L 160.0 102.0 L 160.5 102.0 L 160.0 102.0 L 159.0 104.5 L 157.0 107.5 L 155.0 111.5 L 153.0 114.0 L 152.0 115.0 L 152.0 115.0 " stroke="black" fill="none" stroke-width="6.0" stroke-linecap="round" stroke-linejoin="round" />
<path d="M 155.5 110.5 L 156.0 111.0 L 156.5 111.5 L 157.5 112.0 L 160.0 111.5 L 164.5 111.0 L 169.5 109.5 L 173.0 108.5 L 175.5 108.0 L 176.5 107.5 L 176.5 107.5 L 176.0 107.5 " stroke="black" fill="none" stroke-width="6.0" stroke-linecap="round" stroke-linejoin="round" />
<path d="M 171.5 110.0 L 171.5 110.0 L 171.5 110.5 L 172.0 110.5 L 172.0 111.0 L 172.0 112.0 L 170.5 115.5 L 166.0 122.5 L 160.0 131.0 L 155.5 137.5 L 154.5 139.5 L 154.0 139.5 L 154.0 138.5 L 154.0 138.5 " stroke="black" fill="none" stroke-width="6.0" stroke-linecap="round" stroke-linejoin="round" />
<path d="M 156.5 124.0 L 156.5 124.0 L 156.5 124.0 L 156.5 124.0 L 156.5 124.0 L 157.5 124.5 L 162.0 127.5 L 169.5 131.5 L 175.5 134.5 L 178.0 135.5 L 178.5 135.5 L 178.0 135.0 " stroke="black" fill="none" stroke-width="6.0" stroke-linecap="round" stroke-linejoin="round" />
<path d="M 128.5 152.5 L 128.5 152.5 L 128.5 153.0 L 128.5 153.5 L 129.5 153.5 L 132.0 153.5 L 136.5 152.5 L 143.5 152.0 L 151.0 151.5 L 159.0 150.5 L 164.5 149.5 L 166.5 149.5 L 166.0 149.5 L 165.0 149.5 L 164.0 149.5 L 163.0 149.5 " stroke="black" fill="none" stroke-width="6.0" stroke-linecap="round" stroke-linejoin="round" />
<path d="M 127.5 153.5 L 127.5 153.5 L 127.5 153.0 L 127.5 153.0 L 128.0 153.0 L 128.0 153.0 L 128.5 154.0 L 128.5 156.5 L 128.5 160.5 L 128.5 166.0 L 128.0 171.5 L 127.5 176.0 L 127.5 179.0 L 128.0 180.5 L 128.5 181.0 L 129.0 181.0 L 129.0 181.0 L 129.5 180.5 L 130.5 179.5 L 132.0 178.5 L 135.0 177.5 L 140.5 176.5 L 148.0 176.0 L 155.5 175.5 L 162.0 175.5 L 168.0 175.0 L 174.0 175.0 L 177.5 175.0 L 180.0 175.5 L 181.5 176.0 L 182.0 176.0 L 182.0 176.0 L 182.0 176.5 L 182.0 177.0 L 182.0 178.0 L 181.5 180.0 L 181.0 183.5 L 180.5 188.0 L 180.0 193.5 L 179.5 199.0 L 179.5 204.5 L 179.5 209.0 L 179.5 211.5 L 179.0 213.0 L 177.5 213.0 L 175.0 212.0 L 171.0 209.0 L 166.5 205.0 L 163.0 201.5 " stroke="black" fill="none" stroke-width="6.0" stroke-linecap="round" stroke-linejoin="round" />
<path d="M 130.5 162.0 L 130.5 162.0 L 130.5 162.5 L 131.0 162.5 L 131.0 163.0 L 132.5 162.5 L 134.5 161.5 L 138.5 161.5 L 144.5 161.0 L 150.5 161.0 L 157.0 161.0 L 163.0 160.5 L 167.0 159.5 L 168.5 159.0 L 168.5 159.0 L 167.5 159.0 L 166.5 159.5 L 166.0 159.5 " stroke="black" fill="none" stroke-width="6.0" stroke-linecap="round" stroke-linejoin="round" />
<path d="M 130.5 169.5 L 130.5 169.5 L 131.5 169.5 L 132.0 169.5 L 133.0 169.0 L 135.0 169.0 L 140.0 168.0 L 148.0 167.5 L 155.0 167.5 L 161.5 167.5 L 167.0 167.5 L 170.0 167.5 L 171.0 167.5 L 171.0 167.5 " stroke="black" fill="none" stroke-width="6.0" stroke-linecap="round" stroke-linejoin="round" />
<path d="M 148.0 153.0 L 148.0 153.0 L 148.0 153.5 L 148.0 154.0 L 148.0 154.5 L 148.0 156.5 L 148.0 160.5 L 148.0 165.0 L 148.5 169.0 L 149.0 171.5 L 149.0 171.5 " stroke="black" fill="none" stroke-width="6.0" stroke-linecap="round" stroke-linejoin="round" />
<path d="M 127.0 192.0 L 127.0 191.5 L 127.0 191.5 L 127.5 191.0 L 127.5 191.0 L 127.0 192.0 L 125.5 194.5 L 124.5 197.0 L 124.5 198.5 " stroke="black" fill="none" stroke-width="6.0" stroke-linecap="round" stroke-linejoin="round" />
<path d="M 137.5 190.5 L 137.5 190.5 L 137.5 191.0 L 137.5 191.5 L 138.0 192.5 L 139.0 194.0 L 140.5 195.0 L 141.5 195.0 " stroke="black" fill="none" stroke-width="6.0" stroke-linecap="round" stroke-linejoin="round" />
<path d="M 149.5 188.5 L 149.5 188.5 L 149.0 189.0 L 149.0 189.5 L 149.0 190.5 L 149.5 191.5 L 151.0 192.5 L 151.5 193.0 " stroke="black" fill="none" stroke-width="6.0" stroke-linecap="round" stroke-linejoin="round" />
<path d="M 160.0 186.0 L 160.0 186.0 L 161.0 186.0 L 161.5 186.0 L 162.5 186.0 L 164.0 186.5 L 166.0 188.5 L 168.0 191.0 L 169.5 193.0 " stroke="black" fill="none" stroke-width="6.0" stroke-linecap="round" stroke-linejoin="round" />
</svg>