<svg xmlns="http://www.w3.org/2000/svg" width="300" height="300" viewBox="0 0 300 300">
<path d="M 138.0 104.5 L 138.0 104.5 L 137.5 104.5 L 137.5 104.0 L 137.5 104.0 L 139.5 104.5 L 142.5 106.0 L 145.0 107.5 L 147.0 109.0 L 148.5 110.0 " stroke="black" fill="none" stroke-width="6.0" stroke-linecap="round" stroke-linejoin="round" />
<path d="M 124.5 122.0 L 124.5 121.5 L 124.5 121.0 L 125.5 121.0 L 129.5 120.5 L 139.5 118.5 L 152.0 116.0 L 161.5 115.5 L 167.0 117.0 L 166.5 117.0 L 165.5 117.0 " stroke="black" fill="none" stroke-width="6.0" stroke-linecap="round" stroke-linejoin="round" />
<path d="M 130.5 131.5 L 130.5 131.5 L 131.0 132.0 L 131.5 132.5 L 132.0 134.0 L 132.5 138.0 L 133.0 144.0 L 133.5 147.5 L 134.5 148.5 L 134.5 147.0 " stroke="black" fill="none" stroke-width="6.0" stroke-linecap="round" stroke-linejoin="round" />
<path d="M 134.5 129.5 L 133.5 130.0 L 132.5 130.5 L 132.5 130.5 L 135.0 131.0 L 140.0 131.0 L 146.5 129.5 L 154.0 128.0 L 161.0 127.5 L 164.5 127.5 L 165.0 129.0 L 165.0 130.0 L 164.5 131.0 L 164.5 132.0 L 164.5 134.0 L 164.0 137.5 L 163.0 142.5 L 162.5 146.5 L 162.5 149.0 L 162.5 150.5 L 162.5 150.5 " stroke="black" fill="none" stroke-width="6.0" stroke-linecap="round" stroke-linejoin="round" />
<path d="M 135.0 142.5 L 135.0 143.0 L 135.0 144.0 L 135.0 144.5 L 136.0 144.5 L 140.0 143.0 L 148.0 140.0 L 156.5 137.5 L 161.0 137.5 L 162.5 137.5 L 161.5 138.0 L 160.5 138.0 " stroke="black" fill="none" stroke-width="6.0" stroke-linecap="round" stroke-linejoin="round" />
<path d="M 137.0 151.5 L 136.5 152.0 L 135.5 152.5 L 135.5 152.5 L 136.5 152.5 L 142.0 152.0 L 149.5 151.0 L 155.5 150.5 L 159.0 150.5 L 159.5 150.0 " stroke="black" fill="none" stroke-width="6.0" stroke-linecap="round" stroke-linejoin="round" />
<path d="M 130.5 167.5 L 130.5 166.0 L 130.5 165.5 L 132.0 165.5 L 137.0 164.5 L 146.5 164.0 L 155.0 163.5 L 161.0 163.5 L 164.0 163.5 L 164.0 162.5 L 164.0 162.0 " stroke="black" fill="none" stroke-width="6.0" stroke-linecap="round" stroke-linejoin="round" />
<path d="M 147.5 131.0 L 147.5 131.5 L 147.5 132.0 L 147.5 132.5 L 147.5 134.0 L 147.5 138.5 L 147.5 148.5 L 146.5 160.5 L 146.0 170.0 L 146.0 174.5 L 146.5 175.0 L 147.0 175.0 L 147.0 174.5 " stroke="black" fill="none" stroke-width="6.0" stroke-linecap="round" stroke-linejoin="round" />
<path d="M 124.0 178.0 L 123.5 178.0 L 123.0 178.0 L 122.5 177.5 L 124.0 177.5 L 129.0 177.5 L 137.5 177.5 L 149.0 177.5 L 161.0 176.5 L 170.5 174.5 L 174.0 173.0 L 174.0 172.5 " stroke="black" fill="none" stroke-width="6.0" stroke-linecap="round" stroke-linejoin="round" />
<path d="M 143.5 181.0 L 144.5 181.0 L 145.0 181.0 L 146.0 181.0 L 146.0 180.5 L 146.5 180.5 L 145.5 183.0 L 142.5 188.0 L 137.5 194.0 L 131.5 199.0 L 129.0 201.0 L 129.0 201.0 L 129.0 198.5 " stroke="black" fill="none" stroke-width="6.0" stroke-linecap="round" stroke-linejoin="round" />
<path d="M 147.5 182.5 L 147.5 182.5 L 147.5 182.5 L 147.5 182.5 L 150.5 184.0 L 156.5 187.0 L 165.0 191.5 L 172.5 194.5 L 178.5 195.0 L 181.0 194.5 L 181.0 194.0 " stroke="black" fill="none" stroke-width="6.0" stroke-linecap="round" stroke-linejoin="round" />
<path d="M 175.0 180.5 L 175.5 181.0 L 175.5 181.5 L 174.5 182.5 L 172.0 184.5 L 169.5 186.5 L 167.0 188.5 L 165.5 190.0 L 165.0 190.5 " stroke="black" fill="none" stroke-width="6.0" stroke-linecap="round" stroke-linejoin="round" />
<path d="M 148.5 190.5 L 148.5 190.0 L 148.5 189.0 L 148.5 189.0 L 148.5 189.0 L 148.5 189.0 L 148.5 191.0 L 148.5 195.0 L 147.5 200.0 L 147.5 206.0 L 147.5 210.5 L 148.5 211.5 L 150.0 210.5 L 152.0 208.5 L 154.5 206.5 L 156.5 204.5 L 158.0 203.5 L 159.5 203.0 L 159.5 203.0 " stroke="black" fill="none" stroke-width="6.0" stroke-linecap="round" stroke-linejoin="round" />
</svg>