<svg xmlns="http://www.w3.org/2000/svg" width="300" height="300" viewBox="0 0 300 300">
<path d="M 131.0 132.5 L 131.0 133.0 L 130.0 133.0 L 129.0 132.5 L 129.0 131.5 L 133.0 130.0 L 141.0 129.0 L 152.5 129.0 L 163.0 129.0 L 171.0 129.5 L 174.5 129.5 L 174.5 129.5 L 173.5 129.5 L 172.0 129.5 L 171.5 129.5 " stroke="black" fill="none" stroke-width="6.0" stroke-linecap="round" stroke-linejoin="round" />
<path d="M 130.0 150.0 L 130.0 150.0 L 130.5 150.5 L 130.5 150.5 L 132.0 150.5 L 136.0 150.0 L 146.0 149.5 L 157.0 149.0 L 166.5 149.0 L 172.0 149.0 L 172.5 149.0 L 171.5 149.0 L 169.5 149.0 L 169.0 148.5 " stroke="black" fill="none" stroke-width="6.0" stroke-linecap="round" stroke-linejoin="round" />
<path d="M 151.5 131.5 L 152.0 132.0 L 152.0 132.0 L 152.0 132.5 L 152.0 134.0 L 152.0 138.0 L 150.5 144.5 L 148.0 152.5 L 143.5 162.0 L 137.5 170.5 L 133.0 176.0 L 130.0 179.5 L 129.0 180.5 L 129.5 180.0 L 130.5 178.0 " stroke="black" fill="none" stroke-width="6.0" stroke-linecap="round" stroke-linejoin="round" />
<path d="M 152.5 155.0 L 152.5 155.5 L 152.0 155.5 L 152.5 156.5 L 155.0 159.5 L 160.5 165.5 L 168.0 172.0 L 175.5 175.0 L 181.5 176.0 L 184.0 176.0 " stroke="black" fill="none" stroke-width="6.0" stroke-linecap="round" stroke-linejoin="round" />
</svg>