<svg xmlns="http://www.w3.org/2000/svg" width="300" height="300" viewBox="0 0 300 300">
<path d="M 124.0 127.0 L 123.0 128.0 L 122.5 128.0 L 122.0 128.0 L 123.5 127.0 L 126.5 125.0 L 131.0 123.5 L 135.5 123.5 L 139.5 124.5 L 140.5 126.5 L 138.0 130.5 L 132.0 136.5 L 126.5 141.0 L 125.0 143.0 L 125.5 143.5 L 128.5 143.5 L 131.5 144.5 L 133.5 146.0 L 135.5 148.0 L 137.5 150.5 L 138.5 154.5 L 139.0 160.0 L 138.5 166.5 L 137.0 173.0 L 135.5 180.0 L 134.5 186.0 L 133.5 191.0 L 132.5 193.5 L 132.0 194.5 L 130.5 194.5 L 129.0 194.0 L 127.5 193.0 L 126.0 191.5 L 125.5 189.5 L 125.0 189.0 " stroke="black" fill="none" stroke-width="6.0" stroke-linecap="round" stroke-linejoin="round" />
<path d="M 126.0 168.5 L 125.5 168.5 L 124.5 169.0 L 124.0 169.0 L 124.5 169.0 L 128.5 166.0 L 134.5 161.5 L 142.0 156.0 L 147.5 151.0 L 148.5 149.5 L 148.5 149.5 L 148.5 149.5 " stroke="black" fill="none" stroke-width="6.0" stroke-linecap="round" stroke-linejoin="round" />
<path d="M 172.0 125.5 L 172.0 125.5 L 172.0 125.5 L 172.0 125.5 L 172.0 125.5 L 172.0 125.5 L 171.5 126.0 L 169.5 126.5 L 166.0 128.0 L 161.5 129.5 L 157.0 131.5 L 154.0 132.5 L 152.5 132.5 L 152.0 133.0 L 152.0 133.0 L 152.0 133.0 L 152.5 133.0 L 152.5 133.0 L 152.5 133.0 L 152.5 133.0 L 153.0 133.0 L 153.0 133.5 L 153.5 134.0 L 154.0 135.5 L 154.0 138.0 L 154.5 142.5 L 154.5 148.5 L 154.5 154.0 L 154.5 160.0 L 154.0 166.5 L 154.0 172.5 L 153.0 178.0 L 153.0 183.0 L 152.5 187.0 L 152.0 190.5 L 151.5 192.5 L 151.5 193.5 L 151.5 193.5 L 151.5 193.5 L 151.5 193.5 L 151.5 193.0 L 153.0 192.0 L 154.5 190.5 L 157.0 188.0 L 159.5 185.0 L 161.5 183.5 L 163.5 182.5 L 164.0 182.5 " stroke="black" fill="none" stroke-width="6.0" stroke-linecap="round" stroke-linejoin="round" />
<path d="M 166.5 145.0 L 166.5 144.5 L 166.5 143.5 L 166.5 143.0 L 166.5 143.0 L 166.5 143.0 L 167.0 146.0 L 168.0 151.5 L 168.5 159.0 L 169.0 168.0 L 170.0 175.5 L 170.5 180.0 L 171.0 183.0 L 171.0 184.5 L 171.0 185.5 L 171.0 185.5 L 171.0 185.5 L 171.5 185.5 L 172.0 184.5 L 173.0 182.5 L 174.5 180.0 L 175.5 178.0 L 176.5 176.5 L 177.0 175.5 L 177.5 174.5 L 177.5 174.5 " stroke="black" fill="none" stroke-width="6.0" stroke-linecap="round" stroke-linejoin="round" />
<path d="M 174.5 142.0 L 174.5 142.0 L 174.5 141.5 L 174.5 141.0 L 174.5 141.0 L 175.5 143.0 L 178.5 150.5 L 184.0 165.0 L 190.0 176.5 L 194.0 180.0 L 198.0 181.0 L 199.0 180.0 " stroke="black" fill="none" stroke-width="6.0" stroke-linecap="round" stroke-linejoin="round" />
</svg>