<svg xmlns="http://www.w3.org/2000/svg" width="300" height="300" viewBox="0 0 300 300">
<path d="M 120.0 113.5 L 120.0 113.5 L 119.5 114.0 L 119.5 114.0 L 123.5 114.0 L 131.0 113.0 L 139.5 111.5 L 145.0 110.5 L 147.5 110.5 L 148.0 110.5 L 147.0 111.0 L 146.5 111.0 " stroke="black" fill="none" stroke-width="6.0" stroke-linecap="round" stroke-linejoin="round" />
<path d="M 120.0 130.5 L 120.0 130.5 L 119.5 130.5 L 119.5 130.5 L 119.5 130.5 L 120.0 132.5 L 120.5 136.0 L 121.5 139.0 L 121.5 141.0 L 121.5 141.0 " stroke="black" fill="none" stroke-width="6.0" stroke-linecap="round" stroke-linejoin="round" />
<path d="M 121.5 129.0 L 120.5 129.0 L 120.0 129.0 L 120.0 129.0 L 122.5 129.0 L 125.5 128.0 L 128.5 127.0 L 130.5 127.0 L 132.0 126.5 L 133.0 127.0 L 133.5 128.0 L 133.5 130.5 L 133.5 133.5 L 132.5 136.5 L 131.0 139.0 L 129.5 140.0 " stroke="black" fill="none" stroke-width="6.0" stroke-linecap="round" stroke-linejoin="round" />
<path d="M 123.0 143.0 L 122.5 143.0 L 122.0 143.5 L 122.0 143.5 L 123.0 143.5 L 125.5 142.5 L 129.0 140.5 L 131.0 138.0 " stroke="black" fill="none" stroke-width="6.0" stroke-linecap="round" stroke-linejoin="round" />
<path d="M 141.0 114.0 L 140.0 114.0 L 139.0 114.0 L 139.0 114.0 L 139.0 114.0 L 139.5 117.0 L 140.0 123.5 L 140.0 133.5 L 140.0 142.5 L 140.0 147.0 L 140.0 147.5 L 140.5 147.5 " stroke="black" fill="none" stroke-width="6.0" stroke-linecap="round" stroke-linejoin="round" />
<path d="M 118.0 154.0 L 117.0 154.5 L 116.5 155.0 L 117.0 155.0 L 121.0 154.5 L 127.5 152.5 L 135.5 151.0 L 141.5 149.5 L 145.5 149.5 L 146.5 149.5 " stroke="black" fill="none" stroke-width="6.0" stroke-linecap="round" stroke-linejoin="round" />
<path d="M 121.0 165.0 L 121.0 164.5 L 121.0 164.5 L 121.0 164.5 L 121.0 166.0 L 122.0 169.5 L 122.0 173.0 L 122.5 175.5 L 122.5 176.0 " stroke="black" fill="none" stroke-width="6.0" stroke-linecap="round" stroke-linejoin="round" />
<path d="M 122.0 166.5 L 122.0 166.0 L 121.5 166.0 L 122.0 165.0 L 124.0 164.5 L 126.5 163.5 L 129.0 163.0 L 131.5 163.0 L 133.0 163.0 L 134.0 163.0 L 134.5 164.5 L 134.5 167.0 L 134.5 169.5 L 133.0 172.5 L 131.5 174.5 L 130.5 175.0 " stroke="black" fill="none" stroke-width="6.0" stroke-linecap="round" stroke-linejoin="round" />
<path d="M 124.5 176.5 L 124.5 177.0 L 124.5 177.5 L 124.5 178.0 L 125.0 178.0 L 127.0 177.5 L 129.5 176.5 L 131.5 175.0 " stroke="black" fill="none" stroke-width="6.0" stroke-linecap="round" stroke-linejoin="round" />
<path d="M 138.5 155.0 L 137.5 155.5 L 137.5 156.0 L 137.5 156.5 L 138.0 158.0 L 139.0 162.0 L 140.0 169.5 L 140.5 181.0 L 140.5 190.5 L 141.0 197.5 L 141.0 201.0 L 140.5 202.5 L 139.5 202.5 L 137.5 200.5 L 136.0 197.5 " stroke="black" fill="none" stroke-width="6.0" stroke-linecap="round" stroke-linejoin="round" />
<path d="M 158.0 115.5 L 158.5 115.0 L 158.5 115.0 L 159.0 114.5 L 159.0 117.5 L 158.5 124.5 L 156.5 135.5 L 154.5 144.0 L 154.0 146.0 L 154.0 145.0 " stroke="black" fill="none" stroke-width="6.0" stroke-linecap="round" stroke-linejoin="round" />
<path d="M 157.5 130.0 L 157.0 130.5 L 156.5 131.0 L 156.5 131.0 L 159.0 130.5 L 162.5 129.0 L 167.5 126.5 L 173.5 123.5 L 179.5 121.5 L 182.5 121.5 L 182.5 122.0 L 182.5 124.0 L 181.5 126.5 L 181.0 132.0 L 180.0 137.5 L 179.5 142.0 L 179.0 144.0 L 179.0 144.0 L 178.5 144.0 " stroke="black" fill="none" stroke-width="6.0" stroke-linecap="round" stroke-linejoin="round" />
<path d="M 168.0 135.5 L 168.5 135.5 L 169.0 135.5 L 169.0 136.5 L 169.0 141.0 L 167.5 150.5 L 164.5 163.0 L 161.5 173.5 L 160.0 178.5 L 159.5 179.0 L 159.5 177.5 L 159.0 175.5 " stroke="black" fill="none" stroke-width="6.0" stroke-linecap="round" stroke-linejoin="round" />
<path d="M 164.5 159.5 L 164.5 159.5 L 164.5 160.0 L 164.5 161.0 L 166.5 163.0 L 172.5 166.5 L 181.0 171.0 L 187.0 175.0 L 190.5 178.5 L 192.0 181.0 " stroke="black" fill="none" stroke-width="6.0" stroke-linecap="round" stroke-linejoin="round" />
</svg>