<svg xmlns="http://www.w3.org/2000/svg" width="300" height="300" viewBox="0 0 300 300">
<path d="M 135.0 119.5 L 135.0 118.5 L 135.5 118.0 L 135.5 118.0 L 136.0 122.5 L 136.5 133.5 L 136.5 152.0 L 136.5 170.5 L 136.0 183.0 L 136.0 189.0 L 136.0 189.5 L 135.5 188.5 " stroke="black" fill="none" stroke-width="6.0" stroke-linecap="round" stroke-linejoin="round" />
<path d="M 128.5 135.0 L 128.5 136.0 L 128.0 136.5 L 127.5 138.5 L 126.0 144.0 L 124.5 151.0 L 123.0 156.0 L 122.5 157.0 " stroke="black" fill="none" stroke-width="6.0" stroke-linecap="round" stroke-linejoin="round" />
<path d="M 151.0 127.0 L 151.0 127.0 L 151.0 128.0 L 151.0 129.0 L 151.0 131.5 L 151.5 134.5 L 152.0 135.5 " stroke="black" fill="none" stroke-width="6.0" stroke-linecap="round" stroke-linejoin="round" />
<path d="M 164.0 123.5 L 162.5 124.0 L 161.5 124.0 L 161.5 124.0 L 163.0 124.0 L 167.0 123.0 L 171.5 122.0 L 176.0 121.0 L 179.0 120.5 L 180.0 120.5 L 180.0 123.5 L 179.0 129.0 L 177.5 135.5 L 176.5 141.5 L 176.0 144.5 L 176.0 145.5 L 175.5 145.5 " stroke="black" fill="none" stroke-width="6.0" stroke-linecap="round" stroke-linejoin="round" />
<path d="M 166.0 135.5 L 164.5 135.5 L 163.0 136.0 L 163.5 136.5 L 166.5 136.5 L 170.5 136.5 L 173.5 136.5 L 175.0 136.5 " stroke="black" fill="none" stroke-width="6.0" stroke-linecap="round" stroke-linejoin="round" />
<path d="M 163.0 146.0 L 161.0 146.5 L 160.5 147.0 L 163.0 147.0 L 166.0 147.0 L 169.0 146.0 L 169.5 146.0 " stroke="black" fill="none" stroke-width="6.0" stroke-linecap="round" stroke-linejoin="round" />
<path d="M 157.5 125.5 L 157.5 124.0 L 158.0 123.0 L 158.0 122.5 L 158.5 123.5 L 159.0 127.0 L 159.5 134.0 L 159.5 144.5 L 158.0 157.5 L 157.0 168.5 L 156.5 175.0 L 157.0 178.5 L 157.5 180.5 L 158.0 180.5 L 158.0 180.5 L 158.0 180.0 L 158.5 179.0 L 160.0 177.0 L 162.0 175.5 L 164.0 174.0 L 166.0 172.5 L 166.5 172.0 " stroke="black" fill="none" stroke-width="6.0" stroke-linecap="round" stroke-linejoin="round" />
<path d="M 180.5 154.5 L 181.0 155.0 L 181.0 155.5 L 181.0 155.5 L 181.0 156.5 L 180.0 158.0 L 178.5 160.0 L 178.0 160.5 " stroke="black" fill="none" stroke-width="6.0" stroke-linecap="round" stroke-linejoin="round" />
<path d="M 167.5 153.5 L 167.0 153.5 L 166.0 155.0 L 167.0 158.5 L 172.0 165.5 L 177.5 173.0 L 181.5 177.0 L 184.5 179.0 " stroke="black" fill="none" stroke-width="6.0" stroke-linecap="round" stroke-linejoin="round" />
</svg>