<svg xmlns="http://www.w3.org/2000/svg" width="300" height="300" viewBox="0 0 300 300">
<path d="M 117.0 121.0 L 117.0 121.0 L 117.0 121.0 L 118.0 120.5 L 121.5 120.0 L 127.0 119.0 L 132.5 118.0 L 136.0 116.5 L 138.0 115.0 " stroke="black" fill="none" stroke-width="6.0" stroke-linecap="round" stroke-linejoin="round" />
<path d="M 130.5 103.5 L 130.5 103.5 L 130.5 103.5 L 130.0 103.5 L 130.0 104.5 L 130.0 110.0 L 131.0 121.0 L 132.0 135.0 L 132.5 150.0 L 132.5 162.0 L 132.0 171.0 L 131.5 176.5 L 130.5 180.0 L 130.0 182.5 L 130.0 183.0 L 129.5 183.0 L 129.0 182.5 L 128.0 180.5 L 127.0 177.0 L 126.5 176.0 " stroke="black" fill="none" stroke-width="6.0" stroke-linecap="round" stroke-linejoin="round" />
<path d="M 116.0 158.5 L 116.0 158.5 L 116.0 158.5 L 116.0 158.5 L 117.5 157.5 L 121.5 155.0 L 127.5 150.5 L 134.0 145.5 " stroke="black" fill="none" stroke-width="6.0" stroke-linecap="round" stroke-linejoin="round" />
<path d="M 158.5 102.0 L 158.5 101.0 L 158.5 100.0 L 158.0 99.5 L 158.0 99.5 L 158.0 99.5 L 158.0 101.0 L 159.0 104.0 L 161.0 107.0 L 162.5 110.0 L 163.0 111.5 " stroke="black" fill="none" stroke-width="6.0" stroke-linecap="round" stroke-linejoin="round" />
<path d="M 145.5 120.5 L 144.5 120.5 L 143.5 121.0 L 143.0 121.0 L 144.5 120.5 L 148.5 119.5 L 154.0 118.5 L 161.5 117.0 L 170.0 116.0 L 176.5 116.0 L 179.5 116.5 " stroke="black" fill="none" stroke-width="6.0" stroke-linecap="round" stroke-linejoin="round" />
<path d="M 148.0 132.5 L 148.0 132.5 L 148.0 132.5 L 148.0 132.0 L 148.0 132.0 L 148.0 136.5 L 148.0 146.0 L 148.0 158.5 L 147.0 169.0 L 146.5 176.5 L 146.5 179.5 L 146.5 179.0 L 147.0 177.5 " stroke="black" fill="none" stroke-width="6.0" stroke-linecap="round" stroke-linejoin="round" />
<path d="M 149.0 130.5 L 148.5 130.5 L 147.5 130.5 L 147.0 130.5 L 147.5 130.5 L 150.5 130.0 L 155.5 129.0 L 161.5 127.5 L 168.5 127.0 L 173.5 127.0 L 176.0 128.0 L 176.5 129.5 L 177.0 131.5 L 176.5 134.5 L 176.0 138.5 L 175.5 143.5 L 175.5 149.5 L 175.0 156.0 L 175.0 162.5 L 175.0 168.5 L 175.5 172.0 L 177.0 174.5 L 179.0 176.5 L 181.0 177.0 L 184.0 177.5 L 187.0 176.5 L 190.0 174.0 L 192.0 170.5 L 193.0 166.5 L 193.0 163.0 L 192.5 158.5 L 191.5 156.0 " stroke="black" fill="none" stroke-width="6.0" stroke-linecap="round" stroke-linejoin="round" />
</svg>