<svg xmlns="http://www.w3.org/2000/svg" width="300" height="300" viewBox="0 0 300 300">
<path d="M 143.0 103.0 L 143.0 103.0 L 142.5 102.5 L 142.0 102.5 L 143.0 103.5 L 145.0 105.5 L 147.5 106.5 L 149.0 107.5 L 150.0 108.0 " stroke="black" fill="none" stroke-width="6.0" stroke-linecap="round" stroke-linejoin="round" />
<path d="M 129.0 115.5 L 129.5 115.5 L 130.0 115.5 L 131.5 115.0 L 136.5 114.5 L 145.5 114.5 L 155.5 114.5 L 162.5 114.5 L 167.5 114.0 L 169.0 113.0 L 168.5 112.0 " stroke="black" fill="none" stroke-width="6.0" stroke-linecap="round" stroke-linejoin="round" />
<path d="M 134.0 124.0 L 134.0 124.0 L 134.0 123.0 L 134.0 122.5 L 134.5 122.0 L 135.5 123.5 L 137.0 127.0 L 139.5 130.0 L 141.5 132.5 L 144.0 133.0 " stroke="black" fill="none" stroke-width="6.0" stroke-linecap="round" stroke-linejoin="round" />
<path d="M 163.0 122.0 L 163.0 122.0 L 163.0 121.5 L 163.0 121.5 L 163.0 121.5 L 162.5 121.5 L 161.5 124.0 L 159.5 127.5 L 157.5 131.0 L 156.5 133.0 " stroke="black" fill="none" stroke-width="6.0" stroke-linecap="round" stroke-linejoin="round" />
<path d="M 125.0 144.5 L 124.5 144.5 L 124.5 144.5 L 127.0 144.0 L 134.5 142.5 L 147.0 141.0 L 158.0 140.0 L 163.5 139.5 L 165.5 139.5 L 165.5 140.0 " stroke="black" fill="none" stroke-width="6.0" stroke-linecap="round" stroke-linejoin="round" />
<path d="M 129.5 155.0 L 129.5 154.5 L 129.5 154.5 L 129.5 154.0 L 129.0 154.0 L 129.0 156.5 L 130.0 163.5 L 131.0 171.5 L 131.0 178.0 L 131.0 179.5 L 131.0 177.0 " stroke="black" fill="none" stroke-width="6.0" stroke-linecap="round" stroke-linejoin="round" />
<path d="M 132.5 155.0 L 132.5 156.5 L 132.5 157.0 L 133.5 157.0 L 136.0 157.0 L 140.0 156.5 L 146.0 156.0 L 152.5 155.0 L 157.5 154.5 L 160.5 154.5 L 162.0 154.5 L 163.0 154.5 L 163.0 154.5 L 163.0 154.5 L 163.0 154.5 L 163.0 154.5 L 163.0 155.5 L 162.5 157.5 L 161.5 160.5 L 159.5 166.0 L 158.0 172.5 L 157.0 177.0 L 156.5 180.0 L 156.5 181.0 L 156.5 180.5 L 156.0 180.0 " stroke="black" fill="none" stroke-width="6.0" stroke-linecap="round" stroke-linejoin="round" />
<path d="M 132.5 173.0 L 132.0 173.0 L 131.5 173.5 L 131.5 173.5 L 131.5 173.0 L 134.0 172.0 L 138.0 171.5 L 144.0 171.5 L 150.0 171.5 L 153.5 171.5 L 155.0 172.0 L 155.5 172.5 " stroke="black" fill="none" stroke-width="6.0" stroke-linecap="round" stroke-linejoin="round" />
<path d="M 132.0 184.5 L 131.5 184.5 L 131.0 185.0 L 131.0 185.0 L 131.0 185.0 L 133.5 184.5 L 138.5 184.5 L 145.0 184.5 L 151.5 184.5 L 155.5 184.5 L 157.0 184.5 " stroke="black" fill="none" stroke-width="6.0" stroke-linecap="round" stroke-linejoin="round" />
</svg>