<svg xmlns="http://www.w3.org/2000/svg" width="300" height="300" viewBox="0 0 300 300">
<path d="M 129.0 112.0 L 129.0 112.0 L 129.0 112.5 L 128.5 113.0 L 129.5 115.5 L 132.5 121.0 L 135.5 126.5 L 137.5 129.5 L 137.5 129.5 " stroke="black" fill="none" stroke-width="6.0" stroke-linecap="round" stroke-linejoin="round" />
<path d="M 125.5 141.0 L 125.5 140.5 L 125.5 140.5 L 126.0 140.0 L 126.0 140.5 L 127.5 143.0 L 129.5 147.0 L 131.5 151.5 L 132.0 155.0 L 132.0 156.5 " stroke="black" fill="none" stroke-width="6.0" stroke-linecap="round" stroke-linejoin="round" />
<path d="M 123.0 182.0 L 123.0 182.0 L 123.0 182.0 L 123.0 181.5 L 123.0 181.0 L 124.5 179.0 L 126.5 176.0 L 129.5 171.0 L 132.0 166.0 " stroke="black" fill="none" stroke-width="6.0" stroke-linecap="round" stroke-linejoin="round" />
<path d="M 151.5 106.5 L 152.0 106.5 L 152.5 106.5 L 152.5 107.0 L 152.5 108.0 L 153.0 110.5 L 153.0 115.5 L 153.0 119.5 L 152.5 121.5 L 152.0 122.0 " stroke="black" fill="none" stroke-width="6.0" stroke-linecap="round" stroke-linejoin="round" />
<path d="M 146.0 114.5 L 146.0 114.5 L 146.0 114.5 L 146.0 114.5 L 146.0 114.5 L 146.5 114.5 L 149.0 114.5 L 154.5 114.5 L 161.0 113.5 L 168.0 113.0 L 173.5 112.0 L 177.5 111.5 L 178.5 111.5 L 178.5 111.5 L 178.0 111.5 L 178.0 111.5 L 178.0 111.5 L 178.0 111.5 L 178.0 111.5 L 178.0 111.5 L 178.0 111.5 L 178.0 111.5 " stroke="black" fill="none" stroke-width="6.0" stroke-linecap="round" stroke-linejoin="round" />
<path d="M 169.0 102.5 L 169.5 102.5 L 169.5 102.0 L 170.0 102.0 L 170.0 104.0 L 170.0 108.0 L 170.0 113.5 L 169.5 118.0 L 169.5 119.5 L 169.5 119.5 " stroke="black" fill="none" stroke-width="6.0" stroke-linecap="round" stroke-linejoin="round" />
<path d="M 151.0 127.0 L 151.0 127.0 L 151.0 126.5 L 151.5 126.5 L 151.5 126.5 L 152.5 126.5 L 155.5 126.5 L 160.5 126.5 L 165.5 126.0 L 169.5 125.5 L 171.0 125.0 L 171.5 125.0 L 171.0 125.0 " stroke="black" fill="none" stroke-width="6.0" stroke-linecap="round" stroke-linejoin="round" />
<path d="M 148.0 137.0 L 148.5 137.0 L 149.0 136.5 L 149.0 136.5 L 149.5 137.0 L 150.0 139.0 L 150.5 141.5 L 151.0 144.0 L 151.5 145.0 L 151.5 145.0 " stroke="black" fill="none" stroke-width="6.0" stroke-linecap="round" stroke-linejoin="round" />
<path d="M 150.5 136.0 L 150.5 136.5 L 150.0 137.5 L 150.0 137.5 L 150.5 137.5 L 152.5 137.5 L 156.5 137.5 L 161.5 137.0 L 167.5 136.5 L 173.0 136.5 L 177.0 136.5 L 178.5 136.5 L 179.0 136.5 L 179.0 136.5 L 178.5 136.5 L 178.0 137.5 L 177.0 139.5 L 176.0 142.0 L 174.5 145.0 L 173.5 147.5 L 172.5 149.0 L 171.5 149.5 L 171.5 149.5 " stroke="black" fill="none" stroke-width="6.0" stroke-linecap="round" stroke-linejoin="round" />
<path d="M 153.5 148.5 L 153.5 148.5 L 153.5 148.5 L 153.5 148.5 L 153.5 148.5 L 154.5 148.5 L 158.5 148.5 L 164.0 148.5 L 169.5 148.5 L 173.5 148.0 L 174.0 148.0 " stroke="black" fill="none" stroke-width="6.0" stroke-linecap="round" stroke-linejoin="round" />
<path d="M 149.5 159.0 L 150.0 159.0 L 150.0 159.0 L 150.5 159.5 L 151.0 159.5 L 151.5 159.5 L 154.0 159.5 L 158.0 159.5 L 163.5 159.5 L 168.0 159.5 L 171.0 159.5 L 171.5 159.5 " stroke="black" fill="none" stroke-width="6.0" stroke-linecap="round" stroke-linejoin="round" />
<path d="M 144.5 173.5 L 144.5 173.5 L 144.0 174.0 L 144.0 174.5 L 144.5 174.5 L 148.0 174.0 L 155.0 173.5 L 164.0 173.5 L 172.0 173.0 L 177.5 173.0 L 179.5 172.5 L 179.5 172.0 " stroke="black" fill="none" stroke-width="6.0" stroke-linecap="round" stroke-linejoin="round" />
<path d="M 162.5 129.0 L 162.5 128.5 L 162.0 128.0 L 162.0 128.0 L 162.0 128.0 L 162.0 128.5 L 162.0 131.0 L 162.0 138.0 L 161.5 150.5 L 160.0 164.5 L 158.5 174.5 L 155.5 181.5 L 152.0 188.5 L 150.0 192.5 L 148.5 194.0 L 148.0 193.5 L 147.0 191.0 " stroke="black" fill="none" stroke-width="6.0" stroke-linecap="round" stroke-linejoin="round" />
<path d="M 163.0 176.5 L 163.0 177.0 L 163.0 178.0 L 163.0 179.0 L 165.5 181.5 L 171.0 187.0 L 177.5 192.0 L 182.0 195.0 L 183.0 195.0 " stroke="black" fill="none" stroke-width="6.0" stroke-linecap="round" stroke-linejoin="round" />
</svg>