<svg xmlns="http://www.w3.org/2000/svg" width="300" height="300" viewBox="0 0 300 300">
<path d="M 148.0 109.0 L 147.0 109.0 L 146.0 109.5 L 146.0 110.0 L 149.0 112.5 L 152.5 115.5 L 155.5 117.5 L 157.0 119.0 L 157.5 119.5 " stroke="black" fill="none" stroke-width="6.0" stroke-linecap="round" stroke-linejoin="round" />
<path d="M 130.0 125.5 L 130.0 125.5 L 129.5 125.5 L 129.5 125.5 L 131.0 125.5 L 136.0 125.5 L 145.5 125.5 L 157.0 125.0 L 166.5 124.0 L 173.0 123.5 L 175.5 123.5 L 175.5 123.5 L 174.5 124.0 " stroke="black" fill="none" stroke-width="6.0" stroke-linecap="round" stroke-linejoin="round" />
<path d="M 150.0 129.5 L 151.5 128.5 L 152.5 128.0 L 153.0 127.5 L 153.0 127.5 L 153.0 129.0 L 150.5 134.0 L 146.5 142.0 L 141.0 150.5 L 135.5 156.5 L 133.0 159.0 L 132.5 159.0 L 133.5 158.0 L 136.5 157.0 L 141.0 156.0 L 146.5 155.0 L 151.5 154.5 L 155.0 153.5 L 156.0 152.0 " stroke="black" fill="none" stroke-width="6.0" stroke-linecap="round" stroke-linejoin="round" />
<path d="M 160.0 147.0 L 160.0 147.0 L 159.5 147.0 L 159.5 146.5 L 159.5 146.5 L 159.5 146.0 L 159.0 146.0 L 158.5 148.0 L 156.5 153.5 L 152.0 162.0 L 147.0 170.5 L 142.5 176.0 L 139.0 178.5 L 137.0 180.5 L 136.0 181.0 L 135.5 181.0 L 135.5 181.0 L 135.5 181.0 L 136.0 180.0 L 138.0 179.5 L 141.0 178.5 L 145.5 178.5 L 152.0 178.0 L 159.0 177.0 L 165.0 176.0 L 168.0 175.0 L 168.5 175.0 L 168.5 175.0 L 168.5 174.5 " stroke="black" fill="none" stroke-width="6.0" stroke-linecap="round" stroke-linejoin="round" />
<path d="M 165.5 166.0 L 165.0 166.0 L 164.5 166.0 L 164.5 166.0 L 164.5 167.5 L 166.0 171.0 L 167.5 176.0 L 169.5 180.5 L 170.5 182.0 " stroke="black" fill="none" stroke-width="6.0" stroke-linecap="round" stroke-linejoin="round" />
</svg>