<svg xmlns="http://www.w3.org/2000/svg" width="300" height="300" viewBox="0 0 300 300">
<path d="M 128.5 127.5 L 128.5 127.0 L 128.5 126.5 L 128.5 126.5 L 128.5 126.0 L 129.0 128.5 L 129.5 133.0 L 130.5 138.0 L 131.5 143.5 L 131.5 144.5 L 131.5 142.5 " stroke="black" fill="none" stroke-width="6.0" stroke-linecap="round" stroke-linejoin="round" />
<path d="M 130.0 122.5 L 129.5 122.0 L 129.0 121.5 L 128.5 121.5 L 128.5 121.5 L 129.0 121.5 L 131.0 121.5 L 134.5 121.0 L 139.5 121.0 L 146.0 121.0 L 151.5 121.0 L 155.0 121.0 L 158.0 121.0 L 161.0 121.0 L 162.5 121.0 L 165.5 121.0 L 167.5 121.0 L 171.0 120.5 L 172.0 120.0 L 172.5 120.0 L 173.0 120.0 L 173.0 120.0 L 173.0 120.0 L 172.5 120.0 L 172.5 120.0 L 172.5 120.0 L 172.5 120.0 L 172.5 120.0 L 172.5 120.0 L 172.0 120.0 L 172.0 120.5 L 172.0 121.0 L 171.5 122.5 L 171.0 124.5 L 171.0 127.0 L 170.0 132.0 L 169.5 135.0 L 169.0 138.5 L 169.0 140.5 L 169.0 140.5 L 169.0 140.5 L 169.0 140.5 L 169.0 140.5 " stroke="black" fill="none" stroke-width="6.0" stroke-linecap="round" stroke-linejoin="round" />
<path d="M 131.5 143.5 L 132.5 143.5 L 133.0 143.0 L 134.0 142.5 L 136.0 142.0 L 139.5 142.0 L 145.5 141.5 L 150.0 141.5 L 157.0 142.0 L 160.5 143.0 L 163.5 143.5 L 165.5 144.5 L 167.5 144.5 L 168.0 144.5 L 168.5 144.5 L 168.5 144.5 " stroke="black" fill="none" stroke-width="6.0" stroke-linecap="round" stroke-linejoin="round" />
<path d="M 150.5 106.5 L 150.5 107.0 L 150.5 107.5 L 150.5 108.0 L 150.5 110.0 L 150.5 116.5 L 150.5 128.0 L 150.0 141.0 L 149.5 151.0 L 149.0 158.0 L 149.0 162.0 L 149.0 163.0 L 149.0 164.0 L 149.5 164.5 L 149.5 164.0 " stroke="black" fill="none" stroke-width="6.0" stroke-linecap="round" stroke-linejoin="round" />
<path d="M 128.5 166.5 L 128.5 166.5 L 128.5 166.0 L 128.5 166.0 L 128.5 166.0 L 128.5 166.0 L 128.5 167.5 L 126.5 172.0 L 125.0 175.5 L 122.0 182.0 L 120.5 184.5 L 121.0 184.0 " stroke="black" fill="none" stroke-width="6.0" stroke-linecap="round" stroke-linejoin="round" />
<path d="M 138.5 174.0 L 138.5 174.0 L 139.0 174.0 L 139.5 173.5 L 139.5 173.5 L 140.0 173.5 L 140.5 173.5 L 140.5 175.0 L 141.5 178.5 L 142.5 182.5 L 145.5 186.0 L 149.0 187.5 L 152.0 187.5 L 154.0 187.0 L 157.5 185.5 L 159.0 184.0 L 159.0 183.0 L 159.5 182.5 L 159.0 182.5 L 158.5 183.0 " stroke="black" fill="none" stroke-width="6.0" stroke-linecap="round" stroke-linejoin="round" />
<path d="M 156.5 168.5 L 156.5 169.0 L 157.0 169.5 L 157.5 170.5 L 158.0 171.0 L 159.5 172.0 L 162.5 173.0 L 163.0 173.0 " stroke="black" fill="none" stroke-width="6.0" stroke-linecap="round" stroke-linejoin="round" />
<path d="M 173.0 166.5 L 173.0 166.5 L 173.0 167.0 L 173.0 167.5 L 174.0 169.5 L 175.5 172.5 L 177.0 176.5 L 177.5 178.5 L 178.0 179.5 L 178.0 179.5 " stroke="black" fill="none" stroke-width="6.0" stroke-linecap="round" stroke-linejoin="round" />
</svg>