<svg xmlns="http://www.w3.org/2000/svg" width="300" height="300" viewBox="0 0 300 300">
<path d="M 132.0 113.5 L 132.0 113.5 L 132.0 114.0 L 132.0 114.5 L 132.5 114.5 L 133.5 114.5 L 138.0 114.5 L 147.0 115.0 L 158.0 115.5 L 167.0 115.0 L 173.5 114.0 L 177.5 113.5 L 178.5 113.5 L 178.5 113.5 L 178.5 113.5 L 178.5 113.5 L 178.5 113.5 L 178.0 114.0 L 177.0 114.0 " stroke="black" fill="none" stroke-width="6.0" stroke-linecap="round" stroke-linejoin="round" />
<path d="M 136.5 128.5 L 136.5 128.5 L 136.5 127.5 L 136.5 127.0 L 136.5 126.5 L 136.5 126.5 L 136.5 129.0 L 137.0 136.0 L 137.5 145.5 L 138.5 151.0 L 139.5 152.5 L 140.0 150.0 L 140.0 147.0 " stroke="black" fill="none" stroke-width="6.0" stroke-linecap="round" stroke-linejoin="round" />
<path d="M 136.0 128.0 L 135.0 128.5 L 134.5 129.0 L 134.5 129.5 L 137.0 129.5 L 140.5 129.0 L 146.0 128.5 L 153.0 127.5 L 161.0 127.0 L 168.5 127.0 L 173.0 128.0 L 174.0 129.0 L 174.0 130.0 L 173.5 130.5 L 173.5 131.5 L 173.5 133.5 L 173.0 137.0 L 172.0 142.0 L 171.0 148.0 L 170.0 153.5 L 169.5 156.5 L 169.5 157.0 L 169.5 156.0 L 169.5 154.5 " stroke="black" fill="none" stroke-width="6.0" stroke-linecap="round" stroke-linejoin="round" />
<path d="M 141.5 143.0 L 141.5 143.0 L 140.0 143.0 L 140.0 142.5 L 140.5 142.5 L 143.5 142.5 L 149.0 142.0 L 155.5 141.0 L 162.5 139.5 L 167.5 138.0 L 170.0 137.5 L 170.5 137.5 L 169.5 138.5 " stroke="black" fill="none" stroke-width="6.0" stroke-linecap="round" stroke-linejoin="round" />
<path d="M 145.0 154.5 L 142.0 156.5 L 140.5 157.5 L 140.5 157.5 L 143.5 157.5 L 149.5 157.5 L 156.5 156.5 L 163.5 155.0 L 168.5 154.0 L 170.0 153.5 L 170.0 153.5 " stroke="black" fill="none" stroke-width="6.0" stroke-linecap="round" stroke-linejoin="round" />
<path d="M 155.0 107.5 L 155.0 107.5 L 155.5 107.5 L 155.5 107.5 L 155.5 107.5 L 155.5 109.0 L 155.5 114.5 L 155.5 125.0 L 155.5 137.5 L 155.5 148.5 L 155.5 159.0 L 155.5 169.0 L 156.0 177.5 L 156.5 185.0 L 157.0 191.0 L 157.5 194.5 L 158.0 196.0 L 158.0 196.0 L 158.0 196.0 L 158.0 195.5 L 158.0 195.5 L 158.0 194.5 L 157.5 193.0 L 156.5 190.5 L 156.0 189.5 " stroke="black" fill="none" stroke-width="6.0" stroke-linecap="round" stroke-linejoin="round" />
<path d="M 150.0 160.5 L 150.5 160.5 L 151.0 160.0 L 151.5 159.5 L 152.0 159.5 L 152.0 159.5 L 152.0 160.0 L 150.0 164.0 L 144.0 172.0 L 136.5 180.0 L 130.0 185.5 L 129.0 187.0 L 129.0 187.0 L 129.5 184.5 " stroke="black" fill="none" stroke-width="6.0" stroke-linecap="round" stroke-linejoin="round" />
<path d="M 155.0 163.5 L 156.0 163.5 L 156.5 163.5 L 157.5 163.5 L 160.0 165.0 L 164.5 167.5 L 171.5 172.0 L 179.0 176.0 L 184.0 178.0 L 186.5 178.0 L 187.0 177.5 L 187.0 177.0 L 187.0 176.5 " stroke="black" fill="none" stroke-width="6.0" stroke-linecap="round" stroke-linejoin="round" />
</svg>