<svg xmlns="http://www.w3.org/2000/svg" width="300" height="300" viewBox="0 0 300 300">
<path d="M 130.0 123.0 L 130.0 123.0 L 129.5 123.5 L 129.5 123.5 L 129.5 123.5 L 130.5 123.0 L 133.0 122.5 L 139.0 121.5 L 146.5 121.0 L 155.5 120.0 L 164.5 118.5 L 171.0 117.5 L 174.0 117.0 L 174.5 117.0 L 174.5 117.0 L 174.5 117.0 L 173.5 117.0 L 173.0 117.0 " stroke="black" fill="none" stroke-width="6.0" stroke-linecap="round" stroke-linejoin="round" />
<path d="M 131.0 134.0 L 131.0 134.0 L 131.5 134.5 L 131.5 135.0 L 132.0 136.0 L 133.0 139.5 L 134.0 145.5 L 135.0 150.5 L 135.5 153.0 L 135.5 153.5 L 135.5 152.5 " stroke="black" fill="none" stroke-width="6.0" stroke-linecap="round" stroke-linejoin="round" />
<path d="M 135.5 130.5 L 135.5 130.5 L 135.5 131.0 L 135.5 131.0 L 136.0 131.0 L 139.0 131.0 L 143.5 131.0 L 153.5 130.0 L 162.5 129.0 L 171.0 128.5 L 175.5 128.0 L 177.0 128.0 L 177.0 128.0 L 176.5 128.0 L 176.0 128.5 L 176.0 129.0 L 175.5 130.0 L 175.0 132.0 L 173.5 135.0 L 172.5 139.5 L 171.0 145.5 L 170.5 150.5 L 170.5 153.0 L 170.5 153.5 L 171.5 153.5 L 171.5 153.0 " stroke="black" fill="none" stroke-width="6.0" stroke-linecap="round" stroke-linejoin="round" />
<path d="M 138.5 141.5 L 138.5 141.5 L 138.5 141.5 L 138.5 141.5 L 140.0 141.5 L 146.0 141.0 L 154.5 140.5 L 162.5 139.5 L 167.0 139.0 L 169.0 139.5 L 169.5 139.5 " stroke="black" fill="none" stroke-width="6.0" stroke-linecap="round" stroke-linejoin="round" />
<path d="M 137.0 154.5 L 137.0 154.5 L 137.0 154.5 L 137.0 154.5 L 141.0 154.5 L 149.5 154.0 L 160.0 152.5 L 169.0 151.5 L 173.0 151.0 L 173.0 151.0 " stroke="black" fill="none" stroke-width="6.0" stroke-linecap="round" stroke-linejoin="round" />
<path d="M 153.5 110.0 L 153.5 110.5 L 153.5 111.5 L 153.5 111.5 L 153.5 112.5 L 153.5 115.0 L 153.0 122.0 L 152.5 135.5 L 152.0 152.0 L 152.0 168.5 L 152.0 181.0 L 152.5 187.5 L 152.5 190.0 L 152.5 190.5 L 152.5 190.0 L 152.5 189.0 " stroke="black" fill="none" stroke-width="6.0" stroke-linecap="round" stroke-linejoin="round" />
<path d="M 147.0 159.5 L 147.0 159.5 L 148.0 158.5 L 148.0 158.0 L 148.5 158.0 L 149.0 158.0 L 149.0 159.0 L 148.0 162.0 L 145.0 167.0 L 139.0 174.0 L 133.0 180.5 L 130.5 183.0 L 130.5 182.5 L 131.5 181.5 " stroke="black" fill="none" stroke-width="6.0" stroke-linecap="round" stroke-linejoin="round" />
<path d="M 161.0 158.0 L 159.0 159.5 L 159.0 161.0 L 161.5 163.5 L 167.0 167.5 L 174.0 172.5 L 181.5 176.5 L 187.5 179.0 L 189.5 180.0 " stroke="black" fill="none" stroke-width="6.0" stroke-linecap="round" stroke-linejoin="round" />
</svg>