<svg xmlns="http://www.w3.org/2000/svg" width="300" height="300" viewBox="0 0 300 300">
<path d="M 130.0 123.5 L 130.0 123.5 L 129.5 123.5 L 129.0 123.5 L 128.5 123.5 L 128.5 123.5 L 129.5 123.5 L 134.5 123.5 L 143.5 123.5 L 153.5 123.5 L 161.0 123.5 L 165.5 123.5 L 166.5 123.5 L 166.5 123.5 L 166.0 123.5 L 166.0 123.5 L 166.0 123.5 L 166.0 123.5 L 165.5 123.5 L 165.5 123.5 " stroke="black" fill="none" stroke-width="6.0" stroke-linecap="round" stroke-linejoin="round" />
<path d="M 131.0 136.0 L 131.5 136.0 L 132.0 135.5 L 132.0 135.0 L 132.0 135.0 L 132.5 136.0 L 132.5 139.5 L 133.0 145.5 L 133.0 151.0 L 133.0 154.5 L 132.5 155.0 L 132.5 154.5 " stroke="black" fill="none" stroke-width="6.0" stroke-linecap="round" stroke-linejoin="round" />
<path d="M 132.5 136.5 L 132.5 136.5 L 133.0 136.5 L 133.0 136.5 L 133.5 136.0 L 134.5 136.0 L 137.0 135.5 L 143.0 135.5 L 151.5 134.5 L 160.5 134.0 L 166.5 134.0 L 168.5 135.0 L 168.5 136.0 L 168.5 136.0 L 168.0 136.5 L 168.0 137.0 L 168.0 138.0 L 168.0 140.0 L 167.5 143.5 L 167.0 148.0 L 166.5 153.0 L 166.0 157.0 L 166.0 158.5 L 165.5 158.5 L 165.5 157.0 " stroke="black" fill="none" stroke-width="6.0" stroke-linecap="round" stroke-linejoin="round" />
<path d="M 136.5 148.0 L 136.5 148.0 L 136.5 148.0 L 136.5 148.0 L 136.5 148.0 L 139.0 147.5 L 145.0 147.5 L 152.0 147.0 L 158.0 147.0 L 163.0 147.0 L 166.5 147.0 " stroke="black" fill="none" stroke-width="6.0" stroke-linecap="round" stroke-linejoin="round" />
<path d="M 137.0 161.5 L 137.0 161.5 L 136.5 161.5 L 136.5 161.0 L 136.5 160.5 L 138.5 160.5 L 145.0 160.5 L 154.0 160.5 L 162.5 160.5 L 168.0 160.5 L 169.0 160.5 " stroke="black" fill="none" stroke-width="6.0" stroke-linecap="round" stroke-linejoin="round" />
<path d="M 147.5 117.5 L 147.5 117.5 L 147.5 117.0 L 147.5 117.0 L 147.5 117.0 L 148.0 118.0 L 148.5 121.5 L 149.5 127.0 L 150.0 136.5 L 150.5 148.5 L 151.0 161.0 L 151.5 172.0 L 152.0 181.0 L 152.5 187.0 L 153.0 188.5 L 153.0 188.5 L 153.0 187.5 L 152.0 185.5 " stroke="black" fill="none" stroke-width="6.0" stroke-linecap="round" stroke-linejoin="round" />
<path d="M 149.0 161.5 L 149.0 161.0 L 149.0 161.0 L 149.0 160.5 L 149.0 160.5 L 147.5 162.0 L 144.5 166.0 L 139.0 172.5 L 132.5 178.5 L 128.5 182.0 L 128.5 183.0 L 129.5 182.0 " stroke="black" fill="none" stroke-width="6.0" stroke-linecap="round" stroke-linejoin="round" />
<path d="M 155.5 166.5 L 155.5 166.5 L 155.5 166.0 L 155.5 165.5 L 155.5 165.5 L 156.0 166.0 L 159.0 169.0 L 165.5 174.5 L 174.5 180.0 L 181.5 183.0 L 183.5 183.5 L 183.5 183.5 " stroke="black" fill="none" stroke-width="6.0" stroke-linecap="round" stroke-linejoin="round" />
</svg>