<svg xmlns="http://www.w3.org/2000/svg" width="300" height="300" viewBox="0 0 300 300">
<path d="M 132.0 136.0 L 132.0 136.0 L 132.0 135.5 L 132.0 135.5 L 132.0 135.5 L 132.0 135.5 L 132.0 136.5 L 130.0 140.5 L 127.5 145.5 L 125.0 149.5 L 124.5 151.0 " stroke="black" fill="none" stroke-width="6.0" stroke-linecap="round" stroke-linejoin="round" />
<path d="M 143.5 139.5 L 143.5 138.5 L 143.5 138.0 L 143.5 137.5 L 143.5 137.5 L 143.5 138.5 L 143.5 141.5 L 143.5 147.0 L 145.0 152.5 L 148.5 158.0 L 154.0 160.5 L 159.5 160.5 L 164.5 159.5 L 167.0 158.5 L 167.5 157.5 L 167.5 156.5 L 167.0 155.0 L 166.0 154.0 L 165.5 153.0 L 165.5 152.5 L 165.5 152.0 L 165.5 151.5 " stroke="black" fill="none" stroke-width="6.0" stroke-linecap="round" stroke-linejoin="round" />
<path d="M 154.5 133.0 L 154.5 133.0 L 154.0 133.0 L 153.5 133.5 L 153.0 133.5 L 153.0 134.0 L 154.5 134.5 L 157.0 136.0 L 159.0 137.5 L 160.5 138.5 L 161.5 139.0 " stroke="black" fill="none" stroke-width="6.0" stroke-linecap="round" stroke-linejoin="round" />
<path d="M 172.5 134.5 L 173.5 135.0 L 174.0 135.5 L 175.0 136.5 L 176.5 138.5 L 178.0 142.0 L 179.5 145.0 L 180.5 147.0 L 180.5 148.5 " stroke="black" fill="none" stroke-width="6.0" stroke-linecap="round" stroke-linejoin="round" />
</svg>